<svg width="18" height="16" viewBox="0 0 18 16" fill="none" xmlns="http://www.w3.org/2000/svg">
<path d="M2.33341 0.5C1.41294 0.5 0.666748 1.24619 0.666748 2.16667V6.33333V13.8333C0.666748 14.7538 1.41294 15.5 2.33342 15.5H15.6667C16.5872 15.5 17.3334 14.7538 17.3334 13.8333V6.33333V2.16667C17.3334 1.24619 16.5872 0.5 15.6667 0.5H2.33341ZM15.6667 2.16667V5.5H2.33341V2.16667H15.6667ZM2.33341 7.16667H15.6667V13.8333H2.33341V7.16667ZM7.33342 3.83333C7.33342 4.29357 6.96032 4.66667 6.50008 4.66667C6.03984 4.66667 5.66675 4.29357 5.66675 3.83333C5.66675 3.3731 6.03984 3 6.50008 3C6.96032 3 7.33342 3.3731 7.33342 3.83333ZM4.00008 4.66667C4.46032 4.66667 4.83342 4.29357 4.83342 3.83333C4.83342 3.3731 4.46032 3 4.00008 3C3.53984 3 3.16675 3.3731 3.16675 3.83333C3.16675 4.29357 3.53984 4.66667 4.00008 4.66667Z" fill="currentColor"/>
</svg>
