<svg width="18" height="13" viewBox="0 0 18 13" fill="none" xmlns="http://www.w3.org/2000/svg">
<path d="M12.5001 0.999959C12.5001 0.539722 12.8732 0.166626 13.3334 0.166626C13.864 0.166626 14.3855 0.273246 14.8929 0.476229C15.4452 0.697133 15.8703 1.02496 16.256 1.4107C16.6417 1.79644 16.9696 2.22154 17.1905 2.7738C17.3935 3.28126 17.5001 3.80268 17.5001 4.33329C17.5001 4.86391 17.3935 5.38533 17.1905 5.89279C16.9723 6.43812 16.65 6.85946 16.2705 7.24135L15.45 8.14385C15.4411 8.15363 15.432 8.1632 15.4227 8.17255L12.756 10.8392C12.3703 11.225 11.9452 11.5528 11.3929 11.7737C10.8855 11.9767 10.364 12.0833 9.83342 12.0833C9.3028 12.0833 8.78138 11.9767 8.27392 11.7737C7.72166 11.5528 7.29657 11.225 6.91083 10.8392C6.52509 10.4535 6.19726 10.0284 5.97635 9.47612C5.76946 8.9589 5.66675 8.437 5.66675 7.83329C5.66675 7.30268 5.77337 6.78126 5.97635 6.2738C6.19726 5.72154 6.52509 5.29644 6.91083 4.9107L7.82749 3.99404C8.15293 3.6686 8.68057 3.6686 9.006 3.99404C9.33144 4.31947 9.33144 4.84711 9.006 5.17255L8.08934 6.08922C7.80841 6.37014 7.63624 6.61171 7.52381 6.89278C7.39346 7.21866 7.33342 7.53057 7.33342 7.83329C7.33342 8.22959 7.39737 8.54102 7.52381 8.85713C7.63624 9.13821 7.80841 9.37978 8.08934 9.6607C8.37026 9.94163 8.61184 10.1138 8.89291 10.2262C9.21878 10.3566 9.5307 10.4166 9.83342 10.4166C10.1361 10.4166 10.448 10.3566 10.7739 10.2262C11.055 10.1138 11.2966 9.94163 11.5775 9.6607L14.2301 7.00806L15.0501 6.10607C15.059 6.09628 15.0681 6.08672 15.0775 6.07737C15.3584 5.79644 15.5306 5.55487 15.643 5.2738C15.7734 4.94792 15.8334 4.63601 15.8334 4.33329C15.8334 4.03058 15.7734 3.71866 15.643 3.39278C15.5306 3.11171 15.3584 2.87014 15.0775 2.58922C14.7966 2.30829 14.555 2.13612 14.2739 2.02369C13.948 1.89334 13.6361 1.83329 13.3334 1.83329C12.8732 1.83329 12.5001 1.4602 12.5001 0.999959ZM8.41675 2.24996C8.11403 2.24996 7.80212 2.31001 7.47624 2.44036C7.19517 2.55279 6.9536 2.72496 6.67267 3.00588L3.93669 5.74186L3.1167 6.64385C3.10781 6.65363 3.09868 6.6632 3.08934 6.67255C2.80841 6.95347 2.63624 7.19505 2.52381 7.47612C2.39346 7.80199 2.33341 8.11391 2.33341 8.41663C2.33341 8.71934 2.39346 9.03126 2.52381 9.35713C2.63624 9.63821 2.80841 9.87978 3.08934 10.1607C3.37026 10.4416 3.61184 10.6138 3.89291 10.7262C4.21878 10.8566 4.5307 10.9166 4.83342 10.9166C5.29365 10.9166 5.66675 11.2897 5.66675 11.75C5.66675 12.2102 5.29365 12.5833 4.83342 12.5833C4.3028 12.5833 3.78138 12.4767 3.27392 12.2737C2.72166 12.0528 2.29657 11.725 1.91083 11.3392C1.52509 10.9535 1.19726 10.5284 0.976351 9.97612C0.773368 9.46866 0.666748 8.94724 0.666748 8.41663C0.666748 7.88601 0.773368 7.36459 0.976351 6.85713C1.19449 6.3118 1.51688 5.89046 1.89634 5.50857L2.7168 4.60607C2.72569 4.59628 2.73481 4.58672 2.74416 4.57737L5.49416 1.82737C5.8799 1.44163 6.305 1.1138 6.85726 0.892895C7.36471 0.689912 7.88613 0.583293 8.41675 0.583293C8.94736 0.583293 9.46878 0.689912 9.97624 0.892895C10.5285 1.1138 10.9536 1.44163 11.3393 1.82737C11.7251 2.21311 12.0529 2.63821 12.2738 3.19047C12.4768 3.69792 12.5834 4.21934 12.5834 4.74996C12.5834 5.28057 12.4768 5.80199 12.2738 6.30945C12.0554 6.85539 11.7326 7.27705 11.3526 7.65928L10.4477 8.6464C10.1367 8.98566 9.60958 9.00858 9.27031 8.69759C8.93105 8.38659 8.90813 7.85945 9.21912 7.52019L10.1358 6.52019C10.1439 6.51129 10.1523 6.50257 10.1608 6.49404C10.4418 6.21311 10.6139 5.97154 10.7264 5.69047C10.8567 5.36459 10.9167 5.05268 10.9167 4.74996C10.9167 4.44724 10.8567 4.13533 10.7264 3.80945C10.6139 3.52838 10.4418 3.28681 10.1608 3.00588C9.8799 2.72496 9.63833 2.55279 9.35726 2.44036C9.03138 2.31001 8.71947 2.24996 8.41675 2.24996Z" fill="currentColor"/>
</svg>
