<svg width="1195" height="236" viewBox="0 0 1195 236" fill="none" xmlns="http://www.w3.org/2000/svg">
<path d="M0.667969 118.001V235.334H25.3346H50.0013V118.001V0.667305H25.3346H0.667969V118.001Z" fill="#696A6E"/>
<path d="M99.3346 1.06731C99.3346 1.33398 94.268 30.0006 88.0013 64.6673C81.7346 99.334 76.668 128.534 76.668 129.601C76.668 130.934 81.868 131.334 102.401 131.334C127.735 131.334 128.268 131.334 131.068 128.267C140.135 118.667 163.735 114.401 176.668 119.867C178.268 120.534 181.335 116.134 189.735 100.801C195.735 89.8673 200.668 80.6673 200.668 80.2673C200.668 79.0673 196.135 77.8673 186.801 76.6673C169.068 74.534 147.335 78.8006 136.668 86.6673C134.001 88.6673 131.868 89.4673 131.601 88.6673C131.335 87.8673 132.668 78.2673 134.801 67.334L138.401 47.334L179.068 47.0673L219.735 46.6673L225.468 36.4006C228.535 30.6673 234.268 20.4006 238.001 13.334L244.801 0.667311H172.135C132.135 0.667311 99.3346 0.800644 99.3346 1.06731Z" fill="#696A6E"/>
<path d="M380.667 2.13379C344.8 6.26712 312.667 27.3338 295.6 58.0004C284.4 78.1338 278.8 108.4 281.867 132.8C283.467 145.867 288.934 165.467 293.467 174.267C298 183.2 309.334 198.4 315.867 204.267C330.667 217.6 350.667 228.134 369.334 232.134C383.334 235.334 408.134 234.934 421.334 231.467C449.6 224 469.734 208.8 484.534 183.734C494.267 167.067 499.334 148.4 501.467 122.267L502.267 111.334H453.467H404.667V122.667V134H439.467H474.4L473.467 141.2C471.334 160.134 461.867 179.734 449.334 191.067C435.467 203.867 417.067 210.267 394.534 210.267C368.934 210.267 350.8 202.934 333.334 185.334C321.867 173.867 314.8 161.734 310.534 146.4C307.6 135.734 306.534 110.534 308.667 98.8004C312 79.2004 322.534 59.7338 336.4 47.3338C345.867 38.8005 364.8 29.4671 377.2 27.3338C390.667 24.8005 412.267 26.2671 424.267 30.4005C435.467 34.2671 450.267 43.7338 457.334 51.4671L462.267 56.9338L471.6 47.8671L480.8 38.6671L473.067 31.4671C448.934 8.80045 415.067 -1.86621 380.667 2.13379Z" fill="#696A6E"/>
<path d="M1096.4 1.99983C1071.07 5.19983 1048.67 17.3332 1038.13 33.7332C1022.67 57.8665 1025.33 91.3332 1044.13 108.666C1050.93 114.933 1065.33 122.4 1076.13 125.2C1080.4 126.266 1091.87 128.133 1101.33 129.333C1131.47 132.933 1145.2 136.533 1155.6 143.333C1172.67 154.666 1173.6 180.266 1157.33 195.2C1145.73 205.866 1130.8 210.533 1108 210.4C1082.53 210.266 1056.8 202.133 1037.07 187.866C1034.27 185.866 1034 186.133 1028.13 195.333C1024.8 200.533 1022 205.333 1022 205.866C1022 207.333 1033.73 215.2 1042.67 219.733C1052.27 224.533 1071.73 230.8 1083.33 232.666C1098.8 235.333 1124.53 234.8 1137.33 231.466C1151.73 227.733 1168 219.333 1176.53 211.2C1189.87 198.533 1197.33 175.866 1194.13 157.733C1188.8 127.066 1166.67 112.133 1117.6 105.866C1081.07 101.333 1067.6 96.2665 1058.8 83.5998C1055.6 79.0665 1054.67 76.1332 1054.27 69.4665C1052.53 41.9998 1074.4 25.7332 1112.67 25.7332C1132.53 25.7332 1146 29.0665 1164.27 38.6665C1174 43.5998 1178.27 45.3332 1179.07 44.1332C1179.73 43.3332 1182.53 38.9332 1185.2 34.2665C1191.2 24.3998 1191.87 25.4665 1174 16.1332C1161.6 9.73317 1149.47 5.59983 1137.47 3.4665C1126 1.33317 1106.53 0.666502 1096.4 1.99983Z" fill="#696A6E"/>
<path d="M548.668 121.334V235.334H560.001H571.335V121.334V7.33397H560.001H548.668V121.334Z" fill="#696A6E"/>
<path d="M642 121.334V235.334H654H666V184.001V132.667H726.667H787.333V120.667V108.667H726.667H666V70.0006V31.334H729.333H792.667V19.334V7.33397H717.333H642V121.334Z" fill="#696A6E"/>
<path d="M816.668 19.334V31.334H855.335H894.001V133.334V235.334H906.668H919.335V133.334V31.334H958.001H996.668V19.334V7.33397H906.668H816.668V19.334Z" fill="#696A6E"/>
<path d="M68.0029 176.267C71.7362 195.867 81.7362 212.533 95.8695 222.933C103.87 228.8 112.803 234 115.07 234C116.136 234 138.003 195.2 138.003 193.2C138.003 192.533 136.136 190.8 134.003 189.333C128.936 186 123.603 178.533 121.87 172.133L120.536 167.333H93.4695H66.2695L68.0029 176.267Z" fill="#696A6E"/>
</svg>
