<svg version="1.0" xmlns="http://www.w3.org/2000/svg" fill="currentColor" width="30" height="30" viewBox="0 0 22.5 22.5"><path d="M10.941 0.338c-0.124 0.028 -0.304 0.079 -0.399 0.124 -0.096 0.039 -1.952 1.097 -4.129 2.351 -4.376 2.514 -4.466 2.576 -4.731 3.234l-0.135 0.338v9.731l0.135 0.332c0.084 0.214 0.236 0.439 0.422 0.624 0.287 0.293 0.495 0.416 7.228 4.286 0.664 0.383 1.305 0.72 1.434 0.754s0.422 0.051 0.653 0.039c0.36 -0.023 0.489 -0.056 0.844 -0.248 0.439 -0.231 6.767 -3.876 7.571 -4.359 0.698 -0.416 1.007 -0.81 1.142 -1.457 0.051 -0.231 0.062 -1.553 0.051 -5.034l-0.017 -4.725 -0.158 -0.343c-0.09 -0.197 -0.276 -0.456 -0.422 -0.596 -0.191 -0.186 -1.423 -0.928 -4.314 -2.588 -2.228 -1.288 -4.14 -2.363 -4.247 -2.396 -0.298 -0.096 -0.681 -0.118 -0.928 -0.068M15.244 3.808c2.953 1.704 3.758 2.194 3.701 2.244 -0.084 0.073 -3.116 1.823 -3.167 1.823 -0.023 0 -0.253 -0.225 -0.523 -0.495 -0.759 -0.771 -1.581 -1.249 -2.593 -1.513 -0.709 -0.191 -1.873 -0.214 -2.565 -0.051 -1.142 0.264 -2.34 0.973 -3.026 1.8 -0.118 0.141 -0.236 0.259 -0.27 0.259 -0.062 0 -3.077 -1.727 -3.184 -1.823S11.025 1.631 11.289 1.631c0.146 0 1.069 0.506 3.954 2.177m-3.488 3.229c0.906 0.113 1.704 0.478 2.408 1.091 0.512 0.456 0.608 0.349 -1.187 1.384 -0.872 0.506 -1.637 0.923 -1.699 0.923s-0.827 -0.416 -1.699 -0.923l-1.581 -0.923 0.09 -0.141c0.152 -0.236 0.788 -0.726 1.243 -0.962 0.484 -0.248 0.906 -0.383 1.423 -0.45 0.506 -0.068 0.484 -0.068 1.001 0m-5.642 2.104c-0.011 0.062 -0.096 0.338 -0.18 0.619 -0.214 0.714 -0.259 1.794 -0.096 2.559 0.354 1.716 1.418 3.116 2.936 3.881 0.467 0.236 1.176 0.473 1.592 0.534l0.264 0.039v1.907c0 1.806 -0.006 1.907 -0.101 1.856 -0.051 -0.028 -0.326 -0.186 -0.602 -0.343 -0.281 -0.163 -1.913 -1.103 -3.628 -2.093s-3.189 -1.873 -3.274 -1.963L2.869 15.975V7.149l1.637 0.939c1.389 0.799 1.631 0.956 1.609 1.052m13.573 2.419V15.975l-0.152 0.163c-0.09 0.09 -1.727 1.069 -3.645 2.177 -1.918 1.103 -3.594 2.07 -3.724 2.143l-0.242 0.141v-3.831l0.214 -0.034c1.851 -0.315 3.42 -1.502 4.202 -3.189 0.304 -0.669 0.428 -1.215 0.461 -2.064 0.034 -0.827 -0.023 -1.271 -0.248 -1.997 -0.113 -0.36 -0.124 -0.456 -0.062 -0.489 0.473 -0.281 3.173 -1.845 3.184 -1.845 0.006 -0.006 0.011 1.98 0.011 4.41M9.191 10.8l1.412 0.816 0.017 1.901 0.011 1.896h-0.129c-0.208 0 -0.709 -0.163 -1.108 -0.366 -1.086 -0.546 -1.907 -1.547 -2.228 -2.728 -0.141 -0.501 -0.141 -1.626 0 -2.138 0.056 -0.203 0.113 -0.383 0.129 -0.411 0.028 -0.051 -0.006 -0.068 1.896 1.029m6.199 -0.664c0.084 0.276 0.107 0.529 0.107 1.142 -0.006 0.709 -0.017 0.833 -0.158 1.238 -0.439 1.26 -1.283 2.166 -2.486 2.666 -0.231 0.096 -0.534 0.191 -0.675 0.214l-0.253 0.034v-1.907l0.006 -1.907 1.637 -0.939c0.906 -0.518 1.659 -0.928 1.676 -0.917 0.023 0.017 0.09 0.186 0.146 0.377"/></svg>
