<svg id="Layer_1" data-name="Layer 1" xmlns="http://www.w3.org/2000/svg" viewBox="0 0 691.83 148.42"><defs><style>.cls-1{fill:#0a20a0;}</style></defs><title>Bluecore_Logo_RGB</title><path class="cls-1" d="M118,47.39c0-.07-.07-.12-.09-.19l-.13-.2a9.51,9.51,0,0,0-3.39-3.31l-38.11-22a9.55,9.55,0,0,0-9.56,0l-38.11,22A9.57,9.57,0,0,0,25.22,47c0,.08-.09.12-.12.19a.85.85,0,0,0-.09.22A9.45,9.45,0,0,0,23.83,52V96a9.57,9.57,0,0,0,4.78,8.3l38.11,22a9.55,9.55,0,0,0,9.56,0l38.11-22a9.57,9.57,0,0,0,4.79-8.3V52A9.2,9.2,0,0,0,118,47.39ZM70,27.27a3.11,3.11,0,0,1,3.12,0l36.4,21.05L93.3,57.69a27.19,27.19,0,0,0-43.6,0L33.48,48.32ZM92.31,74A20.84,20.84,0,0,1,74.72,94.55V75.85L90.91,66.5A20.91,20.91,0,0,1,92.31,74ZM52.09,66.52l16.19,9.35v18.7A20.8,20.8,0,0,1,51,70.79a21.2,21.2,0,0,1,1.13-4.22ZM71.5,70.28,55.33,60.93a20.76,20.76,0,0,1,29.19-3.15,20.4,20.4,0,0,1,3.15,3.15ZM31.83,98.71A3.13,3.13,0,0,1,30.26,96V53.9l16.22,9.35a27.28,27.28,0,0,0,21.83,37.81v18.72Zm79.34,0L74.72,119.76V101A27.26,27.26,0,0,0,96.55,63.2l16.21-9.35V96A3.14,3.14,0,0,1,111.17,98.71Z"/><path class="cls-1" d="M207.56,69.67c7.95-2.8,11.81-8.41,11.81-15.78,0-10.52-7.48-18.94-20.81-20.58a73.64,73.64,0,0,0-10.29-.47H155.18v80.68h32.15a93.19,93.19,0,0,0,11.93-.47c10.87-1.28,23.15-8.77,23.15-23.85C222.41,79.38,217.73,72.6,207.56,69.67ZM176.22,49.21h9.48a37,37,0,0,1,5.26.35c4,.59,6.43,2.81,6.43,7.37,0,4.79-2.69,6.78-6.55,7.37a35.33,35.33,0,0,1-5.14.35h-9.48ZM192.83,97c-1.52.12-3.39.12-5.26.12H176.22V79.85H187c1.87,0,3.74,0,5.26.11,4.33.35,8.19,3.16,8.19,8.54A8.2,8.2,0,0,1,192.83,97Z"/><path class="cls-1" d="M252.58,96.8a37.83,37.83,0,0,1-.23-5.73V32.84h-21V91.42c0,4.68,0,7.84.23,11.11.47,8.3,6,12.16,15.67,12.16,4.68,0,8.42-.23,12.28-.58V99.84C254,100.08,252.93,99.26,252.58,96.8Z"/><path class="cls-1" d="M308.59,86.39c0,8.31-4,14.5-10.64,14.5s-9.47-3.5-10.17-9.47a83.75,83.75,0,0,1-.47-8.53V51.08H266.26V87.56a81.76,81.76,0,0,0,.59,11.81c1.4,8.54,9.23,15.79,22.1,15.79a26.17,26.17,0,0,0,13.8-3.5h0s1.64-.94,2.25-1.37a37.12,37.12,0,0,0,3.6-2.9v6.11h21V51.08H308.59Z"/><path class="cls-1" d="M372.08,49.45c-20.81,0-33.32,14.85-33.32,33.09,0,22,14.26,32.62,32.15,32.62,16,0,27.72-8,31.34-22.1h-20.7c-.81,4.79-4.44,7.83-10.4,7.83S360.62,98,359.57,87.56h43.5a58.85,58.85,0,0,0,.35-6.08C403.42,65.35,392.9,49.45,372.08,49.45ZM360.27,74.7c1.41-7.72,5.27-11,10.76-11s9.24,3.63,10.41,11Z"/><path class="cls-1" d="M441.66,100.89c-7.14,0-11.11-5.84-11.11-19.17,0-12,3.86-18,10.87-18,5.26,0,9.36,3,10.29,11.23h20.35c-.59-14-11.81-25.49-30.17-25.49S409,61.49,409,83c0,20.58,13.56,32.16,31.45,32.16,16.95,0,29.46-8.42,31.8-24.56H451.6C450.43,97.39,446.45,100.89,441.66,100.89Z"/><path class="cls-1" d="M511.23,49.45c-20.46,0-33.56,12.74-33.56,32.85s13.1,32.86,33.56,32.86,33.56-12.86,33.56-32.86S531.69,49.45,511.23,49.45Zm0,51.44c-7.48,0-12-6.19-12-18.59s4.56-18.59,12-18.59,12,6.08,12,18.59S518.71,100.89,511.23,100.89Z"/><path class="cls-1" d="M579.63,54.71h0s-1.43,1.23-1.94,1.78A35.84,35.84,0,0,0,575,59.71V51.08H553.91v62.44H575V90.6c0-18.82,5.73-24.67,21.51-23.62V49.8a28.45,28.45,0,0,0-4.79-.35A17.2,17.2,0,0,0,579.63,54.71Z"/><path class="cls-1" d="M664.17,81.48c0-16.13-10.52-32-31.33-32S599.51,64.3,599.51,82.54c0,22,14.27,32.62,32.16,32.62,16,0,27.71-8,31.33-22.1H642.31c-.82,4.79-4.44,7.83-10.41,7.83S621.38,98,620.33,87.56h43.49A53.75,53.75,0,0,0,664.17,81.48ZM621,74.7c1.4-7.72,5.26-11,10.75-11s9.24,3.63,10.41,11Z"/></svg>