<?xml version="1.0" encoding="utf-8"?>
<!-- Generator: Adobe Illustrator 19.0.0, SVG Export Plug-In . SVG Version: 6.00 Build 0)  -->
<svg version="1.1" id="layer" xmlns="http://www.w3.org/2000/svg" xmlns:xlink="http://www.w3.org/1999/xlink" x="0px" y="0px"
	 viewBox="-153 -46 652 652" style="enable-background:new -153 -46 652 652;" xml:space="preserve">
<style type="text/css">
	.st0{fill:#494949;}
	.st1{fill:#40C9FF;}
	.st2{fill:#9661BA;}
	.st3{fill:#FFA233;}
	.st4{fill:#FF5A7E;}
	.st5{fill:#FFD91D;}
</style>
<path class="st0" d="M30.1,274.6c0-22.6-32.7-60.1-60.6-74.8c-7.4-3.9-14.4-6.2-20.4-6.2c-7.2,0-16,3.3-25.1,8.8
	c-8.8,5.3-17.9,12.7-26.1,20.9c-8.3,8.3-15.7,17.5-21.1,26.4c-5.4,8.9-8.7,17.6-8.7,24.8c0,28.6,52.3,81,81,81c7.2,0,16-3.3,25-8.8
	c8.8-5.3,18-12.7,26.2-20.9s15.7-17.5,21-26.3C26.8,290.5,30.1,281.8,30.1,274.6z"/>
<path class="st1" d="M-24.3,248c-8.3-8.8-17.2-17.1-26.5-24.8c-7.8-6.4-15.8-12.1-23.8-16.6c-8.3,5-16.9,12-24.6,19.7l48.3,48.3
	L-24.3,248z"/>
<path class="st2" d="M-31.6,204.1c-7-3.7-13.6-5.8-19.3-5.8c-6.8,0-15.1,3.2-23.6,8.3c8,4.5,16,10.3,23.8,16.6L-31.6,204.1z"/>
<path class="st3" d="M-25.7,299.8l-25.2-25.2l-48.3-48.3c-7.8,7.8-14.8,16.5-19.9,24.9c16.2,27.9,46.9,55.9,68.4,73.5L-25.7,299.8z"
	/>
<path class="st4" d="M-27.3,342.6c-1.9-1.4-11.2-8-23.4-18c-21.5-17.5-52.2-45.5-68.4-73.4c-5,8.4-8.2,16.6-8.2,23.4
	c0,27,49.4,76.3,76.3,76.3C-44,350.9-35.8,347.8-27.3,342.6z"/>
<path class="st5" d="M25.5,274.6c0-21.3-30.9-56.6-57.1-70.5l-19.1,19.1c9.3,7.7,18.1,16,26.4,24.8l-26.6,26.6l25.2,25.2l-24.9,24.9
	c12.2,10,21.4,16.6,23.4,18c8.3-5,16.9-12,24.7-19.7c7.8-7.8,14.8-16.5,19.9-24.9C22.4,289.6,25.5,281.4,25.5,274.6z"/>
<path class="st0" d="M70.1,299.5c-0.7-0.3-1.2-0.8-1.7-1.3c-1-1.4-0.9-3.2,0.3-4.4c0.6-0.7,1.5-1,2.4-1c0.5,0,1.1,0.1,1.6,0.3
	c5.1,2.2,10.6,3.4,16.2,3.3c9.6,0,14.4-3.2,14.4-9.5c0-1.6-0.6-3.1-1.9-4.1c-1.3-1.2-2.9-2-4.6-2.6c-1.8-0.6-4.4-1.4-7.7-2.3
	c-3.7-0.9-7.3-2-10.8-3.3c-2.7-1-5.1-2.7-7.1-4.8c-2-2.1-3-5-3-8.5c0-3,0.8-6,2.5-8.5c1.8-2.7,4.3-4.8,7.3-6
	c3.2-1.5,7.1-2.3,11.5-2.3c5.6-0.1,11.1,0.8,16.4,2.7c1.4,0.4,2.4,1.8,2.3,3.3c0,0.9-0.3,1.7-0.9,2.4c-0.6,0.7-1.5,1.1-2.4,1.1
	c-0.5,0-0.9-0.1-1.3-0.3c-4.3-1.5-8.7-2.2-13.2-2.2c-4.3,0-7.8,0.8-10.6,2.5c-2.7,1.6-4.1,3.9-4.1,6.9c-0.1,1.8,0.6,3.6,1.9,4.8
	c1.4,1.3,3,2.3,4.9,2.9c2.6,0.9,5.2,1.6,7.9,2.2c3.6,0.8,7.1,1.9,10.5,3.1c2.6,1,5,2.7,6.8,4.9c1.9,2.2,2.8,5.1,2.8,8.9
	c0,3-0.9,5.9-2.6,8.3c-1.9,2.5-4.5,4.5-7.4,5.7c-3.5,1.4-7.3,2.1-11,2C82.9,303.5,76.2,302.1,70.1,299.5z M121.1,302
	c-0.7-0.7-1.1-1.6-1.1-2.6V246c0-1,0.4-2,1.1-2.7c0.7-0.7,1.6-1.1,2.6-1.1c2.1,0,3.8,1.7,3.8,3.8v21.4c1.9-2.2,4.2-4.1,6.7-5.5
	c2.6-1.4,5.5-2.1,8.5-2c2.8-0.1,5.5,0.7,7.9,2.1c2.2,1.4,4,3.4,5.1,5.8c1.2,2.5,1.8,5.3,1.8,8.1v23.3c0,1-0.4,1.9-1.1,2.6
	c-0.7,0.7-1.7,1.1-2.7,1.1c-2,0-3.7-1.6-3.7-3.6v-22.6c0-6.7-3-10-9-10c-2.6,0-5.2,0.7-7.3,2.2c-2.3,1.6-4.4,3.5-6.1,5.7v24.6
	c0,1-0.4,1.9-1.1,2.6c-0.7,0.7-1.7,1.1-2.7,1.1C122.8,303.1,121.8,302.7,121.1,302z M190.6,295.1c2.2-1.1,4.1-2.6,5.7-4.4v-6.9h-9
	c-8.3,0-12.4,2.2-12.4,6.5c-0.1,1.8,0.7,3.5,2,4.7c1.3,1.2,3.6,1.8,6.7,1.8C186,296.9,188.4,296.3,190.6,295.1z M174.1,302
	c-2-0.9-3.7-2.4-4.9-4.3c-1.2-1.9-1.8-4.2-1.8-6.5c-0.1-3.8,1.7-7.5,4.8-9.7c3.2-2.4,7.9-3.6,14.1-3.6h9.9v-0.7
	c0-3.6-0.9-6.2-2.7-7.8c-1.8-1.6-4.6-2.4-8.3-2.4c-1.9,0-3.7,0.1-5.6,0.5c-1.8,0.4-3.6,0.9-5.4,1.5c-0.3,0.1-0.7,0.1-1.1,0.2
	c-1.7,0-3-1.4-3-3.1c0,0,0,0,0,0c0-1.4,0.8-2.7,2.2-3.1c4.5-1.9,9.3-3,14.2-3c3.8,0,7,0.8,9.6,2.3c2.5,1.4,4.5,3.4,5.8,6
	c1.2,2.5,1.8,5.2,1.8,7.9v23.3c0,1-0.4,1.9-1.1,2.6c-0.7,0.7-1.7,1.1-2.7,1.1c-2,0-3.7-1.6-3.7-3.6v-2.2c-4.1,4.2-9.3,6.2-15.5,6.2
	C178.5,303.5,176.2,303,174.1,302z M217.4,302c-0.7-0.7-1.1-1.6-1.1-2.6v-35.3c0-1,0.4-2,1.1-2.7c0.7-0.7,1.6-1.1,2.6-1.1
	c2.1,0,3.8,1.7,3.8,3.8c0,0,0,0,0,0v3.5c3.8-5.1,8.1-7.7,12.9-7.7h0.4c1,0,1.9,0.4,2.6,1.1c0.7,0.7,1,1.7,1,2.6c0,1-0.4,1.9-1.1,2.6
	c-0.7,0.7-1.7,1-2.7,1h-0.4c-2.5,0-5,0.7-7.2,1.9c-2.2,1.3-4.1,3.1-5.5,5.3v25c0,1-0.4,1.9-1.1,2.6c-0.7,0.7-1.7,1.1-2.7,1.1
	C219,303.1,218,302.7,217.4,302z M275.8,278.2c-0.1-2.4-0.8-4.7-2.1-6.7c-1.1-1.7-2.7-3.1-4.6-4c-3.5-1.7-7.6-1.7-11,0
	c-1.9,0.9-3.4,2.3-4.5,4c-1.3,2-2,4.4-2,6.7L275.8,278.2z M249.6,297.8c-3.8-3.8-5.6-9.1-5.6-16.1c0-3.7,0.7-7.4,2.2-10.8
	c1.4-3.2,3.6-6,6.5-7.9c3-2,6.6-3,10.9-3c4,0,7.6,1,10.5,2.8c2.9,1.8,5.2,4.4,6.7,7.5c1.6,3.2,2.3,6.7,2.3,10.3
	c0.1,2-1.5,3.6-3.5,3.7h-28.2c0.4,3.8,1.9,6.8,4.3,9c2.4,2.1,5.8,3.2,10.1,3.2c2,0,4.1-0.2,6-0.7c1.7-0.4,3.4-1.1,5.1-1.9
	c0.5-0.2,1-0.3,1.5-0.3c0.9,0,1.7,0.3,2.3,0.9c0.7,0.6,1,1.4,1,2.3c0,1.2-0.7,2.2-2.2,3c-4.3,2.6-9.3,3.8-14.4,3.6
	C258.6,303.5,253.4,301.6,249.6,297.8L249.6,297.8z M304.7,299.9c-4.3-2.4-7.9-5.9-10.3-10.3c-2.5-4.5-3.7-9.7-3.7-15.7
	c0-6,1.2-11.2,3.7-15.7c2.4-4.3,5.9-7.9,10.3-10.3c4.5-2.4,9.6-3.7,14.8-3.6c3.4-0.1,6.7,0.4,10,1.3c3,0.9,6,2.2,8.8,3.8
	c1.2,0.6,1.9,1.8,1.8,3.1c0,1.7-1.4,3.1-3.2,3.1c0,0-0.1,0-0.1,0c-0.5,0-1-0.1-1.5-0.3c-2.3-1.2-4.6-2.2-7.1-2.9c-2.6-0.7-5.3-1-8-1
	c-4.7,0-8.7,1-12,2.9c-3.2,1.8-5.8,4.6-7.5,8c-3.3,7.3-3.3,15.6,0,22.9c1.6,3.3,4.2,6.1,7.5,8c3.3,1.9,7.3,2.9,12,2.9
	c2.7,0,5.4-0.3,8-1c2.4-0.7,4.8-1.7,7.1-2.9c0.5-0.2,1-0.3,1.5-0.3c0.9,0,1.7,0.3,2.4,0.9c0.6,0.6,0.9,1.4,0.9,2.2
	c0.1,1.3-0.6,2.5-1.8,3.1c-2.8,1.6-5.7,2.9-8.8,3.8c-3.3,0.9-6.6,1.3-10,1.3C314.3,303.5,309.2,302.3,304.7,299.9z M350.8,302
	c-0.7-0.7-1.1-1.6-1-2.6V246c0-1,0.4-2,1.1-2.7c0.7-0.7,1.6-1.1,2.6-1.1c2.1,0,3.8,1.7,3.8,3.8v21.4c1.9-2.2,4.2-4.1,6.7-5.5
	c2.6-1.4,5.5-2.1,8.5-2c2.8-0.1,5.5,0.7,7.9,2.1c2.2,1.4,4,3.5,5.1,5.8c1.2,2.5,1.8,5.3,1.8,8.1v23.3c0,1-0.4,1.9-1.1,2.6
	c-0.7,0.7-1.7,1.1-2.7,1.1c-2,0-3.7-1.6-3.7-3.6v-22.6c0-6.7-3-10-9-10c-2.6,0-5.2,0.7-7.3,2.2c-2.3,1.6-4.4,3.5-6.1,5.8v24.6
	c0,1-0.4,1.9-1.1,2.6c-0.7,0.7-1.7,1.1-2.7,1.1C352.4,303.1,351.5,302.7,350.8,302z M420.2,295.1c2.2-1.1,4.1-2.6,5.7-4.4v-6.9h-9
	c-8.3,0-12.4,2.2-12.4,6.5c-0.1,1.8,0.7,3.5,2,4.7c1.3,1.2,3.6,1.8,6.7,1.8C415.7,296.9,418.1,296.3,420.2,295.1z M403.8,302
	c-2-0.9-3.7-2.4-4.9-4.3c-1.2-2-1.9-4.2-1.8-6.5c-0.1-3.8,1.7-7.5,4.8-9.7c3.2-2.4,7.9-3.6,14.1-3.6h9.9v-0.7c0-3.6-0.9-6.2-2.7-7.8
	c-1.8-1.6-4.6-2.4-8.3-2.4c-1.9,0-3.7,0.1-5.6,0.5c-1.8,0.4-3.6,0.9-5.4,1.5c-0.3,0.1-0.7,0.1-1.1,0.2c-1.7,0-3-1.4-3-3.1
	c0,0,0,0,0,0c0-1.4,0.8-2.7,2.2-3.1c4.5-1.9,9.3-3,14.2-3c3.8,0,7,0.8,9.6,2.3c2.5,1.4,4.5,3.4,5.8,6c1.2,2.5,1.9,5.2,1.9,7.9v23.3
	c0,1-0.4,1.9-1.1,2.6c-0.7,0.7-1.7,1.1-2.7,1.1c-2,0-3.7-1.6-3.7-3.6v-2.2c-4.1,4.2-9.2,6.3-15.5,6.2
	C408.2,303.5,405.9,303,403.8,302z M468.2,299.1c0,1.3-0.6,2.2-1.9,2.9c-2.1,1-4.5,1.5-6.8,1.5c-8,0-12-3.6-12-10.8v-25.5h-4.7
	c-0.9,0-1.7-0.3-2.3-0.9c-0.6-0.6-0.9-1.4-0.9-2.3c-0.1-1.7,1.3-3.1,3-3.2c0,0,0,0,0,0h5v-14.8c0-2,1.6-3.7,3.7-3.7h0
	c1,0,2,0.4,2.7,1.1c0.7,0.7,1.1,1.6,1.1,2.6v14.8h9.3c1.8,0,3.2,1.5,3.2,3.3c0,0.8-0.3,1.6-0.9,2.2c-0.6,0.6-1.4,1-2.3,0.9h-9.3
	v24.8c0,2.1,0.5,3.5,1.5,4.1c1.2,0.6,2.5,0.9,3.8,0.9c1.1,0,2.2-0.2,3.3-0.5l0.7-0.2c0.3-0.1,0.6-0.1,1-0.1c0.8,0,1.5,0.3,2,0.9
	C467.8,297.6,468.2,298.3,468.2,299.1z"/>
</svg>
