<svg id="svg" version="1.1" xmlns="http://www.w3.org/2000/svg" xmlns:xlink="http://www.w3.org/1999/xlink" width="400" height="86.0847018150389" viewBox="0, 0, 400,86.0847018150389"><g id="svgg"><path id="path0" d="M4.542 0.119 C 4.244 0.157,4.000 0.258,4.000 0.344 C 4.000 0.430,3.867 0.500,3.703 0.500 C 3.540 0.500,3.299 0.650,3.167 0.833 C 3.035 1.017,2.822 1.167,2.694 1.167 C 2.391 1.167,1.167 2.391,1.167 2.694 C 1.167 2.822,1.017 3.035,0.833 3.167 C 0.650 3.299,0.500 3.534,0.500 3.690 C 0.500 3.845,0.406 4.003,0.292 4.042 C -0.015 4.144,-0.015 62.856,0.292 62.958 C 0.406 62.997,0.500 63.139,0.500 63.275 C 0.500 63.611,3.060 66.167,3.397 66.167 C 3.545 66.167,3.667 66.242,3.667 66.333 C 3.667 66.425,3.817 66.500,4.000 66.500 C 4.183 66.500,4.333 66.575,4.333 66.667 C 4.333 66.758,4.558 66.833,4.833 66.833 C 5.108 66.833,5.333 66.908,5.333 67.000 C 5.333 67.110,15.000 67.167,34.000 67.167 C 53.000 67.167,62.667 67.110,62.667 67.000 C 62.667 66.908,62.929 66.833,63.250 66.833 C 63.571 66.833,63.833 66.758,63.833 66.667 C 63.833 66.575,64.007 66.500,64.219 66.500 C 64.430 66.500,64.765 66.350,64.962 66.167 C 65.158 65.983,65.401 65.833,65.501 65.833 C 65.732 65.833,66.500 65.071,66.500 64.841 C 66.500 64.745,66.575 64.667,66.667 64.667 C 66.758 64.667,66.833 64.549,66.833 64.405 C 66.833 64.105,67.223 63.667,67.488 63.667 C 67.586 63.667,67.667 63.517,67.667 63.333 C 67.667 63.150,67.742 63.000,67.833 63.000 C 67.925 63.000,68.000 62.850,68.000 62.667 C 68.000 62.483,68.075 62.333,68.167 62.333 C 68.258 62.333,68.333 62.038,68.333 61.677 C 68.333 61.315,68.408 60.973,68.500 60.917 C 68.731 60.774,68.731 6.000,68.500 6.000 C 68.408 6.000,68.333 5.700,68.333 5.333 C 68.333 4.967,68.258 4.667,68.167 4.667 C 68.075 4.667,67.998 4.498,67.995 4.292 C 67.989 3.862,67.637 3.333,67.357 3.333 C 67.252 3.333,67.167 3.222,67.167 3.085 C 67.167 2.817,66.922 2.489,65.971 1.482 C 65.635 1.125,65.278 0.833,65.177 0.833 C 64.944 0.833,64.285 0.466,64.131 0.250 C 64.016 0.089,5.794 -0.039,4.542 0.119 M54.295 18.500 C 54.769 19.383,55.074 19.907,55.167 20.000 C 55.212 20.046,55.351 20.262,55.474 20.481 C 56.156 21.693,56.670 22.572,59.069 26.629 C 59.781 27.833,59.754 28.109,58.875 28.599 C 58.352 28.890,54.262 31.455,48.701 34.979 C 48.032 35.403,47.282 35.871,47.034 36.019 C 46.786 36.167,45.608 36.909,44.417 37.667 C 43.225 38.425,42.048 39.166,41.802 39.314 C 40.919 39.845,37.388 42.057,35.917 43.002 C 35.092 43.531,33.329 44.645,32.000 45.477 C 30.671 46.309,29.505 47.048,29.408 47.120 C 29.312 47.191,29.087 47.335,28.908 47.439 C 28.730 47.543,27.796 48.124,26.833 48.730 C 25.871 49.336,25.037 49.832,24.980 49.832 C 24.738 49.835,11.412 36.293,11.363 35.995 C 11.332 35.800,11.906 34.725,12.762 33.374 C 13.561 32.114,14.935 29.938,15.815 28.538 C 17.563 25.760,17.651 25.700,18.290 26.833 C 18.523 27.246,18.864 27.846,19.047 28.167 C 19.230 28.488,19.569 29.087,19.800 29.500 C 20.030 29.912,20.507 30.726,20.859 31.309 C 21.212 31.891,21.500 32.394,21.500 32.426 C 21.500 32.459,21.735 32.882,22.023 33.368 C 22.516 34.199,22.675 34.473,23.500 35.917 C 23.683 36.237,23.983 36.762,24.167 37.083 C 24.350 37.404,24.659 37.948,24.852 38.292 C 25.660 39.725,26.036 40.333,26.115 40.333 C 26.219 40.333,26.737 39.926,27.866 38.958 C 28.993 37.991,36.940 31.214,38.917 29.534 C 39.742 28.833,40.604 28.096,40.833 27.897 C 41.063 27.699,42.075 26.835,43.083 25.979 C 44.092 25.123,45.104 24.259,45.333 24.060 C 45.563 23.860,47.475 22.229,49.583 20.434 L 53.417 17.171 53.699 17.544 C 53.855 17.749,54.123 18.179,54.295 18.500 " stroke="none" fill="#ec6424" fill-rule="evenodd"></path><path id="path1" d="M49.583 20.434 C 47.475 22.229,45.563 23.860,45.333 24.060 C 45.104 24.259,44.092 25.123,43.083 25.979 C 42.075 26.835,41.063 27.699,40.833 27.897 C 40.604 28.096,39.742 28.833,38.917 29.534 C 36.940 31.214,28.993 37.991,27.866 38.958 C 26.737 39.926,26.219 40.333,26.115 40.333 C 26.036 40.333,25.660 39.725,24.852 38.292 C 24.659 37.948,24.350 37.404,24.167 37.083 C 23.983 36.762,23.683 36.237,23.500 35.917 C 22.675 34.473,22.516 34.199,22.023 33.368 C 21.735 32.882,21.500 32.459,21.500 32.426 C 21.500 32.394,21.212 31.891,20.859 31.309 C 20.507 30.726,20.030 29.912,19.800 29.500 C 19.569 29.087,19.230 28.488,19.047 28.167 C 18.864 27.846,18.523 27.246,18.290 26.833 C 17.651 25.700,17.563 25.760,15.815 28.538 C 14.935 29.938,13.561 32.114,12.762 33.374 C 11.906 34.725,11.332 35.800,11.363 35.995 C 11.412 36.293,24.738 49.835,24.980 49.832 C 25.037 49.832,25.871 49.336,26.833 48.730 C 27.796 48.124,28.730 47.543,28.908 47.439 C 29.087 47.335,29.312 47.191,29.408 47.120 C 29.505 47.048,30.671 46.309,32.000 45.477 C 33.329 44.645,35.092 43.531,35.917 43.002 C 37.388 42.057,40.919 39.845,41.802 39.314 C 42.048 39.166,43.225 38.425,44.417 37.667 C 45.608 36.909,46.786 36.167,47.034 36.019 C 47.282 35.871,48.032 35.403,48.701 34.979 C 54.262 31.455,58.352 28.890,58.875 28.599 C 59.754 28.109,59.781 27.833,59.069 26.629 C 56.670 22.572,56.156 21.693,55.474 20.481 C 55.351 20.262,55.212 20.046,55.167 20.000 C 55.074 19.907,54.769 19.383,54.295 18.500 C 54.123 18.179,53.855 17.749,53.699 17.544 L 53.417 17.171 49.583 20.434 " stroke="none" fill="#fbfaf9" fill-rule="evenodd"></path><path id="path2" d="M121.500 33.917 L 121.500 67.833 127.750 67.833 L 134.000 67.833 134.000 33.917 L 134.000 0.000 127.750 0.000 L 121.500 0.000 121.500 33.917 M336.917 1.667 C 336.860 1.758,336.605 1.833,336.349 1.833 C 335.825 1.833,334.833 2.277,334.833 2.512 C 334.833 2.597,334.721 2.667,334.584 2.667 C 334.299 2.667,332.333 4.546,332.333 4.819 C 332.333 4.919,332.258 5.000,332.167 5.000 C 332.075 5.000,332.000 5.150,332.000 5.333 C 332.000 5.517,331.925 5.667,331.833 5.667 C 331.742 5.667,331.667 6.004,331.667 6.417 C 331.667 6.829,331.592 7.167,331.500 7.167 C 331.403 7.167,331.333 7.722,331.333 8.500 C 331.333 9.278,331.403 9.833,331.500 9.833 C 331.592 9.833,331.667 10.058,331.667 10.333 C 331.667 10.608,331.742 10.833,331.833 10.833 C 331.925 10.833,332.000 11.014,332.000 11.236 C 332.000 11.470,332.244 11.889,332.583 12.239 C 332.904 12.569,333.167 12.951,333.167 13.086 C 333.167 13.222,333.287 13.333,333.433 13.333 C 333.580 13.333,333.910 13.558,334.167 13.833 C 334.424 14.108,334.754 14.333,334.900 14.333 C 335.047 14.333,335.167 14.408,335.167 14.500 C 335.167 14.592,335.467 14.667,335.833 14.667 C 336.200 14.667,336.500 14.742,336.500 14.833 C 336.500 14.934,337.194 15.000,338.250 15.000 C 339.306 15.000,340.000 14.934,340.000 14.833 C 340.000 14.742,340.225 14.667,340.500 14.667 C 340.775 14.667,341.000 14.592,341.000 14.500 C 341.000 14.408,341.225 14.333,341.500 14.333 C 341.775 14.333,342.000 14.258,342.000 14.167 C 342.000 14.075,342.113 14.000,342.250 14.000 C 342.387 14.000,342.500 13.925,342.500 13.833 C 342.500 13.742,342.598 13.667,342.719 13.667 C 342.988 13.667,343.833 12.806,343.833 12.533 C 343.833 12.423,343.908 12.333,344.000 12.333 C 344.092 12.333,344.167 12.221,344.167 12.083 C 344.167 11.946,344.242 11.833,344.333 11.833 C 344.425 11.833,344.500 11.683,344.500 11.500 C 344.500 11.317,344.575 11.167,344.667 11.167 C 344.758 11.167,344.833 10.867,344.833 10.500 C 344.833 10.133,344.908 9.833,345.000 9.833 C 345.099 9.833,345.167 9.226,345.167 8.343 C 345.167 7.524,345.092 6.807,345.000 6.750 C 344.908 6.693,344.833 6.426,344.833 6.157 C 344.833 5.887,344.758 5.667,344.667 5.667 C 344.575 5.667,344.500 5.472,344.500 5.234 C 344.500 4.967,344.307 4.621,344.000 4.333 C 343.725 4.076,343.500 3.746,343.500 3.600 C 343.500 3.453,343.367 3.333,343.203 3.333 C 343.040 3.333,342.799 3.183,342.667 3.000 C 342.535 2.817,342.363 2.667,342.285 2.667 C 342.207 2.667,342.030 2.554,341.893 2.417 C 341.755 2.279,341.498 2.167,341.321 2.167 C 341.145 2.167,341.000 2.092,341.000 2.000 C 341.000 1.908,340.700 1.833,340.333 1.833 C 339.967 1.833,339.667 1.758,339.667 1.667 C 339.667 1.570,339.114 1.500,338.343 1.500 C 337.615 1.500,336.973 1.575,336.917 1.667 M282.667 9.333 C 282.667 9.425,282.367 9.500,282.000 9.500 C 281.633 9.500,281.333 9.575,281.333 9.667 C 281.333 9.758,280.996 9.833,280.583 9.833 C 280.171 9.833,279.833 9.908,279.833 10.000 C 279.833 10.092,279.608 10.167,279.333 10.167 C 279.058 10.167,278.833 10.242,278.833 10.333 C 278.833 10.425,278.533 10.500,278.167 10.500 C 277.800 10.500,277.500 10.575,277.500 10.667 C 277.500 10.758,277.279 10.833,277.010 10.833 C 276.740 10.833,276.473 10.908,276.417 11.000 C 276.360 11.092,276.060 11.167,275.750 11.167 C 275.440 11.167,275.140 11.242,275.083 11.333 C 275.027 11.425,274.760 11.500,274.490 11.500 C 274.221 11.500,274.000 11.574,274.000 11.665 C 274.000 11.755,273.700 11.877,273.333 11.936 C 272.967 11.995,272.667 12.103,272.667 12.176 C 272.667 12.250,272.498 12.334,272.292 12.363 L 271.917 12.417 271.872 16.625 L 271.828 20.833 268.747 20.833 L 265.667 20.833 265.667 25.500 L 265.667 30.167 268.750 30.167 L 271.833 30.167 271.833 41.839 C 271.833 52.060,271.864 53.522,272.083 53.606 C 272.285 53.684,272.333 54.067,272.333 55.601 C 272.333 56.756,272.399 57.500,272.500 57.500 C 272.592 57.500,272.667 57.875,272.667 58.333 C 272.667 58.792,272.742 59.167,272.833 59.167 C 272.925 59.167,273.000 59.429,273.000 59.750 C 273.000 60.071,273.075 60.333,273.167 60.333 C 273.258 60.333,273.333 60.558,273.333 60.833 C 273.333 61.108,273.408 61.333,273.500 61.333 C 273.592 61.333,273.667 61.483,273.667 61.667 C 273.667 61.850,273.742 62.000,273.833 62.000 C 273.925 62.000,274.000 62.150,274.000 62.333 C 274.000 62.517,274.075 62.667,274.167 62.667 C 274.258 62.667,274.333 62.800,274.333 62.963 C 274.333 63.126,274.483 63.368,274.667 63.500 C 274.850 63.632,275.002 63.855,275.003 63.995 C 275.008 64.317,276.869 66.167,277.189 66.167 C 277.319 66.167,277.535 66.317,277.667 66.500 C 277.799 66.683,278.040 66.833,278.203 66.833 C 278.367 66.833,278.500 66.908,278.500 67.000 C 278.500 67.092,278.650 67.167,278.833 67.167 C 279.017 67.167,279.167 67.242,279.167 67.333 C 279.167 67.425,279.317 67.500,279.500 67.500 C 279.683 67.500,279.833 67.575,279.833 67.667 C 279.833 67.758,280.054 67.833,280.323 67.833 C 280.593 67.833,280.860 67.908,280.917 68.000 C 280.973 68.092,281.390 68.167,281.843 68.167 C 282.296 68.167,282.667 68.242,282.667 68.333 C 282.667 68.440,284.083 68.500,286.583 68.500 C 289.083 68.500,290.500 68.440,290.500 68.333 C 290.500 68.239,290.972 68.167,291.583 68.167 C 292.194 68.167,292.667 68.094,292.667 68.000 C 292.667 67.908,292.967 67.833,293.333 67.833 C 293.700 67.833,294.000 67.758,294.000 67.667 C 294.000 67.575,294.150 67.500,294.333 67.500 C 294.659 67.500,294.667 67.389,294.667 62.667 L 294.667 57.833 294.000 57.833 C 293.633 57.833,293.333 57.908,293.333 58.000 C 293.333 58.093,292.889 58.167,292.333 58.167 C 291.778 58.167,291.333 58.241,291.333 58.333 C 291.333 58.427,290.861 58.500,290.250 58.500 C 289.639 58.500,289.167 58.427,289.167 58.333 C 289.167 58.242,288.792 58.167,288.333 58.167 C 287.875 58.167,287.500 58.092,287.500 58.000 C 287.500 57.908,287.388 57.833,287.252 57.833 C 286.824 57.833,285.333 56.486,285.333 56.100 C 285.333 55.953,285.258 55.833,285.167 55.833 C 285.075 55.833,285.000 55.683,285.000 55.500 C 285.000 55.317,284.925 55.167,284.833 55.167 C 284.742 55.167,284.667 54.904,284.667 54.583 C 284.667 54.262,284.592 54.000,284.500 54.000 C 284.405 54.000,284.333 53.500,284.333 52.833 C 284.333 52.167,284.262 51.667,284.167 51.667 C 284.057 51.667,284.000 47.972,284.000 40.917 L 284.000 30.167 289.503 30.167 L 295.005 30.167 294.961 25.542 L 294.917 20.917 289.458 20.873 L 284.000 20.829 284.000 14.998 L 284.000 9.167 283.333 9.167 C 282.967 9.167,282.667 9.242,282.667 9.333 M100.500 20.000 C 100.500 20.095,100.003 20.167,99.343 20.167 C 98.707 20.167,98.140 20.242,98.083 20.333 C 98.027 20.425,97.685 20.500,97.323 20.500 C 96.962 20.500,96.667 20.575,96.667 20.667 C 96.667 20.758,96.399 20.833,96.071 20.833 C 95.744 20.833,95.370 20.939,95.241 21.068 C 95.112 21.198,94.855 21.264,94.672 21.216 C 94.458 21.160,94.300 21.226,94.234 21.398 C 94.172 21.559,93.939 21.667,93.649 21.667 C 93.384 21.667,93.167 21.742,93.167 21.833 C 93.167 21.925,93.017 22.000,92.833 22.000 C 92.650 22.000,92.500 22.075,92.500 22.167 C 92.500 22.258,92.275 22.333,92.000 22.333 C 91.725 22.333,91.500 22.408,91.500 22.500 C 91.500 22.592,91.350 22.667,91.167 22.667 C 90.983 22.667,90.833 22.742,90.833 22.833 C 90.833 22.925,90.721 23.000,90.583 23.000 C 90.446 23.000,90.333 23.075,90.333 23.167 C 90.333 23.258,90.183 23.333,90.000 23.333 C 89.817 23.333,89.667 23.408,89.667 23.500 C 89.667 23.592,89.533 23.667,89.370 23.667 C 89.207 23.667,88.965 23.817,88.833 24.000 C 88.701 24.183,88.490 24.333,88.363 24.333 C 88.237 24.333,87.924 24.558,87.667 24.833 C 87.410 25.108,87.123 25.333,87.030 25.333 C 86.796 25.333,83.833 28.280,83.833 28.512 C 83.833 28.615,83.608 28.910,83.333 29.167 C 83.058 29.424,82.833 29.719,82.833 29.824 C 82.833 29.928,82.683 30.175,82.500 30.372 C 82.317 30.569,82.167 30.865,82.167 31.031 C 82.167 31.197,82.092 31.333,82.000 31.333 C 81.908 31.333,81.833 31.483,81.833 31.667 C 81.833 31.850,81.758 32.000,81.667 32.000 C 81.575 32.000,81.500 32.150,81.500 32.333 C 81.500 32.519,81.389 32.667,81.250 32.667 C 81.111 32.667,81.000 32.815,81.000 33.000 C 81.000 33.183,80.925 33.333,80.833 33.333 C 80.742 33.333,80.667 33.483,80.667 33.667 C 80.667 33.850,80.592 34.000,80.500 34.000 C 80.408 34.000,80.333 34.146,80.333 34.323 C 80.333 34.501,80.258 34.693,80.167 34.750 C 80.075 34.807,80.000 35.074,80.000 35.343 C 80.000 35.613,79.925 35.833,79.833 35.833 C 79.742 35.833,79.667 36.058,79.667 36.333 C 79.667 36.608,79.592 36.833,79.500 36.833 C 79.408 36.833,79.333 37.133,79.333 37.500 C 79.333 37.867,79.258 38.167,79.167 38.167 C 79.074 38.167,79.000 38.611,79.000 39.167 C 79.000 39.722,78.926 40.167,78.833 40.167 C 78.726 40.167,78.667 41.833,78.667 44.833 C 78.667 47.833,78.726 49.500,78.833 49.500 C 78.925 49.500,79.000 49.913,79.000 50.417 C 79.000 50.921,79.075 51.333,79.167 51.333 C 79.258 51.333,79.333 51.633,79.333 52.000 C 79.333 52.367,79.408 52.667,79.500 52.667 C 79.592 52.667,79.667 52.892,79.667 53.167 C 79.667 53.442,79.742 53.667,79.833 53.667 C 79.925 53.667,80.000 53.892,80.000 54.167 C 80.000 54.442,80.075 54.667,80.167 54.667 C 80.258 54.667,80.333 54.843,80.333 55.058 C 80.333 55.518,80.792 56.500,81.007 56.500 C 81.089 56.500,81.113 56.612,81.061 56.749 C 81.006 56.891,81.080 57.041,81.233 57.100 C 81.380 57.156,81.500 57.344,81.500 57.518 C 81.500 57.691,81.575 57.833,81.667 57.833 C 81.758 57.833,81.833 57.967,81.833 58.130 C 81.833 58.293,81.983 58.535,82.167 58.667 C 82.350 58.799,82.500 59.040,82.500 59.203 C 82.500 59.367,82.575 59.500,82.667 59.500 C 82.758 59.500,82.833 59.596,82.833 59.713 C 82.833 59.830,82.983 60.035,83.167 60.167 C 83.350 60.299,83.500 60.504,83.500 60.623 C 83.500 60.854,85.570 63.000,85.793 63.000 C 85.867 63.000,86.035 63.150,86.167 63.333 C 86.299 63.517,86.505 63.667,86.626 63.667 C 86.746 63.667,87.098 63.910,87.407 64.208 C 88.234 65.004,88.889 65.495,89.125 65.498 C 89.240 65.499,89.333 65.575,89.333 65.667 C 89.333 65.758,89.479 65.833,89.657 65.833 C 89.835 65.833,90.027 65.908,90.083 66.000 C 90.140 66.092,90.332 66.167,90.510 66.167 C 90.688 66.167,90.833 66.242,90.833 66.333 C 90.833 66.425,90.983 66.500,91.167 66.500 C 91.350 66.500,91.500 66.575,91.500 66.667 C 91.500 66.758,91.725 66.833,92.000 66.833 C 92.275 66.833,92.500 66.908,92.500 67.000 C 92.500 67.092,92.725 67.167,93.000 67.167 C 93.275 67.167,93.500 67.242,93.500 67.333 C 93.500 67.425,93.725 67.500,94.000 67.500 C 94.275 67.500,94.500 67.575,94.500 67.667 C 94.500 67.758,94.837 67.833,95.250 67.833 C 95.662 67.833,96.000 67.908,96.000 68.000 C 96.000 68.092,96.375 68.167,96.833 68.167 C 97.292 68.167,97.667 68.242,97.667 68.333 C 97.667 68.441,99.444 68.500,102.667 68.500 C 105.889 68.500,107.667 68.441,107.667 68.333 C 107.667 68.239,108.139 68.167,108.750 68.167 C 109.361 68.167,109.833 68.094,109.833 68.000 C 109.833 67.908,110.208 67.833,110.667 67.833 C 111.125 67.833,111.500 67.758,111.500 67.667 C 111.500 67.575,111.800 67.500,112.167 67.500 C 112.533 67.500,112.833 67.425,112.833 67.333 C 112.833 67.242,113.058 67.167,113.333 67.167 C 113.608 67.167,113.833 67.092,113.833 67.000 C 113.833 66.908,114.096 66.833,114.417 66.833 C 114.737 66.833,115.000 66.758,115.000 66.667 C 115.000 66.575,115.150 66.500,115.333 66.500 C 115.702 66.500,115.854 64.302,115.500 64.083 C 115.408 64.027,115.333 63.535,115.333 62.990 C 115.333 62.441,115.259 62.000,115.167 62.000 C 115.075 62.000,115.000 61.625,115.000 61.167 C 115.000 60.708,114.925 60.333,114.833 60.333 C 114.741 60.333,114.667 59.892,114.667 59.343 C 114.667 58.799,114.592 58.307,114.500 58.250 C 114.408 58.193,114.333 57.926,114.333 57.657 C 114.333 57.174,114.320 57.167,113.417 57.167 C 112.912 57.167,112.500 57.242,112.500 57.333 C 112.500 57.425,112.350 57.500,112.167 57.500 C 111.983 57.500,111.833 57.575,111.833 57.667 C 111.833 57.758,111.533 57.833,111.167 57.833 C 110.800 57.833,110.500 57.908,110.500 58.000 C 110.500 58.092,110.200 58.167,109.833 58.167 C 109.467 58.167,109.167 58.242,109.167 58.333 C 109.167 58.430,108.639 58.500,107.917 58.500 C 107.194 58.500,106.667 58.570,106.667 58.667 C 106.667 58.767,105.972 58.833,104.917 58.833 C 103.861 58.833,103.167 58.767,103.167 58.667 C 103.167 58.575,102.796 58.500,102.343 58.500 C 101.890 58.500,101.473 58.425,101.417 58.333 C 101.360 58.242,101.060 58.167,100.750 58.167 C 100.440 58.167,100.140 58.092,100.083 58.000 C 100.027 57.908,99.760 57.833,99.490 57.833 C 99.221 57.833,99.000 57.758,99.000 57.667 C 99.000 57.575,98.850 57.500,98.667 57.500 C 98.483 57.500,98.333 57.425,98.333 57.333 C 98.333 57.242,98.200 57.167,98.037 57.167 C 97.874 57.167,97.632 57.017,97.500 56.833 C 97.368 56.650,97.165 56.500,97.049 56.500 C 96.816 56.500,96.113 55.914,95.190 54.948 C 94.857 54.599,94.340 54.058,94.042 53.746 C 93.744 53.433,93.500 53.063,93.500 52.922 C 93.500 52.782,93.425 52.667,93.333 52.667 C 93.242 52.667,93.167 52.517,93.167 52.333 C 93.167 52.150,93.092 52.000,93.000 52.000 C 92.908 52.000,92.833 51.850,92.833 51.667 C 92.833 51.483,92.758 51.333,92.667 51.333 C 92.575 51.333,92.500 51.183,92.500 51.000 C 92.500 50.817,92.425 50.667,92.333 50.667 C 92.242 50.667,92.167 50.521,92.167 50.343 C 92.167 50.165,92.092 49.973,92.000 49.917 C 91.908 49.860,91.833 49.518,91.833 49.157 C 91.833 48.796,91.758 48.500,91.667 48.500 C 91.575 48.500,91.500 48.125,91.500 47.667 C 91.500 47.208,91.425 46.833,91.333 46.833 C 91.229 46.833,91.167 45.864,91.167 44.260 C 91.167 42.724,91.234 41.645,91.333 41.583 C 91.425 41.527,91.500 41.110,91.500 40.657 C 91.500 40.204,91.575 39.833,91.667 39.833 C 91.758 39.833,91.833 39.608,91.833 39.333 C 91.833 39.058,91.908 38.833,92.000 38.833 C 92.092 38.833,92.167 38.608,92.167 38.333 C 92.167 38.058,92.242 37.833,92.333 37.833 C 92.425 37.833,92.500 37.683,92.500 37.500 C 92.500 37.317,92.575 37.167,92.667 37.167 C 92.758 37.167,92.833 37.017,92.833 36.833 C 92.833 36.650,92.908 36.500,93.000 36.500 C 93.092 36.500,93.167 36.329,93.167 36.120 C 93.167 35.911,93.317 35.632,93.500 35.500 C 93.683 35.368,93.833 35.162,93.833 35.043 C 93.833 34.829,95.561 33.000,95.763 33.000 C 95.820 33.000,96.076 32.775,96.333 32.500 C 96.590 32.225,96.920 32.000,97.067 32.000 C 97.213 32.000,97.333 31.943,97.333 31.874 C 97.333 31.805,97.558 31.648,97.833 31.527 C 98.108 31.405,98.333 31.199,98.333 31.069 C 98.333 30.918,98.513 30.833,98.833 30.833 C 99.108 30.833,99.333 30.758,99.333 30.667 C 99.333 30.575,99.521 30.500,99.750 30.500 C 99.979 30.500,100.167 30.425,100.167 30.333 C 100.167 30.242,100.467 30.167,100.833 30.167 C 101.200 30.167,101.500 30.092,101.500 30.000 C 101.500 29.907,101.944 29.833,102.500 29.833 C 103.056 29.833,103.500 29.759,103.500 29.667 C 103.500 29.569,104.083 29.500,104.917 29.500 C 105.750 29.500,106.333 29.569,106.333 29.667 C 106.333 29.764,106.889 29.833,107.667 29.833 C 108.444 29.833,109.000 29.903,109.000 30.000 C 109.000 30.092,109.337 30.167,109.750 30.167 C 110.162 30.167,110.500 30.242,110.500 30.333 C 110.500 30.425,110.725 30.500,111.000 30.500 C 111.275 30.500,111.500 30.575,111.500 30.667 C 111.500 30.758,111.650 30.833,111.833 30.833 C 112.017 30.833,112.167 30.899,112.167 30.980 C 112.167 31.153,113.618 31.659,113.746 31.531 C 113.794 31.484,113.833 31.157,113.833 30.806 C 113.833 30.349,113.905 30.167,114.083 30.167 C 114.264 30.167,114.333 29.981,114.333 29.500 C 114.333 29.133,114.408 28.833,114.500 28.833 C 114.592 28.833,114.667 28.538,114.667 28.177 C 114.667 27.815,114.742 27.473,114.833 27.417 C 114.925 27.360,115.000 26.943,115.000 26.490 C 115.000 26.037,115.075 25.667,115.167 25.667 C 115.258 25.667,115.333 25.367,115.333 25.000 C 115.333 24.633,115.408 24.333,115.500 24.333 C 115.592 24.333,115.667 24.033,115.667 23.667 C 115.667 23.300,115.742 23.000,115.833 23.000 C 115.925 23.000,116.000 22.775,116.000 22.500 C 116.000 22.111,115.926 22.000,115.667 22.000 C 115.483 22.000,115.333 21.925,115.333 21.833 C 115.333 21.742,115.116 21.667,114.851 21.667 C 114.561 21.667,114.328 21.559,114.266 21.398 C 114.200 21.226,114.042 21.160,113.828 21.216 C 113.645 21.264,113.388 21.198,113.259 21.068 C 113.130 20.939,112.835 20.833,112.605 20.833 C 112.375 20.833,112.140 20.758,112.083 20.667 C 112.027 20.575,111.652 20.500,111.250 20.500 C 110.848 20.500,110.473 20.425,110.417 20.333 C 110.360 20.242,109.793 20.167,109.157 20.167 C 108.497 20.167,108.000 20.095,108.000 20.000 C 108.000 19.894,106.639 19.833,104.250 19.833 C 101.861 19.833,100.500 19.894,100.500 20.000 M160.667 20.000 C 160.667 20.094,160.194 20.167,159.583 20.167 C 158.972 20.167,158.500 20.239,158.500 20.333 C 158.500 20.425,158.200 20.500,157.833 20.500 C 157.467 20.500,157.167 20.575,157.167 20.667 C 157.167 20.758,156.974 20.833,156.738 20.833 C 156.502 20.833,156.204 20.939,156.074 21.068 C 155.945 21.198,155.689 21.264,155.505 21.216 C 155.292 21.160,155.133 21.226,155.068 21.398 C 155.011 21.546,154.822 21.667,154.649 21.667 C 154.475 21.667,154.333 21.742,154.333 21.833 C 154.333 21.925,154.183 22.000,154.000 22.000 C 153.817 22.000,153.667 22.075,153.667 22.167 C 153.667 22.258,153.517 22.333,153.333 22.333 C 153.150 22.333,153.000 22.408,153.000 22.500 C 153.000 22.592,152.850 22.667,152.667 22.667 C 152.483 22.667,152.333 22.742,152.333 22.833 C 152.333 22.925,152.200 23.000,152.037 23.000 C 151.874 23.000,151.632 23.150,151.500 23.333 C 151.368 23.517,151.135 23.667,150.983 23.667 C 150.831 23.667,150.398 23.967,150.020 24.333 C 149.642 24.700,149.271 25.000,149.196 25.000 C 148.988 25.000,147.501 26.643,147.495 26.878 C 147.493 26.991,147.155 27.377,146.745 27.735 C 146.335 28.094,146.000 28.471,146.000 28.574 C 146.000 28.676,145.850 28.868,145.667 29.000 C 145.483 29.132,145.333 29.339,145.333 29.460 C 145.333 29.582,145.183 29.842,145.000 30.038 C 144.817 30.235,144.667 30.532,144.667 30.698 C 144.667 30.864,144.592 31.000,144.500 31.000 C 144.408 31.000,144.333 31.150,144.333 31.333 C 144.333 31.517,144.258 31.667,144.167 31.667 C 144.075 31.667,144.000 31.817,144.000 32.000 C 144.000 32.183,143.925 32.333,143.833 32.333 C 143.742 32.333,143.667 32.483,143.667 32.667 C 143.667 32.850,143.592 33.000,143.500 33.000 C 143.408 33.000,143.333 33.225,143.333 33.500 C 143.333 33.775,143.258 34.000,143.167 34.000 C 143.075 34.000,143.000 34.150,143.000 34.333 C 143.000 34.517,142.925 34.667,142.833 34.667 C 142.742 34.667,142.667 34.929,142.667 35.250 C 142.667 35.571,142.592 35.833,142.500 35.833 C 142.408 35.833,142.333 36.133,142.333 36.500 C 142.333 36.867,142.258 37.167,142.167 37.167 C 142.075 37.167,142.000 37.435,142.000 37.762 C 142.000 38.089,141.895 38.462,141.766 38.591 C 141.627 38.730,141.529 39.180,141.525 39.701 C 141.522 40.183,141.439 40.604,141.343 40.636 C 141.102 40.716,141.098 49.116,141.339 49.196 C 141.434 49.228,141.517 49.690,141.523 50.222 C 141.531 50.889,141.607 51.218,141.767 51.280 C 141.923 51.339,142.000 51.640,142.000 52.184 C 142.000 52.633,142.075 53.000,142.167 53.000 C 142.258 53.000,142.333 53.225,142.333 53.500 C 142.333 53.775,142.408 54.000,142.500 54.000 C 142.592 54.000,142.667 54.221,142.667 54.490 C 142.667 54.760,142.742 55.027,142.833 55.083 C 142.925 55.140,143.000 55.332,143.000 55.510 C 143.000 55.688,143.075 55.833,143.167 55.833 C 143.258 55.833,143.333 56.058,143.333 56.333 C 143.333 56.608,143.408 56.833,143.500 56.833 C 143.592 56.833,143.667 56.983,143.667 57.167 C 143.667 57.350,143.742 57.500,143.833 57.500 C 143.925 57.500,144.000 57.633,144.000 57.797 C 144.000 57.960,144.150 58.201,144.333 58.333 C 144.517 58.465,144.667 58.690,144.667 58.833 C 144.667 58.976,144.817 59.201,145.000 59.333 C 145.183 59.465,145.333 59.700,145.333 59.853 C 145.333 60.143,146.419 61.333,146.683 61.333 C 146.766 61.333,146.833 61.448,146.833 61.589 C 146.833 61.882,147.896 63.000,148.174 63.000 C 148.276 63.000,148.648 63.300,149.000 63.667 C 149.352 64.033,149.729 64.333,149.838 64.333 C 149.947 64.333,150.183 64.521,150.363 64.750 C 150.543 64.979,150.819 65.167,150.975 65.167 C 151.132 65.167,151.368 65.317,151.500 65.500 C 151.632 65.683,151.874 65.833,152.037 65.833 C 152.200 65.833,152.333 65.908,152.333 66.000 C 152.333 66.092,152.483 66.167,152.667 66.167 C 152.850 66.167,153.000 66.242,153.000 66.333 C 153.000 66.425,153.225 66.500,153.500 66.500 C 153.775 66.500,154.000 66.575,154.000 66.667 C 154.000 66.758,154.150 66.833,154.333 66.833 C 154.517 66.833,154.667 66.908,154.667 67.000 C 154.667 67.092,154.929 67.167,155.250 67.167 C 155.571 67.167,155.833 67.242,155.833 67.333 C 155.833 67.425,156.058 67.500,156.333 67.500 C 156.608 67.500,156.833 67.575,156.833 67.667 C 156.833 67.758,157.133 67.833,157.500 67.833 C 157.867 67.833,158.167 67.908,158.167 68.000 C 158.167 68.092,158.608 68.167,159.157 68.167 C 159.701 68.167,160.193 68.242,160.250 68.333 C 160.315 68.439,162.307 68.500,165.677 68.500 C 169.114 68.500,171.000 68.441,171.000 68.333 C 171.000 68.238,171.500 68.167,172.167 68.167 C 172.833 68.167,173.333 68.095,173.333 68.000 C 173.333 67.908,173.746 67.833,174.250 67.833 C 174.754 67.833,175.167 67.758,175.167 67.667 C 175.167 67.575,175.542 67.500,176.000 67.500 C 176.458 67.500,176.833 67.425,176.833 67.333 C 176.833 67.242,177.058 67.167,177.333 67.167 C 177.608 67.167,177.833 67.092,177.833 67.000 C 177.833 66.908,178.058 66.833,178.333 66.833 C 178.608 66.833,178.833 66.758,178.833 66.667 C 178.833 66.575,179.096 66.500,179.417 66.500 C 179.737 66.500,180.000 66.425,180.000 66.333 C 180.000 66.242,180.193 66.167,180.429 66.167 C 181.113 66.167,181.333 65.805,181.333 64.679 C 181.333 64.115,181.259 63.667,181.167 63.667 C 181.075 63.667,181.000 63.292,181.000 62.833 C 181.000 62.375,180.925 62.000,180.833 62.000 C 180.742 62.000,180.667 61.700,180.667 61.333 C 180.667 60.967,180.592 60.667,180.500 60.667 C 180.408 60.667,180.333 60.307,180.333 59.867 C 180.333 59.427,180.263 58.995,180.177 58.908 C 180.091 58.821,179.998 58.413,179.969 58.000 L 179.917 57.250 179.186 57.198 C 178.784 57.169,178.375 57.225,178.277 57.323 C 178.180 57.420,177.890 57.500,177.633 57.500 C 177.377 57.500,177.167 57.575,177.167 57.667 C 177.167 57.758,176.942 57.833,176.667 57.833 C 176.392 57.833,176.167 57.908,176.167 58.000 C 176.167 58.092,175.792 58.167,175.333 58.167 C 174.875 58.167,174.500 58.242,174.500 58.333 C 174.500 58.425,174.088 58.500,173.583 58.500 C 173.079 58.500,172.667 58.575,172.667 58.667 C 172.667 58.764,172.111 58.833,171.333 58.833 C 170.556 58.833,170.000 58.903,170.000 59.000 C 170.000 59.104,169.000 59.167,167.333 59.167 C 165.667 59.167,164.667 59.104,164.667 59.000 C 164.667 58.907,164.222 58.833,163.667 58.833 C 163.111 58.833,162.667 58.759,162.667 58.667 C 162.667 58.575,162.367 58.500,162.000 58.500 C 161.633 58.500,161.333 58.425,161.333 58.333 C 161.333 58.242,161.071 58.167,160.750 58.167 C 160.429 58.167,160.167 58.092,160.167 58.000 C 160.167 57.908,160.017 57.833,159.833 57.833 C 159.650 57.833,159.500 57.758,159.500 57.667 C 159.500 57.575,159.350 57.500,159.167 57.500 C 158.983 57.500,158.833 57.425,158.833 57.333 C 158.833 57.242,158.700 57.167,158.537 57.167 C 158.374 57.167,158.132 57.017,158.000 56.833 C 157.868 56.650,157.658 56.500,157.533 56.500 C 157.409 56.500,157.019 56.200,156.667 55.833 C 156.314 55.467,155.945 55.167,155.846 55.167 C 155.748 55.167,155.667 55.072,155.667 54.957 C 155.667 54.841,155.517 54.653,155.333 54.539 C 155.150 54.424,155.000 54.198,155.000 54.035 C 155.000 53.873,154.850 53.632,154.667 53.500 C 154.483 53.368,154.333 53.126,154.333 52.963 C 154.333 52.800,154.258 52.667,154.167 52.667 C 154.075 52.667,154.000 52.442,154.000 52.167 C 154.000 51.892,153.925 51.667,153.833 51.667 C 153.742 51.667,153.667 51.517,153.667 51.333 C 153.667 51.150,153.592 51.000,153.500 51.000 C 153.408 51.000,153.333 50.629,153.333 50.177 C 153.333 49.724,153.258 49.307,153.167 49.250 C 153.075 49.193,153.000 48.851,153.000 48.490 L 153.000 47.833 168.417 47.833 L 183.833 47.833 183.833 46.427 C 183.833 45.653,183.908 44.973,184.000 44.917 C 184.097 44.857,184.167 43.943,184.167 42.740 C 184.167 41.469,184.102 40.667,184.000 40.667 C 183.901 40.667,183.833 40.028,183.833 39.083 C 183.833 37.787,183.788 37.500,183.583 37.500 C 183.389 37.500,183.333 37.279,183.333 36.510 C 183.333 35.965,183.258 35.473,183.167 35.417 C 183.075 35.360,183.000 35.093,183.000 34.823 C 183.000 34.554,182.925 34.333,182.833 34.333 C 182.742 34.333,182.667 34.033,182.667 33.667 C 182.667 33.300,182.592 33.000,182.500 33.000 C 182.408 33.000,182.333 32.775,182.333 32.500 C 182.333 32.225,182.258 32.000,182.167 32.000 C 182.075 32.000,182.000 31.850,182.000 31.667 C 182.000 31.483,181.925 31.333,181.833 31.333 C 181.742 31.333,181.667 31.146,181.667 30.917 C 181.667 30.688,181.592 30.500,181.500 30.500 C 181.408 30.500,181.333 30.350,181.333 30.167 C 181.333 29.983,181.258 29.833,181.167 29.833 C 181.075 29.833,181.000 29.683,181.000 29.500 C 181.000 29.317,180.925 29.167,180.833 29.167 C 180.742 29.167,180.667 29.017,180.667 28.833 C 180.667 28.650,180.592 28.500,180.500 28.500 C 180.408 28.500,180.333 28.380,180.333 28.234 C 180.333 28.087,180.108 27.757,179.833 27.500 C 179.558 27.243,179.333 26.948,179.333 26.845 C 179.333 26.741,179.221 26.613,179.083 26.560 C 178.946 26.508,178.833 26.396,178.833 26.313 C 178.833 26.077,176.031 23.333,175.789 23.333 C 175.671 23.333,175.465 23.183,175.333 23.000 C 175.201 22.817,174.922 22.667,174.713 22.667 C 174.504 22.667,174.333 22.592,174.333 22.500 C 174.333 22.408,174.200 22.333,174.037 22.333 C 173.874 22.333,173.632 22.183,173.500 22.000 C 173.359 21.804,173.069 21.667,172.797 21.667 C 172.481 21.667,172.333 21.581,172.333 21.397 C 172.333 21.213,172.232 21.154,172.011 21.212 C 171.824 21.261,171.651 21.199,171.599 21.065 C 171.550 20.938,171.325 20.833,171.098 20.833 C 170.872 20.833,170.640 20.758,170.583 20.667 C 170.527 20.575,170.185 20.500,169.823 20.500 C 169.462 20.500,169.167 20.425,169.167 20.333 C 169.167 20.241,168.722 20.167,168.167 20.167 C 167.611 20.167,167.167 20.093,167.167 20.000 C 167.167 19.895,165.972 19.833,163.917 19.833 C 161.861 19.833,160.667 19.895,160.667 20.000 M203.500 20.000 C 203.500 20.096,202.972 20.167,202.250 20.167 C 201.528 20.167,201.000 20.237,201.000 20.333 C 201.000 20.425,200.631 20.500,200.181 20.500 C 199.730 20.500,199.336 20.572,199.306 20.659 C 199.275 20.747,198.969 20.837,198.625 20.860 C 198.281 20.883,198.000 20.961,198.000 21.034 C 198.000 21.107,197.698 21.167,197.328 21.167 C 196.885 21.167,196.624 21.252,196.560 21.417 C 196.506 21.559,196.257 21.667,195.982 21.667 C 195.717 21.667,195.500 21.742,195.500 21.833 C 195.500 21.925,195.275 22.000,195.000 22.000 C 194.725 22.000,194.500 22.075,194.500 22.167 C 194.500 22.258,194.350 22.333,194.167 22.333 C 193.983 22.333,193.833 22.408,193.833 22.500 C 193.833 22.592,193.683 22.667,193.500 22.667 C 193.317 22.667,193.167 22.742,193.167 22.833 C 193.167 22.925,192.979 23.000,192.750 23.000 C 192.521 23.000,192.333 23.075,192.333 23.167 C 192.333 23.258,192.183 23.333,192.000 23.333 C 191.817 23.333,191.667 23.408,191.667 23.500 C 191.667 23.592,191.517 23.667,191.333 23.667 C 191.037 23.667,191.000 23.778,191.000 24.667 C 191.000 25.222,191.074 25.667,191.167 25.667 C 191.258 25.667,191.333 25.887,191.333 26.157 C 191.333 26.426,191.408 26.693,191.500 26.750 C 191.592 26.807,191.667 27.074,191.667 27.343 C 191.667 27.613,191.742 27.833,191.833 27.833 C 191.925 27.833,192.000 28.133,192.000 28.500 C 192.000 28.867,192.075 29.167,192.167 29.167 C 192.258 29.167,192.333 29.392,192.333 29.667 C 192.333 29.942,192.408 30.167,192.500 30.167 C 192.592 30.167,192.667 30.394,192.667 30.672 C 192.667 30.967,192.771 31.217,192.917 31.273 C 193.059 31.328,193.167 31.576,193.167 31.851 C 193.167 32.329,193.528 32.525,193.750 32.167 C 193.807 32.075,193.999 32.000,194.177 32.000 C 194.354 32.000,194.500 31.925,194.500 31.833 C 194.500 31.742,194.650 31.667,194.833 31.667 C 195.017 31.667,195.167 31.592,195.167 31.500 C 195.167 31.408,195.317 31.333,195.500 31.333 C 195.685 31.333,195.833 31.222,195.833 31.083 C 195.833 30.944,195.981 30.833,196.167 30.833 C 196.350 30.833,196.500 30.758,196.500 30.667 C 196.500 30.575,196.725 30.500,197.000 30.500 C 197.275 30.500,197.500 30.425,197.500 30.333 C 197.500 30.242,197.762 30.167,198.083 30.167 C 198.404 30.167,198.667 30.092,198.667 30.000 C 198.667 29.908,198.892 29.833,199.167 29.833 C 199.442 29.833,199.667 29.758,199.667 29.667 C 199.667 29.575,199.967 29.500,200.333 29.500 C 200.700 29.500,201.000 29.425,201.000 29.333 C 201.000 29.242,201.412 29.167,201.917 29.167 C 202.421 29.167,202.833 29.092,202.833 29.000 C 202.833 28.896,203.861 28.833,205.583 28.833 C 207.306 28.833,208.333 28.896,208.333 29.000 C 208.333 29.092,208.633 29.167,209.000 29.167 C 209.367 29.167,209.667 29.242,209.667 29.333 C 209.667 29.425,209.857 29.500,210.090 29.500 C 210.323 29.500,210.675 29.650,210.872 29.833 C 211.069 30.017,211.334 30.167,211.461 30.167 C 211.674 30.167,212.150 30.621,213.375 31.993 C 213.627 32.275,213.833 32.617,213.833 32.753 C 213.833 32.889,213.908 33.000,214.000 33.000 C 214.092 33.000,214.167 33.225,214.167 33.500 C 214.167 33.775,214.242 34.000,214.333 34.000 C 214.425 34.000,214.500 34.375,214.500 34.833 C 214.500 35.292,214.575 35.667,214.667 35.667 C 214.758 35.667,214.833 35.929,214.833 36.250 L 214.833 36.833 212.917 36.833 C 211.750 36.833,211.000 36.899,211.000 37.000 C 211.000 37.102,210.222 37.167,209.000 37.167 C 207.778 37.167,207.000 37.231,207.000 37.333 C 207.000 37.427,206.528 37.500,205.917 37.500 C 205.306 37.500,204.833 37.573,204.833 37.667 C 204.833 37.758,204.458 37.833,204.000 37.833 C 203.542 37.833,203.167 37.908,203.167 38.000 C 203.167 38.092,202.829 38.167,202.417 38.167 C 202.004 38.167,201.667 38.242,201.667 38.333 C 201.667 38.425,201.367 38.500,201.000 38.500 C 200.633 38.500,200.333 38.575,200.333 38.667 C 200.333 38.758,200.108 38.833,199.833 38.833 C 199.558 38.833,199.333 38.908,199.333 39.000 C 199.333 39.092,199.183 39.167,199.000 39.167 C 198.817 39.167,198.667 39.242,198.667 39.333 C 198.667 39.425,198.442 39.500,198.167 39.500 C 197.892 39.500,197.667 39.575,197.667 39.667 C 197.667 39.758,197.514 39.833,197.328 39.833 C 197.142 39.833,196.948 39.941,196.898 40.073 C 196.847 40.205,196.700 40.272,196.571 40.222 C 196.442 40.173,196.290 40.252,196.234 40.399 C 196.177 40.546,196.006 40.667,195.852 40.667 C 195.699 40.667,195.465 40.817,195.333 41.000 C 195.201 41.183,194.976 41.333,194.833 41.333 C 194.690 41.333,194.465 41.483,194.333 41.667 C 194.201 41.850,193.976 42.000,193.833 42.000 C 193.690 42.000,193.465 42.150,193.333 42.333 C 193.201 42.517,193.031 42.667,192.955 42.667 C 192.619 42.667,190.000 45.549,190.000 45.919 C 190.000 46.055,189.925 46.167,189.833 46.167 C 189.742 46.167,189.667 46.317,189.667 46.500 C 189.667 46.683,189.592 46.833,189.500 46.833 C 189.408 46.833,189.333 46.983,189.333 47.167 C 189.333 47.350,189.258 47.500,189.167 47.500 C 189.075 47.500,189.000 47.650,189.000 47.833 C 189.000 48.017,188.925 48.167,188.833 48.167 C 188.742 48.167,188.667 48.310,188.667 48.486 C 188.667 48.662,188.587 48.832,188.489 48.865 C 188.392 48.897,188.269 49.241,188.217 49.629 C 188.165 50.016,188.070 50.333,188.005 50.333 C 187.940 50.333,187.874 50.690,187.858 51.125 C 187.841 51.560,187.754 51.942,187.664 51.972 C 187.567 52.005,187.500 52.999,187.500 54.417 C 187.500 55.835,187.567 56.828,187.664 56.861 C 187.754 56.892,187.841 57.273,187.858 57.708 C 187.874 58.144,187.950 58.500,188.027 58.500 C 188.104 58.500,188.167 58.720,188.167 58.988 C 188.167 59.257,188.279 59.589,188.417 59.726 C 188.554 59.864,188.667 60.132,188.667 60.321 C 188.667 60.511,188.742 60.667,188.833 60.667 C 188.925 60.667,189.000 60.817,189.000 61.000 C 189.000 61.183,189.075 61.333,189.167 61.333 C 189.258 61.333,189.333 61.483,189.333 61.667 C 189.333 61.850,189.408 62.000,189.500 62.000 C 189.592 62.000,189.667 62.120,189.667 62.266 C 189.667 62.413,189.892 62.743,190.167 63.000 C 190.442 63.257,190.667 63.550,190.667 63.651 C 190.667 63.948,192.531 65.833,192.824 65.833 C 192.972 65.833,193.201 65.983,193.333 66.167 C 193.465 66.350,193.707 66.500,193.870 66.500 C 194.033 66.500,194.167 66.575,194.167 66.667 C 194.167 66.758,194.317 66.833,194.500 66.833 C 194.683 66.833,194.833 66.908,194.833 67.000 C 194.833 67.092,194.983 67.167,195.167 67.167 C 195.350 67.167,195.500 67.242,195.500 67.333 C 195.500 67.425,195.650 67.500,195.833 67.500 C 196.017 67.500,196.167 67.575,196.167 67.667 C 196.167 67.758,196.392 67.833,196.667 67.833 C 196.942 67.833,197.167 67.908,197.167 68.000 C 197.167 68.092,197.504 68.167,197.917 68.167 C 198.329 68.167,198.667 68.242,198.667 68.333 C 198.667 68.431,199.222 68.500,200.000 68.500 C 200.778 68.500,201.333 68.569,201.333 68.667 C 201.333 68.758,201.746 68.833,202.250 68.833 C 202.754 68.833,203.167 68.758,203.167 68.667 C 203.167 68.567,203.833 68.500,204.833 68.500 C 205.833 68.500,206.500 68.433,206.500 68.333 C 206.500 68.242,206.838 68.167,207.250 68.167 C 207.662 68.167,208.000 68.092,208.000 68.000 C 208.000 67.908,208.225 67.833,208.500 67.833 C 208.775 67.833,209.000 67.758,209.000 67.667 C 209.000 67.575,209.225 67.500,209.500 67.500 C 209.775 67.500,210.000 67.425,210.000 67.333 C 210.000 67.242,210.150 67.167,210.333 67.167 C 210.517 67.167,210.667 67.092,210.667 67.000 C 210.667 66.908,210.817 66.833,211.000 66.833 C 211.183 66.833,211.333 66.758,211.333 66.667 C 211.333 66.575,211.469 66.500,211.635 66.500 C 211.801 66.500,212.098 66.350,212.295 66.167 C 212.492 65.983,212.733 65.833,212.832 65.833 C 212.930 65.833,213.268 65.590,213.582 65.292 C 213.896 64.994,214.452 64.487,214.819 64.167 C 215.185 63.846,215.488 63.446,215.492 63.278 C 215.497 63.109,215.593 63.004,215.708 63.042 C 215.825 63.082,215.893 63.307,215.863 63.556 C 215.834 63.800,215.881 64.000,215.969 64.000 C 216.056 64.000,216.180 64.487,216.244 65.083 C 216.308 65.679,216.429 66.167,216.513 66.167 C 216.598 66.167,216.667 66.542,216.667 67.000 L 216.667 67.833 222.167 67.833 L 227.667 67.833 227.667 66.500 C 227.667 65.722,227.597 65.167,227.500 65.167 C 227.397 65.167,227.333 64.306,227.333 62.917 C 227.333 61.528,227.270 60.667,227.167 60.667 C 227.057 60.667,227.000 56.364,227.000 48.093 C 227.000 39.891,226.942 35.484,226.833 35.417 C 226.742 35.360,226.667 34.868,226.667 34.323 C 226.667 33.774,226.592 33.333,226.500 33.333 C 226.408 33.333,226.333 33.033,226.333 32.667 C 226.333 32.300,226.258 32.000,226.167 32.000 C 226.075 32.000,226.000 31.779,226.000 31.510 C 226.000 31.240,225.925 30.973,225.833 30.917 C 225.742 30.860,225.667 30.628,225.667 30.402 C 225.667 30.175,225.554 29.946,225.417 29.894 C 225.279 29.841,225.167 29.656,225.167 29.482 C 225.167 29.309,225.092 29.167,225.000 29.167 C 224.908 29.167,224.833 29.017,224.833 28.833 C 224.833 28.650,224.758 28.500,224.667 28.500 C 224.575 28.500,224.500 28.350,224.500 28.167 C 224.500 27.983,224.425 27.833,224.333 27.833 C 224.242 27.833,224.167 27.700,224.167 27.537 C 224.167 27.374,224.017 27.132,223.833 27.000 C 223.650 26.868,223.500 26.626,223.500 26.463 C 223.500 26.300,223.425 26.167,223.333 26.167 C 223.242 26.167,223.167 26.090,223.167 25.997 C 223.167 25.798,221.069 23.667,220.873 23.667 C 220.800 23.667,220.632 23.517,220.500 23.333 C 220.368 23.150,220.143 23.000,220.000 23.000 C 219.857 23.000,219.632 22.850,219.500 22.667 C 219.368 22.483,219.126 22.333,218.963 22.333 C 218.800 22.333,218.667 22.258,218.667 22.167 C 218.667 22.075,218.517 22.000,218.333 22.000 C 218.150 22.000,218.000 21.925,218.000 21.833 C 218.000 21.742,217.882 21.667,217.738 21.667 C 217.594 21.667,217.358 21.548,217.213 21.404 C 217.069 21.259,216.807 21.178,216.632 21.224 C 216.456 21.270,216.276 21.210,216.230 21.091 C 216.184 20.972,215.948 20.875,215.705 20.875 C 215.463 20.875,215.236 20.791,215.201 20.688 C 215.167 20.584,214.850 20.500,214.496 20.500 C 214.142 20.500,213.807 20.425,213.750 20.333 C 213.693 20.242,213.201 20.167,212.657 20.167 C 212.108 20.167,211.667 20.092,211.667 20.000 C 211.667 19.893,210.194 19.833,207.583 19.833 C 204.972 19.833,203.500 19.893,203.500 20.000 M257.333 20.000 C 257.333 20.092,257.033 20.167,256.667 20.167 C 256.300 20.167,256.000 20.242,256.000 20.333 C 256.000 20.425,255.775 20.500,255.500 20.500 C 255.225 20.500,255.000 20.575,255.000 20.667 C 255.000 20.758,254.858 20.833,254.684 20.833 C 254.511 20.833,254.326 20.945,254.274 21.081 C 254.220 21.221,254.069 21.285,253.923 21.229 C 253.758 21.166,253.667 21.226,253.667 21.399 C 253.667 21.575,253.521 21.667,253.240 21.667 C 252.998 21.667,252.858 21.739,252.917 21.833 C 252.973 21.925,252.859 22.000,252.663 22.000 C 252.466 22.000,252.022 22.297,251.667 22.667 C 251.314 23.033,250.940 23.333,250.834 23.333 C 250.587 23.333,250.167 23.754,250.167 24.001 C 250.167 24.107,249.867 24.481,249.500 24.833 C 249.133 25.186,248.833 25.537,248.833 25.614 C 248.833 25.691,248.646 25.956,248.417 26.203 C 248.188 26.450,248.000 26.768,248.000 26.909 C 248.000 27.051,247.925 27.167,247.833 27.167 C 247.742 27.167,247.667 27.317,247.667 27.500 C 247.667 27.683,247.592 27.833,247.500 27.833 C 247.408 27.833,247.333 27.983,247.333 28.167 C 247.333 28.350,247.258 28.500,247.167 28.500 C 247.063 28.500,247.000 27.583,247.000 26.083 C 247.000 24.583,246.937 23.667,246.833 23.667 C 246.735 23.667,246.667 23.086,246.667 22.259 L 246.667 20.851 241.333 20.838 L 236.000 20.825 236.000 21.913 C 236.000 22.526,236.073 23.000,236.167 23.000 C 236.277 23.000,236.333 30.583,236.333 45.417 L 236.333 67.833 242.500 67.833 L 248.667 67.833 248.667 54.184 C 248.667 42.206,248.697 40.524,248.917 40.440 C 249.088 40.374,249.167 40.106,249.167 39.589 C 249.167 39.173,249.242 38.833,249.333 38.833 C 249.425 38.833,249.500 38.608,249.500 38.333 C 249.500 38.058,249.575 37.833,249.667 37.833 C 249.758 37.833,249.833 37.683,249.833 37.500 C 249.833 37.317,249.908 37.167,250.000 37.167 C 250.092 37.167,250.167 37.017,250.167 36.833 C 250.167 36.650,250.242 36.500,250.333 36.500 C 250.425 36.500,250.500 36.387,250.500 36.250 C 250.500 36.112,250.575 36.000,250.667 36.000 C 250.758 36.000,250.833 35.886,250.833 35.747 C 250.833 35.424,253.248 33.000,253.571 33.000 C 253.704 33.000,253.860 32.925,253.917 32.833 C 253.973 32.742,254.165 32.667,254.343 32.667 C 254.521 32.667,254.667 32.592,254.667 32.500 C 254.667 32.408,254.817 32.333,255.000 32.333 C 255.183 32.333,255.333 32.258,255.333 32.167 C 255.333 32.075,255.558 32.000,255.833 32.000 C 256.108 32.000,256.333 31.927,256.333 31.837 C 256.333 31.737,257.620 31.656,259.625 31.629 L 262.917 31.583 262.917 25.917 L 262.917 20.250 262.542 20.197 C 262.335 20.167,262.167 20.074,262.167 19.988 C 262.167 19.900,261.130 19.833,259.750 19.833 C 258.250 19.833,257.333 19.897,257.333 20.000 M321.667 20.000 C 321.667 20.092,321.367 20.167,321.000 20.167 C 320.633 20.167,320.333 20.242,320.333 20.333 C 320.333 20.425,320.108 20.500,319.833 20.500 C 319.558 20.500,319.333 20.575,319.333 20.667 C 319.333 20.758,319.183 20.833,319.000 20.833 C 318.817 20.833,318.667 20.900,318.667 20.982 C 318.667 21.064,318.479 21.178,318.250 21.235 C 318.021 21.293,317.833 21.413,317.833 21.503 C 317.833 21.593,317.713 21.667,317.567 21.667 C 317.420 21.667,317.090 21.892,316.833 22.167 C 316.576 22.442,316.280 22.667,316.175 22.667 C 316.070 22.667,315.481 23.188,314.867 23.825 C 313.560 25.182,313.284 25.500,313.419 25.500 C 313.473 25.500,313.326 25.677,313.092 25.894 C 312.858 26.111,312.667 26.411,312.667 26.561 C 312.667 26.711,312.592 26.833,312.500 26.833 C 312.408 26.833,312.333 26.983,312.333 27.167 C 312.333 27.350,312.258 27.500,312.167 27.500 C 312.075 27.500,312.000 27.650,312.000 27.833 C 312.000 28.017,311.925 28.167,311.833 28.167 C 311.742 28.167,311.667 27.792,311.667 27.333 C 311.667 26.875,311.592 26.500,311.500 26.500 C 311.395 26.500,311.333 25.444,311.333 23.667 L 311.333 20.833 306.000 20.833 L 300.667 20.833 300.667 23.583 C 300.667 25.306,300.729 26.333,300.833 26.333 C 300.944 26.333,301.000 33.361,301.000 47.083 L 301.000 67.833 307.000 67.833 L 313.000 67.833 313.000 55.083 C 313.000 46.694,313.057 42.333,313.167 42.333 C 313.265 42.333,313.333 41.750,313.333 40.917 C 313.333 40.083,313.402 39.500,313.500 39.500 C 313.592 39.500,313.667 39.283,313.667 39.018 C 313.667 38.743,313.774 38.494,313.917 38.440 C 314.054 38.387,314.167 38.154,314.167 37.922 C 314.167 37.690,314.242 37.500,314.333 37.500 C 314.425 37.500,314.500 37.350,314.500 37.167 C 314.500 36.983,314.575 36.833,314.667 36.833 C 314.758 36.833,314.833 36.683,314.833 36.500 C 314.833 36.317,314.908 36.167,315.000 36.167 C 315.092 36.167,315.167 36.071,315.167 35.953 C 315.167 35.836,315.317 35.632,315.500 35.500 C 315.683 35.368,315.833 35.161,315.833 35.041 C 315.833 34.757,316.923 33.667,317.208 33.667 C 317.328 33.667,317.535 33.517,317.667 33.333 C 317.799 33.150,318.040 33.000,318.203 33.000 C 318.367 33.000,318.500 32.925,318.500 32.833 C 318.500 32.742,318.612 32.667,318.750 32.667 C 318.887 32.667,319.000 32.592,319.000 32.500 C 319.000 32.408,319.183 32.333,319.407 32.333 C 319.631 32.333,319.860 32.258,319.917 32.167 C 319.973 32.075,320.240 32.000,320.510 32.000 C 320.779 32.000,321.000 31.925,321.000 31.833 C 321.000 31.728,322.139 31.667,324.083 31.667 L 327.167 31.667 327.167 25.988 C 327.167 21.289,327.126 20.268,326.929 20.071 C 326.640 19.783,321.667 19.716,321.667 20.000 M377.417 20.000 C 377.360 20.092,376.943 20.167,376.490 20.167 C 376.037 20.167,375.667 20.242,375.667 20.333 C 375.667 20.425,375.367 20.500,375.000 20.500 C 374.633 20.500,374.333 20.575,374.333 20.667 C 374.333 20.758,374.106 20.833,373.828 20.833 C 373.543 20.833,373.283 20.937,373.231 21.073 C 373.180 21.205,373.033 21.272,372.904 21.222 C 372.775 21.173,372.623 21.252,372.567 21.399 C 372.510 21.546,372.322 21.667,372.149 21.667 C 371.975 21.667,371.833 21.742,371.833 21.833 C 371.833 21.925,371.683 22.000,371.500 22.000 C 371.317 22.000,371.167 22.075,371.167 22.167 C 371.167 22.258,371.017 22.333,370.833 22.333 C 370.650 22.333,370.500 22.408,370.500 22.500 C 370.500 22.592,370.350 22.667,370.167 22.667 C 369.983 22.667,369.833 22.742,369.833 22.833 C 369.833 22.925,369.721 23.000,369.583 23.000 C 369.446 23.000,369.333 23.075,369.333 23.167 C 369.333 23.258,369.218 23.333,369.076 23.333 C 368.645 23.333,365.667 26.465,365.667 26.919 C 365.667 27.055,365.592 27.167,365.500 27.167 C 365.408 27.167,365.333 26.864,365.333 26.495 C 365.333 26.051,365.248 25.790,365.083 25.727 C 364.880 25.649,364.832 25.240,364.828 23.524 C 364.821 20.545,365.411 20.822,359.104 20.838 L 353.833 20.851 353.833 23.259 C 353.833 24.753,353.897 25.667,354.000 25.667 C 354.110 25.667,354.167 35.833,354.167 55.833 L 354.167 86.000 360.417 86.000 L 366.667 86.000 366.667 74.833 C 366.667 68.692,366.708 63.667,366.758 63.667 C 366.887 63.667,367.667 64.463,367.667 64.595 C 367.667 64.788,368.890 65.833,369.116 65.833 C 369.235 65.833,369.333 65.908,369.333 66.000 C 369.333 66.092,369.446 66.167,369.583 66.167 C 369.721 66.167,369.833 66.242,369.833 66.333 C 369.833 66.425,369.983 66.500,370.167 66.500 C 370.350 66.500,370.500 66.575,370.500 66.667 C 370.500 66.758,370.650 66.833,370.833 66.833 C 371.017 66.833,371.167 66.908,371.167 67.000 C 371.167 67.092,371.317 67.167,371.500 67.167 C 371.683 67.167,371.833 67.242,371.833 67.333 C 371.833 67.425,371.983 67.500,372.167 67.500 C 372.350 67.500,372.500 67.575,372.500 67.667 C 372.500 67.758,372.725 67.833,373.000 67.833 C 373.275 67.833,373.500 67.908,373.500 68.000 C 373.500 68.092,373.837 68.167,374.250 68.167 C 374.662 68.167,375.000 68.242,375.000 68.333 C 375.000 68.431,375.556 68.500,376.333 68.500 C 377.111 68.500,377.667 68.569,377.667 68.667 C 377.667 68.766,378.306 68.833,379.250 68.833 C 380.194 68.833,380.833 68.766,380.833 68.667 C 380.833 68.569,381.389 68.500,382.167 68.500 C 382.944 68.500,383.500 68.431,383.500 68.333 C 383.500 68.242,383.837 68.167,384.250 68.167 C 384.662 68.167,385.000 68.092,385.000 68.000 C 385.000 67.908,385.225 67.833,385.500 67.833 C 385.775 67.833,386.000 67.758,386.000 67.667 C 386.000 67.575,386.225 67.500,386.500 67.500 C 386.775 67.500,387.000 67.425,387.000 67.333 C 387.000 67.242,387.150 67.167,387.333 67.167 C 387.517 67.167,387.667 67.092,387.667 67.000 C 387.667 66.908,387.854 66.833,388.083 66.833 C 388.313 66.833,388.500 66.758,388.500 66.667 C 388.500 66.575,388.650 66.500,388.833 66.500 C 389.017 66.500,389.167 66.425,389.167 66.333 C 389.167 66.242,389.300 66.167,389.463 66.167 C 389.626 66.167,389.868 66.017,390.000 65.833 C 390.132 65.650,390.339 65.500,390.459 65.500 C 390.683 65.500,390.942 65.289,392.249 64.042 C 392.657 63.652,393.032 63.333,393.082 63.333 C 393.276 63.333,395.333 61.161,395.333 60.957 C 395.333 60.838,395.483 60.632,395.667 60.500 C 395.850 60.368,396.000 60.164,396.000 60.047 C 396.000 59.929,396.075 59.833,396.167 59.833 C 396.258 59.833,396.333 59.683,396.333 59.500 C 396.333 59.317,396.408 59.167,396.500 59.167 C 396.592 59.167,396.667 59.033,396.667 58.870 C 396.667 58.707,396.817 58.465,397.000 58.333 C 397.183 58.201,397.333 57.960,397.333 57.797 C 397.333 57.633,397.394 57.500,397.469 57.500 C 397.635 57.500,398.167 56.416,398.167 56.078 C 398.167 55.943,398.242 55.833,398.333 55.833 C 398.425 55.833,398.500 55.646,398.500 55.417 C 398.500 55.188,398.575 55.000,398.667 55.000 C 398.758 55.000,398.833 54.775,398.833 54.500 C 398.833 54.225,398.908 54.000,399.000 54.000 C 399.092 54.000,399.167 53.700,399.167 53.333 C 399.167 52.967,399.242 52.667,399.333 52.667 C 399.425 52.667,399.500 52.373,399.500 52.014 C 399.500 51.640,399.589 51.331,399.708 51.292 C 399.871 51.237,399.917 49.580,399.917 43.750 C 399.917 37.920,399.871 36.262,399.708 36.208 C 399.594 36.170,399.500 35.883,399.500 35.569 C 399.500 35.256,399.425 35.000,399.333 35.000 C 399.242 35.000,399.167 34.700,399.167 34.333 C 399.167 33.967,399.092 33.667,399.000 33.667 C 398.908 33.667,398.833 33.517,398.833 33.333 C 398.833 33.150,398.758 33.000,398.667 33.000 C 398.575 33.000,398.500 32.775,398.500 32.500 C 398.500 32.225,398.425 32.000,398.333 32.000 C 398.242 32.000,398.167 31.850,398.167 31.667 C 398.167 31.483,398.092 31.333,398.000 31.333 C 397.908 31.333,397.833 31.181,397.833 30.995 C 397.833 30.809,397.721 30.613,397.583 30.560 C 397.446 30.508,397.333 30.322,397.333 30.149 C 397.333 29.975,397.258 29.833,397.167 29.833 C 397.075 29.833,397.000 29.683,397.000 29.500 C 397.000 29.317,396.925 29.167,396.833 29.167 C 396.742 29.167,396.667 29.033,396.667 28.870 C 396.667 28.707,396.517 28.465,396.333 28.333 C 396.150 28.201,396.000 27.991,396.000 27.867 C 396.000 27.742,395.700 27.352,395.333 27.000 C 394.967 26.648,394.667 26.254,394.667 26.124 C 394.667 25.849,393.114 24.333,392.832 24.333 C 392.727 24.333,392.352 24.033,392.000 23.667 C 391.648 23.300,391.258 23.000,391.133 23.000 C 391.009 23.000,390.799 22.850,390.667 22.667 C 390.535 22.483,390.293 22.333,390.130 22.333 C 389.967 22.333,389.833 22.258,389.833 22.167 C 389.833 22.075,389.683 22.000,389.500 22.000 C 389.317 22.000,389.167 21.925,389.167 21.833 C 389.167 21.742,389.025 21.667,388.851 21.667 C 388.678 21.667,388.489 21.546,388.432 21.398 C 388.368 21.231,388.208 21.161,388.009 21.213 C 387.824 21.261,387.650 21.198,387.599 21.065 C 387.550 20.938,387.321 20.833,387.089 20.833 C 386.857 20.833,386.667 20.758,386.667 20.667 C 386.667 20.575,386.446 20.500,386.177 20.500 C 385.907 20.500,385.640 20.425,385.583 20.333 C 385.527 20.242,385.110 20.167,384.657 20.167 C 384.204 20.167,383.833 20.092,383.833 20.000 C 383.833 19.895,382.670 19.833,380.677 19.833 C 378.752 19.833,377.479 19.898,377.417 20.000 M332.111 20.944 C 332.050 21.006,332.000 31.581,332.000 44.444 L 332.000 67.833 338.250 67.833 L 344.500 67.833 344.500 44.333 L 344.500 20.833 338.361 20.833 C 334.985 20.833,332.172 20.883,332.111 20.944 M164.833 28.667 C 164.833 28.758,165.133 28.833,165.500 28.833 C 165.867 28.833,166.167 28.908,166.167 29.000 C 166.167 29.092,166.392 29.167,166.667 29.167 C 166.942 29.167,167.167 29.242,167.167 29.333 C 167.167 29.425,167.287 29.500,167.433 29.500 C 167.580 29.500,167.910 29.725,168.167 30.000 C 168.424 30.275,168.753 30.500,168.898 30.500 C 169.044 30.500,169.363 30.819,169.607 31.208 C 169.852 31.598,170.191 32.038,170.360 32.186 C 170.528 32.334,170.667 32.578,170.667 32.728 C 170.667 32.878,170.742 33.000,170.833 33.000 C 170.925 33.000,171.000 33.150,171.000 33.333 C 171.000 33.517,171.075 33.667,171.167 33.667 C 171.258 33.667,171.333 33.817,171.333 34.000 C 171.333 34.183,171.408 34.333,171.500 34.333 C 171.592 34.333,171.667 34.558,171.667 34.833 C 171.667 35.108,171.742 35.333,171.833 35.333 C 171.925 35.333,172.000 35.746,172.000 36.250 C 172.000 36.754,172.075 37.167,172.167 37.167 C 172.259 37.167,172.333 37.611,172.333 38.167 L 172.333 39.167 162.667 39.167 L 153.000 39.167 153.000 38.667 C 153.000 38.392,153.075 38.167,153.167 38.167 C 153.258 38.167,153.333 37.867,153.333 37.500 C 153.333 37.133,153.408 36.833,153.500 36.833 C 153.592 36.833,153.667 36.571,153.667 36.250 C 153.667 35.929,153.742 35.667,153.833 35.667 C 153.925 35.667,154.000 35.517,154.000 35.333 C 154.000 35.150,154.075 35.000,154.167 35.000 C 154.258 35.000,154.333 34.850,154.333 34.667 C 154.333 34.483,154.408 34.333,154.500 34.333 C 154.592 34.333,154.667 34.183,154.667 34.000 C 154.667 33.817,154.742 33.667,154.833 33.667 C 154.925 33.667,155.000 33.552,155.000 33.411 C 155.000 33.271,155.244 32.897,155.542 32.581 C 156.537 31.524,156.833 31.179,156.833 31.077 C 156.833 30.890,157.307 30.500,157.535 30.500 C 157.658 30.500,157.868 30.350,158.000 30.167 C 158.132 29.983,158.374 29.833,158.537 29.833 C 158.700 29.833,158.833 29.758,158.833 29.667 C 158.833 29.575,158.983 29.500,159.167 29.500 C 159.350 29.500,159.500 29.425,159.500 29.333 C 159.500 29.242,159.650 29.167,159.833 29.167 C 160.017 29.167,160.167 29.092,160.167 29.000 C 160.167 28.908,160.504 28.833,160.917 28.833 C 161.329 28.833,161.667 28.758,161.667 28.667 C 161.667 28.567,162.306 28.500,163.250 28.500 C 164.194 28.500,164.833 28.567,164.833 28.667 M379.500 30.000 C 379.500 30.092,379.725 30.167,380.000 30.167 C 380.275 30.167,380.500 30.242,380.500 30.333 C 380.500 30.425,380.650 30.500,380.833 30.500 C 381.017 30.500,381.167 30.575,381.167 30.667 C 381.167 30.758,381.317 30.833,381.500 30.833 C 381.683 30.833,381.833 30.911,381.833 31.005 C 381.833 31.100,381.963 31.227,382.121 31.288 C 382.738 31.524,385.333 34.045,385.333 34.407 C 385.333 34.550,385.408 34.667,385.500 34.667 C 385.592 34.667,385.667 34.817,385.667 35.000 C 385.667 35.183,385.742 35.333,385.833 35.333 C 385.925 35.333,386.000 35.483,386.000 35.667 C 386.000 35.850,386.075 36.000,386.167 36.000 C 386.258 36.000,386.333 36.146,386.333 36.323 C 386.333 36.501,386.408 36.693,386.500 36.750 C 386.592 36.807,386.667 36.999,386.667 37.177 C 386.667 37.354,386.742 37.500,386.833 37.500 C 386.925 37.500,387.000 37.725,387.000 38.000 C 387.000 38.275,387.075 38.500,387.167 38.500 C 387.258 38.500,387.333 38.875,387.333 39.333 C 387.333 39.792,387.408 40.167,387.500 40.167 C 387.596 40.167,387.667 40.694,387.667 41.417 C 387.667 42.139,387.737 42.667,387.833 42.667 C 387.933 42.667,388.000 43.306,388.000 44.250 C 388.000 45.194,387.933 45.833,387.833 45.833 C 387.736 45.833,387.667 46.389,387.667 47.167 C 387.667 47.944,387.597 48.500,387.500 48.500 C 387.408 48.500,387.333 48.796,387.333 49.157 C 387.333 49.518,387.258 49.860,387.167 49.917 C 387.075 49.973,387.000 50.240,387.000 50.510 C 387.000 50.779,386.925 51.000,386.833 51.000 C 386.742 51.000,386.667 51.225,386.667 51.500 C 386.667 51.775,386.592 52.000,386.500 52.000 C 386.408 52.000,386.333 52.150,386.333 52.333 C 386.333 52.517,386.258 52.667,386.167 52.667 C 386.075 52.667,386.000 52.817,386.000 53.000 C 386.000 53.183,385.925 53.333,385.833 53.333 C 385.742 53.333,385.667 53.449,385.667 53.590 C 385.667 53.732,385.517 54.008,385.333 54.205 C 385.150 54.402,385.000 54.667,385.000 54.794 C 385.000 55.127,382.808 57.167,382.451 57.167 C 382.335 57.167,382.132 57.317,382.000 57.500 C 381.868 57.683,381.626 57.833,381.463 57.833 C 381.300 57.833,381.167 57.908,381.167 58.000 C 381.167 58.092,381.017 58.167,380.833 58.167 C 380.650 58.167,380.500 58.242,380.500 58.333 C 380.500 58.425,380.200 58.500,379.833 58.500 C 379.467 58.500,379.167 58.575,379.167 58.667 C 379.167 58.760,378.699 58.833,378.097 58.833 C 377.394 58.833,377.002 58.905,376.951 59.042 C 376.890 59.208,376.831 59.208,376.654 59.042 C 376.522 58.917,375.978 58.833,375.300 58.833 C 374.656 58.833,374.167 58.761,374.167 58.667 C 374.167 58.575,373.942 58.500,373.667 58.500 C 373.392 58.500,373.167 58.425,373.167 58.333 C 373.167 58.242,373.017 58.167,372.833 58.167 C 372.650 58.167,372.500 58.092,372.500 58.000 C 372.500 57.908,372.350 57.833,372.167 57.833 C 371.983 57.833,371.833 57.758,371.833 57.667 C 371.833 57.575,371.722 57.500,371.586 57.500 C 371.120 57.500,368.640 55.096,368.243 54.258 C 368.088 53.933,367.896 53.667,367.814 53.667 C 367.733 53.667,367.667 53.517,367.667 53.333 C 367.667 53.150,367.592 53.000,367.500 53.000 C 367.408 53.000,367.333 52.775,367.333 52.500 C 367.333 52.225,367.258 52.000,367.167 52.000 C 367.075 52.000,367.000 51.775,367.000 51.500 C 367.000 51.225,366.925 51.000,366.833 51.000 C 366.734 51.000,366.667 50.361,366.667 49.417 C 366.667 48.472,366.599 47.833,366.500 47.833 C 366.394 47.833,366.333 46.587,366.333 44.427 C 366.333 42.335,366.398 40.980,366.500 40.917 C 366.592 40.860,366.667 40.293,366.667 39.657 C 366.667 38.997,366.738 38.500,366.833 38.500 C 366.925 38.500,367.000 38.200,367.000 37.833 C 367.000 37.467,367.075 37.167,367.167 37.167 C 367.258 37.167,367.333 37.017,367.333 36.833 C 367.333 36.650,367.408 36.500,367.500 36.500 C 367.592 36.500,367.667 36.313,367.667 36.083 C 367.667 35.854,367.742 35.667,367.833 35.667 C 367.925 35.667,368.000 35.517,368.000 35.333 C 368.000 35.150,368.075 35.000,368.167 35.000 C 368.258 35.000,368.333 34.883,368.333 34.741 C 368.333 34.349,370.816 31.976,371.709 31.514 C 371.961 31.383,372.167 31.177,372.167 31.055 C 372.167 30.933,372.317 30.833,372.500 30.833 C 372.683 30.833,372.833 30.758,372.833 30.667 C 372.833 30.575,372.983 30.500,373.167 30.500 C 373.350 30.500,373.500 30.425,373.500 30.333 C 373.500 30.242,373.762 30.167,374.083 30.167 C 374.404 30.167,374.667 30.092,374.667 30.000 C 374.667 29.897,375.583 29.833,377.083 29.833 C 378.583 29.833,379.500 29.897,379.500 30.000 M215.167 48.500 C 215.167 50.722,215.106 52.000,215.000 52.000 C 214.908 52.000,214.833 52.375,214.833 52.833 C 214.833 53.292,214.758 53.667,214.667 53.667 C 214.575 53.667,214.500 53.812,214.500 53.990 C 214.500 54.168,214.425 54.360,214.333 54.417 C 214.242 54.473,214.167 54.665,214.167 54.843 C 214.167 55.021,214.092 55.167,214.000 55.167 C 213.908 55.167,213.833 55.281,213.833 55.420 C 213.833 55.700,211.773 57.833,211.503 57.833 C 211.410 57.833,211.333 57.908,211.333 58.000 C 211.333 58.092,211.183 58.167,211.000 58.167 C 210.817 58.167,210.666 58.223,210.665 58.292 C 210.664 58.441,209.857 58.833,209.550 58.833 C 209.431 58.833,209.333 58.908,209.333 59.000 C 209.333 59.092,209.108 59.167,208.833 59.167 C 208.558 59.167,208.333 59.242,208.333 59.333 C 208.333 59.436,207.472 59.500,206.083 59.500 C 204.694 59.500,203.833 59.436,203.833 59.333 C 203.833 59.242,203.723 59.167,203.588 59.167 C 202.911 59.167,200.667 57.313,200.667 56.754 C 200.667 56.614,200.592 56.500,200.500 56.500 C 200.408 56.500,200.333 56.350,200.333 56.167 C 200.333 55.983,200.258 55.833,200.167 55.833 C 200.075 55.833,200.000 55.463,200.000 55.010 C 200.000 54.557,199.925 54.140,199.833 54.083 C 199.742 54.027,199.667 53.685,199.667 53.323 C 199.667 52.962,199.742 52.667,199.833 52.667 C 199.925 52.667,200.000 52.367,200.000 52.000 C 200.000 51.633,200.075 51.333,200.167 51.333 C 200.258 51.333,200.333 51.188,200.333 51.010 C 200.333 50.832,200.408 50.640,200.500 50.583 C 200.592 50.527,200.667 50.335,200.667 50.157 C 200.667 49.979,200.742 49.833,200.833 49.833 C 200.925 49.833,201.000 49.718,201.000 49.578 C 201.000 49.263,202.072 48.167,202.380 48.167 C 202.503 48.167,202.765 48.017,202.962 47.833 C 203.158 47.650,203.435 47.500,203.576 47.500 C 203.718 47.500,203.833 47.425,203.833 47.333 C 203.833 47.242,203.983 47.167,204.167 47.167 C 204.350 47.167,204.500 47.092,204.500 47.000 C 204.500 46.908,204.650 46.833,204.833 46.833 C 205.017 46.833,205.167 46.758,205.167 46.667 C 205.167 46.575,205.392 46.500,205.667 46.500 C 205.942 46.500,206.167 46.425,206.167 46.333 C 206.167 46.242,206.387 46.167,206.657 46.167 C 206.926 46.167,207.193 46.092,207.250 46.000 C 207.307 45.908,207.724 45.833,208.177 45.833 C 208.629 45.833,209.000 45.758,209.000 45.667 C 209.000 45.567,209.637 45.500,210.577 45.500 C 211.751 45.500,212.208 45.438,212.368 45.256 C 212.521 45.083,212.957 45.011,213.875 45.006 L 215.167 45.000 215.167 48.500 " stroke="none" fill="#244494" fill-rule="evenodd"></path><path id="path3" d="" stroke="none" fill="#58a0cc" fill-rule="evenodd"></path><path id="path4" d="" stroke="none" fill="#58a45c" fill-rule="evenodd"></path><path id="path5" d="" stroke="none" fill="#584498" fill-rule="evenodd"></path><path id="path6" d="" stroke="none" fill="#584498" fill-rule="evenodd"></path><path id="path7" d="" stroke="none" fill="#584498" fill-rule="evenodd"></path><path id="path8" d="" stroke="none" fill="#584498" fill-rule="evenodd"></path></g></svg>