<svg width="16" height="16" viewBox="0 0 16 16" fill="none" xmlns="http://www.w3.org/2000/svg">
<mask id="mask0_2834_1705" style="mask-type:alpha" maskUnits="userSpaceOnUse" x="0" y="0" width="16" height="16">
<rect width="16" height="16" fill="#D9D9D9"/>
</mask>
<g mask="url(#mask0_2834_1705)">
<path d="M7.13333 10.4833L11.1667 6.46667L10.2 5.5L7.13333 8.56667L5.76667 7.2L4.81667 8.16667L7.13333 10.4833ZM8 14.5333C7.1 14.5333 6.25 14.3667 5.45 14.0333C4.66111 13.6889 3.96667 13.2222 3.36667 12.6333C2.77778 12.0333 2.31111 11.3389 1.96667 10.55C1.63333 9.75 1.46667 8.9 1.46667 8C1.46667 7.08889 1.63333 6.23889 1.96667 5.45C2.31111 4.66111 2.77778 3.97222 3.36667 3.38333C3.96667 2.78333 4.66111 2.31667 5.45 1.98333C6.25 1.63889 7.1 1.46667 8 1.46667C8.91111 1.46667 9.76111 1.63889 10.55 1.98333C11.3389 2.31667 12.0278 2.78333 12.6167 3.38333C13.2167 3.97222 13.6833 4.66111 14.0167 5.45C14.3611 6.23889 14.5333 7.08889 14.5333 8C14.5333 8.9 14.3611 9.75 14.0167 10.55C13.6833 11.3389 13.2167 12.0333 12.6167 12.6333C12.0278 13.2222 11.3389 13.6889 10.55 14.0333C9.76111 14.3667 8.91111 14.5333 8 14.5333ZM8 13.15C9.43333 13.15 10.65 12.65 11.65 11.65C12.65 10.65 13.15 9.43333 13.15 8C13.15 6.56667 12.65 5.35 11.65 4.35C10.65 3.35 9.43333 2.85 8 2.85C6.56667 2.85 5.35 3.35 4.35 4.35C3.35 5.35 2.85 6.56667 2.85 8C2.85 9.43333 3.35 10.65 4.35 11.65C5.35 12.65 6.56667 13.15 8 13.15Z" fill="#28C07A"/>
</g>
</svg>
