<?xml version="1.0" encoding="UTF-8"?>
<svg xmlns="http://www.w3.org/2000/svg" xmlns:xlink="http://www.w3.org/1999/xlink" width="473.06pt" height="88.85pt" viewBox="0 0 473.06 88.85" version="1.1">
<defs>
<clipPath id="clip1">
  <path d="M 93 27 L 151 27 L 151 88.851563 L 93 88.851563 Z M 93 27 "/>
</clipPath>
<clipPath id="clip2">
  <path d="M 161 10 L 202 10 L 202 88.851563 L 161 88.851563 Z M 161 10 "/>
</clipPath>
<clipPath id="clip3">
  <path d="M 206 0 L 271 0 L 271 88.851563 L 206 88.851563 Z M 206 0 "/>
</clipPath>
<clipPath id="clip4">
  <path d="M 322 26 L 379 26 L 379 88.851563 L 322 88.851563 Z M 322 26 "/>
</clipPath>
<clipPath id="clip5">
  <path d="M 415 26 L 473.058594 26 L 473.058594 87 L 415 87 Z M 415 26 "/>
</clipPath>
<clipPath id="clip6">
  <path d="M 0 3 L 87 3 L 87 88.851563 L 0 88.851563 Z M 0 3 "/>
</clipPath>
</defs>
<g id="surface1">
<g clip-path="url(#clip1)" clip-rule="nonzero">
<path style=" stroke:none;fill-rule:nonzero;fill:rgb(94.499207%,51.799011%,12.89978%);fill-opacity:1;" d="M 93.433594 33.894531 C 93.433594 31.699219 94.058594 30.109375 95.316406 29.128906 C 96.566406 28.148438 98.339844 27.660156 100.613281 27.660156 C 102.023438 27.660156 103.316406 27.835938 104.496094 28.1875 C 105.671875 28.542969 106.457031 28.796875 106.847656 28.953125 L 106.847656 59.898438 C 106.847656 65.238281 108.101563 69.300781 110.613281 72.082031 C 113.125 74.863281 116.972656 76.261719 122.148438 76.261719 C 127.324219 76.261719 131.171875 74.863281 133.679688 72.082031 C 136.191406 69.300781 137.449219 65.238281 137.449219 59.898438 L 137.449219 33.894531 C 137.449219 31.699219 138.074219 30.109375 139.328125 29.128906 C 140.582031 28.148438 142.308594 27.660156 144.507813 27.660156 C 146 27.660156 147.332031 27.835938 148.507813 28.1875 C 149.683594 28.542969 150.472656 28.796875 150.859375 28.953125 L 150.859375 62.84375 C 150.859375 66.84375 150.175781 70.433594 148.804688 73.613281 C 147.425781 76.789063 145.46875 79.476563 142.921875 81.667969 C 140.371094 83.871094 137.328125 85.539063 133.800781 86.675781 C 130.269531 87.808594 126.386719 88.378906 122.148438 88.378906 C 117.910156 88.378906 114.027344 87.808594 110.496094 86.675781 C 106.964844 85.539063 103.945313 83.871094 101.4375 81.667969 C 98.925781 79.476563 96.964844 76.789063 95.550781 73.613281 C 94.140625 70.433594 93.433594 66.84375 93.433594 62.84375 L 93.433594 33.894531 "/>
</g>
<g clip-path="url(#clip2)" clip-rule="nonzero">
<path style=" stroke:none;fill-rule:nonzero;fill:rgb(94.499207%,51.799011%,12.89978%);fill-opacity:1;" d="M 161.453125 17.183594 C 161.453125 14.988281 162.078125 13.402344 163.335938 12.414063 C 164.589844 11.4375 166.316406 10.949219 168.511719 10.949219 C 169.925781 10.949219 171.234375 11.121094 172.453125 11.476563 C 173.671875 11.832031 174.472656 12.085938 174.867188 12.242188 L 174.867188 27.65625 L 191.933594 27.65625 C 194.523438 27.65625 196.34375 28.183594 197.402344 29.242188 C 198.464844 30.308594 198.988281 31.851563 198.988281 33.894531 C 198.988281 35.230469 198.796875 36.460938 198.402344 37.597656 C 198.011719 38.738281 197.695313 39.542969 197.464844 40.015625 L 174.867188 40.015625 L 174.867188 66.257813 C 174.867188 68.296875 175.140625 69.964844 175.691406 71.257813 C 176.242188 72.550781 177.003906 73.589844 177.984375 74.371094 C 178.96875 75.160156 180.101563 75.710938 181.398438 76.027344 C 182.691406 76.335938 184.046875 76.492188 185.457031 76.492188 C 187.734375 76.492188 189.851563 76.140625 191.8125 75.433594 C 193.773438 74.730469 195.1875 74.0625 196.050781 73.4375 L 201.464844 82.378906 C 200.835938 82.851563 199.953125 83.4375 198.816406 84.144531 C 197.679688 84.851563 196.285156 85.519531 194.636719 86.144531 C 192.992188 86.773438 191.144531 87.300781 189.109375 87.734375 C 187.066406 88.164063 184.832031 88.378906 182.402344 88.378906 C 175.496094 88.378906 170.28125 86.59375 166.75 83.023438 C 163.214844 79.460938 161.453125 74.769531 161.453125 68.964844 L 161.453125 17.183594 "/>
</g>
<g clip-path="url(#clip3)" clip-rule="nonzero">
<path style=" stroke:none;fill-rule:nonzero;fill:rgb(94.499207%,51.799011%,12.89978%);fill-opacity:1;" d="M 238.53125 76.261719 C 241.195313 76.261719 243.648438 75.769531 245.886719 74.789063 C 248.121094 73.808594 250.039063 72.476563 251.652344 70.789063 C 253.261719 69.097656 254.496094 67.101563 255.359375 64.78125 C 256.222656 62.472656 256.652344 59.945313 256.652344 57.195313 C 256.652344 54.449219 256.222656 51.894531 255.359375 49.542969 C 254.496094 47.191406 253.261719 45.171875 251.652344 43.484375 C 250.039063 41.800781 248.121094 40.46875 245.886719 39.484375 C 243.648438 38.503906 241.195313 38.011719 238.53125 38.011719 C 235.785156 38.011719 233.296875 38.503906 231.058594 39.484375 C 228.824219 40.46875 226.917969 41.820313 225.351563 43.542969 C 223.78125 45.273438 222.546875 47.3125 221.644531 49.660156 C 220.742188 52.019531 220.289063 54.53125 220.289063 57.195313 C 220.289063 60.015625 220.742188 62.605469 221.644531 64.960938 C 222.546875 67.316406 223.800781 69.316406 225.410156 70.960938 C 227.019531 72.609375 228.9375 73.902344 231.179688 74.84375 C 233.410156 75.789063 235.863281 76.261719 238.53125 76.261719 M 206.992188 6.242188 C 206.992188 4.121094 207.621094 2.550781 208.875 1.53125 C 210.128906 0.511719 211.894531 0 214.171875 0 C 215.585938 0 216.878906 0.179688 218.054688 0.53125 C 219.230469 0.886719 220.011719 1.144531 220.410156 1.296875 L 220.410156 35.070313 C 222.367188 32.558594 225.078125 30.421875 228.527344 28.660156 C 231.980469 26.890625 235.941406 26.007813 240.410156 26.007813 C 244.726563 26.007813 248.710938 26.773438 252.359375 28.304688 C 256.007813 29.832031 259.183594 31.992188 261.890625 34.777344 C 264.597656 37.5625 266.71875 40.855469 268.242188 44.660156 C 269.777344 48.464844 270.539063 52.644531 270.539063 57.195313 C 270.539063 61.664063 269.753906 65.828125 268.1875 69.667969 C 266.617188 73.515625 264.414063 76.808594 261.601563 79.554688 C 258.773438 82.300781 255.417969 84.457031 251.535156 86.027344 C 247.652344 87.59375 243.394531 88.378906 238.765625 88.378906 C 234.136719 88.378906 229.882813 87.675781 226 86.261719 C 222.113281 84.851563 218.765625 82.730469 215.9375 79.90625 C 213.109375 77.082031 210.917969 73.550781 209.351563 69.316406 C 207.773438 65.078125 206.992188 60.097656 206.992188 54.371094 L 206.992188 6.242188 "/>
</g>
<path style=" stroke:none;fill-rule:nonzero;fill:rgb(94.499207%,51.799011%,12.89978%);fill-opacity:1;" d="M 278.425781 48.722656 C 278.425781 41.507813 280.640625 35.914063 285.074219 31.957031 C 289.503906 27.992188 295.644531 26.007813 303.488281 26.007813 C 308.433594 26.007813 312.453125 26.699219 315.554688 28.070313 C 318.652344 29.441406 320.199219 31.539063 320.199219 34.367188 C 320.199219 35.699219 319.828125 36.992188 319.085938 38.246094 C 318.335938 39.503906 317.730469 40.285156 317.261719 40.601563 C 315.925781 39.976563 314.28125 39.386719 312.316406 38.839844 C 310.355469 38.289063 308.117188 38.011719 305.605469 38.011719 C 296.433594 38.011719 291.84375 42.878906 291.84375 52.605469 L 291.84375 86.730469 L 278.425781 86.730469 L 278.425781 48.722656 "/>
<g clip-path="url(#clip4)" clip-rule="nonzero">
<path style=" stroke:none;fill-rule:nonzero;fill:rgb(94.499207%,51.799011%,12.89978%);fill-opacity:1;" d="M 364.914063 60.371094 C 364.132813 60.214844 362.664063 59.976563 360.503906 59.667969 C 358.34375 59.355469 355.109375 59.191406 350.796875 59.191406 C 345.457031 59.191406 341.578125 60 339.144531 61.609375 C 336.714844 63.214844 335.496094 65.746094 335.496094 69.195313 C 335.496094 70.609375 335.746094 71.902344 336.261719 73.082031 C 336.769531 74.261719 337.652344 75.257813 338.90625 76.082031 C 340.164063 76.90625 341.867188 77.539063 344.027344 77.964844 C 346.183594 78.394531 348.875 78.613281 352.09375 78.613281 C 355.699219 78.613281 358.5625 78.476563 360.679688 78.199219 C 362.796875 77.925781 364.210938 77.710938 364.914063 77.554688 Z M 378.210938 86.496094 C 377.425781 86.652344 376.195313 86.828125 374.507813 87.027344 C 372.820313 87.21875 370.835938 87.417969 368.566406 87.613281 C 366.285156 87.808594 363.738281 87.988281 360.914063 88.144531 C 358.089844 88.296875 355.148438 88.378906 352.09375 88.378906 C 345.96875 88.378906 340.972656 87.851563 337.085938 86.789063 C 333.203125 85.730469 330.140625 84.320313 327.90625 82.554688 C 325.675781 80.789063 324.144531 78.75 323.316406 76.429688 C 322.496094 74.121094 322.085938 71.746094 322.085938 69.3125 C 322.085938 66.097656 322.574219 63.273438 323.554688 60.839844 C 324.53125 58.410156 326.144531 56.367188 328.378906 54.722656 C 330.613281 53.074219 333.535156 51.84375 337.144531 51.015625 C 340.753906 50.191406 345.148438 49.777344 350.324219 49.777344 C 353.300781 49.777344 356.132813 49.878906 358.796875 50.074219 C 361.464844 50.269531 363.464844 50.449219 364.796875 50.605469 C 364.796875 47.859375 364.34375 45.585938 363.449219 43.78125 C 362.539063 41.976563 361.308594 40.5625 359.738281 39.542969 C 358.167969 38.523438 356.285156 37.820313 354.089844 37.425781 C 351.894531 37.03125 349.460938 36.835938 346.796875 36.835938 C 342.324219 36.835938 338.734375 37.347656 336.023438 38.367188 C 333.320313 39.390625 331.539063 40.25 330.671875 40.957031 C 330.199219 40.5625 329.554688 39.820313 328.730469 38.71875 C 327.90625 37.621094 327.496094 36.289063 327.496094 34.71875 C 327.496094 33.621094 327.789063 32.539063 328.378906 31.480469 C 328.96875 30.421875 330.003906 29.480469 331.496094 28.65625 C 332.988281 27.835938 334.988281 27.191406 337.496094 26.714844 C 340.007813 26.246094 343.1875 26.007813 347.023438 26.007813 C 351.65625 26.007813 355.871094 26.464844 359.679688 27.363281 C 363.488281 28.269531 366.757813 29.699219 369.503906 31.65625 C 372.253906 33.621094 374.386719 36.210938 375.914063 39.425781 C 377.449219 42.644531 378.210938 46.527344 378.210938 51.074219 L 378.210938 86.496094 "/>
</g>
<path style=" stroke:none;fill-rule:nonzero;fill:rgb(94.499207%,51.799011%,12.89978%);fill-opacity:1;" d="M 390.214844 33.894531 C 390.214844 31.699219 390.84375 30.109375 392.097656 29.128906 C 393.351563 28.148438 395.117188 27.660156 397.394531 27.660156 C 398.804688 27.660156 400.101563 27.835938 401.277344 28.1875 C 402.449219 28.542969 403.238281 28.796875 403.628906 28.953125 L 403.628906 86.730469 L 390.214844 86.730469 Z M 396.921875 1.175781 C 399.199219 1.175781 401.121094 1.960938 402.6875 3.535156 C 404.253906 5.105469 405.039063 7.023438 405.039063 9.296875 C 405.039063 11.574219 404.253906 13.496094 402.6875 15.0625 C 401.121094 16.636719 399.199219 17.417969 396.921875 17.417969 C 394.648438 17.417969 392.726563 16.636719 391.15625 15.0625 C 389.589844 13.496094 388.800781 11.574219 388.800781 9.296875 C 388.800781 7.023438 389.589844 5.105469 391.15625 3.535156 C 392.726563 1.960938 394.648438 1.175781 396.921875 1.175781 "/>
<g clip-path="url(#clip5)" clip-rule="nonzero">
<path style=" stroke:none;fill-rule:nonzero;fill:rgb(94.499207%,51.799011%,12.89978%);fill-opacity:1;" d="M 415.636719 51.074219 C 415.636719 47.15625 416.359375 43.640625 417.808594 40.542969 C 419.257813 37.445313 421.261719 34.816406 423.8125 32.65625 C 426.363281 30.5 429.382813 28.855469 432.875 27.71875 C 436.363281 26.582031 440.1875 26.011719 444.34375 26.011719 C 448.503906 26.011719 452.347656 26.582031 455.878906 27.71875 C 459.410156 28.855469 462.449219 30.5 465 32.65625 C 467.546875 34.816406 469.53125 37.445313 470.941406 40.542969 C 472.355469 43.640625 473.0625 47.15625 473.0625 51.074219 L 473.0625 86.734375 L 459.644531 86.734375 L 459.644531 54.484375 C 459.644531 49.15625 458.347656 45.09375 455.761719 42.308594 C 453.171875 39.523438 449.363281 38.128906 444.34375 38.128906 C 439.246094 38.128906 435.421875 39.523438 432.875 42.308594 C 430.324219 45.09375 429.050781 49.15625 429.050781 54.484375 L 429.050781 86.734375 L 415.636719 86.734375 L 415.636719 51.074219 "/>
</g>
<g clip-path="url(#clip6)" clip-rule="nonzero">
<path style=" stroke:none;fill-rule:nonzero;fill:rgb(94.499207%,51.799011%,12.89978%);fill-opacity:1;" d="M 63.152344 74.875 C 60.609375 77.367188 57.628906 79.320313 54.210938 80.738281 C 50.789063 82.152344 47.078125 82.859375 43.070313 82.859375 C 39.0625 82.859375 35.34375 82.152344 31.929688 80.738281 C 28.507813 79.320313 25.527344 77.367188 22.980469 74.875 C 20.441406 72.386719 18.445313 69.445313 17.007813 66.046875 C 15.617188 62.769531 14.90625 59.226563 14.855469 55.421875 L 21.613281 55.421875 C 21.683594 56.589844 21.9375 57.6875 22.375 58.714844 C 22.898438 59.953125 23.617188 61.019531 24.542969 61.921875 C 25.464844 62.828125 26.550781 63.539063 27.789063 64.046875 C 29.027344 64.566406 30.378906 64.824219 31.835938 64.824219 C 33.292969 64.824219 34.636719 64.566406 35.878906 64.046875 C 37.121094 63.539063 38.207031 62.828125 39.128906 61.921875 C 40.054688 61.019531 40.777344 59.953125 41.292969 58.714844 C 41.644531 57.902344 41.871094 57.039063 41.988281 56.136719 L 44.152344 56.136719 C 44.269531 57.039063 44.496094 57.902344 44.84375 58.714844 C 45.367188 59.953125 46.089844 61.019531 47.011719 61.921875 C 47.933594 62.828125 49.019531 63.539063 50.261719 64.046875 C 51.503906 64.566406 52.851563 64.824219 54.300781 64.824219 C 55.761719 64.824219 57.105469 64.566406 58.347656 64.046875 C 59.589844 63.539063 60.675781 62.828125 61.597656 61.921875 C 62.519531 61.019531 63.246094 59.953125 63.769531 58.714844 C 64.203125 57.6875 64.453125 56.589844 64.527344 55.421875 L 71.277344 55.421875 C 71.234375 59.226563 70.519531 62.769531 69.128906 66.046875 C 67.691406 69.445313 65.699219 72.386719 63.152344 74.875 M 37.917969 54.714844 C 37.917969 55.570313 37.765625 56.363281 37.457031 57.09375 C 37.144531 57.820313 36.714844 58.457031 36.167969 58.996094 C 35.613281 59.53125 34.972656 59.957031 34.238281 60.257813 C 33.5 60.5625 32.699219 60.714844 31.835938 60.714844 C 30.96875 60.714844 30.167969 60.5625 29.429688 60.257813 C 28.695313 59.957031 28.050781 59.53125 27.5 58.996094 C 26.953125 58.457031 26.523438 57.820313 26.214844 57.09375 C 25.90625 56.363281 25.75 55.570313 25.75 54.714844 C 25.75 53.863281 25.90625 53.066406 26.214844 52.335938 C 26.523438 51.605469 26.953125 50.972656 27.5 50.429688 C 28.050781 49.898438 28.695313 49.472656 29.429688 49.171875 C 30.167969 48.863281 30.96875 48.710938 31.835938 48.710938 C 32.699219 48.710938 33.5 48.863281 34.238281 49.171875 C 34.972656 49.472656 35.613281 49.898438 36.167969 50.429688 C 36.714844 50.972656 37.144531 51.605469 37.457031 52.335938 C 37.765625 53.066406 37.917969 53.863281 37.917969 54.714844 M 60.390625 54.714844 C 60.390625 55.570313 60.234375 56.363281 59.921875 57.09375 C 59.617188 57.820313 59.1875 58.457031 58.636719 58.996094 C 58.089844 59.53125 57.441406 59.957031 56.707031 60.257813 C 55.96875 60.5625 55.167969 60.714844 54.300781 60.714844 C 53.441406 60.714844 52.640625 60.5625 51.902344 60.257813 C 51.164063 59.957031 50.519531 59.53125 49.972656 58.996094 C 49.421875 58.457031 48.992188 57.820313 48.683594 57.09375 C 48.375 56.363281 48.21875 55.570313 48.21875 54.714844 C 48.21875 53.863281 48.375 53.066406 48.683594 52.335938 C 48.992188 51.605469 49.421875 50.972656 49.972656 50.429688 C 50.519531 49.898438 51.164063 49.472656 51.902344 49.171875 C 52.640625 48.863281 53.441406 48.710938 54.300781 48.710938 C 55.167969 48.710938 55.96875 48.863281 56.707031 49.171875 C 57.441406 49.472656 58.089844 49.898438 58.636719 50.429688 C 59.1875 50.972656 59.617188 51.605469 59.921875 52.335938 C 60.234375 53.066406 60.390625 53.863281 60.390625 54.714844 M 17.363281 43.257813 C 22.164063 41.671875 28.53125 39.65625 28.53125 39.65625 C 42.535156 35.199219 44.410156 29.933594 44.410156 29.933594 C 44.410156 29.933594 47.355469 35.199219 57.527344 38.679688 C 57.527344 38.679688 63.144531 40.523438 68.367188 42.410156 C 68.625 42.929688 68.898438 43.445313 69.128906 43.996094 C 70.046875 46.160156 70.671875 48.445313 71 50.839844 L 63.816406 50.839844 C 63.800781 50.796875 63.785156 50.753906 63.769531 50.710938 C 63.246094 49.476563 62.519531 48.410156 61.597656 47.507813 C 60.675781 46.597656 59.589844 45.890625 58.347656 45.375 C 57.105469 44.863281 55.761719 44.609375 54.300781 44.609375 C 52.851563 44.609375 51.503906 44.863281 50.261719 45.375 C 49.019531 45.890625 47.933594 46.597656 47.011719 47.507813 C 46.089844 48.410156 45.367188 49.476563 44.84375 50.710938 C 44.675781 51.101563 44.539063 51.496094 44.429688 51.90625 L 41.710938 51.90625 C 41.597656 51.496094 41.460938 51.101563 41.292969 50.710938 C 40.777344 49.476563 40.054688 48.410156 39.128906 47.507813 C 38.207031 46.597656 37.121094 45.890625 35.878906 45.375 C 34.636719 44.863281 33.292969 44.609375 31.835938 44.609375 C 30.378906 44.609375 29.027344 44.863281 27.789063 45.375 C 26.550781 45.890625 25.464844 46.597656 24.542969 47.507813 C 23.617188 48.410156 22.898438 49.476563 22.375 50.710938 C 22.355469 50.753906 22.339844 50.796875 22.324219 50.839844 L 15.136719 50.839844 C 15.46875 48.445313 16.089844 46.160156 17.007813 43.996094 C 17.117188 43.742188 17.25 43.507813 17.363281 43.257813 M 82.84375 29.539063 C 80.644531 24.363281 77.609375 19.871094 73.722656 16.066406 C 69.839844 12.257813 65.292969 9.28125 60.074219 7.125 C 54.855469 4.964844 49.191406 3.886719 43.070313 3.886719 C 36.953125 3.886719 31.285156 4.964844 26.0625 7.125 C 20.847656 9.28125 16.292969 12.257813 12.414063 16.066406 C 8.53125 19.871094 5.488281 24.363281 3.292969 29.539063 C 1.097656 34.71875 0 40.332031 0 46.371094 C 0 52.410156 1.097656 58.019531 3.292969 63.199219 C 5.488281 68.375 8.53125 72.867188 12.414063 76.671875 C 16.292969 80.476563 20.847656 83.457031 26.0625 85.617188 C 31.285156 87.773438 36.953125 88.851563 43.070313 88.851563 C 49.191406 88.851563 54.855469 87.773438 60.074219 85.617188 C 65.292969 83.457031 69.839844 80.476563 73.722656 76.671875 C 77.609375 72.867188 80.644531 68.375 82.84375 63.199219 C 85.039063 58.019531 86.140625 52.410156 86.140625 46.371094 C 86.140625 40.332031 85.039063 34.71875 82.84375 29.539063 "/>
</g>
</g>
</svg>
