<?xml version="1.0" standalone="no"?>
<!DOCTYPE svg PUBLIC "-//W3C//DTD SVG 20010904//EN"
 "http://www.w3.org/TR/2001/REC-SVG-20010904/DTD/svg10.dtd">
<svg version="1.0" xmlns="http://www.w3.org/2000/svg"
 width="600.000000pt" height="315.000000pt" viewBox="0 0 600.000000 315.000000"
 preserveAspectRatio="xMidYMid meet">
<metadata>
Created by potrace 1.16, written by Peter Selinger 2001-2019
</metadata>
<g transform="translate(0.000000,315.000000) scale(0.100000,-0.100000)"
fill="#000000" stroke="none">
<path d="M1130 2225 c-149 -31 -250 -84 -352 -187 -127 -127 -191 -285 -191
-468 0 -185 61 -329 197 -466 65 -65 98 -90 167 -123 159 -76 14 -72 2077 -69
1765 3 1849 4 1902 21 232 78 396 250 457 477 23 87 23 234 -1 325 -48 183
-176 345 -336 423 -171 84 20 77 -2030 79 -1489 1 -1837 -1 -1890 -12z m2900
-661 l0 -305 -32 3 c-27 2 -34 8 -36 30 l-3 27 -41 -29 c-34 -25 -51 -30 -100
-30 -54 0 -61 3 -97 39 -65 65 -80 195 -33 287 24 48 47 69 95 89 49 20 85 19
130 -5 l37 -20 0 110 0 110 40 0 40 0 0 -306z m-1359 266 c47 -25 52 -32 38
-64 -15 -31 -19 -32 -66 -6 -55 29 -127 27 -158 -5 -26 -25 -32 -63 -16 -94
10 -18 46 -36 143 -71 98 -36 142 -110 119 -197 -24 -88 -90 -133 -196 -133
-50 0 -77 6 -113 24 -71 36 -78 48 -48 82 22 27 25 28 43 13 62 -55 152 -65
202 -23 26 21 31 33 31 69 0 54 -23 75 -118 105 -119 39 -158 84 -150 175 6
73 47 120 126 146 38 12 118 1 163 -21z m1599 -95 c41 -63 77 -115 80 -115 3
0 39 50 80 111 41 61 80 113 86 116 7 2 28 3 48 1 l37 -3 -96 -138 -96 -138
87 -135 c47 -74 90 -137 95 -140 5 -3 9 -12 9 -20 0 -12 -10 -14 -46 -12 l-46
3 -76 122 c-43 67 -79 122 -82 122 -3 1 -43 -55 -88 -124 l-83 -125 -39 0
c-22 0 -40 5 -40 10 0 6 42 74 94 152 l95 141 -92 136 c-51 75 -93 139 -95
144 -2 4 18 7 45 7 l48 0 75 -115z m-2000 76 c0 -5 -62 -63 -137 -129 -76 -66
-208 -181 -293 -256 -85 -75 -158 -136 -162 -136 -4 0 -48 36 -98 81 l-90 81
-55 -48 c-72 -61 -80 -54 -69 61 l9 87 28 -22 c18 -14 26 -28 23 -39 -5 -12
-3 -12 8 2 15 20 78 46 383 163 100 38 180 70 179 72 -2 1 -131 -33 -287 -78
-156 -44 -297 -82 -314 -85 -26 -5 -41 4 -120 74 -49 44 -91 84 -92 88 -2 5
196 23 439 41 426 32 625 48 641 51 4 0 7 -3 7 -8z m804 -149 c17 -10 41 -33
53 -51 23 -34 40 -112 28 -130 -4 -7 -57 -11 -146 -11 l-139 0 0 -25 c0 -41
31 -93 66 -110 44 -20 76 -19 136 7 49 21 51 21 64 3 20 -26 14 -36 -36 -62
-63 -34 -157 -32 -218 3 -109 64 -125 264 -29 352 57 53 154 63 221 24z m451
4 c54 -35 60 -57 63 -238 l4 -168 -41 0 -41 0 0 155 c0 152 -1 156 -25 180
-31 32 -81 33 -126 2 l-34 -23 -3 -157 -3 -157 -39 0 -40 0 0 211 0 210 33 -3
c24 -2 33 -8 35 -25 4 -25 17 -30 28 -12 3 6 25 20 48 30 47 22 103 20 141 -5z"/>
<path d="M3799 1607 c-47 -36 -68 -119 -49 -196 6 -27 21 -58 32 -68 29 -26
95 -24 136 5 l32 23 0 102 c0 56 -4 107 -8 113 -21 32 -111 46 -143 21z"/>
<path d="M2965 1623 c-40 -8 -64 -27 -80 -58 -8 -18 -15 -36 -15 -39 0 -3 47
-6 105 -6 99 0 105 1 105 21 0 33 -19 60 -55 75 -19 8 -36 13 -37 13 -2 -1
-12 -3 -23 -6z"/>
</g>
</svg>
