<svg xmlns="http://www.w3.org/2000/svg" width="2500" height="2500" viewBox="0 0 192.756 192.756"><path fill="none" d="M0 192.756h192.756V0H0v192.756z"/><path d="M78.445 105.738l-2.4 11.158h-5.52l9.12-40.438h6.539l8.58 40.438h-5.58l-2.34-11.158h-8.399zm7.739-4.5l-1.86-9.661c-.54-2.76-1.08-6.358-1.499-9.239h-.241c-.419 2.94-1.021 6.659-1.559 9.239l-1.92 9.661h7.079zM115.834 75.379v34.018c0 2.221.12 5.461.239 7.5h-4.859l-.36-3.539h-.18c-.96 2.039-3.18 4.02-6.119 4.02-5.4 0-8.7-5.881-8.7-14.939 0-10.32 4.379-15.18 9-15.18 2.339 0 4.199 1.081 5.219 3.3h.12v-15.18h5.64zm-5.641 23.459c0-.539 0-1.199-.06-1.801-.3-2.639-1.8-4.919-3.839-4.919-3.541 0-4.74 4.919-4.74 10.32 0 6 1.56 10.199 4.56 10.199 1.26 0 2.939-.66 3.899-4.139.12-.48.18-1.201.18-1.859v-7.801zM129.268 117.377c-5.819 0-10.02-4.98-10.02-14.998 0-10.621 4.979-15.121 10.319-15.121 5.76 0 9.899 5.16 9.899 15 0 11.58-5.7 15.119-10.139 15.119h-.059zm.179-4.439c3.479 0 4.26-6.18 4.26-10.619 0-4.381-.78-10.62-4.379-10.62-3.721 0-4.44 6.239-4.44 10.62 0 4.859.84 10.619 4.5 10.619h.059zM142.866 75.379h5.639v15.659h.12c1.5-2.639 3.54-3.78 6.12-3.78 4.979 0 8.1 5.64 8.1 14.58 0 10.439-4.26 15.539-9.06 15.539-2.88 0-4.5-1.561-5.761-4.141h-.238l-.301 3.66h-4.859c.12-1.979.24-5.279.24-7.5V75.379zm5.639 31.197c0 .662.06 1.322.24 1.801.899 3.541 2.64 4.26 3.779 4.26 3.36 0 4.62-4.439 4.62-10.439 0-5.58-1.319-10.08-4.68-10.08-1.86 0-3.36 2.22-3.78 4.32-.12.6-.18 1.381-.18 1.98v8.158h.001zM171.167 103.457c.06 7.5 3.299 9.359 6.719 9.359 2.04 0 3.78-.479 5.04-1.08l.84 4.08c-1.74.9-4.38 1.381-6.96 1.381-7.319 0-11.159-5.52-11.159-14.52 0-9.54 4.379-15.42 10.439-15.42 6.06 0 8.88 5.82 8.88 13.141 0 1.439-.061 2.34-.12 3.119l-13.679-.06zm8.459-4.019c.06-5.16-1.74-7.919-3.959-7.919-2.941 0-4.261 4.26-4.44 7.919h8.399z" fill-rule="evenodd" clip-rule="evenodd"/><path fill-rule="evenodd" clip-rule="evenodd" fill="#cc2131" d="M38.741 76.566h16.847v40.33l-16.847-40.33zM26.873 76.566H10.014v40.33l16.859-40.33zM32.808 91.429l10.734 25.467h-7.034l-3.21-8.111h-7.857l7.367-17.356z"/><path d="M184.487 87.183a1.28 1.28 0 0 1 1.274 1.297c0 .732-.565 1.303-1.28 1.303-.709 0-1.286-.57-1.286-1.303a1.29 1.29 0 0 1 1.286-1.297h.006zm-.006.201c-.57 0-1.038.491-1.038 1.096 0 .617.468 1.101 1.044 1.101.576.006 1.037-.484 1.037-1.095s-.461-1.102-1.037-1.102h-.006zm-.242 1.852h-.23v-1.448c.121-.017.237-.035.41-.035.219 0 .362.047.449.11.087.063.133.161.133.3 0 .19-.127.306-.283.352v.011c.127.023.214.139.242.352.035.225.069.311.093.358h-.242c-.035-.047-.069-.179-.098-.369-.035-.185-.127-.254-.312-.254h-.161v.623h-.001zm0-.802h.167c.19 0 .353-.069.353-.248 0-.127-.093-.254-.353-.254-.074 0-.127.006-.167.012v.49zM57.809 76.566a1.28 1.28 0 0 1 1.274 1.297c0 .732-.565 1.303-1.28 1.303-.709 0-1.286-.57-1.286-1.303a1.29 1.29 0 0 1 1.286-1.297h.006zm-.006.201c-.571 0-1.038.491-1.038 1.096 0 .617.467 1.101 1.044 1.101.576.006 1.038-.484 1.038-1.095s-.462-1.102-1.038-1.102h-.006zm-.242 1.852h-.231v-1.448a2.52 2.52 0 0 1 .41-.034c.219 0 .363.045.449.109.087.063.133.162.133.3 0 .19-.127.306-.283.352v.011c.127.023.214.139.243.353.034.225.069.311.092.358h-.242c-.035-.047-.07-.179-.098-.369-.035-.185-.127-.254-.312-.254h-.161v.622zm0-.802h.167c.19 0 .352-.069.352-.248 0-.127-.092-.254-.352-.254-.075 0-.127.006-.167.012v.49z" fill-rule="evenodd" clip-rule="evenodd"/></svg>