<svg height="584" viewBox="0.5 -0.21099999999999997 157.79799999999994 37.51719951184212" width="2500" xmlns="http://www.w3.org/2000/svg"><g stroke-width=".265"><path d="M95.882 36.222v-3.466h1.72v3.466zm17.595-11.932c-.053-.741-.264-1.429-.582-2.011s-.74-1.058-1.27-1.455a5.087 5.087 0 0 0-1.826-.873 8.464 8.464 0 0 0-2.196-.291 6.578 6.578 0 0 0-2.857.635 5.528 5.528 0 0 0-2.064 1.746c-.556.714-.979 1.56-1.27 2.487s-.423 1.878-.423 2.884c0 1.164.132 2.222.397 3.201.264.98.688 1.852 1.243 2.567a6.065 6.065 0 0 0 2.064 1.693c.847.397 1.826.609 2.91.609.82 0 1.561-.133 2.223-.397.688-.265 1.296-.635 1.825-1.111s.98-1.032 1.297-1.694.556-1.402.688-2.17h1.27a8.172 8.172 0 0 1-.847 2.752 6.878 6.878 0 0 1-1.614 2.038 6.604 6.604 0 0 1-2.17 1.27c-.82.29-1.693.423-2.619.423-1.428 0-2.62-.265-3.625-.74-1.005-.53-1.825-1.165-2.46-2.038-.635-.847-1.111-1.826-1.429-2.937a13.68 13.68 0 0 1-.45-3.466c0-1.19.159-2.355.53-3.44.343-1.058.846-2.01 1.534-2.804.688-.794 1.482-1.456 2.487-1.905.98-.477 2.117-.715 3.413-.715.926 0 1.826.133 2.62.344.82.238 1.56.582 2.17 1.059a5.596 5.596 0 0 1 1.56 1.772c.397.715.635 1.561.741 2.567h-1.243zm3.307 3.307c0-1.243.16-2.408.53-3.466.344-1.058.846-2.037 1.534-2.884a7.315 7.315 0 0 1 2.487-1.984c.98-.477 2.117-.715 3.413-.715 1.27 0 2.408.238 3.413.715a7.012 7.012 0 0 1 2.488 1.984c.687.847 1.164 1.773 1.534 2.884.344 1.111.53 2.223.53 3.466 0 1.244-.16 2.408-.53 3.493a8.39 8.39 0 0 1-1.534 2.884 7.174 7.174 0 0 1-2.488 1.931c-.978.476-2.116.714-3.413.714-1.27 0-2.407-.238-3.413-.714a7.502 7.502 0 0 1-2.487-1.931c-.661-.794-1.19-1.773-1.534-2.884-.37-1.085-.53-2.276-.53-3.493zm1.244 0c0 1.032.132 2.01.423 2.99a8.328 8.328 0 0 0 1.27 2.513 6.223 6.223 0 0 0 2.064 1.747c.847.423 1.773.635 2.858.635a6.492 6.492 0 0 0 2.857-.635 5.78 5.78 0 0 0 2.064-1.747 8.328 8.328 0 0 0 1.27-2.513c.29-.926.423-1.932.423-2.99 0-1.058-.159-2.01-.423-2.99-.291-.926-.715-1.772-1.27-2.513s-1.27-1.323-2.064-1.747c-.847-.423-1.773-.635-2.857-.635a6.492 6.492 0 0 0-2.858.635 5.78 5.78 0 0 0-2.064 1.747 8.328 8.328 0 0 0-1.27 2.513c-.264.98-.423 1.958-.423 2.99zm17.304-8.625h1.27v3.519h.053a4.052 4.052 0 0 1 .714-1.535c.317-.476.74-.9 1.244-1.27a6.23 6.23 0 0 1 1.613-.847 6.338 6.338 0 0 1 1.879-.29c.847 0 1.561.105 2.143.317.609.238 1.138.476 1.561.846s.767.741 1.006 1.165c.264.423.423.873.529 1.323h.053c.529-1.191 1.19-2.117 2.063-2.726.874-.608 2.011-.926 3.414-.926.767 0 1.534.133 2.17.344.634.238 1.243.582 1.719 1.059s.847 1.11 1.138 1.825c.264.741.397 1.614.397 2.62v11.747H157V24.316c0-1.111-.159-1.931-.53-2.593-.317-.608-.74-1.11-1.19-1.428s-.9-.53-1.402-.609c-.45-.053-.82-.132-1.058-.132-.768 0-1.535.132-2.17.397a5.15 5.15 0 0 0-1.72 1.19c-.476.556-.846 1.19-1.137 2.011-.265.82-.397 1.72-.397 2.725v10.266h-1.27V24.316c0-1.058-.16-1.931-.477-2.566s-.714-1.111-1.137-1.429c-.424-.317-.873-.53-1.35-.609a4.79 4.79 0 0 0-1.11-.132c-.61 0-1.244.132-1.88.344-.634.265-1.243.609-1.772 1.138-.53.529-.98 1.164-1.297 1.984s-.529 1.746-.529 2.858v10.24h-1.27V18.918h.027z" fill="#2e3133"/><path d="M53.337 1.192c-1.852.979-2.513 2.593-2.513 7.064 0 0 .926-.9 2.302-1.402 1.005-.344 1.852-.9 2.354-1.27C57.041 4.446 57.253 2.99 57.253.53c0 0-2.54-.08-3.916.662z" fill="#ffcb29"/><path d="M42.49 2.25c-1.482 1.323-1.932 3.413-1.932 3.413l-4.974 19.103-4.101-15.663c-.397-1.64-1.138-3.73-2.276-5.107-1.428-1.746-4.365-1.852-4.683-1.852s-3.28.106-4.736 1.879c-1.138 1.402-1.878 3.466-2.275 5.106l-4.101 15.663L8.49 5.663S8.067 3.546 6.56 2.25C4.125.107.5.557.5.557L9.946 36.38s3.122.238 4.683-.582c2.037-1.032 3.042-1.852 4.286-6.747 1.111-4.339 4.207-17.092 4.498-18.018.132-.45.317-1.534 1.111-1.534.82 0 .98 1.058 1.111 1.534.291.9 3.36 13.68 4.498 18.018 1.244 4.869 2.223 5.662 4.287 6.747 1.56.82 4.683.582 4.683.582L48.548.583S44.924.133 42.49 2.25zm14.763 4.154s-.582.9-1.931 1.693c-.873.477-1.694.82-2.593 1.244-1.482.714-1.905 1.534-1.905 2.751v24.29s2.407.29 3.942-.477c2.01-1.032 2.46-2.01 2.487-6.482zm23.601 12.144L92.84.662s-5.054-.873-7.567 1.43c-1.614 1.454-3.414 4.074-3.414 4.074l-4.392 6.403c-.238.317-.476.688-.926.688s-.74-.344-.926-.688L71.17 6.192s-1.772-2.62-3.413-4.074C65.27-.184 60.19.688 60.19.688l12.012 17.834L60.19 36.328s5.292.688 7.779-1.614c1.614-1.455 3.175-3.863 3.175-3.863l4.392-6.376c.238-.318.476-.688.926-.688s.74.344.926.688l4.392 6.376s1.64 2.355 3.228 3.863c2.487 2.302 7.7 1.614 7.7 1.614z" fill="#2e3133"/></g></svg>