<svg width="2500" height="2284" viewBox="0 0 2500 2284" fill="none" xmlns="http://www.w3.org/2000/svg">
<path fill-rule="evenodd" clip-rule="evenodd" d="M1017.41 1155.4L986.284 1300.11H914.691L1032.98 775.643H1117.78L1229.07 1300.11H1156.69L1126.35 1155.4H1017.41ZM1117.78 1097.03L1093.66 971.733C1086.66 935.936 1079.65 889.271 1074.22 851.905H1071.09C1065.66 890.036 1057.85 938.271 1050.87 971.733L1025.97 1097.03H1117.78ZM1502.34 761.648V1202.85C1502.34 1231.66 1503.89 1273.68 1505.44 1300.13H1442.42L1437.75 1254.23H1435.41C1422.96 1280.67 1394.17 1306.37 1356.05 1306.37C1286.02 1306.37 1243.22 1230.09 1243.22 1112.61C1243.22 978.762 1300.01 915.729 1359.94 915.729C1390.28 915.729 1414.4 929.75 1427.63 958.529H1429.19V761.648H1502.34ZM1429.18 1065.91C1429.18 1058.92 1429.18 1050.36 1428.4 1042.55C1424.51 1008.32 1405.05 978.749 1378.61 978.749C1332.68 978.749 1317.13 1042.55 1317.13 1112.6C1317.13 1190.42 1337.36 1244.88 1376.27 1244.88C1392.61 1244.88 1414.39 1236.32 1426.84 1191.19C1428.4 1184.97 1429.18 1175.62 1429.18 1167.08V1065.91ZM1676.57 1306.35C1601.1 1306.35 1546.62 1241.76 1546.62 1111.83C1546.62 974.08 1611.19 915.716 1680.45 915.716C1755.16 915.716 1808.84 982.64 1808.84 1110.26C1808.84 1260.45 1734.91 1306.35 1677.34 1306.35H1676.57ZM1678.9 1248.78C1724.02 1248.78 1734.15 1168.63 1734.15 1111.05C1734.15 1054.23 1724.03 973.315 1677.35 973.315C1629.09 973.315 1619.77 1054.23 1619.77 1111.05C1619.77 1174.07 1630.66 1248.78 1678.13 1248.78H1678.9ZM1852.94 761.648H1926.07V964.742H1927.63C1947.08 930.515 1973.54 915.716 2007 915.716C2071.58 915.716 2112.06 988.866 2112.06 1104.82C2112.06 1240.21 2056.81 1306.35 1994.55 1306.35C1957.2 1306.35 1936.19 1286.11 1919.84 1252.64H1916.75L1912.84 1300.11H1849.82C1851.38 1274.45 1852.94 1231.65 1852.94 1202.84V761.648ZM1926.07 1166.27C1926.07 1174.85 1926.85 1183.41 1929.19 1189.62C1940.85 1235.55 1963.43 1244.88 1978.2 1244.88C2021.78 1244.88 2038.12 1187.3 2038.12 1109.48C2038.12 1037.11 2021.01 978.749 1977.42 978.749C1953.3 978.749 1933.84 1007.54 1928.4 1034.78C1926.84 1042.56 1926.06 1052.69 1926.06 1060.46V1166.27H1926.07ZM2219.99 1125.81C2220.77 1223.09 2262.78 1247.2 2307.14 1247.2C2333.6 1247.2 2356.16 1240.99 2372.51 1233.19L2383.4 1286.11C2360.83 1297.78 2326.59 1304.02 2293.13 1304.02C2198.21 1304.02 2148.4 1232.43 2148.4 1115.7C2148.4 991.966 2205.2 915.703 2283.79 915.703C2362.39 915.703 2398.96 991.187 2398.96 1086.14C2398.96 1104.8 2398.17 1116.49 2397.41 1126.59L2219.99 1125.81ZM2329.71 1073.69C2330.48 1006.76 2307.14 970.98 2278.36 970.98C2240.21 970.98 2223.09 1026.23 2220.77 1073.69H2329.71Z" fill="#676767"/>
<path fill-rule="evenodd" clip-rule="evenodd" d="M502.461 777.043H720.963V1300.11L502.461 777.043ZM348.536 777.043H129.879V1300.11L348.536 777.043ZM425.512 969.813L564.729 1300.11H473.5L431.867 1194.92H329.963L425.512 969.813Z" fill="#676767"/>
<path fill-rule="evenodd" clip-rule="evenodd" d="M2392.75 914.743C2394.94 914.753 2397.11 915.197 2399.13 916.05C2401.15 916.903 2402.98 918.147 2404.52 919.711C2406.06 921.275 2407.27 923.127 2408.08 925.162C2408.9 927.197 2409.31 929.373 2409.28 931.565C2409.28 941.059 2401.95 948.464 2392.67 948.464C2383.48 948.464 2376 941.072 2376 931.565C2375.98 929.364 2376.41 927.183 2377.24 925.146C2378.07 923.109 2379.3 921.256 2380.85 919.694C2382.4 918.131 2384.24 916.89 2386.27 916.04C2388.3 915.191 2390.47 914.75 2392.67 914.743H2392.75ZM2392.67 917.35C2385.28 917.35 2379.21 923.718 2379.21 931.565C2379.21 939.567 2385.28 945.844 2392.75 945.844C2400.22 945.922 2406.2 939.567 2406.2 931.643C2406.2 923.718 2400.22 917.35 2392.75 917.35H2392.67ZM2389.54 941.37H2386.55V922.59C2388.12 922.369 2389.63 922.136 2391.87 922.136C2394.71 922.136 2396.57 922.745 2397.69 923.562C2398.82 924.379 2399.42 925.651 2399.42 927.453C2399.42 929.918 2397.77 931.422 2395.75 932.019V932.161C2397.4 932.46 2398.52 933.964 2398.89 936.727C2399.34 939.645 2399.78 940.76 2400.09 941.37H2396.95C2396.5 940.76 2396.06 939.048 2395.68 936.584C2395.23 934.185 2394.04 933.29 2391.64 933.29H2389.55V941.37H2389.54ZM2389.54 930.968H2391.7C2394.17 930.968 2396.28 930.073 2396.28 927.752C2396.28 926.104 2395.07 924.457 2391.7 924.457C2390.74 924.457 2390.06 924.535 2389.54 924.613V930.968ZM749.769 777.043C751.961 777.053 754.13 777.497 756.149 778.35C758.169 779.202 760 780.447 761.536 782.011C763.072 783.575 764.283 785.427 765.1 787.462C765.916 789.497 766.322 791.673 766.292 793.865C766.292 803.359 758.965 810.764 749.691 810.764C740.496 810.764 733.012 803.372 733.012 793.865C733 791.664 733.422 789.483 734.254 787.446C735.087 785.409 736.313 783.556 737.862 781.994C739.411 780.431 741.253 779.19 743.283 778.34C745.313 777.49 747.491 777.05 749.691 777.043H749.769ZM749.691 779.65C742.285 779.65 736.228 786.018 736.228 793.865C736.228 801.867 742.285 808.144 749.769 808.144C757.239 808.222 763.232 801.867 763.232 793.943C763.232 786.018 757.239 779.65 749.769 779.65H749.691ZM746.552 803.67H743.556V784.89C745.314 784.598 747.092 784.451 748.874 784.449C751.714 784.449 753.582 785.032 754.697 785.862C755.826 786.68 756.422 787.963 756.422 789.753C756.422 792.218 754.775 793.722 752.752 794.319V794.461C754.399 794.76 755.528 796.264 755.904 799.04C756.345 801.958 756.799 803.073 757.097 803.683H753.958C753.504 803.073 753.05 801.361 752.687 798.897C752.233 796.498 751.04 795.603 748.641 795.603H746.552V803.67ZM746.552 793.268H748.718C751.183 793.268 753.284 792.373 753.284 790.052C753.284 788.404 752.091 786.757 748.718 786.757C747.746 786.757 747.071 786.835 746.552 786.913V793.268Z" fill="black"/>
</svg>
