<svg width="533" height="67" viewBox="0 0 533 67" fill="none" xmlns="http://www.w3.org/2000/svg">
<g clip-path="url(#clip0_2027_6385)">
<path d="M19.3558 30.1158C19.162 29.8621 18.9059 29.6627 18.6125 29.5369C18.319 29.4111 17.9981 29.3631 17.6807 29.3976C17.3632 29.4321 17.0601 29.5479 16.8005 29.7337C16.5409 29.9196 16.3337 30.1694 16.1988 30.4588L0.201819 62.4428C0.0560888 62.7343 -0.0127174 63.0582 0.0019334 63.3837C0.0165842 63.7093 0.114206 64.0257 0.28553 64.3029C0.456853 64.5802 0.696193 64.809 0.980823 64.9677C1.26545 65.1264 1.58593 65.2097 1.91182 65.2098H24.1868C24.5436 65.2181 24.8951 65.1226 25.1986 64.935C25.5022 64.7473 25.7447 64.4756 25.8968 64.1528C30.7018 54.2238 27.7898 39.1268 19.3558 30.1158Z" fill="url(#paint0_linear_2027_6385)"/>
<path d="M31.0877 1.0241C27.1017 7.15727 24.7788 14.2214 24.347 21.5233C23.9152 28.8252 25.3893 36.1139 28.6247 42.6741L39.3637 64.1521C39.5225 64.4697 39.7665 64.7368 40.0686 64.9235C40.3706 65.1102 40.7186 65.2091 41.0737 65.2091H63.3447C63.6706 65.2091 63.9911 65.1257 64.2757 64.967C64.5603 64.8083 64.7997 64.5795 64.971 64.3023C65.1423 64.025 65.2399 63.7086 65.2546 63.3831C65.2692 63.0575 65.2004 62.7336 65.0547 62.4421C65.0547 62.4421 35.0927 2.5111 34.3397 1.0121C34.1908 0.706973 33.9589 0.449993 33.6707 0.270635C33.3824 0.0912773 33.0494 -0.00319361 32.7099 -0.00194083C32.3704 -0.000688038 32.0382 0.0962377 31.7512 0.277718C31.4643 0.459199 31.2343 0.717883 31.0877 1.0241Z" fill="#676767"/>
<path d="M292.315 26.669C292.315 34.589 295.989 40.877 310.36 43.653C318.934 45.453 320.73 46.837 320.73 49.695C320.73 52.471 318.93 54.268 312.891 54.268C305.592 54.1368 298.439 52.2013 292.07 48.634V61.534C296.398 63.657 302.113 66.025 312.728 66.025C327.752 66.025 333.713 59.325 333.713 49.368M333.713 49.368C333.713 39.978 328.732 35.568 314.688 32.548C306.931 30.833 305.053 29.119 305.053 26.669C305.053 23.569 307.829 22.26 312.973 22.26C319.179 22.26 325.303 24.138 331.1 26.751V14.421C325.542 11.891 319.488 10.6357 313.381 10.747C299.5 10.747 292.315 16.789 292.315 26.669" fill="#676767"/>
<path d="M485.332 11.5625V65.2085H496.763V24.3005L501.581 35.1595L517.748 65.2085H532.119V11.5625H520.688V46.1835L516.36 36.1395L503.377 11.5625H485.332Z" fill="#676767"/>
<path d="M412.63 11.5625H400.137V65.2085H412.63V11.5625Z" fill="#676767"/>
<path d="M385.721 49.368C385.721 39.978 380.74 35.568 366.696 32.548C358.939 30.833 357.061 29.119 357.061 26.669C357.061 23.569 359.837 22.26 364.981 22.26C371.187 22.26 377.311 24.138 383.108 26.751V14.421C377.549 11.891 371.495 10.6357 365.389 10.747C351.508 10.747 344.323 16.789 344.323 26.669C344.323 34.589 347.997 40.877 362.368 43.653C370.942 45.453 372.738 46.837 372.738 49.695C372.738 52.471 370.938 54.268 364.899 54.268C357.6 54.1368 350.447 52.2013 344.078 48.634V61.534C348.406 63.657 354.121 66.025 364.736 66.025C379.76 66.025 385.721 59.325 385.721 49.368Z" fill="#676767"/>
<path d="M195.266 11.5625V65.2085H220.944L224.987 53.6135H207.84V11.5625H195.266Z" fill="#676767"/>
<path d="M144.535 11.5625V23.1565H158.416V65.2085H170.99V23.1565H185.851V11.5625H144.535Z" fill="#676767"/>
<path d="M126.303 11.5625H109.824L91.1172 65.2085H105.403L108.055 56.1735C114.587 58.0914 121.532 58.0914 128.063 56.1735L130.715 65.2085H145.004L126.303 11.5625ZM118.063 46.4995C115.736 46.4994 113.421 46.1663 111.188 45.5105L118.063 22.0995L124.938 45.5185C122.705 46.1716 120.39 46.502 118.063 46.4995Z" fill="#676767"/>
<path d="M265.212 11.5625H248.734L230.027 65.2085H244.316L246.968 56.1735C253.5 58.0914 260.445 58.0914 266.976 56.1735L269.628 65.2085H283.917L265.212 11.5625ZM256.973 46.4995C254.646 46.4994 252.331 46.1663 250.098 45.5105L256.973 22.0995L263.848 45.5185C261.615 46.1716 259.3 46.502 256.973 46.4995Z" fill="#676767"/>
<path d="M457.646 11.5625H441.168L422.461 65.2085H436.75L439.402 56.1735C445.933 58.0914 452.878 58.0914 459.41 56.1735L462.062 65.2085H476.352L457.646 11.5625ZM449.402 46.4995C447.075 46.4994 444.76 46.1663 442.527 45.5105L449.402 22.0995L456.277 45.5185C454.044 46.1716 451.729 46.502 449.402 46.4995Z" fill="#676767"/>
</g>
<defs>
<linearGradient id="paint0_linear_2027_6385" x1="28.1228" y1="35.0518" x2="11.2408" y2="64.2928" gradientUnits="userSpaceOnUse">
<stop offset="0.9997" stop-color="#676767"/>
<stop offset="0.9998" stop-color="#2684FF"/>
<stop offset="0.9999" stop-color="#2684FF"/>
<stop offset="1" stop-color="#2684FF"/>
</linearGradient>
<clipPath id="clip0_2027_6385">
<rect width="532.119" height="66.025" fill="white"/>
</clipPath>
</defs>
</svg>
