<svg width="113" height="33" viewBox="0 0 113 33" fill="none" xmlns="http://www.w3.org/2000/svg">
<path d="M0 6.03516H3.93066V14.7754H12.2217V6.03516H16.1572V27.5195H12.2217V18.5596H3.93555V27.4707H0V6.03516ZM28.6133 20.4883C28.6094 21.3509 28.2651 22.177 27.6551 22.787C27.0452 23.3969 26.219 23.7413 25.3564 23.7451C24.4939 23.7413 23.6677 23.3969 23.0578 22.787C22.4478 22.177 22.1035 21.3509 22.0996 20.4883V11.2109H18.374V20.4883C18.374 22.3401 19.1097 24.1161 20.4191 25.4256C21.7286 26.7351 23.5046 27.4707 25.3564 27.4707C27.2083 27.4707 28.9843 26.7351 30.2938 25.4256C31.6032 24.1161 32.3389 22.3401 32.3389 20.4883V11.2109H28.6133V20.4883ZM42.749 11.3672C41.9351 11.3306 41.1227 11.4685 40.3664 11.7716C39.6102 12.0748 38.9275 12.5363 38.3643 13.125V6.03516H34.624V19.1797C34.624 24.1016 38.1885 27.4707 42.1777 27.4707C46.5723 27.4707 50.5127 24.0381 50.5127 19.4141C50.5127 14.8486 46.9238 11.3574 42.7002 11.3574L42.749 11.3672ZM42.8467 24.0625C40.3076 24.0625 38.374 21.9482 38.374 19.4727C38.374 16.9971 40.3125 14.8828 42.8467 14.8828C44.9951 14.8828 46.9336 17.002 46.9336 19.4727C46.9336 21.9434 44.9951 24.0625 42.8467 24.0625ZM56.8018 12.3584C56.8018 10.4785 58.0566 9.88281 59.4238 9.88281C60.5273 9.88281 61.9873 10.7129 62.9394 11.7383L65.3809 8.87695C64.1602 7.23633 61.6846 6.10352 59.6582 6.10352C55.6055 6.10352 52.6758 8.46191 52.6758 12.3682C52.6758 19.6143 61.5918 17.3193 61.5918 21.377C61.5918 22.627 60.3711 23.7305 58.9697 23.7305C56.7627 23.7305 56.04 22.6562 55.0342 21.5234L52.3193 24.3262C54.0478 26.4453 56.1963 27.5195 58.7646 27.5195C62.6123 27.5195 65.7129 25.127 65.7129 21.4063C65.7129 13.3496 56.7969 15.8594 56.7969 12.373M75.5615 11.2207C71.5576 11.2207 68.0078 14.6387 68.0078 19.5117V32.6953H71.748V25.5664C72.9932 26.7871 74.2871 27.3242 76.1328 27.3242C80.3076 27.3242 83.9453 23.833 83.9453 19.2676C83.9453 14.6436 80.0488 11.2109 75.6055 11.2109L75.5615 11.2207ZM76.2256 23.916C73.6865 23.916 71.7529 21.7969 71.7529 19.3262C71.7529 16.8555 73.6914 14.7363 76.2256 14.7363C78.374 14.7363 80.3125 16.8555 80.3125 19.3262C80.3125 21.7969 78.374 23.916 76.2256 23.916ZM111.431 24.126C109.224 24.126 108.599 23.1738 108.599 21.709V15.1318H112.026V11.8457H108.599V7.51953L104.814 9.21875V22.4023C104.814 25.8203 107.139 27.4707 110.332 27.4707C110.833 27.4805 111.333 27.4413 111.826 27.3535L112.754 23.9551L111.436 24.0137" fill="#676767"/>
<path d="M101.558 15.3223C100.84 14.0869 99.834 13.1006 98.5693 12.3535C97.6424 11.8055 96.6144 11.4501 95.5469 11.3086V7.3877C96.0817 7.16715 96.5377 6.79071 96.8556 6.30736C97.1735 5.82402 97.3385 5.25616 97.3291 4.67774C97.3291 3.03223 96.0107 1.74805 94.3652 1.74805C93.9733 1.74676 93.5849 1.82285 93.2224 1.97196C92.8599 2.12107 92.5304 2.34027 92.2528 2.61697C91.9752 2.89368 91.7549 3.22247 91.6046 3.58447C91.4543 3.94648 91.377 4.3346 91.377 4.72656C91.377 5.93262 92.0215 6.97266 93.1201 7.43652V11.3574C92.2412 11.4844 91.3281 11.7578 90.4932 12.1875L79.9365 4.16992C80.0146 3.8916 80.0732 3.60352 80.0732 3.30078C80.0732 1.47949 78.5986 0 76.7725 0C74.9463 0 73.4766 1.47949 73.4766 3.30078C73.4766 5.12207 74.9512 6.60156 76.7773 6.60156C77.3752 6.59988 77.9612 6.43438 78.4717 6.12305L79.1553 6.64551L88.6279 13.4717C88.125 13.9307 87.6611 14.4482 87.2852 15.0439C86.5073 16.2161 86.0836 17.5875 86.0645 18.9941V19.2871C86.0645 20.293 86.2598 21.2402 86.582 22.1436C86.875 22.9248 87.29 23.6328 87.8027 24.2773L84.6582 27.4316C84.2733 27.2887 83.8594 27.2413 83.4521 27.2934C83.0448 27.3455 82.6563 27.4956 82.3197 27.7309C81.9832 27.9661 81.7087 28.2795 81.5198 28.6441C81.331 29.0087 81.2334 29.4136 81.2354 29.8242C81.2341 30.1593 81.2991 30.4913 81.4267 30.8011C81.5544 31.111 81.7421 31.3925 81.979 31.6294C82.2159 31.8663 82.4974 32.054 82.8073 32.1817C83.1171 32.3093 83.4491 32.3743 83.7842 32.373C84.1193 32.3743 84.4513 32.3093 84.7611 32.1817C85.0709 32.054 85.3524 31.8663 85.5894 31.6294C85.8263 31.3925 86.014 31.111 86.1416 30.8011C86.2693 30.4913 86.3343 30.1593 86.333 29.8242C86.333 29.5605 86.2939 29.3018 86.2158 29.0576L89.4678 25.8057C89.9223 26.1163 90.4064 26.3813 90.9131 26.5967C91.9786 27.0628 93.129 27.3038 94.292 27.3047H94.5166C95.8644 27.311 97.1916 26.975 98.374 26.3281C99.6436 25.6348 100.645 24.6875 101.401 23.4814C102.168 22.2796 102.574 20.8835 102.573 19.458V19.3848C102.573 17.9346 102.231 16.6016 101.533 15.3809L101.558 15.3223ZM97.5879 22.1484C96.709 23.125 95.6934 23.7354 94.5459 23.7354H94.3506C93.6963 23.7354 93.0566 23.5547 92.4268 23.2275C91.7416 22.8715 91.1609 22.3431 90.7422 21.6943C90.2881 21.0498 90.0391 20.3516 90.0391 19.6045V19.3652C90.0391 18.6328 90.1855 17.9395 90.5273 17.2852C90.8905 16.5863 91.4311 15.9953 92.0947 15.5713C92.7637 15.083 93.4717 14.917 94.2676 14.917H94.3408C95.049 14.9065 95.7492 15.0673 96.3818 15.3857C97.0361 15.7373 97.5732 16.2158 97.9932 16.8506C98.3914 17.4677 98.6374 18.1706 98.7109 18.9014L98.7305 19.3652C98.717 20.4049 98.3044 21.3996 97.5781 22.1436L97.5879 22.1484Z" fill="#676767"/>
</svg>
