<svg width="643" height="178" viewBox="0 0 643 178" fill="none" xmlns="http://www.w3.org/2000/svg">
<path d="M72.6656 2.33389C52.799 6.46722 39.3323 13.5339 25.7323 27.2672C8.79896 44.2006 0.265625 65.2672 0.265625 89.6672C0.265625 114.334 8.39896 133.534 26.5323 151.801C35.199 160.467 39.599 163.801 48.799 168.201C69.999 178.334 50.6656 177.801 325.732 177.401C561.066 177.001 572.266 176.867 579.332 174.601C610.266 164.201 632.132 141.267 640.266 111.001C643.332 99.4006 643.332 79.8006 640.132 67.6672C633.732 43.2672 616.666 21.6672 595.332 11.2672C572.532 0.0672302 597.999 1.00056 324.666 0.733902C126.132 0.600571 79.7323 0.867233 72.6656 2.33389ZM459.332 90.4672V131.134L455.066 130.734C451.466 130.467 450.532 129.667 450.266 126.734L449.866 123.134L444.399 127.001C439.866 130.334 437.599 131.001 431.066 131.001C423.866 131.001 422.932 130.601 418.132 125.801C409.466 117.134 407.466 99.8006 413.732 87.5339C416.932 81.1339 419.999 78.3339 426.399 75.6672C432.932 73.0005 437.732 73.1339 443.732 76.3339L448.666 79.0005V64.3339V49.6672H453.999H459.332V90.4672ZM278.132 55.0005C284.399 58.3339 285.066 59.2672 283.199 63.5339C281.199 67.6672 280.666 67.8006 274.399 64.3339C267.066 60.4672 257.466 60.7339 253.332 65.0005C249.866 68.3339 249.066 73.4006 251.199 77.5339C252.532 79.9339 257.332 82.3339 270.266 87.0005C283.332 91.8006 289.199 101.667 286.132 113.267C282.932 125.001 274.132 131.001 259.999 131.001C253.332 131.001 249.732 130.201 244.932 127.801C235.466 123.001 234.532 121.401 238.532 116.867C241.466 113.267 241.866 113.134 244.266 115.134C252.532 122.467 264.532 123.801 271.199 118.201C274.666 115.401 275.332 113.801 275.332 109.001C275.332 101.801 272.266 99.0005 259.599 95.0005C243.732 89.8006 238.532 83.8006 239.599 71.6672C240.399 61.9339 245.866 55.6672 256.399 52.2006C261.466 50.6006 272.132 52.0672 278.132 55.0005ZM491.332 67.6672C496.799 76.0672 501.599 83.0005 501.999 83.0005C502.399 83.0005 507.199 76.3339 512.666 68.2006C518.132 60.0672 523.332 53.1339 524.132 52.7339C525.066 52.4672 527.866 52.3339 530.532 52.6006L535.466 53.0005L522.666 71.4006L509.866 89.8006L521.466 107.801C527.732 117.667 533.466 126.067 534.132 126.467C534.799 126.867 535.332 128.067 535.332 129.134C535.332 130.734 533.999 131.001 529.199 130.734L523.066 130.334L512.932 114.067C507.199 105.134 502.399 97.8006 501.999 97.8006C501.599 97.6672 496.266 105.134 490.266 114.334L479.199 131.001H473.999C471.066 131.001 468.666 130.334 468.666 129.667C468.666 128.867 474.266 119.801 481.199 109.401L493.866 90.6005L481.599 72.4672C474.799 62.4672 469.199 53.9339 468.932 53.2672C468.666 52.7339 471.332 52.3339 474.932 52.3339H481.332L491.332 67.6672ZM224.666 57.5339C224.666 58.2006 216.399 65.9339 206.399 74.7339C196.266 83.5339 178.666 98.8672 167.332 108.867C155.999 118.867 146.266 127.001 145.732 127.001C145.199 127.001 139.332 122.201 132.666 116.201L120.666 105.401L113.332 111.801C103.732 119.934 102.666 119.001 104.132 103.667L105.332 92.0672L109.066 95.0005C111.466 96.8672 112.532 98.7339 112.132 100.201C111.466 101.801 111.732 101.801 113.199 99.9339C115.199 97.2672 123.599 93.8006 164.266 78.2006C177.599 73.1339 188.266 68.8672 188.132 68.6006C187.866 68.4672 170.666 73.0005 149.866 79.0005C129.066 84.8672 110.266 89.9339 107.999 90.3339C104.532 91.0005 102.532 89.8006 91.999 80.4672C85.4656 74.6005 79.8656 69.2672 79.7323 68.7339C79.4656 68.0672 105.866 65.6672 138.266 63.2672C195.066 59.0005 221.599 56.8672 223.732 56.4672C224.266 56.4672 224.666 56.8672 224.666 57.5339ZM331.866 77.4006C334.132 78.7339 337.332 81.8006 338.932 84.2006C341.999 88.7339 344.266 99.1339 342.666 101.534C342.132 102.467 335.066 103.001 323.199 103.001H304.666V106.334C304.666 111.801 308.799 118.734 313.466 121.001C319.332 123.667 323.599 123.534 331.599 120.067C338.132 117.267 338.399 117.267 340.132 119.667C342.799 123.134 341.999 124.467 335.332 127.934C326.932 132.467 314.399 132.201 306.266 127.534C291.732 119.001 289.599 92.3339 302.399 80.6005C309.999 73.5339 322.932 72.2006 331.866 77.4006ZM391.999 76.8672C399.199 81.5339 399.999 84.4672 400.399 108.601L400.932 131.001H395.466H389.999V110.334C389.999 90.0672 389.866 89.5339 386.666 86.3339C382.532 82.0672 375.866 81.9339 369.866 86.0672L365.332 89.1339L364.932 110.067L364.532 131.001H359.332H353.999V102.867V74.8672L358.399 75.2672C361.599 75.5339 362.799 76.3339 363.066 78.6005C363.599 81.9339 365.332 82.6005 366.799 80.2006C367.199 79.4006 370.132 77.5339 373.199 76.2006C379.466 73.2672 386.932 73.5339 391.999 76.8672Z" fill="#676767"/>
<path d="M428.533 84.7335C422.266 89.5335 419.466 100.6 422 110.867C422.8 114.467 424.8 118.6 426.266 119.934C430.133 123.4 438.933 123.134 444.4 119.267L448.666 116.2V102.6C448.666 95.1335 448.133 88.3335 447.6 87.5335C444.8 83.2669 432.8 81.4002 428.533 84.7335Z" fill="#676767"/>
<path d="M317.331 82.6007C311.997 83.6673 308.797 86.2007 306.664 90.334C305.597 92.734 304.664 95.134 304.664 95.534C304.664 95.934 310.931 96.334 318.664 96.334C331.864 96.334 332.664 96.2007 332.664 93.534C332.664 89.134 330.131 85.534 325.331 83.534C322.797 82.4673 320.531 81.8007 320.397 81.8007C320.131 81.934 318.797 82.2007 317.331 82.6007Z" fill="#676767"/>
</svg>
