<svg width="48" height="48" viewBox="0 0 48 48" fill="none" xmlns="http://www.w3.org/2000/svg">
<g opacity="0.3">
<path d="M36.8871 17.6336H21.2194C20.6477 17.6336 20.1195 17.9384 19.8339 18.4334C19.5482 18.9284 19.5482 19.5381 19.8339 20.0331C20.1195 20.5281 20.6477 20.8329 21.2194 20.8329H25.3668C25.4192 21.1577 25.1207 20.1522 29.8598 35.2488C30.1019 35.9899 30.6465 36.5939 31.3592 36.9104C32.0715 37.2272 32.8845 37.2272 33.5969 36.9104C34.3092 36.5939 34.8542 35.9899 35.0963 35.2488L39.5002 21.2093C39.7611 20.3755 39.6108 19.4674 39.0955 18.7623C38.5801 18.0567 37.7607 17.6376 36.8873 17.6328L36.8871 17.6336Z" fill="white"/>
<path d="M36.6101 11.2122C36.6101 13.491 34.7627 15.3384 32.4838 15.3384C30.2046 15.3384 28.3572 13.4911 28.3572 11.2122C28.3572 8.93325 30.2045 7.08594 32.4838 7.08594C34.7626 7.08594 36.6101 8.93325 36.6101 11.2122Z" fill="white"/>
<path d="M23.398 26.1108C22.7396 26.0137 22.1252 26.4643 22.0205 27.1215L20.104 39.632H11.9559L10.0394 27.1215C10.0066 26.7911 9.83965 26.4887 9.57717 26.285C9.31469 26.0816 8.98029 25.9949 8.65228 26.0452C8.32388 26.0956 8.03104 26.2786 7.84166 26.5514C7.65268 26.8243 7.58358 27.1631 7.65149 27.4879L9.74611 41.0191C9.82481 41.6183 10.3358 42.0662 10.9399 42.0666H21.1407C21.7444 42.0642 22.2538 41.6171 22.3349 41.0191L24.398 27.4828C24.4983 26.8284 24.0516 26.2154 23.398 26.1108Z" fill="white"/>
<path d="M17.6012 23.7193C17.6012 24.5871 16.8976 25.2902 16.0303 25.2902C15.1626 25.2902 14.4595 24.587 14.4595 23.7193C14.4595 22.8516 15.1626 22.1484 16.0303 22.1484C16.8977 22.1484 17.6012 22.8516 17.6012 23.7193Z" fill="white"/>
<path d="M20.2191 27.5474C20.2191 28.4152 19.516 29.1187 18.6483 29.1187C17.7809 29.1187 17.0774 28.4151 17.0774 27.5474C17.0774 26.6801 17.7809 25.9766 18.6483 25.9766C19.516 25.9766 20.2191 26.6801 20.2191 27.5474Z" fill="white"/>
<path d="M16.3553 31.7896C16.3553 32.6574 15.6522 33.3605 14.7845 33.3605C13.9171 33.3605 13.2136 32.6573 13.2136 31.7896C13.2136 30.9223 13.9172 30.2188 14.7845 30.2188C15.6522 30.2188 16.3553 30.9223 16.3553 31.7896Z" fill="white"/>
</g>
</svg>
