<svg width="312" height="237" viewBox="0 0 312 237" fill="none" xmlns="http://www.w3.org/2000/svg">
<path d="M245.036 174.649C241.39 170.838 238.601 166.275 236.885 161.259C236.827 161.377 236.749 161.496 236.69 161.614C237.139 161.516 237.568 161.437 238.016 161.338C238.27 161.279 238.309 160.923 238.094 160.805C236.417 159.896 236.222 156.973 235.852 155.294C235.364 153.102 234.916 150.91 234.526 148.718C233.707 144.215 233.083 139.672 232.634 135.11C232.478 135.189 232.342 135.288 232.186 135.367C235.442 137.322 238.543 139.514 241.448 141.983C244.061 144.215 246.674 146.604 248.527 149.527C250.516 152.628 251.471 156.381 252.056 159.975C252.719 163.945 252.719 167.994 251.783 171.924C251.686 172.299 252.251 172.457 252.349 172.082C253.811 166.098 253.07 159.718 251.198 153.912C249.385 148.362 245.29 144.353 240.902 140.758C238.25 138.586 235.423 136.611 232.498 134.853C232.322 134.754 232.03 134.873 232.049 135.11C232.517 139.988 233.2 144.827 234.097 149.626C234.545 152.016 235.033 154.406 235.598 156.756C235.969 158.356 236.222 160.449 237.802 161.318C237.821 161.14 237.841 160.963 237.88 160.785C237.431 160.884 237.002 160.963 236.554 161.061C236.398 161.101 236.3 161.279 236.359 161.417C238.114 166.532 240.941 171.173 244.666 175.064C244.9 175.341 245.309 174.926 245.036 174.649Z" fill="#DFE6E9"/>
<path d="M232.693 135.604C239.752 145.953 244.627 157.724 246.967 170.067C247.045 170.443 247.61 170.285 247.532 169.909C245.173 157.506 240.278 145.676 233.18 135.288C232.985 134.991 232.478 135.288 232.693 135.604Z" fill="#DFE6E9"/>
<path d="M235.033 152.628C237.977 153.28 241.078 154.01 243.125 156.44C243.359 156.736 243.788 156.301 243.535 156.025C241.429 153.517 238.231 152.727 235.189 152.055C234.818 151.976 234.662 152.549 235.033 152.628Z" fill="#DFE6E9"/>
<path d="M242.794 152.668C242.58 149.903 243.009 147.157 244.101 144.61C244.257 144.254 243.75 143.958 243.594 144.313C242.463 146.96 241.975 149.784 242.209 152.668C242.248 153.043 242.833 153.043 242.794 152.668Z" fill="#DFE6E9"/>
<path d="M247.493 147.236C248.897 138.388 254.884 131.515 260.617 125.097C260.461 124.998 260.285 124.899 260.129 124.8C258.784 129.679 261.943 134.201 263.093 138.783C263.717 141.311 264.01 143.918 264.068 146.525C264.107 147.809 264.088 149.113 264.049 150.396C264.029 151.028 264.029 151.68 263.893 152.292C263.698 153.142 262.762 154.465 261.767 153.576C261.65 153.734 261.533 153.892 261.416 154.05C263.132 154.959 262.508 157.566 262.235 159.086C261.884 161.14 261.299 163.096 259.993 164.755C258.101 167.125 255.391 168.882 254.494 171.924C254.377 172.299 254.942 172.437 255.059 172.082C256.171 168.369 260.09 166.591 261.709 163.155C262.547 161.377 262.918 159.284 263.093 157.348C263.23 155.946 263.093 154.267 261.709 153.556C261.436 153.418 261.085 153.793 261.358 154.03C261.962 154.583 262.801 154.583 263.483 154.129C264.244 153.616 264.478 152.668 264.556 151.779C264.868 148.797 264.731 145.656 264.38 142.694C264.029 139.731 263.249 136.947 262.157 134.201C261.007 131.278 259.817 128.178 260.695 124.998C260.773 124.721 260.402 124.484 260.207 124.702C254.416 131.199 248.351 138.171 246.928 147.098C246.869 147.454 247.435 147.612 247.493 147.236Z" fill="#DFE6E9"/>
<path d="M259.466 126.815C255.41 136.947 252.895 147.651 251.998 158.553C251.959 158.928 252.544 158.928 252.583 158.553C253.48 147.71 255.995 137.065 260.032 126.973C260.168 126.637 259.603 126.479 259.466 126.815Z" fill="#DFE6E9"/>
<path d="M203.735 157.842C208.513 158.889 213.174 156.558 217.776 155.63C222.846 154.623 228.072 154.623 233.161 155.551C233.532 155.61 233.688 155.057 233.317 154.978C228.598 154.109 223.782 154.05 219.063 154.801C216.645 155.196 214.304 155.867 211.964 156.539C209.332 157.269 206.621 157.862 203.911 157.269C203.521 157.19 203.365 157.743 203.735 157.842Z" fill="#DFE6E9"/>
<path d="M263.445 156.025C266.214 155.492 268.944 156.163 271.615 156.835C274.228 157.467 276.861 158.04 279.532 158.514C284.68 159.422 289.906 159.955 295.132 160.173C295.503 160.192 295.503 159.6 295.132 159.58C289.575 159.363 284.056 158.751 278.577 157.743C275.925 157.25 273.312 156.637 270.699 156.005C268.261 155.413 265.785 154.978 263.289 155.472C262.938 155.531 263.094 156.104 263.445 156.025Z" fill="#DFE6E9"/>
<path d="M43.0359 139.475C49.9389 137.855 56.8419 135.979 63.8424 134.952C70.8234 133.945 77.9019 133.826 84.9414 134.438C98.4744 135.623 111.617 139.218 124.877 142.003C132.19 143.543 139.58 144.807 147.049 145.321C147.419 145.34 147.419 144.748 147.049 144.728C133.36 143.78 120.061 140.245 106.684 137.361C93.3849 134.517 79.8519 132.463 66.2409 134.043C58.3434 134.972 50.6214 137.085 42.8799 138.902C42.5094 138.981 42.6654 139.554 43.0359 139.475Z" fill="#DFE6E9"/>
<path d="M98.4164 135.604C109.863 134.596 121.075 131.871 132.171 128.948C143.52 125.946 154.869 122.904 166.218 119.863C177.547 116.841 188.857 113.74 200.226 110.798C205.881 109.336 211.594 108.013 217.405 107.46C223.002 106.927 228.657 107.006 234.253 107.539C247.318 108.763 260.032 112.299 272.649 115.814C273.019 115.913 273.175 115.34 272.805 115.241C261.709 112.141 250.555 109.04 239.109 107.499C233.415 106.729 227.643 106.334 221.89 106.571C216.235 106.788 210.658 107.697 205.14 108.961C199.524 110.264 193.966 111.825 188.389 113.326C182.695 114.846 177.001 116.367 171.307 117.888C159.802 120.949 148.278 124.03 136.773 127.091C124.156 130.449 111.462 133.846 98.4164 134.991C98.0459 135.051 98.0459 135.643 98.4164 135.604Z" fill="#DFE6E9"/>
<path d="M67.0018 171.114C71.7598 171.292 76.5373 171.47 81.2953 171.647C85.9363 171.825 90.5968 172.102 95.2378 172.141C99.7618 172.181 104.13 171.292 108.576 170.482C113.217 169.633 117.916 169.021 122.616 168.685C127.861 168.29 133.126 168.231 138.372 168.448C138.742 168.468 138.742 167.875 138.372 167.855C129.168 167.46 119.944 167.994 110.857 169.495C106.216 170.265 101.614 171.45 96.9148 171.549C92.3128 171.667 87.6523 171.312 83.0503 171.134C77.7073 170.936 72.3643 170.739 67.0213 170.541C66.6313 170.502 66.6313 171.094 67.0018 171.114Z" fill="#DFE6E9"/>
<path d="M57.4276 196.987C57.7201 197.204 58.0126 197.401 58.3051 197.619C58.5781 197.816 58.8901 197.382 58.6561 197.145C57.7591 196.197 56.8816 195.268 55.9846 194.32C55.5751 193.886 55.0876 193.491 54.7561 192.997C54.2491 192.247 54.7756 191.891 54.8926 191.279C55.0291 190.647 54.4051 190.291 54.0541 189.896C53.2741 189.047 52.7671 187.981 52.3771 186.894C50.7586 182.411 50.1931 177.355 50.0371 172.615C49.9396 172.714 49.8421 172.813 49.7446 172.911C54.6586 172.457 57.5056 177.158 59.1436 181.127C60.9766 185.532 62.6536 190.133 62.8681 194.972C62.8876 195.347 63.4726 195.347 63.4531 194.972C63.2191 189.798 61.3861 184.781 59.3191 180.081C57.6031 176.15 54.5026 171.865 49.7251 172.299C49.5691 172.319 49.4326 172.418 49.4326 172.595C49.5301 175.143 49.7641 177.671 50.1736 180.179C50.5831 182.628 51.0511 185.156 51.9481 187.467C52.2796 188.316 52.6891 189.126 53.2351 189.837C53.6251 190.331 54.2881 190.765 54.0541 191.496C53.9566 191.792 53.7616 191.95 53.7811 192.306C53.8201 193.175 54.7561 193.886 55.2826 194.439C56.2576 195.466 57.2521 196.513 58.2271 197.54C58.3441 197.382 58.4611 197.224 58.5781 197.066C58.2856 196.848 57.9931 196.651 57.7006 196.434C57.4081 196.256 57.1156 196.769 57.4276 196.987Z" fill="#DFE6E9"/>
<path d="M61.0532 183.537C62.7497 179.034 65.7332 175.104 69.6137 172.319C69.4772 172.279 69.3407 172.24 69.2042 172.22C70.2962 174.748 71.0372 177.395 71.4272 180.12C71.4857 180.002 71.5637 179.883 71.6222 179.765C71.1542 179.903 70.6862 180.041 70.1987 180.179C70.0037 180.239 69.9452 180.436 70.0232 180.614C70.5692 181.937 71.1737 183.438 70.5692 184.84C70.0622 186.006 68.9702 186.875 68.2097 187.842C66.8252 189.58 65.7527 191.516 64.9337 193.57C64.7972 193.925 65.3627 194.083 65.4992 193.728C66.5912 190.943 68.2292 188.731 70.1597 186.499C70.8617 185.69 71.3882 184.801 71.4272 183.695C71.4662 182.51 70.9788 181.384 70.5303 180.318C70.4718 180.456 70.4132 180.614 70.3547 180.752C70.8227 180.614 71.2907 180.476 71.7782 180.337C71.9342 180.298 72.0122 180.14 71.9732 179.982C71.5637 177.197 70.8032 174.511 69.6917 171.924C69.6332 171.786 69.4187 171.726 69.2822 171.825C65.2652 174.728 62.2037 178.738 60.4487 183.399C60.3707 183.734 60.9167 183.892 61.0532 183.537Z" fill="#DFE6E9"/>
<path d="M51.772 175.815C56.7445 181.601 59.9815 188.81 60.976 196.414C61.0345 196.789 61.6195 196.789 61.561 196.414C60.5275 188.632 57.271 181.305 52.1815 175.38C51.928 175.104 51.5185 175.518 51.772 175.815Z" fill="#DFE6E9"/>
<path d="M63.7067 189.778C64.6232 186.499 65.9102 183.359 67.5677 180.377C67.7432 180.041 67.2557 179.745 67.0607 180.081C65.3837 183.102 64.0772 186.302 63.1411 189.62C63.0241 189.995 63.5897 190.153 63.7067 189.778Z" fill="#DFE6E9"/>
<path d="M51.9664 165.051C58.7914 163.708 65.7724 163.194 72.6364 164.517C75.8344 165.13 78.9934 165.841 82.2304 166.216C85.6429 166.611 89.0944 166.769 92.5264 166.907C92.8969 166.927 92.8969 166.334 92.5264 166.315C89.0944 166.157 85.6429 166.018 82.2304 165.623C78.6814 165.209 75.2104 164.359 71.6809 163.747C65.0899 162.602 58.3234 163.214 51.8104 164.498C51.4399 164.557 51.5959 165.13 51.9664 165.051Z" fill="#DFE6E9"/>
<path d="M77.6881 188.534C81.5881 187.902 85.4881 187.25 89.4271 187.013C93.4246 186.776 97.2856 187.112 101.205 187.842C104.793 188.514 108.264 188.83 111.93 188.751C115.733 188.652 119.574 188.474 123.279 189.482C123.65 189.58 123.806 189.008 123.435 188.909C119.847 187.921 116.162 188.04 112.476 188.139C110.526 188.198 108.557 188.218 106.607 188.06C104.598 187.902 102.609 187.487 100.64 187.131C96.8566 186.44 93.0931 186.183 89.2321 186.42C85.3126 186.677 81.4126 187.309 77.5321 187.941C77.1616 188.02 77.3176 188.593 77.6881 188.534Z" fill="#DFE6E9"/>
<path d="M184.879 193.254C192.191 192.187 199.543 191.555 206.933 191.397C214.129 191.239 221.324 191.536 228.52 191.694C228.89 191.694 228.89 191.101 228.52 191.101C221.207 190.943 213.875 190.647 206.543 190.825C199.231 191.002 191.957 191.634 184.723 192.681C184.352 192.74 184.508 193.293 184.879 193.254Z" fill="#DFE6E9"/>
<path d="M217.288 197.5C220.077 196.295 223.079 197.757 225.946 197.619C226.55 197.579 227.175 197.5 227.76 197.303C228.559 197.026 229.3 196.592 230.158 196.552C231.64 196.473 233.024 197.046 234.507 196.809C234.877 196.75 234.721 196.177 234.351 196.236C232.693 196.513 231.074 195.683 229.436 196.058C228.695 196.216 228.032 196.611 227.311 196.829C226.57 197.026 225.809 197.066 225.049 197.046C222.338 196.927 219.628 195.881 216.976 197.026C216.664 197.125 216.957 197.638 217.288 197.5Z" fill="#DFE6E9"/>
<path d="M256.736 175.676C261.65 174.195 266.564 174.235 271.595 174.847C276.333 175.42 281.111 176.17 285.869 175.321C286.239 175.262 286.083 174.689 285.713 174.748C280.76 175.637 275.787 174.728 270.854 174.175C265.998 173.622 261.26 173.682 256.561 175.123C256.229 175.222 256.366 175.795 256.736 175.676Z" fill="#DFE6E9"/>
<path d="M237.139 62.7458C233.512 60.7708 231.152 56.9393 231.698 52.6931C232.186 48.8023 235.267 45.4448 239.03 44.5363C242.872 43.6278 247.162 45.4646 249.248 48.8418C251.491 52.4561 251.003 57.2356 248.254 60.4351C245.134 64.0691 239.674 64.6221 235.735 62.0546C235.423 61.8373 235.13 62.3508 235.442 62.5681C239.108 64.9776 244.178 64.8196 247.571 61.9558C250.945 59.1118 252.193 54.1743 250.516 50.0466C248.917 46.1163 244.822 43.5488 240.629 43.7266C236.495 43.9241 232.751 46.9458 231.503 50.9156C229.943 55.8333 232.556 60.8893 236.866 63.2396C237.178 63.4371 237.47 62.9236 237.139 62.7458Z" fill="#DFE6E9"/>
<path d="M68.8342 105.939C70.8232 104.142 73.6117 105.366 75.0937 107.183C75.8542 108.111 76.3027 109.158 76.8877 110.185C77.2582 110.876 77.8043 111.568 78.6233 111.726C79.2668 111.844 79.7932 111.607 80.2222 111.133C80.4952 110.817 80.6707 110.402 80.9437 110.086C81.5287 109.395 82.2893 109.474 82.9133 110.027C84.2783 111.232 84.3367 114.214 86.7352 113.997C87.1057 113.957 87.1057 113.365 86.7352 113.404C84.2392 113.641 84.5318 109.395 82.1333 108.98C81.4313 108.862 80.8657 109.178 80.4367 109.731C80.1637 110.086 79.9882 110.58 79.6372 110.876C78.6232 111.726 77.7262 110.541 77.3167 109.731C76.3222 107.874 75.3472 105.939 73.3777 104.971C71.7592 104.181 69.7897 104.26 68.4247 105.504C68.1517 105.761 68.5612 106.196 68.8342 105.939Z" fill="#DFE6E9"/>
<path d="M200.089 79.3555C199.699 78.289 199.231 77.025 199.933 75.9782C200.576 75.05 201.668 75.524 202.585 75.2277C203.794 74.8327 204.535 73.628 204.866 72.4627C205.256 71.1 204.788 69.3225 205.588 68.1177C206.563 66.6365 208.669 68.4535 209.995 67.545C210.307 67.3277 210.014 66.8142 209.702 67.0315C208.357 67.9597 206.524 66.0637 205.256 67.5845C204.242 68.7892 204.71 70.626 204.379 72.048C204.145 73.0355 203.618 74.0822 202.702 74.5562C201.902 74.971 200.986 74.5562 200.186 74.971C198.47 75.8597 199.016 78.0717 199.543 79.5135C199.64 79.8492 200.206 79.711 200.089 79.3555Z" fill="#DFE6E9"/>
<path d="M202.195 65.5108C201.825 64.5233 202.039 63.3975 202.761 62.6075C203.658 61.62 204.691 62.015 205.803 61.62C206.466 61.383 206.856 60.8103 207.109 60.1783C207.265 59.7833 207.363 59.3685 207.499 58.9735C207.616 58.6575 207.753 58.302 207.987 58.065C208.338 57.7292 209.176 57.4527 209.391 58.2032C209.508 58.5587 210.054 58.4205 209.956 58.0452C209.703 57.2157 208.747 56.9195 208.006 57.3145C206.602 58.0452 207.109 60.2178 205.803 60.9485C205.081 61.3435 204.184 61.1065 203.424 61.4225C202.936 61.6398 202.507 61.9953 202.176 62.41C201.454 63.3383 201.22 64.5628 201.63 65.6688C201.747 66.0243 202.312 65.8663 202.195 65.5108Z" fill="#DFE6E9"/>
<path d="M218.615 86.6039C218.03 85.7546 218.205 84.5499 218.966 83.8389C219.843 83.0094 221.111 83.3846 221.715 84.3326C223.1 86.4459 220.038 88.3024 218.576 86.5446C218.322 86.2484 217.913 86.6829 218.166 86.9594C219.005 87.9666 220.565 88.0851 221.637 87.3741C222.846 86.5841 222.944 84.9844 222.105 83.8586C221.286 82.7526 219.765 82.3774 218.673 83.2859C217.64 84.1351 217.328 85.7546 218.108 86.8804C218.322 87.2161 218.829 86.9199 218.615 86.6039Z" fill="#DFE6E9"/>
<path d="M220.818 89.8824C220.272 89.1121 219.59 88.1839 219.824 87.1964C220.175 85.7349 221.891 86.1101 222.671 86.9791C223.314 87.7099 223.548 88.8554 222.729 89.5466C222.105 90.0799 221.15 90.1786 220.584 89.5466C220.331 89.2701 219.921 89.6849 220.175 89.9614C220.955 90.8106 222.281 90.7316 223.119 90.0009C224.114 89.1319 223.997 87.6901 223.217 86.7224C222.437 85.7349 220.662 85.0239 219.687 86.1496C218.595 87.4136 219.512 89.0529 220.311 90.1786C220.526 90.4946 221.033 90.1984 220.818 89.8824Z" fill="#DFE6E9"/>
<path d="M89.6799 131.041C91.8639 131.713 94.0869 132.108 96.3489 132.187C96.7194 132.207 96.7194 131.614 96.3489 131.594C94.1259 131.515 91.9419 131.14 89.8359 130.469C89.4654 130.35 89.3094 130.923 89.6799 131.041Z" fill="#DFE6E9"/>
<path d="M235.929 115.241C249.189 115.143 261.669 120.159 274.188 123.872C277.776 124.939 281.403 125.906 285.069 126.637C285.44 126.716 285.596 126.143 285.225 126.064C272.219 123.457 259.953 117.868 246.869 115.597C243.261 114.965 239.595 114.609 235.929 114.649C235.559 114.649 235.559 115.241 235.929 115.241Z" fill="#DFE6E9"/>
<path d="M105.573 29.6053C106.256 31.2643 107.094 34.9378 109.551 33.2985C110.37 32.7653 111.579 31.205 112.457 32.469C112.983 33.2195 113.022 34.207 114.017 34.5428C114.368 34.6613 114.524 34.0885 114.173 33.97C113.256 33.654 113.256 32.232 112.515 31.6593C112.028 31.284 111.423 31.3038 110.897 31.5803C110.117 31.9555 109.551 32.8048 108.732 33.0813C107.27 33.575 106.529 30.3953 106.139 29.4473C105.983 29.1115 105.417 29.2498 105.573 29.6053Z" fill="#DFE6E9"/>
<path d="M111.637 29.9607C112.729 29.1115 114.328 29.5065 114.874 30.7902C115.206 31.6 115.459 32.074 116.395 32.1332C116.844 32.153 117.331 31.995 117.78 32.074C118.716 32.232 118.716 33.0615 118.872 33.8317C119.028 34.602 119.379 35.2735 120.198 35.3722C120.568 35.4117 120.568 34.8192 120.198 34.7797C119.125 34.6612 119.574 32.4295 118.735 31.7975C117.838 31.126 116.493 32.0147 115.791 31.1852C115.459 30.7902 115.362 30.257 115.011 29.862C114.738 29.5262 114.367 29.2892 113.958 29.1312C113.08 28.7757 112.105 28.8942 111.364 29.467C111.033 29.6842 111.325 30.1977 111.637 29.9607Z" fill="#DFE6E9"/>
<path d="M129.187 48.585C130.416 48.8418 131.722 48.0518 132.054 46.7878C132.366 45.6028 131.605 44.477 130.494 44.1018C127.9 43.213 126.457 46.8273 128.563 48.3085C128.875 48.5258 129.168 48.0123 128.856 47.795C127.374 46.7483 128.29 44.1215 130.182 44.6153C131.001 44.8325 131.683 45.583 131.527 46.4718C131.352 47.479 130.338 48.2098 129.343 47.9925C128.973 47.9333 128.817 48.506 129.187 48.585Z" fill="#DFE6E9"/>
<path d="M131.078 49.5924C130.61 49.2171 130.044 48.8024 129.849 48.1901C129.576 47.3606 130.356 46.3731 131.273 46.6101C131.916 46.7879 132.365 47.5384 132.209 48.2099C132.014 48.9604 131.175 49.3356 130.473 49.1579C130.103 49.0591 129.947 49.6319 130.317 49.7306C131.273 49.9676 132.326 49.5134 132.716 48.5654C133.086 47.6371 132.579 46.5114 131.682 46.1164C130.785 45.7411 129.752 46.2349 129.362 47.1039C128.816 48.3086 129.81 49.3159 130.688 50.0071C130.941 50.2441 131.37 49.8294 131.078 49.5924Z" fill="#DFE6E9"/>
<path d="M92.1754 88.5986C91.2784 87.7889 91.1029 86.5644 91.9804 85.6559C92.7409 84.8856 93.8719 84.9054 94.5934 85.7151C96.0949 87.4136 93.9304 89.6256 92.1559 88.4604C91.8439 88.2431 91.5514 88.7566 91.8634 88.9739C92.9164 89.6651 94.3594 89.4281 95.1784 88.4801C96.0169 87.4926 95.7634 86.0114 94.8664 85.1424C93.9109 84.2339 92.4874 84.2931 91.5709 85.2214C90.4594 86.3471 90.6349 87.9864 91.7659 89.0134C92.0389 89.2701 92.4484 88.8554 92.1754 88.5986Z" fill="#DFE6E9"/>
<path d="M175.304 32.7653C176.435 30.2571 178.015 28.0253 179.965 26.1096C180.238 25.8528 179.828 25.4183 179.555 25.6948C177.566 27.6501 175.967 29.9213 174.797 32.4888C174.641 32.8048 175.148 33.1208 175.304 32.7653Z" fill="#DFE6E9"/>
<path d="M177.742 32.3704C178.912 30.9089 180.218 29.5461 181.622 28.3019C181.915 28.0451 181.486 27.6304 181.213 27.8871C179.809 29.1314 178.522 30.4941 177.332 31.9556C177.098 32.2519 177.508 32.6666 177.742 32.3704Z" fill="#DFE6E9"/>
<path d="M179.224 34.1478C179.751 33.6936 180.277 33.2591 180.804 32.8048C181.096 32.5678 180.667 32.1333 180.394 32.3901C179.868 32.8443 179.341 33.2788 178.815 33.7331C178.522 33.9701 178.932 34.3848 179.224 34.1478Z" fill="#DFE6E9"/>
<path d="M206.817 35.8857C208.389 35.8857 209.664 34.5948 209.664 33.0022C209.664 31.4097 208.389 30.1187 206.817 30.1187C205.245 30.1187 203.97 31.4097 203.97 33.0022C203.97 34.5948 205.245 35.8857 206.817 35.8857Z" fill="#1890ff"/>
<path d="M205.51 40.369C206.447 40.369 207.206 39.5997 207.206 38.6508C207.206 37.7018 206.447 36.9325 205.51 36.9325C204.573 36.9325 203.813 37.7018 203.813 38.6508C203.813 39.5997 204.573 40.369 205.51 40.369Z" fill="#1890ff"/>
<path d="M115.634 116.979C116.787 116.979 117.721 116.033 117.721 114.866C117.721 113.699 116.787 112.753 115.634 112.753C114.482 112.753 113.548 113.699 113.548 114.866C113.548 116.033 114.482 116.979 115.634 116.979Z" fill="#1890ff"/>
<path d="M119.028 122.766C119.664 122.766 120.179 122.244 120.179 121.601C120.179 120.957 119.664 120.435 119.028 120.435C118.393 120.435 117.878 120.957 117.878 121.601C117.878 122.244 118.393 122.766 119.028 122.766Z" fill="#1890ff"/>
<path d="M139.346 90.8697C139.522 92.588 140.068 94.1087 141.998 94.0692C142.661 94.0692 143.227 93.8717 143.734 94.3852C144.202 94.8592 144.065 95.3332 144.26 95.9257C144.358 96.222 144.494 96.4985 144.767 96.696C145.118 96.9527 146.444 96.9527 146.327 97.5452C146.249 97.9205 146.815 98.0785 146.893 97.7032C147.029 97.0317 146.581 96.6367 145.957 96.459C145.06 96.2022 144.845 95.8467 144.709 95.037C144.65 94.6617 144.572 94.2865 144.319 93.9705C143.812 93.3582 142.993 93.4372 142.291 93.457C141.53 93.4965 140.809 93.4372 140.399 92.6867C140.087 92.1337 140.009 91.4622 139.951 90.85C139.892 90.4945 139.307 90.4945 139.346 90.8697Z" fill="#1890ff"/>
<path d="M141.336 98.1378C142.35 97.0515 143.559 98.1575 143.871 99.2438C144.008 99.6783 144.027 100.093 144.339 100.429C145.041 101.219 146.328 100.784 146.972 101.614C147.206 101.91 147.615 101.495 147.381 101.199C146.952 100.646 146.348 100.567 145.704 100.429C145.1 100.291 144.768 100.073 144.534 99.461C144.378 99.0858 144.359 98.6908 144.144 98.3155C143.481 97.1108 141.921 96.6368 140.927 97.7033C140.654 97.9995 141.063 98.4143 141.336 98.1378Z" fill="#1890ff"/>
<path d="M210.599 96.143C210.229 95.432 211.009 94.8988 211.594 95.3333C211.769 95.4518 212.042 95.2938 212.042 95.0765C211.984 94.405 212.647 93.9113 213.271 94.1483C213.622 94.2865 213.778 93.7138 213.427 93.5755C212.452 93.2003 211.379 94.0298 211.457 95.0765C211.613 94.9975 211.75 94.8988 211.906 94.8198C210.794 94.01 209.488 95.2543 210.112 96.4393C210.268 96.775 210.775 96.4788 210.599 96.143Z" fill="#1890ff"/>
<path d="M213.914 95.8269C213.778 95.4911 214.714 95.4319 214.87 95.4319C215.357 95.4516 215.825 95.5306 216.313 95.5701C216.683 95.6096 216.683 95.0171 216.313 94.9776C215.552 94.8986 214.694 94.6814 213.953 94.9974C213.466 95.2146 213.193 95.6096 213.407 96.1231C213.544 96.4786 214.051 96.1626 213.914 95.8269Z" fill="#1890ff"/>
<path d="M112.299 119.527C113.57 119.527 114.6 118.484 114.6 117.196C114.6 115.909 113.57 114.866 112.299 114.866C111.029 114.866 109.998 115.909 109.998 117.196C109.998 118.484 111.029 119.527 112.299 119.527Z" fill="#F7FAFC"/>
<path d="M134.081 32.1727C135.794 32.1727 137.182 30.7668 137.182 29.0325C137.182 27.2981 135.794 25.8922 134.081 25.8922C132.369 25.8922 130.981 27.2981 130.981 29.0325C130.981 30.7668 132.369 32.1727 134.081 32.1727Z" fill="#F7FAFC"/>
<path d="M77.8825 153.576C80.0472 153.576 81.802 151.799 81.802 149.606C81.802 147.414 80.0472 145.637 77.8825 145.637C75.7178 145.637 73.963 147.414 73.963 149.606C73.963 151.799 75.7178 153.576 77.8825 153.576Z" fill="#F7FAFC"/>
<path d="M211.672 139.573C212.781 139.573 213.68 138.662 213.68 137.539C213.68 136.415 212.781 135.505 211.672 135.505C210.563 135.505 209.663 136.415 209.663 137.539C209.663 138.662 210.563 139.573 211.672 139.573Z" fill="#F7FAFC"/>
<path d="M189.326 185.847C193.46 184.84 197.614 183.813 201.748 182.806C204.4 183.003 208.339 183.063 213.019 182.273C217.465 181.522 225.986 179.409 225.928 177.078C225.889 175.538 222.086 174.432 215.807 172.595C211.654 171.39 208.163 170.679 205.843 170.265C203.269 171.548 200.5 172.812 197.516 174.017C193.48 175.656 189.638 176.94 186.07 177.947C187.142 180.594 188.234 183.221 189.326 185.847Z" fill="#111314" stroke="#111314" stroke-miterlimit="10"/>
<path d="M179.107 181.838C183.241 180.831 187.394 179.804 191.529 178.797C194.181 178.994 198.12 179.053 202.8 178.263C207.246 177.513 215.767 175.4 215.709 173.069C215.67 171.529 211.867 170.423 205.588 168.586C201.435 167.381 197.944 166.67 195.624 166.255C193.05 167.539 190.28 168.803 187.297 170.008C183.26 171.647 179.419 172.931 175.85 173.938C176.923 176.604 178.015 179.231 179.107 181.838Z" fill="#111314" stroke="#111314" stroke-miterlimit="10"/>
<path d="M157.775 145.36C154.089 147.375 150.911 149.606 150.365 149.982C148.493 151.305 144.125 154.406 139.796 158.928C133.4 165.604 128.018 171.213 128.369 178.323C128.681 184.722 133.458 189.166 133.985 189.64C142.506 197.342 160.719 194.538 179.108 182.668C178.445 179.133 177.801 175.617 177.138 172.082C178.776 171.746 182.481 170.739 185.855 167.52C190.047 163.51 190.983 158.652 191.217 157.072C191.198 155.275 190.983 153.161 190.379 150.87C188.526 143.839 184.119 139.396 181.779 137.361C175.715 138.428 166.589 140.581 157.775 145.36Z" fill="#F7FAFC" stroke="#111314" stroke-miterlimit="10"/>
<path d="M171.716 149.053C167.972 151.107 164.638 153.438 164.306 153.675C159.47 157.092 156.058 160.37 153.737 162.622C145.45 170.68 139.561 176.15 140.341 182.786C141.101 189.166 147.4 193.017 147.926 193.313C151.612 195.486 155.356 195.545 158.359 195.387C171.853 194.676 186.985 188.85 193.049 186.341C192.386 182.806 191.743 179.291 191.08 175.755C192.718 175.202 197.359 173.346 200.42 168.448C200.888 167.697 202.526 164.952 202.975 161.022C203.111 159.896 203.267 157.526 202.039 152.608C201.278 149.567 199.913 145.321 197.359 140.502C191.977 141.469 181.466 143.721 171.716 149.053Z" fill="#F7FAFC" stroke="#111314" stroke-miterlimit="10"/>
<path d="M169.943 179.528C177.178 179.705 184.393 178.599 191.237 176.249C191.588 176.131 191.432 175.558 191.081 175.676C184.276 178.027 177.139 179.133 169.943 178.935C169.573 178.915 169.573 179.508 169.943 179.528Z" fill="#111314"/>
<path d="M168.05 177.454C168.538 178.303 169.279 178.975 170.176 179.35C170.527 179.488 170.819 178.994 170.468 178.836C169.649 178.481 169.006 177.928 168.557 177.158C168.362 176.822 167.855 177.118 168.05 177.454Z" fill="#111314"/>
<path opacity="0.12" d="M180.336 162.819C173.55 166.67 170.04 166.038 163.293 171.371C161.538 172.773 151.281 180.89 152.588 189.126C152.705 189.817 153.309 193.688 156.156 195.209C157.365 195.861 158.555 195.821 160.212 195.703C165.77 195.268 170.06 194.202 170.586 194.063C177.411 192.345 176.261 193.056 180.96 191.772C184.061 190.923 188.253 189.58 193.128 187.506C192.485 184.05 191.822 180.614 191.178 177.157C192.602 176.486 194.552 175.36 196.541 173.543C197.984 172.22 202.098 168.467 203.034 162.542C203.541 159.363 202.917 156.933 201.903 153.003C200.87 148.994 199.427 145.873 198.335 143.8C192.251 154.603 185.426 159.955 180.336 162.819Z" fill="#2D3436"/>
<path opacity="0.11" d="M173.043 145.775C172.77 145.301 164.19 149.251 154.382 156.459C142.253 165.367 135.525 170.64 135.233 178.145C134.901 186.894 146.738 194.202 147.245 193.747C147.518 193.491 140.381 188.494 140.264 181.265C140.186 176.545 143.15 172.812 148.376 167.46C161.733 153.773 173.375 146.347 173.043 145.775Z" fill="#2D3436"/>
<path opacity="0.12" d="M200.616 150.06C199.719 153.655 197.866 158.968 193.81 164.201C185.172 175.321 172.906 177.888 169.318 178.5C169.923 179.093 170.508 179.764 171.112 180.475C174.349 184.425 175.948 188.652 176.787 191.97C182.091 190.113 187.395 188.237 192.679 186.381C191.86 183.102 191.061 179.804 190.242 176.525C191.919 175.834 194.649 174.432 197.223 171.766C198.295 170.64 200.889 167.895 202.098 163.55C203.853 157.111 201.396 151.621 200.616 150.06Z" fill="#2D3436"/>
<path d="M158.457 92.7451C160.095 92.9821 160.797 97.9393 161.031 99.5786C161.986 106.234 159.958 109.217 159.646 117.373C159.393 123.851 160.563 124.148 160.036 127.308C159.256 131.929 155.649 137.854 142.837 143.226C141.882 144.273 140.185 145.912 137.728 146.959C132.561 149.171 125.775 148.025 124.858 144.846C124.546 143.779 124.839 142.298 125.56 141.607C126.73 140.461 128.524 142.1 131.488 141.014C131.644 140.955 132.97 140.461 132.931 140.106C132.912 139.888 132.405 139.809 131.8 139.73C129.051 139.335 128.232 139.414 128.173 139.177C128.076 138.782 130.182 137.42 132.912 136.63C135.018 136.017 137.865 135.484 141.375 135.662C144.436 132.166 147.517 128.67 150.579 125.175C150.286 120.672 150.345 114.253 152.022 106.965C153.25 101.672 156.156 92.4093 158.457 92.7451Z" fill="#F7FAFC" stroke="#111314" stroke-miterlimit="10"/>
<path opacity="0.12" d="M158.535 92.6472C156.136 92.6867 153.972 102.344 153.523 109.198C152.958 117.868 155.2 120.574 153.523 125.886C152.412 129.402 149.604 133.925 142.057 138.033C136.11 143.069 132.151 143.602 129.538 142.97C127.939 142.595 125.95 141.548 125.053 142.437C124.293 143.187 124.644 145.044 125.443 146.308C127.354 149.251 133.107 148.54 136.383 147.374C139.425 146.288 141.433 144.392 142.584 143.108C145.255 142.378 151.495 140.264 156.682 134.3C161.733 128.493 162.922 122.312 163.527 118.954C165.847 106.176 161.46 92.5879 158.535 92.6472Z" fill="#2D3436"/>
<path d="M202.144 94.3802L202.144 94.381C203.364 97.2938 203.623 99.8879 203.401 102.998C203.254 105.045 202.903 107.288 202.48 109.985C202.253 111.432 202.006 113.009 201.759 114.757L201.759 114.757C200.807 121.542 199.779 131.296 199.765 143.473C197.318 145.331 187.676 152.15 174.691 150.355L174.691 150.355C166.428 149.219 160.71 145.151 158.053 142.942C158.473 139.751 158.867 134.926 158.37 129.122L158.37 129.121C157.996 124.916 157.307 121.989 156.669 119.303L156.655 119.244C156.025 116.586 155.452 114.173 155.271 110.947C155.042 106.867 155.38 100.849 158.454 93.2905C160.209 92.0847 162.666 90.5103 165.715 88.8605C170.601 86.2179 174.528 84.0959 178.079 82.8078C181.614 81.5253 184.738 81.0843 188.013 81.7801C194.747 83.2172 199.904 89.0101 202.144 94.3802Z" fill="#F7FAFC" stroke="#111314"/>
<path opacity="0.14" d="M181.369 90.5142C183.163 95.3727 185.698 104.379 184.353 115.518C182.11 134.023 170.664 145.459 167.115 148.737C169.962 149.883 175.851 151.779 183.358 150.91C191.841 149.922 197.652 145.933 200.089 144.037C199.875 135.821 200.362 128.987 200.908 123.911C202.585 108.625 205.608 103.115 202.39 94.7209C201.63 92.7262 199.075 86.0507 192.621 82.9697C190.924 82.1599 189.384 81.8044 188.311 81.6267C187.921 83.0289 187.024 85.5372 184.84 87.8282C183.631 89.1317 182.364 89.9612 181.369 90.5142Z" fill="#2D3436"/>
<path opacity="0.21" d="M203.073 97.565C197.945 111.667 192.797 125.748 187.668 139.85C183.203 143.543 178.718 147.236 174.252 150.93C177.587 151.226 182.891 151.246 188.994 149.429C194.064 147.908 197.906 145.656 200.421 143.899C200.363 141.805 200.324 138.724 200.421 135.011C200.694 125.689 200.811 121.028 202.079 115.38C203.249 110.166 204.828 106.196 203.736 100.271C203.522 99.0858 203.268 98.1575 203.073 97.565Z" fill="#2D3436"/>
<path d="M120.452 138.349C122.773 144.037 125.113 149.725 127.433 155.393C136.871 152.075 146.329 148.737 155.767 145.419C153.505 139.949 151.243 134.458 149 128.987C139.484 132.108 129.968 135.228 120.452 138.349Z" fill="#F7FAFC" stroke="#111314" stroke-miterlimit="10"/>
<path d="M117.41 119.547C120.569 121.877 124.352 125.136 128.076 129.521C131.099 133.076 133.361 136.532 135.057 139.494C138.762 133.668 142.448 127.842 146.153 122.035C141.843 117.177 137.534 112.338 133.224 107.48C127.94 111.509 122.675 115.518 117.41 119.547Z" fill="#F7FAFC" stroke="#111314" stroke-miterlimit="10"/>
<path d="M100.328 92.4498C100.328 97.7823 100.328 103.115 100.328 108.467C104.364 106.453 108.401 104.438 112.437 102.443C115.109 101.12 117.78 99.7968 120.452 98.4933C119.691 94.6025 118.95 90.7315 118.19 86.8408C112.242 88.6973 106.295 90.5735 100.328 92.4498Z" fill="#F7FAFC" stroke="#111314" stroke-miterlimit="10"/>
<path d="M88.5696 58.4008C90.5586 63.1803 92.5476 67.9598 94.5171 72.7393C101.557 68.651 108.616 64.5628 115.655 60.4745C112.711 54.7866 109.766 49.0986 106.822 43.4303C104.969 45.6028 102.727 47.9531 100.055 50.2836C95.9796 53.8781 91.9821 56.4851 88.5696 58.4008Z" fill="#F7FAFC" stroke="#111314" stroke-miterlimit="10"/>
<path d="M59.4171 64.6418C58.7931 68.3153 58.1886 71.9888 57.5646 75.6623C64.7406 74.0033 71.9361 72.3443 79.1121 70.6655C78.9756 66.6365 78.8391 62.6273 78.7026 58.5983C72.2871 60.6128 65.8521 62.6273 59.4171 64.6418Z" fill="#F7FAFC" stroke="#111314" stroke-miterlimit="10"/>
<path d="M120.666 138.842C127.413 139.85 134.102 141.114 140.732 142.634C141.102 142.713 141.258 142.141 140.888 142.062C134.238 140.541 127.55 139.257 120.822 138.27C120.452 138.23 120.296 138.803 120.666 138.842Z" fill="#111314"/>
<path d="M148.61 129.264C146.445 133.826 143.813 138.151 140.751 142.141C140.517 142.437 140.927 142.852 141.161 142.556C144.261 138.527 146.933 134.162 149.117 129.56C149.273 129.224 148.766 128.928 148.61 129.264Z" fill="#111314"/>
<path d="M122.246 120.732C125.522 117.216 129.169 114.076 133.147 111.39C133.459 111.173 133.166 110.659 132.854 110.877C128.837 113.602 125.152 116.762 121.837 120.317C121.564 120.574 121.993 121.008 122.246 120.732Z" fill="#111314"/>
<path d="M125.073 122.509C127.53 119.764 130.241 117.276 133.166 115.083C133.458 114.866 133.166 114.353 132.873 114.57C129.89 116.802 127.14 119.31 124.664 122.095C124.391 122.371 124.8 122.786 125.073 122.509Z" fill="#111314"/>
<path d="M127.53 125.827C130.709 122.213 134.199 118.875 137.982 115.893C138.275 115.656 137.865 115.241 137.573 115.478C133.809 118.461 130.299 121.779 127.121 125.413C126.867 125.689 127.296 126.104 127.53 125.827Z" fill="#111314"/>
<path d="M131.704 129.837C132.815 128.02 134.297 126.479 135.76 124.939C137.359 123.299 138.958 121.64 140.557 120.001C140.83 119.724 140.401 119.31 140.147 119.586C138.47 121.324 136.793 123.043 135.116 124.781C133.673 126.262 132.289 127.783 131.197 129.54C131.002 129.856 131.509 130.153 131.704 129.837Z" fill="#111314"/>
<path d="M126.653 147.019C127.004 148.638 127.589 150.159 128.389 151.581C128.564 151.917 129.071 151.621 128.896 151.285C128.116 149.883 127.55 148.421 127.219 146.861C127.141 146.486 126.575 146.644 126.653 147.019Z" fill="#111314"/>
<path d="M127.121 147.375C129.071 146.19 131.177 145.459 133.419 145.143C133.302 145.084 133.185 145.005 133.068 144.945C133.458 146.229 133.829 147.493 134.219 148.777C134.336 149.132 134.901 148.994 134.784 148.619C134.394 147.335 134.024 146.071 133.634 144.787C133.575 144.61 133.439 144.55 133.283 144.59C130.982 144.906 128.837 145.676 126.848 146.881C126.497 147.059 126.789 147.572 127.121 147.375Z" fill="#111314"/>
<path d="M128.759 151.818C130.612 151.048 132.425 150.179 134.219 149.251C134.551 149.073 134.258 148.56 133.927 148.737C132.191 149.646 130.417 150.475 128.603 151.246C128.252 151.404 128.408 151.976 128.759 151.818Z" fill="#111314"/>
<path d="M143.676 142.911C145.821 141.746 148.103 140.936 150.482 140.442C150.852 140.363 150.696 139.791 150.326 139.87C147.888 140.363 145.568 141.213 143.384 142.398C143.033 142.575 143.345 143.089 143.676 142.911Z" fill="#111314"/>
<path d="M144.378 144.61C145.685 144.037 146.991 143.464 148.278 142.891C148.629 142.733 148.317 142.22 147.986 142.378C146.679 142.951 145.373 143.523 144.086 144.096C143.735 144.254 144.047 144.748 144.378 144.61Z" fill="#111314"/>
<path d="M102.084 94.5236C106.725 92.9633 111.366 91.0674 116.182 90.1194C116.553 90.0404 116.397 89.4676 116.026 89.5466C111.229 90.5144 106.569 92.3906 101.928 93.9508C101.577 94.0693 101.733 94.6421 102.084 94.5236Z" fill="#111314"/>
<path d="M102.005 97.0713C106.451 94.9976 111.053 93.3189 115.772 92.0549C116.143 91.9561 115.987 91.3834 115.616 91.4821C110.839 92.7659 106.198 94.4644 101.713 96.5579C101.381 96.7159 101.674 97.2293 102.005 97.0713Z" fill="#111314"/>
<path d="M101.654 99.6388C103.604 98.8291 105.515 97.9601 107.407 97.0318C107.738 96.8738 107.446 96.3603 107.114 96.5183C105.262 97.4268 103.39 98.2761 101.498 99.0661C101.167 99.2043 101.303 99.7771 101.654 99.6388Z" fill="#111314"/>
<path d="M102.726 101.772C106.841 99.6585 111.053 97.723 115.343 96.0048C115.694 95.8665 115.538 95.2938 115.187 95.432C110.838 97.17 106.587 99.1253 102.434 101.258C102.083 101.436 102.395 101.95 102.726 101.772Z" fill="#111314"/>
<path d="M91.0465 59.6253C96.5845 56.8998 101.732 53.4633 106.412 49.4344C106.705 49.1776 106.276 48.7629 106.003 49.0196C101.362 53.0288 96.2335 56.4061 90.754 59.1316C90.403 59.2896 90.6955 59.8031 91.0465 59.6253Z" fill="#111314"/>
<path d="M92.2353 62.1928C94.5558 60.8301 96.7788 59.3291 98.9238 57.6898C99.2163 57.4726 98.9238 56.9393 98.6313 57.1763C96.4863 58.8156 94.2633 60.3166 91.9428 61.6793C91.6113 61.8768 91.9038 62.3903 92.2353 62.1928Z" fill="#111314"/>
<path d="M93.7175 63.9901C98.7095 61.2843 103.506 58.2823 108.128 54.9643C108.44 54.7471 108.147 54.2336 107.835 54.4508C103.233 57.7688 98.417 60.7708 93.425 63.4766C93.0935 63.6543 93.386 64.1678 93.7175 63.9901Z" fill="#111314"/>
<path d="M94.9649 67.0513C100.483 64.5233 105.748 61.4818 110.701 57.9268C111.013 57.7096 110.721 57.1961 110.409 57.4133C105.475 60.9683 100.21 64.0098 94.6724 66.5378C94.3214 66.6958 94.6139 67.1896 94.9649 67.0513Z" fill="#111314"/>
<path opacity="0.13" d="M122.09 116.268C124.176 115.794 126.263 115.32 128.349 114.846C131.313 121.166 134.277 127.486 137.241 133.787C140.205 129.896 143.169 126.025 146.133 122.134C141.765 117.374 137.397 112.595 133.049 107.835C129.383 110.659 125.736 113.464 122.09 116.268Z" fill="#2D3436"/>
<path opacity="0.21" d="M106.763 91.0673C105.671 96.1431 104.579 101.239 103.487 106.314C109.064 103.609 114.641 100.883 120.238 98.1773C119.419 94.5828 118.619 90.9686 117.8 87.3741C114.114 88.6183 110.429 89.8428 106.763 91.0673Z" fill="#2D3436"/>
<path opacity="0.08" d="M131.918 134.932C133.01 137.618 134.102 140.304 135.194 142.99C137.007 143.405 138.801 143.82 140.615 144.215C142.584 145.597 144.534 146.999 146.504 148.382C149.487 147.335 152.49 146.288 155.474 145.261C153.192 140.028 150.93 134.774 148.649 129.54C145.665 130.449 142.662 131.377 139.679 132.286C138.119 134.814 136.559 137.342 134.999 139.87C133.965 138.211 132.951 136.571 131.918 134.932Z" fill="#2D3436"/>
<path opacity="0.15" d="M63.0831 64.8788C62.1471 68.1771 61.2306 71.4951 60.2946 74.7933C66.5151 73.3318 72.7355 71.8703 78.956 70.4088C78.7415 66.6168 78.5465 62.8248 78.332 59.0328C73.2425 60.9881 68.153 62.9433 63.0831 64.8788Z" fill="#2D3436"/>
<path opacity="0.11" d="M97.4026 53.6016C98.1241 64.2666 98.6701 69.5794 99.0601 69.5794C99.1771 69.5794 99.2746 69.0461 99.3721 68.0191C104.481 65.4121 109.61 62.8051 114.719 60.1981C112.145 55.3199 109.571 50.4614 106.997 45.5831C103.779 48.2494 100.581 50.9354 97.4026 53.6016Z" fill="#2D3436"/>
<path d="M198.158 89.2503C200.79 88.8948 203.988 96.6368 205.353 101.258C207.654 109.079 206.835 115.933 206.055 122.292C205.217 129.066 204.807 132.463 203.208 136.018C198.041 147.513 185.054 151.917 179.964 153.339C178.58 154.366 176.103 156.005 172.691 157.072C165.456 159.323 155.96 158.356 154.653 154.583C154.224 153.319 154.634 151.581 155.628 150.772C157.286 149.429 159.762 151.344 163.935 150.061C164.15 150.001 166.002 149.409 165.944 148.994C165.905 148.737 165.222 148.658 164.364 148.56C160.523 148.105 159.372 148.184 159.294 147.908C159.177 147.434 162.122 145.854 165.924 144.906C168.888 144.175 172.866 143.543 177.78 143.76C182.577 139.297 187.374 134.814 192.171 130.35C192.132 119.448 192.99 110.462 193.868 103.865C195.701 90.4748 197.28 89.3688 198.158 89.2503Z" fill="#F7FAFC" stroke="#111314" stroke-miterlimit="10"/>
<path d="M154.362 154.425C155.103 155.235 156.468 155.472 157.462 155.768C158.925 156.183 160.426 156.499 161.947 156.697C162.318 156.756 162.474 156.183 162.103 156.124C160.836 155.946 159.568 155.709 158.32 155.373C157.248 155.097 155.532 154.86 154.771 153.991C154.518 153.734 154.108 154.149 154.362 154.425Z" fill="#111314"/>
<path d="M154.691 152.628C157.129 154.149 159.859 154.998 162.725 155.136C163.096 155.156 163.096 154.564 162.725 154.544C159.956 154.425 157.343 153.596 154.984 152.115C154.672 151.917 154.36 152.43 154.691 152.628Z" fill="#111314"/>
<path d="M155.726 151.245C158.456 152.648 161.42 153.379 164.482 153.379C164.852 153.379 164.852 152.786 164.482 152.786C161.518 152.786 158.651 152.095 156.019 150.732C155.687 150.554 155.395 151.068 155.726 151.245Z" fill="#111314"/>
<path opacity="0.15" d="M197.145 90.1181C198.9 93.9891 201.221 100.27 201.903 108.308C202.41 114.332 203.249 124.602 197.145 134.832C191.139 144.885 182.033 148.874 178.659 150.336C175.266 151.817 169.572 154.227 162.182 153.437C159.198 153.121 156.78 152.37 155.103 151.718C154.733 152.548 154.382 153.733 154.791 154.819C156.117 158.354 164.385 158.295 168.831 157.604C171.308 157.229 175.422 156.221 180.024 153.121C185.562 151.462 199.329 146.524 203.463 135.365C204.672 132.107 205.394 127.426 205.784 124.878C206.33 121.284 207.129 115.892 206.622 108.94C206.622 108.94 205.881 98.8871 200.382 90.6513C200.129 90.2563 199.544 89.4268 198.686 89.3676C198.023 89.3281 197.438 89.8218 197.145 90.1181Z" fill="#2D3436"/>
<path opacity="0.09" d="M206.232 116.545C205.647 116.446 204.399 123.003 203.073 127.131C200.772 134.28 195.156 143.74 180.258 153.122C183.631 152.351 188.428 150.732 193.245 147.236C195.682 145.459 199.797 142.476 202.644 136.966C204.613 133.154 205.14 129.738 205.803 125.314C206.407 121.423 206.719 116.624 206.232 116.545Z" fill="#2D3436"/>
<path d="M153.313 59.03C153.15 59.7888 153.117 60.5641 153.15 62.0816C153.182 63.4672 153.28 66.5024 154.55 70.2138C155.235 72.2263 156.13 74.849 158.427 77.5543C158.427 77.5543 161.684 81.3647 166.505 82.8988C167.84 83.3277 168.899 83.4431 170.006 83.2122C171.277 82.9648 172.189 82.3379 172.694 81.9256C172.971 82.3709 173.361 83.0967 173.557 84.0699C173.866 85.571 173.427 86.2308 173.932 87.3855C174.046 87.6494 174.485 88.5897 175.495 89.101C176.521 89.6124 177.531 89.365 178.41 89.1505C179.062 88.9856 180.511 88.5402 181.651 87.2206C182.042 86.7587 182.661 86.0494 182.677 85.0762C182.677 84.4329 182.417 83.9545 182.303 83.74C182.026 83.2287 181.651 81.8266 180.902 79.0224C180.397 77.1419 180.462 75.6408 180.576 72.6552C180.642 71.1376 180.804 69.1252 181.277 66.7663C181.602 66.9478 182.221 67.2117 182.954 67.0797C184.241 66.8488 184.876 65.5457 185.169 64.9353C185.251 64.7704 186.619 61.8177 184.958 59.7393C184.795 59.5413 183.475 57.9413 181.993 58.4032C180.918 58.7331 180.495 59.9207 180.43 60.1187C180.088 59.7063 179.746 59.2279 179.404 58.6671C178.573 57.265 178.182 55.9289 178.003 54.9226C174.713 55.0711 172.124 54.6917 170.348 54.3288C166.684 53.57 165.56 52.6133 162.335 52.5803C160.365 52.5473 158.02 52.5308 156.049 54.1309C153.997 55.8299 153.459 58.3372 153.313 59.03Z" fill="#F7FAFC"/>
<path d="M152.955 60.5475C152.662 66.9807 154.372 73.6448 158.916 78.346C160.903 80.4079 163.346 82.0409 166.066 82.9317C167.466 83.3935 169.03 83.7729 170.479 83.3441C171.978 82.8822 173.378 81.8595 174.665 80.9522C177.58 78.8903 180.17 76.1356 180.886 72.5066C180.951 72.1932 180.479 72.0612 180.414 72.3746C179.779 75.5747 177.629 78.0985 175.105 80.0285C173.916 80.9357 172.629 81.81 171.293 82.4863C169.73 83.2781 168.183 83.0801 166.554 82.5853C161.082 80.9192 156.88 76.317 154.926 70.9725C153.72 67.657 153.297 64.094 153.46 60.564C153.46 60.234 152.971 60.234 152.955 60.5475Z" fill="#111314"/>
<path d="M172.694 82.2555C173.215 83.6906 173.557 85.1586 173.736 86.6927C173.769 87.0061 174.257 87.0061 174.225 86.6927C174.046 85.1257 173.704 83.6081 173.166 82.14C173.052 81.8266 172.58 81.9585 172.694 82.2555Z" fill="#111314"/>
<path d="M180.381 72.9521C180.218 74.915 180.316 76.8945 180.674 78.8409C180.869 79.8472 181.13 80.8369 181.456 81.8101C181.814 82.8658 182.352 83.938 182.286 85.0762C182.172 86.9567 180.479 88.3258 178.834 88.8536C177.058 89.431 173.915 89.1176 174.143 86.5278C174.176 86.2144 173.687 86.2144 173.654 86.5278C173.492 88.4412 175.283 89.5959 176.977 89.6454C178.834 89.6784 180.821 88.7711 181.961 87.2701C183.426 85.3071 182.449 83.3277 181.798 81.2493C180.935 78.577 180.641 75.7728 180.869 72.9686C180.886 72.6387 180.397 72.6387 180.381 72.9521Z" fill="#111314"/>
<path d="M173.248 82.1895C175.544 80.9688 177.466 79.1708 178.818 76.9439C178.981 76.68 178.557 76.4161 178.394 76.6965C177.075 78.8739 175.219 80.5894 172.987 81.7771C172.727 81.9256 172.971 82.3379 173.248 82.1895Z" fill="#111314"/>
<path d="M173.28 82.4864C174.697 81.7771 175.869 80.7379 176.977 79.5997C178.003 78.544 178.948 77.4224 179.518 76.0367C179.632 75.7398 179.159 75.6079 179.045 75.9048C178.475 77.2904 177.465 78.3956 176.439 79.4513C175.43 80.4905 174.338 81.4142 173.035 82.0576C172.742 82.1895 172.987 82.6184 173.28 82.4864Z" fill="#111314"/>
<path d="M173.426 82.7834C176.244 81.1998 178.491 78.7915 179.827 75.8224C179.957 75.5419 179.534 75.278 179.403 75.5749C178.1 78.4616 175.918 80.8205 173.182 82.3545C172.905 82.503 173.166 82.9318 173.426 82.7834Z" fill="#111314"/>
<path d="M162.45 62.6424C162.483 65.5951 162.711 68.5313 163.101 71.4509C163.118 71.5994 163.346 71.6819 163.46 71.5994C164.437 70.8736 165.3 70.0488 166.098 69.1251C166.31 68.8777 165.952 68.5313 165.756 68.7787C164.991 69.6694 164.16 70.4777 163.215 71.187C163.329 71.2365 163.46 71.286 163.574 71.3355C163.183 68.4653 162.971 65.5621 162.939 62.6589C162.939 62.3125 162.45 62.3125 162.45 62.6424Z" fill="#111314"/>
<path d="M158.703 66.4693C158.313 66.2714 158.003 65.9745 157.824 65.5621C157.677 65.2487 157.4 64.061 158.117 64.2589C158.524 64.3744 158.85 65.0177 158.964 65.3806C159.029 65.5786 159.094 65.826 159.045 66.0405C159.062 66.2714 158.948 66.4363 158.703 66.5188C158.589 66.4363 158.508 66.3374 158.427 66.2219C158.231 65.9745 157.889 66.3209 158.084 66.5683C158.589 67.2281 159.371 67.1292 159.518 66.2549C159.664 65.3641 159.208 64.4239 158.508 63.9125C157.775 63.3847 157.205 63.8466 157.172 64.6878C157.14 65.6116 157.677 66.4528 158.475 66.8652C158.736 67.0467 158.98 66.6178 158.703 66.4693Z" fill="#111314"/>
<path d="M157.531 64.4734C157.711 65.3311 158.118 66.0899 158.72 66.7167C158.9 66.9146 159.176 66.7002 159.128 66.4693C158.981 65.6775 158.216 65.0672 158.281 64.2424C158.134 64.3084 158.004 64.3579 157.857 64.4239C158.33 64.9847 158.606 65.6115 158.737 66.3373C158.818 66.2383 158.9 66.1229 158.965 66.0239C158.46 66.0239 158.167 65.5455 157.939 65.1662C157.776 64.9022 157.352 65.1497 157.515 65.4136C157.841 65.9579 158.264 66.5188 158.965 66.5188C159.144 66.5188 159.225 66.3538 159.193 66.2054C159.062 65.3971 158.704 64.6878 158.199 64.0775C158.053 63.896 157.792 64.061 157.776 64.2589C157.711 65.1662 158.492 65.76 158.639 66.6177C158.769 66.5353 158.916 66.4528 159.046 66.3703C158.492 65.793 158.15 65.1167 157.971 64.3414C157.939 64.028 157.466 64.16 157.531 64.4734Z" fill="#111314"/>
<path d="M170.658 65.0343C170.267 64.8364 169.958 64.5394 169.779 64.1271C169.632 63.8137 169.355 62.626 170.072 62.8239C170.479 62.9394 170.805 63.5827 170.919 63.9456C170.984 64.1436 171.049 64.391 171 64.6054C171.017 64.8364 170.903 65.0013 170.658 65.0838C170.544 65.0013 170.463 64.9023 170.381 64.7869C170.186 64.5394 169.844 64.8858 170.039 65.1333C170.544 65.7931 171.326 65.6941 171.473 64.8199C171.619 63.9291 171.163 62.9889 170.463 62.4775C169.73 61.9497 169.16 62.4116 169.127 63.2528C169.095 64.1766 169.632 65.0178 170.43 65.4302C170.691 65.6116 170.935 65.1828 170.658 65.0343Z" fill="#111314"/>
<path d="M169.469 63.0218C169.648 63.8796 170.056 64.6384 170.658 65.2652C170.837 65.4631 171.114 65.2487 171.065 65.0178C170.919 64.226 170.153 63.6157 170.218 62.7909C170.072 62.8569 169.942 62.9064 169.795 62.9723C170.267 63.5332 170.544 64.16 170.674 64.8858C170.756 64.7868 170.837 64.6714 170.902 64.5724C170.398 64.5724 170.104 64.094 169.876 63.7146C169.714 63.4507 169.29 63.6981 169.453 63.9621C169.779 64.5064 170.202 65.0672 170.902 65.0672C171.082 65.0672 171.163 64.9023 171.13 64.7538C171 63.9456 170.642 63.2363 170.137 62.6259C169.99 62.4445 169.73 62.6094 169.714 62.8074C169.648 63.7146 170.43 64.3085 170.577 65.1662C170.707 65.0837 170.854 65.0013 170.984 64.9188C170.43 64.3415 170.088 63.6651 169.909 62.8899C169.876 62.5929 169.404 62.7249 169.469 63.0218Z" fill="#111314"/>
<path d="M155.381 61.4383C155.789 59.8547 157.776 59.4918 158.72 60.8279C158.899 61.0919 159.323 60.8444 159.144 60.5805C157.971 58.9145 155.447 59.2939 154.925 61.3063C154.828 61.6197 155.3 61.7352 155.381 61.4383Z" fill="#111314"/>
<path d="M167.482 59.2114C168.475 57.0176 171.097 58.0898 172.205 59.5413C172.4 59.7888 172.824 59.5413 172.628 59.2939C171.928 58.3537 170.951 57.5619 169.746 57.4629C168.638 57.364 167.531 57.9248 167.058 58.964C166.928 59.2444 167.352 59.4918 167.482 59.2114Z" fill="#111314"/>
<path d="M161.733 75.6573C160.707 73.7438 163.117 73.9253 164.306 73.8098C165.56 73.6943 166.782 73.2985 167.873 72.6551C169.046 71.9788 169.795 70.9231 170.821 70.0984C171.261 69.7355 171.912 69.3231 172.515 69.653C173.02 69.9334 173.215 70.6592 173.264 71.1706C173.345 71.9458 173.15 72.7376 172.873 73.4634C172.091 75.5913 170.625 77.3563 168.459 78.0821C166 78.8904 163.134 77.9007 161.733 75.6573C161.57 75.3934 161.147 75.6408 161.31 75.9047C162.466 77.7687 164.648 78.9399 166.814 78.8574C169.029 78.7914 171.147 77.4883 172.368 75.6573C173.394 74.1067 174.762 70.7912 172.971 69.3396C171.977 68.5313 170.772 69.4385 170.039 70.1643C168.867 71.3355 167.759 72.3582 166.163 72.9026C165.3 73.1995 164.42 73.315 163.508 73.3479C162.906 73.3644 162.287 73.3644 161.733 73.6614C160.772 74.1892 160.837 75.047 161.31 75.9047C161.456 76.1851 161.88 75.9377 161.733 75.6573Z" fill="#111314"/>
<path d="M161.456 75.6903C165.951 75.9872 170.251 73.7604 172.547 69.818C172.71 69.5375 172.287 69.2901 172.124 69.5705C169.909 73.381 165.789 75.4924 161.456 75.1954C161.147 75.179 161.147 75.6738 161.456 75.6903Z" fill="#111314"/>
<path d="M180.105 74.0738C178.981 77.6698 176.505 80.6719 173.232 82.4864C172.955 82.6349 173.199 83.0638 173.476 82.9153C176.847 81.0348 179.404 77.9337 180.561 74.2057C180.658 73.9088 180.202 73.7769 180.105 74.0738Z" fill="#111314"/>
<path d="M180.592 60.4981C180.772 59.1785 182.123 58.5516 183.328 58.964C184.534 59.3929 185.201 60.5806 185.364 61.8012C185.543 63.0384 185.283 64.358 184.664 65.4467C184.029 66.5519 182.596 67.5746 181.423 66.5189C181.195 66.3045 180.837 66.6509 181.081 66.8653C182.205 67.888 183.768 67.4097 184.664 66.321C185.706 65.0508 186.113 63.1869 185.837 61.5703C185.576 60.0527 184.583 58.6341 183.003 58.3537C181.684 58.1228 180.316 58.964 180.12 60.3496C180.088 60.6795 180.56 60.8115 180.592 60.4981Z" fill="#111314"/>
<path d="M176.977 58.7496C177.059 59.1949 177.124 60.1022 177.775 60.4981C178.459 60.9105 179.437 60.5476 180.169 60.1847C180.202 60.1022 180.772 58.6341 182.205 58.3867C183.362 58.1887 184.225 58.9145 184.502 59.129C185.495 59.9537 185.691 61.1084 185.805 61.7682C186.033 63.0549 185.707 64.0611 185.544 64.6384C185.397 65.1333 185.202 65.7271 184.681 66.3374C184.469 66.5849 184.111 66.9972 183.541 67.2447C182.547 67.6571 181.554 67.2447 181.261 67.1127C180.967 67.3601 180.577 67.723 180.251 68.2509C180.251 68.2509 180.218 68.3004 180.186 68.3499C179.681 69.2076 180.121 71.1046 180.186 72.1603C180.218 72.7871 180.153 73.7109 179.616 74.8655C180.218 75.146 182.189 75.9542 184.567 75.3274C185.251 75.146 187.01 74.6676 188.28 72.9521C189.697 71.0386 189.485 68.9437 189.42 68.4488C190.235 67.7065 190.642 66.9643 190.837 66.5024C190.967 66.2055 191.847 64.1106 190.967 63.1868C190.609 62.8239 190.3 62.9724 190.007 62.659C189.616 62.2631 189.502 61.3063 190.691 58.8815C190.951 58.8815 191.098 58.799 191.195 58.7331C191.651 58.3537 191.472 57.2155 190.723 55.9124C191.733 55.3515 192.743 54.7907 193.752 54.2463C192.971 54.1803 191.847 53.9824 190.821 53.2566C189.306 52.2009 189.111 50.7988 188.101 49.3802C187.319 48.275 185.919 46.9389 183.134 46.0481C183.769 45.6027 184.665 44.9099 185.593 43.9367C186.277 43.2109 187.775 41.4624 187.466 41.083C187.254 40.8356 186.375 41.3634 185.283 41.7758C183.264 42.5181 181.57 42.4026 178.948 42.2047C175.414 41.9243 175.039 41.2974 172.091 40.9345C170.153 40.6871 166.489 40.2747 162.417 41.7263C158.59 43.0954 156.277 45.4543 155.267 46.4935C154.339 47.4502 152.026 50.0565 150.788 54.0154C150.186 55.9288 149.616 57.9083 150.626 59.6898C151.261 60.795 152.254 61.3888 152.922 61.7022C152.857 60.6135 152.873 58.5021 154.143 56.5062C156.033 53.5535 159.404 52.8772 161.88 52.3823C163.85 51.9865 168.345 51.0957 172.336 53.603C173.834 54.5432 176.554 56.2423 176.977 58.7496Z" fill="#1890ff"/>
<path d="M161.489 75.6078C161.701 76.0202 162.124 76.6635 162.841 77.2573C163.003 77.3893 163.769 77.9996 164.942 78.3295C166.766 78.8244 168.362 78.313 168.981 78.0656C170.87 77.3068 171.815 75.9212 172.205 75.3109C172.629 74.6676 173.427 73.4469 173.378 71.7479C173.345 70.7252 173.02 69.9334 172.792 69.4715C172.629 69.6365 172.401 69.8839 172.124 70.1808C171.179 71.2035 170.577 71.9788 170.381 72.2262C169.192 73.6613 167.401 74.4696 166.831 74.7171C164.681 75.6738 162.678 75.7068 161.489 75.6078Z" fill="#111314"/>
<path d="M155.039 47.2522C154.241 48.0605 153.737 48.9018 153.443 49.4131C152.466 51.0792 152.124 52.5308 151.88 53.57C151.587 54.8731 151.277 56.836 151.473 59.2609C151.522 59.8382 151.864 60.3001 152.336 60.4485C152.662 60.5475 152.939 60.465 153.069 60.4155C153.167 59.7887 153.411 58.8485 154.013 57.8588C155.072 56.0938 156.603 55.269 157.499 54.8071C159.323 53.8669 160.935 53.7184 162.01 53.6194C164.469 53.4215 166.31 53.9494 166.717 54.0648C168.46 54.5762 169.73 55.4009 170.577 55.9453C172.157 56.9515 172.385 57.4629 173.85 58.1062C175.479 58.832 176.473 58.7825 176.798 58.7495C177.303 58.7165 178.232 58.634 179.095 57.9412C179.877 57.3144 180.17 56.5061 180.284 56.1432C181.815 56.8195 182.938 57.5288 183.688 58.0567C185.463 59.2938 186.456 60.432 188.85 61.8011C189.258 62.0321 189.616 62.2135 189.828 62.329C190.088 61.2403 190.349 60.1516 190.609 59.0794C190.267 58.832 189.762 58.4691 189.127 58.0237C186.831 56.4072 185.267 55.3185 183.232 54.2463C182.645 53.9329 181.798 53.5205 180.723 53.0586C180.951 52.1679 181.245 50.5348 180.675 48.7038C180.463 48.011 180.121 46.9553 179.16 46.0976C178.557 45.5697 177.955 45.3223 177.596 45.2068C173.508 43.7222 169.16 43.6563 169.16 43.6563C166.782 43.6233 163.59 43.6068 159.811 44.712C157.482 45.3883 156.114 46.1635 155.039 47.2522Z" fill="#F7FAFC"/>
<path d="M153.296 60.3826C154.436 54.0813 163.036 52.4483 168.003 54.7247C169.371 55.3515 170.658 56.1433 171.928 56.935C173.036 57.6278 174.176 58.3371 175.446 58.6505C177.319 59.1124 179.648 58.5186 180.316 56.5061C180.413 56.2092 179.941 56.0773 179.843 56.3742C179.387 57.7598 177.889 58.3866 176.537 58.3371C175.022 58.2712 173.671 57.4299 172.417 56.6711C170.055 55.2195 167.612 53.603 164.778 53.3226C160.023 52.8607 153.817 54.8896 152.84 60.2671C152.759 60.5475 153.231 60.696 153.296 60.3826Z" fill="#111314"/>
<path d="M152.808 59.9537C152.564 59.9042 152.319 59.8547 152.059 59.8052C152.01 59.6733 151.945 59.5413 151.896 59.4093C151.831 59.2444 151.798 59.0629 151.766 58.8815C151.7 58.5021 151.684 58.1062 151.668 57.7103C151.652 56.9515 151.684 56.1762 151.749 55.4174C151.863 53.7844 152.156 52.1514 152.857 50.6668C154.143 47.9121 156.749 46.0646 159.534 45.0749C162.612 43.9862 165.967 43.7552 169.208 43.8377C172.319 43.9202 175.821 44.2006 178.524 45.8996C180.316 47.0213 180.528 49.1657 180.576 51.1451C180.625 53.0586 180.332 54.9391 179.73 56.7371C179.632 57.034 180.104 57.166 180.202 56.869C180.821 55.0216 181.13 53.0916 181.065 51.1451C181.016 49.5616 180.918 47.4832 179.778 46.279C178.622 45.0419 176.749 44.4315 175.153 44.0521C173.264 43.6068 171.293 43.4253 169.355 43.3593C162.498 43.1284 153.525 44.7285 151.668 52.6462C151.212 54.5432 151 56.7371 151.244 58.6835C151.326 59.2939 151.489 60.1021 152.01 60.498C152.433 60.8114 153.02 60.7125 153.231 60.2176C153.362 59.9207 152.938 59.6733 152.808 59.9537Z" fill="#111314"/>
<path d="M152.141 59.5413C153.264 55.335 156.913 52.1514 161.098 51.3926C163.395 50.9802 165.789 51.2606 167.955 52.1184C170.202 52.9926 171.831 54.5102 173.59 56.1268C175.17 57.5948 177.303 58.865 179.453 57.8588C179.73 57.7268 179.486 57.2979 179.209 57.4299C176.505 58.7 174.241 56.0113 172.483 54.3782C170.886 52.9102 168.965 51.8215 166.88 51.2276C162.808 50.073 158.427 50.9307 155.219 53.7514C153.525 55.2525 152.271 57.2154 151.685 59.4093C151.587 59.7227 152.059 59.8547 152.141 59.5413Z" fill="#111314"/>
<path d="M180.153 56.1103C183.426 58.1228 186.618 60.2672 189.746 62.494C190.006 62.6755 190.25 62.2466 189.99 62.0652C186.863 59.8218 183.671 57.6939 180.397 55.6815C180.136 55.5165 179.892 55.9454 180.153 56.1103Z" fill="#111314"/>
<path d="M180.756 53.0421C184.078 54.9226 187.303 56.9845 190.397 59.2278C190.658 59.4093 190.902 58.9804 190.642 58.799C187.531 56.5556 184.322 54.4937 181 52.6132C180.723 52.4483 180.479 52.8771 180.756 53.0421Z" fill="#111314"/>
<path d="M190.299 58.9144C189.957 59.9701 189.729 61.0259 189.599 62.131C189.566 62.4445 190.055 62.4445 190.087 62.131C190.201 61.0753 190.429 60.0526 190.771 59.0464C190.869 58.7495 190.397 58.6175 190.299 58.9144Z" fill="#111314"/>
<path d="M160.739 51.475C163.378 48.9182 166.032 46.3945 168.72 43.8707C168.948 43.6562 168.606 43.3098 168.378 43.5243C165.707 46.0316 163.036 48.5718 160.397 51.1286C160.169 51.3431 160.511 51.6895 160.739 51.475Z" fill="#111314"/>
<path d="M167.352 51.6896C169.73 49.2977 172.108 46.9059 174.486 44.4976C174.714 44.2667 174.355 43.9203 174.144 44.1512C171.766 46.543 169.388 48.9348 167.01 51.3432C166.782 51.5741 167.124 51.9205 167.352 51.6896Z" fill="#111314"/>
<path opacity="0.15" d="M156.749 55.0876C156.668 54.4278 156.586 53.7845 156.505 53.1247C157.27 52.5968 158.541 51.8381 160.218 51.4092C163.818 50.4689 166.847 51.6236 168.231 52.1515C169.274 52.5474 170.511 53.0092 171.798 54.1144C172.791 54.9722 172.775 55.3351 173.98 56.3248C175.088 57.2485 176.163 58.1063 177.547 58.0403C178.378 58.0073 179.029 57.6444 179.404 57.3805C179.762 56.8691 180.104 56.3413 180.462 55.8299C180.837 55.8794 183.182 56.2423 184.257 58.2053C184.42 58.4857 184.371 58.6012 184.746 59.6734C185.414 61.6033 185.593 61.6528 185.723 62.2961C185.756 62.4446 186.098 64.5395 184.664 65.9086C183.557 66.9808 182.075 66.9148 181.749 66.8983C181.277 68.218 181.195 69.3561 181.179 70.0984C181.179 71.2366 181.163 72.6222 182.075 73.8594C182.401 74.3048 183.133 75.311 184.42 75.4099C185.967 75.5254 186.993 74.2223 187.091 74.1068C184.941 74.5192 182.775 74.9316 180.625 75.3275C180.609 77.076 180.87 78.4286 181.114 79.3358C181.7 81.5792 182.547 82.5524 182.482 84.4164C182.449 85.5711 182.059 86.5113 181.749 87.1216C180.756 84.3009 179.746 81.4967 178.752 78.676C177.677 79.5173 176.603 80.375 175.511 81.2163C175.935 80.2926 176.375 79.3523 176.798 78.4286C177.352 75.9873 177.466 73.8759 177.449 72.2923C177.417 69.9665 176.798 67.6571 175.593 63.0384C174.86 60.2672 174.355 58.7826 173.003 57.5455C172.531 57.1166 171.993 56.8032 170.902 56.1598C168.508 54.7577 167.319 54.0484 165.886 53.702C162.906 52.9927 160.267 53.801 159.013 54.1969C158.052 54.4773 157.287 54.8072 156.749 55.0876Z" fill="#636E72"/>
<path opacity="0.13" d="M162.417 62.527C162.059 64.1106 161.75 65.8591 161.522 67.7726C161.408 68.8283 161.326 69.8345 161.277 70.8077C161.978 70.9727 162.678 71.1376 163.378 71.3026C163.053 68.3829 162.743 65.4632 162.417 62.527Z" fill="#636E72"/>
<path opacity="0.09" d="M179.746 64.8033C179.534 65.9745 179.257 67.1952 178.899 68.4653C177.238 74.2882 174.469 78.7914 171.944 82.041C172.27 81.8925 177.612 79.3193 179.322 75.4264C179.778 74.4037 180.153 73.5459 180.169 72.3417C180.202 70.7912 179.632 70.1973 180.023 69.0427C180.414 67.9375 181.179 67.789 181.228 66.9642C181.277 66.09 180.462 65.3312 179.746 64.8033Z" fill="#636E72"/>
<path opacity="0.1" d="M157.971 53.372C157.873 54.0813 158.671 54.7247 159.078 55.0546C161.358 56.9185 163.427 55.269 167.449 56.0938C170.853 56.8031 171.505 58.4361 175.023 58.4856C176.26 58.5021 177.27 58.3206 177.938 58.1722C177.465 58.0732 176.749 57.8588 175.967 57.4464C174.615 56.7371 173.817 55.8463 173.524 55.5329C171.944 53.8339 169.111 52.1019 167.058 51.4586C163.068 50.1884 158.199 51.772 157.971 53.372Z" fill="#636E72"/>
</svg>
