<svg width="500" height="190" viewBox="0 0 500 190" fill="none" xmlns="http://www.w3.org/2000/svg">
<path d="M61.12 104.32V119.68C60.5333 119.84 59.6 120 58.32 120.16C57.0933 120.32 55.8667 120.4 54.64 120.4C53.4133 120.4 52.32 120.293 51.36 120.08C50.4533 119.92 49.68 119.6 49.04 119.12C48.4533 118.64 48 117.973 47.68 117.12C47.36 116.267 47.2 115.147 47.2 113.76V76.08C47.2 74.96 47.4933 74.1067 48.08 73.52C48.72 72.88 49.5733 72.3733 50.64 72C52.4533 71.36 54.56 70.9067 56.96 70.64C59.36 70.32 61.92 70.16 64.64 70.16C72 70.16 77.5467 71.7067 81.28 74.8C85.0133 77.8933 86.88 82.08 86.88 87.36C86.88 90.6667 86.0267 93.4933 84.32 95.84C82.6133 98.1867 80.5867 100 78.24 101.28C80.16 103.893 82.0533 106.347 83.92 108.64C85.7867 110.933 87.2533 113.013 88.32 114.88C87.7867 116.747 86.8 118.187 85.36 119.2C83.9733 120.16 82.4 120.64 80.64 120.64C79.4667 120.64 78.4533 120.507 77.6 120.24C76.7467 119.973 76 119.6 75.36 119.12C74.72 118.64 74.1333 118.053 73.6 117.36C73.0667 116.667 72.56 115.92 72.08 115.12L65.36 104.32H61.12ZM66.16 93.68C68.1867 93.68 69.7867 93.1733 70.96 92.16C72.1333 91.0933 72.72 89.5467 72.72 87.52C72.72 85.4933 72.0533 83.9733 70.72 82.96C69.44 81.8933 67.3867 81.36 64.56 81.36C63.76 81.36 63.12 81.3867 62.64 81.44C62.16 81.4933 61.6267 81.5733 61.04 81.68V93.68H66.16ZM95.95 78.96C95.95 76.6667 96.6167 74.8533 97.95 73.52C99.2833 72.1867 101.097 71.52 103.39 71.52H129.79C130.163 72.1067 130.483 72.88 130.75 73.84C131.07 74.8 131.23 75.8133 131.23 76.88C131.23 78.9067 130.777 80.3467 129.87 81.2C129.017 82.0533 127.87 82.48 126.43 82.48H109.55V89.92H127.55C127.923 90.5067 128.243 91.28 128.51 92.24C128.83 93.1467 128.99 94.1333 128.99 95.2C128.99 97.2267 128.563 98.6667 127.71 99.52C126.857 100.373 125.71 100.8 124.27 100.8H109.55V109.2H130.11C130.483 109.787 130.803 110.56 131.07 111.52C131.39 112.48 131.55 113.493 131.55 114.56C131.55 116.587 131.097 118.053 130.19 118.96C129.337 119.813 128.19 120.24 126.75 120.24H103.39C101.097 120.24 99.2833 119.573 97.95 118.24C96.6167 116.907 95.95 115.093 95.95 112.8V78.96ZM136.909 95.68C136.909 91.52 137.549 87.84 138.829 84.64C140.163 81.44 141.949 78.7733 144.189 76.64C146.483 74.4533 149.149 72.8 152.189 71.68C155.283 70.56 158.616 70 162.189 70C165.763 70 169.069 70.56 172.109 71.68C175.203 72.8 177.896 74.4533 180.189 76.64C182.483 78.7733 184.269 81.44 185.549 84.64C186.883 87.84 187.549 91.52 187.549 95.68C187.549 100.907 186.589 105.36 184.669 109.04C182.749 112.667 180.136 115.52 176.829 117.6C177.629 117.973 178.563 118.373 179.629 118.8C180.749 119.227 181.896 119.653 183.069 120.08C184.296 120.507 185.549 120.907 186.829 121.28C188.109 121.707 189.309 122.08 190.429 122.4C190.483 122.72 190.509 122.987 190.509 123.2C190.509 123.467 190.509 123.707 190.509 123.92C190.509 126.96 189.709 129.173 188.109 130.56C186.563 131.947 184.509 132.64 181.949 132.64C179.496 132.64 176.963 131.947 174.349 130.56C171.736 129.227 169.069 127.28 166.349 124.72L162.829 121.44H162.189C158.563 121.44 155.203 120.88 152.109 119.76C149.016 118.587 146.349 116.907 144.109 114.72C141.869 112.533 140.109 109.84 138.829 106.64C137.549 103.44 136.909 99.7867 136.909 95.68ZM151.309 95.68C151.309 100.533 152.296 104.16 154.269 106.56C156.243 108.96 158.883 110.16 162.189 110.16C165.549 110.16 168.216 108.96 170.189 106.56C172.163 104.16 173.149 100.533 173.149 95.68C173.149 90.88 172.163 87.28 170.189 84.88C168.269 82.48 165.629 81.28 162.269 81.28C158.963 81.28 156.296 82.48 154.269 84.88C152.296 87.2267 151.309 90.8267 151.309 95.68ZM238.676 102.08C238.676 104.96 238.169 107.6 237.156 110C236.196 112.347 234.782 114.373 232.916 116.08C231.049 117.733 228.782 119.013 226.116 119.92C223.449 120.827 220.436 121.28 217.076 121.28C213.716 121.28 210.702 120.827 208.036 119.92C205.369 119.013 203.102 117.733 201.236 116.08C199.369 114.373 197.929 112.347 196.916 110C195.956 107.6 195.476 104.96 195.476 102.08V71.52C196.062 71.4133 196.996 71.28 198.276 71.12C199.556 70.9067 200.782 70.8 201.956 70.8C203.182 70.8 204.249 70.9067 205.156 71.12C206.116 71.28 206.916 71.6 207.556 72.08C208.196 72.56 208.676 73.2267 208.996 74.08C209.316 74.9333 209.476 76.0533 209.476 77.44V101.84C209.476 104.4 210.169 106.4 211.556 107.84C212.996 109.28 214.836 110 217.076 110C219.369 110 221.209 109.28 222.596 107.84C223.982 106.4 224.676 104.4 224.676 101.84V71.52C225.262 71.4133 226.196 71.28 227.476 71.12C228.756 70.9067 229.982 70.8 231.156 70.8C232.382 70.8 233.449 70.9067 234.356 71.12C235.316 71.28 236.116 71.6 236.756 72.08C237.396 72.56 237.876 73.2267 238.196 74.08C238.516 74.9333 238.676 76.0533 238.676 77.44V102.08ZM248.841 78.96C248.841 76.6667 249.507 74.8533 250.841 73.52C252.174 72.1867 253.987 71.52 256.281 71.52H282.681C283.054 72.1067 283.374 72.88 283.641 73.84C283.961 74.8 284.121 75.8133 284.121 76.88C284.121 78.9067 283.667 80.3467 282.761 81.2C281.907 82.0533 280.761 82.48 279.321 82.48H262.441V89.92H280.441C280.814 90.5067 281.134 91.28 281.401 92.24C281.721 93.1467 281.881 94.1333 281.881 95.2C281.881 97.2267 281.454 98.6667 280.601 99.52C279.747 100.373 278.601 100.8 277.161 100.8H262.441V109.2H283.001C283.374 109.787 283.694 110.56 283.961 111.52C284.281 112.48 284.441 113.493 284.441 114.56C284.441 116.587 283.987 118.053 283.081 118.96C282.227 119.813 281.081 120.24 279.641 120.24H256.281C253.987 120.24 252.174 119.573 250.841 118.24C249.507 116.907 248.841 115.093 248.841 112.8V78.96ZM306.819 100.72C304.473 99.92 302.339 99.12 300.419 98.32C298.499 97.4667 296.846 96.4533 295.459 95.28C294.073 94.1067 292.979 92.72 292.179 91.12C291.433 89.4667 291.059 87.4667 291.059 85.12C291.059 80.5867 292.793 76.96 296.259 74.24C299.779 71.52 304.686 70.16 310.979 70.16C313.273 70.16 315.406 70.32 317.379 70.64C319.353 70.96 321.033 71.4667 322.419 72.16C323.859 72.8 324.979 73.6533 325.779 74.72C326.579 75.7333 326.979 76.9333 326.979 78.32C326.979 79.7067 326.659 80.9067 326.019 81.92C325.379 82.88 324.606 83.7067 323.699 84.4C322.526 83.6533 320.953 83.0133 318.979 82.48C317.006 81.8933 314.846 81.6 312.499 81.6C310.099 81.6 308.339 81.9467 307.219 82.64C306.099 83.28 305.539 84.1067 305.539 85.12C305.539 85.92 305.886 86.5867 306.579 87.12C307.273 87.6 308.313 88.0533 309.699 88.48L313.939 89.84C318.953 91.44 322.793 93.4933 325.459 96C328.179 98.4533 329.539 101.813 329.539 106.08C329.539 110.613 327.753 114.293 324.179 117.12C320.606 119.893 315.353 121.28 308.419 121.28C305.966 121.28 303.673 121.067 301.539 120.64C299.459 120.267 297.619 119.707 296.019 118.96C294.473 118.16 293.246 117.2 292.339 116.08C291.486 114.907 291.059 113.573 291.059 112.08C291.059 110.533 291.513 109.227 292.419 108.16C293.326 107.04 294.313 106.187 295.379 105.6C296.873 106.773 298.686 107.787 300.819 108.64C303.006 109.493 305.379 109.92 307.939 109.92C310.553 109.92 312.393 109.52 313.459 108.72C314.526 107.92 315.059 106.987 315.059 105.92C315.059 104.853 314.633 104.053 313.779 103.52C312.926 102.933 311.726 102.373 310.179 101.84L306.819 100.72ZM333.866 82.72C333.493 82.1333 333.146 81.3333 332.826 80.32C332.506 79.3067 332.346 78.24 332.346 77.12C332.346 75.04 332.8 73.5467 333.706 72.64C334.666 71.7333 335.893 71.28 337.386 71.28H372.266C372.64 71.8667 372.986 72.6667 373.306 73.68C373.626 74.6933 373.786 75.76 373.786 76.88C373.786 78.96 373.306 80.4533 372.346 81.36C371.44 82.2667 370.24 82.72 368.746 82.72H359.866V119.68C359.28 119.84 358.346 120 357.066 120.16C355.84 120.32 354.613 120.4 353.386 120.4C352.16 120.4 351.066 120.293 350.106 120.08C349.2 119.92 348.426 119.6 347.786 119.12C347.146 118.64 346.666 117.973 346.346 117.12C346.026 116.267 345.866 115.147 345.866 113.76V82.72H333.866ZM387.999 120.24C385.706 120.24 383.893 119.573 382.559 118.24C381.226 116.907 380.559 115.093 380.559 112.8V71.44C381.146 71.3333 382.079 71.2 383.359 71.04C384.639 70.8267 385.866 70.72 387.039 70.72C388.266 70.72 389.333 70.8267 390.239 71.04C391.199 71.2 391.999 71.52 392.639 72C393.279 72.48 393.759 73.1467 394.079 74C394.399 74.8533 394.559 75.9733 394.559 77.36V108.96H412.879C413.253 109.547 413.599 110.347 413.919 111.36C414.239 112.32 414.399 113.333 414.399 114.4C414.399 116.533 413.946 118.053 413.039 118.96C412.133 119.813 410.933 120.24 409.439 120.24H387.999ZM441.624 119.68C441.038 119.84 440.131 120 438.904 120.16C437.678 120.32 436.478 120.4 435.304 120.4C432.851 120.4 431.011 120 429.784 119.2C428.558 118.347 427.944 116.587 427.944 113.92V103.12C426.611 101.147 425.171 98.96 423.624 96.56C422.078 94.16 420.558 91.7067 419.064 89.2C417.571 86.6933 416.184 84.24 414.904 81.84C413.624 79.3867 412.584 77.1467 411.784 75.12C412.478 74.16 413.411 73.28 414.584 72.48C415.811 71.68 417.304 71.28 419.064 71.28C421.144 71.28 422.824 71.7067 424.104 72.56C425.438 73.4133 426.691 75.0133 427.864 77.36L434.504 90.72H434.984C435.731 89.0667 436.371 87.5733 436.904 86.24C437.491 84.8533 438.051 83.4933 438.584 82.16C439.118 80.7733 439.678 79.36 440.264 77.92C440.851 76.4267 441.518 74.72 442.264 72.8C443.224 72.32 444.291 71.9467 445.464 71.68C446.638 71.4133 447.758 71.28 448.824 71.28C450.691 71.28 452.264 71.7867 453.544 72.8C454.878 73.76 455.544 75.2267 455.544 77.2C455.544 77.84 455.411 78.6133 455.144 79.52C454.878 80.4267 454.264 81.8133 453.304 83.68C452.344 85.4933 450.931 87.9733 449.064 91.12C447.251 94.2667 444.771 98.3733 441.624 103.44V119.68Z" fill="#1890FF"/>
<path fill-rule="evenodd" clip-rule="evenodd" d="M365.5 166.875C365.5 164.666 367.291 162.875 369.5 162.875H477.004C488.62 162.875 498 153.503 498 141.946V105C498 102.791 496.209 101 494 101H489.5H485.25C483.041 101 481.25 102.791 481.25 105V137.75C481.25 142.407 477.515 146.125 472.908 146.125H369.5C367.291 146.125 365.5 144.334 365.5 142.125V130.657C365.5 127.093 361.191 125.309 358.672 127.828L334.828 151.672C333.266 153.234 333.266 155.766 334.828 157.328L358.672 181.172C361.191 183.691 365.5 181.907 365.5 178.343V166.875Z" fill="#FAD408"/>
<path fill-rule="evenodd" clip-rule="evenodd" d="M134.5 22.125C134.5 24.3341 132.709 26.125 130.5 26.125H22.996C11.3799 26.125 2 35.4966 2 47.0541V84C2 86.2091 3.79086 88 6 88H10.5H14.75C16.9591 88 18.75 86.2091 18.75 84V51.25C18.75 46.5935 22.4853 42.875 27.0915 42.875H130.5C132.709 42.875 134.5 44.6659 134.5 46.875V58.3431C134.5 61.9068 138.809 63.6914 141.328 61.1716L165.172 37.3284C166.734 35.7663 166.734 33.2337 165.172 31.6716L141.328 7.82844C138.809 5.30858 134.5 7.09324 134.5 10.6569V22.125Z" fill="#FAD408"/>
</svg>
