<svg width="1045" height="252" viewBox="0 0 1045 252" fill="none" xmlns="http://www.w3.org/2000/svg">
<path d="M953.551 83.5764H979.66L996.154 132.717C996.675 134.28 997.118 135.868 997.483 137.483C997.847 139.097 998.16 140.764 998.421 142.483C998.681 144.201 998.89 145.998 999.046 147.873H999.515C999.828 145.061 1000.24 142.431 1000.77 139.983C1001.34 137.535 1002.04 135.113 1002.88 132.717L1019.06 83.5764H1044.62L1007.64 182.092C1005.4 188.134 1002.49 193.16 998.89 197.17C995.294 201.233 991.151 204.28 986.461 206.311C981.822 208.342 976.715 209.358 971.139 209.358C968.429 209.358 966.084 209.201 964.104 208.889C962.124 208.628 960.43 208.342 959.023 208.03V189.123C960.117 189.384 961.498 189.618 963.166 189.826C964.833 190.035 966.579 190.139 968.403 190.139C971.739 190.139 974.605 189.436 977.002 188.03C979.399 186.623 981.406 184.722 983.021 182.326C984.637 179.983 985.913 177.405 986.851 174.592L988.259 170.295L953.551 83.5764Z" fill="black"/>
<path d="M944.668 170.92H920.826V49.3577H944.668V170.92Z" fill="black"/>
<path d="M895.947 153.498C898.553 153.498 901.08 153.238 903.53 152.717C906.031 152.196 908.507 151.545 910.956 150.764V168.498C908.402 169.644 905.223 170.582 901.419 171.311C897.667 172.092 893.55 172.483 889.068 172.483C883.857 172.483 879.167 171.649 874.998 169.983C870.881 168.264 867.623 165.321 865.226 161.155C862.881 156.936 861.709 151.076 861.709 143.576V101.467H850.296V91.3889L863.428 83.4202L870.307 64.9827H885.551V83.5764H910.018V101.467H885.551V143.576C885.551 146.91 886.489 149.41 888.365 151.076C890.293 152.691 892.82 153.498 895.947 153.498Z" fill="black"/>
<path d="M841.412 144.983C841.412 150.92 840.005 155.946 837.191 160.061C834.429 164.123 830.286 167.222 824.762 169.358C819.238 171.441 812.359 172.483 804.125 172.483C798.028 172.483 792.791 172.092 788.413 171.311C784.088 170.53 779.71 169.227 775.28 167.405V147.717C780.023 149.852 785.104 151.623 790.524 153.03C795.995 154.384 800.79 155.061 804.907 155.061C809.545 155.061 812.854 154.384 814.835 153.03C816.867 151.623 817.883 149.8 817.883 147.561C817.883 146.102 817.466 144.8 816.632 143.655C815.851 142.457 814.131 141.128 811.473 139.67C808.815 138.16 804.646 136.207 798.966 133.811C793.494 131.519 788.986 129.201 785.442 126.858C781.951 124.514 779.345 121.753 777.625 118.576C775.958 115.347 775.124 111.259 775.124 106.311C775.124 98.2379 778.251 92.1702 784.504 88.1077C790.81 83.9931 799.227 81.9358 809.753 81.9358C815.173 81.9358 820.333 82.4827 825.231 83.5764C830.182 84.6702 835.263 86.415 840.474 88.8108L833.283 105.998C828.957 104.123 824.866 102.587 821.01 101.389C817.206 100.191 813.323 99.592 809.363 99.592C805.871 99.592 803.239 100.061 801.467 100.998C799.696 101.936 798.81 103.368 798.81 105.295C798.81 106.701 799.253 107.951 800.139 109.045C801.077 110.139 802.848 111.363 805.454 112.717C808.112 114.019 811.994 115.712 817.101 117.795C822.052 119.826 826.352 121.962 830 124.201C833.648 126.389 836.462 129.123 838.442 132.405C840.422 135.634 841.412 139.826 841.412 144.983Z" fill="black"/>
<path d="M724.117 81.9358C732.194 81.9358 739.151 83.4983 744.988 86.6233C750.825 89.6962 755.333 94.1754 758.512 100.061C761.691 105.946 763.28 113.134 763.28 121.623V133.186H706.919C707.18 139.905 709.186 145.191 712.938 149.045C716.743 152.847 722.006 154.748 728.729 154.748C734.305 154.748 739.412 154.175 744.05 153.03C748.688 151.884 753.457 150.165 758.355 147.873V166.311C754.03 168.446 749.496 170.009 744.754 170.998C740.063 171.988 734.357 172.483 727.634 172.483C718.879 172.483 711.114 170.868 704.34 167.639C697.617 164.41 692.327 159.488 688.471 152.873C684.667 146.259 682.765 137.925 682.765 127.873C682.765 117.665 684.484 109.175 687.924 102.405C691.415 95.5816 696.262 90.4774 702.464 87.092C708.665 83.6545 715.883 81.9358 724.117 81.9358ZM724.273 98.8889C719.635 98.8889 715.779 100.373 712.704 103.342C709.681 106.311 707.935 110.972 707.466 117.326H740.923C740.871 113.785 740.22 110.634 738.969 107.873C737.77 105.113 735.946 102.925 733.497 101.311C731.1 99.6962 728.025 98.8889 724.273 98.8889Z" fill="black"/>
<path d="M670.921 83.5764V170.92H652.629L649.424 159.748H648.173C646.297 162.717 643.952 165.139 641.138 167.014C638.324 168.889 635.223 170.269 631.836 171.155C628.448 172.04 624.931 172.483 621.283 172.483C615.029 172.483 609.583 171.389 604.945 169.201C600.307 166.962 596.685 163.498 594.079 158.811C591.526 154.123 590.249 148.03 590.249 140.53V83.5764H614.091V134.592C614.091 140.842 615.212 145.556 617.452 148.733C619.693 151.91 623.263 153.498 628.162 153.498C633.008 153.498 636.813 152.405 639.575 150.217C642.337 147.977 644.265 144.722 645.359 140.451C646.506 136.128 647.079 130.868 647.079 124.67V83.5764H670.921Z" fill="black"/>
<path d="M554.485 209.358V172.717C554.485 170.53 554.563 168.342 554.72 166.155C554.928 163.915 555.189 161.727 555.501 159.592H554.485C552.244 163.186 549.144 166.233 545.183 168.733C541.274 171.233 536.115 172.483 529.705 172.483C519.856 172.483 511.882 168.681 505.785 161.076C499.74 153.42 496.717 142.196 496.717 127.405C496.717 117.457 498.124 109.123 500.939 102.405C503.753 95.6337 507.661 90.5295 512.664 87.092C517.719 83.6545 523.556 81.9358 530.174 81.9358C536.584 81.9358 541.77 83.1858 545.73 85.6858C549.743 88.1337 553 91.1545 555.501 94.7483H556.127L558.237 83.5764H578.405V209.358H554.485ZM538.226 153.811C542.603 153.811 546.069 152.951 548.622 151.233C551.228 149.514 553.104 146.936 554.251 143.498C555.397 140.009 556.023 135.66 556.127 130.451V127.561C556.127 119.071 554.824 112.587 552.218 108.108C549.613 103.576 544.818 101.311 537.835 101.311C532.155 101.311 527.933 103.576 525.171 108.108C522.409 112.639 521.028 119.175 521.028 127.717C521.028 136.415 522.435 142.951 525.25 147.326C528.064 151.649 532.389 153.811 538.226 153.811Z" fill="black"/>
<path d="M445.71 81.9358C453.787 81.9358 460.745 83.4983 466.581 86.6233C472.418 89.6962 476.926 94.1754 480.105 100.061C483.284 105.946 484.873 113.134 484.873 121.623V133.186H428.512C428.773 139.905 430.779 145.191 434.531 149.045C438.336 152.847 443.599 154.748 450.322 154.748C455.898 154.748 461.005 154.175 465.643 153.03C470.281 151.884 475.05 150.165 479.948 147.873V166.311C475.623 168.446 471.089 170.009 466.347 170.998C461.657 171.988 455.95 172.483 449.227 172.483C440.472 172.483 432.707 170.868 425.933 167.639C419.21 164.41 413.921 159.488 410.064 152.873C406.26 146.259 404.358 137.925 404.358 127.873C404.358 117.665 406.077 109.175 409.517 102.405C413.009 95.5816 417.855 90.4774 424.057 87.092C430.258 83.6545 437.476 81.9358 445.71 81.9358ZM445.866 98.8889C441.228 98.8889 437.372 100.373 434.297 103.342C431.274 106.311 429.529 110.972 429.06 117.326H462.516C462.464 113.785 461.813 110.634 460.562 107.873C459.364 105.113 457.54 102.925 455.09 101.311C452.693 99.6962 449.618 98.8889 445.866 98.8889Z" fill="black"/>
<path d="M389.397 81.9358C390.596 81.9358 391.977 82.0139 393.54 82.1702C395.156 82.2743 396.459 82.4306 397.449 82.6389L395.651 104.983C394.869 104.722 393.749 104.54 392.29 104.436C390.883 104.28 389.658 104.201 388.616 104.201C385.541 104.201 382.544 104.592 379.626 105.373C376.76 106.155 374.18 107.431 371.887 109.201C369.594 110.92 367.77 113.212 366.415 116.076C365.112 118.889 364.461 122.352 364.461 126.467V170.92H340.619V83.5764H358.676L362.194 98.2639H363.367C365.086 95.2952 367.223 92.5868 369.777 90.1389C372.382 87.6389 375.327 85.6597 378.61 84.2014C381.945 82.691 385.541 81.9358 389.397 81.9358Z" fill="black"/>
<path d="M126.234 246.134V188.452C106.331 188.744 84.5808 187.156 61.9875 182.548L61.8809 182.444V216.815C61.8809 223.682 62.6206 229.229 64.1 233.455C65.5794 237.681 67.6752 240.983 70.3874 243.36C73.3461 245.737 76.9213 247.322 81.1129 248.115C85.551 249.171 90.6056 249.699 96.2765 249.699C101.948 249.699 107.618 249.303 113.289 248.511C119.207 247.718 123.522 246.926 126.234 246.134Z" fill="url(#paint0_linear_0_40)"/>
<path d="M126.234 170.064H128.975C154.278 169.554 181.876 165.794 205.398 155.033L205.381 155.008C216.23 148.669 225.599 139.689 233.489 128.067C241.379 116.445 245.324 102.446 245.324 86.0702C245.324 59.9212 236.694 39.1869 219.435 23.8673C202.176 8.54774 176.533 0.887939 142.507 0.887939C129.932 0.887939 118.097 1.68033 107.002 3.26512C95.9067 4.58577 86.1674 6.8309 77.7843 10.0005C72.853 11.8494 68.908 14.3586 65.9492 17.5282C63.237 20.4336 61.8809 24.6597 61.8809 30.2065V96.6423C73.2083 98.3764 116.208 102.092 125.864 101.68V57.9402C128.576 57.412 131.042 57.0158 133.261 56.7517C135.48 56.4875 138.439 56.3555 142.137 56.3555C155.205 56.3555 164.698 58.9968 170.615 64.2794C176.78 69.2979 179.862 76.8256 179.862 86.8626C179.862 96.8995 177.149 104.559 171.725 109.842C166.301 114.86 158.904 117.37 149.534 117.37H125.864V117.159C125.8 117.26 125.741 117.361 125.687 117.464C89.8061 115.738 68.0186 114.215 61.8668 113.352L61.8663 113.342L44.8202 111.648C43.264 111.494 42.1264 110.107 42.2793 108.55L43.2022 99.1565C43.4689 96.4416 40.1201 94.9528 38.2874 96.9715L2.71283 136.156C1.73946 137.228 1.73304 138.863 2.69797 139.945L31.2751 171.985C32.9177 173.827 35.9636 172.836 36.2047 170.381L36.8675 163.635C37.0282 161.999 38.543 160.845 40.1628 161.124L61.8809 164.864V164.996L61.9875 164.889C75.2753 167.128 99.3046 170.406 126.234 170.107V170.064Z" fill="url(#paint1_linear_0_40)"/>
<path d="M176.903 223.55L155.471 186.652C183.313 183.623 205.321 177.413 217.61 172.447C222.322 179.013 226.999 185.35 231.64 191.458C240.27 202.816 247.05 213.117 251.981 222.362C249.516 231.606 244.954 238.738 238.297 243.756C231.886 248.511 224.613 250.888 216.476 250.888C211.052 250.888 206.367 250.228 202.422 248.907C198.477 247.586 195.025 245.737 192.066 243.36C189.108 240.983 186.395 238.078 183.93 234.644C181.464 231.21 179.122 227.512 176.903 223.55Z" fill="url(#paint2_linear_0_40)"/>
<path d="M1.979 138.115C1.9921 138.77 2.23157 139.422 2.69789 139.945L31.275 171.985C32.9177 173.827 35.9635 172.836 36.2046 170.381L36.8675 163.635C37.0281 161.999 38.5429 160.845 40.1627 161.124L61.8808 164.864V164.996L61.9874 164.889C75.2752 167.128 99.3045 170.406 126.234 170.107V170.064H126.776V145.105L1.979 138.115Z" fill="url(#paint3_linear_0_40)"/>
<path d="M126.776 145.105L1.97908 138.115C1.96508 137.415 2.20986 136.71 2.71283 136.156L38.2874 96.9715C40.1201 94.9528 43.4689 96.4416 43.2022 99.1565L42.2793 108.55C42.1264 110.107 43.264 111.494 44.8202 111.648L61.8663 113.342L61.8668 113.352C68.0186 114.215 89.8061 115.738 125.687 117.464C125.741 117.361 125.8 117.26 125.864 117.159V117.37H126.776V145.105Z" fill="url(#paint4_linear_0_40)"/>
<defs>
<linearGradient id="paint0_linear_0_40" x1="60.1195" y1="-23.1414" x2="208.243" y2="302.783" gradientUnits="userSpaceOnUse">
<stop stop-color="#1EA0FF"/>
<stop offset="1" stop-color="#004EEB"/>
</linearGradient>
<linearGradient id="paint1_linear_0_40" x1="60.1195" y1="-23.1414" x2="208.243" y2="302.783" gradientUnits="userSpaceOnUse">
<stop stop-color="#1EA0FF"/>
<stop offset="1" stop-color="#004EEB"/>
</linearGradient>
<linearGradient id="paint2_linear_0_40" x1="60.1195" y1="-23.1414" x2="208.243" y2="302.783" gradientUnits="userSpaceOnUse">
<stop stop-color="#1EA0FF"/>
<stop offset="1" stop-color="#004EEB"/>
</linearGradient>
<linearGradient id="paint3_linear_0_40" x1="187.617" y1="154.746" x2="83.6648" y2="127.605" gradientUnits="userSpaceOnUse">
<stop stop-color="#1EA0FF"/>
<stop offset="1" stop-color="#004EEB"/>
</linearGradient>
<linearGradient id="paint4_linear_0_40" x1="42.2911" y1="78.7079" x2="231.834" y2="102.956" gradientUnits="userSpaceOnUse">
<stop stop-color="#1EA0FF"/>
<stop offset="1" stop-color="#004EEB"/>
</linearGradient>
</defs>
</svg>
