<svg xmlns="http://www.w3.org/2000/svg" fill="none" height="200" width="200"><path fill="#FAD408" d="M42.5 177.875a4 4 0 0 1 4-4h107.504c11.616 0 20.996-9.372 20.996-20.929V116a4 4 0 0 0-4-4h-8.75a4 4 0 0 0-4 4v32.75c0 4.657-3.735 8.375-8.342 8.375H46.5a4 4 0 0 1-4-4v-11.468c0-3.564-4.309-5.348-6.828-2.829l-23.844 23.844a3.999 3.999 0 0 0 0 5.656l23.844 23.844c2.52 2.519 6.828.735 6.828-2.829v-11.468zm116-154.75a4 4 0 0 1-4 4H46.996C35.38 27.125 26 36.497 26 48.055V85a4 4 0 0 0 4 4h8.75a4 4 0 0 0 4-4V52.25c0-4.657 3.735-8.375 8.342-8.375H154.5a4 4 0 0 1 4 4v11.468c0 3.564 4.309 5.348 6.828 2.829l23.844-23.844a4 4 0 0 0 0-5.656L165.328 8.828c-2.519-2.52-6.828-.735-6.828 2.829v11.468z" clip-rule="evenodd" fill-rule="evenodd"></path><path fill="#175EF2" d="M91.46 117.56v26.88c-1.027.28-2.66.56-4.9.84a49.74 49.74 0 0 1-6.44.42c-2.147 0-4.06-.187-5.74-.56-1.587-.28-2.94-.84-4.06-1.68-1.027-.84-1.82-2.007-2.38-3.5-.56-1.493-.84-3.453-.84-5.88V68.14c0-1.96.513-3.453 1.54-4.48 1.12-1.12 2.613-2.007 4.48-2.66 3.173-1.12 6.86-1.913 11.06-2.38 4.2-.56 8.68-.84 13.44-.84 12.88 0 22.587 2.707 29.12 8.12 6.533 5.413 9.8 12.74 9.8 21.98 0 5.787-1.493 10.733-4.48 14.84-2.987 4.107-6.533 7.28-10.64 9.52a328.475 328.475 0 0 0 9.94 12.88c3.267 4.013 5.833 7.653 7.7 10.92-.933 3.267-2.66 5.787-5.18 7.56-2.427 1.68-5.18 2.52-8.26 2.52-2.053 0-3.827-.233-5.32-.7-1.493-.467-2.8-1.12-3.92-1.96-1.12-.84-2.147-1.867-3.08-3.08a41.136 41.136 0 0 1-2.66-3.92l-11.76-18.9h-7.42zm8.82-18.62c3.547 0 6.347-.887 8.4-2.66 2.053-1.867 3.08-4.573 3.08-8.12 0-3.547-1.167-6.207-3.5-7.98-2.24-1.867-5.833-2.8-10.78-2.8-1.4 0-2.52.047-3.36.14a40.87 40.87 0 0 0-2.8.42v21h8.96z"></path></svg>