<svg
    width="16"
    height="16"
    viewBox="0 0 18 14"
    fill="none"
    xmlns="http://www.w3.org/2000/svg"
>
    <path
    fill-rule="evenodd"
    clip-rule="evenodd"
    d="M0 9C7.24238e-08 8.44771 0.447715 8 1 8L13 8C14.6569 8 16 6.65685 16 5L16 1C16 0.447715 16.4477 -7.24234e-08 17 0C17.5523 7.24233e-08 18 0.447715 18 1L18 5C18 7.76142 15.7614 10 13 10L1 10C0.447715 10 -7.24229e-08 9.55228 0 9Z"
    fill="currentColor"
    />
    <path
    fill-rule="evenodd"
    clip-rule="evenodd"
    d="M0.292893 9.70711C-0.0976311 9.31658 -0.097631 8.68342 0.292893 8.29289L4.29289 4.29289C4.68342 3.90237 5.31658 3.90237 5.70711 4.29289C6.09763 4.68342 6.09763 5.31658 5.70711 5.70711L2.41421 9L5.70711 12.2929C6.09763 12.6834 6.09763 13.3166 5.70711 13.7071C5.31658 14.0976 4.68342 14.0976 4.29289 13.7071L0.292893 9.70711Z"
    fill="currentColor"
    />
</svg>