<svg width="1200" height="144" viewBox="0 0 1200 144" fill="none" xmlns="http://www.w3.org/2000/svg">
<path opacity="0.15" d="M46.1041 4.81831C55.9034 1.04094 66.4104 -0.546967 76.8884 0.16597C87.3663 0.878906 97.5614 3.87543 106.759 8.94539C115.956 14.0153 123.933 21.036 130.13 29.5149C136.327 37.9939 140.594 47.7259 142.632 58.0284C144.669 68.331 144.429 78.9546 141.926 89.1542C139.424 99.3539 134.721 108.883 128.146 117.072C121.572 125.262 113.285 131.914 103.868 136.562C94.4501 141.211 84.1298 143.742 73.6303 143.98L72.9537 114.095C79.0941 113.956 85.1297 112.476 90.6372 109.757C96.1448 107.039 100.991 103.149 104.836 98.3591C108.681 93.5696 111.432 87.9969 112.895 82.0319C114.358 76.0669 114.499 69.8539 113.307 63.8287C112.116 57.8036 109.62 52.1121 105.996 47.1533C102.372 42.1946 97.7068 38.0888 92.328 35.1238C86.9492 32.1587 80.9869 30.4063 74.8591 29.9893C68.7314 29.5724 62.5866 30.501 56.8557 32.7101L46.1041 4.81831Z" fill="#AFA7FF"/>
<path opacity="0.3" d="M624 143.999H678.449C727.906 143.999 767.999 103.906 767.999 54.4484V-0.00012207H624V143.999Z" fill="#A9A0FF"/>
<g opacity="0.2">
<path d="M911.999 71.9985V143.998H840C840 104.231 872.233 71.9985 911.999 71.9985Z" fill="#8D83FF"/>
<path d="M911.999 0.000488281V71.9998C872.233 71.9998 840 39.7672 840 0.000488281H911.999Z" fill="#8D83FF"/>
<path d="M768 0.000488281H839.999C839.999 39.7672 807.767 71.9998 768 71.9998V0.000488281Z" fill="#8D83FF"/>
<path d="M839.999 143.998H768V71.9985C807.767 71.9985 839.999 104.231 839.999 143.998Z" fill="#8D83FF"/>
</g>
<path opacity="0.15" d="M993.717 9.73424C993.717 15.0963 983.999 72.6974 983.999 72.6974C983.999 72.6974 974.281 15.0963 974.281 9.73424C974.281 7.15256 975.305 4.67661 977.128 2.85109C978.95 1.02557 981.422 0 983.999 0C986.577 0 989.048 1.02557 990.871 2.85109C992.693 4.67661 993.717 7.15256 993.717 9.73424Z" fill="#AFA7FF"/>
<path opacity="0.15" d="M974.281 134.264C974.281 128.902 983.999 71.3008 983.999 71.3008C983.999 71.3008 993.717 128.902 993.717 134.264C993.717 136.846 992.693 139.322 990.871 141.147C989.048 142.973 986.577 143.998 983.999 143.998C981.422 143.998 978.95 142.973 977.128 141.147C975.305 139.322 974.281 136.846 974.281 134.264Z" fill="#AFA7FF"/>
<path opacity="0.15" d="M1046.27 81.7183C1040.91 81.7183 983.305 72.0003 983.305 72.0003C983.305 72.0003 1040.91 62.2822 1046.27 62.2822C1048.85 62.2822 1051.33 63.3061 1053.15 65.1286C1054.98 66.9511 1056 69.4229 1056 72.0003C1056 74.5777 1054.98 77.0495 1053.15 78.872C1051.33 80.6945 1048.85 81.7183 1046.27 81.7183Z" fill="#AFA7FF"/>
<path opacity="0.15" d="M921.734 62.2822C927.096 62.2822 984.697 72.0003 984.697 72.0003C984.697 72.0003 927.096 81.7183 921.734 81.7183C919.152 81.7183 916.677 80.6945 914.851 78.872C913.026 77.0495 912 74.5777 912 72.0003C912 69.4229 913.026 66.9511 914.851 65.1286C916.677 63.3061 919.152 62.2822 921.734 62.2822Z" fill="#AFA7FF"/>
<path opacity="0.15" d="M1034.99 34.8709C1031.17 38.6629 983.516 72.4812 983.516 72.4812C983.516 72.4812 1017.4 24.9171 1021.2 21.1045C1022.11 20.2006 1023.18 19.4836 1024.36 18.9944C1025.55 18.5052 1026.82 18.2534 1028.1 18.2534C1029.38 18.2534 1030.65 18.5052 1031.83 18.9944C1033.01 19.4836 1034.09 20.2006 1034.99 21.1045C1035.9 22.0084 1036.62 23.0815 1037.11 24.2626C1037.6 25.4436 1037.85 26.7094 1037.85 27.9877C1037.85 29.2661 1037.6 30.5319 1037.11 31.7129C1036.62 32.8939 1035.9 33.967 1034.99 34.8709Z" fill="#AFA7FF"/>
<path opacity="0.15" d="M933.105 109.202C936.918 105.402 984.482 71.5171 984.482 71.5171C984.482 71.5171 950.663 119.175 946.871 122.995C945.046 124.825 942.57 125.852 939.988 125.852C937.407 125.852 934.931 124.825 933.105 122.995C931.28 121.166 930.254 118.685 930.254 116.099C930.254 113.512 931.28 111.031 933.105 109.202Z" fill="#AFA7FF"/>
<path opacity="0.15" d="M1021.2 122.995C1017.4 119.175 983.516 71.5171 983.516 71.5171C983.516 71.5171 1031.17 105.402 1034.99 109.202C1036.82 111.031 1037.85 113.512 1037.85 116.099C1037.85 118.685 1036.82 121.166 1034.99 122.995C1033.16 124.825 1030.68 125.852 1028.1 125.852C1025.51 125.852 1023.03 124.825 1021.2 122.995Z" fill="#AFA7FF"/>
<path opacity="0.15" d="M946.871 21.1045C950.663 24.9171 984.482 72.4812 984.482 72.4812C984.482 72.4812 936.918 38.6629 933.105 34.8709C932.201 33.967 931.484 32.8939 930.995 31.7129C930.506 30.5319 930.254 29.2661 930.254 27.9877C930.254 26.7094 930.506 25.4436 930.995 24.2626C931.484 23.0815 932.201 22.0084 933.105 21.1045C934.009 20.2006 935.082 19.4836 936.263 18.9944C937.444 18.5052 938.71 18.2534 939.988 18.2534C941.267 18.2534 942.532 18.5052 943.713 18.9944C944.894 19.4836 945.967 20.2006 946.871 21.1045Z" fill="#AFA7FF"/>
<circle opacity="0.15" cx="1128" cy="71.9992" r="71.9993" transform="rotate(180 1128 71.9992)" fill="#AFA7FF"/>
</svg>
