<svg width="20" height="21" viewBox="0 0 20 21" fill="none" xmlns="http://www.w3.org/2000/svg">
<path d="M10.1566 2.16663C5.56158 2.16663 1.82324 5.90496 1.82324 10.5C1.82324 12.72 2.68991 14.8127 4.26491 16.3933C5.84435 17.9666 7.93658 18.8333 10.1566 18.8333C11.0782 18.8333 11.9771 18.6755 12.836 18.38C13.3655 18.6688 13.9727 18.8333 14.6171 18.8333C16.676 18.8333 18.3505 17.1583 18.3505 15.1C18.3505 14.4972 18.2038 13.9294 17.9488 13.425C18.3021 12.485 18.4894 11.5038 18.4894 10.5C18.4894 5.90496 14.7516 2.16663 10.1566 2.16663ZM10.1566 3.27774C14.1388 3.27774 17.3788 6.51774 17.3788 10.5C17.3788 11.1277 17.2905 11.745 17.1305 12.3466C16.4666 11.74 15.586 11.3666 14.6177 11.3666C14.2421 11.3666 13.8794 11.4238 13.5371 11.5272C13.1488 11.2677 12.7366 11.0561 12.3071 10.8938C13.1916 10.235 13.7677 9.1844 13.7677 7.9994C13.7677 6.00829 12.1477 4.38829 10.1566 4.38829C8.16546 4.38829 6.54546 6.00829 6.54546 7.9994C6.54546 9.18274 7.12046 10.2322 8.00269 10.8911C6.2638 11.5438 4.90046 12.9666 4.3438 14.7722C3.43324 13.5366 2.9338 12.0561 2.9338 10.4994C2.9338 6.51718 6.1738 3.27718 10.156 3.27718L10.1566 3.27774ZM7.65658 7.99996C7.65658 6.62163 8.77824 5.49996 10.1566 5.49996C11.5349 5.49996 12.6566 6.62163 12.6566 7.99996C12.6566 9.37829 11.5349 10.5 10.1566 10.5C8.77824 10.5 7.65658 9.37829 7.65658 7.99996ZM5.24991 15.7883C5.63102 13.3894 7.69102 11.6111 10.1566 11.6111C10.9338 11.6111 11.6838 11.79 12.3666 12.1288C11.4682 12.8111 10.8844 13.8872 10.8844 15.1C10.8844 16.0272 11.226 16.875 11.7877 17.5283C11.2566 17.6527 10.7121 17.7222 10.1566 17.7222C8.32269 17.7222 6.59324 17.0327 5.24991 15.7883ZM14.6177 17.7222C13.1716 17.7222 11.9955 16.5455 11.9955 15.1C11.9955 13.6544 13.1716 12.4777 14.6177 12.4777C16.0638 12.4777 17.2399 13.6538 17.2399 15.1C17.2399 16.5461 16.0632 17.7222 14.6177 17.7222Z" fill="#8F8F8F"/>
<path d="M15.8955 14.5444H15.1732V13.8222C15.1732 13.5155 14.9243 13.2666 14.6177 13.2666C14.311 13.2666 14.0621 13.5155 14.0621 13.8222V14.5444H13.3399C13.0332 14.5444 12.7843 14.7933 12.7843 15.1C12.7843 15.4066 13.0332 15.6555 13.3399 15.6555H14.0621V16.3777C14.0621 16.6844 14.311 16.9333 14.6177 16.9333C14.9243 16.9333 15.1732 16.6844 15.1732 16.3777V15.6555H15.8955C16.2021 15.6555 16.451 15.4066 16.451 15.1C16.451 14.7933 16.2021 14.5444 15.8955 14.5444Z" fill="#8F8F8F"/>
</svg>
