<svg width="20" height="21" viewBox="0 0 20 21" fill="none" xmlns="http://www.w3.org/2000/svg">
<path d="M5.81118 13.2346C5.69037 13.2346 5.57451 13.2826 5.48908 13.368C5.40366 13.4534 5.35566 13.5693 5.35566 13.6901C5.35566 13.8109 5.40366 13.9268 5.48908 14.0122C5.57451 14.0976 5.69037 14.1456 5.81118 14.1456H8.77887C8.89968 14.1456 9.01554 14.0976 9.10097 14.0122C9.18639 13.9268 9.23438 13.8109 9.23438 13.6901C9.23438 13.5693 9.18639 13.4534 9.10097 13.368C9.01554 13.2826 8.89968 13.2346 8.77887 13.2346H5.81118Z" fill="#8F8F8F"/>
<path d="M11.7023 11.4034C11.7023 11.2826 11.6543 11.1667 11.5689 11.0813C11.4835 10.9959 11.3676 10.9479 11.2468 10.9479H5.81313C5.69232 10.9479 5.57646 10.9959 5.49104 11.0813C5.40561 11.1667 5.35762 11.2826 5.35762 11.4034C5.35762 11.5242 5.40561 11.6401 5.49104 11.7255C5.57646 11.8109 5.69232 11.8589 5.81313 11.8589H11.2468C11.3676 11.8589 11.4835 11.8109 11.5689 11.7255C11.6543 11.6401 11.7023 11.5242 11.7023 11.4034Z" fill="#8F8F8F"/>
<path d="M5.81118 9.57192H10.5941C10.7149 9.57192 10.8308 9.52393 10.9162 9.4385C11.0016 9.35308 11.0496 9.23721 11.0496 9.1164C11.0496 8.99559 11.0016 8.87973 10.9162 8.7943C10.8308 8.70888 10.7149 8.66089 10.5941 8.66089H5.81118C5.69037 8.66089 5.57451 8.70888 5.48908 8.7943C5.40366 8.87973 5.35566 8.99559 5.35566 9.1164C5.35566 9.23721 5.40366 9.35308 5.48908 9.4385C5.57451 9.52393 5.69037 9.57192 5.81118 9.57192Z" fill="#8F8F8F"/>
<path d="M16.5975 16.5862C17.4705 16.529 18.1798 15.7663 18.1798 14.8894C18.1808 14.6813 18.1399 14.475 18.0595 14.283C17.9792 14.091 17.8609 13.9171 17.7119 13.7718C17.4158 13.482 17.0181 13.3195 16.6037 13.3192C16.2751 12.32 15.3413 11.6104 14.2731 11.6084C13.8408 11.6102 13.4166 11.7262 13.0436 11.9448C12.6706 12.1634 12.362 12.4767 12.1491 12.8529C11.7326 12.895 11.3431 13.0788 11.0458 13.3735C10.8759 13.5408 10.7411 13.7404 10.6495 13.9604C10.5578 14.1805 10.511 14.4167 10.5118 14.6552C10.5118 15.668 11.3292 16.5407 12.3339 16.6009C12.5315 16.6117 12.7296 16.6208 12.928 16.6282V16.908H12.193C12.1459 16.9077 12.0991 16.9168 12.0555 16.9347C12.0118 16.9526 11.9721 16.9789 11.9387 17.0121C11.9052 17.0454 11.8787 17.0849 11.8606 17.1285C11.8425 17.172 11.8332 17.2187 11.8332 17.2659V17.7C11.7108 17.7573 11.6117 17.8547 11.5521 17.9759C11.4925 18.0972 11.476 18.2352 11.5054 18.3671C11.5348 18.499 11.6083 18.6169 11.7137 18.7014C11.8191 18.786 11.9502 18.832 12.0853 18.832C12.2205 18.832 12.3515 18.786 12.457 18.7014C12.5624 18.6169 12.6359 18.499 12.6652 18.3671C12.6946 18.2352 12.6782 18.0972 12.6186 17.9759C12.559 17.8547 12.4598 17.7573 12.3375 17.7V17.4097H13.0748C13.1219 17.41 13.1687 17.4009 13.2123 17.383C13.256 17.3652 13.2957 17.3388 13.3291 17.3056C13.3626 17.2723 13.3891 17.2328 13.4072 17.1892C13.4253 17.1457 13.4346 17.099 13.4346 17.0518V16.6448C13.6543 16.6503 13.8742 16.6532 14.0942 16.6549V17.7006C13.9718 17.758 13.8727 17.8553 13.8131 17.9766C13.7535 18.0979 13.737 18.2358 13.7664 18.3677C13.7958 18.4996 13.8692 18.6176 13.9747 18.7021C14.0801 18.7866 14.2112 18.8327 14.3463 18.8327C14.4814 18.8327 14.6125 18.7866 14.718 18.7021C14.8234 18.6176 14.8968 18.4996 14.9262 18.3677C14.9556 18.2358 14.9391 18.0979 14.8796 17.9766C14.82 17.8553 14.7208 17.758 14.5985 17.7006V16.6542C14.8184 16.6529 15.0384 16.6494 15.2583 16.6438V17.0512C15.2583 17.0983 15.2676 17.145 15.2858 17.1886C15.3039 17.2321 15.3304 17.2717 15.3638 17.3049C15.3973 17.3382 15.437 17.3645 15.4806 17.3824C15.5243 17.4003 15.571 17.4093 15.6182 17.4091H16.3548V17.6993C16.2324 17.7566 16.1332 17.854 16.0736 17.9752C16.014 18.0965 15.9975 18.2345 16.0269 18.3664C16.0562 18.4983 16.1297 18.6163 16.2351 18.7008C16.3406 18.7854 16.4717 18.8315 16.6068 18.8315C16.742 18.8315 16.8731 18.7854 16.9785 18.7008C17.0839 18.6163 17.1574 18.4983 17.1867 18.3664C17.2161 18.2345 17.1996 18.0965 17.14 17.9752C17.0804 17.854 16.9812 17.7566 16.8588 17.6993V17.2653C16.8588 17.1703 16.8211 17.0793 16.754 17.0122C16.6869 16.9451 16.5958 16.9074 16.5009 16.9074H15.7626V16.6279C16.0414 16.6175 16.3197 16.6036 16.5975 16.5862ZM11.4242 14.6545C11.4237 14.5366 11.4468 14.4199 11.4921 14.311C11.5373 14.2022 11.6038 14.1035 11.6877 14.0207C11.8625 13.8486 12.0984 13.7528 12.3437 13.7542H12.3544C12.3713 13.7542 12.3879 13.7549 12.4042 13.7562C12.4987 13.7627 12.593 13.7395 12.6737 13.69C12.7545 13.6404 12.8178 13.5668 12.8548 13.4796C13.1021 12.8969 13.6595 12.5198 14.2738 12.5194C15.0407 12.5194 15.6989 13.109 15.8046 13.886C15.8135 13.9515 15.8365 14.0143 15.8721 14.0701C15.9077 14.1258 15.955 14.1731 16.0108 14.2087C16.0665 14.2443 16.1293 14.2674 16.1949 14.2763C16.2604 14.2851 16.3271 14.2796 16.3903 14.2602C16.4514 14.2412 16.5148 14.2308 16.5787 14.2292C16.6702 14.2263 16.7615 14.2418 16.847 14.2748C16.9324 14.3079 17.0104 14.3578 17.0762 14.4215C17.1384 14.4822 17.1877 14.5548 17.2212 14.635C17.2548 14.7151 17.2718 14.8012 17.2714 14.8881C17.2714 15.289 16.9366 15.6498 16.5419 15.6755C15.1594 15.7604 13.7732 15.765 12.3902 15.6892C11.8654 15.6592 11.4242 15.1849 11.4242 14.6545Z" fill="#8F8F8F"/>
<path d="M16.4193 11.7343C16.5818 11.7343 16.7377 11.6704 16.8534 11.5562C16.9691 11.4421 17.0352 11.2871 17.0375 11.1246C17.0508 10.1355 17.0443 9.11184 17.0173 8.14387C17.0173 7.68413 16.9847 7.3106 16.9847 7.29466C16.976 7.19145 16.9414 7.0921 16.8842 7.00573C15.6537 5.1423 14.0613 3.54512 12.2015 2.30904C12.1098 2.24791 12.0034 2.21241 11.8934 2.20622C11.5098 2.18442 11.1076 2.17726 11.0695 2.17661C9.46602 2.13819 6.19504 2.20427 4.60011 2.37444H4.59458C3.9497 2.44927 3.31035 2.77464 2.79399 3.29132C2.27763 3.80801 1.95193 4.44768 1.8771 5.09224C1.87726 5.09408 1.87726 5.09593 1.8771 5.09777C1.59631 7.72708 1.59631 12.5162 1.8771 15.1458C1.87728 15.1476 1.87728 15.1495 1.8771 15.1513C1.95193 15.7959 2.27763 16.4352 2.79399 16.9516C3.31035 17.468 3.9497 17.7937 4.59458 17.8685H4.60011C5.90294 18.0073 8.04556 18.0767 9.35576 18.0764H9.49567C9.83145 18.0764 10.1174 17.8132 10.1282 17.4774C10.1308 17.3946 10.1168 17.312 10.087 17.2347C10.0571 17.1574 10.012 17.0869 9.95429 17.0274C9.89662 16.9679 9.82756 16.9205 9.75124 16.8882C9.67491 16.8559 9.59287 16.8393 9.50998 16.8393C8.19336 16.8457 6.04407 16.7791 4.73481 16.6399C3.97117 16.5498 3.19614 15.7747 3.10602 15.0111C2.83791 12.4967 2.83791 7.74692 3.10602 5.23215C3.19582 4.46883 3.97085 3.69511 4.73481 3.60368C6.23189 3.44418 9.40422 3.37952 10.9095 3.41008C10.9163 4.14444 10.9579 4.88075 11.0354 5.60502V5.61738C11.105 6.21671 11.3969 6.8001 11.8569 7.2605C12.317 7.72089 12.9007 8.01242 13.5 8.08173H13.5121C14.266 8.16201 15.0234 8.20436 15.7815 8.20862C15.8072 9.15219 15.8141 10.1455 15.8004 11.1064C15.7991 11.1884 15.8142 11.2699 15.8447 11.3461C15.8752 11.4223 15.9206 11.4916 15.9782 11.55C16.0358 11.6085 16.1045 11.6549 16.1802 11.6865C16.2559 11.7182 16.3372 11.7344 16.4193 11.7343ZM13.6435 6.85379C13.3198 6.81637 12.9964 6.65043 12.7325 6.38623C12.4686 6.12203 12.3027 5.80057 12.2653 5.47845V5.47422C12.2057 4.91719 12.1677 4.35235 12.1533 3.78719C13.3678 4.6851 14.4436 5.7566 15.3465 6.96734C14.7794 6.95237 14.2097 6.9143 13.6461 6.85411L13.6435 6.85379Z" fill="#8F8F8F"/>
</svg>
