<svg width="145" height="34" viewBox="0 0 145 34" fill="none" xmlns="http://www.w3.org/2000/svg">
<path d="M17.2545 32.9824V25.2984C14.6007 25.3372 11.7007 25.1257 8.68829 24.5118L8.67408 24.498V29.0767C8.67408 29.9915 8.7727 30.7305 8.96995 31.2934C9.1672 31.8564 9.44664 32.2962 9.80827 32.6129C10.2028 32.9296 10.6795 33.1407 11.2383 33.2463C11.8301 33.387 12.504 33.4574 13.2602 33.4574C14.0163 33.4574 14.7724 33.4046 15.5285 33.299C16.3175 33.1935 16.8929 33.0879 17.2545 32.9824Z" fill="#5C5C5C"/>
<path d="M17.2545 22.8488H17.6198C20.9936 22.7808 24.6734 22.2799 27.8096 20.8464L27.8074 20.8431C29.2539 19.9987 30.5032 18.8023 31.5552 17.2542C32.6072 15.706 33.1332 13.8411 33.1332 11.6596C33.1332 8.17613 31.9825 5.41401 29.6813 3.37322C27.38 1.33242 23.961 0.312021 19.4242 0.312021C17.7476 0.312021 16.1696 0.41758 14.6902 0.628696C13.2108 0.804627 11.9123 1.10371 10.7945 1.52595C10.137 1.77225 9.61102 2.10651 9.21652 2.52875C8.85489 2.9158 8.67408 3.47877 8.67408 4.21768V13.0679C10.1844 13.2989 15.9177 13.7938 17.2052 13.7391V7.91223C17.5668 7.84186 17.8956 7.78908 18.1914 7.75389C18.4873 7.71871 18.8818 7.70112 19.3749 7.70112C21.1173 7.70112 22.383 8.05298 23.172 8.7567C23.9939 9.42524 24.4048 10.428 24.4048 11.7651C24.4048 13.1022 24.0432 14.1226 23.3199 14.8263C22.5967 15.4948 21.6104 15.8291 20.3612 15.8291H17.2052V15.8011C17.1966 15.8145 17.1888 15.828 17.1815 15.8417C12.3974 15.6118 9.49244 15.4088 8.6722 15.2938L8.67213 15.2926L6.39929 15.0669C6.19179 15.0463 6.04012 14.8614 6.06053 14.6539L6.18353 13.403C6.21911 13.0411 5.77279 12.8426 5.52834 13.1117L0.785293 18.3314C0.655353 18.4744 0.654482 18.6926 0.783273 18.8368L4.59337 23.1048C4.81243 23.3502 5.2184 23.218 5.25058 22.8908L5.3389 21.9926C5.36034 21.7746 5.5623 21.6207 5.77828 21.6578L8.67408 22.1561V22.1736L8.68829 22.1593C10.46 22.4577 13.6639 22.8943 17.2545 22.8545V22.8488Z" fill="#5C5C5C"/>
<path d="M24.0103 29.9739L21.1527 25.0586C24.865 24.655 27.7994 23.8278 29.4379 23.1662C30.0662 24.0409 30.6898 24.8851 31.3086 25.6988C32.4592 27.2118 33.3633 28.5841 34.0208 29.8156C33.6921 31.0471 33.0839 31.9972 32.1962 32.6657C31.3415 33.299 30.3717 33.6157 29.2868 33.6157C28.5635 33.6157 27.9389 33.5277 27.4129 33.3518C26.8869 33.1759 26.4267 32.9296 26.0321 32.6129C25.6376 32.2962 25.276 31.9092 24.9473 31.4518C24.6185 30.9943 24.3062 30.5017 24.0103 29.9739Z" fill="#5C5C5C"/>
<path d="M57 17H44" stroke="#5C5C5C" stroke-width="1.5" stroke-linecap="round" stroke-dasharray="2 6"/>
<path d="M101 17H88" stroke="#5C5C5C" stroke-width="1.5" stroke-linecap="round" stroke-dasharray="2 6"/>
<path d="M75 16.998C75 14.506 72.683 12 69.857 12H68.143C65.303 12 63 14.238 63 16.998C63 19.376 64.71 21.366 67 21.871C67.3754 21.9537 67.7586 21.9952 68.143 21.995M77.857 12C78.2503 12.0007 78.6313 12.042 79 12.124C81.29 12.629 83 14.619 83 16.998C82.9988 17.6874 82.8527 18.3688 82.5712 18.9981C82.2897 19.6274 81.8791 20.1906 81.366 20.651M71 16.998C71 19.489 73.317 21.995 76.143 21.995" stroke="#5C5C5C" stroke-width="1.5" stroke-linecap="round" stroke-linejoin="round"/>
<path d="M79 27.243L81.121 25.121M81.121 25.121L83.243 23M81.121 25.121L79 23M81.121 25.121L83.243 27.243" stroke="#DC2626" stroke-width="1.5" stroke-linecap="round" stroke-linejoin="round"/>
<path fill-rule="evenodd" clip-rule="evenodd" d="M127.667 0.333315C136.872 0.333315 144.333 7.9832 144.333 17.4215C144.333 24.9699 139.563 31.3732 132.945 33.6349C132.1 33.8032 131.8 33.2696 131.8 32.8146C131.8 32.2513 131.82 30.4113 131.82 28.1247C131.82 26.5313 131.287 25.4914 130.688 24.9614C134.4 24.5381 138.3 23.0929 138.3 16.5296C138.3 14.6629 137.653 13.1397 136.583 11.943C136.757 11.5113 137.328 9.77324 136.42 7.4199C136.42 7.4199 135.023 6.96202 131.842 9.17202C130.51 8.79369 129.083 8.60333 127.667 8.59666C126.25 8.60333 124.825 8.79369 123.495 9.17202C120.31 6.96202 118.91 7.4199 118.91 7.4199C118.005 9.77324 118.577 11.5113 118.748 11.943C117.683 13.1397 117.032 14.6629 117.032 16.5296C117.032 23.0763 120.923 24.5436 124.625 24.9752C124.148 25.4019 123.717 26.1546 123.567 27.2596C122.617 27.6963 120.203 28.452 118.717 25.8403C118.717 25.8403 117.835 24.1984 116.162 24.0784C116.162 24.0784 114.537 24.0568 116.048 25.1168C116.048 25.1168 117.14 25.6418 117.898 27.6168C117.898 27.6168 118.877 30.6668 123.513 29.6334C123.522 31.0618 123.537 32.4079 123.537 32.8146C123.537 33.2663 123.23 33.7949 122.398 33.6365C115.775 31.3782 111 24.9715 111 17.4215C111 7.9832 118.463 0.333315 127.667 0.333315Z" fill="#5C5C5C"/>
</svg>
