<svg width="13.33" height="11.67" viewBox="0 0 14 12" fill="none" xmlns="http://www.w3.org/2000/svg">
<path d="M6.75657 0.41107C7.08201 0.736507 7.08201 1.26414 6.75657 1.58958L3.17916 5.16699H12.834C13.2942 5.16699 13.6673 5.54009 13.6673 6.00033C13.6673 6.46056 13.2942 6.83366 12.834 6.83366H3.17916L6.75657 10.4111C7.08201 10.7365 7.08201 11.2641 6.75657 11.5896C6.43114 11.915 5.9035 11.915 5.57806 11.5896L0.578062 6.58958C0.421782 6.4333 0.333984 6.22134 0.333984 6.00033C0.333984 5.77931 0.421782 5.56735 0.578062 5.41107L5.57806 0.41107C5.9035 0.085633 6.43114 0.085633 6.75657 0.41107Z" fill="#B0B0B5"/>
</svg>
