<svg width="32" height="32" viewBox="0 0 32 32" fill="none" xmlns="http://www.w3.org/2000/svg">
<g clip-path="url(#clip0_16018_14472)">
<path d="M29.25 12.3192V2.1875C29.25 0.981313 28.2687 0 27.0625 0H8.6875C7.48131 0 6.5 0.981313 6.5 2.1875V4.375H4.9375C3.73131 4.375 2.75 5.35631 2.75 6.5625V8.63169C1.18288 8.95106 0 10.3399 0 12V28.5625C0 30.4579 1.54206 32 3.4375 32H28.5625C30.4579 32 32 30.4579 32 28.5625V15.6875C32 14.0274 30.8171 12.6386 29.25 12.3192ZM30.125 28.5625C30.125 29.4241 29.4241 30.125 28.5625 30.125H3.4375C2.57594 30.125 1.875 29.4241 1.875 28.5625V12C1.875 11.1384 2.57594 10.4375 3.4375 10.4375H8.42288C8.90038 10.4375 9.34519 10.6514 9.64331 11.0244L11.465 13.3034C11.4651 13.3034 11.4651 13.3035 11.4651 13.3036C11.8826 13.8256 12.5054 14.1251 13.1737 14.1251H28.5625C29.4241 14.1251 30.125 14.826 30.125 15.6876V28.5625ZM4.9375 6.25H23.3125C23.4848 6.25 23.625 6.39019 23.625 6.5625V12.25H13.1737C13.0783 12.25 12.9893 12.2072 12.9296 12.1326L11.1079 9.85363C10.4519 9.03306 9.47331 8.5625 8.42288 8.5625H4.625V6.5625C4.625 6.39019 4.76519 6.25 4.9375 6.25ZM8.6875 1.875H27.0625C27.2348 1.875 27.375 2.01519 27.375 2.1875V12.25H25.5V6.5625C25.5 5.35631 24.5187 4.375 23.3125 4.375H8.375V2.1875C8.375 2.01519 8.51519 1.875 8.6875 1.875Z" fill="#8F8F8F"/>
<path d="M20.3338 23.6189C20.1063 22.7068 19.4943 21.9747 18.696 21.5772C18.9681 21.1139 19.1249 20.5751 19.1249 20C19.1249 18.2769 17.723 16.875 15.9999 16.875C14.2768 16.875 12.8749 18.2769 12.8749 20C12.8749 20.5751 13.0317 21.1139 13.3038 21.5772C12.5055 21.9747 11.8935 22.7068 11.666 23.6189L11.158 25.6564C11.0467 26.1029 11.1453 26.5669 11.4286 26.9295C11.7118 27.2921 12.1382 27.5 12.5983 27.5H19.4015C19.8616 27.5 20.288 27.2921 20.5712 26.9295C20.8545 26.5669 20.9531 26.1029 20.8418 25.6565L20.3338 23.6189ZM15.9999 18.75C16.6892 18.75 17.2499 19.3108 17.2499 20C17.2499 20.6892 16.6892 21.25 15.9999 21.25C15.3107 21.25 14.7499 20.6892 14.7499 20C14.7499 19.3108 15.3107 18.75 15.9999 18.75ZM13.0983 25.625L13.4853 24.0726C13.6245 23.5146 14.1232 23.125 14.6982 23.125H17.3015C17.8765 23.125 18.3753 23.5146 18.5143 24.0726L18.9015 25.625H13.0983Z" fill="#8F8F8F"/>
</g>
<defs>
<clipPath id="clip0_16018_14472">
<rect width="32" height="32" fill="white"/>
</clipPath>
</defs>
</svg>
