<svg width="80" height="80" viewBox="0 0 80 80" fill="none" xmlns="http://www.w3.org/2000/svg">
<g clip-path="url(#clip0_12661_159135)">
<mask id="mask0_12661_159135" style="mask-type:luminance" maskUnits="userSpaceOnUse" x="0" y="0" width="81" height="80">
<path d="M0.000610352 7.62939e-06H80.0006V80H0.000610352V7.62939e-06Z" fill="white"/>
</mask>
<g mask="url(#mask0_12661_159135)">
<path d="M6.68817 2.34376H72.6257C75.2144 2.34376 77.3132 4.44251 77.3132 7.03126V72.9688C77.3132 75.5575 75.2144 77.6562 72.6257 77.6562H6.68817C4.09942 77.6562 2.00067 75.5575 2.00067 72.9688V7.03126C2.00067 4.44251 4.09942 2.34376 6.68817 2.34376Z" stroke="#5C5C5C" stroke-width="3" stroke-miterlimit="10" stroke-linecap="round" stroke-linejoin="round"/>
<path d="M2.34442 21.0938H31.2943C33.6616 21.0938 35.8257 19.7562 36.8844 17.6389L44.5319 2.34375" stroke="#5C5C5C" stroke-width="3" stroke-miterlimit="10" stroke-linecap="round" stroke-linejoin="round"/>
<path d="M9.37567 11.7188C9.37567 10.4244 10.425 9.375 11.7194 9.375C13.0138 9.375 14.0632 10.4244 14.0632 11.7188C14.0632 13.0131 13.0138 14.0625 11.7194 14.0625C10.425 14.0625 9.37567 13.0131 9.37567 11.7188Z" fill="#E43434"/>
<path d="M18.7507 11.7188C18.7507 10.4244 19.8 9.375 21.0944 9.375C22.3888 9.375 23.4382 10.4244 23.4382 11.7188C23.4382 13.0131 22.3888 14.0625 21.0944 14.0625C19.8 14.0625 18.7507 13.0131 18.7507 11.7188Z" fill="#E09400"/>
<path d="M28.1257 11.7188C28.1257 10.4244 29.175 9.375 30.4694 9.375C31.7638 9.375 32.8132 10.4244 32.8132 11.7188C32.8132 13.0131 31.7638 14.0625 30.4694 14.0625C29.175 14.0625 28.1257 13.0131 28.1257 11.7188Z" fill="#0BAA60"/>
<path d="M77.6569 11.7188H39.8444" stroke="#5C5C5C" stroke-width="3" stroke-miterlimit="10" stroke-linecap="round" stroke-linejoin="round"/>
<g clip-path="url(#clip1_12661_159135)">
<path d="M54.1595 56.0325C58.6151 51.5769 58.6151 44.3528 54.1595 39.8972C49.7038 35.4416 42.4798 35.4416 38.0242 39.8972C33.5686 44.3528 33.5686 51.5769 38.0242 56.0325C42.4798 60.4881 49.7038 60.4881 54.1595 56.0325Z" stroke="#5C5C5C" stroke-width="2.80497" stroke-miterlimit="10" stroke-linecap="round" stroke-linejoin="round"/>
<path d="M51.1671 47.9648H46.0922" stroke="#0BAA60" stroke-width="2.80497" stroke-miterlimit="10" stroke-linecap="round" stroke-linejoin="round"/>
<path d="M46.0922 42.7539V47.9653" stroke="#0BAA60" stroke-width="2.80497" stroke-miterlimit="10" stroke-linecap="round" stroke-linejoin="round"/>
<path d="M41.6406 29.0898L45.2379 30.8355L42.2418 33.4833" stroke="#0BAA60" stroke-width="2.33747" stroke-miterlimit="10" stroke-linecap="round" stroke-linejoin="round"/>
<path d="M30.6321 39.8427C33.2707 34.8806 38.0212 31.7641 43.1865 31.0117" stroke="#0BAA60" stroke-width="2.33747" stroke-miterlimit="10" stroke-linecap="round" stroke-linejoin="round"/>
<path d="M49.4594 31.2734C50.8661 31.601 52.2539 32.1148 53.5895 32.8251C61.8669 37.2266 65.009 47.505 60.6074 55.7826C57.9233 60.8304 53.0535 63.9684 47.7848 64.6505" stroke="#0BAA60" stroke-width="2.80497" stroke-miterlimit="10" stroke-linecap="round" stroke-linejoin="round" stroke-dasharray="1.87 5.61"/>
<path d="M29.747 52.1445H17.4027" stroke="#0BAA60" stroke-width="2.80497" stroke-miterlimit="10" stroke-linecap="round" stroke-linejoin="round"/>
<path d="M47.7877 64.6758H30.399" stroke="#0BAA60" stroke-width="2.80497" stroke-miterlimit="10" stroke-linecap="round" stroke-linejoin="round"/>
<path d="M33.4692 58.4102H23.0126" stroke="#0BAA60" stroke-width="2.80497" stroke-miterlimit="10" stroke-linecap="round" stroke-linejoin="round"/>
<path d="M30.3683 39.8047H26.0046" stroke="#0BAA60" stroke-width="2.80497" stroke-miterlimit="10" stroke-linecap="round" stroke-linejoin="round"/>
<path d="M28.4541 45.8828H23.0126" stroke="#0BAA60" stroke-width="2.80497" stroke-miterlimit="10" stroke-linecap="round" stroke-linejoin="round"/>
</g>
</g>
</g>
<defs>
<clipPath id="clip0_12661_159135">
<rect width="80" height="80" fill="white"/>
</clipPath>
<clipPath id="clip1_12661_159135">
<rect width="48" height="48" fill="white" transform="translate(16.0005 23)"/>
</clipPath>
</defs>
</svg>
