<svg width="400" height="89" viewBox="0 0 400 89" fill="none" xmlns="http://www.w3.org/2000/svg">
<path fill-rule="evenodd" clip-rule="evenodd" d="M390.58 0.375C390.427 0.896 389.798 2.232 389.658 2.333C389.595 2.379 389.489 2.665 389.423 2.97C389.357 3.274 389.197 3.563 389.069 3.612C388.94 3.662 388.834 3.887 388.834 4.113C388.834 4.339 388.722 4.636 388.584 4.774C388.447 4.911 388.334 5.159 388.334 5.325C388.334 5.49 388.222 5.719 388.084 5.833C387.947 5.947 387.834 6.167 387.834 6.322C387.834 6.476 387.724 6.749 387.59 6.926C387.455 7.104 387.343 7.377 387.34 7.532C387.337 7.687 387.176 7.925 386.983 8.061C386.79 8.196 386.677 8.381 386.734 8.472C386.828 8.624 385.84 10.789 385.44 11.308C385.344 11.431 385.247 11.662 385.223 11.82C385.199 11.978 385.068 12.321 384.932 12.583C384.796 12.845 384.723 13.122 384.77 13.198C384.817 13.274 384.739 13.38 384.597 13.435C384.454 13.49 384.259 13.829 384.162 14.189C384.065 14.549 383.93 14.809 383.862 14.767C383.794 14.725 383.723 14.879 383.704 15.11C383.685 15.34 383.526 15.711 383.351 15.933C383.171 16.163 383.071 16.48 383.12 16.669C383.2 16.977 383.03 17.091 382.605 17.013C382.524 16.998 382.502 17.151 382.554 17.353C382.615 17.583 382.529 17.873 382.326 18.132C382.147 18.359 382.001 18.647 382.001 18.772C382.001 18.898 381.926 19 381.834 19C381.743 19 381.665 19.131 381.662 19.292C381.659 19.452 381.511 19.883 381.334 20.25C381.157 20.617 381.01 21.015 381.007 21.135C381.004 21.255 380.932 21.31 380.848 21.258C380.764 21.206 380.646 21.386 380.586 21.657C380.527 21.928 380.258 22.58 379.99 23.106C379.721 23.631 379.501 24.154 379.501 24.269C379.501 24.383 379.388 24.589 379.25 24.727C379.112 24.865 378.983 25.171 378.964 25.406C378.931 25.803 378.801 25.912 378.44 25.846C378.36 25.832 378.341 26.002 378.396 26.224C378.46 26.478 378.409 26.702 378.26 26.826C378.129 26.934 377.974 27.243 377.915 27.512C377.856 27.78 377.739 28 377.654 28C377.57 28 377.498 28.094 377.495 28.208C377.492 28.323 377.345 28.717 377.168 29.083C376.991 29.45 376.843 29.836 376.84 29.941C376.837 30.045 376.717 30.176 376.574 30.231C376.43 30.286 376.351 30.392 376.397 30.466C376.442 30.54 376.222 31.122 375.907 31.759C375.592 32.396 375.335 33.085 375.334 33.292C375.334 33.514 375.232 33.667 375.084 33.667C374.872 33.667 374.745 34.069 374.811 34.532C374.82 34.595 374.679 34.694 374.496 34.751C374.258 34.827 374.185 34.966 374.237 35.249C374.28 35.487 374.215 35.677 374.071 35.732C373.941 35.782 373.834 36.004 373.834 36.224C373.834 36.445 373.722 36.719 373.584 36.833C373.447 36.947 373.334 37.139 373.334 37.259C373.334 37.378 373.241 37.575 373.126 37.696C373.011 37.818 372.891 38.102 372.859 38.328C372.827 38.555 372.658 38.921 372.484 39.142C372.31 39.364 372.168 39.676 372.168 39.835C372.168 39.995 372.055 40.219 371.918 40.333C371.78 40.447 371.668 40.711 371.668 40.919C371.668 41.127 371.555 41.341 371.418 41.394C371.28 41.446 371.168 41.67 371.168 41.891C371.168 42.112 371.055 42.386 370.918 42.5C370.78 42.614 370.668 42.881 370.668 43.093C370.668 43.334 370.541 43.518 370.327 43.586C370.093 43.66 370.017 43.787 370.083 43.995C370.19 44.334 369.545 45.547 369.329 45.413C369.172 45.316 368.334 43.601 368.334 43.377C368.334 43.298 368.241 43.14 368.126 43.025C368.011 42.91 367.918 42.758 367.918 42.687C367.918 42.561 367.434 41.508 367.142 41C367.063 40.862 366.957 40.637 366.906 40.5C366.855 40.362 366.711 40.025 366.585 39.75C366.46 39.475 366.31 39.081 366.251 38.875C366.193 38.669 366.075 38.5 365.99 38.5C365.904 38.5 365.834 38.31 365.834 38.078C365.834 37.846 365.722 37.613 365.584 37.56C365.447 37.508 365.334 37.29 365.334 37.077C365.334 36.865 365.226 36.582 365.093 36.449C364.96 36.316 364.797 35.992 364.732 35.728C364.666 35.465 364.475 35.025 364.308 34.75C364.141 34.475 363.922 34.063 363.822 33.833C363.721 33.604 363.533 33.204 363.404 32.945C363.274 32.685 363.168 32.376 363.168 32.257C363.168 32.138 363.055 31.947 362.918 31.833C362.78 31.719 362.668 31.49 362.668 31.325C362.668 31.159 362.555 30.911 362.418 30.774C362.28 30.636 362.168 30.411 362.168 30.274C362.168 30.136 362.073 29.925 361.958 29.804C361.843 29.682 361.673 29.358 361.579 29.083L361.41 28.583L356.914 28.539C351.887 28.489 351.744 28.519 352.258 29.514C352.392 29.772 352.501 30.09 352.501 30.221C352.501 30.352 352.614 30.553 352.751 30.667C352.888 30.781 353.001 31.006 353.001 31.167C353.001 31.328 353.101 31.542 353.223 31.643C353.357 31.755 353.414 32.034 353.367 32.354C353.315 32.706 353.35 32.844 353.47 32.769C353.65 32.658 354.061 33.218 353.911 33.368C353.868 33.411 353.983 33.583 354.167 33.749C354.351 33.915 354.501 34.218 354.501 34.422C354.501 34.626 354.614 34.886 354.751 35C354.888 35.114 355.001 35.308 355.001 35.432C355.001 35.711 355.688 37.063 355.869 37.139C355.941 37.169 356.001 37.321 356.001 37.475C356.001 37.629 356.147 38.027 356.325 38.359C356.503 38.692 356.615 38.997 356.574 39.038C356.533 39.079 356.649 39.249 356.833 39.416C357.017 39.582 357.168 39.842 357.168 39.994C357.168 40.146 357.276 40.415 357.408 40.593C357.549 40.783 357.608 41.089 357.551 41.333C357.498 41.563 357.511 41.697 357.581 41.633C357.765 41.463 358.168 41.921 358.168 42.301C358.168 42.48 358.28 42.719 358.418 42.833C358.555 42.947 358.668 43.192 358.668 43.377C358.668 43.562 358.893 44.079 359.168 44.526C359.443 44.973 359.668 45.44 359.668 45.563C359.668 45.687 359.818 45.979 360.001 46.212C360.184 46.445 360.334 46.751 360.334 46.891C360.334 47.032 360.404 47.19 360.488 47.242C360.573 47.294 360.69 47.556 360.749 47.824C360.808 48.091 360.963 48.4 361.095 48.509C361.227 48.618 361.334 48.878 361.334 49.086C361.334 49.294 361.455 49.511 361.602 49.567C361.796 49.641 361.84 49.789 361.762 50.099C361.692 50.377 361.715 50.49 361.828 50.421C361.923 50.362 362.001 50.435 362.001 50.583C362.001 50.745 362.078 50.805 362.194 50.734C362.326 50.652 362.357 50.728 362.293 50.974C362.241 51.172 362.267 51.333 362.35 51.333C362.433 51.333 362.501 51.446 362.501 51.583C362.501 51.721 362.576 51.833 362.668 51.833C362.759 51.833 362.834 51.916 362.834 52.016C362.834 52.215 363.267 53.262 363.516 53.667C363.601 53.804 363.713 54.029 363.766 54.167C363.818 54.304 364.005 54.725 364.181 55.102C364.357 55.478 364.501 55.872 364.501 55.977C364.501 56.081 364.57 56.167 364.654 56.167C364.739 56.167 364.856 56.388 364.916 56.659C364.975 56.93 365.174 57.342 365.358 57.576L365.692 58H369.315C373.382 58 373.257 58.035 373.828 56.75C374.033 56.292 374.305 55.704 374.434 55.445C374.562 55.185 374.668 54.876 374.668 54.757C374.668 54.638 374.78 54.447 374.918 54.333C375.055 54.219 375.168 53.956 375.168 53.747C375.168 53.539 375.28 53.326 375.418 53.273C375.564 53.217 375.668 52.967 375.668 52.672C375.668 52.384 375.748 52.185 375.855 52.208C375.958 52.231 376.12 52.025 376.213 51.75C376.307 51.475 376.437 51.212 376.5 51.167C376.564 51.121 376.671 50.859 376.739 50.585C376.806 50.311 376.932 50.042 377.02 49.988C377.108 49.934 377.214 49.701 377.255 49.471C377.297 49.241 377.557 48.63 377.833 48.113C378.109 47.596 378.334 47.068 378.334 46.94C378.334 46.812 378.447 46.614 378.584 46.5C378.722 46.386 378.834 46.149 378.834 45.974C378.834 45.799 378.947 45.613 379.084 45.56C379.222 45.508 379.334 45.353 379.334 45.216C379.334 45.08 379.438 44.769 379.565 44.526C379.927 43.834 380.837 41.844 380.835 41.751C380.835 41.704 380.984 41.386 381.167 41.044C381.351 40.702 381.501 40.359 381.501 40.282C381.501 40.206 381.614 40.03 381.751 39.893C381.888 39.755 382.001 39.431 382.001 39.173C382.001 38.908 382.111 38.66 382.251 38.606C382.388 38.554 382.501 38.321 382.501 38.089C382.501 37.857 382.575 37.667 382.664 37.667C382.754 37.667 382.874 37.482 382.931 37.257C382.987 37.031 383.139 36.76 383.267 36.653C383.396 36.546 383.501 36.286 383.501 36.075C383.501 35.863 383.614 35.578 383.751 35.44C383.888 35.303 384.001 35.097 384.001 34.983C384.001 34.869 384.112 34.654 384.247 34.504C384.382 34.355 384.516 34.086 384.544 33.908C384.571 33.729 384.665 33.471 384.752 33.333C385.091 32.795 385.47 31.98 385.574 31.564C385.635 31.323 385.793 31.018 385.926 30.885C386.059 30.752 386.168 30.461 386.168 30.238C386.168 29.989 386.264 29.833 386.418 29.833C386.582 29.833 386.668 29.669 386.668 29.351C386.668 29.076 386.775 28.828 386.918 28.773C387.055 28.72 387.168 28.496 387.168 28.276C387.168 28.055 387.28 27.781 387.418 27.667C387.555 27.553 387.668 27.328 387.668 27.167C387.668 27.006 387.78 26.781 387.918 26.667C388.055 26.553 388.168 26.29 388.168 26.083C388.168 25.877 388.28 25.614 388.418 25.5C388.555 25.386 388.668 25.162 388.668 25.002C388.668 24.842 388.818 24.521 389.001 24.288C389.184 24.055 389.337 23.763 389.34 23.64C389.343 23.517 389.455 23.271 389.59 23.093C389.724 22.915 389.834 22.632 389.834 22.463C389.834 22.294 389.947 22.113 390.084 22.06C390.222 22.008 390.334 21.794 390.334 21.586C390.334 21.378 390.447 21.114 390.584 21C390.722 20.886 390.837 20.67 390.84 20.521C390.843 20.372 390.955 20.104 391.09 19.926C391.224 19.749 391.334 19.43 391.334 19.218C391.334 18.987 391.434 18.833 391.584 18.833C391.736 18.833 391.834 18.678 391.834 18.437C391.834 18.219 391.947 17.947 392.084 17.833C392.222 17.719 392.334 17.514 392.334 17.378C392.334 17.158 393.132 15.359 393.769 14.141C393.897 13.898 394.001 13.579 394.001 13.433C394.001 13.286 394.075 13.167 394.164 13.167C394.254 13.167 394.374 12.982 394.431 12.757C394.487 12.531 394.639 12.26 394.767 12.153C394.896 12.046 395.001 11.779 395.001 11.558C395.001 11.337 395.097 11.119 395.215 11.074C395.333 11.029 395.445 10.793 395.466 10.55C395.486 10.307 395.614 9.984 395.752 9.833C395.889 9.681 396.001 9.441 396.001 9.299C396.001 9.157 396.114 8.947 396.251 8.833C396.388 8.719 396.501 8.494 396.501 8.333C396.501 8.172 396.614 7.947 396.751 7.833C396.888 7.719 397.001 7.549 397.001 7.456C397.001 7.29 397.481 6.189 397.938 5.308C398.064 5.064 398.168 4.778 398.168 4.671C398.168 4.564 398.28 4.364 398.418 4.226C398.555 4.089 398.668 3.829 398.668 3.65C398.668 3.47 398.78 3.28 398.918 3.227C399.055 3.174 399.168 2.952 399.168 2.732C399.168 2.513 399.239 2.333 399.327 2.333C399.414 2.333 399.535 2.071 399.595 1.75C399.656 1.429 399.771 1.167 399.853 1.167C399.934 1.167 400.001 0.904 400.001 0.583V0H395.346H390.69L390.58 0.375Z" fill="#676767"/>
<path fill-rule="evenodd" clip-rule="evenodd" d="M159.374 8.11C159.211 8.176 159.166 9.998 159.166 16.431V24.667H168.499H177.832V16.333V8L168.707 8.013C163.689 8.02 159.489 8.064 159.374 8.11ZM79.999 27.083C79.999 27.283 79.748 27.333 78.744 27.333C77.782 27.333 77.466 27.392 77.393 27.583C77.324 27.763 77.042 27.833 76.393 27.833C75.743 27.833 75.462 27.904 75.393 28.083C75.334 28.236 75.081 28.333 74.743 28.333C74.439 28.333 74.077 28.446 73.939 28.583C73.802 28.721 73.494 28.833 73.256 28.833C73.017 28.833 72.78 28.941 72.73 29.073C72.679 29.205 72.419 29.361 72.152 29.42C71.884 29.478 71.666 29.633 71.666 29.763C71.666 29.916 71.486 30 71.16 30C70.865 30 70.615 30.104 70.559 30.25C70.505 30.393 70.256 30.5 69.981 30.5C69.664 30.5 69.499 30.585 69.499 30.75C69.499 30.906 69.341 31 69.077 31C68.845 31 68.612 31.113 68.559 31.25C68.507 31.387 68.359 31.5 68.231 31.5C68.103 31.5 67.999 31.613 67.999 31.75C67.999 31.887 67.854 32 67.678 32C67.501 32 67.244 32.112 67.106 32.25C66.969 32.387 66.776 32.5 66.678 32.5C66.579 32.5 66.499 32.612 66.499 32.75C66.499 32.887 66.416 33 66.314 33C66.058 33 65.339 33.704 65.335 33.958C65.334 34.073 65.22 34.167 65.082 34.167C64.945 34.167 64.832 34.279 64.832 34.417C64.832 34.554 64.72 34.667 64.582 34.667C64.445 34.667 64.332 34.779 64.332 34.917C64.332 35.054 64.257 35.167 64.166 35.167C63.95 35.167 63.332 35.784 63.332 36C63.332 36.092 63.22 36.167 63.082 36.167C62.945 36.167 62.832 36.279 62.832 36.417C62.832 36.554 62.749 36.667 62.647 36.667C62.391 36.667 61.672 37.371 61.669 37.625C61.667 37.74 61.553 37.833 61.416 37.833C61.249 37.833 61.166 38 61.166 38.333C61.166 38.667 61.082 38.833 60.916 38.833C60.778 38.833 60.666 38.946 60.666 39.083C60.666 39.221 60.553 39.333 60.416 39.333C60.249 39.333 60.166 39.5 60.166 39.833C60.166 40.167 60.082 40.333 59.916 40.333C59.778 40.333 59.666 40.448 59.666 40.589C59.666 40.729 59.553 40.887 59.416 40.94C59.273 40.994 59.166 41.243 59.166 41.518C59.166 41.835 59.08 42 58.916 42C58.749 42 58.666 42.167 58.666 42.5C58.666 42.826 58.581 43 58.423 43C58.279 43 58.137 43.233 58.072 43.577C58.013 43.895 57.859 44.242 57.732 44.348C57.604 44.454 57.499 44.749 57.499 45.003C57.499 45.259 57.388 45.507 57.249 45.56C57.078 45.626 56.999 45.894 56.999 46.411C56.999 46.972 56.934 47.167 56.749 47.167C56.555 47.167 56.499 47.389 56.499 48.167C56.499 48.944 56.443 49.167 56.249 49.167C56.048 49.167 55.999 49.426 55.999 50.5C55.999 51.574 55.95 51.833 55.749 51.833C55.531 51.833 55.499 52.602 55.499 57.75C55.499 62.898 55.531 63.667 55.749 63.667C55.949 63.667 55.999 63.917 55.999 64.922C55.999 65.884 56.057 66.2 56.249 66.273C56.423 66.34 56.499 66.612 56.499 67.173C56.499 67.665 56.596 68.073 56.749 68.226C56.887 68.364 56.999 68.739 56.999 69.06C56.999 69.38 57.111 69.755 57.249 69.893C57.386 70.03 57.499 70.336 57.499 70.571C57.499 70.841 57.592 71 57.749 71C57.915 71 57.999 71.166 57.999 71.494C57.999 71.818 58.114 72.05 58.332 72.167C58.523 72.269 58.666 72.516 58.666 72.744C58.666 72.963 58.778 73.255 58.916 73.393C59.053 73.53 59.166 73.761 59.166 73.905C59.166 74.049 59.278 74.167 59.416 74.167C59.582 74.167 59.666 74.333 59.666 74.667C59.666 74.954 59.754 75.168 59.874 75.17C59.989 75.172 60.253 75.547 60.461 76.003C60.669 76.46 60.912 76.833 61.002 76.833C61.092 76.833 61.166 76.946 61.166 77.083C61.166 77.221 61.272 77.333 61.402 77.333C61.533 77.333 61.689 77.558 61.749 77.833C61.809 78.108 61.965 78.333 62.096 78.333C62.226 78.333 62.332 78.446 62.332 78.583C62.332 78.721 62.445 78.833 62.582 78.833C62.72 78.833 62.832 78.946 62.832 79.083C62.832 79.221 62.945 79.333 63.082 79.333C63.22 79.333 63.332 79.446 63.332 79.583C63.332 79.721 63.445 79.833 63.582 79.833C63.72 79.833 63.832 79.916 63.832 80.018C63.832 80.309 65.599 82 65.903 82C66.053 82 66.219 82.112 66.272 82.25C66.325 82.387 66.51 82.5 66.683 82.5C66.857 82.5 66.999 82.612 66.999 82.75C66.999 82.887 67.111 83 67.249 83C67.386 83 67.499 83.112 67.499 83.25C67.499 83.417 67.666 83.5 67.999 83.5C68.332 83.5 68.499 83.583 68.499 83.75C68.499 83.887 68.611 84 68.749 84C68.886 84 68.999 84.107 68.999 84.237C68.999 84.367 69.218 84.522 69.485 84.58C69.752 84.639 70.013 84.795 70.063 84.927C70.115 85.063 70.375 85.167 70.66 85.167C70.998 85.167 71.166 85.249 71.166 85.417C71.166 85.583 71.332 85.667 71.666 85.667C71.999 85.667 72.166 85.75 72.166 85.917C72.166 86.085 72.334 86.167 72.678 86.167C72.959 86.167 73.302 86.279 73.439 86.417C73.577 86.554 73.947 86.667 74.261 86.667C74.658 86.667 74.832 86.743 74.832 86.917C74.832 87.111 75.055 87.167 75.832 87.167C76.61 87.167 76.832 87.222 76.832 87.417C76.832 87.613 77.064 87.667 77.916 87.667C78.768 87.667 78.999 87.72 78.999 87.917C78.999 88.124 79.314 88.167 80.832 88.167C81.943 88.167 82.666 88.232 82.666 88.333C82.666 88.439 83.971 88.5 86.249 88.5C88.527 88.5 89.832 88.439 89.832 88.333C89.832 88.232 90.555 88.167 91.666 88.167C93.184 88.167 93.499 88.124 93.499 87.917C93.499 87.723 93.719 87.667 94.479 87.667C95.146 87.667 95.524 87.587 95.666 87.417C95.799 87.257 96.167 87.167 96.691 87.167C97.265 87.167 97.538 87.092 97.605 86.917C97.659 86.776 97.907 86.667 98.172 86.667C98.43 86.667 98.754 86.554 98.892 86.417C99.029 86.279 99.372 86.167 99.654 86.167C99.998 86.167 100.166 86.085 100.166 85.917C100.166 85.749 100.333 85.667 100.671 85.667C100.966 85.667 101.216 85.563 101.272 85.417C101.325 85.279 101.505 85.167 101.672 85.167C101.839 85.167 102.088 85.054 102.225 84.917C102.363 84.779 102.544 84.667 102.628 84.667C102.712 84.667 102.916 84.517 103.082 84.333C103.248 84.15 103.485 84 103.608 84C103.731 84 103.832 83.887 103.832 83.75C103.832 83.583 103.999 83.5 104.332 83.5C104.666 83.5 104.832 83.417 104.832 83.25C104.832 83.111 104.98 83 105.166 83C105.351 83 105.499 82.889 105.499 82.75C105.499 82.612 105.611 82.5 105.749 82.5C105.887 82.5 105.999 82.387 105.999 82.25C105.999 82.112 106.111 82 106.249 82C106.387 82 106.499 81.923 106.499 81.83C106.499 81.736 106.705 81.567 106.957 81.455C107.57 81.181 107.999 80.807 107.999 80.546C107.999 80.429 108.111 80.333 108.249 80.333C108.387 80.333 108.499 80.221 108.499 80.083C108.499 79.946 108.611 79.833 108.749 79.833C108.887 79.833 108.999 79.758 108.999 79.667C108.999 79.575 109.149 79.35 109.332 79.167C109.516 78.983 109.666 78.721 109.666 78.583C109.666 78.446 109.778 78.333 109.916 78.333C110.053 78.333 110.166 78.221 110.166 78.083C110.166 77.946 110.278 77.833 110.416 77.833C110.553 77.833 110.666 77.729 110.666 77.601C110.666 77.473 110.778 77.326 110.916 77.273C111.053 77.22 111.166 76.987 111.166 76.755C111.166 76.491 111.259 76.333 111.416 76.333C111.555 76.333 111.666 76.185 111.666 76C111.666 75.815 111.777 75.667 111.916 75.667C112.082 75.667 112.166 75.5 112.166 75.167C112.166 74.851 112.251 74.667 112.398 74.667C112.525 74.667 112.679 74.47 112.739 74.23C112.799 73.99 112.958 73.684 113.091 73.551C113.224 73.418 113.332 73.06 113.332 72.756C113.332 72.418 113.43 72.165 113.582 72.106C113.752 72.041 113.832 71.775 113.832 71.273C113.832 70.771 113.912 70.505 114.082 70.44C114.247 70.376 114.332 70.115 114.332 69.672V69H105.249H96.166V69.5C96.166 69.81 96.08 70 95.939 70C95.636 70 94.861 71.057 94.566 71.875C94.508 72.035 94.356 72.167 94.23 72.167C94.103 72.167 93.999 72.279 93.999 72.417C93.999 72.583 93.832 72.667 93.499 72.667C93.166 72.667 92.999 72.75 92.999 72.917C92.999 73.054 92.887 73.167 92.749 73.167C92.611 73.167 92.499 73.279 92.499 73.417C92.499 73.584 92.332 73.667 91.994 73.667C91.698 73.667 91.449 73.771 91.393 73.917C91.327 74.086 91.062 74.167 90.565 74.167C90.025 74.167 89.832 74.232 89.832 74.417C89.832 74.631 89.342 74.667 86.416 74.667C83.49 74.667 82.999 74.631 82.999 74.417C82.999 74.231 82.805 74.167 82.249 74.167C81.693 74.167 81.499 74.102 81.499 73.917C81.499 73.752 81.334 73.667 81.017 73.667C80.742 73.667 80.493 73.559 80.439 73.417C80.386 73.279 80.161 73.167 79.939 73.167C79.716 73.167 79.491 73.054 79.439 72.917C79.386 72.779 79.228 72.667 79.088 72.667C78.947 72.667 78.832 72.554 78.832 72.417C78.832 72.279 78.72 72.167 78.582 72.167C78.445 72.167 78.332 72.09 78.332 71.996C78.332 71.902 78.144 71.753 77.914 71.666C77.683 71.578 77.409 71.318 77.304 71.087C77.198 70.856 77.049 70.667 76.972 70.667C76.895 70.667 76.832 70.552 76.832 70.411C76.832 70.271 76.72 70.113 76.582 70.06C76.445 70.008 76.332 69.86 76.332 69.732C76.332 69.604 76.22 69.5 76.082 69.5C75.945 69.5 75.832 69.355 75.832 69.179C75.832 69.002 75.724 68.748 75.591 68.615C75.458 68.482 75.299 68.177 75.239 67.937C75.179 67.697 75.025 67.5 74.898 67.5C74.744 67.5 74.666 67.304 74.666 66.917C74.666 66.509 74.59 66.333 74.416 66.333C74.224 66.333 74.166 66.12 74.166 65.411C74.166 64.746 74.096 64.463 73.916 64.394C73.773 64.339 73.666 64.09 73.666 63.816V63.333H94.177C107.997 63.333 114.793 63.277 115.01 63.161C115.435 62.933 115.493 60.351 115.082 59.94C114.878 59.736 114.832 59.126 114.832 56.613C114.832 54.031 114.792 53.52 114.582 53.44C114.393 53.367 114.332 53.059 114.332 52.16C114.332 51.33 114.258 50.901 114.082 50.726C113.924 50.568 113.832 50.157 113.832 49.603C113.832 49.094 113.73 48.596 113.588 48.407C113.453 48.229 113.341 47.8 113.338 47.453C113.334 47.05 113.242 46.788 113.082 46.727C112.93 46.668 112.832 46.416 112.832 46.079C112.832 45.362 112.687 45 112.398 45C112.238 45 112.166 44.791 112.166 44.328C112.166 43.885 112.081 43.624 111.916 43.56C111.773 43.506 111.666 43.257 111.666 42.982C111.666 42.665 111.58 42.5 111.416 42.5C111.248 42.5 111.166 42.333 111.166 41.995C111.166 41.699 111.062 41.45 110.916 41.394C110.778 41.341 110.666 41.116 110.666 40.894C110.666 40.671 110.553 40.446 110.416 40.394C110.278 40.341 110.166 40.201 110.166 40.083C110.166 39.965 110.053 39.826 109.916 39.773C109.778 39.72 109.666 39.487 109.666 39.255C109.666 39.023 109.572 38.83 109.457 38.827C109.343 38.823 109.068 38.448 108.846 37.994C108.625 37.539 108.344 37.167 108.221 37.167C108.099 37.167 107.999 37.054 107.999 36.917C107.999 36.779 107.887 36.667 107.749 36.667C107.611 36.667 107.499 36.554 107.499 36.417C107.499 36.279 107.395 36.167 107.267 36.167C107.14 36.167 106.988 35.979 106.931 35.75C106.873 35.521 106.752 35.333 106.662 35.333C106.573 35.333 106.499 35.248 106.499 35.144C106.499 34.968 105.74 34.167 105.574 34.167C105.506 34.167 105.32 34.009 104.485 33.242C104.34 33.109 104.134 33 104.027 33C103.92 33 103.832 32.887 103.832 32.75C103.832 32.612 103.72 32.5 103.582 32.5C103.445 32.5 103.332 32.387 103.332 32.25C103.332 32.112 103.228 32 103.1 32C102.972 32 102.825 31.887 102.772 31.75C102.719 31.613 102.486 31.5 102.254 31.5C101.99 31.5 101.832 31.406 101.832 31.25C101.832 31.113 101.717 31 101.577 31C101.437 31 101.279 30.887 101.226 30.75C101.173 30.613 100.948 30.5 100.726 30.5C100.504 30.5 100.279 30.387 100.226 30.25C100.171 30.107 99.923 30 99.648 30C99.33 30 99.166 29.915 99.166 29.75C99.166 29.613 99.027 29.5 98.858 29.5C98.689 29.5 98.377 29.35 98.166 29.167C97.954 28.983 97.577 28.833 97.327 28.833C97.077 28.833 96.78 28.721 96.666 28.583C96.546 28.439 96.182 28.333 95.807 28.333C95.381 28.333 95.122 28.247 95.059 28.083C94.995 27.915 94.73 27.833 94.249 27.833C93.768 27.833 93.503 27.752 93.439 27.583C93.364 27.388 93.03 27.333 91.916 27.333C90.801 27.333 90.468 27.279 90.393 27.083C90.31 26.869 89.571 26.833 85.148 26.833C80.682 26.833 79.999 26.867 79.999 27.083ZM258.666 27.083C258.666 27.288 258.379 27.333 257.082 27.333C255.786 27.333 255.499 27.379 255.499 27.583C255.499 27.778 255.276 27.833 254.494 27.833C253.754 27.833 253.463 27.899 253.393 28.083C253.327 28.253 253.062 28.333 252.565 28.333C252.025 28.333 251.832 28.399 251.832 28.583C251.832 28.769 251.638 28.833 251.082 28.833C250.553 28.833 250.332 28.902 250.332 29.065C250.332 29.196 250.087 29.342 249.765 29.403C249.453 29.461 249.155 29.62 249.104 29.755C249.045 29.907 248.785 30 248.416 30C248.058 30 247.786 30.094 247.732 30.235C247.682 30.364 247.459 30.516 247.237 30.571C247.014 30.627 246.832 30.747 246.832 30.837C246.832 30.926 246.682 31 246.499 31C246.314 31 246.166 31.111 246.166 31.25C246.166 31.417 245.998 31.5 245.66 31.5C245.365 31.5 245.115 31.604 245.059 31.75C245.007 31.887 244.859 32 244.731 32C244.603 32 244.499 32.112 244.499 32.25C244.499 32.387 244.355 32.5 244.18 32.5C243.824 32.5 242.499 33.657 242.499 33.968C242.499 34.077 242.386 34.167 242.249 34.167C242.111 34.167 241.999 34.279 241.999 34.417C241.999 34.554 241.886 34.667 241.749 34.667C241.611 34.667 241.33 34.82 241.124 35.009C240.207 35.844 239.833 36.265 239.833 36.458C239.832 36.573 239.72 36.667 239.582 36.667C239.445 36.667 239.332 36.779 239.332 36.917C239.332 37.054 239.22 37.167 239.082 37.167C238.945 37.167 238.832 37.271 238.832 37.399C238.832 37.527 238.72 37.674 238.582 37.727C238.445 37.78 238.332 37.938 238.332 38.078C238.332 38.218 238.22 38.333 238.082 38.333C237.916 38.333 237.832 38.5 237.832 38.833C237.832 39.121 237.744 39.335 237.624 39.336C237.296 39.341 236.666 40.094 236.666 40.482C236.666 40.683 236.559 40.833 236.416 40.833C236.278 40.833 236.166 40.951 236.166 41.095C236.166 41.239 236.053 41.47 235.916 41.607C235.778 41.745 235.666 42.002 235.666 42.179C235.666 42.355 235.553 42.5 235.416 42.5C235.251 42.5 235.166 42.665 235.166 42.982C235.166 43.257 235.058 43.506 234.916 43.56C234.758 43.621 234.666 43.876 234.666 44.25C234.666 44.624 234.573 44.879 234.416 44.94C234.261 44.999 234.166 45.252 234.166 45.601C234.166 45.993 234.089 46.167 233.916 46.167C233.73 46.167 233.666 46.361 233.666 46.917C233.666 47.444 233.597 47.667 233.435 47.667C233.17 47.667 233.007 48.161 232.996 49C232.992 49.321 232.878 49.729 232.744 49.907C232.578 50.126 232.499 50.643 232.499 51.514C232.499 52.501 232.441 52.82 232.249 52.894C232.035 52.976 231.999 53.679 231.999 57.81C231.999 61.942 232.035 62.645 232.249 62.727C232.442 62.801 232.499 63.124 232.499 64.15C232.499 65.042 232.573 65.55 232.724 65.701C232.848 65.825 232.988 66.328 233.035 66.819C233.092 67.404 233.215 67.764 233.393 67.864C233.582 67.97 233.666 68.245 233.666 68.758C233.666 69.306 233.731 69.5 233.916 69.5C234.081 69.5 234.166 69.665 234.166 69.988C234.166 70.257 234.278 70.589 234.416 70.726C234.553 70.864 234.666 71.207 234.666 71.488C234.666 71.832 234.748 72 234.916 72C235.083 72 235.166 72.167 235.166 72.505C235.166 72.801 235.27 73.05 235.416 73.106C235.553 73.159 235.666 73.384 235.666 73.606C235.666 73.829 235.778 74.054 235.916 74.106C236.053 74.159 236.166 74.307 236.166 74.434C236.166 74.562 236.278 74.667 236.416 74.667C236.582 74.667 236.666 74.833 236.666 75.167C236.666 75.481 236.751 75.667 236.896 75.667C237.023 75.667 237.166 75.817 237.214 76C237.262 76.183 237.421 76.333 237.567 76.333C237.751 76.333 237.832 76.487 237.832 76.833C237.832 77.167 237.916 77.333 238.082 77.333C238.22 77.333 238.332 77.446 238.332 77.583C238.332 77.721 238.445 77.833 238.582 77.833C238.72 77.833 238.832 77.946 238.832 78.083C238.832 78.221 238.945 78.333 239.082 78.333C239.22 78.333 239.332 78.446 239.332 78.583C239.332 78.721 239.445 78.833 239.582 78.833C239.72 78.833 239.832 78.972 239.832 79.142C239.832 79.52 240.488 80.254 240.958 80.404C241.147 80.464 241.344 80.622 241.395 80.756C241.446 80.89 241.603 81 241.744 81C241.884 81 241.999 81.112 241.999 81.25C241.999 81.387 242.111 81.5 242.249 81.5C242.386 81.5 242.499 81.612 242.499 81.75C242.499 81.887 242.611 82 242.749 82C242.886 82 242.999 82.112 242.999 82.25C242.999 82.387 243.111 82.5 243.249 82.5C243.386 82.5 243.499 82.612 243.499 82.75C243.499 82.917 243.666 83 243.999 83C244.332 83 244.499 83.083 244.499 83.25C244.499 83.387 244.603 83.5 244.731 83.5C244.859 83.5 245.007 83.613 245.059 83.75C245.115 83.896 245.365 84 245.66 84C246.055 84 246.166 84.073 246.166 84.333C246.166 84.519 246.277 84.667 246.416 84.667C246.553 84.667 246.666 84.736 246.666 84.82C246.666 84.904 246.884 85.022 247.152 85.08C247.419 85.139 247.679 85.295 247.73 85.427C247.78 85.559 248.003 85.667 248.223 85.667C248.444 85.667 248.718 85.779 248.832 85.917C248.946 86.054 249.199 86.169 249.394 86.172C249.589 86.175 249.895 86.287 250.073 86.422C250.25 86.557 250.607 86.667 250.864 86.667C251.169 86.667 251.332 86.754 251.332 86.917C251.332 87.101 251.525 87.167 252.065 87.167C252.562 87.167 252.827 87.247 252.893 87.417C252.963 87.6 253.252 87.667 253.976 87.667C254.7 87.667 254.989 87.733 255.059 87.917C255.135 88.113 255.476 88.167 256.66 88.167C257.553 88.167 258.166 88.235 258.166 88.333C258.166 88.441 259.971 88.5 263.249 88.5C266.527 88.5 268.332 88.441 268.332 88.333C268.332 88.236 268.888 88.167 269.666 88.167C270.74 88.167 270.999 88.118 270.999 87.917C270.999 87.72 271.23 87.667 272.082 87.667C272.934 87.667 273.166 87.613 273.166 87.417C273.166 87.231 273.36 87.167 273.916 87.167C274.471 87.167 274.666 87.102 274.666 86.917C274.666 86.731 274.861 86.667 275.421 86.667C275.938 86.667 276.206 86.588 276.272 86.417C276.327 86.274 276.575 86.167 276.85 86.167C277.168 86.167 277.332 86.081 277.332 85.917C277.332 85.75 277.499 85.667 277.832 85.667C278.166 85.667 278.332 85.583 278.332 85.417C278.332 85.261 278.49 85.167 278.749 85.167C278.978 85.167 279.316 85.035 279.499 84.875C279.682 84.715 279.982 84.452 280.166 84.292C280.349 84.131 280.611 84 280.749 84C280.886 84 280.999 83.887 280.999 83.75C280.999 83.594 281.157 83.5 281.421 83.5C281.653 83.5 281.886 83.387 281.939 83.25C281.991 83.112 282.139 83 282.267 83C282.395 83 282.499 82.887 282.499 82.75C282.499 82.612 282.611 82.5 282.749 82.5C282.886 82.5 282.999 82.387 282.999 82.25C282.999 82.112 283.138 82 283.307 82C283.476 82 283.795 81.845 284.015 81.655C285.225 80.611 285.666 80.173 285.666 80.012C285.666 79.914 285.778 79.833 285.916 79.833C286.053 79.833 286.166 79.721 286.166 79.583C286.166 79.446 286.278 79.333 286.416 79.333C286.553 79.333 286.666 79.23 286.666 79.104C286.666 78.977 286.778 78.781 286.916 78.667C287.053 78.553 287.166 78.318 287.166 78.146C287.166 77.944 287.284 77.833 287.499 77.833C287.682 77.833 287.832 77.756 287.832 77.661C287.832 77.566 288.057 77.269 288.332 77C288.628 76.711 288.832 76.338 288.832 76.089C288.832 75.825 288.926 75.667 289.082 75.667C289.22 75.667 289.332 75.554 289.332 75.417C289.332 75.279 289.445 75.167 289.582 75.167C289.749 75.167 289.832 75 289.832 74.667C289.832 74.333 289.916 74.167 290.082 74.167C290.249 74.167 290.332 74 290.332 73.667C290.332 73.333 290.416 73.167 290.582 73.167C290.747 73.167 290.832 73.002 290.832 72.684C290.832 72.41 290.94 72.161 291.082 72.106C291.225 72.051 291.332 71.803 291.332 71.525C291.332 71.179 291.429 71.014 291.666 70.952C291.905 70.889 291.999 70.724 291.999 70.369C291.999 70.097 292.111 69.781 292.249 69.667C292.386 69.553 292.499 69.238 292.499 68.968C292.499 68.697 292.611 68.364 292.749 68.226C292.902 68.073 292.999 67.665 292.999 67.173C292.999 66.612 293.075 66.34 293.249 66.273C293.441 66.2 293.499 65.884 293.499 64.922C293.499 63.917 293.549 63.667 293.749 63.667C293.967 63.667 293.999 62.898 293.999 57.75C293.999 52.602 293.967 51.833 293.749 51.833C293.549 51.833 293.499 51.584 293.499 50.592C293.499 49.719 293.431 49.31 293.272 49.217C293.144 49.142 293.008 48.69 292.961 48.191C292.915 47.7 292.804 47.25 292.714 47.191C292.624 47.132 292.503 46.784 292.445 46.418C292.388 46.052 292.263 45.727 292.17 45.696C292.076 45.664 291.999 45.501 291.999 45.333C291.999 44.849 291.817 44.5 291.565 44.5C291.418 44.5 291.332 44.316 291.332 44C291.332 43.667 291.249 43.5 291.082 43.5C290.916 43.5 290.832 43.333 290.832 43C290.832 42.667 290.749 42.5 290.582 42.5C290.408 42.5 290.332 42.324 290.332 41.917C290.332 41.509 290.257 41.333 290.082 41.333C289.926 41.333 289.832 41.175 289.832 40.911C289.832 40.679 289.72 40.446 289.582 40.394C289.445 40.341 289.332 40.193 289.332 40.066C289.332 39.938 289.22 39.833 289.082 39.833C288.926 39.833 288.832 39.675 288.832 39.411C288.832 39.179 288.72 38.946 288.582 38.894C288.445 38.841 288.332 38.693 288.332 38.566C288.332 38.438 288.22 38.333 288.082 38.333C287.945 38.333 287.832 38.214 287.832 38.068C287.832 37.922 287.682 37.763 287.499 37.715C287.312 37.666 287.166 37.488 287.166 37.309C287.166 37.133 287.053 36.946 286.916 36.894C286.778 36.841 286.666 36.691 286.666 36.56C286.666 36.43 286.553 36.28 286.416 36.227C286.278 36.174 286.166 36.027 286.166 35.899C286.166 35.771 286.053 35.667 285.916 35.667C285.778 35.667 285.666 35.554 285.666 35.417C285.666 35.279 285.588 35.167 285.493 35.167C285.399 35.167 285.101 34.942 284.832 34.667C284.564 34.392 284.304 34.167 284.255 34.167C284.206 34.167 284.016 34.017 283.832 33.833C283.649 33.65 283.386 33.5 283.249 33.5C283.111 33.5 282.999 33.387 282.999 33.25C282.999 33.112 282.886 33 282.749 33C282.611 33 282.499 32.904 282.499 32.787C282.499 32.67 282.162 32.427 281.751 32.246C281.339 32.065 281.001 31.823 281.001 31.708C281 31.594 280.809 31.5 280.577 31.5C280.345 31.5 280.112 31.387 280.059 31.25C280.007 31.113 279.821 31 279.648 31C279.474 31 279.332 30.887 279.332 30.75C279.332 30.583 279.166 30.5 278.832 30.5C278.499 30.5 278.332 30.417 278.332 30.25C278.332 30.085 278.168 30 277.85 30C277.575 30 277.327 29.893 277.272 29.75C277.219 29.613 277.043 29.5 276.879 29.499C276.716 29.498 276.357 29.349 276.082 29.167C275.807 28.985 275.395 28.833 275.166 28.829C274.937 28.826 274.603 28.713 274.425 28.578C274.248 28.443 273.91 28.331 273.675 28.328C273.441 28.325 273.103 28.213 272.925 28.078C272.748 27.943 272.26 27.831 271.842 27.828C271.424 27.825 270.937 27.713 270.759 27.578C270.532 27.406 270.002 27.333 268.985 27.333C267.85 27.333 267.514 27.279 267.439 27.083C267.357 26.87 266.707 26.833 263.004 26.833C259.259 26.833 258.666 26.868 258.666 27.083ZM327.893 27.083C327.822 27.266 327.534 27.333 326.815 27.333C326.053 27.333 325.832 27.389 325.832 27.583C325.832 27.769 325.637 27.833 325.077 27.833C324.56 27.833 324.292 27.912 324.226 28.083C324.172 28.224 323.924 28.333 323.66 28.333C323.401 28.333 323.077 28.446 322.939 28.583C322.802 28.721 322.609 28.833 322.511 28.833C322.413 28.833 322.182 28.983 321.999 29.167C321.816 29.35 321.553 29.5 321.416 29.5C321.278 29.5 321.166 29.613 321.166 29.75C321.166 29.917 320.999 30 320.666 30C320.332 30 320.166 30.083 320.166 30.25C320.166 30.389 320.018 30.5 319.832 30.5C319.647 30.5 319.499 30.611 319.499 30.75C319.499 30.887 319.386 31 319.249 31C319.111 31 318.999 31.113 318.999 31.25C318.999 31.387 318.886 31.5 318.749 31.5C318.611 31.5 318.499 31.613 318.499 31.75C318.499 31.887 318.424 32 318.332 32C318.116 32 317.499 32.617 317.499 32.833C317.499 32.925 317.386 33 317.249 33C317.111 33 316.999 33.107 316.999 33.239C316.999 33.37 316.849 33.525 316.666 33.583C316.482 33.642 316.332 33.797 316.332 33.928C316.332 34.059 316.22 34.167 316.082 34.167C315.945 34.167 315.832 34.279 315.832 34.417C315.832 34.554 315.72 34.667 315.582 34.667C315.445 34.667 315.332 34.807 315.332 34.98C315.332 35.152 315.22 35.386 315.082 35.5C314.861 35.683 314.832 35.279 314.832 32.02V28.333H305.999H297.166V57.5V86.667H306.499H315.832V68.745C315.832 52.968 315.862 50.811 316.082 50.727C316.252 50.662 316.332 50.396 316.332 49.899C316.332 49.359 316.398 49.167 316.582 49.167C316.72 49.167 316.832 49.081 316.832 48.977C316.832 48.676 317.56 47.264 317.791 47.117C317.905 47.043 317.999 46.843 317.999 46.67C317.999 46.498 318.111 46.245 318.249 46.107C318.386 45.97 318.499 45.777 318.499 45.679C318.499 45.58 318.611 45.5 318.749 45.5C318.886 45.5 318.999 45.387 318.999 45.25C318.999 45.112 319.111 45 319.249 45C319.386 45 319.499 44.887 319.499 44.75C319.499 44.612 319.579 44.5 319.678 44.5C319.776 44.5 319.969 44.387 320.106 44.25C320.244 44.112 320.493 44 320.66 44C320.827 44 321.007 43.887 321.059 43.75C321.112 43.612 321.347 43.5 321.582 43.5C321.817 43.5 322.053 43.387 322.105 43.25C322.168 43.087 322.428 43 322.855 43C323.283 43 323.543 42.913 323.605 42.75C323.683 42.547 324.083 42.5 325.749 42.5C327.415 42.5 327.815 42.547 327.893 42.75C327.958 42.921 328.226 43 328.744 43C329.304 43 329.499 43.065 329.499 43.25C329.499 43.417 329.666 43.5 329.999 43.5C330.332 43.5 330.499 43.583 330.499 43.75C330.499 43.887 330.611 44 330.749 44C330.886 44 330.999 44.112 330.999 44.25C330.999 44.387 331.074 44.5 331.166 44.5C331.382 44.5 331.999 45.117 331.999 45.333C331.999 45.425 332.111 45.5 332.249 45.5C332.386 45.5 332.499 45.612 332.499 45.75C332.499 45.887 332.603 46 332.73 46C332.863 46 333.009 46.249 333.071 46.583C333.137 46.933 333.278 47.167 333.423 47.167C333.59 47.167 333.666 47.351 333.666 47.755C333.666 48.125 333.759 48.38 333.916 48.44C334.107 48.513 334.166 48.827 334.166 49.773C334.166 50.719 334.225 51.033 334.416 51.106C334.636 51.191 334.666 53.326 334.666 68.934V86.667H343.749H352.832V65.083C352.832 46.009 352.803 43.5 352.582 43.5C352.386 43.5 352.332 43.27 352.332 42.434C352.332 41.641 352.268 41.344 352.082 41.273C351.906 41.205 351.832 40.93 351.832 40.333C351.832 39.737 351.759 39.461 351.582 39.394C351.44 39.339 351.332 39.09 351.332 38.816C351.332 38.498 351.247 38.333 351.082 38.333C350.915 38.333 350.832 38.166 350.832 37.828C350.832 37.533 350.728 37.283 350.582 37.227C350.445 37.174 350.332 36.945 350.332 36.717C350.332 36.442 350.22 36.273 349.999 36.215C349.763 36.153 349.666 35.988 349.666 35.647C349.666 35.331 349.58 35.167 349.416 35.167C349.278 35.167 349.166 35.054 349.166 34.917C349.166 34.779 349.053 34.667 348.916 34.667C348.759 34.667 348.666 34.509 348.666 34.245C348.666 34.013 348.553 33.78 348.416 33.727C348.278 33.674 348.166 33.524 348.166 33.394C348.166 33.263 348.053 33.113 347.916 33.06C347.778 33.008 347.666 32.86 347.666 32.732C347.666 32.604 347.553 32.5 347.416 32.5C347.278 32.5 347.166 32.387 347.166 32.25C347.166 32.112 347.088 32 346.993 32C346.899 32 346.601 31.775 346.332 31.5C346.064 31.225 345.774 31 345.689 31C345.604 31 345.491 30.887 345.439 30.75C345.386 30.613 345.153 30.5 344.921 30.5C344.657 30.5 344.499 30.406 344.499 30.25C344.499 30.113 344.386 30 344.249 30C344.112 30 343.999 29.887 343.999 29.75C343.999 29.611 343.851 29.5 343.664 29.5C343.48 29.5 343.201 29.35 343.044 29.167C342.887 28.983 342.585 28.833 342.373 28.833C342.162 28.833 341.945 28.721 341.893 28.583C341.839 28.444 341.591 28.333 341.332 28.333C341.073 28.333 340.826 28.223 340.772 28.083C340.709 27.92 340.45 27.833 340.022 27.833C339.594 27.833 339.335 27.747 339.272 27.583C339.202 27.402 338.912 27.332 338.213 27.328C337.631 27.325 337.121 27.226 336.925 27.078C336.439 26.71 328.034 26.715 327.893 27.083ZM0.332031 29.415C0.332031 30.268 0.386031 30.5 0.582031 30.5C0.768031 30.5 0.832031 30.694 0.832031 31.25C0.832031 31.806 0.897031 32 1.08203 32C1.26803 32 1.33203 32.194 1.33203 32.75C1.33203 33.306 1.39703 33.5 1.58203 33.5C1.76803 33.5 1.83203 33.695 1.83203 34.255C1.83203 34.773 1.91103 35.041 2.08203 35.106C2.24603 35.169 2.33203 35.429 2.33203 35.856C2.33203 36.284 2.41903 36.544 2.58203 36.606C2.72003 36.659 2.83203 36.905 2.83203 37.153C2.83203 37.4 2.94203 37.749 3.07703 37.926C3.21203 38.104 3.32403 38.447 3.32703 38.688C3.33003 38.929 3.44503 39.219 3.58203 39.333C3.72003 39.447 3.83203 39.713 3.83203 39.923C3.83203 40.479 4.00103 40.833 4.26703 40.833C4.43103 40.833 4.49903 41.054 4.49903 41.589C4.49903 42.106 4.57803 42.374 4.74903 42.44C4.91903 42.505 4.99903 42.771 4.99903 43.268C4.99903 43.808 5.06503 44 5.24903 44C5.43403 44 5.49903 44.194 5.49903 44.75C5.49903 45.306 5.56403 45.5 5.74903 45.5C5.93303 45.5 5.99903 45.692 5.99903 46.232C5.99903 46.729 6.07903 46.995 6.24903 47.06C6.40403 47.12 6.49903 47.373 6.49903 47.724C6.49903 48.037 6.61203 48.386 6.74903 48.5C6.88703 48.614 6.99903 48.918 6.99903 49.175C6.99903 49.432 7.11203 49.755 7.24903 49.893C7.38703 50.03 7.49903 50.376 7.49903 50.66C7.49903 50.966 7.60103 51.216 7.74903 51.273C7.88903 51.327 7.99903 51.575 7.99903 51.838C7.99903 52.475 8.15503 52.833 8.43303 52.833C8.59803 52.833 8.66603 53.053 8.66603 53.583C8.66603 54.139 8.73003 54.333 8.91603 54.333C9.10103 54.333 9.16603 54.528 9.16603 55.089C9.16603 55.606 9.24403 55.874 9.41603 55.94C9.58503 56.005 9.66603 56.271 9.66603 56.768C9.66603 57.308 9.73103 57.5 9.91603 57.5C10.097 57.5 10.166 57.686 10.166 58.172C10.166 58.615 10.251 58.876 10.416 58.94C10.568 58.998 10.666 59.251 10.666 59.589C10.666 59.894 10.778 60.255 10.916 60.393C11.053 60.53 11.166 60.864 11.166 61.134C11.166 61.405 11.278 61.719 11.416 61.833C11.553 61.947 11.666 62.296 11.666 62.609C11.666 62.96 11.761 63.214 11.916 63.273C12.056 63.327 12.166 63.575 12.166 63.838C12.166 64.475 12.322 64.833 12.6 64.833C12.764 64.833 12.832 65.053 12.832 65.583C12.832 66.139 12.897 66.333 13.082 66.333C13.267 66.333 13.332 66.526 13.332 67.066C13.332 67.563 13.413 67.828 13.582 67.894C13.748 67.957 13.832 68.219 13.832 68.667C13.832 69.115 13.917 69.376 14.082 69.44C14.246 69.502 14.332 69.762 14.332 70.19C14.332 70.617 14.419 70.877 14.582 70.94C14.735 70.998 14.832 71.251 14.832 71.589C14.832 71.894 14.945 72.255 15.082 72.393C15.22 72.53 15.332 72.865 15.332 73.137C15.332 73.422 15.438 73.672 15.582 73.727C15.747 73.79 15.832 74.051 15.832 74.495C15.832 74.981 15.901 75.167 16.082 75.167C16.243 75.167 16.333 75.33 16.335 75.625C16.338 76.339 16.516 76.833 16.768 76.833C16.931 76.833 16.999 77.056 16.999 77.583C16.999 78.139 17.064 78.333 17.249 78.333C17.434 78.333 17.499 78.528 17.499 79.083C17.499 79.639 17.564 79.833 17.749 79.833C17.934 79.833 17.999 80.028 17.999 80.589C17.999 81.106 18.078 81.374 18.249 81.44C18.402 81.498 18.499 81.751 18.499 82.089C18.499 82.394 18.612 82.755 18.749 82.893C18.887 83.03 18.999 83.321 18.999 83.54C18.999 83.758 19.109 84.082 19.244 84.26C19.378 84.438 19.491 84.827 19.494 85.125C19.497 85.493 19.579 85.667 19.749 85.667C19.916 85.667 19.999 85.833 19.999 86.167V86.667H29.916H39.832V86.184C39.832 85.91 39.94 85.661 40.082 85.606C40.254 85.541 40.332 85.273 40.332 84.755C40.332 84.195 40.397 84 40.582 84C40.768 84 40.832 83.806 40.832 83.25C40.832 82.694 40.897 82.5 41.082 82.5C41.267 82.5 41.332 82.308 41.332 81.769C41.332 81.179 41.396 81.022 41.666 80.952C41.938 80.88 41.999 80.724 41.999 80.099C41.999 79.53 42.063 79.333 42.249 79.333C42.422 79.333 42.499 79.16 42.499 78.77C42.499 78.461 42.611 78.114 42.749 78C42.886 77.886 42.999 77.547 42.999 77.247C42.999 76.917 43.097 76.665 43.249 76.606C43.412 76.544 43.499 76.284 43.499 75.856C43.499 75.429 43.586 75.169 43.749 75.106C43.914 75.043 43.999 74.782 43.999 74.339C43.999 73.852 44.068 73.667 44.249 73.667C44.434 73.667 44.499 73.472 44.499 72.911C44.499 72.394 44.578 72.126 44.749 72.06C44.919 71.995 44.999 71.729 44.999 71.232C44.999 70.692 45.065 70.5 45.249 70.5C45.433 70.5 45.499 70.308 45.499 69.769C45.499 69.179 45.563 69.022 45.832 68.952C46.098 68.882 46.166 68.724 46.166 68.177C46.166 67.72 46.249 67.457 46.416 67.394C46.553 67.341 46.668 67.099 46.671 66.857C46.674 66.615 46.786 66.271 46.921 66.093C47.056 65.915 47.166 65.568 47.166 65.322C47.166 65.076 47.278 64.781 47.416 64.667C47.559 64.548 47.666 64.184 47.666 63.813C47.666 63.35 47.736 63.167 47.916 63.167C48.101 63.167 48.166 62.972 48.166 62.417C48.166 61.861 48.23 61.667 48.416 61.667C48.601 61.667 48.666 61.472 48.666 60.917C48.666 60.361 48.73 60.167 48.916 60.167C49.105 60.167 49.166 59.963 49.166 59.333C49.166 58.704 49.227 58.5 49.416 58.5C49.6 58.5 49.666 58.308 49.666 57.769C49.666 57.179 49.73 57.022 49.999 56.952C50.252 56.886 50.332 56.724 50.332 56.286C50.332 55.968 50.445 55.614 50.582 55.5C50.72 55.386 50.835 55.095 50.838 54.855C50.841 54.614 50.953 54.271 51.088 54.093C51.222 53.915 51.332 53.567 51.332 53.319C51.332 53.072 51.445 52.826 51.582 52.773C51.748 52.71 51.832 52.448 51.832 52C51.832 51.552 51.917 51.29 52.082 51.227C52.252 51.162 52.332 50.896 52.332 50.399C52.332 49.859 52.398 49.667 52.582 49.667C52.768 49.667 52.832 49.472 52.832 48.917C52.832 48.361 52.897 48.167 53.082 48.167C53.267 48.167 53.332 47.974 53.332 47.434C53.332 46.937 53.413 46.672 53.582 46.606C53.752 46.541 53.832 46.275 53.832 45.775C53.832 45.179 53.896 45.022 54.166 44.952C54.399 44.891 54.501 44.722 54.504 44.391C54.507 44.13 54.62 43.771 54.754 43.593C54.889 43.415 54.999 43.091 54.999 42.873C54.999 42.655 55.112 42.364 55.249 42.226C55.386 42.089 55.499 41.727 55.499 41.423C55.499 41.084 55.596 40.832 55.749 40.773C55.912 40.71 55.999 40.451 55.999 40.023C55.999 39.595 56.086 39.336 56.249 39.273C56.42 39.207 56.499 38.939 56.499 38.422C56.499 37.862 56.564 37.667 56.749 37.667C56.934 37.667 56.999 37.472 56.999 36.917C56.999 36.361 57.064 36.167 57.249 36.167C57.434 36.167 57.499 35.972 57.499 35.417C57.499 34.861 57.564 34.667 57.749 34.667C57.929 34.667 57.999 34.482 57.999 34.001C57.999 33.517 58.089 33.28 58.332 33.128C58.538 32.999 58.666 32.739 58.666 32.448C58.666 32.189 58.778 31.864 58.916 31.726C59.053 31.589 59.166 31.227 59.166 30.923C59.166 30.584 59.263 30.332 59.416 30.273C59.596 30.204 59.666 29.921 59.666 29.254V28.331L50.291 28.374L40.916 28.417L40.864 29.134C40.833 29.566 40.717 29.888 40.572 29.944C40.414 30.004 40.332 30.284 40.332 30.768C40.332 31.308 40.267 31.5 40.082 31.5C39.893 31.5 39.832 31.704 39.832 32.333C39.832 32.963 39.771 33.167 39.582 33.167C39.398 33.167 39.332 33.359 39.332 33.896C39.332 34.341 39.235 34.707 39.082 34.833C38.923 34.966 38.832 35.334 38.832 35.854C38.832 36.465 38.77 36.667 38.582 36.667C38.393 36.667 38.332 36.87 38.332 37.5C38.332 38.13 38.271 38.333 38.082 38.333C37.9 38.333 37.832 38.521 37.832 39.023C37.832 39.464 37.736 39.784 37.565 39.908C37.411 40.021 37.26 40.451 37.209 40.927C37.159 41.38 37.017 41.81 36.892 41.883C36.755 41.964 36.666 42.31 36.666 42.758C36.666 43.306 36.6 43.5 36.416 43.5C36.231 43.5 36.166 43.692 36.166 44.232C36.166 44.729 36.085 44.995 35.916 45.06C35.746 45.125 35.666 45.392 35.666 45.891C35.666 46.341 35.569 46.706 35.416 46.833C35.256 46.966 35.166 47.334 35.166 47.854C35.166 48.465 35.104 48.667 34.916 48.667C34.727 48.667 34.666 48.87 34.666 49.5C34.666 50.13 34.605 50.333 34.416 50.333C34.231 50.333 34.166 50.526 34.166 51.066C34.166 51.563 34.085 51.828 33.916 51.894C33.735 51.963 33.666 52.246 33.666 52.911C33.666 53.588 33.604 53.833 33.433 53.833C33.145 53.833 32.999 54.195 32.999 54.912C32.999 55.249 32.902 55.502 32.749 55.56C32.586 55.623 32.499 55.883 32.499 56.31C32.499 56.738 32.412 56.998 32.249 57.06C32.082 57.124 31.997 57.393 31.994 57.87C31.991 58.262 31.878 58.729 31.744 58.907C31.609 59.085 31.499 59.554 31.499 59.949C31.499 60.476 31.433 60.667 31.249 60.667C31.065 60.667 30.999 60.859 30.999 61.399C30.999 61.896 30.919 62.162 30.749 62.227C30.579 62.292 30.499 62.559 30.499 63.06C30.499 63.562 30.419 63.828 30.249 63.894C30.057 63.967 29.999 63.859 29.999 63.429C29.999 63.085 29.903 62.832 29.749 62.773C29.586 62.711 29.499 62.452 29.499 62.031C29.499 61.597 29.39 61.286 29.166 61.083C28.92 60.861 28.832 60.57 28.832 59.974C28.832 59.368 28.77 59.167 28.582 59.167C28.393 59.167 28.332 58.963 28.332 58.333C28.332 57.704 28.271 57.5 28.082 57.5C27.897 57.5 27.832 57.306 27.832 56.75C27.832 56.194 27.768 56 27.582 56C27.394 56 27.332 55.798 27.332 55.179C27.332 54.671 27.237 54.262 27.082 54.107C26.941 53.966 26.832 53.559 26.832 53.173C26.832 52.719 26.748 52.457 26.582 52.394C26.413 52.328 26.332 52.063 26.332 51.566C26.332 51.026 26.267 50.833 26.082 50.833C25.898 50.833 25.832 50.641 25.832 50.104C25.832 49.659 25.735 49.293 25.582 49.167C25.445 49.053 25.331 48.725 25.33 48.438C25.327 47.665 25.157 47.167 24.896 47.167C24.734 47.167 24.666 46.943 24.666 46.411C24.666 45.894 24.587 45.626 24.416 45.56C24.246 45.495 24.166 45.229 24.166 44.732C24.166 44.192 24.1 44 23.916 44C23.724 44 23.666 43.786 23.666 43.078C23.666 42.412 23.596 42.13 23.416 42.06C23.246 41.995 23.166 41.729 23.166 41.227C23.166 40.725 23.086 40.459 22.916 40.394C22.746 40.328 22.666 40.063 22.666 39.566C22.666 39.026 22.6 38.833 22.416 38.833C22.232 38.833 22.166 38.641 22.166 38.104C22.166 37.688 22.067 37.292 21.937 37.184C21.811 37.079 21.67 36.605 21.624 36.129C21.579 35.653 21.457 35.236 21.353 35.201C21.25 35.167 21.166 34.926 21.166 34.666C21.166 34.025 21.01 33.667 20.731 33.667C20.564 33.667 20.499 33.435 20.499 32.833C20.499 32.204 20.438 32 20.249 32C20.057 32 19.999 31.788 19.999 31.092C19.999 30.477 19.922 30.14 19.761 30.05C19.624 29.973 19.499 29.596 19.469 29.167L19.416 28.417L9.87403 28.374L0.332031 28.331V29.415ZM118.499 57.5V86.667H127.582H136.666V73.101C136.666 61.197 136.696 59.524 136.916 59.44C137.118 59.362 137.166 58.977 137.166 57.422C137.166 55.722 137.204 55.461 137.499 55.167C137.731 54.935 137.832 54.611 137.832 54.101C137.832 53.604 137.913 53.338 138.082 53.273C138.225 53.218 138.332 52.97 138.332 52.692C138.332 52.426 138.445 52.114 138.582 52C138.72 51.886 138.832 51.612 138.832 51.391C138.832 51.17 138.945 50.946 139.082 50.894C139.22 50.841 139.332 50.656 139.332 50.482C139.332 50.309 139.445 50.167 139.582 50.167C139.749 50.167 139.832 50 139.832 49.667C139.832 49.333 139.916 49.167 140.082 49.167C140.22 49.167 140.332 49.054 140.332 48.917C140.332 48.779 140.445 48.667 140.582 48.667C140.72 48.667 140.832 48.554 140.832 48.417C140.832 48.279 140.945 48.167 141.082 48.167C141.22 48.167 141.332 48.054 141.332 47.917C141.332 47.779 141.447 47.667 141.588 47.667C141.728 47.667 141.886 47.554 141.939 47.417C141.991 47.279 142.142 47.167 142.274 47.167C142.612 47.167 143.499 46.48 143.499 46.219C143.499 46.087 143.698 46 143.999 46C144.332 46 144.499 45.917 144.499 45.75C144.499 45.565 144.693 45.5 145.249 45.5C145.805 45.5 145.999 45.435 145.999 45.25C145.999 45.055 146.222 45 147.004 45C147.744 45 148.035 44.934 148.105 44.75C148.187 44.538 148.761 44.5 151.852 44.5H155.502L155.459 36.458L155.416 28.417L151.041 28.372C147.222 28.333 146.666 28.36 146.666 28.581C146.666 28.769 146.474 28.833 145.91 28.833C145.41 28.833 145.124 28.914 145.064 29.071C145.014 29.202 144.674 29.359 144.308 29.421C143.942 29.483 143.602 29.638 143.553 29.767C143.504 29.895 143.368 30 143.252 30C143.135 30 142.946 30.113 142.832 30.25C142.718 30.387 142.484 30.5 142.312 30.5C142.14 30.5 141.999 30.613 141.999 30.75C141.999 30.887 141.857 31 141.683 31C141.51 31 141.325 31.113 141.272 31.25C141.219 31.387 141.05 31.5 140.896 31.5C140.603 31.5 138.832 33.22 138.832 33.504C138.832 33.593 138.72 33.667 138.582 33.667C138.445 33.667 138.332 33.807 138.332 33.98C138.332 34.152 138.22 34.386 138.082 34.5C137.945 34.614 137.832 34.811 137.832 34.937C137.832 35.063 137.749 35.167 137.647 35.167C137.316 35.167 136.671 35.907 136.669 36.292C136.667 36.513 136.563 36.667 136.416 36.667C136.2 36.667 136.166 36.093 136.166 32.5V28.333H127.332H118.499V57.5ZM159.277 28.444C159.216 28.506 159.166 41.631 159.166 57.611V86.667H168.499H177.832V57.5V28.333H168.61C163.538 28.333 159.338 28.383 159.277 28.444ZM182.039 35.875L182.082 43.417L195.118 43.459C206.602 43.497 208.143 43.532 208.059 43.751C208.006 43.888 207.859 44 207.731 44C207.603 44 207.499 44.112 207.499 44.25C207.499 44.387 207.386 44.5 207.249 44.5C207.111 44.5 206.999 44.612 206.999 44.75C206.999 44.887 206.886 45 206.749 45C206.611 45 206.499 45.104 206.499 45.232C206.499 45.36 206.386 45.508 206.249 45.56C206.111 45.613 205.999 45.771 205.999 45.911C205.999 46.052 205.886 46.167 205.749 46.167C205.611 46.167 205.499 46.279 205.499 46.417C205.499 46.554 205.386 46.667 205.249 46.667C205.111 46.667 204.999 46.771 204.999 46.899C204.999 47.027 204.886 47.174 204.749 47.227C204.611 47.28 204.497 47.419 204.494 47.536C204.487 47.809 203.738 48.667 203.507 48.667C203.411 48.667 203.332 48.779 203.332 48.917C203.332 49.054 203.22 49.167 203.082 49.167C202.945 49.167 202.832 49.279 202.832 49.417C202.832 49.554 202.72 49.667 202.582 49.667C202.445 49.667 202.332 49.771 202.332 49.899C202.332 50.027 202.22 50.174 202.082 50.227C201.945 50.28 201.832 50.438 201.832 50.578C201.832 50.718 201.72 50.833 201.582 50.833C201.445 50.833 201.332 50.946 201.332 51.083C201.332 51.221 201.22 51.333 201.082 51.333C200.945 51.333 200.832 51.446 200.832 51.583C200.832 51.721 200.72 51.833 200.582 51.833C200.445 51.833 200.332 51.948 200.332 52.089C200.332 52.229 200.227 52.384 200.097 52.434C199.968 52.484 199.817 52.706 199.761 52.929C199.705 53.151 199.548 53.333 199.412 53.333C199.277 53.333 199.166 53.446 199.166 53.583C199.166 53.721 199.053 53.833 198.916 53.833C198.778 53.833 198.666 53.938 198.666 54.066C198.666 54.193 198.553 54.341 198.416 54.394C198.278 54.446 198.166 54.604 198.166 54.745C198.166 54.885 198.053 55 197.916 55C197.778 55 197.666 55.112 197.666 55.25C197.666 55.387 197.553 55.5 197.416 55.5C197.278 55.5 197.166 55.612 197.166 55.75C197.166 55.887 197.053 56 196.916 56C196.778 56 196.666 56.112 196.666 56.25C196.666 56.387 196.553 56.5 196.416 56.5C196.278 56.5 196.166 56.571 196.166 56.657C196.166 56.744 195.904 57.1 195.583 57.449C195.263 57.798 195 58.169 195 58.274C194.999 58.379 194.886 58.508 194.749 58.56C194.611 58.613 194.499 58.771 194.499 58.911C194.499 59.052 194.386 59.167 194.249 59.167C194.111 59.167 193.999 59.279 193.999 59.417C193.999 59.554 193.886 59.667 193.749 59.667C193.611 59.667 193.499 59.779 193.499 59.917C193.499 60.054 193.386 60.167 193.249 60.167C193.111 60.167 192.999 60.279 192.999 60.417C192.999 60.554 192.886 60.667 192.749 60.667C192.611 60.667 192.499 60.779 192.499 60.917C192.499 61.054 192.386 61.167 192.249 61.167C192.111 61.167 191.999 61.279 191.999 61.417C191.999 61.554 191.886 61.667 191.749 61.667C191.611 61.667 191.497 61.76 191.494 61.875C191.492 61.99 191.265 62.304 190.989 62.575C190.714 62.845 190.446 63.238 190.393 63.45C190.34 63.661 190.192 63.833 190.064 63.833C189.937 63.833 189.832 63.946 189.832 64.083C189.832 64.221 189.72 64.333 189.582 64.333C189.445 64.333 189.332 64.446 189.332 64.583C189.332 64.721 189.22 64.833 189.082 64.833C188.945 64.833 188.832 64.946 188.832 65.083C188.832 65.221 188.72 65.333 188.582 65.333C188.445 65.333 188.332 65.446 188.332 65.583C188.332 65.721 188.22 65.833 188.082 65.833C187.945 65.833 187.832 65.946 187.832 66.083C187.832 66.221 187.72 66.333 187.582 66.333C187.445 66.333 187.332 66.429 187.332 66.546C187.332 66.663 187.126 66.945 186.873 67.171C186.62 67.398 186.322 67.79 186.21 68.042C186.098 68.294 185.93 68.5 185.836 68.5C185.742 68.5 185.666 68.612 185.666 68.75C185.666 68.887 185.553 69 185.416 69C185.278 69 185.166 69.112 185.166 69.25C185.166 69.387 185.053 69.5 184.916 69.5C184.778 69.5 184.666 69.612 184.666 69.75C184.666 69.887 184.553 70 184.416 70C184.278 70 184.166 70.112 184.166 70.25C184.166 70.387 184.053 70.5 183.916 70.5C183.778 70.5 183.666 70.579 183.666 70.676C183.666 70.773 183.291 71.212 182.832 71.651L181.999 72.45V79.558V86.667H206.999H231.999V79.417V72.167H218.431C204.946 72.167 204.864 72.165 204.951 71.833C204.999 71.65 205.142 71.5 205.268 71.5C205.395 71.5 205.499 71.387 205.499 71.25C205.499 71.112 205.611 71 205.749 71C205.886 71 205.999 70.887 205.999 70.75C205.999 70.612 206.111 70.5 206.249 70.5C206.386 70.5 206.499 70.387 206.499 70.25C206.499 70.112 206.611 70 206.749 70C206.886 70 206.999 69.887 206.999 69.75C206.999 69.612 207.111 69.5 207.249 69.5C207.386 69.5 207.499 69.385 207.499 69.245C207.499 69.104 207.611 68.946 207.749 68.894C207.886 68.841 207.999 68.658 207.999 68.488C207.999 68.318 208.149 68.098 208.332 68C208.516 67.902 208.666 67.712 208.666 67.577C208.666 67.443 208.778 67.333 208.916 67.333C209.053 67.333 209.166 67.221 209.166 67.083C209.166 66.946 209.278 66.833 209.416 66.833C209.553 66.833 209.666 66.721 209.666 66.583C209.666 66.446 209.778 66.333 209.916 66.333C210.053 66.333 210.166 66.221 210.166 66.083C210.166 65.946 210.278 65.833 210.416 65.833C210.553 65.833 210.666 65.721 210.666 65.583C210.666 65.446 210.778 65.333 210.916 65.333C211.053 65.333 211.166 65.221 211.166 65.083C211.166 64.946 211.278 64.833 211.416 64.833C211.553 64.833 211.666 64.718 211.666 64.578C211.666 64.438 211.778 64.28 211.916 64.227C212.053 64.174 212.166 64.064 212.166 63.982C212.166 63.9 212.316 63.683 212.499 63.5C212.682 63.317 212.832 63.054 212.832 62.917C212.832 62.779 212.945 62.667 213.082 62.667C213.22 62.667 213.332 62.554 213.332 62.417C213.332 62.279 213.445 62.167 213.582 62.167C213.72 62.167 213.832 62.054 213.832 61.917C213.832 61.779 213.945 61.667 214.082 61.667C214.22 61.667 214.332 61.554 214.332 61.417C214.332 61.279 214.445 61.167 214.582 61.167C214.72 61.167 214.832 61.054 214.832 60.917C214.832 60.779 214.945 60.667 215.082 60.667C215.22 60.667 215.332 60.554 215.332 60.417C215.332 60.279 215.445 60.167 215.582 60.167C215.72 60.167 215.832 60.052 215.832 59.911C215.832 59.771 215.945 59.613 216.082 59.56C216.22 59.508 216.332 59.36 216.332 59.232C216.332 59.104 216.445 59 216.582 59C216.72 59 216.832 58.887 216.832 58.75C216.832 58.612 216.982 58.35 217.166 58.167C217.349 57.983 217.499 57.758 217.499 57.667C217.499 57.575 217.611 57.5 217.749 57.5C217.886 57.5 217.999 57.387 217.999 57.25C217.999 57.112 218.111 57 218.249 57C218.386 57 218.499 56.887 218.499 56.75C218.499 56.612 218.611 56.5 218.749 56.5C218.886 56.5 218.999 56.387 218.999 56.25C218.999 56.112 219.111 56 219.249 56C219.386 56 219.499 55.922 219.499 55.828C219.499 55.733 219.724 55.435 219.999 55.167C220.274 54.898 220.499 54.6 220.499 54.506C220.499 54.411 220.611 54.333 220.749 54.333C220.886 54.333 220.999 54.258 220.999 54.167C220.999 54.075 221.149 53.85 221.332 53.667C221.516 53.483 221.666 53.221 221.666 53.083C221.666 52.946 221.778 52.833 221.916 52.833C222.053 52.833 222.166 52.721 222.166 52.583C222.166 52.446 222.278 52.333 222.416 52.333C222.553 52.333 222.666 52.221 222.666 52.083C222.666 51.946 222.778 51.833 222.916 51.833C223.053 51.833 223.166 51.721 223.166 51.583C223.166 51.446 223.278 51.333 223.416 51.333C223.553 51.333 223.666 51.229 223.666 51.101C223.666 50.973 223.778 50.826 223.916 50.773C224.053 50.72 224.166 50.562 224.166 50.422C224.166 50.282 224.278 50.167 224.416 50.167C224.553 50.167 224.666 50.054 224.666 49.917C224.666 49.779 224.778 49.667 224.916 49.667C225.053 49.667 225.166 49.592 225.166 49.5C225.166 49.408 225.316 49.165 225.499 48.958C226.214 48.154 226.332 47.994 226.332 47.833C226.332 47.742 226.445 47.667 226.582 47.667C226.72 47.667 226.832 47.554 226.832 47.417C226.832 47.279 226.945 47.167 227.082 47.167C227.22 47.167 227.332 47.062 227.332 46.934C227.332 46.807 227.445 46.659 227.582 46.606C227.72 46.554 227.832 46.396 227.832 46.255C227.832 46.115 227.945 46 228.082 46C228.22 46 228.332 45.887 228.332 45.75C228.332 45.612 228.445 45.5 228.582 45.5C228.72 45.5 228.832 45.387 228.832 45.25C228.832 45.112 228.945 45 229.082 45C229.22 45 229.332 44.887 229.332 44.75C229.332 44.612 229.445 44.5 229.582 44.5C229.72 44.5 229.832 44.404 229.832 44.287C229.832 44.17 229.982 43.946 230.166 43.789C230.349 43.632 230.499 43.39 230.499 43.252C230.499 43.113 230.611 43 230.749 43C230.967 43 230.999 42.074 230.999 35.667V28.333H206.497H181.996L182.039 35.875ZM87.832 40.583C87.832 40.769 88.027 40.833 88.582 40.833C89.138 40.833 89.332 40.898 89.332 41.083C89.332 41.25 89.499 41.333 89.832 41.333C90.166 41.333 90.332 41.417 90.332 41.583C90.332 41.748 90.497 41.833 90.813 41.833C91.153 41.833 91.319 41.931 91.381 42.167C91.429 42.35 91.587 42.5 91.733 42.5C91.879 42.5 91.999 42.612 91.999 42.75C91.999 42.887 92.111 43 92.249 43C92.387 43 92.499 43.112 92.499 43.25C92.499 43.387 92.611 43.5 92.749 43.5C92.887 43.5 92.999 43.612 92.999 43.75C92.999 43.887 93.111 44 93.249 44C93.387 44 93.499 44.112 93.499 44.25C93.499 44.387 93.611 44.5 93.749 44.5C93.916 44.5 93.999 44.667 93.999 45C93.999 45.333 94.082 45.5 94.249 45.5C94.387 45.5 94.499 45.645 94.499 45.821C94.499 45.998 94.611 46.255 94.749 46.393C94.887 46.53 94.999 46.838 94.999 47.077C94.999 47.315 95.111 47.554 95.249 47.606C95.387 47.659 95.5 47.863 95.501 48.059C95.505 48.679 95.696 49.167 95.935 49.167C96.101 49.167 96.166 49.402 96.166 50V50.833H84.916C78.573 50.833 73.666 50.77 73.666 50.687C73.666 50.607 73.778 50.447 73.916 50.333C74.068 50.207 74.166 49.841 74.166 49.396C74.166 48.859 74.232 48.667 74.416 48.667C74.6 48.667 74.666 48.474 74.666 47.936C74.666 47.346 74.73 47.189 74.999 47.118C75.242 47.055 75.332 46.891 75.332 46.516C75.332 46.168 75.414 46 75.582 46C75.72 46 75.832 45.92 75.832 45.821C75.832 45.723 75.945 45.53 76.082 45.393C76.22 45.255 76.332 44.998 76.332 44.821C76.332 44.645 76.445 44.5 76.582 44.5C76.72 44.5 76.832 44.387 76.832 44.25C76.832 44.112 76.945 44 77.082 44C77.22 44 77.332 43.887 77.332 43.75C77.332 43.612 77.445 43.5 77.582 43.5C77.72 43.5 77.832 43.387 77.832 43.25C77.832 43.112 77.945 43 78.082 43C78.22 43 78.332 42.887 78.332 42.75C78.332 42.612 78.445 42.5 78.582 42.5C78.721 42.5 78.832 42.352 78.832 42.167C78.832 41.897 78.943 41.833 79.416 41.833C79.823 41.833 79.999 41.758 79.999 41.583C79.999 41.417 80.166 41.333 80.499 41.333C80.832 41.333 80.999 41.25 80.999 41.083C80.999 40.895 81.2 40.833 81.812 40.833C82.331 40.833 82.7 40.743 82.832 40.583C82.999 40.382 83.509 40.333 85.436 40.333C87.455 40.333 87.832 40.373 87.832 40.583ZM265.393 41.083C265.458 41.255 265.726 41.333 266.244 41.333C266.804 41.333 266.999 41.398 266.999 41.583C266.999 41.75 267.166 41.833 267.499 41.833C267.774 41.833 268.144 41.965 268.32 42.125C268.937 42.685 269.16 42.839 269.578 42.998C269.81 43.086 269.999 43.235 269.999 43.329C269.999 43.423 270.103 43.5 270.231 43.5C270.359 43.5 270.507 43.612 270.559 43.75C270.612 43.887 270.77 44 270.91 44C271.051 44 271.166 44.112 271.166 44.25C271.166 44.387 271.278 44.5 271.416 44.5C271.572 44.5 271.666 44.658 271.666 44.922C271.666 45.154 271.778 45.387 271.916 45.44C272.053 45.492 272.166 45.64 272.166 45.768C272.166 45.896 272.278 46 272.416 46C272.572 46 272.666 46.158 272.666 46.422C272.666 46.654 272.778 46.887 272.916 46.94C273.053 46.992 273.166 47.172 273.166 47.339C273.166 47.506 273.278 47.755 273.416 47.893C273.553 48.03 273.666 48.373 273.666 48.655C273.666 48.999 273.748 49.167 273.916 49.167C274.1 49.167 274.166 49.359 274.166 49.899C274.166 50.396 274.246 50.662 274.416 50.727C274.586 50.792 274.666 51.058 274.666 51.557C274.666 52.623 274.841 53.333 275.103 53.333C275.484 53.333 275.438 62.425 275.056 62.638C274.866 62.745 274.755 63.094 274.699 63.765C274.655 64.3 274.517 64.84 274.392 64.964C274.268 65.089 274.166 65.45 274.166 65.767C274.166 66.126 274.071 66.38 273.916 66.44C273.746 66.505 273.666 66.771 273.666 67.268C273.666 67.808 273.6 68 273.416 68C273.259 68 273.166 68.158 273.166 68.422C273.166 68.654 273.053 68.887 272.916 68.94C272.778 68.992 272.666 69.14 272.666 69.268C272.666 69.396 272.553 69.5 272.416 69.5C272.249 69.5 272.166 69.667 272.166 70C272.166 70.333 272.082 70.5 271.916 70.5C271.778 70.5 271.666 70.612 271.666 70.75C271.666 70.887 271.553 71 271.416 71C271.277 71 271.166 71.148 271.166 71.333C271.166 71.522 271.055 71.667 270.91 71.667C270.77 71.667 270.612 71.779 270.559 71.917C270.507 72.054 270.359 72.167 270.231 72.167C270.103 72.167 269.999 72.279 269.999 72.417C269.999 72.569 269.844 72.667 269.6 72.667C269.381 72.667 269.158 72.779 269.105 72.917C269.053 73.054 268.895 73.167 268.754 73.167C268.614 73.167 268.499 73.279 268.499 73.417C268.499 73.583 268.332 73.667 267.999 73.667C267.666 73.667 267.499 73.75 267.499 73.917C267.499 74.102 267.304 74.167 266.744 74.167C266.226 74.167 265.958 74.245 265.893 74.417C265.813 74.625 265.33 74.667 262.981 74.667C260.59 74.667 260.166 74.629 260.166 74.417C260.166 74.232 259.973 74.167 259.433 74.167C258.936 74.167 258.671 74.086 258.605 73.917C258.549 73.771 258.3 73.667 258.004 73.667C257.666 73.667 257.499 73.584 257.499 73.417C257.499 73.26 257.341 73.167 257.077 73.167C256.845 73.167 256.612 73.054 256.559 72.917C256.507 72.779 256.359 72.667 256.231 72.667C256.103 72.667 255.999 72.554 255.999 72.417C255.999 72.279 255.886 72.167 255.749 72.167C255.611 72.167 255.499 72.054 255.499 71.917C255.499 71.779 255.386 71.667 255.249 71.667C255.111 71.667 254.998 71.573 254.996 71.458C254.993 71.204 254.273 70.5 254.017 70.5C253.916 70.5 253.832 70.275 253.832 70C253.832 69.684 253.747 69.5 253.6 69.5C253.473 69.5 253.321 69.313 253.264 69.083C253.206 68.854 253.086 68.667 252.996 68.667C252.906 68.667 252.832 68.485 252.832 68.262C252.832 68.039 252.72 67.745 252.582 67.607C252.445 67.47 252.332 67.162 252.332 66.923C252.332 66.685 252.22 66.446 252.082 66.394C251.913 66.328 251.832 66.063 251.832 65.566C251.832 65.026 251.767 64.833 251.582 64.833C251.382 64.833 251.332 64.583 251.332 63.578C251.332 62.616 251.274 62.3 251.082 62.227C250.869 62.145 250.832 61.49 250.832 57.75C250.832 54.01 250.869 53.355 251.082 53.273C251.271 53.201 251.332 52.895 251.332 52.023C251.332 51.151 251.393 50.846 251.582 50.773C251.754 50.707 251.832 50.439 251.832 49.922C251.832 49.362 251.897 49.167 252.082 49.167C252.255 49.167 252.332 48.993 252.332 48.604C252.332 48.294 252.445 47.947 252.582 47.833C252.72 47.719 252.832 47.445 252.832 47.224C252.832 47.004 252.945 46.78 253.082 46.727C253.22 46.674 253.332 46.489 253.332 46.316C253.332 46.142 253.445 46 253.582 46C253.749 46 253.832 45.833 253.832 45.5C253.832 45.111 253.906 45 254.166 45C254.351 45 254.499 44.889 254.499 44.75C254.499 44.612 254.611 44.5 254.749 44.5C254.886 44.5 254.999 44.387 254.999 44.25C254.999 44.112 255.111 44 255.249 44C255.386 44 255.499 43.887 255.499 43.75C255.499 43.612 255.611 43.5 255.749 43.5C255.886 43.5 256 43.406 256.001 43.292C256.001 43.177 256.339 42.935 256.751 42.754C257.233 42.542 257.499 42.32 257.499 42.129C257.499 41.904 257.634 41.833 258.065 41.833C258.413 41.833 258.667 41.738 258.726 41.583C258.793 41.408 259.067 41.333 259.643 41.333C260.218 41.333 260.492 41.259 260.559 41.083C260.638 40.878 261.067 40.833 262.976 40.833C264.885 40.833 265.314 40.878 265.393 41.083Z" fill="#676767"/>
<path fill-rule="evenodd" clip-rule="evenodd" d="M390.332 0.417C390.332 0.676 390.238 0.833 390.082 0.833C389.918 0.833 389.832 0.998 389.832 1.313C389.832 1.577 389.72 1.886 389.582 2C389.445 2.114 389.332 2.351 389.332 2.526C389.332 2.701 389.236 2.881 389.117 2.926C388.847 3.03 388.778 3.712 389.048 3.623C389.156 3.587 389.316 3.301 389.403 2.987C389.49 2.673 389.609 2.379 389.667 2.333C390.028 2.047 390.768 0 390.51 0C390.412 0 390.332 0.188 390.332 0.417ZM399.666 1.417C399.666 1.554 399.741 1.667 399.832 1.667C399.924 1.667 399.999 1.554 399.999 1.417C399.999 1.279 399.924 1.167 399.832 1.167C399.741 1.167 399.666 1.279 399.666 1.417ZM399.499 2.056C399.499 2.208 399.424 2.333 399.332 2.333C399.241 2.333 399.166 2.446 399.166 2.583C399.166 2.721 399.233 2.833 399.314 2.833C399.488 2.833 399.725 2.004 399.59 1.869C399.54 1.819 399.499 1.903 399.499 2.056ZM398.723 3.424C398.669 3.565 398.666 3.723 398.717 3.774C398.863 3.92 399.166 3.672 399.166 3.407C399.166 3.087 398.848 3.099 398.723 3.424ZM388.443 4.111C388.382 4.172 388.332 4.403 388.332 4.623C388.332 4.979 388.36 4.996 388.582 4.774C388.72 4.636 388.832 4.406 388.832 4.262C388.832 3.991 388.638 3.916 388.443 4.111ZM398.359 4.275C398.237 4.408 398.186 4.644 398.246 4.8C398.347 5.063 398.367 5.062 398.521 4.786C398.771 4.343 398.649 3.96 398.359 4.275ZM397.846 5.388C397.716 5.633 397.661 5.884 397.724 5.947C397.919 6.142 398.197 5.724 398.138 5.324C398.083 4.947 398.08 4.948 397.846 5.388ZM388.039 5.36C387.925 5.474 387.832 5.68 387.832 5.819C387.832 6.037 387.869 6.035 388.102 5.802C388.25 5.654 388.343 5.448 388.308 5.343C388.262 5.207 388.188 5.211 388.039 5.36ZM397.362 6.511C397.242 6.706 397.187 6.91 397.24 6.963C397.401 7.124 397.701 6.723 397.64 6.429C397.592 6.2 397.547 6.213 397.362 6.511ZM387.366 6.7C387.256 6.81 387.166 7.029 387.166 7.186C387.166 7.343 387.078 7.501 386.972 7.537C386.865 7.572 386.759 7.733 386.735 7.893C386.686 8.231 387.004 8.18 387.172 7.823C387.234 7.691 387.412 7.34 387.568 7.042C387.851 6.501 387.744 6.321 387.366 6.7ZM397.018 7.355C397.008 7.504 396.886 7.719 396.749 7.833C396.612 7.947 396.499 8.172 396.499 8.333C396.499 8.494 396.386 8.719 396.249 8.833C396.112 8.947 395.999 9.172 395.999 9.333C395.999 9.494 395.883 9.722 395.741 9.84C395.6 9.957 395.519 10.145 395.562 10.256C395.605 10.368 395.552 10.552 395.444 10.666C395.306 10.812 395.355 10.808 395.613 10.653C395.814 10.532 395.94 10.373 395.895 10.3C395.85 10.227 395.892 10.167 395.989 10.167C396.086 10.167 396.168 9.998 396.171 9.792C396.174 9.585 396.286 9.271 396.421 9.093C396.556 8.915 396.666 8.623 396.666 8.445C396.666 8.266 396.786 8.032 396.934 7.924C397.087 7.812 397.167 7.589 397.12 7.406C397.059 7.167 397.033 7.154 397.018 7.355ZM386.445 8.652C386.278 8.713 386.147 8.816 386.153 8.882C386.208 9.405 386.129 9.667 385.916 9.667C385.741 9.667 385.666 9.843 385.666 10.25C385.666 10.592 385.589 10.816 385.48 10.792C385.378 10.769 385.265 10.923 385.23 11.135C385.117 11.801 385.457 11.375 386.161 9.97C386.893 8.507 386.897 8.488 386.445 8.652ZM395.11 11.111C394.92 11.301 394.988 11.667 395.214 11.667C395.332 11.667 395.439 11.517 395.453 11.333C395.478 11.001 395.321 10.9 395.11 11.111ZM384.82 11.842C384.714 12.481 384.622 12.755 384.414 13.052C384.278 13.248 384.166 13.509 384.166 13.632C384.166 13.976 384.724 13.362 384.787 12.948C384.816 12.762 384.924 12.507 385.029 12.381C385.17 12.21 385.17 12.104 385.025 11.96C384.919 11.853 384.827 11.8 384.82 11.842ZM394.699 12.2C394.427 12.472 394.448 12.667 394.749 12.667C394.888 12.667 394.999 12.519 394.999 12.333C394.999 11.945 394.968 11.931 394.699 12.2ZM394.207 13.093C394.093 13.217 393.999 13.405 393.999 13.509C393.999 13.613 393.889 13.898 393.754 14.141C393.201 15.141 392.998 15.833 393.258 15.833C393.415 15.833 393.499 15.659 393.499 15.333C393.499 15 393.582 14.833 393.749 14.833C393.908 14.833 393.999 14.673 393.999 14.393C393.999 14.151 394.119 13.866 394.265 13.759C394.411 13.652 394.505 13.408 394.473 13.216C394.425 12.926 394.38 12.905 394.207 13.093ZM383.711 14.667C383.725 14.85 383.756 15 383.779 15C383.802 15 383.901 14.85 383.999 14.667C384.14 14.403 384.126 14.333 383.932 14.333C383.789 14.333 383.697 14.473 383.711 14.667ZM383.066 15.792C383.007 16.044 382.846 16.34 382.708 16.45C382.385 16.708 382.559 17.197 382.923 17.058C383.086 16.995 383.161 16.832 383.112 16.646C383.068 16.476 383.174 16.156 383.348 15.934C383.73 15.449 383.744 15.333 383.419 15.333C383.283 15.333 383.124 15.54 383.066 15.792ZM392.624 16.514C392.464 16.796 392.332 17.162 392.332 17.326C392.332 17.491 392.22 17.719 392.082 17.833C391.945 17.947 391.832 18.219 391.832 18.437C391.832 18.686 391.735 18.833 391.57 18.833C391.414 18.833 391.33 18.947 391.362 19.113C391.448 19.56 391.726 19.46 391.909 18.917C392.002 18.642 392.127 18.379 392.188 18.333C392.248 18.287 392.382 17.937 392.485 17.555C392.587 17.172 392.753 16.832 392.852 16.799C392.951 16.766 393.006 16.573 392.974 16.37C392.919 16.025 392.897 16.034 392.624 16.514ZM381.999 18.018C381.999 18.263 381.886 18.508 381.749 18.56C381.612 18.613 381.499 18.848 381.499 19.083C381.499 19.318 381.386 19.554 381.249 19.606C381.112 19.659 380.999 19.887 380.999 20.113C380.999 20.339 380.886 20.636 380.749 20.774C380.612 20.911 380.508 21.187 380.518 21.387C380.534 21.672 380.554 21.687 380.614 21.456C380.656 21.295 380.76 21.205 380.845 21.258C380.93 21.31 381.002 21.255 381.005 21.135C381.008 21.015 381.155 20.617 381.332 20.25C381.509 19.883 381.657 19.452 381.66 19.292C381.663 19.131 381.741 19 381.832 19C381.924 19 381.999 18.898 381.999 18.772C381.999 18.647 382.149 18.354 382.332 18.121C382.516 17.888 382.666 17.658 382.666 17.609C382.666 17.56 382.516 17.532 382.332 17.546C382.088 17.564 381.999 17.69 381.999 18.018ZM391.039 19.998C390.772 20.425 390.779 20.5 391.082 20.5C391.238 20.5 391.332 20.343 391.332 20.083C391.332 19.58 391.305 19.572 391.039 19.998ZM390.525 21.052C390.249 21.385 390.329 21.71 390.64 21.516C390.764 21.44 390.839 21.243 390.807 21.079C390.754 20.806 390.73 20.804 390.525 21.052ZM389.89 22.257C389.836 22.399 389.833 22.556 389.884 22.607C390.03 22.753 390.332 22.506 390.332 22.24C390.332 21.92 390.014 21.933 389.89 22.257ZM379.999 22.528C379.999 22.726 380.02 22.858 380.046 22.819C380.072 22.781 380.194 22.619 380.317 22.458C380.508 22.209 380.501 22.167 380.269 22.167C380.103 22.167 379.999 22.306 379.999 22.528ZM389.529 23.177C389.408 23.373 389.353 23.576 389.407 23.63C389.568 23.791 389.868 23.389 389.806 23.095C389.758 22.867 389.713 22.88 389.529 23.177ZM379.499 23.5C379.499 23.683 379.534 23.833 379.576 23.833C379.619 23.833 379.734 23.683 379.832 23.5C379.975 23.234 379.959 23.167 379.755 23.167C379.61 23.167 379.499 23.311 379.499 23.5ZM388.925 24.37C388.782 24.574 388.666 24.865 388.666 25.017C388.666 25.168 388.553 25.386 388.416 25.5C388.278 25.614 388.166 25.877 388.166 26.083C388.166 26.29 388.053 26.553 387.916 26.667C387.778 26.781 387.666 27.006 387.666 27.167C387.666 27.328 387.553 27.553 387.416 27.667C387.14 27.896 387.077 28.333 387.32 28.333C387.405 28.333 387.671 27.902 387.911 27.375C388.151 26.848 388.456 26.218 388.59 25.974C388.723 25.731 388.832 25.337 388.832 25.099C388.832 24.826 388.924 24.667 389.082 24.667C389.221 24.667 389.332 24.519 389.332 24.333C389.332 23.905 389.245 23.913 388.925 24.37ZM378.951 24.5C378.846 24.901 379.247 24.963 379.398 24.57C379.54 24.2 379.529 24.167 379.268 24.167C379.142 24.167 378.999 24.317 378.951 24.5ZM378.633 25.307C378.348 25.596 378.452 26.082 378.753 25.866C378.9 25.762 379.094 24.986 378.968 25.01C378.939 25.015 378.789 25.149 378.633 25.307ZM377.978 26.417C377.967 26.462 377.939 26.575 377.916 26.667C377.893 26.758 377.865 26.983 377.853 27.167C377.842 27.35 377.748 27.481 377.644 27.458C377.541 27.435 377.424 27.642 377.383 27.916C377.343 28.191 377.202 28.476 377.071 28.55C376.94 28.623 376.83 28.848 376.827 29.05C376.824 29.252 376.712 29.562 376.577 29.74C376.442 29.918 376.332 30.122 376.332 30.193C376.332 30.401 376.832 30.151 376.838 29.941C376.841 29.836 376.989 29.45 377.166 29.083C377.343 28.717 377.49 28.323 377.493 28.208C377.496 28.094 377.568 28 377.652 28C377.737 28 377.854 27.78 377.913 27.512C377.972 27.243 378.128 26.934 378.26 26.824C378.391 26.715 378.499 26.56 378.499 26.48C378.499 26.328 378.015 26.269 377.978 26.417ZM351.832 29.066C351.832 29.563 351.913 29.828 352.082 29.894C352.228 29.95 352.332 30.199 352.332 30.495C352.332 30.822 352.416 31 352.571 31C352.708 31 352.833 31.196 352.863 31.457C352.898 31.758 353.03 31.935 353.249 31.976C353.568 32.036 353.57 32.025 353.291 31.715C353.13 31.536 352.999 31.274 352.999 31.132C352.999 30.99 352.886 30.781 352.749 30.667C352.612 30.553 352.496 30.337 352.493 30.188C352.49 30.039 352.384 29.73 352.258 29.503C352.102 29.221 352.079 28.995 352.187 28.794C352.427 28.344 361.224 28.342 361.486 28.792C361.637 29.052 361.656 29.043 361.661 28.708L361.666 28.333H356.749H351.832V29.066ZM386.874 28.777C386.581 28.895 386.614 29.333 386.916 29.333C387.055 29.333 387.166 29.185 387.166 29C387.166 28.817 387.147 28.673 387.124 28.68C387.101 28.687 386.989 28.731 386.874 28.777ZM361.666 29.434C361.666 29.483 361.778 29.636 361.916 29.774C362.132 29.991 362.166 29.991 362.166 29.78C362.166 29.645 362.053 29.492 361.916 29.44C361.778 29.387 361.666 29.384 361.666 29.434ZM386.166 30.167C386.166 30.352 386.277 30.5 386.416 30.5C386.555 30.5 386.666 30.352 386.666 30.167C386.666 29.981 386.555 29.833 386.416 29.833C386.277 29.833 386.166 29.981 386.166 30.167ZM362.166 30.319C362.166 30.432 362.278 30.636 362.416 30.774C362.553 30.911 362.666 31.159 362.666 31.325C362.666 31.49 362.778 31.719 362.916 31.833C363.053 31.947 363.168 32.163 363.171 32.312C363.174 32.461 363.286 32.729 363.421 32.907C363.556 33.085 363.666 33.358 363.666 33.513C363.666 33.669 363.813 33.973 363.993 34.19L364.321 34.583L364.327 34.125C364.33 33.826 364.245 33.667 364.082 33.667C363.93 33.667 363.832 33.512 363.832 33.27C363.832 33.052 363.72 32.781 363.582 32.667C363.445 32.553 363.332 32.324 363.332 32.158C363.332 31.993 363.22 31.745 363.082 31.607C362.945 31.47 362.832 31.213 362.832 31.038C362.832 30.862 362.682 30.583 362.499 30.417C362.289 30.226 362.166 30.19 362.166 30.319ZM385.881 30.919C385.77 31.039 385.628 31.351 385.566 31.611C385.504 31.871 385.379 32.177 385.289 32.292C385.172 32.44 385.203 32.5 385.395 32.5C385.576 32.5 385.666 32.355 385.666 32.06C385.666 31.818 385.786 31.532 385.934 31.424C386.081 31.316 386.175 31.109 386.142 30.964C386.093 30.747 386.046 30.739 385.881 30.919ZM375.832 31.361C375.832 31.56 375.854 31.691 375.879 31.653C375.905 31.615 376.027 31.452 376.15 31.292C376.341 31.042 376.334 31 376.103 31C375.937 31 375.832 31.139 375.832 31.361ZM375.332 32.333C375.332 32.517 375.367 32.667 375.41 32.667C375.452 32.667 375.568 32.517 375.666 32.333C375.808 32.067 375.792 32 375.588 32C375.443 32 375.332 32.145 375.332 32.333ZM353.504 32.87C353.501 33.028 353.644 33.414 353.821 33.729C353.997 34.044 354.097 34.346 354.043 34.401C353.988 34.455 354.068 34.5 354.221 34.5C354.598 34.5 354.572 34.117 354.17 33.754C353.988 33.59 353.874 33.402 353.914 33.336C353.955 33.27 353.881 33.073 353.749 32.9C353.534 32.615 353.509 32.612 353.504 32.87ZM385.022 32.842C385.009 32.984 384.91 33.189 384.801 33.298C384.693 33.406 384.578 33.661 384.547 33.864C384.516 34.067 384.38 34.355 384.245 34.504C384.11 34.654 383.999 34.869 383.999 34.983C383.999 35.097 383.886 35.303 383.749 35.44C383.612 35.578 383.499 35.863 383.499 36.075C383.499 36.286 383.386 36.553 383.249 36.667C382.957 36.909 382.921 37.167 383.18 37.167C383.28 37.167 383.446 36.942 383.55 36.667C383.654 36.392 383.796 36.167 383.867 36.167C383.937 36.167 384.043 35.868 384.101 35.503C384.164 35.11 384.277 34.883 384.379 34.945C384.478 35.007 384.5 34.97 384.432 34.859C384.366 34.753 384.392 34.667 384.489 34.667C384.586 34.667 384.666 34.485 384.666 34.262C384.666 34.039 384.783 33.739 384.927 33.596C385.071 33.452 385.156 33.165 385.117 32.959C385.077 32.752 385.034 32.7 385.022 32.842ZM374.841 33.318C374.744 33.498 374.666 33.765 374.666 33.911C374.666 34.057 374.553 34.22 374.416 34.273C374.163 34.37 374.059 34.836 374.291 34.831C374.482 34.827 374.863 34.559 374.847 34.44C374.782 33.959 374.871 33.667 375.082 33.667C375.22 33.667 375.332 33.559 375.332 33.427C375.332 33.033 375.029 32.966 374.841 33.318ZM364.332 34.823C364.332 34.91 364.398 35.021 364.477 35.07C364.557 35.119 364.669 35.391 364.725 35.673C364.871 36.4 365.332 36.854 365.332 36.27C365.332 36.039 365.22 35.787 365.083 35.711C364.947 35.634 364.818 35.368 364.797 35.119C364.764 34.714 364.332 34.44 364.332 34.823ZM354.499 35.23C354.499 35.507 354.59 35.667 354.749 35.667C354.886 35.667 354.999 35.563 354.999 35.437C354.999 35.311 354.886 35.114 354.749 35C354.538 34.825 354.499 34.86 354.499 35.23ZM373.777 35.278C373.716 35.339 373.666 35.559 373.666 35.766C373.666 35.973 373.553 36.255 373.416 36.393C373.278 36.53 373.166 36.766 373.166 36.917C373.166 37.067 373.053 37.303 372.916 37.44C372.778 37.578 372.666 37.948 372.666 38.262C372.666 38.659 372.589 38.833 372.416 38.833C372.272 38.833 372.166 38.984 372.166 39.189C372.166 39.687 372.772 38.933 372.857 38.328C372.889 38.102 373.009 37.818 373.124 37.696C373.239 37.575 373.332 37.378 373.332 37.259C373.332 37.139 373.445 36.947 373.582 36.833C373.72 36.719 373.832 36.445 373.832 36.224C373.832 36.004 373.932 35.784 374.055 35.738C374.328 35.633 374.351 35.167 374.082 35.167C373.975 35.167 373.838 35.217 373.777 35.278ZM354.999 36.218C354.999 36.506 355.089 36.667 355.249 36.667C355.56 36.667 355.559 36.509 355.244 36.093C355.009 35.783 354.999 35.788 354.999 36.218ZM355.499 37.238C355.499 37.508 355.592 37.667 355.749 37.667C355.886 37.667 355.999 37.586 355.999 37.488C355.999 37.39 355.886 37.197 355.749 37.06C355.527 36.837 355.499 36.857 355.499 37.238ZM365.338 37.107C365.335 37.304 365.445 37.508 365.582 37.56C365.9 37.682 365.902 37.489 365.588 37.074C365.348 36.757 365.343 36.757 365.338 37.107ZM382.696 37.605C382.412 37.913 382.5 38.376 382.805 38.185C382.928 38.108 383.003 37.893 382.972 37.706C382.924 37.415 382.884 37.401 382.696 37.605ZM356 38.202C355.999 38.494 356.125 38.722 356.352 38.844C356.602 38.978 356.673 38.979 356.592 38.849C356.53 38.748 356.371 38.46 356.24 38.208L356.001 37.75L356 38.202ZM382.207 38.61C381.913 38.729 381.948 39.333 382.249 39.333C382.405 39.333 382.499 39.176 382.499 38.917C382.499 38.688 382.48 38.506 382.457 38.513C382.434 38.52 382.322 38.564 382.207 38.61ZM356.499 39.474C356.499 39.682 356.604 39.833 356.749 39.833C356.913 39.833 356.999 39.998 356.999 40.313C356.999 40.577 357.113 40.887 357.253 41.003C357.626 41.313 357.741 41.081 357.433 40.64C357.286 40.431 357.166 40.137 357.166 39.989C357.166 39.84 357.016 39.583 356.832 39.417C356.509 39.124 356.499 39.126 356.499 39.474ZM366.611 39.863C366.764 40.167 366.951 40.529 367.028 40.667C367.105 40.804 367.21 41.029 367.261 41.167C367.312 41.304 367.48 41.673 367.635 41.987C367.789 42.301 367.916 42.616 367.916 42.687C367.916 42.758 368.009 42.91 368.124 43.025C368.239 43.14 368.332 43.298 368.332 43.377C368.332 43.601 369.17 45.316 369.327 45.413C369.467 45.5 370.166 44.453 370.166 44.157C370.166 43.755 369.648 44.049 369.557 44.503C369.436 45.105 368.999 44.891 368.999 44.23C368.999 44.012 368.92 43.833 368.822 43.833C368.725 43.833 368.688 43.765 368.74 43.681C368.792 43.597 368.756 43.502 368.659 43.47C368.563 43.438 368.472 43.246 368.456 43.044C368.441 42.841 368.332 42.638 368.214 42.593C368.096 42.548 367.999 42.31 367.999 42.065C367.999 41.82 367.888 41.537 367.752 41.435C367.616 41.333 367.48 41.075 367.448 40.861C367.417 40.648 367.31 40.423 367.212 40.361C367.113 40.3 367.006 40.063 366.974 39.835C366.942 39.604 366.787 39.396 366.625 39.365C366.351 39.312 366.35 39.341 366.611 39.863ZM381.707 39.916C381.434 40.227 381.444 40.333 381.749 40.333C381.888 40.333 381.999 40.185 381.999 40C381.999 39.609 381.982 39.604 381.707 39.916ZM371.666 40.187C371.666 40.483 371.707 40.507 371.916 40.333C372.053 40.219 372.166 40.06 372.166 39.98C372.166 39.899 372.053 39.833 371.916 39.833C371.772 39.833 371.666 39.984 371.666 40.187ZM381.128 41.1C380.819 41.707 380.87 41.819 381.273 41.417C381.41 41.28 381.498 41.025 381.469 40.85C381.427 40.599 381.356 40.65 381.128 41.1ZM371.166 41.161C371.166 41.385 371.246 41.459 371.416 41.394C371.553 41.341 371.666 41.193 371.666 41.066C371.666 40.938 371.553 40.833 371.416 40.833C371.278 40.833 371.166 40.981 371.166 41.161ZM357.59 41.654C357.537 41.74 357.571 41.858 357.666 41.917C357.76 41.975 357.787 42.104 357.726 42.204C357.662 42.307 357.691 42.337 357.792 42.275C357.89 42.214 358.009 42.259 358.055 42.374C358.104 42.496 358.145 42.457 358.153 42.28C358.168 41.918 357.729 41.429 357.59 41.654ZM380.315 42.958C380.029 43.577 379.69 44.282 379.563 44.526C379.436 44.769 379.332 45.08 379.332 45.216C379.332 45.353 379.22 45.508 379.082 45.56C378.76 45.684 378.758 46 379.079 46C379.215 46 379.378 45.794 379.441 45.543C379.504 45.292 379.655 44.987 379.777 44.865C379.899 44.743 379.999 44.458 379.999 44.233C379.999 44.007 380.112 43.78 380.249 43.727C380.386 43.674 380.499 43.484 380.499 43.304C380.499 43.124 380.612 42.864 380.749 42.726C380.98 42.495 381.105 41.833 380.917 41.833C380.872 41.833 380.601 42.34 380.315 42.958ZM370.585 42.486C370.527 42.753 370.371 43.014 370.239 43.064C370.107 43.115 369.999 43.279 369.999 43.429C369.999 43.61 370.088 43.668 370.263 43.601C370.408 43.546 370.558 43.5 370.596 43.5C370.634 43.5 370.666 43.322 370.666 43.104C370.666 42.886 370.778 42.614 370.916 42.5C371.231 42.238 371.237 42 370.929 42C370.799 42 370.644 42.219 370.585 42.486ZM358.114 42.988C358.211 43.358 358.666 43.596 358.666 43.278C358.666 43.051 358.341 42.667 358.148 42.667C358.083 42.667 358.068 42.811 358.114 42.988ZM358.666 44.042C358.666 44.191 358.746 44.363 358.843 44.424C359.129 44.6 359.157 44.442 358.902 44.093C358.704 43.823 358.666 43.814 358.666 44.042ZM359.166 45.051C359.166 45.339 359.255 45.5 359.416 45.5C359.727 45.5 359.725 45.343 359.41 44.926C359.176 44.616 359.166 44.621 359.166 45.051ZM359.695 46.167C359.729 46.396 359.849 46.565 359.961 46.542C360.086 46.516 360.166 46.692 360.166 46.99C360.166 47.26 360.246 47.53 360.343 47.59C360.61 47.755 360.756 47.524 360.53 47.297C360.421 47.189 360.332 46.996 360.332 46.868C360.332 46.74 360.175 46.437 359.983 46.193L359.633 45.75L359.695 46.167ZM378.539 46.527C378.288 46.777 378.267 47.167 378.504 47.167C378.706 47.167 378.89 46.756 378.804 46.499C378.765 46.38 378.676 46.389 378.539 46.527ZM378.039 47.664C377.772 48.092 377.779 48.167 378.082 48.167C378.238 48.167 378.332 48.009 378.332 47.75C378.332 47.247 378.305 47.239 378.039 47.664ZM360.676 48.191C360.67 48.436 360.776 48.673 360.916 48.727C361.053 48.78 361.166 48.967 361.166 49.143C361.166 49.581 361.819 50.381 361.827 49.953C361.83 49.79 361.72 49.613 361.582 49.56C361.445 49.508 361.332 49.289 361.332 49.075C361.332 48.861 361.252 48.637 361.154 48.576C361.056 48.515 360.911 48.305 360.831 48.108C360.695 47.771 360.686 47.776 360.676 48.191ZM377.539 48.664C377.272 49.092 377.279 49.167 377.582 49.167C377.738 49.167 377.832 49.009 377.832 48.75C377.832 48.247 377.805 48.239 377.539 48.664ZM377.047 49.919C376.937 50.039 376.794 50.351 376.73 50.611C376.666 50.871 376.562 51.121 376.498 51.167C376.435 51.212 376.305 51.475 376.211 51.75C376.118 52.025 375.956 52.231 375.853 52.208C375.746 52.185 375.666 52.384 375.666 52.672C375.666 52.967 375.562 53.217 375.416 53.273C375.278 53.326 375.166 53.539 375.166 53.747C375.166 53.956 375.053 54.219 374.916 54.333C374.652 54.553 374.573 55 374.799 55C375.053 55 375.332 54.599 375.332 54.234C375.332 54.033 375.446 53.826 375.584 53.772C375.722 53.719 375.826 53.618 375.814 53.546C375.75 53.155 375.853 52.66 375.982 52.739C376.149 52.843 376.332 52.46 376.332 52.004C376.332 51.838 376.45 51.657 376.593 51.602C376.736 51.547 376.814 51.439 376.766 51.361C376.718 51.284 376.83 50.939 377.014 50.594C377.368 49.934 377.387 49.549 377.047 49.919ZM361.772 50.466C361.695 50.589 361.724 50.786 361.838 50.924C362.102 51.241 362.332 51.233 362.332 50.907C362.332 50.764 362.263 50.69 362.178 50.742C362.094 50.795 361.998 50.705 361.966 50.544C361.922 50.322 361.875 50.303 361.772 50.466ZM362.26 51.708C362.324 51.915 362.479 52.143 362.604 52.217C362.73 52.29 362.832 52.571 362.832 52.842C362.832 53.168 362.917 53.333 363.082 53.333C363.359 53.333 363.42 53.074 363.178 52.925C363.094 52.872 362.975 52.605 362.915 52.331C362.855 52.057 362.737 51.833 362.652 51.833C362.568 51.833 362.499 51.721 362.499 51.583C362.499 51.446 362.419 51.333 362.321 51.333C362.213 51.333 362.189 51.481 362.26 51.708ZM363.332 53.98C363.332 54.183 363.439 54.333 363.582 54.333C363.72 54.333 363.832 54.268 363.832 54.187C363.832 54.107 363.72 53.947 363.582 53.833C363.373 53.66 363.332 53.684 363.332 53.98ZM363.832 55.024C363.832 55.287 363.926 55.444 364.082 55.444C364.391 55.444 364.39 55.341 364.077 54.926C363.841 54.614 363.832 54.618 363.832 55.024ZM374.338 55.489C374.108 55.92 374.12 56 374.416 56C374.571 56 374.666 55.843 374.666 55.583C374.666 55.083 374.57 55.056 374.338 55.489ZM364.352 56.024C364.341 56.276 364.439 56.505 364.582 56.56C364.72 56.613 364.832 56.813 364.832 57.006C364.832 57.503 365.133 58 365.434 58C365.644 58 365.63 57.924 365.356 57.576C365.172 57.342 364.973 56.93 364.914 56.659C364.854 56.388 364.742 56.167 364.665 56.167C364.587 56.167 364.489 56.035 364.447 55.875C364.398 55.688 364.364 55.742 364.352 56.024ZM373.871 56.667C373.697 56.945 373.705 57 373.914 57C374.055 57 374.166 56.853 374.166 56.667C374.166 56.483 374.146 56.333 374.122 56.333C374.099 56.333 373.986 56.483 373.871 56.667ZM373.291 57.681C373.012 57.986 373.013 58 373.332 58C373.555 58 373.666 57.889 373.666 57.667C373.666 57.272 373.664 57.272 373.291 57.681Z" fill="#676767"/>
</svg>
