<svg id="svg" version="1.1" xmlns="http://www.w3.org/2000/svg" xmlns:xlink="http://www.w3.org/1999/xlink" width="400" height="120.31249999999999" viewBox="0, 0, 400,120.31249999999999"><g id="svgg"><path id="path0" d="M248.333 72.511 C 245.340 72.784,244.750 72.863,244.592 73.015 C 244.505 73.098,244.111 73.167,243.717 73.167 C 243.322 73.167,243.000 73.242,243.000 73.333 C 243.000 73.425,242.662 73.500,242.250 73.500 C 241.838 73.500,241.500 73.575,241.500 73.667 C 241.500 73.758,241.242 73.833,240.927 73.833 C 240.611 73.833,240.307 73.908,240.250 74.000 C 240.193 74.092,239.926 74.167,239.657 74.167 C 239.387 74.167,239.167 74.242,239.167 74.333 C 239.167 74.425,238.979 74.500,238.750 74.500 C 238.521 74.500,238.333 74.565,238.333 74.645 C 238.333 74.725,237.961 74.840,237.507 74.900 C 237.052 74.960,236.635 75.082,236.580 75.171 C 236.525 75.261,236.335 75.333,236.157 75.333 C 235.979 75.333,235.833 75.408,235.833 75.500 C 235.833 75.592,235.690 75.667,235.516 75.667 C 235.176 75.667,233.787 76.334,233.694 76.542 C 233.664 76.610,233.495 76.667,233.319 76.667 C 233.144 76.667,233.000 76.742,233.000 76.833 C 233.000 76.925,232.850 77.000,232.667 77.000 C 232.483 77.000,232.333 77.061,232.333 77.135 C 232.333 77.209,232.015 77.409,231.625 77.579 C 231.235 77.749,230.795 78.026,230.647 78.194 C 230.499 78.362,230.287 78.500,230.176 78.500 C 229.021 78.500,228.016 81.979,229.125 82.137 C 229.331 82.166,229.500 82.260,229.500 82.345 C 229.500 82.430,229.912 82.500,230.417 82.500 C 230.921 82.500,231.333 82.435,231.333 82.355 C 231.333 82.221,234.658 81.935,238.583 81.732 C 239.500 81.684,240.321 81.575,240.408 81.489 C 240.495 81.403,241.789 81.333,243.283 81.333 C 244.983 81.333,246.000 81.271,246.000 81.167 C 246.000 81.068,246.611 81.000,247.500 81.000 C 248.389 81.000,249.000 81.068,249.000 81.167 C 249.000 81.269,249.778 81.333,251.000 81.333 C 252.222 81.333,253.000 81.398,253.000 81.500 C 253.000 81.592,253.333 81.667,253.740 81.667 C 254.147 81.667,254.521 81.733,254.571 81.814 C 254.622 81.895,255.011 82.014,255.436 82.078 C 255.861 82.141,256.364 82.337,256.553 82.513 C 256.742 82.689,256.988 82.833,257.101 82.833 C 257.213 82.833,257.405 83.058,257.527 83.333 C 257.648 83.608,257.805 83.833,257.874 83.833 C 257.943 83.833,258.000 84.021,258.000 84.250 C 258.000 84.479,258.075 84.667,258.167 84.667 C 258.267 84.667,258.333 85.361,258.333 86.417 C 258.333 87.472,258.267 88.167,258.167 88.167 C 258.075 88.167,258.000 88.579,258.000 89.083 C 258.000 89.587,257.925 90.000,257.833 90.000 C 257.742 90.000,257.667 90.333,257.667 90.740 C 257.667 91.147,257.592 91.527,257.500 91.583 C 257.408 91.640,257.333 91.944,257.333 92.260 C 257.333 92.575,257.258 92.833,257.167 92.833 C 257.075 92.833,257.000 92.997,257.000 93.197 C 257.000 93.574,256.728 94.546,256.487 95.027 C 256.411 95.180,256.298 95.686,256.236 96.152 C 256.174 96.618,256.058 97.000,255.979 97.000 C 255.899 97.000,255.833 97.183,255.833 97.407 C 255.833 97.631,255.758 97.860,255.667 97.917 C 255.575 97.973,255.500 98.203,255.500 98.427 C 255.500 98.650,255.425 98.833,255.333 98.833 C 255.242 98.833,255.167 99.016,255.167 99.240 C 255.167 99.464,255.092 99.693,255.000 99.750 C 254.908 99.807,254.833 100.036,254.833 100.260 C 254.833 100.484,254.758 100.667,254.667 100.667 C 254.575 100.667,254.500 100.892,254.500 101.167 C 254.500 101.442,254.425 101.667,254.333 101.667 C 254.242 101.667,254.167 101.808,254.167 101.981 C 254.167 102.154,254.055 102.510,253.918 102.773 C 253.781 103.035,253.668 103.456,253.668 103.708 C 253.667 103.960,253.592 104.167,253.500 104.167 C 253.408 104.167,253.333 104.317,253.333 104.500 C 253.333 104.683,253.258 104.833,253.167 104.833 C 253.075 104.833,253.000 105.021,253.000 105.250 C 253.000 105.479,252.925 105.667,252.833 105.667 C 252.742 105.667,252.667 105.814,252.667 105.995 C 252.667 106.175,252.517 106.590,252.333 106.917 C 252.150 107.243,252.000 107.652,252.000 107.825 C 252.000 107.997,251.944 108.164,251.875 108.194 C 251.302 108.449,251.002 110.926,251.478 111.474 C 251.811 111.859,253.833 112.024,253.833 111.667 C 253.833 111.575,253.980 111.500,254.159 111.500 C 254.338 111.500,254.672 111.313,254.902 111.083 C 255.131 110.854,255.360 110.667,255.410 110.667 C 255.560 110.667,258.056 108.125,258.417 107.604 C 258.600 107.340,258.919 106.950,259.125 106.737 C 259.331 106.523,259.500 106.307,259.500 106.256 C 259.500 106.205,259.725 105.928,260.000 105.640 C 260.275 105.353,260.500 105.016,260.500 104.892 C 260.500 104.768,260.563 104.667,260.640 104.667 C 260.718 104.667,260.922 104.404,261.095 104.083 C 261.268 103.763,261.467 103.500,261.538 103.500 C 261.609 103.500,261.667 103.350,261.667 103.167 C 261.667 102.983,261.742 102.833,261.833 102.833 C 261.925 102.833,262.000 102.711,262.000 102.561 C 262.000 102.412,262.137 102.168,262.304 102.020 C 262.472 101.871,262.715 101.506,262.845 101.208 C 262.975 100.910,263.138 100.667,263.207 100.667 C 263.277 100.667,263.333 100.517,263.333 100.333 C 263.333 100.150,263.400 100.000,263.481 100.000 C 263.563 100.000,263.679 99.737,263.739 99.417 C 263.799 99.096,263.920 98.833,264.008 98.833 C 264.095 98.833,264.167 98.683,264.167 98.500 C 264.167 98.317,264.242 98.167,264.333 98.167 C 264.425 98.167,264.500 98.021,264.500 97.843 C 264.500 97.665,264.575 97.473,264.667 97.417 C 264.758 97.360,264.833 97.168,264.833 96.990 C 264.833 96.812,264.908 96.667,265.000 96.667 C 265.092 96.667,265.167 96.517,265.167 96.333 C 265.167 96.150,265.242 96.000,265.333 96.000 C 265.425 96.000,265.500 95.781,265.500 95.514 C 265.500 95.247,265.556 95.003,265.625 94.972 C 265.804 94.893,266.335 93.321,266.334 92.875 C 266.334 92.669,266.408 92.500,266.500 92.500 C 266.592 92.500,266.667 92.275,266.667 92.000 C 266.667 91.725,266.742 91.500,266.833 91.500 C 266.925 91.500,267.000 91.237,267.000 90.917 C 267.000 90.596,267.075 90.333,267.167 90.333 C 267.258 90.333,267.333 90.071,267.333 89.750 C 267.333 89.429,267.408 89.167,267.500 89.167 C 267.592 89.167,267.667 88.867,267.667 88.500 C 267.667 88.133,267.742 87.833,267.833 87.833 C 267.925 87.833,268.000 87.496,268.000 87.083 C 268.000 86.671,268.068 86.333,268.151 86.333 C 268.305 86.333,268.345 86.051,268.672 82.667 C 268.879 80.531,268.773 76.373,268.506 76.106 C 268.411 76.011,268.333 75.815,268.333 75.670 C 268.333 75.525,268.174 75.297,267.980 75.162 C 267.785 75.027,267.528 74.823,267.408 74.708 C 267.288 74.594,267.073 74.500,266.929 74.500 C 266.785 74.500,266.667 74.425,266.667 74.333 C 266.667 74.242,266.479 74.167,266.250 74.167 C 266.021 74.167,265.833 74.092,265.833 74.000 C 265.833 73.908,265.688 73.833,265.510 73.833 C 265.332 73.833,265.140 73.758,265.083 73.667 C 265.027 73.575,264.722 73.500,264.407 73.500 C 264.091 73.500,263.833 73.425,263.833 73.333 C 263.833 73.242,263.496 73.167,263.083 73.167 C 262.671 73.167,262.333 73.092,262.333 73.000 C 262.333 72.908,261.936 72.833,261.450 72.833 C 260.964 72.833,260.487 72.754,260.389 72.656 C 260.161 72.428,250.523 72.312,248.333 72.511 M57.667 76.500 C 57.667 76.592,57.469 76.667,57.228 76.667 C 55.890 76.667,55.714 79.641,56.989 80.708 C 57.180 80.869,57.375 81.000,57.421 81.000 C 57.467 81.000,58.004 81.487,58.615 82.083 C 59.225 82.679,59.794 83.167,59.879 83.167 C 59.964 83.167,60.232 83.376,60.475 83.632 C 60.718 83.888,61.215 84.319,61.581 84.590 C 61.946 84.862,62.471 85.291,62.747 85.545 C 63.699 86.419,65.064 87.500,65.215 87.500 C 65.298 87.500,65.576 87.725,65.833 88.000 C 66.090 88.275,66.355 88.500,66.422 88.500 C 66.489 88.500,66.666 88.639,66.814 88.809 C 66.962 88.978,67.346 89.252,67.667 89.417 C 67.987 89.581,68.371 89.855,68.520 90.025 C 68.668 90.194,68.837 90.333,68.896 90.333 C 68.955 90.333,69.238 90.558,69.526 90.833 C 69.814 91.108,70.151 91.333,70.275 91.333 C 70.399 91.333,70.500 91.392,70.500 91.464 C 70.500 91.536,70.744 91.738,71.042 91.914 C 71.340 92.090,71.729 92.368,71.906 92.533 C 72.084 92.698,72.311 92.833,72.411 92.833 C 72.511 92.833,72.701 92.983,72.833 93.167 C 72.965 93.350,73.179 93.500,73.309 93.500 C 73.438 93.500,73.666 93.639,73.814 93.809 C 73.962 93.980,74.252 94.172,74.458 94.237 C 74.665 94.303,74.833 94.426,74.833 94.511 C 74.833 94.597,74.967 94.667,75.130 94.667 C 75.293 94.667,75.535 94.817,75.667 95.000 C 75.799 95.183,75.968 95.333,76.044 95.333 C 76.119 95.333,76.342 95.483,76.538 95.667 C 76.735 95.850,76.995 96.000,77.115 96.000 C 77.235 96.000,77.333 96.064,77.333 96.141 C 77.333 96.219,77.652 96.423,78.042 96.595 C 78.431 96.766,78.871 97.040,79.020 97.203 C 79.168 97.367,79.412 97.500,79.561 97.500 C 79.711 97.500,79.833 97.575,79.833 97.667 C 79.833 97.758,79.932 97.833,80.052 97.833 C 80.172 97.833,80.431 97.983,80.628 98.167 C 80.825 98.350,81.031 98.500,81.085 98.500 C 81.140 98.500,81.460 98.688,81.798 98.917 C 82.135 99.146,82.543 99.333,82.705 99.333 C 82.867 99.333,83.000 99.408,83.000 99.500 C 83.000 99.592,83.133 99.667,83.297 99.667 C 83.460 99.667,83.701 99.817,83.833 100.000 C 83.965 100.183,84.170 100.333,84.287 100.333 C 84.404 100.333,84.500 100.408,84.500 100.500 C 84.500 100.592,84.650 100.667,84.833 100.667 C 85.017 100.667,85.167 100.742,85.167 100.833 C 85.167 100.925,85.317 101.000,85.500 101.000 C 85.683 101.000,85.833 101.058,85.833 101.129 C 85.833 101.200,86.170 101.407,86.582 101.588 C 86.993 101.769,87.331 101.973,87.332 102.042 C 87.333 102.110,87.483 102.167,87.667 102.167 C 87.850 102.167,88.000 102.242,88.000 102.333 C 88.000 102.425,88.150 102.500,88.333 102.500 C 88.517 102.500,88.667 102.575,88.667 102.667 C 88.667 102.758,88.779 102.833,88.917 102.833 C 89.054 102.833,89.167 102.908,89.167 103.000 C 89.167 103.092,89.317 103.167,89.500 103.167 C 89.683 103.167,89.833 103.242,89.833 103.333 C 89.833 103.425,89.983 103.500,90.167 103.500 C 90.350 103.500,90.500 103.575,90.500 103.667 C 90.500 103.758,90.650 103.833,90.833 103.833 C 91.017 103.833,91.167 103.905,91.167 103.992 C 91.167 104.080,91.429 104.201,91.750 104.261 C 92.071 104.321,92.333 104.437,92.333 104.519 C 92.333 104.600,92.483 104.667,92.667 104.667 C 92.850 104.667,93.000 104.742,93.000 104.833 C 93.000 104.925,93.150 105.000,93.333 105.000 C 93.517 105.000,93.667 105.075,93.667 105.167 C 93.667 105.258,93.779 105.333,93.917 105.333 C 94.054 105.333,94.167 105.408,94.167 105.500 C 94.167 105.592,94.317 105.667,94.500 105.667 C 94.683 105.667,94.833 105.742,94.833 105.833 C 94.833 105.925,94.932 106.000,95.052 106.000 C 95.172 106.000,95.585 106.152,95.970 106.338 C 96.354 106.523,96.893 106.720,97.168 106.775 C 97.442 106.830,97.667 106.941,97.667 107.021 C 97.667 107.101,97.817 107.167,98.000 107.167 C 98.183 107.167,98.333 107.242,98.333 107.333 C 98.333 107.425,98.483 107.500,98.667 107.500 C 98.850 107.500,99.000 107.575,99.000 107.667 C 99.000 107.758,99.188 107.833,99.417 107.833 C 99.646 107.833,99.833 107.908,99.833 108.000 C 99.833 108.092,99.983 108.167,100.167 108.167 C 100.350 108.167,100.500 108.242,100.500 108.333 C 100.500 108.425,100.614 108.500,100.752 108.500 C 100.891 108.500,101.135 108.569,101.294 108.653 C 102.072 109.063,102.842 109.333,103.234 109.333 C 103.472 109.333,103.667 109.390,103.668 109.458 C 103.670 109.627,104.494 110.000,104.867 110.000 C 105.032 110.000,105.167 110.075,105.167 110.167 C 105.167 110.258,105.283 110.333,105.425 110.333 C 105.567 110.333,105.993 110.483,106.373 110.667 C 106.752 110.850,107.199 111.000,107.365 111.000 C 107.531 111.000,107.667 111.065,107.667 111.145 C 107.667 111.225,108.042 111.340,108.500 111.401 C 108.958 111.462,109.333 111.584,109.333 111.672 C 109.333 111.761,109.521 111.833,109.750 111.833 C 109.979 111.833,110.167 111.908,110.167 112.000 C 110.167 112.092,110.392 112.167,110.667 112.167 C 110.942 112.167,111.167 112.242,111.167 112.333 C 111.167 112.425,111.350 112.500,111.573 112.500 C 111.797 112.500,112.027 112.575,112.083 112.667 C 112.140 112.758,112.365 112.833,112.583 112.833 C 112.802 112.833,113.027 112.908,113.083 113.000 C 113.140 113.092,113.365 113.167,113.583 113.167 C 113.802 113.167,114.027 113.242,114.083 113.333 C 114.140 113.425,114.407 113.500,114.677 113.500 C 114.946 113.500,115.167 113.566,115.167 113.647 C 115.167 113.729,115.578 113.846,116.081 113.909 C 116.583 113.972,117.038 114.093,117.091 114.178 C 117.143 114.264,117.444 114.333,117.760 114.333 C 118.075 114.333,118.333 114.408,118.333 114.500 C 118.333 114.592,118.558 114.667,118.833 114.667 C 119.108 114.667,119.333 114.742,119.333 114.833 C 119.333 114.925,119.596 115.000,119.917 115.000 C 120.237 115.000,120.500 115.075,120.500 115.167 C 120.500 115.258,120.763 115.333,121.083 115.333 C 121.404 115.333,121.667 115.408,121.667 115.500 C 121.667 115.592,121.967 115.667,122.333 115.667 C 122.700 115.667,123.000 115.742,123.000 115.833 C 123.000 115.925,123.258 116.000,123.573 116.000 C 123.889 116.000,124.189 116.067,124.240 116.150 C 124.290 116.232,124.858 116.352,125.500 116.417 C 126.142 116.481,126.710 116.601,126.760 116.684 C 126.811 116.766,127.186 116.833,127.593 116.833 C 128.000 116.833,128.333 116.908,128.333 117.000 C 128.333 117.092,128.629 117.167,128.990 117.167 C 129.351 117.167,129.693 117.242,129.750 117.333 C 129.807 117.425,130.144 117.500,130.500 117.500 C 130.856 117.500,131.193 117.575,131.250 117.667 C 131.307 117.758,131.724 117.833,132.177 117.833 C 132.629 117.833,133.000 117.908,133.000 118.000 C 133.000 118.092,133.371 118.167,133.823 118.167 C 134.276 118.167,134.693 118.242,134.750 118.333 C 134.807 118.425,135.257 118.500,135.750 118.500 C 136.243 118.500,136.689 118.568,136.741 118.652 C 136.793 118.736,137.735 118.858,138.834 118.924 C 139.934 118.989,140.833 119.108,140.833 119.188 C 140.833 119.268,141.396 119.333,142.083 119.333 C 142.806 119.333,143.333 119.404,143.333 119.500 C 143.333 119.598,143.933 119.667,144.800 119.667 C 145.751 119.667,146.340 119.740,146.475 119.875 C 146.639 120.039,149.936 120.083,161.833 120.083 C 173.731 120.083,177.028 120.039,177.192 119.875 C 177.325 119.742,177.899 119.667,178.783 119.667 C 179.594 119.667,180.167 119.598,180.167 119.500 C 180.167 119.404,180.694 119.333,181.417 119.333 C 182.104 119.333,182.667 119.268,182.667 119.188 C 182.667 119.108,183.566 118.989,184.666 118.924 C 185.765 118.858,186.707 118.736,186.759 118.652 C 186.811 118.568,187.219 118.500,187.667 118.500 C 188.114 118.500,188.527 118.425,188.583 118.333 C 188.640 118.242,189.094 118.167,189.593 118.167 C 190.092 118.167,190.500 118.092,190.500 118.000 C 190.500 117.908,190.838 117.833,191.250 117.833 C 191.662 117.833,192.000 117.758,192.000 117.667 C 192.000 117.575,192.375 117.500,192.833 117.500 C 193.292 117.500,193.667 117.425,193.667 117.333 C 193.667 117.242,194.004 117.167,194.417 117.167 C 194.829 117.167,195.167 117.092,195.167 117.000 C 195.167 116.908,195.504 116.833,195.917 116.833 C 196.329 116.833,196.667 116.767,196.667 116.686 C 196.667 116.605,197.229 116.486,197.916 116.422 C 198.602 116.358,199.207 116.236,199.259 116.153 C 199.311 116.069,199.607 116.000,199.917 116.000 C 200.227 116.000,200.522 115.933,200.572 115.852 C 200.622 115.770,200.927 115.658,201.248 115.602 C 201.570 115.546,202.096 115.454,202.417 115.398 C 202.737 115.343,203.000 115.230,203.000 115.148 C 203.000 115.067,203.262 115.000,203.583 115.000 C 203.904 115.000,204.167 114.925,204.167 114.833 C 204.167 114.742,204.425 114.667,204.740 114.667 C 205.056 114.667,205.360 114.592,205.417 114.500 C 205.473 114.408,205.703 114.333,205.927 114.333 C 206.150 114.333,206.333 114.269,206.333 114.190 C 206.333 114.112,206.799 113.999,207.368 113.939 C 207.937 113.880,208.477 113.757,208.568 113.666 C 208.659 113.575,208.906 113.500,209.117 113.500 C 209.327 113.500,209.500 113.425,209.500 113.333 C 209.500 113.242,209.721 113.167,209.990 113.167 C 210.260 113.167,210.527 113.092,210.583 113.000 C 210.640 112.908,210.865 112.833,211.083 112.833 C 211.302 112.833,211.527 112.758,211.583 112.667 C 211.640 112.575,211.865 112.500,212.083 112.500 C 212.302 112.500,212.527 112.425,212.583 112.333 C 212.640 112.242,212.869 112.167,213.093 112.167 C 213.317 112.167,213.500 112.092,213.500 112.000 C 213.500 111.908,213.725 111.833,214.000 111.833 C 214.275 111.833,214.500 111.763,214.500 111.677 C 214.500 111.591,214.838 111.470,215.252 111.408 C 215.666 111.346,216.045 111.229,216.095 111.147 C 216.145 111.066,216.369 111.000,216.593 111.000 C 216.817 111.000,217.000 110.925,217.000 110.833 C 217.000 110.742,217.183 110.667,217.407 110.667 C 217.631 110.667,217.860 110.592,217.917 110.500 C 217.973 110.408,218.165 110.333,218.343 110.333 C 218.521 110.333,218.667 110.258,218.667 110.167 C 218.667 110.075,218.854 110.000,219.083 110.000 C 219.313 110.000,219.500 109.925,219.500 109.833 C 219.500 109.742,219.688 109.667,219.917 109.667 C 220.146 109.667,220.333 109.592,220.333 109.500 C 220.333 109.408,220.491 109.333,220.683 109.333 C 221.003 109.333,221.810 109.037,222.539 108.653 C 222.699 108.569,222.942 108.500,223.081 108.500 C 223.220 108.500,223.333 108.425,223.333 108.333 C 223.333 108.242,223.521 108.167,223.750 108.167 C 223.979 108.167,224.167 108.092,224.167 108.000 C 224.167 107.908,224.317 107.833,224.500 107.833 C 224.683 107.833,224.833 107.758,224.833 107.667 C 224.833 107.575,224.983 107.500,225.167 107.500 C 225.350 107.500,225.500 107.425,225.500 107.333 C 225.500 107.242,225.688 107.167,225.917 107.167 C 226.146 107.167,226.333 107.092,226.333 107.000 C 226.333 106.908,226.465 106.833,226.625 106.833 C 226.785 106.833,227.739 106.420,228.744 105.916 C 229.749 105.412,230.668 105.000,230.786 105.000 C 230.904 105.000,231.000 104.925,231.000 104.833 C 231.000 104.742,231.150 104.667,231.333 104.667 C 231.517 104.667,231.667 104.592,231.667 104.500 C 231.667 104.408,231.798 104.330,231.958 104.326 C 232.119 104.323,232.625 104.094,233.083 103.819 C 233.542 103.544,234.048 103.276,234.208 103.223 C 234.369 103.171,234.500 103.062,234.500 102.981 C 234.500 102.900,234.650 102.833,234.833 102.833 C 235.017 102.833,235.167 102.758,235.167 102.667 C 235.167 102.575,235.317 102.500,235.500 102.500 C 235.683 102.500,235.833 102.425,235.833 102.333 C 235.833 102.242,235.946 102.167,236.083 102.167 C 236.221 102.167,236.333 102.092,236.333 102.000 C 236.333 101.908,236.478 101.833,236.655 101.833 C 236.832 101.833,237.089 101.721,237.226 101.583 C 237.364 101.446,237.594 101.333,237.738 101.333 C 237.882 101.333,238.000 101.277,238.000 101.207 C 238.000 101.138,238.244 100.975,238.542 100.845 C 238.840 100.715,239.205 100.472,239.353 100.304 C 239.501 100.137,239.745 100.000,239.895 100.000 C 240.044 100.000,240.168 99.944,240.169 99.875 C 240.170 99.806,240.488 99.600,240.877 99.417 C 241.265 99.234,241.729 98.953,241.906 98.792 C 242.084 98.631,242.328 98.500,242.448 98.500 C 242.568 98.500,242.667 98.425,242.667 98.333 C 242.667 98.242,242.765 98.167,242.885 98.167 C 243.005 98.167,243.265 98.017,243.462 97.833 C 243.658 97.650,243.881 97.500,243.956 97.500 C 244.032 97.500,244.201 97.350,244.333 97.167 C 244.465 96.983,244.691 96.833,244.834 96.833 C 245.080 96.833,245.463 96.571,246.476 95.709 C 246.719 95.502,246.994 95.334,247.088 95.334 C 247.183 95.333,247.368 95.183,247.500 95.000 C 247.632 94.817,247.835 94.667,247.950 94.667 C 248.277 94.667,249.833 93.012,249.833 92.664 C 249.833 92.493,249.908 92.307,250.000 92.250 C 250.092 92.193,250.167 91.664,250.167 91.073 C 250.167 90.469,250.094 90.000,250.000 90.000 C 249.908 90.000,249.833 89.922,249.833 89.828 C 249.833 89.604,248.730 88.500,248.506 88.500 C 248.411 88.500,248.333 88.425,248.333 88.333 C 248.333 88.242,248.113 88.167,247.843 88.167 C 247.574 88.167,247.307 88.092,247.250 88.000 C 247.193 87.908,246.851 87.833,246.490 87.833 C 246.129 87.833,245.833 87.908,245.833 88.000 C 245.833 88.092,245.575 88.167,245.260 88.167 C 244.944 88.167,244.640 88.242,244.583 88.333 C 244.527 88.425,244.335 88.500,244.157 88.500 C 243.979 88.500,243.833 88.575,243.833 88.667 C 243.833 88.758,243.646 88.833,243.417 88.833 C 243.188 88.833,243.000 88.908,243.000 89.000 C 243.000 89.092,242.850 89.167,242.667 89.167 C 242.483 89.167,242.333 89.233,242.333 89.314 C 242.333 89.396,241.996 89.513,241.583 89.575 C 241.171 89.636,240.833 89.757,240.833 89.844 C 240.833 89.930,240.688 90.000,240.510 90.000 C 240.332 90.000,240.140 90.075,240.083 90.167 C 240.027 90.258,239.797 90.333,239.573 90.333 C 239.350 90.333,239.167 90.408,239.167 90.500 C 239.167 90.592,238.979 90.667,238.750 90.667 C 238.521 90.667,238.333 90.742,238.333 90.833 C 238.333 90.925,238.188 91.000,238.010 91.000 C 237.832 91.000,237.640 91.075,237.583 91.167 C 237.527 91.258,237.297 91.333,237.073 91.333 C 236.850 91.333,236.667 91.408,236.667 91.500 C 236.667 91.592,236.479 91.667,236.250 91.667 C 236.021 91.667,235.833 91.737,235.833 91.823 C 235.833 91.909,235.495 92.030,235.081 92.092 C 234.668 92.154,234.288 92.271,234.238 92.353 C 234.188 92.434,233.964 92.500,233.740 92.500 C 233.516 92.500,233.333 92.575,233.333 92.667 C 233.333 92.758,233.108 92.833,232.833 92.833 C 232.558 92.833,232.333 92.908,232.333 93.000 C 232.333 93.092,232.146 93.167,231.917 93.167 C 231.688 93.167,231.500 93.242,231.500 93.333 C 231.500 93.425,231.317 93.500,231.093 93.500 C 230.869 93.500,230.640 93.575,230.583 93.667 C 230.527 93.758,230.297 93.833,230.073 93.833 C 229.850 93.833,229.667 93.908,229.667 94.000 C 229.667 94.092,229.442 94.167,229.167 94.167 C 228.892 94.167,228.667 94.226,228.667 94.297 C 228.667 94.369,228.235 94.521,227.708 94.635 C 227.181 94.749,226.544 94.886,226.292 94.940 C 226.040 94.994,225.833 95.104,225.833 95.186 C 225.833 95.267,225.608 95.333,225.333 95.333 C 225.058 95.333,224.833 95.408,224.833 95.500 C 224.833 95.592,224.613 95.667,224.343 95.667 C 224.074 95.667,223.807 95.742,223.750 95.833 C 223.693 95.925,223.426 96.000,223.157 96.000 C 222.887 96.000,222.667 96.075,222.667 96.167 C 222.667 96.258,222.442 96.333,222.167 96.333 C 221.892 96.333,221.667 96.408,221.667 96.500 C 221.667 96.592,221.451 96.667,221.188 96.667 C 220.924 96.667,220.390 96.779,220.000 96.917 C 219.610 97.054,219.076 97.167,218.812 97.167 C 218.549 97.167,218.333 97.242,218.333 97.333 C 218.333 97.425,218.075 97.500,217.760 97.500 C 217.444 97.500,217.140 97.575,217.083 97.667 C 217.027 97.758,216.764 97.833,216.500 97.833 C 216.236 97.833,215.973 97.908,215.917 98.000 C 215.860 98.092,215.593 98.167,215.323 98.167 C 215.054 98.167,214.833 98.242,214.833 98.333 C 214.833 98.425,214.538 98.500,214.177 98.500 C 213.815 98.500,213.473 98.575,213.417 98.667 C 213.360 98.758,213.068 98.833,212.768 98.833 C 212.468 98.833,212.166 98.890,212.098 98.958 C 212.030 99.027,211.474 99.173,210.862 99.283 C 210.250 99.392,209.375 99.566,208.917 99.668 C 208.458 99.771,207.802 99.895,207.457 99.945 C 207.113 99.995,206.790 100.102,206.739 100.184 C 206.688 100.266,206.314 100.333,205.907 100.333 C 205.500 100.333,205.167 100.408,205.167 100.500 C 205.167 100.592,204.829 100.667,204.417 100.667 C 204.004 100.667,203.667 100.742,203.667 100.833 C 203.667 100.925,203.292 101.000,202.833 101.000 C 202.375 101.000,202.000 101.075,202.000 101.167 C 202.000 101.258,201.588 101.333,201.083 101.333 C 200.579 101.333,200.167 101.399,200.167 101.479 C 200.167 101.559,199.398 101.706,198.458 101.807 C 197.519 101.907,196.262 102.070,195.667 102.170 C 195.071 102.270,194.133 102.392,193.583 102.440 C 193.033 102.488,192.512 102.597,192.425 102.681 C 192.338 102.765,191.794 102.833,191.217 102.833 C 190.628 102.833,190.167 102.907,190.167 103.000 C 190.167 103.096,189.639 103.167,188.917 103.167 C 188.194 103.167,187.667 103.237,187.667 103.333 C 187.667 103.431,187.083 103.500,186.250 103.500 C 185.417 103.500,184.833 103.569,184.833 103.667 C 184.833 103.767,184.171 103.833,183.181 103.833 C 182.272 103.833,181.503 103.902,181.472 103.985 C 181.224 104.664,148.149 104.677,146.961 103.999 C 146.801 103.908,145.958 103.833,145.086 103.833 C 144.140 103.833,143.500 103.766,143.500 103.667 C 143.500 103.569,142.917 103.500,142.083 103.500 C 141.250 103.500,140.667 103.431,140.667 103.333 C 140.667 103.236,140.111 103.167,139.333 103.167 C 138.556 103.167,138.000 103.097,138.000 103.000 C 138.000 102.906,137.531 102.833,136.927 102.833 C 136.336 102.833,135.807 102.758,135.750 102.667 C 135.693 102.575,135.164 102.500,134.573 102.500 C 133.983 102.500,133.500 102.431,133.500 102.348 C 133.500 102.264,133.031 102.156,132.458 102.108 C 130.261 101.924,128.238 101.648,127.961 101.494 C 127.801 101.405,127.337 101.333,126.929 101.333 C 126.520 101.333,126.140 101.258,126.083 101.167 C 126.027 101.075,125.647 101.000,125.240 101.000 C 124.833 101.000,124.500 100.925,124.500 100.833 C 124.500 100.742,124.167 100.667,123.760 100.667 C 123.353 100.667,122.973 100.592,122.917 100.500 C 122.860 100.408,122.481 100.333,122.073 100.333 C 121.666 100.333,121.333 100.258,121.333 100.167 C 121.333 100.075,121.000 100.000,120.593 100.000 C 120.186 100.000,119.812 99.933,119.761 99.851 C 119.710 99.769,119.387 99.659,119.043 99.607 C 116.337 99.195,115.833 99.095,115.833 98.973 C 115.833 98.896,115.533 98.833,115.167 98.833 C 114.800 98.833,114.500 98.758,114.500 98.667 C 114.500 98.575,114.200 98.500,113.833 98.500 C 113.467 98.500,113.167 98.425,113.167 98.333 C 113.167 98.242,112.904 98.167,112.583 98.167 C 112.263 98.167,112.000 98.092,112.000 98.000 C 112.000 97.908,111.742 97.833,111.427 97.833 C 111.111 97.833,110.807 97.758,110.750 97.667 C 110.693 97.575,110.389 97.500,110.073 97.500 C 109.758 97.500,109.500 97.425,109.500 97.333 C 109.500 97.242,109.284 97.167,109.021 97.167 C 108.757 97.167,108.223 97.054,107.833 96.917 C 107.444 96.779,106.914 96.667,106.656 96.667 C 106.397 96.667,106.140 96.592,106.083 96.500 C 106.027 96.408,105.797 96.333,105.573 96.333 C 105.350 96.333,105.167 96.258,105.167 96.167 C 105.167 96.075,104.867 96.000,104.500 96.000 C 104.133 96.000,103.833 95.925,103.833 95.833 C 103.833 95.742,103.646 95.667,103.417 95.667 C 103.188 95.667,103.000 95.592,103.000 95.500 C 103.000 95.408,102.779 95.333,102.510 95.333 C 102.240 95.333,101.973 95.258,101.917 95.167 C 101.860 95.075,101.635 95.000,101.417 95.000 C 101.198 95.000,100.978 94.932,100.927 94.850 C 100.876 94.767,100.384 94.647,99.834 94.583 C 99.283 94.520,98.833 94.400,98.833 94.317 C 98.833 94.234,98.646 94.167,98.417 94.167 C 98.188 94.167,98.000 94.092,98.000 94.000 C 98.000 93.908,97.775 93.833,97.500 93.833 C 97.225 93.833,97.000 93.758,97.000 93.667 C 97.000 93.575,96.817 93.500,96.593 93.500 C 96.369 93.500,96.140 93.425,96.083 93.333 C 96.027 93.242,95.797 93.167,95.573 93.167 C 95.350 93.167,95.167 93.092,95.167 93.000 C 95.167 92.908,95.016 92.833,94.831 92.833 C 94.646 92.833,94.328 92.747,94.123 92.641 C 93.289 92.210,93.129 92.155,92.413 92.057 C 92.003 92.001,91.667 91.890,91.667 91.811 C 91.667 91.731,91.553 91.667,91.414 91.667 C 91.276 91.667,90.994 91.580,90.789 91.474 C 89.987 91.059,89.826 91.000,89.502 91.000 C 89.318 91.000,89.167 90.925,89.167 90.833 C 89.167 90.742,88.979 90.667,88.750 90.667 C 88.521 90.667,88.333 90.592,88.333 90.500 C 88.333 90.408,88.188 90.333,88.010 90.333 C 87.832 90.333,87.640 90.258,87.583 90.167 C 87.527 90.075,87.297 90.000,87.073 90.000 C 86.850 90.000,86.667 89.930,86.667 89.844 C 86.667 89.757,86.329 89.636,85.917 89.575 C 85.504 89.513,85.167 89.396,85.167 89.314 C 85.167 89.233,85.017 89.167,84.833 89.167 C 84.650 89.167,84.500 89.092,84.500 89.000 C 84.500 88.908,84.313 88.833,84.083 88.833 C 83.854 88.833,83.667 88.758,83.667 88.667 C 83.667 88.575,83.517 88.500,83.333 88.500 C 83.150 88.500,83.000 88.425,83.000 88.333 C 83.000 88.242,82.854 88.167,82.677 88.167 C 82.499 88.167,82.307 88.092,82.250 88.000 C 82.193 87.908,81.970 87.833,81.754 87.833 C 81.538 87.833,81.336 87.777,81.306 87.708 C 81.210 87.493,80.008 87.000,79.578 87.000 C 79.352 87.000,79.167 86.925,79.167 86.833 C 79.167 86.742,79.054 86.667,78.917 86.667 C 78.779 86.667,78.667 86.592,78.667 86.500 C 78.667 86.408,78.517 86.333,78.333 86.333 C 78.150 86.333,78.000 86.258,78.000 86.167 C 78.000 86.075,77.886 86.000,77.748 86.000 C 77.609 86.000,77.365 85.930,77.206 85.844 C 77.047 85.759,76.673 85.590,76.375 85.470 C 76.077 85.350,75.833 85.195,75.833 85.126 C 75.833 85.057,75.729 85.000,75.602 85.000 C 75.475 85.000,75.157 84.888,74.894 84.751 C 74.631 84.614,74.285 84.502,74.125 84.501 C 73.965 84.500,73.833 84.425,73.833 84.333 C 73.833 84.242,73.721 84.167,73.583 84.167 C 73.446 84.167,73.333 84.092,73.333 84.000 C 73.333 83.908,73.183 83.833,73.000 83.833 C 72.817 83.833,72.667 83.758,72.667 83.667 C 72.667 83.575,72.517 83.500,72.333 83.500 C 72.150 83.500,72.000 83.425,72.000 83.333 C 72.000 83.242,71.856 83.167,71.681 83.167 C 71.505 83.167,71.336 83.110,71.306 83.042 C 71.227 82.866,69.378 82.000,69.080 82.000 C 68.944 82.000,68.833 81.939,68.833 81.864 C 68.833 81.790,68.571 81.626,68.250 81.500 C 67.929 81.374,67.667 81.210,67.667 81.136 C 67.667 81.061,67.517 81.000,67.333 81.000 C 67.150 81.000,67.000 80.925,67.000 80.833 C 67.000 80.742,66.850 80.667,66.667 80.667 C 66.483 80.667,66.333 80.610,66.333 80.542 C 66.333 80.473,65.845 80.200,65.250 79.934 C 64.654 79.669,64.167 79.388,64.167 79.309 C 64.167 79.231,64.017 79.167,63.833 79.167 C 63.650 79.167,63.500 79.092,63.500 79.000 C 63.500 78.908,63.387 78.833,63.250 78.833 C 63.112 78.833,63.000 78.758,63.000 78.667 C 63.000 78.575,62.850 78.500,62.667 78.500 C 62.483 78.500,62.333 78.425,62.333 78.333 C 62.333 78.242,62.254 78.167,62.158 78.167 C 62.061 78.167,61.706 77.979,61.369 77.750 C 61.032 77.521,60.623 77.333,60.461 77.333 C 60.299 77.333,60.167 77.258,60.167 77.167 C 60.167 77.075,60.017 77.000,59.833 77.000 C 59.650 77.000,59.500 76.925,59.500 76.833 C 59.500 76.742,59.275 76.667,59.000 76.667 C 58.725 76.667,58.500 76.592,58.500 76.500 C 58.500 76.408,58.313 76.333,58.083 76.333 C 57.854 76.333,57.667 76.408,57.667 76.500 " stroke="none" fill="#fc9c04" fill-rule="evenodd"></path><path id="path1" d="M23.292 0.114 C 22.673 0.151,22.167 0.253,22.167 0.341 C 22.167 0.428,21.792 0.500,21.333 0.500 C 20.875 0.500,20.500 0.575,20.500 0.667 C 20.500 0.758,20.274 0.833,19.998 0.833 C 19.721 0.833,19.365 0.904,19.206 0.991 C 19.047 1.078,18.562 1.195,18.129 1.251 C 17.696 1.307,17.297 1.423,17.244 1.510 C 17.191 1.596,16.968 1.667,16.750 1.667 C 16.532 1.667,16.307 1.742,16.250 1.833 C 16.193 1.925,16.001 2.000,15.823 2.000 C 15.646 2.000,15.500 2.075,15.500 2.167 C 15.500 2.258,15.354 2.333,15.177 2.333 C 14.999 2.333,14.807 2.408,14.750 2.500 C 14.693 2.592,14.501 2.667,14.323 2.667 C 14.146 2.667,14.000 2.742,14.000 2.833 C 14.000 2.925,13.850 3.000,13.667 3.000 C 13.483 3.000,13.333 3.075,13.333 3.167 C 13.333 3.258,13.190 3.333,13.014 3.333 C 12.838 3.333,12.669 3.390,12.639 3.458 C 12.608 3.527,12.283 3.732,11.917 3.914 C 11.550 4.096,11.129 4.378,10.980 4.539 C 10.832 4.701,10.619 4.833,10.506 4.833 C 10.393 4.833,10.090 5.058,9.833 5.333 C 9.576 5.608,9.318 5.833,9.259 5.833 C 8.983 5.833,6.167 8.636,6.167 8.911 C 6.167 8.962,5.942 9.238,5.667 9.526 C 5.392 9.814,5.167 10.151,5.167 10.275 C 5.167 10.399,5.110 10.500,5.042 10.501 C 4.795 10.503,3.681 12.569,3.672 13.042 C 3.669 13.202,3.592 13.333,3.500 13.333 C 3.408 13.333,3.333 13.483,3.333 13.667 C 3.333 13.850,3.258 14.000,3.167 14.000 C 3.075 14.000,3.000 14.188,3.000 14.417 C 3.000 14.646,2.925 14.833,2.833 14.833 C 2.742 14.833,2.667 15.058,2.667 15.333 C 2.667 15.608,2.592 15.833,2.500 15.833 C 2.408 15.833,2.333 16.054,2.333 16.323 C 2.333 16.593,2.258 16.860,2.167 16.917 C 2.075 16.973,2.000 17.273,2.000 17.583 C 2.000 17.893,1.925 18.193,1.833 18.250 C 1.216 18.631,1.981 21.326,2.708 21.331 C 2.869 21.332,3.000 21.408,3.000 21.500 C 3.000 21.592,3.262 21.667,3.583 21.667 C 3.904 21.667,4.167 21.742,4.167 21.833 C 4.167 21.931,4.747 22.000,5.573 22.000 C 6.347 22.000,7.027 22.075,7.083 22.167 C 7.140 22.258,7.777 22.333,8.500 22.333 C 9.223 22.333,9.860 22.408,9.917 22.500 C 9.973 22.592,10.690 22.667,11.510 22.667 C 12.392 22.667,13.000 22.735,13.000 22.833 C 13.000 22.935,13.759 23.000,14.942 23.000 L 16.885 23.000 17.524 22.328 C 17.875 21.959,18.206 21.453,18.258 21.203 C 18.311 20.954,18.418 20.630,18.496 20.483 C 18.575 20.336,18.693 19.856,18.759 19.417 C 18.868 18.686,19.034 18.366,19.625 17.743 C 19.740 17.623,19.833 17.437,19.833 17.332 C 19.833 17.069,21.834 15.167,22.111 15.167 C 22.233 15.167,22.333 15.106,22.333 15.031 C 22.333 14.957,22.596 14.793,22.917 14.667 C 23.238 14.541,23.500 14.377,23.500 14.302 C 23.500 14.228,23.650 14.167,23.833 14.167 C 24.017 14.167,24.167 14.092,24.167 14.000 C 24.167 13.908,24.460 13.833,24.819 13.833 C 25.178 13.833,25.499 13.754,25.531 13.656 C 25.612 13.414,29.979 13.412,30.221 13.654 C 30.319 13.753,30.610 13.833,30.867 13.833 C 31.123 13.833,31.333 13.908,31.333 14.000 C 31.333 14.092,31.483 14.167,31.667 14.167 C 31.850 14.167,32.000 14.242,32.000 14.333 C 32.000 14.425,32.133 14.500,32.297 14.500 C 32.460 14.500,32.701 14.650,32.833 14.833 C 32.965 15.017,33.171 15.167,33.289 15.167 C 33.533 15.167,34.488 16.160,34.495 16.422 C 34.498 16.516,34.650 16.701,34.833 16.833 C 35.017 16.965,35.167 17.203,35.167 17.360 C 35.167 17.518,35.242 17.693,35.333 17.750 C 35.425 17.807,35.500 17.999,35.500 18.177 C 35.500 18.354,35.575 18.500,35.667 18.500 C 35.758 18.500,35.833 18.837,35.833 19.250 C 35.833 19.662,35.908 20.000,36.000 20.000 C 36.106 20.000,36.167 21.222,36.167 23.333 L 36.167 26.667 34.917 26.667 C 34.194 26.667,33.667 26.737,33.667 26.833 C 33.667 26.933,33.028 27.000,32.083 27.000 C 31.139 27.000,30.500 27.067,30.500 27.167 C 30.500 27.263,29.972 27.333,29.250 27.333 C 28.528 27.333,28.000 27.404,28.000 27.500 C 28.000 27.596,27.472 27.667,26.750 27.667 C 26.028 27.667,25.500 27.737,25.500 27.833 C 25.500 27.925,25.106 28.000,24.625 28.001 C 23.812 28.002,23.234 28.081,20.833 28.519 C 20.329 28.611,19.635 28.727,19.292 28.777 C 18.948 28.827,18.667 28.935,18.667 29.018 C 18.667 29.100,18.367 29.167,18.000 29.167 C 17.633 29.167,17.333 29.242,17.333 29.333 C 17.333 29.425,17.113 29.500,16.843 29.500 C 16.574 29.500,16.307 29.575,16.250 29.667 C 16.193 29.758,15.926 29.833,15.657 29.833 C 15.387 29.833,15.167 29.908,15.167 30.000 C 15.167 30.092,14.979 30.167,14.750 30.167 C 14.521 30.167,14.333 30.235,14.333 30.319 C 14.333 30.402,14.033 30.521,13.667 30.583 C 13.300 30.645,13.000 30.764,13.000 30.848 C 13.000 30.932,12.854 31.000,12.677 31.000 C 12.499 31.000,12.307 31.075,12.250 31.167 C 12.193 31.258,12.001 31.333,11.823 31.333 C 11.646 31.333,11.500 31.399,11.500 31.480 C 11.500 31.560,11.275 31.719,11.000 31.833 C 10.725 31.947,10.500 32.106,10.500 32.187 C 10.500 32.267,10.350 32.333,10.167 32.333 C 9.983 32.333,9.833 32.408,9.833 32.500 C 9.833 32.592,9.721 32.667,9.583 32.667 C 9.446 32.667,9.333 32.723,9.333 32.793 C 9.333 32.862,9.118 33.014,8.854 33.131 C 8.371 33.345,7.757 33.832,6.350 35.117 C 5.928 35.503,5.430 35.953,5.242 36.117 C 5.054 36.282,4.721 36.679,4.500 37.000 C 4.280 37.321,4.053 37.621,3.995 37.667 C 3.938 37.712,3.750 37.994,3.577 38.292 C 3.403 38.590,3.203 38.833,3.131 38.833 C 3.059 38.833,3.000 38.967,3.000 39.130 C 3.000 39.293,2.850 39.535,2.667 39.667 C 2.483 39.799,2.333 40.034,2.333 40.190 C 2.333 40.345,2.274 40.497,2.200 40.528 C 1.994 40.614,1.372 42.039,1.245 42.720 C 1.181 43.057,1.063 43.333,0.981 43.333 C 0.900 43.333,0.833 43.558,0.833 43.833 C 0.833 44.108,0.758 44.333,0.667 44.333 C 0.575 44.333,0.500 44.590,0.500 44.903 C 0.500 45.216,0.406 45.503,0.292 45.542 C 0.130 45.595,0.083 46.920,0.083 51.417 C 0.083 55.913,0.130 57.238,0.292 57.292 C 0.406 57.330,0.500 57.617,0.500 57.931 C 0.500 58.244,0.575 58.500,0.667 58.500 C 0.758 58.500,0.833 58.725,0.833 59.000 C 0.833 59.275,0.908 59.500,1.000 59.500 C 1.092 59.500,1.167 59.669,1.168 59.875 C 1.168 60.081,1.281 60.465,1.418 60.727 C 1.555 60.990,1.667 61.309,1.667 61.436 C 1.667 61.563,1.728 61.667,1.802 61.667 C 1.877 61.667,2.041 61.929,2.167 62.250 C 2.293 62.571,2.457 62.833,2.531 62.833 C 2.606 62.833,2.667 62.935,2.667 63.059 C 2.667 63.183,2.892 63.519,3.167 63.807 C 3.442 64.095,3.667 64.394,3.667 64.471 C 3.667 64.708,5.881 66.916,6.458 67.254 C 6.756 67.429,7.000 67.631,7.000 67.703 C 7.000 67.775,7.133 67.833,7.297 67.833 C 7.460 67.833,7.701 67.983,7.833 68.167 C 7.965 68.350,8.201 68.500,8.356 68.500 C 8.512 68.500,8.664 68.560,8.694 68.633 C 8.769 68.812,10.266 69.500,10.582 69.500 C 10.720 69.500,10.833 69.570,10.833 69.655 C 10.833 69.740,11.246 69.861,11.750 69.924 C 12.254 69.987,12.667 70.105,12.667 70.186 C 12.667 70.267,13.004 70.333,13.417 70.333 C 13.829 70.333,14.167 70.408,14.167 70.500 C 14.167 70.597,14.722 70.667,15.500 70.667 C 16.278 70.667,16.833 70.736,16.833 70.833 C 16.833 70.936,17.639 71.000,18.917 71.000 C 20.194 71.000,21.000 70.936,21.000 70.833 C 21.000 70.734,21.639 70.667,22.583 70.667 C 23.528 70.667,24.167 70.599,24.167 70.500 C 24.167 70.408,24.579 70.333,25.083 70.333 C 25.587 70.333,26.000 70.269,26.000 70.190 C 26.000 70.111,26.403 70.005,26.895 69.954 C 27.388 69.903,28.114 69.705,28.510 69.514 C 28.906 69.323,29.365 69.167,29.531 69.167 C 29.697 69.167,29.833 69.092,29.833 69.000 C 29.833 68.908,29.983 68.833,30.167 68.833 C 30.350 68.833,30.500 68.772,30.500 68.698 C 30.500 68.623,30.762 68.459,31.083 68.333 C 31.404 68.207,31.667 68.043,31.667 67.969 C 31.667 67.894,31.817 67.833,32.000 67.833 C 32.183 67.833,32.333 67.770,32.333 67.693 C 32.333 67.616,32.532 67.463,32.774 67.353 C 33.303 67.112,33.973 66.610,34.750 65.875 C 35.065 65.577,35.390 65.333,35.473 65.333 C 35.555 65.333,36.313 64.658,37.158 63.833 C 38.002 63.008,38.745 62.333,38.809 62.333 C 38.993 62.333,39.500 62.981,39.500 63.215 C 39.500 63.331,39.650 63.535,39.833 63.667 C 40.017 63.799,40.167 63.984,40.167 64.078 C 40.167 64.173,40.392 64.512,40.667 64.833 C 40.941 65.154,41.166 65.470,41.166 65.536 C 41.166 65.602,41.429 65.918,41.750 66.239 C 42.071 66.560,42.333 66.867,42.333 66.922 C 42.333 67.035,43.593 68.251,44.744 69.250 C 45.167 69.617,45.617 70.010,45.745 70.125 C 46.027 70.379,48.667 70.416,48.667 70.167 C 48.667 70.075,48.767 70.000,48.891 70.000 C 49.131 70.000,49.923 69.366,51.180 68.167 C 51.612 67.754,52.179 67.268,52.441 67.087 C 52.703 66.905,53.303 66.367,53.776 65.891 C 54.249 65.414,54.854 64.912,55.121 64.774 C 55.388 64.635,55.874 64.217,56.201 63.844 C 56.528 63.472,56.874 63.167,56.969 63.167 C 57.269 63.167,59.167 61.256,59.167 60.954 C 59.167 60.796,59.242 60.667,59.333 60.667 C 59.425 60.667,59.500 60.296,59.500 59.843 C 59.500 59.390,59.425 58.973,59.333 58.917 C 59.242 58.860,59.167 58.668,59.167 58.490 C 59.167 58.312,59.092 58.167,59.000 58.167 C 58.908 58.167,58.833 58.072,58.833 57.957 C 58.833 57.841,58.646 57.544,58.417 57.297 C 58.188 57.050,58.000 56.781,58.000 56.699 C 58.000 56.617,57.775 56.314,57.500 56.026 C 57.225 55.738,57.000 55.444,57.000 55.372 C 57.000 55.299,56.850 55.132,56.667 55.000 C 56.483 54.868,56.332 54.645,56.331 54.505 C 56.330 54.365,56.143 53.924,55.915 53.525 C 55.687 53.126,55.500 52.694,55.500 52.566 C 55.500 52.438,55.425 52.333,55.333 52.333 C 55.242 52.333,55.167 52.183,55.167 52.000 C 55.167 51.817,55.092 51.667,55.000 51.667 C 54.908 51.667,54.833 51.442,54.833 51.167 C 54.833 50.892,54.758 50.667,54.667 50.667 C 54.575 50.667,54.500 50.329,54.500 49.917 C 54.500 49.504,54.425 49.167,54.333 49.167 C 54.223 49.167,54.167 44.056,54.167 34.167 C 54.167 25.917,54.103 19.167,54.026 19.167 C 53.948 19.167,53.840 18.166,53.784 16.943 C 53.729 15.720,53.613 14.539,53.526 14.318 C 53.439 14.097,53.278 13.579,53.168 13.167 C 53.058 12.754,52.900 12.286,52.817 12.127 C 52.734 11.968,52.667 11.724,52.667 11.586 C 52.667 11.447,52.610 11.333,52.542 11.333 C 52.473 11.332,52.229 10.920,52.000 10.417 C 51.771 9.913,51.527 9.501,51.458 9.501 C 51.390 9.500,51.333 9.348,51.333 9.161 C 51.333 8.975,51.221 8.780,51.083 8.727 C 50.946 8.674,50.833 8.528,50.833 8.402 C 50.833 8.168,50.091 7.298,48.952 6.195 C 47.664 4.947,46.969 4.333,46.845 4.333 C 46.775 4.333,46.545 4.183,46.333 4.000 C 46.122 3.817,45.848 3.667,45.724 3.667 C 45.601 3.667,45.500 3.592,45.500 3.500 C 45.500 3.408,45.350 3.333,45.167 3.333 C 44.983 3.333,44.833 3.258,44.833 3.167 C 44.833 3.075,44.683 3.000,44.500 3.000 C 44.317 3.000,44.167 2.939,44.167 2.864 C 44.167 2.790,43.904 2.626,43.583 2.500 C 43.262 2.374,43.000 2.226,43.000 2.172 C 43.000 2.117,42.644 1.970,42.208 1.845 C 41.773 1.720,41.331 1.552,41.226 1.470 C 41.121 1.388,40.650 1.276,40.179 1.220 C 39.709 1.165,39.284 1.055,39.235 0.976 C 39.187 0.898,38.931 0.833,38.667 0.833 C 38.402 0.833,38.140 0.758,38.083 0.667 C 38.027 0.575,37.700 0.500,37.357 0.500 C 37.014 0.500,36.642 0.408,36.529 0.296 C 36.326 0.093,25.997 -0.049,23.292 0.114 M185.625 0.115 C 185.006 0.152,184.500 0.253,184.500 0.341 C 184.500 0.428,184.129 0.500,183.677 0.500 C 183.224 0.500,182.807 0.575,182.750 0.667 C 182.693 0.758,182.431 0.833,182.167 0.833 C 181.902 0.833,181.645 0.900,181.595 0.981 C 181.545 1.061,181.092 1.179,180.588 1.242 C 180.084 1.305,179.629 1.426,179.576 1.512 C 179.523 1.597,179.297 1.667,179.073 1.667 C 178.850 1.667,178.667 1.742,178.667 1.833 C 178.667 1.925,178.484 2.000,178.260 2.000 C 178.036 2.000,177.807 2.075,177.750 2.167 C 177.693 2.258,177.501 2.333,177.323 2.333 C 177.146 2.333,177.000 2.408,177.000 2.500 C 177.000 2.592,176.850 2.667,176.667 2.667 C 176.483 2.667,176.333 2.742,176.333 2.833 C 176.333 2.925,176.197 3.000,176.031 3.000 C 175.865 3.000,175.569 3.150,175.372 3.333 C 175.175 3.517,174.916 3.667,174.796 3.667 C 174.676 3.667,174.301 3.854,173.964 4.083 C 173.627 4.313,173.289 4.500,173.212 4.500 C 173.136 4.500,172.965 4.650,172.833 4.833 C 172.701 5.017,172.495 5.167,172.374 5.167 C 172.254 5.167,171.911 5.410,171.611 5.708 C 171.312 6.006,170.808 6.428,170.492 6.645 C 170.175 6.863,169.692 7.335,169.417 7.695 C 169.142 8.054,168.635 8.657,168.292 9.035 C 167.948 9.412,167.667 9.821,167.667 9.944 C 167.667 10.066,167.604 10.167,167.528 10.167 C 167.452 10.167,167.283 10.373,167.153 10.625 C 167.024 10.877,166.876 11.121,166.825 11.167 C 166.647 11.328,166.167 12.470,166.167 12.734 C 166.167 12.880,166.106 13.000,166.031 13.000 C 165.957 13.000,165.793 13.262,165.667 13.583 C 165.541 13.904,165.377 14.167,165.302 14.167 C 165.228 14.167,165.167 14.392,165.167 14.667 C 165.167 14.942,165.092 15.167,165.000 15.167 C 164.908 15.167,164.833 15.392,164.833 15.667 C 164.833 15.942,164.758 16.167,164.667 16.167 C 164.575 16.167,164.500 16.429,164.500 16.750 C 164.500 17.071,164.425 17.333,164.333 17.333 C 164.242 17.333,164.167 17.601,164.167 17.928 C 164.167 18.254,164.083 18.678,163.981 18.869 C 163.489 19.788,164.790 21.667,165.917 21.667 C 166.238 21.667,166.500 21.742,166.500 21.833 C 166.500 21.931,167.083 22.000,167.917 22.000 C 168.750 22.000,169.333 22.069,169.333 22.167 C 169.333 22.265,169.944 22.333,170.833 22.333 C 171.722 22.333,172.333 22.401,172.333 22.500 C 172.333 22.598,172.913 22.667,173.740 22.667 C 174.514 22.667,175.193 22.742,175.250 22.833 C 175.396 23.069,178.935 23.046,179.383 22.807 C 179.898 22.531,180.167 22.230,180.167 21.929 C 180.167 21.785,180.242 21.667,180.333 21.667 C 180.425 21.667,180.500 21.521,180.500 21.343 C 180.500 21.165,180.575 20.973,180.667 20.917 C 180.758 20.860,180.834 20.649,180.836 20.448 C 180.841 19.689,181.556 17.926,182.041 17.480 C 182.202 17.332,182.333 17.133,182.333 17.039 C 182.333 16.832,183.473 15.667,183.676 15.667 C 183.754 15.667,184.006 15.479,184.235 15.250 C 184.464 15.021,184.767 14.833,184.909 14.833 C 185.051 14.833,185.167 14.758,185.167 14.667 C 185.167 14.575,185.317 14.500,185.500 14.500 C 185.683 14.500,185.833 14.425,185.833 14.333 C 185.833 14.242,186.021 14.167,186.250 14.167 C 186.479 14.167,186.667 14.092,186.667 14.000 C 186.667 13.908,186.885 13.833,187.153 13.833 C 187.420 13.833,187.665 13.754,187.698 13.657 C 187.779 13.413,192.554 13.411,192.635 13.655 C 192.668 13.753,192.913 13.833,193.181 13.833 C 193.448 13.833,193.667 13.894,193.667 13.969 C 193.667 14.043,193.929 14.207,194.250 14.333 C 194.571 14.459,194.833 14.623,194.833 14.698 C 194.833 14.772,194.947 14.833,195.086 14.833 C 195.403 14.833,197.000 16.423,197.000 16.738 C 197.000 16.867,197.056 16.997,197.125 17.028 C 197.381 17.141,198.000 18.548,198.000 19.016 C 198.000 19.282,198.075 19.500,198.167 19.500 C 198.263 19.500,198.333 20.028,198.333 20.750 C 198.333 21.472,198.404 22.000,198.500 22.000 C 198.603 22.000,198.667 22.889,198.667 24.333 L 198.667 26.667 197.250 26.667 C 196.417 26.667,195.833 26.735,195.833 26.833 C 195.833 26.931,195.250 27.000,194.417 27.000 C 193.583 27.000,193.000 27.069,193.000 27.167 C 193.000 27.265,192.417 27.333,191.583 27.333 C 190.750 27.333,190.167 27.402,190.167 27.500 C 190.167 27.596,189.639 27.667,188.917 27.667 C 188.194 27.667,187.667 27.737,187.667 27.833 C 187.667 27.925,187.235 28.005,186.708 28.011 C 185.648 28.023,182.592 28.519,182.400 28.711 C 182.333 28.778,181.953 28.833,181.556 28.833 C 181.158 28.833,180.833 28.908,180.833 29.000 C 180.833 29.092,180.575 29.167,180.260 29.167 C 179.944 29.167,179.640 29.242,179.583 29.333 C 179.527 29.425,179.297 29.500,179.073 29.500 C 178.850 29.500,178.667 29.575,178.667 29.667 C 178.667 29.758,178.442 29.833,178.167 29.833 C 177.892 29.833,177.667 29.908,177.667 30.000 C 177.667 30.092,177.442 30.167,177.167 30.167 C 176.892 30.167,176.667 30.242,176.667 30.333 C 176.667 30.425,176.498 30.500,176.292 30.501 C 176.085 30.502,175.702 30.614,175.439 30.751 C 175.177 30.888,174.858 31.000,174.731 31.000 C 174.604 31.000,174.500 31.061,174.500 31.136 C 174.500 31.210,174.237 31.374,173.917 31.500 C 173.596 31.626,173.333 31.790,173.333 31.864 C 173.333 31.939,173.183 32.000,173.000 32.000 C 172.817 32.000,172.667 32.075,172.667 32.167 C 172.667 32.258,172.533 32.333,172.370 32.333 C 172.207 32.333,171.965 32.483,171.833 32.667 C 171.701 32.850,171.509 33.000,171.405 33.000 C 171.302 33.000,171.045 33.150,170.833 33.333 C 170.622 33.517,170.387 33.667,170.312 33.667 C 170.237 33.667,169.838 34.004,169.425 34.417 C 169.013 34.829,168.617 35.168,168.546 35.170 C 168.475 35.172,168.192 35.442,167.917 35.770 C 167.642 36.098,167.135 36.665,166.792 37.030 C 166.448 37.395,166.167 37.784,166.167 37.893 C 166.167 38.003,166.017 38.201,165.833 38.333 C 165.650 38.465,165.500 38.690,165.500 38.833 C 165.500 38.976,165.350 39.201,165.167 39.333 C 164.983 39.465,164.833 39.701,164.833 39.856 C 164.833 40.012,164.774 40.164,164.702 40.194 C 164.515 40.274,163.667 42.065,163.667 42.382 C 163.667 42.528,163.592 42.693,163.500 42.750 C 163.408 42.807,163.333 43.036,163.333 43.260 C 163.333 43.484,163.258 43.667,163.167 43.667 C 163.075 43.667,163.000 43.929,163.000 44.250 C 163.000 44.571,162.925 44.833,162.833 44.833 C 162.742 44.833,162.667 45.096,162.667 45.417 C 162.667 45.737,162.592 46.000,162.500 46.000 C 162.407 46.000,162.333 46.444,162.333 47.000 C 162.333 47.556,162.259 48.000,162.167 48.000 C 162.061 48.000,162.000 49.247,162.000 51.407 C 162.000 53.498,162.064 54.853,162.167 54.917 C 162.258 54.973,162.333 55.423,162.333 55.917 C 162.333 56.410,162.408 56.860,162.500 56.917 C 162.592 56.973,162.667 57.278,162.667 57.593 C 162.667 57.909,162.742 58.167,162.833 58.167 C 162.925 58.167,163.000 58.392,163.000 58.667 C 163.000 58.942,163.075 59.167,163.167 59.167 C 163.258 59.167,163.333 59.354,163.333 59.583 C 163.333 59.813,163.400 60.000,163.481 60.000 C 163.563 60.000,163.682 60.281,163.746 60.625 C 163.872 61.305,164.479 62.500,164.697 62.500 C 164.772 62.500,164.833 62.650,164.833 62.833 C 164.833 63.017,164.896 63.167,164.972 63.167 C 165.048 63.167,165.216 63.373,165.346 63.625 C 165.475 63.877,165.695 64.196,165.834 64.333 C 165.973 64.471,166.308 64.883,166.579 65.250 C 167.189 66.076,167.277 66.164,168.000 66.667 C 168.321 66.890,168.674 67.150,168.786 67.245 C 169.395 67.762,169.501 67.833,169.660 67.833 C 169.755 67.833,169.833 67.908,169.833 68.000 C 169.833 68.092,169.983 68.167,170.167 68.167 C 170.350 68.167,170.500 68.242,170.500 68.333 C 170.500 68.425,170.616 68.500,170.757 68.500 C 170.898 68.500,171.175 68.650,171.372 68.833 C 171.569 69.017,171.865 69.167,172.031 69.167 C 172.197 69.167,172.333 69.225,172.333 69.296 C 172.333 69.438,174.097 70.000,174.540 70.000 C 174.691 70.000,174.860 70.075,174.917 70.167 C 174.973 70.258,175.353 70.333,175.760 70.333 C 176.167 70.333,176.500 70.408,176.500 70.500 C 176.500 70.597,177.052 70.667,177.823 70.667 C 178.551 70.667,179.193 70.742,179.250 70.833 C 179.309 70.929,180.165 71.000,181.250 71.000 C 182.335 71.000,183.191 70.929,183.250 70.833 C 183.307 70.740,184.085 70.667,185.010 70.667 C 186.003 70.667,186.667 70.600,186.667 70.500 C 186.667 70.408,187.042 70.333,187.500 70.333 C 187.958 70.333,188.333 70.268,188.333 70.188 C 188.333 70.108,188.781 69.992,189.328 69.930 C 189.875 69.869,190.367 69.746,190.421 69.659 C 190.475 69.572,190.703 69.500,190.927 69.500 C 191.150 69.500,191.333 69.425,191.333 69.333 C 191.333 69.242,191.483 69.167,191.667 69.167 C 191.850 69.167,192.000 69.092,192.000 69.000 C 192.000 68.908,192.150 68.833,192.333 68.833 C 192.517 68.833,192.667 68.758,192.667 68.667 C 192.667 68.575,192.817 68.500,193.000 68.500 C 193.183 68.500,193.333 68.425,193.333 68.333 C 193.333 68.242,193.446 68.167,193.583 68.167 C 193.721 68.167,193.833 68.092,193.833 68.000 C 193.833 67.908,193.983 67.833,194.167 67.833 C 194.350 67.833,194.500 67.766,194.500 67.685 C 194.500 67.603,194.670 67.493,194.878 67.441 C 195.086 67.389,195.421 67.193,195.621 67.006 C 195.822 66.820,196.027 66.667,196.078 66.667 C 196.128 66.667,196.405 66.442,196.693 66.167 C 196.981 65.892,197.284 65.667,197.367 65.667 C 197.451 65.667,197.900 65.292,198.365 64.833 C 198.831 64.375,199.267 64.000,199.333 64.000 C 199.400 64.000,199.849 63.612,200.330 63.138 C 201.068 62.412,201.229 62.319,201.356 62.547 C 201.439 62.695,201.618 62.928,201.754 63.063 C 201.889 63.199,202.000 63.411,202.000 63.535 C 202.000 63.658,202.150 63.868,202.333 64.000 C 202.517 64.132,202.667 64.306,202.667 64.387 C 202.667 64.467,202.892 64.743,203.167 65.000 C 203.442 65.257,203.667 65.573,203.667 65.703 C 203.667 65.833,203.985 66.254,204.375 66.639 C 205.106 67.360,205.715 67.970,206.988 69.255 C 207.394 69.665,207.863 70.000,208.030 70.000 C 208.197 70.000,208.333 70.075,208.333 70.167 C 208.333 70.264,208.889 70.333,209.667 70.333 C 210.400 70.333,211.000 70.267,211.000 70.187 C 211.000 70.106,211.221 69.949,211.491 69.837 C 212.028 69.615,213.833 67.945,213.833 67.670 C 213.833 67.577,213.949 67.500,214.090 67.500 C 214.382 67.500,214.555 67.370,215.593 66.371 C 216.000 65.979,216.333 65.585,216.333 65.496 C 216.333 65.406,216.445 65.333,216.582 65.333 C 216.843 65.333,217.345 64.949,218.270 64.042 C 218.574 63.744,218.865 63.500,218.917 63.500 C 218.969 63.500,219.265 63.256,219.575 62.958 C 219.885 62.660,220.408 62.192,220.736 61.918 C 221.065 61.644,221.333 61.325,221.333 61.210 C 221.333 61.094,221.408 61.000,221.500 61.000 C 222.090 61.000,221.519 58.115,220.804 57.480 C 220.637 57.332,220.500 57.127,220.500 57.025 C 220.500 56.852,220.114 56.363,219.208 55.388 C 219.002 55.166,218.833 54.906,218.833 54.810 C 218.833 54.642,218.340 53.673,218.166 53.500 C 218.120 53.454,217.980 53.192,217.855 52.917 C 217.730 52.642,217.562 52.286,217.481 52.127 C 217.400 51.968,217.333 51.724,217.333 51.586 C 217.333 51.447,217.258 51.333,217.167 51.333 C 217.075 51.333,217.000 51.071,217.000 50.750 C 217.000 50.429,216.925 50.167,216.833 50.167 C 216.742 50.167,216.667 49.807,216.667 49.367 C 216.667 48.927,216.596 48.495,216.509 48.408 C 216.413 48.312,216.332 41.884,216.301 31.967 C 216.261 19.217,216.205 15.638,216.042 15.475 C 215.927 15.360,215.833 14.986,215.833 14.643 C 215.833 14.300,215.758 13.973,215.667 13.917 C 215.575 13.860,215.500 13.630,215.500 13.405 C 215.500 13.180,215.425 12.846,215.333 12.664 C 215.242 12.482,215.092 12.184,215.000 12.002 C 214.908 11.820,214.833 11.558,214.833 11.419 C 214.833 11.280,214.758 11.167,214.667 11.167 C 214.575 11.167,214.500 11.017,214.500 10.833 C 214.500 10.650,214.425 10.500,214.333 10.500 C 214.242 10.500,214.167 10.350,214.167 10.167 C 214.167 9.983,214.092 9.833,214.000 9.833 C 213.908 9.833,213.833 9.693,213.833 9.520 C 213.833 9.348,213.721 9.114,213.583 9.000 C 213.446 8.886,213.333 8.706,213.333 8.600 C 213.333 8.494,213.183 8.299,213.000 8.167 C 212.817 8.035,212.667 7.839,212.667 7.733 C 212.667 7.505,210.419 5.167,210.199 5.167 C 210.117 5.167,209.814 4.942,209.526 4.667 C 209.238 4.392,208.937 4.167,208.855 4.167 C 208.774 4.167,208.614 4.054,208.500 3.917 C 208.386 3.779,208.152 3.667,207.980 3.667 C 207.807 3.667,207.667 3.592,207.667 3.500 C 207.667 3.408,207.568 3.333,207.448 3.333 C 207.328 3.333,207.069 3.183,206.872 3.000 C 206.675 2.817,206.403 2.667,206.267 2.667 C 206.131 2.667,205.973 2.592,205.917 2.500 C 205.860 2.408,205.668 2.333,205.490 2.333 C 205.312 2.333,205.167 2.258,205.167 2.167 C 205.167 2.075,205.017 2.000,204.833 2.000 C 204.650 2.000,204.500 1.925,204.500 1.833 C 204.500 1.742,204.317 1.667,204.093 1.667 C 203.869 1.667,203.643 1.597,203.591 1.512 C 203.538 1.426,203.083 1.305,202.581 1.242 C 202.078 1.180,201.667 1.062,201.667 0.981 C 201.667 0.900,201.404 0.833,201.083 0.833 C 200.762 0.833,200.500 0.758,200.500 0.667 C 200.500 0.575,200.131 0.500,199.681 0.500 C 199.176 0.500,198.835 0.420,198.792 0.293 C 198.723 0.087,188.420 -0.053,185.625 0.115 M100.500 0.333 C 100.500 0.434,99.806 0.500,98.750 0.500 C 97.694 0.500,97.000 0.566,97.000 0.667 C 97.000 0.758,96.662 0.833,96.250 0.833 C 95.837 0.833,95.500 0.908,95.500 1.000 C 95.500 1.092,95.331 1.166,95.125 1.166 C 94.679 1.165,93.107 1.696,93.028 1.875 C 92.997 1.944,92.828 2.000,92.653 2.000 C 92.477 2.000,92.333 2.075,92.333 2.167 C 92.333 2.258,92.235 2.333,92.115 2.333 C 91.995 2.333,91.735 2.483,91.538 2.667 C 91.342 2.850,91.119 3.000,91.044 3.000 C 90.968 3.000,90.799 3.150,90.667 3.333 C 90.535 3.517,90.319 3.667,90.187 3.667 C 89.966 3.667,87.667 5.866,87.667 6.077 C 87.667 6.128,87.442 6.405,87.167 6.693 C 86.892 6.981,86.667 7.285,86.667 7.370 C 86.667 7.455,86.554 7.636,86.417 7.774 C 86.279 7.911,86.167 8.168,86.167 8.345 C 86.167 8.522,86.092 8.667,86.000 8.667 C 85.908 8.667,85.833 8.779,85.833 8.917 C 85.833 9.054,85.758 9.167,85.667 9.167 C 85.575 9.167,85.500 9.317,85.500 9.500 C 85.500 9.683,85.425 9.833,85.333 9.833 C 85.242 9.833,85.167 9.983,85.167 10.167 C 85.167 10.350,85.092 10.500,85.000 10.500 C 84.908 10.500,84.833 10.650,84.833 10.833 C 84.833 11.017,84.758 11.167,84.667 11.167 C 84.560 11.167,84.500 9.694,84.500 7.083 C 84.500 4.472,84.440 3.000,84.333 3.000 C 84.242 3.000,84.167 2.882,84.167 2.738 C 84.167 2.594,84.070 2.388,83.952 2.280 C 83.299 1.683,83.096 1.667,76.226 1.667 L 69.448 1.667 68.891 2.092 C 68.584 2.326,68.333 2.626,68.333 2.758 C 68.333 2.891,68.258 3.000,68.167 3.000 C 68.056 3.000,68.000 14.055,68.000 35.833 L 68.000 68.666 68.590 69.291 L 69.180 69.917 76.422 69.963 C 84.454 70.015,85.167 69.917,85.167 68.762 C 85.167 68.618,85.242 68.500,85.333 68.500 C 85.444 68.500,85.500 61.511,85.500 47.867 C 85.500 35.499,85.562 27.170,85.654 27.075 C 85.738 26.988,85.845 26.392,85.890 25.750 C 86.005 24.127,86.352 22.167,86.523 22.167 C 86.602 22.167,86.667 21.979,86.667 21.750 C 86.667 21.521,86.742 21.333,86.833 21.333 C 86.925 21.333,87.000 21.183,87.000 21.000 C 87.000 20.817,87.075 20.667,87.167 20.667 C 87.258 20.667,87.333 20.554,87.333 20.417 C 87.333 20.279,87.408 20.167,87.500 20.167 C 87.592 20.167,87.667 20.048,87.667 19.903 C 87.667 19.561,89.561 17.667,89.903 17.667 C 90.048 17.667,90.167 17.592,90.167 17.500 C 90.167 17.408,90.317 17.333,90.500 17.333 C 90.683 17.333,90.833 17.258,90.833 17.167 C 90.833 17.075,91.096 17.000,91.417 17.000 C 91.737 17.000,92.000 16.925,92.000 16.833 C 92.000 16.733,92.694 16.667,93.750 16.667 C 94.806 16.667,95.500 16.733,95.500 16.833 C 95.500 16.925,95.635 17.000,95.800 17.000 C 96.173 17.000,96.997 17.373,96.999 17.542 C 96.999 17.610,97.118 17.667,97.262 17.667 C 97.406 17.667,97.621 17.760,97.740 17.875 C 97.858 17.990,98.134 18.247,98.353 18.447 C 98.865 18.915,99.166 19.285,99.170 19.451 C 99.172 19.524,99.321 19.771,99.500 20.000 C 99.679 20.229,99.828 20.548,99.830 20.708 C 99.832 20.869,99.908 21.000,100.000 21.000 C 100.092 21.000,100.167 21.225,100.167 21.500 C 100.167 21.775,100.242 22.000,100.333 22.000 C 100.425 22.000,100.500 22.258,100.500 22.573 C 100.500 22.889,100.575 23.193,100.667 23.250 C 100.758 23.307,100.833 23.794,100.833 24.333 C 100.833 24.873,100.908 25.360,101.000 25.417 C 101.110 25.484,101.167 32.841,101.167 46.943 C 101.167 70.690,101.096 69.191,102.246 69.737 C 102.877 70.036,116.450 70.140,117.197 69.851 C 117.756 69.635,118.333 69.087,118.333 68.772 C 118.333 68.622,118.404 68.500,118.490 68.500 C 118.588 68.500,118.667 60.207,118.699 46.722 C 118.739 29.485,118.793 24.930,118.958 24.875 C 119.087 24.832,119.167 24.494,119.167 23.986 C 119.167 23.535,119.242 23.167,119.333 23.167 C 119.425 23.167,119.500 22.979,119.500 22.750 C 119.500 22.521,119.575 22.333,119.667 22.333 C 119.758 22.333,119.833 22.108,119.833 21.833 C 119.833 21.558,119.908 21.333,120.000 21.333 C 120.092 21.333,120.167 21.232,120.167 21.109 C 120.167 20.986,120.317 20.749,120.500 20.583 C 120.683 20.417,120.833 20.215,120.833 20.134 C 120.833 20.052,120.918 19.885,121.020 19.762 C 121.737 18.906,122.163 18.500,122.345 18.500 C 122.462 18.500,122.675 18.395,122.820 18.267 C 123.225 17.909,124.314 17.333,124.588 17.333 C 124.723 17.333,124.833 17.258,124.833 17.167 C 124.833 17.075,125.171 17.000,125.583 17.000 C 125.996 17.000,126.333 16.925,126.333 16.833 C 126.333 16.742,126.708 16.667,127.167 16.667 C 127.625 16.667,128.000 16.742,128.000 16.833 C 128.000 16.925,128.337 17.000,128.750 17.000 C 129.162 17.000,129.500 17.075,129.500 17.167 C 129.500 17.258,129.725 17.333,130.000 17.333 C 130.275 17.333,130.500 17.408,130.500 17.500 C 130.500 17.592,130.625 17.667,130.778 17.667 C 131.128 17.667,133.000 19.552,133.000 19.904 C 133.000 20.049,133.057 20.167,133.126 20.167 C 133.980 20.167,134.050 22.004,134.112 46.042 C 134.149 60.756,134.226 68.500,134.335 68.500 C 134.426 68.500,134.500 68.618,134.500 68.762 C 134.500 69.918,135.210 70.015,143.271 69.963 L 150.538 69.917 151.103 69.264 L 151.667 68.611 151.667 41.982 C 151.667 24.409,151.610 15.318,151.500 15.250 C 151.408 15.193,151.330 14.795,151.326 14.365 C 151.322 13.935,151.242 13.246,151.149 12.833 C 151.056 12.421,150.938 11.877,150.887 11.625 C 150.837 11.373,150.729 11.167,150.648 11.167 C 150.566 11.167,150.500 10.942,150.500 10.667 C 150.500 10.392,150.425 10.167,150.333 10.167 C 150.242 10.167,150.167 10.017,150.167 9.833 C 150.167 9.650,150.092 9.500,150.000 9.500 C 149.908 9.500,149.833 9.350,149.833 9.167 C 149.833 8.983,149.758 8.833,149.667 8.833 C 149.575 8.833,149.500 8.737,149.500 8.620 C 149.500 8.503,149.350 8.299,149.167 8.167 C 148.983 8.035,148.833 7.809,148.833 7.666 C 148.833 7.218,146.734 4.893,145.598 4.083 C 145.340 3.900,145.031 3.656,144.910 3.542 C 144.789 3.427,144.607 3.333,144.505 3.333 C 144.403 3.333,144.161 3.185,143.967 3.005 C 143.773 2.824,143.120 2.446,142.515 2.165 C 141.911 1.883,141.292 1.585,141.140 1.501 C 140.987 1.417,140.481 1.298,140.015 1.236 C 139.548 1.174,139.167 1.058,139.167 0.979 C 139.167 0.899,138.829 0.833,138.417 0.833 C 138.004 0.833,137.667 0.758,137.667 0.667 C 137.667 0.567,137.028 0.500,136.083 0.500 C 135.139 0.500,134.500 0.433,134.500 0.333 C 134.500 0.242,134.313 0.167,134.083 0.167 C 133.854 0.167,133.667 0.242,133.667 0.333 C 133.667 0.434,132.972 0.500,131.917 0.500 C 130.861 0.500,130.167 0.566,130.167 0.667 C 130.167 0.758,129.867 0.833,129.500 0.833 C 129.133 0.833,128.833 0.898,128.833 0.977 C 128.833 1.056,128.445 1.166,127.971 1.222 C 127.497 1.279,127.032 1.401,126.938 1.496 C 126.844 1.590,126.632 1.667,126.467 1.667 C 126.302 1.667,126.167 1.742,126.167 1.833 C 126.167 1.925,126.017 2.000,125.833 2.000 C 125.650 2.000,125.500 2.075,125.500 2.167 C 125.500 2.258,125.350 2.333,125.167 2.333 C 124.983 2.333,124.833 2.408,124.833 2.500 C 124.833 2.592,124.683 2.667,124.500 2.667 C 124.317 2.667,124.167 2.742,124.167 2.833 C 124.167 2.925,124.082 3.000,123.978 3.000 C 123.874 3.000,123.668 3.131,123.520 3.292 C 123.371 3.452,122.987 3.718,122.667 3.883 C 122.346 4.048,121.896 4.410,121.667 4.687 C 121.281 5.152,120.806 5.638,119.625 6.774 C 119.373 7.017,119.167 7.317,119.167 7.441 C 119.167 7.565,119.093 7.667,119.003 7.667 C 118.913 7.667,118.789 7.873,118.726 8.125 C 118.664 8.377,118.475 8.681,118.306 8.801 C 118.138 8.921,118.000 9.127,118.000 9.259 C 118.000 9.392,117.925 9.500,117.833 9.500 C 117.742 9.500,117.667 9.650,117.667 9.833 C 117.667 10.017,117.592 10.167,117.500 10.167 C 117.408 10.167,117.333 10.317,117.333 10.500 C 117.333 10.683,117.258 10.833,117.167 10.833 C 117.075 10.833,117.000 10.950,117.000 11.093 C 117.000 11.236,116.925 11.307,116.833 11.250 C 116.742 11.193,116.667 11.001,116.667 10.823 C 116.667 10.646,116.592 10.500,116.500 10.500 C 116.408 10.500,116.333 10.355,116.333 10.179 C 116.333 10.002,116.235 9.758,116.115 9.637 C 115.995 9.516,115.789 9.173,115.657 8.875 C 115.526 8.577,115.362 8.333,115.293 8.333 C 115.223 8.333,115.167 8.235,115.167 8.115 C 115.167 7.995,115.035 7.751,114.875 7.573 C 114.715 7.395,114.362 6.950,114.092 6.583 C 113.822 6.217,113.465 5.795,113.300 5.647 C 113.135 5.499,113.000 5.298,113.000 5.200 C 113.000 5.102,112.644 4.739,112.208 4.394 C 111.773 4.048,111.258 3.593,111.064 3.382 C 110.870 3.172,110.605 3.000,110.476 3.000 C 110.346 3.000,110.132 2.850,110.000 2.667 C 109.868 2.483,109.633 2.333,109.477 2.333 C 109.322 2.333,109.169 2.277,109.139 2.208 C 109.024 1.950,107.648 1.351,106.919 1.242 C 106.503 1.179,106.122 1.062,106.071 0.981 C 106.021 0.900,105.722 0.833,105.407 0.833 C 105.091 0.833,104.833 0.758,104.833 0.667 C 104.833 0.566,104.139 0.500,103.083 0.500 C 102.028 0.500,101.333 0.434,101.333 0.333 C 101.333 0.242,101.146 0.167,100.917 0.167 C 100.688 0.167,100.500 0.242,100.500 0.333 M311.167 0.333 C 311.167 0.436,310.361 0.500,309.083 0.500 C 307.806 0.500,307.000 0.564,307.000 0.667 C 307.000 0.758,306.629 0.833,306.177 0.833 C 305.724 0.833,305.313 0.898,305.264 0.978 C 305.214 1.058,304.725 1.174,304.175 1.236 C 303.626 1.298,303.133 1.420,303.079 1.508 C 303.025 1.595,302.834 1.667,302.655 1.667 C 302.340 1.667,302.178 1.727,301.377 2.141 C 301.172 2.247,300.891 2.333,300.752 2.333 C 300.614 2.333,300.500 2.408,300.500 2.500 C 300.500 2.592,300.350 2.667,300.167 2.667 C 299.983 2.667,299.833 2.742,299.833 2.833 C 299.833 2.925,299.683 3.000,299.500 3.000 C 299.317 3.000,299.167 3.075,299.167 3.167 C 299.167 3.258,299.054 3.333,298.917 3.333 C 298.779 3.333,298.667 3.408,298.667 3.500 C 298.667 3.592,298.522 3.667,298.345 3.667 C 298.168 3.667,297.925 3.760,297.804 3.875 C 297.682 3.990,297.377 4.190,297.125 4.320 C 296.873 4.450,296.667 4.619,296.667 4.695 C 296.667 4.771,296.591 4.833,296.498 4.833 C 296.406 4.833,296.095 5.058,295.807 5.333 C 295.519 5.608,295.212 5.833,295.123 5.833 C 294.904 5.833,291.604 9.157,291.350 9.633 C 291.238 9.844,290.964 10.219,290.741 10.466 C 289.860 11.444,289.500 11.926,289.500 12.125 C 289.500 12.240,289.442 12.333,289.371 12.333 C 289.300 12.333,289.093 12.670,288.912 13.082 C 288.731 13.493,288.527 13.831,288.458 13.832 C 288.390 13.833,288.333 13.983,288.333 14.167 C 288.333 14.350,288.258 14.500,288.167 14.500 C 288.075 14.500,288.000 14.650,288.000 14.833 C 288.000 15.017,287.925 15.167,287.833 15.167 C 287.742 15.167,287.667 15.317,287.667 15.500 C 287.667 15.683,287.592 15.833,287.500 15.833 C 287.408 15.833,287.333 15.946,287.333 16.083 C 287.333 16.221,287.258 16.333,287.167 16.333 C 287.075 16.333,287.000 16.447,287.000 16.586 C 287.000 16.830,286.932 17.003,286.529 17.784 C 286.425 17.987,286.291 18.455,286.232 18.826 C 286.173 19.197,286.059 19.500,285.979 19.500 C 285.899 19.500,285.833 19.725,285.833 20.000 C 285.833 20.275,285.758 20.500,285.667 20.500 C 285.575 20.500,285.500 20.683,285.500 20.907 C 285.500 21.131,285.425 21.360,285.333 21.417 C 285.242 21.473,285.167 21.778,285.167 22.093 C 285.167 22.409,285.092 22.667,285.000 22.667 C 284.908 22.667,284.833 22.929,284.833 23.250 C 284.833 23.571,284.766 23.833,284.683 23.833 C 284.601 23.833,284.492 24.152,284.441 24.542 C 284.391 24.931,284.267 25.700,284.167 26.250 C 283.853 27.982,283.694 29.848,283.680 31.958 C 283.672 33.199,283.601 34.000,283.500 34.000 C 283.399 34.000,283.333 34.694,283.333 35.750 C 283.333 36.806,283.399 37.500,283.500 37.500 C 283.601 37.500,283.671 38.300,283.679 39.542 C 283.685 40.665,283.763 42.183,283.852 42.917 C 283.941 43.650,284.056 44.644,284.106 45.125 C 284.156 45.606,284.266 46.000,284.349 46.000 C 284.432 46.000,284.500 46.333,284.500 46.740 C 284.500 47.147,284.575 47.527,284.667 47.583 C 284.758 47.640,284.833 47.944,284.833 48.260 C 284.833 48.575,284.908 48.833,285.000 48.833 C 285.092 48.833,285.167 49.096,285.167 49.417 C 285.167 49.737,285.242 50.000,285.333 50.000 C 285.425 50.000,285.500 50.225,285.500 50.500 C 285.500 50.775,285.575 51.000,285.667 51.000 C 285.758 51.000,285.833 51.225,285.833 51.500 C 285.833 51.775,285.900 52.000,285.981 52.000 C 286.062 52.000,286.179 52.338,286.241 52.750 C 286.303 53.163,286.424 53.500,286.510 53.500 C 286.596 53.500,286.667 53.643,286.667 53.818 C 286.667 54.158,287.334 55.547,287.542 55.639 C 287.610 55.669,287.667 55.838,287.667 56.014 C 287.667 56.190,287.742 56.333,287.833 56.333 C 287.925 56.333,288.000 56.483,288.000 56.667 C 288.000 56.850,288.075 57.000,288.167 57.000 C 288.258 57.000,288.333 57.150,288.333 57.333 C 288.333 57.517,288.390 57.667,288.458 57.667 C 288.527 57.668,288.722 58.005,288.892 58.417 C 289.061 58.829,289.267 59.167,289.350 59.167 C 289.432 59.167,289.500 59.279,289.500 59.415 C 289.500 59.552,289.650 59.758,289.833 59.872 C 290.017 59.987,290.167 60.182,290.167 60.307 C 290.167 60.431,290.392 60.743,290.667 61.000 C 290.942 61.257,291.167 61.558,291.167 61.670 C 291.167 61.859,292.616 63.438,293.736 64.469 C 294.003 64.715,294.544 65.235,294.939 65.625 C 295.335 66.015,295.754 66.333,295.872 66.333 C 295.990 66.333,296.172 66.471,296.277 66.639 C 296.382 66.807,296.888 67.156,297.401 67.416 C 297.914 67.675,298.333 67.937,298.333 67.996 C 298.333 68.056,298.596 68.207,298.917 68.333 C 299.237 68.459,299.500 68.623,299.500 68.698 C 299.500 68.772,299.650 68.833,299.833 68.833 C 300.017 68.833,300.167 68.908,300.167 69.000 C 300.167 69.092,300.317 69.167,300.500 69.167 C 300.683 69.167,300.833 69.242,300.833 69.333 C 300.833 69.425,301.016 69.500,301.240 69.500 C 301.464 69.500,301.691 69.571,301.744 69.657 C 301.797 69.743,302.177 69.864,302.587 69.926 C 302.998 69.987,303.333 70.104,303.333 70.186 C 303.333 70.267,303.596 70.333,303.917 70.333 C 304.237 70.333,304.500 70.408,304.500 70.500 C 304.500 70.592,304.833 70.667,305.240 70.667 C 305.647 70.667,306.027 70.742,306.083 70.833 C 306.140 70.925,306.594 71.000,307.093 71.000 C 307.592 71.000,308.000 71.075,308.000 71.167 C 308.000 71.273,309.306 71.333,311.583 71.333 C 313.861 71.333,315.167 71.273,315.167 71.167 C 315.167 71.075,315.579 71.000,316.083 71.000 C 316.587 71.000,317.000 70.925,317.000 70.833 C 317.000 70.742,317.337 70.667,317.750 70.667 C 318.162 70.667,318.500 70.592,318.500 70.500 C 318.500 70.408,318.725 70.333,319.000 70.333 C 319.275 70.333,319.500 70.267,319.500 70.186 C 319.500 70.105,319.912 69.987,320.417 69.924 C 320.921 69.861,321.333 69.740,321.333 69.655 C 321.333 69.570,321.451 69.500,321.594 69.500 C 321.911 69.500,324.061 68.486,324.139 68.300 C 324.169 68.227,324.322 68.167,324.477 68.167 C 324.633 68.167,324.868 68.017,325.000 67.833 C 325.132 67.650,325.339 67.500,325.459 67.500 C 325.732 67.500,326.493 67.024,326.853 66.629 C 327.001 66.467,327.213 66.333,327.324 66.333 C 327.435 66.333,327.814 66.033,328.167 65.667 C 328.519 65.300,328.854 65.000,328.911 65.000 C 329.141 65.000,330.743 63.455,331.250 62.745 C 331.433 62.489,331.860 61.989,332.198 61.636 C 332.536 61.283,332.860 60.846,332.918 60.664 C 332.975 60.482,333.081 60.333,333.152 60.333 C 333.223 60.333,333.422 60.071,333.595 59.750 C 333.768 59.429,333.967 59.167,334.038 59.167 C 334.109 59.167,334.167 59.044,334.167 58.895 C 334.167 58.745,334.304 58.501,334.471 58.353 C 334.638 58.205,334.882 57.840,335.012 57.542 C 335.142 57.244,335.305 57.000,335.374 57.000 C 335.443 57.000,335.500 56.850,335.500 56.667 C 335.500 56.483,335.575 56.333,335.667 56.333 C 335.758 56.333,335.833 56.183,335.833 56.000 C 335.833 55.817,335.905 55.667,335.992 55.667 C 336.080 55.667,336.201 55.404,336.261 55.083 C 336.321 54.762,336.437 54.500,336.519 54.500 C 336.600 54.500,336.667 54.350,336.667 54.167 C 336.667 53.983,336.742 53.833,336.833 53.833 C 336.925 53.833,337.000 53.720,337.000 53.581 C 337.000 53.442,337.075 53.180,337.167 52.998 C 337.258 52.816,337.408 52.518,337.500 52.336 C 337.592 52.154,337.667 51.854,337.667 51.669 C 337.667 51.484,337.742 51.333,337.833 51.333 C 337.925 51.333,338.000 51.108,338.000 50.833 C 338.000 50.558,338.066 50.333,338.148 50.333 C 338.304 50.333,338.404 49.938,338.707 48.125 C 338.810 47.506,338.956 47.000,339.031 47.000 C 339.106 47.000,339.167 46.667,339.167 46.260 C 339.167 45.853,339.242 45.473,339.333 45.417 C 339.425 45.360,339.500 44.985,339.500 44.583 C 339.500 44.182,339.575 43.807,339.667 43.750 C 339.758 43.693,339.833 43.051,339.833 42.323 C 339.833 41.552,339.903 41.000,340.000 41.000 C 340.107 41.000,340.167 39.309,340.167 36.260 C 340.167 33.280,340.105 31.481,340.000 31.417 C 339.908 31.360,339.833 30.723,339.833 30.000 C 339.833 29.277,339.758 28.640,339.667 28.583 C 339.575 28.527,339.500 28.077,339.500 27.583 C 339.500 27.090,339.425 26.640,339.333 26.583 C 339.242 26.527,339.167 26.110,339.167 25.657 C 339.167 25.204,339.102 24.833,339.023 24.833 C 338.944 24.833,338.838 24.423,338.786 23.922 C 338.693 23.026,338.435 22.033,338.146 21.461 C 338.066 21.301,338.000 21.025,338.000 20.845 C 338.000 20.666,337.925 20.473,337.833 20.417 C 337.742 20.360,337.667 20.131,337.667 19.907 C 337.667 19.683,337.592 19.500,337.500 19.500 C 337.408 19.500,337.333 19.349,337.333 19.164 C 337.333 18.980,337.258 18.680,337.167 18.498 C 337.075 18.316,336.925 18.018,336.833 17.836 C 336.742 17.654,336.667 17.391,336.667 17.252 C 336.667 17.114,336.600 17.000,336.519 17.000 C 336.437 17.000,336.321 16.737,336.261 16.417 C 336.201 16.096,336.080 15.833,335.992 15.833 C 335.905 15.833,335.833 15.683,335.833 15.500 C 335.833 15.317,335.758 15.167,335.667 15.167 C 335.575 15.167,335.500 15.017,335.500 14.833 C 335.500 14.650,335.443 14.500,335.374 14.500 C 335.305 14.500,335.142 14.256,335.012 13.958 C 334.882 13.660,334.638 13.295,334.471 13.147 C 334.304 12.999,334.167 12.755,334.167 12.605 C 334.167 12.456,334.099 12.333,334.016 12.333 C 333.934 12.333,333.787 12.107,333.691 11.831 C 333.595 11.555,333.400 11.284,333.258 11.230 C 333.116 11.176,333.000 11.024,333.000 10.893 C 333.000 10.763,332.756 10.408,332.458 10.105 C 332.160 9.801,331.692 9.262,331.417 8.905 C 330.769 8.066,328.835 6.167,328.627 6.167 C 328.539 6.167,328.257 5.942,328.000 5.667 C 327.743 5.392,327.469 5.166,327.391 5.166 C 327.314 5.166,326.994 4.947,326.681 4.680 C 326.369 4.413,325.694 3.984,325.181 3.727 C 324.669 3.471,324.225 3.202,324.194 3.130 C 324.164 3.059,323.995 3.000,323.819 3.000 C 323.644 3.000,323.500 2.925,323.500 2.833 C 323.500 2.742,323.354 2.667,323.177 2.667 C 322.999 2.667,322.807 2.592,322.750 2.500 C 322.693 2.408,322.501 2.333,322.323 2.333 C 322.146 2.333,322.000 2.277,322.000 2.207 C 322.000 2.069,320.823 1.667,320.419 1.667 C 320.280 1.667,320.167 1.598,320.167 1.513 C 320.167 1.429,319.679 1.308,319.083 1.244 C 318.487 1.180,318.000 1.062,318.000 0.981 C 318.000 0.900,317.592 0.833,317.093 0.833 C 316.594 0.833,316.140 0.758,316.083 0.667 C 316.024 0.571,315.137 0.500,313.990 0.500 C 312.774 0.500,312.000 0.435,312.000 0.333 C 312.000 0.242,311.813 0.167,311.583 0.167 C 311.354 0.167,311.167 0.242,311.167 0.333 M381.833 0.333 C 381.833 0.434,381.139 0.500,380.083 0.500 C 379.028 0.500,378.333 0.566,378.333 0.667 C 378.333 0.758,377.996 0.833,377.583 0.833 C 377.171 0.833,376.833 0.898,376.833 0.977 C 376.833 1.057,376.499 1.167,376.090 1.223 C 375.432 1.313,373.891 1.908,373.667 2.158 C 373.621 2.209,373.377 2.357,373.125 2.487 C 372.873 2.617,372.667 2.785,372.667 2.861 C 372.667 2.938,372.551 3.000,372.409 3.000 C 372.108 3.000,368.667 6.381,368.667 6.677 C 368.667 6.787,368.535 6.999,368.374 7.147 C 368.213 7.295,367.975 7.623,367.846 7.875 C 367.716 8.127,367.548 8.333,367.472 8.333 C 367.396 8.333,367.333 8.446,367.333 8.583 C 367.333 8.721,367.258 8.833,367.167 8.833 C 367.075 8.833,367.000 8.983,367.000 9.167 C 367.000 9.350,366.943 9.500,366.874 9.500 C 366.728 9.500,366.402 10.209,366.241 10.875 C 366.180 11.127,366.064 11.333,365.982 11.333 C 365.900 11.333,365.833 11.483,365.833 11.667 C 365.833 11.850,365.758 12.000,365.667 12.000 C 365.560 12.000,365.500 10.389,365.500 7.500 C 365.500 5.025,365.443 3.000,365.373 3.000 C 365.303 3.000,365.172 2.831,365.081 2.625 C 364.991 2.419,364.748 2.176,364.542 2.085 C 364.335 1.995,364.167 1.864,364.167 1.794 C 364.167 1.724,361.059 1.667,357.260 1.667 L 350.353 1.667 349.593 2.416 L 348.833 3.165 348.833 35.832 C 348.833 57.500,348.889 68.500,349.000 68.500 C 349.092 68.500,349.167 68.622,349.167 68.772 C 349.167 69.087,349.744 69.635,350.303 69.851 C 350.515 69.933,353.860 70.000,357.736 70.000 L 364.784 70.000 365.348 69.620 C 366.387 68.920,366.328 70.147,366.331 48.958 C 366.333 36.099,366.390 29.500,366.500 29.500 C 366.598 29.500,366.667 28.917,366.667 28.083 C 366.667 27.250,366.735 26.667,366.833 26.667 C 366.925 26.667,367.000 26.329,367.000 25.917 C 367.000 25.504,367.067 25.167,367.148 25.167 C 367.230 25.167,367.339 24.923,367.391 24.625 C 367.608 23.370,367.713 23.000,367.852 23.000 C 367.934 23.000,368.000 22.854,368.000 22.677 C 368.000 22.499,368.075 22.307,368.167 22.250 C 368.258 22.193,368.333 21.970,368.333 21.754 C 368.333 21.538,368.390 21.336,368.458 21.306 C 368.527 21.275,368.733 20.950,368.917 20.583 C 369.290 19.837,371.413 17.667,371.770 17.667 C 371.896 17.667,372.000 17.592,372.000 17.500 C 372.000 17.408,372.150 17.333,372.333 17.333 C 372.517 17.333,372.667 17.258,372.667 17.167 C 372.667 17.075,372.817 17.000,373.000 17.000 C 373.183 17.000,373.333 16.925,373.333 16.833 C 373.333 16.742,373.746 16.667,374.250 16.667 C 374.754 16.667,375.167 16.592,375.167 16.500 C 375.167 16.408,375.317 16.333,375.500 16.333 C 375.683 16.333,375.833 16.408,375.833 16.500 C 375.833 16.592,376.171 16.667,376.583 16.667 C 376.996 16.667,377.333 16.742,377.333 16.833 C 377.333 16.925,377.558 17.000,377.833 17.000 C 378.108 17.000,378.333 17.075,378.333 17.167 C 378.333 17.258,378.433 17.333,378.555 17.333 C 378.876 17.333,380.833 19.231,380.833 19.542 C 380.833 19.687,380.906 19.831,380.994 19.861 C 381.198 19.931,382.000 22.126,382.000 22.614 C 382.000 22.816,382.075 23.027,382.167 23.083 C 382.258 23.140,382.333 23.590,382.333 24.083 C 382.333 24.577,382.408 25.027,382.500 25.083 C 382.610 25.151,382.667 32.585,382.667 46.843 C 382.667 61.170,382.723 68.500,382.833 68.500 C 382.925 68.500,383.000 68.618,383.000 68.762 C 383.000 69.920,383.719 70.019,391.732 69.965 L 398.955 69.917 399.485 69.350 L 400.014 68.783 399.966 42.364 C 399.927 21.411,399.874 15.930,399.708 15.875 C 399.576 15.831,399.500 15.477,399.500 14.903 C 399.500 14.406,399.425 14.000,399.333 14.000 C 399.242 14.000,399.167 13.700,399.167 13.333 C 399.167 12.967,399.100 12.667,399.019 12.667 C 398.938 12.667,398.820 12.254,398.757 11.750 C 398.694 11.246,398.573 10.833,398.488 10.833 C 398.403 10.833,398.333 10.608,398.333 10.333 C 398.333 10.058,398.258 9.833,398.167 9.833 C 398.075 9.833,398.000 9.683,398.000 9.500 C 398.000 9.317,397.925 9.167,397.833 9.167 C 397.742 9.167,397.667 9.054,397.667 8.917 C 397.667 8.779,397.592 8.667,397.500 8.667 C 397.408 8.667,397.333 8.533,397.333 8.370 C 397.333 8.207,397.183 7.965,397.000 7.833 C 396.817 7.701,396.667 7.460,396.667 7.297 C 396.667 7.133,396.608 7.000,396.536 7.000 C 396.464 7.000,396.262 6.756,396.087 6.458 C 395.747 5.879,393.721 3.833,393.488 3.833 C 393.411 3.833,393.161 3.646,392.932 3.417 C 392.703 3.188,392.405 3.000,392.271 3.000 C 392.137 3.000,392.003 2.938,391.972 2.861 C 391.896 2.670,390.032 1.667,389.754 1.667 C 389.629 1.667,389.502 1.590,389.471 1.497 C 389.440 1.404,389.021 1.281,388.541 1.224 C 388.060 1.167,387.667 1.056,387.667 0.977 C 387.667 0.898,387.371 0.833,387.010 0.833 C 386.649 0.833,386.307 0.758,386.250 0.667 C 386.193 0.575,385.446 0.500,384.583 0.500 C 383.721 0.500,382.973 0.425,382.917 0.333 C 382.860 0.242,382.593 0.167,382.323 0.167 C 382.054 0.167,381.833 0.242,381.833 0.333 M232.750 1.500 C 232.693 1.592,232.501 1.667,232.323 1.667 C 232.146 1.667,232.000 1.742,232.000 1.833 C 232.000 1.925,231.900 2.000,231.777 2.000 C 231.526 2.000,231.167 2.685,231.167 3.165 C 231.167 3.338,231.092 3.527,231.000 3.583 C 230.786 3.715,230.773 13.391,230.986 13.794 C 231.070 13.953,231.229 14.327,231.340 14.625 C 231.450 14.923,231.644 15.167,231.770 15.167 C 231.897 15.167,232.000 15.242,232.000 15.333 C 232.000 15.425,232.146 15.500,232.323 15.500 C 232.501 15.500,232.693 15.575,232.750 15.667 C 232.817 15.775,236.558 15.833,243.428 15.833 L 254.003 15.833 253.793 16.207 C 253.678 16.412,253.452 16.702,253.292 16.851 C 253.131 17.000,253.000 17.228,253.000 17.358 C 253.000 17.487,252.850 17.701,252.667 17.833 C 252.483 17.965,252.333 18.170,252.333 18.287 C 252.333 18.404,252.271 18.500,252.195 18.500 C 252.119 18.500,251.950 18.706,251.820 18.958 C 251.690 19.210,251.508 19.508,251.417 19.619 C 251.325 19.731,251.156 19.934,251.042 20.071 C 250.927 20.207,250.833 20.418,250.833 20.540 C 250.833 20.661,250.683 20.868,250.500 21.000 C 250.317 21.132,250.167 21.320,250.167 21.417 C 250.167 21.514,250.017 21.701,249.833 21.833 C 249.650 21.965,249.500 22.173,249.500 22.294 C 249.500 22.416,249.313 22.703,249.083 22.932 C 248.854 23.161,248.667 23.441,248.667 23.554 C 248.667 23.667,248.517 23.868,248.333 24.000 C 248.150 24.132,248.000 24.357,248.000 24.500 C 248.000 24.643,247.850 24.868,247.667 25.000 C 247.483 25.132,247.333 25.374,247.333 25.537 C 247.333 25.700,247.259 25.833,247.169 25.833 C 247.079 25.833,246.797 26.152,246.544 26.542 C 246.291 26.931,246.027 27.275,245.958 27.306 C 245.890 27.336,245.833 27.488,245.833 27.644 C 245.833 27.799,245.683 28.035,245.500 28.167 C 245.317 28.299,245.167 28.486,245.167 28.583 C 245.167 28.680,245.017 28.868,244.833 29.000 C 244.650 29.132,244.500 29.317,244.500 29.412 C 244.500 29.506,244.312 29.801,244.083 30.068 C 243.854 30.334,243.667 30.636,243.667 30.739 C 243.667 30.842,243.517 31.035,243.333 31.167 C 243.150 31.299,243.000 31.524,243.000 31.667 C 243.000 31.810,242.850 32.035,242.667 32.167 C 242.483 32.299,242.333 32.465,242.333 32.535 C 242.333 32.645,241.519 33.814,240.998 34.451 C 240.907 34.562,240.833 34.752,240.833 34.873 C 240.833 34.994,240.683 35.201,240.500 35.333 C 240.317 35.465,240.167 35.635,240.167 35.711 C 240.167 35.787,239.979 36.036,239.750 36.265 C 239.521 36.494,239.333 36.742,239.333 36.815 C 239.333 36.889,239.183 37.122,239.000 37.333 C 238.817 37.545,238.667 37.802,238.667 37.905 C 238.667 38.009,238.517 38.201,238.333 38.333 C 238.150 38.465,238.000 38.673,238.000 38.794 C 238.000 38.916,237.813 39.203,237.583 39.432 C 237.354 39.661,237.167 39.908,237.167 39.982 C 237.167 40.055,236.979 40.333,236.749 40.599 C 236.519 40.865,236.289 41.215,236.238 41.375 C 236.186 41.535,236.074 41.667,235.989 41.667 C 235.903 41.667,235.833 41.778,235.833 41.914 C 235.833 42.050,235.646 42.368,235.418 42.622 C 234.529 43.609,234.167 44.092,234.167 44.292 C 234.167 44.406,234.099 44.500,234.016 44.500 C 233.934 44.500,233.787 44.726,233.691 45.002 C 233.595 45.278,233.400 45.549,233.258 45.603 C 233.116 45.658,233.000 45.788,233.000 45.893 C 232.999 45.998,232.775 46.346,232.500 46.667 C 232.225 46.987,232.001 47.344,232.000 47.458 C 232.000 47.573,231.937 47.667,231.860 47.667 C 231.782 47.667,231.578 47.929,231.405 48.250 C 231.232 48.571,231.033 48.833,230.962 48.833 C 230.891 48.833,230.833 48.932,230.833 49.052 C 230.833 49.172,230.700 49.416,230.537 49.594 C 228.860 51.423,228.782 51.853,228.708 59.729 C 228.660 64.784,228.695 66.666,228.844 67.025 C 229.062 67.552,229.811 68.167,230.234 68.167 C 230.380 68.167,230.500 68.242,230.500 68.333 C 230.500 68.425,230.762 68.500,231.083 68.500 C 231.404 68.500,231.667 68.425,231.667 68.333 C 231.667 68.242,231.817 68.167,232.000 68.167 C 232.183 68.167,232.333 68.092,232.333 68.000 C 232.333 67.908,232.483 67.833,232.667 67.833 C 232.850 67.833,233.000 67.767,233.000 67.685 C 233.000 67.604,233.262 67.488,233.583 67.428 C 233.904 67.367,234.167 67.247,234.167 67.159 C 234.167 67.072,234.317 67.000,234.500 67.000 C 234.683 67.000,234.833 66.925,234.833 66.833 C 234.833 66.742,234.968 66.667,235.133 66.667 C 235.506 66.667,236.330 66.294,236.332 66.125 C 236.333 66.056,236.558 66.000,236.833 66.000 C 237.108 66.000,237.333 65.925,237.333 65.833 C 237.333 65.742,237.516 65.667,237.740 65.667 C 237.964 65.667,238.193 65.592,238.250 65.500 C 238.307 65.408,238.536 65.333,238.760 65.333 C 238.984 65.333,239.167 65.267,239.167 65.186 C 239.167 65.105,239.578 64.987,240.081 64.924 C 240.583 64.861,241.038 64.740,241.091 64.655 C 241.143 64.570,241.444 64.500,241.760 64.500 C 242.075 64.500,242.333 64.425,242.333 64.333 C 242.333 64.242,242.629 64.167,242.990 64.167 C 243.351 64.167,243.693 64.092,243.750 64.000 C 243.807 63.908,244.186 63.833,244.593 63.833 C 245.000 63.833,245.333 63.758,245.333 63.667 C 245.333 63.574,245.778 63.500,246.333 63.500 C 246.889 63.500,247.333 63.426,247.333 63.333 C 247.333 63.233,247.997 63.167,248.990 63.167 C 249.915 63.167,250.693 63.093,250.750 63.000 C 250.889 62.775,255.833 62.775,255.833 63.000 C 255.833 63.100,256.497 63.167,257.490 63.167 C 258.415 63.167,259.193 63.240,259.250 63.333 C 259.307 63.425,259.761 63.500,260.260 63.500 C 260.759 63.500,261.167 63.568,261.167 63.651 C 261.167 63.733,261.523 63.843,261.958 63.894 C 263.541 64.080,264.171 64.205,264.261 64.351 C 264.312 64.433,264.607 64.500,264.917 64.500 C 265.227 64.500,265.525 64.572,265.579 64.659 C 265.633 64.746,266.125 64.869,266.672 64.930 C 267.219 64.992,267.667 65.108,267.667 65.188 C 267.667 65.268,267.850 65.333,268.073 65.333 C 268.297 65.333,268.527 65.408,268.583 65.500 C 268.640 65.592,268.832 65.667,269.010 65.667 C 269.188 65.667,269.333 65.742,269.333 65.833 C 269.333 65.925,269.521 66.000,269.750 66.000 C 269.979 66.000,270.167 66.075,270.167 66.167 C 270.167 66.258,270.280 66.333,270.419 66.333 C 270.558 66.333,270.801 66.402,270.961 66.486 C 271.745 66.899,273.204 67.500,273.421 67.500 C 273.556 67.500,273.667 67.556,273.668 67.625 C 273.671 67.905,274.632 68.167,275.658 68.166 C 276.757 68.166,277.667 67.724,277.667 67.189 C 277.667 67.085,277.742 67.000,277.833 67.000 C 277.941 67.000,278.000 64.806,278.000 60.750 C 278.000 56.694,277.941 54.500,277.833 54.500 C 277.742 54.500,277.667 54.350,277.667 54.167 C 277.667 53.983,277.592 53.833,277.500 53.833 C 277.408 53.833,277.333 53.734,277.333 53.612 C 277.333 53.384,276.656 52.667,276.441 52.667 C 276.374 52.667,276.158 52.517,275.962 52.333 C 275.765 52.150,275.505 52.000,275.385 52.000 C 275.265 52.000,275.167 51.925,275.167 51.833 C 275.167 51.742,275.017 51.667,274.833 51.667 C 274.650 51.667,274.500 51.592,274.500 51.500 C 274.500 51.408,274.350 51.333,274.167 51.333 C 273.983 51.333,273.833 51.258,273.833 51.167 C 273.833 51.075,273.720 51.000,273.581 51.000 C 273.442 51.000,273.199 50.931,273.039 50.847 C 272.310 50.463,271.503 50.167,271.183 50.167 C 270.991 50.167,270.833 50.092,270.833 50.000 C 270.833 49.908,270.650 49.833,270.427 49.833 C 270.203 49.833,269.973 49.758,269.917 49.667 C 269.860 49.575,269.593 49.500,269.323 49.500 C 269.054 49.500,268.833 49.425,268.833 49.333 C 268.833 49.242,268.646 49.167,268.417 49.167 C 268.188 49.167,268.000 49.092,268.000 49.000 C 268.000 48.908,267.700 48.833,267.333 48.833 C 266.967 48.833,266.667 48.758,266.667 48.667 C 266.667 48.575,266.419 48.500,266.117 48.500 C 265.814 48.500,265.495 48.432,265.408 48.349 C 265.321 48.267,264.912 48.158,264.500 48.107 C 264.087 48.057,263.300 47.943,262.750 47.855 C 262.200 47.767,261.094 47.688,260.292 47.681 C 259.440 47.673,258.833 47.597,258.833 47.500 C 258.833 47.395,257.773 47.333,255.986 47.333 L 253.139 47.333 253.521 46.708 C 253.731 46.365,253.962 46.058,254.035 46.028 C 254.107 45.997,254.167 45.847,254.167 45.693 C 254.167 45.539,254.317 45.320,254.500 45.205 C 254.683 45.091,254.833 44.919,254.833 44.824 C 254.833 44.729,255.021 44.464,255.250 44.235 C 255.479 44.006,255.667 43.758,255.667 43.685 C 255.667 43.611,255.817 43.378,256.000 43.167 C 256.183 42.955,256.333 42.698,256.333 42.595 C 256.333 42.491,256.483 42.299,256.667 42.167 C 256.850 42.035,257.000 41.821,257.000 41.691 C 257.000 41.562,257.137 41.334,257.305 41.186 C 257.473 41.038,257.886 40.504,258.221 40.000 C 258.557 39.496,258.907 38.993,258.999 38.882 C 259.091 38.771,259.167 38.606,259.167 38.515 C 259.167 38.423,259.335 38.172,259.542 37.956 C 260.215 37.251,260.827 36.421,260.830 36.208 C 260.832 36.094,260.903 36.000,260.989 36.000 C 261.074 36.000,261.195 35.841,261.256 35.647 C 261.318 35.453,261.586 35.066,261.851 34.789 C 262.116 34.511,262.333 34.199,262.333 34.095 C 262.333 33.992,262.483 33.799,262.667 33.667 C 262.850 33.535,263.000 33.342,263.000 33.239 C 263.000 33.136,263.150 32.916,263.333 32.750 C 263.517 32.584,263.667 32.351,263.667 32.232 C 263.667 32.113,263.854 31.828,264.083 31.598 C 264.313 31.369,264.500 31.082,264.500 30.961 C 264.500 30.840,264.650 30.632,264.833 30.500 C 265.017 30.368,265.167 30.180,265.167 30.083 C 265.167 29.986,265.317 29.799,265.500 29.667 C 265.683 29.535,265.833 29.327,265.833 29.206 C 265.833 29.000,265.949 28.825,266.458 28.256 C 266.573 28.128,266.667 27.960,266.667 27.882 C 266.667 27.804,266.817 27.632,267.000 27.500 C 267.183 27.368,267.333 27.143,267.333 27.000 C 267.333 26.857,267.483 26.632,267.667 26.500 C 267.850 26.368,268.000 26.193,268.000 26.112 C 268.000 26.031,268.188 25.742,268.417 25.470 C 268.646 25.197,268.833 24.884,268.833 24.774 C 268.833 24.664,268.983 24.465,269.167 24.333 C 269.350 24.201,269.500 23.978,269.500 23.837 C 269.500 23.696,269.650 23.487,269.833 23.372 C 270.017 23.258,270.167 23.086,270.167 22.991 C 270.167 22.896,270.341 22.644,270.554 22.431 C 270.767 22.218,271.039 21.808,271.158 21.522 C 271.277 21.235,271.440 21.000,271.520 21.000 C 271.601 21.000,271.667 20.904,271.667 20.787 C 271.667 20.670,271.817 20.465,272.000 20.333 C 272.183 20.201,272.333 20.011,272.333 19.911 C 272.333 19.811,272.465 19.584,272.625 19.406 C 273.226 18.741,273.833 17.848,273.833 17.631 C 273.833 17.508,273.983 17.299,274.167 17.167 C 274.350 17.035,274.500 16.849,274.500 16.755 C 274.501 16.661,274.727 16.321,275.003 16.000 C 275.279 15.679,275.597 15.210,275.710 14.958 C 275.822 14.706,275.968 14.500,276.033 14.500 C 276.098 14.500,276.201 14.238,276.261 13.917 C 276.321 13.596,276.437 13.333,276.519 13.333 C 276.732 13.333,276.710 2.871,276.497 2.618 C 275.327 1.231,277.148 1.333,253.706 1.333 C 239.984 1.333,232.818 1.390,232.750 1.500 M313.667 14.000 C 313.667 14.092,313.850 14.167,314.073 14.167 C 314.297 14.167,314.527 14.242,314.583 14.333 C 314.640 14.425,314.869 14.500,315.093 14.500 C 315.317 14.500,315.500 14.575,315.500 14.667 C 315.500 14.758,315.612 14.833,315.749 14.833 C 316.075 14.833,318.333 17.068,318.333 17.390 C 318.333 17.527,318.390 17.664,318.458 17.694 C 318.630 17.771,319.167 18.954,319.167 19.256 C 319.167 19.390,319.242 19.500,319.333 19.500 C 319.425 19.500,319.500 19.762,319.500 20.083 C 319.500 20.404,319.575 20.667,319.667 20.667 C 319.758 20.667,319.833 20.887,319.833 21.157 C 319.833 21.426,319.908 21.693,320.000 21.750 C 320.092 21.807,320.167 22.144,320.167 22.500 C 320.167 22.856,320.242 23.193,320.333 23.250 C 320.425 23.307,320.500 23.761,320.500 24.260 C 320.500 24.759,320.575 25.167,320.667 25.167 C 320.761 25.167,320.833 25.656,320.833 26.300 C 320.833 26.973,320.916 27.516,321.038 27.638 C 321.338 27.938,321.342 44.692,321.042 44.792 C 320.904 44.838,320.833 45.223,320.833 45.931 C 320.833 46.532,320.760 47.000,320.667 47.000 C 320.575 47.000,320.500 47.337,320.500 47.750 C 320.500 48.163,320.425 48.500,320.333 48.500 C 320.242 48.500,320.167 48.758,320.167 49.073 C 320.167 49.389,320.092 49.693,320.000 49.750 C 319.908 49.807,319.833 50.036,319.833 50.260 C 319.833 50.484,319.758 50.667,319.667 50.667 C 319.575 50.667,319.500 50.892,319.500 51.167 C 319.500 51.442,319.425 51.667,319.333 51.667 C 319.242 51.667,319.167 51.817,319.167 52.000 C 319.167 52.183,319.095 52.333,319.008 52.333 C 318.920 52.333,318.799 52.596,318.739 52.917 C 318.679 53.237,318.576 53.500,318.510 53.500 C 318.444 53.500,318.283 53.706,318.153 53.958 C 317.848 54.550,315.692 56.667,315.394 56.667 C 315.269 56.667,315.167 56.742,315.167 56.833 C 315.167 56.925,315.017 57.000,314.833 57.000 C 314.650 57.000,314.500 57.075,314.500 57.167 C 314.500 57.258,314.279 57.333,314.010 57.333 C 313.740 57.333,313.473 57.408,313.417 57.500 C 313.359 57.594,312.554 57.667,311.573 57.667 C 310.524 57.667,309.833 57.600,309.833 57.500 C 309.833 57.408,309.608 57.333,309.333 57.333 C 309.058 57.333,308.833 57.258,308.833 57.167 C 308.833 57.075,308.737 57.000,308.620 57.000 C 308.503 57.000,308.299 56.850,308.167 56.667 C 308.035 56.483,307.831 56.333,307.713 56.333 C 307.432 56.333,306.309 55.206,306.012 54.625 C 305.883 54.373,305.715 54.167,305.639 54.167 C 305.562 54.167,305.500 54.017,305.500 53.833 C 305.500 53.650,305.425 53.500,305.333 53.500 C 305.242 53.500,305.167 53.387,305.167 53.250 C 305.167 53.112,305.092 53.000,305.000 53.000 C 304.908 53.000,304.833 52.850,304.833 52.667 C 304.833 52.483,304.758 52.333,304.667 52.333 C 304.575 52.333,304.500 52.146,304.500 51.917 C 304.500 51.688,304.425 51.500,304.333 51.500 C 304.242 51.500,304.167 51.313,304.167 51.083 C 304.167 50.854,304.101 50.667,304.022 50.667 C 303.942 50.667,303.826 50.219,303.764 49.672 C 303.702 49.125,303.580 48.633,303.492 48.579 C 303.405 48.525,303.333 48.147,303.333 47.740 C 303.333 47.333,303.258 47.000,303.167 47.000 C 303.073 47.000,303.000 46.528,303.000 45.917 C 303.000 45.306,302.927 44.833,302.833 44.833 C 302.734 44.833,302.667 44.198,302.667 43.260 C 302.667 42.391,302.592 41.640,302.500 41.583 C 302.393 41.517,302.333 39.026,302.333 34.657 C 302.333 30.219,302.392 27.833,302.500 27.833 C 302.597 27.833,302.667 27.281,302.667 26.510 C 302.667 25.782,302.742 25.140,302.833 25.083 C 302.925 25.027,303.000 24.614,303.000 24.167 C 303.000 23.719,303.075 23.307,303.167 23.250 C 303.258 23.193,303.333 22.893,303.333 22.583 C 303.333 22.273,303.398 21.979,303.478 21.930 C 303.558 21.881,303.673 21.464,303.734 21.004 C 303.795 20.543,303.917 20.167,304.006 20.167 C 304.094 20.167,304.167 19.942,304.167 19.667 C 304.167 19.392,304.242 19.167,304.333 19.167 C 304.425 19.167,304.500 19.017,304.500 18.833 C 304.500 18.650,304.575 18.500,304.667 18.500 C 304.758 18.500,304.833 18.387,304.833 18.250 C 304.833 18.112,304.908 18.000,305.000 18.000 C 305.092 18.000,305.167 17.906,305.167 17.792 C 305.167 17.602,305.504 17.153,306.322 16.250 C 306.949 15.559,307.853 14.833,308.089 14.833 C 308.223 14.833,308.333 14.758,308.333 14.667 C 308.333 14.575,308.479 14.500,308.657 14.500 C 308.835 14.500,309.027 14.425,309.083 14.333 C 309.140 14.242,309.407 14.167,309.677 14.167 C 309.946 14.167,310.167 14.092,310.167 14.000 C 310.167 13.899,310.861 13.833,311.917 13.833 C 312.972 13.833,313.667 13.899,313.667 14.000 M36.167 41.417 C 36.167 44.250,36.107 45.833,36.000 45.833 C 35.908 45.833,35.833 46.246,35.833 46.750 C 35.833 47.254,35.758 47.667,35.667 47.667 C 35.575 47.667,35.500 47.929,35.500 48.250 C 35.500 48.571,35.425 48.833,35.333 48.833 C 35.242 48.833,35.167 49.058,35.167 49.333 C 35.167 49.608,35.092 49.833,35.000 49.833 C 34.908 49.833,34.833 50.021,34.833 50.250 C 34.833 50.479,34.758 50.667,34.667 50.667 C 34.575 50.667,34.500 50.817,34.500 51.000 C 34.500 51.183,34.425 51.333,34.333 51.333 C 34.242 51.333,34.167 51.477,34.167 51.653 C 34.167 51.828,34.110 51.997,34.042 52.028 C 33.973 52.058,33.767 52.383,33.583 52.750 C 33.400 53.116,33.025 53.649,32.750 53.933 C 32.475 54.217,32.091 54.629,31.896 54.849 C 31.255 55.575,30.326 56.333,30.078 56.333 C 29.943 56.333,29.833 56.394,29.833 56.469 C 29.833 56.635,28.553 57.333,28.248 57.333 C 28.127 57.333,27.997 57.425,27.960 57.536 C 27.863 57.829,23.473 57.834,23.375 57.542 C 23.337 57.427,23.214 57.333,23.103 57.333 C 22.807 57.333,22.003 56.938,22.001 56.792 C 22.001 56.723,21.850 56.667,21.667 56.667 C 21.483 56.667,21.333 56.608,21.333 56.536 C 21.333 56.463,21.015 56.055,20.625 55.627 C 19.578 54.477,19.500 54.371,19.500 54.090 C 19.500 53.949,19.425 53.833,19.333 53.833 C 19.242 53.833,19.167 53.683,19.167 53.500 C 19.167 53.317,19.101 53.167,19.020 53.167 C 18.384 53.167,18.364 45.736,18.999 45.101 C 19.091 45.009,19.167 44.761,19.167 44.550 C 19.167 44.339,19.242 44.167,19.333 44.167 C 19.425 44.167,19.500 44.049,19.500 43.905 C 19.500 43.761,19.594 43.544,19.708 43.423 C 20.081 43.031,20.422 42.590,20.974 41.788 C 21.272 41.355,21.619 41.000,21.744 41.000 C 21.870 41.000,21.997 40.937,22.028 40.859 C 22.110 40.649,23.760 39.500,23.978 39.500 C 24.082 39.500,24.167 39.425,24.167 39.333 C 24.167 39.242,24.317 39.167,24.500 39.167 C 24.683 39.167,24.833 39.092,24.833 39.000 C 24.833 38.908,24.947 38.833,25.086 38.833 C 25.224 38.833,25.468 38.764,25.627 38.679 C 26.328 38.305,28.063 37.886,29.583 37.725 C 30.042 37.676,30.488 37.568,30.575 37.485 C 30.662 37.401,31.412 37.332,32.242 37.331 C 33.071 37.329,33.862 37.256,34.000 37.167 C 34.137 37.078,34.681 37.004,35.208 37.003 L 36.167 37.000 36.167 41.417 M198.667 40.000 C 198.667 41.889,198.605 43.000,198.500 43.000 C 198.399 43.000,198.333 43.694,198.333 44.750 C 198.333 45.806,198.267 46.500,198.167 46.500 C 198.075 46.500,198.000 46.833,198.000 47.240 C 198.000 47.647,197.925 48.027,197.833 48.083 C 197.742 48.140,197.667 48.407,197.667 48.677 C 197.667 48.946,197.592 49.167,197.500 49.167 C 197.408 49.167,197.333 49.392,197.333 49.667 C 197.333 49.942,197.258 50.167,197.167 50.167 C 197.075 50.167,197.000 50.277,197.000 50.411 C 197.000 50.545,196.813 50.991,196.583 51.401 C 196.354 51.812,196.167 52.264,196.167 52.407 C 196.167 52.550,196.092 52.667,196.000 52.667 C 195.908 52.667,195.833 52.742,195.833 52.835 C 195.833 52.927,195.608 53.238,195.333 53.526 C 195.058 53.814,194.833 54.118,194.833 54.203 C 194.833 54.390,193.346 55.833,193.153 55.833 C 193.077 55.833,192.828 56.021,192.598 56.250 C 192.369 56.479,192.066 56.667,191.924 56.667 C 191.783 56.667,191.667 56.742,191.667 56.833 C 191.667 56.925,191.554 57.000,191.417 57.000 C 191.279 57.000,191.167 57.075,191.167 57.167 C 191.167 57.258,190.948 57.333,190.681 57.333 C 190.413 57.333,190.163 57.427,190.125 57.542 C 190.074 57.694,189.463 57.750,187.833 57.750 C 186.204 57.750,185.593 57.694,185.542 57.542 C 185.503 57.427,185.328 57.333,185.153 57.333 C 184.977 57.333,184.833 57.258,184.833 57.167 C 184.833 57.075,184.700 57.000,184.537 57.000 C 184.374 57.000,184.132 56.850,184.000 56.667 C 183.868 56.483,183.698 56.333,183.622 56.333 C 183.444 56.333,182.667 55.556,182.667 55.378 C 182.667 55.302,182.517 55.132,182.333 55.000 C 182.150 54.868,182.000 54.626,182.000 54.463 C 182.000 54.300,181.925 54.167,181.833 54.167 C 181.742 54.167,181.667 54.017,181.667 53.833 C 181.667 53.650,181.602 53.500,181.522 53.500 C 181.443 53.500,181.279 53.106,181.159 52.625 C 180.713 50.840,180.997 44.500,181.523 44.500 C 181.602 44.500,181.667 44.350,181.667 44.167 C 181.667 43.983,181.742 43.833,181.833 43.833 C 181.925 43.833,182.000 43.715,182.000 43.571 C 182.000 43.427,182.094 43.210,182.208 43.088 C 182.323 42.967,182.642 42.591,182.917 42.253 C 183.853 41.103,184.622 40.402,185.372 40.015 C 185.623 39.886,185.976 39.642,186.157 39.473 C 186.338 39.305,186.635 39.167,186.817 39.167 C 186.998 39.167,187.193 39.092,187.250 39.000 C 187.307 38.908,187.499 38.833,187.677 38.833 C 187.854 38.833,188.000 38.758,188.000 38.667 C 188.000 38.575,188.188 38.500,188.417 38.500 C 188.646 38.500,188.833 38.432,188.833 38.350 C 188.833 38.267,189.283 38.147,189.834 38.083 C 190.384 38.019,190.876 37.900,190.927 37.817 C 190.978 37.734,191.423 37.667,191.917 37.667 C 192.410 37.667,192.860 37.592,192.917 37.500 C 192.974 37.407,193.752 37.333,194.677 37.333 C 195.670 37.333,196.333 37.267,196.333 37.167 C 196.333 37.071,196.833 37.000,197.500 37.000 L 198.667 37.000 198.667 40.000 " stroke="none" fill="#040404" fill-rule="evenodd"></path><path id="path2" d="" stroke="none" fill="#c0a004" fill-rule="evenodd"></path><path id="path3" d="" stroke="none" fill="#405404" fill-rule="evenodd"></path><path id="path4" d="" stroke="none" fill="#440404" fill-rule="evenodd"></path><path id="path5" d="" stroke="none" fill="#080404" fill-rule="evenodd"></path><path id="path6" d="" stroke="none" fill="#080404" fill-rule="evenodd"></path><path id="path7" d="" stroke="none" fill="#080404" fill-rule="evenodd"></path><path id="path8" d="" stroke="none" fill="#080404" fill-rule="evenodd"></path></g></svg>