<svg id="svg" version="1.1" xmlns="http://www.w3.org/2000/svg" xmlns:xlink="http://www.w3.org/1999/xlink" width="400" height="88.54166666666667" viewBox="0, 0, 400,88.54166666666667"><g id="svgg"><path id="path0" d="M390.579 0.375 C 390.426 0.896,389.797 2.232,389.657 2.333 C 389.594 2.379,389.488 2.665,389.422 2.970 C 389.356 3.274,389.196 3.563,389.068 3.612 C 388.939 3.662,388.833 3.887,388.833 4.113 C 388.833 4.339,388.721 4.636,388.583 4.774 C 388.446 4.911,388.333 5.159,388.333 5.325 C 388.333 5.490,388.221 5.719,388.083 5.833 C 387.946 5.947,387.833 6.167,387.833 6.322 C 387.833 6.476,387.723 6.749,387.589 6.926 C 387.454 7.104,387.342 7.377,387.339 7.532 C 387.336 7.687,387.175 7.925,386.982 8.061 C 386.789 8.196,386.676 8.381,386.733 8.472 C 386.827 8.624,385.839 10.789,385.439 11.308 C 385.343 11.431,385.246 11.662,385.222 11.820 C 385.198 11.978,385.067 12.321,384.931 12.583 C 384.795 12.845,384.722 13.122,384.769 13.198 C 384.816 13.274,384.738 13.380,384.596 13.435 C 384.453 13.490,384.258 13.829,384.161 14.189 C 384.064 14.549,383.929 14.809,383.861 14.767 C 383.793 14.725,383.722 14.879,383.703 15.110 C 383.684 15.340,383.525 15.711,383.350 15.933 C 383.170 16.163,383.070 16.480,383.119 16.669 C 383.199 16.977,383.029 17.091,382.604 17.013 C 382.523 16.998,382.501 17.151,382.553 17.353 C 382.614 17.583,382.528 17.873,382.325 18.132 C 382.146 18.359,382.000 18.647,382.000 18.772 C 382.000 18.898,381.925 19.000,381.833 19.000 C 381.742 19.000,381.664 19.131,381.661 19.292 C 381.658 19.452,381.510 19.883,381.333 20.250 C 381.156 20.617,381.009 21.015,381.006 21.135 C 381.003 21.255,380.931 21.310,380.847 21.258 C 380.763 21.206,380.645 21.386,380.585 21.657 C 380.526 21.928,380.257 22.580,379.989 23.106 C 379.720 23.631,379.500 24.154,379.500 24.269 C 379.500 24.383,379.387 24.589,379.249 24.727 C 379.111 24.865,378.982 25.171,378.963 25.406 C 378.930 25.803,378.800 25.912,378.439 25.846 C 378.359 25.832,378.340 26.002,378.395 26.224 C 378.459 26.478,378.408 26.702,378.259 26.826 C 378.128 26.934,377.973 27.243,377.914 27.512 C 377.855 27.780,377.738 28.000,377.653 28.000 C 377.569 28.000,377.497 28.094,377.494 28.208 C 377.491 28.323,377.344 28.717,377.167 29.083 C 376.990 29.450,376.842 29.836,376.839 29.941 C 376.836 30.045,376.716 30.176,376.573 30.231 C 376.429 30.286,376.350 30.392,376.396 30.466 C 376.441 30.540,376.221 31.122,375.906 31.759 C 375.591 32.396,375.334 33.085,375.333 33.292 C 375.333 33.514,375.231 33.667,375.083 33.667 C 374.871 33.667,374.744 34.069,374.810 34.532 C 374.819 34.595,374.678 34.694,374.495 34.751 C 374.257 34.827,374.184 34.966,374.236 35.249 C 374.279 35.487,374.214 35.677,374.070 35.732 C 373.940 35.782,373.833 36.004,373.833 36.224 C 373.833 36.445,373.721 36.719,373.583 36.833 C 373.446 36.947,373.333 37.139,373.333 37.259 C 373.333 37.378,373.240 37.575,373.125 37.696 C 373.010 37.818,372.890 38.102,372.858 38.328 C 372.826 38.555,372.657 38.921,372.483 39.142 C 372.309 39.364,372.167 39.676,372.167 39.835 C 372.167 39.995,372.054 40.219,371.917 40.333 C 371.779 40.447,371.667 40.711,371.667 40.919 C 371.667 41.127,371.554 41.341,371.417 41.394 C 371.279 41.446,371.167 41.670,371.167 41.891 C 371.167 42.112,371.054 42.386,370.917 42.500 C 370.779 42.614,370.667 42.881,370.667 43.093 C 370.667 43.334,370.540 43.518,370.326 43.586 C 370.092 43.660,370.016 43.787,370.082 43.995 C 370.189 44.334,369.544 45.547,369.328 45.413 C 369.171 45.316,368.333 43.601,368.333 43.377 C 368.333 43.298,368.240 43.140,368.125 43.025 C 368.010 42.910,367.917 42.758,367.917 42.687 C 367.917 42.561,367.433 41.508,367.141 41.000 C 367.062 40.862,366.956 40.637,366.905 40.500 C 366.854 40.362,366.710 40.025,366.584 39.750 C 366.459 39.475,366.309 39.081,366.250 38.875 C 366.192 38.669,366.074 38.500,365.989 38.500 C 365.903 38.500,365.833 38.310,365.833 38.078 C 365.833 37.846,365.721 37.613,365.583 37.560 C 365.446 37.508,365.333 37.290,365.333 37.077 C 365.333 36.865,365.225 36.582,365.092 36.449 C 364.959 36.316,364.796 35.992,364.731 35.728 C 364.665 35.465,364.474 35.025,364.307 34.750 C 364.140 34.475,363.921 34.063,363.821 33.833 C 363.720 33.604,363.532 33.204,363.403 32.945 C 363.273 32.685,363.167 32.376,363.167 32.257 C 363.167 32.138,363.054 31.947,362.917 31.833 C 362.779 31.719,362.667 31.490,362.667 31.325 C 362.667 31.159,362.554 30.911,362.417 30.774 C 362.279 30.636,362.167 30.411,362.167 30.274 C 362.167 30.136,362.072 29.925,361.957 29.804 C 361.842 29.682,361.672 29.358,361.578 29.083 L 361.409 28.583 356.913 28.539 C 351.886 28.489,351.743 28.519,352.257 29.514 C 352.391 29.772,352.500 30.090,352.500 30.221 C 352.500 30.352,352.613 30.553,352.750 30.667 C 352.887 30.781,353.000 31.006,353.000 31.167 C 353.000 31.328,353.100 31.542,353.222 31.643 C 353.356 31.755,353.413 32.034,353.366 32.354 C 353.314 32.706,353.349 32.844,353.469 32.769 C 353.649 32.658,354.060 33.218,353.910 33.368 C 353.867 33.411,353.982 33.583,354.166 33.749 C 354.350 33.915,354.500 34.218,354.500 34.422 C 354.500 34.626,354.613 34.886,354.750 35.000 C 354.887 35.114,355.000 35.308,355.000 35.432 C 355.000 35.711,355.687 37.063,355.868 37.139 C 355.940 37.169,356.000 37.321,356.000 37.475 C 356.000 37.629,356.146 38.027,356.324 38.359 C 356.502 38.692,356.614 38.997,356.573 39.038 C 356.532 39.079,356.648 39.249,356.832 39.416 C 357.016 39.582,357.167 39.842,357.167 39.994 C 357.167 40.146,357.275 40.415,357.407 40.593 C 357.548 40.783,357.607 41.089,357.550 41.333 C 357.497 41.563,357.510 41.697,357.580 41.633 C 357.764 41.463,358.167 41.921,358.167 42.301 C 358.167 42.480,358.279 42.719,358.417 42.833 C 358.554 42.947,358.667 43.192,358.667 43.377 C 358.667 43.562,358.892 44.079,359.167 44.526 C 359.442 44.973,359.667 45.440,359.667 45.563 C 359.667 45.687,359.817 45.979,360.000 46.212 C 360.183 46.445,360.333 46.751,360.333 46.891 C 360.333 47.032,360.403 47.190,360.487 47.242 C 360.572 47.294,360.689 47.556,360.748 47.824 C 360.807 48.091,360.962 48.400,361.094 48.509 C 361.226 48.618,361.333 48.878,361.333 49.086 C 361.333 49.294,361.454 49.511,361.601 49.567 C 361.795 49.641,361.839 49.789,361.761 50.099 C 361.691 50.377,361.714 50.490,361.827 50.421 C 361.922 50.362,362.000 50.435,362.000 50.583 C 362.000 50.745,362.077 50.805,362.193 50.734 C 362.325 50.652,362.356 50.728,362.292 50.974 C 362.240 51.172,362.266 51.333,362.349 51.333 C 362.432 51.333,362.500 51.446,362.500 51.583 C 362.500 51.721,362.575 51.833,362.667 51.833 C 362.758 51.833,362.833 51.916,362.833 52.016 C 362.833 52.215,363.266 53.262,363.515 53.667 C 363.600 53.804,363.712 54.029,363.765 54.167 C 363.817 54.304,364.004 54.725,364.180 55.102 C 364.356 55.478,364.500 55.872,364.500 55.977 C 364.500 56.081,364.569 56.167,364.653 56.167 C 364.738 56.167,364.855 56.388,364.915 56.659 C 364.974 56.930,365.173 57.342,365.357 57.576 L 365.691 58.000 369.314 58.000 C 373.381 58.000,373.256 58.035,373.827 56.750 C 374.032 56.292,374.304 55.704,374.433 55.445 C 374.561 55.185,374.667 54.876,374.667 54.757 C 374.667 54.638,374.779 54.447,374.917 54.333 C 375.054 54.219,375.167 53.956,375.167 53.747 C 375.167 53.539,375.279 53.326,375.417 53.273 C 375.563 53.217,375.667 52.967,375.667 52.672 C 375.667 52.384,375.747 52.185,375.854 52.208 C 375.957 52.231,376.119 52.025,376.212 51.750 C 376.306 51.475,376.436 51.212,376.499 51.167 C 376.563 51.121,376.670 50.859,376.738 50.585 C 376.805 50.311,376.931 50.042,377.019 49.988 C 377.107 49.934,377.213 49.701,377.254 49.471 C 377.296 49.241,377.556 48.630,377.832 48.113 C 378.108 47.596,378.333 47.068,378.333 46.940 C 378.333 46.812,378.446 46.614,378.583 46.500 C 378.721 46.386,378.833 46.149,378.833 45.974 C 378.833 45.799,378.946 45.613,379.083 45.560 C 379.221 45.508,379.333 45.353,379.333 45.216 C 379.333 45.080,379.437 44.769,379.564 44.526 C 379.926 43.834,380.836 41.844,380.834 41.751 C 380.834 41.704,380.983 41.386,381.166 41.044 C 381.350 40.702,381.500 40.359,381.500 40.282 C 381.500 40.206,381.613 40.030,381.750 39.893 C 381.887 39.755,382.000 39.431,382.000 39.173 C 382.000 38.908,382.110 38.660,382.250 38.606 C 382.387 38.554,382.500 38.321,382.500 38.089 C 382.500 37.857,382.574 37.667,382.663 37.667 C 382.753 37.667,382.873 37.482,382.930 37.257 C 382.986 37.031,383.138 36.760,383.266 36.653 C 383.395 36.546,383.500 36.286,383.500 36.075 C 383.500 35.863,383.613 35.578,383.750 35.440 C 383.887 35.303,384.000 35.097,384.000 34.983 C 384.000 34.869,384.111 34.654,384.246 34.504 C 384.381 34.355,384.515 34.086,384.543 33.908 C 384.570 33.729,384.664 33.471,384.751 33.333 C 385.090 32.795,385.469 31.980,385.573 31.564 C 385.634 31.323,385.792 31.018,385.925 30.885 C 386.058 30.752,386.167 30.461,386.167 30.238 C 386.167 29.989,386.263 29.833,386.417 29.833 C 386.581 29.833,386.667 29.669,386.667 29.351 C 386.667 29.076,386.774 28.828,386.917 28.773 C 387.054 28.720,387.167 28.496,387.167 28.276 C 387.167 28.055,387.279 27.781,387.417 27.667 C 387.554 27.553,387.667 27.328,387.667 27.167 C 387.667 27.006,387.779 26.781,387.917 26.667 C 388.054 26.553,388.167 26.290,388.167 26.083 C 388.167 25.877,388.279 25.614,388.417 25.500 C 388.554 25.386,388.667 25.162,388.667 25.002 C 388.667 24.842,388.817 24.521,389.000 24.288 C 389.183 24.055,389.336 23.763,389.339 23.640 C 389.342 23.517,389.454 23.271,389.589 23.093 C 389.723 22.915,389.833 22.632,389.833 22.463 C 389.833 22.294,389.946 22.113,390.083 22.060 C 390.221 22.008,390.333 21.794,390.333 21.586 C 390.333 21.378,390.446 21.114,390.583 21.000 C 390.721 20.886,390.836 20.670,390.839 20.521 C 390.842 20.372,390.954 20.104,391.089 19.926 C 391.223 19.749,391.333 19.430,391.333 19.218 C 391.333 18.987,391.433 18.833,391.583 18.833 C 391.735 18.833,391.833 18.678,391.833 18.437 C 391.833 18.219,391.946 17.947,392.083 17.833 C 392.221 17.719,392.333 17.514,392.333 17.378 C 392.333 17.158,393.131 15.359,393.768 14.141 C 393.896 13.898,394.000 13.579,394.000 13.433 C 394.000 13.286,394.074 13.167,394.163 13.167 C 394.253 13.167,394.373 12.982,394.430 12.757 C 394.486 12.531,394.638 12.260,394.766 12.153 C 394.895 12.046,395.000 11.779,395.000 11.558 C 395.000 11.337,395.096 11.119,395.214 11.074 C 395.332 11.029,395.444 10.793,395.465 10.550 C 395.485 10.307,395.613 9.984,395.751 9.833 C 395.888 9.681,396.000 9.441,396.000 9.299 C 396.000 9.157,396.113 8.947,396.250 8.833 C 396.387 8.719,396.500 8.494,396.500 8.333 C 396.500 8.172,396.613 7.947,396.750 7.833 C 396.887 7.719,397.000 7.549,397.000 7.456 C 397.000 7.290,397.480 6.189,397.937 5.308 C 398.063 5.064,398.167 4.778,398.167 4.671 C 398.167 4.564,398.279 4.364,398.417 4.226 C 398.554 4.089,398.667 3.829,398.667 3.650 C 398.667 3.470,398.779 3.280,398.917 3.227 C 399.054 3.174,399.167 2.952,399.167 2.732 C 399.167 2.513,399.238 2.333,399.326 2.333 C 399.413 2.333,399.534 2.071,399.594 1.750 C 399.655 1.429,399.770 1.167,399.852 1.167 C 399.933 1.167,400.000 0.904,400.000 0.583 L 400.000 0.000 395.345 0.000 L 390.689 0.000 390.579 0.375 " stroke="none" fill="#d4241b" fill-rule="evenodd"></path><path id="path1" d="M159.375 8.110 C 159.212 8.176,159.167 9.998,159.167 16.431 L 159.167 24.667 168.500 24.667 L 177.833 24.667 177.833 16.333 L 177.833 8.000 168.708 8.013 C 163.690 8.020,159.490 8.064,159.375 8.110 M80.000 27.083 C 80.000 27.283,79.749 27.333,78.745 27.333 C 77.783 27.333,77.467 27.392,77.394 27.583 C 77.325 27.763,77.043 27.833,76.394 27.833 C 75.744 27.833,75.463 27.904,75.394 28.083 C 75.335 28.236,75.082 28.333,74.744 28.333 C 74.440 28.333,74.078 28.446,73.940 28.583 C 73.803 28.721,73.495 28.833,73.257 28.833 C 73.018 28.833,72.781 28.941,72.731 29.073 C 72.680 29.205,72.420 29.361,72.153 29.420 C 71.885 29.478,71.667 29.633,71.667 29.763 C 71.667 29.916,71.487 30.000,71.161 30.000 C 70.866 30.000,70.616 30.104,70.560 30.250 C 70.506 30.393,70.257 30.500,69.982 30.500 C 69.665 30.500,69.500 30.585,69.500 30.750 C 69.500 30.906,69.342 31.000,69.078 31.000 C 68.846 31.000,68.613 31.113,68.560 31.250 C 68.508 31.387,68.360 31.500,68.232 31.500 C 68.104 31.500,68.000 31.613,68.000 31.750 C 68.000 31.887,67.855 32.000,67.679 32.000 C 67.502 32.000,67.245 32.112,67.107 32.250 C 66.970 32.387,66.777 32.500,66.679 32.500 C 66.580 32.500,66.500 32.612,66.500 32.750 C 66.500 32.887,66.417 33.000,66.315 33.000 C 66.059 33.000,65.340 33.704,65.336 33.958 C 65.335 34.073,65.221 34.167,65.083 34.167 C 64.946 34.167,64.833 34.279,64.833 34.417 C 64.833 34.554,64.721 34.667,64.583 34.667 C 64.446 34.667,64.333 34.779,64.333 34.917 C 64.333 35.054,64.258 35.167,64.167 35.167 C 63.951 35.167,63.333 35.784,63.333 36.000 C 63.333 36.092,63.221 36.167,63.083 36.167 C 62.946 36.167,62.833 36.279,62.833 36.417 C 62.833 36.554,62.750 36.667,62.648 36.667 C 62.392 36.667,61.673 37.371,61.670 37.625 C 61.668 37.740,61.554 37.833,61.417 37.833 C 61.250 37.833,61.167 38.000,61.167 38.333 C 61.167 38.667,61.083 38.833,60.917 38.833 C 60.779 38.833,60.667 38.946,60.667 39.083 C 60.667 39.221,60.554 39.333,60.417 39.333 C 60.250 39.333,60.167 39.500,60.167 39.833 C 60.167 40.167,60.083 40.333,59.917 40.333 C 59.779 40.333,59.667 40.448,59.667 40.589 C 59.667 40.729,59.554 40.887,59.417 40.940 C 59.274 40.994,59.167 41.243,59.167 41.518 C 59.167 41.835,59.081 42.000,58.917 42.000 C 58.750 42.000,58.667 42.167,58.667 42.500 C 58.667 42.826,58.582 43.000,58.424 43.000 C 58.280 43.000,58.138 43.233,58.073 43.577 C 58.014 43.895,57.860 44.242,57.733 44.348 C 57.605 44.454,57.500 44.749,57.500 45.003 C 57.500 45.259,57.389 45.507,57.250 45.560 C 57.079 45.626,57.000 45.894,57.000 46.411 C 57.000 46.972,56.935 47.167,56.750 47.167 C 56.556 47.167,56.500 47.389,56.500 48.167 C 56.500 48.944,56.444 49.167,56.250 49.167 C 56.049 49.167,56.000 49.426,56.000 50.500 C 56.000 51.574,55.951 51.833,55.750 51.833 C 55.532 51.833,55.500 52.602,55.500 57.750 C 55.500 62.898,55.532 63.667,55.750 63.667 C 55.950 63.667,56.000 63.917,56.000 64.922 C 56.000 65.884,56.058 66.200,56.250 66.273 C 56.424 66.340,56.500 66.612,56.500 67.173 C 56.500 67.665,56.597 68.073,56.750 68.226 C 56.888 68.364,57.000 68.739,57.000 69.060 C 57.000 69.380,57.112 69.755,57.250 69.893 C 57.387 70.030,57.500 70.336,57.500 70.571 C 57.500 70.841,57.593 71.000,57.750 71.000 C 57.916 71.000,58.000 71.166,58.000 71.494 C 58.000 71.818,58.115 72.050,58.333 72.167 C 58.524 72.269,58.667 72.516,58.667 72.744 C 58.667 72.963,58.779 73.255,58.917 73.393 C 59.054 73.530,59.167 73.761,59.167 73.905 C 59.167 74.049,59.279 74.167,59.417 74.167 C 59.583 74.167,59.667 74.333,59.667 74.667 C 59.667 74.954,59.755 75.168,59.875 75.170 C 59.990 75.172,60.254 75.547,60.462 76.003 C 60.670 76.460,60.913 76.833,61.003 76.833 C 61.093 76.833,61.167 76.946,61.167 77.083 C 61.167 77.221,61.273 77.333,61.403 77.333 C 61.534 77.333,61.690 77.558,61.750 77.833 C 61.810 78.108,61.966 78.333,62.097 78.333 C 62.227 78.333,62.333 78.446,62.333 78.583 C 62.333 78.721,62.446 78.833,62.583 78.833 C 62.721 78.833,62.833 78.946,62.833 79.083 C 62.833 79.221,62.946 79.333,63.083 79.333 C 63.221 79.333,63.333 79.446,63.333 79.583 C 63.333 79.721,63.446 79.833,63.583 79.833 C 63.721 79.833,63.833 79.916,63.833 80.018 C 63.833 80.309,65.600 82.000,65.904 82.000 C 66.054 82.000,66.220 82.112,66.273 82.250 C 66.326 82.387,66.511 82.500,66.684 82.500 C 66.858 82.500,67.000 82.612,67.000 82.750 C 67.000 82.887,67.112 83.000,67.250 83.000 C 67.387 83.000,67.500 83.112,67.500 83.250 C 67.500 83.417,67.667 83.500,68.000 83.500 C 68.333 83.500,68.500 83.583,68.500 83.750 C 68.500 83.887,68.612 84.000,68.750 84.000 C 68.887 84.000,69.000 84.107,69.000 84.237 C 69.000 84.367,69.219 84.522,69.486 84.580 C 69.753 84.639,70.014 84.795,70.064 84.927 C 70.116 85.063,70.376 85.167,70.661 85.167 C 70.999 85.167,71.167 85.249,71.167 85.417 C 71.167 85.583,71.333 85.667,71.667 85.667 C 72.000 85.667,72.167 85.750,72.167 85.917 C 72.167 86.085,72.335 86.167,72.679 86.167 C 72.960 86.167,73.303 86.279,73.440 86.417 C 73.578 86.554,73.948 86.667,74.262 86.667 C 74.659 86.667,74.833 86.743,74.833 86.917 C 74.833 87.111,75.056 87.167,75.833 87.167 C 76.611 87.167,76.833 87.222,76.833 87.417 C 76.833 87.613,77.065 87.667,77.917 87.667 C 78.769 87.667,79.000 87.720,79.000 87.917 C 79.000 88.124,79.315 88.167,80.833 88.167 C 81.944 88.167,82.667 88.232,82.667 88.333 C 82.667 88.439,83.972 88.500,86.250 88.500 C 88.528 88.500,89.833 88.439,89.833 88.333 C 89.833 88.232,90.556 88.167,91.667 88.167 C 93.185 88.167,93.500 88.124,93.500 87.917 C 93.500 87.723,93.720 87.667,94.480 87.667 C 95.147 87.667,95.525 87.587,95.667 87.417 C 95.800 87.257,96.168 87.167,96.692 87.167 C 97.266 87.167,97.539 87.092,97.606 86.917 C 97.660 86.776,97.908 86.667,98.173 86.667 C 98.431 86.667,98.755 86.554,98.893 86.417 C 99.030 86.279,99.373 86.167,99.655 86.167 C 99.999 86.167,100.167 86.085,100.167 85.917 C 100.167 85.749,100.334 85.667,100.672 85.667 C 100.967 85.667,101.217 85.563,101.273 85.417 C 101.326 85.279,101.506 85.167,101.673 85.167 C 101.840 85.167,102.089 85.054,102.226 84.917 C 102.364 84.779,102.545 84.667,102.629 84.667 C 102.713 84.667,102.917 84.517,103.083 84.333 C 103.249 84.150,103.486 84.000,103.609 84.000 C 103.732 84.000,103.833 83.887,103.833 83.750 C 103.833 83.583,104.000 83.500,104.333 83.500 C 104.667 83.500,104.833 83.417,104.833 83.250 C 104.833 83.111,104.981 83.000,105.167 83.000 C 105.352 83.000,105.500 82.889,105.500 82.750 C 105.500 82.612,105.612 82.500,105.750 82.500 C 105.888 82.500,106.000 82.387,106.000 82.250 C 106.000 82.112,106.112 82.000,106.250 82.000 C 106.388 82.000,106.500 81.923,106.500 81.830 C 106.500 81.736,106.706 81.567,106.958 81.455 C 107.571 81.181,108.000 80.807,108.000 80.546 C 108.000 80.429,108.112 80.333,108.250 80.333 C 108.388 80.333,108.500 80.221,108.500 80.083 C 108.500 79.946,108.612 79.833,108.750 79.833 C 108.888 79.833,109.000 79.758,109.000 79.667 C 109.000 79.575,109.150 79.350,109.333 79.167 C 109.517 78.983,109.667 78.721,109.667 78.583 C 109.667 78.446,109.779 78.333,109.917 78.333 C 110.054 78.333,110.167 78.221,110.167 78.083 C 110.167 77.946,110.279 77.833,110.417 77.833 C 110.554 77.833,110.667 77.729,110.667 77.601 C 110.667 77.473,110.779 77.326,110.917 77.273 C 111.054 77.220,111.167 76.987,111.167 76.755 C 111.167 76.491,111.260 76.333,111.417 76.333 C 111.556 76.333,111.667 76.185,111.667 76.000 C 111.667 75.815,111.778 75.667,111.917 75.667 C 112.083 75.667,112.167 75.500,112.167 75.167 C 112.167 74.851,112.252 74.667,112.399 74.667 C 112.526 74.667,112.680 74.470,112.740 74.230 C 112.800 73.990,112.959 73.684,113.092 73.551 C 113.225 73.418,113.333 73.060,113.333 72.756 C 113.333 72.418,113.431 72.165,113.583 72.106 C 113.753 72.041,113.833 71.775,113.833 71.273 C 113.833 70.771,113.913 70.505,114.083 70.440 C 114.248 70.376,114.333 70.115,114.333 69.672 L 114.333 69.000 105.250 69.000 L 96.167 69.000 96.167 69.500 C 96.167 69.810,96.081 70.000,95.940 70.000 C 95.637 70.000,94.862 71.057,94.567 71.875 C 94.509 72.035,94.357 72.167,94.231 72.167 C 94.104 72.167,94.000 72.279,94.000 72.417 C 94.000 72.583,93.833 72.667,93.500 72.667 C 93.167 72.667,93.000 72.750,93.000 72.917 C 93.000 73.054,92.888 73.167,92.750 73.167 C 92.612 73.167,92.500 73.279,92.500 73.417 C 92.500 73.584,92.333 73.667,91.995 73.667 C 91.699 73.667,91.450 73.771,91.394 73.917 C 91.328 74.086,91.063 74.167,90.566 74.167 C 90.026 74.167,89.833 74.232,89.833 74.417 C 89.833 74.631,89.343 74.667,86.417 74.667 C 83.491 74.667,83.000 74.631,83.000 74.417 C 83.000 74.231,82.806 74.167,82.250 74.167 C 81.694 74.167,81.500 74.102,81.500 73.917 C 81.500 73.752,81.335 73.667,81.018 73.667 C 80.743 73.667,80.494 73.559,80.440 73.417 C 80.387 73.279,80.162 73.167,79.940 73.167 C 79.717 73.167,79.492 73.054,79.440 72.917 C 79.387 72.779,79.229 72.667,79.089 72.667 C 78.948 72.667,78.833 72.554,78.833 72.417 C 78.833 72.279,78.721 72.167,78.583 72.167 C 78.446 72.167,78.333 72.090,78.333 71.996 C 78.333 71.902,78.145 71.753,77.915 71.666 C 77.684 71.578,77.410 71.318,77.305 71.087 C 77.199 70.856,77.050 70.667,76.973 70.667 C 76.896 70.667,76.833 70.552,76.833 70.411 C 76.833 70.271,76.721 70.113,76.583 70.060 C 76.446 70.008,76.333 69.860,76.333 69.732 C 76.333 69.604,76.221 69.500,76.083 69.500 C 75.946 69.500,75.833 69.355,75.833 69.179 C 75.833 69.002,75.725 68.748,75.592 68.615 C 75.459 68.482,75.300 68.177,75.240 67.937 C 75.180 67.697,75.026 67.500,74.899 67.500 C 74.745 67.500,74.667 67.304,74.667 66.917 C 74.667 66.509,74.591 66.333,74.417 66.333 C 74.225 66.333,74.167 66.120,74.167 65.411 C 74.167 64.746,74.097 64.463,73.917 64.394 C 73.774 64.339,73.667 64.090,73.667 63.816 L 73.667 63.333 94.178 63.333 C 107.998 63.333,114.794 63.277,115.011 63.161 C 115.436 62.933,115.494 60.351,115.083 59.940 C 114.879 59.736,114.833 59.126,114.833 56.613 C 114.833 54.031,114.793 53.520,114.583 53.440 C 114.394 53.367,114.333 53.059,114.333 52.160 C 114.333 51.330,114.259 50.901,114.083 50.726 C 113.925 50.568,113.833 50.157,113.833 49.603 C 113.833 49.094,113.731 48.596,113.589 48.407 C 113.454 48.229,113.342 47.800,113.339 47.453 C 113.335 47.050,113.243 46.788,113.083 46.727 C 112.931 46.668,112.833 46.416,112.833 46.079 C 112.833 45.362,112.688 45.000,112.399 45.000 C 112.239 45.000,112.167 44.791,112.167 44.328 C 112.167 43.885,112.082 43.624,111.917 43.560 C 111.774 43.506,111.667 43.257,111.667 42.982 C 111.667 42.665,111.581 42.500,111.417 42.500 C 111.249 42.500,111.167 42.333,111.167 41.995 C 111.167 41.699,111.063 41.450,110.917 41.394 C 110.779 41.341,110.667 41.116,110.667 40.894 C 110.667 40.671,110.554 40.446,110.417 40.394 C 110.279 40.341,110.167 40.201,110.167 40.083 C 110.167 39.965,110.054 39.826,109.917 39.773 C 109.779 39.720,109.667 39.487,109.667 39.255 C 109.667 39.023,109.573 38.830,109.458 38.827 C 109.344 38.823,109.069 38.448,108.847 37.994 C 108.626 37.539,108.345 37.167,108.222 37.167 C 108.100 37.167,108.000 37.054,108.000 36.917 C 108.000 36.779,107.888 36.667,107.750 36.667 C 107.612 36.667,107.500 36.554,107.500 36.417 C 107.500 36.279,107.396 36.167,107.268 36.167 C 107.141 36.167,106.989 35.979,106.932 35.750 C 106.874 35.521,106.753 35.333,106.663 35.333 C 106.574 35.333,106.500 35.248,106.500 35.144 C 106.500 34.968,105.741 34.167,105.575 34.167 C 105.507 34.167,105.321 34.009,104.486 33.242 C 104.341 33.109,104.135 33.000,104.028 33.000 C 103.921 33.000,103.833 32.887,103.833 32.750 C 103.833 32.612,103.721 32.500,103.583 32.500 C 103.446 32.500,103.333 32.387,103.333 32.250 C 103.333 32.112,103.229 32.000,103.101 32.000 C 102.973 32.000,102.826 31.887,102.773 31.750 C 102.720 31.613,102.487 31.500,102.255 31.500 C 101.991 31.500,101.833 31.406,101.833 31.250 C 101.833 31.113,101.718 31.000,101.578 31.000 C 101.438 31.000,101.280 30.887,101.227 30.750 C 101.174 30.613,100.949 30.500,100.727 30.500 C 100.505 30.500,100.280 30.387,100.227 30.250 C 100.172 30.107,99.924 30.000,99.649 30.000 C 99.331 30.000,99.167 29.915,99.167 29.750 C 99.167 29.613,99.028 29.500,98.859 29.500 C 98.690 29.500,98.378 29.350,98.167 29.167 C 97.955 28.983,97.578 28.833,97.328 28.833 C 97.078 28.833,96.781 28.721,96.667 28.583 C 96.547 28.439,96.183 28.333,95.808 28.333 C 95.382 28.333,95.123 28.247,95.060 28.083 C 94.996 27.915,94.731 27.833,94.250 27.833 C 93.769 27.833,93.504 27.752,93.440 27.583 C 93.365 27.388,93.031 27.333,91.917 27.333 C 90.802 27.333,90.469 27.279,90.394 27.083 C 90.311 26.869,89.572 26.833,85.149 26.833 C 80.683 26.833,80.000 26.867,80.000 27.083 M258.667 27.083 C 258.667 27.288,258.380 27.333,257.083 27.333 C 255.787 27.333,255.500 27.379,255.500 27.583 C 255.500 27.778,255.277 27.833,254.495 27.833 C 253.755 27.833,253.464 27.899,253.394 28.083 C 253.328 28.253,253.063 28.333,252.566 28.333 C 252.026 28.333,251.833 28.399,251.833 28.583 C 251.833 28.769,251.639 28.833,251.083 28.833 C 250.554 28.833,250.333 28.902,250.333 29.065 C 250.333 29.196,250.088 29.342,249.766 29.403 C 249.454 29.461,249.156 29.620,249.105 29.755 C 249.046 29.907,248.786 30.000,248.417 30.000 C 248.059 30.000,247.787 30.094,247.733 30.235 C 247.683 30.364,247.460 30.516,247.238 30.571 C 247.015 30.627,246.833 30.747,246.833 30.837 C 246.833 30.926,246.683 31.000,246.500 31.000 C 246.315 31.000,246.167 31.111,246.167 31.250 C 246.167 31.417,245.999 31.500,245.661 31.500 C 245.366 31.500,245.116 31.604,245.060 31.750 C 245.008 31.887,244.860 32.000,244.732 32.000 C 244.604 32.000,244.500 32.112,244.500 32.250 C 244.500 32.387,244.356 32.500,244.181 32.500 C 243.825 32.500,242.500 33.657,242.500 33.968 C 242.500 34.077,242.387 34.167,242.250 34.167 C 242.112 34.167,242.000 34.279,242.000 34.417 C 242.000 34.554,241.887 34.667,241.750 34.667 C 241.612 34.667,241.331 34.820,241.125 35.009 C 240.208 35.844,239.834 36.265,239.834 36.458 C 239.833 36.573,239.721 36.667,239.583 36.667 C 239.446 36.667,239.333 36.779,239.333 36.917 C 239.333 37.054,239.221 37.167,239.083 37.167 C 238.946 37.167,238.833 37.271,238.833 37.399 C 238.833 37.527,238.721 37.674,238.583 37.727 C 238.446 37.780,238.333 37.938,238.333 38.078 C 238.333 38.218,238.221 38.333,238.083 38.333 C 237.917 38.333,237.833 38.500,237.833 38.833 C 237.833 39.121,237.745 39.335,237.625 39.336 C 237.297 39.341,236.667 40.094,236.667 40.482 C 236.667 40.683,236.560 40.833,236.417 40.833 C 236.279 40.833,236.167 40.951,236.167 41.095 C 236.167 41.239,236.054 41.470,235.917 41.607 C 235.779 41.745,235.667 42.002,235.667 42.179 C 235.667 42.355,235.554 42.500,235.417 42.500 C 235.252 42.500,235.167 42.665,235.167 42.982 C 235.167 43.257,235.059 43.506,234.917 43.560 C 234.759 43.621,234.667 43.876,234.667 44.250 C 234.667 44.624,234.574 44.879,234.417 44.940 C 234.262 44.999,234.167 45.252,234.167 45.601 C 234.167 45.993,234.090 46.167,233.917 46.167 C 233.731 46.167,233.667 46.361,233.667 46.917 C 233.667 47.444,233.598 47.667,233.436 47.667 C 233.171 47.667,233.008 48.161,232.997 49.000 C 232.993 49.321,232.879 49.729,232.745 49.907 C 232.579 50.126,232.500 50.643,232.500 51.514 C 232.500 52.501,232.442 52.820,232.250 52.894 C 232.036 52.976,232.000 53.679,232.000 57.810 C 232.000 61.942,232.036 62.645,232.250 62.727 C 232.443 62.801,232.500 63.124,232.500 64.150 C 232.500 65.042,232.574 65.550,232.725 65.701 C 232.849 65.825,232.989 66.328,233.036 66.819 C 233.093 67.404,233.216 67.764,233.394 67.864 C 233.583 67.970,233.667 68.245,233.667 68.758 C 233.667 69.306,233.732 69.500,233.917 69.500 C 234.082 69.500,234.167 69.665,234.167 69.988 C 234.167 70.257,234.279 70.589,234.417 70.726 C 234.554 70.864,234.667 71.207,234.667 71.488 C 234.667 71.832,234.749 72.000,234.917 72.000 C 235.084 72.000,235.167 72.167,235.167 72.505 C 235.167 72.801,235.271 73.050,235.417 73.106 C 235.554 73.159,235.667 73.384,235.667 73.606 C 235.667 73.829,235.779 74.054,235.917 74.106 C 236.054 74.159,236.167 74.307,236.167 74.434 C 236.167 74.562,236.279 74.667,236.417 74.667 C 236.583 74.667,236.667 74.833,236.667 75.167 C 236.667 75.481,236.752 75.667,236.897 75.667 C 237.024 75.667,237.167 75.817,237.215 76.000 C 237.263 76.183,237.422 76.333,237.568 76.333 C 237.752 76.333,237.833 76.487,237.833 76.833 C 237.833 77.167,237.917 77.333,238.083 77.333 C 238.221 77.333,238.333 77.446,238.333 77.583 C 238.333 77.721,238.446 77.833,238.583 77.833 C 238.721 77.833,238.833 77.946,238.833 78.083 C 238.833 78.221,238.946 78.333,239.083 78.333 C 239.221 78.333,239.333 78.446,239.333 78.583 C 239.333 78.721,239.446 78.833,239.583 78.833 C 239.721 78.833,239.833 78.972,239.833 79.142 C 239.833 79.520,240.489 80.254,240.959 80.404 C 241.148 80.464,241.345 80.622,241.396 80.756 C 241.447 80.890,241.604 81.000,241.745 81.000 C 241.885 81.000,242.000 81.112,242.000 81.250 C 242.000 81.387,242.112 81.500,242.250 81.500 C 242.387 81.500,242.500 81.612,242.500 81.750 C 242.500 81.887,242.612 82.000,242.750 82.000 C 242.887 82.000,243.000 82.112,243.000 82.250 C 243.000 82.387,243.112 82.500,243.250 82.500 C 243.387 82.500,243.500 82.612,243.500 82.750 C 243.500 82.917,243.667 83.000,244.000 83.000 C 244.333 83.000,244.500 83.083,244.500 83.250 C 244.500 83.387,244.604 83.500,244.732 83.500 C 244.860 83.500,245.008 83.613,245.060 83.750 C 245.116 83.896,245.366 84.000,245.661 84.000 C 246.056 84.000,246.167 84.073,246.167 84.333 C 246.167 84.519,246.278 84.667,246.417 84.667 C 246.554 84.667,246.667 84.736,246.667 84.820 C 246.667 84.904,246.885 85.022,247.153 85.080 C 247.420 85.139,247.680 85.295,247.731 85.427 C 247.781 85.559,248.004 85.667,248.224 85.667 C 248.445 85.667,248.719 85.779,248.833 85.917 C 248.947 86.054,249.200 86.169,249.395 86.172 C 249.590 86.175,249.896 86.287,250.074 86.422 C 250.251 86.557,250.608 86.667,250.865 86.667 C 251.170 86.667,251.333 86.754,251.333 86.917 C 251.333 87.101,251.526 87.167,252.066 87.167 C 252.563 87.167,252.828 87.247,252.894 87.417 C 252.964 87.600,253.253 87.667,253.977 87.667 C 254.701 87.667,254.990 87.733,255.060 87.917 C 255.136 88.113,255.477 88.167,256.661 88.167 C 257.554 88.167,258.167 88.235,258.167 88.333 C 258.167 88.441,259.972 88.500,263.250 88.500 C 266.528 88.500,268.333 88.441,268.333 88.333 C 268.333 88.236,268.889 88.167,269.667 88.167 C 270.741 88.167,271.000 88.118,271.000 87.917 C 271.000 87.720,271.231 87.667,272.083 87.667 C 272.935 87.667,273.167 87.613,273.167 87.417 C 273.167 87.231,273.361 87.167,273.917 87.167 C 274.472 87.167,274.667 87.102,274.667 86.917 C 274.667 86.731,274.862 86.667,275.422 86.667 C 275.939 86.667,276.207 86.588,276.273 86.417 C 276.328 86.274,276.576 86.167,276.851 86.167 C 277.169 86.167,277.333 86.081,277.333 85.917 C 277.333 85.750,277.500 85.667,277.833 85.667 C 278.167 85.667,278.333 85.583,278.333 85.417 C 278.333 85.261,278.491 85.167,278.750 85.167 C 278.979 85.167,279.317 85.035,279.500 84.875 C 279.683 84.715,279.983 84.452,280.167 84.292 C 280.350 84.131,280.612 84.000,280.750 84.000 C 280.887 84.000,281.000 83.887,281.000 83.750 C 281.000 83.594,281.158 83.500,281.422 83.500 C 281.654 83.500,281.887 83.387,281.940 83.250 C 281.992 83.112,282.140 83.000,282.268 83.000 C 282.396 83.000,282.500 82.887,282.500 82.750 C 282.500 82.612,282.612 82.500,282.750 82.500 C 282.887 82.500,283.000 82.387,283.000 82.250 C 283.000 82.112,283.139 82.000,283.308 82.000 C 283.477 82.000,283.796 81.845,284.016 81.655 C 285.226 80.611,285.667 80.173,285.667 80.012 C 285.667 79.914,285.779 79.833,285.917 79.833 C 286.054 79.833,286.167 79.721,286.167 79.583 C 286.167 79.446,286.279 79.333,286.417 79.333 C 286.554 79.333,286.667 79.230,286.667 79.104 C 286.667 78.977,286.779 78.781,286.917 78.667 C 287.054 78.553,287.167 78.318,287.167 78.146 C 287.167 77.944,287.285 77.833,287.500 77.833 C 287.683 77.833,287.833 77.756,287.833 77.661 C 287.833 77.566,288.058 77.269,288.333 77.000 C 288.629 76.711,288.833 76.338,288.833 76.089 C 288.833 75.825,288.927 75.667,289.083 75.667 C 289.221 75.667,289.333 75.554,289.333 75.417 C 289.333 75.279,289.446 75.167,289.583 75.167 C 289.750 75.167,289.833 75.000,289.833 74.667 C 289.833 74.333,289.917 74.167,290.083 74.167 C 290.250 74.167,290.333 74.000,290.333 73.667 C 290.333 73.333,290.417 73.167,290.583 73.167 C 290.748 73.167,290.833 73.002,290.833 72.684 C 290.833 72.410,290.941 72.161,291.083 72.106 C 291.226 72.051,291.333 71.803,291.333 71.525 C 291.333 71.179,291.430 71.014,291.667 70.952 C 291.906 70.889,292.000 70.724,292.000 70.369 C 292.000 70.097,292.112 69.781,292.250 69.667 C 292.387 69.553,292.500 69.238,292.500 68.968 C 292.500 68.697,292.612 68.364,292.750 68.226 C 292.903 68.073,293.000 67.665,293.000 67.173 C 293.000 66.612,293.076 66.340,293.250 66.273 C 293.442 66.200,293.500 65.884,293.500 64.922 C 293.500 63.917,293.550 63.667,293.750 63.667 C 293.968 63.667,294.000 62.898,294.000 57.750 C 294.000 52.602,293.968 51.833,293.750 51.833 C 293.550 51.833,293.500 51.584,293.500 50.592 C 293.500 49.719,293.432 49.310,293.273 49.217 C 293.145 49.142,293.009 48.690,292.962 48.191 C 292.916 47.700,292.805 47.250,292.715 47.191 C 292.625 47.132,292.504 46.784,292.446 46.418 C 292.389 46.052,292.264 45.727,292.171 45.696 C 292.077 45.664,292.000 45.501,292.000 45.333 C 292.000 44.849,291.818 44.500,291.566 44.500 C 291.419 44.500,291.333 44.316,291.333 44.000 C 291.333 43.667,291.250 43.500,291.083 43.500 C 290.917 43.500,290.833 43.333,290.833 43.000 C 290.833 42.667,290.750 42.500,290.583 42.500 C 290.409 42.500,290.333 42.324,290.333 41.917 C 290.333 41.509,290.258 41.333,290.083 41.333 C 289.927 41.333,289.833 41.175,289.833 40.911 C 289.833 40.679,289.721 40.446,289.583 40.394 C 289.446 40.341,289.333 40.193,289.333 40.066 C 289.333 39.938,289.221 39.833,289.083 39.833 C 288.927 39.833,288.833 39.675,288.833 39.411 C 288.833 39.179,288.721 38.946,288.583 38.894 C 288.446 38.841,288.333 38.693,288.333 38.566 C 288.333 38.438,288.221 38.333,288.083 38.333 C 287.946 38.333,287.833 38.214,287.833 38.068 C 287.833 37.922,287.683 37.763,287.500 37.715 C 287.313 37.666,287.167 37.488,287.167 37.309 C 287.167 37.133,287.054 36.946,286.917 36.894 C 286.779 36.841,286.667 36.691,286.667 36.560 C 286.667 36.430,286.554 36.280,286.417 36.227 C 286.279 36.174,286.167 36.027,286.167 35.899 C 286.167 35.771,286.054 35.667,285.917 35.667 C 285.779 35.667,285.667 35.554,285.667 35.417 C 285.667 35.279,285.589 35.167,285.494 35.167 C 285.400 35.167,285.102 34.942,284.833 34.667 C 284.565 34.392,284.305 34.167,284.256 34.167 C 284.207 34.167,284.017 34.017,283.833 33.833 C 283.650 33.650,283.387 33.500,283.250 33.500 C 283.112 33.500,283.000 33.387,283.000 33.250 C 283.000 33.112,282.887 33.000,282.750 33.000 C 282.612 33.000,282.500 32.904,282.500 32.787 C 282.500 32.670,282.163 32.427,281.752 32.246 C 281.340 32.065,281.002 31.823,281.002 31.708 C 281.001 31.594,280.810 31.500,280.578 31.500 C 280.346 31.500,280.113 31.387,280.060 31.250 C 280.008 31.113,279.822 31.000,279.649 31.000 C 279.475 31.000,279.333 30.887,279.333 30.750 C 279.333 30.583,279.167 30.500,278.833 30.500 C 278.500 30.500,278.333 30.417,278.333 30.250 C 278.333 30.085,278.169 30.000,277.851 30.000 C 277.576 30.000,277.328 29.893,277.273 29.750 C 277.220 29.613,277.044 29.500,276.880 29.499 C 276.717 29.498,276.358 29.349,276.083 29.167 C 275.808 28.985,275.396 28.833,275.167 28.829 C 274.938 28.826,274.604 28.713,274.426 28.578 C 274.249 28.443,273.911 28.331,273.676 28.328 C 273.442 28.325,273.104 28.213,272.926 28.078 C 272.749 27.943,272.261 27.831,271.843 27.828 C 271.425 27.825,270.938 27.713,270.760 27.578 C 270.533 27.406,270.003 27.333,268.986 27.333 C 267.851 27.333,267.515 27.279,267.440 27.083 C 267.358 26.870,266.708 26.833,263.005 26.833 C 259.260 26.833,258.667 26.868,258.667 27.083 M327.894 27.083 C 327.823 27.266,327.535 27.333,326.816 27.333 C 326.054 27.333,325.833 27.389,325.833 27.583 C 325.833 27.769,325.638 27.833,325.078 27.833 C 324.561 27.833,324.293 27.912,324.227 28.083 C 324.173 28.224,323.925 28.333,323.661 28.333 C 323.402 28.333,323.078 28.446,322.940 28.583 C 322.803 28.721,322.610 28.833,322.512 28.833 C 322.414 28.833,322.183 28.983,322.000 29.167 C 321.817 29.350,321.554 29.500,321.417 29.500 C 321.279 29.500,321.167 29.613,321.167 29.750 C 321.167 29.917,321.000 30.000,320.667 30.000 C 320.333 30.000,320.167 30.083,320.167 30.250 C 320.167 30.389,320.019 30.500,319.833 30.500 C 319.648 30.500,319.500 30.611,319.500 30.750 C 319.500 30.887,319.387 31.000,319.250 31.000 C 319.112 31.000,319.000 31.113,319.000 31.250 C 319.000 31.387,318.887 31.500,318.750 31.500 C 318.612 31.500,318.500 31.613,318.500 31.750 C 318.500 31.887,318.425 32.000,318.333 32.000 C 318.117 32.000,317.500 32.617,317.500 32.833 C 317.500 32.925,317.387 33.000,317.250 33.000 C 317.112 33.000,317.000 33.107,317.000 33.239 C 317.000 33.370,316.850 33.525,316.667 33.583 C 316.483 33.642,316.333 33.797,316.333 33.928 C 316.333 34.059,316.221 34.167,316.083 34.167 C 315.946 34.167,315.833 34.279,315.833 34.417 C 315.833 34.554,315.721 34.667,315.583 34.667 C 315.446 34.667,315.333 34.807,315.333 34.980 C 315.333 35.152,315.221 35.386,315.083 35.500 C 314.862 35.683,314.833 35.279,314.833 32.020 L 314.833 28.333 306.000 28.333 L 297.167 28.333 297.167 57.500 L 297.167 86.667 306.500 86.667 L 315.833 86.667 315.833 68.745 C 315.833 52.968,315.863 50.811,316.083 50.727 C 316.253 50.662,316.333 50.396,316.333 49.899 C 316.333 49.359,316.399 49.167,316.583 49.167 C 316.721 49.167,316.833 49.081,316.833 48.977 C 316.833 48.676,317.561 47.264,317.792 47.117 C 317.906 47.043,318.000 46.843,318.000 46.670 C 318.000 46.498,318.112 46.245,318.250 46.107 C 318.387 45.970,318.500 45.777,318.500 45.679 C 318.500 45.580,318.612 45.500,318.750 45.500 C 318.887 45.500,319.000 45.387,319.000 45.250 C 319.000 45.112,319.112 45.000,319.250 45.000 C 319.387 45.000,319.500 44.887,319.500 44.750 C 319.500 44.612,319.580 44.500,319.679 44.500 C 319.777 44.500,319.970 44.387,320.107 44.250 C 320.245 44.112,320.494 44.000,320.661 44.000 C 320.828 44.000,321.008 43.887,321.060 43.750 C 321.113 43.612,321.348 43.500,321.583 43.500 C 321.818 43.500,322.054 43.387,322.106 43.250 C 322.169 43.087,322.429 43.000,322.856 43.000 C 323.284 43.000,323.544 42.913,323.606 42.750 C 323.684 42.547,324.084 42.500,325.750 42.500 C 327.416 42.500,327.816 42.547,327.894 42.750 C 327.959 42.921,328.227 43.000,328.745 43.000 C 329.305 43.000,329.500 43.065,329.500 43.250 C 329.500 43.417,329.667 43.500,330.000 43.500 C 330.333 43.500,330.500 43.583,330.500 43.750 C 330.500 43.887,330.612 44.000,330.750 44.000 C 330.887 44.000,331.000 44.112,331.000 44.250 C 331.000 44.387,331.075 44.500,331.167 44.500 C 331.383 44.500,332.000 45.117,332.000 45.333 C 332.000 45.425,332.112 45.500,332.250 45.500 C 332.387 45.500,332.500 45.612,332.500 45.750 C 332.500 45.887,332.604 46.000,332.731 46.000 C 332.864 46.000,333.010 46.249,333.072 46.583 C 333.138 46.933,333.279 47.167,333.424 47.167 C 333.591 47.167,333.667 47.351,333.667 47.755 C 333.667 48.125,333.760 48.380,333.917 48.440 C 334.108 48.513,334.167 48.827,334.167 49.773 C 334.167 50.719,334.226 51.033,334.417 51.106 C 334.637 51.191,334.667 53.326,334.667 68.934 L 334.667 86.667 343.750 86.667 L 352.833 86.667 352.833 65.083 C 352.833 46.009,352.804 43.500,352.583 43.500 C 352.387 43.500,352.333 43.270,352.333 42.434 C 352.333 41.641,352.269 41.344,352.083 41.273 C 351.907 41.205,351.833 40.930,351.833 40.333 C 351.833 39.737,351.760 39.461,351.583 39.394 C 351.441 39.339,351.333 39.090,351.333 38.816 C 351.333 38.498,351.248 38.333,351.083 38.333 C 350.916 38.333,350.833 38.166,350.833 37.828 C 350.833 37.533,350.729 37.283,350.583 37.227 C 350.446 37.174,350.333 36.945,350.333 36.717 C 350.333 36.442,350.221 36.273,350.000 36.215 C 349.764 36.153,349.667 35.988,349.667 35.647 C 349.667 35.331,349.581 35.167,349.417 35.167 C 349.279 35.167,349.167 35.054,349.167 34.917 C 349.167 34.779,349.054 34.667,348.917 34.667 C 348.760 34.667,348.667 34.509,348.667 34.245 C 348.667 34.013,348.554 33.780,348.417 33.727 C 348.279 33.674,348.167 33.524,348.167 33.394 C 348.167 33.263,348.054 33.113,347.917 33.060 C 347.779 33.008,347.667 32.860,347.667 32.732 C 347.667 32.604,347.554 32.500,347.417 32.500 C 347.279 32.500,347.167 32.387,347.167 32.250 C 347.167 32.112,347.089 32.000,346.994 32.000 C 346.900 32.000,346.602 31.775,346.333 31.500 C 346.065 31.225,345.775 31.000,345.690 31.000 C 345.605 31.000,345.492 30.887,345.440 30.750 C 345.387 30.613,345.154 30.500,344.922 30.500 C 344.658 30.500,344.500 30.406,344.500 30.250 C 344.500 30.113,344.387 30.000,344.250 30.000 C 344.113 30.000,344.000 29.887,344.000 29.750 C 344.000 29.611,343.852 29.500,343.665 29.500 C 343.481 29.500,343.202 29.350,343.045 29.167 C 342.888 28.983,342.586 28.833,342.374 28.833 C 342.163 28.833,341.946 28.721,341.894 28.583 C 341.840 28.444,341.592 28.333,341.333 28.333 C 341.074 28.333,340.827 28.223,340.773 28.083 C 340.710 27.920,340.451 27.833,340.023 27.833 C 339.595 27.833,339.336 27.747,339.273 27.583 C 339.203 27.402,338.913 27.332,338.214 27.328 C 337.632 27.325,337.122 27.226,336.926 27.078 C 336.440 26.710,328.035 26.715,327.894 27.083 M0.333 29.415 C 0.333 30.268,0.387 30.500,0.583 30.500 C 0.769 30.500,0.833 30.694,0.833 31.250 C 0.833 31.806,0.898 32.000,1.083 32.000 C 1.269 32.000,1.333 32.194,1.333 32.750 C 1.333 33.306,1.398 33.500,1.583 33.500 C 1.769 33.500,1.833 33.695,1.833 34.255 C 1.833 34.773,1.912 35.041,2.083 35.106 C 2.247 35.169,2.333 35.429,2.333 35.856 C 2.333 36.284,2.420 36.544,2.583 36.606 C 2.721 36.659,2.833 36.905,2.833 37.153 C 2.833 37.400,2.943 37.749,3.078 37.926 C 3.213 38.104,3.325 38.447,3.328 38.688 C 3.331 38.929,3.446 39.219,3.583 39.333 C 3.721 39.447,3.833 39.713,3.833 39.923 C 3.833 40.479,4.002 40.833,4.268 40.833 C 4.432 40.833,4.500 41.054,4.500 41.589 C 4.500 42.106,4.579 42.374,4.750 42.440 C 4.920 42.505,5.000 42.771,5.000 43.268 C 5.000 43.808,5.066 44.000,5.250 44.000 C 5.435 44.000,5.500 44.194,5.500 44.750 C 5.500 45.306,5.565 45.500,5.750 45.500 C 5.934 45.500,6.000 45.692,6.000 46.232 C 6.000 46.729,6.080 46.995,6.250 47.060 C 6.405 47.120,6.500 47.373,6.500 47.724 C 6.500 48.037,6.613 48.386,6.750 48.500 C 6.888 48.614,7.000 48.918,7.000 49.175 C 7.000 49.432,7.113 49.755,7.250 49.893 C 7.388 50.030,7.500 50.376,7.500 50.660 C 7.500 50.966,7.602 51.216,7.750 51.273 C 7.890 51.327,8.000 51.575,8.000 51.838 C 8.000 52.475,8.156 52.833,8.434 52.833 C 8.599 52.833,8.667 53.053,8.667 53.583 C 8.667 54.139,8.731 54.333,8.917 54.333 C 9.102 54.333,9.167 54.528,9.167 55.089 C 9.167 55.606,9.245 55.874,9.417 55.940 C 9.586 56.005,9.667 56.271,9.667 56.768 C 9.667 57.308,9.732 57.500,9.917 57.500 C 10.098 57.500,10.167 57.686,10.167 58.172 C 10.167 58.615,10.252 58.876,10.417 58.940 C 10.569 58.998,10.667 59.251,10.667 59.589 C 10.667 59.894,10.779 60.255,10.917 60.393 C 11.054 60.530,11.167 60.864,11.167 61.134 C 11.167 61.405,11.279 61.719,11.417 61.833 C 11.554 61.947,11.667 62.296,11.667 62.609 C 11.667 62.960,11.762 63.214,11.917 63.273 C 12.057 63.327,12.167 63.575,12.167 63.838 C 12.167 64.475,12.323 64.833,12.601 64.833 C 12.765 64.833,12.833 65.053,12.833 65.583 C 12.833 66.139,12.898 66.333,13.083 66.333 C 13.268 66.333,13.333 66.526,13.333 67.066 C 13.333 67.563,13.414 67.828,13.583 67.894 C 13.749 67.957,13.833 68.219,13.833 68.667 C 13.833 69.115,13.918 69.376,14.083 69.440 C 14.247 69.502,14.333 69.762,14.333 70.190 C 14.333 70.617,14.420 70.877,14.583 70.940 C 14.736 70.998,14.833 71.251,14.833 71.589 C 14.833 71.894,14.946 72.255,15.083 72.393 C 15.221 72.530,15.333 72.865,15.333 73.137 C 15.333 73.422,15.439 73.672,15.583 73.727 C 15.748 73.790,15.833 74.051,15.833 74.495 C 15.833 74.981,15.902 75.167,16.083 75.167 C 16.244 75.167,16.334 75.330,16.336 75.625 C 16.339 76.339,16.517 76.833,16.769 76.833 C 16.932 76.833,17.000 77.056,17.000 77.583 C 17.000 78.139,17.065 78.333,17.250 78.333 C 17.435 78.333,17.500 78.528,17.500 79.083 C 17.500 79.639,17.565 79.833,17.750 79.833 C 17.935 79.833,18.000 80.028,18.000 80.589 C 18.000 81.106,18.079 81.374,18.250 81.440 C 18.403 81.498,18.500 81.751,18.500 82.089 C 18.500 82.394,18.613 82.755,18.750 82.893 C 18.888 83.030,19.000 83.321,19.000 83.540 C 19.000 83.758,19.110 84.082,19.245 84.260 C 19.379 84.438,19.492 84.827,19.495 85.125 C 19.498 85.493,19.580 85.667,19.750 85.667 C 19.917 85.667,20.000 85.833,20.000 86.167 L 20.000 86.667 29.917 86.667 L 39.833 86.667 39.833 86.184 C 39.833 85.910,39.941 85.661,40.083 85.606 C 40.255 85.541,40.333 85.273,40.333 84.755 C 40.333 84.195,40.398 84.000,40.583 84.000 C 40.769 84.000,40.833 83.806,40.833 83.250 C 40.833 82.694,40.898 82.500,41.083 82.500 C 41.268 82.500,41.333 82.308,41.333 81.769 C 41.333 81.179,41.397 81.022,41.667 80.952 C 41.939 80.880,42.000 80.724,42.000 80.099 C 42.000 79.530,42.064 79.333,42.250 79.333 C 42.423 79.333,42.500 79.160,42.500 78.770 C 42.500 78.461,42.612 78.114,42.750 78.000 C 42.887 77.886,43.000 77.547,43.000 77.247 C 43.000 76.917,43.098 76.665,43.250 76.606 C 43.413 76.544,43.500 76.284,43.500 75.856 C 43.500 75.429,43.587 75.169,43.750 75.106 C 43.915 75.043,44.000 74.782,44.000 74.339 C 44.000 73.852,44.069 73.667,44.250 73.667 C 44.435 73.667,44.500 73.472,44.500 72.911 C 44.500 72.394,44.579 72.126,44.750 72.060 C 44.920 71.995,45.000 71.729,45.000 71.232 C 45.000 70.692,45.066 70.500,45.250 70.500 C 45.434 70.500,45.500 70.308,45.500 69.769 C 45.500 69.179,45.564 69.022,45.833 68.952 C 46.099 68.882,46.167 68.724,46.167 68.177 C 46.167 67.720,46.250 67.457,46.417 67.394 C 46.554 67.341,46.669 67.099,46.672 66.857 C 46.675 66.615,46.787 66.271,46.922 66.093 C 47.057 65.915,47.167 65.568,47.167 65.322 C 47.167 65.076,47.279 64.781,47.417 64.667 C 47.560 64.548,47.667 64.184,47.667 63.813 C 47.667 63.350,47.737 63.167,47.917 63.167 C 48.102 63.167,48.167 62.972,48.167 62.417 C 48.167 61.861,48.231 61.667,48.417 61.667 C 48.602 61.667,48.667 61.472,48.667 60.917 C 48.667 60.361,48.731 60.167,48.917 60.167 C 49.106 60.167,49.167 59.963,49.167 59.333 C 49.167 58.704,49.228 58.500,49.417 58.500 C 49.601 58.500,49.667 58.308,49.667 57.769 C 49.667 57.179,49.731 57.022,50.000 56.952 C 50.253 56.886,50.333 56.724,50.333 56.286 C 50.333 55.968,50.446 55.614,50.583 55.500 C 50.721 55.386,50.836 55.095,50.839 54.855 C 50.842 54.614,50.954 54.271,51.089 54.093 C 51.223 53.915,51.333 53.567,51.333 53.319 C 51.333 53.072,51.446 52.826,51.583 52.773 C 51.749 52.710,51.833 52.448,51.833 52.000 C 51.833 51.552,51.918 51.290,52.083 51.227 C 52.253 51.162,52.333 50.896,52.333 50.399 C 52.333 49.859,52.399 49.667,52.583 49.667 C 52.769 49.667,52.833 49.472,52.833 48.917 C 52.833 48.361,52.898 48.167,53.083 48.167 C 53.268 48.167,53.333 47.974,53.333 47.434 C 53.333 46.937,53.414 46.672,53.583 46.606 C 53.753 46.541,53.833 46.275,53.833 45.775 C 53.833 45.179,53.897 45.022,54.167 44.952 C 54.400 44.891,54.502 44.722,54.505 44.391 C 54.508 44.130,54.621 43.771,54.755 43.593 C 54.890 43.415,55.000 43.091,55.000 42.873 C 55.000 42.655,55.113 42.364,55.250 42.226 C 55.387 42.089,55.500 41.727,55.500 41.423 C 55.500 41.084,55.597 40.832,55.750 40.773 C 55.913 40.710,56.000 40.451,56.000 40.023 C 56.000 39.595,56.087 39.336,56.250 39.273 C 56.421 39.207,56.500 38.939,56.500 38.422 C 56.500 37.862,56.565 37.667,56.750 37.667 C 56.935 37.667,57.000 37.472,57.000 36.917 C 57.000 36.361,57.065 36.167,57.250 36.167 C 57.435 36.167,57.500 35.972,57.500 35.417 C 57.500 34.861,57.565 34.667,57.750 34.667 C 57.930 34.667,58.000 34.482,58.000 34.001 C 58.000 33.517,58.090 33.280,58.333 33.128 C 58.539 32.999,58.667 32.739,58.667 32.448 C 58.667 32.189,58.779 31.864,58.917 31.726 C 59.054 31.589,59.167 31.227,59.167 30.923 C 59.167 30.584,59.264 30.332,59.417 30.273 C 59.597 30.204,59.667 29.921,59.667 29.254 L 59.667 28.331 50.292 28.374 L 40.917 28.417 40.865 29.134 C 40.834 29.566,40.718 29.888,40.573 29.944 C 40.415 30.004,40.333 30.284,40.333 30.768 C 40.333 31.308,40.268 31.500,40.083 31.500 C 39.894 31.500,39.833 31.704,39.833 32.333 C 39.833 32.963,39.772 33.167,39.583 33.167 C 39.399 33.167,39.333 33.359,39.333 33.896 C 39.333 34.341,39.236 34.707,39.083 34.833 C 38.924 34.966,38.833 35.334,38.833 35.854 C 38.833 36.465,38.771 36.667,38.583 36.667 C 38.394 36.667,38.333 36.870,38.333 37.500 C 38.333 38.130,38.272 38.333,38.083 38.333 C 37.901 38.333,37.833 38.521,37.833 39.023 C 37.833 39.464,37.737 39.784,37.566 39.908 C 37.412 40.021,37.261 40.451,37.210 40.927 C 37.160 41.380,37.018 41.810,36.893 41.883 C 36.756 41.964,36.667 42.310,36.667 42.758 C 36.667 43.306,36.601 43.500,36.417 43.500 C 36.232 43.500,36.167 43.692,36.167 44.232 C 36.167 44.729,36.086 44.995,35.917 45.060 C 35.747 45.125,35.667 45.392,35.667 45.891 C 35.667 46.341,35.570 46.706,35.417 46.833 C 35.257 46.966,35.167 47.334,35.167 47.854 C 35.167 48.465,35.105 48.667,34.917 48.667 C 34.728 48.667,34.667 48.870,34.667 49.500 C 34.667 50.130,34.606 50.333,34.417 50.333 C 34.232 50.333,34.167 50.526,34.167 51.066 C 34.167 51.563,34.086 51.828,33.917 51.894 C 33.736 51.963,33.667 52.246,33.667 52.911 C 33.667 53.588,33.605 53.833,33.434 53.833 C 33.146 53.833,33.000 54.195,33.000 54.912 C 33.000 55.249,32.903 55.502,32.750 55.560 C 32.587 55.623,32.500 55.883,32.500 56.310 C 32.500 56.738,32.413 56.998,32.250 57.060 C 32.083 57.124,31.998 57.393,31.995 57.870 C 31.992 58.262,31.879 58.729,31.745 58.907 C 31.610 59.085,31.500 59.554,31.500 59.949 C 31.500 60.476,31.434 60.667,31.250 60.667 C 31.066 60.667,31.000 60.859,31.000 61.399 C 31.000 61.896,30.920 62.162,30.750 62.227 C 30.580 62.292,30.500 62.559,30.500 63.060 C 30.500 63.562,30.420 63.828,30.250 63.894 C 30.058 63.967,30.000 63.859,30.000 63.429 C 30.000 63.085,29.904 62.832,29.750 62.773 C 29.587 62.711,29.500 62.452,29.500 62.031 C 29.500 61.597,29.391 61.286,29.167 61.083 C 28.921 60.861,28.833 60.570,28.833 59.974 C 28.833 59.368,28.771 59.167,28.583 59.167 C 28.394 59.167,28.333 58.963,28.333 58.333 C 28.333 57.704,28.272 57.500,28.083 57.500 C 27.898 57.500,27.833 57.306,27.833 56.750 C 27.833 56.194,27.769 56.000,27.583 56.000 C 27.395 56.000,27.333 55.798,27.333 55.179 C 27.333 54.671,27.238 54.262,27.083 54.107 C 26.942 53.966,26.833 53.559,26.833 53.173 C 26.833 52.719,26.749 52.457,26.583 52.394 C 26.414 52.328,26.333 52.063,26.333 51.566 C 26.333 51.026,26.268 50.833,26.083 50.833 C 25.899 50.833,25.833 50.641,25.833 50.104 C 25.833 49.659,25.736 49.293,25.583 49.167 C 25.446 49.053,25.332 48.725,25.331 48.438 C 25.328 47.665,25.158 47.167,24.897 47.167 C 24.735 47.167,24.667 46.943,24.667 46.411 C 24.667 45.894,24.588 45.626,24.417 45.560 C 24.247 45.495,24.167 45.229,24.167 44.732 C 24.167 44.192,24.101 44.000,23.917 44.000 C 23.725 44.000,23.667 43.786,23.667 43.078 C 23.667 42.412,23.597 42.130,23.417 42.060 C 23.247 41.995,23.167 41.729,23.167 41.227 C 23.167 40.725,23.087 40.459,22.917 40.394 C 22.747 40.328,22.667 40.063,22.667 39.566 C 22.667 39.026,22.601 38.833,22.417 38.833 C 22.233 38.833,22.167 38.641,22.167 38.104 C 22.167 37.688,22.068 37.292,21.938 37.184 C 21.812 37.079,21.671 36.605,21.625 36.129 C 21.580 35.653,21.458 35.236,21.354 35.201 C 21.251 35.167,21.167 34.926,21.167 34.666 C 21.167 34.025,21.011 33.667,20.732 33.667 C 20.565 33.667,20.500 33.435,20.500 32.833 C 20.500 32.204,20.439 32.000,20.250 32.000 C 20.058 32.000,20.000 31.788,20.000 31.092 C 20.000 30.477,19.923 30.140,19.762 30.050 C 19.625 29.973,19.500 29.596,19.470 29.167 L 19.417 28.417 9.875 28.374 L 0.333 28.331 0.333 29.415 M118.500 57.500 L 118.500 86.667 127.583 86.667 L 136.667 86.667 136.667 73.101 C 136.667 61.197,136.697 59.524,136.917 59.440 C 137.119 59.362,137.167 58.977,137.167 57.422 C 137.167 55.722,137.205 55.461,137.500 55.167 C 137.732 54.935,137.833 54.611,137.833 54.101 C 137.833 53.604,137.914 53.338,138.083 53.273 C 138.226 53.218,138.333 52.970,138.333 52.692 C 138.333 52.426,138.446 52.114,138.583 52.000 C 138.721 51.886,138.833 51.612,138.833 51.391 C 138.833 51.170,138.946 50.946,139.083 50.894 C 139.221 50.841,139.333 50.656,139.333 50.482 C 139.333 50.309,139.446 50.167,139.583 50.167 C 139.750 50.167,139.833 50.000,139.833 49.667 C 139.833 49.333,139.917 49.167,140.083 49.167 C 140.221 49.167,140.333 49.054,140.333 48.917 C 140.333 48.779,140.446 48.667,140.583 48.667 C 140.721 48.667,140.833 48.554,140.833 48.417 C 140.833 48.279,140.946 48.167,141.083 48.167 C 141.221 48.167,141.333 48.054,141.333 47.917 C 141.333 47.779,141.448 47.667,141.589 47.667 C 141.729 47.667,141.887 47.554,141.940 47.417 C 141.992 47.279,142.143 47.167,142.275 47.167 C 142.613 47.167,143.500 46.480,143.500 46.219 C 143.500 46.087,143.699 46.000,144.000 46.000 C 144.333 46.000,144.500 45.917,144.500 45.750 C 144.500 45.565,144.694 45.500,145.250 45.500 C 145.806 45.500,146.000 45.435,146.000 45.250 C 146.000 45.055,146.223 45.000,147.005 45.000 C 147.745 45.000,148.036 44.934,148.106 44.750 C 148.188 44.538,148.762 44.500,151.853 44.500 L 155.503 44.500 155.460 36.458 L 155.417 28.417 151.042 28.372 C 147.223 28.333,146.667 28.360,146.667 28.581 C 146.667 28.769,146.475 28.833,145.911 28.833 C 145.411 28.833,145.125 28.914,145.065 29.071 C 145.015 29.202,144.675 29.359,144.309 29.421 C 143.943 29.483,143.603 29.638,143.554 29.767 C 143.505 29.895,143.369 30.000,143.253 30.000 C 143.136 30.000,142.947 30.113,142.833 30.250 C 142.719 30.387,142.485 30.500,142.313 30.500 C 142.141 30.500,142.000 30.613,142.000 30.750 C 142.000 30.887,141.858 31.000,141.684 31.000 C 141.511 31.000,141.326 31.113,141.273 31.250 C 141.220 31.387,141.051 31.500,140.897 31.500 C 140.604 31.500,138.833 33.220,138.833 33.504 C 138.833 33.593,138.721 33.667,138.583 33.667 C 138.446 33.667,138.333 33.807,138.333 33.980 C 138.333 34.152,138.221 34.386,138.083 34.500 C 137.946 34.614,137.833 34.811,137.833 34.937 C 137.833 35.063,137.750 35.167,137.648 35.167 C 137.317 35.167,136.672 35.907,136.670 36.292 C 136.668 36.513,136.564 36.667,136.417 36.667 C 136.201 36.667,136.167 36.093,136.167 32.500 L 136.167 28.333 127.333 28.333 L 118.500 28.333 118.500 57.500 M159.278 28.444 C 159.217 28.506,159.167 41.631,159.167 57.611 L 159.167 86.667 168.500 86.667 L 177.833 86.667 177.833 57.500 L 177.833 28.333 168.611 28.333 C 163.539 28.333,159.339 28.383,159.278 28.444 M182.040 35.875 L 182.083 43.417 195.119 43.459 C 206.603 43.497,208.144 43.532,208.060 43.751 C 208.007 43.888,207.860 44.000,207.732 44.000 C 207.604 44.000,207.500 44.112,207.500 44.250 C 207.500 44.387,207.387 44.500,207.250 44.500 C 207.112 44.500,207.000 44.612,207.000 44.750 C 207.000 44.887,206.887 45.000,206.750 45.000 C 206.612 45.000,206.500 45.104,206.500 45.232 C 206.500 45.360,206.387 45.508,206.250 45.560 C 206.112 45.613,206.000 45.771,206.000 45.911 C 206.000 46.052,205.887 46.167,205.750 46.167 C 205.612 46.167,205.500 46.279,205.500 46.417 C 205.500 46.554,205.387 46.667,205.250 46.667 C 205.112 46.667,205.000 46.771,205.000 46.899 C 205.000 47.027,204.887 47.174,204.750 47.227 C 204.612 47.280,204.498 47.419,204.495 47.536 C 204.488 47.809,203.739 48.667,203.508 48.667 C 203.412 48.667,203.333 48.779,203.333 48.917 C 203.333 49.054,203.221 49.167,203.083 49.167 C 202.946 49.167,202.833 49.279,202.833 49.417 C 202.833 49.554,202.721 49.667,202.583 49.667 C 202.446 49.667,202.333 49.771,202.333 49.899 C 202.333 50.027,202.221 50.174,202.083 50.227 C 201.946 50.280,201.833 50.438,201.833 50.578 C 201.833 50.718,201.721 50.833,201.583 50.833 C 201.446 50.833,201.333 50.946,201.333 51.083 C 201.333 51.221,201.221 51.333,201.083 51.333 C 200.946 51.333,200.833 51.446,200.833 51.583 C 200.833 51.721,200.721 51.833,200.583 51.833 C 200.446 51.833,200.333 51.948,200.333 52.089 C 200.333 52.229,200.228 52.384,200.098 52.434 C 199.969 52.484,199.818 52.706,199.762 52.929 C 199.706 53.151,199.549 53.333,199.413 53.333 C 199.278 53.333,199.167 53.446,199.167 53.583 C 199.167 53.721,199.054 53.833,198.917 53.833 C 198.779 53.833,198.667 53.938,198.667 54.066 C 198.667 54.193,198.554 54.341,198.417 54.394 C 198.279 54.446,198.167 54.604,198.167 54.745 C 198.167 54.885,198.054 55.000,197.917 55.000 C 197.779 55.000,197.667 55.112,197.667 55.250 C 197.667 55.387,197.554 55.500,197.417 55.500 C 197.279 55.500,197.167 55.612,197.167 55.750 C 197.167 55.887,197.054 56.000,196.917 56.000 C 196.779 56.000,196.667 56.112,196.667 56.250 C 196.667 56.387,196.554 56.500,196.417 56.500 C 196.279 56.500,196.167 56.571,196.167 56.657 C 196.167 56.744,195.905 57.100,195.584 57.449 C 195.264 57.798,195.001 58.169,195.001 58.274 C 195.000 58.379,194.887 58.508,194.750 58.560 C 194.612 58.613,194.500 58.771,194.500 58.911 C 194.500 59.052,194.387 59.167,194.250 59.167 C 194.112 59.167,194.000 59.279,194.000 59.417 C 194.000 59.554,193.887 59.667,193.750 59.667 C 193.612 59.667,193.500 59.779,193.500 59.917 C 193.500 60.054,193.387 60.167,193.250 60.167 C 193.112 60.167,193.000 60.279,193.000 60.417 C 193.000 60.554,192.887 60.667,192.750 60.667 C 192.612 60.667,192.500 60.779,192.500 60.917 C 192.500 61.054,192.387 61.167,192.250 61.167 C 192.112 61.167,192.000 61.279,192.000 61.417 C 192.000 61.554,191.887 61.667,191.750 61.667 C 191.612 61.667,191.498 61.760,191.495 61.875 C 191.493 61.990,191.266 62.304,190.990 62.575 C 190.715 62.845,190.447 63.238,190.394 63.450 C 190.341 63.661,190.193 63.833,190.065 63.833 C 189.938 63.833,189.833 63.946,189.833 64.083 C 189.833 64.221,189.721 64.333,189.583 64.333 C 189.446 64.333,189.333 64.446,189.333 64.583 C 189.333 64.721,189.221 64.833,189.083 64.833 C 188.946 64.833,188.833 64.946,188.833 65.083 C 188.833 65.221,188.721 65.333,188.583 65.333 C 188.446 65.333,188.333 65.446,188.333 65.583 C 188.333 65.721,188.221 65.833,188.083 65.833 C 187.946 65.833,187.833 65.946,187.833 66.083 C 187.833 66.221,187.721 66.333,187.583 66.333 C 187.446 66.333,187.333 66.429,187.333 66.546 C 187.333 66.663,187.127 66.945,186.874 67.171 C 186.621 67.398,186.323 67.790,186.211 68.042 C 186.099 68.294,185.931 68.500,185.837 68.500 C 185.743 68.500,185.667 68.612,185.667 68.750 C 185.667 68.887,185.554 69.000,185.417 69.000 C 185.279 69.000,185.167 69.112,185.167 69.250 C 185.167 69.387,185.054 69.500,184.917 69.500 C 184.779 69.500,184.667 69.612,184.667 69.750 C 184.667 69.887,184.554 70.000,184.417 70.000 C 184.279 70.000,184.167 70.112,184.167 70.250 C 184.167 70.387,184.054 70.500,183.917 70.500 C 183.779 70.500,183.667 70.579,183.667 70.676 C 183.667 70.773,183.292 71.212,182.833 71.651 L 182.000 72.450 182.000 79.558 L 182.000 86.667 207.000 86.667 L 232.000 86.667 232.000 79.417 L 232.000 72.167 218.432 72.167 C 204.947 72.167,204.865 72.165,204.952 71.833 C 205.000 71.650,205.143 71.500,205.269 71.500 C 205.396 71.500,205.500 71.387,205.500 71.250 C 205.500 71.112,205.612 71.000,205.750 71.000 C 205.887 71.000,206.000 70.887,206.000 70.750 C 206.000 70.612,206.112 70.500,206.250 70.500 C 206.387 70.500,206.500 70.387,206.500 70.250 C 206.500 70.112,206.612 70.000,206.750 70.000 C 206.887 70.000,207.000 69.887,207.000 69.750 C 207.000 69.612,207.112 69.500,207.250 69.500 C 207.387 69.500,207.500 69.385,207.500 69.245 C 207.500 69.104,207.612 68.946,207.750 68.894 C 207.887 68.841,208.000 68.658,208.000 68.488 C 208.000 68.318,208.150 68.098,208.333 68.000 C 208.517 67.902,208.667 67.712,208.667 67.577 C 208.667 67.443,208.779 67.333,208.917 67.333 C 209.054 67.333,209.167 67.221,209.167 67.083 C 209.167 66.946,209.279 66.833,209.417 66.833 C 209.554 66.833,209.667 66.721,209.667 66.583 C 209.667 66.446,209.779 66.333,209.917 66.333 C 210.054 66.333,210.167 66.221,210.167 66.083 C 210.167 65.946,210.279 65.833,210.417 65.833 C 210.554 65.833,210.667 65.721,210.667 65.583 C 210.667 65.446,210.779 65.333,210.917 65.333 C 211.054 65.333,211.167 65.221,211.167 65.083 C 211.167 64.946,211.279 64.833,211.417 64.833 C 211.554 64.833,211.667 64.718,211.667 64.578 C 211.667 64.438,211.779 64.280,211.917 64.227 C 212.054 64.174,212.167 64.064,212.167 63.982 C 212.167 63.900,212.317 63.683,212.500 63.500 C 212.683 63.317,212.833 63.054,212.833 62.917 C 212.833 62.779,212.946 62.667,213.083 62.667 C 213.221 62.667,213.333 62.554,213.333 62.417 C 213.333 62.279,213.446 62.167,213.583 62.167 C 213.721 62.167,213.833 62.054,213.833 61.917 C 213.833 61.779,213.946 61.667,214.083 61.667 C 214.221 61.667,214.333 61.554,214.333 61.417 C 214.333 61.279,214.446 61.167,214.583 61.167 C 214.721 61.167,214.833 61.054,214.833 60.917 C 214.833 60.779,214.946 60.667,215.083 60.667 C 215.221 60.667,215.333 60.554,215.333 60.417 C 215.333 60.279,215.446 60.167,215.583 60.167 C 215.721 60.167,215.833 60.052,215.833 59.911 C 215.833 59.771,215.946 59.613,216.083 59.560 C 216.221 59.508,216.333 59.360,216.333 59.232 C 216.333 59.104,216.446 59.000,216.583 59.000 C 216.721 59.000,216.833 58.887,216.833 58.750 C 216.833 58.612,216.983 58.350,217.167 58.167 C 217.350 57.983,217.500 57.758,217.500 57.667 C 217.500 57.575,217.612 57.500,217.750 57.500 C 217.887 57.500,218.000 57.387,218.000 57.250 C 218.000 57.112,218.112 57.000,218.250 57.000 C 218.387 57.000,218.500 56.887,218.500 56.750 C 218.500 56.612,218.612 56.500,218.750 56.500 C 218.887 56.500,219.000 56.387,219.000 56.250 C 219.000 56.112,219.112 56.000,219.250 56.000 C 219.387 56.000,219.500 55.922,219.500 55.828 C 219.500 55.733,219.725 55.435,220.000 55.167 C 220.275 54.898,220.500 54.600,220.500 54.506 C 220.500 54.411,220.612 54.333,220.750 54.333 C 220.887 54.333,221.000 54.258,221.000 54.167 C 221.000 54.075,221.150 53.850,221.333 53.667 C 221.517 53.483,221.667 53.221,221.667 53.083 C 221.667 52.946,221.779 52.833,221.917 52.833 C 222.054 52.833,222.167 52.721,222.167 52.583 C 222.167 52.446,222.279 52.333,222.417 52.333 C 222.554 52.333,222.667 52.221,222.667 52.083 C 222.667 51.946,222.779 51.833,222.917 51.833 C 223.054 51.833,223.167 51.721,223.167 51.583 C 223.167 51.446,223.279 51.333,223.417 51.333 C 223.554 51.333,223.667 51.229,223.667 51.101 C 223.667 50.973,223.779 50.826,223.917 50.773 C 224.054 50.720,224.167 50.562,224.167 50.422 C 224.167 50.282,224.279 50.167,224.417 50.167 C 224.554 50.167,224.667 50.054,224.667 49.917 C 224.667 49.779,224.779 49.667,224.917 49.667 C 225.054 49.667,225.167 49.592,225.167 49.500 C 225.167 49.408,225.317 49.165,225.500 48.958 C 226.215 48.154,226.333 47.994,226.333 47.833 C 226.333 47.742,226.446 47.667,226.583 47.667 C 226.721 47.667,226.833 47.554,226.833 47.417 C 226.833 47.279,226.946 47.167,227.083 47.167 C 227.221 47.167,227.333 47.062,227.333 46.934 C 227.333 46.807,227.446 46.659,227.583 46.606 C 227.721 46.554,227.833 46.396,227.833 46.255 C 227.833 46.115,227.946 46.000,228.083 46.000 C 228.221 46.000,228.333 45.887,228.333 45.750 C 228.333 45.612,228.446 45.500,228.583 45.500 C 228.721 45.500,228.833 45.387,228.833 45.250 C 228.833 45.112,228.946 45.000,229.083 45.000 C 229.221 45.000,229.333 44.887,229.333 44.750 C 229.333 44.612,229.446 44.500,229.583 44.500 C 229.721 44.500,229.833 44.404,229.833 44.287 C 229.833 44.170,229.983 43.946,230.167 43.789 C 230.350 43.632,230.500 43.390,230.500 43.252 C 230.500 43.113,230.612 43.000,230.750 43.000 C 230.968 43.000,231.000 42.074,231.000 35.667 L 231.000 28.333 206.498 28.333 L 181.997 28.333 182.040 35.875 M87.833 40.583 C 87.833 40.769,88.028 40.833,88.583 40.833 C 89.139 40.833,89.333 40.898,89.333 41.083 C 89.333 41.250,89.500 41.333,89.833 41.333 C 90.167 41.333,90.333 41.417,90.333 41.583 C 90.333 41.748,90.498 41.833,90.814 41.833 C 91.154 41.833,91.320 41.931,91.382 42.167 C 91.430 42.350,91.588 42.500,91.734 42.500 C 91.880 42.500,92.000 42.612,92.000 42.750 C 92.000 42.887,92.112 43.000,92.250 43.000 C 92.388 43.000,92.500 43.112,92.500 43.250 C 92.500 43.387,92.612 43.500,92.750 43.500 C 92.888 43.500,93.000 43.612,93.000 43.750 C 93.000 43.887,93.112 44.000,93.250 44.000 C 93.388 44.000,93.500 44.112,93.500 44.250 C 93.500 44.387,93.612 44.500,93.750 44.500 C 93.917 44.500,94.000 44.667,94.000 45.000 C 94.000 45.333,94.083 45.500,94.250 45.500 C 94.388 45.500,94.500 45.645,94.500 45.821 C 94.500 45.998,94.612 46.255,94.750 46.393 C 94.888 46.530,95.000 46.838,95.000 47.077 C 95.000 47.315,95.112 47.554,95.250 47.606 C 95.388 47.659,95.501 47.863,95.502 48.059 C 95.506 48.679,95.697 49.167,95.936 49.167 C 96.102 49.167,96.167 49.402,96.167 50.000 L 96.167 50.833 84.917 50.833 C 78.574 50.833,73.667 50.770,73.667 50.687 C 73.667 50.607,73.779 50.447,73.917 50.333 C 74.069 50.207,74.167 49.841,74.167 49.396 C 74.167 48.859,74.233 48.667,74.417 48.667 C 74.601 48.667,74.667 48.474,74.667 47.936 C 74.667 47.346,74.731 47.189,75.000 47.118 C 75.243 47.055,75.333 46.891,75.333 46.516 C 75.333 46.168,75.415 46.000,75.583 46.000 C 75.721 46.000,75.833 45.920,75.833 45.821 C 75.833 45.723,75.946 45.530,76.083 45.393 C 76.221 45.255,76.333 44.998,76.333 44.821 C 76.333 44.645,76.446 44.500,76.583 44.500 C 76.721 44.500,76.833 44.387,76.833 44.250 C 76.833 44.112,76.946 44.000,77.083 44.000 C 77.221 44.000,77.333 43.887,77.333 43.750 C 77.333 43.612,77.446 43.500,77.583 43.500 C 77.721 43.500,77.833 43.387,77.833 43.250 C 77.833 43.112,77.946 43.000,78.083 43.000 C 78.221 43.000,78.333 42.887,78.333 42.750 C 78.333 42.612,78.446 42.500,78.583 42.500 C 78.722 42.500,78.833 42.352,78.833 42.167 C 78.833 41.897,78.944 41.833,79.417 41.833 C 79.824 41.833,80.000 41.758,80.000 41.583 C 80.000 41.417,80.167 41.333,80.500 41.333 C 80.833 41.333,81.000 41.250,81.000 41.083 C 81.000 40.895,81.201 40.833,81.813 40.833 C 82.332 40.833,82.701 40.743,82.833 40.583 C 83.000 40.382,83.510 40.333,85.437 40.333 C 87.456 40.333,87.833 40.373,87.833 40.583 M265.394 41.083 C 265.459 41.255,265.727 41.333,266.245 41.333 C 266.805 41.333,267.000 41.398,267.000 41.583 C 267.000 41.750,267.167 41.833,267.500 41.833 C 267.775 41.833,268.145 41.965,268.321 42.125 C 268.938 42.685,269.161 42.839,269.579 42.998 C 269.811 43.086,270.000 43.235,270.000 43.329 C 270.000 43.423,270.104 43.500,270.232 43.500 C 270.360 43.500,270.508 43.612,270.560 43.750 C 270.613 43.887,270.771 44.000,270.911 44.000 C 271.052 44.000,271.167 44.112,271.167 44.250 C 271.167 44.387,271.279 44.500,271.417 44.500 C 271.573 44.500,271.667 44.658,271.667 44.922 C 271.667 45.154,271.779 45.387,271.917 45.440 C 272.054 45.492,272.167 45.640,272.167 45.768 C 272.167 45.896,272.279 46.000,272.417 46.000 C 272.573 46.000,272.667 46.158,272.667 46.422 C 272.667 46.654,272.779 46.887,272.917 46.940 C 273.054 46.992,273.167 47.172,273.167 47.339 C 273.167 47.506,273.279 47.755,273.417 47.893 C 273.554 48.030,273.667 48.373,273.667 48.655 C 273.667 48.999,273.749 49.167,273.917 49.167 C 274.101 49.167,274.167 49.359,274.167 49.899 C 274.167 50.396,274.247 50.662,274.417 50.727 C 274.587 50.792,274.667 51.058,274.667 51.557 C 274.667 52.623,274.842 53.333,275.104 53.333 C 275.485 53.333,275.439 62.425,275.057 62.638 C 274.867 62.745,274.756 63.094,274.700 63.765 C 274.656 64.300,274.518 64.840,274.393 64.964 C 274.269 65.089,274.167 65.450,274.167 65.767 C 274.167 66.126,274.072 66.380,273.917 66.440 C 273.747 66.505,273.667 66.771,273.667 67.268 C 273.667 67.808,273.601 68.000,273.417 68.000 C 273.260 68.000,273.167 68.158,273.167 68.422 C 273.167 68.654,273.054 68.887,272.917 68.940 C 272.779 68.992,272.667 69.140,272.667 69.268 C 272.667 69.396,272.554 69.500,272.417 69.500 C 272.250 69.500,272.167 69.667,272.167 70.000 C 272.167 70.333,272.083 70.500,271.917 70.500 C 271.779 70.500,271.667 70.612,271.667 70.750 C 271.667 70.887,271.554 71.000,271.417 71.000 C 271.278 71.000,271.167 71.148,271.167 71.333 C 271.167 71.522,271.056 71.667,270.911 71.667 C 270.771 71.667,270.613 71.779,270.560 71.917 C 270.508 72.054,270.360 72.167,270.232 72.167 C 270.104 72.167,270.000 72.279,270.000 72.417 C 270.000 72.569,269.845 72.667,269.601 72.667 C 269.382 72.667,269.159 72.779,269.106 72.917 C 269.054 73.054,268.896 73.167,268.755 73.167 C 268.615 73.167,268.500 73.279,268.500 73.417 C 268.500 73.583,268.333 73.667,268.000 73.667 C 267.667 73.667,267.500 73.750,267.500 73.917 C 267.500 74.102,267.305 74.167,266.745 74.167 C 266.227 74.167,265.959 74.245,265.894 74.417 C 265.814 74.625,265.331 74.667,262.982 74.667 C 260.591 74.667,260.167 74.629,260.167 74.417 C 260.167 74.232,259.974 74.167,259.434 74.167 C 258.937 74.167,258.672 74.086,258.606 73.917 C 258.550 73.771,258.301 73.667,258.005 73.667 C 257.667 73.667,257.500 73.584,257.500 73.417 C 257.500 73.260,257.342 73.167,257.078 73.167 C 256.846 73.167,256.613 73.054,256.560 72.917 C 256.508 72.779,256.360 72.667,256.232 72.667 C 256.104 72.667,256.000 72.554,256.000 72.417 C 256.000 72.279,255.887 72.167,255.750 72.167 C 255.612 72.167,255.500 72.054,255.500 71.917 C 255.500 71.779,255.387 71.667,255.250 71.667 C 255.112 71.667,254.999 71.573,254.997 71.458 C 254.994 71.204,254.274 70.500,254.018 70.500 C 253.917 70.500,253.833 70.275,253.833 70.000 C 253.833 69.684,253.748 69.500,253.601 69.500 C 253.474 69.500,253.322 69.313,253.265 69.083 C 253.207 68.854,253.087 68.667,252.997 68.667 C 252.907 68.667,252.833 68.485,252.833 68.262 C 252.833 68.039,252.721 67.745,252.583 67.607 C 252.446 67.470,252.333 67.162,252.333 66.923 C 252.333 66.685,252.221 66.446,252.083 66.394 C 251.914 66.328,251.833 66.063,251.833 65.566 C 251.833 65.026,251.768 64.833,251.583 64.833 C 251.383 64.833,251.333 64.583,251.333 63.578 C 251.333 62.616,251.275 62.300,251.083 62.227 C 250.870 62.145,250.833 61.490,250.833 57.750 C 250.833 54.010,250.870 53.355,251.083 53.273 C 251.272 53.201,251.333 52.895,251.333 52.023 C 251.333 51.151,251.394 50.846,251.583 50.773 C 251.755 50.707,251.833 50.439,251.833 49.922 C 251.833 49.362,251.898 49.167,252.083 49.167 C 252.256 49.167,252.333 48.993,252.333 48.604 C 252.333 48.294,252.446 47.947,252.583 47.833 C 252.721 47.719,252.833 47.445,252.833 47.224 C 252.833 47.004,252.946 46.780,253.083 46.727 C 253.221 46.674,253.333 46.489,253.333 46.316 C 253.333 46.142,253.446 46.000,253.583 46.000 C 253.750 46.000,253.833 45.833,253.833 45.500 C 253.833 45.111,253.907 45.000,254.167 45.000 C 254.352 45.000,254.500 44.889,254.500 44.750 C 254.500 44.612,254.612 44.500,254.750 44.500 C 254.887 44.500,255.000 44.387,255.000 44.250 C 255.000 44.112,255.112 44.000,255.250 44.000 C 255.387 44.000,255.500 43.887,255.500 43.750 C 255.500 43.612,255.612 43.500,255.750 43.500 C 255.887 43.500,256.001 43.406,256.002 43.292 C 256.002 43.177,256.340 42.935,256.752 42.754 C 257.234 42.542,257.500 42.320,257.500 42.129 C 257.500 41.904,257.635 41.833,258.066 41.833 C 258.414 41.833,258.668 41.738,258.727 41.583 C 258.794 41.408,259.068 41.333,259.644 41.333 C 260.219 41.333,260.493 41.259,260.560 41.083 C 260.639 40.878,261.068 40.833,262.977 40.833 C 264.886 40.833,265.315 40.878,265.394 41.083 " stroke="none" fill="#040404" fill-rule="evenodd"></path><path id="path2" d="M390.333 0.417 C 390.333 0.676,390.239 0.833,390.083 0.833 C 389.919 0.833,389.833 0.998,389.833 1.313 C 389.833 1.577,389.721 1.886,389.583 2.000 C 389.446 2.114,389.333 2.351,389.333 2.526 C 389.333 2.701,389.237 2.881,389.118 2.926 C 388.848 3.030,388.779 3.712,389.049 3.623 C 389.157 3.587,389.317 3.301,389.404 2.987 C 389.491 2.673,389.610 2.379,389.668 2.333 C 390.029 2.047,390.769 0.000,390.511 0.000 C 390.413 0.000,390.333 0.188,390.333 0.417 M399.667 1.417 C 399.667 1.554,399.742 1.667,399.833 1.667 C 399.925 1.667,400.000 1.554,400.000 1.417 C 400.000 1.279,399.925 1.167,399.833 1.167 C 399.742 1.167,399.667 1.279,399.667 1.417 M399.500 2.056 C 399.500 2.208,399.425 2.333,399.333 2.333 C 399.242 2.333,399.167 2.446,399.167 2.583 C 399.167 2.721,399.234 2.833,399.315 2.833 C 399.489 2.833,399.726 2.004,399.591 1.869 C 399.541 1.819,399.500 1.903,399.500 2.056 M398.724 3.424 C 398.670 3.565,398.667 3.723,398.718 3.774 C 398.864 3.920,399.167 3.672,399.167 3.407 C 399.167 3.087,398.849 3.099,398.724 3.424 M388.444 4.111 C 388.383 4.172,388.333 4.403,388.333 4.623 C 388.333 4.979,388.361 4.996,388.583 4.774 C 388.721 4.636,388.833 4.406,388.833 4.262 C 388.833 3.991,388.639 3.916,388.444 4.111 M398.360 4.275 C 398.238 4.408,398.187 4.644,398.247 4.800 C 398.348 5.063,398.368 5.062,398.522 4.786 C 398.772 4.343,398.650 3.960,398.360 4.275 M397.847 5.388 C 397.717 5.633,397.662 5.884,397.725 5.947 C 397.920 6.142,398.198 5.724,398.139 5.324 C 398.084 4.947,398.081 4.948,397.847 5.388 M388.040 5.360 C 387.926 5.474,387.833 5.680,387.833 5.819 C 387.833 6.037,387.870 6.035,388.103 5.802 C 388.251 5.654,388.344 5.448,388.309 5.343 C 388.263 5.207,388.189 5.211,388.040 5.360 M397.363 6.511 C 397.243 6.706,397.188 6.910,397.241 6.963 C 397.402 7.124,397.702 6.723,397.641 6.429 C 397.593 6.200,397.548 6.213,397.363 6.511 M387.367 6.700 C 387.257 6.810,387.167 7.029,387.167 7.186 C 387.167 7.343,387.079 7.501,386.973 7.537 C 386.866 7.572,386.760 7.733,386.736 7.893 C 386.687 8.231,387.005 8.180,387.173 7.823 C 387.235 7.691,387.413 7.340,387.569 7.042 C 387.852 6.501,387.745 6.321,387.367 6.700 M397.019 7.355 C 397.009 7.504,396.887 7.719,396.750 7.833 C 396.613 7.947,396.500 8.172,396.500 8.333 C 396.500 8.494,396.387 8.719,396.250 8.833 C 396.113 8.947,396.000 9.172,396.000 9.333 C 396.000 9.494,395.884 9.722,395.742 9.840 C 395.601 9.957,395.520 10.145,395.563 10.256 C 395.606 10.368,395.553 10.552,395.445 10.666 C 395.307 10.812,395.356 10.808,395.614 10.653 C 395.815 10.532,395.941 10.373,395.896 10.300 C 395.851 10.227,395.893 10.167,395.990 10.167 C 396.087 10.167,396.169 9.998,396.172 9.792 C 396.175 9.585,396.287 9.271,396.422 9.093 C 396.557 8.915,396.667 8.623,396.667 8.445 C 396.667 8.266,396.787 8.032,396.935 7.924 C 397.088 7.812,397.168 7.589,397.121 7.406 C 397.060 7.167,397.034 7.154,397.019 7.355 M386.446 8.652 C 386.279 8.713,386.148 8.816,386.154 8.882 C 386.209 9.405,386.130 9.667,385.917 9.667 C 385.742 9.667,385.667 9.843,385.667 10.250 C 385.667 10.592,385.590 10.816,385.481 10.792 C 385.379 10.769,385.266 10.923,385.231 11.135 C 385.118 11.801,385.458 11.375,386.162 9.970 C 386.894 8.507,386.898 8.488,386.446 8.652 M395.111 11.111 C 394.921 11.301,394.989 11.667,395.215 11.667 C 395.333 11.667,395.440 11.517,395.454 11.333 C 395.479 11.001,395.322 10.900,395.111 11.111 M384.821 11.842 C 384.715 12.481,384.623 12.755,384.415 13.052 C 384.279 13.248,384.167 13.509,384.167 13.632 C 384.167 13.976,384.725 13.362,384.788 12.948 C 384.817 12.762,384.925 12.507,385.030 12.381 C 385.171 12.210,385.171 12.104,385.026 11.960 C 384.920 11.853,384.828 11.800,384.821 11.842 M394.700 12.200 C 394.428 12.472,394.449 12.667,394.750 12.667 C 394.889 12.667,395.000 12.519,395.000 12.333 C 395.000 11.945,394.969 11.931,394.700 12.200 M394.208 13.093 C 394.094 13.217,394.000 13.405,394.000 13.509 C 394.000 13.613,393.890 13.898,393.755 14.141 C 393.202 15.141,392.999 15.833,393.259 15.833 C 393.416 15.833,393.500 15.659,393.500 15.333 C 393.500 15.000,393.583 14.833,393.750 14.833 C 393.909 14.833,394.000 14.673,394.000 14.393 C 394.000 14.151,394.120 13.866,394.266 13.759 C 394.412 13.652,394.506 13.408,394.474 13.216 C 394.426 12.926,394.381 12.905,394.208 13.093 M383.712 14.667 C 383.726 14.850,383.757 15.000,383.780 15.000 C 383.803 15.000,383.902 14.850,384.000 14.667 C 384.141 14.403,384.127 14.333,383.933 14.333 C 383.790 14.333,383.698 14.473,383.712 14.667 M383.067 15.792 C 383.008 16.044,382.847 16.340,382.709 16.450 C 382.386 16.708,382.560 17.197,382.924 17.058 C 383.087 16.995,383.162 16.832,383.113 16.646 C 383.069 16.476,383.175 16.156,383.349 15.934 C 383.731 15.449,383.745 15.333,383.420 15.333 C 383.284 15.333,383.125 15.540,383.067 15.792 M392.625 16.514 C 392.465 16.796,392.333 17.162,392.333 17.326 C 392.333 17.491,392.221 17.719,392.083 17.833 C 391.946 17.947,391.833 18.219,391.833 18.437 C 391.833 18.686,391.736 18.833,391.571 18.833 C 391.415 18.833,391.331 18.947,391.363 19.113 C 391.449 19.560,391.727 19.460,391.910 18.917 C 392.003 18.642,392.128 18.379,392.189 18.333 C 392.249 18.287,392.383 17.937,392.486 17.555 C 392.588 17.172,392.754 16.832,392.853 16.799 C 392.952 16.766,393.007 16.573,392.975 16.370 C 392.920 16.025,392.898 16.034,392.625 16.514 M382.000 18.018 C 382.000 18.263,381.887 18.508,381.750 18.560 C 381.613 18.613,381.500 18.848,381.500 19.083 C 381.500 19.318,381.387 19.554,381.250 19.606 C 381.113 19.659,381.000 19.887,381.000 20.113 C 381.000 20.339,380.887 20.636,380.750 20.774 C 380.613 20.911,380.509 21.187,380.519 21.387 C 380.535 21.672,380.555 21.687,380.615 21.456 C 380.657 21.295,380.761 21.205,380.846 21.258 C 380.931 21.310,381.003 21.255,381.006 21.135 C 381.009 21.015,381.156 20.617,381.333 20.250 C 381.510 19.883,381.658 19.452,381.661 19.292 C 381.664 19.131,381.742 19.000,381.833 19.000 C 381.925 19.000,382.000 18.898,382.000 18.772 C 382.000 18.647,382.150 18.354,382.333 18.121 C 382.517 17.888,382.667 17.658,382.667 17.609 C 382.667 17.560,382.517 17.532,382.333 17.546 C 382.089 17.564,382.000 17.690,382.000 18.018 M391.040 19.998 C 390.773 20.425,390.780 20.500,391.083 20.500 C 391.239 20.500,391.333 20.343,391.333 20.083 C 391.333 19.580,391.306 19.572,391.040 19.998 M390.526 21.052 C 390.250 21.385,390.330 21.710,390.641 21.516 C 390.765 21.440,390.840 21.243,390.808 21.079 C 390.755 20.806,390.731 20.804,390.526 21.052 M389.891 22.257 C 389.837 22.399,389.834 22.556,389.885 22.607 C 390.031 22.753,390.333 22.506,390.333 22.240 C 390.333 21.920,390.015 21.933,389.891 22.257 M380.000 22.528 C 380.000 22.726,380.021 22.858,380.047 22.819 C 380.073 22.781,380.195 22.619,380.318 22.458 C 380.509 22.209,380.502 22.167,380.270 22.167 C 380.104 22.167,380.000 22.306,380.000 22.528 M389.530 23.177 C 389.409 23.373,389.354 23.576,389.408 23.630 C 389.569 23.791,389.869 23.389,389.807 23.095 C 389.759 22.867,389.714 22.880,389.530 23.177 M379.500 23.500 C 379.500 23.683,379.535 23.833,379.577 23.833 C 379.620 23.833,379.735 23.683,379.833 23.500 C 379.976 23.234,379.960 23.167,379.756 23.167 C 379.611 23.167,379.500 23.311,379.500 23.500 M388.926 24.370 C 388.783 24.574,388.667 24.865,388.667 25.017 C 388.667 25.168,388.554 25.386,388.417 25.500 C 388.279 25.614,388.167 25.877,388.167 26.083 C 388.167 26.290,388.054 26.553,387.917 26.667 C 387.779 26.781,387.667 27.006,387.667 27.167 C 387.667 27.328,387.554 27.553,387.417 27.667 C 387.141 27.896,387.078 28.333,387.321 28.333 C 387.406 28.333,387.672 27.902,387.912 27.375 C 388.152 26.848,388.457 26.218,388.591 25.974 C 388.724 25.731,388.833 25.337,388.833 25.099 C 388.833 24.826,388.925 24.667,389.083 24.667 C 389.222 24.667,389.333 24.519,389.333 24.333 C 389.333 23.905,389.246 23.913,388.926 24.370 M378.952 24.500 C 378.847 24.901,379.248 24.963,379.399 24.570 C 379.541 24.200,379.530 24.167,379.269 24.167 C 379.143 24.167,379.000 24.317,378.952 24.500 M378.634 25.307 C 378.349 25.596,378.453 26.082,378.754 25.866 C 378.901 25.762,379.095 24.986,378.969 25.010 C 378.940 25.015,378.790 25.149,378.634 25.307 M377.979 26.417 C 377.968 26.462,377.940 26.575,377.917 26.667 C 377.894 26.758,377.866 26.983,377.854 27.167 C 377.843 27.350,377.749 27.481,377.645 27.458 C 377.542 27.435,377.425 27.642,377.384 27.916 C 377.344 28.191,377.203 28.476,377.072 28.550 C 376.941 28.623,376.831 28.848,376.828 29.050 C 376.825 29.252,376.713 29.562,376.578 29.740 C 376.443 29.918,376.333 30.122,376.333 30.193 C 376.333 30.401,376.833 30.151,376.839 29.941 C 376.842 29.836,376.990 29.450,377.167 29.083 C 377.344 28.717,377.491 28.323,377.494 28.208 C 377.497 28.094,377.569 28.000,377.653 28.000 C 377.738 28.000,377.855 27.780,377.914 27.512 C 377.973 27.243,378.129 26.934,378.261 26.824 C 378.392 26.715,378.500 26.560,378.500 26.480 C 378.500 26.328,378.016 26.269,377.979 26.417 M351.833 29.066 C 351.833 29.563,351.914 29.828,352.083 29.894 C 352.229 29.950,352.333 30.199,352.333 30.495 C 352.333 30.822,352.417 31.000,352.572 31.000 C 352.709 31.000,352.834 31.196,352.864 31.457 C 352.899 31.758,353.031 31.935,353.250 31.976 C 353.569 32.036,353.571 32.025,353.292 31.715 C 353.131 31.536,353.000 31.274,353.000 31.132 C 353.000 30.990,352.887 30.781,352.750 30.667 C 352.613 30.553,352.497 30.337,352.494 30.188 C 352.491 30.039,352.385 29.730,352.259 29.503 C 352.103 29.221,352.080 28.995,352.188 28.794 C 352.428 28.344,361.225 28.342,361.487 28.792 C 361.638 29.052,361.657 29.043,361.662 28.708 L 361.667 28.333 356.750 28.333 L 351.833 28.333 351.833 29.066 M386.875 28.777 C 386.582 28.895,386.615 29.333,386.917 29.333 C 387.056 29.333,387.167 29.185,387.167 29.000 C 387.167 28.817,387.148 28.673,387.125 28.680 C 387.102 28.687,386.990 28.731,386.875 28.777 M361.667 29.434 C 361.667 29.483,361.779 29.636,361.917 29.774 C 362.133 29.991,362.167 29.991,362.167 29.780 C 362.167 29.645,362.054 29.492,361.917 29.440 C 361.779 29.387,361.667 29.384,361.667 29.434 M386.167 30.167 C 386.167 30.352,386.278 30.500,386.417 30.500 C 386.556 30.500,386.667 30.352,386.667 30.167 C 386.667 29.981,386.556 29.833,386.417 29.833 C 386.278 29.833,386.167 29.981,386.167 30.167 M362.167 30.319 C 362.167 30.432,362.279 30.636,362.417 30.774 C 362.554 30.911,362.667 31.159,362.667 31.325 C 362.667 31.490,362.779 31.719,362.917 31.833 C 363.054 31.947,363.169 32.163,363.172 32.312 C 363.175 32.461,363.287 32.729,363.422 32.907 C 363.557 33.085,363.667 33.358,363.667 33.513 C 363.667 33.669,363.814 33.973,363.994 34.190 L 364.322 34.583 364.328 34.125 C 364.331 33.826,364.246 33.667,364.083 33.667 C 363.931 33.667,363.833 33.512,363.833 33.270 C 363.833 33.052,363.721 32.781,363.583 32.667 C 363.446 32.553,363.333 32.324,363.333 32.158 C 363.333 31.993,363.221 31.745,363.083 31.607 C 362.946 31.470,362.833 31.213,362.833 31.038 C 362.833 30.862,362.683 30.583,362.500 30.417 C 362.290 30.226,362.167 30.190,362.167 30.319 M385.882 30.919 C 385.771 31.039,385.629 31.351,385.567 31.611 C 385.505 31.871,385.380 32.177,385.290 32.292 C 385.173 32.440,385.204 32.500,385.396 32.500 C 385.577 32.500,385.667 32.355,385.667 32.060 C 385.667 31.818,385.787 31.532,385.935 31.424 C 386.082 31.316,386.176 31.109,386.143 30.964 C 386.094 30.747,386.047 30.739,385.882 30.919 M375.833 31.361 C 375.833 31.560,375.855 31.691,375.880 31.653 C 375.906 31.615,376.028 31.452,376.151 31.292 C 376.342 31.042,376.335 31.000,376.104 31.000 C 375.938 31.000,375.833 31.139,375.833 31.361 M375.333 32.333 C 375.333 32.517,375.368 32.667,375.411 32.667 C 375.453 32.667,375.569 32.517,375.667 32.333 C 375.809 32.067,375.793 32.000,375.589 32.000 C 375.444 32.000,375.333 32.145,375.333 32.333 M353.505 32.870 C 353.502 33.028,353.645 33.414,353.822 33.729 C 353.998 34.044,354.098 34.346,354.044 34.401 C 353.989 34.455,354.069 34.500,354.222 34.500 C 354.599 34.500,354.573 34.117,354.171 33.754 C 353.989 33.590,353.875 33.402,353.915 33.336 C 353.956 33.270,353.882 33.073,353.750 32.900 C 353.535 32.615,353.510 32.612,353.505 32.870 M385.023 32.842 C 385.010 32.984,384.911 33.189,384.802 33.298 C 384.694 33.406,384.579 33.661,384.548 33.864 C 384.517 34.067,384.381 34.355,384.246 34.504 C 384.111 34.654,384.000 34.869,384.000 34.983 C 384.000 35.097,383.887 35.303,383.750 35.440 C 383.613 35.578,383.500 35.863,383.500 36.075 C 383.500 36.286,383.387 36.553,383.250 36.667 C 382.958 36.909,382.922 37.167,383.181 37.167 C 383.281 37.167,383.447 36.942,383.551 36.667 C 383.655 36.392,383.797 36.167,383.868 36.167 C 383.938 36.167,384.044 35.868,384.102 35.503 C 384.165 35.110,384.278 34.883,384.380 34.945 C 384.479 35.007,384.501 34.970,384.433 34.859 C 384.367 34.753,384.393 34.667,384.490 34.667 C 384.587 34.667,384.667 34.485,384.667 34.262 C 384.667 34.039,384.784 33.739,384.928 33.596 C 385.072 33.452,385.157 33.165,385.118 32.959 C 385.078 32.752,385.035 32.700,385.023 32.842 M374.842 33.318 C 374.745 33.498,374.667 33.765,374.667 33.911 C 374.667 34.057,374.554 34.220,374.417 34.273 C 374.164 34.370,374.060 34.836,374.292 34.831 C 374.483 34.827,374.864 34.559,374.848 34.440 C 374.783 33.959,374.872 33.667,375.083 33.667 C 375.221 33.667,375.333 33.559,375.333 33.427 C 375.333 33.033,375.030 32.966,374.842 33.318 M364.333 34.823 C 364.333 34.910,364.399 35.021,364.478 35.070 C 364.558 35.119,364.670 35.391,364.726 35.673 C 364.872 36.400,365.333 36.854,365.333 36.270 C 365.333 36.039,365.221 35.787,365.084 35.711 C 364.948 35.634,364.819 35.368,364.798 35.119 C 364.765 34.714,364.333 34.440,364.333 34.823 M354.500 35.230 C 354.500 35.507,354.591 35.667,354.750 35.667 C 354.887 35.667,355.000 35.563,355.000 35.437 C 355.000 35.311,354.887 35.114,354.750 35.000 C 354.539 34.825,354.500 34.860,354.500 35.230 M373.778 35.278 C 373.717 35.339,373.667 35.559,373.667 35.766 C 373.667 35.973,373.554 36.255,373.417 36.393 C 373.279 36.530,373.167 36.766,373.167 36.917 C 373.167 37.067,373.054 37.303,372.917 37.440 C 372.779 37.578,372.667 37.948,372.667 38.262 C 372.667 38.659,372.590 38.833,372.417 38.833 C 372.273 38.833,372.167 38.984,372.167 39.189 C 372.167 39.687,372.773 38.933,372.858 38.328 C 372.890 38.102,373.010 37.818,373.125 37.696 C 373.240 37.575,373.333 37.378,373.333 37.259 C 373.333 37.139,373.446 36.947,373.583 36.833 C 373.721 36.719,373.833 36.445,373.833 36.224 C 373.833 36.004,373.933 35.784,374.056 35.738 C 374.329 35.633,374.352 35.167,374.083 35.167 C 373.976 35.167,373.839 35.217,373.778 35.278 M355.000 36.218 C 355.000 36.506,355.090 36.667,355.250 36.667 C 355.561 36.667,355.560 36.509,355.245 36.093 C 355.010 35.783,355.000 35.788,355.000 36.218 M355.500 37.238 C 355.500 37.508,355.593 37.667,355.750 37.667 C 355.887 37.667,356.000 37.586,356.000 37.488 C 356.000 37.390,355.887 37.197,355.750 37.060 C 355.528 36.837,355.500 36.857,355.500 37.238 M365.339 37.107 C 365.336 37.304,365.446 37.508,365.583 37.560 C 365.901 37.682,365.903 37.489,365.589 37.074 C 365.349 36.757,365.344 36.757,365.339 37.107 M382.697 37.605 C 382.413 37.913,382.501 38.376,382.806 38.185 C 382.929 38.108,383.004 37.893,382.973 37.706 C 382.925 37.415,382.885 37.401,382.697 37.605 M356.001 38.202 C 356.000 38.494,356.126 38.722,356.353 38.844 C 356.603 38.978,356.674 38.979,356.593 38.849 C 356.531 38.748,356.372 38.460,356.241 38.208 L 356.002 37.750 356.001 38.202 M382.208 38.610 C 381.914 38.729,381.949 39.333,382.250 39.333 C 382.406 39.333,382.500 39.176,382.500 38.917 C 382.500 38.688,382.481 38.506,382.458 38.513 C 382.435 38.520,382.323 38.564,382.208 38.610 M356.500 39.474 C 356.500 39.682,356.605 39.833,356.750 39.833 C 356.914 39.833,357.000 39.998,357.000 40.313 C 357.000 40.577,357.114 40.887,357.254 41.003 C 357.627 41.313,357.742 41.081,357.434 40.640 C 357.287 40.431,357.167 40.137,357.167 39.989 C 357.167 39.840,357.017 39.583,356.833 39.417 C 356.510 39.124,356.500 39.126,356.500 39.474 M366.612 39.863 C 366.765 40.167,366.952 40.529,367.029 40.667 C 367.106 40.804,367.211 41.029,367.262 41.167 C 367.313 41.304,367.481 41.673,367.636 41.987 C 367.790 42.301,367.917 42.616,367.917 42.687 C 367.917 42.758,368.010 42.910,368.125 43.025 C 368.240 43.140,368.333 43.298,368.333 43.377 C 368.333 43.601,369.171 45.316,369.328 45.413 C 369.468 45.500,370.167 44.453,370.167 44.157 C 370.167 43.755,369.649 44.049,369.558 44.503 C 369.437 45.105,369.000 44.891,369.000 44.230 C 369.000 44.012,368.921 43.833,368.823 43.833 C 368.726 43.833,368.689 43.765,368.741 43.681 C 368.793 43.597,368.757 43.502,368.660 43.470 C 368.564 43.438,368.473 43.246,368.457 43.044 C 368.442 42.841,368.333 42.638,368.215 42.593 C 368.097 42.548,368.000 42.310,368.000 42.065 C 368.000 41.820,367.889 41.537,367.753 41.435 C 367.617 41.333,367.481 41.075,367.449 40.861 C 367.418 40.648,367.311 40.423,367.213 40.361 C 367.114 40.300,367.007 40.063,366.975 39.835 C 366.943 39.604,366.788 39.396,366.626 39.365 C 366.352 39.312,366.351 39.341,366.612 39.863 M381.708 39.916 C 381.435 40.227,381.445 40.333,381.750 40.333 C 381.889 40.333,382.000 40.185,382.000 40.000 C 382.000 39.609,381.983 39.604,381.708 39.916 M371.667 40.187 C 371.667 40.483,371.708 40.507,371.917 40.333 C 372.054 40.219,372.167 40.060,372.167 39.980 C 372.167 39.899,372.054 39.833,371.917 39.833 C 371.773 39.833,371.667 39.984,371.667 40.187 M381.129 41.100 C 380.820 41.707,380.871 41.819,381.274 41.417 C 381.411 41.280,381.499 41.025,381.470 40.850 C 381.428 40.599,381.357 40.650,381.129 41.100 M371.167 41.161 C 371.167 41.385,371.247 41.459,371.417 41.394 C 371.554 41.341,371.667 41.193,371.667 41.066 C 371.667 40.938,371.554 40.833,371.417 40.833 C 371.279 40.833,371.167 40.981,371.167 41.161 M357.591 41.654 C 357.538 41.740,357.572 41.858,357.667 41.917 C 357.761 41.975,357.788 42.104,357.727 42.204 C 357.663 42.307,357.692 42.337,357.793 42.275 C 357.891 42.214,358.010 42.259,358.056 42.374 C 358.105 42.496,358.146 42.457,358.154 42.280 C 358.169 41.918,357.730 41.429,357.591 41.654 M380.316 42.958 C 380.030 43.577,379.691 44.282,379.564 44.526 C 379.437 44.769,379.333 45.080,379.333 45.216 C 379.333 45.353,379.221 45.508,379.083 45.560 C 378.761 45.684,378.759 46.000,379.080 46.000 C 379.216 46.000,379.379 45.794,379.442 45.543 C 379.505 45.292,379.656 44.987,379.778 44.865 C 379.900 44.743,380.000 44.458,380.000 44.233 C 380.000 44.007,380.113 43.780,380.250 43.727 C 380.387 43.674,380.500 43.484,380.500 43.304 C 380.500 43.124,380.613 42.864,380.750 42.726 C 380.981 42.495,381.106 41.833,380.918 41.833 C 380.873 41.833,380.602 42.340,380.316 42.958 M370.586 42.486 C 370.528 42.753,370.372 43.014,370.240 43.064 C 370.108 43.115,370.000 43.279,370.000 43.429 C 370.000 43.610,370.089 43.668,370.264 43.601 C 370.409 43.546,370.559 43.500,370.597 43.500 C 370.635 43.500,370.667 43.322,370.667 43.104 C 370.667 42.886,370.779 42.614,370.917 42.500 C 371.232 42.238,371.238 42.000,370.930 42.000 C 370.800 42.000,370.645 42.219,370.586 42.486 M358.115 42.988 C 358.212 43.358,358.667 43.596,358.667 43.278 C 358.667 43.051,358.342 42.667,358.149 42.667 C 358.084 42.667,358.069 42.811,358.115 42.988 M358.667 44.042 C 358.667 44.191,358.747 44.363,358.844 44.424 C 359.130 44.600,359.158 44.442,358.903 44.093 C 358.705 43.823,358.667 43.814,358.667 44.042 M359.167 45.051 C 359.167 45.339,359.256 45.500,359.417 45.500 C 359.728 45.500,359.726 45.343,359.411 44.926 C 359.177 44.616,359.167 44.621,359.167 45.051 M359.696 46.167 C 359.730 46.396,359.850 46.565,359.962 46.542 C 360.087 46.516,360.167 46.692,360.167 46.990 C 360.167 47.260,360.247 47.530,360.344 47.590 C 360.611 47.755,360.757 47.524,360.531 47.297 C 360.422 47.189,360.333 46.996,360.333 46.868 C 360.333 46.740,360.176 46.437,359.984 46.193 L 359.634 45.750 359.696 46.167 M378.540 46.527 C 378.289 46.777,378.268 47.167,378.505 47.167 C 378.707 47.167,378.891 46.756,378.805 46.499 C 378.766 46.380,378.677 46.389,378.540 46.527 M378.040 47.664 C 377.773 48.092,377.780 48.167,378.083 48.167 C 378.239 48.167,378.333 48.009,378.333 47.750 C 378.333 47.247,378.306 47.239,378.040 47.664 M360.677 48.191 C 360.671 48.436,360.777 48.673,360.917 48.727 C 361.054 48.780,361.167 48.967,361.167 49.143 C 361.167 49.581,361.820 50.381,361.828 49.953 C 361.831 49.790,361.721 49.613,361.583 49.560 C 361.446 49.508,361.333 49.289,361.333 49.075 C 361.333 48.861,361.253 48.637,361.155 48.576 C 361.057 48.515,360.912 48.305,360.832 48.108 C 360.696 47.771,360.687 47.776,360.677 48.191 M377.540 48.664 C 377.273 49.092,377.280 49.167,377.583 49.167 C 377.739 49.167,377.833 49.009,377.833 48.750 C 377.833 48.247,377.806 48.239,377.540 48.664 M377.048 49.919 C 376.938 50.039,376.795 50.351,376.731 50.611 C 376.667 50.871,376.563 51.121,376.499 51.167 C 376.436 51.212,376.306 51.475,376.212 51.750 C 376.119 52.025,375.957 52.231,375.854 52.208 C 375.747 52.185,375.667 52.384,375.667 52.672 C 375.667 52.967,375.563 53.217,375.417 53.273 C 375.279 53.326,375.167 53.539,375.167 53.747 C 375.167 53.956,375.054 54.219,374.917 54.333 C 374.653 54.553,374.574 55.000,374.800 55.000 C 375.054 55.000,375.333 54.599,375.333 54.234 C 375.333 54.033,375.447 53.826,375.585 53.772 C 375.723 53.719,375.827 53.618,375.815 53.546 C 375.751 53.155,375.854 52.660,375.983 52.739 C 376.150 52.843,376.333 52.460,376.333 52.004 C 376.333 51.838,376.451 51.657,376.594 51.602 C 376.737 51.547,376.815 51.439,376.767 51.361 C 376.719 51.284,376.831 50.939,377.015 50.594 C 377.369 49.934,377.388 49.549,377.048 49.919 M361.773 50.466 C 361.696 50.589,361.725 50.786,361.839 50.924 C 362.103 51.241,362.333 51.233,362.333 50.907 C 362.333 50.764,362.264 50.690,362.179 50.742 C 362.095 50.795,361.999 50.705,361.967 50.544 C 361.923 50.322,361.876 50.303,361.773 50.466 M362.261 51.708 C 362.325 51.915,362.480 52.143,362.605 52.217 C 362.731 52.290,362.833 52.571,362.833 52.842 C 362.833 53.168,362.918 53.333,363.083 53.333 C 363.360 53.333,363.421 53.074,363.179 52.925 C 363.095 52.872,362.976 52.605,362.916 52.331 C 362.856 52.057,362.738 51.833,362.653 51.833 C 362.569 51.833,362.500 51.721,362.500 51.583 C 362.500 51.446,362.420 51.333,362.322 51.333 C 362.214 51.333,362.190 51.481,362.261 51.708 M363.333 53.980 C 363.333 54.183,363.440 54.333,363.583 54.333 C 363.721 54.333,363.833 54.268,363.833 54.187 C 363.833 54.107,363.721 53.947,363.583 53.833 C 363.374 53.660,363.333 53.684,363.333 53.980 M363.833 55.024 C 363.833 55.287,363.927 55.444,364.083 55.444 C 364.392 55.444,364.391 55.341,364.078 54.926 C 363.842 54.614,363.833 54.618,363.833 55.024 M374.339 55.489 C 374.109 55.920,374.121 56.000,374.417 56.000 C 374.572 56.000,374.667 55.843,374.667 55.583 C 374.667 55.083,374.571 55.056,374.339 55.489 M364.353 56.024 C 364.342 56.276,364.440 56.505,364.583 56.560 C 364.721 56.613,364.833 56.813,364.833 57.006 C 364.833 57.503,365.134 58.000,365.435 58.000 C 365.645 58.000,365.631 57.924,365.357 57.576 C 365.173 57.342,364.974 56.930,364.915 56.659 C 364.855 56.388,364.743 56.167,364.666 56.167 C 364.588 56.167,364.490 56.035,364.448 55.875 C 364.399 55.688,364.365 55.742,364.353 56.024 M373.872 56.667 C 373.698 56.945,373.706 57.000,373.915 57.000 C 374.056 57.000,374.167 56.853,374.167 56.667 C 374.167 56.483,374.147 56.333,374.123 56.333 C 374.100 56.333,373.987 56.483,373.872 56.667 M373.292 57.681 C 373.013 57.986,373.014 58.000,373.333 58.000 C 373.556 58.000,373.667 57.889,373.667 57.667 C 373.667 57.272,373.665 57.272,373.292 57.681 " stroke="none" fill="#d81810" fill-rule="evenodd"></path><path id="path3" d="" stroke="none" fill="#3c1810" fill-rule="evenodd"></path><path id="path4" d="" stroke="none" fill="#041c10" fill-rule="evenodd"></path><path id="path5" d="" stroke="none" fill="#040414" fill-rule="evenodd"></path><path id="path6" d="" stroke="none" fill="#080404" fill-rule="evenodd"></path><path id="path7" d="" stroke="none" fill="#080404" fill-rule="evenodd"></path><path id="path8" d="" stroke="none" fill="#080404" fill-rule="evenodd"></path></g></svg>