<svg width="12" height="12" viewBox="0 0 12 12" fill="none" xmlns="http://www.w3.org/2000/svg">
<path d="M0.41107 0.412046C0.736507 0.0866095 1.26414 0.0866095 1.58958 0.412046L6.00033 4.82279L10.4111 0.412046C10.7365 0.0866095 11.2641 0.0866095 11.5896 0.412046C11.915 0.737483 11.915 1.26512 11.5896 1.59056L7.17884 6.0013L11.5896 10.412C11.915 10.7375 11.915 11.2651 11.5896 11.5906C11.2641 11.916 10.7365 11.916 10.4111 11.5906L6.00033 7.17981L1.58958 11.5906C1.26414 11.916 0.736507 11.916 0.41107 11.5906C0.0856329 11.2651 0.0856329 10.7375 0.41107 10.412L4.82181 6.0013L0.41107 1.59056C0.0856329 1.26512 0.0856329 0.737483 0.41107 0.412046Z" fill="#7B7C80"/>
</svg>
