<svg width="11" height="10" viewBox="0 0 11 10" fill="none" xmlns="http://www.w3.org/2000/svg">
<path id="Vector" d="M4.87241 0.29728C4.82949 0.301863 4.71199 0.317697 4.61283 0.328947C4.51283 0.340613 4.31908 0.37478 4.1795 0.401863L3.92533 0.452696L3.55741 0.397696C2.87742 0.29728 2.03908 0.30853 1.43825 0.425196C0.828254 0.541029 0.417422 0.759362 0.514088 0.913945C0.527838 0.936862 0.663254 1.05561 0.814087 1.17811C1.45409 1.69478 1.77075 2.08644 1.95325 2.59394C2.04825 2.85769 2.08242 3.05811 2.07992 3.37936C2.07783 3.75477 2.03242 3.95269 1.77492 4.72935C1.66242 5.0681 1.53992 5.48018 1.50409 5.64352C1.44492 5.91435 1.43825 5.97852 1.43825 6.37226C1.43825 6.7981 1.45617 6.96851 1.53825 7.30768C1.66699 7.82136 1.94131 8.28695 2.32825 8.64851C2.46867 8.77601 2.51575 8.83267 2.50742 8.86434C2.48658 8.93726 2.54492 9.06226 2.64075 9.16017C2.88408 9.40601 3.42658 9.61559 4.00325 9.68392C4.29908 9.72017 4.91158 9.71559 5.19574 9.67476C5.41658 9.64309 5.80824 9.54934 5.92324 9.50392C6.16907 9.40392 6.38866 9.27184 6.49949 9.15809C6.68449 8.96934 6.68699 8.96476 6.67324 8.85309C6.65991 8.75976 6.66407 8.75059 6.74324 8.69142C6.84949 8.61226 7.18907 8.26768 7.28074 8.14726C7.36407 8.03809 7.52074 7.76976 7.56824 7.65143C7.61115 7.55143 7.62657 7.54893 7.6974 7.62393C7.85032 7.78809 8.16407 7.92434 8.33407 7.90184C8.48073 7.88101 8.5824 7.75143 8.50323 7.68518C8.48782 7.67184 8.39282 7.62684 8.29073 7.58309C8.19776 7.5432 8.10856 7.49595 8.02407 7.44185L7.94074 7.37601L7.9499 7.20518C7.96324 6.90935 8.05407 6.77935 8.75407 6.04685C9.31448 5.45935 9.41865 5.34102 9.64907 5.02935C9.89073 4.70352 10.0174 4.49685 10.1686 4.1756C10.4716 3.52936 10.5753 2.82602 10.4445 2.30686C10.2361 1.48103 9.44781 0.861862 8.61198 0.868529C8.14199 0.871029 7.7399 1.04644 7.3174 1.43103C7.07782 1.64936 7.0299 1.62894 7.09824 1.34228C7.13865 1.16228 7.13157 1.08019 7.06407 0.943945C6.92866 0.673112 6.39741 0.418113 5.78741 0.328947C5.59574 0.301447 5.00574 0.28103 4.87241 0.29728ZM9.02323 1.55561C9.48407 1.69728 9.86573 2.09311 9.9924 2.55977C10.0757 2.87352 10.0149 3.45186 9.8499 3.90269C9.73874 4.19005 9.5972 4.46615 9.4274 4.72685C9.2899 4.9356 8.88573 5.43685 8.65657 5.6781C8.43997 5.90638 8.22989 6.14007 8.02657 6.37893C7.90032 6.52893 7.81407 6.61101 7.78907 6.60643C7.75782 6.59976 7.75157 6.54768 7.7399 6.2356C7.71433 5.53941 7.58573 4.84999 7.35782 4.18727C7.27199 3.94144 7.24949 3.79102 7.2924 3.76394C7.31032 3.75227 7.42324 3.7431 7.54324 3.7431C7.68324 3.7431 7.76699 3.73435 7.77824 3.7181C7.7874 3.70269 7.72407 3.62227 7.6224 3.52477C7.44615 3.35394 7.37824 3.24977 7.32157 3.06227C7.25157 2.83061 7.30824 2.45477 7.44824 2.20728C7.64699 1.85894 8.02657 1.58103 8.39948 1.51519C8.56615 1.48519 8.85365 1.50311 9.02323 1.55561ZM5.32033 3.05852C5.36116 3.07227 5.42449 3.10644 5.46283 3.13852C5.51283 3.18144 5.54616 3.19269 5.59199 3.18394C5.68616 3.16311 5.90324 3.27019 5.95282 3.35644C5.97366 3.39561 6.00949 3.44977 6.03199 3.47727C6.06532 3.51811 6.07282 3.55019 6.06116 3.64394C6.05032 3.74394 6.05699 3.7731 6.10449 3.84394C6.1419 3.898 6.16156 3.96236 6.16074 4.0281C6.16074 4.1081 6.16741 4.12644 6.19491 4.11685C6.20489 4.11064 6.21314 4.10225 6.21894 4.09238C6.22475 4.08251 6.22794 4.07147 6.22824 4.06019C6.22824 3.9781 6.29407 3.85769 6.35074 3.83227C6.40184 3.81583 6.45616 3.81197 6.50907 3.82102C6.60366 3.83685 6.61324 3.84185 6.60366 3.89394C6.59699 3.9256 6.60782 3.96477 6.62866 3.98269C6.66032 4.01685 6.66032 4.02102 6.62157 4.05102C6.58324 4.07852 6.58116 4.08977 6.60574 4.1531C6.63324 4.22644 6.63324 4.22644 6.56991 4.21519C6.53366 4.2081 6.49991 4.2056 6.49282 4.21269C6.48616 4.21935 6.49991 4.29685 6.52449 4.38352C6.58116 4.58602 6.57866 4.64269 6.51324 4.82269C6.47032 4.94352 6.46324 4.99102 6.47991 5.06852C6.51324 5.2481 6.50199 5.72352 6.45491 6.01977C6.41891 6.26167 6.36602 6.50108 6.29657 6.73643C6.20157 7.06893 6.09532 7.68601 6.09991 7.87934C6.10199 7.98184 6.11116 8.07059 6.11782 8.07768C6.12449 8.08476 6.16991 8.03434 6.21491 7.96809C6.31491 7.82226 6.40241 7.74934 6.56991 7.67434C6.63741 7.64476 6.71157 7.59726 6.73491 7.57018C6.80032 7.49684 6.84074 7.50643 6.81616 7.59018C6.80491 7.62684 6.80241 7.65851 6.80699 7.65851C6.81366 7.65851 6.80032 7.68601 6.77532 7.72226C6.75282 7.75643 6.72116 7.82934 6.70532 7.88601C6.68862 7.94494 6.66335 8.0011 6.63032 8.05268C6.59699 8.10018 6.59241 8.12518 6.61032 8.14351C6.62866 8.16143 6.66866 8.13184 6.76449 8.03184C6.90866 7.88393 6.98532 7.79059 6.99907 7.75434C7.01699 7.70643 7.2499 7.47643 7.26782 7.48768C7.27907 7.49476 7.29282 7.49018 7.30199 7.47643C7.33782 7.41768 7.35199 7.46976 7.34949 7.64309L7.34532 7.82934L7.22282 7.96393C7.11486 8.08171 7.00568 8.19838 6.89532 8.31393C6.78449 8.43059 6.63532 8.58976 6.56741 8.66434C6.49207 8.74579 6.40894 8.82055 6.31907 8.88767C6.19491 8.97184 5.93282 9.07392 5.76491 9.10642C5.71944 9.1131 5.67437 9.12228 5.62991 9.13392C5.52366 9.15851 4.43699 9.16309 4.16116 9.13767C4.04007 9.12569 3.91881 9.11527 3.79741 9.10642C3.76651 9.10408 3.73609 9.09777 3.707 9.08767C3.67911 9.07759 3.64935 9.07291 3.6195 9.07392C3.40283 9.06976 3.22783 9.02642 3.10825 8.94476C3.06075 8.91267 2.99575 8.88767 2.96367 8.88767C2.93158 8.88767 2.90742 8.87601 2.90742 8.86476C2.90742 8.85142 2.89158 8.84226 2.87325 8.84226C2.85533 8.84226 2.83992 8.83059 2.83992 8.81934C2.83992 8.80559 2.82825 8.79684 2.81492 8.79684C2.78742 8.79684 2.69492 8.71434 2.56158 8.57101C2.5095 8.51684 2.43242 8.43684 2.39492 8.39601C2.35325 8.35476 2.31992 8.31351 2.31992 8.30518C2.31992 8.29309 2.29908 8.26601 2.27408 8.23934C2.18408 8.14351 2.13908 8.09101 2.15033 8.09101C2.1545 8.09101 2.13908 8.04768 2.117 7.99518C2.02825 7.79934 2.08033 7.78351 2.19617 7.96601C2.24075 8.03393 2.29033 8.09101 2.30617 8.09101C2.34908 8.09101 2.44617 8.20934 2.512 8.34143C2.54117 8.40059 2.61825 8.50518 2.67867 8.57559L2.7945 8.70142L2.89158 8.67809C2.94325 8.66434 2.99575 8.64393 3.00658 8.63518C3.03366 8.61018 2.93158 8.46851 2.72867 8.25059C2.562 8.07059 2.51867 7.99768 2.59325 8.01601C2.61825 8.02268 2.64325 8.03643 2.64742 8.04768C2.65408 8.05684 2.69492 8.05934 2.73575 8.05226C2.79695 8.0472 2.85858 8.05503 2.91617 8.07518C3.002 8.10434 3.02033 8.10434 3.02033 8.07934C3.02033 8.06143 3.01117 8.04101 2.99783 8.03393C2.98617 8.02726 2.9795 7.98809 2.98408 7.94768C2.98613 7.87479 2.95873 7.8039 2.90742 7.74934C2.90033 7.74268 2.89367 7.70143 2.88908 7.65851L2.88242 7.58101L2.94575 7.63809C2.982 7.66976 3.04283 7.71101 3.08325 7.72684C3.12408 7.74226 3.18741 7.79059 3.22075 7.83393C3.28241 7.90684 3.29116 7.91101 3.38325 7.89726C3.43825 7.88851 3.49033 7.87684 3.49908 7.87268C3.51283 7.86309 3.62408 7.90893 3.74991 7.97268C3.75908 7.97684 3.76575 7.97268 3.76575 7.96101C3.76575 7.95018 3.7295 7.92268 3.68658 7.90226C3.58741 7.85434 3.58741 7.82476 3.6845 7.80643C3.777 7.78851 3.82908 7.80226 3.9845 7.88143C4.11158 7.94518 4.15908 7.93851 4.09283 7.86309C4.04158 7.80476 4.06366 7.73809 4.12283 7.77476C4.19783 7.82226 4.24491 7.93851 4.24033 8.07059C4.23616 8.24143 4.23616 8.23934 4.28783 8.19143C4.31727 8.16393 4.32783 8.1342 4.31949 8.10226C4.23116 7.80393 4.21533 7.68143 4.1995 7.18976L4.19533 7.07101L4.12033 7.09851C4.05684 7.12373 3.99552 7.15411 3.937 7.18935C3.7995 7.27143 3.67783 7.28518 3.51741 7.23935C3.4495 7.22143 3.33825 7.18935 3.27158 7.17101C3.20325 7.15268 3.13991 7.1231 3.13075 7.10726C3.08783 7.04143 3.08367 6.93226 3.1195 6.87976C3.1695 6.80893 3.16533 6.7931 3.09033 6.7931C3.057 6.7931 2.99783 6.78435 2.96117 6.77268C2.90834 6.75624 2.8539 6.7448 2.79867 6.73851C2.75966 6.73448 2.72115 6.72694 2.68367 6.71601C2.6745 6.70851 2.59033 6.69768 2.49783 6.68851C2.40742 6.68185 2.3195 6.66351 2.30367 6.65185C2.272 6.62685 2.28117 6.57268 2.32867 6.47685C2.34867 6.4381 2.35992 6.40601 2.35117 6.40601C2.342 6.40601 2.35117 6.3906 2.367 6.36768C2.38071 6.35338 2.39069 6.33626 2.39617 6.31768C2.38283 6.25851 2.55033 5.95102 2.6245 5.89185C2.6995 5.83518 2.84825 5.79393 2.97242 5.79185H3.05158L2.99325 5.7281C2.87242 5.6006 2.837 5.49143 2.84325 5.2681C2.85033 5.00643 2.86408 4.99268 3.15783 4.9406C3.45783 4.8856 3.53033 4.90644 3.67741 5.08643C3.71366 5.12935 3.72741 5.13643 3.73575 5.11143C3.76075 5.04518 3.85366 4.97227 3.90783 4.97227C3.9395 4.97227 4.0345 5.01352 4.11783 5.0631C4.20366 5.11352 4.28283 5.15435 4.29699 5.15435C4.34158 5.15685 4.49991 5.2956 4.56074 5.38435C4.61908 5.47518 4.64824 5.60768 4.65324 5.8081C4.65324 5.88727 4.66699 5.9256 4.70533 5.96018C4.77074 6.02143 4.79574 6.11018 4.80241 6.29685C4.80658 6.43143 4.80241 6.45601 4.75491 6.50393C4.69866 6.56101 4.52449 6.60226 4.44533 6.57726C4.39533 6.56143 4.3845 6.61768 4.36408 6.9981C4.34325 7.37101 4.39575 7.80851 4.48408 8.01059L4.54949 8.16393L4.72116 7.97643L4.75741 8.03143C4.78908 8.07726 4.80241 8.08393 4.83866 8.06309C4.88866 8.03809 4.96074 7.95393 4.96283 7.92434C4.96283 7.91309 4.95158 7.91309 4.94033 7.91976C4.92658 7.92684 4.91783 7.92226 4.91783 7.90851C4.91783 7.89518 4.90408 7.88559 4.89074 7.88768C4.83866 7.89518 4.71449 7.85851 4.71449 7.83559C4.71449 7.82393 4.70533 7.82018 4.69199 7.82851C4.66449 7.84726 4.48783 7.68559 4.48783 7.64226C4.48783 7.61476 4.49533 7.61268 4.51991 7.63309C4.53824 7.64893 4.57658 7.65393 4.60824 7.64684C4.64449 7.63768 4.68949 7.64893 4.73908 7.67851C4.89741 7.77643 4.91324 7.73101 4.77324 7.58559C4.66074 7.46476 4.62866 7.3856 4.58991 7.11643C4.57866 7.03726 4.61074 7.01851 4.64408 7.08685C4.65783 7.10935 4.71491 7.15268 4.77074 7.18018C4.91783 7.2531 5.07366 7.45309 5.15491 7.67851C5.22033 7.86101 5.25908 7.89934 5.32908 7.86101C5.34991 7.84893 5.37199 7.80143 5.38074 7.75601C5.38991 7.70809 5.43741 7.54893 5.48491 7.40101C5.59574 7.0731 5.62033 6.85935 5.56157 6.7931C5.53241 6.75893 5.49616 6.74768 5.42408 6.75226C5.25658 6.75643 5.15741 6.65226 5.12324 6.42685C5.10074 6.28518 5.12116 6.27226 5.34699 6.26268C5.53033 6.25393 5.59783 6.28351 5.69699 6.4156C5.74699 6.48351 5.75616 6.51351 5.74699 6.59268C5.70116 6.98893 5.67699 7.13018 5.61574 7.35101C5.57741 7.48726 5.54074 7.64268 5.53449 7.68976C5.52324 7.76976 5.52533 7.77601 5.56366 7.76059C5.58866 7.74893 5.64991 7.73768 5.70407 7.73101L5.80116 7.72184L5.72907 7.82393C5.63866 7.95393 5.64991 7.99059 5.77907 7.98643C5.85324 7.98351 5.87574 7.97393 5.88032 7.94059C5.88241 7.91559 5.89157 7.83101 5.89824 7.74893C5.91199 7.61268 5.95241 7.43059 6.07241 6.97518C6.09741 6.88185 6.13074 6.74768 6.14741 6.67935C6.16491 6.61101 6.18741 6.52935 6.19866 6.49726C6.23741 6.40143 6.30032 6.04227 6.34116 5.69393C6.36199 5.51643 6.35699 5.18393 6.33199 5.16143C6.30699 5.13643 6.27116 5.27768 6.28907 5.32518C6.31407 5.38185 6.31199 5.40018 6.24407 5.71893C6.20116 5.91893 6.17866 5.9856 6.13782 6.01477C6.11074 6.03518 6.05866 6.0806 6.02241 6.11727C5.98657 6.15143 5.93907 6.17893 5.91657 6.17893C5.87574 6.17643 5.77616 6.03727 5.71991 5.89852C5.70157 5.8531 5.67699 5.81227 5.66324 5.80352C5.61324 5.77102 5.54574 5.4731 5.55491 5.3231C5.56407 5.16393 5.55699 5.15435 5.44866 5.21602C5.31533 5.29102 4.82783 5.24102 4.80908 5.15018C4.80699 5.13143 4.83658 5.07227 4.87991 5.0156C4.99449 4.8631 5.05783 4.65852 5.01033 4.59894C4.98949 4.57644 4.99449 4.56519 5.02408 4.55144C5.06241 4.53769 5.06241 4.5356 5.02616 4.51477C4.96074 4.4781 4.98116 4.45352 5.07199 4.45602C5.15283 4.46019 5.15533 4.45769 5.15949 4.37352C5.16366 4.2806 5.23616 4.14435 5.29074 4.12144C5.31324 4.11435 5.32408 4.0756 5.32408 4.01185C5.32408 3.93685 5.31783 3.9231 5.29741 3.94352C5.24741 3.99352 5.10991 3.97519 5.03491 3.90685C4.989 3.86596 4.93825 3.83017 4.88366 3.80019C4.80033 3.75727 4.77116 3.72102 4.59908 3.44936C4.54929 3.374 4.49417 3.30189 4.43408 3.23352C4.38908 3.18602 4.35491 3.13561 4.35908 3.11977C4.36686 3.10338 4.42936 3.09727 4.54658 3.10144C4.66715 3.10271 4.7876 3.09351 4.90658 3.07394C5.13241 3.03561 5.22491 3.03102 5.31991 3.05811M3.892 3.22894C3.92144 3.25144 3.96658 3.25838 4.02741 3.24977C4.11075 3.23811 4.1245 3.24269 4.13825 3.28602C4.1495 3.32227 4.13408 3.36102 4.07491 3.43144C4.00283 3.52019 3.90991 3.57727 3.65241 3.69561C3.45825 3.78435 3.40825 3.82977 3.38825 3.9256C3.377 3.98227 3.35408 4.00727 3.282 4.03935C3.22991 4.06185 3.17366 4.0981 3.15533 4.12352C3.08992 4.20519 2.93617 4.43769 2.89992 4.5056C2.86825 4.56727 2.75992 4.69019 2.672 4.7606C2.64895 4.77863 2.62026 4.78902 2.59033 4.79019C2.54992 4.79019 2.54533 4.77435 2.54033 4.64685C2.53806 4.57169 2.53515 4.49655 2.53158 4.42144C2.5295 4.32852 2.57242 4.24394 2.62658 4.24394C2.6695 4.24394 2.66742 4.20769 2.6245 4.18894C2.5745 4.17102 2.58367 4.06185 2.64242 3.9731L2.72825 3.83685C2.73802 3.81784 2.75303 3.80162 2.77171 3.7899C2.79039 3.77818 2.81207 3.77137 2.8345 3.77019C2.91783 3.76144 2.91575 3.76852 2.87533 3.68394C2.85488 3.64309 2.83896 3.60036 2.82783 3.55644L2.812 3.49811L2.91117 3.53144C2.96325 3.54977 3.01742 3.57477 3.03117 3.58644C3.06741 3.62269 3.08741 3.60935 3.08741 3.54727C3.08741 3.4906 3.09908 3.47686 3.28408 3.32436C3.39033 3.24019 3.52366 3.20144 3.57575 3.24477C3.59825 3.26311 3.61616 3.26311 3.63658 3.24686C3.65033 3.23311 3.69991 3.21977 3.74283 3.21311C3.78575 3.20894 3.82866 3.20144 3.83533 3.20144C3.84241 3.19936 3.867 3.21061 3.892 3.22894Z" fill="#639FF9"/>
</svg>
