<svg width="15" height="12" viewBox="0 0 15 12" fill="none" xmlns="http://www.w3.org/2000/svg">
  <path
    fill-rule="evenodd"
    clip-rule="evenodd"
    d="M14.4545 0H10.5C10.1988 0 10 0.198754 10 0.5C10 0.801246 10.1988 1 10.5 1H13L9.5 4.5L10.5 5.5L14 2V4.5C14 4.80125 14.1988 5 14.5 5C14.8012 5 15 4.80125 15 4.5V0.545455C15 0.244208 14.7558 0 14.4545 0ZM1.73333 1H8.00001V1.86667H1.73333C1.25469 1.86667 0.866667 2.25469 0.866667 2.73333V9.32003C0.866667 9.79868 1.25469 10.1867 1.73333 10.1867H12.1333C12.612 10.1867 13 9.79868 13 9.32004V7.00003H13.8667V9.32004C13.8667 10.2773 13.0906 11.0534 12.1333 11.0534H1.73333C0.776041 11.0534 0 10.2773 0 9.32003V2.73333C0 1.77604 0.77604 1 1.73333 1Z"
    fill="#ffffff"
  ></path>
</svg>
