<svg width="11" height="10" viewBox="0 0 11 10" fill="none" xmlns="http://www.w3.org/2000/svg">
<path id="Vector" d="M8.32609 5.65217H7.45652V4.34783H8.32609C8.75605 4.34783 9.17635 4.22033 9.53385 3.98146C9.89135 3.74258 10.17 3.40306 10.3345 3.00583C10.4991 2.6086 10.5421 2.1715 10.4582 1.7498C10.3743 1.32811 10.1673 0.940752 9.86327 0.636725C9.55925 0.332698 9.17189 0.125653 8.7502 0.0417721C8.3285 -0.0421088 7.8914 0.000941922 7.49417 0.16548C7.09694 0.330019 6.75742 0.608654 6.51854 0.966152C6.27967 1.32365 6.15217 1.74395 6.15217 2.17391V3.04348H4.84783V2.17391C4.84783 1.74395 4.72033 1.32365 4.48146 0.966152C4.24258 0.608654 3.90306 0.330019 3.50583 0.16548C3.1086 0.000941922 2.6715 -0.0421088 2.2498 0.0417721C1.82811 0.125653 1.44075 0.332698 1.13673 0.636725C0.832698 0.940752 0.625653 1.32811 0.541772 1.7498C0.457891 2.1715 0.500942 2.6086 0.66548 3.00583C0.830019 3.40306 1.10865 3.74258 1.46615 3.98146C1.82365 4.22033 2.24395 4.34783 2.67391 4.34783H3.54348V5.65217H2.67391C2.24395 5.65217 1.82365 5.77967 1.46615 6.01854C1.10865 6.25742 0.830019 6.59694 0.66548 6.99417C0.500942 7.3914 0.457891 7.8285 0.541772 8.2502C0.625653 8.67189 0.832698 9.05925 1.13673 9.36327C1.44075 9.6673 1.82811 9.87435 2.2498 9.95823C2.6715 10.0421 3.1086 9.99906 3.50583 9.83452C3.90306 9.66998 4.24258 9.39135 4.48146 9.03385C4.72033 8.67635 4.84783 8.25605 4.84783 7.82609V6.95652H6.15217V7.82609C6.15217 8.25605 6.27967 8.67635 6.51854 9.03385C6.75742 9.39135 7.09694 9.66998 7.49417 9.83452C7.8914 9.99906 8.3285 10.0421 8.7502 9.95823C9.17189 9.87435 9.55925 9.6673 9.86327 9.36327C10.1673 9.05925 10.3743 8.67189 10.4582 8.2502C10.5421 7.8285 10.4991 7.3914 10.3345 6.99417C10.17 6.59694 9.89135 6.25742 9.53385 6.01854C9.17635 5.77967 8.75605 5.65217 8.32609 5.65217ZM7.45652 2.17391C7.45652 2.00193 7.50752 1.83381 7.60307 1.69081C7.69862 1.54781 7.83443 1.43636 7.99332 1.37054C8.15221 1.30472 8.32705 1.2875 8.49573 1.32106C8.66441 1.35461 8.81935 1.43743 8.94096 1.55904C9.06257 1.68065 9.14539 1.83559 9.17894 2.00427C9.2125 2.17295 9.19528 2.34779 9.12946 2.50668C9.06364 2.66557 8.95219 2.80138 8.80919 2.89693C8.66619 2.99248 8.49807 3.04348 8.32609 3.04348H7.45652V2.17391ZM1.80435 2.17391C1.80435 1.94329 1.89596 1.72211 2.05904 1.55904C2.22211 1.39596 2.44329 1.30435 2.67391 1.30435C2.90454 1.30435 3.12571 1.39596 3.28879 1.55904C3.45186 1.72211 3.54348 1.94329 3.54348 2.17391V3.04348H2.67391C2.44329 3.04348 2.22211 2.95186 2.05904 2.78879C1.89596 2.62571 1.80435 2.40454 1.80435 2.17391ZM3.54348 7.82609C3.54348 7.99807 3.49248 8.16619 3.39693 8.30919C3.30138 8.45219 3.16557 8.56364 3.00668 8.62946C2.84779 8.69528 2.67295 8.7125 2.50427 8.67894C2.33559 8.64539 2.18065 8.56257 2.05904 8.44096C1.93743 8.31935 1.85461 8.16441 1.82106 7.99573C1.7875 7.82705 1.80472 7.65221 1.87054 7.49332C1.93636 7.33443 2.04781 7.19862 2.19081 7.10307C2.33381 7.00752 2.50193 6.95652 2.67391 6.95652H3.54348V7.82609ZM4.84783 4.34783H6.15217V5.65217H4.84783V4.34783ZM8.32609 8.69565C8.09546 8.69565 7.87429 8.60404 7.71121 8.44096C7.54814 8.27789 7.45652 8.05671 7.45652 7.82609V6.95652H8.32609C8.55671 6.95652 8.77789 7.04814 8.94096 7.21121C9.10404 7.37429 9.19565 7.59546 9.19565 7.82609C9.19565 8.05671 9.10404 8.27789 8.94096 8.44096C8.77789 8.60404 8.55671 8.69565 8.32609 8.69565Z" fill="#639FF9"/>
</svg>
