<svg id="Layer_1" data-name="Layer 1" xmlns="http://www.w3.org/2000/svg" viewBox="0 0 684.73 417.6"><defs><style>.cls-1{fill:#9fb2d9;}.cls-1,.cls-13,.cls-14,.cls-16,.cls-2,.cls-20,.cls-23,.cls-24,.cls-25,.cls-26,.cls-27,.cls-3,.cls-30,.cls-31,.cls-32,.cls-33,.cls-34,.cls-35,.cls-4,.cls-5,.cls-6,.cls-9{fill-rule:evenodd;}.cls-2{fill:#e1e8f6;}.cls-3{fill:#b4c5e6;}.cls-4{fill:#c0cdea;}.cls-5,.cls-7{fill:#00000f;}.cls-6,.cls-8{fill:#3b405f;}.cls-17,.cls-9{fill:#101537;}.cls-10,.cls-27{fill:#0648b3;}.cls-11,.cls-14,.cls-15{fill:#fff;}.cls-12,.cls-20{fill:#e4e1e8;}.cls-13{fill:#d64c47;}.cls-15{font-size:72px;font-family:MyriadPro-Regular, Myriad Pro;}.cls-16,.cls-21{fill:#070725;}.cls-18{fill:#d58750;}.cls-19,.cls-23{fill:#b56b41;}.cls-22{fill:#aeabba;}.cls-24{fill:#ed7862;}.cls-25{fill:#f5ac83;}.cls-26{fill:#181d3b;}.cls-28,.cls-31{fill:#ee5050;}.cls-29,.cls-32{fill:#d95050;}.cls-30{fill:#707386;}.cls-33{fill:#05a677;}.cls-34{fill:#4a9075;}.cls-35{fill:#1b7154;}</style></defs><title>405</title><path class="cls-1" d="M388.13,43.21a.92.92,0,1,0-1.83,0v2.15h-2.15a.92.92,0,0,0,0,1.83h2.15v2.15a.92.92,0,0,0,1.83,0V47.19h2.15a.92.92,0,1,0,0-1.83h-2.15Z" transform="translate(-14.72 -5.99)"/><path class="cls-2" d="M157,297.72H97a58.89,58.89,0,0,0-58.71,58.72h0A58.89,58.89,0,0,0,97,415.16H604.38c52.29,0,95.08-42.79,95.08-95.08h0c0-52.29-42.79-95.07-95.08-95.08h0a40.32,40.32,0,0,1-40.2-40.2h0a40.32,40.32,0,0,1,40.2-40.2h48.38a41.92,41.92,0,0,0,41.8-41.8h0A41.91,41.91,0,0,0,652.76,61H591.58a16.32,16.32,0,0,1-16.27-16.28h0a16.32,16.32,0,0,1,16.27-16.27h10.78a11.26,11.26,0,0,0,11.23-11.23h0A11.26,11.26,0,0,0,602.36,6H531.59C516.69,6,515,23.6,477.38,23.6h-87.3a14.69,14.69,0,0,0-14.65,14.65h0a14.7,14.7,0,0,0,14.65,14.66h14.07a21.3,21.3,0,0,1,21.24,21.23h0a21.3,21.3,0,0,1-21.24,21.23H361.8c-57.19,0-65.27,14.95-75.29,44.68s-62,32.12-62,32.12H153.34a32.09,32.09,0,0,0-32,32h0a32.09,32.09,0,0,0,32,32H157a30.87,30.87,0,0,1,30.78,30.77h0A30.87,30.87,0,0,1,157,297.72ZM633.88,28.45a11.23,11.23,0,1,1,11.23-11.23A11.23,11.23,0,0,1,633.88,28.45Z" transform="translate(-14.72 -5.99)"/><path class="cls-1" d="M228.89,357.78s-21.67-11.18-17.7-38.63S198.38,283,194.12,274.86s5.29-21.33,4.21-32.86-14.39-14.61-8.16-30.43,1-21.82-7.24-38.76,3.95-42.83,9.73-42.69-1.27,6.2,3.81,17.46,26.5,14.69,33.2,24.11-5.08,21.89,2.57,34.6,30.44,8.77,36.46,21.1-8.34,27.12-4.16,40.05,19.57,20.26,26,30.65,18.61,30.29-1.25,54.05S228.89,357.78,228.89,357.78Z" transform="translate(-14.72 -5.99)"/><path class="cls-3" d="M190.28,153.62a1.41,1.41,0,0,1,2.63-1l89.66,232.91-3.37-.92Z" transform="translate(-14.72 -5.99)"/><path class="cls-3" d="M210.92,329.94c-.11-1.08-.18-2.2-.2-3.35l58.89,33.09-5.21-13.53c0-.06,0-.12-.07-.17L261.66,339l-49.87-28q0-1.71-.12-3.3l48.4,27.2-4.71-12.25-46.07-25.88a37.29,37.29,0,0,0-2-4.36l46.47,26.11-2.34-6.07a1.54,1.54,0,0,1-.08-.19l-10.23-26.58L195,259.77c.27-.91.56-1.83.84-2.76l43.68,24.55-5.11-13.27-36.33-20.42a26.8,26.8,0,0,0,.3-3.07l34.44,19.36-3.84-10a.58.58,0,0,1-.05-.14l-11.17-29-27-15.15c.34-.95.63-1.86.89-2.74l24.48,13.76-9.75-25.33a.58.58,0,0,1-.05-.14l-16.1-41.81a1.41,1.41,0,0,1,2.63-1l14.63,38,8.35-28.54c.87.43,1.72.87,2.56,1.31l-9.24,31.58,11,28.54s0,.08,0,.11L230.4,250l16-34.4c.9.29,1.81.57,2.72.84l-17.36,37.22,3.87,10.06,21.14-45c.91.31,1.8.64,2.66,1l-22.09,47,.34.19a1.41,1.41,0,0,1,.54,1.92,1.31,1.31,0,0,1-.43.47l5.7,14.83a1.12,1.12,0,0,1,.05.13l9.24,24L268.49,275c.62.84,1.28,1.66,2,2.46l-16.22,34.5,2.38,6.17L274,281.15c.71.7,1.43,1.38,2.16,2.05L258,321.74l6.06,15.75.05.12,1.68,4.35,22.24-47.31a30.24,30.24,0,0,1,1.94,2.52l-22.78,48.45,6.41,16.64a.56.56,0,0,1,0,.12l0,.05c-1.11.35-2.23.64-3.36.89Z" transform="translate(-14.72 -5.99)"/><path class="cls-4" d="M218.81,415.32c-6-4.64-12.09-6.75-15.33-9.75-6.46-6-2.11-20.89-6.8-30.91S179,366.14,179.56,349.9s-6.16-19.94-19-32.54-10.23-39.8-5-41.54.86,6,9,14.49,28.57,4.69,37.63,11,2.47,21.33,13.44,30.3,30.21-1.9,39.6,7.26,1.22,27.08,9.14,37.37,24.12,11.93,33.29,19.19c5.16,4.08,12.89,10.3,16.85,19.89Z" transform="translate(-14.72 -5.99)"/><path class="cls-2" d="M262.27,415.32l-13-15.13-49.82-8.48c0-.91-.09-1.83-.14-2.76l47.2,8-8.86-10.29L198.36,380a26.37,26.37,0,0,0-.71-2.85l37.21,6.33-6.67-7.75-.1-.11-19.38-22.5-29.13-5c0-1,0-1.87-.08-2.75l26.46,4.5L189,330.28l-.1-.12L161,297.73a1.35,1.35,0,0,1,2-1.76l25.38,29.47-1.67-28.37,2.72.35,1.85,31.39L210.4,351l.07.09,17.64,20.48,3.37-36.11,2.72-.12-3.64,39.07,6.72,7.81,4.55-47.26c.92,0,1.82,0,2.71,0l-4.76,49.37.37.07a1.33,1.33,0,0,1,1.1,1.55,1.31,1.31,0,0,1-.24.57l9.91,11.5.09.1,14.82,17.21Zm4.91,0,3.24-33.59c.82.56,1.68,1.08,2.55,1.58l-3.08,32Zm7.3,0,2.87-29.79c.86.4,1.73.78,2.6,1.15l-2.76,28.64Zm17.73,0,2.14-22.17a30.1,30.1,0,0,1,2.55,1.65l-2,20.52Z" transform="translate(-14.72 -5.99)"/><path class="cls-5" d="M37.61,423.59H32.16A4.15,4.15,0,0,1,28,419.45h0a4.14,4.14,0,0,1,4.13-4.13h5.45a4.14,4.14,0,0,1,4.13,4.13h0A4.15,4.15,0,0,1,37.61,423.59Z" transform="translate(-14.72 -5.99)"/><path class="cls-5" d="M50.88,423.59H650.15a4.15,4.15,0,0,0,4.13-4.14h0a4.14,4.14,0,0,0-4.13-4.13H50.88a4.14,4.14,0,0,0-4.13,4.13h0A4.15,4.15,0,0,0,50.88,423.59Z" transform="translate(-14.72 -5.99)"/><path class="cls-4" d="M648.88,209.17Z" transform="translate(-14.72 -5.99)"/><path class="cls-1" d="M677.41,235.24a1.14,1.14,0,1,0-2.28,0v2.69h-2.68a1.14,1.14,0,1,0,0,2.28h2.68v2.68a1.14,1.14,0,1,0,2.28,0v-2.68h2.69a1.14,1.14,0,0,0,0-2.28h-2.69Z" transform="translate(-14.72 -5.99)"/><path class="cls-5" d="M431,221.26h-68a4.5,4.5,0,0,0-4.48,4.49h0a4.5,4.5,0,0,0,4.48,4.49h68a4.5,4.5,0,0,0,4.49-4.49h0A4.5,4.5,0,0,0,431,221.26Z" transform="translate(-14.72 -5.99)"/><path class="cls-6" d="M428.67,189.26H397.2a.57.57,0,0,0-.54.48l-5.64,40a.39.39,0,0,0,.4.47h43a.39.39,0,0,0,.4-.47l-5.64-40A.57.57,0,0,0,428.67,189.26Z" transform="translate(-14.72 -5.99)"/><path class="cls-6" d="M447.55,221.26h-68a4.5,4.5,0,0,0-4.49,4.49h0a4.5,4.5,0,0,0,4.49,4.49h68a4.5,4.5,0,0,0,4.49-4.49h0A4.5,4.5,0,0,0,447.55,221.26Z" transform="translate(-14.72 -5.99)"/><path class="cls-7" d="M316.27,95.07H467.06a2.33,2.33,0,0,1,2.33,2.33V198.24a2.33,2.33,0,0,1-2.33,2.33H316.27a2.32,2.32,0,0,1-2.32-2.32V97.4A2.32,2.32,0,0,1,316.27,95.07Z"/><path class="cls-8" d="M323.65,95.07H474.44a2.32,2.32,0,0,1,2.32,2.32V198.24a2.33,2.33,0,0,1-2.33,2.33H323.65a2.33,2.33,0,0,1-2.33-2.33V97.4A2.33,2.33,0,0,1,323.65,95.07Z"/><path class="cls-9" d="M487.9,102.57H339.63a1.55,1.55,0,0,0-1.54,1.54V195a1,1,0,0,0,1,1H488.48a1,1,0,0,0,1-1V104.11A1.55,1.55,0,0,0,487.9,102.57Z" transform="translate(-14.72 -5.99)"/><rect class="cls-10" x="327.72" y="100.94" width="142.64" height="84.71"/><path class="cls-9" d="M400.55,210.7l-1.49,10.56h-6.84l2.07-14.71h37.29l.52,3.68h-31A.56.56,0,0,0,400.55,210.7Z" transform="translate(-14.72 -5.99)"/><rect class="cls-11" x="327.72" y="100.94" width="143.13" height="4.87"/><rect class="cls-12" x="328.62" y="101.97" width="35.95" height="2.8"/><path class="cls-13" d="M377.56,110a.62.62,0,1,0-.61-.61A.62.62,0,0,0,377.56,110Z" transform="translate(-14.72 -5.99)"/><path class="cls-13" d="M375.69,110a.62.62,0,1,0-.61-.61A.62.62,0,0,0,375.69,110Z" transform="translate(-14.72 -5.99)"/><path class="cls-13" d="M373.83,110a.62.62,0,1,0-.62-.61A.62.62,0,0,0,373.83,110Z" transform="translate(-14.72 -5.99)"/><rect class="cls-12" x="366.26" y="101.97" width="35.95" height="2.8"/><path class="cls-13" d="M415.21,110a.62.62,0,0,0,0-1.23.62.62,0,1,0,0,1.23Z" transform="translate(-14.72 -5.99)"/><path class="cls-13" d="M413.34,110a.62.62,0,0,0,0-1.23.62.62,0,1,0,0,1.23Z" transform="translate(-14.72 -5.99)"/><path class="cls-13" d="M411.47,110a.62.62,0,1,0-.61-.61A.61.61,0,0,0,411.47,110Z" transform="translate(-14.72 -5.99)"/><path class="cls-14" d="M362.9,181.66H464.63a.77.77,0,0,1,.77.77h0a.77.77,0,0,1-.77.77H362.9a.77.77,0,0,1-.77-.77h0A.77.77,0,0,1,362.9,181.66Z" transform="translate(-14.72 -5.99)"/><text class="cls-15" transform="translate(342.72 167.96)">404</text><path class="cls-9" d="M412.71,216.77h88.42a9,9,0,0,1,9,9h0a9,9,0,0,1-9,9H412.71a9,9,0,0,1-9-9h0A9,9,0,0,1,412.71,216.77Z" transform="translate(-14.72 -5.99)"/><path class="cls-16" d="M395.83,216.77h40.95a9,9,0,0,1,9,9h0a9,9,0,0,1-9,9H395.83a9,9,0,0,1-9-9h0A9,9,0,0,1,395.83,216.77Z" transform="translate(-14.72 -5.99)"/><rect class="cls-17" x="330.41" y="225.47" width="284.25" height="33.52" rx="5.03"/><path class="cls-5" d="M350,231.46H624.49a5,5,0,0,1,4.89,5v9.23a5,5,0,0,1-4.89,5H350a5,5,0,0,1-4.88-5v-9.23A5,5,0,0,1,350,231.46Z" transform="translate(-14.72 -5.99)"/><rect class="cls-7" x="254.88" y="225.89" width="86.29" height="183.21" rx="5.21"/><rect class="cls-17" x="330.35" y="225.89" width="77.24" height="183.21" rx="4.67"/><rect class="cls-18" x="330.41" y="219.76" width="297.69" height="11.42" rx="1.71"/><rect class="cls-19" x="246" y="219.76" width="87.44" height="11.42" rx="1.71"/><rect class="cls-11" x="336.13" y="236.96" width="65.68" height="52.66" rx="3.89"/><path class="cls-20" d="M416.49,292.31H359.38a3.92,3.92,0,0,1-3.49-2.17,4,4,0,0,1-.4-1.72V243.53a3.79,3.79,0,0,1,.05-.58h-.79a3.9,3.9,0,0,0-3.89,3.89v44.89a3.9,3.9,0,0,0,3.89,3.88h57.9A3.9,3.9,0,0,0,416.49,292.31Z" transform="translate(-14.72 -5.99)"/><rect class="cls-21" x="353.5" y="240.07" width="30.95" height="3.48" rx="1.5"/><rect class="cls-11" x="336.13" y="292.41" width="65.68" height="52.66" rx="3.89"/><path class="cls-20" d="M416.49,347.76H359.38a3.92,3.92,0,0,1-3.49-2.17,4,4,0,0,1-.4-1.72V299a3.79,3.79,0,0,1,.05-.58h-.79a3.9,3.9,0,0,0-3.89,3.89v44.89a3.9,3.9,0,0,0,3.89,3.89h57.9A3.9,3.9,0,0,0,416.49,347.76Z" transform="translate(-14.72 -5.99)"/><rect class="cls-21" x="353.5" y="295.52" width="30.95" height="3.48" rx="1.5"/><rect class="cls-11" x="336.13" y="347.86" width="65.68" height="52.66" rx="3.89"/><path class="cls-20" d="M416.49,403.21H359.38a3.92,3.92,0,0,1-3.49-2.17,4,4,0,0,1-.4-1.72V354.44a3.81,3.81,0,0,1,.05-.59h-.79a3.91,3.91,0,0,0-3.89,3.9v44.88a3.9,3.9,0,0,0,3.89,3.89h57.9A3.9,3.9,0,0,0,416.49,403.21Z" transform="translate(-14.72 -5.99)"/><rect class="cls-21" x="353.5" y="350.97" width="30.95" height="3.48" rx="1.5"/><rect class="cls-22" x="557.67" y="225.89" width="11.4" height="185.43" rx="0.46"/><rect class="cls-11" x="562.89" y="225.89" width="7.94" height="185.43" rx="2.34"/><rect class="cls-22" x="606.71" y="225.89" width="11.4" height="185.43" rx="0.46"/><rect class="cls-11" x="611.94" y="225.89" width="7.94" height="185.43" rx="2.34"/><path class="cls-23" d="M470.26,225.75H641.11a1.72,1.72,0,0,1,1.72,1.71v8a1.72,1.72,0,0,1-1.72,1.71H481.38A63.49,63.49,0,0,0,470.26,225.75Z" transform="translate(-14.72 -5.99)"/><path class="cls-24" d="M532.3,176.17l2.15,3.59s.83,4.36-.41,7.34,14.23,6.2,14.23,6.2l12-9.68,2.65-3.31s-5.63-6.12-6-8.77S532.3,176.17,532.3,176.17Z" transform="translate(-14.72 -5.99)"/><path class="cls-25" d="M505.57,210.48s-8.11,6.54-10.93,7S479.5,212.3,477,211.64s-8-.66-11.92-.66-8,1.49-10.09,5.79h8.27c2.24,0,9.77,6.12,17.05,11.09s13.07,9.1,17.88,8.6,21.35-12.91,21.35-12.91Z" transform="translate(-14.72 -5.99)"/><path class="cls-24" d="M480.33,227.86c7.28,5,13.07,9.1,17.88,8.6s21.35-12.91,21.35-12.91l-14-13.07s-1.88,1.51-4.13,3.13c5.89,9.37,3.23,13.41-3.68,16.18-5.55,2.22-19.64-5.49-28.51-9.8C472.45,222.2,476.42,225.19,480.33,227.86Z" transform="translate(-14.72 -5.99)"/><path class="cls-16" d="M571.74,286.87s-41.87-.38-47,.07-10.17,5.89-9.31,14.3,12.58,74,12.58,74a5,5,0,0,0,1.7.77c.91.19,8.4,1.42,8.4,1.42l.51-6.08-4.38-63.79,38.61-7.05Z" transform="translate(-14.72 -5.99)"/><path class="cls-13" d="M538.57,371.35a2.05,2.05,0,0,1,1.26,1.36,66.86,66.86,0,0,1,1.12,9.4c-.08,1-2.66,3-7.08,4.91s-21.24,6.79-21.24,6.79l-.19-.61a2.27,2.27,0,0,1-1.11-1.38,6.36,6.36,0,0,1,.71-4.63c.92-1.31,6.35-5,7.34-5.83s5.91-7.65,6.31-8.11a5.29,5.29,0,0,1,6.07-.39C534.83,374.57,538.31,374,538.57,371.35Z" transform="translate(-14.72 -5.99)"/><path class="cls-14" d="M512.44,393.2s16.78-6.16,20.46-7.45a34.19,34.19,0,0,0,8-4.79,1.41,1.41,0,0,1,.72.76c.12.49.22,2.21.26,2.57a2.9,2.9,0,0,1-1.92,2.77c-1.83.79-25.28,9.05-26.35,9.4s-1.5-2.48-1.5-2.48S512.05,393.37,512.44,393.2Z" transform="translate(-14.72 -5.99)"/><path class="cls-26" d="M597.66,260.88s-111.91,12.92-118,14.25-11.26,8.6-8.94,18.53,27.4,89.68,27.4,89.68a5.86,5.86,0,0,0,2.15.66c1.12.08,10.26.41,10.26.41l3.6-3.68-20-71.18,81.76-4.14C598.77,301.72,601.88,273.79,597.66,260.88Z" transform="translate(-14.72 -5.99)"/><path class="cls-27" d="M518.93,269.41s8.93,6.62,14.31,4.46,31.2-46.75,31.2-46.75L552,182.43a116.56,116.56,0,0,0-18.12,2.48l-1.87,1.7s-7.28,1.24-11.42,5.88-17.71,16.71-18.2,17.7,11.83,14.57,15,16.72a2.55,2.55,0,0,0,2.4-.41l1.49-1.21s3.31,17.24,3.31,22.35v5.1s-1.74,13.19-3.06,14.43S518.93,269.41,518.93,269.41Z" transform="translate(-14.72 -5.99)"/><path class="cls-14" d="M558.88,277.9a3.75,3.75,0,1,0,0-7.5h-33.1a16.56,16.56,0,0,1-16-12.9,61.57,61.57,0,0,0-6.88,3.34,24.05,24.05,0,0,0,22.93,17.06Z" transform="translate(-14.72 -5.99)"/><rect class="cls-21" x="544.36" y="301.65" width="9.51" height="78.25"/><rect class="cls-7" x="531.74" y="275.37" width="9.27" height="21.18"/><rect class="cls-7" x="595.79" y="275.37" width="9.27" height="21.18"/><path class="cls-8" d="M544.37,299.79h9.51a5.51,5.51,0,0,1,5.51,5.51v10.17a5.5,5.5,0,0,1-5.5,5.5h-9.51a5.51,5.51,0,0,1-5.51-5.51V305.29A5.51,5.51,0,0,1,544.37,299.79Z"/><rect class="cls-21" x="535.22" y="298.14" width="27.8" height="15.95" rx="1.58"/><path class="cls-28" d="M476.13,292.08h77.13a5.29,5.29,0,0,1,5.29,5.29v6a5.3,5.3,0,0,1-5.3,5.3H476.13a5.3,5.3,0,0,1-5.3-5.3v-6A5.3,5.3,0,0,1,476.13,292.08Z"/><rect class="cls-29" x="526.94" y="292.08" width="87.72" height="16.55" rx="5.3"/><path class="cls-8" d="M544.36,374.8h9.51a5.51,5.51,0,0,1,5.51,5.51v10.17a5.5,5.5,0,0,1-5.5,5.5h-9.51a5.5,5.5,0,0,1-5.5-5.5V380.3A5.51,5.51,0,0,1,544.36,374.8Z"/><rect class="cls-21" x="535.22" y="384.88" width="27.8" height="23.03" rx="2.28"/><path class="cls-30" d="M589.08,408.26h0a6.85,6.85,0,0,1-6.82,6.83H545.43a6.85,6.85,0,0,1-6.83-6.83h0a6.85,6.85,0,0,1,6.83-6.83h36.83A6.85,6.85,0,0,1,589.08,408.26Z" transform="translate(-14.72 -5.99)"/><path class="cls-9" d="M624.91,415.09h0a6.84,6.84,0,0,1-6.82,6.82h-93.6a6.84,6.84,0,0,1-6.82-6.82h0a6.84,6.84,0,0,1,6.82-6.83h93.6A6.84,6.84,0,0,1,624.91,415.09Z" transform="translate(-14.72 -5.99)"/><path class="cls-5" d="M566.33,415.09h0a6.85,6.85,0,0,1-6.83,6.82H509.6a6.84,6.84,0,0,1-6.83-6.82h0a6.85,6.85,0,0,1,6.83-6.83h49.9A6.85,6.85,0,0,1,566.33,415.09Z" transform="translate(-14.72 -5.99)"/><path class="cls-14" d="M545,252.74a3.76,3.76,0,1,1,0,7.51h-33.1a16.49,16.49,0,0,0-16.44,16.44v29.83a3.76,3.76,0,1,1-7.51,0V276.69a24,24,0,0,1,23.95-23.95Z" transform="translate(-14.72 -5.99)"/><path class="cls-31" d="M618.46,212.76a41.25,41.25,0,0,0-41.13-41.13h-5.46a41.25,41.25,0,0,0-41.13,41.13v61.17a10.61,10.61,0,0,0,10.57,10.57h66.58a10.61,10.61,0,0,0,10.57-10.57Z" transform="translate(-14.72 -5.99)"/><path class="cls-32" d="M629.38,212.76a41.25,41.25,0,0,0-41.13-41.13h-5.46a41.25,41.25,0,0,0-41.13,41.13v61.17a10.61,10.61,0,0,0,10.58,10.57h66.57a10.61,10.61,0,0,0,10.57-10.57Z" transform="translate(-14.72 -5.99)"/><path class="cls-13" d="M513.23,377.88a3.2,3.2,0,0,1,2.34,1.21c.91,1.2,4.14,9.48,4.3,10.72s-3.31,4.39-9.68,7.94S479,412.23,479,412.23l-.46-.66a3.27,3.27,0,0,1-2.1-1.28,6,6,0,0,1-.17-5.67c1.07-1.82,8.52-7.86,9.85-9.1s7.11-10.8,7.61-11.46,4.1-3.4,9.35-2.32S513.54,381,513.23,377.88Z" transform="translate(-14.72 -5.99)"/><path class="cls-14" d="M478.49,411.57s24.46-12.37,29.84-15,11.16-8.08,11.16-8.08,1,.14,1.34.67a29.07,29.07,0,0,1,1.11,2.94c.17.42.42,2.36-2.23,3.85S482.8,414.3,481.23,415s-3-2.46-3-2.46S477.94,411.89,478.49,411.57Z" transform="translate(-14.72 -5.99)"/><path class="cls-25" d="M525.18,125.81l4-.93a17.77,17.77,0,0,1,21.29,13.22l4.44,19a17.77,17.77,0,0,1-13.22,21.29l-4,.92A17.77,17.77,0,0,1,516.4,166.1l-4.44-19A17.77,17.77,0,0,1,525.18,125.81Z" transform="translate(-14.72 -5.99)"/><path class="cls-24" d="M551,140.28l3.93,16.82a17.77,17.77,0,0,1-13.22,21.29l-4,.92a17.51,17.51,0,0,1-11.31-1.12c.46.2,3.83,1.51,4.58-1,.81-2.66-3.79-11.23-3.79-11.23a1.06,1.06,0,0,1,.08-1.09A15.91,15.91,0,0,0,529.12,154c-1.14-5.71,6.23-9.69,6.23-9.69l-17.07,4.63v3.47a8.15,8.15,0,0,0-6.09-4.31l-.23-1a17.6,17.6,0,0,1,1.82-12.69C519.44,135.1,538,137.47,551,140.28Z" transform="translate(-14.72 -5.99)"/><path class="cls-9" d="M519.42,157.71s-1.55-.17-2.06-2.35-.67-2.89-.67-2.89a18.17,18.17,0,0,1-2.62-6.37S504,144.69,502,135.34s6.74-19.23,8-20.21,6.65-2.83,13.39.19c0,0,1.15.71,3.36-.18s14.58-4.39,20.57-4.59,9.85,6,12.66,13.49a4.38,4.38,0,0,1,3.37-3.66c3-.63,1.4,5-.78,7,0,0,5.14,2.65,6.13,8.15s-.88,29.78-5.48,34.62-16.2,6.92-19.9,7.78-11-3-14-13.12c0,0,1.46-5.06.25-9.23s-2.29-7.23-3.85-7.77-5.41,3.49-5.74,5.3a11.35,11.35,0,0,0,.4,4.29A1.45,1.45,0,0,1,519.42,157.71Z" transform="translate(-14.72 -5.99)"/><path class="cls-16" d="M519.42,157.71s-1.55-.17-2.06-2.35-.67-2.89-.67-2.89a18.4,18.4,0,0,1-2.62-6.37S504,144.69,502,135.34s6.74-19.23,8-20.21c0,0-9.52,10.39,1,15.73s26,8.72,36.19,8.07,17.41-18.3,17.41-18.31c1.17,1.11-.23,5.15-2,6.73,0,0,5.14,2.65,6.13,8.15s-.88,29.78-5.48,34.62-16.2,6.92-19.9,7.78-11-3-14-13.12c0,0,1.45-5.06.25-9.23s-2.29-7.23-3.85-7.77-5.41,3.49-5.74,5.3a11.35,11.35,0,0,0,.4,4.29A1.45,1.45,0,0,1,519.42,157.71Z" transform="translate(-14.72 -5.99)"/><path class="cls-1" d="M659.32,312.79a1.14,1.14,0,0,0-2.28,0v2.68h-2.69a1.15,1.15,0,0,0,0,2.29H657v2.68a1.14,1.14,0,1,0,2.28,0v-2.68H662a1.15,1.15,0,1,0,0-2.29h-2.68Z" transform="translate(-14.72 -5.99)"/><path class="cls-1" d="M590.82,76.27a1.15,1.15,0,1,0-2.29,0V79h-2.68a1.14,1.14,0,1,0,0,2.28h2.68v2.69a1.15,1.15,0,0,0,2.29,0V81.23h2.68a1.14,1.14,0,0,0,0-2.28h-2.68Z" transform="translate(-14.72 -5.99)"/><path class="cls-1" d="M461.57,33.61a1.14,1.14,0,0,0-2.28,0V36.3H456.6a1.14,1.14,0,1,0,0,2.28h2.69v2.69a1.14,1.14,0,1,0,2.28,0V38.58h2.68a1.14,1.14,0,0,0,0-2.28h-2.68Z" transform="translate(-14.72 -5.99)"/><path class="cls-1" d="M142.33,261.09a1.15,1.15,0,0,0-2.29,0v2.68h-2.68a1.15,1.15,0,0,0,0,2.29H140v2.68a1.15,1.15,0,0,0,2.29,0v-2.68H145a1.15,1.15,0,0,0,0-2.29h-2.68Z" transform="translate(-14.72 -5.99)"/><path class="cls-1" d="M253.48,113.75a1.14,1.14,0,1,0-2.28,0v2.68h-2.69a1.14,1.14,0,1,0,0,2.28h2.69v2.69a1.14,1.14,0,1,0,2.28,0v-2.69h2.68a1.14,1.14,0,1,0,0-2.28h-2.68Z" transform="translate(-14.72 -5.99)"/><path class="cls-1" d="M122.94,369.66a1.14,1.14,0,0,0-2.28,0v2.68H118a1.15,1.15,0,0,0,0,2.29h2.69v2.68a1.14,1.14,0,0,0,2.28,0v-2.68h2.68a1.15,1.15,0,0,0,0-2.29h-2.68Z" transform="translate(-14.72 -5.99)"/><path class="cls-1" d="M20.83,286.94a1.14,1.14,0,1,0-2.28,0v2.68H15.87a1.15,1.15,0,1,0,0,2.29h2.68v2.68a1.14,1.14,0,1,0,2.28,0v-2.68h2.69a1.15,1.15,0,0,0,0-2.29H20.83Z" transform="translate(-14.72 -5.99)"/><path class="cls-33" d="M297.56,282.59c16.17-8.59,20.28,10.11,14,25.61S273,375.79,271.3,396.46c-.65,8-2.15,7.13-3.42,1.52C261.5,370,275.29,294.43,297.56,282.59Z" transform="translate(-14.72 -5.99)"/><path class="cls-34" d="M263.3,211.61c-18.55-16.7-30.15,6.68-26.94,29.23s28.68,102.08,24.1,130c-1.78,10.81.48,10.14,4,3.14C282.15,339,288.84,234.6,263.3,211.61Z" transform="translate(-14.72 -5.99)"/><path class="cls-35" d="M260.07,378.54c.4,1,1.28.52,2.46-1.2,19.33-64.41-10.79-160.63-10.88-160.94a1,1,0,1,0-1.92.6C249.83,217.31,280.35,314.84,260.07,378.54Z" transform="translate(-14.72 -5.99)"/><path class="cls-33" d="M222.78,265.12C204.81,257.3,202,277.6,210,293.6s46.77,68.9,50.29,90.8c1.37,8.49,2.89,7.43,3.78,1.34C268.53,355.32,247.53,275.89,222.78,265.12Z" transform="translate(-14.72 -5.99)"/><polygon class="cls-6" points="233.37 372.59 267.9 372.59 276.92 380.73 269.55 409.1 250.64 409.1 231.72 409.1 224.35 380.73 233.37 372.59"/><rect class="cls-8" x="221.5" y="362.03" width="58.28" height="18.69" rx="2.86"/><polygon class="cls-9" points="276.92 380.73 275.4 386.56 225.87 386.56 224.35 380.73 276.92 380.73"/></svg>