<svg xmlns="http://www.w3.org/2000/svg" width="16" height="16" viewBox="0 0 20 20" fill="none">
  <path
    d="M15.0001 14.9025V13.3332L19.1667 15.8332L15.0001 18.3332V16.5911C12.4354 16.2247 10.2095 14.5485 9.16916 12.1209L9.16675 12.1153L9.16433 12.1209C7.98252 14.8785 5.27098 16.6665 2.27077 16.6665H1.66675V14.9998H2.27077C4.60427 14.9998 6.71324 13.6092 7.63246 11.4643L8.26011 9.99984L7.63246 8.53534C6.71324 6.39049 4.60427 4.99984 2.27077 4.99984H1.66675V3.33317H2.27077C5.27098 3.33317 7.98252 5.12115 9.16433 7.87878L9.16675 7.88435L9.16916 7.87878C10.2095 5.45117 12.4354 3.77502 15.0001 3.4086V1.6665L19.1667 4.1665L15.0001 6.6665V5.0972C13.1056 5.44786 11.4782 6.72209 10.7011 8.53534L10.0734 9.99984L10.7011 11.4643C11.4782 13.2776 13.1056 14.5518 15.0001 14.9025Z"
    fill="currentColor"
  />
</svg>
