<svg xmlns="http://www.w3.org/2000/svg" width="16" height="16" viewBox="0 0 20 20" fill="none">
  <path
    d="M10.8333 3.33317C8.67458 3.33317 6.75505 4.35861 5.53562 5.95212L7.5 7.9165H2.5V2.9165L4.34886 4.76536C5.87551 2.8765 8.21298 1.6665 10.8333 1.6665C15.4357 1.6665 19.1667 5.39746 19.1667 9.99984H17.5C17.5 6.31794 14.5153 3.33317 10.8333 3.33317ZM4.16667 9.99984C4.16667 13.6818 7.15143 16.6665 10.8333 16.6665C12.9921 16.6665 14.9117 15.6411 16.1311 14.0476L14.1667 12.0832H19.1667V17.0832L17.3178 15.2343C15.7912 17.1232 13.4537 18.3332 10.8333 18.3332C6.23096 18.3332 2.5 14.6022 2.5 9.99984H4.16667Z"
    fill="currentColor"
  />
</svg>
