<svg width="56" height="56" viewBox="0 0 56 56" fill="none" xmlns="http://www.w3.org/2000/svg">
<rect width="56" height="56" rx="28" fill="#383838"/>
<path d="M38.6667 26.8149V23.2593C38.6667 22.6306 38.417 22.0277 37.9724 21.5832C37.5279 21.1387 36.925 20.8889 36.2963 20.8889H29.1852M29.1852 20.8889L32.7408 24.4445M29.1852 20.8889L32.7408 17.3334M17.3334 29.1852V32.7408C17.3334 33.3694 17.5831 33.9724 18.0276 34.4169C18.4722 34.8614 19.0751 35.1112 19.7037 35.1112H26.8149M26.8149 35.1112L23.2593 31.5556M26.8149 35.1112L23.2593 38.6667M17.3334 18.5186C17.3334 18.2042 17.4582 17.9028 17.6805 17.6805C17.9028 17.4582 18.2042 17.3334 18.5186 17.3334H23.2593C23.5736 17.3334 23.8751 17.4582 24.0974 17.6805C24.3196 17.9028 24.4445 18.2042 24.4445 18.5186V23.2593C24.4445 23.5736 24.3196 23.8751 24.0974 24.0974C23.8751 24.3196 23.5736 24.4445 23.2593 24.4445H18.5186C18.2042 24.4445 17.9028 24.3196 17.6805 24.0974C17.4582 23.8751 17.3334 23.5736 17.3334 23.2593V18.5186ZM31.5556 32.7408C31.5556 32.4265 31.6805 32.125 31.9027 31.9027C32.125 31.6805 32.4265 31.5556 32.7408 31.5556H37.4815C37.7959 31.5556 38.0973 31.6805 38.3196 31.9027C38.5418 32.125 38.6667 32.4265 38.6667 32.7408V37.4815C38.6667 37.7959 38.5418 38.0973 38.3196 38.3196C38.0973 38.5418 37.7959 38.6667 37.4815 38.6667H32.7408C32.4265 38.6667 32.125 38.5418 31.9027 38.3196C31.6805 38.0973 31.5556 37.7959 31.5556 37.4815V32.7408Z" stroke="#BCBCBC" stroke-width="2.33333" stroke-linecap="round" stroke-linejoin="round"/>
</svg>
