<svg xmlns="http://www.w3.org/2000/svg" width="29" height="29" viewBox="0 0 29 29" fill="none">
  <path fill-rule="evenodd" clip-rule="evenodd" d="M25.5 25.084H21.1V17.3851C21.1 15.2731 20.1683 14.0947 18.4974 14.0947C16.6791 14.0947 15.6 15.3226 15.6 17.3851V25.084H11.2V10.784H15.6V12.3921C15.6 12.3921 16.9805 9.96973 20.0913 9.96973C23.2032 9.96973 25.5 11.8687 25.5 15.7979V25.084ZM6.1862 8.49697C4.7023 8.49697 3.5 7.28484 3.5 5.78994C3.5 4.29614 4.7023 3.08398 6.1862 3.08398C7.669 3.08398 8.8713 4.29614 8.8713 5.78994C8.8724 7.28484 7.669 8.49697 6.1862 8.49697ZM3.5 25.084H9V10.784H3.5V25.084Z" fill="white"/>
</svg>
