<svg width="212" height="212" viewBox="0 0 212 212" fill="none" xmlns="http://www.w3.org/2000/svg">
<g clip-path="url(#clip0_884_22188)">
<path opacity="0.23" d="M61.9252 153.476H18.0073V211.997H61.9252V153.476Z" fill="url(#paint0_linear_884_22188)"/>
<path opacity="0.23" d="M195.492 0H151.574V40.9974H195.492V0Z" fill="url(#paint1_linear_884_22188)"/>
<path opacity="0.23" d="M204.917 28.7109H186.067V112.263H204.917V28.7109Z" fill="url(#paint2_linear_884_22188)"/>
<path opacity="0.23" d="M36.4396 134.57H-0.000183105V161.101H36.4396V134.57Z" fill="url(#paint3_linear_884_22188)"/>
<path opacity="0.23" d="M66.677 24.2773H6.38037V34.9706H66.677V24.2773Z" fill="url(#paint4_linear_884_22188)"/>
<path opacity="0.23" d="M156.436 186.156H114.489V199.422H156.436V186.156Z" fill="url(#paint5_linear_884_22188)"/>
<path d="M106 165.525C138.875 165.525 165.526 138.874 165.526 105.999C165.526 73.1235 138.875 46.4727 106 46.4727C73.1246 46.4727 46.4738 73.1235 46.4738 105.999C46.4738 138.874 73.1246 165.525 106 165.525Z" stroke="url(#paint6_linear_884_22188)" stroke-width="2.12" stroke-miterlimit="10" stroke-linecap="round" stroke-linejoin="round"/>
<path d="M149.803 161.91C137.735 171.376 122.527 177.021 106 177.021C97.188 177.021 88.7512 175.416 80.9653 172.484C64.1694 166.156 50.4034 153.647 42.4407 137.729" stroke="url(#paint7_linear_884_22188)" stroke-width="2.12" stroke-miterlimit="10" stroke-linecap="round" stroke-linejoin="round"/>
<path d="M151.574 51.5205C155.685 54.9634 159.401 58.8633 162.643 63.1415C171.67 75.0533 177.026 89.9005 177.026 105.999" stroke="url(#paint8_linear_884_22188)" stroke-width="2.12" stroke-miterlimit="10" stroke-linecap="round" stroke-linejoin="round"/>
<path d="M34.9751 106C34.9751 84.3728 44.641 65.0036 59.8885 51.9766C65.5557 47.1345 71.9941 43.1688 78.9944 40.289C87.3201 36.8635 96.4394 34.9746 106 34.9746" stroke="url(#paint9_linear_884_22188)" stroke-width="2.12" stroke-miterlimit="10" stroke-linecap="round" stroke-linejoin="round"/>
<path d="M67.5342 158.401C56.2596 150.112 47.758 138.272 43.6774 124.529" stroke="url(#paint10_linear_884_22188)" stroke-width="2.12" stroke-miterlimit="10" stroke-linecap="round" stroke-linejoin="round"/>
<path d="M168.08 125.329C159.85 151.79 135.169 171.002 106 171.002" stroke="url(#paint11_linear_884_22188)" stroke-width="2.12" stroke-miterlimit="10" stroke-linecap="round" stroke-linejoin="round"/>
<path d="M106 40.9941C134.483 40.9941 158.688 59.3139 167.473 84.8133" stroke="url(#paint12_linear_884_22188)" stroke-width="2.12" stroke-miterlimit="10" stroke-linecap="round" stroke-linejoin="round"/>
<path d="M55.5219 65.0412C63.3396 55.4181 73.8544 48.0735 85.9147 44.1592" stroke="url(#paint13_linear_884_22188)" stroke-width="2.12" stroke-miterlimit="10" stroke-linecap="round" stroke-linejoin="round"/>
<path d="M106 63.1445L69.1854 73.9854V108.215C69.1854 121.25 75.7196 133.418 86.5863 140.617L106 153.48L125.414 140.617C136.28 133.418 142.815 121.25 142.815 108.215V73.9854L106 63.1445ZM93.5455 116.901L99.5294 107.657C96.8382 105.671 95.0918 102.478 95.0918 98.8763C95.0918 92.8517 99.9758 87.9676 106 87.9676C112.025 87.9676 116.909 92.8517 116.909 98.8763C116.909 102.478 115.163 105.671 112.472 107.657L118.455 116.901H93.5455Z" fill="url(#paint14_linear_884_22188)"/>
<path opacity="0.24" d="M106 68.7871L73.7844 78.2737V108.227C73.7844 119.634 79.5024 130.281 89.0115 136.581L106 147.836L122.988 136.581C132.497 130.281 138.215 119.634 138.215 108.227V78.2737L106 68.7871ZM93.5453 116.901L99.5292 107.657C96.8381 105.67 95.0916 102.477 95.0916 98.8759C95.0916 92.8512 99.9757 87.9672 106 87.9672C112.025 87.9672 116.909 92.8512 116.909 98.8759C116.909 102.478 115.163 105.67 112.471 107.657L118.455 116.901H93.5453Z" fill="url(#paint15_linear_884_22188)"/>
<path d="M11.5962 93.6719V184.714" stroke="url(#paint16_linear_884_22188)" stroke-width="0.848" stroke-miterlimit="10" stroke-linecap="round" stroke-linejoin="round"/>
<path d="M25.0597 211.995V197.536" stroke="url(#paint17_linear_884_22188)" stroke-width="0.424" stroke-miterlimit="10" stroke-linecap="round" stroke-linejoin="round"/>
<path d="M97.5087 189.847V211.999" stroke="url(#paint18_linear_884_22188)" stroke-width="0.848" stroke-miterlimit="10" stroke-linecap="round" stroke-linejoin="round"/>
<path d="M137.04 0V32.0896" stroke="url(#paint19_linear_884_22188)" stroke-width="0.848" stroke-miterlimit="10" stroke-linecap="round" stroke-linejoin="round"/>
<path d="M200.732 83.418V184.718" stroke="url(#paint20_linear_884_22188)" stroke-width="0.848" stroke-miterlimit="10" stroke-linecap="round" stroke-linejoin="round"/>
<path d="M31.7915 6.80176V65.0419" stroke="url(#paint21_linear_884_22188)" stroke-width="0.424" stroke-miterlimit="10" stroke-linecap="round" stroke-linejoin="round"/>
<path d="M46.4738 0V9.36658" stroke="url(#paint22_linear_884_22188)" stroke-width="0.848" stroke-miterlimit="10" stroke-linecap="round" stroke-linejoin="round"/>
<path d="M194 168.047V200.922" stroke="url(#paint23_linear_884_22188)" stroke-width="0.424" stroke-miterlimit="10" stroke-linecap="round" stroke-linejoin="round"/>
<path d="M61.9252 106V130.863" stroke="url(#paint24_linear_884_22188)" stroke-width="0.424" stroke-miterlimit="10" stroke-linecap="round" stroke-linejoin="round"/>
<path d="M151.574 82.1357V93.6762" stroke="url(#paint25_linear_884_22188)" stroke-width="0.848" stroke-miterlimit="10" stroke-linecap="round" stroke-linejoin="round"/>
</g>
<defs>
<linearGradient id="paint0_linear_884_22188" x1="39.9662" y1="154.631" x2="39.9662" y2="211.036" gradientUnits="userSpaceOnUse">
<stop stop-color="#22408D"/>
<stop offset="1" stop-color="#38C0E5"/>
</linearGradient>
<linearGradient id="paint1_linear_884_22188" x1="173.533" y1="0.809119" x2="173.533" y2="40.3244" gradientUnits="userSpaceOnUse">
<stop stop-color="#22408D"/>
<stop offset="1" stop-color="#38C0E5"/>
</linearGradient>
<linearGradient id="paint2_linear_884_22188" x1="195.492" y1="30.36" x2="195.492" y2="110.892" gradientUnits="userSpaceOnUse">
<stop stop-color="#22408D"/>
<stop offset="1" stop-color="#38C0E5"/>
</linearGradient>
<linearGradient id="paint3_linear_884_22188" x1="18.2198" y1="135.094" x2="18.2198" y2="160.666" gradientUnits="userSpaceOnUse">
<stop stop-color="#22408D"/>
<stop offset="1" stop-color="#38C0E5"/>
</linearGradient>
<linearGradient id="paint4_linear_884_22188" x1="36.5287" y1="24.4884" x2="36.5287" y2="34.795" gradientUnits="userSpaceOnUse">
<stop stop-color="#22408D"/>
<stop offset="1" stop-color="#38C0E5"/>
</linearGradient>
<linearGradient id="paint5_linear_884_22188" x1="135.462" y1="186.418" x2="135.462" y2="199.204" gradientUnits="userSpaceOnUse">
<stop stop-color="#22408D"/>
<stop offset="1" stop-color="#38C0E5"/>
</linearGradient>
<linearGradient id="paint6_linear_884_22188" x1="91.4014" y1="164.814" x2="120.599" y2="47.1834" gradientUnits="userSpaceOnUse">
<stop stop-color="#22408D"/>
<stop offset="1" stop-color="#38C0E5"/>
</linearGradient>
<linearGradient id="paint7_linear_884_22188" x1="89.5717" y1="176.208" x2="96.6655" y2="147.628" gradientUnits="userSpaceOnUse">
<stop stop-color="#22408D"/>
<stop offset="1" stop-color="#38C0E5"/>
</linearGradient>
<linearGradient id="paint8_linear_884_22188" x1="158.414" y1="102.471" x2="170.185" y2="55.0478" gradientUnits="userSpaceOnUse">
<stop stop-color="#22408D"/>
<stop offset="1" stop-color="#38C0E5"/>
</linearGradient>
<linearGradient id="paint9_linear_884_22188" x1="58.8451" y1="113.017" x2="80.0838" y2="27.4496" gradientUnits="userSpaceOnUse">
<stop stop-color="#22408D"/>
<stop offset="1" stop-color="#38C0E5"/>
</linearGradient>
<linearGradient id="paint10_linear_884_22188" x1="52.0832" y1="155.658" x2="59.1289" y2="127.272" gradientUnits="userSpaceOnUse">
<stop stop-color="#22408D"/>
<stop offset="1" stop-color="#38C0E5"/>
</linearGradient>
<linearGradient id="paint11_linear_884_22188" x1="129.644" y1="177.963" x2="144.436" y2="118.368" gradientUnits="userSpaceOnUse">
<stop stop-color="#22408D"/>
<stop offset="1" stop-color="#38C0E5"/>
</linearGradient>
<linearGradient id="paint12_linear_884_22188" x1="133.142" y1="77.3843" x2="140.796" y2="46.5505" gradientUnits="userSpaceOnUse">
<stop stop-color="#22408D"/>
<stop offset="1" stop-color="#38C0E5"/>
</linearGradient>
<linearGradient id="paint13_linear_884_22188" x1="67.1398" y1="69.017" x2="74.2966" y2="40.1833" gradientUnits="userSpaceOnUse">
<stop stop-color="#22408D"/>
<stop offset="1" stop-color="#38C0E5"/>
</linearGradient>
<linearGradient id="paint14_linear_884_22188" x1="92.9587" y1="146.019" x2="110.825" y2="74.0391" gradientUnits="userSpaceOnUse">
<stop stop-color="#22408D"/>
<stop offset="1" stop-color="#38C0E5"/>
</linearGradient>
<linearGradient id="paint15_linear_884_22188" x1="112.672" y1="86.482" x2="85.1295" y2="133.477" gradientUnits="userSpaceOnUse">
<stop stop-color="white" stop-opacity="0"/>
<stop offset="1" stop-color="white"/>
</linearGradient>
<linearGradient id="paint16_linear_884_22188" x1="nan" y1="nan" x2="nan" y2="nan" gradientUnits="userSpaceOnUse">
<stop stop-color="#22408D"/>
<stop offset="1" stop-color="#38C0E5"/>
</linearGradient>
<linearGradient id="paint17_linear_884_22188" x1="nan" y1="nan" x2="nan" y2="nan" gradientUnits="userSpaceOnUse">
<stop stop-color="#22408D"/>
<stop offset="1" stop-color="#38C0E5"/>
</linearGradient>
<linearGradient id="paint18_linear_884_22188" x1="nan" y1="nan" x2="nan" y2="nan" gradientUnits="userSpaceOnUse">
<stop stop-color="#22408D"/>
<stop offset="1" stop-color="#38C0E5"/>
</linearGradient>
<linearGradient id="paint19_linear_884_22188" x1="nan" y1="nan" x2="nan" y2="nan" gradientUnits="userSpaceOnUse">
<stop stop-color="#22408D"/>
<stop offset="1" stop-color="#38C0E5"/>
</linearGradient>
<linearGradient id="paint20_linear_884_22188" x1="nan" y1="nan" x2="nan" y2="nan" gradientUnits="userSpaceOnUse">
<stop stop-color="#22408D"/>
<stop offset="1" stop-color="#38C0E5"/>
</linearGradient>
<linearGradient id="paint21_linear_884_22188" x1="nan" y1="nan" x2="nan" y2="nan" gradientUnits="userSpaceOnUse">
<stop stop-color="#22408D"/>
<stop offset="1" stop-color="#38C0E5"/>
</linearGradient>
<linearGradient id="paint22_linear_884_22188" x1="nan" y1="nan" x2="nan" y2="nan" gradientUnits="userSpaceOnUse">
<stop stop-color="#22408D"/>
<stop offset="1" stop-color="#38C0E5"/>
</linearGradient>
<linearGradient id="paint23_linear_884_22188" x1="nan" y1="nan" x2="nan" y2="nan" gradientUnits="userSpaceOnUse">
<stop stop-color="#22408D"/>
<stop offset="1" stop-color="#38C0E5"/>
</linearGradient>
<linearGradient id="paint24_linear_884_22188" x1="nan" y1="nan" x2="nan" y2="nan" gradientUnits="userSpaceOnUse">
<stop stop-color="#22408D"/>
<stop offset="1" stop-color="#38C0E5"/>
</linearGradient>
<linearGradient id="paint25_linear_884_22188" x1="nan" y1="nan" x2="nan" y2="nan" gradientUnits="userSpaceOnUse">
<stop stop-color="#22408D"/>
<stop offset="1" stop-color="#38C0E5"/>
</linearGradient>
<clipPath id="clip0_884_22188">
<rect width="212" height="212" fill="white"/>
</clipPath>
</defs>
</svg>
