<svg width="606" height="152" viewBox="0 0 606 152" fill="none" xmlns="http://www.w3.org/2000/svg">
<path d="M366.301 149.639V135.12H372.906V149.639H366.301ZM433.872 99.6566C433.668 96.5526 432.858 93.6706 431.637 91.2326C430.415 88.7946 428.795 86.8006 426.759 85.1376C424.67 83.4186 422.285 82.175 419.747 81.4806C416.997 80.6731 414.161 80.2632 411.314 80.2617C407.52 80.2383 403.769 81.1475 400.342 82.9217C397.185 84.6065 394.462 87.1196 392.415 90.2356C390.28 93.2265 388.655 96.7704 387.538 100.654C386.42 104.537 385.913 108.52 385.913 112.735C385.913 117.611 386.42 122.042 387.438 126.143C388.452 130.249 390.08 133.901 392.212 136.897C394.338 139.873 397.046 142.296 400.138 143.989C403.391 145.652 407.151 146.54 411.314 146.54C414.463 146.54 417.308 145.982 419.851 144.877C422.493 143.766 424.828 142.217 426.859 140.223C428.891 138.229 430.623 135.9 431.84 133.126C433.058 130.353 433.975 127.254 434.482 124.036H439.36C438.909 128.059 437.808 131.962 436.107 135.564C434.557 138.814 432.453 141.712 429.909 144.102C427.469 146.441 424.64 148.247 421.575 149.422C418.426 150.636 415.073 151.194 411.517 151.194C406.033 151.194 401.455 150.083 397.596 148.094C393.736 145.874 390.587 143.214 388.149 139.557C385.71 136.009 383.882 131.908 382.661 127.254C381.518 122.514 380.937 117.635 380.933 112.735C380.933 107.75 381.543 102.87 382.968 98.3245C384.285 93.8926 386.217 89.9047 388.859 86.5786C391.501 83.2526 394.55 80.4795 398.41 78.5986C402.173 76.6005 406.54 75.6035 411.517 75.6035C415.073 75.6035 418.53 76.1606 421.579 77.0445C424.728 78.0415 427.57 79.4825 429.912 81.4806C432.371 83.4621 434.413 85.9927 435.903 88.9035C437.428 91.8986 438.342 95.4425 438.749 99.6566H433.975H433.872ZM446.572 113.51C446.572 108.303 447.186 103.422 448.607 98.9906C449.928 94.5586 451.856 90.4576 454.498 86.9096C457.084 83.4085 460.345 80.5711 464.049 78.5986C467.813 76.6005 472.179 75.6035 477.156 75.6035C482.034 75.6035 486.404 76.6005 490.264 78.5986C493.99 80.5336 497.259 83.3771 499.818 86.9096C502.457 90.4576 504.288 94.3366 505.709 98.9906C507.031 103.645 507.745 108.303 507.745 113.51C507.745 118.721 507.13 123.597 505.709 128.142C504.49 132.551 502.489 136.656 499.818 140.223C497.222 143.658 493.958 146.42 490.264 148.312C486.508 150.305 482.137 151.302 477.156 151.302C472.279 151.302 467.913 150.305 464.049 148.312C460.377 146.383 457.122 143.626 454.498 140.223C451.96 136.897 449.928 132.796 448.607 128.142C447.186 123.597 446.572 118.608 446.572 113.51ZM451.349 113.51C451.349 117.833 451.856 121.929 452.974 126.035C454.04 129.82 455.689 133.38 457.851 136.561C459.969 139.605 462.675 142.103 465.777 143.88C469.03 145.652 472.586 146.54 476.753 146.54C480.548 146.575 484.301 145.666 487.725 143.88C490.861 142.158 493.577 139.65 495.652 136.561C497.813 133.38 499.463 129.82 500.529 126.035C501.642 122.156 502.153 117.941 502.153 113.51C502.153 109.078 501.543 105.09 500.529 100.985C499.411 97.1055 497.783 93.5616 495.652 90.4576C493.52 87.3536 490.774 84.9156 487.725 83.1395C484.472 81.3675 480.916 80.4795 476.753 80.4795C472.957 80.443 469.203 81.3528 465.777 83.1395C462.642 84.8609 459.925 87.3689 457.851 90.4576C455.689 93.6392 454.04 97.199 452.974 100.985C451.96 105.09 451.349 109.187 451.349 113.51V113.51ZM517.803 77.3796H522.68V92.1206H522.883C523.372 89.7906 524.307 87.5994 525.626 85.6906C526.843 83.6966 528.467 81.9205 530.403 80.3706C532.297 78.8632 534.384 77.6677 536.597 76.8225C538.933 76.0241 541.366 75.6146 543.813 75.6077C547.066 75.6077 549.808 76.0475 552.043 76.9356C554.382 77.9326 556.414 78.9296 558.038 80.4795C559.663 82.0294 560.984 83.5835 561.901 85.3596C562.915 87.1316 563.526 89.0166 563.933 90.9016H564.137C566.168 85.9126 568.707 82.0336 572.059 79.4825C575.416 76.9356 579.782 75.6035 585.17 75.6035C588.116 75.6035 591.061 76.1606 593.504 77.0445C595.939 78.0415 598.277 79.4825 600.105 81.4806C601.933 83.4788 603.358 86.1304 604.476 89.1255C605.489 92.2295 606 95.8865 606 100.101V149.309H601.015V99.7655C601.015 95.1116 600.405 91.6766 598.98 88.9035C597.763 86.3566 596.138 84.2537 594.41 82.9217C592.682 81.5896 590.954 80.7015 589.026 80.3706C587.298 80.1486 585.877 79.8176 584.963 79.8176C582.013 79.8176 579.068 80.3706 576.629 81.4806C574.138 82.632 571.89 84.3286 570.024 86.4655C568.196 88.7946 566.775 91.4504 565.657 94.8895C564.64 98.3245 564.133 102.095 564.133 106.305V149.309H559.256V99.7655C559.256 95.3336 558.641 91.6766 557.424 89.0166C556.206 86.3566 554.682 84.3627 553.057 83.0306C551.429 81.7027 549.705 80.8104 547.873 80.4795C546.476 80.1143 545.046 79.9287 543.61 79.9265C541.267 79.9265 538.832 80.4795 536.39 81.3675C533.955 82.4776 531.616 83.9186 529.585 86.1346C527.549 88.3506 525.821 91.0106 524.604 94.4455C523.387 97.8805 522.572 101.759 522.572 106.418V149.313H517.695V77.1534H517.799L517.803 77.3796Z" fill="#676767"/>
<path d="M202.913 2.90083C195.8 7.00184 193.262 13.7628 193.262 32.4917C193.262 32.4917 196.818 28.7217 202.102 26.6188C205.962 25.1778 209.215 22.8487 211.142 21.2988C217.137 16.5318 217.951 10.4326 217.951 0.127732C217.951 0.127732 208.197 -0.207386 202.913 2.90083V2.90083Z" fill="#676767"/>
<path d="M161.256 7.3321C155.565 12.8741 153.837 21.6291 153.837 21.6291L134.735 101.651L118.986 36.0391C117.461 29.1692 114.615 20.4143 110.245 14.646C104.761 7.3321 93.4819 6.88807 92.2607 6.88807C91.0394 6.88807 79.6643 7.3321 74.0727 14.7591C69.7024 20.6321 66.8606 29.2781 65.3359 36.148L49.5866 101.76L30.6844 21.6291C30.6844 21.6291 29.06 12.761 23.2725 7.3321C13.9213 -1.64487 0 0.240167 0 0.240167L36.276 150.302C36.276 150.302 48.2656 151.299 54.2604 147.864C62.0832 143.541 65.9427 140.106 70.7201 119.601C74.9867 101.425 86.8765 48.0028 87.994 44.1239C88.5009 42.2388 89.2114 37.698 92.2607 37.698C95.4097 37.698 96.0242 42.1299 96.5273 44.1239C97.6448 47.8939 109.431 101.429 113.801 119.601C118.579 139.997 122.338 143.319 130.265 147.864C136.256 151.299 148.249 150.302 148.249 150.302L184.521 0.34908C184.521 0.34908 170.604 -1.53596 161.256 7.3321ZM217.952 24.7331C217.952 24.7331 215.716 28.5032 210.536 31.825C207.183 33.8232 204.03 35.26 200.578 37.0361C194.886 40.027 193.262 43.462 193.262 48.56V150.31C193.262 150.31 202.506 151.525 208.401 148.312C216.12 143.989 217.848 139.892 217.952 121.159V24.7331ZM308.588 75.604L354.618 0.680009C354.618 0.680009 335.209 -2.97696 325.558 6.67024C319.36 12.761 312.447 23.7361 312.447 23.7361L295.58 50.5581C294.666 51.886 293.752 53.4401 292.024 53.4401C290.296 53.4401 289.182 51.9991 288.468 50.5581L271.398 23.845C271.398 23.845 264.593 12.8699 258.291 6.77915C248.74 -2.86386 229.231 0.788923 229.231 0.788923L275.361 75.4951L229.231 150.084C229.231 150.084 249.554 152.966 259.105 143.323C265.303 137.228 271.298 127.141 271.298 127.141L288.165 100.432C289.079 99.0999 289.993 97.55 291.721 97.55C293.449 97.55 294.563 98.991 295.277 100.432L312.144 127.141C312.144 127.141 318.442 137.006 324.541 143.323C334.092 152.966 354.111 150.084 354.111 150.084L308.588 75.604Z" fill="#676767"/>
</svg>
