<svg width="44" height="24" viewBox="0 0 44 24" fill="none" xmlns="http://www.w3.org/2000/svg">
<g clip-path="url(#clip0_9209_8182)">
<path d="M31.5002 23.3895C37.7906 23.3895 42.89 18.2901 42.89 11.9997C42.89 5.70926 37.7906 0.609863 31.5002 0.609863C25.2098 0.609863 20.1104 5.70926 20.1104 11.9997C20.1104 18.2901 25.2098 23.3895 31.5002 23.3895Z" fill="white"/>
<path d="M31.5 0C24.8726 0 19.5 5.37258 19.5 12C19.5 18.6275 24.8726 24 31.5 24C38.1275 24 43.5 18.6275 43.5 12C43.5 5.37258 38.1275 0 31.5 0ZM31.5 1.22034C37.4534 1.22034 42.2797 6.04656 42.2797 12C42.2797 17.9534 37.4534 22.7797 31.5 22.7797C25.5466 22.7797 20.7203 17.9534 20.7203 12C20.7203 6.04656 25.5466 1.22034 31.5 1.22034Z" fill="#4000BF"/>
<path d="M31.6354 3.45752C36.3533 3.45752 40.1778 7.28207 40.1778 11.9999C40.1778 16.7177 36.3533 20.5422 31.6354 20.5422C26.9176 20.5422 23.093 16.7177 23.093 11.9999C23.093 10.8469 23.3215 9.74727 23.7355 8.74369C24.3401 9.56704 25.3152 10.1016 26.4151 10.1016C28.2498 10.1016 29.737 8.61424 29.737 6.77955C29.737 5.67968 29.2026 4.70465 28.3792 4.10004C29.3827 3.68595 30.4824 3.45752 31.6354 3.45752Z" fill="url(#paint0_linear_9209_8182)"/>
</g>
<g clip-path="url(#clip1_9209_8182)">
<path d="M13.9596 0.693292C20.1928 1.49097 24.6044 7.20044 23.8068 13.4471C22.9972 19.6934 17.287 24.1041 11.0413 23.3068C4.80706 22.4975 0.395426 16.7752 1.19329 10.5404C1.99087 4.30793 7.72382 -0.104701 13.9596 0.693292Z" fill="#FF6C37" stroke="white" stroke-width="1.2"/>
<path d="M15.8379 8.66572L11.9971 12.5065L10.9141 11.4235C14.6911 7.64637 15.0643 7.97402 15.8379 8.66572Z" fill="white"/>
<path d="M11.9974 12.598C11.9701 12.598 11.9519 12.5889 11.9337 12.5707L10.8415 11.4876C10.8051 11.4512 10.8051 11.3966 10.8415 11.3602C14.6823 7.5194 15.0828 7.88345 15.8928 8.61156C15.911 8.62977 15.9201 8.64797 15.9201 8.67527C15.9201 8.70258 15.911 8.72078 15.8928 8.73898L12.052 12.5707C12.0429 12.5889 12.0156 12.598 11.9974 12.598ZM11.0417 11.4239L11.9974 12.3795L15.7017 8.67527C15.0282 8.07458 14.5731 7.89255 11.0417 11.4239Z" fill="#FF6C37"/>
<path d="M13.0984 13.6082L12.0518 12.5615L15.8926 8.7207C16.921 9.75826 15.3829 11.442 13.0984 13.6082Z" fill="white"/>
<path d="M13.0985 13.6994C13.0712 13.6994 13.053 13.6903 13.0348 13.6721L11.9882 12.6254C11.97 12.6072 11.97 12.589 11.97 12.5617C11.97 12.5344 11.9791 12.5162 11.9973 12.498L15.8381 8.65719C15.8745 8.62078 15.9291 8.62078 15.9655 8.65719C16.2021 8.87562 16.3295 9.18507 16.3204 9.50362C16.3022 10.5139 15.1555 11.7972 13.1714 13.6721C13.1441 13.6903 13.1167 13.6994 13.0985 13.6994ZM12.1793 12.5617C12.7618 13.1533 13.0075 13.3899 13.0985 13.4809C14.6276 12.0247 16.1111 10.5321 16.1202 9.50362C16.1293 9.26698 16.0383 9.03035 15.8836 8.84832L12.1793 12.5617Z" fill="#FF6C37"/>
<path d="M10.9329 11.4508L11.7065 12.2245C11.7247 12.2427 11.7247 12.2609 11.7065 12.2791C11.6974 12.2882 11.6974 12.2882 11.6883 12.2882L10.0864 12.634C10.0045 12.6431 9.9317 12.5885 9.9135 12.5066C9.9044 12.4611 9.9226 12.4156 9.94991 12.3883L10.8783 11.4599C10.8965 11.4417 10.9238 11.4326 10.9329 11.4508Z" fill="white"/>
<path d="M10.0587 12.7254C9.92214 12.7254 9.82202 12.6162 9.82202 12.4796C9.82202 12.4159 9.84933 12.3522 9.89483 12.3067L10.8232 11.3784C10.8778 11.3329 10.9506 11.3329 11.0052 11.3784L11.7788 12.152C11.8334 12.1975 11.8334 12.2794 11.7788 12.334C11.7606 12.3522 11.7424 12.3613 11.7151 12.3704L10.1133 12.7163C10.0951 12.7163 10.0769 12.7254 10.0587 12.7254ZM10.9051 11.5513L10.0132 12.4432C9.99495 12.4614 9.98585 12.4887 10.004 12.516C10.0132 12.5433 10.0405 12.5525 10.0678 12.5433L11.5695 12.2157L10.9051 11.5513Z" fill="#FF6C37"/>
<path d="M17.8673 6.53652C17.2848 5.97223 16.3474 5.99043 15.7831 6.58203C15.2188 7.17362 15.237 8.10196 15.8286 8.66625C16.311 9.13042 17.0391 9.21234 17.6125 8.86648L16.5749 7.82892L17.8673 6.53652Z" fill="white"/>
<path d="M16.8482 9.16653C15.9835 9.16653 15.2827 8.46572 15.2827 7.60109C15.2827 6.73645 15.9835 6.03564 16.8482 6.03564C17.2486 6.03564 17.64 6.19037 17.9312 6.47251C17.9494 6.49072 17.9585 6.50892 17.9585 6.53622C17.9585 6.56353 17.9494 6.58173 17.9312 6.59993L16.7025 7.82862L17.6673 8.79337C17.7037 8.82978 17.7037 8.88439 17.6673 8.92079C17.6582 8.92989 17.6582 8.92989 17.6491 8.939C17.4124 9.08462 17.1303 9.16653 16.8482 9.16653ZM16.8482 6.22677C16.0836 6.22677 15.4647 6.84567 15.4738 7.61019C15.4738 8.37471 16.0927 8.9936 16.8573 8.9845C17.0666 8.9845 17.2759 8.939 17.4671 8.83888L16.5114 7.89233C16.4932 7.87413 16.4841 7.85593 16.4841 7.82862C16.4841 7.80132 16.4932 7.78312 16.5114 7.76491L17.731 6.54532C17.4853 6.33599 17.1758 6.22677 16.8482 6.22677Z" fill="#FF6C37"/>
<path d="M17.8949 6.56361L17.8767 6.54541L16.5752 7.82871L17.6037 8.85717C17.7038 8.79346 17.8039 8.72065 17.8858 8.63874C18.4683 8.06535 18.4683 7.137 17.8949 6.56361Z" fill="white"/>
<path d="M17.613 8.9573C17.5856 8.9573 17.5674 8.9482 17.5492 8.93L16.5117 7.89244C16.4935 7.87423 16.4844 7.85603 16.4844 7.82873C16.4844 7.80142 16.4935 7.78322 16.5117 7.76502L17.8041 6.47262C17.8405 6.43621 17.8951 6.43621 17.9315 6.47262L17.9588 6.49082C18.5686 7.10061 18.5686 8.08357 17.9679 8.70246C17.8769 8.79348 17.7768 8.87539 17.6676 8.9391C17.6403 8.9482 17.6221 8.9573 17.613 8.9573ZM16.7028 7.82873L17.6221 8.74797C17.6949 8.70246 17.7677 8.63875 17.8223 8.58415C18.3411 8.06536 18.3684 7.21893 17.8678 6.67285L16.7028 7.82873Z" fill="#FF6C37"/>
<path d="M15.9931 8.82984C15.7746 8.61141 15.4197 8.61141 15.2013 8.82984L11.77 12.2611L12.3434 12.8345L15.9749 9.64897C16.2115 9.44874 16.2297 9.09378 16.0295 8.85715C16.0113 8.84804 16.0022 8.83894 15.9931 8.82984Z" fill="white"/>
<path d="M12.3341 12.9257C12.3068 12.9257 12.2886 12.9166 12.2704 12.8984L11.697 12.325C11.6606 12.2886 11.6606 12.234 11.697 12.1976L15.1282 8.76633C15.3831 8.51149 15.7926 8.51149 16.0475 8.76633C16.3023 9.02116 16.3023 9.43073 16.0475 9.68557C16.0384 9.69467 16.0293 9.70377 16.0202 9.71287L12.3887 12.8984C12.3796 12.9166 12.3614 12.9257 12.3341 12.9257ZM11.8972 12.2613L12.3432 12.7072L15.9109 9.57635C16.1112 9.41253 16.1294 9.11218 15.9655 8.91195C15.8017 8.71172 15.5014 8.69351 15.3011 8.85734C15.292 8.86644 15.2829 8.87554 15.2647 8.88464L11.8972 12.2613Z" fill="#FF6C37"/>
<path d="M9.13969 16.1659C9.10328 16.1841 9.08508 16.2205 9.09418 16.2569L9.2489 16.9122C9.28531 17.0032 9.2307 17.1124 9.13059 17.1398C9.05777 17.1671 8.97586 17.1398 8.93035 17.0851L7.9292 16.0931L11.1966 12.8257L12.3252 12.8439L13.0897 13.6084C12.9077 13.7631 11.8064 14.828 9.13969 16.1659Z" fill="white"/>
<path d="M9.06645 17.2305C8.99363 17.2305 8.92082 17.2032 8.87532 17.1486L7.88326 16.1565C7.86506 16.1383 7.85596 16.1201 7.85596 16.0928C7.85596 16.0655 7.86506 16.0473 7.88326 16.0291L11.1507 12.7617C11.1689 12.7435 11.1962 12.7344 11.2144 12.7344L12.343 12.7526C12.3703 12.7526 12.3885 12.7617 12.4067 12.7799L13.1712 13.5444C13.1894 13.5626 13.1985 13.5899 13.1985 13.6172C13.1985 13.6445 13.1894 13.6627 13.1621 13.6809L13.0984 13.7355C12.1336 14.582 10.823 15.4284 9.19387 16.2384L9.34859 16.8846C9.37589 17.0029 9.32128 17.1304 9.21207 17.1941C9.15746 17.2214 9.11195 17.2305 9.06645 17.2305ZM8.06529 16.0928L9.00274 17.0211C9.03004 17.0666 9.08465 17.0849 9.13016 17.0575C9.17566 17.0302 9.19386 16.9756 9.16656 16.9301L9.01184 16.2748C8.99363 16.1929 9.03004 16.1201 9.10285 16.0837C10.7138 15.2737 12.0153 14.4363 12.971 13.6081L12.2974 12.9346L11.2508 12.9164L8.06529 16.0928Z" fill="#FF6C37"/>
<path d="M7.15507 16.8755L7.93779 16.0928L9.10277 17.2578L7.24608 17.1303C7.16417 17.1212 7.10956 17.0484 7.11866 16.9665C7.11866 16.9301 7.12777 16.8937 7.15507 16.8755Z" fill="white"/>
<path d="M9.10316 17.3397L7.23737 17.2123C7.10085 17.2032 7.00983 17.0848 7.01894 16.9483C7.02804 16.8937 7.04624 16.8391 7.09175 16.8027L7.87447 16.02C7.91087 15.9836 7.96548 15.9836 8.00189 16.02L9.16687 17.185C9.19417 17.2123 9.20328 17.2487 9.18507 17.2851C9.16687 17.3215 9.13957 17.3397 9.10316 17.3397ZM7.93818 16.2202L7.21917 16.9392C7.19186 16.9574 7.19186 17.0029 7.21917 17.0211C7.22827 17.0302 7.23737 17.0393 7.25557 17.0393L8.86652 17.1486L7.93818 16.2202Z" fill="#FF6C37"/>
<path d="M10.8781 13.2441C10.8235 13.2441 10.7871 13.1986 10.7871 13.1531C10.7871 13.1257 10.7962 13.1075 10.8144 13.0893L11.6973 12.2065C11.7337 12.1701 11.7883 12.1701 11.8247 12.2065L12.3981 12.7799C12.4254 12.8072 12.4345 12.8345 12.4254 12.8709C12.4163 12.8982 12.389 12.9255 12.3526 12.9346L10.8963 13.2441C10.8872 13.2441 10.8781 13.2441 10.8781 13.2441ZM11.761 12.3976L11.1603 12.9983L12.1432 12.789L11.761 12.3976Z" fill="#FF6C37"/>
<path d="M12.325 12.8436L11.3238 13.062C11.251 13.0802 11.1782 13.0347 11.16 12.9619C11.1509 12.9164 11.16 12.8709 11.1964 12.8345L11.7516 12.2793L12.325 12.8436Z" fill="white"/>
<path d="M11.3054 13.1531C11.178 13.1531 11.0779 13.0529 11.0779 12.9255C11.0779 12.8618 11.1052 12.8072 11.1416 12.7617L11.6968 12.2065C11.7332 12.1701 11.7878 12.1701 11.8242 12.2065L12.3976 12.7799C12.4249 12.8072 12.434 12.8345 12.4249 12.8709C12.4158 12.8982 12.3885 12.9255 12.3521 12.9346L11.3509 13.1531C11.3327 13.1531 11.3145 13.1531 11.3054 13.1531ZM11.7605 12.3976L11.269 12.8891C11.2508 12.9073 11.2508 12.9255 11.2599 12.9437C11.269 12.9619 11.2872 12.971 11.3145 12.971L12.1518 12.789L11.7605 12.3976Z" fill="#FF6C37"/>
<path d="M17.9045 7.43749C17.8863 7.38288 17.8226 7.35558 17.768 7.37378C17.7134 7.39198 17.6861 7.45569 17.7043 7.5103C17.7043 7.5194 17.7134 7.5285 17.7134 7.53761C17.768 7.64682 17.7498 7.78334 17.677 7.88346C17.6406 7.92897 17.6497 7.99268 17.6861 8.02908C17.7316 8.06549 17.7953 8.05639 17.8317 8.01088C17.9682 7.83795 17.9955 7.61952 17.9045 7.43749Z" fill="#FF6C37"/>
</g>
<defs>
<linearGradient id="paint0_linear_9209_8182" x1="877.329" y1="1711.93" x2="877.329" y2="3.45752" gradientUnits="userSpaceOnUse">
<stop stop-color="#7400E1"/>
<stop offset="1" stop-color="#4000BF"/>
</linearGradient>
<clipPath id="clip0_9209_8182">
<rect width="24" height="24" fill="white" transform="translate(19.5)"/>
</clipPath>
<clipPath id="clip1_9209_8182">
<rect width="24" height="24" fill="white" transform="translate(0.5)"/>
</clipPath>
</defs>
</svg>
