<svg width="20" height="20" viewBox="0 0 20 20" fill="none" xmlns="http://www.w3.org/2000/svg">
<path d="M1.66406 4.99992C1.66406 4.07944 2.41025 3.33325 3.33073 3.33325H16.6641C17.5845 3.33325 18.3307 4.07944 18.3307 4.99992V14.1666C18.3307 15.0871 17.5845 15.8333 16.6641 15.8333H12.8426L10.5867 18.0892C10.2612 18.4146 9.73358 18.4146 9.40814 18.0892L7.15222 15.8333H3.33073C2.41025 15.8333 1.66406 15.0871 1.66406 14.1666V4.99992ZM16.6641 4.99992H3.33073V14.1666H7.4974C7.71841 14.1666 7.93037 14.2544 8.08665 14.4107L9.9974 16.3214L11.9081 14.4107C12.0644 14.2544 12.2764 14.1666 12.4974 14.1666H16.6641V4.99992ZM4.9974 7.91658C4.9974 7.45635 5.37049 7.08325 5.83073 7.08325H14.1641C14.6243 7.08325 14.9974 7.45635 14.9974 7.91658C14.9974 8.37682 14.6243 8.74992 14.1641 8.74992H5.83073C5.37049 8.74992 4.9974 8.37682 4.9974 7.91658ZM4.9974 11.2499C4.9974 10.7897 5.37049 10.4166 5.83073 10.4166H10.8307C11.291 10.4166 11.6641 10.7897 11.6641 11.2499C11.6641 11.7102 11.291 12.0833 10.8307 12.0833H5.83073C5.37049 12.0833 4.9974 11.7102 4.9974 11.2499Z" fill="#B0B0B5"/>
</svg>
