<svg width="2500" height="1750" viewBox="0 0 2500 1750" fill="none" xmlns="http://www.w3.org/2000/svg">
<path d="M1040.35 190.921C1120.98 106.912 1233.23 54.807 1357.37 54.807C1522.4 54.807 1666.38 146.829 1743.06 283.438C1809.69 253.668 1883.44 237.107 1961.04 237.107C2258.69 237.107 2500 480.52 2500 780.768C2500 1081.05 2258.69 1324.46 1961.04 1324.46C1925.39 1324.48 1889.83 1320.94 1854.88 1313.89C1787.36 1434.33 1658.69 1515.7 1511.01 1515.7C1449.18 1515.7 1390.71 1501.42 1338.64 1476.03C1270.19 1637.03 1110.72 1749.92 924.857 1749.92C731.304 1749.92 566.346 1627.45 503.028 1455.7C475.358 1461.57 446.689 1464.63 417.272 1464.63C186.824 1464.64 0 1275.89 0 1043.02C0 886.967 83.9389 750.71 208.654 677.812C182.978 618.733 168.696 553.526 168.696 484.97C168.696 217.164 386.111 0.0722656 654.274 0.0722656C811.717 0.0722656 951.639 74.9296 1040.35 190.921Z" fill="#676767"/>
<path d="M362.104 907.505C360.537 911.602 362.674 912.457 363.172 913.168C367.872 916.587 372.647 919.046 377.454 921.787C402.952 935.318 427.029 939.269 452.206 939.269C503.488 939.269 535.324 911.992 535.324 868.08V867.227C535.324 826.627 499.394 811.884 465.667 801.236L461.288 799.812C435.86 791.549 413.923 784.429 413.923 767.69V766.802C413.923 752.485 426.743 741.942 446.616 741.942C468.695 741.942 494.907 749.279 511.786 758.609C511.786 758.609 516.736 761.814 518.553 757.007C519.549 754.442 528.097 731.436 528.988 728.944C529.949 726.236 528.24 724.242 526.496 723.173C507.229 711.456 480.59 703.443 453.027 703.443L447.9 703.478C400.963 703.478 368.2 731.827 368.2 772.46V773.316C368.2 816.156 404.346 830.045 438.215 839.732L443.663 841.406C468.343 848.991 489.604 855.508 489.604 872.888V873.744C489.604 889.627 475.787 901.449 453.493 901.449C444.839 901.449 417.239 901.271 387.432 882.43C383.833 880.328 381.733 878.799 378.956 877.125C377.497 876.199 373.828 874.595 372.226 879.439L362.104 907.505ZM1112.85 907.505C1111.28 911.602 1113.42 912.457 1113.92 913.168C1118.62 916.587 1123.39 919.046 1128.2 921.787C1153.7 935.318 1177.77 939.269 1202.95 939.269C1254.23 939.269 1286.07 911.992 1286.07 868.08V867.227C1286.07 826.627 1250.14 811.884 1216.41 801.236L1212.03 799.812C1186.6 791.549 1164.66 784.429 1164.66 767.69V766.802C1164.66 752.485 1177.48 741.942 1197.36 741.942C1219.44 741.942 1245.65 749.279 1262.53 758.609C1262.53 758.609 1267.48 761.814 1269.29 757.007C1270.29 754.442 1278.84 731.436 1279.73 728.944C1280.69 726.236 1278.98 724.242 1277.24 723.173C1257.97 711.456 1231.33 703.443 1203.77 703.443L1198.64 703.478C1151.7 703.478 1118.94 731.827 1118.94 772.46V773.316C1118.94 816.156 1155.08 830.045 1188.95 839.732L1194.4 841.406C1219.08 848.991 1240.38 855.508 1240.38 872.888V873.744C1240.38 889.627 1226.53 901.449 1204.23 901.449C1195.58 901.449 1167.98 901.271 1138.17 882.43C1134.57 880.328 1132.44 878.869 1129.73 877.125C1128.81 876.519 1124.46 874.845 1122.96 879.439L1112.85 907.505ZM1625.36 821.494C1625.36 846.316 1620.73 865.866 1611.62 879.685C1602.61 893.361 1588.97 900.02 1569.95 900.02C1550.9 900.02 1537.33 893.396 1528.47 879.685C1519.49 865.903 1514.93 846.316 1514.93 821.494C1514.93 796.709 1519.49 777.192 1528.47 763.516C1537.33 749.985 1550.9 743.396 1569.95 743.396C1588.97 743.396 1602.61 749.985 1611.66 763.516C1620.74 777.19 1625.36 796.707 1625.36 821.494ZM1668.17 775.483C1663.97 761.271 1657.42 748.736 1648.69 738.303C1639.97 727.833 1628.93 719.429 1615.82 713.303C1602.75 707.215 1587.3 704.117 1569.95 704.117C1552.57 704.117 1537.12 707.215 1524.05 713.303C1510.94 719.429 1499.9 727.835 1491.14 738.303C1482.45 748.774 1475.9 761.309 1471.66 775.483C1467.5 789.62 1465.39 805.075 1465.39 821.494C1465.39 837.913 1467.5 853.403 1471.66 867.505C1475.9 881.679 1482.42 894.217 1491.18 904.685C1499.9 915.155 1510.98 923.523 1524.05 929.469C1537.15 935.418 1552.57 938.443 1569.96 938.443C1587.3 938.443 1602.72 935.418 1615.82 929.469C1628.89 923.523 1639.97 915.153 1648.7 904.685C1657.42 894.249 1663.97 881.714 1668.17 867.505C1672.38 853.368 1674.48 837.875 1674.48 821.494C1674.48 805.113 1672.37 789.62 1668.17 775.483ZM2019.69 893.391C2018.27 889.224 2014.24 890.791 2014.24 890.791C2008.01 893.178 2001.39 895.385 1994.34 896.489C1987.18 897.59 1979.31 898.163 1970.86 898.163C1950.14 898.163 1933.69 892.002 1921.9 879.822C1910.08 867.643 1903.45 847.95 1903.52 821.311C1903.6 797.059 1909.43 778.824 1919.94 764.937C1930.38 751.121 1946.26 744.032 1967.45 744.032C1985.11 744.032 1998.58 746.061 2012.67 750.513C2012.67 750.513 2016.06 751.972 2017.66 747.558C2021.4 737.157 2024.18 729.715 2028.16 718.283C2029.31 715.043 2026.53 713.654 2025.53 713.261C2019.97 711.089 2006.87 707.565 1996.97 706.069C1987.71 704.645 1976.88 703.896 1964.85 703.896C1946.86 703.896 1930.83 706.959 1917.13 713.086C1903.45 719.174 1891.84 727.578 1882.65 738.05C1873.47 748.521 1866.49 761.054 1861.82 775.228C1857.19 789.364 1854.84 804.892 1854.84 821.311C1854.84 856.817 1864.42 885.518 1883.33 906.531C1902.28 927.615 1930.73 938.333 1967.84 938.333C1989.78 938.333 2012.29 933.884 2028.46 927.507C2028.46 927.507 2031.55 926.011 2030.2 922.417L2019.69 893.391ZM2094.59 797.715C2096.62 783.934 2100.43 772.465 2106.31 763.528C2115.17 749.96 2128.71 742.517 2147.72 742.517C2166.74 742.517 2179.31 749.995 2188.32 763.528C2194.31 772.465 2196.91 784.434 2197.94 797.715H2094.59ZM2238.71 767.407C2235.08 753.696 2226.07 739.842 2220.16 733.503C2210.83 723.461 2201.71 716.446 2192.67 712.527C2180.84 707.47 2166.67 704.124 2151.14 704.124C2133.05 704.124 2116.63 707.152 2103.31 713.418C2089.96 719.687 2078.75 728.236 2069.95 738.884C2061.15 749.494 2054.53 762.137 2050.32 776.489C2046.09 790.771 2043.95 806.334 2043.95 822.748C2043.95 839.452 2046.16 855.015 2050.54 869.009C2054.95 883.113 2062 895.541 2071.55 905.831C2081.06 916.196 2093.31 924.317 2107.98 929.975C2122.55 935.603 2140.25 938.523 2160.58 938.486C2202.43 938.343 2224.47 929.014 2233.55 923.991C2235.15 923.103 2236.69 921.537 2234.76 917.05L2225.29 890.516C2223.87 886.564 2219.84 888.023 2219.84 888.023C2209.47 891.869 2194.73 898.779 2160.36 898.709C2137.89 898.674 2121.23 892.049 2110.79 881.684C2100.07 871.074 2094.84 855.473 2093.91 833.466L2238.82 833.609C2238.82 833.609 2242.63 833.538 2243.02 829.832C2243.16 828.271 2248.01 800.065 2238.71 767.407ZM934.091 797.715C936.155 783.934 939.932 772.465 945.807 763.528C954.674 749.96 968.207 742.517 987.224 742.517C1006.24 742.517 1018.81 749.995 1027.86 763.528C1033.8 772.465 1036.4 784.434 1037.44 797.715H934.091ZM1078.18 767.407C1074.55 753.696 1065.57 739.842 1059.66 733.503C1050.33 723.461 1041.21 716.446 1032.17 712.527C1020.34 707.47 1006.17 704.124 990.645 704.124C972.589 704.124 956.135 707.152 942.817 713.418C929.464 719.687 918.245 728.236 909.449 738.884C900.652 749.494 894.028 762.137 889.827 776.489C885.625 790.771 883.453 806.334 883.453 822.748C883.453 839.452 885.66 855.015 890.042 869.009C894.459 883.113 901.511 895.541 911.053 905.831C920.562 916.196 932.812 924.317 947.484 929.975C962.051 935.603 979.749 938.523 1000.08 938.486C1041.93 938.343 1063.97 929.014 1073.05 923.991C1074.66 923.103 1076.19 921.537 1074.27 917.05L1064.83 890.516C1063.37 886.564 1059.35 888.023 1059.35 888.023C1048.98 891.869 1034.27 898.779 999.836 898.709C977.402 898.674 960.735 892.049 950.299 881.684C939.579 871.074 934.346 855.473 933.418 833.466L1078.33 833.609C1078.33 833.609 1082.13 833.538 1082.53 829.832C1082.66 828.271 1087.51 800.065 1078.18 767.407ZM620.875 892.598C615.212 888.073 614.429 886.934 612.507 884.014C609.656 879.562 608.197 873.223 608.197 865.175C608.197 852.425 612.399 843.273 621.125 837.112C621.02 837.15 633.59 826.251 663.147 826.642C683.908 826.927 702.462 829.99 702.462 829.99V895.873H702.497C702.497 895.873 684.086 899.825 663.36 901.071C633.873 902.853 620.767 892.563 620.875 892.598ZM678.53 790.781C672.654 790.353 665.032 790.103 655.915 790.103C643.488 790.103 631.486 791.669 620.232 794.697C608.908 797.723 598.723 802.462 589.962 808.726C581.214 814.97 574.024 823.147 568.951 832.623C563.823 842.167 561.223 853.421 561.223 866.029C561.223 878.849 563.43 889.995 567.847 899.114C572.264 908.266 578.638 915.886 586.756 921.764C594.804 927.64 604.741 931.947 616.278 934.547C627.639 937.147 640.53 938.463 654.634 938.463C669.484 938.463 684.298 937.255 698.65 934.795C712.86 932.372 730.309 928.846 735.152 927.745C738.547 926.927 741.931 926.06 745.302 925.145C748.901 924.257 748.615 920.408 748.615 920.408L748.543 787.895C748.543 758.834 740.78 737.287 725.502 723.934C710.294 710.616 687.895 703.881 658.943 703.881C648.08 703.881 630.595 705.38 620.124 707.48C620.124 707.48 588.465 713.606 575.43 723.791C575.43 723.791 572.582 725.573 574.148 729.562L584.406 757.127C585.687 760.688 589.143 759.477 589.143 759.477C589.143 759.477 590.247 759.049 591.531 758.301C619.416 743.131 654.671 743.594 654.671 743.594C670.342 743.594 682.379 746.727 690.497 752.958C698.403 759.011 702.427 768.163 702.427 787.465V793.591C689.962 791.812 678.53 790.781 678.53 790.781ZM1847.27 716.116C1848.37 712.838 1846.06 711.271 1845.1 710.916C1842.64 709.955 1830.32 707.355 1820.81 706.749C1802.61 705.646 1792.5 708.709 1783.45 712.768C1774.48 716.827 1764.51 723.378 1758.95 730.823V713.196C1758.95 710.738 1757.21 708.779 1754.78 708.779H1717.64C1715.22 708.779 1713.48 710.736 1713.48 713.196V929.327C1713.48 931.749 1715.47 933.744 1717.89 933.744H1755.96C1757.13 933.737 1758.24 933.268 1759.06 932.44C1759.88 931.612 1760.34 930.493 1760.34 929.327V821.351C1760.34 806.857 1761.94 792.4 1765.15 783.318C1768.28 774.342 1772.56 767.15 1777.83 761.984C1783.13 756.857 1789.15 753.261 1795.74 751.231C1802.47 749.164 1809.91 748.488 1815.18 748.488C1822.77 748.488 1831.1 750.445 1831.1 750.445C1833.88 750.766 1835.45 749.056 1836.37 746.529C1838.87 739.905 1845.92 720.068 1847.27 716.116Z" fill="white"/>
<path d="M1489.92 615.946C1485.29 614.522 1481.09 613.559 1475.61 612.528C1470.05 611.532 1463.43 611.031 1455.91 611.031C1429.7 611.031 1409.04 618.439 1394.55 633.038C1380.13 647.57 1370.33 669.685 1365.42 698.782L1363.64 708.574H1330.73C1330.73 708.574 1326.74 708.431 1325.89 712.778L1320.51 742.941C1320.12 745.791 1321.37 747.605 1325.21 747.605H1357.23L1324.75 928.944C1322.22 943.546 1319.3 955.548 1316.06 964.662C1312.89 973.639 1309.79 980.368 1305.95 985.283C1302.24 989.985 1298.75 993.474 1292.7 995.503C1287.71 997.177 1281.94 997.961 1275.64 997.961C1272.15 997.961 1267.49 997.388 1264.03 996.677C1260.61 995.999 1258.79 995.253 1256.19 994.147C1256.19 994.147 1252.46 992.725 1250.96 996.464C1249.78 999.562 1241.24 1023.03 1240.2 1025.92C1239.21 1028.8 1240.63 1031.04 1242.45 1031.72C1246.72 1033.22 1249.89 1034.21 1255.69 1035.6C1263.74 1037.49 1270.54 1037.6 1276.92 1037.6C1290.24 1037.6 1302.42 1035.71 1312.5 1032.08C1322.61 1028.41 1331.44 1022.03 1339.27 1013.42C1347.72 1004.08 1353.02 994.327 1358.08 980.974C1363.1 967.795 1367.41 951.414 1370.83 932.327L1403.49 747.605H1451.21C1451.21 747.605 1455.23 747.748 1456.05 743.369L1461.46 713.241C1461.82 710.358 1460.61 708.576 1456.72 708.576H1410.39C1410.64 707.545 1412.74 691.231 1418.05 675.886C1420.33 669.37 1424.6 664.062 1428.2 660.428C1431.77 656.867 1435.86 654.34 1440.35 652.878C1444.94 651.382 1450.18 650.671 1455.91 650.671C1460.26 650.671 1464.56 651.169 1467.8 651.845C1472.29 652.808 1474.03 653.306 1475.21 653.664C1479.95 655.088 1480.59 653.699 1481.52 651.422L1492.59 621.009C1493.73 617.725 1490.92 616.337 1489.92 615.946ZM842.576 929.337C842.576 931.759 840.831 933.719 838.409 933.719H799.983C797.561 933.719 795.852 931.759 795.852 929.337V620.078C795.852 617.658 797.561 615.698 799.983 615.698H838.409C840.831 615.698 842.576 617.658 842.576 620.078V929.337Z" fill="white"/>
</svg>
