<svg width="18" height="16" viewBox="0 0 18 16" fill="none" xmlns="http://www.w3.org/2000/svg">
<path d="M8.99742 0.083252C9.31306 0.083252 9.60161 0.261587 9.74278 0.543907L11.8919 4.84208L16.6174 5.52943C16.9312 5.57508 17.192 5.79494 17.29 6.09658C17.388 6.39822 17.3063 6.72934 17.0792 6.95075L13.6399 10.304L14.4136 15.032C14.4647 15.3445 14.3343 15.6589 14.0771 15.8436C13.8199 16.0282 13.4803 16.0511 13.2006 15.9027L8.99742 13.6725L4.79427 15.9027C4.51458 16.0511 4.17494 16.0282 3.91773 15.8436C3.66051 15.6589 3.53014 15.3445 3.58127 15.032L4.35494 10.304L0.91567 6.95075C0.688582 6.72934 0.606865 6.39822 0.70487 6.09658C0.802876 5.79494 1.06361 5.57508 1.37747 5.52943L6.10298 4.84208L8.25206 0.543907C8.39322 0.261587 8.68178 0.083252 8.99742 0.083252ZM8.99742 2.77998L7.39903 5.97676C7.27707 6.22068 7.04348 6.38949 6.77362 6.42874L3.28774 6.93578L5.82917 9.41367C6.02391 9.60354 6.11374 9.8765 6.06982 10.1449L5.49743 13.6428L8.60682 11.993C8.85109 11.8633 9.14375 11.8633 9.38802 11.993L12.4974 13.6428L11.925 10.1449C11.8811 9.8765 11.9709 9.60354 12.1657 9.41367L14.7071 6.93578L11.2212 6.42874C10.9514 6.38949 10.7178 6.22068 10.5958 5.97676L8.99742 2.77998Z" fill="#B0B0B5"/>
</svg>
