<svg width="20" height="20" viewBox="0 0 20 20" fill="none" xmlns="http://www.w3.org/2000/svg">
<path d="M8.33073 3.33341C6.48978 3.33341 4.9974 4.8258 4.9974 6.66675C4.9974 8.5077 6.48978 10.0001 8.33073 10.0001C10.1717 10.0001 11.6641 8.5077 11.6641 6.66675C11.6641 4.8258 10.1717 3.33341 8.33073 3.33341ZM3.33073 6.66675C3.33073 3.90532 5.56931 1.66675 8.33073 1.66675C11.0922 1.66675 13.3307 3.90532 13.3307 6.66675C13.3307 9.42817 11.0922 11.6667 8.33073 11.6667C5.56931 11.6667 3.33073 9.42817 3.33073 6.66675ZM14.0211 3.13121C14.3465 2.80578 14.8742 2.80578 15.1996 3.13121C17.1522 5.08384 17.1522 8.24966 15.1996 10.2023C14.8742 10.5277 14.3465 10.5277 14.0211 10.2023C13.6957 9.87685 13.6957 9.34921 14.0211 9.02377C15.3228 7.72202 15.3228 5.61147 14.0211 4.30973C13.6957 3.98429 13.6957 3.45665 14.0211 3.13121ZM14.6056 13.9646C14.7172 13.5181 15.1697 13.2467 15.6162 13.3583C16.7228 13.6349 17.4232 14.3425 17.8261 15.1482C18.2159 15.9279 18.3307 16.7977 18.3307 17.5001C18.3307 17.9603 17.9576 18.3334 17.4974 18.3334C17.0372 18.3334 16.6641 17.9603 16.6641 17.5001C16.6641 16.9525 16.5706 16.364 16.3354 15.8936C16.1132 15.4493 15.772 15.1152 15.212 14.9752C14.7655 14.8636 14.494 14.4111 14.6056 13.9646ZM5.41406 15.0001C4.36451 15.0001 3.33073 16.0114 3.33073 17.5001C3.33073 17.9603 2.95763 18.3334 2.4974 18.3334C2.03716 18.3334 1.66406 17.9603 1.66406 17.5001C1.66406 15.3069 3.24195 13.3334 5.41406 13.3334H11.2474C13.4195 13.3334 14.9974 15.3069 14.9974 17.5001C14.9974 17.9603 14.6243 18.3334 14.1641 18.3334C13.7038 18.3334 13.3307 17.9603 13.3307 17.5001C13.3307 16.0114 12.2969 15.0001 11.2474 15.0001H5.41406Z" fill="#B0B0B5"/>
</svg>
