<svg id="svg" version="1.1" xmlns="http://www.w3.org/2000/svg" xmlns:xlink="http://www.w3.org/1999/xlink" width="400" height="225" viewBox="0, 0, 400,225"><g id="svgg"><path id="path0" d="M81.563 93.490 C 80.171 96.911,82.456 104.702,84.886 104.823 C 85.235 104.841,85.661 104.870,85.833 104.889 C 86.157 104.924,87.292 104.439,87.292 104.265 C 87.292 104.211,87.052 104.167,86.759 104.167 C 86.465 104.167,86.275 104.247,86.336 104.345 C 86.487 104.590,85.458 104.402,84.638 104.035 C 83.959 103.731,83.444 103.084,83.688 102.840 C 83.760 102.768,83.706 102.708,83.567 102.708 C 83.429 102.708,83.334 102.591,83.356 102.448 C 83.379 102.305,83.232 101.814,83.030 101.358 C 82.276 99.656,81.832 97.439,81.810 95.260 C 81.786 92.958,81.784 92.945,81.563 93.490 M145.972 96.389 C 145.896 96.465,145.833 103.731,145.833 112.535 L 145.833 128.542 148.438 128.542 L 151.042 128.542 151.042 127.163 L 151.042 125.785 151.869 126.532 C 158.061 132.127,168.727 128.247,170.972 119.583 C 174.007 107.868,160.640 98.045,152.006 105.645 L 151.042 106.494 151.042 101.372 L 151.042 96.250 148.576 96.250 C 147.220 96.250,146.049 96.313,145.972 96.389 M205.208 112.396 L 205.208 128.542 207.708 128.542 L 210.208 128.542 210.208 127.175 L 210.208 125.809 211.198 126.632 C 220.021 133.971,233.104 124.404,230.238 112.708 C 228.098 103.974,217.802 100.163,211.198 105.659 L 210.208 106.483 210.208 101.367 L 210.208 96.250 207.708 96.250 L 205.208 96.250 205.208 112.396 M259.583 112.389 L 259.583 128.542 262.189 128.542 L 264.794 128.542 264.741 112.448 L 264.688 96.354 262.135 96.296 L 259.583 96.237 259.583 112.389 M88.706 103.089 C 87.598 103.886,87.732 104.106,88.854 103.333 C 89.370 102.979,89.792 102.646,89.792 102.594 C 89.792 102.397,89.452 102.551,88.706 103.089 M183.875 103.457 C 175.163 105.565,171.608 116.774,177.226 124.427 C 181.013 129.586,189.618 130.643,194.010 126.488 L 194.792 125.749 194.792 127.145 L 194.792 128.542 197.397 128.542 L 200.003 128.542 199.950 116.094 L 199.896 103.646 197.344 103.587 L 194.792 103.529 194.792 105.011 L 194.792 106.494 193.817 105.635 C 191.309 103.428,187.470 102.587,183.875 103.457 M278.542 103.450 C 268.939 105.520,265.371 118.203,272.391 125.314 C 278.423 131.426,289.856 129.780,293.493 122.277 C 298.552 111.838,289.939 100.993,278.542 103.450 M309.583 103.457 C 307.896 103.904,306.410 104.688,305.220 105.758 L 304.167 106.705 304.167 105.123 L 304.167 103.542 301.563 103.542 L 298.958 103.542 298.958 116.042 L 298.958 128.542 301.550 128.542 L 304.143 128.542 304.207 121.089 L 304.271 113.636 304.950 112.257 C 307.593 106.891,315.717 106.631,318.270 111.830 L 318.854 113.021 318.918 120.781 L 318.982 128.542 321.485 128.542 L 323.988 128.542 323.909 120.365 C 323.821 111.370,323.808 111.263,322.428 108.652 C 320.209 104.451,314.514 102.148,309.583 103.457 M230.833 103.725 C 230.833 103.826,233.224 108.808,236.146 114.796 C 239.068 120.784,241.458 125.719,241.458 125.763 C 241.458 125.807,240.557 127.880,239.455 130.369 C 238.354 132.859,237.279 135.294,237.067 135.781 L 236.681 136.667 239.438 136.667 L 242.195 136.667 249.250 120.489 C 253.131 111.592,256.351 104.139,256.406 103.927 C 256.500 103.567,256.331 103.542,253.809 103.542 L 251.111 103.542 247.703 111.458 C 245.829 115.813,244.243 119.371,244.179 119.366 C 244.115 119.361,242.427 115.915,240.428 111.709 C 238.430 107.504,236.707 103.945,236.601 103.802 C 236.374 103.496,230.833 103.422,230.833 103.725 M133.248 105.677 C 131.220 112.972,124.830 119.864,119.271 120.752 C 111.518 121.989,106.060 120.128,102.366 114.986 C 101.553 113.854,101.150 113.553,101.897 114.635 C 103.722 117.280,106.385 119.496,109.096 120.627 C 112.494 122.044,119.552 121.753,122.912 120.057 C 126.940 118.024,132.836 110.113,133.529 105.813 C 133.804 104.105,133.699 104.054,133.248 105.677 M161.267 108.613 C 164.520 109.951,166.188 112.791,166.003 116.673 C 165.588 125.349,153.761 126.950,151.217 118.673 C 149.214 112.155,155.232 106.131,161.267 108.613 M190.644 108.801 C 196.836 111.842,196.218 121.871,189.720 123.792 C 183.674 125.580,178.280 119.890,180.097 113.641 C 181.422 109.081,186.484 106.758,190.644 108.801 M220.867 108.715 C 227.716 112.035,226.408 122.622,218.978 124.004 C 210.915 125.504,206.633 114.057,213.492 109.338 C 215.428 108.006,218.813 107.720,220.867 108.715 M285.265 108.822 C 291.252 111.751,290.976 121.181,284.834 123.563 C 278.662 125.958,272.605 120.462,274.249 113.958 C 275.449 109.211,280.883 106.678,285.265 108.822 " stroke="none" fill="#4e12a1" fill-rule="evenodd"></path><path id="path1" d="M0.000 112.500 L 0.000 225.000 200.000 225.000 L 400.000 225.000 400.000 112.500 L 400.000 0.000 200.000 0.000 L 0.000 0.000 0.000 112.500 M95.208 87.798 C 100.863 88.822,104.999 92.924,106.356 98.854 C 106.485 99.418,106.537 99.330,106.890 97.953 C 110.952 82.092,133.963 85.322,133.957 101.752 C 133.953 115.048,123.731 127.757,108.064 133.945 L 106.441 134.586 104.627 133.840 C 89.430 127.592,79.669 115.802,79.020 102.911 C 78.526 93.098,85.992 86.128,95.208 87.798 M151.250 101.145 L 151.250 106.041 152.505 105.117 C 161.548 98.460,173.611 107.617,171.143 119.265 C 169.349 127.736,159.145 132.063,152.500 127.171 L 151.250 126.251 151.250 127.396 L 151.250 128.542 148.542 128.542 L 145.833 128.542 145.833 112.396 L 145.833 96.250 148.542 96.250 L 151.250 96.250 151.250 101.145 M210.417 101.268 L 210.417 106.285 211.380 105.437 C 213.311 103.738,216.376 102.770,219.063 103.012 C 234.639 104.415,234.448 128.286,218.854 129.109 C 215.780 129.272,212.904 128.377,211.094 126.694 L 210.417 126.065 210.417 127.303 L 210.417 128.542 207.708 128.542 L 205.000 128.542 205.000 112.396 L 205.000 96.250 207.708 96.250 L 210.417 96.250 210.417 101.268 M264.792 112.396 L 264.792 128.542 262.083 128.542 L 259.375 128.542 259.375 112.396 L 259.375 96.250 262.083 96.250 L 264.792 96.250 264.792 112.396 M188.750 103.138 C 190.366 103.399,192.681 104.470,193.906 105.522 L 194.792 106.282 194.792 104.912 L 194.792 103.542 197.396 103.542 L 200.000 103.542 200.000 116.042 L 200.000 128.542 197.396 128.542 L 194.792 128.542 194.792 127.275 L 194.792 126.009 193.913 126.762 C 187.883 131.923,177.724 128.568,175.063 120.537 C 171.939 111.106,179.395 101.628,188.750 103.138 M283.854 103.133 C 291.619 104.239,296.519 111.530,294.701 119.271 C 291.732 131.907,273.250 132.675,269.241 120.329 C 266.137 110.770,273.840 101.706,283.854 103.133 M315.971 103.455 C 319.636 104.410,322.736 107.654,323.638 111.480 C 323.889 112.543,323.953 114.405,323.955 120.677 L 323.958 128.542 321.458 128.542 L 318.958 128.542 318.957 121.927 C 318.955 114.845,318.807 113.213,318.031 111.695 C 315.355 106.467,307.010 107.209,304.759 112.875 C 304.306 114.013,304.283 114.362,304.210 121.302 L 304.134 128.542 301.546 128.542 L 298.958 128.542 298.958 116.042 L 298.958 103.542 301.563 103.542 L 304.167 103.542 304.167 105.018 L 304.167 106.494 305.137 105.640 C 307.865 103.238,311.965 102.411,315.971 103.455 M240.346 111.250 C 242.346 115.432,244.050 118.921,244.131 119.003 C 244.212 119.086,245.776 115.664,247.608 111.399 L 250.938 103.646 253.818 103.588 C 256.499 103.534,256.690 103.555,256.579 103.900 C 256.513 104.104,253.288 111.536,249.412 120.417 L 242.365 136.563 239.516 136.620 C 237.949 136.652,236.667 136.603,236.667 136.510 C 236.667 136.417,237.705 134.010,238.973 131.160 C 240.471 127.794,241.240 125.825,241.168 125.541 C 241.106 125.301,238.709 120.297,235.840 114.422 C 232.972 108.547,230.625 103.693,230.625 103.635 C 230.625 103.578,231.994 103.556,233.667 103.588 L 236.708 103.646 240.346 111.250 M156.563 108.405 C 150.911 109.871,149.023 117.297,153.161 121.785 C 156.633 125.553,163.572 124.152,165.381 119.319 C 167.734 113.029,162.709 106.811,156.563 108.405 M185.671 108.346 C 182.041 109.062,179.397 113.061,179.899 117.076 C 181.019 126.038,193.365 126.328,194.787 117.426 C 195.696 111.733,191.202 107.256,185.671 108.346 M215.989 108.338 C 207.343 110.520,208.822 123.956,217.708 123.956 C 227.348 123.956,227.799 108.801,218.176 108.225 C 217.403 108.179,216.419 108.230,215.989 108.338 M280.074 108.329 C 273.058 109.823,271.964 120.234,278.501 123.298 C 281.141 124.535,284.892 123.985,286.988 122.053 C 292.933 116.573,287.937 106.654,280.074 108.329 " stroke="none" fill="none" fill-rule="evenodd"></path><path id="path2" d="M89.325 88.033 C 88.346 88.270,86.617 88.982,86.275 89.289 C 86.231 89.328,86.355 89.696,86.549 90.106 C 86.744 90.515,86.973 91.292,87.058 91.832 C 87.416 94.096,88.719 95.515,90.625 95.716 C 96.932 96.381,100.306 99.069,100.712 103.750 C 101.371 111.360,105.411 115.935,112.396 116.980 C 117.641 117.765,121.411 117.391,123.270 115.900 C 129.345 111.028,132.297 101.039,129.435 95.039 C 128.948 94.020,128.877 93.631,128.923 92.256 L 128.977 90.658 128.024 90.002 C 119.877 84.397,108.096 89.432,106.697 99.117 L 106.555 100.104 106.103 98.283 C 104.222 90.683,96.884 86.201,89.325 88.033 " stroke="none" fill="#d231b6" fill-rule="evenodd"></path><path id="path3" d="M80.550 95.208 C 78.243 99.819,78.821 107.415,81.986 114.063 C 85.733 121.935,93.892 129.106,104.056 133.461 L 106.341 134.440 107.389 134.081 C 118.427 130.296,129.060 120.396,132.248 110.938 C 133.311 107.783,133.280 107.346,132.144 109.479 C 127.141 118.878,122.276 121.976,113.333 121.458 C 106.827 121.082,101.744 116.632,99.081 108.983 C 97.411 104.185,92.620 100.631,90.187 102.385 C 88.277 103.763,86.213 104.939,85.784 104.894 C 85.525 104.867,85.074 104.833,84.782 104.818 C 82.780 104.718,81.043 100.115,81.301 95.593 C 81.427 93.380,81.456 93.395,80.550 95.208 " stroke="none" fill="#41a1c2" fill-rule="evenodd"></path><path id="path4" d="M85.171 89.863 C 82.970 91.355,82.581 91.854,82.424 93.385 C 82.203 95.549,82.977 99.183,83.881 100.225 C 84.038 100.406,84.167 100.672,84.167 100.818 C 84.167 102.759,86.644 103.160,89.228 101.638 C 91.252 100.445,91.652 100.426,93.646 101.433 C 96.772 103.012,98.340 104.822,99.150 107.791 C 100.611 113.145,103.857 117.195,108.474 119.423 C 111.728 120.994,119.418 120.948,122.708 119.339 C 127.240 117.122,132.865 108.264,133.444 102.430 C 133.514 101.724,133.672 100.940,133.795 100.688 C 133.957 100.353,133.948 100.061,133.760 99.606 C 133.618 99.264,133.561 98.887,133.633 98.770 C 134.102 98.012,131.922 93.659,130.166 91.844 L 129.087 90.729 128.945 92.083 C 128.790 93.568,128.793 93.585,129.506 95.143 C 132.261 101.167,129.284 111.077,123.270 115.900 C 121.411 117.391,117.641 117.765,112.396 116.980 C 105.411 115.935,101.371 111.360,100.712 103.750 C 100.306 99.069,96.932 96.381,90.625 95.716 C 88.723 95.516,87.416 94.096,87.060 91.845 C 86.976 91.312,86.735 90.501,86.524 90.041 L 86.141 89.206 85.171 89.863 M205.099 112.396 C 205.099 121.333,205.125 124.959,205.156 120.453 C 205.188 115.947,205.188 108.635,205.156 104.203 C 205.125 99.772,205.099 103.458,205.099 112.396 M210.299 101.354 C 210.299 104.219,210.328 105.420,210.364 104.023 C 210.400 102.626,210.400 100.282,210.364 98.814 C 210.328 97.347,210.299 98.490,210.299 101.354 M133.798 102.917 C 133.798 103.318,133.841 103.482,133.894 103.281 C 133.946 103.081,133.946 102.753,133.894 102.552 C 133.841 102.352,133.798 102.516,133.798 102.917 M167.604 106.667 C 168.052 107.125,168.465 107.500,168.522 107.500 C 168.579 107.500,168.260 107.125,167.813 106.667 C 167.365 106.208,166.952 105.833,166.895 105.833 C 166.837 105.833,167.157 106.208,167.604 106.667 M178.008 106.719 L 177.396 107.396 178.073 106.784 C 178.445 106.447,178.750 106.143,178.750 106.107 C 178.750 105.946,178.578 106.088,178.008 106.719 M272.280 106.823 L 271.563 107.604 272.344 106.886 C 272.773 106.491,273.125 106.140,273.125 106.105 C 273.125 105.946,272.949 106.096,272.280 106.823 M174.440 116.146 C 174.441 116.833,174.480 117.089,174.526 116.715 C 174.572 116.341,174.571 115.778,174.524 115.465 C 174.476 115.152,174.438 115.458,174.440 116.146 M210.057 116.042 C 210.057 116.557,210.097 116.768,210.147 116.510 C 210.197 116.253,210.197 115.831,210.147 115.573 C 210.097 115.315,210.057 115.526,210.057 116.042 M225.265 116.042 C 225.265 116.557,225.306 116.768,225.355 116.510 C 225.405 116.253,225.405 115.831,225.355 115.573 C 225.306 115.315,225.265 115.526,225.265 116.042 M153.125 121.979 C 153.514 122.380,153.879 122.708,153.936 122.708 C 153.993 122.708,153.722 122.380,153.333 121.979 C 152.945 121.578,152.580 121.250,152.522 121.250 C 152.465 121.250,152.736 121.578,153.125 121.979 M192.489 122.031 L 191.771 122.813 192.552 122.095 C 192.982 121.700,193.333 121.348,193.333 121.313 C 193.333 121.154,193.157 121.304,192.489 122.031 M157.972 124.108 C 158.288 124.156,158.757 124.154,159.013 124.105 C 159.270 124.056,159.010 124.016,158.438 124.018 C 157.865 124.019,157.655 124.060,157.972 124.108 M186.930 124.108 C 187.247 124.156,187.715 124.154,187.972 124.105 C 188.228 124.056,187.969 124.016,187.396 124.018 C 186.823 124.019,186.613 124.060,186.930 124.108 M217.135 124.108 C 217.451 124.155,217.966 124.155,218.281 124.108 C 218.596 124.060,218.339 124.021,217.708 124.021 C 217.078 124.021,216.820 124.060,217.135 124.108 M281.305 124.108 C 281.622 124.156,282.090 124.154,282.347 124.105 C 282.603 124.056,282.344 124.016,281.771 124.018 C 281.198 124.019,280.988 124.060,281.305 124.108 M291.239 125.365 L 290.521 126.146 291.302 125.428 C 292.029 124.760,292.179 124.583,292.020 124.583 C 291.985 124.583,291.634 124.935,291.239 125.365 M210.277 127.188 C 210.278 127.990,210.315 128.292,210.360 127.860 C 210.405 127.428,210.405 126.771,210.359 126.402 C 210.313 126.032,210.276 126.385,210.277 127.188 " stroke="none" fill="#b896d7" fill-rule="evenodd"></path><path id="path5" d="M151.132 101.354 C 151.132 104.104,151.161 105.200,151.197 103.790 C 151.233 102.380,151.233 100.130,151.197 98.790 C 151.161 97.450,151.131 98.604,151.132 101.354 M259.474 112.500 C 259.474 121.380,259.500 125.013,259.531 120.573 C 259.563 116.133,259.563 108.867,259.531 104.427 C 259.500 99.987,259.474 103.620,259.474 112.500 M158.490 103.064 C 158.747 103.113,159.169 103.113,159.427 103.064 C 159.685 103.014,159.474 102.973,158.958 102.973 C 158.443 102.973,158.232 103.014,158.490 103.064 M186.513 103.066 C 186.830 103.114,187.299 103.113,187.555 103.063 C 187.811 103.014,187.552 102.975,186.979 102.976 C 186.406 102.978,186.197 103.018,186.513 103.066 M217.763 103.066 C 218.080 103.114,218.549 103.113,218.805 103.063 C 219.061 103.014,218.802 102.975,218.229 102.976 C 217.656 102.978,217.447 103.018,217.763 103.066 M281.302 103.066 C 281.617 103.114,282.133 103.114,282.448 103.066 C 282.763 103.018,282.505 102.979,281.875 102.979 C 281.245 102.979,280.987 103.018,281.302 103.066 M311.930 103.066 C 312.247 103.114,312.715 103.113,312.972 103.063 C 313.228 103.014,312.969 102.975,312.396 102.976 C 311.823 102.978,311.613 103.018,311.930 103.066 M268.604 116.042 C 268.604 116.672,268.643 116.930,268.691 116.615 C 268.739 116.299,268.739 115.784,268.691 115.469 C 268.643 115.154,268.604 115.411,268.604 116.042 M274.018 116.146 C 274.019 116.719,274.060 116.928,274.108 116.612 C 274.156 116.295,274.154 115.826,274.105 115.570 C 274.056 115.314,274.016 115.573,274.018 116.146 M151.066 127.344 C 151.092 128.751,151.191 128.614,151.293 127.031 C 151.328 126.487,151.286 126.042,151.199 126.042 C 151.113 126.042,151.053 126.628,151.066 127.344 " stroke="none" fill="#ccbce4" fill-rule="evenodd"></path><path id="path6" d="M82.071 92.618 C 81.345 93.494,81.937 98.891,83.030 101.358 C 83.232 101.814,83.379 102.305,83.356 102.448 C 83.334 102.591,83.429 102.708,83.567 102.708 C 83.706 102.708,83.760 102.768,83.688 102.840 C 83.444 103.084,83.959 103.731,84.638 104.035 C 85.458 104.402,86.487 104.590,86.336 104.345 C 86.275 104.247,86.505 104.167,86.848 104.167 C 87.190 104.167,87.594 104.049,87.746 103.906 C 88.325 103.358,89.565 102.500,89.778 102.500 C 89.900 102.500,90.000 102.425,90.000 102.334 C 90.000 101.637,92.077 101.625,93.214 102.316 C 93.550 102.520,93.902 102.639,93.996 102.581 C 94.090 102.523,94.167 102.575,94.167 102.696 C 94.167 102.817,94.267 102.917,94.390 102.917 C 94.513 102.917,94.731 103.034,94.874 103.177 C 95.018 103.320,95.665 103.894,96.312 104.453 C 97.721 105.669,98.158 106.369,99.063 108.869 C 101.001 114.225,104.004 117.781,108.463 120.004 C 111.648 121.591,119.305 121.429,122.813 119.700 C 126.401 117.931,131.918 110.616,133.157 105.984 C 133.300 105.447,133.479 105.108,133.555 105.230 C 133.630 105.352,133.685 105.186,133.677 104.861 C 133.669 104.536,133.738 103.439,133.831 102.423 C 133.937 101.259,133.926 100.620,133.801 100.697 C 133.692 100.765,133.543 101.456,133.470 102.233 C 132.913 108.180,127.308 117.089,122.708 119.339 C 119.418 120.948,111.728 120.994,108.474 119.423 C 103.857 117.195,100.611 113.145,99.150 107.791 C 98.340 104.822,96.772 103.012,93.646 101.433 C 91.652 100.426,91.252 100.445,89.228 101.638 C 86.644 103.160,84.167 102.759,84.167 100.818 C 84.167 100.672,84.033 100.406,83.870 100.225 C 83.118 99.392,82.432 96.628,82.432 94.427 C 82.432 93.253,82.412 92.292,82.387 92.292 C 82.363 92.292,82.221 92.439,82.071 92.618 M79.030 101.563 C 79.031 102.479,79.067 102.828,79.111 102.338 C 79.155 101.848,79.155 101.098,79.110 100.672 C 79.065 100.245,79.029 100.646,79.030 101.563 " stroke="none" fill="#a9d1ec" fill-rule="evenodd"></path><path id="path7" d="M92.031 87.651 C 92.404 87.697,93.013 87.697,93.385 87.651 C 93.758 87.604,93.453 87.567,92.708 87.567 C 91.964 87.567,91.659 87.604,92.031 87.651 M119.531 87.651 C 119.904 87.697,120.513 87.697,120.885 87.651 C 121.258 87.604,120.953 87.567,120.208 87.567 C 119.464 87.567,119.159 87.604,119.531 87.651 M110.405 91.615 L 109.688 92.396 110.469 91.678 C 111.196 91.010,111.346 90.833,111.187 90.833 C 111.152 90.833,110.800 91.185,110.405 91.615 M167.591 125.677 L 166.979 126.354 167.656 125.742 C 168.029 125.406,168.333 125.101,168.333 125.065 C 168.333 124.904,168.161 125.046,167.591 125.677 " stroke="none" fill="#dfc9ec" fill-rule="evenodd"></path><path id="path8" d="" stroke="none" fill="#d0e8f4" fill-rule="evenodd"></path></g></svg>