<svg id="svg" version="1.1" xmlns="http://www.w3.org/2000/svg" xmlns:xlink="http://www.w3.org/1999/xlink" width="400" height="135" viewBox="0, 0, 400,135"><g id="svgg"><path id="path0" d="M0.000 67.500 L 0.000 125.669 57.006 125.626 C 107.466 125.588,114.030 125.555,114.170 125.333 C 114.385 124.993,114.385 10.007,114.170 9.667 C 114.030 9.445,107.466 9.412,57.006 9.374 L 0.000 9.331 0.000 67.500 M103.167 67.500 L 103.167 114.333 56.250 114.333 L 9.333 114.333 9.333 67.500 L 9.333 20.667 56.250 20.667 L 103.167 20.667 103.167 67.500 M45.958 21.940 C 45.754 21.999,45.667 22.195,45.667 22.596 L 45.667 23.167 44.617 23.167 C 43.487 23.167,43.167 23.340,43.167 23.950 C 43.167 24.259,43.076 24.333,42.700 24.333 C 42.108 24.333,41.833 24.608,41.833 25.200 C 41.833 25.622,41.778 25.667,41.250 25.667 C 40.694 25.667,40.667 25.694,40.667 26.250 L 40.667 26.833 39.680 26.833 C 38.348 26.833,38.167 26.924,38.167 27.591 C 38.167 28.113,38.129 28.150,37.542 28.198 C 36.971 28.245,36.912 28.297,36.864 28.792 C 36.814 29.318,36.790 29.333,36.031 29.336 C 34.789 29.339,34.522 29.465,34.402 30.102 C 34.307 30.612,34.241 30.667,33.731 30.667 C 33.202 30.667,33.167 30.701,33.167 31.226 L 33.167 31.785 32.054 31.889 C 30.910 31.996,30.674 32.148,30.669 32.782 C 30.667 33.082,30.557 33.156,30.042 33.198 C 29.471 33.245,29.412 33.297,29.364 33.792 C 29.316 34.291,29.264 34.335,28.698 34.353 C 27.453 34.393,27.093 34.548,27.001 35.085 C 26.926 35.522,26.838 35.590,26.291 35.635 C 25.706 35.683,25.667 35.722,25.667 36.236 L 25.667 36.785 24.554 36.889 C 23.163 37.019,23.172 37.001,23.169 39.425 C 23.166 41.795,23.189 41.833,24.607 41.833 L 25.647 41.833 25.698 42.458 C 25.746 43.033,25.797 43.090,26.333 43.167 C 26.800 43.233,26.928 43.333,26.975 43.667 C 27.054 44.231,27.257 44.328,28.365 44.331 L 29.313 44.333 29.365 44.958 C 29.414 45.547,29.452 45.586,30.032 45.634 C 30.589 45.681,30.652 45.736,30.698 46.218 L 30.750 46.750 32.500 46.750 L 34.250 46.750 34.302 46.218 C 34.348 45.736,34.411 45.681,34.968 45.634 C 35.548 45.586,35.586 45.547,35.635 44.958 L 35.687 44.333 36.836 44.333 L 37.985 44.333 38.093 43.759 C 38.185 43.265,38.273 43.178,38.725 43.134 C 39.199 43.088,39.255 43.024,39.301 42.465 L 39.353 41.848 40.551 41.799 L 41.750 41.750 41.802 41.208 C 41.847 40.742,41.918 40.667,42.311 40.667 C 42.893 40.667,43.167 40.389,43.167 39.800 C 43.167 39.343,43.187 39.333,44.125 39.331 C 45.243 39.328,45.446 39.232,45.525 38.667 C 45.572 38.333,45.700 38.233,46.167 38.167 C 46.703 38.090,46.754 38.033,46.802 37.458 C 46.852 36.850,46.871 36.833,47.515 36.833 L 48.177 36.833 48.130 29.514 C 48.104 25.488,48.029 22.140,47.962 22.073 C 47.811 21.922,46.353 21.825,45.958 21.940 M294.436 23.427 C 294.379 23.574,294.333 23.838,294.333 24.014 C 294.333 24.316,294.182 24.333,291.514 24.333 C 289.963 24.333,288.575 24.379,288.430 24.434 C 288.193 24.526,288.167 25.841,288.167 37.601 L 288.167 50.667 286.917 50.667 L 285.667 50.667 285.667 50.200 C 285.667 49.401,285.455 49.333,282.967 49.333 C 280.810 49.333,280.667 49.313,280.667 49.014 C 280.667 48.141,280.817 48.167,275.766 48.167 C 270.793 48.167,270.667 48.186,270.667 48.950 C 270.667 49.330,270.647 49.333,268.542 49.336 C 265.822 49.339,265.667 49.380,265.667 50.103 L 265.667 50.667 264.417 50.667 L 263.167 50.667 263.167 51.226 L 263.167 51.785 262.054 51.889 C 260.910 51.996,260.674 52.148,260.669 52.782 C 260.667 53.082,260.557 53.156,260.042 53.198 C 259.474 53.245,259.412 53.299,259.365 53.782 C 259.320 54.245,259.245 54.320,258.782 54.365 C 258.300 54.412,258.245 54.475,258.199 55.032 C 258.151 55.610,258.110 55.651,257.532 55.699 C 256.972 55.745,256.912 55.799,256.864 56.292 C 256.826 56.689,256.730 56.833,256.503 56.833 C 255.877 56.833,255.667 57.026,255.667 57.601 C 255.667 58.076,255.606 58.167,255.292 58.169 C 254.648 58.174,254.496 58.406,254.390 59.545 C 254.288 60.633,254.279 60.650,253.768 60.700 L 253.250 60.750 253.201 61.958 C 253.156 63.077,253.125 63.167,252.784 63.169 C 251.985 63.175,251.928 63.339,251.860 65.825 L 251.796 68.167 251.231 68.167 L 250.667 68.167 250.667 78.066 C 250.667 88.775,250.616 88.167,251.508 88.167 C 251.793 88.167,251.826 88.331,251.869 89.958 L 251.917 91.750 252.542 91.802 L 253.167 91.853 253.167 93.093 L 253.167 94.333 253.743 94.333 L 254.319 94.333 254.368 95.542 L 254.417 96.750 255.032 96.801 C 255.610 96.849,255.651 96.890,255.699 97.468 C 255.745 98.022,255.802 98.088,256.269 98.134 C 256.774 98.183,256.790 98.211,256.895 99.210 C 257.027 100.471,257.029 100.473,258.299 100.606 L 259.333 100.714 259.333 101.274 C 259.333 101.814,259.356 101.833,259.990 101.833 C 260.628 101.833,260.648 101.851,260.698 102.458 C 260.745 103.024,260.800 103.088,261.275 103.134 C 261.727 103.178,261.815 103.265,261.907 103.759 L 262.015 104.333 263.156 104.333 L 264.296 104.333 264.404 104.910 C 264.521 105.529,264.703 105.608,266.250 105.707 C 266.820 105.744,266.925 105.810,266.975 106.167 C 267.064 106.800,267.203 106.828,270.292 106.831 L 273.167 106.833 273.167 107.399 C 273.167 108.189,272.968 108.167,280.000 108.167 C 287.032 108.167,286.833 108.189,286.833 107.399 L 286.833 106.833 290.958 106.831 C 295.337 106.828,295.434 106.814,295.525 106.167 L 295.583 105.750 297.945 105.667 C 299.244 105.621,300.369 105.521,300.445 105.444 C 300.521 105.368,300.583 86.843,300.583 64.278 L 300.583 23.250 297.561 23.205 C 294.914 23.165,294.526 23.193,294.436 23.427 M371.934 33.430 C 371.879 33.575,371.833 33.836,371.833 34.009 C 371.833 34.302,371.659 34.328,369.375 34.371 L 366.917 34.417 366.875 64.816 C 366.830 97.287,366.787 95.667,367.681 95.667 L 368.155 95.667 368.203 97.458 L 368.250 99.250 368.768 99.300 C 369.279 99.350,369.288 99.367,369.390 100.455 C 369.496 101.594,369.648 101.826,370.292 101.831 C 370.606 101.833,370.667 101.924,370.667 102.399 C 370.667 102.977,370.876 103.167,371.514 103.167 C 371.718 103.167,371.833 103.282,371.833 103.486 C 371.833 104.124,372.023 104.333,372.601 104.333 C 373.076 104.333,373.167 104.394,373.169 104.708 C 373.174 105.352,373.406 105.504,374.554 105.611 C 375.550 105.704,375.667 105.752,375.667 106.074 C 375.667 106.775,375.917 106.833,378.950 106.833 L 381.833 106.833 381.833 107.313 C 381.833 108.179,381.933 108.195,386.913 108.137 C 391.855 108.079,391.825 108.085,391.831 107.208 C 391.833 106.836,391.853 106.833,394.333 106.833 L 396.833 106.833 396.833 106.250 L 396.833 105.667 398.417 105.667 L 400.000 105.667 400.000 101.250 C 400.000 96.944,399.992 96.833,399.667 96.833 C 399.363 96.833,399.333 96.722,399.333 95.583 L 399.333 94.333 397.458 94.353 C 394.931 94.380,394.608 94.459,394.500 95.085 L 394.414 95.583 392.582 95.667 L 390.750 95.750 390.697 96.296 L 390.645 96.842 388.114 96.796 L 385.583 96.750 385.525 96.333 C 385.440 95.730,385.259 95.672,383.458 95.669 L 381.833 95.667 381.833 95.000 C 381.833 94.349,381.819 94.333,381.250 94.333 L 380.667 94.333 380.664 93.542 C 380.661 92.290,380.536 92.022,379.903 91.903 L 379.342 91.798 379.296 89.357 L 379.250 86.917 378.708 86.864 L 378.167 86.812 378.167 73.741 L 378.167 60.669 388.708 60.626 L 399.250 60.583 399.294 55.062 L 399.338 49.540 398.961 49.439 C 398.753 49.383,393.990 49.337,388.375 49.336 L 378.167 49.333 378.167 41.250 L 378.167 33.167 375.101 33.167 C 372.460 33.167,372.022 33.203,371.934 33.430 M14.403 44.559 C 14.355 44.683,14.339 47.986,14.367 51.898 C 14.423 59.946,14.298 59.327,15.865 59.331 L 16.813 59.333 16.865 59.958 C 16.914 60.547,16.952 60.586,17.532 60.634 C 18.089 60.681,18.152 60.736,18.198 61.218 L 18.250 61.750 19.449 61.799 L 20.647 61.848 20.699 62.465 C 20.745 63.028,20.798 63.088,21.292 63.136 C 21.689 63.174,21.833 63.270,21.833 63.497 C 21.833 64.236,21.989 64.333,23.174 64.333 L 24.313 64.333 24.365 64.958 C 24.414 65.547,24.452 65.586,25.032 65.634 C 25.589 65.681,25.652 65.736,25.698 66.218 C 25.744 66.686,25.820 66.760,26.332 66.833 C 26.823 66.904,26.928 66.995,27.000 67.415 C 27.093 67.952,27.453 68.107,28.698 68.147 C 29.264 68.165,29.316 68.209,29.364 68.708 C 29.412 69.203,29.471 69.255,30.042 69.302 C 30.557 69.344,30.667 69.418,30.669 69.718 C 30.674 70.352,30.910 70.504,32.054 70.611 L 33.167 70.715 33.167 71.264 C 33.167 71.778,33.206 71.817,33.791 71.865 C 34.338 71.910,34.426 71.978,34.501 72.415 C 34.593 72.952,34.953 73.107,36.198 73.147 C 36.764 73.165,36.816 73.209,36.864 73.708 C 36.912 74.203,36.971 74.255,37.542 74.302 C 38.128 74.350,38.167 74.388,38.167 74.907 C 38.167 75.550,38.404 75.661,39.792 75.664 L 40.667 75.667 40.667 76.250 C 40.667 76.806,40.694 76.833,41.250 76.833 C 41.778 76.833,41.833 76.878,41.833 77.300 C 41.833 77.995,42.118 78.167,43.273 78.167 L 44.312 78.167 44.364 78.708 C 44.412 79.203,44.471 79.255,45.042 79.302 C 45.557 79.344,45.667 79.418,45.669 79.718 C 45.674 80.370,45.912 80.538,46.827 80.538 C 48.155 80.538,48.078 80.990,48.133 72.909 L 48.183 65.667 47.518 65.667 C 46.870 65.667,46.852 65.651,46.802 65.042 C 46.755 64.476,46.700 64.412,46.225 64.366 C 45.773 64.322,45.685 64.235,45.593 63.741 L 45.485 63.167 44.336 63.167 L 43.187 63.167 43.135 62.542 C 43.086 61.953,43.048 61.914,42.468 61.866 C 41.911 61.819,41.848 61.764,41.802 61.282 L 41.750 60.750 40.551 60.701 L 39.353 60.652 39.301 60.035 C 39.255 59.472,39.202 59.412,38.708 59.364 C 38.311 59.326,38.167 59.230,38.167 59.003 C 38.167 58.264,38.011 58.167,36.826 58.167 L 35.687 58.167 35.635 57.542 C 35.586 56.951,35.549 56.914,34.958 56.865 C 34.370 56.816,34.333 56.781,34.333 56.250 C 34.333 55.720,34.297 55.684,33.709 55.635 C 33.162 55.590,33.074 55.522,32.999 55.085 C 32.907 54.548,32.547 54.393,31.302 54.353 C 30.736 54.335,30.684 54.291,30.636 53.792 C 30.588 53.297,30.529 53.245,29.958 53.198 C 29.443 53.156,29.333 53.082,29.331 52.782 C 29.326 52.148,29.090 51.996,27.946 51.889 L 26.833 51.785 26.833 51.236 C 26.833 50.722,26.794 50.683,26.209 50.635 C 25.662 50.590,25.574 50.522,25.499 50.085 C 25.407 49.548,25.047 49.393,23.802 49.353 C 23.236 49.335,23.184 49.291,23.136 48.792 C 23.088 48.297,23.029 48.245,22.458 48.198 C 21.872 48.150,21.833 48.112,21.833 47.593 C 21.833 46.950,21.596 46.839,20.208 46.836 L 19.333 46.833 19.333 46.250 C 19.333 45.694,19.306 45.667,18.750 45.667 C 18.222 45.667,18.167 45.622,18.167 45.200 C 18.167 44.441,17.914 44.333,16.128 44.333 C 14.904 44.333,14.468 44.390,14.403 44.559 M165.667 48.746 L 165.667 49.324 163.208 49.371 L 160.750 49.417 160.698 50.042 L 160.647 50.667 159.032 50.669 C 157.241 50.672,157.060 50.731,156.975 51.333 C 156.928 51.667,156.800 51.767,156.333 51.833 C 155.797 51.910,155.746 51.967,155.698 52.542 L 155.647 53.167 154.607 53.167 C 153.487 53.167,153.167 53.341,153.167 53.950 C 153.167 54.259,153.076 54.333,152.700 54.333 C 152.111 54.333,151.833 54.607,151.833 55.189 C 151.833 55.582,151.758 55.653,151.292 55.698 C 150.813 55.744,150.740 55.818,150.667 56.332 C 150.596 56.823,150.505 56.928,150.085 57.000 C 149.548 57.093,149.393 57.453,149.353 58.698 C 149.335 59.264,149.291 59.316,148.792 59.364 C 148.297 59.412,148.245 59.471,148.198 60.042 C 148.156 60.557,148.082 60.667,147.782 60.669 C 147.148 60.674,146.996 60.910,146.889 62.054 C 146.796 63.050,146.748 63.167,146.426 63.167 C 145.784 63.167,145.667 63.478,145.667 65.181 L 145.667 66.796 145.102 66.902 C 144.354 67.043,144.338 67.126,144.336 71.042 C 144.333 74.175,144.318 74.333,144.014 74.333 C 143.148 74.333,143.166 74.242,143.169 78.559 C 143.172 82.834,143.187 82.934,143.833 83.025 L 144.250 83.083 144.333 86.167 L 144.417 89.250 145.036 89.301 L 145.656 89.353 145.703 91.218 L 145.750 93.083 146.292 93.136 L 146.833 93.188 146.833 94.227 C 146.833 95.382,147.005 95.667,147.700 95.667 C 148.166 95.667,148.167 95.667,148.167 96.826 L 148.167 97.985 148.741 98.093 C 149.235 98.185,149.322 98.273,149.366 98.725 C 149.412 99.199,149.477 99.255,150.032 99.301 C 150.610 99.349,150.651 99.390,150.699 99.968 C 150.745 100.525,150.800 100.588,151.282 100.635 C 151.745 100.680,151.820 100.755,151.865 101.218 C 151.912 101.701,151.974 101.755,152.542 101.802 C 153.132 101.851,153.167 101.885,153.167 102.424 C 153.167 102.910,153.234 103.008,153.625 103.094 C 154.441 103.273,154.500 103.317,154.500 103.742 C 154.500 104.211,154.729 104.302,156.082 104.373 C 156.864 104.414,156.920 104.447,157.001 104.915 C 157.103 105.510,157.451 105.618,159.375 105.647 L 160.667 105.667 160.667 106.250 L 160.667 106.833 163.167 106.833 L 165.667 106.833 165.667 107.409 C 165.667 108.185,165.707 108.190,171.750 108.132 L 176.750 108.083 176.802 107.461 L 176.853 106.840 180.552 106.795 L 184.250 106.750 184.302 106.215 L 184.353 105.681 185.552 105.632 L 186.750 105.583 186.795 101.345 C 186.842 96.848,186.841 96.841,186.049 96.836 C 185.708 96.834,185.678 96.744,185.632 95.625 L 185.583 94.417 184.333 94.366 C 182.408 94.287,182.034 94.398,181.904 95.090 L 181.796 95.667 179.606 95.669 C 177.225 95.672,177.062 95.713,176.975 96.333 L 176.917 96.750 173.125 96.795 L 169.333 96.840 169.333 96.440 C 169.333 95.808,169.008 95.683,167.242 95.631 L 165.586 95.583 165.500 95.085 C 165.407 94.547,165.046 94.393,163.792 94.353 C 163.294 94.337,163.167 94.268,163.167 94.014 C 163.167 93.376,162.977 93.167,162.399 93.167 C 161.952 93.167,161.833 93.099,161.833 92.847 C 161.833 92.273,161.638 92.000,161.227 92.000 C 160.817 92.000,160.772 91.939,160.594 91.125 C 160.508 90.734,160.410 90.667,159.924 90.667 C 159.385 90.667,159.351 90.632,159.302 90.042 C 159.255 89.471,159.203 89.412,158.708 89.364 L 158.167 89.312 158.164 87.864 C 158.161 85.866,158.092 85.667,157.397 85.667 L 156.833 85.667 156.833 78.185 L 156.833 70.704 157.398 70.598 C 158.089 70.468,158.161 70.250,158.164 68.292 L 158.167 66.833 158.750 66.833 C 159.302 66.833,159.333 66.803,159.333 66.269 C 159.333 65.756,159.387 65.694,159.910 65.596 C 160.406 65.503,160.503 65.406,160.596 64.910 C 160.680 64.461,160.784 64.333,161.069 64.333 C 161.534 64.333,161.833 64.034,161.833 63.569 C 161.833 63.284,161.961 63.180,162.410 63.096 C 162.906 63.003,163.003 62.906,163.096 62.410 C 163.194 61.887,163.256 61.833,163.769 61.833 C 164.303 61.833,164.333 61.802,164.333 61.250 L 164.333 60.667 166.050 60.667 C 167.919 60.667,168.167 60.565,168.167 59.800 L 168.167 59.333 171.917 59.333 L 175.667 59.333 175.669 59.708 C 175.675 60.516,175.835 60.572,178.325 60.640 L 180.667 60.704 180.667 61.269 L 180.667 61.833 182.500 61.833 L 184.333 61.833 184.333 60.583 C 184.333 59.399,184.353 59.333,184.708 59.331 C 185.515 59.325,185.572 59.164,185.640 56.684 L 185.704 54.352 186.227 54.301 L 186.750 54.250 186.798 52.692 C 186.861 50.659,186.869 50.667,184.813 50.667 L 183.167 50.667 183.167 50.200 C 183.167 49.376,182.999 49.333,179.800 49.333 L 176.833 49.333 176.833 48.750 L 176.833 48.167 171.250 48.167 L 165.667 48.167 165.667 48.746 M210.869 48.364 C 210.758 48.476,210.667 48.731,210.667 48.931 C 210.667 49.286,210.603 49.297,208.325 49.360 C 205.839 49.428,205.675 49.485,205.669 50.284 C 205.667 50.625,205.577 50.656,204.458 50.701 L 203.250 50.750 203.200 51.268 C 203.150 51.779,203.133 51.788,202.045 51.890 C 200.906 51.996,200.674 52.148,200.669 52.792 C 200.667 53.106,200.576 53.167,200.101 53.167 C 199.526 53.167,199.333 53.377,199.333 54.003 C 199.333 54.230,199.189 54.326,198.792 54.364 C 198.299 54.412,198.245 54.472,198.199 55.032 C 198.151 55.610,198.110 55.651,197.532 55.699 C 196.972 55.745,196.912 55.799,196.864 56.292 C 196.826 56.689,196.730 56.833,196.503 56.833 C 195.877 56.833,195.667 57.026,195.667 57.601 C 195.667 58.076,195.606 58.167,195.292 58.169 C 194.648 58.174,194.496 58.406,194.389 59.554 L 194.285 60.667 193.726 60.667 L 193.167 60.667 193.167 61.917 L 193.167 63.167 192.601 63.167 C 191.885 63.167,191.833 63.308,191.833 65.253 L 191.833 66.812 191.292 66.864 L 190.750 66.917 190.667 69.415 L 190.583 71.914 190.091 71.999 C 189.367 72.124,189.310 72.658,189.367 78.715 C 189.420 84.416,189.405 84.325,190.292 84.331 C 190.664 84.333,190.667 84.353,190.667 86.833 L 190.667 89.333 191.250 89.333 L 191.833 89.333 191.833 91.050 C 191.833 92.915,191.935 93.167,192.693 93.167 C 193.147 93.167,193.153 93.179,193.201 94.375 L 193.250 95.583 193.792 95.636 C 194.291 95.684,194.335 95.736,194.353 96.302 C 194.393 97.547,194.548 97.907,195.085 98.000 C 195.505 98.072,195.596 98.177,195.667 98.668 C 195.740 99.180,195.814 99.256,196.282 99.302 C 196.764 99.348,196.819 99.411,196.866 99.968 C 196.914 100.548,196.953 100.586,197.542 100.635 C 198.133 100.684,198.167 100.718,198.167 101.260 C 198.167 101.804,198.196 101.833,198.750 101.833 C 199.278 101.833,199.333 101.878,199.333 102.300 C 199.333 102.892,199.608 103.167,200.200 103.167 C 200.576 103.167,200.667 103.241,200.667 103.550 C 200.667 104.160,200.987 104.333,202.117 104.333 L 203.167 104.333 203.167 104.897 C 203.167 105.551,203.399 105.661,204.792 105.664 C 205.593 105.666,205.667 105.699,205.667 106.050 C 205.667 106.757,205.930 106.833,208.367 106.833 L 210.667 106.833 210.667 107.413 C 210.667 108.198,210.554 108.184,216.583 108.130 L 221.750 108.083 221.801 107.463 L 221.853 106.842 224.301 106.796 L 226.750 106.750 226.802 106.215 L 226.853 105.681 228.052 105.632 L 229.250 105.583 229.301 104.965 L 229.353 104.348 230.551 104.299 L 231.750 104.250 231.802 103.718 C 231.848 103.236,231.911 103.181,232.468 103.134 C 233.048 103.086,233.086 103.047,233.135 102.458 C 233.184 101.867,233.218 101.833,233.760 101.833 C 234.302 101.833,234.333 101.802,234.333 101.260 C 234.333 100.718,234.367 100.684,234.958 100.635 C 235.549 100.586,235.586 100.549,235.635 99.958 C 235.684 99.367,235.718 99.333,236.260 99.333 C 236.804 99.333,236.833 99.304,236.833 98.750 C 236.833 98.222,236.878 98.167,237.300 98.167 C 237.892 98.167,238.167 97.892,238.167 97.300 C 238.167 96.924,238.241 96.833,238.550 96.833 C 239.160 96.833,239.333 96.513,239.333 95.383 L 239.333 94.333 239.897 94.333 C 240.592 94.333,240.661 94.134,240.664 92.136 L 240.667 90.688 241.208 90.636 L 241.750 90.583 241.797 88.708 C 241.843 86.898,241.857 86.833,242.214 86.831 C 243.114 86.825,243.079 87.130,243.132 78.715 C 243.186 70.059,243.152 69.627,242.409 69.499 L 241.917 69.414 241.870 67.540 L 241.822 65.667 241.245 65.667 L 240.667 65.667 240.647 64.375 C 240.618 62.451,240.510 62.103,239.915 62.001 C 239.447 61.920,239.414 61.864,239.373 61.082 C 239.303 59.738,239.216 59.528,238.708 59.469 C 238.325 59.425,238.236 59.321,238.167 58.833 C 238.090 58.299,238.031 58.246,237.468 58.199 C 236.890 58.151,236.849 58.110,236.801 57.532 C 236.755 56.972,236.701 56.912,236.208 56.864 C 235.712 56.817,235.667 56.764,235.667 56.239 C 235.667 55.682,235.648 55.667,235.000 55.667 L 234.333 55.667 234.333 55.000 C 234.333 54.352,234.318 54.333,233.761 54.333 C 233.236 54.333,233.183 54.288,233.136 53.792 C 233.088 53.297,233.029 53.245,232.458 53.198 C 231.872 53.150,231.833 53.112,231.833 52.593 C 231.833 51.950,231.596 51.839,230.208 51.836 L 229.333 51.833 229.333 51.250 L 229.333 50.667 228.083 50.667 L 226.833 50.667 226.833 50.103 C 226.833 49.380,226.677 49.339,223.969 49.336 L 221.854 49.333 221.802 48.792 L 221.750 48.250 216.411 48.206 C 212.397 48.173,211.021 48.212,210.869 48.364 M325.667 48.748 L 325.667 49.333 322.180 49.333 C 318.174 49.333,318.167 49.335,318.167 50.101 L 318.167 50.667 316.914 50.667 L 315.661 50.667 315.706 54.958 L 315.750 59.250 316.292 59.302 C 316.826 59.354,316.833 59.366,316.836 60.219 C 316.840 61.805,316.881 61.855,318.146 61.799 L 319.250 61.750 319.302 61.208 L 319.354 60.667 321.469 60.664 C 324.177 60.661,324.333 60.620,324.333 59.897 L 324.333 59.333 330.000 59.333 L 335.667 59.333 335.667 59.899 C 335.667 60.577,335.844 60.667,337.180 60.667 L 338.167 60.667 338.167 61.250 C 338.167 61.806,338.194 61.833,338.750 61.833 C 339.278 61.833,339.333 61.878,339.333 62.300 C 339.333 62.892,339.608 63.167,340.200 63.167 C 340.657 63.167,340.667 63.187,340.669 64.125 C 340.672 65.243,340.768 65.446,341.333 65.525 L 341.750 65.583 341.797 67.905 C 341.847 70.409,341.930 70.667,342.687 70.667 C 343.124 70.667,343.167 70.718,343.167 71.250 L 343.167 71.833 340.667 71.833 C 338.313 71.833,338.167 71.815,338.167 71.514 C 338.167 70.641,338.317 70.667,333.266 70.667 C 328.293 70.667,328.167 70.686,328.167 71.450 L 328.167 71.833 325.458 71.836 C 322.167 71.838,322.040 71.866,321.902 72.602 L 321.796 73.167 320.181 73.167 C 318.469 73.167,318.167 73.283,318.167 73.940 C 318.167 74.251,318.062 74.322,317.542 74.365 C 316.951 74.414,316.914 74.451,316.865 75.042 L 316.813 75.667 315.920 75.667 C 314.784 75.667,314.500 75.780,314.500 76.234 C 314.500 76.701,314.201 77.000,313.734 77.000 C 313.280 77.000,313.167 77.284,313.167 78.420 L 313.167 79.313 312.542 79.365 C 311.953 79.414,311.914 79.452,311.866 80.032 C 311.819 80.589,311.764 80.652,311.282 80.698 L 310.750 80.750 310.667 82.582 L 310.583 84.414 310.085 84.500 C 309.413 84.616,309.377 84.848,309.353 89.175 C 309.332 93.047,309.357 93.167,310.200 93.167 L 310.667 93.167 310.667 95.566 C 310.667 98.117,310.683 98.167,311.514 98.167 C 311.784 98.167,311.834 98.290,311.836 98.958 C 311.839 100.212,311.964 100.478,312.602 100.598 C 313.112 100.693,313.167 100.759,313.167 101.269 C 313.167 101.801,313.199 101.833,313.740 101.833 C 314.282 101.833,314.316 101.867,314.365 102.458 C 314.414 103.047,314.452 103.086,315.032 103.134 C 315.589 103.181,315.652 103.236,315.698 103.718 L 315.750 104.250 316.949 104.299 L 318.147 104.348 318.199 104.965 L 318.250 105.583 319.448 105.632 L 320.647 105.681 320.698 106.215 L 320.750 106.750 323.774 106.795 L 326.798 106.841 326.903 107.402 C 327.046 108.167,327.005 108.162,332.758 108.164 C 338.142 108.167,338.167 108.163,338.167 107.300 L 338.167 106.833 344.326 106.833 L 350.485 106.833 350.594 106.250 L 350.704 105.667 352.519 105.667 L 354.333 105.667 354.333 83.851 C 354.333 60.145,354.398 61.833,353.486 61.833 C 353.194 61.833,353.167 61.700,353.167 60.264 C 353.167 58.311,353.114 58.167,352.406 58.167 L 351.848 58.167 351.799 56.958 L 351.750 55.750 351.218 55.698 C 350.736 55.652,350.681 55.589,350.634 55.032 C 350.586 54.452,350.547 54.414,349.958 54.365 C 349.367 54.316,349.333 54.282,349.333 53.740 C 349.333 53.196,349.304 53.167,348.750 53.167 C 348.222 53.167,348.167 53.122,348.167 52.700 C 348.167 52.108,347.892 51.833,347.300 51.833 C 346.924 51.833,346.833 51.759,346.833 51.450 C 346.833 50.781,346.537 50.667,344.800 50.667 L 343.167 50.667 343.167 50.200 C 343.167 49.402,342.955 49.333,340.477 49.333 L 338.188 49.333 338.136 48.792 L 338.083 48.250 331.875 48.206 L 325.667 48.163 325.667 48.748 M63.833 54.460 C 63.170 54.577,63.172 54.550,63.172 62.500 C 63.172 71.059,63.072 70.473,64.554 70.611 L 65.667 70.715 65.667 71.264 C 65.667 71.778,65.706 71.817,66.291 71.865 C 66.838 71.910,66.926 71.978,67.001 72.415 C 67.093 72.952,67.453 73.107,68.698 73.147 C 69.264 73.165,69.316 73.209,69.364 73.708 C 69.412 74.203,69.471 74.255,70.042 74.302 C 70.557 74.344,70.667 74.418,70.669 74.718 C 70.674 75.352,70.910 75.504,72.054 75.611 L 73.167 75.715 73.167 76.274 C 73.167 76.799,73.202 76.833,73.731 76.833 C 74.241 76.833,74.307 76.888,74.402 77.398 C 74.522 78.035,74.789 78.161,76.031 78.164 C 76.790 78.167,76.814 78.182,76.864 78.708 L 76.917 79.250 78.700 79.297 L 80.483 79.344 80.592 78.765 C 80.685 78.265,80.772 78.178,81.225 78.134 C 81.700 78.088,81.755 78.024,81.802 77.458 L 81.853 76.833 82.893 76.833 C 84.013 76.833,84.333 76.659,84.333 76.050 C 84.333 75.741,84.424 75.667,84.800 75.667 C 85.057 75.667,85.357 75.577,85.467 75.467 C 85.577 75.357,85.667 75.057,85.667 74.800 C 85.667 74.343,85.687 74.333,86.625 74.331 C 88.032 74.327,88.058 74.291,88.072 72.388 L 88.083 70.750 87.468 70.699 C 86.890 70.651,86.849 70.610,86.801 70.032 C 86.754 69.469,86.701 69.410,86.167 69.333 C 85.700 69.267,85.572 69.167,85.525 68.833 C 85.446 68.269,85.243 68.172,84.135 68.169 L 83.187 68.167 83.135 67.542 C 83.086 66.953,83.048 66.914,82.468 66.866 C 81.911 66.819,81.848 66.764,81.802 66.282 L 81.750 65.750 80.551 65.701 L 79.353 65.652 79.301 65.035 C 79.255 64.472,79.202 64.412,78.708 64.364 C 78.311 64.326,78.167 64.230,78.167 64.003 C 78.167 63.264,78.011 63.167,76.826 63.167 L 75.687 63.167 75.635 62.542 C 75.586 61.953,75.548 61.914,74.968 61.866 C 74.411 61.819,74.348 61.764,74.302 61.282 C 74.256 60.814,74.180 60.740,73.668 60.667 C 73.177 60.596,73.072 60.505,73.000 60.085 C 72.907 59.548,72.547 59.393,71.302 59.353 C 70.736 59.335,70.684 59.291,70.636 58.792 C 70.588 58.297,70.529 58.245,69.958 58.198 C 69.443 58.156,69.333 58.082,69.331 57.782 C 69.326 57.148,69.090 56.996,67.946 56.889 L 66.833 56.785 66.833 56.236 C 66.833 55.722,66.794 55.684,66.208 55.635 C 65.662 55.590,65.577 55.524,65.530 55.115 C 65.500 54.858,65.388 54.620,65.280 54.587 C 64.808 54.444,64.219 54.393,63.833 54.460 M219.333 59.813 C 219.333 60.483,219.603 60.641,220.840 60.699 C 221.845 60.747,221.921 60.778,221.975 61.167 C 222.054 61.731,222.257 61.828,223.365 61.831 L 224.313 61.833 224.365 62.458 C 224.414 63.049,224.451 63.086,225.042 63.135 C 225.633 63.184,225.667 63.218,225.667 63.760 C 225.667 64.299,225.700 64.333,226.226 64.333 L 226.785 64.333 226.889 65.446 C 226.996 66.594,227.148 66.826,227.792 66.831 C 228.141 66.833,228.167 66.906,228.167 67.883 C 228.167 69.013,228.340 69.333,228.950 69.333 C 229.325 69.333,229.333 69.370,229.333 71.050 C 229.333 72.919,229.435 73.167,230.200 73.167 L 230.667 73.167 230.667 78.167 L 230.667 83.167 230.087 83.167 C 229.389 83.167,229.351 83.275,229.292 85.417 L 229.250 86.917 228.792 86.969 C 228.284 87.028,228.197 87.238,228.127 88.582 C 228.086 89.364,228.053 89.420,227.585 89.501 C 227.048 89.593,226.893 89.953,226.853 91.198 C 226.835 91.764,226.791 91.816,226.292 91.864 C 225.799 91.912,225.745 91.972,225.699 92.532 C 225.651 93.110,225.610 93.151,225.032 93.199 C 224.472 93.245,224.412 93.299,224.364 93.792 C 224.316 94.291,224.264 94.335,223.698 94.353 C 222.453 94.393,222.093 94.548,222.000 95.085 C 221.915 95.579,221.903 95.584,220.713 95.632 L 219.512 95.681 219.404 96.257 L 219.296 96.833 216.231 96.833 C 213.321 96.833,213.167 96.817,213.167 96.514 C 213.167 95.764,213.014 95.667,211.834 95.667 L 210.704 95.667 210.598 95.102 C 210.478 94.464,210.212 94.339,208.958 94.336 L 208.167 94.333 208.167 93.750 C 208.167 93.181,208.151 93.167,207.500 93.167 L 206.833 93.167 206.833 92.117 C 206.833 90.987,206.660 90.667,206.050 90.667 C 205.741 90.667,205.667 90.576,205.667 90.200 C 205.667 89.610,205.393 89.333,204.807 89.333 C 204.353 89.333,204.347 89.321,204.299 88.125 L 204.250 86.917 203.712 86.865 L 203.174 86.813 203.129 83.781 L 203.083 80.750 202.458 80.698 L 201.833 80.647 201.833 78.157 L 201.833 75.667 202.313 75.667 C 203.070 75.667,203.153 75.409,203.203 72.905 L 203.250 70.583 203.667 70.525 C 204.269 70.440,204.328 70.259,204.331 68.468 L 204.333 66.853 204.958 66.802 C 205.533 66.754,205.590 66.703,205.667 66.167 C 205.733 65.700,205.833 65.572,206.167 65.525 C 206.731 65.446,206.828 65.243,206.831 64.135 L 206.833 63.187 207.458 63.135 C 208.049 63.086,208.086 63.049,208.135 62.458 L 208.187 61.833 209.326 61.833 C 210.514 61.833,210.667 61.737,210.667 60.986 C 210.667 60.705,210.793 60.667,211.717 60.667 C 212.883 60.667,213.167 60.497,213.167 59.800 L 213.167 59.333 216.250 59.333 L 219.333 59.333 219.333 59.813 M280.698 59.958 L 280.750 60.583 282.532 60.631 L 284.313 60.678 284.365 61.214 L 284.417 61.750 285.615 61.799 L 286.814 61.848 286.865 62.465 C 286.914 63.048,286.952 63.086,287.542 63.135 L 288.167 63.187 288.167 79.427 L 288.167 95.667 286.542 95.669 C 284.741 95.672,284.560 95.730,284.475 96.333 L 284.417 96.750 280.061 96.794 L 275.705 96.839 275.595 96.253 L 275.485 95.667 273.669 95.667 L 271.853 95.667 271.802 95.042 L 271.750 94.417 270.542 94.368 L 269.333 94.319 269.333 93.743 C 269.333 93.197,269.303 93.167,268.760 93.167 C 268.218 93.167,268.184 93.133,268.135 92.542 C 268.086 91.951,268.049 91.914,267.458 91.865 L 266.833 91.813 266.831 90.865 C 266.828 89.757,266.731 89.554,266.167 89.475 C 265.833 89.428,265.733 89.300,265.667 88.833 C 265.590 88.297,265.533 88.246,264.958 88.198 L 264.333 88.147 264.333 86.331 L 264.333 84.515 263.750 84.406 L 263.167 84.296 263.167 78.065 L 263.167 71.833 263.563 71.833 C 264.191 71.833,264.317 71.506,264.369 69.742 L 264.417 68.086 264.915 68.000 C 265.453 67.907,265.607 67.546,265.647 66.292 C 265.663 65.794,265.732 65.667,265.986 65.667 C 266.624 65.667,266.833 65.477,266.833 64.899 C 266.833 64.452,266.901 64.333,267.153 64.333 C 267.714 64.333,268.000 64.141,268.000 63.766 C 268.000 63.299,268.299 63.000,268.766 63.000 C 269.139 63.000,269.333 62.714,269.333 62.163 C 269.333 61.926,269.479 61.841,269.958 61.802 C 270.529 61.755,270.588 61.703,270.636 61.208 L 270.688 60.667 272.247 60.667 C 274.192 60.667,274.333 60.615,274.333 59.899 L 274.333 59.333 277.490 59.333 L 280.647 59.333 280.698 59.958 M93.375 76.941 C 93.260 76.989,93.167 77.280,93.167 77.587 C 93.167 78.113,93.129 78.150,92.542 78.198 C 91.971 78.245,91.912 78.297,91.864 78.792 C 91.814 79.318,91.790 79.333,91.031 79.336 C 89.789 79.339,89.522 79.465,89.402 80.102 C 89.307 80.612,89.241 80.667,88.731 80.667 C 88.197 80.667,88.167 80.698,88.167 81.250 L 88.167 81.833 87.292 81.836 C 85.904 81.839,85.667 81.950,85.667 82.593 C 85.667 83.112,85.628 83.150,85.042 83.198 C 84.471 83.245,84.412 83.297,84.364 83.792 C 84.316 84.291,84.264 84.335,83.698 84.353 C 82.453 84.393,82.093 84.548,82.001 85.085 C 81.926 85.522,81.838 85.590,81.291 85.635 C 80.706 85.683,80.667 85.722,80.667 86.236 L 80.667 86.785 79.554 86.889 C 78.410 86.996,78.174 87.148,78.169 87.782 C 78.167 88.082,78.057 88.156,77.542 88.198 C 76.971 88.245,76.912 88.297,76.864 88.792 C 76.817 89.288,76.764 89.333,76.239 89.333 C 75.683 89.333,75.667 89.353,75.667 89.993 L 75.667 90.652 74.458 90.701 L 73.250 90.750 73.198 91.282 C 73.152 91.764,73.089 91.819,72.532 91.866 C 71.952 91.914,71.914 91.953,71.865 92.542 L 71.813 93.167 70.674 93.167 C 69.489 93.167,69.333 93.264,69.333 94.003 C 69.333 94.230,69.189 94.326,68.792 94.364 C 68.298 94.412,68.245 94.472,68.199 95.035 L 68.147 95.652 66.949 95.701 L 65.750 95.750 65.698 96.282 C 65.652 96.764,65.589 96.819,65.032 96.866 C 64.452 96.914,64.414 96.953,64.365 97.542 C 64.316 98.133,64.282 98.167,63.740 98.167 L 63.167 98.167 63.167 105.576 L 63.167 112.985 63.750 113.094 C 64.842 113.299,65.473 113.065,65.596 112.410 C 65.694 111.887,65.756 111.833,66.269 111.833 C 66.803 111.833,66.833 111.802,66.833 111.250 L 66.833 110.667 67.820 110.667 C 69.152 110.667,69.333 110.576,69.333 109.909 C 69.333 109.387,69.371 109.350,69.958 109.302 C 70.529 109.255,70.588 109.203,70.636 108.708 C 70.686 108.182,70.710 108.167,71.469 108.164 C 72.711 108.161,72.978 108.035,73.098 107.398 C 73.193 106.888,73.259 106.833,73.769 106.833 C 74.298 106.833,74.333 106.799,74.333 106.274 L 74.333 105.715 75.446 105.611 C 76.590 105.504,76.826 105.352,76.831 104.718 C 76.833 104.418,76.943 104.344,77.458 104.302 C 78.029 104.255,78.088 104.203,78.136 103.708 C 78.184 103.209,78.236 103.165,78.802 103.147 C 80.047 103.107,80.407 102.952,80.499 102.415 C 80.574 101.978,80.662 101.910,81.209 101.865 C 81.794 101.817,81.833 101.778,81.833 101.264 L 81.833 100.715 82.946 100.611 C 84.094 100.504,84.326 100.352,84.331 99.708 C 84.333 99.394,84.424 99.333,84.899 99.333 C 85.477 99.333,85.667 99.124,85.667 98.486 C 85.667 98.232,85.786 98.167,86.250 98.167 C 86.818 98.167,86.833 98.150,86.833 97.507 L 86.833 96.848 88.042 96.799 L 89.250 96.750 89.302 96.218 C 89.348 95.736,89.411 95.681,89.968 95.634 C 90.548 95.586,90.586 95.547,90.635 94.958 L 90.687 94.333 91.836 94.333 L 92.985 94.333 93.093 93.759 C 93.185 93.265,93.273 93.178,93.725 93.134 C 94.200 93.088,94.255 93.024,94.302 92.458 L 94.353 91.833 95.406 91.833 C 96.939 91.833,96.843 92.368,96.793 84.147 L 96.750 76.917 95.167 76.885 C 94.296 76.868,93.490 76.893,93.375 76.941 M342.000 82.415 C 342.068 82.811,342.189 82.932,342.585 83.000 L 343.083 83.087 343.127 89.960 L 343.170 96.833 335.669 96.833 C 328.384 96.833,328.167 96.824,328.167 96.514 C 328.167 95.764,328.014 95.667,326.834 95.667 L 325.704 95.667 325.596 95.090 C 325.503 94.594,325.406 94.497,324.910 94.404 C 324.461 94.320,324.333 94.216,324.333 93.931 C 324.333 93.468,324.034 93.167,323.574 93.167 C 323.252 93.167,323.204 93.050,323.111 92.054 C 323.004 90.906,322.852 90.674,322.208 90.669 C 321.841 90.667,321.833 90.625,321.833 88.760 L 321.833 86.853 322.458 86.802 C 323.029 86.755,323.088 86.703,323.136 86.208 C 323.174 85.811,323.270 85.667,323.497 85.667 C 324.123 85.667,324.333 85.474,324.333 84.899 C 324.333 84.367,324.367 84.333,324.899 84.333 C 325.477 84.333,325.667 84.124,325.667 83.486 C 325.667 83.216,325.790 83.166,326.458 83.164 C 327.713 83.161,327.978 83.037,328.098 82.396 L 328.204 81.830 335.059 81.873 L 341.913 81.917 342.000 82.415 " stroke="none" fill="#0c1c64" fill-rule="evenodd"></path><path id="path1" d="" stroke="none" fill="#101c64" fill-rule="evenodd"></path><path id="path2" d="" stroke="none" fill="#101c64" fill-rule="evenodd"></path><path id="path3" d="" stroke="none" fill="#101c64" fill-rule="evenodd"></path><path id="path4" d="" stroke="none" fill="#101c64" fill-rule="evenodd"></path><path id="path5" d="" stroke="none" fill="#101c64" fill-rule="evenodd"></path><path id="path6" d="" stroke="none" fill="#101c64" fill-rule="evenodd"></path><path id="path7" d="" stroke="none" fill="#101c64" fill-rule="evenodd"></path><path id="path8" d="" stroke="none" fill="#101c64" fill-rule="evenodd"></path></g></svg>