<svg width="48" height="48" viewBox="0 0 48 48" fill="none" xmlns="http://www.w3.org/2000/svg">
<g opacity="0.3">
<path d="M40.71 32.5629C40.71 37.3328 33.5249 40.933 24 40.933C14.475 40.933 7.29004 37.3328 7.29004 32.5629C7.29004 28.6181 12.3302 25.4229 19.635 24.4931L18.135 23.4582V23.4578C17.6956 23.1443 17.4568 22.6203 17.5085 22.083C17.5601 21.5458 17.8948 21.0767 18.3859 20.8529C18.877 20.6292 19.4504 20.6845 19.8899 20.998L24.855 24.4781C25.2333 24.7392 25.471 25.1592 25.4999 25.6181C25.5256 26.0722 25.3435 26.5138 25.0048 26.8178L20.5048 30.8978V30.8982C20.2276 31.1428 19.8698 31.2761 19.4999 31.2732C19.0788 31.2757 18.6763 31.1018 18.3899 30.793C18.1193 30.4975 17.9783 30.106 17.9981 29.7061C18.0175 29.3058 18.1965 28.9305 18.495 28.6631L19.8002 27.4931C14.0701 28.2732 10.2902 30.5832 10.2902 32.5483C10.2902 35.0832 16.1551 37.9184 24.0002 37.9184C31.8453 37.9184 37.7102 35.0836 37.7102 32.5483V32.548C37.5784 31.6489 37.0642 30.8506 36.3003 30.3581C35.9868 30.1149 35.7821 29.7575 35.7316 29.3638C35.681 28.9702 35.7883 28.5728 36.0304 28.2582C36.2736 27.9444 36.631 27.7401 37.0246 27.6895C37.4183 27.6386 37.8156 27.7463 38.1302 27.988C39.6742 29.0112 40.6336 30.7125 40.7102 32.5631L40.71 32.5629ZM9.82504 23.4131C10.0887 23.6247 10.4165 23.7408 10.7549 23.743C11.2401 23.761 11.7041 23.5431 11.9999 23.1578C12.2567 22.8341 12.368 22.4188 12.3087 22.0101C12.249 21.6011 12.0234 21.2349 11.685 20.9979C10.9211 20.5083 10.4109 19.7073 10.2901 18.808C10.2901 17.1729 12.855 15.3729 16.6651 14.308C17.061 14.2157 17.4027 13.9663 17.6118 13.6173C17.8205 13.2683 17.8788 12.8497 17.7729 12.4568C17.6671 12.0642 17.4063 11.7313 17.0504 11.5343C16.6944 11.3377 16.274 11.2937 15.8851 11.4131C10.5 12.9131 7.29009 15.5982 7.29009 18.7629C7.32488 20.6339 8.27118 22.3698 9.82499 23.4131L9.82504 23.4131ZM26.58 17.2479C26.8613 17.4958 27.2253 17.6298 27.5999 17.6229C28.0211 17.6258 28.4239 17.4515 28.7099 17.1428C28.9853 16.8469 29.1296 16.4521 29.1098 16.0481C29.0901 15.6446 28.9081 15.2656 28.6052 14.9979L27.1052 13.6631C33.4502 14.2929 37.6952 16.7381 37.6952 18.853H37.6948C37.5652 19.7568 37.051 20.5606 36.2849 21.058C35.0892 21.9435 33.7423 22.6045 32.3101 23.0081C31.5912 23.2421 30.8599 23.4373 30.1202 23.5929C29.7331 23.6757 29.3944 23.9086 29.1779 24.24C28.9615 24.5714 28.885 24.9753 28.9652 25.3628C29.0351 25.7067 29.2237 26.0154 29.4976 26.2344C29.7719 26.4538 30.1143 26.5699 30.4651 26.5629C30.5695 26.5776 30.6757 26.5776 30.7801 26.5629C31.6161 26.3923 32.4423 26.1769 33.2549 25.918C35.0306 25.4031 36.6977 24.5696 38.1749 23.4578C39.6847 22.4419 40.6293 20.7754 40.7248 18.9578C40.7248 14.8328 35.3547 11.5929 27.6298 10.7979L28.935 9.88276V9.88312C29.3876 9.57221 29.6403 9.0434 29.5975 8.4959C29.555 7.94805 29.2232 7.46503 28.7277 7.2284C28.2319 6.99147 27.6477 7.03724 27.1947 7.34778L22.23 10.8279C21.8557 11.089 21.621 11.5065 21.5917 11.9617C21.5624 12.4173 21.7422 12.8611 22.0799 13.168L26.58 17.2479Z" fill="white"/>
</g>
</svg>
