<svg xmlns="http://www.w3.org/2000/svg" width="56" height="56" viewBox="0 0 56 56" fill="none">
  <path d="M28.0047 4.66431C40.8917 4.66431 51.3403 15.113 51.3403 28.0023C51.3423 30.8617 50.8187 33.6972 49.7957 36.3673L47.4857 31.7473C48.019 28.9597 47.9514 26.0904 47.2873 23.331H39.452C39.5298 24.1399 39.5873 24.9604 39.6247 25.7926C38.2422 26.0751 37.013 26.8588 36.1737 27.993C36.1705 26.3799 36.0904 24.8266 35.9333 23.3333H20.0783C19.6687 27.2191 19.7747 31.142 20.3933 35H32.571L30.821 38.5H21.1493C22.3627 42.9893 24.2877 46.2536 26.3807 47.3946L26.3013 47.5556C25.6947 48.769 25.5547 50.0476 25.7787 51.233C13.9323 50.113 4.66666 40.138 4.66666 28.0023C4.66666 15.113 15.1153 4.66431 28.0047 4.66431ZM17.5233 38.5023H11.1697C13.4232 42.1069 16.7717 44.8952 20.7247 46.459C19.5043 44.5456 18.4987 42.1516 17.7613 39.424L17.5233 38.5023ZM16.555 23.3333H8.71966L8.71032 23.373C8.34777 24.8894 8.16529 26.4432 8.16666 28.0023C8.16666 30.4663 8.61699 32.8253 9.43832 35.0023H16.842C16.2819 31.1387 16.1856 27.2221 16.555 23.3356M20.727 9.54564L20.6733 9.56431C15.8974 11.4699 12.0443 15.1499 9.92132 19.8333H17.0333C17.7637 15.7453 19.04 12.187 20.727 9.54564ZM28.0047 8.16431L27.734 8.17597C24.78 8.44664 21.9287 13.118 20.6033 19.8333H35.4037C34.083 13.1366 31.2433 8.47231 28.2987 8.17831L28.0047 8.16431ZM35.2847 9.54097L35.532 9.94931C37.0953 12.544 38.2807 15.9506 38.9737 19.8356H46.0857C44.0611 15.3652 40.4563 11.8003 35.9637 9.82564L35.2847 9.54097ZM37.709 29.9366L28.3827 48.5986C28.1151 49.1326 27.9886 49.7261 28.0153 50.3228C28.0419 50.9194 28.2208 51.4993 28.5349 52.0073C28.849 52.5153 29.2878 52.9345 29.8097 53.2249C30.3316 53.5153 30.9191 53.6674 31.5163 53.6666H50.169C50.7662 53.6674 51.3537 53.5153 51.8756 53.2249C52.3975 52.9345 52.8363 52.5153 53.1504 52.0073C53.4645 51.4993 53.6434 50.9194 53.6701 50.3228C53.6967 49.7261 53.5702 49.1326 53.3027 48.5986L43.9763 29.9366C42.686 27.3536 38.9993 27.3536 37.709 29.9366ZM42.0093 36.1573V43.1596C42.0093 43.4691 41.8864 43.7658 41.6676 43.9846C41.4488 44.2034 41.1521 44.3263 40.8427 44.3263C40.5332 44.3263 40.2365 44.2034 40.0177 43.9846C39.7989 43.7658 39.676 43.4691 39.676 43.1596V36.1573C39.676 35.8479 39.7989 35.5511 40.0177 35.3323C40.2365 35.1136 40.5332 34.9906 40.8427 34.9906C41.1521 34.9906 41.4488 35.1136 41.6676 35.3323C41.8864 35.5511 42.0093 35.8479 42.0093 36.1573ZM40.8427 48.9976C40.5329 48.9976 40.2359 48.8746 40.0169 48.6556C39.7979 48.4366 39.6748 48.1395 39.6748 47.8298C39.6748 47.5201 39.7979 47.223 40.0169 47.004C40.2359 46.785 40.5329 46.662 40.8427 46.662C41.1521 46.662 41.4488 46.7849 41.6676 47.0037C41.8864 47.2225 42.0093 47.5192 42.0093 47.8286C42.0093 48.1381 41.8864 48.4348 41.6676 48.6536C41.4488 48.8724 41.1521 48.9953 40.8427 48.9953" fill="#5C5C5C"/>
</svg>
