<svg width="77" height="27" viewBox="0 0 77 27" fill="none" xmlns="http://www.w3.org/2000/svg">
<path d="M9.08536 15.0088V17.3691C8.99521 17.3937 8.85178 17.4183 8.65509 17.4429C8.46659 17.4675 8.27809 17.4798 8.08959 17.4798C7.90109 17.4798 7.73307 17.4634 7.58555 17.4306C7.44623 17.406 7.32739 17.3568 7.22904 17.2831C7.13889 17.2093 7.06922 17.1069 7.02005 16.9757C6.97088 16.8446 6.94629 16.6725 6.94629 16.4594V10.6692C6.94629 10.4971 6.99137 10.3659 7.08152 10.2758C7.17987 10.1774 7.311 10.0996 7.47491 10.0422C7.75356 9.94385 8.07729 9.87419 8.4461 9.83321C8.8149 9.78404 9.2083 9.75945 9.62628 9.75945C10.7573 9.75945 11.6096 9.99712 12.1833 10.4725C12.757 10.9478 13.0439 11.5912 13.0439 12.4026C13.0439 12.9107 12.9127 13.3451 12.6505 13.7057C12.3882 14.0663 12.0768 14.3449 11.7162 14.5416C12.0112 14.9432 12.3022 15.3202 12.589 15.6726C12.8759 16.025 13.1012 16.3447 13.2652 16.6315C13.1832 16.9184 13.0316 17.1397 12.8103 17.2954C12.5972 17.4429 12.3554 17.5167 12.085 17.5167C11.9047 17.5167 11.749 17.4962 11.6178 17.4552C11.4867 17.4142 11.372 17.3568 11.2736 17.2831C11.1753 17.2093 11.0851 17.1192 11.0032 17.0126C10.9212 16.9061 10.8433 16.7913 10.7696 16.6684L9.73692 15.0088H9.08536ZM9.85985 13.3737C10.1713 13.3737 10.4172 13.2959 10.5975 13.1402C10.7778 12.9763 10.8679 12.7386 10.8679 12.4271C10.8679 12.1157 10.7655 11.8821 10.5606 11.7264C10.3639 11.5625 10.0484 11.4805 9.61398 11.4805C9.49105 11.4805 9.3927 11.4846 9.31894 11.4928C9.24518 11.501 9.16322 11.5133 9.07307 11.5297V13.3737H9.85985Z" fill="white"/>
<path d="M14.4377 11.1117C14.4377 10.7593 14.5401 10.4807 14.745 10.2758C14.9499 10.0709 15.2285 9.96844 15.5809 9.96844H19.6378C19.6952 10.0586 19.7444 10.1774 19.7853 10.325C19.8345 10.4725 19.8591 10.6282 19.8591 10.7921C19.8591 11.1035 19.7894 11.3248 19.6501 11.456C19.519 11.5871 19.3428 11.6527 19.1215 11.6527H16.5276V12.7959H19.2936C19.351 12.8861 19.4001 13.0049 19.4411 13.1525C19.4903 13.2918 19.5149 13.4434 19.5149 13.6073C19.5149 13.9188 19.4493 14.14 19.3182 14.2712C19.187 14.4023 19.0108 14.4679 18.7896 14.4679H16.5276V15.7587H19.687C19.7444 15.8488 19.7935 15.9677 19.8345 16.1152C19.8837 16.2627 19.9083 16.4184 19.9083 16.5824C19.9083 16.8938 19.8386 17.1192 19.6993 17.2585C19.5681 17.3896 19.3919 17.4552 19.1707 17.4552H15.5809C15.2285 17.4552 14.9499 17.3527 14.745 17.1479C14.5401 16.943 14.4377 16.6643 14.4377 16.3119V11.1117Z" fill="white"/>
<path d="M20.7318 13.6811C20.7318 13.0418 20.8302 12.4763 21.0269 11.9846C21.2318 11.4928 21.5063 11.0831 21.8505 10.7552C22.203 10.4192 22.6127 10.1651 23.0799 9.99303C23.5553 9.82092 24.0675 9.73486 24.6166 9.73486C25.1657 9.73486 25.6738 9.82092 26.141 9.99303C26.6163 10.1651 27.0302 10.4192 27.3826 10.7552C27.735 11.0831 28.0096 11.4928 28.2063 11.9846C28.4112 12.4763 28.5136 13.0418 28.5136 13.6811C28.5136 14.4843 28.3661 15.1686 28.0711 15.7341C27.776 16.2914 27.3744 16.7299 26.8663 17.0495C26.9892 17.1069 27.1327 17.1683 27.2966 17.2339C27.4687 17.2995 27.6449 17.365 27.8252 17.4306C28.0137 17.4962 28.2063 17.5576 28.403 17.615C28.5997 17.6806 28.7841 17.7379 28.9562 17.7871C28.9644 17.8363 28.9685 17.8773 28.9685 17.9101C28.9685 17.951 28.9685 17.9879 28.9685 18.0207C28.9685 18.4878 28.8456 18.828 28.5997 19.0411C28.362 19.2541 28.0465 19.3607 27.6531 19.3607C27.2761 19.3607 26.8868 19.2541 26.4852 19.0411C26.0836 18.8362 25.6738 18.537 25.2559 18.1436L24.7149 17.6396H24.6166C24.0593 17.6396 23.543 17.5535 23.0676 17.3814C22.5923 17.2011 22.1825 16.943 21.8383 16.6069C21.494 16.2709 21.2236 15.857 21.0269 15.3653C20.8302 14.8736 20.7318 14.3122 20.7318 13.6811ZM22.9447 13.6811C22.9447 14.4269 23.0963 14.9842 23.3995 15.353C23.7028 15.7218 24.1085 15.9062 24.6166 15.9062C25.1329 15.9062 25.5427 15.7218 25.8459 15.353C26.1492 14.9842 26.3008 14.4269 26.3008 13.6811C26.3008 12.9435 26.1492 12.3903 25.8459 12.0215C25.5509 11.6527 25.1452 11.4682 24.6289 11.4682C24.1208 11.4682 23.711 11.6527 23.3995 12.0215C23.0963 12.3821 22.9447 12.9353 22.9447 13.6811Z" fill="white"/>
<path d="M36.3702 14.6646C36.3702 15.1071 36.2923 15.5128 36.1366 15.8816C35.9891 16.2422 35.7719 16.5537 35.485 16.8159C35.1982 17.07 34.8499 17.2667 34.4401 17.406C34.0303 17.5453 33.5672 17.615 33.0509 17.615C32.5346 17.615 32.0715 17.5453 31.6617 17.406C31.252 17.2667 30.9036 17.07 30.6168 16.8159C30.3299 16.5537 30.1087 16.2422 29.9529 15.8816C29.8054 15.5128 29.7317 15.1071 29.7317 14.6646V9.96844C29.8218 9.95205 29.9652 9.93156 30.1619 9.90697C30.3586 9.87419 30.5471 9.8578 30.7274 9.8578C30.9159 9.8578 31.0798 9.87419 31.2192 9.90697C31.3667 9.93156 31.4896 9.98073 31.588 10.0545C31.6863 10.1283 31.7601 10.2307 31.8093 10.3618C31.8584 10.493 31.883 10.6651 31.883 10.8782V14.6277C31.883 15.0211 31.9896 15.3284 32.2027 15.5497C32.4239 15.771 32.7067 15.8816 33.0509 15.8816C33.4033 15.8816 33.6861 15.771 33.8992 15.5497C34.1122 15.3284 34.2188 15.0211 34.2188 14.6277V9.96844C34.3089 9.95205 34.4524 9.93156 34.6491 9.90697C34.8458 9.87419 35.0343 9.8578 35.2146 9.8578C35.4031 9.8578 35.567 9.87419 35.7063 9.90697C35.8538 9.93156 35.9768 9.98073 36.0751 10.0545C36.1735 10.1283 36.2472 10.2307 36.2964 10.3618C36.3456 10.493 36.3702 10.6651 36.3702 10.8782V14.6646Z" fill="white"/>
<path d="M37.9322 11.1117C37.9322 10.7593 38.0346 10.4807 38.2395 10.2758C38.4444 10.0709 38.7231 9.96844 39.0755 9.96844H43.1324C43.1897 10.0586 43.2389 10.1774 43.2799 10.325C43.3291 10.4725 43.3536 10.6282 43.3536 10.7921C43.3536 11.1035 43.284 11.3248 43.1447 11.456C43.0135 11.5871 42.8373 11.6527 42.616 11.6527H40.0221V12.7959H42.7881C42.8455 12.8861 42.8947 13.0049 42.9357 13.1525C42.9848 13.2918 43.0094 13.4434 43.0094 13.6073C43.0094 13.9188 42.9439 14.14 42.8127 14.2712C42.6816 14.4023 42.5054 14.4679 42.2841 14.4679H40.0221V15.7587H43.1815C43.2389 15.8488 43.2881 15.9677 43.3291 16.1152C43.3782 16.2627 43.4028 16.4184 43.4028 16.5824C43.4028 16.8938 43.3332 17.1192 43.1938 17.2585C43.0627 17.3896 42.8865 17.4552 42.6652 17.4552H39.0755C38.7231 17.4552 38.4444 17.3527 38.2395 17.1479C38.0346 16.943 37.9322 16.6643 37.9322 16.3119V11.1117Z" fill="white"/>
<path d="M46.8417 14.4556C46.4811 14.3326 46.1533 14.2097 45.8583 14.0868C45.5632 13.9556 45.3091 13.7999 45.0961 13.6196C44.883 13.4393 44.715 13.2262 44.592 12.9804C44.4773 12.7263 44.4199 12.4189 44.4199 12.0583C44.4199 11.3617 44.6863 10.8044 45.219 10.3864C45.7599 9.96844 46.5139 9.75945 47.481 9.75945C47.8334 9.75945 48.1612 9.78404 48.4645 9.83321C48.7677 9.88239 49.0259 9.96024 49.239 10.0668C49.4603 10.1651 49.6324 10.2963 49.7553 10.4602C49.8782 10.6159 49.9397 10.8003 49.9397 11.0134C49.9397 11.2265 49.8905 11.4109 49.7922 11.5666C49.6938 11.7141 49.575 11.8412 49.4357 11.9477C49.2554 11.833 49.0136 11.7346 48.7104 11.6527C48.4071 11.5625 48.0752 11.5174 47.7146 11.5174C47.3458 11.5174 47.0753 11.5707 46.9032 11.6772C46.7311 11.7756 46.645 11.9026 46.645 12.0583C46.645 12.1813 46.6983 12.2837 46.8049 12.3657C46.9114 12.4394 47.0712 12.5091 47.2843 12.5747L47.9359 12.7837C48.7063 13.0295 49.2963 13.3451 49.7061 13.7303C50.1241 14.1073 50.3331 14.6236 50.3331 15.2792C50.3331 15.9759 50.0585 16.5414 49.5094 16.9757C48.9603 17.4019 48.153 17.615 47.0876 17.615C46.7106 17.615 46.3582 17.5822 46.0304 17.5167C45.7107 17.4593 45.428 17.3732 45.1821 17.2585C44.9444 17.1356 44.7559 16.988 44.6166 16.8159C44.4855 16.6356 44.4199 16.4307 44.4199 16.2013C44.4199 15.9636 44.4896 15.7628 44.6289 15.5989C44.7682 15.4268 44.9199 15.2956 45.0838 15.2055C45.3132 15.3858 45.5919 15.5415 45.9197 15.6726C46.2557 15.8038 46.6205 15.8693 47.0138 15.8693C47.4154 15.8693 47.6982 15.8079 47.8621 15.6849C48.026 15.562 48.108 15.4186 48.108 15.2547C48.108 15.0907 48.0424 14.9678 47.9113 14.8858C47.7801 14.7957 47.5957 14.7096 47.3581 14.6277L46.8417 14.4556Z" fill="white"/>
<path d="M50.998 11.6895C50.9406 11.5994 50.8874 11.4764 50.8382 11.3207C50.789 11.165 50.7644 11.0011 50.7644 10.829C50.7644 10.5094 50.8341 10.2799 50.9734 10.1405C51.1209 10.0012 51.3094 9.93156 51.5389 9.93156H56.8989C56.9563 10.0217 57.0095 10.1446 57.0587 10.3004C57.1079 10.4561 57.1325 10.62 57.1325 10.7921C57.1325 11.1117 57.0587 11.3412 56.9112 11.4805C56.7719 11.6199 56.5875 11.6895 56.358 11.6895H54.9934V17.3691C54.9032 17.3937 54.7598 17.4183 54.5631 17.4429C54.3746 17.4675 54.1861 17.4798 53.9976 17.4798C53.8091 17.4798 53.6411 17.4634 53.4936 17.4306C53.3543 17.406 53.2354 17.3568 53.1371 17.2831C53.0387 17.2093 52.965 17.1069 52.9158 16.9757C52.8666 16.8446 52.842 16.6725 52.842 16.4594V11.6895H50.998Z" fill="white"/>
<path d="M59.3166 17.4552C58.9642 17.4552 58.6855 17.3527 58.4806 17.1479C58.2757 16.943 58.1733 16.6643 58.1733 16.3119V9.95615C58.2634 9.93975 58.4069 9.91927 58.6036 9.89468C58.8003 9.8619 58.9888 9.8455 59.1691 9.8455C59.3576 9.8455 59.5215 9.8619 59.6608 9.89468C59.8083 9.91927 59.9313 9.96844 60.0296 10.0422C60.128 10.116 60.2017 10.2184 60.2509 10.3495C60.3001 10.4807 60.3247 10.6528 60.3247 10.8659V15.7218H63.1399C63.1972 15.812 63.2505 15.9349 63.2997 16.0906C63.3489 16.2381 63.3734 16.3939 63.3734 16.5578C63.3734 16.8856 63.3038 17.1192 63.1645 17.2585C63.0251 17.3896 62.8407 17.4552 62.6113 17.4552H59.3166Z" fill="white"/>
<path d="M67.5571 17.3691C67.4669 17.3937 67.3276 17.4183 67.1391 17.4429C66.9506 17.4675 66.7662 17.4798 66.5859 17.4798C66.2089 17.4798 65.9261 17.4183 65.7376 17.2954C65.5491 17.1642 65.4549 16.8938 65.4549 16.484V14.8244C65.25 14.5211 65.0287 14.1851 64.791 13.8163C64.5534 13.4475 64.3198 13.0705 64.0903 12.6853C63.8608 12.3001 63.6478 11.9231 63.4511 11.5543C63.2544 11.1773 63.0945 10.8331 62.9716 10.5216C63.0781 10.3741 63.2216 10.2389 63.4019 10.116C63.5904 9.99303 63.8199 9.93156 64.0903 9.93156C64.4099 9.93156 64.6681 9.99712 64.8648 10.1283C65.0697 10.2594 65.2623 10.5053 65.4426 10.8659L66.463 12.9189H66.5367C66.6515 12.6648 66.7498 12.4353 66.8318 12.2304C66.9219 12.0174 67.008 11.8084 67.0899 11.6035C67.1719 11.3904 67.2579 11.1732 67.3481 10.9519C67.4382 10.7224 67.5407 10.4602 67.6554 10.1651C67.803 10.0914 67.9669 10.034 68.1472 9.99303C68.3275 9.95205 68.4996 9.93156 68.6635 9.93156C68.9504 9.93156 69.1921 10.0094 69.3888 10.1651C69.5937 10.3127 69.6962 10.538 69.6962 10.8413C69.6962 10.9396 69.6757 11.0585 69.6347 11.1978C69.5937 11.3371 69.4995 11.5502 69.3519 11.8371C69.2044 12.1157 68.9872 12.4968 68.7004 12.9804C68.4217 13.4639 68.0406 14.095 67.5571 14.8736V17.3691Z" fill="white"/>
<path fill-rule="evenodd" clip-rule="evenodd" d="M55.8591 24.622C55.8591 24.2825 56.1343 24.0073 56.4738 24.0073H72.9938C74.7789 24.0073 76.2203 22.5672 76.2203 20.7911V15.1137C76.2203 14.7742 75.9451 14.499 75.6056 14.499H74.9141H74.261C73.9215 14.499 73.6463 14.7742 73.6463 15.1137V20.1464C73.6463 20.8619 73.0723 21.4333 72.3645 21.4333H56.4738C56.1343 21.4333 55.8591 21.1581 55.8591 20.8187V19.0564C55.8591 18.5087 55.197 18.2345 54.8098 18.6217L51.1459 22.2857C50.9058 22.5257 50.9058 22.9149 51.1459 23.155L54.8098 26.8189C55.197 27.2061 55.8591 26.9319 55.8591 26.3843V24.622Z" fill="#0361FF"/>
<path fill-rule="evenodd" clip-rule="evenodd" d="M20.3606 2.37803C20.3606 2.71751 20.0854 2.99271 19.7459 2.99271H3.2259C1.44086 2.99271 -0.00053978 4.43284 -0.00053978 6.20886V11.8863C-0.00053978 12.2258 0.27466 12.501 0.614136 12.501H1.30565H1.95874C2.29822 12.501 2.57342 12.2258 2.57342 11.8863V6.85364C2.57342 6.13808 3.14741 5.56666 3.85525 5.56666H19.7459C20.0854 5.56666 20.3606 5.84186 20.3606 6.18134V7.94364C20.3606 8.49126 21.0227 8.7655 21.4099 8.37828L25.0739 4.71433C25.3139 4.47428 25.3139 4.08509 25.0739 3.84504L21.4099 0.181093C21.0227 -0.206132 20.3606 0.0681143 20.3606 0.615732V2.37803Z" fill="#0361FF"/>
</svg>
