<?xml version="1.0" encoding="UTF-8"?>
<svg viewBox="0 0 496 187" xmlns="http://www.w3.org/2000/svg">
  <path d="M59.12 103.32v15.36c-.587.16-1.52.32-2.8.48-1.227.16-2.453.24-3.68.24s-2.32-.107-3.28-.32c-.907-.16-1.68-.48-2.32-.96-.587-.48-1.04-1.147-1.36-2s-.48-1.973-.48-3.36V75.08c0-1.12.293-1.973.88-2.56.64-.64 1.493-1.147 2.56-1.52 1.813-.64 3.92-1.093 6.32-1.36 2.4-.32 4.96-.48 7.68-.48 7.36 0 12.907 1.547 16.64 4.64s5.6 7.28 5.6 12.56c0 3.307-.853 6.133-2.56 8.48s-3.733 4.16-6.08 5.44c1.92 2.613 3.813 5.067 5.68 7.36s3.333 4.373 4.4 6.24c-.533 1.867-1.52 3.307-2.96 4.32-1.387.96-2.96 1.44-4.72 1.44-1.173 0-2.187-.133-3.04-.4a7.36 7.36 0 0 1-2.24-1.12c-.64-.48-1.227-1.067-1.76-1.76a23.46 23.46 0 0 1-1.52-2.24l-6.72-10.8h-4.24zm5.04-10.64c2.027 0 3.627-.507 4.8-1.52 1.173-1.067 1.76-2.613 1.76-4.64s-.667-3.547-2-4.56c-1.28-1.067-3.333-1.6-6.16-1.6-.8 0-1.44.027-1.92.08s-1.013.133-1.6.24v12h5.12zm29.79-14.72c0-2.293.667-4.107 2-5.44s3.147-2 5.44-2h26.4c.373.587.693 1.36.96 2.32a9.55 9.55 0 0 1 .48 3.04c0 2.027-.453 3.467-1.36 4.32-.853.853-2 1.28-3.44 1.28h-16.88v7.44h18c.373.587.693 1.36.96 2.32.32.907.48 1.893.48 2.96 0 2.027-.427 3.467-1.28 4.32s-2 1.28-3.44 1.28h-14.72v8.4h20.56c.373.587.693 1.36.96 2.32.32.96.48 1.973.48 3.04 0 2.027-.453 3.493-1.36 4.4-.853.853-2 1.28-3.44 1.28h-23.36c-2.293 0-4.107-.667-5.44-2s-2-3.147-2-5.44V77.96zm40.959 16.72c0-4.16.64-7.84 1.92-11.04 1.334-3.2 3.12-5.867 5.36-8 2.294-2.187 4.96-3.84 8-4.96 3.094-1.12 6.427-1.68 10-1.68s6.88.56 9.92 1.68c3.094 1.12 5.787 2.773 8.08 4.96 2.294 2.133 4.08 4.8 5.36 8 1.334 3.2 2 6.88 2 11.04 0 5.227-.96 9.68-2.88 13.36-1.92 3.627-4.533 6.48-7.84 8.56a55.86 55.86 0 0 0 2.8 1.2l3.44 1.28a76.87 76.87 0 0 0 3.76 1.2 86.61 86.61 0 0 0 3.6 1.12c.054.32.08.587.08.8v.72c0 3.04-.8 5.253-2.4 6.64-1.546 1.387-3.6 2.08-6.16 2.08-2.453 0-4.986-.693-7.6-2.08-2.613-1.333-5.28-3.28-8-5.84l-3.52-3.28h-.64c-3.626 0-6.986-.56-10.08-1.68-3.093-1.173-5.76-2.853-8-5.04s-4-4.88-5.28-8.08-1.92-6.853-1.92-10.96zm14.4 0c0 4.853.987 8.48 2.96 10.88s4.614 3.6 7.92 3.6c3.36 0 6.027-1.2 8-3.6s2.96-6.027 2.96-10.88c0-4.8-.986-8.4-2.96-10.8-1.92-2.4-4.56-3.6-7.92-3.6-3.306 0-5.973 1.2-8 3.6-1.973 2.347-2.96 5.947-2.96 10.8zm87.367 6.4c0 2.88-.507 5.52-1.52 7.92a16.72 16.72 0 0 1-4.24 6.08c-1.867 1.653-4.134 2.933-6.8 3.84s-5.68 1.36-9.04 1.36-6.374-.453-9.04-1.36-4.934-2.187-6.8-3.84a17.58 17.58 0 0 1-4.32-6.08c-.96-2.4-1.44-5.04-1.44-7.92V70.52c.586-.107 1.52-.24 2.8-.4 1.28-.213 2.506-.32 3.68-.32 1.226 0 2.293.107 3.2.32.96.16 1.76.48 2.4.96s1.12 1.147 1.44 2 .48 1.973.48 3.36v24.4c0 2.56.693 4.56 2.08 6 1.44 1.44 3.28 2.16 5.52 2.16 2.293 0 4.133-.72 5.52-2.16s2.08-3.44 2.08-6V70.52c.586-.107 1.52-.24 2.8-.4 1.28-.213 2.506-.32 3.68-.32 1.226 0 2.293.107 3.2.32.96.16 1.76.48 2.4.96s1.12 1.147 1.44 2 .48 1.973.48 3.36v24.64zm10.165-23.12c0-2.293.666-4.107 2-5.44s3.146-2 5.44-2h26.4c.373.587.693 1.36.96 2.32a9.55 9.55 0 0 1 .48 3.04c0 2.027-.454 3.467-1.36 4.32-.854.853-2 1.28-3.44 1.28h-16.88v7.44h18c.373.587.693 1.36.96 2.32.32.907.48 1.893.48 2.96 0 2.027-.427 3.467-1.28 4.32s-2 1.28-3.44 1.28h-14.72v8.4h20.56c.373.587.693 1.36.96 2.32.32.96.48 1.973.48 3.04 0 2.027-.454 3.493-1.36 4.4-.854.853-2 1.28-3.44 1.28h-23.36c-2.294 0-4.107-.667-5.44-2s-2-3.147-2-5.44V77.96zm57.978 21.76c-2.346-.8-4.48-1.6-6.4-2.4-1.92-.853-3.573-1.867-4.96-3.04a13.05 13.05 0 0 1-3.28-4.16c-.746-1.653-1.12-3.653-1.12-6 0-4.533 1.734-8.16 5.2-10.88 3.52-2.72 8.427-4.08 14.72-4.08 2.294 0 4.427.16 6.4.48s3.654.827 5.04 1.52c1.44.64 2.56 1.493 3.36 2.56.8 1.013 1.2 2.213 1.2 3.6s-.32 2.587-.96 3.6c-.64.96-1.413 1.787-2.32 2.48-1.173-.747-2.746-1.387-4.72-1.92-1.973-.587-4.133-.88-6.48-.88-2.4 0-4.16.347-5.28 1.04-1.12.64-1.68 1.467-1.68 2.48 0 .8.347 1.467 1.04 2 .694.48 1.734.933 3.12 1.36l4.24 1.36c5.014 1.6 8.854 3.653 11.52 6.16 2.72 2.453 4.08 5.813 4.08 10.08 0 4.533-1.786 8.213-5.36 11.04-3.573 2.773-8.826 4.16-15.76 4.16-2.453 0-4.746-.213-6.88-.64-2.08-.373-3.92-.933-5.52-1.68-1.546-.8-2.773-1.76-3.68-2.88a6.63 6.63 0 0 1-1.28-4c0-1.547.454-2.853 1.36-3.92.907-1.12 1.894-1.973 2.96-2.56 1.494 1.173 3.307 2.187 5.44 3.04 2.187.853 4.56 1.28 7.12 1.28 2.614 0 4.454-.4 5.52-1.2s1.6-1.733 1.6-2.8-.426-1.867-1.28-2.4c-.853-.587-2.053-1.147-3.6-1.68l-3.36-1.12zm27.047-18c-.373-.587-.72-1.387-1.04-2.4s-.48-2.08-.48-3.2c0-2.08.454-3.573 1.36-4.48.96-.907 2.187-1.36 3.68-1.36h34.88c.374.587.72 1.387 1.04 2.4s.48 2.08.48 3.2c0 2.08-.48 3.573-1.44 4.48-.906.907-2.106 1.36-3.6 1.36h-8.88v36.96c-.586.16-1.52.32-2.8.48a28.41 28.41 0 0 1-3.68.24c-1.226 0-2.32-.107-3.28-.32-.906-.16-1.68-.48-2.32-.96s-1.12-1.147-1.44-2-.48-1.973-.48-3.36V81.72h-12zm54.133 37.52c-2.293 0-4.106-.667-5.44-2s-2-3.147-2-5.44V70.44c.587-.107 1.52-.24 2.8-.4 1.28-.213 2.507-.32 3.68-.32 1.227 0 2.294.107 3.2.32.96.16 1.76.48 2.4.96s1.12 1.147 1.44 2 .48 1.973.48 3.36v31.6h18.32c.374.587.72 1.387 1.04 2.4.32.96.48 1.973.48 3.04 0 2.133-.453 3.653-1.36 4.56-.906.853-2.106 1.28-3.6 1.28h-21.44zm53.625-.56c-.586.16-1.493.32-2.72.48s-2.426.24-3.6.24c-2.453 0-4.293-.4-5.52-1.2-1.226-.853-1.84-2.613-1.84-5.28v-10.8l-4.32-6.56c-1.546-2.4-3.066-4.853-4.56-7.36s-2.88-4.96-4.16-7.36c-1.28-2.453-2.32-4.693-3.12-6.72.694-.96 1.627-1.84 2.8-2.64 1.227-.8 2.72-1.2 4.48-1.2 2.08 0 3.76.427 5.04 1.28 1.334.853 2.587 2.453 3.76 4.8l6.64 13.36h.48c.747-1.653 1.387-3.147 1.92-4.48l1.68-4.08 1.68-4.24 2-5.12c.96-.48 2.027-.853 3.2-1.12s2.294-.4 3.36-.4c1.867 0 3.44.507 4.72 1.52 1.334.96 2 2.427 2 4.4 0 .64-.133 1.413-.4 2.32s-.88 2.293-1.84 4.16c-.96 1.813-2.373 4.293-4.24 7.44-1.813 3.147-4.293 7.253-7.44 12.32v16.24z" fill="#175ef2"/>
  <path d="M363.5 165.875a4 4 0 0 1 4-4h107.504c11.616 0 20.996-9.372 20.996-20.929V104a4 4 0 0 0-4-4h-4.5-4.25a4 4 0 0 0-4 4v32.75c0 4.657-3.735 8.375-8.342 8.375H367.5a4 4 0 0 1-4-4v-11.468c0-3.564-4.309-5.348-6.828-2.829l-23.844 23.844a4 4 0 0 0 0 5.656l23.844 23.844c2.519 2.519 6.828.735 6.828-2.829v-11.468zm-231-144.75a4 4 0 0 1-4 4H20.996C9.38 25.125 0 34.497 0 46.054V83a4 4 0 0 0 4 4h4.5 4.25a4 4 0 0 0 4-4V50.25c0-4.657 3.735-8.375 8.342-8.375H128.5a4 4 0 0 1 4 4v11.468c0 3.564 4.309 5.348 6.828 2.828l23.844-23.843a4 4 0 0 0 0-5.657L139.328 6.828c-2.519-2.52-6.828-.735-6.828 2.828v11.468z" fill="#fad408" fill-rule="evenodd"/>
</svg>
