<svg width="77" height="27" viewBox="0 0 77 27" fill="none" xmlns="http://www.w3.org/2000/svg">
  <path d="M9.08634 15.0093V17.3696C8.99619 17.3942 8.85276 17.4188 8.65606 17.4434C8.46756 17.468 8.27906 17.4803 8.09056 17.4803C7.90206 17.4803 7.73405 17.4639 7.58653 17.4311C7.4472 17.4065 7.32836 17.3573 7.23002 17.2836C7.13986 17.2098 7.0702 17.1074 7.02103 16.9762C6.97185 16.8451 6.94727 16.673 6.94727 16.4599V10.6697C6.94727 10.4975 6.99234 10.3664 7.08249 10.2763C7.18084 10.1779 7.31197 10.1001 7.47589 10.0427C7.75454 9.94434 8.07827 9.87468 8.44708 9.8337C8.81588 9.78453 9.20927 9.75994 9.62725 9.75994C10.7583 9.75994 11.6106 9.99761 12.1843 10.473C12.758 10.9483 13.0449 11.5917 13.0449 12.403C13.0449 12.9112 12.9137 13.3455 12.6515 13.7062C12.3892 14.0668 12.0778 14.3454 11.7172 14.5421C12.0122 14.9437 12.3031 15.3207 12.59 15.6731C12.8768 16.0255 13.1022 16.3452 13.2661 16.632C13.1842 16.9189 13.0326 17.1401 12.8113 17.2959C12.5982 17.4434 12.3564 17.5171 12.086 17.5171C11.9057 17.5171 11.7499 17.4967 11.6188 17.4557C11.4877 17.4147 11.3729 17.3573 11.2746 17.2836C11.1762 17.2098 11.0861 17.1197 11.0041 17.0131C10.9222 16.9066 10.8443 16.7918 10.7706 16.6689L9.7379 15.0093H9.08634ZM9.86083 13.3742C10.1723 13.3742 10.4181 13.2964 10.5984 13.1407C10.7787 12.9767 10.8689 12.7391 10.8689 12.4276C10.8689 12.1162 10.7665 11.8826 10.5616 11.7269C10.3649 11.563 10.0493 11.481 9.61496 11.481C9.49202 11.481 9.39368 11.4851 9.31992 11.4933C9.24615 11.5015 9.1642 11.5138 9.07404 11.5302V13.3742H9.86083Z" fill="white"/>
  <path d="M14.4386 11.1122C14.4386 10.7598 14.5411 10.4812 14.746 10.2763C14.9509 10.0714 15.2295 9.96893 15.5819 9.96893H19.6388C19.6962 10.0591 19.7453 10.1779 19.7863 10.3254C19.8355 10.473 19.8601 10.6287 19.8601 10.7926C19.8601 11.104 19.7904 11.3253 19.6511 11.4564C19.52 11.5876 19.3437 11.6531 19.1225 11.6531H16.5285V12.7964H19.2946C19.3519 12.8866 19.4011 13.0054 19.4421 13.1529C19.4913 13.2923 19.5159 13.4439 19.5159 13.6078C19.5159 13.9192 19.4503 14.1405 19.3192 14.2717C19.188 14.4028 19.0118 14.4684 18.7905 14.4684H16.5285V15.7592H19.688C19.7453 15.8493 19.7945 15.9682 19.8355 16.1157C19.8847 16.2632 19.9092 16.4189 19.9092 16.5828C19.9092 16.8943 19.8396 17.1197 19.7003 17.259C19.5691 17.3901 19.3929 17.4557 19.1716 17.4557H15.5819C15.2295 17.4557 14.9509 17.3532 14.746 17.1483C14.5411 16.9435 14.4386 16.6648 14.4386 16.3124V11.1122Z" fill="white"/>
  <path d="M20.7328 13.6816C20.7328 13.0423 20.8312 12.4768 21.0279 11.9851C21.2328 11.4933 21.5073 11.0835 21.8515 10.7557C22.2039 10.4197 22.6137 10.1656 23.0809 9.99351C23.5562 9.82141 24.0685 9.73535 24.6176 9.73535C25.1667 9.73535 25.6748 9.82141 26.142 9.99351C26.6173 10.1656 27.0312 10.4197 27.3836 10.7557C27.736 11.0835 28.0106 11.4933 28.2073 11.9851C28.4122 12.4768 28.5146 13.0423 28.5146 13.6816C28.5146 14.4847 28.3671 15.1691 28.072 15.7346C27.777 16.2919 27.3754 16.7304 26.8673 17.05C26.9902 17.1074 27.1336 17.1688 27.2976 17.2344C27.4697 17.3 27.6459 17.3655 27.8262 17.4311C28.0147 17.4967 28.2073 17.5581 28.404 17.6155C28.6007 17.6811 28.7851 17.7384 28.9572 17.7876C28.9654 17.8368 28.9695 17.8778 28.9695 17.9105C28.9695 17.9515 28.9695 17.9884 28.9695 18.0212C28.9695 18.4883 28.8465 18.8285 28.6007 19.0415C28.363 19.2546 28.0475 19.3612 27.6541 19.3612C27.2771 19.3612 26.8878 19.2546 26.4862 19.0415C26.0846 18.8367 25.6748 18.5375 25.2568 18.1441L24.7159 17.6401H24.6176C24.0603 17.6401 23.5439 17.554 23.0686 17.3819C22.5932 17.2016 22.1835 16.9435 21.8392 16.6074C21.495 16.2714 21.2246 15.8575 21.0279 15.3658C20.8312 14.874 20.7328 14.3126 20.7328 13.6816ZM22.9456 13.6816C22.9456 14.4274 23.0973 14.9847 23.4005 15.3535C23.7038 15.7223 24.1094 15.9067 24.6176 15.9067C25.1339 15.9067 25.5437 15.7223 25.8469 15.3535C26.1502 14.9847 26.3018 14.4274 26.3018 13.6816C26.3018 12.944 26.1502 12.3908 25.8469 12.0219C25.5519 11.6531 25.1462 11.4687 24.6299 11.4687C24.1217 11.4687 23.7119 11.6531 23.4005 12.0219C23.0973 12.3826 22.9456 12.9358 22.9456 13.6816Z" fill="white"/>
  <path d="M36.3711 14.6651C36.3711 15.1076 36.2933 15.5133 36.1376 15.8821C35.99 16.2427 35.7729 16.5542 35.486 16.8164C35.1992 17.0705 34.8508 17.2672 34.4411 17.4065C34.0313 17.5458 33.5682 17.6155 33.0519 17.6155C32.5356 17.6155 32.0725 17.5458 31.6627 17.4065C31.2529 17.2672 30.9046 17.0705 30.6178 16.8164C30.3309 16.5542 30.1096 16.2427 29.9539 15.8821C29.8064 15.5133 29.7326 15.1076 29.7326 14.6651V9.96893C29.8228 9.95254 29.9662 9.93205 30.1629 9.90746C30.3596 9.87468 30.5481 9.85829 30.7284 9.85829C30.9169 9.85829 31.0808 9.87468 31.2201 9.90746C31.3677 9.93205 31.4906 9.98122 31.589 10.055C31.6873 10.1287 31.7611 10.2312 31.8102 10.3623C31.8594 10.4935 31.884 10.6656 31.884 10.8786V14.6282C31.884 15.0216 31.9905 15.3289 32.2036 15.5502C32.4249 15.7715 32.7077 15.8821 33.0519 15.8821C33.4043 15.8821 33.687 15.7715 33.9001 15.5502C34.1132 15.3289 34.2198 15.0216 34.2198 14.6282V9.96893C34.3099 9.95254 34.4533 9.93205 34.65 9.90746C34.8467 9.87468 35.0352 9.85829 35.2155 9.85829C35.404 9.85829 35.568 9.87468 35.7073 9.90746C35.8548 9.93205 35.9777 9.98122 36.0761 10.055C36.1744 10.1287 36.2482 10.2312 36.2974 10.3623C36.3465 10.4935 36.3711 10.6656 36.3711 10.8786V14.6651Z" fill="white"/>
  <path d="M37.9332 11.1122C37.9332 10.7598 38.0356 10.4812 38.2405 10.2763C38.4454 10.0714 38.7241 9.96893 39.0765 9.96893H43.1333C43.1907 10.0591 43.2399 10.1779 43.2809 10.3254C43.33 10.473 43.3546 10.6287 43.3546 10.7926C43.3546 11.104 43.285 11.3253 43.1456 11.4564C43.0145 11.5876 42.8383 11.6531 42.617 11.6531H40.0231V12.7964H42.7891C42.8465 12.8866 42.8957 13.0054 42.9366 13.1529C42.9858 13.2923 43.0104 13.4439 43.0104 13.6078C43.0104 13.9192 42.9448 14.1405 42.8137 14.2717C42.6826 14.4028 42.5064 14.4684 42.2851 14.4684H40.0231V15.7592H43.1825C43.2399 15.8493 43.2891 15.9682 43.33 16.1157C43.3792 16.2632 43.4038 16.4189 43.4038 16.5828C43.4038 16.8943 43.3341 17.1197 43.1948 17.259C43.0637 17.3901 42.8875 17.4557 42.6662 17.4557H39.0765C38.7241 17.4557 38.4454 17.3532 38.2405 17.1483C38.0356 16.9435 37.9332 16.6648 37.9332 16.3124V11.1122Z" fill="white"/>
  <path d="M46.8427 14.4561C46.4821 14.3331 46.1543 14.2102 45.8592 14.0873C45.5642 13.9561 45.3101 13.8004 45.097 13.6201C44.8839 13.4398 44.7159 13.2267 44.593 12.9808C44.4783 12.7268 44.4209 12.4194 44.4209 12.0588C44.4209 11.3622 44.6873 10.8049 45.22 10.3869C45.7609 9.96893 46.5149 9.75994 47.482 9.75994C47.8344 9.75994 48.1622 9.78453 48.4655 9.8337C48.7687 9.88287 49.0269 9.96073 49.2399 10.0673C49.4612 10.1656 49.6333 10.2968 49.7563 10.4607C49.8792 10.6164 49.9407 10.8008 49.9407 11.0139C49.9407 11.227 49.8915 11.4114 49.7932 11.5671C49.6948 11.7146 49.576 11.8416 49.4366 11.9482C49.2563 11.8334 49.0146 11.7351 48.7113 11.6531C48.4081 11.563 48.0762 11.5179 47.7156 11.5179C47.3467 11.5179 47.0763 11.5712 46.9042 11.6777C46.7321 11.7761 46.646 11.9031 46.646 12.0588C46.646 12.1818 46.6993 12.2842 46.8058 12.3662C46.9124 12.4399 47.0722 12.5096 47.2853 12.5752L47.9368 12.7841C48.7072 13.03 49.2973 13.3455 49.7071 13.7307C50.1251 14.1077 50.3341 14.6241 50.3341 15.2797C50.3341 15.9764 50.0595 16.5419 49.5104 16.9762C48.9613 17.4024 48.154 17.6155 47.0886 17.6155C46.7116 17.6155 46.3592 17.5827 46.0313 17.5171C45.7117 17.4598 45.429 17.3737 45.1831 17.259C44.9454 17.1361 44.7569 16.9885 44.6176 16.8164C44.4865 16.6361 44.4209 16.4312 44.4209 16.2017C44.4209 15.9641 44.4906 15.7633 44.6299 15.5994C44.7692 15.4273 44.9208 15.2961 45.0847 15.206C45.3142 15.3863 45.5929 15.542 45.9207 15.6731C46.2567 15.8043 46.6214 15.8698 47.0148 15.8698C47.4164 15.8698 47.6992 15.8084 47.8631 15.6854C48.027 15.5625 48.1089 15.4191 48.1089 15.2551C48.1089 15.0912 48.0434 14.9683 47.9123 14.8863C47.7811 14.7962 47.5967 14.7101 47.359 14.6282L46.8427 14.4561Z" fill="white"/>
  <path d="M50.999 11.69C50.9416 11.5999 50.8883 11.4769 50.8392 11.3212C50.79 11.1655 50.7654 11.0016 50.7654 10.8295C50.7654 10.5098 50.8351 10.2804 50.9744 10.141C51.1219 10.0017 51.3104 9.93205 51.5399 9.93205H56.8999C56.9572 10.0222 57.0105 10.1451 57.0597 10.3009C57.1089 10.4566 57.1334 10.6205 57.1334 10.7926C57.1334 11.1122 57.0597 11.3417 56.9122 11.481C56.7728 11.6204 56.5884 11.69 56.359 11.69H54.9944V17.3696C54.9042 17.3942 54.7608 17.4188 54.5641 17.4434C54.3756 17.468 54.1871 17.4803 53.9986 17.4803C53.8101 17.4803 53.6421 17.4639 53.4946 17.4311C53.3552 17.4065 53.2364 17.3573 53.1381 17.2836C53.0397 17.2098 52.9659 17.1074 52.9168 16.9762C52.8676 16.8451 52.843 16.673 52.843 16.4599V11.69H50.999Z" fill="white"/>
  <path d="M59.3176 17.4557C58.9651 17.4557 58.6865 17.3532 58.4816 17.1483C58.2767 16.9435 58.1743 16.6648 58.1743 16.3124V9.95663C58.2644 9.94024 58.4078 9.91975 58.6045 9.89517C58.8012 9.86238 58.9897 9.84599 59.17 9.84599C59.3585 9.84599 59.5225 9.86238 59.6618 9.89517C59.8093 9.91975 59.9322 9.96893 60.0306 10.0427C60.1289 10.1165 60.2027 10.2189 60.2519 10.35C60.301 10.4812 60.3256 10.6533 60.3256 10.8664V15.7223H63.1408C63.1982 15.8124 63.2515 15.9354 63.3007 16.0911C63.3498 16.2386 63.3744 16.3943 63.3744 16.5583C63.3744 16.8861 63.3048 17.1197 63.1654 17.259C63.0261 17.3901 62.8417 17.4557 62.6122 17.4557H59.3176Z" fill="white"/>
  <path d="M67.5581 17.3696C67.4679 17.3942 67.3286 17.4188 67.1401 17.4434C66.9516 17.468 66.7672 17.4803 66.5869 17.4803C66.2099 17.4803 65.9271 17.4188 65.7386 17.2959C65.5501 17.1647 65.4559 16.8943 65.4559 16.4845V14.8249C65.251 14.5216 65.0297 14.1856 64.792 13.8168C64.5543 13.448 64.3208 13.071 64.0913 12.6858C63.8618 12.3006 63.6487 11.9236 63.452 11.5548C63.2553 11.1778 63.0955 10.8336 62.9726 10.5221C63.0791 10.3746 63.2225 10.2394 63.4029 10.1165C63.5914 9.99351 63.8208 9.93205 64.0913 9.93205C64.4109 9.93205 64.6691 9.99761 64.8658 10.1287C65.0707 10.2599 65.2633 10.5057 65.4436 10.8664L66.4639 12.9194H66.5377C66.6524 12.6653 66.7508 12.4358 66.8327 12.2309C66.9229 12.0178 67.009 11.8089 67.0909 11.604C67.1729 11.3909 67.2589 11.1737 67.3491 10.9524C67.4392 10.7229 67.5417 10.4607 67.6564 10.1656C67.8039 10.0919 67.9678 10.0345 68.1482 9.99351C68.3285 9.95254 68.5006 9.93205 68.6645 9.93205C68.9513 9.93205 69.1931 10.0099 69.3898 10.1656C69.5947 10.3131 69.6971 10.5385 69.6971 10.8418C69.6971 10.9401 69.6766 11.059 69.6357 11.1983C69.5947 11.3376 69.5004 11.5507 69.3529 11.8375C69.2054 12.1162 68.9882 12.4973 68.7014 12.9808C68.4227 13.4644 68.0416 14.0955 67.5581 14.874V17.3696Z" fill="white"/>
  <path fill-rule="evenodd" clip-rule="evenodd" d="M55.8601 24.622C55.8601 24.2825 56.1353 24.0073 56.4748 24.0073H72.9948C74.7798 24.0073 76.2212 22.5672 76.2212 20.7911V15.1137C76.2212 14.7742 75.946 14.499 75.6066 14.499H74.9151H74.262C73.9225 14.499 73.6473 14.7742 73.6473 15.1137V20.1464C73.6473 20.8619 73.0733 21.4333 72.3655 21.4333H56.4748C56.1353 21.4333 55.8601 21.1581 55.8601 20.8187V19.0564C55.8601 18.5087 55.198 18.2345 54.8108 18.6217L51.1468 22.2857C50.9068 22.5257 50.9068 22.9149 51.1468 23.155L54.8108 26.8189C55.198 27.2061 55.8601 26.9319 55.8601 26.3843V24.622Z" fill="#0361FF"/>
  <path fill-rule="evenodd" clip-rule="evenodd" d="M20.3606 2.37803C20.3606 2.71751 20.0854 2.99271 19.7459 2.99271H3.2259C1.44086 2.99271 -0.00053978 4.43284 -0.00053978 6.20886V11.8863C-0.00053978 12.2258 0.27466 12.501 0.614136 12.501H1.30565H1.95874C2.29822 12.501 2.57342 12.2258 2.57342 11.8863V6.85364C2.57342 6.13808 3.14741 5.56666 3.85525 5.56666H19.7459C20.0854 5.56666 20.3606 5.84186 20.3606 6.18134V7.94364C20.3606 8.49126 21.0227 8.7655 21.4099 8.37828L25.0739 4.71433C25.3139 4.47428 25.3139 4.08509 25.0739 3.84504L21.4099 0.181093C21.0227 -0.206132 20.3606 0.0681143 20.3606 0.615732V2.37803Z" fill="#0361FF"/>
</svg>
