<svg width="16" height="16" viewBox="0 0 16 16" fill="none" xmlns="http://www.w3.org/2000/svg">
<path d="M7.99999 12C10.2091 12 12 10.2091 12 7.99999C12 5.79086 10.2091 4 7.99999 4C5.79086 4 4 5.79086 4 7.99999C4 10.2091 5.79086 12 7.99999 12Z" fill="white"/>
<path d="M7.99982 4.00001H14.9269C14.2249 2.78381 13.2152 1.77384 11.9991 1.07168C10.783 0.369518 9.40352 -9.79566e-05 7.99929 1.94732e-08C6.59506 9.79956e-05 5.21561 0.369906 3.99963 1.07224C2.78366 1.77457 1.77403 2.78467 1.07227 4.00098L4.53579 10L4.53889 9.9992C4.18656 9.39162 4.00063 8.7019 3.99984 7.99956C3.99905 7.29721 4.18343 6.60707 4.5344 5.99871C4.88536 5.39034 5.39051 4.88525 5.99891 4.53435C6.60732 4.18345 7.29748 3.99914 7.99982 4.00001Z" fill="url(#paint0_linear_4439_26107)"/>
<path d="M7.99967 11.1654C9.74857 11.1654 11.1663 9.74759 11.1663 7.99869C11.1663 6.24979 9.74857 4.83203 7.99967 4.83203C6.25077 4.83203 4.83301 6.24979 4.83301 7.99869C4.83301 9.74759 6.25077 11.1654 7.99967 11.1654Z" fill="#1A73E8"/>
<path d="M11.464 9.99992L8.00046 15.999C9.40468 15.9991 10.7842 15.6296 12.0003 14.9276C13.2164 14.2255 14.2263 13.2156 14.9283 11.9994C15.6303 10.7833 15.9998 9.40376 15.9995 7.99953C15.9993 6.59531 15.6293 5.2159 14.9269 4H7.99986L7.99902 4.0031C8.70137 4.00175 9.39166 4.18558 10.0003 4.53606C10.609 4.88654 11.1144 5.39129 11.4658 5.99942C11.8172 6.60756 12.002 7.29757 12.0017 7.99992C12.0014 8.70227 11.8159 9.39212 11.464 9.99992Z" fill="url(#paint1_linear_4439_26107)"/>
<path d="M4.53661 10.0029L1.07308 4.00391C0.37079 5.2199 0.0010289 6.59937 0.000976568 8.0036C0.000924237 9.40783 0.370583 10.7873 1.07278 12.0034C1.77498 13.2194 2.78497 14.2292 4.0012 14.9311C5.21742 15.633 6.59701 16.0023 8.00124 16.0019L11.4648 10.0029L11.4625 10.0006C11.1125 10.6095 10.6082 11.1154 10.0003 11.4673C9.39246 11.8191 8.70259 12.0045 8.00025 12.0047C7.2979 12.005 6.60791 11.8201 5.99981 11.4686C5.39172 11.1172 4.88703 10.6116 4.53661 10.0029Z" fill="url(#paint2_linear_4439_26107)"/>
<defs>
<linearGradient id="paint0_linear_4439_26107" x1="1.07227" y1="5.00001" x2="14.9269" y2="5.00001" gradientUnits="userSpaceOnUse">
<stop stop-color="#D93025"/>
<stop offset="1" stop-color="#EA4335"/>
</linearGradient>
<linearGradient id="paint1_linear_4439_26107" x1="6.90752" y1="15.892" x2="13.8348" y2="3.89353" gradientUnits="userSpaceOnUse">
<stop stop-color="#FCC934"/>
<stop offset="1" stop-color="#FBBC04"/>
</linearGradient>
<linearGradient id="paint2_linear_4439_26107" x1="8.86644" y1="15.5024" x2="1.93911" y2="3.50391" gradientUnits="userSpaceOnUse">
<stop stop-color="#1E8E3E"/>
<stop offset="1" stop-color="#34A853"/>
</linearGradient>
</defs>
</svg>
