<svg width="16" height="16" viewBox="0 0 16 16" fill="none" xmlns="http://www.w3.org/2000/svg">
<g clip-path="url(#clip0_4439_26134)">
<path d="M8 16C12.4183 16 16 12.4183 16 8C16 3.58172 12.4183 0 8 0C3.58172 0 0 3.58172 0 8C0 12.4183 3.58172 16 8 16Z" fill="#FF4500"/>
<path d="M13.3361 8.00107C13.3278 7.77589 13.2546 7.55789 13.1253 7.37337C12.996 7.18884 12.816 7.04567 12.6072 6.96111C12.3983 6.87655 12.1694 6.85421 11.9481 6.89679C11.7269 6.93936 11.5226 7.04504 11.3601 7.20107C10.45 6.58245 9.38023 6.24067 8.28007 6.21707L8.80007 3.72107L10.5121 4.08107C10.5324 4.27026 10.6195 4.446 10.7578 4.57674C10.896 4.70748 11.0763 4.78467 11.2664 4.79445C11.4564 4.80422 11.6437 4.74595 11.7946 4.63009C11.9456 4.51422 12.0502 4.34835 12.0899 4.16225C12.1296 3.97615 12.1016 3.78201 12.011 3.61468C11.9204 3.44734 11.7732 3.31777 11.5957 3.24922C11.4182 3.18067 11.2221 3.17764 11.0425 3.24066C10.863 3.30367 10.7118 3.42862 10.6161 3.59307L8.65607 3.20107C8.62401 3.19404 8.59088 3.19344 8.55859 3.19931C8.5263 3.20517 8.4955 3.21739 8.46797 3.23525C8.44043 3.25311 8.41672 3.27626 8.3982 3.30335C8.37968 3.33044 8.36671 3.36094 8.36007 3.39307L7.76807 6.16907C6.65437 6.18586 5.56988 6.52789 4.64807 7.15307C4.52474 7.03703 4.37766 6.9492 4.21701 6.89566C4.05636 6.84211 3.88599 6.82414 3.71771 6.84298C3.54943 6.86183 3.38725 6.91704 3.24243 7.00479C3.0976 7.09254 2.97359 7.21073 2.87898 7.35117C2.78437 7.49161 2.72144 7.65095 2.69453 7.81813C2.66762 7.98531 2.67739 8.15635 2.72315 8.31938C2.76891 8.48242 2.84958 8.63355 2.95956 8.76231C3.06953 8.89107 3.20619 8.99438 3.36007 9.06507C3.35106 9.18223 3.35106 9.29991 3.36007 9.41707C3.36007 11.2091 5.44807 12.6651 8.02407 12.6651C10.6001 12.6651 12.6881 11.2091 12.6881 9.41707C12.6971 9.29991 12.6971 9.18223 12.6881 9.06507C12.8855 8.96695 13.0511 8.81496 13.1658 8.62668C13.2804 8.43839 13.3395 8.2215 13.3361 8.00107ZM5.33607 8.80107C5.33607 8.64285 5.38299 8.48818 5.47089 8.35662C5.5588 8.22506 5.68374 8.12252 5.82992 8.06197C5.9761 8.00142 6.13695 7.98558 6.29214 8.01645C6.44732 8.04731 6.58987 8.12351 6.70175 8.23539C6.81363 8.34727 6.88983 8.48982 6.9207 8.645C6.95156 8.80019 6.93572 8.96104 6.87517 9.10722C6.81462 9.2534 6.71208 9.37834 6.58052 9.46625C6.44896 9.55415 6.29429 9.60107 6.13607 9.60107C6.03101 9.60107 5.92698 9.58038 5.82992 9.54018C5.73286 9.49997 5.64467 9.44105 5.57038 9.36676C5.49609 9.29247 5.43717 9.20428 5.39696 9.10722C5.35676 9.01016 5.33607 8.90613 5.33607 8.80107ZM9.98407 11.0011C9.41648 11.4288 8.71816 11.6465 8.00807 11.6171C7.29798 11.6465 6.59965 11.4288 6.03207 11.0011C5.99805 10.9596 5.98066 10.907 5.98329 10.8534C5.98592 10.7999 6.00838 10.7492 6.0463 10.7113C6.08422 10.6734 6.13488 10.6509 6.18844 10.6483C6.242 10.6457 6.29462 10.6631 6.33607 10.6971C6.81705 11.0499 7.40416 11.2277 8.00007 11.2011C8.59671 11.2335 9.18655 11.0614 9.67207 10.7131C9.7145 10.6717 9.77163 10.6489 9.83089 10.6496C9.86024 10.65 9.88922 10.6561 9.91619 10.6677C9.94316 10.6793 9.96758 10.6961 9.98807 10.7171C10.0086 10.7381 10.0247 10.7629 10.0356 10.7902C10.0465 10.8174 10.0519 10.8466 10.0515 10.8759C10.0511 10.9052 10.045 10.9342 10.0334 10.9612C10.0218 10.9882 10.0051 11.0126 9.98407 11.0331V11.0011ZM9.84007 9.63307C9.68184 9.63307 9.52717 9.58615 9.39561 9.49825C9.26405 9.41034 9.16151 9.2854 9.10096 9.13922C9.04041 8.99304 9.02457 8.83219 9.05544 8.677C9.08631 8.52182 9.1625 8.37927 9.27438 8.26739C9.38626 8.15551 9.52881 8.07931 9.68399 8.04845C9.83918 8.01758 10 8.03342 10.1462 8.09397C10.2924 8.15452 10.4173 8.25706 10.5052 8.38862C10.5931 8.52018 10.6401 8.67485 10.6401 8.83307C10.6444 8.94147 10.6267 9.04962 10.5879 9.15094C10.5491 9.25226 10.4902 9.34464 10.4146 9.42247C10.339 9.50029 10.2484 9.56193 10.1483 9.60364C10.0481 9.64534 9.94054 9.66625 9.83207 9.66507L9.84007 9.63307Z" fill="white"/>
</g>
<defs>
<clipPath id="clip0_4439_26134">
<rect width="16" height="16" fill="white"/>
</clipPath>
</defs>
</svg>
