<svg width="16" height="16" viewBox="0 0 16 16" fill="none" xmlns="http://www.w3.org/2000/svg">
<rect width="16" height="16" rx="8" fill="#3D8A99"/>
<path d="M7.50016 4.2546C7.46598 4.25825 7.3724 4.27086 7.29342 4.27982C7.21378 4.28911 7.05947 4.31632 6.9483 4.33789L6.74587 4.37838L6.45285 4.33458C5.91128 4.2546 5.2436 4.26356 4.76508 4.35648C4.27926 4.44873 3.95205 4.62262 4.02904 4.74573C4.03999 4.76399 4.14784 4.85856 4.26797 4.95612C4.77769 5.36761 5.02989 5.67955 5.17524 6.08374C5.2509 6.2938 5.27811 6.45342 5.27612 6.70927C5.27446 7.00827 5.23829 7.16589 5.03321 7.78446C4.94361 8.05425 4.84605 8.38244 4.81751 8.51253C4.77039 8.72823 4.76508 8.77933 4.76508 9.09293C4.76508 9.43208 4.77935 9.5678 4.84472 9.83792C4.94725 10.247 5.16573 10.6179 5.4739 10.9058C5.58574 11.0074 5.62323 11.0525 5.6166 11.0777C5.60001 11.1358 5.64646 11.2353 5.72279 11.3133C5.91659 11.5091 6.34865 11.676 6.80793 11.7304C7.04354 11.7593 7.53135 11.7557 7.75767 11.7231C7.93355 11.6979 8.24549 11.6233 8.33708 11.5871C8.53287 11.5074 8.70775 11.4022 8.79602 11.3117C8.94336 11.1613 8.94535 11.1577 8.9344 11.0687C8.92378 10.9944 8.9271 10.9871 8.99015 10.94C9.07477 10.8769 9.34523 10.6025 9.41824 10.5066C9.48461 10.4197 9.60938 10.2059 9.64721 10.1117C9.68139 10.0321 9.69367 10.0301 9.75008 10.0898C9.87187 10.2205 10.1218 10.3291 10.2571 10.3111C10.374 10.2945 10.4549 10.1913 10.3919 10.1386C10.3796 10.128 10.3039 10.0921 10.2226 10.0573C10.1486 10.0255 10.0775 9.98787 10.0103 9.94478L9.94388 9.89235L9.95118 9.75629C9.9618 9.52068 10.0341 9.41714 10.5916 8.83376C11.038 8.36585 11.1209 8.27161 11.3045 8.02338C11.4969 7.76388 11.5978 7.59928 11.7183 7.34343C11.9595 6.82874 12.0421 6.26858 11.9379 5.8551C11.772 5.19738 11.1442 4.70425 10.4785 4.70956C10.1042 4.71155 9.78393 4.85126 9.44744 5.15756C9.25663 5.33144 9.21846 5.31518 9.27289 5.08687C9.30508 4.94351 9.29943 4.87814 9.24568 4.76963C9.13783 4.55393 8.71472 4.35084 8.2289 4.27982C8.07625 4.25792 7.60635 4.24166 7.50016 4.2546ZM10.806 5.25678C11.173 5.36961 11.477 5.68486 11.5779 6.05653C11.6443 6.30641 11.5958 6.76701 11.4644 7.12607C11.3759 7.35493 11.2631 7.57484 11.1279 7.78246C11.0184 7.94872 10.6965 8.34793 10.514 8.54007C10.3415 8.72188 10.1742 8.908 10.0122 9.09824C9.91169 9.2177 9.843 9.28308 9.82309 9.27943C9.7982 9.27412 9.79322 9.23264 9.78393 8.98408C9.76356 8.42961 9.66114 7.88053 9.47963 7.35272C9.41127 7.15693 9.39335 7.03714 9.42753 7.01557C9.4418 7.00627 9.53173 6.99897 9.6273 6.99897C9.7388 6.99897 9.8055 6.99201 9.81446 6.97906C9.82176 6.96678 9.77132 6.90274 9.69035 6.82509C9.54998 6.68903 9.49589 6.60607 9.45076 6.45674C9.39501 6.27223 9.44014 5.9729 9.55164 5.77579C9.70993 5.49836 10.0122 5.27702 10.3092 5.22459C10.442 5.2007 10.671 5.21496 10.806 5.25678ZM7.8569 6.45375C7.88942 6.4647 7.93986 6.49191 7.97039 6.51746C8.01021 6.55164 8.03676 6.5606 8.07326 6.55364C8.14826 6.53704 8.32115 6.62233 8.36064 6.69102C8.37723 6.72221 8.40577 6.76535 8.42369 6.78726C8.45024 6.81978 8.45621 6.84533 8.44692 6.91999C8.43829 6.99964 8.4436 7.02287 8.48143 7.07928C8.51123 7.12234 8.52689 7.1736 8.52623 7.22596C8.52623 7.28967 8.53154 7.30427 8.55344 7.29664C8.5614 7.29169 8.56796 7.28501 8.57258 7.27715C8.57721 7.26929 8.57975 7.26049 8.57999 7.25151C8.57999 7.18614 8.63242 7.09023 8.67755 7.06999C8.71825 7.05689 8.76151 7.05382 8.80366 7.06103C8.87898 7.07364 8.88662 7.07762 8.87898 7.1191C8.87368 7.14432 8.8823 7.17552 8.8989 7.18979C8.92412 7.217 8.92412 7.22032 8.89325 7.24421C8.86272 7.26611 8.86106 7.27507 8.88064 7.32551C8.90255 7.38392 8.90255 7.38392 8.85211 7.37496C8.82323 7.36931 8.79635 7.36732 8.79071 7.37297C8.7854 7.37827 8.79635 7.44 8.81593 7.50902C8.86106 7.6703 8.85907 7.71543 8.80697 7.85879C8.77279 7.95502 8.76715 7.99285 8.78043 8.05458C8.80697 8.1976 8.79801 8.57624 8.76052 8.81218C8.73185 9.00485 8.68972 9.19552 8.63441 9.38296C8.55875 9.64778 8.47413 10.1392 8.47778 10.2932C8.47944 10.3749 8.48674 10.4455 8.49205 10.4512C8.49736 10.4568 8.53353 10.4167 8.56937 10.3639C8.64901 10.2478 8.7187 10.1897 8.85211 10.1299C8.90586 10.1064 8.96493 10.0686 8.98352 10.047C9.03562 9.98858 9.06781 9.99621 9.04823 10.0629C9.03927 10.0921 9.03728 10.1173 9.04093 10.1173C9.04624 10.1173 9.03562 10.1392 9.01571 10.1681C8.99779 10.1953 8.97257 10.2534 8.95996 10.2985C8.94666 10.3455 8.92653 10.3902 8.90022 10.4313C8.87368 10.4691 8.87002 10.489 8.88429 10.5036C8.8989 10.5179 8.93075 10.4943 9.00708 10.4147C9.1219 10.2969 9.18296 10.2225 9.19391 10.1937C9.20818 10.1555 9.39368 9.97232 9.40795 9.98128C9.41691 9.98692 9.42786 9.98327 9.43516 9.97232C9.4637 9.92553 9.47498 9.96701 9.47299 10.1051L9.46967 10.2534L9.37211 10.3606C9.28612 10.4544 9.19917 10.5473 9.11128 10.6393C9.02301 10.7323 8.90421 10.859 8.85011 10.9184C8.79011 10.9833 8.72391 11.0428 8.65233 11.0963C8.55344 11.1633 8.34471 11.2446 8.21098 11.2705C8.17476 11.2758 8.13887 11.2831 8.10346 11.2924C8.01884 11.312 7.15338 11.3156 6.9337 11.2954C6.83726 11.2858 6.74068 11.2776 6.644 11.2705C6.61938 11.2686 6.59515 11.2636 6.57199 11.2556C6.54978 11.2475 6.52607 11.2438 6.5023 11.2446C6.32974 11.2413 6.19036 11.2068 6.09512 11.1417C6.05729 11.1162 6.00552 11.0963 5.97997 11.0963C5.95442 11.0963 5.93517 11.087 5.93517 11.078C5.93517 11.0674 5.92256 11.0601 5.90796 11.0601C5.89369 11.0601 5.88141 11.0508 5.88141 11.0419C5.88141 11.0309 5.87212 11.0239 5.8615 11.0239C5.8396 11.0239 5.76593 10.9582 5.65974 10.8441C5.61826 10.8009 5.55687 10.7372 5.527 10.7047C5.49381 10.6719 5.46727 10.639 5.46727 10.6324C5.46727 10.6227 5.45067 10.6012 5.43076 10.5799C5.35908 10.5036 5.32325 10.4618 5.33221 10.4618C5.33552 10.4618 5.32325 10.4273 5.30566 10.3855C5.23497 10.2295 5.27646 10.2169 5.36871 10.3622C5.40422 10.4163 5.44371 10.4618 5.45632 10.4618C5.4905 10.4618 5.56782 10.556 5.62025 10.6612C5.64348 10.7084 5.70487 10.7917 5.75299 10.8477L5.84524 10.948L5.92256 10.9294C5.96371 10.9184 6.00552 10.9022 6.01415 10.8952C6.03572 10.8753 5.95442 10.7624 5.79281 10.5889C5.66007 10.4455 5.62556 10.3875 5.68496 10.4021C5.70487 10.4074 5.72478 10.4183 5.7281 10.4273C5.73341 10.4346 5.76593 10.4366 5.79845 10.4309C5.84719 10.4269 5.89627 10.4331 5.94214 10.4492C6.0105 10.4724 6.0251 10.4724 6.0251 10.4525C6.0251 10.4382 6.0178 10.422 6.00718 10.4163C5.99789 10.411 5.99258 10.3798 5.99623 10.3476C5.99786 10.2896 5.97604 10.2331 5.93517 10.1897C5.92953 10.1844 5.92422 10.1515 5.92057 10.1173L5.91526 10.0556L5.9657 10.1011C5.99457 10.1263 6.04302 10.1592 6.07521 10.1718C6.10773 10.184 6.15817 10.2225 6.18472 10.257C6.23383 10.3151 6.2408 10.3184 6.31414 10.3075C6.35794 10.3005 6.39942 10.2912 6.40639 10.2879C6.41734 10.2803 6.50595 10.3168 6.60617 10.3676C6.61347 10.3709 6.61878 10.3676 6.61878 10.3583C6.61878 10.3496 6.58991 10.3277 6.55572 10.3115C6.47675 10.2733 6.47675 10.2497 6.55407 10.2351C6.62774 10.2209 6.66922 10.2318 6.793 10.2949C6.89421 10.3456 6.93204 10.3403 6.87928 10.2803C6.83846 10.2338 6.85605 10.1807 6.90317 10.2099C6.9629 10.2478 7.0004 10.3403 6.99675 10.4455C6.99343 10.5816 6.99343 10.5799 7.03458 10.5418C7.05803 10.5199 7.06644 10.4962 7.0598 10.4708C6.98945 10.2332 6.97684 10.1356 6.96423 9.74401L6.96091 9.64943L6.90118 9.67134C6.85061 9.69142 6.80178 9.71562 6.75516 9.74368C6.64565 9.80905 6.54876 9.82 6.42099 9.7835C6.3669 9.76923 6.2783 9.74368 6.22521 9.72908C6.17078 9.71448 6.12034 9.69092 6.11304 9.6783C6.07886 9.62587 6.07554 9.53893 6.10408 9.49712C6.1439 9.4407 6.14058 9.42809 6.08085 9.42809C6.0543 9.42809 6.00718 9.42112 5.97798 9.41183C5.9359 9.39874 5.89255 9.38963 5.84856 9.38462C5.81749 9.38141 5.78682 9.37541 5.75697 9.3667C5.74967 9.36073 5.68264 9.3521 5.60897 9.3448C5.53695 9.33949 5.46694 9.32489 5.45432 9.3156C5.4291 9.29569 5.43641 9.25255 5.47424 9.17622C5.49016 9.14536 5.49912 9.11981 5.49216 9.11981C5.48485 9.11981 5.49216 9.10753 5.50477 9.08928C5.51568 9.07788 5.52364 9.06425 5.52799 9.04946C5.51738 9.00233 5.65078 8.75743 5.70985 8.71031C5.76958 8.66518 5.88805 8.63232 5.98694 8.63066H6.04999L6.00353 8.57989C5.9073 8.47835 5.87909 8.3914 5.88407 8.21353C5.88971 8.00513 5.90066 7.99418 6.13461 7.9527C6.37354 7.9089 6.43128 7.92549 6.54842 8.06885C6.57729 8.10303 6.58825 8.10867 6.59488 8.08876C6.61479 8.036 6.6888 7.97792 6.73194 7.97792C6.75716 7.97792 6.83282 8.01077 6.89919 8.05026C6.96755 8.09042 7.0306 8.12294 7.04188 8.12294C7.07739 8.12493 7.20349 8.23544 7.25194 8.30612C7.2984 8.37846 7.32163 8.48399 7.32561 8.64361C7.32561 8.70666 7.33656 8.73719 7.36709 8.76473C7.41919 8.81351 7.4391 8.8842 7.44441 9.03286C7.44773 9.14005 7.44441 9.15963 7.40658 9.19779C7.36178 9.24325 7.22307 9.27611 7.16002 9.2562C7.1202 9.24359 7.11157 9.28838 7.09531 9.59136C7.07872 9.88836 7.12053 10.2368 7.19088 10.3977L7.24298 10.5199L7.3797 10.3705L7.40857 10.4143C7.43379 10.4508 7.44441 10.4562 7.47328 10.4396C7.5131 10.4197 7.57051 10.3526 7.57217 10.3291C7.57217 10.3201 7.56321 10.3201 7.55425 10.3254C7.5433 10.331 7.53633 10.3274 7.53633 10.3164C7.53633 10.3058 7.52538 10.2982 7.51476 10.2999C7.47328 10.3058 7.37439 10.2766 7.37439 10.2584C7.37439 10.2491 7.36709 10.2461 7.35647 10.2527C7.33457 10.2677 7.19387 10.1389 7.19387 10.1044C7.19387 10.0825 7.19984 10.0808 7.21942 10.0971C7.23402 10.1097 7.26455 10.1137 7.28977 10.108C7.31864 10.1007 7.35448 10.1097 7.39397 10.1333C7.52007 10.2113 7.53268 10.1751 7.42118 10.0593C7.33158 9.96303 7.30603 9.89998 7.27517 9.68561C7.26621 9.62255 7.29176 9.60762 7.31831 9.66204C7.32926 9.67996 7.37472 9.71448 7.41919 9.73638C7.53633 9.79445 7.66044 9.95374 7.72515 10.1333C7.77725 10.2786 7.80811 10.3091 7.86387 10.2786C7.88046 10.269 7.89805 10.2312 7.90501 10.195C7.91231 10.1568 7.95015 10.0301 7.98798 9.91226C8.07625 9.65109 8.09583 9.48086 8.04904 9.42809C8.02581 9.40088 7.99694 9.39192 7.93953 9.39557C7.80612 9.39889 7.72714 9.31593 7.69993 9.1364C7.68201 9.02357 7.69827 9.01328 7.87813 9.00565C8.02415 8.99868 8.07791 9.02224 8.15689 9.12744C8.19671 9.18153 8.20401 9.20542 8.19671 9.26847C8.1602 9.58406 8.14096 9.69656 8.09218 9.87244C8.06165 9.98095 8.03244 10.1047 8.02747 10.1422C8.01851 10.2059 8.02016 10.2109 8.05069 10.1986C8.07061 10.1893 8.11939 10.1804 8.16253 10.1751L8.23985 10.1678L8.18244 10.2491C8.11043 10.3526 8.11939 10.3818 8.22226 10.3785C8.28133 10.3762 8.29925 10.3685 8.3029 10.342C8.30456 10.3221 8.31186 10.2547 8.31717 10.1893C8.32812 10.0808 8.36031 9.93582 8.45588 9.57311C8.47579 9.49878 8.50234 9.39192 8.51561 9.3375C8.52955 9.28308 8.54747 9.21803 8.55643 9.19248C8.58729 9.11616 8.6374 8.8301 8.66992 8.55268C8.68651 8.41131 8.68253 8.1465 8.66262 8.12858C8.64271 8.10867 8.61417 8.22117 8.62844 8.259C8.64835 8.30413 8.64669 8.31873 8.5926 8.57259C8.55842 8.73188 8.5405 8.78497 8.50798 8.8082C8.48641 8.82446 8.44493 8.86063 8.41606 8.88984C8.38752 8.91705 8.34969 8.93895 8.33177 8.93895C8.29925 8.93696 8.21994 8.82612 8.17514 8.71562C8.16054 8.67945 8.14096 8.64693 8.13001 8.63996C8.09018 8.61407 8.03643 8.3768 8.04373 8.25734C8.05103 8.13057 8.04539 8.12294 7.95911 8.17205C7.85291 8.23178 7.46465 8.19196 7.44972 8.11962C7.44806 8.10469 7.47162 8.05757 7.50613 8.01243C7.59739 7.89098 7.64783 7.72804 7.61 7.68059C7.59341 7.66267 7.59739 7.65371 7.62095 7.64276C7.65148 7.63181 7.65148 7.63015 7.62261 7.61355C7.57051 7.58435 7.58677 7.56477 7.65912 7.56676C7.72349 7.57008 7.72548 7.56809 7.7288 7.50106C7.73212 7.42706 7.78986 7.31854 7.83334 7.30029C7.85125 7.29465 7.85988 7.26379 7.85988 7.21302C7.85988 7.15328 7.85491 7.14233 7.83864 7.15859C7.79882 7.19841 7.68931 7.18381 7.62958 7.12939C7.59301 7.09682 7.5526 7.06832 7.50912 7.04444C7.44275 7.01026 7.41952 6.98139 7.28247 6.76502C7.24282 6.70501 7.19891 6.64758 7.15106 6.59313C7.11522 6.55529 7.08801 6.51514 7.09133 6.50253C7.09752 6.48948 7.1473 6.48461 7.24066 6.48793C7.33668 6.48894 7.43261 6.48161 7.52737 6.46603C7.70723 6.4355 7.7809 6.43185 7.85656 6.45342M6.71933 6.58947C6.74278 6.60739 6.77873 6.61293 6.82718 6.60607C6.89354 6.59678 6.9045 6.60043 6.91545 6.63494C6.92441 6.66381 6.91213 6.69467 6.86501 6.75075C6.8076 6.82144 6.73359 6.8669 6.52851 6.96114C6.37387 7.03183 6.33405 7.068 6.31812 7.14432C6.30916 7.18945 6.29091 7.20936 6.2335 7.23492C6.19202 7.25284 6.14722 7.28171 6.13262 7.30195C6.08052 7.36699 5.95807 7.55216 5.9292 7.60625C5.90398 7.65537 5.8177 7.75326 5.74768 7.80934C5.72932 7.8237 5.70647 7.83198 5.68264 7.83291C5.65045 7.83291 5.6468 7.82029 5.64281 7.71875C5.64101 7.65889 5.63868 7.59904 5.63585 7.53922C5.63419 7.46522 5.66837 7.39785 5.71151 7.39785C5.74569 7.39785 5.74403 7.36898 5.70985 7.35405C5.67003 7.33978 5.67733 7.25284 5.72412 7.18215L5.79248 7.07364C5.80026 7.05849 5.81221 7.04558 5.82709 7.03624C5.84197 7.02691 5.85924 7.02149 5.8771 7.02054C5.94347 7.01358 5.94181 7.01922 5.90962 6.95185C5.89333 6.91932 5.88065 6.88529 5.87179 6.85031L5.85918 6.80385L5.93816 6.8304C5.97964 6.845 6.02278 6.86491 6.03373 6.8742C6.0626 6.90307 6.07853 6.89245 6.07853 6.84301C6.07853 6.79787 6.08782 6.78692 6.23516 6.66547C6.31978 6.59843 6.42597 6.56757 6.46745 6.60208C6.48537 6.61669 6.49964 6.61669 6.5159 6.60374C6.52685 6.59279 6.56634 6.58217 6.60052 6.57686C6.6347 6.57355 6.66888 6.56757 6.67419 6.56757C6.67984 6.56591 6.69941 6.57487 6.71933 6.58947Z" fill="white"/>
</svg>
