<svg width="400" height="400" viewBox="0 0 400 400" fill="none" xmlns="http://www.w3.org/2000/svg">
<path d="M127.844 266.224H104.286C97.4428 266.241 90.7685 264.1 85.212 260.106C85.1308 260.048 85.0298 260.024 84.9312 260.04C84.8326 260.056 84.7443 260.111 84.686 260.192C84.6277 260.273 84.6039 260.374 84.6201 260.473C84.6362 260.571 84.6909 260.66 84.772 260.718C90.4573 264.803 97.2851 266.994 104.286 266.978H127.844C127.939 266.971 128.028 266.928 128.093 266.858C128.158 266.788 128.195 266.697 128.195 266.601C128.195 266.506 128.158 266.414 128.093 266.344C128.028 266.274 127.939 266.231 127.844 266.224Z" fill="white"/>
<path d="M145.958 266.224H138.424C138.329 266.231 138.24 266.274 138.175 266.344C138.11 266.414 138.073 266.506 138.073 266.601C138.073 266.697 138.11 266.789 138.175 266.859C138.24 266.928 138.329 266.971 138.424 266.978H145.958C146.053 266.971 146.142 266.928 146.207 266.859C146.272 266.789 146.309 266.697 146.309 266.601C146.309 266.506 146.272 266.414 146.207 266.344C146.142 266.274 146.053 266.231 145.958 266.224Z" fill="white"/>
<path d="M96.35 98.8497C97.4403 98.8501 98.5061 98.5271 99.4128 97.9217C100.32 97.3163 101.026 96.4556 101.444 95.4484C101.861 94.4413 101.971 93.3329 101.758 92.2636C101.546 91.1942 101.021 90.2119 100.25 89.4408C99.4795 88.6697 98.4973 88.1446 97.4281 87.9317C96.3588 87.7189 95.2504 87.8279 94.2431 88.2451C93.2358 88.6622 92.3748 89.3687 91.7691 90.2752C91.1633 91.1817 90.84 92.2474 90.84 93.3377C90.8421 94.7986 91.4232 96.199 92.4561 97.2322C93.4889 98.2654 94.8891 98.847 96.35 98.8497Z" fill="white"/>
<path d="M111.874 98.8497C112.964 98.8497 114.03 98.5264 114.936 97.9207C115.843 97.3151 116.549 96.4542 116.966 95.447C117.384 94.4398 117.493 93.3316 117.28 92.2623C117.067 91.1931 116.542 90.211 115.772 89.4401C115.001 88.6692 114.019 88.1443 112.949 87.9316C111.88 87.7189 110.772 87.8281 109.765 88.2453C108.757 88.6624 107.897 89.3689 107.291 90.2754C106.685 91.1818 106.362 92.2475 106.362 93.3377C106.364 94.7991 106.945 96.2001 107.978 97.2335C109.012 98.2669 110.413 98.8481 111.874 98.8497ZM111.874 88.5797C112.816 88.5797 113.736 88.8589 114.519 89.382C115.302 89.9052 115.912 90.6487 116.272 91.5186C116.632 92.3885 116.726 93.3456 116.542 94.269C116.359 95.1925 115.905 96.0406 115.239 96.7062C114.573 97.3718 113.725 97.825 112.801 98.0085C111.878 98.1919 110.921 98.0974 110.051 97.7368C109.181 97.3762 108.438 96.7658 107.915 95.9827C107.392 95.1997 107.114 94.2792 107.114 93.3377C107.116 92.0759 107.618 90.8663 108.51 89.9743C109.402 89.0823 110.612 88.5807 111.874 88.5797Z" fill="white"/>
<path d="M127.434 98.8497C128.524 98.8501 129.59 98.5271 130.497 97.9217C131.404 97.3163 132.11 96.4556 132.528 95.4484C132.945 94.4413 133.055 93.3329 132.842 92.2636C132.63 91.1942 132.105 90.2119 131.334 89.4408C130.563 88.6697 129.581 88.1446 128.512 87.9317C127.443 87.7189 126.334 87.8279 125.327 88.2451C124.32 88.6622 123.459 89.3687 122.853 90.2752C122.247 91.1817 121.924 92.2474 121.924 93.3377C121.926 94.7987 122.507 96.1995 123.539 97.2328C124.572 98.2661 125.973 98.8476 127.434 98.8497ZM127.434 88.5797C128.376 88.5793 129.296 88.8582 130.079 89.3811C130.862 89.9039 131.473 90.6473 131.833 91.5172C132.194 92.387 132.288 93.3443 132.105 94.2678C131.921 95.1914 131.468 96.0397 130.802 96.7055C130.136 97.3713 129.288 97.8247 128.364 98.0083C127.441 98.1919 126.483 98.0975 125.614 97.737C124.744 97.3764 124 96.766 123.477 95.983C122.954 95.1999 122.676 94.2793 122.676 93.3377C122.678 92.0763 123.179 90.867 124.071 89.975C124.963 89.0831 126.173 88.5813 127.434 88.5797Z" fill="white"/>
<path d="M185.972 201.24L186.21 224.872C186.245 225.256 186.405 225.619 186.664 225.904C186.924 226.19 187.269 226.384 187.648 226.456L223.094 234.534H223.116C223.309 234.592 223.513 234.607 223.712 234.579C223.912 234.551 224.103 234.48 224.273 234.371C224.443 234.263 224.587 234.118 224.696 233.949C224.805 233.779 224.876 233.588 224.904 233.388V207.358C224.885 206.953 224.725 206.567 224.451 206.268C224.177 205.97 223.806 205.777 223.404 205.724L187.578 200.044C187.392 199.995 187.197 199.988 187.008 200.025C186.819 200.061 186.641 200.14 186.487 200.255C186.332 200.37 186.206 200.518 186.117 200.689C186.028 200.859 185.978 201.048 185.972 201.24ZM186.862 200.916C187.192 200.63 185.114 200.49 223.288 206.466C223.512 206.493 223.72 206.596 223.877 206.758C224.034 206.92 224.131 207.131 224.152 207.356V233.388C224.152 233.588 223.798 233.926 223.262 233.802L187.816 225.724C187.602 225.686 187.405 225.584 187.252 225.43C187.099 225.276 186.998 225.078 186.962 224.864C186.7 199.6 186.65 201.098 186.862 200.916Z" fill="white"/>
<path d="M366.862 159.956H338.74V104.556C338.73 95.6642 335.193 87.1396 328.905 80.8529C322.617 74.5663 314.092 71.0313 305.2 71.0239H104.286C95.3966 71.034 86.8741 74.5699 80.5885 80.8559C74.3029 87.1418 70.7675 95.6645 70.758 104.554V159.954H42.634C42.5343 159.954 42.4386 159.994 42.3681 160.064C42.2976 160.135 42.258 160.23 42.258 160.33V224.06C42.2585 224.159 42.2983 224.255 42.3687 224.325C42.4391 224.396 42.5344 224.435 42.634 224.436H70.758V233.124C70.758 233.224 70.7976 233.319 70.8681 233.39C70.9386 233.46 71.0343 233.5 71.134 233.5C71.2337 233.5 71.3294 233.46 71.3999 233.39C71.4704 233.319 71.51 233.224 71.51 233.124V224.436H129.812C129.861 224.436 129.91 224.426 129.956 224.407C130.002 224.388 130.043 224.361 130.078 224.326C130.113 224.291 130.14 224.249 130.159 224.204C130.178 224.158 130.188 224.109 130.188 224.06V160.332C130.188 160.283 130.178 160.234 130.159 160.188C130.14 160.142 130.113 160.101 130.078 160.066C130.043 160.031 130.002 160.003 129.956 159.985C129.91 159.966 129.861 159.956 129.812 159.956H86.6V145.844H183.184C183.284 145.844 183.379 145.804 183.45 145.734C183.52 145.663 183.56 145.568 183.56 145.468V131.936L186.656 137.584C186.708 137.664 186.787 137.721 186.879 137.745C186.972 137.768 187.069 137.756 187.152 137.71C187.236 137.664 187.299 137.589 187.329 137.499C187.359 137.409 187.353 137.31 187.314 137.224L183.894 130.978H204.114L200.434 137.034C200.381 137.119 200.364 137.222 200.387 137.319C200.409 137.417 200.47 137.502 200.555 137.555C200.64 137.608 200.743 137.625 200.841 137.602C200.938 137.58 201.023 137.519 201.076 137.434L204.372 132V159.956H161.158C161.109 159.956 161.06 159.966 161.014 159.985C160.968 160.003 160.927 160.031 160.892 160.066C160.857 160.101 160.83 160.142 160.811 160.188C160.792 160.234 160.782 160.283 160.782 160.332V224.058C160.782 224.158 160.822 224.254 160.892 224.325C160.962 224.395 161.058 224.435 161.158 224.436H182L182.058 229.408L156.74 246.174C154.866 247.338 155.94 250.05 158.308 250.716C200.972 262.744 198.326 262.082 199.274 262.082C200.057 262.102 200.825 261.864 201.46 261.406C229.948 239.632 228.802 240.312 228.764 240.098L228.82 240.062V224.436H248.338C248.438 224.435 248.534 224.395 248.604 224.325C248.674 224.254 248.714 224.158 248.714 224.058V160.332C248.714 160.283 248.704 160.234 248.685 160.188C248.666 160.142 248.639 160.101 248.604 160.066C248.569 160.031 248.528 160.003 248.482 159.985C248.436 159.966 248.387 159.956 248.338 159.956H205.124V132.012L208.178 137.584C208.229 137.664 208.309 137.721 208.401 137.745C208.494 137.768 208.591 137.756 208.674 137.71C208.758 137.664 208.821 137.589 208.851 137.499C208.881 137.409 208.875 137.31 208.836 137.224L205.416 130.978H227.324L223.644 137.034C223.591 137.119 223.574 137.222 223.597 137.319C223.619 137.417 223.68 137.502 223.765 137.555C223.85 137.608 223.953 137.625 224.051 137.602C224.148 137.58 224.233 137.519 224.286 137.434L227.466 132.206V145.478C227.466 145.578 227.506 145.673 227.576 145.744C227.647 145.814 227.742 145.854 227.842 145.854H322.896V159.966H279.682C279.582 159.966 279.487 160.006 279.416 160.076C279.346 160.147 279.306 160.242 279.306 160.342V224.06C279.306 224.16 279.346 224.255 279.416 224.326C279.487 224.396 279.582 224.436 279.682 224.436H337.988V233.448C337.978 242.14 334.52 250.472 328.373 256.617C322.226 262.762 313.892 266.217 305.2 266.224H147.386C147.291 266.231 147.202 266.274 147.137 266.344C147.072 266.413 147.035 266.505 147.035 266.601C147.035 266.696 147.072 266.788 147.137 266.858C147.202 266.928 147.291 266.971 147.386 266.978H305.2C314.089 266.967 322.612 263.431 328.898 257.146C335.183 250.86 338.719 242.337 338.73 233.448V224.436H366.852C366.952 224.436 367.047 224.396 367.118 224.326C367.188 224.255 367.228 224.16 367.228 224.06V160.332C367.228 160.234 367.19 160.14 367.121 160.07C367.053 159.999 366.96 159.959 366.862 159.956ZM185.574 196L224.702 202.04C225.581 202.146 226.398 202.548 227.018 203.18C227.639 203.811 228.026 204.635 228.116 205.516V239.6L182.814 229.318L182.438 198.132C182.418 196.53 183.952 195.742 185.574 196ZM198.174 261.178L158.512 250C156.834 249.526 155.836 247.6 157.15 246.8L182.514 230L227.546 240.24L201 260.8C200.587 261.072 200.117 261.246 199.627 261.311C199.136 261.375 198.638 261.328 198.168 261.172L198.174 261.178ZM247.974 223.688H228.918V205.52C228.826 204.453 228.369 203.45 227.624 202.681C226.879 201.912 225.891 201.423 224.828 201.296L185.7 195.256C185.244 195.126 184.764 195.1 184.297 195.182C183.829 195.264 183.386 195.45 183.001 195.727C182.617 196.005 182.299 196.366 182.074 196.783C181.849 197.201 181.721 197.664 181.7 198.138L182 223.682H161.534V160.708H247.962L247.974 223.688ZM104.286 71.7779H305.2C313.89 71.7875 322.221 75.2436 328.366 81.3882C334.511 87.5328 337.968 95.8639 337.978 104.554V111.322H248.714V84.7999C248.714 84.7002 248.674 84.6046 248.604 84.534C248.533 84.4635 248.438 84.4239 248.338 84.4239H161.158C161.058 84.4239 160.963 84.4635 160.892 84.534C160.822 84.6046 160.782 84.7002 160.782 84.7999V111.322H71.51V104.554C71.5195 95.8641 74.9758 87.5329 81.1204 81.3883C87.265 75.2437 95.5962 71.7875 104.286 71.7779ZM161.534 130.226V85.1799H247.962V130.226H161.534ZM129.436 223.682H43.012V160.708H129.436V223.682ZM86.224 145.082C86.1237 145.082 86.0276 145.122 85.9567 145.193C85.8858 145.264 85.846 145.36 85.846 145.46V159.948H71.51V112.074H160.782V130.6C160.782 130.7 160.822 130.795 160.892 130.866C160.963 130.936 161.058 130.976 161.158 130.976H182.6L178.92 137.032C178.867 137.117 178.85 137.22 178.873 137.317C178.895 137.415 178.956 137.5 179.041 137.553C179.126 137.606 179.229 137.623 179.327 137.6C179.424 137.578 179.509 137.517 179.562 137.432L182.8 132.072V145.09L86.224 145.082ZM323.272 145.082H228.218V131.8L231.388 137.586C231.439 137.666 231.519 137.723 231.611 137.747C231.704 137.77 231.801 137.758 231.884 137.712C231.968 137.666 232.031 137.591 232.061 137.501C232.091 137.411 232.085 137.312 232.046 137.226L228.626 130.98H248.338C248.387 130.98 248.436 130.97 248.482 130.951C248.528 130.932 248.569 130.905 248.604 130.87C248.639 130.835 248.666 130.793 248.685 130.748C248.704 130.702 248.714 130.653 248.714 130.604V112.074H337.988V159.956H323.648V145.468C323.648 145.368 323.608 145.272 323.538 145.201C323.468 145.131 323.372 145.09 323.272 145.09V145.082ZM366.486 223.682H280.058V160.708H366.486V223.682Z" fill="white"/>
<path d="M179.69 107.284L196.8 99.138C196.89 99.095 196.96 99.018 196.993 98.9239C197.026 98.8297 197.021 98.7262 196.978 98.636C196.935 98.5458 196.858 98.4764 196.764 98.443C196.67 98.4097 196.566 98.415 196.476 98.458L178.676 106.936C178.613 106.967 178.559 107.015 178.522 107.075C178.485 107.134 178.465 107.204 178.465 107.274C178.465 107.344 178.485 107.414 178.522 107.473C178.559 107.533 178.613 107.581 178.676 107.612C197.39 116.97 196.662 116.664 196.862 116.664C196.946 116.663 197.028 116.634 197.094 116.581C197.159 116.528 197.206 116.455 197.225 116.373C197.244 116.291 197.235 116.204 197.2 116.128C197.165 116.051 197.105 115.989 197.03 115.95L179.69 107.284Z" fill="white"/>
<path d="M230.822 106.89L212.822 98.5221C212.732 98.4799 212.628 98.4754 212.534 98.5095C212.441 98.5436 212.364 98.6136 212.322 98.7041C212.28 98.7945 212.275 98.898 212.309 98.9918C212.344 99.0855 212.414 99.1619 212.504 99.2041L229.816 107.248L212.708 116.016C212.624 116.064 212.561 116.143 212.533 116.236C212.506 116.329 212.515 116.429 212.559 116.515C212.604 116.601 212.68 116.667 212.772 116.699C212.864 116.73 212.964 116.725 213.052 116.684C232.39 106.81 231.052 107.566 231.052 107.224C231.049 107.152 231.026 107.083 230.986 107.024C230.945 106.964 230.888 106.918 230.822 106.89Z" fill="white"/>
<path d="M210.532 91.2321L198.028 123.906C197.992 123.999 197.995 124.103 198.035 124.194C198.076 124.285 198.151 124.356 198.244 124.392C198.337 124.428 198.441 124.425 198.532 124.385C198.623 124.344 198.694 124.269 198.73 124.176L211.234 91.5001C211.265 91.408 211.259 91.3075 211.218 91.2196C211.176 91.1317 211.103 91.0633 211.012 91.0286C210.921 90.994 210.82 90.9958 210.731 91.0337C210.641 91.0717 210.57 91.1427 210.532 91.2321Z" fill="white"/>
<path d="M60.132 172.142C58.6538 172.17 57.2455 172.777 56.2099 173.832C55.1744 174.887 54.5942 176.307 54.5942 177.785C54.5942 179.264 55.1744 180.683 56.2099 181.738C57.2455 182.794 58.6538 183.4 60.132 183.428H111.742C112.492 183.442 113.237 183.307 113.934 183.029C114.631 182.752 115.266 182.339 115.801 181.813C116.337 181.288 116.762 180.661 117.052 179.969C117.343 179.278 117.492 178.535 117.492 177.785C117.492 177.035 117.343 176.292 117.052 175.601C116.762 174.909 116.337 174.282 115.801 173.757C115.266 173.231 114.631 172.818 113.934 172.541C113.237 172.264 112.492 172.128 111.742 172.142H60.132ZM116.634 177.786C116.632 179.083 116.116 180.326 115.199 181.242C114.282 182.159 113.039 182.675 111.742 182.676H60.132C58.8519 182.65 57.6331 182.124 56.7369 181.209C55.8408 180.295 55.3389 179.065 55.3389 177.785C55.3389 176.505 55.8408 175.276 56.7369 174.361C57.6331 173.447 58.8519 172.92 60.132 172.894H111.742C113.039 172.896 114.282 173.412 115.199 174.329C116.116 175.246 116.632 176.489 116.634 177.786Z" fill="white"/>
<path d="M178.826 172.142C178.076 172.128 177.331 172.264 176.634 172.541C175.937 172.818 175.302 173.231 174.767 173.757C174.231 174.282 173.806 174.909 173.516 175.601C173.225 176.292 173.076 177.035 173.076 177.785C173.076 178.535 173.225 179.278 173.516 179.969C173.806 180.661 174.231 181.288 174.767 181.813C175.302 182.339 175.937 182.752 176.634 183.029C177.331 183.307 178.076 183.442 178.826 183.428H230.436C231.186 183.442 231.931 183.307 232.628 183.029C233.325 182.752 233.96 182.339 234.495 181.813C235.031 181.288 235.456 180.661 235.746 179.969C236.037 179.278 236.186 178.535 236.186 177.785C236.186 177.035 236.037 176.292 235.746 175.601C235.456 174.909 235.031 174.282 234.495 173.757C233.96 173.231 233.325 172.818 232.628 172.541C231.931 172.264 231.186 172.128 230.436 172.142H178.826Z" fill="white"/>
<path d="M91.216 190.982H60.132C58.6538 191.01 57.2455 191.617 56.2099 192.672C55.1744 193.727 54.5942 195.146 54.5942 196.625C54.5942 198.103 55.1744 199.523 56.2099 200.578C57.2455 201.633 58.6538 202.24 60.132 202.268H91.216C91.966 202.282 92.7113 202.147 93.4083 201.869C94.1053 201.592 94.74 201.179 95.2754 200.653C95.8108 200.128 96.2361 199.501 96.5264 198.809C96.8167 198.118 96.9662 197.375 96.9662 196.625C96.9662 195.875 96.8167 195.132 96.5264 194.441C96.2361 193.749 95.8108 193.122 95.2754 192.597C94.74 192.071 94.1053 191.658 93.4083 191.381C92.7113 191.103 91.966 190.968 91.216 190.982Z" fill="white"/>
<path d="M299.034 179.858H329.258C330.755 179.858 332.19 179.263 333.249 178.205C334.307 177.146 334.902 175.711 334.902 174.214C334.902 172.717 334.307 171.281 333.249 170.223C332.19 169.164 330.755 168.57 329.258 168.57H299.034C297.537 168.57 296.102 169.164 295.043 170.223C293.985 171.281 293.39 172.717 293.39 174.214C293.39 175.711 293.985 177.146 295.043 178.205C296.102 179.263 297.537 179.858 299.034 179.858Z" fill="white"/>
<path d="M343.542 187.41H299.034C298.284 187.396 297.539 187.531 296.842 187.808C296.145 188.086 295.51 188.499 294.975 189.024C294.439 189.55 294.014 190.177 293.724 190.868C293.433 191.56 293.284 192.303 293.284 193.053C293.284 193.803 293.433 194.545 293.724 195.237C294.014 195.929 294.439 196.556 294.975 197.081C295.51 197.606 296.145 198.02 296.842 198.297C297.539 198.574 298.284 198.71 299.034 198.696H343.542C345.02 198.668 346.428 198.061 347.464 197.006C348.5 195.951 349.08 194.531 349.08 193.053C349.08 191.574 348.5 190.155 347.464 189.1C346.428 188.044 345.02 187.438 343.542 187.41ZM348.432 193.052C348.431 194.348 347.915 195.592 346.999 196.509C346.082 197.426 344.839 197.942 343.542 197.944H299.034C298.383 197.957 297.737 197.84 297.132 197.6C296.527 197.36 295.976 197.002 295.511 196.547C295.046 196.091 294.677 195.548 294.425 194.948C294.173 194.348 294.043 193.703 294.043 193.053C294.043 192.402 294.173 191.758 294.425 191.158C294.677 190.558 295.046 190.014 295.511 189.559C295.976 189.103 296.527 188.745 297.132 188.505C297.737 188.265 298.383 188.149 299.034 188.162H343.542C344.838 188.163 346.081 188.679 346.998 189.596C347.915 190.512 348.43 191.755 348.432 193.052Z" fill="white"/>
<path d="M347.36 144.8L353.888 138.312L360.378 144.838C360.448 144.909 360.544 144.949 360.644 144.949C360.743 144.949 360.839 144.91 360.91 144.84C360.981 144.77 361.021 144.674 361.021 144.574C361.022 144.475 360.982 144.379 360.912 144.308L354.422 137.78L360.95 131.29C361.015 131.218 361.049 131.125 361.047 131.029C361.044 130.932 361.005 130.841 360.937 130.773C360.869 130.704 360.778 130.665 360.682 130.662C360.585 130.659 360.492 130.694 360.42 130.758L353.892 137.246L347.4 130.722C347.329 130.657 347.235 130.623 347.139 130.625C347.043 130.627 346.951 130.667 346.883 130.735C346.814 130.803 346.775 130.894 346.772 130.99C346.769 131.087 346.804 131.18 346.868 131.252L353.356 137.782L346.828 144.27C346.764 144.342 346.729 144.435 346.732 144.531C346.735 144.628 346.774 144.719 346.843 144.787C346.911 144.855 347.003 144.894 347.099 144.897C347.195 144.899 347.289 144.864 347.36 144.8Z" fill="white"/>
<path d="M55.53 144.124C55.5668 144.175 55.6158 144.217 55.6726 144.244C55.7294 144.272 55.7921 144.284 55.8552 144.281C55.9182 144.278 55.9795 144.26 56.0334 144.227C56.0874 144.194 56.1323 144.148 56.164 144.094L63.176 131.846C63.2256 131.759 63.2387 131.656 63.2125 131.56C63.1862 131.464 63.1227 131.382 63.036 131.332C62.9493 131.282 62.8464 131.269 62.75 131.295C62.6536 131.322 62.5716 131.385 62.522 131.472L55.8 143.21L50.142 135.242C50.0826 135.165 49.9957 135.114 49.8995 135.1C49.8034 135.086 49.7055 135.109 49.6264 135.166C49.5472 135.222 49.493 135.307 49.475 135.402C49.4571 135.498 49.4768 135.597 49.53 135.678L55.53 144.124Z" fill="white"/>
<path d="M199.4 52.7439C199.638 52.7439 199.136 53.2299 205.426 46.1779C210.026 50.2719 209.776 50.1619 210.068 50.0639C210.36 49.9659 210.046 51.0079 213.678 33.5939C213.692 33.5293 213.688 33.4622 213.668 33.3994C213.647 33.3366 213.61 33.2805 213.561 33.2366C213.511 33.1927 213.451 33.1626 213.386 33.1495C213.322 33.1364 213.255 33.1407 213.192 33.1619L197.492 38.3439C197.429 38.3647 197.373 38.4017 197.329 38.451C197.285 38.5004 197.254 38.5605 197.241 38.6253C197.227 38.6902 197.231 38.7574 197.251 38.8203C197.272 38.8832 197.309 38.9397 197.358 38.9839L201.634 42.7839L195.888 49.2259C195.855 49.2627 195.83 49.3057 195.814 49.3523C195.797 49.399 195.791 49.4483 195.794 49.4976C195.797 49.5469 195.809 49.5951 195.831 49.6394C195.853 49.6837 195.883 49.7233 195.92 49.7559C199.4 52.8719 199.2 52.7439 199.4 52.7439ZM202.446 43.0139C202.512 42.9393 202.546 42.8414 202.541 42.7417C202.535 42.6421 202.49 42.5487 202.416 42.4819L198.346 38.8559L212.81 34.0799L209.722 48.9999L205.654 45.3719C205.617 45.3386 205.574 45.313 205.528 45.2964C205.481 45.2799 205.431 45.2728 205.382 45.2756C205.332 45.2784 205.284 45.291 205.239 45.3127C205.195 45.3344 205.155 45.3647 205.122 45.4019L199.378 51.8419L196.708 49.4619L202.446 43.0139Z" fill="white"/>
<path d="M240.846 288.832C240.226 288.832 239.621 289.015 239.105 289.359C238.59 289.703 238.188 290.192 237.951 290.764C237.714 291.336 237.651 291.966 237.772 292.574C237.893 293.182 238.191 293.74 238.629 294.178C239.067 294.616 239.625 294.915 240.232 295.036C240.84 295.157 241.47 295.095 242.042 294.858C242.615 294.621 243.104 294.219 243.448 293.704C243.792 293.189 243.976 292.584 243.976 291.964C243.975 291.134 243.645 290.338 243.058 289.751C242.471 289.164 241.676 288.834 240.846 288.832ZM240.846 294.342C240.375 294.342 239.915 294.203 239.523 293.942C239.131 293.68 238.826 293.309 238.646 292.874C238.465 292.439 238.418 291.96 238.51 291.498C238.601 291.036 238.828 290.612 239.161 290.279C239.494 289.946 239.918 289.719 240.38 289.628C240.842 289.536 241.321 289.583 241.756 289.764C242.191 289.944 242.562 290.249 242.824 290.641C243.085 291.033 243.224 291.493 243.224 291.964C243.223 292.595 242.973 293.199 242.527 293.645C242.081 294.091 241.477 294.342 240.846 294.342Z" fill="white"/>
<path d="M144.76 366.364H90.622C59.97 366.338 68.534 329.692 69.306 326.618C65.906 317.692 65.804 296.864 66.584 287.08C67.3876 281.668 68.6631 276.336 70.396 271.146L70.964 268.86C75.1536 271.047 79.577 272.754 84.15 273.948C90.9108 279.417 95.8405 286.821 98.28 295.168L117.15 271.266C125.242 273.202 132.352 278.019 137.15 284.816L132.706 290.9C136.158 291.563 139.237 293.496 141.334 296.318C142.426 297.679 143.359 299.161 144.114 300.734L145.504 304.112C146.352 306.51 146.812 309.027 146.868 311.57C146.868 311.57 113.048 332.89 112.22 333.32L143.758 318.782L144.558 322.17C147.986 336.694 148.055 351.809 144.76 366.364V366.364Z" fill="#B2BEC3"/>
<path d="M389.6 365.986H300.846C302.476 361.152 303.148 330.94 300.694 317.3C300.653 316.87 300.482 316.464 300.202 316.135C299.923 315.806 299.55 315.57 299.133 315.46C298.716 315.349 298.275 315.37 297.869 315.518C297.464 315.666 297.114 315.935 296.866 316.288C291.21 322.992 284.282 338.924 281.71 347.606C258.892 348.906 237.02 345.726 222.51 343.206C215.108 337.085 208.058 330.551 201.394 323.634L179.096 298.834C175.702 295.053 171.138 292.518 166.134 291.634C166.175 291.213 166.106 290.788 165.935 290.401C165.764 290.014 165.495 289.677 165.156 289.424C165.43 289.039 165.579 288.58 165.584 288.108C165.59 287.636 165.451 287.173 165.186 286.782C164.512 286.016 163.681 285.405 162.749 284.991C161.817 284.576 160.806 284.369 159.786 284.382C166.478 280.734 169.306 276.75 169.346 275.622C169.362 275.158 168.986 274.768 168.298 275.14C163.165 277.935 157.848 280.378 152.384 282.452C153.026 281.332 153.738 279.678 152.922 278.876C152.868 278.821 152.802 278.779 152.729 278.752C152.657 278.726 152.579 278.715 152.502 278.722C150.566 278.742 138.572 289.05 136.044 291.562C135.189 291.159 134.292 290.852 133.37 290.644L137.464 285.044C137.644 284.8 137.482 284.662 137.36 284.458C136.664 283.51 135.937 282.607 135.178 281.75C142.45 271.608 148.616 267.88 147.688 266.35C147.322 265.75 146.246 266.094 144.618 266.626C141.59 267.662 140.002 268.336 138.308 268.738C138.818 266.58 140.074 261.292 140.226 260.652C141.868 258.42 145.504 253.7 147.468 251.398C149.198 249.372 149.806 248.07 149.324 247.42C149.178 247.259 148.982 247.152 148.768 247.116C148.553 247.08 148.333 247.116 148.142 247.22C146.068 248.304 144.141 249.648 142.408 251.22C142.931 249.244 143.091 247.189 142.88 245.156C142.628 244.34 141.934 244.02 141.006 244.924C138.066 247.784 135.91 258.58 123.192 271.018C122.694 271.506 122.24 271.95 121.838 272.364C120.391 271.798 118.908 271.326 117.4 270.952C117.295 270.928 117.185 270.93 117.081 270.957C116.976 270.985 116.88 271.037 116.8 271.11L98.4 294.404C97.7556 292.479 97.0113 290.588 96.17 288.74C91.066 277.722 83.606 273.578 81.796 271.258C80.038 268.996 80.474 266.03 80.568 262.806C88.124 262.664 87.868 253.314 85.406 246.076C84.295 242.473 82.3802 239.169 79.806 236.414C74.376 230.07 54.606 230.226 49.87 246.518C49.12 249.118 45.976 262.216 56.63 269.452C49.2642 273.721 42.8981 279.517 37.96 286.452C30.93 296.972 30.114 312.886 40.916 321.308C47.848 326.708 60.41 327.436 67.468 321.164C67.8037 323.021 68.2859 324.849 68.91 326.63C68.262 329.294 64.066 348.164 72.356 358.988C75.1559 362.585 79.1458 365.067 83.61 365.988H10.35C10.2548 365.995 10.1657 366.038 10.1007 366.108C10.0356 366.178 9.99948 366.269 9.99948 366.365C9.99948 366.46 10.0356 366.552 10.1007 366.622C10.1657 366.692 10.2548 366.735 10.35 366.742C344.938 366.742 385.15 367.024 389.55 366.718C390.4 366.656 389.892 365.986 389.6 365.986ZM152.442 279.48C152.828 280.056 151.962 281.814 151.18 282.944C147.77 284.146 144.512 285.745 141.474 287.706C145.864 283.976 151.378 279.634 152.442 279.48ZM150.278 284.118C156.435 281.735 162.46 279.025 168.328 276C168.341 275.993 168.356 275.99 168.37 275.992C168.385 275.995 168.399 276.001 168.409 276.011C168.42 276.021 168.427 276.035 168.43 276.049C168.432 276.064 168.43 276.079 168.424 276.092C167.738 277.45 164.838 281.038 158.206 284.372C157.297 284.415 156.394 284.549 155.512 284.772C155.415 284.797 155.332 284.859 155.281 284.945C155.23 285.031 155.215 285.133 155.24 285.23C155.265 285.327 155.327 285.41 155.413 285.461C155.499 285.512 155.601 285.527 155.698 285.502C160.552 284.274 166.15 286.334 164.546 288.994C161.954 287.584 158.91 287.257 156.078 288.086C155.986 288.115 155.909 288.177 155.862 288.261C155.815 288.345 155.802 288.444 155.825 288.537C155.849 288.63 155.907 288.711 155.988 288.763C156.07 288.814 156.168 288.832 156.262 288.814C162.516 287.236 167.906 290.724 164.158 293.292C162.254 291.426 158.644 291.386 155.93 291.98C155.882 291.991 155.836 292.011 155.795 292.039C155.755 292.067 155.72 292.103 155.694 292.145C155.667 292.187 155.649 292.233 155.64 292.282C155.631 292.331 155.632 292.381 155.643 292.429C155.654 292.477 155.674 292.523 155.702 292.564C155.73 292.604 155.766 292.639 155.808 292.665C155.85 292.692 155.896 292.71 155.945 292.719C155.994 292.728 156.044 292.727 156.092 292.716C157.322 292.321 158.625 292.206 159.905 292.379C161.185 292.552 162.411 293.009 163.492 293.716C163.731 293.894 163.924 294.126 164.055 294.394C164.185 294.661 164.25 294.956 164.244 295.254C164.044 297.576 159.62 300.816 155.914 299.286C157.361 298.409 158.883 297.663 160.462 297.056C160.562 297.052 160.656 297.009 160.723 296.935C160.791 296.862 160.827 296.765 160.823 296.665C160.819 296.565 160.776 296.471 160.702 296.404C160.629 296.336 160.532 296.3 160.432 296.304C154.96 298.338 150.161 301.853 146.572 306.458C145.172 300.784 142.026 294.82 136.786 291.97C140.86 288.686 145.41 286.038 150.278 284.118ZM148.436 247.908C148.746 247.774 148.79 247.876 148.678 248.242C148.242 249.656 146.658 250.852 140.662 258.796C141.278 256.196 141.782 254.042 142.136 252.452C144.032 250.672 146.149 249.145 148.436 247.908ZM123.716 271.548C130.277 265.239 135.525 257.694 139.156 249.348C139.735 247.956 140.515 246.657 141.472 245.492C142.01 244.928 142.116 245.036 142.22 245.644C142.678 248.34 140.62 255.53 136.866 271.57C136.845 271.667 136.862 271.768 136.915 271.851C136.967 271.935 137.051 271.995 137.147 272.017C137.243 272.04 137.345 272.024 137.429 271.972C137.513 271.921 137.574 271.838 137.598 271.742C137.771 271.001 137.943 270.271 138.112 269.552C140.654 269.026 145.924 266.752 147.002 266.778C146.48 268.314 140.918 272.512 134.658 281.178C131.304 277.496 127.185 274.591 122.59 272.668C122.93 272.314 123.306 271.946 123.716 271.548ZM117.294 271.694C125.114 273.627 131.991 278.28 136.694 284.82L132.454 290.62L105.016 309.706C103.633 307.657 102.367 305.737 101.216 303.946C100.389 300.702 99.5533 297.801 98.708 295.244L117.294 271.694ZM68.8 243.962C69.426 244.322 70.85 245.08 71 244.362C72.25 238.006 74.14 236.148 75.504 235.71C82.464 233.478 92.844 261.836 80.582 262.05C78.6328 261.907 76.7234 261.426 74.94 260.626C74.8562 260.591 74.7625 260.587 74.6763 260.616C74.59 260.645 74.5172 260.704 74.4711 260.782C74.4249 260.86 74.4088 260.953 74.4255 261.042C74.4422 261.131 74.4907 261.212 74.562 261.268L79.744 265.4C79.612 269.924 80.596 271.314 82.628 273.114C78.7386 272.013 74.9717 270.518 71.386 268.652C72.4946 264.431 72.5946 260.009 71.678 255.742C71.3975 254.157 70.891 252.621 70.174 251.18C69.006 248.566 69.174 248.6 68.872 248.528C64.348 247.448 65.718 242.2 68.8 243.962ZM66.96 287.11C67.43 281.202 69.474 276.768 71.204 269.42C75.2736 271.496 79.5541 273.129 83.972 274.292C93.404 282.398 96.572 289.596 99.892 301.892C94.066 292.72 91.076 286.892 89.05 283.366C85.818 277.72 81.72 275.78 74.99 273.63C74.39 273.43 73.916 273.286 73.59 273.156C73.4983 273.122 73.3969 273.124 73.3071 273.163C73.2174 273.203 73.1465 273.275 73.1095 273.366C73.0725 273.457 73.0723 273.558 73.109 273.649C73.1457 273.74 73.2164 273.812 73.306 273.852C73.636 273.988 74.13 274.146 74.756 274.346C81.338 276.448 85.284 278.308 88.39 283.746C93.3352 292.914 98.7421 301.826 104.59 310.446C104.768 310.708 104.99 310.606 105.19 310.496L132.79 291.296C135.251 291.91 137.53 293.101 139.44 294.77C141.349 296.44 142.834 298.539 143.772 300.896C145.401 304.157 146.327 307.724 146.49 311.366C110.128 334.454 114.018 332.214 109.25 334.276C99.03 338.694 90.834 334.944 84.512 323.574C83.34 321.464 72.688 304.288 72.234 303.558C72.2077 303.516 72.1735 303.48 72.1331 303.451C72.0928 303.422 72.0471 303.401 71.9989 303.39C71.9506 303.379 71.9006 303.378 71.8517 303.386C71.8028 303.394 71.756 303.412 71.714 303.438C71.672 303.464 71.6355 303.499 71.6068 303.539C71.578 303.579 71.5574 303.625 71.5463 303.673C71.5352 303.721 71.5336 303.771 71.5418 303.82C71.55 303.869 71.5677 303.916 71.594 303.958C81.88 320.468 84.904 325.726 84.932 325.774C79.8077 326.365 74.6382 326.458 69.496 326.052C66.294 316.956 66.2 296.67 66.96 287.11ZM90.62 365.986C82.686 365.986 76.744 363.472 72.958 358.532C64.872 347.978 69.012 329.414 69.644 326.814C74.8899 327.217 80.1628 327.101 85.386 326.468C91.8 336.288 100 338.824 109.556 334.964L143.504 319.312C147.554 334.569 147.882 350.576 144.46 365.986H90.62ZM203.806 365.986H145.234C146.719 359.712 147.49 353.291 147.534 346.844C148.874 345.644 147.306 346.796 162.182 336.752C168.492 337.206 178.052 338.092 188.054 339.752C189.966 340.752 200.738 346.252 204.284 348.152C202.781 352.532 201.823 357.08 201.432 361.694C201.36 362.563 201.547 363.434 201.968 364.197C202.389 364.961 203.027 365.583 203.8 365.986H203.806ZM156.752 335.664C160.552 330.412 164.05 325.096 165.062 323.546C169.35 329.06 176.296 333.52 185.964 338.656C176 337.1 165 336.07 156.752 335.664ZM204.896 347.618C187.616 338.402 172.386 332.12 165.34 322.668C165.304 322.619 165.256 322.58 165.201 322.554C165.146 322.527 165.086 322.515 165.025 322.517C164.964 322.519 164.905 322.536 164.852 322.566C164.8 322.596 164.755 322.639 164.722 322.69C161.246 328.064 152.214 341.404 147.542 345.814C147.5 335.211 145.964 324.668 142.978 314.494C147.402 311.678 147.25 311.862 147.25 311.57C147.241 310.168 147.09 308.771 146.8 307.4C149.074 304.341 151.906 301.74 155.148 299.736C156.146 300.216 157.245 300.445 158.352 300.404C159.458 300.362 160.537 300.051 161.496 299.498C163.608 298.37 165.916 295.898 164.62 293.846C165.184 293.487 165.631 292.972 165.908 292.364C170.781 293.206 175.227 295.666 178.528 299.348L200.854 324.168C207.138 330.46 220.364 343.844 228.114 347.858C220.493 349.857 212.474 349.775 204.896 347.618ZM254.822 362.838C250.578 359.256 239.606 350.608 229.342 347.612C227.381 346.67 225.524 345.526 223.8 344.2C242.883 347.76 262.307 349.157 281.704 348.366C283.768 356.238 283.952 358.42 281.704 365.992H255.044C255.241 365.772 255.392 365.516 255.488 365.237C255.583 364.958 255.622 364.662 255.601 364.368C255.581 364.074 255.501 363.787 255.367 363.524C255.233 363.261 255.048 363.028 254.822 362.838Z" fill="white"/>
</svg>
