<svg width="256" height="233" viewBox="0 0 256 233" fill="none" xmlns="http://www.w3.org/2000/svg">
<path fill-rule="evenodd" clip-rule="evenodd" d="M245.407 64.4657C257.348 45.6371 251.087 20.263 231.422 7.79099C211.757 -4.68104 186.134 0.471928 174.193 19.3005C172.547 21.8959 171.247 24.6158 170.28 27.409C156.687 23.8216 141.402 22.3079 124.388 23.4687C107.376 24.6289 92.4407 28.2034 79.4623 33.6022C78.1251 30.9662 76.4676 28.4482 74.4843 26.1005C60.097 9.06894 34.0136 7.44355 16.2253 22.4701C-1.56294 37.4966 -4.31998 63.4847 10.0673 80.5163C13.2104 84.237 16.9117 87.2225 20.9628 89.4597C14.8387 102.579 11.33 116.509 10.2113 130.122C5.56113 186.649 24.6904 239.162 138.573 231.393C252.454 223.623 264.276 169 251.991 113.629C249.034 100.297 243.668 86.9748 235.821 74.8101C239.533 72.0427 242.797 68.5808 245.407 64.4657ZM221.225 56.5947C223.089 55.2724 224.724 53.5825 226.014 51.5481C231.55 42.8203 228.647 31.0584 219.532 25.2771C210.416 19.4958 198.539 21.8844 193.004 30.6122C192.115 32.0139 191.444 33.4938 190.981 35.0147C202.714 40.6684 212.784 48.0606 221.225 56.5947ZM56.0895 40.0107C57.2976 41.4408 58.2402 43.0096 58.9233 44.6601C48.5284 51.7216 39.8974 60.1684 32.9241 69.4682C30.6072 68.4089 28.4951 66.8455 26.7576 64.7886C20.2064 57.0334 21.4618 45.1999 29.5616 38.3576C37.6614 31.5154 49.5383 32.2555 56.0895 40.0107ZM234.721 151.371C224.805 168.01 212.567 173.934 185.204 175.354C185.204 175.354 185.947 159.093 165.576 153.273C151.469 149.242 144.166 148.805 131.227 150.206C117.595 151.682 106.692 155.113 96.8782 161.86C85.7814 169.489 85.2241 182.102 85.2241 182.102C57.9223 184.41 44.5299 180.307 32.4468 165.169C27.3212 158.751 24.5282 150.769 24.1281 142.568C21.8252 95.2468 55.9915 47.3661 125.579 40.9281C195.397 37.8561 235.749 80.6526 239.893 127.848C240.612 136.027 238.929 144.314 234.721 151.371ZM104.551 128.731C105.55 143.374 99.9632 153.997 89.3494 154.722C78.7339 155.447 70.5253 145.763 69.5274 131.122C69.3357 128.301 69.4316 125.598 69.794 123.073C70.7479 116.346 73.5611 110.879 77.6954 107.665C80.0438 105.81 82.8212 104.699 85.9219 104.487C96.5374 103.764 103.553 114.098 104.551 128.731ZM178.243 148.659C188.857 147.934 194.444 137.31 193.445 122.668C192.447 108.033 185.431 97.6991 174.816 98.424C171.715 98.6352 168.938 99.7468 166.589 101.601C162.455 104.816 159.642 110.283 158.688 117.009C158.325 119.535 158.23 122.237 158.421 125.058C159.419 139.699 167.628 149.384 178.243 148.659ZM181.083 178.613C182.266 195.954 169.538 210.974 137.323 213.14C105.12 215.369 90.4695 202.216 89.287 184.876C88.1045 167.536 107.914 155.349 133.263 153.619C158.61 151.89 179.901 161.273 181.083 178.613ZM149.113 171.252C147.186 174.334 143.278 178.31 135.656 179.521C135.55 179.528 135.444 179.535 135.337 179.542L135.033 179.563C134.92 179.571 134.807 179.579 134.694 179.587C134.599 179.593 134.504 179.6 134.409 179.606C126.702 179.441 122.289 176.034 119.962 173.241C118.234 171.166 118.687 168.09 120.954 166.627C126.014 163.373 133.283 162.883 133.862 162.844L133.891 162.842H133.898L133.921 162.84C134.453 162.803 141.755 162.288 147.229 164.835C149.678 165.974 150.543 168.961 149.113 171.252Z" fill="#03A0D9"/>
</svg>
