<svg width="17" height="16" viewBox="0 0 17 16" fill="none" xmlns="http://www.w3.org/2000/svg">
<mask id="mask0_1041_2524" style="mask-type:alpha" maskUnits="userSpaceOnUse" x="0" y="0" width="17" height="16">
<rect x="0.0722656" width="16" height="16" fill="#D9D9D9"/>
</mask>
<g mask="url(#mask0_1041_2524)">
<path d="M8.07227 5.6L4.87227 8.8L5.72227 9.65L7.47227 7.9V14.4H8.67227V7.9L10.4223 9.65L11.2723 8.8L8.07227 5.6ZM2.78893 11.6C2.42227 11.0667 2.14449 10.4944 1.9556 9.88333C1.76671 9.27222 1.67227 8.64444 1.67227 8C1.67227 7.11111 1.83893 6.28333 2.17227 5.51667C2.5056 4.73889 2.96116 4.06111 3.53893 3.48333C4.12782 2.89444 4.81116 2.43333 5.58893 2.1C6.36671 1.76667 7.19449 1.6 8.07227 1.6C8.96115 1.6 9.78893 1.76667 10.5556 2.1C11.3334 2.43333 12.0112 2.89444 12.5889 3.48333C13.1778 4.06111 13.6389 4.73889 13.9723 5.51667C14.3056 6.28333 14.4723 7.11111 14.4723 8C14.4723 8.64444 14.3723 9.27222 14.1723 9.88333C13.9834 10.4944 13.7112 11.0667 13.3556 11.6L12.5056 10.7333C12.7612 10.3111 12.95 9.87222 13.0723 9.41667C13.2056 8.96111 13.2723 8.48889 13.2723 8C13.2723 6.55556 12.7667 5.32778 11.7556 4.31667C10.7445 3.30556 9.51671 2.8 8.07227 2.8C6.62782 2.8 5.40004 3.30556 4.38893 4.31667C3.37782 5.32778 2.87227 6.55556 2.87227 8C2.87227 8.48889 2.93338 8.96667 3.0556 9.43333C3.18893 9.88889 3.38338 10.3222 3.63893 10.7333L2.78893 11.6Z" fill="white"/>
</g>
</svg>
