 <svg
    width="16"
    height="16"
    viewBox="0 0 20 18"
    fill="none"
    xmlns="http://www.w3.org/2000/svg"
  >
    <path
      d="M2 0C0.895431 0 0 0.895431 0 2V7V16C0 17.1046 0.895432 18 2 18H18C19.1046 18 20 17.1046 20 16V7V2C20 0.89543 19.1046 0 18 0H2ZM18 2V6H2V2H18ZM2 8H18V16H2V8ZM8 4C8 4.55228 7.55228 5 7 5C6.44772 5 6 4.55228 6 4C6 3.44772 6.44772 3 7 3C7.55228 3 8 3.44772 8 4ZM4 5C4.55228 5 5 4.55228 5 4C5 3.44772 4.55228 3 4 3C3.44772 3 3 3.44772 3 4C3 4.55228 3.44772 5 4 5Z"
      fill="currentColor"
    />
  </svg>