  <svg
    width="16"
    height="16"
    viewBox="0 0 19 19"
    fill="none"
    xmlns="http://www.w3.org/2000/svg"
>
    <path
    d="M13.2929 0.292893C13.6834 -0.0976311 14.3166 -0.0976311 14.7071 0.292893L18.7071 4.29289C19.0976 4.68342 19.0976 5.31658 18.7071 5.70711L5.70711 18.7071C5.51957 18.8946 5.26522 19 5 19H1C0.447715 19 0 18.5523 0 18V14C0 13.7348 0.105357 13.4804 0.292893 13.2929L10.2927 3.2931L13.2929 0.292893ZM11 5.41421L2 14.4142V17H4.58579L13.5858 8L11 5.41421ZM15 6.58579L16.5858 5L14 2.41421L12.4142 4L15 6.58579Z"
    fill="currentColor"
    />
</svg>