<svg width="80" height="80" viewBox="0 0 80 80" fill="none" xmlns="http://www.w3.org/2000/svg">
<g clip-path="url(#clip0_5288_31149)">
<path d="M79.195 38.1756L70.7543 30.3234C70.2639 29.4063 69.4915 28.663 68.5498 28.2188L51.1612 20.0144C56.6168 11.1109 50.0053 -0.404688 39.4912 0.0109368C39.402 0.0289056 35.5106 -0.00531316 31.9525 2.76266C31.4415 3.16016 31.3498 3.89641 31.7471 4.40719C32.145 4.91828 32.8814 5.01 33.3917 4.61234C40.2131 -0.694688 50.2748 3.87391 50.7567 12.5061C50.7523 12.5305 51.25 17.7173 46.9492 21.3522C46.1821 21.9852 45.6804 22.3014 45.2686 23.307C44.9286 24.1355 44.98 24.9311 44.98 24.9153H43.7411V20.5191C45.3898 20.3472 46.6798 18.9495 46.6798 17.2559C46.6798 15.4467 45.2078 13.9747 43.3986 13.9747H36.6015C34.7923 13.9747 33.3203 15.4467 33.3203 17.2559C33.3203 18.9495 34.6101 20.3472 36.259 20.5191V24.9156H35.0201C35.0986 23.7864 34.5871 22.568 33.45 21.673C32.1528 20.6455 31.5065 19.7466 31.5193 19.7623C29.0693 16.6712 28.4693 12.2422 30.2853 8.46203C30.5654 7.87875 30.3198 7.17859 29.7362 6.89828C29.1536 6.61844 28.4529 6.86359 28.1725 7.44734C26.3104 11.3233 26.4048 16.0513 28.8393 20.0145L11.4503 28.2188C10.537 28.6497 9.7509 29.3789 9.24559 30.3236L0.805117 38.1758C-0.496914 39.387 -0.167383 41.537 1.44605 42.2984L8.66777 45.7056V62.6512C8.66777 64.5203 9.75996 66.2433 11.4504 67.0413L37.9287 79.5342C39.2445 80.155 40.7548 80.1553 42.0711 79.5342L48.0478 76.7144C48.6331 76.4381 48.8839 75.7398 48.6076 75.1545C48.3312 74.5692 47.6331 74.3186 47.0478 74.5947L41.172 77.3669V47.875C50.3671 54.13 50.4337 54.5103 52.1861 54.4208C53.5518 54.3511 52.9801 54.2491 68.9884 46.8116V52.1606C68.9884 52.808 69.5129 53.3325 70.1603 53.3325C70.8075 53.3325 71.3321 52.808 71.3321 52.1606V45.7058L78.5539 42.2984C80.1625 41.5394 80.5011 39.3908 79.195 38.1756ZM35.6639 17.2559C35.6639 16.7389 36.0843 16.3184 36.6014 16.3184H43.3984C43.9154 16.3184 44.3359 16.7389 44.3359 17.2559C44.3359 17.773 43.9154 18.1934 43.3984 18.1934H36.6014C36.0843 18.1934 35.6639 17.773 35.6639 17.2559ZM38.6025 20.5372H41.397V24.9156H38.6025V20.5372ZM33.7498 27.2595C33.7634 27.2595 33.8375 27.2595 33.8482 27.2595H33.8492C34.4489 27.2595 45.6595 27.2595 46.25 27.2595C46.767 27.2595 47.1875 27.68 47.1875 28.197C47.1875 28.7141 46.767 29.1345 46.25 29.1345C42.6981 29.1345 37.3095 29.1345 33.7498 29.1345C33.2328 29.1345 32.8123 28.7141 32.8123 28.197C32.8123 27.68 33.2328 27.2595 33.7498 27.2595ZM2.4459 40.1786C2.33262 40.1253 2.30996 39.977 2.40152 39.8917L9.99949 32.8234C10.9873 33.8664 10.0598 33.1581 37.3068 46.075C28.1164 52.3208 28.6306 52.1159 27.9387 52.0819C27.5153 52.0609 29.1481 52.777 2.4459 40.1786ZM38.8278 77.367L12.4504 64.9214C11.5764 64.5089 11.0115 63.6178 11.0115 62.6514V46.8117C27.1429 54.4189 26.812 54.4336 28.0364 54.4253C28.8218 54.4203 29.5739 54.1705 30.1706 53.7645L38.8279 47.8752V77.367H38.8278ZM38.8278 44.2011C10.2551 30.7125 12.2525 31.827 11.5603 31.047C12.3479 30.0463 13.02 30.2642 30.2795 21.9266C31.3057 23.0553 32.0275 23.5066 32.2353 23.7072C32.7978 24.2503 32.6536 24.9414 32.6761 25.0962C29.4211 26.2261 29.9221 31.005 33.32 31.4505V32.4161C33.32 34.2253 34.792 35.6973 36.6012 35.6973H38.8278V44.2011ZM36.6014 33.3534C36.0843 33.3534 35.6639 32.933 35.6639 32.4159V31.4784H44.3359V32.4159C44.3359 32.933 43.9154 33.3534 43.3984 33.3534C41.0231 33.3534 38.9768 33.3534 36.6014 33.3534ZM41.1717 44.2011V35.6972H43.3982C45.2075 35.6972 46.6795 34.2252 46.6795 32.4159V31.4503C48.7826 31.1745 50.1425 28.925 49.2598 26.8942C48.8936 26.0511 48.1761 25.3922 47.3234 25.0962C47.3471 24.9709 47.182 24.1334 47.8917 23.5984C49.0232 22.7389 49.6482 21.9984 49.72 21.9267C68.6064 30.9395 67.7787 30.2147 68.4403 31.0458C67.6462 32.047 68.1211 31.3183 41.1717 44.2011ZM77.5536 40.1788C77.5065 40.2009 52.5425 51.9858 52.3639 52.0323C51.9518 52.1398 51.5056 52.07 51.1475 51.8264L42.6926 46.0748C70.0518 33.1662 69.0275 33.8511 70.0001 32.8234L77.5981 39.8917C77.6898 39.9772 77.6668 40.1256 77.5536 40.1788Z" fill="#5C5C5C"/>
<path d="M61.2565 10.3438H57.6218C56.9745 10.3438 56.45 10.8683 56.45 11.5156C56.45 12.163 56.9745 12.6875 57.6218 12.6875H61.2565C61.9037 12.6875 62.4284 12.1628 62.4284 11.5156C62.4284 10.8683 61.9039 10.3438 61.2565 10.3438Z" fill="#5C5C5C"/>
<path d="M60.9174 3.32767C60.654 2.73658 59.9609 2.47111 59.3699 2.73471L56.0501 4.21517C55.459 4.47877 55.1935 5.17158 55.4571 5.76267C55.7207 6.35377 56.4134 6.61924 57.0048 6.35564L60.3243 4.87517C60.9156 4.61189 61.181 3.91877 60.9174 3.32767Z" fill="#5C5C5C"/>
<path d="M60.3246 18.1408L57.0051 16.6605C56.4145 16.3969 55.721 16.6624 55.4576 17.2535C55.194 17.8445 55.4595 18.5375 56.0506 18.801L59.3701 20.2813C59.5251 20.3503 59.6873 20.3831 59.8468 20.3831C60.2953 20.3831 60.7232 20.1242 60.9176 19.6883C61.1814 19.0972 60.9157 18.4042 60.3246 18.1408Z" fill="#5C5C5C"/>
<path d="M22.3776 10.3438H18.7429C18.0956 10.3438 17.571 10.8683 17.571 11.5156C17.571 12.163 18.0956 12.6875 18.7429 12.6875H22.3776C23.025 12.6875 23.5495 12.1628 23.5495 11.5156C23.5495 10.8683 23.025 10.3438 22.3776 10.3438Z" fill="#5C5C5C"/>
<path d="M23.9497 4.21504L20.6302 2.73457C20.0399 2.47129 19.3461 2.73645 19.0827 3.32754C18.8189 3.91863 19.0845 4.6116 19.6756 4.87504C23.0816 6.35707 23.036 6.45738 23.4719 6.45738C24.7285 6.45754 25.1033 4.72942 23.9497 4.21504Z" fill="#5C5C5C"/>
<path d="M24.5426 17.2535C24.2792 16.6624 23.586 16.3969 22.9951 16.6605L19.6756 18.1408C19.0845 18.4044 18.819 19.0972 19.0826 19.6883C19.346 20.2794 20.0387 20.5449 20.6301 20.2813L23.9496 18.801C24.5407 18.5374 24.8062 17.8445 24.5426 17.2535Z" fill="#5C5C5C"/>
<path d="M70.1604 56.4609C69.513 56.4609 68.9885 56.9856 68.9885 57.6328V62.6547C68.9885 63.6212 68.4237 64.5123 67.5496 64.9247L52.0066 72.2583C50.8832 72.7883 51.2573 74.4903 52.5074 74.4903C53.0032 74.4903 52.2116 74.7077 68.5496 67.0445C70.2401 66.2467 71.3322 64.5236 71.3322 62.6545V57.6327C71.3322 56.9856 70.8076 56.4609 70.1604 56.4609Z" fill="#5C5C5C"/>
</g>
<defs>
<clipPath id="clip0_5288_31149">
<rect width="80" height="80" fill="white"/>
</clipPath>
</defs>
</svg>
