<svg width="40" height="40" viewBox="0 0 40 40" fill="none" xmlns="http://www.w3.org/2000/svg">
<rect width="40" height="40" rx="20" fill="#E09400"/>
<path d="M20 24V17M20 17H26C26.5523 17 27 16.5523 27 16V13C27 12.4477 26.5523 12 26 12H14C13.4477 12 13 12.4477 13 13V16C13 16.5523 13.4477 17 14 17H20ZM12 23.5L14.7219 21.2318C14.9016 21.082 15.1281 21 15.362 21H24.6262C24.8594 21 25.0852 21.0815 25.2647 21.2304L28 23.5M27 28H29C29.5523 28 30 27.5523 30 27V25C30 24.4477 29.5523 24 29 24H27C26.4477 24 26 24.4477 26 25V27C26 27.5523 26.4477 28 27 28ZM19 28H21C21.5523 28 22 27.5523 22 27V25C22 24.4477 21.5523 24 21 24H19C18.4477 24 18 24.4477 18 25V27C18 27.5523 18.4477 28 19 28ZM14 27V25C14 24.4477 13.5523 24 13 24H11C10.4477 24 10 24.4477 10 25V27C10 27.5523 10.4477 28 11 28H13C13.5523 28 14 27.5523 14 27Z" stroke="white" stroke-width="1.5" stroke-linecap="round" stroke-linejoin="round"/>
<path d="M15.9326 14.4605H18.9326M23.9326 14.4605H24.4326" stroke="white" stroke-linecap="round" stroke-linejoin="round"/>
</svg>
