<svg width="32" height="32" viewBox="0 0 32 32" fill="none" xmlns="http://www.w3.org/2000/svg">
<mask id="mask0_454_6132" style="mask-type:alpha" maskUnits="userSpaceOnUse" x="0" y="0" width="32" height="32">
<rect width="32" height="32" fill="#D9D9D9"/>
</mask>
<g mask="url(#mask0_454_6132)">
<path d="M14.7667 25.3333H17.2333V24H18.7667C19.1222 24 19.4111 23.8889 19.6333 23.6667C19.8778 23.4222 20 23.1222 20 22.7667V18.6667C20 18.3111 19.8778 18.0222 19.6333 17.8C19.4111 17.5556 19.1222 17.4333 18.7667 17.4333H14.4333V15.7667H20V13.3333H17.2333V12H14.7667V13.3333H13.2333C12.8778 13.3333 12.5778 13.4556 12.3333 13.7C12.1111 13.9222 12 14.2 12 14.5333V18.6667C12 19 12.1111 19.2889 12.3333 19.5333C12.5778 19.7556 12.8778 19.8667 13.2333 19.8667H17.5667V21.5333H12V24H14.7667V25.3333ZM7.76667 29.3333C7.1 29.3333 6.52222 29.1 6.03333 28.6333C5.56667 28.1444 5.33333 27.5667 5.33333 26.9V5.1C5.33333 4.43333 5.56667 3.86666 6.03333 3.4C6.52222 2.91111 7.1 2.66667 7.76667 2.66667H18.9L26.6667 10.4333V26.9C26.6667 27.5667 26.4222 28.1444 25.9333 28.6333C25.4667 29.1 24.9 29.3333 24.2333 29.3333H7.76667ZM17.4667 10.4333V5.1H7.76667V26.9H24.2333V10.4333H17.4667ZM7.76667 5.1V10.4333V5.1V10.4333V26.9V5.1Z" fill="url(#paint0_linear_454_6132)"/>
</g>
<defs>
<linearGradient id="paint0_linear_454_6132" x1="0" y1="0" x2="32" y2="32" gradientUnits="userSpaceOnUse">
<stop stop-color="white" stop-opacity="0.6"/>
<stop offset="1" stop-color="white" stop-opacity="0.1"/>
</linearGradient>
</defs>
</svg>
