<svg width="20" height="20" viewBox="0 0 20 20" fill="none" xmlns="http://www.w3.org/2000/svg">
<path d="M15.7291 17.0313H17.0312V15.7292H15.7291V17.0313ZM9.34892 17.0313H10.651V15.7292H9.34892V17.0313ZM2.96871 17.0313H4.27079V15.7292H2.96871V17.0313ZM8.04683 7.52612V6.87508H6.74475V7.52612C6.74475 7.88568 6.45327 8.17717 6.09371 8.17717C5.73415 8.17717 5.44267 7.88568 5.44267 7.52612V6.87508C4.72355 6.87508 4.14058 7.45805 4.14058 8.17717C4.14058 8.89628 4.72355 9.47925 5.44267 9.47925H14.5573C15.2764 9.47925 15.8593 8.89628 15.8593 8.17717C15.8593 7.45805 15.2764 6.87508 14.5573 6.87508H9.34892V7.52612C9.34892 7.88568 9.05744 8.17717 8.69788 8.17717C8.33832 8.17717 8.04683 7.88568 8.04683 7.52612ZM8.04683 3.61987V2.96883H6.74475V3.61987C6.74475 3.97943 6.45327 4.27091 6.09371 4.27091C5.73415 4.27091 5.44267 3.97943 5.44267 3.61987V2.96883C4.72355 2.96883 4.14058 3.5518 4.14058 4.27091C4.14058 4.99003 4.72355 5.573 5.44267 5.573H14.5573C15.2764 5.573 15.8593 4.99003 15.8593 4.27091C15.8593 3.5518 15.2764 2.96883 14.5573 2.96883H9.34892V3.61987C9.34892 3.97943 9.05744 4.27091 8.69788 4.27091C8.33832 4.27091 8.04683 3.97943 8.04683 3.61987ZM17.1614 4.27091C17.1614 5.04907 16.8195 5.74685 16.2784 6.22404C16.8195 6.70123 17.1614 7.39901 17.1614 8.17717C17.1614 9.6154 15.9955 10.7813 14.5573 10.7813H10.651V12.0834H16.3802C16.7397 12.0834 17.0312 12.3749 17.0312 12.7345V14.4272H17.6823C18.0418 14.4272 18.3333 14.7186 18.3333 15.0782V17.6824C18.3333 18.0419 18.0418 18.3334 17.6823 18.3334H15.0781C14.7185 18.3334 14.427 18.0419 14.427 17.6824V15.0782C14.427 14.7186 14.7185 14.4272 15.0781 14.4272H15.7291V13.3855H10.651V14.4272H11.302C11.6616 14.4272 11.9531 14.7186 11.9531 15.0782V17.6824C11.9531 18.0419 11.6616 18.3334 11.302 18.3334H8.69788C8.33832 18.3334 8.04683 18.0419 8.04683 17.6824V15.0782C8.04683 14.7186 8.33832 14.4272 8.69788 14.4272H9.34892V13.3855H4.27079V14.4272H4.92183C5.28139 14.4272 5.57288 14.7186 5.57288 15.0782V17.6824C5.57288 18.0419 5.28139 18.3334 4.92183 18.3334H2.31767C1.95811 18.3334 1.66663 18.0419 1.66663 17.6824V15.0782L1.67002 15.0117C1.70331 14.6834 1.98055 14.4272 2.31767 14.4272H2.96871V12.7345L2.9721 12.668C3.00539 12.3397 3.28263 12.0834 3.61975 12.0834H9.34892V10.7813H5.44267C4.00443 10.7813 2.8385 9.6154 2.8385 8.17717C2.8385 7.39919 3.17994 6.70123 3.7208 6.22404C3.17994 5.74685 2.8385 5.04889 2.8385 4.27091C2.8385 2.83268 4.00443 1.66675 5.44267 1.66675H14.5573C15.9955 1.66675 17.1614 2.83268 17.1614 4.27091Z" fill="white"/>
</svg>
