<svg xmlns="http://www.w3.org/2000/svg" width="104" height="104" viewBox="0 0 104 104" fill="none">
  <ellipse opacity="0.1" cx="52" cy="100.88" rx="52" ry="3.12" fill="#5C5C5C"/>
  <path fill-rule="evenodd" clip-rule="evenodd" d="M42.64 17.82C42.64 16.3067 43.8667 15.08 45.3799 15.08H51.0166C52.5298 15.08 53.7565 16.3067 53.7565 17.82C53.7565 19.3332 52.5298 20.5599 51.0166 20.5599H45.3799C43.8667 20.5599 42.64 19.3332 42.64 17.82ZM45.3799 17.16C45.0155 17.16 44.72 17.4555 44.72 17.82C44.72 18.1845 45.0155 18.4799 45.3799 18.4799L51.0166 18.4799C51.3811 18.4799 51.6765 18.1845 51.6765 17.82C51.6765 17.4555 51.3811 17.16 51.0166 17.16L45.3799 17.16ZM20.8 23.92C16.205 23.92 12.48 27.645 12.48 32.24V72.8C12.48 77.395 16.205 81.12 20.8 81.12H74.928C79.523 81.12 83.248 77.395 83.248 72.8V71.7267C83.5758 71.7488 83.9066 71.76 84.24 71.76C92.2812 71.76 98.8 65.2413 98.8 57.2C98.8 49.1587 92.2812 42.64 84.24 42.64C83.9066 42.64 83.5758 42.6512 83.248 42.6733V32.24C83.248 27.645 79.523 23.92 74.928 23.92H20.8ZM81.168 42.9647V38.7207H14.56V72.8C14.56 76.2463 17.3537 79.04 20.8 79.04H74.928C78.3742 79.04 81.168 76.2463 81.168 72.8V71.4353C74.602 70.0251 69.68 64.1874 69.68 57.2C69.68 50.2126 74.602 44.3749 81.168 42.9647ZM81.168 32.24V36.6407H14.56V32.24C14.56 28.7937 17.3537 26 20.8 26H74.928C78.3742 26 81.168 28.7937 81.168 32.24ZM71.76 57.2C71.76 50.3075 77.3475 44.72 84.24 44.72C91.1325 44.72 96.72 50.3075 96.72 57.2C96.72 64.0925 91.1325 69.68 84.24 69.68C77.3475 69.68 71.76 64.0925 71.76 57.2ZM81.64 50.44C81.64 49.0041 82.804 47.84 84.24 47.84C85.6759 47.84 86.84 49.0041 86.84 50.44V56.68C86.84 58.1159 85.6759 59.28 84.24 59.28C82.804 59.28 81.64 58.1159 81.64 56.68V50.44ZM84.24 49.92C83.9528 49.92 83.72 50.1528 83.72 50.44V56.68C83.72 56.9672 83.9528 57.2 84.24 57.2C84.5272 57.2 84.76 56.9672 84.76 56.68V50.44C84.76 50.1528 84.5272 49.92 84.24 49.92ZM84.24 66.56C82.804 66.56 81.64 65.3959 81.64 63.96C81.64 62.5241 82.804 61.36 84.24 61.36C85.6759 61.36 86.84 62.5241 86.84 63.96C86.84 65.3959 85.6759 66.56 84.24 66.56ZM83.72 63.96C83.72 64.2472 83.9528 64.48 84.24 64.48C84.5272 64.48 84.76 64.2472 84.76 63.96C84.76 63.6728 84.5272 63.44 84.24 63.44C83.9528 63.44 83.72 63.6728 83.72 63.96ZM22.36 34.32C23.7959 34.32 24.96 33.1559 24.96 31.72C24.96 30.2841 23.7959 29.12 22.36 29.12C20.924 29.12 19.76 30.2841 19.76 31.72C19.76 33.1559 20.924 34.32 22.36 34.32ZM32.24 31.72C32.24 33.1559 31.0759 34.32 29.64 34.32C28.204 34.32 27.04 33.1559 27.04 31.72C27.04 30.2841 28.204 29.12 29.64 29.12C31.0759 29.12 32.24 30.2841 32.24 31.72ZM19.76 49.4C19.76 47.9641 20.924 46.8 22.36 46.8H37.96C39.3959 46.8 40.56 47.9641 40.56 49.4C40.56 50.8359 39.3959 52 37.96 52H22.36C20.924 52 19.76 50.8359 19.76 49.4ZM19.76 57.72C19.76 56.2841 20.924 55.12 22.36 55.12H53.56C54.9959 55.12 56.16 56.2841 56.16 57.72C56.16 59.1559 54.9959 60.32 53.56 60.32H22.36C20.924 60.32 19.76 59.1559 19.76 57.72ZM19.76 66.04C19.76 64.6041 20.924 63.44 22.36 63.44H53.56C54.9959 63.44 56.16 64.6041 56.16 66.04C56.16 67.4759 54.9959 68.64 53.56 68.64H22.36C20.924 68.64 19.76 67.4759 19.76 66.04Z" fill="#8F8F8F"/>
  <rect x="67.6666" y="41.6179" width="34.7502" height="32.8667" fill="#1B1B1B"/>
  <path d="M94.9434 57.4172C94.9434 61.0343 93.5065 64.5033 90.9488 67.061C88.3911 69.6187 84.9221 71.0556 81.305 71.0556C77.6879 71.0556 74.2189 69.6187 71.6612 67.061C69.1035 64.5033 67.6666 61.0343 67.6666 57.4172C67.6666 53.8001 69.1035 50.3311 71.6612 47.7734C74.2189 45.2157 77.6879 43.7788 81.305 43.7788C84.9221 43.7788 88.3911 45.2157 90.9488 47.7734C93.5065 50.3311 94.9434 53.8001 94.9434 57.4172ZM91.5338 57.4172C91.5338 55.2935 90.8729 53.2224 89.6426 51.4913L75.3791 65.7548C76.9094 66.8424 78.7094 67.488 80.5821 67.6206C82.4548 67.7533 84.3279 67.368 85.9962 66.507C87.6645 65.646 89.0637 64.3424 90.0404 62.7391C91.0172 61.1358 91.5338 59.2946 91.5338 57.4172ZM87.2309 49.0796C85.2606 47.679 82.858 47.0214 80.4491 47.2235C78.0402 47.4256 75.7808 48.4743 74.0714 50.1837C72.3621 51.893 71.3134 54.1525 71.1113 56.5613C70.9092 58.9702 71.5668 61.3729 72.9674 63.3431L87.2309 49.0796Z" fill="#8F8F8F"/>
</svg>