<svg xmlns="http://www.w3.org/2000/svg" width="20" height="20" viewBox="0 0 20 20" fill="none">
  <path
    d="M18.3333 9.99984C18.3333 5.39746 14.6023 1.6665 9.99996 1.6665C7.48671 1.6665 5.23331 2.77908 3.70543 4.53857L1.66663 2.49984V7.49984H6.66663L4.88739 5.72103C6.11032 4.26136 7.94674 3.33317 9.99996 3.33317C13.6819 3.33317 16.6666 6.31794 16.6666 9.99984C16.6666 13.6818 13.6819 16.6665 9.99996 16.6665C6.31806 16.6665 3.33329 13.6818 3.33329 9.99984H1.66663C1.66663 14.6022 5.39758 18.3332 9.99996 18.3332C14.6023 18.3332 18.3333 14.6022 18.3333 9.99984ZM12.0833 8.33317V7.08317H7.91663V10.6248H10.5208C10.8085 10.6248 11.0416 10.858 11.0416 11.1457C11.0416 11.4333 10.8085 11.6665 10.5208 11.6665H7.91663V12.9165H10.5208C11.4988 12.9165 12.2916 12.1237 12.2916 11.1457C12.2916 10.1677 11.4988 9.37484 10.5208 9.37484H9.16663V8.33317H12.0833Z"
    fill="currentColor"
  />
</svg>
