<svg width="24" height="24" viewBox="0 0 24 24" fill="none" xmlns="http://www.w3.org/2000/svg">
    <g id="Group 107779">
      <path
        id="REQUESTLY"
        d="M10.6008 14.0028V17.4513C10.4772 17.4872 10.2805 17.5231 10.0107 17.5591C9.75216 17.595 9.49362 17.6129 9.23509 17.6129C8.97655 17.6129 8.74611 17.589 8.54378 17.5411C8.35268 17.5052 8.18969 17.4333 8.0548 17.3256C7.93115 17.2178 7.8356 17.0681 7.76816 16.8766C7.70071 16.685 7.66699 16.4335 7.66699 16.1222V7.6626C7.66699 7.41115 7.72882 7.21957 7.85247 7.08785C7.98736 6.94417 8.16721 6.83042 8.39202 6.7466C8.77421 6.60291 9.21822 6.50113 9.72406 6.44126C10.2299 6.36942 10.7695 6.3335 11.3427 6.3335C12.894 6.3335 14.063 6.68074 14.8499 7.37523C15.6367 8.06972 16.0302 9.00967 16.0302 10.1951C16.0302 10.9375 15.8503 11.5721 15.4906 12.0989C15.1309 12.6258 14.7037 13.0329 14.2091 13.3203C14.6138 13.907 15.0129 14.4578 15.4063 14.9727C15.7997 15.4876 16.1088 15.9546 16.3337 16.3736C16.2213 16.7927 16.0133 17.116 15.7098 17.3435C15.4175 17.5591 15.0859 17.6668 14.715 17.6668C14.4677 17.6668 14.2541 17.6369 14.0743 17.577C13.8944 17.5172 13.737 17.4333 13.6021 17.3256C13.4673 17.2178 13.3436 17.0861 13.2312 16.9304C13.1188 16.7748 13.012 16.6071 12.9108 16.4275L11.4945 14.0028H10.6008ZM11.6631 11.614C12.0903 11.614 12.4275 11.5003 12.6748 11.2727C12.9221 11.0333 13.0457 10.686 13.0457 10.231C13.0457 9.776 12.9052 9.43475 12.6242 9.20724C12.3544 8.96776 11.9216 8.84802 11.3259 8.84802C11.1573 8.84802 11.0224 8.85401 10.9212 8.86598C10.82 8.87796 10.7076 8.89592 10.584 8.91987V11.614H11.6631Z"
        fill="white"
      />
      <path
        id="Vector"
        fill-rule="evenodd"
        clip-rule="evenodd"
        d="M5.00934 21.8862C5.00934 21.5845 5.25355 21.3399 5.55481 21.3399H20.2148C21.7988 21.3399 23.0779 20.0599 23.0779 18.4814V13.4355C23.0779 13.1338 22.8337 12.8892 22.5325 12.8892H21.9188H21.3393C21.038 12.8892 20.7938 13.1338 20.7938 13.4355V17.9084C20.7938 18.5443 20.2844 19.0522 19.6563 19.0522H5.55481C5.25356 19.0522 5.00934 18.8076 5.00934 18.5059V16.9396C5.00934 16.4529 4.42179 16.2092 4.07817 16.5533L0.826756 19.8097C0.613738 20.0231 0.613737 20.369 0.826756 20.5823L4.07817 23.8388C4.42179 24.1829 5.00934 23.9392 5.00934 23.4525V21.8862Z"
        fill="white"
      />
      <path
        id="Vector_2"
        fill-rule="evenodd"
        clip-rule="evenodd"
        d="M18.7807 2.11382C18.7807 2.41554 18.5365 2.66013 18.2352 2.66013H3.57526C1.9912 2.66013 0.712093 3.94008 0.712093 5.51857V10.5645C0.712093 10.8662 0.956308 11.1108 1.25756 11.1108H1.87121H2.45077C2.75202 11.1108 2.99624 10.8662 2.99624 10.5645V6.09163C2.99624 5.45566 3.50561 4.9478 4.13375 4.9478H18.2352C18.5365 4.9478 18.7807 5.19239 18.7807 5.49411V7.06039C18.7807 7.5471 19.3682 7.79085 19.7119 7.44669L22.9633 4.19026C23.1763 3.97692 23.1763 3.63101 22.9633 3.41767L19.7119 0.161238C19.3682 -0.182918 18.7807 0.0608263 18.7807 0.547535V2.11382Z"
        fill="white"
      />
    </g>
  </svg>
