
<svg width="251" height="251" viewBox="0 0 251 251" fill="none" xmlns="http://www.w3.org/2000/svg">
<path d="M124.408 245.868V188.238C104.504 188.529 82.7544 186.943 60.1611 182.339L60.0545 182.235V216.575C60.0545 223.437 60.7942 228.978 62.2736 233.201C63.7529 237.423 65.8487 240.722 68.5609 243.097C71.5197 245.472 75.0949 247.055 79.2864 247.847C83.7246 248.903 88.7791 249.43 94.4501 249.43C100.121 249.43 105.792 249.035 111.463 248.243C117.381 247.451 121.695 246.66 124.408 245.868Z" fill="white"/>
<path d="M124.408 169.866H127.147C152.451 169.356 180.05 165.599 203.571 154.848L203.554 154.824C214.403 148.49 223.773 139.518 231.663 127.906C239.553 116.295 243.498 102.308 243.498 85.9467C243.498 59.821 234.868 39.1052 217.609 23.7992C200.349 8.4932 174.707 0.84021 140.681 0.84021C128.106 0.84021 116.271 1.6319 105.176 3.21527C94.0803 4.53475 84.341 6.77789 75.9578 9.94465C71.0266 11.7919 67.0816 14.2989 64.1228 17.4657C61.4106 20.3685 60.0545 24.5909 60.0545 30.1327V96.5095C71.3817 98.242 114.382 101.954 124.038 101.543V57.8418C126.75 57.314 129.216 56.9182 131.435 56.6543C133.654 56.3904 136.612 56.2584 140.311 56.2584C153.379 56.2584 162.871 58.8974 168.789 64.1753C174.953 69.1893 178.035 76.7103 178.035 86.7384C178.035 96.7664 175.323 104.419 169.899 109.697C164.474 114.711 157.077 117.218 147.708 117.218H124.038V117.008C123.974 117.109 123.915 117.21 123.861 117.313C87.9797 115.588 66.1922 114.066 60.0404 113.204L60.0399 113.194L42.9936 111.502C41.4373 111.348 40.2998 109.961 40.4529 108.404L41.3754 99.0229C41.6423 96.3086 38.2948 94.8199 36.4615 96.8375L0.888601 135.986C-0.0859492 137.058 -0.0924867 138.694 0.873451 139.776L29.4492 171.786C31.0921 173.627 34.1369 172.635 34.3782 170.181L35.0406 163.445C35.2015 161.809 36.7162 160.655 38.336 160.934L60.0545 164.671V164.802L60.1611 164.695C73.4489 166.933 97.4782 170.207 124.408 169.908V169.866Z" fill="white"/>
<path d="M175.076 223.305L153.644 186.439C181.486 183.412 203.494 177.208 215.783 172.246C220.496 178.807 225.172 185.139 229.813 191.241C238.443 202.589 245.224 212.881 250.155 222.117C247.689 231.354 243.128 238.479 236.471 243.493C230.06 248.243 222.786 250.618 214.65 250.618C209.225 250.618 204.541 249.958 200.596 248.639C196.651 247.319 193.199 245.472 190.24 243.097C187.281 240.722 184.569 237.819 182.103 234.388C179.638 230.958 177.295 227.263 175.076 223.305Z" fill="white"/>
</svg>
