<svg xmlns="http://www.w3.org/2000/svg" width="16" height="16" viewBox="0 0 16 16" fill="none">
  <path
    d="M2.22631 11.3336C1.93814 10.8345 1.72185 10.3136 1.57422 9.7829C2.22253 9.4521 2.66648 8.77803 2.66648 8.0003C2.66648 7.22316 2.2232 6.5495 1.57569 6.21844C1.8735 5.1445 2.43905 4.14434 3.24316 3.32684C3.8538 3.72293 4.65957 3.77039 5.33315 3.3815C6.00673 2.9926 6.36851 2.27106 6.3308 1.54419C7.44087 1.25656 8.5898 1.26686 9.66873 1.54591C9.63167 2.2722 9.9934 2.99291 10.6665 3.3815C11.3401 3.77038 12.1458 3.72294 12.7564 3.32688C13.1422 3.72007 13.4851 4.16783 13.7733 4.66697C14.0615 5.1661 14.2778 5.687 14.4254 6.21768C13.7771 6.54848 13.3331 7.22256 13.3331 8.0003C13.3331 8.7775 13.7764 9.4511 14.4239 9.78216C14.1261 10.8561 13.5606 11.8562 12.7565 12.6738C12.1458 12.2777 11.3401 12.2302 10.6665 12.6191C9.99287 13.008 9.63113 13.7296 9.6688 14.4564C8.5588 14.744 7.40987 14.7338 6.33089 14.4547C6.36794 13.7284 6.00619 13.0077 5.33315 12.6191C4.65959 12.2302 3.85386 12.2776 3.24323 12.6737C2.85745 12.2805 2.51448 11.8328 2.22631 11.3336ZM5.99981 11.4644C6.7274 11.8845 7.24993 12.5486 7.5002 13.3108C7.8324 13.3424 8.1668 13.3428 8.49907 13.3118C8.7492 12.5493 9.27187 11.8847 9.9998 11.4644C10.7277 11.0441 11.5647 10.9238 12.3501 11.0884C12.5431 10.8162 12.7099 10.5263 12.8486 10.2228C12.3137 9.62503 11.9998 8.84043 11.9998 8.0003C11.9998 7.16016 12.3137 6.37563 12.8486 5.77783C12.7792 5.62716 12.7025 5.47898 12.6186 5.33364C12.5347 5.18829 12.4447 5.04782 12.3489 4.91244C11.5638 5.07667 10.7274 4.95626 9.9998 4.5362C9.2722 4.11613 8.74973 3.45195 8.4994 2.68986C8.16727 2.65826 7.8328 2.6578 7.5006 2.68878C7.2504 3.4513 6.72773 4.11592 5.99981 4.5362C5.27187 4.95648 4.43497 5.07679 3.64952 4.91218C3.45657 5.18444 3.28975 5.47428 3.15104 5.77774C3.68587 6.37557 3.99981 7.16016 3.99981 8.0003C3.99981 8.84043 3.68589 9.62496 3.15104 10.2228C3.22045 10.3734 3.29709 10.5216 3.38101 10.667C3.46493 10.8123 3.55493 10.9528 3.65075 11.0882C4.43585 10.924 5.27225 11.0444 5.99981 11.4644ZM7.9998 10.0003C6.89527 10.0003 5.99981 9.1049 5.99981 8.0003C5.99981 6.89576 6.89527 6.0003 7.9998 6.0003C9.1044 6.0003 9.9998 6.89576 9.9998 8.0003C9.9998 9.1049 9.1044 10.0003 7.9998 10.0003ZM7.9998 8.66696C8.368 8.66696 8.66647 8.36849 8.66647 8.0003C8.66647 7.6321 8.368 7.33363 7.9998 7.33363C7.6316 7.33363 7.33313 7.6321 7.33313 8.0003C7.33313 8.36849 7.6316 8.66696 7.9998 8.66696Z"
    fill="currentColor"
  />
</svg>
