<svg xmlns="http://www.w3.org/2000/svg" width="16" height="16" viewBox="0 0 16 16" fill="none">
  <path
    d="M8 0.666504L13.4779 1.88382C13.783 1.95161 14 2.22215 14 2.53462V9.19244C14 10.5298 13.3316 11.7788 12.2188 12.5206L8 15.3332L3.7812 12.5206C2.66841 11.7788 2 10.5298 2 9.19244V2.53462C2 2.22215 2.21702 1.95161 2.52205 1.88382L8 0.666504ZM8 2.03236L3.33333 3.0694V9.19244C3.33333 10.084 3.77893 10.9166 4.5208 11.4112L8 13.7307L11.4792 11.4112C12.2211 10.9166 12.6667 10.084 12.6667 9.19244V3.0694L8 2.03236ZM10.9683 5.48106L11.9111 6.42386L7.6684 10.6665L4.83999 7.8381L5.78281 6.89524L7.66793 8.78044L10.9683 5.48106Z"
    fill="currentColor"
  />
</svg>
