 <svg
    width="18"
    height="12"
    viewBox="0 0 18 12"
    fill="none"
    xmlns="http://www.w3.org/2000/svg"
    >
    <path
        d="M16.9167 1.08073C16.6667 0.914062 16.3334 0.914062 16.0834 1.08073L12.4167 3.58073V1.83073C12.4167 0.914062 11.6667 0.164062 10.7501 0.164062H2.33341C1.41675 0.164062 0.666748 0.914062 0.666748 1.83073V10.1641C0.666748 11.0807 1.41675 11.8307 2.33341 11.8307H10.6667C11.5834 11.8307 12.3334 11.0807 12.3334 10.1641V8.41406L16.0001 10.9141C16.1667 10.9974 16.3334 11.0807 16.5001 11.0807C16.6667 11.0807 16.7501 11.0807 16.9167 10.9974C17.1667 10.8307 17.3334 10.5807 17.3334 10.2474V1.83073C17.3334 1.4974 17.1667 1.2474 16.9167 1.08073ZM10.6667 10.1641H2.33341V1.83073H10.6667V5.16406V6.83073V10.1641ZM15.6667 8.58073L12.3334 6.33073V5.58073L15.6667 3.33073V8.58073Z"
        fill="#FFFFFF"
    />
</svg>
