<svg width="16" height="13" viewBox="0 0 16 13" fill="none" xmlns="http://www.w3.org/2000/svg">
<path d="M10.6167 6.91667L9.58333 5.88333C9.62778 5.46111 9.5 5.1 9.2 4.8C8.9 4.48889 8.53889 4.35556 8.11667 4.4L7.08333 3.36667C7.22778 3.31111 7.37778 3.27222 7.53333 3.25C7.68889 3.21667 7.84444 3.2 8 3.2C8.77778 3.2 9.43889 3.47222 9.98333 4.01667C10.5278 4.56111 10.8 5.22222 10.8 6C10.8 6.15556 10.7833 6.31111 10.75 6.46667C10.7278 6.62222 10.6833 6.77222 10.6167 6.91667ZM12.8333 9.13333L11.9667 8.26667C12.3667 7.95556 12.7278 7.61667 13.05 7.25C13.3833 6.87222 13.6611 6.45556 13.8833 6C13.3389 4.87778 12.5333 4 11.4667 3.36667C10.4111 2.72222 9.25556 2.4 8 2.4C7.71111 2.4 7.42778 2.41667 7.15 2.45C6.87222 2.48333 6.6 2.53889 6.33333 2.61667L5.36667 1.65C5.78889 1.48333 6.21667 1.36667 6.65 1.3C7.09444 1.23333 7.54444 1.2 8 1.2C9.58889 1.2 11.0389 1.63333 12.35 2.5C13.6722 3.35556 14.6222 4.52222 15.2 6C14.9556 6.63333 14.6278 7.21111 14.2167 7.73333C13.8167 8.24444 13.3556 8.71111 12.8333 9.13333ZM12.8 12.5L10.6333 10.3333C10.2111 10.4889 9.77778 10.6056 9.33333 10.6833C8.9 10.7611 8.45556 10.8 8 10.8C6.41111 10.8 4.95556 10.3722 3.63333 9.51667C2.32222 8.65 1.37778 7.47778 0.800001 6C1.04444 5.36667 1.36667 4.78889 1.76667 4.26667C2.16667 3.74444 2.63333 3.27222 3.16667 2.85L1.5 1.18333L2.35 0.333334L13.65 11.65L12.8 12.5ZM4.01667 3.71667C3.62778 4.02778 3.26667 4.37222 2.93333 4.75C2.6 5.11667 2.32778 5.53333 2.11667 6C2.66111 7.12222 3.46111 8.00556 4.51667 8.65C5.58333 9.28333 6.74444 9.6 8 9.6C8.28889 9.6 8.57222 9.58333 8.85 9.55C9.12778 9.50556 9.40556 9.45 9.68333 9.38333L8.93333 8.63333C8.77778 8.68889 8.62222 8.73333 8.46667 8.76667C8.31111 8.78889 8.15556 8.8 8 8.8C7.22222 8.8 6.56111 8.52778 6.01667 7.98333C5.47222 7.43889 5.2 6.77778 5.2 6C5.2 5.84444 5.21667 5.68889 5.25 5.53333C5.29445 5.37778 5.33333 5.22222 5.36667 5.06667L4.01667 3.71667Z" fill="white"/>
</svg>
