<svg width="120" height="120" viewBox="0 0 120 120" fill="none" xmlns="http://www.w3.org/2000/svg">
<ellipse opacity="0.1" cx="59.9999" cy="116.4" rx="59.9999" ry="3.59999" fill="#BCBCBC"/>
<path fill-rule="evenodd" clip-rule="evenodd" d="M23.6949 19.7055C22.8905 18.1558 20.9821 17.5516 19.4324 18.356C17.8827 19.1604 17.2785 21.0688 18.0829 22.6185L21.0791 28.391C21.8835 29.9407 23.7919 30.5449 25.3416 29.7405C26.8914 28.9361 27.4956 27.0277 26.6912 25.478L23.6949 19.7055ZM20.5381 20.4862C20.9113 20.2924 21.371 20.4379 21.5648 20.8112L24.561 26.5837C24.7548 26.957 24.6092 27.4166 24.236 27.6104C23.8627 27.8041 23.403 27.6586 23.2093 27.2853L20.213 21.5129C20.0193 21.1396 20.1648 20.6799 20.5381 20.4862ZM31.6345 33.5038C27.6581 33.5038 24.4345 36.7273 24.4345 40.7038V91.2278C24.4345 95.2042 27.658 98.4278 31.6345 98.4278H79.6344C83.6108 98.4278 86.8344 95.2042 86.8344 91.2278V83.4351C81.8129 80.5303 78.4344 75.101 78.4344 68.8826C78.4344 62.6643 81.8129 57.235 86.8344 54.3302V40.7038C86.8344 36.7273 83.6108 33.5038 79.6344 33.5038H74.7104V35.3241C74.7104 38.6378 72.0241 41.3241 68.7104 41.3241H44.9587C41.645 41.3241 38.9587 38.6378 38.9587 35.3241V33.5038H31.6345ZM89.2344 53.1858V40.7038C89.2344 35.4019 84.9363 31.1038 79.6344 31.1038H63.8612C63.0462 27.9845 60.2092 25.6827 56.8345 25.6827C53.4599 25.6827 50.6228 27.9845 49.8079 31.1038H31.6345C26.3326 31.1038 22.0345 35.4019 22.0345 40.7038V91.2278C22.0345 96.5297 26.3326 100.828 31.6345 100.828H79.6344C84.9363 100.828 89.2344 96.5297 89.2344 91.2278V84.5795C91.0977 85.2922 93.1205 85.6826 95.2344 85.6826C104.513 85.6826 112.034 78.161 112.034 68.8826C112.034 59.6043 104.513 52.0827 95.2344 52.0827C93.1205 52.0827 91.0977 52.4731 89.2344 53.1858ZM8.73419 29.1362C9.51513 27.5745 11.4142 26.9416 12.9759 27.7225L18.7929 30.6314C20.3545 31.4123 20.9874 33.3114 20.2065 34.8731C19.4256 36.4347 17.5265 37.0676 15.9648 36.2867L10.1478 33.3778C8.58616 32.5969 7.95326 30.6978 8.73419 29.1362ZM11.9024 29.8691C11.5263 29.681 11.0689 29.8334 10.8808 30.2096C10.6927 30.5857 10.8451 31.0432 11.2213 31.2313L17.0383 34.1401C17.4144 34.3282 17.8718 34.1758 18.0599 33.7996C18.248 33.4235 18.0956 32.966 17.7194 32.7779L11.9024 29.8691ZM50.0481 57.6479C50.0481 55.991 51.3913 54.6479 53.0481 54.6479H73.4481C75.1049 54.6479 76.4481 55.991 76.4481 57.6479C76.4481 59.3047 75.1049 60.6479 73.4481 60.6479H53.0481C51.3913 60.6479 50.0481 59.3047 50.0481 57.6479ZM53.0481 68.6963C51.3913 68.6963 50.0481 70.0394 50.0481 71.6963C50.0481 73.3531 51.3913 74.6963 53.0481 74.6963H73.4481C75.1049 74.6963 76.4481 73.3531 76.4481 71.6963C76.4481 70.0394 75.1049 68.6963 73.4481 68.6963H53.0481ZM52.4481 71.6963C52.4481 71.3649 52.7167 71.0963 53.0481 71.0963H73.4481C73.7794 71.0963 74.0481 71.3649 74.0481 71.6963C74.0481 72.0277 73.7794 72.2963 73.4481 72.2963H53.0481C52.7167 72.2963 52.4481 72.0277 52.4481 71.6963ZM50.0481 86.3857C50.0481 84.7289 51.3913 83.3857 53.0481 83.3857H73.4481C75.1049 83.3857 76.4481 84.7289 76.4481 86.3857C76.4481 88.0426 75.1049 89.3857 73.4481 89.3857H53.0481C51.3913 89.3857 50.0481 88.0426 50.0481 86.3857ZM53.0481 85.7857C52.7167 85.7857 52.4481 86.0543 52.4481 86.3857C52.4481 86.7171 52.7167 86.9857 53.0481 86.9857H73.4481C73.7794 86.9857 74.0481 86.7171 74.0481 86.3857C74.0481 86.0543 73.7794 85.7857 73.4481 85.7857H53.0481ZM36.6407 56.5721C36.6407 54.5839 38.2525 52.9721 40.2407 52.9721H42.1442C44.1324 52.9721 45.7442 54.5839 45.7442 56.5721V58.4755C45.7442 60.4638 44.1324 62.0755 42.1442 62.0755H40.2407C38.2525 62.0755 36.6407 60.4638 36.6407 58.4755V56.5721ZM40.2407 67.0205C38.2525 67.0205 36.6407 68.6323 36.6407 70.6205V72.524C36.6407 74.5122 38.2525 76.124 40.2407 76.124H42.1442C44.1324 76.124 45.7442 74.5122 45.7442 72.524V70.6205C45.7442 68.6323 44.1324 67.0205 42.1442 67.0205H40.2407ZM39.0407 70.6205C39.0407 69.9578 39.578 69.4205 40.2407 69.4205H42.1442C42.8069 69.4205 43.3442 69.9578 43.3442 70.6205V72.524C43.3442 73.1867 42.8069 73.724 42.1442 73.724H40.2407C39.578 73.724 39.0407 73.1867 39.0407 72.524V70.6205ZM36.6407 85.3099C36.6407 83.3217 38.2525 81.7099 40.2407 81.7099H42.1442C44.1324 81.7099 45.7442 83.3217 45.7442 85.3099V87.2134C45.7442 89.2016 44.1324 90.8134 42.1442 90.8134H40.2407C38.2525 90.8134 36.6407 89.2016 36.6407 87.2134V85.3099ZM40.2407 84.1099C39.578 84.1099 39.0407 84.6472 39.0407 85.3099V87.2134C39.0407 87.8761 39.578 88.4134 40.2407 88.4134H42.1442C42.8069 88.4134 43.3442 87.8761 43.3442 87.2134V85.3099C43.3442 84.6472 42.8069 84.1099 42.1442 84.1099H40.2407ZM80.8344 68.8826C80.8344 60.9297 87.2815 54.4827 95.2344 54.4827C103.187 54.4827 109.634 60.9297 109.634 68.8826C109.634 76.8355 103.187 83.2826 95.2344 83.2826C87.2815 83.2826 80.8344 76.8355 80.8344 68.8826ZM92.2344 61.0826C92.2344 59.4258 93.5775 58.0826 95.2344 58.0826C96.8912 58.0826 98.2344 59.4258 98.2344 61.0826V68.2826C98.2344 69.9395 96.8912 71.2826 95.2344 71.2826C93.5775 71.2826 92.2344 69.9395 92.2344 68.2826V61.0826ZM95.2344 60.4826C94.903 60.4826 94.6344 60.7513 94.6344 61.0826V68.2826C94.6344 68.614 94.903 68.8826 95.2344 68.8826C95.5657 68.8826 95.8344 68.614 95.8344 68.2826V61.0826C95.8344 60.7513 95.5657 60.4826 95.2344 60.4826ZM95.2344 79.6826C93.5775 79.6826 92.2344 78.3395 92.2344 76.6826C92.2344 75.0258 93.5775 73.6826 95.2344 73.6826C96.8912 73.6826 98.2344 75.0258 98.2344 76.6826C98.2344 78.3395 96.8912 79.6826 95.2344 79.6826ZM94.6344 76.6826C94.6344 77.014 94.903 77.2826 95.2344 77.2826C95.5657 77.2826 95.8344 77.014 95.8344 76.6826C95.8344 76.3512 95.5657 76.0826 95.2344 76.0826C94.903 76.0826 94.6344 76.3512 94.6344 76.6826Z" fill="#BCBCBC"/>
</svg>
