<svg
    width="38"
    height="38"
    viewBox="0 0 38 38"
    fill="none"
    xmlns="http://www.w3.org/2000/svg"
    >
    <path
        d="M37.9415 17.4781L37.9781 18.6496L37.9415 19.8178L37.8316 20.9813L37.6467 22.1345L37.3899 23.2764L37.0651 24.3995L36.6685 25.5011L36.202 26.5711L35.6702 27.6126L35.0718 28.6208L34.4152 29.589L33.6952 30.5108L32.9218 31.389L32.0934 32.214L31.2134 32.9875L30.2884 33.7041L29.3198 34.3593L28.3116 34.9577L27.2664 35.4861L26.1916 35.9512L25.0882 36.3478L23.965 36.6726L22.8199 36.9275L21.6634 37.1125L20.4967 37.2223L19.3233 37.2593L18.1533 37.2223L16.9866 37.1125L15.8301 36.9275L14.6849 36.6726L13.5618 36.3478L12.4584 35.9512L11.3835 35.4861L10.3384 34.9577L9.3302 34.3593L8.36195 33.7041L7.4369 32.9875L6.55689 32.214L5.72853 31.389L4.95509 30.5108L4.23512 29.589L3.5785 28.6208L2.98011 27.6126L2.44837 26.5711L1.98182 25.5011L1.58668 24.3995L1.26002 23.2764L1.0033 22.1345L0.818361 20.9813L0.708496 19.8178L0.671875 18.6496L0.708496 17.4781L0.818361 16.3165L1.0033 15.1633L1.26002 14.0214L1.58668 12.8983L1.98182 11.7967L2.44837 10.7251L2.98011 9.68507L3.5785 8.67688L4.23512 7.70863L4.95509 6.78541L5.72853 5.90869L6.55689 5.08362L7.4369 4.30872L8.36195 3.59388L9.3302 2.93726L10.3384 2.33887L11.3835 1.81226L12.4584 1.34718L13.5618 0.948739L14.6849 0.625377L15.8301 0.370489L16.9866 0.185549L18.1533 0.0756829L19.3233 0.0390625L20.4967 0.0756829L21.6634 0.185549L22.8199 0.370489L23.965 0.625377L25.0882 0.948739L26.1916 1.34718L27.2664 1.81226L28.3116 2.33887L29.3198 2.93726L30.2884 3.59388L31.2134 4.30872L32.0934 5.08362L32.9218 5.90869L33.6952 6.78541L34.4152 7.70863L35.0718 8.67688L35.6702 9.68507L36.202 10.7251L36.6685 11.7967L37.0651 12.8983L37.3899 14.0214L37.6467 15.1633L37.8316 16.3165L37.9415 17.4781ZM29.0967 13.3784L29.0733 13.0785L29.003 12.7834L28.8865 12.5032L28.7283 12.2465L28.5335 12.0147L28.3017 11.8213L28.0435 11.6631L27.7633 11.5481L27.47 11.4749L27.1682 11.4514L26.8683 11.4749L26.5717 11.5481L26.2915 11.6631L26.0334 11.8213L25.8048 12.0147L25.6063 12.2465L25.4481 12.5032L25.3332 12.7834L25.2614 13.0785L25.2379 13.3784L25.2614 13.6784L25.3332 13.9735L25.4481 14.2519L25.6063 14.51L25.8048 14.7385L26.0334 14.9352L26.2915 15.0934L26.5717 15.2084L26.8683 15.2783L27.1682 15.3033L27.47 15.2783L27.7633 15.2084L28.0435 15.0934L28.3017 14.9352L28.5335 14.7385L28.7283 14.51L28.8865 14.2519L29.003 13.9735L29.0733 13.6784L29.0967 13.3784ZM25.2317 27.0181L25.2167 26.5966L25.1716 26.1784L25.0951 25.765L24.9918 25.3585L24.86 24.9586L24.6985 24.5685L24.5099 24.1935L24.2931 23.8317L24.0532 23.4849L23.7881 23.1583L23.5013 22.8517L23.1915 22.5635L22.8649 22.2984L22.5181 22.0585L22.1562 21.8436L21.7776 21.6553L21.3876 21.4953L20.9891 21.3635L20.5808 21.2584L20.164 21.1851L19.7458 21.1401L19.3225 21.1232L18.9025 21.1401L18.4857 21.1851L18.0675 21.2584L17.6592 21.3635L17.2607 21.4953L16.8707 21.6553L16.4924 21.8436L16.1306 22.0585L15.7838 22.2984L15.4571 22.5635L15.1469 22.8517L14.8602 23.1583L14.5951 23.4849L14.3552 23.8317L14.1384 24.1935L13.9502 24.5685L13.7887 24.9586L13.6568 25.3585L13.5536 25.765L13.477 26.1784L13.432 26.5966L13.417 27.0181L13.432 27.4363L13.477 27.8564L13.5536 28.268L13.6568 28.6782L13.7887 29.0766L13.9502 29.4648L14.1384 29.8416L14.3552 30.2016L14.5951 30.5484L14.8602 30.8769L15.1469 31.1838L15.4571 31.472L15.7838 31.7353L16.1306 31.9751L16.4924 32.1901L16.8707 32.3783L17.2607 32.5398L17.6592 32.6698L18.0675 32.7764L18.4857 32.8482L18.9025 32.8947L19.3225 32.9097L19.7458 32.8947L20.164 32.8482L20.5808 32.7764L20.9891 32.6698L21.3876 32.5398L21.7776 32.3783L22.1562 32.1901L22.5181 31.9751L22.8649 31.7353L23.1915 31.472L23.5013 31.1838L23.7881 30.8769L24.0532 30.5484L24.2931 30.2016L24.5099 29.8416L24.6985 29.4648L24.86 29.0766L24.9918 28.6782L25.0951 28.268L25.1716 27.8564L25.2167 27.4363L25.2317 27.0181ZM13.4117 13.3784L13.3882 13.0785L13.3183 12.7834L13.2015 12.5032L13.0433 12.2465L12.8448 12.0147L12.6163 11.8213L12.3581 11.6631L12.0779 11.5481L11.7828 11.4749L11.481 11.4514L11.1793 11.4749L10.8859 11.5481L10.6058 11.6631L10.3476 11.8213L10.1158 12.0147L9.92095 12.2465L9.76275 12.5032L9.64776 12.7834L9.57598 13.0785L9.55254 13.3784L9.57598 13.6784L9.64776 13.9735L9.76275 14.2519L9.92095 14.51L10.1158 14.7385L10.3476 14.9352L10.6058 15.0934L10.8859 15.2084L11.1793 15.2783L11.481 15.3033L11.7828 15.2783L12.0779 15.2084L12.3581 15.0934L12.6163 14.9352L12.8448 14.7385L13.0433 14.51L13.2015 14.2519L13.3183 13.9735L13.3882 13.6784L13.4117 13.3784Z"
        fill="#B0B0B5"
    />
</svg>