<svg width="15" height="19" viewBox="0 0 15 19" fill="none" xmlns="http://www.w3.org/2000/svg">
<path fill-rule="evenodd" clip-rule="evenodd" d="M6.35997 4.87853C6.37186 4.89267 9.01861 12.0176 9.01606 12.0115H7.2814C7.2814 11.9896 6.45979 9.68861 6.46838 9.67658H4.59833C4.61522 9.68259 6.3862 4.8547 6.35997 4.87853ZM0.722656 0.503178H4.78798C4.79977 0.500172 0.749641 12.0107 0.736149 11.9957C0.736243 11.9796 0.726902 0.495049 0.722656 0.503178ZM7.8828 0.503178H12.0866L12.0837 12.0018C12.0862 12.0388 7.8828 0.503178 7.8828 0.503178Z" fill="#555963"/>
<path fill-rule="evenodd" clip-rule="evenodd" d="M2.37346 13.8117L3.27659 18.3731H2.61849L2.46366 17.5194H1.64648L1.4959 18.3731H0.837891L1.74102 13.8117H2.37346ZM2.33902 16.7441L2.05512 15.0368L1.77131 16.7441H2.33902ZM4.7564 18.3729L4.73914 17.9754H4.71762C4.62724 18.2884 4.43382 18.4968 4.1886 18.4968C3.60796 18.4968 3.36283 17.6954 3.36283 16.7049C3.36283 15.8578 3.54351 14.939 4.19718 14.939C4.42514 14.939 4.5327 15.0368 4.69611 15.2908V13.8117H5.27675V18.3731H4.7564V18.3729ZM4.34352 15.6101C4.18435 15.6101 3.96508 15.7928 3.96508 16.7179C3.96508 17.1478 4.01235 17.8386 4.34352 17.8386C4.66177 17.8386 4.72196 17.2196 4.72196 16.7179C4.72196 15.7928 4.49835 15.6101 4.34352 15.6101ZM5.68577 16.7115C5.68577 15.6884 5.98684 14.939 6.6707 14.939C7.35022 14.939 7.65554 15.6884 7.65554 16.7115C7.65554 17.7476 7.34597 18.4968 6.6707 18.4968C5.99118 18.4968 5.68577 17.7475 5.68577 16.7115ZM7.05358 16.7115C7.05358 15.8122 6.89431 15.6036 6.6707 15.6036C6.49436 15.6036 6.28792 15.76 6.28792 16.7115C6.28792 17.6823 6.49436 17.8321 6.6707 17.8321C6.92007 17.8321 7.05358 17.5585 7.05358 16.7115ZM8.57566 18.3729H8.05521V13.8117H8.6401V15.33C8.7604 15.0042 8.98835 14.939 9.13469 14.939C9.74967 14.939 9.97338 15.7015 9.97338 16.7049C9.97338 17.7018 9.75411 18.4968 9.13894 18.4968C8.88522 18.4968 8.73464 18.3469 8.60991 17.9754H8.59273L8.57566 18.3729ZM8.99269 17.8321C9.31094 17.8321 9.37123 17.2131 9.37123 16.7115C9.37123 15.786 9.14771 15.6036 8.99269 15.6036C8.83361 15.6036 8.61434 15.7861 8.61434 16.7115C8.61444 17.1414 8.66161 17.8321 8.99269 17.8321ZM12.176 17.4152C12.0297 18.4187 11.5567 18.4968 11.2384 18.4968C10.8814 18.4968 10.2707 18.3404 10.2707 16.7115C10.2707 15.5774 10.6663 14.939 11.2813 14.939C11.6685 14.939 12.2147 15.1932 12.2147 16.7767V16.9592H10.8727C10.8727 17.741 11.1007 17.8322 11.2641 17.8322C11.3973 17.8322 11.535 17.7868 11.591 17.4153H12.176V17.4152ZM11.6125 16.4052C11.5953 15.7341 11.4576 15.6036 11.2642 15.6036C10.933 15.6036 10.8772 16.1576 10.8728 16.4052H11.6125ZM12.3824 0.770975V0.503174H13.3742V0.770975H13.0069V1.90888H12.7496V0.770975H12.3824ZM13.6932 0.823645V1.90888H13.4359V0.503174H13.7756L14.1118 1.60934L14.4446 0.503174H14.7809V1.90899H14.5234V0.823645L14.1974 1.90888H14.0157L13.6932 0.823645Z" fill="#555963"/>
<path fill-rule="evenodd" clip-rule="evenodd" d="M2.37346 13.8117L3.27659 18.3731H2.61849L2.46366 17.5194H1.64648L1.4959 18.3731H0.837891L1.74102 13.8117H2.37346ZM2.33902 16.7441L2.05512 15.0368L1.77131 16.7441H2.33902ZM4.7564 18.3729L4.73914 17.9754H4.71762C4.62724 18.2884 4.43382 18.4968 4.1886 18.4968C3.60796 18.4968 3.36283 17.6954 3.36283 16.7049C3.36283 15.8578 3.54351 14.939 4.19718 14.939C4.42514 14.939 4.5327 15.0368 4.69611 15.2908V13.8117H5.27675V18.3731H4.7564V18.3729ZM4.34352 15.6101C4.18435 15.6101 3.96508 15.7928 3.96508 16.7179C3.96508 17.1478 4.01235 17.8386 4.34352 17.8386C4.66177 17.8386 4.72196 17.2196 4.72196 16.7179C4.72196 15.7928 4.49835 15.6101 4.34352 15.6101ZM5.68577 16.7115C5.68577 15.6884 5.98684 14.939 6.6707 14.939C7.35022 14.939 7.65554 15.6884 7.65554 16.7115C7.65554 17.7476 7.34597 18.4968 6.6707 18.4968C5.99118 18.4968 5.68577 17.7475 5.68577 16.7115ZM7.05358 16.7115C7.05358 15.8122 6.89431 15.6036 6.6707 15.6036C6.49436 15.6036 6.28792 15.76 6.28792 16.7115C6.28792 17.6823 6.49436 17.8321 6.6707 17.8321C6.92007 17.8321 7.05358 17.5585 7.05358 16.7115ZM8.57566 18.3729H8.05521V13.8117H8.6401V15.33C8.7604 15.0042 8.98835 14.939 9.13469 14.939C9.74967 14.939 9.97338 15.7015 9.97338 16.7049C9.97338 17.7018 9.75411 18.4968 9.13894 18.4968C8.88522 18.4968 8.73464 18.3469 8.60991 17.9754H8.59273L8.57566 18.3729ZM8.99269 17.8321C9.31094 17.8321 9.37123 17.2131 9.37123 16.7115C9.37123 15.786 9.14771 15.6036 8.99269 15.6036C8.83361 15.6036 8.61434 15.7861 8.61434 16.7115C8.61444 17.1414 8.66161 17.8321 8.99269 17.8321ZM12.176 17.4152C12.0297 18.4187 11.5567 18.4968 11.2384 18.4968C10.8814 18.4968 10.2707 18.3404 10.2707 16.7115C10.2707 15.5774 10.6663 14.939 11.2813 14.939C11.6685 14.939 12.2147 15.1932 12.2147 16.7767V16.9592H10.8727C10.8727 17.741 11.1007 17.8322 11.2641 17.8322C11.3973 17.8322 11.535 17.7868 11.591 17.4153H12.176V17.4152ZM11.6125 16.4052C11.5953 15.7341 11.4576 15.6036 11.2642 15.6036C10.933 15.6036 10.8772 16.1576 10.8728 16.4052H11.6125ZM12.3824 0.770975V0.503174H13.3742V0.770975H13.0069V1.90888H12.7496V0.770975H12.3824ZM13.6932 0.823645V1.90888H13.4359V0.503174H13.7756L14.1118 1.60934L14.4446 0.503174H14.7809V1.90899H14.5234V0.823645L14.1974 1.90888H14.0157L13.6932 0.823645Z" fill="#555963"/>
</svg>
