<svg width="83" height="19" viewBox="0 0 83 19" fill="none" xmlns="http://www.w3.org/2000/svg">
<path d="M28.1653 16.7418H21.1761C20.9409 16.7418 20.7661 16.543 20.7661 16.2779V15.3201C20.7595 15.084 20.8266 14.9815 20.9607 14.7972L26.5254 7.54068H21.075C20.8398 7.54068 20.665 7.34187 20.665 7.07679V6.39856C20.665 6.14073 20.8398 5.93467 21.075 5.93467H28.1313C28.3665 5.93467 28.5413 6.13348 28.5413 6.39856V7.37811C28.5413 7.55517 28.4874 7.70221 28.3665 7.86477L22.7951 15.143H28.1719C28.4071 15.143 28.5819 15.3418 28.5819 15.6069V16.2851C28.5753 16.543 28.4005 16.7418 28.1653 16.7418ZM41.9359 16.9406C42.4403 16.9333 42.8097 16.8153 42.9504 16.6382C42.9977 16.572 43.0241 16.4984 43.0175 16.4249C43.0109 16.3659 43.0109 16.3659 42.8768 15.6442L42.8701 15.6297C42.8437 15.4381 42.7218 15.3574 42.6217 15.3574H42.6085C42.6085 15.3574 42.481 15.3501 42.3601 15.3501C42.0039 15.3356 41.7083 15.2766 41.7017 14.6947V2.41307C41.7017 2.20702 41.594 2.00096 41.3795 1.99268H41.3191L40.3442 2.27225C40.1761 2.29399 40.008 2.42653 40.0146 2.66987V14.7216C40.0202 16.1526 40.6994 16.9406 41.9359 16.9406ZM61.6671 16.7418H60.7933C60.5581 16.7418 60.3833 16.543 60.3833 16.2779V8.89609C60.3701 7.64422 60.0338 7.29734 58.8379 7.28285C57.4871 7.28285 56.1165 7.66597 55.6593 7.80575V16.2851C55.6593 16.5502 55.4978 16.749 55.2692 16.749H54.3822C54.147 16.749 53.9722 16.5502 53.9722 16.2851V7.99731C53.959 7.23107 54.0261 6.70092 54.9934 6.34679C55.921 5.98541 57.7016 5.68409 58.8776 5.68409C61.1154 5.68409 62.077 6.59737 62.077 8.71903V16.2851C62.0704 16.543 61.8957 16.7418 61.6671 16.7418ZM70.4104 7.5852C70.0883 7.48994 69.1805 7.2611 68.1594 7.2611C66.2844 7.28285 65.4984 7.85028 65.4777 11.3574C65.4975 15.2031 66.5196 15.4091 68.1793 15.4309V15.5117V15.4236C69.2146 15.4236 70.1016 15.1803 70.4171 15.085V7.5852H70.4104ZM70.8742 16.602L70.7732 16.631C70.2225 16.7853 69.463 17.0069 68.132 17.0069H68.1254C64.4631 16.9996 63.7367 14.9225 63.7367 11.3346C63.7433 7.22382 64.8995 5.69134 68.0177 5.68409C69.1201 5.68409 69.873 5.84666 70.4171 5.9937L70.4104 2.67815C70.4038 2.53112 70.4643 2.33956 70.7732 2.28053L71.748 2.00096H71.8019C72.0238 2.00821 72.1041 2.2298 72.1041 2.42136V14.8717C72.1174 15.6514 72.0371 16.3214 70.8742 16.602ZM77.9778 15.4009C75.5784 15.3864 75.4575 14.0009 75.4377 11.3491C75.4575 8.68279 75.5718 7.29009 77.9778 7.2756C80.3771 7.29009 80.5046 8.68279 80.5178 11.3491C80.498 14.0009 80.3771 15.3936 77.9778 15.4009ZM77.9778 5.67685C74.0198 5.68409 73.6835 8.60927 73.6769 11.3491C73.6769 14.0817 74.0132 16.9924 77.9778 16.9996C81.9357 16.9924 82.272 14.09 82.2786 11.3491C82.272 8.48398 81.9367 5.68409 77.9778 5.67685ZM50.5244 11.4081C50.1276 11.4154 48.2053 11.4454 47.4393 11.6287L47.3788 11.6432C46.5183 11.8565 45.84 12.0335 45.8268 13.4625C45.8268 15.2673 47.0567 15.4299 48.313 15.4371C49.0989 15.4371 49.8452 15.3118 50.5244 15.0612V11.4081ZM52.2247 8.77805V14.5093C52.2445 15.931 51.9158 16.3877 50.6387 16.719C50.0804 16.8515 49.2208 16.9986 48.2932 17.0058C46.9292 16.9986 44.0859 16.9986 44.0793 13.5505C44.0726 10.8397 45.5179 10.3602 47.2711 10.0662C48.4207 9.86011 49.5901 9.83008 50.1815 9.83008H50.5045V8.85053C50.4979 8.20233 50.4979 7.81197 49.9604 7.58313C49.6308 7.42885 49.1339 7.35429 48.4009 7.35429C47.1908 7.35429 46.1026 7.65665 45.3838 7.8627L45.1079 7.93622C45.0815 7.94347 45.0475 7.95072 45.0069 7.95797C44.8793 7.95797 44.7376 7.86995 44.6914 7.68564L44.6847 7.67114L44.5232 6.75062V6.69885C44.5232 6.48554 44.664 6.353 44.799 6.30848C45.3772 6.06514 46.9093 5.68202 48.5624 5.68202C49.7658 5.68202 50.6387 5.85909 51.2234 6.21943C52.2313 6.81171 52.2247 7.90205 52.2247 8.77805ZM36.3107 15.0695C35.6315 15.3201 34.8862 15.4454 34.0994 15.4454C32.843 15.4309 31.6131 15.2756 31.6131 13.4708C31.6198 12.0346 32.2989 11.8648 33.1652 11.6515L33.2256 11.637C33.9917 11.4526 35.914 11.4164 36.3107 11.4164V15.0695ZM37.0097 6.2215C36.425 5.86012 35.5513 5.68409 34.3488 5.68409C32.6957 5.68409 31.1701 6.06721 30.5854 6.31055C30.4579 6.35507 30.3162 6.48761 30.3096 6.70092V6.74544L30.4702 7.66597L30.4768 7.68771C30.5306 7.87202 30.6648 7.96004 30.7923 7.96004C30.8329 7.96004 30.866 7.95279 30.8933 7.93829L31.1692 7.86477C31.888 7.66597 32.9772 7.35636 34.1863 7.35636C34.9184 7.35636 35.4162 7.42988 35.7525 7.5852C36.2899 7.81404 36.2899 8.20441 36.2966 8.8526V9.81765H35.9669C35.3756 9.81765 34.2061 9.84665 33.0565 10.0537C31.3024 10.3561 29.8505 10.8272 29.8647 13.5453C29.8647 16.9934 32.707 17.0006 34.0786 17.0006C35.0062 17.0006 35.8592 16.8464 36.4241 16.7138C37.7012 16.3825 38.0233 15.9258 38.0101 14.5041V8.77805C38.0044 7.90205 38.0044 6.81171 37.0097 6.2215Z" fill="#555963"/>
<path d="M15.6728 7.55969C14.5232 5.97543 12.924 4.44399 10.8203 3.05854L10.8137 3.05129C8.70345 1.69587 6.71409 0.907888 4.92026 0.583789C3.80467 0.377732 3.26718 0.612782 3.02536 0.775349C2.78354 0.929633 2.33296 1.33553 1.92961 2.52114C1.28443 4.42949 0.907532 6.75721 0.887695 9.48979V9.49703C0.90092 12.2296 1.28443 14.5656 1.92961 16.4729C2.33296 17.6668 2.78354 18.0644 3.02536 18.226C3.26718 18.3803 3.80467 18.6236 4.92026 18.4175C6.71503 18.0934 8.69684 17.2982 10.8137 15.9428L10.8203 15.9355C12.924 14.5501 14.5232 13.0186 15.6728 11.4344C16.3851 10.4476 16.4729 9.80664 16.4729 9.49703C16.4729 9.18743 16.3917 8.54752 15.6728 7.55969Z" fill="#555963"/>
</svg>
