<svg xmlns="http://www.w3.org/2000/svg" width="17" height="16" viewBox="0 0 17 16" fill="none">
  <g clip-path="url(#clip0_13096_3982)">
    <path d="M15.0938 3.75H13.1862C13.4812 3.358 13.6562 2.87097 13.6562 2.34375C13.6562 1.05141 12.6048 0 11.3125 0C10.534 0 9.96 0.278906 9.50597 0.877719C9.12613 1.37872 8.84838 2.07822 8.5 2.96203C8.15163 2.07819 7.87388 1.37872 7.49403 0.877719C7.04 0.278906 6.46597 0 5.6875 0C4.39516 0 3.34375 1.05141 3.34375 2.34375C3.34375 2.87097 3.51884 3.358 3.81378 3.75H1.90625C1.13084 3.75 0.5 4.38084 0.5 5.15625V6.09375C0.5 6.70484 0.891906 7.22587 1.4375 7.41937V14.5938C1.4375 15.3692 2.06834 16 2.84375 16H14.1562C14.9317 16 15.5625 15.3692 15.5625 14.5938V7.41937C16.1081 7.22587 16.5 6.70484 16.5 6.09375V5.15625C16.5 4.38084 15.8692 3.75 15.0938 3.75ZM9.36044 3.33562C10.0785 1.51381 10.3515 0.9375 11.3125 0.9375C12.0879 0.9375 12.7188 1.56834 12.7188 2.34375C12.7188 3.11916 12.0879 3.75 11.3125 3.75H9.19647C9.25391 3.60578 9.30869 3.46694 9.36044 3.33562ZM5.6875 0.9375C6.64847 0.9375 6.92147 1.51381 7.63956 3.33562C7.69131 3.46694 7.74609 3.60578 7.80353 3.75H5.6875C4.91209 3.75 4.28125 3.11916 4.28125 2.34375C4.28125 1.56834 4.91209 0.9375 5.6875 0.9375ZM6.625 15.0625H2.84375C2.58528 15.0625 2.375 14.8522 2.375 14.5938V7.5H6.625V15.0625ZM6.625 6.5625H1.90625C1.64778 6.5625 1.4375 6.35222 1.4375 6.09375V5.15625C1.4375 4.89778 1.64778 4.6875 1.90625 4.6875H6.625V6.5625ZM9.4375 15.0625H7.5625V4.6875C7.66072 4.6875 8.89875 4.6875 9.4375 4.6875V15.0625ZM14.625 14.5938C14.625 14.8522 14.4147 15.0625 14.1562 15.0625H10.375V7.5H14.625V14.5938ZM15.5625 6.09375C15.5625 6.35222 15.3522 6.5625 15.0938 6.5625H10.375V4.6875H15.0938C15.3522 4.6875 15.5625 4.89778 15.5625 5.15625V6.09375Z" fill="#6FDAA6"/>
  </g>
  <defs>
    <clipPath id="clip0_13096_3982">
      <rect width="16" height="16" fill="white" transform="translate(0.5)"/>
    </clipPath>
  </defs>
</svg>
