<svg width="60" height="19" viewBox="0 0 60 19" fill="none" xmlns="http://www.w3.org/2000/svg">
<path d="M58.0613 3.67396H58.32C58.4438 3.67396 58.5284 3.6519 58.574 3.60887C58.5957 3.58831 58.6131 3.56205 58.6247 3.53217C58.6363 3.50229 58.6418 3.46962 58.6408 3.43678C58.6413 3.39257 58.63 3.34931 58.6083 3.31322C58.5859 3.276 58.5543 3.2478 58.5179 3.23241C58.4798 3.2131 58.4081 3.20538 58.3036 3.20538H58.0613V3.67396ZM57.8474 4.55266V2.99301H58.3017C58.4567 2.99301 58.5695 3.00763 58.6394 3.03604C58.7086 3.06472 58.7637 3.11547 58.8053 3.18773C58.8465 3.25861 58.8673 3.33501 58.8673 3.41499C58.8673 3.52944 58.8322 3.62818 58.7635 3.71285C58.6943 3.79697 58.6027 3.84468 58.4889 3.85489C58.5357 3.87778 58.573 3.90536 58.6013 3.93735C58.6537 3.9983 58.7189 4.10173 58.796 4.2468L58.9568 4.55294H58.6943L58.5779 4.30665C58.4852 4.11414 58.4118 3.99306 58.3569 3.94425C58.3176 3.90756 58.2613 3.88909 58.1867 3.88909H58.0613V4.55266H57.8474ZM58.3854 2.53822C58.2125 2.53822 58.0442 2.59062 57.8801 2.69488C57.7182 2.79805 57.5849 2.95401 57.496 3.14415C57.4057 3.32885 57.358 3.53824 57.3576 3.75146C57.3576 3.96079 57.4027 4.1613 57.4931 4.35381C57.5843 4.54521 57.7112 4.6947 57.8748 4.80171C58.0301 4.90712 58.2062 4.96274 58.3854 4.96305C58.563 4.96305 58.7331 4.90954 58.8958 4.80171C59.056 4.69823 59.1879 4.54282 59.2758 4.35381C59.3645 4.17033 59.4114 3.96276 59.4118 3.75146C59.4118 3.54075 59.3657 3.33776 59.2739 3.14415C59.1854 2.95354 59.052 2.79736 58.8897 2.6946C58.7254 2.59035 58.5571 2.53822 58.3854 2.53822ZM58.3854 2.29883C58.5917 2.29883 58.7939 2.36143 58.9902 2.48637C59.1845 2.60837 59.3443 2.79498 59.4496 3.02308C59.5602 3.2564 59.6146 3.49883 59.6146 3.75146C59.6146 4.00134 59.5609 4.24211 59.4527 4.47295C59.3474 4.70004 59.1893 4.88684 58.997 5.01131C58.8105 5.13613 58.5998 5.20188 58.3854 5.20217C58.1708 5.20195 57.9598 5.1362 57.7731 5.01131C57.581 4.88647 57.423 4.69976 57.3174 4.47295C57.2112 4.25308 57.155 4.00454 57.1543 3.75146C57.1543 3.49883 57.2094 3.2564 57.3202 3.02308C57.4262 2.79543 57.586 2.60906 57.7801 2.48665C57.9774 2.36143 58.1786 2.29883 58.3854 2.29883Z" fill="#555963"/>
<path fill-rule="evenodd" clip-rule="evenodd" d="M7.48002 0.505284C6.86378 0.524589 6.24356 0.676555 5.65395 0.927256C3.37055 2.05197 1.78261 4.50603 1.06424 7.45046C0.942956 8.00316 0.844572 8.55641 0.791757 9.12732C0.791757 9.1458 0.753899 9.70788 0.821904 9.55619C0.889908 9.4227 0.920054 9.22605 0.957913 9.07409C1.30565 7.69123 1.72956 6.43276 2.37969 5.23717C3.93749 2.53296 6.44009 0.793218 9.08619 1.75714C9.57788 1.95295 10.0163 2.23896 10.4547 2.57791C10.5376 2.64935 11.1502 3.22053 11.0141 2.70285C10.9008 2.29301 10.6136 1.94413 10.3638 1.6675C9.52296 0.808663 8.50733 0.473015 7.48002 0.505284ZM26.793 3.21087C26.4378 3.21087 26.1658 3.35429 25.9765 3.64884C25.7797 3.93402 25.6893 4.36261 25.6893 4.92497V8.99411C25.2507 8.4232 24.7973 8.01226 24.3362 7.73508C24.0189 7.55428 23.6792 7.43392 23.3299 7.37848C23.0996 7.34193 22.8674 7.32414 22.6349 7.32525C21.4782 7.32525 20.5329 7.80652 19.8225 8.76988C19.1113 9.7338 18.7561 11.0728 18.7561 12.7949C18.7561 13.6071 18.8473 14.365 19.0209 15.0611C19.2027 15.7573 19.467 16.3637 19.8148 16.8814C20.1492 17.3819 20.5722 17.7901 21.0543 18.0776C21.5308 18.3534 22.0446 18.4968 22.6043 18.4968C22.8542 18.4968 23.096 18.4692 23.3299 18.416C23.4787 18.3883 23.6254 18.3467 23.7686 18.2916C24.1227 18.1491 24.4566 17.9445 24.7592 17.6848C25.0696 17.4167 25.3717 17.069 25.6893 16.6497V16.9167C25.6893 17.4261 25.7954 17.8098 25.9992 18.0861C26.2032 18.3536 26.4759 18.4968 26.793 18.4968C27.1029 18.4968 27.3752 18.363 27.5794 18.104C27.7837 17.8362 27.8816 17.444 27.8816 16.9167V4.78155C27.8816 4.27325 27.7911 3.88051 27.6018 3.61271C27.4058 3.34519 27.1333 3.21087 26.793 3.21087ZM55.3268 3.21087C54.9716 3.21087 54.6994 3.35429 54.5105 3.64884C54.3212 3.93402 54.2231 4.36261 54.2231 4.92497V8.99411C53.7847 8.4232 53.3309 8.01226 52.87 7.73508C52.5826 7.56547 52.2426 7.44136 51.8642 7.37848C51.6336 7.34189 51.4012 7.3241 51.1685 7.32525C50.0122 7.32525 49.0746 7.80652 48.356 8.76988C47.6456 9.7338 47.2899 11.0728 47.2899 12.7949C47.2899 13.6071 47.3806 14.365 47.5619 15.0611C47.7433 15.7573 48.0003 16.3637 48.3483 16.8814C48.6829 17.3821 49.1062 17.7903 49.5885 18.0776C50.0645 18.3534 50.5791 18.4968 51.1386 18.4968C51.3952 18.4968 51.6373 18.4692 51.8642 18.416C52.0156 18.3895 52.1587 18.3451 52.3024 18.2916C52.6564 18.1491 52.9903 17.9446 53.2928 17.6848C53.6031 17.4167 53.9132 17.069 54.2229 16.6497V16.9167C54.2229 17.4261 54.3287 17.8098 54.533 18.0861C54.7447 18.3536 55.0092 18.4968 55.3266 18.4968C55.6521 18.4968 55.9162 18.363 56.1209 18.104C56.3252 17.8362 56.4308 17.444 56.4308 16.9167V4.78155C56.4308 4.27325 56.3326 3.88051 56.1438 3.61271C55.947 3.34519 55.6827 3.21087 55.3268 3.21087ZM6.88411 3.95415C6.5645 3.94428 6.24793 4.02955 5.96359 4.2021C5.01854 4.7639 4.6402 6.1291 5.12417 7.24444C5.60044 8.36004 6.75675 8.80656 7.70203 8.23566C8.64708 7.6733 9.02519 6.3081 8.54145 5.19332C8.38606 4.82912 8.14983 4.5215 7.85796 4.30328C7.56609 4.08505 7.22951 3.96439 6.88411 3.95415ZM33.2273 7.28912C32.5542 7.29822 31.942 7.43198 31.3825 7.6813C30.8076 7.94966 30.3241 8.33357 29.931 8.82449C29.5375 9.32369 29.2351 9.92217 29.0309 10.6177C28.8266 11.3141 28.721 12.0726 28.721 12.8843C28.721 14.6154 29.1444 15.9713 29.9759 16.9793C30.7623 17.9347 31.8438 18.4339 33.2273 18.4871C33.3102 18.4965 33.3859 18.4968 33.4691 18.4968C34.127 18.4968 34.7016 18.3983 35.2083 18.1934C35.7147 17.9876 36.1304 17.7383 36.463 17.4344C36.8035 17.1227 37.0453 16.8012 37.212 16.4707C37.3783 16.1409 37.4611 15.8466 37.4611 15.6058C37.4611 15.3292 37.3858 15.1061 37.2421 14.9539C37.0914 14.8027 36.8941 14.7219 36.6597 14.7219C36.4331 14.7219 36.2671 14.7848 36.1456 14.9006C35.9131 15.1619 35.6762 15.4178 35.4352 15.6682C35.2448 15.8571 35.0453 16.0328 34.8376 16.1944C34.618 16.3549 34.3992 16.4804 34.1646 16.5516C33.9379 16.6315 33.6809 16.6674 33.4011 16.6674C33.3404 16.6674 33.2801 16.6674 33.2273 16.6583C32.8798 16.6315 32.5542 16.5157 32.2598 16.3011C31.9193 16.0606 31.6393 15.704 31.4358 15.2399C31.2238 14.758 31.1177 14.2048 31.1103 13.5804H35.6768C36.2821 13.5804 36.7581 13.4734 37.0981 13.277C37.4312 13.063 37.5975 12.6165 37.5975 11.9294C37.5975 11.1798 37.4386 10.4484 37.1133 9.7258C36.7883 9.01148 36.2971 8.4232 35.6469 7.96731C34.9963 7.51279 34.2097 7.28912 33.303 7.28912H33.2273ZM42.5649 7.28912C41.8919 7.29822 41.2719 7.43198 40.7201 7.6813C40.1453 7.94966 39.6615 8.33357 39.2603 8.82449C38.8747 9.32369 38.5727 9.92217 38.369 10.6177C38.1645 11.3141 38.0586 12.0726 38.0586 12.8843C38.0586 14.6154 38.4744 15.9713 39.3061 16.9793C40.092 17.9347 41.1812 18.4339 42.5649 18.4871C42.6409 18.4965 42.7231 18.4968 42.8063 18.4968C43.4569 18.4968 44.039 18.3983 44.5454 18.1934C45.0519 17.9876 45.4678 17.7383 45.8004 17.4344C46.1336 17.1227 46.3825 16.8012 46.5491 16.4707C46.7153 16.1409 46.7987 15.8466 46.7987 15.6058C46.7987 15.3292 46.7228 15.1061 46.5716 14.9539C46.4281 14.8027 46.2318 14.7219 45.9897 14.7219C45.77 14.7219 45.6038 14.7848 45.4828 14.9006C45.1879 15.2219 44.9542 15.4806 44.7726 15.6682C44.5796 15.8571 44.3775 16.0328 44.1673 16.1944C43.9563 16.3549 43.7289 16.4804 43.5025 16.5516C43.2676 16.6315 43.0187 16.6674 42.7388 16.6674C42.678 16.6674 42.6177 16.6674 42.5649 16.6583C42.2169 16.6315 41.8916 16.5157 41.5967 16.3011C41.249 16.0606 40.9767 15.704 40.7652 15.2399C40.561 14.758 40.4549 14.2048 40.4474 13.5804H45.0063C45.619 13.5804 46.0953 13.4734 46.4281 13.277C46.7686 13.063 46.9342 12.6165 46.9342 11.9294C46.9342 11.1798 46.7686 10.4484 46.4433 9.7258C46.1182 9.01148 45.634 8.4232 44.9761 7.96731C44.3258 7.51279 43.5476 7.28912 42.6324 7.28912H42.5649ZM10.8101 7.30759C10.4699 7.30759 10.2049 7.44108 10.016 7.69978C9.81951 7.94966 9.72113 8.34239 9.72113 8.86862V16.8188C9.72113 17.3539 9.82699 17.7736 10.046 18.0593C10.2656 18.3534 10.5374 18.4968 10.8779 18.4968C11.2256 18.4968 11.5051 18.3534 11.7248 18.0776C11.944 17.7918 12.0576 17.3806 12.0576 16.8188V13.3837C12.0576 12.2502 12.1104 11.492 12.2237 11.0814C12.3824 10.5642 12.6399 10.1629 12.98 9.86839C13.3205 9.58266 13.6983 9.43097 14.1143 9.43097C14.7488 9.43097 15.1799 9.67202 15.3919 10.1533C15.6034 10.6357 15.7097 11.331 15.7097 12.2416V16.8188C15.7097 17.3539 15.8151 17.7736 16.0346 18.0593C16.2535 18.3534 16.5335 18.4968 16.8812 18.4968C17.2212 18.4968 17.501 18.3534 17.7127 18.0679C17.9247 17.7918 18.0378 17.3718 18.0378 16.8188V11.7063C18.0378 11.0998 18.0153 10.5995 17.9698 10.2159C17.9244 9.82316 17.8265 9.458 17.6676 9.11849C17.4257 8.53876 17.0703 8.09252 16.5863 7.78004C16.1023 7.46756 15.5508 7.30759 14.9381 7.30759C14.3029 7.30759 13.7434 7.45873 13.252 7.75356C12.7682 8.05666 12.3224 8.52083 11.9059 9.1629V8.82449C11.9059 8.50318 11.8608 8.22656 11.7627 7.99433C11.6645 7.76266 11.5283 7.59277 11.3621 7.47666C11.1953 7.36055 11.0139 7.30759 10.8101 7.30759ZM33.22 9.20785H33.2273C33.8316 9.20785 34.3233 9.4398 34.6937 9.90397C35.0723 10.3676 35.2835 11.0728 35.3438 12.0188H31.11C31.1935 11.091 31.4201 10.3858 31.7905 9.91307C32.1609 9.44007 32.6372 9.20785 33.2198 9.20785H33.22ZM42.5572 9.20785H42.5649C43.1697 9.20785 43.6605 9.4398 44.0309 9.90397C44.4017 10.3676 44.6209 11.0728 44.674 12.0188H40.4477C40.5231 11.091 40.7501 10.3858 41.1282 9.91307C41.4988 9.44007 41.9751 9.20785 42.5572 9.20785ZM23.3005 9.36837H23.3299C23.7307 9.36837 24.1014 9.51123 24.4341 9.78813C24.7819 10.0645 25.0546 10.466 25.2584 10.9925C25.4554 11.519 25.561 12.1526 25.561 12.8845C25.561 13.6695 25.4554 14.3206 25.2584 14.838C25.0546 15.3557 24.7819 15.7391 24.4419 15.9886C24.1088 16.2385 23.7307 16.3643 23.3299 16.3643H23.3229C22.9147 16.3643 22.5438 16.2302 22.2036 15.9715C21.8563 15.704 21.5913 15.3113 21.395 14.7939C21.1982 14.2674 21.1001 13.6339 21.1001 12.8843C21.1001 12.1793 21.1912 11.5546 21.3725 11.0281C21.5614 10.4931 21.8184 10.0821 22.1585 9.79668C22.4912 9.50185 22.8768 9.36837 23.3005 9.36837ZM51.8413 9.36837H51.8642C52.265 9.36837 52.6354 9.51123 52.9756 9.78813C53.3159 10.0645 53.5884 10.466 53.7922 10.9925C53.9964 11.519 54.0948 12.1526 54.0948 12.8845C54.0948 13.6695 53.9964 14.3206 53.7922 14.838C53.5884 15.3557 53.3154 15.7391 52.9829 15.9886C52.6481 16.2375 52.2599 16.3678 51.8642 16.3643H51.857C51.4489 16.3643 51.0778 16.2302 50.7376 15.9715C50.3978 15.704 50.1255 15.3113 49.929 14.7939C49.7325 14.2674 49.6341 13.6339 49.6341 12.8843C49.6341 12.1793 49.7241 11.5549 49.9133 11.0281C50.0949 10.4931 50.3597 10.0821 50.6925 9.79668C51.0332 9.50185 51.4106 9.36837 51.8413 9.36837ZM8.17876 9.458C7.5735 9.88549 6.86308 10.1268 6.10708 10.1268C5.94864 10.1268 5.79721 10.1183 5.6383 10.1001V16.6674C5.6383 17.2742 5.75935 17.7292 5.99398 18.0329C6.23585 18.3451 6.531 18.4968 6.9014 18.4968C7.27905 18.4968 7.58962 18.3451 7.82332 18.0417C8.05818 17.7383 8.17876 17.2833 8.17876 16.6674V9.458Z" fill="#555963"/>
</svg>
