<svg xmlns="http://www.w3.org/2000/svg" width="17" height="16" viewBox="0 0 17 16" fill="none">
  <g clip-path="url(#clip0_13004_1380)">
    <path d="M11.8125 8.98818V2.12758H10.1042C8.87303 2.12758 7.875 3.12562 7.875 4.35674C7.875 3.12562 6.87697 2.12758 5.64584 2.12758H3.625V10.8282H9.82913" stroke="currentColor" stroke-width="1.25" stroke-miterlimit="10" stroke-linecap="round" stroke-linejoin="round"/>
    <path d="M7.87253 4.25302V6.47786" stroke="currentColor" stroke-width="1.25" stroke-miterlimit="10" stroke-linecap="round" stroke-linejoin="round"/>
    <path d="M12.8266 13.2572L11.841 13.7754C11.233 14.095 10.5224 13.5787 10.6385 12.9017L10.8268 11.8042L10.0294 11.027C9.5375 10.5475 9.80891 9.71214 10.4887 9.61336L11.5906 9.45324L12.0834 8.4547C12.3874 7.83874 13.2658 7.83874 13.5698 8.4547L14.0626 9.45324L15.1645 9.61336C15.8443 9.71214 16.1157 10.5475 15.6238 11.027L14.8265 11.8042L15.0147 12.9017C15.1308 13.5787 14.4202 14.095 13.8122 13.7754L12.8266 13.2572Z" stroke="currentColor" stroke-width="1.25" stroke-miterlimit="10" stroke-linecap="round" stroke-linejoin="round"/>
    <path d="M14.3125 9.44961V8.01177" stroke="currentColor" stroke-width="1.25" stroke-miterlimit="10" stroke-linecap="round" stroke-linejoin="round"/>
    <path d="M3.58178 3.19227H3C1.96447 3.19227 1.125 4.03174 1.125 5.06727V11.4219C1.125 12.4575 1.96447 13.2969 3 13.2969H10.6057" stroke="currentColor" stroke-width="1.25" stroke-miterlimit="10" stroke-linecap="round" stroke-linejoin="round"/>
    <path d="M14.3039 4.88677C14.2131 3.93592 13.4121 3.19227 12.4375 3.19227H11.8477" stroke="currentColor" stroke-width="1.25" stroke-miterlimit="10" stroke-linecap="round" stroke-linejoin="round"/>
  </g>
  <defs>
    <clipPath id="clip0_13004_1380">
      <rect width="16" height="16" fill="white" transform="translate(0.5)"/>
    </clipPath>
  </defs>
</svg>
