<svg width="75" height="19" viewBox="0 0 75 19" fill="none" xmlns="http://www.w3.org/2000/svg">
<path d="M73.2544 0.503174L69.2098 9.98779L67.6888 6.39401H66.0439L68.5451 12.2725H69.8745L74.888 0.503174H73.2544Z" fill="#555963"/>
<path d="M55.904 18.1139H59.1599V11.5808C59.1599 10.0865 59.9486 9.03679 61.1203 9.03679C62.2469 9.03679 62.8328 9.90128 62.8328 11.1486V18.1139H66.0887V10.4694C66.0887 7.87592 64.6692 6.04815 62.3708 6.04815C60.9062 6.04815 59.881 6.73974 59.1149 7.99941H59.0473V6.39395H55.8927L55.904 18.1139ZM49.5047 6.07285C46.1023 6.07285 43.8265 8.75275 43.8265 12.2848C43.8265 15.7921 46.1023 18.4967 49.5047 18.4967C52.9072 18.4967 55.183 15.7921 55.183 12.2848C55.1942 8.75275 52.9072 6.07285 49.5047 6.07285ZM49.4822 15.8539C47.9387 15.8539 47.1163 14.4336 47.1163 12.2848C47.1163 10.1112 47.9275 8.7157 49.4822 8.7157C51.0257 8.7157 51.8819 10.1112 51.8819 12.2848C51.8932 14.4336 51.037 15.8539 49.4822 15.8539ZM34.5431 18.1139H43.6913V15.2981H38.5089V15.224L43.466 9.13559V6.38159H34.5431V9.20969H39.5566V9.28379L34.5431 15.4216V18.1139ZM30.3633 18.1139H33.6418V6.39395H30.3633V18.1139ZM22.7586 18.1139H26.0258V12.7294C26.0258 10.2841 27.3665 9.19734 29.4057 9.50608H29.4733V6.41864C29.3043 6.34455 29.1128 6.3322 28.8086 6.3322C27.5355 6.3322 26.6793 6.97438 25.947 8.34521H25.8794V6.39395H22.7586V18.1139ZM16.765 15.8662C15.3229 15.8662 14.4441 14.8412 14.2751 13.2604H21.9812C22.0038 10.7411 21.3954 8.72805 20.1223 7.46837C19.221 6.55449 18.038 6.04815 16.5284 6.04815C13.3062 6.04815 11.0755 8.72805 11.0755 12.2354C11.0755 15.7674 13.2048 18.4597 16.7424 18.4597C18.0831 18.4597 19.1421 18.0645 20.0209 17.4099C20.956 16.706 21.632 15.6686 21.8122 14.6436H18.6802C18.376 15.4093 17.7226 15.8662 16.765 15.8662ZM16.596 8.60455C17.7451 8.60455 18.5338 9.54313 18.669 10.914H14.2976C14.5568 9.53078 15.244 8.60455 16.596 8.60455ZM4.56357 18.1139H7.98852L11.7064 6.39395H8.42791L6.34365 13.9273H6.29858L4.21432 6.39395H0.845703L4.56357 18.1139ZM30.3633 2.21973H33.6418V5.40596H30.3633V2.21973Z" fill="#555963"/>
</svg>
