<svg width="78" height="19" viewBox="0 0 78 19" fill="none" xmlns="http://www.w3.org/2000/svg">
<path fill-rule="evenodd" clip-rule="evenodd" d="M23.055 5.33244C23.0353 5.2644 22.9964 5.20498 22.9439 5.16282C22.8914 5.12065 22.828 5.09793 22.7629 5.09794H19.9046C19.8395 5.09793 19.7761 5.12065 19.7236 5.16282C19.6711 5.20498 19.6322 5.2644 19.6125 5.33244L16.0063 17.8694C15.9771 17.9716 15.9937 18.0826 16.0514 18.1692C16.0799 18.2117 16.1171 18.2462 16.16 18.27C16.2029 18.2938 16.2503 18.3062 16.2984 18.3062H18.2662C18.402 18.3062 18.5216 18.2082 18.5599 18.0654L21.0434 8.84525C21.0434 8.84525 21.1083 8.61501 21.3332 8.61501C21.5619 8.61501 21.6175 8.85452 21.6175 8.85484L22.7698 13.2266H21.222C21.1552 13.2265 21.0902 13.2504 21.037 13.2946C20.9837 13.3388 20.9452 13.4009 20.9271 13.4714L20.4829 15.2024C20.47 15.2523 20.4679 15.3049 20.4766 15.3558C20.4854 15.4068 20.5048 15.4549 20.5334 15.4962C20.562 15.5376 20.5989 15.5711 20.6413 15.5941C20.6837 15.6172 20.7304 15.6291 20.7777 15.629H23.4139L24.1079 18.0704C24.1273 18.1387 24.1662 18.1984 24.2188 18.2409C24.2714 18.2833 24.335 18.3062 24.4003 18.3061H26.3689C26.417 18.3061 26.4644 18.2936 26.5073 18.2698C26.5502 18.2459 26.5874 18.2113 26.6158 18.1688C26.6443 18.1263 26.6632 18.077 26.6711 18.025C26.6789 17.973 26.6755 17.9196 26.6611 17.8693L23.055 5.33244ZM31.6286 16.3742C31.6221 16.328 31.607 16.2837 31.5841 16.2443C31.5611 16.2048 31.531 16.171 31.4955 16.145C31.4601 16.119 31.42 16.1014 31.378 16.0934C31.336 16.0854 31.2929 16.0871 31.2515 16.0984C30.932 16.1853 30.626 16.2334 30.3899 16.2334C29.942 16.2334 29.7425 16.0205 29.7425 15.5433V10.74H31.4996C31.5809 10.74 31.6588 10.7046 31.7163 10.6416C31.7737 10.5787 31.806 10.4933 31.8061 10.4042V8.906C31.8061 8.72054 31.669 8.57046 31.4998 8.57046H29.7425V6.25744C29.7425 6.20942 29.7332 6.16196 29.715 6.11825C29.6969 6.07455 29.6704 6.03562 29.6373 6.0041C29.6043 5.97258 29.5655 5.94919 29.5235 5.93552C29.4815 5.92186 29.4373 5.91822 29.3939 5.92487L27.5847 6.20116C27.5114 6.21232 27.4444 6.25213 27.3958 6.31325C27.3473 6.37437 27.3205 6.45267 27.3205 6.53372V8.57035H26.335C26.2538 8.57035 26.1759 8.6057 26.1184 8.66862C26.061 8.73154 26.0287 8.81689 26.0287 8.9059V10.4041C26.0287 10.4932 26.0609 10.5786 26.1184 10.6416C26.1758 10.7045 26.2537 10.7399 26.335 10.7399H27.3205V15.8536C27.3205 17.6098 28.1626 18.4999 29.8234 18.4999C30.296 18.4999 31.0986 18.3805 31.6235 18.1806C31.691 18.1549 31.7481 18.1043 31.7851 18.0373C31.822 17.9703 31.8364 17.8913 31.8258 17.8139L31.6284 16.3741M34.9779 4.85321H33.1686C33.1284 4.85321 33.0886 4.8619 33.0514 4.87879C33.0142 4.89568 32.9804 4.92043 32.952 4.95163C32.9235 4.98283 32.901 5.01987 32.8856 5.06063C32.8702 5.10139 32.8623 5.14507 32.8623 5.18918V17.9705C32.8623 18.0595 32.8946 18.1449 32.9521 18.2079C33.0095 18.2709 33.0874 18.3062 33.1686 18.3062H34.9779C35.0591 18.3062 35.137 18.2709 35.1945 18.2079C35.2519 18.1449 35.2842 18.0595 35.2842 17.9705V5.18897C35.2842 5.00329 35.1471 4.85321 34.9779 4.85321ZM40.8439 14.7366V15.9044C40.544 16.0796 40.0007 16.3305 39.347 16.3305C38.783 16.3305 38.6111 16.142 38.6111 15.5236C38.6111 14.9233 38.7175 14.7365 39.3824 14.7365L40.8439 14.7366ZM39.6301 8.37636C38.7141 8.37636 37.5994 8.53464 36.7904 8.77991C36.7177 8.80182 36.655 8.85241 36.6142 8.92196C36.5735 8.99151 36.5576 9.07512 36.5697 9.15671L36.7815 10.5964C36.788 10.6408 36.8026 10.6833 36.8244 10.7214C36.8462 10.7595 36.8748 10.7924 36.9085 10.8181C36.9763 10.8704 37.0607 10.89 37.1423 10.8723C37.8947 10.712 38.6714 10.6235 39.3292 10.6235C40.6352 10.6235 40.8439 10.9257 40.8439 11.8957V12.7415H38.9046C37.051 12.7415 36.2601 13.5795 36.2601 15.5434C36.2601 17.4224 37.1272 18.5 38.639 18.5C39.5135 18.5 40.3893 18.234 41.1254 17.7475L41.2027 18.0587C41.2204 18.1298 41.2589 18.1926 41.3124 18.2373C41.3658 18.282 41.4311 18.3062 41.4984 18.3062H42.9595C43.0407 18.3062 43.1186 18.2709 43.1761 18.2079C43.2335 18.1449 43.2658 18.0595 43.2658 17.9705V11.9347C43.2658 9.34068 42.2803 8.37636 39.63 8.37636H39.6301ZM47.7995 12.2805C46.6768 11.9632 46.6768 11.9505 46.6768 11.2753C46.6768 10.8219 46.7179 10.6041 47.6428 10.6041C48.2763 10.6041 49.2113 10.7256 49.8116 10.8382C49.8943 10.8536 49.9789 10.8315 50.046 10.7764C50.0792 10.7493 50.1071 10.7151 50.128 10.6759C50.1488 10.6367 50.1622 10.5933 50.1673 10.5482L50.3379 9.03679C50.3472 8.95447 50.3284 8.87128 50.2851 8.80325C50.2418 8.73522 50.177 8.68715 50.1033 8.66831C49.4091 8.49094 48.4431 8.37625 47.6427 8.37625C44.8603 8.37625 44.2902 9.52743 44.2902 11.2555C44.2902 13.1557 44.6122 13.7943 46.7447 14.3637C48.1484 14.7341 48.1484 15.0093 48.1484 15.4656C48.1484 16.0649 48.1018 16.2722 47.1827 16.2722C46.4427 16.2722 45.5863 16.146 44.8329 15.9258C44.792 15.9138 44.7494 15.9113 44.7076 15.9183C44.6658 15.9253 44.6257 15.9418 44.59 15.9666C44.5543 15.9914 44.5237 16.024 44.5 16.0625C44.4764 16.1009 44.4603 16.1443 44.4527 16.1899L44.2135 17.6241C44.2001 17.7041 44.2137 17.7867 44.2517 17.8566C44.2898 17.9265 44.3497 17.9788 44.4203 18.0038C45.242 18.2961 46.4215 18.4999 47.2889 18.4999C49.9829 18.4999 50.535 17.2637 50.535 15.4073C50.535 13.3576 50.2028 12.9777 47.7994 12.2803M54.7903 12.2805C53.6677 11.9632 53.6677 11.9505 53.6677 11.2753C53.6677 10.8219 53.7087 10.6041 54.6336 10.6041C55.2672 10.6041 56.2021 10.7256 56.8025 10.8382C56.8852 10.8536 56.9698 10.8315 57.0369 10.7764C57.0701 10.7493 57.098 10.7151 57.1189 10.6759C57.1397 10.6367 57.1531 10.5933 57.1582 10.5482L57.3287 9.03679C57.3381 8.95449 57.3193 8.8713 57.276 8.80327C57.2328 8.73523 57.168 8.68716 57.0944 8.66831C56.3999 8.49094 55.434 8.37625 54.6336 8.37625C51.8513 8.37625 51.2812 9.52743 51.2812 11.2555C51.2812 13.1557 51.6031 13.7943 53.7357 14.3637C55.1395 14.7341 55.1395 15.0093 55.1395 15.4656C55.1395 16.0649 55.0928 16.2722 54.1735 16.2722C53.4335 16.2722 52.5771 16.146 51.8238 15.9258C51.7829 15.9138 51.7403 15.9113 51.6985 15.9184C51.6567 15.9254 51.6167 15.9419 51.581 15.9667C51.5452 15.9914 51.5145 16.024 51.4909 16.0625C51.4672 16.1009 51.4511 16.1443 51.4435 16.1899L51.2043 17.6241C51.1909 17.7041 51.2045 17.7867 51.2425 17.8566C51.2806 17.9265 51.3405 17.9788 51.4111 18.0038C52.2328 18.2961 53.4123 18.4999 54.2797 18.4999C56.9737 18.4999 57.5258 17.2637 57.5258 15.4073C57.5258 13.3576 57.1936 12.9777 54.7902 12.2803M60.7426 8.57046H58.9334C58.8521 8.57046 58.7743 8.6058 58.7168 8.66872C58.6594 8.73165 58.6271 8.81699 58.627 8.906V17.9705C58.627 18.0595 58.6593 18.1449 58.7168 18.2079C58.7742 18.2709 58.8521 18.3062 58.9334 18.3062H60.7426C60.8238 18.3062 60.9017 18.2709 60.9592 18.2079C61.0166 18.1449 61.0489 18.0595 61.0489 17.9705V8.90579C61.0489 8.72032 60.9118 8.57024 60.7426 8.57024M66.6542 14.7366V15.9044C66.3542 16.0796 65.8109 16.3305 65.1572 16.3305C64.5932 16.3305 64.4213 16.142 64.4213 15.5236C64.4213 14.9233 64.5277 14.7365 65.1924 14.7365L66.6542 14.7366ZM65.4403 8.37636C64.5243 8.37636 63.4097 8.53464 62.6006 8.77991C62.5279 8.80182 62.4652 8.85241 62.4244 8.92196C62.3837 8.99151 62.3678 9.07512 62.3799 9.15671L62.5916 10.5964C62.6049 10.6862 62.6509 10.7661 62.7188 10.8181C62.7867 10.8704 62.871 10.89 62.9526 10.8723C63.7049 10.712 64.4816 10.6235 65.1395 10.6235C66.4455 10.6235 66.6542 10.9257 66.6542 11.8957V12.7415H64.7148C62.8614 12.7415 62.0704 13.5795 62.0704 15.5434C62.0704 17.4224 62.9375 18.5 64.4493 18.5C65.3238 18.5 66.1997 18.234 66.9356 17.7475L67.0131 18.0587C67.0307 18.1298 67.0693 18.1926 67.1227 18.2373C67.1761 18.282 67.2414 18.3062 67.3087 18.3062H68.7698C68.851 18.3062 68.9289 18.2709 68.9864 18.2079C69.0438 18.1449 69.0761 18.0595 69.0761 17.9705V11.9347C69.0761 9.34068 68.0907 8.37636 65.4403 8.37636ZM75.7677 8.37636C74.8086 8.37636 73.5026 8.73876 72.3991 9.30647L72.2671 8.81157C72.2485 8.74194 72.2097 8.68081 72.1567 8.63732C72.1038 8.59384 72.0393 8.57034 71.9731 8.57035H70.6332C70.552 8.57035 70.4741 8.6057 70.4167 8.66862C70.3592 8.73154 70.3269 8.81689 70.3269 8.9059V17.9704C70.3269 18.0594 70.3591 18.1448 70.4166 18.2078C70.474 18.2708 70.5519 18.3061 70.6332 18.3061H72.4424C72.5237 18.3061 72.6016 18.2708 72.659 18.2078C72.7164 18.1448 72.7487 18.0594 72.7487 17.9704V11.6926C73.4004 11.3291 74.3167 10.9534 74.8651 10.9534C75.2726 10.9534 75.4241 11.1195 75.4241 11.566V17.9704C75.424 18.0145 75.4319 18.0582 75.4473 18.0989C75.4627 18.1397 75.4853 18.1767 75.5137 18.2079C75.5422 18.2391 75.5759 18.2639 75.6131 18.2808C75.6503 18.2977 75.6901 18.3064 75.7304 18.3064H77.5396C77.6208 18.3064 77.6987 18.271 77.7562 18.208C77.8136 18.145 77.8459 18.0596 77.8459 17.9706V11.314C77.8459 9.36467 77.1468 8.37636 75.7679 8.37636M60.6453 4.85278H58.8361C58.7549 4.85278 58.677 4.88816 58.6195 4.95113C58.5621 5.01409 58.5298 5.0995 58.5298 5.18854V6.94196C58.5298 7.03101 58.5621 7.11641 58.6195 7.17938C58.677 7.24235 58.7549 7.27772 58.8361 7.27772H60.6453C60.7266 7.27772 60.8045 7.24235 60.8619 7.17938C60.9194 7.11641 60.9516 7.03101 60.9516 6.94196V5.18854C60.9516 5.0995 60.9194 5.01409 60.8619 4.95113C60.8045 4.88816 60.7266 4.85278 60.6453 4.85278Z" fill="#555963"/>
<path fill-rule="evenodd" clip-rule="evenodd" d="M15.3907 4.90987C15.3328 4.86154 15.262 4.83533 15.1892 4.83526C15.1493 4.83526 15.1092 4.84336 15.071 4.85935C14.3546 5.15962 13.6273 5.38762 12.9632 5.5572C12.8279 5.59184 12.7185 5.70216 12.673 5.83434C12.1893 7.28696 10.9541 8.66997 9.65805 10.1188C9.60603 10.1729 9.53319 10.2443 9.41456 10.2443C9.29622 10.2443 9.22397 10.175 9.17107 10.1188C7.87526 8.66997 6.63994 7.29197 6.15617 5.83913C6.11076 5.70696 6.00127 5.59664 5.86611 5.562C5.20177 5.3923 4.47247 5.15727 3.75699 4.85711C3.71911 4.84125 3.67891 4.83309 3.63836 4.83302C3.56615 4.83281 3.49592 4.85882 3.43863 4.907C3.39421 4.94421 3.35912 4.99316 3.33662 5.04926C3.31412 5.10536 3.30496 5.1668 3.30998 5.22784C3.41986 6.43572 3.8551 7.61654 4.64089 8.85405C5.37952 10.0174 6.34297 11.0942 7.27442 12.1356C8.9907 14.0544 10.6121 15.8668 10.7543 17.9684C10.7605 18.0599 10.798 18.1454 10.8593 18.2079C10.9207 18.2703 11.0013 18.305 11.0849 18.3049H13.1013C13.1462 18.3049 13.1907 18.2948 13.2319 18.2754C13.2732 18.2559 13.3105 18.2275 13.3414 18.1918C13.3724 18.1562 13.3964 18.114 13.4121 18.0678C13.4278 18.0217 13.4347 17.9725 13.4326 17.9233C13.3691 16.5183 12.8867 15.1111 11.9579 13.6221C11.7617 13.3089 11.5544 13.0043 11.3365 12.7088C11.248 12.5876 11.2852 12.4372 11.353 12.3613C11.4198 12.2862 11.4872 12.2112 11.5548 12.1353C12.4864 11.094 13.4496 10.0172 14.1884 8.85373C14.9741 7.61622 15.4095 6.44233 15.5192 5.23466C15.5302 5.11336 15.4799 4.98449 15.3906 4.90977M18.3283 0.685468C18.2891 0.628055 18.2382 0.581416 18.1798 0.549229C18.1213 0.517043 18.0568 0.50019 17.9914 0.5C17.9233 0.5 17.856 0.51876 17.7971 0.554042C15.3255 2.03704 12.4606 2.82155 9.51161 2.82229C6.56273 2.82133 3.69767 2.03704 1.22634 0.553935C1.16668 0.518606 1.09995 0.500073 1.03215 0.5C0.899903 0.5 0.774075 0.569284 0.695214 0.685042C0.578235 0.855587 0.574638 1.14168 0.773686 1.31201C2.01154 2.32356 3.376 3.11339 4.82934 3.65338C6.33577 4.21362 7.91085 4.49811 9.51102 4.49886H9.51219C11.1125 4.49811 12.6876 4.21362 14.194 3.65338C15.6474 3.11318 17.0118 2.32356 18.2512 1.31073C18.4489 1.14146 18.4451 0.855374 18.3283 0.685361M7.25079 13.7701C7.20315 13.7154 7.13313 13.6596 7.01548 13.6596C6.86495 13.6596 6.77559 13.7736 6.74184 13.8301C5.89372 15.2448 5.45566 16.5802 5.39508 17.9219C5.3907 18.0209 5.42396 18.1191 5.48648 18.1916C5.51771 18.2272 5.55515 18.2556 5.59658 18.275C5.63801 18.2944 5.68258 18.3045 5.72764 18.3046H7.74069C7.91377 18.3046 8.05963 18.1561 8.07247 17.9667C8.11622 17.3201 8.3 16.6719 8.63431 15.9905C8.75022 15.755 8.66018 15.5336 8.59347 15.4389C8.26169 14.966 7.85543 14.4615 7.25089 13.77M9.41651 5.99262C10.0484 5.99262 10.4149 5.95105 10.5437 5.95105C10.6996 5.95105 10.8486 6.09111 10.8486 6.28724C10.8486 6.34459 10.8363 6.3853 10.824 6.42155C10.7402 6.66713 10.3583 7.55077 9.64725 8.30884C9.56752 8.3938 9.47709 8.40968 9.41485 8.40968H9.41388C9.35194 8.40968 9.26151 8.39369 9.18187 8.30884C8.47066 7.55077 8.08861 6.66713 8.00498 6.42155C7.99263 6.3853 7.98028 6.34459 7.98028 6.28724C7.98028 6.09111 8.12945 5.95105 8.28542 5.95105C8.41426 5.95105 8.78066 5.99262 9.41242 5.99262H9.41651Z" fill="#555963"/>
</svg>
