<svg width="400" height="401" viewBox="0 0 400 401" fill="none" xmlns="http://www.w3.org/2000/svg">
<path d="M164.066 294.564C163.972 294.53 163.895 294.461 163.852 294.371C163.808 294.281 163.803 294.178 163.836 294.084C163.869 293.989 163.938 293.912 164.028 293.869C164.118 293.826 164.222 293.82 164.316 293.854C178.351 298.768 193.335 300.359 208.09 298.504C208.188 298.493 208.286 298.521 208.364 298.582C208.441 298.643 208.492 298.733 208.504 298.83C208.516 298.928 208.49 299.027 208.43 299.106C208.37 299.184 208.282 299.236 208.184 299.25C193.313 301.12 178.212 299.516 164.066 294.564Z" fill="#1890ff"/>
<path d="M237.2 289.92C258.113 279.901 274.664 262.612 283.76 241.282C283.799 241.19 283.873 241.117 283.966 241.08C284.059 241.043 284.162 241.044 284.254 241.084C284.346 241.123 284.418 241.197 284.455 241.29C284.492 241.382 284.491 241.486 284.452 241.578C275.285 263.076 258.605 280.501 237.528 290.6C237.438 290.643 237.334 290.649 237.24 290.616C237.145 290.583 237.067 290.514 237.024 290.424C236.981 290.333 236.975 290.23 237.008 290.135C237.041 290.041 237.11 289.963 237.2 289.92Z" fill="#1890ff"/>
<path d="M291.686 200.834C291.587 200.834 291.492 200.797 291.421 200.729C291.349 200.661 291.307 200.568 291.302 200.47C290.86 187.275 287.653 174.32 281.888 162.444C281.866 162.399 281.854 162.351 281.851 162.301C281.848 162.252 281.855 162.203 281.871 162.156C281.888 162.109 281.913 162.066 281.946 162.029C281.979 161.992 282.018 161.962 282.063 161.941C282.153 161.897 282.256 161.891 282.351 161.924C282.397 161.94 282.441 161.966 282.477 161.998C282.514 162.031 282.544 162.071 282.566 162.116C288.376 174.087 291.609 187.144 292.054 200.444C292.057 200.544 292.019 200.642 291.951 200.715C291.882 200.788 291.786 200.831 291.686 200.834Z" fill="#1890ff"/>
<path d="M267.788 141.152C253.1 124.359 232.988 113.248 210.954 109.752C210.855 109.736 210.767 109.682 210.708 109.602C210.649 109.521 210.625 109.42 210.64 109.322C210.655 109.223 210.709 109.135 210.79 109.076C210.871 109.017 210.971 108.992 211.07 109.008C233.281 112.534 253.551 123.738 268.354 140.668C268.403 140.744 268.422 140.836 268.409 140.925C268.396 141.015 268.35 141.097 268.281 141.156C268.213 141.215 268.125 141.247 268.034 141.246C267.943 141.245 267.856 141.212 267.788 141.152Z" fill="#1890ff"/>
<path d="M107.662 166.082C115.603 147.675 129.082 132.201 146.225 121.81C163.369 111.42 183.324 106.63 203.316 108.108C203.415 108.115 203.508 108.162 203.573 108.238C203.638 108.314 203.67 108.412 203.662 108.512C203.654 108.611 203.607 108.703 203.532 108.768C203.456 108.833 203.357 108.865 203.258 108.858C183.424 107.397 163.627 112.151 146.619 122.459C129.61 132.767 116.236 148.118 108.354 166.378C108.315 166.469 108.241 166.542 108.148 166.579C108.055 166.616 107.952 166.615 107.86 166.576C107.768 166.536 107.696 166.462 107.659 166.37C107.622 166.277 107.623 166.173 107.662 166.082Z" fill="#1890ff"/>
<path d="M144.236 284.882C128.481 274.769 116.014 260.284 108.359 243.2C100.704 226.116 98.1917 207.171 101.13 188.682C101.146 188.583 101.2 188.495 101.281 188.436C101.362 188.378 101.463 188.354 101.562 188.37C101.661 188.386 101.749 188.44 101.807 188.521C101.866 188.602 101.89 188.703 101.874 188.802C98.9596 207.145 101.453 225.939 109.048 242.888C116.644 259.837 129.013 274.206 144.644 284.238C144.729 284.292 144.79 284.378 144.812 284.476C144.834 284.575 144.816 284.678 144.762 284.764C144.708 284.849 144.622 284.909 144.523 284.932C144.425 284.954 144.321 284.936 144.236 284.882Z" fill="#1890ff"/>
<path d="M353.318 177.538C330.47 180.318 309.546 181.976 287.286 180.49C288.744 181.281 290.148 182.17 291.486 183.152C289.736 188.018 287.434 193.822 287.752 198.552C280.206 202.906 270.314 205.724 264.228 203.912C257.99 190.688 256.344 183.126 256.488 177.972C256.578 175.403 257.123 172.87 258.098 170.492L253.96 176.434L201.502 144.512C202.147 140.645 203.573 136.95 205.693 133.652C207.812 130.354 210.581 127.521 213.83 125.328C228.82 134.082 264.388 157.682 267.664 157.946C267 166.549 267.851 175.202 270.178 183.512C273.822 174.691 278.723 166.444 284.728 159.026C302.296 161.764 326.766 157.772 351.65 155.116C348.224 155.392 348.01 169.928 351.34 175.816C351.956 176.908 352.64 177.538 353.318 177.538Z" fill="#FFE7EA"/>
<path d="M168.4 212.464C156.867 211.57 145.296 211.259 133.732 211.532C134.449 209.068 134.877 206.53 135.01 203.968C125.5 206.432 116.322 206.476 104.122 204.746C104.122 204.69 104.122 204.638 104.122 204.584C98.444 208.324 93.42 220.984 97.082 231.222L87.178 252.174L59.13 234.26C50.674 239.558 46.42 246.282 43.33 256.65L78.708 280.882C81.0824 282.508 83.774 283.614 86.606 284.127C89.4381 284.64 92.3466 284.548 95.1405 283.857C97.9345 283.166 100.551 281.893 102.818 280.119C105.085 278.346 106.951 276.113 108.294 273.568L119.61 252.078L106.21 241.66C117.476 247.78 139.344 246.084 152.144 244.5C148.785 257.893 146.156 271.459 144.268 285.138C151.481 290.004 160.285 291.921 168.868 290.494C175.275 272.515 180.691 254.198 185.092 235.626C185.756 232.988 185.835 230.238 185.324 227.566C184.814 224.895 183.725 222.368 182.135 220.161C180.545 217.955 178.492 216.123 176.119 214.793C173.746 213.463 171.112 212.668 168.4 212.464Z" fill="#FFE7EA"/>
<path d="M190.302 134.382C188.916 136.92 186.692 138.9 184.01 139.982C181.389 134.911 177.631 130.516 173.03 127.14C175.644 123.948 178.112 118.244 178 115.282C177.703 111.925 177.123 108.599 176.268 105.34C176.116 104.622 177.068 103.726 179.3 107.702C179.472 108.012 179.624 108.302 179.992 108.966C179.57 106.042 178.58 102.31 178.202 100.016C178.078 99.2456 179.142 98.3416 181.302 102.692C181.594 103.268 181.936 104.092 182.592 105.492C182.956 101.452 182.97 97.5716 182.98 94.3956C182.98 94.0676 183.47 93.6116 183.744 93.7956C186.128 95.3336 189.316 111.57 188.472 119.91C188.926 118.51 189.394 117.016 189.794 115.682C191.17 111.082 192.73 110.824 193.234 113.842C194.224 120.828 193.207 127.951 190.302 134.382Z" fill="#FFE7EA"/>
<path d="M211.374 73.0157C211.374 76.0528 210.473 79.0217 208.786 81.547C207.099 84.0723 204.7 86.0405 201.894 87.2028C199.089 88.365 196.001 88.6691 193.022 88.0766C190.043 87.4841 187.307 86.0216 185.16 83.874C183.012 81.7264 181.55 78.9902 180.957 76.0115C180.365 73.0327 180.669 69.9451 181.831 67.1392C182.993 64.3332 184.961 61.935 187.487 60.2476C190.012 58.5603 192.981 57.6597 196.018 57.6597C200.091 57.6597 203.997 59.2775 206.876 62.1573C209.756 65.0371 211.374 68.943 211.374 73.0157Z" fill="#1890ff"/>
<path d="M196.018 83.3796C195.753 83.3796 195.498 83.2743 195.311 83.0867C195.123 82.8992 195.018 82.6448 195.018 82.3796V70.9796C195.018 70.7144 195.123 70.4601 195.311 70.2725C195.498 70.085 195.753 69.9796 196.018 69.9796C196.283 69.9796 196.538 70.085 196.725 70.2725C196.913 70.4601 197.018 70.7144 197.018 70.9796V82.3796C197.018 82.6448 196.913 82.8992 196.725 83.0867C196.538 83.2743 196.283 83.3796 196.018 83.3796Z" fill="white"/>
<path d="M196.018 62.6657C195.61 62.6685 195.212 62.792 194.874 63.0208C194.536 63.2496 194.273 63.5733 194.119 63.9512C193.965 64.3291 193.926 64.7441 194.008 65.144C194.089 65.5439 194.287 65.9107 194.577 66.1982C194.866 66.4856 195.235 66.6809 195.635 66.7592C196.036 66.8376 196.451 66.7956 196.827 66.6385C197.204 66.4814 197.526 66.2163 197.752 65.8766C197.978 65.5369 198.098 65.1378 198.098 64.7297C198.103 64.4559 198.052 64.184 197.949 63.9303C197.846 63.6766 197.693 63.4464 197.499 63.2535C197.304 63.0606 197.073 62.9091 196.819 62.8081C196.564 62.7071 196.292 62.6586 196.018 62.6657Z" fill="white"/>
<path d="M118.954 171.746C109.9 173.298 103.742 162.232 103.742 162.232C104.229 162.468 104.759 162.601 105.299 162.623C105.84 162.646 106.379 162.556 106.883 162.361C107.388 162.166 107.846 161.868 108.231 161.488C108.615 161.108 108.917 160.652 109.118 160.15C109.633 157.004 108.917 153.781 107.118 151.15C107.31 150.392 107.29 149.597 107.061 148.85C106.833 148.103 106.403 147.434 105.82 146.914C102.694 144.584 104.82 141.76 106.8 143.694C108.554 145.408 108 142.894 106.742 140.676C107.002 140.897 107.314 141.05 107.649 141.121C107.983 141.191 108.33 141.176 108.658 141.078C108.986 140.98 109.283 140.802 109.524 140.559C109.765 140.317 109.942 140.018 110.038 139.69C110.285 139.883 110.571 140.019 110.876 140.089C111.182 140.159 111.499 140.16 111.805 140.092C112.111 140.025 112.398 139.89 112.646 139.699C112.893 139.507 113.096 139.263 113.238 138.984C114.638 139.952 116.504 139.348 116.598 137.882C124.764 152.258 122.744 155.354 113.102 154.344L117.636 157.43C117.863 158.232 118.294 158.961 118.886 159.548C119.619 160.144 120.532 160.474 121.477 160.483C122.422 160.492 123.342 160.18 124.086 159.598L126.15 158.398C126.15 158.398 128 170.194 118.954 171.746Z" fill="#FFE7EA"/>
<path d="M45.18 161.724C41.1706 161.817 37.232 160.656 33.914 158.404C31.278 156.79 30.714 157.892 32.348 160.558C32.8285 161.431 33.0071 162.439 32.856 163.424C30.2055 163.945 27.5834 164.601 25 165.39C10.704 169.99 18.752 169.942 23.246 169.08C21.239 169.691 19.2736 170.431 17.362 171.296C6.98398 176.024 8.31198 178.132 20.362 173.988C18.8126 174.801 17.3121 175.704 15.868 176.692C12.372 179.072 13.69 179.728 17.166 178.662C18.926 178.126 20.892 177.518 22.33 177.042C21.3413 177.601 20.3918 178.227 19.488 178.916C15.536 181.902 17.43 182.666 21 181.482C29.22 178.75 40.522 176.8 45.778 177.082C44.472 172.066 44.268 166.826 45.18 161.724Z" fill="#FFE7EA"/>
<path d="M329.33 104.282L324.146 99.1217C323.858 98.835 323.629 98.4944 323.473 98.1193C323.317 97.7443 323.236 97.3421 323.235 96.9357C323.234 96.5294 323.313 96.1268 323.468 95.751C323.622 95.3753 323.849 95.0336 324.136 94.7457C324.423 94.4577 324.763 94.229 325.138 94.0726C325.513 93.9162 325.916 93.8353 326.322 93.8344C326.728 93.8334 327.131 93.9125 327.507 94.0672C327.882 94.2218 328.224 94.449 328.512 94.7356L329.312 95.5356L330.112 94.7356C330.399 94.4477 330.739 94.219 331.114 94.0626C331.489 93.9062 331.892 93.8253 332.298 93.8243C332.704 93.8234 333.107 93.9025 333.483 94.0572C333.858 94.2118 334.2 94.439 334.488 94.7256C334.776 95.0123 335.005 95.3529 335.161 95.728C335.317 96.103 335.398 96.5052 335.399 96.9116C335.4 97.3179 335.321 97.7205 335.167 98.0963C335.012 98.472 334.785 98.8137 334.498 99.1016L329.33 104.282Z" fill="#1890ff"/>
<path d="M75.086 124.836C74.1897 124.833 73.3071 124.615 72.513 124.199C71.719 123.784 71.0367 123.183 70.524 122.447C70.0113 121.712 69.6833 120.864 69.5676 119.976C69.452 119.087 69.5522 118.183 69.8597 117.341C70.1672 116.499 70.673 115.744 71.3343 115.139C71.9956 114.534 72.7929 114.097 73.6587 113.865C74.5246 113.634 75.4335 113.614 76.3086 113.808C77.1837 114.002 77.9991 114.404 78.686 114.98C79.5612 115.718 80.1885 116.707 80.4828 117.814C80.7771 118.92 80.7243 120.091 80.3315 121.166C79.9386 122.242 79.2247 123.17 78.2865 123.827C77.3483 124.483 76.231 124.835 75.086 124.836ZM71.4 116.152C70.8896 116.76 70.5371 117.485 70.3737 118.262C70.2103 119.039 70.2411 119.844 70.4633 120.606C70.6855 121.368 71.0923 122.064 71.6476 122.632C72.2029 123.199 72.8896 123.621 73.6469 123.86C74.4041 124.098 75.2086 124.147 75.989 124C76.7693 123.854 77.5015 123.517 78.1207 123.02C78.7399 122.523 79.2269 121.881 79.5387 121.151C79.8504 120.42 79.9773 119.625 79.908 118.834C79.8219 117.884 79.4569 116.981 78.8589 116.238C78.2608 115.496 77.4565 114.946 76.547 114.66C75.6376 114.373 74.6637 114.362 73.7478 114.627C72.832 114.893 72.0151 115.423 71.4 116.152Z" fill="#1890ff"/>
<path d="M288.188 299.268H280.348V291.418C280.348 291.319 280.309 291.225 280.24 291.156C280.17 291.087 280.076 291.048 279.978 291.048C279.88 291.048 279.786 291.087 279.716 291.156C279.647 291.225 279.608 291.319 279.608 291.418V299.258H271.754C271.656 299.258 271.562 299.297 271.492 299.366C271.423 299.435 271.384 299.529 271.384 299.628C271.384 299.726 271.423 299.82 271.492 299.889C271.562 299.959 271.656 299.998 271.754 299.998H279.594V307.85C279.59 307.901 279.597 307.952 279.614 308C279.631 308.048 279.658 308.093 279.693 308.13C279.727 308.168 279.77 308.197 279.816 308.218C279.863 308.238 279.914 308.249 279.965 308.249C280.016 308.249 280.067 308.238 280.114 308.218C280.161 308.197 280.203 308.168 280.238 308.13C280.272 308.093 280.299 308.048 280.316 308C280.333 307.952 280.34 307.901 280.336 307.85V300.012H288.188C288.237 300.012 288.285 300.002 288.33 299.983C288.376 299.965 288.417 299.937 288.451 299.903C288.486 299.868 288.513 299.827 288.532 299.782C288.55 299.737 288.56 299.688 288.56 299.64C288.56 299.591 288.55 299.542 288.532 299.497C288.513 299.452 288.486 299.411 288.451 299.377C288.417 299.342 288.376 299.315 288.33 299.296C288.285 299.277 288.237 299.268 288.188 299.268Z" fill="#1890ff"/>
<path d="M109.662 311.078L112.012 315.842L117.27 316.606L113.466 320.314L114.364 325.55L109.662 323.078L104.96 325.55L105.858 320.314L102.054 316.606L107.31 315.842L109.662 311.078Z" fill="#1890ff"/>
<path d="M355.072 170.176C357.456 169.231 359.615 167.797 361.411 165.966C363.207 164.136 364.599 161.949 365.498 159.548C365.533 159.454 365.529 159.35 365.488 159.259C365.446 159.168 365.371 159.098 365.277 159.063C365.183 159.028 365.08 159.031 364.989 159.073C364.898 159.114 364.827 159.19 364.792 159.284C363.926 161.59 362.587 163.689 360.86 165.446C359.133 167.203 357.057 168.578 354.766 169.484C354.721 169.504 354.679 169.533 354.645 169.569C354.611 169.605 354.584 169.647 354.566 169.693C354.53 169.787 354.532 169.891 354.573 169.983C354.614 170.074 354.689 170.146 354.782 170.183C354.876 170.219 354.98 170.216 355.072 170.176Z" fill="#1890ff"/>
<path d="M390 204.392C389.38 199.292 372.834 206.874 364.47 206.164C362.478 205.948 360.464 206.126 358.54 206.686C354.664 207.886 354.14 211.416 348.428 215.086C347.093 214.242 345.699 213.496 344.256 212.854C343.888 212.806 345.306 211.654 314.674 240.018C313.788 235.164 307.724 206.168 288.122 198.29C287.862 192.958 290.908 186.204 292.586 181.162C313.694 182.11 332.764 180.378 353.416 177.91C354.402 177.874 355.078 176.8 355.458 175.87C365.412 175.162 364.49 175.382 371.438 174.422C373.894 174.084 382.964 173.246 382.728 171.068C382.632 170.198 381.086 169.8 378.128 169.888C376.972 169.922 375.86 169.888 374.826 169.834C377.662 169.292 381.318 168.406 381.376 168.392C382.736 168.054 385.874 167.124 385.664 165.834C385.52 164.962 383.952 164.634 381.006 164.868C378.52 165.068 376.322 165.152 374.552 165.186C376.692 164.572 379.806 163.686 382.552 162.934C385.338 162.172 386.888 161.154 386.696 160.216C386.46 159.066 383.984 159.16 381.948 159.44C381.486 159.504 377.016 160.062 373.636 160.482L378.848 158.106C381.482 156.906 382.848 155.662 382.512 154.766C382.098 153.668 379.668 154.152 377.712 154.75C376.85 155.014 368.912 157.374 367.672 157.55C365.832 157.822 365.136 157.586 365.088 157.426C364.266 154.826 367.736 147.76 365.014 146.88C364.514 146.722 362.998 146.24 359.108 154.39C358.194 156.304 356.724 156.764 354.19 156.908C353.638 155.852 352.72 154.598 351.542 154.752C325.342 157.552 302.1 161.366 284.802 158.658C283.934 158.539 283.103 158.229 282.368 157.751C281.634 157.274 281.014 156.639 280.554 155.894C306.474 150.308 329.894 122.912 323.4 117.538C317.738 112.858 304.126 123.39 300.66 126.226C301.082 123.214 300.422 121.212 298.69 120.268C293.238 117.292 278.49 126.388 272.578 132.144C271.044 133.563 269.857 135.316 269.11 137.268C266.588 142.89 266.066 146.892 267.556 149.166C268.067 149.853 268.74 150.404 269.516 150.768C270.291 151.133 271.144 151.3 272 151.256C271.682 154.056 270.52 157.192 267.724 157.574C264.758 157.426 228.662 133.558 214.018 125.004C213.957 124.968 213.887 124.95 213.816 124.952C213.745 124.954 213.677 124.976 213.618 125.016C212.98 125.442 212.366 125.888 211.776 126.348C211.576 126.184 211.394 126.014 211.216 125.838C208.192 121.39 209.494 116.46 210.748 111.498C211.41 108.876 213.526 104.16 214.312 101.266C214.381 101.061 214.375 100.838 214.294 100.637C214.214 100.437 214.064 100.272 213.872 100.172C212.386 99.5197 210.072 103.626 209.22 105.01C209.798 101.966 210.476 98.7837 210.732 96.1897C210.747 96.0477 210.723 95.9043 210.663 95.7745C210.604 95.6448 210.511 95.5333 210.394 95.4516C210.276 95.37 210.14 95.3212 209.997 95.3103C209.855 95.2994 209.712 95.3268 209.584 95.3897C207.062 96.6817 201.4 109.902 200.458 118.682C199.924 116.764 198.748 112.248 196.746 112.548C196 112.658 195.546 113.486 195.536 114.764C195.52 120.028 195.468 124.646 195.196 131.94C195.07 135.294 198.796 138.606 202.042 140.846C201.674 142.042 201.369 143.257 201.128 144.486C201.102 144.886 197.428 142.474 256.106 178.184C255.996 184.338 258.434 192.512 263.768 203.854L231.18 238.734C225.233 245.108 220.883 252.802 218.488 261.184C205.832 305.616 206.228 303.93 206.288 304.222C207.009 304.924 207.793 305.56 208.628 306.122C207.116 314.052 204.852 321.821 201.866 329.322C197.066 340.192 197.01 342.366 197.584 343.062C200.858 347.032 210.686 331.73 218.134 327.814C219.928 326.923 221.53 325.688 222.848 324.18C225.474 321.06 224.084 317.598 226.934 311.406C228.617 311.298 230.289 311.057 231.934 310.684C232.22 310.554 231.288 313.584 244.716 264.96L279.264 234.742L299.324 265.286C300.545 267.144 302.155 268.716 304.042 269.892C305.93 271.068 308.05 271.821 310.257 272.098C312.463 272.375 314.704 272.17 316.823 271.497C318.943 270.824 320.891 269.699 322.534 268.2C362.462 231.75 360.97 233.23 361.002 232.958C360.627 231.375 360.126 229.826 359.504 228.324C365.74 223.104 372.243 218.212 378.986 213.668C388.876 207.082 390.098 205.282 390 204.392ZM314.04 240.82C314.394 244.706 314.456 245.996 314.44 246.482C314.418 248.016 314.868 247.834 315.276 247.238C315.95 246.258 318.05 242.856 325.654 230.86L344.222 213.66C347.037 214.935 349.638 216.638 351.932 218.71L316.146 251.11C315.56 251.639 314.847 252.009 314.077 252.185C313.307 252.362 312.505 252.337 311.746 252.115C310.988 251.893 310.3 251.481 309.746 250.917C309.192 250.354 308.792 249.658 308.584 248.896C302.298 225.844 297.974 212.166 282.984 201.374C284.624 200.657 286.226 199.856 287.784 198.974C308.736 207.344 314 240.482 314.04 240.82ZM381.064 165.62C384.518 165.35 384.92 165.956 384.92 165.956C384.92 166.156 384.036 166.956 381.194 167.664C378.109 168.468 374.979 169.085 371.82 169.514C370.856 169.425 369.899 169.274 368.954 169.064C369.338 168.037 369.64 166.981 369.856 165.906C373.594 166.022 377.337 165.925 381.064 165.616V165.62ZM382.064 160.188C385.176 159.758 385.95 160.252 385.972 160.368C386.01 160.546 385.236 161.426 382.372 162.21C370.372 165.492 372.572 165.268 370 165.16C370.174 164.006 370.241 162.838 370.2 161.672C371.734 161.482 381.94 160.2 382.056 160.184L382.064 160.188ZM359.792 154.716C362.454 149.138 364.148 147.394 364.792 147.6C366.49 148.146 363.592 155.16 364.378 157.652C364.462 157.924 364.718 158.752 367.79 158.296C369.19 158.096 377.854 155.496 377.938 155.472C380.938 154.56 381.786 154.924 381.826 155.032C381.89 155.204 381.264 156.192 378.556 157.432C370.088 161.282 371.542 160.758 370.172 160.926C370.14 160.454 370.096 159.97 370.032 159.47C370.018 159.372 369.966 159.284 369.888 159.224C369.809 159.164 369.711 159.137 369.613 159.15C369.515 159.162 369.426 159.212 369.365 159.29C369.304 159.367 369.275 159.466 369.286 159.564C369.85 164.212 368.835 168.914 366.404 172.916C366.358 173.004 366.349 173.107 366.379 173.203C366.41 173.298 366.476 173.377 366.565 173.423C366.654 173.469 366.757 173.477 366.852 173.447C366.947 173.417 367.026 173.35 367.072 173.262C367.694 172.062 368.238 170.914 368.692 169.782C371.805 170.433 374.982 170.724 378.162 170.65C381.082 170.566 381.922 171.004 381.984 171.156C381.96 171.368 380.972 172.13 377.984 172.696C375.514 173.162 374.688 173.224 371.334 173.686C362.534 174.902 360.914 174.62 351.558 175.432C349.257 169.879 348.713 163.753 350 157.882C354.716 157.568 358.158 158.11 359.784 154.712L359.792 154.716ZM272.06 154.38C274.688 151.88 275.592 151.034 275.904 150.704C276.248 150.342 276.058 150.028 275.6 150.034C274.565 150.327 273.497 150.488 272.422 150.512C265.572 150.546 266.986 143.852 269.8 137.576C271.01 134.87 273.338 130.894 275.964 132.306C278.026 133.418 279.43 137.396 279.216 139.95C279.19 140.163 279.225 140.38 279.317 140.574C279.409 140.769 279.553 140.933 279.734 141.05C280.176 141.26 280.768 141.066 281.716 140.392C284.218 138.602 285.716 142.922 280.844 145.024C280.386 145.224 279.886 146.412 279.824 146.67C278.378 152.47 278.328 157.696 284.076 159.256C278.45 166.285 273.801 174.043 270.256 182.32C268.182 174.487 267.424 166.363 268.012 158.282C268.978 158.062 269.865 157.582 270.577 156.893C271.29 156.204 271.8 155.334 272.052 154.376L272.06 154.38ZM210.922 103.72C212.804 100.72 213.582 100.866 213.582 100.866C213.126 102.652 212.541 104.402 211.832 106.104C211.024 108.043 210.355 110.037 209.832 112.072C208.778 115.293 208.448 118.708 208.864 122.072C207.312 117.82 207.924 112.272 208.848 107.042C209 106.892 208.778 107.112 210.914 103.716L210.922 103.72ZM195.948 131.966C196.218 124.73 196.272 120.098 196.288 114.766C196.288 113.808 196.588 113.33 196.854 113.29C197.306 113.23 198.29 114.09 199.116 116.77C200.358 120.794 201.68 126.57 201.692 126.62C201.714 126.717 201.774 126.802 201.859 126.855C201.943 126.908 202.046 126.925 202.143 126.903C202.24 126.88 202.325 126.82 202.378 126.736C202.431 126.651 202.448 126.549 202.426 126.452C202.426 126.414 201.826 123.852 201.076 120.964C201.098 112.576 207.676 97.2017 209.986 96.1157C209.106 105.042 203.418 120.074 211.186 126.828C206.998 130.295 203.906 134.902 202.284 140.092C199.686 138.282 195.834 135.05 195.948 131.966ZM256.862 177.984C256.984 175.452 257.525 172.957 258.462 170.602C258.484 170.53 258.484 170.454 258.461 170.382C258.439 170.311 258.395 170.248 258.336 170.202C257.902 169.842 257.892 170.144 253.858 175.932L201.93 144.332C202.576 140.599 203.963 137.034 206.01 133.846C208.058 130.659 210.724 127.915 213.85 125.776C227.918 134.016 262.45 156.818 267.266 158.246C266.65 166.786 267.514 175.368 269.82 183.614C269.842 183.689 269.887 183.756 269.948 183.805C270.01 183.854 270.086 183.882 270.164 183.886C270.243 183.89 270.321 183.87 270.387 183.827C270.453 183.785 270.505 183.723 270.534 183.65C274.126 174.928 278.963 166.772 284.892 159.436C302.092 162.118 327.86 158.066 350.196 155.656C347.438 159.39 348.368 173.958 352.006 177.324C308.368 182.574 290.606 180.124 287.266 180.124C287.171 180.122 287.079 180.156 287.009 180.219C286.939 180.282 286.895 180.37 286.887 180.465C286.879 180.559 286.908 180.653 286.966 180.727C287.025 180.801 287.11 180.85 287.204 180.864C287.65 181 290.684 183.064 291.036 183.308C289.396 187.838 287.13 193.628 287.368 198.358C281.406 201.796 271.046 205.49 264.482 203.602C259.112 192.192 256.692 184.052 256.862 177.984ZM222.262 323.684C221.007 325.119 219.481 326.292 217.772 327.138C210.772 330.822 200.582 345.514 198.154 342.574C197.894 342.258 197.802 340.374 202.544 329.616C205.527 322.175 207.788 314.466 209.298 306.594C214.22 309.983 220.109 311.684 226.08 311.442C223.508 317.266 224.6 320.912 222.264 323.682L222.262 323.684ZM244.128 264.458C243.928 264.634 244.494 262.898 231.486 310.004C228.71 310.61 225.862 310.825 223.026 310.64L235.98 261.04L273.88 228.12L275.898 236.682L244.128 264.458ZM299.946 264.858L273.966 225.31C273.917 225.236 273.844 225.182 273.76 225.157C273.676 225.132 273.585 225.137 273.504 225.172C273.423 225.206 273.357 225.268 273.317 225.347C273.277 225.426 273.266 225.516 273.286 225.602L273.686 227.292L235.4 260.552C235.2 260.726 235.78 258.832 222.266 310.576C216.65 309.968 211.35 307.672 207.066 303.99L219.206 261.39C221.57 253.122 225.861 245.534 231.728 239.248L264.34 204.338C269.74 205.832 276.976 203.882 282.178 201.72C297.292 212.424 301.39 225.35 307.866 249.094C308.107 249.981 308.573 250.792 309.217 251.448C309.861 252.105 310.663 252.585 311.546 252.843C312.429 253.101 313.364 253.128 314.26 252.921C315.156 252.715 315.985 252.282 316.666 251.664L352.492 219.232C356.258 222.956 358.926 227.645 360.202 232.786L322.022 267.634C320.46 269.06 318.607 270.13 316.591 270.77C314.575 271.41 312.444 271.605 310.345 271.341C308.247 271.078 306.23 270.362 304.435 269.243C302.64 268.125 301.109 266.63 299.948 264.862L299.946 264.858ZM378.562 213.028C371.862 217.55 365.393 222.407 359.182 227.58C357.049 222.68 353.551 218.497 349.106 215.53C354.622 211.886 355.204 208.506 358.754 207.4C360.585 206.868 362.503 206.702 364.398 206.91C372.398 207.596 388.784 200.664 389.242 204.478C389.294 204.882 388.35 206.532 378.564 213.032L378.562 213.028Z" fill="#1890ff"/>
<path d="M193.6 113.784C193.092 110.766 191.068 110.078 189.422 115.584C189.282 116.056 189.13 116.55 188.976 117.052C189.01 108.38 186.314 95.0217 183.942 93.4917C183.394 93.1317 182.596 93.7977 182.596 94.4097C182.596 97.5497 182.54 100.81 182.31 104.01L181.63 102.534C180.36 99.9737 179.23 98.7657 178.37 99.0437C178.169 99.123 178.003 99.2719 177.903 99.4632C177.803 99.6544 177.775 99.8754 177.824 100.086C178.084 101.668 178.802 104.664 179.236 106.868C178.074 104.95 177.112 104.12 176.374 104.398C176.184 104.484 176.03 104.635 175.942 104.825C175.854 105.014 175.837 105.229 175.894 105.43C176.742 108.668 177.318 111.972 177.616 115.306C177.718 118.006 175.466 123.428 172.928 126.658C172.614 126.421 172.244 126.268 171.855 126.215C171.465 126.162 171.068 126.21 170.702 126.354C156.169 138.801 140.482 149.834 123.854 159.302C123.177 159.833 122.339 160.119 121.479 160.113C120.618 160.106 119.785 159.807 119.116 159.266C118.113 157.997 117.525 156.45 117.434 154.836C118.2 154.855 118.96 154.696 119.654 154.372C120.348 154.048 120.957 153.567 121.434 152.968C122.99 150.59 121.634 146.026 116.908 137.7C116.068 136.216 115.128 134.628 114.118 132.98C112.836 130.886 110.292 130.82 109.784 132.1C108.226 131.168 105.818 131.514 105.412 133.036C105.084 132.789 104.702 132.625 104.298 132.555C103.894 132.486 103.479 132.515 103.087 132.638C102.696 132.761 102.34 132.976 102.049 133.265C101.757 133.554 101.539 133.908 101.412 134.298C101.095 134.112 100.736 134.012 100.369 134.007C100.002 134.002 99.64 134.093 99.3186 134.27C98.9973 134.447 98.7276 134.705 98.536 135.018C98.3444 135.331 98.2376 135.689 98.226 136.056C95.61 135.356 93.752 137.618 96.786 140.674C98.084 141.986 103.66 146.164 106.786 151.348C108.543 153.893 109.246 157.019 108.748 160.072C108.557 160.52 108.276 160.925 107.923 161.261C107.569 161.597 107.151 161.858 106.693 162.026C106.236 162.195 105.749 162.268 105.262 162.241C104.775 162.215 104.299 162.089 103.862 161.872C103.662 161.804 79.662 155.426 45.838 158.672C45.7652 158.68 45.6962 158.709 45.6392 158.755C45.5822 158.801 45.5394 158.862 45.516 158.932C45.26 159.732 45.042 160.55 44.87 161.354C41.0299 161.399 37.2701 160.253 34.108 158.074C32.708 157.224 31.806 157.046 31.322 157.526C30.8 158.048 31.038 159.126 32.026 160.746C32.4459 161.458 32.6049 162.293 32.476 163.11C29.9112 163.615 27.3744 164.253 24.876 165.022C16.134 167.852 16.366 168.682 16.504 169.184C16.704 169.878 18.242 169.958 19.876 169.84C18.032 170.542 9.31599 174.206 10.046 176.02C10.59 177.374 15.75 175.834 17.152 175.42C16.656 175.726 16.152 176.046 15.662 176.386C13.862 177.604 13.208 178.426 13.508 179.052C14.122 180.322 18.206 178.75 19.736 178.27C18.7 179.022 16.418 180.708 17 181.822C17.55 182.87 20 182.208 21.116 181.836C28.9845 179.213 37.189 177.735 45.478 177.446C45.666 178.226 45.8727 179.015 46.098 179.814C46.272 180.43 46.47 179.836 58.746 179.594C58.8036 179.61 58.8644 179.61 58.922 179.594C72.6249 179.308 86.3151 180.602 99.722 183.45C101.804 190.268 103.145 197.29 103.722 204.396C98.364 208.134 93 221.138 96.622 231.324L87.02 251.628C58 233.082 59.4 233.942 59.2 233.882C57.6275 234.711 56.158 235.723 54.822 236.896C54.09 236.468 53.746 236.126 52.896 235.536C48.65 232.594 44.772 229.12 42.118 228.692C39.663 228.514 37.1952 228.716 34.802 229.292C25.042 231.55 3.83999 230.582 12.052 236.156C18.504 240.54 38.816 248.614 44.5 252.014C43.8993 253.558 43.3885 255.136 42.97 256.74C43.044 257.016 41.652 255.952 78.506 281.186C80.9247 282.84 83.6655 283.964 86.5491 284.486C89.4326 285.007 92.3937 284.913 95.2384 284.21C98.083 283.507 100.747 282.211 103.056 280.406C105.365 278.602 107.266 276.33 108.636 273.74L123.188 246.1C132.686 246.578 142.207 246.188 151.634 244.934C148.345 258.17 145.759 271.572 143.886 285.082C143.876 285.152 143.886 285.223 143.914 285.288C143.943 285.353 143.989 285.408 144.048 285.448C145.106 286.161 146.204 286.813 147.336 287.402C147.238 287.644 147.136 287.862 147.048 288.108C145.248 293.18 143.018 297.686 143.304 300.308C143.779 302.722 144.624 305.049 145.81 307.206C150.578 316.03 155.246 336.736 158.454 327.324C161.006 319.848 163.402 298.012 165.28 291.306C166.503 291.23 167.721 291.079 168.926 290.854C168.99 290.842 169.05 290.814 169.1 290.771C169.15 290.729 169.188 290.675 169.21 290.614C175.629 272.625 181.048 254.295 185.444 235.708C186.119 233.02 186.199 230.217 185.679 227.495C185.159 224.773 184.051 222.197 182.432 219.947C180.813 217.698 178.722 215.829 176.306 214.471C173.89 213.113 171.207 212.299 168.444 212.086C156.926 211.204 145.43 210.886 134.264 211.142C134.841 208.802 135.231 206.42 135.43 204.018C136.978 195.108 138.852 184.888 138.156 175.994C151.778 169.282 173.532 151.728 184.358 142.226C184.758 141.814 184.804 141.14 184.48 140.174C187.116 139.053 189.291 137.066 190.644 134.542C193.56 128.037 194.584 120.843 193.6 113.784ZM178.6 99.7557C178.6 99.7557 179.382 99.6917 180.952 102.852L182.186 105.536C181.904 109.345 181.16 113.106 179.97 116.736C180.306 115.021 180.5 113.282 180.55 111.536C180.69 107.952 178.308 100.256 178.6 99.7557ZM178.368 115.27C177.995 111.847 177.418 108.45 176.642 105.096C176.726 105.096 177.452 105.188 178.962 107.896L179.622 109.096C179.75 109.889 179.809 110.692 179.798 111.496C179.94 116.61 178.125 121.587 174.722 125.408C176.768 122.387 178.024 118.901 178.376 115.27H178.368ZM109.486 160.228C110.021 157.051 109.319 153.789 107.524 151.114C107.697 150.307 107.654 149.468 107.399 148.684C107.144 147.899 106.686 147.195 106.072 146.644C105.722 146.364 104.542 145.466 104.602 144.346C104.658 143.452 105.514 143.054 106.444 143.886C106.73 144.142 107.3 144.76 107.816 144.622C108.798 144.36 107.968 142.34 107.538 141.422C108.058 141.572 108.615 141.536 109.112 141.321C109.609 141.105 110.015 140.723 110.26 140.24C110.783 140.501 111.382 140.571 111.951 140.438C112.521 140.305 113.026 139.977 113.38 139.512C113.919 139.82 114.553 139.918 115.161 139.79C115.768 139.661 116.308 139.314 116.676 138.814C120.85 146.286 122.124 150.538 120.808 152.552C119.526 154.508 115.534 154.222 113.128 153.97C113.055 153.962 112.981 153.975 112.916 154.008C112.85 154.042 112.796 154.093 112.76 154.157C112.723 154.221 112.706 154.294 112.711 154.367C112.716 154.441 112.742 154.511 112.786 154.57C112.86 154.664 117.21 157.61 117.308 157.678C117.553 158.5 118.008 159.245 118.628 159.84C119.42 160.491 120.409 160.854 121.434 160.87C122.458 160.886 123.458 160.554 124.27 159.928L125.842 159.014C126.086 161.338 126.472 170.072 118.896 171.376C111.606 172.628 106.152 165.286 104.552 162.83C105.551 163.1 106.615 162.982 107.531 162.499C108.446 162.016 109.145 161.205 109.486 160.228ZM10.75 175.766C10.768 175.468 12.018 174.144 17.518 171.638C21.1974 170.022 25.0338 168.791 28.966 167.964C27.9985 169.009 27.137 170.148 26.394 171.364C24.5098 171.942 22.6608 172.629 20.856 173.422C13.33 176.06 11 175.972 10.75 175.766ZM17.062 178.304C16.1602 178.696 15.1723 178.849 14.194 178.748C14.194 178.748 14.214 178.278 16.086 177.004C19.0653 174.942 22.3538 173.369 25.828 172.342C25.2944 173.337 24.8494 174.378 24.498 175.452C21.666 176.93 23.178 176.438 17.062 178.304ZM20.882 181.122C18.682 181.854 17.756 181.636 17.67 181.472C17.6 181.34 17.83 180.642 19.72 179.216C21.1304 178.162 22.6332 177.237 24.21 176.454C24.0685 176.978 23.9695 177.513 23.914 178.054C23.9103 178.103 23.9164 178.152 23.9318 178.199C23.9473 178.246 23.9718 178.29 24.004 178.327C24.0691 178.403 24.1615 178.449 24.261 178.457C24.3604 178.464 24.4588 178.432 24.5344 178.367C24.6099 178.302 24.6566 178.209 24.664 178.11C24.8929 176.455 25.3951 174.85 26.15 173.36C26.594 172.446 27.084 171.664 26.964 171.866C27.9335 170.275 29.1015 168.815 30.44 167.52C30.592 167.32 30.414 166.838 29.872 166.96C28.946 167.16 25.722 167.946 23.75 168.528C21.6402 169.08 19.4457 169.231 17.28 168.976C17.518 168.696 18.752 167.794 25.114 165.742C27.5469 164.993 30.0168 164.37 32.514 163.876C32.6938 165.887 33.6261 167.756 35.1246 169.109C36.6231 170.462 38.5772 171.199 40.596 171.174C40.6452 171.17 40.6932 171.156 40.7371 171.133C40.7811 171.111 40.8201 171.08 40.8521 171.042C40.884 171.004 40.9082 170.961 40.9233 170.914C40.9384 170.867 40.9441 170.817 40.94 170.768C40.9359 170.718 40.9222 170.671 40.8996 170.627C40.877 170.583 40.8459 170.544 40.8082 170.512C40.7705 170.48 40.7269 170.455 40.6799 170.44C40.6328 170.425 40.5832 170.42 40.534 170.424C38.9705 170.56 37.41 170.13 36.1369 169.213C34.8637 168.295 33.9627 166.95 33.598 165.424C32.798 163.128 33.798 162.168 32.676 160.352C31.714 158.778 31.768 158.152 31.864 158.056C31.96 157.96 32.446 157.928 33.724 158.712C36.9588 160.939 40.7966 162.125 44.724 162.112C43.9358 166.958 44.133 171.913 45.304 176.682C36.9951 177.007 28.7736 178.502 20.882 181.122ZM46.744 179.322C44.6501 172.877 44.4481 165.967 46.162 159.412C50.03 159.044 53.762 158.812 57.35 158.664C55.661 165.339 55.9916 172.366 58.3 178.854C54.766 178.926 50.956 179.082 46.744 179.318V179.322ZM25.544 233.362C21.628 233.722 14.944 234.268 12.3 235.416C10.864 234.416 10.916 234.062 10.916 234.062C11.37 231.764 27.49 231.758 34.97 230.028C36.8225 229.61 38.7133 229.386 40.612 229.36C42.2496 229.315 43.8494 229.857 45.124 230.886C44.0588 230.899 42.9952 230.971 41.938 231.102C36.5209 232.183 31.0437 232.936 25.536 233.358L25.544 233.362ZM35.3 246.698C40.433 242.255 46.2926 238.73 52.622 236.276C53.306 236.758 53.586 237.034 54.222 237.422C49.9762 241.199 46.7322 245.969 44.78 251.306C41.7047 249.595 38.5372 248.055 35.292 246.694L35.3 246.698ZM43.772 256.498C46.702 246.788 50.684 240.07 59.136 234.71L68.72 240.832C61.982 245.578 57.196 253.032 54.12 263.578L43.772 256.498ZM107.972 273.39C106.653 275.887 104.82 278.078 102.595 279.817C100.37 281.557 97.8021 282.807 95.06 283.484C92.318 284.162 89.4637 284.253 86.6842 283.75C83.9048 283.247 81.263 282.163 78.932 280.568L54.758 264.022C57.828 253.386 62.62 245.936 69.4 241.266C88.064 253.188 86.976 252.55 87.176 252.55C87.2473 252.551 87.3174 252.531 87.3778 252.493C87.4381 252.455 87.4862 252.4 87.516 252.336L97 232.282C98.5999 236.072 101.372 239.25 104.91 241.35L119.11 252.17L107.972 273.39ZM156.744 328.98C154.394 329.118 150.144 313.638 146.484 306.854C145.343 304.783 144.526 302.55 144.064 300.232C144.038 299.074 144.227 297.921 144.622 296.832C145.241 298.922 146.066 300.945 147.086 302.872C150.816 309.774 154.742 323.718 157.686 327.272C157.08 328.926 156.732 328.976 156.732 328.976L156.744 328.98ZM162.472 302.12C156.816 298.366 151.862 293.649 147.838 288.182C147.89 288.046 147.964 287.876 148.02 287.742C153.133 290.28 158.794 291.517 164.5 291.342C163.631 294.895 162.95 298.491 162.46 302.116L162.472 302.12ZM168.59 290.16C160.249 291.503 151.708 289.646 144.678 284.96C145.278 280.852 145.924 276.786 146.592 272.856C150.353 275.466 154.595 277.302 159.072 278.257C163.549 279.212 168.171 279.268 172.67 278.42C171.4 282.214 170.05 286.11 168.578 290.156L168.59 290.16ZM133.476 211.16C131.681 211.202 129.89 211.26 128.102 211.334C128.053 211.335 128.004 211.346 127.959 211.365C127.913 211.385 127.873 211.414 127.838 211.45C127.804 211.485 127.777 211.527 127.76 211.573C127.742 211.619 127.733 211.668 127.734 211.718C127.735 211.767 127.746 211.816 127.766 211.861C127.786 211.906 127.814 211.947 127.85 211.981C127.885 212.015 127.927 212.042 127.973 212.06C128.02 212.078 128.069 212.087 128.118 212.086C141.546 211.65 154.988 211.9 168.39 212.836C171.045 213.04 173.623 213.821 175.944 215.125C178.265 216.428 180.274 218.223 181.83 220.384C183.385 222.545 184.451 225.019 184.951 227.634C185.451 230.249 185.374 232.941 184.726 235.524C181.004 250.304 177.616 263.324 172.938 277.59C168.422 278.493 163.769 278.466 159.265 277.51C154.76 276.554 150.497 274.688 146.738 272.028C148.574 261.348 150.592 251.698 152.448 244.828C162.402 243.582 169.89 241.992 169.964 241.976C170.062 241.955 170.147 241.896 170.201 241.813C170.256 241.729 170.275 241.627 170.254 241.53C170.233 241.432 170.175 241.347 170.091 241.292C170.007 241.238 169.906 241.219 169.808 241.24C153.898 244.504 123.14 248.64 108.124 242.164C105.89 241.162 103.825 239.822 102 238.19C99.9377 236.259 98.3614 233.868 97.4 231.212C93.684 221.144 99.4 208.532 104.032 205.108L104.082 205.118C116.694 206.908 125.59 206.718 134.6 204.464C134.46 206.73 134.08 208.976 133.464 211.162L133.476 211.16ZM140.18 174.098C137.136 170.316 137.228 170.192 136.78 170.472C136.354 170.872 136.98 171.086 137.38 175.802C138.116 184.586 136.242 194.71 134.722 203.654C125.776 205.942 116.98 206.166 104.488 204.416C104.091 198.708 103.129 193.054 101.616 187.536C104.446 183.858 104.302 184.09 104.33 183.936C104.343 183.838 104.317 183.739 104.258 183.66C104.092 183.46 104.184 183.532 100.098 182.758C86.6286 179.872 72.8701 178.558 59.098 178.842C56.7409 172.361 56.4068 165.317 58.14 158.642C73.3673 157.917 88.623 159.236 103.5 162.564C106.68 167.924 112.556 173.238 119.016 172.126C127.568 170.654 126.76 160.374 126.556 158.608C139.592 151.018 152.055 142.481 163.842 133.068C169.311 136.771 173.782 141.766 176.86 147.61C167.896 155.066 152.078 167.662 140.18 174.098ZM183.842 141.682C183.762 141.75 181.316 143.896 177.458 147.114C174.354 141.292 169.89 136.307 164.446 132.582C166.738 130.723 168.967 128.852 171.132 126.968C173.034 125.968 181.912 135.648 183.66 140.118C183.966 140.898 184.028 141.482 183.842 141.682ZM189.962 134.224C188.693 136.579 186.661 138.433 184.2 139.482C181.621 134.726 178.091 130.553 173.828 127.222C182.828 120.108 183.334 105.208 183.35 94.4217C183.35 94.3377 183.518 94.1657 183.534 94.1337C185.734 95.5497 188.91 111.65 188.094 119.85C187.182 122.69 186.346 125.156 186.334 125.194C186.302 125.288 186.309 125.392 186.354 125.481C186.398 125.571 186.476 125.639 186.571 125.671C186.666 125.703 186.769 125.695 186.859 125.651C186.948 125.607 187.016 125.528 187.048 125.434C187.06 125.398 189.746 117.14 190.146 115.81C191.002 112.95 191.786 112.234 192.1 112.246C192.266 112.246 192.64 112.622 192.86 113.926C193.819 120.829 192.815 127.863 189.962 134.222V134.224Z" fill="#1890ff"/>
<path d="M62.68 174.524C62.68 174.868 62.817 175.199 63.0608 175.443C63.3046 175.687 63.6352 175.824 63.98 175.824C64.3248 175.824 64.6554 175.687 64.8992 175.443C65.143 175.199 65.28 174.868 65.28 174.524C65.28 174.179 65.143 173.848 64.8992 173.604C64.6554 173.361 64.3248 173.224 63.98 173.224C63.6352 173.224 63.3046 173.361 63.0608 173.604C62.817 173.848 62.68 174.179 62.68 174.524Z" fill="#1890ff"/>
<path d="M80 163.122C80.0132 163.456 80.1553 163.773 80.3968 164.005C80.6382 164.237 80.9601 164.367 81.295 164.367C81.6299 164.367 81.9518 164.237 82.1932 164.005C82.4347 163.773 82.5768 163.456 82.59 163.122C82.5768 162.787 82.4347 162.47 82.1932 162.238C81.9518 162.006 81.6299 161.877 81.295 161.877C80.9601 161.877 80.6382 162.006 80.3968 162.238C80.1553 162.47 80.0132 162.787 80 163.122Z" fill="#1890ff"/>
<path d="M96.57 175.82C96.57 176.164 96.707 176.495 96.9508 176.739C97.1946 176.983 97.5252 177.12 97.87 177.12C98.2148 177.12 98.5454 176.983 98.7892 176.739C99.033 176.495 99.17 176.164 99.17 175.82C99.17 175.475 99.033 175.144 98.7892 174.9C98.5454 174.657 98.2148 174.52 97.87 174.52C97.5252 174.52 97.1946 174.657 96.9508 174.9C96.707 175.144 96.57 175.475 96.57 175.82Z" fill="#1890ff"/>
<path d="M119.186 179.418C119.186 179.762 119.323 180.093 119.567 180.337C119.811 180.581 120.141 180.718 120.486 180.718C120.831 180.718 121.161 180.581 121.405 180.337C121.649 180.093 121.786 179.762 121.786 179.418C121.786 179.073 121.649 178.742 121.405 178.498C121.161 178.255 120.831 178.118 120.486 178.118C120.141 178.118 119.811 178.255 119.567 178.498C119.323 178.742 119.186 179.073 119.186 179.418Z" fill="#1890ff"/>
<path d="M130.922 159.696C130.922 160.04 131.059 160.371 131.303 160.615C131.547 160.859 131.877 160.996 132.222 160.996C132.567 160.996 132.897 160.859 133.141 160.615C133.385 160.371 133.522 160.04 133.522 159.696C133.522 159.351 133.385 159.02 133.141 158.776C132.897 158.533 132.567 158.396 132.222 158.396C131.877 158.396 131.547 158.533 131.303 158.776C131.059 159.02 130.922 159.351 130.922 159.696Z" fill="#1890ff"/>
<path d="M155.514 159.428C155.514 159.083 155.377 158.752 155.133 158.508C154.889 158.265 154.559 158.128 154.214 158.128C153.869 158.128 153.539 158.265 153.295 158.508C153.051 158.752 152.914 159.083 152.914 159.428C152.914 159.772 153.051 160.103 153.295 160.347C153.539 160.591 153.869 160.728 154.214 160.728C154.559 160.728 154.889 160.591 155.133 160.347C155.377 160.103 155.514 159.772 155.514 159.428Z" fill="#1890ff"/>
<path d="M162.946 141.928C162.946 141.583 162.809 141.252 162.565 141.008C162.321 140.765 161.991 140.628 161.646 140.628C161.301 140.628 160.971 140.765 160.727 141.008C160.483 141.252 160.346 141.583 160.346 141.928C160.346 142.272 160.483 142.603 160.727 142.847C160.971 143.091 161.301 143.228 161.646 143.228C161.991 143.228 162.321 143.091 162.565 142.847C162.809 142.603 162.946 142.272 162.946 141.928Z" fill="#1890ff"/>
<path d="M109.662 197.114C109.675 197.448 109.817 197.765 110.059 197.997C110.3 198.229 110.622 198.359 110.957 198.359C111.292 198.359 111.614 198.229 111.855 197.997C112.097 197.765 112.239 197.448 112.252 197.114C112.239 196.779 112.097 196.462 111.855 196.23C111.614 195.998 111.292 195.869 110.957 195.869C110.622 195.869 110.3 195.998 110.059 196.23C109.817 196.462 109.675 196.779 109.662 197.114Z" fill="#1890ff"/>
<path d="M129.628 195.818C129.628 196.162 129.765 196.493 130.009 196.737C130.253 196.981 130.583 197.118 130.928 197.118C131.273 197.118 131.603 196.981 131.847 196.737C132.091 196.493 132.228 196.162 132.228 195.818C132.228 195.473 132.091 195.142 131.847 194.898C131.603 194.655 131.273 194.518 130.928 194.518C130.583 194.518 130.253 194.655 130.009 194.898C129.765 195.142 129.628 195.473 129.628 195.818Z" fill="#1890ff"/>
<path d="M111.022 219.866C113.879 219.329 116.587 218.186 118.964 216.514C121.341 214.842 123.332 212.679 124.802 210.172C124.857 210.088 124.876 209.986 124.856 209.888C124.836 209.79 124.778 209.704 124.694 209.65C124.61 209.595 124.508 209.575 124.411 209.595C124.313 209.616 124.227 209.674 124.172 209.758C122.757 212.178 120.839 214.266 118.548 215.882C116.257 217.498 113.646 218.604 110.892 219.126C110.797 219.146 110.714 219.203 110.66 219.283C110.606 219.364 110.585 219.462 110.602 219.558C110.619 219.653 110.672 219.739 110.75 219.796C110.828 219.853 110.926 219.878 111.022 219.866Z" fill="#1890ff"/>
<path d="M213.07 132.426C213.07 132.771 213.207 133.101 213.451 133.345C213.695 133.589 214.025 133.726 214.37 133.726C214.715 133.726 215.045 133.589 215.289 133.345C215.533 133.101 215.67 132.771 215.67 132.426C215.67 132.081 215.533 131.75 215.289 131.507C215.045 131.263 214.715 131.126 214.37 131.126C214.025 131.126 213.695 131.263 213.451 131.507C213.207 131.75 213.07 132.081 213.07 132.426Z" fill="#1890ff"/>
<path d="M345.084 162.282C345.084 161.937 344.947 161.606 344.703 161.362C344.459 161.119 344.129 160.982 343.784 160.982C343.439 160.982 343.109 161.119 342.865 161.362C342.621 161.606 342.484 161.937 342.484 162.282C342.484 162.626 342.621 162.957 342.865 163.201C343.109 163.445 343.439 163.582 343.784 163.582C344.129 163.582 344.459 163.445 344.703 163.201C344.947 162.957 345.084 162.626 345.084 162.282Z" fill="#1890ff"/>
</svg>
