<svg width="400" height="400" viewBox="0 0 400 400" fill="none" xmlns="http://www.w3.org/2000/svg">
<path d="M164.066 293.882C163.972 293.849 163.895 293.78 163.852 293.69C163.808 293.6 163.803 293.496 163.836 293.402C163.869 293.308 163.938 293.231 164.028 293.188C164.118 293.145 164.222 293.139 164.316 293.172C178.351 298.086 193.335 299.678 208.09 297.822C208.188 297.812 208.286 297.84 208.364 297.901C208.441 297.962 208.492 298.051 208.504 298.149C208.516 298.247 208.49 298.346 208.43 298.424C208.37 298.503 208.282 298.554 208.184 298.568C193.313 300.438 178.212 298.834 164.066 293.882Z" fill="white"/>
<path d="M237.2 289.238C258.113 279.219 274.664 261.93 283.76 240.6C283.799 240.508 283.873 240.436 283.966 240.399C284.059 240.361 284.162 240.363 284.254 240.402C284.346 240.441 284.418 240.515 284.455 240.608C284.492 240.701 284.491 240.804 284.452 240.896C275.285 262.394 258.605 279.82 237.528 289.918C237.438 289.961 237.334 289.967 237.24 289.934C237.145 289.901 237.067 289.832 237.024 289.742C236.981 289.652 236.975 289.548 237.008 289.453C237.041 289.359 237.11 289.281 237.2 289.238Z" fill="white"/>
<path d="M291.686 200.152C291.587 200.153 291.492 200.115 291.421 200.048C291.349 199.98 291.307 199.887 291.302 199.788C290.86 186.594 287.653 173.639 281.888 161.762C281.866 161.718 281.854 161.669 281.851 161.62C281.848 161.571 281.855 161.521 281.871 161.475C281.888 161.428 281.913 161.385 281.946 161.348C281.979 161.311 282.018 161.281 282.063 161.259C282.153 161.216 282.256 161.21 282.351 161.243C282.397 161.259 282.441 161.284 282.477 161.317C282.514 161.35 282.544 161.39 282.566 161.434C288.376 173.405 291.609 186.463 292.054 199.762C292.057 199.863 292.019 199.96 291.951 200.033C291.882 200.106 291.786 200.149 291.686 200.152Z" fill="white"/>
<path d="M267.788 140.47C253.1 123.677 232.988 112.566 210.954 109.07C210.855 109.054 210.767 109 210.708 108.92C210.649 108.839 210.625 108.738 210.64 108.64C210.655 108.541 210.709 108.453 210.79 108.394C210.871 108.335 210.971 108.31 211.07 108.326C233.281 111.852 253.551 123.056 268.354 139.986C268.403 140.062 268.422 140.154 268.409 140.243C268.396 140.333 268.35 140.415 268.281 140.474C268.213 140.533 268.125 140.565 268.034 140.564C267.943 140.563 267.856 140.53 267.788 140.47Z" fill="white"/>
<path d="M107.662 165.4C115.603 146.993 129.082 131.519 146.225 121.129C163.369 110.738 183.324 105.949 203.316 107.426C203.415 107.434 203.508 107.48 203.573 107.556C203.638 107.632 203.67 107.73 203.662 107.83C203.654 107.929 203.607 108.022 203.532 108.087C203.456 108.151 203.357 108.184 203.258 108.176C183.424 106.715 163.627 111.469 146.619 121.777C129.61 132.086 116.236 147.436 108.354 165.696C108.315 165.788 108.241 165.86 108.148 165.897C108.055 165.934 107.952 165.933 107.86 165.894C107.768 165.855 107.696 165.78 107.659 165.688C107.622 165.595 107.623 165.492 107.662 165.4Z" fill="white"/>
<path d="M144.236 284.2C128.481 274.087 116.014 259.603 108.359 242.518C100.704 225.434 98.1917 206.489 101.13 188C101.146 187.901 101.2 187.813 101.281 187.754C101.362 187.696 101.463 187.672 101.562 187.688C101.661 187.704 101.749 187.758 101.807 187.839C101.866 187.92 101.89 188.021 101.874 188.12C98.9596 206.463 101.453 225.258 109.048 242.206C116.644 259.155 129.013 273.524 144.644 283.556C144.729 283.61 144.79 283.696 144.812 283.794C144.834 283.893 144.816 283.997 144.762 284.082C144.708 284.167 144.622 284.228 144.523 284.25C144.425 284.272 144.321 284.254 144.236 284.2Z" fill="white"/>
<path d="M353.318 176.856C330.47 179.636 309.546 181.294 287.286 179.808C288.744 180.599 290.148 181.489 291.486 182.47C289.736 187.336 287.434 193.14 287.752 197.87C280.206 202.224 270.314 205.042 264.228 203.23C257.99 190.006 256.344 182.444 256.488 177.29C256.578 174.721 257.123 172.189 258.098 169.81L253.96 175.752L201.502 143.83C202.147 139.963 203.573 136.268 205.693 132.97C207.812 129.672 210.581 126.84 213.83 124.646C228.82 133.4 264.388 157 267.664 157.264C267 165.867 267.851 174.521 270.178 182.83C273.822 174.009 278.723 165.762 284.728 158.344C302.296 161.082 326.766 157.09 351.65 154.434C348.224 154.71 348.01 169.246 351.34 175.134C351.956 176.226 352.64 176.856 353.318 176.856Z" fill="#B2BEC3"/>
<path d="M168.4 211.782C156.867 210.888 145.296 210.577 133.732 210.85C134.449 208.387 134.877 205.848 135.01 203.286C125.5 205.75 116.322 205.794 104.122 204.064C104.122 204.008 104.122 203.956 104.122 203.902C98.444 207.642 93.42 220.302 97.082 230.54L87.178 251.492L59.13 233.578C50.674 238.876 46.42 245.6 43.33 255.968L78.708 280.2C81.0824 281.827 83.774 282.933 86.606 283.445C89.4381 283.958 92.3466 283.866 95.1405 283.175C97.9345 282.485 100.551 281.211 102.818 279.438C105.085 277.664 106.951 275.432 108.294 272.886L119.61 251.396L106.21 240.978C117.476 247.098 139.344 245.402 152.144 243.818C148.785 257.212 146.156 270.778 144.268 284.456C151.481 289.322 160.285 291.239 168.868 289.812C175.275 271.833 180.692 253.516 185.092 234.944C185.756 232.307 185.835 229.556 185.324 226.885C184.814 224.213 183.725 221.686 182.135 219.48C180.545 217.273 178.492 215.441 176.119 214.111C173.746 212.782 171.112 211.987 168.4 211.782V211.782Z" fill="#B2BEC3"/>
<path d="M190.302 133.7C188.916 136.239 186.692 138.218 184.01 139.3C181.389 134.23 177.631 129.835 173.03 126.458C175.644 123.266 178.112 117.562 178 114.6C177.703 111.243 177.123 107.918 176.268 104.658C176.116 103.94 177.068 103.044 179.3 107.02C179.472 107.33 179.624 107.62 179.992 108.284C179.57 105.36 178.58 101.628 178.202 99.3341C178.078 98.5641 179.142 97.6601 181.302 102.01C181.594 102.586 181.936 103.41 182.592 104.81C182.956 100.77 182.97 96.8901 182.98 93.7141C182.98 93.3861 183.47 92.9301 183.744 93.1141C186.128 94.6521 189.316 110.888 188.472 119.228C188.926 117.828 189.394 116.334 189.794 115C191.17 110.4 192.73 110.142 193.234 113.16C194.224 120.146 193.207 127.27 190.302 133.7V133.7Z" fill="#B2BEC3"/>
<path d="M211.374 72.334C211.374 75.3712 210.473 78.3401 208.786 80.8654C207.099 83.3906 204.7 85.3589 201.894 86.5211C199.089 87.6834 196.001 87.9875 193.022 87.395C190.043 86.8024 187.307 85.3399 185.16 83.1924C183.012 81.0448 181.55 78.3086 180.957 75.3298C180.365 72.3511 180.669 69.2635 181.831 66.4575C182.993 63.6516 184.961 61.2533 187.487 59.566C190.012 57.8786 192.981 56.978 196.018 56.978C200.091 56.978 203.997 58.5959 206.876 61.4757C209.756 64.3555 211.374 68.2614 211.374 72.334Z" fill="white"/>
<path d="M196.018 82.6979C195.753 82.6979 195.498 82.5925 195.311 82.405C195.123 82.2174 195.018 81.9631 195.018 81.6979V70.2979C195.018 70.0326 195.123 69.7783 195.311 69.5908C195.498 69.4032 195.753 69.2979 196.018 69.2979C196.283 69.2979 196.538 69.4032 196.725 69.5908C196.913 69.7783 197.018 70.0326 197.018 70.2979V81.6979C197.018 81.9631 196.913 82.2174 196.725 82.405C196.538 82.5925 196.283 82.6979 196.018 82.6979Z" fill="white"/>
<path d="M196.018 61.9841C195.61 61.9868 195.212 62.1104 194.874 62.3392C194.536 62.568 194.273 62.8917 194.119 63.2696C193.965 63.6474 193.926 64.0625 194.008 64.4624C194.089 64.8623 194.287 65.2291 194.577 65.5165C194.866 65.804 195.235 65.9992 195.635 66.0776C196.036 66.1559 196.451 66.1139 196.827 65.9569C197.204 65.7998 197.526 65.5347 197.752 65.195C197.978 64.8553 198.098 64.4562 198.098 64.0481C198.103 63.7743 198.052 63.5024 197.949 63.2487C197.846 62.995 197.693 62.7647 197.499 62.5719C197.304 62.379 197.073 62.2275 196.819 62.1265C196.564 62.0254 196.292 61.977 196.018 61.9841Z" fill="white"/>
<path d="M118.954 171.064C109.9 172.616 103.742 161.55 103.742 161.55C104.229 161.786 104.759 161.92 105.299 161.942C105.84 161.964 106.379 161.875 106.883 161.679C107.388 161.484 107.846 161.187 108.231 160.807C108.615 160.426 108.917 159.97 109.118 159.468C109.633 156.323 108.917 153.1 107.118 150.468C107.31 149.711 107.29 148.916 107.061 148.169C106.833 147.422 106.403 146.752 105.82 146.232C102.694 143.902 104.82 141.078 106.8 143.012C108.554 144.726 108 142.212 106.742 139.994C107.002 140.216 107.314 140.369 107.649 140.439C107.983 140.509 108.33 140.495 108.658 140.397C108.986 140.299 109.283 140.12 109.524 139.878C109.765 139.635 109.942 139.336 110.038 139.008C110.285 139.202 110.571 139.338 110.876 139.407C111.182 139.477 111.499 139.478 111.805 139.411C112.111 139.343 112.398 139.209 112.646 139.017C112.893 138.825 113.096 138.581 113.238 138.302C114.638 139.27 116.504 138.666 116.598 137.2C124.764 151.576 122.744 154.672 113.102 153.662L117.636 156.748C117.863 157.55 118.294 158.28 118.886 158.866C119.619 159.463 120.532 159.793 121.477 159.802C122.422 159.811 123.342 159.498 124.086 158.916L126.15 157.716C126.15 157.716 128 169.512 118.954 171.064Z" fill="#B2BEC3"/>
<path d="M45.18 161.042C41.1706 161.136 37.232 159.975 33.914 157.722C31.278 156.108 30.714 157.21 32.348 159.876C32.8285 160.749 33.0071 161.757 32.856 162.742C30.2055 163.263 27.5834 163.919 25 164.708C10.704 169.308 18.752 169.26 23.246 168.398C21.239 169.009 19.2736 169.75 17.362 170.614C6.98398 175.342 8.31198 177.45 20.362 173.306C18.8126 174.119 17.3121 175.022 15.868 176.01C12.372 178.39 13.69 179.046 17.166 177.98C18.926 177.444 20.892 176.836 22.33 176.36C21.3413 176.92 20.3918 177.546 19.488 178.234C15.536 181.22 17.43 181.984 21 180.8C29.22 178.068 40.522 176.118 45.778 176.4C44.472 171.384 44.268 166.145 45.18 161.042V161.042Z" fill="#B2BEC3"/>
<path d="M329.33 103.6L324.146 98.4399C323.858 98.1532 323.629 97.8126 323.473 97.4376C323.317 97.0625 323.236 96.6603 323.235 96.254C323.234 95.8476 323.313 95.4451 323.468 95.0693C323.622 94.6935 323.849 94.3519 324.136 94.0639C324.423 93.7759 324.763 93.5472 325.138 93.3908C325.513 93.2345 325.916 93.1535 326.322 93.1526C326.728 93.1517 327.131 93.2308 327.507 93.3854C327.882 93.5401 328.224 93.7672 328.512 94.0539L329.312 94.8539L330.112 94.0539C330.399 93.7659 330.739 93.5372 331.114 93.3808C331.489 93.2245 331.892 93.1435 332.298 93.1426C332.704 93.1417 333.107 93.2208 333.483 93.3754C333.858 93.5301 334.2 93.7572 334.488 94.0439C334.776 94.3306 335.005 94.6712 335.161 95.0462C335.317 95.4213 335.398 95.8235 335.399 96.2298C335.4 96.6362 335.321 97.0387 335.167 97.4145C335.012 97.7903 334.785 98.1319 334.498 98.4199L329.33 103.6Z" fill="white"/>
<path d="M75.086 124.154C74.1897 124.152 73.3071 123.933 72.513 123.518C71.719 123.102 71.0367 122.501 70.524 121.766C70.0113 121.031 69.6833 120.183 69.5676 119.294C69.452 118.405 69.5522 117.502 69.8597 116.66C70.1672 115.818 70.673 115.062 71.3343 114.457C71.9956 113.852 72.7929 113.415 73.6587 113.184C74.5246 112.952 75.4335 112.932 76.3086 113.126C77.1837 113.32 77.9991 113.722 78.686 114.298C79.5612 115.036 80.1885 116.026 80.4828 117.132C80.7771 118.239 80.7243 119.409 80.3315 120.485C79.9386 121.56 79.2247 122.489 78.2865 123.145C77.3483 123.802 76.231 124.154 75.086 124.154ZM71.4 115.47C70.8896 116.078 70.5371 116.803 70.3737 117.58C70.2103 118.357 70.2411 119.162 70.4633 119.925C70.6855 120.687 71.0923 121.383 71.6476 121.95C72.2029 122.518 72.8896 122.939 73.6469 123.178C74.4041 123.417 75.2086 123.465 75.989 123.319C76.7693 123.172 77.5015 122.836 78.1207 122.339C78.7399 121.841 79.2269 121.199 79.5387 120.469C79.8504 119.739 79.9773 118.943 79.908 118.152C79.8219 117.202 79.4569 116.299 78.8589 115.557C78.2608 114.814 77.4565 114.265 76.547 113.978C75.6376 113.691 74.6637 113.68 73.7478 113.946C72.832 114.211 72.0151 114.741 71.4 115.47Z" fill="white"/>
<path d="M288.188 298.586H280.348V290.736C280.348 290.638 280.309 290.544 280.24 290.475C280.17 290.405 280.076 290.366 279.978 290.366C279.88 290.366 279.786 290.405 279.716 290.475C279.647 290.544 279.608 290.638 279.608 290.736V298.576H271.754C271.656 298.576 271.562 298.615 271.492 298.685C271.423 298.754 271.384 298.848 271.384 298.946C271.384 299.044 271.423 299.138 271.492 299.208C271.562 299.277 271.656 299.316 271.754 299.316H279.594V307.168C279.59 307.219 279.597 307.27 279.614 307.319C279.631 307.367 279.658 307.411 279.693 307.449C279.727 307.486 279.77 307.516 279.816 307.536C279.863 307.557 279.914 307.567 279.965 307.567C280.016 307.567 280.067 307.557 280.114 307.536C280.161 307.516 280.203 307.486 280.238 307.449C280.272 307.411 280.299 307.367 280.316 307.319C280.333 307.27 280.34 307.219 280.336 307.168V299.33H288.188C288.237 299.33 288.285 299.321 288.33 299.302C288.376 299.283 288.417 299.256 288.451 299.221C288.486 299.187 288.513 299.146 288.532 299.101C288.55 299.055 288.56 299.007 288.56 298.958C288.56 298.909 288.55 298.861 288.532 298.816C288.513 298.771 288.486 298.73 288.451 298.695C288.417 298.661 288.376 298.633 288.33 298.615C288.285 298.596 288.237 298.586 288.188 298.586Z" fill="white"/>
<path d="M109.662 310.396L112.012 315.16L117.27 315.924L113.466 319.632L114.364 324.868L109.662 322.396L104.96 324.868L105.858 319.632L102.054 315.924L107.31 315.16L109.662 310.396Z" fill="white"/>
<path d="M355.072 169.494C357.456 168.549 359.615 167.115 361.411 165.284C363.207 163.454 364.599 161.267 365.498 158.866C365.533 158.772 365.529 158.668 365.488 158.578C365.446 158.487 365.371 158.416 365.277 158.381C365.183 158.346 365.08 158.349 364.989 158.391C364.898 158.432 364.827 158.508 364.792 158.602C363.926 160.908 362.587 163.007 360.86 164.764C359.133 166.521 357.057 167.896 354.766 168.802C354.721 168.822 354.679 168.851 354.645 168.887C354.611 168.923 354.584 168.965 354.566 169.011C354.53 169.105 354.532 169.209 354.573 169.301C354.614 169.393 354.689 169.464 354.782 169.501C354.876 169.537 354.98 169.534 355.072 169.494Z" fill="white"/>
<path d="M390 203.71C389.38 198.61 372.834 206.192 364.47 205.482C362.478 205.267 360.464 205.444 358.54 206.004C354.664 207.204 354.14 210.734 348.428 214.404C347.093 213.561 345.699 212.815 344.256 212.172C343.888 212.124 345.306 210.972 314.674 239.336C313.788 234.482 307.724 205.486 288.122 197.608C287.862 192.276 290.908 185.522 292.586 180.48C313.694 181.428 332.764 179.696 353.416 177.228C354.402 177.192 355.078 176.118 355.458 175.188C365.412 174.48 364.49 174.7 371.438 173.74C373.894 173.402 382.964 172.564 382.728 170.386C382.632 169.516 381.086 169.118 378.128 169.206C376.972 169.24 375.86 169.206 374.826 169.152C377.662 168.61 381.318 167.724 381.376 167.71C382.736 167.372 385.874 166.442 385.664 165.152C385.52 164.28 383.952 163.952 381.006 164.186C378.52 164.386 376.322 164.47 374.552 164.504C376.692 163.89 379.806 163.004 382.552 162.252C385.338 161.49 386.888 160.472 386.696 159.534C386.46 158.384 383.984 158.478 381.948 158.758C381.486 158.822 377.016 159.38 373.636 159.8L378.848 157.424C381.482 156.224 382.848 154.98 382.512 154.084C382.098 152.986 379.668 153.47 377.712 154.068C376.85 154.332 368.912 156.692 367.672 156.868C365.832 157.14 365.136 156.904 365.088 156.744C364.266 154.144 367.736 147.078 365.014 146.198C364.514 146.04 362.998 145.558 359.108 153.708C358.194 155.622 356.724 156.082 354.19 156.226C353.638 155.17 352.72 153.916 351.542 154.07C325.342 156.87 302.1 160.684 284.802 157.976C283.934 157.857 283.103 157.548 282.368 157.07C281.634 156.592 281.014 155.958 280.554 155.212C306.474 149.626 329.894 122.23 323.4 116.856C317.738 112.176 304.126 122.708 300.66 125.544C301.082 122.532 300.422 120.53 298.69 119.586C293.238 116.61 278.49 125.706 272.578 131.462C271.044 132.881 269.857 134.635 269.11 136.586C266.588 142.208 266.066 146.21 267.556 148.484C268.067 149.172 268.74 149.722 269.516 150.087C270.291 150.451 271.144 150.619 272 150.574C271.682 153.374 270.52 156.51 267.724 156.892C264.758 156.744 228.662 132.876 214.018 124.322C213.957 124.286 213.887 124.268 213.816 124.271C213.745 124.273 213.677 124.295 213.618 124.334C212.98 124.76 212.366 125.206 211.776 125.666C211.576 125.502 211.394 125.332 211.216 125.156C208.192 120.708 209.494 115.778 210.748 110.816C211.41 108.194 213.526 103.478 214.312 100.584C214.381 100.379 214.375 100.156 214.294 99.9558C214.214 99.7551 214.064 99.59 213.872 99.4902C212.386 98.8382 210.072 102.944 209.22 104.328C209.798 101.284 210.476 98.1022 210.732 95.5082C210.747 95.3661 210.723 95.2228 210.663 95.093C210.604 94.9632 210.511 94.8517 210.394 94.7701C210.276 94.6885 210.14 94.6397 209.997 94.6288C209.855 94.6179 209.712 94.6453 209.584 94.7082C207.062 96.0002 201.4 109.22 200.458 118C199.924 116.082 198.748 111.566 196.746 111.866C196 111.976 195.546 112.804 195.536 114.082C195.52 119.346 195.468 123.964 195.196 131.258C195.07 134.612 198.796 137.924 202.042 140.164C201.674 141.361 201.369 142.576 201.128 143.804C201.102 144.204 197.428 141.792 256.106 177.502C255.996 183.656 258.434 191.83 263.768 203.172L231.18 238.052C225.233 244.426 220.883 252.12 218.488 260.502C205.832 304.934 206.228 303.248 206.288 303.54C207.009 304.242 207.793 304.878 208.628 305.44C207.116 313.371 204.852 321.139 201.866 328.64C197.066 339.51 197.01 341.684 197.584 342.38C200.858 346.35 210.686 331.048 218.134 327.132C219.928 326.241 221.53 325.007 222.848 323.498C225.474 320.378 224.084 316.916 226.934 310.724C228.617 310.616 230.289 310.375 231.934 310.002C232.22 309.872 231.288 312.902 244.716 264.278L279.264 234.06L299.324 264.604C300.545 266.463 302.155 268.034 304.042 269.211C305.93 270.387 308.05 271.139 310.257 271.416C312.463 271.693 314.704 271.488 316.823 270.815C318.943 270.142 320.891 269.017 322.534 267.518C362.462 231.068 360.97 232.548 361.002 232.276C360.627 230.694 360.126 229.144 359.504 227.642C365.74 222.423 372.243 217.531 378.986 212.986C388.876 206.4 390.098 204.6 390 203.71ZM314.04 240.138C314.394 244.024 314.456 245.314 314.44 245.8C314.418 247.334 314.868 247.152 315.276 246.556C315.95 245.576 318.05 242.174 325.654 230.178L344.222 212.978C347.037 214.253 349.638 215.957 351.932 218.028L316.146 250.428C315.56 250.958 314.847 251.328 314.077 251.504C313.307 251.68 312.505 251.656 311.746 251.434C310.988 251.212 310.3 250.799 309.746 250.236C309.192 249.672 308.792 248.976 308.584 248.214C302.298 225.162 297.974 211.484 282.984 200.692C284.624 199.975 286.226 199.174 287.784 198.292C308.736 206.662 314 239.8 314.04 240.138ZM381.064 164.938C384.518 164.668 384.92 165.274 384.92 165.274C384.92 165.474 384.036 166.274 381.194 166.982C378.109 167.786 374.979 168.404 371.82 168.832C370.856 168.743 369.899 168.593 368.954 168.382C369.338 167.355 369.64 166.299 369.856 165.224C373.594 165.34 377.337 165.243 381.064 164.934V164.938ZM382.064 159.506C385.176 159.076 385.95 159.57 385.972 159.686C386.01 159.864 385.236 160.744 382.372 161.528C370.372 164.81 372.572 164.586 370 164.478C370.174 163.324 370.241 162.157 370.2 160.99C371.734 160.8 381.94 159.518 382.056 159.502L382.064 159.506ZM359.792 154.034C362.454 148.456 364.148 146.712 364.792 146.918C366.49 147.464 363.592 154.478 364.378 156.97C364.462 157.242 364.718 158.07 367.79 157.614C369.19 157.414 377.854 154.814 377.938 154.79C380.938 153.878 381.786 154.242 381.826 154.35C381.89 154.522 381.264 155.51 378.556 156.75C370.088 160.6 371.542 160.076 370.172 160.244C370.14 159.772 370.096 159.288 370.032 158.788C370.018 158.69 369.966 158.602 369.888 158.542C369.809 158.483 369.711 158.456 369.613 158.468C369.515 158.481 369.426 158.531 369.365 158.608C369.304 158.686 369.275 158.784 369.286 158.882C369.85 163.53 368.835 168.233 366.404 172.234C366.358 172.323 366.349 172.426 366.379 172.521C366.41 172.616 366.476 172.695 366.565 172.741C366.654 172.787 366.757 172.796 366.852 172.766C366.947 172.735 367.026 172.669 367.072 172.58C367.694 171.38 368.238 170.232 368.692 169.1C371.805 169.751 374.982 170.042 378.162 169.968C381.082 169.884 381.922 170.322 381.984 170.474C381.96 170.686 380.972 171.448 377.984 172.014C375.514 172.48 374.688 172.542 371.334 173.004C362.534 174.22 360.914 173.938 351.558 174.75C349.257 169.197 348.713 163.072 350 157.2C354.716 156.886 358.158 157.428 359.784 154.03L359.792 154.034ZM272.06 153.698C274.688 151.198 275.592 150.352 275.904 150.022C276.248 149.66 276.058 149.346 275.6 149.352C274.565 149.645 273.497 149.806 272.422 149.83C265.572 149.864 266.986 143.17 269.8 136.894C271.01 134.188 273.338 130.212 275.964 131.624C278.026 132.736 279.43 136.714 279.216 139.268C279.19 139.482 279.225 139.698 279.317 139.893C279.409 140.087 279.553 140.252 279.734 140.368C280.176 140.578 280.768 140.384 281.716 139.71C284.218 137.92 285.716 142.24 280.844 144.342C280.386 144.542 279.886 145.73 279.824 145.988C278.378 151.788 278.328 157.014 284.076 158.574C278.45 165.604 273.801 173.362 270.256 181.638C268.182 173.805 267.424 165.682 268.012 157.6C268.978 157.38 269.865 156.9 270.577 156.211C271.29 155.523 271.8 154.652 272.052 153.694L272.06 153.698ZM210.922 103.038C212.804 100.038 213.582 100.184 213.582 100.184C213.126 101.97 212.541 103.721 211.832 105.422C211.024 107.361 210.355 109.356 209.832 111.39C208.778 114.612 208.448 118.026 208.864 121.39C207.312 117.138 207.924 111.59 208.848 106.36C209 106.21 208.778 106.43 210.914 103.034L210.922 103.038ZM195.948 131.284C196.218 124.048 196.272 119.416 196.288 114.084C196.288 113.126 196.588 112.648 196.854 112.608C197.306 112.548 198.29 113.408 199.116 116.088C200.358 120.112 201.68 125.888 201.692 125.938C201.714 126.035 201.774 126.12 201.859 126.173C201.943 126.226 202.046 126.243 202.143 126.221C202.24 126.199 202.325 126.139 202.378 126.054C202.431 125.97 202.448 125.867 202.426 125.77C202.426 125.732 201.826 123.17 201.076 120.282C201.098 111.894 207.676 96.5202 209.986 95.4342C209.106 104.36 203.418 119.392 211.186 126.146C206.998 129.614 203.906 134.221 202.284 139.41C199.686 137.6 195.834 134.368 195.948 131.284ZM256.862 177.302C256.984 174.77 257.525 172.276 258.462 169.92C258.484 169.849 258.484 169.772 258.461 169.701C258.439 169.629 258.395 169.566 258.336 169.52C257.902 169.16 257.892 169.462 253.858 175.25L201.93 143.65C202.576 139.917 203.963 136.352 206.01 133.165C208.058 129.978 210.724 127.233 213.85 125.094C227.918 133.334 262.45 156.136 267.266 157.564C266.65 166.104 267.514 174.686 269.82 182.932C269.842 183.008 269.887 183.075 269.948 183.124C270.01 183.173 270.086 183.201 270.164 183.205C270.243 183.209 270.321 183.188 270.387 183.146C270.453 183.103 270.505 183.041 270.534 182.968C274.126 174.246 278.963 166.09 284.892 158.754C302.092 161.436 327.86 157.384 350.196 154.974C347.438 158.708 348.368 173.276 352.006 176.642C308.368 181.892 290.606 179.442 287.266 179.442C287.171 179.44 287.079 179.474 287.009 179.537C286.939 179.601 286.895 179.689 286.887 179.783C286.879 179.877 286.908 179.971 286.966 180.045C287.025 180.12 287.11 180.168 287.204 180.182C287.65 180.318 290.684 182.382 291.036 182.626C289.396 187.156 287.13 192.946 287.368 197.676C281.406 201.114 271.046 204.808 264.482 202.92C259.112 191.51 256.692 183.37 256.862 177.302ZM222.262 323.002C221.007 324.437 219.481 325.611 217.772 326.456C210.772 330.14 200.582 344.832 198.154 341.892C197.894 341.576 197.802 339.692 202.544 328.934C205.527 321.494 207.788 313.785 209.298 305.912C214.22 309.302 220.109 311.003 226.08 310.76C223.508 316.584 224.6 320.23 222.264 323L222.262 323.002ZM244.128 263.776C243.928 263.952 244.494 262.216 231.486 309.322C228.71 309.929 225.862 310.143 223.026 309.958L235.98 260.358L273.88 227.438L275.898 236L244.128 263.776ZM299.946 264.176L273.966 224.628C273.917 224.555 273.844 224.501 273.76 224.475C273.676 224.45 273.585 224.455 273.504 224.49C273.423 224.525 273.357 224.587 273.317 224.666C273.277 224.744 273.266 224.834 273.286 224.92L273.686 226.61L235.4 259.87C235.2 260.044 235.78 258.15 222.266 309.894C216.65 309.287 211.35 306.99 207.066 303.308L219.206 260.708C221.57 252.441 225.861 244.853 231.728 238.566L264.34 203.656C269.74 205.15 276.976 203.2 282.178 201.038C297.292 211.742 301.39 224.668 307.866 248.412C308.107 249.3 308.573 250.11 309.217 250.767C309.861 251.423 310.663 251.903 311.546 252.161C312.429 252.419 313.364 252.446 314.26 252.24C315.156 252.033 315.985 251.6 316.666 250.982L352.492 218.55C356.258 222.274 358.926 226.964 360.202 232.104L322.022 266.952C320.46 268.378 318.607 269.448 316.591 270.088C314.575 270.729 312.444 270.924 310.345 270.66C308.247 270.396 306.23 269.681 304.435 268.562C302.64 267.443 301.109 265.948 299.948 264.18L299.946 264.176ZM378.562 212.346C371.862 216.868 365.393 221.725 359.182 226.898C357.049 221.998 353.551 217.815 349.106 214.848C354.622 211.204 355.204 207.824 358.754 206.718C360.585 206.187 362.503 206.02 364.398 206.228C372.398 206.914 388.784 199.982 389.242 203.796C389.294 204.2 388.35 205.85 378.564 212.35L378.562 212.346Z" fill="white"/>
<path d="M193.6 113.102C193.092 110.084 191.068 109.396 189.422 114.902C189.282 115.374 189.13 115.868 188.976 116.37C189.01 107.698 186.314 94.3401 183.942 92.8101C183.394 92.4501 182.596 93.1161 182.596 93.7281C182.596 96.8681 182.54 100.128 182.31 103.328L181.63 101.852C180.36 99.2921 179.23 98.0841 178.37 98.3621C178.169 98.4413 178.003 98.5902 177.903 98.7815C177.803 98.9728 177.775 99.1938 177.824 99.4041C178.084 100.986 178.802 103.982 179.236 106.186C178.074 104.268 177.112 103.438 176.374 103.716C176.184 103.802 176.03 103.954 175.942 104.143C175.854 104.332 175.837 104.547 175.894 104.748C176.742 107.986 177.318 111.29 177.616 114.624C177.718 117.324 175.466 122.746 172.928 125.976C172.614 125.739 172.244 125.587 171.855 125.533C171.465 125.48 171.068 125.528 170.702 125.672C156.169 138.12 140.482 149.152 123.854 158.62C123.177 159.152 122.339 159.437 121.479 159.431C120.618 159.424 119.785 159.126 119.116 158.584C118.113 157.316 117.525 155.769 117.434 154.154C118.2 154.173 118.96 154.014 119.654 153.69C120.348 153.366 120.957 152.885 121.434 152.286C122.99 149.908 121.634 145.344 116.908 137.018C116.068 135.534 115.128 133.946 114.118 132.298C112.836 130.204 110.292 130.138 109.784 131.418C108.226 130.486 105.818 130.832 105.412 132.354C105.084 132.108 104.702 131.943 104.298 131.874C103.894 131.805 103.479 131.833 103.087 131.956C102.696 132.08 102.34 132.295 102.049 132.583C101.757 132.872 101.539 133.226 101.412 133.616C101.095 133.43 100.736 133.33 100.369 133.325C100.002 133.32 99.64 133.411 99.3186 133.588C98.9973 133.766 98.7276 134.023 98.536 134.337C98.3444 134.65 98.2376 135.007 98.226 135.374C95.61 134.674 93.752 136.936 96.786 139.992C98.084 141.304 103.66 145.482 106.786 150.666C108.543 153.211 109.246 156.338 108.748 159.39C108.557 159.839 108.276 160.243 107.923 160.579C107.569 160.916 107.151 161.176 106.693 161.344C106.236 161.513 105.749 161.586 105.262 161.56C104.775 161.533 104.299 161.407 103.862 161.19C103.662 161.122 79.662 154.744 45.838 157.99C45.7652 157.998 45.6962 158.027 45.6392 158.073C45.5822 158.119 45.5394 158.181 45.516 158.25C45.26 159.05 45.042 159.868 44.87 160.672C41.0299 160.717 37.2701 159.571 34.108 157.392C32.708 156.542 31.806 156.364 31.322 156.844C30.8 157.366 31.038 158.444 32.026 160.064C32.4459 160.776 32.6049 161.612 32.476 162.428C29.9112 162.933 27.3744 163.571 24.876 164.34C16.134 167.17 16.366 168 16.504 168.502C16.704 169.196 18.242 169.276 19.876 169.158C18.032 169.86 9.31599 173.524 10.046 175.338C10.59 176.692 15.75 175.152 17.152 174.738C16.656 175.044 16.152 175.364 15.662 175.704C13.862 176.922 13.208 177.744 13.508 178.37C14.122 179.64 18.206 178.068 19.736 177.588C18.7 178.34 16.418 180.026 17 181.14C17.55 182.188 20 181.526 21.116 181.154C28.9845 178.531 37.189 177.053 45.478 176.764C45.666 177.544 45.8727 178.333 46.098 179.132C46.272 179.748 46.47 179.154 58.746 178.912C58.8036 178.928 58.8644 178.928 58.922 178.912C72.6249 178.627 86.3151 179.921 99.722 182.768C101.804 189.586 103.145 196.609 103.722 203.714C98.364 207.452 93 220.456 96.622 230.642L87.02 250.946C58 232.4 59.4 233.26 59.2 233.2C57.6275 234.029 56.158 235.041 54.822 236.214C54.09 235.786 53.746 235.444 52.896 234.854C48.65 231.912 44.772 228.438 42.118 228.01C39.663 227.832 37.1952 228.034 34.802 228.61C25.042 230.868 3.83999 229.9 12.052 235.474C18.504 239.858 38.816 247.932 44.5 251.332C43.8993 252.877 43.3885 254.455 42.97 256.058C43.044 256.334 41.652 255.27 78.506 280.504C80.9247 282.158 83.6655 283.283 86.5491 283.804C89.4326 284.325 92.3937 284.231 95.2384 283.528C98.083 282.825 100.747 281.529 103.056 279.725C105.365 277.92 107.266 275.648 108.636 273.058L123.188 245.418C132.686 245.897 142.207 245.506 151.634 244.252C148.345 257.489 145.759 270.89 143.886 284.4C143.876 284.47 143.886 284.542 143.914 284.606C143.943 284.671 143.989 284.726 144.048 284.766C145.106 285.479 146.204 286.131 147.336 286.72C147.238 286.962 147.136 287.18 147.048 287.426C145.248 292.498 143.018 297.004 143.304 299.626C143.779 302.041 144.624 304.368 145.81 306.524C150.578 315.348 155.246 336.054 158.454 326.642C161.006 319.166 163.402 297.33 165.28 290.624C166.503 290.548 167.721 290.398 168.926 290.172C168.99 290.16 169.05 290.132 169.1 290.09C169.15 290.048 169.188 289.993 169.21 289.932C175.629 271.943 181.048 253.613 185.444 235.026C186.119 232.338 186.199 229.535 185.679 226.813C185.159 224.091 184.051 221.515 182.432 219.266C180.813 217.016 178.722 215.147 176.306 213.789C173.89 212.432 171.207 211.618 168.444 211.404C156.926 210.522 145.43 210.204 134.264 210.46C134.841 208.12 135.231 205.738 135.43 203.336C136.978 194.426 138.852 184.206 138.156 175.312C151.778 168.6 173.532 151.046 184.358 141.544C184.758 141.132 184.804 140.458 184.48 139.492C187.116 138.372 189.291 136.385 190.644 133.86C193.56 127.356 194.584 120.162 193.6 113.102ZM178.6 99.0741C178.6 99.0741 179.382 99.0101 180.952 102.17L182.186 104.854C181.904 108.663 181.16 112.424 179.97 116.054C180.306 114.34 180.5 112.6 180.55 110.854C180.69 107.27 178.308 99.5741 178.6 99.0741ZM178.368 114.588C177.995 111.166 177.418 107.768 176.642 104.414C176.726 104.414 177.452 104.506 178.962 107.214L179.622 108.414C179.75 109.207 179.809 110.01 179.798 110.814C179.94 115.929 178.125 120.905 174.722 124.726C176.768 121.705 178.024 118.22 178.376 114.588H178.368ZM109.486 159.546C110.021 156.369 109.319 153.107 107.524 150.432C107.697 149.625 107.654 148.787 107.399 148.002C107.144 147.217 106.686 146.513 106.072 145.962C105.722 145.682 104.542 144.784 104.602 143.664C104.658 142.77 105.514 142.372 106.444 143.204C106.73 143.46 107.3 144.078 107.816 143.94C108.798 143.678 107.968 141.658 107.538 140.74C108.058 140.89 108.615 140.855 109.112 140.639C109.609 140.423 110.015 140.041 110.26 139.558C110.783 139.819 111.382 139.889 111.951 139.756C112.521 139.623 113.026 139.296 113.38 138.83C113.919 139.138 114.553 139.237 115.161 139.108C115.768 138.979 116.308 138.632 116.676 138.132C120.85 145.604 122.124 149.856 120.808 151.87C119.526 153.826 115.534 153.54 113.128 153.288C113.055 153.28 112.981 153.293 112.916 153.327C112.85 153.36 112.796 153.412 112.76 153.476C112.723 153.539 112.706 153.612 112.711 153.686C112.716 153.759 112.742 153.829 112.786 153.888C112.86 153.982 117.21 156.928 117.308 156.996C117.553 157.819 118.008 158.564 118.628 159.158C119.42 159.809 120.409 160.172 121.434 160.188C122.458 160.204 123.458 159.872 124.27 159.246L125.842 158.332C126.086 160.656 126.472 169.39 118.896 170.694C111.606 171.946 106.152 164.604 104.552 162.148C105.551 162.418 106.615 162.3 107.531 161.817C108.446 161.335 109.145 160.523 109.486 159.546ZM10.75 175.084C10.768 174.786 12.018 173.462 17.518 170.956C21.1974 169.341 25.0338 168.11 28.966 167.282C27.9985 168.328 27.137 169.467 26.394 170.682C24.5098 171.261 22.6608 171.948 20.856 172.74C13.33 175.378 11 175.29 10.75 175.084ZM17.062 177.622C16.1602 178.015 15.1723 178.168 14.194 178.066C14.194 178.066 14.214 177.596 16.086 176.322C19.0653 174.261 22.3538 172.687 25.828 171.66C25.2944 172.656 24.8494 173.696 24.498 174.77C21.666 176.248 23.178 175.756 17.062 177.622ZM20.882 180.44C18.682 181.172 17.756 180.954 17.67 180.79C17.6 180.658 17.83 179.96 19.72 178.534C21.1304 177.48 22.6332 176.556 24.21 175.772C24.0685 176.297 23.9695 176.832 23.914 177.372C23.9103 177.421 23.9164 177.471 23.9318 177.518C23.9473 177.565 23.9718 177.608 24.004 177.645C24.0691 177.721 24.1615 177.768 24.261 177.775C24.3604 177.782 24.4588 177.75 24.5344 177.685C24.6099 177.62 24.6566 177.528 24.664 177.428C24.8929 175.773 25.3951 174.168 26.15 172.678C26.594 171.764 27.084 170.982 26.964 171.184C27.9335 169.594 29.1015 168.133 30.44 166.838C30.592 166.638 30.414 166.156 29.872 166.278C28.946 166.478 25.722 167.264 23.75 167.846C21.6402 168.398 19.4457 168.55 17.28 168.294C17.518 168.014 18.752 167.112 25.114 165.06C27.5469 164.311 30.0168 163.688 32.514 163.194C32.6938 165.205 33.6261 167.074 35.1246 168.427C36.6231 169.78 38.5772 170.518 40.596 170.492C40.6452 170.488 40.6932 170.474 40.7371 170.452C40.7811 170.429 40.8201 170.398 40.8521 170.36C40.884 170.323 40.9082 170.279 40.9233 170.232C40.9384 170.185 40.9441 170.135 40.94 170.086C40.9359 170.037 40.9222 169.989 40.8996 169.945C40.877 169.901 40.8459 169.862 40.8082 169.83C40.7705 169.798 40.7269 169.774 40.6799 169.759C40.6328 169.744 40.5832 169.738 40.534 169.742C38.9705 169.879 37.41 169.449 36.1369 168.531C34.8637 167.613 33.9627 166.269 33.598 164.742C32.798 162.446 33.798 161.486 32.676 159.67C31.714 158.096 31.768 157.47 31.864 157.374C31.96 157.278 32.446 157.246 33.724 158.03C36.9588 160.257 40.7966 161.443 44.724 161.43C43.9358 166.276 44.133 171.232 45.304 176C36.9951 176.325 28.7736 177.82 20.882 180.44ZM46.744 178.64C44.6501 172.196 44.4481 165.286 46.162 158.73C50.03 158.362 53.762 158.13 57.35 157.982C55.661 164.658 55.9916 171.685 58.3 178.172C54.766 178.244 50.956 178.4 46.744 178.636V178.64ZM25.544 232.68C21.628 233.04 14.944 233.586 12.3 234.734C10.864 233.734 10.916 233.38 10.916 233.38C11.37 231.082 27.49 231.076 34.97 229.346C36.8225 228.929 38.7133 228.705 40.612 228.678C42.2496 228.634 43.8494 229.175 45.124 230.204C44.0588 230.217 42.9952 230.289 41.938 230.42C36.5209 231.501 31.0437 232.254 25.536 232.676L25.544 232.68ZM35.3 246.016C40.433 241.574 46.2926 238.048 52.622 235.594C53.306 236.076 53.586 236.352 54.222 236.74C49.9762 240.517 46.7322 245.287 44.78 250.624C41.7047 248.913 38.5372 247.373 35.292 246.012L35.3 246.016ZM43.772 255.816C46.702 246.106 50.684 239.388 59.136 234.028L68.72 240.15C61.982 244.896 57.196 252.35 54.12 262.896L43.772 255.816ZM107.972 272.708C106.653 275.206 104.82 277.396 102.595 279.136C100.37 280.875 97.8021 282.125 95.06 282.803C92.318 283.48 89.4637 283.571 86.6842 283.068C83.9048 282.566 81.263 281.481 78.932 279.886L54.758 263.34C57.828 252.704 62.62 245.254 69.4 240.584C88.064 252.506 86.976 251.868 87.176 251.868C87.2473 251.869 87.3174 251.85 87.3778 251.812C87.4381 251.774 87.4862 251.719 87.516 251.654L97 231.6C98.5999 235.39 101.372 238.568 104.91 240.668L119.11 251.488L107.972 272.708ZM156.744 328.298C154.394 328.436 150.144 312.956 146.484 306.172C145.343 304.102 144.526 301.868 144.064 299.55C144.038 298.392 144.227 297.239 144.622 296.15C145.241 298.24 146.066 300.264 147.086 302.19C150.816 309.092 154.742 323.036 157.686 326.59C157.08 328.244 156.732 328.294 156.732 328.294L156.744 328.298ZM162.472 301.438C156.816 297.685 151.862 292.967 147.838 287.5C147.89 287.364 147.964 287.194 148.02 287.06C153.133 289.598 158.794 290.835 164.5 290.66C163.631 294.213 162.95 297.809 162.46 301.434L162.472 301.438ZM168.59 289.478C160.249 290.821 151.708 288.964 144.678 284.278C145.278 280.17 145.924 276.104 146.592 272.174C150.353 274.784 154.595 276.62 159.072 277.576C163.549 278.531 168.171 278.586 172.67 277.738C171.4 281.532 170.05 285.428 168.578 289.474L168.59 289.478ZM133.476 210.478C131.681 210.521 129.89 210.579 128.102 210.652C128.053 210.653 128.004 210.664 127.959 210.684C127.913 210.704 127.873 210.732 127.838 210.768C127.804 210.804 127.777 210.846 127.76 210.892C127.742 210.938 127.733 210.987 127.734 211.036C127.735 211.085 127.746 211.134 127.766 211.179C127.786 211.225 127.814 211.265 127.85 211.3C127.885 211.334 127.927 211.361 127.973 211.379C128.02 211.396 128.069 211.405 128.118 211.404C141.546 210.968 154.988 211.219 168.39 212.154C171.045 212.358 173.623 213.139 175.944 214.443C178.265 215.747 180.274 217.542 181.83 219.702C183.385 221.863 184.451 224.337 184.951 226.952C185.451 229.567 185.374 232.26 184.726 234.842C181.004 249.622 177.616 262.642 172.938 276.908C168.422 277.812 163.769 277.785 159.265 276.828C154.76 275.872 150.497 274.006 146.738 271.346C148.574 260.666 150.592 251.016 152.448 244.146C162.402 242.9 169.89 241.31 169.964 241.294C170.062 241.273 170.147 241.215 170.201 241.131C170.256 241.047 170.275 240.946 170.254 240.848C170.233 240.75 170.175 240.665 170.091 240.611C170.007 240.556 169.906 240.537 169.808 240.558C153.898 243.822 123.14 247.958 108.124 241.482C105.89 240.48 103.825 239.14 102 237.508C99.9377 235.577 98.3614 233.186 97.4 230.53C93.684 220.462 99.4 207.85 104.032 204.426L104.082 204.436C116.694 206.226 125.59 206.036 134.6 203.782C134.46 206.049 134.08 208.294 133.464 210.48L133.476 210.478ZM140.18 173.416C137.136 169.634 137.228 169.51 136.78 169.79C136.354 170.19 136.98 170.404 137.38 175.12C138.116 183.904 136.242 194.028 134.722 202.972C125.776 205.26 116.98 205.484 104.488 203.734C104.091 198.026 103.129 192.372 101.616 186.854C104.446 183.176 104.302 183.408 104.33 183.254C104.343 183.156 104.317 183.057 104.258 182.978C104.092 182.778 104.184 182.85 100.098 182.076C86.6286 179.191 72.8701 177.876 59.098 178.16C56.7409 171.679 56.4068 164.635 58.14 157.96C73.3673 157.236 88.623 158.555 103.5 161.882C106.68 167.242 112.556 172.556 119.016 171.444C127.568 169.972 126.76 159.692 126.556 157.926C139.592 150.336 152.055 141.8 163.842 132.386C169.311 136.089 173.782 141.084 176.86 146.928C167.896 154.384 152.078 166.98 140.18 173.416ZM183.842 141C183.762 141.068 181.316 143.214 177.458 146.432C174.354 140.611 169.89 135.625 164.446 131.9C166.738 130.041 168.967 128.17 171.132 126.286C173.034 125.286 181.912 134.966 183.66 139.436C183.966 140.216 184.028 140.8 183.842 141ZM189.962 133.542C188.693 135.897 186.661 137.751 184.2 138.8C181.621 134.044 178.091 129.871 173.828 126.54C182.828 119.426 183.334 104.526 183.35 93.7401C183.35 93.6561 183.518 93.4841 183.534 93.4521C185.734 94.8681 188.91 110.968 188.094 119.168C187.182 122.008 186.346 124.474 186.334 124.512C186.302 124.607 186.309 124.71 186.354 124.8C186.398 124.889 186.476 124.957 186.571 124.989C186.666 125.021 186.769 125.014 186.859 124.969C186.948 124.925 187.016 124.847 187.048 124.752C187.06 124.716 189.746 116.458 190.146 115.128C191.002 112.268 191.786 111.552 192.1 111.564C192.266 111.564 192.64 111.94 192.86 113.244C193.819 120.147 192.815 127.181 189.962 133.54V133.542Z" fill="white"/>
<path d="M62.68 173.842C62.68 174.187 62.817 174.517 63.0608 174.761C63.3046 175.005 63.6352 175.142 63.98 175.142C64.3248 175.142 64.6554 175.005 64.8992 174.761C65.143 174.517 65.28 174.187 65.28 173.842C65.28 173.497 65.143 173.167 64.8992 172.923C64.6554 172.679 64.3248 172.542 63.98 172.542C63.6352 172.542 63.3046 172.679 63.0608 172.923C62.817 173.167 62.68 173.497 62.68 173.842Z" fill="white"/>
<path d="M80 162.44C80.0132 162.775 80.1553 163.091 80.3968 163.323C80.6382 163.555 80.9601 163.685 81.295 163.685C81.6299 163.685 81.9518 163.555 82.1932 163.323C82.4347 163.091 82.5768 162.775 82.59 162.44C82.5768 162.105 82.4347 161.789 82.1932 161.557C81.9518 161.324 81.6299 161.195 81.295 161.195C80.9601 161.195 80.6382 161.324 80.3968 161.557C80.1553 161.789 80.0132 162.105 80 162.44Z" fill="white"/>
<path d="M96.57 175.138C96.57 175.483 96.707 175.813 96.9508 176.057C97.1946 176.301 97.5252 176.438 97.87 176.438C98.2148 176.438 98.5454 176.301 98.7892 176.057C99.033 175.813 99.17 175.483 99.17 175.138C99.17 174.793 99.033 174.462 98.7892 174.219C98.5454 173.975 98.2148 173.838 97.87 173.838C97.5252 173.838 97.1946 173.975 96.9508 174.219C96.707 174.462 96.57 174.793 96.57 175.138Z" fill="white"/>
<path d="M119.186 178.736C119.186 179.081 119.323 179.411 119.567 179.655C119.811 179.899 120.141 180.036 120.486 180.036C120.831 180.036 121.161 179.899 121.405 179.655C121.649 179.411 121.786 179.081 121.786 178.736C121.786 178.391 121.649 178.061 121.405 177.817C121.161 177.573 120.831 177.436 120.486 177.436C120.141 177.436 119.811 177.573 119.567 177.817C119.323 178.061 119.186 178.391 119.186 178.736Z" fill="white"/>
<path d="M130.922 159.014C130.922 159.359 131.059 159.689 131.303 159.933C131.547 160.177 131.877 160.314 132.222 160.314C132.567 160.314 132.897 160.177 133.141 159.933C133.385 159.689 133.522 159.359 133.522 159.014C133.522 158.669 133.385 158.338 133.141 158.095C132.897 157.851 132.567 157.714 132.222 157.714C131.877 157.714 131.547 157.851 131.303 158.095C131.059 158.338 130.922 158.669 130.922 159.014Z" fill="white"/>
<path d="M155.514 158.746C155.514 158.401 155.377 158.07 155.133 157.827C154.889 157.583 154.559 157.446 154.214 157.446C153.869 157.446 153.539 157.583 153.295 157.827C153.051 158.07 152.914 158.401 152.914 158.746C152.914 159.091 153.051 159.421 153.295 159.665C153.539 159.909 153.869 160.046 154.214 160.046C154.559 160.046 154.889 159.909 155.133 159.665C155.377 159.421 155.514 159.091 155.514 158.746Z" fill="white"/>
<path d="M162.946 141.246C162.946 140.901 162.809 140.57 162.565 140.327C162.321 140.083 161.991 139.946 161.646 139.946C161.301 139.946 160.971 140.083 160.727 140.327C160.483 140.57 160.346 140.901 160.346 141.246C160.346 141.591 160.483 141.921 160.727 142.165C160.971 142.409 161.301 142.546 161.646 142.546C161.991 142.546 162.321 142.409 162.565 142.165C162.809 141.921 162.946 141.591 162.946 141.246Z" fill="white"/>
<path d="M109.662 196.432C109.675 196.767 109.817 197.083 110.059 197.315C110.3 197.548 110.622 197.677 110.957 197.677C111.292 197.677 111.614 197.548 111.855 197.315C112.097 197.083 112.239 196.767 112.252 196.432C112.239 196.097 112.097 195.781 111.855 195.549C111.614 195.317 111.292 195.187 110.957 195.187C110.622 195.187 110.3 195.317 110.059 195.549C109.817 195.781 109.675 196.097 109.662 196.432Z" fill="white"/>
<path d="M129.628 195.136C129.628 195.481 129.765 195.811 130.009 196.055C130.253 196.299 130.583 196.436 130.928 196.436C131.273 196.436 131.603 196.299 131.847 196.055C132.091 195.811 132.228 195.481 132.228 195.136C132.228 194.791 132.091 194.461 131.847 194.217C131.603 193.973 131.273 193.836 130.928 193.836C130.583 193.836 130.253 193.973 130.009 194.217C129.765 194.461 129.628 194.791 129.628 195.136Z" fill="white"/>
<path d="M111.022 219.184C113.879 218.648 116.587 217.505 118.964 215.833C121.341 214.16 123.332 211.998 124.802 209.49C124.857 209.407 124.876 209.305 124.856 209.207C124.836 209.109 124.778 209.023 124.694 208.968C124.61 208.913 124.508 208.894 124.411 208.914C124.313 208.934 124.227 208.993 124.172 209.076C122.757 211.496 120.839 213.584 118.548 215.2C116.257 216.816 113.646 217.923 110.892 218.444C110.797 218.465 110.714 218.522 110.66 218.602C110.606 218.683 110.585 218.781 110.602 218.876C110.619 218.972 110.672 219.057 110.75 219.115C110.828 219.172 110.926 219.197 111.022 219.184Z" fill="white"/>
<path d="M213.07 131.744C213.07 132.089 213.207 132.419 213.451 132.663C213.695 132.907 214.025 133.044 214.37 133.044C214.715 133.044 215.045 132.907 215.289 132.663C215.533 132.419 215.67 132.089 215.67 131.744C215.67 131.399 215.533 131.068 215.289 130.825C215.045 130.581 214.715 130.444 214.37 130.444C214.025 130.444 213.695 130.581 213.451 130.825C213.207 131.068 213.07 131.399 213.07 131.744Z" fill="white"/>
<path d="M345.084 161.6C345.084 161.255 344.947 160.924 344.703 160.681C344.459 160.437 344.129 160.3 343.784 160.3C343.439 160.3 343.109 160.437 342.865 160.681C342.621 160.924 342.484 161.255 342.484 161.6C342.484 161.945 342.621 162.275 342.865 162.519C343.109 162.763 343.439 162.9 343.784 162.9C344.129 162.9 344.459 162.763 344.703 162.519C344.947 162.275 345.084 161.945 345.084 161.6Z" fill="white"/>
</svg>
