<svg width="400" height="400" viewBox="0 0 400 400" fill="none" xmlns="http://www.w3.org/2000/svg">
<path d="M272.24 56.2797C271.967 55.2151 272.015 54.0933 272.379 53.0562C272.743 52.0191 273.406 51.1132 274.285 50.4528C275.164 49.7924 276.218 49.4073 277.316 49.346C278.413 49.2848 279.504 49.5502 280.451 50.1087C281.397 50.6672 282.157 51.4937 282.634 52.4839C283.111 53.4741 283.284 54.5834 283.131 55.6718C282.978 56.7603 282.506 57.7789 281.774 58.599C281.042 59.4191 280.084 60.004 279.02 60.2797C278.312 60.4658 277.574 60.5099 276.849 60.4092C276.124 60.3086 275.426 60.0653 274.796 59.6933C274.166 59.3214 273.615 58.8282 273.176 58.2423C272.738 57.6564 272.419 56.9893 272.24 56.2797ZM276.38 50.2797C275.462 50.5207 274.635 51.0287 274.006 51.7394C273.376 52.4502 272.971 53.3317 272.843 54.2725C272.714 55.2133 272.867 56.1711 273.283 57.0247C273.699 57.8784 274.359 58.5895 275.179 59.0681C275.999 59.5467 276.943 59.7714 277.89 59.7136C278.838 59.6558 279.748 59.3182 280.503 58.7435C281.259 58.1688 281.828 57.3829 282.137 56.485C282.446 55.5872 282.482 54.6179 282.24 53.6997C282.086 53.0851 281.812 52.5071 281.433 51.9989C281.055 51.4908 280.58 51.0626 280.035 50.7391C279.49 50.4156 278.887 50.2032 278.259 50.114C277.632 50.0248 276.993 50.0608 276.38 50.2197V50.2797Z" fill="white"/>
<path d="M288.52 65.6C288.248 64.5361 288.297 63.4155 288.661 62.3795C289.025 61.3435 289.688 60.4385 290.565 59.7786C291.443 59.1187 292.496 58.7335 293.593 58.6715C294.689 58.6095 295.779 58.8735 296.726 59.4302C297.672 59.987 298.433 60.8115 298.911 61.7999C299.39 62.7883 299.565 63.8962 299.414 64.9839C299.264 66.0716 298.795 67.0905 298.066 67.912C297.338 68.7335 296.382 69.3208 295.32 69.6C293.888 69.9709 292.367 69.7579 291.092 69.0078C289.817 68.2577 288.892 67.0319 288.52 65.6ZM292.68 59.6C291.762 59.841 290.935 60.349 290.306 61.0597C289.676 61.7705 289.271 62.652 289.143 63.5928C289.014 64.5336 289.167 65.4914 289.583 66.345C289.999 67.1987 290.659 67.9098 291.479 68.3884C292.299 68.867 293.243 69.0917 294.19 69.0339C295.138 68.9761 296.048 68.6385 296.803 68.0638C297.559 67.4891 298.128 66.7032 298.437 65.8053C298.746 64.9075 298.782 63.9382 298.54 63.02C298.388 62.404 298.116 61.8244 297.738 61.3148C297.36 60.8053 296.885 60.3761 296.339 60.0522C295.794 59.7283 295.189 59.5162 294.561 59.4282C293.933 59.3403 293.293 59.3783 292.68 59.54V59.6Z" fill="white"/>
<path d="M276.96 73.7196L293.84 44.7196C293.89 44.6321 293.973 44.5682 294.071 44.5419C294.169 44.5156 294.272 44.5292 294.36 44.5796C294.447 44.63 294.511 44.7131 294.538 44.8106C294.564 44.9081 294.55 45.0121 294.5 45.0996L277.6 74.0996C277.582 74.1529 277.552 74.2015 277.512 74.2418C277.473 74.282 277.425 74.313 277.372 74.3324C277.319 74.3518 277.262 74.3592 277.206 74.354C277.15 74.3488 277.095 74.3312 277.047 74.3024C276.998 74.2736 276.957 74.2343 276.925 74.1875C276.894 74.1407 276.873 74.0874 276.865 74.0316C276.857 73.9758 276.861 73.9189 276.877 73.8649C276.894 73.8109 276.922 73.7613 276.96 73.7196Z" fill="white"/>
<path d="M354.94 217.24C354.082 215.829 352.84 214.691 351.36 213.958C349.88 213.225 348.222 212.928 346.58 213.1L322.84 95.26L336 83.54C336.928 84.4335 338.166 84.9327 339.454 84.9327C340.743 84.9326 341.981 84.4333 342.909 83.5397C343.837 82.6461 344.382 81.4276 344.431 80.1403C344.479 78.8529 344.027 77.5969 343.169 76.6359C342.311 75.6749 341.114 75.0839 339.829 74.9868C338.545 74.8898 337.273 75.2943 336.28 76.1154C335.287 76.9366 334.651 78.1105 334.506 79.3905C334.361 80.6705 334.717 81.9571 335.5 82.98C321.26 95.76 322.08 94.88 322.14 95.2L327.74 122.96L212.9 196C212.855 196.033 212.818 196.077 212.792 196.127C212.767 196.178 212.753 196.234 212.753 196.29C212.753 196.346 212.767 196.402 212.792 196.452C212.818 196.503 212.855 196.547 212.9 196.58C261.1 239.64 257.88 237.14 258.24 236.96L341.52 191.48L345.88 213.18C344.488 213.456 343.185 214.066 342.083 214.96C340.981 215.853 340.113 217.002 339.556 218.306C338.998 219.611 338.767 221.031 338.883 222.445C338.999 223.859 339.458 225.224 340.22 226.42C296.22 256.58 298.5 255.12 298.38 254.92C297.199 252.97 295.303 251.559 293.096 250.987C290.889 250.416 288.546 250.729 286.567 251.86C284.588 252.992 283.129 254.852 282.502 257.043C281.875 259.235 282.128 261.585 283.209 263.592C284.29 265.599 286.112 267.105 288.287 267.787C290.462 268.47 292.818 268.276 294.852 267.246C296.886 266.217 298.437 264.433 299.174 262.276C299.912 260.119 299.778 257.759 298.8 255.7L340.64 227.02C341.963 228.874 343.96 230.136 346.202 230.534C348.445 230.932 350.754 230.435 352.634 229.15C354.514 227.864 355.815 225.892 356.257 223.658C356.7 221.424 356.248 219.105 355 217.2L354.94 217.24ZM258 236.2L213.72 196.4L327.72 123.76L341.22 190.74L258 236.2Z" fill="white"/>
<path d="M190.5 252.6C190.389 250.039 189.732 247.531 188.573 245.244C187.414 242.957 185.78 240.944 183.78 239.34C170.267 228.194 155.873 218.161 140.74 209.34C140.198 203.864 139.079 198.46 137.4 193.22L115.76 187.02C115.76 187.02 90.34 207.02 96.52 225.14C99.94 235.14 113.46 248.52 159.08 259C154.516 282.716 148.586 306.148 141.32 329.18C143.32 325.4 153.32 323.18 165.12 324.5C178 326 188 330.64 187.58 335L187.72 335.18C190.735 307.763 191.664 280.157 190.5 252.6V252.6Z" fill="#B2BEC3"/>
<path d="M198 225C158 203.62 139.16 197.4 138.44 196.86C139.631 200.958 140.402 205.166 140.74 209.42C155.873 218.241 170.267 228.274 183.78 239.42C185.78 241.024 187.414 243.037 188.573 245.324C189.732 247.611 190.389 250.119 190.5 252.68C190.5 254 190.62 255.32 190.66 256.68L229.64 314.28C227.86 311 233.64 302.28 243.1 294.28C252.56 286.28 261.92 282.1 264.98 284.28L207.52 231.78C204.649 229.123 201.45 226.844 198 225V225Z" fill="#B2BEC3"/>
<path d="M232.58 155.24C232.365 152.053 231.487 148.947 230 146.12C229.964 146.076 229.938 146.025 229.924 145.97C229.91 145.914 229.909 145.857 229.921 145.801C229.932 145.746 229.956 145.693 229.99 145.648C230.024 145.603 230.068 145.566 230.119 145.54C230.169 145.514 230.225 145.499 230.282 145.498C230.338 145.496 230.395 145.507 230.447 145.53C230.499 145.553 230.545 145.588 230.582 145.631C230.619 145.674 230.645 145.725 230.66 145.78C232.209 148.691 233.135 151.892 233.38 155.18C233.384 155.232 233.377 155.285 233.361 155.335C233.345 155.385 233.318 155.431 233.284 155.471C233.25 155.511 233.208 155.544 233.161 155.568C233.114 155.592 233.063 155.606 233.01 155.61C232.957 155.614 232.905 155.607 232.855 155.591C232.805 155.574 232.758 155.548 232.718 155.514C232.678 155.479 232.646 155.438 232.622 155.391C232.598 155.344 232.584 155.292 232.58 155.24Z" fill="white"/>
<path d="M261.34 114.8C259.129 112.578 256.498 110.818 253.6 109.623C250.702 108.428 247.595 107.822 244.46 107.84C240.298 107.851 236.21 108.951 232.604 111.03C228.999 113.109 225.999 116.095 223.905 119.692C221.81 123.289 220.693 127.372 220.664 131.534C220.635 135.697 221.695 139.794 223.74 143.42C223.763 143.465 223.795 143.505 223.834 143.538C223.874 143.57 223.919 143.593 223.969 143.607C224.018 143.62 224.069 143.623 224.119 143.614C224.17 143.606 224.217 143.588 224.26 143.56C226.26 142.32 232 137.94 232.78 138.38C232.805 138.458 232.805 138.542 232.78 138.62C232.48 140.62 228.16 144.62 226.52 146.08C226.3 146.26 226.52 146.42 226.52 147.1C226.484 147.19 226.484 147.29 226.52 147.38C228.641 149.736 231.21 151.646 234.078 152.998C236.945 154.35 240.054 155.116 243.221 155.251C246.389 155.387 249.552 154.89 252.524 153.788C255.497 152.687 258.22 151.003 260.535 148.837C262.849 146.67 264.708 144.063 266.003 141.17C267.298 138.276 268.002 135.153 268.075 131.983C268.148 128.814 267.589 125.661 266.429 122.711C265.269 119.76 263.532 117.071 261.32 114.8H261.34Z" fill="white"/>
<path d="M253.1 136.16L245.1 131.56L249.7 123.46C249.738 123.418 249.766 123.368 249.783 123.314C249.799 123.261 249.803 123.204 249.795 123.148C249.787 123.092 249.766 123.039 249.735 122.992C249.703 122.945 249.662 122.906 249.613 122.877C249.565 122.848 249.51 122.831 249.454 122.825C249.398 122.82 249.341 122.828 249.288 122.847C249.235 122.866 249.187 122.897 249.148 122.938C249.108 122.978 249.078 123.026 249.06 123.08L244.44 131.18L236.34 126.56C236.254 126.528 236.16 126.529 236.075 126.561C235.99 126.593 235.919 126.654 235.875 126.734C235.832 126.814 235.818 126.908 235.837 126.997C235.857 127.086 235.907 127.165 235.98 127.22L243.98 131.84L239.38 139.84C239.16 140.2 239.68 140.72 240.06 140.16C240.44 139.6 241.42 137.78 244.64 132.16C247.312 133.865 250.076 135.42 252.92 136.82C252.99 136.807 253.055 136.774 253.108 136.726C253.16 136.677 253.198 136.615 253.217 136.546C253.236 136.477 253.235 136.405 253.214 136.336C253.193 136.268 253.154 136.207 253.1 136.16V136.16Z" fill="#B2BEC3"/>
<path d="M301.6 326.82C294.149 319.582 285.712 313.435 276.54 308.56C270.54 305.48 266.02 300.76 261.64 296.18C264.02 293.2 268.42 286.84 265.64 284.18L207.78 231.28C204.909 228.648 201.717 226.39 198.28 224.56C179 214.079 159.127 204.73 138.76 196.56C138.32 194.92 137.96 193.72 137.82 193.32C141.354 186.875 144.434 180.192 147.04 173.32C152.735 177.129 158.926 180.137 165.44 182.26C168.801 183.441 172.452 183.519 175.86 182.48C189.312 178.409 202.441 173.342 215.14 167.32C215.211 167.283 215.269 167.224 215.305 167.152C215.341 167.08 215.353 166.999 215.34 166.92C215.34 166.54 215.34 166.16 215.18 165.76C217.46 165 231.72 159.96 238.5 153.14C238.551 153.066 238.574 152.976 238.565 152.886C238.556 152.797 238.515 152.713 238.45 152.651C238.385 152.589 238.301 152.551 238.211 152.546C238.121 152.54 238.032 152.566 237.96 152.62C231.4 159.22 217.62 164.14 215.06 165.02C214.248 160.279 212.449 155.761 209.78 151.76C214.719 149.375 219.513 146.704 224.14 143.76C225.96 142.6 231.94 138.1 232.74 138.52C232.765 138.598 232.765 138.682 232.74 138.76C232.44 140.76 228.12 144.76 226.48 146.22C226.436 146.26 226.403 146.31 226.382 146.366C226.361 146.421 226.354 146.481 226.36 146.54C226.68 149.16 224.36 152.18 219.56 155.48C219.497 155.495 219.44 155.527 219.392 155.571C219.345 155.615 219.31 155.67 219.29 155.732C219.27 155.793 219.266 155.859 219.279 155.922C219.291 155.986 219.32 156.045 219.361 156.094C219.403 156.143 219.457 156.181 219.517 156.204C219.578 156.227 219.643 156.234 219.707 156.225C219.771 156.215 219.831 156.19 219.883 156.15C219.934 156.111 219.974 156.059 220 156C224.96 152.6 227.36 149.44 227.14 146.56C228.1 145.72 233.14 141.24 233.5 138.78C233.551 138.601 233.546 138.411 233.485 138.236C233.425 138.06 233.311 137.908 233.16 137.8C231.8 136.94 226.68 141.14 223.74 143.02C219.11 145.982 214.301 148.654 209.34 151.02L208.52 149.94C208.47 149.875 208.399 149.828 208.32 149.806C208.241 149.785 208.156 149.789 208.08 149.82C194.08 155.82 182.4 159.64 172.66 161.2C162.467 157.547 152.782 152.607 143.84 146.5C140.16 144.1 141.84 138.78 142.42 137.44C143.215 137.864 144.091 138.117 144.99 138.182C145.889 138.248 146.792 138.124 147.64 137.82C153.24 135.44 152.64 123.28 152.6 117.1C152.92 115.276 152.88 113.408 152.48 111.6C153.5 110.06 153.957 108.215 153.771 106.378C153.586 104.54 152.771 102.823 151.463 101.518C150.156 100.213 148.438 99.4011 146.6 99.2191C144.762 99.0371 142.918 99.4967 141.38 100.52C138.657 99.941 135.825 100.156 133.22 101.14C132.302 99.7063 131.034 98.5308 129.535 97.7246C128.036 96.9184 126.356 96.5082 124.654 96.5327C122.952 96.5573 121.284 97.0159 119.809 97.865C118.334 98.7141 117.1 99.9257 116.224 101.385C115.348 102.844 114.859 104.503 114.804 106.204C114.748 107.906 115.127 109.593 115.906 111.106C116.685 112.62 117.837 113.91 119.253 114.853C120.669 115.797 122.303 116.364 124 116.5C124.413 119.671 125.861 122.616 128.12 124.88C129.827 126.936 131.142 129.289 132 131.82C132.64 134.12 132.24 137.24 130.42 137.82C128.18 138.6 125.8 137.24 123.98 135.7C103.08 118.24 88.88 104 73.72 79.0398C73.408 78.4211 72.9047 77.9196 72.285 77.6098C71.6653 77.2999 70.9621 77.1982 70.28 77.3198C67.78 72.8798 64.9 66.3198 65.82 61.0198C66.92 54.6198 66.26 53.5398 65.58 53.3198C64.9 53.0998 63.58 53.5998 60.72 59.6798C60.6 59.9398 60.48 60.1998 60.36 60.4998C59.2906 57.5699 58.376 54.5858 57.62 51.5598C56.64 47.5598 55.62 45.7198 54.58 45.8598C52.8 46.0798 52.98 52.6598 53.08 54.4398C51.8 51.0598 50.26 45.0198 48.54 45.4598C46.82 45.8998 47.7 51.4598 47.92 53.1998C47.18 51.5998 46.48 50.8598 45.82 51.0198C44.4 51.3198 44.76 55.4998 45.1 57.9398C45.4187 60.2099 45.9203 62.4505 46.6 64.6398C45.8 63.8598 44.9 63.3598 44.3 63.6598C43.7 63.9598 43.66 65.6598 45.1 68.7998C47.88 74.7998 52.14 82.5598 55 87.6598C54.6489 88.2679 54.4641 88.9576 54.4641 89.6598C54.4641 90.3619 54.6489 91.0517 55 91.6598C64.4 110.38 83.18 131.88 107 151.46C110.398 163.099 113.182 174.908 115.34 186.84C113.1 188.66 90.22 207.94 96.14 225.22C100.98 239.36 122 250.8 158.64 259.22C152.64 292.6 140.86 328.12 140.64 329.86C140.3 333.02 144.9 336.38 152.64 338.68C150.64 355.56 150.8 354.1 150.96 354.52C153.26 360.9 158.06 374.08 175.54 390.26C175.585 390.304 175.64 390.336 175.701 390.352C175.761 390.368 175.825 390.368 175.886 390.352C175.946 390.335 176.002 390.304 176.046 390.259C176.091 390.215 176.123 390.16 176.14 390.1C177.78 385.42 178.14 378.58 177.02 369.2C175.84 358.54 174.04 354.08 175.4 341C180.04 340.6 187.56 339.28 188.04 334.78C190.806 309.219 191.789 283.497 190.98 257.8L229.42 314.6C229.768 315.073 230.233 315.447 230.77 315.685C231.306 315.924 231.896 316.018 232.48 315.96C235.24 315.96 239.42 314.34 244.32 311.28C256.54 324.4 255.92 323.78 256.06 323.86C270.537 329.005 286.116 330.233 301.22 327.42C301.295 327.435 301.374 327.427 301.445 327.397C301.516 327.367 301.576 327.316 301.617 327.251C301.658 327.186 301.678 327.11 301.675 327.033C301.672 326.956 301.646 326.881 301.6 326.82ZM136.48 128.6C136.48 128.18 136.48 126.88 136.2 126.6C132 121.82 135.9 117.88 137.72 121.14C138.36 122.28 138.9 122.8 139.44 122.8C139.98 122.8 140.34 122.22 140.44 122.02C143 115.12 150.22 112.46 151.52 119.86C151.739 121.229 151.853 122.613 151.86 124C151.72 131.48 150.22 135.86 147.4 137.06C143.86 138.58 139.4 134.46 139.4 134.42C139.339 134.366 139.262 134.333 139.181 134.325C139.1 134.318 139.019 134.337 138.949 134.38C138.88 134.423 138.826 134.486 138.795 134.562C138.765 134.638 138.759 134.721 138.78 134.8C138.78 135 140.92 141.12 140.96 141.18C140.817 142.306 140.985 143.45 141.447 144.486C141.909 145.523 142.647 146.413 143.58 147.06L144.36 147.58C139.68 147.02 134.36 144.12 128.24 138.72C133.02 139.58 136.2 132.72 136.48 128.6ZM145.26 148.48L144.6 154.26L137.4 146.26C137.2 146.04 137.96 146.06 125.78 147.08L126.9 138.62C134 145.04 140 148.24 145.26 148.48ZM48.7 46.1798C48.7 46.1798 49.54 46.3398 51.08 51.0198C51.82 53.2998 52.58 55.3198 53.32 57.0198C53.4793 58.3637 53.7063 59.6987 54 61.0198C53.1027 62.3162 52.3451 63.7039 51.74 65.1598C50.1383 60.8506 49.0573 56.3655 48.52 51.7998C48 47.4598 48.52 46.2598 48.7 46.1798ZM45.84 57.8398C45.22 53.3598 45.72 51.8398 45.98 51.7398C46.24 51.6398 46.98 51.9198 48.6 57.1998C49.2994 60.2978 50.2081 63.3448 51.32 66.3198C50.6942 67.9662 50.2515 69.6765 50 71.4198C47.9547 67.1217 46.553 62.546 45.84 57.8398ZM45.84 68.4798C44.12 64.7998 44.68 64.3398 44.68 64.3398C45.04 64.1598 46.68 65.3398 47.4 66.8198C48.24 69.1398 49.02 70.8198 49.94 72.8198C50.18 73.3198 50.66 73.1198 50.7 72.8198C51.0023 67.9516 52.9405 63.3283 56.2 59.6998C56.2743 59.6308 56.3181 59.5352 56.3218 59.4339C56.3256 59.3327 56.289 59.2341 56.22 59.1598C56.151 59.0855 56.0554 59.0417 55.9541 59.038C55.8529 59.0342 55.7543 59.0708 55.68 59.1398C55.3198 59.5082 54.9793 59.8954 54.66 60.2998C54.1455 57.7308 53.8709 55.1196 53.84 52.4998C53.84 46.8598 54.74 46.4998 54.74 46.4998C54.74 46.4998 55.86 47.3598 56.96 51.6598C57.7817 55.0222 58.7967 58.3343 60 61.5798C58.4342 67.1218 57.4555 72.8131 57.08 78.5598C57.08 79.0398 57.8 79.1398 57.82 78.5598C57.82 78.4398 58.78 65.4598 61.44 59.9398C64.44 53.7798 65.44 53.9398 65.44 53.9398C65.44 53.9398 66.3 54.2998 65.18 60.7798C63.66 69.5198 71.68 80.9598 72.88 82.5998C70.7 87.3798 63.56 92.2398 58.7 92.3398C54.58 85.4598 49.18 75.7798 45.78 68.4798H45.84ZM111.12 163.42L114 156.4C114.023 156.209 113.973 156.016 113.86 155.86C92.78 139.5 68.8 116.3 56.48 92.8798C61.8 95.0198 73.42 87.0398 74.06 80.9998C88.9 105 102.98 119.14 123.44 136.34C124.285 137.069 125.219 137.687 126.22 138.18L124.96 147.52C124.954 147.576 124.96 147.634 124.979 147.688C124.998 147.742 125.029 147.791 125.069 147.831C125.109 147.871 125.158 147.902 125.212 147.921C125.266 147.94 125.323 147.946 125.38 147.94L136.96 146.98L144.6 155.38C144.65 155.434 144.714 155.474 144.785 155.492C144.857 155.511 144.932 155.508 145.002 155.485C145.072 155.462 145.133 155.419 145.179 155.361C145.225 155.303 145.253 155.233 145.26 155.16L145.98 148.76C154.266 154.23 163.184 158.676 172.54 162H172.74C182.48 160.44 194.06 156.74 208.14 150.68C211.664 155.351 213.893 160.871 214.6 166.68C202.012 172.628 189.004 177.641 175.68 181.68C172.41 182.674 168.908 182.604 165.68 181.48C160.948 179.881 156.364 177.874 151.98 175.48C147.98 159.06 149.56 166.4 149.08 160.44C149.08 160.339 149.04 160.242 148.969 160.171C148.897 160.1 148.801 160.06 148.7 160.06C148.599 160.06 148.503 160.1 148.431 160.171C148.36 160.242 148.32 160.339 148.32 160.44C148.84 166.78 147.26 173.54 137.24 192.78L116.12 186.78C115.38 181.6 113.28 172 111.12 163.42ZM174.7 342C173.5 353.44 175.32 359.84 176.34 368.46C167.679 361.998 159.74 354.622 152.66 346.46C154.44 330.82 155.16 324.66 155.16 324.66C162.276 324.329 169.399 325.173 176.24 327.16C176.16 328 175.02 338.96 174.7 342ZM187.62 332.98C182.74 324.42 150.36 320.5 142.24 327.4C147.12 311.24 151.02 297.2 154.06 284.68L163.78 260C163.9 259.68 163.78 259.54 163.5 259.5C142.88 254.58 103.76 244.82 96.94 224.92C91.16 208.06 113.82 189.04 115.9 187.34L137.16 193.5C138.729 198.435 139.808 203.513 140.38 208.66C138.7 207.7 137.04 206.8 135.38 205.92C135.294 205.888 135.2 205.889 135.115 205.921C135.03 205.953 134.959 206.014 134.915 206.094C134.872 206.174 134.858 206.268 134.877 206.357C134.897 206.446 134.947 206.525 135.02 206.58C152.223 216.014 168.49 227.064 183.6 239.58C185.553 241.154 187.15 243.126 188.284 245.363C189.418 247.601 190.065 250.054 190.18 252.56C191.307 279.386 190.452 306.259 187.62 332.96V332.98ZM229.16 312.66L191.16 256.42C191.16 255.12 191.16 253.82 191 252.54C190.865 249.915 190.17 247.349 188.963 245.014C187.756 242.678 186.064 240.628 184 239C170.538 227.903 156.198 217.917 141.12 209.14C140.774 205.175 140.058 201.251 138.98 197.42C159.169 205.571 178.875 214.873 198 225.28C201.386 227.084 204.531 229.308 207.36 231.9L263.7 283.4C254.2 282.42 229.64 303.04 229.16 312.64V312.66ZM251.6 317.88L236.4 301.54C241.156 296.245 246.669 291.682 252.76 288C263.68 299.42 268.76 305.44 276.18 309.26C278.32 310.36 280.5 311.58 282.66 312.94C272.628 316.196 262.147 317.856 251.6 317.86V317.88Z" fill="white"/>
<path d="M107.08 286L97.2 283.44L99.76 273.56C99.7865 273.462 99.773 273.357 99.7223 273.269C99.6717 273.181 99.5881 273.116 99.49 273.09C99.3919 273.063 99.2872 273.077 99.1991 273.128C99.1109 273.178 99.0465 273.262 99.02 273.36L96.46 283.24L86.58 280.68C86.4819 280.656 86.3783 280.672 86.292 280.725C86.2057 280.777 86.1439 280.862 86.12 280.96C86.0961 281.058 86.1122 281.162 86.1647 281.248C86.2172 281.334 86.3019 281.396 86.4 281.42L96.28 284L93.72 294C93.6961 294.098 93.7122 294.202 93.7647 294.288C93.8172 294.374 93.9019 294.436 94 294.46C94.0981 294.484 94.2017 294.468 94.288 294.415C94.3742 294.363 94.4361 294.278 94.46 294.18L97 284.32C106.56 286.8 106.84 286.88 107 286.88C107.117 286.891 107.233 286.854 107.323 286.779C107.413 286.704 107.469 286.597 107.48 286.48C107.491 286.363 107.454 286.247 107.379 286.157C107.304 286.067 107.197 286.011 107.08 286Z" fill="white"/>
<path d="M193.48 68.3196C193.28 68.3196 192.84 68.1996 174.48 63.3996C174.385 63.3716 174.305 63.308 174.257 63.2222C174.208 63.1364 174.195 63.035 174.22 62.9396L181.32 35.6396C181.32 35.3596 180.56 35.7396 192.66 31.4796C192.718 31.4373 192.788 31.4146 192.86 31.4146C192.932 31.4146 193.002 31.4373 193.06 31.4796L200.86 40.2996C201.06 40.5196 201.48 38.7796 193.84 67.9396C193.84 68.037 193.803 68.1307 193.736 68.2015C193.669 68.2722 193.577 68.3145 193.48 68.3196ZM175.04 62.7596L193.22 67.4796L200.16 40.7396L192.66 32.2596L182 35.9996L175.04 62.7596Z" fill="white"/>
<path d="M200.8 9.67978C188.22 16.9798 203.08 29.3198 191.22 36.3198C190.573 36.2485 189.922 36.4207 189.395 36.8029C188.868 37.1852 188.502 37.75 188.369 38.3873C188.235 39.0246 188.344 39.6888 188.674 40.2503C189.003 40.8119 189.53 41.2305 190.152 41.4248C190.773 41.619 191.445 41.5748 192.035 41.3009C192.626 41.0269 193.094 40.5429 193.347 39.943C193.6 39.3431 193.621 38.6704 193.405 38.0561C193.189 37.4417 192.753 36.9297 192.18 36.6198C203.64 29.1998 189.28 17.2398 201.18 10.3198C201.233 10.3014 201.282 10.2713 201.322 10.2318C201.362 10.1923 201.393 10.1443 201.413 10.0914C201.432 10.0384 201.44 9.98175 201.434 9.92557C201.429 9.86939 201.412 9.81507 201.383 9.76656C201.354 9.71805 201.315 9.67656 201.268 9.64511C201.221 9.61365 201.168 9.59302 201.112 9.58471C201.056 9.5764 200.999 9.58062 200.945 9.59707C200.891 9.61351 200.842 9.64177 200.8 9.67978ZM192.8 39.3998C192.71 39.7351 192.529 40.0387 192.276 40.2762C192.023 40.5137 191.708 40.6756 191.368 40.7437C191.027 40.8117 190.675 40.7832 190.35 40.6613C190.025 40.5394 189.74 40.329 189.529 40.0538C189.317 39.7787 189.187 39.4499 189.152 39.1045C189.118 38.7591 189.181 38.411 189.334 38.0995C189.487 37.788 189.724 37.5255 190.018 37.3418C190.313 37.158 190.653 37.0603 191 37.0598C191.28 37.0683 191.555 37.1402 191.804 37.2699C192.052 37.3997 192.268 37.584 192.436 37.809C192.603 38.0341 192.717 38.2941 192.77 38.5696C192.823 38.845 192.812 39.1289 192.74 39.3998H192.8Z" fill="white"/>
</svg>
