<svg width="400" height="401" viewBox="0 0 400 401" fill="none" xmlns="http://www.w3.org/2000/svg">
<path d="M272.24 56.9617C271.967 55.8971 272.015 54.7753 272.379 53.7382C272.743 52.7011 273.406 51.7952 274.285 51.1348C275.164 50.4744 276.218 50.0893 277.316 50.028C278.413 49.9668 279.504 50.2322 280.451 50.7907C281.397 51.3492 282.157 52.1757 282.634 53.1659C283.111 54.1561 283.284 55.2654 283.131 56.3539C282.978 57.4423 282.506 58.4609 281.774 59.281C281.042 60.1011 280.084 60.686 279.02 60.9617C278.312 61.1478 277.574 61.1919 276.849 61.0912C276.124 60.9906 275.426 60.7473 274.796 60.3753C274.166 60.0034 273.615 59.5102 273.176 58.9243C272.738 58.3384 272.419 57.6713 272.24 56.9617ZM276.38 50.9617C275.462 51.2027 274.635 51.7107 274.006 52.4214C273.376 53.1322 272.971 54.0137 272.843 54.9545C272.714 55.8953 272.867 56.8531 273.283 57.7067C273.699 58.5604 274.359 59.2715 275.179 59.7501C275.999 60.2287 276.943 60.4534 277.89 60.3956C278.838 60.3378 279.748 60.0002 280.503 59.4255C281.259 58.8508 281.828 58.0649 282.137 57.1671C282.446 56.2692 282.482 55.2999 282.24 54.3817C282.086 53.7671 281.812 53.1891 281.433 52.6809C281.055 52.1728 280.58 51.7446 280.035 51.4211C279.49 51.0976 278.887 50.8852 278.259 50.796C277.632 50.7069 276.993 50.7428 276.38 50.9017V50.9617Z" fill="#1890ff"/>
<path d="M288.52 66.2816C288.248 65.2178 288.297 64.0972 288.661 63.0612C289.025 62.0252 289.688 61.1202 290.565 60.4603C291.443 59.8004 292.496 59.4151 293.593 59.3531C294.689 59.2911 295.779 59.5551 296.726 60.1119C297.672 60.6686 298.433 61.4932 298.911 62.4815C299.39 63.4699 299.565 64.5778 299.414 65.6655C299.264 66.7533 298.795 67.7721 298.066 68.5936C297.338 69.4151 296.382 70.0025 295.32 70.2816C293.888 70.6525 292.367 70.4395 291.092 69.6894C289.817 68.9393 288.892 67.7136 288.52 66.2816ZM292.68 60.2816C291.762 60.5226 290.935 61.0306 290.306 61.7414C289.676 62.4521 289.271 63.3337 289.143 64.2745C289.014 65.2153 289.167 66.173 289.583 67.0267C289.999 67.8803 290.659 68.5914 291.479 69.07C292.299 69.5487 293.243 69.7733 294.19 69.7155C295.138 69.6577 296.048 69.3202 296.803 68.7455C297.559 68.1708 298.128 67.3848 298.437 66.487C298.746 65.5892 298.782 64.6198 298.54 63.7016C298.388 63.0856 298.116 62.506 297.738 61.9965C297.36 61.4869 296.885 61.0577 296.339 60.7338C295.794 60.4099 295.189 60.1978 294.561 60.1099C293.933 60.0219 293.293 60.0599 292.68 60.2216V60.2816Z" fill="#1890ff"/>
<path d="M276.96 74.4017L293.84 45.4017C293.89 45.3142 293.973 45.2503 294.071 45.224C294.169 45.1978 294.272 45.2113 294.36 45.2617C294.447 45.3121 294.511 45.3952 294.538 45.4927C294.564 45.5902 294.55 45.6942 294.5 45.7817L277.6 74.7817C277.582 74.8351 277.552 74.8836 277.512 74.9239C277.473 74.9642 277.425 74.9951 277.372 75.0146C277.319 75.034 277.262 75.0414 277.206 75.0362C277.15 75.031 277.095 75.0133 277.047 74.9845C276.998 74.9557 276.957 74.9165 276.925 74.8696C276.894 74.8228 276.873 74.7695 276.865 74.7137C276.857 74.6579 276.861 74.601 276.877 74.547C276.894 74.493 276.922 74.4434 276.96 74.4017Z" fill="#1890ff"/>
<path d="M354.94 217.922C354.082 216.511 352.84 215.373 351.36 214.64C349.88 213.907 348.222 213.609 346.58 213.782L322.84 95.9416L336 84.2216C336.928 85.1152 338.166 85.6144 339.454 85.6143C340.743 85.6143 341.981 85.115 342.909 84.2213C343.837 83.3277 344.382 82.1093 344.431 80.8219C344.479 79.5346 344.027 78.2785 343.169 77.3175C342.311 76.3566 341.114 75.7655 339.829 75.6685C338.545 75.5714 337.273 75.9759 336.28 76.7971C335.287 77.6182 334.651 78.7921 334.506 80.0721C334.361 81.3522 334.717 82.6387 335.5 83.6616C321.26 96.4416 322.08 95.5616 322.14 95.8816L327.74 123.642L212.9 196.682C212.855 196.715 212.818 196.759 212.792 196.809C212.767 196.86 212.753 196.915 212.753 196.972C212.753 197.028 212.767 197.084 212.792 197.134C212.818 197.185 212.855 197.228 212.9 197.262C261.1 240.322 257.88 237.822 258.24 237.642L341.52 192.162L345.88 213.862C344.488 214.137 343.185 214.748 342.083 215.641C340.981 216.535 340.113 217.683 339.556 218.988C338.998 220.292 338.767 221.713 338.883 223.127C338.999 224.541 339.458 225.905 340.22 227.102C296.22 257.262 298.5 255.802 298.38 255.602C297.199 253.652 295.303 252.241 293.096 251.669C290.889 251.098 288.546 251.411 286.567 252.542C284.588 253.673 283.129 255.533 282.502 257.725C281.875 259.916 282.128 262.266 283.209 264.274C284.29 266.281 286.112 267.786 288.287 268.469C290.462 269.151 292.818 268.957 294.852 267.928C296.886 266.898 298.437 265.115 299.174 262.958C299.912 260.801 299.778 258.441 298.8 256.382L340.64 227.702C341.963 229.556 343.96 230.818 346.202 231.216C348.445 231.614 350.754 231.117 352.634 229.831C354.514 228.546 355.815 226.574 356.257 224.34C356.7 222.105 356.248 219.787 355 217.882L354.94 217.922ZM258 236.882L213.72 197.082L327.72 124.442L341.22 191.422L258 236.882Z" fill="#1890ff"/>
<path d="M190.5 253.282C190.389 250.72 189.732 248.212 188.573 245.926C187.414 243.639 185.78 241.626 183.78 240.022C170.267 228.875 155.873 218.843 140.74 210.022C140.198 204.546 139.079 199.142 137.4 193.902L115.76 187.702C115.76 187.702 90.34 207.702 96.52 225.822C99.94 235.822 113.46 249.202 159.08 259.682C154.516 283.397 148.586 306.83 141.32 329.862C143.32 326.082 153.32 323.862 165.12 325.182C178 326.682 188 331.322 187.58 335.682L187.72 335.862C190.735 308.445 191.664 280.839 190.5 253.282Z" fill="#FFE7EA"/>
<path d="M198 225.682C158 204.302 139.16 198.082 138.44 197.542C139.631 201.639 140.402 205.848 140.74 210.102C155.873 218.923 170.267 228.955 183.78 240.102C185.78 241.706 187.414 243.719 188.573 246.005C189.732 248.292 190.389 250.8 190.5 253.362C190.5 254.682 190.62 256.002 190.66 257.362L229.64 314.962C227.86 311.682 233.64 302.962 243.1 294.962C252.56 286.962 261.92 282.782 264.98 284.962L207.52 232.462C204.649 229.805 201.45 227.526 198 225.682Z" fill="#FFE7EA"/>
<path d="M232.58 155.922C232.365 152.735 231.487 149.628 230 146.802C229.964 146.758 229.938 146.707 229.924 146.651C229.91 146.596 229.909 146.539 229.921 146.483C229.932 146.428 229.956 146.375 229.99 146.33C230.024 146.285 230.068 146.248 230.119 146.222C230.169 146.196 230.225 146.181 230.282 146.18C230.338 146.178 230.395 146.189 230.447 146.212C230.499 146.235 230.545 146.269 230.582 146.313C230.619 146.356 230.645 146.407 230.66 146.462C232.209 149.373 233.135 152.574 233.38 155.862C233.384 155.914 233.377 155.967 233.361 156.017C233.345 156.067 233.318 156.113 233.284 156.153C233.25 156.193 233.208 156.226 233.161 156.25C233.114 156.273 233.063 156.288 233.01 156.292C232.957 156.296 232.905 156.289 232.855 156.273C232.805 156.256 232.758 156.23 232.718 156.196C232.678 156.161 232.646 156.119 232.622 156.072C232.598 156.025 232.584 155.974 232.58 155.922Z" fill="#1890ff"/>
<path d="M261.34 115.482C259.129 113.259 256.498 111.5 253.6 110.305C250.702 109.11 247.595 108.504 244.46 108.522C240.298 108.533 236.21 109.632 232.604 111.712C228.999 113.791 225.999 116.777 223.905 120.374C221.81 123.971 220.693 128.054 220.664 132.216C220.635 136.378 221.695 140.476 223.74 144.102C223.763 144.147 223.795 144.187 223.834 144.22C223.874 144.252 223.919 144.275 223.969 144.289C224.018 144.302 224.069 144.304 224.119 144.296C224.17 144.288 224.217 144.27 224.26 144.242C226.26 143.002 232 138.622 232.78 139.062C232.805 139.14 232.805 139.224 232.78 139.302C232.48 141.302 228.16 145.302 226.52 146.762C226.3 146.942 226.52 147.102 226.52 147.782C226.484 147.872 226.484 147.972 226.52 148.062C228.641 150.418 231.21 152.328 234.078 153.68C236.945 155.032 240.054 155.798 243.221 155.933C246.389 156.069 249.552 155.572 252.524 154.47C255.497 153.369 258.22 151.685 260.535 149.519C262.849 147.352 264.708 144.745 266.003 141.851C267.298 138.958 268.002 135.834 268.075 132.665C268.148 129.496 267.589 126.343 266.429 123.393C265.269 120.442 263.532 117.753 261.32 115.482H261.34Z" fill="#1890ff"/>
<path d="M253.1 136.842L245.1 132.242L249.7 124.142C249.738 124.1 249.766 124.05 249.783 123.996C249.799 123.942 249.803 123.885 249.795 123.83C249.787 123.774 249.766 123.721 249.735 123.674C249.703 123.627 249.662 123.588 249.613 123.559C249.565 123.53 249.51 123.512 249.454 123.507C249.398 123.502 249.341 123.509 249.288 123.529C249.235 123.548 249.187 123.579 249.148 123.619C249.108 123.66 249.078 123.708 249.06 123.762L244.44 131.862L236.34 127.242C236.254 127.21 236.16 127.211 236.075 127.243C235.99 127.275 235.919 127.336 235.875 127.416C235.832 127.496 235.818 127.589 235.837 127.678C235.857 127.768 235.907 127.847 235.98 127.902L243.98 132.522L239.38 140.522C239.16 140.882 239.68 141.402 240.06 140.842C240.44 140.282 241.42 138.462 244.64 132.842C247.312 134.546 250.076 136.102 252.92 137.502C252.99 137.489 253.055 137.456 253.108 137.408C253.16 137.359 253.198 137.297 253.217 137.228C253.236 137.159 253.235 137.086 253.214 137.018C253.193 136.95 253.154 136.889 253.1 136.842Z" fill="#FFE7EA"/>
<path d="M301.6 327.502C294.149 320.264 285.712 314.117 276.54 309.242C270.54 306.162 266.02 301.442 261.64 296.862C264.02 293.882 268.42 287.522 265.64 284.862L207.78 231.962C204.909 229.33 201.717 227.072 198.28 225.242C179 214.761 159.127 205.412 138.76 197.242C138.32 195.602 137.96 194.402 137.82 194.002C141.354 187.557 144.434 180.874 147.04 174.002C152.735 177.811 158.926 180.819 165.44 182.942C168.801 184.123 172.452 184.2 175.86 183.162C189.312 179.091 202.441 174.024 215.14 168.002C215.211 167.965 215.269 167.906 215.305 167.834C215.341 167.762 215.353 167.681 215.34 167.602C215.34 167.222 215.34 166.842 215.18 166.442C217.46 165.682 231.72 160.642 238.5 153.822C238.551 153.748 238.574 153.658 238.565 153.568C238.556 153.479 238.515 153.395 238.45 153.333C238.385 153.271 238.301 153.233 238.211 153.227C238.121 153.222 238.032 153.248 237.96 153.302C231.4 159.902 217.62 164.822 215.06 165.702C214.248 160.961 212.449 156.443 209.78 152.442C214.719 150.057 219.513 147.386 224.14 144.442C225.96 143.282 231.94 138.782 232.74 139.202C232.765 139.28 232.765 139.364 232.74 139.442C232.44 141.442 228.12 145.442 226.48 146.902C226.436 146.942 226.403 146.992 226.382 147.047C226.361 147.103 226.354 147.163 226.36 147.222C226.68 149.842 224.36 152.862 219.56 156.162C219.497 156.177 219.44 156.209 219.392 156.253C219.345 156.297 219.31 156.352 219.29 156.414C219.27 156.475 219.266 156.541 219.279 156.604C219.291 156.667 219.32 156.727 219.361 156.776C219.403 156.825 219.457 156.863 219.517 156.886C219.578 156.909 219.643 156.916 219.707 156.906C219.771 156.897 219.831 156.871 219.883 156.832C219.934 156.793 219.974 156.741 220 156.682C224.96 153.282 227.36 150.122 227.14 147.242C228.1 146.402 233.14 141.922 233.5 139.462C233.551 139.283 233.546 139.093 233.485 138.918C233.425 138.742 233.311 138.59 233.16 138.482C231.8 137.622 226.68 141.822 223.74 143.702C219.11 146.664 214.301 149.336 209.34 151.702L208.52 150.622C208.47 150.557 208.399 150.51 208.32 150.488C208.241 150.467 208.156 150.471 208.08 150.502C194.08 156.502 182.4 160.322 172.66 161.882C162.467 158.229 152.782 153.289 143.84 147.182C140.16 144.782 141.84 139.462 142.42 138.122C143.215 138.546 144.091 138.799 144.99 138.864C145.889 138.929 146.792 138.806 147.64 138.502C153.24 136.122 152.64 123.962 152.6 117.782C152.92 115.958 152.88 114.089 152.48 112.282C153.5 110.742 153.957 108.897 153.771 107.059C153.586 105.222 152.771 103.505 151.463 102.2C150.156 100.895 148.438 100.083 146.6 99.901C144.762 99.719 142.918 100.179 141.38 101.202C138.657 100.623 135.825 100.838 133.22 101.822C132.302 100.388 131.034 99.2127 129.535 98.4065C128.036 97.6003 126.356 97.1901 124.654 97.2146C122.952 97.2392 121.284 97.6977 119.809 98.5469C118.334 99.396 117.1 100.608 116.224 102.067C115.348 103.526 114.859 105.185 114.804 106.886C114.748 108.587 115.127 110.275 115.906 111.788C116.685 113.302 117.837 114.592 119.253 115.535C120.669 116.479 122.303 117.046 124 117.182C124.413 120.352 125.861 123.298 128.12 125.562C129.827 127.618 131.142 129.971 132 132.502C132.64 134.802 132.24 137.922 130.42 138.502C128.18 139.282 125.8 137.922 123.98 136.382C103.08 118.922 88.88 104.682 73.72 79.7217C73.408 79.103 72.9047 78.6015 72.285 78.2917C71.6653 77.9818 70.9621 77.8801 70.28 78.0017C67.78 73.5617 64.9 67.0017 65.82 61.7017C66.92 55.3017 66.26 54.2217 65.58 54.0017C64.9 53.7817 63.58 54.2817 60.72 60.3617C60.6 60.6217 60.48 60.8817 60.36 61.1817C59.2906 58.2518 58.376 55.2676 57.62 52.2417C56.64 48.2417 55.62 46.4017 54.58 46.5417C52.8 46.7617 52.98 53.3417 53.08 55.1217C51.8 51.7417 50.26 45.7017 48.54 46.1417C46.82 46.5817 47.7 52.1417 47.92 53.8817C47.18 52.2817 46.48 51.5417 45.82 51.7017C44.4 52.0017 44.76 56.1817 45.1 58.6217C45.4187 60.8918 45.9203 63.1324 46.6 65.3217C45.8 64.5417 44.9 64.0417 44.3 64.3417C43.7 64.6417 43.66 66.3417 45.1 69.4817C47.88 75.4817 52.14 83.2417 55 88.3417C54.6489 88.9498 54.4641 89.6395 54.4641 90.3417C54.4641 91.0438 54.6489 91.7336 55 92.3417C64.4 111.062 83.18 132.562 107 152.142C110.398 163.781 113.182 175.59 115.34 187.522C113.1 189.342 90.22 208.622 96.14 225.902C100.98 240.042 122 251.482 158.64 259.902C152.64 293.282 140.86 328.802 140.64 330.542C140.3 333.702 144.9 337.062 152.64 339.362C150.64 356.242 150.8 354.782 150.96 355.202C153.26 361.582 158.06 374.762 175.54 390.942C175.585 390.986 175.64 391.017 175.701 391.034C175.761 391.05 175.825 391.05 175.886 391.033C175.946 391.017 176.002 390.986 176.046 390.941C176.091 390.897 176.123 390.842 176.14 390.782C177.78 386.102 178.14 379.262 177.02 369.882C175.84 359.222 174.04 354.762 175.4 341.682C180.04 341.282 187.56 339.962 188.04 335.462C190.806 309.901 191.789 284.179 190.98 258.482L229.42 315.282C229.768 315.755 230.233 316.129 230.77 316.367C231.306 316.606 231.896 316.7 232.48 316.642C235.24 316.642 239.42 315.022 244.32 311.962C256.54 325.082 255.92 324.462 256.06 324.542C270.537 329.687 286.116 330.915 301.22 328.102C301.295 328.117 301.374 328.109 301.445 328.079C301.516 328.049 301.576 327.998 301.617 327.933C301.658 327.868 301.678 327.792 301.675 327.715C301.672 327.638 301.646 327.563 301.6 327.502ZM136.48 129.282C136.48 128.862 136.48 127.562 136.2 127.282C132 122.502 135.9 118.562 137.72 121.822C138.36 122.962 138.9 123.482 139.44 123.482C139.98 123.482 140.34 122.902 140.44 122.702C143 115.802 150.22 113.142 151.52 120.542C151.739 121.911 151.853 123.295 151.86 124.682C151.72 132.162 150.22 136.542 147.4 137.742C143.86 139.262 139.4 135.142 139.4 135.102C139.339 135.048 139.262 135.015 139.181 135.007C139.1 135 139.019 135.019 138.949 135.062C138.88 135.104 138.826 135.168 138.795 135.244C138.765 135.319 138.759 135.403 138.78 135.482C138.78 135.682 140.92 141.802 140.96 141.862C140.817 142.988 140.985 144.132 141.447 145.168C141.909 146.205 142.647 147.095 143.58 147.742L144.36 148.262C139.68 147.702 134.36 144.802 128.24 139.402C133.02 140.262 136.2 133.402 136.48 129.282ZM145.26 149.162L144.6 154.942L137.4 146.942C137.2 146.722 137.96 146.742 125.78 147.762L126.9 139.302C134 145.722 140 148.922 145.26 149.162ZM48.7 46.8617C48.7 46.8617 49.54 47.0217 51.08 51.7017C51.82 53.9817 52.58 56.0017 53.32 57.7017C53.4793 59.0456 53.7063 60.3806 54 61.7017C53.1027 62.9981 52.3451 64.3858 51.74 65.8417C50.1383 61.5325 49.0573 57.0474 48.52 52.4817C48 48.1417 48.52 46.9417 48.7 46.8617ZM45.84 58.5217C45.22 54.0417 45.72 52.5217 45.98 52.4217C46.24 52.3217 46.98 52.6017 48.6 57.8817C49.2994 60.9797 50.2081 64.0267 51.32 67.0017C50.6942 68.6481 50.2515 70.3584 50 72.1017C47.9547 67.8036 46.553 63.2279 45.84 58.5217ZM45.84 69.1617C44.12 65.4817 44.68 65.0217 44.68 65.0217C45.04 64.8417 46.68 66.0217 47.4 67.5017C48.24 69.8217 49.02 71.5017 49.94 73.5017C50.18 74.0017 50.66 73.8017 50.7 73.5017C51.0023 68.6335 52.9405 64.0102 56.2 60.3817C56.2743 60.3127 56.3181 60.2171 56.3218 60.1158C56.3256 60.0145 56.289 59.9159 56.22 59.8417C56.151 59.7674 56.0554 59.7236 55.9541 59.7198C55.8529 59.7161 55.7543 59.7527 55.68 59.8217C55.3198 60.1901 54.9793 60.5773 54.66 60.9817C54.1455 58.4127 53.8709 55.8015 53.84 53.1817C53.84 47.5417 54.74 47.1817 54.74 47.1817C54.74 47.1817 55.86 48.0417 56.96 52.3417C57.7817 55.704 58.7967 59.0162 60 62.2617C58.4342 67.8037 57.4555 73.495 57.08 79.2417C57.08 79.7217 57.8 79.8217 57.82 79.2417C57.82 79.1217 58.78 66.1417 61.44 60.6217C64.44 54.4617 65.44 54.6217 65.44 54.6217C65.44 54.6217 66.3 54.9817 65.18 61.4617C63.66 70.2017 71.68 81.6417 72.88 83.2817C70.7 88.0617 63.56 92.9217 58.7 93.0217C54.58 86.1417 49.18 76.4617 45.78 69.1617H45.84ZM111.12 164.102L114 157.082C114.023 156.89 113.973 156.697 113.86 156.542C92.78 140.182 68.8 116.982 56.48 93.5617C61.8 95.7017 73.42 87.7217 74.06 81.6817C88.9 105.682 102.98 119.822 123.44 137.022C124.285 137.751 125.219 138.369 126.22 138.862L124.96 148.202C124.954 148.258 124.96 148.316 124.979 148.37C124.998 148.423 125.029 148.472 125.069 148.513C125.109 148.553 125.158 148.584 125.212 148.603C125.266 148.622 125.323 148.628 125.38 148.622L136.96 147.662L144.6 156.062C144.65 156.116 144.714 156.155 144.785 156.174C144.857 156.193 144.932 156.19 145.002 156.167C145.072 156.144 145.133 156.101 145.179 156.043C145.225 155.985 145.253 155.915 145.26 155.842L145.98 149.442C154.266 154.912 163.184 159.358 172.54 162.682H172.74C182.48 161.122 194.06 157.422 208.14 151.362C211.664 156.033 213.893 161.553 214.6 167.362C202.012 173.31 189.004 178.323 175.68 182.362C172.41 183.356 168.908 183.286 165.68 182.162C160.948 180.563 156.364 178.556 151.98 176.162C147.98 159.742 149.56 167.082 149.08 161.122C149.08 161.021 149.04 160.924 148.969 160.853C148.897 160.782 148.801 160.742 148.7 160.742C148.599 160.742 148.503 160.782 148.431 160.853C148.36 160.924 148.32 161.021 148.32 161.122C148.84 167.462 147.26 174.222 137.24 193.462L116.12 187.462C115.38 182.282 113.28 172.682 111.12 164.102ZM174.7 342.682C173.5 354.122 175.32 360.522 176.34 369.142C167.679 362.68 159.74 355.304 152.66 347.142C154.44 331.502 155.16 325.342 155.16 325.342C162.276 325.011 169.399 325.855 176.24 327.842C176.16 328.682 175.02 339.642 174.7 342.682ZM187.62 333.662C182.74 325.102 150.36 321.182 142.24 328.082C147.12 311.922 151.02 297.882 154.06 285.362L163.78 260.682C163.9 260.362 163.78 260.222 163.5 260.182C142.88 255.262 103.76 245.502 96.94 225.602C91.16 208.742 113.82 189.722 115.9 188.022L137.16 194.182C138.729 199.117 139.808 204.195 140.38 209.342C138.7 208.382 137.04 207.482 135.38 206.602C135.294 206.57 135.2 206.571 135.115 206.603C135.03 206.635 134.959 206.696 134.915 206.776C134.872 206.856 134.858 206.949 134.877 207.038C134.897 207.128 134.947 207.207 135.02 207.262C152.223 216.696 168.49 227.746 183.6 240.262C185.553 241.836 187.15 243.807 188.284 246.045C189.418 248.283 190.065 250.736 190.18 253.242C191.307 280.068 190.452 306.941 187.62 333.642V333.662ZM229.16 313.342L191.16 257.102C191.16 255.802 191.16 254.502 191 253.222C190.865 250.596 190.17 248.031 188.963 245.695C187.756 243.36 186.064 241.31 184 239.682C170.538 228.585 156.198 218.599 141.12 209.822C140.774 205.857 140.058 201.933 138.98 198.102C159.169 206.253 178.875 215.555 198 225.962C201.386 227.766 204.531 229.99 207.36 232.582L263.7 284.082C254.2 283.102 229.64 303.722 229.16 313.322V313.342ZM251.6 318.562L236.4 302.222C241.156 296.927 246.669 292.364 252.76 288.682C263.68 300.102 268.76 306.122 276.18 309.942C278.32 311.042 280.5 312.262 282.66 313.622C272.628 316.878 262.147 318.538 251.6 318.542V318.562Z" fill="#1890ff"/>
<path d="M107.08 286.682L97.2 284.122L99.76 274.242C99.7865 274.143 99.773 274.039 99.7223 273.951C99.6717 273.863 99.5881 273.798 99.49 273.772C99.3919 273.745 99.2872 273.759 99.1991 273.809C99.1109 273.86 99.0465 273.943 99.02 274.042L96.46 283.922L86.58 281.362C86.4819 281.338 86.3783 281.354 86.292 281.406C86.2057 281.459 86.1439 281.543 86.12 281.642C86.0961 281.74 86.1122 281.843 86.1647 281.93C86.2172 282.016 86.3019 282.078 86.4 282.102L96.28 284.682L93.72 294.682C93.6961 294.78 93.7122 294.883 93.7647 294.97C93.8172 295.056 93.9019 295.118 94 295.142C94.0981 295.165 94.2017 295.149 94.288 295.097C94.3742 295.044 94.4361 294.96 94.46 294.862L97 285.002C106.56 287.482 106.84 287.562 107 287.562C107.117 287.572 107.233 287.536 107.323 287.461C107.413 287.386 107.469 287.278 107.48 287.162C107.491 287.045 107.454 286.929 107.379 286.839C107.304 286.749 107.197 286.692 107.08 286.682Z" fill="#1890ff"/>
<path d="M193.48 69.0017C193.28 69.0017 192.84 68.8817 174.48 64.0817C174.385 64.0538 174.305 63.9901 174.257 63.9043C174.208 63.8185 174.195 63.7171 174.22 63.6217L181.32 36.3217C181.32 36.0417 180.56 36.4217 192.66 32.1617C192.718 32.1195 192.788 32.0967 192.86 32.0967C192.932 32.0967 193.002 32.1195 193.06 32.1617L200.86 40.9817C201.06 41.2017 201.48 39.4617 193.84 68.6217C193.84 68.7191 193.803 68.8129 193.736 68.8836C193.669 68.9543 193.577 68.9966 193.48 69.0017ZM175.04 63.4417L193.22 68.1617L200.16 41.4217L192.66 32.9417L182 36.6817L175.04 63.4417Z" fill="#1890ff"/>
<path d="M200.8 10.3617C188.22 17.6617 203.08 30.0017 191.22 37.0017C190.573 36.9304 189.922 37.1026 189.395 37.4848C188.868 37.867 188.502 38.4319 188.369 39.0692C188.235 39.7065 188.344 40.3707 188.674 40.9322C189.003 41.4937 189.53 41.9124 190.152 42.1066C190.773 42.3009 191.445 42.2567 192.035 41.9828C192.626 41.7088 193.094 41.2247 193.347 40.6249C193.6 40.025 193.621 39.3523 193.405 38.738C193.189 38.1236 192.753 37.6116 192.18 37.3017C203.64 29.8817 189.28 17.9217 201.18 11.0017C201.233 10.9833 201.282 10.9532 201.322 10.9137C201.362 10.8742 201.393 10.8262 201.413 10.7732C201.432 10.7203 201.44 10.6636 201.434 10.6075C201.429 10.5513 201.412 10.497 201.383 10.4484C201.354 10.3999 201.315 10.3584 201.268 10.327C201.221 10.2955 201.168 10.2749 201.112 10.2666C201.056 10.2583 200.999 10.2625 200.945 10.279C200.891 10.2954 200.842 10.3237 200.8 10.3617ZM192.8 40.0817C192.71 40.417 192.529 40.7206 192.276 40.9581C192.023 41.1956 191.708 41.3575 191.368 41.4256C191.027 41.4936 190.675 41.4651 190.35 41.3432C190.025 41.2213 189.74 41.0108 189.529 40.7357C189.317 40.4606 189.187 40.1318 189.152 39.7864C189.118 39.441 189.181 39.0929 189.334 38.7814C189.487 38.4698 189.724 38.2074 190.018 38.0236C190.313 37.8399 190.653 37.7422 191 37.7417C191.28 37.7502 191.555 37.8221 191.804 37.9518C192.052 38.0816 192.268 38.2659 192.436 38.4909C192.603 38.716 192.717 38.976 192.77 39.2515C192.823 39.5269 192.812 39.8107 192.74 40.0817H192.8Z" fill="#1890ff"/>
</svg>
