<svg width="32" height="32" viewBox="0 0 32 32" fill="none" xmlns="http://www.w3.org/2000/svg">
<rect width="32" height="32" rx="8" fill="#A447F8"/>
<path d="M26 10.3915C26.0021 8.63335 24.5787 7.20648 22.8205 7.20436C21.4899 7.20278 20.2987 8.029 19.8339 9.27589C17.4035 8.14747 14.5992 8.14747 12.1687 9.27589C11.5574 7.62754 9.72551 6.78689 8.07716 7.39828C6.42881 8.00966 5.58816 9.84157 6.19955 11.4899C6.49897 12.2971 7.11253 12.9487 7.9004 13.2958C5.51359 17.7699 7.20557 23.3317 11.6796 25.7185C16.1536 28.1053 21.7154 26.4133 24.1023 21.9393C25.5432 19.2383 25.5432 15.9968 24.1023 13.2958C25.254 12.7887 25.9981 11.6499 26 10.3915ZM10.2666 10.1736C9.96698 10.7486 9.43839 11.1704 8.81116 11.3349C8.77346 11.3376 8.73555 11.3376 8.69786 11.3349C8.54071 11.3418 8.38961 11.2739 8.29041 11.1519C7.86924 10.6206 7.95852 9.84849 8.48978 9.42732C9.02103 9.00615 9.79316 9.09543 10.2143 9.62668C10.3335 9.78552 10.3529 9.99796 10.2644 10.1758L10.2666 10.1736ZM18.7554 13.7752L18.7641 13.7708C19.3658 13.7708 19.8535 14.2586 19.8535 14.8603C19.8535 15.4619 19.3658 15.9497 18.7641 15.9497C18.1624 15.9497 17.6747 15.4619 17.6747 14.8603C17.6771 14.2637 18.1588 13.78 18.7554 13.7752ZM13.2473 13.7752L13.256 13.7708C13.8577 13.7708 14.3454 14.2586 14.3454 14.8603C14.3454 15.4619 13.8577 15.9497 13.256 15.9497C12.6543 15.9497 12.1666 15.4619 12.1666 14.8603C12.169 14.2637 12.6507 13.78 13.2473 13.7752ZM16.0013 24.665C13.6046 24.665 11.6436 22.996 11.6436 20.9458C11.6436 19.1003 13.2298 17.5707 15.3019 17.2809C14.6526 17.4789 14.1986 18.0647 14.1689 18.7429C14.1689 19.6145 14.9903 20.327 16.0013 20.327C17.0123 20.327 17.8337 19.6145 17.8337 18.7429C17.8045 18.0679 17.3547 17.4838 16.7094 17.2831C18.7815 17.5707 20.359 19.1025 20.359 20.9458C20.359 22.996 18.398 24.665 16.0013 24.665ZM23.7122 11.1671L23.7057 11.1562C23.6065 11.2783 23.4554 11.3462 23.2983 11.3393C23.2626 11.3402 23.227 11.3388 23.1915 11.3349C22.5675 11.1729 22.0402 10.7562 21.7382 10.1866C21.6515 10.0101 21.6709 9.79979 21.7883 9.64194C22.2095 9.11068 22.9816 9.0214 23.5129 9.44257C24.0441 9.86374 24.1334 10.6359 23.7122 11.1671Z" fill="white"/>
</svg>
