<svg width="400" height="401" viewBox="0 0 400 401" fill="none" xmlns="http://www.w3.org/2000/svg">
<path d="M169.314 301.75C169.314 301.75 167.314 302.796 166.404 303.276C162.058 306.4 153.232 297.466 149.614 293.38C149.564 293.323 149.498 293.283 149.425 293.265C149.352 293.246 149.275 293.25 149.204 293.276C149.133 293.301 149.071 293.347 149.026 293.408C148.982 293.469 148.957 293.542 148.954 293.618C149.067 296.446 149.866 299.203 151.282 301.654C155.58 309.692 155.744 328.586 159.882 331.148C160.133 331.307 160.416 331.409 160.712 331.447C161.007 331.485 161.307 331.458 161.59 331.368C162.63 331.062 164.046 328.814 166.66 314.464C167.468 310.313 168.531 306.217 169.844 302.198C169.865 302.127 169.866 302.052 169.845 301.981C169.824 301.91 169.783 301.847 169.726 301.8C169.67 301.752 169.601 301.722 169.528 301.713C169.454 301.704 169.38 301.717 169.314 301.75Z" fill="#1890ff"/>
<path d="M277.144 204.5C276.085 204.291 274.995 204.302 273.941 204.533C272.887 204.764 271.892 205.21 271.017 205.842C270.143 206.474 269.408 207.28 268.858 208.208C268.308 209.137 267.956 210.169 267.822 211.24C267.817 211.335 267.847 211.429 267.909 211.503C267.97 211.576 268.056 211.624 268.151 211.636C268.246 211.648 268.342 211.624 268.42 211.568C268.498 211.512 268.551 211.429 268.57 211.336C268.78 209.712 269.542 208.209 270.727 207.08C271.913 205.95 273.451 205.263 275.083 205.132C276.715 205.001 278.343 205.435 279.693 206.361C281.043 207.288 282.034 208.65 282.5 210.22C282.532 210.311 282.598 210.386 282.685 210.43C282.771 210.474 282.871 210.483 282.964 210.456C283.056 210.429 283.135 210.367 283.184 210.283C283.232 210.199 283.247 210.1 283.224 210.006C282.826 208.612 282.045 207.357 280.971 206.384C279.896 205.411 278.57 204.758 277.144 204.5Z" fill="#1890ff"/>
<path d="M299.656 191.738C298.118 191.203 296.453 191.156 294.887 191.604C293.321 192.051 291.932 192.971 290.91 194.238C289.887 195.505 289.28 197.057 289.173 198.682C289.066 200.307 289.463 201.925 290.31 203.316C290.678 203.918 291.127 204.468 291.644 204.95C291.68 204.983 291.723 205.01 291.769 205.027C291.815 205.044 291.864 205.052 291.914 205.051C291.963 205.049 292.012 205.038 292.057 205.017C292.102 204.997 292.142 204.968 292.176 204.932C292.21 204.895 292.236 204.853 292.253 204.807C292.271 204.761 292.279 204.711 292.277 204.662C292.276 204.612 292.264 204.564 292.244 204.519C292.223 204.474 292.194 204.433 292.158 204.4C290.969 203.277 290.201 201.781 289.982 200.161C289.762 198.541 290.105 196.895 290.953 195.496C291.8 194.098 293.102 193.033 294.64 192.478C296.177 191.923 297.859 191.913 299.404 192.448C299.498 192.481 299.602 192.476 299.692 192.433C299.782 192.39 299.852 192.313 299.885 192.219C299.918 192.124 299.913 192.021 299.87 191.931C299.827 191.84 299.75 191.771 299.656 191.738Z" fill="#1890ff"/>
<path d="M314.906 180.882C312.106 176.324 306.486 175.106 304.882 176.028C303.03 177.09 294.046 182.762 245.978 212.004C245.899 212.058 245.843 212.141 245.823 212.235C245.803 212.329 245.819 212.428 245.869 212.51C245.919 212.593 245.998 212.653 246.091 212.679C246.184 212.705 246.283 212.694 246.368 212.65L250.4 210.202C249.332 212.271 249.006 214.644 249.475 216.925C249.944 219.206 251.181 221.257 252.979 222.737C254.777 224.217 257.027 225.036 259.356 225.058C261.685 225.08 263.95 224.303 265.776 222.858C266.504 224.896 267.864 226.649 269.657 227.862C271.449 229.075 273.582 229.685 275.745 229.603C277.908 229.521 279.989 228.752 281.685 227.407C283.381 226.062 284.604 224.211 285.176 222.124C286.791 223.217 288.686 223.824 290.636 223.873C292.586 223.923 294.509 223.412 296.177 222.401C297.845 221.391 299.189 219.924 300.049 218.173C300.909 216.422 301.248 214.462 301.028 212.524C303.143 212.924 305.33 212.645 307.276 211.726C309.223 210.808 310.829 209.298 311.865 207.411C312.901 205.525 313.313 203.359 313.044 201.224C312.774 199.089 311.836 197.093 310.364 195.524C311.689 194.932 312.873 194.065 313.836 192.98C314.799 191.895 315.52 190.617 315.95 189.231C316.38 187.845 316.509 186.383 316.329 184.944C316.149 183.504 315.664 182.119 314.906 180.882ZM315.146 189.256C314.699 190.57 313.966 191.769 313.001 192.768C312.036 193.766 310.863 194.538 309.564 195.03C308.273 195.512 306.905 195.756 305.526 195.752C305.426 195.751 305.33 195.788 305.256 195.855C305.182 195.922 305.135 196.014 305.126 196.114C305.122 196.164 305.129 196.214 305.145 196.262C305.162 196.309 305.187 196.353 305.221 196.39C305.255 196.427 305.295 196.458 305.341 196.479C305.386 196.5 305.436 196.512 305.486 196.514C306.886 196.528 308.277 196.295 309.596 195.826C310.61 196.832 311.381 198.056 311.853 199.405C312.324 200.753 312.483 202.191 312.318 203.61C312.152 205.029 311.667 206.392 310.898 207.596C310.129 208.8 309.096 209.813 307.878 210.56C306.826 211.222 305.65 211.664 304.421 211.856C303.193 212.049 301.938 211.989 300.734 211.68C299.53 211.352 298.392 210.82 297.37 210.106C297.29 210.058 297.195 210.042 297.104 210.06C297.013 210.079 296.932 210.13 296.876 210.204C296.82 210.278 296.794 210.37 296.801 210.463C296.809 210.555 296.851 210.642 296.918 210.706C297.928 211.411 299.044 211.951 300.224 212.306C300.499 214.143 300.225 216.021 299.437 217.704C298.648 219.387 297.38 220.799 295.792 221.763C294.203 222.727 292.365 223.201 290.509 223.124C288.652 223.047 286.859 222.424 285.356 221.332C285.591 220.011 285.617 218.661 285.432 217.332C285.417 217.233 285.363 217.144 285.283 217.085C285.202 217.026 285.102 217.002 285.003 217.017C284.904 217.032 284.816 217.085 284.757 217.166C284.698 217.246 284.673 217.347 284.688 217.446C285.021 219.113 284.902 220.84 284.342 222.446C283.783 224.052 282.804 225.479 281.506 226.578C280.209 227.678 278.641 228.41 276.965 228.699C275.289 228.988 273.567 228.823 271.976 228.222C270.656 227.72 269.466 226.927 268.496 225.9C267.526 224.873 266.801 223.64 266.376 222.294C267.153 221.487 267.825 220.586 268.376 219.612C268.424 219.524 268.435 219.421 268.406 219.325C268.378 219.229 268.313 219.148 268.225 219.101C268.137 219.053 268.034 219.042 267.938 219.07C267.842 219.099 267.762 219.164 267.714 219.252C266.844 220.999 265.437 222.422 263.699 223.312C261.962 224.202 259.985 224.513 258.058 224.198C256.475 223.962 254.978 223.328 253.708 222.355C252.437 221.382 251.435 220.102 250.795 218.635C250.155 217.168 249.899 215.563 250.049 213.97C250.2 212.377 250.754 210.848 251.658 209.528C251.832 209.272 303.752 177.682 304.948 176.942C308.112 175 318.056 180.73 315.146 189.26V189.256Z" fill="#1890ff"/>
<path d="M301.4 158.844C300.641 157.608 299.628 156.548 298.427 155.734C297.227 154.921 295.866 154.373 294.437 154.127C293.008 153.881 291.543 153.942 290.139 154.307C288.736 154.672 287.426 155.332 286.298 156.244C285.788 154.817 284.967 153.521 283.893 152.452C282.82 151.383 281.521 150.567 280.092 150.063C278.663 149.559 277.14 149.381 275.633 149.54C274.126 149.7 272.674 150.194 271.382 150.986C269.219 152.322 267.626 154.411 266.91 156.852C265.285 155.769 263.383 155.176 261.431 155.144C259.478 155.112 257.558 155.642 255.898 156.67C254.238 157.699 252.909 159.183 252.069 160.945C251.228 162.708 250.912 164.675 251.158 166.612C249.039 166.176 246.835 166.427 244.868 167.328C242.901 168.229 241.272 169.734 240.218 171.623C239.163 173.513 238.739 175.69 239.005 177.837C239.272 179.984 240.216 181.991 241.7 183.566C239.586 184.535 237.868 186.199 236.83 188.281C235.793 190.362 235.499 192.736 235.997 195.008C236.495 197.279 237.755 199.312 239.568 200.769C241.381 202.225 243.638 203.017 245.964 203.014L242.014 205.414C241.929 205.467 241.868 205.551 241.845 205.649C241.822 205.747 241.839 205.85 241.892 205.936C241.945 206.021 242.03 206.082 242.128 206.105C242.226 206.128 242.329 206.111 242.414 206.058C268.97 189.918 301.466 169.858 301.666 169.522C302.578 167.88 303.034 166.024 302.987 164.146C302.941 162.269 302.393 160.438 301.4 158.844ZM301 169.152C300.884 169.352 272.088 186.698 247.6 202.02C247.468 202.106 247.318 202.164 247.162 202.188C244.922 202.481 242.65 201.961 240.761 200.722C238.872 199.483 237.49 197.606 236.867 195.434C236.245 193.263 236.422 190.939 237.367 188.887C238.312 186.835 239.963 185.19 242.018 184.252C243.229 183.794 244.506 183.534 245.8 183.482C245.895 183.475 245.984 183.432 246.049 183.362C246.114 183.292 246.151 183.2 246.151 183.105C246.151 183.009 246.114 182.917 246.049 182.847C245.984 182.777 245.895 182.735 245.8 182.728C244.678 182.774 243.566 182.964 242.492 183.292C241.476 182.286 240.703 181.062 240.23 179.713C239.756 178.365 239.596 176.926 239.761 175.506C239.925 174.086 240.41 172.722 241.179 171.518C241.948 170.313 242.981 169.299 244.2 168.552C245.874 167.551 247.81 167.075 249.757 167.187C251.704 167.298 253.573 167.991 255.122 169.176C255.203 169.234 255.304 169.258 255.403 169.242C255.501 169.225 255.59 169.171 255.648 169.09C255.706 169.008 255.73 168.907 255.714 168.809C255.698 168.71 255.643 168.622 255.562 168.564C254.461 167.795 253.247 167.205 251.962 166.816C251.671 164.979 251.928 163.097 252.703 161.407C253.478 159.717 254.735 158.293 256.317 157.315C257.898 156.337 259.734 155.848 261.592 155.91C263.451 155.972 265.249 156.582 266.762 157.664C266.541 158.876 266.517 160.117 266.69 161.338C266.712 161.431 266.769 161.513 266.849 161.567C266.929 161.62 267.026 161.641 267.121 161.625C267.216 161.608 267.301 161.557 267.36 161.48C267.418 161.403 267.444 161.307 267.434 161.212C267.046 158.863 267.56 156.455 268.875 154.471C270.189 152.486 272.205 151.073 274.519 150.514C276.832 149.955 279.272 150.292 281.347 151.458C283.422 152.623 284.98 154.531 285.706 156.798C284.694 157.763 283.856 158.896 283.228 160.146C283.064 160.508 283.566 161.146 284.08 160.16C284.661 159.036 285.444 158.03 286.39 157.19C287.418 156.255 288.64 155.559 289.968 155.152C291.296 154.744 292.698 154.634 294.073 154.83C295.448 155.026 296.764 155.524 297.925 156.287C299.086 157.049 300.064 158.059 300.79 159.244C301.692 160.731 302.186 162.43 302.223 164.169C302.26 165.909 301.838 167.627 301 169.152Z" fill="#1890ff"/>
<path d="M261.07 173.862C260.996 173.801 260.902 173.771 260.807 173.776C260.712 173.782 260.622 173.824 260.556 173.893C260.49 173.962 260.453 174.054 260.452 174.149C260.451 174.245 260.486 174.337 260.55 174.408C261.738 175.535 262.503 177.036 262.716 178.66C262.929 180.284 262.578 181.932 261.72 183.328C260.863 184.724 259.552 185.782 258.007 186.326C256.462 186.87 254.777 186.866 253.234 186.316C253.142 186.29 253.044 186.3 252.959 186.344C252.874 186.388 252.809 186.462 252.777 186.552C252.744 186.642 252.747 186.741 252.785 186.829C252.823 186.917 252.893 186.987 252.98 187.026C254.685 187.635 256.548 187.639 258.256 187.038C259.964 186.436 261.414 185.266 262.362 183.724C263.31 182.181 263.699 180.359 263.464 178.564C263.229 176.768 262.384 175.108 261.07 173.862Z" fill="#1890ff"/>
<path d="M284.058 167.41C283.833 169.029 283.061 170.522 281.868 171.641C280.676 172.759 279.137 173.435 277.507 173.556C275.876 173.677 274.254 173.235 272.91 172.305C271.566 171.375 270.581 170.012 270.12 168.444C270.092 168.348 270.027 168.267 269.94 168.218C269.852 168.17 269.749 168.159 269.653 168.187C269.557 168.214 269.476 168.279 269.428 168.367C269.38 168.454 269.368 168.558 269.396 168.654C269.904 170.388 270.992 171.896 272.477 172.925C273.963 173.954 275.756 174.442 277.559 174.308C279.361 174.174 281.063 173.426 282.38 172.189C283.697 170.952 284.55 169.3 284.796 167.51C284.796 167.419 284.762 167.331 284.703 167.263C284.643 167.195 284.56 167.151 284.471 167.139C284.381 167.126 284.289 167.147 284.214 167.197C284.138 167.247 284.083 167.322 284.058 167.41Z" fill="#1890ff"/>
<path d="M338.87 150.512C313.938 107.656 255.708 101.762 224.318 139.932C216.164 152.299 206.993 163.965 196.9 174.808C196.866 174.844 196.84 174.886 196.822 174.932C196.805 174.978 196.796 175.028 196.798 175.077C196.799 175.126 196.811 175.175 196.831 175.22C196.851 175.265 196.88 175.306 196.916 175.34C196.952 175.374 196.994 175.4 197.041 175.418C197.087 175.435 197.136 175.443 197.185 175.442C197.235 175.44 197.283 175.429 197.328 175.409C197.374 175.389 197.414 175.36 197.448 175.324C207.573 164.471 216.768 152.787 224.938 140.396C224.955 140.372 224.968 140.345 224.978 140.318C255.882 102.882 313.422 108.27 338.216 150.882C362.948 193.394 340.548 248.456 293.998 258.976C278.457 260.925 263.068 263.932 247.936 267.976C247.844 268.006 247.768 268.07 247.722 268.155C247.677 268.24 247.665 268.34 247.691 268.433C247.717 268.526 247.777 268.606 247.86 268.655C247.943 268.705 248.042 268.721 248.136 268.7C263.114 264.484 278.409 261.485 293.87 259.734C293.923 259.744 293.977 259.744 294.03 259.734C341.24 249.178 363.842 193.44 338.87 150.512Z" fill="#1890ff"/>
<path d="M257.42 95.9817C245.02 104.582 222.374 118.44 195.758 122.662C193.718 122.988 191.202 122.516 189.652 123.902C184.754 128.28 183.746 143.556 171.652 143.888C169.968 148.132 168.452 152.248 166.81 155.756C167.386 154.956 169.352 154.556 172.222 154.532C177.192 154.64 182.137 155.277 186.972 156.432C195.016 158.232 201.692 160.786 204.32 162.882C205.194 163.578 205.622 164.228 205.494 164.782C208.232 158.892 207.162 152.908 205.362 146.68C227.066 142.49 257.136 127.152 271.562 114.534C270.416 107.314 264.028 99.7077 257.42 95.9817Z" fill="#FFE7EA"/>
<path d="M219.06 278.39C219.041 278.344 219.013 278.303 218.978 278.269C218.943 278.234 218.902 278.207 218.856 278.188C218.811 278.169 218.762 278.16 218.713 278.16C218.664 278.161 218.615 278.17 218.57 278.19C201.638 285.092 185.034 293.552 168.128 302.374C169.486 299.842 169.436 295.312 167.928 289.222C165.733 281.132 162.559 273.341 158.474 266.022L218.518 229.568C218.604 229.515 218.665 229.43 218.688 229.332C218.711 229.233 218.694 229.13 218.641 229.045C218.588 228.959 218.503 228.898 218.405 228.875C218.307 228.852 218.204 228.869 218.118 228.922L158.122 265.346C156.976 263.252 155.846 261.306 154.68 259.398L217.33 221.312C217.416 221.259 217.477 221.174 217.5 221.076C217.523 220.977 217.506 220.874 217.453 220.789C217.4 220.703 217.315 220.642 217.217 220.619C217.119 220.596 217.016 220.613 216.93 220.666L154.286 258.756C150.028 251.648 144.924 245.084 139.086 239.206C134.372 234.674 130.338 232.354 127.434 232.454C143.634 220.502 156.704 211.182 169.078 201.254C169.151 201.189 169.196 201.099 169.205 201.002C169.213 200.905 169.183 200.809 169.122 200.733C169.061 200.657 168.973 200.608 168.877 200.595C168.78 200.583 168.682 200.608 168.604 200.666C151.758 214.192 126.27 232.098 125.364 233.066C119.622 236.63 124.024 254.816 135.458 274.634C145.726 292.434 157.692 304.666 164.34 304.666C165.23 304.686 166.103 304.42 166.83 303.906C216.8 277.79 219.56 279.608 219.06 278.39Z" fill="#1890ff"/>
<path d="M389.886 272.736C389.877 272.663 389.847 272.595 389.801 272.539C389.754 272.484 389.692 272.443 389.622 272.422C389.552 272.4 389.478 272.4 389.408 272.42C389.338 272.44 389.275 272.481 389.228 272.536C384.348 278.116 375.178 275.302 372.332 284.812C368.289 287.065 364.381 289.55 360.626 292.256C360.544 292.28 360.474 292.331 360.426 292.402C359.944 292.76 359.454 293.13 358.952 293.518C347.892 302.058 333.674 315.318 335.752 318.012C335.9 318.17 336.083 318.291 336.287 318.367C336.49 318.442 336.708 318.469 336.924 318.446C341.364 318.446 355.468 309.364 365.324 301.758C369.52 298.475 373.464 294.883 377.124 291.012C385.968 290.498 390.818 281.544 389.886 272.736ZM364.856 301.154C350.968 311.88 337.578 319.13 336.348 317.554C335.118 315.978 345.528 304.84 359.416 294.116C359.842 293.786 360.264 293.466 360.678 293.158L366.104 300.182C365.7 300.496 365.286 300.822 364.856 301.154ZM366.69 299.698L361.29 292.698C364.911 290.107 368.673 287.718 372.558 285.544L376.464 290.604C373.378 293.815 370.115 296.851 366.69 299.698Z" fill="#1890ff"/>
<path d="M380.356 125.166L385.112 114.53H376.58C376.518 114.525 376.457 114.506 376.404 114.474C376.35 114.442 376.305 114.398 376.272 114.345C376.238 114.292 376.218 114.233 376.211 114.171C376.205 114.109 376.214 114.046 376.236 113.988L381.236 102.834C381.277 102.742 381.352 102.671 381.446 102.635C381.539 102.6 381.643 102.603 381.734 102.644C381.825 102.684 381.896 102.76 381.932 102.853C381.968 102.947 381.965 103.05 381.924 103.142L377.17 113.778H385.702C385.766 113.78 385.828 113.797 385.883 113.83C385.938 113.862 385.985 113.907 386.018 113.962C386.182 114.216 386.44 113.464 381.054 125.474C381.013 125.566 380.937 125.639 380.843 125.675C380.749 125.712 380.644 125.709 380.551 125.669C380.458 125.628 380.386 125.552 380.349 125.458C380.313 125.363 380.315 125.258 380.356 125.166Z" fill="#1890ff"/>
<path d="M204.306 378.174L194.568 378.46L194.282 368.72C194.273 368.624 194.228 368.536 194.156 368.472C194.084 368.409 193.991 368.375 193.895 368.378C193.799 368.381 193.708 368.42 193.64 368.487C193.571 368.555 193.532 368.646 193.528 368.742L193.814 378.482L184.074 378.768C183.979 378.776 183.89 378.82 183.826 378.891C183.762 378.962 183.727 379.055 183.729 379.15C183.73 379.246 183.768 379.337 183.834 379.406C183.901 379.475 183.991 379.516 184.086 379.522L193.836 379.236L194.122 388.976C194.125 389.074 194.165 389.167 194.236 389.235C194.306 389.303 194.4 389.342 194.498 389.342C194.6 389.34 194.696 389.298 194.767 389.226C194.838 389.153 194.877 389.055 194.876 388.954L194.59 379.214L204.33 378.928C204.426 378.918 204.514 378.873 204.577 378.801C204.641 378.729 204.674 378.635 204.671 378.539C204.668 378.443 204.629 378.352 204.561 378.284C204.493 378.216 204.402 378.177 204.306 378.174Z" fill="#1890ff"/>
<path d="M223.256 24.3156H216.844C215.362 24.3221 213.937 23.7427 212.88 22.7036C211.823 21.6644 211.219 20.2498 211.2 18.7676V12.4036C211.2 11.9836 210.444 11.8036 210.446 12.4036V18.7736C210.461 20.2615 209.886 21.6946 208.846 22.7592C207.807 23.8238 206.388 24.4331 204.9 24.4536H198.54C198.445 24.4606 198.356 24.5033 198.291 24.5732C198.226 24.6432 198.19 24.7351 198.19 24.8306C198.19 24.9261 198.226 25.0181 198.291 25.088C198.356 25.1579 198.445 25.2007 198.54 25.2076H204.94C206.421 25.2038 207.845 25.7845 208.901 26.8236C209.957 27.8626 210.56 29.2763 210.58 30.7576V37.1216C210.58 37.2213 210.62 37.317 210.69 37.3875C210.761 37.458 210.856 37.4976 210.956 37.4976C211.056 37.4976 211.151 37.458 211.222 37.3875C211.292 37.317 211.332 37.2213 211.332 37.1216V30.7516C211.317 29.2629 211.893 27.829 212.933 26.764C213.973 25.6989 215.393 25.0897 216.882 25.0696H223.246C223.341 25.0641 223.431 25.0226 223.497 24.9535C223.563 24.8844 223.601 24.7928 223.602 24.6973C223.603 24.6017 223.568 24.5092 223.504 24.4384C223.44 24.3676 223.351 24.3237 223.256 24.3156ZM210.928 28.5956C210.601 27.7181 210.086 26.923 209.418 26.2664C208.75 25.6099 207.947 25.1078 207.064 24.7956C207.942 24.4688 208.737 23.9533 209.393 23.2857C210.05 22.6181 210.552 21.8145 210.864 20.9316C211.191 21.8091 211.706 22.6042 212.374 23.2608C213.042 23.9174 213.845 24.4195 214.728 24.7316C213.851 25.0585 213.055 25.5739 212.399 26.2415C211.742 26.9092 211.24 27.7128 210.928 28.5956Z" fill="#1890ff"/>
<path d="M62.2 365.426L73.4 358.9C73.486 358.856 73.5854 358.847 73.6778 358.874C73.7702 358.902 73.8486 358.963 73.8972 359.047C73.9457 359.13 73.9606 359.228 73.9388 359.322C73.917 359.416 73.8602 359.498 73.78 359.552C64.676 364.85 62.958 365.888 62.554 366.086C62.4677 366.122 62.3707 366.125 62.2821 366.094C62.1936 366.063 62.1199 366 62.0755 365.917C62.0312 365.835 62.0193 365.738 62.0424 365.647C62.0654 365.556 62.1217 365.477 62.2 365.426Z" fill="#1890ff"/>
<path d="M18.778 295.828C18.6947 295.828 18.6135 295.801 18.5473 295.75C18.4811 295.7 18.4336 295.628 18.4123 295.548C18.391 295.467 18.3971 295.382 18.4296 295.305C18.4622 295.228 18.5193 295.164 18.592 295.124L30.054 288.612C30.1408 288.562 30.2435 288.55 30.3397 288.576C30.4359 288.602 30.5177 288.666 30.567 288.753C30.6164 288.839 30.6292 288.942 30.6028 289.038C30.5763 289.135 30.5128 289.216 30.426 289.266C18.364 296.108 18.978 295.828 18.778 295.828Z" fill="#1890ff"/>
<path d="M137.37 302.728C132.016 286.747 123.542 271.989 112.438 259.31C106.062 252.35 101.164 247.606 96.254 249.924C93.28 251.556 92.542 253.866 93.042 257.274C92.1937 256.208 91.0111 255.46 89.6852 255.149C88.3592 254.839 86.9672 254.984 85.7341 255.562C84.5009 256.14 83.4986 257.117 82.8889 258.335C82.2793 259.552 82.0979 260.94 82.374 262.274C81.4022 261.48 80.2077 261.008 78.9559 260.923C77.7041 260.838 76.4568 261.145 75.3869 261.8C74.317 262.456 73.4773 263.428 72.984 264.581C72.4908 265.735 72.3685 267.013 72.634 268.24C71.7169 267.492 70.5986 267.034 69.4208 266.923C68.2429 266.812 67.0586 267.053 66.018 267.616C46.878 278.228 61.466 270.318 37.858 283.724C37.7713 283.773 37.7078 283.855 37.6815 283.952C37.6553 284.048 37.6684 284.151 37.718 284.238C37.7676 284.324 37.8496 284.388 37.946 284.414C38.0424 284.44 38.1453 284.427 38.232 284.378L53.482 275.714C50.458 281.688 55.104 297.992 65.23 315.636L28.708 337.192C28.6221 337.243 28.5599 337.326 28.5351 337.422C28.5104 337.519 28.5251 337.622 28.576 337.708C28.6269 337.794 28.7099 337.856 28.8067 337.881C28.9034 337.905 29.0061 337.891 29.092 337.84L65.6 316.296C75.8 333.856 87.616 346.056 94.294 346.392L80.71 354.304C80.6298 354.357 80.573 354.439 80.5512 354.533C80.5295 354.627 80.5444 354.725 80.5929 354.809C80.6414 354.892 80.7199 354.954 80.8123 354.981C80.9047 355.008 81.004 354.999 81.09 354.956L108.312 339.134C109.202 338.428 109.877 337.488 110.262 336.42C110.646 335.351 110.724 334.196 110.488 333.086C111.461 333.864 112.651 334.322 113.895 334.399C115.139 334.475 116.376 334.166 117.437 333.513C118.499 332.86 119.333 331.895 119.825 330.751C120.318 329.606 120.445 328.337 120.19 327.118C120.954 327.726 121.851 328.144 122.807 328.339C123.764 328.534 124.753 328.5 125.694 328.24C126.471 328.009 127.195 327.626 127.822 327.112C128.45 326.598 128.968 325.964 129.347 325.247C129.725 324.53 129.957 323.745 130.028 322.937C130.099 322.13 130.008 321.316 129.76 320.544C130.82 321.329 132.082 321.793 133.398 321.883C134.714 321.972 136.028 321.682 137.184 321.048C142.066 317.962 140.2 311.902 137.37 302.728ZM136.788 320.41C135.472 321.082 133.963 321.274 132.52 320.955C131.077 320.635 129.791 319.823 128.882 318.658C128.824 318.581 128.74 318.53 128.646 318.514C128.551 318.498 128.454 318.518 128.375 318.571C128.295 318.624 128.238 318.705 128.216 318.798C128.194 318.891 128.208 318.989 128.256 319.072C128.77 319.802 129.106 320.644 129.236 321.528C129.367 322.412 129.288 323.314 129.006 324.162C128.732 324.961 128.27 325.682 127.658 326.266C127.047 326.849 126.305 327.277 125.494 327.514C124.403 327.82 123.243 327.772 122.18 327.377C121.118 326.982 120.209 326.259 119.584 325.314C119.22 324.726 118.566 325.242 118.814 325.652C119.553 326.845 119.787 328.283 119.466 329.65C119.145 331.016 118.293 332.199 117.1 332.938C115.907 333.677 114.468 333.911 113.102 333.59C111.736 333.268 110.553 332.417 109.814 331.224C109.444 330.85 108.88 331.262 109.12 331.662C109.778 332.764 110.013 334.068 109.782 335.33C109.551 336.593 108.868 337.729 107.862 338.526L98.366 344.024C103.844 333.186 84.246 293.254 66.256 277.874C63.962 275.956 60.552 273.504 57.58 273.344L66.38 268.286C67.5734 267.653 68.9639 267.501 70.2658 267.861C71.5676 268.222 72.6821 269.067 73.38 270.224C73.4413 270.309 73.5326 270.367 73.6355 270.387C73.7383 270.407 73.8449 270.387 73.9336 270.331C74.0222 270.276 74.0863 270.188 74.1128 270.087C74.1392 269.985 74.1261 269.878 74.076 269.786C73.3384 268.605 73.096 267.181 73.4014 265.823C73.7068 264.464 74.5353 263.281 75.7074 262.53C76.8794 261.778 78.3004 261.519 79.6622 261.809C81.024 262.098 82.2168 262.913 82.982 264.076C83.246 264.476 84.07 264.252 83.782 263.768C83.3527 263.072 83.0928 262.285 83.0234 261.47C82.9539 260.656 83.0767 259.836 83.382 259.078C83.7569 258.122 84.4025 257.295 85.2399 256.701C86.0772 256.106 87.0699 255.769 88.0962 255.73C89.1225 255.691 90.1378 255.953 91.0177 256.482C91.8976 257.012 92.6039 257.787 93.05 258.712C93.094 258.788 93.316 259.176 93.45 259.396C93.78 259.94 94.238 259.576 94.188 259.21C93.288 255.258 93.152 252.486 96.588 250.6C101.02 248.518 105.926 253.322 111.88 259.82C122.911 272.415 131.33 287.076 136.648 302.952C139.474 312.106 141.174 317.634 136.788 320.41Z" fill="#1890ff"/>
<path d="M10.378 349.016C10.2951 349.015 10.2147 348.988 10.149 348.937C10.0833 348.887 10.036 348.816 10.0144 348.736C9.99281 348.656 9.9981 348.571 10.0295 348.494C10.0608 348.418 10.1165 348.353 10.188 348.312L21.388 341.786C21.474 341.742 21.5733 341.733 21.6657 341.76C21.7581 341.788 21.8366 341.849 21.8851 341.933C21.9336 342.016 21.9485 342.114 21.9268 342.208C21.905 342.302 21.8482 342.384 21.768 342.438C10 349.282 10.578 349.016 10.378 349.016Z" fill="#1890ff"/>
<path d="M90.368 160.558C90.6863 154.377 88.9078 148.271 85.321 143.228C81.7342 138.184 76.5493 134.501 70.6068 132.773C64.6643 131.046 58.3125 131.376 52.5811 133.71C46.8497 136.044 42.0747 140.246 39.03 145.634C33.096 144.91 23.312 144.274 22.308 147.742C21.196 151.584 31.85 156.818 35.498 158.542C35.3651 164.603 37.2419 170.539 40.8356 175.422C44.4293 180.305 49.538 183.862 55.365 185.538C61.192 187.214 67.4098 186.914 73.0486 184.686C78.6875 182.458 83.4305 178.426 86.538 173.22C106.936 175.682 108.864 169.404 90.368 160.558ZM63.478 132.448C68.1097 132.549 72.6358 133.851 76.6126 136.228C80.5895 138.604 83.8806 141.973 86.1636 146.004C88.4466 150.035 89.6431 154.591 89.6358 159.223C89.6285 163.856 88.4177 168.408 86.122 172.432C68.9244 169.948 52.1491 165.114 36.266 158.068C36.5453 151.085 39.5517 144.49 44.6397 139.7C49.7276 134.91 56.4913 132.306 63.478 132.448ZM23.034 147.952C23.634 145.882 29.592 145.274 38.634 146.352C36.7804 149.871 35.7176 153.753 35.52 157.726C32.576 156.316 22.126 151.092 23.034 147.952ZM43.694 177.648C38.834 172.619 36.1577 165.874 36.248 158.882C52.0166 165.843 68.6583 170.629 85.716 173.108C83.5802 176.585 80.6764 179.526 77.2274 181.707C73.7783 183.887 69.8757 185.249 65.8188 185.687C61.762 186.125 57.6586 185.629 53.8234 184.235C49.9883 182.842 46.5232 180.588 43.694 177.648ZM102.294 170.886C101.694 172.922 96.028 173.576 86.94 172.53C88.8594 169.097 90.0125 165.289 90.32 161.368C98.42 165.282 102.888 168.82 102.29 170.882L102.294 170.886Z" fill="#1890ff"/>
<path d="M292.782 80.3577C287.26 83.138 281.6 85.6366 275.824 87.8437C276.518 86.6877 277.372 84.8717 276.514 84.0037C275.168 82.6397 261.1 94.9057 259.168 96.6037C258.625 96.2347 258.059 95.9007 257.474 95.6037C256.346 95.4897 230.508 116.76 195.696 122.282C195.271 122.345 194.843 122.385 194.414 122.402C192.214 121.868 192.688 120.952 192.014 119.102C194.672 118.668 198.748 117.724 199.598 115.93C201.83 111.222 195.826 98.6737 193.426 92.9897C190.348 85.6997 173.098 89.1017 159.026 95.9237C147.242 101.638 137.69 109.75 140.554 115.99C142.024 119.19 146.754 120.44 153.58 119.536C146.979 122.152 141.05 126.218 136.23 131.432C116.896 153.632 155.43 156.584 178.08 129.62C174.871 135.115 172.185 140.899 170.056 146.896C166.962 154.834 166.334 155.748 166.276 156.002C165.928 157.568 168.676 159.112 170.104 159.842C169.122 161.974 167.652 163.845 165.812 165.304C151.032 177.05 150.296 193.68 161.238 206.434L161.838 205.974C151.174 193.574 151.802 177.404 166.284 165.896C167.377 165.029 168.35 164.02 169.176 162.896C179.789 162.751 190.241 165.495 199.414 170.836C198.718 171.956 197.932 173.19 197.04 174.57C194.332 173.262 191.557 171.983 188.714 170.734C188.624 170.702 188.525 170.705 188.438 170.743C188.35 170.78 188.28 170.85 188.241 170.937C188.203 171.025 188.199 171.123 188.23 171.214C188.261 171.304 188.326 171.379 188.41 171.424C206.016 178.91 222.449 188.899 237.2 201.082C240.733 204.069 243.59 207.775 245.579 211.953C247.568 216.13 248.644 220.684 248.736 225.31C249.012 238.374 248.628 252.89 247.496 271.158C238.233 273.273 228.566 272.794 219.556 269.776C219.812 257.976 219.356 246.502 218.918 234.594C223.068 222.734 222.918 223.254 222.918 223.052C222.915 222.99 222.896 222.931 222.864 222.878C222.831 222.826 222.786 222.783 222.732 222.754C222.644 222.708 218.38 221.124 218.288 221.088C217.602 220.79 189.624 208.606 173.582 203.554C168.782 202.044 164.782 196.182 163.63 188.968C163.611 188.872 163.555 188.788 163.475 188.732C163.395 188.677 163.297 188.654 163.201 188.67C163.104 188.685 163.018 188.737 162.959 188.814C162.9 188.892 162.873 188.989 162.884 189.086C164.084 196.576 168.284 202.686 173.356 204.274C188.718 209.112 215.086 220.518 217.776 221.688C218.058 236.968 219.176 252.986 218.79 270C218.787 270.026 218.787 270.052 218.79 270.078C218.454 284.798 217.614 285.192 218.258 285.442C219.418 285.888 220.55 286.28 221.636 286.608C221.748 292.694 219.822 295.938 221.476 299.896C222.461 302.147 223.88 304.181 225.652 305.884C232.928 313.218 238.852 334.766 244.052 331.394C244.96 330.794 245.67 328.242 244.052 313.75C243.373 304.83 243.472 295.868 244.35 286.966C245.224 286.71 246.112 286.416 246.996 286.086C247.064 286.061 247.123 286.017 247.166 285.959C247.21 285.901 247.235 285.832 247.24 285.76C249.136 260.322 249.826 241.672 249.48 225.292C249.386 220.559 248.285 215.901 246.25 211.628C244.216 207.354 241.294 203.562 237.68 200.506C225.472 190.355 212.052 181.758 197.728 174.91C199.398 172.322 201.358 169.228 202.86 166.524C204.636 166.258 205.64 165.714 205.848 164.908C208.448 159.308 207.738 153.668 205.836 146.972C228.458 142.486 258.134 126.772 271.802 114.818C271.85 114.775 271.886 114.722 271.908 114.662C271.93 114.601 271.936 114.537 271.926 114.474C271.788 113.603 271.587 112.744 271.326 111.902C273.454 109.642 275.859 107.661 278.484 106.004C279.454 106.532 280.542 106.807 281.646 106.804C285.306 106.804 288.768 103.834 289 101.534C289.047 100.991 288.911 100.448 288.614 99.9917C289.043 99.74 289.412 99.3986 289.696 98.9909C289.98 98.5832 290.172 98.1188 290.26 97.6297C290.299 97.1944 290.226 96.7565 290.049 96.357C289.872 95.9575 289.596 95.6095 289.248 95.3457C289.545 94.9462 289.713 94.4652 289.729 93.9675C289.744 93.4698 289.607 92.9792 289.336 92.5617C288.63 91.737 287.753 91.0755 286.766 90.6228C285.779 90.1701 284.706 89.9371 283.62 89.9397C290.788 86.1917 293.852 82.0237 293.914 80.8317C293.94 80.3137 293.5 79.9417 292.782 80.3577ZM246.512 285.452C237.512 288.663 227.643 288.442 218.796 284.83C219.196 280.01 219.42 275.254 219.534 270.554C228.54 273.532 238.186 274.008 247.442 271.932C247.174 276.224 246.864 280.72 246.512 285.452ZM276.028 84.5957C276.522 85.3137 275.132 87.6497 274.628 88.3017C271.038 89.4751 267.603 91.0802 264.4 93.0817C269.154 89.1297 274.928 84.7077 276.028 84.5957ZM179.67 128.586C183.986 122.224 186.138 113.516 187.182 105.93C187.191 105.866 187.184 105.801 187.16 105.741C187.137 105.681 187.098 105.628 187.048 105.588C182.01 101.452 184.714 97.8677 187.426 100.63C189.212 102.45 191.68 101.734 189.602 95.9137C190.807 95.3872 191.966 94.7618 193.068 94.0437C198.222 106.1 200.014 111.984 199.188 114.868C198.368 117.718 191.29 114.242 188.642 112.868C188.574 112.833 188.497 112.819 188.421 112.829C188.346 112.839 188.275 112.871 188.218 112.922C188.161 112.973 188.121 113.04 188.102 113.114C188.084 113.188 188.089 113.266 188.116 113.338C188.822 115.38 189.854 117.294 191.17 119.008C191.806 120.478 191.586 121.67 192.704 122.494C191.507 122.488 190.343 122.885 189.4 123.622C184.444 128.048 183.54 142.682 172.218 143.482C174.163 138.264 176.661 133.271 179.67 128.586ZM199.814 170.204C190.677 164.869 180.274 162.09 169.694 162.158C171.065 159.93 172.023 157.473 172.524 154.906C181.226 154.906 198.22 158.82 203.846 162.994C202.628 165.465 201.282 167.872 199.814 170.204ZM199 147.224C198.904 147.234 198.815 147.28 198.752 147.353C198.689 147.426 198.657 147.52 198.661 147.617C198.665 147.713 198.706 147.804 198.776 147.871C198.845 147.938 198.938 147.977 199.034 147.978H199.068C200.906 147.81 202.932 147.52 205.094 147.116C206.854 153.296 207.58 158.534 205.57 163.642C203.33 160.194 191.1 156.972 187.054 156.066C182.026 154.844 176.874 154.206 171.7 154.164C170.341 154.142 168.988 154.336 167.69 154.738C169.09 151.6 170.4 148.082 171.912 144.258C184.002 143.716 185.178 128.406 189.912 124.186C191.336 122.908 193.794 123.366 195.824 123.036C215.77 119.872 236.502 110.92 257.446 96.4357C263.72 100.05 269.916 107.128 271.156 114.396C255.3 128.166 220.854 145.236 199 147.224ZM282.034 89.8937C281.073 89.9189 280.116 90.0422 279.18 90.2617C279.088 90.2899 279.011 90.352 278.963 90.4352C278.916 90.5185 278.901 90.6168 278.924 90.7101C278.946 90.8034 279.002 90.8849 279.082 90.9379C279.162 90.9909 279.259 91.0116 279.354 90.9957C284.49 89.7837 290.446 92.0677 288.652 94.8817C287.31 94.1184 285.83 93.6274 284.298 93.4369C282.765 93.2465 281.21 93.3602 279.722 93.7717C279.674 93.783 279.628 93.8037 279.588 93.8325C279.548 93.8614 279.514 93.8979 279.488 93.94C279.462 93.982 279.444 94.0288 279.436 94.0777C279.428 94.1265 279.43 94.1765 279.441 94.2247C279.452 94.2729 279.473 94.3184 279.502 94.3586C279.531 94.3988 279.567 94.4329 279.609 94.459C279.651 94.4851 279.698 94.5026 279.747 94.5107C279.796 94.5187 279.846 94.517 279.894 94.5057C282.778 93.8257 286.752 94.0297 288.814 95.9657C289.048 96.1439 289.235 96.3768 289.358 96.6439C289.481 96.9109 289.536 97.2041 289.52 97.4977C289.438 97.8936 289.273 98.2678 289.037 98.5959C288.801 98.9239 288.498 99.1985 288.148 99.4017C286.176 97.3917 282.292 97.3177 279.5 97.8817C279.406 97.9057 279.325 97.9649 279.273 98.047C279.222 98.1292 279.204 98.228 279.223 98.323C279.242 98.4181 279.297 98.5021 279.377 98.5576C279.456 98.6132 279.554 98.6362 279.65 98.6217C283.584 97.8217 286.272 98.7077 287.476 99.7997C287.728 99.9941 287.929 100.246 288.064 100.534C288.199 100.822 288.264 101.138 288.252 101.456C288.002 102.291 287.572 103.062 286.992 103.713C286.412 104.364 285.696 104.88 284.894 105.224C284.038 105.7 283.085 105.976 282.108 106.031C281.13 106.086 280.152 105.919 279.248 105.542C280.802 104.592 282.464 103.833 284.2 103.282C284.295 103.273 284.384 103.229 284.448 103.157C284.511 103.086 284.546 102.993 284.544 102.897C284.542 102.802 284.503 102.71 284.437 102.642C284.37 102.573 284.28 102.532 284.184 102.528C279.134 104.189 274.607 107.144 271.054 111.1C268.791 105.415 264.886 100.534 259.838 97.0777C264.038 93.8771 268.688 91.3159 273.638 89.4777C280.273 87.0244 286.769 84.2123 293.098 81.0537C292.648 82.2117 289.618 86.2277 282.032 89.8937H282.034Z" fill="#1890ff"/>
</svg>
