<svg width="400" height="400" viewBox="0 0 400 400" fill="none" xmlns="http://www.w3.org/2000/svg">
<path d="M169.314 301.068C169.314 301.068 167.314 302.114 166.404 302.594C162.058 305.718 153.232 296.784 149.614 292.698C149.564 292.641 149.498 292.601 149.425 292.583C149.352 292.564 149.275 292.568 149.204 292.594C149.133 292.619 149.071 292.666 149.026 292.727C148.982 292.788 148.957 292.86 148.954 292.936C149.067 295.764 149.866 298.521 151.282 300.972C155.58 309.01 155.744 327.904 159.882 330.466C160.133 330.625 160.416 330.727 160.712 330.765C161.007 330.803 161.307 330.776 161.59 330.686C162.63 330.38 164.046 328.132 166.66 313.782C167.468 309.632 168.531 305.535 169.844 301.516C169.865 301.445 169.866 301.37 169.845 301.299C169.824 301.228 169.783 301.165 169.726 301.118C169.67 301.07 169.601 301.04 169.528 301.031C169.454 301.022 169.38 301.035 169.314 301.068Z" fill="white"/>
<path d="M277.144 203.818C276.085 203.609 274.995 203.621 273.941 203.852C272.887 204.083 271.892 204.528 271.017 205.16C270.143 205.793 269.408 206.598 268.858 207.527C268.308 208.455 267.956 209.487 267.822 210.558C267.817 210.653 267.847 210.747 267.909 210.821C267.97 210.895 268.056 210.942 268.151 210.954C268.246 210.967 268.342 210.942 268.42 210.887C268.498 210.831 268.551 210.748 268.57 210.654C268.78 209.03 269.542 207.527 270.727 206.398C271.913 205.269 273.451 204.581 275.083 204.45C276.715 204.32 278.343 204.754 279.693 205.68C281.043 206.606 282.034 207.968 282.5 209.538C282.532 209.629 282.598 209.705 282.685 209.749C282.771 209.793 282.871 209.802 282.964 209.774C283.056 209.747 283.135 209.685 283.184 209.601C283.232 209.517 283.247 209.418 283.224 209.324C282.826 207.93 282.045 206.676 280.971 205.702C279.896 204.729 278.57 204.076 277.144 203.818Z" fill="white"/>
<path d="M299.656 191.056C298.118 190.521 296.453 190.474 294.887 190.922C293.321 191.369 291.932 192.29 290.91 193.557C289.887 194.824 289.28 196.376 289.173 198C289.066 199.625 289.463 201.243 290.31 202.634C290.678 203.236 291.127 203.786 291.644 204.268C291.68 204.301 291.723 204.328 291.769 204.345C291.815 204.362 291.864 204.371 291.914 204.369C291.963 204.367 292.012 204.356 292.057 204.335C292.102 204.315 292.142 204.286 292.176 204.25C292.21 204.214 292.236 204.171 292.253 204.125C292.271 204.079 292.279 204.029 292.277 203.98C292.276 203.931 292.264 203.882 292.244 203.837C292.223 203.792 292.194 203.751 292.158 203.718C290.969 202.595 290.201 201.099 289.982 199.479C289.762 197.859 290.105 196.213 290.953 194.815C291.8 193.416 293.102 192.351 294.64 191.796C296.177 191.242 297.859 191.231 299.404 191.766C299.498 191.799 299.602 191.794 299.692 191.751C299.782 191.708 299.852 191.631 299.885 191.537C299.918 191.443 299.913 191.339 299.87 191.249C299.827 191.159 299.75 191.089 299.656 191.056Z" fill="white"/>
<path d="M314.906 180.2C312.106 175.642 306.486 174.424 304.882 175.346C303.03 176.408 294.046 182.08 245.978 211.322C245.899 211.377 245.843 211.46 245.823 211.554C245.803 211.648 245.819 211.746 245.869 211.828C245.919 211.911 245.998 211.971 246.091 211.997C246.184 212.023 246.283 212.013 246.368 211.968L250.4 209.52C249.332 211.589 249.006 213.962 249.475 216.243C249.944 218.524 251.181 220.576 252.979 222.056C254.777 223.535 257.027 224.355 259.356 224.377C261.685 224.398 263.95 223.622 265.776 222.176C266.504 224.214 267.864 225.967 269.657 227.18C271.449 228.393 273.582 229.003 275.745 228.921C277.908 228.84 279.989 228.07 281.685 226.725C283.381 225.38 284.604 223.53 285.176 221.442C286.791 222.535 288.686 223.143 290.636 223.192C292.586 223.241 294.509 222.73 296.177 221.72C297.845 220.709 299.189 219.242 300.049 217.491C300.909 215.74 301.248 213.78 301.028 211.842C303.143 212.242 305.33 211.963 307.276 211.045C309.223 210.127 310.829 208.616 311.865 206.73C312.901 204.843 313.313 202.677 313.044 200.542C312.774 198.407 311.836 196.412 310.364 194.842C311.689 194.251 312.873 193.384 313.836 192.298C314.799 191.213 315.52 189.935 315.95 188.549C316.38 187.163 316.509 185.702 316.329 184.262C316.149 182.822 315.664 181.437 314.906 180.2ZM315.146 188.574C314.699 189.888 313.966 191.088 313.001 192.086C312.036 193.084 310.863 193.857 309.564 194.348C308.273 194.83 306.905 195.075 305.526 195.07C305.426 195.07 305.33 195.106 305.256 195.173C305.182 195.24 305.135 195.333 305.126 195.432C305.122 195.482 305.129 195.532 305.145 195.58C305.162 195.627 305.187 195.671 305.221 195.708C305.255 195.746 305.295 195.776 305.341 195.797C305.386 195.818 305.436 195.83 305.486 195.832C306.886 195.846 308.277 195.613 309.596 195.144C310.61 196.151 311.381 197.374 311.853 198.723C312.324 200.072 312.483 201.51 312.318 202.929C312.152 204.348 311.667 205.71 310.898 206.914C310.129 208.118 309.096 209.132 307.878 209.878C306.826 210.541 305.65 210.982 304.421 211.175C303.193 211.367 301.938 211.307 300.734 210.998C299.53 210.671 298.392 210.138 297.37 209.424C297.29 209.377 297.195 209.361 297.104 209.379C297.013 209.397 296.932 209.448 296.876 209.522C296.82 209.596 296.794 209.689 296.801 209.781C296.809 209.874 296.851 209.96 296.918 210.024C297.928 210.73 299.044 211.27 300.224 211.624C300.499 213.462 300.225 215.34 299.437 217.022C298.648 218.705 297.38 220.117 295.792 221.081C294.203 222.046 292.365 222.519 290.509 222.442C288.652 222.366 286.859 221.742 285.356 220.65C285.591 219.329 285.617 217.979 285.432 216.65C285.417 216.551 285.363 216.463 285.283 216.404C285.202 216.345 285.102 216.32 285.003 216.335C284.904 216.35 284.816 216.404 284.757 216.484C284.698 216.565 284.673 216.665 284.688 216.764C285.021 218.432 284.902 220.158 284.342 221.764C283.783 223.37 282.804 224.797 281.506 225.897C280.209 226.996 278.641 227.729 276.965 228.018C275.289 228.307 273.567 228.142 271.976 227.54C270.656 227.039 269.466 226.245 268.496 225.218C267.526 224.192 266.801 222.959 266.376 221.612C267.153 220.806 267.825 219.904 268.376 218.93C268.424 218.842 268.435 218.739 268.406 218.643C268.378 218.547 268.313 218.467 268.225 218.419C268.137 218.371 268.034 218.36 267.938 218.389C267.842 218.417 267.762 218.482 267.714 218.57C266.844 220.318 265.437 221.741 263.699 222.631C261.962 223.521 259.985 223.831 258.058 223.516C256.475 223.28 254.978 222.646 253.708 221.673C252.437 220.7 251.435 219.42 250.795 217.954C250.155 216.487 249.899 214.881 250.049 213.288C250.2 211.695 250.754 210.166 251.658 208.846C251.832 208.59 303.752 177 304.948 176.26C308.112 174.318 318.056 180.048 315.146 188.578V188.574Z" fill="white"/>
<path d="M301.4 158.162C300.641 156.926 299.628 155.866 298.427 155.053C297.227 154.239 295.866 153.691 294.437 153.445C293.008 153.199 291.543 153.261 290.139 153.626C288.736 153.991 287.426 154.651 286.298 155.562C285.788 154.135 284.967 152.84 283.893 151.771C282.82 150.702 281.521 149.885 280.092 149.382C278.663 148.878 277.14 148.699 275.633 148.859C274.126 149.018 272.674 149.512 271.382 150.304C269.219 151.641 267.626 153.73 266.91 156.17C265.285 155.088 263.383 154.495 261.431 154.463C259.478 154.431 257.558 154.96 255.898 155.989C254.238 157.017 252.909 158.501 252.069 160.264C251.228 162.026 250.912 163.993 251.158 165.93C249.039 165.494 246.835 165.745 244.868 166.646C242.901 167.548 241.272 169.052 240.218 170.942C239.163 172.832 238.739 175.008 239.005 177.156C239.272 179.303 240.216 181.309 241.7 182.884C239.586 183.854 237.868 185.518 236.83 187.599C235.793 189.681 235.499 192.054 235.997 194.326C236.495 196.598 237.755 198.631 239.568 200.087C241.381 201.543 243.638 202.336 245.964 202.332L242.014 204.732C241.929 204.785 241.868 204.87 241.845 204.968C241.822 205.066 241.839 205.169 241.892 205.254C241.945 205.339 242.03 205.4 242.128 205.423C242.226 205.446 242.329 205.429 242.414 205.376C268.97 189.236 301.466 169.176 301.666 168.84C302.578 167.198 303.034 165.342 302.987 163.465C302.941 161.587 302.393 159.756 301.4 158.162ZM301 168.47C300.884 168.67 272.088 186.016 247.6 201.338C247.468 201.425 247.318 201.482 247.162 201.506C244.922 201.8 242.65 201.28 240.761 200.04C238.872 198.801 237.49 196.925 236.867 194.753C236.245 192.581 236.422 190.258 237.367 188.205C238.312 186.153 239.963 184.508 242.018 183.57C243.229 183.112 244.506 182.852 245.8 182.8C245.895 182.793 245.984 182.75 246.049 182.68C246.114 182.611 246.151 182.519 246.151 182.423C246.151 182.328 246.114 182.236 246.049 182.166C245.984 182.096 245.895 182.053 245.8 182.046C244.678 182.093 243.566 182.282 242.492 182.61C241.476 181.604 240.703 180.381 240.23 179.032C239.756 177.683 239.596 176.244 239.761 174.825C239.925 173.405 240.41 172.041 241.179 170.836C241.948 169.631 242.981 168.617 244.2 167.87C245.874 166.869 247.81 166.394 249.757 166.505C251.704 166.616 253.573 167.309 255.122 168.494C255.203 168.552 255.304 168.576 255.403 168.56C255.501 168.544 255.59 168.489 255.648 168.408C255.706 168.327 255.73 168.226 255.714 168.127C255.698 168.029 255.643 167.94 255.562 167.882C254.461 167.114 253.247 166.524 251.962 166.134C251.671 164.298 251.928 162.416 252.703 160.725C253.478 159.035 254.735 157.611 256.317 156.633C257.898 155.655 259.734 155.167 261.592 155.229C263.451 155.291 265.249 155.901 266.762 156.982C266.541 158.195 266.517 159.435 266.69 160.656C266.712 160.75 266.769 160.832 266.849 160.885C266.929 160.938 267.026 160.959 267.121 160.943C267.216 160.927 267.301 160.875 267.36 160.799C267.418 160.722 267.444 160.626 267.434 160.53C267.046 158.182 267.56 155.774 268.875 153.789C270.189 151.805 272.205 150.391 274.519 149.832C276.832 149.273 279.272 149.61 281.347 150.776C283.422 151.942 284.98 153.849 285.706 156.116C284.694 157.081 283.856 158.214 283.228 159.464C283.064 159.826 283.566 160.464 284.08 159.478C284.661 158.355 285.444 157.348 286.39 156.508C287.418 155.574 288.64 154.878 289.968 154.47C291.296 154.062 292.698 153.953 294.073 154.149C295.448 154.345 296.764 154.842 297.925 155.605C299.086 156.368 300.064 157.378 300.79 158.562C301.692 160.05 302.186 161.749 302.223 163.488C302.26 165.227 301.838 166.946 301 168.47Z" fill="white"/>
<path d="M261.07 173.18C260.996 173.119 260.902 173.089 260.807 173.094C260.712 173.1 260.622 173.142 260.556 173.211C260.49 173.28 260.453 173.372 260.452 173.467C260.451 173.563 260.486 173.655 260.55 173.726C261.738 174.853 262.503 176.355 262.716 177.979C262.929 179.603 262.578 181.25 261.72 182.646C260.863 184.042 259.552 185.1 258.007 185.644C256.462 186.188 254.777 186.184 253.234 185.634C253.142 185.608 253.044 185.618 252.959 185.662C252.874 185.706 252.809 185.781 252.777 185.871C252.744 185.961 252.747 186.059 252.785 186.147C252.823 186.235 252.893 186.305 252.98 186.344C254.685 186.953 256.548 186.957 258.256 186.356C259.964 185.755 261.414 184.585 262.362 183.042C263.31 181.499 263.699 179.677 263.464 177.882C263.229 176.086 262.384 174.426 261.07 173.18Z" fill="white"/>
<path d="M284.058 166.728C283.833 168.347 283.061 169.84 281.868 170.959C280.676 172.077 279.137 172.753 277.507 172.874C275.876 172.995 274.254 172.554 272.91 171.623C271.566 170.693 270.581 169.33 270.12 167.762C270.092 167.666 270.027 167.585 269.94 167.537C269.852 167.489 269.749 167.477 269.653 167.505C269.557 167.533 269.476 167.598 269.428 167.685C269.38 167.773 269.368 167.876 269.396 167.972C269.904 169.706 270.992 171.214 272.477 172.243C273.963 173.272 275.756 173.761 277.559 173.627C279.361 173.493 281.063 172.745 282.38 171.507C283.697 170.27 284.55 168.618 284.796 166.828C284.796 166.737 284.762 166.65 284.703 166.582C284.643 166.513 284.56 166.469 284.471 166.457C284.381 166.445 284.289 166.466 284.214 166.515C284.138 166.565 284.083 166.641 284.058 166.728Z" fill="white"/>
<path d="M338.87 149.83C313.938 106.974 255.708 101.08 224.318 139.25C216.164 151.617 206.993 163.283 196.9 174.126C196.866 174.162 196.84 174.204 196.822 174.25C196.805 174.296 196.796 174.346 196.798 174.395C196.799 174.444 196.811 174.493 196.831 174.538C196.851 174.583 196.88 174.624 196.916 174.658C196.952 174.692 196.994 174.718 197.041 174.736C197.087 174.753 197.136 174.761 197.185 174.76C197.235 174.758 197.283 174.747 197.328 174.727C197.374 174.707 197.414 174.678 197.448 174.642C207.573 163.789 216.768 152.105 224.938 139.714C224.955 139.69 224.968 139.663 224.978 139.636C255.882 102.2 313.422 107.588 338.216 150.2C362.948 192.712 340.548 247.774 293.998 258.294C278.457 260.243 263.068 263.25 247.936 267.294C247.844 267.324 247.768 267.388 247.722 267.473C247.677 267.558 247.665 267.658 247.691 267.751C247.717 267.844 247.777 267.924 247.86 267.973C247.943 268.023 248.042 268.039 248.136 268.018C263.114 263.802 278.409 260.803 293.87 259.052C293.923 259.062 293.977 259.062 294.03 259.052C341.24 248.496 363.842 192.758 338.87 149.83Z" fill="white"/>
<path d="M257.42 95.2998C245.02 103.9 222.374 117.758 195.758 121.98C193.718 122.306 191.202 121.834 189.652 123.22C184.754 127.598 183.746 142.874 171.652 143.206C169.968 147.45 168.452 151.566 166.81 155.074C167.386 154.274 169.352 153.874 172.222 153.85C177.192 153.958 182.137 154.595 186.972 155.75C195.016 157.55 201.692 160.104 204.32 162.2C205.194 162.896 205.622 163.546 205.494 164.1C208.232 158.21 207.162 152.226 205.362 145.998C227.066 141.808 257.136 126.47 271.562 113.852C270.416 106.632 264.028 99.0258 257.42 95.2998Z" fill="#B2BEC3"/>
<path d="M219.06 277.708C219.041 277.662 219.013 277.621 218.978 277.587C218.943 277.552 218.902 277.525 218.856 277.506C218.811 277.488 218.762 277.478 218.713 277.478C218.664 277.479 218.615 277.489 218.57 277.508C201.638 284.41 185.034 292.87 168.128 301.692C169.486 299.16 169.436 294.63 167.928 288.54C165.733 280.45 162.559 272.659 158.474 265.34L218.518 228.886C218.604 228.833 218.665 228.748 218.688 228.65C218.711 228.552 218.694 228.448 218.641 228.363C218.588 228.277 218.503 228.216 218.405 228.193C218.307 228.17 218.204 228.187 218.118 228.24L158.122 264.664C156.976 262.57 155.846 260.624 154.68 258.716L217.33 220.63C217.416 220.577 217.477 220.492 217.5 220.394C217.523 220.296 217.506 220.192 217.453 220.107C217.4 220.021 217.315 219.96 217.217 219.937C217.119 219.914 217.016 219.931 216.93 219.984L154.286 258.074C150.028 250.967 144.924 244.402 139.086 238.524C134.372 233.992 130.338 231.672 127.434 231.772C143.634 219.82 156.704 210.5 169.078 200.572C169.151 200.507 169.196 200.417 169.205 200.32C169.213 200.223 169.183 200.127 169.122 200.051C169.061 199.975 168.973 199.926 168.877 199.913C168.78 199.901 168.682 199.926 168.604 199.984C151.758 213.51 126.27 231.416 125.364 232.384C119.622 235.948 124.024 254.134 135.458 273.952C145.726 291.752 157.692 303.984 164.34 303.984C165.23 304.004 166.103 303.738 166.83 303.224C216.8 277.108 219.56 278.926 219.06 277.708Z" fill="white"/>
<path d="M389.886 272.054C389.877 271.982 389.847 271.914 389.801 271.858C389.754 271.802 389.692 271.761 389.622 271.74C389.552 271.719 389.478 271.718 389.408 271.739C389.338 271.759 389.275 271.799 389.228 271.854C384.348 277.434 375.178 274.62 372.332 284.13C368.289 286.383 364.381 288.869 360.626 291.574C360.544 291.598 360.474 291.65 360.426 291.72C359.944 292.078 359.454 292.448 358.952 292.836C347.892 301.376 333.674 314.636 335.752 317.33C335.9 317.488 336.083 317.61 336.287 317.685C336.49 317.76 336.708 317.787 336.924 317.764C341.364 317.764 355.468 308.682 365.324 301.076C369.52 297.794 373.464 294.202 377.124 290.33C385.968 289.816 390.818 280.862 389.886 272.054ZM364.856 300.472C350.968 311.198 337.578 318.448 336.348 316.872C335.118 315.296 345.528 304.158 359.416 293.434C359.842 293.104 360.264 292.784 360.678 292.476L366.104 299.5C365.7 299.814 365.286 300.14 364.856 300.472ZM366.69 299.016L361.29 292.016C364.911 289.425 368.673 287.037 372.558 284.862L376.464 289.922C373.378 293.133 370.115 296.17 366.69 299.016Z" fill="white"/>
<path d="M380.356 124.484L385.112 113.848H376.58C376.518 113.843 376.457 113.824 376.404 113.792C376.35 113.76 376.305 113.716 376.272 113.663C376.238 113.61 376.218 113.551 376.211 113.489C376.205 113.427 376.214 113.364 376.236 113.306L381.236 102.152C381.277 102.06 381.352 101.989 381.446 101.953C381.539 101.918 381.643 101.921 381.734 101.962C381.825 102.002 381.896 102.078 381.932 102.171C381.968 102.265 381.965 102.368 381.924 102.46L377.17 113.096H385.702C385.766 113.098 385.828 113.115 385.883 113.148C385.938 113.18 385.985 113.225 386.018 113.28C386.182 113.534 386.44 112.782 381.054 124.792C381.013 124.884 380.937 124.957 380.843 124.993C380.749 125.03 380.644 125.027 380.551 124.987C380.458 124.946 380.386 124.87 380.349 124.775C380.313 124.681 380.315 124.576 380.356 124.484Z" fill="white"/>
<path d="M204.306 377.492L194.568 377.778L194.282 368.038C194.273 367.942 194.228 367.854 194.156 367.79C194.084 367.727 193.991 367.693 193.895 367.696C193.799 367.699 193.708 367.738 193.64 367.805C193.571 367.873 193.532 367.964 193.528 368.06L193.814 377.8L184.074 378.086C183.979 378.094 183.89 378.138 183.826 378.209C183.762 378.28 183.727 378.373 183.729 378.468C183.73 378.564 183.768 378.655 183.834 378.724C183.901 378.793 183.991 378.834 184.086 378.84L193.836 378.554L194.122 388.294C194.125 388.392 194.165 388.485 194.236 388.553C194.306 388.621 194.4 388.66 194.498 388.66C194.6 388.658 194.696 388.616 194.767 388.544C194.838 388.471 194.877 388.373 194.876 388.272L194.59 378.532L204.33 378.246C204.426 378.236 204.514 378.191 204.577 378.119C204.641 378.047 204.674 377.953 204.671 377.857C204.668 377.761 204.629 377.67 204.561 377.602C204.493 377.534 204.402 377.495 204.306 377.492Z" fill="white"/>
<path d="M223.256 23.6339H216.844C215.362 23.6403 213.937 23.0609 212.88 22.0218C211.823 20.9827 211.219 19.568 211.2 18.0859V11.7219C211.2 11.3019 210.444 11.1219 210.446 11.7219V18.0919C210.461 19.5797 209.886 21.0128 208.846 22.0774C207.807 23.142 206.388 23.7513 204.9 23.7719H198.54C198.445 23.7788 198.356 23.8215 198.291 23.8915C198.226 23.9614 198.19 24.0534 198.19 24.1489C198.19 24.2444 198.226 24.3363 198.291 24.4062C198.356 24.4762 198.445 24.5189 198.54 24.5259H204.94C206.421 24.522 207.845 25.1027 208.901 26.1418C209.957 27.1809 210.56 28.5945 210.58 30.0759V36.4399C210.58 36.5396 210.62 36.6352 210.69 36.7057C210.761 36.7762 210.856 36.8159 210.956 36.8159C211.056 36.8159 211.151 36.7762 211.222 36.7057C211.292 36.6352 211.332 36.5396 211.332 36.4399V30.0699C211.317 28.5812 211.893 27.1472 212.933 26.0822C213.973 25.0172 215.393 24.4079 216.882 24.3879H223.246C223.341 24.3823 223.431 24.3408 223.497 24.2717C223.563 24.2026 223.601 24.1111 223.602 24.0155C223.603 23.9199 223.568 23.8274 223.504 23.7566C223.44 23.6858 223.351 23.642 223.256 23.6339ZM210.928 27.9139C210.601 27.0364 210.086 26.2413 209.418 25.5847C208.75 24.9281 207.947 24.426 207.064 24.1139C207.942 23.787 208.737 23.2716 209.393 22.6039C210.05 21.9363 210.552 21.1327 210.864 20.2499C211.191 21.1274 211.706 21.9225 212.374 22.579C213.042 23.2356 213.845 23.7377 214.728 24.0499C213.851 24.3767 213.055 24.8921 212.399 25.5598C211.742 26.2274 211.24 27.031 210.928 27.9139Z" fill="white"/>
<path d="M62.2 364.744L73.4 358.218C73.486 358.174 73.5854 358.165 73.6778 358.193C73.7702 358.22 73.8486 358.282 73.8972 358.365C73.9457 358.448 73.9606 358.547 73.9388 358.641C73.917 358.735 73.8602 358.817 73.78 358.87C64.676 364.168 62.958 365.206 62.554 365.404C62.4677 365.441 62.3707 365.444 62.2821 365.413C62.1936 365.381 62.1199 365.318 62.0755 365.236C62.0312 365.153 62.0193 365.057 62.0424 364.966C62.0654 364.875 62.1217 364.796 62.2 364.744Z" fill="white"/>
<path d="M18.778 295.146C18.6947 295.147 18.6135 295.119 18.5473 295.069C18.4811 295.018 18.4336 294.947 18.4123 294.866C18.391 294.786 18.3971 294.7 18.4296 294.623C18.4622 294.547 18.5193 294.483 18.592 294.442L30.054 287.93C30.1408 287.881 30.2435 287.868 30.3397 287.894C30.4359 287.921 30.5177 287.984 30.567 288.071C30.6164 288.158 30.6292 288.261 30.6028 288.357C30.5763 288.453 30.5128 288.535 30.426 288.584C18.364 295.426 18.978 295.146 18.778 295.146Z" fill="white"/>
<path d="M137.37 302.046C132.016 286.065 123.542 271.307 112.438 258.628C106.062 251.668 101.164 246.924 96.254 249.242C93.28 250.874 92.542 253.184 93.042 256.592C92.1937 255.527 91.0111 254.778 89.6852 254.468C88.3592 254.157 86.9672 254.303 85.7341 254.881C84.5009 255.458 83.4986 256.435 82.8889 257.653C82.2793 258.871 82.0979 260.258 82.374 261.592C81.4022 260.798 80.2077 260.326 78.9559 260.242C77.7041 260.157 76.4568 260.463 75.3869 261.119C74.317 261.774 73.4773 262.746 72.984 263.9C72.4908 265.053 72.3685 266.332 72.634 267.558C71.7169 266.811 70.5986 266.352 69.4208 266.241C68.2429 266.13 67.0586 266.371 66.018 266.934C46.878 277.546 61.466 269.636 37.858 283.042C37.7713 283.092 37.7078 283.174 37.6815 283.27C37.6553 283.366 37.6684 283.469 37.718 283.556C37.7676 283.643 37.8496 283.706 37.946 283.733C38.0424 283.759 38.1453 283.746 38.232 283.696L53.482 275.032C50.458 281.006 55.104 297.31 65.23 314.954L28.708 336.51C28.6221 336.561 28.5599 336.644 28.5351 336.741C28.5104 336.837 28.5251 336.94 28.576 337.026C28.6269 337.112 28.7099 337.174 28.8067 337.199C28.9034 337.224 29.0061 337.209 29.092 337.158L65.6 315.614C75.8 333.174 87.616 345.374 94.294 345.71L80.71 353.622C80.6298 353.675 80.573 353.757 80.5512 353.851C80.5295 353.945 80.5444 354.044 80.5929 354.127C80.6414 354.21 80.7199 354.272 80.8123 354.299C80.9047 354.327 81.004 354.318 81.09 354.274L108.312 338.452C109.202 337.747 109.877 336.807 110.262 335.738C110.646 334.669 110.724 333.515 110.488 332.404C111.461 333.182 112.651 333.641 113.895 333.717C115.139 333.794 116.376 333.484 117.437 332.831C118.499 332.178 119.333 331.214 119.825 330.069C120.318 328.925 120.445 327.656 120.19 326.436C120.954 327.044 121.851 327.463 122.807 327.658C123.764 327.853 124.753 327.819 125.694 327.558C126.471 327.328 127.195 326.944 127.822 326.431C128.45 325.917 128.968 325.283 129.347 324.566C129.725 323.849 129.957 323.063 130.028 322.256C130.099 321.448 130.008 320.634 129.76 319.862C130.82 320.647 132.082 321.112 133.398 321.201C134.714 321.29 136.028 321.001 137.184 320.366C142.066 317.28 140.2 311.22 137.37 302.046ZM136.788 319.728C135.472 320.4 133.963 320.593 132.52 320.273C131.077 319.953 129.791 319.141 128.882 317.976C128.824 317.9 128.74 317.848 128.646 317.832C128.551 317.816 128.454 317.836 128.375 317.889C128.295 317.942 128.238 318.023 128.216 318.116C128.194 318.209 128.208 318.307 128.256 318.39C128.77 319.121 129.106 319.962 129.236 320.846C129.367 321.73 129.288 322.632 129.006 323.48C128.732 324.279 128.27 325.001 127.658 325.584C127.047 326.167 126.305 326.595 125.494 326.832C124.403 327.139 123.243 327.091 122.18 326.695C121.118 326.3 120.209 325.577 119.584 324.632C119.22 324.044 118.566 324.56 118.814 324.97C119.553 326.164 119.787 327.602 119.466 328.968C119.145 330.334 118.293 331.517 117.1 332.256C115.907 332.995 114.468 333.229 113.102 332.908C111.736 332.587 110.553 331.736 109.814 330.542C109.444 330.168 108.88 330.58 109.12 330.98C109.778 332.082 110.013 333.386 109.782 334.649C109.551 335.911 108.868 337.047 107.862 337.844L98.366 343.342C103.844 332.504 84.246 292.572 66.256 277.192C63.962 275.274 60.552 272.822 57.58 272.662L66.38 267.604C67.5734 266.971 68.9639 266.819 70.2658 267.18C71.5676 267.54 72.6821 268.385 73.38 269.542C73.4413 269.627 73.5326 269.685 73.6355 269.705C73.7383 269.725 73.8449 269.706 73.9336 269.65C74.0222 269.594 74.0863 269.506 74.1128 269.405C74.1392 269.304 74.1261 269.196 74.076 269.104C73.3384 267.923 73.096 266.499 73.4014 265.141C73.7068 263.783 74.5353 262.6 75.7074 261.848C76.8794 261.097 78.3004 260.838 79.6622 261.127C81.024 261.416 82.2168 262.231 82.982 263.394C83.246 263.794 84.07 263.57 83.782 263.086C83.3527 262.39 83.0928 261.603 83.0234 260.789C82.9539 259.974 83.0767 259.155 83.382 258.396C83.7569 257.44 84.4025 256.614 85.2399 256.019C86.0772 255.425 87.0699 255.087 88.0962 255.048C89.1225 255.009 90.1378 255.271 91.0177 255.8C91.8976 256.33 92.6039 257.105 93.05 258.03C93.094 258.106 93.316 258.494 93.45 258.714C93.78 259.258 94.238 258.894 94.188 258.528C93.288 254.576 93.152 251.804 96.588 249.918C101.02 247.836 105.926 252.64 111.88 259.138C122.911 271.733 131.33 286.394 136.648 302.27C139.474 311.424 141.174 316.952 136.788 319.728Z" fill="white"/>
<path d="M10.378 348.334C10.2951 348.333 10.2147 348.306 10.149 348.255C10.0833 348.205 10.036 348.134 10.0144 348.054C9.99281 347.974 9.9981 347.889 10.0295 347.813C10.0608 347.736 10.1165 347.672 10.188 347.63L21.388 341.104C21.474 341.06 21.5733 341.051 21.6657 341.079C21.7581 341.106 21.8366 341.167 21.8851 341.251C21.9336 341.334 21.9485 341.433 21.9268 341.526C21.905 341.62 21.8482 341.702 21.768 341.756C10 348.6 10.578 348.334 10.378 348.334Z" fill="white"/>
<path d="M90.368 159.876C90.6863 153.695 88.9078 147.589 85.321 142.546C81.7342 137.503 76.5493 133.819 70.6068 132.091C64.6643 130.364 58.3125 130.694 52.5811 133.028C46.8497 135.362 42.0747 139.564 39.03 144.952C33.096 144.228 23.312 143.592 22.308 147.06C21.196 150.902 31.85 156.136 35.498 157.86C35.3651 163.921 37.2419 169.857 40.8356 174.74C44.4293 179.624 49.538 183.18 55.365 184.856C61.192 186.532 67.4098 186.232 73.0486 184.004C78.6875 181.776 83.4305 177.744 86.538 172.538C106.936 175 108.864 168.722 90.368 159.876ZM63.478 131.766C68.1097 131.867 72.6358 133.169 76.6126 135.546C80.5895 137.922 83.8806 141.291 86.1636 145.322C88.4466 149.354 89.6431 153.909 89.6358 158.542C89.6285 163.174 88.4177 167.726 86.122 171.75C68.9244 169.266 52.1491 164.433 36.266 157.386C36.5453 150.403 39.5517 143.809 44.6397 139.018C49.7276 134.228 56.4913 131.624 63.478 131.766ZM23.034 147.27C23.634 145.2 29.592 144.592 38.634 145.67C36.7804 149.189 35.7176 153.071 35.52 157.044C32.576 155.634 22.126 150.41 23.034 147.27ZM43.694 176.966C38.834 171.937 36.1577 165.192 36.248 158.2C52.0166 165.161 68.6583 169.947 85.716 172.426C83.5802 175.903 80.6764 178.844 77.2274 181.025C73.7783 183.205 69.8757 184.567 65.8188 185.005C61.762 185.443 57.6586 184.947 53.8234 183.553C49.9883 182.16 46.5232 179.906 43.694 176.966ZM102.294 170.204C101.694 172.24 96.028 172.894 86.94 171.848C88.8594 168.415 90.0125 164.607 90.32 160.686C98.42 164.6 102.888 168.138 102.29 170.2L102.294 170.204Z" fill="white"/>
<path d="M292.782 79.676C287.26 82.4564 281.6 84.9549 275.824 87.162C276.518 86.006 277.372 84.19 276.514 83.322C275.168 81.958 261.1 94.224 259.168 95.922C258.625 95.5531 258.059 95.2191 257.474 94.922C256.346 94.808 230.508 116.078 195.696 121.6C195.271 121.663 194.843 121.703 194.414 121.72C192.214 121.186 192.688 120.27 192.014 118.42C194.672 117.986 198.748 117.042 199.598 115.248C201.83 110.54 195.826 97.992 193.426 92.308C190.348 85.018 173.098 88.42 159.026 95.242C147.242 100.956 137.69 109.068 140.554 115.308C142.024 118.508 146.754 119.758 153.58 118.854C146.979 121.471 141.05 125.536 136.23 130.75C116.896 152.95 155.43 155.902 178.08 128.938C174.871 134.433 172.185 140.217 170.056 146.214C166.962 154.152 166.334 155.066 166.276 155.32C165.928 156.886 168.676 158.43 170.104 159.16C169.122 161.293 167.652 163.164 165.812 164.622C151.032 176.368 150.296 192.998 161.238 205.752L161.838 205.292C151.174 192.892 151.802 176.722 166.284 165.214C167.377 164.347 168.35 163.338 169.176 162.214C179.789 162.069 190.241 164.814 199.414 170.154C198.718 171.274 197.932 172.508 197.04 173.888C194.332 172.58 191.557 171.301 188.714 170.052C188.624 170.02 188.525 170.023 188.438 170.061C188.35 170.099 188.28 170.168 188.241 170.256C188.203 170.343 188.199 170.442 188.23 170.532C188.261 170.622 188.326 170.697 188.41 170.742C206.016 178.228 222.449 188.218 237.2 200.4C240.733 203.387 243.59 207.093 245.579 211.271C247.568 215.448 248.644 220.002 248.736 224.628C249.012 237.692 248.628 252.208 247.496 270.476C238.233 272.591 228.566 272.113 219.556 269.094C219.812 257.294 219.356 245.82 218.918 233.912C223.068 222.052 222.918 222.572 222.918 222.37C222.915 222.309 222.896 222.249 222.864 222.197C222.831 222.145 222.786 222.102 222.732 222.072C222.644 222.026 218.38 220.442 218.288 220.406C217.602 220.108 189.624 207.924 173.582 202.872C168.782 201.362 164.782 195.5 163.63 188.286C163.611 188.191 163.555 188.106 163.475 188.051C163.395 187.995 163.297 187.973 163.201 187.988C163.104 188.003 163.018 188.055 162.959 188.133C162.9 188.21 162.873 188.307 162.884 188.404C164.084 195.894 168.284 202.004 173.356 203.592C188.718 208.43 215.086 219.836 217.776 221.006C218.058 236.286 219.176 252.304 218.79 269.318C218.787 269.344 218.787 269.37 218.79 269.396C218.454 284.116 217.614 284.51 218.258 284.76C219.418 285.206 220.55 285.598 221.636 285.926C221.748 292.012 219.822 295.256 221.476 299.214C222.461 301.465 223.88 303.5 225.652 305.202C232.928 312.536 238.852 334.084 244.052 330.712C244.96 330.112 245.67 327.56 244.052 313.068C243.373 304.148 243.472 295.186 244.35 286.284C245.224 286.028 246.112 285.734 246.996 285.404C247.064 285.379 247.123 285.335 247.166 285.277C247.21 285.219 247.235 285.15 247.24 285.078C249.136 259.64 249.826 240.99 249.48 224.61C249.386 219.878 248.285 215.22 246.25 210.946C244.216 206.672 241.294 202.881 237.68 199.824C225.472 189.674 212.052 181.076 197.728 174.228C199.398 171.64 201.358 168.546 202.86 165.842C204.636 165.576 205.64 165.032 205.848 164.226C208.448 158.626 207.738 152.986 205.836 146.29C228.458 141.804 258.134 126.09 271.802 114.136C271.85 114.094 271.886 114.04 271.908 113.98C271.93 113.92 271.936 113.855 271.926 113.792C271.788 112.922 271.587 112.062 271.326 111.22C273.454 108.961 275.859 106.979 278.484 105.322C279.454 105.85 280.542 106.126 281.646 106.122C285.306 106.122 288.768 103.152 289 100.852C289.047 100.309 288.911 99.7667 288.614 99.31C289.043 99.0584 289.412 98.717 289.696 98.3093C289.98 97.9016 290.172 97.4372 290.26 96.948C290.299 96.5128 290.226 96.0749 290.049 95.6754C289.872 95.2759 289.596 94.9279 289.248 94.664C289.545 94.2645 289.713 93.7836 289.729 93.2858C289.744 92.7881 289.607 92.2975 289.336 91.88C288.63 91.0554 287.753 90.3939 286.766 89.9412C285.779 89.4885 284.706 89.2554 283.62 89.258C290.788 85.51 293.852 81.342 293.914 80.15C293.94 79.632 293.5 79.26 292.782 79.676ZM246.512 284.77C237.512 287.981 227.643 287.76 218.796 284.148C219.196 279.328 219.42 274.572 219.534 269.872C228.54 272.85 238.186 273.327 247.442 271.25C247.174 275.542 246.864 280.038 246.512 284.77ZM276.028 83.914C276.522 84.632 275.132 86.968 274.628 87.62C271.038 88.7934 267.603 90.3985 264.4 92.4C269.154 88.448 274.928 84.026 276.028 83.914ZM179.67 127.904C183.986 121.542 186.138 112.834 187.182 105.248C187.191 105.184 187.184 105.119 187.16 105.059C187.137 104.999 187.098 104.947 187.048 104.906C182.01 100.77 184.714 97.186 187.426 99.948C189.212 101.768 191.68 101.052 189.602 95.232C190.807 94.7056 191.966 94.0801 193.068 93.362C198.222 105.418 200.014 111.302 199.188 114.186C198.368 117.036 191.29 113.56 188.642 112.186C188.574 112.151 188.497 112.138 188.421 112.148C188.346 112.157 188.275 112.19 188.218 112.241C188.161 112.291 188.121 112.358 188.102 112.433C188.084 112.507 188.089 112.585 188.116 112.656C188.822 114.698 189.854 116.613 191.17 118.326C191.806 119.796 191.586 120.988 192.704 121.812C191.507 121.806 190.343 122.204 189.4 122.94C184.444 127.366 183.54 142 172.218 142.8C174.163 137.583 176.661 132.589 179.67 127.904ZM199.814 169.522C190.677 164.187 180.274 161.408 169.694 161.476C171.065 159.248 172.023 156.792 172.524 154.224C181.226 154.224 198.22 158.138 203.846 162.312C202.628 164.784 201.282 167.19 199.814 169.522ZM199 146.542C198.904 146.552 198.815 146.598 198.752 146.671C198.689 146.744 198.657 146.839 198.661 146.935C198.665 147.032 198.706 147.123 198.776 147.19C198.845 147.257 198.938 147.295 199.034 147.296H199.068C200.906 147.128 202.932 146.838 205.094 146.434C206.854 152.614 207.58 157.852 205.57 162.96C203.33 159.512 191.1 156.29 187.054 155.384C182.026 154.163 176.874 153.525 171.7 153.482C170.341 153.46 168.988 153.654 167.69 154.056C169.09 150.918 170.4 147.4 171.912 143.576C184.002 143.034 185.178 127.724 189.912 123.504C191.336 122.226 193.794 122.684 195.824 122.354C215.77 119.19 236.502 110.238 257.446 95.754C263.72 99.368 269.916 106.446 271.156 113.714C255.3 127.484 220.854 144.554 199 146.542ZM282.034 89.212C281.073 89.2373 280.116 89.3606 279.18 89.58C279.088 89.6083 279.011 89.6703 278.963 89.7536C278.916 89.8369 278.901 89.9351 278.924 90.0285C278.946 90.1218 279.002 90.2032 279.082 90.2563C279.162 90.3093 279.259 90.3299 279.354 90.314C284.49 89.102 290.446 91.386 288.652 94.2C287.31 93.4367 285.83 92.9458 284.298 92.7553C282.765 92.5648 281.21 92.6786 279.722 93.09C279.674 93.1013 279.628 93.122 279.588 93.1509C279.548 93.1798 279.514 93.2163 279.488 93.2583C279.462 93.3004 279.444 93.3472 279.436 93.3961C279.428 93.4449 279.43 93.4948 279.441 93.543C279.452 93.5912 279.473 93.6367 279.502 93.6769C279.531 93.7171 279.567 93.7513 279.609 93.7774C279.651 93.8035 279.698 93.821 279.747 93.829C279.796 93.837 279.846 93.8353 279.894 93.824C282.778 93.144 286.752 93.348 288.814 95.284C289.048 95.4623 289.235 95.6952 289.358 95.9622C289.481 96.2293 289.536 96.5224 289.52 96.816C289.438 97.212 289.273 97.5862 289.037 97.9142C288.801 98.2423 288.498 98.5169 288.148 98.72C286.176 96.71 282.292 96.636 279.5 97.2C279.406 97.224 279.325 97.2832 279.273 97.3654C279.222 97.4475 279.204 97.5463 279.223 97.6414C279.242 97.7364 279.297 97.8204 279.377 97.876C279.456 97.9316 279.554 97.9545 279.65 97.94C283.584 97.14 286.272 98.026 287.476 99.118C287.728 99.3125 287.929 99.5641 288.064 99.8522C288.199 100.14 288.264 100.456 288.252 100.774C288.002 101.61 287.572 102.38 286.992 103.031C286.412 103.683 285.696 104.198 284.894 104.542C284.038 105.018 283.085 105.294 282.108 105.349C281.13 105.404 280.152 105.237 279.248 104.86C280.802 103.91 282.464 103.151 284.2 102.6C284.295 102.591 284.384 102.547 284.448 102.476C284.511 102.404 284.546 102.311 284.544 102.216C284.542 102.12 284.503 102.029 284.437 101.96C284.37 101.891 284.28 101.851 284.184 101.846C279.134 103.507 274.607 106.463 271.054 110.418C268.791 104.734 264.886 99.8523 259.838 96.396C264.038 93.1954 268.688 90.6343 273.638 88.796C280.273 86.3428 286.769 83.5306 293.098 80.372C292.648 81.53 289.618 85.546 282.032 89.212H282.034Z" fill="white"/>
</svg>
