<svg width="400" height="401" viewBox="0 0 400 401" fill="none" xmlns="http://www.w3.org/2000/svg">
<path d="M202.32 308.544C196.152 305.523 189.037 305.075 182.538 307.298C174.174 310.148 165.302 302.042 168.738 293.18L183.662 254.792C183.68 254.746 183.689 254.697 183.688 254.647C183.687 254.598 183.676 254.549 183.656 254.504C183.636 254.459 183.608 254.418 183.572 254.384C183.536 254.35 183.494 254.323 183.448 254.306L66.766 208.94C65.3648 208.394 63.8697 208.129 62.3662 208.162C60.8627 208.194 59.3803 208.522 58.0037 209.128C56.6272 209.733 55.3835 210.604 54.3437 211.691C53.3039 212.777 52.4885 214.058 51.944 215.46L10.78 321.338C9.68378 324.169 9.75495 327.319 10.978 330.097C12.201 332.876 14.4759 335.056 17.304 336.16C137.504 382.884 133.932 381.56 134.132 381.56C134.208 381.56 134.282 381.537 134.345 381.494C134.407 381.452 134.455 381.391 134.482 381.32L148.4 345.52C149.192 343.618 150.503 341.978 152.185 340.788C153.866 339.597 155.848 338.905 157.905 338.79C159.962 338.674 162.009 339.141 163.813 340.136C165.616 341.131 167.103 342.614 168.102 344.416C170.068 347.999 172.852 351.068 176.227 353.374C179.601 355.68 183.472 357.158 187.525 357.688C191.578 358.218 195.698 357.784 199.552 356.424C203.406 355.063 206.885 352.812 209.707 349.855C212.528 346.898 214.613 343.317 215.791 339.403C216.97 335.49 217.209 331.353 216.489 327.33C215.77 323.306 214.112 319.509 211.65 316.247C209.188 312.984 205.992 310.348 202.32 308.552V308.544ZM215.04 339.384C213.574 344.123 210.744 348.326 206.903 351.467C203.063 354.609 198.382 356.549 193.446 357.046C188.509 357.544 183.535 356.576 179.146 354.264C174.756 351.952 171.144 348.398 168.762 344.046C167.703 342.107 166.116 340.508 164.184 339.435C162.253 338.362 160.056 337.859 157.851 337.985C155.645 338.111 153.52 338.86 151.723 340.145C149.926 341.43 148.53 343.199 147.698 345.246L133.918 380.682L17.574 335.458C14.9332 334.426 12.809 332.39 11.6668 329.795C10.5246 327.2 10.4574 324.258 11.48 321.614L52.644 215.734C53.1525 214.424 53.9141 213.227 54.8853 212.212C55.8565 211.197 57.0182 210.383 58.3041 209.817C59.59 209.251 60.9748 208.944 62.3794 208.914C63.784 208.883 65.1808 209.13 66.49 209.64L182.832 254.882L168.046 292.918C167.276 294.99 167.109 297.238 167.567 299.401C168.025 301.564 169.088 303.553 170.632 305.135C172.176 306.717 174.138 307.829 176.289 308.339C178.44 308.85 180.692 308.739 182.782 308.02C187.191 306.519 191.928 306.267 196.471 307.291C201.014 308.316 205.185 310.576 208.524 313.823C211.862 317.07 214.238 321.177 215.388 325.689C216.538 330.202 216.417 334.945 215.04 339.394V339.384Z" fill="#1890ff"/>
<path d="M302.376 128.866C302.315 128.865 302.255 128.85 302.201 128.822C302.147 128.793 302.101 128.752 302.066 128.702C302.031 128.651 302.01 128.594 302.002 128.533C301.995 128.472 302.002 128.411 302.024 128.354L302.156 128.012C302.192 127.919 302.264 127.844 302.355 127.803C302.4 127.783 302.449 127.772 302.498 127.771C302.548 127.77 302.597 127.779 302.643 127.797C302.689 127.815 302.731 127.841 302.767 127.875C302.803 127.91 302.831 127.95 302.851 127.996C302.871 128.041 302.882 128.09 302.883 128.139C302.885 128.188 302.876 128.238 302.858 128.284C302.734 128.608 302.686 128.866 302.376 128.866Z" fill="#1890ff"/>
<path d="M365.514 164.468L340.514 154.792C338.613 154 336.973 152.688 335.784 151.007C334.594 149.326 333.901 147.344 333.786 145.288C333.671 143.232 334.137 141.185 335.132 139.381C336.127 137.578 337.609 136.091 339.41 135.092C343.751 132.713 347.324 129.145 349.707 124.806C352.089 120.467 353.184 115.538 352.862 110.598C352.54 105.658 350.815 100.913 347.888 96.9205C344.962 92.9277 340.957 89.8533 336.343 88.0586C331.73 86.264 326.7 85.8236 321.845 86.7894C316.99 87.7552 312.511 90.0869 308.936 93.5105C305.36 96.9341 302.836 101.307 301.661 106.116C300.485 110.925 300.707 115.969 302.3 120.656C303.111 123.115 303.054 125.777 302.14 128.2C302.09 128.24 302.051 128.293 302.028 128.354C300.997 130.996 298.96 133.121 296.364 134.263C293.768 135.405 290.824 135.471 288.18 134.446L249.96 119.588C249.921 119.544 249.873 119.51 249.818 119.488C249.764 119.466 249.705 119.458 249.646 119.463C249.588 119.468 249.532 119.487 249.482 119.518C249.432 119.549 249.39 119.592 249.36 119.642C249.2 119.842 249.134 120.374 239.334 145.416C239.304 145.507 239.31 145.607 239.351 145.694C239.392 145.781 239.465 145.849 239.555 145.884C239.645 145.919 239.744 145.918 239.834 145.882C239.923 145.845 239.995 145.776 240.034 145.688L249.88 120.364L287.906 135.148C290.736 136.244 293.886 136.173 296.664 134.951C299.442 133.728 301.622 131.453 302.726 128.626C302.749 128.565 302.755 128.5 302.746 128.436C302.796 128.396 302.835 128.344 302.858 128.284C303.832 125.759 303.885 122.972 303.008 120.412C301.459 115.859 301.242 110.958 302.383 106.286C303.524 101.614 305.975 97.3645 309.448 94.0378C312.922 90.7111 317.273 88.4453 321.99 87.5067C326.706 86.5682 331.593 86.996 336.075 88.7398C340.558 90.4836 344.449 93.4709 347.291 97.3504C350.134 101.23 351.809 105.84 352.121 110.64C352.433 115.439 351.368 120.228 349.051 124.442C346.735 128.657 343.263 132.123 339.044 134.432C337.118 135.501 335.532 137.091 334.468 139.02C333.405 140.95 332.908 143.14 333.033 145.339C333.158 147.539 333.901 149.658 335.177 151.455C336.452 153.251 338.209 154.651 340.244 155.494L365.244 165.168C366.554 165.676 367.751 166.438 368.766 167.409C369.781 168.381 370.595 169.543 371.161 170.829C371.727 172.115 372.034 173.5 372.065 174.905C372.095 176.309 371.848 177.706 371.338 179.016L330.176 284.896C329.667 286.205 328.905 287.402 327.934 288.417C326.962 289.432 325.8 290.245 324.514 290.811C323.228 291.376 321.843 291.683 320.439 291.713C319.034 291.743 317.637 291.496 316.328 290.986L200.98 246.144L215.768 208.108C216.416 206.406 216.654 204.575 216.463 202.763C216.271 200.952 215.655 199.212 214.665 197.683C213.675 196.154 212.338 194.88 210.763 193.965C209.189 193.049 207.42 192.518 205.602 192.414C205.552 192.41 205.503 192.415 205.455 192.431C205.408 192.446 205.364 192.47 205.326 192.503C205.288 192.535 205.257 192.575 205.235 192.619C205.212 192.663 205.199 192.712 205.195 192.761C205.192 192.811 205.198 192.861 205.214 192.908C205.23 192.955 205.255 192.999 205.288 193.036C205.32 193.074 205.36 193.104 205.405 193.126C205.45 193.148 205.498 193.161 205.548 193.164C207.249 193.259 208.904 193.755 210.378 194.61C211.851 195.465 213.103 196.655 214.03 198.085C214.957 199.514 215.534 201.142 215.714 202.836C215.894 204.531 215.672 206.243 215.066 207.836L200.142 246.222C200.107 246.315 200.11 246.419 200.15 246.51C200.19 246.601 200.265 246.673 200.358 246.71L316.054 291.682C317.455 292.228 318.951 292.492 320.454 292.46C321.958 292.427 323.44 292.099 324.817 291.493C326.193 290.887 327.437 290.015 328.476 288.928C329.516 287.841 330.33 286.56 330.874 285.158L372.036 179.282C372.581 177.881 372.844 176.386 372.812 174.884C372.779 173.381 372.45 171.899 371.844 170.523C371.239 169.148 370.368 167.905 369.282 166.866C368.196 165.827 366.915 165.012 365.514 164.468Z" fill="#1890ff"/>
<path d="M162.94 145.406C166.507 141.8 171.05 139.317 176.011 138.261C180.971 137.205 186.132 137.623 190.858 139.464C190.948 139.502 191.02 139.574 191.058 139.664C191.096 139.754 191.097 139.856 191.062 139.947C191.026 140.038 190.956 140.112 190.867 140.152C190.778 140.193 190.676 140.197 190.584 140.164C185.995 138.378 180.984 137.972 176.167 138.998C171.351 140.023 166.939 142.435 163.476 145.936C163.441 145.971 163.4 145.999 163.354 146.018C163.309 146.037 163.26 146.047 163.21 146.048C163.11 146.048 163.014 146.009 162.943 145.939C162.872 145.868 162.832 145.773 162.831 145.673C162.831 145.573 162.87 145.477 162.94 145.406Z" fill="#1890ff"/>
<path d="M238.558 114.294C238.46 114.074 243.714 116.294 121.65 68.7238C120.249 68.1783 118.754 67.9144 117.25 67.947C115.747 67.9797 114.264 68.3084 112.888 68.9143C111.512 69.5202 110.268 70.3914 109.229 71.4782C108.189 72.5649 107.374 73.8459 106.83 75.2478L97.0881 100.048C96.305 101.958 94.997 103.607 93.3155 104.805C91.6339 106.003 89.6476 106.699 87.5864 106.815C85.5252 106.931 83.4734 106.46 81.6686 105.458C79.8637 104.455 78.3796 102.963 77.3881 101.152C75.0094 96.8107 71.4409 93.2389 67.1021 90.8561C62.7632 88.4733 57.8343 87.3786 52.8947 87.7008C47.9552 88.0229 43.2102 89.7484 39.2175 92.6745C35.2249 95.6006 32.1505 99.6057 30.3558 104.219C28.561 108.832 28.1205 113.862 29.086 118.717C30.0515 123.572 32.3829 128.05 35.8061 131.626C39.2294 135.202 43.6022 137.726 48.4106 138.901C53.219 140.077 58.2631 139.856 62.9501 138.264C64.9049 137.596 67.0089 137.496 69.0183 137.975C71.0278 138.454 72.8605 139.492 74.3045 140.969C75.7484 142.446 76.7444 144.302 77.1772 146.322C77.61 148.342 77.4619 150.443 76.7501 152.382L65.6661 181.13C65.1212 182.532 64.858 184.027 64.8915 185.531C64.9251 187.034 65.2547 188.516 65.8615 189.892C66.4684 191.268 67.3406 192.511 68.4282 193.55C69.5158 194.589 70.7976 195.403 72.2001 195.946L155.362 228.282C155.455 228.318 155.559 228.316 155.65 228.275C155.741 228.235 155.813 228.16 155.849 228.067C155.885 227.974 155.883 227.87 155.842 227.779C155.802 227.687 155.727 227.616 155.634 227.58L72.4621 195.246C71.1526 194.737 69.9562 193.976 68.9411 193.005C67.926 192.034 67.1122 190.872 66.5461 189.587C65.98 188.301 65.6727 186.917 65.6418 185.512C65.6109 184.108 65.857 182.711 66.3661 181.402L77.4461 152.658C81.1121 143.224 71.6841 134.498 62.7081 137.556C58.1554 139.104 53.2552 139.321 48.5837 138.18C43.9123 137.038 39.6637 134.587 36.3376 131.114C33.0114 127.641 30.746 123.291 29.8077 118.574C28.8694 113.858 29.2972 108.972 31.0408 104.49C32.7844 100.009 35.7713 96.118 39.6503 93.2758C43.5293 90.4336 48.1392 88.758 52.9379 88.446C57.7366 88.1341 62.5246 89.1986 66.739 91.5146C70.9534 93.8306 74.4189 97.3017 76.7281 101.52C78.1559 104.074 80.4767 106.011 83.2451 106.959C86.0134 107.907 89.0344 107.799 91.7281 106.656C93.1067 106.054 94.3521 105.184 95.3924 104.097C96.4326 103.01 97.2468 101.728 97.7881 100.324L107.526 75.5238C108.035 74.2141 108.796 73.0175 109.767 72.0023C110.739 70.9871 111.9 70.1733 113.186 69.6073C114.472 69.0414 115.857 68.7344 117.261 68.704C118.666 68.6735 120.063 68.9201 121.372 69.4298L237.722 114.664L225.48 146.032C225.444 146.125 225.446 146.229 225.487 146.32C225.527 146.411 225.602 146.483 225.695 146.519C225.788 146.555 225.892 146.553 225.983 146.512C226.074 146.472 226.146 146.397 226.182 146.304C239.474 112.282 238.656 114.518 238.558 114.294Z" fill="#1890ff"/>
<path d="M308.114 245.382L239.932 255.536C239.932 255.536 234.626 232.212 233.744 228.18C228.934 206.246 209.896 198.754 204.612 197.08C204.558 197.302 204.512 197.526 204.468 197.74C196.052 206.43 178.468 213.402 170.316 208.54C131.88 258.74 108.158 291.554 57.3461 339.646C49.5461 346.888 72.2921 371.774 80.1281 364.646C139.294 311.21 157.89 293.516 195.798 247.156L215.384 280.784C217.556 284.511 220.822 287.48 224.738 289.289C228.654 291.098 233.032 291.66 237.278 290.898L313.904 277.112C320.812 275.92 315.056 244.116 308.114 245.382Z" fill="#FFE7EA"/>
<path d="M337.444 141.304C336.258 141.676 325.034 144.726 324.308 145.006C326.438 142.723 328.868 140.74 331.53 139.11C336.862 135.71 336.026 133 329.27 136.044C328.532 136.384 321.018 139.606 318.79 140.566C317.418 141.15 313.884 142.166 313.152 141.134C311.016 138.162 312.302 129.146 309.082 128.642C306.996 128.316 306.664 134.484 305.998 138.666C305.598 141.082 302.072 143.212 299.3 143.402C299.226 143.402 300.28 143.314 289.872 144.362C287.672 150.698 288.72 161.794 292.382 167.176L299.438 166.602C314.358 165.084 318.676 163.952 330.458 162.202C343.3 160.29 342.536 157.738 334.574 157.85C331.597 157.887 328.625 157.605 325.708 157.008C326.278 157.008 331.014 155.57 336.698 153.808C343.452 151.712 343.854 148.974 335.66 150.138C332.735 150.581 329.778 150.778 326.82 150.726C327.25 150.542 334.26 147.59 339.534 144.754C345.466 141.566 344.468 139.122 337.444 141.304Z" fill="#FFE7EA"/>
<path d="M207.71 145.852C192.696 149.582 178.58 149.994 165.722 145.852C172.922 146.21 176.956 144.924 179.268 143.63C180.305 142.319 180.979 140.759 181.222 139.105C181.465 137.452 181.268 135.763 180.652 134.21C171.166 135.706 171.63 121.894 174.7 113.236L176.04 110.146C180.306 102.09 187.016 104.508 188.52 113.4C188.658 114.4 189.236 114.334 189.34 114.266C189.941 114.095 190.503 113.81 190.996 113.426C194.53 110.976 196.96 117.17 191.694 118.934C191.022 122.774 190.631 126.658 190.526 130.556C190.4 139.356 192.89 141.854 195.4 143.218C199.301 144.864 203.477 145.758 207.71 145.852Z" fill="#FFE7EA"/>
<path d="M249.714 38.4577C251.237 36.1508 251.918 33.3893 251.643 30.6387C251.367 27.8882 250.152 25.3166 248.202 23.3576C246.252 21.3985 243.685 20.1716 240.936 19.8837C238.187 19.5958 235.422 20.2646 233.109 21.7771C230.795 23.2897 229.073 25.5537 228.234 28.1876C227.395 30.8214 227.489 33.6641 228.501 36.2365C229.513 38.8089 231.381 40.9537 233.79 42.3096C236.199 43.6654 239.002 44.1493 241.726 43.6797L243.204 50.8917C242.849 51.0357 242.558 51.3022 242.383 51.6428C242.208 51.9833 242.161 52.3754 242.25 52.7477L245.488 68.5477C245.587 68.9757 245.849 69.348 246.219 69.5852C246.588 69.8224 247.036 69.9056 247.466 69.8171C247.896 69.7285 248.275 69.4753 248.521 69.1114C248.767 68.7475 248.86 68.3019 248.782 67.8697L245.546 52.0697C245.482 51.6933 245.286 51.3522 244.992 51.1079C244.699 50.8636 244.328 50.7323 243.946 50.7377L242.466 43.5277C245.442 42.8285 248.037 41.0137 249.714 38.4577ZM228.648 34.0997C228.277 32.2852 228.358 30.407 228.886 28.6315C229.413 26.856 230.371 25.2381 231.673 23.9209C232.975 22.6037 234.582 21.6279 236.351 21.0801C238.121 20.5322 239.998 20.4291 241.816 20.7798C243.635 21.1306 245.339 21.9245 246.778 23.0911C248.216 24.2577 249.345 25.7611 250.064 27.4681C250.783 29.1751 251.07 31.033 250.899 32.8774C250.729 34.7217 250.106 36.4955 249.086 38.0417C247.855 39.8947 246.103 41.3423 244.051 42.2023C242 43.0622 239.739 43.2963 237.555 42.875C235.37 42.4536 233.359 41.3957 231.774 39.8343C230.19 38.2729 229.102 36.2777 228.648 34.0997Z" fill="#1890ff"/>
<path d="M389.728 236.634L385.302 235.34C384.802 235.194 384.336 234.951 383.93 234.625C383.524 234.298 383.187 233.895 382.937 233.439C382.687 232.982 382.53 232.48 382.474 231.963C382.418 231.445 382.465 230.921 382.612 230.422L383.906 225.998C383.927 225.904 383.911 225.806 383.863 225.723C383.814 225.641 383.735 225.58 383.643 225.553C383.551 225.526 383.452 225.535 383.367 225.578C383.281 225.621 383.215 225.696 383.182 225.786L381.888 230.21C381.743 230.71 381.5 231.176 381.174 231.582C380.848 231.988 380.445 232.326 379.989 232.576C379.532 232.827 379.031 232.984 378.513 233.04C377.995 233.097 377.472 233.05 376.972 232.904L372.546 231.61C372.453 231.593 372.358 231.611 372.278 231.661C372.198 231.71 372.14 231.788 372.115 231.879C372.09 231.97 372.1 232.067 372.142 232.15C372.185 232.234 372.258 232.299 372.346 232.332L376.77 233.626C377.27 233.772 377.736 234.015 378.141 234.341C378.547 234.667 378.885 235.069 379.135 235.526C379.385 235.983 379.542 236.484 379.598 237.001C379.655 237.519 379.608 238.042 379.462 238.542L378.168 242.968C378.14 243.064 378.151 243.166 378.199 243.254C378.247 243.342 378.327 243.407 378.423 243.435C378.519 243.463 378.622 243.452 378.709 243.404C378.797 243.356 378.862 243.276 378.89 243.18L380.186 238.752C380.482 237.743 381.165 236.894 382.087 236.389C383.009 235.885 384.093 235.767 385.102 236.062C388.616 237.092 389.432 237.372 389.632 237.372C389.722 237.37 389.809 237.337 389.877 237.276C389.944 237.216 389.988 237.134 389.999 237.044C390.011 236.955 389.99 236.864 389.94 236.788C389.89 236.713 389.815 236.658 389.728 236.634ZM380.328 236.874C380.183 235.665 379.578 234.558 378.638 233.784C379.847 233.639 380.953 233.033 381.726 232.092C381.872 233.301 382.478 234.407 383.418 235.182C382.209 235.332 381.105 235.94 380.332 236.882L380.328 236.874Z" fill="#1890ff"/>
<path d="M137.518 79.4596L126.074 26.2596C126.064 26.2112 126.044 26.1654 126.016 26.1247C125.987 26.0841 125.951 26.0494 125.91 26.0226C125.868 25.9959 125.822 25.9776 125.773 25.9688C125.724 25.9601 125.674 25.961 125.626 25.9716L107.978 29.7716C106.996 30 106.099 30.5022 105.39 31.22C104.682 31.9378 104.192 32.8417 103.977 33.8269C103.761 34.8121 103.83 35.8381 104.174 36.7859C104.519 37.7337 105.125 38.5644 105.922 39.1816C107.555 40.4491 108.793 42.1566 109.489 44.1033C110.185 46.05 110.311 48.155 109.852 50.1708C109.393 52.1867 108.368 54.0296 106.898 55.4828C105.427 56.936 103.572 57.9392 101.551 58.3745C99.5299 58.8097 97.4265 58.6588 95.4882 57.9396C93.5499 57.2204 91.8572 55.9627 90.6091 54.3145C89.361 52.6663 88.6094 50.696 88.4427 48.6352C88.276 46.5745 88.7011 44.509 89.6681 42.6816C90.1396 41.791 90.3492 40.7851 90.2724 39.7803C90.1957 38.7755 89.8358 37.813 89.2344 37.0044C88.633 36.1958 87.8148 35.5742 86.8746 35.2116C85.9344 34.849 84.9107 34.7602 83.9221 34.9556L67.4621 38.4976C67.3648 38.5187 67.2799 38.5775 67.2259 38.6611C67.1719 38.7447 67.1533 38.8463 67.1741 38.9436L78.6181 92.1436C78.8712 93.3122 79.516 94.3593 80.4458 95.1112C81.3756 95.863 82.5343 96.2746 83.7301 96.2776C84.5501 96.2776 81.1821 96.9476 133.506 85.6776C134.178 85.5335 134.815 85.2583 135.381 84.8676C135.947 84.477 136.429 83.9786 136.802 83.401C137.175 82.8234 137.43 82.1779 137.553 81.5016C137.676 80.8253 137.664 80.1314 137.518 79.4596Z" fill="#1890ff"/>
<path d="M120.818 104.462C119.452 99.7118 118.08 93.8978 117.552 91.3898C116.87 88.1478 115.706 77.4498 113.856 79.8958C112.5 81.6958 112.056 87.2958 111.758 90.3498L98.368 93.2298C99.441 98.9279 101.099 104.5 103.316 109.858C108.856 107.216 114.752 105.398 120.818 104.462Z" fill="#FFE7EA"/>
<path d="M282.57 362.714L264.462 355.692L271.484 337.584C271.502 337.538 271.511 337.488 271.509 337.439C271.508 337.39 271.497 337.341 271.477 337.296C271.457 337.25 271.429 337.21 271.393 337.175C271.357 337.141 271.315 337.115 271.269 337.097C271.223 337.079 271.174 337.07 271.124 337.071C271.075 337.073 271.026 337.083 270.981 337.103C270.936 337.123 270.895 337.152 270.861 337.188C270.827 337.224 270.8 337.266 270.782 337.312L263.76 355.418L245.654 348.396C245.561 348.359 245.457 348.362 245.366 348.402C245.274 348.442 245.202 348.517 245.166 348.61C245.13 348.703 245.132 348.807 245.172 348.898C245.212 348.99 245.287 349.061 245.38 349.098L263.488 356.122L256.464 374.228C256.446 374.274 256.438 374.323 256.439 374.372C256.44 374.422 256.451 374.471 256.471 374.516C256.491 374.561 256.519 374.602 256.555 374.636C256.591 374.67 256.633 374.697 256.679 374.715C256.725 374.733 256.774 374.741 256.824 374.74C256.873 374.739 256.922 374.728 256.967 374.708C257.012 374.688 257.053 374.659 257.087 374.624C257.121 374.588 257.148 374.546 257.166 374.5L264.19 356.394C282.48 363.486 282.234 363.442 282.434 363.442C282.521 363.44 282.605 363.409 282.671 363.352C282.738 363.296 282.783 363.219 282.799 363.133C282.815 363.048 282.801 362.959 282.759 362.883C282.717 362.806 282.651 362.747 282.57 362.714Z" fill="#1890ff"/>
<path d="M14.218 209.714C16.164 204.184 23.818 203.192 25.754 197.602C26.057 196.827 26.1948 195.997 26.1586 195.166C26.1225 194.335 25.9131 193.52 25.544 192.774C25.1748 192.029 24.654 191.368 24.0149 190.835C23.3758 190.303 22.6325 189.909 21.8325 189.68C21.0326 189.451 20.1937 189.392 19.3695 189.506C18.5452 189.62 17.7539 189.905 17.0462 190.342C16.3384 190.78 15.7298 191.36 15.2593 192.047C14.7889 192.733 14.4669 193.51 14.314 194.328C14.2957 194.426 14.2392 194.513 14.1568 194.569C14.0745 194.626 13.9731 194.647 13.875 194.629C13.7769 194.61 13.69 194.554 13.6336 194.471C13.5771 194.389 13.5557 194.288 13.574 194.19C13.7461 193.27 14.1083 192.396 14.6373 191.624C15.1664 190.852 15.8507 190.198 16.6466 189.706C17.4424 189.213 18.3323 188.892 19.2593 188.763C20.1863 188.634 21.13 188.7 22.0302 188.956C22.9303 189.212 23.7671 189.654 24.487 190.252C25.2069 190.85 25.794 191.592 26.2109 192.43C26.6279 193.268 26.8653 194.183 26.9082 195.118C26.9511 196.053 26.7985 196.987 26.46 197.86C25.752 199.914 24.732 201.362 20.86 203.996C16.86 206.722 15.634 207.95 14.926 209.964C14.889 210.052 14.8195 210.124 14.7317 210.163C14.6438 210.202 14.5444 210.206 14.4538 210.174C14.3631 210.142 14.2882 210.076 14.2444 209.991C14.2005 209.905 14.1911 209.806 14.218 209.714Z" fill="#1890ff"/>
<path d="M10.8721 215.864C10.5701 216.203 10.4108 216.646 10.4273 217.1C10.4439 217.554 10.635 217.985 10.961 218.301C11.2869 218.618 11.7224 218.797 12.1768 218.8C12.6312 218.803 13.0694 218.631 13.4001 218.32C13.7021 217.98 13.8614 217.537 13.8449 217.083C13.8283 216.629 13.6372 216.199 13.3112 215.882C12.9853 215.565 12.5498 215.387 12.0954 215.383C11.641 215.38 11.2028 215.552 10.8721 215.864Z" fill="#1890ff"/>
<path d="M307.912 157.642C313.512 156.534 316.614 152.534 317.166 145.756C317.174 145.656 317.143 145.558 317.078 145.481C317.014 145.405 316.921 145.358 316.822 145.35C316.723 145.341 316.624 145.373 316.548 145.438C316.472 145.502 316.424 145.594 316.416 145.694C315.896 152.094 312.986 155.868 307.766 156.904C307.668 156.923 307.582 156.98 307.527 157.063C307.471 157.146 307.451 157.248 307.47 157.346C307.489 157.444 307.547 157.53 307.63 157.585C307.713 157.641 307.814 157.661 307.912 157.642Z" fill="#1890ff"/>
<path d="M332.348 250.204C330.025 248.485 327.387 247.239 324.584 246.538C320.934 245.7 316.926 247.166 312.614 248.292C311.174 245.87 309.614 244.736 308.06 245.01L240.222 255.112L234.112 228.1C232.494 220.764 228.949 213.992 223.843 208.482C218.738 202.972 212.255 198.923 205.064 196.752C205.482 194.79 208.046 182.442 208.93 178.752C238.272 179.771 267.618 176.851 296.184 170.07C297.014 170.032 298.488 169.482 299.69 166.956C314.35 165.478 318.89 164.3 330.514 162.572C332.63 162.258 340.976 161.046 340.738 158.942C340.622 157.912 338.538 157.416 334.57 157.472C332.217 157.5 329.866 157.328 327.542 156.958C329.078 156.536 331.824 155.714 336.808 154.17C340.408 153.058 342.392 151.728 342.142 150.612C341.824 149.192 338.414 149.37 335.608 149.766C333.298 150.109 330.969 150.309 328.634 150.366C331.124 149.284 335.892 147.152 339.712 145.098C342.696 143.498 344.154 141.972 343.712 140.926C343.252 139.828 340.926 139.84 337.33 140.956C336.716 141.156 329.998 143.01 325.53 144.246C327.429 142.44 329.506 140.832 331.73 139.446C334.452 137.716 335.806 136.012 335.262 135.004C334.694 133.954 332.462 134.216 329.112 135.724C328.566 135.974 318.64 140.24 318.64 140.24C316.888 140.986 313.938 141.606 313.454 140.936C311.328 137.976 312.8 128.864 309.138 128.29C308.959 128.26 308.775 128.268 308.6 128.314C308.424 128.359 308.259 128.44 308.116 128.552C306.516 129.752 306.244 134.752 305.624 138.624C305.262 140.858 301.854 142.87 299.298 143.046C299.23 143.046 299.006 143.068 298.11 143.17C297.128 141.512 295.374 139.53 293.532 139.816C278.35 141.786 209.066 150.35 195.576 142.908C193.104 141.562 190.83 139.164 190.896 130.858C192.624 130.33 201.672 127.282 203.582 120.858C204.622 117.374 203.342 113.538 199.782 109.458C201.272 110.221 202.924 110.613 204.598 110.602C215.124 110.602 221.488 97.3136 214.224 90.3536C211.91 88.3748 208.906 87.3934 205.87 87.6243C202.833 87.8552 200.012 89.2796 198.024 91.5856C196.248 93.3331 195.06 95.5889 194.622 98.0414C194.184 100.494 194.519 103.022 195.58 105.276C187.404 98.3976 180.834 100.618 176.122 109.212C172.922 115.044 171.024 124.93 173.42 130.628C173.902 132.028 174.876 133.206 176.162 133.942C177.447 134.678 178.956 134.922 180.408 134.628C180.719 135.385 180.928 136.181 181.03 136.994C181.088 138.028 180.006 142.794 179.08 143.308C169.14 148.87 147.836 142.766 137.012 139.172L126.346 105.12C125.874 103.59 122.684 103.864 121.092 104.046C119.892 99.8456 118.188 93.1437 117.358 88.1476C116.488 82.9216 115.826 79.4756 114.594 79.1716C112.082 78.5456 111.29 90.2576 111.156 92.8516C109.629 94.1719 108.683 96.0397 108.522 98.0516C108.068 102.052 110.022 105.416 110.62 105.416C110.691 105.416 110.761 105.396 110.822 105.357C110.882 105.319 110.93 105.264 110.961 105.2C110.991 105.135 111.003 105.063 110.994 104.992C110.985 104.921 110.956 104.855 110.91 104.8C109.561 102.857 108.977 100.485 109.27 98.1376C109.34 97.2119 109.596 96.3098 110.023 95.4851C110.449 94.6605 111.037 93.9301 111.752 93.3376C111.795 93.3044 111.831 93.2622 111.856 93.2138C111.881 93.1654 111.896 93.1121 111.898 93.0576C111.898 92.9536 112.418 82.4216 114.156 80.1236C114.288 79.9476 114.392 79.8956 114.414 79.9016C115.258 80.1016 116.176 85.6216 116.614 88.2716C117.43 93.1636 119.068 99.6716 120.334 104.142C114.511 105.084 108.849 106.834 103.51 109.342C101.379 104.123 99.7791 98.7018 98.736 93.1616L98 93.3096C99.0584 98.9159 100.68 104.401 102.84 109.682C101.466 110.414 98.852 111.908 99.32 113.394C116.92 169.416 116.628 167.288 116.82 167.488L116.888 167.536C129.769 174.128 143.902 177.91 158.354 178.634C159.46 185.95 163.23 195.726 169.872 208.5C124.4 267.846 110.848 288.506 57.094 339.362C55.34 340.962 54.906 343.496 55.83 346.71C50.676 350.756 41.318 357.992 35.03 362.188C20.668 371.776 18.994 374.35 19.14 375.524C20.014 382.686 43.906 371.724 56.058 372.724C58.9314 373.028 61.8364 372.767 64.61 371.958C67.824 370.946 70.366 368.14 72.936 365.506C75.536 366.506 78.322 366.8 80.376 364.932C128.156 321.792 156.264 297.07 195.732 247.792L215.056 280.978C217.273 284.766 220.598 287.783 224.583 289.624C228.567 291.465 233.02 292.041 237.342 291.274L313.966 277.488C315.916 277.156 316.714 274.698 317.028 273.088C322.828 272.274 336.55 270.428 345.144 269.932C362.38 268.944 365.128 267.572 365.598 266.486C368.466 259.858 342.296 257.208 332.348 250.204ZM233.376 228.26C235.576 238.36 234.258 231.964 239.564 255.618C239.583 255.701 239.629 255.775 239.696 255.828C239.762 255.882 239.845 255.911 239.93 255.912L294.31 247.818C297.384 247.3 300.18 259.774 300.762 263.194L236.268 271.58C234.626 271.789 232.963 271.424 231.56 270.545C230.158 269.666 229.103 268.328 228.576 266.76C225.206 256.68 219.4 238.436 218.358 229.498C216.654 214.898 200.158 206.048 196.604 204.298C199.575 202.555 202.309 200.436 204.738 197.994C204.846 197.884 204.848 197.754 204.906 197.482C211.959 199.617 218.316 203.595 223.32 209.005C228.324 214.415 231.796 221.061 233.376 228.26ZM335.714 150.51C340.17 149.876 341.348 150.51 341.408 150.774C341.486 151.12 340.378 152.274 336.586 153.45C334.104 154.218 326.638 156.528 325.74 156.626C324.54 156.376 323.646 156.128 323.218 156C323.431 154.265 323.451 152.511 323.276 150.772C327.413 151.284 331.602 151.196 335.714 150.51ZM337.556 141.664C341.2 140.53 342.844 140.78 343.022 141.206C343.186 141.606 342.336 142.82 339.356 144.424C334.324 147.128 327.628 149.974 326.756 150.344C325.556 150.33 324.36 150.211 323.182 149.986C322.975 148.612 322.64 147.261 322.182 145.95C323.088 145.7 336.732 141.918 337.556 141.664ZM299.326 143.778C302.238 143.578 305.948 141.328 306.368 138.724C306.818 135.924 307.33 128.762 309.024 129.014C311.792 129.448 310.718 138.39 312.846 141.354C313.962 142.906 318.888 140.934 318.94 140.912C318.94 140.912 328.874 136.642 329.424 136.388C332.79 134.872 334.384 134.94 334.602 135.34C334.78 135.674 334.216 136.956 331.328 138.792C328.673 140.405 326.247 142.368 324.114 144.628L321.914 145.228C321.588 144.364 321.2 143.47 320.746 142.538C320.702 142.448 320.625 142.379 320.53 142.347C320.436 142.315 320.333 142.321 320.243 142.365C320.153 142.408 320.085 142.486 320.052 142.58C320.02 142.675 320.026 142.778 320.07 142.868C322.534 147.559 323.267 152.968 322.138 158.146C322.127 158.241 322.152 158.338 322.21 158.415C322.267 158.492 322.352 158.545 322.447 158.561C322.542 158.577 322.64 158.557 322.72 158.503C322.8 158.45 322.857 158.368 322.878 158.274C322.968 157.76 323.046 157.254 323.114 156.752C326.845 157.78 330.703 158.273 334.572 158.218C338.972 158.158 339.972 158.832 339.982 159.018C339.992 159.204 339.202 160.1 335.136 160.962C333.472 161.31 331.876 161.6 330.396 161.82C316.228 163.926 312.834 165.124 292.566 166.778C289.202 161.63 288.044 151.076 290.144 144.706C302.284 143.482 298.65 143.808 299.326 143.778ZM179.45 143.958C180.788 143.21 181.728 138.312 181.784 137.11C184.116 134.464 184.914 133.592 185.212 133.236C185.59 132.786 185.402 132.374 184.916 132.504C184.566 132.598 183.954 132.892 182.812 133.272C179.938 134.222 177.102 134.422 175.176 132.102C172.096 128.394 172.814 119.678 175.046 113.386L176.372 110.322C180.45 102.622 186.698 104.89 188.146 113.452C188.294 114.53 188.998 114.82 189.462 114.624C190.778 114.324 191.45 113.206 192.642 113.238C194.76 113.298 195.496 117.264 191.574 118.578L191.528 118.596C191.475 118.623 191.429 118.662 191.394 118.71C191.36 118.759 191.337 118.815 191.328 118.874C190.654 122.733 190.262 126.636 190.154 130.552C190.028 139.504 192.646 142.152 195.222 143.552C198.44 144.985 201.893 145.82 205.41 146.018C191.61 149.17 179.482 149.26 168.518 146.292C172.299 146.424 176.053 145.623 179.45 143.958ZM159.05 178.214C158.31 173.235 158.956 168.149 160.916 163.514C160.936 163.455 160.941 163.392 160.931 163.33C160.921 163.269 160.895 163.211 160.857 163.162C160.819 163.113 160.769 163.074 160.712 163.049C160.654 163.024 160.592 163.014 160.53 163.02C160.146 163.09 160.664 162.154 154.308 177.588C141.431 176.433 128.895 172.818 117.38 166.94L100.038 113.166C99.954 112.892 100.134 112.566 100.452 112.226C103.358 109.146 115.302 105.548 120.786 104.836C120.986 104.854 125.276 104.208 125.628 105.344C136.688 141.084 136.26 139.584 136.516 139.78C137.138 140.14 153.546 145.628 165.652 146.224C179.468 150.66 193.774 149.694 207.742 146.224C229.56 147.958 269.644 143.6 291.5 140.81C286.066 146.062 288.1 166.41 294.45 169.682C269.482 175.428 243.941 178.318 218.32 178.298C211.634 168.548 211.836 168.77 211.668 168.63L211.646 168.612C211.587 168.573 211.518 168.551 211.448 168.549C211.377 168.547 211.307 168.564 211.246 168.6L211.22 168.616C209.62 169.868 204.606 195.264 204.114 197.548C196.314 205.548 179.026 213.148 170.594 208.256C163.866 195.332 160.09 185.5 159.052 178.214H159.05ZM79.876 364.372C72.362 371.2 50.166 346.682 57.6 339.914C60.236 337.418 62.8007 334.963 65.294 332.55C64.25 339.85 80.356 358.052 87.388 357.578C84.9467 359.792 82.4427 362.057 79.876 364.372ZM93.44 352.108C91.936 353.47 90.44 354.874 88.862 356.25C86.816 358.05 82.34 355.57 77.942 351.59C116.314 315.622 152.828 277.721 187.342 238.036L191.496 251.858C156.6 294.21 137.494 312.268 93.44 352.108ZM300 279.234L237.2 290.532C233.03 291.271 228.734 290.715 224.89 288.939C221.046 287.163 217.838 284.252 215.698 280.598L185.12 228.082C185.073 228.003 184.999 227.944 184.912 227.916C184.825 227.888 184.731 227.892 184.647 227.929C184.563 227.966 184.495 228.032 184.456 228.115C184.417 228.198 184.41 228.292 184.436 228.38L187.082 237.18C152.482 276.992 115.869 315.009 77.386 351.082C76.0978 349.873 74.8709 348.601 73.71 347.27C68.346 341.124 64.18 333.586 66.73 331.166C84.4672 314.414 101.208 296.637 116.866 277.928C132.208 259.742 146.438 240.328 170.416 209.024C177.27 212.792 188.892 208.74 195.816 204.766C197.866 205.728 215.852 214.566 217.604 229.586C218.654 238.586 224.478 256.892 227.856 267C228.438 268.734 229.604 270.213 231.154 271.185C232.704 272.156 234.543 272.56 236.358 272.328L300.884 263.938C301.485 267.277 301.765 270.665 301.72 274.058C301.616 277.166 301 279.052 300 279.234ZM313.834 276.744L301.458 278.972C304.458 274.086 300.326 251.268 295.792 247.596L308.166 245.754C314.572 244.58 320.2 275.682 313.84 276.744H313.834Z" fill="#1890ff"/>
<path d="M183.058 159.572C183.463 159.537 183.849 159.382 184.166 159.128C184.484 158.873 184.718 158.53 184.841 158.142C184.963 157.755 184.968 157.339 184.854 156.949C184.74 156.558 184.513 156.21 184.202 155.949C183.89 155.687 183.508 155.524 183.104 155.48C182.699 155.435 182.291 155.512 181.93 155.7C181.57 155.888 181.273 156.179 181.077 156.535C180.882 156.892 180.796 157.299 180.832 157.704C180.855 157.973 180.931 158.235 181.056 158.474C181.18 158.714 181.351 158.926 181.557 159.1C181.764 159.273 182.003 159.404 182.261 159.485C182.518 159.566 182.789 159.596 183.058 159.572Z" fill="#1890ff"/>
<path d="M179.71 173.428C180.115 173.392 180.5 173.238 180.816 172.983C181.133 172.729 181.367 172.386 181.489 171.999C181.611 171.612 181.616 171.197 181.502 170.807C181.389 170.417 181.162 170.069 180.851 169.808C180.54 169.547 180.158 169.384 179.754 169.34C179.35 169.296 178.943 169.372 178.582 169.559C178.222 169.747 177.925 170.037 177.73 170.393C177.534 170.749 177.449 171.155 177.484 171.56C177.507 171.829 177.583 172.09 177.708 172.33C177.832 172.57 178.003 172.782 178.209 172.956C178.416 173.129 178.655 173.26 178.913 173.341C179.17 173.422 179.441 173.452 179.71 173.428Z" fill="#1890ff"/>
<path d="M179.71 188.882C180.115 188.846 180.501 188.692 180.818 188.437C181.136 188.183 181.37 187.84 181.493 187.452C181.615 187.064 181.62 186.649 181.506 186.258C181.392 185.868 181.165 185.52 180.854 185.258C180.542 184.997 180.16 184.834 179.756 184.79C179.351 184.745 178.943 184.822 178.582 185.01C178.222 185.198 177.925 185.488 177.729 185.845C177.534 186.202 177.448 186.608 177.484 187.014C177.507 187.283 177.583 187.544 177.708 187.784C177.832 188.023 178.003 188.236 178.209 188.41C178.416 188.583 178.655 188.714 178.913 188.795C179.17 188.876 179.441 188.906 179.71 188.882Z" fill="#1890ff"/>
</svg>
