<svg width="400" height="400" viewBox="0 0 400 400" fill="none" xmlns="http://www.w3.org/2000/svg">
<path d="M202.32 307.862C196.152 304.842 189.037 304.394 182.538 306.616C174.174 309.466 165.302 301.36 168.738 292.498L183.662 254.11C183.68 254.064 183.689 254.015 183.688 253.966C183.687 253.916 183.676 253.868 183.656 253.822C183.636 253.777 183.608 253.736 183.572 253.702C183.536 253.668 183.494 253.642 183.448 253.624L66.766 208.258C65.3648 207.712 63.8697 207.448 62.3662 207.48C60.8627 207.512 59.3803 207.84 58.0037 208.446C56.6272 209.052 55.3835 209.922 54.3437 211.009C53.3039 212.095 52.4885 213.376 51.944 214.778L10.78 320.656C9.68378 323.487 9.75495 326.637 10.978 329.416C12.201 332.194 14.4759 334.374 17.304 335.478C137.504 382.202 133.932 380.878 134.132 380.878C134.208 380.878 134.282 380.856 134.345 380.813C134.407 380.77 134.455 380.709 134.482 380.638L148.4 344.838C149.192 342.936 150.503 341.296 152.185 340.106C153.866 338.916 155.848 338.223 157.905 338.108C159.962 337.993 162.009 338.459 163.813 339.454C165.616 340.45 167.103 341.933 168.102 343.734C170.068 347.317 172.852 350.386 176.227 352.692C179.601 354.998 183.472 356.476 187.525 357.006C191.578 357.536 195.698 357.103 199.552 355.742C203.406 354.381 206.885 352.131 209.707 349.173C212.528 346.216 214.613 342.635 215.791 338.722C216.97 334.808 217.209 330.672 216.489 326.648C215.77 322.625 214.112 318.828 211.65 315.565C209.188 312.302 205.992 309.666 202.32 307.87V307.862ZM215.04 338.702C213.574 343.442 210.744 347.645 206.903 350.786C203.063 353.927 198.382 355.867 193.446 356.365C188.509 356.862 183.535 355.894 179.146 353.582C174.756 351.27 171.144 347.716 168.762 343.364C167.703 341.425 166.116 339.826 164.184 338.753C162.253 337.68 160.056 337.178 157.851 337.303C155.645 337.429 153.52 338.178 151.723 339.463C149.926 340.748 148.53 342.517 147.698 344.564L133.918 380L17.574 334.776C14.9332 333.744 12.809 331.708 11.6668 329.113C10.5246 326.518 10.4574 323.576 11.48 320.932L52.644 215.052C53.1525 213.742 53.9141 212.546 54.8853 211.53C55.8565 210.515 57.0182 209.701 58.3041 209.136C59.59 208.57 60.9748 208.263 62.3794 208.232C63.784 208.202 65.1808 208.448 66.49 208.958L182.832 254.2L168.046 292.236C167.276 294.308 167.109 296.557 167.567 298.72C168.025 300.883 169.088 302.871 170.632 304.453C172.176 306.036 174.138 307.147 176.289 307.658C178.44 308.168 180.692 308.057 182.782 307.338C187.191 305.838 191.928 305.586 196.471 306.61C201.014 307.634 205.185 309.894 208.524 313.141C211.862 316.388 214.238 320.495 215.388 325.008C216.538 329.521 216.417 334.263 215.04 338.712V338.702Z" fill="white"/>
<path d="M302.376 128.184C302.315 128.184 302.255 128.169 302.201 128.14C302.147 128.112 302.101 128.071 302.066 128.02C302.031 127.97 302.01 127.912 302.002 127.851C301.995 127.791 302.002 127.729 302.024 127.672L302.156 127.33C302.192 127.237 302.264 127.162 302.355 127.122C302.4 127.102 302.449 127.091 302.498 127.09C302.548 127.089 302.597 127.097 302.643 127.115C302.689 127.133 302.731 127.16 302.767 127.194C302.803 127.228 302.831 127.269 302.851 127.314C302.871 127.359 302.882 127.408 302.883 127.457C302.885 127.507 302.876 127.556 302.858 127.602C302.734 127.926 302.686 128.184 302.376 128.184Z" fill="white"/>
<path d="M365.514 163.786L340.514 154.11C338.613 153.318 336.973 152.007 335.784 150.326C334.594 148.645 333.901 146.663 333.786 144.606C333.671 142.55 334.137 140.503 335.132 138.7C336.127 136.896 337.609 135.41 339.41 134.41C343.751 132.032 347.324 128.463 349.707 124.124C352.089 119.785 353.184 114.856 352.862 109.916C352.54 104.977 350.815 100.232 347.888 96.2388C344.962 92.2461 340.957 89.1717 336.343 87.377C331.73 85.5823 326.7 85.142 321.845 86.1078C316.99 87.0735 312.511 89.4053 308.936 92.8288C305.36 96.2524 302.836 100.626 301.661 105.434C300.485 110.243 300.707 115.287 302.3 119.974C303.111 122.433 303.054 125.096 302.14 127.518C302.09 127.559 302.051 127.612 302.028 127.672C300.997 130.314 298.96 132.439 296.364 133.582C293.768 134.724 290.824 134.789 288.18 133.764L249.96 118.906C249.921 118.862 249.873 118.828 249.818 118.806C249.764 118.785 249.705 118.776 249.646 118.781C249.588 118.787 249.532 118.806 249.482 118.837C249.432 118.868 249.39 118.91 249.36 118.96C249.2 119.16 249.134 119.692 239.334 144.734C239.304 144.826 239.31 144.925 239.351 145.012C239.392 145.1 239.465 145.168 239.555 145.202C239.645 145.237 239.744 145.236 239.834 145.2C239.923 145.163 239.995 145.094 240.034 145.006L249.88 119.682L287.906 134.466C290.736 135.562 293.886 135.492 296.664 134.269C299.442 133.046 301.622 130.772 302.726 127.944C302.749 127.884 302.755 127.818 302.746 127.754C302.796 127.714 302.835 127.662 302.858 127.602C303.832 125.077 303.885 122.29 303.008 119.73C301.459 115.177 301.242 110.276 302.383 105.604C303.524 100.932 305.975 96.6828 309.448 93.3561C312.922 90.0295 317.273 87.7636 321.99 86.8251C326.706 85.8866 331.593 86.3143 336.075 88.0581C340.558 89.8019 344.449 92.7893 347.291 96.6688C350.134 100.548 351.809 105.159 352.121 109.958C352.433 114.757 351.368 119.546 349.051 123.761C346.735 127.975 343.263 131.441 339.044 133.75C337.118 134.819 335.532 136.409 334.468 138.339C333.405 140.268 332.908 142.458 333.033 144.658C333.158 146.857 333.901 148.977 335.177 150.773C336.452 152.569 338.209 153.969 340.244 154.812L365.244 164.486C366.554 164.995 367.751 165.756 368.766 166.728C369.781 167.699 370.595 168.861 371.161 170.147C371.727 171.433 372.034 172.818 372.065 174.223C372.095 175.628 371.848 177.025 371.338 178.334L330.176 284.214C329.667 285.524 328.905 286.72 327.934 287.735C326.962 288.75 325.8 289.564 324.514 290.129C323.228 290.695 321.843 291.001 320.439 291.031C319.034 291.061 317.637 290.814 316.328 290.304L200.98 245.462L215.768 207.426C216.416 205.724 216.654 203.893 216.463 202.082C216.271 200.27 215.655 198.53 214.665 197.001C213.675 195.472 212.338 194.199 210.763 193.283C209.189 192.368 207.42 191.836 205.602 191.732C205.552 191.728 205.503 191.734 205.455 191.749C205.408 191.764 205.364 191.789 205.326 191.821C205.288 191.853 205.257 191.893 205.235 191.937C205.212 191.982 205.199 192.03 205.195 192.08C205.192 192.129 205.198 192.179 205.214 192.227C205.23 192.274 205.255 192.317 205.288 192.355C205.32 192.392 205.36 192.423 205.405 192.445C205.45 192.466 205.498 192.479 205.548 192.482C207.249 192.578 208.904 193.073 210.378 193.928C211.851 194.783 213.103 195.974 214.03 197.403C214.957 198.832 215.534 200.46 215.714 202.155C215.894 203.849 215.672 205.562 215.066 207.154L200.142 245.54C200.107 245.634 200.11 245.737 200.15 245.828C200.19 245.92 200.265 245.992 200.358 246.028L316.054 291C317.455 291.546 318.951 291.811 320.454 291.778C321.958 291.746 323.44 291.417 324.817 290.811C326.193 290.205 327.437 289.334 328.476 288.247C329.516 287.16 330.33 285.878 330.874 284.476L372.036 178.6C372.581 177.199 372.844 175.705 372.812 174.202C372.779 172.699 372.45 171.218 371.844 169.842C371.239 168.466 370.368 167.223 369.282 166.184C368.196 165.145 366.915 164.33 365.514 163.786Z" fill="white"/>
<path d="M162.94 144.724C166.507 141.119 171.05 138.635 176.011 137.579C180.971 136.524 186.132 136.942 190.858 138.782C190.948 138.82 191.02 138.892 191.058 138.982C191.096 139.073 191.097 139.174 191.062 139.265C191.026 139.356 190.956 139.43 190.867 139.471C190.778 139.511 190.676 139.515 190.584 139.482C185.995 137.696 180.984 137.291 176.167 138.316C171.351 139.342 166.939 141.753 163.476 145.254C163.441 145.289 163.4 145.317 163.354 145.336C163.309 145.356 163.26 145.366 163.21 145.366C163.11 145.366 163.014 145.327 162.943 145.257C162.872 145.187 162.832 145.091 162.831 144.991C162.831 144.891 162.87 144.795 162.94 144.724Z" fill="white"/>
<path d="M238.558 113.612C238.46 113.392 243.714 115.612 121.65 68.0422C120.249 67.4967 118.754 67.2327 117.25 67.2654C115.747 67.2981 114.264 67.6268 112.888 68.2327C111.512 68.8386 110.268 69.7098 109.229 70.7965C108.189 71.8833 107.374 73.1642 106.83 74.5662L97.0881 99.3662C96.305 101.276 94.997 102.926 93.3155 104.123C91.6339 105.321 89.6476 106.018 87.5864 106.133C85.5252 106.249 83.4734 105.778 81.6686 104.776C79.8637 103.774 78.3796 102.281 77.3881 100.47C75.0094 96.1291 71.4409 92.5572 67.1021 90.1744C62.7632 87.7917 57.8343 86.697 52.8947 87.0191C47.9552 87.3413 43.2102 89.0668 39.2175 91.9929C35.2249 94.919 32.1505 98.924 30.3558 103.537C28.561 108.151 28.1205 113.18 29.086 118.035C30.0515 122.89 32.3829 127.369 35.8061 130.944C39.2294 134.52 43.6022 137.044 48.4106 138.22C53.219 139.396 58.2631 139.174 62.9501 137.582C64.9049 136.915 67.0089 136.814 69.0183 137.293C71.0278 137.772 72.8605 138.81 74.3045 140.287C75.7484 141.764 76.7444 143.62 77.1772 145.64C77.61 147.66 77.4619 149.761 76.7501 151.7L65.6661 180.448C65.1212 181.85 64.858 183.345 64.8915 184.849C64.9251 186.352 65.2547 187.835 65.8615 189.211C66.4684 190.587 67.3406 191.83 68.4282 192.868C69.5158 193.907 70.7976 194.721 72.2001 195.264L155.362 227.6C155.455 227.636 155.559 227.634 155.65 227.594C155.741 227.553 155.813 227.478 155.849 227.385C155.885 227.292 155.883 227.188 155.842 227.097C155.802 227.006 155.727 226.934 155.634 226.898L72.4621 194.564C71.1526 194.056 69.9562 193.294 68.9411 192.323C67.926 191.352 67.1122 190.191 66.5461 188.905C65.98 187.619 65.6727 186.235 65.6418 184.831C65.6109 183.426 65.857 182.029 66.3661 180.72L77.4461 151.976C81.1121 142.542 71.6841 133.816 62.7081 136.874C58.1554 138.423 53.2552 138.639 48.5837 137.498C43.9123 136.357 39.6637 133.906 36.3376 130.433C33.0114 126.96 30.746 122.609 29.8077 117.893C28.8694 113.176 29.2972 108.29 31.0408 103.809C32.7844 99.327 35.7713 95.4364 39.6503 92.5942C43.5293 89.752 48.1392 88.0764 52.9379 87.7644C57.7366 87.4524 62.5246 88.517 66.739 90.833C70.9534 93.149 74.4189 96.6201 76.7281 100.838C78.1559 103.392 80.4767 105.329 83.2451 106.277C86.0134 107.225 89.0344 107.117 91.7281 105.974C93.1067 105.372 94.3521 104.502 95.3924 103.415C96.4326 102.328 97.2468 101.046 97.7881 99.6422L107.526 74.8422C108.035 73.5325 108.796 72.3359 109.767 71.3207C110.739 70.3055 111.9 69.4917 113.186 68.9257C114.472 68.3598 115.857 68.0528 117.261 68.0223C118.666 67.9918 120.063 68.2385 121.372 68.7482L237.722 113.982L225.48 145.35C225.444 145.443 225.446 145.547 225.487 145.638C225.527 145.73 225.602 145.801 225.695 145.837C225.788 145.873 225.892 145.871 225.983 145.831C226.074 145.79 226.146 145.715 226.182 145.622C239.474 111.6 238.656 113.836 238.558 113.612Z" fill="white"/>
<path d="M308.114 244.7L239.932 254.854C239.932 254.854 234.626 231.53 233.744 227.498C228.934 205.564 209.896 198.072 204.612 196.398C204.558 196.62 204.512 196.844 204.468 197.058C196.052 205.748 178.468 212.72 170.316 207.858C131.88 258.058 108.158 290.872 57.3461 338.964C49.5461 346.206 72.2921 371.092 80.1281 363.964C139.294 310.528 157.89 292.834 195.798 246.474L215.384 280.102C217.556 283.829 220.822 286.798 224.738 288.608C228.654 290.417 233.032 290.978 237.278 290.216L313.904 276.43C320.812 275.238 315.056 243.434 308.114 244.7Z" fill="#B2BEC3"/>
<path d="M337.444 140.622C336.258 140.994 325.034 144.044 324.308 144.324C326.438 142.042 328.868 140.058 331.53 138.428C336.862 135.028 336.026 132.318 329.27 135.362C328.532 135.702 321.018 138.924 318.79 139.884C317.418 140.468 313.884 141.484 313.152 140.452C311.016 137.48 312.302 128.464 309.082 127.96C306.996 127.634 306.664 133.802 305.998 137.984C305.598 140.4 302.072 142.53 299.3 142.72C299.226 142.72 300.28 142.632 289.872 143.68C287.672 150.016 288.72 161.112 292.382 166.494L299.438 165.92C314.358 164.402 318.676 163.27 330.458 161.52C343.3 159.608 342.536 157.056 334.574 157.168C331.597 157.206 328.625 156.923 325.708 156.326C326.278 156.326 331.014 154.888 336.698 153.126C343.452 151.03 343.854 148.292 335.66 149.456C332.735 149.9 329.778 150.096 326.82 150.044C327.25 149.86 334.26 146.908 339.534 144.072C345.466 140.884 344.468 138.44 337.444 140.622Z" fill="#B2BEC3"/>
<path d="M207.71 145.17C192.696 148.9 178.58 149.312 165.722 145.17C172.922 145.528 176.956 144.242 179.268 142.948C180.305 141.637 180.979 140.077 181.222 138.423C181.465 136.77 181.268 135.082 180.652 133.528C171.166 135.024 171.63 121.212 174.7 112.554L176.04 109.464C180.306 101.408 187.016 103.826 188.52 112.718C188.658 113.718 189.236 113.652 189.34 113.584C189.941 113.413 190.503 113.128 190.996 112.744C194.53 110.294 196.96 116.488 191.694 118.252C191.022 122.092 190.631 125.977 190.526 129.874C190.4 138.674 192.89 141.172 195.4 142.536C199.301 144.182 203.477 145.076 207.71 145.17Z" fill="#B2BEC3"/>
<path d="M249.714 37.7761C251.237 35.4691 251.918 32.7077 251.643 29.9571C251.367 27.2065 250.152 24.635 248.202 22.6759C246.252 20.7168 243.685 19.49 240.936 19.2021C238.187 18.9142 235.422 19.5829 233.109 21.0955C230.795 22.6081 229.073 24.8721 228.234 27.506C227.395 30.1398 227.489 32.9825 228.501 35.5549C229.513 38.1273 231.381 40.2721 233.79 41.6279C236.199 42.9837 239.002 43.4677 241.726 42.9981L243.204 50.2101C242.849 50.3541 242.558 50.6206 242.383 50.9611C242.208 51.3017 242.161 51.6937 242.25 52.0661L245.488 67.8661C245.587 68.294 245.849 68.6664 246.219 68.9036C246.588 69.1408 247.036 69.224 247.466 69.1354C247.896 69.0469 248.275 68.7936 248.521 68.4297C248.767 68.0659 248.86 67.6202 248.782 67.1881L245.546 51.3881C245.482 51.0117 245.286 50.6705 244.992 50.4263C244.699 50.182 244.328 50.0507 243.946 50.0561L242.466 42.8461C245.442 42.1469 248.037 40.3321 249.714 37.7761ZM228.648 33.4181C228.277 31.6035 228.358 29.7253 228.886 27.9499C229.413 26.1744 230.371 24.5564 231.673 23.2392C232.975 21.922 234.582 20.9463 236.351 20.3984C238.121 19.8505 239.998 19.7474 241.816 20.0982C243.635 20.449 245.339 21.2428 246.778 22.4095C248.216 23.5761 249.345 25.0795 250.064 26.7865C250.783 28.4935 251.07 30.3514 250.899 32.1957C250.729 34.0401 250.106 35.8139 249.086 37.3601C247.855 39.2131 246.103 40.6606 244.051 41.5206C242 42.3806 239.739 42.6147 237.555 42.1933C235.37 41.772 233.359 40.7141 231.774 39.1527C230.19 37.5913 229.102 35.5961 228.648 33.4181Z" fill="white"/>
<path d="M389.728 235.952L385.302 234.658C384.802 234.512 384.336 234.269 383.93 233.943C383.524 233.617 383.187 233.214 382.937 232.757C382.687 232.3 382.53 231.799 382.474 231.281C382.418 230.763 382.465 230.24 382.612 229.74L383.906 225.316C383.927 225.222 383.911 225.124 383.863 225.042C383.814 224.959 383.735 224.898 383.643 224.871C383.551 224.844 383.452 224.853 383.367 224.896C383.281 224.94 383.215 225.014 383.182 225.104L381.888 229.528C381.743 230.028 381.5 230.494 381.174 230.901C380.848 231.307 380.445 231.644 379.989 231.895C379.532 232.145 379.031 232.303 378.513 232.359C377.995 232.415 377.472 232.369 376.972 232.222L372.546 230.928C372.453 230.911 372.358 230.929 372.278 230.979C372.198 231.029 372.14 231.107 372.115 231.197C372.09 231.288 372.1 231.385 372.142 231.469C372.185 231.553 372.258 231.617 372.346 231.65L376.77 232.944C377.27 233.09 377.736 233.333 378.141 233.659C378.547 233.985 378.885 234.388 379.135 234.844C379.385 235.301 379.542 235.802 379.598 236.32C379.655 236.837 379.608 237.361 379.462 237.86L378.168 242.286C378.14 242.382 378.151 242.485 378.199 242.572C378.247 242.66 378.327 242.725 378.423 242.753C378.519 242.781 378.622 242.77 378.709 242.722C378.797 242.675 378.862 242.594 378.89 242.498L380.186 238.07C380.482 237.062 381.165 236.212 382.087 235.708C383.009 235.203 384.093 235.085 385.102 235.38C388.616 236.41 389.432 236.69 389.632 236.69C389.722 236.689 389.809 236.655 389.877 236.595C389.944 236.535 389.988 236.452 389.999 236.363C390.011 236.273 389.99 236.182 389.94 236.107C389.89 236.031 389.815 235.977 389.728 235.952ZM380.328 236.192C380.183 234.983 379.578 233.877 378.638 233.102C379.847 232.957 380.953 232.351 381.726 231.41C381.872 232.619 382.478 233.726 383.418 234.5C382.209 234.65 381.105 235.259 380.332 236.2L380.328 236.192Z" fill="white"/>
<path d="M137.518 78.778L126.074 25.578C126.064 25.5296 126.044 25.4838 126.016 25.4431C125.987 25.4024 125.951 25.3677 125.91 25.341C125.868 25.3142 125.822 25.2959 125.773 25.2872C125.724 25.2784 125.674 25.2794 125.626 25.29L107.978 29.09C106.996 29.3183 106.099 29.8206 105.39 30.5384C104.682 31.2562 104.192 32.1601 103.977 33.1453C103.761 34.1304 103.83 35.1565 104.174 36.1042C104.519 37.052 105.125 37.8827 105.922 38.5C107.555 39.7675 108.793 41.4749 109.489 43.4216C110.185 45.3683 110.311 47.4733 109.852 49.4892C109.393 51.505 108.368 53.3479 106.898 54.8012C105.427 56.2544 103.572 57.2576 101.551 57.6928C99.5299 58.128 97.4265 57.9772 95.4882 57.258C93.5499 56.5387 91.8572 55.2811 90.6091 53.6329C89.361 51.9846 88.6094 50.0143 88.4427 47.9536C88.276 45.8929 88.7011 43.8274 89.6681 42C90.1396 41.1094 90.3492 40.1034 90.2724 39.0986C90.1957 38.0938 89.8358 37.1314 89.2344 36.3228C88.633 35.5142 87.8148 34.8925 86.8746 34.5299C85.9344 34.1673 84.9107 34.0786 83.9221 34.274L67.4621 37.816C67.3648 37.8371 67.2799 37.8958 67.2259 37.9794C67.1719 38.063 67.1533 38.1646 67.1741 38.262L78.6181 91.462C78.8712 92.6306 79.516 93.6776 80.4458 94.4295C81.3756 95.1814 82.5343 95.593 83.7301 95.596C84.5501 95.596 81.1821 96.266 133.506 84.996C134.178 84.8519 134.815 84.5767 135.381 84.186C135.947 83.7953 136.429 83.2969 136.802 82.7193C137.175 82.1418 137.43 81.4963 137.553 80.82C137.676 80.1436 137.664 79.4497 137.518 78.778Z" fill="white"/>
<path d="M120.818 103.78C119.452 99.0301 118.08 93.2161 117.552 90.7081C116.87 87.4661 115.706 76.7681 113.856 79.2141C112.5 81.0141 112.056 86.6141 111.758 89.6681L98.368 92.5481C99.441 98.2462 101.099 103.818 103.316 109.176C108.856 106.535 114.752 104.717 120.818 103.78Z" fill="#B2BEC3"/>
<path d="M282.57 362.032L264.462 355.01L271.484 336.902C271.502 336.856 271.511 336.807 271.509 336.757C271.508 336.708 271.497 336.659 271.477 336.614C271.457 336.569 271.429 336.528 271.393 336.494C271.357 336.46 271.315 336.433 271.269 336.415C271.223 336.397 271.174 336.389 271.124 336.39C271.075 336.391 271.026 336.402 270.981 336.422C270.936 336.442 270.895 336.47 270.861 336.506C270.827 336.542 270.8 336.584 270.782 336.63L263.76 354.736L245.654 347.714C245.561 347.678 245.457 347.68 245.366 347.72C245.274 347.76 245.202 347.835 245.166 347.928C245.13 348.021 245.132 348.125 245.172 348.216C245.212 348.308 245.287 348.38 245.38 348.416L263.488 355.44L256.464 373.546C256.446 373.592 256.438 373.641 256.439 373.691C256.44 373.74 256.451 373.789 256.471 373.834C256.491 373.879 256.519 373.92 256.555 373.954C256.591 373.988 256.633 374.015 256.679 374.033C256.725 374.051 256.774 374.06 256.824 374.058C256.873 374.057 256.922 374.046 256.967 374.026C257.012 374.006 257.053 373.978 257.087 373.942C257.121 373.906 257.148 373.864 257.166 373.818L264.19 355.712C282.48 362.804 282.234 362.76 282.434 362.76C282.521 362.759 282.605 362.727 282.671 362.671C282.738 362.615 282.783 362.537 282.799 362.452C282.815 362.366 282.801 362.277 282.759 362.201C282.717 362.125 282.651 362.065 282.57 362.032Z" fill="white"/>
<path d="M14.218 209.032C16.164 203.502 23.818 202.51 25.754 196.92C26.057 196.145 26.1948 195.315 26.1586 194.484C26.1225 193.653 25.9131 192.838 25.544 192.093C25.1748 191.347 24.654 190.687 24.0149 190.154C23.3758 189.621 22.6325 189.228 21.8325 188.999C21.0326 188.77 20.1937 188.71 19.3695 188.824C18.5452 188.938 17.7539 189.223 17.0462 189.661C16.3384 190.098 15.7298 190.679 15.2593 191.365C14.7889 192.051 14.4669 192.828 14.314 193.646C14.2957 193.744 14.2392 193.831 14.1568 193.887C14.0745 193.944 13.9731 193.965 13.875 193.947C13.7769 193.929 13.69 193.872 13.6336 193.79C13.5771 193.708 13.5557 193.606 13.574 193.508C13.7461 192.588 14.1083 191.714 14.6373 190.942C15.1664 190.17 15.8507 189.517 16.6466 189.024C17.4424 188.532 18.3323 188.21 19.2593 188.081C20.1863 187.952 21.13 188.018 22.0302 188.274C22.9303 188.531 23.7671 188.972 24.487 189.57C25.2069 190.168 25.794 190.91 26.2109 191.748C26.6279 192.586 26.8653 193.502 26.9082 194.437C26.9511 195.372 26.7985 196.305 26.46 197.178C25.752 199.232 24.732 200.68 20.86 203.314C16.86 206.04 15.634 207.268 14.926 209.282C14.889 209.371 14.8195 209.442 14.7317 209.481C14.6438 209.52 14.5444 209.524 14.4538 209.492C14.3631 209.46 14.2882 209.394 14.2444 209.309C14.2005 209.223 14.1911 209.124 14.218 209.032Z" fill="white"/>
<path d="M10.8721 215.182C10.5701 215.522 10.4108 215.965 10.4273 216.419C10.4439 216.873 10.635 217.303 10.961 217.62C11.2869 217.936 11.7224 218.115 12.1768 218.118C12.6312 218.122 13.0694 217.95 13.4001 217.638C13.7021 217.299 13.8614 216.856 13.8449 216.401C13.8283 215.947 13.6372 215.517 13.3112 215.2C12.9853 214.884 12.5498 214.705 12.0954 214.702C11.641 214.698 11.2028 214.87 10.8721 215.182Z" fill="white"/>
<path d="M307.912 156.96C313.512 155.852 316.614 151.852 317.166 145.074C317.174 144.975 317.143 144.876 317.078 144.8C317.014 144.724 316.921 144.676 316.822 144.668C316.723 144.66 316.624 144.691 316.548 144.756C316.472 144.82 316.424 144.913 316.416 145.012C315.896 151.412 312.986 155.186 307.766 156.222C307.668 156.241 307.582 156.299 307.527 156.382C307.471 156.465 307.451 156.566 307.47 156.664C307.489 156.762 307.547 156.848 307.63 156.904C307.713 156.959 307.814 156.979 307.912 156.96Z" fill="white"/>
<path d="M332.348 249.522C330.025 247.803 327.387 246.557 324.584 245.856C320.934 245.018 316.926 246.484 312.614 247.61C311.174 245.188 309.614 244.054 308.06 244.328L240.222 254.43L234.112 227.418C232.494 220.082 228.949 213.311 223.843 207.801C218.738 202.291 212.255 198.241 205.064 196.07C205.482 194.108 208.046 181.76 208.93 178.07C238.272 179.09 267.618 176.17 296.184 169.388C297.014 169.35 298.488 168.8 299.69 166.274C314.35 164.796 318.89 163.618 330.514 161.89C332.63 161.576 340.976 160.364 340.738 158.26C340.622 157.23 338.538 156.734 334.57 156.79C332.217 156.818 329.866 156.646 327.542 156.276C329.078 155.854 331.824 155.032 336.808 153.488C340.408 152.376 342.392 151.046 342.142 149.93C341.824 148.51 338.414 148.688 335.608 149.084C333.298 149.427 330.969 149.628 328.634 149.684C331.124 148.602 335.892 146.47 339.712 144.416C342.696 142.816 344.154 141.29 343.712 140.244C343.252 139.146 340.926 139.158 337.33 140.274C336.716 140.474 329.998 142.328 325.53 143.564C327.429 141.759 329.506 140.15 331.73 138.764C334.452 137.034 335.806 135.33 335.262 134.322C334.694 133.272 332.462 133.534 329.112 135.042C328.566 135.292 318.64 139.558 318.64 139.558C316.888 140.304 313.938 140.924 313.454 140.254C311.328 137.294 312.8 128.182 309.138 127.608C308.959 127.579 308.775 127.587 308.6 127.632C308.424 127.677 308.259 127.758 308.116 127.87C306.516 129.07 306.244 134.07 305.624 137.942C305.262 140.176 301.854 142.188 299.298 142.364C299.23 142.364 299.006 142.386 298.11 142.488C297.128 140.83 295.374 138.848 293.532 139.134C278.35 141.104 209.066 149.668 195.576 142.226C193.104 140.88 190.83 138.482 190.896 130.176C192.624 129.648 201.672 126.6 203.582 120.176C204.622 116.692 203.342 112.856 199.782 108.776C201.272 109.539 202.924 109.932 204.598 109.92C215.124 109.92 221.488 96.632 214.224 89.672C211.91 87.6932 208.906 86.7118 205.87 86.9427C202.833 87.1736 200.012 88.5979 198.024 90.904C196.248 92.6514 195.06 94.9073 194.622 97.3598C194.184 99.8122 194.519 102.34 195.58 104.594C187.404 97.716 180.834 99.936 176.122 108.53C172.922 114.362 171.024 124.248 173.42 129.946C173.902 131.347 174.876 132.525 176.162 133.26C177.447 133.996 178.956 134.24 180.408 133.946C180.719 134.704 180.928 135.499 181.03 136.312C181.088 137.346 180.006 142.112 179.08 142.626C169.14 148.188 147.836 142.084 137.012 138.49L126.346 104.438C125.874 102.908 122.684 103.182 121.092 103.364C119.892 99.164 118.188 92.462 117.358 87.466C116.488 82.24 115.826 78.794 114.594 78.49C112.082 77.864 111.29 89.576 111.156 92.17C109.629 93.4902 108.683 95.3581 108.522 97.37C108.068 101.37 110.022 104.734 110.62 104.734C110.691 104.734 110.761 104.714 110.822 104.676C110.882 104.637 110.93 104.583 110.961 104.518C110.991 104.454 111.003 104.382 110.994 104.311C110.985 104.24 110.956 104.173 110.91 104.118C109.561 102.175 108.977 99.8029 109.27 97.456C109.34 96.5303 109.596 95.6282 110.023 94.8035C110.449 93.9788 111.037 93.2485 111.752 92.656C111.795 92.6228 111.831 92.5805 111.856 92.5322C111.881 92.4838 111.896 92.4305 111.898 92.376C111.898 92.272 112.418 81.74 114.156 79.442C114.288 79.266 114.392 79.214 114.414 79.22C115.258 79.42 116.176 84.94 116.614 87.59C117.43 92.482 119.068 98.99 120.334 103.46C114.511 104.402 108.849 106.152 103.51 108.66C101.379 103.441 99.7791 98.0202 98.736 92.48L98 92.628C99.0584 98.2343 100.68 103.719 102.84 109C101.466 109.732 98.852 111.226 99.32 112.712C116.92 168.734 116.628 166.606 116.82 166.806L116.888 166.854C129.769 173.446 143.902 177.229 158.354 177.952C159.46 185.268 163.23 195.044 169.872 207.818C124.4 267.164 110.848 287.824 57.094 338.68C55.34 340.28 54.906 342.814 55.83 346.028C50.676 350.074 41.318 357.31 35.03 361.506C20.668 371.094 18.994 373.668 19.14 374.842C20.014 382.004 43.906 371.042 56.058 372.042C58.9314 372.346 61.8364 372.086 64.61 371.276C67.824 370.264 70.366 367.458 72.936 364.824C75.536 365.824 78.322 366.118 80.376 364.25C128.156 321.11 156.264 296.388 195.732 247.11L215.056 280.296C217.273 284.084 220.598 287.101 224.583 288.942C228.567 290.783 233.02 291.359 237.342 290.592L313.966 276.806C315.916 276.474 316.714 274.016 317.028 272.406C322.828 271.592 336.55 269.746 345.144 269.25C362.38 268.262 365.128 266.89 365.598 265.804C368.466 259.176 342.296 256.526 332.348 249.522ZM233.376 227.578C235.576 237.678 234.258 231.282 239.564 254.936C239.583 255.019 239.629 255.093 239.696 255.147C239.762 255.2 239.845 255.229 239.93 255.23L294.31 247.136C297.384 246.618 300.18 259.092 300.762 262.512L236.268 270.898C234.626 271.108 232.963 270.742 231.56 269.863C230.158 268.984 229.103 267.647 228.576 266.078C225.206 255.998 219.4 237.754 218.358 228.816C216.654 214.216 200.158 205.366 196.604 203.616C199.575 201.873 202.309 199.755 204.738 197.312C204.846 197.202 204.848 197.072 204.906 196.8C211.959 198.936 218.316 202.913 223.32 208.323C228.324 213.733 231.796 220.38 233.376 227.578ZM335.714 149.828C340.17 149.194 341.348 149.828 341.408 150.092C341.486 150.438 340.378 151.592 336.586 152.768C334.104 153.536 326.638 155.846 325.74 155.944C324.54 155.694 323.646 155.446 323.218 155.318C323.431 153.583 323.451 151.829 323.276 150.09C327.413 150.603 331.602 150.514 335.714 149.828ZM337.556 140.982C341.2 139.848 342.844 140.098 343.022 140.524C343.186 140.924 342.336 142.138 339.356 143.742C334.324 146.446 327.628 149.292 326.756 149.662C325.556 149.649 324.36 149.529 323.182 149.304C322.975 147.931 322.64 146.579 322.182 145.268C323.088 145.018 336.732 141.236 337.556 140.982ZM299.326 143.096C302.238 142.896 305.948 140.646 306.368 138.042C306.818 135.242 307.33 128.08 309.024 128.332C311.792 128.766 310.718 137.708 312.846 140.672C313.962 142.224 318.888 140.252 318.94 140.23C318.94 140.23 328.874 135.96 329.424 135.706C332.79 134.19 334.384 134.258 334.602 134.658C334.78 134.992 334.216 136.274 331.328 138.11C328.673 139.724 326.247 141.687 324.114 143.946L321.914 144.546C321.588 143.682 321.2 142.788 320.746 141.856C320.702 141.766 320.625 141.698 320.53 141.665C320.436 141.633 320.333 141.639 320.243 141.683C320.153 141.727 320.085 141.804 320.052 141.899C320.02 141.993 320.026 142.096 320.07 142.186C322.534 146.877 323.267 152.287 322.138 157.464C322.127 157.56 322.152 157.656 322.21 157.733C322.267 157.811 322.352 157.863 322.447 157.879C322.542 157.896 322.64 157.875 322.72 157.822C322.8 157.768 322.857 157.686 322.878 157.592C322.968 157.078 323.046 156.572 323.114 156.07C326.845 157.098 330.703 157.592 334.572 157.536C338.972 157.476 339.972 158.15 339.982 158.336C339.992 158.522 339.202 159.418 335.136 160.28C333.472 160.628 331.876 160.918 330.396 161.138C316.228 163.244 312.834 164.442 292.566 166.096C289.202 160.948 288.044 150.394 290.144 144.024C302.284 142.8 298.65 143.126 299.326 143.096ZM179.45 143.276C180.788 142.528 181.728 137.63 181.784 136.428C184.116 133.782 184.914 132.91 185.212 132.554C185.59 132.104 185.402 131.692 184.916 131.822C184.566 131.916 183.954 132.21 182.812 132.59C179.938 133.54 177.102 133.74 175.176 131.42C172.096 127.712 172.814 118.996 175.046 112.704L176.372 109.64C180.45 101.94 186.698 104.208 188.146 112.77C188.294 113.848 188.998 114.138 189.462 113.942C190.778 113.642 191.45 112.524 192.642 112.556C194.76 112.616 195.496 116.582 191.574 117.896L191.528 117.914C191.475 117.941 191.429 117.98 191.394 118.029C191.36 118.077 191.337 118.133 191.328 118.192C190.654 122.051 190.262 125.954 190.154 129.87C190.028 138.822 192.646 141.47 195.222 142.87C198.44 144.303 201.893 145.139 205.41 145.336C191.61 148.488 179.482 148.578 168.518 145.61C172.299 145.743 176.053 144.941 179.45 143.276ZM159.05 177.532C158.31 172.554 158.956 167.468 160.916 162.832C160.936 162.773 160.941 162.71 160.931 162.649C160.921 162.587 160.895 162.529 160.857 162.48C160.819 162.431 160.769 162.393 160.712 162.368C160.654 162.343 160.592 162.333 160.53 162.338C160.146 162.408 160.664 161.472 154.308 176.906C141.431 175.751 128.895 172.137 117.38 166.258L100.038 112.484C99.954 112.21 100.134 111.884 100.452 111.544C103.358 108.464 115.302 104.866 120.786 104.154C120.986 104.172 125.276 103.526 125.628 104.662C136.688 140.402 136.26 138.902 136.516 139.098C137.138 139.458 153.546 144.946 165.652 145.542C179.468 149.978 193.774 149.012 207.742 145.542C229.56 147.276 269.644 142.918 291.5 140.128C286.066 145.38 288.1 165.728 294.45 169C269.482 174.746 243.941 177.637 218.32 177.616C211.634 167.866 211.836 168.088 211.668 167.948L211.646 167.93C211.587 167.891 211.518 167.87 211.448 167.867C211.377 167.865 211.307 167.883 211.246 167.918L211.22 167.934C209.62 169.186 204.606 194.582 204.114 196.866C196.314 204.866 179.026 212.466 170.594 207.574C163.866 194.65 160.09 184.818 159.052 177.532H159.05ZM79.876 363.69C72.362 370.518 50.166 346 57.6 339.232C60.236 336.736 62.8007 334.281 65.294 331.868C64.25 339.168 80.356 357.37 87.388 356.896C84.9467 359.111 82.4427 361.375 79.876 363.69ZM93.44 351.426C91.936 352.788 90.44 354.192 88.862 355.568C86.816 357.368 82.34 354.888 77.942 350.908C116.314 314.94 152.828 277.04 187.342 237.354L191.496 251.176C156.6 293.528 137.494 311.586 93.44 351.426ZM300 278.552L237.2 289.85C233.03 290.589 228.734 290.034 224.89 288.258C221.046 286.481 217.838 283.57 215.698 279.916L185.12 227.4C185.073 227.321 184.999 227.262 184.912 227.234C184.825 227.206 184.731 227.211 184.647 227.247C184.563 227.284 184.495 227.35 184.456 227.433C184.417 227.516 184.41 227.61 184.436 227.698L187.082 236.498C152.482 276.311 115.869 314.328 77.386 350.4C76.0978 349.192 74.8709 347.919 73.71 346.588C68.346 340.442 64.18 332.904 66.73 330.484C84.4672 313.732 101.208 295.956 116.866 277.246C132.208 259.06 146.438 239.646 170.416 208.342C177.27 212.11 188.892 208.058 195.816 204.084C197.866 205.046 215.852 213.884 217.604 228.904C218.654 237.904 224.478 256.21 227.856 266.318C228.438 268.052 229.604 269.531 231.154 270.503C232.704 271.475 234.543 271.878 236.358 271.646L300.884 263.256C301.485 266.595 301.765 269.984 301.72 273.376C301.616 276.484 301 278.37 300 278.552ZM313.834 276.062L301.458 278.29C304.458 273.404 300.326 250.586 295.792 246.914L308.166 245.072C314.572 243.898 320.2 275 313.84 276.062H313.834Z" fill="white"/>
<path d="M183.058 158.89C183.463 158.855 183.849 158.7 184.166 158.446C184.484 158.192 184.718 157.849 184.841 157.461C184.963 157.073 184.968 156.657 184.854 156.267C184.74 155.876 184.513 155.528 184.202 155.267C183.89 155.005 183.508 154.842 183.104 154.798C182.699 154.754 182.291 154.831 181.93 155.018C181.57 155.206 181.273 155.497 181.077 155.854C180.882 156.21 180.796 156.617 180.832 157.022C180.855 157.291 180.931 157.553 181.056 157.792C181.18 158.032 181.351 158.245 181.557 158.418C181.764 158.592 182.003 158.723 182.261 158.804C182.518 158.885 182.789 158.914 183.058 158.89Z" fill="white"/>
<path d="M179.71 172.746C180.115 172.711 180.5 172.556 180.816 172.302C181.133 172.047 181.367 171.705 181.489 171.317C181.611 170.93 181.616 170.515 181.502 170.125C181.389 169.735 181.162 169.388 180.851 169.127C180.54 168.865 180.158 168.703 179.754 168.658C179.35 168.614 178.943 168.69 178.582 168.878C178.222 169.065 177.925 169.355 177.73 169.711C177.534 170.067 177.449 170.473 177.484 170.878C177.507 171.147 177.583 171.409 177.708 171.648C177.832 171.888 178.003 172.1 178.209 172.274C178.416 172.448 178.655 172.579 178.913 172.66C179.17 172.741 179.441 172.77 179.71 172.746Z" fill="white"/>
<path d="M179.71 188.2C180.115 188.165 180.501 188.01 180.818 187.756C181.136 187.501 181.37 187.158 181.493 186.771C181.615 186.383 181.62 185.967 181.506 185.577C181.392 185.186 181.165 184.838 180.854 184.577C180.542 184.315 180.16 184.152 179.756 184.108C179.351 184.064 178.943 184.14 178.582 184.328C178.222 184.516 177.925 184.807 177.729 185.163C177.534 185.52 177.448 185.927 177.484 186.332C177.507 186.601 177.583 186.863 177.708 187.102C177.832 187.342 178.003 187.554 178.209 187.728C178.416 187.901 178.655 188.032 178.913 188.113C179.17 188.194 179.441 188.224 179.71 188.2Z" fill="white"/>
</svg>
