<svg width="400" height="401" viewBox="0 0 400 401" fill="none" xmlns="http://www.w3.org/2000/svg">
<path d="M85.38 307.802C80.0721 303.307 74.1699 299.565 67.84 296.682C63.84 300.902 57.66 308.242 55.28 310.782C59.08 308.262 93.9 333.242 95.28 339.462C96.16 327.682 79.76 317.982 85.38 307.802Z" fill="#FFE7EA"/>
<path d="M206.7 319.662C204.7 314.882 161.92 307.182 160.84 311.342C161.74 305.942 163.5 303.662 163.92 294.322C170.555 293.75 177.235 294.025 183.8 295.142C183.12 307.362 204.72 307.962 206.7 319.662Z" fill="#FFE7EA"/>
<path d="M366.98 246.081C367.252 248.483 366.929 250.914 366.04 253.161C363.1 251.161 343.54 238.902 343.54 238.902L352.34 237.042C359.36 241.242 364.74 244.481 366.98 246.081Z" fill="#FFE7EA"/>
<path d="M315.56 197.662L310.2 198.802L314.84 220.682C312.84 219.402 311.3 218.342 310.26 217.642C308.68 200.702 303.6 175.082 299.1 156.082C302.012 154.497 304.663 152.473 306.96 150.082C311.08 167.222 312 173.822 315.56 197.662Z" fill="#FFE7EA"/>
<path d="M352.22 268.541C304.8 241.821 299.1 238.361 294.22 232.921C289.34 227.481 287.84 219.041 280.22 184.641C279.157 196.395 276.686 207.978 272.86 219.141C272.129 220.536 271.494 221.98 270.96 223.461C275.32 245.681 279.36 262.681 283.3 279.761C278.92 284.501 264.38 288.761 255.68 286.361C241.54 231.441 240.74 226.501 241.36 219.101C241.88 212.801 244.6 205.761 262.22 167.361C261.8 166.401 261.14 164.661 260.78 163.681C270.78 166.521 289.06 161.821 299.14 156.021C303.64 175.021 308.7 200.641 310.3 217.581L314.88 220.621L319.82 243.941L343.6 238.881C353.84 245.361 363.12 251.221 366.08 253.141C364 258.941 358 267.201 352.22 268.541Z" fill="#FFE7EA"/>
<path d="M213.26 185.062C219.56 188.322 222.6 190.802 223.12 193.062C223.233 193.709 223.162 194.374 222.914 194.983C222.666 195.591 222.253 196.117 221.72 196.502C221.94 196.941 222.02 197.438 221.948 197.925C221.877 198.411 221.657 198.864 221.32 199.222C221.08 199.581 220.731 199.854 220.323 199.998C219.916 200.142 219.473 200.15 219.06 200.022C217.96 203.182 216.14 203.262 214.46 202.542C213.32 205.642 210.3 204.542 208.64 204.142C208.74 203.302 208.8 202.382 208.84 201.362C208.98 198.302 205.64 197.562 205.06 200.482C204.74 202.142 204.9 201.982 204.68 201.982C204.68 201.622 204.8 201.222 204.86 200.822C205.3 197.682 201.8 196.822 201 199.702L200.48 201.702C200.66 201.002 200.82 200.342 200.94 199.862C201.7 196.682 198.08 195.562 197.08 198.542C197.08 198.742 196.94 198.962 196.86 199.182C196.848 199.115 196.848 199.048 196.86 198.982C197.84 195.962 194.5 194.702 193.14 197.442C192.78 198.162 192.24 199.442 191.74 200.742C190.82 200.602 189.04 200.362 187.54 200.222C190.54 194.962 190.36 186.222 187.88 181.022C192.62 181.702 193.6 181.922 195 181.142C198.28 179.282 199.6 176.962 201.44 177.482L203.76 178.202C202.04 180.202 200.36 182.642 198.04 186.042C196.4 188.442 200.9 190.042 206.4 183.722C208.537 184.741 210.897 185.202 213.26 185.062Z" fill="#FFE7EA"/>
<path d="M349.36 157.702C349.265 157.701 349.172 157.674 349.092 157.624C349.011 157.574 348.945 157.503 348.902 157.419C348.859 157.334 348.839 157.24 348.846 157.145C348.853 157.05 348.885 156.959 348.94 156.882L389.28 99.2616L318.38 49.6216L284.54 97.9616C284.501 98.0181 284.451 98.0662 284.393 98.1033C284.335 98.1404 284.27 98.1657 284.202 98.1778C284.134 98.1899 284.065 98.1885 283.997 98.1737C283.93 98.1589 283.867 98.131 283.81 98.0916C283.754 98.0522 283.705 98.0021 283.668 97.9441C283.631 97.8861 283.606 97.8213 283.594 97.7535C283.582 97.6857 283.583 97.6163 283.598 97.549C283.613 97.4818 283.641 97.4181 283.68 97.3616L317.82 48.6816C317.901 48.5665 318.023 48.4875 318.162 48.4613C318.3 48.4352 318.443 48.464 318.56 48.5416L390.3 98.6816C390.358 98.7214 390.407 98.7725 390.444 98.8317C390.481 98.8908 390.506 98.957 390.518 99.0261C390.529 99.0952 390.526 99.1658 390.509 99.2338C390.492 99.3018 390.462 99.3656 390.42 99.4216C346.84 161.782 349.76 157.702 349.36 157.702Z" fill="#1890ff"/>
<path d="M332 181.382L316.92 202.942C316.92 203.248 317 203.568 317.16 203.902L332.62 181.902C332.654 181.861 332.68 181.814 332.696 181.763C332.712 181.713 332.718 181.659 332.713 181.606C332.708 181.553 332.693 181.502 332.669 181.455C332.644 181.408 332.611 181.366 332.57 181.332C332.529 181.298 332.482 181.272 332.432 181.256C332.381 181.24 332.328 181.234 332.275 181.239C332.222 181.243 332.17 181.258 332.123 181.283C332.076 181.307 332.034 181.341 332 181.382Z" fill="#1890ff"/>
<path d="M278.38 259.082C278.282 259.083 278.185 259.058 278.101 259.007C278.017 258.956 277.949 258.882 277.905 258.794C277.861 258.706 277.843 258.608 277.852 258.51C277.862 258.412 277.9 258.319 277.96 258.242L295 233.902C295.08 233.788 295.201 233.71 295.338 233.685C295.475 233.661 295.616 233.692 295.73 233.772C295.844 233.851 295.922 233.973 295.946 234.11C295.971 234.247 295.94 234.388 295.86 234.502C277.68 260.422 278.8 259.082 278.38 259.082Z" fill="#1890ff"/>
<path d="M212.62 352.981C212.36 352.981 216.62 356.022 117.94 286.822C117.826 286.742 117.748 286.62 117.724 286.483C117.7 286.347 117.731 286.206 117.81 286.091C117.89 285.977 118.011 285.9 118.148 285.875C118.285 285.851 118.426 285.882 118.54 285.961L212.54 351.741L258 286.681C258.039 286.625 258.09 286.577 258.148 286.54C258.206 286.503 258.27 286.477 258.338 286.465C258.406 286.453 258.475 286.455 258.543 286.469C258.61 286.484 258.674 286.512 258.73 286.551C258.787 286.591 258.835 286.641 258.872 286.699C258.909 286.757 258.934 286.822 258.946 286.89C258.958 286.957 258.957 287.027 258.942 287.094C258.927 287.161 258.899 287.225 258.86 287.282C209.78 357.542 213.04 352.981 212.62 352.981Z" fill="#1890ff"/>
<path d="M88.9801 266.422C88.7201 266.422 92.0601 268.962 9.70006 211.022C9.64248 210.982 9.59354 210.931 9.55616 210.872C9.51878 210.812 9.49374 210.746 9.48254 210.677C9.47133 210.608 9.47419 210.538 9.49095 210.47C9.50771 210.402 9.53802 210.338 9.58006 210.282C63.4601 133.222 59.8201 138.382 60.1401 138.282C60.4601 138.182 59.7601 137.822 71.0601 145.722C71.1165 145.761 71.1647 145.811 71.2018 145.869C71.2389 145.927 71.2642 145.992 71.2763 146.06C71.2883 146.128 71.2869 146.197 71.2721 146.264C71.2573 146.332 71.2295 146.395 71.1901 146.452C71.1507 146.508 71.1005 146.556 71.0425 146.593C70.9845 146.631 70.9198 146.656 70.852 146.668C70.7842 146.68 70.7147 146.679 70.6475 146.664C70.5802 146.649 70.5165 146.621 70.4601 146.582L60.4601 139.522L10.7201 210.462L89.2801 265.462C89.3648 265.53 89.4271 265.622 89.4588 265.725C89.4905 265.829 89.4901 265.94 89.4577 266.044C89.4253 266.148 89.3624 266.239 89.2772 266.307C89.192 266.374 89.0884 266.414 88.9801 266.422Z" fill="#1890ff"/>
<path d="M190.82 230.922L184.4 226.422C184.286 226.342 184.208 226.22 184.184 226.084C184.16 225.947 184.191 225.806 184.27 225.692C184.35 225.578 184.471 225.5 184.608 225.475C184.745 225.451 184.886 225.482 185 225.562L191 229.762L209 203.962C209.08 203.848 209.201 203.77 209.338 203.745C209.475 203.721 209.616 203.752 209.73 203.832C209.844 203.911 209.922 204.033 209.946 204.17C209.971 204.307 209.94 204.448 209.86 204.562L191.5 230.782C191.424 230.885 191.312 230.956 191.187 230.982C191.061 231.008 190.931 230.986 190.82 230.922Z" fill="#1890ff"/>
<path d="M229.42 76.3016L226.8 61.4616C226.791 61.3935 226.767 61.3282 226.731 61.2695C226.695 61.2109 226.648 61.1603 226.592 61.1209C226.535 61.0815 226.471 61.0541 226.404 61.0405C226.337 61.0268 226.267 61.0272 226.2 61.0416L211.36 63.6416C211.292 63.6534 211.226 63.6786 211.168 63.7156C211.109 63.7527 211.059 63.8009 211.019 63.8576C210.979 63.9142 210.95 63.9782 210.935 64.0458C210.92 64.1134 210.918 64.1833 210.93 64.2516C210.942 64.3199 210.967 64.3852 211.004 64.4438C211.041 64.5023 211.089 64.553 211.146 64.593C211.203 64.6329 211.267 64.6613 211.334 64.6765C211.402 64.6917 211.472 64.6934 211.54 64.6816L225.14 62.2816L202.62 94.4416L183.1 80.7816C182.988 80.7031 182.85 80.6716 182.715 80.6941C182.581 80.7165 182.46 80.7911 182.38 80.9016L161.24 111.102C161.19 111.156 161.153 111.22 161.129 111.29C161.106 111.36 161.098 111.434 161.106 111.507C161.114 111.58 161.137 111.651 161.174 111.715C161.211 111.778 161.261 111.833 161.321 111.876C161.381 111.919 161.449 111.949 161.521 111.963C161.594 111.977 161.668 111.976 161.74 111.96C161.812 111.943 161.879 111.912 161.938 111.867C161.996 111.823 162.045 111.766 162.08 111.702L182.94 81.9416L202.44 95.6016C202.556 95.6766 202.696 95.7059 202.833 95.6837C202.97 95.6615 203.093 95.5896 203.18 95.4816L226 62.8816L228.38 76.4816C228.392 76.5499 228.417 76.6152 228.454 76.6738C228.491 76.7323 228.539 76.783 228.596 76.823C228.653 76.8629 228.717 76.8913 228.784 76.9065C228.852 76.9217 228.922 76.9234 228.99 76.9116C229.058 76.8998 229.124 76.8746 229.182 76.8376C229.241 76.8005 229.291 76.7523 229.331 76.6957C229.371 76.639 229.4 76.5751 229.415 76.5075C229.43 76.4398 229.432 76.3699 229.42 76.3016Z" fill="#1890ff"/>
<path d="M88.34 96.3216C88.1902 95.4583 87.8715 94.6329 87.4022 93.893C86.9328 93.153 86.3221 92.5129 85.6049 92.0094C84.8878 91.5059 84.0783 91.1489 83.2229 90.9588C82.3675 90.7687 81.483 90.7493 80.62 90.9016L77.32 91.4816L75.32 80.4016L84.74 78.6816C84.878 78.6578 85.0007 78.5801 85.0814 78.4657C85.162 78.3513 85.1939 78.2095 85.17 78.0716C85.1462 77.9337 85.0685 77.8109 84.9541 77.7303C84.8397 77.6497 84.698 77.6178 84.56 77.6416L75.18 79.3016L74.48 75.3016C74.474 75.2296 74.4529 75.1597 74.4183 75.0963C74.3837 75.0329 74.3363 74.9774 74.279 74.9333C74.2218 74.8893 74.156 74.8576 74.0858 74.8404C74.0156 74.8232 73.9427 74.8208 73.8715 74.8334C73.8004 74.8459 73.7326 74.8731 73.6726 74.9133C73.6126 74.9535 73.5616 75.0058 73.5229 75.0668C73.4842 75.1278 73.4586 75.1962 73.4478 75.2676C73.4369 75.339 73.4411 75.4119 73.46 75.4816L74.16 79.4816L70.88 80.0616C70.0199 80.2113 69.1976 80.529 68.4602 80.9965C67.7229 81.464 67.0848 82.0721 66.5824 82.7862C66.08 83.5003 65.7232 84.3063 65.5324 85.1583C65.3415 86.0102 65.3203 86.8915 65.47 87.7516C65.6198 88.6118 65.9374 89.434 66.4049 90.1714C66.8724 90.9088 67.4805 91.5469 68.1946 92.0493C68.9087 92.5516 69.7147 92.9084 70.5667 93.0993C71.4187 93.2902 72.2999 93.3113 73.16 93.1616L76.48 92.6816L78.48 103.762L69.12 105.422C69.0481 105.428 68.9781 105.449 68.9147 105.483C68.8513 105.518 68.7958 105.565 68.7518 105.623C68.7077 105.68 68.6761 105.746 68.6588 105.816C68.6416 105.886 68.6392 105.959 68.6518 106.03C68.6643 106.101 68.6916 106.169 68.7318 106.229C68.7719 106.289 68.8242 106.34 68.8852 106.379C68.9462 106.418 69.0146 106.443 69.086 106.454C69.1574 106.465 69.2303 106.461 69.3 106.442L78.66 104.802L79.38 108.802C79.414 108.927 79.4937 109.035 79.6032 109.104C79.7128 109.174 79.8444 109.2 79.9723 109.178C80.1001 109.155 80.2148 109.085 80.294 108.983C80.3732 108.88 80.411 108.751 80.4 108.622L79.7 104.622L82.98 104.042C84.7077 103.715 86.2379 102.723 87.2407 101.279C88.2434 99.8348 88.6382 98.0543 88.34 96.3216ZM72.98 92.3216C71.8898 92.5065 70.7692 92.3655 69.7586 91.9165C68.7481 91.4675 67.8924 90.7303 67.2989 89.7972C66.7053 88.8642 66.4002 87.7768 66.4218 86.6711C66.4433 85.5655 66.7906 84.4908 67.42 83.5816C69.06 81.2616 71.22 81.2416 74.34 80.6816L76.34 91.7416L72.98 92.3216ZM82.74 103.102L79.46 103.682L77.46 92.6016C80.54 92.0816 82.64 91.3416 84.96 92.9616C85.83 93.6112 86.4941 94.498 86.8724 95.5157C87.2507 96.5333 87.3273 97.6386 87.0929 98.6987C86.8585 99.7588 86.323 100.729 85.5509 101.492C84.7788 102.255 83.8028 102.779 82.74 103.002V103.102Z" fill="#1890ff"/>
<path d="M221.44 252.901L213.56 254.301L212.16 246.422C212.151 246.374 212.132 246.329 212.106 246.289C212.079 246.249 212.045 246.214 212.005 246.187C211.965 246.161 211.92 246.142 211.873 246.132C211.826 246.123 211.777 246.122 211.73 246.131C211.683 246.141 211.638 246.159 211.598 246.186C211.557 246.212 211.523 246.247 211.496 246.286C211.469 246.326 211.45 246.371 211.441 246.418C211.431 246.466 211.431 246.514 211.44 246.562L212.82 254.422L204.94 255.821C204.855 255.85 204.783 255.908 204.736 255.985C204.69 256.063 204.672 256.154 204.687 256.242C204.701 256.331 204.746 256.412 204.815 256.47C204.883 256.529 204.97 256.561 205.06 256.562L212.94 255.161L214.34 263.041C214.369 263.127 214.427 263.199 214.504 263.245C214.581 263.292 214.672 263.309 214.761 263.295C214.85 263.281 214.93 263.235 214.989 263.167C215.047 263.098 215.08 263.011 215.08 262.921L213.68 255.041L221.56 253.642C221.645 253.613 221.718 253.555 221.764 253.478C221.81 253.4 221.828 253.309 221.814 253.221C221.799 253.132 221.754 253.051 221.685 252.993C221.617 252.934 221.53 252.902 221.44 252.901Z" fill="#1890ff"/>
<path d="M330.86 282.982L319.82 284.982L317.82 273.962C317.814 273.89 317.793 273.82 317.758 273.756C317.724 273.693 317.676 273.637 317.619 273.593C317.562 273.549 317.496 273.518 317.426 273.5C317.356 273.483 317.283 273.481 317.212 273.493C317.14 273.506 317.073 273.533 317.013 273.573C316.953 273.613 316.902 273.666 316.863 273.727C316.824 273.788 316.799 273.856 316.788 273.927C316.777 273.999 316.781 274.072 316.8 274.142L318.8 285.162L307.78 287.162C307.708 287.168 307.638 287.189 307.575 287.223C307.511 287.258 307.456 287.305 307.412 287.363C307.368 287.42 307.336 287.486 307.319 287.556C307.302 287.626 307.299 287.699 307.312 287.77C307.324 287.841 307.352 287.909 307.392 287.969C307.432 288.029 307.484 288.08 307.545 288.119C307.606 288.157 307.675 288.183 307.746 288.194C307.817 288.205 307.89 288.2 307.96 288.182L318.98 286.182L320.98 297.202C321.004 297.339 321.082 297.462 321.196 297.543C321.31 297.624 321.452 297.655 321.59 297.632C321.728 297.608 321.851 297.53 321.931 297.416C322.012 297.301 322.044 297.159 322.02 297.022L320.02 286.002L331.06 284.002C331.192 283.971 331.306 283.891 331.379 283.778C331.453 283.665 331.479 283.527 331.453 283.395C331.427 283.262 331.351 283.145 331.24 283.068C331.13 282.991 330.993 282.96 330.86 282.982Z" fill="#1890ff"/>
<path d="M126.1 336.682C124.938 336.662 123.807 336.299 122.85 335.639C121.893 334.979 121.152 334.051 120.721 332.971C120.29 331.891 120.187 330.708 120.426 329.57C120.665 328.433 121.234 327.391 122.063 326.576C122.892 325.76 123.944 325.208 125.085 324.989C126.227 324.769 127.408 324.892 128.48 325.341C129.553 325.79 130.468 326.546 131.112 327.514C131.756 328.482 132.1 329.619 132.1 330.782C132.1 331.565 131.944 332.34 131.642 333.063C131.339 333.785 130.895 334.44 130.337 334.989C129.778 335.538 129.116 335.971 128.389 336.262C127.661 336.552 126.883 336.695 126.1 336.682ZM126.1 325.942C125.143 325.942 124.207 326.225 123.411 326.757C122.615 327.289 121.995 328.045 121.628 328.929C121.262 329.814 121.166 330.787 121.353 331.726C121.54 332.665 122.001 333.527 122.678 334.204C123.355 334.881 124.217 335.342 125.156 335.529C126.095 335.715 127.068 335.619 127.952 335.253C128.837 334.887 129.593 334.266 130.124 333.471C130.656 332.675 130.94 331.739 130.94 330.782C130.914 329.514 130.393 328.306 129.489 327.416C128.585 326.527 127.368 326.027 126.1 326.022V325.942Z" fill="#1890ff"/>
<path d="M344.64 153.002C346.12 153.002 347.06 156.402 345.22 156.342C343.38 156.282 343.08 153.002 344.64 153.002Z" fill="#1890ff"/>
<path d="M236.16 182.562C236.6 183.862 233.82 186.022 233.52 184.562C233.22 183.102 235.72 181.262 236.16 182.562Z" fill="#1890ff"/>
<path d="M179.76 198.982C180.54 197.522 183.76 197.682 183.04 199.142C182.32 200.602 178.84 200.682 179.76 198.982Z" fill="#1890ff"/>
<path d="M101.2 253.862C94.8001 232.202 95.6201 231.022 94.5601 231.162L41.0601 237.862C40.924 237.881 40.8005 237.953 40.7151 238.06C40.6296 238.168 40.5884 238.305 40.6001 238.442L46.1201 282.682C46.14 282.818 46.2111 282.941 46.3189 283.027C46.4266 283.112 46.563 283.153 46.7001 283.142C78.2601 279.142 76.3001 279.482 76.5001 279.282C102.66 252.782 101.32 254.322 101.2 253.862ZM75.8801 278.362L47.1001 281.982L41.7001 238.842L49.0201 237.922L88.5401 265.582L75.8801 278.362Z" fill="#1890ff"/>
<path d="M59.52 197.282C61 196.582 61 199.862 59.78 200.242C58.56 200.622 58.58 197.722 59.52 197.282Z" fill="#1890ff"/>
<path d="M352 181.442L353.36 187.782L359.22 186.542L357.62 179.062C357.324 177.647 356.529 176.387 355.379 175.513C354.229 174.639 352.802 174.208 351.36 174.302C351.861 176.647 352.076 179.044 352 181.442Z" fill="#1890ff"/>
<path d="M328.2 193.102L334.06 191.862L333.14 187.462C333.14 187.462 331.88 179.262 331.7 178.422C330.877 178.532 330.086 178.812 329.377 179.244C328.668 179.676 328.057 180.251 327.581 180.931C327.105 181.612 326.776 182.383 326.614 183.198C326.452 184.012 326.461 184.851 326.64 185.662L328.2 193.102Z" fill="#1890ff"/>
<path d="M57.1401 234.162L63.1401 233.422L62.3801 227.222C62.3801 227.222 62.3801 220.302 62.3801 220.082C60.5476 220.34 58.8907 221.31 57.7678 222.781C56.6449 224.252 56.1464 226.106 56.3801 227.942L57.1401 234.162Z" fill="#1890ff"/>
<path d="M82.2601 231.022L88.2601 230.282L87.5001 224.102C87.2848 222.367 86.4287 220.777 85.1001 219.642C83.592 220.05 82.0631 220.377 80.5201 220.622C81.4683 224.017 82.0516 227.503 82.2601 231.022Z" fill="#1890ff"/>
<path d="M59.52 197.282C61 196.582 61 199.862 59.78 200.242C58.56 200.622 58.58 197.722 59.52 197.282Z" fill="#1890ff"/>
<path d="M179.76 198.982C180.54 197.522 183.76 197.682 183.04 199.142C182.32 200.602 178.84 200.682 179.76 198.982Z" fill="#1890ff"/>
<path d="M233.52 184.462C233.82 186.022 236.62 183.862 236.16 182.462C235.7 181.062 233.16 182.682 233.52 184.462Z" fill="#1890ff"/>
<path d="M344.64 153.002C346.12 153.002 347.04 156.402 345.22 156.342C343.4 156.282 343.08 153.002 344.64 153.002Z" fill="#1890ff"/>
<path d="M377.16 252.682C374.022 251.383 370.802 250.294 367.52 249.422C367.681 248.294 367.681 247.149 367.52 246.022C367.499 245.887 367.427 245.766 367.32 245.682C364.9 243.962 358.06 239.902 352.64 236.622C352.581 236.586 352.516 236.563 352.447 236.552C352.379 236.542 352.31 236.546 352.243 236.562C352.176 236.579 352.113 236.609 352.058 236.65C352.002 236.691 351.956 236.742 351.92 236.802C351.885 236.861 351.861 236.926 351.851 236.994C351.841 237.062 351.844 237.132 351.861 237.199C351.878 237.266 351.907 237.329 351.948 237.384C351.989 237.439 352.041 237.486 352.1 237.522C356.86 240.382 364.1 244.702 366.52 246.402C366.714 248.429 366.476 250.474 365.82 252.402C362.86 250.502 343.82 238.402 343.82 238.402C343.762 238.365 343.698 238.34 343.63 238.328C343.563 238.316 343.494 238.318 343.427 238.332C343.36 238.347 343.297 238.375 343.241 238.414C343.185 238.454 343.137 238.504 343.1 238.562C343.063 238.619 343.038 238.684 343.026 238.751C343.015 238.819 343.016 238.888 343.031 238.955C343.046 239.022 343.074 239.085 343.113 239.141C343.152 239.197 343.202 239.245 343.26 239.282C343.26 239.282 362.62 251.522 365.42 253.282C362.86 260.082 356.58 266.822 352.28 267.882C304.76 241.102 299.34 237.782 294.56 232.462C289.78 227.142 288.02 217.582 280.68 184.462C280.654 184.352 280.593 184.254 280.507 184.181C280.42 184.109 280.313 184.067 280.2 184.062C276.2 183.822 275.16 182.322 274.78 183.282C274.732 183.409 274.734 183.55 274.786 183.677C274.838 183.803 274.936 183.905 275.06 183.962C276.512 184.546 278.042 184.916 279.6 185.062C278.492 196.551 276.056 207.873 272.34 218.802C271.572 220.227 270.904 221.704 270.34 223.222C269.9 224.502 282.34 278.242 282.6 279.542C278.6 283.742 264.6 288.222 255.98 285.882C242.16 232.162 241.16 226.522 241.76 219.082C242.3 212.682 245.42 204.962 262.6 167.542C262.74 167.222 262.6 167.382 261.52 164.382C264.702 164.992 267.953 165.153 271.18 164.862C273.18 173.502 273.4 175.002 277.18 174.862C277.248 174.856 277.315 174.838 277.376 174.807C277.437 174.776 277.492 174.733 277.537 174.681C277.581 174.629 277.615 174.569 277.636 174.504C277.657 174.439 277.666 174.37 277.66 174.302C277.658 174.234 277.641 174.168 277.613 174.107C277.584 174.046 277.543 173.991 277.493 173.946C277.442 173.901 277.383 173.867 277.319 173.846C277.255 173.824 277.187 173.816 277.12 173.822C274.42 173.962 274.34 173.682 272.24 164.842C281.505 163.931 290.501 161.213 298.72 156.842C302.72 174.222 308.06 200.302 309.72 217.662C309.72 217.962 309.58 217.882 314.52 221.102C314.637 221.178 314.779 221.206 314.916 221.178C315.053 221.15 315.173 221.068 315.25 220.952C315.327 220.835 315.354 220.692 315.326 220.555C315.298 220.419 315.217 220.298 315.1 220.222C313.24 219.022 311.76 218.022 310.72 217.322C309.04 199.802 303.74 173.622 299.66 156.302C302.211 154.867 304.558 153.098 306.64 151.042C308.28 157.982 309.88 165.342 310.92 171.542C315.38 198.162 314.58 198.222 315.52 198.222C315.596 198.222 315.671 198.207 315.739 198.176C315.808 198.145 315.87 198.099 315.919 198.042C315.969 197.985 316.005 197.918 316.026 197.845C316.047 197.773 316.052 197.696 316.04 197.622C311.8 169.622 311.06 163.202 302.8 131.382C311.16 132.522 313 133.542 315.46 135.382C317.92 137.222 318.7 140.642 324.86 167.542C325.04 169.202 326.86 169.682 328.64 169.542C327.66 171.242 325.9 173.542 325.9 174.962C325.994 176.917 326.632 178.808 327.74 180.422C327.812 180.541 327.928 180.627 328.063 180.661C328.198 180.694 328.341 180.673 328.46 180.602C328.579 180.53 328.665 180.414 328.699 180.279C328.733 180.144 328.712 180.001 328.64 179.882C327.623 178.434 327.033 176.729 326.94 174.962C326.94 173.422 330.08 170.002 330.24 168.242C330.304 166.886 330.121 165.531 329.7 164.242C334.806 162.228 340.216 161.092 345.7 160.882C346.72 164.882 349.22 168.122 350.8 175.082C351.312 177.839 351.4 180.658 351.06 183.442C350.828 184.017 350.38 184.478 349.811 184.725C349.242 184.972 348.599 184.985 348.02 184.762C348.177 183.038 348.177 181.305 348.02 179.582C348.02 179.444 347.965 179.311 347.868 179.214C347.77 179.116 347.638 179.062 347.5 179.062C347.362 179.062 347.23 179.116 347.132 179.214C347.035 179.311 346.98 179.444 346.98 179.582C347.12 181.199 347.12 182.825 346.98 184.442C346.82 185.882 345.2 186.922 343.3 185.842C343.44 184.178 343.44 182.505 343.3 180.842C343.3 180.704 343.245 180.571 343.148 180.474C343.05 180.376 342.918 180.322 342.78 180.322C342.642 180.322 342.51 180.376 342.412 180.474C342.315 180.571 342.26 180.704 342.26 180.842C342.516 182.512 342.516 184.211 342.26 185.882C342.136 186.258 341.92 186.598 341.631 186.871C341.343 187.143 340.991 187.338 340.607 187.44C340.223 187.541 339.821 187.545 339.435 187.451C339.05 187.357 338.694 187.168 338.4 186.902C338.561 185.234 338.501 183.553 338.22 181.902C338.196 181.764 338.119 181.641 338.004 181.56C337.89 181.48 337.748 181.448 337.61 181.472C337.472 181.495 337.349 181.573 337.269 181.687C337.188 181.802 337.156 181.944 337.18 182.082C337.42 183.508 337.5 184.957 337.42 186.402C337.42 186.932 337.209 187.441 336.834 187.816C336.459 188.191 335.951 188.402 335.42 188.402C334.89 188.402 334.381 188.191 334.006 187.816C333.631 187.441 333.42 186.932 333.42 186.402C333.075 182.743 332.406 179.122 331.42 175.582C331.372 175.452 331.275 175.346 331.149 175.288C331.024 175.23 330.88 175.224 330.75 175.272C330.62 175.319 330.514 175.417 330.456 175.542C330.398 175.668 330.392 175.812 330.44 175.942C331.413 179.397 332.082 182.93 332.44 186.502C332.481 187.153 332.729 187.775 333.149 188.276C333.568 188.777 334.137 189.13 334.772 189.284C335.406 189.438 336.074 189.385 336.676 189.133C337.279 188.881 337.785 188.442 338.12 187.882C338.513 188.168 338.962 188.367 339.438 188.465C339.914 188.563 340.406 188.558 340.88 188.45C341.353 188.342 341.799 188.133 342.185 187.839C342.572 187.544 342.89 187.17 343.12 186.742C343.504 186.988 343.933 187.153 344.383 187.227C344.833 187.301 345.293 187.282 345.735 187.172C346.177 187.061 346.592 186.861 346.954 186.584C347.316 186.307 347.618 185.959 347.84 185.562C348.684 185.867 349.614 185.828 350.43 185.454C351.245 185.08 351.881 184.4 352.2 183.562C352.591 180.601 352.509 177.597 351.96 174.662C351.232 171.474 350.159 168.376 348.76 165.422C349.483 165.177 350.096 164.687 350.495 164.036C350.893 163.386 351.051 162.616 350.94 161.862C344.28 127.982 340.36 119.422 332.68 112.322C319.72 100.322 304.1 99.4415 281.32 96.6015C278.74 96.2815 272.24 92.0015 267.44 87.6415C265.84 74.7815 265.44 73.6415 259.06 72.9215C258.64 70.0815 256.76 69.6615 249.9 69.1815C245.08 68.8415 242.88 69.1815 241.9 70.3415C240.92 71.5015 241.08 72.7615 241.48 74.8815C242.06 78.0215 243.74 78.8815 246.72 79.0615C249.38 94.1215 250.14 96.2615 252.82 96.5615C254.6 96.7415 255.9 96.3015 258.2 94.2015C258.2 96.3815 258 100.202 255.72 101.602C248.54 105.742 245.58 107.462 243.08 111.002C238.34 117.722 238.6 122.102 237.74 151.482C233.1 155.482 227.94 159.682 223.38 163.482C213.38 171.482 213.38 171.482 213.38 172.462C213.34 173.554 213.719 174.62 214.44 175.442C214.026 175.754 213.518 175.916 213 175.902C209.14 176.042 205.92 174.762 204.38 176.462L203.6 177.342L201.6 176.722C199.4 176.102 198.06 178.542 194.74 180.422C193.52 181.122 192.74 180.902 188.2 180.282C187.718 179.218 187.039 178.254 186.2 177.442C185.72 177.022 159.12 173.902 158.46 173.822C157.28 136.762 156.06 130.862 151.9 127.122C149.02 124.522 144.28 123.322 137.32 123.562C135.979 122.734 134.844 121.612 134 120.282C134.895 120.408 135.797 120.475 136.7 120.482C139.46 120.482 140.24 119.762 140.88 118.362C141.88 116.162 142.1 111.762 141.08 100.762C143.316 99.7191 145.215 98.0699 146.56 96.0015C147.087 95.3183 147.344 94.4643 147.28 93.6036C147.216 92.743 146.836 91.9363 146.213 91.3385C145.591 90.7408 144.769 90.3941 143.907 90.3651C143.044 90.3362 142.201 90.6269 141.54 91.1815C140.92 88.1815 136.98 88.2815 135.54 90.3215C135.123 89.9252 134.612 89.6406 134.055 89.4941C133.499 89.3476 132.914 89.344 132.356 89.4837C131.797 89.6233 131.283 89.9016 130.861 90.2928C130.439 90.6839 130.122 91.1754 129.94 91.7215C129.506 91.3329 128.974 91.0709 128.401 90.9642C127.828 90.8575 127.237 90.9103 126.692 91.1166C126.147 91.323 125.67 91.6751 125.311 92.1345C124.953 92.5939 124.728 93.1429 124.66 93.7215C124.2 93.4277 123.666 93.2715 123.12 93.2715C122.574 93.2715 122.04 93.4277 121.58 93.7215C120.24 94.7215 118.02 98.7215 125.98 114.082C111.84 126.082 103.98 128.762 98.1801 131.962C80.6201 138.162 65.5601 147.442 59.7001 156.102C54.6001 163.662 54.6601 176.922 56.8001 205.702C56.6001 207.302 59.3201 207.502 60.9401 207.502C60.8291 211.733 60.976 215.968 61.3801 220.182C61.3881 220.259 61.4134 220.333 61.454 220.4C61.4946 220.466 61.5496 220.522 61.6148 220.564C61.68 220.606 61.7539 220.634 61.8309 220.643C61.908 220.653 61.9863 220.646 62.0601 220.622C61.9271 222.759 61.9271 224.904 62.0601 227.042C62.1439 227.593 62.394 228.106 62.7768 228.511C63.1597 228.916 63.6572 229.195 64.2029 229.311C64.7485 229.426 65.3163 229.372 65.8304 229.156C66.3446 228.94 66.7805 228.572 67.0801 228.102C67.3351 228.547 67.7055 228.917 68.1524 229.17C68.5993 229.423 69.1062 229.551 69.6198 229.541C70.1334 229.531 70.6347 229.383 71.0712 229.112C71.5076 228.841 71.863 228.457 72.1001 228.002C72.4068 228.416 72.8185 228.741 73.2926 228.943C73.7667 229.146 74.2863 229.218 74.7977 229.153C75.309 229.088 75.7938 228.887 76.202 228.572C76.6102 228.258 76.9271 227.84 77.1201 227.362C77.5483 227.847 78.1286 228.173 78.7662 228.286C79.4037 228.399 80.0607 228.292 80.6298 227.984C81.1988 227.675 81.6462 227.182 81.8987 226.586C82.1513 225.989 82.1941 225.325 82.0201 224.702C82.0201 224.702 81.4601 221.902 81.2401 220.942C82.8081 220.854 84.3438 220.46 85.7601 219.782C86.9001 218.842 86.1001 212.382 85.1801 210.962C83.5525 209.088 81.8232 207.305 80.0001 205.622C81.4001 205.342 83.4801 204.722 83.4201 203.282C83.0601 195.822 82.5201 178.942 82.5001 170.082L87.9401 168.362C86.6801 182.242 86.2801 195.782 89.0401 209.262C92.0001 224.682 97.3601 244.682 100.1 253.862C95.4801 258.562 61.2601 293.042 59.0401 295.622C57.2601 297.622 59.3201 300.842 61.5001 302.802C59.5001 305.062 56.2401 308.802 54.8001 310.422C50.5401 314.982 72.5601 329.662 78.3401 333.262C82.9001 336.122 96.8801 344.542 95.8201 339.262C96.3801 330.862 88.2201 323.582 85.5401 316.402C86.8067 316.954 88.1607 317.279 89.5401 317.362C91.2001 317.362 91.3601 316.682 92.1401 315.842C130.74 273.842 133.16 270.442 134.14 263.122C134.96 257.122 133.3 244.082 131.72 230.802C138.38 234.802 146.38 239.562 155.88 245.662C156.52 251.942 157.88 284.862 157.48 297.002C157.06 299.422 160.26 300.562 162.68 301.002C162.1 304.422 160.42 309.362 160.26 311.362C159.74 317.742 191.02 321.742 200.66 321.742C202.9 321.742 207.86 321.742 207.2 319.542C205.68 310.422 192.82 307.902 187.06 301.962C189.06 301.842 191.94 301.242 191.86 299.282C189.54 238.122 188.82 231.062 184 223.862C179.46 217.062 175.72 214.062 156.62 202.322C163.54 202.742 172.88 202.822 185.58 202.822C185.733 202.832 185.884 202.782 186 202.682C186.648 202.042 187.213 201.323 187.68 200.542L190.94 200.942C190.805 201.492 190.848 202.071 191.062 202.596C191.277 203.12 191.652 203.563 192.135 203.861C192.617 204.159 193.181 204.296 193.746 204.253C194.312 204.21 194.848 203.989 195.28 203.622C195.4 204.055 195.626 204.453 195.937 204.778C196.248 205.103 196.635 205.346 197.063 205.484C197.491 205.623 197.947 205.654 198.39 205.573C198.833 205.492 199.249 205.303 199.6 205.022C199.78 205.444 200.063 205.815 200.424 206.098C200.786 206.382 201.213 206.569 201.666 206.643C202.119 206.717 202.584 206.675 203.017 206.521C203.449 206.367 203.836 206.105 204.14 205.762C204.398 206.215 204.784 206.583 205.251 206.817C205.717 207.051 206.242 207.142 206.76 207.078C207.278 207.013 207.766 206.797 208.161 206.456C208.556 206.115 208.841 205.665 208.98 205.162C208.98 204.982 208.98 204.822 208.98 204.642C211.42 205.262 213.56 205.322 214.64 203.042C216.92 203.802 218.42 202.662 219.32 200.442C219.77 200.512 220.231 200.446 220.644 200.254C221.057 200.062 221.404 199.751 221.64 199.362C221.986 198.969 222.225 198.494 222.333 197.983C222.442 197.471 222.417 196.94 222.26 196.442C222.745 196.033 223.122 195.51 223.355 194.92C223.589 194.33 223.673 193.692 223.6 193.062C224.4 192.282 225.6 191.182 226.84 190.082C228.22 191.202 230.58 192.362 231.7 191.082C239.7 184.962 255.58 171.302 261.14 166.362L261.52 167.302C244.36 204.702 241.24 212.442 240.7 219.002C240.08 226.602 241.08 232.282 255.04 286.422C255.063 286.51 255.108 286.592 255.171 286.658C255.234 286.725 255.313 286.774 255.4 286.802C256.706 287.168 258.047 287.396 259.4 287.482C253.96 294.619 249.681 302.57 246.72 311.042C245.66 314.482 276.72 303.262 286.72 293.042C286.791 292.973 286.84 292.886 286.862 292.79C286.883 292.694 286.875 292.593 286.84 292.502C285.473 288.705 283.745 285.048 281.68 281.582C282.341 281.12 282.945 280.583 283.48 279.982C283.538 279.922 283.58 279.848 283.601 279.767C283.622 279.687 283.622 279.602 283.6 279.522C279.08 259.742 275.4 244.202 271.3 223.382C272.72 219.382 276.04 214.202 283.08 200.622C287.9 222.122 289.74 228.782 293.66 233.142C298.56 238.582 304 241.922 351.84 268.862C352.3 269.142 354.12 268.282 354.6 268.022C355.64 279.122 360.48 300.022 362.6 297.662C369.02 290.002 377.02 262.882 377.44 253.022C377.421 252.948 377.386 252.879 377.338 252.82C377.289 252.762 377.229 252.714 377.16 252.682ZM349.56 160.682C347.44 159.622 343.1 159.762 336.96 161.102C333.8 161.802 327.66 163.402 325.56 165.842C324.82 162.562 324.14 159.662 323.56 157.062C326.36 151.702 343.8 148.362 347.56 151.062C348.22 153.922 348.88 157.102 349.56 160.542V160.682ZM275.56 95.4215C273.492 100.362 270.804 105.02 267.56 109.282C265.424 106.899 263.584 104.266 262.08 101.442C266.336 99.5445 270.34 97.1259 274 94.2415L275.56 95.4215ZM252.88 95.8615C250.88 95.6415 250.16 93.1615 247.74 79.4015C249.48 79.4015 251.74 79.0815 254.42 78.7615C256.82 81.7615 257.78 82.5815 258.58 82.3215C258.98 82.1815 259.2 81.7415 259.2 81.0415C259.2 78.0815 261.86 78.5215 261.92 83.2615C261.927 83.3624 261.961 83.4594 262.02 83.5415C265.13 87.5094 268.85 90.9589 273.04 93.7615C269.476 96.5084 265.586 98.8057 261.46 100.602C260.48 100.038 259.613 99.299 258.9 98.4215C258.9 98.1615 258.9 97.9015 259.04 97.6415C260.538 95.4252 261.59 92.9392 262.14 90.3215C262.16 90.2124 262.144 90.0998 262.096 90.0002C262.047 89.9005 261.968 89.8191 261.869 89.7677C261.771 89.7163 261.659 89.6977 261.549 89.7146C261.44 89.7315 261.338 89.783 261.26 89.8615C256.16 95.2215 254.88 95.9415 252.84 95.7215L252.88 95.8615ZM258.58 99.6415C259.227 100.329 259.967 100.922 260.78 101.402C259.9 103.402 258.92 105.682 258.24 107.822C257.8 105.055 257.902 102.229 258.54 99.5015L258.58 99.6415ZM132.88 109.262C132.958 109.165 133.001 109.045 133.001 108.922C133.001 108.798 132.958 108.678 132.88 108.582C130.34 104.582 132.72 102.582 133.98 105.182C134.96 107.182 137.3 107.182 137.18 102.222C138.055 101.986 138.91 101.685 139.74 101.322C140.84 113.322 140.4 117.042 139.24 118.662C137.88 119.982 133.58 115.762 132.26 114.422C132.186 114.342 132.09 114.287 131.983 114.265C131.877 114.243 131.766 114.255 131.667 114.299C131.567 114.343 131.484 114.417 131.429 114.511C131.374 114.605 131.35 114.713 131.36 114.822C131.58 118.682 132.34 121.562 135.36 123.742C126.26 124.575 117.26 126.269 108.48 128.802C97.4401 131.722 110.18 130.402 132.88 109.262ZM62.8801 227.022C62.7201 225.482 62.8801 223.822 62.8801 220.742C62.8801 218.082 65.8801 217.842 66.0601 220.422C66.2201 222.622 66.2601 224.202 66.3201 226.422C66.3996 226.872 66.2968 227.336 66.0343 227.712C65.7717 228.087 65.3709 228.342 64.9201 228.422C64.4692 228.501 64.0052 228.398 63.6301 228.136C63.2551 227.873 62.9996 227.472 62.9201 227.022H62.8801ZM67.6601 227.222C67.3801 225.642 67.4201 223.962 67.2201 220.722C67.0601 217.942 70.1801 217.582 70.5201 220.242C70.8201 222.582 70.9601 224.242 71.1601 226.422C71.1867 226.847 71.0615 227.268 70.8068 227.61C70.5521 227.951 70.1844 228.192 69.7691 228.288C69.3538 228.384 68.9179 228.329 68.5391 228.134C68.1602 227.939 67.8629 227.615 67.7001 227.222H67.6601ZM72.5201 226.902C72.1601 225.322 72.1001 223.462 71.7601 220.322C71.5201 218.162 73.3001 217.382 74.3801 218.322C72.7601 219.942 73.3801 221.582 74.9401 221.582H75.4201C75.6401 222.922 75.7601 223.882 76.0601 225.982C76.0921 226.41 75.9729 226.837 75.7232 227.187C75.4734 227.537 75.1089 227.789 74.693 227.898C74.277 228.007 73.8359 227.968 73.4463 227.786C73.0566 227.604 72.7431 227.291 72.5601 226.902H72.5201ZM77.4201 226.182C77.0184 224.629 76.7178 223.053 76.5201 221.462C77.5201 221.462 78.7601 221.322 80.0001 221.162C80.2201 222.182 80.8001 225.002 80.8001 225.002C80.8674 225.418 80.7864 225.845 80.5713 226.207C80.3561 226.57 80.0204 226.846 79.6228 226.986C79.2251 227.127 78.7908 227.123 78.3955 226.976C78.0003 226.829 77.6692 226.548 77.4601 226.182H77.4201ZM80.4601 207.842C81.7672 209.015 82.984 210.285 84.1001 211.642C84.9834 214.016 85.2517 216.575 84.8801 219.082C83.9001 219.922 76.7401 220.482 74.8801 220.482C74.5601 220.482 74.4001 220.482 74.3801 220.202C74.3801 219.542 75.5401 217.762 79.7801 216.702C79.918 216.68 80.0418 216.605 80.1243 216.493C80.2069 216.38 80.2413 216.239 80.2201 216.102C80.1989 215.964 80.1237 215.84 80.0112 215.757C79.8987 215.675 79.758 215.64 79.6201 215.662C74.2001 215.982 71.3401 214.302 70.5801 210.362C70.574 210.29 70.553 210.22 70.5184 210.156C70.4838 210.093 70.4363 210.037 70.3791 209.993C70.3218 209.949 70.256 209.918 70.1858 209.9C70.1157 209.883 70.0427 209.881 69.9716 209.893C69.9004 209.906 69.8327 209.933 69.7726 209.973C69.7126 210.013 69.6616 210.066 69.6229 210.127C69.5842 210.188 69.5586 210.256 69.5478 210.327C69.537 210.399 69.5412 210.472 69.5601 210.542C69.8092 212.276 70.6858 213.859 72.0238 214.991C73.3617 216.122 75.0683 216.724 76.8201 216.682C76.257 216.933 75.7209 217.242 75.2201 217.602C74.9143 217.305 74.5399 217.09 74.1305 216.973C73.721 216.857 73.2891 216.844 72.8733 216.935C72.4574 217.026 72.0706 217.218 71.7473 217.495C71.4239 217.772 71.1741 218.125 71.0201 218.522C70.7689 218.158 70.4278 217.866 70.0302 217.673C69.6325 217.481 69.1918 217.394 68.7509 217.422C68.3099 217.451 67.8838 217.592 67.5139 217.834C67.144 218.076 66.843 218.409 66.6401 218.802C66.3909 218.392 66.03 218.061 65.5997 217.85C65.1694 217.638 64.6876 217.553 64.2108 217.606C63.7341 217.658 63.2822 217.846 62.9083 218.146C62.5345 218.446 62.254 218.847 62.1001 219.302C61.7066 214.178 61.6331 209.034 61.8801 203.902C66.9874 202.691 72.2353 202.18 77.4801 202.382C77.5176 203.465 77.8107 204.525 78.3355 205.474C78.8604 206.422 79.602 207.234 80.5001 207.842H80.4601ZM57.5001 204.522C57.2801 201.442 57.0801 198.522 56.9001 195.802C60.2801 191.502 78.3801 189.802 81.7601 192.702C81.8801 196.342 82.0001 199.662 82.1201 202.222C78.0001 200.202 61.6401 201.622 57.5401 204.522H57.5001ZM94.6801 337.142C89.0801 329.462 63.3401 311.142 56.5401 310.022C59.5001 306.702 64.3601 300.942 67.9201 297.182C73.941 300.034 79.5732 303.643 84.6801 307.922C79.7601 317.782 93.5801 326.782 94.7201 337.142H94.6801ZM158.68 295.382C158.98 281.662 157.6 250.842 157 245.382C156.991 245.302 156.965 245.224 156.924 245.155C156.882 245.086 156.826 245.027 156.76 244.982C120.4 221.682 106 217.042 103.8 206.942C103.771 206.806 103.689 206.688 103.573 206.613C103.457 206.538 103.315 206.512 103.18 206.542C103.045 206.571 102.927 206.652 102.852 206.769C102.777 206.885 102.751 207.026 102.78 207.162C104 212.682 108.46 216.582 117.42 222.202C123.444 234.628 128.786 247.373 133.42 260.382C133.1 269.582 131.12 272.042 91.8601 314.742C90.6801 310.522 82.0801 304.342 78.4401 301.882C74.4401 299.162 66.4401 294.222 61.4601 294.622C65.4601 290.462 96.4801 259.122 101.12 254.382C101.185 254.314 101.232 254.23 101.257 254.139C101.281 254.049 101.282 253.953 101.26 253.862C98.5001 244.682 93.0401 224.522 90.0001 209.142C89.0574 204.411 88.4558 199.618 88.2001 194.802C94.8801 190.162 108.04 187.242 125.7 186.462C126.14 197.022 129.12 198.202 136.38 202.462C162.5 217.902 168.7 221.562 173.74 229.042C177.4 234.482 176.88 242.782 178.42 293.802C174 293.462 162.14 292.682 158.62 295.382H158.68ZM205.78 318.002C198.84 313.642 167.78 308.002 161.66 310.102C162.6 305.462 163.98 303.582 164.48 294.762C170.771 294.272 177.098 294.554 183.32 295.602C183.24 307.182 202 308.482 205.72 318.002H205.78ZM183.16 224.502C187.78 231.402 188.54 238.322 190.78 297.362C188.32 295.122 182.78 294.302 179.38 293.962C177.82 242.762 178.38 234.242 174.5 228.482C169 220.342 161.94 216.482 132.92 199.282C128.4 196.602 126.92 193.682 126.64 186.422L131.8 186.282C133.8 193.462 136.34 196.282 140.86 199.102C143.52 200.782 147.68 201.702 154.42 202.242C174.84 214.682 178.6 217.662 183.16 224.502ZM172.42 201.782C154.42 201.622 145.7 200.922 141.42 198.222C133.16 193.002 131.7 187.602 128 153.382C127.979 153.255 127.916 153.14 127.822 153.053C127.728 152.966 127.608 152.913 127.48 152.902C127.35 152.906 127.226 152.956 127.131 153.044C127.035 153.133 126.974 153.252 126.96 153.382C126.22 162.522 125.88 171.562 125.58 180.002C108.16 180.462 94.7001 183.142 87.9001 187.562C88.1614 173.294 89.3976 159.061 91.6001 144.962C91.6186 144.824 91.5817 144.684 91.4973 144.573C91.4129 144.463 91.288 144.39 91.1501 144.372C91.0122 144.353 90.8725 144.39 90.7619 144.474C90.6512 144.559 90.5786 144.684 90.5601 144.822C89.7601 150.822 89.0401 156.442 88.5601 161.662C84.2238 165.11 79.7038 168.322 75.0201 171.282C74.9142 171.348 74.8358 171.451 74.7995 171.571C74.7632 171.691 74.7713 171.819 74.8224 171.934C74.8735 172.048 74.9641 172.14 75.0775 172.193C75.191 172.246 75.3197 172.256 75.4401 172.222C77.0001 171.802 79.1601 171.162 81.4401 170.502C81.4401 175.922 81.6601 184.162 81.9001 191.442C77.2201 189.042 61.6801 190.482 57.0001 194.422C55.7201 173.582 56.2601 163.042 60.5001 156.782C67.2201 146.682 87.1401 135.542 108.78 129.802C132.4 123.562 145.42 123.002 150.98 128.002C154.86 131.482 156 137.282 157.18 173.802C156.54 173.802 156 173.642 155.58 173.622C155.512 173.614 155.443 173.619 155.377 173.638C155.31 173.657 155.249 173.689 155.195 173.731C155.141 173.774 155.096 173.827 155.063 173.887C155.029 173.947 155.008 174.013 155 174.082C154.992 174.15 154.998 174.219 155.017 174.285C155.036 174.351 155.067 174.413 155.11 174.467C155.153 174.521 155.206 174.566 155.266 174.599C155.326 174.632 155.392 174.654 155.46 174.662C157.46 174.882 166.4 175.942 174.1 176.902C178.44 181.162 178.1 196.902 172.42 201.782ZM185.4 201.782H174C178.96 196.282 179.54 182.522 175.72 177.062C180.08 177.622 183.88 178.122 185.48 178.402C190 182.682 190.66 196.682 185.4 201.822V201.782ZM194.88 202.402C194.659 202.733 194.323 202.972 193.937 203.072C193.551 203.171 193.142 203.125 192.788 202.942C192.434 202.758 192.159 202.451 192.018 202.078C191.876 201.706 191.877 201.294 192.02 200.922C192.54 199.582 193.1 198.242 193.48 197.482C194.54 195.302 197 196.202 196.24 198.622C196 199.702 195.22 201.642 194.88 202.442V202.402ZM200.32 199.542C200 200.902 199.66 202.302 199.26 203.542C198.66 205.542 195.66 204.502 196.3 202.162C196.54 201.302 197.06 199.662 197.46 198.482C198.24 196.202 200.92 197.082 200.32 199.582V199.542ZM204.32 200.582C204.144 201.927 203.897 203.262 203.58 204.582C203.461 204.99 203.184 205.334 202.811 205.539C202.438 205.743 201.999 205.791 201.59 205.672C201.182 205.552 200.837 205.275 200.633 204.902C200.429 204.529 200.381 204.09 200.5 203.682C200.76 202.542 201.14 201.002 201.48 199.682C202.14 197.362 204.68 198.142 204.34 200.682L204.32 200.582ZM208.32 201.202C208.284 202.469 208.157 203.732 207.94 204.982C207.58 206.722 204.78 206.162 204.92 204.662C204.92 203.982 205.34 201.602 205.56 200.442C206 198.162 208.4 198.842 208.32 201.242V201.202ZM221.78 195.542C220.107 193.847 218.124 192.49 215.94 191.542C215.819 191.488 215.683 191.483 215.558 191.527C215.434 191.571 215.331 191.66 215.27 191.777C215.209 191.894 215.194 192.03 215.23 192.157C215.265 192.284 215.347 192.393 215.46 192.462C216.6 193.062 221.02 195.222 221.46 196.922C221.514 197.234 221.494 197.554 221.4 197.857C221.306 198.159 221.141 198.435 220.92 198.662C220.22 199.622 219.26 200.042 213.86 196.282C213.746 196.202 213.605 196.171 213.468 196.195C213.331 196.22 213.21 196.297 213.13 196.412C213.051 196.526 213.02 196.667 213.044 196.803C213.068 196.94 213.146 197.062 213.26 197.142C214.852 198.341 216.585 199.342 218.42 200.122C218.296 200.566 218.074 200.977 217.769 201.323C217.464 201.669 217.085 201.942 216.66 202.122C214.98 202.642 212.66 200.622 211.48 199.802C211.363 199.725 211.221 199.697 211.084 199.725C210.947 199.753 210.827 199.835 210.75 199.952C210.673 200.068 210.646 200.211 210.674 200.348C210.702 200.485 210.783 200.605 210.9 200.682C211.829 201.402 212.797 202.069 213.8 202.682C212.94 204.442 211.22 204.162 209.26 203.662C209.26 202.862 209.38 202.062 209.4 201.262C209.52 198.202 206.62 197.102 205.2 198.842C205.074 198.467 204.855 198.131 204.563 197.865C204.27 197.6 203.915 197.413 203.531 197.323C203.146 197.232 202.745 197.242 202.365 197.35C201.985 197.459 201.639 197.662 201.36 197.942C201.25 197.537 201.036 197.169 200.74 196.873C200.443 196.577 200.074 196.364 199.67 196.254C199.265 196.145 198.839 196.144 198.434 196.25C198.029 196.357 197.659 196.568 197.36 196.862C196.68 194.862 193.88 194.482 192.62 197.062C192.28 197.742 191.8 198.842 191.36 200.002L188.3 199.622C190.696 193.884 190.825 187.45 188.66 181.622C190.09 181.861 191.532 182.021 192.98 182.102C193.759 182.135 194.53 181.941 195.2 181.542C198.32 179.782 199.78 177.542 201.2 177.942L202.8 178.422C201.18 180.422 199.58 182.702 197.52 185.702C195.46 188.702 200.44 191.062 206.46 184.302C208.554 185.257 210.84 185.716 213.14 185.642C219.3 188.842 222.44 191.382 222.7 193.442C222.713 193.844 222.638 194.244 222.479 194.614C222.32 194.984 222.081 195.314 221.78 195.582V195.542ZM223.34 191.982C222.4 189.982 219.72 187.982 214.96 185.302C215.698 185.17 216.416 184.948 217.1 184.642C217.206 184.575 217.284 184.472 217.321 184.352C217.357 184.233 217.349 184.104 217.298 183.989C217.247 183.875 217.156 183.783 217.043 183.73C216.929 183.677 216.8 183.667 216.68 183.702C215.033 184.302 213.28 184.553 211.531 184.44C209.782 184.326 208.075 183.85 206.52 183.042C206.414 182.988 206.292 182.973 206.175 182.998C206.059 183.024 205.955 183.088 205.88 183.182C201.2 188.622 197.06 188.022 198.34 186.142C200.373 183.023 202.612 180.043 205.04 177.222C205.68 176.502 207.18 176.642 209.04 176.822C214.88 177.382 214 177.082 218.46 173.322C222.976 176.867 226.817 181.196 229.8 186.102C228.18 187.602 225.12 190.322 223.34 192.022V191.982ZM239.02 183.982C236.52 185.982 234.16 187.982 232.2 189.502C231.8 184.822 220.94 172.022 215.98 170.982C217.8 169.442 220.36 167.342 223.28 164.982C230 165.742 239.44 178.142 239.02 183.962V183.982ZM259.18 157.982C255.18 147.102 249.64 131.022 249.4 129.022C249 124.831 249 120.612 249.4 116.422C249.376 116.299 249.31 116.188 249.213 116.108C249.117 116.029 248.995 115.985 248.87 115.985C248.745 115.985 248.623 116.029 248.527 116.108C248.43 116.188 248.364 116.299 248.34 116.422C247.93 120.685 247.93 124.978 248.34 129.242C248.52 130.722 251.32 139.102 254.34 147.742C255.35 155.15 255.745 162.628 255.52 170.102C251.14 173.902 245.32 178.862 240.04 183.222C239.6 176.902 231.16 165.902 224.32 164.202C228.86 160.522 233.94 156.402 238.5 152.442C238.556 152.395 238.601 152.337 238.632 152.271C238.663 152.206 238.679 152.134 238.68 152.062C239.5 122.602 239.32 118.342 243.84 111.922C247.5 106.722 255.22 103.922 257 102.202C256.832 104.973 257.014 107.755 257.54 110.482C257.572 110.595 257.64 110.695 257.734 110.766C257.828 110.837 257.942 110.876 258.06 110.876C258.178 110.876 258.293 110.837 258.386 110.766C258.48 110.695 258.548 110.595 258.58 110.482C258.75 109.593 258.984 108.717 259.28 107.862C259.563 108.832 259.945 109.77 260.42 110.662C259.96 115.122 257.6 145.382 257.6 147.582C258.874 150.396 260.5 153.037 262.44 155.442C262.489 155.494 262.548 155.535 262.613 155.564C262.678 155.592 262.749 155.607 262.82 155.607C262.891 155.607 262.962 155.592 263.027 155.564C263.093 155.535 263.151 155.494 263.2 155.442C264.1 154.462 268.9 148.582 268.8 147.722C268.14 142.802 263.68 114.242 262.8 110.682C263.472 109.612 264.066 108.496 264.58 107.342C265.37 108.442 266.254 109.472 267.22 110.422C267.269 110.477 267.329 110.521 267.396 110.552C267.463 110.582 267.536 110.598 267.61 110.598C267.684 110.598 267.757 110.582 267.824 110.552C267.891 110.521 267.951 110.477 268 110.422C271.393 105.997 274.209 101.158 276.38 96.0215C280.18 98.2415 280.8 98.0215 285.18 98.5215C307.08 101.162 320.3 102.742 331.9 113.482C338.34 119.482 342.1 126.522 347.22 149.822C342 147.702 327.22 150.722 323.22 155.702C319.22 138.682 318.44 136.362 316.12 134.662C312.48 132.002 310.12 130.962 289.04 128.962C288.921 128.952 288.801 128.984 288.703 129.053C288.604 129.121 288.533 129.222 288.5 129.337C288.467 129.452 288.475 129.576 288.522 129.686C288.57 129.796 288.654 129.886 288.76 129.942C293.965 132.637 298.966 135.712 303.72 139.142C304.14 140.782 304.58 142.562 305.04 144.402C295.7 154.502 269.68 161.202 259.18 157.962V157.982Z" fill="#1890ff"/>
<path d="M335.36 180.442C335.238 180.433 335.123 180.382 335.034 180.3C334.944 180.217 334.885 180.106 334.867 179.985C334.848 179.865 334.871 179.741 334.931 179.635C334.992 179.529 335.087 179.447 335.2 179.402C337.7 178.622 345.92 176.542 348.48 176.102C348.55 176.083 348.623 176.079 348.694 176.089C348.766 176.1 348.834 176.126 348.895 176.164C348.956 176.203 349.008 176.254 349.048 176.314C349.089 176.374 349.116 176.442 349.128 176.513C349.141 176.584 349.138 176.657 349.121 176.727C349.104 176.798 349.072 176.863 349.028 176.921C348.984 176.978 348.929 177.025 348.865 177.06C348.802 177.095 348.732 177.116 348.66 177.122C344.14 177.922 335.56 180.442 335.36 180.442Z" fill="#1890ff"/>
<path d="M310.8 198.362L321.5 223.442L330.2 221.582L329.22 216.962L333.86 215.982L334.84 220.602L365.06 214.182L364.08 209.562L368.74 208.562L369.72 213.182L378.4 211.342L378 183.862C305.38 199.282 310.68 198.082 310.8 198.362Z" fill="#1890ff"/>
<path d="M388.82 229.281L379.44 185.281L379.86 211.981C379.863 212.15 379.807 212.315 379.701 212.447C379.595 212.579 379.446 212.669 379.28 212.701L370 214.681L371 219.441L366.36 220.441L365.34 215.661L335.12 222.081L336.14 226.861L331.48 227.861L330.48 223.081L321.2 225.081C321.039 225.117 320.87 225.095 320.723 225.018C320.577 224.941 320.462 224.815 320.4 224.661L310 199.981L319.38 243.981C319.394 244.049 319.422 244.112 319.461 244.169C319.499 244.225 319.549 244.273 319.607 244.311C319.664 244.348 319.729 244.373 319.796 244.385C319.864 244.397 319.933 244.396 320 244.381L388.48 229.821C388.587 229.779 388.677 229.704 388.738 229.607C388.799 229.51 388.828 229.396 388.82 229.281Z" fill="#1890ff"/>
<path d="M62.92 227.022C62.76 225.482 62.92 223.822 62.92 220.742C62.92 218.082 65.92 217.842 66.1 220.422C66.26 222.622 66.3001 224.202 66.3601 226.422C66.4396 226.878 66.3347 227.347 66.0684 227.726C65.8021 228.105 65.3962 228.362 64.9401 228.442C64.4839 228.521 64.0148 228.416 63.636 228.15C63.2571 227.884 62.9996 227.478 62.92 227.022Z" fill="#FFE7EA"/>
<path d="M67.7001 227.222C67.4201 225.642 67.4601 223.962 67.2601 220.722C67.1001 217.942 70.2201 217.582 70.5601 220.242C70.8601 222.582 71.0001 224.242 71.2001 226.422C71.2685 226.871 71.1645 227.329 70.9088 227.705C70.6531 228.081 70.2648 228.346 69.8217 228.447C69.3786 228.549 68.9137 228.479 68.5201 228.251C68.1266 228.024 67.8336 227.656 67.7001 227.222Z" fill="#FFE7EA"/>
<path d="M72.5601 226.902C72.2001 225.322 72.1401 223.462 71.8001 220.322C71.5601 218.162 73.3401 217.382 74.4201 218.322C72.8001 219.942 73.4201 221.582 74.9801 221.582H75.4601C75.6801 222.922 75.8001 223.882 76.1001 225.982C76.165 226.43 76.0623 226.886 75.8117 227.264C75.5611 227.641 75.1802 227.912 74.7419 228.026C74.3036 228.14 73.8386 228.089 73.436 227.881C73.0335 227.674 72.7216 227.325 72.5601 226.902Z" fill="#FFE7EA"/>
<path d="M77.4601 226.182C77.0584 224.629 76.7578 223.053 76.5601 221.462C77.5601 221.462 78.8001 221.322 80.0401 221.162C80.2601 222.182 80.8401 225.002 80.8401 225.002C80.9417 225.434 80.8795 225.89 80.6655 226.279C80.4515 226.669 80.1008 226.966 79.681 227.112C79.2612 227.259 78.802 227.245 78.392 227.073C77.9819 226.901 77.6499 226.584 77.4601 226.182Z" fill="#FFE7EA"/>
<path d="M80.5001 207.842C81.8072 209.015 83.024 210.285 84.1401 211.642C85.0234 214.016 85.2917 216.576 84.9201 219.082C83.9401 219.922 76.7801 220.482 74.9201 220.482C74.6001 220.482 74.4401 220.482 74.4201 220.202C74.4201 219.542 75.5801 217.762 79.8201 216.702C79.958 216.68 80.0818 216.605 80.1644 216.493C80.2469 216.38 80.2813 216.24 80.2601 216.102C80.2389 215.964 80.1637 215.84 80.0512 215.757C79.9387 215.675 79.798 215.64 79.6601 215.662C74.2401 215.982 71.3801 214.302 70.6201 210.362C70.614 210.29 70.593 210.22 70.5584 210.156C70.5238 210.093 70.4763 210.037 70.4191 209.993C70.3618 209.949 70.296 209.918 70.2259 209.9C70.1557 209.883 70.0827 209.881 70.0116 209.893C69.9404 209.906 69.8727 209.933 69.8127 209.973C69.7526 210.014 69.7016 210.066 69.6629 210.127C69.6242 210.188 69.5986 210.256 69.5878 210.328C69.577 210.399 69.5812 210.472 69.6001 210.542C69.8484 212.269 70.7192 213.847 72.0488 214.977C73.3783 216.108 75.0751 216.714 76.8201 216.682C76.257 216.933 75.7209 217.242 75.2201 217.602C74.9143 217.306 74.54 217.09 74.1305 216.973C73.721 216.857 73.2891 216.844 72.8733 216.935C72.4574 217.026 72.0706 217.218 71.7473 217.495C71.4239 217.772 71.1741 218.125 71.0201 218.522C70.7689 218.158 70.4278 217.866 70.0302 217.673C69.6325 217.481 69.1918 217.394 68.7509 217.422C68.3099 217.451 67.8838 217.592 67.5139 217.834C67.144 218.076 66.843 218.409 66.6401 218.802C66.391 218.392 66.03 218.062 65.5997 217.85C65.1694 217.638 64.6876 217.553 64.2109 217.606C63.7341 217.658 63.2823 217.846 62.9084 218.146C62.5345 218.447 62.2541 218.847 62.1001 219.302C61.7066 214.178 61.6331 209.035 61.8801 203.902C66.9874 202.691 72.2353 202.18 77.4801 202.382C77.5176 203.465 77.8107 204.525 78.3355 205.474C78.8604 206.423 79.6021 207.234 80.5001 207.842Z" fill="#FFE7EA"/>
<path d="M108.5 128.802C97.4401 131.722 110.18 130.402 132.88 109.262C132.958 109.165 133.001 109.045 133.001 108.922C133.001 108.798 132.958 108.678 132.88 108.582C130.34 104.582 132.72 102.582 133.98 105.182C134.96 107.182 137.3 107.182 137.18 102.222C138.055 101.986 138.91 101.685 139.74 101.322C140.84 113.322 140.4 117.042 139.24 118.662C137.88 119.982 133.58 115.762 132.26 114.422C132.186 114.342 132.09 114.287 131.983 114.265C131.877 114.243 131.766 114.255 131.667 114.299C131.567 114.343 131.484 114.417 131.429 114.511C131.374 114.605 131.35 114.713 131.36 114.822C131.58 118.682 132.34 121.562 135.36 123.742C126.267 124.576 117.273 126.27 108.5 128.802Z" fill="#FFE7EA"/>
</svg>
