<svg width="400" height="400" viewBox="0 0 400 400" fill="none" xmlns="http://www.w3.org/2000/svg">
<path d="M85.38 307.12C80.0721 302.625 74.1699 298.883 67.84 296C63.84 300.22 57.66 307.56 55.28 310.1C59.08 307.58 93.9 332.56 95.28 338.78C96.16 327 79.76 317.3 85.38 307.12Z" fill="#B2BEC3"/>
<path d="M206.7 318.98C204.7 314.2 161.92 306.5 160.84 310.66C161.74 305.26 163.5 302.98 163.92 293.64C170.555 293.068 177.235 293.344 183.8 294.46C183.12 306.68 204.72 307.28 206.7 318.98Z" fill="#B2BEC3"/>
<path d="M366.98 245.4C367.252 247.801 366.929 250.233 366.04 252.48C363.1 250.48 343.54 238.22 343.54 238.22L352.34 236.36C359.36 240.56 364.74 243.8 366.98 245.4Z" fill="#B2BEC3"/>
<path d="M315.56 196.98L310.2 198.12L314.84 220C312.84 218.72 311.3 217.66 310.26 216.96C308.68 200.02 303.6 174.4 299.1 155.4C302.012 153.815 304.663 151.791 306.96 149.4C311.08 166.54 312 173.14 315.56 196.98Z" fill="#B2BEC3"/>
<path d="M352.22 267.86C304.8 241.14 299.1 237.68 294.22 232.24C289.34 226.8 287.84 218.36 280.22 183.96C279.157 195.713 276.686 207.296 272.86 218.46C272.129 219.855 271.494 221.298 270.96 222.78C275.32 245 279.36 262 283.3 279.08C278.92 283.82 264.38 288.08 255.68 285.68C241.54 230.76 240.74 225.82 241.36 218.42C241.88 212.12 244.6 205.08 262.22 166.68C261.8 165.72 261.14 163.98 260.78 163C270.78 165.84 289.06 161.14 299.14 155.34C303.64 174.34 308.7 199.96 310.3 216.9L314.88 219.94L319.82 243.26L343.6 238.2C353.84 244.68 363.12 250.54 366.08 252.46C364 258.26 358 266.52 352.22 267.86Z" fill="#B2BEC3"/>
<path d="M213.26 184.38C219.56 187.64 222.6 190.12 223.12 192.38C223.233 193.027 223.162 193.693 222.914 194.301C222.666 194.909 222.253 195.436 221.72 195.82C221.94 196.26 222.02 196.756 221.948 197.243C221.877 197.729 221.657 198.182 221.32 198.54C221.08 198.9 220.731 199.172 220.323 199.316C219.916 199.46 219.473 199.469 219.06 199.34C217.96 202.5 216.14 202.58 214.46 201.86C213.32 204.96 210.3 203.86 208.64 203.46C208.74 202.62 208.8 201.7 208.84 200.68C208.98 197.62 205.64 196.88 205.06 199.8C204.74 201.46 204.9 201.3 204.68 201.3C204.68 200.94 204.8 200.54 204.86 200.14C205.3 197 201.8 196.14 201 199.02L200.48 201.02C200.66 200.32 200.82 199.66 200.94 199.18C201.7 196 198.08 194.88 197.08 197.86C197.08 198.06 196.94 198.28 196.86 198.5C196.848 198.434 196.848 198.366 196.86 198.3C197.84 195.28 194.5 194.02 193.14 196.76C192.78 197.48 192.24 198.76 191.74 200.06C190.82 199.92 189.04 199.68 187.54 199.54C190.54 194.28 190.36 185.54 187.88 180.34C192.62 181.02 193.6 181.24 195 180.46C198.28 178.6 199.6 176.28 201.44 176.8L203.76 177.52C202.04 179.52 200.36 181.96 198.04 185.36C196.4 187.76 200.9 189.36 206.4 183.04C208.537 184.059 210.897 184.521 213.26 184.38Z" fill="#B2BEC3"/>
<path d="M349.36 157.02C349.265 157.019 349.172 156.992 349.092 156.942C349.011 156.893 348.945 156.822 348.902 156.737C348.859 156.653 348.839 156.558 348.846 156.463C348.853 156.369 348.885 156.277 348.94 156.2L389.28 98.58L318.38 48.94L284.54 97.28C284.501 97.3364 284.451 97.3846 284.393 97.4217C284.335 97.4588 284.27 97.4841 284.202 97.4962C284.134 97.5082 284.065 97.5068 283.997 97.492C283.93 97.4773 283.867 97.4494 283.81 97.41C283.754 97.3706 283.705 97.3204 283.668 97.2624C283.631 97.2044 283.606 97.1397 283.594 97.0719C283.582 97.0041 283.583 96.9346 283.598 96.8674C283.613 96.8001 283.641 96.7364 283.68 96.68L317.82 48C317.901 47.8849 318.023 47.8058 318.162 47.7797C318.3 47.7535 318.443 47.7823 318.56 47.86L390.3 98C390.358 98.0398 390.407 98.0908 390.444 98.15C390.481 98.2092 390.506 98.2753 390.518 98.3444C390.529 98.4135 390.526 98.4842 390.509 98.5522C390.492 98.6201 390.462 98.684 390.42 98.74C346.84 161.1 349.76 157.02 349.36 157.02Z" fill="white"/>
<path d="M332 180.7L316.92 202.26C316.92 202.567 317 202.887 317.16 203.22L332.62 181.22C332.654 181.179 332.68 181.132 332.696 181.082C332.712 181.031 332.718 180.978 332.713 180.925C332.708 180.872 332.693 180.82 332.669 180.773C332.644 180.726 332.611 180.684 332.57 180.65C332.529 180.616 332.482 180.59 332.432 180.574C332.381 180.558 332.328 180.552 332.275 180.557C332.222 180.562 332.17 180.577 332.123 180.601C332.076 180.626 332.034 180.659 332 180.7Z" fill="white"/>
<path d="M278.38 258.4C278.282 258.402 278.185 258.376 278.101 258.325C278.017 258.274 277.949 258.2 277.905 258.113C277.861 258.025 277.843 257.926 277.852 257.828C277.862 257.73 277.9 257.637 277.96 257.56L295 233.22C295.08 233.106 295.201 233.028 295.338 233.004C295.475 232.979 295.616 233.01 295.73 233.09C295.844 233.169 295.922 233.291 295.946 233.428C295.971 233.565 295.94 233.706 295.86 233.82C277.68 259.74 278.8 258.4 278.38 258.4Z" fill="white"/>
<path d="M212.62 352.3C212.36 352.3 216.62 355.34 117.94 286.14C117.826 286.06 117.748 285.939 117.724 285.802C117.7 285.665 117.731 285.524 117.81 285.41C117.89 285.296 118.011 285.218 118.148 285.194C118.285 285.169 118.426 285.2 118.54 285.28L212.54 351.06L258 286C258.039 285.943 258.09 285.895 258.148 285.858C258.206 285.821 258.27 285.796 258.338 285.784C258.406 285.772 258.475 285.773 258.543 285.788C258.61 285.803 258.674 285.83 258.73 285.87C258.787 285.909 258.835 285.959 258.872 286.017C258.909 286.075 258.934 286.14 258.946 286.208C258.958 286.276 258.957 286.345 258.942 286.412C258.927 286.48 258.899 286.543 258.86 286.6C209.78 356.86 213.04 352.3 212.62 352.3Z" fill="white"/>
<path d="M88.9801 265.74C88.7201 265.74 92.0601 268.28 9.70006 210.34C9.64248 210.3 9.59354 210.249 9.55616 210.19C9.51878 210.131 9.49374 210.065 9.48254 209.996C9.47133 209.927 9.47419 209.856 9.49095 209.788C9.50771 209.72 9.53802 209.656 9.58006 209.6C63.4601 132.54 59.8201 137.7 60.1401 137.6C60.4601 137.5 59.7601 137.14 71.0601 145.04C71.1165 145.079 71.1647 145.13 71.2018 145.188C71.2389 145.246 71.2642 145.31 71.2763 145.378C71.2883 145.446 71.2869 145.515 71.2721 145.583C71.2573 145.65 71.2295 145.714 71.1901 145.77C71.1507 145.827 71.1005 145.875 71.0425 145.912C70.9845 145.949 70.9198 145.974 70.852 145.986C70.7842 145.998 70.7147 145.997 70.6475 145.982C70.5802 145.967 70.5165 145.939 70.4601 145.9L60.4601 138.84L10.7201 209.78L89.2801 264.78C89.3648 264.848 89.4271 264.94 89.4588 265.044C89.4905 265.148 89.4901 265.259 89.4577 265.362C89.4253 265.466 89.3624 265.558 89.2772 265.625C89.192 265.692 89.0884 265.732 88.9801 265.74Z" fill="white"/>
<path d="M190.82 230.24L184.4 225.74C184.286 225.66 184.208 225.539 184.184 225.402C184.16 225.265 184.191 225.124 184.27 225.01C184.35 224.896 184.471 224.818 184.608 224.794C184.745 224.769 184.886 224.8 185 224.88L191 229.08L209 203.28C209.08 203.166 209.201 203.088 209.338 203.064C209.475 203.039 209.616 203.07 209.73 203.15C209.844 203.23 209.922 203.351 209.946 203.488C209.971 203.625 209.94 203.766 209.86 203.88L191.5 230.1C191.424 230.203 191.312 230.274 191.187 230.3C191.061 230.326 190.931 230.305 190.82 230.24Z" fill="white"/>
<path d="M229.42 75.62L226.8 60.78C226.791 60.7119 226.767 60.6465 226.731 60.5879C226.695 60.5293 226.648 60.4787 226.592 60.4393C226.535 60.3998 226.471 60.3725 226.404 60.3588C226.337 60.3452 226.267 60.3456 226.2 60.36L211.36 62.96C211.292 62.9718 211.226 62.9969 211.168 63.034C211.109 63.0711 211.059 63.1193 211.019 63.1759C210.979 63.2326 210.95 63.2965 210.935 63.3641C210.92 63.4317 210.918 63.5017 210.93 63.57C210.942 63.6383 210.967 63.7036 211.004 63.7621C211.041 63.8207 211.089 63.8714 211.146 63.9113C211.203 63.9512 211.267 63.9796 211.334 63.9948C211.402 64.01 211.472 64.0118 211.54 64L225.14 61.6L202.62 93.76L183.1 80.1C182.988 80.0214 182.85 79.99 182.715 80.0124C182.581 80.0349 182.46 80.1094 182.38 80.22L161.24 110.42C161.19 110.474 161.153 110.538 161.129 110.608C161.106 110.678 161.098 110.752 161.106 110.826C161.114 110.899 161.137 110.97 161.174 111.033C161.211 111.097 161.261 111.152 161.321 111.195C161.381 111.237 161.449 111.267 161.521 111.281C161.594 111.296 161.668 111.295 161.74 111.278C161.812 111.262 161.879 111.23 161.938 111.186C161.996 111.141 162.045 111.085 162.08 111.02L182.94 81.26L202.44 94.92C202.556 94.995 202.696 95.0242 202.833 95.0021C202.97 94.9799 203.093 94.9079 203.18 94.8L226 62.2L228.38 75.8C228.392 75.8683 228.417 75.9336 228.454 75.9921C228.491 76.0507 228.539 76.1014 228.596 76.1413C228.653 76.1812 228.717 76.2096 228.784 76.2248C228.852 76.2401 228.922 76.2418 228.99 76.23C229.058 76.2182 229.124 76.193 229.182 76.156C229.241 76.1189 229.291 76.0707 229.331 76.014C229.371 75.9574 229.4 75.8934 229.415 75.8258C229.43 75.7582 229.432 75.6883 229.42 75.62Z" fill="white"/>
<path d="M88.34 95.64C88.1902 94.7766 87.8715 93.9513 87.4022 93.2113C86.9328 92.4713 86.3221 91.8313 85.6049 91.3278C84.8878 90.8243 84.0783 90.4672 83.2229 90.2771C82.3675 90.087 81.483 90.0676 80.62 90.22L77.32 90.8L75.32 79.72L84.74 78C84.878 77.9761 85.0007 77.8984 85.0814 77.784C85.162 77.6696 85.1939 77.5279 85.17 77.39C85.1462 77.2521 85.0685 77.1293 84.9541 77.0487C84.8397 76.968 84.698 76.9361 84.56 76.96L75.18 78.62L74.48 74.62C74.474 74.548 74.4529 74.4781 74.4183 74.4147C74.3837 74.3513 74.3363 74.2958 74.279 74.2517C74.2218 74.2076 74.156 74.176 74.0858 74.1588C74.0156 74.1416 73.9427 74.1392 73.8715 74.1517C73.8004 74.1643 73.7326 74.1915 73.6726 74.2317C73.6126 74.2719 73.5616 74.3241 73.5229 74.3851C73.4842 74.4461 73.4586 74.5145 73.4478 74.5859C73.4369 74.6574 73.4411 74.7303 73.46 74.8L74.16 78.8L70.88 79.38C70.0199 79.5297 69.1976 79.8474 68.4602 80.3148C67.7229 80.7823 67.0848 81.3905 66.5824 82.1045C66.08 82.8186 65.7232 83.6247 65.5324 84.4766C65.3415 85.3286 65.3203 86.2098 65.47 87.07C65.6198 87.9301 65.9374 88.7524 66.4049 89.4898C66.8724 90.2272 67.4805 90.8653 68.1946 91.3676C68.9087 91.87 69.7147 92.2268 70.5667 92.4177C71.4187 92.6085 72.2999 92.6297 73.16 92.48L76.48 92L78.48 103.08L69.12 104.74C69.0481 104.746 68.9781 104.767 68.9147 104.802C68.8513 104.836 68.7958 104.884 68.7518 104.941C68.7077 104.998 68.6761 105.064 68.6588 105.134C68.6416 105.204 68.6392 105.277 68.6518 105.349C68.6643 105.42 68.6916 105.487 68.7318 105.547C68.7719 105.607 68.8242 105.658 68.8852 105.697C68.9462 105.736 69.0146 105.761 69.086 105.772C69.1574 105.783 69.2303 105.779 69.3 105.76L78.66 104.12L79.38 108.12C79.414 108.245 79.4937 108.353 79.6032 108.423C79.7128 108.492 79.8444 108.518 79.9723 108.496C80.1001 108.473 80.2148 108.404 80.294 108.301C80.3732 108.198 80.411 108.069 80.4 107.94L79.7 103.94L82.98 103.36C84.7077 103.034 86.2379 102.042 87.2407 100.597C88.2434 99.1532 88.6382 97.3727 88.34 95.64ZM72.98 91.64C71.8898 91.8248 70.7692 91.6839 69.7586 91.2349C68.7481 90.7858 67.8924 90.0486 67.2989 89.1156C66.7053 88.1825 66.4002 87.0951 66.4218 85.9895C66.4433 84.8839 66.7906 83.8092 67.42 82.9C69.06 80.58 71.22 80.56 74.34 80L76.34 91.06L72.98 91.64ZM82.74 102.42L79.46 103L77.46 91.92C80.54 91.4 82.64 90.66 84.96 92.28C85.83 92.9295 86.4941 93.8164 86.8724 94.834C87.2507 95.8517 87.3273 96.9569 87.0929 98.017C86.8585 99.0771 86.323 100.047 85.5509 100.81C84.7788 101.574 83.8028 102.098 82.74 102.32V102.42Z" fill="white"/>
<path d="M221.44 252.22L213.56 253.62L212.16 245.74C212.151 245.693 212.132 245.648 212.106 245.607C212.079 245.567 212.045 245.533 212.005 245.506C211.965 245.479 211.92 245.46 211.873 245.45C211.826 245.441 211.777 245.441 211.73 245.45C211.683 245.459 211.638 245.477 211.598 245.504C211.557 245.531 211.523 245.565 211.496 245.605C211.469 245.645 211.45 245.69 211.441 245.737C211.431 245.784 211.431 245.833 211.44 245.88L212.82 253.74L204.94 255.14C204.855 255.169 204.783 255.227 204.736 255.304C204.69 255.381 204.672 255.472 204.687 255.561C204.701 255.649 204.746 255.73 204.815 255.789C204.883 255.847 204.97 255.879 205.06 255.88L212.94 254.48L214.34 262.36C214.369 262.445 214.427 262.517 214.504 262.564C214.581 262.61 214.672 262.628 214.761 262.613C214.85 262.599 214.93 262.553 214.989 262.485C215.047 262.417 215.08 262.33 215.08 262.24L213.68 254.36L221.56 252.96C221.645 252.931 221.718 252.873 221.764 252.796C221.81 252.719 221.828 252.628 221.814 252.539C221.799 252.45 221.754 252.369 221.685 252.311C221.617 252.253 221.53 252.22 221.44 252.22Z" fill="white"/>
<path d="M330.86 282.3L319.82 284.3L317.82 273.28C317.814 273.208 317.793 273.138 317.758 273.075C317.724 273.011 317.676 272.956 317.619 272.912C317.562 272.868 317.496 272.836 317.426 272.819C317.356 272.801 317.283 272.799 317.212 272.812C317.14 272.824 317.073 272.851 317.013 272.892C316.953 272.932 316.902 272.984 316.863 273.045C316.824 273.106 316.799 273.174 316.788 273.246C316.777 273.317 316.781 273.39 316.8 273.46L318.8 284.48L307.78 286.48C307.708 286.486 307.638 286.507 307.575 286.542C307.511 286.576 307.456 286.624 307.412 286.681C307.368 286.738 307.336 286.804 307.319 286.874C307.302 286.944 307.299 287.017 307.312 287.088C307.324 287.16 307.352 287.227 307.392 287.287C307.432 287.347 307.484 287.398 307.545 287.437C307.606 287.476 307.675 287.501 307.746 287.512C307.817 287.523 307.89 287.519 307.96 287.5L318.98 285.5L320.98 296.52C321.004 296.658 321.082 296.781 321.196 296.861C321.31 296.942 321.452 296.974 321.59 296.95C321.728 296.926 321.851 296.848 321.931 296.734C322.012 296.62 322.044 296.478 322.02 296.34L320.02 285.32L331.06 283.32C331.192 283.29 331.306 283.209 331.379 283.096C331.453 282.983 331.479 282.846 331.453 282.713C331.427 282.581 331.351 282.464 331.24 282.387C331.13 282.309 330.993 282.278 330.86 282.3Z" fill="white"/>
<path d="M126.1 336C124.938 335.98 123.807 335.618 122.85 334.957C121.893 334.297 121.152 333.369 120.721 332.289C120.29 331.21 120.187 330.027 120.426 328.889C120.665 327.751 121.234 326.709 122.063 325.894C122.892 325.079 123.944 324.527 125.085 324.307C126.227 324.088 127.408 324.21 128.48 324.659C129.553 325.109 130.468 325.865 131.112 326.833C131.756 327.801 132.1 328.937 132.1 330.1C132.1 330.883 131.944 331.659 131.642 332.381C131.339 333.104 130.895 333.759 130.337 334.308C129.778 334.857 129.116 335.289 128.389 335.58C127.661 335.871 126.883 336.013 126.1 336ZM126.1 325.26C125.143 325.26 124.207 325.544 123.411 326.076C122.615 326.608 121.995 327.363 121.628 328.248C121.262 329.132 121.166 330.105 121.353 331.044C121.54 331.983 122.001 332.846 122.678 333.522C123.355 334.199 124.217 334.66 125.156 334.847C126.095 335.034 127.068 334.938 127.952 334.572C128.837 334.205 129.593 333.585 130.124 332.789C130.656 331.993 130.94 331.057 130.94 330.1C130.914 328.832 130.393 327.624 129.489 326.735C128.585 325.846 127.368 325.345 126.1 325.34V325.26Z" fill="white"/>
<path d="M344.64 152.32C346.12 152.32 347.06 155.72 345.22 155.66C343.38 155.6 343.08 152.32 344.64 152.32Z" fill="white"/>
<path d="M236.16 181.88C236.6 183.18 233.82 185.34 233.52 183.88C233.22 182.42 235.72 180.58 236.16 181.88Z" fill="white"/>
<path d="M179.76 198.3C180.54 196.84 183.76 197 183.04 198.46C182.32 199.92 178.84 200 179.76 198.3Z" fill="white"/>
<path d="M101.2 253.18C94.8001 231.52 95.6201 230.34 94.5601 230.48L41.0601 237.18C40.924 237.2 40.8005 237.271 40.7151 237.379C40.6296 237.487 40.5884 237.623 40.6001 237.76L46.1201 282C46.14 282.136 46.2111 282.259 46.3189 282.345C46.4266 282.43 46.563 282.472 46.7001 282.46C78.2601 278.46 76.3001 278.8 76.5001 278.6C102.66 252.1 101.32 253.64 101.2 253.18ZM75.8801 277.68L47.1001 281.3L41.7001 238.16L49.0201 237.24L88.5401 264.9L75.8801 277.68Z" fill="white"/>
<path d="M59.52 196.6C61 195.9 61 199.18 59.78 199.56C58.56 199.94 58.58 197.04 59.52 196.6Z" fill="white"/>
<path d="M352 180.76L353.36 187.1L359.22 185.86L357.62 178.38C357.324 176.966 356.529 175.706 355.379 174.831C354.229 173.957 352.802 173.527 351.36 173.62C351.861 175.965 352.076 178.363 352 180.76Z" fill="white"/>
<path d="M328.2 192.42L334.06 191.18L333.14 186.78C333.14 186.78 331.88 178.58 331.7 177.74C330.877 177.851 330.086 178.131 329.377 178.563C328.668 178.995 328.057 179.569 327.581 180.249C327.105 180.93 326.776 181.702 326.614 182.516C326.452 183.33 326.461 184.169 326.64 184.98L328.2 192.42Z" fill="white"/>
<path d="M57.1401 233.48L63.1401 232.74L62.3801 226.54C62.3801 226.54 62.3801 219.62 62.3801 219.4C60.5476 219.658 58.8907 220.628 57.7678 222.099C56.6449 223.57 56.1464 225.424 56.3801 227.26L57.1401 233.48Z" fill="white"/>
<path d="M82.2601 230.34L88.2601 229.6L87.5001 223.42C87.2848 221.686 86.4287 220.095 85.1001 218.96C83.592 219.368 82.0631 219.695 80.5201 219.94C81.4683 223.335 82.0516 226.821 82.2601 230.34Z" fill="white"/>
<path d="M59.52 196.6C61 195.9 61 199.18 59.78 199.56C58.56 199.94 58.58 197.04 59.52 196.6Z" fill="white"/>
<path d="M179.76 198.3C180.54 196.84 183.76 197 183.04 198.46C182.32 199.92 178.84 200 179.76 198.3Z" fill="white"/>
<path d="M233.52 183.78C233.82 185.34 236.62 183.18 236.16 181.78C235.7 180.38 233.16 182 233.52 183.78Z" fill="white"/>
<path d="M344.64 152.32C346.12 152.32 347.04 155.72 345.22 155.66C343.4 155.6 343.08 152.32 344.64 152.32Z" fill="white"/>
<path d="M377.16 252C374.022 250.702 370.802 249.613 367.52 248.74C367.681 247.612 367.681 246.467 367.52 245.34C367.499 245.205 367.427 245.084 367.32 245C364.9 243.28 358.06 239.22 352.64 235.94C352.581 235.904 352.516 235.881 352.447 235.871C352.379 235.861 352.31 235.864 352.243 235.881C352.176 235.898 352.113 235.927 352.058 235.968C352.002 236.009 351.956 236.061 351.92 236.12C351.885 236.179 351.861 236.245 351.851 236.313C351.841 236.381 351.844 236.45 351.861 236.517C351.878 236.584 351.907 236.647 351.948 236.702C351.989 236.758 352.041 236.804 352.1 236.84C356.86 239.7 364.1 244.02 366.52 245.72C366.714 247.747 366.476 249.792 365.82 251.72C362.86 249.82 343.82 237.72 343.82 237.72C343.762 237.683 343.698 237.658 343.63 237.646C343.563 237.634 343.494 237.636 343.427 237.651C343.36 237.666 343.297 237.694 343.241 237.733C343.185 237.772 343.137 237.822 343.1 237.88C343.063 237.938 343.038 238.002 343.026 238.07C343.015 238.137 343.016 238.206 343.031 238.273C343.046 238.34 343.074 238.403 343.113 238.459C343.152 238.515 343.202 238.563 343.26 238.6C343.26 238.6 362.62 250.84 365.42 252.6C362.86 259.4 356.58 266.14 352.28 267.2C304.76 240.42 299.34 237.1 294.56 231.78C289.78 226.46 288.02 216.9 280.68 183.78C280.654 183.67 280.593 183.572 280.507 183.5C280.42 183.428 280.313 183.386 280.2 183.38C276.2 183.14 275.16 181.64 274.78 182.6C274.732 182.728 274.734 182.869 274.786 182.995C274.838 183.121 274.936 183.223 275.06 183.28C276.512 183.864 278.042 184.234 279.6 184.38C278.492 195.869 276.056 207.192 272.34 218.12C271.572 219.545 270.904 221.022 270.34 222.54C269.9 223.82 282.34 277.56 282.6 278.86C278.6 283.06 264.6 287.54 255.98 285.2C242.16 231.48 241.16 225.84 241.76 218.4C242.3 212 245.42 204.28 262.6 166.86C262.74 166.54 262.6 166.7 261.52 163.7C264.702 164.31 267.953 164.472 271.18 164.18C273.18 172.82 273.4 174.32 277.18 174.18C277.248 174.175 277.315 174.156 277.376 174.125C277.437 174.094 277.492 174.052 277.537 174C277.581 173.948 277.615 173.887 277.636 173.822C277.657 173.757 277.666 173.688 277.66 173.62C277.658 173.552 277.641 173.486 277.613 173.425C277.584 173.364 277.543 173.309 277.493 173.265C277.442 173.22 277.383 173.186 277.319 173.164C277.255 173.143 277.187 173.134 277.12 173.14C274.42 173.28 274.34 173 272.24 164.16C281.505 163.249 290.501 160.531 298.72 156.16C302.72 173.54 308.06 199.62 309.72 216.98C309.72 217.28 309.58 217.2 314.52 220.42C314.637 220.497 314.779 220.524 314.916 220.496C315.053 220.468 315.173 220.387 315.25 220.27C315.327 220.153 315.354 220.011 315.326 219.874C315.298 219.737 315.217 219.617 315.1 219.54C313.24 218.34 311.76 217.34 310.72 216.64C309.04 199.12 303.74 172.94 299.66 155.62C302.211 154.185 304.558 152.416 306.64 150.36C308.28 157.3 309.88 164.66 310.92 170.86C315.38 197.48 314.58 197.54 315.52 197.54C315.596 197.541 315.671 197.525 315.739 197.494C315.808 197.463 315.87 197.418 315.919 197.361C315.969 197.303 316.005 197.236 316.026 197.164C316.047 197.091 316.052 197.015 316.04 196.94C311.8 168.94 311.06 162.52 302.8 130.7C311.16 131.84 313 132.86 315.46 134.7C317.92 136.54 318.7 139.96 324.86 166.86C325.04 168.52 326.86 169 328.64 168.86C327.66 170.56 325.9 172.86 325.9 174.28C325.994 176.235 326.632 178.126 327.74 179.74C327.812 179.859 327.928 179.945 328.063 179.979C328.198 180.013 328.341 179.992 328.46 179.92C328.579 179.848 328.665 179.732 328.699 179.597C328.733 179.462 328.712 179.319 328.64 179.2C327.623 177.752 327.033 176.047 326.94 174.28C326.94 172.74 330.08 169.32 330.24 167.56C330.304 166.205 330.121 164.849 329.7 163.56C334.806 161.547 340.216 160.411 345.7 160.2C346.72 164.2 349.22 167.44 350.8 174.4C351.312 177.157 351.4 179.976 351.06 182.76C350.828 183.335 350.38 183.796 349.811 184.043C349.242 184.29 348.599 184.303 348.02 184.08C348.177 182.357 348.177 180.623 348.02 178.9C348.02 178.762 347.965 178.63 347.868 178.532C347.77 178.435 347.638 178.38 347.5 178.38C347.362 178.38 347.23 178.435 347.132 178.532C347.035 178.63 346.98 178.762 346.98 178.9C347.12 180.517 347.12 182.143 346.98 183.76C346.82 185.2 345.2 186.24 343.3 185.16C343.44 183.496 343.44 181.824 343.3 180.16C343.3 180.022 343.245 179.89 343.148 179.792C343.05 179.695 342.918 179.64 342.78 179.64C342.642 179.64 342.51 179.695 342.412 179.792C342.315 179.89 342.26 180.022 342.26 180.16C342.516 181.83 342.516 183.53 342.26 185.2C342.136 185.577 341.92 185.917 341.631 186.189C341.343 186.461 340.991 186.657 340.607 186.758C340.223 186.859 339.821 186.863 339.435 186.769C339.05 186.675 338.694 186.486 338.4 186.22C338.561 184.553 338.501 182.871 338.22 181.22C338.196 181.082 338.119 180.959 338.004 180.879C337.89 180.798 337.748 180.766 337.61 180.79C337.472 180.814 337.349 180.891 337.269 181.006C337.188 181.12 337.156 181.262 337.18 181.4C337.42 182.827 337.5 184.275 337.42 185.72C337.42 186.25 337.209 186.759 336.834 187.134C336.459 187.509 335.951 187.72 335.42 187.72C334.89 187.72 334.381 187.509 334.006 187.134C333.631 186.759 333.42 186.25 333.42 185.72C333.075 182.061 332.406 178.44 331.42 174.9C331.372 174.77 331.275 174.664 331.149 174.606C331.024 174.548 330.88 174.542 330.75 174.59C330.62 174.638 330.514 174.735 330.456 174.861C330.398 174.986 330.392 175.13 330.44 175.26C331.413 178.715 332.082 182.248 332.44 185.82C332.481 186.472 332.729 187.094 333.149 187.594C333.568 188.095 334.137 188.448 334.772 188.602C335.406 188.757 336.074 188.704 336.676 188.451C337.279 188.199 337.785 187.76 338.12 187.2C338.513 187.486 338.962 187.685 339.438 187.783C339.914 187.881 340.406 187.876 340.88 187.768C341.353 187.66 341.799 187.452 342.185 187.157C342.572 186.862 342.89 186.488 343.12 186.06C343.504 186.306 343.933 186.471 344.383 186.545C344.833 186.619 345.293 186.6 345.735 186.49C346.177 186.379 346.592 186.179 346.954 185.903C347.316 185.626 347.618 185.278 347.84 184.88C348.684 185.185 349.614 185.147 350.43 184.772C351.245 184.398 351.881 183.719 352.2 182.88C352.591 179.919 352.509 176.915 351.96 173.98C351.232 170.793 350.159 167.694 348.76 164.74C349.483 164.495 350.096 164.005 350.495 163.355C350.893 162.704 351.051 161.935 350.94 161.18C344.28 127.3 340.36 118.74 332.68 111.64C319.72 99.6399 304.1 98.7599 281.32 95.9199C278.74 95.5999 272.24 91.3199 267.44 86.9599C265.84 74.0999 265.44 72.9599 259.06 72.2399C258.64 69.3999 256.76 68.9799 249.9 68.4999C245.08 68.1599 242.88 68.4999 241.9 69.6599C240.92 70.8199 241.08 72.0799 241.48 74.1999C242.06 77.3399 243.74 78.1999 246.72 78.3799C249.38 93.4399 250.14 95.5799 252.82 95.8799C254.6 96.0599 255.9 95.6199 258.2 93.5199C258.2 95.6999 258 99.5199 255.72 100.92C248.54 105.06 245.58 106.78 243.08 110.32C238.34 117.04 238.6 121.42 237.74 150.8C233.1 154.8 227.94 159 223.38 162.8C213.38 170.8 213.38 170.8 213.38 171.78C213.34 172.872 213.719 173.938 214.44 174.76C214.026 175.073 213.518 175.235 213 175.22C209.14 175.36 205.92 174.08 204.38 175.78L203.6 176.66L201.6 176.04C199.4 175.42 198.06 177.86 194.74 179.74C193.52 180.44 192.74 180.22 188.2 179.6C187.718 178.536 187.039 177.573 186.2 176.76C185.72 176.34 159.12 173.22 158.46 173.14C157.28 136.08 156.06 130.18 151.9 126.44C149.02 123.84 144.28 122.64 137.32 122.88C135.979 122.052 134.844 120.931 134 119.6C134.895 119.726 135.797 119.793 136.7 119.8C139.46 119.8 140.24 119.08 140.88 117.68C141.88 115.48 142.1 111.08 141.08 100.08C143.316 99.0374 145.215 97.3882 146.56 95.3199C147.087 94.6367 147.344 93.7827 147.28 92.922C147.216 92.0613 146.836 91.2546 146.213 90.6569C145.591 90.0591 144.769 89.7125 143.907 89.6835C143.044 89.6545 142.201 89.9453 141.54 90.4999C140.92 87.4999 136.98 87.5999 135.54 89.6399C135.123 89.2435 134.612 88.9589 134.055 88.8125C133.499 88.666 132.914 88.6624 132.356 88.802C131.797 88.9416 131.283 89.2199 130.861 89.6111C130.439 90.0023 130.122 90.4937 129.94 91.0399C129.506 90.6512 128.974 90.3892 128.401 90.2826C127.828 90.1759 127.237 90.2286 126.692 90.435C126.147 90.6414 125.67 90.9935 125.311 91.4529C124.953 91.9122 124.728 92.4612 124.66 93.0399C124.2 92.746 123.666 92.5899 123.12 92.5899C122.574 92.5899 122.04 92.746 121.58 93.0399C120.24 94.0399 118.02 98.0399 125.98 113.4C111.84 125.4 103.98 128.08 98.1801 131.28C80.6201 137.48 65.5601 146.76 59.7001 155.42C54.6001 162.98 54.6601 176.24 56.8001 205.02C56.6001 206.62 59.3201 206.82 60.9401 206.82C60.8291 211.052 60.976 215.286 61.3801 219.5C61.3881 219.577 61.4134 219.652 61.454 219.718C61.4946 219.784 61.5496 219.84 61.6148 219.883C61.68 219.925 61.7539 219.952 61.8309 219.962C61.908 219.972 61.9863 219.964 62.0601 219.94C61.9271 222.078 61.9271 224.222 62.0601 226.36C62.1439 226.911 62.394 227.424 62.7768 227.829C63.1597 228.235 63.6572 228.514 64.2029 228.629C64.7485 228.744 65.3163 228.69 65.8304 228.474C66.3446 228.258 66.7805 227.89 67.0801 227.42C67.3351 227.866 67.7055 228.235 68.1524 228.488C68.5993 228.742 69.1062 228.87 69.6198 228.86C70.1334 228.849 70.6347 228.701 71.0712 228.43C71.5076 228.159 71.863 227.776 72.1001 227.32C72.4068 227.734 72.8185 228.059 73.2926 228.262C73.7667 228.464 74.2863 228.536 74.7977 228.471C75.309 228.406 75.7938 228.206 76.202 227.891C76.6102 227.576 76.9271 227.158 77.1201 226.68C77.5483 227.166 78.1286 227.492 78.7662 227.605C79.4037 227.718 80.0607 227.611 80.6298 227.302C81.1988 226.993 81.6462 226.5 81.8987 225.904C82.1513 225.308 82.1941 224.644 82.0201 224.02C82.0201 224.02 81.4601 221.22 81.2401 220.26C82.8081 220.173 84.3438 219.779 85.7601 219.1C86.9001 218.16 86.1001 211.7 85.1801 210.28C83.5525 208.406 81.8232 206.624 80.0001 204.94C81.4001 204.66 83.4801 204.04 83.4201 202.6C83.0601 195.14 82.5201 178.26 82.5001 169.4L87.9401 167.68C86.6801 181.56 86.2801 195.1 89.0401 208.58C92.0001 224 97.3601 244 100.1 253.18C95.4801 257.88 61.2601 292.36 59.0401 294.94C57.2601 296.94 59.3201 300.16 61.5001 302.12C59.5001 304.38 56.2401 308.12 54.8001 309.74C50.5401 314.3 72.5601 328.98 78.3401 332.58C82.9001 335.44 96.8801 343.86 95.8201 338.58C96.3801 330.18 88.2201 322.9 85.5401 315.72C86.8067 316.272 88.1607 316.597 89.5401 316.68C91.2001 316.68 91.3601 316 92.1401 315.16C130.74 273.16 133.16 269.76 134.14 262.44C134.96 256.44 133.3 243.4 131.72 230.12C138.38 234.12 146.38 238.88 155.88 244.98C156.52 251.26 157.88 284.18 157.48 296.32C157.06 298.74 160.26 299.88 162.68 300.32C162.1 303.74 160.42 308.68 160.26 310.68C159.74 317.06 191.02 321.06 200.66 321.06C202.9 321.06 207.86 321.06 207.2 318.86C205.68 309.74 192.82 307.22 187.06 301.28C189.06 301.16 191.94 300.56 191.86 298.6C189.54 237.44 188.82 230.38 184 223.18C179.46 216.38 175.72 213.38 156.62 201.64C163.54 202.06 172.88 202.14 185.58 202.14C185.733 202.151 185.884 202.1 186 202C186.648 201.361 187.213 200.641 187.68 199.86L190.94 200.26C190.805 200.81 190.848 201.39 191.062 201.914C191.277 202.439 191.652 202.882 192.135 203.18C192.617 203.477 193.181 203.615 193.746 203.572C194.312 203.529 194.848 203.307 195.28 202.94C195.4 203.374 195.626 203.771 195.937 204.096C196.248 204.421 196.635 204.664 197.063 204.803C197.491 204.942 197.947 204.972 198.39 204.891C198.833 204.81 199.249 204.621 199.6 204.34C199.78 204.763 200.063 205.133 200.424 205.416C200.786 205.7 201.213 205.887 201.666 205.961C202.119 206.035 202.584 205.993 203.017 205.839C203.449 205.685 203.836 205.424 204.14 205.08C204.398 205.534 204.784 205.901 205.251 206.135C205.717 206.369 206.242 206.46 206.76 206.396C207.278 206.332 207.766 206.116 208.161 205.774C208.556 205.433 208.841 204.983 208.98 204.48C208.98 204.3 208.98 204.14 208.98 203.96C211.42 204.58 213.56 204.64 214.64 202.36C216.92 203.12 218.42 201.98 219.32 199.76C219.77 199.83 220.231 199.765 220.644 199.572C221.057 199.38 221.404 199.069 221.64 198.68C221.986 198.288 222.225 197.813 222.333 197.301C222.442 196.79 222.417 196.259 222.26 195.76C222.745 195.351 223.122 194.828 223.355 194.239C223.589 193.649 223.673 193.01 223.6 192.38C224.4 191.6 225.6 190.5 226.84 189.4C228.22 190.52 230.58 191.68 231.7 190.4C239.7 184.28 255.58 170.62 261.14 165.68L261.52 166.62C244.36 204.02 241.24 211.76 240.7 218.32C240.08 225.92 241.08 231.6 255.04 285.74C255.063 285.829 255.108 285.91 255.171 285.976C255.234 286.043 255.313 286.092 255.4 286.12C256.706 286.486 258.047 286.714 259.4 286.8C253.96 293.937 249.681 301.888 246.72 310.36C245.66 313.8 276.72 302.58 286.72 292.36C286.791 292.292 286.84 292.204 286.862 292.108C286.883 292.012 286.875 291.912 286.84 291.82C285.473 288.023 283.745 284.367 281.68 280.9C282.341 280.439 282.945 279.902 283.48 279.3C283.538 279.24 283.58 279.166 283.601 279.086C283.622 279.005 283.622 278.92 283.6 278.84C279.08 259.06 275.4 243.52 271.3 222.7C272.72 218.7 276.04 213.52 283.08 199.94C287.9 221.44 289.74 228.1 293.66 232.46C298.56 237.9 304 241.24 351.84 268.18C352.3 268.46 354.12 267.6 354.6 267.34C355.64 278.44 360.48 299.34 362.6 296.98C369.02 289.32 377.02 262.2 377.44 252.34C377.421 252.266 377.386 252.198 377.338 252.139C377.289 252.08 377.229 252.033 377.16 252ZM349.56 160C347.44 158.94 343.1 159.08 336.96 160.42C333.8 161.12 327.66 162.72 325.56 165.16C324.82 161.88 324.14 158.98 323.56 156.38C326.36 151.02 343.8 147.68 347.56 150.38C348.22 153.24 348.88 156.42 349.56 159.86V160ZM275.56 94.7399C273.492 99.6807 270.804 104.338 267.56 108.6C265.424 106.217 263.584 103.584 262.08 100.76C266.336 98.8628 270.34 96.4443 274 93.5599L275.56 94.7399ZM252.88 95.1799C250.88 94.9599 250.16 92.4799 247.74 78.7199C249.48 78.7199 251.74 78.3999 254.42 78.0799C256.82 81.0799 257.78 81.8999 258.58 81.6399C258.98 81.4999 259.2 81.0599 259.2 80.3599C259.2 77.3999 261.86 77.8399 261.92 82.5799C261.927 82.6808 261.961 82.7778 262.02 82.8599C265.13 86.8277 268.85 90.2773 273.04 93.0799C269.476 95.8267 265.586 98.124 261.46 99.9199C260.48 99.3563 259.613 98.6173 258.9 97.7399C258.9 97.4799 258.9 97.2199 259.04 96.9599C260.538 94.7436 261.59 92.2576 262.14 89.6399C262.16 89.5308 262.144 89.4182 262.096 89.3185C262.047 89.2189 261.968 89.1374 261.869 89.0861C261.771 89.0347 261.659 89.0161 261.549 89.033C261.44 89.0499 261.338 89.1013 261.26 89.1799C256.16 94.5399 254.88 95.2599 252.84 95.0399L252.88 95.1799ZM258.58 98.9599C259.227 99.6475 259.967 100.24 260.78 100.72C259.9 102.72 258.92 105 258.24 107.14C257.8 104.373 257.902 101.548 258.54 98.8199L258.58 98.9599ZM132.88 108.58C132.958 108.484 133.001 108.364 133.001 108.24C133.001 108.116 132.958 107.996 132.88 107.9C130.34 103.9 132.72 101.9 133.98 104.5C134.96 106.5 137.3 106.5 137.18 101.54C138.055 101.304 138.91 101.003 139.74 100.64C140.84 112.64 140.4 116.36 139.24 117.98C137.88 119.3 133.58 115.08 132.26 113.74C132.186 113.66 132.09 113.605 131.983 113.583C131.877 113.561 131.766 113.573 131.667 113.617C131.567 113.661 131.484 113.736 131.429 113.829C131.374 113.923 131.35 114.032 131.36 114.14C131.58 118 132.34 120.88 135.36 123.06C126.26 123.893 117.26 125.587 108.48 128.12C97.4401 131.04 110.18 129.72 132.88 108.58ZM62.8801 226.34C62.7201 224.8 62.8801 223.14 62.8801 220.06C62.8801 217.4 65.8801 217.16 66.0601 219.74C66.2201 221.94 66.2601 223.52 66.3201 225.74C66.3996 226.191 66.2968 226.655 66.0343 227.03C65.7717 227.405 65.3709 227.66 64.9201 227.74C64.4692 227.819 64.0052 227.717 63.6301 227.454C63.2551 227.192 62.9996 226.791 62.9201 226.34H62.8801ZM67.6601 226.54C67.3801 224.96 67.4201 223.28 67.2201 220.04C67.0601 217.26 70.1801 216.9 70.5201 219.56C70.8201 221.9 70.9601 223.56 71.1601 225.74C71.1867 226.165 71.0615 226.586 70.8068 226.928C70.5521 227.27 70.1844 227.51 69.7691 227.606C69.3538 227.702 68.9179 227.648 68.5391 227.452C68.1602 227.257 67.8629 226.934 67.7001 226.54H67.6601ZM72.5201 226.22C72.1601 224.64 72.1001 222.78 71.7601 219.64C71.5201 217.48 73.3001 216.7 74.3801 217.64C72.7601 219.26 73.3801 220.9 74.9401 220.9H75.4201C75.6401 222.24 75.7601 223.2 76.0601 225.3C76.0921 225.729 75.9729 226.155 75.7232 226.505C75.4734 226.856 75.1089 227.107 74.693 227.217C74.277 227.326 73.8359 227.286 73.4463 227.104C73.0566 226.922 72.7431 226.609 72.5601 226.22H72.5201ZM77.4201 225.5C77.0184 223.948 76.7178 222.371 76.5201 220.78C77.5201 220.78 78.7601 220.64 80.0001 220.48C80.2201 221.5 80.8001 224.32 80.8001 224.32C80.8674 224.736 80.7864 225.163 80.5713 225.526C80.3561 225.888 80.0204 226.164 79.6228 226.305C79.2251 226.445 78.7908 226.441 78.3955 226.294C78.0003 226.147 77.6692 225.866 77.4601 225.5H77.4201ZM80.4601 207.16C81.7672 208.333 82.984 209.604 84.1001 210.96C84.9834 213.334 85.2517 215.894 84.8801 218.4C83.9001 219.24 76.7401 219.8 74.8801 219.8C74.5601 219.8 74.4001 219.8 74.3801 219.52C74.3801 218.86 75.5401 217.08 79.7801 216.02C79.918 215.999 80.0418 215.924 80.1243 215.811C80.2069 215.699 80.2413 215.558 80.2201 215.42C80.1989 215.282 80.1237 215.158 80.0112 215.076C79.8987 214.993 79.758 214.959 79.6201 214.98C74.2001 215.3 71.3401 213.62 70.5801 209.68C70.574 209.608 70.553 209.538 70.5184 209.475C70.4838 209.411 70.4363 209.356 70.3791 209.312C70.3218 209.268 70.256 209.236 70.1858 209.219C70.1157 209.201 70.0427 209.199 69.9716 209.212C69.9004 209.224 69.8327 209.251 69.7726 209.292C69.7126 209.332 69.6616 209.384 69.6229 209.445C69.5842 209.506 69.5586 209.574 69.5478 209.646C69.537 209.717 69.5412 209.79 69.5601 209.86C69.8092 211.594 70.6858 213.177 72.0238 214.309C73.3617 215.441 75.0683 216.042 76.8201 216C76.257 216.252 75.7209 216.56 75.2201 216.92C74.9143 216.624 74.5399 216.408 74.1305 216.292C73.721 216.175 73.2891 216.162 72.8733 216.253C72.4574 216.344 72.0706 216.537 71.7473 216.814C71.4239 217.09 71.1741 217.443 71.0201 217.84C70.7689 217.476 70.4278 217.184 70.0302 216.992C69.6325 216.799 69.1918 216.713 68.7509 216.741C68.3099 216.769 67.8838 216.911 67.5139 217.152C67.144 217.394 66.843 217.727 66.6401 218.12C66.3909 217.71 66.03 217.38 65.5997 217.168C65.1694 216.956 64.6876 216.872 64.2108 216.924C63.7341 216.977 63.2822 217.164 62.9083 217.464C62.5345 217.765 62.254 218.166 62.1001 218.62C61.7066 213.496 61.6331 208.353 61.8801 203.22C66.9874 202.01 72.2353 201.498 77.4801 201.7C77.5176 202.784 77.8107 203.843 78.3355 204.792C78.8604 205.741 79.602 206.552 80.5001 207.16H80.4601ZM57.5001 203.84C57.2801 200.76 57.0801 197.84 56.9001 195.12C60.2801 190.82 78.3801 189.12 81.7601 192.02C81.8801 195.66 82.0001 198.98 82.1201 201.54C78.0001 199.52 61.6401 200.94 57.5401 203.84H57.5001ZM94.6801 336.46C89.0801 328.78 63.3401 310.46 56.5401 309.34C59.5001 306.02 64.3601 300.26 67.9201 296.5C73.941 299.352 79.5732 302.961 84.6801 307.24C79.7601 317.1 93.5801 326.1 94.7201 336.46H94.6801ZM158.68 294.7C158.98 280.98 157.6 250.16 157 244.7C156.991 244.62 156.965 244.543 156.924 244.474C156.882 244.405 156.826 244.345 156.76 244.3C120.4 221 106 216.36 103.8 206.26C103.771 206.125 103.689 206.007 103.573 205.932C103.457 205.856 103.315 205.831 103.18 205.86C103.045 205.889 102.927 205.971 102.852 206.087C102.777 206.203 102.751 206.345 102.78 206.48C104 212 108.46 215.9 117.42 221.52C123.444 233.946 128.786 246.692 133.42 259.7C133.1 268.9 131.12 271.36 91.8601 314.06C90.6801 309.84 82.0801 303.66 78.4401 301.2C74.4401 298.48 66.4401 293.54 61.4601 293.94C65.4601 289.78 96.4801 258.44 101.12 253.7C101.185 253.632 101.232 253.549 101.257 253.458C101.281 253.367 101.282 253.271 101.26 253.18C98.5001 244 93.0401 223.84 90.0001 208.46C89.0574 203.729 88.4558 198.937 88.2001 194.12C94.8801 189.48 108.04 186.56 125.7 185.78C126.14 196.34 129.12 197.52 136.38 201.78C162.5 217.22 168.7 220.88 173.74 228.36C177.4 233.8 176.88 242.1 178.42 293.12C174 292.78 162.14 292 158.62 294.7H158.68ZM205.78 317.32C198.84 312.96 167.78 307.32 161.66 309.42C162.6 304.78 163.98 302.9 164.48 294.08C170.771 293.591 177.098 293.873 183.32 294.92C183.24 306.5 202 307.8 205.72 317.32H205.78ZM183.16 223.82C187.78 230.72 188.54 237.64 190.78 296.68C188.32 294.44 182.78 293.62 179.38 293.28C177.82 242.08 178.38 233.56 174.5 227.8C169 219.66 161.94 215.8 132.92 198.6C128.4 195.92 126.92 193 126.64 185.74L131.8 185.6C133.8 192.78 136.34 195.6 140.86 198.42C143.52 200.1 147.68 201.02 154.42 201.56C174.84 214 178.6 216.98 183.16 223.82ZM172.42 201.1C154.42 200.94 145.7 200.24 141.42 197.54C133.16 192.32 131.7 186.92 128 152.7C127.979 152.574 127.916 152.458 127.822 152.371C127.728 152.285 127.608 152.231 127.48 152.22C127.35 152.224 127.226 152.275 127.131 152.363C127.035 152.451 126.974 152.571 126.96 152.7C126.22 161.84 125.88 170.88 125.58 179.32C108.16 179.78 94.7001 182.46 87.9001 186.88C88.1614 172.612 89.3976 158.379 91.6001 144.28C91.6186 144.142 91.5817 144.002 91.4973 143.892C91.4129 143.781 91.288 143.708 91.1501 143.69C91.0122 143.671 90.8725 143.708 90.7619 143.793C90.6512 143.877 90.5786 144.002 90.5601 144.14C89.7601 150.14 89.0401 155.76 88.5601 160.98C84.2238 164.429 79.7038 167.64 75.0201 170.6C74.9142 170.667 74.8358 170.769 74.7995 170.889C74.7632 171.009 74.7713 171.138 74.8224 171.252C74.8735 171.366 74.9641 171.458 75.0775 171.511C75.191 171.564 75.3197 171.574 75.4401 171.54C77.0001 171.12 79.1601 170.48 81.4401 169.82C81.4401 175.24 81.6601 183.48 81.9001 190.76C77.2201 188.36 61.6801 189.8 57.0001 193.74C55.7201 172.9 56.2601 162.36 60.5001 156.1C67.2201 146 87.1401 134.86 108.78 129.12C132.4 122.88 145.42 122.32 150.98 127.32C154.86 130.8 156 136.6 157.18 173.12C156.54 173.12 156 172.96 155.58 172.94C155.512 172.932 155.443 172.938 155.377 172.957C155.31 172.975 155.249 173.007 155.195 173.05C155.141 173.092 155.096 173.145 155.063 173.205C155.029 173.266 155.008 173.332 155 173.4C154.992 173.468 154.998 173.537 155.017 173.603C155.036 173.67 155.067 173.731 155.11 173.785C155.153 173.839 155.206 173.884 155.266 173.917C155.326 173.951 155.392 173.972 155.46 173.98C157.46 174.2 166.4 175.26 174.1 176.22C178.44 180.48 178.1 196.22 172.42 201.1ZM185.4 201.1H174C178.96 195.6 179.54 181.84 175.72 176.38C180.08 176.94 183.88 177.44 185.48 177.72C190 182 190.66 196 185.4 201.14V201.1ZM194.88 201.72C194.659 202.052 194.323 202.29 193.937 202.39C193.551 202.49 193.142 202.443 192.788 202.26C192.434 202.077 192.159 201.769 192.018 201.397C191.876 201.024 191.877 200.612 192.02 200.24C192.54 198.9 193.1 197.56 193.48 196.8C194.54 194.62 197 195.52 196.24 197.94C196 199.02 195.22 200.96 194.88 201.76V201.72ZM200.32 198.86C200 200.22 199.66 201.62 199.26 202.86C198.66 204.86 195.66 203.82 196.3 201.48C196.54 200.62 197.06 198.98 197.46 197.8C198.24 195.52 200.92 196.4 200.32 198.9V198.86ZM204.32 199.9C204.144 201.245 203.897 202.581 203.58 203.9C203.461 204.308 203.184 204.653 202.811 204.857C202.438 205.061 201.999 205.109 201.59 204.99C201.182 204.871 200.837 204.594 200.633 204.221C200.429 203.847 200.381 203.408 200.5 203C200.76 201.86 201.14 200.32 201.48 199C202.14 196.68 204.68 197.46 204.34 200L204.32 199.9ZM208.32 200.52C208.284 201.787 208.157 203.051 207.94 204.3C207.58 206.04 204.78 205.48 204.92 203.98C204.92 203.3 205.34 200.92 205.56 199.76C206 197.48 208.4 198.16 208.32 200.56V200.52ZM221.78 194.86C220.107 193.166 218.124 191.808 215.94 190.86C215.819 190.807 215.683 190.802 215.558 190.845C215.434 190.889 215.331 190.978 215.27 191.095C215.209 191.212 215.194 191.348 215.23 191.475C215.265 191.602 215.347 191.711 215.46 191.78C216.6 192.38 221.02 194.54 221.46 196.24C221.514 196.552 221.494 196.872 221.4 197.175C221.306 197.477 221.141 197.753 220.92 197.98C220.22 198.94 219.26 199.36 213.86 195.6C213.746 195.52 213.605 195.489 213.468 195.514C213.331 195.538 213.21 195.616 213.13 195.73C213.051 195.844 213.02 195.985 213.044 196.122C213.068 196.259 213.146 196.38 213.26 196.46C214.852 197.66 216.585 198.66 218.42 199.44C218.296 199.884 218.074 200.295 217.769 200.641C217.464 200.988 217.085 201.261 216.66 201.44C214.98 201.96 212.66 199.94 211.48 199.12C211.363 199.043 211.221 199.016 211.084 199.044C210.947 199.072 210.827 199.153 210.75 199.27C210.673 199.387 210.646 199.529 210.674 199.666C210.702 199.803 210.783 199.923 210.9 200C211.829 200.72 212.797 201.388 213.8 202C212.94 203.76 211.22 203.48 209.26 202.98C209.26 202.18 209.38 201.38 209.4 200.58C209.52 197.52 206.62 196.42 205.2 198.16C205.074 197.786 204.855 197.45 204.563 197.184C204.27 196.918 203.915 196.731 203.531 196.641C203.146 196.551 202.745 196.56 202.365 196.669C201.985 196.777 201.639 196.98 201.36 197.26C201.25 196.856 201.036 196.487 200.74 196.191C200.443 195.895 200.074 195.682 199.67 195.573C199.265 195.464 198.839 195.462 198.434 195.569C198.029 195.675 197.659 195.886 197.36 196.18C196.68 194.18 193.88 193.8 192.62 196.38C192.28 197.06 191.8 198.16 191.36 199.32L188.3 198.94C190.696 193.202 190.825 186.769 188.66 180.94C190.09 181.179 191.532 181.339 192.98 181.42C193.759 181.454 194.53 181.259 195.2 180.86C198.32 179.1 199.78 176.86 201.2 177.26L202.8 177.74C201.18 179.74 199.58 182.02 197.52 185.02C195.46 188.02 200.44 190.38 206.46 183.62C208.554 184.576 210.84 185.034 213.14 184.96C219.3 188.16 222.44 190.7 222.7 192.76C222.713 193.162 222.638 193.563 222.479 193.933C222.32 194.302 222.081 194.633 221.78 194.9V194.86ZM223.34 191.3C222.4 189.3 219.72 187.3 214.96 184.62C215.698 184.488 216.416 184.266 217.1 183.96C217.206 183.893 217.284 183.791 217.321 183.671C217.357 183.551 217.349 183.422 217.298 183.308C217.247 183.193 217.156 183.101 217.043 183.049C216.929 182.996 216.8 182.986 216.68 183.02C215.033 183.62 213.28 183.872 211.531 183.758C209.782 183.644 208.075 183.168 206.52 182.36C206.414 182.306 206.292 182.291 206.175 182.316C206.059 182.342 205.955 182.407 205.88 182.5C201.2 187.94 197.06 187.34 198.34 185.46C200.373 182.341 202.612 179.361 205.04 176.54C205.68 175.82 207.18 175.96 209.04 176.14C214.88 176.7 214 176.4 218.46 172.64C222.976 176.186 226.817 180.514 229.8 185.42C228.18 186.92 225.12 189.64 223.34 191.34V191.3ZM239.02 183.3C236.52 185.3 234.16 187.3 232.2 188.82C231.8 184.14 220.94 171.34 215.98 170.3C217.8 168.76 220.36 166.66 223.28 164.3C230 165.06 239.44 177.46 239.02 183.28V183.3ZM259.18 157.3C255.18 146.42 249.64 130.34 249.4 128.34C249 124.149 249 119.93 249.4 115.74C249.376 115.617 249.31 115.506 249.213 115.427C249.117 115.347 248.995 115.303 248.87 115.303C248.745 115.303 248.623 115.347 248.527 115.427C248.43 115.506 248.364 115.617 248.34 115.74C247.93 120.003 247.93 124.296 248.34 128.56C248.52 130.04 251.32 138.42 254.34 147.06C255.35 154.468 255.745 161.947 255.52 169.42C251.14 173.22 245.32 178.18 240.04 182.54C239.6 176.22 231.16 165.22 224.32 163.52C228.86 159.84 233.94 155.72 238.5 151.76C238.556 151.713 238.601 151.655 238.632 151.59C238.663 151.524 238.679 151.453 238.68 151.38C239.5 121.92 239.32 117.66 243.84 111.24C247.5 106.04 255.22 103.24 257 101.52C256.832 104.292 257.014 107.073 257.54 109.8C257.572 109.913 257.64 110.013 257.734 110.085C257.828 110.156 257.942 110.194 258.06 110.194C258.178 110.194 258.293 110.156 258.386 110.085C258.48 110.013 258.548 109.913 258.58 109.8C258.75 108.911 258.984 108.035 259.28 107.18C259.563 108.15 259.945 109.088 260.42 109.98C259.96 114.44 257.6 144.7 257.6 146.9C258.874 149.714 260.5 152.356 262.44 154.76C262.489 154.812 262.548 154.854 262.613 154.882C262.678 154.91 262.749 154.925 262.82 154.925C262.891 154.925 262.962 154.91 263.027 154.882C263.093 154.854 263.151 154.812 263.2 154.76C264.1 153.78 268.9 147.9 268.8 147.04C268.14 142.12 263.68 113.56 262.8 110C263.472 108.93 264.066 107.814 264.58 106.66C265.37 107.76 266.254 108.791 267.22 109.74C267.269 109.795 267.329 109.84 267.396 109.87C267.463 109.9 267.536 109.916 267.61 109.916C267.684 109.916 267.757 109.9 267.824 109.87C267.891 109.84 267.951 109.795 268 109.74C271.393 105.315 274.209 100.476 276.38 95.3399C280.18 97.5599 280.8 97.3399 285.18 97.8399C307.08 100.48 320.3 102.06 331.9 112.8C338.34 118.8 342.1 125.84 347.22 149.14C342 147.02 327.22 150.04 323.22 155.02C319.22 138 318.44 135.68 316.12 133.98C312.48 131.32 310.12 130.28 289.04 128.28C288.921 128.271 288.801 128.303 288.703 128.371C288.604 128.44 288.533 128.54 288.5 128.655C288.467 128.771 288.475 128.894 288.522 129.004C288.57 129.114 288.654 129.205 288.76 129.26C293.965 131.956 298.966 135.031 303.72 138.46C304.14 140.1 304.58 141.88 305.04 143.72C295.7 153.82 269.68 160.52 259.18 157.28V157.3Z" fill="white"/>
<path d="M335.36 179.76C335.238 179.751 335.123 179.701 335.034 179.618C334.944 179.535 334.885 179.424 334.867 179.304C334.848 179.183 334.871 179.06 334.931 178.954C334.992 178.848 335.087 178.765 335.2 178.72C337.7 177.94 345.92 175.86 348.48 175.42C348.55 175.401 348.623 175.397 348.694 175.408C348.766 175.419 348.834 175.444 348.895 175.483C348.956 175.522 349.008 175.573 349.048 175.633C349.089 175.693 349.116 175.76 349.128 175.831C349.141 175.903 349.138 175.976 349.121 176.046C349.104 176.116 349.072 176.182 349.028 176.239C348.984 176.296 348.929 176.344 348.865 176.378C348.802 176.413 348.732 176.434 348.66 176.44C344.14 177.24 335.56 179.76 335.36 179.76Z" fill="white"/>
<path d="M310.8 197.68L321.5 222.76L330.2 220.9L329.22 216.28L333.86 215.3L334.84 219.92L365.06 213.5L364.08 208.88L368.74 207.88L369.72 212.5L378.4 210.66L378 183.18C305.38 198.6 310.68 197.4 310.8 197.68Z" fill="white"/>
<path d="M388.82 228.6L379.44 184.6L379.86 211.3C379.863 211.469 379.807 211.634 379.701 211.765C379.595 211.897 379.446 211.987 379.28 212.02L370 214L371 218.76L366.36 219.76L365.34 214.98L335.12 221.4L336.14 226.18L331.48 227.18L330.48 222.4L321.2 224.4C321.039 224.436 320.87 224.413 320.723 224.336C320.577 224.259 320.462 224.133 320.4 223.98L310 199.3L319.38 243.3C319.394 243.367 319.422 243.431 319.461 243.487C319.499 243.543 319.549 243.592 319.607 243.629C319.664 243.666 319.729 243.691 319.796 243.704C319.864 243.716 319.933 243.715 320 243.7L388.48 229.14C388.587 229.098 388.677 229.023 388.738 228.925C388.799 228.828 388.828 228.714 388.82 228.6Z" fill="white"/>
<path d="M62.92 226.34C62.76 224.8 62.92 223.14 62.92 220.06C62.92 217.4 65.92 217.16 66.1 219.74C66.26 221.94 66.3001 223.52 66.3601 225.74C66.4396 226.196 66.3347 226.665 66.0684 227.044C65.8021 227.423 65.3962 227.68 64.9401 227.76C64.4839 227.84 64.0148 227.735 63.636 227.468C63.2571 227.202 62.9996 226.796 62.92 226.34Z" fill="#B2BEC3"/>
<path d="M67.7001 226.54C67.4201 224.96 67.4601 223.28 67.2601 220.04C67.1001 217.26 70.2201 216.9 70.5601 219.56C70.8601 221.9 71.0001 223.56 71.2001 225.74C71.2685 226.189 71.1645 226.648 70.9088 227.024C70.6531 227.399 70.2648 227.664 69.8217 227.766C69.3786 227.867 68.9137 227.797 68.5201 227.57C68.1266 227.342 67.8336 226.974 67.7001 226.54Z" fill="#B2BEC3"/>
<path d="M72.5601 226.22C72.2001 224.64 72.1401 222.78 71.8001 219.64C71.5601 217.48 73.3401 216.7 74.4201 217.64C72.8001 219.26 73.4201 220.9 74.9801 220.9H75.4601C75.6801 222.24 75.8001 223.2 76.1001 225.3C76.165 225.748 76.0623 226.205 75.8117 226.582C75.5611 226.959 75.1802 227.231 74.7419 227.345C74.3036 227.459 73.8386 227.407 73.436 227.199C73.0335 226.992 72.7216 226.643 72.5601 226.22Z" fill="#B2BEC3"/>
<path d="M77.4601 225.5C77.0584 223.948 76.7578 222.371 76.5601 220.78C77.5601 220.78 78.8001 220.64 80.0401 220.48C80.2601 221.5 80.8401 224.32 80.8401 224.32C80.9417 224.753 80.8795 225.208 80.6655 225.598C80.4515 225.987 80.1008 226.284 79.681 226.431C79.2612 226.577 78.802 226.563 78.392 226.391C77.9819 226.22 77.6499 225.902 77.4601 225.5Z" fill="#B2BEC3"/>
<path d="M80.5001 207.16C81.8072 208.333 83.024 209.604 84.1401 210.96C85.0234 213.335 85.2917 215.894 84.9201 218.4C83.9401 219.24 76.7801 219.8 74.9201 219.8C74.6001 219.8 74.4401 219.8 74.4201 219.52C74.4201 218.86 75.5801 217.08 79.8201 216.02C79.958 215.999 80.0818 215.924 80.1644 215.811C80.2469 215.699 80.2813 215.558 80.2601 215.42C80.2389 215.282 80.1637 215.158 80.0512 215.076C79.9387 214.993 79.798 214.959 79.6601 214.98C74.2401 215.3 71.3801 213.62 70.6201 209.68C70.614 209.608 70.593 209.538 70.5584 209.475C70.5238 209.411 70.4763 209.356 70.4191 209.312C70.3618 209.268 70.296 209.236 70.2259 209.219C70.1557 209.202 70.0827 209.199 70.0116 209.212C69.9404 209.224 69.8727 209.252 69.8127 209.292C69.7526 209.332 69.7016 209.384 69.6629 209.445C69.6242 209.506 69.5986 209.575 69.5878 209.646C69.577 209.717 69.5812 209.79 69.6001 209.86C69.8484 211.588 70.7192 213.165 72.0488 214.296C73.3783 215.426 75.0751 216.032 76.8201 216C76.257 216.252 75.7209 216.56 75.2201 216.92C74.9143 216.624 74.54 216.408 74.1305 216.292C73.721 216.175 73.2891 216.162 72.8733 216.253C72.4574 216.344 72.0706 216.537 71.7473 216.814C71.4239 217.091 71.1741 217.443 71.0201 217.84C70.7689 217.477 70.4278 217.184 70.0302 216.992C69.6325 216.799 69.1918 216.713 68.7509 216.741C68.3099 216.769 67.8838 216.911 67.5139 217.153C67.144 217.394 66.843 217.727 66.6401 218.12C66.391 217.71 66.03 217.38 65.5997 217.168C65.1694 216.956 64.6876 216.872 64.2109 216.924C63.7341 216.977 63.2823 217.164 62.9084 217.464C62.5345 217.765 62.2541 218.166 62.1001 218.62C61.7066 213.496 61.6331 208.353 61.8801 203.22C66.9874 202.01 72.2353 201.498 77.4801 201.7C77.5176 202.784 77.8107 203.843 78.3355 204.792C78.8604 205.741 79.6021 206.552 80.5001 207.16Z" fill="#B2BEC3"/>
<path d="M108.5 128.12C97.4401 131.04 110.18 129.72 132.88 108.58C132.958 108.484 133.001 108.364 133.001 108.24C133.001 108.116 132.958 107.996 132.88 107.9C130.34 103.9 132.72 101.9 133.98 104.5C134.96 106.5 137.3 106.5 137.18 101.54C138.055 101.304 138.91 101.003 139.74 100.64C140.84 112.64 140.4 116.36 139.24 117.98C137.88 119.3 133.58 115.08 132.26 113.74C132.186 113.66 132.09 113.605 131.983 113.583C131.877 113.561 131.766 113.573 131.667 113.617C131.567 113.661 131.484 113.736 131.429 113.829C131.374 113.923 131.35 114.032 131.36 114.14C131.58 118 132.34 120.88 135.36 123.06C126.267 123.894 117.273 125.589 108.5 128.12Z" fill="#B2BEC3"/>
</svg>
