<svg width="400" height="401" viewBox="0 0 400 401" fill="none" xmlns="http://www.w3.org/2000/svg">
<path d="M152.34 243.902L113.14 155.902C112.708 154.935 112.088 154.063 111.317 153.337C110.545 152.611 109.638 152.046 108.646 151.674C107.654 151.302 106.599 151.13 105.54 151.17C104.482 151.209 103.442 151.457 102.48 151.902L85 159.582C84.0304 160.014 83.1564 160.634 82.4289 161.407C81.7015 162.18 81.1351 163.09 80.7629 164.084C80.3906 165.078 80.2198 166.136 80.2605 167.197C80.3012 168.257 80.5526 169.299 81 170.262C128.78 277.822 125.48 270.682 125.86 270.682C125.923 270.681 125.986 270.664 126.041 270.633C126.096 270.602 126.143 270.558 126.177 270.504C126.211 270.451 126.231 270.389 126.235 270.326C126.239 270.263 126.227 270.199 126.2 270.142L81.58 169.942C80.7916 168.165 80.7405 166.147 81.438 164.332C82.1354 162.518 83.5244 161.054 85.3 160.262L102.78 152.482C104.557 151.693 106.575 151.642 108.389 152.34C110.204 153.037 111.668 154.426 112.46 156.202C153.36 247.882 151.54 244.422 152 244.422C152.061 244.42 152.12 244.403 152.173 244.373C152.226 244.343 152.272 244.301 152.305 244.25C152.338 244.199 152.359 244.141 152.365 244.08C152.371 244.02 152.362 243.958 152.34 243.902Z" fill="#1890ff"/>
<path d="M171 285.822L165 272.122C164.949 272.051 164.875 272 164.791 271.978C164.708 271.955 164.618 271.962 164.539 271.997C164.459 272.032 164.394 272.093 164.354 272.171C164.314 272.248 164.302 272.337 164.32 272.422L170.32 286.142C171.108 287.919 171.159 289.936 170.462 291.751C169.765 293.566 168.376 295.03 166.6 295.822L149.12 303.602C147.345 304.391 145.33 304.445 143.516 303.752C141.701 303.058 140.236 301.674 139.44 299.902L133.86 287.342C133.839 287.296 133.809 287.254 133.772 287.22C133.735 287.186 133.692 287.159 133.644 287.141C133.597 287.123 133.547 287.115 133.496 287.117C133.446 287.119 133.396 287.131 133.35 287.152C133.304 287.173 133.263 287.203 133.228 287.24C133.194 287.277 133.167 287.32 133.149 287.367C133.132 287.415 133.124 287.465 133.125 287.516C133.127 287.566 133.139 287.616 133.16 287.662L138.76 300.202C139.183 301.178 139.796 302.059 140.563 302.796C141.33 303.532 142.237 304.108 143.229 304.489C144.222 304.871 145.281 305.051 146.344 305.019C147.407 304.987 148.452 304.743 149.42 304.302L166.92 296.502C167.897 296.077 168.779 295.462 169.515 294.693C170.25 293.923 170.825 293.014 171.205 292.019C171.585 291.025 171.763 289.964 171.727 288.9C171.692 287.836 171.445 286.789 171 285.822Z" fill="#1890ff"/>
<path d="M219.6 272.222L204 279.202C202.226 279.989 200.211 280.04 198.4 279.342C196.588 278.644 195.128 277.256 194.34 275.482L185.56 255.782C185.52 255.689 185.445 255.616 185.351 255.578C185.258 255.541 185.153 255.542 185.06 255.582C184.967 255.621 184.894 255.696 184.856 255.79C184.819 255.884 184.82 255.989 184.86 256.082L193.64 275.782C194.072 276.751 194.692 277.625 195.465 278.353C196.238 279.08 197.148 279.646 198.142 280.019C199.136 280.391 200.194 280.562 201.255 280.521C202.316 280.48 203.357 280.229 204.32 279.782L219.98 272.822C220.026 272.76 220.052 272.686 220.055 272.609C220.058 272.532 220.038 272.456 219.997 272.391C219.956 272.326 219.896 272.275 219.825 272.244C219.754 272.214 219.675 272.206 219.6 272.222Z" fill="#1890ff"/>
<path d="M226 261.862L216 239.342C215.949 239.266 215.873 239.211 215.786 239.187C215.698 239.162 215.605 239.17 215.522 239.209C215.44 239.248 215.374 239.315 215.337 239.398C215.3 239.481 215.294 239.574 215.32 239.662L225.32 262.182C225.371 262.257 225.447 262.312 225.534 262.337C225.622 262.361 225.715 262.353 225.798 262.314C225.88 262.276 225.946 262.209 225.983 262.126C226.02 262.042 226.026 261.949 226 261.862Z" fill="#1890ff"/>
<path d="M201.22 206.182L188.1 176.682C187.668 175.714 187.048 174.843 186.277 174.117C185.505 173.391 184.598 172.826 183.606 172.454C182.614 172.082 181.559 171.91 180.5 171.949C179.442 171.988 178.402 172.237 177.44 172.682L160 180.422C159.033 180.853 158.161 181.473 157.435 182.245C156.71 183.016 156.144 183.924 155.772 184.916C155.4 185.907 155.229 186.963 155.268 188.021C155.307 189.08 155.556 190.12 156 191.082L172 227.282C172.04 227.374 172.115 227.448 172.209 227.485C172.302 227.523 172.407 227.521 172.5 227.482C172.593 227.442 172.666 227.367 172.704 227.273C172.741 227.179 172.74 227.074 172.7 226.982L156.58 190.782C156.187 189.902 155.971 188.953 155.946 187.99C155.92 187.027 156.085 186.068 156.43 185.169C156.776 184.27 157.296 183.448 157.96 182.75C158.624 182.052 159.419 181.492 160.3 181.102L177.78 173.322C178.66 172.928 179.608 172.713 180.571 172.687C181.534 172.661 182.493 172.826 183.392 173.172C184.292 173.517 185.114 174.037 185.812 174.701C186.51 175.365 187.07 176.161 187.46 177.042L200.56 206.482C200.614 206.542 200.686 206.583 200.765 206.6C200.844 206.616 200.926 206.607 201 206.574C201.074 206.54 201.135 206.484 201.174 206.414C201.214 206.343 201.23 206.262 201.22 206.182Z" fill="#1890ff"/>
<path d="M262.14 195.502L251.62 171.882C250.727 169.946 249.107 168.441 247.111 167.693C245.116 166.944 242.906 167.012 240.96 167.882L223.46 175.682C222.493 176.113 221.621 176.733 220.895 177.505C220.17 178.276 219.604 179.184 219.232 180.176C218.86 181.167 218.689 182.223 218.728 183.281C218.767 184.34 219.016 185.38 219.46 186.342L228.98 207.742C229.031 207.817 229.107 207.872 229.194 207.896C229.282 207.921 229.375 207.913 229.458 207.874C229.54 207.835 229.606 207.768 229.643 207.685C229.68 207.602 229.686 207.509 229.66 207.422L220 185.942C219.212 184.164 219.161 182.147 219.858 180.332C220.555 178.517 221.944 177.053 223.72 176.262L241.2 168.482C242.977 167.693 244.995 167.642 246.809 168.339C248.624 169.037 250.088 170.426 250.88 172.202L261.38 195.802C261.66 196.242 262.34 195.942 262.14 195.502Z" fill="#1890ff"/>
<path d="M335.44 212.682L319.12 176.042C319.108 175.986 319.085 175.934 319.05 175.889C319.016 175.844 318.972 175.807 318.922 175.781C318.871 175.755 318.816 175.741 318.759 175.739C318.703 175.737 318.646 175.748 318.595 175.771C318.543 175.794 318.497 175.828 318.46 175.871C318.423 175.914 318.396 175.965 318.381 176.02C318.366 176.074 318.364 176.132 318.374 176.187C318.384 176.243 318.407 176.296 318.44 176.342L334.76 213.002C335.548 214.776 335.598 216.79 334.901 218.602C334.203 220.414 332.814 221.874 331.04 222.662L316.32 229.222C316.274 229.241 316.232 229.27 316.197 229.306C316.163 229.341 316.135 229.384 316.116 229.43C316.098 229.477 316.089 229.526 316.089 229.576C316.09 229.626 316.1 229.676 316.12 229.722C316.14 229.768 316.168 229.809 316.204 229.844C316.24 229.879 316.282 229.907 316.329 229.925C316.375 229.944 316.425 229.953 316.475 229.952C316.525 229.952 316.574 229.941 316.62 229.922L331.34 223.362C332.318 222.939 333.202 222.325 333.94 221.557C334.678 220.788 335.255 219.879 335.637 218.884C336.019 217.889 336.198 216.828 336.164 215.763C336.131 214.698 335.884 213.65 335.44 212.682Z" fill="#1890ff"/>
<path d="M304.64 145.302L297.8 129.962C297.76 129.869 297.759 129.764 297.796 129.67C297.834 129.577 297.907 129.501 298 129.462C298.093 129.422 298.198 129.421 298.291 129.458C298.385 129.496 298.46 129.569 298.5 129.662L305.34 145.002C305.36 145.048 305.37 145.097 305.371 145.147C305.371 145.197 305.362 145.247 305.344 145.293C305.325 145.34 305.297 145.382 305.263 145.418C305.228 145.453 305.186 145.482 305.14 145.502C305.047 145.541 304.942 145.543 304.849 145.505C304.755 145.468 304.68 145.395 304.64 145.302Z" fill="#1890ff"/>
<path d="M290 110.682L277.5 82.6815C277.068 81.7144 276.448 80.8427 275.677 80.117C274.905 79.3912 273.998 78.8259 273.006 78.4538C272.014 78.0817 270.959 77.9102 269.9 77.9493C268.842 77.9884 267.802 78.2373 266.84 78.6815L249.34 86.4815C248.373 86.9134 247.501 87.5331 246.775 88.3046C246.05 89.076 245.484 89.9839 245.112 90.9756C244.74 91.9673 244.569 93.0229 244.608 94.0814C244.647 95.1399 244.896 96.18 245.34 97.1415C266.62 144.962 265.2 142.022 265.56 142.022C265.623 142.021 265.686 142.004 265.741 141.973C265.796 141.942 265.843 141.898 265.877 141.844C265.911 141.79 265.931 141.729 265.935 141.666C265.939 141.602 265.927 141.539 265.9 141.482L246 96.6815C245.607 95.8019 245.391 94.8534 245.366 93.8903C245.34 92.9272 245.505 91.9685 245.85 91.0692C246.196 90.1699 246.716 89.3476 247.38 88.6496C248.044 87.9516 248.839 87.3915 249.72 87.0015L267.2 79.2215C268.975 78.4319 270.99 78.3779 272.805 79.0714C274.619 79.765 276.084 81.1494 276.88 82.9215C290.18 112.742 289.32 111.202 289.72 111.202C289.776 111.191 289.828 111.168 289.874 111.135C289.92 111.101 289.957 111.058 289.984 111.008C290.011 110.958 290.026 110.903 290.029 110.847C290.032 110.79 290.022 110.734 290 110.682Z" fill="#1890ff"/>
<path d="M370.92 208.482L303.64 57.3617C300.382 50.0638 294.36 44.3576 286.898 41.4963C279.435 38.6351 271.142 38.8528 263.84 42.1017L140.68 96.9217C136.982 88.7801 130.216 82.4306 121.856 79.2572C113.496 76.0838 104.221 76.344 96.0521 79.981C87.8833 83.618 81.4836 90.337 78.2481 98.673C75.0126 107.009 75.2038 116.286 78.78 124.482L61.38 132.242C57.7636 133.849 54.4995 136.153 51.7741 139.023C49.0487 141.892 46.9155 145.271 45.4965 148.965C44.0774 152.66 43.4004 156.597 43.5039 160.554C43.6075 164.51 44.4896 168.407 46.1 172.022L113.38 323.122C114.987 326.741 117.292 330.007 120.163 332.734C123.034 335.461 126.415 337.595 130.112 339.014C133.808 340.434 137.748 341.11 141.707 341.005C145.665 340.9 149.564 340.015 153.18 338.402L210.48 312.882C210.525 312.864 210.567 312.838 210.601 312.804C210.636 312.77 210.664 312.729 210.682 312.684C210.701 312.639 210.711 312.591 210.71 312.543C210.71 312.494 210.699 312.446 210.68 312.402C210.66 312.356 210.632 312.314 210.596 312.279C210.56 312.244 210.518 312.216 210.472 312.198C210.425 312.179 210.375 312.17 210.325 312.171C210.275 312.171 210.226 312.182 210.18 312.202L152.88 337.722C149.35 339.302 145.542 340.17 141.676 340.276C137.809 340.382 133.96 339.724 130.348 338.34C126.736 336.956 123.433 334.873 120.628 332.21C117.822 329.547 115.57 326.357 114 322.822L46.8 171.722C45.2295 168.196 44.3691 164.395 44.2679 160.537C44.1668 156.678 44.827 152.838 46.2107 149.234C47.5944 145.631 49.6746 142.336 52.3323 139.537C54.99 136.738 58.1732 134.49 61.7 132.922L264.14 42.7817C267.676 41.2104 271.487 40.352 275.355 40.2556C279.223 40.1593 283.072 40.8269 286.682 42.2203C290.291 43.6136 293.591 45.7053 296.391 48.3755C299.191 51.0458 301.437 54.2422 303 57.7817L370.22 208.782C373.382 215.901 373.591 223.984 370.802 231.258C368.012 238.532 362.452 244.402 355.34 247.582L247.46 295.582C247.384 295.62 247.323 295.682 247.286 295.758C247.25 295.835 247.24 295.921 247.259 296.004C247.277 296.087 247.323 296.161 247.388 296.215C247.454 296.269 247.535 296.3 247.62 296.302C247.82 296.302 247.78 296.302 256.66 292.302C260.834 301.182 267.395 308.726 275.61 314.091C283.826 319.456 293.371 322.43 303.18 322.682C341.54 323.682 368.28 284.682 352.5 249.722L355.64 248.322C362.948 245.063 368.663 239.036 371.528 231.565C374.393 224.094 374.175 215.791 370.92 208.482ZM79.48 124.182C76.7022 117.827 76.0023 110.758 77.48 103.982L108.78 111.142L79.48 124.182ZM110.72 110.182L127.08 82.6817C132.756 86.1216 137.26 91.1969 140 97.2417L110.72 110.182ZM257.36 291.942L302.5 271.942L264.94 303.782C261.884 300.23 259.333 296.272 257.36 292.022V291.942ZM265.36 304.242L304.1 271.402L310 321.622C301.733 322.47 293.384 321.345 285.637 318.337C277.89 315.33 270.968 310.526 265.44 304.322L265.36 304.242ZM349.36 296.242L305.18 270.682L351.82 249.922C355.138 257.291 356.648 265.347 356.223 273.417C355.799 281.488 353.453 289.341 349.38 296.322L349.36 296.242Z" fill="#1890ff"/>
<path d="M377.56 114.942L374.1 159.822C373.828 163.498 372.262 166.96 369.681 169.592C367.1 172.224 363.67 173.857 360 174.202C346.525 175.032 333.008 174.851 319.56 173.662C315.56 187.302 314.52 198.842 313.56 214.282C295.26 210.082 278.14 208.082 262.98 209.622C261.194 193.808 261.006 177.854 262.42 162.002L251.26 165.322C228.56 163.322 210.36 158.902 187.62 153.322C186.602 149.25 186.45 145.01 187.174 140.876C187.897 136.742 189.48 132.806 191.82 129.322C220.58 136.582 245.56 141.662 275.06 141.942L287.56 175.942L311.44 146.342C324.21 147.425 337.027 147.845 349.84 147.602L352.64 112.702C361.013 111.84 369.475 112.6 377.56 114.942Z" fill="#FFE7EA"/>
<path d="M164.56 272.682C164.459 272.682 164.363 272.642 164.291 272.57C164.22 272.499 164.18 272.402 164.18 272.302C164.18 272.201 164.22 272.104 164.291 272.033C164.363 271.962 164.459 271.922 164.56 271.922C164.661 271.922 164.757 271.962 164.829 272.033C164.9 272.104 164.94 272.201 164.94 272.302C164.94 272.402 164.9 272.499 164.829 272.57C164.757 272.642 164.661 272.682 164.56 272.682Z" fill="#1890ff"/>
<path d="M191.52 149.942C191.647 150.093 191.803 150.218 191.978 150.309C192.154 150.4 192.346 150.456 192.543 150.473C192.74 150.489 192.938 150.467 193.126 150.407C193.315 150.347 193.489 150.25 193.64 150.122C193.944 149.865 194.136 149.499 194.173 149.103C194.211 148.706 194.091 148.311 193.84 148.002C193.58 147.696 193.21 147.504 192.811 147.467C192.411 147.429 192.012 147.55 191.7 147.802C191.393 148.062 191.201 148.433 191.167 148.834C191.134 149.236 191.26 149.634 191.52 149.942Z" fill="#1890ff"/>
<path d="M227.5 143.822C227.76 144.127 228.13 144.319 228.529 144.357C228.929 144.394 229.328 144.274 229.64 144.022C229.947 143.761 230.139 143.39 230.173 142.989C230.206 142.588 230.08 142.189 229.82 141.882C229.555 141.574 229.178 141.384 228.773 141.354C228.368 141.324 227.968 141.456 227.66 141.722C227.352 141.987 227.163 142.363 227.133 142.769C227.103 143.174 227.235 143.574 227.5 143.882V143.822Z" fill="#1890ff"/>
<path d="M256 161.422C256.131 161.573 256.291 161.696 256.47 161.786C256.649 161.875 256.844 161.928 257.044 161.942C257.244 161.956 257.444 161.93 257.634 161.867C257.824 161.803 257.999 161.703 258.15 161.572C258.301 161.44 258.425 161.281 258.514 161.101C258.603 160.922 258.656 160.727 258.67 160.528C258.684 160.328 258.659 160.128 258.595 159.938C258.532 159.748 258.431 159.573 258.3 159.422C258.169 159.271 258.009 159.147 257.83 159.058C257.651 158.968 257.456 158.915 257.256 158.901C257.056 158.887 256.856 158.913 256.666 158.977C256.476 159.04 256.301 159.14 256.15 159.272C255.999 159.403 255.875 159.563 255.786 159.742C255.697 159.921 255.644 160.116 255.63 160.316C255.616 160.515 255.641 160.716 255.705 160.905C255.768 161.095 255.869 161.271 256 161.422Z" fill="#1890ff"/>
<path d="M323.06 167.042C323.325 167.347 323.701 167.534 324.104 167.562C324.507 167.59 324.905 167.457 325.21 167.192C325.515 166.926 325.702 166.551 325.73 166.148C325.758 165.744 325.625 165.347 325.36 165.042C325.229 164.891 325.069 164.767 324.89 164.678C324.711 164.588 324.516 164.535 324.316 164.521C324.116 164.507 323.916 164.533 323.726 164.596C323.536 164.66 323.361 164.76 323.21 164.892C323.059 165.023 322.935 165.183 322.846 165.362C322.757 165.541 322.704 165.736 322.69 165.935C322.676 166.135 322.701 166.336 322.765 166.525C322.828 166.715 322.929 166.891 323.06 167.042Z" fill="#1890ff"/>
<path d="M368.12 155.822C368.312 156.048 368.566 156.212 368.851 156.293C369.136 156.375 369.438 156.37 369.721 156.28C370.003 156.19 370.252 156.018 370.437 155.786C370.621 155.554 370.733 155.273 370.758 154.978C370.783 154.683 370.72 154.387 370.577 154.127C370.435 153.868 370.218 153.656 369.955 153.52C369.692 153.383 369.394 153.328 369.1 153.36C368.805 153.392 368.527 153.511 368.3 153.702C368.148 153.829 368.024 153.984 367.932 154.16C367.841 154.335 367.786 154.527 367.769 154.724C367.752 154.921 367.775 155.12 367.835 155.308C367.895 155.496 367.992 155.671 368.12 155.822Z" fill="#1890ff"/>
<path d="M281.2 178.462C281.327 178.613 281.483 178.738 281.658 178.829C281.834 178.92 282.026 178.976 282.223 178.993C282.42 179.009 282.618 178.987 282.806 178.927C282.995 178.866 283.169 178.77 283.32 178.642C283.627 178.382 283.819 178.01 283.853 177.609C283.886 177.208 283.76 176.809 283.5 176.502C283.373 176.35 283.217 176.225 283.042 176.134C282.866 176.043 282.674 175.987 282.477 175.971C282.28 175.954 282.082 175.976 281.894 176.037C281.705 176.097 281.531 176.194 281.38 176.322C281.073 176.582 280.881 176.953 280.847 177.354C280.814 177.756 280.94 178.154 281.2 178.462Z" fill="#1890ff"/>
<path d="M291.64 179.542C291.834 179.772 292.092 179.939 292.381 180.022C292.67 180.106 292.977 180.101 293.263 180.01C293.55 179.919 293.803 179.745 293.99 179.509C294.178 179.274 294.291 178.989 294.317 178.689C294.342 178.389 294.278 178.089 294.132 177.826C293.986 177.563 293.766 177.349 293.499 177.211C293.231 177.073 292.929 177.018 292.63 177.051C292.332 177.085 292.05 177.207 291.82 177.402C291.513 177.662 291.321 178.033 291.287 178.434C291.254 178.836 291.38 179.234 291.64 179.542Z" fill="#1890ff"/>
<path d="M305.8 204.962C305.994 205.191 306.252 205.359 306.541 205.442C306.83 205.525 307.137 205.521 307.423 205.43C307.71 205.339 307.963 205.165 308.15 204.929C308.338 204.694 308.451 204.409 308.477 204.109C308.502 203.809 308.438 203.509 308.292 203.246C308.146 202.983 307.926 202.769 307.659 202.631C307.391 202.493 307.089 202.437 306.79 202.471C306.492 202.505 306.21 202.627 305.98 202.822C305.673 203.082 305.481 203.453 305.447 203.854C305.414 204.255 305.54 204.654 305.8 204.962Z" fill="#1890ff"/>
<path d="M267 201.282C267.127 201.433 267.283 201.558 267.458 201.649C267.634 201.74 267.826 201.796 268.023 201.813C268.22 201.829 268.418 201.807 268.606 201.747C268.795 201.687 268.969 201.59 269.12 201.462C269.427 201.202 269.619 200.83 269.653 200.429C269.686 200.028 269.56 199.63 269.3 199.322C269.173 199.17 269.017 199.045 268.842 198.954C268.666 198.863 268.474 198.808 268.277 198.791C268.08 198.774 267.882 198.796 267.694 198.857C267.505 198.917 267.331 199.014 267.18 199.142C266.873 199.402 266.681 199.773 266.647 200.174C266.614 200.576 266.74 200.974 267 201.282Z" fill="#1890ff"/>
<path d="M355.62 120.222C355.88 120.529 356.252 120.72 356.653 120.754C357.054 120.788 357.452 120.661 357.76 120.402C357.916 120.279 358.046 120.126 358.143 119.953C358.239 119.78 358.3 119.589 358.323 119.392C358.345 119.194 358.328 118.995 358.273 118.804C358.217 118.614 358.125 118.436 358 118.282C357.869 118.129 357.709 118.004 357.529 117.914C357.349 117.823 357.154 117.769 356.953 117.754C356.753 117.739 356.551 117.764 356.36 117.827C356.169 117.89 355.992 117.99 355.84 118.122C355.688 118.253 355.563 118.413 355.472 118.593C355.382 118.772 355.328 118.968 355.313 119.168C355.298 119.369 355.323 119.571 355.386 119.762C355.449 119.952 355.549 120.129 355.68 120.282L355.62 120.222Z" fill="#1890ff"/>
<path d="M39.58 185.562L18.4 177.302C18.3071 177.269 18.2051 177.274 18.1156 177.315C18.026 177.356 17.9559 177.43 17.92 177.522L9.64 198.682C9.60287 198.777 9.60519 198.883 9.64645 198.977C9.68771 199.071 9.76452 199.144 9.86 199.182C9.95548 199.219 10.0618 199.216 10.1556 199.175C10.2493 199.134 10.3229 199.057 10.36 198.962L18.28 178.682L36.46 220.102C36.4797 220.148 36.5083 220.189 36.544 220.224C36.5798 220.259 36.6222 220.287 36.6686 220.305C36.715 220.324 36.7646 220.333 36.8146 220.332C36.8647 220.332 36.914 220.321 36.96 220.302C37.006 220.282 37.0476 220.253 37.0825 220.218C37.1174 220.182 37.145 220.139 37.1636 220.093C37.1821 220.047 37.1914 219.997 37.1908 219.947C37.1902 219.897 37.1797 219.848 37.16 219.802L18.98 178.342L39.32 186.342C39.4234 186.376 39.5363 186.368 39.6339 186.319C39.7314 186.271 39.8055 186.185 39.84 186.082C39.8745 185.978 39.8665 185.865 39.8177 185.768C39.7689 185.67 39.6834 185.596 39.58 185.562Z" fill="#1890ff"/>
<path d="M363.24 303.282C362.889 302.473 362.743 301.59 362.815 300.711C362.886 299.832 363.174 298.985 363.652 298.243C364.129 297.502 364.783 296.89 365.553 296.462C366.324 296.034 367.189 295.802 368.07 295.788C368.952 295.774 369.823 295.977 370.608 296.38C371.392 296.784 372.064 297.374 372.566 298.099C373.067 298.825 373.382 299.662 373.482 300.538C373.582 301.415 373.465 302.302 373.14 303.122C372.743 304.099 372.066 304.938 371.196 305.535C370.325 306.131 369.298 306.458 368.243 306.475C367.188 306.492 366.151 306.198 365.261 305.631C364.372 305.063 363.669 304.246 363.24 303.282ZM366.32 296.922C365.479 297.275 364.762 297.871 364.261 298.634C363.759 299.396 363.496 300.29 363.504 301.202C363.512 302.115 363.792 303.004 364.306 303.757C364.821 304.51 365.549 305.094 366.396 305.432C367.243 305.771 368.172 305.851 369.064 305.66C369.956 305.47 370.772 305.018 371.407 304.363C372.042 303.708 372.468 302.879 372.63 301.981C372.793 301.084 372.685 300.158 372.32 299.322C371.836 298.213 370.935 297.34 369.812 296.891C368.689 296.441 367.435 296.452 366.32 296.922Z" fill="#1890ff"/>
<path d="M385.02 313.002C384.052 313.002 383.103 312.741 382.272 312.245C381.441 311.75 380.759 311.038 380.3 310.187C379.84 309.335 379.62 308.375 379.662 307.409C379.704 306.442 380.007 305.505 380.539 304.696C381.071 303.888 381.811 303.238 382.682 302.817C383.553 302.396 384.522 302.218 385.486 302.302C386.45 302.387 387.373 302.731 388.157 303.298C388.941 303.865 389.557 304.633 389.94 305.522C390.296 306.337 390.444 307.228 390.368 308.114C390.293 309 389.998 309.853 389.509 310.596C389.02 311.339 388.354 311.949 387.57 312.369C386.786 312.789 385.909 313.006 385.02 313.002ZM385.02 303.002C384.031 303.005 383.069 303.327 382.278 303.92C381.486 304.513 380.907 305.345 380.625 306.293C380.344 307.241 380.376 308.255 380.716 309.183C381.056 310.112 381.686 310.906 382.513 311.449C383.34 311.991 384.32 312.252 385.307 312.194C386.294 312.135 387.237 311.76 387.994 311.124C388.751 310.488 389.283 309.625 389.511 308.663C389.739 307.7 389.651 306.69 389.26 305.782C388.894 304.96 388.296 304.263 387.539 303.776C386.782 303.289 385.9 303.034 385 303.042L385.02 303.002Z" fill="#1890ff"/>
<path d="M370.26 319.181L382.14 289.181C382.154 289.129 382.178 289.081 382.212 289.039C382.246 288.997 382.288 288.962 382.336 288.938C382.384 288.913 382.437 288.9 382.491 288.897C382.545 288.895 382.599 288.904 382.649 288.924C382.699 288.944 382.744 288.975 382.782 289.014C382.819 289.052 382.848 289.099 382.866 289.15C382.884 289.2 382.891 289.255 382.886 289.308C382.882 289.362 382.866 289.414 382.84 289.461L370.96 319.461C370.915 319.542 370.842 319.604 370.755 319.635C370.668 319.666 370.573 319.664 370.487 319.63C370.401 319.595 370.33 319.531 370.289 319.448C370.247 319.366 370.237 319.271 370.26 319.181Z" fill="#1890ff"/>
<path d="M342.66 87.7616L346.34 78.3016L336.92 74.6816C336.875 74.6641 336.833 74.6376 336.799 74.6037C336.764 74.5698 336.736 74.5292 336.718 74.4843C336.699 74.4395 336.689 74.3913 336.69 74.3427C336.69 74.2941 336.701 74.2461 336.72 74.2016L340.38 64.7216L330.84 60.8616C330.793 60.8461 330.75 60.8211 330.713 60.788C330.676 60.755 330.646 60.7147 330.625 60.6696C330.605 60.6246 330.593 60.5757 330.593 60.5262C330.592 60.4766 330.601 60.4274 330.62 60.3816L334.3 50.9016L324.56 47.1216C324.479 47.0767 324.417 47.0039 324.386 46.9167C324.355 46.8296 324.357 46.7342 324.392 46.6483C324.426 46.5624 324.491 46.492 324.573 46.4503C324.656 46.4086 324.75 46.3984 324.84 46.4216L334.84 50.4216C334.888 50.4393 334.932 50.4664 334.969 50.5013C335.006 50.5363 335.035 50.5783 335.056 50.625C335.077 50.6716 335.087 50.7219 335.088 50.7729C335.089 50.8238 335.079 50.8744 335.06 50.9216L331.38 60.3816L340.94 64.2416C341.028 64.2812 341.098 64.3529 341.135 64.442C341.172 64.5312 341.174 64.6312 341.14 64.7216L337.48 74.2016L346.88 77.7416C346.928 77.7593 346.972 77.7864 347.009 77.8213C347.046 77.8563 347.075 77.8983 347.096 77.945C347.117 77.9916 347.127 78.0419 347.128 78.0929C347.129 78.1439 347.119 78.1944 347.1 78.2416L343.28 88.0616C343.224 88.1073 343.156 88.136 343.084 88.1444C343.012 88.1529 342.94 88.1406 342.874 88.1091C342.809 88.0776 342.755 88.0281 342.717 87.9666C342.679 87.905 342.659 87.8339 342.66 87.7616Z" fill="#1890ff"/>
<path d="M346.82 71.2417L350.5 61.7617L341.1 58.2217C341.05 58.2066 341.005 58.181 340.966 58.1465C340.927 58.1121 340.896 58.0697 340.875 58.0222C340.854 57.9747 340.844 57.9233 340.845 57.8714C340.846 57.8195 340.858 57.7685 340.88 57.7217L344.56 48.2617L335 44.4017C334.907 44.3617 334.832 44.2879 334.791 44.1951C334.75 44.1022 334.746 43.9974 334.78 43.9017L338.46 34.4417L328.72 30.6817C328.639 30.6368 328.577 30.5639 328.546 30.4768C328.515 30.3897 328.517 30.2942 328.552 30.2084C328.586 30.1225 328.651 30.0521 328.733 30.0104C328.816 29.9686 328.91 29.9584 329 29.9817L339 33.9817C339.047 33.9972 339.09 34.0222 339.127 34.0552C339.164 34.0883 339.194 34.1286 339.215 34.1737C339.235 34.2187 339.247 34.2676 339.247 34.3171C339.248 34.3667 339.239 34.4159 339.22 34.4617L335.54 43.9417L345.1 47.8017C345.192 47.8376 345.266 47.9077 345.307 47.9972C345.348 48.0868 345.353 48.1888 345.32 48.2817L341.64 57.7417L351.04 61.3017C351.087 61.3172 351.13 61.3422 351.167 61.3752C351.204 61.4083 351.234 61.4486 351.255 61.4937C351.275 61.5387 351.287 61.5876 351.287 61.6371C351.288 61.6867 351.279 61.7359 351.26 61.7817L347.44 71.6017C347.429 71.6613 347.403 71.7174 347.366 71.7652C347.328 71.813 347.28 71.8511 347.225 71.8764C347.169 71.9016 347.109 71.9132 347.048 71.9103C346.987 71.9073 346.928 71.8898 346.876 71.8593C346.823 71.8288 346.779 71.7862 346.746 71.735C346.714 71.6838 346.694 71.6254 346.688 71.5649C346.683 71.5045 346.692 71.4435 346.715 71.3873C346.738 71.331 346.774 71.2811 346.82 71.2417Z" fill="#1890ff"/>
<path d="M211.48 23.9616L198.86 29.8016L193.02 17.2016C193.004 17.1492 192.978 17.1008 192.941 17.0597C192.905 17.0186 192.861 16.9858 192.811 16.9635C192.761 16.9412 192.707 16.9299 192.652 16.9304C192.598 16.931 192.544 16.9433 192.494 16.9666C192.445 16.9899 192.401 17.0236 192.365 17.0654C192.33 17.1071 192.304 17.1561 192.29 17.2088C192.275 17.2614 192.272 17.3167 192.281 17.3707C192.289 17.4247 192.31 17.4761 192.34 17.5216L198.18 30.1216L185.58 35.9816C185.525 35.9931 185.472 36.0169 185.427 36.0512C185.382 36.0855 185.345 36.1294 185.319 36.1798C185.294 36.2302 185.279 36.2857 185.278 36.3423C185.276 36.3989 185.287 36.4552 185.31 36.507C185.333 36.5588 185.367 36.6049 185.41 36.6418C185.453 36.6787 185.503 36.7056 185.558 36.7204C185.613 36.7352 185.67 36.7376 185.726 36.7275C185.781 36.7173 185.834 36.6948 185.88 36.6616L198.5 30.8016L204.34 43.4216C204.391 43.4972 204.467 43.5522 204.554 43.5766C204.642 43.6009 204.735 43.593 204.818 43.5543C204.9 43.5155 204.966 43.4485 205.003 43.3655C205.04 43.2824 205.046 43.1888 205.02 43.1016L199.18 30.5016L211.78 24.6416C211.835 24.6301 211.888 24.6063 211.933 24.572C211.978 24.5377 212.015 24.4938 212.041 24.4434C212.066 24.393 212.081 24.3375 212.082 24.2809C212.084 24.2243 212.073 24.168 212.05 24.1162C212.027 24.0644 211.993 24.0183 211.95 23.9814C211.907 23.9445 211.857 23.9176 211.802 23.9028C211.747 23.888 211.69 23.8856 211.634 23.8957C211.579 23.9059 211.526 23.9284 211.48 23.9616Z" fill="#1890ff"/>
<path d="M79.16 312.102L73.88 300.482C73.8515 300.421 73.8395 300.354 73.8453 300.287C73.8511 300.22 73.8745 300.156 73.9131 300.101C73.9517 300.046 74.0041 300.003 74.0651 299.975C74.126 299.947 74.1932 299.935 74.26 299.942L86.96 301.202C87.0252 301.206 87.0879 301.228 87.1415 301.265C87.1951 301.303 87.2375 301.354 87.2642 301.414C87.2909 301.473 87.3009 301.539 87.2931 301.604C87.2853 301.669 87.2601 301.73 87.22 301.782L79.8 312.162C79.7646 312.218 79.7142 312.264 79.6544 312.293C79.5947 312.323 79.5279 312.335 79.4615 312.329C79.3952 312.322 79.3319 312.298 79.2786 312.258C79.2254 312.218 79.1843 312.164 79.16 312.102ZM74.84 300.682L79.56 311.102L86.24 301.802L74.84 300.682Z" fill="#1890ff"/>
<path d="M388.46 87.8616C387.84 87.2016 386.46 87.6416 384.16 89.0816C385.16 87.7016 386.16 86.3216 386.9 85.0816C387.05 84.9101 387.133 84.6898 387.133 84.4616C387.133 84.2335 387.05 84.0131 386.9 83.8416C385.28 82.4016 379.92 88.0016 378.44 89.5816C379.5 87.3016 379.48 86.6416 379.06 86.3216C378.64 86.0016 377.76 86.3216 375.06 88.6816C372.066 91.5123 369.427 94.6955 367.2 98.1616C367.114 98.265 367.008 98.3488 366.887 98.4075C366.766 98.4661 366.634 98.4982 366.5 98.5016C365.18 98.2216 364.16 92.5016 363.2 90.0016C362.74 88.8616 361.86 86.9816 360.78 87.1816C360.12 87.3016 359.38 88.1016 359.48 93.1816C359.288 99.4765 358.72 105.754 357.78 111.982C356.12 111.982 354.44 112.142 352.78 112.322C352.732 112.316 352.684 112.321 352.638 112.335C352.592 112.35 352.549 112.374 352.513 112.406C352.477 112.438 352.449 112.477 352.429 112.522C352.41 112.566 352.4 112.613 352.4 112.662L349.64 147.222C302.18 148.002 300.32 143.082 299.42 140.722C298.383 137.773 298.014 134.63 298.34 131.522C299.54 125.322 308.92 118.402 309.02 118.322C309.12 118.242 309.18 118.022 309.02 117.022C307.62 110.082 306.18 102.922 300.72 98.2616C300.654 98.2026 300.569 98.17 300.48 98.17C300.391 98.17 300.306 98.2026 300.24 98.2616C295.887 101.906 292.135 106.212 289.12 111.022C286.38 115.482 281.76 123.462 284.64 127.502C285.384 128.348 286.311 129.012 287.351 129.446C288.391 129.879 289.516 130.069 290.64 130.002C290.18 131.382 288.88 135.362 288.08 138.942C287.52 141.462 284.76 141.562 278.08 141.482C245.22 141.202 224.18 136.722 192.22 128.862C192.142 128.84 192.059 128.844 191.984 128.873C191.908 128.902 191.844 128.954 191.8 129.022L191.12 130.142C185.427 128.827 179.664 127.832 173.86 127.162C168.3 126.802 165.86 127.162 164.76 130.482C164.065 130.73 163.452 131.167 162.99 131.742C162.528 132.317 162.233 133.009 162.14 133.742C161.539 134.022 161.013 134.44 160.603 134.961C160.193 135.482 159.911 136.092 159.78 136.742C157.08 136.742 154.18 136.742 152.04 136.742C149.24 136.922 147.26 137.862 147.24 139.002C147.24 139.582 147.66 140.082 148.52 140.502L84.52 136.502C84.397 136.526 84.2863 136.592 84.2066 136.688C84.127 136.785 84.0834 136.906 84.0834 137.032C84.0834 137.157 84.127 137.278 84.2066 137.375C84.2863 137.472 84.397 137.538 84.52 137.562L163.38 144.682C165.515 147.409 168.499 149.344 171.86 150.182C176.69 151.531 181.76 151.784 186.7 150.922C186.84 151.742 187 152.542 187.22 153.362C187.235 153.427 187.267 153.488 187.312 153.537C187.358 153.586 187.416 153.622 187.48 153.642C216.82 160.862 234.76 165.022 261.62 166.422C260.58 182.064 261.049 197.769 263.02 213.322C245.35 209.254 227.421 206.408 209.36 204.802C204.5 204.402 199.66 205.78 195.74 208.682C176.462 222.858 157.912 237.997 140.16 254.042C140.108 254.111 140.08 254.195 140.08 254.282C140.08 254.368 140.108 254.452 140.16 254.522C140.66 255.342 141.18 256.162 141.72 257.002C131.48 266.822 103 285.502 104.58 289.002C106.16 292.502 123.64 287.782 133.84 287.782C136.734 287.81 139.614 287.392 142.38 286.542C145.98 285.082 150.38 277.942 155.6 273.162C156.88 274.342 158.22 275.502 159.6 276.642C159.671 276.698 159.759 276.729 159.85 276.729C159.941 276.729 160.029 276.698 160.1 276.642C175.83 262.858 192.644 250.365 210.38 239.282C221.895 240.39 233.279 242.587 244.38 245.842C239.233 249.562 234.293 253.462 229.56 257.542C224.529 261.86 220.854 267.542 218.98 273.902C213.287 293.641 209.147 313.796 206.6 334.182C206.59 334.265 206.608 334.35 206.651 334.423C206.695 334.495 206.761 334.551 206.84 334.582C208.46 335.142 210.08 335.662 211.72 336.142C209.72 350.142 198.9 382.442 202.3 384.142C205.7 385.842 216.64 371.322 224.6 365.082C226.914 363.336 228.939 361.237 230.6 358.862C232.6 355.522 231.64 346.862 232.72 340.022C234.72 340.222 236.94 340.382 239.06 340.422C239.151 340.423 239.24 340.391 239.31 340.332C239.379 340.274 239.426 340.192 239.44 340.102C241.633 320.966 245.788 302.107 251.84 283.822C304.04 259.022 299.84 261.042 300.78 260.542C325.5 247.102 314.66 215.942 314.02 214.142C314.98 198.142 316.32 185.742 319.88 173.982C333.218 175.2 346.628 175.434 360 174.682C363.77 174.337 367.296 172.667 369.951 169.968C372.606 167.27 374.218 163.717 374.5 159.942L378 114.962C378.001 114.879 377.977 114.798 377.93 114.73C377.884 114.662 377.817 114.61 377.74 114.582C377.22 114.442 375.56 113.942 372.7 113.362C372.7 111.642 372.86 110.282 372.94 109.102C374.319 105.294 376.581 101.867 379.54 99.1016C379.74 98.9016 386.58 91.5616 388.5 89.1016C388.641 88.9236 388.715 88.7013 388.707 88.4743C388.7 88.2473 388.612 88.0302 388.46 87.8616ZM360 93.2416C360 88.2416 360.66 88.0216 360.7 88.0216C360.74 88.0216 361.58 88.6216 362.28 90.3816C363.4 93.2216 364.28 99.1016 366.28 99.3616C363.513 103.348 361.141 107.594 359.2 112.042H358.36C359.302 105.816 359.85 99.5366 360 93.2416ZM310.68 146.682L288 174.682C289.58 162.062 291.54 149.982 292.9 144.282C299.5 154.942 299.02 154.282 299.32 154.282C299.62 154.282 298.92 155.002 306.52 145.842C307.74 146.222 309.1 146.482 310.68 146.682ZM299.26 142.382C300.16 143.582 301.92 144.762 305.74 145.742L299.42 153.342L293.42 143.742C295.442 143.737 297.438 143.279 299.26 142.402V142.382ZM290.1 133.302L293.9 129.682C293.944 129.621 293.969 129.549 293.972 129.475C293.976 129.4 293.957 129.326 293.919 129.262C293.88 129.198 293.824 129.147 293.757 129.115C293.689 129.083 293.614 129.071 293.54 129.082C293.54 129.082 287.26 130.262 285.04 127.082C282.82 123.902 285.82 117.942 287.82 114.582C290.46 110.162 293 108.102 294.98 108.782C297.38 109.602 298.72 114.142 298.28 117.502C298.14 118.662 298.88 119.502 301.06 118.082C304.12 116.082 305.72 121.282 299.86 123.502C298.88 123.882 297.98 126.742 297.72 127.902C296.828 132.518 297.215 137.29 298.84 141.702C297.078 142.661 295.078 143.097 293.076 142.959C291.075 142.82 289.154 142.114 287.54 140.922C288.68 139.942 288.24 139.422 290.1 133.322V133.302ZM286.9 141.422C288.395 142.573 290.156 143.33 292.02 143.622L284.02 152.342L280.12 142.342C282.419 142.55 284.735 142.243 286.9 141.442V141.422ZM279.28 142.322L283.5 153.182C283.527 153.239 283.567 153.29 283.617 153.329C283.668 153.368 283.727 153.395 283.789 153.406C283.852 153.418 283.916 153.415 283.977 153.397C284.038 153.378 284.094 153.346 284.14 153.302L292 144.682C290.66 150.562 288.78 162.182 287.26 174.362L275.48 142.362L279.28 142.322ZM186.58 150.202C181.73 151.097 176.738 150.85 172 149.482C167.36 148.282 163.48 144.622 163.7 143.482C163.7 143.122 164.56 143.182 164.84 143.222C167.765 143.781 170.599 144.744 173.26 146.082C173.35 146.127 173.455 146.134 173.55 146.102C173.646 146.07 173.725 146.002 173.77 145.912C173.815 145.821 173.822 145.717 173.791 145.621C173.759 145.526 173.69 145.447 173.6 145.402C167.48 142.202 160.46 141.742 153.6 141.062C148.88 140.602 147.6 139.602 147.6 139.062C147.6 138.522 149.06 137.702 151.6 137.542C156.527 137.354 161.461 137.435 166.38 137.782C166.86 137.782 166.96 137.082 166.38 137.022C165.44 137.022 162.88 136.802 160 136.742C160.78 134.302 162.24 133.602 168 134.142C168.1 134.148 168.198 134.116 168.276 134.053C168.354 133.99 168.405 133.901 168.42 133.802C168.426 133.752 168.421 133.701 168.407 133.653C168.393 133.605 168.369 133.56 168.338 133.521C168.306 133.482 168.267 133.449 168.223 133.425C168.179 133.401 168.13 133.387 168.08 133.382C166.218 133.085 164.322 133.085 162.46 133.382C163.08 131.202 164.76 130.082 170.74 130.782C170.838 130.787 170.934 130.755 171.008 130.692C171.083 130.628 171.13 130.539 171.14 130.442C171.146 130.392 171.141 130.341 171.127 130.293C171.113 130.245 171.089 130.2 171.058 130.161C171.026 130.122 170.987 130.089 170.943 130.065C170.899 130.041 170.85 130.027 170.8 130.022C168.917 129.749 167.003 129.749 165.12 130.022C165.98 127.842 167.88 127.382 173.26 127.742C178.957 128.395 184.613 129.37 190.2 130.662C186.84 136.586 185.565 143.467 186.58 150.202ZM262.74 162.022C262.745 161.96 262.736 161.899 262.712 161.842C262.689 161.785 262.652 161.735 262.605 161.696C262.558 161.657 262.502 161.629 262.442 161.616C262.381 161.603 262.319 161.605 262.26 161.622L251.12 164.962C229.82 163.102 213.12 159.182 187.88 152.962C186.928 149.02 186.792 144.925 187.48 140.929C188.168 136.932 189.665 133.118 191.88 129.722C221.44 136.982 243.42 141.722 274.68 142.262L287.04 175.962C285.519 186.972 284.69 198.067 284.56 209.182C277.454 208.541 270.306 208.541 263.2 209.182C261.504 193.515 261.35 177.719 262.74 162.022ZM142 285.842C139.318 286.632 136.536 287.03 133.74 287.022C124.5 287.022 106.32 291.282 105.16 288.682C105.16 288.682 105.16 288.122 106.38 286.682C109.8 287.342 117.78 286.142 122.12 285.562C139.62 283.222 139.24 284.642 145.38 283.202C144.424 284.281 143.279 285.176 142 285.842ZM152.36 275.262C144.424 274.097 136.746 271.581 129.66 267.822C133.84 264.602 138.9 260.602 142.04 257.622C145.73 263.14 150.067 268.196 154.96 272.682C154.18 273.362 153.28 274.282 152.38 275.262H152.36ZM210.22 238.522C210.185 238.507 210.148 238.499 210.11 238.499C210.072 238.499 210.035 238.507 210 238.522C192.271 249.576 175.463 262.043 159.74 275.802C156.938 273.493 154.267 271.029 151.74 268.422C167.296 254.958 183.688 242.493 200.82 231.102C204.811 228.399 209.679 227.313 214.44 228.062C228.774 230.242 242.961 233.301 256.92 237.222C252.92 239.782 248.96 242.448 245.04 245.222C233.687 241.856 222.031 239.612 210.24 238.522H210.22ZM207.34 333.982C209.89 313.739 214.009 293.726 219.66 274.122C221.501 267.902 225.098 262.346 230.02 258.122C243.425 246.649 258.077 236.72 273.7 228.522C273.751 228.503 273.798 228.473 273.837 228.435C273.875 228.396 273.905 228.35 273.925 228.299C273.944 228.248 273.952 228.193 273.948 228.138C273.944 228.084 273.929 228.031 273.902 227.983C273.876 227.935 273.84 227.893 273.796 227.861C273.753 227.828 273.702 227.805 273.649 227.794C273.596 227.782 273.54 227.782 273.487 227.794C273.434 227.806 273.384 227.829 273.34 227.862C268.007 230.635 262.847 233.602 257.86 236.762C243.654 232.746 229.213 229.614 214.62 227.382C209.671 226.626 204.618 227.753 200.46 230.542C183.291 241.961 166.864 254.46 151.28 267.962C147.326 263.837 143.838 259.29 140.88 254.402C158.554 238.44 177.017 223.375 196.2 209.262C199.968 206.472 204.63 205.162 209.3 205.582C227.479 207.194 245.523 210.074 263.3 214.202C263.36 214.215 263.422 214.214 263.481 214.198C263.54 214.182 263.594 214.153 263.639 214.111C263.685 214.07 263.719 214.019 263.74 213.961C263.761 213.904 263.768 213.842 263.76 213.782C263.6 212.542 263.44 211.262 263.28 209.942C276.343 208.955 289.479 209.769 302.32 212.362C302.12 214.502 301.46 225.702 309.12 231.802C288.095 242.192 267.926 254.23 248.8 267.802C242.531 272.334 237.944 278.82 235.76 286.242C230.922 303.335 227.313 320.753 224.96 338.362C218.981 337.396 213.094 335.931 207.36 333.982H207.34ZM229.82 358.562C228.241 360.85 226.311 362.875 224.1 364.562C216.88 370.222 205.1 384.902 202.62 383.562C202.62 383.562 202.22 383.282 202.36 381.202C207.62 378.402 217.82 365.722 225.24 359.902C227.301 358.271 229.185 356.427 230.86 354.402C230.801 355.842 230.454 357.257 229.84 358.562H229.82ZM231.44 343.842C224.489 347.84 216.896 350.601 209 352.002C210.28 346.902 211.78 340.682 212.4 336.362C218.762 338.174 225.275 339.405 231.86 340.042C231.7 341.082 231.58 342.342 231.46 343.842H231.44ZM300.18 260.042C299.6 260.342 283.34 268.042 251.3 283.282C251.245 283.302 251.195 283.333 251.153 283.375C251.112 283.416 251.08 283.466 251.06 283.522C244.996 301.785 240.827 320.624 238.62 339.742C234.314 339.578 230.02 339.171 225.76 338.522C228.114 320.953 231.723 303.575 236.56 286.522C238.689 279.273 243.171 272.94 249.3 268.522C268.5 254.888 288.75 242.796 309.86 232.362C310.946 233.172 312.128 233.843 313.38 234.362C313.426 234.381 313.475 234.39 313.525 234.389C313.574 234.388 313.623 234.377 313.668 234.356C313.713 234.336 313.753 234.306 313.786 234.269C313.819 234.232 313.844 234.189 313.86 234.142C313.894 234.051 313.892 233.951 313.855 233.862C313.818 233.773 313.748 233.701 313.66 233.662C302.16 229.062 302.88 215.162 303.12 212.642C306.38 213.242 309.76 213.942 313.22 214.642C314.18 217.262 324.1 247.142 300.2 260.042H300.18ZM377.14 115.202L373.7 159.782C373.442 163.376 371.911 166.76 369.381 169.326C366.852 171.892 363.49 173.472 359.9 173.782C344.31 174.703 328.67 174.335 313.14 172.682C313.068 172.67 312.994 172.68 312.928 172.711C312.862 172.742 312.807 172.792 312.771 172.855C312.734 172.918 312.717 172.99 312.722 173.063C312.727 173.135 312.755 173.205 312.8 173.262L317.36 180.142C315.021 191.231 313.623 202.497 313.18 213.822C304.034 211.673 294.753 210.15 285.4 209.262C285.514 198.181 286.336 187.118 287.86 176.142L311.54 146.822C322.36 148.282 338.94 148.242 349.82 148.042C350 148.042 350.16 147.882 350.2 147.622L352.96 113.122C361.086 112.309 369.292 113.014 377.16 115.202H377.14ZM371.88 113.202C367.963 112.459 363.987 112.071 360 112.042C362.953 105.642 366.631 99.6029 370.96 94.0416C372.262 92.3165 373.736 90.7283 375.36 89.3016C376.249 88.3517 377.298 87.5663 378.46 86.9816C378.189 88.2331 377.709 89.4299 377.04 90.5216C373.06 98.4816 372.3 104.522 372 113.202H371.88ZM373.08 106.682C373.543 101.745 374.863 96.9258 376.98 92.4416C377.94 90.9616 383.3 85.2416 385.72 84.4416C386.12 84.3216 386.46 84.3216 386.24 84.6816C384.46 87.4616 381.04 91.7216 379.42 94.4016C377.099 98.3809 374.989 102.48 373.1 106.682H373.08ZM387.82 88.6816C385.54 91.6016 378.08 99.4416 376.62 101.182C378.349 97.5959 380.411 94.1808 382.78 90.9816C387.38 87.6616 388.24 88.1416 387.84 88.6816H387.82Z" fill="#1890ff"/>
</svg>
