<svg width="400" height="400" viewBox="0 0 400 400" fill="none" xmlns="http://www.w3.org/2000/svg">
<path d="M152.34 243.22L113.14 155.22C112.708 154.253 112.088 153.381 111.317 152.656C110.545 151.93 109.638 151.364 108.646 150.992C107.654 150.62 106.599 150.449 105.54 150.488C104.482 150.527 103.442 150.776 102.48 151.22L85 158.9C84.0304 159.332 83.1564 159.952 82.4289 160.725C81.7015 161.498 81.1351 162.408 80.7629 163.402C80.3906 164.396 80.2198 165.454 80.2605 166.515C80.3012 167.576 80.5526 168.618 81 169.58C128.78 277.14 125.48 270 125.86 270C125.923 269.999 125.986 269.983 126.041 269.952C126.096 269.921 126.143 269.876 126.177 269.823C126.211 269.769 126.231 269.708 126.235 269.644C126.239 269.581 126.227 269.518 126.2 269.46L81.58 169.26C80.7916 167.483 80.7405 165.466 81.438 163.651C82.1354 161.836 83.5244 160.372 85.3 159.58L102.78 151.8C104.557 151.012 106.575 150.961 108.389 151.658C110.204 152.355 111.668 153.744 112.46 155.52C153.36 247.2 151.54 243.74 152 243.74C152.061 243.738 152.12 243.721 152.173 243.691C152.226 243.661 152.272 243.619 152.305 243.568C152.338 243.517 152.359 243.459 152.365 243.398C152.371 243.338 152.362 243.277 152.34 243.22Z" fill="white"/>
<path d="M171 285.14L165 271.44C164.949 271.37 164.875 271.319 164.791 271.296C164.708 271.273 164.618 271.28 164.539 271.315C164.459 271.35 164.394 271.412 164.354 271.489C164.314 271.566 164.302 271.655 164.32 271.74L170.32 285.46C171.108 287.237 171.159 289.255 170.462 291.069C169.765 292.884 168.376 294.348 166.6 295.14L149.12 302.92C147.345 303.71 145.33 303.764 143.516 303.07C141.701 302.377 140.236 300.992 139.44 299.22L133.86 286.66C133.839 286.614 133.809 286.573 133.772 286.538C133.735 286.504 133.692 286.477 133.644 286.459C133.597 286.442 133.547 286.434 133.496 286.436C133.446 286.437 133.396 286.449 133.35 286.47C133.304 286.491 133.263 286.521 133.228 286.558C133.194 286.595 133.167 286.638 133.149 286.686C133.132 286.733 133.124 286.783 133.125 286.834C133.127 286.884 133.139 286.934 133.16 286.98L138.76 299.52C139.183 300.496 139.796 301.378 140.563 302.114C141.33 302.85 142.237 303.426 143.229 303.808C144.222 304.189 145.281 304.37 146.344 304.337C147.407 304.305 148.452 304.061 149.42 303.62L166.92 295.82C167.897 295.396 168.779 294.781 169.515 294.011C170.25 293.241 170.825 292.332 171.205 291.338C171.585 290.343 171.763 289.283 171.727 288.218C171.692 287.154 171.445 286.108 171 285.14Z" fill="white"/>
<path d="M219.6 271.54L204 278.52C202.226 279.308 200.211 279.358 198.4 278.66C196.588 277.963 195.128 276.574 194.34 274.8L185.56 255.1C185.52 255.007 185.445 254.934 185.351 254.896C185.258 254.859 185.153 254.86 185.06 254.9C184.967 254.94 184.894 255.015 184.856 255.109C184.819 255.202 184.82 255.307 184.86 255.4L193.64 275.1C194.072 276.07 194.692 276.944 195.465 277.671C196.238 278.398 197.148 278.965 198.142 279.337C199.136 279.709 200.194 279.88 201.255 279.839C202.316 279.799 203.357 279.547 204.32 279.1L219.98 272.14C220.026 272.078 220.052 272.004 220.055 271.927C220.058 271.85 220.038 271.774 219.997 271.709C219.956 271.644 219.896 271.593 219.825 271.563C219.754 271.533 219.675 271.525 219.6 271.54Z" fill="white"/>
<path d="M226 261.18L216 238.66C215.949 238.584 215.873 238.529 215.786 238.505C215.698 238.481 215.605 238.489 215.522 238.527C215.44 238.566 215.374 238.633 215.337 238.716C215.3 238.799 215.294 238.893 215.32 238.98L225.32 261.5C225.371 261.576 225.447 261.631 225.534 261.655C225.622 261.679 225.715 261.671 225.798 261.633C225.88 261.594 225.946 261.527 225.983 261.444C226.02 261.361 226.026 261.267 226 261.18Z" fill="white"/>
<path d="M201.22 205.5L188.1 176C187.668 175.033 187.048 174.161 186.277 173.435C185.505 172.71 184.598 172.144 183.606 171.772C182.614 171.4 181.559 171.229 180.5 171.268C179.442 171.307 178.402 171.556 177.44 172L160 179.74C159.033 180.172 158.161 180.791 157.435 181.563C156.71 182.334 156.144 183.242 155.772 184.234C155.4 185.226 155.229 186.281 155.268 187.34C155.307 188.398 155.556 189.438 156 190.4L172 226.6C172.04 226.693 172.115 226.766 172.209 226.803C172.302 226.841 172.407 226.84 172.5 226.8C172.593 226.76 172.666 226.685 172.704 226.591C172.741 226.498 172.74 226.393 172.7 226.3L156.58 190.1C156.187 189.22 155.971 188.272 155.946 187.309C155.92 186.346 156.085 185.387 156.43 184.488C156.776 183.588 157.296 182.766 157.96 182.068C158.624 181.37 159.419 180.81 160.3 180.42L177.78 172.64C178.66 172.247 179.608 172.031 180.571 172.006C181.534 171.98 182.493 172.145 183.392 172.49C184.292 172.836 185.114 173.355 185.812 174.02C186.51 174.684 187.07 175.479 187.46 176.36L200.56 205.8C200.614 205.86 200.686 205.901 200.765 205.918C200.844 205.935 200.926 205.925 201 205.892C201.074 205.859 201.135 205.802 201.174 205.732C201.214 205.661 201.23 205.58 201.22 205.5Z" fill="white"/>
<path d="M262.14 194.82L251.62 171.2C250.727 169.265 249.107 167.76 247.111 167.011C245.116 166.262 242.906 166.33 240.96 167.2L223.46 175C222.493 175.432 221.621 176.051 220.895 176.823C220.17 177.594 219.604 178.502 219.232 179.494C218.86 180.486 218.689 181.541 218.728 182.6C218.767 183.658 219.016 184.698 219.46 185.66L228.98 207.06C229.031 207.136 229.107 207.191 229.194 207.215C229.282 207.239 229.375 207.231 229.458 207.193C229.54 207.154 229.606 207.087 229.643 207.004C229.68 206.921 229.686 206.827 229.66 206.74L220 185.26C219.212 183.483 219.161 181.465 219.858 179.651C220.555 177.836 221.944 176.372 223.72 175.58L241.2 167.8C242.977 167.012 244.995 166.96 246.809 167.658C248.624 168.355 250.088 169.744 250.88 171.52L261.38 195.12C261.66 195.56 262.34 195.26 262.14 194.82Z" fill="white"/>
<path d="M335.44 212L319.12 175.36C319.108 175.305 319.085 175.252 319.05 175.207C319.016 175.162 318.972 175.125 318.922 175.099C318.871 175.074 318.816 175.059 318.759 175.058C318.703 175.056 318.646 175.067 318.595 175.09C318.543 175.113 318.497 175.147 318.46 175.19C318.423 175.233 318.396 175.283 318.381 175.338C318.366 175.393 318.364 175.45 318.374 175.506C318.384 175.561 318.407 175.614 318.44 175.66L334.76 212.32C335.548 214.094 335.598 216.109 334.901 217.92C334.203 219.732 332.814 221.192 331.04 221.98L316.32 228.54C316.274 228.56 316.232 228.588 316.197 228.624C316.163 228.66 316.135 228.702 316.116 228.749C316.098 228.795 316.089 228.845 316.089 228.895C316.09 228.945 316.1 228.994 316.12 229.04C316.14 229.086 316.168 229.128 316.204 229.163C316.24 229.197 316.282 229.225 316.329 229.244C316.375 229.262 316.425 229.271 316.475 229.271C316.525 229.27 316.574 229.26 316.62 229.24L331.34 222.68C332.318 222.258 333.202 221.644 333.94 220.875C334.678 220.106 335.255 219.198 335.637 218.203C336.019 217.208 336.198 216.147 336.164 215.081C336.131 214.016 335.884 212.969 335.44 212Z" fill="white"/>
<path d="M304.64 144.62L297.8 129.28C297.76 129.187 297.759 129.082 297.796 128.989C297.834 128.895 297.907 128.82 298 128.78C298.093 128.74 298.198 128.739 298.291 128.777C298.385 128.814 298.46 128.887 298.5 128.98L305.34 144.32C305.36 144.366 305.37 144.415 305.371 144.465C305.371 144.515 305.362 144.565 305.344 144.611C305.325 144.658 305.297 144.7 305.263 144.736C305.228 144.772 305.186 144.8 305.14 144.82C305.047 144.86 304.942 144.861 304.849 144.824C304.755 144.786 304.68 144.713 304.64 144.62Z" fill="white"/>
<path d="M290 110L277.5 81.9999C277.068 81.0328 276.448 80.1611 275.677 79.4353C274.905 78.7096 273.998 78.1443 273.006 77.7722C272.014 77.4 270.959 77.2286 269.9 77.2677C268.842 77.3068 267.802 77.5556 266.84 77.9999L249.34 85.7999C248.373 86.2318 247.501 86.8515 246.775 87.6229C246.05 88.3944 245.484 89.3023 245.112 90.294C244.74 91.2856 244.569 92.3413 244.608 93.3998C244.647 94.4582 244.896 95.4984 245.34 96.4599C266.62 144.28 265.2 141.34 265.56 141.34C265.623 141.339 265.686 141.322 265.741 141.291C265.796 141.26 265.843 141.216 265.877 141.162C265.911 141.109 265.931 141.047 265.935 140.984C265.939 140.921 265.927 140.857 265.9 140.8L246 95.9999C245.607 95.1203 245.391 94.1717 245.366 93.2086C245.34 92.2455 245.505 91.2868 245.85 90.3875C246.196 89.4882 246.716 88.666 247.38 87.968C248.044 87.2699 248.839 86.7099 249.72 86.3199L267.2 78.5399C268.975 77.7502 270.99 77.6963 272.805 78.3898C274.619 79.0833 276.084 80.4678 276.88 82.2399C290.18 112.06 289.32 110.52 289.72 110.52C289.776 110.509 289.828 110.487 289.874 110.453C289.92 110.42 289.957 110.376 289.984 110.327C290.011 110.277 290.026 110.222 290.029 110.165C290.032 110.109 290.022 110.052 290 110Z" fill="white"/>
<path d="M370.92 207.8L303.64 56.68C300.382 49.3822 294.36 43.6759 286.898 40.8147C279.435 37.9534 271.142 38.1712 263.84 41.42L140.68 96.24C136.982 88.0985 130.216 81.7489 121.856 78.5755C113.496 75.4022 104.221 75.6623 96.0521 79.2994C87.8833 82.9364 81.4836 89.6553 78.2481 97.9913C75.0126 106.327 75.2038 115.604 78.78 123.8L61.38 131.56C57.7636 133.167 54.4995 135.472 51.7741 138.341C49.0487 141.211 46.9155 144.589 45.4965 148.284C44.0774 151.978 43.4004 155.916 43.5039 159.872C43.6075 163.828 44.4896 167.725 46.1 171.34L113.38 322.44C114.987 326.059 117.292 329.325 120.163 332.052C123.034 334.779 126.415 336.914 130.112 338.333C133.808 339.752 137.748 340.428 141.707 340.323C145.665 340.218 149.564 339.333 153.18 337.72L210.48 312.2C210.525 312.183 210.567 312.156 210.601 312.122C210.636 312.088 210.664 312.048 210.682 312.003C210.701 311.958 210.711 311.91 210.71 311.861C210.71 311.813 210.699 311.765 210.68 311.72C210.66 311.674 210.632 311.632 210.596 311.597C210.56 311.562 210.518 311.535 210.472 311.516C210.425 311.498 210.375 311.488 210.325 311.489C210.275 311.49 210.226 311.5 210.18 311.52L152.88 337.04C149.35 338.62 145.542 339.488 141.676 339.594C137.809 339.701 133.96 339.043 130.348 337.659C126.736 336.274 123.433 334.191 120.628 331.528C117.822 328.865 115.57 325.675 114 322.14L46.8 171.04C45.2295 167.514 44.3691 163.713 44.2679 159.855C44.1668 155.997 44.827 152.156 46.2107 148.553C47.5944 144.95 49.6746 141.654 52.3323 138.855C54.99 136.056 58.1732 133.808 61.7 132.24L264.14 42.1C267.676 40.5287 271.487 39.6703 275.355 39.574C279.223 39.4777 283.072 40.1453 286.682 41.5386C290.291 42.932 293.591 45.0236 296.391 47.6939C299.191 50.3642 301.437 53.5605 303 57.1L370.22 208.1C373.382 215.22 373.591 223.303 370.802 230.576C368.012 237.85 362.452 243.721 355.34 246.9L247.46 294.9C247.384 294.938 247.323 295 247.286 295.077C247.25 295.153 247.24 295.24 247.259 295.323C247.277 295.405 247.323 295.48 247.388 295.534C247.454 295.587 247.535 295.618 247.62 295.62C247.82 295.62 247.78 295.62 256.66 291.62C260.834 300.5 267.395 308.044 275.61 313.409C283.826 318.774 293.371 321.749 303.18 322C341.54 323 368.28 284 352.5 249.04L355.64 247.64C362.948 244.382 368.663 238.354 371.528 230.883C374.393 223.413 374.175 215.11 370.92 207.8ZM79.48 123.5C76.7022 117.145 76.0023 110.076 77.48 103.3L108.78 110.46L79.48 123.5ZM110.72 109.5L127.08 82C132.756 85.44 137.26 90.5153 140 96.56L110.72 109.5ZM257.36 291.26L302.5 271.26L264.94 303.1C261.884 299.548 259.333 295.591 257.36 291.34V291.26ZM265.36 303.56L304.1 270.72L310 320.94C301.733 321.789 293.384 320.663 285.637 317.656C277.89 314.648 270.968 309.844 265.44 303.64L265.36 303.56ZM349.36 295.56L305.18 270L351.82 249.24C355.138 256.609 356.648 264.665 356.223 272.736C355.799 280.807 353.453 288.659 349.38 295.64L349.36 295.56Z" fill="white"/>
<path d="M377.56 114.26L374.1 159.14C373.828 162.817 372.262 166.278 369.681 168.91C367.1 171.542 363.67 173.176 360 173.52C346.525 174.35 333.008 174.17 319.56 172.98C315.56 186.62 314.52 198.16 313.56 213.6C295.26 209.4 278.14 207.4 262.98 208.94C261.194 193.126 261.006 177.172 262.42 161.32L251.26 164.64C228.56 162.64 210.36 158.22 187.62 152.64C186.602 148.568 186.45 144.329 187.174 140.194C187.897 136.06 189.48 132.124 191.82 128.64C220.58 135.9 245.56 140.98 275.06 141.26L287.56 175.26L311.44 145.66C324.21 146.743 337.027 147.163 349.84 146.92L352.64 112.02C361.013 111.158 369.475 111.919 377.56 114.26Z" fill="#B2BEC3"/>
<path d="M164.56 272C164.459 272 164.363 271.96 164.291 271.889C164.22 271.817 164.18 271.721 164.18 271.62C164.18 271.519 164.22 271.423 164.291 271.351C164.363 271.28 164.459 271.24 164.56 271.24C164.661 271.24 164.757 271.28 164.829 271.351C164.9 271.423 164.94 271.519 164.94 271.62C164.94 271.721 164.9 271.817 164.829 271.889C164.757 271.96 164.661 272 164.56 272Z" fill="white"/>
<path d="M191.52 149.26C191.647 149.412 191.803 149.536 191.978 149.628C192.154 149.719 192.346 149.774 192.543 149.791C192.74 149.808 192.938 149.785 193.126 149.725C193.315 149.665 193.489 149.568 193.64 149.44C193.944 149.183 194.136 148.817 194.173 148.421C194.211 148.024 194.091 147.629 193.84 147.32C193.58 147.014 193.21 146.822 192.811 146.785C192.411 146.748 192.012 146.868 191.7 147.12C191.393 147.38 191.201 147.752 191.167 148.153C191.134 148.554 191.26 148.952 191.52 149.26Z" fill="white"/>
<path d="M227.5 143.14C227.76 143.446 228.13 143.638 228.529 143.675C228.929 143.712 229.328 143.592 229.64 143.34C229.947 143.08 230.139 142.708 230.173 142.307C230.206 141.906 230.08 141.508 229.82 141.2C229.555 140.892 229.178 140.703 228.773 140.673C228.368 140.643 227.968 140.775 227.66 141.04C227.352 141.305 227.163 141.682 227.133 142.087C227.103 142.492 227.235 142.892 227.5 143.2V143.14Z" fill="white"/>
<path d="M256 160.74C256.131 160.891 256.291 161.015 256.47 161.104C256.649 161.193 256.844 161.246 257.044 161.26C257.244 161.274 257.444 161.249 257.634 161.185C257.824 161.122 257.999 161.021 258.15 160.89C258.301 160.759 258.425 160.599 258.514 160.42C258.603 160.241 258.656 160.046 258.67 159.846C258.684 159.646 258.659 159.446 258.595 159.256C258.532 159.066 258.431 158.891 258.3 158.74C258.169 158.589 258.009 158.465 257.83 158.376C257.651 158.287 257.456 158.234 257.256 158.22C257.056 158.206 256.856 158.231 256.666 158.295C256.476 158.358 256.301 158.459 256.15 158.59C255.999 158.721 255.875 158.881 255.786 159.06C255.697 159.239 255.644 159.434 255.63 159.634C255.616 159.834 255.641 160.034 255.705 160.224C255.768 160.414 255.869 160.589 256 160.74Z" fill="white"/>
<path d="M323.06 166.36C323.325 166.665 323.701 166.852 324.104 166.88C324.507 166.908 324.905 166.775 325.21 166.51C325.515 166.245 325.702 165.869 325.73 165.466C325.758 165.063 325.625 164.665 325.36 164.36C325.229 164.209 325.069 164.085 324.89 163.996C324.711 163.907 324.516 163.854 324.316 163.84C324.116 163.826 323.916 163.851 323.726 163.915C323.536 163.978 323.361 164.079 323.21 164.21C323.059 164.341 322.935 164.501 322.846 164.68C322.757 164.859 322.704 165.054 322.69 165.254C322.676 165.453 322.701 165.654 322.765 165.844C322.828 166.033 322.929 166.209 323.06 166.36Z" fill="white"/>
<path d="M368.12 155.14C368.312 155.366 368.566 155.53 368.851 155.612C369.136 155.693 369.438 155.688 369.721 155.598C370.003 155.508 370.252 155.336 370.437 155.104C370.621 154.873 370.733 154.592 370.758 154.296C370.783 154.001 370.72 153.705 370.577 153.446C370.435 153.186 370.218 152.975 369.955 152.838C369.692 152.702 369.394 152.646 369.1 152.678C368.805 152.711 368.527 152.83 368.3 153.02C368.148 153.147 368.024 153.303 367.932 153.478C367.841 153.654 367.786 153.845 367.769 154.043C367.752 154.24 367.775 154.438 367.835 154.626C367.895 154.815 367.992 154.989 368.12 155.14Z" fill="white"/>
<path d="M281.2 177.78C281.327 177.932 281.483 178.056 281.658 178.148C281.834 178.239 282.026 178.294 282.223 178.311C282.42 178.328 282.618 178.305 282.806 178.245C282.995 178.185 283.169 178.088 283.32 177.96C283.627 177.7 283.819 177.328 283.853 176.927C283.886 176.526 283.76 176.128 283.5 175.82C283.373 175.668 283.217 175.544 283.042 175.452C282.866 175.361 282.674 175.306 282.477 175.289C282.28 175.272 282.082 175.295 281.894 175.355C281.705 175.415 281.531 175.512 281.38 175.64C281.073 175.9 280.881 176.272 280.847 176.673C280.814 177.074 280.94 177.472 281.2 177.78Z" fill="white"/>
<path d="M291.64 178.86C291.834 179.09 292.092 179.257 292.381 179.341C292.67 179.424 292.977 179.42 293.263 179.328C293.55 179.237 293.803 179.063 293.99 178.828C294.178 178.593 294.291 178.307 294.317 178.008C294.342 177.708 294.278 177.407 294.132 177.144C293.986 176.881 293.766 176.667 293.499 176.529C293.231 176.391 292.929 176.336 292.63 176.37C292.332 176.404 292.05 176.526 291.82 176.72C291.513 176.98 291.321 177.352 291.287 177.753C291.254 178.154 291.38 178.552 291.64 178.86Z" fill="white"/>
<path d="M305.8 204.28C305.994 204.51 306.252 204.677 306.541 204.76C306.83 204.844 307.137 204.84 307.423 204.748C307.71 204.657 307.963 204.483 308.15 204.248C308.338 204.013 308.451 203.727 308.477 203.427C308.502 203.128 308.438 202.827 308.292 202.564C308.146 202.301 307.926 202.087 307.659 201.949C307.391 201.811 307.089 201.756 306.79 201.79C306.492 201.824 306.21 201.946 305.98 202.14C305.673 202.4 305.481 202.771 305.447 203.173C305.414 203.574 305.54 203.972 305.8 204.28Z" fill="white"/>
<path d="M267 200.6C267.127 200.752 267.283 200.876 267.458 200.968C267.634 201.059 267.826 201.114 268.023 201.131C268.22 201.148 268.418 201.125 268.606 201.065C268.795 201.005 268.969 200.908 269.12 200.78C269.427 200.52 269.619 200.148 269.653 199.747C269.686 199.346 269.56 198.948 269.3 198.64C269.173 198.489 269.017 198.364 268.842 198.272C268.666 198.181 268.474 198.126 268.277 198.109C268.08 198.092 267.882 198.115 267.694 198.175C267.505 198.235 267.331 198.332 267.18 198.46C266.873 198.72 266.681 199.092 266.647 199.493C266.614 199.894 266.74 200.292 267 200.6Z" fill="white"/>
<path d="M355.62 119.54C355.88 119.847 356.252 120.039 356.653 120.073C357.054 120.106 357.452 119.979 357.76 119.72C357.916 119.597 358.046 119.445 358.143 119.271C358.239 119.098 358.3 118.907 358.323 118.71C358.345 118.513 358.328 118.313 358.273 118.123C358.217 117.932 358.125 117.754 358 117.6C357.869 117.448 357.709 117.323 357.529 117.232C357.349 117.142 357.154 117.087 356.953 117.073C356.753 117.058 356.551 117.082 356.36 117.146C356.169 117.209 355.992 117.309 355.84 117.44C355.688 117.571 355.563 117.731 355.472 117.911C355.382 118.09 355.328 118.286 355.313 118.487C355.298 118.687 355.323 118.889 355.386 119.08C355.449 119.271 355.549 119.448 355.68 119.6L355.62 119.54Z" fill="white"/>
<path d="M39.58 184.88L18.4 176.62C18.3071 176.587 18.2051 176.592 18.1156 176.633C18.026 176.674 17.9559 176.748 17.92 176.84L9.64 198C9.60287 198.095 9.60519 198.202 9.64645 198.295C9.68771 198.389 9.76452 198.463 9.86 198.5C9.95548 198.537 10.0618 198.535 10.1556 198.493C10.2493 198.452 10.3229 198.375 10.36 198.28L18.28 178L36.46 219.42C36.4797 219.466 36.5083 219.508 36.544 219.542C36.5798 219.577 36.6222 219.605 36.6686 219.623C36.715 219.642 36.7646 219.651 36.8146 219.651C36.8647 219.65 36.914 219.64 36.96 219.62C37.006 219.6 37.0476 219.572 37.0825 219.536C37.1174 219.5 37.145 219.458 37.1636 219.411C37.1821 219.365 37.1914 219.315 37.1908 219.265C37.1902 219.215 37.1797 219.166 37.16 219.12L18.98 177.66L39.32 185.66C39.4234 185.694 39.5363 185.686 39.6339 185.638C39.7314 185.589 39.8055 185.503 39.84 185.4C39.8745 185.296 39.8665 185.184 39.8177 185.086C39.7689 184.989 39.6834 184.914 39.58 184.88Z" fill="white"/>
<path d="M363.24 302.6C362.889 301.791 362.743 300.908 362.815 300.029C362.886 299.15 363.174 298.303 363.652 297.562C364.129 296.821 364.783 296.209 365.553 295.78C366.324 295.352 367.189 295.121 368.07 295.106C368.952 295.092 369.823 295.296 370.608 295.699C371.392 296.102 372.064 296.692 372.566 297.418C373.067 298.143 373.382 298.981 373.482 299.857C373.582 300.733 373.465 301.62 373.14 302.44C372.743 303.418 372.066 304.257 371.196 304.853C370.325 305.449 369.298 305.776 368.243 305.793C367.188 305.81 366.151 305.517 365.261 304.949C364.372 304.381 363.669 303.564 363.24 302.6ZM366.32 296.24C365.479 296.594 364.762 297.19 364.261 297.952C363.759 298.714 363.496 299.608 363.504 300.521C363.512 301.433 363.792 302.322 364.306 303.076C364.821 303.829 365.549 304.412 366.396 304.751C367.243 305.09 368.172 305.169 369.064 304.979C369.956 304.788 370.772 304.337 371.407 303.682C372.042 303.027 372.468 302.198 372.63 301.3C372.793 300.402 372.685 299.476 372.32 298.64C371.836 297.531 370.935 296.658 369.812 296.209C368.689 295.76 367.435 295.771 366.32 296.24Z" fill="white"/>
<path d="M385.02 312.32C384.052 312.321 383.103 312.059 382.272 311.564C381.441 311.068 380.759 310.357 380.3 309.505C379.84 308.654 379.62 307.694 379.662 306.727C379.704 305.76 380.007 304.823 380.539 304.015C381.071 303.206 381.811 302.557 382.682 302.135C383.553 301.714 384.522 301.536 385.486 301.621C386.45 301.705 387.373 302.049 388.157 302.616C388.941 303.183 389.557 303.951 389.94 304.84C390.296 305.655 390.444 306.546 390.368 307.432C390.293 308.318 389.998 309.172 389.509 309.915C389.02 310.658 388.354 311.267 387.57 311.687C386.786 312.107 385.909 312.325 385.02 312.32ZM385.02 302.32C384.031 302.323 383.069 302.645 382.278 303.238C381.486 303.831 380.907 304.663 380.625 305.611C380.344 306.559 380.376 307.573 380.716 308.502C381.056 309.43 381.686 310.225 382.513 310.767C383.34 311.309 384.32 311.57 385.307 311.512C386.294 311.454 387.237 311.079 387.994 310.442C388.751 309.806 389.283 308.943 389.511 307.981C389.739 307.019 389.651 306.008 389.26 305.1C388.894 304.278 388.296 303.581 387.539 303.094C386.782 302.608 385.9 302.352 385 302.36L385.02 302.32Z" fill="white"/>
<path d="M370.26 318.5L382.14 288.5C382.154 288.448 382.178 288.399 382.212 288.357C382.246 288.315 382.288 288.281 382.336 288.256C382.384 288.232 382.437 288.218 382.491 288.216C382.545 288.213 382.599 288.222 382.649 288.242C382.699 288.263 382.744 288.293 382.782 288.332C382.819 288.371 382.848 288.417 382.866 288.468C382.884 288.519 382.891 288.573 382.886 288.627C382.882 288.68 382.866 288.733 382.84 288.78L370.96 318.78C370.915 318.861 370.842 318.922 370.755 318.953C370.668 318.984 370.573 318.982 370.487 318.948C370.401 318.914 370.33 318.849 370.289 318.767C370.247 318.684 370.237 318.589 370.26 318.5Z" fill="white"/>
<path d="M342.66 87.08L346.34 77.62L336.92 74C336.875 73.9824 336.833 73.9559 336.799 73.922C336.764 73.8881 336.736 73.8475 336.718 73.8027C336.699 73.7578 336.689 73.7097 336.69 73.6611C336.69 73.6125 336.701 73.5645 336.72 73.52L340.38 64.04L330.84 60.18C330.793 60.1645 330.75 60.1394 330.713 60.1064C330.676 60.0734 330.646 60.0331 330.625 59.988C330.605 59.9429 330.593 59.8941 330.593 59.8445C330.592 59.795 330.601 59.7458 330.62 59.7L334.3 50.22L324.56 46.44C324.479 46.3951 324.417 46.3222 324.386 46.2351C324.355 46.148 324.357 46.0525 324.392 45.9667C324.426 45.8808 324.491 45.8104 324.573 45.7687C324.656 45.7269 324.75 45.7167 324.84 45.74L334.84 49.74C334.888 49.7577 334.932 49.7848 334.969 49.8197C335.006 49.8546 335.035 49.8967 335.056 49.9433C335.077 49.99 335.087 50.0403 335.088 50.0912C335.089 50.1422 335.079 50.1928 335.06 50.24L331.38 59.7L340.94 63.56C341.028 63.5996 341.098 63.6712 341.135 63.7604C341.172 63.8496 341.174 63.9495 341.14 64.04L337.48 73.52L346.88 77.06C346.928 77.0776 346.972 77.1048 347.009 77.1397C347.046 77.1746 347.075 77.2167 347.096 77.2633C347.117 77.31 347.127 77.3603 347.128 77.4112C347.129 77.4622 347.119 77.5128 347.1 77.56L343.28 87.38C343.224 87.4257 343.156 87.4544 343.084 87.4628C343.012 87.4712 342.94 87.459 342.874 87.4274C342.809 87.3959 342.755 87.3465 342.717 87.285C342.679 87.2234 342.659 87.1523 342.66 87.08Z" fill="white"/>
<path d="M346.82 70.56L350.5 61.08L341.1 57.54C341.05 57.525 341.005 57.4993 340.966 57.4649C340.927 57.4305 340.896 57.3881 340.875 57.3406C340.854 57.2931 340.844 57.2416 340.845 57.1898C340.846 57.1379 340.858 57.0868 340.88 57.04L344.56 47.58L335 43.72C334.907 43.6801 334.832 43.6063 334.791 43.5134C334.75 43.4206 334.746 43.3157 334.78 43.22L338.46 33.76L328.72 30C328.639 29.9551 328.577 29.8823 328.546 29.7951C328.515 29.708 328.517 29.6126 328.552 29.5267C328.586 29.4409 328.651 29.3705 328.733 29.3287C328.816 29.287 328.91 29.2768 329 29.3L339 33.3C339.047 33.3155 339.09 33.3406 339.127 33.3736C339.164 33.4066 339.194 33.4469 339.215 33.492C339.235 33.5371 339.247 33.5859 339.247 33.6355C339.248 33.685 339.239 33.7342 339.22 33.78L335.54 43.26L345.1 47.12C345.192 47.1559 345.266 47.226 345.307 47.3156C345.348 47.4051 345.353 47.5071 345.32 47.6L341.64 57.06L351.04 60.62C351.087 60.6355 351.13 60.6606 351.167 60.6936C351.204 60.7266 351.234 60.7669 351.255 60.812C351.275 60.8571 351.287 60.9059 351.287 60.9555C351.288 61.005 351.279 61.0542 351.26 61.1L347.44 70.92C347.429 70.9797 347.403 71.0358 347.366 71.0836C347.328 71.1314 347.28 71.1695 347.225 71.1947C347.169 71.22 347.109 71.2316 347.048 71.2286C346.987 71.2257 346.928 71.2082 346.876 71.1777C346.823 71.1472 346.779 71.1045 346.746 71.0533C346.714 71.0021 346.694 70.9438 346.688 70.8833C346.683 70.8228 346.692 70.7619 346.715 70.7056C346.738 70.6494 346.774 70.5995 346.82 70.56Z" fill="white"/>
<path d="M211.48 23.28L198.86 29.12L193.02 16.52C193.004 16.4676 192.978 16.4192 192.941 16.3781C192.905 16.337 192.861 16.3042 192.811 16.2818C192.761 16.2595 192.707 16.2483 192.652 16.2488C192.598 16.2493 192.544 16.2617 192.494 16.2849C192.445 16.3082 192.401 16.3419 192.365 16.3837C192.33 16.4255 192.304 16.4744 192.29 16.5271C192.275 16.5798 192.272 16.635 192.281 16.689C192.289 16.743 192.31 16.7945 192.34 16.84L198.18 29.44L185.58 35.3C185.525 35.3115 185.472 35.3353 185.427 35.3696C185.382 35.4039 185.345 35.4478 185.319 35.4982C185.294 35.5485 185.279 35.6041 185.278 35.6607C185.276 35.7173 185.287 35.7736 185.31 35.8254C185.333 35.8772 185.367 35.9233 185.41 35.9602C185.453 35.9971 185.503 36.0239 185.558 36.0388C185.613 36.0536 185.67 36.056 185.726 36.0458C185.781 36.0356 185.834 36.0131 185.88 35.98L198.5 30.12L204.34 42.74C204.391 42.8156 204.467 42.8706 204.554 42.8949C204.642 42.9193 204.735 42.9113 204.818 42.8726C204.9 42.8339 204.966 42.7669 205.003 42.6838C205.04 42.6008 205.046 42.5071 205.02 42.42L199.18 29.82L211.78 23.96C211.835 23.9484 211.888 23.9246 211.933 23.8904C211.978 23.8561 212.015 23.8121 212.041 23.7618C212.066 23.7114 212.081 23.6559 212.082 23.5993C212.084 23.5426 212.073 23.4864 212.05 23.4345C212.027 23.3827 211.993 23.3367 211.95 23.2997C211.907 23.2628 211.857 23.236 211.802 23.2212C211.747 23.2063 211.69 23.2039 211.634 23.2141C211.579 23.2243 211.526 23.2468 211.48 23.28Z" fill="white"/>
<path d="M79.16 311.42L73.88 299.8C73.8515 299.739 73.8395 299.672 73.8453 299.605C73.8511 299.539 73.8745 299.474 73.9131 299.42C73.9517 299.365 74.0041 299.321 74.0651 299.293C74.126 299.265 74.1932 299.254 74.26 299.26L86.96 300.52C87.0252 300.524 87.0879 300.546 87.1415 300.584C87.1951 300.621 87.2375 300.672 87.2642 300.732C87.2909 300.792 87.3009 300.857 87.2931 300.922C87.2853 300.987 87.2601 301.048 87.22 301.1L79.8 311.48C79.7646 311.536 79.7142 311.582 79.6544 311.611C79.5947 311.641 79.5279 311.653 79.4615 311.647C79.3952 311.641 79.3319 311.616 79.2786 311.576C79.2254 311.536 79.1843 311.482 79.16 311.42ZM74.84 300L79.56 310.42L86.24 301.12L74.84 300Z" fill="white"/>
<path d="M388.46 87.18C387.84 86.52 386.46 86.96 384.16 88.4C385.16 87.02 386.16 85.64 386.9 84.4C387.05 84.2285 387.133 84.0081 387.133 83.78C387.133 83.5518 387.05 83.3315 386.9 83.16C385.28 81.72 379.92 87.32 378.44 88.9C379.5 86.62 379.48 85.96 379.06 85.64C378.64 85.32 377.76 85.64 375.06 88C372.066 90.8306 369.427 94.0139 367.2 97.48C367.114 97.5834 367.008 97.6672 366.887 97.7258C366.766 97.7845 366.634 97.8166 366.5 97.82C365.18 97.54 364.16 91.82 363.2 89.32C362.74 88.18 361.86 86.3 360.78 86.5C360.12 86.62 359.38 87.42 359.48 92.5C359.288 98.7949 358.72 105.073 357.78 111.3C356.12 111.3 354.44 111.46 352.78 111.64C352.732 111.634 352.684 111.639 352.638 111.653C352.592 111.668 352.549 111.692 352.513 111.724C352.477 111.756 352.449 111.796 352.429 111.84C352.41 111.884 352.4 111.932 352.4 111.98L349.64 146.54C302.18 147.32 300.32 142.4 299.42 140.04C298.383 137.091 298.014 133.949 298.34 130.84C299.54 124.64 308.92 117.72 309.02 117.64C309.12 117.56 309.18 117.34 309.02 116.34C307.62 109.4 306.18 102.24 300.72 97.58C300.654 97.521 300.569 97.4883 300.48 97.4883C300.391 97.4883 300.306 97.521 300.24 97.58C295.887 101.224 292.135 105.53 289.12 110.34C286.38 114.8 281.76 122.78 284.64 126.82C285.384 127.666 286.311 128.331 287.351 128.764C288.391 129.197 289.516 129.387 290.64 129.32C290.18 130.7 288.88 134.68 288.08 138.26C287.52 140.78 284.76 140.88 278.08 140.8C245.22 140.52 224.18 136.04 192.22 128.18C192.142 128.159 192.059 128.162 191.984 128.191C191.908 128.22 191.844 128.272 191.8 128.34L191.12 129.46C185.427 128.145 179.664 127.15 173.86 126.48C168.3 126.12 165.86 126.48 164.76 129.8C164.065 130.049 163.452 130.485 162.99 131.06C162.528 131.636 162.233 132.328 162.14 133.06C161.539 133.341 161.013 133.758 160.603 134.279C160.193 134.8 159.911 135.41 159.78 136.06C157.08 136.06 154.18 136.06 152.04 136.06C149.24 136.24 147.26 137.18 147.24 138.32C147.24 138.9 147.66 139.4 148.52 139.82L84.52 135.82C84.397 135.844 84.2863 135.91 84.2066 136.007C84.127 136.103 84.0834 136.225 84.0834 136.35C84.0834 136.475 84.127 136.597 84.2066 136.693C84.2863 136.79 84.397 136.856 84.52 136.88L163.38 144C165.515 146.727 168.499 148.663 171.86 149.5C176.69 150.85 181.76 151.103 186.7 150.24C186.84 151.06 187 151.86 187.22 152.68C187.235 152.745 187.267 152.806 187.312 152.855C187.358 152.904 187.416 152.94 187.48 152.96C216.82 160.18 234.76 164.34 261.62 165.74C260.58 181.382 261.049 197.088 263.02 212.64C245.35 208.573 227.421 205.726 209.36 204.12C204.5 203.72 199.66 205.099 195.74 208C176.462 222.176 157.912 237.315 140.16 253.36C140.108 253.429 140.08 253.513 140.08 253.6C140.08 253.687 140.108 253.771 140.16 253.84C140.66 254.66 141.18 255.48 141.72 256.32C131.48 266.14 103 284.82 104.58 288.32C106.16 291.82 123.64 287.1 133.84 287.1C136.734 287.129 139.614 286.711 142.38 285.86C145.98 284.4 150.38 277.26 155.6 272.48C156.88 273.66 158.22 274.82 159.6 275.96C159.671 276.017 159.759 276.048 159.85 276.048C159.941 276.048 160.029 276.017 160.1 275.96C175.83 262.177 192.644 249.683 210.38 238.6C221.895 239.709 233.279 241.905 244.38 245.16C239.233 248.88 234.293 252.78 229.56 256.86C224.529 261.178 220.854 266.86 218.98 273.22C213.287 292.96 209.147 313.114 206.6 333.5C206.59 333.584 206.608 333.669 206.651 333.741C206.695 333.814 206.761 333.869 206.84 333.9C208.46 334.46 210.08 334.98 211.72 335.46C209.72 349.46 198.9 381.76 202.3 383.46C205.7 385.16 216.64 370.64 224.6 364.4C226.914 362.654 228.939 360.555 230.6 358.18C232.6 354.84 231.64 346.18 232.72 339.34C234.72 339.54 236.94 339.7 239.06 339.74C239.151 339.741 239.24 339.709 239.31 339.651C239.379 339.592 239.426 339.51 239.44 339.42C241.633 320.285 245.788 301.425 251.84 283.14C304.04 258.34 299.84 260.36 300.78 259.86C325.5 246.42 314.66 215.26 314.02 213.46C314.98 197.46 316.32 185.06 319.88 173.3C333.218 174.519 346.628 174.753 360 174C363.77 173.656 367.296 171.986 369.951 169.287C372.606 166.588 374.218 163.035 374.5 159.26L378 114.28C378.001 114.198 377.977 114.117 377.93 114.049C377.884 113.981 377.817 113.929 377.74 113.9C377.22 113.76 375.56 113.26 372.7 112.68C372.7 110.96 372.86 109.6 372.94 108.42C374.319 104.612 376.581 101.185 379.54 98.42C379.74 98.22 386.58 90.88 388.5 88.42C388.641 88.242 388.715 88.0197 388.707 87.7927C388.7 87.5656 388.612 87.3485 388.46 87.18ZM360 92.56C360 87.56 360.66 87.34 360.7 87.34C360.74 87.34 361.58 87.94 362.28 89.7C363.4 92.54 364.28 98.42 366.28 98.68C363.513 102.666 361.141 106.913 359.2 111.36H358.36C359.302 105.134 359.85 98.8549 360 92.56ZM310.68 146L288 174C289.58 161.38 291.54 149.3 292.9 143.6C299.5 154.26 299.02 153.6 299.32 153.6C299.62 153.6 298.92 154.32 306.52 145.16C307.74 145.54 309.1 145.8 310.68 146ZM299.26 141.7C300.16 142.9 301.92 144.08 305.74 145.06L299.42 152.66L293.42 143.06C295.442 143.055 297.438 142.597 299.26 141.72V141.7ZM290.1 132.62L293.9 129C293.944 128.94 293.969 128.868 293.972 128.793C293.976 128.719 293.957 128.645 293.919 128.581C293.88 128.517 293.824 128.466 293.757 128.433C293.689 128.401 293.614 128.39 293.54 128.4C293.54 128.4 287.26 129.58 285.04 126.4C282.82 123.22 285.82 117.26 287.82 113.9C290.46 109.48 293 107.42 294.98 108.1C297.38 108.92 298.72 113.46 298.28 116.82C298.14 117.98 298.88 118.82 301.06 117.4C304.12 115.4 305.72 120.6 299.86 122.82C298.88 123.2 297.98 126.06 297.72 127.22C296.828 131.836 297.215 136.608 298.84 141.02C297.078 141.979 295.078 142.415 293.076 142.277C291.075 142.139 289.154 141.432 287.54 140.24C288.68 139.26 288.24 138.74 290.1 132.64V132.62ZM286.9 140.74C288.395 141.891 290.156 142.648 292.02 142.94L284.02 151.66L280.12 141.66C282.419 141.869 284.735 141.561 286.9 140.76V140.74ZM279.28 141.64L283.5 152.5C283.527 152.558 283.567 152.608 283.617 152.647C283.668 152.686 283.727 152.713 283.789 152.725C283.852 152.736 283.916 152.733 283.977 152.715C284.038 152.697 284.094 152.664 284.14 152.62L292 144C290.66 149.88 288.78 161.5 287.26 173.68L275.48 141.68L279.28 141.64ZM186.58 149.52C181.73 150.415 176.738 150.169 172 148.8C167.36 147.6 163.48 143.94 163.7 142.8C163.7 142.44 164.56 142.5 164.84 142.54C167.765 143.1 170.599 144.062 173.26 145.4C173.35 145.445 173.455 145.452 173.55 145.421C173.646 145.389 173.725 145.32 173.77 145.23C173.815 145.14 173.822 145.035 173.791 144.94C173.759 144.844 173.69 144.765 173.6 144.72C167.48 141.52 160.46 141.06 153.6 140.38C148.88 139.92 147.6 138.92 147.6 138.38C147.6 137.84 149.06 137.02 151.6 136.86C156.527 136.673 161.461 136.753 166.38 137.1C166.86 137.1 166.96 136.4 166.38 136.34C165.44 136.34 162.88 136.12 160 136.06C160.78 133.62 162.24 132.92 168 133.46C168.1 133.466 168.198 133.435 168.276 133.372C168.354 133.309 168.405 133.219 168.42 133.12C168.426 133.07 168.421 133.019 168.407 132.971C168.393 132.923 168.369 132.878 168.338 132.839C168.306 132.8 168.267 132.768 168.223 132.744C168.179 132.72 168.13 132.705 168.08 132.7C166.218 132.404 164.322 132.404 162.46 132.7C163.08 130.52 164.76 129.4 170.74 130.1C170.838 130.106 170.934 130.073 171.008 130.01C171.083 129.947 171.13 129.857 171.14 129.76C171.146 129.71 171.141 129.659 171.127 129.611C171.113 129.563 171.089 129.518 171.058 129.479C171.026 129.44 170.987 129.408 170.943 129.384C170.899 129.36 170.85 129.345 170.8 129.34C168.917 129.067 167.003 129.067 165.12 129.34C165.98 127.16 167.88 126.7 173.26 127.06C178.957 127.713 184.613 128.688 190.2 129.98C186.84 135.904 185.565 142.785 186.58 149.52ZM262.74 161.34C262.745 161.279 262.736 161.217 262.712 161.16C262.689 161.104 262.652 161.054 262.605 161.014C262.558 160.975 262.502 160.948 262.442 160.935C262.381 160.922 262.319 160.924 262.26 160.94L251.12 164.28C229.82 162.42 213.12 158.5 187.88 152.28C186.928 148.338 186.792 144.243 187.48 140.247C188.168 136.25 189.665 132.437 191.88 129.04C221.44 136.3 243.42 141.04 274.68 141.58L287.04 175.28C285.519 186.29 284.69 197.386 284.56 208.5C277.454 207.859 270.306 207.859 263.2 208.5C261.504 192.833 261.35 177.037 262.74 161.34ZM142 285.16C139.318 285.951 136.536 286.348 133.74 286.34C124.5 286.34 106.32 290.6 105.16 288C105.16 288 105.16 287.44 106.38 286C109.8 286.66 117.78 285.46 122.12 284.88C139.62 282.54 139.24 283.96 145.38 282.52C144.424 283.599 143.279 284.494 142 285.16ZM152.36 274.58C144.424 273.415 136.746 270.899 129.66 267.14C133.84 263.92 138.9 259.92 142.04 256.94C145.73 262.458 150.067 267.514 154.96 272C154.18 272.68 153.28 273.6 152.38 274.58H152.36ZM210.22 237.84C210.185 237.825 210.148 237.817 210.11 237.817C210.072 237.817 210.035 237.825 210 237.84C192.271 248.894 175.463 261.361 159.74 275.12C156.938 272.811 154.267 270.347 151.74 267.74C167.296 254.276 183.688 241.811 200.82 230.42C204.811 227.718 209.679 226.631 214.44 227.38C228.774 229.561 242.961 232.62 256.92 236.54C252.92 239.1 248.96 241.767 245.04 244.54C233.687 241.175 222.031 238.931 210.24 237.84H210.22ZM207.34 333.3C209.89 313.058 214.009 293.044 219.66 273.44C221.501 267.22 225.098 261.664 230.02 257.44C243.425 245.968 258.077 236.039 273.7 227.84C273.751 227.821 273.798 227.791 273.837 227.753C273.875 227.715 273.905 227.668 273.925 227.617C273.944 227.566 273.952 227.511 273.948 227.457C273.944 227.402 273.929 227.349 273.902 227.301C273.876 227.253 273.84 227.212 273.796 227.179C273.753 227.146 273.702 227.123 273.649 227.112C273.596 227.1 273.54 227.1 273.487 227.112C273.434 227.124 273.384 227.147 273.34 227.18C268.007 229.953 262.847 232.92 257.86 236.08C243.654 232.065 229.213 228.932 214.62 226.7C209.671 225.944 204.618 227.071 200.46 229.86C183.291 241.279 166.864 253.778 151.28 267.28C147.326 263.156 143.838 258.608 140.88 253.72C158.554 237.758 177.017 222.693 196.2 208.58C199.968 205.79 204.63 204.481 209.3 204.9C227.479 206.512 245.523 209.392 263.3 213.52C263.36 213.533 263.422 213.532 263.481 213.516C263.54 213.501 263.594 213.471 263.639 213.43C263.685 213.389 263.719 213.337 263.74 213.28C263.761 213.222 263.768 213.161 263.76 213.1C263.6 211.86 263.44 210.58 263.28 209.26C276.343 208.273 289.479 209.087 302.32 211.68C302.12 213.82 301.46 225.02 309.12 231.12C288.095 241.511 267.926 253.548 248.8 267.12C242.531 271.653 237.944 278.139 235.76 285.56C230.922 302.654 227.313 320.071 224.96 337.68C218.981 336.714 213.094 335.249 207.36 333.3H207.34ZM229.82 357.88C228.241 360.169 226.311 362.194 224.1 363.88C216.88 369.54 205.1 384.22 202.62 382.88C202.62 382.88 202.22 382.6 202.36 380.52C207.62 377.72 217.82 365.04 225.24 359.22C227.301 357.589 229.185 355.746 230.86 353.72C230.801 355.161 230.454 356.575 229.84 357.88H229.82ZM231.44 343.16C224.489 347.159 216.896 349.92 209 351.32C210.28 346.22 211.78 340 212.4 335.68C218.762 337.492 225.275 338.724 231.86 339.36C231.7 340.4 231.58 341.66 231.46 343.16H231.44ZM300.18 259.36C299.6 259.66 283.34 267.36 251.3 282.6C251.245 282.62 251.195 282.652 251.153 282.693C251.112 282.735 251.08 282.785 251.06 282.84C244.996 301.104 240.827 319.943 238.62 339.06C234.314 338.896 230.02 338.489 225.76 337.84C228.114 320.271 231.723 302.893 236.56 285.84C238.689 278.591 243.171 272.258 249.3 267.84C268.5 254.206 288.75 242.115 309.86 231.68C310.946 232.49 312.128 233.162 313.38 233.68C313.426 233.699 313.475 233.708 313.525 233.707C313.574 233.707 313.623 233.695 313.668 233.675C313.713 233.654 313.753 233.624 313.786 233.587C313.819 233.55 313.844 233.507 313.86 233.46C313.894 233.37 313.892 233.27 313.855 233.18C313.818 233.091 313.748 233.02 313.66 232.98C302.16 228.38 302.88 214.48 303.12 211.96C306.38 212.56 309.76 213.26 313.22 213.96C314.18 216.58 324.1 246.46 300.2 259.36H300.18ZM377.14 114.52L373.7 159.1C373.442 162.694 371.911 166.078 369.381 168.644C366.852 171.21 363.49 172.79 359.9 173.1C344.31 174.021 328.67 173.653 313.14 172C313.068 171.988 312.994 171.998 312.928 172.029C312.862 172.06 312.807 172.11 312.771 172.173C312.734 172.236 312.717 172.308 312.722 172.381C312.727 172.454 312.755 172.523 312.8 172.58L317.36 179.46C315.021 190.549 313.623 201.816 313.18 213.14C304.034 210.992 294.753 209.468 285.4 208.58C285.514 197.499 286.336 186.436 287.86 175.46L311.54 146.14C322.36 147.6 338.94 147.56 349.82 147.36C350 147.36 350.16 147.2 350.2 146.94L352.96 112.44C361.086 111.627 369.292 112.333 377.16 114.52H377.14ZM371.88 112.52C367.963 111.777 363.987 111.389 360 111.36C362.953 104.961 366.631 98.9213 370.96 93.36C372.262 91.6348 373.736 90.0466 375.36 88.62C376.249 87.6701 377.298 86.8847 378.46 86.3C378.189 87.5515 377.709 88.7483 377.04 89.84C373.06 97.8 372.3 103.84 372 112.52H371.88ZM373.08 106C373.543 101.063 374.863 96.2442 376.98 91.76C377.94 90.28 383.3 84.56 385.72 83.76C386.12 83.64 386.46 83.64 386.24 84C384.46 86.78 381.04 91.04 379.42 93.72C377.099 97.6992 374.989 101.798 373.1 106H373.08ZM387.82 88C385.54 90.92 378.08 98.76 376.62 100.5C378.349 96.9142 380.411 93.4992 382.78 90.3C387.38 86.98 388.24 87.46 387.84 88H387.82Z" fill="white"/>
</svg>
