<svg width="400" height="401" viewBox="0 0 400 401" fill="none" xmlns="http://www.w3.org/2000/svg">
<path d="M174.106 277.696L162.624 324.314C152.227 324.652 141.956 321.961 133.06 316.568L140.71 285.948L174.106 277.696Z" fill="#FFE7EA"/>
<path d="M272.536 238.417C272.536 238.318 272.496 238.222 272.426 238.152C272.355 238.081 272.26 238.042 272.16 238.042C272.06 238.042 271.965 238.081 271.894 238.152C271.824 238.222 271.784 238.318 271.784 238.417V239.448C271.77 244.772 270.185 249.973 267.228 254.401C264.272 258.829 260.074 262.286 255.162 264.339C255.07 264.378 254.997 264.452 254.959 264.544C254.922 264.637 254.922 264.74 254.961 264.833C255 264.925 255.073 264.997 255.166 265.035C255.258 265.073 255.362 265.072 255.454 265.033C260.503 262.924 264.818 259.371 267.856 254.82C270.895 250.268 272.523 244.922 272.536 239.45V238.417Z" fill="#1890ff"/>
<path d="M245.188 95.0336H78.72C71.3533 94.9487 64.2535 97.7886 58.9776 102.931C53.7017 108.073 50.6803 115.097 50.576 122.464V238.628C50.5187 242.28 51.1888 245.907 52.5472 249.298C53.9057 252.689 55.9253 255.775 58.4885 258.378C61.0517 260.98 64.1072 263.046 67.4769 264.456C70.8466 265.866 74.4632 266.591 78.116 266.59H88.354C88.4537 266.59 88.5494 266.55 88.6199 266.479C88.6904 266.409 88.73 266.313 88.73 266.214C88.73 266.114 88.6904 266.018 88.6199 265.948C88.5494 265.877 88.4537 265.838 88.354 265.838C76.908 265.812 78.14 265.81 78.06 265.818C74.511 265.816 70.9979 265.108 67.7251 263.736C64.4523 262.363 61.4852 260.353 58.9966 257.823C56.5081 255.293 54.5478 252.293 53.2298 248.998C51.9119 245.703 51.2627 242.178 51.32 238.63L51.42 128.57H159.69C160.348 128.57 159.908 127.828 159.702 127.828H51.502V122.468C51.562 107.564 64.272 96.0316 79.162 96.0316L245.174 95.7876C252.372 95.9441 259.224 98.9069 264.268 104.044C269.312 109.181 272.149 116.086 272.174 123.286V128.45C211.374 128.45 199.454 128.296 197.196 128.36C196.524 128.38 197.136 129.062 197.344 129.064L272.12 129.296C272.12 190.08 272.062 185.866 272.344 185.866C272.544 185.866 272.828 185.7 272.828 185.492V123.292C272.845 115.898 269.957 108.794 264.788 103.509C259.618 98.2241 252.58 95.1804 245.188 95.0336Z" fill="#1890ff"/>
<path d="M75.368 109.611C74.8315 109.071 74.1698 108.67 73.4416 108.446C72.7134 108.222 71.9412 108.181 71.1934 108.327C70.4456 108.473 69.7453 108.801 69.1545 109.282C68.5637 109.763 68.1008 110.382 67.8066 111.085C67.5125 111.788 67.3962 112.552 67.4681 113.311C67.5401 114.069 67.798 114.798 68.2191 115.433C68.6401 116.068 69.2113 116.59 69.882 116.951C70.5526 117.312 71.3021 117.503 72.064 117.505C72.9782 117.505 73.8717 117.234 74.6326 116.727C75.3934 116.22 75.9875 115.5 76.3405 114.657C76.6934 113.814 76.7894 112.885 76.6164 111.987C76.4434 111.09 76.0091 110.263 75.368 109.611Z" fill="#1890ff"/>
<path d="M84.932 117.554C84.0155 117.552 83.12 117.278 82.3589 116.768C81.5979 116.257 81.0054 115.532 80.6566 114.684C80.3078 113.837 80.2183 112.905 80.3993 112.006C80.5804 111.108 81.024 110.283 81.6739 109.637C82.3238 108.991 83.1509 108.552 84.0504 108.376C84.9498 108.2 85.8813 108.295 86.7269 108.648C87.5725 109.002 88.2942 109.598 88.8007 110.362C89.3071 111.126 89.5756 112.023 89.572 112.94C89.5678 114.166 89.0767 115.342 88.2067 116.207C87.3367 117.072 86.1589 117.556 84.932 117.554ZM81.062 112.908C81.0592 113.546 81.2139 114.175 81.5124 114.739C81.8109 115.303 82.244 115.785 82.7732 116.142C83.3025 116.499 83.9116 116.719 84.5466 116.784C85.1815 116.849 85.8227 116.757 86.4133 116.515C87.0039 116.273 87.5257 115.889 87.9324 115.397C88.3391 114.905 88.6181 114.32 88.7448 113.695C88.8715 113.069 88.8418 112.422 88.6585 111.81C88.4752 111.199 88.1439 110.642 87.694 110.19C87.1541 109.644 86.4642 109.27 85.7119 109.117C84.9595 108.964 84.1786 109.037 83.4681 109.328C82.7577 109.62 82.1497 110.115 81.7213 110.752C81.2929 111.39 81.0635 112.14 81.062 112.908Z" fill="#1890ff"/>
<path d="M97.824 117.601C96.9075 117.6 96.012 117.326 95.2509 116.816C94.4899 116.305 93.8974 115.58 93.5486 114.732C93.1998 113.885 93.1103 112.953 93.2914 112.054C93.4725 111.156 93.916 110.331 94.5659 109.685C95.2159 109.039 96.0429 108.6 96.9424 108.424C97.8419 108.248 98.7733 108.342 99.6189 108.696C100.465 109.05 101.186 109.646 101.693 110.41C102.199 111.174 102.468 112.071 102.464 112.987C102.459 114.214 101.968 115.389 101.098 116.254C100.228 117.119 99.0508 117.604 97.824 117.601ZM97.84 109.091C97.0728 109.09 96.3223 109.316 95.6835 109.741C95.0446 110.165 94.5461 110.77 94.2508 111.478C93.9556 112.186 93.8769 112.966 94.0247 113.719C94.1726 114.472 94.5403 115.164 95.0814 115.708C95.6225 116.252 96.3127 116.623 97.0648 116.775C97.8169 116.926 98.597 116.852 99.3067 116.56C100.016 116.269 100.624 115.773 101.052 115.137C101.48 114.5 101.71 113.751 101.712 112.983C101.714 112.473 101.616 111.968 101.422 111.496C101.229 111.024 100.944 110.595 100.584 110.233C100.225 109.872 99.797 109.585 99.3261 109.389C98.8551 109.193 98.3501 109.092 97.84 109.091Z" fill="#1890ff"/>
<path d="M168.548 113.46V38.3335C168.548 38.2338 168.588 38.1382 168.658 38.0676C168.729 37.9971 168.824 37.9575 168.924 37.9575C169.024 37.9575 169.119 37.9971 169.19 38.0676C169.26 38.1382 169.3 38.2338 169.3 38.3335V113.46C169.3 113.559 169.26 113.655 169.19 113.725C169.119 113.796 169.024 113.836 168.924 113.836C168.824 113.836 168.729 113.796 168.658 113.725C168.588 113.655 168.548 113.559 168.548 113.46Z" fill="#1890ff"/>
<path d="M184.536 163.951C183.536 164.221 180.322 165.329 169.3 168.967V157.259C170.42 157.147 171.458 156.623 172.212 155.788C172.966 154.953 173.383 153.867 173.382 152.742C173.38 151.617 172.961 150.532 172.204 149.699C171.447 148.866 170.408 148.345 169.288 148.235V138.109C169.288 138.01 169.248 137.914 169.178 137.844C169.107 137.773 169.012 137.733 168.912 137.733C168.812 137.733 168.717 137.773 168.646 137.844C168.576 137.914 168.536 138.01 168.536 138.109V148.221C167.388 148.299 166.313 148.811 165.528 149.652C164.743 150.493 164.307 151.601 164.309 152.751C164.31 153.901 164.749 155.008 165.536 155.847C166.323 156.686 167.4 157.195 168.548 157.269V169.213C144.698 177.091 138.918 178.943 137.532 179.481C137.01 179.681 136.932 179.821 137.332 180.219C138.068 180.955 140.826 183.359 150.68 192.143L137.43 206.999C134.333 202.661 132.426 197.586 131.9 192.281C141.462 190.407 140.94 190.575 141.214 190.423C141.265 190.388 141.306 190.34 141.334 190.285C141.362 190.229 141.376 190.168 141.375 190.106C141.373 190.044 141.357 189.983 141.326 189.929C141.296 189.875 141.252 189.829 141.2 189.795C137.332 187.311 134.093 183.964 131.738 180.015C131.697 179.949 131.636 179.898 131.564 179.868C131.492 179.838 131.413 179.831 131.337 179.848C131.261 179.865 131.192 179.906 131.14 179.964C131.088 180.021 131.055 180.094 131.046 180.171C129.972 188.997 131.378 200.597 136.908 207.571L132.85 212.119C132.817 212.156 132.792 212.2 132.776 212.246C132.759 212.293 132.752 212.343 132.755 212.392C132.758 212.441 132.771 212.49 132.793 212.534C132.815 212.579 132.845 212.619 132.882 212.651C143.356 222.001 142.66 221.451 142.882 221.435C143.104 221.419 142.598 221.919 149.958 213.667C153.032 213.729 156.066 212.97 158.748 211.467C161.43 209.964 163.662 207.773 165.214 205.119C171.378 210.615 173.462 212.519 174.214 213.143C174.684 213.529 174.854 213.577 175.014 212.993C175.452 211.335 177.086 203.193 185.156 164.317C185.222 164.063 185.078 163.805 184.536 163.951ZM165.068 152.751C165.068 152.007 165.287 151.279 165.699 150.658C166.111 150.038 166.697 149.553 167.383 149.264C168.07 148.975 168.826 148.896 169.558 149.035C170.289 149.174 170.963 149.527 171.495 150.047C172.028 150.568 172.394 151.235 172.549 151.963C172.704 152.691 172.641 153.449 172.367 154.142C172.093 154.834 171.62 155.43 171.009 155.855C170.398 156.28 169.674 156.516 168.93 156.531H168.85C167.847 156.53 166.886 156.131 166.177 155.421C165.468 154.712 165.069 153.75 165.068 152.747V152.751ZM142.838 220.533L133.662 212.345L137.392 208.163C138.793 209.878 140.555 211.261 142.553 212.216C144.55 213.17 146.734 213.672 148.948 213.685L142.838 220.533ZM150.666 212.887L160.972 201.335L164.65 204.615C163.237 207.088 161.204 209.15 158.752 210.6C156.3 212.049 153.514 212.835 150.666 212.881V212.887ZM174.43 212.329L161.192 200.529C161.155 200.496 161.112 200.471 161.065 200.454C161.019 200.438 160.969 200.431 160.92 200.434C160.87 200.437 160.822 200.449 160.777 200.471C160.733 200.492 160.693 200.522 160.66 200.559L149.622 212.935C147.388 213.02 145.165 212.581 143.131 211.655C141.096 210.728 139.306 209.338 137.904 207.597L151.484 192.373C151.517 192.337 151.543 192.294 151.559 192.247C151.575 192.2 151.582 192.151 151.579 192.101C151.577 192.052 151.564 192.003 151.543 191.959C151.521 191.914 151.491 191.874 151.454 191.841L138.208 180.041L184.298 164.823L174.43 212.329Z" fill="#1890ff"/>
<path d="M297.4 208.81L262.456 249.81C260.86 255.108 258.449 260.125 255.31 264.682C250.672 271.368 243.46 278.066 232.808 279.388C216.76 281.388 171.086 277.446 155.572 276.172L83.6 300.282C76.6915 292.631 72.9463 282.642 73.122 272.336C73.122 272.336 151.748 240.86 152 240.768L152.818 237.486C153.859 233.315 156.265 229.612 159.653 226.966C163.041 224.32 167.217 222.884 171.516 222.886H228.478L258.59 177.286C260.701 178.744 262.772 180.138 264.804 181.466L249.354 205.134L273.486 224.534L291.9 203.646L297.4 208.81Z" fill="#FFE7EA"/>
<path d="M38.01 244.648L26.234 224.248C26.0244 223.885 25.7229 223.583 25.3599 223.374C24.9969 223.164 24.5852 223.054 24.166 223.054C23.7468 223.054 23.3351 223.164 22.9721 223.374C22.6091 223.583 22.3076 223.885 22.098 224.248L10.322 244.648C10.1118 245.011 10.0014 245.424 10.0017 245.844C10.0021 246.264 10.1133 246.676 10.3242 247.039C10.535 247.403 10.838 247.704 11.2025 247.912C11.5669 248.121 11.98 248.23 12.4 248.228H35.944C36.3629 248.228 36.7745 248.117 37.1373 247.908C37.5001 247.698 37.8014 247.397 38.0108 247.034C38.2202 246.671 38.3304 246.26 38.3302 245.841C38.3301 245.422 38.2196 245.01 38.01 244.648ZM35.946 247.482H12.4C12.1125 247.482 11.8301 247.406 11.5811 247.263C11.3322 247.119 11.1255 246.912 10.9821 246.663C10.8387 246.414 10.7635 246.131 10.7642 245.844C10.7649 245.556 10.8414 245.274 10.986 245.026L22.76 224.626C22.9034 224.377 23.1097 224.171 23.3581 224.028C23.6065 223.884 23.8882 223.809 24.175 223.809C24.4618 223.809 24.7435 223.884 24.9919 224.028C25.2403 224.171 25.4466 224.377 25.59 224.626L37.368 245.026C37.513 245.275 37.5895 245.558 37.5898 245.846C37.5902 246.134 37.5143 246.417 37.3699 246.666C37.2255 246.916 37.0178 247.122 36.7677 247.266C36.5176 247.409 36.2341 247.483 35.946 247.482Z" fill="#1890ff"/>
<path d="M23.8 238.466V231.35C23.8 231.25 23.8396 231.154 23.9101 231.084C23.9806 231.013 24.0763 230.974 24.176 230.974C24.2757 230.974 24.3714 231.013 24.4419 231.084C24.5124 231.154 24.552 231.25 24.552 231.35V238.466C24.552 238.565 24.5124 238.661 24.4419 238.731C24.3714 238.802 24.2757 238.842 24.176 238.842C24.0763 238.842 23.9806 238.802 23.9101 238.731C23.8396 238.661 23.8 238.565 23.8 238.466Z" fill="#1890ff"/>
<path d="M24.812 241.899C24.812 242.071 24.7439 242.235 24.6228 242.356C24.5016 242.477 24.3373 242.545 24.166 242.545C23.9947 242.545 23.8304 242.477 23.7092 242.356C23.5881 242.235 23.52 242.071 23.52 241.899C23.52 241.728 23.5881 241.564 23.7092 241.443C23.8304 241.321 23.9947 241.253 24.166 241.253C24.3373 241.253 24.5016 241.321 24.6228 241.443C24.7439 241.564 24.812 241.728 24.812 241.899Z" fill="#1890ff"/>
<path d="M232.966 323.968H223.516V314.504C223.52 314.453 223.513 314.402 223.496 314.354C223.479 314.306 223.453 314.262 223.418 314.224C223.383 314.187 223.341 314.157 223.295 314.137C223.248 314.117 223.198 314.106 223.147 314.106C223.096 314.106 223.046 314.117 222.999 314.137C222.952 314.157 222.911 314.187 222.876 314.224C222.841 314.262 222.815 314.306 222.798 314.354C222.781 314.402 222.774 314.453 222.778 314.504V323.956H213.312C213.261 323.952 213.21 323.959 213.162 323.975C213.114 323.992 213.07 324.019 213.033 324.053C212.996 324.088 212.966 324.13 212.946 324.177C212.925 324.223 212.915 324.274 212.915 324.325C212.915 324.375 212.925 324.426 212.946 324.472C212.966 324.519 212.996 324.561 213.033 324.596C213.07 324.63 213.114 324.657 213.162 324.674C213.21 324.69 213.261 324.697 213.312 324.694H222.762V334.158C222.758 334.208 222.765 334.259 222.782 334.307C222.799 334.355 222.825 334.399 222.86 334.437C222.895 334.474 222.936 334.504 222.983 334.524C223.03 334.544 223.08 334.555 223.131 334.555C223.182 334.555 223.232 334.544 223.279 334.524C223.325 334.504 223.367 334.474 223.402 334.437C223.437 334.399 223.463 334.355 223.48 334.307C223.497 334.259 223.504 334.208 223.5 334.158V324.708H232.964C233.013 324.708 233.061 324.698 233.106 324.68C233.151 324.661 233.191 324.634 233.226 324.6C233.26 324.566 233.288 324.525 233.306 324.48C233.325 324.435 233.335 324.387 233.335 324.339C233.335 324.29 233.326 324.242 233.307 324.197C233.289 324.152 233.262 324.111 233.227 324.077C233.193 324.042 233.152 324.015 233.107 323.996C233.063 323.977 233.015 323.968 232.966 323.968Z" fill="#1890ff"/>
<path d="M303.84 126.482C303.461 126.104 303.01 125.804 302.515 125.601C302.02 125.397 301.49 125.293 300.954 125.294C300.419 125.295 299.889 125.402 299.395 125.608C298.9 125.814 298.452 126.116 298.074 126.496L297.39 127.184L296.702 126.5C296.323 126.122 295.873 125.822 295.378 125.618C294.883 125.415 294.353 125.31 293.817 125.311C292.736 125.313 291.7 125.745 290.937 126.511C290.174 127.277 289.746 128.314 289.749 129.395C289.751 130.477 290.182 131.513 290.948 132.276C297.722 139.034 297.204 138.56 297.414 138.56C297.624 138.56 297.126 139.01 303.854 132.248C304.615 131.48 305.041 130.443 305.038 129.362C305.036 128.281 304.605 127.245 303.84 126.482ZM291.468 127.042C292.091 126.419 292.936 126.068 293.817 126.066C294.698 126.064 295.544 126.411 296.17 127.032L297.126 127.982C297.161 128.017 297.202 128.046 297.248 128.065C297.293 128.084 297.342 128.094 297.392 128.094C297.442 128.094 297.491 128.084 297.536 128.065C297.582 128.046 297.623 128.017 297.658 127.982L298.608 127.026C298.916 126.716 299.282 126.471 299.685 126.303C300.088 126.135 300.52 126.048 300.956 126.047C301.393 126.045 301.825 126.13 302.229 126.297C302.633 126.463 303 126.707 303.309 127.015C303.618 127.323 303.864 127.688 304.032 128.091C304.2 128.494 304.287 128.926 304.288 129.363C304.289 129.799 304.204 130.232 304.038 130.636C303.872 131.039 303.628 131.406 303.32 131.716L297.414 137.652L291.48 131.744C291.17 131.435 290.924 131.069 290.755 130.665C290.587 130.261 290.499 129.828 290.498 129.391C290.497 128.954 290.582 128.52 290.749 128.116C290.915 127.711 291.159 127.344 291.468 127.034V127.042Z" fill="#1890ff"/>
<path d="M129.892 56.2295H107.692C107.347 56.2279 107.004 56.2945 106.685 56.4254C106.365 56.5563 106.075 56.7489 105.83 56.9923C105.584 57.2357 105.39 57.525 105.257 57.8437C105.124 58.1624 105.055 58.5042 105.054 58.8495V73.7195C105.053 74.0654 105.12 74.4082 105.251 74.7283C105.382 75.0483 105.575 75.3395 105.818 75.585C106.062 75.8305 106.352 76.0256 106.671 76.1592C106.99 76.2928 107.332 76.3622 107.678 76.3635H129.878C129.899 76.3656 129.921 76.3656 129.942 76.3635C130.629 76.353 131.284 76.0727 131.765 75.5832C132.247 75.0937 132.517 74.4343 132.516 73.7475V58.8815C132.518 58.535 132.452 58.1915 132.321 57.8706C132.19 57.5497 131.998 57.2578 131.754 57.0115C131.51 56.7652 131.22 56.5693 130.901 56.4351C130.581 56.301 130.239 56.2311 129.892 56.2295ZM129.892 56.9815C130.181 56.9825 130.466 57.051 130.724 57.1815L118.782 65.8315L106.854 57.1655C107.386 56.9035 105.582 56.9815 129.892 56.9815ZM129.878 75.6095H107.678C107.179 75.6069 106.702 75.4063 106.351 75.0519C106 74.6976 105.804 74.2183 105.806 73.7195V58.8515C105.808 58.412 105.964 57.9871 106.248 57.6515L118.568 66.6035C118.633 66.6493 118.71 66.6739 118.789 66.6739C118.868 66.6739 118.945 66.6493 119.01 66.6035L131.344 57.6715C131.622 58.0093 131.774 58.4338 131.772 58.8715V73.7415C131.771 73.9889 131.722 74.2337 131.626 74.4618C131.531 74.6899 131.391 74.8968 131.215 75.0705C131.038 75.2442 130.83 75.3812 130.6 75.4738C130.371 75.5663 130.125 75.6124 129.878 75.6095Z" fill="#1890ff"/>
<path d="M385.084 275.225C384.508 275.053 378.284 272.965 374.218 271.601C376.682 271.156 379.184 270.955 381.688 271.001C384.726 271.031 386.714 270.335 386.81 269.201C386.906 268.067 385.05 267.071 381.71 266.531C380.992 266.423 373.942 265.141 371.284 264.655C369.594 264.353 366.99 263.287 366.994 262.489C367.006 258.981 373.094 252.191 370.642 249.781C368.842 248.017 365.008 253.363 362.264 256.381C361.458 257.14 360.395 257.565 359.288 257.569C359.078 256.802 358.64 256.116 358.032 255.603C302.184 215.339 310.818 220.327 290.26 201.631C282.35 194.431 281.614 193.861 290.314 184.695C298.99 189.075 302.096 204.895 309.578 188.809C313.194 181.041 311.228 175.595 308.946 172.395C307.189 170.024 304.878 168.12 302.214 166.849C299.551 165.577 296.617 164.978 293.668 165.103C291.49 165.393 289.381 166.066 287.438 167.091C280.796 170.291 277.238 173.549 276.886 176.763C276.838 177.819 277.057 178.869 277.521 179.818C277.986 180.766 278.683 181.583 279.546 182.191C276.636 185.135 273.364 186.141 269.72 184.147C233.692 161.229 189.35 121.667 187.86 119.409C187.85 119.345 187.824 119.284 187.783 119.233C187.743 119.182 187.689 119.142 187.629 119.117C187.568 119.093 187.503 119.085 187.438 119.094C187.373 119.102 187.312 119.128 187.26 119.167C186.763 119.557 186.271 119.951 185.786 120.351C183.936 118.193 181.903 116.2 179.708 114.393C177.27 112.441 176.048 112.793 171.738 112.889C168.272 112.961 167.034 113.235 166.604 115.367C165.79 115.315 163.274 115.187 163.274 115.187C162.586 115.132 161.9 115.309 161.325 115.691C160.75 116.072 160.321 116.636 160.105 117.292C159.89 117.947 159.901 118.656 160.137 119.304C160.374 119.952 160.821 120.502 161.408 120.865C160.821 121.045 160.301 121.396 159.916 121.873C159.53 122.351 159.297 122.933 159.246 123.545C159.195 124.156 159.328 124.769 159.629 125.304C159.93 125.839 160.385 126.271 160.934 126.545C160.317 126.802 159.806 127.261 159.484 127.846C159.162 128.432 159.049 129.109 159.163 129.768C159.277 130.426 159.611 131.026 160.111 131.469C160.611 131.913 161.247 132.173 161.914 132.207C159.214 133.343 159.514 137.585 162.534 137.743C162.722 137.743 162.912 137.757 163.102 137.759C163.514 138.031 169.322 138.377 170.402 138.643C170.233 138.947 170.065 139.253 169.898 139.561C169.86 139.633 169.845 139.715 169.858 139.796C169.87 139.876 169.908 139.95 169.966 140.007C192.501 162.21 216.765 182.586 242.528 200.943L228.28 222.517H171.516C167.133 222.51 162.873 223.972 159.418 226.668C155.963 229.365 153.51 233.142 152.452 237.395L151.684 240.483C145.918 242.637 172.528 232.131 73.046 271.955C72.9636 271.975 72.89 272.021 72.8367 272.087C72.7835 272.153 72.7537 272.235 72.752 272.319C72.6993 274.069 72.7694 275.82 72.962 277.559C66 280.261 52.478 285.281 44.618 287.517C30.99 291.383 28.95 292.963 28.752 293.999C27.624 299.891 49.252 297.385 58.428 301.199C68.698 305.465 70.53 300.015 80.398 296.741C81.644 298.515 83.12 300.299 83.344 300.541C83.65 300.801 80.804 301.605 141.486 281.289C132.178 318.549 132.602 316.523 132.746 316.775C134.183 317.693 135.674 318.524 137.21 319.263C134.632 327.663 130.724 339.645 128.036 346.205C122.68 359.321 122.664 361.905 123.358 362.701C127.308 367.221 138.642 348.651 147.332 343.771C156.69 338.513 154.03 333.881 157.074 324.571C159.226 324.719 160.874 324.729 162.642 324.697C163.118 324.639 162.55 326.203 174.394 278.097C187.166 279.049 220.052 281.357 232.854 279.765C241.898 278.641 249.558 273.641 255.618 264.899C258.753 260.326 261.171 255.301 262.788 249.997L278.894 231.097C300.934 251.005 310.19 257.079 342.416 278.563C343.134 278.916 343.928 279.084 344.728 279.051C345.527 279.019 346.305 278.787 346.992 278.377C357.264 284.707 356.924 283.931 368.056 289.377C369.952 290.309 376.856 293.689 377.832 291.865C378.322 290.959 377.012 289.439 373.942 287.345C372.141 286.113 370.454 284.723 368.902 283.189C370.302 283.663 372.842 284.453 377.446 285.833C378.998 286.299 382.874 287.261 383.472 285.755C384 284.419 381.304 282.739 378.948 281.567C377.071 280.644 375.254 279.603 373.508 278.451C377.736 279.191 382 279.708 386.282 279.999C388.482 279.999 389.81 279.513 389.982 278.609C390.2 277.451 388.416 276.221 385.084 275.225ZM341.164 276.855C319.364 262.797 307.002 254.405 291.018 240.769L282.168 227.253L297.42 209.353C310.146 221.377 313.242 224.231 356.07 255.121C349.09 255.223 338.906 270.339 341.164 276.855ZM291.374 203.681L273.442 224.023L249.856 205.069L264.916 181.999L269.188 184.715C271.252 193.459 276.722 197.959 285.452 198.093C286.814 199.577 288.852 201.361 291.374 203.681ZM277.496 184.773C281.386 184.591 282.712 184.559 283.218 184.507C283.89 184.441 283.752 183.907 283.476 183.777C280.624 182.479 277.276 179.991 277.634 176.863C277.964 173.923 281.372 170.863 287.764 167.785C290.902 166.273 296.026 164.411 297.49 167.559C298.702 170.171 296.92 175.039 294.634 177.327C294.459 177.493 294.333 177.705 294.271 177.938C294.208 178.17 294.212 178.416 294.28 178.647C294.51 179.153 295.184 179.417 296.54 179.527C300.328 179.827 298.326 185.099 292.14 183.239C291.352 183.264 290.59 183.526 289.954 183.991C285.246 188.875 283.204 191.511 283.294 193.957C283.404 195.213 283.928 196.396 284.784 197.321C276.94 196.995 272.116 193.015 270.072 185.181C271.241 185.756 272.538 186.019 273.839 185.946C275.139 185.873 276.399 185.466 277.496 184.763V184.773ZM171.748 113.643C176.364 113.541 177.148 113.307 179.234 114.981C181.387 116.757 183.383 118.715 185.2 120.833C182.265 123.301 179.548 126.019 177.082 128.955C173.682 127.665 171.36 124.175 172.164 118.539C172.173 118.444 172.145 118.349 172.086 118.273C172.027 118.197 171.942 118.147 171.847 118.133C171.752 118.118 171.655 118.14 171.576 118.195C171.497 118.249 171.442 118.332 171.422 118.425C170.322 125.025 167.152 124.825 167.148 122.971C167.148 120.701 167.162 120.881 167.148 120.819C167.092 113.739 167.122 113.737 171.748 113.643ZM173 134.393C172.995 134.041 172.919 133.692 172.776 133.37C172.633 133.047 172.427 132.757 172.169 132.516C171.911 132.275 171.608 132.088 171.276 131.967C170.945 131.846 170.592 131.793 170.24 131.811C170.846 131.701 171.397 131.391 171.806 130.932C172.216 130.472 172.459 129.889 172.499 129.274C172.539 128.66 172.372 128.05 172.026 127.542C171.679 127.033 171.172 126.655 170.586 126.467C170.916 126.337 171.215 126.141 171.466 125.889C171.716 125.638 171.911 125.338 172.04 125.007C172.453 126.032 173.067 126.964 173.846 127.747C174.626 128.53 175.555 129.148 176.578 129.565C175.307 131.121 174.115 132.731 173 134.393ZM163.228 115.939C163.228 115.939 165.702 116.065 166.488 116.113C166.379 117.593 166.345 119.077 166.388 120.559C165.026 120.584 163.665 120.518 162.312 120.359C159.884 120.017 160.166 115.769 163.23 115.939H163.228ZM162.676 121.435C163.96 121.465 165.076 121.421 166.398 121.435V122.977C166.398 125.161 169.284 125.919 171.016 122.499C171.29 122.819 171.463 123.212 171.512 123.63C171.561 124.048 171.483 124.471 171.29 124.845C171.096 125.219 170.795 125.526 170.426 125.728C170.056 125.929 169.635 126.015 169.216 125.975C165.518 126.003 163.588 126.175 161.754 125.975C159.14 125.691 159.366 121.353 162.678 121.435H162.676ZM162.5 126.971C165.072 126.971 166.89 126.945 169.476 127.041C172.774 127.165 172.396 131.141 169.02 131.253C165.27 131.377 163.472 131.583 161.68 131.437C159.112 131.229 159.252 126.981 162.502 126.971H162.5ZM163.27 132.681C165.726 132.603 167.54 132.531 170.016 132.555C173.172 132.581 172.93 136.405 169.662 136.607C166.156 136.823 164.326 137.079 162.57 136.989C160.092 136.863 160.158 132.779 163.27 132.681ZM170.692 139.665C174.866 132.042 180.554 125.352 187.406 120.005C191.652 125.043 232.356 159.605 258.074 177.389L242.94 200.315C217.293 182.04 193.134 161.761 170.692 139.667V139.665ZM65.354 302.015C63.065 301.952 60.8105 301.441 58.718 300.511C49.918 296.847 28.598 298.761 29.49 294.141C29.608 293.529 31.756 291.941 44.824 288.241C52.642 286.023 66.024 281.053 73.052 278.331C73.906 284.719 76.27 290.811 79.948 296.103C73.222 298.385 69.482 302.081 65.354 302.015ZM146.964 343.113C138.564 347.827 127.032 365.763 123.924 362.205C123.524 361.735 123.596 359.067 128.734 346.489C131.418 339.935 135.314 328.009 137.896 319.593C143.68 322.334 149.915 323.998 156.296 324.501C153.302 333.853 155.93 338.081 146.964 343.113ZM151.018 323.029L158.4 294.517C158.423 294.422 158.407 294.321 158.357 294.236C158.306 294.152 158.224 294.09 158.128 294.066C158.033 294.041 157.932 294.055 157.846 294.104C157.761 294.154 157.698 294.234 157.672 294.329L150.272 322.887C144.343 321.708 138.663 319.509 133.486 316.387L141.014 286.259L173.6 278.211L162.328 323.941C158.537 324.021 154.747 323.715 151.018 323.029ZM255 264.469C249.066 273.027 241.584 277.921 232.762 279.017C213.362 281.429 156 275.593 155.43 275.817L83.732 299.817C81.5556 297.259 79.6583 294.476 78.072 291.515L109.098 279.925C109.19 279.889 109.263 279.818 109.303 279.728C109.343 279.638 109.346 279.536 109.312 279.444C109.277 279.352 109.208 279.277 109.118 279.235C109.029 279.193 108.927 279.189 108.834 279.221L77.722 290.861C74.8181 285.214 73.367 278.932 73.5 272.583L152.184 241.095C158.43 238.757 165.16 238.01 171.766 238.923L219.716 245.603C219.811 245.602 219.901 245.566 219.97 245.5C220.039 245.435 220.08 245.347 220.087 245.253C220.093 245.158 220.063 245.065 220.004 244.991C219.945 244.918 219.86 244.869 219.766 244.855L171.87 238.177C165.36 237.279 158.729 237.96 152.538 240.163L153.184 237.577C154.201 233.487 156.559 229.855 159.882 227.262C163.205 224.669 167.301 223.264 171.516 223.271H228.478C228.8 223.271 226.662 226.335 258.694 177.819C260.628 179.153 262.506 180.419 264.284 181.579L249.04 204.935C248.989 205.013 248.969 205.108 248.983 205.2C248.998 205.292 249.047 205.375 249.12 205.433L273.25 224.833C273.325 224.894 273.421 224.924 273.518 224.915C273.614 224.907 273.704 224.862 273.768 224.789L291.924 204.189L296.872 208.841C262.91 248.697 262.188 249.463 262.104 249.671C260.475 254.926 258.081 259.912 255 264.469ZM373.518 287.957C376.838 290.221 377.278 291.299 377.17 291.499C377.086 291.653 375.988 291.967 372.452 290.517C368.112 288.717 366.422 287.591 358.436 283.991C352.67 280.985 347.066 277.677 341.646 274.083C342.128 268.095 348.114 259.269 353.506 256.601C355.015 257.712 356.833 258.322 358.706 258.345C359.455 258.397 360.206 258.295 360.914 258.045C361.621 257.796 362.271 257.405 362.822 256.895C363.346 256.317 363.902 255.675 364.464 255.023C365.43 253.905 369.148 249.361 370.116 250.321C371.974 252.145 366.254 258.899 366.244 262.487C366.244 264.159 370.178 265.223 371.152 265.397C373.812 265.883 380.874 267.167 381.594 267.277C384.918 267.813 386.1 268.705 386.064 269.141C386.032 269.515 384.902 270.291 381.696 270.255C378.736 270.147 375.776 270.442 372.896 271.133L372.864 271.147L371.064 270.547C371.288 269.667 371.484 268.731 371.648 267.727C371.663 267.629 371.639 267.53 371.581 267.449C371.523 267.369 371.435 267.315 371.337 267.299C371.24 267.283 371.139 267.306 371.059 267.364C370.978 267.421 370.923 267.508 370.906 267.605C370.202 272.787 367.808 277.591 364.096 281.273C364.046 281.327 364.013 281.394 364.001 281.467C363.989 281.539 363.998 281.613 364.028 281.68C364.057 281.747 364.105 281.805 364.166 281.845C364.227 281.885 364.299 281.907 364.372 281.907C364.572 281.907 364.632 281.845 365.642 280.683C367.894 283.483 370.548 285.934 373.518 287.957ZM382.772 285.469C382.642 285.795 381.172 286.157 377.662 285.103C375.368 284.413 368.462 282.341 367.702 281.935C366.926 281.091 366.394 280.421 366.138 280.089C367.251 278.777 368.223 277.352 369.04 275.837C371.853 278.488 375.089 280.651 378.614 282.237C382.324 284.081 382.872 285.215 382.772 285.469ZM389.242 278.457C389.162 278.875 387.86 279.435 384.704 279.161C379.406 278.703 372.934 277.587 372.076 277.437C371.111 276.757 370.216 275.982 369.406 275.123C370.002 273.885 370.488 272.598 370.86 271.275C371.06 271.345 383.08 275.413 384.86 275.945C388.214 276.947 389.326 278.017 389.242 278.457Z" fill="#1890ff"/>
<path d="M367.162 268.436C367.216 268.357 367.239 268.26 367.225 268.166C367.21 268.071 367.16 267.985 367.085 267.926C367.01 267.867 366.915 267.839 366.82 267.847C366.724 267.856 366.636 267.9 366.572 267.972C362.67 272.952 358.402 274.5 353.886 272.572C353.841 272.552 353.792 272.542 353.742 272.541C353.693 272.541 353.644 272.55 353.598 272.568C353.552 272.587 353.51 272.614 353.475 272.649C353.44 272.683 353.411 272.724 353.392 272.77C353.373 272.815 353.362 272.864 353.362 272.913C353.361 272.963 353.37 273.012 353.389 273.058C353.407 273.104 353.434 273.145 353.469 273.181C353.503 273.216 353.545 273.244 353.59 273.264C359 275.572 363.51 273.1 367.162 268.436Z" fill="#1890ff"/>
<path d="M340.95 252.191C340.95 252.633 341.126 253.057 341.438 253.369C341.75 253.682 342.174 253.857 342.616 253.857C343.058 253.857 343.482 253.682 343.794 253.369C344.106 253.057 344.282 252.633 344.282 252.191C344.282 251.75 344.106 251.326 343.794 251.013C343.482 250.701 343.058 250.525 342.616 250.525C342.174 250.525 341.75 250.701 341.438 251.013C341.126 251.326 340.95 251.75 340.95 252.191Z" fill="#1890ff"/>
<path d="M315.2 250.526C315.2 250.967 315.376 251.391 315.688 251.704C316 252.016 316.424 252.192 316.866 252.192C317.308 252.192 317.732 252.016 318.044 251.704C318.356 251.391 318.532 250.967 318.532 250.526C318.532 250.084 318.356 249.66 318.044 249.348C317.732 249.035 317.308 248.86 316.866 248.86C316.424 248.86 316 249.035 315.688 249.348C315.376 249.66 315.2 250.084 315.2 250.526Z" fill="#1890ff"/>
<path d="M310.738 228.891C310.753 229.323 310.935 229.732 311.246 230.032C311.556 230.332 311.971 230.5 312.403 230.5C312.835 230.5 313.25 230.332 313.56 230.032C313.871 229.732 314.053 229.323 314.068 228.891C314.053 228.46 313.871 228.051 313.56 227.751C313.25 227.451 312.835 227.283 312.403 227.283C311.971 227.283 311.556 227.451 311.246 227.751C310.935 228.051 310.753 228.46 310.738 228.891Z" fill="#1890ff"/>
<path d="M284.712 228.891C284.727 229.323 284.909 229.732 285.22 230.032C285.53 230.332 285.945 230.5 286.377 230.5C286.809 230.5 287.224 230.332 287.534 230.032C287.845 229.732 288.027 229.323 288.042 228.891C288.027 228.46 287.845 228.051 287.534 227.751C287.224 227.451 286.809 227.283 286.377 227.283C285.945 227.283 285.53 227.451 285.22 227.751C284.909 228.051 284.727 228.46 284.712 228.891Z" fill="#1890ff"/>
<path d="M280.904 203.645C280.919 204.077 281.101 204.486 281.412 204.786C281.722 205.086 282.137 205.254 282.569 205.254C283.001 205.254 283.416 205.086 283.726 204.786C284.037 204.486 284.219 204.077 284.234 203.645C284.219 203.214 284.037 202.805 283.726 202.505C283.416 202.205 283.001 202.037 282.569 202.037C282.137 202.037 281.722 202.205 281.412 202.505C281.101 202.805 280.919 203.214 280.904 203.645Z" fill="#1890ff"/>
<path d="M257.874 204.082C257.874 204.523 258.05 204.947 258.362 205.26C258.674 205.572 259.098 205.748 259.54 205.748C259.982 205.748 260.406 205.572 260.718 205.26C261.03 204.947 261.206 204.523 261.206 204.082C261.206 203.64 261.03 203.216 260.718 202.903C260.406 202.591 259.982 202.416 259.54 202.416C259.098 202.416 258.674 202.591 258.362 202.903C258.05 203.216 257.874 203.64 257.874 204.082Z" fill="#1890ff"/>
<path d="M245.56 176.205C245.575 176.637 245.757 177.046 246.068 177.346C246.378 177.646 246.793 177.814 247.225 177.814C247.657 177.814 248.072 177.646 248.382 177.346C248.693 177.046 248.875 176.637 248.89 176.205C248.875 175.774 248.693 175.365 248.382 175.065C248.072 174.765 247.657 174.597 247.225 174.597C246.793 174.597 246.378 174.765 246.068 175.065C245.757 175.365 245.575 175.774 245.56 176.205Z" fill="#1890ff"/>
<path d="M221.474 178.957C221.489 179.389 221.671 179.798 221.982 180.098C222.292 180.398 222.707 180.566 223.139 180.566C223.571 180.566 223.986 180.398 224.296 180.098C224.607 179.798 224.789 179.389 224.804 178.957C224.789 178.526 224.607 178.117 224.296 177.817C223.986 177.517 223.571 177.349 223.139 177.349C222.707 177.349 222.292 177.517 221.982 177.817C221.671 178.117 221.489 178.526 221.474 178.957Z" fill="#1890ff"/>
<path d="M221.474 157.608C221.489 158.039 221.671 158.448 221.982 158.748C222.292 159.048 222.707 159.216 223.139 159.216C223.571 159.216 223.986 159.048 224.296 158.748C224.607 158.448 224.789 158.039 224.804 157.608C224.789 157.176 224.607 156.767 224.296 156.467C223.986 156.167 223.571 155.999 223.139 155.999C222.707 155.999 222.292 156.167 221.982 156.467C221.671 156.767 221.489 157.176 221.474 157.608Z" fill="#1890ff"/>
<path d="M200.854 161.236C200.854 161.677 201.03 162.101 201.342 162.414C201.654 162.726 202.078 162.902 202.52 162.902C202.962 162.902 203.386 162.726 203.698 162.414C204.01 162.101 204.186 161.677 204.186 161.236C204.186 160.794 204.01 160.37 203.698 160.058C203.386 159.745 202.962 159.57 202.52 159.57C202.078 159.57 201.654 159.745 201.342 160.058C201.03 160.37 200.854 160.794 200.854 161.236Z" fill="#1890ff"/>
<path d="M201.438 137.881C201.423 137.45 201.241 137.041 200.93 136.741C200.62 136.441 200.205 136.273 199.773 136.273C199.341 136.273 198.926 136.441 198.616 136.741C198.305 137.041 198.123 137.45 198.108 137.881C198.123 138.313 198.305 138.722 198.616 139.022C198.926 139.322 199.341 139.49 199.773 139.49C200.205 139.49 200.62 139.322 200.93 139.022C201.241 138.722 201.423 138.313 201.438 137.881Z" fill="#1890ff"/>
<path d="M177.574 140.833C177.574 141.275 177.75 141.699 178.062 142.012C178.374 142.324 178.798 142.499 179.24 142.499C179.682 142.499 180.106 142.324 180.418 142.012C180.73 141.699 180.906 141.275 180.906 140.833C180.906 140.392 180.73 139.968 180.418 139.655C180.106 139.343 179.682 139.167 179.24 139.167C178.798 139.167 178.374 139.343 178.062 139.655C177.75 139.968 177.574 140.392 177.574 140.833Z" fill="#1890ff"/>
<path d="M242.07 253.952C242.097 253.855 242.084 253.752 242.034 253.665C241.985 253.578 241.903 253.514 241.806 253.488C241.709 253.461 241.606 253.474 241.519 253.524C241.432 253.573 241.369 253.655 241.342 253.752C240.02 259.196 240.732 264.936 243.342 269.894C243.385 269.984 243.462 270.053 243.557 270.086C243.651 270.119 243.754 270.113 243.844 270.07C243.934 270.026 244.003 269.949 244.036 269.855C244.069 269.761 244.063 269.658 244.02 269.568C241.491 264.773 240.797 259.221 242.07 253.952Z" fill="#1890ff"/>
<path d="M268.01 226.632C267.99 226.378 269.178 227.432 248.52 211.02C248.48 210.987 248.434 210.964 248.385 210.95C248.336 210.936 248.285 210.933 248.234 210.94C248.183 210.947 248.135 210.964 248.091 210.99C248.047 211.017 248.01 211.052 247.98 211.094C236.548 226.894 237.358 225.742 237.49 226.03C242.964 237.968 242.556 237.316 242.836 237.38C253.036 239.742 255.062 240.258 255.274 240.258C255.528 240.258 254.714 241.018 267.908 226.918C267.944 226.88 267.972 226.835 267.99 226.785C268.007 226.736 268.014 226.684 268.01 226.632ZM255.148 239.466L243.186 236.682L238.264 225.906L248.362 211.846L267.08 226.694L255.148 239.466Z" fill="#1890ff"/>
</svg>
