<svg width="400" height="401" viewBox="0 0 400 401" fill="none" xmlns="http://www.w3.org/2000/svg">
<path d="M126.76 329.039L93.6801 334.599C85.4064 336.002 76.9142 334.065 70.0673 329.213C63.2204 324.361 58.5784 316.99 57.1601 308.719L27.0001 122.719L191.94 95.039C192.027 95.01 192.101 94.9503 192.148 94.871C192.194 94.7917 192.211 94.6982 192.193 94.6079C192.176 94.5175 192.127 94.4364 192.055 94.3797C191.982 94.3229 191.892 94.2942 191.8 94.299L26.8801 121.999L25.5201 113.599C24.1057 105.319 26.0374 96.8166 30.8905 89.9607C35.7437 83.1048 43.1209 78.4569 51.4001 77.039L287.78 37.379C291.882 36.6645 296.085 36.7673 300.147 37.6814C304.21 38.5955 308.052 40.3029 311.452 42.7057C314.853 45.1085 317.746 48.1593 319.964 51.683C322.183 55.2067 323.683 59.1338 324.38 63.239L325.78 71.819L212.72 90.799C212.619 90.799 212.523 90.8391 212.451 90.9103C212.38 90.9816 212.34 91.0783 212.34 91.179C212.34 91.2798 212.38 91.3765 212.451 91.4477C212.523 91.519 212.619 91.559 212.72 91.559C212.92 91.559 213.2 91.559 325.84 72.559L339.5 156.879L339.96 154.879L325.02 63.039C323.564 54.5814 318.808 47.0486 311.798 42.0977C304.788 37.1468 296.098 35.1832 287.64 36.639L51.2801 76.339C42.8141 77.7917 35.2698 82.5428 30.302 89.5503C25.3342 96.5577 23.3484 105.249 24.7801 113.719L56.3801 308.859C57.8328 317.325 62.5839 324.869 69.5914 329.837C76.5988 334.805 85.2906 336.791 93.7601 335.359L126.84 329.799C126.941 329.788 127.033 329.738 127.097 329.659C127.161 329.581 127.191 329.48 127.18 329.379C127.17 329.278 127.119 329.186 127.041 329.122C126.962 329.058 126.861 329.028 126.76 329.039Z" fill="#1890ff"/>
<path d="M356.68 258.279L340.5 158.479L340.04 160.479L355.94 258.479C357.337 266.753 355.394 275.243 350.538 282.085C345.683 288.928 338.311 293.565 330.04 294.979L138.56 327.039C138.475 327.068 138.403 327.126 138.356 327.203C138.31 327.28 138.292 327.371 138.307 327.46C138.321 327.549 138.367 327.63 138.435 327.688C138.503 327.747 138.59 327.779 138.68 327.779L330.18 295.619C338.636 294.161 346.17 289.415 351.136 282.418C356.101 275.421 358.095 266.742 356.68 258.279Z" fill="#1890ff"/>
<path d="M329.24 201.919L339.24 157.759L310.7 158.799L300.46 168.159C304.046 168.921 307.53 170.103 310.84 171.679C312.243 172.276 313.529 173.115 314.64 174.159C316.2 175.939 307.86 173.379 303.74 172.939C304.555 173.393 305.302 173.958 305.96 174.619C307.02 175.819 302.52 174.199 298.42 173.519C297.644 173.319 296.839 173.251 296.04 173.319C300.04 175.099 306.14 178.479 307.6 181.079C309.36 184.239 300.36 177.979 294.54 177.799C298.24 179.519 302.26 181.799 303.72 184.539C305.72 188.139 298.56 181.559 290.04 181.279C298.18 186.199 302.04 190.259 290.44 185.279C288.322 184.321 286.056 183.733 283.74 183.539L260.54 204.779C334.38 201.879 329.18 202.179 329.24 201.919Z" fill="#1890ff"/>
<path d="M347.7 126.779L330.8 201.199L373.2 156.359L390.08 82.0391L347.7 126.779Z" fill="#1890ff"/>
<path d="M144.38 243.039C140.483 247.359 135.033 249.958 129.223 250.27C123.413 250.581 117.717 248.578 113.38 244.699L75.9402 211.039C80.514 198.991 89.4129 189.08 100.9 183.239L125.8 205.619C142.7 162.939 160.72 159.619 166.52 154.659C178.06 163.759 183.64 167.159 198.76 169.979C195 207.059 196.98 250.119 191.14 274.539C189.754 280.285 186.964 285.597 183.02 289.999L156.38 319.679C144.583 314.603 134.756 305.828 128.38 294.679L153.64 266.679L159.78 225.819C208.5 171.579 192.52 189.359 144.38 243.039Z" fill="#FFE7EA"/>
<path d="M315.26 173.779C314.087 172.693 312.733 171.82 311.26 171.199C305.94 168.579 304.78 168.519 250.88 155.419L235.7 142.819C236.16 140.959 236.04 139.759 235.32 139.279C235.12 139.139 236.16 140.039 201.32 108.619C200.641 103.765 201.078 98.8189 202.6 94.1591C213.3 97.9191 216.1 88.4991 213.88 77.4191C214.424 77.0676 214.882 76.5995 215.223 76.0488C215.563 75.498 215.776 74.8784 215.847 74.2349C215.918 73.5915 215.844 72.9403 215.632 72.3287C215.42 71.7171 215.074 71.1605 214.62 70.6991C215.269 70.288 215.798 69.7127 216.153 69.0317C216.508 68.3506 216.676 67.5878 216.642 66.8206C216.607 66.0533 216.371 65.3087 215.956 64.6623C215.541 64.0158 214.963 63.4904 214.28 63.1391C214.757 62.5549 215.074 61.8576 215.202 61.1148C215.33 60.3719 215.264 59.6085 215.011 58.8985C214.758 58.1886 214.325 57.556 213.756 57.0621C213.186 56.5682 212.499 56.2296 211.76 56.0791C211.999 55.39 212.061 54.6518 211.939 53.9326C211.817 53.2134 211.516 52.5365 211.064 51.9645C210.611 51.3924 210.022 50.9436 209.35 50.6595C208.678 50.3754 207.946 50.2652 207.22 50.3391C207.222 49.6128 207.042 48.8974 206.698 48.2582C206.353 47.6189 205.854 47.0759 205.246 46.6785C204.638 46.2811 203.94 46.0419 203.216 45.9826C202.492 45.9234 201.765 46.0459 201.1 46.3391C200.885 45.6184 200.489 44.9651 199.948 44.4422C199.408 43.9193 198.742 43.5443 198.014 43.3535C197.287 43.1626 196.523 43.1622 195.795 43.3523C195.068 43.5425 194.401 43.9168 193.86 44.4391C193.418 43.783 192.814 43.252 192.107 42.8974C191.4 42.5428 190.613 42.3766 189.823 42.4148C189.033 42.453 188.266 42.6943 187.596 43.1155C186.927 43.5367 186.377 44.1234 186 44.8191C185.111 44.134 183.993 43.8163 182.876 43.9317C181.76 44.0471 180.73 44.5867 180 45.4391C179.833 44.5972 179.467 43.8073 178.933 43.1351C178.399 42.4628 177.712 41.9275 176.93 41.5736C176.148 41.2197 175.293 41.0574 174.436 41.1001C173.578 41.1428 172.743 41.3893 172 41.8191C171.495 40.8883 170.738 40.1191 169.815 39.6001C168.891 39.0811 167.841 38.8335 166.783 38.8858C165.725 38.938 164.704 39.288 163.836 39.8955C162.969 40.5029 162.291 41.3431 161.88 42.3191C160.973 41.8726 159.958 41.6927 158.953 41.8003C157.948 41.908 156.994 42.2987 156.202 42.9272C155.41 43.5557 154.813 44.396 154.48 45.3505C154.147 46.305 154.091 47.3344 154.32 48.3191C153.317 48.5189 152.391 49.0018 151.653 49.7108C150.915 50.4198 150.395 51.3252 150.156 52.3201C149.916 53.315 149.966 54.3578 150.3 55.3251C150.634 56.2925 151.238 57.144 152.04 57.7791C151.278 58.4726 150.733 59.3716 150.471 60.3678C150.209 61.364 150.24 62.4149 150.561 63.3936C150.883 64.3724 151.48 65.2374 152.282 65.8842C153.084 66.531 154.056 66.9321 155.08 67.0391C154.952 68.0456 155.113 69.0676 155.543 69.9866C155.972 70.9055 156.654 71.6836 157.509 72.2303C158.364 72.777 159.356 73.0699 160.37 73.075C161.385 73.0801 162.38 72.7972 163.24 72.2591C163.599 72.9702 164.115 73.5901 164.749 74.0718C165.383 74.5535 166.119 74.8843 166.9 75.0391C166.735 76.1495 167.005 77.2807 167.653 78.1971C168.302 79.1136 169.278 79.7447 170.38 79.9591C170.149 80.6504 170.095 81.3886 170.223 82.1062C170.35 82.8239 170.656 83.498 171.112 84.067C171.567 84.636 172.158 85.0817 172.831 85.3633C173.503 85.645 174.235 85.7535 174.96 85.6791C174.961 86.4088 175.143 87.1269 175.492 87.768C175.84 88.4092 176.343 88.9532 176.955 89.3506C177.567 89.748 178.268 89.9862 178.996 90.0436C179.723 90.1009 180.454 89.9757 181.12 89.6791C181.338 90.4011 181.74 91.0541 182.285 91.5745C182.831 92.095 183.503 92.4649 184.234 92.6483C184.965 92.8317 185.732 92.8222 186.459 92.6208C187.185 92.4193 187.848 92.0329 188.38 91.4991C189.346 92.5778 190.626 93.3263 192.04 93.6391C187.78 101.239 179.92 108.059 176.46 115.359C167.46 134.339 170.96 140.639 166.22 154.339C158.66 159.759 142.22 163.979 125.68 204.899L101.22 183.039C101.143 182.97 101.044 182.932 100.94 182.932C100.837 182.932 100.737 182.97 100.66 183.039C98.0541 184.363 95.5709 185.915 93.2402 187.679C80.6202 177.679 79.6202 177.399 69.3802 166.219C69.3391 166.171 69.286 166.135 69.2263 166.113C69.1666 166.092 69.1024 166.087 69.0402 166.099C48.2002 168.879 24.1002 176.039 13.7402 181.039C13.6696 181.064 13.6084 181.11 13.5651 181.171C13.5218 181.231 13.4985 181.304 13.4985 181.379C13.4985 181.454 13.5218 181.527 13.5651 181.588C13.6084 181.649 13.6696 181.695 13.7402 181.719C29.0308 187.548 45.4291 189.891 61.7402 188.579L78.9202 204.019C77.745 206.07 76.7029 208.194 75.8002 210.379C75.7026 210.602 75.6791 210.851 75.7331 211.088C75.7871 211.326 75.9157 211.54 76.1002 211.699L113.1 244.939C117.509 248.892 123.305 250.935 129.218 250.62C135.13 250.305 140.677 247.658 144.64 243.259L159.28 226.959L153.28 266.479L128.48 294.119C128.342 294.268 128.256 294.457 128.234 294.659C128.212 294.861 128.257 295.065 128.36 295.239C129.653 297.4 131.062 299.49 132.58 301.499C119.5 317.499 109.7 326.579 109.6 327.139C107.48 339.639 108.5 368.099 112.5 381.139C112.521 381.208 112.561 381.27 112.616 381.317C112.67 381.364 112.737 381.394 112.809 381.405C112.88 381.415 112.953 381.405 113.018 381.376C113.084 381.347 113.14 381.299 113.18 381.239C123.58 363.959 127.34 353.239 132.88 334.359L149.08 316.359C151.243 317.668 153.488 318.837 155.8 319.859C155.973 319.93 156.162 319.947 156.344 319.908C156.527 319.868 156.692 319.775 156.82 319.639L183.3 290.159C187.287 285.713 190.105 280.345 191.5 274.539C197.3 250.259 195.5 206.699 199.12 170.019L202.92 163.159L207.96 167.419C208.74 168.119 210.76 167.199 211.86 166.099L226.38 177.139C229.735 179.59 233.686 181.095 237.82 181.499C238.28 181.499 284.08 182.919 290.28 185.619C292.474 186.762 294.838 187.546 297.28 187.939C297.86 187.939 297.96 187.719 298.06 187.559C298.62 186.459 294.62 183.559 291.54 181.719C298.62 182.559 303.54 186.859 304.48 185.719C304.8 185.379 304.48 184.779 304.24 184.259C302.349 181.654 299.813 179.586 296.88 178.259C301.28 179.279 306.2 182.259 307.72 182.259C308.34 182.259 308.72 181.779 308.16 180.799C306.66 178.119 302.16 175.599 298.26 173.799C301.36 174.319 304.68 175.279 305.9 175.279C306.76 175.279 306.94 174.739 306.46 174.179C306.191 173.881 305.896 173.607 305.58 173.359C308.66 173.899 312.82 174.979 314.46 174.979C315.62 175.039 315.78 174.379 315.26 173.779ZM234.04 139.139C231.74 139.699 228.4 143.479 226.88 145.319L226.14 144.659C226.14 144.439 227.02 141.739 225.76 140.939L204.38 121.639C203.023 117.8 202.058 113.833 201.5 109.799L234.04 139.139ZM192.58 94.2191C195.46 89.1791 196.98 82.9191 194.06 78.0591C194.04 78.0201 194.011 77.9858 193.977 77.9582C193.943 77.9307 193.903 77.9106 193.86 77.8991C188.78 76.2191 190.86 70.3391 194.24 72.6391C195.44 73.4791 197.02 74.2591 197.38 72.8191C197.436 72.2383 197.69 71.6945 198.1 71.2791C198.513 71.927 199.09 72.4543 199.772 72.8076C200.454 73.161 201.217 73.3278 201.985 73.2913C202.752 73.2547 203.496 73.0161 204.141 72.5995C204.787 72.183 205.311 71.6033 205.66 70.9191C206.434 71.5408 207.397 71.8796 208.39 71.8796C209.383 71.8796 210.346 71.5408 211.12 70.9191C213.54 76.7991 215.62 88.4591 211.12 92.7191C208.72 94.9391 204.88 94.7191 199.68 92.0191C199.44 91.8791 198.96 92.0191 199.28 92.7391C199.6 93.4591 199.98 94.2591 201.04 96.5791C200.403 99.4461 200.154 102.386 200.3 105.319C197.3 109.539 191.46 104.939 187.66 101.319C189.476 99.0791 191.12 96.7057 192.58 94.2191ZM63.2202 188.819C66.6993 183.303 70.9262 178.295 75.7802 173.939C81.1062 178.941 86.7298 183.616 92.6202 187.939C87.2443 192.128 82.7282 197.317 79.3202 203.219L63.2202 188.819ZM132.58 333.599C127.054 329.558 122.171 324.703 118.1 319.199C123.56 313.319 128.62 307.519 133 302.179C137.325 307.623 142.522 312.313 148.38 316.059L132.58 333.599ZM190.78 274.379C189.42 280.062 186.672 285.319 182.78 289.679L165.04 309.439C153.76 304.178 144.179 295.864 137.38 285.439C154.98 265.839 154.1 266.899 154.12 266.699L157.22 246.059L189.68 193.039C189.716 192.96 189.724 192.87 189.702 192.786C189.68 192.701 189.63 192.627 189.559 192.575C189.489 192.523 189.403 192.498 189.315 192.502C189.228 192.506 189.145 192.541 189.08 192.599L144.1 242.599C140.268 246.847 134.908 249.403 129.195 249.706C123.482 250.01 117.881 248.037 113.62 244.219L84.6602 218.219C87.7185 212.593 91.3873 207.321 95.6002 202.499C130.64 230.239 128.28 228.499 128.48 228.499C128.68 228.499 128.14 229.299 162.82 178.359C167.565 177.067 172.014 174.866 175.92 171.879C175.989 171.815 176.031 171.727 176.038 171.633C176.046 171.539 176.018 171.446 175.961 171.371C175.904 171.297 175.821 171.246 175.728 171.229C175.636 171.212 175.54 171.23 175.46 171.279C168.167 176.7 159.241 179.466 150.16 179.119C150.059 179.119 149.963 179.159 149.892 179.23C149.82 179.302 149.78 179.398 149.78 179.499C149.78 179.6 149.82 179.697 149.892 179.768C149.963 179.839 150.059 179.879 150.16 179.879C154.044 179.963 157.923 179.546 161.7 178.639L128.38 227.599L96.1002 202.019C99.8986 197.792 104.251 194.099 109.04 191.039L125.58 205.879C125.625 205.914 125.677 205.938 125.733 205.949C125.789 205.96 125.846 205.957 125.901 205.942C125.956 205.926 126.006 205.898 126.047 205.859C126.089 205.82 126.121 205.772 126.14 205.719C142.38 165.239 158.38 160.839 166.5 155.039C177.56 163.739 183.3 167.359 198.34 170.219C194.64 207.039 196.56 250.139 190.78 274.379ZM207.4 165.979L185.26 147.219C185.19 147.162 185.102 147.131 185.011 147.133C184.921 147.135 184.834 147.169 184.767 147.23C184.699 147.29 184.655 147.373 184.643 147.462C184.631 147.552 184.651 147.643 184.7 147.719C197.58 167.719 198.56 169.499 198.56 169.499C183.62 166.679 177.94 163.099 166.96 154.459C171.7 140.599 168.18 134.559 177.12 115.699C179.34 111.019 183.36 106.579 187.12 101.939C190.84 105.479 196.72 110.159 200.3 106.479C200.653 111.294 201.614 116.045 203.16 120.619L190.06 108.859C189.7 108.519 189.2 109.079 189.56 109.419L224.52 140.819C219.3 142.119 207.06 159.979 207.4 165.979ZM305.76 174.599C304.42 174.599 298.9 172.959 295.76 172.799C294.2 172.143 292.604 171.575 290.98 171.099C290.886 171.087 290.791 171.111 290.713 171.166C290.635 171.221 290.581 171.303 290.561 171.396C290.541 171.489 290.557 171.586 290.605 171.668C290.652 171.75 290.729 171.811 290.82 171.839C294.44 172.599 306.38 177.839 307.64 181.579C306.454 181.26 305.301 180.825 304.2 180.279C301.218 178.779 298.008 177.786 294.7 177.339C292.48 176.299 290.54 175.559 289.78 175.339C289.693 175.324 289.603 175.34 289.527 175.385C289.45 175.429 289.391 175.498 289.36 175.581C289.329 175.664 289.329 175.756 289.358 175.839C289.387 175.923 289.444 175.993 289.52 176.039C293.52 177.459 302.28 181.319 303.8 185.259C302.18 184.819 296.54 181.139 290.14 180.899L288.84 180.119C288.753 180.069 288.649 180.055 288.551 180.081C288.454 180.108 288.371 180.172 288.32 180.259C288.27 180.347 288.256 180.451 288.283 180.548C288.309 180.646 288.373 180.729 288.46 180.779C294.14 184.099 297.02 186.519 297.32 187.219C297 187.219 295.64 187.219 290.56 184.959C284.24 182.219 239.72 180.839 237.86 180.799C233.864 180.399 230.047 178.943 226.8 176.579L208.8 162.839C211 156.419 217.98 146.279 222.8 142.679L241.1 159.039C241.3 159.219 239.5 158.779 292.66 169.239C296.38 170.219 303.44 172.179 305.76 174.599ZM304.04 172.439C300.462 170.722 296.715 169.382 292.86 168.439L241.52 158.439L227.52 145.939C228.915 144.136 230.504 142.493 232.26 141.039L250.48 156.159C250.48 156.159 296.62 167.439 299.02 168.039C303.155 168.928 307.179 170.269 311.02 172.039C312.392 172.614 313.651 173.427 314.74 174.439C313.38 174.459 307.16 172.779 304.04 172.439Z" fill="#1890ff"/>
<path d="M247.92 73.6992C246.318 73.6965 244.751 73.2359 243.402 72.3716C242.054 71.5074 240.98 70.2756 240.308 68.8215C239.637 67.3673 239.395 65.7514 239.611 64.1643C239.828 62.5773 240.493 61.0851 241.53 59.8639C242.566 58.6426 243.93 57.7432 245.461 57.2715C246.992 56.7999 248.626 56.7758 250.17 57.202C251.714 57.6283 253.104 58.4871 254.176 59.6772C255.248 60.8673 255.957 62.3391 256.22 63.9192C256.421 65.1236 256.356 66.3574 256.031 67.5344C255.707 68.7114 255.129 69.8035 254.339 70.7345C253.549 71.6655 252.565 72.413 251.457 72.925C250.348 73.437 249.141 73.7012 247.92 73.6992ZM241.92 60.9792C241.212 61.9719 240.759 63.1241 240.601 64.3336C240.444 65.5432 240.588 66.7728 241.019 67.9137C241.45 69.0547 242.156 70.0716 243.074 70.8747C243.992 71.6777 245.094 72.2421 246.282 72.5178C247.471 72.7935 248.708 72.772 249.886 72.4553C251.064 72.1386 252.146 71.5364 253.035 70.702C253.925 69.8676 254.595 68.8268 254.987 67.6716C255.378 66.5164 255.479 65.2825 255.28 64.0792C255.035 62.6298 254.365 61.2858 253.355 60.2178C252.346 59.1497 251.041 58.4056 249.608 58.08C248.174 57.7543 246.677 57.8617 245.304 58.3885C243.932 58.9154 242.747 59.8379 241.9 61.0392L241.92 60.9792Z" fill="#1890ff"/>
<path d="M269.44 70.1391C267.838 70.1364 266.271 69.6758 264.922 68.8116C263.574 67.9473 262.5 66.7155 261.829 65.2614C261.157 63.8072 260.915 62.1914 261.131 60.6043C261.348 59.0172 262.013 57.5251 263.05 56.3038C264.086 55.0826 265.45 54.1831 266.981 53.7115C268.512 53.2399 270.146 53.2157 271.69 53.642C273.234 54.0682 274.624 54.927 275.696 56.1171C276.768 57.3073 277.477 58.7791 277.74 60.3591C277.944 61.5641 277.883 62.7991 277.559 63.9777C277.235 65.1562 276.658 66.2497 275.867 67.1815C275.076 68.1134 274.091 68.8609 272.981 69.3718C271.871 69.8827 270.662 70.1446 269.44 70.1391ZM263.44 57.4191C262.732 58.4119 262.279 59.564 262.122 60.7736C261.964 61.9831 262.108 63.2128 262.539 64.3537C262.97 65.4946 263.676 66.5116 264.594 67.3146C265.512 68.1177 266.614 68.682 267.802 68.9577C268.991 69.2334 270.228 69.212 271.406 68.8952C272.584 68.5785 273.666 67.9763 274.556 67.1419C275.445 66.3075 276.115 65.2667 276.507 64.1115C276.898 62.9564 276.999 61.7225 276.8 60.5191C276.564 59.0652 275.901 57.7143 274.895 56.6386C273.889 55.5628 272.586 54.8108 271.151 54.4784C269.716 54.1459 268.214 54.248 266.838 54.7717C265.461 55.2954 264.271 56.217 263.42 57.4191H263.44Z" fill="#1890ff"/>
<path d="M299.62 56.7392C299.349 55.1003 298.598 53.5787 297.462 52.3667C296.326 51.1547 294.856 50.3068 293.238 49.93C291.62 49.5533 289.927 49.6647 288.372 50.2502C286.818 50.8357 285.472 51.869 284.504 53.2194C283.537 54.5698 282.992 56.1768 282.937 57.837C282.883 59.4973 283.323 61.1364 284.2 62.547C285.077 63.9577 286.353 65.0766 287.866 65.7622C289.379 66.4479 291.061 66.6695 292.7 66.3992C293.79 66.222 294.834 65.8312 295.773 65.2492C296.711 64.6672 297.525 63.9055 298.168 63.0078C298.811 62.1101 299.271 61.0942 299.52 60.0184C299.769 58.9426 299.803 57.8282 299.62 56.7392Z" fill="#1890ff"/>
<path d="M76.1602 46.1592L66.1602 39.1192L73.2002 29.2192C73.2364 29.1397 73.2441 29.0502 73.2221 28.9657C73.2 28.8812 73.1496 28.8069 73.0791 28.7552C73.0087 28.7036 72.9226 28.6778 72.8354 28.6821C72.7482 28.6865 72.6651 28.7208 72.6002 28.7792L65.5602 38.7792L55.5602 31.7392C55.1602 31.4392 54.7202 32.0592 55.1202 32.3592L65.1202 39.3792L58.0802 49.3792C58.0403 49.4354 58.0164 49.5013 58.0111 49.57C58.0058 49.6387 58.0193 49.7076 58.0501 49.7692C58.0809 49.8309 58.1279 49.883 58.1861 49.92C58.2442 49.9569 58.3113 49.9774 58.3802 49.9792C58.6802 49.9792 58.2202 50.4792 65.7402 39.9792C76.2602 47.4592 75.7402 47.0992 75.8602 47.0992C75.9849 47.139 76.1202 47.1276 76.2365 47.0676C76.3528 47.0076 76.4404 46.9038 76.4802 46.7792C76.52 46.6545 76.5086 46.5192 76.4486 46.4029C76.3886 46.2866 76.2849 46.199 76.1602 46.1592Z" fill="#1890ff"/>
<path d="M63.4802 233.659C63.2202 233.439 66.4802 232.339 14.7602 249.119C14.6988 249.142 14.6443 249.18 14.6021 249.231C14.5599 249.281 14.5314 249.341 14.5193 249.405C14.5072 249.47 14.512 249.536 14.5332 249.598C14.5544 249.66 14.5912 249.716 14.6402 249.759L28.3802 261.939L10.1402 281.939C10.1045 281.975 10.0762 282.017 10.0569 282.063C10.0375 282.109 10.0276 282.159 10.0276 282.209C10.0276 282.259 10.0375 282.309 10.0569 282.356C10.0762 282.402 10.1045 282.444 10.1402 282.479C20.7802 291.839 20.1402 291.379 20.3002 291.379C20.4602 291.379 19.3202 292.639 38.8202 271.179L52.5202 283.359C52.5696 283.402 52.6293 283.432 52.6936 283.445C52.7578 283.458 52.8244 283.455 52.8868 283.435C52.9492 283.415 53.0053 283.379 53.0497 283.33C53.0941 283.282 53.1253 283.223 53.1402 283.159C64.3802 230.779 63.7202 233.899 63.4802 233.659ZM38.5202 270.479L20.2802 290.479L10.9202 282.239C30.5602 260.619 29.2602 262.239 29.2402 261.879C29.2202 261.519 30.0402 262.439 15.6202 249.639L45.0802 240.179L51.8002 281.799L39.0402 270.439C38.9648 270.378 38.8689 270.349 38.7722 270.356C38.6756 270.363 38.5854 270.408 38.5202 270.479Z" fill="#1890ff"/>
<path d="M260.04 277.759C259.84 277.759 259.86 277.759 230.52 268.639C230.457 268.608 230.404 268.559 230.367 268.499C230.33 268.439 230.31 268.37 230.31 268.299C230.31 268.229 230.33 268.159 230.367 268.099C230.404 268.039 230.457 267.991 230.52 267.959L255.26 250.759C255.342 250.722 255.434 250.716 255.52 250.74C255.606 250.764 255.681 250.818 255.731 250.892C255.781 250.967 255.804 251.056 255.794 251.145C255.785 251.234 255.745 251.317 255.68 251.379L231.68 268.139L260.14 277.039C260.187 277.046 260.233 277.062 260.274 277.086C260.315 277.11 260.351 277.142 260.38 277.18C260.409 277.218 260.43 277.261 260.442 277.308C260.454 277.354 260.457 277.402 260.45 277.449C260.444 277.497 260.428 277.542 260.404 277.583C260.379 277.624 260.347 277.66 260.309 277.689C260.271 277.718 260.228 277.739 260.182 277.751C260.136 277.763 260.087 277.766 260.04 277.759Z" fill="#1890ff"/>
<path d="M283.98 273.219L307.98 255.499L279.5 247.499C279.445 247.494 279.391 247.477 279.343 247.449C279.294 247.421 279.253 247.383 279.221 247.337C279.189 247.291 279.168 247.239 279.159 247.184C279.149 247.129 279.152 247.073 279.167 247.019C279.182 246.965 279.209 246.915 279.245 246.873C279.281 246.831 279.327 246.797 279.378 246.774C279.428 246.751 279.484 246.74 279.539 246.741C279.595 246.741 279.65 246.755 279.7 246.779C301.1 252.459 307 254.159 308.6 254.779C309.32 255.059 309.5 255.219 308.78 255.839C307.44 256.939 302.48 260.579 284.48 273.839C284.398 273.905 284.293 273.936 284.188 273.925C284.083 273.914 283.987 273.861 283.92 273.779C283.854 273.697 283.823 273.592 283.834 273.487C283.845 273.382 283.898 273.285 283.98 273.219Z" fill="#1890ff"/>
<path d="M263.9 288.619L274.64 236.259C274.66 236.161 274.717 236.075 274.799 236.019C274.881 235.963 274.982 235.941 275.08 235.959C275.18 235.983 275.266 236.044 275.322 236.13C275.377 236.215 275.398 236.319 275.38 236.419L264.64 288.779C264.612 288.87 264.551 288.947 264.469 288.995C264.387 289.043 264.29 289.058 264.197 289.038C264.104 289.018 264.022 288.964 263.967 288.886C263.912 288.809 263.888 288.713 263.9 288.619Z" fill="#1890ff"/>
</svg>
