<svg width="400" height="400" viewBox="0 0 400 400" fill="none" xmlns="http://www.w3.org/2000/svg">
<path d="M126.76 328.357L93.6801 333.917C85.4064 335.32 76.9142 333.383 70.0673 328.531C63.2204 323.679 58.5784 316.308 57.1601 308.037L27.0001 122.037L191.94 94.3574C192.027 94.3283 192.101 94.2686 192.148 94.1893C192.194 94.1101 192.211 94.0166 192.193 93.9262C192.176 93.8359 192.127 93.7548 192.055 93.698C191.982 93.6412 191.892 93.6126 191.8 93.6174L26.8801 121.317L25.5201 112.917C24.1057 104.638 26.0374 96.1349 30.8905 89.279C35.7437 82.4232 43.1209 77.7753 51.4001 76.3574L287.78 36.6974C291.882 35.9829 296.085 36.0856 300.147 36.9997C304.21 37.9138 308.052 39.6213 311.452 42.0241C314.853 44.4269 317.746 47.4777 319.964 51.0014C322.183 54.525 323.683 58.4522 324.38 62.5574L325.78 71.1374L212.72 90.1174C212.619 90.1174 212.523 90.1574 212.451 90.2287C212.38 90.3 212.34 90.3966 212.34 90.4974C212.34 90.5982 212.38 90.6948 212.451 90.7661C212.523 90.8374 212.619 90.8774 212.72 90.8774C212.92 90.8774 213.2 90.8774 325.84 71.8774L339.5 156.197L339.96 154.197L325.02 62.3574C323.564 53.8997 318.808 46.367 311.798 41.416C304.788 36.4651 296.098 34.5016 287.64 35.9574L51.2801 75.6574C42.8141 77.1101 35.2698 81.8612 30.302 88.8686C25.3342 95.8761 23.3484 104.568 24.7801 113.037L56.3801 308.177C57.8328 316.643 62.5839 324.188 69.5914 329.156C76.5988 334.123 85.2906 336.109 93.7601 334.677L126.84 329.117C126.941 329.107 127.033 329.057 127.097 328.978C127.161 328.899 127.191 328.798 127.18 328.697C127.17 328.597 127.119 328.504 127.041 328.44C126.962 328.377 126.861 328.347 126.76 328.357Z" fill="white"/>
<path d="M356.68 257.598L340.5 157.798L340.04 159.798L355.94 257.798C357.337 266.071 355.394 274.561 350.538 281.404C345.683 288.247 338.311 292.884 330.04 294.298L138.56 326.358C138.475 326.386 138.403 326.444 138.356 326.522C138.31 326.599 138.292 326.69 138.307 326.778C138.321 326.867 138.367 326.948 138.435 327.006C138.503 327.065 138.59 327.097 138.68 327.098L330.18 294.938C338.636 293.48 346.17 288.733 351.136 281.736C356.101 274.739 358.095 266.06 356.68 257.598Z" fill="white"/>
<path d="M329.24 201.237L339.24 157.077L310.7 158.117L300.46 167.477C304.046 168.24 307.53 169.421 310.84 170.997C312.243 171.594 313.529 172.434 314.64 173.477C316.2 175.257 307.86 172.697 303.74 172.257C304.555 172.711 305.302 173.277 305.96 173.937C307.02 175.137 302.52 173.517 298.42 172.837C297.644 172.637 296.839 172.57 296.04 172.637C300.04 174.417 306.14 177.797 307.6 180.397C309.36 183.557 300.36 177.297 294.54 177.117C298.24 178.837 302.26 181.117 303.72 183.857C305.72 187.457 298.56 180.877 290.04 180.597C298.18 185.517 302.04 189.577 290.44 184.597C288.322 183.64 286.056 183.051 283.74 182.857L260.54 204.097C334.38 201.197 329.18 201.497 329.24 201.237Z" fill="white"/>
<path d="M347.7 126.097L330.8 200.517L373.2 155.677L390.08 81.3574L347.7 126.097Z" fill="white"/>
<path d="M144.38 242.358C140.483 246.677 135.033 249.277 129.223 249.588C123.413 249.899 117.717 247.896 113.38 244.018L75.9402 210.358C80.514 198.31 89.4129 188.398 100.9 182.558L125.8 204.938C142.7 162.258 160.72 158.938 166.52 153.978C178.06 163.078 183.64 166.478 198.76 169.298C195 206.378 196.98 249.438 191.14 273.858C189.754 279.603 186.964 284.915 183.02 289.318L156.38 318.998C144.583 313.921 134.756 305.147 128.38 293.998L153.64 265.998L159.78 225.138C208.5 170.898 192.52 188.678 144.38 242.358Z" fill="#B2BEC3"/>
<path d="M315.26 173.097C314.087 172.012 312.733 171.139 311.26 170.517C305.94 167.897 304.78 167.837 250.88 154.737L235.7 142.137C236.16 140.277 236.04 139.077 235.32 138.597C235.12 138.457 236.16 139.357 201.32 107.937C200.641 103.083 201.078 98.1372 202.6 93.4775C213.3 97.2375 216.1 87.8175 213.88 76.7375C214.424 76.386 214.882 75.9179 215.223 75.3671C215.563 74.8164 215.776 74.1968 215.847 73.5533C215.918 72.9098 215.844 72.2587 215.632 71.6471C215.42 71.0355 215.074 70.4788 214.62 70.0175C215.269 69.6063 215.798 69.0311 216.153 68.35C216.508 67.6689 216.676 66.9062 216.642 66.1389C216.607 65.3716 216.371 64.6271 215.956 63.9806C215.541 63.3342 214.963 62.8087 214.28 62.4575C214.757 61.8733 215.074 61.176 215.202 60.4331C215.33 59.6902 215.264 58.9269 215.011 58.2169C214.758 57.5069 214.325 56.8744 213.756 56.3805C213.186 55.8865 212.499 55.548 211.76 55.3975C211.999 54.7084 212.061 53.9701 211.939 53.251C211.817 52.5318 211.516 51.8549 211.064 51.2828C210.611 50.7107 210.022 50.2619 209.35 49.9778C208.678 49.6938 207.946 49.5836 207.22 49.6575C207.222 48.9311 207.042 48.2158 206.698 47.5765C206.353 46.9372 205.854 46.3942 205.246 45.9968C204.638 45.5995 203.94 45.3603 203.216 45.301C202.492 45.2417 201.765 45.3643 201.1 45.6575C200.885 44.9368 200.489 44.2835 199.948 43.7606C199.408 43.2377 198.742 42.8627 198.014 42.6718C197.287 42.4809 196.523 42.4805 195.795 42.6707C195.068 42.8608 194.401 43.2351 193.86 43.7575C193.418 43.1014 192.814 42.5704 192.107 42.2158C191.4 41.8612 190.613 41.6949 189.823 41.7331C189.033 41.7713 188.266 42.0127 187.596 42.4339C186.927 42.855 186.377 43.4418 186 44.1375C185.111 43.4523 183.993 43.1347 182.876 43.2501C181.76 43.3654 180.73 43.905 180 44.7575C179.833 43.9155 179.467 43.1257 178.933 42.4534C178.399 41.7812 177.712 41.2459 176.93 40.892C176.148 40.5381 175.293 40.3757 174.436 40.4184C173.578 40.4611 172.743 40.7076 172 41.1375C171.495 40.2067 170.738 39.4375 169.815 38.9185C168.891 38.3995 167.841 38.1519 166.783 38.2041C165.725 38.2564 164.704 38.6064 163.836 39.2138C162.969 39.8213 162.291 40.6614 161.88 41.6375C160.973 41.1909 159.958 41.011 158.953 41.1187C157.948 41.2263 156.994 41.6171 156.202 42.2456C155.41 42.874 154.813 43.7144 154.48 44.6688C154.147 45.6233 154.091 46.6528 154.32 47.6375C153.317 47.8372 152.391 48.3201 151.653 49.0291C150.915 49.7381 150.395 50.6436 150.156 51.6385C149.916 52.6334 149.966 53.6761 150.3 54.6435C150.634 55.6109 151.238 56.4624 152.04 57.0975C151.278 57.791 150.733 58.69 150.471 59.6862C150.209 60.6824 150.24 61.7332 150.561 62.712C150.883 63.6908 151.48 64.5557 152.282 65.2025C153.084 65.8494 154.056 66.2505 155.08 66.3575C154.952 67.3639 155.113 68.386 155.543 69.3049C155.972 70.2239 156.654 71.0019 157.509 71.5486C158.364 72.0954 159.356 72.3883 160.37 72.3934C161.385 72.3985 162.38 72.1156 163.24 71.5775C163.599 72.2885 164.115 72.9085 164.749 73.3902C165.383 73.8719 166.119 74.2027 166.9 74.3575C166.735 75.4678 167.005 76.599 167.653 77.5155C168.302 78.4319 169.278 79.0631 170.38 79.2775C170.149 79.9688 170.095 80.707 170.223 81.4246C170.35 82.1422 170.656 82.8164 171.112 83.3854C171.567 83.9544 172.158 84.4001 172.831 84.6817C173.503 84.9633 174.235 85.0719 174.96 84.9975C174.961 85.7272 175.143 86.4452 175.492 87.0864C175.84 87.7276 176.343 88.2716 176.955 88.6689C177.567 89.0663 178.268 89.3045 178.996 89.3619C179.723 89.4193 180.454 89.294 181.12 88.9975C181.338 89.7194 181.74 90.3725 182.285 90.8929C182.831 91.4133 183.503 91.7833 184.234 91.9667C184.965 92.15 185.732 92.1405 186.459 91.9391C187.185 91.7377 187.848 91.3512 188.38 90.8175C189.346 91.8962 190.626 92.6446 192.04 92.9575C187.78 100.557 179.92 107.377 176.46 114.677C167.46 133.657 170.96 139.957 166.22 153.657C158.66 159.077 142.22 163.297 125.68 204.217L101.22 182.357C101.143 182.289 101.044 182.251 100.94 182.251C100.837 182.251 100.737 182.289 100.66 182.357C98.0541 183.681 95.5709 185.234 93.2402 186.997C80.6202 176.997 79.6202 176.717 69.3802 165.537C69.3391 165.489 69.286 165.453 69.2263 165.432C69.1666 165.411 69.1024 165.406 69.0402 165.417C48.2002 168.197 24.1002 175.357 13.7402 180.357C13.6696 180.382 13.6084 180.428 13.5651 180.489C13.5218 180.55 13.4985 180.623 13.4985 180.697C13.4985 180.772 13.5218 180.845 13.5651 180.906C13.6084 180.967 13.6696 181.013 13.7402 181.037C29.0308 186.866 45.4291 189.21 61.7402 187.897L78.9202 203.337C77.745 205.388 76.7029 207.513 75.8002 209.697C75.7026 209.921 75.6791 210.169 75.7331 210.407C75.7871 210.644 75.9157 210.858 76.1002 211.017L113.1 244.257C117.509 248.211 123.305 250.254 129.218 249.939C135.13 249.624 140.677 246.977 144.64 242.577L159.28 226.277L153.28 265.797L128.48 293.437C128.342 293.586 128.256 293.776 128.234 293.978C128.212 294.179 128.257 294.383 128.36 294.557C129.653 296.719 131.062 298.808 132.58 300.817C119.5 316.817 109.7 325.897 109.6 326.457C107.48 338.957 108.5 367.417 112.5 380.457C112.521 380.526 112.561 380.588 112.616 380.635C112.67 380.682 112.737 380.713 112.809 380.723C112.88 380.733 112.953 380.723 113.018 380.694C113.084 380.665 113.14 380.617 113.18 380.557C123.58 363.277 127.34 352.557 132.88 333.677L149.08 315.677C151.243 316.986 153.488 318.155 155.8 319.177C155.973 319.248 156.162 319.265 156.344 319.226C156.527 319.187 156.692 319.093 156.82 318.957L183.3 289.477C187.287 285.031 190.105 279.664 191.5 273.857C197.3 249.577 195.5 206.017 199.12 169.337L202.92 162.477L207.96 166.737C208.74 167.437 210.76 166.517 211.86 165.417L226.38 176.457C229.735 178.908 233.686 180.414 237.82 180.817C238.28 180.817 284.08 182.237 290.28 184.937C292.474 186.081 294.838 186.864 297.28 187.257C297.86 187.257 297.96 187.037 298.06 186.877C298.62 185.777 294.62 182.877 291.54 181.037C298.62 181.877 303.54 186.177 304.48 185.037C304.8 184.697 304.48 184.097 304.24 183.577C302.349 180.972 299.813 178.905 296.88 177.577C301.28 178.597 306.2 181.577 307.72 181.577C308.34 181.577 308.72 181.097 308.16 180.117C306.66 177.437 302.16 174.917 298.26 173.117C301.36 173.637 304.68 174.597 305.9 174.597C306.76 174.597 306.94 174.057 306.46 173.497C306.191 173.2 305.896 172.925 305.58 172.677C308.66 173.217 312.82 174.297 314.46 174.297C315.62 174.357 315.78 173.697 315.26 173.097ZM234.04 138.457C231.74 139.017 228.4 142.797 226.88 144.637L226.14 143.977C226.14 143.757 227.02 141.057 225.76 140.257L204.38 120.957C203.023 117.118 202.058 113.151 201.5 109.117L234.04 138.457ZM192.58 93.5375C195.46 88.4975 196.98 82.2375 194.06 77.3775C194.04 77.3385 194.011 77.3041 193.977 77.2766C193.943 77.2491 193.903 77.2289 193.86 77.2175C188.78 75.5375 190.86 69.6575 194.24 71.9575C195.44 72.7975 197.02 73.5775 197.38 72.1375C197.436 71.5567 197.69 71.0129 198.1 70.5975C198.513 71.2453 199.09 71.7726 199.772 72.126C200.454 72.4793 201.217 72.6462 201.985 72.6096C202.752 72.5731 203.496 72.3345 204.141 71.9179C204.787 71.5013 205.311 70.9216 205.66 70.2375C206.434 70.8591 207.397 71.198 208.39 71.198C209.383 71.198 210.346 70.8591 211.12 70.2375C213.54 76.1175 215.62 87.7775 211.12 92.0375C208.72 94.2575 204.88 94.0375 199.68 91.3375C199.44 91.1975 198.96 91.3375 199.28 92.0575C199.6 92.7775 199.98 93.5775 201.04 95.8975C200.403 98.7645 200.154 101.704 200.3 104.637C197.3 108.857 191.46 104.257 187.66 100.637C189.476 98.3974 191.12 96.0241 192.58 93.5375ZM63.2202 188.137C66.6993 182.621 70.9262 177.613 75.7802 173.257C81.1062 178.259 86.7298 182.935 92.6202 187.257C87.2443 191.447 82.7282 196.635 79.3202 202.537L63.2202 188.137ZM132.58 332.917C127.054 328.877 122.171 324.022 118.1 318.517C123.56 312.637 128.62 306.837 133 301.497C137.325 306.942 142.522 311.632 148.38 315.377L132.58 332.917ZM190.78 273.697C189.42 279.381 186.672 284.638 182.78 288.997L165.04 308.757C153.76 303.497 144.179 295.183 137.38 284.757C154.98 265.157 154.1 266.217 154.12 266.017L157.22 245.377L189.68 192.357C189.716 192.278 189.724 192.188 189.702 192.104C189.68 192.019 189.63 191.945 189.559 191.894C189.489 191.842 189.403 191.816 189.315 191.82C189.228 191.825 189.145 191.859 189.08 191.917L144.1 241.917C140.268 246.165 134.908 248.721 129.195 249.025C123.482 249.329 117.881 247.355 113.62 243.537L84.6602 217.537C87.7185 211.912 91.3873 206.64 95.6002 201.817C130.64 229.557 128.28 227.817 128.48 227.817C128.68 227.817 128.14 228.617 162.82 177.677C167.565 176.385 172.014 174.185 175.92 171.197C175.989 171.133 176.031 171.045 176.038 170.952C176.046 170.858 176.018 170.765 175.961 170.69C175.904 170.615 175.821 170.564 175.728 170.547C175.636 170.53 175.54 170.548 175.46 170.597C168.167 176.018 159.241 178.784 150.16 178.437C150.059 178.437 149.963 178.478 149.892 178.549C149.82 178.62 149.78 178.717 149.78 178.817C149.78 178.918 149.82 179.015 149.892 179.086C149.963 179.157 150.059 179.197 150.16 179.197C154.044 179.281 157.923 178.864 161.7 177.957L128.38 226.917L96.1002 201.337C99.8986 197.111 104.251 193.417 109.04 190.357L125.58 205.197C125.625 205.232 125.677 205.256 125.733 205.267C125.789 205.278 125.846 205.276 125.901 205.26C125.956 205.245 126.006 205.216 126.047 205.178C126.089 205.139 126.121 205.091 126.14 205.037C142.38 164.557 158.38 160.157 166.5 154.357C177.56 163.057 183.3 166.677 198.34 169.537C194.64 206.357 196.56 249.457 190.78 273.697ZM207.4 165.297L185.26 146.537C185.19 146.48 185.102 146.45 185.011 146.452C184.921 146.454 184.834 146.488 184.767 146.548C184.699 146.608 184.655 146.691 184.643 146.781C184.631 146.87 184.651 146.961 184.7 147.037C197.58 167.037 198.56 168.817 198.56 168.817C183.62 165.997 177.94 162.417 166.96 153.777C171.7 139.917 168.18 133.877 177.12 115.017C179.34 110.337 183.36 105.897 187.12 101.257C190.84 104.797 196.72 109.477 200.3 105.797C200.653 110.613 201.614 115.364 203.16 119.937L190.06 108.177C189.7 107.837 189.2 108.397 189.56 108.737L224.52 140.137C219.3 141.437 207.06 159.297 207.4 165.297ZM305.76 173.917C304.42 173.917 298.9 172.277 295.76 172.117C294.2 171.461 292.604 170.894 290.98 170.417C290.886 170.406 290.791 170.429 290.713 170.484C290.635 170.539 290.581 170.621 290.561 170.714C290.541 170.807 290.557 170.904 290.605 170.986C290.652 171.068 290.729 171.129 290.82 171.157C294.44 171.917 306.38 177.157 307.64 180.897C306.454 180.578 305.301 180.143 304.2 179.597C301.218 178.098 298.008 177.104 294.7 176.657C292.48 175.617 290.54 174.877 289.78 174.657C289.693 174.643 289.603 174.659 289.527 174.703C289.45 174.747 289.391 174.817 289.36 174.9C289.329 174.983 289.329 175.074 289.358 175.157C289.387 175.241 289.444 175.312 289.52 175.357C293.52 176.777 302.28 180.637 303.8 184.577C302.18 184.137 296.54 180.457 290.14 180.217L288.84 179.437C288.753 179.387 288.649 179.374 288.551 179.4C288.454 179.426 288.371 179.49 288.32 179.577C288.27 179.665 288.256 179.769 288.283 179.866C288.309 179.964 288.373 180.047 288.46 180.097C294.14 183.417 297.02 185.837 297.32 186.537C297 186.537 295.64 186.537 290.56 184.277C284.24 181.537 239.72 180.157 237.86 180.117C233.864 179.718 230.047 178.261 226.8 175.897L208.8 162.157C211 155.737 217.98 145.597 222.8 141.997L241.1 158.357C241.3 158.537 239.5 158.097 292.66 168.557C296.38 169.537 303.44 171.497 305.76 173.917ZM304.04 171.757C300.462 170.041 296.715 168.7 292.86 167.757L241.52 157.757L227.52 145.257C228.915 143.454 230.504 141.811 232.26 140.357L250.48 155.477C250.48 155.477 296.62 166.757 299.02 167.357C303.155 168.246 307.179 169.588 311.02 171.357C312.392 171.933 313.651 172.745 314.74 173.757C313.38 173.777 307.16 172.097 304.04 171.757Z" fill="white"/>
<path d="M247.92 73.0175C246.318 73.0148 244.751 72.5542 243.402 71.69C242.054 70.8258 240.98 69.594 240.308 68.1398C239.637 66.6857 239.395 65.0698 239.611 63.4827C239.828 61.8956 240.493 60.4035 241.53 59.1822C242.566 57.961 243.93 57.0615 245.461 56.5899C246.992 56.1183 248.626 56.0942 250.17 56.5204C251.714 56.9466 253.104 57.8054 254.176 58.9955C255.248 60.1857 255.957 61.6575 256.22 63.2375C256.421 64.442 256.356 65.6757 256.031 66.8528C255.707 68.0298 255.129 69.1218 254.339 70.0528C253.549 70.9838 252.565 71.7314 251.457 72.2434C250.348 72.7554 249.141 73.0196 247.92 73.0175ZM241.92 60.2975C241.212 61.2903 240.759 62.4424 240.601 63.652C240.444 64.8616 240.588 66.0912 241.019 67.2321C241.45 68.373 242.156 69.39 243.074 70.193C243.992 70.9961 245.094 71.5604 246.282 71.8361C247.471 72.1118 248.708 72.0904 249.886 71.7737C251.064 71.4569 252.146 70.8547 253.035 70.0203C253.925 69.186 254.595 68.1451 254.987 66.9899C255.378 65.8348 255.479 64.6009 255.28 63.3975C255.035 61.9482 254.365 60.6042 253.355 59.5361C252.346 58.468 251.041 57.724 249.608 57.3983C248.174 57.0726 246.677 57.18 245.304 57.7069C243.932 58.2337 242.747 59.1563 241.9 60.3575L241.92 60.2975Z" fill="white"/>
<path d="M269.44 69.4575C267.838 69.4548 266.271 68.9942 264.922 68.1299C263.574 67.2657 262.5 66.0339 261.829 64.5798C261.157 63.1256 260.915 61.5097 261.131 59.9226C261.348 58.3356 262.013 56.8434 263.05 55.6222C264.086 54.4009 265.45 53.5015 266.981 53.0298C268.512 52.5582 270.146 52.5341 271.69 52.9603C273.234 53.3866 274.624 54.2454 275.696 55.4355C276.768 56.6256 277.477 58.0974 277.74 59.6775C277.944 60.8824 277.883 62.1175 277.559 63.296C277.235 64.4746 276.658 65.5681 275.867 66.4999C275.076 67.4317 274.091 68.1793 272.981 68.6902C271.871 69.2011 270.662 69.463 269.44 69.4575ZM263.44 56.7375C262.732 57.7302 262.279 58.8824 262.122 60.0919C261.964 61.3015 262.108 62.5311 262.539 63.672C262.97 64.813 263.676 65.8299 264.594 66.633C265.512 67.436 266.614 68.0004 267.802 68.2761C268.991 68.5518 270.228 68.5303 271.406 68.2136C272.584 67.8969 273.666 67.2947 274.556 66.4603C275.445 65.6259 276.115 64.5851 276.507 63.4299C276.898 62.2747 276.999 61.0408 276.8 59.8375C276.564 58.3835 275.901 57.0327 274.895 55.9569C273.889 54.8812 272.586 54.1292 271.151 53.7967C269.716 53.4643 268.214 53.5664 266.838 54.0901C265.461 54.6138 264.271 55.5354 263.42 56.7375H263.44Z" fill="white"/>
<path d="M299.62 56.0575C299.349 54.4187 298.598 52.8971 297.462 51.6851C296.326 50.4731 294.856 49.6251 293.238 49.2484C291.62 48.8717 289.927 48.9831 288.372 49.5686C286.818 50.1541 285.472 51.1874 284.504 52.5378C283.537 53.8882 282.992 55.4951 282.937 57.1554C282.883 58.8157 283.323 60.4547 284.2 61.8654C285.077 63.276 286.353 64.3949 287.866 65.0806C289.379 65.7662 291.061 65.9879 292.7 65.7175C293.79 65.5404 294.834 65.1496 295.773 64.5676C296.711 63.9856 297.525 63.2238 298.168 62.3261C298.811 61.4285 299.271 60.4125 299.52 59.3367C299.769 58.2609 299.803 57.1465 299.62 56.0575Z" fill="white"/>
<path d="M76.1602 45.4775L66.1602 38.4375L73.2002 28.5375C73.2364 28.4581 73.2441 28.3685 73.2221 28.284C73.2 28.1995 73.1496 28.1252 73.0791 28.0736C73.0087 28.0219 72.9226 27.9961 72.8354 28.0005C72.7482 28.0048 72.6651 28.0391 72.6002 28.0975L65.5602 38.0975L55.5602 31.0575C55.1602 30.7575 54.7202 31.3775 55.1202 31.6775L65.1202 38.6975L58.0802 48.6975C58.0403 48.7537 58.0164 48.8197 58.0111 48.8884C58.0058 48.9571 58.0193 49.026 58.0501 49.0876C58.0809 49.1492 58.1279 49.2013 58.1861 49.2383C58.2442 49.2753 58.3113 49.2958 58.3802 49.2975C58.6802 49.2975 58.2202 49.7975 65.7402 39.2975C76.2602 46.7775 75.7402 46.4175 75.8602 46.4175C75.9849 46.4573 76.1202 46.446 76.2365 46.3859C76.3528 46.3259 76.4404 46.2222 76.4802 46.0975C76.52 45.9729 76.5086 45.8375 76.4486 45.7213C76.3886 45.605 76.2849 45.5173 76.1602 45.4775Z" fill="white"/>
<path d="M63.4802 232.978C63.2202 232.758 66.4802 231.658 14.7602 248.438C14.6988 248.46 14.6443 248.499 14.6021 248.549C14.5599 248.599 14.5314 248.659 14.5193 248.724C14.5072 248.788 14.512 248.855 14.5332 248.917C14.5544 248.979 14.5912 249.034 14.6402 249.078L28.3802 261.258L10.1402 281.258C10.1045 281.293 10.0762 281.335 10.0569 281.381C10.0375 281.428 10.0276 281.477 10.0276 281.528C10.0276 281.578 10.0375 281.628 10.0569 281.674C10.0762 281.72 10.1045 281.762 10.1402 281.798C20.7802 291.158 20.1402 290.698 20.3002 290.698C20.4602 290.698 19.3202 291.958 38.8202 270.498L52.5202 282.678C52.5696 282.721 52.6293 282.75 52.6936 282.764C52.7578 282.777 52.8244 282.773 52.8868 282.753C52.9492 282.733 53.0053 282.697 53.0497 282.649C53.0941 282.6 53.1253 282.541 53.1402 282.478C64.3802 230.098 63.7202 233.218 63.4802 232.978ZM38.5202 269.798L20.2802 289.798L10.9202 281.558C30.5602 259.938 29.2602 261.558 29.2402 261.198C29.2202 260.838 30.0402 261.758 15.6202 248.958L45.0802 239.498L51.8002 281.118L39.0402 269.758C38.9648 269.697 38.8689 269.667 38.7722 269.674C38.6756 269.682 38.5854 269.726 38.5202 269.798Z" fill="white"/>
<path d="M260.04 277.078C259.84 277.078 259.86 277.078 230.52 267.958C230.457 267.926 230.404 267.878 230.367 267.817C230.33 267.757 230.31 267.688 230.31 267.618C230.31 267.547 230.33 267.478 230.367 267.418C230.404 267.358 230.457 267.309 230.52 267.278L255.26 250.078C255.342 250.041 255.434 250.034 255.52 250.058C255.606 250.083 255.681 250.137 255.731 250.211C255.781 250.285 255.804 250.374 255.794 250.464C255.785 250.553 255.745 250.635 255.68 250.698L231.68 267.458L260.14 276.358C260.187 276.364 260.233 276.38 260.274 276.404C260.315 276.428 260.351 276.46 260.38 276.498C260.409 276.536 260.43 276.58 260.442 276.626C260.454 276.672 260.457 276.72 260.45 276.768C260.444 276.815 260.428 276.86 260.404 276.902C260.379 276.943 260.347 276.979 260.309 277.007C260.271 277.036 260.228 277.057 260.182 277.069C260.136 277.081 260.087 277.084 260.04 277.078Z" fill="white"/>
<path d="M283.98 272.537L307.98 254.817L279.5 246.817C279.445 246.813 279.391 246.795 279.343 246.767C279.294 246.739 279.253 246.701 279.221 246.655C279.189 246.609 279.168 246.557 279.159 246.502C279.149 246.447 279.152 246.391 279.167 246.337C279.182 246.283 279.209 246.234 279.245 246.191C279.281 246.149 279.327 246.115 279.378 246.092C279.428 246.069 279.484 246.058 279.539 246.059C279.595 246.06 279.65 246.073 279.7 246.097C301.1 251.777 307 253.477 308.6 254.097C309.32 254.377 309.5 254.537 308.78 255.157C307.44 256.257 302.48 259.897 284.48 273.157C284.398 273.224 284.293 273.255 284.188 273.243C284.083 273.232 283.987 273.18 283.92 273.097C283.854 273.015 283.823 272.91 283.834 272.805C283.845 272.7 283.898 272.604 283.98 272.537Z" fill="white"/>
<path d="M263.9 287.937L274.64 235.577C274.66 235.48 274.717 235.394 274.799 235.338C274.881 235.281 274.982 235.26 275.08 235.277C275.18 235.301 275.266 235.362 275.322 235.448C275.377 235.533 275.398 235.637 275.38 235.737L264.64 288.097C264.612 288.188 264.551 288.265 264.469 288.313C264.387 288.361 264.29 288.377 264.197 288.356C264.104 288.336 264.022 288.282 263.967 288.205C263.912 288.127 263.888 288.032 263.9 287.937Z" fill="white"/>
</svg>
