<svg width="400" height="401" viewBox="0 0 400 401" fill="none" xmlns="http://www.w3.org/2000/svg">
<path d="M201.298 97.8437L201.178 88.1536C201.177 88.1043 201.187 88.0553 201.205 88.0095C201.223 87.9636 201.251 87.9219 201.285 87.8866C201.32 87.8513 201.361 87.8232 201.406 87.8038C201.452 87.7844 201.501 87.7742 201.55 87.7737C201.649 87.7736 201.744 87.8123 201.815 87.8814C201.886 87.9505 201.927 88.0446 201.93 88.1436L202.05 97.8336C202.051 97.9334 202.013 98.0295 201.943 98.101C201.874 98.1724 201.779 98.2133 201.679 98.2146C201.579 98.216 201.483 98.1776 201.412 98.1081C201.34 98.0385 201.299 97.9434 201.298 97.8437Z" fill="#1890ff"/>
<path d="M231.962 105.986C231.897 105.985 231.833 105.968 231.776 105.936C231.719 105.903 231.672 105.857 231.639 105.8C231.606 105.744 231.588 105.68 231.587 105.615C231.586 105.549 231.602 105.485 231.634 105.428L236.324 96.9476C236.373 96.8613 236.454 96.7977 236.549 96.7707C236.644 96.7438 236.747 96.7555 236.833 96.8035C236.92 96.8515 236.984 96.9318 237.012 97.027C237.04 97.1222 237.029 97.2245 236.982 97.3116C231.876 106.546 232.278 105.986 231.962 105.986Z" fill="#1890ff"/>
<path d="M272.754 159.03H263.064C262.969 159.023 262.88 158.98 262.815 158.91C262.75 158.84 262.714 158.748 262.714 158.653C262.714 158.557 262.75 158.465 262.815 158.395C262.88 158.325 262.969 158.283 263.064 158.276H272.754C272.849 158.283 272.938 158.325 273.003 158.395C273.068 158.465 273.105 158.557 273.105 158.653C273.105 158.748 273.068 158.84 273.003 158.91C272.938 158.98 272.849 159.023 272.754 159.03Z" fill="#1890ff"/>
<path d="M263.562 193.824C263.362 193.824 263.808 194.024 254.928 189.024C254.841 188.975 254.777 188.893 254.75 188.797C254.723 188.701 254.735 188.599 254.784 188.512C254.833 188.425 254.914 188.361 255.01 188.334C255.106 188.307 255.209 188.319 255.296 188.368L263.746 193.112C263.821 193.151 263.881 193.215 263.915 193.293C263.949 193.371 263.956 193.458 263.935 193.54C263.914 193.623 263.865 193.695 263.798 193.747C263.73 193.798 263.647 193.825 263.562 193.824Z" fill="#1890ff"/>
<path d="M167.346 220.458C167.28 220.458 167.216 220.44 167.159 220.408C167.102 220.375 167.055 220.328 167.021 220.272C166.988 220.215 166.97 220.151 166.97 220.085C166.969 220.019 166.986 219.955 167.018 219.898L171.76 211.446C171.809 211.359 171.89 211.295 171.986 211.268C172.082 211.241 172.185 211.253 172.272 211.302C172.359 211.35 172.423 211.432 172.45 211.528C172.477 211.624 172.465 211.727 172.416 211.814C167.256 221.016 167.66 220.458 167.346 220.458Z" fill="#1890ff"/>
<path d="M141.506 195.238C141.424 195.238 141.343 195.212 141.277 195.162C141.211 195.113 141.163 195.043 141.141 194.963C141.118 194.884 141.122 194.8 141.152 194.723C141.182 194.646 141.236 194.581 141.306 194.538L146.094 191.658C146.136 191.632 146.183 191.615 146.232 191.608C146.281 191.601 146.331 191.603 146.379 191.615C146.427 191.627 146.472 191.648 146.512 191.678C146.552 191.707 146.586 191.744 146.611 191.787C146.636 191.829 146.653 191.876 146.661 191.925C146.668 191.974 146.666 192.024 146.654 192.072C146.642 192.12 146.62 192.165 146.591 192.205C146.561 192.245 146.524 192.278 146.482 192.304C144.907 193.417 143.242 194.398 141.506 195.238Z" fill="#1890ff"/>
<path d="M141.2 159.05H131.508C131.408 159.05 131.313 159.01 131.242 158.94C131.172 158.869 131.132 158.773 131.132 158.674C131.132 158.574 131.172 158.478 131.242 158.408C131.313 158.337 131.408 158.298 131.508 158.298H141.2C141.3 158.298 141.395 158.337 141.466 158.408C141.536 158.478 141.576 158.574 141.576 158.674C141.576 158.773 141.536 158.869 141.466 158.94C141.395 159.01 141.3 159.05 141.2 159.05Z" fill="#1890ff"/>
<path d="M170.888 106.708C170.582 106.708 171 107.244 165.568 98.2216C165.519 98.1363 165.505 98.0352 165.53 97.9399C165.554 97.8446 165.615 97.7628 165.7 97.712C165.784 97.6612 165.885 97.6455 165.981 97.6682C166.076 97.691 166.16 97.7504 166.212 97.8336L171.212 106.136C171.246 106.193 171.265 106.258 171.266 106.325C171.266 106.392 171.249 106.458 171.216 106.516C171.184 106.574 171.136 106.622 171.078 106.656C171.02 106.69 170.955 106.708 170.888 106.708Z" fill="#1890ff"/>
<path d="M341.72 358H335.92L318.908 292.974C318.887 292.893 318.841 292.822 318.775 292.771C318.71 292.721 318.629 292.693 318.546 292.694H311.1C311.014 292.693 310.93 292.722 310.863 292.776C310.796 292.83 310.75 292.906 310.732 292.99L296.62 357.99H290.82C290.72 357.99 290.625 358.029 290.554 358.1C290.484 358.17 290.444 358.266 290.444 358.366V369.914C290.444 370.013 290.484 370.109 290.554 370.18C290.625 370.25 290.72 370.29 290.82 370.29H341.72C341.82 370.29 341.915 370.25 341.986 370.18C342.056 370.109 342.096 370.013 342.096 369.914V358.366C342.093 358.268 342.053 358.175 341.982 358.106C341.912 358.038 341.818 358 341.72 358ZM305.38 321.182L308.814 305.368L323.236 312.518L328.504 332.646L305.38 321.182ZM301.58 338.682L334.324 354.922L335.1 357.882H297.414L301.58 338.682Z" fill="#1890ff"/>
<path d="M106.29 358H100.49L83.4799 292.974C83.4587 292.893 83.4115 292.822 83.3456 292.772C83.2798 292.721 83.199 292.694 83.1159 292.694H75.6699C75.584 292.693 75.5006 292.723 75.4337 292.777C75.3667 292.83 75.3202 292.906 75.3019 292.99L61.1899 357.99H55.3999C55.3002 357.99 55.2046 358.029 55.1341 358.1C55.0635 358.17 55.0239 358.266 55.0239 358.366V369.914C55.0239 370.013 55.0635 370.109 55.1341 370.18C55.2046 370.25 55.3002 370.29 55.3999 370.29H106.3C106.4 370.29 106.495 370.25 106.566 370.18C106.636 370.109 106.676 370.013 106.676 369.914V358.366C106.675 358.316 106.664 358.268 106.644 358.223C106.623 358.177 106.595 358.137 106.559 358.103C106.523 358.069 106.481 358.042 106.435 358.024C106.388 358.007 106.339 357.998 106.29 358ZM69.9519 321.182L73.3839 305.368L87.8059 312.518L93.0739 332.646L69.9519 321.182ZM66.1519 338.682L98.8959 354.922L99.6699 357.882H61.9859L66.1519 338.682Z" fill="#1890ff"/>
<path d="M245.816 155.464C245.726 155.42 245.623 155.413 245.528 155.445C245.434 155.478 245.356 155.546 245.312 155.636C245.268 155.725 245.261 155.829 245.294 155.923C245.326 156.018 245.394 156.096 245.484 156.14L250.398 158.554H219.4C219.3 158.554 219.205 158.593 219.134 158.664C219.064 158.734 219.024 158.83 219.024 158.93C219.024 159.029 219.064 159.125 219.134 159.196C219.205 159.266 219.3 159.306 219.4 159.306H250.78L245.898 162.576C245.857 162.603 245.822 162.639 245.794 162.68C245.767 162.721 245.748 162.767 245.738 162.816C245.729 162.864 245.729 162.914 245.738 162.963C245.748 163.011 245.767 163.058 245.795 163.099C245.823 163.14 245.858 163.175 245.899 163.202C245.94 163.23 245.987 163.249 246.035 163.258C246.084 163.268 246.134 163.268 246.182 163.258C246.231 163.248 246.277 163.229 246.318 163.202C252.718 158.928 252.41 159.216 252.392 158.906C252.374 158.596 252.642 158.802 245.816 155.464Z" fill="#1890ff"/>
<path d="M137.4 104.254C144.808 95.5928 153.907 88.536 164.138 83.5156C174.369 78.4951 185.518 75.6169 196.901 75.0572C208.285 74.4975 219.662 76.2681 230.337 80.2606C241.011 84.2531 250.758 90.3834 258.98 98.2756C259.052 98.3446 259.094 98.4394 259.096 98.5392C259.098 98.6389 259.061 98.7355 258.992 98.8076C258.923 98.8798 258.828 98.9216 258.729 98.9238C258.629 98.9261 258.532 98.8886 258.46 98.8196C250.312 90.9979 240.653 84.9225 230.074 80.9656C219.495 77.0088 208.22 75.2539 196.939 75.8086C185.658 76.3632 174.609 79.2157 164.47 84.1912C154.33 89.1667 145.313 96.1604 137.972 104.744C137.907 104.819 137.815 104.866 137.715 104.874C137.615 104.882 137.517 104.85 137.441 104.785C137.365 104.72 137.318 104.627 137.311 104.528C137.303 104.428 137.335 104.329 137.4 104.254Z" fill="#1890ff"/>
<path d="M173.506 237.912C162.978 234.236 153.288 228.498 145.003 221.034C136.718 213.57 130.003 204.53 125.252 194.441C120.501 184.353 117.808 173.418 117.331 162.277C116.854 151.136 118.602 140.011 122.474 129.554C122.512 129.465 122.583 129.394 122.672 129.356C122.76 129.318 122.86 129.315 122.951 129.349C123.042 129.382 123.116 129.45 123.158 129.537C123.2 129.624 123.207 129.724 123.178 129.816C119.34 140.179 117.607 151.204 118.079 162.246C118.552 173.287 121.22 184.124 125.929 194.122C130.638 204.12 137.292 213.08 145.503 220.477C153.715 227.873 163.318 233.559 173.752 237.202C173.842 237.237 173.916 237.306 173.956 237.394C173.997 237.483 174.002 237.583 173.97 237.675C173.938 237.767 173.872 237.843 173.786 237.887C173.699 237.931 173.599 237.94 173.506 237.912Z" fill="#1890ff"/>
<path d="M206.212 242.374C206.163 242.375 206.113 242.367 206.067 242.349C206.021 242.332 205.979 242.305 205.943 242.271C205.907 242.237 205.878 242.197 205.858 242.152C205.838 242.107 205.826 242.058 205.825 242.009C205.824 241.959 205.832 241.91 205.849 241.864C205.867 241.818 205.893 241.775 205.927 241.74C205.961 241.704 206.002 241.675 206.047 241.654C206.092 241.634 206.141 241.623 206.19 241.622C211.646 241.289 217.055 240.418 222.34 239.022C222.437 238.995 222.54 239.008 222.627 239.058C222.714 239.107 222.777 239.189 222.804 239.286C222.831 239.382 222.818 239.485 222.768 239.572C222.719 239.659 222.637 239.723 222.54 239.75C217.203 241.189 211.731 242.069 206.212 242.374Z" fill="#1890ff"/>
<path d="M273.876 198.588C280.716 186.017 284.202 171.896 283.999 157.587C283.797 143.277 279.911 129.261 272.718 116.89C272.668 116.803 272.653 116.701 272.679 116.604C272.704 116.508 272.767 116.425 272.853 116.375C272.939 116.324 273.042 116.31 273.138 116.335C273.235 116.361 273.318 116.423 273.368 116.51C280.626 128.994 284.547 143.137 284.751 157.576C284.956 172.015 281.438 186.263 274.536 198.948C274.487 199.033 274.407 199.095 274.312 199.122C274.218 199.149 274.116 199.137 274.03 199.09C273.944 199.043 273.879 198.964 273.851 198.87C273.822 198.776 273.831 198.675 273.876 198.588Z" fill="#1890ff"/>
<path d="M307.414 81.8576C304.688 83.1936 296.92 85.4576 293.614 86.6696C298.014 85.2696 301.726 87.9356 300.04 90.1236C301.502 91.1796 300.956 92.3976 299.72 93.3516C299.865 93.5051 299.976 93.6877 300.045 93.8874C300.114 94.0871 300.14 94.2993 300.12 94.5096C299.754 97.4996 295.262 97.0056 287.246 102.546C285.323 96.8 281.666 91.792 276.778 88.2116C281.15 85.2516 293.298 76.7296 293.74 77.4396C294.25 78.2616 291.04 83.0896 290.46 83.9556C299.89 80.5096 308.8 81.1776 307.414 81.8576Z" fill="#FFE7EA"/>
<path d="M148.546 130.356C148.793 130.341 149.037 130.295 149.272 130.218C148.296 129.254 148.85 124.618 149.11 123.37C148.274 122.894 145.438 121.592 144.038 122.15C143.779 122.288 143.559 122.49 143.4 122.738C143.242 122.985 143.149 123.269 143.131 123.562C143.114 123.856 143.172 124.149 143.3 124.413C143.428 124.678 143.621 124.905 143.862 125.074C143.566 125.26 143.318 125.514 143.139 125.815C142.96 126.116 142.856 126.455 142.833 126.805C142.811 127.154 142.873 127.504 143.012 127.825C143.152 128.146 143.366 128.429 143.636 128.652C142.196 129.192 142.17 131.192 143.666 132.276C143.347 132.45 143.08 132.706 142.892 133.018C142.704 133.33 142.602 133.686 142.597 134.049C142.592 134.413 142.683 134.772 142.862 135.089C143.04 135.406 143.3 135.67 143.614 135.854C144.708 136.551 145.933 137.015 147.214 137.218C149.312 137.55 150.764 135.74 147.814 133.93C150.026 134.282 151.678 132.41 148.546 130.356Z" fill="#FFE7EA"/>
<path d="M148.47 150.516C153.683 151.575 159.023 151.863 164.32 151.372C164.498 148.688 164.974 144.572 165.048 141.312C165.192 135.048 164.748 133.5 163.132 130.498C161.639 127.694 159.829 125.071 157.736 122.682C155.849 121.797 153.792 121.334 151.708 121.326C149.664 121.126 149.416 121.926 149.108 123.364C148.793 125.159 148.668 126.984 148.736 128.806C148.808 130.662 150.764 132.374 152.486 125.54C151.958 127.555 151.938 129.669 152.428 131.694C152.311 134.713 151.478 137.662 150 140.298C150.276 141.814 148.708 148.388 148.47 150.516Z" fill="#FFE7EA"/>
<path d="M152.334 131.336C151.951 129.418 152.003 127.44 152.488 125.546C151.262 130.388 149.974 130.916 149.272 130.218C149.019 130.299 148.756 130.347 148.49 130.36C151.804 132.478 149.984 134.36 147.69 133.908C150.816 135.744 149.346 137.554 147.218 137.218C146.064 137.035 144.954 136.642 143.942 136.058C143.942 136.026 143.962 135.994 143.97 135.96C143.998 135.864 143.987 135.761 143.939 135.673C143.891 135.586 143.811 135.521 143.715 135.493C143.619 135.465 143.516 135.476 143.429 135.523C143.341 135.571 143.276 135.652 143.248 135.748C142.688 137.676 142.112 137.908 142.564 138.234C144.808 139.527 147.236 140.471 149.764 141.034C149.825 141.033 149.885 141.018 149.939 140.99C149.993 140.961 150.039 140.92 150.074 140.87C151.736 138.1 152.674 134.956 152.8 131.728C152.805 131.668 152.795 131.609 152.772 131.554C152.749 131.499 152.713 131.45 152.668 131.412C152.622 131.373 152.568 131.346 152.51 131.333C152.452 131.32 152.392 131.321 152.334 131.336Z" fill="#1890ff"/>
<path d="M159.66 111.768L143 109.722L130.78 96.4236C130.621 96.1849 130.414 95.9812 130.174 95.8251C129.933 95.6689 129.663 95.5636 129.38 95.5156C126.688 95.1876 124.38 101.33 123.08 107.258C117.068 109.966 116.352 115.696 121.542 119.784C121.442 123.246 121.586 132.714 125.018 132.714C125.782 132.714 124.75 133.244 141.468 122.214L144 122.524C144.062 122.53 144.124 122.522 144.182 122.5C144.38 122.423 144.592 122.39 144.804 122.404C146.264 122.495 147.68 122.938 148.932 123.696C148.985 123.726 149.044 123.743 149.105 123.745C149.166 123.747 149.226 123.734 149.281 123.708C149.336 123.681 149.384 123.641 149.42 123.592C149.456 123.543 149.479 123.486 149.488 123.426C149.748 122.1 149.936 121.536 151.688 121.706C153.699 121.737 155.684 122.172 157.524 122.986C157.566 123.018 157.614 123.042 157.666 123.054C157.718 123.066 157.772 123.068 157.824 123.058C157.876 123.048 157.926 123.026 157.969 122.996C158.013 122.965 158.049 122.926 158.076 122.88C158.92 121.292 159.44 119.551 159.603 117.76C159.767 115.968 159.571 114.162 159.028 112.448L159.584 112.516C166.584 113.376 165.818 123.9 158.944 123.568C158.844 123.565 158.747 123.602 158.675 123.67C158.602 123.738 158.56 123.833 158.557 123.933C158.554 124.032 158.591 124.129 158.659 124.202C158.728 124.274 158.822 124.317 158.922 124.32C166.836 124.524 167.522 112.732 159.66 111.768ZM118.848 113.098C119.356 108.962 125.18 106.128 131.912 106.698C131.891 112.017 131.242 117.315 129.978 122.482C123.308 121.394 118.34 117.234 118.848 113.098ZM141.126 121.532L127.882 130.27C132 123.282 133.922 105.912 131.8 98.6496C143 110.85 142.478 110.238 142.584 110.45C144.034 113.314 143.266 119.38 141.126 121.532Z" fill="#1890ff"/>
<path d="M202.096 125.866C201.774 123.994 201.89 122.073 202.436 120.254C207.078 116.708 203.94 112.442 201.658 115.118C200.572 116.394 200.038 116.318 199.828 115.474C199.064 110.722 193.028 103.354 189.976 115.896C189.996 116.096 185.286 132.172 197.528 126.72L195.808 129.026C195.876 130.356 195.648 131.685 195.139 132.916C194.631 134.147 193.855 135.249 192.868 136.144C195.89 145.56 200.332 144.476 206.18 133.1C203.538 131.98 202.446 128.79 202.096 125.866Z" fill="#FFE7EA"/>
<path d="M280.492 369.846C256.426 258.806 257.134 261.76 256.854 261.574C256.654 261.48 139.126 261.464 138.926 261.588C138.672 261.788 139.836 256.788 115.926 369.848C115.916 369.896 115.915 369.946 115.924 369.994C115.933 370.043 115.952 370.089 115.979 370.131C116.006 370.172 116.04 370.208 116.081 370.236C116.122 370.264 116.168 370.283 116.216 370.294C116.264 370.304 116.314 370.305 116.363 370.295C116.411 370.286 116.458 370.268 116.499 370.241C116.54 370.214 116.576 370.179 116.604 370.139C116.632 370.098 116.652 370.052 116.662 370.004L126.802 322.038C149.702 322.084 243.308 322.142 243.55 322.142L233.466 369.848C233.454 369.902 233.455 369.959 233.468 370.014C233.481 370.068 233.506 370.119 233.542 370.162C233.577 370.206 233.622 370.241 233.672 370.265C233.723 370.289 233.778 370.302 233.834 370.302C234.29 370.302 232.532 377.902 256.674 263.702L279.754 370.01C279.776 370.108 279.836 370.193 279.92 370.247C280.005 370.3 280.107 370.318 280.205 370.297C280.303 370.275 280.388 370.215 280.442 370.131C280.496 370.046 280.514 369.944 280.492 369.846ZM180.95 321.356L132.078 297.1L136.842 274.554L231.268 321.354L180.95 321.356ZM216.034 262.282L252.396 280.31L247.596 303.016L165.438 262.282H216.034Z" fill="#1890ff"/>
<path d="M308.312 224.644L257.02 255.98C252.487 258.748 247.056 259.646 241.874 258.484C236.691 257.321 232.164 254.189 229.248 249.75L202.062 208.364L207.852 225.798L196.902 334.012C196.902 341.43 150.358 341.412 150.358 334.012L187.03 182.012C196.675 178.621 207.03 177.771 217.098 179.544C240.12 188.544 245.596 224.638 245.596 224.638L282.226 191.51C289.354 185.906 315.442 219.026 308.312 224.644Z" fill="#FFE7EA"/>
<path d="M206.174 169.356C206.202 169.751 206.073 170.142 205.816 170.443C205.558 170.745 205.193 170.933 204.798 170.968C204.403 171.002 204.01 170.881 203.704 170.628C203.398 170.376 203.203 170.014 203.162 169.62C203.134 169.224 203.263 168.834 203.52 168.532C203.778 168.23 204.143 168.042 204.538 168.007C204.933 167.973 205.326 168.095 205.632 168.347C205.938 168.599 206.132 168.961 206.174 169.356Z" fill="#1890ff"/>
<path d="M190.6 158.972C190.628 159.367 190.499 159.758 190.242 160.059C189.984 160.361 189.619 160.549 189.224 160.584C188.829 160.618 188.436 160.497 188.13 160.244C187.824 159.992 187.629 159.63 187.588 159.236C187.56 158.84 187.689 158.45 187.946 158.148C188.204 157.846 188.569 157.658 188.964 157.623C189.359 157.589 189.752 157.711 190.058 157.963C190.364 158.215 190.559 158.577 190.6 158.972Z" fill="#1890ff"/>
<path d="M204.662 146.92C204.69 147.315 204.561 147.706 204.304 148.007C204.046 148.309 203.681 148.497 203.286 148.532C202.891 148.566 202.498 148.445 202.192 148.192C201.886 147.94 201.691 147.578 201.65 147.184C201.622 146.788 201.751 146.398 202.008 146.096C202.266 145.794 202.631 145.606 203.026 145.571C203.421 145.537 203.814 145.659 204.12 145.911C204.426 146.163 204.621 146.525 204.662 146.92Z" fill="#1890ff"/>
<path d="M226.4 194.93H226.366C221.057 194.586 216.046 192.358 212.234 188.648C212.163 188.578 212.123 188.482 212.122 188.382C212.121 188.283 212.16 188.187 212.23 188.116C212.3 188.045 212.395 188.004 212.495 188.003C212.595 188.003 212.691 188.042 212.762 188.112C216.451 191.698 221.298 193.849 226.432 194.18C226.527 194.189 226.615 194.235 226.678 194.308C226.741 194.38 226.774 194.474 226.769 194.57C226.765 194.665 226.725 194.756 226.656 194.823C226.588 194.89 226.496 194.928 226.4 194.93Z" fill="#1890ff"/>
<path d="M389.676 369.55H179.022C179.98 369.057 180.8 368.332 181.408 367.442C182.015 366.552 182.391 365.524 182.5 364.452C182.73 360.674 184.05 357.043 186.3 354C186.522 353.734 186.756 353.472 186.988 353.21C188.134 352.175 188.963 350.837 189.379 349.35C189.796 347.863 189.783 346.289 189.342 344.81C188.851 342.733 188.975 340.559 189.698 338.552C194.028 337.642 197.26 336.21 197.286 334.036L208.886 219.416L228.944 249.952C231.898 254.489 236.509 257.692 241.791 258.879C247.074 260.065 252.611 259.14 257.222 256.302L308.556 224.938C308.949 224.61 309.271 224.204 309.5 223.746C309.729 223.288 309.861 222.787 309.888 222.276C310.39 217.438 305.202 208.766 299.768 202.208L300.892 201.096C302.865 199.361 305.279 198.207 307.868 197.76C315.006 196.56 329.936 190.882 340.668 184.176C340.89 184.038 340.97 183.72 340.49 183.426C333.516 179.16 313.59 177.112 298.954 177.662C297.444 177.715 296.002 178.304 294.886 179.324L245.86 223.906C244.952 218.906 238.508 187.802 217.492 179.306C217.538 171.947 218.378 164.615 220 157.438L286.818 106.694C287.338 106.187 287.697 105.539 287.851 104.83C288.005 104.121 287.946 103.382 287.682 102.706C290.781 100.611 294.108 98.8737 297.598 97.5276C299.436 96.6936 301.264 95.1276 300.22 93.4156C301.42 92.3136 301.766 91.1336 300.542 90.0376C300.745 89.6837 300.842 89.2788 300.821 88.8713C300.8 88.4638 300.662 88.071 300.424 87.7396C299.996 87.2069 299.459 86.7719 298.849 86.4642C298.239 86.1564 297.571 85.983 296.888 85.9556C307.39 82.5356 308.174 82.2196 307.888 81.5396C307.456 80.5296 299.428 80.5396 291.398 83.2256C292.224 81.9676 295.224 77.3476 293.76 77.0356C292.56 76.7816 283.408 83.2636 276.772 87.7616C276.213 87.3122 275.533 87.0379 274.819 86.9731C274.104 86.9084 273.387 87.056 272.756 87.3976C272.204 87.8196 217.576 129.462 213.524 131.598C207.136 134.95 203.404 132.726 202.496 126.108C203.078 125.832 203.578 125.408 203.946 124.88C204.358 125.481 204.94 125.947 205.618 126.218C206.295 126.488 207.038 126.552 207.751 126.4C208.465 126.248 209.117 125.888 209.626 125.365C210.135 124.841 210.476 124.179 210.608 123.462C211.251 123.758 211.966 123.863 212.666 123.762C213.367 123.662 214.024 123.361 214.558 122.896C215.091 122.431 215.48 121.822 215.675 121.142C215.871 120.461 215.865 119.739 215.66 119.062C216.385 119.031 217.085 118.785 217.67 118.356C218.255 117.926 218.699 117.332 218.945 116.649C219.191 115.966 219.227 115.225 219.051 114.521C218.874 113.817 218.491 113.181 217.952 112.696C218.497 112.408 218.962 111.989 219.305 111.476C219.648 110.963 219.857 110.373 219.915 109.759C219.972 109.146 219.876 108.527 219.635 107.96C219.393 107.392 219.014 106.894 218.532 106.51C218.894 106.08 219.124 105.554 219.192 104.996C219.744 105.432 220.436 105.652 221.139 105.615C221.842 105.577 222.507 105.285 223.01 104.792C223.512 104.3 223.818 103.641 223.87 102.939C223.921 102.237 223.715 101.54 223.29 100.98C223.995 100.906 224.648 100.575 225.125 100.051C225.603 99.5268 225.87 98.8454 225.877 98.1365C225.885 97.4276 225.631 96.7409 225.164 96.2071C224.698 95.6733 224.051 95.3296 223.348 95.2416C223.792 94.6939 224.021 94.0027 223.992 93.298C223.962 92.5932 223.676 91.9236 223.187 91.4152C222.698 90.9067 222.041 90.5944 221.338 90.537C220.635 90.4796 219.935 90.6811 219.37 91.1036C219.267 90.3922 218.913 89.7413 218.37 89.2693C217.828 88.7974 217.135 88.5358 216.416 88.5322C215.697 88.5285 215.001 88.7831 214.454 89.2495C213.907 89.716 213.546 90.3633 213.436 91.0736C212.878 90.6337 212.178 90.4149 211.468 90.459C210.759 90.5032 210.091 90.8072 209.592 91.313C209.093 91.8187 208.798 92.4907 208.763 93.2004C208.729 93.91 208.957 94.6076 209.404 95.1596C208.972 95.2109 208.558 95.3586 208.191 95.592C207.825 95.8254 207.515 96.1383 207.286 96.5076C206.893 95.9452 206.357 95.4975 205.733 95.2105C205.11 94.9234 204.421 94.8073 203.738 94.8741C203.055 94.9408 202.402 95.1881 201.846 95.5904C201.29 95.9927 200.851 96.5357 200.574 97.1636C200.023 96.7067 199.351 96.4201 198.639 96.3388C197.928 96.2576 197.209 96.3852 196.569 96.7061C195.929 97.0271 195.396 97.5274 195.036 98.146C194.676 98.7646 194.503 99.4747 194.54 100.19C193.841 100.068 193.122 100.152 192.47 100.431C191.818 100.71 191.26 101.171 190.865 101.76C190.469 102.348 190.253 103.039 190.241 103.748C190.23 104.457 190.424 105.154 190.8 105.756C190.098 105.961 189.474 106.371 189.005 106.932C188.537 107.493 188.246 108.181 188.169 108.908C188.093 109.635 188.234 110.368 188.575 111.015C188.915 111.661 189.441 112.192 190.084 112.54C189.458 113.093 189.041 113.845 188.902 114.669C188.763 115.493 188.91 116.339 189.32 117.068C187.92 123.75 188.69 129.64 195.32 127.926C195.689 130.105 195.234 132.344 194.044 134.207C192.854 136.07 191.014 137.424 188.882 138.006C186.246 138.958 177.24 142.918 168.844 154.806C169.68 149.68 169.764 149.5 169.756 149.3C169.824 147.9 167.556 146.786 165.128 146.244C165.258 144.644 165.372 142.922 165.41 141.332C165.554 135.12 165.148 133.496 163.45 130.332C161.968 127.536 160.175 124.916 158.106 122.522C156.936 121.478 154.248 121.212 151.876 120.984C149.768 120.784 149.224 121.36 148.842 122.814C147.597 122.143 146.221 121.751 144.81 121.664C144.409 121.639 144.01 121.737 143.667 121.945C143.323 122.153 143.051 122.46 142.886 122.826C142.721 123.193 142.672 123.6 142.744 123.995C142.817 124.39 143.008 124.754 143.292 125.038C143.04 125.248 142.833 125.508 142.683 125.8C142.533 126.092 142.443 126.411 142.418 126.739C142.393 127.066 142.435 127.396 142.539 127.707C142.644 128.018 142.81 128.306 143.028 128.552C142.751 128.774 142.527 129.056 142.373 129.377C142.219 129.698 142.139 130.049 142.139 130.405C142.139 130.76 142.219 131.111 142.373 131.432C142.527 131.753 142.751 132.035 143.028 132.258C142.736 132.509 142.508 132.827 142.363 133.185C142.219 133.542 142.162 133.929 142.198 134.314C142.233 134.698 142.36 135.068 142.568 135.393C142.776 135.718 143.058 135.988 143.392 136.182C144.69 137.02 146.176 137.524 147.716 137.648C149.738 137.648 150.702 135.918 148.886 134.32C150.67 134.034 151.376 132.43 149.714 130.852C150.412 130.912 151.072 130.312 151.678 129.052C151.598 130.397 151.87 131.741 152.468 132.949C153.067 134.157 153.971 135.188 155.09 135.94C155.131 135.967 155.177 135.987 155.225 135.997C155.274 136.007 155.324 136.007 155.372 135.997C155.421 135.988 155.467 135.969 155.508 135.942C155.55 135.915 155.585 135.88 155.613 135.839C155.641 135.798 155.66 135.752 155.67 135.703C155.68 135.655 155.68 135.605 155.671 135.556C155.661 135.508 155.643 135.461 155.615 135.42C155.588 135.379 155.553 135.343 155.512 135.316C152.712 133.418 151.832 130.25 152.836 125.632C152.857 125.535 152.84 125.434 152.787 125.35C152.735 125.267 152.651 125.207 152.555 125.184C152.459 125.162 152.357 125.178 152.273 125.229C152.189 125.281 152.128 125.364 152.104 125.46C150.954 130.082 149.906 130.1 149.8 130.082C149.47 130.048 149.148 129.432 149.126 128.79C149.033 126.792 149.204 124.791 149.634 122.838C149.88 121.982 150.082 121.544 151.682 121.698C156.226 122.138 157.106 122.598 157.628 123.064C159.627 125.405 161.361 127.96 162.8 130.682C164.334 133.542 164.818 134.998 164.672 141.308C164.594 144.67 164.092 149.334 163.966 151.032C158.927 151.469 153.852 151.2 148.888 150.232C149.593 146.987 150.096 143.702 150.394 140.396C150.294 140.56 150.194 140.72 150.082 140.878C150.042 140.937 149.985 140.984 149.918 141.012C149.852 141.04 149.779 141.048 149.708 141.036C149.508 141 149.94 140.38 149.044 145.198C144.984 145.528 142.95 146.358 142.956 147.672C143.03 167.002 143 177.582 143.238 184.16C143.285 186.82 144.108 189.409 145.606 191.607C147.105 193.806 149.213 195.519 151.672 196.535C154.132 197.551 156.834 197.826 159.448 197.326C162.061 196.826 164.471 195.573 166.382 193.722C172.693 187.697 178.517 181.183 183.8 174.24C184.632 176.664 185.584 179.284 186.638 182.04C186.59 182.24 149.96 334.204 149.98 334.004C149.98 338.804 165.38 339.744 170.22 339.894C169.306 345.074 166.56 356.106 165.69 360.334C162.76 360.439 159.917 361.356 157.478 362.982C155.04 364.609 153.101 366.881 151.878 369.546H10.43C10.3303 369.546 10.2346 369.585 10.1641 369.656C10.0936 369.726 10.054 369.822 10.054 369.922C10.054 370.506 -6.81802 370.298 389.676 370.298C389.768 370.288 389.854 370.245 389.916 370.175C389.979 370.106 390.013 370.017 390.013 369.924C390.013 369.831 389.979 369.741 389.916 369.672C389.854 369.603 389.768 369.559 389.676 369.55ZM144.8 122.404C146.168 122.493 147.497 122.89 148.69 123.566C148.54 124.432 148.443 125.306 148.4 126.184C147.129 126.014 145.888 125.668 144.714 125.154C143.096 124.506 143.114 122.342 144.8 122.404ZM143.88 125.55C145.277 126.287 146.799 126.757 148.368 126.938C148.226 127.957 148.322 128.994 148.65 129.97C147.091 129.98 145.563 129.527 144.262 128.668C142.898 127.744 142.902 126.126 143.876 125.55H143.88ZM149.08 136.236C148.906 136.72 148.132 136.982 147.28 136.836C146.048 136.643 144.87 136.197 143.818 135.528C143.57 135.394 143.361 135.199 143.21 134.961C143.059 134.724 142.972 134.451 142.957 134.17C142.942 133.889 142.999 133.608 143.124 133.356C143.248 133.103 143.436 132.887 143.668 132.728C144.861 133.467 146.177 133.985 147.554 134.258C148.908 135.082 149.232 135.812 149.08 136.236ZM149.88 132.886C149.654 133.45 148.748 133.73 147.772 133.538C146.4 133.275 145.091 132.75 143.918 131.992C142.646 131.096 142.644 129.592 143.584 129.096C144.992 130.105 146.665 130.678 148.396 130.744C149.552 131.51 150.106 132.306 149.874 132.882L149.88 132.886ZM282.48 191.806C289.232 186.528 314.756 219.028 308.102 224.34L301.468 228.392C302.9 221.5 282.908 198.192 275.692 197.944L282.48 191.806ZM300.574 91.6056C300.43 92.0908 300.146 92.5228 299.758 92.8476C298.964 92.2852 298.054 91.9071 297.096 91.741C296.137 91.5749 295.153 91.625 294.216 91.8876C288.438 91.1296 296.202 87.8676 299.78 90.3816C299.954 90.5756 300.646 90.9596 300.56 91.5976L300.574 91.6056ZM299.822 88.1656C299.973 88.3696 300.064 88.6112 300.086 88.8639C300.109 89.1166 300.061 89.3705 299.948 89.5976C298.262 88.7093 296.315 88.4519 294.456 88.8716C293.028 88.4956 292.64 88.0336 292.64 87.8156C292.622 86.8156 298.186 85.7336 299.8 88.1576L299.822 88.1656ZM293.44 77.8376C292.621 79.9191 291.531 81.884 290.2 83.6816C290.094 83.7913 290.024 83.931 290 84.0816C290 84.1396 289.904 89.8816 286.38 89.9796C286.28 89.9796 286.185 90.0193 286.114 90.0898C286.044 90.1603 286.004 90.2559 286.004 90.3556C286.004 90.4554 286.044 90.551 286.114 90.6215C286.185 90.692 286.28 90.7316 286.38 90.7316C290.302 90.6796 290.7 85.2696 290.738 84.2476C295.82 82.3513 301.235 81.5129 306.652 81.7836C303.964 82.9516 299.064 84.3836 293.478 86.3156C291.324 87.0576 291.438 88.4436 293.14 89.2096C291 90.0096 290.662 91.6656 292.814 92.3516C291.884 93.0456 292.138 94.6516 294.644 95.1676C294.835 95.5931 294.904 96.0632 294.844 96.5256C294.831 96.6246 294.858 96.7245 294.919 96.8035C294.98 96.8824 295.07 96.9339 295.169 96.9466C295.268 96.9594 295.368 96.9323 295.447 96.8713C295.526 96.8104 295.577 96.7206 295.59 96.6216C295.643 96.1776 295.615 95.7278 295.508 95.2936C295.947 95.3304 296.388 95.3411 296.828 95.3256C296.877 95.3241 296.926 95.3128 296.971 95.2925C297.016 95.2721 297.057 95.2431 297.09 95.2071C297.124 95.1711 297.151 95.1287 297.168 95.0825C297.185 95.0362 297.194 94.987 297.192 94.9376C297.187 94.8386 297.144 94.7454 297.071 94.6776C296.999 94.6097 296.903 94.5725 296.804 94.5736C293.29 94.6836 292.336 93.1456 293.634 92.7736C298.634 91.3736 302.47 94.4776 297.292 96.8296C293.85 98.1639 290.564 99.87 287.492 101.918C285.512 96.4897 282.041 91.7302 277.478 88.1856C280.052 86.4476 291.4 78.5516 293.426 77.8296L293.44 77.8376ZM206.36 133.572C207.639 133.86 208.962 133.892 210.253 133.667C211.544 133.441 212.777 132.961 213.882 132.256C218 130.1 270.968 89.7136 273.214 88.0016C275.2 86.5576 279.664 90.4356 282.854 94.8196C286.044 99.2036 288.362 104.646 286.374 106.092L226.724 151.392L220.544 152.884C220.479 152.902 220.42 152.937 220.373 152.985C220.325 153.033 220.291 153.092 220.274 153.158C217.983 161.622 216.793 170.347 216.734 179.116C210.698 178.175 204.56 178.073 198.496 178.812C195.558 164.6 195.21 152.826 197.426 142.846C201.076 143.302 204.652 136.854 206.36 133.572ZM196.186 129.146C197.068 127.962 197.528 127.378 197.742 127.052C198.06 126.568 197.762 126.282 197.424 126.358C196.732 126.686 196.012 126.953 195.274 127.158C189.406 128.758 188.634 123.718 190.092 117.088C190.672 114.446 192.034 109.23 194.748 109.334C196.818 109.416 199.016 112.792 199.458 115.534C199.463 115.564 199.471 115.595 199.482 115.624C199.54 115.804 199.716 116.36 200.22 116.46C200.694 116.554 201.22 116.228 201.946 115.364C203.88 113.09 206.326 116.81 202.21 119.964C201.684 120.364 201.554 122.676 201.596 124.154L201.722 125.914C202.036 128.542 202.98 131.902 205.666 133.284C200.866 142.5 196.534 146.084 193.3 136.264C194.256 135.348 195.008 134.24 195.505 133.014C196.002 131.787 196.234 130.469 196.186 129.146ZM143.698 148.924C147.844 152.454 165.098 152.806 168.786 150.622C168.328 153.326 167.744 156.952 167.324 159.554C160.524 162.248 147.124 161.544 143.642 157.312C143.654 154.722 143.672 151.932 143.698 148.924ZM183.312 149.464C183.354 149.373 183.359 149.27 183.325 149.176C183.291 149.082 183.221 149.005 183.131 148.963C183.041 148.92 182.937 148.915 182.843 148.949C182.749 148.983 182.672 149.053 182.63 149.144C180.14 154.442 177.866 156.586 183.508 173.382C178.167 180.445 172.266 187.066 165.862 193.182C164.054 194.931 161.775 196.113 159.304 196.583C156.833 197.053 154.279 196.79 151.955 195.827C149.632 194.863 147.641 193.242 146.227 191.161C144.814 189.081 144.04 186.633 144 184.118C143.814 178.888 143.6 171.118 143.648 158.4C148.284 162.664 161.034 162.63 167.196 160.41C166.056 167.462 164.78 175.35 164.18 178.09C164.158 178.187 164.177 178.289 164.23 178.374C164.284 178.458 164.369 178.517 164.467 178.539C164.565 178.56 164.667 178.542 164.751 178.488C164.835 178.434 164.895 178.349 164.916 178.252C165.656 174.876 167.544 162.972 168.584 156.532C177.102 143.814 186.486 139.676 189.162 138.71C190.437 138.266 191.631 137.617 192.696 136.788C193.828 140.112 195.148 142.046 196.708 142.658C194.464 152.738 194.806 164.606 197.758 178.914C194.177 179.42 190.658 180.299 187.26 181.538C178.288 157.986 180.358 155.726 183.312 149.464ZM187.35 182.302C196.857 178.999 207.048 178.173 216.962 179.902C239.514 188.712 245.162 224.344 245.224 224.702C245.27 225.018 245.402 225.468 246.106 224.842C247.72 223.41 257.362 214.914 274.464 199.042C276.492 197.162 283.702 202.378 291.028 210.938C298.354 219.498 302.3 227.304 300.228 229.138L256.816 255.66C252.373 258.399 247.035 259.292 241.942 258.149C236.849 257.007 232.405 253.918 229.558 249.544C200.626 205.512 202.402 207.854 201.936 208.008C201.402 208.186 201.474 207.808 207.462 225.84L197.54 323.982C197.212 325.488 188.97 327.014 175.364 327.014C161.574 327.014 153.294 325.448 153.178 323.922L187.35 182.302ZM150.736 334.046L152.936 324.91C157.174 328.62 191.838 328.73 197.418 325.132L196.524 334.002C196.524 336.698 188.982 338.002 186.298 338.382C182.093 338.947 177.853 339.22 173.61 339.2C160.622 339.226 150.816 336.986 150.736 334.046Z" fill="#1890ff"/>
<path d="M120.132 237.182H111.732V228.782C111.732 228.682 111.692 228.586 111.622 228.516C111.551 228.445 111.456 228.406 111.356 228.406C111.256 228.406 111.161 228.445 111.09 228.516C111.02 228.586 110.98 228.682 110.98 228.782V237.182H102.58C102.48 237.182 102.385 237.221 102.314 237.292C102.244 237.362 102.204 237.458 102.204 237.558C102.204 237.657 102.244 237.753 102.314 237.824C102.385 237.894 102.48 237.934 102.58 237.934H110.98V246.334C110.98 246.433 111.02 246.529 111.09 246.6C111.161 246.67 111.256 246.71 111.356 246.71C111.456 246.71 111.551 246.67 111.622 246.6C111.692 246.529 111.732 246.433 111.732 246.334V237.934H120.132C120.232 237.934 120.327 237.894 120.398 237.824C120.468 237.753 120.508 237.657 120.508 237.558C120.508 237.458 120.468 237.362 120.398 237.292C120.327 237.221 120.232 237.182 120.132 237.182Z" fill="#1890ff"/>
<path d="M341.364 155.098L336.692 154.418L334.6 150.186C334.564 150.129 334.514 150.082 334.455 150.049C334.396 150.017 334.329 150 334.262 150C334.195 150 334.128 150.017 334.069 150.049C334.01 150.082 333.96 150.129 333.924 150.186L331.836 154.418L327.164 155.098C327.096 155.11 327.032 155.14 326.98 155.186C326.927 155.232 326.889 155.291 326.868 155.358C326.847 155.424 326.845 155.495 326.862 155.562C326.879 155.63 326.914 155.691 326.964 155.74L330.344 159.034L329.544 163.686C329.535 163.74 329.538 163.795 329.552 163.848C329.567 163.901 329.593 163.95 329.628 163.992C329.664 164.034 329.708 164.067 329.757 164.09C329.807 164.113 329.861 164.126 329.916 164.126C331.421 163.49 332.876 162.741 334.268 161.886L338.446 164.086C338.508 164.119 338.579 164.134 338.649 164.128C338.72 164.123 338.787 164.099 338.844 164.057C338.901 164.015 338.945 163.958 338.972 163.892C338.998 163.827 339.005 163.755 338.992 163.686L338.192 159.034L341.572 155.74C341.622 155.691 341.658 155.629 341.675 155.56C341.692 155.492 341.69 155.421 341.668 155.354C341.646 155.287 341.606 155.228 341.553 155.182C341.499 155.137 341.434 155.108 341.364 155.098ZM337.526 158.632C337.326 158.832 337.372 158.706 338.126 163.062C336.896 162.3 335.607 161.639 334.272 161.084C332.938 161.64 331.65 162.301 330.42 163.062C331.17 158.692 331.22 158.83 331.02 158.632L328.044 155.734L332.156 155.134C332.43 155.092 332.308 155.192 334.278 151.202C336.242 155.18 336.122 155.092 336.4 155.134L340.514 155.734L337.526 158.632Z" fill="#1890ff"/>
<path d="M75 100.996H71.6C70.8559 100.991 70.1438 100.693 69.6191 100.165C69.0945 99.6376 68.8 98.9237 68.8 98.1796V94.7796C68.7931 94.6849 68.7506 94.5963 68.681 94.5317C68.6114 94.467 68.52 94.431 68.425 94.431C68.33 94.431 68.2386 94.467 68.169 94.5317C68.0994 94.5963 68.0569 94.6849 68.05 94.7796V98.1796C68.05 98.5493 67.9772 98.9154 67.8356 99.257C67.6941 99.5985 67.4866 99.9088 67.2251 100.17C66.9636 100.431 66.6531 100.639 66.3115 100.78C65.9699 100.921 65.6037 100.994 65.234 100.994H61.834C61.7343 100.994 61.6386 101.033 61.5681 101.104C61.4976 101.174 61.458 101.27 61.458 101.37C61.458 101.469 61.4976 101.565 61.5681 101.636C61.6386 101.706 61.7343 101.746 61.834 101.746H65.234C65.979 101.749 66.6923 102.047 67.2182 102.575C67.744 103.102 68.0395 103.817 68.04 104.562V107.962C68.04 108.061 68.0796 108.157 68.1501 108.228C68.2207 108.298 68.3163 108.338 68.416 108.338C68.5157 108.338 68.6114 108.298 68.6819 108.228C68.7524 108.157 68.792 108.061 68.792 107.962V104.562C68.7931 103.817 69.089 103.102 69.6152 102.575C70.1415 102.048 70.8551 101.75 71.6 101.748H75C75.0997 101.748 75.1954 101.708 75.2659 101.638C75.3364 101.567 75.376 101.471 75.376 101.372C75.376 101.272 75.3364 101.176 75.2659 101.106C75.1954 101.035 75.0997 100.996 75 100.996ZM68.418 102.97C68.0705 102.278 67.5094 101.717 66.818 101.37C67.51 101.023 68.0713 100.462 68.418 99.7696C68.7655 100.461 69.3266 101.022 70.018 101.37C69.3258 101.717 68.764 102.278 68.416 102.97H68.418Z" fill="#1890ff"/>
<path d="M236.2 42.9316C235.91 42.9316 236.35 43.4336 230.39 35.0356C230.332 34.9542 230.309 34.8532 230.326 34.7547C230.342 34.6563 230.398 34.5685 230.479 34.5106C230.56 34.4528 230.661 34.4297 230.76 34.4464C230.858 34.4631 230.946 34.5182 231.004 34.5996L236.156 41.8576L242.286 31.1476C242.336 31.0609 242.418 30.9974 242.514 30.9712C242.61 30.9449 242.713 30.958 242.8 31.0076C242.887 31.0572 242.95 31.1393 242.976 31.2356C243.003 31.332 242.99 31.4349 242.94 31.5216C236 43.6356 236.506 42.9236 236.2 42.9316Z" fill="#1890ff"/>
</svg>
