<svg width="400" height="401" viewBox="0 0 400 401" fill="none" xmlns="http://www.w3.org/2000/svg">
<path d="M345.438 259.082C347.502 260.375 349.643 261.543 351.848 262.578C352.194 262.578 351.698 263.25 358.622 250.748C358.67 250.66 358.681 250.558 358.653 250.462C358.626 250.366 358.561 250.286 358.474 250.238C351.732 246.504 352.176 246.694 351.96 246.756C351.744 246.818 352.16 246.156 345.29 258.57C345.242 258.657 345.231 258.76 345.258 258.856C345.286 258.952 345.351 259.033 345.438 259.082ZM352.21 247.628L357.782 250.714L351.702 261.692L346.13 258.606L352.21 247.628Z" fill="#1890ff"/>
<path d="M337.446 254.644C339.508 255.942 341.65 257.111 343.858 258.142C344.202 258.142 343.706 258.816 350.63 246.312C350.678 246.225 350.69 246.122 350.662 246.027C350.635 245.931 350.571 245.85 350.484 245.802L344.254 242.352C344.211 242.328 344.164 242.312 344.115 242.307C344.066 242.301 344.016 242.305 343.969 242.319C343.921 242.332 343.877 242.355 343.838 242.386C343.8 242.416 343.768 242.454 343.744 242.498L337.298 254.134C337.25 254.221 337.239 254.324 337.266 254.419C337.294 254.515 337.359 254.596 337.446 254.644Z" fill="#1890ff"/>
<path d="M329.454 250.22C331.517 251.517 333.658 252.684 335.866 253.716C336.21 253.716 335.74 254.404 342.638 241.888C342.686 241.8 342.698 241.697 342.67 241.602C342.643 241.506 342.579 241.424 342.492 241.376C335.708 237.62 336.192 237.834 335.976 237.892C335.76 237.95 336.166 237.322 329.308 249.708C329.284 249.751 329.269 249.798 329.263 249.847C329.257 249.897 329.261 249.946 329.275 249.994C329.288 250.041 329.311 250.086 329.342 250.125C329.373 250.163 329.411 250.196 329.454 250.22ZM336.226 238.766L341.798 241.852L335.718 252.828L330.148 249.744L336.226 238.766Z" fill="#1890ff"/>
<path d="M374.948 215.528C374.945 215.428 374.903 215.333 374.831 215.264C374.759 215.195 374.662 215.157 374.562 215.16L302.076 216.728C295.328 210.628 287.475 205.875 278.94 202.728C278.848 202.701 278.749 202.71 278.664 202.753C278.578 202.796 278.512 202.87 278.479 202.96C278.446 203.05 278.449 203.149 278.486 203.237C278.523 203.326 278.592 203.397 278.68 203.436C290.71 207.865 301.316 215.47 309.371 225.443C317.426 235.417 322.629 247.385 324.427 260.078C326.226 272.771 324.553 285.714 319.586 297.533C314.619 309.351 306.543 319.603 296.217 327.2C285.891 334.797 273.7 339.456 260.939 340.68C248.178 341.905 235.323 339.65 223.741 334.156C212.158 328.661 202.28 320.132 195.156 309.474C188.032 298.816 183.928 286.427 183.28 273.624C183.277 273.574 183.265 273.526 183.244 273.481C183.223 273.437 183.193 273.396 183.156 273.363C183.12 273.33 183.077 273.305 183.03 273.288C182.984 273.271 182.934 273.264 182.885 273.267C182.836 273.269 182.787 273.281 182.742 273.303C182.698 273.324 182.658 273.354 182.625 273.39C182.591 273.427 182.566 273.47 182.549 273.516C182.533 273.563 182.525 273.612 182.528 273.662C183.042 283.817 185.71 293.748 190.355 302.794C195 311.839 201.517 319.794 209.471 326.128C217.426 332.463 226.637 337.034 236.493 339.536C246.348 342.039 256.624 342.417 266.637 340.645C276.65 338.872 286.172 334.991 294.57 329.257C302.968 323.523 310.051 316.069 315.348 307.389C320.645 298.709 324.035 289.001 325.293 278.91C326.552 268.82 325.649 258.577 322.646 248.862C354.222 266.35 353.004 265.732 353.206 265.732C353.526 265.732 352.806 266.862 362.028 250.202C362.076 250.114 362.088 250.011 362.06 249.916C362.033 249.82 361.969 249.738 361.882 249.69L334.128 234.32C377.646 233.38 375.032 233.52 375.224 233.32C375.416 233.12 375.33 234.082 374.948 215.528ZM316.5 234.704L324.972 234.522L320.424 242.732C319.282 239.977 317.972 237.296 316.5 234.704ZM320.788 243.63L325.842 234.502L327.302 234.472L321.38 245.166C321.188 244.65 321 244.14 320.788 243.63ZM328.172 234.452C328.536 234.452 327.83 234.116 333.806 237.426L327.726 248.402L322.156 245.318L328.172 234.452ZM361.186 250.172L353.056 264.848L322.31 247.82C322.098 247.176 321.877 246.534 321.646 245.896L327.692 249.244C327.78 249.292 327.883 249.303 327.978 249.275C328.074 249.247 328.155 249.183 328.204 249.096L334.646 237.462C334.67 237.418 334.685 237.371 334.691 237.322C334.697 237.273 334.693 237.223 334.679 237.175C334.666 237.128 334.643 237.083 334.612 237.045C334.581 237.006 334.543 236.974 334.5 236.95L329.922 234.414L332.63 234.356L361.186 250.172ZM316.072 233.962C312.502 227.846 308.055 222.288 302.872 217.464L374.2 215.922L374.562 232.698L316.072 233.962Z" fill="#1890ff"/>
<path d="M371.888 217.336C364.616 217.432 364.698 217.404 364.506 217.604C364.314 217.804 364.404 217.182 364.69 231.17C364.692 231.268 364.733 231.362 364.803 231.43C364.873 231.499 364.968 231.538 365.066 231.538L372.192 231.386C372.292 231.383 372.387 231.341 372.456 231.269C372.525 231.196 372.562 231.1 372.56 231L372.272 217.704C372.267 217.605 372.224 217.512 372.153 217.443C372.082 217.375 371.987 217.337 371.888 217.336Z" fill="#1890ff"/>
<path d="M363.024 217.638C362.824 217.438 363.012 217.52 355.636 217.686C355.587 217.687 355.538 217.697 355.493 217.717C355.447 217.737 355.407 217.766 355.372 217.801C355.338 217.837 355.311 217.879 355.293 217.925C355.276 217.971 355.267 218.02 355.268 218.07L355.556 231.368C355.558 231.466 355.599 231.56 355.669 231.628C355.739 231.697 355.834 231.736 355.932 231.736L363.058 231.582C363.107 231.581 363.156 231.57 363.201 231.55C363.246 231.53 363.287 231.502 363.321 231.466C363.356 231.43 363.382 231.388 363.4 231.342C363.418 231.296 363.427 231.247 363.426 231.198C363.138 217.202 363.224 217.826 363.024 217.638Z" fill="#1890ff"/>
<path d="M353.89 217.834C353.69 217.634 353.964 217.734 346.502 217.884C346.453 217.885 346.404 217.895 346.359 217.915C346.313 217.935 346.273 217.964 346.238 217.999C346.204 218.035 346.177 218.077 346.159 218.123C346.142 218.169 346.133 218.218 346.134 218.268L346.422 231.564C346.424 231.662 346.465 231.756 346.535 231.824C346.605 231.893 346.7 231.932 346.798 231.932L353.926 231.78C354.025 231.777 354.12 231.735 354.189 231.663C354.258 231.591 354.296 231.495 354.294 231.396C354 217.416 354.09 218.026 353.89 217.834ZM347.166 231.174L346.896 218.628L353.262 218.49L353.534 231.036L347.166 231.174Z" fill="#1890ff"/>
<path d="M344.488 217.928C337.218 218.084 337.302 217.994 337.106 218.196C336.91 218.398 336.972 217.758 337.288 231.764C337.291 231.862 337.331 231.955 337.401 232.024C337.472 232.092 337.566 232.131 337.664 232.132L344.792 231.976C344.891 231.974 344.986 231.932 345.055 231.861C345.124 231.789 345.162 231.693 345.16 231.594L344.872 218.296C344.864 218.198 344.821 218.106 344.75 218.039C344.679 217.971 344.586 217.931 344.488 217.928ZM338.034 231.37L337.762 218.826L344.128 218.688L344.4 231.232L338.034 231.37Z" fill="#1890ff"/>
<path d="M335.622 218.228C335.422 218.028 335.622 218.112 328.236 218.278C328.136 218.28 328.042 218.322 327.973 218.394C327.904 218.466 327.866 218.562 327.868 218.662L328.156 231.96C328.158 232.058 328.199 232.152 328.269 232.22C328.339 232.289 328.434 232.328 328.532 232.328L335.658 232.174C335.758 232.172 335.853 232.13 335.922 232.058C335.992 231.986 336.03 231.89 336.028 231.79C335.738 217.81 335.824 218.422 335.622 218.228ZM328.9 231.568L328.628 219.022L334.996 218.886L335.266 231.43L328.9 231.568Z" fill="#1890ff"/>
<path d="M250.302 243.458C250.102 243.458 250.064 243.402 236.758 238.458C236.664 238.423 236.588 238.352 236.547 238.262C236.505 238.171 236.501 238.067 236.536 237.974C236.571 237.88 236.641 237.804 236.732 237.762C236.823 237.721 236.926 237.717 237.02 237.752L250.434 242.734C250.514 242.766 250.58 242.825 250.622 242.901C250.663 242.977 250.677 243.064 250.662 243.149C250.646 243.234 250.602 243.311 250.537 243.367C250.471 243.423 250.388 243.455 250.302 243.458Z" fill="#1890ff"/>
<path d="M194.72 222.04C128.184 197.376 132.664 198.928 132.446 199.04C132.228 199.152 132.496 198.586 129.514 206.616C129.275 206.145 128.906 205.752 128.452 205.484L107.83 193.202C107.219 192.839 106.493 192.725 105.8 192.882L76.4179 196.742C76.4517 196.646 76.4483 196.542 76.4082 196.449C76.3681 196.356 76.2944 196.282 76.202 196.242L74.9019 195.758L124.084 152.706C124.73 153.299 125.579 153.622 126.455 153.609C127.332 153.596 128.171 153.247 128.799 152.635C129.427 152.022 129.796 151.193 129.831 150.316C129.866 149.44 129.564 148.584 128.987 147.923C128.411 147.263 127.603 146.848 126.73 146.765C125.857 146.681 124.985 146.936 124.293 147.475C123.602 148.015 123.144 148.799 123.012 149.666C122.881 150.533 123.087 151.418 123.588 152.138L74.0959 195.454C71.3839 194.454 70.33 194.038 69.882 193.89C69.568 193.788 69.4199 193.754 69.2819 194.09C69.0819 194.536 68.5859 195.936 66.882 200.508C66.8476 200.601 66.8517 200.705 66.8933 200.795C66.9348 200.886 67.0106 200.957 67.1039 200.992L67.5759 201.166L15.6559 246.602C14.9922 246.028 14.1337 245.73 13.257 245.769C12.3803 245.808 11.552 246.182 10.9423 246.813C10.3326 247.444 9.98792 248.285 9.97906 249.163C9.97019 250.04 10.2978 250.888 10.8946 251.531C11.4914 252.175 12.312 252.565 13.1878 252.622C14.0635 252.679 14.9278 252.399 15.6031 251.838C16.2783 251.278 16.7131 250.48 16.8182 249.608C16.9233 248.737 16.6906 247.859 16.1679 247.154L68.3679 201.466C72.8099 203.114 73.4679 203.408 73.6699 203.408C73.7467 203.407 73.8216 203.384 73.8848 203.341C73.948 203.297 73.9965 203.235 74.0239 203.164L74.0399 203.116L93.7239 225.406C94.1533 225.98 94.7869 226.368 95.4939 226.49L119.118 230.632C119.633 230.723 120.163 230.668 120.648 230.472L117.736 238.312C117.718 238.358 117.71 238.407 117.712 238.457C117.713 238.506 117.725 238.555 117.745 238.6C117.765 238.645 117.795 238.685 117.831 238.719C117.867 238.752 117.91 238.779 117.956 238.796C165.946 256.63 164.556 256.152 164.756 256.152C164.844 256.152 164.929 256.121 164.997 256.064C165.064 256.008 165.11 255.929 165.126 255.843C165.141 255.756 165.126 255.667 165.083 255.59C165.039 255.514 164.97 255.455 164.888 255.424L118.568 238.224C118.568 238.224 121.788 230.002 125.82 219.138C173.918 237 173.266 236.808 173.466 236.808C173.554 236.806 173.638 236.775 173.705 236.718C173.772 236.661 173.817 236.583 173.832 236.497C173.848 236.411 173.833 236.322 173.79 236.245C173.748 236.169 173.68 236.11 173.598 236.078L126.08 218.432C129.932 208.046 132.816 199.856 132.816 199.856L194.45 222.748C194.544 222.783 194.648 222.78 194.74 222.739C194.831 222.698 194.903 222.623 194.939 222.529C194.975 222.435 194.972 222.33 194.931 222.239C194.89 222.147 194.814 222.075 194.72 222.04ZM74.2459 200.41L71.7079 199.392C71.6293 199.361 71.5427 199.358 71.462 199.383C71.3813 199.407 71.3111 199.458 71.2626 199.527C71.214 199.596 71.19 199.679 71.1942 199.763C71.1985 199.847 71.2308 199.928 71.2859 199.992L73.4859 202.474L73.4579 202.55L67.7179 200.418L69.8439 194.682L75.5839 196.814L75.5699 196.852C73.6179 197.108 72.8619 197.188 72.5419 197.252C72.4552 197.255 72.3723 197.289 72.3074 197.346C72.2426 197.404 72.1996 197.482 72.186 197.568C72.1723 197.654 72.1887 197.742 72.2325 197.817C72.2762 197.892 72.3446 197.949 72.4259 197.98L74.8259 198.828L74.2459 200.41ZM108.752 212.3C108.696 212.515 108.595 212.716 108.456 212.89C108.318 213.064 108.144 213.207 107.947 213.311C107.75 213.414 107.534 213.475 107.312 213.49C107.09 213.505 106.867 213.474 106.658 213.398L74.9459 200.682L75.5459 199.066L107.666 210.364C108.052 210.498 108.376 210.769 108.576 211.126C108.776 211.482 108.839 211.9 108.752 212.3Z" fill="#1890ff"/>
<path d="M305.2 267.138C305.104 266.928 305.786 267.236 292.756 262.398C294.002 259.046 293.998 259.198 293.906 258.988C293.814 258.778 295.62 259.416 266.682 248.762C266.588 248.727 266.485 248.731 266.394 248.772C266.303 248.814 266.233 248.89 266.198 248.984C266.163 249.077 266.167 249.181 266.209 249.272C266.25 249.362 266.326 249.433 266.42 249.468L293.08 259.368L286.2 277.882L253.836 265.862C253.742 265.827 253.639 265.831 253.548 265.872C253.457 265.914 253.387 265.99 253.352 266.084C253.317 266.177 253.321 266.281 253.363 266.372C253.404 266.462 253.48 266.533 253.574 266.568L285.936 278.588L278.83 297.726L187.48 263.81C187.386 263.775 187.283 263.779 187.192 263.82C187.101 263.862 187.031 263.938 186.996 264.032C186.961 264.125 186.965 264.229 187.007 264.32C187.048 264.41 187.124 264.481 187.218 264.516C280.818 299.216 278.844 298.594 279.044 298.594C279.121 298.594 279.196 298.57 279.26 298.526C279.323 298.482 279.371 298.42 279.398 298.348L280.624 295.044C291.696 299.154 292.786 299.608 292.988 299.608C293.065 299.608 293.14 299.585 293.203 299.541C293.267 299.498 293.315 299.436 293.342 299.364C306.01 265.382 305.292 267.354 305.2 267.138Z" fill="#1890ff"/>
<path d="M251.264 265.72L249.606 265.104C249.512 265.069 249.436 264.998 249.395 264.908C249.353 264.817 249.349 264.713 249.384 264.62C249.419 264.526 249.489 264.45 249.58 264.408C249.671 264.367 249.774 264.363 249.868 264.398L251.526 265.014C251.62 265.048 251.696 265.119 251.737 265.21C251.779 265.3 251.783 265.404 251.748 265.498C251.713 265.591 251.643 265.667 251.552 265.709C251.461 265.751 251.358 265.754 251.264 265.72Z" fill="#1890ff"/>
<path d="M247.052 264.156L244.152 263.078C244.065 263.039 243.995 262.968 243.958 262.88C243.921 262.792 243.919 262.693 243.952 262.604C243.985 262.514 244.051 262.44 244.136 262.398C244.222 262.355 244.32 262.346 244.412 262.374L247.314 263.45C247.408 263.484 247.484 263.555 247.525 263.646C247.567 263.736 247.571 263.84 247.536 263.934C247.501 264.027 247.431 264.103 247.34 264.145C247.249 264.186 247.146 264.19 247.052 264.156Z" fill="#1890ff"/>
<path d="M243.712 262.882C243.512 262.882 244.81 263.332 202.374 247.556C202.28 247.521 202.204 247.45 202.163 247.36C202.121 247.269 202.117 247.165 202.152 247.072C202.187 246.978 202.257 246.902 202.348 246.86C202.439 246.819 202.542 246.815 202.636 246.85L243.836 262.154C243.918 262.184 243.986 262.243 244.03 262.318C244.074 262.394 244.089 262.483 244.075 262.569C244.06 262.655 244.016 262.733 243.95 262.79C243.883 262.848 243.799 262.88 243.712 262.882Z" fill="#1890ff"/>
<path d="M278.81 203.082C278.05 200.934 268.99 181.692 266.01 176.27C261.76 168.528 258.268 168.226 254.872 165.036C254.851 165.007 254.832 164.977 254.816 164.946C251.872 164.668 249.022 163.757 246.464 162.274C246.114 162.475 245.742 162.634 245.354 162.746C246.264 164.24 243.806 166.21 241.8 166.512C243.458 166.356 242.748 169.246 240.26 169.68C239.716 169.696 235.426 169.826 233.45 169.862C231.068 175.714 227.34 170.784 227.34 161.632C227.291 159.009 227.673 156.396 228.472 153.898C229.072 152.218 229.872 151.116 230.758 150.898L204.178 153.078C201.535 153.295 199.039 154.386 197.084 156.178C195.129 157.971 193.827 160.363 193.382 162.978C192.937 165.593 193.375 168.281 194.627 170.619C195.879 172.957 197.873 174.812 200.296 175.892L217.938 183.784L215.77 194.358L248.812 209.974L258.326 189.386V201.664L262.526 209.216L251.826 238.594C257.12 242.427 263.437 244.595 269.97 244.822L278.984 217.254C280.488 212.639 280.427 207.658 278.81 203.082Z" fill="#FFE7EA"/>
<path d="M389.612 166.02C383.7 166.206 380.276 159.28 373.102 162.82C369.032 161.488 364.87 160.456 360.65 159.732C354.677 158.736 348.646 158.135 342.594 157.932C333.712 157.732 333.484 159.132 333.408 159.59C333.332 160.048 333.102 161.456 341.584 164.092C347.385 165.83 353.293 167.185 359.272 168.148C363.509 168.794 367.786 169.145 372.072 169.198C377.26 174.13 385.226 172.058 389.918 166.652C389.969 166.596 390.002 166.526 390.013 166.451C390.024 166.376 390.012 166.3 389.979 166.232C389.946 166.164 389.894 166.107 389.828 166.069C389.763 166.032 389.687 166.014 389.612 166.02ZM341.812 163.366C335.596 161.434 334.084 160.126 334.154 159.702C334.224 159.278 336.072 158.52 342.582 158.676C348.999 158.897 355.393 159.565 361.718 160.676L360.586 167.586C354.234 166.616 347.957 165.206 341.8 163.366H341.812ZM361.332 167.688L362.458 160.81C365.923 161.51 369.347 162.401 372.714 163.48L371.904 168.432C368.367 168.377 364.837 168.126 361.328 167.682L361.332 167.688Z" fill="#1890ff"/>
<path d="M351.076 92.3416C349.232 85.8607 345.084 80.2765 339.412 76.6391C333.741 73.0017 326.935 71.5616 320.276 72.5896C314.874 73.3837 309.957 76.15 306.473 80.355C302.99 84.56 301.187 89.9059 301.412 95.3616L292.368 102.082C292.309 102.125 292.264 102.185 292.239 102.254C292.214 102.323 292.209 102.397 292.225 102.469C292.242 102.54 292.279 102.605 292.332 102.656C292.385 102.706 292.452 102.74 292.524 102.754L303.68 104.816C312.182 123.398 338.134 126.596 348.432 110.536C350.127 107.86 351.239 104.856 351.695 101.721C352.151 98.5856 351.94 95.3897 351.076 92.3416ZM347.8 110.128C337.706 125.864 312.36 122.328 304.286 104.328C304.116 104.03 304.804 104.256 293.51 102.17C302.592 95.4196 302.148 95.8876 302.168 95.5296C301.9 90.2239 303.62 85.0089 306.992 80.9036C310.364 76.7984 315.145 74.0978 320.402 73.3296C326.876 72.3331 333.49 73.7339 339.004 77.2692C344.518 80.8044 348.552 86.2309 350.348 92.5296C351.185 95.4771 351.39 98.5681 350.951 101.6C350.512 104.633 349.438 107.539 347.8 110.128Z" fill="#1890ff"/>
<path d="M324.4 99.2436C325.684 95.3676 330.902 94.5956 332.124 90.8436C332.311 90.3366 332.391 89.796 332.357 89.2566C332.324 88.7171 332.178 88.1905 331.929 87.7105C331.681 87.2306 331.335 86.8077 330.913 86.469C330.492 86.1303 330.005 85.8832 329.483 85.7436C328.961 85.6039 328.415 85.5746 327.881 85.6578C327.347 85.7409 326.836 85.9345 326.381 86.2262C325.926 86.518 325.537 86.9015 325.238 87.3522C324.94 87.8028 324.739 88.3108 324.648 88.8436C324.638 88.9019 324.617 88.9578 324.586 89.0079C324.554 89.0581 324.514 89.1016 324.466 89.1359C324.417 89.1703 324.363 89.1948 324.305 89.2082C324.248 89.2215 324.188 89.2233 324.13 89.2136C324.072 89.2039 324.016 89.1828 323.966 89.1515C323.915 89.1202 323.872 89.0794 323.838 89.0313C323.803 88.9832 323.779 88.9288 323.765 88.8712C323.752 88.8136 323.75 88.7539 323.76 88.6956C323.871 88.04 324.118 87.4148 324.485 86.8599C324.852 86.3051 325.33 85.8327 325.889 85.473C326.449 85.1133 327.077 84.8741 327.734 84.7707C328.391 84.6673 329.062 84.7019 329.705 84.8724C330.348 85.0429 330.948 85.3456 331.468 85.761C331.987 86.1764 332.414 86.6955 332.722 87.2852C333.029 87.8749 333.21 88.5222 333.254 89.1858C333.297 89.8495 333.202 90.5149 332.974 91.1396C331.646 95.2316 326.408 96.0576 325.254 99.5396C325.234 99.5957 325.204 99.6474 325.165 99.6918C325.125 99.7361 325.078 99.7723 325.024 99.7982C324.971 99.8241 324.913 99.8393 324.854 99.8428C324.794 99.8463 324.735 99.8381 324.679 99.8186C324.623 99.7992 324.571 99.7689 324.527 99.7295C324.482 99.6901 324.446 99.6423 324.42 99.5889C324.394 99.5355 324.379 99.4775 324.376 99.4183C324.372 99.3591 324.38 99.2997 324.4 99.2436Z" fill="#1890ff"/>
<path d="M323.8 102.898C323.606 102.823 323.399 102.787 323.192 102.793C322.984 102.798 322.78 102.845 322.59 102.931C322.401 103.016 322.23 103.138 322.089 103.29C321.947 103.442 321.837 103.621 321.765 103.816C321.693 104.011 321.661 104.218 321.67 104.426C321.679 104.633 321.729 104.837 321.817 105.025C321.906 105.213 322.031 105.381 322.185 105.521C322.339 105.66 322.52 105.767 322.716 105.836C322.91 105.911 323.116 105.946 323.324 105.941C323.532 105.935 323.736 105.888 323.926 105.803C324.115 105.717 324.285 105.595 324.427 105.443C324.569 105.291 324.679 105.112 324.751 104.917C324.823 104.722 324.855 104.515 324.846 104.308C324.837 104.1 324.787 103.896 324.698 103.708C324.61 103.52 324.485 103.352 324.331 103.213C324.176 103.074 323.996 102.966 323.8 102.898Z" fill="#1890ff"/>
<path d="M251.988 96.2616L240.428 94.6816C240.331 94.6686 240.242 94.618 240.182 94.5407C240.121 94.4633 240.093 94.3653 240.104 94.2676C240.75 88.3336 240.65 88.6256 240.85 88.4676C241.05 88.3096 240.412 88.2936 252.65 89.9656C252.747 89.9791 252.835 90.0299 252.895 90.1072C252.955 90.1845 252.983 90.2823 252.972 90.3796L252.372 95.9256C252.362 96.0198 252.317 96.1069 252.246 96.1693C252.175 96.2316 252.083 96.2646 251.988 96.2616ZM240.892 93.9876L251.656 95.4616L252.18 90.6616L241.414 89.1896L240.892 93.9876Z" fill="#1890ff"/>
<path d="M250.098 59.7136C248.498 59.4585 246.861 59.5989 245.328 60.1226C243.795 60.6463 242.414 61.5374 241.305 62.718C240.196 63.8986 239.393 65.3328 238.966 66.8954C238.539 68.4579 238.501 70.1012 238.856 71.6816C241.178 78.7216 241.376 78.8816 241.188 86.1156V86.1676C241.196 86.2277 241.218 86.2849 241.253 86.3344C241.288 86.3839 241.334 86.4241 241.388 86.4516C241.496 86.5036 252.664 88.0516 252.818 87.9956L252.87 87.9716C252.95 87.9277 253.011 87.8568 253.044 87.7716L253.06 87.7136C254.26 81.2056 254.804 80.6456 258.406 74.3676C258.897 73.3769 259.201 72.3044 259.304 71.2036C259.55 68.4704 258.729 65.748 257.013 63.6063C255.297 61.4647 252.819 60.0698 250.098 59.7136ZM257.752 73.9976C254.09 80.0276 253.552 80.9056 252.39 87.2216L247.542 86.5556L249.004 73.1436C251.74 73.5176 252.124 73.5836 252.418 73.5836C253.066 73.5908 253.695 73.3571 254.181 72.9278C254.667 72.4985 254.977 71.9041 255.05 71.2596C255.114 70.5412 254.898 69.8257 254.448 69.2623C253.997 68.699 253.347 68.3312 252.632 68.2356L251.564 68.0916C251.214 68.0371 250.856 68.0537 250.513 68.1407C250.17 68.2277 249.847 68.3832 249.565 68.5978C249.284 68.8124 249.048 69.0817 248.873 69.3896C248.698 69.6976 248.586 70.0377 248.546 70.3896L248.346 72.2936L245.318 71.8796C244.936 71.8403 244.573 71.6898 244.276 71.4465C243.978 71.2033 243.759 70.8781 243.644 70.5113C243.529 70.1445 243.525 69.7521 243.631 69.3828C243.738 69.0135 243.95 68.6835 244.242 68.4336C244.449 68.2737 244.686 68.1572 244.939 68.0912C245.192 68.0252 245.455 68.011 245.714 68.0496L248.128 68.3756C248.226 68.3792 248.321 68.3446 248.394 68.2791C248.466 68.2137 248.51 68.1225 248.517 68.0249C248.523 67.9273 248.492 67.8311 248.428 67.7565C248.365 67.682 248.275 67.6351 248.178 67.6256L245.816 67.3036C245.457 67.2508 245.092 67.2712 244.742 67.3637C244.391 67.4562 244.064 67.6188 243.778 67.8416C243.37 68.1828 243.071 68.6362 242.919 69.1455C242.766 69.6548 242.767 70.1978 242.92 70.7069C243.073 71.2161 243.372 71.6691 243.78 72.0098C244.188 72.3506 244.688 72.564 245.216 72.6236L248.266 73.0416L246.804 86.4556L241.956 85.7916C242.383 81.2437 241.68 76.6607 239.91 72.4496C239.388 70.9561 239.263 69.3524 239.549 67.7962C239.834 66.2399 240.52 64.7848 241.538 63.574C242.557 62.3632 243.873 61.4384 245.357 60.8906C246.842 60.3428 248.443 60.1908 250.004 60.4496C251.509 60.6329 252.95 61.165 254.212 62.0036C255.475 62.8422 256.524 63.9641 257.277 65.2799C258.029 66.5956 258.464 68.069 258.547 69.5825C258.629 71.096 258.357 72.6079 257.752 73.9976ZM249.084 72.3976L249.294 70.4756C249.32 70.2297 249.397 69.9916 249.518 69.7761C249.639 69.5605 249.803 69.3719 250 69.2216C250.812 68.5876 251.652 68.8616 252.542 68.9816C252.924 69.0208 253.286 69.1712 253.584 69.4144C253.881 69.6575 254.101 69.9826 254.215 70.3493C254.329 70.7161 254.334 71.1083 254.227 71.4774C254.121 71.8465 253.908 72.1762 253.616 72.4256C253.41 72.5868 253.173 72.7042 252.92 72.7705C252.667 72.8369 252.403 72.8509 252.144 72.8116L249.084 72.3976Z" fill="#1890ff"/>
<path d="M201.096 107.596L196.05 108.486C194.89 108.689 193.696 108.425 192.73 107.75C191.765 107.075 191.106 106.045 190.898 104.886L190 99.8316C189.98 99.7359 189.923 99.6517 189.842 99.5969C189.761 99.5421 189.662 99.5211 189.566 99.5383C189.47 99.5554 189.384 99.6095 189.327 99.6889C189.269 99.7683 189.246 99.8669 189.26 99.9636L190.15 105.01C190.353 106.17 190.088 107.363 189.414 108.329C188.739 109.294 187.709 109.953 186.55 110.162L181.504 111.052C181.409 111.072 181.326 111.129 181.272 111.21C181.218 111.29 181.197 111.388 181.214 111.484C181.231 111.579 181.284 111.665 181.362 111.722C181.44 111.779 181.538 111.804 181.634 111.792L186.68 110.902C187.255 110.8 187.844 110.812 188.414 110.938C188.984 111.063 189.523 111.3 190.002 111.635C190.48 111.969 190.888 112.394 191.202 112.886C191.516 113.378 191.73 113.927 191.832 114.502L192.722 119.548C192.73 119.596 192.749 119.643 192.775 119.685C192.802 119.726 192.836 119.763 192.877 119.791C192.917 119.819 192.963 119.84 193.011 119.85C193.059 119.861 193.109 119.862 193.158 119.854C193.207 119.845 193.253 119.827 193.295 119.801C193.337 119.774 193.373 119.74 193.401 119.699C193.43 119.659 193.45 119.613 193.461 119.565C193.471 119.516 193.472 119.466 193.464 119.418L192.574 114.372C192.37 113.211 192.635 112.017 193.309 111.051C193.984 110.085 195.014 109.426 196.174 109.218L201.22 108.33C201.306 108.302 201.379 108.244 201.427 108.167C201.474 108.09 201.491 107.998 201.476 107.909C201.461 107.82 201.414 107.739 201.344 107.681C201.275 107.624 201.186 107.593 201.096 107.596ZM191.868 112.53C191.496 111.936 191.009 111.423 190.435 111.022C189.861 110.62 189.213 110.338 188.528 110.192C189.121 109.82 189.634 109.333 190.035 108.759C190.437 108.185 190.718 107.537 190.864 106.852C191.235 107.445 191.721 107.959 192.295 108.361C192.868 108.763 193.515 109.046 194.2 109.194C193.608 109.565 193.096 110.052 192.696 110.625C192.295 111.198 192.014 111.846 191.868 112.53Z" fill="#1890ff"/>
<path d="M279.164 202.952C278.396 200.774 269.298 181.468 266.344 176.086C262.008 168.188 258.492 167.94 255.144 164.75C254.682 163.94 254.422 163.031 254.387 162.1C254.353 161.169 254.544 160.243 254.944 159.402C255.502 158.126 256.217 156.925 257.072 155.826C261.496 151.08 270.404 158.696 270.472 158.768C271.555 159.914 273.002 160.649 274.566 160.848C274.802 160.868 275.039 160.836 275.261 160.755C275.484 160.673 275.685 160.544 275.852 160.376C276.018 160.208 276.146 160.005 276.225 159.782C276.305 159.559 276.335 159.321 276.312 159.086C276.048 157.411 275.174 155.893 273.858 154.824C276.306 155.224 277.334 152.24 273.766 148.938C276.616 149.738 277.784 146.714 274.194 143.238C273.822 142.88 273.42 142.554 272.994 142.264C259.966 131.338 252.042 139.864 251.54 140.436C249.016 142.772 247.026 145.625 245.704 148.8C243.839 149.238 242.074 150.027 240.504 151.126C238.339 152.086 236.044 152.723 233.694 153.016C233.402 152.35 232.454 150.452 231.136 150.496C230.936 150.496 231.568 150.46 204.136 152.708C201.64 152.925 199.268 153.894 197.334 155.486C195.399 157.078 193.992 159.218 193.298 161.626C190.514 161.405 187.731 162.058 185.336 163.494C146.8 186.412 148.544 185.26 148.46 185.558C148.455 185.804 148.496 186.05 148.58 186.282C144.722 186.95 138.964 187.514 135.944 188.064C123.366 190.37 121.3 191.692 120.944 192.682C118.872 198.374 138.214 198.33 145.478 203.116C147.564 204.588 149.878 205.708 152.328 206.43C154.646 206.499 156.928 205.847 158.86 204.564C159.58 205.324 159.632 205.43 159.846 205.43C160.06 205.43 158.784 206.052 186.714 191.04L199.8 220.306L187.38 224.334C184.077 225.411 181.036 227.167 178.453 229.489C175.87 231.812 173.801 234.65 172.38 237.82C153.24 280.548 154.38 277.786 154.62 278.108C154.738 278.228 155.62 278.908 155.742 279.008C151.878 286.176 147.142 294.284 144.742 299.698C139.058 312.486 139.05 315.13 139.678 316.004C143.512 321.332 155.288 303.928 164.092 300.32C166.225 299.503 168.147 298.219 169.718 296.562C171.809 293.98 173.468 291.075 174.628 287.962C175.18 288.098 175.74 288.201 176.304 288.272C176.628 288.19 175.304 290.738 194.734 249.324C202.476 247.538 215.406 244.77 228.704 242.308C246.762 238.962 249.048 211.77 249.166 210.138L255.272 196.924L262.122 209.25C253.574 232.718 251.774 237.49 251.51 238.522C251.422 238.868 251.51 238.792 251.566 238.86C251.694 238.972 252.354 239.418 252.494 239.512C251.144 242.261 249.164 244.653 246.714 246.492C243.288 248.99 241.822 250.712 242.354 251.604C243.204 253.038 248.456 250.604 249.974 249.9C248.388 253.475 246.4 256.858 244.048 259.984C243.14 261.264 242.948 262.34 243.534 262.858C244.906 264.08 248.014 260.592 249.248 259.21C248.432 260.9 247.526 262.546 246.534 264.14C245.696 265.372 245.562 266.404 246.176 266.9C247.094 267.642 248.63 266.5 249.474 265.608C250.571 264.408 251.596 263.144 252.544 261.824C251.97 263.254 251.448 264.424 251.156 265.014C249.698 267.968 251.944 269.318 254.258 266.124C255.084 264.949 255.845 263.73 256.538 262.472C256.414 262.92 256.292 263.312 256.162 263.672C255.486 265.556 255.976 266.128 256.328 266.3C257.264 266.76 258.474 265.204 259.04 264.318C262.733 258.165 265.965 251.748 268.71 245.118C268.854 245.128 269.91 245.214 270.044 245.188C270.424 245.084 269.83 246.514 279.35 217.366C280.869 212.67 280.804 207.606 279.164 202.952ZM252.044 141.004C252.244 140.89 256.592 136.464 259.464 138.556C262.208 140.556 260.164 145.898 260.364 145.314C259.952 146.514 260.764 146.828 262.016 146.7C262.712 146.63 263.392 146.544 263.78 147.164C264.422 148.19 263.456 150.102 260.994 149.724C260.927 149.713 260.859 149.72 260.796 149.744C260.733 149.768 260.677 149.808 260.634 149.86C259.634 151.134 256.584 155.186 256.39 155.46C254.406 158.216 252.718 161.372 254.128 164.46C251.695 164.155 249.336 163.417 247.162 162.282C247.781 161.887 248.302 161.357 248.686 160.731C249.07 160.105 249.306 159.4 249.376 158.67C251.486 158 255.626 155.514 256.434 153.422C256.51 153.261 256.551 153.087 256.555 152.909C256.56 152.732 256.527 152.556 256.46 152.392C255.764 150.952 251.296 153.176 249.316 153.706C248.316 153.974 247.36 154.188 246.432 154.348C245.948 153.52 245.721 152.567 245.782 151.61C246.446 150.78 247.382 149.434 246.478 148.906C247.759 145.911 249.655 143.218 252.044 141.004ZM245.044 152.46C245.079 153.166 245.274 153.855 245.614 154.476C244.672 154.609 243.723 154.694 242.772 154.728C243.742 153.836 244.484 153.082 245.054 152.46H245.044ZM240.884 151.774C244.6 149.562 245.906 149.436 246.084 149.556C246.084 149.556 246.338 150.494 241.636 154.756C240.748 154.756 239.8 154.72 238.812 154.646C238.712 154.638 238.614 154.671 238.539 154.736C238.463 154.801 238.416 154.893 238.409 154.993C238.402 155.092 238.434 155.19 238.499 155.266C238.564 155.342 238.656 155.388 238.756 155.396C242.366 155.729 246.006 155.404 249.5 154.438C250.678 154.124 255.314 152.202 255.772 152.726C255.808 152.87 255.79 153.023 255.722 153.156C254.183 155.391 251.945 157.052 249.36 157.878C247.659 158.322 245.933 158.661 244.19 158.892C244.094 158.912 244.01 158.968 243.955 159.049C243.9 159.13 243.879 159.229 243.897 159.326C243.914 159.422 243.968 159.508 244.047 159.565C244.127 159.622 244.225 159.646 244.322 159.632C245.322 159.456 247.152 159.214 248.602 158.878C248.471 159.532 248.193 160.148 247.79 160.68C247.387 161.212 246.869 161.646 246.274 161.95C245.274 162.522 245.088 162.426 241.558 162.84C241.462 162.85 241.373 162.896 241.31 162.97C241.247 163.044 241.215 163.139 241.221 163.236C241.227 163.332 241.269 163.423 241.34 163.489C241.411 163.555 241.505 163.591 241.602 163.59L244.66 163.234H244.696C244.728 163.233 244.76 163.229 244.792 163.222L244.83 163.21L245.142 163.174C245.624 164.364 243.4 165.774 241.998 166.09C241.798 166.136 239.572 166.434 239.398 166.434C239.302 166.436 239.211 166.474 239.143 166.541C239.074 166.608 239.034 166.699 239.03 166.795C239.026 166.89 239.059 166.984 239.122 167.056C239.185 167.128 239.273 167.174 239.368 167.184C239.642 167.196 241.568 166.904 242.092 166.86C242.722 167.338 241.892 169.006 240.236 169.302C239.748 169.316 230.598 169.502 228.926 169.536C227.361 164.578 227.291 159.269 228.726 154.272C230.359 154.237 231.986 154.08 233.596 153.804C236.105 153.441 238.558 152.759 240.894 151.774H240.884ZM216.2 194.148L220.414 173.61L231.306 172.746C232.216 172.61 233.046 171.746 233.706 170.23C235.352 170.196 238.216 170.114 239.602 170.07C234.326 179.357 230.483 189.388 228.202 199.824L216.2 194.148ZM209.752 180.536L217.51 184.008L215.632 193.17L209.752 180.536ZM204.21 153.458L229.4 151.392C226.138 155.166 226.162 168.804 229.646 172.122L202.768 174.25C202.675 174.259 202.589 174.303 202.526 174.372C202.463 174.442 202.429 174.532 202.429 174.626C202.429 174.719 202.463 174.809 202.526 174.879C202.589 174.948 202.675 174.992 202.768 175.002L219.168 175.876L217.652 183.252C197.98 174.452 204.304 177.278 200.438 175.554C198.092 174.508 196.16 172.712 194.947 170.447C193.735 168.183 193.31 165.579 193.741 163.047C194.172 160.515 195.433 158.198 197.326 156.462C199.219 154.725 201.636 153.668 204.196 153.458H204.21ZM228.554 241.57C227.498 241.77 194.636 248.152 194.154 248.788C194.032 248.988 194.754 247.47 176 287.482C168.425 285.985 161.336 282.643 155.362 277.752L173.062 238.128C174.442 235.054 176.449 232.303 178.955 230.051C181.46 227.799 184.409 226.095 187.612 225.05L219.412 214.742C219.499 214.714 219.574 214.656 219.621 214.577C219.668 214.499 219.685 214.406 219.669 214.316C219.652 214.225 219.603 214.144 219.532 214.088C219.46 214.031 219.369 214.003 219.278 214.008L198.25 214.986L187.374 190.682L189.744 189.408C189.832 189.36 189.897 189.28 189.926 189.184C189.954 189.088 189.943 188.985 189.896 188.898C189.848 188.81 189.768 188.745 189.672 188.716C189.577 188.688 189.474 188.698 189.386 188.746L159.916 204.586C154.708 199.429 151.019 192.94 149.25 185.828L185.734 164.142C187.958 162.809 190.537 162.189 193.124 162.366C192.525 165.133 192.897 168.022 194.176 170.548C195.454 173.074 197.563 175.084 200.148 176.24L208.704 180.068C215.666 195.018 215.342 194.468 215.548 194.668C215.748 194.792 214.182 194.032 248.392 210.2C248.212 212.504 245.8 238.378 228.556 241.57H228.554ZM262.848 209.036L258.702 201.57V189.39C258.701 189.304 258.672 189.222 258.618 189.156C258.565 189.089 258.49 189.043 258.407 189.025C258.324 189.007 258.237 189.017 258.16 189.055C258.084 189.092 258.022 189.155 257.986 189.232L248.632 209.482L228.91 200.16C231.202 189.574 235.115 179.407 240.51 170.016C242.51 169.586 243.51 167.664 242.886 166.616C244.272 166.114 246.022 164.888 245.972 163.442V163.392C245.964 163.249 245.936 163.108 245.888 162.974C246.082 162.899 246.271 162.815 246.456 162.72C248.976 164.122 251.754 165 254.622 165.304C258.1 168.572 261.484 168.788 265.692 176.452C268.67 181.88 277.72 201.106 278.464 203.206C280.046 207.708 280.104 212.605 278.63 217.144L269.706 244.438C263.445 244.156 257.397 242.082 252.282 238.462C263.52 207.576 262.98 209.27 262.85 209.036H262.848ZM258.4 263.92C257.452 265.406 256.764 265.684 256.656 265.632C256.602 265.606 256.418 265.182 256.868 263.932C257.284 262.764 257.96 259.966 257.984 259.764C258.554 258.642 259.02 257.664 259.302 257.032C259.342 256.941 259.344 256.838 259.308 256.745C259.273 256.653 259.202 256.578 259.112 256.538C259.021 256.497 258.918 256.494 258.825 256.529C258.733 256.563 258.657 256.634 258.616 256.724C257.872 258.394 253.16 268.124 251.58 267.172C251.38 267.056 251.28 266.456 251.826 265.348C252.723 263.437 253.516 261.479 254.2 259.482C255.216 258.018 256.07 256.72 256.498 256.032C256.546 255.947 256.56 255.848 256.536 255.754C256.513 255.66 256.454 255.578 256.372 255.527C256.29 255.475 256.191 255.457 256.096 255.477C256.001 255.496 255.917 255.552 255.862 255.632C253.781 258.951 251.457 262.113 248.91 265.09C247.78 266.27 246.878 266.518 246.628 266.316C246.458 266.178 246.444 265.58 247.136 264.562C248.651 262.077 250.008 259.499 251.2 256.844C251.952 255.882 252.506 255.102 252.78 254.71C252.808 254.669 252.828 254.623 252.838 254.575C252.849 254.526 252.849 254.476 252.84 254.428C252.832 254.379 252.813 254.333 252.786 254.291C252.759 254.25 252.725 254.214 252.684 254.186C252.643 254.158 252.597 254.138 252.549 254.127C252.501 254.117 252.451 254.116 252.402 254.125C252.353 254.134 252.307 254.152 252.265 254.179C252.224 254.206 252.188 254.241 252.16 254.282C250.42 256.793 248.423 259.117 246.202 261.216C244.93 262.37 244.176 262.44 244.012 262.296C242.976 261.374 248.484 256.986 251.846 247.072C251.862 247.025 251.868 246.975 251.865 246.926C251.862 246.877 251.849 246.829 251.827 246.784C251.805 246.74 251.775 246.701 251.738 246.668C251.701 246.635 251.658 246.611 251.611 246.595C251.564 246.579 251.515 246.572 251.465 246.575C251.416 246.579 251.368 246.592 251.324 246.613C251.279 246.635 251.24 246.666 251.207 246.703C251.175 246.74 251.15 246.783 251.134 246.83C250.892 247.544 250.636 248.23 250.372 248.892C250.335 248.896 250.299 248.907 250.266 248.924C244.666 251.588 243.096 251.412 242.98 251.22C242.884 251.06 243.31 249.89 247.136 247.1C249.66 245.209 251.705 242.753 253.106 239.928C257.561 242.789 262.635 244.545 267.906 245.052C265.2 251.564 262.023 257.87 258.4 263.92Z" fill="#1890ff"/>
<path d="M223.8 236.43C223.814 236.787 223.965 237.125 224.222 237.373C224.48 237.621 224.823 237.759 225.181 237.759C225.538 237.759 225.882 237.621 226.139 237.373C226.397 237.125 226.548 236.787 226.562 236.43C226.548 236.072 226.397 235.734 226.139 235.487C225.882 235.239 225.538 235.1 225.181 235.1C224.823 235.1 224.48 235.239 224.222 235.487C223.965 235.734 223.814 236.072 223.8 236.43Z" fill="#1890ff"/>
<path d="M236.642 211.742C236.656 212.099 236.807 212.437 237.065 212.685C237.322 212.933 237.666 213.071 238.023 213.071C238.38 213.071 238.724 212.933 238.981 212.685C239.239 212.437 239.39 212.099 239.404 211.742C239.39 211.384 239.239 211.046 238.981 210.799C238.724 210.551 238.38 210.412 238.023 210.412C237.666 210.412 237.322 210.551 237.065 210.799C236.807 211.046 236.656 211.384 236.642 211.742Z" fill="#1890ff"/>
<path d="M202.8 207.482C202.814 207.839 202.965 208.177 203.222 208.425C203.48 208.673 203.823 208.811 204.181 208.811C204.538 208.811 204.882 208.673 205.139 208.425C205.397 208.177 205.548 207.839 205.562 207.482C205.548 207.124 205.397 206.786 205.139 206.539C204.882 206.291 204.538 206.152 204.181 206.152C203.823 206.152 203.48 206.291 203.222 206.539C202.965 206.786 202.814 207.124 202.8 207.482Z" fill="#1890ff"/>
<path d="M205.072 183.906C205.086 184.263 205.237 184.601 205.494 184.849C205.752 185.097 206.096 185.235 206.453 185.235C206.81 185.235 207.154 185.097 207.411 184.849C207.669 184.601 207.82 184.263 207.834 183.906C207.82 183.548 207.669 183.21 207.411 182.963C207.154 182.715 206.81 182.576 206.453 182.576C206.096 182.576 205.752 182.715 205.494 182.963C205.237 183.21 205.086 183.548 205.072 183.906Z" fill="#1890ff"/>
<path d="M184.126 171.652C184.14 172.009 184.291 172.347 184.549 172.595C184.806 172.843 185.15 172.981 185.507 172.981C185.864 172.981 186.208 172.843 186.465 172.595C186.723 172.347 186.874 172.009 186.888 171.652C186.874 171.294 186.723 170.956 186.465 170.709C186.208 170.461 185.864 170.322 185.507 170.322C185.15 170.322 184.806 170.461 184.549 170.709C184.291 170.956 184.14 171.294 184.126 171.652Z" fill="#1890ff"/>
<path d="M153.872 186.584C153.872 186.95 154.017 187.301 154.276 187.559C154.535 187.818 154.886 187.964 155.252 187.964C155.618 187.964 155.969 187.818 156.228 187.559C156.487 187.301 156.632 186.95 156.632 186.584C156.632 186.218 156.487 185.867 156.228 185.608C155.969 185.349 155.618 185.204 155.252 185.204C154.886 185.204 154.535 185.349 154.276 185.608C154.017 185.867 153.872 186.218 153.872 186.584Z" fill="#1890ff"/>
<path d="M174.692 189.39C174.706 189.747 174.857 190.085 175.115 190.333C175.372 190.581 175.716 190.719 176.073 190.719C176.43 190.719 176.774 190.581 177.031 190.333C177.289 190.085 177.44 189.747 177.454 189.39C177.44 189.032 177.289 188.694 177.031 188.447C176.774 188.199 176.43 188.06 176.073 188.06C175.716 188.06 175.372 188.199 175.115 188.447C174.857 188.694 174.706 189.032 174.692 189.39Z" fill="#1890ff"/>
<path d="M185.968 249.378C185.982 249.735 186.133 250.073 186.391 250.321C186.648 250.569 186.992 250.707 187.349 250.707C187.706 250.707 188.05 250.569 188.307 250.321C188.565 250.073 188.716 249.735 188.73 249.378C188.716 249.02 188.565 248.682 188.307 248.435C188.05 248.187 187.706 248.048 187.349 248.048C186.992 248.048 186.648 248.187 186.391 248.435C186.133 248.682 185.982 249.02 185.968 249.378Z" fill="#1890ff"/>
<path d="M201.124 224.704C201.124 225.07 201.269 225.421 201.528 225.679C201.787 225.938 202.138 226.084 202.504 226.084C202.87 226.084 203.221 225.938 203.48 225.679C203.739 225.421 203.884 225.07 203.884 224.704C203.884 224.338 203.739 223.987 203.48 223.728C203.221 223.469 202.87 223.324 202.504 223.324C202.138 223.324 201.787 223.469 201.528 223.728C201.269 223.987 201.124 224.338 201.124 224.704Z" fill="#1890ff"/>
<path d="M161.522 267.586C161.536 267.943 161.687 268.281 161.945 268.529C162.202 268.777 162.546 268.915 162.903 268.915C163.26 268.915 163.604 268.777 163.861 268.529C164.119 268.281 164.27 267.943 164.284 267.586C164.27 267.228 164.119 266.89 163.861 266.643C163.604 266.395 163.26 266.256 162.903 266.256C162.546 266.256 162.202 266.395 161.945 266.643C161.687 266.89 161.536 267.228 161.522 267.586Z" fill="#1890ff"/>
<path d="M147.074 264.894L140.912 262.094L143.712 255.93C143.753 255.839 143.756 255.735 143.721 255.642C143.686 255.548 143.615 255.473 143.524 255.432C143.433 255.391 143.329 255.387 143.236 255.423C143.143 255.458 143.067 255.529 143.026 255.62L140.226 261.782L134.064 258.982C133.974 258.943 133.872 258.941 133.78 258.977C133.689 259.012 133.615 259.082 133.574 259.171C133.533 259.261 133.529 259.362 133.562 259.455C133.595 259.547 133.664 259.623 133.752 259.666L139.914 262.466L137.114 268.628C137.075 268.718 137.073 268.82 137.109 268.911C137.144 269.003 137.214 269.077 137.303 269.118C137.393 269.159 137.495 269.163 137.587 269.129C137.679 269.096 137.755 269.028 137.798 268.94L140.598 262.776C146.612 265.508 146.716 265.61 146.916 265.61C147 265.607 147.081 265.577 147.146 265.523C147.211 265.469 147.256 265.396 147.274 265.313C147.292 265.231 147.282 265.145 147.246 265.069C147.21 264.993 147.149 264.931 147.074 264.894Z" fill="#1890ff"/>
</svg>
