<svg width="400" height="401" viewBox="0 0 400 401" fill="none" xmlns="http://www.w3.org/2000/svg">
<path d="M141.1 222.162C144.28 224.002 148.16 226.302 152.24 228.722C140.52 232.722 131.76 249.282 131.92 261.142C126.98 257.542 123.46 254.942 122.36 254.082C122.239 247.551 123.925 241.114 127.232 235.481C130.539 229.848 135.338 225.238 141.1 222.162Z" fill="#FFE7EA"/>
<path d="M293.6 298.922C292.88 304.582 292.24 309.202 291.78 311.902C283.32 315.902 264.48 313.642 254.1 305.022C254.44 302.162 254.98 297.442 255.62 291.882C262.44 299.422 282.42 303.382 293.6 298.922Z" fill="#FFE7EA"/>
<path d="M184.46 256.162C181.441 248.223 179.164 240.021 177.66 231.662C178.4 225.182 179.66 212.382 179.96 209.662C180.161 207.488 179.76 205.302 178.8 203.342C181.218 196.194 185.708 189.928 191.7 185.342C193.461 185.878 195.259 186.286 197.08 186.562C182.92 207.742 187.42 240.822 194.54 275.962C172.54 261.962 144.2 244.882 138.4 240.802C141.576 235.395 146.438 231.18 152.24 228.802L166.5 237.262C171.76 242.442 178.26 249.262 184.46 256.162Z" fill="#FFE7EA"/>
<path d="M229.22 226.302C228.9 230.422 225.22 278.462 224.26 286.142C222.12 305.482 207.28 312.882 186.12 299.222C172.84 290.682 146.36 271.682 132 261.162C132.237 253.907 134.48 246.859 138.48 240.802C144.3 244.802 172.48 261.882 194.62 275.982C187.48 240.862 183 207.782 197.16 186.602C209.16 188.482 224.62 185.702 229.16 178.182C240.06 184.182 253.32 191.402 264.76 198.422C299.4 219.682 300.26 227.482 299.68 239.962C299.14 251.462 296.06 280.702 293.68 298.922C282.5 303.382 262.52 299.402 255.68 291.842C257.68 275.262 260.34 251.382 260.62 248.202L257.52 247.442C247.216 241.643 237.703 234.538 229.22 226.302Z" fill="#FFE7EA"/>
<path d="M269.02 112.522C269.467 112.738 269.845 113.072 270.114 113.489C270.383 113.906 270.532 114.389 270.544 114.885C270.556 115.381 270.432 115.871 270.184 116.301C269.937 116.73 269.575 117.084 269.14 117.322C267.661 118.257 266.008 118.883 264.28 119.162C261.4 119.602 259.42 117.162 263.64 114.702C265.561 114.34 267.39 113.599 269.02 112.522Z" fill="#FFE7EA"/>
<path d="M269.1 107.622C271.1 108.342 271.1 111.102 269.1 112.522C267.446 113.605 265.588 114.34 263.64 114.682C260.54 115.282 258.1 112.682 262.56 109.902C264.926 109.853 267.216 109.055 269.1 107.622Z" fill="#FFE7EA"/>
<path d="M269.1 107.622C268.042 108.468 266.822 109.091 265.516 109.452C264.209 109.813 262.843 109.905 261.5 109.722C261.951 109.197 262.205 108.533 262.22 107.842C262.22 107.022 262.22 105.982 262.22 104.842C264.515 104.634 266.742 103.953 268.76 102.842C269.18 103.069 269.536 103.399 269.795 103.8C270.055 104.201 270.208 104.662 270.242 105.138C270.276 105.615 270.189 106.092 269.989 106.526C269.79 106.96 269.484 107.337 269.1 107.622Z" fill="#FFE7EA"/>
<path d="M268.56 98.8416C270.3 99.5016 270.28 102.342 267.84 103.362C266.046 104.134 264.144 104.627 262.2 104.822C262.14 103.366 261.98 101.916 261.72 100.482C263.5 99.4216 267 98.2216 268.56 98.8416Z" fill="#FFE7EA"/>
<path d="M262.56 137.082C255.529 138.517 248.325 138.908 241.18 138.242C241.18 136.882 240.84 134.462 240.62 131.722C239.4 117.162 240.62 114.182 242.8 110.102C244.789 106.392 247.169 102.905 249.9 99.7016C251.36 98.3216 256.14 97.9416 258.2 97.7016C260.62 97.4616 261.24 98.1216 261.72 100.442C262.15 102.863 262.304 105.325 262.18 107.782C262.18 110.102 259.5 112.802 257.14 103.382C257.82 106.107 257.82 108.957 257.14 111.682C257.302 115.747 258.426 119.715 260.42 123.262C260.18 125.402 262.28 134.682 262.56 137.082Z" fill="#FFE7EA"/>
<path d="M173.1 215.382C170.68 219.482 168.64 219.382 165.62 217.682C164.12 218.782 162.54 218.362 160.32 217.062C158.98 218.122 157.68 217.822 155.84 216.602C152.92 214.602 152.26 210.802 152.52 207.722C147.573 205.461 143.4 201.795 140.52 197.182C144.3 190.662 153.34 185.362 160.04 184.462C164.4 189.182 171.72 196.082 177.16 201.342C178.225 202.437 179.032 203.755 179.523 205.201C180.014 206.647 180.177 208.185 180 209.702C179.78 212.382 177.36 234.542 177.28 235.102C176.78 238.482 172.84 240.342 173.1 215.382Z" fill="#FFE7EA"/>
<path d="M222.72 293.782C222.572 293.755 222.438 293.678 222.342 293.562C222.246 293.447 222.193 293.302 222.193 293.152C222.193 293.001 222.246 292.856 222.342 292.741C222.438 292.626 222.572 292.548 222.72 292.522L256 286.682C256.164 286.659 256.33 286.702 256.464 286.799C256.597 286.897 256.688 287.043 256.716 287.206C256.745 287.369 256.709 287.537 256.616 287.674C256.524 287.811 256.382 287.907 256.22 287.942C217.64 294.682 222.94 293.782 222.72 293.782Z" fill="#1890ff"/>
<path d="M110.28 150.022L105.5 122.882C105.471 122.715 105.509 122.543 105.607 122.404C105.704 122.265 105.853 122.171 106.02 122.142L161.56 112.342C161.73 112.312 161.904 112.352 162.045 112.451C162.185 112.551 162.281 112.702 162.31 112.872C162.339 113.041 162.3 113.216 162.2 113.356C162.101 113.497 161.95 113.592 161.78 113.622L106.88 123.302L111.54 149.802C111.558 149.886 111.559 149.973 111.543 150.057C111.526 150.142 111.493 150.222 111.445 150.294C111.397 150.365 111.335 150.426 111.262 150.473C111.19 150.52 111.109 150.551 111.024 150.566C110.939 150.581 110.853 150.579 110.769 150.559C110.685 150.539 110.606 150.503 110.536 150.452C110.467 150.401 110.408 150.337 110.364 150.263C110.32 150.189 110.292 150.107 110.28 150.022Z" fill="#1890ff"/>
<path d="M122.76 220.682L114.92 176.282C114.898 176.118 114.94 175.951 115.038 175.818C115.135 175.684 115.281 175.594 115.444 175.565C115.607 175.537 115.775 175.573 115.912 175.665C116.049 175.758 116.145 175.9 116.18 176.062L124 220.542C123.984 220.686 123.919 220.82 123.817 220.923C123.714 221.025 123.58 221.09 123.436 221.106C123.292 221.122 123.146 221.089 123.024 221.012C122.901 220.935 122.808 220.818 122.76 220.682Z" fill="#1890ff"/>
<path d="M138.78 308.682C138.629 308.684 138.482 308.634 138.365 308.538C138.248 308.443 138.168 308.31 138.14 308.162L129.7 260.162C129.682 260.077 129.681 259.99 129.697 259.906C129.714 259.821 129.747 259.741 129.795 259.67C129.843 259.598 129.905 259.537 129.978 259.49C130.05 259.444 130.131 259.412 130.216 259.397C130.301 259.382 130.387 259.385 130.471 259.404C130.555 259.424 130.634 259.46 130.704 259.511C130.773 259.562 130.832 259.626 130.876 259.7C130.92 259.774 130.948 259.856 130.96 259.942L139.3 307.262L186.48 298.942C186.644 298.919 186.81 298.962 186.944 299.059C187.077 299.157 187.168 299.303 187.196 299.466C187.225 299.629 187.189 299.796 187.096 299.934C187.004 300.071 186.862 300.167 186.7 300.202C138.26 308.682 138.98 308.682 138.78 308.682Z" fill="#1890ff"/>
<path d="M357.16 371.562C355.94 366.922 349.72 330.322 302.04 60.1816C300.855 53.4969 297.066 47.5553 291.506 43.6597C285.946 39.7642 279.068 38.2329 272.38 39.4016L104 69.1016C97.3242 70.2732 91.3862 74.0463 87.49 79.5924C83.5939 85.1385 82.0581 92.0041 83.22 98.6816L127.74 351.242C127.754 351.326 127.752 351.412 127.733 351.495C127.715 351.578 127.68 351.657 127.63 351.726C127.531 351.867 127.38 351.962 127.21 351.992C127.04 352.021 126.866 351.981 126.725 351.882C126.585 351.783 126.489 351.631 126.46 351.462L82 99.0216C81.3782 95.5438 81.4486 91.9774 82.2072 88.5268C82.9658 85.0762 84.3977 81.8092 86.4209 78.9128C88.444 76.0165 91.0188 73.5477 93.9975 71.6479C96.9763 69.7481 100.301 68.4547 103.78 67.8417L272.16 38.1416C279.184 36.9145 286.408 38.5221 292.249 42.6122C298.09 46.7024 302.071 52.9413 303.32 59.9616C349.74 323.242 357.58 365.202 358.18 371.322C358.36 373.182 357.26 371.902 357.16 371.562Z" fill="#1890ff"/>
<path d="M351.5 137.902C349.463 137.902 347.471 137.298 345.778 136.166C344.084 135.034 342.764 133.425 341.984 131.543C341.204 129.661 341.001 127.59 341.398 125.592C341.795 123.594 342.776 121.759 344.217 120.318C345.657 118.878 347.493 117.897 349.491 117.5C351.489 117.102 353.56 117.306 355.442 118.086C357.324 118.865 358.932 120.185 360.064 121.879C361.196 123.573 361.8 125.564 361.8 127.602C361.795 130.332 360.708 132.949 358.777 134.879C356.847 136.809 354.23 137.896 351.5 137.902ZM351.5 118.582C349.716 118.582 347.972 119.111 346.489 120.102C345.005 121.093 343.849 122.502 343.167 124.15C342.484 125.798 342.305 127.612 342.653 129.361C343.001 131.111 343.86 132.718 345.122 133.98C346.383 135.241 347.991 136.1 349.74 136.448C351.49 136.796 353.304 136.618 354.952 135.935C356.6 135.252 358.009 134.096 359 132.613C359.991 131.13 360.52 129.386 360.52 127.602C360.489 125.228 359.525 122.963 357.837 121.294C356.15 119.625 353.873 118.687 351.5 118.682V118.582Z" fill="#1890ff"/>
<path d="M380.34 157.762C378.303 157.762 376.311 157.158 374.618 156.026C372.924 154.894 371.604 153.285 370.824 151.403C370.044 149.521 369.84 147.45 370.238 145.452C370.635 143.454 371.616 141.619 373.057 140.178C374.497 138.738 376.333 137.757 378.331 137.36C380.329 136.962 382.4 137.166 384.282 137.946C386.164 138.725 387.772 140.045 388.904 141.739C390.036 143.433 390.64 145.424 390.64 147.462C390.635 150.192 389.548 152.809 387.617 154.739C385.687 156.669 383.07 157.756 380.34 157.762ZM380.34 138.442C378.556 138.442 376.812 138.971 375.329 139.962C373.845 140.953 372.689 142.362 372.007 144.01C371.324 145.658 371.145 147.472 371.493 149.221C371.841 150.971 372.7 152.578 373.962 153.84C375.223 155.101 376.831 155.96 378.58 156.308C380.33 156.656 382.144 156.478 383.792 155.795C385.44 155.112 386.849 153.956 387.84 152.473C388.831 150.99 389.36 149.246 389.36 147.462C389.36 146.277 389.127 145.104 388.673 144.01C388.22 142.915 387.556 141.921 386.718 141.084C385.881 140.246 384.886 139.582 383.792 139.128C382.697 138.675 381.525 138.442 380.34 138.442Z" fill="#1890ff"/>
<path d="M348 163.622C347.884 163.62 347.771 163.587 347.673 163.526C347.575 163.466 347.495 163.38 347.441 163.277C347.388 163.174 347.363 163.059 347.37 162.944C347.377 162.829 347.415 162.717 347.48 162.622L383.48 111.322C383.576 111.181 383.723 111.084 383.89 111.052C384.057 111.02 384.229 111.056 384.37 111.152C384.511 111.247 384.607 111.395 384.639 111.561C384.671 111.728 384.636 111.901 384.54 112.042C346 166.962 348.44 163.622 348 163.622Z" fill="#1890ff"/>
<path d="M378.98 72.6816C378.18 72.1016 376.12 70.6816 370.64 66.8816C370.052 66.5235 369.542 66.0499 369.141 65.4893C368.741 64.9288 368.458 64.2929 368.311 63.6201C368.163 62.9473 368.153 62.2516 368.281 61.5748C368.409 60.898 368.673 60.2542 369.057 59.6823C369.441 59.1104 369.937 58.6222 370.515 58.2472C371.093 57.8722 371.741 57.6181 372.419 57.5003C373.098 57.3825 373.794 57.4034 374.464 57.5617C375.134 57.7201 375.766 58.0126 376.32 58.4216L377.26 59.0816L377.82 58.3016C378.205 57.7527 378.694 57.285 379.259 56.9251C379.825 56.5652 380.456 56.3202 381.116 56.2041C381.776 56.088 382.453 56.1032 383.107 56.2486C383.762 56.394 384.381 56.6669 384.93 57.0516C385.479 57.4364 385.947 57.9255 386.307 58.4911C386.666 59.0566 386.911 59.6875 387.028 60.3478C387.144 61.008 387.129 61.6846 386.983 62.339C386.838 62.9934 386.565 63.6127 386.18 64.1616C382.18 69.8616 380.86 71.9216 380.18 72.6416C379.5 73.3616 379.58 73.0416 378.98 72.6816ZM373.48 58.8416C372.665 58.8472 371.874 59.1132 371.221 59.6007C370.568 60.0883 370.088 60.7718 369.851 61.5514C369.614 62.3311 369.633 63.166 369.904 63.9343C370.176 64.7025 370.686 65.3639 371.36 65.8216L379.48 71.5016L385.12 63.5016C385.634 62.6706 385.81 61.6742 385.612 60.7173C385.414 59.7604 384.856 58.9159 384.055 58.3574C383.253 57.7989 382.267 57.5689 381.301 57.7148C380.335 57.8607 379.461 58.3713 378.86 59.1416L377.92 60.4416C377.82 60.5748 377.673 60.6638 377.508 60.6899C377.344 60.7161 377.176 60.6772 377.04 60.5816C376.093 59.5932 374.837 58.9581 373.48 58.7816V58.8416Z" fill="#1890ff"/>
<path d="M162.14 314.842C160.722 313.855 158.971 313.47 157.27 313.769C155.569 314.069 154.055 315.03 153.06 316.442L152.2 317.662C151.411 316.903 150.464 316.33 149.426 315.984C148.388 315.638 147.286 315.528 146.2 315.662C144.931 315.887 143.757 316.483 142.827 317.376C141.897 318.268 141.252 319.415 140.974 320.674C140.696 321.932 140.797 323.245 141.264 324.446C141.732 325.647 142.544 326.682 143.6 327.422L154.96 335.422C155.029 335.471 155.108 335.506 155.191 335.525C155.274 335.544 155.36 335.546 155.444 335.531C155.527 335.516 155.607 335.484 155.679 335.438C155.75 335.392 155.812 335.332 155.86 335.262L163.86 323.882C164.342 323.175 164.679 322.381 164.853 321.544C165.027 320.708 165.035 319.845 164.875 319.005C164.715 318.165 164.391 317.365 163.922 316.651C163.453 315.936 162.847 315.322 162.14 314.842Z" fill="#1890ff"/>
<path d="M173.36 321.642C172.979 318.738 173.766 315.802 175.547 313.478C177.327 311.153 179.958 309.63 182.86 309.242C191.92 307.662 198.62 315.842 195.36 323.242L197.68 327.142C197.738 327.251 197.765 327.375 197.756 327.498C197.747 327.622 197.704 327.741 197.631 327.841C197.558 327.941 197.458 328.019 197.343 328.065C197.228 328.111 197.102 328.124 196.98 328.102L192.5 327.122C185.82 333.102 174.82 329.962 173.36 321.642ZM185.06 310.342C175.34 310.342 170.64 321.722 178.3 327.102C180.356 328.473 182.814 329.113 185.277 328.917C187.741 328.721 190.067 327.701 191.88 326.022C192.24 325.682 192.5 325.862 195.88 326.582C194.12 323.642 193.88 323.522 194.12 323.082C196.94 317.062 192.26 310.342 185.06 310.342Z" fill="#1890ff"/>
<path d="M306.84 310.042L303.4 290.522C303.383 290.437 303.382 290.351 303.399 290.266C303.416 290.182 303.45 290.102 303.499 290.031C303.547 289.96 303.61 289.9 303.682 289.854C303.754 289.807 303.835 289.776 303.92 289.762C324.84 286.082 323.42 286.242 323.74 286.462C324.06 286.682 323.74 285.162 327.44 306.462C327.458 306.58 327.443 306.701 327.397 306.811C327.35 306.921 327.273 307.016 327.175 307.084C327.078 307.153 326.962 307.193 326.843 307.199C326.724 307.206 326.605 307.179 326.5 307.122L315.88 301.122C310.62 307.262 308.8 309.442 308.08 310.202C307.36 310.962 306.9 310.442 306.84 310.042ZM304.84 290.922L307.94 308.482L315.32 299.862C315.414 299.746 315.547 299.668 315.694 299.642C315.841 299.617 315.992 299.645 316.12 299.722L326.02 305.302L322.92 287.722L304.84 290.922Z" fill="#1890ff"/>
<path d="M112 113.362C117.39 113.362 121.76 108.992 121.76 103.602C121.76 98.2113 117.39 93.8416 112 93.8416C106.61 93.8416 102.24 98.2113 102.24 103.602C102.24 108.992 106.61 113.362 112 113.362Z" fill="#1890ff"/>
<path d="M126.3 101.722C126.13 101.738 125.961 101.685 125.83 101.577C125.699 101.468 125.616 101.311 125.6 101.142C125.584 100.972 125.636 100.803 125.745 100.672C125.854 100.54 126.01 100.458 126.18 100.442L153.12 95.7016C153.284 95.6794 153.45 95.7216 153.584 95.8193C153.717 95.9171 153.808 96.0627 153.836 96.2258C153.865 96.3888 153.829 96.5565 153.736 96.6937C153.644 96.8309 153.502 96.927 153.34 96.9616C126.42 101.722 126.5 101.722 126.3 101.722Z" fill="#1890ff"/>
<path d="M72.7 215.822C73.28 215.662 72.92 216.642 77.18 196.062C77.2013 195.959 77.1971 195.853 77.1678 195.752C77.1385 195.652 77.085 195.56 77.0119 195.485C76.9389 195.41 76.8485 195.354 76.7488 195.322C76.6491 195.29 76.5431 195.283 76.44 195.302L27.24 203.982L20.92 191.062C20.8569 190.936 20.7541 190.834 20.6276 190.773C20.5011 190.712 20.3578 190.694 20.22 190.722L9.88 192.542C9.71292 192.573 9.56532 192.67 9.46967 192.811C9.37403 192.952 9.33818 193.125 9.37 193.292C9.40183 193.459 9.49873 193.606 9.63938 193.702C9.78003 193.798 9.95292 193.833 10.12 193.802L20 192.062L39.52 231.942C38.7307 232.459 38.0912 233.174 37.6656 234.016C37.2401 234.858 37.0435 235.797 37.0955 236.739C37.1476 237.681 37.4464 238.593 37.9621 239.383C38.4778 240.173 39.1922 240.814 40.0337 241.241C40.8751 241.667 41.814 241.865 42.7561 241.815C43.6983 241.764 44.6105 241.467 45.4013 240.952C46.1922 240.438 46.8338 239.724 47.2618 238.883C47.6899 238.042 47.8893 237.104 47.84 236.162L65.66 233.022C66.0548 234.335 66.9363 235.448 68.1242 236.133C69.3122 236.818 70.717 237.024 72.0515 236.708C73.3861 236.392 74.5496 235.579 75.3043 234.434C76.059 233.289 76.3479 231.898 76.1121 230.547C75.8762 229.197 75.1333 227.987 74.0352 227.165C72.9371 226.343 71.5667 225.972 70.2041 226.127C68.8415 226.282 67.5895 226.952 66.704 227.999C65.8185 229.046 65.3664 230.392 65.44 231.762L47.6 234.902C47.3922 234.206 47.0452 233.56 46.5801 233.002C46.115 232.445 45.5415 231.988 44.8944 231.658C44.2473 231.329 43.5401 231.135 42.8156 231.087C42.0912 231.04 41.3646 231.14 40.68 231.382L38 225.762L72.7 215.822ZM70.7 227.362C71.4911 227.362 72.2645 227.596 72.9223 228.036C73.5801 228.475 74.0928 229.1 74.3955 229.831C74.6983 230.562 74.7775 231.366 74.6231 232.142C74.4688 232.918 74.0878 233.631 73.5284 234.19C72.969 234.749 72.2563 235.13 71.4804 235.285C70.7044 235.439 69.9002 235.36 69.1693 235.057C68.4384 234.754 67.8137 234.242 67.3741 233.584C66.9346 232.926 66.7 232.153 66.7 231.362C66.7261 230.292 67.1696 229.274 67.9357 228.527C68.7017 227.78 69.7297 227.361 70.8 227.362H70.7ZM46.44 236.462C46.4328 237.197 46.2278 237.917 45.8466 238.546C45.4653 239.176 44.9219 239.691 44.2731 240.037C43.6244 240.384 42.8943 240.55 42.1594 240.518C41.4245 240.485 40.7118 240.256 40.0962 239.853C39.4805 239.45 38.9845 238.889 38.6602 238.229C38.3359 237.569 38.1952 236.834 38.2528 236.1C38.3105 235.367 38.5644 234.662 38.9879 234.061C39.4114 233.46 39.989 232.983 40.66 232.682C41.2926 232.389 41.989 232.26 42.6846 232.308C43.3801 232.356 44.0523 232.579 44.6388 232.956C45.2253 233.333 45.707 233.852 46.0394 234.465C46.3718 235.078 46.544 235.764 46.54 236.462H46.44ZM75.74 196.682L72 214.682L37.34 224.682L27.82 205.282L75.74 196.682Z" fill="#1890ff"/>
<path d="M57.88 121.302L46.86 123.302L44.86 112.282C44.8253 112.12 44.7293 111.978 44.5921 111.885C44.4549 111.793 44.2872 111.757 44.1241 111.785C43.9611 111.814 43.8154 111.904 43.7177 112.038C43.62 112.171 43.5778 112.338 43.6 112.502L45.6 123.522L34.58 125.522C34.4947 125.533 34.4126 125.562 34.3386 125.606C34.2646 125.65 34.2002 125.708 34.1494 125.778C34.0985 125.847 34.0622 125.926 34.0426 126.01C34.0231 126.094 34.0206 126.181 34.0354 126.266C34.0502 126.351 34.082 126.432 34.1288 126.504C34.1757 126.576 34.2366 126.638 34.308 126.686C34.3794 126.735 34.4598 126.768 34.5443 126.784C34.6288 126.801 34.7158 126.8 34.8 126.782L45.82 124.782L47.82 135.802C47.8316 135.887 47.8602 135.969 47.9043 136.043C47.9483 136.117 48.0068 136.181 48.0763 136.232C48.1458 136.283 48.2248 136.319 48.3087 136.339C48.3925 136.359 48.4795 136.361 48.5643 136.346C48.6491 136.331 48.7301 136.3 48.8023 136.253C48.8746 136.206 48.9367 136.145 48.9848 136.074C49.033 136.002 49.0662 135.922 49.0826 135.837C49.0989 135.753 49.0981 135.666 49.08 135.582L47.08 124.562L58.1 122.562C58.1853 122.55 58.2675 122.521 58.3415 122.477C58.4155 122.433 58.4798 122.375 58.5306 122.305C58.5815 122.236 58.6178 122.157 58.6374 122.073C58.657 121.989 58.6594 121.902 58.6446 121.817C58.6298 121.733 58.598 121.652 58.5512 121.579C58.5043 121.507 58.4434 121.445 58.372 121.397C58.3006 121.349 58.2203 121.315 58.1357 121.299C58.0512 121.283 57.9642 121.284 57.88 121.302Z" fill="#1890ff"/>
<path d="M389.38 217.622L369.56 221.122L366 201.302C365.965 201.14 365.869 200.998 365.732 200.905C365.595 200.813 365.427 200.777 365.264 200.805C365.101 200.834 364.955 200.924 364.858 201.058C364.76 201.191 364.718 201.358 364.74 201.522L368.22 221.342L348.4 224.842C348.238 224.876 348.096 224.972 348.004 225.11C347.911 225.247 347.875 225.414 347.904 225.578C347.932 225.741 348.023 225.886 348.156 225.984C348.29 226.082 348.456 226.124 348.62 226.102L368.44 222.602L371.94 242.422C371.952 242.507 371.98 242.589 372.024 242.663C372.068 242.737 372.127 242.801 372.196 242.852C372.266 242.903 372.345 242.939 372.429 242.959C372.513 242.979 372.599 242.981 372.684 242.966C372.769 242.951 372.85 242.92 372.922 242.873C372.995 242.826 373.057 242.765 373.105 242.694C373.153 242.622 373.186 242.542 373.203 242.457C373.219 242.373 373.218 242.286 373.2 242.202L369.7 222.382L389.52 218.902C389.604 218.892 389.685 218.867 389.76 218.826C389.834 218.785 389.899 218.731 389.952 218.665C390.005 218.599 390.044 218.523 390.068 218.442C390.092 218.361 390.099 218.276 390.09 218.192C390.081 218.108 390.055 218.026 390.014 217.952C389.974 217.878 389.919 217.813 389.853 217.76C389.787 217.707 389.711 217.667 389.63 217.644C389.549 217.62 389.464 217.612 389.38 217.622Z" fill="#1890ff"/>
<path d="M270.82 119.822C270.38 118.972 270.024 118.081 269.76 117.162C269.712 116.997 269.601 116.858 269.451 116.776C269.301 116.693 269.124 116.674 268.96 116.722C268.796 116.769 268.657 116.88 268.574 117.031C268.492 117.181 268.472 117.357 268.52 117.522C268.529 117.575 268.529 117.629 268.52 117.682C262.16 121.242 258.42 117.682 263.6 114.702C260.5 115.302 258.06 112.702 262.52 109.922C262.159 109.905 261.802 109.838 261.46 109.722C260.52 110.662 258.78 109.942 257.14 103.442C258.069 106.444 257.892 109.679 256.64 112.562C256.886 116.659 258.129 120.634 260.26 124.142C260.328 124.245 260.425 124.327 260.538 124.377C260.652 124.426 260.778 124.442 260.9 124.422C264.302 123.659 267.567 122.377 270.58 120.622C270.712 120.542 270.811 120.416 270.855 120.268C270.899 120.12 270.887 119.961 270.82 119.822Z" fill="#1890ff"/>
<path d="M293.34 113.042C298.68 115.042 299.2 101.462 299.06 95.7216C306.06 90.1416 305.06 82.3616 296.96 78.6616C295.18 70.6616 292 62.3216 288.34 62.7816C287.02 62.9416 287.98 62.2816 269.92 81.9416L247.48 84.6816C245.993 84.8624 244.577 85.4223 243.369 86.3077C242.161 87.1931 241.2 88.3742 240.58 89.7376C239.959 91.1011 239.7 92.6011 239.826 94.0938C239.952 95.5865 240.46 97.0217 241.3 98.2616L230.12 100.262C229.953 100.293 229.805 100.39 229.71 100.531C229.614 100.672 229.578 100.845 229.61 101.012C229.642 101.179 229.739 101.326 229.879 101.422C230.02 101.518 230.193 101.553 230.36 101.522L242.2 99.5216C243.011 100.366 243.997 101.022 245.089 101.444C246.181 101.865 247.352 102.042 248.52 101.962C248.686 101.956 248.844 101.887 248.96 101.767C249.075 101.648 249.14 101.488 249.14 101.322C249.14 100.962 248.8 100.622 248.48 100.682C239.18 100.902 238.48 87.1616 247.62 86.0616H248.16C246.756 90.7277 247.252 95.7594 249.54 100.062C249.604 100.174 249.701 100.264 249.817 100.32C249.933 100.376 250.064 100.395 250.192 100.376C250.319 100.356 250.438 100.299 250.532 100.211C250.627 100.122 250.692 100.008 250.72 99.8816C253.134 98.9685 255.681 98.4551 258.26 98.3616C260.46 98.1416 260.74 98.7816 261.08 99.9416C261.3 100.722 261.22 100.942 261.54 101.082C261.606 101.111 261.678 101.126 261.75 101.126C261.822 101.126 261.894 101.111 261.96 101.082C263.767 99.9737 265.841 99.3791 267.96 99.3616C268.023 99.4727 268.117 99.5624 268.231 99.6194C268.345 99.6765 268.474 99.6981 268.6 99.6816L271.96 99.2616L291.82 112.382L320.58 275.422L295.64 279.822C295.478 279.856 295.336 279.952 295.244 280.09C295.151 280.227 295.115 280.394 295.144 280.557C295.172 280.721 295.263 280.866 295.396 280.964C295.53 281.062 295.696 281.104 295.86 281.082C323.18 276.162 321.62 276.642 321.86 276.322C322.1 276.002 323.32 283.082 293.34 113.042ZM302.4 86.6816C303 91.6816 297.96 94.8816 297.86 95.0816C294.808 97.2005 291.3 98.5708 287.62 99.0816C285.956 92.1905 285.09 85.1307 285.04 78.0416C294 77.4016 301.72 81.1616 302.4 86.6816ZM272.58 97.9216C269.68 95.0016 268.68 86.6816 270.74 82.9616L284.74 67.6416C281.38 80.3816 286.52 100.522 286.44 99.9816C286.423 100.04 286.423 100.103 286.44 100.162C287.259 103.358 288.454 106.446 290 109.362L272.58 97.9216Z" fill="#1890ff"/>
<path d="M175.86 205.802C171.796 205.357 167.709 205.15 163.62 205.182C163.45 205.182 163.287 205.114 163.167 204.994C163.047 204.874 162.98 204.711 162.98 204.542C162.98 204.372 163.047 204.209 163.167 204.089C163.287 203.969 163.45 203.902 163.62 203.902C167.742 203.868 171.862 204.075 175.96 204.522C176.13 204.535 176.287 204.615 176.398 204.744C176.509 204.874 176.563 205.042 176.55 205.212C176.537 205.381 176.457 205.539 176.327 205.65C176.198 205.76 176.03 205.815 175.86 205.802Z" fill="#1890ff"/>
<path d="M173.68 117.822C186.06 112.982 189 103.602 191.48 93.8216C184.6 91.6016 187.6 84.7616 191.08 87.4016C194.56 90.0416 193.28 86.5016 192.96 82.8616C197.384 81.6273 201.932 80.896 206.52 80.6816C212.72 99.4216 212.2 112.202 195.04 102.142C196 104.525 197.405 106.704 199.18 108.562C199.491 111.168 200.465 113.65 202.009 115.772C203.553 117.894 205.616 119.585 208 120.682L210 121.862C209.85 127.651 208.846 133.386 207.02 138.882C198.8 132.342 183.02 122.422 171.58 118.642L173.68 117.822Z" fill="#FFE7EA"/>
<path d="M292 312.462C292.096 312.419 292.179 312.352 292.242 312.268C292.305 312.184 292.345 312.086 292.36 311.982C294.36 300.362 299.48 254.662 300.16 239.982C300.74 226.922 299.38 219.022 265.74 198.342C269.74 195.002 270.56 186.342 270.1 133.242C270.1 130.642 264.8 129.982 261.86 129.722C260.76 123.722 261.28 124.342 260.88 124.402C260.48 124.462 260.1 123.942 259.8 123.442C259.58 125.782 261.34 133.442 261.8 136.562C255.214 137.831 248.485 138.195 241.8 137.642C241.56 134.582 240.96 129.322 240.86 124.642C240.66 116.142 241.3 114.202 243.38 110.362C245.299 106.706 247.642 103.289 250.36 100.182C251.68 99.0016 255.46 98.6616 258.36 98.4016C260.52 98.1816 260.68 98.8016 260.98 99.8216C261.534 102.45 261.763 105.137 261.66 107.822C261.66 108.682 261.2 109.402 260.88 109.442C260.56 109.482 259.14 108.262 257.88 103.282C257.84 103.115 257.736 102.97 257.589 102.88C257.443 102.79 257.267 102.762 257.1 102.802C256.933 102.841 256.788 102.946 256.698 103.092C256.608 103.239 256.58 103.415 256.62 103.582C257.96 109.762 256.8 113.982 253.06 116.522C252.919 116.617 252.823 116.765 252.791 116.931C252.759 117.098 252.795 117.271 252.89 117.412C252.985 117.552 253.133 117.649 253.3 117.681C253.467 117.713 253.639 117.677 253.78 117.582C255.236 116.606 256.423 115.28 257.231 113.724C258.039 112.168 258.441 110.434 258.4 108.682C259.08 109.902 259.78 110.682 260.54 110.682C258.54 112.682 259.44 114.682 261.7 115.282C259.46 117.442 260.8 119.802 263.58 119.802C265.719 119.665 267.786 118.976 269.58 117.802C270.035 117.535 270.421 117.166 270.709 116.725C270.997 116.283 271.178 115.78 271.238 115.256C271.298 114.733 271.236 114.202 271.056 113.707C270.875 113.211 270.583 112.764 270.2 112.402C270.557 112.088 270.843 111.702 271.039 111.269C271.235 110.836 271.336 110.367 271.336 109.892C271.336 109.416 271.235 108.947 271.039 108.514C270.843 108.081 270.557 107.695 270.2 107.382C270.76 106.703 271.04 105.836 270.98 104.958C270.921 104.08 270.527 103.258 269.88 102.662C270.251 102.247 270.49 101.73 270.567 101.178C270.643 100.627 270.553 100.065 270.308 99.5644C270.063 99.0641 269.675 98.6482 269.192 98.3698C268.71 98.0914 268.156 97.9632 267.6 98.0016C265.752 98.123 263.949 98.6198 262.3 99.4616C261.8 97.7816 261 96.8216 258.3 97.1016C255.02 97.4016 251.32 97.7416 249.7 99.2016C246.859 102.41 244.414 105.949 242.42 109.742C240.02 114.182 239.02 117.522 240.12 131.162C237.02 131.862 233.7 133.362 233.86 135.462C233.86 135.582 233.86 135.282 235.02 142.282C229.594 134.887 222.764 128.634 214.92 123.882C215.928 123.35 216.772 122.553 217.361 121.577C217.95 120.6 218.26 119.482 218.26 118.342C219.516 118.909 220.906 119.115 222.273 118.935C223.64 118.756 224.929 118.198 225.996 117.324C227.062 116.451 227.864 115.297 228.31 113.993C228.756 112.688 228.829 111.285 228.52 109.942C234.38 109.282 235.78 102.822 232.74 98.8016C233.703 98.5432 234.571 98.0124 235.239 97.2728C235.908 96.5333 236.349 95.6165 236.51 94.6325C236.67 93.6485 236.543 92.6391 236.144 91.7254C235.745 90.8117 235.091 90.0326 234.26 89.4816C235.156 89.0944 235.939 88.4841 236.533 87.7088C237.127 86.9335 237.512 86.0191 237.652 85.0527C237.793 84.0862 237.683 83.1 237.335 82.1878C236.986 81.2756 236.409 80.4679 235.66 79.8416C240.72 77.1216 239.06 70.4216 234.7 67.8416C238.36 64.9016 237.1 58.0216 231.92 57.3216C232.564 56.2785 232.894 55.0724 232.872 53.8469C232.851 52.6213 232.477 51.4278 231.797 50.4083C231.116 49.3887 230.158 48.586 229.034 48.0956C227.911 47.6051 226.67 47.4476 225.46 47.6416C225.9 42.3216 222.1 38.8416 216.4 40.8016C216.309 39.5622 215.886 38.3701 215.176 37.3499C214.467 36.3296 213.496 35.5186 212.366 35.0015C211.236 34.4845 209.988 34.2804 208.752 34.4106C207.516 34.5408 206.338 35.0005 205.34 35.7416C203.34 30.1616 197.02 28.3016 191.9 33.3216C189.7 27.9416 181 27.6216 179.02 33.1016C174.6 28.9416 166.62 31.3416 165.9 36.8616C160.24 32.5816 153.2 37.9416 152.88 44.2416C147.1 42.0416 141.82 49.3416 143.64 55.0216C136.66 56.5016 134.78 63.3616 139.04 68.0816C132.92 70.8216 133.26 77.3016 137.66 80.9216C132.86 84.9216 134.1 91.8616 139.96 93.4816C139.183 94.7181 138.743 96.1365 138.684 97.5958C138.626 99.0551 138.95 100.504 139.626 101.799C140.302 103.094 141.305 104.189 142.535 104.975C143.766 105.762 145.181 106.212 146.64 106.282C144.08 112.102 148.64 117.882 154.5 116.282C154.251 117.571 154.363 118.903 154.826 120.132C155.288 121.361 156.082 122.437 157.12 123.242C144.62 127.842 132.02 132.722 122.1 139.122C107.72 148.422 101.72 159.662 112.44 173.002C120.74 183.302 126.82 191.002 139.38 204.202C141.16 206.602 144.62 206.202 147.5 205.282C148.909 206.342 150.423 207.253 152.02 208.002C151.786 209.687 151.998 211.404 152.633 212.983C153.268 214.562 154.304 215.947 155.64 217.002C156.277 217.609 157.086 218.004 157.956 218.133C158.826 218.262 159.715 218.118 160.5 217.722C161.244 218.298 162.133 218.657 163.068 218.759C164.004 218.862 164.949 218.703 165.8 218.302C168.5 219.762 170.58 219.782 172.62 217.342C172.62 221.062 172.62 237.562 176.2 237.562C176.98 237.562 177.64 236.802 177.94 235.562C178.52 238.302 179.22 241.162 180.06 244.122C169.84 238.342 141.86 220.922 141.18 221.262C140.5 221.602 139.18 222.442 138.2 223.042C134.86 220.322 131.64 216.662 130.76 216.902C116.82 220.882 87.7 242.222 82 252.682C81.9504 252.773 81.9238 252.875 81.9225 252.979C81.9212 253.083 81.9452 253.185 81.9925 253.278C82.0397 253.371 82.1088 253.45 82.1938 253.51C82.2787 253.57 82.3769 253.608 82.48 253.622C99.56 255.982 111.22 249.742 122.2 248.022C121.893 250.006 121.76 252.014 121.8 254.022C121.769 254.139 121.772 254.263 121.807 254.38C121.842 254.496 121.909 254.601 122 254.682C127.1 258.682 168.34 288.682 185.78 299.842C206.88 313.462 222.62 306.582 224.92 286.282C225.78 278.702 227.4 258.462 228.78 240.762C228.78 240.762 254.2 247.382 259.94 248.762C259.2 255.902 255 292.082 255 292.122C253.38 306.122 253.38 305.262 253.74 305.562C254.8 306.434 255.916 307.235 257.08 307.962C254.8 314.642 249.54 320.162 250.1 321.322C256.2 334.122 280.2 355.202 293.4 363.202C293.501 363.257 293.614 363.286 293.729 363.284C293.844 363.283 293.957 363.251 294.056 363.192C294.155 363.134 294.237 363.05 294.294 362.95C294.351 362.85 294.38 362.737 294.38 362.622C293.54 340.162 279.62 328.722 280.5 314.462C284.431 314.606 288.349 313.925 292 312.462ZM268.78 116.682C267.379 117.583 265.805 118.182 264.16 118.442C262.94 118.642 262.16 118.202 261.88 117.702C261.6 117.202 262.12 116.282 263.88 115.242C265.748 114.907 267.538 114.228 269.16 113.242C269.442 113.45 269.665 113.728 269.805 114.049C269.946 114.37 270 114.723 269.961 115.071C269.923 115.42 269.793 115.752 269.586 116.034C269.379 116.317 269.101 116.54 268.78 116.682ZM268.2 107.402C266.532 108.479 264.604 109.087 262.62 109.162C262.959 107.918 263.054 106.621 262.9 105.342C264.989 105.082 267.018 104.466 268.9 103.522C270 104.362 270 106.342 268.2 107.482V107.402ZM267.54 99.2416C269.68 99.2416 269.54 101.842 267.54 102.702C266.03 103.366 264.434 103.817 262.8 104.042C262.746 102.934 262.619 101.832 262.42 100.742C263.997 99.8872 265.748 99.4017 267.54 99.3216V99.2416ZM262.82 110.442C265.093 110.324 267.288 109.576 269.16 108.282C269.374 108.395 269.556 108.561 269.689 108.764C269.822 108.967 269.901 109.2 269.92 109.442C270.2 111.342 268.1 112.382 266.32 113.142C264.12 114.062 261.4 114.682 260.82 113.142C260.6 112.682 261 111.702 262.82 110.522V110.442ZM268.82 135.082C268.82 139.002 268.82 142.682 268.82 146.122C264.14 151.742 246.28 152.682 237.14 149.102C236.52 145.322 235.78 140.662 235.14 137.442C240.54 140.202 262.8 139.882 268.9 135.162L268.82 135.082ZM192.12 94.0016C192.158 93.8454 192.136 93.6804 192.059 93.5395C191.981 93.3987 191.853 93.2923 191.7 93.2416C185.86 91.3616 188 85.8616 190.7 87.9216C191.58 88.6016 192.58 89.2216 193.36 88.7816C194.5 88.1216 193.94 86.0416 193.66 83.3616C197.702 82.1982 201.861 81.4872 206.06 81.2416C211.92 99.2416 211.72 110.962 195.36 101.502C195.246 101.435 195.114 101.406 194.982 101.418C194.85 101.429 194.725 101.481 194.625 101.567C194.524 101.652 194.452 101.767 194.419 101.895C194.386 102.023 194.393 102.158 194.44 102.282C195.408 104.691 196.812 106.901 198.58 108.802C199.5 115.682 203.22 118.802 209.34 122.222C209.167 127.522 208.286 132.775 206.72 137.842C196.541 129.984 185.346 123.539 173.44 118.682C185.38 113.962 188.98 106.342 192.12 94.0016ZM130.26 192.682C123.42 185.002 119.16 179.602 113.28 172.302C105.08 162.102 105.52 151.362 122.62 140.302C136.34 131.462 155.38 125.482 171.58 119.302C182.6 122.982 197.82 132.362 206.62 139.302C206.698 139.365 206.79 139.41 206.888 139.431C206.987 139.453 207.089 139.451 207.186 139.425C207.283 139.4 207.373 139.352 207.449 139.285C207.524 139.219 207.583 139.135 207.62 139.042C209.383 133.819 210.386 128.37 210.6 122.862C220.51 128.212 228.993 135.858 235.34 145.162C236.7 153.562 239.34 169.842 240.28 174.462C240.297 174.544 240.33 174.623 240.378 174.693C240.425 174.763 240.486 174.823 240.556 174.869C240.627 174.915 240.706 174.948 240.789 174.963C240.872 174.979 240.957 174.979 241.04 174.962C241.123 174.945 241.201 174.911 241.271 174.864C241.341 174.816 241.401 174.756 241.447 174.685C241.494 174.615 241.526 174.536 241.542 174.453C241.558 174.37 241.557 174.284 241.54 174.202C240.74 170.522 239.04 159.982 237.54 150.542C245.88 153.462 262.62 153.422 269 147.922C269.16 188.682 268.12 195.042 264.64 197.562C256.64 192.722 247.02 187.182 235.24 180.742C232.953 175.656 230.95 170.449 229.24 165.142C227.48 141.322 221.92 136.162 216.52 131.142L215.92 130.602C215.862 130.533 215.79 130.478 215.709 130.439C215.629 130.4 215.541 130.379 215.451 130.376C215.361 130.373 215.272 130.39 215.189 130.424C215.106 130.458 215.032 130.509 214.97 130.573C214.908 130.638 214.86 130.715 214.83 130.8C214.799 130.884 214.787 130.974 214.794 131.063C214.8 131.153 214.826 131.24 214.868 131.319C214.911 131.398 214.969 131.467 215.04 131.522C220.7 136.782 223.94 140.482 226.24 151.822C227.747 160.407 228.51 169.105 228.52 177.822C223.12 186.682 203.18 188.262 192 184.802C186.62 178.522 179.26 170.482 173.3 164.422C175.388 160.993 177.29 157.454 179 153.822C179.048 153.712 179.065 153.591 179.048 153.473C179.031 153.354 178.982 153.242 178.905 153.151C178.827 153.059 178.726 152.991 178.612 152.954C178.498 152.917 178.376 152.913 178.26 152.942C171.5 154.822 152.38 160.662 147.52 162.342C145.32 159.842 143.38 157.702 141.96 156.202C141.841 156.08 141.678 156.01 141.507 156.008C141.336 156.006 141.172 156.072 141.05 156.192C140.928 156.311 140.858 156.474 140.857 156.645C140.855 156.815 140.921 156.98 141.04 157.102C144.34 160.582 150.62 167.782 156.26 174.382C144.86 173.022 131.36 184.442 130.26 192.682ZM167.52 185.502C162 179.022 154.82 170.682 148.5 163.382C151.54 162.362 158.5 160.222 165.02 158.202C174.111 166.735 182.711 175.776 190.78 185.282C185.294 189.62 181.097 195.373 178.64 201.922C177.76 200.742 177 200.302 167.72 191.262C168.091 190.876 168.381 190.419 168.573 189.919C168.764 189.418 168.853 188.885 168.835 188.349C168.816 187.814 168.69 187.288 168.464 186.802C168.238 186.316 167.917 185.881 167.52 185.522V185.502ZM140 197.022C139.14 198.421 138.626 200.004 138.5 201.642C135.94 198.975 133.613 196.448 131.52 194.062C131.08 186.482 145.8 173.242 157.68 175.902L164.6 183.902C163.187 183.6 161.732 183.546 160.3 183.742C160.152 183.683 159.988 183.683 159.84 183.742C155.863 184.487 152.074 186.015 148.692 188.236C145.311 190.457 142.404 193.328 140.14 196.682C140.069 196.783 140.021 196.899 140 197.022ZM176.64 235.022C176.614 235.54 176.425 236.037 176.1 236.442C176.1 236.442 173.58 235.482 173.8 215.582C174.641 214.047 175.376 212.457 176 210.822C176.045 210.669 176.032 210.506 175.963 210.362C175.894 210.219 175.775 210.107 175.628 210.047C175.48 209.987 175.316 209.984 175.167 210.038C175.018 210.093 174.894 210.201 174.82 210.342C173.9 212.582 171.96 217.242 169.72 218.002C169.222 218.134 168.701 218.162 168.192 218.083C167.682 218.004 167.195 217.819 166.76 217.542C168.477 215.457 169.829 213.097 170.76 210.562C170.826 210.405 170.828 210.229 170.764 210.071C170.7 209.914 170.576 209.788 170.42 209.722C170.264 209.655 170.087 209.654 169.93 209.718C169.772 209.781 169.646 209.905 169.58 210.062C167.58 214.882 166.06 217.062 164.58 217.562C164.051 217.672 163.506 217.673 162.977 217.567C162.447 217.46 161.945 217.248 161.5 216.942C163.135 214.859 164.48 212.565 165.5 210.122C165.566 209.969 165.57 209.796 165.511 209.64C165.452 209.484 165.334 209.357 165.183 209.287C165.032 209.217 164.859 209.208 164.702 209.263C164.544 209.318 164.414 209.432 164.34 209.582C163.4 211.582 161.22 216.462 159.28 217.002C158.54 217.222 157.66 217.002 156.36 216.062C155.284 215.171 154.442 214.032 153.905 212.742C153.369 211.453 153.154 210.052 153.28 208.662C154.663 209.218 156.096 209.64 157.56 209.922C157.56 210.062 157.02 211.242 156.98 211.382C156.946 211.462 156.928 211.548 156.928 211.635C156.928 211.722 156.946 211.808 156.98 211.887C157.015 211.967 157.065 212.039 157.128 212.099C157.191 212.159 157.266 212.205 157.348 212.235C157.429 212.265 157.516 212.278 157.603 212.273C157.69 212.268 157.775 212.246 157.853 212.207C157.931 212.169 158 212.115 158.056 212.048C158.112 211.982 158.155 211.905 158.18 211.822C158.34 211.382 159.52 208.622 159.78 207.822C159.833 207.66 159.82 207.484 159.743 207.332C159.666 207.18 159.532 207.065 159.37 207.012C159.208 206.959 159.032 206.972 158.88 207.049C158.728 207.126 158.613 207.26 158.56 207.422C158.56 207.662 158.28 208.162 158.06 208.722C154.672 207.994 151.463 206.597 148.623 204.612C145.782 202.627 143.367 200.094 141.52 197.162C145.922 190.921 152.564 186.622 160.06 185.162C162.54 187.842 166.44 191.662 166.58 191.782C176.98 201.942 177.34 201.782 178.34 203.542C179.336 205.374 179.735 207.472 179.48 209.542C179.1 213.042 176.98 232.242 176.6 234.982L176.64 235.022ZM166.22 237.802C169.74 241.322 176.6 248.342 183.94 256.522C184.36 257.642 184.78 258.762 185.22 259.902C185.281 260.061 185.403 260.189 185.558 260.259C185.714 260.328 185.891 260.333 186.05 260.272C186.209 260.211 186.338 260.089 186.407 259.933C186.476 259.778 186.481 259.601 186.42 259.442C182.84 250.469 180.16 241.164 178.42 231.662C179.16 225.162 180.54 212.462 180.72 209.662C180.927 207.469 180.548 205.26 179.62 203.262C181.977 196.441 186.264 190.452 191.96 186.022C193.329 186.425 194.717 186.759 196.12 187.022C182.26 208.782 187.2 242.082 193.72 274.582C183.42 268.022 142.78 242.882 139.38 240.582C142.43 235.601 146.962 231.699 152.34 229.422L166.22 237.802ZM141.12 222.942L150.82 228.682C139.94 233.322 131.74 248.202 131.28 259.942C127.16 256.942 124.18 254.722 123 253.822C122.936 247.515 124.584 241.308 127.768 235.864C130.952 230.419 135.552 225.939 141.08 222.902L141.12 222.942ZM261.28 248.302C261.289 248.148 261.244 247.995 261.153 247.871C261.062 247.747 260.93 247.659 260.78 247.622L257.62 246.842C247.554 241.116 238.248 234.148 229.92 226.102C230.42 219.742 230.82 214.642 231.04 212.102C231.056 211.932 231.004 211.763 230.895 211.632C230.786 211.5 230.63 211.418 230.46 211.402C230.29 211.386 230.121 211.438 229.99 211.547C229.859 211.655 229.776 211.812 229.76 211.982C229.42 215.982 224.64 277.322 223.64 286.182C221.64 304.722 207.52 312.382 186.48 298.802C173 290.102 146.94 271.422 132.58 260.942C132.856 254.15 134.926 247.553 138.58 241.822C145.32 246.402 172.88 263.042 194.2 276.642C194.305 276.711 194.429 276.748 194.555 276.747C194.682 276.747 194.805 276.709 194.91 276.638C195.015 276.568 195.096 276.468 195.144 276.351C195.192 276.234 195.205 276.106 195.18 275.982C188.52 243.042 183.18 209.102 197.4 187.422C207.4 188.902 223.8 187.282 229.28 179.162C294.2 214.302 299.72 223.162 298.94 240.062C298.44 251.182 295.38 280.222 293.06 298.582C282.44 302.582 263.18 299.022 256.32 291.782C257.34 282.542 260.9 251.842 261.24 248.262L261.28 248.302ZM254.8 304.682C255.1 302.042 255.56 297.982 256.12 293.222C263.76 300.282 281.92 303.602 292.86 299.862C292.24 304.782 291.66 308.822 291.22 311.382C282.8 315.082 264.68 312.682 254.8 304.682Z" fill="#1890ff"/>
</svg>
