<svg width="400" height="400" viewBox="0 0 400 400" fill="none" xmlns="http://www.w3.org/2000/svg">
<path d="M141.1 221.48C144.28 223.32 148.16 225.62 152.24 228.04C140.52 232.04 131.76 248.6 131.92 260.46C126.98 256.86 123.46 254.26 122.36 253.4C122.239 246.869 123.925 240.432 127.232 234.799C130.539 229.166 135.338 224.557 141.1 221.48V221.48Z" fill="#B2BEC3"/>
<path d="M293.6 298.24C292.88 303.9 292.24 308.52 291.78 311.22C283.32 315.22 264.48 312.96 254.1 304.34C254.44 301.48 254.98 296.76 255.62 291.2C262.44 298.74 282.42 302.7 293.6 298.24Z" fill="#B2BEC3"/>
<path d="M184.46 255.48C181.441 247.541 179.164 239.34 177.66 230.98C178.4 224.5 179.66 211.7 179.96 208.98C180.161 206.807 179.76 204.62 178.8 202.66C181.218 195.512 185.708 189.246 191.7 184.66C193.461 185.197 195.259 185.604 197.08 185.88C182.92 207.06 187.42 240.14 194.54 275.28C172.54 261.28 144.2 244.2 138.4 240.12C141.576 234.714 146.438 230.498 152.24 228.12L166.5 236.58C171.76 241.76 178.26 248.58 184.46 255.48Z" fill="#B2BEC3"/>
<path d="M229.22 225.62C228.9 229.74 225.22 277.78 224.26 285.46C222.12 304.8 207.28 312.2 186.12 298.54C172.84 290 146.36 271 132 260.48C132.237 253.225 134.48 246.178 138.48 240.12C144.3 244.12 172.48 261.2 194.62 275.3C187.48 240.18 183 207.1 197.16 185.92C209.16 187.8 224.62 185.02 229.16 177.5C240.06 183.5 253.32 190.72 264.76 197.74C299.4 219 300.26 226.8 299.68 239.28C299.14 250.78 296.06 280.02 293.68 298.24C282.5 302.7 262.52 298.72 255.68 291.16C257.68 274.58 260.34 250.7 260.62 247.52L257.52 246.76C247.216 240.962 237.703 233.856 229.22 225.62V225.62Z" fill="#B2BEC3"/>
<path d="M269.02 111.84C269.467 112.056 269.845 112.391 270.114 112.807C270.383 113.224 270.532 113.707 270.544 114.203C270.556 114.699 270.432 115.189 270.184 115.619C269.937 116.049 269.575 116.402 269.14 116.64C267.661 117.575 266.008 118.201 264.28 118.48C261.4 118.92 259.42 116.48 263.64 114.02C265.561 113.659 267.39 112.917 269.02 111.84V111.84Z" fill="#B2BEC3"/>
<path d="M269.1 106.94C271.1 107.66 271.1 110.42 269.1 111.84C267.446 112.924 265.588 113.659 263.64 114C260.54 114.6 258.1 112 262.56 109.22C264.926 109.171 267.216 108.373 269.1 106.94V106.94Z" fill="#B2BEC3"/>
<path d="M269.1 106.94C268.042 107.787 266.822 108.41 265.516 108.771C264.209 109.132 262.843 109.223 261.5 109.04C261.951 108.516 262.205 107.851 262.22 107.16C262.22 106.34 262.22 105.3 262.22 104.16C264.515 103.953 266.742 103.272 268.76 102.16C269.18 102.387 269.536 102.717 269.795 103.118C270.055 103.52 270.208 103.98 270.242 104.457C270.276 104.933 270.189 105.411 269.989 105.845C269.79 106.279 269.484 106.656 269.1 106.94V106.94Z" fill="#B2BEC3"/>
<path d="M268.56 98.16C270.3 98.82 270.28 101.66 267.84 102.68C266.046 103.452 264.144 103.945 262.2 104.14C262.14 102.684 261.98 101.234 261.72 99.8C263.5 98.74 267 97.54 268.56 98.16Z" fill="#B2BEC3"/>
<path d="M262.56 136.4C255.529 137.835 248.325 138.226 241.18 137.56C241.18 136.2 240.84 133.78 240.62 131.04C239.4 116.48 240.62 113.5 242.8 109.42C244.789 105.71 247.169 102.224 249.9 99.02C251.36 97.64 256.14 97.26 258.2 97.02C260.62 96.78 261.24 97.44 261.72 99.76C262.15 102.181 262.304 104.644 262.18 107.1C262.18 109.42 259.5 112.12 257.14 102.7C257.82 105.425 257.82 108.275 257.14 111C257.302 115.065 258.426 119.034 260.42 122.58C260.18 124.72 262.28 134 262.56 136.4Z" fill="#B2BEC3"/>
<path d="M173.1 214.7C170.68 218.8 168.64 218.7 165.62 217C164.12 218.1 162.54 217.68 160.32 216.38C158.98 217.44 157.68 217.14 155.84 215.92C152.92 213.92 152.26 210.12 152.52 207.04C147.573 204.779 143.4 201.114 140.52 196.5C144.3 189.98 153.34 184.68 160.04 183.78C164.4 188.5 171.72 195.4 177.16 200.66C178.225 201.755 179.032 203.074 179.523 204.52C180.014 205.966 180.177 207.503 180 209.02C179.78 211.7 177.36 233.86 177.28 234.42C176.78 237.8 172.84 239.66 173.1 214.7Z" fill="#B2BEC3"/>
<path d="M222.72 293.1C222.572 293.073 222.438 292.996 222.342 292.881C222.246 292.766 222.193 292.62 222.193 292.47C222.193 292.32 222.246 292.174 222.342 292.059C222.438 291.944 222.572 291.866 222.72 291.84L256 286C256.164 285.978 256.33 286.02 256.464 286.118C256.597 286.215 256.688 286.361 256.716 286.524C256.745 286.687 256.709 286.855 256.616 286.992C256.524 287.129 256.382 287.225 256.22 287.26C217.64 294 222.94 293.1 222.72 293.1Z" fill="white"/>
<path d="M110.28 149.34L105.5 122.2C105.471 122.033 105.509 121.861 105.607 121.723C105.704 121.584 105.853 121.49 106.02 121.46L161.56 111.66C161.73 111.631 161.904 111.671 162.045 111.77C162.185 111.869 162.281 112.021 162.31 112.19C162.339 112.36 162.3 112.534 162.2 112.675C162.101 112.816 161.95 112.911 161.78 112.94L106.88 122.62L111.54 149.12C111.558 149.204 111.559 149.291 111.543 149.376C111.526 149.461 111.493 149.541 111.445 149.612C111.397 149.684 111.335 149.745 111.262 149.791C111.19 149.838 111.109 149.87 111.024 149.885C110.939 149.9 110.853 149.897 110.769 149.878C110.685 149.858 110.606 149.822 110.536 149.771C110.467 149.72 110.408 149.656 110.364 149.582C110.32 149.508 110.292 149.426 110.28 149.34Z" fill="white"/>
<path d="M122.76 220L114.92 175.6C114.898 175.436 114.94 175.27 115.038 175.136C115.135 175.003 115.281 174.912 115.444 174.884C115.607 174.855 115.775 174.891 115.912 174.983C116.049 175.076 116.145 175.218 116.18 175.38L124 219.86C123.984 220.004 123.919 220.138 123.817 220.241C123.714 220.343 123.58 220.408 123.436 220.424C123.292 220.441 123.146 220.407 123.024 220.33C122.901 220.253 122.808 220.137 122.76 220Z" fill="white"/>
<path d="M138.78 308C138.629 308.003 138.482 307.952 138.365 307.857C138.248 307.762 138.168 307.628 138.14 307.48L129.7 259.48C129.682 259.396 129.681 259.309 129.697 259.225C129.714 259.14 129.747 259.06 129.795 258.988C129.843 258.917 129.905 258.856 129.978 258.809C130.05 258.762 130.131 258.73 130.216 258.716C130.301 258.701 130.387 258.703 130.471 258.723C130.555 258.742 130.634 258.779 130.704 258.83C130.773 258.88 130.832 258.945 130.876 259.019C130.92 259.093 130.948 259.175 130.96 259.26L139.3 306.58L186.48 298.26C186.644 298.238 186.81 298.28 186.944 298.378C187.077 298.476 187.168 298.621 187.196 298.784C187.225 298.947 187.189 299.115 187.096 299.252C187.004 299.389 186.862 299.486 186.7 299.52C138.26 308 138.98 308 138.78 308Z" fill="white"/>
<path d="M357.16 370.88C355.94 366.24 349.72 329.64 302.04 59.5002C300.855 52.8155 297.066 46.8738 291.506 42.9783C285.946 39.0828 279.068 37.5514 272.38 38.7202L104 68.4202C97.3242 69.5917 91.3862 73.3648 87.49 78.9109C83.5939 84.457 82.0581 91.3227 83.22 98.0002L127.74 350.56C127.754 350.644 127.752 350.73 127.733 350.813C127.715 350.897 127.68 350.975 127.63 351.045C127.531 351.186 127.38 351.281 127.21 351.31C127.04 351.339 126.866 351.3 126.725 351.201C126.585 351.101 126.489 350.95 126.46 350.78L82 98.3402C81.3782 94.8623 81.4486 91.2959 82.2072 87.8453C82.9658 84.3947 84.3977 81.1277 86.4209 78.2313C88.444 75.335 91.0188 72.8662 93.9975 70.9664C96.9763 69.0667 100.301 67.7732 103.78 67.1602L272.16 37.4602C279.184 36.233 286.408 37.8407 292.249 41.9308C298.09 46.0209 302.071 52.2598 303.32 59.2802C349.74 322.56 357.58 364.52 358.18 370.64C358.36 372.5 357.26 371.22 357.16 370.88Z" fill="white"/>
<path d="M351.5 137.22C349.463 137.22 347.471 136.616 345.778 135.484C344.084 134.352 342.764 132.744 341.984 130.862C341.204 128.98 341.001 126.909 341.398 124.911C341.795 122.913 342.776 121.077 344.217 119.637C345.657 118.196 347.493 117.215 349.491 116.818C351.489 116.421 353.56 116.625 355.442 117.404C357.324 118.184 358.932 119.504 360.064 121.198C361.196 122.892 361.8 124.883 361.8 126.92C361.795 129.65 360.708 132.267 358.777 134.197C356.847 136.128 354.23 137.215 351.5 137.22ZM351.5 117.9C349.716 117.9 347.972 118.429 346.489 119.42C345.005 120.411 343.849 121.82 343.167 123.468C342.484 125.117 342.305 126.93 342.653 128.68C343.001 130.43 343.86 132.037 345.122 133.298C346.383 134.56 347.991 135.419 349.74 135.767C351.49 136.115 353.304 135.936 354.952 135.254C356.6 134.571 358.009 133.415 359 131.931C359.991 130.448 360.52 128.704 360.52 126.92C360.489 124.547 359.525 122.281 357.837 120.612C356.15 118.943 353.873 118.005 351.5 118V117.9Z" fill="white"/>
<path d="M380.34 157.08C378.303 157.08 376.311 156.476 374.618 155.344C372.924 154.212 371.604 152.604 370.824 150.722C370.044 148.84 369.84 146.769 370.238 144.771C370.635 142.773 371.616 140.937 373.057 139.497C374.497 138.056 376.333 137.075 378.331 136.678C380.329 136.28 382.4 136.484 384.282 137.264C386.164 138.044 387.772 139.364 388.904 141.058C390.036 142.751 390.64 144.743 390.64 146.78C390.635 149.51 389.548 152.127 387.617 154.057C385.687 155.988 383.07 157.075 380.34 157.08ZM380.34 137.76C378.556 137.76 376.812 138.289 375.329 139.28C373.845 140.271 372.689 141.68 372.007 143.328C371.324 144.976 371.145 146.79 371.493 148.54C371.841 150.289 372.7 151.897 373.962 153.158C375.223 154.42 376.831 155.279 378.58 155.627C380.33 155.975 382.144 155.796 383.792 155.113C385.44 154.431 386.849 153.275 387.84 151.791C388.831 150.308 389.36 148.564 389.36 146.78C389.36 145.595 389.127 144.423 388.673 143.328C388.22 142.234 387.556 141.239 386.718 140.402C385.881 139.564 384.886 138.9 383.792 138.447C382.697 137.993 381.525 137.76 380.34 137.76Z" fill="white"/>
<path d="M348 162.94C347.884 162.938 347.771 162.906 347.673 162.845C347.575 162.784 347.495 162.698 347.441 162.595C347.388 162.493 347.363 162.378 347.37 162.262C347.377 162.147 347.415 162.036 347.48 161.94L383.48 110.64C383.576 110.5 383.723 110.403 383.89 110.371C384.057 110.339 384.229 110.375 384.37 110.47C384.511 110.566 384.607 110.713 384.639 110.88C384.671 111.047 384.636 111.22 384.54 111.36C346 166.28 348.44 162.94 348 162.94Z" fill="white"/>
<path d="M378.98 71.9999C378.18 71.4199 376.12 69.9999 370.64 66.1999C370.052 65.8418 369.542 65.3682 369.141 64.8076C368.741 64.2471 368.458 63.6112 368.311 62.9384C368.163 62.2656 368.153 61.5699 368.281 60.8931C368.409 60.2163 368.673 59.5725 369.057 59.0006C369.441 58.4287 369.937 57.9405 370.515 57.5655C371.093 57.1905 371.741 56.9364 372.419 56.8186C373.098 56.7008 373.794 56.7217 374.464 56.88C375.134 57.0384 375.766 57.3309 376.32 57.7399L377.26 58.3999L377.82 57.6199C378.205 57.071 378.694 56.6033 379.259 56.2434C379.825 55.8835 380.456 55.6385 381.116 55.5224C381.776 55.4063 382.453 55.4214 383.107 55.5669C383.762 55.7123 384.381 55.9852 384.93 56.3699C385.479 56.7547 385.947 57.2438 386.307 57.8094C386.666 58.3749 386.911 59.0058 387.028 59.6661C387.144 60.3263 387.129 61.0029 386.983 61.6573C386.838 62.3117 386.565 62.931 386.18 63.4799C382.18 69.1799 380.86 71.2399 380.18 71.9599C379.5 72.6799 379.58 72.3599 378.98 71.9999ZM373.48 58.1599C372.665 58.1655 371.874 58.4315 371.221 58.919C370.568 59.4065 370.088 60.0901 369.851 60.8697C369.614 61.6494 369.633 62.4843 369.904 63.2526C370.176 64.0208 370.686 64.6822 371.36 65.1399L379.48 70.8199L385.12 62.8199C385.634 61.9889 385.81 60.9925 385.612 60.0356C385.414 59.0787 384.856 58.2342 384.055 57.6757C383.253 57.1172 382.267 56.8872 381.301 57.0331C380.335 57.179 379.461 57.6896 378.86 58.4599L377.92 59.7599C377.82 59.8931 377.673 59.9821 377.508 60.0082C377.344 60.0344 377.176 59.9955 377.04 59.8999C376.093 58.9115 374.837 58.2764 373.48 58.0999V58.1599Z" fill="white"/>
<path d="M162.14 314.16C160.722 313.174 158.971 312.788 157.27 313.088C155.569 313.388 154.055 314.348 153.06 315.76L152.2 316.98C151.411 316.222 150.464 315.649 149.426 315.303C148.388 314.957 147.286 314.847 146.2 314.98C144.931 315.206 143.757 315.802 142.827 316.694C141.897 317.586 141.252 318.734 140.974 319.992C140.696 321.251 140.797 322.563 141.264 323.764C141.732 324.965 142.544 326.001 143.6 326.74L154.96 334.74C155.029 334.79 155.108 334.825 155.191 334.843C155.274 334.862 155.36 334.864 155.444 334.849C155.527 334.834 155.607 334.803 155.679 334.757C155.75 334.71 155.812 334.65 155.86 334.58L163.86 323.2C164.342 322.494 164.679 321.7 164.853 320.863C165.027 320.026 165.035 319.163 164.875 318.323C164.715 317.484 164.391 316.684 163.922 315.969C163.453 315.255 162.847 314.64 162.14 314.16Z" fill="white"/>
<path d="M173.36 320.96C172.979 318.057 173.766 315.121 175.547 312.796C177.327 310.472 179.958 308.948 182.86 308.56C191.92 306.98 198.62 315.16 195.36 322.56L197.68 326.46C197.738 326.57 197.765 326.693 197.756 326.817C197.747 326.941 197.704 327.059 197.631 327.16C197.558 327.26 197.458 327.337 197.343 327.383C197.228 327.43 197.102 327.442 196.98 327.42L192.5 326.44C185.82 332.42 174.82 329.28 173.36 320.96ZM185.06 309.66C175.34 309.66 170.64 321.04 178.3 326.42C180.356 327.792 182.814 328.431 185.277 328.235C187.741 328.039 190.067 327.02 191.88 325.34C192.24 325 192.5 325.18 195.88 325.9C194.12 322.96 193.88 322.84 194.12 322.4C196.94 316.38 192.26 309.66 185.06 309.66Z" fill="white"/>
<path d="M306.84 309.36L303.4 289.84C303.383 289.756 303.382 289.669 303.399 289.585C303.416 289.5 303.45 289.42 303.499 289.35C303.547 289.279 303.61 289.218 303.682 289.172C303.754 289.126 303.835 289.094 303.92 289.08C324.84 285.4 323.42 285.56 323.74 285.78C324.06 286 323.74 284.48 327.44 305.78C327.458 305.898 327.443 306.019 327.397 306.129C327.35 306.239 327.273 306.334 327.175 306.403C327.078 306.471 326.962 306.511 326.843 306.518C326.724 306.524 326.605 306.497 326.5 306.44L315.88 300.44C310.62 306.58 308.8 308.76 308.08 309.52C307.36 310.28 306.9 309.76 306.84 309.36ZM304.84 290.24L307.94 307.8L315.32 299.18C315.414 299.064 315.547 298.986 315.694 298.961C315.841 298.935 315.992 298.963 316.12 299.04L326.02 304.62L322.92 287.04L304.84 290.24Z" fill="white"/>
<path d="M112 112.68C117.39 112.68 121.76 108.31 121.76 102.92C121.76 97.5299 117.39 93.1602 112 93.1602C106.61 93.1602 102.24 97.5299 102.24 102.92C102.24 108.31 106.61 112.68 112 112.68Z" fill="white"/>
<path d="M126.3 101.04C126.13 101.056 125.961 101.004 125.83 100.895C125.699 100.786 125.616 100.63 125.6 100.46C125.584 100.29 125.636 100.121 125.745 99.9898C125.854 99.8586 126.01 99.7759 126.18 99.76L153.12 95.0199C153.284 94.9977 153.45 95.0399 153.584 95.1377C153.717 95.2354 153.808 95.3811 153.836 95.5441C153.865 95.7071 153.829 95.8748 153.736 96.012C153.644 96.1492 153.502 96.2453 153.34 96.28C126.42 101.04 126.5 101.04 126.3 101.04Z" fill="white"/>
<path d="M72.7 215.14C73.28 214.98 72.92 215.96 77.18 195.38C77.2013 195.278 77.1971 195.172 77.1678 195.071C77.1385 194.971 77.085 194.879 77.0119 194.804C76.9389 194.729 76.8485 194.673 76.7488 194.641C76.6491 194.609 76.5431 194.602 76.44 194.62L27.24 203.3L20.92 190.38C20.8569 190.255 20.7541 190.153 20.6276 190.092C20.5011 190.03 20.3578 190.012 20.22 190.04L9.88 191.86C9.71292 191.892 9.56532 191.989 9.46967 192.13C9.37403 192.27 9.33818 192.443 9.37 192.61C9.40183 192.777 9.49873 192.925 9.63938 193.021C9.78003 193.116 9.95292 193.152 10.12 193.12L20 191.38L39.52 231.26C38.7307 231.777 38.0912 232.493 37.6656 233.335C37.2401 234.177 37.0435 235.116 37.0955 236.058C37.1476 237 37.4464 237.912 37.9621 238.702C38.4778 239.492 39.1922 240.132 40.0337 240.559C40.8751 240.986 41.814 241.184 42.7561 241.133C43.6983 241.083 44.6105 240.785 45.4013 240.271C46.1922 239.756 46.8338 239.043 47.2618 238.202C47.6899 237.361 47.8893 236.422 47.84 235.48L65.66 232.34C66.0548 233.654 66.9363 234.767 68.1242 235.452C69.3122 236.137 70.717 236.343 72.0515 236.027C73.3861 235.711 74.5496 234.897 75.3043 233.752C76.059 232.607 76.3479 231.217 76.1121 229.866C75.8762 228.515 75.1333 227.305 74.0352 226.484C72.9371 225.662 71.5667 225.291 70.2041 225.446C68.8415 225.601 67.5895 226.271 66.704 227.318C65.8185 228.365 65.3664 229.711 65.44 231.08L47.6 234.22C47.3922 233.525 47.0452 232.878 46.5801 232.321C46.115 231.763 45.5415 231.306 44.8944 230.977C44.2473 230.648 43.5401 230.454 42.8156 230.406C42.0912 230.359 41.3646 230.459 40.68 230.7L38 225.08L72.7 215.14ZM70.7 226.68C71.4911 226.68 72.2645 226.915 72.9223 227.354C73.5801 227.794 74.0928 228.419 74.3955 229.15C74.6983 229.88 74.7775 230.685 74.6231 231.461C74.4688 232.237 74.0878 232.949 73.5284 233.509C72.969 234.068 72.2563 234.449 71.4804 234.603C70.7044 234.758 69.9002 234.679 69.1693 234.376C68.4384 234.073 67.8137 233.56 67.3741 232.903C66.9346 232.245 66.7 231.471 66.7 230.68C66.7261 229.61 67.1696 228.593 67.9357 227.846C68.7017 227.098 69.7297 226.68 70.8 226.68H70.7ZM46.44 235.78C46.4328 236.516 46.2278 237.236 45.8466 237.865C45.4653 238.494 44.9219 239.009 44.2731 239.356C43.6244 239.703 42.8943 239.869 42.1594 239.836C41.4245 239.804 40.7118 239.574 40.0962 239.172C39.4805 238.769 38.9845 238.208 38.6602 237.548C38.3359 236.888 38.1952 236.152 38.2528 235.419C38.3105 234.685 38.5644 233.981 38.9879 233.38C39.4114 232.778 39.989 232.302 40.66 232C41.2926 231.707 41.989 231.579 42.6846 231.627C43.3801 231.675 44.0523 231.897 44.6388 232.274C45.2253 232.651 45.707 233.17 46.0394 233.783C46.3718 234.396 46.544 235.083 46.54 235.78H46.44ZM75.74 196L72 214L37.34 224L27.82 204.6L75.74 196Z" fill="white"/>
<path d="M57.88 120.62L46.86 122.62L44.86 111.6C44.8253 111.438 44.7293 111.296 44.5921 111.204C44.4549 111.111 44.2872 111.075 44.1241 111.104C43.9611 111.132 43.8154 111.223 43.7177 111.356C43.62 111.49 43.5778 111.656 43.6 111.82L45.6 122.84L34.58 124.84C34.4947 124.852 34.4126 124.88 34.3386 124.924C34.2646 124.968 34.2002 125.027 34.1494 125.096C34.0985 125.166 34.0622 125.245 34.0426 125.329C34.0231 125.413 34.0206 125.5 34.0354 125.584C34.0502 125.669 34.082 125.75 34.1288 125.822C34.1757 125.895 34.2366 125.957 34.308 126.005C34.3794 126.053 34.4598 126.086 34.5443 126.103C34.6288 126.119 34.7158 126.118 34.8 126.1L45.82 124.1L47.82 135.12C47.8316 135.205 47.8602 135.288 47.9043 135.362C47.9483 135.436 48.0068 135.5 48.0763 135.551C48.1458 135.602 48.2248 135.638 48.3087 135.657C48.3925 135.677 48.4795 135.68 48.5643 135.665C48.6491 135.65 48.7301 135.618 48.8023 135.571C48.8746 135.524 48.9367 135.463 48.9848 135.392C49.033 135.321 49.0662 135.24 49.0826 135.156C49.0989 135.071 49.0981 134.984 49.08 134.9L47.08 123.88L58.1 121.88C58.1853 121.869 58.2675 121.84 58.3415 121.796C58.4155 121.752 58.4798 121.693 58.5306 121.624C58.5815 121.554 58.6178 121.475 58.6374 121.391C58.657 121.308 58.6594 121.221 58.6446 121.136C58.6298 121.051 58.598 120.97 58.5512 120.898C58.5043 120.826 58.4434 120.763 58.372 120.715C58.3006 120.667 58.2203 120.634 58.1357 120.618C58.0512 120.601 57.9642 120.602 57.88 120.62Z" fill="white"/>
<path d="M389.38 216.94L369.56 220.44L366 200.62C365.965 200.458 365.869 200.316 365.732 200.224C365.595 200.131 365.427 200.095 365.264 200.124C365.101 200.152 364.955 200.243 364.858 200.376C364.76 200.51 364.718 200.676 364.74 200.84L368.22 220.66L348.4 224.16C348.238 224.195 348.096 224.291 348.004 224.428C347.911 224.565 347.875 224.733 347.904 224.896C347.932 225.059 348.023 225.205 348.156 225.302C348.29 225.4 348.456 225.442 348.62 225.42L368.44 221.92L371.94 241.74C371.952 241.825 371.98 241.908 372.024 241.982C372.068 242.056 372.127 242.12 372.196 242.171C372.266 242.222 372.345 242.258 372.429 242.277C372.513 242.297 372.599 242.3 372.684 242.285C372.769 242.27 372.85 242.238 372.922 242.191C372.995 242.144 373.057 242.084 373.105 242.012C373.153 241.941 373.186 241.86 373.203 241.776C373.219 241.691 373.218 241.604 373.2 241.52L369.7 221.7L389.52 218.22C389.604 218.211 389.685 218.185 389.76 218.145C389.834 218.104 389.899 218.049 389.952 217.983C390.005 217.917 390.044 217.842 390.068 217.76C390.092 217.679 390.099 217.594 390.09 217.51C390.081 217.426 390.055 217.345 390.014 217.271C389.974 217.196 389.919 217.131 389.853 217.078C389.787 217.025 389.711 216.986 389.63 216.962C389.549 216.938 389.464 216.931 389.38 216.94Z" fill="white"/>
<path d="M270.82 119.14C270.38 118.291 270.024 117.4 269.76 116.48C269.712 116.316 269.601 116.177 269.451 116.095C269.301 116.012 269.124 115.993 268.96 116.04C268.796 116.088 268.657 116.199 268.574 116.349C268.492 116.499 268.472 116.676 268.52 116.84C268.529 116.893 268.529 116.947 268.52 117C262.16 120.56 258.42 117 263.6 114.02C260.5 114.62 258.06 112.02 262.52 109.24C262.159 109.224 261.802 109.157 261.46 109.04C260.52 109.98 258.78 109.26 257.14 102.76C258.069 105.762 257.892 108.998 256.64 111.88C256.886 115.977 258.129 119.952 260.26 123.46C260.328 123.564 260.425 123.646 260.538 123.695C260.652 123.745 260.778 123.761 260.9 123.74C264.302 122.977 267.567 121.696 270.58 119.94C270.712 119.861 270.811 119.735 270.855 119.587C270.899 119.439 270.887 119.28 270.82 119.14Z" fill="white"/>
<path d="M293.34 112.36C298.68 114.36 299.2 100.78 299.06 95.0402C306.06 89.4602 305.06 81.6802 296.96 77.9802C295.18 69.9802 292 61.6402 288.34 62.1002C287.02 62.2602 287.98 61.6002 269.92 81.2602L247.48 84.0002C245.993 84.181 244.577 84.7409 243.369 85.6263C242.161 86.5117 241.2 87.6928 240.58 89.0562C239.959 90.4197 239.7 91.9197 239.826 93.4124C239.952 94.905 240.46 96.3403 241.3 97.5802L230.12 99.5802C229.953 99.6121 229.805 99.709 229.71 99.8496C229.614 99.9903 229.578 100.163 229.61 100.33C229.642 100.497 229.739 100.645 229.879 100.741C230.02 100.836 230.193 100.872 230.36 100.84L242.2 98.8402C243.011 99.6845 243.997 100.341 245.089 100.762C246.181 101.184 247.352 101.361 248.52 101.28C248.686 101.275 248.844 101.205 248.96 101.086C249.075 100.966 249.14 100.807 249.14 100.64C249.14 100.28 248.8 99.9402 248.48 100C239.18 100.22 238.48 86.4802 247.62 85.3802H248.16C246.756 90.0463 247.252 95.078 249.54 99.3802C249.604 99.4922 249.701 99.5822 249.817 99.6383C249.933 99.6943 250.064 99.7139 250.192 99.6945C250.319 99.675 250.438 99.6174 250.532 99.5292C250.627 99.441 250.692 99.3263 250.72 99.2002C253.134 98.2871 255.681 97.7737 258.26 97.6802C260.46 97.4602 260.74 98.1002 261.08 99.2602C261.3 100.04 261.22 100.26 261.54 100.4C261.606 100.429 261.678 100.445 261.75 100.445C261.822 100.445 261.894 100.429 261.96 100.4C263.767 99.2923 265.841 98.6977 267.96 98.6802C268.023 98.7912 268.117 98.881 268.231 98.938C268.345 98.995 268.474 99.0167 268.6 99.0002L271.96 98.5802L291.82 111.7L320.58 274.74L295.64 279.14C295.478 279.175 295.336 279.271 295.244 279.408C295.151 279.545 295.115 279.713 295.144 279.876C295.172 280.039 295.263 280.185 295.396 280.283C295.53 280.38 295.696 280.422 295.86 280.4C323.18 275.48 321.62 275.96 321.86 275.64C322.1 275.32 323.32 282.4 293.34 112.36ZM302.4 86.0002C303 91.0002 297.96 94.2002 297.86 94.4002C294.808 96.5191 291.3 97.8894 287.62 98.4002C285.956 91.5091 285.09 84.4493 285.04 77.3602C294 76.7202 301.72 80.4802 302.4 86.0002ZM272.58 97.2402C269.68 94.3202 268.68 86.0002 270.74 82.2802L284.74 66.9602C281.38 79.7002 286.52 99.8402 286.44 99.3002C286.423 99.359 286.423 99.4215 286.44 99.4802C287.259 102.677 288.454 105.765 290 108.68L272.58 97.2402Z" fill="white"/>
<path d="M175.86 205.12C171.796 204.676 167.709 204.469 163.62 204.5C163.45 204.5 163.287 204.433 163.167 204.313C163.047 204.193 162.98 204.03 162.98 203.86C162.98 203.691 163.047 203.528 163.167 203.408C163.287 203.288 163.45 203.22 163.62 203.22C167.742 203.187 171.862 203.394 175.96 203.84C176.13 203.854 176.287 203.934 176.398 204.063C176.509 204.192 176.563 204.361 176.55 204.53C176.537 204.7 176.457 204.858 176.327 204.968C176.198 205.079 176.03 205.134 175.86 205.12Z" fill="white"/>
<path d="M173.68 117.14C186.06 112.3 189 102.92 191.48 93.14C184.6 90.92 187.6 84.08 191.08 86.72C194.56 89.36 193.28 85.82 192.96 82.18C197.384 80.9457 201.932 80.2144 206.52 80C212.72 98.74 212.2 111.52 195.04 101.46C196 103.844 197.405 106.022 199.18 107.88C199.491 110.486 200.465 112.969 202.009 115.091C203.553 117.213 205.616 118.903 208 120L210 121.18C209.85 126.969 208.846 132.704 207.02 138.2C198.8 131.66 183.02 121.74 171.58 117.96L173.68 117.14Z" fill="#B2BEC3"/>
<path d="M292 311.78C292.096 311.737 292.179 311.671 292.242 311.587C292.305 311.503 292.345 311.404 292.36 311.3C294.36 299.68 299.48 253.98 300.16 239.3C300.74 226.24 299.38 218.34 265.74 197.66C269.74 194.32 270.56 185.66 270.1 132.56C270.1 129.96 264.8 129.3 261.86 129.04C260.76 123.04 261.28 123.66 260.88 123.72C260.48 123.78 260.1 123.26 259.8 122.76C259.58 125.1 261.34 132.76 261.8 135.88C255.214 137.15 248.485 137.513 241.8 136.96C241.56 133.9 240.96 128.64 240.86 123.96C240.66 115.46 241.3 113.52 243.38 109.68C245.299 106.024 247.642 102.608 250.36 99.5001C251.68 98.3201 255.46 97.9801 258.36 97.7201C260.52 97.5001 260.68 98.1201 260.98 99.1401C261.534 101.769 261.763 104.456 261.66 107.14C261.66 108 261.2 108.72 260.88 108.76C260.56 108.8 259.14 107.58 257.88 102.6C257.84 102.433 257.736 102.289 257.589 102.199C257.443 102.109 257.267 102.08 257.1 102.12C256.933 102.16 256.788 102.264 256.698 102.411C256.608 102.557 256.58 102.733 256.62 102.9C257.96 109.08 256.8 113.3 253.06 115.84C252.919 115.936 252.823 116.083 252.791 116.25C252.759 116.417 252.795 116.59 252.89 116.73C252.985 116.871 253.133 116.968 253.3 116.999C253.467 117.031 253.639 116.996 253.78 116.9C255.236 115.925 256.423 114.598 257.231 113.042C258.039 111.487 258.441 109.752 258.4 108C259.08 109.22 259.78 110 260.54 110C258.54 112 259.44 114 261.7 114.6C259.46 116.76 260.8 119.12 263.58 119.12C265.719 118.983 267.786 118.294 269.58 117.12C270.035 116.853 270.421 116.485 270.709 116.043C270.997 115.601 271.178 115.099 271.238 114.575C271.298 114.051 271.236 113.521 271.056 113.025C270.875 112.53 270.583 112.083 270.2 111.72C270.557 111.407 270.843 111.021 271.039 110.588C271.235 110.155 271.336 109.685 271.336 109.21C271.336 108.735 271.235 108.265 271.039 107.832C270.843 107.4 270.557 107.014 270.2 106.7C270.76 106.022 271.04 105.154 270.98 104.276C270.921 103.398 270.527 102.577 269.88 101.98C270.251 101.565 270.49 101.049 270.567 100.497C270.643 99.9451 270.553 99.3832 270.308 98.8829C270.063 98.3826 269.675 97.9667 269.192 97.6883C268.71 97.4099 268.156 97.2817 267.6 97.3201C265.752 97.4415 263.949 97.9382 262.3 98.7801C261.8 97.1001 261 96.1401 258.3 96.4201C255.02 96.7201 251.32 97.0601 249.7 98.5201C246.859 101.728 244.414 105.267 242.42 109.06C240.02 113.5 239.02 116.84 240.12 130.48C237.02 131.18 233.7 132.68 233.86 134.78C233.86 134.9 233.86 134.6 235.02 141.6C229.594 134.205 222.764 127.953 214.92 123.2C215.928 122.668 216.772 121.871 217.361 120.895C217.95 119.919 218.26 118.8 218.26 117.66C219.516 118.228 220.906 118.433 222.273 118.254C223.64 118.074 224.929 117.516 225.996 116.643C227.062 115.769 227.864 114.616 228.31 113.311C228.756 112.007 228.829 110.604 228.52 109.26C234.38 108.6 235.78 102.14 232.74 98.1201C233.703 97.8616 234.571 97.3308 235.239 96.5913C235.908 95.8517 236.349 94.935 236.51 93.9509C236.67 92.9669 236.543 91.9575 236.144 91.0439C235.745 90.1302 235.091 89.3511 234.26 88.8001C235.156 88.4128 235.939 87.8025 236.533 87.0272C237.127 86.252 237.512 85.3375 237.652 84.3711C237.793 83.4047 237.683 82.4184 237.335 81.5062C236.986 80.5941 236.409 79.7864 235.66 79.1601C240.72 76.4401 239.06 69.7401 234.7 67.1601C238.36 64.2201 237.1 57.3401 231.92 56.6401C232.564 55.5969 232.894 54.3909 232.872 53.1653C232.851 51.9398 232.477 50.7463 231.797 49.7267C231.116 48.7072 230.158 47.9045 229.034 47.414C227.911 46.9236 226.67 46.766 225.46 46.9601C225.9 41.6401 222.1 38.1601 216.4 40.1201C216.309 38.8807 215.886 37.6886 215.176 36.6683C214.467 35.648 213.496 34.837 212.366 34.32C211.236 33.803 209.988 33.5989 208.752 33.7291C207.516 33.8593 206.338 34.3189 205.34 35.0601C203.34 29.4801 197.02 27.6201 191.9 32.6401C189.7 27.2601 181 26.9401 179.02 32.4201C174.6 28.2601 166.62 30.6601 165.9 36.1801C160.24 31.9001 153.2 37.2601 152.88 43.5601C147.1 41.3601 141.82 48.6601 143.64 54.3401C136.66 55.8201 134.78 62.6801 139.04 67.4001C132.92 70.1401 133.26 76.6201 137.66 80.2401C132.86 84.2401 134.1 91.1801 139.96 92.8001C139.183 94.0365 138.743 95.455 138.684 96.9142C138.626 98.3735 138.95 99.8227 139.626 101.117C140.302 102.412 141.305 103.507 142.535 104.294C143.766 105.08 145.181 105.531 146.64 105.6C144.08 111.42 148.64 117.2 154.5 115.6C154.251 116.889 154.363 118.222 154.826 119.451C155.288 120.679 156.082 121.756 157.12 122.56C144.62 127.16 132.02 132.04 122.1 138.44C107.72 147.74 101.72 158.98 112.44 172.32C120.74 182.62 126.82 190.32 139.38 203.52C141.16 205.92 144.62 205.52 147.5 204.6C148.909 205.66 150.423 206.572 152.02 207.32C151.786 209.006 151.998 210.723 152.633 212.302C153.268 213.88 154.304 215.266 155.64 216.32C156.277 216.927 157.086 217.322 157.956 217.451C158.826 217.58 159.715 217.437 160.5 217.04C161.244 217.616 162.133 217.975 163.068 218.078C164.004 218.18 164.949 218.022 165.8 217.62C168.5 219.08 170.58 219.1 172.62 216.66C172.62 220.38 172.62 236.88 176.2 236.88C176.98 236.88 177.64 236.12 177.94 234.88C178.52 237.62 179.22 240.48 180.06 243.44C169.84 237.66 141.86 220.24 141.18 220.58C140.5 220.92 139.18 221.76 138.2 222.36C134.86 219.64 131.64 215.98 130.76 216.22C116.82 220.2 87.7 241.54 82 252C81.9504 252.091 81.9238 252.193 81.9225 252.297C81.9212 252.401 81.9452 252.504 81.9925 252.596C82.0397 252.689 82.1088 252.769 82.1938 252.829C82.2787 252.888 82.3769 252.927 82.48 252.94C99.56 255.3 111.22 249.06 122.2 247.34C121.893 249.325 121.76 251.332 121.8 253.34C121.769 253.458 121.772 253.582 121.807 253.698C121.842 253.815 121.909 253.919 122 254C127.1 258 168.34 288 185.78 299.16C206.88 312.78 222.62 305.9 224.92 285.6C225.78 278.02 227.4 257.78 228.78 240.08C228.78 240.08 254.2 246.7 259.94 248.08C259.2 255.22 255 291.4 255 291.44C253.38 305.44 253.38 304.58 253.74 304.88C254.8 305.752 255.916 306.554 257.08 307.28C254.8 313.96 249.54 319.48 250.1 320.64C256.2 333.44 280.2 354.52 293.4 362.52C293.501 362.576 293.614 362.604 293.729 362.603C293.844 362.601 293.957 362.569 294.056 362.511C294.155 362.452 294.237 362.369 294.294 362.269C294.351 362.168 294.38 362.055 294.38 361.94C293.54 339.48 279.62 328.04 280.5 313.78C284.431 313.925 288.349 313.243 292 311.78ZM268.78 116C267.379 116.901 265.805 117.5 264.16 117.76C262.94 117.96 262.16 117.52 261.88 117.02C261.6 116.52 262.12 115.6 263.88 114.56C265.748 114.225 267.538 113.547 269.16 112.56C269.442 112.768 269.665 113.047 269.805 113.368C269.946 113.689 270 114.041 269.961 114.39C269.923 114.738 269.793 115.07 269.586 115.353C269.379 115.636 269.101 115.859 268.78 116ZM268.2 106.72C266.532 107.797 264.604 108.405 262.62 108.48C262.959 107.237 263.054 105.94 262.9 104.66C264.989 104.4 267.018 103.784 268.9 102.84C270 103.68 270 105.66 268.2 106.8V106.72ZM267.54 98.5601C269.68 98.5601 269.54 101.16 267.54 102.02C266.03 102.684 264.434 103.135 262.8 103.36C262.746 102.253 262.619 101.151 262.42 100.06C263.997 99.2056 265.748 98.7201 267.54 98.6401V98.5601ZM262.82 109.76C265.093 109.643 267.288 108.895 269.16 107.6C269.374 107.714 269.556 107.88 269.689 108.083C269.822 108.285 269.901 108.518 269.92 108.76C270.2 110.66 268.1 111.7 266.32 112.46C264.12 113.38 261.4 114 260.82 112.46C260.6 112 261 111.02 262.82 109.84V109.76ZM268.82 134.4C268.82 138.32 268.82 142 268.82 145.44C264.14 151.06 246.28 152 237.14 148.42C236.52 144.64 235.78 139.98 235.14 136.76C240.54 139.52 262.8 139.2 268.9 134.48L268.82 134.4ZM192.12 93.3201C192.158 93.1638 192.136 92.9988 192.059 92.858C191.981 92.7171 191.853 92.6108 191.7 92.5601C185.86 90.6801 188 85.1801 190.7 87.2401C191.58 87.9201 192.58 88.5401 193.36 88.1001C194.5 87.4401 193.94 85.3601 193.66 82.6801C197.702 81.5166 201.861 80.8056 206.06 80.5601C211.92 98.5601 211.72 110.28 195.36 100.82C195.246 100.754 195.114 100.724 194.982 100.736C194.85 100.748 194.725 100.8 194.625 100.885C194.524 100.971 194.452 101.085 194.419 101.213C194.386 101.341 194.393 101.476 194.44 101.6C195.408 104.009 196.812 106.219 198.58 108.12C199.5 115 203.22 118.12 209.34 121.54C209.167 126.84 208.286 132.094 206.72 137.16C196.541 129.303 185.346 122.858 173.44 118C185.38 113.28 188.98 105.66 192.12 93.3201ZM130.26 192C123.42 184.32 119.16 178.92 113.28 171.62C105.08 161.42 105.52 150.68 122.62 139.62C136.34 130.78 155.38 124.8 171.58 118.62C182.6 122.3 197.82 131.68 206.62 138.62C206.698 138.684 206.79 138.728 206.888 138.75C206.987 138.771 207.089 138.769 207.186 138.744C207.283 138.719 207.373 138.671 207.449 138.604C207.524 138.537 207.583 138.454 207.62 138.36C209.383 133.137 210.386 127.688 210.6 122.18C220.51 127.53 228.993 135.177 235.34 144.48C236.7 152.88 239.34 169.16 240.28 173.78C240.297 173.863 240.33 173.941 240.378 174.011C240.425 174.081 240.486 174.141 240.556 174.188C240.627 174.234 240.706 174.266 240.789 174.282C240.872 174.298 240.957 174.297 241.04 174.28C241.123 174.263 241.201 174.23 241.271 174.182C241.341 174.135 241.401 174.074 241.447 174.004C241.494 173.933 241.526 173.854 241.542 173.771C241.558 173.688 241.557 173.603 241.54 173.52C240.74 169.84 239.04 159.3 237.54 149.86C245.88 152.78 262.62 152.74 269 147.24C269.16 188 268.12 194.36 264.64 196.88C256.64 192.04 247.02 186.5 235.24 180.06C232.953 174.975 230.95 169.767 229.24 164.46C227.48 140.64 221.92 135.48 216.52 130.46L215.92 129.92C215.862 129.852 215.79 129.796 215.709 129.757C215.629 129.719 215.541 129.697 215.451 129.695C215.361 129.692 215.272 129.708 215.189 129.742C215.106 129.776 215.032 129.827 214.97 129.892C214.908 129.957 214.86 130.034 214.83 130.118C214.799 130.202 214.787 130.292 214.794 130.382C214.8 130.471 214.826 130.558 214.868 130.637C214.911 130.716 214.969 130.785 215.04 130.84C220.7 136.1 223.94 139.8 226.24 151.14C227.747 159.725 228.51 168.424 228.52 177.14C223.12 186 203.18 187.58 192 184.12C186.62 177.84 179.26 169.8 173.3 163.74C175.388 160.311 177.29 156.773 179 153.14C179.048 153.031 179.065 152.91 179.048 152.791C179.031 152.672 178.982 152.561 178.905 152.469C178.827 152.378 178.726 152.309 178.612 152.272C178.498 152.235 178.376 152.231 178.26 152.26C171.5 154.14 152.38 159.98 147.52 161.66C145.32 159.16 143.38 157.02 141.96 155.52C141.841 155.398 141.678 155.329 141.507 155.327C141.336 155.325 141.172 155.391 141.05 155.51C140.928 155.629 140.858 155.792 140.857 155.963C140.855 156.134 140.921 156.298 141.04 156.42C144.34 159.9 150.62 167.1 156.26 173.7C144.86 172.34 131.36 183.76 130.26 192ZM167.52 184.82C162 178.34 154.82 170 148.5 162.7C151.54 161.68 158.5 159.54 165.02 157.52C174.111 166.054 182.711 175.095 190.78 184.6C185.294 188.938 181.097 194.692 178.64 201.24C177.76 200.06 177 199.62 167.72 190.58C168.091 190.194 168.381 189.737 168.573 189.237C168.764 188.737 168.853 188.203 168.835 187.668C168.816 187.132 168.69 186.606 168.464 186.121C168.238 185.635 167.917 185.199 167.52 184.84V184.82ZM140 196.34C139.14 197.739 138.626 199.323 138.5 200.96C135.94 198.293 133.613 195.767 131.52 193.38C131.08 185.8 145.8 172.56 157.68 175.22L164.6 183.22C163.187 182.919 161.732 182.864 160.3 183.06C160.152 183.001 159.988 183.001 159.84 183.06C155.863 183.805 152.074 185.333 148.692 187.554C145.311 189.776 142.404 192.646 140.14 196C140.069 196.102 140.021 196.218 140 196.34ZM176.64 234.34C176.614 234.859 176.425 235.356 176.1 235.76C176.1 235.76 173.58 234.8 173.8 214.9C174.641 213.365 175.376 211.775 176 210.14C176.045 209.988 176.032 209.824 175.963 209.681C175.894 209.538 175.775 209.425 175.628 209.365C175.48 209.305 175.316 209.302 175.167 209.357C175.018 209.411 174.894 209.519 174.82 209.66C173.9 211.9 171.96 216.56 169.72 217.32C169.222 217.453 168.701 217.48 168.192 217.401C167.682 217.322 167.195 217.138 166.76 216.86C168.477 214.775 169.829 212.415 170.76 209.88C170.826 209.724 170.828 209.547 170.764 209.39C170.7 209.232 170.576 209.106 170.42 209.04C170.264 208.974 170.087 208.972 169.93 209.036C169.772 209.1 169.646 209.224 169.58 209.38C167.58 214.2 166.06 216.38 164.58 216.88C164.051 216.99 163.506 216.992 162.977 216.885C162.447 216.779 161.945 216.566 161.5 216.26C163.135 214.178 164.48 211.883 165.5 209.44C165.566 209.287 165.57 209.114 165.511 208.958C165.452 208.803 165.334 208.676 165.183 208.606C165.032 208.535 164.859 208.527 164.702 208.582C164.544 208.637 164.414 208.751 164.34 208.9C163.4 210.9 161.22 215.78 159.28 216.32C158.54 216.54 157.66 216.32 156.36 215.38C155.284 214.489 154.442 213.35 153.905 212.061C153.369 210.772 153.154 209.371 153.28 207.98C154.663 208.537 156.096 208.959 157.56 209.24C157.56 209.38 157.02 210.56 156.98 210.7C156.946 210.78 156.928 210.866 156.928 210.953C156.928 211.04 156.946 211.126 156.98 211.206C157.015 211.286 157.065 211.358 157.128 211.418C157.191 211.477 157.266 211.524 157.348 211.553C157.429 211.583 157.516 211.596 157.603 211.592C157.69 211.587 157.775 211.564 157.853 211.526C157.931 211.487 158 211.433 158.056 211.367C158.112 211.3 158.155 211.223 158.18 211.14C158.34 210.7 159.52 207.94 159.78 207.14C159.833 206.978 159.82 206.802 159.743 206.65C159.666 206.498 159.532 206.383 159.37 206.33C159.208 206.277 159.032 206.29 158.88 206.367C158.728 206.444 158.613 206.578 158.56 206.74C158.56 206.98 158.28 207.48 158.06 208.04C154.672 207.313 151.463 205.915 148.623 203.93C145.782 201.945 143.367 199.412 141.52 196.48C145.922 190.24 152.564 185.94 160.06 184.48C162.54 187.16 166.44 190.98 166.58 191.1C176.98 201.26 177.34 201.1 178.34 202.86C179.336 204.692 179.735 206.79 179.48 208.86C179.1 212.36 176.98 231.56 176.6 234.3L176.64 234.34ZM166.22 237.12C169.74 240.64 176.6 247.66 183.94 255.84C184.36 256.96 184.78 258.08 185.22 259.22C185.281 259.379 185.403 259.508 185.558 259.577C185.714 259.646 185.891 259.651 186.05 259.59C186.209 259.529 186.338 259.407 186.407 259.252C186.476 259.096 186.481 258.919 186.42 258.76C182.84 249.788 180.16 240.482 178.42 230.98C179.16 224.48 180.54 211.78 180.72 208.98C180.927 206.787 180.548 204.578 179.62 202.58C181.977 195.76 186.264 189.771 191.96 185.34C193.329 185.744 194.717 186.077 196.12 186.34C182.26 208.1 187.2 241.4 193.72 273.9C183.42 267.34 142.78 242.2 139.38 239.9C142.43 234.919 146.962 231.017 152.34 228.74L166.22 237.12ZM141.12 222.26L150.82 228C139.94 232.64 131.74 247.52 131.28 259.26C127.16 256.26 124.18 254.04 123 253.14C122.936 246.833 124.584 240.627 127.768 235.182C130.952 229.737 135.552 225.258 141.08 222.22L141.12 222.26ZM261.28 247.62C261.289 247.466 261.244 247.314 261.153 247.19C261.062 247.066 260.93 246.977 260.78 246.94L257.62 246.16C247.554 240.435 238.248 233.467 229.92 225.42C230.42 219.06 230.82 213.96 231.04 211.42C231.056 211.25 231.004 211.081 230.895 210.95C230.786 210.819 230.63 210.736 230.46 210.72C230.29 210.704 230.121 210.756 229.99 210.865C229.859 210.974 229.776 211.13 229.76 211.3C229.42 215.3 224.64 276.64 223.64 285.5C221.64 304.04 207.52 311.7 186.48 298.12C173 289.42 146.94 270.74 132.58 260.26C132.856 253.469 134.926 246.872 138.58 241.14C145.32 245.72 172.88 262.36 194.2 275.96C194.305 276.03 194.429 276.066 194.555 276.066C194.682 276.065 194.805 276.027 194.91 275.957C195.015 275.886 195.096 275.786 195.144 275.669C195.192 275.552 195.205 275.424 195.18 275.3C188.52 242.36 183.18 208.42 197.4 186.74C207.4 188.22 223.8 186.6 229.28 178.48C294.2 213.62 299.72 222.48 298.94 239.38C298.44 250.5 295.38 279.54 293.06 297.9C282.44 301.9 263.18 298.34 256.32 291.1C257.34 281.86 260.9 251.16 261.24 247.58L261.28 247.62ZM254.8 304C255.1 301.36 255.56 297.3 256.12 292.54C263.76 299.6 281.92 302.92 292.86 299.18C292.24 304.1 291.66 308.14 291.22 310.7C282.8 314.4 264.68 312 254.8 304Z" fill="white"/>
</svg>
