<svg width="400" height="400" viewBox="0 0 400 400" fill="none" xmlns="http://www.w3.org/2000/svg">
<path d="M380.72 218.36C380.699 218.264 380.64 218.181 380.558 218.129C380.475 218.076 380.375 218.059 380.28 218.08C380.184 218.101 380.101 218.159 380.049 218.242C379.996 218.324 379.979 218.424 380 218.52C381.59 225.349 381.772 232.431 380.534 239.334C379.296 246.236 376.664 252.813 372.799 258.664C368.934 264.515 363.917 269.517 358.054 273.364C352.191 277.211 345.606 279.823 338.7 281.04L82.34 326.24C74.2666 327.658 65.9848 327.354 58.0371 325.348C50.0894 323.342 42.6554 319.679 36.222 314.599C29.7887 309.52 24.5013 303.138 20.7064 295.873C16.9114 288.607 14.6946 280.622 14.2011 272.439C13.7076 264.257 14.9487 256.063 17.8429 248.394C20.7371 240.725 25.2192 233.755 30.9954 227.939C36.7716 222.123 43.7115 217.593 51.3605 214.646C59.0094 211.7 67.1947 210.402 75.38 210.84C75.4491 210.843 75.5178 210.827 75.5786 210.794C75.6393 210.761 75.69 210.712 75.7249 210.652C75.7599 210.593 75.778 210.525 75.7771 210.455C75.7762 210.386 75.7565 210.319 75.72 210.26C69.0787 199.322 67.0231 186.205 70 173.76C70.0149 173.711 70.0194 173.66 70.0131 173.609C70.0068 173.559 69.9898 173.51 69.9634 173.467C69.9369 173.423 69.9016 173.386 69.8596 173.357C69.8176 173.328 69.7701 173.309 69.72 173.3C69.6248 173.282 69.5262 173.3 69.4444 173.352C69.3626 173.404 69.3038 173.486 69.28 173.58C66.3194 185.964 68.2614 199.014 74.7 210C66.4326 209.657 58.1856 211.059 50.4959 214.114C42.8061 217.17 35.8458 221.81 30.068 227.733C24.2901 233.656 19.8242 240.73 16.9608 248.493C14.0974 256.256 12.9007 264.535 13.4485 272.792C13.9964 281.048 16.2766 289.097 20.1407 296.413C24.0048 303.73 29.3662 310.152 35.8761 315.259C42.386 320.367 49.8984 324.047 57.9244 326.059C65.9505 328.072 74.3103 328.372 82.46 326.94L338.82 281.74C345.824 280.511 352.505 277.867 358.452 273.969C364.4 270.071 369.49 265.001 373.412 259.068C377.334 253.136 380.005 246.467 381.261 239.467C382.518 232.468 382.333 225.286 380.72 218.36Z" fill="white"/>
<path d="M276.28 93.0399C267.584 86.9103 257.773 82.5415 247.4 80.1799C247.191 76.5585 246.245 73.0178 244.621 69.7741C242.997 66.5305 240.729 63.6522 237.954 61.315C235.18 58.9778 231.959 57.2309 228.486 56.181C225.014 55.1311 221.364 54.8003 217.76 55.2088C214.155 55.6173 210.672 56.7565 207.523 58.5569C204.374 60.3572 201.625 62.7808 199.444 65.6796C197.263 68.5783 195.697 71.8914 194.84 75.4162C193.983 78.941 193.854 82.6035 194.46 86.1799C182.334 91.9292 171.83 100.608 163.897 111.432C155.964 122.256 150.851 134.885 149.02 148.18C140.506 140.794 129.71 136.564 118.445 136.2C107.18 135.836 96.1331 139.36 87.16 146.18C87.0916 146.244 87.0495 146.332 87.042 146.426C87.0344 146.52 87.0619 146.613 87.1192 146.688C87.1764 146.762 87.2593 146.813 87.3518 146.83C87.4443 146.847 87.5399 146.829 87.62 146.78C96.5373 139.979 107.543 136.492 118.75 136.919C129.957 137.346 140.666 141.66 149.04 149.12C149.092 149.163 149.155 149.192 149.222 149.203C149.289 149.214 149.357 149.207 149.421 149.183C149.484 149.158 149.54 149.117 149.582 149.064C149.624 149.011 149.651 148.947 149.66 148.88C151.381 135.613 156.396 122.988 164.25 112.158C172.104 101.328 182.545 92.6377 194.62 86.8799C195.945 93.4233 199.675 99.2321 205.074 103.16C210.472 107.087 217.147 108.848 223.781 108.095C230.414 107.341 236.524 104.128 240.904 99.0896C245.284 94.0512 247.616 87.5537 247.44 80.8799C257.642 83.2278 267.288 87.5415 275.84 93.5799C276.24 93.9999 276.68 93.3399 276.28 93.0399ZM225.26 107.04C218.564 108.215 211.675 106.721 206.067 102.878C200.459 99.0351 196.58 93.1486 195.26 86.4799C211.292 79.0042 229.333 76.988 246.62 80.7399C246.811 86.9667 244.759 93.0549 240.839 97.8965C236.919 102.738 231.39 106.011 225.26 107.12V107.04Z" fill="white"/>
<path d="M376.76 208.96C371.317 196.91 361.456 187.41 349.212 182.42C336.968 177.429 323.276 177.329 310.96 182.14C310.87 182.174 310.77 182.172 310.68 182.135C310.591 182.098 310.52 182.028 310.48 181.94C310.461 181.893 310.451 181.842 310.452 181.791C310.453 181.74 310.463 181.69 310.484 181.643C310.505 181.597 310.534 181.555 310.571 181.52C310.608 181.485 310.652 181.458 310.7 181.44C323.194 176.565 337.083 176.668 349.503 181.729C361.924 186.789 371.93 196.421 377.46 208.64C377.481 208.686 377.493 208.735 377.495 208.786C377.496 208.836 377.488 208.887 377.471 208.934C377.453 208.982 377.426 209.025 377.392 209.062C377.357 209.099 377.316 209.129 377.27 209.15C377.224 209.171 377.174 209.183 377.124 209.184C377.073 209.186 377.023 209.178 376.976 209.16C376.928 209.143 376.885 209.116 376.848 209.082C376.811 209.047 376.781 209.006 376.76 208.96Z" fill="white"/>
<path d="M71.06 168.98C70.9676 168.944 70.8919 168.875 70.8476 168.786C70.8032 168.697 70.7934 168.595 70.82 168.5C71.621 166.302 72.5767 164.163 73.68 162.1C73.7352 162.033 73.8117 161.987 73.8966 161.97C73.9815 161.952 74.0698 161.964 74.1468 162.004C74.2239 162.044 74.285 162.109 74.3202 162.188C74.3553 162.267 74.3623 162.356 74.34 162.44C71.38 168 71.82 169.24 71.06 168.98Z" fill="white"/>
<path d="M307.16 180.6C310.535 168.206 310.894 155.185 308.208 142.625C305.522 130.064 299.868 118.329 291.72 108.4C291.68 108.363 291.648 108.318 291.627 108.268C291.606 108.218 291.596 108.164 291.597 108.11C291.598 108.056 291.611 108.002 291.635 107.954C291.659 107.905 291.693 107.862 291.735 107.827C291.776 107.792 291.825 107.767 291.878 107.753C291.93 107.739 291.985 107.736 292.038 107.745C292.092 107.754 292.143 107.774 292.188 107.804C292.233 107.834 292.271 107.874 292.3 107.92C300.545 117.932 306.272 129.773 309.004 142.453C311.735 155.132 311.391 168.281 308 180.8C307.987 180.855 307.963 180.907 307.93 180.953C307.897 180.999 307.855 181.038 307.806 181.067C307.758 181.097 307.704 181.117 307.648 181.126C307.592 181.135 307.535 181.133 307.48 181.12C307.425 181.107 307.373 181.083 307.327 181.05C307.281 181.016 307.242 180.974 307.212 180.926C307.183 180.878 307.163 180.824 307.154 180.768C307.145 180.712 307.147 180.655 307.16 180.6Z" fill="white"/>
<path d="M252.52 186C242.82 203.8 232.52 221.22 221.42 237.6C239.842 231.235 257.382 222.559 273.62 211.78C291.24 212.86 308.6 218.9 325.76 228.16C333.245 218.494 338.467 207.272 341.04 195.32C324.745 186.263 307.183 179.703 288.94 175.86C283.139 174.6 277.088 175.217 271.66 177.62L252.52 186Z" fill="#B2BEC3"/>
<path d="M202.3 261.86C194.852 268.753 185.047 272.531 174.9 272.42C174.899 261.753 172.231 251.254 167.14 241.88C167.14 241.88 176.06 228.56 176.3 227.64L182.94 265.28L202.3 261.86Z" fill="#B2BEC3"/>
<path d="M174.9 272.8C174.849 272.803 174.799 272.795 174.751 272.777C174.704 272.759 174.661 272.731 174.625 272.695C174.589 272.659 174.561 272.616 174.543 272.569C174.525 272.521 174.517 272.471 174.52 272.42C174.538 261.795 171.89 251.336 166.82 242C166.785 241.939 166.766 241.87 166.766 241.8C166.766 241.73 166.785 241.661 166.82 241.6C170.36 236.32 175.7 228.2 175.92 227.48C175.959 227.4 176.025 227.336 176.106 227.3C176.187 227.264 176.278 227.257 176.363 227.28C176.449 227.304 176.523 227.357 176.574 227.43C176.624 227.503 176.648 227.591 176.64 227.68C176.42 228.58 169.32 239.22 167.58 241.84C172.568 251.115 175.212 261.469 175.28 272C185.179 272.005 194.718 268.285 202 261.58C202.076 261.531 202.167 261.511 202.257 261.523C202.347 261.535 202.429 261.579 202.489 261.646C202.55 261.714 202.584 261.801 202.586 261.891C202.588 261.982 202.557 262.07 202.5 262.14C195.018 269.119 185.13 272.938 174.9 272.8Z" fill="white"/>
<path d="M262 122.28C252.42 117.28 246 110.44 247.32 106.74C237.907 128.073 227.52 149.1 216.16 169.82L229.68 182.16L204 186.68L214.66 247.18C241.02 210.28 263.24 166.88 282.94 125.8C280.22 128.5 271.18 127.06 262 122.28Z" fill="#B2BEC3"/>
<path d="M176.56 259.24C176.477 259.221 176.402 259.173 176.349 259.106C176.296 259.039 176.267 258.956 176.267 258.87C176.267 258.784 176.296 258.701 176.349 258.634C176.402 258.567 176.477 258.52 176.56 258.5C178.244 258.013 179.824 257.22 181.22 256.16C181.256 256.115 181.301 256.079 181.352 256.054C181.404 256.029 181.46 256.017 181.518 256.017C181.575 256.017 181.631 256.03 181.683 256.055C181.734 256.079 181.78 256.116 181.815 256.16C181.851 256.205 181.876 256.258 181.888 256.313C181.901 256.369 181.9 256.427 181.887 256.483C181.874 256.539 181.849 256.591 181.813 256.635C181.777 256.68 181.732 256.716 181.68 256.74C180.165 257.919 178.422 258.771 176.56 259.24Z" fill="white"/>
<path d="M268.56 128.64L270 125.6C270.045 125.51 270.124 125.441 270.22 125.409C270.315 125.377 270.42 125.385 270.51 125.43C270.6 125.475 270.669 125.554 270.701 125.65C270.732 125.745 270.725 125.85 270.68 125.94L269.14 128.98C269.081 129.016 269.014 129.036 268.944 129.037C268.875 129.038 268.807 129.02 268.747 128.985C268.688 128.95 268.639 128.899 268.606 128.838C268.573 128.778 268.557 128.709 268.56 128.64Z" fill="white"/>
<path d="M219.08 220L222.4 214.42C222.418 214.367 222.448 214.318 222.488 214.278C222.527 214.237 222.575 214.206 222.628 214.187C222.681 214.168 222.738 214.16 222.794 214.165C222.85 214.171 222.905 214.188 222.953 214.217C223.002 214.246 223.043 214.285 223.075 214.332C223.106 214.379 223.127 214.432 223.135 214.488C223.143 214.544 223.139 214.601 223.123 214.655C223.106 214.709 223.078 214.758 223.04 214.8C221.92 216.7 220.82 218.58 219.72 220.38C219.661 220.444 219.582 220.487 219.495 220.5C219.409 220.513 219.32 220.495 219.245 220.451C219.17 220.406 219.113 220.337 219.082 220.255C219.052 220.173 219.051 220.083 219.08 220ZM227.82 205.04C228.88 203.18 229.94 201.28 231 199.38C231.05 199.292 231.133 199.228 231.231 199.202C231.329 199.176 231.432 199.189 231.52 199.24C231.608 199.29 231.671 199.373 231.698 199.471C231.724 199.568 231.71 199.672 231.66 199.76C230.593 201.667 229.533 203.547 228.48 205.4C228.425 205.473 228.346 205.523 228.257 205.542C228.168 205.562 228.075 205.548 227.995 205.505C227.915 205.461 227.853 205.39 227.821 205.305C227.789 205.219 227.789 205.125 227.82 205.04ZM236.28 190C237.32 188.1 238.28 186.2 239.38 184.3C239.428 184.21 239.509 184.142 239.607 184.112C239.704 184.082 239.81 184.092 239.9 184.14C239.99 184.188 240.058 184.269 240.088 184.367C240.118 184.464 240.108 184.57 240.06 184.66L236.94 190.36C236.921 190.411 236.891 190.458 236.853 190.496C236.815 190.535 236.768 190.565 236.717 190.584C236.666 190.604 236.611 190.612 236.557 190.608C236.502 190.604 236.449 190.589 236.401 190.562C236.353 190.536 236.312 190.5 236.279 190.456C236.246 190.413 236.223 190.362 236.212 190.309C236.2 190.256 236.2 190.2 236.212 190.147C236.224 190.094 236.247 190.043 236.28 190ZM244.54 174.78C245.58 172.78 246.54 170.94 247.6 169.04C247.619 168.989 247.648 168.942 247.687 168.903C247.725 168.865 247.772 168.835 247.823 168.815C247.874 168.796 247.929 168.788 247.983 168.792C248.038 168.796 248.091 168.811 248.139 168.837C248.187 168.864 248.228 168.9 248.261 168.943C248.294 168.987 248.317 169.037 248.328 169.091C248.34 169.144 248.34 169.199 248.328 169.253C248.316 169.306 248.293 169.356 248.26 169.4C247.26 171.28 246.26 173.2 245.2 175.12C245.144 175.207 245.056 175.269 244.955 175.292C244.854 175.314 244.748 175.296 244.66 175.24C244.572 175.184 244.511 175.096 244.488 174.995C244.466 174.893 244.484 174.787 244.54 174.7V174.78ZM252.66 159.46L255.68 153.72C255.699 153.669 255.728 153.622 255.767 153.583C255.805 153.545 255.852 153.515 255.903 153.495C255.954 153.476 256.009 153.468 256.063 153.472C256.118 153.476 256.171 153.491 256.219 153.517C256.267 153.544 256.308 153.58 256.341 153.623C256.374 153.667 256.397 153.717 256.408 153.771C256.42 153.824 256.419 153.879 256.408 153.933C256.396 153.986 256.373 154.036 256.34 154.08C255.38 155.94 254.34 157.86 253.34 159.82C253.311 159.865 253.274 159.903 253.23 159.933C253.186 159.963 253.137 159.985 253.085 159.996C253.033 160.007 252.979 160.008 252.927 159.998C252.875 159.989 252.825 159.969 252.78 159.94C252.735 159.911 252.697 159.874 252.667 159.83C252.636 159.786 252.615 159.737 252.604 159.685C252.593 159.633 252.592 159.579 252.602 159.527C252.611 159.474 252.631 159.425 252.66 159.38V159.46ZM260.66 144.1L263.64 138.34C263.683 138.25 263.76 138.182 263.853 138.148C263.947 138.114 264.05 138.119 264.14 138.16C264.227 138.21 264.292 138.292 264.322 138.388C264.352 138.485 264.344 138.589 264.3 138.68C263.38 140.46 262.4 142.38 261.32 144.44C261.262 144.525 261.172 144.583 261.071 144.602C260.969 144.62 260.865 144.598 260.78 144.54C260.695 144.482 260.637 144.392 260.618 144.291C260.599 144.189 260.622 144.085 260.68 144L260.66 144.1Z" fill="white"/>
<path d="M211.72 231.78L213.56 228.92C213.588 228.878 213.623 228.842 213.665 228.813C213.706 228.785 213.753 228.765 213.802 228.755C213.851 228.745 213.902 228.744 213.952 228.754C214.001 228.763 214.048 228.782 214.09 228.81C214.132 228.837 214.168 228.873 214.196 228.915C214.225 228.956 214.245 229.003 214.255 229.052C214.265 229.101 214.265 229.152 214.256 229.201C214.247 229.251 214.228 229.298 214.2 229.34L212.34 232.18C212.314 232.221 212.28 232.256 212.24 232.283C212.2 232.311 212.155 232.33 212.108 232.34C212.06 232.351 212.012 232.351 211.964 232.343C211.916 232.334 211.871 232.316 211.83 232.29C211.789 232.264 211.754 232.23 211.727 232.19C211.699 232.15 211.68 232.105 211.669 232.058C211.659 232.01 211.658 231.961 211.667 231.914C211.676 231.866 211.694 231.821 211.72 231.78Z" fill="white"/>
<path d="M194 149.06L177.6 134.1C177.564 134.054 177.519 134.017 177.467 133.992C177.415 133.966 177.358 133.953 177.3 133.953C177.242 133.953 177.185 133.966 177.133 133.992C177.081 134.017 177.036 134.054 177 134.1L144.16 197C144.13 197.062 144.118 197.132 144.124 197.2C144.131 197.269 144.156 197.335 144.197 197.39C144.238 197.446 144.294 197.489 144.358 197.516C144.422 197.542 144.492 197.55 144.56 197.54L165 194C165.076 193.985 165.145 193.948 165.199 193.892C165.252 193.837 165.288 193.767 165.301 193.691C165.314 193.615 165.304 193.537 165.272 193.467C165.239 193.397 165.186 193.339 165.12 193.3C168.94 186.28 172.9 178.56 176.92 170.36L178.66 170.64C178.66 170.64 182.66 165.66 183.7 155.44C184.74 145.22 187.46 145.06 188.36 157.18C190.317 154.857 192.058 152.36 193.56 149.72C193.648 149.778 193.755 149.799 193.858 149.779C193.961 149.758 194.052 149.697 194.11 149.61C194.168 149.522 194.19 149.415 194.169 149.312C194.148 149.209 194.088 149.118 194 149.06Z" fill="white"/>
<path d="M144 295.7C143.913 295.706 143.827 295.678 143.76 295.622C143.693 295.566 143.65 295.487 143.64 295.4L141.24 282C141.235 281.908 141.264 281.818 141.321 281.745C141.377 281.673 141.459 281.624 141.549 281.607C141.639 281.59 141.733 281.606 141.812 281.652C141.891 281.699 141.951 281.773 141.98 281.86L144.28 295L263.28 274L260.98 260.88C260.963 260.829 260.957 260.774 260.963 260.72C260.968 260.666 260.985 260.614 261.013 260.567C261.04 260.521 261.077 260.48 261.122 260.449C261.166 260.418 261.217 260.397 261.27 260.387C261.323 260.376 261.378 260.378 261.431 260.391C261.483 260.404 261.533 260.428 261.575 260.461C261.618 260.494 261.653 260.537 261.678 260.585C261.703 260.633 261.717 260.686 261.72 260.74L264.1 274.24C264.109 274.289 264.107 274.339 264.095 274.387C264.083 274.435 264.062 274.48 264.032 274.52C264.002 274.559 263.964 274.592 263.92 274.616C263.877 274.64 263.829 274.655 263.78 274.66C144.88 295.26 144.18 295.7 144 295.7Z" fill="white"/>
<path d="M10 186.98C9.91004 186.98 9.82314 186.947 9.75476 186.889C9.68638 186.83 9.64094 186.75 9.62654 186.661C9.61214 186.572 9.62971 186.481 9.67612 186.404C9.72253 186.327 9.79478 186.269 9.88 186.24L17.32 183.54C17.4073 183.525 17.497 183.541 17.5736 183.586C17.6503 183.63 17.7091 183.699 17.7399 183.782C17.7708 183.865 17.7716 183.956 17.7424 184.04C17.7132 184.124 17.6558 184.194 17.58 184.24C10.78 186.7 10.2 186.98 10 186.98Z" fill="white"/>
<path d="M30.66 179.46C30.5682 179.465 30.4777 179.436 30.4054 179.379C30.3331 179.323 30.2838 179.241 30.2667 179.151C30.2496 179.061 30.2659 178.967 30.3125 178.888C30.359 178.809 30.4328 178.749 30.52 178.72L38 176C38.0479 175.971 38.1015 175.953 38.1571 175.947C38.2127 175.942 38.2689 175.948 38.3216 175.967C38.3744 175.985 38.4225 176.015 38.4624 176.054C38.5023 176.093 38.533 176.141 38.5525 176.193C38.572 176.245 38.5796 176.301 38.575 176.357C38.5703 176.413 38.5534 176.467 38.5254 176.515C38.4975 176.564 38.4592 176.605 38.4133 176.637C38.3675 176.669 38.3151 176.691 38.26 176.7C31.42 179.18 30.86 179.46 30.66 179.46Z" fill="white"/>
<path d="M21.3 175L18.58 167.56C18.4 167.1 19.12 166.84 19.3 167.3L22 174.76C22.0304 174.808 22.0495 174.863 22.0558 174.92C22.0621 174.977 22.0554 175.035 22.0363 175.089C22.0172 175.143 21.9861 175.191 21.9455 175.232C21.9048 175.272 21.8555 175.303 21.8013 175.321C21.7472 175.34 21.6895 175.346 21.6326 175.339C21.5758 175.332 21.5212 175.313 21.473 175.282C21.4248 175.251 21.3842 175.209 21.3542 175.161C21.3243 175.112 21.3057 175.057 21.3 175Z" fill="white"/>
<path d="M28.8 195.66L26.1 188.22C26.0686 188.171 26.049 188.115 26.0426 188.057C26.0362 187.999 26.0433 187.94 26.0632 187.885C26.0832 187.83 26.1155 187.781 26.1577 187.741C26.1998 187.7 26.2507 187.67 26.3064 187.653C26.362 187.635 26.421 187.631 26.4786 187.64C26.5363 187.649 26.5911 187.671 26.6388 187.704C26.6866 187.738 26.7259 187.782 26.7539 187.833C26.7818 187.884 26.7976 187.941 26.8 188L29.52 195.44C29.5346 195.53 29.5158 195.623 29.4673 195.701C29.4187 195.779 29.3436 195.837 29.2559 195.863C29.1681 195.89 29.0736 195.884 28.9898 195.847C28.906 195.809 28.8386 195.743 28.8 195.66Z" fill="white"/>
<path d="M17.68 178.9C17.48 178.9 17.26 178.74 10.34 175.5C10.2876 175.484 10.2392 175.458 10.1981 175.421C10.157 175.385 10.1242 175.341 10.1019 175.291C10.0796 175.241 10.0683 175.187 10.0688 175.132C10.0694 175.077 10.0817 175.024 10.105 174.974C10.1283 174.925 10.162 174.881 10.2038 174.845C10.2455 174.81 10.2945 174.784 10.3471 174.77C10.3998 174.755 10.4551 174.752 10.5091 174.761C10.5631 174.769 10.6145 174.79 10.66 174.82L17.84 178.18C17.9159 178.218 17.977 178.28 18.0135 178.357C18.05 178.433 18.0599 178.52 18.0415 178.603C18.0231 178.685 17.9775 178.76 17.912 178.814C17.8465 178.867 17.7648 178.898 17.68 178.9Z" fill="white"/>
<path d="M37.6 188.18C37.4 188.18 37.18 188.02 30.26 184.8C30.2076 184.784 30.1592 184.757 30.1181 184.721C30.077 184.685 30.0442 184.641 30.0219 184.591C29.9996 184.541 29.9883 184.487 29.9888 184.432C29.9894 184.377 30.0017 184.323 30.025 184.274C30.0483 184.224 30.082 184.181 30.1237 184.145C30.1655 184.11 30.2145 184.084 30.2671 184.07C30.3198 184.055 30.3751 184.052 30.4291 184.06C30.4831 184.069 30.5345 184.089 30.58 184.12L37.76 187.46C37.8359 187.498 37.897 187.56 37.9335 187.636C37.97 187.713 37.9799 187.799 37.9615 187.882C37.9431 187.965 37.8975 188.039 37.832 188.093C37.7665 188.147 37.6848 188.178 37.6 188.18Z" fill="white"/>
<path d="M26.68 174.96L30 167.78C30.0157 167.728 30.0424 167.679 30.0785 167.638C30.1146 167.597 30.1591 167.564 30.209 167.542C30.259 167.52 30.3131 167.508 30.3678 167.509C30.4225 167.509 30.4764 167.522 30.5259 167.545C30.5754 167.568 30.6192 167.602 30.6545 167.644C30.6898 167.686 30.7156 167.734 30.7302 167.787C30.7449 167.84 30.7479 167.895 30.7393 167.949C30.7306 168.003 30.7104 168.055 30.68 168.1L27.34 175.28C27.2852 175.343 27.2112 175.386 27.1294 175.403C27.0477 175.419 26.9627 175.409 26.8876 175.372C26.8125 175.336 26.7515 175.276 26.714 175.201C26.6765 175.127 26.6645 175.042 26.68 174.96Z" fill="white"/>
<path d="M17.38 194.88L20.74 187.7C20.7906 187.624 20.8666 187.569 20.9543 187.545C21.0419 187.521 21.1354 187.529 21.2177 187.567C21.3 187.606 21.3657 187.673 21.4028 187.756C21.44 187.839 21.4461 187.933 21.42 188.02L18 195.2C17.9426 195.247 17.8727 195.276 17.799 195.284C17.7252 195.292 17.6507 195.278 17.5848 195.244C17.5189 195.21 17.4644 195.157 17.428 195.093C17.3916 195.028 17.3749 194.954 17.38 194.88Z" fill="white"/>
<path d="M343.86 151.66L334.06 153.4L332.3 143.58C332.271 143.492 332.211 143.419 332.132 143.372C332.053 143.326 331.959 143.309 331.869 143.326C331.778 143.344 331.697 143.393 331.641 143.465C331.584 143.537 331.555 143.628 331.56 143.72L333.32 153.54L323.5 155.28C323.413 155.309 323.339 155.368 323.292 155.448C323.246 155.527 323.23 155.621 323.247 155.711C323.264 155.801 323.313 155.882 323.385 155.939C323.458 155.996 323.548 156.025 323.64 156.02L333.44 154.28L335.2 164.08C335.211 164.186 335.263 164.283 335.345 164.351C335.428 164.418 335.534 164.45 335.64 164.44C335.746 164.429 335.844 164.377 335.911 164.294C335.979 164.212 336.011 164.106 336 164L334.24 154.18L344 152.4C344.054 152.397 344.107 152.383 344.155 152.358C344.203 152.333 344.245 152.298 344.279 152.255C344.312 152.212 344.336 152.163 344.349 152.11C344.362 152.058 344.364 152.003 344.353 151.95C344.343 151.896 344.322 151.846 344.291 151.802C344.26 151.757 344.219 151.72 344.173 151.693C344.126 151.665 344.074 151.648 344.02 151.642C343.966 151.637 343.911 151.643 343.86 151.66Z" fill="white"/>
<path d="M76.36 272.2L71.98 272.98C70.9996 273.163 69.9867 272.952 69.1598 272.395C68.3329 271.837 67.7583 270.977 67.56 270L66.78 265.62C66.7802 265.565 66.7685 265.51 66.7455 265.46C66.7225 265.41 66.6889 265.365 66.6469 265.329C66.6049 265.294 66.5557 265.267 66.5025 265.252C66.4494 265.237 66.3937 265.234 66.3392 265.243C66.2847 265.252 66.2328 265.273 66.1871 265.304C66.1414 265.334 66.103 265.375 66.0745 265.422C66.046 265.47 66.0282 265.522 66.0222 265.577C66.0163 265.632 66.0223 265.688 66.04 265.74L66.82 270.12C66.9091 270.614 66.8994 271.121 66.7915 271.611C66.6836 272.101 66.4796 272.565 66.1914 272.976C65.9032 273.387 65.5364 273.737 65.1122 274.005C64.688 274.274 64.2148 274.455 63.72 274.54L59.34 275.34C59.2528 275.369 59.179 275.429 59.1325 275.508C59.0859 275.587 59.0696 275.681 59.0867 275.771C59.1038 275.861 59.1531 275.943 59.2254 275.999C59.2977 276.056 59.3882 276.085 59.48 276.08L63.86 275.3C64.3526 275.211 64.858 275.22 65.3471 275.326C65.8362 275.433 66.2994 275.635 66.7101 275.921C67.1209 276.208 67.471 276.572 67.7404 276.994C68.0098 277.416 68.1932 277.887 68.28 278.38L69.06 282.76C69.0891 282.847 69.1488 282.921 69.2281 282.967C69.3073 283.014 69.4008 283.03 69.4912 283.013C69.5815 282.996 69.6626 282.947 69.7194 282.875C69.7762 282.802 69.8048 282.712 69.8 282.62L69.02 278.24C68.8452 277.246 69.0711 276.223 69.6482 275.395C70.2253 274.566 71.1068 274 72.1 273.82L76.48 273.04C76.5352 273.032 76.5882 273.013 76.6362 272.985C76.6841 272.957 76.726 272.919 76.7594 272.875C76.7929 272.83 76.8172 272.779 76.831 272.725C76.8448 272.671 76.8479 272.615 76.84 272.56C76.8321 272.505 76.8135 272.452 76.7851 272.404C76.7567 272.356 76.7191 272.314 76.6746 272.281C76.63 272.247 76.5793 272.223 76.5253 272.209C76.4713 272.195 76.4152 272.192 76.36 272.2ZM68.36 276.42C67.7301 275.424 66.7422 274.709 65.6 274.42C66.5998 273.795 67.3171 272.805 67.6 271.66C68.2284 272.657 69.217 273.373 70.36 273.66C69.3497 274.278 68.6238 275.27 68.34 276.42H68.36Z" fill="white"/>
<path d="M89.84 189.1C89.9143 189.524 89.8169 189.961 89.5694 190.313C89.3218 190.666 88.9443 190.905 88.52 190.98C88.0957 191.054 87.6592 190.957 87.3066 190.709C86.954 190.462 86.7143 190.084 86.64 189.66C86.5657 189.235 86.6631 188.799 86.9106 188.446C87.1582 188.094 87.5357 187.854 87.96 187.78C88.3843 187.705 88.8208 187.803 89.1734 188.05C89.5259 188.298 89.7657 188.675 89.84 189.1Z" fill="white"/>
<path d="M194 184.3C194.037 184.705 193.921 185.109 193.674 185.432C193.427 185.755 193.068 185.973 192.668 186.044C192.267 186.114 191.855 186.032 191.513 185.812C191.171 185.593 190.923 185.253 190.82 184.86C190.783 184.455 190.899 184.051 191.146 183.728C191.393 183.405 191.752 183.187 192.152 183.116C192.553 183.046 192.965 183.128 193.307 183.348C193.649 183.567 193.897 183.907 194 184.3Z" fill="white"/>
<path d="M390.34 214.56C390.16 213.46 388.06 211.76 373.82 207.36C365.28 204.72 349.28 198.3 341.2 194.88C324.871 185.825 307.285 179.253 289.02 175.38C283.144 174.12 277.021 174.743 271.52 177.16L253.36 185.16C264.22 165.16 274.12 145.16 283.12 126.44C284.441 123.142 286.219 120.045 288.4 117.24C291.48 112.94 293.7 109.82 291.56 102.06C288.74 91.84 294.3 69.9 287.96 70.06C286.86 70.06 284.94 72.06 279.12 85.76C276.62 91.66 272 100.8 268 108.36C258.18 103.46 249.06 102.52 247.14 106.2C246.5 107.4 235.28 134.02 215.8 169.64C215.769 169.725 215.769 169.819 215.801 169.905C215.833 169.99 215.895 170.061 215.975 170.105C216.055 170.148 216.148 170.162 216.237 170.143C216.326 170.123 216.405 170.073 216.46 170C227.46 150 237.68 129.3 246.86 108.68C248.22 115.52 265.68 127.46 278.28 127.46C279.538 127.479 280.792 127.31 282 126.96C263.4 165.64 240.9 209.82 214.38 246.96C214.08 247.36 214.72 247.78 215 247.4C217.24 244.24 219.453 241.04 221.64 237.8C239.996 231.472 257.47 222.829 273.64 212.08C290.08 213.08 307.04 218.42 325.5 228.4C325.569 228.452 325.653 228.48 325.74 228.48C325.827 228.48 325.911 228.452 325.98 228.4C328.881 224.712 331.432 220.761 333.6 216.6C346.62 221.64 349.74 225.06 358.86 221.5C368.72 217.58 391.38 220.78 390.34 214.56ZM261.6 121.66C263.74 118.36 275.4 96.44 279.82 86.08C285.42 72.9 287.36 70.88 288.02 70.82C292.98 70.42 288.16 92.52 290.84 102.22C294.06 113.86 287.12 114.4 282.46 126C277.76 128 268.12 125.38 261.6 121.66ZM326.38 214.92C329.34 216.34 331.38 217.42 332.1 217.84C330.213 221.251 328.06 224.508 325.66 227.58C307.16 217.58 290.14 212.32 273.66 211.32H273.42C255.42 223.7 239.62 229.96 222.4 236.7C233.24 220.56 243.36 203.4 252.8 186.14L271.84 177.8C277.192 175.428 283.159 174.818 288.88 176.06C306.988 179.903 324.43 186.4 340.64 195.34C338.896 202.929 336.152 210.253 332.48 217.12C331.6 216.6 329.46 215.5 326.72 214.18C326.671 214.158 326.619 214.145 326.565 214.143C326.512 214.141 326.459 214.15 326.409 214.168C326.358 214.187 326.312 214.215 326.273 214.251C326.234 214.288 326.202 214.331 326.18 214.38C326.158 214.429 326.145 214.481 326.143 214.534C326.141 214.588 326.15 214.641 326.168 214.691C326.187 214.742 326.215 214.788 326.251 214.827C326.288 214.866 326.331 214.898 326.38 214.92ZM358.66 220.7C350.42 223.92 347.96 221.44 334.02 215.82C337.251 209.43 339.702 202.675 341.32 195.7C350.04 199.36 365.72 205.7 373.58 208.08C387.26 212.3 389.58 214.08 389.58 214.68C390.44 219.62 368.12 217 358.66 220.7Z" fill="white"/>
<path d="M248.82 213.18C246.66 214.32 244.6 215.34 242.82 216.2C242.768 216.216 242.719 216.242 242.678 216.278C242.637 216.314 242.604 216.359 242.582 216.409C242.56 216.459 242.548 216.513 242.549 216.568C242.549 216.622 242.562 216.676 242.585 216.726C242.608 216.775 242.642 216.819 242.684 216.854C242.726 216.89 242.774 216.915 242.827 216.93C242.88 216.945 242.935 216.948 242.989 216.939C243.043 216.931 243.095 216.91 243.14 216.88C245.02 216.02 247.14 215 249.26 213.84C249.303 213.811 249.341 213.774 249.37 213.731C249.399 213.687 249.419 213.639 249.429 213.588C249.439 213.537 249.439 213.484 249.429 213.433C249.419 213.382 249.399 213.333 249.37 213.29C249.341 213.247 249.304 213.209 249.261 213.18C249.217 213.151 249.169 213.131 249.118 213.121C249.067 213.111 249.014 213.111 248.963 213.121C248.912 213.131 248.863 213.151 248.82 213.18Z" fill="white"/>
<path d="M316.34 209.56C314.22 208.68 312.08 207.82 310 207C309.905 206.965 309.799 206.97 309.707 207.013C309.615 207.056 309.544 207.134 309.51 207.23C309.476 207.325 309.48 207.431 309.524 207.522C309.567 207.614 309.644 207.685 309.74 207.72C311.74 208.52 313.94 209.38 316.04 210.26C316.086 210.279 316.135 210.29 316.185 210.291C316.235 210.291 316.285 210.282 316.331 210.263C316.378 210.245 316.42 210.217 316.456 210.182C316.492 210.147 316.52 210.106 316.54 210.06C316.56 210.014 316.57 209.964 316.571 209.914C316.571 209.864 316.562 209.815 316.544 209.768C316.525 209.722 316.497 209.68 316.463 209.644C316.428 209.608 316.386 209.579 316.34 209.56Z" fill="white"/>
<path d="M264.46 204C262.46 205.24 260.56 206.44 258.66 207.58C258.572 207.633 258.51 207.719 258.485 207.818C258.461 207.918 258.477 208.023 258.53 208.11C258.583 208.198 258.669 208.261 258.768 208.285C258.867 208.309 258.972 208.293 259.06 208.24C260.96 207.08 262.92 205.88 264.86 204.64C264.933 204.582 264.981 204.499 264.997 204.407C265.012 204.316 264.994 204.221 264.944 204.142C264.895 204.064 264.818 204.006 264.729 203.979C264.64 203.953 264.544 203.96 264.46 204Z" fill="white"/>
<path d="M281.5 199.3C279.223 199.042 276.929 198.969 274.64 199.08C274.541 199.09 274.449 199.136 274.383 199.21C274.316 199.284 274.279 199.38 274.28 199.48C274.28 200.26 275.14 199.48 281.42 200.04C281.474 200.057 281.531 200.062 281.586 200.055C281.642 200.047 281.696 200.028 281.743 199.997C281.791 199.966 281.831 199.925 281.86 199.877C281.89 199.829 281.908 199.775 281.914 199.719C281.92 199.663 281.914 199.606 281.895 199.553C281.877 199.5 281.846 199.451 281.807 199.411C281.767 199.371 281.719 199.34 281.666 199.321C281.613 199.302 281.556 199.295 281.5 199.3Z" fill="white"/>
<path d="M299.28 203.26C297 202.54 294.8 201.92 292.7 201.38C292.602 201.353 292.497 201.367 292.409 201.418C292.321 201.468 292.257 201.552 292.23 201.65C292.203 201.748 292.217 201.853 292.268 201.941C292.318 202.029 292.402 202.093 292.5 202.12C294.6 202.64 296.8 203.28 299.04 203.98C299.52 204.12 299.76 203.4 299.28 203.26Z" fill="white"/>
<path d="M213.72 344.64L216.5 333.06L207.92 334.64C207.858 334.651 207.794 334.647 207.734 334.628C207.674 334.609 207.619 334.575 207.575 334.529C207.532 334.483 207.5 334.427 207.483 334.366C207.467 334.305 207.466 334.241 207.48 334.18L210.4 322C210.412 321.951 210.433 321.905 210.463 321.865C210.492 321.825 210.529 321.791 210.572 321.765C210.615 321.739 210.662 321.721 210.712 321.713C210.761 321.706 210.811 321.708 210.86 321.72C210.909 321.732 210.954 321.753 210.995 321.782C211.035 321.812 211.069 321.849 211.095 321.892C211.121 321.934 211.139 321.982 211.146 322.031C211.154 322.081 211.152 322.131 211.14 322.18L208.36 333.76C217.66 332.04 217.08 332.08 217.28 332.28C217.48 332.48 217.6 331.54 214.46 344.78C214.431 344.867 214.371 344.941 214.292 344.987C214.213 345.034 214.119 345.05 214.029 345.033C213.939 345.016 213.857 344.967 213.801 344.894C213.744 344.822 213.715 344.732 213.72 344.64Z" fill="white"/>
<path d="M230 181.88L207.24 161.08C207.166 161.011 207.067 160.975 206.966 160.978C206.865 160.982 206.769 161.026 206.7 161.1C206.631 161.174 206.594 161.273 206.598 161.374C206.602 161.476 206.646 161.571 206.72 161.64L206.84 161.74C204.35 168.394 201.285 174.818 197.68 180.94C198.391 181.716 199.058 182.531 199.68 183.38C192.8 197.88 185.22 212.88 176.62 227.38C176.557 227.345 176.485 227.328 176.413 227.332C176.341 227.336 176.272 227.36 176.213 227.402C176.154 227.444 176.108 227.502 176.081 227.569C176.054 227.636 176.047 227.709 176.06 227.78L182.7 265.4C182.714 265.487 182.757 265.566 182.823 265.624C182.888 265.683 182.972 265.717 183.06 265.72C183.28 265.72 185.06 265.4 217.06 259.72C217.108 259.713 217.153 259.696 217.194 259.671C217.235 259.646 217.271 259.613 217.299 259.573C217.327 259.534 217.346 259.49 217.357 259.443C217.368 259.396 217.369 259.347 217.36 259.3L204.62 187.04L229.88 182.58C229.965 182.581 230.048 182.551 230.113 182.496C230.178 182.441 230.222 182.365 230.236 182.281C230.251 182.197 230.235 182.111 230.192 182.037C230.148 181.964 230.08 181.908 230 181.88Z" fill="white"/>
<path d="M205.8 153.32C205.73 152.529 205.451 151.771 204.99 151.124C204.53 150.477 203.905 149.965 203.18 149.64C203.018 148.828 202.654 148.069 202.123 147.433C201.592 146.797 200.91 146.305 200.14 146C199.86 144.26 198.62 143.62 196.9 143.46C194.468 143.354 192.078 144.12 190.16 145.62L190.72 146.14C192.433 144.808 194.55 144.102 196.72 144.14C197.153 144.118 197.584 144.201 197.978 144.382C198.372 144.563 198.715 144.837 198.98 145.18C199.72 146.36 199.28 148.88 197.56 153.32C197.545 153.407 197.561 153.497 197.605 153.574C197.65 153.65 197.719 153.709 197.802 153.74C197.885 153.771 197.976 153.772 198.06 153.742C198.144 153.713 198.214 153.656 198.26 153.58C199.221 151.437 199.836 149.156 200.08 146.82C202.78 148.42 203.16 150.14 200.84 156.12C200.817 156.209 200.827 156.304 200.869 156.387C200.91 156.469 200.981 156.534 201.067 156.568C201.153 156.603 201.248 156.604 201.335 156.574C201.422 156.543 201.495 156.481 201.54 156.4C202.364 154.532 202.897 152.549 203.12 150.52C205.12 151.82 205.78 153.84 203.42 159.9C203.391 159.948 203.373 160.001 203.367 160.057C203.362 160.113 203.368 160.169 203.387 160.222C203.405 160.274 203.435 160.322 203.474 160.362C203.513 160.402 203.561 160.433 203.613 160.452C203.665 160.472 203.722 160.48 203.777 160.475C203.833 160.47 203.887 160.453 203.935 160.425C203.984 160.397 204.025 160.359 204.057 160.313C204.089 160.267 204.111 160.215 204.12 160.16C204.947 158.251 205.48 156.228 205.7 154.16C207.7 155.72 207.7 157.8 205.7 163.32C203.274 169.104 200.509 174.741 197.42 180.2C192.61 174.966 186.217 171.453 179.22 170.2C181.787 165.643 183.412 160.617 184 155.42C184.62 149.58 185.62 148.26 186 148.26C186.38 148.26 187.42 149.86 188 157C187.36 157.78 186.66 158.6 185.88 159.48C185.838 159.515 185.803 159.558 185.779 159.608C185.755 159.657 185.742 159.711 185.741 159.766C185.74 159.821 185.75 159.875 185.772 159.926C185.794 159.976 185.827 160.021 185.868 160.058C185.908 160.094 185.957 160.121 186.009 160.137C186.062 160.154 186.117 160.158 186.172 160.151C186.226 160.143 186.278 160.124 186.325 160.095C186.371 160.065 186.41 160.026 186.44 159.98C189.64 156.591 192.334 152.758 194.44 148.6C194.461 148.554 194.473 148.504 194.475 148.454C194.476 148.403 194.468 148.353 194.451 148.306C194.433 148.258 194.406 148.215 194.372 148.178C194.337 148.141 194.296 148.111 194.25 148.09C194.204 148.069 194.154 148.057 194.104 148.055C194.053 148.054 194.003 148.062 193.956 148.079C193.908 148.097 193.865 148.124 193.828 148.158C193.791 148.193 193.761 148.234 193.74 148.28C192.361 151.115 190.627 153.763 188.58 156.16C188.1 150.44 187.22 147.52 185.96 147.52C184.7 147.52 183.66 151.76 183.26 155.34C182.877 160.604 181.223 165.696 178.44 170.18L176.96 170C176.883 169.998 176.806 170.018 176.739 170.056C176.672 170.095 176.617 170.152 176.58 170.22C165.324 193.853 152.027 216.459 136.84 237.78C123.893 217.758 113.195 196.368 104.94 174C104.608 173.49 104.133 173.089 103.575 172.847C103.016 172.606 102.399 172.533 101.8 172.64C94.96 157.26 96.04 160.44 89.3 148.94C88.2 147.1 84.14 140.18 82.28 141.24C81.42 141.72 81.7 143.56 83.16 146.7C83.7807 148.043 84.3282 149.418 84.8 150.82C83.2 148.38 80.8 145.1 79.9 143.92C79 142.74 76.54 139.64 75.22 140.46C74.38 141 74.76 142.82 76.36 145.88C77.96 148.94 79.02 151.24 79.92 153.24C78.26 151.24 75.66 148 73.42 145.24C71.8 143.24 69.68 141.24 68.62 142C67.56 142.76 68.78 145.38 70 147.44C70.3 147.92 73.18 152.88 75.24 156.4L70 151.4C68 149.62 65.68 148.06 64.74 148.96C63.8 149.86 65.42 152.26 66.98 154.1L73.82 162.52C75.02 163.98 76.18 166.32 75.82 166.7C73.4 168.7 64.1 168.32 64.4 171.6C64.4 172.22 64.62 174.04 75.26 174.48C76.3847 174.53 77.4688 174.915 78.3737 175.585C79.2786 176.255 79.9632 177.179 80.34 178.24C80.34 178.24 80.64 179.04 80.96 179.96C80.16 180.78 79.32 181.96 79.8 182.94C79.8 183.32 85.8 198.36 90.48 208.48C86.48 204.72 82.86 206.14 84.22 212.8C84.8613 215.882 85.8685 218.877 87.22 221.72C81.12 215.32 80.24 223.28 85.4 230.52C88.32 234.52 91.94 236.12 96.12 237.68C93.04 243.02 96.88 247.42 102.36 250.18C109.93 253.999 117.145 258.483 123.92 263.58C139.7 275.06 157 279.58 175.2 272.78C175.27 272.749 175.33 272.699 175.373 272.635C175.415 272.571 175.439 272.497 175.44 272.42C175.385 261.787 172.691 251.335 167.6 242C180 224 188 207.66 200 183.52C200.033 183.462 200.051 183.397 200.051 183.33C200.051 183.263 200.033 183.198 200 183.14C199.374 182.352 198.706 181.598 198 180.88C201.154 175.313 203.973 169.563 206.44 163.66C208.54 158 208.9 155.32 205.8 153.32ZM77.02 145.48C75.28 142.16 75.48 141.14 75.62 141.04C75.76 140.94 77.12 141.42 79.3 144.32C81.615 147.307 83.7456 150.433 85.68 153.68C86.0369 154.794 86.3242 155.93 86.54 157.08C85.1949 157.133 83.8568 157.3 82.54 157.58C80.9281 153.446 79.0852 149.407 77.02 145.48ZM70.66 146.92C68.66 143.68 68.9 142.6 69.06 142.5C69.22 142.4 70.8 143.02 72.82 145.58C82.4 157.58 80.54 154.54 81.82 157.76C80.4441 158.112 79.1048 158.595 77.82 159.2L70.66 146.92ZM75.1 173.74C67.76 173.42 65.1 172.4 64.98 171.54C64.78 169.34 73.78 169.28 76.12 167.26C77.5 166.1 74.34 162.08 74.3 162.04L67.46 153.62C65.02 150.72 65.04 149.62 65.18 149.5C65.32 149.38 66.98 149.74 69.38 151.94L76.5 158.44L77.14 159.52C76.62 159.78 76.08 160.06 75.54 160.38C75.4967 160.405 75.4587 160.438 75.4282 160.478C75.3977 160.517 75.3753 160.563 75.3623 160.611C75.3493 160.659 75.3459 160.71 75.3524 160.759C75.3589 160.809 75.3751 160.857 75.4 160.9C75.425 160.943 75.4582 160.981 75.4978 161.012C75.5375 161.042 75.5827 161.065 75.631 161.078C75.6793 161.091 75.7297 161.094 75.7793 161.088C75.8288 161.081 75.8767 161.065 75.92 161.04C80.7531 158.238 86.3919 157.152 91.92 157.96C92.36 158.08 92.52 157.24 91.92 157.2C90.3967 157.075 88.8681 157.029 87.34 157.06C86.5974 153.36 85.4367 149.757 83.88 146.32C82.32 142.92 82.54 141.92 82.68 141.84C82.82 141.76 84.22 142.36 86.3 145.48C88.82 149.24 89.92 151.58 94.3 158.66C96.3 161.92 102.64 176.44 102.74 176.66C96.9636 180.917 90.032 183.323 82.86 183.56C81.12 178.74 81.1 178.7 80.86 178C80.4343 176.796 79.6584 175.748 78.6319 174.989C77.6055 174.229 76.3755 173.795 75.1 173.74ZM95.38 210.3C95.1846 210.246 94.9775 210.251 94.7851 210.315C94.5927 210.379 94.4239 210.499 94.3 210.66C93.8541 211.339 93.6628 212.154 93.76 212.96C93.2402 212.089 92.6727 211.248 92.06 210.44C88.42 202.84 85.1 194.94 80.8 183.92C85.88 185.92 102.16 180.3 104.8 175.5C113.178 197.473 123.773 218.535 136.42 238.36C132.82 243.28 129.147 248.007 125.4 252.54C124.136 251.995 122.984 251.222 122 250.26C124.22 249.04 125.34 247.76 125.6 246.26C126.4 241.68 117.76 234.92 113.76 231.74C111.42 229.9 107.44 229.86 103.26 231.64C100.52 218.66 97.66 210.88 95.38 210.3ZM199.12 183.4C185.68 210.86 176.5 229.4 158.64 253.06C158.44 253.34 158.64 253.88 159.28 253.5L168.8 246C172.537 254.224 174.487 263.147 174.52 272.18C157.92 278.32 140.98 275.22 124.18 262.98C119.98 259.844 115.621 256.927 111.12 254.24C111.24 253.14 108.66 248.64 106.84 248.24C102.6 247.3 103.28 243.74 106.08 244.76C106.5 244.9 107.64 245.32 107.96 244.64C108.46 243.6 105.76 241.26 103.96 240.1C106.908 237.232 110.216 234.758 113.8 232.74C122.04 239.34 125.36 243.36 124.88 246.16C124.52 248.16 122.06 249.86 116.88 251.58C116.805 251.605 116.739 251.654 116.693 251.718C116.647 251.783 116.622 251.86 116.622 251.94C116.622 252.019 116.647 252.097 116.693 252.162C116.739 252.226 116.805 252.275 116.88 252.3C119.312 253.169 121.877 253.609 124.46 253.6L121.74 256.82C121.698 256.855 121.663 256.898 121.639 256.948C121.615 256.997 121.602 257.051 121.601 257.106C121.6 257.161 121.61 257.215 121.632 257.266C121.654 257.316 121.687 257.361 121.728 257.398C121.768 257.434 121.817 257.461 121.869 257.477C121.922 257.494 121.977 257.498 122.032 257.491C122.086 257.483 122.138 257.464 122.185 257.435C122.231 257.405 122.27 257.366 122.3 257.32C144.64 231.32 161.96 201.66 177.12 170.74C181.457 171.238 185.646 172.618 189.429 174.795C193.212 176.973 196.51 179.901 199.12 183.4Z" fill="white"/>
<path d="M93.18 169.68C91.0511 167.531 88.495 165.853 85.6769 164.754C82.8588 163.655 79.8415 163.16 76.82 163.3C76.7365 163.32 76.6621 163.367 76.6089 163.434C76.5556 163.501 76.5266 163.584 76.5266 163.67C76.5266 163.756 76.5556 163.839 76.6089 163.906C76.6621 163.973 76.7365 164.021 76.82 164.04C79.7441 163.908 82.6633 164.392 85.3885 165.46C88.1137 166.528 90.5842 168.156 92.64 170.24C92.7143 170.312 92.8139 170.351 92.9171 170.349C93.0202 170.347 93.1184 170.304 93.19 170.23C93.2616 170.156 93.3008 170.056 93.2989 169.953C93.297 169.85 93.2543 169.752 93.18 169.68Z" fill="white"/>
</svg>
