<svg width="400" height="401" viewBox="0 0 400 401" fill="none" xmlns="http://www.w3.org/2000/svg">
<path d="M380.72 219.042C380.699 218.946 380.64 218.863 380.558 218.811C380.475 218.758 380.375 218.74 380.28 218.762C380.184 218.783 380.101 218.841 380.049 218.924C379.996 219.006 379.979 219.106 380 219.202C381.59 226.031 381.772 233.113 380.534 240.015C379.296 246.918 376.664 253.495 372.799 259.346C368.934 265.197 363.917 270.199 358.054 274.046C352.191 277.893 345.606 280.505 338.7 281.722L82.34 326.922C74.2666 328.34 65.9848 328.036 58.0371 326.03C50.0894 324.023 42.6554 320.361 36.222 315.281C29.7887 310.202 24.5013 303.82 20.7064 296.554C16.9114 289.289 14.6946 281.303 14.2011 273.121C13.7076 264.939 14.9487 256.745 17.8429 249.076C20.7371 241.407 25.2192 234.436 30.9954 228.621C36.7716 222.805 43.7115 218.275 51.3605 215.328C59.0094 212.381 67.1947 211.084 75.38 211.522C75.4491 211.525 75.5178 211.509 75.5786 211.476C75.6393 211.443 75.69 211.394 75.7249 211.334C75.7599 211.275 75.778 211.206 75.7771 211.137C75.7762 211.068 75.7565 211 75.72 210.942C69.0787 200.004 67.0231 186.887 70 174.442C70.0149 174.393 70.0194 174.342 70.0131 174.291C70.0068 174.241 69.9898 174.192 69.9634 174.149C69.9369 174.105 69.9016 174.068 69.8596 174.039C69.8176 174.01 69.7701 173.991 69.72 173.982C69.6248 173.963 69.5262 173.982 69.4444 174.034C69.3626 174.086 69.3038 174.168 69.28 174.262C66.3194 186.646 68.2614 199.696 74.7 210.682C66.4326 210.339 58.1856 211.741 50.4959 214.796C42.8061 217.852 35.8458 222.492 30.068 228.415C24.2901 234.338 19.8242 241.412 16.9608 249.175C14.0974 256.938 12.9007 265.217 13.4485 273.474C13.9964 281.73 16.2766 289.779 20.1407 297.095C24.0048 304.412 29.3662 310.833 35.8761 315.941C42.386 321.049 49.8984 324.729 57.9244 326.741C65.9505 328.754 74.3103 329.054 82.46 327.622L338.82 282.422C345.824 281.193 352.505 278.549 358.452 274.651C364.4 270.753 369.49 265.683 373.412 259.75C377.334 253.818 380.005 247.149 381.261 240.149C382.518 233.15 382.333 225.967 380.72 219.042Z" fill="#1890ff"/>
<path d="M276.28 93.7216C267.584 87.592 257.773 83.2232 247.4 80.8616C247.191 77.2402 246.245 73.6995 244.621 70.4559C242.997 67.2123 240.729 64.3339 237.954 61.9967C235.18 59.6595 231.959 57.9126 228.486 56.8627C225.014 55.8128 221.364 55.482 217.76 55.8905C214.155 56.299 210.672 57.4383 207.523 59.2386C204.374 61.0389 201.625 63.4625 199.444 66.3613C197.263 69.2601 195.697 72.5731 194.84 76.0979C193.983 79.6227 193.854 83.2852 194.46 86.8616C182.334 92.6109 171.83 101.289 163.897 112.114C155.964 122.938 150.851 135.567 149.02 148.862C140.506 141.476 129.71 137.246 118.445 136.882C107.18 136.518 96.1331 140.042 87.16 146.862C87.0916 146.926 87.0495 147.014 87.042 147.108C87.0344 147.201 87.0619 147.295 87.1192 147.369C87.1764 147.444 87.2593 147.495 87.3518 147.512C87.4443 147.529 87.5399 147.511 87.62 147.462C96.5373 140.66 107.543 137.174 118.75 137.601C129.957 138.028 140.666 142.342 149.04 149.802C149.092 149.845 149.155 149.874 149.222 149.885C149.289 149.896 149.357 149.889 149.421 149.864C149.484 149.84 149.54 149.799 149.582 149.746C149.624 149.692 149.651 149.629 149.66 149.562C151.381 136.295 156.396 123.67 164.25 112.84C172.104 102.01 182.545 93.3195 194.62 87.5616C195.945 94.105 199.675 99.9139 205.074 103.841C210.472 107.769 217.147 109.53 223.781 108.776C230.414 108.023 236.524 104.81 240.904 99.7713C245.284 94.7329 247.616 88.2355 247.44 81.5616C257.642 83.9095 267.288 88.2233 275.84 94.2616C276.24 94.6816 276.68 94.0216 276.28 93.7216ZM225.26 107.722C218.564 108.897 211.675 107.403 206.067 103.56C200.459 99.7168 196.58 93.8304 195.26 87.1616C211.292 79.6859 229.333 77.6697 246.62 81.4216C246.811 87.6484 244.759 93.7366 240.839 98.5782C236.919 103.42 231.39 106.693 225.26 107.802V107.722Z" fill="#1890ff"/>
<path d="M376.76 209.642C371.317 197.592 361.456 188.092 349.212 183.101C336.968 178.111 323.276 178.011 310.96 182.822C310.87 182.856 310.77 182.854 310.68 182.817C310.591 182.779 310.52 182.71 310.48 182.622C310.461 182.574 310.451 182.524 310.452 182.473C310.453 182.422 310.463 182.372 310.484 182.325C310.505 182.278 310.534 182.236 310.571 182.201C310.608 182.166 310.652 182.139 310.7 182.122C323.194 177.247 337.083 177.35 349.503 182.41C361.924 187.471 371.93 197.103 377.46 209.322C377.481 209.368 377.493 209.417 377.495 209.468C377.496 209.518 377.488 209.569 377.471 209.616C377.453 209.663 377.426 209.707 377.392 209.744C377.357 209.781 377.316 209.811 377.27 209.832C377.224 209.853 377.174 209.864 377.124 209.866C377.073 209.868 377.023 209.86 376.976 209.842C376.928 209.825 376.885 209.798 376.848 209.763C376.811 209.729 376.781 209.688 376.76 209.642Z" fill="#1890ff"/>
<path d="M71.06 169.662C70.9676 169.626 70.8919 169.557 70.8476 169.468C70.8032 169.379 70.7934 169.277 70.82 169.182C71.621 166.983 72.5767 164.845 73.68 162.782C73.7352 162.715 73.8117 162.669 73.8966 162.652C73.9815 162.634 74.0698 162.646 74.1468 162.686C74.2239 162.726 74.285 162.791 74.3202 162.87C74.3553 162.949 74.3623 163.038 74.34 163.122C71.38 168.682 71.82 169.922 71.06 169.662Z" fill="#1890ff"/>
<path d="M307.16 181.282C310.535 168.888 310.894 155.867 308.208 143.307C305.522 130.746 299.868 119.011 291.72 109.082C291.68 109.045 291.648 109 291.627 108.95C291.606 108.9 291.596 108.846 291.597 108.792C291.598 108.738 291.611 108.684 291.635 108.635C291.659 108.587 291.693 108.543 291.735 108.509C291.776 108.474 291.825 108.449 291.878 108.435C291.93 108.421 291.985 108.418 292.038 108.427C292.092 108.435 292.143 108.456 292.188 108.486C292.233 108.516 292.271 108.555 292.3 108.602C300.545 118.614 306.272 130.455 309.004 143.134C311.735 155.814 311.391 168.963 308 181.482C307.987 181.537 307.963 181.589 307.93 181.635C307.897 181.681 307.855 181.72 307.806 181.749C307.758 181.779 307.704 181.799 307.648 181.808C307.592 181.817 307.535 181.815 307.48 181.802C307.425 181.788 307.373 181.765 307.327 181.731C307.281 181.698 307.242 181.656 307.212 181.608C307.183 181.56 307.163 181.506 307.154 181.45C307.145 181.394 307.147 181.337 307.16 181.282Z" fill="#1890ff"/>
<path d="M252.52 186.682C242.82 204.482 232.52 221.902 221.42 238.282C239.842 231.917 257.382 223.241 273.62 212.462C291.24 213.542 308.6 219.582 325.76 228.842C333.245 219.175 338.467 207.953 341.04 196.002C324.745 186.944 307.183 180.384 288.94 176.542C283.139 175.282 277.088 175.898 271.66 178.302L252.52 186.682Z" fill="#FFE7EA"/>
<path d="M202.3 262.542C194.852 269.434 185.047 273.213 174.9 273.102C174.899 262.434 172.231 251.936 167.14 242.562C167.14 242.562 176.06 229.242 176.3 228.322L182.94 265.962L202.3 262.542Z" fill="#FFE7EA"/>
<path d="M174.9 273.482C174.849 273.485 174.799 273.477 174.751 273.459C174.704 273.441 174.661 273.413 174.625 273.377C174.589 273.341 174.561 273.298 174.543 273.25C174.525 273.203 174.517 273.152 174.52 273.102C174.538 262.477 171.89 252.018 166.82 242.682C166.785 242.621 166.766 242.552 166.766 242.482C166.766 242.411 166.785 242.342 166.82 242.282C170.36 237.002 175.7 228.882 175.92 228.162C175.959 228.082 176.025 228.018 176.106 227.982C176.187 227.945 176.278 227.939 176.363 227.962C176.449 227.986 176.523 228.039 176.574 228.112C176.624 228.185 176.648 228.273 176.64 228.362C176.42 229.262 169.32 239.902 167.58 242.522C172.568 251.796 175.212 262.151 175.28 272.682C185.179 272.686 194.718 268.967 202 262.262C202.076 262.213 202.167 262.192 202.257 262.204C202.347 262.217 202.429 262.26 202.489 262.328C202.55 262.395 202.584 262.482 202.586 262.573C202.588 262.663 202.557 262.752 202.5 262.822C195.018 269.8 185.13 273.619 174.9 273.482Z" fill="#1890ff"/>
<path d="M262 122.962C252.42 117.962 246 111.122 247.32 107.422C237.907 128.755 227.52 149.782 216.16 170.502L229.68 182.842L204 187.362L214.66 247.862C241.02 210.962 263.24 167.562 282.94 126.482C280.22 129.182 271.18 127.742 262 122.962Z" fill="#FFE7EA"/>
<path d="M176.56 259.922C176.477 259.902 176.402 259.855 176.349 259.788C176.296 259.721 176.267 259.637 176.267 259.552C176.267 259.466 176.296 259.383 176.349 259.316C176.402 259.248 176.477 259.201 176.56 259.182C178.244 258.695 179.824 257.901 181.22 256.842C181.256 256.797 181.301 256.761 181.352 256.736C181.404 256.711 181.46 256.698 181.518 256.698C181.575 256.698 181.631 256.711 181.683 256.736C181.734 256.761 181.78 256.797 181.815 256.842C181.851 256.887 181.876 256.939 181.888 256.995C181.901 257.051 181.9 257.109 181.887 257.164C181.874 257.22 181.849 257.272 181.813 257.317C181.777 257.361 181.732 257.397 181.68 257.422C180.165 258.601 178.422 259.452 176.56 259.922Z" fill="#1890ff"/>
<path d="M268.56 129.322L270 126.282C270.045 126.191 270.124 126.123 270.22 126.091C270.315 126.059 270.42 126.067 270.51 126.112C270.6 126.157 270.669 126.236 270.701 126.331C270.732 126.427 270.725 126.531 270.68 126.622L269.14 129.662C269.081 129.698 269.014 129.718 268.944 129.719C268.875 129.72 268.807 129.702 268.747 129.667C268.688 129.632 268.639 129.581 268.606 129.52C268.573 129.459 268.557 129.391 268.56 129.322Z" fill="#1890ff"/>
<path d="M219.08 220.682L222.4 215.102C222.418 215.048 222.448 215 222.488 214.959C222.527 214.919 222.575 214.888 222.628 214.869C222.681 214.849 222.738 214.842 222.794 214.847C222.85 214.852 222.905 214.87 222.953 214.899C223.002 214.928 223.043 214.967 223.075 215.014C223.106 215.061 223.127 215.114 223.135 215.17C223.143 215.225 223.139 215.282 223.123 215.336C223.106 215.39 223.078 215.44 223.04 215.482C221.92 217.382 220.82 219.262 219.72 221.062C219.661 221.126 219.582 221.169 219.495 221.181C219.409 221.194 219.32 221.177 219.245 221.132C219.17 221.088 219.113 221.018 219.082 220.936C219.052 220.854 219.051 220.764 219.08 220.682ZM227.82 205.722C228.88 203.862 229.94 201.962 231 200.062C231.05 199.974 231.133 199.91 231.231 199.884C231.329 199.858 231.432 199.871 231.52 199.922C231.608 199.972 231.671 200.055 231.698 200.153C231.724 200.25 231.71 200.354 231.66 200.442C230.593 202.348 229.533 204.228 228.48 206.082C228.425 206.154 228.346 206.205 228.257 206.224C228.168 206.243 228.075 206.23 227.995 206.186C227.915 206.143 227.853 206.072 227.821 205.986C227.789 205.901 227.789 205.807 227.82 205.722ZM236.28 190.682C237.32 188.782 238.28 186.882 239.38 184.982C239.428 184.891 239.509 184.824 239.607 184.794C239.704 184.764 239.81 184.774 239.9 184.822C239.99 184.869 240.058 184.951 240.088 185.049C240.118 185.146 240.108 185.251 240.06 185.342L236.94 191.042C236.921 191.093 236.891 191.139 236.853 191.178C236.815 191.217 236.768 191.247 236.717 191.266C236.666 191.285 236.611 191.293 236.557 191.29C236.502 191.286 236.449 191.27 236.401 191.244C236.353 191.218 236.312 191.182 236.279 191.138C236.246 191.094 236.223 191.044 236.212 190.991C236.2 190.937 236.2 190.882 236.212 190.829C236.224 190.775 236.247 190.725 236.28 190.682ZM244.54 175.462C245.58 173.462 246.54 171.622 247.6 169.722C247.619 169.67 247.648 169.624 247.687 169.585C247.725 169.546 247.772 169.516 247.823 169.497C247.874 169.478 247.929 169.47 247.983 169.474C248.038 169.478 248.091 169.493 248.139 169.519C248.187 169.545 248.228 169.581 248.261 169.625C248.294 169.669 248.317 169.719 248.328 169.773C248.34 169.826 248.34 169.881 248.328 169.935C248.316 169.988 248.293 170.038 248.26 170.082C247.26 171.962 246.26 173.882 245.2 175.802C245.144 175.889 245.056 175.951 244.955 175.973C244.854 175.996 244.748 175.977 244.66 175.922C244.572 175.866 244.511 175.778 244.488 175.677C244.466 175.575 244.484 175.469 244.54 175.382V175.462ZM252.66 160.142L255.68 154.402C255.699 154.35 255.728 154.304 255.767 154.265C255.805 154.226 255.852 154.196 255.903 154.177C255.954 154.158 256.009 154.15 256.063 154.154C256.118 154.158 256.171 154.173 256.219 154.199C256.267 154.225 256.308 154.261 256.341 154.305C256.374 154.349 256.397 154.399 256.408 154.453C256.42 154.506 256.419 154.561 256.408 154.615C256.396 154.668 256.373 154.718 256.34 154.762C255.38 156.622 254.34 158.542 253.34 160.502C253.311 160.546 253.274 160.585 253.23 160.615C253.186 160.645 253.137 160.666 253.085 160.678C253.033 160.689 252.979 160.69 252.927 160.68C252.875 160.67 252.825 160.651 252.78 160.622C252.735 160.593 252.697 160.555 252.667 160.512C252.636 160.468 252.615 160.419 252.604 160.367C252.593 160.315 252.592 160.261 252.602 160.208C252.611 160.156 252.631 160.106 252.66 160.062V160.142ZM260.66 144.782L263.64 139.022C263.683 138.932 263.76 138.863 263.853 138.83C263.947 138.796 264.05 138.8 264.14 138.842C264.227 138.892 264.292 138.974 264.322 139.07C264.352 139.167 264.344 139.271 264.3 139.362C263.38 141.142 262.4 143.062 261.32 145.122C261.262 145.207 261.172 145.265 261.071 145.283C260.969 145.302 260.865 145.28 260.78 145.222C260.695 145.163 260.637 145.074 260.618 144.972C260.599 144.871 260.622 144.767 260.68 144.682L260.66 144.782Z" fill="#1890ff"/>
<path d="M211.72 232.462L213.56 229.602C213.588 229.56 213.623 229.523 213.665 229.495C213.706 229.467 213.753 229.447 213.802 229.437C213.851 229.427 213.902 229.426 213.952 229.436C214.001 229.445 214.048 229.464 214.09 229.492C214.132 229.519 214.168 229.555 214.196 229.596C214.225 229.638 214.245 229.685 214.255 229.734C214.265 229.783 214.265 229.834 214.256 229.883C214.247 229.933 214.228 229.98 214.2 230.022L212.34 232.862C212.314 232.902 212.28 232.937 212.24 232.965C212.2 232.993 212.155 233.012 212.108 233.022C212.06 233.032 212.012 233.033 211.964 233.025C211.916 233.016 211.871 232.998 211.83 232.972C211.789 232.945 211.754 232.911 211.727 232.872C211.699 232.832 211.68 232.787 211.669 232.739C211.659 232.692 211.658 232.643 211.667 232.595C211.676 232.548 211.694 232.502 211.72 232.462Z" fill="#1890ff"/>
<path d="M194 149.742L177.6 134.782C177.564 134.736 177.519 134.699 177.467 134.674C177.415 134.648 177.358 134.635 177.3 134.635C177.242 134.635 177.185 134.648 177.133 134.674C177.081 134.699 177.036 134.736 177 134.782L144.16 197.682C144.13 197.744 144.118 197.813 144.124 197.882C144.131 197.951 144.156 198.017 144.197 198.072C144.238 198.128 144.294 198.171 144.358 198.197C144.422 198.224 144.492 198.232 144.56 198.222L165 194.682C165.076 194.667 165.145 194.629 165.199 194.574C165.252 194.519 165.288 194.449 165.301 194.373C165.314 194.297 165.304 194.219 165.272 194.149C165.239 194.079 165.186 194.021 165.12 193.982C168.94 186.962 172.9 179.242 176.92 171.042L178.66 171.322C178.66 171.322 182.66 166.342 183.7 156.122C184.74 145.902 187.46 145.742 188.36 157.862C190.317 155.539 192.058 153.042 193.56 150.402C193.648 150.46 193.755 150.481 193.858 150.461C193.961 150.44 194.052 150.379 194.11 150.292C194.168 150.204 194.19 150.097 194.169 149.994C194.148 149.891 194.088 149.8 194 149.742Z" fill="#1890ff"/>
<path d="M144 296.382C143.913 296.387 143.827 296.359 143.76 296.304C143.693 296.248 143.65 296.168 143.64 296.082L141.24 282.682C141.235 282.59 141.264 282.499 141.321 282.427C141.377 282.355 141.459 282.305 141.549 282.288C141.639 282.271 141.733 282.288 141.812 282.334C141.891 282.381 141.951 282.454 141.98 282.542L144.28 295.682L263.28 274.682L260.98 261.562C260.963 261.51 260.957 261.456 260.963 261.402C260.968 261.348 260.985 261.296 261.013 261.249C261.04 261.202 261.077 261.162 261.122 261.131C261.166 261.1 261.217 261.078 261.27 261.068C261.323 261.058 261.378 261.06 261.431 261.072C261.483 261.085 261.533 261.109 261.575 261.143C261.618 261.176 261.653 261.218 261.678 261.266C261.703 261.315 261.717 261.367 261.72 261.422L264.1 274.922C264.109 274.97 264.107 275.021 264.095 275.069C264.083 275.117 264.062 275.162 264.032 275.201C264.002 275.241 263.964 275.274 263.92 275.298C263.877 275.322 263.829 275.337 263.78 275.342C144.88 295.942 144.18 296.382 144 296.382Z" fill="#1890ff"/>
<path d="M10 187.662C9.91004 187.661 9.82314 187.629 9.75476 187.571C9.68638 187.512 9.64094 187.431 9.62654 187.342C9.61214 187.254 9.62971 187.163 9.67612 187.086C9.72253 187.009 9.79478 186.95 9.88 186.922L17.32 184.222C17.4073 184.207 17.497 184.223 17.5736 184.267C17.6503 184.311 17.7091 184.381 17.7399 184.464C17.7708 184.547 17.7716 184.638 17.7424 184.722C17.7132 184.805 17.6558 184.876 17.58 184.922C10.78 187.382 10.2 187.662 10 187.662Z" fill="#1890ff"/>
<path d="M30.66 180.142C30.5682 180.146 30.4777 180.118 30.4054 180.061C30.3331 180.004 30.2838 179.923 30.2667 179.833C30.2496 179.742 30.2659 179.649 30.3125 179.57C30.359 179.49 30.4328 179.431 30.52 179.402L38 176.682C38.0479 176.653 38.1015 176.635 38.1571 176.629C38.2127 176.623 38.2689 176.63 38.3216 176.648C38.3744 176.667 38.4225 176.697 38.4624 176.736C38.5023 176.775 38.533 176.822 38.5525 176.875C38.572 176.927 38.5796 176.983 38.575 177.039C38.5703 177.095 38.5534 177.149 38.5254 177.197C38.4975 177.245 38.4592 177.287 38.4133 177.319C38.3675 177.351 38.3151 177.372 38.26 177.382C31.42 179.862 30.86 180.142 30.66 180.142Z" fill="#1890ff"/>
<path d="M21.3 175.682L18.58 168.242C18.4 167.782 19.12 167.522 19.3 167.982L22 175.442C22.0304 175.49 22.0495 175.545 22.0558 175.602C22.0621 175.659 22.0554 175.716 22.0363 175.77C22.0172 175.824 21.9861 175.873 21.9455 175.914C21.9048 175.954 21.8555 175.984 21.8013 176.003C21.7472 176.022 21.6895 176.028 21.6326 176.021C21.5758 176.014 21.5212 175.994 21.473 175.963C21.4248 175.933 21.3842 175.891 21.3542 175.842C21.3243 175.794 21.3057 175.739 21.3 175.682Z" fill="#1890ff"/>
<path d="M28.8 196.342L26.1 188.902C26.0686 188.852 26.049 188.797 26.0426 188.739C26.0362 188.681 26.0433 188.622 26.0632 188.567C26.0832 188.512 26.1155 188.463 26.1577 188.423C26.1998 188.382 26.2507 188.352 26.3064 188.335C26.362 188.317 26.421 188.313 26.4786 188.322C26.5363 188.331 26.5911 188.353 26.6388 188.386C26.6866 188.42 26.7259 188.464 26.7539 188.515C26.7818 188.566 26.7976 188.623 26.8 188.682L29.52 196.122C29.5346 196.212 29.5158 196.305 29.4673 196.383C29.4187 196.461 29.3436 196.519 29.2559 196.545C29.1681 196.572 29.0736 196.566 28.9898 196.529C28.906 196.491 28.8386 196.425 28.8 196.342Z" fill="#1890ff"/>
<path d="M17.68 179.582C17.48 179.582 17.26 179.422 10.34 176.182C10.2876 176.166 10.2392 176.139 10.1981 176.103C10.157 176.067 10.1242 176.023 10.1019 175.973C10.0796 175.923 10.0683 175.869 10.0688 175.814C10.0694 175.759 10.0817 175.705 10.105 175.656C10.1283 175.606 10.162 175.562 10.2038 175.527C10.2455 175.492 10.2945 175.466 10.3471 175.451C10.3998 175.437 10.4551 175.434 10.5091 175.442C10.5631 175.451 10.6145 175.471 10.66 175.502L17.84 178.862C17.9159 178.899 17.977 178.962 18.0135 179.038C18.05 179.115 18.0599 179.201 18.0415 179.284C18.0231 179.367 17.9775 179.441 17.912 179.495C17.8465 179.549 17.7648 179.58 17.68 179.582Z" fill="#1890ff"/>
<path d="M37.6 188.862C37.4 188.862 37.18 188.702 30.26 185.482C30.2076 185.466 30.1592 185.439 30.1181 185.403C30.077 185.367 30.0442 185.323 30.0219 185.273C29.9996 185.223 29.9883 185.169 29.9888 185.114C29.9894 185.059 30.0017 185.005 30.025 184.956C30.0483 184.906 30.082 184.862 30.1237 184.827C30.1655 184.792 30.2145 184.766 30.2671 184.751C30.3198 184.737 30.3751 184.734 30.4291 184.742C30.4831 184.751 30.5345 184.771 30.58 184.802L37.76 188.142C37.8359 188.179 37.897 188.242 37.9335 188.318C37.97 188.395 37.9799 188.481 37.9615 188.564C37.9431 188.647 37.8975 188.721 37.832 188.775C37.7665 188.829 37.6848 188.86 37.6 188.862Z" fill="#1890ff"/>
<path d="M26.68 175.642L30 168.462C30.0157 168.409 30.0424 168.361 30.0785 168.32C30.1146 168.279 30.1591 168.246 30.209 168.224C30.259 168.201 30.3131 168.19 30.3678 168.19C30.4225 168.191 30.4764 168.203 30.5259 168.227C30.5754 168.25 30.6192 168.284 30.6545 168.325C30.6898 168.367 30.7156 168.416 30.7302 168.469C30.7449 168.521 30.7479 168.577 30.7393 168.631C30.7306 168.685 30.7104 168.736 30.68 168.782L27.34 175.962C27.2852 176.025 27.2112 176.068 27.1294 176.084C27.0477 176.101 26.9627 176.09 26.8876 176.054C26.8125 176.018 26.7515 175.958 26.714 175.883C26.6765 175.808 26.6645 175.724 26.68 175.642Z" fill="#1890ff"/>
<path d="M17.38 195.562L20.74 188.382C20.7906 188.306 20.8666 188.251 20.9543 188.227C21.0419 188.202 21.1354 188.21 21.2177 188.249C21.3 188.288 21.3657 188.355 21.4028 188.438C21.44 188.521 21.4461 188.614 21.42 188.702L18 195.882C17.9426 195.929 17.8727 195.958 17.799 195.966C17.7252 195.973 17.6507 195.959 17.5848 195.925C17.5189 195.891 17.4644 195.839 17.428 195.774C17.3916 195.71 17.3749 195.636 17.38 195.562Z" fill="#1890ff"/>
<path d="M343.86 152.342L334.06 154.082L332.3 144.262C332.271 144.174 332.211 144.101 332.132 144.054C332.053 144.008 331.959 143.991 331.869 144.008C331.778 144.025 331.697 144.075 331.641 144.147C331.584 144.219 331.555 144.31 331.56 144.402L333.32 154.222L323.5 155.962C323.413 155.991 323.339 156.05 323.292 156.13C323.246 156.209 323.23 156.302 323.247 156.393C323.264 156.483 323.313 156.564 323.385 156.621C323.458 156.678 323.548 156.706 323.64 156.702L333.44 154.962L335.2 164.762C335.211 164.868 335.263 164.965 335.345 165.033C335.428 165.1 335.534 165.132 335.64 165.122C335.746 165.111 335.844 165.059 335.911 164.976C335.979 164.894 336.011 164.788 336 164.682L334.24 154.862L344 153.082C344.054 153.079 344.107 153.064 344.155 153.039C344.203 153.014 344.245 152.979 344.279 152.937C344.312 152.894 344.336 152.845 344.349 152.792C344.362 152.74 344.364 152.685 344.353 152.632C344.343 152.578 344.322 152.528 344.291 152.483C344.26 152.439 344.219 152.402 344.173 152.375C344.126 152.347 344.074 152.33 344.02 152.324C343.966 152.319 343.911 152.325 343.86 152.342Z" fill="#1890ff"/>
<path d="M76.36 272.882L71.98 273.662C70.9996 273.844 69.9867 273.634 69.1598 273.077C68.3329 272.519 67.7583 271.659 67.56 270.682L66.78 266.302C66.7802 266.246 66.7685 266.192 66.7455 266.142C66.7225 266.092 66.6889 266.047 66.6469 266.011C66.6049 265.975 66.5557 265.949 66.5025 265.934C66.4494 265.919 66.3937 265.916 66.3392 265.925C66.2847 265.934 66.2328 265.954 66.1871 265.985C66.1414 266.016 66.103 266.057 66.0745 266.104C66.046 266.151 66.0282 266.204 66.0222 266.259C66.0163 266.314 66.0223 266.369 66.04 266.422L66.82 270.802C66.9091 271.296 66.8994 271.802 66.7915 272.293C66.6836 272.783 66.4796 273.247 66.1914 273.658C65.9032 274.069 65.5364 274.419 65.1122 274.687C64.688 274.955 64.2148 275.137 63.72 275.222L59.34 276.022C59.2528 276.051 59.179 276.11 59.1325 276.19C59.0859 276.269 59.0696 276.362 59.0867 276.453C59.1038 276.543 59.1531 276.624 59.2254 276.681C59.2977 276.738 59.3882 276.766 59.48 276.762L63.86 275.982C64.3526 275.892 64.858 275.901 65.3471 276.008C65.8362 276.115 66.2994 276.317 66.7101 276.603C67.1209 276.889 67.471 277.254 67.7404 277.676C68.0098 278.098 68.1932 278.569 68.28 279.062L69.06 283.442C69.0891 283.529 69.1488 283.603 69.2281 283.649C69.3073 283.696 69.4008 283.712 69.4912 283.695C69.5815 283.678 69.6626 283.629 69.7194 283.556C69.7762 283.484 69.8048 283.393 69.8 283.302L69.02 278.922C68.8452 277.927 69.0711 276.904 69.6482 276.076C70.2253 275.248 71.1068 274.682 72.1 274.502L76.48 273.722C76.5352 273.714 76.5882 273.695 76.6362 273.667C76.6841 273.638 76.726 273.601 76.7594 273.556C76.7929 273.512 76.8172 273.461 76.831 273.407C76.8448 273.353 76.8479 273.297 76.84 273.242C76.8321 273.186 76.8135 273.133 76.7851 273.085C76.7567 273.038 76.7191 272.996 76.6746 272.962C76.63 272.929 76.5793 272.904 76.5253 272.891C76.4713 272.877 76.4152 272.874 76.36 272.882ZM68.36 277.102C67.7301 276.106 66.7422 275.39 65.6 275.102C66.5998 274.476 67.3171 273.486 67.6 272.342C68.2284 273.339 69.217 274.055 70.36 274.342C69.3497 274.96 68.6238 275.952 68.34 277.102H68.36Z" fill="#1890ff"/>
<path d="M89.84 189.782C89.9143 190.206 89.8169 190.642 89.5694 190.995C89.3218 191.348 88.9443 191.587 88.52 191.662C88.0957 191.736 87.6592 191.639 87.3066 191.391C86.954 191.143 86.7143 190.766 86.64 190.342C86.5657 189.917 86.6631 189.481 86.9106 189.128C87.1582 188.776 87.5357 188.536 87.96 188.462C88.3843 188.387 88.8208 188.485 89.1734 188.732C89.5259 188.98 89.7657 189.357 89.84 189.782Z" fill="#1890ff"/>
<path d="M194 184.982C194.037 185.386 193.921 185.79 193.674 186.113C193.427 186.436 193.068 186.655 192.668 186.725C192.267 186.796 191.855 186.713 191.513 186.494C191.171 186.275 190.923 185.935 190.82 185.542C190.783 185.137 190.899 184.733 191.146 184.41C191.393 184.087 191.752 183.868 192.152 183.798C192.553 183.727 192.965 183.81 193.307 184.029C193.649 184.249 193.897 184.589 194 184.982Z" fill="#1890ff"/>
<path d="M390.34 215.242C390.16 214.142 388.06 212.442 373.82 208.042C365.28 205.402 349.28 198.982 341.2 195.562C324.871 186.507 307.285 179.934 289.02 176.062C283.144 174.802 277.021 175.425 271.52 177.842L253.36 185.842C264.22 165.842 274.12 145.842 283.12 127.122C284.441 123.823 286.219 120.726 288.4 117.922C291.48 113.622 293.7 110.502 291.56 102.742C288.74 92.5216 294.3 70.5816 287.96 70.7416C286.86 70.7416 284.94 72.7416 279.12 86.4416C276.62 92.3416 272 101.482 268 109.042C258.18 104.142 249.06 103.202 247.14 106.882C246.5 108.082 235.28 134.702 215.8 170.322C215.769 170.407 215.769 170.501 215.801 170.586C215.833 170.672 215.895 170.743 215.975 170.786C216.055 170.83 216.148 170.843 216.237 170.824C216.326 170.805 216.405 170.754 216.46 170.682C227.46 150.682 237.68 129.982 246.86 109.362C248.22 116.202 265.68 128.142 278.28 128.142C279.538 128.16 280.792 127.992 282 127.642C263.4 166.322 240.9 210.502 214.38 247.642C214.08 248.042 214.72 248.462 215 248.082C217.24 244.922 219.453 241.722 221.64 238.482C239.996 232.154 257.47 223.511 273.64 212.762C290.08 213.762 307.04 219.102 325.5 229.082C325.569 229.134 325.653 229.162 325.74 229.162C325.827 229.162 325.911 229.134 325.98 229.082C328.881 225.393 331.432 221.443 333.6 217.282C346.62 222.322 349.74 225.742 358.86 222.182C368.72 218.262 391.38 221.462 390.34 215.242ZM261.6 122.342C263.74 119.042 275.4 97.1216 279.82 86.7616C285.42 73.5816 287.36 71.5616 288.02 71.5016C292.98 71.1016 288.16 93.2016 290.84 102.902C294.06 114.542 287.12 115.082 282.46 126.682C277.76 128.682 268.12 126.062 261.6 122.342ZM326.38 215.602C329.34 217.022 331.38 218.102 332.1 218.522C330.213 221.933 328.06 225.19 325.66 228.262C307.16 218.262 290.14 213.002 273.66 212.002H273.42C255.42 224.382 239.62 230.642 222.4 237.382C233.24 221.242 243.36 204.082 252.8 186.822L271.84 178.482C277.192 176.109 283.159 175.5 288.88 176.742C306.988 180.585 324.43 187.082 340.64 196.022C338.896 203.611 336.152 210.935 332.48 217.802C331.6 217.282 329.46 216.182 326.72 214.862C326.671 214.839 326.619 214.827 326.565 214.825C326.512 214.823 326.459 214.831 326.409 214.85C326.358 214.868 326.312 214.897 326.273 214.933C326.234 214.969 326.202 215.013 326.18 215.062C326.158 215.11 326.145 215.163 326.143 215.216C326.141 215.27 326.15 215.323 326.168 215.373C326.187 215.423 326.215 215.469 326.251 215.508C326.288 215.548 326.331 215.579 326.38 215.602ZM358.66 221.382C350.42 224.602 347.96 222.122 334.02 216.502C337.251 210.112 339.702 203.357 341.32 196.382C350.04 200.042 365.72 206.382 373.58 208.762C387.26 212.982 389.58 214.762 389.58 215.362C390.44 220.302 368.12 217.682 358.66 221.382Z" fill="#1890ff"/>
<path d="M248.82 213.862C246.66 215.002 244.6 216.022 242.82 216.882C242.768 216.897 242.719 216.924 242.678 216.96C242.637 216.996 242.604 217.041 242.582 217.091C242.56 217.141 242.548 217.195 242.549 217.249C242.549 217.304 242.562 217.358 242.585 217.408C242.608 217.457 242.642 217.501 242.684 217.536C242.726 217.571 242.774 217.597 242.827 217.612C242.88 217.627 242.935 217.63 242.989 217.621C243.043 217.612 243.095 217.592 243.14 217.562C245.02 216.702 247.14 215.682 249.26 214.522C249.303 214.493 249.341 214.456 249.37 214.412C249.399 214.369 249.419 214.321 249.429 214.269C249.439 214.218 249.439 214.166 249.429 214.115C249.419 214.064 249.399 214.015 249.37 213.972C249.341 213.928 249.304 213.891 249.261 213.862C249.217 213.833 249.169 213.813 249.118 213.803C249.067 213.793 249.014 213.792 248.963 213.803C248.912 213.813 248.863 213.833 248.82 213.862Z" fill="#1890ff"/>
<path d="M316.34 210.242C314.22 209.362 312.08 208.502 310 207.682C309.905 207.647 309.799 207.652 309.707 207.695C309.615 207.738 309.544 207.816 309.51 207.912C309.476 208.007 309.48 208.112 309.524 208.204C309.567 208.296 309.644 208.367 309.74 208.402C311.74 209.202 313.94 210.062 316.04 210.942C316.086 210.961 316.135 210.972 316.185 210.972C316.235 210.973 316.285 210.964 316.331 210.945C316.378 210.927 316.42 210.899 316.456 210.864C316.492 210.829 316.52 210.788 316.54 210.742C316.56 210.696 316.57 210.646 316.571 210.596C316.571 210.546 316.562 210.497 316.544 210.45C316.525 210.404 316.497 210.361 316.463 210.326C316.428 210.29 316.386 210.261 316.34 210.242Z" fill="#1890ff"/>
<path d="M264.46 204.682C262.46 205.922 260.56 207.122 258.66 208.262C258.572 208.315 258.51 208.4 258.485 208.5C258.461 208.599 258.477 208.704 258.53 208.792C258.583 208.879 258.669 208.942 258.768 208.966C258.867 208.991 258.972 208.975 259.06 208.922C260.96 207.762 262.92 206.562 264.86 205.322C264.933 205.263 264.981 205.181 264.997 205.089C265.012 204.997 264.994 204.903 264.944 204.824C264.895 204.745 264.818 204.687 264.729 204.661C264.64 204.635 264.544 204.642 264.46 204.682Z" fill="#1890ff"/>
<path d="M281.5 199.982C279.223 199.724 276.929 199.651 274.64 199.762C274.541 199.772 274.449 199.818 274.383 199.892C274.316 199.966 274.279 200.062 274.28 200.162C274.28 200.942 275.14 200.162 281.42 200.722C281.474 200.739 281.531 200.744 281.586 200.737C281.642 200.729 281.696 200.709 281.743 200.679C281.791 200.648 281.831 200.607 281.86 200.559C281.89 200.511 281.908 200.457 281.914 200.401C281.92 200.345 281.914 200.288 281.895 200.235C281.877 200.181 281.846 200.133 281.807 200.093C281.767 200.053 281.719 200.022 281.666 200.003C281.613 199.983 281.556 199.976 281.5 199.982Z" fill="#1890ff"/>
<path d="M299.28 203.942C297 203.222 294.8 202.602 292.7 202.062C292.602 202.035 292.497 202.049 292.409 202.099C292.321 202.15 292.257 202.234 292.23 202.332C292.203 202.43 292.217 202.534 292.268 202.623C292.318 202.711 292.402 202.775 292.5 202.802C294.6 203.322 296.8 203.962 299.04 204.662C299.52 204.802 299.76 204.082 299.28 203.942Z" fill="#1890ff"/>
<path d="M213.72 345.322L216.5 333.742L207.92 335.322C207.858 335.333 207.794 335.329 207.734 335.31C207.674 335.291 207.619 335.256 207.575 335.211C207.532 335.165 207.5 335.109 207.483 335.048C207.467 334.987 207.466 334.923 207.48 334.862L210.4 322.682C210.412 322.633 210.433 322.587 210.463 322.547C210.492 322.507 210.529 322.472 210.572 322.446C210.615 322.42 210.662 322.403 210.712 322.395C210.761 322.388 210.811 322.39 210.86 322.402C210.909 322.413 210.954 322.435 210.995 322.464C211.035 322.494 211.069 322.531 211.095 322.574C211.121 322.616 211.139 322.664 211.146 322.713C211.154 322.763 211.152 322.813 211.14 322.862L208.36 334.442C217.66 332.722 217.08 332.762 217.28 332.962C217.48 333.162 217.6 332.222 214.46 345.462C214.431 345.549 214.371 345.623 214.292 345.669C214.213 345.716 214.119 345.732 214.029 345.715C213.939 345.698 213.857 345.649 213.801 345.576C213.744 345.504 213.715 345.413 213.72 345.322Z" fill="#1890ff"/>
<path d="M230 182.562L207.24 161.762C207.166 161.693 207.067 161.656 206.966 161.66C206.865 161.664 206.769 161.707 206.7 161.782C206.631 161.856 206.594 161.955 206.598 162.056C206.602 162.157 206.646 162.253 206.72 162.322L206.84 162.422C204.35 169.076 201.285 175.5 197.68 181.622C198.391 182.398 199.058 183.212 199.68 184.062C192.8 198.562 185.22 213.562 176.62 228.062C176.557 228.026 176.485 228.009 176.413 228.013C176.341 228.017 176.272 228.042 176.213 228.084C176.154 228.126 176.108 228.183 176.081 228.25C176.054 228.317 176.047 228.391 176.06 228.462L182.7 266.082C182.714 266.168 182.757 266.248 182.823 266.306C182.888 266.364 182.972 266.398 183.06 266.402C183.28 266.402 185.06 266.082 217.06 260.402C217.108 260.394 217.153 260.378 217.194 260.352C217.235 260.327 217.271 260.294 217.299 260.255C217.327 260.216 217.346 260.171 217.357 260.125C217.368 260.078 217.369 260.029 217.36 259.982L204.62 187.722L229.88 183.262C229.965 183.262 230.048 183.232 230.113 183.177C230.178 183.123 230.222 183.046 230.236 182.962C230.251 182.878 230.235 182.792 230.192 182.719C230.148 182.645 230.08 182.59 230 182.562Z" fill="#1890ff"/>
<path d="M205.8 154.002C205.73 153.211 205.451 152.452 204.99 151.805C204.53 151.158 203.905 150.646 203.18 150.322C203.018 149.509 202.654 148.751 202.123 148.115C201.592 147.479 200.91 146.986 200.14 146.682C199.86 144.942 198.62 144.302 196.9 144.142C194.468 144.036 192.078 144.802 190.16 146.302L190.72 146.822C192.433 145.489 194.55 144.783 196.72 144.822C197.153 144.799 197.584 144.882 197.978 145.064C198.372 145.245 198.715 145.519 198.98 145.862C199.72 147.042 199.28 149.562 197.56 154.002C197.545 154.089 197.561 154.179 197.605 154.255C197.65 154.332 197.719 154.391 197.802 154.422C197.885 154.452 197.976 154.453 198.06 154.424C198.144 154.395 198.214 154.337 198.26 154.262C199.221 152.119 199.836 149.837 200.08 147.502C202.78 149.102 203.16 150.822 200.84 156.802C200.817 156.891 200.827 156.986 200.869 157.069C200.91 157.151 200.981 157.216 201.067 157.25C201.153 157.284 201.248 157.286 201.335 157.255C201.422 157.224 201.495 157.162 201.54 157.082C202.364 155.214 202.897 153.231 203.12 151.202C205.12 152.502 205.78 154.522 203.42 160.582C203.391 160.629 203.373 160.683 203.367 160.739C203.362 160.794 203.368 160.851 203.387 160.903C203.405 160.956 203.435 161.004 203.474 161.044C203.513 161.084 203.561 161.115 203.613 161.134C203.665 161.154 203.722 161.161 203.777 161.157C203.833 161.152 203.887 161.135 203.935 161.107C203.984 161.079 204.025 161.041 204.057 160.995C204.089 160.949 204.111 160.897 204.12 160.842C204.947 158.933 205.48 156.91 205.7 154.842C207.7 156.402 207.7 158.482 205.7 164.002C203.274 169.786 200.509 175.423 197.42 180.882C192.61 175.648 186.217 172.135 179.22 170.882C181.787 166.325 183.412 161.299 184 156.102C184.62 150.262 185.62 148.942 186 148.942C186.38 148.942 187.42 150.542 188 157.682C187.36 158.462 186.66 159.282 185.88 160.162C185.838 160.196 185.803 160.24 185.779 160.289C185.755 160.339 185.742 160.393 185.741 160.448C185.74 160.502 185.75 160.557 185.772 160.607C185.794 160.658 185.827 160.703 185.868 160.739C185.908 160.776 185.957 160.803 186.009 160.819C186.062 160.835 186.117 160.84 186.172 160.832C186.226 160.825 186.278 160.806 186.325 160.776C186.371 160.747 186.41 160.708 186.44 160.662C189.64 157.272 192.334 153.44 194.44 149.282C194.461 149.236 194.473 149.186 194.475 149.136C194.476 149.085 194.468 149.035 194.451 148.987C194.433 148.94 194.406 148.897 194.372 148.86C194.337 148.823 194.296 148.793 194.25 148.772C194.204 148.751 194.154 148.739 194.104 148.737C194.053 148.735 194.003 148.743 193.956 148.761C193.908 148.779 193.865 148.805 193.828 148.84C193.791 148.874 193.761 148.916 193.74 148.962C192.361 151.797 190.627 154.445 188.58 156.842C188.1 151.122 187.22 148.202 185.96 148.202C184.7 148.202 183.66 152.442 183.26 156.022C182.877 161.285 181.223 166.377 178.44 170.862L176.96 170.682C176.883 170.68 176.806 170.699 176.739 170.738C176.672 170.777 176.617 170.833 176.58 170.902C165.324 194.535 152.027 217.141 136.84 238.462C123.893 218.44 113.195 197.05 104.94 174.682C104.608 174.172 104.133 173.771 103.575 173.529C103.016 173.287 102.399 173.215 101.8 173.322C94.96 157.942 96.04 161.122 89.3 149.622C88.2 147.782 84.14 140.862 82.28 141.922C81.42 142.402 81.7 144.242 83.16 147.382C83.7807 148.724 84.3282 150.1 84.8 151.502C83.2 149.062 80.8 145.782 79.9 144.602C79 143.422 76.54 140.322 75.22 141.142C74.38 141.682 74.76 143.502 76.36 146.562C77.96 149.622 79.02 151.922 79.92 153.922C78.26 151.922 75.66 148.682 73.42 145.922C71.8 143.922 69.68 141.922 68.62 142.682C67.56 143.442 68.78 146.062 70 148.122C70.3 148.602 73.18 153.562 75.24 157.082L70 152.082C68 150.302 65.68 148.742 64.74 149.642C63.8 150.542 65.42 152.942 66.98 154.782L73.82 163.202C75.02 164.662 76.18 167.002 75.82 167.382C73.4 169.382 64.1 169.002 64.4 172.282C64.4 172.902 64.62 174.722 75.26 175.162C76.3847 175.212 77.4688 175.597 78.3737 176.267C79.2786 176.936 79.9632 177.861 80.34 178.922C80.34 178.922 80.64 179.722 80.96 180.642C80.16 181.462 79.32 182.642 79.8 183.622C79.8 184.002 85.8 199.042 90.48 209.162C86.48 205.402 82.86 206.822 84.22 213.482C84.8613 216.564 85.8685 219.558 87.22 222.402C81.12 216.002 80.24 223.962 85.4 231.202C88.32 235.202 91.94 236.802 96.12 238.362C93.04 243.702 96.88 248.102 102.36 250.862C109.93 254.681 117.145 259.165 123.92 264.262C139.7 275.742 157 280.262 175.2 273.462C175.27 273.431 175.33 273.381 175.373 273.317C175.415 273.253 175.439 273.178 175.44 273.102C175.385 262.469 172.691 252.016 167.6 242.682C180 224.682 188 208.342 200 184.202C200.033 184.144 200.051 184.078 200.051 184.012C200.051 183.945 200.033 183.879 200 183.822C199.374 183.034 198.706 182.279 198 181.562C201.154 175.995 203.973 170.245 206.44 164.342C208.54 158.682 208.9 156.002 205.8 154.002ZM77.02 146.162C75.28 142.842 75.48 141.822 75.62 141.722C75.76 141.622 77.12 142.102 79.3 145.002C81.615 147.989 83.7456 151.115 85.68 154.362C86.0369 155.476 86.3242 156.612 86.54 157.762C85.1949 157.815 83.8568 157.982 82.54 158.262C80.9281 154.128 79.0852 150.088 77.02 146.162ZM70.66 147.602C68.66 144.362 68.9 143.282 69.06 143.182C69.22 143.082 70.8 143.702 72.82 146.262C82.4 158.262 80.54 155.222 81.82 158.442C80.4441 158.794 79.1048 159.276 77.82 159.882L70.66 147.602ZM75.1 174.422C67.76 174.102 65.1 173.082 64.98 172.222C64.78 170.022 73.78 169.962 76.12 167.942C77.5 166.782 74.34 162.762 74.3 162.722L67.46 154.302C65.02 151.402 65.04 150.302 65.18 150.182C65.32 150.062 66.98 150.422 69.38 152.622L76.5 159.122L77.14 160.202C76.62 160.462 76.08 160.742 75.54 161.062C75.4967 161.087 75.4587 161.12 75.4282 161.159C75.3977 161.199 75.3753 161.244 75.3623 161.293C75.3493 161.341 75.3459 161.391 75.3524 161.441C75.3589 161.49 75.3751 161.538 75.4 161.582C75.425 161.625 75.4582 161.663 75.4978 161.693C75.5375 161.724 75.5827 161.746 75.631 161.759C75.6793 161.772 75.7297 161.776 75.7793 161.769C75.8288 161.763 75.8767 161.747 75.92 161.722C80.7531 158.919 86.3919 157.834 91.92 158.642C92.36 158.762 92.52 157.922 91.92 157.882C90.3967 157.757 88.8681 157.71 87.34 157.742C86.5974 154.042 85.4367 150.439 83.88 147.002C82.32 143.602 82.54 142.602 82.68 142.522C82.82 142.442 84.22 143.042 86.3 146.162C88.82 149.922 89.92 152.262 94.3 159.342C96.3 162.602 102.64 177.122 102.74 177.342C96.9636 181.599 90.032 184.005 82.86 184.242C81.12 179.422 81.1 179.382 80.86 178.682C80.4343 177.478 79.6584 176.429 78.6319 175.67C77.6055 174.911 76.3755 174.476 75.1 174.422ZM95.38 210.982C95.1846 210.928 94.9775 210.933 94.7851 210.997C94.5927 211.061 94.4239 211.181 94.3 211.342C93.8541 212.021 93.6628 212.835 93.76 213.642C93.2402 212.771 92.6727 211.93 92.06 211.122C88.42 203.522 85.1 195.622 80.8 184.602C85.88 186.602 102.16 180.982 104.8 176.182C113.178 198.154 123.773 219.216 136.42 239.042C132.82 243.962 129.147 248.688 125.4 253.222C124.136 252.677 122.984 251.904 122 250.942C124.22 249.722 125.34 248.442 125.6 246.942C126.4 242.362 117.76 235.602 113.76 232.422C111.42 230.582 107.44 230.542 103.26 232.322C100.52 219.342 97.66 211.562 95.38 210.982ZM199.12 184.082C185.68 211.542 176.5 230.082 158.64 253.742C158.44 254.022 158.64 254.562 159.28 254.182L168.8 246.682C172.537 254.905 174.487 263.829 174.52 272.862C157.92 279.002 140.98 275.902 124.18 263.662C119.98 260.526 115.621 257.609 111.12 254.922C111.24 253.822 108.66 249.322 106.84 248.922C102.6 247.982 103.28 244.422 106.08 245.442C106.5 245.582 107.64 246.002 107.96 245.322C108.46 244.282 105.76 241.942 103.96 240.782C106.908 237.914 110.216 235.44 113.8 233.422C122.04 240.022 125.36 244.042 124.88 246.842C124.52 248.842 122.06 250.542 116.88 252.262C116.805 252.287 116.739 252.336 116.693 252.4C116.647 252.465 116.622 252.542 116.622 252.622C116.622 252.701 116.647 252.779 116.693 252.843C116.739 252.908 116.805 252.956 116.88 252.982C119.312 253.851 121.877 254.291 124.46 254.282L121.74 257.502C121.698 257.536 121.663 257.58 121.639 257.629C121.615 257.679 121.602 257.733 121.601 257.788C121.6 257.842 121.61 257.897 121.632 257.947C121.654 257.998 121.687 258.043 121.728 258.079C121.768 258.116 121.817 258.143 121.869 258.159C121.922 258.175 121.977 258.18 122.032 258.172C122.086 258.165 122.138 258.146 122.185 258.116C122.231 258.087 122.27 258.048 122.3 258.002C144.64 232.002 161.96 202.342 177.12 171.422C181.457 171.92 185.646 173.3 189.429 175.477C193.212 177.654 196.51 180.582 199.12 184.082Z" fill="#1890ff"/>
<path d="M93.18 170.362C91.0511 168.213 88.495 166.535 85.6769 165.436C82.8588 164.337 79.8415 163.841 76.82 163.982C76.7365 164.001 76.6621 164.048 76.6089 164.116C76.5556 164.183 76.5266 164.266 76.5266 164.352C76.5266 164.437 76.5556 164.521 76.6089 164.588C76.6621 164.655 76.7365 164.702 76.82 164.722C79.7441 164.59 82.6633 165.073 85.3885 166.141C88.1137 167.209 90.5842 168.838 92.64 170.922C92.7143 170.993 92.8139 171.032 92.9171 171.031C93.0202 171.029 93.1184 170.986 93.19 170.912C93.2616 170.837 93.3008 170.738 93.2989 170.635C93.297 170.531 93.2543 170.433 93.18 170.362Z" fill="#1890ff"/>
</svg>
