<svg width="151" height="176" viewBox="0 0 151 176" fill="none" xmlns="http://www.w3.org/2000/svg">
<path d="M75.3494 167.853C116.771 167.853 150.349 134.275 150.349 92.8534C150.349 51.432 116.771 17.8534 75.3494 17.8534C33.9281 17.8534 0.349426 51.432 0.349426 92.8534C0.349426 134.275 33.9281 167.853 75.3494 167.853Z" fill="#F0F3F5"/>
<path d="M118.349 60.8534H32.3494C29.588 60.8534 27.3494 63.092 27.3494 65.8534V170.853C27.3494 173.615 29.588 175.853 32.3494 175.853H118.349C121.111 175.853 123.349 173.615 123.349 170.853V65.8534C123.349 63.092 121.111 60.8534 118.349 60.8534Z" fill="white"/>
<path d="M65.3495 75.8535H39.3495C37.6926 75.8535 36.3495 77.1967 36.3495 78.8535C36.3495 80.5104 37.6926 81.8535 39.3495 81.8535H65.3495C67.0063 81.8535 68.3495 80.5104 68.3495 78.8535C68.3495 77.1967 67.0063 75.8535 65.3495 75.8535Z" fill="#DFE6E9"/>
<path d="M83.3494 88.8534H39.3494C37.6926 88.8534 36.3494 90.1965 36.3494 91.8534C36.3494 93.5102 37.6926 94.8534 39.3494 94.8534H83.3494C85.0063 94.8534 86.3494 93.5102 86.3494 91.8534C86.3494 90.1965 85.0063 88.8534 83.3494 88.8534Z" fill="#DFEAFB"/>
<path d="M65.3495 102.853H39.3495C37.6926 102.853 36.3495 104.197 36.3495 105.853C36.3495 107.51 37.6926 108.853 39.3495 108.853H65.3495C67.0063 108.853 68.3495 107.51 68.3495 105.853C68.3495 104.197 67.0063 102.853 65.3495 102.853Z" fill="#DFE6E9"/>
<path d="M83.3494 115.853H39.3494C37.6926 115.853 36.3494 117.197 36.3494 118.853C36.3494 120.51 37.6926 121.853 39.3494 121.853H83.3494C85.0063 121.853 86.3494 120.51 86.3494 118.853C86.3494 117.197 85.0063 115.853 83.3494 115.853Z" fill="#DFEAFB"/>
<path d="M65.3495 129.853H39.3495C37.6926 129.853 36.3495 131.197 36.3495 132.853C36.3495 134.51 37.6926 135.853 39.3495 135.853H65.3495C67.0063 135.853 68.3495 134.51 68.3495 132.853C68.3495 131.197 67.0063 129.853 65.3495 129.853Z" fill="#DFE6E9"/>
<path d="M83.3494 142.853H39.3494C37.6926 142.853 36.3494 144.197 36.3494 145.853C36.3494 147.51 37.6926 148.853 39.3494 148.853H83.3494C85.0063 148.853 86.3494 147.51 86.3494 145.853C86.3494 144.197 85.0063 142.853 83.3494 142.853Z" fill="#DFEAFB"/>
<g filter="url(#filter0_d_5896_126916)">
<path d="M118.349 9.85339H32.3494C29.588 9.85339 27.3494 12.092 27.3494 14.8534V44.8534C27.3494 47.6148 29.588 49.8534 32.3494 49.8534H118.349C121.111 49.8534 123.349 47.6148 123.349 44.8534V14.8534C123.349 12.092 121.111 9.85339 118.349 9.85339Z" fill="#1890ff"/>
</g>
<path d="M65.3494 20.8533H39.3494C37.6926 20.8533 36.3494 22.1964 36.3494 23.8533C36.3494 25.5101 37.6926 26.8533 39.3494 26.8533H65.3494C67.0063 26.8533 68.3494 25.5101 68.3494 23.8533C68.3494 22.1964 67.0063 20.8533 65.3494 20.8533Z" fill="#DFE6E9"/>
<path d="M83.3494 33.8533H39.3494C37.6926 33.8533 36.3494 35.1964 36.3494 36.8533C36.3494 38.5101 37.6926 39.8533 39.3494 39.8533H83.3494C85.0063 39.8533 86.3494 38.5101 86.3494 36.8533C86.3494 35.1964 85.0063 33.8533 83.3494 33.8533Z" fill="white"/>
<defs>
<filter id="filter0_d_5896_126916" x="21.3494" y="0.853394" width="108" height="52" filterUnits="userSpaceOnUse" color-interpolation-filters="sRGB">
<feFlood flood-opacity="0" result="BackgroundImageFix"/>
<feColorMatrix in="SourceAlpha" type="matrix" values="0 0 0 0 0 0 0 0 0 0 0 0 0 0 0 0 0 0 127 0" result="hardAlpha"/>
<feOffset dy="-3"/>
<feGaussianBlur stdDeviation="3"/>
<feColorMatrix type="matrix" values="0 0 0 0 0.788235 0 0 0 0 0.803922 0 0 0 0 0.85098 0 0 0 0.349 0"/>
<feBlend mode="normal" in2="BackgroundImageFix" result="effect1_dropShadow_5896_126916"/>
<feBlend mode="normal" in="SourceGraphic" in2="effect1_dropShadow_5896_126916" result="shape"/>
</filter>
</defs>
</svg>
