<svg width="152" height="155" viewBox="0 0 152 155" fill="none" xmlns="http://www.w3.org/2000/svg">
<path d="M76 152C117.974 152 152 117.974 152 76C152 34.0264 117.974 0 76 0C34.0264 0 0 34.0264 0 76C0 117.974 34.0264 152 76 152Z" fill="#F0F3F5"/>
<g filter="url(#filter0_d_5896_126897)">
<mask id="mask0_5896_126897" style="mask-type:alpha" maskUnits="userSpaceOnUse" x="0" y="0" width="152" height="152">
<path d="M76 152C117.974 152 152 117.974 152 76C152 34.0264 117.974 0 76 0C34.0264 0 0 34.0264 0 76C0 117.974 34.0264 152 76 152Z" fill="#F0F3F5"/>
</mask>
<g mask="url(#mask0_5896_126897)">
<path d="M119.573 43.5734H32.4267C29.6284 43.5734 27.36 45.8418 27.36 48.64V155.04C27.36 157.838 29.6284 160.107 32.4267 160.107H119.573C122.372 160.107 124.64 157.838 124.64 155.04V48.64C124.64 45.8418 122.372 43.5734 119.573 43.5734Z" fill="white"/>
</g>
</g>
<path d="M66.88 53.7067H40.5333C38.8544 53.7067 37.4933 55.0677 37.4933 56.7467C37.4933 58.4256 38.8544 59.7867 40.5333 59.7867H66.88C68.559 59.7867 69.92 58.4256 69.92 56.7467C69.92 55.0677 68.559 53.7067 66.88 53.7067Z" fill="#E1EBFA"/>
<path d="M66.88 96.2667H40.5333C38.8544 96.2667 37.4933 97.6278 37.4933 99.3067C37.4933 100.986 38.8544 102.347 40.5333 102.347H66.88C68.559 102.347 69.92 100.986 69.92 99.3067C69.92 97.6278 68.559 96.2667 66.88 96.2667Z" fill="#E1EBFA"/>
<path d="M109.44 68.9066H42.56C40.3215 68.9066 38.5067 70.7214 38.5067 72.9599V83.0933C38.5067 85.3319 40.3215 87.1466 42.56 87.1466H109.44C111.679 87.1466 113.493 85.3319 113.493 83.0933V72.9599C113.493 70.7214 111.679 68.9066 109.44 68.9066Z" stroke="#1890ff" stroke-width="2"/>
<path d="M109.44 110.453H42.56C39.7618 110.453 37.4933 112.722 37.4933 115.52V123.627C37.4933 126.425 39.7618 128.693 42.56 128.693H109.44C112.238 128.693 114.507 126.425 114.507 123.627V115.52C114.507 112.722 112.238 110.453 109.44 110.453Z" fill="#DFEAFB"/>
<path d="M53.7067 32.4266C55.9452 32.4266 57.76 30.6119 57.76 28.3733C57.76 26.1347 55.9452 24.3199 53.7067 24.3199C51.4681 24.3199 49.6533 26.1347 49.6533 28.3733C49.6533 30.6119 51.4681 32.4266 53.7067 32.4266Z" fill="white"/>
<path d="M76 32.4266C78.2386 32.4266 80.0533 30.6119 80.0533 28.3733C80.0533 26.1347 78.2386 24.3199 76 24.3199C73.7614 24.3199 71.9467 26.1347 71.9467 28.3733C71.9467 30.6119 73.7614 32.4266 76 32.4266Z" fill="#1890ff"/>
<path d="M98.2933 32.4266C100.532 32.4266 102.347 30.6119 102.347 28.3733C102.347 26.1347 100.532 24.3199 98.2933 24.3199C96.0547 24.3199 94.24 26.1347 94.24 28.3733C94.24 30.6119 96.0547 32.4266 98.2933 32.4266Z" fill="white"/>
<path d="M87.1467 89.1734C89.9449 89.1734 92.2134 86.9049 92.2134 84.1067C92.2134 81.3085 89.9449 79.04 87.1467 79.04C84.3484 79.04 82.08 81.3085 82.08 84.1067C82.08 86.9049 84.3484 89.1734 87.1467 89.1734Z" fill="#55B1F3"/>
<path d="M91.1057 105.762C90.2951 105.762 89.5381 105.762 88.849 105.718C88.0003 105.661 87.1838 105.37 86.4894 104.879C85.795 104.387 85.2496 103.714 84.9132 102.932L80.638 94.4832C80.3244 94.1181 80.1679 93.6439 80.2024 93.1639C80.2369 92.6838 80.4598 92.2369 80.8224 91.9205C81.1195 91.6817 81.4901 91.5532 81.8712 91.5567C82.1518 91.5649 82.4273 91.6338 82.6787 91.7587C82.9301 91.8836 83.1514 92.0615 83.3274 92.2802L85.2689 94.9301L85.2983 94.9645V84.8971C85.2983 84.3976 85.4967 83.9186 85.8499 83.5654C86.2031 83.2122 86.6821 83.0138 87.1816 83.0138C87.6811 83.0138 88.1601 83.2122 88.5133 83.5654C88.8665 83.9186 89.0649 84.3976 89.0649 84.8971V91.4837C89.043 91.2414 89.0719 90.9971 89.1496 90.7665C89.2274 90.5359 89.3523 90.324 89.5165 90.1444C89.6806 89.9647 89.8804 89.8212 90.1031 89.7231C90.3258 89.6249 90.5665 89.5742 90.8098 89.5742C91.0532 89.5742 91.2939 89.6249 91.5166 89.7231C91.7392 89.8212 91.939 89.9647 92.1032 90.1444C92.2674 90.324 92.3923 90.5359 92.4701 90.7665C92.5478 90.9971 92.5767 91.2414 92.5548 91.4837V92.8568C92.5329 92.6144 92.5618 92.3702 92.6395 92.1396C92.7173 91.9089 92.8422 91.6971 93.0064 91.5174C93.1705 91.3378 93.3703 91.1943 93.593 91.0961C93.8157 90.998 94.0564 90.9473 94.2998 90.9473C94.5431 90.9473 94.7838 90.998 95.0065 91.0961C95.2292 91.1943 95.429 91.3378 95.5931 91.5174C95.7573 91.6971 95.8822 91.9089 95.96 92.1396C96.0377 92.3702 96.0666 92.6144 96.0447 92.8568V93.9147C96.0228 93.6724 96.0517 93.4281 96.1294 93.1975C96.2072 92.9669 96.3321 92.755 96.4963 92.5753C96.6605 92.3957 96.8603 92.2522 97.0829 92.154C97.3056 92.0559 97.5463 92.0052 97.7897 92.0052C98.033 92.0052 98.2737 92.0559 98.4964 92.154C98.7191 92.2522 98.9189 92.3957 99.083 92.5753C99.2472 92.755 99.3721 92.9669 99.4499 93.1975C99.5276 93.4281 99.5565 93.6724 99.5346 93.9147V100.336C99.5002 102.311 98.6074 105.641 95.4671 105.641C95.2391 105.651 93.3077 105.763 91.1098 105.763L91.1057 105.762Z" fill="#1890ff" stroke="white"/>
<defs>
<filter id="filter0_d_5896_126897" x="21.36" y="34.5734" width="109.28" height="120.427" filterUnits="userSpaceOnUse" color-interpolation-filters="sRGB">
<feFlood flood-opacity="0" result="BackgroundImageFix"/>
<feColorMatrix in="SourceAlpha" type="matrix" values="0 0 0 0 0 0 0 0 0 0 0 0 0 0 0 0 0 0 127 0" result="hardAlpha"/>
<feOffset dy="-3"/>
<feGaussianBlur stdDeviation="3"/>
<feColorMatrix type="matrix" values="0 0 0 0 0.788235 0 0 0 0 0.803922 0 0 0 0 0.85098 0 0 0 0.349 0"/>
<feBlend mode="normal" in2="BackgroundImageFix" result="effect1_dropShadow_5896_126897"/>
<feBlend mode="normal" in="SourceGraphic" in2="effect1_dropShadow_5896_126897" result="shape"/>
</filter>
</defs>
</svg>
