<svg width="175" height="130" viewBox="0 0 175 130" fill="none" xmlns="http://www.w3.org/2000/svg">
<path d="M144.857 0H33.4285C28.3002 0 24.1428 4.15736 24.1428 9.28571V120.714C24.1428 125.843 28.3002 130 33.4285 130H144.857C149.985 130 154.143 125.843 154.143 120.714V9.28571C154.143 4.15736 149.985 0 144.857 0Z" fill="#292929"/>
<path d="M130 9.28577H4.64286C2.07868 9.28577 0 11.3644 0 13.9286V37.1429C0 39.7071 2.07868 41.7858 4.64286 41.7858H130C132.564 41.7858 134.643 39.7071 134.643 37.1429V13.9286C134.643 11.3644 132.564 9.28577 130 9.28577Z" fill="#474747"/>
<path d="M64.0714 16.7142H39.9285C38.39 16.7142 37.1428 17.9614 37.1428 19.4999C37.1428 21.0385 38.39 22.2857 39.9285 22.2857H64.0714C65.6099 22.2857 66.8571 21.0385 66.8571 19.4999C66.8571 17.9614 65.6099 16.7142 64.0714 16.7142Z" fill="#292929"/>
<path d="M80.7857 28.7856H39.9285C38.39 28.7856 37.1428 30.0329 37.1428 31.5714C37.1428 33.1099 38.39 34.3571 39.9285 34.3571H80.7857C82.3242 34.3571 83.5714 33.1099 83.5714 31.5714C83.5714 30.0329 82.3242 28.7856 80.7857 28.7856Z" fill="#141414"/>
<path d="M25.0714 12.0714H7.4285C4.86432 12.0714 2.78564 14.1501 2.78564 16.7143V34.3571C2.78564 36.9213 4.86432 39 7.4285 39H25.0714C27.6355 39 29.7142 36.9213 29.7142 34.3571V16.7143C29.7142 14.1501 27.6355 12.0714 25.0714 12.0714Z" fill="#0063F7"/>
<path d="M14.1345 28.5813H15.9917L16.0121 27.8663C16.0121 26.9266 16.6045 26.6814 17.4421 26.4159C18.2823 26.1769 19.0218 25.6708 19.5489 24.9742C20.0759 24.2776 20.3618 23.4284 20.3634 22.5549C20.3818 22.0215 20.2893 21.4902 20.0917 20.9945C19.8941 20.4988 19.5958 20.0495 19.2156 19.675C18.8354 19.3006 18.3815 19.0091 17.8829 18.8191C17.3842 18.6292 16.8515 18.5448 16.3185 18.5713C15.7553 18.559 15.1954 18.6613 14.6728 18.8719C14.1503 19.0825 13.676 19.397 13.2786 19.7964C12.8813 20.1959 12.5692 20.6718 12.3614 21.1955C12.1535 21.7191 12.0542 22.2795 12.0694 22.8427H13.9897C13.9824 22.5318 14.0372 22.2225 14.151 21.933C14.2648 21.6435 14.4352 21.3796 14.6523 21.1569C14.8694 20.9341 15.1287 20.7569 15.4151 20.6356C15.7016 20.5144 16.0093 20.4515 16.3204 20.4507C16.6009 20.4345 16.8816 20.4788 17.1435 20.5807C17.4053 20.6825 17.6421 20.8396 17.8379 21.0412C18.0336 21.2427 18.1837 21.4841 18.2779 21.7488C18.3721 22.0135 18.4081 22.2954 18.3837 22.5753C18.3713 23.0283 18.2138 23.4654 17.9343 23.8222C17.6547 24.1789 17.268 24.4365 16.8311 24.5569L16.157 24.8243C15.4969 24.9833 14.9207 25.3844 14.5424 25.9481C14.164 26.5119 14.0112 27.1971 14.1141 27.8682L14.1345 28.5813ZM15.0538 32.9957C15.2357 33.0022 15.417 32.9721 15.587 32.9073C15.757 32.8425 15.9124 32.7442 16.0438 32.6184C16.1752 32.4925 16.28 32.3416 16.3521 32.1745C16.4242 32.0074 16.462 31.8275 16.4634 31.6456C16.4618 31.4638 16.4237 31.2841 16.3516 31.1173C16.2794 30.9504 16.1745 30.7997 16.0431 30.674C15.9117 30.5483 15.7565 30.4502 15.5866 30.3855C15.4167 30.3208 15.2355 30.2908 15.0538 30.2973C14.8721 30.2908 14.691 30.3208 14.5211 30.3855C14.3511 30.4502 14.1959 30.5483 14.0645 30.674C13.9331 30.7997 13.8283 30.9504 13.7561 31.1173C13.6839 31.2841 13.6459 31.4638 13.6442 31.6456C13.6456 31.8275 13.6835 32.0074 13.7555 32.1745C13.8276 32.3416 13.9325 32.4925 14.0639 32.6184C14.1953 32.7442 14.3506 32.8425 14.5206 32.9073C14.6907 32.9721 14.872 33.0022 15.0538 32.9957Z" fill="white"/>
<path d="M44.5713 49.2142H169.928C171.16 49.2142 172.341 49.7034 173.211 50.5741C174.082 51.4448 174.571 52.6257 174.571 53.8571V77.0714C174.571 78.3027 174.082 79.4837 173.211 80.3544C172.341 81.2251 171.16 81.7142 169.928 81.7142H44.5713C43.34 81.7142 42.159 81.2251 41.2883 80.3544C40.4176 79.4837 39.9285 78.3027 39.9285 77.0714V53.8571C39.9285 52.6257 40.4176 51.4448 41.2883 50.5741C42.159 49.7034 43.34 49.2142 44.5713 49.2142V49.2142Z" fill="#474747"/>
<path d="M104 56.6428H79.8572C78.3187 56.6428 77.0715 57.89 77.0715 59.4285C77.0715 60.967 78.3187 62.2143 79.8572 62.2143H104C105.539 62.2143 106.786 60.967 106.786 59.4285C106.786 57.89 105.539 56.6428 104 56.6428Z" fill="#292929"/>
<path d="M120.714 68.7144H79.8568C78.3183 68.7144 77.071 69.9616 77.071 71.5001C77.071 73.0386 78.3183 74.2858 79.8568 74.2858H120.714C122.252 74.2858 123.5 73.0386 123.5 71.5001C123.5 69.9616 122.252 68.7144 120.714 68.7144Z" fill="#141414"/>
<path d="M64.9998 52H47.357C44.7928 52 42.7141 54.0787 42.7141 56.6429V74.2857C42.7141 76.8499 44.7928 78.9286 47.357 78.9286H64.9998C67.564 78.9286 69.6427 76.8499 69.6427 74.2857V56.6429C69.6427 54.0787 67.564 52 64.9998 52Z" fill="#0063F7"/>
<path d="M54.063 68.5099H55.9201L55.9406 67.7949C55.9406 66.8552 56.533 66.61 57.3706 66.3445C58.2108 66.1055 58.9503 65.5994 59.4773 64.9028C60.0044 64.2062 60.2903 63.357 60.2919 62.4835C60.3103 61.9501 60.2177 61.4188 60.0202 60.9231C59.8226 60.4274 59.5242 59.9781 59.144 59.6036C58.7638 59.2292 58.31 58.9377 57.8113 58.7477C57.3127 58.5577 56.78 58.4734 56.247 58.4999C55.6837 58.4876 55.1239 58.5899 54.6013 58.8005C54.0788 59.0111 53.6044 59.3256 53.2071 59.725C52.8098 60.1245 52.4977 60.6004 52.2898 61.1241C52.082 61.6477 51.9826 62.2081 51.9979 62.7713H53.9181C53.9109 62.4604 53.9657 62.1511 54.0795 61.8616C54.1933 61.5721 54.3637 61.3082 54.5807 61.0854C54.7978 60.8627 55.0572 60.6855 55.3436 60.5642C55.6301 60.443 55.9378 60.3801 56.2489 60.3793C56.5294 60.3631 56.8101 60.4074 57.0719 60.5093C57.3338 60.6111 57.5706 60.7682 57.7664 60.9698C57.9621 61.1713 58.1122 61.4127 58.2063 61.6774C58.3005 61.9421 58.3366 62.224 58.3121 62.5039C58.2998 62.9569 58.1422 63.394 57.8627 63.7508C57.5832 64.1075 57.1965 64.3651 56.7596 64.4855L56.0854 64.7529C55.4254 64.9119 54.8492 65.313 54.4708 65.8767C54.0925 66.4404 53.9397 67.1257 54.0426 67.7967L54.063 68.5099ZM54.9823 72.9243C55.1641 72.9308 55.3454 72.9007 55.5155 72.8359C55.6855 72.7711 55.8408 72.6728 55.9722 72.547C56.1036 72.4211 56.2085 72.2702 56.2806 72.1031C56.3526 71.936 56.3905 71.7561 56.3919 71.5742C56.3902 71.3924 56.3522 71.2127 56.28 71.0459C56.2078 70.879 56.103 70.7283 55.9716 70.6026C55.8402 70.4769 55.685 70.3788 55.515 70.3141C55.3451 70.2494 55.164 70.2194 54.9823 70.2259C54.8006 70.2194 54.6194 70.2494 54.4495 70.3141C54.2796 70.3788 54.1244 70.4769 53.993 70.6026C53.8616 70.7283 53.7567 70.879 53.6845 71.0459C53.6124 71.2127 53.5743 71.3924 53.5727 71.5742C53.5741 71.7561 53.6119 71.936 53.684 72.1031C53.7561 72.2702 53.8609 72.4211 53.9923 72.547C54.1237 72.6728 54.2791 72.7711 54.4491 72.8359C54.6191 72.9007 54.8004 72.9308 54.9823 72.9243Z" fill="white"/>
<path d="M4.64286 89.1429H130C131.231 89.1429 132.412 89.6321 133.283 90.5028C134.154 91.3735 134.643 92.5544 134.643 93.7858V117C134.643 118.231 134.154 119.412 133.283 120.283C132.412 121.154 131.231 121.643 130 121.643H4.64286C3.41149 121.643 2.23057 121.154 1.35986 120.283C0.489157 119.412 0 118.231 0 117L0 93.7858C0 92.5544 0.489157 91.3735 1.35986 90.5028C2.23057 89.6321 3.41149 89.1429 4.64286 89.1429V89.1429Z" fill="#474747"/>
<path d="M64.0714 96.5717H39.9285C38.39 96.5717 37.1428 97.8189 37.1428 99.3574C37.1428 100.896 38.39 102.143 39.9285 102.143H64.0714C65.6099 102.143 66.8571 100.896 66.8571 99.3574C66.8571 97.8189 65.6099 96.5717 64.0714 96.5717Z" fill="#292929"/>
<path d="M80.7857 108.643H39.9285C38.39 108.643 37.1428 109.89 37.1428 111.429C37.1428 112.967 38.39 114.214 39.9285 114.214H80.7857C82.3242 114.214 83.5714 112.967 83.5714 111.429C83.5714 109.89 82.3242 108.643 80.7857 108.643Z" fill="#141414"/>
<path d="M25.0714 91.9288H7.4285C4.86432 91.9288 2.78564 94.0075 2.78564 96.5717V114.215C2.78564 116.779 4.86432 118.857 7.4285 118.857H25.0714C27.6355 118.857 29.7142 116.779 29.7142 114.215V96.5717C29.7142 94.0075 27.6355 91.9288 25.0714 91.9288Z" fill="#0063F7"/>
<path d="M14.1345 108.439H15.9917L16.0121 107.724C16.0121 106.784 16.6045 106.539 17.4421 106.273C18.2823 106.034 19.0218 105.528 19.5489 104.832C20.0759 104.135 20.3618 103.286 20.3634 102.412C20.3818 101.879 20.2893 101.348 20.0917 100.852C19.8941 100.356 19.5958 99.9069 19.2156 99.5324C18.8354 99.158 18.3815 98.8666 17.8829 98.6766C17.3842 98.4866 16.8515 98.4022 16.3185 98.4287C15.7553 98.4164 15.1954 98.5187 14.6728 98.7293C14.1503 98.9399 13.676 99.2545 13.2786 99.6539C12.8813 100.053 12.5692 100.529 12.3614 101.053C12.1535 101.577 12.0542 102.137 12.0694 102.7H13.9897C13.9824 102.389 14.0372 102.08 14.151 101.79C14.2648 101.501 14.4352 101.237 14.6523 101.014C14.8694 100.792 15.1287 100.614 15.4151 100.493C15.7016 100.372 16.0093 100.309 16.3204 100.308C16.6009 100.292 16.8816 100.336 17.1435 100.438C17.4053 100.54 17.6421 100.697 17.8379 100.899C18.0336 101.1 18.1837 101.341 18.2779 101.606C18.3721 101.871 18.4081 102.153 18.3837 102.433C18.3713 102.886 18.2138 103.323 17.9343 103.68C17.6547 104.036 17.268 104.294 16.8311 104.414L16.157 104.682C15.4969 104.841 14.9207 105.242 14.5424 105.806C14.164 106.369 14.0112 107.055 14.1141 107.726L14.1345 108.439ZM15.0538 112.853C15.2357 112.86 15.417 112.83 15.587 112.765C15.757 112.7 15.9124 112.602 16.0438 112.476C16.1752 112.35 16.28 112.199 16.3521 112.032C16.4242 111.865 16.462 111.685 16.4634 111.503C16.4618 111.321 16.4237 111.142 16.3516 110.975C16.2794 110.808 16.1745 110.657 16.0431 110.531C15.9117 110.406 15.7565 110.308 15.5866 110.243C15.4167 110.178 15.2355 110.148 15.0538 110.155C14.8721 110.148 14.691 110.178 14.5211 110.243C14.3511 110.308 14.1959 110.406 14.0645 110.531C13.9331 110.657 13.8283 110.808 13.7561 110.975C13.6839 111.142 13.6459 111.321 13.6442 111.503C13.6456 111.685 13.6835 111.865 13.7555 112.032C13.8276 112.199 13.9325 112.35 14.0639 112.476C14.1953 112.602 14.3506 112.7 14.5206 112.765C14.6907 112.83 14.872 112.86 15.0538 112.853Z" fill="white"/>
</svg>
