<svg width="184" height="152" viewBox="0 0 184 152" fill="none" xmlns="http://www.w3.org/2000/svg">
<path d="M76 152C117.974 152 152 117.974 152 76C152 34.0264 117.974 0 76 0C34.0264 0 0 34.0264 0 76C0 117.974 34.0264 152 76 152Z" fill="#F0F3F5"/>
<path d="M41.5467 34.4534H178.347C179.69 34.4534 180.979 34.9872 181.929 35.9374C182.88 36.8875 183.413 38.1763 183.413 39.52V64.8534C183.413 66.1971 182.88 67.4859 181.929 68.436C180.979 69.3862 179.69 69.92 178.347 69.92H41.5467C40.2029 69.92 38.9142 69.3862 37.964 68.436C37.0138 67.4859 36.48 66.1971 36.48 64.8534V39.52C36.48 38.1763 37.0138 36.8875 37.964 35.9374C38.9142 34.9872 40.2029 34.4534 41.5467 34.4534V34.4534Z" fill="white"/>
<path d="M106.4 42.5601H80.0534C78.3745 42.5601 77.0134 43.9211 77.0134 45.6001C77.0134 47.279 78.3745 48.6401 80.0534 48.6401H106.4C108.079 48.6401 109.44 47.279 109.44 45.6001C109.44 43.9211 108.079 42.5601 106.4 42.5601Z" fill="#B2BEC3"/>
<path d="M124.64 55.7334H80.0534C78.3745 55.7334 77.0134 57.0945 77.0134 58.7734C77.0134 60.4523 78.3745 61.8134 80.0534 61.8134H124.64C126.319 61.8134 127.68 60.4523 127.68 58.7734C127.68 57.0945 126.319 55.7334 124.64 55.7334Z" fill="#DFE6E9"/>
<path d="M68.9067 52.1867C68.9067 44.0718 62.3283 37.4934 54.2134 37.4934C46.0985 37.4934 39.5201 44.0718 39.5201 52.1867C39.5201 60.3016 46.0985 66.8801 54.2134 66.8801C62.3283 66.8801 68.9067 60.3016 68.9067 52.1867Z" fill="#1890ff"/>
<path d="M53.3014 56.9432C54.5593 56.943 55.781 56.5221 56.772 55.7475L59.888 58.8635L60.8902 57.8613L57.7732 54.7443C58.5563 53.7318 58.9735 52.4838 58.9566 51.2039C58.9397 49.924 58.4898 48.6875 57.6802 47.6961C56.8706 46.7046 55.7491 46.0165 54.4984 45.744C53.2477 45.4715 51.9416 45.6306 50.793 46.1955C49.6443 46.7603 48.7208 47.6975 48.173 48.8544C47.6252 50.0113 47.4853 51.3196 47.7762 52.5661C48.0672 53.8127 48.7717 54.9239 49.775 55.7188C50.7784 56.5136 52.0214 56.9452 53.3014 56.9432ZM53.3014 47.0186C54.1431 47.0186 54.966 47.2682 55.6659 47.7359C56.3658 48.2035 56.9113 48.8682 57.2334 49.6459C57.5555 50.4236 57.6398 51.2793 57.4756 52.1049C57.3114 52.9305 56.906 53.6888 56.3108 54.2841C55.7156 54.8793 54.9573 55.2846 54.1317 55.4488C53.3061 55.6131 52.4504 55.5288 51.6727 55.2066C50.895 54.8845 50.2303 54.339 49.7626 53.6391C49.295 52.9392 49.0454 52.1164 49.0454 51.2746C49.0454 50.1459 49.4938 49.0633 50.2919 48.2652C51.0901 47.467 52.1726 47.0186 53.3014 47.0186Z" fill="white"/>
<path d="M163.147 80.0533H26.3467C23.5485 80.0533 21.28 82.3218 21.28 85.12V110.453C21.28 113.252 23.5485 115.52 26.3467 115.52H163.147C165.945 115.52 168.213 113.252 168.213 110.453V85.12C168.213 82.3218 165.945 80.0533 163.147 80.0533Z" fill="white"/>
<path d="M91.2001 88.1599H64.8534C63.1745 88.1599 61.8134 89.521 61.8134 91.1999C61.8134 92.8789 63.1745 94.2399 64.8534 94.2399H91.2001C92.879 94.2399 94.2401 92.8789 94.2401 91.1999C94.2401 89.521 92.879 88.1599 91.2001 88.1599Z" fill="#B2BEC3"/>
<path d="M109.44 101.333H64.8534C63.1745 101.333 61.8134 102.694 61.8134 104.373C61.8134 106.052 63.1745 107.413 64.8534 107.413H109.44C111.119 107.413 112.48 106.052 112.48 104.373C112.48 102.694 111.119 101.333 109.44 101.333Z" fill="#DFE6E9"/>
<path d="M53.7067 97.7866C53.7067 89.6717 47.1283 83.0933 39.0134 83.0933C30.8985 83.0933 24.3201 89.6717 24.3201 97.7866C24.3201 105.901 30.8985 112.48 39.0134 112.48C47.1283 112.48 53.7067 105.901 53.7067 97.7866Z" fill="#1890ff"/>
<path d="M38.1014 102.543C39.3593 102.543 40.581 102.122 41.5721 101.347L44.6881 104.463L45.6903 103.461L42.5733 100.344C43.3564 99.3316 43.7735 98.0837 43.7566 96.8038C43.7397 95.5239 43.2898 94.2874 42.4803 93.2959C41.6707 92.3044 40.5492 91.6163 39.2985 91.3438C38.0478 91.0713 36.7417 91.2305 35.593 91.7953C34.4443 92.3601 33.5208 93.2974 32.973 94.4543C32.4252 95.6111 32.2854 96.9194 32.5763 98.166C32.8672 99.4125 33.5718 100.524 34.5751 101.319C35.5784 102.113 36.8214 102.545 38.1014 102.543ZM38.1014 92.6185C38.9432 92.6185 39.766 92.8681 40.4659 93.3357C41.1658 93.8034 41.7113 94.4681 42.0335 95.2458C42.3556 96.0235 42.4399 96.8792 42.2757 97.7048C42.1114 98.5304 41.7061 99.2887 41.1109 99.8839C40.5157 100.479 39.7573 100.884 38.9317 101.049C38.1062 101.213 37.2504 101.129 36.4727 100.806C35.695 100.484 35.0304 99.9389 34.5627 99.239C34.095 98.5391 33.8454 97.7162 33.8454 96.8745C33.8454 95.7457 34.2938 94.6632 35.092 93.865C35.8901 93.0669 36.9727 92.6185 38.1014 92.6185Z" fill="white"/>
</svg>
