<svg width="175" height="130" viewBox="0 0 175 130" fill="none" xmlns="http://www.w3.org/2000/svg">
<path d="M144.958 0H33.452C28.3201 0 24.1598 4.15736 24.1598 9.28571V120.714C24.1598 125.843 28.3201 130 33.452 130H144.958C150.09 130 154.251 125.843 154.251 120.714V9.28571C154.251 4.15736 150.09 0 144.958 0Z" fill="#F0F3F5"/>
<path d="M44.6025 50.1428H170.047C171.28 50.1428 172.461 50.632 173.333 51.5027C174.204 52.3734 174.693 53.5543 174.693 54.7857V77.9999C174.693 79.2313 174.204 80.4122 173.333 81.2829C172.461 82.1536 171.28 82.6428 170.047 82.6428H44.6025C43.3703 82.6428 42.1885 82.1536 41.3172 81.2829C40.4459 80.4122 39.9564 79.2313 39.9564 77.9999V54.7857C39.9564 53.5543 40.4459 52.3734 41.3172 51.5027C42.1885 50.632 43.3703 50.1428 44.6025 50.1428V50.1428Z" fill="white"/>
<path d="M113.365 57.5715H89.2051C87.6656 57.5715 86.4175 58.8187 86.4175 60.3572C86.4175 61.8958 87.6656 63.143 89.2051 63.143H113.365C114.904 63.143 116.153 61.8958 116.153 60.3572C116.153 58.8187 114.904 57.5715 113.365 57.5715Z" fill="#B2BEC3"/>
<path d="M130.091 69.6429H89.2051C87.6656 69.6429 86.4175 70.8902 86.4175 72.4287C86.4175 73.9672 87.6656 75.2144 89.2051 75.2144H130.091C131.63 75.2144 132.879 73.9672 132.879 72.4287C132.879 70.8902 131.63 69.6429 130.091 69.6429Z" fill="#DFE6E9"/>
<path d="M68.2979 75.2144C73.1733 75.2144 77.1255 71.2649 77.1255 66.3929C77.1255 61.521 73.1733 57.5715 68.2979 57.5715C63.4226 57.5715 59.4703 61.521 59.4703 66.3929C59.4703 71.2649 63.4226 75.2144 68.2979 75.2144Z" fill="#1890ff"/>
<path d="M67.8195 69.0715H68.6035L66.7835 64.2485H65.9785L64.1585 69.0715H64.9495L65.4115 67.8675H67.3575L67.8195 69.0715ZM66.3845 65.1795L67.1055 67.2025H65.6635L66.3845 65.1795ZM71.2037 64.9345C71.7287 64.9345 71.9457 65.3755 71.9457 65.7815C71.9457 66.1945 71.7077 66.6215 71.1757 66.6215H70.0277V64.9345H71.2037ZM69.2787 69.0715H70.0277V67.3005H71.2177C72.2537 67.3005 72.6877 66.5445 72.6877 65.7815C72.6877 65.0185 72.2537 64.2485 71.2177 64.2485H69.2787V69.0715Z" fill="white"/>
<path d="M4.6461 90.0715H130.091C131.323 90.0715 132.505 90.5607 133.376 91.4314C134.247 92.3021 134.737 93.483 134.737 94.7144V117.929C134.737 119.16 134.247 120.341 133.376 121.212C132.505 122.082 131.323 122.572 130.091 122.572H4.6461C3.41388 122.572 2.23212 122.082 1.36081 121.212C0.489498 120.341 0 119.16 0 117.929L0 94.7144C0 93.483 0.489498 92.3021 1.36081 91.4314C2.23212 90.5607 3.41388 90.0715 4.6461 90.0715V90.0715Z" fill="white"/>
<path d="M73.4083 97.5002H49.2486C47.709 97.5002 46.4609 98.7474 46.4609 100.286C46.4609 101.824 47.709 103.072 49.2486 103.072H73.4083C74.9479 103.072 76.196 101.824 76.196 100.286C76.196 98.7474 74.9479 97.5002 73.4083 97.5002Z" fill="#B2BEC3"/>
<path d="M90.1343 109.572H49.2486C47.709 109.572 46.4609 110.819 46.4609 112.357C46.4609 113.896 47.709 115.143 49.2486 115.143H90.1343C91.6739 115.143 92.9219 113.896 92.9219 112.357C92.9219 110.819 91.6739 109.572 90.1343 109.572Z" fill="#DFE6E9"/>
<path d="M16.2612 115.143C21.1365 115.143 25.0888 111.194 25.0888 106.322C25.0888 101.45 21.1365 97.5002 16.2612 97.5002C11.3858 97.5002 7.43359 101.45 7.43359 106.322C7.43359 111.194 11.3858 115.143 16.2612 115.143Z" fill="#1890ff"/>
<path d="M12.9319 109.703C14.0239 109.703 14.4369 108.982 14.4369 108.128V103.249H13.7159V108.128C13.7159 108.604 13.4989 109.01 12.9319 109.01C12.8759 109.01 12.5609 108.996 12.4419 108.954L12.3719 109.626C12.5539 109.668 12.7989 109.703 12.9319 109.703ZM17.152 108.142C18.125 108.142 18.783 107.505 18.783 106.7C18.783 105.993 18.272 105.552 17.46 105.349L16.851 105.195C16.242 105.041 16.193 104.719 16.193 104.565C16.193 104.124 16.599 103.851 17.054 103.851C17.551 103.851 17.908 104.159 17.908 104.614H18.622C18.622 103.739 17.943 103.193 17.075 103.193C16.221 103.193 15.472 103.732 15.472 104.579C15.472 104.978 15.64 105.587 16.669 105.846L17.285 106C17.677 106.105 18.062 106.308 18.062 106.735C18.062 107.134 17.726 107.484 17.152 107.484C16.55 107.484 16.165 107.085 16.151 106.672H15.437C15.437 107.449 16.123 108.142 17.152 108.142Z" fill="white"/>
<path d="M130.091 10.2142H4.6461C2.08013 10.2142 0 12.2929 0 14.8571V38.0714C0 40.6356 2.08013 42.7142 4.6461 42.7142H130.091C132.657 42.7142 134.737 40.6356 134.737 38.0714V14.8571C134.737 12.2929 132.657 10.2142 130.091 10.2142Z" fill="white"/>
<path d="M71.5499 17.6428H47.3902C45.8506 17.6428 44.6025 18.89 44.6025 20.4285C44.6025 21.9671 45.8506 23.2143 47.3902 23.2143H71.5499C73.0895 23.2143 74.3376 21.9671 74.3376 20.4285C74.3376 18.89 73.0895 17.6428 71.5499 17.6428Z" fill="#B2BEC3"/>
<path d="M88.2759 29.7144H47.3902C45.8506 29.7144 44.6025 30.9616 44.6025 32.5001C44.6025 34.0386 45.8506 35.2858 47.3902 35.2858H88.2759C89.8155 35.2858 91.0636 34.0386 91.0636 32.5001C91.0636 30.9616 89.8155 29.7144 88.2759 29.7144Z" fill="#DFE6E9"/>
<path d="M28.3411 35.2857C33.2165 35.2857 37.1687 31.3362 37.1687 26.4642C37.1687 21.5923 33.2165 17.6428 28.3411 17.6428C23.4658 17.6428 19.5135 21.5923 19.5135 26.4642C19.5135 31.3362 23.4658 35.2857 28.3411 35.2857Z" fill="#1890ff"/>
<path d="M23.7012 26.8142C23.7012 27.5982 24.4012 28.2842 25.4022 28.2842C26.3192 28.2842 26.9702 27.7452 27.0472 26.9892C27.1242 26.2892 26.7252 25.7502 25.7452 25.4912L25.1292 25.3302C24.5552 25.1832 24.4852 24.8892 24.4852 24.7002C24.4852 24.3082 24.8702 24.0352 25.3182 24.0352C25.8222 24.0352 26.1582 24.3152 26.1582 24.7632H26.9002C26.9002 23.8812 26.2282 23.3352 25.3322 23.3352C24.4852 23.3352 23.7432 23.8882 23.7432 24.7142C23.7432 25.1412 23.9042 25.7292 24.9402 26.0092L25.5492 26.1632C25.9972 26.2682 26.3402 26.4992 26.3122 26.9472C26.2632 27.3042 25.9692 27.6052 25.4022 27.6052C24.8212 27.6052 24.4642 27.2062 24.4432 26.8142H23.7012ZM28.7427 24.0842H29.8767C30.8217 24.0842 31.3047 24.8612 31.3047 25.8132C31.3047 26.7722 30.8217 27.5282 29.8767 27.5282H28.7427V24.0842ZM29.8767 28.2142C31.2487 28.2142 32.0467 27.1852 32.0467 25.8132C32.0467 24.4412 31.2487 23.3912 29.8767 23.3912H28.0007V28.2142H29.8767Z" fill="white"/>
</svg>
