<svg width="152" height="155" viewBox="0 0 152 155" fill="none" xmlns="http://www.w3.org/2000/svg">
<path d="M76 152C117.974 152 152 117.974 152 76C152 34.0264 117.974 0 76 0C34.0264 0 0 34.0264 0 76C0 117.974 34.0264 152 76 152Z" fill="#292929"/>
<g filter="url(#filter0_d_6098_127474)">
<mask id="mask0_6098_127474" style="mask-type:alpha" maskUnits="userSpaceOnUse" x="0" y="0" width="152" height="152">
<path d="M76 152C117.974 152 152 117.974 152 76C152 34.0264 117.974 0 76 0C34.0264 0 0 34.0264 0 76C0 117.974 34.0264 152 76 152Z" fill="#F0F3F5"/>
</mask>
<g mask="url(#mask0_6098_127474)">
<path d="M119.573 43.5734H32.4268C29.6285 43.5734 27.3601 45.8418 27.3601 48.64V155.04C27.3601 157.838 29.6285 160.107 32.4268 160.107H119.573C122.372 160.107 124.64 157.838 124.64 155.04V48.64C124.64 45.8418 122.372 43.5734 119.573 43.5734Z" fill="#474747"/>
</g>
</g>
<path d="M66.8801 53.7067H40.5334C38.8545 53.7067 37.4934 55.0677 37.4934 56.7467C37.4934 58.4256 38.8545 59.7867 40.5334 59.7867H66.8801C68.559 59.7867 69.9201 58.4256 69.9201 56.7467C69.9201 55.0677 68.559 53.7067 66.8801 53.7067Z" fill="#292929"/>
<path d="M66.8801 96.2667H40.5334C38.8545 96.2667 37.4934 97.6278 37.4934 99.3067C37.4934 100.986 38.8545 102.347 40.5334 102.347H66.8801C68.559 102.347 69.9201 100.986 69.9201 99.3067C69.9201 97.6278 68.559 96.2667 66.8801 96.2667Z" fill="#292929"/>
<path d="M109.44 68.9066H42.5602C40.3216 68.9066 38.5068 70.7214 38.5068 72.9599V83.0933C38.5068 85.3319 40.3216 87.1466 42.5602 87.1466H109.44C111.679 87.1466 113.493 85.3319 113.493 83.0933V72.9599C113.493 70.7214 111.679 68.9066 109.44 68.9066Z" stroke="#0063F7" stroke-width="2"/>
<path d="M109.44 110.453H42.5601C39.7618 110.453 37.4934 112.722 37.4934 115.52V123.627C37.4934 126.425 39.7618 128.693 42.5601 128.693H109.44C112.238 128.693 114.507 126.425 114.507 123.627V115.52C114.507 112.722 112.238 110.453 109.44 110.453Z" fill="#141414"/>
<path d="M53.7067 32.4266C55.9452 32.4266 57.76 30.6119 57.76 28.3733C57.76 26.1347 55.9452 24.3199 53.7067 24.3199C51.4681 24.3199 49.6533 26.1347 49.6533 28.3733C49.6533 30.6119 51.4681 32.4266 53.7067 32.4266Z" fill="#141414"/>
<path d="M76.0001 32.4266C78.2387 32.4266 80.0534 30.6119 80.0534 28.3733C80.0534 26.1347 78.2387 24.3199 76.0001 24.3199C73.7615 24.3199 71.9468 26.1347 71.9468 28.3733C71.9468 30.6119 73.7615 32.4266 76.0001 32.4266Z" fill="#0063F7"/>
<path d="M98.2933 32.4266C100.532 32.4266 102.347 30.6119 102.347 28.3733C102.347 26.1347 100.532 24.3199 98.2933 24.3199C96.0547 24.3199 94.24 26.1347 94.24 28.3733C94.24 30.6119 96.0547 32.4266 98.2933 32.4266Z" fill="#141414"/>
<path d="M87.1467 89.1734C89.945 89.1734 92.2134 86.9049 92.2134 84.1067C92.2134 81.3085 89.945 79.04 87.1467 79.04C84.3485 79.04 82.0801 81.3085 82.0801 84.1067C82.0801 86.9049 84.3485 89.1734 87.1467 89.1734Z" fill="#55B1F3"/>
<path d="M91.1058 105.762C90.2951 105.762 89.5382 105.762 88.8491 105.718C88.0003 105.661 87.1838 105.37 86.4894 104.879C85.7951 104.387 85.2497 103.714 84.9133 102.932L80.638 94.4832C80.3245 94.1181 80.1679 93.6439 80.2025 93.1639C80.237 92.6838 80.4599 92.2369 80.8225 91.9205C81.1196 91.6817 81.4902 91.5532 81.8713 91.5567C82.1519 91.5649 82.4274 91.6338 82.6787 91.7587C82.9301 91.8836 83.1514 92.0615 83.3274 92.2802L85.269 94.9301L85.2984 94.9645V84.8971C85.2984 84.3976 85.4968 83.9186 85.85 83.5654C86.2032 83.2122 86.6822 83.0138 87.1817 83.0138C87.6811 83.0138 88.1601 83.2122 88.5133 83.5654C88.8665 83.9186 89.0649 84.3976 89.0649 84.8971V91.4837C89.0431 91.2414 89.0719 90.9971 89.1497 90.7665C89.2274 90.5359 89.3523 90.324 89.5165 90.1444C89.6807 89.9647 89.8805 89.8212 90.1032 89.7231C90.3258 89.6249 90.5665 89.5742 90.8099 89.5742C91.0533 89.5742 91.2939 89.6249 91.5166 89.7231C91.7393 89.8212 91.9391 89.9647 92.1033 90.1444C92.2674 90.324 92.3924 90.5359 92.4701 90.7665C92.5479 90.9971 92.5767 91.2414 92.5549 91.4837V92.8568C92.533 92.6144 92.5618 92.3702 92.6396 92.1396C92.7173 91.9089 92.8423 91.6971 93.0064 91.5174C93.1706 91.3378 93.3704 91.1943 93.5931 91.0961C93.8158 90.998 94.0565 90.9473 94.2998 90.9473C94.5432 90.9473 94.7839 90.998 95.0065 91.0961C95.2292 91.1943 95.429 91.3378 95.5932 91.5174C95.7574 91.6971 95.8823 91.9089 95.96 92.1396C96.0378 92.3702 96.0666 92.6144 96.0448 92.8568V93.9147C96.0229 93.6724 96.0518 93.4281 96.1295 93.1975C96.2073 92.9669 96.3322 92.755 96.4964 92.5753C96.6605 92.3957 96.8603 92.2522 97.083 92.154C97.3057 92.0559 97.5464 92.0052 97.7897 92.0052C98.0331 92.0052 98.2738 92.0559 98.4965 92.154C98.7191 92.2522 98.9189 92.3957 99.0831 92.5753C99.2473 92.755 99.3722 92.9669 99.45 93.1975C99.5277 93.4281 99.5566 93.6724 99.5347 93.9147V100.336C99.5002 102.311 98.6075 105.641 95.4672 105.641C95.2392 105.651 93.3078 105.763 91.1098 105.763L91.1058 105.762Z" fill="#0063F7" stroke="#141414"/>
<defs>
<filter id="filter0_d_6098_127474" x="21.3601" y="34.5734" width="109.28" height="120.427" filterUnits="userSpaceOnUse" color-interpolation-filters="sRGB">
<feFlood flood-opacity="0" result="BackgroundImageFix"/>
<feColorMatrix in="SourceAlpha" type="matrix" values="0 0 0 0 0 0 0 0 0 0 0 0 0 0 0 0 0 0 127 0" result="hardAlpha"/>
<feOffset dy="-3"/>
<feGaussianBlur stdDeviation="3"/>
<feColorMatrix type="matrix" values="0 0 0 0 0 0 0 0 0 0 0 0 0 0 0 0 0 0 0.2 0"/>
<feBlend mode="normal" in2="BackgroundImageFix" result="effect1_dropShadow_6098_127474"/>
<feBlend mode="normal" in="SourceGraphic" in2="effect1_dropShadow_6098_127474" result="shape"/>
</filter>
</defs>
</svg>
