<svg width="175" height="130" viewBox="0 0 175 130" fill="none" xmlns="http://www.w3.org/2000/svg">
<path d="M144.958 0H33.4519C28.3199 0 24.1597 4.15736 24.1597 9.28571V120.714C24.1597 125.843 28.3199 130 33.4519 130H144.958C150.09 130 154.251 125.843 154.251 120.714V9.28571C154.251 4.15736 150.09 0 144.958 0Z" fill="#292929"/>
<path d="M44.6026 50.1428H170.047C171.28 50.1428 172.461 50.632 173.333 51.5027C174.204 52.3734 174.694 53.5543 174.694 54.7857V77.9999C174.694 79.2313 174.204 80.4122 173.333 81.2829C172.461 82.1536 171.28 82.6428 170.047 82.6428H44.6026C43.3704 82.6428 42.1887 82.1536 41.3174 81.2829C40.446 80.4122 39.9565 79.2313 39.9565 77.9999V54.7857C39.9565 53.5543 40.446 52.3734 41.3174 51.5027C42.1887 50.632 43.3704 50.1428 44.6026 50.1428V50.1428Z" fill="#474747"/>
<path d="M113.365 57.5715H89.2051C87.6656 57.5715 86.4175 58.8187 86.4175 60.3572C86.4175 61.8958 87.6656 63.143 89.2051 63.143H113.365C114.904 63.143 116.153 61.8958 116.153 60.3572C116.153 58.8187 114.904 57.5715 113.365 57.5715Z" fill="#292929"/>
<path d="M130.091 69.6429H89.2051C87.6656 69.6429 86.4175 70.8902 86.4175 72.4287C86.4175 73.9672 87.6656 75.2144 89.2051 75.2144H130.091C131.63 75.2144 132.879 73.9672 132.879 72.4287C132.879 70.8902 131.63 69.6429 130.091 69.6429Z" fill="#141414"/>
<path d="M68.2978 75.2144C73.1732 75.2144 77.1254 71.2649 77.1254 66.3929C77.1254 61.521 73.1732 57.5715 68.2978 57.5715C63.4225 57.5715 59.4702 61.521 59.4702 66.3929C59.4702 71.2649 63.4225 75.2144 68.2978 75.2144Z" fill="#0063F7"/>
<path d="M67.8192 69.0715H68.6032L66.7832 64.2485H65.9782L64.1582 69.0715H64.9492L65.4112 67.8675H67.3572L67.8192 69.0715ZM66.3842 65.1795L67.1052 67.2025H65.6632L66.3842 65.1795ZM71.2034 64.9345C71.7284 64.9345 71.9454 65.3755 71.9454 65.7815C71.9454 66.1945 71.7074 66.6215 71.1754 66.6215H70.0274V64.9345H71.2034ZM69.2784 69.0715H70.0274V67.3005H71.2174C72.2534 67.3005 72.6874 66.5445 72.6874 65.7815C72.6874 65.0185 72.2534 64.2485 71.2174 64.2485H69.2784V69.0715Z" fill="white"/>
<path d="M4.6461 90.0715H130.091C131.323 90.0715 132.505 90.5607 133.376 91.4314C134.247 92.3021 134.737 93.483 134.737 94.7144V117.929C134.737 119.16 134.247 120.341 133.376 121.212C132.505 122.082 131.323 122.572 130.091 122.572H4.6461C3.41388 122.572 2.23212 122.082 1.36081 121.212C0.489498 120.341 0 119.16 0 117.929L0 94.7144C0 93.483 0.489498 92.3021 1.36081 91.4314C2.23212 90.5607 3.41388 90.0715 4.6461 90.0715V90.0715Z" fill="#474747"/>
<path d="M73.4083 97.5002H49.2486C47.709 97.5002 46.4609 98.7474 46.4609 100.286C46.4609 101.824 47.709 103.072 49.2486 103.072H73.4083C74.9479 103.072 76.196 101.824 76.196 100.286C76.196 98.7474 74.9479 97.5002 73.4083 97.5002Z" fill="#292929"/>
<path d="M90.1343 109.572H49.2486C47.709 109.572 46.4609 110.819 46.4609 112.357C46.4609 113.896 47.709 115.143 49.2486 115.143H90.1343C91.6739 115.143 92.9219 113.896 92.9219 112.357C92.9219 110.819 91.6739 109.572 90.1343 109.572Z" fill="#141414"/>
<path d="M16.2612 115.143C21.1365 115.143 25.0888 111.194 25.0888 106.322C25.0888 101.45 21.1365 97.5002 16.2612 97.5002C11.3858 97.5002 7.43359 101.45 7.43359 106.322C7.43359 111.194 11.3858 115.143 16.2612 115.143Z" fill="#0063F7"/>
<path d="M12.932 109.703C14.024 109.703 14.437 108.982 14.437 108.128V103.249H13.716V108.128C13.716 108.604 13.499 109.01 12.932 109.01C12.876 109.01 12.561 108.996 12.442 108.954L12.372 109.626C12.554 109.668 12.799 109.703 12.932 109.703ZM17.1522 108.142C18.1252 108.142 18.7832 107.505 18.7832 106.7C18.7832 105.993 18.2722 105.552 17.4602 105.349L16.8512 105.195C16.2422 105.041 16.1932 104.719 16.1932 104.565C16.1932 104.124 16.5992 103.851 17.0542 103.851C17.5512 103.851 17.9082 104.159 17.9082 104.614H18.6222C18.6222 103.739 17.9432 103.193 17.0752 103.193C16.2212 103.193 15.4722 103.732 15.4722 104.579C15.4722 104.978 15.6402 105.587 16.6692 105.846L17.2852 106C17.6772 106.105 18.0622 106.308 18.0622 106.735C18.0622 107.134 17.7262 107.484 17.1522 107.484C16.5502 107.484 16.1652 107.085 16.1512 106.672H15.4372C15.4372 107.449 16.1232 108.142 17.1522 108.142Z" fill="white"/>
<path d="M130.091 10.2142H4.6461C2.08013 10.2142 0 12.2929 0 14.8571V38.0714C0 40.6356 2.08013 42.7142 4.6461 42.7142H130.091C132.657 42.7142 134.737 40.6356 134.737 38.0714V14.8571C134.737 12.2929 132.657 10.2142 130.091 10.2142Z" fill="#474747"/>
<path d="M71.5499 17.6428H47.3902C45.8506 17.6428 44.6025 18.89 44.6025 20.4285C44.6025 21.9671 45.8506 23.2143 47.3902 23.2143H71.5499C73.0895 23.2143 74.3376 21.9671 74.3376 20.4285C74.3376 18.89 73.0895 17.6428 71.5499 17.6428Z" fill="#292929"/>
<path d="M88.2759 29.7144H47.3902C45.8506 29.7144 44.6025 30.9616 44.6025 32.5001C44.6025 34.0386 45.8506 35.2858 47.3902 35.2858H88.2759C89.8155 35.2858 91.0636 34.0386 91.0636 32.5001C91.0636 30.9616 89.8155 29.7144 88.2759 29.7144Z" fill="#141414"/>
<path d="M28.3413 35.2857C33.2166 35.2857 37.1689 31.3362 37.1689 26.4642C37.1689 21.5923 33.2166 17.6428 28.3413 17.6428C23.4659 17.6428 19.5137 21.5923 19.5137 26.4642C19.5137 31.3362 23.4659 35.2857 28.3413 35.2857Z" fill="#0063F7"/>
<path d="M23.7014 26.8142C23.7014 27.5982 24.4014 28.2842 25.4024 28.2842C26.3194 28.2842 26.9704 27.7452 27.0474 26.9892C27.1244 26.2892 26.7254 25.7502 25.7454 25.4912L25.1294 25.3302C24.5554 25.1832 24.4854 24.8892 24.4854 24.7002C24.4854 24.3082 24.8704 24.0352 25.3184 24.0352C25.8224 24.0352 26.1584 24.3152 26.1584 24.7632H26.9004C26.9004 23.8812 26.2284 23.3352 25.3324 23.3352C24.4854 23.3352 23.7434 23.8882 23.7434 24.7142C23.7434 25.1412 23.9044 25.7292 24.9404 26.0092L25.5494 26.1632C25.9974 26.2682 26.3404 26.4992 26.3124 26.9472C26.2634 27.3042 25.9694 27.6052 25.4024 27.6052C24.8214 27.6052 24.4644 27.2062 24.4434 26.8142H23.7014ZM28.743 24.0842H29.877C30.822 24.0842 31.305 24.8612 31.305 25.8132C31.305 26.7722 30.822 27.5282 29.877 27.5282H28.743V24.0842ZM29.877 28.2142C31.249 28.2142 32.047 27.1852 32.047 25.8132C32.047 24.4412 31.249 23.3912 29.877 23.3912H28.001V28.2142H29.877Z" fill="white"/>
</svg>
