<svg width="400" height="401" viewBox="0 0 400 401" fill="none" xmlns="http://www.w3.org/2000/svg">
<path d="M349.222 50.6996C347.136 48.6136 345.516 49.9836 345.04 48.7136C344.66 47.7016 344.112 47.0636 344.748 46.4196C345.176 45.9924 345.515 45.485 345.747 44.9265C345.978 44.368 346.098 43.7693 346.098 43.1646C346.098 42.56 345.978 41.9613 345.747 41.4028C345.515 40.8443 345.176 40.3369 344.748 39.9096L342.712 37.8676C341.848 37.0059 340.677 36.522 339.456 36.522C338.235 36.522 337.065 37.0059 336.2 37.8676C335.568 38.4996 334.93 37.9696 333.9 37.5836C333.715 37.5093 333.556 37.3813 333.444 37.2159C333.332 37.0505 333.272 36.8553 333.272 36.6556C333.269 35.4365 332.784 34.268 331.922 33.4059C331.06 32.5438 329.891 32.0583 328.672 32.0556H325.788C324.568 32.0556 323.398 32.5403 322.535 33.403C321.673 34.2656 321.188 35.4356 321.188 36.6556C321.188 37.5356 320.356 37.6296 319.362 38.0796C319.179 38.1621 318.974 38.1861 318.776 38.1481C318.579 38.1102 318.398 38.0122 318.258 37.8676C317.832 37.4379 317.325 37.0968 316.766 36.864C316.207 36.6312 315.608 36.5113 315.003 36.5113C314.398 36.5113 313.799 36.6312 313.24 36.864C312.681 37.0968 312.174 37.4379 311.748 37.8676L309.708 39.9076C309.28 40.3349 308.94 40.8424 308.708 41.4011C308.477 41.9598 308.357 42.5588 308.357 43.1636C308.357 43.7685 308.477 44.3674 308.708 44.9261C308.94 45.4849 309.28 45.9924 309.708 46.4196C310.332 47.0436 309.806 47.6896 309.422 48.7136C307.524 48.5876 322.452 48.6336 89.904 48.6336C80.3062 48.6437 71.1045 52.4608 64.3178 59.2475C57.5312 66.0341 53.714 75.2359 53.704 84.8336V131.158H37.962C33.5154 131.165 29.2528 132.934 26.1086 136.078C22.9643 139.222 21.1949 143.485 21.188 147.932V204.244C21.1949 208.69 22.9638 212.952 26.1072 216.096C29.2505 219.24 33.5121 221.01 37.958 221.018H53.698V224.102C53.7115 230.381 55.3517 236.549 58.4585 242.006C61.5654 247.463 66.0331 252.021 71.426 255.238L62.304 271.038C62.0265 271.517 61.8803 272.062 61.88 272.616C61.8797 273.17 62.0253 273.715 62.3022 274.195C62.5792 274.675 62.9776 275.073 63.4575 275.351C63.9374 275.628 64.4818 275.774 65.036 275.774H97.61C98.1642 275.774 98.7086 275.628 99.1885 275.351C99.6684 275.073 100.067 274.675 100.344 274.195C100.621 273.715 100.766 273.17 100.766 272.616C100.766 272.062 100.619 271.517 100.342 271.038L94.142 260.298H186.828C186.928 260.298 187.023 260.258 187.094 260.188C187.164 260.117 187.204 260.021 187.204 259.922C187.204 259.822 187.164 259.726 187.094 259.656C187.023 259.585 186.928 259.546 186.828 259.546H93.708L84.058 242.828C83.7804 242.348 83.3816 241.95 82.9016 241.673C82.4215 241.396 81.8771 241.25 81.323 241.25C80.7688 241.25 80.2245 241.396 79.7444 241.673C79.2644 241.95 78.8656 242.348 78.588 242.828L71.8 254.586C66.522 251.435 62.1498 246.971 59.109 241.629C56.0682 236.287 54.4624 230.249 54.448 224.102V221.018H124.684C129.131 221.011 133.393 219.241 136.537 216.097C139.682 212.953 141.451 208.69 141.458 204.244V147.932C141.451 143.485 139.682 139.222 136.537 136.078C133.393 132.934 129.131 131.165 124.684 131.158H54.452V92.9256H342.452V116.252C342.452 116.351 342.492 116.447 342.562 116.518C342.633 116.588 342.728 116.628 342.828 116.628C342.928 116.628 343.023 116.588 343.094 116.518C343.164 116.447 343.204 116.351 343.204 116.252V84.8316C343.209 81.086 342.629 77.3625 341.486 73.7956C342.474 73.3236 342.864 72.7716 344.762 70.8776C345.19 70.4504 345.529 69.943 345.761 69.3845C345.992 68.826 346.112 68.2273 346.112 67.6226C346.112 67.018 345.992 66.4193 345.761 65.8608C345.529 65.3023 345.19 64.7949 344.762 64.3676C344.14 63.7436 344.662 63.1016 345.052 62.0696C345.124 61.8837 345.251 61.724 345.415 61.6115C345.58 61.4991 345.775 61.4391 345.974 61.4396C347.195 61.4391 348.366 60.9546 349.23 60.0924C350.094 59.2301 350.581 58.0604 350.584 56.8396V53.9516C350.583 53.3464 350.463 52.7474 350.229 52.1891C349.995 51.6309 349.653 51.1246 349.222 50.6996ZM79.24 243.208C79.45 242.841 79.7533 242.536 80.119 242.324C80.4848 242.111 80.9002 242 81.323 242C81.7458 242 82.1611 242.111 82.5269 242.324C82.8927 242.536 83.196 242.841 83.406 243.208L99.692 271.408C99.9028 271.773 100.014 272.187 100.014 272.609C100.013 273.03 99.9022 273.444 99.6911 273.809C99.48 274.174 99.1766 274.477 98.8112 274.687C98.4459 274.898 98.0316 275.008 97.61 275.008H65.036C64.6144 275.008 64.2001 274.898 63.8347 274.687C63.4694 274.477 63.1659 274.174 62.9549 273.809C62.7438 273.444 62.6326 273.03 62.6324 272.609C62.6323 272.187 62.7432 271.773 62.954 271.408C74.534 251.334 70.172 258.934 79.24 243.208ZM124.684 131.91C128.931 131.915 133.003 133.604 136.006 136.607C139.009 139.61 140.7 143.681 140.706 147.928V204.244C140.701 208.491 139.012 212.564 136.008 215.568C133.004 218.571 128.932 220.261 124.684 220.266H37.96C33.7125 220.26 29.6405 218.571 26.6373 215.567C23.634 212.563 21.9448 208.491 21.94 204.244V147.928C21.9463 143.681 23.6365 139.61 26.64 136.607C29.6434 133.604 33.715 131.915 37.962 131.91H124.684ZM342.442 92.1716H54.452V84.8316C54.4626 75.4337 58.2007 66.4237 64.8463 59.7785C71.4918 53.1333 80.502 49.3957 89.9 49.3856C89.9 49.3856 307.548 49.3856 307.826 49.3856C306.732 49.5468 305.733 50.0955 305.01 50.9318C304.287 51.7681 303.889 52.8362 303.888 53.9416V56.8236C303.888 58.0452 304.371 59.2172 305.232 60.0836C307.268 62.1196 308.958 60.8236 309.418 62.0596C309.804 63.0836 310.342 63.7196 309.704 64.3576C309.276 64.7849 308.936 65.2924 308.704 65.8511C308.473 66.4098 308.353 67.0088 308.353 67.6136C308.353 68.2185 308.473 68.8174 308.704 69.3761C308.936 69.9349 309.276 70.4424 309.704 70.8696L311.742 72.9016C312.168 73.3297 312.675 73.6695 313.233 73.9018C313.79 74.134 314.388 74.2542 314.993 74.2553C315.597 74.2564 316.195 74.1385 316.754 73.9083C317.312 73.6781 317.82 73.3401 318.248 72.9136C318.391 72.7724 318.573 72.6766 318.77 72.6381C318.968 72.5997 319.172 72.6204 319.358 72.6976C320.358 73.1496 321.182 73.2476 321.182 74.1216C321.185 75.3408 321.67 76.5093 322.532 77.3714C323.394 78.2335 324.563 78.719 325.782 78.7216H328.664C329.268 78.7233 329.867 78.6052 330.426 78.3742C330.984 78.1432 331.491 77.8038 331.918 77.3756C332.728 76.5911 333.204 75.5243 333.246 74.3976C333.372 73.2276 333.504 73.3816 334.466 72.9476C335.266 72.5876 335.718 72.4196 336.196 72.8956C336.781 73.4861 337.515 73.906 338.321 74.11C339.127 74.314 339.973 74.2946 340.768 74.0536C342.776 80.3416 342.442 84.6816 342.442 92.1716ZM327.498 65.7716C325.434 65.8249 323.401 65.2616 321.659 64.1537C319.917 63.0458 318.544 61.4436 317.717 59.5519C316.89 57.6601 316.646 55.5647 317.016 53.5335C317.386 51.5023 318.353 49.6274 319.793 48.1485C321.234 46.6697 323.083 45.6539 325.104 45.2311C327.125 44.8083 329.226 44.9977 331.139 45.775C333.051 46.5523 334.689 47.8822 335.842 49.5948C336.995 51.3075 337.611 53.325 337.612 55.3896C337.617 58.0987 336.561 60.7022 334.671 62.6428C332.781 64.5835 330.206 65.7073 327.498 65.7736V65.7716ZM349.82 56.8336C349.817 57.8549 349.409 58.8334 348.686 59.5546C347.963 60.2759 346.983 60.6811 345.962 60.6816C345.609 60.6816 345.265 60.7884 344.974 60.988C344.684 61.1876 344.461 61.4706 344.334 61.7996C343.972 62.7576 343.196 63.8696 344.218 64.8936C344.577 65.2506 344.861 65.675 345.055 66.1423C345.25 66.6096 345.35 67.1106 345.35 67.6166C345.35 68.1227 345.25 68.6237 345.055 69.091C344.861 69.5583 344.577 69.9826 344.218 70.3396C342.078 72.4696 341.968 72.6956 341.24 73.0696C339.957 69.3232 338.065 65.8141 335.64 62.6836C336.668 61.4999 337.434 60.1124 337.888 58.6121C338.343 57.1118 338.476 55.5324 338.277 53.9773C338.079 52.4222 337.555 50.9264 336.739 49.5879C335.923 48.2494 334.833 47.0984 333.542 46.2101C332.25 45.3218 330.785 44.7163 329.243 44.4332C327.701 44.1501 326.117 44.1958 324.594 44.5673C323.071 44.9388 321.644 45.6278 320.405 46.5891C319.167 47.5504 318.146 48.7623 317.408 50.1456C315.06 49.4463 312.648 48.9846 310.208 48.7676C310.674 47.6616 311.148 46.7876 310.24 45.8816C309.518 45.159 309.112 44.1792 309.112 43.1576C309.112 42.1361 309.518 41.1563 310.24 40.4336L312.28 38.3936C312.638 38.0356 313.062 37.7516 313.53 37.5579C313.997 37.3641 314.498 37.2644 315.004 37.2644C315.51 37.2644 316.011 37.3641 316.478 37.5579C316.946 37.7516 317.37 38.0356 317.728 38.3936C317.891 38.5574 318.085 38.6872 318.298 38.7758C318.512 38.8643 318.741 38.9098 318.972 38.9096C319.398 38.8786 319.812 38.7551 320.186 38.5476C321.008 38.2256 321.94 37.8596 321.94 36.6496C321.941 35.6284 322.347 34.6492 323.069 33.927C323.792 33.2049 324.771 32.7987 325.792 32.7976H328.676C329.697 32.7987 330.676 33.2049 331.399 33.927C332.121 34.6492 332.527 35.6284 332.528 36.6496C332.527 37.0026 332.634 37.3475 332.833 37.6388C333.032 37.9302 333.315 38.1543 333.644 38.2816C334.788 38.7076 335.748 39.3876 336.74 38.3936C337.463 37.6722 338.442 37.267 339.463 37.267C340.484 37.267 341.463 37.6722 342.186 38.3936L344.222 40.4316C344.581 40.7888 344.865 41.2133 345.06 41.6808C345.254 42.1482 345.354 42.6494 345.354 43.1556C345.354 43.6618 345.254 44.1631 345.06 44.6305C344.865 45.098 344.581 45.5225 344.222 45.8796C343.204 46.9076 343.972 47.9816 344.34 48.9696C345.038 50.8276 346.836 49.3696 348.696 51.2236C349.055 51.5797 349.34 52.0035 349.534 52.4704C349.728 52.9373 349.827 53.4381 349.826 53.9436L349.82 56.8336Z" fill="#0a48b3"/>
<path d="M359.742 142.682C359.542 142.642 359.77 142.682 270.52 142.682C270.42 142.682 270.325 142.721 270.254 142.792C270.184 142.862 270.144 142.958 270.144 143.058C270.144 143.157 270.184 143.253 270.254 143.324C270.325 143.394 270.42 143.434 270.52 143.434H359.29V155.914H276.176C276.081 155.921 275.992 155.963 275.927 156.033C275.862 156.103 275.826 156.195 275.826 156.291C275.826 156.386 275.862 156.478 275.927 156.548C275.992 156.618 276.081 156.661 276.176 156.668H359.666C359.766 156.667 359.862 156.627 359.932 156.556C360.002 156.485 360.042 156.39 360.042 156.29V143.052C360.043 142.965 360.013 142.88 359.959 142.813C359.904 142.745 359.827 142.699 359.742 142.682Z" fill="#0a48b3"/>
<path d="M360.042 181.334V168.096C360.042 167.996 360.002 167.9 359.932 167.83C359.861 167.759 359.766 167.72 359.666 167.72H280.97C280.87 167.72 280.775 167.759 280.704 167.83C280.634 167.9 280.594 167.996 280.594 168.096C280.594 168.195 280.634 168.291 280.704 168.362C280.775 168.432 280.87 168.472 280.97 168.472H359.29V180.958H283.906C283.806 180.958 283.711 180.997 283.64 181.068C283.57 181.138 283.53 181.234 283.53 181.334C283.53 181.433 283.57 181.529 283.64 181.6C283.711 181.67 283.806 181.71 283.906 181.71H359.666C359.766 181.71 359.861 181.67 359.932 181.6C360.002 181.529 360.042 181.433 360.042 181.334Z" fill="#0a48b3"/>
<path d="M359.742 192.776C359.542 192.736 357.662 192.776 287.862 192.776C287.762 192.776 287.667 192.815 287.596 192.886C287.526 192.956 287.486 193.052 287.486 193.152C287.486 193.251 287.526 193.347 287.596 193.417C287.667 193.488 287.762 193.528 287.862 193.528H359.29V206.008H300.742C300.642 206.008 300.547 206.047 300.476 206.118C300.406 206.188 300.366 206.284 300.366 206.384C300.366 206.483 300.406 206.579 300.476 206.649C300.547 206.72 300.642 206.76 300.742 206.76H359.666C359.766 206.76 359.861 206.72 359.932 206.649C360.002 206.579 360.042 206.483 360.042 206.384V193.146C360.042 193.059 360.012 192.975 359.957 192.908C359.903 192.84 359.827 192.794 359.742 192.776Z" fill="#0a48b3"/>
<path d="M365.448 132.56C365.357 132.524 365.256 132.525 365.166 132.562C365.076 132.6 365.004 132.671 364.965 132.76C364.926 132.85 364.924 132.951 364.959 133.042C364.993 133.134 365.062 133.208 365.15 133.25C367.932 134.563 370.282 136.641 371.926 139.241C373.57 141.841 374.44 144.855 374.434 147.932V204.244C374.429 208.491 372.74 212.564 369.736 215.568C366.732 218.571 362.66 220.261 358.412 220.266H308.942C308.842 220.266 308.747 220.305 308.676 220.376C308.606 220.446 308.566 220.542 308.566 220.642C308.566 220.741 308.606 220.837 308.676 220.908C308.747 220.978 308.842 221.018 308.942 221.018H342.442V224.102C342.466 230.212 340.9 236.223 337.897 241.544C334.894 246.865 330.558 251.313 325.316 254.452C325.231 254.505 325.17 254.589 325.147 254.687C325.124 254.785 325.141 254.888 325.194 254.974C325.247 255.059 325.332 255.12 325.43 255.143C325.528 255.166 325.631 255.149 325.716 255.096C331.07 251.89 335.498 247.346 338.565 241.911C341.631 236.476 343.23 230.336 343.204 224.096V221.012H358.422C362.869 221.005 367.131 219.235 370.275 216.091C373.42 212.947 375.189 208.684 375.196 204.238V147.932C375.2 144.708 374.285 141.55 372.559 138.827C370.832 136.105 368.366 133.931 365.448 132.56Z" fill="#0a48b3"/>
<path d="M196.758 168.096V181.334C196.758 181.383 196.768 181.432 196.787 181.478C196.806 181.523 196.833 181.565 196.868 181.6C196.903 181.634 196.944 181.662 196.99 181.681C197.036 181.7 197.085 181.71 197.134 181.71H247.934C248.034 181.71 248.129 181.67 248.2 181.6C248.27 181.529 248.31 181.433 248.31 181.334C248.31 181.234 248.27 181.138 248.2 181.068C248.129 180.997 248.034 180.958 247.934 180.958H197.51V168.482H232.838C232.938 168.482 233.033 168.442 233.104 168.372C233.174 168.301 233.214 168.205 233.214 168.106C233.214 168.006 233.174 167.91 233.104 167.84C233.033 167.769 232.938 167.73 232.838 167.73H197.134C197.036 167.73 196.942 167.768 196.872 167.836C196.801 167.905 196.761 167.998 196.758 168.096Z" fill="#0a48b3"/>
<path d="M197.134 156.662H207.88C207.975 156.655 208.064 156.612 208.129 156.542C208.194 156.472 208.231 156.38 208.231 156.285C208.231 156.189 208.194 156.097 208.129 156.027C208.064 155.957 207.975 155.915 207.88 155.908H197.51V143.428H201.588C201.688 143.428 201.783 143.388 201.854 143.318C201.924 143.247 201.964 143.151 201.964 143.052C201.964 142.952 201.924 142.856 201.854 142.786C201.783 142.715 201.688 142.676 201.588 142.676H197.134C197.034 142.676 196.939 142.715 196.868 142.786C196.798 142.856 196.758 142.952 196.758 143.052V156.282C196.758 156.331 196.767 156.38 196.786 156.426C196.805 156.472 196.832 156.514 196.867 156.55C196.902 156.585 196.944 156.613 196.99 156.632C197.035 156.651 197.084 156.661 197.134 156.662Z" fill="#0a48b3"/>
<path d="M252.084 192.77H197.134C197.034 192.77 196.939 192.809 196.868 192.88C196.798 192.95 196.758 193.046 196.758 193.146V206.378C196.758 206.477 196.798 206.573 196.868 206.643C196.939 206.714 197.034 206.754 197.134 206.754H210.18C210.28 206.754 210.375 206.714 210.446 206.643C210.516 206.573 210.556 206.477 210.556 206.378C210.556 206.278 210.516 206.182 210.446 206.112C210.375 206.041 210.28 206.002 210.18 206.002H197.51V193.522H252.084C252.184 193.522 252.279 193.482 252.35 193.411C252.42 193.341 252.46 193.245 252.46 193.146C252.46 193.046 252.42 192.95 252.35 192.88C252.279 192.809 252.184 192.77 252.084 192.77Z" fill="#0a48b3"/>
<path d="M322.068 131.158H236C235.9 131.158 235.805 131.197 235.734 131.268C235.664 131.338 235.624 131.434 235.624 131.534C235.624 131.633 235.664 131.729 235.734 131.8C235.805 131.87 235.9 131.91 236 131.91H322.07C322.17 131.909 322.265 131.87 322.336 131.799C322.406 131.728 322.445 131.632 322.445 131.533C322.445 131.433 322.405 131.337 322.334 131.267C322.263 131.197 322.168 131.157 322.068 131.158Z" fill="#0a48b3"/>
<path d="M187.786 142.864L180.502 155.588L174.362 146.94C174.304 146.86 174.217 146.806 174.119 146.791C174.022 146.775 173.922 146.798 173.842 146.855C173.761 146.912 173.706 146.998 173.689 147.095C173.671 147.192 173.692 147.292 173.748 147.374L180.23 156.502C180.267 156.553 180.316 156.593 180.372 156.621C180.429 156.648 180.491 156.661 180.554 156.658C180.617 156.655 180.678 156.636 180.732 156.604C180.785 156.571 180.83 156.526 180.862 156.472L188.438 143.238C188.484 143.151 188.495 143.051 188.468 142.957C188.441 142.863 188.378 142.783 188.293 142.734C188.209 142.686 188.108 142.672 188.014 142.696C187.919 142.72 187.837 142.78 187.786 142.864Z" fill="#0a48b3"/>
<path d="M187.786 167.91L180.502 180.634L174.362 171.988C174.304 171.908 174.217 171.854 174.119 171.839C174.022 171.823 173.922 171.846 173.842 171.903C173.761 171.96 173.706 172.046 173.689 172.143C173.671 172.24 173.692 172.34 173.748 172.422L180.23 181.55C180.267 181.601 180.316 181.641 180.372 181.669C180.429 181.696 180.491 181.709 180.554 181.706C180.617 181.703 180.678 181.684 180.732 181.652C180.785 181.619 180.83 181.574 180.862 181.52L188.438 168.282C188.48 168.196 188.488 168.097 188.46 168.005C188.432 167.914 188.37 167.836 188.287 167.789C188.204 167.741 188.106 167.727 188.013 167.75C187.919 167.772 187.838 167.829 187.786 167.91Z" fill="#0a48b3"/>
<path d="M187.078 193.282L181.078 199.242L175.102 193.264C175.031 193.193 174.936 193.153 174.836 193.153C174.736 193.153 174.641 193.193 174.57 193.264C174.499 193.334 174.46 193.43 174.46 193.53C174.46 193.629 174.499 193.725 174.57 193.796L180.544 199.772L174.544 205.73C174.479 205.801 174.444 205.894 174.446 205.99C174.448 206.087 174.487 206.179 174.555 206.247C174.622 206.316 174.714 206.355 174.81 206.359C174.906 206.362 175 206.328 175.072 206.264L181.072 200.304L187.06 206.282C187.131 206.352 187.226 206.392 187.326 206.392C187.426 206.392 187.521 206.352 187.592 206.282C187.663 206.211 187.702 206.115 187.702 206.016C187.702 205.916 187.663 205.82 187.592 205.75L181.616 199.774L187.616 193.814C187.651 193.778 187.679 193.736 187.697 193.69C187.716 193.644 187.726 193.595 187.725 193.546C187.725 193.496 187.715 193.447 187.696 193.401C187.676 193.355 187.648 193.314 187.613 193.279C187.578 193.244 187.536 193.216 187.49 193.197C187.444 193.179 187.395 193.169 187.345 193.169C187.295 193.17 187.246 193.18 187.2 193.199C187.154 193.218 187.113 193.246 187.078 193.282Z" fill="#0a48b3"/>
<path d="M287.894 260.3H218.272C218.172 260.3 218.077 260.26 218.006 260.19C217.936 260.119 217.896 260.023 217.896 259.924C217.896 259.824 217.936 259.728 218.006 259.658C218.077 259.587 218.172 259.548 218.272 259.548H287.894C287.994 259.548 288.089 259.587 288.16 259.658C288.23 259.728 288.27 259.824 288.27 259.924C288.27 260.023 288.23 260.119 288.16 260.19C288.089 260.26 287.994 260.3 287.894 260.3Z" fill="#0a48b3"/>
<path d="M204.2 131.158H178.496C174.051 131.165 169.79 132.934 166.646 136.077C163.502 139.22 161.732 143.48 161.724 147.926V204.244C161.731 208.69 163.5 212.952 166.644 216.096C169.788 219.241 174.05 221.01 178.496 221.018H194.116C194.216 221.018 194.311 220.978 194.382 220.908C194.452 220.837 194.492 220.741 194.492 220.642C194.492 220.542 194.452 220.446 194.382 220.376C194.311 220.305 194.216 220.266 194.116 220.266H178.496C174.249 220.26 170.178 218.571 167.175 215.568C164.172 212.566 162.482 208.494 162.476 204.248V147.932C162.481 143.684 164.17 139.612 167.173 136.608C170.177 133.605 174.249 131.915 178.496 131.91H204.2C204.3 131.91 204.395 131.87 204.466 131.8C204.536 131.729 204.576 131.633 204.576 131.534C204.576 131.434 204.536 131.338 204.466 131.268C204.395 131.197 204.3 131.158 204.2 131.158Z" fill="#0a48b3"/>
<path d="M262.8 144.482C264.161 142.771 265.236 140.851 265.984 138.798C260.64 141.468 255.432 143.264 254.622 140.414C253.912 137.494 255.376 131.998 261.734 117.874C262.916 119.016 264.205 120.042 265.582 120.94C263.418 126.488 265.288 127.362 266.982 125.684C270.15 122.55 273.532 126.778 267.798 131.334C268.63 138.134 270.448 146.934 274.492 153.57C270.356 150.26 263.128 149.17 259.768 148.614C262.44 148.004 261.85 146.542 262.8 144.482Z" fill="#FFE7EA"/>
<path d="M279.434 246.71L279.42 246.738L279.434 246.71Z" fill="#FFE7EA"/>
<path d="M279.456 246.682L279.434 246.718L279.456 246.682Z" fill="#FFE7EA"/>
<path d="M364.772 330.392C367.074 328.74 368.45 327.354 368.16 326.654L311.296 230.816C309.896 216.524 300.43 203.462 289.24 195.402C289.188 195.362 289.16 195.344 289.16 195.344C267.394 192.79 234.776 200.038 213.486 205.344C207.681 206.809 202.443 209.968 198.44 214.421C194.437 218.873 191.85 224.416 191.008 230.344L183.154 285.944L186.98 286.198L185.358 297.784C188.168 300.184 194.494 304.294 208.062 303.84C208.734 298.298 209.582 291.57 210.086 287.738L213.162 287.938L222.162 238.57C222.162 238.57 263.182 237.618 273.706 237.618C278.848 237.618 286.016 233.906 289.994 228.068C286.852 233.614 280.064 245.596 279.458 246.668C295.874 272.48 337.984 338.738 338.636 340.212C339.194 341.47 341.558 341.242 344.156 340.534L350.044 350.006C358.255 352.358 366.963 352.358 375.174 350.006L364.772 330.392Z" fill="#FFE7EA"/>
<path d="M252.17 97.0916C250.868 101.228 250.746 101.648 248.146 102.18C243.464 103.144 241.996 105.564 241.346 107.546L239.98 107.066C240.218 106.504 240.456 105.938 240.7 105.366C239.663 104.671 238.591 104.03 237.488 103.444C238.366 102.102 240.06 100.888 243.722 100.134C246.322 99.6016 246.442 99.1816 247.744 95.0436C248.782 91.7456 248.944 90.8436 246.344 89.7356C247.704 86.4196 247.814 86.1356 247.824 85.5356C249.484 84.1076 253.122 85.8576 252.034 88.6116C251.582 89.7336 251.248 90.6116 250.764 91.7796C253.37 92.8816 253.2 93.7936 252.17 97.0916Z" fill="#FFE7EA"/>
<path d="M246.354 89.7356C246.836 88.5636 247.17 87.6876 247.618 86.5676C248.844 83.5256 244.592 81.6676 243.34 84.1476C243.204 84.4116 243.078 84.6856 242.954 84.9736H242.88C242.932 84.8316 242.984 84.6856 243.034 84.5436C244.234 81.2276 239.866 79.4596 238.648 82.1056C238.132 83.2156 237.762 84.4516 238.29 82.8816C239.396 79.5976 235.06 77.9416 233.926 80.5756L233.428 81.8456C234.404 78.6316 230.18 77.1296 229.16 79.7096C229.076 79.9096 229.002 80.1336 228.922 80.3496C225.77 87.1096 224.39 92.2996 221.856 98.4736C227.317 99.2062 232.608 100.886 237.492 103.438C238.37 102.094 240.064 100.882 243.726 100.128C246.326 99.5956 246.448 99.1756 247.748 95.0376C248.786 91.7476 248.948 90.8416 246.354 89.7356Z" fill="#FFE7EA"/>
<path d="M251.262 91.5856C251.482 91.0416 252.396 88.7496 252.396 88.7496C252.653 88.1467 252.69 87.4728 252.501 86.8454C252.312 86.2179 251.909 85.6766 251.362 85.3156C249.606 84.0636 247.47 84.8856 247.458 85.5296C247.458 86.0376 247.42 86.1416 246.006 89.5936C245.968 89.6849 245.968 89.7874 246.005 89.8789C246.043 89.9703 246.115 90.0432 246.206 90.0816C248.448 91.0356 248.448 91.5796 247.374 94.9956C246.1 99.0356 246.02 99.2796 243.65 99.7656C242.394 99.8852 241.175 100.254 240.063 100.85C238.952 101.446 237.97 102.258 237.176 103.238C237.147 103.281 237.128 103.331 237.12 103.382C237.112 103.434 237.114 103.487 237.127 103.538C237.14 103.588 237.164 103.636 237.196 103.677C237.229 103.718 237.27 103.751 237.316 103.776C238.316 104.304 239.29 104.884 240.236 105.506L239.636 106.94C239.604 107.029 239.607 107.127 239.644 107.215C239.681 107.302 239.749 107.372 239.836 107.412C241.236 107.91 241.298 107.98 241.51 107.888C242.204 107.512 242.006 103.828 248.222 102.548C251.06 101.968 251.302 101.236 252.528 97.2036C253.534 94.0076 253.774 92.7596 251.262 91.5856ZM251.81 96.9856C251.803 97.0079 251.799 97.0306 251.796 97.0536C250.522 101.092 250.44 101.334 248.07 101.82C243.342 102.792 241.806 105.2 241.118 107.074L240.49 106.846L241.05 105.52C241.085 105.439 241.09 105.349 241.065 105.265C241.039 105.18 240.985 105.108 240.912 105.06C239.986 104.44 239.024 103.86 238.046 103.324C239.576 101.741 241.612 100.742 243.8 100.502C246.6 99.9276 246.8 99.3016 248.106 95.1576C249.106 91.9576 249.35 90.7156 246.838 89.5416C247.462 88.3367 247.92 87.0531 248.2 85.7256C249.68 84.6896 252.584 86.2136 251.694 88.4716C251.694 88.4716 250.694 90.9556 250.424 91.6376C250.387 91.7289 250.387 91.8313 250.424 91.9226C250.462 92.0139 250.533 92.0868 250.624 92.1256C252.868 93.0816 252.864 93.6236 251.81 96.9776V96.9856Z" fill="#0a48b3"/>
<path d="M208.332 74.1956C207.914 74.0685 207.463 74.1073 207.072 74.3041C206.682 74.5009 206.382 74.8406 206.236 75.2525C206.089 75.6644 206.107 76.1169 206.286 76.516C206.464 76.9152 206.789 77.2302 207.194 77.3956L227.132 84.4736L228.452 81.3336L208.332 74.1956Z" fill="#0a48b3"/>
<path d="M361.078 124.442C349.112 115.822 323.632 109.314 320.22 115.314L277.892 100.282C277.958 99.8982 277.881 99.5039 277.678 99.1726C277.474 98.8413 277.156 98.5957 276.784 98.4816L247.074 87.9356C246.848 88.5056 246.628 89.0656 246.354 89.7356C247.896 90.3956 248.46 90.9816 248.45 92.0416L275.65 101.696C276.01 101.84 276.41 101.849 276.776 101.721C277.142 101.592 277.449 101.335 277.64 100.998L319.954 116.018C319.828 116.722 319.933 117.449 320.252 118.09L324 153.868C324.156 155.352 324.723 156.764 325.636 157.944C326.55 159.124 327.775 160.026 329.174 160.548C330.572 161.071 332.088 161.193 333.552 160.901C335.016 160.609 336.369 159.914 337.46 158.896L364.296 133.786C364.723 133.627 365.113 133.381 365.441 133.064C365.769 132.748 366.028 132.367 366.202 131.946C366.896 129.986 365.076 127.322 361.078 124.442ZM363.936 133.124C360.09 134.8 350.618 133.582 340.896 130.16C334.875 128.171 329.209 125.234 324.114 121.46C322.824 120.481 321.751 119.246 320.96 117.834C319.462 114.574 323.678 113.79 327.278 113.79C336.978 113.79 352.408 119.124 360.638 125.052C364.096 127.544 367.836 131.418 363.936 133.124Z" fill="#0a48b3"/>
<path d="M81.324 66.7876C80.1518 66.7872 79.0058 67.1345 78.0309 67.7855C77.0561 68.4365 76.2962 69.362 75.8475 70.4449C75.3987 71.5278 75.2812 72.7195 75.5098 73.8693C75.7384 75.019 76.3028 76.0751 77.1317 76.904C77.9606 77.7328 79.0167 78.2973 80.1664 78.5259C81.3161 78.7545 82.5078 78.6369 83.5907 78.1882C84.6736 77.7394 85.5991 76.9795 86.2501 76.0047C86.9011 75.0299 87.2484 73.8839 87.248 72.7116C87.2459 71.1411 86.6211 69.6356 85.5106 68.5251C84.4001 67.4146 82.8945 66.7898 81.324 66.7876Z" fill="#0a48b3"/>
<path d="M98.096 78.6376C96.9238 78.638 95.7779 78.2908 94.8031 77.6399C93.8283 76.989 93.0685 76.0636 92.6196 74.9808C92.1708 73.898 92.0532 72.7064 92.2816 71.5568C92.51 70.4071 93.0743 69.351 93.9029 68.522C94.7316 67.6931 95.7875 67.1285 96.9371 66.8997C98.0867 66.6708 99.2783 66.7881 100.361 67.2365C101.444 67.685 102.37 68.4446 103.021 69.4191C103.672 70.3937 104.02 71.5395 104.02 72.7116C104.018 74.2825 103.394 75.7886 102.283 76.8995C101.173 78.0104 99.6668 78.6355 98.096 78.6376ZM98.096 67.5396C97.0725 67.5392 96.0719 67.8424 95.2207 68.4108C94.3695 68.9792 93.7061 69.7872 93.3142 70.7327C92.9223 71.6782 92.8197 72.7187 93.0193 73.7225C93.2189 74.7264 93.7117 75.6485 94.4354 76.3722C95.1591 77.0959 96.0812 77.5887 97.0851 77.7883C98.0889 77.9879 99.1294 77.8853 100.075 77.4934C101.02 77.1016 101.828 76.4381 102.397 75.5869C102.965 74.7357 103.268 73.7351 103.268 72.7116C103.266 71.3404 102.721 70.0258 101.751 69.0562C100.782 68.0866 99.4672 67.5412 98.096 67.5396Z" fill="#0a48b3"/>
<path d="M114.91 78.6376C113.738 78.638 112.592 78.2908 111.617 77.6399C110.642 76.989 109.882 76.0636 109.434 74.9808C108.985 73.898 108.867 72.7064 109.096 71.5568C109.324 70.4071 109.888 69.351 110.717 68.522C111.546 67.6931 112.602 67.1285 113.751 66.8997C114.901 66.6708 116.092 66.7881 117.175 67.2365C118.258 67.685 119.184 68.4446 119.835 69.4191C120.486 70.3937 120.834 71.5395 120.834 72.7116C120.832 74.2825 120.208 75.7886 119.097 76.8995C117.987 78.0104 116.481 78.6355 114.91 78.6376ZM114.91 67.5396C113.887 67.5392 112.886 67.8424 112.035 68.4108C111.184 68.9792 110.52 69.7872 110.128 70.7327C109.736 71.6782 109.634 72.7187 109.833 73.7225C110.033 74.7264 110.526 75.6485 111.249 76.3722C111.973 77.0959 112.895 77.5887 113.899 77.7883C114.903 77.9879 115.943 77.8853 116.889 77.4934C117.834 77.1016 118.642 76.4381 119.211 75.5869C119.779 74.7357 120.082 73.7351 120.082 72.7116C120.08 71.3404 119.535 70.0258 118.565 69.0562C117.596 68.0866 116.281 67.5412 114.91 67.5396Z" fill="#0a48b3"/>
<path d="M120.708 199C117.22 190.142 105.96 191.06 103.398 191.4C103.916 187.596 103.438 183.722 102.012 180.158C103.672 178.98 113.166 172.758 120.104 178.85C120.141 178.882 120.185 178.907 120.232 178.923C120.278 178.939 120.328 178.945 120.377 178.942C120.427 178.938 120.475 178.925 120.519 178.903C120.564 178.881 120.603 178.851 120.636 178.814C120.669 178.776 120.693 178.733 120.709 178.686C120.725 178.639 120.732 178.59 120.728 178.54C120.725 178.491 120.712 178.443 120.69 178.398C120.668 178.354 120.637 178.314 120.6 178.282C113.43 171.986 103.8 177.994 101.712 179.444C100.222 176.075 97.9232 173.127 95.02 170.86C96.054 169.118 102.202 159.56 111.02 162.306C111.115 162.335 111.218 162.326 111.307 162.28C111.395 162.233 111.461 162.154 111.491 162.059C111.521 161.963 111.511 161.86 111.465 161.772C111.419 161.684 111.339 161.617 111.244 161.588C102.024 158.718 95.644 168.378 94.418 170.406C91.3983 168.201 87.8692 166.797 84.16 166.326C85.7827 165.685 87.1391 164.511 88.0062 162.998C88.8733 161.484 89.1995 159.72 88.9312 157.996C88.6629 156.273 87.816 154.692 86.5298 153.513C85.2435 152.334 83.5946 151.629 81.854 151.512C82.8178 148.98 84.474 146.769 86.6337 145.133C88.7934 143.497 91.3695 142.502 94.068 142.26C94.1656 142.246 94.2539 142.194 94.3138 142.116C94.3736 142.037 94.4002 141.938 94.3879 141.84C94.3756 141.743 94.3253 141.653 94.2478 141.592C94.1704 141.531 94.0721 141.503 93.974 141.514C91.2278 141.766 88.6017 142.759 86.3764 144.388C84.1511 146.017 82.4103 148.22 81.34 150.762C80.2697 148.22 78.5288 146.017 76.3036 144.388C74.0783 142.759 71.4522 141.766 68.706 141.514C68.6079 141.503 68.5096 141.531 68.4321 141.592C68.3547 141.653 68.3044 141.743 68.2921 141.84C68.2797 141.938 68.3063 142.037 68.3662 142.116C68.426 142.194 68.5143 142.246 68.612 142.26C71.3106 142.502 73.8868 143.498 76.0468 145.134C78.2067 146.77 79.8635 148.98 80.828 151.512C79.0872 151.628 77.438 152.334 76.1515 153.512C74.865 154.691 74.0178 156.272 73.7492 157.996C73.4806 159.719 73.8067 161.483 74.6737 162.997C75.5408 164.511 76.8972 165.685 78.52 166.326C74.8024 166.797 71.2658 168.206 68.242 170.42C67.042 168.42 60.642 158.71 51.406 161.588C51.3108 161.617 51.2313 161.684 51.1849 161.772C51.1386 161.86 51.1293 161.963 51.159 162.059C51.1887 162.154 51.255 162.233 51.3433 162.28C51.4317 162.326 51.5348 162.335 51.63 162.306C60.472 159.556 66.63 169.176 67.63 170.874C64.7316 173.143 62.4373 176.092 60.95 179.46C58.904 178.04 49.236 171.962 42.04 178.282C41.9708 178.349 41.9301 178.44 41.9263 178.537C41.9225 178.633 41.9559 178.727 42.0196 178.8C42.0834 178.872 42.1725 178.917 42.2686 178.926C42.3647 178.934 42.4605 178.906 42.536 178.846C49.502 172.732 59.056 179.036 60.652 180.168C59.2312 183.73 58.7558 187.599 59.272 191.4C56.77 191.07 45.434 190.108 41.932 199C41.8954 199.092 41.8972 199.196 41.9369 199.288C41.9767 199.379 42.0512 199.451 42.144 199.488C42.2368 199.524 42.3404 199.522 42.4319 199.483C42.5234 199.443 42.5954 199.368 42.632 199.276C46.056 190.582 57.592 191.908 59.39 192.172C60.2773 197.348 62.9663 202.044 66.9816 205.43C70.9969 208.816 76.0799 210.673 81.332 210.673C86.5841 210.673 91.6671 208.816 95.6824 205.43C99.6977 202.044 102.387 197.348 103.274 192.172C105.168 191.898 116.598 190.634 120.002 199.28C120.039 199.373 120.112 199.448 120.204 199.488C120.297 199.528 120.401 199.53 120.495 199.493C120.589 199.456 120.664 199.383 120.704 199.29C120.744 199.198 120.745 199.093 120.708 199ZM101.156 180.044C101.155 180.124 101.182 180.202 101.232 180.266L101.258 180.296C102.829 184.151 103.246 188.381 102.458 192.469C101.67 196.557 99.7103 200.329 96.818 203.324C80.488 199.724 81.754 183.47 81.784 166.904C85.9359 166.994 89.9734 168.282 93.4102 170.613C96.8471 172.944 99.537 176.219 101.156 180.044ZM74.4 159.176C74.4 157.805 74.8064 156.465 75.5679 155.326C76.3294 154.186 77.4117 153.298 78.678 152.773C79.9443 152.249 81.3377 152.111 82.682 152.379C84.0262 152.646 85.2611 153.306 86.2302 154.275C87.1994 155.245 87.8594 156.479 88.1268 157.824C88.3942 159.168 88.257 160.561 87.7325 161.828C87.208 163.094 86.3197 164.176 85.1801 164.938C84.0405 165.699 82.7006 166.106 81.33 166.106C79.4927 166.104 77.7312 165.373 76.4321 164.074C75.1329 162.774 74.4021 161.013 74.4 159.176ZM80.954 166.902C80.984 183.54 82.232 199.754 65.832 203.302C62.9294 200.286 60.9704 196.489 60.1952 192.376C59.42 188.263 59.8624 184.013 61.4682 180.148C63.0739 176.282 65.7732 172.97 69.2346 170.617C72.696 168.264 76.7691 166.973 80.954 166.902ZM66.462 203.934C77.158 201.408 80.41 193.318 81.362 183.674C82.308 193.308 85.538 201.398 96.18 203.952C92.1812 207.78 86.8577 209.916 81.3214 209.913C75.7851 209.91 70.4642 207.767 66.47 203.934H66.462Z" fill="#0a48b3"/>
<path d="M90.666 180.234C91.1407 180.234 91.6047 180.093 91.9994 179.829C92.394 179.565 92.7017 179.191 92.8833 178.752C93.065 178.314 93.1125 177.831 93.0199 177.365C92.9273 176.9 92.6987 176.472 92.3631 176.137C92.0274 175.801 91.5998 175.572 91.1342 175.48C90.6687 175.387 90.1861 175.435 89.7476 175.616C89.309 175.798 88.9342 176.106 88.6705 176.5C88.4067 176.895 88.266 177.359 88.266 177.834C88.266 178.47 88.5188 179.081 88.9689 179.531C89.419 179.981 90.0295 180.234 90.666 180.234ZM90.666 176.192C90.9911 176.192 91.309 176.288 91.5794 176.469C91.8497 176.649 92.0604 176.906 92.1849 177.206C92.3093 177.507 92.3418 177.837 92.2784 178.156C92.215 178.475 92.0584 178.768 91.8285 178.998C91.5986 179.228 91.3056 179.385 90.9867 179.448C90.6678 179.511 90.3373 179.479 90.0369 179.354C89.7365 179.23 89.4797 179.019 89.2991 178.749C89.1184 178.479 89.022 178.161 89.022 177.836C89.0225 177.4 89.1959 176.982 89.5041 176.674C89.8123 176.366 90.2301 176.192 90.666 176.192Z" fill="#0a48b3"/>
<path d="M97.612 194.268C98.0867 194.268 98.5507 194.127 98.9453 193.863C99.34 193.599 99.6476 193.225 99.8293 192.786C100.011 192.348 100.058 191.865 99.9659 191.399C99.8733 190.934 99.6447 190.506 99.309 190.171C98.9734 189.835 98.5457 189.606 98.0802 189.514C97.6146 189.421 97.1321 189.469 96.6935 189.65C96.255 189.832 95.8802 190.14 95.6164 190.534C95.3527 190.929 95.212 191.393 95.212 191.868C95.212 192.504 95.4648 193.115 95.9149 193.565C96.365 194.015 96.9755 194.268 97.612 194.268ZM97.612 190.228C97.937 190.228 98.2547 190.325 98.5248 190.506C98.7949 190.687 99.0053 190.943 99.1294 191.244C99.2535 191.544 99.2858 191.875 99.2221 192.194C99.1585 192.512 99.0017 192.805 98.7718 193.035C98.5418 193.265 98.2488 193.421 97.93 193.484C97.6111 193.547 97.2807 193.515 96.9804 193.39C96.6801 193.266 96.4235 193.055 96.2429 192.785C96.0623 192.514 95.966 192.197 95.966 191.872C95.9665 191.435 96.1402 191.017 96.4488 190.709C96.7574 190.401 97.1758 190.228 97.612 190.228Z" fill="#0a48b3"/>
<path d="M72.13 180.234C72.6046 180.234 73.0687 180.093 73.4633 179.829C73.858 179.565 74.1656 179.191 74.3473 178.752C74.5289 178.314 74.5765 177.831 74.4839 177.365C74.3913 176.9 74.1627 176.472 73.827 176.137C73.4914 175.801 73.0637 175.572 72.5982 175.48C72.1326 175.387 71.6501 175.435 71.2115 175.616C70.773 175.798 70.3982 176.106 70.1345 176.5C69.8707 176.895 69.73 177.359 69.73 177.834C69.73 178.47 69.9828 179.081 70.4329 179.531C70.883 179.981 71.4935 180.234 72.13 180.234ZM72.13 176.192C72.4551 176.192 72.773 176.288 73.0433 176.469C73.3137 176.649 73.5244 176.906 73.6488 177.206C73.7733 177.507 73.8058 177.837 73.7424 178.156C73.679 178.475 73.5224 178.768 73.2925 178.998C73.0625 179.228 72.7696 179.385 72.4507 179.448C72.1318 179.511 71.8012 179.479 71.5008 179.354C71.2004 179.23 70.9437 179.019 70.763 178.749C70.5824 178.479 70.486 178.161 70.486 177.836C70.4865 177.4 70.6599 176.982 70.9681 176.674C71.2763 176.366 71.6941 176.192 72.13 176.192Z" fill="#0a48b3"/>
<path d="M67.58 191.882C67.58 191.407 67.4393 190.943 67.1756 190.548C66.9118 190.154 66.537 189.846 66.0985 189.664C65.6599 189.483 65.1774 189.435 64.7118 189.528C64.2463 189.62 63.8186 189.849 63.483 190.185C63.1473 190.52 62.9188 190.948 62.8261 191.413C62.7335 191.879 62.7811 192.362 62.9627 192.8C63.1444 193.239 63.452 193.613 63.8467 193.877C64.2413 194.141 64.7054 194.282 65.18 194.282C65.8166 194.282 66.427 194.029 66.8771 193.579C67.3272 193.129 67.58 192.518 67.58 191.882ZM63.54 191.882C63.54 191.556 63.6364 191.239 63.8171 190.968C63.9977 190.698 64.2545 190.487 64.5549 190.363C64.8553 190.238 65.1859 190.206 65.5048 190.269C65.8237 190.333 66.1166 190.489 66.3465 190.719C66.5764 190.949 66.733 191.242 66.7964 191.561C66.8599 191.88 66.8273 192.21 66.7029 192.511C66.5785 192.811 66.3677 193.068 66.0974 193.249C65.827 193.429 65.5092 193.526 65.184 193.526C64.7482 193.525 64.3303 193.352 64.0221 193.044C63.7139 192.735 63.5406 192.317 63.54 191.882Z" fill="#0a48b3"/>
<path d="M36.928 113.632C36.1443 113.629 35.3776 113.403 34.7179 112.98C34.0583 112.556 33.533 111.954 33.2037 111.243C32.8744 110.532 32.7547 109.741 32.8588 108.964C32.9629 108.188 33.2864 107.457 33.7913 106.857C34.2962 106.258 34.9616 105.815 35.7094 105.58C36.4572 105.346 37.2564 105.33 38.0132 105.533C38.7699 105.737 39.4529 106.152 39.982 106.73C40.511 107.309 40.8642 108.026 41 108.798C41.1044 109.391 41.0774 110.001 40.9207 110.582C40.7641 111.164 40.4817 111.705 40.0934 112.166C39.7051 112.627 39.2204 112.997 38.6734 113.25C38.1265 113.504 37.5307 113.634 36.928 113.632ZM36.944 106.146C36.2529 106.144 35.5779 106.355 35.0108 106.75C34.4438 107.145 34.0121 107.705 33.7744 108.354C33.5367 109.003 33.5045 109.709 33.6822 110.377C33.86 111.045 34.239 111.642 34.7678 112.087C35.2966 112.532 35.9496 112.804 36.638 112.864C37.3264 112.925 38.017 112.773 38.6158 112.428C39.2146 112.083 39.6926 111.562 39.985 110.936C40.2774 110.309 40.3699 109.608 40.25 108.928C40.1126 108.15 39.7062 107.445 39.1019 106.937C38.4976 106.428 37.7338 106.148 36.944 106.146Z" fill="#0a48b3"/>
<path d="M370.018 255.39H360.042V245.414C360.042 245.314 360.002 245.218 359.932 245.148C359.861 245.077 359.766 245.038 359.666 245.038C359.566 245.038 359.471 245.077 359.4 245.148C359.33 245.218 359.29 245.314 359.29 245.414V255.39H349.314C349.214 255.39 349.119 255.429 349.048 255.5C348.978 255.57 348.938 255.666 348.938 255.766C348.938 255.865 348.978 255.961 349.048 256.031C349.119 256.102 349.214 256.142 349.314 256.142H359.29V266.118C359.29 266.217 359.33 266.313 359.4 266.383C359.471 266.454 359.566 266.494 359.666 266.494C359.766 266.494 359.861 266.454 359.932 266.383C360.002 266.313 360.042 266.217 360.042 266.118V256.142H370.018C370.118 256.142 370.213 256.102 370.284 256.031C370.354 255.961 370.394 255.865 370.394 255.766C370.394 255.666 370.354 255.57 370.284 255.5C370.213 255.429 370.118 255.39 370.018 255.39Z" fill="#0a48b3"/>
<path d="M235.438 219.21L228.766 220.522C228.668 220.541 228.582 220.598 228.526 220.681C228.471 220.764 228.451 220.866 228.47 220.964C228.489 221.062 228.547 221.148 228.63 221.203C228.713 221.259 228.814 221.279 228.912 221.26L235.584 219.948C235.682 219.928 235.768 219.871 235.824 219.788C235.879 219.705 235.899 219.604 235.88 219.506C235.861 219.408 235.803 219.322 235.72 219.266C235.637 219.211 235.536 219.19 235.438 219.21Z" fill="#0a48b3"/>
<path d="M253.2 215.718L246.528 217.03C246.437 217.049 246.357 217.1 246.302 217.175C246.247 217.25 246.222 217.342 246.231 217.434C246.24 217.526 246.282 217.612 246.35 217.674C246.419 217.737 246.507 217.772 246.6 217.774C246.8 217.774 247.982 217.51 253.346 216.456C253.444 216.436 253.53 216.379 253.586 216.296C253.641 216.213 253.661 216.112 253.642 216.014C253.623 215.916 253.565 215.83 253.482 215.774C253.399 215.719 253.298 215.698 253.2 215.718Z" fill="#0a48b3"/>
<path d="M218.292 222.58C216.011 223.025 213.838 223.908 211.892 225.18C211.825 225.224 211.774 225.288 211.746 225.364C211.718 225.439 211.715 225.521 211.738 225.598C211.76 225.675 211.806 225.743 211.87 225.792C211.934 225.841 212.012 225.868 212.092 225.87C214.043 224.668 216.183 223.806 218.422 223.32C218.517 223.299 218.6 223.242 218.654 223.162C218.708 223.081 218.729 222.983 218.712 222.887C218.695 222.792 218.642 222.706 218.564 222.649C218.486 222.592 218.388 222.567 218.292 222.58Z" fill="#0a48b3"/>
<path d="M204.822 234.048C203.908 236.52 203.84 238.106 202.914 244.448C202.9 244.547 202.925 244.647 202.985 244.727C203.045 244.807 203.134 244.86 203.233 244.875C203.332 244.889 203.432 244.863 203.513 244.804C203.593 244.744 203.646 244.655 203.66 244.556C204.66 237.738 204.7 236.556 205.528 234.312C205.563 234.218 205.559 234.114 205.518 234.023C205.476 233.932 205.401 233.862 205.307 233.827C205.213 233.792 205.11 233.795 205.019 233.837C204.928 233.878 204.857 233.954 204.822 234.048Z" fill="#0a48b3"/>
<path d="M198.688 273.546L197.712 280.276C197.7 280.373 197.727 280.471 197.787 280.549C197.846 280.627 197.934 280.679 198.031 280.693C198.128 280.707 198.227 280.683 198.307 280.625C198.386 280.567 198.44 280.48 198.456 280.384L199.432 273.654C199.444 273.556 199.417 273.458 199.357 273.38C199.298 273.302 199.21 273.25 199.113 273.236C199.016 273.222 198.917 273.247 198.837 273.304C198.758 273.362 198.704 273.449 198.688 273.546Z" fill="#0a48b3"/>
<path d="M201.29 255.63L200.314 262.36C200.302 262.457 200.329 262.555 200.389 262.633C200.448 262.711 200.536 262.763 200.633 262.777C200.73 262.791 200.829 262.767 200.909 262.709C200.988 262.651 201.042 262.564 201.058 262.468L202.034 255.74C202.049 255.641 202.023 255.541 201.964 255.46C201.905 255.38 201.816 255.327 201.717 255.313C201.618 255.298 201.518 255.323 201.438 255.383C201.358 255.442 201.305 255.531 201.29 255.63Z" fill="#0a48b3"/>
<path d="M80.948 262.416V252.578C80.948 252.478 80.9876 252.382 81.0581 252.312C81.1286 252.241 81.2243 252.202 81.324 252.202C81.4237 252.202 81.5194 252.241 81.5899 252.312C81.6604 252.382 81.7 252.478 81.7 252.578V262.416C81.7 262.515 81.6604 262.611 81.5899 262.682C81.5194 262.752 81.4237 262.792 81.324 262.792C81.2243 262.792 81.1286 262.752 81.0581 262.682C80.9876 262.611 80.948 262.515 80.948 262.416Z" fill="#0a48b3"/>
<path d="M82.216 267.168C82.2051 267.397 82.1063 267.614 81.94 267.772C81.7737 267.931 81.5528 268.019 81.323 268.019C81.0932 268.019 80.8722 267.931 80.706 267.772C80.5397 267.614 80.4409 267.397 80.43 267.168C80.4409 266.938 80.5397 266.722 80.706 266.563C80.8722 266.404 81.0932 266.316 81.323 266.316C81.5528 266.316 81.7737 266.404 81.94 266.563C82.1063 266.722 82.2051 266.938 82.216 267.168Z" fill="#0a48b3"/>
<path d="M261.432 191.954C261.432 192.419 261.247 192.865 260.918 193.194C260.589 193.523 260.143 193.708 259.678 193.708C259.213 193.708 258.767 193.523 258.438 193.194C258.109 192.865 257.924 192.419 257.924 191.954C257.924 191.488 258.109 191.042 258.438 190.713C258.767 190.384 259.213 190.2 259.678 190.2C260.143 190.2 260.589 190.384 260.918 190.713C261.247 191.042 261.432 191.488 261.432 191.954Z" fill="#0a48b3"/>
<path d="M277.97 172.054C277.97 172.519 277.785 172.965 277.456 173.294C277.127 173.623 276.681 173.808 276.216 173.808C275.751 173.808 275.305 173.623 274.976 173.294C274.647 172.965 274.462 172.519 274.462 172.054C274.462 171.588 274.647 171.142 274.976 170.813C275.305 170.484 275.751 170.3 276.216 170.3C276.681 170.3 277.127 170.484 277.456 170.813C277.785 171.142 277.97 171.588 277.97 172.054Z" fill="#0a48b3"/>
<path d="M256.26 166.344C256.26 166.809 256.075 167.255 255.746 167.584C255.417 167.913 254.971 168.098 254.506 168.098C254.041 168.098 253.595 167.913 253.266 167.584C252.937 167.255 252.752 166.809 252.752 166.344C252.752 165.878 252.937 165.432 253.266 165.103C253.595 164.774 254.041 164.59 254.506 164.59C254.971 164.59 255.417 164.774 255.746 165.103C256.075 165.432 256.26 165.878 256.26 166.344Z" fill="#0a48b3"/>
<path d="M240.264 148.618C240.264 149.083 240.079 149.529 239.75 149.858C239.421 150.187 238.975 150.372 238.51 150.372C238.045 150.372 237.599 150.187 237.27 149.858C236.941 149.529 236.756 149.083 236.756 148.618C236.756 148.152 236.941 147.706 237.27 147.377C237.599 147.048 238.045 146.864 238.51 146.864C238.975 146.864 239.421 147.048 239.75 147.377C240.079 147.706 240.264 148.152 240.264 148.618Z" fill="#0a48b3"/>
<path d="M211.388 146.24C211.388 146.705 211.203 147.151 210.874 147.48C210.545 147.809 210.099 147.994 209.634 147.994C209.169 147.994 208.723 147.809 208.394 147.48C208.065 147.151 207.88 146.705 207.88 146.24C207.88 145.774 208.065 145.328 208.394 144.999C208.723 144.67 209.169 144.486 209.634 144.486C210.099 144.486 210.545 144.67 210.874 144.999C211.203 145.328 211.388 145.774 211.388 146.24Z" fill="#0a48b3"/>
<path d="M227.2 122.082C227.2 122.547 227.015 122.993 226.686 123.322C226.357 123.651 225.911 123.836 225.446 123.836C224.981 123.836 224.535 123.651 224.206 123.322C223.877 122.993 223.692 122.547 223.692 122.082C223.692 121.616 223.877 121.17 224.206 120.841C224.535 120.512 224.981 120.328 225.446 120.328C225.911 120.328 226.357 120.512 226.686 120.841C227.015 121.17 227.2 121.616 227.2 122.082Z" fill="#0a48b3"/>
<path d="M261.71 211.45C260.064 212.947 258.149 214.119 256.066 214.904C255.974 214.94 255.901 215.011 255.861 215.101C255.821 215.191 255.818 215.293 255.852 215.385C255.887 215.477 255.956 215.552 256.046 215.594C256.135 215.636 256.237 215.641 256.33 215.608C258.501 214.79 260.499 213.568 262.216 212.008C262.29 211.941 262.334 211.847 262.339 211.747C262.344 211.647 262.309 211.55 262.242 211.476C262.175 211.402 262.081 211.357 261.981 211.352C261.882 211.348 261.784 211.383 261.71 211.45Z" fill="#0a48b3"/>
<path d="M338.418 316.596C338.36 316.523 338.278 316.474 338.186 316.458C338.094 316.442 338 316.461 337.922 316.511C337.843 316.561 337.786 316.638 337.761 316.727C337.736 316.817 337.745 316.912 337.786 316.996C341.768 323.228 341.47 322.898 341.766 322.898C341.833 322.897 341.899 322.879 341.957 322.845C342.015 322.81 342.062 322.761 342.095 322.702C342.127 322.643 342.143 322.576 342.141 322.509C342.138 322.442 342.118 322.376 342.082 322.32L338.418 316.596Z" fill="#0a48b3"/>
<path d="M289.66 240.33C289.602 240.257 289.52 240.208 289.428 240.192C289.337 240.176 289.242 240.195 289.164 240.245C289.085 240.295 289.028 240.372 289.003 240.461C288.978 240.551 288.987 240.646 289.028 240.73C293.018 246.956 292.716 246.632 293.006 246.632C293.073 246.631 293.139 246.613 293.197 246.578C293.255 246.544 293.302 246.495 293.334 246.436C293.367 246.377 293.383 246.311 293.381 246.243C293.379 246.176 293.36 246.111 293.324 246.054L289.66 240.33Z" fill="#0a48b3"/>
<path d="M318.916 286.082C318.859 286.006 318.776 285.954 318.683 285.937C318.59 285.92 318.494 285.938 318.414 285.989C318.334 286.039 318.276 286.118 318.252 286.209C318.227 286.301 318.238 286.398 318.282 286.482C322.238 292.682 321.966 292.386 322.262 292.386C322.329 292.385 322.395 292.366 322.453 292.332C322.511 292.297 322.558 292.248 322.59 292.188C322.623 292.129 322.639 292.063 322.636 291.995C322.634 291.928 322.614 291.863 322.578 291.806L318.916 286.082Z" fill="#0a48b3"/>
<path d="M328.668 301.342C328.611 301.266 328.528 301.214 328.435 301.197C328.342 301.18 328.246 301.198 328.166 301.249C328.086 301.299 328.028 301.378 328.004 301.469C327.979 301.561 327.99 301.658 328.034 301.742C332.012 307.976 331.718 307.644 332.014 307.644C332.081 307.643 332.147 307.625 332.205 307.591C332.263 307.556 332.311 307.507 332.343 307.448C332.375 307.389 332.391 307.322 332.389 307.255C332.386 307.188 332.366 307.122 332.33 307.066L328.668 301.342Z" fill="#0a48b3"/>
<path d="M309.164 270.836C309.107 270.76 309.024 270.708 308.931 270.691C308.838 270.674 308.742 270.692 308.662 270.743C308.582 270.793 308.524 270.872 308.5 270.963C308.475 271.055 308.486 271.152 308.53 271.236C312.486 277.436 312.214 277.138 312.51 277.138C312.577 277.137 312.643 277.119 312.701 277.085C312.759 277.05 312.807 277.001 312.839 276.942C312.871 276.883 312.887 276.816 312.885 276.749C312.882 276.682 312.862 276.616 312.826 276.56L309.164 270.836Z" fill="#0a48b3"/>
<path d="M299.412 255.584C299.355 255.508 299.272 255.456 299.179 255.439C299.086 255.422 298.99 255.44 298.91 255.491C298.83 255.541 298.772 255.62 298.748 255.711C298.723 255.803 298.734 255.9 298.778 255.984C302.756 262.218 302.468 261.886 302.758 261.886C302.825 261.885 302.892 261.867 302.95 261.833C303.008 261.798 303.055 261.749 303.088 261.689C303.12 261.63 303.136 261.563 303.134 261.496C303.132 261.428 303.112 261.363 303.076 261.306L299.412 255.584Z" fill="#0a48b3"/>
<path d="M389.57 368.524H378.62C378.766 362.167 377.718 355.84 375.53 349.87L365.23 330.524C368.574 328.082 368.726 327.074 368.516 326.524C368.422 326.324 370.8 330.36 311.662 230.69C309.52 209.312 290.698 195.944 289.434 195.07C282.116 183.86 284.624 168.342 275.368 154.254C273.438 151.178 271.932 147.856 270.89 144.378C270.816 143.292 270.374 132.096 283.656 128.43C284.352 128.242 284.98 127.861 285.467 127.331C285.954 126.801 286.281 126.143 286.408 125.434C286.536 124.725 286.46 123.994 286.188 123.327C285.916 122.66 285.461 122.084 284.874 121.666C284.098 121.107 283.147 120.843 282.194 120.922C282.511 120.225 282.616 119.45 282.495 118.695C282.375 117.939 282.034 117.235 281.515 116.672C280.997 116.109 280.324 115.711 279.58 115.529C278.837 115.346 278.056 115.387 277.336 115.646C277.475 114.954 277.425 114.237 277.193 113.57C276.96 112.904 276.553 112.312 276.014 111.856C275.475 111.4 274.824 111.097 274.128 110.979C273.432 110.86 272.718 110.93 272.058 111.182C272.149 110.622 272.116 110.049 271.962 109.503C271.807 108.957 271.535 108.452 271.164 108.023C270.793 107.594 270.333 107.251 269.815 107.02C269.297 106.788 268.735 106.673 268.168 106.682C267.478 106.683 266.801 106.864 266.201 107.205C265.601 107.546 265.1 108.036 264.746 108.628L261.38 117.728C254.558 132.884 253.638 137.67 254.248 140.484C254.318 140.8 254.421 141.108 254.554 141.404C255.394 143.252 259.554 144.282 262.266 144.768C262.111 145.187 261.978 145.614 261.866 146.048L235.608 135.024C237.662 125.956 240.49 117.082 244.06 108.498C244.094 108.412 244.094 108.316 244.062 108.23C244.029 108.144 243.966 108.072 243.884 108.03C243.826 108 240.546 106.85 240.484 106.83C240.668 106.392 240.858 105.946 241.044 105.504C241.079 105.423 241.084 105.333 241.059 105.249C241.033 105.164 240.979 105.092 240.906 105.044C239.98 104.424 239.018 103.844 238.04 103.308C239.574 101.729 241.611 100.736 243.8 100.502C246.86 99.8756 246.82 99.0156 248.106 95.1576C249.106 91.9576 249.35 90.7156 246.838 89.5416C247.094 88.9096 247.966 86.7076 247.966 86.7076C248.215 86.1251 248.266 85.4774 248.113 84.8629C247.96 84.2483 247.61 83.7006 247.117 83.303C246.624 82.9053 246.015 82.6795 245.382 82.6597C244.749 82.64 244.127 82.8275 243.61 83.1936C243.572 82.6522 243.382 82.1323 243.064 81.6929C242.745 81.2535 242.31 80.9121 241.807 80.7075C241.304 80.5028 240.754 80.4431 240.219 80.535C239.684 80.627 239.186 80.8669 238.78 81.2276C238.68 80.6972 238.43 80.2066 238.059 79.8145C237.688 79.4223 237.212 79.1451 236.688 79.0158C236.164 78.8866 235.614 78.9108 235.103 79.0856C234.593 79.2604 234.143 79.5784 233.808 80.0016C233.661 79.4758 233.357 79.0074 232.937 78.6591C232.517 78.3109 232 78.0994 231.456 78.0531C230.912 78.0067 230.367 78.1277 229.894 78.3998C229.42 78.672 229.042 79.0822 228.808 79.5756C228.744 79.7296 228.688 79.8876 228.63 80.0456C225.218 87.5096 224.202 91.6996 221.614 98.0656C220.34 97.8836 218.984 97.7316 217.574 97.6176C217.497 97.6118 217.421 97.6294 217.354 97.6679C217.288 97.7065 217.235 97.7643 217.202 97.8336C211.019 110.543 205.934 123.757 202 137.332C200.804 141.347 201.012 145.65 202.589 149.531C204.167 153.412 207.02 156.64 210.678 158.682C222.296 165.051 234.739 169.783 247.654 172.744C245.954 182.278 249.742 188.544 253.234 196.684C241.734 198.426 228.492 201.184 213.394 204.974C207.506 206.438 202.191 209.632 198.135 214.144C194.079 218.656 191.467 224.28 190.636 230.29L182.782 285.882C182.775 285.933 182.778 285.985 182.792 286.035C182.806 286.084 182.829 286.131 182.862 286.171C182.894 286.211 182.935 286.244 182.98 286.268C183.026 286.292 183.076 286.306 183.128 286.31L186.594 286.544L185.024 297.456C173.465 299.366 162.469 303.805 152.824 310.456C152.77 310.493 152.727 310.544 152.699 310.603C152.671 310.662 152.658 310.727 152.663 310.793C152.667 310.858 152.689 310.921 152.725 310.976C152.762 311.03 152.811 311.074 152.87 311.104C164.326 316.788 194.8 325.104 206.248 320.568C206.312 320.543 206.368 320.502 206.41 320.448C206.452 320.394 206.478 320.33 206.486 320.262C206.592 319.29 209.924 291.594 210.388 288.122L213.156 288.304C213.244 288.304 213.329 288.273 213.397 288.217C213.464 288.16 213.51 288.082 213.526 287.996L222.476 238.93C226.236 238.844 263.276 237.996 273.498 237.984C274.698 239.872 337.464 338.53 338.298 340.35C339.05 342.04 342.2 341.42 343.99 340.95L349.472 349.768C339.286 352.898 327.348 361.754 320.084 368.512H10.324C10.2243 368.512 10.1286 368.551 10.0581 368.622C9.98761 368.692 9.948 368.788 9.948 368.888C9.948 368.987 9.98761 369.083 10.0581 369.154C10.1286 369.224 10.2243 369.264 10.324 369.264C406.886 369.264 389.946 369.464 389.946 368.888C389.943 368.79 389.902 368.697 389.832 368.63C389.762 368.562 389.668 368.524 389.57 368.524ZM263.116 144.682C264.526 142.964 265.617 141.009 266.338 138.908C266.362 138.838 266.365 138.764 266.346 138.692C266.328 138.621 266.29 138.557 266.236 138.508C266.102 138.384 265.998 138.368 265.76 138.466C265.324 138.644 264.438 139.196 262.094 140.146C259.936 141.022 255.58 142.546 254.982 140.304C254.182 137.304 256.182 131.15 261.86 118.504C262.88 119.441 263.97 120.3 265.12 121.072C264.464 122.814 263.44 126.292 265.232 126.77C265.611 126.809 265.993 126.754 266.345 126.609C266.697 126.463 267.007 126.233 267.248 125.938C269.896 123.322 272.364 126.37 268.592 130.118C267.68 131.03 267.392 131.02 267.426 131.366C268.133 138.636 270.135 145.722 273.336 152.288C269.551 150.304 265.44 149.015 261.2 148.482C262.6 147.638 262.4 146.282 263.116 144.682ZM243.222 108.586C239.652 117.191 236.842 126.091 234.822 135.186C234.792 135.328 234.662 135.366 235.152 135.626C236.378 136.274 241.474 138.308 261.656 146.782C261.392 147.494 260.986 147.942 259.76 148.236C259.318 148.164 258.792 148.076 258.472 147.994C248.387 145.754 238.605 142.321 229.332 137.768C232.315 127.469 235.944 117.369 240.2 107.528L243.222 108.586ZM224.914 91.4216C228.434 81.7116 228.268 82.9576 229.514 79.8456C230.356 77.7196 233.914 78.9796 233.072 81.7336C233.048 81.8111 233.05 81.8943 233.077 81.9707C233.104 82.0471 233.155 82.1128 233.223 82.1577C233.29 82.2027 233.37 82.2247 233.451 82.2204C233.532 82.216 233.61 82.1856 233.672 82.1336C233.738 82.0884 233.787 82.0232 233.812 81.9476C233.972 81.4676 234.118 81.0796 234.276 80.7256C235.212 78.5456 238.902 79.9136 237.938 82.7636C237.896 82.8836 237.704 83.4516 237.69 83.4936C237.674 83.5403 237.667 83.5897 237.669 83.639C237.672 83.6884 237.684 83.7367 237.706 83.7813C237.727 83.8258 237.757 83.8658 237.794 83.8988C237.83 83.9318 237.873 83.9572 237.92 83.9736C237.967 83.9901 238.016 83.9971 238.065 83.9945C238.115 83.9918 238.163 83.9794 238.208 83.9581C238.252 83.9367 238.292 83.9068 238.325 83.87C238.358 83.8332 238.384 83.7903 238.4 83.7436C238.6 83.1596 238.8 82.6896 239 82.2636C240.012 80.0636 243.74 81.5336 242.69 84.4156L242.536 84.8476C242.514 84.9096 242.509 84.9763 242.52 85.041C242.532 85.1057 242.561 85.1662 242.603 85.2164C242.646 85.2666 242.701 85.3048 242.763 85.3271C242.825 85.3494 242.891 85.3551 242.956 85.3436C243.304 85.3436 243.29 85.0836 243.686 84.3096C244.716 82.2736 248.33 83.8096 247.286 86.4216C247.286 86.4216 246.342 88.8216 246.024 89.5876C245.986 89.6789 245.986 89.7815 246.023 89.8729C246.061 89.9643 246.133 90.0372 246.224 90.0756C248.466 91.0296 248.462 91.5736 247.408 94.9256C246.158 99.3016 245.716 99.3396 243.668 99.7596C241.256 100.019 239.023 101.154 237.392 102.95C232.69 100.541 227.621 98.9277 222.392 98.1736C223.216 96.1176 224.042 93.8356 224.914 91.4296V91.4216ZM249.4 185.586L254.966 173.964C254.987 173.915 254.998 173.863 254.999 173.811C254.999 173.758 254.988 173.706 254.966 173.658C254.945 173.609 254.914 173.566 254.875 173.531C254.836 173.495 254.79 173.468 254.74 173.452C239.45 170.661 224.702 165.454 211.05 158.026C207.542 156.068 204.805 152.973 203.292 149.251C201.779 145.529 201.579 141.402 202.726 137.552C206.624 124.093 211.662 110.991 217.784 98.3876C225.748 98.8444 233.469 101.292 240.242 105.506C235.628 116.029 231.71 126.844 228.514 137.882C228.489 137.968 228.496 138.06 228.532 138.141C228.569 138.223 228.633 138.289 228.714 138.328C238.118 142.96 248.041 146.451 258.274 148.728C260.298 149.242 269.362 150.008 274.2 153.832C274.368 154.116 274.548 154.4 274.732 154.678C283.732 168.384 281.444 183.558 288.414 194.89C276.915 194.042 265.355 194.608 253.994 196.576C252.2 192.346 250.51 188.948 249.4 185.586ZM207.734 303.466C198.122 303.738 190.734 301.772 185.766 297.62L187.352 286.594L209.646 288.08C209.186 291.506 208.456 297.462 207.728 303.466H207.734ZM344.068 340.164C341.218 340.936 339.366 340.896 338.99 340.052C338.346 338.598 297.56 274.408 279.908 246.652L290.34 228.252C292.318 225.347 293.474 221.96 293.684 218.452C293.687 218.402 293.681 218.353 293.665 218.306C293.649 218.259 293.624 218.216 293.591 218.179C293.558 218.141 293.519 218.111 293.474 218.089C293.43 218.067 293.381 218.055 293.332 218.052C293.234 218.051 293.139 218.086 293.065 218.151C292.991 218.216 292.944 218.306 292.932 218.404C292.73 221.784 291.614 225.047 289.704 227.844C286.06 233.204 279.186 237.244 273.716 237.244C273.716 237.244 222.574 238.186 222.164 238.196C222.077 238.197 221.994 238.229 221.928 238.285C221.862 238.341 221.818 238.418 221.802 238.504L212.858 287.542L183.588 285.59L191.388 230.404C192.198 224.541 194.746 219.055 198.703 214.654C202.66 210.253 207.844 207.137 213.588 205.71C228.462 201.978 248.988 197.31 267.4 195.746C267.701 197.836 267.625 199.962 267.176 202.026C267.16 202.121 267.181 202.22 267.236 202.3C267.29 202.381 267.374 202.437 267.469 202.457C267.564 202.478 267.663 202.461 267.746 202.411C267.829 202.36 267.889 202.279 267.914 202.186C268.375 200.049 268.456 197.847 268.152 195.682C275.098 195.026 282.091 195.035 289.036 195.71C290.362 196.63 308.874 209.836 310.934 230.862C310.97 231.062 308.286 226.462 367.83 326.82C367.854 326.944 367.83 327.744 364.536 330.11C360.472 332.889 356.168 335.298 351.674 337.31L348.182 331.848C348.125 331.772 348.042 331.72 347.949 331.703C347.856 331.686 347.76 331.704 347.68 331.755C347.6 331.805 347.542 331.884 347.518 331.975C347.493 332.067 347.504 332.164 347.548 332.248L350.98 337.614C348.74 338.632 346.427 339.485 344.062 340.164H344.068ZM350.294 349.67L344.75 340.754C351.79 338.418 358.476 335.124 364.618 330.966L374.632 349.766C366.659 351.943 358.244 351.91 350.288 349.67H350.294Z" fill="#0a48b3"/>
</svg>
