<svg width="400" height="400" viewBox="0 0 400 400" fill="none" xmlns="http://www.w3.org/2000/svg">
<path d="M236.534 282.95C235.274 289.08 231.474 314.996 230.024 323.032L178.024 315.916L183.116 271.89C183.128 271.791 183.099 271.691 183.037 271.613C182.976 271.534 182.885 271.484 182.786 271.472C182.687 271.46 182.587 271.489 182.509 271.55C182.43 271.612 182.38 271.703 182.368 271.802L177.278 315.814L174.06 315.374C174.011 315.367 173.961 315.37 173.913 315.383C173.865 315.396 173.821 315.417 173.781 315.447C173.742 315.477 173.709 315.515 173.684 315.557C173.659 315.6 173.643 315.647 173.636 315.696C173.629 315.745 173.632 315.795 173.645 315.843C173.657 315.891 173.679 315.935 173.709 315.975C173.739 316.014 173.776 316.047 173.819 316.072C173.862 316.097 173.909 316.113 173.958 316.12C234.112 324.246 230.446 324.082 230.678 323.578C230.928 322.706 236.478 286.918 237.266 283.102C237.275 283.01 237.249 282.918 237.194 282.843C237.139 282.768 237.059 282.716 236.968 282.698C236.877 282.679 236.783 282.694 236.703 282.741C236.623 282.787 236.562 282.862 236.534 282.95Z" fill="white"/>
<path d="M225.328 367.704C225.328 366.211 224.894 364.75 224.077 363.5C223.26 362.25 222.096 361.265 220.728 360.666C222.522 360.334 224.14 359.375 225.293 357.96C226.445 356.544 227.056 354.766 227.018 352.941C226.979 351.117 226.293 349.365 225.081 348C223.87 346.635 222.213 345.745 220.406 345.49C220.206 345.29 224.406 345.96 130.24 333.076C128.376 332.674 126.428 332.98 124.777 333.934C123.126 334.889 121.889 336.424 121.307 338.24C120.725 340.057 120.84 342.024 121.629 343.761C122.418 345.497 123.825 346.878 125.576 347.634C123.95 347.927 122.462 348.736 121.332 349.94C120.202 351.145 119.491 352.682 119.303 354.323C119.115 355.964 119.46 357.622 120.288 359.051C121.116 360.48 122.383 361.605 123.9 362.258C122.081 362.596 120.446 363.579 119.295 365.027C118.144 366.475 117.555 368.29 117.636 370.138C117.717 371.986 118.464 373.743 119.737 375.084C121.011 376.425 122.727 377.261 124.568 377.438L215.326 389.958C216.38 390.065 217.444 389.948 218.45 389.617C219.455 389.285 220.38 388.746 221.164 388.034C222.124 387.173 222.853 386.085 223.282 384.869C223.712 383.653 223.828 382.348 223.621 381.075C223.413 379.802 222.889 378.602 222.096 377.585C221.302 376.568 220.266 375.767 219.082 375.256C220.838 374.919 222.422 373.98 223.562 372.602C224.702 371.224 225.326 369.492 225.328 367.704Z" fill="white"/>
<path d="M283.658 178.314C283.594 178.311 283.532 178.292 283.476 178.26C283.421 178.228 283.374 178.183 283.34 178.129C283.306 178.075 283.285 178.013 283.279 177.949C283.274 177.886 283.284 177.821 283.308 177.762C283.329 177.715 283.36 177.674 283.398 177.64C283.437 177.606 283.482 177.581 283.531 177.565C283.58 177.55 283.631 177.546 283.682 177.552C283.733 177.558 283.782 177.575 283.826 177.602C283.901 177.64 283.962 177.702 283.998 177.779C284.034 177.856 284.043 177.942 284.023 178.024C284.004 178.107 283.957 178.18 283.891 178.233C283.825 178.285 283.742 178.314 283.658 178.314Z" fill="white"/>
<path d="M159.34 313.176L125.286 308.698C125.486 303.098 127.836 278.514 127.912 273.964C127.913 273.915 127.904 273.865 127.886 273.819C127.868 273.773 127.841 273.731 127.807 273.696C127.772 273.66 127.731 273.632 127.686 273.612C127.64 273.593 127.591 273.583 127.542 273.582C127.443 273.583 127.348 273.622 127.277 273.691C127.206 273.76 127.164 273.853 127.16 273.952C127.076 278.872 124.252 308.07 124.542 309.152C124.557 309.198 124.582 309.241 124.614 309.278C124.79 309.468 159.492 313.958 159.292 313.932C159.392 313.938 159.491 313.905 159.566 313.838C159.642 313.772 159.688 313.678 159.694 313.578C159.7 313.478 159.667 313.379 159.6 313.304C159.534 313.228 159.44 313.182 159.34 313.176Z" fill="white"/>
<path d="M207.56 44.1342C155.886 37.0622 108.532 72.0122 102.914 123.564C101.822 133.588 102.388 143.724 104.59 153.564C104.81 154.564 115.248 184.58 120.116 201.976C120.146 202.068 120.21 202.145 120.296 202.19C120.381 202.236 120.48 202.247 120.573 202.221C120.666 202.195 120.746 202.135 120.796 202.052C120.845 201.969 120.861 201.87 120.84 201.776C117.054 188.244 105.44 153.472 105.296 153.27C91.4419 90.8422 143.78 36.1662 207.456 44.8702C271.182 53.5902 310.102 121.018 283.376 177.642C283.35 177.665 283.328 177.691 283.31 177.72C266.544 205.32 256.422 221.992 249.51 238.218C249.473 238.31 249.474 238.412 249.511 238.503C249.549 238.594 249.621 238.666 249.712 238.705C249.802 238.743 249.904 238.745 249.996 238.709C250.088 238.673 250.162 238.602 250.202 238.512C257.078 222.36 267.17 205.736 283.876 178.228C283.925 178.194 283.964 178.147 283.99 178.092C311.058 121 271.838 52.9302 207.56 44.1342Z" fill="white"/>
<path d="M189.292 119.082L166.93 116.022C163.652 115.5 160.298 115.738 157.127 116.716C153.955 117.695 151.05 119.388 148.636 121.665C146.222 123.943 144.362 126.744 143.201 129.854C142.04 132.963 141.608 136.297 141.938 139.6C141.948 139.7 141.997 139.791 142.075 139.854C142.152 139.917 142.251 139.947 142.351 139.937C142.45 139.927 142.542 139.878 142.605 139.8C142.668 139.723 142.698 139.624 142.688 139.524C142.37 136.335 142.788 133.116 143.91 130.114C145.032 127.112 146.829 124.408 149.16 122.21C151.492 120.011 154.297 118.378 157.36 117.434C160.423 116.491 163.661 116.263 166.826 116.768L189.242 119.832C189.335 119.828 189.424 119.79 189.49 119.725C189.557 119.66 189.598 119.573 189.604 119.48C189.61 119.387 189.582 119.294 189.524 119.221C189.466 119.148 189.384 119.098 189.292 119.082Z" fill="white"/>
<path d="M296.058 178.112C263.584 171.446 241.226 168.932 212.354 169.06L209.688 178.242C203.654 173.8 215.542 149.268 221.462 139.554C238.832 140.684 281.192 144.554 298.35 151.33C300.336 160.282 299.537 169.628 296.058 178.112Z" fill="#B2BEC3"/>
<path d="M213.844 139.112C207.89 148.002 203.155 157.651 199.766 167.8L173.874 167.228C172.902 159.308 174.178 145.828 174.95 138.512L184.602 138.748C185.824 138.811 187.044 138.574 188.154 138.058C189.246 137.52 190.203 136.743 190.954 135.784L190.972 135.762H201.134C201.122 137.672 202.266 138.762 205.346 138.814C207.8 138.86 210.662 138.96 213.844 139.112Z" fill="#B2BEC3"/>
<path d="M164.894 168.874C143.606 168.612 122.28 168.146 98.6679 172.102C94.8832 163.947 94.213 154.689 96.7839 146.074C119.808 141.585 143.172 139.07 166.624 138.556C165.094 148.585 164.514 158.736 164.894 168.874V168.874Z" fill="#B2BEC3"/>
<path d="M99.2399 286.186L74.9859 247.328L86.2639 249.962C86.3595 249.981 86.4584 249.961 86.54 249.908C86.6217 249.855 86.6796 249.773 86.7016 249.678C86.7236 249.583 86.708 249.484 86.6581 249.4C86.6082 249.316 86.5278 249.256 86.4339 249.23L74.2699 246.388C74.2218 246.376 74.172 246.375 74.1231 246.382C74.0743 246.39 74.0275 246.408 73.9855 246.434C73.9435 246.46 73.907 246.494 73.8782 246.534C73.8495 246.574 73.829 246.62 73.8179 246.668L70.9759 258.832C70.9546 258.929 70.9721 259.03 71.0247 259.113C71.0773 259.197 71.1608 259.257 71.257 259.279C71.3533 259.302 71.4546 259.286 71.539 259.234C71.6234 259.183 71.6841 259.1 71.7079 259.004L74.3439 247.72L98.5999 286.584C98.6527 286.669 98.737 286.729 98.8344 286.752C98.9317 286.775 99.0341 286.758 99.1189 286.705C99.2038 286.652 99.2642 286.568 99.2869 286.471C99.3096 286.373 99.2927 286.271 99.2399 286.186Z" fill="white"/>
<path d="M351.85 148.864C350.567 148.864 349.312 148.484 348.245 147.771C347.178 147.058 346.347 146.045 345.856 144.859C345.365 143.674 345.236 142.369 345.487 141.11C345.737 139.852 346.355 138.696 347.262 137.788C348.17 136.881 349.326 136.263 350.584 136.013C351.843 135.763 353.147 135.891 354.333 136.382C355.518 136.873 356.532 137.705 357.245 138.772C357.957 139.839 358.338 141.093 358.338 142.376C358.336 144.096 357.652 145.746 356.436 146.962C355.219 148.179 353.57 148.863 351.85 148.864ZM351.85 136.642C350.715 136.642 349.606 136.979 348.663 137.609C347.72 138.239 346.984 139.135 346.55 140.184C346.116 141.232 346.003 142.385 346.224 143.498C346.446 144.611 346.992 145.633 347.795 146.435C348.597 147.237 349.619 147.783 350.732 148.004C351.845 148.225 352.998 148.111 354.046 147.677C355.094 147.243 355.99 146.507 356.62 145.563C357.25 144.62 357.586 143.511 357.586 142.376C357.584 140.856 356.979 139.398 355.904 138.323C354.829 137.248 353.371 136.643 351.85 136.642Z" fill="white"/>
<path d="M258.528 365.844C257.658 365.844 256.807 365.586 256.083 365.103C255.36 364.619 254.796 363.932 254.463 363.128C254.13 362.324 254.043 361.439 254.212 360.586C254.382 359.732 254.801 358.948 255.417 358.333C256.032 357.718 256.816 357.299 257.67 357.129C258.523 356.959 259.408 357.046 260.212 357.379C261.016 357.712 261.703 358.276 262.186 359C262.67 359.723 262.928 360.574 262.928 361.444C262.928 362.611 262.464 363.73 261.639 364.555C260.814 365.381 259.695 365.844 258.528 365.844ZM258.528 357.804C257.807 357.804 257.102 358.017 256.503 358.417C255.903 358.818 255.436 359.386 255.16 360.052C254.884 360.718 254.811 361.451 254.952 362.158C255.092 362.865 255.439 363.514 255.949 364.024C256.458 364.534 257.107 364.881 257.814 365.022C258.521 365.163 259.254 365.091 259.92 364.815C260.586 364.539 261.155 364.072 261.556 363.473C261.956 362.874 262.17 362.169 262.17 361.448C262.17 360.482 261.786 359.555 261.104 358.871C260.421 358.187 259.494 357.802 258.528 357.8V357.804Z" fill="white"/>
<path d="M107.178 73.8001C106.978 73.8001 107.764 74.2121 93.378 65.7401C93.292 65.6895 93.2298 65.6068 93.2048 65.5102C93.1799 65.4136 93.1943 65.3111 93.245 65.2251C93.2956 65.1392 93.3783 65.0769 93.4749 65.052C93.5715 65.027 93.674 65.0415 93.76 65.0921L107.36 73.0921C107.433 73.1329 107.49 73.1965 107.523 73.2733C107.556 73.35 107.563 73.4354 107.542 73.5163C107.521 73.5971 107.474 73.6688 107.408 73.7201C107.342 73.7715 107.261 73.7996 107.178 73.8001Z" fill="white"/>
<path d="M167.974 25.4141L163.264 10.4901C163.234 10.3949 163.243 10.2917 163.289 10.2031C163.335 10.1146 163.415 10.0481 163.51 10.0181C163.605 9.98813 163.708 9.99721 163.797 10.0433C163.885 10.0895 163.952 10.1689 163.982 10.2641L168.692 25.1881C168.722 25.2833 168.713 25.3865 168.667 25.475C168.621 25.5636 168.541 25.6301 168.446 25.6601C168.351 25.6901 168.248 25.681 168.159 25.6349C168.07 25.5887 168.004 25.5093 167.974 25.4141Z" fill="white"/>
<path d="M250.216 30.47C250.151 30.4696 250.087 30.4523 250.03 30.4198C249.973 30.3873 249.926 30.3406 249.893 30.2844C249.86 30.2283 249.842 30.1644 249.84 30.0992C249.839 30.0339 249.855 29.9694 249.886 29.912L257.43 16.2C257.478 16.1125 257.559 16.0476 257.655 16.0197C257.75 15.9917 257.853 16.003 257.941 16.051C258.028 16.099 258.093 16.1798 258.121 16.2757C258.149 16.3715 258.138 16.4745 258.09 16.562C250.028 31.2 250.562 30.47 250.216 30.47Z" fill="white"/>
<path d="M308.542 85.3081C308.457 85.3069 308.375 85.2774 308.309 85.2241C308.244 85.1709 308.198 85.0971 308.179 85.0145C308.16 84.932 308.169 84.8455 308.205 84.7689C308.241 84.6923 308.302 84.63 308.378 84.5921L322.578 77.7061C322.667 77.6673 322.767 77.6645 322.858 77.6981C322.949 77.7318 323.024 77.7993 323.066 77.8867C323.109 77.974 323.116 78.0743 323.086 78.1667C323.056 78.259 322.991 78.3362 322.906 78.3821C308.34 85.4341 308.742 85.3081 308.542 85.3081Z" fill="white"/>
<path d="M48.166 113.896L49.752 99.2961C49.7626 99.1969 49.8121 99.106 49.8898 99.0434C49.9674 98.9807 50.0668 98.9515 50.166 98.9621C50.2651 98.9727 50.3561 99.0223 50.4187 99.0999C50.4813 99.1776 50.5106 99.2769 50.5 99.3761L48.914 113.976C48.9033 114.075 48.8538 114.166 48.7761 114.229C48.6985 114.291 48.5991 114.321 48.5 114.31C48.4008 114.299 48.3098 114.25 48.2472 114.172C48.1846 114.095 48.1553 113.995 48.166 113.896Z" fill="white"/>
<path d="M56.63 107.8L42 106.22C41.9508 106.215 41.9032 106.2 41.8599 106.176C41.8165 106.153 41.7782 106.121 41.7472 106.082C41.7162 106.044 41.6931 106 41.6791 105.952C41.6652 105.905 41.6607 105.855 41.666 105.806C41.6712 105.757 41.6861 105.709 41.7097 105.666C41.7334 105.623 41.7653 105.584 41.8038 105.553C41.8422 105.522 41.8864 105.499 41.9338 105.485C41.9812 105.471 42.0308 105.467 42.08 105.472L56.68 107.058C56.7679 107.077 56.846 107.128 56.9001 107.2C56.9541 107.272 56.9805 107.361 56.9745 107.451C56.9684 107.54 56.9303 107.625 56.8671 107.689C56.8039 107.753 56.7197 107.793 56.63 107.8Z" fill="white"/>
<path d="M330.17 169.94C331.248 170.192 334.486 170.906 334.924 169.894C335.154 169.368 335.58 168.386 325.308 163.396C322.343 161.987 319.306 160.737 316.208 159.65C316.204 158.595 316.557 157.569 317.208 156.738C318.678 154.956 319.16 153.7 318.636 153.004C317.026 150.872 309.806 157.49 303.622 155.684C303.574 155.684 300.932 154.952 299.356 154.536C299.186 153.438 298.972 152.336 298.716 151.244C298.702 151.185 298.674 151.13 298.634 151.084C298.594 151.038 298.544 151.003 298.488 150.98C292.97 148.986 287.294 147.46 281.52 146.42C284.826 145.046 287.821 143.018 290.324 140.458C292.827 137.898 294.787 134.859 296.086 131.522C299.418 123.58 299.408 117.772 296.056 114.264C287.376 105.182 259.352 114.398 254.084 116.24C262.164 96.7701 240.824 102.32 222.006 111.654C223.896 107.502 222.862 105.362 221.594 104.284C217.618 100.906 206.1 103.846 199.874 108.328C198.536 109.285 197.263 110.33 196.064 111.456C188.948 118.168 185.906 123.198 187.022 126.404C187.858 128.804 190.804 129.656 193.298 129.93C192.066 134.53 189.396 138.592 184.618 138.372C155.133 137.471 125.642 139.93 96.7139 145.704C96.6473 145.718 96.5855 145.749 96.5349 145.794C96.4842 145.839 96.4466 145.897 96.4259 145.962C96.0498 147.157 95.7406 148.371 95.4999 149.6C91.2479 150.466 81.8999 147.986 79.7999 146.96C78.0399 146.106 76.8939 145.982 76.3999 146.594C75.8459 147.268 76.2719 148.542 77.6659 150.394C78.303 151.244 78.5978 152.302 78.4919 153.358C75.3688 154.31 72.2979 155.426 69.2919 156.7C58.7999 161.242 59.1879 162.24 59.3999 162.776C59.7999 163.804 63.0599 163.23 64.1479 163.024C61.9479 164.092 51.1779 169.892 52.2679 171.986C53.1019 173.586 59.8539 170.768 61.5739 170.052C60.8279 170.6 60.0559 171.202 59.2559 171.87C56.6279 174.06 56.6699 174.884 56.9299 175.316C57.5619 176.35 60.3679 175.258 61.4899 174.79C62.7299 174.274 63.8899 173.79 64.9739 173.33C63.7599 174.37 60.7259 177 61.5979 178.33C62.3699 179.51 65.3059 178.384 66.5839 177.814C73.3099 174.828 89.2559 169.324 97.1839 169.33C97.5279 170.302 97.9093 171.277 98.3279 172.254C98.3603 172.33 98.4173 172.394 98.4898 172.434C98.5622 172.474 98.646 172.489 98.7279 172.476C121.528 168.658 141.916 168.97 164.554 169.25C164.79 176.876 165.958 184.445 168.032 191.788C167.006 194.437 166.255 197.185 165.792 199.988C151.332 199.203 136.832 199.612 122.44 201.21C118.691 201.611 115.099 202.927 111.978 205.042C108.858 207.158 106.304 210.007 104.543 213.34C102.782 216.673 101.867 220.388 101.878 224.158C101.89 227.928 102.827 231.637 104.608 234.96C116.429 257.182 129.517 278.706 143.808 299.426C143.843 299.475 143.889 299.516 143.942 299.544C143.996 299.571 144.056 299.586 144.116 299.586C146.6 299.341 149.061 298.901 151.476 298.268C153.538 302.995 154.975 307.97 155.75 313.068C157.846 325.091 161.23 336.854 165.844 348.152C165.874 348.218 165.922 348.274 165.983 348.314C166.043 348.353 166.114 348.374 166.187 348.374C166.259 348.374 166.33 348.353 166.391 348.314C166.452 348.274 166.5 348.218 166.53 348.152C174.884 329.352 176.13 313.178 178.866 302.096C178.882 302.03 178.882 301.962 178.866 301.896C176.656 297.723 174.127 293.728 171.302 289.944L169.24 287.174C170.938 285.113 172.413 282.878 173.64 280.506C173.673 280.443 173.687 280.372 173.682 280.301C173.676 280.231 173.65 280.163 173.608 280.106C163.446 265.76 154.252 250.753 146.086 235.184C152.705 237.639 159.544 239.453 166.51 240.6C170.583 257.863 180.625 273.132 194.862 283.71C198.798 286.691 203.391 288.682 208.257 289.517C213.123 290.353 218.118 290.007 222.822 288.51C245.534 281.244 266.871 270.23 285.95 255.926C286.004 255.885 286.046 255.831 286.071 255.768C286.096 255.705 286.104 255.637 286.094 255.57C285.766 253.349 285.298 251.151 284.694 248.988C289.795 246.542 295.253 244.927 300.864 244.204C312.899 242.231 324.686 238.967 336.022 234.47C336.045 234.46 336.067 234.447 336.088 234.432L336.14 234.388C336.158 234.37 336.174 234.349 336.188 234.328L336.216 234.276L336.24 234.202V234.128V234.092C336.234 234.026 336.211 233.963 336.173 233.909C336.136 233.855 336.084 233.812 336.024 233.784C317.46 225.308 301.456 223.85 290.376 221.056C289.922 220.94 289.996 220.936 289.62 221.112C284.194 224 279.027 227.35 274.176 231.124C272.46 229.457 270.623 227.92 268.68 226.524C268.619 226.48 268.546 226.456 268.471 226.454C268.396 226.452 268.321 226.472 268.258 226.512C252.358 236.604 233.788 248.722 215.712 253.488C211.268 250.136 206.548 242.488 203.752 236.208C206.502 234.787 208.917 232.793 210.832 230.361C212.748 227.929 214.121 225.115 214.858 222.108C218.036 208.428 207.574 192.544 206.408 190.832L212.626 169.432C241.08 169.338 262.89 171.932 295.98 178.48C296.051 178.493 296.125 178.486 296.192 178.458C296.259 178.43 296.317 178.384 296.358 178.324C296.522 178.068 297.358 175.524 297.558 174.924C305.868 175.724 319.948 181.056 327.104 184.608C328.374 185.238 331.242 186.478 332.066 185.336C332.992 184.048 330.066 181.288 328.906 180.2C331.079 181.474 333.442 182.39 335.906 182.914C336.086 182.935 336.268 182.91 336.435 182.843C336.603 182.775 336.751 182.666 336.866 182.526C337.144 182.108 337.222 181.284 334.688 178.984C333.918 178.284 333.172 177.65 332.45 177.07C334.082 177.832 340.764 180.966 341.666 179.398C342.836 177.354 332.362 171.126 330.17 169.94ZM187.732 126.156C186.084 121.418 196.498 111.538 200.31 108.942C203.328 106.886 205.684 106.462 207.11 107.71C209.054 109.4 208.734 113.464 207.51 116.032C206.95 117.798 208.31 117.952 210.122 117.49C213.962 116.518 213.808 122.42 207.044 122.658C206.277 122.939 205.617 123.449 205.152 124.12C203.306 128.102 200.952 132.698 200.764 135.386H191.71C192.141 134.758 192.521 134.096 192.844 133.406C194.767 132.306 196.63 131.104 198.426 129.806C198.462 129.748 198.482 129.681 198.484 129.613C198.485 129.544 198.467 129.477 198.433 129.417C198.399 129.358 198.349 129.309 198.289 129.276C198.228 129.243 198.16 129.227 198.092 129.23C196.664 129.315 195.232 129.315 193.804 129.23C191.45 129.022 188.488 128.324 187.732 126.156ZM191.132 136.138H200.756C200.908 138.138 202.406 139.138 205.324 139.19C207.588 139.232 210.218 139.322 213.15 139.456C207.411 148.149 202.819 157.548 199.49 167.418L174.21 166.86C173.21 157.908 174.998 141.414 175.284 138.882C178.484 138.91 181.582 138.992 184.584 139.124C185.837 139.193 187.087 138.957 188.229 138.437C189.371 137.917 190.37 137.128 191.14 136.138H191.132ZM65.3579 167.552C56.0199 171.896 53.1839 171.952 52.9319 171.642C52.8439 171.32 54.1179 169.522 60.8679 165.614C65.3228 163.107 70.0312 161.078 74.9139 159.564C73.7578 161.052 72.7597 162.657 71.9359 164.352C69.6811 165.286 67.4845 166.355 65.3579 167.552ZM61.1999 174.096C58.5379 175.204 57.6639 175.032 57.5759 174.926C57.5759 174.926 57.4499 174.354 59.7399 172.448C63.243 169.475 67.2051 167.09 71.4719 165.386C70.8803 166.756 70.4229 168.18 70.1059 169.638C69.0639 170.324 68.1899 170.894 67.3859 171.46C65.6759 172.226 63.5699 173.108 61.1999 174.096ZM66.2799 177.122C63.8379 178.208 62.4399 178.24 62.2259 177.912C62.2079 177.886 61.8259 177.222 64.5079 174.748C66.1798 173.226 67.9873 171.859 69.9079 170.666C69.7803 171.393 69.7134 172.129 69.7079 172.866C69.71 172.964 69.7505 173.058 69.8208 173.127C69.8911 173.196 69.9856 173.234 70.0839 173.234C70.1845 173.232 70.2802 173.19 70.3504 173.118C70.4207 173.045 70.4599 172.949 70.4599 172.848C70.3579 165.806 76.2739 159.156 76.3599 158.956C76.3984 158.893 76.4176 158.821 76.4151 158.747C76.4127 158.673 76.3886 158.602 76.346 158.542C76.3034 158.482 76.2441 158.436 76.1755 158.409C76.1068 158.383 76.0319 158.377 75.9599 158.392C75.7599 158.444 70.8639 160.114 68.1599 161.222C64.7979 162.362 60.5399 162.93 60.1039 162.536C60.1299 162.35 60.7039 161.224 69.5799 157.374C72.5037 156.135 75.4897 155.048 78.5259 154.118C78.5788 154.695 78.701 155.263 78.8899 155.81C80.2579 159.81 83.0579 162.152 87.2679 161.368C87.3605 161.345 87.4408 161.287 87.4924 161.207C87.544 161.126 87.5631 161.029 87.5458 160.935C87.5285 160.841 87.4761 160.758 87.3992 160.701C87.3223 160.644 87.2268 160.619 87.1319 160.63C82.6319 161.466 80.5519 158.338 79.6019 155.566C78.7779 153.166 79.8319 152.008 78.2559 149.924C76.8779 148.102 76.8119 147.256 76.9699 147.064C77.1279 146.872 77.7979 146.818 79.4699 147.628C81.6539 148.692 90.7639 151.132 95.3539 150.384C94.3451 156.479 94.8828 162.729 96.9179 168.562C88.6339 168.662 72.4519 174.38 66.2739 177.122H66.2799ZM98.9039 171.682C95.2929 163.744 94.6472 154.775 97.0839 146.402C119.869 141.978 142.986 139.48 166.19 138.934C164.752 148.718 164.197 158.611 164.53 168.494C142.076 168.21 121.696 167.896 98.8979 171.682H98.9039ZM215.4 254.2C219.33 257.642 220.584 258.762 221.032 259.124C221.358 259.388 221.406 259.324 221.716 259.09C222.568 258.428 225.774 255.734 238.594 245.09C248.436 239.994 258.486 233.606 268.446 227.29C273.091 230.524 276.996 234.708 279.903 239.564C282.81 244.42 284.653 249.838 285.31 255.46C266.348 269.645 245.154 280.571 222.6 287.788C218.011 289.25 213.138 289.587 208.391 288.773C203.645 287.959 199.163 286.016 195.324 283.108C183.2 274.114 174.108 261.634 169.264 247.336C179.961 245.439 190.393 242.27 200.338 237.896C201.286 237.51 202.211 237.071 203.11 236.58C205.97 243 210.83 250.828 215.4 254.2ZM214.128 221.946C213.385 224.935 211.998 227.725 210.063 230.122C208.128 232.518 205.693 234.462 202.928 235.818L198.696 237.782C188.812 241.692 177.374 241.582 166.874 239.898C159.588 238.723 152.443 236.801 145.55 234.164C143.496 230.35 141.86 226.72 141.842 226.682C141.801 226.591 141.725 226.52 141.632 226.485C141.538 226.45 141.435 226.453 141.344 226.494C141.253 226.535 141.182 226.611 141.147 226.704C141.112 226.798 141.115 226.901 141.156 226.992C144.72 235.456 161.19 264.592 172.856 280.354C166.918 291.598 157.198 297.416 144.304 298.806C130.079 278.168 117.046 256.733 105.27 234.606C103.547 231.392 102.641 227.804 102.63 224.158C102.619 220.511 103.504 216.918 105.208 213.694C106.911 210.47 109.381 207.714 112.399 205.668C115.417 203.622 118.892 202.348 122.518 201.96C136.997 200.314 151.59 199.912 166.138 200.76C171.008 201.041 175.86 201.584 180.672 202.386C181.366 202.41 181.212 201.714 180.834 201.652C176.102 200.874 171.334 200.334 166.548 200.034C166.988 197.299 167.726 194.621 168.748 192.046C168.78 192 168.8 191.947 168.809 191.892C168.817 191.836 168.813 191.78 168.796 191.726C162.266 170.292 166.436 142.126 166.944 138.926C169.516 138.881 172.043 138.866 174.524 138.882C174.204 141.714 172.414 158.42 173.498 167.282V167.32C173.511 167.377 173.538 167.43 173.576 167.474C173.614 167.519 173.662 167.554 173.716 167.576C173.894 167.636 199.716 168.188 199.828 168.176C200.688 167.912 203.428 155.136 214.028 139.506C216.18 139.612 218.452 139.74 220.818 139.89C216.482 147.182 202.992 173.018 209.248 178.384L205.638 190.804L205.626 190.862C205.617 190.935 205.629 191.01 205.662 191.076L205.692 191.128C205.818 191.286 217.4 207.86 214.136 221.942L214.128 221.946ZM212.344 168.688C211.892 168.734 212.092 168.59 209.486 177.564C205.022 172.656 215.166 150.664 221.658 139.948C239.996 141.148 281.174 145.058 298.02 151.612C299.904 160.328 299.137 169.407 295.82 177.684C262.786 170.912 240.916 168.554 212.352 168.684L212.344 168.688ZM331.448 184.902C331.22 185.218 329.824 185.128 327.432 183.94C320.09 180.298 306.252 175.078 297.776 174.198C299.663 168.105 300.238 161.682 299.464 155.35C305.306 156.904 306.264 157.972 315.504 153.918C317.206 153.172 317.892 153.284 318.026 153.46C318.16 153.636 318.074 154.5 316.626 156.26C314.994 158.238 315.988 159.712 314.626 162.342C313.106 165.264 310.226 168.502 305.098 167.342C305.05 167.331 305 167.33 304.951 167.338C304.902 167.347 304.856 167.365 304.814 167.391C304.772 167.417 304.736 167.452 304.708 167.492C304.679 167.532 304.659 167.578 304.648 167.626C304.637 167.674 304.636 167.724 304.644 167.773C304.652 167.822 304.67 167.868 304.697 167.91C304.723 167.952 304.757 167.988 304.798 168.016C304.838 168.045 304.884 168.065 304.932 168.076C309.542 169.12 313.11 166.876 315.292 162.69C315.673 161.975 315.943 161.206 316.092 160.41C319.117 161.475 322.083 162.698 324.98 164.074C333.672 168.296 334.21 169.448 334.252 169.572C333.774 170.01 329.544 169.26 326.234 167.972C323.758 166.834 318.76 164.872 318.554 164.812C318.486 164.796 318.415 164.799 318.348 164.821C318.282 164.843 318.223 164.883 318.178 164.936C318.133 164.99 318.104 165.055 318.094 165.124C318.084 165.193 318.094 165.264 318.122 165.328L318.136 165.358L318.162 165.4C321.457 169.368 323.316 174.332 323.438 179.488C323.434 179.586 323.469 179.681 323.534 179.754C323.6 179.826 323.691 179.871 323.789 179.877C323.886 179.884 323.982 179.852 324.057 179.789C324.132 179.725 324.178 179.635 324.188 179.538C324.217 178.799 324.183 178.058 324.088 177.324C325.958 178.598 327.708 180.04 329.314 181.634C331.89 184.226 331.476 184.872 331.456 184.898L331.448 184.902ZM334.166 179.546C336.366 181.546 336.224 182.114 336.224 182.114C336.13 182.216 335.25 182.354 332.636 181.132C325.436 177.77 327.154 178.626 323.928 176.298C323.674 174.828 323.279 173.386 322.746 171.992C326.934 173.882 330.792 176.431 334.174 179.542L334.166 179.546ZM340.998 179.026C340.73 179.336 337.898 179.154 328.756 174.426C326.682 173.139 324.533 171.978 322.32 170.948C321.568 169.22 320.639 167.575 319.548 166.038C325.054 168.188 326.186 168.796 325.984 168.704C334.082 172.4 341.306 178.07 341 179.022L340.998 179.026Z" fill="white"/>
<path d="M198.116 173.786C173.316 173.492 174.644 173.352 174.458 173.552C174.272 173.752 174.314 172.854 175.79 189.004C175.812 189.256 175.16 188.734 184.96 195.572C185.023 195.614 185.097 195.637 185.173 195.637C185.249 195.637 185.323 195.614 185.386 195.572C195.63 188.716 195.078 189.118 195.124 188.906C198.63 173.24 198.57 174.132 198.406 173.924C198.371 173.881 198.327 173.846 198.277 173.822C198.227 173.798 198.172 173.786 198.116 173.786ZM194.424 188.6L185.18 194.8L176.522 188.76L175.148 174.2L197.64 174.54L194.424 188.6Z" fill="white"/>
<path d="M103.094 149.232C103.11 149.723 103.316 150.188 103.669 150.53C104.022 150.872 104.494 151.063 104.985 151.063C105.476 151.063 105.948 150.872 106.301 150.53C106.654 150.188 106.86 149.723 106.876 149.232C106.86 148.741 106.654 148.276 106.301 147.934C105.948 147.593 105.476 147.402 104.985 147.402C104.494 147.402 104.022 147.593 103.669 147.934C103.316 148.276 103.11 148.741 103.094 149.232Z" fill="white"/>
<path d="M129.034 162.448C129.034 162.949 129.233 163.43 129.588 163.785C129.942 164.139 130.423 164.338 130.924 164.338C131.425 164.338 131.906 164.139 132.26 163.785C132.615 163.43 132.814 162.949 132.814 162.448C132.814 161.947 132.615 161.466 132.26 161.112C131.906 160.757 131.425 160.558 130.924 160.558C130.423 160.558 129.942 160.757 129.588 161.112C129.233 161.466 129.034 161.947 129.034 162.448Z" fill="white"/>
<path d="M157.4 144.852C157.4 145.353 157.599 145.834 157.953 146.189C158.308 146.543 158.789 146.742 159.29 146.742C159.791 146.742 160.272 146.543 160.626 146.189C160.981 145.834 161.18 145.353 161.18 144.852C161.18 144.351 160.981 143.87 160.626 143.516C160.272 143.161 159.791 142.962 159.29 142.962C158.789 142.962 158.308 143.161 157.953 143.516C157.599 143.87 157.4 144.351 157.4 144.852Z" fill="white"/>
<path d="M228.356 146.742C228.356 147.243 228.555 147.724 228.91 148.078C229.264 148.433 229.745 148.632 230.246 148.632C230.747 148.632 231.228 148.433 231.582 148.078C231.937 147.724 232.136 147.243 232.136 146.742C232.136 146.241 231.937 145.76 231.582 145.406C231.228 145.051 230.747 144.852 230.246 144.852C229.745 144.852 229.264 145.051 228.91 145.406C228.555 145.76 228.356 146.241 228.356 146.742Z" fill="white"/>
<path d="M189.216 160.556C189.2 160.065 188.994 159.6 188.641 159.258C188.288 158.917 187.816 158.726 187.325 158.726C186.834 158.726 186.362 158.917 186.009 159.258C185.656 159.6 185.45 160.065 185.434 160.556C185.45 161.047 185.656 161.512 186.009 161.854C186.362 162.196 186.834 162.387 187.325 162.387C187.816 162.387 188.288 162.196 188.641 161.854C188.994 161.512 189.2 161.047 189.216 160.556Z" fill="white"/>
<path d="M256.388 165.816C256.404 166.307 256.61 166.772 256.963 167.114C257.316 167.456 257.788 167.647 258.279 167.647C258.77 167.647 259.242 167.456 259.595 167.114C259.948 166.772 260.154 166.307 260.17 165.816C260.154 165.325 259.948 164.86 259.595 164.518C259.242 164.177 258.77 163.986 258.279 163.986C257.788 163.986 257.316 164.177 256.963 164.518C256.61 164.86 256.404 165.325 256.388 165.816Z" fill="white"/>
<path d="M288.45 155.37C288.45 155.871 288.649 156.352 289.004 156.706C289.358 157.061 289.839 157.26 290.34 157.26C290.841 157.26 291.322 157.061 291.676 156.706C292.031 156.352 292.23 155.871 292.23 155.37C292.23 154.869 292.031 154.388 291.676 154.034C291.322 153.679 290.841 153.48 290.34 153.48C289.839 153.48 289.358 153.679 289.004 154.034C288.649 154.388 288.45 154.869 288.45 155.37Z" fill="white"/>
</svg>
