<svg width="400" height="401" viewBox="0 0 400 401" fill="none" xmlns="http://www.w3.org/2000/svg">
<path d="M236.534 283.632C235.274 289.762 231.474 315.678 230.024 323.714L178.024 316.598L183.116 272.572C183.128 272.472 183.099 272.373 183.037 272.294C182.976 272.216 182.885 272.165 182.786 272.154C182.687 272.142 182.587 272.17 182.509 272.232C182.43 272.294 182.38 272.384 182.368 272.484L177.278 316.496L174.06 316.056C174.011 316.049 173.961 316.052 173.913 316.064C173.865 316.077 173.821 316.099 173.781 316.129C173.742 316.159 173.709 316.196 173.684 316.239C173.659 316.281 173.643 316.329 173.636 316.378C173.629 316.427 173.632 316.476 173.645 316.524C173.657 316.572 173.679 316.617 173.709 316.656C173.739 316.696 173.776 316.729 173.819 316.754C173.862 316.779 173.909 316.795 173.958 316.802C234.112 324.928 230.446 324.764 230.678 324.26C230.928 323.388 236.478 287.6 237.266 283.784C237.275 283.691 237.249 283.599 237.194 283.524C237.139 283.45 237.059 283.398 236.968 283.379C236.877 283.36 236.783 283.376 236.703 283.422C236.623 283.469 236.562 283.543 236.534 283.632Z" fill="#1890ff"/>
<path d="M225.328 368.386C225.328 366.892 224.894 365.431 224.077 364.181C223.26 362.931 222.096 361.946 220.728 361.348C222.522 361.016 224.14 360.056 225.293 358.641C226.445 357.226 227.056 355.447 227.018 353.623C226.979 351.798 226.293 350.047 225.081 348.682C223.87 347.317 222.213 346.427 220.406 346.172C220.206 345.972 224.406 346.642 130.24 333.758C128.376 333.355 126.428 333.662 124.777 334.616C123.126 335.571 121.889 337.106 121.307 338.922C120.725 340.738 120.84 342.706 121.629 344.442C122.418 346.179 123.825 347.559 125.576 348.316C123.95 348.608 122.462 349.417 121.332 350.622C120.202 351.827 119.491 353.364 119.303 355.005C119.115 356.646 119.46 358.304 120.288 359.733C121.116 361.162 122.383 362.287 123.9 362.94C122.081 363.277 120.446 364.261 119.295 365.709C118.144 367.157 117.555 368.972 117.636 370.82C117.717 372.668 118.464 374.424 119.737 375.766C121.011 377.107 122.727 377.943 124.568 378.12L215.326 390.64C216.38 390.746 217.444 390.63 218.45 390.298C219.455 389.967 220.38 389.428 221.164 388.716C222.124 387.855 222.853 386.767 223.282 385.55C223.712 384.334 223.828 383.03 223.621 381.757C223.413 380.484 222.889 379.284 222.096 378.267C221.302 377.25 220.266 376.449 219.082 375.938C220.838 375.6 222.422 374.662 223.562 373.284C224.702 371.906 225.326 370.174 225.328 368.386Z" fill="#1890ff"/>
<path d="M283.658 178.996C283.594 178.992 283.532 178.974 283.476 178.942C283.421 178.909 283.374 178.864 283.34 178.81C283.306 178.756 283.285 178.695 283.279 178.631C283.274 178.567 283.284 178.503 283.308 178.444C283.329 178.397 283.36 178.355 283.398 178.321C283.437 178.287 283.482 178.262 283.531 178.247C283.58 178.232 283.631 178.227 283.682 178.234C283.733 178.24 283.782 178.257 283.826 178.284C283.901 178.322 283.962 178.384 283.998 178.461C284.034 178.537 284.043 178.624 284.023 178.706C284.004 178.788 283.957 178.862 283.891 178.914C283.825 178.967 283.742 178.995 283.658 178.996Z" fill="#1890ff"/>
<path d="M159.34 313.858L125.286 309.38C125.486 303.78 127.836 279.196 127.912 274.646C127.913 274.596 127.904 274.547 127.886 274.501C127.868 274.455 127.841 274.413 127.807 274.377C127.772 274.342 127.731 274.314 127.686 274.294C127.64 274.275 127.591 274.264 127.542 274.264C127.443 274.265 127.348 274.304 127.277 274.372C127.206 274.441 127.164 274.535 127.16 274.634C127.076 279.554 124.252 308.752 124.542 309.834C124.557 309.88 124.582 309.923 124.614 309.96C124.79 310.15 159.492 314.64 159.292 314.614C159.392 314.62 159.491 314.586 159.566 314.52C159.642 314.454 159.688 314.36 159.694 314.26C159.7 314.159 159.667 314.061 159.6 313.985C159.534 313.91 159.44 313.864 159.34 313.858Z" fill="#1890ff"/>
<path d="M207.56 44.8156C155.886 37.7436 108.532 72.6936 102.914 124.246C101.822 134.27 102.388 144.405 104.59 154.246C104.81 155.246 115.248 185.262 120.116 202.658C120.146 202.749 120.21 202.826 120.296 202.872C120.381 202.917 120.48 202.928 120.573 202.902C120.666 202.877 120.746 202.816 120.796 202.733C120.845 202.651 120.861 202.552 120.84 202.458C117.054 188.926 105.44 154.154 105.296 153.952C91.4419 91.5236 143.78 36.8476 207.456 45.5516C271.182 54.2716 310.102 121.7 283.376 178.324C283.35 178.346 283.328 178.373 283.31 178.402C266.544 206.002 256.422 222.674 249.51 238.9C249.473 238.991 249.474 239.093 249.511 239.184C249.549 239.275 249.621 239.348 249.712 239.386C249.802 239.425 249.904 239.426 249.996 239.39C250.088 239.354 250.162 239.283 250.202 239.194C257.078 223.042 267.17 206.418 283.876 178.91C283.925 178.875 283.964 178.828 283.99 178.774C311.058 121.682 271.838 53.6116 207.56 44.8156Z" fill="#1890ff"/>
<path d="M189.292 119.764L166.93 116.704C163.652 116.182 160.298 116.419 157.127 117.398C153.955 118.376 151.05 120.069 148.636 122.347C146.222 124.625 144.362 127.426 143.201 130.535C142.04 133.645 141.608 136.979 141.938 140.282C141.948 140.381 141.997 140.472 142.075 140.536C142.152 140.599 142.251 140.629 142.351 140.619C142.45 140.609 142.542 140.559 142.605 140.482C142.668 140.404 142.698 140.305 142.688 140.206C142.37 137.017 142.788 133.797 143.91 130.796C145.032 127.794 146.829 125.09 149.16 122.891C151.492 120.693 154.297 119.059 157.36 118.116C160.423 117.172 163.661 116.944 166.826 117.45L189.242 120.514C189.335 120.51 189.424 120.472 189.49 120.407C189.557 120.342 189.598 120.254 189.604 120.161C189.61 120.068 189.582 119.976 189.524 119.903C189.466 119.829 189.384 119.78 189.292 119.764Z" fill="#1890ff"/>
<path d="M296.058 178.794C263.584 172.128 241.226 169.614 212.354 169.742L209.688 178.924C203.654 174.482 215.542 149.95 221.462 140.236C238.832 141.366 281.192 145.236 298.35 152.012C300.337 160.964 299.537 170.309 296.058 178.794Z" fill="#FFE7EA"/>
<path d="M213.844 139.794C207.89 148.684 203.155 158.333 199.766 168.482L173.874 167.91C172.902 159.99 174.178 146.51 174.95 139.194L184.602 139.43C185.824 139.493 187.044 139.256 188.154 138.74C189.246 138.201 190.203 137.424 190.954 136.466L190.972 136.444H201.134C201.122 138.354 202.266 139.444 205.346 139.496C207.8 139.542 210.662 139.642 213.844 139.794Z" fill="#FFE7EA"/>
<path d="M164.894 169.556C143.606 169.294 122.28 168.828 98.6679 172.784C94.8832 164.629 94.213 155.371 96.7839 146.756C119.808 142.267 143.172 139.752 166.624 139.238C165.094 149.266 164.514 159.418 164.894 169.556Z" fill="#FFE7EA"/>
<path d="M99.2399 286.868L74.9859 248.01L86.2639 250.644C86.3595 250.662 86.4584 250.643 86.54 250.59C86.6217 250.537 86.6796 250.454 86.7016 250.359C86.7236 250.265 86.708 250.165 86.6581 250.082C86.6082 249.998 86.5278 249.937 86.4339 249.912L74.2699 247.07C74.2218 247.058 74.172 247.056 74.1231 247.064C74.0743 247.072 74.0275 247.089 73.9855 247.115C73.9435 247.141 73.907 247.175 73.8782 247.216C73.8495 247.256 73.829 247.301 73.8179 247.35L70.9759 259.514C70.9546 259.61 70.9721 259.711 71.0247 259.795C71.0773 259.879 71.1608 259.938 71.257 259.961C71.3533 259.983 71.4546 259.967 71.539 259.916C71.6234 259.864 71.6841 259.782 71.7079 259.686L74.3439 248.402L98.5999 287.266C98.6527 287.35 98.737 287.411 98.8344 287.434C98.9317 287.456 99.0341 287.439 99.1189 287.387C99.2038 287.334 99.2642 287.249 99.2869 287.152C99.3096 287.055 99.2927 286.952 99.2399 286.868Z" fill="#1890ff"/>
<path d="M351.85 149.546C350.567 149.546 349.312 149.165 348.245 148.452C347.178 147.739 346.347 146.726 345.856 145.54C345.365 144.355 345.236 143.05 345.487 141.792C345.737 140.533 346.355 139.377 347.262 138.47C348.17 137.563 349.326 136.945 350.584 136.694C351.843 136.444 353.147 136.572 354.333 137.063C355.518 137.555 356.532 138.386 357.245 139.453C357.957 140.52 358.338 141.774 358.338 143.058C358.336 144.778 357.652 146.427 356.436 147.644C355.219 148.86 353.57 149.544 351.85 149.546ZM351.85 137.324C350.715 137.324 349.606 137.66 348.663 138.29C347.72 138.921 346.984 139.817 346.55 140.865C346.116 141.913 346.003 143.067 346.224 144.179C346.446 145.292 346.992 146.314 347.795 147.116C348.597 147.918 349.619 148.465 350.732 148.686C351.845 148.907 352.998 148.793 354.046 148.358C355.094 147.924 355.99 147.188 356.62 146.245C357.25 145.301 357.586 144.192 357.586 143.058C357.584 141.537 356.979 140.079 355.904 139.004C354.829 137.929 353.371 137.325 351.85 137.324Z" fill="#1890ff"/>
<path d="M258.528 366.526C257.658 366.526 256.807 366.268 256.083 365.784C255.36 365.301 254.796 364.613 254.463 363.809C254.13 363.005 254.043 362.121 254.212 361.267C254.382 360.414 254.801 359.63 255.417 359.014C256.032 358.399 256.816 357.98 257.67 357.81C258.523 357.64 259.408 357.728 260.212 358.061C261.016 358.394 261.703 358.957 262.186 359.681C262.67 360.405 262.928 361.255 262.928 362.126C262.928 363.293 262.464 364.412 261.639 365.237C260.814 366.062 259.695 366.526 258.528 366.526ZM258.528 358.486C257.807 358.485 257.102 358.699 256.503 359.099C255.903 359.499 255.436 360.068 255.16 360.734C254.884 361.4 254.811 362.132 254.952 362.839C255.092 363.546 255.439 364.196 255.949 364.706C256.458 365.215 257.107 365.563 257.814 365.703C258.521 365.844 259.254 365.772 259.92 365.496C260.586 365.221 261.155 364.754 261.556 364.154C261.956 363.555 262.17 362.85 262.17 362.13C262.17 361.163 261.786 360.236 261.104 359.552C260.421 358.868 259.494 358.483 258.528 358.482V358.486Z" fill="#1890ff"/>
<path d="M107.178 74.4817C106.978 74.4817 107.764 74.8937 93.378 66.4217C93.292 66.371 93.2298 66.2883 93.2048 66.1917C93.1799 66.0951 93.1943 65.9926 93.245 65.9067C93.2956 65.8207 93.3783 65.7584 93.4749 65.7335C93.5715 65.7086 93.674 65.723 93.76 65.7737L107.36 73.7737C107.433 73.8144 107.49 73.8781 107.523 73.9548C107.556 74.0315 107.563 74.1169 107.542 74.1978C107.521 74.2786 107.474 74.3503 107.408 74.4017C107.342 74.453 107.261 74.4812 107.178 74.4817Z" fill="#1890ff"/>
<path d="M167.974 26.0956L163.264 11.1716C163.234 11.0764 163.243 10.9732 163.289 10.8847C163.335 10.7962 163.415 10.7296 163.51 10.6996C163.605 10.6696 163.708 10.6787 163.797 10.7249C163.885 10.771 163.952 10.8504 163.982 10.9456L168.692 25.8696C168.722 25.9648 168.713 26.068 168.667 26.1566C168.621 26.2451 168.541 26.3116 168.446 26.3416C168.351 26.3716 168.248 26.3625 168.159 26.3164C168.07 26.2702 168.004 26.1908 167.974 26.0956Z" fill="#1890ff"/>
<path d="M250.216 31.1517C250.151 31.1512 250.087 31.1339 250.03 31.1014C249.973 31.0689 249.926 31.0223 249.893 30.9661C249.86 30.9099 249.842 30.8461 249.84 30.7808C249.839 30.7155 249.855 30.6511 249.886 30.5937L257.43 16.8817C257.478 16.7941 257.559 16.7293 257.655 16.7013C257.75 16.6734 257.853 16.6847 257.941 16.7327C258.028 16.7807 258.093 16.8615 258.121 16.9573C258.149 17.0531 258.138 17.1561 258.09 17.2437C250.028 31.8817 250.562 31.1517 250.216 31.1517Z" fill="#1890ff"/>
<path d="M308.542 85.9896C308.457 85.9885 308.375 85.9589 308.309 85.9057C308.244 85.8524 308.198 85.7786 308.179 85.696C308.16 85.6135 308.169 85.527 308.205 85.4504C308.241 85.3738 308.302 85.3115 308.378 85.2736L322.578 78.3876C322.667 78.3489 322.767 78.346 322.858 78.3796C322.949 78.4133 323.024 78.4809 323.066 78.5682C323.109 78.6555 323.116 78.7558 323.086 78.8482C323.056 78.9405 322.991 79.0177 322.906 79.0636C308.34 86.1156 308.742 85.9896 308.542 85.9896Z" fill="#1890ff"/>
<path d="M48.166 114.578L49.752 99.9776C49.7626 99.8784 49.8121 99.7875 49.8898 99.7249C49.9674 99.6622 50.0668 99.633 50.166 99.6436C50.2651 99.6542 50.3561 99.7038 50.4187 99.7814C50.4813 99.8591 50.5106 99.9584 50.5 100.058L48.914 114.658C48.9033 114.757 48.8538 114.848 48.7761 114.91C48.6985 114.973 48.5991 115.002 48.5 114.992C48.4008 114.981 48.3098 114.931 48.2472 114.854C48.1846 114.776 48.1553 114.677 48.166 114.578Z" fill="#1890ff"/>
<path d="M56.63 108.482L42 106.902C41.9508 106.896 41.9032 106.881 41.8599 106.858C41.8165 106.834 41.7782 106.802 41.7472 106.764C41.7162 106.725 41.6931 106.681 41.6791 106.634C41.6652 106.586 41.6607 106.537 41.666 106.488C41.6712 106.439 41.6861 106.391 41.7097 106.348C41.7334 106.304 41.7653 106.266 41.8038 106.235C41.8422 106.204 41.8864 106.181 41.9338 106.167C41.9812 106.153 42.0308 106.148 42.08 106.154L56.68 107.74C56.7679 107.759 56.846 107.809 56.9001 107.881C56.9541 107.953 56.9805 108.042 56.9745 108.132C56.9684 108.222 56.9303 108.307 56.8671 108.371C56.8039 108.435 56.7197 108.474 56.63 108.482Z" fill="#1890ff"/>
<path d="M330.17 170.622C331.248 170.874 334.486 171.588 334.924 170.576C335.154 170.05 335.58 169.068 325.308 164.078C322.343 162.669 319.306 161.418 316.208 160.332C316.204 159.276 316.557 158.25 317.208 157.42C318.678 155.638 319.16 154.382 318.636 153.686C317.026 151.554 309.806 158.172 303.622 156.366C303.574 156.366 300.932 155.634 299.356 155.218C299.186 154.12 298.972 153.018 298.716 151.926C298.702 151.867 298.674 151.812 298.634 151.766C298.594 151.72 298.544 151.684 298.488 151.662C292.97 149.667 287.294 148.142 281.52 147.102C284.826 145.728 287.821 143.7 290.324 141.14C292.827 138.58 294.787 135.54 296.086 132.204C299.418 124.262 299.408 118.454 296.056 114.946C287.376 105.864 259.352 115.08 254.084 116.922C262.164 97.4517 240.824 103.002 222.006 112.336C223.896 108.184 222.862 106.044 221.594 104.966C217.618 101.588 206.1 104.528 199.874 109.01C198.536 109.966 197.263 111.011 196.064 112.138C188.948 118.85 185.906 123.88 187.022 127.086C187.858 129.486 190.804 130.338 193.298 130.612C192.066 135.212 189.396 139.274 184.618 139.054C155.133 138.152 125.642 140.612 96.7139 146.386C96.6473 146.399 96.5855 146.43 96.5349 146.476C96.4842 146.521 96.4466 146.579 96.4259 146.644C96.0498 147.838 95.7406 149.053 95.4999 150.282C91.2479 151.148 81.8999 148.668 79.7999 147.642C78.0399 146.788 76.8939 146.664 76.3999 147.276C75.8459 147.95 76.2719 149.224 77.6659 151.076C78.303 151.925 78.5978 152.983 78.4919 154.04C75.3688 154.992 72.2979 156.107 69.2919 157.382C58.7999 161.924 59.1879 162.922 59.3999 163.458C59.7999 164.486 63.0599 163.912 64.1479 163.706C61.9479 164.774 51.1779 170.574 52.2679 172.668C53.1019 174.268 59.8539 171.45 61.5739 170.734C60.8279 171.282 60.0559 171.884 59.2559 172.552C56.6279 174.742 56.6699 175.566 56.9299 175.998C57.5619 177.032 60.3679 175.94 61.4899 175.472C62.7299 174.956 63.8899 174.472 64.9739 174.012C63.7599 175.052 60.7259 177.682 61.5979 179.012C62.3699 180.192 65.3059 179.066 66.5839 178.496C73.3099 175.51 89.2559 170.006 97.1839 170.012C97.5279 170.984 97.9093 171.958 98.3279 172.936C98.3603 173.012 98.4173 173.075 98.4898 173.115C98.5622 173.156 98.646 173.17 98.7279 173.158C121.528 169.34 141.916 169.652 164.554 169.932C164.79 177.558 165.958 185.127 168.032 192.47C167.006 195.119 166.255 197.867 165.792 200.67C151.332 199.884 136.832 200.293 122.44 201.892C118.691 202.293 115.099 203.609 111.978 205.724C108.858 207.839 106.304 210.688 104.543 214.022C102.782 217.355 101.867 221.07 101.878 224.84C101.89 228.61 102.827 232.319 104.608 235.642C116.429 257.864 129.517 279.388 143.808 300.108C143.843 300.157 143.889 300.197 143.942 300.225C143.996 300.253 144.056 300.268 144.116 300.268C146.6 300.023 149.061 299.582 151.476 298.95C153.538 303.676 154.975 308.652 155.75 313.75C157.846 325.773 161.23 337.535 165.844 348.834C165.874 348.9 165.922 348.956 165.983 348.995C166.043 349.035 166.114 349.056 166.187 349.056C166.259 349.056 166.33 349.035 166.391 348.995C166.452 348.956 166.5 348.9 166.53 348.834C174.884 330.034 176.13 313.86 178.866 302.778C178.882 302.712 178.882 302.643 178.866 302.578C176.656 298.405 174.127 294.409 171.302 290.626L169.24 287.856C170.938 285.795 172.413 283.559 173.64 281.188C173.673 281.125 173.687 281.054 173.682 280.983C173.676 280.912 173.65 280.844 173.608 280.788C163.446 266.442 154.252 251.435 146.086 235.866C152.705 238.321 159.544 240.135 166.51 241.282C170.583 258.545 180.625 273.813 194.862 284.392C198.798 287.372 203.391 289.364 208.257 290.199C213.123 291.034 218.118 290.689 222.822 289.192C245.534 281.925 266.871 270.912 285.95 256.608C286.004 256.567 286.046 256.512 286.071 256.45C286.096 256.387 286.104 256.318 286.094 256.252C285.766 254.03 285.298 251.832 284.694 249.67C289.795 247.223 295.253 245.608 300.864 244.886C312.899 242.912 324.686 239.649 336.022 235.152C336.045 235.141 336.067 235.129 336.088 235.114L336.14 235.07C336.158 235.051 336.174 235.031 336.188 235.01L336.216 234.958L336.24 234.884V234.81V234.774C336.234 234.708 336.211 234.645 336.173 234.591C336.136 234.536 336.084 234.493 336.024 234.466C317.46 225.99 301.456 224.532 290.376 221.738C289.922 221.622 289.996 221.618 289.62 221.794C284.194 224.682 279.027 228.031 274.176 231.806C272.46 230.139 270.623 228.601 268.68 227.206C268.619 227.162 268.546 227.137 268.471 227.135C268.396 227.133 268.321 227.153 268.258 227.194C252.358 237.286 233.788 249.404 215.712 254.17C211.268 250.818 206.548 243.17 203.752 236.89C206.502 235.469 208.917 233.475 210.832 231.043C212.748 228.611 214.121 225.797 214.858 222.79C218.036 209.11 207.574 193.226 206.408 191.514L212.626 170.114C241.08 170.02 262.89 172.614 295.98 179.162C296.051 179.175 296.125 179.167 296.192 179.14C296.259 179.112 296.317 179.065 296.358 179.006C296.522 178.75 297.358 176.206 297.558 175.606C305.868 176.406 319.948 181.738 327.104 185.29C328.374 185.92 331.242 187.16 332.066 186.018C332.992 184.73 330.066 181.97 328.906 180.882C331.079 182.155 333.442 183.072 335.906 183.596C336.086 183.617 336.268 183.592 336.435 183.524C336.603 183.456 336.751 183.348 336.866 183.208C337.144 182.79 337.222 181.966 334.688 179.666C333.918 178.966 333.172 178.332 332.45 177.752C334.082 178.514 340.764 181.648 341.666 180.08C342.836 178.036 332.362 171.808 330.17 170.622ZM187.732 126.838C186.084 122.1 196.498 112.22 200.31 109.624C203.328 107.568 205.684 107.144 207.11 108.392C209.054 110.082 208.734 114.146 207.51 116.714C206.95 118.48 208.31 118.634 210.122 118.172C213.962 117.2 213.808 123.102 207.044 123.34C206.277 123.62 205.617 124.131 205.152 124.802C203.306 128.784 200.952 133.38 200.764 136.068H191.71C192.141 135.44 192.521 134.778 192.844 134.088C194.767 132.988 196.63 131.786 198.426 130.488C198.462 130.43 198.482 130.363 198.484 130.294C198.485 130.226 198.467 130.158 198.433 130.099C198.399 130.039 198.349 129.991 198.289 129.958C198.228 129.925 198.16 129.909 198.092 129.912C196.664 129.997 195.232 129.997 193.804 129.912C191.45 129.704 188.488 129.006 187.732 126.838ZM191.132 136.82H200.756C200.908 138.82 202.406 139.82 205.324 139.872C207.588 139.914 210.218 140.004 213.15 140.138C207.411 148.831 202.819 158.229 199.49 168.1L174.21 167.542C173.21 158.59 174.998 142.096 175.284 139.564C178.484 139.592 181.582 139.674 184.584 139.806C185.837 139.875 187.087 139.639 188.229 139.119C189.371 138.599 190.37 137.81 191.14 136.82H191.132ZM65.3579 168.234C56.0199 172.578 53.1839 172.634 52.9319 172.324C52.8439 172.002 54.1179 170.204 60.8679 166.296C65.3228 163.788 70.0312 161.76 74.9139 160.246C73.7578 161.734 72.7597 163.339 71.9359 165.034C69.6811 165.968 67.4845 167.036 65.3579 168.234ZM61.1999 174.778C58.5379 175.886 57.6639 175.714 57.5759 175.608C57.5759 175.608 57.4499 175.036 59.7399 173.13C63.243 170.157 67.2051 167.772 71.4719 166.068C70.8803 167.438 70.4229 168.862 70.1059 170.32C69.0639 171.006 68.1899 171.576 67.3859 172.142C65.6759 172.908 63.5699 173.79 61.1999 174.778ZM66.2799 177.804C63.8379 178.89 62.4399 178.922 62.2259 178.594C62.2079 178.568 61.8259 177.904 64.5079 175.43C66.1798 173.907 67.9873 172.541 69.9079 171.348C69.7803 172.074 69.7134 172.81 69.7079 173.548C69.71 173.646 69.7505 173.74 69.8208 173.808C69.8911 173.877 69.9856 173.916 70.0839 173.916C70.1845 173.913 70.2802 173.871 70.3504 173.799C70.4207 173.727 70.4599 173.63 70.4599 173.53C70.3579 166.488 76.2739 159.838 76.3599 159.638C76.3984 159.575 76.4176 159.502 76.4151 159.429C76.4127 159.355 76.3886 159.284 76.346 159.224C76.3034 159.164 76.2441 159.117 76.1755 159.091C76.1068 159.064 76.0319 159.058 75.9599 159.074C75.7599 159.126 70.8639 160.796 68.1599 161.904C64.7979 163.044 60.5399 163.612 60.1039 163.218C60.1299 163.032 60.7039 161.906 69.5799 158.056C72.5037 156.816 75.4897 155.73 78.5259 154.8C78.5788 155.376 78.701 155.944 78.8899 156.492C80.2579 160.492 83.0579 162.834 87.2679 162.05C87.3605 162.026 87.4408 161.969 87.4924 161.888C87.544 161.808 87.5631 161.711 87.5458 161.617C87.5285 161.523 87.4761 161.439 87.3992 161.382C87.3223 161.326 87.2268 161.3 87.1319 161.312C82.6319 162.148 80.5519 159.02 79.6019 156.248C78.7779 153.848 79.8319 152.69 78.2559 150.606C76.8779 148.784 76.8119 147.938 76.9699 147.746C77.1279 147.554 77.7979 147.5 79.4699 148.31C81.6539 149.374 90.7639 151.814 95.3539 151.066C94.3451 157.16 94.8828 163.411 96.9179 169.244C88.6339 169.344 72.4519 175.062 66.2739 177.804H66.2799ZM98.9039 172.364C95.2929 164.426 94.6472 155.457 97.0839 147.084C119.869 142.659 142.986 140.161 166.19 139.616C164.752 149.399 164.197 159.292 164.53 169.176C142.076 168.892 121.696 168.578 98.8979 172.364H98.9039ZM215.4 254.882C219.33 258.324 220.584 259.444 221.032 259.806C221.358 260.07 221.406 260.006 221.716 259.772C222.568 259.11 225.774 256.416 238.594 245.772C248.436 240.676 258.486 234.288 268.446 227.972C273.091 231.206 276.996 235.389 279.903 240.246C282.81 245.102 284.653 250.52 285.31 256.142C266.348 270.327 245.154 281.253 222.6 288.47C218.011 289.931 213.138 290.269 208.391 289.454C203.645 288.64 199.163 286.697 195.324 283.79C183.2 274.795 174.108 262.316 169.264 248.018C179.961 246.121 190.393 242.951 200.338 238.578C201.286 238.192 202.211 237.752 203.11 237.262C205.97 243.682 210.83 251.51 215.4 254.882ZM214.128 222.628C213.385 225.617 211.998 228.407 210.063 230.803C208.128 233.199 205.693 235.144 202.928 236.5L198.696 238.464C188.812 242.374 177.374 242.264 166.874 240.58C159.588 239.404 152.443 237.483 145.55 234.846C143.496 231.032 141.86 227.402 141.842 227.364C141.801 227.273 141.725 227.202 141.632 227.167C141.538 227.131 141.435 227.135 141.344 227.176C141.253 227.217 141.182 227.292 141.147 227.386C141.112 227.479 141.115 227.583 141.156 227.674C144.72 236.138 161.19 265.274 172.856 281.036C166.918 292.28 157.198 298.098 144.304 299.488C130.079 278.85 117.046 257.415 105.27 235.288C103.547 232.074 102.641 228.486 102.63 224.839C102.619 221.193 103.504 217.6 105.208 214.375C106.911 211.151 109.381 208.395 112.399 206.349C115.417 204.303 118.892 203.03 122.518 202.642C136.997 200.995 151.59 200.594 166.138 201.442C171.008 201.723 175.86 202.266 180.672 203.068C181.366 203.092 181.212 202.396 180.834 202.334C176.102 201.556 171.334 201.016 166.548 200.716C166.988 197.981 167.726 195.302 168.748 192.728C168.78 192.681 168.8 192.629 168.809 192.573C168.817 192.518 168.813 192.461 168.796 192.408C162.266 170.974 166.436 142.808 166.944 139.608C169.516 139.562 172.043 139.548 174.524 139.564C174.204 142.396 172.414 159.102 173.498 167.964V168.002C173.511 168.059 173.538 168.111 173.576 168.156C173.614 168.2 173.662 168.235 173.716 168.258C173.894 168.318 199.716 168.87 199.828 168.858C200.688 168.594 203.428 155.818 214.028 140.188C216.18 140.294 218.452 140.422 220.818 140.572C216.482 147.864 202.992 173.7 209.248 179.066L205.638 191.486L205.626 191.544C205.617 191.617 205.629 191.691 205.662 191.758L205.692 191.81C205.818 191.968 217.4 208.542 214.136 222.624L214.128 222.628ZM212.344 169.37C211.892 169.416 212.092 169.272 209.486 178.246C205.022 173.338 215.166 151.346 221.658 140.63C239.996 141.83 281.174 145.74 298.02 152.294C299.904 161.009 299.137 170.089 295.82 178.366C262.786 171.594 240.916 169.236 212.352 169.366L212.344 169.37ZM331.448 185.584C331.22 185.9 329.824 185.81 327.432 184.622C320.09 180.98 306.252 175.76 297.776 174.88C299.663 168.787 300.238 162.363 299.464 156.032C305.306 157.586 306.264 158.654 315.504 154.6C317.206 153.854 317.892 153.966 318.026 154.142C318.16 154.318 318.074 155.182 316.626 156.942C314.994 158.92 315.988 160.394 314.626 163.024C313.106 165.946 310.226 169.184 305.098 168.024C305.05 168.013 305 168.011 304.951 168.02C304.902 168.028 304.856 168.046 304.814 168.072C304.772 168.099 304.736 168.133 304.708 168.174C304.679 168.214 304.659 168.259 304.648 168.308C304.637 168.356 304.636 168.406 304.644 168.454C304.652 168.503 304.67 168.55 304.697 168.591C304.723 168.633 304.757 168.669 304.798 168.698C304.838 168.726 304.884 168.747 304.932 168.758C309.542 169.802 313.11 167.558 315.292 163.372C315.673 162.657 315.943 161.888 316.092 161.092C319.117 162.157 322.083 163.38 324.98 164.756C333.672 168.978 334.21 170.13 334.252 170.254C333.774 170.692 329.544 169.942 326.234 168.654C323.758 167.516 318.76 165.554 318.554 165.494C318.486 165.477 318.415 165.48 318.348 165.502C318.282 165.524 318.223 165.564 318.178 165.618C318.133 165.672 318.104 165.737 318.094 165.806C318.084 165.875 318.094 165.946 318.122 166.01L318.136 166.04L318.162 166.082C321.457 170.049 323.316 175.013 323.438 180.17C323.434 180.267 323.469 180.363 323.534 180.435C323.6 180.508 323.691 180.552 323.789 180.559C323.886 180.565 323.982 180.533 324.057 180.47C324.132 180.407 324.178 180.317 324.188 180.22C324.217 179.48 324.183 178.74 324.088 178.006C325.958 179.279 327.708 180.722 329.314 182.316C331.89 184.908 331.476 185.554 331.456 185.58L331.448 185.584ZM334.166 180.228C336.366 182.228 336.224 182.796 336.224 182.796C336.13 182.898 335.25 183.036 332.636 181.814C325.436 178.452 327.154 179.308 323.928 176.98C323.674 175.509 323.279 174.067 322.746 172.674C326.934 174.564 330.792 177.113 334.174 180.224L334.166 180.228ZM340.998 179.708C340.73 180.018 337.898 179.836 328.756 175.108C326.682 173.821 324.533 172.659 322.32 171.63C321.568 169.902 320.639 168.256 319.548 166.72C325.054 168.87 326.186 169.478 325.984 169.386C334.082 173.082 341.306 178.752 341 179.704L340.998 179.708Z" fill="#1890ff"/>
<path d="M198.116 174.468C173.316 174.174 174.644 174.034 174.458 174.234C174.272 174.434 174.314 173.536 175.79 189.686C175.812 189.938 175.16 189.416 184.96 196.254C185.023 196.296 185.097 196.318 185.173 196.318C185.249 196.318 185.323 196.296 185.386 196.254C195.63 189.398 195.078 189.8 195.124 189.588C198.63 173.922 198.57 174.814 198.406 174.606C198.371 174.562 198.327 174.527 198.277 174.503C198.227 174.479 198.172 174.467 198.116 174.468ZM194.424 189.282L185.18 195.482L176.522 189.442L175.148 174.882L197.64 175.222L194.424 189.282Z" fill="#1890ff"/>
<path d="M103.094 149.914C103.11 150.405 103.316 150.87 103.669 151.212C104.022 151.553 104.494 151.744 104.985 151.744C105.476 151.744 105.948 151.553 106.301 151.212C106.654 150.87 106.86 150.405 106.876 149.914C106.86 149.423 106.654 148.957 106.301 148.616C105.948 148.274 105.476 148.083 104.985 148.083C104.494 148.083 104.022 148.274 103.669 148.616C103.316 148.957 103.11 149.423 103.094 149.914Z" fill="#1890ff"/>
<path d="M129.034 163.13C129.034 163.631 129.233 164.112 129.588 164.466C129.942 164.821 130.423 165.02 130.924 165.02C131.425 165.02 131.906 164.821 132.26 164.466C132.615 164.112 132.814 163.631 132.814 163.13C132.814 162.628 132.615 162.148 132.26 161.793C131.906 161.439 131.425 161.24 130.924 161.24C130.423 161.24 129.942 161.439 129.588 161.793C129.233 162.148 129.034 162.628 129.034 163.13Z" fill="#1890ff"/>
<path d="M157.4 145.534C157.4 146.035 157.599 146.516 157.953 146.87C158.308 147.224 158.789 147.424 159.29 147.424C159.791 147.424 160.272 147.224 160.626 146.87C160.981 146.516 161.18 146.035 161.18 145.534C161.18 145.032 160.981 144.552 160.626 144.197C160.272 143.843 159.791 143.644 159.29 143.644C158.789 143.644 158.308 143.843 157.953 144.197C157.599 144.552 157.4 145.032 157.4 145.534Z" fill="#1890ff"/>
<path d="M228.356 147.424C228.356 147.925 228.555 148.406 228.91 148.76C229.264 149.114 229.745 149.314 230.246 149.314C230.747 149.314 231.228 149.114 231.582 148.76C231.937 148.406 232.136 147.925 232.136 147.424C232.136 146.922 231.937 146.442 231.582 146.087C231.228 145.733 230.747 145.534 230.246 145.534C229.745 145.534 229.264 145.733 228.91 146.087C228.555 146.442 228.356 146.922 228.356 147.424Z" fill="#1890ff"/>
<path d="M189.216 161.238C189.2 160.747 188.994 160.281 188.641 159.94C188.288 159.598 187.816 159.407 187.325 159.407C186.834 159.407 186.362 159.598 186.009 159.94C185.656 160.281 185.45 160.747 185.434 161.238C185.45 161.728 185.656 162.194 186.009 162.536C186.362 162.877 186.834 163.068 187.325 163.068C187.816 163.068 188.288 162.877 188.641 162.536C188.994 162.194 189.2 161.728 189.216 161.238Z" fill="#1890ff"/>
<path d="M256.388 166.498C256.404 166.988 256.61 167.454 256.963 167.796C257.316 168.137 257.788 168.328 258.279 168.328C258.77 168.328 259.242 168.137 259.595 167.796C259.948 167.454 260.154 166.988 260.17 166.498C260.154 166.007 259.948 165.541 259.595 165.2C259.242 164.858 258.77 164.667 258.279 164.667C257.788 164.667 257.316 164.858 256.963 165.2C256.61 165.541 256.404 166.007 256.388 166.498Z" fill="#1890ff"/>
<path d="M288.45 156.052C288.45 156.553 288.649 157.034 289.004 157.388C289.358 157.743 289.839 157.942 290.34 157.942C290.841 157.942 291.322 157.743 291.676 157.388C292.031 157.034 292.23 156.553 292.23 156.052C292.23 155.55 292.031 155.07 291.676 154.715C291.322 154.361 290.841 154.162 290.34 154.162C289.839 154.162 289.358 154.361 289.004 154.715C288.649 155.07 288.45 155.55 288.45 156.052Z" fill="#1890ff"/>
</svg>
