<svg width="400" height="401" viewBox="0 0 400 401" fill="none" xmlns="http://www.w3.org/2000/svg">
<path d="M348 133.502C332.999 120.486 314.614 111.991 294.98 109.002C294.924 109.015 294.866 109.015 294.81 109.003C294.755 108.99 294.702 108.965 294.657 108.929C294.612 108.894 294.576 108.849 294.551 108.797C294.526 108.745 294.513 108.689 294.513 108.632C294.513 108.574 294.526 108.518 294.551 108.466C294.576 108.415 294.612 108.37 294.657 108.334C294.702 108.298 294.755 108.273 294.81 108.261C294.866 108.248 294.924 108.249 294.98 108.262C314.76 111.265 333.283 119.816 348.4 132.922C348.442 132.985 348.464 133.059 348.463 133.135C348.462 133.211 348.439 133.284 348.396 133.347C348.353 133.409 348.292 133.457 348.221 133.485C348.151 133.512 348.074 133.518 348 133.502Z" fill="#1890ff"/>
<path d="M215.38 273.022C215.316 273.025 215.253 273.011 215.196 272.983C215.139 272.955 215.09 272.913 215.053 272.861C215.016 272.809 214.993 272.749 214.986 272.685C214.978 272.622 214.987 272.558 215.011 272.499C215.035 272.44 215.074 272.388 215.123 272.348C215.172 272.307 215.231 272.28 215.294 272.269C215.356 272.257 215.421 272.261 215.481 272.281C215.542 272.301 215.596 272.335 215.64 272.382C215.69 272.435 215.723 272.501 215.737 272.572C215.75 272.644 215.743 272.718 215.715 272.785C215.688 272.852 215.642 272.911 215.582 272.953C215.523 272.994 215.453 273.018 215.38 273.022Z" fill="#1890ff"/>
<path d="M348 140.862C355.087 141.442 362.219 141.052 369.2 139.702L368.74 118.682C361.788 119.889 354.691 120.017 347.7 119.062C348.369 126.309 348.469 133.598 348 140.862Z" fill="#FFE7EA"/>
<path d="M284.9 102.542C279.339 107.219 273.17 111.122 266.56 114.142C263.2 107.522 258.78 100.142 254.56 92.9416C259.917 88.1791 265.992 84.2913 272.56 81.4216L284.9 102.542Z" fill="#FFE7EA"/>
<path d="M115.12 313.702L114.04 314.202C108.04 315.002 97.78 316.202 97.78 316.202C105.78 313.782 106.06 290.822 106.02 288.042C105.9 278.042 103.22 274.662 101.8 273.662C103.32 273.922 106.84 274.262 109.28 274.462V274.682C109.331 274.757 109.407 274.812 109.494 274.837C109.582 274.861 109.675 274.853 109.758 274.814C109.84 274.776 109.906 274.709 109.943 274.625C109.98 274.542 109.986 274.449 109.96 274.362L95.08 242.362C93.7907 239.649 91.4897 237.55 88.6706 236.514C85.8515 235.479 82.7387 235.589 80 236.822L58.94 246.682C62.6 241.842 76.94 222.362 78.66 209.482C80.84 194.082 58 186.962 55.18 206.422C52.96 222.282 55.9 239.922 57.02 245.662C53.62 240.882 42.88 226.622 29.84 217.342C13.84 205.922 3.26004 227.462 15.84 236.422C26.52 244.002 50.7 247.082 56.52 247.722L35.88 257.362C34.5069 258 33.2733 258.903 32.2501 260.02C31.2269 261.136 30.4343 262.443 29.9177 263.867C29.4011 265.29 29.1707 266.802 29.2397 268.314C29.3088 269.827 29.6759 271.311 30.32 272.682L56.62 329.202C57.92 331.949 60.2565 334.069 63.1172 335.096C65.9778 336.124 69.1292 335.974 71.88 334.682L115.44 314.382C115.516 314.331 115.571 314.255 115.595 314.167C115.619 314.08 115.611 313.986 115.573 313.904C115.534 313.822 115.467 313.756 115.384 313.719C115.301 313.682 115.207 313.676 115.12 313.702ZM56 206.542C58.6 188.082 80 194.962 78 209.302C76 222.462 60.92 242.682 58 246.682C57.14 242.542 53.54 223.502 56 206.542ZM16.28 235.802C4.50004 227.422 14.28 207.122 29.42 217.962C43.42 227.962 54.7 243.622 57.06 247.022C52.24 246.522 27.12 243.502 16.28 235.802ZM88.54 326.102L53.18 250.102L63.28 245.382L98.66 321.382L88.54 326.102Z" fill="#1890ff"/>
<path d="M173 217.582C179.26 211.582 173.92 205.782 171 210.122C169.6 212.122 168.82 212.122 168.36 210.962C166.36 204.082 156.5 194.222 153.88 213.242C151.44 230.822 159.24 231.242 165.32 228.722C165.48 229.242 168.14 240.362 170.38 243.622C172.989 239.482 175.06 235.026 176.54 230.362C172 224.562 172.22 218.342 173 217.582Z" fill="#FFE7EA"/>
<path d="M226.46 245.542C222.46 238.242 210.66 219.542 203.5 222.902C200.48 224.322 199.5 229.522 200.9 237.562C200.919 237.652 200.97 237.732 201.044 237.787C201.117 237.842 201.208 237.868 201.3 237.862C207.241 237.411 213.119 236.345 218.84 234.682C225.236 243.742 230.232 253.714 233.66 264.262C228.421 268.376 222.302 271.224 215.78 272.582V272.462C215.762 272.408 215.732 272.36 215.692 272.319C215.653 272.279 215.605 272.248 215.552 272.229C215.499 272.209 215.442 272.202 215.386 272.207C215.33 272.212 215.275 272.23 215.227 272.259C215.178 272.288 215.137 272.327 215.105 272.374C215.074 272.421 215.053 272.474 215.045 272.53C215.037 272.585 215.041 272.642 215.057 272.696C215.074 272.75 215.102 272.8 215.14 272.842C218.88 278.842 228.54 292.162 234.56 289.362C238.4 287.562 238.06 280.362 236.92 274.062C234.93 264.071 231.401 254.45 226.46 245.542Z" fill="#1890ff"/>
<path d="M321.42 310.682C334.281 305.071 345.904 296.969 355.618 286.844C365.332 276.72 372.946 264.772 378.02 251.69C383.094 238.608 385.528 224.651 385.181 210.624C384.834 196.597 381.714 182.777 376 169.962C375.989 169.906 375.965 169.854 375.93 169.809C375.896 169.764 375.852 169.727 375.802 169.701C375.751 169.675 375.696 169.661 375.639 169.659C375.583 169.657 375.526 169.668 375.475 169.691C375.423 169.714 375.377 169.748 375.34 169.791C375.303 169.834 375.276 169.885 375.261 169.94C375.246 169.994 375.244 170.052 375.254 170.107C375.264 170.163 375.287 170.216 375.32 170.262C380.979 182.986 384.065 196.705 384.4 210.627C384.735 224.55 382.314 238.401 377.274 251.384C372.235 264.366 364.677 276.224 355.036 286.274C345.396 296.323 333.862 304.367 321.1 309.942C255.2 167.722 238.7 131.942 234.26 122.562C233.662 121.234 232.995 119.939 232.26 118.682C241.526 114.095 251.42 110.907 261.62 109.222C261.719 109.202 261.807 109.146 261.866 109.064C261.926 108.983 261.952 108.882 261.94 108.782C261.921 108.684 261.864 108.598 261.781 108.542C261.699 108.486 261.598 108.464 261.5 108.482C251.248 110.192 241.307 113.414 232 118.042C229.907 114.799 227.128 112.054 223.859 110.002C220.59 107.949 216.91 106.638 213.08 106.162L111.5 93.0816C105.925 92.3707 100.276 93.5994 95.5001 96.5616C91.2504 99.1948 87.9292 103.089 86.0001 107.702C85.3948 109.023 85.0999 110.465 85.138 111.917C85.1762 113.37 85.5463 114.794 86.2201 116.082L145.84 247.602C145.891 247.677 145.967 247.732 146.054 247.757C146.142 247.781 146.235 247.773 146.318 247.734C146.4 247.695 146.466 247.629 146.503 247.545C146.54 247.462 146.546 247.369 146.52 247.282L86.8201 115.762C83.7401 109.042 88.0401 103.162 95.4001 104.102L198.94 117.642C204.901 118.404 210.57 120.669 215.415 124.223C220.26 127.778 224.123 132.505 226.64 137.962C328.74 358.042 342 387.102 343.68 390.682C344.02 391.362 344.62 390.882 344.44 390.482L227.32 137.642C224.746 132.072 220.802 127.247 215.856 123.616C210.91 119.986 205.125 117.668 199.04 116.882L95.5001 103.362C94.2155 103.141 92.8998 103.177 91.6295 103.469C90.3592 103.761 89.1595 104.302 88.1001 105.062C90.4827 101.137 93.9513 97.9873 98.0863 95.9926C102.221 93.9979 106.846 93.2438 111.4 93.8216L212.9 106.902C216.871 107.493 220.656 108.983 223.965 111.256C227.275 113.529 230.023 116.527 232 120.022C234.24 124.442 247.48 153.242 357.7 390.762C357.716 390.814 357.743 390.862 357.779 390.904C357.815 390.945 357.859 390.977 357.909 391C357.959 391.022 358.013 391.033 358.068 391.033C358.123 391.032 358.176 391.02 358.226 390.997C358.275 390.973 358.319 390.94 358.355 390.898C358.39 390.856 358.416 390.807 358.43 390.754C358.445 390.702 358.448 390.647 358.439 390.593C358.431 390.539 358.41 390.487 358.38 390.442L321.42 310.682Z" fill="#1890ff"/>
<path d="M99.52 123.422C97.06 118.142 100.28 113.542 104.5 116.122C108.72 118.702 109.78 125.742 106.26 127.382C103.74 128.562 100.82 126.222 99.52 123.422ZM101.12 116.382C98.14 117.762 99.3 124.102 102.94 126.382C103.382 126.69 103.895 126.879 104.431 126.932C104.967 126.984 105.507 126.898 106 126.682C108.98 125.302 107.84 118.962 104.18 116.682C103.737 116.377 103.224 116.19 102.689 116.137C102.154 116.085 101.614 116.169 101.12 116.382Z" fill="#1890ff"/>
<path d="M59.78 141.562L49.16 146.482L44.22 135.862C44.2044 135.809 44.1776 135.761 44.1415 135.72C44.1054 135.679 44.0609 135.646 44.011 135.624C43.9611 135.601 43.9069 135.59 43.8522 135.59C43.7976 135.591 43.7436 135.603 43.6942 135.627C43.6447 135.65 43.6008 135.684 43.5655 135.725C43.5303 135.767 43.5044 135.816 43.4898 135.869C43.4752 135.921 43.4721 135.977 43.4808 136.031C43.4894 136.085 43.5097 136.136 43.54 136.182L48.46 146.802L37.84 151.722C37.7641 151.759 37.703 151.822 37.6665 151.898C37.63 151.975 37.6202 152.061 37.6386 152.144C37.657 152.227 37.7026 152.301 37.7681 152.355C37.8336 152.409 37.9152 152.44 38 152.442C38.16 152.442 37.76 152.622 48.78 147.482L53.72 158.102C53.771 158.172 53.8446 158.223 53.9286 158.246C54.0126 158.269 54.1018 158.262 54.1814 158.227C54.261 158.192 54.3261 158.13 54.3659 158.053C54.4057 157.975 54.4178 157.887 54.4 157.802L49.46 147.182L60.1 142.242C60.1757 142.191 60.2307 142.115 60.255 142.027C60.2794 141.94 60.2714 141.846 60.2327 141.764C60.194 141.682 60.127 141.616 60.0439 141.579C59.9608 141.542 59.8672 141.536 59.78 141.562Z" fill="#1890ff"/>
<path d="M195.64 39.1217L189.64 28.1217C189.594 28.0407 189.519 27.9797 189.431 27.9502C189.342 27.9207 189.246 27.9247 189.16 27.9617L166.16 37.6017L186.6 23.3217C186.679 23.2685 186.735 23.1876 186.757 23.095C186.78 23.0024 186.766 22.9049 186.72 22.8217L180.72 11.8217C180.495 11.4117 180.176 11.0617 179.787 10.801C179.399 10.5404 178.954 10.3767 178.49 10.3238C178.025 10.2709 177.555 10.3303 177.118 10.497C176.682 10.6636 176.291 10.9327 175.98 11.2817L144.28 46.4617C143.881 46.9168 143.633 47.4838 143.568 48.0855C143.503 48.6871 143.626 49.2941 143.919 49.8235C144.212 50.3528 144.662 50.7789 145.206 51.0434C145.75 51.308 146.363 51.3982 146.96 51.3017L193.58 43.4217C194.041 43.3432 194.475 43.1554 194.848 42.874C195.221 42.5927 195.521 42.226 195.723 41.8048C195.925 41.3835 196.022 40.92 196.008 40.4531C195.994 39.9863 195.867 39.5297 195.64 39.1217ZM193.44 42.6817L146.82 50.5617C146.374 50.6472 145.913 50.59 145.501 50.3984C145.09 50.2067 144.749 49.8902 144.527 49.4938C144.306 49.0974 144.215 48.6414 144.268 48.1904C144.32 47.7395 144.513 47.3165 144.82 46.9817L176.42 11.7817C176.65 11.5207 176.94 11.3192 177.264 11.1942C177.589 11.0692 177.939 11.0244 178.284 11.0637C178.63 11.103 178.961 11.2251 179.249 11.4198C179.537 11.6144 179.774 11.8758 179.94 12.1817L185.94 22.8817L162.94 38.8817C162.847 38.9214 162.774 38.9965 162.737 39.0902C162.699 39.184 162.7 39.2888 162.74 39.3817C162.78 39.4745 162.855 39.5477 162.949 39.5852C163.042 39.6227 163.147 39.6214 163.24 39.5817L189.24 28.7017L195.14 39.4017C195.328 39.7198 195.431 40.0803 195.441 40.4494C195.451 40.8186 195.368 41.1842 195.198 41.5121C195.028 41.8399 194.777 42.1192 194.47 42.3238C194.162 42.5284 193.808 42.6515 193.44 42.6817Z" fill="#1890ff"/>
<path d="M348.66 322.682C348.22 322.442 348.66 321.762 349.02 322.002C367.02 331.662 371.02 303.662 389.5 313.622C389.551 313.64 389.598 313.67 389.637 313.709C389.675 313.747 389.705 313.793 389.725 313.845C389.744 313.896 389.752 313.95 389.748 314.005C389.744 314.059 389.729 314.112 389.703 314.16C389.676 314.208 389.64 314.25 389.596 314.283C389.553 314.315 389.502 314.338 389.449 314.35C389.396 314.361 389.34 314.361 389.287 314.349C389.234 314.338 389.184 314.315 389.14 314.282C371.1 304.502 367.28 332.682 348.66 322.682Z" fill="#1890ff"/>
<path d="M67.56 276.682C64.273 274.945 61.1119 272.981 58.1 270.802C54.1 267.782 55.28 265.102 59.18 267.162C63.078 268.983 67.0858 270.559 71.18 271.882C68.4051 270.181 65.7701 268.261 63.3 266.142C59.54 262.822 61 260.682 64.86 262.802C70.2541 265.981 76.0081 268.505 82 270.322C80.0169 267.448 78.4608 264.302 77.38 260.982C76.58 257.362 79.6 258.462 85.12 264.482C89.4522 269.002 95.0152 272.152 101.12 273.542C104.6 274.162 106.72 283.802 105.86 295.362C105.86 296.722 105.62 298.042 105.46 299.362C104.4 299.722 85.72 294.582 74.74 290.302C70.32 288.582 65.74 286.862 61.46 284.762C57.18 282.662 57.46 280.462 61.56 281.462C63.6157 281.883 65.6918 282.196 67.78 282.402C64.4219 281.156 61.1541 279.679 58 277.982C53.7 275.542 54.54 272.742 58.66 274.242C61.5838 275.204 64.5542 276.019 67.56 276.682Z" fill="#FFE7EA"/>
<path d="M203.18 372.422C207.996 370.083 211.709 365.956 213.528 360.921C215.346 355.885 215.126 350.338 212.915 345.462C210.704 340.585 206.676 336.765 201.69 334.815C196.703 332.865 191.153 332.939 186.22 335.022L169.12 297.282C169.099 297.236 169.069 297.194 169.032 297.16C168.995 297.126 168.952 297.099 168.904 297.081C168.857 297.063 168.807 297.055 168.756 297.057C168.706 297.059 168.656 297.071 168.61 297.092C168.564 297.113 168.523 297.143 168.488 297.18C168.454 297.217 168.427 297.26 168.409 297.307C168.392 297.355 168.384 297.405 168.385 297.456C168.387 297.506 168.399 297.556 168.42 297.602L185.52 335.322C180.834 337.736 177.256 341.859 175.526 346.838C173.796 351.818 174.046 357.271 176.225 362.071C178.404 366.871 182.345 370.649 187.232 372.624C192.119 374.599 197.578 374.62 202.48 372.682L210.7 390.782C210.751 390.857 210.827 390.912 210.914 390.937C211.002 390.961 211.095 390.953 211.178 390.914C211.26 390.876 211.326 390.809 211.363 390.726C211.4 390.643 211.406 390.549 211.38 390.462L203.18 372.422ZM205 337.342C207.938 339.254 210.315 341.911 211.889 345.043C213.464 348.174 214.179 351.667 213.961 355.166C213.743 358.664 212.601 362.042 210.651 364.954C208.7 367.866 206.012 370.209 202.86 371.742L186.52 335.742C189.495 334.472 192.737 333.954 195.96 334.233C199.183 334.512 202.287 335.58 205 337.342Z" fill="#1890ff"/>
<path d="M233.54 263.902C227.642 268.542 220.613 271.526 213.178 272.546C205.742 273.565 198.17 272.584 191.24 269.702C191.24 258.582 191.24 259.022 191.24 258.822C191.215 258.746 191.166 258.681 191.102 258.635C191.037 258.588 190.96 258.563 190.88 258.563C190.801 258.563 190.723 258.588 190.658 258.635C190.594 258.681 190.546 258.746 190.52 258.822C185.6 271.862 176.52 285.022 168.74 296.822C166.663 299.965 163.582 302.312 160 303.482C140.516 309.471 120.495 313.551 100.22 315.662C107 309.442 108.92 280.662 103 274.242C117.915 276.02 132.97 276.302 147.94 275.082C147.991 275.079 148.041 275.066 148.086 275.041C148.131 275.017 148.17 274.983 148.2 274.942C157.92 262.682 171.94 245.862 176.78 231.142C177.563 232.081 178.426 232.951 179.36 233.742C182.32 236.262 188.38 238.062 196.78 238.062C204.253 237.946 211.675 236.808 218.84 234.682L218.36 234.042C197.6 239.842 184 236.682 179.74 233.162C178.187 231.857 176.838 230.327 175.74 228.622C176.577 229.021 177.495 229.222 178.422 229.207C179.35 229.192 180.261 228.962 181.085 228.536C181.908 228.11 182.622 227.498 183.169 226.75C183.717 226.001 184.083 225.136 184.24 224.222C185.188 225.021 186.361 225.507 187.597 225.613C188.833 225.719 190.072 225.439 191.142 224.811C192.212 224.184 193.062 223.241 193.573 222.111C194.085 220.981 194.234 219.72 194 218.502C195.164 218.887 196.419 218.906 197.595 218.557C198.77 218.207 199.811 217.506 200.576 216.547C201.341 215.588 201.793 214.418 201.873 213.194C201.952 211.97 201.655 210.751 201.02 209.702C202.482 209.715 203.898 209.193 205.003 208.236C206.108 207.278 206.825 205.951 207.02 204.502C207.173 203.381 207.006 202.241 206.539 201.211C206.072 200.181 205.324 199.304 204.38 198.682C205.481 198.343 206.464 197.699 207.214 196.825C207.965 195.95 208.452 194.881 208.62 193.742C208.821 192.356 208.531 190.944 207.801 189.749C207.07 188.555 205.945 187.654 204.62 187.202C205.564 186.411 206.241 185.35 206.561 184.162C206.881 182.973 206.828 181.715 206.409 180.558C205.99 179.401 205.225 178.401 204.218 177.693C203.211 176.985 202.011 176.604 200.78 176.602C201.36 175.532 201.601 174.311 201.471 173.101C201.341 171.891 200.846 170.749 200.052 169.827C199.258 168.905 198.202 168.246 197.025 167.938C195.847 167.63 194.604 167.687 193.46 168.102C193.644 166.873 193.442 165.619 192.882 164.51C192.323 163.401 191.433 162.494 190.336 161.912C189.239 161.331 187.988 161.104 186.757 161.263C185.525 161.423 184.373 161.96 183.46 162.802C183.28 161.504 182.68 160.301 181.752 159.377C180.823 158.452 179.618 157.857 178.32 157.682H177.94C176.685 157.502 175.405 157.724 174.283 158.317C173.162 158.91 172.258 159.843 171.7 160.982C171.1 159.87 170.166 158.977 169.028 158.428C167.891 157.879 166.61 157.702 165.367 157.924C164.124 158.145 162.982 158.754 162.105 159.662C161.227 160.57 160.659 161.732 160.48 162.982C159.531 162.2 158.366 161.728 157.14 161.631C155.915 161.533 154.689 161.814 153.629 162.436C152.568 163.058 151.725 163.99 151.211 165.107C150.698 166.224 150.541 167.472 150.76 168.682C149.593 168.307 148.339 168.3 147.167 168.66C145.995 169.02 144.961 169.73 144.206 170.696C143.45 171.661 143.007 172.834 142.938 174.058C142.87 175.282 143.177 176.498 143.82 177.542C142.398 177.57 141.032 178.102 139.966 179.043C138.901 179.985 138.204 181.274 138 182.682C137.842 183.784 137.995 184.909 138.44 185.929C138.885 186.95 139.605 187.827 140.52 188.462C139.285 188.821 138.198 189.568 137.419 190.592C136.641 191.616 136.212 192.863 136.196 194.15C136.18 195.436 136.579 196.694 137.332 197.736C138.085 198.779 139.154 199.552 140.38 199.942C139.448 200.739 138.782 201.803 138.473 202.989C138.164 204.176 138.226 205.43 138.651 206.58C139.076 207.731 139.843 208.724 140.85 209.425C141.856 210.126 143.053 210.502 144.28 210.502C143.704 211.576 143.468 212.8 143.605 214.012C143.742 215.223 144.244 216.364 145.046 217.283C145.847 218.201 146.909 218.854 148.091 219.154C149.273 219.454 150.518 219.387 151.66 218.962C151.503 219.967 151.605 220.995 151.954 221.95C152.304 222.905 152.891 223.756 153.66 224.422C155.18 230.242 159.54 231.422 165.04 229.202C165.26 230.142 165.86 232.422 166.68 235.202C153.581 243.965 139.359 250.921 124.4 255.882C117.111 256.966 109.765 257.634 102.4 257.882L102.74 258.622C110.073 258.388 117.386 257.72 124.64 256.622C139.613 251.653 153.843 244.676 166.94 235.882C167.753 238.558 168.776 241.166 170 243.682C163.86 254.222 155.2 264.842 147.62 274.342C132.427 275.576 117.146 275.248 102.02 273.362C95.6677 272.113 89.8522 268.943 85.3601 264.282C82.4801 261.142 78.7601 257.642 77.3601 258.702C75.9601 259.762 78.6401 265.302 81.3601 269.822C75.6718 268.089 70.2075 265.693 65.0801 262.682C60.9001 260.362 58.8801 262.922 63.0801 266.682C64.7644 268.129 66.5415 269.466 68.4001 270.682C65.3207 269.624 62.3027 268.395 59.3601 267.002C55.2401 264.842 53.3601 267.822 57.8601 271.282C60.1989 272.96 62.6366 274.496 65.1601 275.882C62.3401 275.142 59.9601 274.382 58.8401 273.982C54.4601 272.402 52.9801 275.642 57.8801 278.402C60.1677 279.657 62.5324 280.765 64.9601 281.722C63.6401 281.542 62.5801 281.362 61.6601 281.142C59.6601 280.662 58.3201 280.882 58.0201 281.702C57.7201 282.522 58.9001 283.982 61.3001 285.162C71.3525 289.725 81.7272 293.542 92.34 296.582C92.0601 302.882 93.0201 318.062 98.5401 316.582C119.433 314.509 140.068 310.362 160.14 304.202C163.913 302.994 167.164 300.539 169.36 297.242C175.783 288.024 181.667 278.441 186.98 268.542C193.425 271.892 200.577 273.654 207.84 273.682C217.271 273.665 226.425 270.489 233.84 264.662C233.7 264.402 233.62 264.162 233.54 263.902ZM166.86 233.042L168.72 227.222C168.742 227.146 168.74 227.066 168.715 226.992C168.69 226.918 168.642 226.853 168.578 226.807C168.515 226.761 168.438 226.736 168.36 226.735C168.282 226.734 168.205 226.757 168.14 226.802C165.26 228.802 160.36 230.622 157.28 228.802C154.2 226.982 153.28 221.702 154.24 213.342C155.2 204.982 157.88 202.762 159.8 202.622C163.04 202.382 166.84 207.002 168 211.122C168 211.362 168.42 212.062 169.08 212.122C169.74 212.182 170.38 211.622 171.28 210.302C173.9 206.302 178.5 211.722 172.7 217.262C172.192 218.094 171.974 219.072 172.08 220.042C172.349 223.811 173.742 227.413 176.08 230.382C174.635 234.731 172.73 238.915 170.4 242.862C168.959 239.688 167.775 236.404 166.86 233.042ZM61.6401 284.422C59.2001 283.222 58.6201 282.202 58.7401 281.902C58.8601 281.602 59.6601 281.382 61.5001 281.902C63.0401 282.262 64.8801 282.502 67.7601 282.862C67.9601 282.862 69.3401 283.482 72.0801 284.362C72.1293 284.384 72.1829 284.396 72.2372 284.397C72.2915 284.397 72.3452 284.386 72.3948 284.364C72.4444 284.342 72.4886 284.309 72.5245 284.268C72.5605 284.228 72.5873 284.18 72.6032 284.128C72.619 284.076 72.6236 284.021 72.6165 283.967C72.6095 283.914 72.5909 283.862 72.5622 283.816C72.5335 283.77 72.4952 283.73 72.45 283.7C72.4048 283.67 72.3537 283.65 72.3001 283.642C67.4793 282.071 62.7967 280.104 58.3001 277.762C56.0001 276.462 55.4801 275.222 55.7001 274.742C55.9201 274.262 56.9201 274.082 58.6601 274.742C61.613 275.769 64.6251 276.617 67.6801 277.282C70.0201 278.562 72.0801 279.602 73.1801 280.142C73.6201 280.342 73.9601 279.662 73.5001 279.462C68.2305 276.913 63.1566 273.979 58.3201 270.682C56.1601 269.042 55.8201 267.722 56.1001 267.282C56.3801 266.842 57.3801 266.822 59.0001 267.682C62.8992 269.495 66.9069 271.064 71.0001 272.382C72.5401 273.342 73.8001 274.042 74.4201 274.382C74.4646 274.406 74.5135 274.421 74.5639 274.426C74.6144 274.431 74.6653 274.426 74.7138 274.411C74.7622 274.396 74.8072 274.372 74.8461 274.339C74.8849 274.307 74.9169 274.267 74.9401 274.222C74.9828 274.134 74.9901 274.033 74.9603 273.94C74.9305 273.846 74.8659 273.768 74.7801 273.722C70.7692 271.572 67.0009 268.997 63.5401 266.042C61.5401 264.322 61.3001 263.142 61.5401 262.762C61.7801 262.382 62.9801 262.402 64.6401 263.322C71.0965 267.196 78.1224 270.031 85.4601 271.722C85.5543 271.734 85.6497 271.71 85.7272 271.655C85.8048 271.6 85.859 271.518 85.8791 271.425C85.8991 271.332 85.8837 271.235 85.8357 271.153C85.7878 271.071 85.7108 271.01 85.6201 270.982C84.4801 270.742 83.4 270.462 82.34 270.182C82.34 269.982 76.3401 260.422 77.7401 259.362C78.0601 259.122 79.9601 259.622 84.7401 264.842C89.2307 269.509 95.0097 272.732 101.34 274.102C104.42 275.222 106.24 284.562 105.34 295.442C105.34 296.622 105.14 297.822 104.98 299.002C96.7601 297.722 72.4401 289.722 61.6401 284.422Z" fill="#1890ff"/>
<path d="M323.32 96.6817C322.797 96.0022 322.486 95.1829 322.428 94.3272C322.37 93.4715 322.567 92.6178 322.994 91.8739C323.421 91.13 324.058 90.5292 324.826 90.1474C325.594 89.7656 326.458 89.6199 327.309 89.7287C328.16 89.8374 328.959 90.1958 329.606 90.7586C330.254 91.3214 330.719 92.0633 330.945 92.8907C331.171 93.718 331.147 94.5938 330.875 95.4073C330.604 96.2209 330.097 96.9358 329.42 97.4617C328.507 98.1642 327.352 98.4765 326.209 98.3303C325.066 98.1842 324.027 97.5915 323.32 96.6817ZM324.58 91.1817C324.018 91.6129 323.597 92.2009 323.37 92.8714C323.142 93.5419 323.119 94.2648 323.302 94.9487C323.486 95.6326 323.868 96.2467 324.4 96.7134C324.933 97.1802 325.591 97.4786 326.293 97.5709C326.995 97.6632 327.709 97.5452 328.344 97.232C328.979 96.9187 329.507 96.4242 329.861 95.811C330.215 95.1977 330.379 94.4933 330.332 93.7868C330.286 93.0803 330.031 92.4034 329.6 91.8417C329.01 91.1021 328.153 90.6245 327.213 90.5122C326.274 90.3999 325.328 90.662 324.58 91.2417V91.1817Z" fill="#1890ff"/>
<path d="M374.54 136.942C374.54 135.722 372.84 134.682 369.5 133.862L369.04 115.622C376.8 90.2016 377.56 78.4816 376.28 63.2616C376.274 63.1927 376.249 63.1268 376.208 63.0709C376.168 63.015 376.112 62.9714 376.048 62.9446C375.985 62.9178 375.915 62.909 375.846 62.9191C375.778 62.9291 375.713 62.9577 375.66 63.0016C366.38 71.0016 349.28 97.8416 346 108.062C345.991 108.115 345.991 108.169 346 108.222C347.386 116.299 348.015 124.488 347.88 132.682C344.52 132.922 334.46 133.882 334.58 137.242C335.12 153.242 336.32 189.582 336.4 194.982C333.62 195.462 325.4 197.302 315.88 199.502C331.04 175.842 328.12 169.702 323.28 159.642C316.72 145.922 296.34 109.642 288.76 97.2816C288.16 95.2816 284.08 96.4616 282.14 97.0616L272.88 81.1616C271.44 61.4216 270.04 49.9816 263.48 30.7016C263.449 30.6384 263.4 30.5853 263.34 30.5482C263.28 30.511 263.211 30.4913 263.14 30.4913C263.069 30.4913 263 30.511 262.94 30.5482C262.88 30.5853 262.832 30.6384 262.8 30.7016C256.06 42.7016 248.94 70.7016 248.36 83.4016C248.345 83.4364 248.338 83.4738 248.338 83.5116C248.338 83.5494 248.345 83.5869 248.36 83.6216C252.84 90.8416 259.44 102.062 262.36 107.382C259.96 109.082 252.62 114.522 254.06 117.062C257.5 123.062 283.44 166.422 284.76 168.802C282.28 170.802 272.56 181.282 264.76 188.642L265.1 189.362C273.36 181.582 283.28 170.802 285.46 169.202C285.94 168.842 286.82 170.782 262.72 130.302C275.657 127.771 287.318 120.838 295.72 110.682C302.16 121.902 317.26 148.842 322.6 160.042C327.34 170.042 330.22 176.042 314.82 199.822C307.8 201.462 276.06 208.902 274.4 209.222L274.74 209.922C276.74 209.502 332.74 196.402 336.74 195.762C336.828 195.744 336.908 195.696 336.966 195.627C337.024 195.558 337.057 195.472 337.06 195.382C337.06 192.342 336.34 170.462 335.74 152.802C348.64 156.922 361.5 156.342 374.5 152.802C375.36 171.802 376.06 196.802 375.32 207.062C373.74 228.822 375.32 227.502 295.74 255.522L296.06 256.202C374.56 228.582 374.48 229.282 375.96 208.422C377.22 192.122 375.48 152.042 374.54 136.942ZM255.04 92.9416C260.234 88.3725 266.095 84.6227 272.42 81.8216L284.42 102.382C279.04 106.865 273.097 110.623 266.74 113.562C263.38 107.082 258.98 99.7016 255.04 93.0216V92.9416ZM262.44 129.482C259.56 124.642 257.06 120.402 255.44 117.622C262.08 118.762 286.34 104.602 288.66 98.4816C290.4 101.342 292.66 105.282 295.32 109.822C287.008 120.047 275.372 127.032 262.44 129.562V129.482ZM368.44 119.042C368.44 120.142 368.98 140.402 368.96 139.322C362.226 140.594 355.352 140.964 348.52 140.422C348.934 133.424 348.834 126.405 348.22 119.422C354.912 120.312 361.698 120.211 368.36 119.122L368.44 119.042ZM335.9 151.842C335.74 146.762 335.58 142.062 335.46 138.302C340.42 142.302 369.02 142.442 373.94 138.122C374.16 141.942 374.42 146.662 374.64 151.842C360.52 155.822 347.82 155.802 335.82 151.922L335.9 151.842Z" fill="#1890ff"/>
</svg>
