<svg width="400" height="400" viewBox="0 0 400 400" fill="none" xmlns="http://www.w3.org/2000/svg">
<path d="M348 132.82C332.999 119.804 314.614 111.309 294.98 108.32C294.924 108.333 294.866 108.333 294.81 108.321C294.755 108.308 294.702 108.283 294.657 108.248C294.612 108.212 294.576 108.167 294.551 108.115C294.526 108.064 294.513 108.007 294.513 107.95C294.513 107.893 294.526 107.836 294.551 107.784C294.576 107.733 294.612 107.688 294.657 107.652C294.702 107.616 294.755 107.592 294.81 107.579C294.866 107.566 294.924 107.567 294.98 107.58C314.76 110.584 333.283 119.134 348.4 132.24C348.442 132.303 348.464 132.377 348.463 132.453C348.462 132.529 348.439 132.602 348.396 132.665C348.353 132.727 348.292 132.775 348.221 132.803C348.151 132.83 348.074 132.836 348 132.82Z" fill="white"/>
<path d="M215.38 272.34C215.316 272.343 215.253 272.33 215.196 272.301C215.139 272.273 215.09 272.231 215.053 272.179C215.016 272.127 214.993 272.067 214.986 272.004C214.978 271.94 214.987 271.876 215.011 271.817C215.035 271.758 215.074 271.706 215.123 271.666C215.172 271.626 215.231 271.598 215.294 271.587C215.356 271.575 215.421 271.579 215.481 271.599C215.542 271.619 215.596 271.654 215.64 271.7C215.69 271.753 215.723 271.819 215.737 271.891C215.75 271.962 215.743 272.036 215.715 272.103C215.688 272.171 215.642 272.229 215.582 272.271C215.523 272.313 215.453 272.337 215.38 272.34Z" fill="white"/>
<path d="M348 140.18C355.087 140.76 362.219 140.37 369.2 139.02L368.74 118C361.788 119.208 354.691 119.336 347.7 118.38C348.369 125.628 348.469 132.917 348 140.18V140.18Z" fill="#B2BEC3"/>
<path d="M284.9 101.86C279.339 106.538 273.17 110.44 266.56 113.46C263.2 106.84 258.78 99.46 254.56 92.26C259.917 87.4974 265.992 83.6096 272.56 80.74L284.9 101.86Z" fill="#B2BEC3"/>
<path d="M115.12 313.02L114.04 313.52C108.04 314.32 97.78 315.52 97.78 315.52C105.78 313.1 106.06 290.14 106.02 287.36C105.9 277.36 103.22 273.98 101.8 272.98C103.32 273.24 106.84 273.58 109.28 273.78V274C109.331 274.076 109.407 274.131 109.494 274.155C109.582 274.179 109.675 274.171 109.758 274.133C109.84 274.094 109.906 274.027 109.943 273.944C109.98 273.861 109.986 273.767 109.96 273.68L95.08 241.68C93.7907 238.968 91.4897 236.868 88.6706 235.833C85.8515 234.797 82.7387 234.907 80 236.14L58.94 246C62.6 241.16 76.94 221.68 78.66 208.8C80.84 193.4 58 186.28 55.18 205.74C52.96 221.6 55.9 239.24 57.02 244.98C53.62 240.2 42.88 225.94 29.84 216.66C13.84 205.24 3.26004 226.78 15.84 235.74C26.52 243.32 50.7 246.4 56.52 247.04L35.88 256.68C34.5069 257.318 33.2733 258.222 32.2501 259.338C31.2269 260.454 30.4343 261.762 29.9177 263.185C29.4011 264.608 29.1707 266.12 29.2397 267.633C29.3088 269.145 29.6759 270.63 30.32 272L56.62 328.52C57.92 331.268 60.2565 333.387 63.1172 334.415C65.9778 335.442 69.1292 335.293 71.88 334L115.44 313.7C115.516 313.649 115.571 313.573 115.595 313.486C115.619 313.398 115.611 313.305 115.573 313.222C115.534 313.14 115.467 313.074 115.384 313.037C115.301 313 115.207 312.994 115.12 313.02ZM56 205.86C58.6 187.4 80 194.28 78 208.62C76 221.78 60.92 242 58 246C57.14 241.86 53.54 222.82 56 205.86ZM16.28 235.12C4.50004 226.74 14.28 206.44 29.42 217.28C43.42 227.28 54.7 242.94 57.06 246.34C52.24 245.84 27.12 242.82 16.28 235.12ZM88.54 325.42L53.18 249.42L63.28 244.7L98.66 320.7L88.54 325.42Z" fill="white"/>
<path d="M173 216.9C179.26 210.9 173.92 205.1 171 209.44C169.6 211.44 168.82 211.44 168.36 210.28C166.36 203.4 156.5 193.54 153.88 212.56C151.44 230.14 159.24 230.56 165.32 228.04C165.48 228.56 168.14 239.68 170.38 242.94C172.989 238.8 175.06 234.344 176.54 229.68C172 223.88 172.22 217.66 173 216.9Z" fill="#B2BEC3"/>
<path d="M226.46 244.86C222.46 237.56 210.66 218.86 203.5 222.22C200.48 223.64 199.5 228.84 200.9 236.88C200.919 236.97 200.97 237.05 201.044 237.105C201.117 237.16 201.208 237.187 201.3 237.18C207.241 236.729 213.119 235.663 218.84 234C225.236 243.06 230.232 253.032 233.66 263.58C228.421 267.695 222.302 270.542 215.78 271.9V271.78C215.762 271.727 215.732 271.678 215.692 271.638C215.653 271.597 215.605 271.566 215.552 271.547C215.499 271.528 215.442 271.52 215.386 271.525C215.33 271.531 215.275 271.548 215.227 271.577C215.178 271.606 215.137 271.645 215.105 271.692C215.074 271.739 215.053 271.792 215.045 271.848C215.037 271.904 215.041 271.961 215.057 272.015C215.074 272.069 215.102 272.118 215.14 272.16C218.88 278.16 228.54 291.48 234.56 288.68C238.4 286.88 238.06 279.68 236.92 273.38C234.93 263.389 231.401 253.768 226.46 244.86Z" fill="white"/>
<path d="M321.42 310C334.281 304.389 345.904 296.288 355.618 286.163C365.332 276.038 372.946 264.09 378.02 251.008C383.094 237.926 385.528 223.969 385.181 209.942C384.834 195.915 381.714 182.095 376 169.28C375.989 169.224 375.965 169.172 375.93 169.127C375.896 169.082 375.852 169.045 375.802 169.019C375.751 168.993 375.696 168.979 375.639 168.977C375.583 168.976 375.526 168.987 375.475 169.01C375.423 169.032 375.377 169.067 375.34 169.11C375.303 169.152 375.276 169.203 375.261 169.258C375.246 169.312 375.244 169.37 375.254 169.425C375.264 169.481 375.287 169.534 375.32 169.58C380.979 182.305 384.065 196.023 384.4 209.946C384.735 223.868 382.314 237.719 377.274 250.702C372.235 263.684 364.677 275.542 355.036 285.592C345.396 295.642 333.862 303.685 321.1 309.26C255.2 167.04 238.7 131.26 234.26 121.88C233.662 120.552 232.995 119.257 232.26 118C241.526 113.413 251.42 110.225 261.62 108.54C261.719 108.52 261.807 108.464 261.866 108.383C261.926 108.301 261.952 108.2 261.94 108.1C261.921 108.002 261.864 107.916 261.781 107.86C261.699 107.804 261.598 107.782 261.5 107.8C251.248 109.511 241.307 112.732 232 117.36C229.907 114.117 227.128 111.372 223.859 109.32C220.59 107.267 216.91 105.956 213.08 105.48L111.5 92.3998C105.925 91.6889 100.276 92.9177 95.5001 95.8798C91.2504 98.5131 87.9292 102.408 86.0001 107.02C85.3948 108.341 85.0999 109.783 85.138 111.235C85.1762 112.688 85.5463 114.112 86.2201 115.4L145.84 246.92C145.891 246.995 145.967 247.05 146.054 247.075C146.142 247.099 146.235 247.091 146.318 247.052C146.4 247.014 146.466 246.947 146.503 246.864C146.54 246.781 146.546 246.687 146.52 246.6L86.8201 115.08C83.7401 108.36 88.0401 102.48 95.4001 103.42L198.94 116.96C204.901 117.722 210.57 119.987 215.415 123.541C220.26 127.096 224.123 131.823 226.64 137.28C328.74 357.36 342 386.42 343.68 390C344.02 390.68 344.62 390.2 344.44 389.8L227.32 136.96C224.746 131.391 220.802 126.565 215.856 122.934C210.91 119.304 205.125 116.987 199.04 116.2L95.5001 102.68C94.2155 102.459 92.8998 102.496 91.6295 102.787C90.3592 103.079 89.1595 103.62 88.1001 104.38C90.4827 100.456 93.9513 97.3056 98.0863 95.3108C102.221 93.3161 106.846 92.562 111.4 93.1398L212.9 106.22C216.871 106.812 220.656 108.301 223.965 110.574C227.275 112.848 230.023 115.845 232 119.34C234.24 123.76 247.48 152.56 357.7 390.08C357.716 390.132 357.743 390.181 357.779 390.222C357.815 390.263 357.859 390.296 357.909 390.318C357.959 390.34 358.013 390.352 358.068 390.351C358.123 390.35 358.176 390.338 358.226 390.315C358.275 390.292 358.319 390.258 358.355 390.216C358.39 390.174 358.416 390.125 358.43 390.073C358.445 390.02 358.448 389.965 358.439 389.911C358.431 389.857 358.41 389.805 358.38 389.76L321.42 310Z" fill="white"/>
<path d="M99.52 122.74C97.06 117.46 100.28 112.86 104.5 115.44C108.72 118.02 109.78 125.06 106.26 126.7C103.74 127.88 100.82 125.54 99.52 122.74ZM101.12 115.7C98.14 117.08 99.3 123.42 102.94 125.7C103.382 126.008 103.895 126.198 104.431 126.25C104.967 126.303 105.507 126.216 106 126C108.98 124.62 107.84 118.28 104.18 116C103.737 115.695 103.224 115.508 102.689 115.456C102.154 115.403 101.614 115.487 101.12 115.7Z" fill="white"/>
<path d="M59.78 140.88L49.16 145.8L44.22 135.18C44.2044 135.127 44.1776 135.079 44.1415 135.038C44.1054 134.997 44.0609 134.964 44.011 134.942C43.9611 134.919 43.9069 134.908 43.8522 134.909C43.7976 134.909 43.7436 134.922 43.6942 134.945C43.6447 134.968 43.6008 135.002 43.5655 135.044C43.5303 135.085 43.5044 135.134 43.4898 135.187C43.4752 135.24 43.4721 135.295 43.4808 135.349C43.4894 135.403 43.5097 135.454 43.54 135.5L48.46 146.12L37.84 151.04C37.7641 151.078 37.703 151.14 37.6665 151.216C37.63 151.293 37.6202 151.38 37.6386 151.462C37.657 151.545 37.7026 151.62 37.7681 151.673C37.8336 151.727 37.9152 151.758 38 151.76C38.16 151.76 37.76 151.94 48.78 146.8L53.72 157.42C53.771 157.49 53.8446 157.541 53.9286 157.564C54.0126 157.587 54.1018 157.58 54.1814 157.545C54.261 157.51 54.3261 157.448 54.3659 157.371C54.4057 157.294 54.4178 157.205 54.4 157.12L49.46 146.5L60.1 141.56C60.1757 141.509 60.2307 141.433 60.255 141.346C60.2794 141.258 60.2714 141.164 60.2327 141.082C60.194 141 60.127 140.934 60.0439 140.897C59.9608 140.86 59.8672 140.854 59.78 140.88Z" fill="white"/>
<path d="M195.64 38.4399L189.64 27.4399C189.594 27.3589 189.519 27.2979 189.431 27.2684C189.342 27.2389 189.246 27.243 189.16 27.2799L166.16 36.9199L186.6 22.6399C186.679 22.5867 186.735 22.5059 186.757 22.4133C186.78 22.3207 186.766 22.2231 186.72 22.1399L180.72 11.1399C180.495 10.7299 180.176 10.3799 179.787 10.1193C179.399 9.85863 178.954 9.69497 178.49 9.64206C178.025 9.58914 177.555 9.64852 177.118 9.8152C176.682 9.98188 176.291 10.251 175.98 10.5999L144.28 45.7799C143.881 46.235 143.633 46.8021 143.568 47.4037C143.503 48.0054 143.626 48.6123 143.919 49.1417C144.212 49.6711 144.662 50.0971 145.206 50.3617C145.75 50.6262 146.363 50.7164 146.96 50.6199L193.58 42.7399C194.041 42.6614 194.475 42.4736 194.848 42.1923C195.221 41.9109 195.521 41.5442 195.723 41.123C195.925 40.7017 196.022 40.2382 196.008 39.7714C195.994 39.3045 195.867 38.8479 195.64 38.4399ZM193.44 41.9999L146.82 49.8799C146.374 49.9654 145.913 49.9083 145.501 49.7166C145.09 49.5249 144.749 49.2084 144.527 48.812C144.306 48.4157 144.215 47.9596 144.268 47.5087C144.32 47.0577 144.513 46.6347 144.82 46.2999L176.42 11.0999C176.65 10.839 176.94 10.6374 177.264 10.5124C177.589 10.3874 177.939 10.3427 178.284 10.3819C178.63 10.4212 178.961 10.5433 179.249 10.738C179.537 10.9326 179.774 11.194 179.94 11.4999L185.94 22.1999L162.94 38.1999C162.847 38.2397 162.774 38.3147 162.737 38.4085C162.699 38.5022 162.7 38.6071 162.74 38.6999C162.78 38.7927 162.855 38.8659 162.949 38.9034C163.042 38.941 163.147 38.9397 163.24 38.8999L189.24 28.0199L195.14 38.7199C195.328 39.038 195.431 39.3985 195.441 39.7677C195.451 40.1368 195.368 40.5025 195.198 40.8303C195.028 41.1582 194.777 41.4375 194.47 41.6421C194.162 41.8466 193.808 41.9698 193.44 41.9999Z" fill="white"/>
<path d="M348.66 322C348.22 321.76 348.66 321.08 349.02 321.32C367.02 330.98 371.02 302.98 389.5 312.94C389.551 312.959 389.598 312.988 389.637 313.027C389.675 313.065 389.705 313.112 389.725 313.163C389.744 313.214 389.752 313.269 389.748 313.323C389.744 313.378 389.729 313.431 389.703 313.479C389.676 313.527 389.64 313.568 389.596 313.601C389.553 313.634 389.502 313.657 389.449 313.668C389.396 313.68 389.34 313.679 389.287 313.668C389.234 313.656 389.184 313.633 389.14 313.6C371.1 303.82 367.28 332 348.66 322Z" fill="white"/>
<path d="M67.56 276C64.273 274.264 61.1119 272.299 58.1 270.12C54.1 267.1 55.28 264.42 59.18 266.48C63.078 268.301 67.0858 269.878 71.18 271.2C68.4051 269.499 65.7701 267.579 63.3 265.46C59.54 262.14 61 260 64.86 262.12C70.2541 265.299 76.0081 267.823 82 269.64C80.0169 266.766 78.4608 263.62 77.38 260.3C76.58 256.68 79.6 257.78 85.12 263.8C89.4522 268.32 95.0152 271.47 101.12 272.86C104.6 273.48 106.72 283.12 105.86 294.68C105.86 296.04 105.62 297.36 105.46 298.68C104.4 299.04 85.72 293.9 74.74 289.62C70.32 287.9 65.74 286.18 61.46 284.08C57.18 281.98 57.46 279.78 61.56 280.78C63.6157 281.201 65.6918 281.515 67.78 281.72C64.4219 280.474 61.1541 278.997 58 277.3C53.7 274.86 54.54 272.06 58.66 273.56C61.5838 274.522 64.5542 275.337 67.56 276V276Z" fill="#B2BEC3"/>
<path d="M203.18 371.74C207.996 369.401 211.709 365.274 213.528 360.239C215.346 355.203 215.126 349.656 212.915 344.78C210.704 339.904 206.676 336.084 201.69 334.134C196.703 332.183 191.153 332.257 186.22 334.34L169.12 296.6C169.099 296.554 169.069 296.512 169.032 296.478C168.995 296.444 168.952 296.417 168.904 296.399C168.857 296.382 168.807 296.373 168.756 296.375C168.706 296.377 168.656 296.389 168.61 296.41C168.564 296.431 168.523 296.461 168.488 296.498C168.454 296.535 168.427 296.578 168.409 296.625C168.392 296.673 168.384 296.723 168.385 296.774C168.387 296.824 168.399 296.874 168.42 296.92L185.52 334.64C180.834 337.054 177.256 341.178 175.526 346.157C173.796 351.136 174.046 356.589 176.225 361.389C178.404 366.189 182.345 369.967 187.232 371.942C192.119 373.917 197.578 373.938 202.48 372L210.7 390.1C210.751 390.175 210.827 390.23 210.914 390.255C211.002 390.279 211.095 390.271 211.178 390.232C211.26 390.194 211.326 390.127 211.363 390.044C211.4 389.961 211.406 389.867 211.38 389.78L203.18 371.74ZM205 336.66C207.938 338.572 210.315 341.229 211.889 344.361C213.464 347.492 214.179 350.986 213.961 354.484C213.743 357.982 212.601 361.36 210.651 364.272C208.7 367.184 206.012 369.527 202.86 371.06L186.52 335.06C189.495 333.79 192.737 333.272 195.96 333.551C199.183 333.83 202.287 334.898 205 336.66Z" fill="white"/>
<path d="M233.54 263.22C227.642 267.861 220.613 270.845 213.178 271.864C205.742 272.884 198.17 271.902 191.24 269.02C191.24 257.9 191.24 258.34 191.24 258.14C191.215 258.065 191.166 257.999 191.102 257.953C191.037 257.907 190.96 257.882 190.88 257.882C190.801 257.882 190.723 257.907 190.658 257.953C190.594 257.999 190.546 258.065 190.52 258.14C185.6 271.18 176.52 284.34 168.74 296.14C166.663 299.283 163.582 301.631 160 302.8C140.516 308.79 120.495 312.869 100.22 314.98C107 308.76 108.92 279.98 103 273.56C117.915 275.339 132.97 275.62 147.94 274.4C147.991 274.398 148.041 274.384 148.086 274.36C148.131 274.335 148.17 274.301 148.2 274.26C157.92 262 171.94 245.18 176.78 230.46C177.563 231.4 178.426 232.27 179.36 233.06C182.32 235.58 188.38 237.38 196.78 237.38C204.253 237.264 211.675 236.127 218.84 234L218.36 233.36C197.6 239.16 184 236 179.74 232.48C178.187 231.176 176.838 229.645 175.74 227.94C176.577 228.34 177.495 228.54 178.422 228.525C179.35 228.51 180.261 228.281 181.085 227.854C181.908 227.428 182.622 226.817 183.169 226.068C183.717 225.319 184.083 224.454 184.24 223.54C185.188 224.34 186.361 224.826 187.597 224.931C188.833 225.037 190.072 224.757 191.142 224.13C192.212 223.502 193.062 222.559 193.573 221.429C194.085 220.299 194.234 219.038 194 217.82C195.164 218.205 196.419 218.225 197.595 217.875C198.77 217.526 199.811 216.824 200.576 215.865C201.341 214.907 201.793 213.736 201.873 212.513C201.952 211.289 201.655 210.07 201.02 209.02C202.482 209.033 203.898 208.512 205.003 207.554C206.108 206.597 206.825 205.269 207.02 203.82C207.173 202.7 207.006 201.559 206.539 200.529C206.072 199.5 205.324 198.623 204.38 198C205.481 197.661 206.464 197.017 207.214 196.143C207.965 195.269 208.452 194.2 208.62 193.06C208.821 191.674 208.531 190.262 207.801 189.068C207.07 187.873 205.945 186.972 204.62 186.52C205.564 185.73 206.241 184.668 206.561 183.48C206.881 182.292 206.828 181.034 206.409 179.876C205.99 178.719 205.225 177.719 204.218 177.011C203.211 176.303 202.011 175.922 200.78 175.92C201.36 174.85 201.601 173.629 201.471 172.419C201.341 171.209 200.846 170.067 200.052 169.145C199.258 168.223 198.202 167.564 197.025 167.256C195.847 166.948 194.604 167.005 193.46 167.42C193.644 166.192 193.442 164.937 192.882 163.828C192.323 162.72 191.433 161.812 190.336 161.231C189.239 160.649 187.988 160.422 186.757 160.582C185.525 160.741 184.373 161.278 183.46 162.12C183.28 160.822 182.68 159.62 181.752 158.695C180.823 157.771 179.618 157.175 178.32 157H177.94C176.685 156.82 175.405 157.042 174.283 157.635C173.162 158.228 172.258 159.161 171.7 160.3C171.1 159.189 170.166 158.295 169.028 157.746C167.891 157.197 166.61 157.021 165.367 157.242C164.124 157.464 162.982 158.072 162.105 158.98C161.227 159.888 160.659 161.05 160.48 162.3C159.531 161.518 158.366 161.046 157.14 160.949C155.915 160.851 154.689 161.132 153.629 161.754C152.568 162.376 151.725 163.309 151.211 164.426C150.698 165.543 150.541 166.79 150.76 168C149.593 167.626 148.339 167.618 147.167 167.978C145.995 168.338 144.961 169.049 144.206 170.014C143.45 170.979 143.007 172.152 142.938 173.376C142.87 174.6 143.177 175.816 143.82 176.86C142.398 176.888 141.032 177.42 139.966 178.362C138.901 179.303 138.204 180.592 138 182C137.842 183.102 137.995 184.227 138.44 185.248C138.885 186.268 139.605 187.145 140.52 187.78C139.285 188.139 138.198 188.886 137.419 189.91C136.641 190.934 136.212 192.182 136.196 193.468C136.18 194.754 136.579 196.012 137.332 197.055C138.085 198.098 139.154 198.871 140.38 199.26C139.448 200.057 138.782 201.121 138.473 202.308C138.164 203.495 138.226 204.748 138.651 205.899C139.076 207.049 139.843 208.042 140.85 208.743C141.856 209.444 143.053 209.82 144.28 209.82C143.704 210.894 143.468 212.119 143.605 213.33C143.742 214.541 144.244 215.682 145.046 216.601C145.847 217.52 146.909 218.173 148.091 218.472C149.273 218.772 150.518 218.705 151.66 218.28C151.503 219.285 151.605 220.313 151.954 221.268C152.304 222.224 152.891 223.074 153.66 223.74C155.18 229.56 159.54 230.74 165.04 228.52C165.26 229.46 165.86 231.74 166.68 234.52C153.581 243.284 139.359 250.24 124.4 255.2C117.111 256.284 109.765 256.952 102.4 257.2L102.74 257.94C110.073 257.707 117.386 257.039 124.64 255.94C139.613 250.971 153.843 243.994 166.94 235.2C167.753 237.876 168.776 240.485 170 243C163.86 253.54 155.2 264.16 147.62 273.66C132.427 274.895 117.146 274.566 102.02 272.68C95.6677 271.431 89.8522 268.262 85.3601 263.6C82.4801 260.46 78.7601 256.96 77.3601 258.02C75.9601 259.08 78.6401 264.62 81.3601 269.14C75.6718 267.408 70.2075 265.011 65.0801 262C60.9001 259.68 58.8801 262.24 63.0801 266C64.7644 267.448 66.5415 268.784 68.4001 270C65.3207 268.942 62.3027 267.714 59.3601 266.32C55.2401 264.16 53.3601 267.14 57.8601 270.6C60.1989 272.278 62.6366 273.815 65.1601 275.2C62.3401 274.46 59.9601 273.7 58.8401 273.3C54.4601 271.72 52.9801 274.96 57.8801 277.72C60.1677 278.975 62.5324 280.084 64.9601 281.04C63.6401 280.86 62.5801 280.68 61.6601 280.46C59.6601 279.98 58.3201 280.2 58.0201 281.02C57.7201 281.84 58.9001 283.3 61.3001 284.48C71.3525 289.043 81.7272 292.86 92.34 295.9C92.0601 302.2 93.0201 317.38 98.5401 315.9C119.433 313.827 140.068 309.68 160.14 303.52C163.913 302.312 167.164 299.858 169.36 296.56C175.783 287.342 181.667 277.759 186.98 267.86C193.425 271.21 200.577 272.972 207.84 273C217.271 272.983 226.425 269.807 233.84 263.98C233.7 263.72 233.62 263.48 233.54 263.22ZM166.86 232.36L168.72 226.54C168.742 226.465 168.74 226.384 168.715 226.31C168.69 226.236 168.642 226.171 168.578 226.125C168.515 226.079 168.438 226.054 168.36 226.053C168.282 226.052 168.205 226.075 168.14 226.12C165.26 228.12 160.36 229.94 157.28 228.12C154.2 226.3 153.28 221.02 154.24 212.66C155.2 204.3 157.88 202.08 159.8 201.94C163.04 201.7 166.84 206.32 168 210.44C168 210.68 168.42 211.38 169.08 211.44C169.74 211.5 170.38 210.94 171.28 209.62C173.9 205.62 178.5 211.04 172.7 216.58C172.192 217.413 171.974 218.39 172.08 219.36C172.349 223.129 173.742 226.731 176.08 229.7C174.635 234.05 172.73 238.233 170.4 242.18C168.959 239.007 167.775 235.723 166.86 232.36ZM61.6401 283.74C59.2001 282.54 58.6201 281.52 58.7401 281.22C58.8601 280.92 59.6601 280.7 61.5001 281.22C63.0401 281.58 64.8801 281.82 67.7601 282.18C67.9601 282.18 69.3401 282.8 72.0801 283.68C72.1293 283.703 72.1829 283.715 72.2372 283.715C72.2915 283.716 72.3452 283.704 72.3948 283.682C72.4444 283.66 72.4886 283.627 72.5245 283.587C72.5605 283.546 72.5873 283.498 72.6032 283.446C72.619 283.394 72.6236 283.34 72.6165 283.286C72.6095 283.232 72.5909 283.18 72.5622 283.134C72.5335 283.088 72.4952 283.049 72.45 283.019C72.4048 282.989 72.3537 282.969 72.3001 282.96C67.4793 281.389 62.7967 279.422 58.3001 277.08C56.0001 275.78 55.4801 274.54 55.7001 274.06C55.9201 273.58 56.9201 273.4 58.6601 274.06C61.613 275.087 64.6251 275.935 67.6801 276.6C70.0201 277.88 72.0801 278.92 73.1801 279.46C73.6201 279.66 73.9601 278.98 73.5001 278.78C68.2305 276.232 63.1566 273.297 58.3201 270C56.1601 268.36 55.8201 267.04 56.1001 266.6C56.3801 266.16 57.3801 266.14 59.0001 267C62.8992 268.813 66.9069 270.383 71.0001 271.7C72.5401 272.66 73.8001 273.36 74.4201 273.7C74.4646 273.724 74.5135 273.739 74.5639 273.744C74.6144 273.75 74.6653 273.744 74.7138 273.73C74.7622 273.715 74.8072 273.69 74.8461 273.658C74.8849 273.625 74.9169 273.585 74.9401 273.54C74.9828 273.452 74.9901 273.351 74.9603 273.258C74.9305 273.165 74.8659 273.087 74.7801 273.04C70.7692 270.89 67.0009 268.315 63.5401 265.36C61.5401 263.64 61.3001 262.46 61.5401 262.08C61.7801 261.7 62.9801 261.72 64.6401 262.64C71.0965 266.515 78.1224 269.349 85.4601 271.04C85.5543 271.052 85.6497 271.028 85.7272 270.973C85.8048 270.918 85.859 270.836 85.8791 270.743C85.8991 270.65 85.8837 270.553 85.8357 270.471C85.7878 270.389 85.7108 270.328 85.6201 270.3C84.4801 270.06 83.4 269.78 82.34 269.5C82.34 269.3 76.3401 259.74 77.7401 258.68C78.0601 258.44 79.9601 258.94 84.7401 264.16C89.2307 268.827 95.0097 272.051 101.34 273.42C104.42 274.54 106.24 283.88 105.34 294.76C105.34 295.94 105.14 297.14 104.98 298.32C96.7601 297.04 72.4401 289.04 61.6401 283.74Z" fill="white"/>
<path d="M323.32 95.9998C322.797 95.3203 322.486 94.501 322.428 93.6453C322.37 92.7897 322.567 91.936 322.994 91.192C323.421 90.4481 324.058 89.8473 324.826 89.4655C325.594 89.0837 326.458 88.938 327.309 89.0468C328.16 89.1556 328.959 89.514 329.606 90.0767C330.254 90.6395 330.719 91.3814 330.945 92.2088C331.171 93.0361 331.147 93.9119 330.875 94.7254C330.604 95.539 330.097 96.2539 329.42 96.7798C328.507 97.4823 327.352 97.7946 326.209 97.6485C325.066 97.5023 324.027 96.9096 323.32 95.9998ZM324.58 90.4998C324.018 90.931 323.597 91.519 323.37 92.1895C323.142 92.86 323.119 93.5829 323.302 94.2668C323.486 94.9507 323.868 95.5648 324.4 96.0316C324.933 96.4983 325.591 96.7967 326.293 96.889C326.995 96.9813 327.709 96.8633 328.344 96.5501C328.979 96.2368 329.507 95.7423 329.861 95.1291C330.215 94.5158 330.379 93.8114 330.332 93.1049C330.286 92.3984 330.031 91.7215 329.6 91.1598C329.01 90.4202 328.153 89.9426 327.213 89.8303C326.274 89.7181 325.328 89.9801 324.58 90.5598V90.4998Z" fill="white"/>
<path d="M374.54 136.26C374.54 135.04 372.84 134 369.5 133.18L369.04 114.94C376.8 89.5199 377.56 77.7999 376.28 62.5799C376.274 62.5109 376.249 62.445 376.208 62.3891C376.168 62.3333 376.112 62.2896 376.048 62.2628C375.985 62.2361 375.915 62.2273 375.846 62.2373C375.778 62.2474 375.713 62.2759 375.66 62.3199C366.38 70.3199 349.28 97.1599 346 107.38C345.991 107.433 345.991 107.487 346 107.54C347.386 115.617 348.015 123.806 347.88 132C344.52 132.24 334.46 133.2 334.58 136.56C335.12 152.56 336.32 188.9 336.4 194.3C333.62 194.78 325.4 196.62 315.88 198.82C331.04 175.16 328.12 169.02 323.28 158.96C316.72 145.24 296.34 108.96 288.76 96.5999C288.16 94.5999 284.08 95.7799 282.14 96.3799L272.88 80.4799C271.44 60.7399 270.04 49.2999 263.48 30.0199C263.449 29.9567 263.4 29.9035 263.34 29.8664C263.28 29.8292 263.211 29.8096 263.14 29.8096C263.069 29.8096 263 29.8292 262.94 29.8664C262.88 29.9035 262.832 29.9567 262.8 30.0199C256.06 42.0199 248.94 70.0199 248.36 82.7199C248.345 82.7546 248.338 82.7921 248.338 82.8299C248.338 82.8677 248.345 82.9051 248.36 82.9399C252.84 90.1599 259.44 101.38 262.36 106.7C259.96 108.4 252.62 113.84 254.06 116.38C257.5 122.38 283.44 165.74 284.76 168.12C282.28 170.12 272.56 180.6 264.76 187.96L265.1 188.68C273.36 180.9 283.28 170.12 285.46 168.52C285.94 168.16 286.82 170.1 262.72 129.62C275.657 127.089 287.318 120.156 295.72 110C302.16 121.22 317.26 148.16 322.6 159.36C327.34 169.36 330.22 175.36 314.82 199.14C307.8 200.78 276.06 208.22 274.4 208.54L274.74 209.24C276.74 208.82 332.74 195.72 336.74 195.08C336.828 195.062 336.908 195.015 336.966 194.946C337.024 194.877 337.057 194.79 337.06 194.7C337.06 191.66 336.34 169.78 335.74 152.12C348.64 156.24 361.5 155.66 374.5 152.12C375.36 171.12 376.06 196.12 375.32 206.38C373.74 228.14 375.32 226.82 295.74 254.84L296.06 255.52C374.56 227.9 374.48 228.6 375.96 207.74C377.22 191.44 375.48 151.36 374.54 136.26ZM255.04 92.2599C260.234 87.6907 266.095 83.9409 272.42 81.1399L284.42 101.7C279.04 106.183 273.097 109.942 266.74 112.88C263.38 106.4 258.98 99.0199 255.04 92.3399V92.2599ZM262.44 128.8C259.56 123.96 257.06 119.72 255.44 116.94C262.08 118.08 286.34 103.92 288.66 97.7999C290.4 100.66 292.66 104.6 295.32 109.14C287.008 119.365 275.372 126.351 262.44 128.88V128.8ZM368.44 118.36C368.44 119.46 368.98 139.72 368.96 138.64C362.226 139.912 355.352 140.282 348.52 139.74C348.934 132.742 348.834 125.723 348.22 118.74C354.912 119.63 361.698 119.529 368.36 118.44L368.44 118.36ZM335.9 151.16C335.74 146.08 335.58 141.38 335.46 137.62C340.42 141.62 369.02 141.76 373.94 137.44C374.16 141.26 374.42 145.98 374.64 151.16C360.52 155.14 347.82 155.12 335.82 151.24L335.9 151.16Z" fill="white"/>
</svg>
