<svg width="293" height="240" viewBox="0 0 293 240" fill="none" xmlns="http://www.w3.org/2000/svg">
<path d="M20.2885 177.842C21.5009 185.141 22.9659 192.365 24.7087 199.564C24.835 200.044 25.5422 199.842 25.4411 199.362C23.6983 192.188 22.2081 184.939 21.021 177.64C20.92 177.16 20.1875 177.362 20.2885 177.842Z" fill="#DFE6E9"/>
<path d="M44.7635 178.852C43.3996 185.318 42.2377 191.86 41.3031 198.402C41.2274 198.882 41.9599 199.084 42.0356 198.604C42.9702 192.037 44.132 185.52 45.496 179.054C45.597 178.574 44.8645 178.372 44.7635 178.852Z" fill="#DFE6E9"/>
<path d="M24.8602 199.817C30.3665 202.292 36.8578 202.519 41.8841 198.781C42.263 198.503 41.8841 197.846 41.5053 198.124C36.7315 201.686 30.518 201.534 25.2643 199.16C24.8097 198.958 24.4056 199.614 24.8602 199.817Z" fill="#DFE6E9"/>
<path d="M20.5158 177.766C22.3849 178.625 24.3297 178.802 26.3504 178.928C28.6236 179.054 30.8968 179.13 33.1701 179.155C37.3629 179.231 41.7073 179.433 45.6728 177.791C46.1274 177.615 45.9254 176.882 45.4707 177.059C41.7325 178.625 37.6407 178.473 33.6752 178.423C31.5535 178.398 29.4571 178.322 27.3354 178.221C25.138 178.12 22.9153 178.069 20.8946 177.135C20.44 176.907 20.0611 177.564 20.5158 177.766Z" fill="#DFE6E9"/>
<path d="M44.9403 177.539C43.4501 184.51 42.1367 191.532 41.0506 198.579C40.9748 199.059 41.7073 199.261 41.783 198.781C42.8691 191.734 44.1573 184.712 45.6728 177.741C45.7738 177.261 45.0413 177.059 44.9403 177.539Z" fill="#DFE6E9"/>
<path d="M22.6376 189.612C24.3046 193.552 26.4263 197.291 28.9773 200.726C29.2552 201.105 29.9119 200.726 29.634 200.347C27.083 196.887 24.9613 193.174 23.2943 189.233C23.0922 188.779 22.4608 189.183 22.6376 189.612Z" fill="#DFE6E9"/>
<path d="M20.7936 178.398C24.2034 186.455 28.5731 194.058 33.8267 201.054C34.1046 201.433 34.7865 201.054 34.4835 200.675C29.2298 193.679 24.8601 186.076 21.4503 178.019C21.2735 177.564 20.6168 177.943 20.7936 178.398Z" fill="#DFE6E9"/>
<path d="M26.6282 178.726C29.6339 186.228 33.4731 193.325 38.1206 199.918C38.3984 200.322 39.0552 199.943 38.7773 199.539C34.1551 192.997 30.3159 185.95 27.3607 178.524C27.1839 178.095 26.4514 178.271 26.6282 178.726Z" fill="#DFE6E9"/>
<path d="M31.5535 178.878C34.2056 185.192 37.4386 191.254 41.2021 196.988C41.4799 197.392 42.1366 197.013 41.8588 196.609C38.1206 190.926 34.9128 184.94 32.286 178.676C32.1092 178.246 31.3767 178.448 31.5535 178.878Z" fill="#DFE6E9"/>
<path d="M36.2011 179.433C37.8176 183.449 39.7877 187.288 42.1115 190.951C42.3641 191.355 43.0208 190.976 42.7682 190.572C40.4697 186.985 38.5248 183.197 36.9336 179.256C36.7568 178.777 36.0243 178.979 36.2011 179.433Z" fill="#DFE6E9"/>
<path d="M40.0908 179.08C41.0254 181.277 42.0862 183.399 43.2986 185.445C43.5512 185.874 44.2079 185.495 43.9553 185.066C42.7429 183.02 41.6821 180.898 40.7476 178.701C40.5708 178.246 39.914 178.625 40.0908 179.08Z" fill="#DFE6E9"/>
<path d="M43.1724 178.473C43.526 179.307 43.9302 180.115 44.4353 180.873C44.7132 181.277 45.3699 180.898 45.092 180.494C44.6374 179.787 44.2333 179.054 43.9049 178.271C43.7028 177.817 42.9704 178.019 43.1724 178.473Z" fill="#DFE6E9"/>
<path d="M30.796 178.246C30.4171 175.746 30.3161 173.22 30.4424 170.669C30.2908 170.795 30.114 170.921 29.9625 171.022C30.4929 171.224 31.478 171.831 32.0589 171.553C32.5641 171.3 32.463 170.542 32.4883 170.063C32.5893 168.673 32.7409 167.436 33.4733 166.223C34.1048 165.188 34.9383 164.278 35.6961 163.319C38.727 159.53 41.5054 155.539 44.0565 151.397C43.8292 151.397 43.6271 151.397 43.3998 151.397C44.6627 153.594 45.0921 156.524 45.3699 159.025C45.6477 161.5 45.5467 164.001 44.8647 166.4C44.2333 168.623 43.1977 170.694 41.9601 172.639C40.7224 174.533 39.2574 176.655 37.4641 178.069C37.0853 178.372 37.6157 178.903 37.9945 178.6C39.8889 177.11 41.4549 174.862 42.7431 172.841C44.0565 170.795 45.1173 168.572 45.7235 166.223C46.3802 163.723 46.4307 161.121 46.1024 158.57C45.774 156.07 45.3446 153.241 44.0817 151.043C43.9302 150.791 43.5766 150.816 43.425 151.043C41.0002 154.984 38.3734 158.797 35.494 162.435C34.3574 163.874 32.9177 165.289 32.261 167.032C31.9579 167.815 31.8568 168.623 31.8063 169.456C31.7811 169.684 31.8821 170.719 31.68 170.846C31.5285 170.947 30.3919 170.391 30.1898 170.315C29.9372 170.239 29.7352 170.441 29.7099 170.669C29.5584 173.27 29.7099 175.847 30.0888 178.423C30.1393 178.928 30.8718 178.726 30.796 178.246Z" fill="#DFE6E9"/>
<path d="M15.3128 153.67C16.0452 158.267 17.1819 162.813 18.7226 167.208C20.1118 171.149 21.7283 174.861 24.532 177.993C24.8603 178.347 25.3907 177.817 25.0624 177.463C22.1324 174.205 20.5159 170.214 19.1267 166.097C17.7375 161.98 16.702 157.736 16.02 153.443C15.9695 152.988 15.237 153.19 15.3128 153.67Z" fill="#DFE6E9"/>
<path d="M15.3885 153.19C16.8787 154.579 18.7226 155.337 20.718 155.615C21.4504 155.716 23.6984 155.463 24.0015 156.221C24.1531 156.6 23.85 157.636 23.7995 158.065C23.7237 158.823 23.6479 159.606 23.5469 160.363C23.5216 160.641 23.7994 160.768 24.0268 160.717C24.9108 160.591 25.7948 160.464 26.6789 160.338C27.8407 160.187 28.3712 160.995 29.1794 161.727C30.5686 163.015 31.9325 164.329 33.3217 165.617C33.6753 165.945 34.2058 165.415 33.8522 165.087C32.0841 163.42 30.3665 161.525 28.4469 160.01C27.2093 159.025 25.2897 159.782 23.8247 159.985C23.9763 160.111 24.1531 160.237 24.3046 160.338C24.4562 158.974 24.9108 157.307 24.7593 155.943C24.6835 155.287 24.2288 155.084 23.6226 155.034C20.7685 154.807 18.1416 154.756 15.8937 152.66C15.5653 152.306 15.0096 152.837 15.3885 153.19Z" fill="#DFE6E9"/>
<path d="M15.4391 152.786C15.8685 162.131 20.1371 170.593 24.8604 178.473C25.113 178.903 25.7697 178.499 25.5171 178.095C20.8696 170.315 16.6263 162.005 16.1969 152.786C16.1716 152.281 15.4139 152.281 15.4391 152.786Z" fill="#DFE6E9"/>
<path d="M20.8443 177.564C22.0314 177.615 23.1933 177.589 24.3804 177.463C24.8603 177.413 24.8603 176.655 24.3804 176.705C23.1933 176.832 22.0314 176.857 20.8443 176.806C20.3392 176.781 20.3392 177.539 20.8443 177.564Z" fill="#DFE6E9"/>
<path d="M21.7536 177.892C22.7639 177.867 23.7489 178.044 24.6835 178.423C25.1381 178.6 25.517 177.968 25.0624 177.766C24.0015 177.312 22.9154 177.084 21.7536 177.109C21.2736 177.16 21.2736 177.918 21.7536 177.892Z" fill="#DFE6E9"/>
<path d="M37.5146 178.928C40.0151 177.893 42.6167 177.488 45.3193 177.766C45.7992 177.817 45.7992 177.059 45.3193 177.008C42.5662 176.756 39.8636 177.135 37.3125 178.221C36.8831 178.372 37.0599 179.105 37.5146 178.928Z" fill="#DFE6E9"/>
<path d="M39.1816 178.625C40.7476 177.994 42.4651 178.297 44.0816 178.019C44.5615 177.943 44.3595 177.211 43.8796 177.286C42.2378 177.564 40.5455 177.236 38.9795 177.893C38.5501 178.095 38.7522 178.827 39.1816 178.625Z" fill="#DFE6E9"/>
<path d="M39.3836 177.564C41.3032 177.766 43.2229 177.791 45.1677 177.64C45.6476 177.615 45.6476 176.857 45.1677 176.882C43.2229 177.008 41.3032 176.983 39.3836 176.806C38.9037 176.756 38.9037 177.514 39.3836 177.564Z" fill="#DFE6E9"/>
<path d="M43.6775 153.266C41.8337 162.384 34.6604 169.305 32.7155 178.398C32.6397 178.751 33.1954 178.903 33.2712 178.549C35.2161 169.456 42.3894 162.536 44.2332 153.417C44.309 153.064 43.7533 152.912 43.6775 153.266Z" fill="#DFE6E9"/>
<path d="M15.2623 152.66C15.8937 158.823 17.6366 164.758 20.4655 170.265C20.6423 170.593 21.1222 170.315 20.9454 169.987C18.1922 164.581 16.4494 158.722 15.8432 152.66C15.7927 152.306 15.2118 152.281 15.2623 152.66Z" fill="#DFE6E9"/>
<path d="M15.7422 152.836C17.7376 154.402 20.0108 155.413 22.5366 155.792C22.8902 155.842 23.0418 155.286 22.6881 155.236C20.2886 154.882 18.0659 153.948 16.1463 152.432C15.8432 152.205 15.4391 152.609 15.7422 152.836Z" fill="#DFE6E9"/>
<path d="M34.913 163.799C35.595 166.021 35.8981 168.269 35.797 170.568C35.7718 170.921 36.3527 170.921 36.378 170.568C36.4537 168.193 36.1506 165.895 35.4687 163.647C35.3676 163.293 34.812 163.445 34.913 163.799Z" fill="#DFE6E9"/>
<path d="M43.4501 151.978C43.7532 152.988 43.6774 154.024 43.1975 154.984C43.0207 155.312 43.5259 155.59 43.6774 155.261C44.2331 154.175 44.3341 152.988 43.9805 151.826C43.9047 151.473 43.349 151.624 43.4501 151.978Z" fill="#DFE6E9"/>
<path d="M38.8279 165.693C41.3789 163.748 43.93 161.803 45.9506 159.252C46.178 158.974 45.7738 158.57 45.5465 158.848C43.5764 161.348 41.0758 163.293 38.55 165.188C38.2722 165.415 38.55 165.92 38.8279 165.693Z" fill="#DFE6E9"/>
<path d="M15.8936 153.822C18.0153 157.635 20.3391 161.298 22.8901 164.834C25.2896 168.168 28.3459 171.275 29.6593 175.215C29.7856 175.569 30.316 175.417 30.215 175.064C28.9015 171.199 26.0221 168.168 23.6479 164.91C20.9958 161.273 18.571 157.459 16.3736 153.518C16.222 153.215 15.7168 153.518 15.8936 153.822Z" fill="#DFE6E9"/>
<path d="M21.2735 155.413C21.122 157.989 21.3493 160.54 21.9303 163.041C22.006 163.394 22.5617 163.243 22.4859 162.889C21.905 160.414 21.7029 157.939 21.8545 155.413C21.8797 155.034 21.2988 155.034 21.2735 155.413Z" fill="#DFE6E9"/>
<path d="M28.9267 161.803C28.169 164.708 27.7143 167.638 27.5375 170.618C27.5123 170.972 28.0932 170.972 28.1185 170.618C28.2953 167.688 28.7499 164.784 29.4824 161.955C29.5834 161.601 29.0277 161.45 28.9267 161.803Z" fill="#DFE6E9"/>
<path d="M21.4504 172.31C22.4354 172.992 24.0267 173.144 25.1886 173.296C26.4262 173.472 27.6133 173.447 28.8005 173.169C29.1541 173.093 29.0025 172.538 28.6489 172.614C27.3607 172.891 26.1484 172.866 24.8602 172.664C23.9004 172.513 22.5112 172.361 21.7282 171.805C21.4251 171.628 21.1473 172.108 21.4504 172.31Z" fill="#DFE6E9"/>
<path d="M250.819 198.478C264.66 198.478 278.476 198.478 292.318 198.478C292.671 198.478 292.697 197.897 292.318 197.897C278.476 197.897 264.66 197.897 250.819 197.897C250.44 197.897 250.44 198.478 250.819 198.478Z" fill="#DFE6E9"/>
<path d="M262.033 197.67C261.301 197.897 259.785 190.218 259.71 189.511C259.381 186.733 259.457 183.904 259.912 181.126C259.735 181.126 259.558 181.126 259.356 181.126C259.861 182.54 260.695 183.626 261.907 184.51C262.21 184.712 262.488 184.232 262.185 184.03C261.099 183.247 260.341 182.237 259.886 180.999C259.811 180.772 259.381 180.696 259.331 180.999C258.775 184.359 258.775 187.794 259.356 191.153C259.659 192.921 260.114 194.639 260.745 196.331C260.947 196.887 261.276 198.554 262.185 198.251C262.538 198.099 262.387 197.543 262.033 197.67Z" fill="#DFE6E9"/>
<path d="M262.336 183.929C261.756 181.025 262.715 178.221 263.928 175.594C265.014 173.245 266.251 170.997 267.514 168.749C269.964 164.379 272.49 160.01 274.284 155.312C274.107 155.312 273.93 155.312 273.728 155.312C275.193 159.681 276.153 164.177 276.532 168.774C276.708 171.022 276.734 173.296 276.683 175.544C276.658 176.655 276.759 177.893 276.532 178.979C276.279 180.267 275.294 180.949 274.258 181.605C274.056 181.732 274.081 181.959 274.258 182.085C274.587 182.338 274.865 182.388 275.294 182.414C275.521 182.414 275.824 182.338 276.052 182.388C277.188 182.666 277.011 183.55 276.936 184.258C276.759 185.95 276.43 187.642 275.976 189.284C275.067 192.466 273.652 195.472 271.783 198.2C271.581 198.503 272.061 198.781 272.263 198.478C274.486 195.22 276.077 191.582 276.936 187.743C277.138 186.884 277.289 186 277.39 185.116C277.491 184.384 277.719 183.475 277.466 182.742C276.936 181.252 275.496 182.338 274.536 181.605C274.536 181.757 274.536 181.934 274.536 182.085C275.976 181.151 277.037 180.216 277.138 178.423C277.289 175.67 277.315 172.891 277.163 170.164C276.885 165.036 275.9 159.985 274.258 155.135C274.157 154.857 273.804 154.882 273.703 155.135C271.732 160.363 268.803 165.162 266.1 170.037C263.801 174.205 260.77 179.08 261.756 184.055C261.857 184.434 262.412 184.283 262.336 183.929Z" fill="#DFE6E9"/>
<path d="M277.39 171.149C278.072 169.81 278.754 168.471 279.436 167.107C279.765 166.476 280.093 165.844 280.396 165.188C280.548 164.91 280.674 164.632 280.825 164.329C280.927 164.127 281.028 163.925 281.129 163.748C281.331 163.268 281.76 163.142 282.442 163.344C282.442 163.571 282.77 163.748 282.922 163.546C286.306 159.58 289.211 155.261 291.636 150.639C291.459 150.588 291.282 150.538 291.106 150.487C291.03 154.074 290.979 157.686 291.156 161.273C291.232 162.914 291.383 164.581 291.611 166.223C291.712 166.981 292.015 167.865 291.99 168.648C292.192 169.128 292.065 169.532 291.585 169.835C291.434 170.34 291.106 170.643 290.626 170.719C290.196 170.921 289.666 171.022 289.211 171.123C288.933 171.199 288.933 171.603 289.211 171.679C291.484 172.26 290.701 175.139 290.373 176.756C290.196 177.64 290.146 178.625 289.009 178.701C288.554 178.726 288.277 178.574 287.822 178.701C287.62 178.751 287.569 178.953 287.645 179.13C287.847 179.61 288.176 179.61 288.504 179.938C289.337 180.747 288.731 182.464 288.504 183.399C288.1 185.141 287.569 186.834 286.913 188.501C285.599 191.885 283.806 195.017 281.608 197.897C281.381 198.2 281.886 198.478 282.088 198.175C284.488 195.017 286.408 191.557 287.746 187.819C288.428 185.95 288.959 184.005 289.337 182.06C289.438 181.504 289.742 180.646 289.489 180.09C289.211 179.458 288.378 179.433 288.1 178.802C288.049 178.953 287.999 179.08 287.923 179.231C288.681 179.029 289.666 179.686 290.297 179.004C290.954 178.322 290.929 176.63 291.106 175.745C291.434 173.977 291.434 171.654 289.312 171.123C289.312 171.3 289.312 171.477 289.312 171.679C290.398 171.376 292.545 171.149 292.672 169.709C292.722 169.002 292.444 168.219 292.318 167.537C292.116 166.274 291.964 165.011 291.838 163.723C291.459 159.328 291.535 154.908 291.611 150.487C291.611 150.21 291.207 150.083 291.08 150.336C288.706 154.908 285.801 159.201 282.467 163.116C282.619 163.192 282.796 163.243 282.947 163.319C282.897 161.778 281.204 162.384 280.649 163.268C279.158 165.617 278.072 168.345 276.809 170.82C276.734 171.174 277.214 171.477 277.39 171.149Z" fill="#DFE6E9"/>
<path d="M290.752 151.548C288.15 167.814 280.27 182.515 275.193 198.074C275.092 198.427 275.622 198.579 275.748 198.225C280.8 182.691 288.706 167.991 291.307 151.7C291.358 151.346 290.828 151.195 290.752 151.548Z" fill="#DFE6E9"/>
<path d="M279.663 165.339C279.891 170.795 280.447 176.226 281.255 181.631C281.305 181.984 281.861 181.833 281.81 181.479C281.002 176.125 280.472 170.745 280.244 165.339C280.219 164.96 279.638 164.96 279.663 165.339Z" fill="#DFE6E9"/>
<path d="M285.599 172.235C287.392 169.406 289.918 167.183 292.015 164.607C292.242 164.329 291.838 163.925 291.611 164.203C289.489 166.829 286.938 169.077 285.119 171.957C284.892 172.26 285.397 172.538 285.599 172.235Z" fill="#DFE6E9"/>
<path d="M273.526 156.272C273.349 170.542 265.822 183.752 266.782 198.124C266.807 198.478 267.363 198.478 267.363 198.124C266.403 183.752 273.93 170.542 274.107 156.272C274.107 155.893 273.526 155.893 273.526 156.272Z" fill="#DFE6E9"/>
<path d="M263.852 174.558C264.635 178.827 265.847 182.995 267.464 187.011C267.59 187.339 268.146 187.187 268.019 186.859C266.403 182.843 265.191 178.675 264.408 174.407C264.332 174.028 263.801 174.179 263.852 174.558Z" fill="#DFE6E9"/>
<path d="M270.015 177.842C272.516 174.988 275.42 171.957 276.986 168.471C277.138 168.143 276.658 167.84 276.506 168.193C274.94 171.629 272.086 174.634 269.611 177.438C269.384 177.716 269.788 178.12 270.015 177.842Z" fill="#DFE6E9"/>
<path d="M270.04 163.192C270.419 165.465 270.949 167.713 271.556 169.936C271.657 170.29 272.212 170.138 272.111 169.785C271.48 167.562 270.975 165.314 270.596 163.041C270.52 162.687 269.99 162.839 270.04 163.192Z" fill="#DFE6E9"/>
<path d="M276.633 195.523C278.855 194.108 281.129 192.744 283.301 191.229C285.044 190.016 286.988 188.703 288.075 186.859C288.251 186.531 287.771 186.253 287.595 186.581C286.433 188.577 284.16 189.991 282.29 191.254C280.346 192.567 278.35 193.78 276.38 195.043C276.026 195.22 276.33 195.725 276.633 195.523Z" fill="#DFE6E9"/>
<path d="M13.7215 199.741C18.1417 199.741 22.5618 199.741 26.982 199.741C27.3356 199.741 27.3609 199.16 26.982 199.16C22.5618 199.16 18.1417 199.16 13.7215 199.16C13.3426 199.185 13.3426 199.741 13.7215 199.741Z" fill="#DFE6E9"/>
<path d="M41.1768 199.943C44.6119 199.943 48.0218 199.943 51.4569 199.943C51.8105 199.943 51.8357 199.362 51.4569 199.362C48.0218 199.362 44.6119 199.362 41.1768 199.362C40.8232 199.362 40.8232 199.943 41.1768 199.943Z" fill="#DFE6E9"/>
<path d="M145.139 33.1891C145.139 50.9456 145.139 68.702 145.139 86.4584C145.139 91.4847 145.139 96.5111 145.139 101.537C145.139 101.891 145.72 101.916 145.72 101.537C145.72 83.781 145.72 66.0246 145.72 48.2682C145.72 43.2419 145.72 38.2155 145.72 33.1891C145.695 32.8355 145.139 32.8355 145.139 33.1891Z" fill="#DFE6E9"/>
<path d="M145.467 33.467C164.184 33.467 182.9 33.467 201.641 33.467C206.92 33.467 212.225 33.467 217.503 33.467C217.857 33.467 217.882 32.8861 217.503 32.8861C198.787 32.8861 180.071 32.8861 161.33 32.8861C156.051 32.8861 150.746 32.8861 145.467 32.8861C145.114 32.9113 145.114 33.467 145.467 33.467Z" fill="#DFE6E9"/>
<path d="M145.644 102.245C164.108 102.245 182.572 102.245 201.035 102.245C206.238 102.245 211.442 102.245 216.645 102.245C216.998 102.245 217.024 101.664 216.645 101.664C198.181 101.664 179.717 101.664 161.254 101.664C156.051 101.664 150.847 101.664 145.644 101.664C145.291 101.689 145.291 102.245 145.644 102.245Z" fill="#DFE6E9"/>
<path d="M217.226 33.3659C217.226 51.0213 217.226 68.6767 217.226 86.3068C217.226 91.3584 217.226 96.3848 217.226 101.436C217.226 101.79 217.807 101.815 217.807 101.436C217.807 83.781 217.807 66.1256 217.807 48.4955C217.807 43.4439 217.807 38.4175 217.807 33.3659C217.807 33.0123 217.226 32.987 217.226 33.3659Z" fill="#DFE6E9"/>
<path d="M216.518 102.245C216.948 102.27 217.402 102.093 217.68 101.765C217.908 101.487 217.529 101.083 217.276 101.361C217.074 101.588 216.821 101.689 216.518 101.664C216.165 101.664 216.165 102.219 216.518 102.245Z" fill="#DFE6E9"/>
<path d="M145.366 72.7684C163.906 72.7684 182.445 72.7684 200.985 72.7684C206.264 72.7684 211.568 72.7684 216.847 72.7684C217.2 72.7684 217.226 72.1875 216.847 72.1875C198.307 72.1875 179.768 72.1875 161.228 72.1875C155.949 72.1875 150.645 72.1875 145.366 72.1875C145.013 72.2127 145.013 72.7684 145.366 72.7684Z" fill="#DFE6E9"/>
<path d="M149.105 65.4184C169.917 65.4184 190.73 65.4184 211.517 65.4184C211.871 65.4184 211.896 64.8375 211.517 64.8375C190.705 64.8375 169.892 64.8375 149.105 64.8375C148.726 64.8628 148.726 65.4184 149.105 65.4184Z" fill="#DFE6E9"/>
<path d="M148.953 57.26C169.134 57.26 189.315 57.26 209.497 57.26C209.85 57.26 209.875 56.679 209.497 56.679C189.315 56.679 169.134 56.679 148.953 56.679C148.599 56.679 148.599 57.26 148.953 57.26Z" fill="#DFE6E9"/>
<path d="M152.717 48.2681C170.448 48.2681 188.179 48.2681 205.885 48.2681C206.238 48.2681 206.264 47.6872 205.885 47.6872C188.154 47.6872 170.422 47.6872 152.717 47.6872C152.338 47.7125 152.338 48.2681 152.717 48.2681Z" fill="#DFE6E9"/>
<path d="M158.198 38.4933C174.439 38.4933 190.705 38.4933 206.946 38.4933C207.299 38.4933 207.325 37.9124 206.946 37.9124C190.705 37.9124 174.439 37.9124 158.198 37.9124C157.844 37.9376 157.844 38.4933 158.198 38.4933Z" fill="#DFE6E9"/>
<path d="M146.806 72.7684C146.806 81.6592 146.806 90.5501 146.806 99.4156C146.806 99.7693 147.387 99.7945 147.387 99.4156C147.387 90.5248 147.387 81.634 147.387 72.7684C147.362 72.4148 146.806 72.4148 146.806 72.7684Z" fill="#DFE6E9"/>
<path d="M147.084 99.9966C164.714 99.9966 182.37 99.9966 200 99.9966C205.051 99.9966 210.078 99.9966 215.129 99.9966C215.483 99.9966 215.508 99.4157 215.129 99.4157C197.499 99.4157 179.844 99.4157 162.214 99.4157C157.162 99.4157 152.136 99.4157 147.084 99.4157C146.73 99.4157 146.73 99.9966 147.084 99.9966Z" fill="#DFE6E9"/>
<path d="M215.255 73.2988C215.255 82.0129 215.255 90.7016 215.255 99.4157C215.255 99.7693 215.836 99.7945 215.836 99.4157C215.836 90.7016 215.836 82.0129 215.836 73.2988C215.811 72.9452 215.255 72.9452 215.255 73.2988Z" fill="#DFE6E9"/>
<path d="M147.412 89.6408C147.311 87.8728 148.978 86.7614 150.57 87.6707C150.696 87.7465 150.873 87.696 150.949 87.5697C151.378 86.8119 151.327 86.1047 151.428 85.2712C151.53 84.5387 151.782 83.8567 152.616 83.7557C153.02 83.7052 153.424 83.9072 153.828 83.8315C154.409 83.7052 154.636 83.3516 154.914 82.8464C155.419 81.8613 155.722 80.9773 156.632 80.2701C158.88 78.4515 161.405 80.3206 162.214 82.6443C162.971 84.8671 162.416 87.3929 162.39 89.6913C162.39 89.8934 162.567 89.9944 162.744 89.9692C166.331 89.2367 168.225 93.96 165.093 95.9048C164.891 96.0311 164.916 96.3595 165.169 96.4352C166.457 96.8394 168.175 97.976 167.164 99.5672C166.962 99.8703 167.467 100.173 167.644 99.8451C168.857 97.9507 166.987 96.41 165.32 95.8796C165.346 96.0564 165.371 96.2332 165.396 96.41C166.962 95.4249 167.77 93.4548 167.063 91.6867C166.356 89.9187 164.386 89.0599 162.593 89.4388C162.719 89.5398 162.82 89.6156 162.946 89.7166C162.971 87.115 163.653 84.2356 162.441 81.7856C161.633 80.1185 159.94 78.6788 157.97 79.0324C157.086 79.184 156.303 79.7144 155.697 80.3711C154.939 81.1794 154.51 83.1748 153.373 83.3263C152.464 83.4526 151.883 83.0485 151.277 83.9578C150.595 84.9681 151.024 86.2815 150.443 87.3423C150.57 87.3171 150.696 87.2666 150.822 87.2413C148.903 86.1552 146.68 87.4686 146.806 89.7166C146.857 90.0197 147.438 90.0197 147.412 89.6408Z" fill="#DFE6E9"/>
<path d="M178.96 72.516C178.96 81.5331 178.96 90.5502 178.96 99.5673C178.96 99.921 179.541 99.9462 179.541 99.5673C179.541 90.5502 179.541 81.5331 179.541 72.516C179.515 72.1371 178.96 72.1371 178.96 72.516Z" fill="#DFE6E9"/>
<path d="M180.702 72.6422C180.702 81.6088 180.702 90.6007 180.702 99.5673C180.702 99.9209 181.283 99.9462 181.283 99.5673C181.283 90.6007 181.283 81.6088 181.283 72.6422C181.258 72.2886 180.702 72.2634 180.702 72.6422Z" fill="#DFE6E9"/>
<path d="M197.903 99.4411C197.373 99.0117 196.767 98.5065 196.59 97.7993C196.261 96.4101 197.221 96.2333 198.004 95.7281C198.459 95.425 198.914 95.0714 199.015 94.5157C199.141 93.8843 198.711 93.4044 198.434 92.874C197.777 91.5353 197.6 89.742 198.863 88.6559C200 87.6708 202.652 88.8074 203.283 87.0646C203.46 86.5342 203.233 86.1553 203.031 85.7007C202.475 84.3873 202.071 83.0991 202.197 81.6594C202.273 80.6238 202.424 80.1692 203.612 80.0176C204.117 79.9418 203.99 80.1439 204.42 79.8408C204.546 79.7398 204.622 79.563 204.723 79.4619C205.38 78.8052 205.657 78.1485 206.718 78.1233C209.522 78.0727 209.497 81.8362 209.623 83.7305C209.699 84.6904 209.8 87.1404 211.189 87.2414C211.77 87.2919 211.896 86.8373 212.149 86.4332C212.907 85.2965 213.765 84.5893 215.205 84.6904C215.559 84.7156 215.559 84.1599 215.205 84.1094C213.967 84.0084 212.73 84.5135 211.997 85.5491C212.022 85.5239 211.694 86.1301 211.669 86.1301C211.366 86.2311 210.583 85.7007 210.456 85.4986C210.179 85.0187 210.229 84.2357 210.179 83.7053C210.128 82.8718 210.128 82.013 210.002 81.1795C209.8 79.8913 209.219 78.4769 208.006 77.8454C206.946 77.2897 205.607 77.5171 204.773 78.3758C204.571 78.6032 204.445 78.982 204.218 79.1588C203.864 79.4114 203.283 79.2346 202.879 79.3609C202.399 79.5125 202.121 79.8155 201.894 80.2702C201.237 81.6341 201.54 83.5537 202.046 84.9177C202.147 85.2208 202.45 85.6502 202.5 85.9785C202.45 86.2058 202.399 86.4332 202.349 86.6605C202.424 87.3677 202.096 87.6455 201.338 87.5445C201.136 87.5698 200.934 87.5445 200.757 87.5445C200.025 87.5445 199.368 87.595 198.737 88.0244C197.625 88.7822 197.171 90.1713 197.348 91.4595C197.474 92.3941 197.979 92.975 198.257 93.8338C198.711 95.1977 197.07 95.3745 196.362 96.1828C195.226 97.4709 196.362 99.0369 197.423 99.921C197.777 100.073 198.181 99.6684 197.903 99.4411Z" fill="#DFE6E9"/>
<path d="M44.8647 71.0762C44.8647 70.2175 44.8647 69.3839 44.8647 68.5252C44.8647 68.1716 44.2838 68.1463 44.2838 68.5252C44.2838 69.3839 44.2838 70.2175 44.2838 71.0762C44.2838 71.4551 44.8647 71.4551 44.8647 71.0762Z" fill="#DFE6E9"/>
<path d="M44.5615 68.5504C57.8725 68.5504 71.1835 68.5504 84.4945 68.5504C84.8481 68.5504 84.8734 67.9694 84.4945 67.9694C71.1835 67.9694 57.8725 67.9694 44.5615 67.9694C44.2079 67.9694 44.2079 68.5504 44.5615 68.5504Z" fill="#DFE6E9"/>
<path d="M45.4204 71.5055C58.4535 71.5055 71.4867 71.5055 84.5198 71.5055C84.8734 71.5055 84.8987 70.9246 84.5198 70.9246C71.4867 70.9246 58.4535 70.9246 45.4204 70.9246C45.0415 70.9246 45.0415 71.5055 45.4204 71.5055Z" fill="#DFE6E9"/>
<path d="M84.4946 68.3988C84.4946 69.2828 84.4946 70.1921 84.4946 71.0761C84.4946 71.4297 85.0755 71.455 85.0755 71.0761C85.0755 70.1921 85.0755 69.2828 85.0755 68.3988C85.0755 68.0199 84.4946 68.0199 84.4946 68.3988Z" fill="#DFE6E9"/>
<path d="M47.5673 68.1715C47.5673 58.043 47.5673 47.9145 47.5673 37.7861C47.5673 37.4325 46.9864 37.4072 46.9864 37.7861C46.9864 47.9145 46.9864 58.043 46.9864 68.1715C46.9864 68.5504 47.5673 68.5504 47.5673 68.1715Z" fill="#DFE6E9"/>
<path d="M47.4914 38.0892C49.512 38.0892 51.5074 38.0892 53.528 38.0892C53.8816 38.0892 53.9069 37.5082 53.528 37.5082C51.5074 37.5082 49.512 37.5082 47.4914 37.5082C47.1377 37.5082 47.1377 38.0892 47.4914 38.0892Z" fill="#DFE6E9"/>
<path d="M53.0229 38.2154C53.0229 48.1671 53.0229 58.1188 53.0229 68.0704C53.0229 68.424 53.6039 68.4493 53.6039 68.0704C53.6039 58.1188 53.6039 48.1671 53.6039 38.2154C53.6039 37.8618 53.0229 37.8618 53.0229 38.2154Z" fill="#DFE6E9"/>
<path d="M53.4272 43.6965C55.6752 43.6965 57.9484 43.6965 60.1964 43.6965C60.55 43.6965 60.5752 43.1156 60.1964 43.1156C57.9484 43.1156 55.6752 43.1156 53.4272 43.1156C53.0483 43.1156 53.0483 43.6965 53.4272 43.6965Z" fill="#DFE6E9"/>
<path d="M59.6912 43.5196C59.6912 51.5264 59.6912 59.5332 59.6912 67.54C59.6912 67.8936 60.2721 67.9189 60.2721 67.54C60.2721 59.5332 60.2721 51.5264 60.2721 43.5196C60.2721 43.1407 59.6912 43.1407 59.6912 43.5196Z" fill="#DFE6E9"/>
<path d="M49.1837 41.3727C49.31 42.2315 49.3352 43.0903 49.2342 43.9491C49.1837 44.3027 49.7646 44.3027 49.8151 43.9491C49.9162 43.0398 49.8909 42.1305 49.7394 41.2212C49.6888 40.8676 49.1332 41.0191 49.1837 41.3727Z" fill="#DFE6E9"/>
<path d="M50.3708 41.2716C50.5476 42.1557 50.5981 43.0397 50.5981 43.949C50.5981 44.3026 51.1538 44.3026 51.179 43.949C51.2043 42.9892 51.1032 42.0546 50.9264 41.1201C50.8507 40.7665 50.3202 40.918 50.3708 41.2716Z" fill="#DFE6E9"/>
<path d="M55.1445 47.965C56.1801 48.1165 57.241 48.2681 58.3018 48.3438C58.6554 48.3691 58.6554 47.8134 58.3018 47.7629C57.2915 47.6871 56.3064 47.5608 55.2961 47.4093C54.9425 47.3588 54.7657 47.8892 55.1445 47.965Z" fill="#DFE6E9"/>
<path d="M56.1802 49.7331C56.8874 49.6826 57.5946 49.6321 58.3019 49.6068C58.6555 49.5816 58.6555 49.0259 58.3019 49.0259C57.5946 49.0764 56.8874 49.1269 56.1802 49.1522C55.8013 49.2027 55.8013 49.7584 56.1802 49.7331Z" fill="#DFE6E9"/>
<path d="M62.4948 67.7673C62.4948 66.3529 62.4948 64.9384 62.4948 63.524C62.4948 63.1704 61.9138 63.1451 61.9138 63.524C61.9138 64.9384 61.9138 66.3529 61.9138 67.7673C61.9138 68.1209 62.4948 68.1209 62.4948 67.7673Z" fill="#DFE6E9"/>
<path d="M62.5199 63.9029C68.8344 63.9029 75.1489 63.9029 81.4635 63.9029C81.8171 63.9029 81.8423 63.3219 81.4635 63.3219C75.1489 63.3219 68.8344 63.3219 62.5199 63.3219C62.1663 63.3472 62.1663 63.9029 62.5199 63.9029Z" fill="#DFE6E9"/>
<path d="M81.1857 63.8271C81.1857 65.2668 81.1857 66.7318 81.1857 68.1715C81.1857 68.5251 81.7666 68.5503 81.7666 68.1715C81.7666 66.7318 81.7666 65.2668 81.7666 63.8271C81.7413 63.4735 81.1857 63.4735 81.1857 63.8271Z" fill="#DFE6E9"/>
<path d="M66.3086 63.3219C66.3086 62.3621 66.3086 61.4275 66.3086 60.4677C66.3086 60.1141 65.7277 60.0888 65.7277 60.4677C65.7277 61.4275 65.7277 62.3621 65.7277 63.3219C65.7277 63.6755 66.3086 63.6755 66.3086 63.3219Z" fill="#DFE6E9"/>
<path d="M66.0057 60.4172C71.4615 60.4172 76.9424 60.4172 82.3982 60.4172C82.7518 60.4172 82.7771 59.8363 82.3982 59.8363C76.9424 59.8363 71.4615 59.8363 66.0057 59.8363C65.6521 59.8615 65.6521 60.4172 66.0057 60.4172Z" fill="#DFE6E9"/>
<path d="M82.2466 60.1395C82.2466 61.3771 82.2466 62.6148 82.2466 63.8524C82.2466 64.206 82.8275 64.2313 82.8275 63.8524C82.8275 62.6148 82.8275 61.3771 82.8275 60.1395C82.8022 59.7606 82.2466 59.7606 82.2466 60.1395Z" fill="#DFE6E9"/>
<path d="M81.7668 64.1554C81.9941 64.0796 82.2214 64.0291 82.4487 64.0796C82.8023 64.1554 82.9539 63.5997 82.6003 63.5239C82.2719 63.4481 81.9183 63.4734 81.6152 63.5997C81.4637 63.6502 81.3626 63.8018 81.4132 63.9533C81.4637 64.0796 81.6152 64.2059 81.7668 64.1554Z" fill="#DFE6E9"/>
<path d="M69.668 60.4173C69.9963 61.4276 70.0974 62.4885 69.9458 63.5493C69.8953 63.9029 70.451 64.0545 70.5015 63.7008C70.6783 62.539 70.5773 61.4024 70.2237 60.2657C70.0974 59.9121 69.5669 60.0637 69.668 60.4173Z" fill="#DFE6E9"/>
<path d="M72.5728 60.8467C72.9264 60.8467 72.9517 60.2657 72.5728 60.2657C72.2192 60.2657 72.2192 60.8467 72.5728 60.8467Z" fill="#DFE6E9"/>
<path d="M72.7496 60.291L72.7244 60.2657C72.7244 60.392 72.7244 60.5436 72.7244 60.6698C72.7496 60.6446 72.7496 60.6446 72.7749 60.6193C72.6486 60.6446 72.5475 60.6446 72.4213 60.6698C72.3455 60.5688 72.3455 60.6193 72.4213 60.8214C72.4465 60.9477 72.4718 61.0487 72.4718 61.175C72.497 61.4276 72.497 61.6802 72.497 61.9327C72.4718 62.4632 72.3707 62.9431 72.1939 63.4482C72.0677 63.8018 72.6233 63.9534 72.7496 63.5998C73.0022 62.9178 73.1032 62.2106 73.078 61.5034C73.0527 61.0992 73.078 60.4173 72.6991 60.1647C72.5981 60.1142 72.4213 60.1142 72.3455 60.2152C72.3202 60.2405 72.3202 60.2405 72.295 60.2657C72.1939 60.392 72.1687 60.5436 72.295 60.6698L72.3202 60.6951C72.6233 60.9477 73.0275 60.5436 72.7496 60.291Z" fill="#DFE6E9"/>
<path d="M53.5534 52.3094C55.5741 52.7641 57.5947 52.8399 59.6659 52.5368C60.0195 52.4862 59.8679 51.9306 59.5143 51.9811C57.5694 52.2589 55.6246 52.1831 53.705 51.7538C53.3261 51.678 53.1745 52.2337 53.5534 52.3094Z" fill="#DFE6E9"/>
<path d="M43.9301 28.087C58.9586 28.087 73.9872 28.087 89.041 28.087C89.3946 28.087 89.4199 27.506 89.041 27.506C74.0124 27.506 58.9839 27.506 43.9301 27.506C43.5765 27.506 43.5765 28.087 43.9301 28.087Z" fill="#DFE6E9"/>
<path d="M44.2078 27.6576C44.2078 27.0766 44.2078 26.4704 44.2078 25.8895C44.2078 25.5359 43.6269 25.5106 43.6269 25.8895C43.6269 26.4704 43.6269 27.0766 43.6269 27.6576C43.6521 28.0364 44.2078 28.0364 44.2078 27.6576Z" fill="#DFE6E9"/>
<path d="M43.8037 26.041C58.8323 26.041 73.8608 26.041 88.9146 26.041C89.2683 26.041 89.2935 25.4601 88.9146 25.4601C73.8861 25.4601 58.8575 25.4601 43.8037 25.4601C43.4249 25.4853 43.4249 26.041 43.8037 26.041Z" fill="#DFE6E9"/>
<path d="M88.7378 25.8896C88.7883 26.42 88.8388 26.9757 88.9146 27.5061C88.9398 27.8597 89.5208 27.8597 89.4955 27.5061C89.445 26.9757 89.3945 26.42 89.3187 25.8896C89.2682 25.5359 88.7125 25.5359 88.7378 25.8896Z" fill="#DFE6E9"/>
<path d="M47.5673 25.3339C47.5673 20.6106 47.5673 15.9126 47.5673 11.1894C47.5673 10.8358 46.9864 10.8105 46.9864 11.1894C46.9864 15.9126 46.9864 20.6106 46.9864 25.3339C46.9864 25.6875 47.5673 25.6875 47.5673 25.3339Z" fill="#DFE6E9"/>
<path d="M47.2642 11.3409C48.325 11.3409 49.4111 11.3409 50.4719 11.3409C50.8256 11.3409 50.8508 10.7599 50.4719 10.7599C49.4111 10.7599 48.325 10.7599 47.2642 10.7599C46.9106 10.7852 46.9106 11.3409 47.2642 11.3409Z" fill="#DFE6E9"/>
<path d="M50.1436 11.3409C50.1436 15.9884 50.1436 20.6611 50.1436 25.3086C50.1436 25.6622 50.7246 25.6874 50.7246 25.3086C50.7246 20.6611 50.7246 15.9884 50.7246 11.3409C50.6993 10.962 50.1436 10.962 50.1436 11.3409Z" fill="#DFE6E9"/>
<path d="M52.6189 25.2329C52.6189 17.0493 52.6189 8.89093 52.6189 0.707319C52.6189 0.353706 52.038 0.328448 52.038 0.707319C52.038 8.89093 52.038 17.0493 52.038 25.2329C52.038 25.5865 52.6189 25.5865 52.6189 25.2329Z" fill="#DFE6E9"/>
<path d="M52.4169 0.580934C54.387 0.580934 56.3319 0.580934 58.302 0.580934C58.6556 0.580934 58.6809 0 58.302 0C56.3319 0 54.387 0 52.4169 0C52.038 0.0252581 52.038 0.580934 52.4169 0.580934Z" fill="#DFE6E9"/>
<path d="M58.0745 0.378872C58.0745 8.66351 58.0745 16.9482 58.0745 25.2328C58.0745 25.5864 58.6555 25.6117 58.6555 25.2328C58.6555 16.9482 58.6555 8.66351 58.6555 0.378872C58.6555 0.0252595 58.0745 0.0252595 58.0745 0.378872Z" fill="#DFE6E9"/>
<path d="M52.2652 5.05164C54.2353 6.16299 56.357 5.68309 58.3776 4.95061C58.7312 4.82432 58.5797 4.26864 58.2261 4.39493C56.357 5.05164 54.3868 5.58206 52.543 4.54648C52.2146 4.36967 51.9368 4.87483 52.2652 5.05164Z" fill="#DFE6E9"/>
<path d="M52.6695 9.4971C53.4019 9.95175 54.2355 9.90123 55.069 9.87597C56.1551 9.87597 57.2159 9.77494 58.2767 9.52236C58.6304 9.42133 58.4788 8.89091 58.1252 8.96668C57.2412 9.19401 56.3571 9.26978 55.4731 9.29504C54.6648 9.3203 53.6545 9.44659 52.9473 8.99194C52.6442 8.81514 52.3664 9.29504 52.6695 9.4971Z" fill="#DFE6E9"/>
<path d="M61.8127 25.3844C61.8127 24.8034 61.8127 24.2225 61.8127 23.6416C61.8127 23.2879 61.2318 23.2627 61.2318 23.6416C61.2318 24.2225 61.2318 24.8034 61.2318 25.3844C61.257 25.738 61.8127 25.7632 61.8127 25.3844Z" fill="#DFE6E9"/>
<path d="M61.6864 23.8437C67.6473 23.8437 73.583 23.8437 79.5439 23.8437C79.8975 23.8437 79.9228 23.2627 79.5439 23.2627C73.583 23.2627 67.6473 23.2627 61.6864 23.2627C61.3328 23.2627 61.3328 23.8437 61.6864 23.8437Z" fill="#DFE6E9"/>
<path d="M79.4176 23.6416C79.4176 24.3236 79.4176 25.0055 79.4176 25.7128C79.4176 26.0664 79.9985 26.0916 79.9985 25.7128C79.9985 25.0308 79.9985 24.3488 79.9985 23.6416C79.9985 23.2627 79.4176 23.2627 79.4176 23.6416Z" fill="#DFE6E9"/>
<path d="M64.6669 21.6462C64.7175 22.2524 64.768 22.8586 64.8438 23.4648C64.869 23.8184 65.45 23.8184 65.4247 23.4648C65.3742 22.8586 65.3237 22.2524 65.2479 21.6462C65.1974 21.2926 64.6164 21.2926 64.6669 21.6462Z" fill="#DFE6E9"/>
<path d="M64.9448 21.7724C69.9207 21.7724 74.8965 21.7724 79.8723 21.7724C80.226 21.7724 80.2512 21.1915 79.8723 21.1915C74.8965 21.1915 69.9207 21.1915 64.9448 21.1915C64.5912 21.2168 64.5912 21.7724 64.9448 21.7724Z" fill="#DFE6E9"/>
<path d="M79.4176 21.8987C79.4176 22.3786 79.4176 22.8585 79.4176 23.3384C79.4176 23.6921 79.9985 23.7173 79.9985 23.3384C79.9985 22.8585 79.9985 22.3786 79.9985 21.8987C79.9985 21.5199 79.4176 21.5199 79.4176 21.8987Z" fill="#DFE6E9"/>
<path d="M71.5876 21.2673C71.5876 20.358 71.5876 19.474 71.5876 18.5647C71.5876 18.2111 71.0067 18.1858 71.0067 18.5647C71.0067 19.474 71.0067 20.358 71.0067 21.2673C71.0067 21.6209 71.5876 21.6209 71.5876 21.2673Z" fill="#DFE6E9"/>
<path d="M71.3099 18.691C73.3053 18.691 75.2754 18.691 77.2708 18.691C77.6244 18.691 77.6496 18.1101 77.2708 18.1101C75.2754 18.1101 73.3053 18.1101 71.3099 18.1101C70.931 18.1101 70.931 18.691 71.3099 18.691Z" fill="#DFE6E9"/>
<path d="M76.9675 18.5647C76.9675 19.5245 76.9675 20.459 76.9675 21.4188C76.9675 21.7724 77.5485 21.7977 77.5485 21.4188C77.5485 20.459 77.5485 19.5245 77.5485 18.5647C77.5485 18.1858 76.9675 18.1858 76.9675 18.5647Z" fill="#DFE6E9"/>
<path d="M72.598 17.9079C71.1582 16.4682 71.1077 13.6393 71.1077 11.7449C70.9562 11.8207 70.7794 11.8712 70.6278 11.947C72.3201 13.7656 73.4062 15.9378 73.8103 18.3878C73.8609 18.7414 74.4165 18.5899 74.366 18.2362C73.9366 15.6852 72.8 13.4372 71.032 11.5429C70.8551 11.366 70.5521 11.4923 70.5521 11.7449C70.5268 13.8161 70.6531 16.746 72.2191 18.312C72.4464 18.5646 72.8505 18.1857 72.598 17.9079Z" fill="#DFE6E9"/>
<path d="M74.1135 17.1249C74.6187 14.6749 76.4625 12.8311 77.2203 10.4821C77.0435 10.4315 76.8667 10.381 76.6646 10.3305C76.4373 11.4166 76.7151 12.5532 76.6141 13.6646C76.4625 15.2306 76.0079 16.7461 75.3007 18.1605C75.1239 18.4889 75.629 18.7667 75.7806 18.4383C76.3868 17.226 76.8414 15.9631 77.0687 14.6244C77.296 13.2604 76.9424 11.7955 77.2203 10.4821C77.296 10.1284 76.7909 9.97689 76.6646 10.3305C75.9069 12.6795 74.0883 14.5233 73.5578 16.9734C73.4821 17.327 74.0378 17.4785 74.1135 17.1249Z" fill="#DFE6E9"/>
<path d="M106.04 95.425C113.844 95.425 121.674 95.425 129.479 95.425C129.833 95.425 129.858 94.844 129.479 94.844C121.674 94.844 113.844 94.844 106.04 94.844C105.686 94.8693 105.686 95.425 106.04 95.425Z" fill="#DFE6E9"/>
<path d="M117.684 95.4249C117.684 97.6476 117.684 99.8703 117.684 102.093C117.684 102.447 118.264 102.472 118.264 102.093C118.264 99.8703 118.264 97.6476 118.264 95.4249C118.264 95.0713 117.684 95.0713 117.684 95.4249Z" fill="#DFE6E9"/>
<path d="M114.703 102.522C120.563 102.522 126.448 102.522 132.308 102.522C132.662 102.522 132.687 101.942 132.308 101.942C126.448 101.942 120.563 101.942 114.703 101.942C114.35 101.967 114.35 102.522 114.703 102.522Z" fill="#DFE6E9"/>
<path d="M126.347 102.674C126.347 104.745 126.347 106.842 126.347 108.913C126.347 109.266 126.928 109.292 126.928 108.913C126.928 106.842 126.928 104.745 126.928 102.674C126.928 102.32 126.347 102.295 126.347 102.674Z" fill="#DFE6E9"/>
<path d="M179.692 177.514C187.598 177.514 195.529 177.514 203.435 177.514C203.788 177.514 203.814 176.933 203.435 176.933C195.529 176.933 187.598 176.933 179.692 176.933C179.313 176.933 179.313 177.514 179.692 177.514Z" fill="#DFE6E9"/>
<path d="M192.523 177.008C192.523 174.508 192.523 172.007 192.523 169.507C192.523 169.153 191.942 169.128 191.942 169.507C191.942 172.007 191.942 174.508 191.942 177.008C191.968 177.387 192.523 177.387 192.523 177.008Z" fill="#DFE6E9"/>
<path d="M186.764 169.532C193.508 169.532 200.252 169.532 206.996 169.532C207.35 169.532 207.375 168.951 206.996 168.951C200.252 168.951 193.508 168.951 186.764 168.951C186.385 168.951 186.385 169.532 186.764 169.532Z" fill="#DFE6E9"/>
<path d="M204.445 169.254C204.445 167.032 204.445 164.784 204.445 162.561C204.445 162.207 203.864 162.182 203.864 162.561C203.864 164.784 203.864 167.032 203.864 169.254C203.889 169.608 204.445 169.608 204.445 169.254Z" fill="#DFE6E9"/>
<path d="M233.239 85.2207C233.239 90.3986 233.239 95.6018 233.239 100.78C233.239 101.133 233.82 101.159 233.82 100.78C233.82 95.6018 233.82 90.3986 233.82 85.2207C233.82 84.8671 233.239 84.8671 233.239 85.2207Z" fill="#DFE6E9"/>
<path d="M233.997 85.2711C242.357 85.2711 250.692 85.2711 259.053 85.2711C259.406 85.2711 259.432 84.6902 259.053 84.6902C250.692 84.6902 242.357 84.6902 233.997 84.6902C233.618 84.6902 233.618 85.2711 233.997 85.2711Z" fill="#DFE6E9"/>
<path d="M258.548 85.0691C258.548 90.0197 258.548 94.9955 258.548 99.9461C258.548 100.3 259.129 100.325 259.129 99.9461C259.129 94.9955 259.129 90.0197 259.129 85.0691C259.129 84.7155 258.548 84.7155 258.548 85.0691Z" fill="#DFE6E9"/>
<path d="M233.795 101.133C242.256 101.133 250.693 101.133 259.154 101.133C259.508 101.133 259.533 100.552 259.154 100.552C250.693 100.552 242.256 100.552 233.795 100.552C233.416 100.578 233.416 101.133 233.795 101.133Z" fill="#DFE6E9"/>
<path d="M258.649 99.9713C258.522 100.325 258.522 100.679 258.573 101.057C258.598 101.209 258.775 101.285 258.927 101.259C259.078 101.209 259.154 101.057 259.129 100.906C259.078 100.653 259.129 100.375 259.204 100.123C259.305 99.7693 258.775 99.6177 258.649 99.9713Z" fill="#DFE6E9"/>
<path d="M234.426 86.0794C234.426 90.4996 234.426 94.8945 234.426 99.3147C234.426 99.6683 235.007 99.6935 235.007 99.3147C235.007 94.8945 235.007 90.4996 235.007 86.0794C234.982 85.7258 234.426 85.7258 234.426 86.0794Z" fill="#DFE6E9"/>
<path d="M234.704 100.022C242.307 100.022 249.909 100.022 257.512 100.022C257.866 100.022 257.891 99.441 257.512 99.441C249.909 99.441 242.307 99.441 234.704 99.441C234.325 99.4663 234.325 100.022 234.704 100.022Z" fill="#DFE6E9"/>
<path d="M258.017 99.643C258.017 95.2986 258.017 90.9542 258.017 86.6098C258.017 86.2562 257.436 86.231 257.436 86.6098C257.436 90.9542 257.436 95.2986 257.436 99.643C257.436 99.9966 258.017 99.9966 258.017 99.643Z" fill="#DFE6E9"/>
<path d="M234.805 86.4836C242.408 86.4836 250.011 86.4836 257.613 86.4836C257.967 86.4836 257.992 85.9027 257.613 85.9027C250.011 85.9027 242.408 85.9027 234.805 85.9027C234.452 85.9027 234.426 86.4836 234.805 86.4836Z" fill="#DFE6E9"/>
<path d="M234.881 94.1873C237.887 93.4801 241.095 94.4904 244.05 95.0714C247.055 95.6523 250.036 96.2332 253.042 96.8142C253.395 96.8899 253.547 96.3343 253.193 96.2585C249.859 95.6018 246.55 94.9703 243.216 94.3136C240.438 93.7579 237.533 92.9749 234.704 93.6317C234.376 93.7327 234.527 94.2884 234.881 94.1873Z" fill="#DFE6E9"/>
<path d="M245.818 95.3493C246.424 95.7029 247.081 95.5008 247.737 95.3745C248.823 95.1725 249.884 94.8694 250.945 94.541C253.244 93.8591 255.542 93.1013 257.941 92.8993C258.295 92.874 258.295 92.2931 257.941 92.3183C255.997 92.4699 254.128 92.975 252.284 93.5307C251.299 93.8338 250.314 94.1369 249.303 94.4147C248.495 94.6421 246.853 95.2988 246.095 94.8441C245.792 94.6673 245.515 95.1725 245.818 95.3493Z" fill="#DFE6E9"/>
<path d="M247.182 91.0553C245.919 90.146 248.116 88.4032 248.975 89.7419C249.354 90.3481 249 91.0048 248.369 91.2321C247.813 91.4089 247.207 91.2069 246.727 90.929C246.399 90.7522 246.121 91.2321 246.449 91.4089C247.308 91.8888 248.419 92.1162 249.228 91.3837C249.935 90.7522 249.859 89.6409 249.127 89.0599C247.485 87.7465 245.085 90.2471 246.904 91.5352C247.182 91.7373 247.46 91.2574 247.182 91.0553Z" fill="#DFE6E9"/>
<path d="M142.74 228.308C163.502 228.308 184.264 228.308 205.001 228.308C205.354 228.308 205.38 227.727 205.001 227.727C184.239 227.727 163.477 227.727 142.74 227.727C142.386 227.752 142.386 228.308 142.74 228.308Z" fill="#DFE6E9"/>
<path d="M176.863 233.738C193.281 233.738 209.724 233.738 226.142 233.738C226.495 233.738 226.52 233.157 226.142 233.157C209.724 233.157 193.281 233.157 176.863 233.157C176.484 233.157 176.484 233.738 176.863 233.738Z" fill="#DFE6E9"/>
<path d="M176.307 222.347C191.387 222.347 206.44 222.347 221.519 222.347C221.873 222.347 221.898 221.766 221.519 221.766C206.44 221.766 191.387 221.766 176.307 221.766C175.954 221.791 175.954 222.347 176.307 222.347Z" fill="#DFE6E9"/>
<path d="M192.953 222.473C191.917 224.367 190.78 226.161 189.492 227.903C189.265 228.207 189.77 228.484 189.972 228.181C191.235 226.438 192.397 224.645 193.433 222.751C193.609 222.448 193.129 222.17 192.953 222.473Z" fill="#DFE6E9"/>
<path d="M204.521 228.737C204.117 230.227 203.611 231.667 202.955 233.081C202.803 233.41 203.283 233.688 203.435 233.359C204.117 231.92 204.647 230.429 205.051 228.889C205.177 228.535 204.622 228.383 204.521 228.737Z" fill="#DFE6E9"/>
<path d="M0.359927 213.784C7.83631 213.784 15.338 213.784 22.8143 213.784C23.2942 213.784 23.2942 213.026 22.8143 213.026C15.338 213.026 7.83631 213.026 0.359927 213.026C-0.119976 213.026 -0.119976 213.784 0.359927 213.784Z" fill="#DFE6E9"/>
<path d="M9.90742 220.856C22.7385 220.856 35.5443 220.856 48.3754 220.856C48.8553 220.856 48.8553 220.099 48.3754 220.099C35.5443 220.099 22.7385 220.099 9.90742 220.099C9.42752 220.099 9.42752 220.856 9.90742 220.856Z" fill="#DFE6E9"/>
<path d="M22.4607 213.557C20.4654 215.628 18.47 217.674 16.4999 219.745C16.1715 220.099 16.7019 220.629 17.0303 220.275C19.0257 218.204 21.021 216.158 22.9912 214.087C23.3448 213.734 22.8144 213.203 22.4607 213.557Z" fill="#DFE6E9"/>
<path d="M40.7728 233.031C60.2468 233.031 79.6955 233.031 99.1695 233.031C99.6494 233.031 99.6494 232.273 99.1695 232.273C79.6955 232.273 60.2468 232.273 40.7728 232.273C40.2929 232.273 40.2929 233.031 40.7728 233.031Z" fill="#DFE6E9"/>
<path d="M69.5924 226.944C83.5853 226.944 97.6035 226.944 111.597 226.944C112.076 226.944 112.076 226.186 111.597 226.186C97.6035 226.186 83.5853 226.186 69.5924 226.186C69.0872 226.186 69.0872 226.944 69.5924 226.944Z" fill="#DFE6E9"/>
<path d="M90.0007 226.363C87.9548 228.383 85.9342 230.404 83.8883 232.425C83.5347 232.778 84.0651 233.309 84.4187 232.955C86.4646 230.934 88.4852 228.914 90.5311 226.893C90.8847 226.565 90.3291 226.034 90.0007 226.363Z" fill="#DFE6E9"/>
<path d="M37.0852 239.901C46.2539 239.901 55.3973 239.901 64.566 239.901C65.0459 239.901 65.0459 239.143 64.566 239.143C55.3973 239.143 46.2539 239.143 37.0852 239.143C36.6053 239.143 36.6053 239.901 37.0852 239.901Z" fill="#DFE6E9"/>
<path d="M67.1674 232.551C66.1571 234.849 65.1215 237.148 64.1112 239.421C63.9092 239.85 64.5659 240.255 64.7679 239.8C65.7783 237.501 66.8138 235.203 67.8242 232.93C68.0262 232.475 67.3695 232.096 67.1674 232.551Z" fill="#DFE6E9"/>
<path d="M117.759 216.613C88.4599 216.764 80.3773 216.461 49.3352 216.613C44.8645 216.638 41.2021 216.663 38.7268 216.663C45.2181 211.006 51.7094 205.373 58.2008 199.715C60.4235 199.665 63.707 199.614 67.7231 199.589C81.9939 199.463 90.6574 199.614 101.316 199.715C110.889 199.791 109.778 199.665 128.797 199.589C170.927 199.463 174.438 200.145 192.043 199.715C195.352 199.64 205.405 199.362 218.943 199.488C222.277 199.513 224.98 199.564 226.647 199.614C227.026 199.513 228.238 199.109 229.072 197.897C229.299 197.568 229.804 196.785 229.753 195.699C229.678 193.855 227.96 192.795 227.809 192.719C231.572 194.032 234.654 195.144 236.775 195.927C248.091 200.145 257.133 204.135 264.029 207.192C265.898 208.025 267.439 208.707 268.398 209.137C268.701 209.086 270.065 208.859 271.278 209.717C271.48 209.869 272.768 210.778 272.667 212.016C272.566 213.102 271.429 213.734 270.823 214.087C269.409 214.895 267.994 214.895 267.716 214.895C264.054 214.921 263.852 216.184 254.961 216.739C250.086 217.042 248.141 216.79 241.17 216.613C237.71 216.537 237.179 216.588 225.99 216.613C225.99 216.613 212.553 216.663 191.841 216.613C180.121 216.588 176.08 216.537 167.114 216.487C153.828 216.436 141.628 216.512 117.759 216.613Z" fill="white"/>
<path d="M57.8471 199.362C51.2295 205.07 44.6118 210.778 37.9942 216.487C37.6154 216.815 38.171 217.346 38.5247 217.017C45.1423 211.309 51.7599 205.601 58.3775 199.892C58.7564 199.589 58.2259 199.059 57.8471 199.362Z" fill="#2D3436"/>
<path d="M58.327 200.019C80.3015 200.019 102.276 200.019 124.225 200.019C146.099 200.019 167.997 200.019 189.871 200.019C202.247 200.019 214.624 200.019 227 200.019C227.48 200.019 227.48 199.261 227 199.261C205.026 199.261 183.051 199.261 161.102 199.261C139.229 199.261 117.33 199.261 95.4564 199.261C83.0799 199.261 70.7035 199.261 58.327 199.261C57.8471 199.261 57.8471 200.019 58.327 200.019Z" fill="#2D3436"/>
<path d="M38.6005 216.992C66.0055 216.992 93.3852 216.992 120.79 216.992C148.094 216.992 175.423 216.992 202.727 216.992C218.11 216.992 233.492 216.992 248.874 216.992C249.354 216.992 249.354 216.234 248.874 216.234C221.469 216.234 194.089 216.234 166.684 216.234C139.38 216.234 112.051 216.234 84.747 216.234C69.3648 216.234 53.9827 216.234 38.6005 216.234C38.0954 216.234 38.0954 216.992 38.6005 216.992Z" fill="#2D3436"/>
<path d="M224.98 191.658C226.975 191.658 228.794 192.82 229.273 194.815C229.728 196.76 228.667 198.655 226.773 199.311C226.318 199.463 226.52 200.195 226.975 200.044C229.097 199.286 230.435 197.24 230.056 194.967C229.652 192.466 227.43 190.875 224.954 190.875C224.5 190.9 224.5 191.658 224.98 191.658Z" fill="#2D3436"/>
<path d="M225.182 191.784C239.478 197.24 253.673 203.024 267.741 209.111C268.196 209.313 268.575 208.657 268.12 208.455C254.001 202.342 239.756 196.558 225.384 191.052C224.904 190.875 224.727 191.608 225.182 191.784Z" fill="#2D3436"/>
<path d="M268.171 209.364C269.459 209.313 271.076 209.667 271.909 210.753C273.197 212.42 271.303 213.532 269.939 213.936C267.691 214.618 265.19 214.845 262.867 215.224C260.29 215.628 257.714 215.956 255.112 216.083C252.738 216.209 250.339 216.057 247.964 216.184C247.485 216.209 247.485 216.967 247.964 216.941C251.324 216.739 254.683 216.941 258.068 216.613C261.376 216.285 264.685 215.704 267.969 215.148C269.737 214.845 272.919 214.34 273.121 212.016C273.349 209.617 270.04 208.556 268.171 208.632C267.691 208.632 267.691 209.389 268.171 209.364Z" fill="#2D3436"/>
<path d="M85.8328 147.557C80.857 151.573 82.7008 159.959 84.3931 179.155C85.2014 188.374 85.7318 197.088 86.0349 205.222C84.1658 206.308 80.4023 208.657 80.8065 209.768C81.2864 211.107 87.6009 209.945 89.369 209.616C94.3448 209.616 98.3608 210.071 101.24 210.551C103.564 210.93 106.039 211.46 106.368 210.753C106.645 210.147 105.256 208.909 103.918 207.874C101.392 206.434 98.866 204.994 96.3149 203.554C95.5824 196.255 95.4814 190.319 95.5067 186.328C95.5824 173.27 96.5422 163.142 96.5422 163.142C97.5273 152.609 98.6134 148.77 96.1381 146.724C93.6881 144.754 88.8133 145.158 85.8328 147.557Z" fill="white" stroke="#2D3436" stroke-miterlimit="10"/>
<path d="M87.1716 210.349C88.7376 209.995 90.1773 209.364 91.5159 208.505C91.718 208.379 91.5412 208.05 91.3139 208.177C90.0005 209.036 88.586 209.642 87.0705 209.995C86.8432 210.021 86.9442 210.399 87.1716 210.349Z" fill="#2D3436"/>
<path d="M89.268 209.869C90.2783 209.591 91.1624 208.682 92.1727 208.833C93.6124 209.035 95.1026 209.642 96.4918 210.046C96.7191 210.122 96.8202 209.743 96.5928 209.692C95.0774 209.263 93.5619 208.833 92.0464 208.429C91.8191 208.354 91.6423 208.278 91.4149 208.328C91.2381 208.379 90.7582 208.833 90.5057 208.985C90.0763 209.238 89.6216 209.389 89.1417 209.515C88.9144 209.566 89.0154 209.92 89.268 209.869Z" fill="#2D3436"/>
<path d="M90.2531 209.566C91.1623 209.364 92.0211 209.364 92.9557 209.566C93.6376 209.717 94.2438 209.869 94.9258 209.793C95.1531 209.768 95.1784 209.389 94.9258 209.414C94.0165 209.515 93.2083 209.187 92.3242 209.086C91.5917 209.01 90.8593 209.061 90.1268 209.212C89.9247 209.263 90.0257 209.616 90.2531 209.566Z" fill="#2D3436"/>
<path d="M90.7077 209.162C92.1979 209.162 93.6628 209.339 95.1278 209.717C95.3551 209.768 95.4562 209.414 95.2289 209.364C93.7386 208.96 92.2484 208.783 90.7077 208.783C90.4551 208.783 90.4551 209.162 90.7077 209.162Z" fill="#2D3436"/>
<path opacity="0.11" d="M88.4343 146.572C89.6972 147.33 88.2828 151.75 87.8534 153.165C86.54 157.635 86.7926 163.748 87.2725 175.998C87.5503 182.742 88.4343 192.163 91.137 203.554C99.8257 207.571 104.044 209.97 103.766 210.728C103.513 211.435 99.4469 210.778 91.5663 208.707C90.4802 209.187 88.8132 209.819 86.6915 210.147C86.2874 210.197 81.4126 210.93 80.958 209.717C80.5033 208.505 84.6204 205.904 86.1359 204.969C85.7317 198.68 85.3781 193.35 85.1255 189.309C84.6456 181.757 84.6204 180.923 84.4183 178.675C83.6353 170.012 83.0291 169.38 82.7008 163.47C82.044 151.573 84.2415 148.745 85.7065 147.532C86.0601 147.305 87.6261 146.092 88.4343 146.572Z" fill="#636E72"/>
<path opacity="0.19" d="M82.7008 156.196C85.2266 179.433 87.2472 196.684 88.005 201.837C88.0808 202.393 88.2576 203.555 89.0153 204.843C91.2633 208.783 96.4159 209.92 99.7753 210.298C95.153 209.111 92.5009 209.137 90.8844 209.44C90.6571 209.49 90.0509 209.591 89.1669 209.717C88.1313 209.869 86.439 210.122 84.2921 210.147C83.3322 210.172 82.0441 210.147 80.5539 209.995C80.6549 209.717 80.8317 209.288 81.1348 208.859C81.6147 208.126 82.1956 207.697 83.2817 206.99C84.0395 206.484 85.0245 205.904 86.1612 205.272C84.9993 188.93 83.8627 172.563 82.7008 156.196Z" fill="#636E72"/>
<path d="M170.169 200.877C173.428 200.776 176.762 200.624 180.121 200.448C182.243 200.347 184.314 200.22 186.41 200.069C187.951 199.336 189.517 198.629 191.058 197.897C192.068 198.983 193.685 200.549 195.882 202.089C203.838 207.671 211.971 207.621 211.921 209.01C211.87 209.945 208.132 210.677 205.228 210.879C197.928 211.384 192.043 208.909 188.658 207.065C183.102 208 177.545 208.909 171.988 209.844C171.382 206.863 170.776 203.883 170.169 200.877Z" fill="#2D3436"/>
<path d="M144.129 143.617C138.8 149.048 137.183 157.585 139.86 165.617C136.35 178.498 132.813 191.355 129.303 204.236C129.1 204.868 128.444 207.141 129.53 209.389C130.818 212.041 133.975 213.607 137.385 213.203C150.418 212.824 163.426 212.445 176.459 212.092C177.293 206.257 178.101 200.422 178.935 194.588C171.382 195.118 163.805 195.623 156.253 196.154C159.284 189.511 163.578 179.509 167.922 166.956C174.186 148.947 173.782 145.234 171.963 142.708C167.392 136.368 152.338 135.257 144.129 143.617Z" fill="#B2BEC3"/>
<path opacity="0.25" d="M144.052 155.337C143.522 153.847 142.082 149.881 140.769 150.033C139.304 150.184 138.369 155.413 138.673 159.656C138.875 162.182 139.481 164.228 140.011 165.592C139.632 166.88 139.001 169.103 138.218 171.856C131.954 194.057 132.661 191.936 131.929 194.638C130.716 199.033 129.731 202.595 129.1 204.817C128.948 205.424 128.595 207.015 129.277 208.833C129.984 210.728 131.373 211.688 131.929 212.066C132.333 212.344 133.495 213.102 135.086 213.279C135.389 213.304 135.515 213.304 137.309 213.228C138.142 213.203 139.001 213.178 139.834 213.153C142.234 213.052 144.835 213.026 145.72 213.026C147.866 213.001 154.964 212.799 176.408 212.066C176.863 209.086 177.317 206.08 177.747 203.1C149.23 211.763 139.86 209.591 137.081 205.323C131.322 196.406 149.938 171.704 144.052 155.337Z" fill="#636E72"/>
<path opacity="0.3" d="M129.655 203.125C132.307 193.35 134.96 183.55 137.586 173.775C136.98 176.301 131.853 198.351 134.732 206.383C134.934 206.99 135.465 208.404 136.728 209.717C140.163 213.279 145.821 212.824 147.841 212.572C144.33 212.95 141.299 213.153 138.9 213.228C135.869 213.355 134.202 213.304 132.459 212.319C131.903 212.016 130.489 211.182 129.605 209.465C128.165 206.585 129.453 203.58 129.655 203.125Z" fill="#636E72"/>
<path d="M231.875 129.877C234.88 128.588 237.911 127.25 240.993 125.861C242.913 124.977 244.832 124.118 246.701 123.234C247.888 121.996 249.076 120.758 250.263 119.521C251.601 120.178 253.672 121.036 256.274 121.693C265.721 123.991 273.273 120.986 273.727 122.299C274.03 123.183 270.797 125.229 268.171 126.467C261.553 129.574 255.188 129.422 251.323 128.942C246.474 131.821 241.65 134.701 236.8 137.58C235.158 135.029 233.517 132.453 231.875 129.877Z" fill="#2D3436"/>
<path d="M143.219 138.919C144.204 138.565 145.745 138.035 147.715 137.58C159.51 134.827 167.517 139.096 177.797 140.51C186.89 141.773 193.861 140.258 201.161 138.717C208.435 137.151 220.307 133.514 233.264 123.89C234.552 124.673 237.204 126.517 239.099 129.952C241.245 133.817 241.22 137.454 241.119 138.944C235.234 143.491 226.368 149.477 214.623 154.427C207.122 157.61 200.858 159.151 188.355 162.283C174.615 165.718 165.269 167.991 152.64 168.117C146.174 168.193 140.87 167.663 137.359 167.208C139.329 157.762 141.274 148.34 143.219 138.919Z" fill="#B2BEC3"/>
<path opacity="0.13" d="M137.359 167.107C139.708 167.461 142.865 167.865 146.578 168.042C149.357 168.193 154.459 168.37 162.061 167.511C169.513 166.678 175.575 165.288 187.345 162.51C194.038 160.944 197.499 160.136 201.818 158.797C206.061 157.484 211.239 155.892 217.73 152.937C219.498 152.129 226.596 148.845 235.209 143.112C237.608 141.521 239.553 140.106 240.942 139.071C241.069 138.187 241.144 136.974 240.993 135.56C240.791 133.943 240.361 132.655 239.957 131.771C214.194 146.875 181.99 158.62 146.477 154.983C144.33 154.756 142.209 154.503 140.112 154.175C139.228 158.494 138.294 162.788 137.359 167.107Z" fill="#636E72"/>
<path opacity="0.11" d="M137.435 167.031C137.889 164.91 138.369 162.788 138.824 160.666C147.74 161.853 158.096 162.46 169.538 161.702C201.59 159.58 226.242 147.86 240.942 139.121C236.901 142.177 230.89 146.345 223.135 150.386C209.951 157.231 199.443 159.681 180.98 164C164.84 167.764 157.06 168.168 151.2 168.117C145.543 168.016 140.794 167.511 137.435 167.031Z" fill="#636E72"/>
<path d="M80.377 128.387C74.113 130.079 69.314 142.784 72.1176 152.508C74.9718 162.434 84.9235 166.375 92.7535 169.481C107.63 175.366 121.573 172.664 128.418 171.325C133.419 170.365 137.46 169.052 140.239 168.042C141.704 166.728 146.023 162.485 147.563 155.16C149.407 146.421 145.947 139.525 145.113 137.985C131.651 143.213 121.396 142.531 115.46 141.47C101.922 139.02 91.9957 133.489 91.9957 133.489C85.7065 129.978 83.61 127.502 80.377 128.387Z" fill="white" stroke="#2D3436" stroke-miterlimit="10"/>
<path opacity="0.13" d="M72.9003 138.465C72.7235 144.021 88.0046 148.871 88.8886 149.174C94.1676 150.942 102.376 152.887 122.936 152.003C129.15 151.75 137.712 151.169 147.942 149.805C147.967 148.315 147.891 146.421 147.437 144.249C146.881 141.698 145.997 139.652 145.239 138.187C143.724 138.667 141.577 139.323 138.975 140.056C136.702 140.687 135.212 141.091 133.494 141.445C133.494 141.445 129.302 142.304 124.604 142.38C117.809 142.481 112.126 140.814 106.367 139.096C100.457 137.353 93.4856 134.676 90.2526 132.428C89.2422 131.721 88.3582 131.216 86.6154 130.18C83.7612 128.513 83.0288 128.311 82.2963 128.235C80.3767 128.058 78.8359 129.018 78.0782 129.523C75.7544 130.988 74.7694 133.16 74.0874 134.676C73.8348 135.232 72.9255 137.176 72.9003 138.465Z" fill="#636E72"/>
<path opacity="0.15" d="M79.6947 128.665C83.8623 131.923 89.798 136.015 97.5017 139.677C101.543 141.597 108.06 144.628 116.597 146.32C122.659 147.507 133.671 148.82 147.538 145.335C147.386 144.122 147.058 142.632 146.401 140.99C145.972 139.93 145.492 138.995 145.037 138.237C138.849 140.915 133.419 141.9 129.756 142.279C120.739 143.238 113.743 141.546 109.575 140.511C105.862 139.576 101.24 138.439 96.1377 135.61C94.2686 134.6 91.0609 132.63 85.6809 129.877C84.418 129.22 83.3572 128.69 82.6247 128.361C81.6144 128.462 80.6546 128.563 79.6947 128.665Z" fill="#636E72"/>
<path d="M116.799 129.978C118.34 129.018 119.628 128.841 122.381 128.412C129.479 127.275 128.797 127.225 130.135 127.174C133.343 127.048 135.515 126.947 137.839 128.26C138.572 128.664 140.39 129.725 141.426 131.948C141.603 132.327 142.866 135.105 141.855 137.429C140.744 139.98 136.197 140.637 127.104 141.975C125.842 142.152 122.255 142.657 117.835 141.874C114.955 141.369 114.122 140.712 113.617 140.081C112.025 138.086 112.707 134.777 113.945 132.756C114.88 131.19 116.143 130.382 116.799 129.978Z" fill="#2D3436"/>
<path d="M140.112 133.842C140.39 133.287 142.108 133.413 143.32 134.12C144.507 134.802 145.492 136.217 145.492 137.707C145.467 139.323 144.305 140.46 142.613 142.102C140.415 144.249 138.799 144.83 138.976 145.511C139.228 146.547 142.916 145.84 143.472 147.254C143.951 148.467 141.906 150.588 141.299 150.336C140.895 150.159 141.4 149.098 140.769 148.391C139.935 147.482 138.395 148.391 137.612 147.583C136.98 146.901 137.258 145.511 137.662 144.653C138.218 143.541 138.925 143.516 141.072 141.622C142.714 140.182 142.891 139.677 142.916 139.298C142.941 138.944 142.865 138.566 141.83 136.924C140.466 134.676 139.91 134.196 140.112 133.842Z" fill="#2D3436"/>
<path d="M133.924 134.272C133.293 134.701 131.777 135.787 131.6 137.732C131.449 139.475 132.484 140.763 132.737 141.041C128.847 142.329 128.014 142.935 128.064 143.264C128.191 143.895 131.676 144.021 134.581 143.213C135.667 142.91 136.652 142.481 137.41 142.127C138.85 141.47 139.582 141.167 139.961 140.662C140.921 139.424 140.592 137.682 140.34 136.444C140.062 135.055 139.885 134.07 139.026 133.463C137.511 132.377 135.086 133.463 133.924 134.272Z" fill="#2D3436"/>
<path d="M109.044 135.661C108.489 134.827 108.362 133.918 108.287 133.211C108.034 131.392 108.489 129.902 108.792 129.119C108.691 127.957 108.564 126.795 108.463 125.659C108.842 125.835 109.272 126.063 109.726 126.341C110.509 126.846 111.141 127.376 111.621 127.831C112.252 127.502 112.959 127.174 113.793 126.871C114.677 126.543 115.51 126.315 116.243 126.139C116.394 125.734 116.748 125.027 117.455 124.396C117.935 123.966 118.44 123.714 118.769 123.587C118.769 123.815 118.769 124.042 118.794 124.295C118.895 125.128 119.122 125.835 119.375 126.341C119.754 126.618 121.421 127.907 121.825 130.256C122.153 132.099 121.497 133.59 121.118 134.246C119.627 136.949 116.622 137.53 115.94 137.656C113.793 138.086 110.459 137.808 109.044 135.661Z" fill="#2D3436"/>
<path d="M118.617 118.662C118.971 118.283 119.021 118.586 119.097 118.94C119.148 119.218 119.173 119.521 119.223 119.799C119.274 120.102 119.4 120.43 119.703 120.582C120.461 120.961 121.37 119.976 121.901 119.546C122.28 119.218 121.724 118.687 121.37 119.016C121.118 119.243 120.84 119.445 120.562 119.647C120.259 119.874 120.082 119.976 119.981 119.546C119.88 119.091 119.905 118.586 119.703 118.157C119.35 117.399 118.567 117.652 118.112 118.157C117.758 118.485 118.289 119.016 118.617 118.662Z" fill="white"/>
<path d="M110.307 132.781C111.494 133.893 113.389 133.362 113.742 131.746C113.793 131.518 113.439 131.417 113.389 131.645C113.111 132.958 111.595 133.463 110.61 132.529C110.383 132.352 110.13 132.63 110.307 132.781Z" fill="white"/>
<path d="M115.864 132.504C115.839 132.504 115.839 132.529 115.814 132.529C115.864 132.579 115.94 132.63 115.99 132.68C115.99 132.655 115.99 132.655 115.99 132.63C115.94 132.68 115.915 132.706 115.864 132.756C115.839 132.731 115.839 132.706 115.814 132.68C115.889 132.706 115.99 132.731 116.066 132.756C116.066 132.731 116.041 132.706 116.041 132.655C115.915 132.706 115.814 132.756 115.687 132.807C116.016 133.413 115.51 134.12 114.828 133.994C114.601 133.943 114.5 134.322 114.727 134.347C115.738 134.549 116.496 133.514 116.016 132.605C115.915 132.403 115.637 132.554 115.662 132.756C115.687 132.832 115.687 132.882 115.738 132.933C115.788 133.034 115.915 133.034 115.99 133.009C116.394 132.832 116.142 132.276 115.738 132.403C115.687 132.428 115.611 132.478 115.611 132.529C115.586 132.63 115.586 132.68 115.611 132.781C115.611 132.857 115.713 132.933 115.788 132.933C115.889 132.908 115.94 132.908 116.041 132.857C116.268 132.706 116.091 132.377 115.864 132.504Z" fill="white"/>
<path d="M115.864 132.781C116.091 133.994 117.784 134.019 118.062 132.832C118.112 132.604 117.759 132.503 117.708 132.731C117.506 133.564 116.395 133.514 116.243 132.68C116.192 132.428 115.814 132.529 115.864 132.781Z" fill="white"/>
<path d="M116.622 130.862C117.986 131.468 119.476 130.634 119.627 129.144C119.653 128.892 119.274 128.892 119.249 129.144C119.122 130.331 117.91 131.039 116.799 130.533C116.596 130.432 116.394 130.761 116.622 130.862Z" fill="white"/>
<path d="M105.585 138.919C105.357 138.086 105.686 137.05 106.342 136.469C107.151 135.762 108.211 135.939 109.55 136.141C110.914 136.368 114.021 136.873 115.46 139.45C115.814 140.081 116.294 140.94 115.94 141.571C115.183 142.986 110.99 142.001 108.893 141.243C107.302 140.687 105.913 140.182 105.585 138.919Z" fill="#2D3436"/>
<path d="M124.175 133.413C123.619 133.463 123.669 134.423 122.76 135.636C121.876 136.797 120.765 137.328 118.744 138.237C116.774 139.146 115.991 139.146 115.056 140.182C114.829 140.435 113.945 141.42 114.248 142.076C114.551 142.733 115.865 142.683 116.698 142.683C117.38 142.657 117.911 142.582 120.613 141.773C121.8 141.42 122.785 141.091 124.023 140.536C125.109 140.03 125.387 139.778 125.589 139.5C126.321 138.515 126.094 137.227 125.968 136.52C125.715 135.156 124.932 133.337 124.175 133.413Z" fill="#2D3436"/>
<path d="M62.949 130.862C63.1005 132.882 64.6918 134.221 66.3083 135.585C67.6975 136.772 70.5011 138.742 74.9971 139.55C75.8306 138.944 77.245 137.782 78.3564 135.838C79.2657 134.221 79.594 132.706 79.7203 131.746C75.7043 129.346 71.7135 126.947 67.6975 124.547C64.6665 126.063 62.7722 128.513 62.949 130.862Z" fill="white" stroke="#2D3436" stroke-miterlimit="10"/>
<path d="M61.7618 104.113C59.3623 104.922 57.9983 106.791 55.3968 110.453C52.4668 114.595 50.2441 118.283 49.1075 121.062C48.9307 121.466 49.057 121.946 49.4106 122.223C49.8652 122.577 50.7745 122.855 51.2797 123.082C51.0776 124.471 50.9513 126.492 51.4312 128.816C52.29 133.009 54.639 135.787 55.8009 136.999C57.9226 137.201 61.2566 137.227 64.9696 135.888C66.2072 135.433 68.4046 134.625 70.6526 132.655C72.6227 130.937 73.7846 129.094 74.4413 127.856C75.0728 128.008 76.1084 128.109 77.2197 127.755C79.5687 127.022 81.943 124.396 81.1852 122.35C80.6296 120.834 78.4321 119.849 75.9316 120.253C76.1589 119.293 76.3862 117.904 76.3862 116.237C76.3862 115.833 76.3104 112.777 75.2243 110.377C73.1532 105.806 66.6366 102.472 61.7618 104.113Z" fill="white" stroke="#2D3436" stroke-miterlimit="10"/>
<path d="M51.2038 116.515C50.6734 115.151 49.5873 111.792 50.6229 107.826C50.9765 106.488 51.6837 103.937 54.058 101.866C56.9121 99.365 60.2714 99.2387 61.2312 99.2387C61.7869 98.6072 62.7467 97.6979 64.1612 97.117C64.7169 96.8897 66.2576 96.334 69.6169 96.8139C71.385 97.0665 74.0623 97.6727 77.0933 99.2387C79.4423 100.476 80.882 101.866 81.7408 102.876C85.6305 107.448 84.1656 111.565 88.2068 115.126C89.7728 116.515 90.2022 116.086 92.5512 118.056C93.3847 118.763 95.4812 120.632 97.2997 123.512C98.5626 125.507 101.745 130.508 101.013 136.848C100.457 141.824 97.2998 149.048 92.7028 149.629C87.7269 150.26 86.5145 142.379 76.5881 138.591C71.0061 136.469 66.889 137.227 66.2576 135.156C65.5756 132.882 69.8442 129.574 73.4056 127.199C73.9108 127.528 74.8959 128.083 76.0325 127.907C78.3815 127.553 79.998 124.37 79.1645 122.451C78.8361 121.668 78.1541 121.264 77.9521 121.137C76.2598 120.152 74.3654 121.163 74.2139 121.238C72.168 118.99 70.6778 116.919 69.6674 115.379C68.3035 113.282 67.6721 111.918 67.4447 111.438C66.7375 109.898 66.3081 108.534 66.0303 107.498C64.5653 107.574 62.5447 107.852 60.3725 108.71C59.8673 108.913 58.0992 109.645 56.1291 111.135C55.8765 111.312 54.7904 112.146 53.5528 113.509C52.5425 114.57 51.7595 115.656 51.2038 116.515Z" fill="#1890ff"/>
<path d="M55.5483 116.768C56.0787 117.753 56.6849 118.435 57.8215 118.637C58.9329 118.839 60.019 118.586 60.9283 117.904C61.2061 117.677 60.9283 117.197 60.6504 117.424C59.9432 117.955 59.1097 118.207 58.2256 118.132C57.1396 118.031 56.5586 117.424 56.0535 116.49C55.8514 116.161 55.3715 116.439 55.5483 116.768Z" fill="#2D3436"/>
<path d="M56.3314 113.434C58.0994 112.398 59.8675 112.827 61.5345 113.914C61.8376 114.116 62.1155 113.61 61.8124 113.434C59.9938 112.247 57.9984 111.817 56.0535 112.954C55.7504 113.131 56.0283 113.636 56.3314 113.434Z" fill="#2D3436"/>
<path d="M57.7964 122.198C57.7206 122.527 57.5943 122.527 57.4175 122.198C57.4428 122.148 57.468 122.122 57.4933 122.072C57.5438 122.047 57.6196 122.047 57.6701 122.072C57.7206 122.148 57.7711 122.223 57.8216 122.325C57.7964 122.325 57.7964 122.35 57.7964 122.375C57.6701 122.375 57.5185 122.375 57.3922 122.375C57.4428 122.274 57.4933 122.148 57.5185 122.047C57.367 122.021 57.2407 122.198 57.2407 122.325C57.2407 122.501 57.367 122.602 57.5185 122.602C57.8469 122.628 58.0489 122.173 57.7711 121.971C57.6448 121.87 57.4933 121.87 57.367 121.971C57.1649 122.148 57.1649 122.527 57.4427 122.628C57.6701 122.703 57.9479 122.527 57.9479 122.274C57.9479 122.021 57.7206 121.845 57.4933 121.895C57.2912 121.946 57.1397 122.148 57.2154 122.35C57.367 122.678 57.8974 122.552 57.7964 122.198Z" fill="#2D3436"/>
<path d="M60.4988 121.264C60.524 121.39 60.3472 121.466 60.2462 121.365C60.2209 121.339 60.1957 121.314 60.1957 121.264C60.3978 121.036 60.4988 121.036 60.5493 121.289C60.6503 120.935 60.1199 120.784 59.9936 121.137C59.9178 121.39 60.1199 121.643 60.3725 121.643C60.6251 121.643 60.8019 121.441 60.7514 121.188C60.7261 120.961 60.4988 120.784 60.2462 120.834C59.9936 120.885 59.8673 121.163 59.9179 121.39C60.0441 121.769 60.5998 121.617 60.4988 121.264Z" fill="#2D3436"/>
<path d="M59.6655 123.663C59.8423 123.663 59.7413 124.017 59.5645 123.916C59.3624 123.815 59.6402 123.486 59.7413 123.688C59.5644 123.36 59.0845 123.663 59.2614 123.966C59.3876 124.194 59.6907 124.244 59.8928 124.093C60.1454 123.916 60.1201 123.562 59.8675 123.411C59.6402 123.259 59.3119 123.36 59.2361 123.638C59.1603 123.916 59.3876 124.244 59.6907 124.219C59.8423 124.219 59.9686 124.093 59.9686 123.941C59.9433 123.789 59.817 123.638 59.6655 123.663Z" fill="#2D3436"/>
<path d="M51.4565 127.704C53.4519 127.73 55.2705 126.997 56.6849 125.583C56.9375 125.33 56.5334 124.926 56.2808 125.179C54.9674 126.492 53.3004 127.149 51.4565 127.124C51.0776 127.124 51.0776 127.679 51.4565 127.704Z" fill="#2D3436"/>
<path opacity="0.1" d="M66.0303 107.372C66.4344 110.251 66.9143 112.6 67.2427 114.191C68.1519 118.46 68.8087 120.178 68.4551 122.88C68.1772 124.951 67.47 126.442 67.0659 127.275C64.1359 133.388 57.6446 136.216 55.5987 137.025C56.7353 137.126 58.0992 137.151 59.5895 137.025C62.3173 136.772 64.5653 136.065 66.1818 135.408C66.788 136.014 67.5458 136.671 68.4551 137.277C70.9051 138.894 73.3298 139.424 74.8706 139.626C75.4768 139.222 76.0577 138.818 76.6639 138.414C77.851 138.919 79.5938 139.753 81.5135 141.117C87.2723 145.183 88.6615 149.679 92.1471 149.527C93.8899 149.452 95.5064 148.29 95.86 148.012C96.7946 147.305 97.4765 146.471 98.2343 145.158C99.1941 143.491 101.063 140.182 101.139 135.408C101.189 132.453 100.508 130.003 99.8761 128.336C94.1677 135.433 85.58 137.808 79.5938 134.827C75.5778 132.832 73.7592 128.942 73.0773 127.174C75.1989 128.311 77.649 127.73 78.7603 126.113C79.5938 124.901 79.8717 122.779 78.5078 121.491C77.4217 120.43 75.6536 120.253 74.1886 121.087C72.8499 119.698 71.385 117.904 69.9705 115.732C68.0257 112.651 66.788 109.696 66.0303 107.372Z" fill="#636E72"/>
<path d="M16.8782 103.507C19.9597 103.356 22.4097 105.427 23.218 106.109C23.42 106.286 24.0262 106.766 25.4407 108.584C26.8046 110.352 27.4613 111.741 29.3557 114.192C31.3006 116.717 33.2202 118.132 37.0341 120.961C40.5197 123.562 43.2729 125.027 47.2131 127.149C53.6287 130.559 58.7561 133.312 65.9546 135.434C70.4 136.747 71.3851 136.545 75.1738 138.06C80.0739 140.005 84.9487 141.95 85.7569 145.991C86.2116 148.214 85.4033 150.967 83.5342 152.382C81.7661 153.72 79.1141 153.847 71.8145 151.22C59.5138 146.8 50.5977 140.586 46.0007 137.151C44.6873 136.166 42.9193 134.701 39.3579 131.796C33.1697 126.745 28.1938 122.527 24.8597 119.622C24.0262 119.445 22.3087 119.092 20.086 118.637C16.6004 117.93 15.6153 117.753 14.3271 117.046C12.5086 116.061 10.4121 114.293 10.7405 113.459C11.1699 112.398 15.489 113.307 16.1962 113.434C15.7921 112.802 15.1607 111.994 14.2261 111.186C12.0539 109.317 10.4879 109.494 10.2101 108.534C9.78069 106.993 13.1653 103.684 16.8782 103.507Z" fill="white" stroke="#2D3436" stroke-miterlimit="10"/>
<path d="M10.6148 107.372C12.8628 107.397 14.5046 108.862 16.0453 110.302C16.3232 110.555 16.702 110.151 16.4495 109.898C14.7824 108.332 12.9891 106.817 10.6148 106.791C10.2612 106.817 10.2612 107.372 10.6148 107.372Z" fill="#2D3436"/>
<path d="M12.206 105.655C14.454 105.73 16.4241 106.69 17.8891 108.408C18.1164 108.686 18.5205 108.282 18.2932 108.004C16.7525 106.185 14.5803 105.175 12.206 105.099C11.8271 105.074 11.8271 105.629 12.206 105.655Z" fill="#2D3436"/>
<path d="M15.5401 104.063C17.1314 104.442 18.5206 105.301 19.5561 106.564C19.7835 106.842 20.1876 106.438 19.9603 106.16C18.8489 104.821 17.384 103.912 15.6917 103.508C15.3381 103.432 15.1865 103.988 15.5401 104.063Z" fill="#2D3436"/>
<path opacity="0.16" d="M10.5644 107.044C11.1706 106.564 12.4587 107.296 13.5701 107.953C15.0098 108.787 15.9696 109.595 16.298 109.848C16.9547 110.277 17.3841 111.035 17.3841 111.035C17.9903 112.02 21.0212 113.156 21.0212 113.156C22.5115 113.712 23.2439 114.697 27.3105 118.082C31.8569 121.845 35.09 125.028 35.873 125.785C42.7684 132.378 56.8372 140.46 71.6131 143.971C77.9276 145.461 85.2525 146.371 85.5555 149.124C85.7071 150.614 83.8128 152.079 82.5499 152.736C81.1859 153.468 77.7003 154.756 63.6821 147.911C59.666 145.941 55.2711 143.794 49.6891 139.955C47.3654 138.364 45.7236 137.076 37.7168 130.433C34.307 127.604 29.9626 123.992 24.8857 119.723C22.2084 119.319 13.949 117.955 11.3221 114.874C11.0696 114.571 10.4634 113.864 10.6907 113.409C11.0696 112.575 13.8732 113.081 16.2727 113.661C15.3382 112.121 14.3278 111.262 13.6206 110.732C12.0294 109.595 10.5139 109.317 10.3118 108.155C10.2108 107.776 10.2613 107.271 10.5644 107.044Z" fill="#636E72"/>
<path opacity="0.11" d="M10.8422 113.611C11.9031 114.192 13.0649 114.773 14.3278 115.328C18.4954 117.147 22.4357 117.981 25.6687 118.359C26.2749 118.814 27.2347 119.521 28.3966 120.431C32.7915 123.941 35.7214 126.922 36.3529 127.579C40.3436 131.569 49.3102 137.985 58.6052 142.658C64.4398 145.588 73.1539 149.25 84.52 151.397C84.2169 151.852 83.6107 152.609 82.6004 153.013C82.0447 153.241 81.4385 153.342 80.0493 153.241C77.8266 153.089 76.3869 152.66 76.3869 152.66C69.4914 150.614 62.3939 147.078 62.3939 147.078C58.1001 144.956 55.9531 143.895 53.4526 142.304C49.6133 139.905 46.9865 137.732 45.4963 136.495C40.1163 132.049 33.1704 126.366 24.8099 119.496C22.1326 119.168 19.9351 118.688 18.2934 118.284C13.7469 117.147 12.3577 116.187 11.5242 114.924C11.1201 114.419 10.9433 113.914 10.8422 113.611Z" fill="#636E72"/>
</svg>
