<svg width="304" height="259" viewBox="0 0 304 259" fill="none" xmlns="http://www.w3.org/2000/svg">
<path d="M52 116C52 60.7715 96.7715 16 152 16V16C207.228 16 252 60.7715 252 116V116C252 171.228 207.228 216 152 216V216C96.7715 216 52 171.228 52 116V116Z" fill="#EBFAFA"/>
<path d="M24.9745 87.7575C28.7682 84.6279 33.9045 84.1747 38.5932 85.038C43.6017 85.9445 48.1625 88.3834 52.7873 90.4338C57.5613 92.5706 62.4206 94.103 67.6635 94.362C72.885 94.6426 78.1066 93.8872 83.179 92.5922C93.7713 89.8942 103.49 84.7143 113.656 80.8077C118.75 78.8436 124.014 77.1385 129.427 76.3615C132.368 75.9298 135.331 75.8219 138.293 76.1457C141.106 76.4478 143.856 77.1169 146.605 77.8076C152.679 79.34 158.732 80.6782 164.955 81.4336C171.37 82.2106 177.849 82.4696 184.307 82.2538C184.712 82.2322 184.712 81.5847 184.307 81.6063C172.585 82.0379 160.863 80.7645 149.482 77.8939C144.047 76.5126 138.655 75.0881 133.008 75.3687C127.53 75.6493 122.117 77.1169 116.959 78.9083C106.623 82.5128 96.9042 87.8007 86.4185 91.0166C81.0903 92.6353 75.5704 93.7577 69.9865 93.7792C64.3174 93.8008 58.9893 92.4627 53.8103 90.1748C48.6953 87.9302 43.6869 85.1459 38.1243 84.2826C33.393 83.5488 28.3419 84.1315 24.527 87.2827C24.2073 87.5632 24.6548 88.0381 24.9745 87.7575Z" fill="#DFE6E9"/>
<path d="M139.764 68.0306C154.533 74.484 171.306 73.4049 186.417 68.7213C194.601 66.1744 202.742 62.7643 211.459 62.7858C220.24 62.8074 228.573 65.9154 237.162 67.2968C244.962 68.5486 253.551 68.3975 260.243 63.6492C260.584 63.4118 260.265 62.8506 259.924 63.088C253.743 67.4694 245.9 67.8579 238.654 66.8651C230.448 65.7428 222.563 62.8506 214.272 62.2463C205.982 61.6419 198.16 64.1672 190.381 66.7572C182.623 69.3256 174.78 71.3329 166.617 71.8077C157.581 72.3473 148.438 71.117 140.105 67.4694C139.721 67.2968 139.401 67.8579 139.764 68.0306Z" fill="#DFE6E9"/>
<path d="M16.8331 121.838C21.5006 118.471 27.0205 116.399 32.7323 115.838C35.5882 115.557 38.4653 115.665 41.2786 116.161C44.1984 116.679 47.0117 117.672 49.8036 118.665C54.9825 120.478 60.1188 121.859 65.5748 120.586C70.2849 119.485 74.5474 117.003 78.7247 114.65C83.6478 111.866 88.7628 109.017 94.4746 108.499C94.8795 108.456 94.8795 107.809 94.4746 107.852C84.2872 108.78 76.636 116.528 67.1307 119.485C64.7223 120.241 62.2075 120.629 59.6926 120.478C56.6023 120.284 53.5972 119.312 50.6987 118.298C47.7789 117.284 44.8591 116.183 41.7901 115.6C39.1473 115.104 36.4407 114.953 33.7766 115.125C27.596 115.514 21.5645 117.651 16.5135 121.298C16.1725 121.514 16.4921 122.075 16.8331 121.838Z" fill="#DFE6E9"/>
<path d="M73.3326 130.125C81.6232 121.255 93.8139 117.629 105.6 117.521C112.441 117.456 119.261 118.449 125.932 119.895C132.283 121.255 138.442 123.024 145.006 122.14C151.869 121.211 158.284 118.233 164.422 115.103C164.784 114.909 164.465 114.348 164.102 114.542C158.263 117.521 152.189 120.348 145.688 121.384C142.364 121.902 139.018 121.859 135.693 121.319C132.326 120.78 129.043 119.873 125.697 119.161C113.507 116.571 100.527 115.47 88.5497 119.679C82.6462 121.751 77.1902 125.053 72.885 129.651C72.608 129.974 73.0555 130.428 73.3326 130.125Z" fill="#DFE6E9"/>
<path d="M172.116 136.579C175.59 137.809 179.149 136.665 182.325 135.133C185.884 133.406 189.23 131.27 192.874 129.737C196.519 128.205 200.44 127.169 204.404 127.665C208.027 128.118 211.374 129.759 214.549 131.507C217.554 133.169 220.517 134.982 223.713 136.255C227.273 137.658 231.109 138.327 234.924 138.241C242.745 138.068 249.395 134.119 256.535 131.442C263.205 128.939 272.093 127.816 277.442 133.687C277.719 133.989 278.167 133.536 277.89 133.234C273.691 128.636 266.999 128.118 261.245 129.349C253.743 130.946 247.264 135.586 239.719 137.075C235.691 137.874 231.471 137.766 227.486 136.795C223.777 135.888 220.453 134.119 217.128 132.241C214.123 130.536 211.075 128.766 207.772 127.751C204.34 126.694 200.76 126.672 197.286 127.536C193.045 128.593 189.145 130.687 185.33 132.802C181.387 134.96 176.826 137.593 172.244 135.975C171.903 135.824 171.732 136.45 172.116 136.579Z" fill="#DFE6E9"/>
<path d="M228.232 146.982C237.055 147.522 244.323 141.457 252.656 139.622C254.872 139.126 257.217 138.91 259.476 139.299C261.501 139.644 263.333 140.486 265.081 141.565C268.086 143.421 271.006 145.817 274.672 146.076C279.126 146.378 283.069 143.572 286.394 140.939C286.713 140.68 286.266 140.227 285.946 140.486C282.706 143.033 278.828 145.817 274.48 145.407C270.708 145.061 267.724 142.299 264.548 140.507C257.238 136.363 249.416 139.622 242.405 142.752C237.908 144.738 233.24 146.659 228.253 146.356C227.827 146.313 227.827 146.961 228.232 146.982Z" fill="#DFE6E9"/>
<path d="M27.063 188.25C30.1534 185.271 34.7356 184.106 38.8489 185.25C43.154 186.437 45.9246 190.192 49.3772 192.782C56.2612 197.941 65.6387 197.12 73.2046 194.077C82.1345 190.494 89.5726 184.019 98.4812 180.372C102.829 178.58 107.539 177.436 112.27 177.76C116.874 178.084 120.795 180.091 124.44 182.811C128.063 185.509 131.473 188.703 135.714 190.408C140.254 192.221 145.369 191.832 149.631 189.437C149.993 189.242 149.674 188.681 149.311 188.876C144.964 191.314 139.764 191.53 135.224 189.501C131.43 187.796 128.319 184.947 125.015 182.444C121.627 179.875 118.025 177.868 113.762 177.264C109.372 176.659 104.896 177.415 100.74 178.818C91.6399 181.904 84.1379 188.271 75.5063 192.35C67.5355 196.128 57.2842 197.897 49.7182 192.221C45.9459 189.394 42.9835 185.358 38.1242 184.408C34.0109 183.609 29.6419 184.861 26.6155 187.796C26.3171 188.077 26.7647 188.552 27.063 188.25Z" fill="#DFE6E9"/>
<path d="M108.946 200.293C112.462 197.983 116.639 196.883 120.838 197.228C124.674 197.552 128.297 198.998 131.814 200.444C135.224 201.847 138.676 203.315 142.342 203.919C146.178 204.545 150.057 204.07 153.744 202.926C158.156 201.545 162.248 199.343 166.276 197.12C166.638 196.926 166.319 196.365 165.956 196.559C158.582 200.595 150.484 204.847 141.831 203.163C134.606 201.761 128.255 197.228 120.817 196.581C116.511 196.214 112.206 197.358 108.605 199.732C108.285 199.969 108.605 200.53 108.946 200.293Z" fill="#DFE6E9"/>
<path d="M189.4 214.927C194.047 210.524 199.758 207.351 205.918 205.732C209.051 204.912 212.269 204.502 215.508 204.523C219.11 204.567 222.691 205.149 226.271 205.495C233.219 206.164 239.89 204.977 246.39 202.408C252.592 199.969 258.432 195.739 265.102 194.703C272.903 193.494 278.934 198.739 283.9 204.113C284.177 204.416 284.625 203.962 284.348 203.66C280.256 199.236 275.439 194.66 269.216 193.948C262.396 193.171 256.194 197.228 250.269 200.013C243.449 203.229 236.096 205.43 228.53 204.998C224.758 204.782 221.028 204.092 217.235 203.898C214.016 203.725 210.777 203.962 207.623 204.631C200.653 206.077 194.153 209.488 188.953 214.43C188.655 214.754 189.102 215.207 189.4 214.927Z" fill="#DFE6E9"/>
<path d="M64.6158 78.5414C70.5833 83.225 78.3624 81.153 84.8627 78.9947C92.9188 76.2967 101.082 74.5917 109.607 74.419C110.011 74.419 110.011 73.7715 109.607 73.7715C101.764 73.9226 94.0271 75.2823 86.5677 77.7428C79.8116 79.9659 71.4145 83.0955 65.0634 78.0882C64.7437 77.8292 64.2962 78.2824 64.6158 78.5414Z" fill="#111314"/>
<path d="M122.074 39.3031C129.278 38.7635 136.226 36.7347 143.195 35.0296C150.441 33.2382 157.709 32.0511 165.189 32.8713C172.734 33.6914 180.044 36.0008 187.44 37.6412C194.558 39.2383 201.783 39.9722 209.072 39.6053C217.277 39.1952 225.376 37.4469 233.027 34.4684C233.411 34.3173 233.24 33.6914 232.857 33.8425C218.94 39.2599 203.744 40.4038 189.166 37.339C181.898 35.8066 174.78 33.5619 167.427 32.4828C160.33 31.4468 153.404 32.0295 146.413 33.5835C138.314 35.3749 130.365 38.0081 122.074 38.634C121.669 38.6988 121.669 39.3463 122.074 39.3031Z" fill="#111314"/>
<path d="M237.417 93.3906C243.641 91.0596 250.098 94.3834 256.321 94.9878C259.667 95.3115 262.992 94.9878 266.253 94.2108C269.45 93.4338 272.562 92.2898 275.822 91.7934C279.318 91.2539 283.047 91.4697 286.074 93.4769C286.415 93.7143 286.734 93.1532 286.393 92.9158C281.023 89.3761 274.458 91.2754 268.789 92.8726C265.23 93.887 261.671 94.6208 257.963 94.4698C254.425 94.3403 251.036 93.3474 247.583 92.6136C244.152 91.9014 240.614 91.5128 237.268 92.7647C236.863 92.8942 237.034 93.5201 237.417 93.3906Z" fill="#111314"/>
<path d="M53.8658 156.902C59.2792 152.024 66.9091 156.341 72.9192 157.269C79.8671 158.348 86.8149 156.405 93.4431 154.528C93.8481 154.42 93.6776 153.794 93.2726 153.902C85.9411 155.974 78.3539 158.024 70.7453 156.189C65.1828 154.851 58.3841 152.002 53.397 156.448C53.0986 156.707 53.5462 157.161 53.8658 156.902Z" fill="#111314"/>
<path d="M88.3368 219.48C90.0631 217.408 92.7272 216.286 95.4126 216.631C96.9471 216.826 98.3537 217.538 99.7603 218.164C100.932 218.682 102.126 219.113 103.341 219.459C108.562 220.926 114.168 220.711 119.261 218.898C119.645 218.768 119.474 218.142 119.091 218.272C113.379 220.279 107.07 220.279 101.38 218.121C98.9078 217.192 96.6061 215.703 93.8568 215.919C91.5337 216.092 89.3811 217.214 87.868 219.005C87.6122 219.351 88.0811 219.804 88.3368 219.48Z" fill="#111314"/>
<path d="M124.611 217.711C128.489 216.567 132.475 216.006 136.524 216.027C136.929 216.027 136.929 215.38 136.524 215.38C132.432 215.358 128.383 215.941 124.44 217.085C124.056 217.215 124.206 217.841 124.611 217.711Z" fill="#111314"/>
<path d="M129.683 49.9438C133.455 52.8792 137.057 56.0303 140.509 59.3758C140.808 59.6563 141.255 59.2031 140.957 58.9225C137.483 55.5555 133.817 52.3828 130.002 49.4043C129.683 49.1237 129.363 49.6848 129.683 49.9438Z" fill="#111314"/>
<path d="M92.7272 61.318C93.0895 59.2891 93.4731 57.2603 93.8354 55.2099C93.9207 54.7998 93.3026 54.6271 93.2174 55.0372C92.8551 57.066 92.4714 59.0949 92.1091 61.1453C92.0452 61.5554 92.6633 61.728 92.7272 61.318Z" fill="#111314"/>
<path d="M215.615 74.1819C216.297 74.1819 216.851 73.6214 216.851 72.93C216.851 72.2387 216.297 71.6782 215.615 71.6782C214.932 71.6782 214.378 72.2387 214.378 72.93C214.378 73.6214 214.932 74.1819 215.615 74.1819Z" fill="#F7FAFC"/>
<path d="M54.1083 177.566C54.9204 177.566 55.5788 176.899 55.5788 176.077C55.5788 175.254 54.9204 174.587 54.1083 174.587C53.2961 174.587 52.6377 175.254 52.6377 176.077C52.6377 176.899 53.2961 177.566 54.1083 177.566Z" fill="#F7FAFC"/>
<path d="M46.9899 42.6489C48.8497 42.6489 50.3573 41.1222 50.3573 39.2388C50.3573 37.3554 48.8497 35.8286 46.9899 35.8286C45.1302 35.8286 43.6226 37.3554 43.6226 39.2388C43.6226 41.1222 45.1302 42.6489 46.9899 42.6489Z" fill="#F7FAFC"/>
<path d="M53.7463 45.9509C54.3701 45.9509 54.8758 45.4388 54.8758 44.807C54.8758 44.1752 54.3701 43.6631 53.7463 43.6631C53.1224 43.6631 52.6167 44.1752 52.6167 44.807C52.6167 45.4388 53.1224 45.9509 53.7463 45.9509Z" fill="#F7FAFC"/>
<path d="M118.281 237.935C119.669 237.935 120.795 236.795 120.795 235.388C120.795 233.982 119.669 232.841 118.281 232.841C116.892 232.841 115.766 233.982 115.766 235.388C115.766 236.795 116.892 237.935 118.281 237.935Z" fill="#F7FAFC"/>
<path d="M235.158 47.0948C236.382 47.0948 237.374 46.0898 237.374 44.8501C237.374 43.6104 236.382 42.6055 235.158 42.6055C233.934 42.6055 232.941 43.6104 232.941 44.8501C232.941 46.0898 233.934 47.0948 235.158 47.0948Z" fill="#F7FAFC"/>
<path d="M237.993 42.1523C238.746 42.1523 239.357 41.5339 239.357 40.771C239.357 40.0081 238.746 39.3896 237.993 39.3896C237.24 39.3896 236.629 40.0081 236.629 40.771C236.629 41.5339 237.24 42.1523 237.993 42.1523Z" fill="#F7FAFC"/>
<path d="M50.3786 39.0659C52.2384 39.0659 53.746 37.5392 53.746 35.6558C53.746 33.7724 52.2384 32.2456 50.3786 32.2456C48.5189 32.2456 47.0112 33.7724 47.0112 35.6558C47.0112 37.5392 48.5189 39.0659 50.3786 39.0659Z" fill="#1890ff"/>
<path d="M48.6949 179.573C49.6248 179.573 50.3786 178.81 50.3786 177.868C50.3786 176.926 49.6248 176.163 48.6949 176.163C47.765 176.163 47.0112 176.926 47.0112 177.868C47.0112 178.81 47.765 179.573 48.6949 179.573Z" fill="#1890ff"/>
<path d="M107.88 232.992C108.704 232.992 109.372 232.316 109.372 231.482C109.372 230.647 108.704 229.971 107.88 229.971C107.056 229.971 106.388 230.647 106.388 231.482C106.388 232.316 107.056 232.992 107.88 232.992Z" fill="#1890ff"/>
<path d="M226.974 39.3898C228.928 39.3898 230.512 37.7857 230.512 35.8069C230.512 33.8282 228.928 32.2241 226.974 32.2241C225.02 32.2241 223.437 33.8282 223.437 35.8069C223.437 37.7857 225.02 39.3898 226.974 39.3898Z" fill="#1890ff"/>
<path d="M168.727 93.6502C169.151 93.6502 169.494 93.3023 169.494 92.8732C169.494 92.4441 169.151 92.0962 168.727 92.0962C168.303 92.0962 167.96 92.4441 167.96 92.8732C167.96 93.3023 168.303 93.6502 168.727 93.6502Z" fill="#1890ff"/>
<path d="M160.863 47.3967C160.415 48.4543 159.989 49.5335 159.542 50.5911C159.392 50.9796 160.01 51.1522 160.16 50.7637C160.607 49.7061 161.033 48.627 161.481 47.5694C161.63 47.1809 161.012 47.0082 160.863 47.3967Z" fill="#1890ff"/>
<path d="M160.756 47.9152C161.545 48.757 162.163 49.7066 162.568 50.7858C162.717 51.1743 163.335 51.0016 163.186 50.6131C162.717 49.426 162.056 48.39 161.204 47.462C160.927 47.1598 160.458 47.613 160.756 47.9152Z" fill="#1890ff"/>
<path d="M159.712 51.1526C160.33 52.3181 161.033 53.4189 161.822 54.4549C162.078 54.7786 162.632 54.4549 162.376 54.1311C161.587 53.0735 160.884 51.9728 160.266 50.8289C160.053 50.462 159.52 50.7857 159.712 51.1526Z" fill="#1890ff"/>
<path d="M162.61 50.8289C162.355 52.0375 162.12 53.2462 161.864 54.4549C161.779 54.8649 162.397 55.0376 162.483 54.6275C162.738 53.4189 162.973 52.2102 163.228 51.0015C163.314 50.613 162.696 50.4404 162.61 50.8289Z" fill="#1890ff"/>
<path d="M220.9 139.796C220.388 140.745 220.047 141.76 219.898 142.839C219.834 143.249 220.452 143.422 220.516 143.011C220.665 141.997 220.964 141.047 221.454 140.141C221.646 139.752 221.092 139.429 220.9 139.796Z" fill="#1890ff"/>
<path d="M220.858 139.99C221.284 141.134 221.774 142.234 222.328 143.292C222.52 143.659 223.074 143.335 222.882 142.968C222.349 141.954 221.881 140.896 221.476 139.817C221.326 139.429 220.708 139.601 220.858 139.99Z" fill="#1890ff"/>
<path d="M219.771 143.292C220.325 144.091 220.857 144.889 221.412 145.688C221.646 146.033 222.2 145.71 221.966 145.364C221.412 144.566 220.879 143.767 220.325 142.968C220.09 142.623 219.536 142.947 219.771 143.292Z" fill="#1890ff"/>
<path d="M222.094 143.184C221.646 143.81 221.433 144.522 221.433 145.278C221.433 145.688 222.072 145.688 222.072 145.278C222.072 144.63 222.264 144.026 222.648 143.508C222.882 143.163 222.328 142.839 222.094 143.184Z" fill="#1890ff"/>
<path d="M42.6208 200.898C42.0454 202.171 41.4699 203.423 40.8945 204.696C40.724 205.063 41.2781 205.409 41.4486 205.02C42.0241 203.747 42.5995 202.495 43.1749 201.221C43.3454 200.855 42.8126 200.531 42.6208 200.898Z" fill="#1890ff"/>
<path d="M42.7276 201.071C43.2818 202.409 43.8359 203.747 44.39 205.085C44.5392 205.474 45.1573 205.301 45.0081 204.913C44.4539 203.575 43.8998 202.236 43.3457 200.898C43.1965 200.51 42.5785 200.682 42.7276 201.071Z" fill="#1890ff"/>
<path d="M40.7454 205.279C41.3208 206.423 41.875 207.589 42.4504 208.733C42.557 208.927 42.8127 208.927 42.9619 208.797C43.4095 208.43 43.6226 207.805 43.857 207.308C44.198 206.617 44.539 205.927 44.88 205.236C45.0718 204.869 44.5177 204.545 44.3259 204.912C44.0275 205.517 43.7078 206.121 43.4095 206.725C43.1537 207.243 42.9193 207.956 42.4717 208.322C42.6422 208.344 42.8127 208.366 42.9832 208.387C42.4078 207.243 41.8536 206.078 41.2782 204.934C41.1077 204.589 40.5536 204.912 40.7454 205.279Z" fill="#1890ff"/>
<path d="M257.132 100.579C256.471 101.852 256.066 103.19 255.874 104.615C255.81 105.025 256.45 105.025 256.514 104.615C256.684 103.298 257.068 102.068 257.664 100.903C257.878 100.536 257.323 100.212 257.132 100.579Z" fill="#1890ff"/>
<path d="M257.046 101.334C257.707 102.629 258.346 103.924 259.007 105.219C259.199 105.586 259.753 105.262 259.561 104.895C258.9 103.6 258.261 102.305 257.6 101.01C257.408 100.643 256.854 100.967 257.046 101.334Z" fill="#1890ff"/>
<path d="M255.917 104.7C256.449 105.995 257.089 107.204 257.856 108.348C258.09 108.693 258.645 108.37 258.41 108.024C257.664 106.924 257.025 105.758 256.535 104.528C256.385 104.161 255.767 104.334 255.917 104.7Z" fill="#1890ff"/>
<path d="M258.815 104.981C258.431 106.19 258.112 107.42 257.899 108.694C257.835 109.104 258.453 109.276 258.517 108.866C258.73 107.614 259.028 106.384 259.433 105.154C259.561 104.765 258.943 104.593 258.815 104.981Z" fill="#1890ff"/>
<path d="M254.659 205.365C254.403 206.229 254.169 207.07 253.913 207.934C253.807 208.344 254.403 208.495 254.531 208.106C254.787 207.243 255.021 206.401 255.277 205.538C255.405 205.128 254.787 204.955 254.659 205.365Z" fill="#1890ff"/>
<path d="M254.617 205.84C255 206.704 255.405 207.567 255.789 208.409C255.959 208.797 256.513 208.452 256.343 208.085C255.959 207.222 255.554 206.358 255.171 205.517C255 205.128 254.446 205.452 254.617 205.84Z" fill="#1890ff"/>
<path d="M254.084 208.344C254.276 209.359 254.744 210.265 255.405 211.042C255.682 211.366 256.13 210.891 255.853 210.589C255.256 209.898 254.872 209.078 254.702 208.193C254.617 207.762 253.998 207.934 254.084 208.344Z" fill="#1890ff"/>
<path d="M255.767 208.258C255.49 209.164 255.362 210.092 255.384 211.02C255.405 211.43 256.044 211.43 256.023 211.02C256.002 210.135 256.108 209.272 256.385 208.43C256.513 208.042 255.895 207.869 255.767 208.258Z" fill="#1890ff"/>
<path d="M34.586 91.4918C34.1171 92.5278 33.6695 93.5638 33.2006 94.5998C33.0301 94.9667 33.5843 95.312 33.7548 94.9235C34.2236 93.8875 34.6712 92.8515 35.1401 91.8155C35.3106 91.4486 34.7565 91.1033 34.586 91.4918Z" fill="#1890ff"/>
<path d="M33.2862 95.1397C33.7764 96.4131 34.2453 97.665 34.7355 98.9384C34.8847 99.3269 35.5027 99.1542 35.3536 98.7657C34.8634 97.4923 34.3945 96.2405 33.9043 94.967C33.7551 94.5785 33.137 94.7512 33.2862 95.1397Z" fill="#1890ff"/>
<path d="M34.586 91.535C35.2467 92.7005 35.9074 93.8875 36.5681 95.053C36.7812 95.42 37.314 95.0962 37.1222 94.7293C36.4615 93.5638 35.8008 92.3767 35.1401 91.2112C34.927 90.8443 34.3729 91.168 34.586 91.535Z" fill="#1890ff"/>
<path d="M36.7176 94.7722C36.0356 96.0672 35.4388 97.4054 34.9273 98.7652C34.7782 99.1537 35.3962 99.3263 35.5454 98.9378C36.0356 97.6212 36.611 96.3262 37.2717 95.096C37.4635 94.7291 36.9094 94.4053 36.7176 94.7722Z" fill="#1890ff"/>
<path d="M195.24 111.392C195.666 110.572 196.476 110.01 197.414 110.054C198.181 110.075 198.756 110.615 199.438 110.874C200.632 111.305 200.994 110.528 201.889 109.946C203.104 109.125 204.276 110.96 205.576 110.938C206.322 110.917 206.94 110.55 206.962 109.751C206.791 109.838 206.642 109.946 206.471 110.032C207.132 110.377 207.793 110.723 208.432 111.09C208.794 111.284 209.114 110.723 208.752 110.528C208.091 110.183 207.43 109.838 206.791 109.471C206.578 109.363 206.322 109.492 206.301 109.751C206.237 111.284 203.296 109.104 202.742 109.039C201.484 108.866 200.994 110.442 199.907 110.269C198.756 110.075 198.032 109.233 196.795 109.449C195.858 109.622 195.09 110.205 194.664 111.068C194.515 111.435 195.048 111.759 195.24 111.392Z" fill="#1890ff"/>
<path d="M203.402 107.01C204.362 105.931 205.875 107.291 206.962 107.42C208.219 107.572 209.199 106.212 210.414 106.902C211.416 107.485 213.249 108.867 213.973 107.097C214.123 106.708 213.505 106.536 213.355 106.924C212.844 108.176 211.011 106.428 210.393 106.169C209.562 105.802 209.008 106.104 208.262 106.471C207.367 106.902 206.727 106.751 205.875 106.363C205.491 106.19 205.107 106.039 204.681 105.974C204.021 105.888 203.424 106.018 202.955 106.536C202.678 106.859 203.125 107.313 203.402 107.01Z" fill="#1890ff"/>
<path d="M186.097 56.0955C186.395 55.5343 186.736 55.3832 187.12 55.6422C187.29 55.707 187.461 55.7933 187.631 55.9012C187.823 55.9876 188.015 56.1171 188.207 56.1818C188.548 56.2897 188.889 56.3329 189.23 56.2466C190.146 55.9876 190.615 54.8221 191.595 54.8437C192.512 54.8652 193.172 55.7502 194.131 55.2969C194.536 55.1027 194.813 54.7573 195.197 54.5415C196.05 54.0667 197.094 54.2393 197.818 54.8437C198.138 55.1027 198.586 54.6494 198.266 54.3904C197.307 53.5918 195.986 53.3544 194.877 53.9803C194.387 54.2609 193.982 54.8652 193.343 54.7789C192.981 54.7357 192.661 54.4767 192.32 54.3472C191.808 54.153 191.34 54.0882 190.828 54.3257C190.189 54.6278 189.762 55.4696 189.059 55.6207C188.164 55.8149 187.567 54.8868 186.736 54.8652C185.947 54.8437 185.031 55.6207 185.564 56.4192C185.777 56.7646 186.331 56.4408 186.097 56.0955Z" fill="#F7FAFC"/>
<path d="M193.173 52.2744C193.428 50.8715 195.837 52.2312 196.689 52.0801C197.243 51.9938 197.648 51.6053 198.16 51.411C198.97 51.0873 199.758 51.2168 200.504 51.67C200.866 51.8859 201.186 51.3247 200.824 51.1089C200.184 50.7204 199.502 50.5261 198.778 50.5909C198.458 50.6125 198.16 50.6988 197.883 50.8067C197.03 51.1736 196.689 51.5837 195.623 51.3247C194.6 51.0657 192.853 50.5477 192.576 52.1017C192.469 52.5118 193.087 52.6845 193.173 52.2744Z" fill="#F7FAFC"/>
<path d="M31.8156 130.277C32.0927 128.917 33.9469 130.774 34.3092 131.011C34.7141 131.292 35.1617 131.486 35.6519 131.378C36.2912 131.27 36.7814 130.73 37.4421 130.579C38.5077 130.342 39.5734 130.687 40.3406 131.464C40.639 131.766 41.0866 131.292 40.7882 131.011C40.1275 130.342 39.3176 129.932 38.3799 129.867C37.911 129.824 37.4421 129.889 36.9945 130.04C36.2912 130.277 35.7371 130.968 34.8846 130.622C33.9895 130.256 33.6485 129.327 32.6255 129.22C31.9648 129.155 31.3467 129.414 31.2189 130.104C31.1123 130.515 31.7304 130.687 31.8156 130.277Z" fill="#F7FAFC"/>
<path d="M38.9125 128.723C39.3814 128.076 41.534 129.371 42.152 129.522C43.1537 129.759 44.1767 129.759 45.1997 129.63C45.6046 129.565 45.4341 128.939 45.0292 129.004C43.2603 129.241 41.8963 128.766 40.2978 128.119C39.5732 127.838 38.8486 127.73 38.3584 128.399C38.124 128.723 38.6781 129.047 38.9125 128.723Z" fill="#F7FAFC"/>
<path d="M90.8726 173.961C91.2136 173.422 91.7464 173.076 92.4071 173.076C92.9612 173.076 93.3022 173.422 93.7924 173.573C94.2825 173.745 94.6875 173.638 95.1137 173.357C95.9449 172.796 96.3498 172.105 97.4794 172.148C98.5024 172.17 99.4828 172.666 100.378 173.12C100.74 173.314 101.06 172.753 100.698 172.558C99.0139 171.695 96.9679 170.875 95.3482 172.278C94.9859 172.58 94.9432 172.666 94.3891 172.774C93.771 172.904 93.835 172.817 93.3661 172.623C92.9612 172.45 92.5776 172.386 92.13 172.429C91.3414 172.515 90.7234 172.968 90.3184 173.616C90.1053 173.983 90.6594 174.307 90.8726 173.961Z" fill="#F7FAFC"/>
<path d="M97.9698 175.214C98.9715 174.329 100.868 176.185 102.104 176.013C102.85 175.905 103.191 175.343 103.682 174.825C104.619 173.811 106.026 173.66 107.177 174.415C107.518 174.631 107.838 174.092 107.497 173.854C106.665 173.315 105.685 173.142 104.726 173.423C104.3 173.552 103.916 173.746 103.575 174.027C103.064 174.459 102.744 175.236 102.019 175.365C100.463 175.646 98.9928 173.444 97.5222 174.761C97.2239 175.041 97.6714 175.495 97.9698 175.214Z" fill="#F7FAFC"/>
<path d="M68.8994 36.7781C69.0699 36.0658 69.4748 35.5046 70.1568 35.2025C70.7536 34.9435 71.2438 35.1161 71.8618 35.0946C72.5438 35.0514 73.0553 34.7061 73.4603 34.1881C74.0783 33.4111 74.4833 32.6125 75.3571 32.0945C76.3588 31.5117 77.5097 31.4038 78.6179 31.7491C79.0228 31.8786 79.172 31.2527 78.7884 31.1232C76.7424 30.4973 74.7177 31.2959 73.4816 33.0441C72.9914 33.7348 72.6291 34.4255 71.6913 34.4471C71.1159 34.4686 70.6257 34.3391 70.0716 34.5334C69.1338 34.8571 68.4945 35.6557 68.2813 36.6054C68.1748 37.0155 68.7928 37.1881 68.8994 36.7781Z" fill="#F7FAFC"/>
<path d="M71.9043 39.2603C70.9878 36.7998 75.3782 36.9293 76.6996 36.4544C78.3407 35.8717 79.7473 34.8357 81.1326 33.7997C81.4523 33.5623 81.1326 33.0011 80.8129 33.2385C79.8752 33.9508 78.9161 34.6414 77.8931 35.2026C76.6143 35.8933 75.3995 36.1091 74.0142 36.3249C72.5436 36.5623 70.6255 37.5983 71.3075 39.4113C71.4354 39.7998 72.0534 39.6488 71.9043 39.2603Z" fill="#F7FAFC"/>
<path d="M156.899 162.997C158.518 158.702 161.268 155.896 164.102 152.983C167.832 149.162 174.759 142.061 181.813 143.184C187.823 144.133 187.162 149.983 195.41 154.234C203.189 158.271 206.173 154.278 213.931 158.616C215.082 159.263 223.202 163.947 225.056 172.796C225.823 176.465 225.632 181.494 224.033 181.969C222.222 182.509 221.603 171.933 214.357 167.789C208.816 164.616 201.186 166.148 200.568 168.415C199.907 170.81 207.559 172.386 211.885 180.717C213.782 184.343 214.187 187.645 214.762 192.178C215.295 196.451 215.892 205.214 213.931 205.732C212.311 206.164 211.437 200.315 205.491 195.523C202.358 192.998 199.012 191.962 192.32 189.89C186.289 188.034 183.241 187.127 181.6 188.638C179.17 190.883 181.046 196.581 181.387 197.595C183.774 204.847 189.869 207.869 189.422 208.646C188.825 209.617 177.7 206.811 168.621 197.811C160.863 190.106 152.189 175.451 156.899 162.997Z" fill="#1890ff"/>
<path d="M226.484 188.012C226.399 188.616 225.951 191.983 227.912 194.142C230.086 196.516 232.729 194.703 235.393 197.056C237.844 199.214 237.524 202.451 238.27 202.387C239.123 202.322 240.423 197.94 238.59 195.286C238.014 194.444 236.608 193.688 233.816 192.221C230.96 190.71 230.576 190.775 229.83 189.955C227.976 187.926 228.253 185.271 227.593 185.271C227.081 185.271 226.633 186.868 226.484 188.012Z" fill="#F7FAFC"/>
<path d="M208.155 213.352C206.962 215.165 207.09 217.107 207.196 219.157C207.324 221.251 207.409 222.956 208.624 224.489C210.01 226.237 212.311 226.971 212.61 226.582C212.844 226.28 211.8 225.46 210.862 223.668C210.755 223.453 209.37 220.798 209.434 217.69C209.498 213.805 211.757 211.495 211.182 211.085C210.755 210.762 209.114 211.884 208.155 213.352Z" fill="#F7FAFC"/>
<path d="M216.701 177.566C220.282 179.962 218.321 185.509 220.666 188.746C220.9 189.07 221.454 188.746 221.22 188.423C218.79 185.056 220.857 179.574 217.021 177.005C216.68 176.768 216.36 177.329 216.701 177.566Z" fill="#F7FAFC"/>
<path d="M215.423 161.939C219.259 164.918 221.923 169.17 222.989 173.94C223.074 174.35 223.692 174.177 223.607 173.767C222.499 168.825 219.728 164.465 215.764 161.4C215.402 161.119 215.082 161.68 215.423 161.939Z" fill="#1890ff"/>
<path d="M203.061 173.897C206.13 176.444 208.539 179.703 210.03 183.437C210.18 183.825 210.798 183.652 210.649 183.264C209.093 179.422 206.684 176.077 203.509 173.444C203.21 173.185 202.742 173.638 203.061 173.897Z" fill="#1890ff"/>
<path d="M211.523 186.998C212.098 188.552 212.482 190.127 212.631 191.768C212.674 192.178 213.313 192.178 213.27 191.768C213.1 190.062 212.716 188.422 212.119 186.825C212.013 186.436 211.395 186.609 211.523 186.998Z" fill="#1890ff"/>
<path d="M178.723 190.581C178.19 193.84 178.808 197.099 180.556 199.905C180.769 200.25 181.323 199.926 181.11 199.581C179.469 196.948 178.829 193.84 179.341 190.753C179.405 190.343 178.787 190.171 178.723 190.581Z" fill="#1890ff"/>
<path d="M181.408 201.675C182.175 203.099 183.156 204.373 184.328 205.473C184.626 205.754 185.074 205.301 184.775 205.02C183.646 203.941 182.708 202.711 181.962 201.351C181.77 200.984 181.216 201.308 181.408 201.675Z" fill="#1890ff"/>
<path d="M156.941 168.782C156.771 170.832 156.963 172.861 157.538 174.847C157.645 175.257 158.263 175.084 158.156 174.674C157.602 172.731 157.41 170.789 157.581 168.782C157.623 168.372 156.984 168.372 156.941 168.782Z" fill="#1890ff"/>
<path d="M158.177 177.048C158.518 178.731 159.137 180.285 160.032 181.753C160.245 182.098 160.799 181.775 160.586 181.429C159.733 180.005 159.137 178.516 158.796 176.875C158.71 176.487 158.092 176.659 158.177 177.048Z" fill="#1890ff"/>
<path d="M102.53 42.1309C101.933 43.7712 101.209 46.0159 100.505 48.7354C99.7808 51.5628 98.0758 59.009 98.2463 68.8079C98.4168 78.2614 100.25 85.2112 101.933 91.4056C104.555 101.075 107.752 108.025 109.648 112.061C109.648 112.061 115.68 124.989 125.675 138.846C127.444 141.285 129.704 144.371 129.704 144.371C131.345 146.594 132.751 148.45 133.732 149.789C134.52 150.695 135.522 151.709 136.822 152.681C139.252 154.515 141.66 155.443 143.344 155.918C146.114 153.522 148.885 151.105 151.655 148.709C152.913 149.918 154.192 151.105 155.449 152.314C157.197 150.501 158.752 149.055 159.967 147.997C165.253 143.357 169.622 140.983 170.645 140.421C171.519 139.947 172.265 139.58 172.776 139.342C171.988 137.745 171.199 136.148 170.41 134.529C171.689 133.407 173.16 132.22 174.801 131.054C177.017 129.479 179.149 128.205 181.088 127.212C181.067 125.399 180.832 122.658 179.66 119.637C178.786 117.37 177.742 115.838 177.294 115.19C172.371 108.003 186.885 127.817 167.917 100.406C160.564 89.7869 156.898 84.4558 155.215 82.2543C149.95 75.2829 145.816 70.5129 142.875 67.1244C137.248 60.6278 134.712 58.2104 132.666 56.4406C129.874 53.9801 126.784 51.3254 122.116 48.8649C119.175 47.3324 116.746 46.4907 113.208 45.2604C108.839 43.7496 105.152 42.7568 102.53 42.1309Z" fill="#F7FAFC"/>
<path d="M101.87 42.519C97.2451 56.9583 97.2451 72.5414 100.57 87.2613C101.401 90.952 102.445 94.5996 103.681 98.1609C104.3 99.9739 105.045 101.744 105.706 103.535C105.941 104.161 105.983 104.787 106.26 105.413C106.665 106.384 107.091 107.355 107.518 108.327C108.306 110.14 109.137 111.931 110.011 113.722C110.885 115.492 111.951 117.176 112.739 118.967C113.038 119.636 113.293 120.349 113.634 120.996C114.082 121.816 114.743 122.442 115.212 123.241C116.192 124.903 117.13 126.608 118.153 128.248C122.82 135.867 128.127 143.054 133.562 150.112C133.817 150.436 134.265 149.982 134.009 149.659C129.214 143.421 124.525 137.097 120.305 130.471C119.261 128.831 118.259 127.19 117.279 125.507C116.81 124.708 116.341 123.888 115.894 123.068C115.446 122.269 114.849 121.708 114.38 120.931C113.997 120.284 113.72 119.593 113.443 118.902C113.059 117.974 112.547 117.133 112.079 116.248C111.183 114.586 110.352 112.902 109.564 111.197C108.733 109.406 107.944 107.593 107.155 105.78C106.814 104.981 106.687 104.139 106.367 103.319C106.026 102.434 105.664 101.549 105.323 100.643C104.022 97.168 102.893 93.6284 101.955 90.0239C100.08 82.7288 98.9927 75.2394 98.8861 67.6852C98.7796 59.203 99.9305 50.7207 102.531 42.627C102.595 42.3032 101.976 42.1305 101.87 42.519Z" fill="#111314"/>
<path d="M102.168 42.5192C105.727 42.7998 109.351 44.0516 112.697 45.2387C116 46.4258 119.261 47.7208 122.287 49.4906C128.319 53.0303 133.647 57.6707 138.506 62.7212C143.515 67.9228 148.075 73.6423 152.487 79.3619C156.877 85.0599 161.076 90.9522 165.125 96.9092C169.601 103.535 173.906 110.291 178.126 117.111C178.339 117.456 178.893 117.133 178.68 116.787C170.944 104.334 162.952 92.0313 154.064 80.3763C145.475 69.0883 136.268 57.5628 124.205 49.9007C120.923 47.8071 117.407 46.2963 113.784 44.9365C110.118 43.5768 106.111 42.1738 102.19 41.8501C101.763 41.8501 101.763 42.4976 102.168 42.5192Z" fill="#111314"/>
<path d="M134.478 149.918C144.41 139.666 155.577 130.666 167.662 123.155C171.072 121.039 174.524 119.054 178.062 117.198C178.424 117.003 178.105 116.442 177.742 116.636C165.189 123.284 153.425 131.464 142.833 140.982C139.806 143.702 136.865 146.529 134.031 149.465C133.732 149.767 134.18 150.22 134.478 149.918Z" fill="#111314"/>
<path d="M133.86 150.414C136.396 153.285 139.7 155.314 143.387 156.22C143.792 156.328 143.962 155.702 143.557 155.594C139.955 154.688 136.78 152.745 134.308 149.94C134.031 149.637 133.583 150.112 133.86 150.414Z" fill="#111314"/>
<path d="M177.956 117.37C179.618 120.327 180.577 123.586 180.79 126.974C180.812 127.385 181.451 127.385 181.43 126.974C181.217 123.456 180.215 120.111 178.51 117.046C178.318 116.679 177.764 117.003 177.956 117.37Z" fill="#111314"/>
<path d="M143.77 156.047C155.3 145.385 167.789 135.845 181.11 127.579C181.451 127.363 181.131 126.802 180.79 127.018C167.448 135.306 154.895 144.889 143.323 155.594C143.024 155.875 143.472 156.328 143.77 156.047Z" fill="#111314"/>
<path d="M151.805 149.098C152.977 150.263 154.149 151.429 155.322 152.616C155.449 152.745 155.662 152.745 155.769 152.616C159.222 148.903 163.101 145.623 167.342 142.882C168.365 142.213 169.409 141.587 170.475 140.982C171.157 140.594 172.457 140.227 172.862 139.493C173.288 138.759 172.649 137.766 172.308 137.141C171.711 136.04 171.007 135.025 170.24 134.076C169.984 133.752 169.537 134.205 169.793 134.529C170.539 135.457 171.199 136.428 171.753 137.464C171.881 137.68 172.158 138.047 172.18 138.306C172.094 138.695 172.009 139.061 171.924 139.45C171.817 139.515 171.711 139.558 171.604 139.623C171.178 139.946 170.624 140.141 170.155 140.421C168.301 141.479 166.489 142.623 164.742 143.853C161.332 146.292 158.177 149.076 155.322 152.141C155.471 152.141 155.62 152.141 155.769 152.141C154.597 150.975 153.425 149.81 152.252 148.623C151.954 148.342 151.507 148.796 151.805 149.098Z" fill="#111314"/>
<path d="M103.383 95.8946C108.626 89.6355 114.764 84.218 121.051 79.0596C127.359 73.9012 133.966 69.0665 141.362 65.6348C141.745 65.4621 141.404 64.901 141.042 65.0736C133.711 68.4622 127.168 73.2537 120.902 78.3474C114.508 83.5705 108.263 89.0743 102.935 95.4198C102.658 95.7651 103.106 96.2184 103.383 95.8946Z" fill="#111314"/>
<path d="M141.49 68.657C140.786 68.7002 140.488 67.5131 141.277 67.4483C141.554 67.4268 141.873 67.5563 141.98 67.8368C142.129 68.2469 141.746 68.6786 141.341 68.6786C141.042 68.6786 141.021 69.175 141.341 69.175C142.001 69.175 142.577 68.5491 142.47 67.88C142.385 67.3188 141.809 66.9735 141.277 66.9951C140.701 67.0383 140.254 67.5131 140.318 68.0958C140.382 68.6786 140.893 69.2182 141.49 69.175C141.809 69.1318 141.809 68.6354 141.49 68.657Z" fill="#111314"/>
<path d="M174.034 116.399C174.055 116.399 174.055 116.399 174.077 116.378C174.013 116.378 173.949 116.356 173.885 116.356C174.119 116.464 173.991 116.011 173.97 115.946C173.97 115.881 173.991 115.795 174.013 115.73C174.077 115.601 174.183 115.471 174.311 115.406C174.588 115.277 174.887 115.493 174.972 115.773C175.142 116.334 174.332 116.615 174.119 116.119C173.991 115.838 173.587 116.075 173.714 116.356C173.97 116.96 174.844 117.003 175.27 116.55C175.76 116.011 175.398 115.104 174.737 114.91C174.034 114.716 173.352 115.471 173.523 116.162C173.587 116.442 173.949 116.788 174.226 116.507C174.439 116.291 174.226 115.816 173.906 115.946C173.629 116.054 173.757 116.507 174.034 116.399Z" fill="#111314"/>
<path opacity="0.15" d="M102.531 42.2603C105.898 44.4618 110.459 47.6993 115.446 52.0375C118.536 54.7354 126.55 61.9658 136.567 75.995C147.436 91.2113 152.871 98.8086 153.958 107.291C154.512 111.715 155.279 124.32 144.303 139.817C148.843 136.32 153.404 132.802 157.943 129.306C159.925 132.608 161.886 135.91 163.868 139.213C161.737 140.81 159.606 142.385 157.474 143.983C158.519 145.256 159.563 146.508 160.607 147.781C161.886 146.529 163.421 145.191 165.189 143.875C167.917 141.846 170.539 140.4 172.798 139.342C171.946 137.68 171.114 135.997 170.262 134.335C173.928 131.896 177.593 129.435 181.259 126.996C181.067 125.162 180.62 122.507 179.448 119.529C178.084 116.032 176.357 113.701 175.697 112.795C170.923 106.255 173.246 107.83 163.25 93.607C156.068 83.3765 152.104 77.6569 145.752 70.2538C141.682 65.5055 138.975 62.3759 134.649 58.5125C130.045 54.3901 124.461 49.4907 115.936 45.9078C110.502 43.6632 105.728 42.7135 102.531 42.2603Z" fill="#636E72"/>
<path opacity="0.11" d="M170.965 104.959C170.773 106.341 170.39 108.456 169.431 110.852C167.214 116.399 163.804 118.816 156.686 126.111C153.318 129.564 148.31 134.68 148.779 135.241C149.226 135.78 154.704 131.507 164.273 125.118C169.878 121.363 174.588 118.449 177.678 116.55C175.441 112.686 173.203 108.823 170.965 104.959Z" fill="#636E72"/>
<path opacity="0.08" d="M178.126 117.198C177.828 117.262 178.552 119.615 177.678 122.55C177.039 124.709 175.952 125.745 173.288 129.004C172.137 130.407 170.454 132.522 168.45 135.241C172.627 132.349 176.805 129.457 180.982 126.565C179.085 118.924 178.382 117.154 178.126 117.198Z" fill="#636E72"/>
<path d="M142.129 187.84C142.193 188.466 142.428 188.963 142.79 189.567C144.325 192.071 146.861 193.603 148.694 194.488C147.969 196.797 147.095 200.121 146.456 204.179C145.859 208.086 145.156 212.64 146.072 212.942C146.392 213.05 147.33 212.748 156.046 195.265C157.261 192.826 158.263 190.797 158.924 189.416C154.277 187.301 149.653 185.164 145.007 183.049C144.559 183.394 141.895 185.358 142.129 187.84Z" fill="#111314" stroke="#111314" stroke-width="2" stroke-miterlimit="10"/>
<path d="M132.411 140.098C128.489 142.86 125.953 145.537 123.694 147.954C122.777 148.925 118.387 153.652 113.762 161.077C111.716 164.357 110.203 167.25 109.159 169.429C109.287 170.314 109.585 171.588 110.374 172.861C111.247 174.286 112.228 174.912 113.762 176.293C115.638 177.976 116.32 178.969 117.407 180.092C119.517 182.293 122.479 183.955 128.319 187.214C135.65 191.293 139.593 192.783 140.808 193.236C142.3 193.775 143.557 194.186 144.452 194.466C144.878 192.459 145.39 190.322 146.029 188.077C146.605 186.07 147.223 184.192 147.841 182.444C143.301 179.077 138.634 175.3 133.903 171.027C132.261 169.559 130.684 168.07 129.171 166.602C130.706 164.724 132.858 162.264 135.586 159.609C136.375 158.832 138.037 157.235 140.062 155.551C142.619 153.458 146.477 150.652 151.805 148.062C152.721 141.868 151.635 136.083 148.288 134.205C144.111 131.874 137.76 136.342 132.411 140.098Z" fill="#F7FAFC"/>
<path d="M128.105 143.313C120.561 149.788 114.316 157.796 109.883 166.753C109.436 167.681 108.796 168.717 108.711 169.753C108.626 170.854 109.287 171.696 109.883 172.537C111.311 174.501 112.931 176.336 114.657 178.041C118.323 181.602 122.543 184.538 126.976 187.02C132.432 190.085 138.208 192.523 143.962 194.941C144.346 195.092 144.516 194.466 144.132 194.315C134.712 190.344 125.1 186.286 117.236 179.53C115.467 177.998 113.783 176.358 112.27 174.566C111.482 173.616 110.693 172.645 110.011 171.631C109.585 171.005 109.265 170.422 109.372 169.624C109.478 168.847 109.926 168.113 110.267 167.4C112.313 163.192 114.764 159.199 117.577 155.465C120.795 151.17 124.482 147.263 128.553 143.788C128.873 143.508 128.425 143.054 128.105 143.313Z" fill="#111314"/>
<path d="M146.178 150.76C138.868 155.552 132.474 161.616 127.295 168.696C127.061 169.041 127.615 169.365 127.85 169.02C132.965 162.027 139.294 156.026 146.498 151.3C146.839 151.105 146.519 150.544 146.178 150.76Z" fill="#111314"/>
<path d="M128.809 166.926C134.798 172.408 140.957 177.674 147.308 182.703C147.628 182.962 148.075 182.509 147.756 182.25C141.405 177.221 135.224 171.955 129.256 166.473C128.958 166.192 128.51 166.645 128.809 166.926Z" fill="#111314"/>
<path d="M147.329 182.617C145.987 186.459 144.942 190.387 144.175 194.38C144.09 194.79 144.708 194.963 144.793 194.553C145.56 190.56 146.626 186.631 147.947 182.79C148.075 182.401 147.457 182.228 147.329 182.617Z" fill="#111314"/>
<path opacity="0.11" d="M140.658 148.343C137.717 148.602 135.501 150.782 128.659 160.408C126.038 164.099 123.843 167.315 122.159 169.862C124.589 171.588 126.507 173.013 127.722 173.941C134.52 179.099 137.376 181.991 143.152 185.143C144.409 185.833 145.454 186.33 146.072 186.61C146.562 185.25 147.052 183.891 147.521 182.531C145.901 181.106 144.282 179.704 142.64 178.279C138.122 174.394 133.647 170.639 129.192 166.991C131.046 164.358 132.794 162.372 134.073 161.012C137.845 157.019 141.596 154.322 144.516 152.25C145.518 151.537 146.37 150.976 146.924 150.609C144.175 148.472 142.022 148.213 140.658 148.343Z" fill="#636E72"/>
<path opacity="0.08" d="M141.511 153.976C139.678 154.407 137.227 155.249 134.734 156.932C128.638 161.055 126.592 167.357 125.996 169.516C129.278 172.106 132.666 174.717 136.183 177.329C139.593 179.876 142.982 182.293 146.285 184.624C146.775 183.912 147.265 183.178 147.734 182.466C143.195 179.12 138.485 175.257 133.775 170.832C132.283 169.451 130.855 168.048 129.491 166.667C130.237 165.674 131.047 164.659 131.899 163.623C135.096 159.781 138.378 156.609 141.511 153.976Z" fill="#636E72"/>
<path d="M181.855 180.782C184.115 182.94 186.395 185.12 188.654 187.278C188.057 201.048 189.187 204.286 190.38 204.523C192.235 204.89 195.41 198.394 196.796 193.278C197.84 189.393 197.946 185.983 197.84 183.674C194.302 180.48 190.764 177.285 187.226 174.069C185.436 176.314 183.646 178.559 181.855 180.782Z" fill="#111314" stroke="#111314" stroke-width="2" stroke-miterlimit="10"/>
<path d="M137.504 141.954C137.696 145.536 140.168 147.716 140.168 147.716C141.703 149.076 143.429 149.443 144.282 149.551C144.964 149.831 145.646 150.134 146.349 150.414C147.414 151.968 148.992 154.17 151.08 156.673C153.851 160.04 157.581 164.055 166.702 171.652C171.199 175.386 176.996 179.983 184.008 185.034C185.01 184.537 186.203 183.804 187.397 182.724C190.018 180.372 191.233 177.631 191.787 176.077C190.551 174.868 188.718 173.055 186.587 170.81C177.124 160.904 170.816 152.421 165.999 145.903C162.823 141.608 158.753 135.889 154.256 128.982C143.962 131.831 137.248 137.356 137.504 141.954Z" fill="#F7FAFC"/>
<path d="M140.808 148.537C142.513 149.141 144.196 149.724 145.901 150.328C146.285 150.457 146.455 149.831 146.072 149.702C144.367 149.098 142.683 148.515 140.978 147.911C140.594 147.781 140.424 148.407 140.808 148.537Z" fill="#111314"/>
<path d="M145.198 149.681C153.212 160.839 163.591 169.861 174.354 178.214C177.444 180.609 180.577 182.984 183.71 185.336C184.051 185.595 184.349 185.012 184.03 184.775C173.245 176.681 162.397 168.48 153.233 158.508C150.569 155.616 148.075 152.551 145.774 149.357C145.518 149.033 144.964 149.357 145.198 149.681Z" fill="#111314"/>
<path d="M157.773 134.637C165.317 146.357 173.821 157.407 183.198 167.681C185.905 170.66 188.697 173.552 191.532 176.379C191.83 176.681 192.278 176.206 191.979 175.926C182.111 166.127 173.075 155.486 164.976 144.155C162.674 140.939 160.458 137.659 158.305 134.313C158.092 133.968 157.538 134.292 157.773 134.637Z" fill="#111314"/>
<path d="M191.169 175.969C189.933 179.681 187.546 183.134 183.944 184.775C183.561 184.947 183.902 185.508 184.264 185.336C188.015 183.631 190.487 180.005 191.766 176.141C191.915 175.753 191.297 175.58 191.169 175.969Z" fill="#111314"/>
<path opacity="0.09" d="M157.793 134.291C156.579 132.629 155.556 131.27 154.874 130.385C154.192 131.658 153.254 133.795 153.169 136.45C152.977 142.45 157.325 145.018 169.792 159.004C175.227 165.091 178.104 168.76 185.116 176.012C186.757 177.695 188.142 179.098 189.144 180.091C189.911 178.731 190.679 177.372 191.467 176.012C184.711 169.148 179.362 162.954 175.355 158.055C171.497 153.328 168.045 149.098 164.486 143.831C163.569 142.515 161.246 138.997 157.793 134.291Z" fill="#636E72"/>
<path opacity="0.09" d="M161.566 140.356C161.864 141.846 162.482 144.371 163.697 147.306C167.214 155.681 172.414 159.22 181.77 169.688C183.56 171.695 186.331 174.868 189.571 178.969C190.316 177.89 191.062 176.832 191.808 175.753C191.126 175.106 190.039 174.091 188.718 172.796C186.288 170.422 179.703 163.796 167.128 147.63C165.764 145.903 163.846 143.4 161.566 140.356Z" fill="#636E72"/>
<path d="M69.8799 116.464C69.4324 116.723 68.6012 117.176 68.4307 118.126C68.2175 119.183 68.9635 120.047 69.07 120.154C68.9422 120.306 68.5585 120.759 68.5159 121.449C68.4733 122.593 69.475 123.262 69.5176 123.306C69.475 123.349 68.8569 123.996 69.07 124.881C69.2405 125.637 69.9012 125.96 69.9865 125.982C69.9439 126.111 69.7947 126.673 70.0717 127.191C70.498 127.968 71.521 127.924 71.6275 127.924C72.3522 127.881 73.0342 127.385 73.3539 126.629C73.7588 126.867 74.8244 127.428 76.2737 127.277C77.254 127.169 77.9787 126.781 78.3623 126.543C79.1295 127.903 80.323 129.737 82.092 131.615C83.6478 133.256 86.5463 136.342 90.8514 137.615C96.2222 139.213 100.975 137.141 103.703 135.953C111.034 132.759 114.679 126.888 116.021 124.687C118.281 120.931 119.069 117.716 119.751 114.802C120.859 110.183 120.476 108.37 120.113 107.312C119.9 106.665 118.643 102.953 115.744 102.521C113.379 102.154 111.418 104.204 111.184 104.463C110.374 105.327 109.947 106.471 109.095 108.715C108.669 109.859 108.392 110.723 108.264 111.111C106.878 115.665 106.175 117.931 105.983 118.406C105.472 119.701 104.257 122.658 101.337 124.968C98.5452 127.169 95.6254 127.644 94.3253 127.838C92.3646 128.119 89.9563 128.464 87.3988 127.191C84.5429 125.766 83.2642 123.176 82.9232 122.485C81.9002 120.349 81.7084 117.975 81.5592 116.291C81.3674 114.133 81.5165 112.449 80.2804 111.111C80.046 110.874 79.4919 110.269 78.9164 110.377C78.0852 110.55 77.6164 112.169 77.1901 113.701C76.8278 114.996 76.9344 115.147 76.636 115.449C76.0179 116.075 75.2294 115.751 72.5227 115.903C70.9455 116.01 70.3914 116.183 69.8799 116.464Z" fill="#F7FAFC"/>
<path d="M74.2915 115.535C71.9897 115.104 67.9404 115.708 68.26 118.903C68.5371 121.773 71.9045 122.27 73.9292 121.018C74.2702 120.802 73.9505 120.241 73.6095 120.456C71.9258 121.492 68.8781 121.212 68.8781 118.622C68.8781 116.118 72.352 115.838 74.121 116.161C74.5259 116.248 74.6964 115.622 74.2915 115.535Z" fill="#111314"/>
<path d="M68.8136 119.96C66.5119 122.809 72.0531 126.392 73.6942 122.809C73.8647 122.442 73.3106 122.097 73.1401 122.485C71.8613 125.248 67.5988 122.485 69.2825 120.413C69.5383 120.111 69.0907 119.636 68.8136 119.96Z" fill="#111314"/>
<path d="M68.942 122.853C68.4519 123.975 68.7929 125.4 69.9224 125.982C71.0307 126.565 72.416 126.026 72.9914 124.946C73.1832 124.579 72.6291 124.256 72.4373 124.623C72.0111 125.378 71.052 125.81 70.2421 125.421C69.4322 125.033 69.1339 123.975 69.4962 123.177C69.6667 122.81 69.1125 122.486 68.942 122.853Z" fill="#111314"/>
<path d="M69.4536 125.745C69.3684 126.889 70.0291 127.925 71.18 128.162C72.2456 128.378 73.226 127.666 73.5883 126.694C73.7375 126.306 73.1194 126.133 72.9702 126.522C72.6932 127.255 71.9259 127.73 71.1586 127.493C70.3701 127.255 70.0504 126.522 70.093 125.745C70.1143 125.334 69.475 125.334 69.4536 125.745Z" fill="#111314"/>
<path d="M71.4783 118.687C72.0324 118.622 72.6079 118.643 73.0767 118.967C73.5243 119.269 73.7801 119.874 73.5243 120.37C73.3325 120.737 73.8866 121.061 74.0784 120.694C74.4194 120.025 74.2702 119.248 73.7587 118.708C73.1833 118.082 72.2669 117.953 71.457 118.039C71.0734 118.104 71.0734 118.751 71.4783 118.687Z" fill="#111314"/>
<path d="M73.4602 127.126C74.5685 126.716 75.6341 127.644 76.785 127.514C77.6588 127.406 78.426 126.932 79.1506 126.5C79.4916 126.284 79.172 125.723 78.831 125.939C77.744 126.608 76.8063 127.083 75.5062 126.694C74.7177 126.457 74.0996 126.198 73.2897 126.5C72.9061 126.651 73.0553 127.277 73.4602 127.126Z" fill="#111314"/>
<path d="M74.1209 116.097C75.2292 116.485 76.7211 116.55 77.3391 115.32C77.6801 114.629 77.467 113.787 77.6162 113.053C77.7867 112.061 78.3408 111.24 79.1081 110.615C79.4277 110.356 78.9802 109.902 78.6605 110.161C77.8293 110.852 77.2326 111.802 77.0194 112.881C76.9129 113.485 77.0621 114.197 76.8916 114.78C76.5079 115.946 75.2292 115.795 74.3341 115.471C73.9078 115.341 73.7373 115.967 74.1209 116.097Z" fill="#111314"/>
<path d="M78.6394 110.658C80.4509 110.895 80.6854 113.982 80.9838 115.385C81.3461 117.219 81.5379 119.075 81.8789 120.91C82.433 123.845 84.1167 126.176 86.8021 127.493C89.6153 128.853 92.8122 128.788 95.7533 127.968C98.7797 127.104 101.913 125.55 103.873 122.982C104.129 122.658 103.682 122.205 103.426 122.529C101.38 125.205 98.0551 126.781 94.8582 127.536C91.64 128.292 88.1234 128.011 85.4381 125.896C82.5396 123.63 82.4756 120.219 81.9002 116.831C81.6231 115.234 81.3887 113.507 80.8133 111.996C80.4509 111.046 79.8755 110.183 78.8312 110.032C78.4049 109.967 78.2344 110.593 78.6394 110.658Z" fill="#111314"/>
<path d="M78.1701 126.932C80.7489 130.126 83.2425 133.774 86.6525 136.126C89.9985 138.414 94.1332 138.651 98.012 138.004C105.898 136.666 112.59 131.248 116.426 124.255C118.621 120.284 119.921 115.881 120.497 111.37C120.539 110.96 119.9 110.96 119.857 111.37C118.877 119.075 115.552 126.629 109.627 131.723C106.708 134.227 103.234 136.105 99.5039 137.011C95.6463 137.961 91.192 138.09 87.6755 135.997C83.9245 133.774 81.303 129.802 78.6177 126.457C78.3619 126.155 77.9144 126.608 78.1701 126.932Z" fill="#111314"/>
<path d="M116.043 102.435C114.274 101.722 112.398 102.651 111.162 103.967C109.713 105.478 108.988 107.485 108.455 109.471C107.837 111.78 107.283 114.068 106.409 116.291C105.472 118.687 104.278 120.953 102.914 123.112C102.68 123.457 103.234 123.781 103.468 123.435C105.663 120.004 107.347 116.27 108.391 112.32C108.945 110.248 109.308 108.09 110.331 106.212C111.354 104.312 113.528 102.111 115.872 103.061C116.256 103.212 116.426 102.586 116.043 102.435Z" fill="#111314"/>
<path d="M72.4375 125.399C73.0343 125.443 72.9064 126.457 72.7998 126.824C72.6719 127.213 73.29 127.385 73.4179 126.997C73.695 126.177 73.5031 124.838 72.4375 124.752C72.0326 124.73 72.0326 125.378 72.4375 125.399Z" fill="#111314"/>
<path d="M72.7997 123.414C72.9276 123.932 72.7358 124.472 72.3308 124.774C71.9898 125.011 72.3095 125.572 72.6505 125.335C73.3112 124.86 73.6309 124.04 73.4178 123.241C73.3325 122.831 72.7145 123.004 72.7997 123.414Z" fill="#111314"/>
<path d="M73.1618 121.169C73.7373 121.45 73.3536 122.378 73.0766 122.745C72.8208 123.068 73.3749 123.392 73.6307 123.068C74.1209 122.421 74.3766 121.039 73.4815 120.608C73.1192 120.435 72.7995 120.996 73.1618 121.169Z" fill="#111314"/>
<path opacity="0.11" d="M68.7716 121.255C69.1126 121.061 69.6668 122.27 71.0947 122.874C71.6275 123.09 72.2882 123.241 75.3146 122.874C76.295 122.744 77.5737 122.572 79.1082 122.291C79.4066 123.521 80.0246 125.378 81.2821 127.299C81.8149 128.097 83.9675 131.205 88.1234 133.04C92.5777 135.025 96.6058 134.356 98.1616 134.076C99.483 133.838 103.17 133.126 106.452 130.234C108.647 128.313 110.054 125.982 112.121 119.917C113.528 115.795 115.233 110.075 116.49 102.974C117.343 103.859 118.664 105.456 119.41 107.83C119.772 108.974 120.113 110.658 119.836 113.291C119.261 118.967 116.448 123.694 114.743 126.111C112.974 128.637 109.82 132.997 103.98 135.694C103.191 136.061 98.737 138.025 93.0679 137.766C91.7678 137.702 90.5743 137.637 89.1038 137.097C87.5053 136.515 85.9069 135.004 82.7313 132.025C81.41 130.795 80.1099 129.5 78.7885 127.622C78.5328 127.255 78.3196 126.932 78.1705 126.716C77.7229 127.018 77.0622 127.363 76.3163 127.277C75.3146 127.191 74.9736 126.457 74.1424 126.586C73.4178 126.694 73.4178 127.299 72.5439 127.622C71.8619 127.86 70.9029 127.838 70.2635 127.342C69.7946 126.975 69.7307 126.565 69.1979 124.234C68.6864 121.946 68.5372 121.385 68.7716 121.255Z" fill="#636E72"/>
<path d="M113.378 102.931C113.677 105.003 114.252 108.284 115.446 112.169C117.961 120.284 120.923 123.759 124.845 133.17C125.825 135.522 127.21 139.062 128.574 143.53C131.11 144.371 135.82 145.515 141.575 144.501C151.038 142.839 156.6 136.493 158.156 134.572C154.916 128.529 151.656 121.989 148.48 114.975C145.326 108.025 142.577 101.334 140.19 94.967C138.186 94.2116 132.943 92.5281 126.507 94.1253C118.813 96.003 114.572 101.334 113.378 102.931Z" fill="#F7FAFC" stroke="#111314"/>
<path opacity="0.13" d="M132.091 93.3911C132.901 95.1178 133.924 97.4704 135.011 100.319C138.421 109.384 139.657 116.831 140.104 119.485C141.063 124.968 141.895 133.471 140.531 144.393C143.493 144.306 145.688 143.616 147.074 143.076C151.038 141.479 153.915 138.695 156.685 135.997C157.325 135.392 157.815 134.853 158.135 134.529C157.218 132.932 155.833 130.428 154.213 127.299C149.524 118.277 146.455 110.787 143.877 104.442C142.96 102.219 141.703 99.0244 140.232 95.1609C139.06 94.6645 137.589 94.1681 135.863 93.8444C134.457 93.5638 133.178 93.4343 132.091 93.3911Z" fill="#636E72"/>
<path opacity="0.1" d="M146.2 110.507C146.562 114.37 146.86 117.608 147.074 119.939C147.883 129.069 148.033 131.594 148.097 133.213C148.267 137.033 148.267 140.162 148.246 142.213C149.567 141.738 151.272 140.961 153.041 139.709C155.258 138.134 156.749 136.407 157.708 135.133C153.872 126.91 150.036 118.709 146.2 110.507Z" fill="#636E72"/>
<path d="M131.068 89.5926C130.045 89.8948 129.491 91.384 129.15 92.9164C128.468 96.046 128.83 98.7224 128.958 99.6504C129.576 103.773 130.684 106.859 131.047 107.874C131.984 110.377 133.263 113.723 136.055 117.284C137.654 119.313 139.018 121.061 141.532 122.356C143.003 123.133 146.051 124.709 149.184 123.457C149.333 123.392 152.402 122.119 153.19 119.399C153.361 118.795 153.403 118.191 153.467 117.003C153.51 116.291 153.531 115.039 153.382 113.485C153.169 111.435 152.721 109.838 152.38 108.694C150.867 103.622 150.121 101.097 148.544 98.895C147.244 97.082 145.774 95.01 143.344 94.7294C143.131 94.7079 140.68 94.4704 139.231 96.1971C138.229 97.4058 138.293 98.895 138.314 99.8879C138.378 101.787 139.103 103.147 140.232 105.241C141.362 107.313 141.809 107.572 143.152 110.032C144.985 113.399 144.793 113.723 144.708 113.809C144.346 114.133 142.896 113.118 142.577 112.881C142.278 112.665 141.852 112.363 141.319 111.78C139.657 109.903 138.677 107.075 138.677 107.075C137.803 105.327 136.652 102.845 135.48 99.6936C135.842 98.2907 136.396 97.2979 136.844 96.6504C137.568 95.6144 138.378 94.9021 138.57 93.6071C138.655 93.1107 138.613 92.679 138.57 92.3984C138.932 92.0531 139.039 91.5351 138.847 91.1034C138.613 90.607 138.037 90.3696 137.483 90.5423C137.483 90.4775 137.419 89.9164 136.929 89.6142C136.524 89.3552 135.97 89.3984 135.565 89.7005C134.926 89.2041 134.393 89.0746 134.009 89.053C133.562 89.0314 133.348 89.1393 132.283 89.3336C131.388 89.571 131.324 89.5279 131.068 89.5926Z" fill="#F7FAFC"/>
<path d="M136.417 98.7006C136.993 97.2545 137.717 95.938 138.506 94.5998C138.911 93.9091 139.38 93.0458 138.826 92.2904C137.568 90.65 135.863 92.7436 135.33 93.8228C135.138 94.1897 135.693 94.5135 135.884 94.1465C136.204 93.499 136.566 92.7004 137.312 92.4846C137.526 92.3767 137.739 92.3767 137.973 92.4414C138.037 92.9379 138.101 93.4343 138.186 93.9307C138.122 94.2113 137.739 94.6645 137.589 94.9235C136.907 96.0675 136.353 97.2761 135.842 98.5064C135.65 98.9165 136.268 99.0675 136.417 98.7006Z" fill="#111314"/>
<path d="M129.448 101.485C129.128 99.1753 129.086 96.8227 129.341 94.5133C129.576 92.3981 130.023 89.1822 132.922 89.7865C133.327 89.8728 133.497 89.2469 133.092 89.1606C130.812 88.6858 129.384 90.3261 129 92.4197C128.425 95.4629 128.404 98.5709 128.83 101.657C128.894 102.067 129.512 101.895 129.448 101.485Z" fill="#111314"/>
<path d="M132.112 91.5352C132.346 90.974 132.602 90.3913 133.05 89.9596C133.817 89.2042 134.797 89.6143 135.628 90.0244C135.991 90.2186 136.31 89.6574 135.948 89.4632C135.074 89.0099 134.094 88.5783 133.156 89.0747C132.346 89.5064 131.92 90.3913 131.579 91.1899C131.409 91.6 131.963 91.9237 132.112 91.5352Z" fill="#111314"/>
<path d="M134.009 91.7296C134.797 90.6936 135.842 89.6144 137.206 90.4346C137.568 90.6504 137.888 90.0892 137.525 89.8734C135.906 88.9022 134.542 89.9597 133.561 91.2547C133.305 91.6001 133.753 92.0533 134.009 91.7296Z" fill="#111314"/>
<path d="M135.437 92.2044C135.842 91.7727 136.268 91.3194 136.822 91.1036C137.483 90.823 138.698 90.9957 138.442 92.0101C138.357 92.4202 138.954 92.5929 139.06 92.1828C139.273 91.2979 138.698 90.4777 137.824 90.3266C136.652 90.1108 135.735 90.9741 134.99 91.7511C134.712 92.0533 135.16 92.5065 135.437 92.2044Z" fill="#111314"/>
<path d="M135.692 98.377C134.947 99.9958 135.863 101.636 136.502 103.125C137.397 105.219 138.335 107.313 139.486 109.255C140.978 111.802 144.217 116.378 147.606 113.766C147.926 113.507 147.606 112.946 147.286 113.205C144.026 115.73 140.999 110.636 139.678 108.284C138.911 106.902 138.229 105.478 137.589 104.032C136.95 102.586 135.522 100.32 136.268 98.7008C136.417 98.3339 135.863 97.9885 135.692 98.377Z" fill="#111314"/>
<path d="M138.442 96.7369C136.566 103.19 142.321 108.198 144.431 113.723C144.58 114.112 145.198 113.939 145.049 113.55C143.003 108.198 137.248 103.147 139.06 96.9096C139.167 96.4995 138.549 96.3268 138.442 96.7369Z" fill="#111314"/>
<path d="M128.808 101.312C129.895 107.356 132.431 113.075 136.161 117.932C137.973 120.263 140.04 122.529 142.896 123.478C145.326 124.277 148.672 124.687 150.931 123.198C153.403 121.601 153.723 118.342 153.829 115.644C153.851 115.234 153.211 115.234 153.19 115.644C153.062 119.119 152.295 122.96 148.224 123.457C144.473 123.91 140.978 122.399 138.442 119.658C133.732 114.586 130.641 107.96 129.405 101.14C129.362 100.73 128.744 100.902 128.808 101.312Z" fill="#111314"/>
<path d="M138.868 97.5998C139.55 94.8372 142.832 94.6429 144.878 95.8516C146.967 97.0818 148.395 99.3049 149.439 101.442C150.526 103.686 151.315 106.104 152.082 108.478C152.956 111.197 153.616 114.046 153.169 116.917C153.105 117.327 153.723 117.5 153.787 117.09C154.298 113.809 153.489 110.636 152.444 107.528C151.485 104.701 150.547 101.787 148.949 99.2401C147.606 97.0818 145.603 94.8372 142.96 94.4702C140.914 94.1897 138.74 95.312 138.229 97.4272C138.143 97.8372 138.762 98.0099 138.868 97.5998Z" fill="#111314"/>
<path opacity="0.1" d="M131.856 89.3122C133.561 88.6216 135.224 89.377 135.629 89.5712C134.435 91.1684 131.899 95.0318 131.686 100.492C131.366 108.262 135.948 113.421 137.568 115.255C139.657 117.608 142.385 120.673 145.901 120.241C147.883 120.004 149.759 118.666 150.718 116.96C151.677 115.255 151.613 113.399 150.462 108.608C148.693 101.356 146.754 97.1038 147.031 96.9743C147.308 96.8448 149.61 100.492 151.336 105.068C151.506 105.543 152.934 109.385 153.446 114.673C153.766 117.932 153.488 119.27 152.828 120.457C151.805 122.292 150.142 123.112 149.503 123.392C146.924 124.493 144.452 123.716 143.28 123.306C139.081 121.881 136.843 118.428 134.584 114.953C131.11 109.579 130.151 104.982 129.235 100.557C128.595 97.4923 128.169 93.9311 129.768 91.3195C130.045 90.7799 130.663 89.8086 131.856 89.3122Z" fill="#636E72"/>
<path d="M101.081 78.8007C101.017 79.8151 101.379 80.9591 102.147 83.2469C102.999 85.8153 103.915 88.5564 106.217 91.2543C107.688 92.981 109.478 95.0961 112.526 95.7005C114.934 96.1753 116.959 95.4846 117.982 95.053C118.216 95.7005 118.536 96.3911 118.941 97.1034C120.006 99.0027 121.328 100.341 122.372 101.226C123.161 101.139 124.695 100.816 126.017 99.6071C127.04 98.6574 127.53 97.5351 127.828 96.8012C128.19 95.9379 128.382 95.1825 128.468 94.6429C127.828 94.2544 127.125 93.7364 126.443 93.0241C124.312 90.8226 123.736 88.2111 123.566 86.9592C123.843 84.4771 124.141 81.9735 124.418 79.4914C124.738 79.5346 125.42 79.5777 126.017 79.1676C126.677 78.7144 126.805 77.959 126.976 77.1172C127.146 76.2755 127.338 75.1963 126.869 73.9661C126.656 73.4265 125.974 71.6998 124.525 71.5919C123.544 71.5056 122.543 72.1746 121.967 73.2106C120.731 72.002 118.088 69.8652 114.38 69.5199C107.965 68.9156 101.443 73.9876 101.081 78.8007Z" fill="#F7FAFC"/>
<path d="M110.544 88.6642C110.373 89.1175 110.863 89.765 111.226 90.0888C112.227 90.9737 113.996 90.9305 115.275 90.3262C117.065 89.4844 117.641 87.6714 117.896 86.8512C118.195 85.9447 118.579 84.7577 117.96 83.7001C117.428 82.772 116.49 82.4482 116.128 82.3403C115.765 83.0957 115.488 83.6569 115.275 84.0238C115.019 84.4771 114.934 84.6282 114.785 84.9735C114.572 85.4268 114.55 85.5994 114.252 86.0095C113.037 87.6067 111.375 88.1894 111.375 88.1894C110.991 88.2758 110.65 88.3621 110.544 88.6642Z" fill="#111314"/>
<path d="M101.422 81.3906C103.106 86.7217 105.216 92.9377 110.65 95.4413C112.867 96.4558 115.509 96.65 117.769 95.6572C120.305 94.5564 121.797 92.0096 122.82 89.5491C124.162 86.3332 124.738 82.8367 124.525 79.3618C124.503 78.9517 123.864 78.9517 123.885 79.3618C124.098 82.9878 123.459 86.6353 121.946 89.9376C120.475 93.1535 118.152 95.7219 114.423 95.6788C106.921 95.5924 103.873 87.2181 101.997 81.2395C101.912 80.8078 101.315 80.9805 101.422 81.3906Z" fill="#111314"/>
<path d="M122.202 73.8153C122.223 72.5203 123.545 71.7433 124.717 72.1102C125.804 72.4771 126.486 73.5563 126.72 74.6355C126.933 75.6715 126.848 76.8801 126.528 77.873C126.273 78.6931 125.953 79.1248 124.973 79.1248C124.632 79.1248 124.291 78.9953 123.928 78.9953C123.523 78.9953 123.523 79.6428 123.928 79.6428C124.653 79.6428 125.356 79.9881 126.059 79.6212C126.571 79.3622 126.869 78.8442 127.082 78.3046C127.637 76.837 127.701 74.8513 126.997 73.4052C126.422 72.2181 125.186 71.2037 123.822 71.3548C122.564 71.4843 121.584 72.5203 121.562 73.7937C121.562 74.2254 122.202 74.2254 122.202 73.8153Z" fill="#111314"/>
<path d="M123.459 85.6425C123.395 89.2038 124.951 92.6139 127.722 94.837C128.042 95.096 128.489 94.6428 128.169 94.3838C125.527 92.2686 124.035 89.0743 124.099 85.6425C124.099 85.2324 123.459 85.2324 123.459 85.6425Z" fill="#111314"/>
<path d="M117.961 95.3121C118.77 97.5783 120.092 99.564 121.861 101.161C122.159 101.442 122.628 100.988 122.308 100.708C120.603 99.1755 119.346 97.2977 118.557 95.1394C118.429 94.7509 117.811 94.9236 117.961 95.3121Z" fill="#111314"/>
<path d="M122.01 101.377C123.843 102.046 125.676 100.47 126.805 99.1536C127.999 97.7723 129.043 95.9809 128.532 94.1031C128.425 93.6931 127.807 93.8657 127.914 94.2758C128.34 95.9161 127.381 97.5133 126.336 98.7004C125.356 99.8227 123.758 101.334 122.159 100.751C121.797 100.6 121.626 101.226 122.01 101.377Z" fill="#111314"/>
<path d="M103.809 79.124C103.532 78.3255 104.172 77.4621 104.641 76.901C105.344 76.016 106.431 75.7786 107.241 76.6851C108.178 77.7211 108.434 79.5773 108.562 80.9155C108.647 81.8435 108.328 83.0306 108.86 83.8508C109.436 84.7357 110.501 85.2537 111.503 85.448C111.908 85.5343 112.079 84.9084 111.674 84.822C111.141 84.7141 110.672 84.5415 110.203 84.2393C109.436 83.7213 109.265 83.1601 109.244 82.232C109.223 81.4335 109.201 80.6565 109.074 79.8579C108.86 78.5413 108.498 76.8578 107.432 75.9729C106.537 75.2175 105.429 75.239 104.555 75.9945C103.724 76.7283 102.765 78.1312 103.17 79.2751C103.34 79.6852 103.959 79.5125 103.809 79.124Z" fill="#111314"/>
<path d="M109.713 74.4629C109.862 71.8513 113.08 70.9016 114.572 73.0384C114.806 73.3837 115.36 73.0599 115.126 72.7146C113.272 70.0383 109.265 71.1822 109.073 74.4629C109.052 74.873 109.691 74.873 109.713 74.4629Z" fill="#111314"/>
<path d="M106.814 80.8514C106.516 80.4414 106.345 79.9881 106.324 79.4917C106.154 79.578 106.004 79.6859 105.834 79.7723C106.324 80.096 106.58 80.614 106.559 81.1968C106.686 81.0889 106.836 80.9809 106.964 80.8946C106.431 80.7004 106.09 80.096 106.196 79.5349C106.047 79.5996 105.877 79.6644 105.727 79.7291C105.983 79.8802 106.196 80.096 106.345 80.3766C106.409 80.5061 106.452 80.6356 106.473 80.7867C106.473 80.8946 106.473 80.7651 106.452 80.7219C106.409 80.6356 106.367 80.5709 106.324 80.4845C106.154 80.096 105.6 80.4414 105.77 80.8083C105.898 81.1104 106.111 81.4342 106.495 81.4558C106.814 81.4774 107.091 81.2615 107.134 80.9378C107.198 80.2255 106.644 79.5133 106.068 79.1895C105.898 79.0816 105.642 79.1679 105.6 79.3838C105.429 80.3119 105.941 81.2184 106.814 81.5421C107.027 81.6069 107.219 81.4342 107.219 81.2399C107.241 80.4198 106.857 79.6859 106.175 79.2543C105.983 79.1248 105.685 79.2974 105.685 79.5349C105.706 80.1392 105.898 80.7219 106.26 81.2184C106.516 81.5205 107.07 81.1968 106.814 80.8514Z" fill="#111314"/>
<path d="M112.782 76.6853C112.675 76.5558 112.59 76.4047 112.547 76.2321C112.547 76.1889 112.505 75.9299 112.547 75.9083C112.59 75.8868 112.696 76.2321 112.718 76.2537C112.76 76.4263 112.739 76.6206 112.654 76.7717C112.803 76.7285 112.952 76.6853 113.101 76.6637C112.568 76.3616 112.313 75.8004 112.398 75.1961C112.227 75.2824 112.078 75.3903 111.908 75.4767C112.505 75.7357 112.846 76.3616 112.696 77.0091C112.824 76.9443 112.952 76.858 113.08 76.7932C112.76 76.6853 112.505 76.4047 112.441 76.0594C112.441 76.0378 112.441 75.8436 112.419 75.8436C112.377 75.8652 112.334 75.8868 112.27 75.9083C112.291 75.9515 112.334 76.0162 112.355 76.0594C112.441 76.2968 112.441 76.5342 112.419 76.7932C112.611 76.7069 112.782 76.6422 112.973 76.5558C112.782 76.4047 112.632 76.2321 112.526 75.9947C112.334 75.6278 111.78 75.9515 111.972 76.3184C112.1 76.5774 112.291 76.8148 112.526 77.0091C112.76 77.2033 113.037 77.0738 113.08 76.7717C113.123 76.34 113.08 75.7573 112.76 75.4335C112.505 75.1745 112.036 75.1529 111.865 75.5414C111.524 76.2968 112.249 77.1817 112.909 77.4192C113.08 77.4839 113.272 77.3544 113.293 77.2033C113.527 76.2968 113.08 75.304 112.206 74.9371C111.972 74.8292 111.759 74.9587 111.716 75.2177C111.609 76.0378 112.036 76.8364 112.739 77.2465C112.867 77.3328 113.101 77.2897 113.186 77.1386C113.357 76.7285 113.4 76.3184 113.25 75.9083C113.123 75.5846 112.846 75.2393 112.483 75.2824C111.545 75.3903 111.95 76.7501 112.334 77.1817C112.611 77.4623 113.059 76.9875 112.782 76.6853Z" fill="#111314"/>
<path d="M118.344 95.2474C118.344 95.269 118.344 95.269 118.323 95.2906C118.451 95.2258 118.579 95.1395 118.707 95.0747C118.685 95.0747 118.664 95.0531 118.643 95.0531C118.706 95.2042 118.77 95.3769 118.834 95.528C118.877 95.4416 119.452 95.1611 119.623 95.01C120.007 94.6862 120.326 94.2546 120.625 93.8445C121.285 92.9596 121.776 91.9883 122.18 90.9739C121.967 90.9091 121.776 90.866 121.562 90.8012C120.923 92.6574 120.475 95.2474 118.685 96.3481C118.834 96.4992 118.984 96.6503 119.133 96.8014C119.559 96.1539 119.985 95.4848 120.412 94.8373C120.603 94.5351 120.156 94.1682 119.9 94.4488C119.559 94.8157 119.197 95.2042 118.856 95.5711C119.005 95.7222 119.154 95.8733 119.303 96.0244C119.623 95.6359 119.921 95.2258 120.198 94.8157C120.412 94.5136 119.943 94.1466 119.687 94.4272C119.389 94.751 119.09 94.9884 118.707 95.1826C118.877 95.269 119.026 95.3769 119.197 95.4632C119.197 95.3985 119.175 95.3337 119.175 95.269C119.133 94.8589 118.493 94.8589 118.536 95.269C118.536 95.3337 118.557 95.3985 118.557 95.4632C118.579 95.7006 118.813 95.8733 119.048 95.7438C119.474 95.5064 119.815 95.2474 120.156 94.8805C119.985 94.751 119.815 94.6215 119.644 94.492C119.389 94.8589 119.133 95.2258 118.856 95.5711C118.6 95.8949 119.026 96.3481 119.303 96.0244C119.644 95.6575 120.007 95.269 120.348 94.9021C120.177 94.7726 120.007 94.6431 119.836 94.5136C119.41 95.1611 118.984 95.8301 118.557 96.4776C118.387 96.7582 118.728 97.082 119.005 96.9309C120.966 95.7222 121.477 93.0459 122.18 90.9955C122.308 90.5854 121.712 90.4559 121.562 90.8228C121.115 91.9236 120.539 93.0027 119.772 93.9092C119.41 94.3409 118.834 94.5783 118.493 94.9668C118.408 95.0531 118.323 95.0747 118.28 95.1826C118.174 95.3769 118.259 95.5711 118.472 95.6575C118.493 95.6575 118.515 95.6791 118.536 95.6791C118.706 95.7438 118.877 95.6143 118.92 95.4632C118.92 95.4416 118.92 95.4416 118.941 95.4201C119.111 95.0316 118.493 94.8589 118.344 95.2474Z" fill="#111314"/>
<path d="M120.71 94.6C120.902 94.3842 121.029 94.1684 121.093 93.9094C121.2 93.5209 120.71 93.3914 120.518 93.6504C120.07 94.2547 119.623 94.859 119.175 95.4634C118.919 95.7871 119.474 96.1109 119.729 95.7871C120.177 95.1828 120.624 94.5785 121.072 93.9741C120.88 93.8878 120.688 93.8015 120.497 93.7151C120.454 93.8662 120.39 93.9957 120.283 94.1252C119.985 94.4705 120.454 94.9238 120.71 94.6Z" fill="#111314"/>
<path d="M110.863 89.2472C110.267 88.0385 110.906 87.5852 112.099 87.2615C112.249 87.2183 112.398 87.1967 112.526 87.132C113.037 86.8946 113.336 86.3766 113.549 85.8802C113.89 85.1463 114.082 84.3477 114.529 83.6787C115.467 82.2326 117.129 82.2973 117.662 84.024C118.195 85.7507 117.534 87.6716 116.405 88.9882C115.85 89.6357 115.168 90.24 114.359 90.5206C113.655 90.7796 113.037 90.6932 112.355 90.3911C111.865 90.1752 110.97 89.7436 110.842 89.1824C110.757 88.7723 110.139 88.945 110.224 89.3551C110.458 90.4774 112.121 91.1681 113.122 91.3192C114.209 91.4918 115.232 90.9523 116.064 90.2616C117.918 88.7076 119.069 85.9665 118.174 83.5923C117.214 81.0239 114.614 81.9736 113.655 84.0024C113.357 84.6283 113.208 85.6859 112.718 86.1392C112.099 86.7219 111.311 86.5061 110.672 86.9593C109.776 87.6068 109.862 88.7507 110.309 89.6357C110.501 89.9594 111.055 89.6357 110.863 89.2472Z" fill="#111314"/>
<path d="M110.437 88.5779C113.741 88.4916 115.339 85.3836 116.064 82.5346C116.171 82.1245 115.553 81.9518 115.446 82.3619C114.807 84.9087 113.421 87.8441 110.437 87.9304C110.033 87.952 110.033 88.5995 110.437 88.5779Z" fill="#111314"/>
<path d="M101.678 81.0454C101.294 81.2612 98.9712 78.6928 97.9908 75.2611C97.2662 72.7574 97.4793 70.5343 97.7351 69.1314C98.0974 68.0091 98.6089 66.8004 99.3122 65.5702C102.339 60.3038 107.113 57.8217 109.585 56.7642C109.073 57.2606 108.477 57.9081 107.922 58.7282C107.155 59.8074 106.665 60.8218 106.345 61.6636C107.07 61.0377 107.901 60.4117 108.796 59.8074C110.8 58.4477 112.739 57.4764 114.423 56.7857C114.167 57.8865 113.89 58.9872 113.634 60.0664C114.231 59.7211 115.062 59.2247 116.085 58.7282C117.215 58.1887 119.538 57.0663 119.9 57.5627C120.007 57.7138 119.879 57.8865 119.687 58.5124C119.431 59.3326 119.346 60.0232 119.303 60.4765C119.964 60.3686 120.71 60.2822 121.52 60.2607C122.415 60.2175 123.225 60.2607 123.949 60.3254C123.694 61.3182 123.438 62.2895 123.182 63.2823C123.694 63.4766 124.418 63.8435 125.164 64.4478C127.168 66.1097 127.743 68.3544 127.892 69.2393C128.212 71.3545 127.7 73.1243 127.317 74.0956C126.294 71.8941 124.269 71.0307 123.118 71.5703C122.415 71.8941 121.605 72.9301 121.69 73.9877C121.712 74.2251 121.776 74.4409 121.839 74.592C121.094 73.9013 119.964 72.9732 118.493 72.1099C117.023 71.2466 115.382 70.2753 113.208 69.9947C109.116 69.4552 105.919 71.7214 105.067 72.3473C103.745 73.297 101.593 74.8294 101.209 77.2683C100.825 79.3187 101.976 80.8943 101.678 81.0454Z" fill="#1890ff"/>
<path opacity="0.11" d="M117.897 71.5703C118.557 73.0812 119.453 75.4337 119.943 78.3907C120.454 81.326 121.094 85.1031 119.538 89.2903C119.005 90.7148 117.748 93.4558 114.764 96.0243C115.467 96.0027 116.682 95.8732 117.961 95.1825C120.049 94.0818 120.966 92.2472 121.243 91.5997C122.245 92.5925 123.587 94.1465 124.61 96.348C125.186 97.5783 125.548 98.7222 125.761 99.6718C126.337 99.1538 127.402 98.0315 127.892 96.2617C128.084 95.571 128.148 94.9451 128.148 94.4271C126.912 93.7364 126.123 92.8947 125.676 92.3551C125.484 92.1177 123.587 89.7003 123.694 86.3549C123.736 85.1462 123.992 85.1247 124.184 83.2685C124.354 81.6066 124.269 80.2037 124.184 79.2756C125.271 79.7288 125.825 79.513 126.081 79.3619C126.571 79.0597 126.699 78.5202 127.146 75.7791C127.381 74.3114 127.509 73.5776 127.551 73.1891C127.807 71.0955 127.935 70.0379 127.807 69.1961C127.445 66.8004 125.932 65.2032 125.42 64.7068C124.568 63.8651 123.694 63.3902 123.118 63.1312C123.374 62.2247 123.609 61.2966 123.864 60.3901C122.649 61.8362 121.52 62.8291 120.753 63.4766C118.835 65.0306 117.726 65.3975 116.405 66.8867C115.361 68.0522 114.764 69.2393 114.423 70.0379C115.595 70.5775 116.746 71.0739 117.897 71.5703Z" fill="#636E72"/>
<path opacity="0.17" d="M109.116 57.002C108.391 57.3257 106.686 58.2322 105.493 60.1531C105.194 60.628 104.534 61.815 104.342 63.477C104.129 65.3115 104.576 66.7576 104.832 67.4699C104.917 65.6785 105.344 62.7863 107.049 59.8078C107.709 58.6855 108.434 57.7574 109.116 57.002Z" fill="#636E72"/>
<path opacity="0.08" d="M124.184 79.3836C124.12 79.362 123.992 79.5994 123.523 81.2398C122.884 83.4629 122.543 85.1032 122.351 85.9234C122.074 87.1104 121.605 88.7939 120.731 90.8228C122.244 91.1249 123.757 91.4271 125.271 91.7077C124.716 90.4774 124.056 88.7076 123.8 86.5061C123.395 82.729 124.397 79.4268 124.184 79.3836Z" fill="#636E72"/>
</svg>
