<svg width="400" height="400" viewBox="0 0 400 400" fill="none" xmlns="http://www.w3.org/2000/svg">
<path d="M324.94 85.78L224.1 61.78C217.46 60.56 213.66 63.32 211.74 68.26L210.24 72.26C214.06 79 210.62 90.8 205.12 94.06C206.4 106.58 206.08 112.62 204.72 114.3C203.36 115.98 200.18 116.78 196.4 116.18C196.793 118.813 197.327 121.424 198 124C199.407 124.121 200.804 124.341 202.18 124.66L222.82 70.76L319.78 94.3L289.2 181.58L260.94 173.08C258.76 175.9 256.4 178.9 253.84 182.04L289.38 192.72C294.82 194.36 300.04 192.6 302.46 186.04L332.46 99.58C334.58 93.64 334 88 324.94 85.78ZM313.86 142C313.739 142.453 313.527 142.876 313.236 143.243C312.945 143.61 312.581 143.914 312.168 144.135C311.755 144.356 311.301 144.49 310.833 144.528C310.366 144.566 309.896 144.507 309.453 144.356C309.009 144.205 308.602 143.965 308.255 143.649C307.908 143.334 307.63 142.951 307.437 142.524C307.245 142.097 307.142 141.634 307.136 141.166C307.129 140.697 307.219 140.232 307.4 139.8C307.521 139.347 307.733 138.924 308.024 138.557C308.315 138.19 308.679 137.886 309.092 137.665C309.505 137.444 309.959 137.31 310.427 137.272C310.894 137.234 311.364 137.293 311.807 137.444C312.251 137.595 312.658 137.835 313.005 138.151C313.352 138.466 313.63 138.849 313.823 139.276C314.015 139.703 314.118 140.166 314.124 140.634C314.131 141.103 314.041 141.568 313.86 142Z" fill="white"/>
<path d="M270 152C270.698 154.428 270.942 156.964 270.72 159.48C263.665 169.809 256.033 179.731 247.86 189.2C238.36 200.24 230 201.2 220.18 191.5C214.18 185.5 198.4 163.78 194.18 157.14C195.114 164.435 195.542 171.786 195.46 179.14C195.26 179.68 194.88 180.78 194.88 180.78C180.38 177.82 164.32 178.62 151.28 184.78C150.87 175.329 149.706 165.926 147.8 156.66C142.801 162.317 137.457 167.661 131.8 172.66C128.72 173.72 125.8 174.66 123.8 175.5C123.28 180.6 122.42 203 122.32 212.62C122.32 211.26 120.32 209.68 115.66 208.62C110.022 207.594 104.279 207.258 98.56 207.62C92.56 208.02 90 209.34 89.82 210.72C89.9595 200.067 90.7007 189.43 92.04 178.86C94.04 163.68 95.14 158.86 110.88 148.86C129.463 137.28 150.096 129.377 171.66 125.58C180.352 124.055 189.188 123.525 198 124C209.22 124.98 214.66 130.4 232.54 156.42C235.7 152.2 245.76 141.12 248.68 137.82C255.4 136 266.98 141.68 270 152Z" fill="#B2BEC3"/>
<path d="M274.26 360C273.1 353.1 220.54 337.5 218.78 343.14C219.22 340.06 221.04 325.88 221.58 322.54C228.851 322.248 236.131 322.839 243.26 324.3C243.086 327.055 243.894 329.783 245.54 332C252.88 342 274.54 350 274.26 360Z" fill="#B2BEC3"/>
<path d="M79.42 334.64C77.7335 334.984 76.1645 335.758 74.8646 336.886C73.5647 338.014 72.578 339.459 72 341.08C70.5521 344.947 69.5848 348.977 69.12 353.08C67.76 362.42 65.26 373.72 59.12 376.36C65.72 371.58 62.24 317.22 55.56 317.22C60.12 316.2 63.14 315.22 75.08 312.52C77.6791 319.62 79.1437 327.085 79.42 334.64V334.64Z" fill="#B2BEC3"/>
<path d="M293.5 98.88C306.02 109 294.84 127.06 282.2 123.22C281.38 121.58 280.34 119.62 279.04 117.22C278.936 115.06 278.305 112.959 277.2 111.1C275.302 110.287 273.265 109.845 271.2 109.8C270.52 99.56 284 91.18 293.5 98.88Z" fill="white"/>
<path d="M251.32 111.06L254.34 114.32C252.34 118.86 250.62 121.52 250.6 122.96C250.6 126.58 251.68 130.4 251.3 137.5C250.41 137.48 249.522 137.581 248.66 137.8L245.02 142C237.72 144.36 223.62 138.46 223.02 124C222.32 107.36 238.9 98.9599 248.76 103.18L251.32 111.06Z" fill="white"/>
<path d="M46.44 296.72L28.98 284.5L41.2 267.04C41.3061 266.891 41.3488 266.707 41.3188 266.527C41.2888 266.347 41.1885 266.186 41.04 266.08C40.8915 265.974 40.7069 265.931 40.5269 265.961C40.3468 265.991 40.1861 266.091 40.08 266.24L27.84 283.7L10.4 271.48C10.3256 271.427 10.2414 271.39 10.1524 271.371C10.0634 271.351 9.97144 271.35 9.88189 271.367C9.79234 271.383 9.70709 271.418 9.63118 271.468C9.55527 271.519 9.49026 271.584 9.44 271.66C9.33694 271.809 9.29602 271.993 9.32587 272.172C9.35573 272.351 9.45402 272.512 9.6 272.62L27.06 284.84L14.84 302.28C14.7657 302.382 14.7213 302.503 14.7118 302.629C14.7023 302.755 14.728 302.881 14.7862 302.993C14.8443 303.105 14.9326 303.199 15.041 303.264C15.1494 303.328 15.2737 303.362 15.4 303.36C15.5115 303.36 15.6216 303.335 15.7221 303.286C15.8225 303.238 15.9107 303.167 15.98 303.08L28.18 285.62C47.34 299.04 45.76 298 46 298C46.1643 298.039 46.3372 298.015 46.4852 297.934C46.6331 297.853 46.7454 297.719 46.8003 297.559C46.8552 297.4 46.8487 297.225 46.7821 297.07C46.7155 296.915 46.5936 296.79 46.44 296.72Z" fill="white"/>
<path d="M280.42 215.64C280.406 215.55 280.373 215.464 280.325 215.387C280.277 215.309 280.213 215.243 280.139 215.191C280.064 215.138 279.98 215.102 279.891 215.083C279.801 215.064 279.709 215.063 279.62 215.08L268.16 217.08L266.16 205.6C266.126 205.421 266.023 205.262 265.874 205.157C265.724 205.053 265.54 205.011 265.36 205.04C265.27 205.054 265.184 205.087 265.107 205.135C265.03 205.183 264.963 205.247 264.911 205.321C264.858 205.396 264.822 205.48 264.803 205.569C264.784 205.658 264.783 205.75 264.8 205.84L266.8 217.32L255.32 219.32C255.14 219.336 254.973 219.423 254.857 219.561C254.74 219.7 254.684 219.879 254.7 220.06C254.716 220.24 254.803 220.407 254.942 220.523C255.08 220.639 255.26 220.696 255.44 220.68C255.6 220.68 255.56 220.68 267.04 218.68L269.04 230.14C269.068 230.301 269.151 230.447 269.275 230.552C269.4 230.658 269.557 230.718 269.72 230.72C269.821 230.718 269.921 230.695 270.012 230.651C270.104 230.608 270.185 230.545 270.249 230.467C270.314 230.389 270.361 230.298 270.387 230.2C270.413 230.102 270.417 230 270.4 229.9L268.4 218.44L279.86 216.44C279.95 216.425 280.036 216.393 280.113 216.345C280.19 216.296 280.257 216.233 280.309 216.158C280.362 216.084 280.398 215.999 280.417 215.91C280.436 215.821 280.437 215.729 280.42 215.64Z" fill="white"/>
<path d="M65.68 159.66C61.2458 159.66 56.9111 158.345 53.2241 155.881C49.5372 153.418 46.6636 149.916 44.9666 145.82C43.2697 141.723 42.8257 137.215 43.6908 132.866C44.5559 128.517 46.6912 124.522 49.8267 121.387C52.9622 118.251 56.957 116.116 61.3061 115.251C65.6551 114.386 70.1631 114.83 74.2598 116.526C78.3565 118.223 81.858 121.097 84.3216 124.784C86.7851 128.471 88.1 132.806 88.1 137.24C88.0947 143.184 85.7309 148.884 81.5275 153.087C77.3241 157.291 71.6245 159.655 65.68 159.66ZM65.68 116.2C61.513 116.196 57.4385 117.428 53.9722 119.741C50.5058 122.053 47.8034 125.342 46.207 129.191C44.6105 133.04 44.1917 137.276 45.0037 141.364C45.8157 145.451 47.8219 149.205 50.7684 152.151C53.7149 155.098 57.4692 157.104 61.5563 157.916C65.6434 158.728 69.8795 158.309 73.7286 156.713C77.5776 155.116 80.8665 152.414 83.1791 148.948C85.4917 145.481 86.724 141.407 86.72 137.24C86.7147 131.661 84.4963 126.313 80.5517 122.368C76.6071 118.424 71.2585 116.205 65.68 116.2Z" fill="white"/>
<path d="M159.56 314C159.383 313.957 159.229 313.848 159.129 313.696C159.028 313.544 158.99 313.36 159.02 313.18C159.059 313 159.166 312.843 159.319 312.742C159.473 312.641 159.66 312.604 159.84 312.64C177.379 316.161 195.256 317.717 213.14 317.28C213.229 317.277 213.318 317.292 213.402 317.324C213.485 317.356 213.562 317.404 213.627 317.465C213.692 317.526 213.744 317.6 213.781 317.681C213.817 317.763 213.837 317.851 213.84 317.94C213.84 318.124 213.77 318.302 213.643 318.435C213.517 318.569 213.344 318.65 213.16 318.66C195.176 319.099 177.199 317.536 159.56 314Z" fill="white"/>
<path d="M250.86 314.1C250.824 313.923 250.858 313.738 250.955 313.585C251.052 313.432 251.204 313.323 251.38 313.28C343.04 292.94 381 181.66 323.72 94.62C301 60 248.1 30.82 203.3 28.1C162.98 25.66 141.6 37.5 139.76 63.36C137.92 89.22 122.34 94.18 97.32 86.74C72.3 79.3 46.94 85.04 31.32 101.7C11.62 122.66 9.00002 156.76 23.96 197.7C39.96 241.6 70.2 275.58 111.34 296C111.504 296.08 111.631 296.221 111.691 296.394C111.751 296.566 111.74 296.756 111.66 296.92C111.58 297.084 111.439 297.211 111.266 297.271C111.094 297.331 110.904 297.32 110.74 297.24C69.26 276.66 38.74 242.4 22.74 198.18C2.32002 142.18 18.74 113.08 30.4 100.72C46.4 83.66 72.4 77.8 97.86 85.38C121.84 92.6 136.6 88.52 138.38 63.26C140.38 36.52 162.16 24.22 203.38 26.72C248.56 29.48 301.94 58.96 324.88 93.86C382.88 182.14 343.82 294.18 251.68 314.62C251.592 314.641 251.501 314.643 251.412 314.628C251.322 314.613 251.237 314.581 251.161 314.532C251.084 314.484 251.019 314.421 250.967 314.346C250.915 314.272 250.879 314.188 250.86 314.1Z" fill="white"/>
<path d="M93.78 44C75.48 38.98 76.8 39.3 76.58 39.34C7.14 52.14 31.92 47.14 26.38 48.2C25.3189 48.3878 24.3052 48.7827 23.3968 49.3623C22.4883 49.9418 21.7029 50.6946 21.0854 51.5777C19.8383 53.3612 19.3507 55.567 19.73 57.71C20.1093 59.8529 21.3243 61.7574 23.1077 63.0045C24.8912 64.2517 27.0971 64.7392 29.24 64.36C83.38 54.84 79.44 55.6 79.86 55.28L94 45.28C94.1189 45.2066 94.2131 45.0994 94.2705 44.9721C94.3279 44.8449 94.346 44.7033 94.3223 44.5657C94.2987 44.428 94.2344 44.3006 94.1377 44.1998C94.0411 44.099 93.9165 44.0294 93.78 44ZM40.52 61.06L38.14 47.6L76.14 40.9L78.52 54.36L40.52 61.06ZM32 62.56L29.64 49.1L36.76 47.84L39.14 61.3L32 62.56ZM28.98 63.08C27.2298 63.3169 25.4558 62.8676 24.0293 61.8262C22.6029 60.7847 21.6345 59.2319 21.327 57.4927C21.0195 55.7536 21.3966 53.9628 22.3795 52.4954C23.3623 51.028 24.8747 49.9976 26.6 49.62L28.28 49.34L30.64 62.8L28.98 63.08ZM79.78 53.72L77.54 41.06L92 45.06L79.78 53.72Z" fill="white"/>
<path d="M354.32 67.0399C353.15 60.4624 351.458 53.9886 349.26 47.6799C353.88 37.4599 346.64 26.7799 336.26 22.6599C336.136 22.6063 335.999 22.5908 335.866 22.6154C335.734 22.6399 335.611 22.7034 335.515 22.7978C335.418 22.8922 335.352 23.0132 335.324 23.1453C335.297 23.2775 335.309 23.4148 335.36 23.5399C338.7 32.1199 330.24 40.7399 339.16 49.5399C339.275 56.2439 339.897 62.9296 341.02 69.5399C343.02 81.1799 348.72 105.08 353.42 109.2C354.76 110.38 355.86 109.78 356.52 108.12C359.1 101.54 356.32 78.3399 354.32 67.0399ZM340.54 49.7799L348.08 48.4799C349.804 53.6292 351.24 58.8707 352.38 64.1799L341.88 66.0399C341.139 60.6482 340.692 55.2202 340.54 49.7799ZM353.84 107.78C351.24 104.7 345.96 89.3599 342.38 69.1999L342 67.3999L352.56 65.5399C352.68 66.1199 352.78 66.6999 352.9 67.2799C356.38 87.0799 356.72 103.04 355.4 107.28C355.06 108.54 354.56 108.58 353.84 107.74V107.78Z" fill="white"/>
<path d="M293.1 145.14L283.74 134.96C286.58 130.8 285.98 128.48 279.74 116.96C279.65 114.688 278.96 112.479 277.74 110.56C276.7 109.52 270.5 108.74 259.3 108.22C256.92 105.62 257 105.68 256.8 105.6L249.1 102.36C248.977 102.313 248.844 102.301 248.715 102.326C248.586 102.351 248.467 102.412 248.371 102.502C248.275 102.592 248.206 102.707 248.172 102.834C248.139 102.961 248.141 103.094 248.18 103.22L250.76 111.22C250.76 111.44 250.76 111.22 253.58 114.4C251.58 118.82 249.98 121.32 249.98 122.92C249.98 126.5 251 130.12 250.7 136.78C249.971 136.812 249.247 136.919 248.54 137.1C248.412 137.139 248.296 137.207 248.2 137.3C245.24 140.7 236.2 150.52 232.6 155.3C215.2 130 209.6 124.44 198.2 123.3C197.82 121.3 197.5 119.06 197.26 116.94C199.7 117.24 202.62 117.32 204.42 115.68C207.56 112.82 206.54 105.84 205.9 94.38C214.46 88.7 217.58 65.08 198.72 66.38C200.38 46.06 171.68 42.74 169.22 59.52C153.66 48.96 130.94 66.68 145.82 79.34C137.52 81.14 135.26 91.76 143.22 93.18C123.22 108.92 138.88 139.8 182.3 115.42C177.585 119.159 172.613 122.561 167.42 125.6C147.284 129.698 128.055 137.402 110.66 148.34C94.66 158.34 93.3 163.6 91.48 178.74C90.1185 189.354 89.3772 200.039 89.26 210.74C89.2377 211.048 89.2775 211.357 89.3772 211.649C89.4768 211.941 89.6342 212.21 89.84 212.44C91.4305 213.924 93.4884 214.808 95.66 214.94C93.54 216.58 90.1 218.94 89.3 220.94C88.18 223.88 87.44 225.86 85.94 229.44C85.6 230.28 84.54 232.86 85.94 233.7C88.3 235.14 93.94 228.68 95.6 226.66C96.3705 225.734 97.4249 225.087 98.6 224.82C97.5001 226.793 96.7364 228.936 96.34 231.16C92.4379 233.004 88.2762 234.238 84 234.82C80.98 235.28 79.44 236.14 79.46 237.38C79.48 238.62 80.86 239.38 83.18 239.66C84.8782 239.77 86.5818 239.77 88.28 239.66C87.48 240.08 86.72 240.42 86 240.74C82.62 242.14 80.72 243.96 81.14 245.34C81.32 245.9 81.88 246.48 83.42 246.48C87.066 245.985 90.6263 244.989 94 243.52C92.62 245 91.42 246.16 90.2 247.28C87.08 250.2 85.84 252.6 86.78 253.88C87.72 255.16 90.3 254.22 91.82 253.34C94.7767 251.607 97.5625 249.598 100.14 247.34C99.38 249.033 98.58 250.713 97.74 252.38C95.74 256.14 95.36 258.38 96.56 259.18C98.1 260.22 100.72 257.86 101.98 256.38C106.98 250.38 115.7 236.38 116.54 233.16C117.14 230.98 117 222.54 116.78 216.18C120.42 215.92 122.98 214.58 123.12 212.78C123.12 212.58 123.64 186.16 124.56 176C132.594 172.923 140.778 170.253 149.08 168C149.84 173.48 150.4 179.12 150.6 184.22C140.799 188.794 133.176 197.02 129.36 207.14C120.76 229.88 123.82 260.52 125.68 292.58L68.6 305.4C65.44 306 64.42 310.84 64.74 314.22C62.98 314.66 56.94 316.22 55.38 316.56C50.48 316.72 49.74 330.84 49.72 339.28C49.72 352.76 51.72 371.92 56.06 376.42C56.4344 376.911 56.981 377.242 57.5897 377.346C58.1984 377.45 58.8239 377.319 59.34 376.98C65.84 374.16 68.36 362.98 69.82 353.2C70.2625 349.731 70.9985 346.305 72.02 342.96C72.3109 343.757 72.8122 344.461 73.4707 344.996C74.1291 345.531 74.9202 345.878 75.76 346C76.4 346 74.7 346.2 89.04 343.08C103.38 339.96 124.72 335.32 137.58 331.58C155.26 326.48 159.7 319.02 163.58 303.14C166.1 292.62 174.48 257.34 176.24 249.98C184.42 252.3 200.68 257.72 212.58 261.82C212.92 269 212.82 310.98 212.58 326.38C212.58 329.44 216.72 331.12 219.7 331.78C219.36 334.22 218.44 341.6 218.22 343.18C216.96 347.62 229.02 352.54 239.4 355.9C245.7 357.9 275.94 366.66 275.08 360.14C275.32 349.84 255.42 342.7 247.08 332.82C249.36 332.64 252.34 331.86 252.38 329.58V270.5C252.38 248.92 251.02 243.54 235.26 230.5C220.737 218.801 205.581 207.911 189.86 197.88C193.1 187.44 196.52 178.02 200.62 167.7C206.86 176.46 215.36 187.7 219.68 191.98C230.16 202.26 239 200.64 248.36 189.66C256.561 180.225 264.207 170.321 271.26 160C271.338 159.904 271.38 159.784 271.38 159.66C271.588 157.145 271.351 154.613 270.68 152.18C271.62 150.08 275.62 145.84 278.68 141.94L286.94 150.92C287.313 151.323 287.762 151.649 288.26 151.879C288.759 152.108 289.299 152.238 289.847 152.259C290.396 152.28 290.944 152.193 291.459 152.003C291.974 151.813 292.447 151.523 292.85 151.15C293.253 150.777 293.579 150.328 293.809 149.829C294.038 149.331 294.168 148.791 294.189 148.243C294.21 147.694 294.123 147.146 293.933 146.631C293.743 146.116 293.453 145.643 293.08 145.24L293.1 145.14ZM276.7 111.64C278.38 113.24 278.86 122.22 279.02 125.16V125.62C279.03 125.793 279.106 125.956 279.233 126.075C279.359 126.194 279.526 126.26 279.7 126.26C279.794 126.26 279.886 126.241 279.973 126.205C280.059 126.168 280.137 126.115 280.202 126.048C280.267 125.981 280.319 125.901 280.353 125.814C280.387 125.727 280.403 125.634 280.4 125.54C280.3 123.94 280.2 122.44 280.06 120.68C284.7 129.4 284.64 131.14 282.74 133.92L271.44 121.64C271.6 119.817 271.6 117.983 271.44 116.16C271.431 116.015 271.376 115.876 271.282 115.764C271.189 115.653 271.062 115.574 270.92 115.54C269.96 115.3 267.98 114.96 264.92 114.48L260.56 109.76C271.5 110.32 276.12 111.1 276.7 111.64ZM197.38 102.76C197.453 102.643 197.491 102.508 197.491 102.37C197.491 102.232 197.453 102.097 197.38 101.98C194 97.34 197.02 94.12 198.44 97.42C198.9 98.52 199.52 98.66 199.94 98.56C201.26 98.3 201.7 95.42 201.82 93.72C202.73 93.8534 203.618 94.109 204.46 94.48C204.94 103.04 205.66 109.7 204.46 112.94C204.3 113.4 204.2 113.76 203.62 113.86C203.04 113.96 200.76 113.56 196.4 110.4C196.296 110.325 196.174 110.28 196.046 110.271C195.918 110.262 195.79 110.29 195.678 110.35C195.565 110.411 195.471 110.502 195.408 110.614C195.345 110.725 195.314 110.852 195.32 110.98C195.504 115.085 195.958 119.174 196.68 123.22C188.143 122.886 179.595 123.463 171.18 124.94C181.86 118.28 193.88 108.16 197.38 102.76ZM83.38 238.3C81.64 238.08 80.94 237.52 80.9 237.38C80.86 237.24 81.22 236.64 84.26 236.18C88.7818 235.533 93.1748 234.183 97.28 232.18C97.3874 232.137 97.4813 232.067 97.5517 231.975C97.6221 231.884 97.6665 231.775 97.68 231.66C98.0709 229.164 98.9694 226.775 100.32 224.64C101.024 224.696 101.708 224.907 102.32 225.26C105.36 227 106.04 231.26 104.2 236.98C102.081 235.784 100.13 234.311 98.4 232.6C98.2725 232.473 98.0999 232.402 97.92 232.402C97.7401 232.402 97.5675 232.473 97.44 232.6C97.3741 232.663 97.3216 232.74 97.2858 232.824C97.25 232.908 97.2315 232.998 97.2315 233.09C97.2315 233.182 97.25 233.272 97.2858 233.356C97.3216 233.44 97.3741 233.517 97.44 233.58L97.58 233.74C95.12 235.46 93.12 236.8 91.4 237.84C88.7379 238.284 86.0354 238.439 83.34 238.3H83.38ZM85.18 244.86C83.18 245.26 82.6 244.98 82.52 244.86C82.44 244.74 83.4 243.26 86.52 241.92C90.7672 239.942 94.7902 237.515 98.52 234.68C99.02 235.12 99.56 235.56 100.1 235.98C98.6 237.98 97.32 239.6 96.1 240.98C92.6131 242.702 88.934 244.005 85.14 244.86H85.18ZM91.18 252.16C89.18 253.36 88.06 253.24 87.94 253.06C87.82 252.88 87.94 251.36 91.18 248.3C94.93 244.823 98.3205 240.977 101.3 236.82C102.08 237.36 102.9 237.86 103.72 238.32C103.06 240.32 102.34 242.14 101.56 244.04C98.4368 247.16 94.9443 249.887 91.16 252.16H91.18ZM115.18 232.7C114.44 235.38 106.02 249.3 100.88 255.4C99 257.62 97.52 258.08 97.3 257.94C97.08 257.8 96.7 257.1 98.92 252.92C101.326 248.167 103.404 243.256 105.14 238.22C108.7 228.22 104.34 224.9 102.9 224.08C101.524 223.333 99.9318 223.088 98.3954 223.388C96.859 223.687 95.4747 224.511 94.48 225.72C89.8 231.36 87.06 232.64 86.6 232.48C86.6 232.48 86.3 231.98 87.16 229.9C88.5 226.7 89.3 224.6 90.54 221.36C91.5 218.86 98.34 215.36 98.9 213.36C99.2665 211.659 99.4077 209.918 99.32 208.18C104.585 207.913 109.864 208.228 115.06 209.12C115.28 212.3 116 229.7 115.24 232.7H115.18ZM133.8 292.22C133.976 292.173 134.128 292.059 134.221 291.902C134.314 291.745 134.343 291.558 134.3 291.38C134.281 291.292 134.245 291.209 134.193 291.135C134.141 291.062 134.075 291 133.998 290.953C133.921 290.906 133.836 290.876 133.746 290.863C133.657 290.85 133.567 290.856 133.48 290.88L126.98 292.34C124.98 259.36 122.26 229.74 130.58 207.72C132.5 202.659 135.419 198.038 139.165 194.131C142.91 190.223 147.405 187.111 152.38 184.98C161.612 181.027 171.633 179.261 181.66 179.82C168.14 197.54 158.34 234.82 149.04 303.82C125.8 311.1 91.44 319.06 78.42 321.82C77.32 316.74 75.14 308.9 71.46 306.3C75.84 305.2 130.46 293.02 133.86 292.22H133.8ZM68.46 353C67.36 360.28 65.46 369.64 61.3 373.92C65.1 363.06 62.7 323.58 57.3 317.52C60.96 316.64 65.3 315.52 74.56 313.36C76.9595 320.044 78.3547 327.047 78.7 334.14C70.9 336.6 69.66 344.78 68.46 353ZM256.18 342.34C262.86 347.08 271.22 352.18 273.14 357.44C264.8 350.54 227.4 339.16 219.68 341.68C220.92 332.48 220.84 332.1 222.16 323.26C229.001 323.034 235.845 323.591 242.56 324.92C242.64 330.66 244.9 334.3 256.18 342.34ZM234.18 231.48C248.96 243.78 250.82 248.16 250.8 270.5V326.8C248.64 324.8 243.48 323.04 232.38 322.14C222.7 321.36 216.38 321.96 213.84 323.92C214.1 306.52 214.16 266.56 213.84 261.18C213.834 261.045 213.787 260.915 213.704 260.808C213.622 260.7 213.509 260.621 213.38 260.58C205.06 257.7 194.46 254.14 186 251.44C185.78 241.98 185.36 220.38 186 211.1C187.16 206.96 188.3 203.1 189.46 199.24C204.958 209.161 219.9 219.924 234.22 231.48H234.18ZM162.18 302.72C158.64 317.5 155.04 325.02 137.22 330.16C120.48 335.02 88.86 341.54 78.62 343.88C81.34 339 79.8 328.52 78.72 323.04C91.84 320.3 126.58 312.24 149.88 304.9C150.004 304.861 150.115 304.787 150.2 304.688C150.285 304.589 150.34 304.469 150.36 304.34C159.78 234.34 169.66 197.14 183.36 179.92C186.933 180.124 190.488 180.571 194 181.26C182.78 212.34 176.58 242.4 162.16 302.72H162.18ZM270 159.28C263.01 169.538 255.431 179.381 247.3 188.76C238.38 199.22 230.44 200.64 220.62 191C214.3 184.78 198 162 194.82 156.78C194.734 156.652 194.608 156.555 194.462 156.506C194.315 156.456 194.157 156.457 194.011 156.507C193.864 156.557 193.739 156.655 193.654 156.783C193.569 156.912 193.529 157.066 193.54 157.22C194.465 164.422 194.899 171.679 194.84 178.94C194.7 179.28 194.58 179.62 194.46 179.96C180.24 177.16 164.66 177.96 151.96 183.66C151.46 173.06 149.26 156.98 146.12 147.34C146.093 147.254 146.049 147.175 145.991 147.107C145.933 147.038 145.862 146.982 145.782 146.941C145.702 146.9 145.614 146.875 145.525 146.868C145.435 146.861 145.345 146.872 145.26 146.9C145.086 146.959 144.942 147.085 144.859 147.25C144.777 147.414 144.763 147.605 144.82 147.78C145.716 150.64 146.463 153.543 147.06 156.48C142.211 161.954 137.042 167.137 131.58 172C128.6 173 125.84 174 123.7 174.8C123.581 174.847 123.476 174.926 123.399 175.028C123.321 175.131 123.273 175.252 123.26 175.38C122.74 180.3 121.98 200 121.8 210.28C120.051 209.116 118.073 208.339 116 208H115.9C110.36 206.82 95.42 205.86 90.68 208.84C90.8635 198.86 91.598 188.899 92.88 179C94.66 164.02 95.86 159.28 111.4 149.58C136.86 133.58 166.32 124.56 192.24 124.56C209.02 124.56 212.72 128.56 235.84 162.56C235.888 162.635 235.952 162.7 236.026 162.75C236.1 162.8 236.183 162.835 236.271 162.852C236.359 162.869 236.45 162.867 236.537 162.848C236.625 162.829 236.707 162.792 236.78 162.74C236.932 162.638 237.039 162.48 237.076 162.301C237.114 162.121 237.079 161.934 236.98 161.78C235.72 159.94 234.52 158.18 233.36 156.52C236.74 152.14 245.92 142.04 249.04 138.52C253.58 137.44 259.48 140.02 263.04 143C265.436 144.944 267.322 147.442 268.535 150.279C269.747 153.115 270.25 156.205 270 159.28ZM270 150.32C268.512 146.647 266.049 143.45 262.876 141.075C259.704 138.699 255.943 137.235 252 136.84C252.3 130.04 251.28 126.46 251.28 122.96C251.28 121.54 253.62 117.94 256 112.08C256.46 110.96 257.04 110.54 257.32 110.64C258.04 110.84 259.04 113.12 258.22 117.68C256.66 126.52 262.22 130.9 267.04 129.16L277.76 140.82C274.94 144.4 271.64 148 270.1 150.32H270ZM259.34 118.86C259.34 118.54 259.34 118.24 259.48 117.92C260.28 113.42 259.48 109.92 257.6 109.3C257.18 109.18 255.6 108.98 254.62 111.56C254.42 112.08 254.2 112.58 254 113.06L252 110.7L250 104.32L256.2 106.9L285.8 139.24C284.026 139.991 282.574 141.344 281.7 143.06L259.34 118.86ZM282.64 144.18C282.967 143.28 283.498 142.468 284.192 141.809C284.887 141.149 285.724 140.66 286.64 140.38L287.68 141.5C285.899 142.238 284.439 143.584 283.56 145.3L282.64 144.18ZM292 150C291.73 150.258 291.411 150.46 291.061 150.592C290.712 150.724 290.339 150.785 289.966 150.77C289.593 150.755 289.226 150.665 288.888 150.505C288.55 150.345 288.248 150.119 288 149.84L284.84 146.4C285.184 145.49 285.736 144.673 286.451 144.013C287.166 143.354 288.025 142.87 288.96 142.6L292 146C292.271 146.258 292.487 146.568 292.634 146.912C292.782 147.256 292.858 147.626 292.858 148C292.858 148.374 292.782 148.744 292.634 149.088C292.487 149.432 292.271 149.742 292 150Z" fill="white"/>
<path d="M336.86 217.4C326.211 217.396 315.799 220.55 306.943 226.464C298.086 232.377 291.182 240.785 287.104 250.622C283.026 260.46 281.957 271.286 284.032 281.731C286.107 292.177 291.233 301.772 298.762 309.303C306.291 316.835 315.884 321.965 326.329 324.044C336.773 326.123 347.6 325.058 357.439 320.983C367.278 316.909 375.688 310.008 381.605 301.154C387.522 292.3 390.68 281.889 390.68 271.24C390.638 256.977 384.955 243.31 374.871 233.223C364.788 223.136 351.123 217.447 336.86 217.4ZM336.86 323.7C327.781 323.696 318.859 321.337 310.964 316.854C303.07 312.37 296.474 305.915 291.82 298.12C319.18 280.76 338.94 253.02 347.54 219.88C360.25 222.525 371.529 229.788 379.194 240.267C386.859 250.745 390.367 263.694 389.038 276.608C387.71 289.523 381.639 301.486 372.002 310.184C362.364 318.883 349.843 323.698 336.86 323.7Z" fill="white"/>
</svg>
