<svg width="400" height="401" viewBox="0 0 400 401" fill="none" xmlns="http://www.w3.org/2000/svg">
<path d="M324.94 86.4616L224.1 62.4616C217.46 61.2416 213.66 64.0016 211.74 68.9416L210.24 72.9416C214.06 79.6816 210.62 91.4816 205.12 94.7416C206.4 107.262 206.08 113.302 204.72 114.982C203.36 116.662 200.18 117.462 196.4 116.862C196.793 119.495 197.327 122.105 198 124.682C199.407 124.802 200.804 125.023 202.18 125.342L222.82 71.4416L319.78 94.9816L289.2 182.262L260.94 173.762C258.76 176.582 256.4 179.582 253.84 182.722L289.38 193.402C294.82 195.042 300.04 193.282 302.46 186.722L332.46 100.262C334.58 94.3216 334 88.6816 324.94 86.4616ZM313.86 142.682C313.739 143.134 313.527 143.558 313.236 143.925C312.945 144.292 312.581 144.596 312.168 144.817C311.755 145.038 311.301 145.171 310.833 145.209C310.366 145.247 309.896 145.189 309.453 145.038C309.009 144.887 308.602 144.646 308.255 144.331C307.908 144.016 307.63 143.633 307.437 143.205C307.245 142.778 307.142 142.316 307.136 141.847C307.129 141.379 307.219 140.914 307.4 140.482C307.521 140.029 307.733 139.606 308.024 139.238C308.315 138.871 308.679 138.568 309.092 138.347C309.505 138.126 309.959 137.992 310.427 137.954C310.894 137.916 311.364 137.974 311.807 138.125C312.251 138.276 312.658 138.517 313.005 138.832C313.352 139.147 313.63 139.531 313.823 139.958C314.015 140.385 314.118 140.847 314.124 141.316C314.131 141.784 314.041 142.249 313.86 142.682Z" fill="#1890ff"/>
<path d="M270 152.682C270.698 155.109 270.942 157.645 270.72 160.162C263.665 170.49 256.033 180.413 247.86 189.882C238.36 200.922 230 201.882 220.18 192.182C214.18 186.182 198.4 164.462 194.18 157.822C195.114 165.117 195.542 172.468 195.46 179.822C195.26 180.362 194.88 181.462 194.88 181.462C180.38 178.502 164.32 179.302 151.28 185.462C150.87 176.011 149.706 166.607 147.8 157.342C142.801 162.999 137.457 168.343 131.8 173.342C128.72 174.402 125.8 175.342 123.8 176.182C123.28 181.282 122.42 203.682 122.32 213.302C122.32 211.942 120.32 210.362 115.66 209.302C110.022 208.275 104.279 207.94 98.56 208.302C92.56 208.702 90 210.022 89.82 211.402C89.9595 200.748 90.7007 190.111 92.04 179.542C94.04 164.362 95.14 159.542 110.88 149.542C129.463 137.962 150.096 130.059 171.66 126.262C180.352 124.736 189.188 124.206 198 124.682C209.22 125.662 214.66 131.082 232.54 157.102C235.7 152.882 245.76 141.802 248.68 138.502C255.4 136.682 266.98 142.362 270 152.682Z" fill="#FFE7EA"/>
<path d="M274.26 360.682C273.1 353.782 220.54 338.182 218.78 343.822C219.22 340.742 221.04 326.562 221.58 323.222C228.851 322.93 236.131 323.521 243.26 324.982C243.086 327.737 243.894 330.465 245.54 332.682C252.88 342.682 274.54 350.682 274.26 360.682Z" fill="#FFE7EA"/>
<path d="M79.42 335.322C77.7335 335.666 76.1645 336.439 74.8646 337.568C73.5647 338.696 72.578 340.14 72 341.762C70.5521 345.629 69.5848 349.659 69.12 353.762C67.76 363.102 65.26 374.402 59.12 377.042C65.72 372.262 62.24 317.902 55.56 317.902C60.12 316.882 63.14 315.902 75.08 313.202C77.6791 320.301 79.1437 327.766 79.42 335.322Z" fill="#FFE7EA"/>
<path d="M293.5 99.5616C306.02 109.682 294.84 127.742 282.2 123.902C281.38 122.262 280.34 120.302 279.04 117.902C278.936 115.742 278.305 113.64 277.2 111.782C275.302 110.968 273.265 110.527 271.2 110.482C270.52 100.242 284 91.8616 293.5 99.5616Z" fill="#1890ff"/>
<path d="M251.32 111.742L254.34 115.002C252.34 119.542 250.62 122.202 250.6 123.642C250.6 127.262 251.68 131.082 251.3 138.182C250.41 138.162 249.522 138.262 248.66 138.482L245.02 142.682C237.72 145.042 223.62 139.142 223.02 124.682C222.32 108.042 238.9 99.6416 248.76 103.862L251.32 111.742Z" fill="#1890ff"/>
<path d="M46.44 297.402L28.98 285.182L41.2 267.722C41.3061 267.573 41.3488 267.388 41.3188 267.208C41.2888 267.028 41.1885 266.868 41.04 266.762C40.8915 266.656 40.7069 266.613 40.5269 266.643C40.3468 266.673 40.1861 266.773 40.08 266.922L27.84 284.382L10.4 272.162C10.3256 272.109 10.2414 272.072 10.1524 272.052C10.0634 272.033 9.97144 272.032 9.88189 272.048C9.79234 272.065 9.70709 272.1 9.63118 272.15C9.55527 272.2 9.49026 272.266 9.44 272.342C9.33694 272.491 9.29602 272.675 9.32587 272.854C9.35573 273.033 9.45402 273.194 9.6 273.302L27.06 285.522L14.84 302.962C14.7657 303.064 14.7213 303.185 14.7118 303.311C14.7023 303.436 14.728 303.563 14.7862 303.675C14.8443 303.787 14.9326 303.881 15.041 303.945C15.1494 304.01 15.2737 304.043 15.4 304.042C15.5115 304.042 15.6216 304.017 15.7221 303.968C15.8225 303.92 15.9107 303.849 15.98 303.762L28.18 286.302C47.34 299.722 45.76 298.682 46 298.682C46.1643 298.721 46.3372 298.697 46.4852 298.616C46.6331 298.534 46.7454 298.401 46.8003 298.241C46.8552 298.081 46.8487 297.907 46.7821 297.752C46.7155 297.597 46.5936 297.472 46.44 297.402Z" fill="#1890ff"/>
<path d="M280.42 216.322C280.406 216.232 280.373 216.146 280.325 216.068C280.277 215.991 280.213 215.924 280.139 215.872C280.064 215.82 279.98 215.783 279.891 215.764C279.801 215.745 279.709 215.744 279.62 215.762L268.16 217.762L266.16 206.282C266.126 206.102 266.023 205.944 265.874 205.839C265.724 205.734 265.54 205.692 265.36 205.722C265.27 205.736 265.184 205.768 265.107 205.817C265.03 205.865 264.963 205.928 264.911 206.003C264.858 206.078 264.822 206.162 264.803 206.251C264.784 206.34 264.783 206.432 264.8 206.522L266.8 218.002L255.32 220.002C255.14 220.018 254.973 220.104 254.857 220.243C254.74 220.382 254.684 220.561 254.7 220.742C254.716 220.922 254.803 221.089 254.942 221.205C255.08 221.321 255.26 221.378 255.44 221.362C255.6 221.362 255.56 221.362 267.04 219.362L269.04 230.822C269.068 230.982 269.151 231.128 269.275 231.234C269.4 231.34 269.557 231.399 269.72 231.402C269.821 231.4 269.921 231.377 270.012 231.333C270.104 231.289 270.185 231.226 270.249 231.149C270.314 231.071 270.361 230.979 270.387 230.882C270.413 230.784 270.417 230.681 270.4 230.582L268.4 219.122L279.86 217.122C279.95 217.107 280.036 217.075 280.113 217.026C280.19 216.978 280.257 216.915 280.309 216.84C280.362 216.766 280.398 216.681 280.417 216.592C280.436 216.503 280.437 216.411 280.42 216.322Z" fill="#1890ff"/>
<path d="M65.68 160.342C61.2458 160.342 56.9111 159.027 53.2241 156.563C49.5372 154.1 46.6636 150.598 44.9666 146.501C43.2697 142.405 42.8257 137.897 43.6908 133.548C44.5559 129.199 46.6912 125.204 49.8267 122.068C52.9622 118.933 56.957 116.798 61.3061 115.933C65.6551 115.067 70.1631 115.511 74.2598 117.208C78.3565 118.905 81.858 121.779 84.3216 125.466C86.7851 129.153 88.1 133.487 88.1 137.922C88.0947 143.866 85.7309 149.566 81.5275 153.769C77.3241 157.973 71.6245 160.336 65.68 160.342ZM65.68 116.882C61.513 116.878 57.4385 118.11 53.9722 120.423C50.5058 122.735 47.8034 126.024 46.207 129.873C44.6105 133.722 44.1917 137.958 45.0037 142.045C45.8157 146.133 47.8219 149.887 50.7684 152.833C53.7149 155.78 57.4692 157.786 61.5563 158.598C65.6434 159.41 69.8795 158.991 73.7286 157.395C77.5776 155.798 80.8665 153.096 83.1791 149.63C85.4917 146.163 86.724 142.089 86.72 137.922C86.7147 132.343 84.4963 126.995 80.5517 123.05C76.6071 119.105 71.2585 116.887 65.68 116.882Z" fill="#1890ff"/>
<path d="M159.56 314.682C159.383 314.639 159.229 314.53 159.129 314.378C159.028 314.226 158.99 314.041 159.02 313.862C159.059 313.682 159.166 313.525 159.319 313.424C159.473 313.323 159.66 313.286 159.84 313.322C177.379 316.842 195.256 318.399 213.14 317.962C213.229 317.959 213.318 317.974 213.402 318.006C213.485 318.037 213.562 318.085 213.627 318.147C213.692 318.208 213.744 318.281 213.781 318.363C213.817 318.444 213.837 318.532 213.84 318.622C213.84 318.806 213.77 318.983 213.643 319.117C213.517 319.251 213.344 319.331 213.16 319.342C195.176 319.781 177.199 318.218 159.56 314.682Z" fill="#1890ff"/>
<path d="M250.86 314.782C250.824 314.604 250.858 314.42 250.955 314.267C251.052 314.114 251.204 314.005 251.38 313.962C343.04 293.622 381 182.342 323.72 95.3017C301 60.6817 248.1 31.5017 203.3 28.7817C162.98 26.3417 141.6 38.1817 139.76 64.0417C137.92 89.9017 122.34 94.8617 97.32 87.4217C72.3 79.9817 46.94 85.7217 31.32 102.382C11.62 123.342 9.00002 157.442 23.96 198.382C39.96 242.282 70.2 276.262 111.34 296.682C111.504 296.761 111.631 296.903 111.691 297.075C111.751 297.248 111.74 297.437 111.66 297.602C111.58 297.766 111.439 297.892 111.266 297.952C111.094 298.012 110.904 298.001 110.74 297.922C69.26 277.342 38.74 243.082 22.74 198.862C2.32002 142.862 18.74 113.762 30.4 101.402C46.4 84.3417 72.4 78.4817 97.86 86.0617C121.84 93.2817 136.6 89.2017 138.38 63.9417C140.38 37.2017 162.16 24.9017 203.38 27.4017C248.56 30.1617 301.94 59.6417 324.88 94.5417C382.88 182.822 343.82 294.862 251.68 315.302C251.592 315.322 251.501 315.325 251.412 315.31C251.322 315.295 251.237 315.262 251.161 315.214C251.084 315.165 251.019 315.102 250.967 315.028C250.915 314.954 250.879 314.87 250.86 314.782Z" fill="#1890ff"/>
<path d="M93.78 44.6816C75.48 39.6616 76.8 39.9816 76.58 40.0216C7.14 52.8216 31.92 47.8216 26.38 48.8816C25.3189 49.0694 24.3052 49.4643 23.3968 50.0439C22.4883 50.6234 21.7029 51.3763 21.0854 52.2593C19.8383 54.0428 19.3507 56.2487 19.73 58.3916C20.1093 60.5346 21.3243 62.4391 23.1077 63.6862C24.8912 64.9333 27.0971 65.4209 29.24 65.0416C83.38 55.5216 79.44 56.2816 79.86 55.9616L94 45.9616C94.1189 45.8883 94.2131 45.7811 94.2705 45.6538C94.3279 45.5265 94.346 45.3849 94.3223 45.2473C94.2987 45.1097 94.2344 44.9823 94.1377 44.8814C94.0411 44.7806 93.9165 44.711 93.78 44.6816ZM40.52 61.7416L38.14 48.2816L76.14 41.5816L78.52 55.0416L40.52 61.7416ZM32 63.2416L29.64 49.7816L36.76 48.5216L39.14 61.9816L32 63.2416ZM28.98 63.7616C27.2298 63.9985 25.4558 63.5492 24.0293 62.5078C22.6029 61.4664 21.6345 59.9136 21.327 58.1744C21.0195 56.4352 21.3966 54.6445 22.3795 53.1771C23.3623 51.7096 24.8747 50.6792 26.6 50.3016L28.28 50.0216L30.64 63.4816L28.98 63.7616ZM79.78 54.4016L77.54 41.7416L92 45.7416L79.78 54.4016Z" fill="#1890ff"/>
<path d="M354.32 67.7217C353.15 61.1442 351.458 54.6704 349.26 48.3617C353.88 38.1417 346.64 27.4617 336.26 23.3417C336.136 23.2881 335.999 23.2726 335.866 23.2971C335.734 23.3217 335.611 23.3852 335.515 23.4796C335.418 23.5739 335.352 23.6949 335.324 23.8271C335.297 23.9592 335.309 24.0966 335.36 24.2217C338.7 32.8017 330.24 41.4217 339.16 50.2217C339.275 56.9257 339.897 63.6113 341.02 70.2217C343.02 81.8617 348.72 105.762 353.42 109.882C354.76 111.062 355.86 110.462 356.52 108.802C359.1 102.222 356.32 79.0217 354.32 67.7217ZM340.54 50.4617L348.08 49.1617C349.804 54.311 351.24 59.5524 352.38 64.8617L341.88 66.7217C341.139 61.33 340.692 55.9019 340.54 50.4617ZM353.84 108.462C351.24 105.382 345.96 90.0417 342.38 69.8817L342 68.0817L352.56 66.2217C352.68 66.8017 352.78 67.3817 352.9 67.9617C356.38 87.7617 356.72 103.722 355.4 107.962C355.06 109.222 354.56 109.262 353.84 108.422V108.462Z" fill="#1890ff"/>
<path d="M293.1 145.822L283.74 135.642C286.58 131.482 285.98 129.162 279.74 117.642C279.65 115.369 278.96 113.161 277.74 111.242C276.7 110.202 270.5 109.422 259.3 108.902C256.92 106.302 257 106.362 256.8 106.282L249.1 103.042C248.977 102.994 248.844 102.983 248.715 103.008C248.586 103.033 248.467 103.094 248.371 103.184C248.275 103.273 248.206 103.388 248.172 103.515C248.139 103.642 248.141 103.776 248.18 103.902L250.76 111.902C250.76 112.122 250.76 111.902 253.58 115.082C251.58 119.502 249.98 122.002 249.98 123.602C249.98 127.182 251 130.802 250.7 137.462C249.971 137.494 249.247 137.601 248.54 137.782C248.412 137.82 248.296 137.889 248.2 137.982C245.24 141.382 236.2 151.202 232.6 155.982C215.2 130.682 209.6 125.122 198.2 123.982C197.82 121.982 197.5 119.742 197.26 117.622C199.7 117.922 202.62 118.002 204.42 116.362C207.56 113.502 206.54 106.522 205.9 95.0616C214.46 89.3816 217.58 65.7616 198.72 67.0616C200.38 46.7416 171.68 43.4216 169.22 60.2016C153.66 49.6416 130.94 67.3616 145.82 80.0216C137.52 81.8216 135.26 92.4416 143.22 93.8616C123.22 109.602 138.88 140.482 182.3 116.102C177.585 119.84 172.613 123.242 167.42 126.282C147.284 130.379 128.055 138.083 110.66 149.022C94.66 159.022 93.3 164.282 91.48 179.422C90.1185 190.036 89.3772 200.721 89.26 211.422C89.2377 211.729 89.2775 212.039 89.3772 212.331C89.4768 212.623 89.6342 212.892 89.84 213.122C91.4305 214.606 93.4884 215.49 95.66 215.622C93.54 217.262 90.1 219.622 89.3 221.622C88.18 224.562 87.44 226.542 85.94 230.122C85.6 230.962 84.54 233.542 85.94 234.382C88.3 235.822 93.94 229.362 95.6 227.342C96.3705 226.415 97.4249 225.768 98.6 225.502C97.5001 227.475 96.7364 229.618 96.34 231.842C92.4379 233.685 88.2762 234.92 84 235.502C80.98 235.962 79.44 236.822 79.46 238.062C79.48 239.302 80.86 240.062 83.18 240.342C84.8782 240.452 86.5818 240.452 88.28 240.342C87.48 240.762 86.72 241.102 86 241.422C82.62 242.822 80.72 244.642 81.14 246.022C81.32 246.582 81.88 247.162 83.42 247.162C87.066 246.666 90.6263 245.67 94 244.202C92.62 245.682 91.42 246.842 90.2 247.962C87.08 250.882 85.84 253.282 86.78 254.562C87.72 255.842 90.3 254.902 91.82 254.022C94.7767 252.289 97.5625 250.28 100.14 248.022C99.38 249.715 98.58 251.395 97.74 253.062C95.74 256.822 95.36 259.062 96.56 259.862C98.1 260.902 100.72 258.542 101.98 257.062C106.98 251.062 115.7 237.062 116.54 233.842C117.14 231.662 117 223.222 116.78 216.862C120.42 216.602 122.98 215.262 123.12 213.462C123.12 213.262 123.64 186.842 124.56 176.682C132.594 173.605 140.778 170.935 149.08 168.682C149.84 174.162 150.4 179.802 150.6 184.902C140.799 189.476 133.176 197.702 129.36 207.822C120.76 230.562 123.82 261.202 125.68 293.262L68.6 306.082C65.44 306.682 64.42 311.522 64.74 314.902C62.98 315.342 56.94 316.902 55.38 317.242C50.48 317.402 49.74 331.522 49.72 339.962C49.72 353.442 51.72 372.602 56.06 377.102C56.4344 377.593 56.981 377.924 57.5897 378.027C58.1984 378.131 58.8239 378.001 59.34 377.662C65.84 374.842 68.36 363.662 69.82 353.882C70.2625 350.412 70.9985 346.987 72.02 343.642C72.3109 344.439 72.8122 345.142 73.4707 345.678C74.1291 346.213 74.9202 346.56 75.76 346.682C76.4 346.682 74.7 346.882 89.04 343.762C103.38 340.642 124.72 336.002 137.58 332.262C155.26 327.162 159.7 319.702 163.58 303.822C166.1 293.302 174.48 258.022 176.24 250.662C184.42 252.982 200.68 258.402 212.58 262.502C212.92 269.682 212.82 311.662 212.58 327.062C212.58 330.122 216.72 331.802 219.7 332.462C219.36 334.902 218.44 342.282 218.22 343.862C216.96 348.302 229.02 353.222 239.4 356.582C245.7 358.582 275.94 367.342 275.08 360.822C275.32 350.522 255.42 343.382 247.08 333.502C249.36 333.322 252.34 332.542 252.38 330.262V271.182C252.38 249.602 251.02 244.222 235.26 231.182C220.737 219.482 205.581 208.593 189.86 198.562C193.1 188.122 196.52 178.702 200.62 168.382C206.86 177.142 215.36 188.382 219.68 192.662C230.16 202.942 239 201.322 248.36 190.342C256.561 180.906 264.207 171.003 271.26 160.682C271.338 160.585 271.38 160.465 271.38 160.342C271.588 157.827 271.351 155.294 270.68 152.862C271.62 150.762 275.62 146.522 278.68 142.622L286.94 151.602C287.313 152.005 287.762 152.331 288.26 152.56C288.759 152.79 289.299 152.919 289.847 152.941C290.396 152.962 290.944 152.875 291.459 152.685C291.974 152.494 292.447 152.205 292.85 151.832C293.253 151.459 293.579 151.01 293.809 150.511C294.038 150.012 294.168 149.473 294.189 148.924C294.21 148.375 294.123 147.828 293.933 147.313C293.743 146.797 293.453 146.325 293.08 145.922L293.1 145.822ZM276.7 112.322C278.38 113.922 278.86 122.902 279.02 125.842V126.302C279.03 126.475 279.106 126.638 279.233 126.757C279.359 126.876 279.526 126.942 279.7 126.942C279.794 126.942 279.886 126.923 279.973 126.887C280.059 126.85 280.137 126.797 280.202 126.73C280.267 126.662 280.319 126.583 280.353 126.496C280.387 126.408 280.403 126.315 280.4 126.222C280.3 124.622 280.2 123.122 280.06 121.362C284.7 130.082 284.64 131.822 282.74 134.602L271.44 122.322C271.6 120.498 271.6 118.665 271.44 116.842C271.431 116.696 271.376 116.557 271.282 116.446C271.189 116.334 271.062 116.256 270.92 116.222C269.96 115.982 267.98 115.642 264.92 115.162L260.56 110.442C271.5 111.002 276.12 111.782 276.7 112.322ZM197.38 103.442C197.453 103.325 197.491 103.189 197.491 103.052C197.491 102.914 197.453 102.779 197.38 102.662C194 98.0216 197.02 94.8016 198.44 98.1016C198.9 99.2016 199.52 99.3416 199.94 99.2416C201.26 98.9816 201.7 96.1016 201.82 94.4016C202.73 94.535 203.618 94.7906 204.46 95.1616C204.94 103.722 205.66 110.382 204.46 113.622C204.3 114.082 204.2 114.442 203.62 114.542C203.04 114.642 200.76 114.242 196.4 111.082C196.296 111.006 196.174 110.961 196.046 110.953C195.918 110.944 195.79 110.971 195.678 111.032C195.565 111.093 195.471 111.184 195.408 111.295C195.345 111.407 195.314 111.534 195.32 111.662C195.504 115.767 195.958 119.856 196.68 123.902C188.143 123.568 179.595 124.145 171.18 125.622C181.86 118.962 193.88 108.842 197.38 103.442ZM83.38 238.982C81.64 238.762 80.94 238.202 80.9 238.062C80.86 237.922 81.22 237.322 84.26 236.862C88.7818 236.214 93.1748 234.865 97.28 232.862C97.3874 232.819 97.4813 232.748 97.5517 232.657C97.6221 232.565 97.6665 232.456 97.68 232.342C98.0709 229.846 98.9694 227.457 100.32 225.322C101.024 225.377 101.708 225.589 102.32 225.942C105.36 227.682 106.04 231.942 104.2 237.662C102.081 236.465 100.13 234.993 98.4 233.282C98.2725 233.155 98.0999 233.083 97.92 233.083C97.7401 233.083 97.5675 233.155 97.44 233.282C97.3741 233.345 97.3216 233.421 97.2858 233.505C97.25 233.59 97.2315 233.68 97.2315 233.772C97.2315 233.863 97.25 233.954 97.2858 234.038C97.3216 234.122 97.3741 234.198 97.44 234.262L97.58 234.422C95.12 236.142 93.12 237.482 91.4 238.522C88.7379 238.966 86.0354 239.12 83.34 238.982H83.38ZM85.18 245.542C83.18 245.942 82.6 245.662 82.52 245.542C82.44 245.422 83.4 243.942 86.52 242.602C90.7672 240.624 94.7902 238.197 98.52 235.362C99.02 235.802 99.56 236.242 100.1 236.662C98.6 238.662 97.32 240.282 96.1 241.662C92.6131 243.384 88.934 244.687 85.14 245.542H85.18ZM91.18 252.842C89.18 254.042 88.06 253.922 87.94 253.742C87.82 253.562 87.94 252.042 91.18 248.982C94.93 245.504 98.3205 241.658 101.3 237.502C102.08 238.042 102.9 238.542 103.72 239.002C103.06 241.002 102.34 242.822 101.56 244.722C98.4368 247.842 94.9443 250.568 91.16 252.842H91.18ZM115.18 233.382C114.44 236.062 106.02 249.982 100.88 256.082C99 258.302 97.52 258.762 97.3 258.622C97.08 258.482 96.7 257.782 98.92 253.602C101.326 248.849 103.404 243.938 105.14 238.902C108.7 228.902 104.34 225.582 102.9 224.762C101.524 224.015 99.9318 223.77 98.3954 224.069C96.859 224.368 95.4747 225.193 94.48 226.402C89.8 232.042 87.06 233.322 86.6 233.162C86.6 233.162 86.3 232.662 87.16 230.582C88.5 227.382 89.3 225.282 90.54 222.042C91.5 219.542 98.34 216.042 98.9 214.042C99.2665 212.341 99.4077 210.599 99.32 208.862C104.585 208.594 109.864 208.909 115.06 209.802C115.28 212.982 116 230.382 115.24 233.382H115.18ZM133.8 292.902C133.976 292.855 134.128 292.74 134.221 292.583C134.314 292.426 134.343 292.239 134.3 292.062C134.281 291.974 134.245 291.89 134.193 291.817C134.141 291.744 134.075 291.682 133.998 291.635C133.921 291.588 133.836 291.557 133.746 291.545C133.657 291.532 133.567 291.538 133.48 291.562L126.98 293.022C124.98 260.042 122.26 230.422 130.58 208.402C132.5 203.341 135.419 198.719 139.165 194.812C142.91 190.905 147.405 187.793 152.38 185.662C161.612 181.709 171.633 179.943 181.66 180.502C168.14 198.222 158.34 235.502 149.04 304.502C125.8 311.782 91.44 319.742 78.42 322.502C77.32 317.422 75.14 309.582 71.46 306.982C75.84 305.882 130.46 293.702 133.86 292.902H133.8ZM68.46 353.682C67.36 360.962 65.46 370.322 61.3 374.602C65.1 363.742 62.7 324.262 57.3 318.202C60.96 317.322 65.3 316.202 74.56 314.042C76.9595 320.726 78.3547 327.728 78.7 334.822C70.9 337.282 69.66 345.462 68.46 353.682ZM256.18 343.022C262.86 347.762 271.22 352.862 273.14 358.122C264.8 351.222 227.4 339.842 219.68 342.362C220.92 333.162 220.84 332.782 222.16 323.942C229.001 323.716 235.845 324.273 242.56 325.602C242.64 331.342 244.9 334.982 256.18 343.022ZM234.18 232.162C248.96 244.462 250.82 248.842 250.8 271.182V327.482C248.64 325.482 243.48 323.722 232.38 322.822C222.7 322.042 216.38 322.642 213.84 324.602C214.1 307.202 214.16 267.242 213.84 261.862C213.834 261.727 213.787 261.597 213.704 261.489C213.622 261.382 213.509 261.302 213.38 261.262C205.06 258.382 194.46 254.822 186 252.122C185.78 242.662 185.36 221.062 186 211.782C187.16 207.642 188.3 203.782 189.46 199.922C204.958 209.843 219.9 220.606 234.22 232.162H234.18ZM162.18 303.402C158.64 318.182 155.04 325.702 137.22 330.842C120.48 335.702 88.86 342.222 78.62 344.562C81.34 339.682 79.8 329.202 78.72 323.722C91.84 320.982 126.58 312.922 149.88 305.582C150.004 305.542 150.115 305.469 150.2 305.37C150.285 305.271 150.34 305.15 150.36 305.022C159.78 235.022 169.66 197.822 183.36 180.602C186.933 180.805 190.488 181.253 194 181.942C182.78 213.022 176.58 243.082 162.16 303.402H162.18ZM270 159.962C263.01 170.219 255.431 180.063 247.3 189.442C238.38 199.902 230.44 201.322 220.62 191.682C214.3 185.462 198 162.682 194.82 157.462C194.734 157.333 194.608 157.237 194.462 157.187C194.315 157.138 194.157 157.139 194.011 157.189C193.864 157.239 193.739 157.336 193.654 157.465C193.569 157.594 193.529 157.748 193.54 157.902C194.465 165.104 194.899 172.361 194.84 179.622C194.7 179.962 194.58 180.302 194.46 180.642C180.24 177.842 164.66 178.642 151.96 184.342C151.46 173.742 149.26 157.662 146.12 148.022C146.093 147.936 146.049 147.857 145.991 147.788C145.933 147.72 145.862 147.663 145.782 147.622C145.702 147.581 145.614 147.557 145.525 147.55C145.435 147.543 145.345 147.554 145.26 147.582C145.086 147.641 144.942 147.767 144.859 147.931C144.777 148.096 144.763 148.287 144.82 148.462C145.716 151.321 146.463 154.225 147.06 157.162C142.211 162.636 137.042 167.818 131.58 172.682C128.6 173.682 125.84 174.682 123.7 175.482C123.581 175.529 123.476 175.608 123.399 175.71C123.321 175.812 123.273 175.934 123.26 176.062C122.74 180.982 121.98 200.682 121.8 210.962C120.051 209.798 118.073 209.021 116 208.682H115.9C110.36 207.502 95.42 206.542 90.68 209.522C90.8635 199.542 91.598 189.58 92.88 179.682C94.66 164.702 95.86 159.962 111.4 150.262C136.86 134.262 166.32 125.242 192.24 125.242C209.02 125.242 212.72 129.242 235.84 163.242C235.888 163.317 235.952 163.382 236.026 163.432C236.1 163.482 236.183 163.517 236.271 163.533C236.359 163.55 236.45 163.549 236.537 163.53C236.625 163.511 236.707 163.474 236.78 163.422C236.932 163.32 237.039 163.162 237.076 162.983C237.114 162.803 237.079 162.616 236.98 162.462C235.72 160.622 234.52 158.862 233.36 157.202C236.74 152.822 245.92 142.722 249.04 139.202C253.58 138.122 259.48 140.702 263.04 143.682C265.436 145.625 267.322 148.124 268.535 150.96C269.747 153.797 270.25 156.887 270 159.962ZM270 151.002C268.512 147.329 266.049 144.132 262.876 141.756C259.704 139.381 255.943 137.916 252 137.522C252.3 130.722 251.28 127.142 251.28 123.642C251.28 122.222 253.62 118.622 256 112.762C256.46 111.642 257.04 111.222 257.32 111.322C258.04 111.522 259.04 113.802 258.22 118.362C256.66 127.202 262.22 131.582 267.04 129.842L277.76 141.502C274.94 145.082 271.64 148.682 270.1 151.002H270ZM259.34 119.542C259.34 119.222 259.34 118.922 259.48 118.602C260.28 114.102 259.48 110.602 257.6 109.982C257.18 109.862 255.6 109.662 254.62 112.242C254.42 112.762 254.2 113.262 254 113.742L252 111.382L250 105.002L256.2 107.582L285.8 139.922C284.026 140.673 282.574 142.025 281.7 143.742L259.34 119.542ZM282.64 144.862C282.967 143.962 283.498 143.15 284.192 142.49C284.887 141.831 285.724 141.342 286.64 141.062L287.68 142.182C285.899 142.919 284.439 144.266 283.56 145.982L282.64 144.862ZM292 150.682C291.73 150.94 291.411 151.142 291.061 151.274C290.712 151.406 290.339 151.467 289.966 151.452C289.593 151.437 289.226 151.347 288.888 151.187C288.55 151.027 288.248 150.801 288 150.522L284.84 147.082C285.184 146.172 285.736 145.354 286.451 144.695C287.166 144.035 288.025 143.551 288.96 143.282L292 146.682C292.271 146.939 292.487 147.25 292.634 147.593C292.782 147.937 292.858 148.308 292.858 148.682C292.858 149.056 292.782 149.426 292.634 149.77C292.487 150.114 292.271 150.424 292 150.682Z" fill="#1890ff"/>
<path d="M336.86 218.082C326.211 218.078 315.799 221.232 306.943 227.146C298.086 233.059 291.182 241.467 287.104 251.304C283.026 261.142 281.957 271.968 284.032 282.413C286.107 292.858 291.233 302.454 298.762 309.985C306.291 317.517 315.884 322.647 326.329 324.726C336.773 326.805 347.6 325.74 357.439 321.665C367.278 317.591 375.688 310.69 381.605 301.836C387.522 292.981 390.68 282.571 390.68 271.922C390.638 257.659 384.955 243.992 374.871 233.905C364.788 223.817 351.123 218.129 336.86 218.082ZM336.86 324.382C327.781 324.378 318.859 322.019 310.964 317.535C303.07 313.052 296.474 306.597 291.82 298.802C319.18 281.442 338.94 253.702 347.54 220.562C360.25 223.206 371.529 230.47 379.194 240.949C386.859 251.427 390.367 264.375 389.038 277.29C387.71 290.204 381.639 302.168 372.002 310.866C362.364 319.564 349.843 324.38 336.86 324.382Z" fill="#1890ff"/>
</svg>
