<svg width="400" height="400" viewBox="0 0 400 400" fill="none" xmlns="http://www.w3.org/2000/svg">
<path d="M93.622 298.692C84.294 300.002 74.822 303.67 68.296 311.79C62.03 319.604 51.296 327.912 46.08 324.578L45.668 324.142C53.81 332.266 89.366 272.126 76.186 272.126L91.73 271.08C95.482 277.582 96.388 291.364 93.622 298.692Z" fill="#B2BEC3"/>
<path d="M321.2 389.6C301.924 389.586 288.414 389.4 272.9 389.358C272.327 389.358 271.761 389.239 271.236 389.01C270.711 388.78 270.24 388.445 269.851 388.024C269.462 387.603 269.165 387.107 268.977 386.566C268.789 386.025 268.715 385.451 268.76 384.88C269.162 380.113 270.166 375.415 271.748 370.9L269.696 367.5C277.54 367.7 285.309 365.918 292.282 362.32L296.62 370.892C305.58 373.492 315.592 380.544 322.42 386.292C322.719 386.539 322.933 386.872 323.034 387.246C323.135 387.619 323.117 388.015 322.983 388.379C322.849 388.742 322.605 389.055 322.286 389.273C321.967 389.492 321.587 389.606 321.2 389.6V389.6Z" fill="#B2BEC3"/>
<path d="M253.554 174.948V210.066C253.551 212.496 252.585 214.825 250.867 216.543C249.149 218.261 246.82 219.227 244.39 219.23C244.29 219.23 244.195 219.27 244.124 219.34C244.054 219.411 244.014 219.506 244.014 219.606C244.014 219.706 244.054 219.801 244.124 219.872C244.195 219.942 244.29 219.982 244.39 219.982C247.019 219.979 249.54 218.934 251.399 217.075C253.258 215.216 254.303 212.695 254.306 210.066V174.948C254.306 174.848 254.266 174.753 254.196 174.682C254.125 174.612 254.03 174.572 253.93 174.572C253.83 174.572 253.735 174.612 253.664 174.682C253.594 174.753 253.554 174.848 253.554 174.948Z" fill="white"/>
<path d="M177.468 215.926C176.1 214.28 175.351 212.207 175.35 210.066V184.446C175.35 184.346 175.31 184.251 175.24 184.18C175.169 184.11 175.074 184.07 174.974 184.07C174.874 184.07 174.779 184.11 174.708 184.18C174.638 184.251 174.598 184.346 174.598 184.446V210.066C174.599 212.383 175.41 214.626 176.89 216.408C176.954 216.485 177.046 216.533 177.145 216.542C177.244 216.551 177.343 216.52 177.42 216.456C177.497 216.392 177.545 216.3 177.554 216.201C177.563 216.102 177.532 216.003 177.468 215.926Z" fill="white"/>
<path d="M155.904 253.03V202.87C155.904 202.77 155.944 202.675 156.014 202.604C156.085 202.534 156.18 202.494 156.28 202.494C156.38 202.494 156.475 202.534 156.546 202.604C156.616 202.675 156.656 202.77 156.656 202.87V253.03C156.656 253.13 156.616 253.225 156.546 253.296C156.475 253.367 156.38 253.406 156.28 253.406C156.18 253.406 156.085 253.367 156.014 253.296C155.944 253.225 155.904 253.13 155.904 253.03Z" fill="white"/>
<path d="M112.48 155.924L110.656 152.768C110.619 152.716 110.57 152.674 110.513 152.644C110.457 152.615 110.394 152.6 110.33 152.6C110.266 152.6 110.203 152.615 110.147 152.644C110.09 152.674 110.041 152.716 110.004 152.768L108.9 154.684C108.875 154.728 108.86 154.777 108.854 154.827C108.849 154.878 108.853 154.929 108.868 154.977C108.883 155.026 108.907 155.071 108.94 155.11C108.972 155.149 109.012 155.181 109.058 155.204C109.103 155.226 109.152 155.24 109.203 155.243C109.254 155.247 109.304 155.24 109.352 155.223C109.4 155.206 109.444 155.18 109.481 155.146C109.519 155.112 109.549 155.07 109.57 155.024C110.266 155.332 110.936 155.624 111.586 155.884L111.826 156.3C111.879 156.38 111.961 156.437 112.054 156.459C112.148 156.481 112.246 156.466 112.329 156.418C112.412 156.371 112.474 156.293 112.502 156.201C112.53 156.109 112.522 156.01 112.48 155.924Z" fill="white"/>
<path d="M141.4 156.68C141.26 155.666 140.795 154.724 140.076 153.995C139.357 153.267 138.421 152.79 137.409 152.637C136.396 152.484 135.362 152.662 134.459 153.145C133.556 153.628 132.834 154.391 132.4 155.318C132.375 155.37 132.363 155.428 132.365 155.486C132.366 155.544 132.381 155.601 132.408 155.652C132.435 155.703 132.473 155.748 132.52 155.782C132.567 155.816 132.621 155.838 132.678 155.848C138.15 156.784 141.226 157.106 141.024 157.106C141.078 157.106 141.131 157.095 141.18 157.073C141.23 157.051 141.274 157.019 141.309 156.979C141.345 156.938 141.371 156.891 141.387 156.839C141.403 156.788 141.407 156.733 141.4 156.68Z" fill="white"/>
<path d="M138.558 183.748C138.518 183.68 138.459 183.626 138.387 183.594C138.315 183.562 138.235 183.553 138.158 183.569C138.081 183.584 138.011 183.624 137.957 183.682C137.904 183.739 137.87 183.812 137.86 183.89C133.36 183.32 128.34 182.468 123.776 181.462C123.007 179.044 122.496 176.55 122.252 174.024C118.681 173.159 115.016 172.74 111.342 172.778C103.182 173.014 105.974 170.88 108.768 169.944C111.882 168.904 119.426 167.312 116.598 165.194C111.156 162.612 113.24 162.974 106.17 160.892C106.196 160.804 106.188 160.71 106.149 160.627C106.11 160.544 106.041 160.478 105.957 160.442C105.873 160.406 105.778 160.402 105.691 160.43C105.604 160.459 105.53 160.519 105.484 160.598L89.44 188.4C89.4071 188.457 89.3899 188.522 89.3899 188.588C89.39 188.655 89.4074 188.719 89.4404 188.777C89.4734 188.834 89.5208 188.882 89.5779 188.915C89.6351 188.948 89.6999 188.966 89.766 188.966C143.14 188.966 140.986 189.084 141.22 188.806C141.4 188.51 141.4 188.684 138.558 183.748Z" fill="white"/>
<path d="M343.358 110.98C342.621 113.835 341.337 116.521 339.578 118.888C341.294 120.976 340.352 124.776 338.648 126.53C338.718 126.472 338.784 126.4 338.848 126.348C340.978 127.176 339.946 130.852 337.75 133.06C339.45 131.66 340.814 135.33 338.414 137.66C337.838 138.084 326.786 145.938 326.786 145.938C326.231 142.328 324.901 138.881 322.886 135.834C320.872 132.788 318.221 130.214 315.116 128.29C318.716 125.604 324.172 120.076 325.398 117.46C326.84 114.384 328.772 111.166 329.614 110.988H330.142C331.46 111.814 329.666 119.188 329.308 120.664C332.113 118.747 334.646 116.46 336.838 113.864C338.222 112.264 341.75 106.496 343.038 107.25C343.67 107.612 343.8 109.022 343.358 110.98Z" fill="#B2BEC3"/>
<path d="M124.91 159.734C113.42 157.77 102.976 151.636 100.258 150.43C98.328 149.574 97.23 149.43 96.91 149.83C96.362 150.51 98.068 152.78 101.756 155.858C99.0137 155.549 96.2432 155.593 93.512 155.988C92.758 156.164 92.006 157.23 96.662 158.312C101.857 159.543 106.985 161.041 112.026 162.8C113.15 163.46 114.352 164.122 116.598 165.186C119.426 167.302 111.882 168.896 108.768 169.936C105.968 170.872 103.182 173.006 111.342 172.77C115.016 172.737 118.68 173.155 122.252 174.016C121.726 169.098 122.65 164.134 124.91 159.734V159.734Z" fill="#B2BEC3"/>
<path d="M257.2 74.326H171.7C169.659 74.2653 167.626 74.6125 165.721 75.3473C163.816 76.0822 162.077 77.1898 160.606 78.6055C159.134 80.0211 157.96 81.7162 157.152 83.5914C156.344 85.4666 155.918 87.4842 155.9 89.526V138.666C155.9 138.766 155.94 138.861 156.01 138.932C156.081 139.002 156.176 139.042 156.276 139.042C156.376 139.042 156.471 139.002 156.542 138.932C156.612 138.861 156.652 138.766 156.652 138.666V89.534C156.67 87.5909 157.076 85.6711 157.846 83.8869C158.616 82.1027 159.734 80.4902 161.135 79.1438C162.537 77.7974 164.192 76.7443 166.006 76.0462C167.819 75.348 169.754 75.0189 171.696 75.078H257.2C260.813 74.963 264.34 76.1923 267.099 78.528C269.857 80.8637 271.652 84.1397 272.134 87.722C272.149 87.8186 272.201 87.9056 272.279 87.9646C272.357 88.0235 272.455 88.0498 272.552 88.0379C272.649 88.0259 272.737 87.9766 272.798 87.9005C272.86 87.8244 272.889 87.7274 272.88 87.63C272.376 83.8651 270.494 80.4208 267.598 77.9633C264.702 75.5058 260.997 74.2098 257.2 74.326Z" fill="white"/>
<path d="M282.136 87.2001C282.1 81.367 279.761 75.7844 275.627 71.6686C271.494 67.5527 265.901 65.237 260.068 65.2261H168.496C162.646 65.2324 157.037 67.5589 152.9 71.6952C148.763 75.8316 146.435 81.4399 146.428 87.2901V138.334C146.428 138.434 146.468 138.529 146.538 138.6C146.609 138.67 146.704 138.71 146.804 138.71C146.904 138.71 146.999 138.67 147.07 138.6C147.14 138.529 147.18 138.434 147.18 138.334V87.2901C147.187 81.639 149.435 76.2214 153.431 72.2257C157.427 68.23 162.845 65.9824 168.496 65.9761H260.068C265.702 65.987 271.104 68.2237 275.096 72.199C279.089 76.1743 281.349 81.5661 281.384 87.2001C281.384 87.2998 281.424 87.3954 281.494 87.466C281.565 87.5365 281.66 87.5761 281.76 87.5761C281.86 87.5761 281.955 87.5365 282.026 87.466C282.096 87.3954 282.136 87.2998 282.136 87.2001Z" fill="white"/>
<path d="M146.428 263.442V203.2C146.428 203.1 146.468 203.005 146.538 202.934C146.609 202.864 146.704 202.824 146.804 202.824C146.904 202.824 146.999 202.864 147.07 202.934C147.14 203.005 147.18 203.1 147.18 203.2V263.44C147.18 263.54 147.141 263.636 147.071 263.706C147 263.777 146.905 263.817 146.805 263.817C146.705 263.817 146.61 263.778 146.539 263.708C146.468 263.637 146.428 263.542 146.428 263.442Z" fill="white"/>
<path d="M171.7 310.23H238.146C238.246 310.23 238.341 310.191 238.412 310.12C238.482 310.049 238.522 309.954 238.522 309.854C238.522 309.754 238.482 309.659 238.412 309.588C238.341 309.518 238.246 309.478 238.146 309.478H171.7C168.714 309.485 165.793 308.6 163.313 306.936C160.833 305.273 158.906 302.907 157.778 300.142C157.736 300.056 157.662 299.989 157.573 299.955C157.483 299.921 157.384 299.922 157.295 299.959C157.206 299.995 157.135 300.064 157.095 300.151C157.055 300.238 157.05 300.337 157.08 300.428C158.264 303.332 160.288 305.816 162.893 307.562C165.497 309.309 168.564 310.238 171.7 310.23Z" fill="white"/>
<path d="M242.336 318.28H168.496C163.6 318.268 158.856 316.576 155.057 313.487C151.258 310.398 148.635 306.099 147.624 301.308C147.601 301.213 147.542 301.131 147.46 301.079C147.377 301.027 147.278 301.009 147.183 301.029C147.087 301.048 147.003 301.104 146.948 301.185C146.893 301.265 146.872 301.364 146.888 301.46C147.934 306.419 150.648 310.869 154.58 314.067C158.511 317.266 163.42 319.019 168.488 319.034H242.328C242.423 319.028 242.513 318.986 242.579 318.917C242.645 318.848 242.682 318.756 242.683 318.661C242.684 318.565 242.649 318.473 242.584 318.402C242.52 318.332 242.431 318.288 242.336 318.28Z" fill="white"/>
<path d="M272.246 177.508C272.246 302.876 272.316 294.974 272.104 296.508C272.091 296.607 272.117 296.707 272.178 296.786C272.238 296.866 272.327 296.918 272.426 296.932C273.288 297.054 272.998 302.052 272.998 177.498C272.997 177.398 272.956 177.303 272.884 177.234C272.813 177.164 272.717 177.126 272.617 177.127C272.517 177.128 272.422 177.169 272.353 177.241C272.283 177.312 272.245 177.408 272.246 177.508Z" fill="white"/>
<path d="M282.136 296.962V177.914C282.136 177.814 282.096 177.719 282.026 177.648C281.955 177.578 281.86 177.538 281.76 177.538C281.66 177.538 281.565 177.578 281.494 177.648C281.424 177.719 281.384 177.814 281.384 177.914V296.966C281.397 301.595 279.891 306.1 277.096 309.79C277.036 309.87 277.01 309.97 277.023 310.069C277.037 310.168 277.089 310.257 277.169 310.317C277.249 310.377 277.349 310.403 277.448 310.39C277.546 310.376 277.636 310.324 277.696 310.244C280.591 306.423 282.151 301.756 282.136 296.962Z" fill="white"/>
<path d="M350.13 100.092C350.13 99.9923 350.09 99.8967 350.02 99.8262C349.949 99.7557 349.854 99.7161 349.754 99.7161H278C277.9 99.7161 277.805 99.7557 277.734 99.8262C277.664 99.8967 277.624 99.9923 277.624 100.092V110.98C277.624 111.08 277.664 111.175 277.734 111.246C277.805 111.316 277.9 111.356 278 111.356H338.982C339.061 111.356 339.138 111.331 339.202 111.285C339.266 111.238 339.314 111.173 339.339 111.098C339.364 111.023 339.364 110.942 339.34 110.867C339.317 110.791 339.27 110.725 339.206 110.678C340.654 108.724 342.25 106.788 343.032 107.246C343.632 107.588 343.784 108.846 343.432 110.602H343.352C343.257 110.609 343.168 110.652 343.103 110.722C343.038 110.792 343.001 110.884 343.001 110.979C343.001 111.075 343.038 111.167 343.103 111.236C343.168 111.306 343.257 111.349 343.352 111.356H349.752C349.852 111.356 349.947 111.316 350.018 111.246C350.088 111.175 350.128 111.08 350.128 110.98L350.13 100.092Z" fill="white"/>
<path d="M334 117.246H330.142C330.042 117.246 329.947 117.207 329.876 117.136C329.806 117.065 329.766 116.97 329.766 116.87C329.766 116.77 329.806 116.675 329.876 116.604C329.947 116.534 330.042 116.494 330.142 116.494H334C334.1 116.494 334.195 116.534 334.266 116.604C334.336 116.675 334.376 116.77 334.376 116.87C334.376 116.97 334.336 117.065 334.266 117.136C334.195 117.207 334.1 117.246 334 117.246Z" fill="white"/>
<path d="M277.626 148.446V116.87C277.626 116.77 277.666 116.675 277.736 116.604C277.807 116.534 277.902 116.494 278.002 116.494H325.674C325.774 116.494 325.869 116.534 325.94 116.604C326.01 116.675 326.05 116.77 326.05 116.87C326.05 116.97 326.01 117.065 325.94 117.136C325.869 117.207 325.774 117.246 325.674 117.246H278.378V148.446C278.378 148.546 278.338 148.641 278.268 148.712C278.197 148.783 278.102 148.822 278.002 148.822C277.902 148.822 277.807 148.783 277.736 148.712C277.666 148.641 277.626 148.546 277.626 148.446Z" fill="white"/>
<path d="M350.13 116.87C350.13 116.77 350.09 116.675 350.02 116.604C349.949 116.534 349.854 116.494 349.754 116.494H340.918C340.818 116.494 340.723 116.534 340.652 116.604C340.582 116.675 340.542 116.77 340.542 116.87C340.542 116.97 340.582 117.065 340.652 117.136C340.723 117.207 340.818 117.246 340.918 117.246H349.378V150.15H326.816C326.721 150.157 326.632 150.2 326.567 150.27C326.502 150.34 326.465 150.432 326.465 150.527C326.465 150.623 326.502 150.715 326.567 150.785C326.632 150.854 326.721 150.897 326.816 150.904H349.754C349.854 150.904 349.95 150.864 350.02 150.793C350.09 150.722 350.13 150.626 350.13 150.526V116.87Z" fill="white"/>
<path d="M363.152 97.884C363.147 94.9513 361.979 92.1403 359.905 90.0671C357.83 87.9939 355.019 86.8277 352.086 86.824H275.674C272.74 86.8266 269.927 87.993 267.852 90.0672C265.777 92.1414 264.61 94.9541 264.606 97.888V147.564C264.606 147.664 264.646 147.759 264.716 147.83C264.787 147.9 264.882 147.94 264.982 147.94C265.082 147.94 265.177 147.9 265.248 147.83C265.318 147.759 265.358 147.664 265.358 147.564V97.888C265.361 95.1533 266.449 92.5317 268.383 90.5984C270.317 88.6651 272.939 87.5781 275.674 87.576H352.084C354.818 87.5786 357.44 88.6658 359.374 90.599C361.308 92.5322 362.396 95.1535 362.4 97.888V152.732C362.397 155.467 361.309 158.09 359.374 160.024C357.44 161.959 354.818 163.047 352.082 163.05H318.102C318.013 162.144 317.636 161.29 317.026 160.614C316.416 159.938 315.606 159.476 314.714 159.294C314.39 159.228 314.544 159.4 309.9 162.308C309.858 162.334 309.822 162.368 309.793 162.408C309.765 162.448 309.745 162.494 309.734 162.542C309.697 162.709 309.671 162.879 309.656 163.05H308.824C308.724 163.05 308.629 163.09 308.558 163.16C308.488 163.231 308.448 163.326 308.448 163.426C308.448 163.526 308.488 163.621 308.558 163.692C308.629 163.762 308.724 163.802 308.824 163.802H309.652C309.736 164.797 310.169 165.729 310.873 166.437C311.577 167.144 312.508 167.581 313.502 167.67V207.07C313.495 213.792 310.821 220.236 306.069 224.989C301.316 229.742 294.872 232.416 288.15 232.424H249.4C249.305 232.431 249.216 232.474 249.151 232.544C249.086 232.614 249.049 232.705 249.049 232.801C249.049 232.896 249.086 232.988 249.151 233.058C249.216 233.128 249.305 233.171 249.4 233.178H288.146C295.067 233.17 301.702 230.416 306.596 225.522C311.489 220.628 314.242 213.993 314.25 207.072V167.672C315.244 167.583 316.175 167.146 316.879 166.439C317.583 165.731 318.016 164.799 318.1 163.804H352.078C355.013 163.801 357.827 162.633 359.902 160.558C361.978 158.483 363.145 155.669 363.148 152.734L363.152 97.884Z" fill="white"/>
<path d="M126.162 325.356H115.8V315C115.8 314.9 115.76 314.805 115.69 314.734C115.619 314.664 115.524 314.624 115.424 314.624C115.324 314.624 115.229 314.664 115.158 314.734C115.088 314.805 115.048 314.9 115.048 315V325.362H104.686C104.586 325.362 104.491 325.402 104.42 325.472C104.35 325.543 104.31 325.638 104.31 325.738C104.31 325.838 104.35 325.933 104.42 326.004C104.491 326.074 104.586 326.114 104.686 326.114H115.048V336.478C115.048 336.578 115.088 336.673 115.158 336.744C115.229 336.814 115.324 336.854 115.424 336.854C115.524 336.854 115.619 336.814 115.69 336.744C115.76 336.673 115.8 336.578 115.8 336.478V326.114H126.162C126.212 326.114 126.261 326.104 126.307 326.085C126.353 326.066 126.395 326.038 126.43 326.003C126.465 325.968 126.493 325.926 126.512 325.88C126.531 325.834 126.541 325.785 126.541 325.735C126.541 325.685 126.531 325.636 126.512 325.59C126.493 325.544 126.465 325.502 126.43 325.467C126.395 325.432 126.353 325.404 126.307 325.385C126.261 325.366 126.212 325.356 126.162 325.356Z" fill="white"/>
<path d="M233.982 175.4L231.566 189.852C220.835 187.076 209.575 187.076 198.844 189.852L197.15 175.354C205.508 171.952 225.692 171.942 233.982 175.4Z" fill="#B2BEC3"/>
<path d="M227.462 134.49C226.468 133.959 225.592 133.234 224.885 132.357C224.177 131.48 223.654 130.47 223.346 129.386C221.968 124.846 223.41 128.93 220.252 122.082C224.39 123.036 230.064 124.282 229.802 120.012C229.564 116.128 226.424 110.538 221.73 102.556C220.516 102.495 219.303 102.687 218.168 103.12C219.29 105.888 219.654 109.72 217.796 107.876C214.564 104.676 211.512 109.876 217.686 113.676C217.38 116.804 216.886 119.744 216.344 122.688C216.052 124.964 215.595 127.216 214.976 129.426C214.238 130.955 213.161 132.295 211.827 133.346C210.494 134.397 208.939 135.131 207.28 135.492C204.327 136.351 201.509 137.62 198.908 139.26C214.616 147.08 238.426 139.538 238.426 139.538C234.639 138.159 230.972 136.471 227.462 134.49V134.49Z" fill="#B2BEC3"/>
<path d="M156.33 27.9241C156.119 27.9245 155.914 27.8611 155.74 27.7422C155.566 27.6233 155.432 27.4545 155.356 27.2581C154.956 26.1961 154.41 25.5141 155.064 24.8581C155.957 23.9651 156.459 22.7539 156.459 21.4911C156.459 20.2282 155.957 19.0171 155.064 18.1241L152.948 16.0121C152.055 15.1204 150.845 14.6196 149.583 14.6196C148.321 14.6196 147.111 15.1204 146.218 16.0121C146.068 16.1618 145.877 16.2631 145.669 16.3031C145.462 16.343 145.246 16.3197 145.052 16.2361C144.052 15.7801 143.152 15.6841 143.152 14.7461C143.149 13.4843 142.646 12.2751 141.754 11.3831C140.861 10.491 139.652 9.98872 138.39 9.98608H135.4C134.14 9.99028 132.932 10.4919 132.04 11.3818C131.148 12.2718 130.643 13.478 130.636 14.7381C130.636 14.9498 130.572 15.1566 130.454 15.3322C130.336 15.5078 130.168 15.6442 129.972 15.7241C128.926 16.1241 128.234 16.6741 127.572 16.0161C127.13 15.5737 126.605 15.2228 126.027 14.9834C125.45 14.744 124.83 14.6207 124.205 14.6207C123.58 14.6207 122.96 14.744 122.383 14.9834C121.805 15.2228 121.28 15.5737 120.838 16.0161L118.728 18.1261C118.286 18.5681 117.935 19.093 117.695 19.6707C117.456 20.2485 117.333 20.8677 117.333 21.4931C117.333 22.1185 117.456 22.7377 117.695 23.3154C117.935 23.8931 118.286 24.418 118.728 24.8601C118.877 25.0095 118.978 25.2004 119.018 25.4079C119.058 25.6155 119.034 25.8302 118.95 26.0241C118.49 27.0141 118.402 27.9241 117.462 27.9241C116.2 27.9257 114.989 28.4279 114.097 29.3206C113.204 30.2133 112.702 31.4236 112.7 32.6861V35.6861C112.702 36.9486 113.204 38.1589 114.097 39.0516C114.989 39.9443 116.2 40.4465 117.462 40.4481C117.672 40.4472 117.878 40.5102 118.052 40.6288C118.226 40.7473 118.36 40.9158 118.436 41.1121C118.51 41.3121 118.594 41.5001 118.678 41.6901C119.212 42.9081 119.078 43.0721 118.716 43.5261C117.828 44.4195 117.331 45.6286 117.334 46.888C117.337 48.1474 117.839 49.3543 118.73 50.2441L120.846 52.3601C121.288 52.8021 121.813 53.1528 122.39 53.392C122.968 53.6313 123.587 53.7544 124.212 53.7544C124.837 53.7544 125.456 53.6313 126.034 53.392C126.611 53.1528 127.136 52.8021 127.578 52.3601C127.727 52.2102 127.917 52.109 128.125 52.0697C128.332 52.0304 128.547 52.055 128.74 52.1401C129.76 52.6041 130.64 52.6981 130.642 53.6301C130.647 54.8896 131.151 56.096 132.042 56.9858C132.933 57.8757 134.14 58.3769 135.4 58.3801H138.39C139.652 58.3764 140.862 57.8732 141.754 56.9805C142.646 56.0879 143.149 54.8783 143.152 53.6161C143.152 53.4058 143.215 53.2004 143.334 53.0266C143.452 52.8529 143.62 52.7189 143.816 52.6421C144.882 52.2421 145.558 51.6941 146.216 52.3501C146.658 52.7924 147.183 53.1434 147.761 53.3828C148.338 53.6222 148.958 53.7454 149.583 53.7454C150.208 53.7454 150.828 53.6222 151.405 53.3828C151.983 53.1434 152.508 52.7924 152.95 52.3501L155.064 50.2361C155.506 49.7939 155.857 49.2688 156.097 48.6909C156.336 48.113 156.46 47.4936 156.46 46.8681C156.46 46.2425 156.336 45.6231 156.097 45.0452C155.857 44.4674 155.506 43.9423 155.064 43.5001C154.915 43.351 154.814 43.1602 154.775 42.9528C154.736 42.7455 154.761 42.5312 154.846 42.3381C155.314 41.3101 155.404 40.4381 156.332 40.4381C157.595 40.437 158.805 39.935 159.698 39.0422C160.591 38.1493 161.093 36.9387 161.094 35.6761V32.6761C161.09 31.4148 160.587 30.2065 159.694 29.3158C158.801 28.4251 157.591 27.9246 156.33 27.9241ZM156.33 39.6861C154.856 39.6861 154.628 40.9961 154.158 42.0261C154.011 42.3581 153.968 42.7267 154.034 43.0837C154.101 43.4406 154.274 43.7691 154.53 44.0261C154.903 44.3978 155.2 44.8395 155.402 45.3261C155.604 45.8126 155.708 46.3342 155.708 46.8611C155.708 47.3879 155.604 47.9096 155.402 48.3961C155.2 48.8826 154.903 49.3244 154.53 49.6961L152.416 51.8121C152.044 52.1855 151.603 52.4818 151.116 52.684C150.63 52.8862 150.108 52.9902 149.581 52.9902C149.054 52.9902 148.532 52.8862 148.046 52.684C147.559 52.4818 147.118 52.1855 146.746 51.8121C145.7 50.7661 144.614 51.5341 143.546 51.9321C143.207 52.063 142.915 52.2936 142.709 52.5934C142.504 52.8933 142.394 53.2485 142.394 53.6121C142.39 54.6734 141.966 55.6899 141.214 56.4394C140.463 57.1889 139.445 57.6105 138.384 57.6121H135.4C134.339 57.611 133.321 57.1896 132.569 56.44C131.818 55.6903 131.394 54.6735 131.39 53.6121C131.39 52.1381 130.08 51.9101 129.05 51.4381C128.718 51.2912 128.349 51.2481 127.992 51.3145C127.635 51.3808 127.307 51.5536 127.05 51.8101C126.678 52.1838 126.236 52.4804 125.75 52.6827C125.263 52.8851 124.741 52.9893 124.214 52.9893C123.687 52.9893 123.165 52.8851 122.678 52.6827C122.192 52.4804 121.75 52.1838 121.378 51.8101L119.264 49.6961C118.891 49.3244 118.594 48.8826 118.392 48.3961C118.19 47.9096 118.086 47.3879 118.086 46.8611C118.086 46.3342 118.19 45.8126 118.392 45.3261C118.594 44.8395 118.891 44.3978 119.264 44.0261C120.306 42.9821 119.542 41.9001 119.144 40.8261C119.013 40.4868 118.783 40.1952 118.483 39.9896C118.183 39.7839 117.828 39.6739 117.464 39.6741C116.403 39.673 115.385 39.2516 114.633 38.502C113.882 37.7523 113.458 36.7355 113.454 35.6741V32.6741C113.456 31.6111 113.879 30.592 114.63 29.8403C115.382 29.0887 116.401 28.6657 117.464 28.6641C118.93 28.6641 119.164 27.3701 119.636 26.3241C119.783 25.9921 119.826 25.6234 119.76 25.2665C119.693 24.9096 119.52 24.581 119.264 24.3241C118.512 23.5721 118.09 22.5524 118.09 21.4891C118.09 20.4258 118.512 19.4061 119.264 18.6541L121.38 16.5381C121.752 16.1647 122.193 15.8684 122.68 15.6662C123.166 15.464 123.688 15.3599 124.215 15.3599C124.742 15.3599 125.264 15.464 125.75 15.6662C126.237 15.8684 126.678 16.1647 127.05 16.5381C128.07 17.5581 129.064 16.8621 130.25 16.4181C130.589 16.2876 130.881 16.0575 131.087 15.758C131.293 15.4585 131.404 15.1036 131.404 14.7401C131.408 13.6806 131.83 12.6656 132.578 11.9156C133.327 11.1655 134.341 10.7409 135.4 10.7341H138.39C139.453 10.7351 140.473 11.158 141.224 11.9098C141.976 12.6615 142.399 13.6809 142.4 14.7441C142.4 15.9901 143.356 16.3641 144.2 16.6941C144.591 16.9099 145.023 17.0395 145.468 17.0741C145.947 17.0736 146.407 16.883 146.746 16.5441C147.118 16.1707 147.559 15.8744 148.046 15.6722C148.532 15.47 149.054 15.3659 149.581 15.3659C150.108 15.3659 150.63 15.47 151.116 15.6722C151.603 15.8744 152.044 16.1707 152.416 16.5441L154.532 18.6601C154.905 19.0318 155.202 19.4735 155.404 19.9601C155.606 20.4466 155.71 20.9682 155.71 21.4951C155.71 22.0219 155.606 22.5436 155.404 23.0301C155.202 23.5166 154.905 23.9584 154.532 24.3301C153.49 25.3741 154.258 26.4681 154.652 27.5301C154.782 27.8694 155.013 28.1612 155.312 28.3672C155.612 28.5732 155.966 28.6837 156.33 28.6841C157.393 28.6851 158.413 29.1079 159.165 29.8596C159.917 30.6114 160.34 31.6307 160.342 32.6941V35.6941C160.336 36.7545 159.911 37.7695 159.159 38.5175C158.408 39.2655 157.39 39.6856 156.33 39.6861Z" fill="white"/>
<path d="M136.896 22.6421C134.614 22.6417 132.382 23.3182 130.484 24.586C128.586 25.8537 127.107 27.6559 126.233 29.7645C125.359 31.8732 125.13 34.1935 125.576 36.4322C126.021 38.6709 127.119 40.7273 128.733 42.3414C130.347 43.9555 132.403 45.0548 134.642 45.5002C136.881 45.9456 139.201 45.7172 141.31 44.8439C143.418 43.9705 145.221 42.4914 146.489 40.5936C147.757 38.6958 148.434 36.4646 148.434 34.1821C148.431 31.1228 147.214 28.1897 145.051 26.0263C142.888 23.8629 139.955 22.6458 136.896 22.6421ZM136.896 44.9681C134.762 44.9685 132.676 44.3361 130.902 43.1508C129.127 41.9656 127.744 40.2807 126.928 38.3094C126.111 36.3381 125.897 34.1688 126.313 32.0759C126.729 29.9831 127.757 28.0607 129.266 26.5518C130.775 25.043 132.697 24.0155 134.79 23.5993C136.883 23.1831 139.052 23.3969 141.023 24.2137C142.995 25.0304 144.679 26.4135 145.865 28.1878C147.05 29.9622 147.682 32.0483 147.682 34.1821C147.678 37.0416 146.541 39.7829 144.519 41.8049C142.497 43.8268 139.755 44.9644 136.896 44.9681Z" fill="white"/>
<path d="M169.82 232.418H141.15C134.49 232.41 128.099 229.785 123.357 225.108C118.615 220.431 115.902 214.078 115.802 207.418C116.792 207.328 117.718 206.893 118.421 206.19C119.123 205.487 119.557 204.56 119.646 203.57H153.632C156.564 203.566 159.376 202.4 161.45 200.328C163.524 198.255 164.692 195.444 164.698 192.512V185.218C164.698 185.118 164.658 185.023 164.588 184.952C164.517 184.882 164.422 184.842 164.322 184.842C164.222 184.842 164.127 184.882 164.056 184.952C163.986 185.023 163.946 185.118 163.946 185.218V192.514C163.942 195.248 162.854 197.87 160.92 199.803C158.986 201.736 156.364 202.823 153.63 202.826H119.646C119.554 201.77 119.069 200.786 118.288 200.07C117.506 199.353 116.484 198.956 115.424 198.956C114.364 198.956 113.342 199.353 112.56 200.07C111.779 200.786 111.294 201.77 111.202 202.826H77.214C74.4801 202.823 71.859 201.735 69.9258 199.802C67.9926 197.869 66.9052 195.248 66.902 192.514V149.022C66.9052 146.288 67.9929 143.666 69.9265 141.733C71.8602 139.8 74.4817 138.713 77.216 138.71H153.63C156.364 138.713 158.986 139.8 160.92 141.733C162.854 143.666 163.942 146.288 163.946 149.022V158.682C163.946 158.782 163.986 158.877 164.056 158.948C164.127 159.018 164.222 159.058 164.322 159.058C164.422 159.058 164.517 159.018 164.588 158.948C164.658 158.877 164.698 158.782 164.698 158.682V149.022C164.694 146.089 163.526 143.277 161.452 141.203C159.378 139.129 156.565 137.962 153.632 137.958H77.216C74.2824 137.961 71.4699 139.128 69.3954 141.202C67.3208 143.276 66.1537 146.088 66.15 149.022V192.514C66.1537 195.447 67.3203 198.259 69.394 200.333C71.4676 202.407 74.2791 203.574 77.212 203.578H111.2C111.289 204.569 111.723 205.496 112.427 206.2C113.13 206.903 114.057 207.337 115.048 207.426C115.15 214.284 117.944 220.826 122.827 225.643C127.709 230.459 134.29 233.163 141.148 233.172H169.82C169.915 233.165 170.004 233.122 170.069 233.052C170.134 232.982 170.171 232.891 170.171 232.795C170.171 232.7 170.134 232.608 170.069 232.538C170.004 232.468 169.915 232.425 169.82 232.418Z" fill="white"/>
<path d="M51.576 165.744L44.01 178.964L37.628 169.976C37.5677 169.902 37.4817 169.854 37.3872 169.841C37.2928 169.829 37.197 169.852 37.1193 169.907C37.0415 169.962 36.9876 170.045 36.9684 170.138C36.9493 170.232 36.9663 170.329 37.016 170.41L43.738 179.88C43.7752 179.931 43.8244 179.972 43.8813 179.999C43.9381 180.026 44.0008 180.038 44.0636 180.035C44.1265 180.032 44.1876 180.013 44.2414 179.98C44.2952 179.948 44.3401 179.902 44.372 179.848L52.23 166.118C52.2796 166.031 52.2927 165.929 52.2664 165.832C52.2402 165.736 52.1767 165.654 52.09 165.604C52.0033 165.555 51.9004 165.541 51.804 165.568C51.7076 165.594 51.6256 165.657 51.576 165.744Z" fill="white"/>
<path d="M314.41 65.6001L321.748 58.2821C321.813 58.2106 321.847 58.1171 321.845 58.0209C321.842 57.9246 321.803 57.8329 321.735 57.7647C321.667 57.6965 321.576 57.657 321.48 57.6543C321.383 57.6515 321.29 57.6858 321.218 57.7501L313.88 65.0661L306.562 57.7281C306.491 57.6573 306.396 57.6174 306.296 57.6172C306.196 57.617 306.1 57.6565 306.029 57.7271C305.958 57.7976 305.918 57.8934 305.918 57.9934C305.918 58.0933 305.957 58.1893 306.028 58.2601L313.346 65.5981L306 72.9161C305.929 72.9866 305.89 73.0823 305.89 73.1821C305.89 73.2818 305.929 73.3775 306 73.4481C306.071 73.5186 306.166 73.5583 306.266 73.5583C306.366 73.5583 306.461 73.5186 306.532 73.4481L313.87 66.1321L321.186 73.4701C321.257 73.5409 321.352 73.5808 321.452 73.581C321.552 73.5812 321.648 73.5416 321.719 73.4711C321.79 73.4005 321.83 73.3047 321.83 73.2048C321.83 73.1048 321.791 73.0089 321.72 72.9381L314.41 65.6001Z" fill="white"/>
<path d="M375.664 389.228H322.874C323.073 389.005 323.226 388.744 323.323 388.462C323.42 388.179 323.459 387.879 323.438 387.581C323.418 387.282 323.337 386.991 323.202 386.724C323.066 386.458 322.879 386.221 322.65 386.028C318.352 382.402 307.272 373.67 296.876 370.594L292.776 362.49C294.443 361.577 296.053 360.563 297.598 359.456C297.669 359.405 297.72 359.332 297.743 359.248C297.766 359.165 297.759 359.075 297.724 358.996C270.534 298.238 260.366 252.972 231.954 189.796L233.354 181.426C235.982 180.484 237.324 179.37 237.342 178.114L237.81 171.326C251.938 175.695 266.6 178.097 281.384 178.464C281.446 178.463 281.507 178.45 281.564 178.426C297.992 170.53 313.386 162.332 327.386 150.538C327.428 150.503 327.462 150.46 327.485 150.41C327.508 150.361 327.52 150.307 327.52 150.252C327.525 148.862 327.416 147.474 327.194 146.102C328.706 145.026 338.102 138.348 338.676 137.922C339.292 137.365 339.729 136.639 339.933 135.834C340.138 135.03 340.1 134.183 339.824 133.4C339.732 133.174 339.593 132.97 339.417 132.801C339.24 132.633 339.03 132.503 338.8 132.422C340.2 130.572 341.244 127.422 339.4 126.222C340.2 125.194 340.687 123.957 340.802 122.66C340.917 121.362 340.656 120.059 340.05 118.906C341.747 116.542 342.99 113.885 343.718 111.068C344.212 108.906 344.028 107.396 343.218 106.93C342.08 106.264 340.37 108.45 338.352 111.202C337.009 113.191 335.443 115.021 333.684 116.654C332.488 117.775 331.223 118.819 329.896 119.782C330.65 117.234 331.001 114.584 330.936 111.928C330.72 110.216 329.614 110.178 328.486 111.438C327.105 113.244 325.951 115.212 325.05 117.3C323.862 119.834 318.65 125.14 315.076 127.844C313.974 127.248 312.804 126.787 311.592 126.472C311.533 126.457 311.471 126.457 311.412 126.471C311.353 126.485 311.298 126.513 311.252 126.552C298.752 137.374 287.588 144.438 276.12 148.778C275.512 148.757 274.908 148.667 274.32 148.51C263.187 147.437 252.271 144.738 241.92 140.5C237 138.784 232.228 136.67 227.65 134.18C224.004 131.876 223.958 130.01 223.05 127.106C227.44 126.002 230.498 124.436 230.152 119.86C229.764 114.702 222.17 102.478 221.97 102.292C221.742 101.282 221.229 100.359 220.492 99.632C219.756 98.9047 218.826 98.4036 217.814 98.188C217.993 97.3216 217.958 96.4244 217.711 95.5747C217.464 94.7251 217.013 93.9488 216.397 93.3136C215.781 92.6785 215.019 92.2037 214.177 91.9308C213.335 91.6579 212.44 91.5951 211.568 91.748C211.402 90.8588 211.018 90.0249 210.449 89.3219C209.88 88.6189 209.144 88.0689 208.309 87.7218C207.474 87.3746 206.565 87.2413 205.665 87.3339C204.765 87.4265 203.903 87.7421 203.156 88.252C202.677 87.4632 202.006 86.809 201.205 86.3509C200.404 85.8927 199.5 85.6456 198.577 85.6328C197.655 85.6201 196.744 85.8419 195.931 86.2777C195.118 86.7135 194.428 87.3488 193.928 88.124C193.197 87.5906 192.344 87.2482 191.448 87.1279C190.551 87.0076 189.638 87.1131 188.792 87.435C187.947 87.7568 187.195 88.2847 186.605 88.9709C186.015 89.657 185.605 90.4796 185.414 91.364C184.551 91.193 183.659 91.2342 182.815 91.484C181.971 91.7339 181.201 92.1849 180.57 92.7983C179.939 93.4117 179.467 94.1692 179.193 95.0056C178.92 95.842 178.853 96.7323 179 97.6C178.113 97.7664 177.281 98.151 176.579 98.7191C175.877 99.2873 175.328 100.021 174.981 100.855C174.634 101.688 174.499 102.595 174.59 103.493C174.681 104.391 174.993 105.253 175.5 106C174.71 106.479 174.055 107.151 173.596 107.952C173.138 108.754 172.891 109.66 172.879 110.583C172.867 111.507 173.091 112.418 173.529 113.232C173.967 114.045 174.604 114.733 175.382 115.232C174.844 115.962 174.497 116.815 174.373 117.713C174.249 118.611 174.352 119.526 174.672 120.374C174.991 121.223 175.518 121.978 176.205 122.57C176.891 123.163 177.714 123.575 178.6 123.768C178.423 124.634 178.46 125.53 178.708 126.378C178.956 127.226 179.407 128.001 180.022 128.636C180.637 129.27 181.398 129.745 182.238 130.019C183.079 130.293 183.973 130.358 184.844 130.208C185.01 131.096 185.394 131.928 185.962 132.63C186.53 133.332 187.264 133.881 188.098 134.229C188.931 134.576 189.838 134.71 190.737 134.619C191.635 134.528 192.497 134.215 193.244 133.708C193.722 134.498 194.394 135.153 195.196 135.612C195.998 136.071 196.903 136.318 197.827 136.33C198.75 136.342 199.662 136.118 200.475 135.681C201.289 135.243 201.977 134.605 202.476 133.828C203.207 134.364 204.06 134.709 204.958 134.831C205.856 134.953 206.771 134.849 207.618 134.527C208.466 134.206 209.22 133.678 209.811 132.991C210.402 132.304 210.812 131.48 211.004 130.594C212.057 130.808 213.149 130.706 214.144 130.302C212.5 132.725 210.013 134.449 207.168 135.138C195.11 138.494 186.238 150.058 172.168 158.406C157.471 158.425 142.806 157.053 128.368 154.308C128.302 154.295 128.234 154.3 128.171 154.323C128.108 154.345 128.052 154.383 128.008 154.434C126.736 155.942 125.626 157.578 124.694 159.316C116.815 157.823 109.242 155.016 102.294 151.012C99.062 149.304 97.138 148.836 96.574 149.612C95.65 150.892 99.346 154.24 100.668 155.412C98.252 155.17 95.815 155.237 93.416 155.612C93.1942 155.642 92.9891 155.746 92.8343 155.908C92.6795 156.07 92.5842 156.279 92.564 156.502C92.564 157.334 93.876 158.042 96.564 158.668C100.764 159.64 104.92 160.922 106.29 161.32C112.904 163.238 111.372 163.15 116.36 165.492C116.706 165.752 116.864 165.984 116.826 166.186C116.64 167.218 112.848 168.328 110.584 168.986C109.266 169.37 105.3 170.418 105.57 171.946C105.684 172.578 106.442 173.288 111.342 173.146C114.893 173.114 118.435 173.509 121.892 174.324C122.152 176.783 122.659 179.209 123.404 181.566C123.424 181.629 123.461 181.686 123.51 181.731C123.559 181.776 123.619 181.807 123.684 181.822C137.036 184.679 150.678 185.947 164.328 185.6C165.9 185.576 173.25 185.41 173.498 185.328C180.831 183.311 187.729 179.959 193.846 175.44L193.664 178.074C193.664 179.308 194.946 180.426 197.474 181.362L198.442 189.662C185.475 199.276 176.19 213.039 172.13 228.662L149.502 262.484C120.616 268.884 88.482 267.284 87.724 267.75C86.406 267.95 85.234 269.132 84.31 271.202L76.42 271.732C73.566 271.972 69.526 275.222 67.374 277.332C60.2605 284.724 54.4576 293.272 50.214 302.612C46.014 311.472 43.902 319.228 44.72 322.852C44.7823 323.418 45.0063 323.954 45.3652 324.397C45.7241 324.839 46.2028 325.169 46.744 325.346C53.076 327.864 63.944 317.83 68.59 312.034C73.176 306.477 79.383 302.492 86.344 300.634C86.6652 301.252 87.1182 301.792 87.6712 302.216C88.2242 302.64 88.8635 302.937 89.544 303.086C90.288 303.44 107.464 303.616 108.528 303.616C124.272 303.58 140.001 302.679 155.646 300.916C160.552 300.358 165.295 298.821 169.596 296.396C173.896 293.971 177.666 290.707 180.682 286.798C190.724 273.76 200.308 260.986 207.392 246.14C267.132 371.618 265.124 367.624 265.392 367.794C265.608 367.898 269.192 367.9 269.47 367.898L271.318 370.954C269.763 375.45 268.774 380.122 268.372 384.862C268.297 385.751 268.489 386.642 268.923 387.421C269.357 388.201 270.013 388.833 270.808 389.238C13.472 389.238 24.048 389.038 24.048 389.616C24.048 390.194 8.48602 389.992 375.648 389.992C375.749 389.994 375.847 389.956 375.92 389.886C375.994 389.816 376.036 389.719 376.038 389.618C376.04 389.517 376.002 389.419 375.932 389.346C375.862 389.272 375.765 389.23 375.664 389.228ZM296.91 359.018C293.386 361.547 289.493 363.517 285.368 364.86C282.316 357.19 229.074 223.482 225.314 214.846C221.816 206.812 222.75 191.246 222.94 188.598C225.757 188.933 228.549 189.457 231.296 190.166C259.772 253.5 269.72 298.184 296.91 359.018ZM325.738 117.618C326.602 115.586 327.718 113.671 329.06 111.918C329.892 110.988 330.124 111.256 330.212 112.08C330.207 114.91 329.79 117.724 328.976 120.434C327.996 121.1 326.92 121.772 325.776 122.434C325.704 122.475 325.648 122.539 325.616 122.616C325.584 122.692 325.579 122.777 325.6 122.857C325.622 122.937 325.669 123.008 325.735 123.058C325.8 123.109 325.881 123.136 325.964 123.136C327.2 122.497 328.39 121.774 329.526 120.972C331.174 119.844 332.731 118.59 334.186 117.222C334.202 117.207 334.216 117.19 334.228 117.172L334.258 117.148C336.032 115.497 337.614 113.651 338.974 111.646C341.882 107.672 342.608 107.434 342.854 107.578C343.238 107.8 343.454 108.934 342.998 110.898C342.33 113.477 341.217 115.919 339.71 118.116C338.184 119.868 336.547 121.521 334.81 123.064C334.738 123.133 334.697 123.229 334.696 123.328C334.694 123.428 334.733 123.524 334.802 123.596C334.871 123.668 334.967 123.709 335.066 123.71C335.166 123.712 335.262 123.673 335.334 123.604C336.088 122.868 338.252 120.924 339.55 119.498C340.04 120.616 340.191 121.854 339.985 123.057C339.779 124.26 339.224 125.377 338.39 126.268L334.858 129.324C334.8 129.374 334.759 129.441 334.74 129.515C334.721 129.589 334.725 129.668 334.752 129.739C334.779 129.811 334.827 129.873 334.89 129.917C334.953 129.96 335.027 129.984 335.104 129.984C335.304 129.984 335.048 130.152 338.922 126.802C339.099 126.906 339.251 127.047 339.367 127.216C339.483 127.385 339.56 127.578 339.594 127.78C339.63 128.719 339.461 129.654 339.099 130.52C338.736 131.387 338.188 132.163 337.494 132.796C336.964 133.258 335.294 134.764 335.154 134.856C335.086 134.9 335.034 134.964 335.006 135.04C334.977 135.116 334.974 135.199 334.997 135.276C335.019 135.354 335.066 135.422 335.13 135.471C335.195 135.52 335.273 135.547 335.354 135.548C336.396 134.808 337.381 133.99 338.3 133.102C338.486 133.11 338.666 133.172 338.816 133.282C338.966 133.392 339.081 133.545 339.144 133.72C339.35 134.353 339.37 135.033 339.202 135.677C339.033 136.322 338.684 136.904 338.194 137.356C337.694 137.722 329.194 143.77 327.052 145.286C326.432 141.83 325.114 138.536 323.179 135.606C321.245 132.675 318.733 130.17 315.798 128.242C319.418 125.424 324.538 120.174 325.738 117.612V117.618ZM207.38 135.862C209.103 135.501 210.718 134.744 212.098 133.65C213.477 132.557 214.583 131.157 215.328 129.562C215.796 128.096 216.13 126.592 216.328 125.066C216.9 121.62 217.646 118.056 218.07 113.72C218.076 113.65 218.063 113.58 218.032 113.517C218.001 113.455 217.953 113.401 217.894 113.364C212.306 109.916 214.672 105.308 217.542 108.142C218.122 108.718 218.616 108.876 219.01 108.614C219.99 107.962 219.258 104.972 218.67 103.356C219.585 103.044 220.547 102.893 221.514 102.912C225.788 110.186 228.714 115.418 229.33 119.112C229.574 120.582 229.678 121.846 228.33 122.374C226.392 123.134 222.378 122.174 220.348 121.712C220.272 121.695 220.193 121.701 220.121 121.731C220.049 121.761 219.988 121.813 219.947 121.879C219.906 121.945 219.887 122.022 219.891 122.1C219.896 122.177 219.925 122.252 219.974 122.312C221.174 125.06 222.156 126.76 222.26 126.962C223.956 132.424 223.292 133.938 237.278 139.484C232.594 140.784 213.23 145.516 199.712 139.226C202.109 137.773 204.687 136.641 207.38 135.862ZM96.746 157.938C95.6359 157.757 94.5691 157.371 93.6 156.8C93.292 156.574 93.226 156.438 93.6 156.35C96.2729 155.973 98.9832 155.942 101.664 156.258C104.062 158.116 106.566 159.833 109.164 161.4C107.68 160.918 100.92 158.906 96.746 157.938ZM121.836 173.538C118.392 172.743 114.865 172.359 111.33 172.394C106.586 172.532 106.33 171.816 106.33 171.816C106.294 171.602 107.164 170.874 108.894 170.294C111.992 169.26 117.694 168.11 117.604 166.066C117.748 166.132 120.296 167.298 120.456 167.298C120.543 167.299 120.627 167.269 120.695 167.215C120.763 167.16 120.809 167.084 120.827 166.998C120.845 166.913 120.832 166.825 120.792 166.748C120.752 166.671 120.686 166.61 120.606 166.576C116.505 164.977 112.611 162.892 109.006 160.366C106.434 158.616 106.288 158.796 103.606 156.814C100.46 154.464 96.902 150.844 97.206 150.052C97.31 149.908 98.466 149.786 102.206 151.796C109.17 155.558 116.627 158.323 124.36 160.01C122.307 164.21 121.435 168.889 121.836 173.546V173.538ZM194.532 176.416L195.414 163.466C195.418 163.382 195.393 163.299 195.344 163.23C195.295 163.162 195.224 163.112 195.143 163.089C195.062 163.066 194.976 163.071 194.898 163.103C194.82 163.135 194.755 163.192 194.714 163.266C194.582 163.466 194.026 165.418 190.43 176.866C185.156 180.307 179.384 182.916 173.316 184.6C155.94 185.292 141.022 184.83 124.07 181.15C121.17 171.656 122.124 162.75 128.456 155.096C142.904 157.825 157.577 159.185 172.28 159.158C172.346 159.157 172.411 159.138 172.468 159.104C183.37 152.66 190.506 144.882 198.93 139.704C204.459 142.16 210.468 143.346 216.516 143.174C223.925 143.079 231.288 141.995 238.41 139.95C249.801 144.882 261.887 148.021 274.238 149.254C274.714 149.312 275.822 149.698 276.396 149.48C287.902 145.124 299.094 138.058 311.596 127.25C320.072 129.556 326.732 139.942 326.762 150.082C312.888 161.736 297.624 169.882 281.316 177.714C265.316 177.004 245.08 174.028 230.398 167.808C230.028 167.698 229.566 168.034 230.334 168.716C231.06 169.36 232.82 170.744 236.86 174.064L236.684 176.638C231.47 171.076 200.486 171.02 194.532 176.424V176.416ZM197.558 175.584C205.896 172.364 225.358 172.384 233.558 175.622L231.258 189.372C220.723 186.732 209.699 186.732 199.164 189.372C198 179.422 198.342 182.322 197.558 175.6V175.584ZM68 311.556C62.368 318.578 54.348 324.778 49.136 324.98C59.828 321.082 85.61 277.736 78.158 272.37L91.516 271.472C95.096 277.92 95.944 291.162 93.346 298.352C83.346 299.8 74.278 303.74 68 311.556ZM180.084 286.328C177.13 290.157 173.438 293.354 169.226 295.73C165.013 298.106 160.367 299.611 155.562 300.158C134.334 302.597 112.948 303.367 91.6 302.46C94.82 300.036 95.574 292.298 95.6 288.27C112.962 288.962 130.349 288.662 147.676 287.372C156.692 286.714 167.908 284.85 174.676 276.21C184.004 263.756 192.7 250.841 200.732 237.514L203.436 252.186C196.577 264.172 188.769 275.589 180.086 286.328H180.084ZM265.804 367.078L203.062 235.292C201.263 232.217 199.984 228.867 199.276 225.376C199.272 225.351 199.264 225.326 199.254 225.302C197.678 218.327 198.718 211.017 202.176 204.758C202.2 204.715 202.215 204.667 202.22 204.618C202.226 204.569 202.221 204.519 202.207 204.472C202.193 204.424 202.17 204.38 202.14 204.341C202.109 204.303 202.07 204.271 202.027 204.247C201.939 204.199 201.836 204.188 201.741 204.216C201.645 204.244 201.564 204.308 201.516 204.396C197.929 210.891 196.879 218.486 198.57 225.71L200.542 236.41C192.396 249.958 183.571 263.086 174.1 275.744C167.5 284.144 156.5 285.976 147.628 286.622C130.319 287.911 112.951 288.21 95.608 287.518C95.747 281.773 94.5294 276.076 92.054 270.89C90.618 268.396 89.678 268.45 90.216 268.45C114.376 268.45 133.922 266.85 149.816 263.186C150.182 263.102 172.896 228.72 172.84 228.922C180.01 202.85 197.92 190.892 199 190.2C206.575 188.284 214.428 187.714 222.2 188.516C222 191.174 221 206.82 224.634 215.148C228.382 223.748 281.392 356.886 284.658 365.09C278.525 366.791 272.153 367.463 265.8 367.078H265.804ZM269.128 384.914C269.53 380.177 270.527 375.51 272.096 371.022C272.164 370.75 272.172 370.892 270.35 367.88C277.903 367.973 285.368 366.246 292.112 362.844L296.294 371.1C296.828 371.878 305.546 372.578 322.16 386.6C322.394 386.797 322.561 387.062 322.639 387.358C322.717 387.653 322.702 387.966 322.596 388.253C322.491 388.54 322.299 388.788 322.048 388.962C321.797 389.136 321.498 389.229 321.192 389.228C321.192 389.228 279.546 389.006 272.894 388.986C272.373 388.986 271.858 388.878 271.381 388.669C270.904 388.461 270.475 388.156 270.122 387.773C269.768 387.391 269.497 386.939 269.327 386.447C269.156 385.955 269.089 385.433 269.13 384.914H269.128Z" fill="white"/>
<path d="M342.744 332.814L334.606 315.374C334.43 314.962 334.109 314.628 333.704 314.435C333.299 314.242 332.837 314.204 332.406 314.328L328.636 306.248C331.995 304.573 334.559 301.642 335.773 298.09C336.987 294.538 336.753 290.651 335.122 287.27C333.491 283.889 330.594 281.287 327.059 280.026C323.523 278.766 319.633 278.948 316.231 280.534C312.829 282.121 310.189 284.983 308.882 288.502C307.575 292.02 307.706 295.912 309.247 299.335C310.788 302.758 313.616 305.435 317.117 306.789C320.618 308.142 324.511 308.062 327.954 306.566L331.724 314.646C331.349 314.897 331.08 315.276 330.966 315.712C330.852 316.148 330.902 316.61 331.106 317.012L339.248 334.458C339.466 334.923 339.86 335.281 340.342 335.456C340.825 335.63 341.357 335.605 341.821 335.387C342.285 335.169 342.644 334.776 342.818 334.293C342.993 333.811 342.968 333.279 342.75 332.814H342.744ZM317.634 306.18C315.545 305.42 313.675 304.157 312.191 302.502C310.706 300.847 309.653 298.851 309.124 296.692C308.595 294.532 308.607 292.276 309.159 290.122C309.711 287.968 310.785 285.984 312.287 284.344C313.789 282.705 315.672 281.462 317.769 280.724C319.866 279.986 322.113 279.777 324.31 280.115C326.508 280.454 328.588 281.329 330.366 282.663C332.145 283.997 333.567 285.749 334.506 287.764C335.629 290.187 336.01 292.888 335.601 295.527C335.192 298.167 334.011 300.626 332.207 302.595C330.403 304.564 328.057 305.955 325.463 306.593C322.87 307.231 320.146 307.088 317.634 306.18Z" fill="white"/>
</svg>
