<svg width="400" height="401" viewBox="0 0 400 401" fill="none" xmlns="http://www.w3.org/2000/svg">
<path d="M93.622 299.374C84.294 300.684 74.822 304.352 68.296 312.472C62.03 320.286 51.296 328.594 46.08 325.26L45.668 324.824C53.81 332.948 89.366 272.808 76.186 272.808L91.73 271.762C95.482 278.264 96.388 292.046 93.622 299.374Z" fill="#FFE7EA"/>
<path d="M321.2 390.282C301.924 390.268 288.414 390.082 272.9 390.04C272.327 390.039 271.761 389.921 271.236 389.691C270.711 389.462 270.24 389.126 269.851 388.706C269.462 388.285 269.165 387.789 268.977 387.248C268.789 386.707 268.715 386.133 268.76 385.562C269.162 380.794 270.166 376.097 271.748 371.582L269.696 368.182C277.54 368.381 285.309 366.6 292.282 363.002L296.62 371.574C305.58 374.174 315.592 381.226 322.42 386.974C322.719 387.22 322.933 387.553 323.034 387.927C323.135 388.301 323.117 388.697 322.983 389.06C322.849 389.423 322.605 389.736 322.286 389.955C321.967 390.174 321.587 390.288 321.2 390.282Z" fill="#FFE7EA"/>
<path d="M253.554 175.63V210.748C253.551 213.177 252.585 215.507 250.867 217.225C249.149 218.943 246.82 219.909 244.39 219.912C244.29 219.912 244.195 219.951 244.124 220.022C244.054 220.092 244.014 220.188 244.014 220.288C244.014 220.387 244.054 220.483 244.124 220.554C244.195 220.624 244.29 220.664 244.39 220.664C247.019 220.661 249.54 219.615 251.399 217.756C253.258 215.897 254.303 213.377 254.306 210.748V175.63C254.306 175.53 254.266 175.434 254.196 175.364C254.125 175.293 254.03 175.254 253.93 175.254C253.83 175.254 253.735 175.293 253.664 175.364C253.594 175.434 253.554 175.53 253.554 175.63Z" fill="#1890ff"/>
<path d="M177.468 216.608C176.1 214.961 175.351 212.888 175.35 210.748V185.128C175.35 185.028 175.31 184.932 175.24 184.862C175.169 184.791 175.074 184.752 174.974 184.752C174.874 184.752 174.779 184.791 174.708 184.862C174.638 184.932 174.598 185.028 174.598 185.128V210.748C174.599 213.064 175.41 215.308 176.89 217.09C176.954 217.166 177.046 217.214 177.145 217.223C177.244 217.232 177.343 217.201 177.42 217.138C177.497 217.074 177.545 216.982 177.554 216.883C177.563 216.783 177.532 216.684 177.468 216.608Z" fill="#1890ff"/>
<path d="M155.904 253.712V203.552C155.904 203.452 155.944 203.356 156.014 203.286C156.085 203.215 156.18 203.176 156.28 203.176C156.38 203.176 156.475 203.215 156.546 203.286C156.616 203.356 156.656 203.452 156.656 203.552V253.712C156.656 253.811 156.616 253.907 156.546 253.977C156.475 254.048 156.38 254.088 156.28 254.088C156.18 254.088 156.085 254.048 156.014 253.977C155.944 253.907 155.904 253.811 155.904 253.712Z" fill="#1890ff"/>
<path d="M112.48 156.606L110.656 153.45C110.619 153.398 110.57 153.355 110.513 153.326C110.457 153.297 110.394 153.281 110.33 153.281C110.266 153.281 110.203 153.297 110.147 153.326C110.09 153.355 110.041 153.398 110.004 153.45L108.9 155.366C108.875 155.41 108.86 155.459 108.854 155.509C108.849 155.559 108.853 155.61 108.868 155.659C108.883 155.707 108.907 155.753 108.94 155.791C108.972 155.83 109.012 155.862 109.058 155.885C109.103 155.908 109.152 155.922 109.203 155.925C109.254 155.928 109.304 155.921 109.352 155.905C109.4 155.888 109.444 155.862 109.481 155.827C109.519 155.793 109.549 155.752 109.57 155.706C110.266 156.014 110.936 156.306 111.586 156.566L111.826 156.982C111.879 157.061 111.961 157.118 112.054 157.14C112.148 157.162 112.246 157.148 112.329 157.1C112.412 157.052 112.474 156.974 112.502 156.883C112.53 156.791 112.522 156.692 112.48 156.606Z" fill="#1890ff"/>
<path d="M141.4 157.362C141.26 156.347 140.795 155.406 140.076 154.677C139.357 153.948 138.421 153.472 137.409 153.319C136.396 153.165 135.362 153.344 134.459 153.827C133.556 154.31 132.834 155.072 132.4 156C132.375 156.052 132.363 156.11 132.365 156.167C132.366 156.225 132.381 156.282 132.408 156.334C132.435 156.385 132.473 156.429 132.52 156.463C132.567 156.497 132.621 156.52 132.678 156.53C138.15 157.466 141.226 157.788 141.024 157.788C141.078 157.788 141.131 157.777 141.18 157.755C141.23 157.733 141.274 157.701 141.309 157.66C141.345 157.62 141.371 157.572 141.387 157.521C141.403 157.469 141.407 157.415 141.4 157.362Z" fill="#1890ff"/>
<path d="M138.558 184.43C138.518 184.362 138.459 184.308 138.387 184.276C138.315 184.243 138.235 184.235 138.158 184.25C138.081 184.266 138.011 184.305 137.957 184.363C137.904 184.421 137.87 184.494 137.86 184.572C133.36 184.002 128.34 183.15 123.776 182.144C123.007 179.725 122.496 177.232 122.252 174.706C118.681 173.84 115.016 173.422 111.342 173.46C103.182 173.696 105.974 171.562 108.768 170.626C111.882 169.586 119.426 167.994 116.598 165.876C111.156 163.294 113.24 163.656 106.17 161.574C106.196 161.485 106.188 161.391 106.149 161.308C106.11 161.225 106.041 161.159 105.957 161.123C105.873 161.087 105.778 161.083 105.691 161.112C105.604 161.141 105.53 161.2 105.484 161.28L89.44 189.082C89.4071 189.139 89.3899 189.204 89.3899 189.27C89.39 189.336 89.4074 189.401 89.4404 189.458C89.4734 189.516 89.5208 189.563 89.5779 189.596C89.6351 189.63 89.6999 189.647 89.766 189.648C143.14 189.648 140.986 189.766 141.22 189.488C141.4 189.192 141.4 189.366 138.558 184.43Z" fill="#1890ff"/>
<path d="M343.358 111.662C342.621 114.517 341.337 117.203 339.578 119.57C341.294 121.658 340.352 125.458 338.648 127.212C338.718 127.154 338.784 127.082 338.848 127.03C340.978 127.858 339.946 131.534 337.75 133.742C339.45 132.342 340.814 136.012 338.414 138.342C337.838 138.766 326.786 146.62 326.786 146.62C326.231 143.009 324.901 139.562 322.886 136.516C320.872 133.469 318.221 130.895 315.116 128.972C318.716 126.286 324.172 120.758 325.398 118.142C326.84 115.066 328.772 111.848 329.614 111.67H330.142C331.46 112.496 329.666 119.87 329.308 121.346C332.113 119.429 334.646 117.141 336.838 114.546C338.222 112.946 341.75 107.178 343.038 107.932C343.67 108.294 343.8 109.704 343.358 111.662Z" fill="#FFE7EA"/>
<path d="M124.91 160.416C113.42 158.452 102.976 152.318 100.258 151.112C98.328 150.256 97.23 150.112 96.91 150.512C96.362 151.192 98.068 153.462 101.756 156.54C99.0137 156.231 96.2432 156.274 93.512 156.67C92.758 156.846 92.006 157.912 96.662 158.994C101.857 160.224 106.985 161.722 112.026 163.482C113.15 164.142 114.352 164.804 116.598 165.868C119.426 167.984 111.882 169.578 108.768 170.618C105.968 171.554 103.182 173.688 111.342 173.452C115.016 173.418 118.68 173.837 122.252 174.698C121.726 169.78 122.65 164.815 124.91 160.416Z" fill="#FFE7EA"/>
<path d="M257.2 75.0076H171.7C169.659 74.9468 167.626 75.294 165.721 76.0288C163.816 76.7637 162.077 77.8714 160.606 79.287C159.134 80.7026 157.96 82.3977 157.152 84.2729C156.344 86.1481 155.918 88.1658 155.9 90.2076V139.348C155.9 139.447 155.94 139.543 156.01 139.613C156.081 139.684 156.176 139.724 156.276 139.724C156.376 139.724 156.471 139.684 156.542 139.613C156.612 139.543 156.652 139.447 156.652 139.348V90.2156C156.67 88.2725 157.076 86.3526 157.846 84.5684C158.616 82.7843 159.734 81.1717 161.135 79.8253C162.537 78.479 164.192 77.4258 166.006 76.7277C167.819 76.0295 169.754 75.7004 171.696 75.7596H257.2C260.813 75.6445 264.34 76.8738 267.099 79.2095C269.857 81.5452 271.652 84.8212 272.134 88.4036C272.149 88.5002 272.201 88.5872 272.279 88.6461C272.357 88.7051 272.455 88.7313 272.552 88.7194C272.649 88.7074 272.737 88.6581 272.798 88.582C272.86 88.5059 272.889 88.4089 272.88 88.3116C272.376 84.5466 270.494 81.1023 267.598 78.6448C264.702 76.1873 260.997 74.8913 257.2 75.0076Z" fill="#1890ff"/>
<path d="M282.136 87.8816C282.1 82.0485 279.761 76.466 275.627 72.3501C271.494 68.2342 265.901 65.9186 260.068 65.9076H168.496C162.646 65.9139 157.037 68.2405 152.9 72.3768C148.763 76.5131 146.435 82.1214 146.428 87.9716V139.016C146.428 139.115 146.468 139.211 146.538 139.281C146.609 139.352 146.704 139.392 146.804 139.392C146.904 139.392 146.999 139.352 147.07 139.281C147.14 139.211 147.18 139.115 147.18 139.016V87.9716C147.187 82.3205 149.435 76.9029 153.431 72.9072C157.427 68.9115 162.845 66.6639 168.496 66.6576H260.068C265.702 66.6686 271.104 68.9053 275.096 72.8805C279.089 76.8558 281.349 82.2476 281.384 87.8816C281.384 87.9813 281.424 88.077 281.494 88.1475C281.565 88.218 281.66 88.2576 281.76 88.2576C281.86 88.2576 281.955 88.218 282.026 88.1475C282.096 88.077 282.136 87.9813 282.136 87.8816Z" fill="#1890ff"/>
<path d="M146.428 264.124V203.882C146.428 203.782 146.468 203.686 146.538 203.616C146.609 203.545 146.704 203.506 146.804 203.506C146.904 203.506 146.999 203.545 147.07 203.616C147.14 203.686 147.18 203.782 147.18 203.882V264.122C147.18 264.221 147.141 264.317 147.071 264.388C147 264.458 146.905 264.498 146.805 264.499C146.705 264.499 146.61 264.46 146.539 264.389C146.468 264.319 146.428 264.223 146.428 264.124Z" fill="#1890ff"/>
<path d="M171.7 310.912H238.146C238.246 310.912 238.341 310.872 238.412 310.802C238.482 310.731 238.522 310.635 238.522 310.536C238.522 310.436 238.482 310.34 238.412 310.27C238.341 310.199 238.246 310.16 238.146 310.16H171.7C168.714 310.166 165.793 309.281 163.313 307.618C160.833 305.955 158.906 303.589 157.778 300.824C157.736 300.738 157.662 300.671 157.573 300.637C157.483 300.603 157.384 300.604 157.295 300.64C157.206 300.677 157.135 300.745 157.095 300.832C157.055 300.92 157.05 301.019 157.08 301.11C158.264 304.013 160.288 306.498 162.893 308.244C165.497 309.99 168.564 310.919 171.7 310.912Z" fill="#1890ff"/>
<path d="M242.336 318.962H168.496C163.6 318.949 158.856 317.257 155.057 314.168C151.258 311.079 148.635 306.78 147.624 301.99C147.601 301.895 147.542 301.813 147.46 301.761C147.377 301.709 147.278 301.691 147.183 301.71C147.087 301.73 147.003 301.786 146.948 301.867C146.893 301.947 146.872 302.046 146.888 302.142C147.934 307.101 150.648 311.551 154.58 314.749C158.511 317.948 163.42 319.701 168.488 319.716H242.328C242.423 319.71 242.513 319.668 242.579 319.599C242.645 319.529 242.682 319.438 242.683 319.342C242.684 319.247 242.649 319.154 242.584 319.084C242.52 319.013 242.431 318.97 242.336 318.962Z" fill="#1890ff"/>
<path d="M272.246 178.19C272.246 303.558 272.316 295.656 272.104 297.19C272.091 297.288 272.117 297.389 272.178 297.468C272.238 297.547 272.327 297.6 272.426 297.614C273.288 297.736 272.998 302.734 272.998 178.18C272.997 178.08 272.956 177.985 272.884 177.915C272.813 177.846 272.717 177.807 272.617 177.809C272.517 177.81 272.422 177.851 272.353 177.922C272.283 177.994 272.245 178.09 272.246 178.19Z" fill="#1890ff"/>
<path d="M282.136 297.644V178.596C282.136 178.496 282.096 178.4 282.026 178.33C281.955 178.259 281.86 178.22 281.76 178.22C281.66 178.22 281.565 178.259 281.494 178.33C281.424 178.4 281.384 178.496 281.384 178.596V297.648C281.397 302.276 279.891 306.782 277.096 310.472C277.036 310.551 277.01 310.651 277.023 310.75C277.037 310.849 277.089 310.938 277.169 310.999C277.249 311.059 277.349 311.085 277.448 311.071C277.546 311.058 277.636 311.005 277.696 310.926C280.591 307.104 282.151 302.438 282.136 297.644Z" fill="#1890ff"/>
<path d="M350.13 100.774C350.13 100.674 350.09 100.578 350.02 100.508C349.949 100.437 349.854 100.398 349.754 100.398H278C277.9 100.398 277.805 100.437 277.734 100.508C277.664 100.578 277.624 100.674 277.624 100.774V111.662C277.624 111.761 277.664 111.857 277.734 111.927C277.805 111.998 277.9 112.038 278 112.038H338.982C339.061 112.038 339.138 112.013 339.202 111.966C339.266 111.92 339.314 111.855 339.339 111.78C339.364 111.704 339.364 111.623 339.34 111.548C339.317 111.473 339.27 111.407 339.206 111.36C340.654 109.406 342.25 107.47 343.032 107.928C343.632 108.27 343.784 109.528 343.432 111.284H343.352C343.257 111.291 343.168 111.333 343.103 111.403C343.038 111.473 343.001 111.565 343.001 111.661C343.001 111.756 343.038 111.848 343.103 111.918C343.168 111.988 343.257 112.031 343.352 112.038H349.752C349.852 112.038 349.947 111.998 350.018 111.927C350.088 111.857 350.128 111.761 350.128 111.662L350.13 100.774Z" fill="#1890ff"/>
<path d="M334 117.928H330.142C330.042 117.928 329.947 117.888 329.876 117.818C329.806 117.747 329.766 117.651 329.766 117.552C329.766 117.452 329.806 117.356 329.876 117.286C329.947 117.215 330.042 117.176 330.142 117.176H334C334.1 117.176 334.195 117.215 334.266 117.286C334.336 117.356 334.376 117.452 334.376 117.552C334.376 117.651 334.336 117.747 334.266 117.818C334.195 117.888 334.1 117.928 334 117.928Z" fill="#1890ff"/>
<path d="M277.626 149.128V117.552C277.626 117.452 277.666 117.356 277.736 117.286C277.807 117.215 277.902 117.176 278.002 117.176H325.674C325.774 117.176 325.869 117.215 325.94 117.286C326.01 117.356 326.05 117.452 326.05 117.552C326.05 117.651 326.01 117.747 325.94 117.818C325.869 117.888 325.774 117.928 325.674 117.928H278.378V149.128C278.378 149.227 278.338 149.323 278.268 149.394C278.197 149.464 278.102 149.504 278.002 149.504C277.902 149.504 277.807 149.464 277.736 149.394C277.666 149.323 277.626 149.227 277.626 149.128Z" fill="#1890ff"/>
<path d="M350.13 117.552C350.13 117.452 350.09 117.356 350.02 117.286C349.949 117.215 349.854 117.176 349.754 117.176H340.918C340.818 117.176 340.723 117.215 340.652 117.286C340.582 117.356 340.542 117.452 340.542 117.552C340.542 117.651 340.582 117.747 340.652 117.818C340.723 117.888 340.818 117.928 340.918 117.928H349.378V150.832H326.816C326.721 150.839 326.632 150.881 326.567 150.951C326.502 151.021 326.465 151.113 326.465 151.209C326.465 151.304 326.502 151.396 326.567 151.466C326.632 151.536 326.721 151.579 326.816 151.586H349.754C349.854 151.585 349.95 151.545 350.02 151.474C350.09 151.403 350.13 151.308 350.13 151.208V117.552Z" fill="#1890ff"/>
<path d="M363.152 98.5656C363.147 95.6329 361.979 92.8219 359.905 90.7487C357.83 88.6756 355.019 87.5093 352.086 87.5056H275.674C272.74 87.5083 269.927 88.6747 267.852 90.7489C265.777 92.8231 264.61 95.6357 264.606 98.5696V148.246C264.606 148.345 264.646 148.441 264.716 148.511C264.787 148.582 264.882 148.622 264.982 148.622C265.082 148.622 265.177 148.582 265.248 148.511C265.318 148.441 265.358 148.345 265.358 148.246V98.5696C265.361 95.835 266.449 93.2133 268.383 91.28C270.317 89.3467 272.939 88.2597 275.674 88.2576H352.084C354.818 88.2603 357.44 89.3474 359.374 91.2806C361.308 93.2138 362.396 95.8352 362.4 98.5696V153.414C362.397 156.149 361.309 158.772 359.374 160.706C357.44 162.64 354.818 163.728 352.082 163.732H318.102C318.013 162.826 317.636 161.972 317.026 161.296C316.416 160.62 315.606 160.157 314.714 159.976C314.39 159.91 314.544 160.082 309.9 162.99C309.858 163.016 309.822 163.05 309.793 163.09C309.765 163.13 309.745 163.176 309.734 163.224C309.697 163.391 309.671 163.561 309.656 163.732H308.824C308.724 163.732 308.629 163.771 308.558 163.842C308.488 163.912 308.448 164.008 308.448 164.108C308.448 164.207 308.488 164.303 308.558 164.373C308.629 164.444 308.724 164.484 308.824 164.484H309.652C309.736 165.478 310.169 166.411 310.873 167.119C311.577 167.826 312.508 168.263 313.502 168.352V207.752C313.495 214.473 310.821 220.918 306.069 225.671C301.316 230.424 294.872 233.098 288.15 233.106H249.4C249.305 233.113 249.216 233.155 249.151 233.225C249.086 233.295 249.049 233.387 249.049 233.483C249.049 233.578 249.086 233.67 249.151 233.74C249.216 233.81 249.305 233.853 249.4 233.86H288.146C295.067 233.851 301.702 231.098 306.596 226.204C311.489 221.31 314.242 214.675 314.25 207.754V168.354C315.244 168.265 316.175 167.828 316.879 167.121C317.583 166.413 318.016 165.48 318.1 164.486H352.078C355.013 164.482 357.827 163.315 359.902 161.24C361.978 159.164 363.145 156.351 363.148 153.416L363.152 98.5656Z" fill="#1890ff"/>
<path d="M126.162 326.038H115.8V315.682C115.8 315.582 115.76 315.486 115.69 315.416C115.619 315.345 115.524 315.306 115.424 315.306C115.324 315.306 115.229 315.345 115.158 315.416C115.088 315.486 115.048 315.582 115.048 315.682V326.044H104.686C104.586 326.044 104.491 326.083 104.42 326.154C104.35 326.224 104.31 326.32 104.31 326.42C104.31 326.519 104.35 326.615 104.42 326.686C104.491 326.756 104.586 326.796 104.686 326.796H115.048V337.16C115.048 337.259 115.088 337.355 115.158 337.426C115.229 337.496 115.324 337.536 115.424 337.536C115.524 337.536 115.619 337.496 115.69 337.426C115.76 337.355 115.8 337.259 115.8 337.16V326.796H126.162C126.212 326.796 126.261 326.786 126.307 326.767C126.353 326.748 126.395 326.72 126.43 326.685C126.465 326.649 126.493 326.608 126.512 326.562C126.531 326.516 126.541 326.466 126.541 326.417C126.541 326.367 126.531 326.318 126.512 326.272C126.493 326.226 126.465 326.184 126.43 326.149C126.395 326.113 126.353 326.086 126.307 326.067C126.261 326.047 126.212 326.038 126.162 326.038Z" fill="#1890ff"/>
<path d="M233.982 176.082L231.566 190.534C220.835 187.758 209.575 187.758 198.844 190.534L197.15 176.036C205.508 172.634 225.692 172.624 233.982 176.082Z" fill="#FFE7EA"/>
<path d="M227.462 135.172C226.468 134.641 225.592 133.915 224.885 133.038C224.177 132.161 223.654 131.151 223.346 130.068C221.968 125.528 223.41 129.612 220.252 122.764C224.39 123.718 230.064 124.964 229.802 120.694C229.564 116.81 226.424 111.22 221.73 103.238C220.516 103.176 219.303 103.368 218.168 103.802C219.29 106.57 219.654 110.402 217.796 108.558C214.564 105.358 211.512 110.558 217.686 114.358C217.38 117.486 216.886 120.426 216.344 123.37C216.052 125.646 215.595 127.898 214.976 130.108C214.238 131.636 213.161 132.977 211.827 134.028C210.494 135.079 208.939 135.813 207.28 136.174C204.327 137.033 201.509 138.301 198.908 139.942C214.616 147.762 238.426 140.22 238.426 140.22C234.639 138.841 230.972 137.152 227.462 135.172Z" fill="#FFE7EA"/>
<path d="M156.33 28.6056C156.119 28.606 155.914 28.5426 155.74 28.4237C155.566 28.3049 155.432 28.1361 155.356 27.9396C154.956 26.8776 154.41 26.1956 155.064 25.5396C155.957 24.6466 156.459 23.4354 156.459 22.1726C156.459 20.9098 155.957 19.6986 155.064 18.8056L152.948 16.6936C152.055 15.8019 150.845 15.3011 149.583 15.3011C148.321 15.3011 147.111 15.8019 146.218 16.6936C146.068 16.8433 145.877 16.9447 145.669 16.9846C145.462 17.0245 145.246 17.0012 145.052 16.9176C144.052 16.4616 143.152 16.3656 143.152 15.4276C143.149 14.1658 142.646 12.9566 141.754 12.0646C140.861 11.1725 139.652 10.6702 138.39 10.6676H135.4C134.14 10.6718 132.932 11.1734 132.04 12.0633C131.148 12.9533 130.643 14.1595 130.636 15.4196C130.636 15.6313 130.572 15.8381 130.454 16.0138C130.336 16.1894 130.168 16.3258 129.972 16.4056C128.926 16.8056 128.234 17.3556 127.572 16.6976C127.13 16.2552 126.605 15.9043 126.027 15.6649C125.45 15.4255 124.83 15.3023 124.205 15.3023C123.58 15.3023 122.96 15.4255 122.383 15.6649C121.805 15.9043 121.28 16.2552 120.838 16.6976L118.728 18.8076C118.286 19.2497 117.935 19.7745 117.695 20.3523C117.456 20.93 117.333 21.5492 117.333 22.1746C117.333 22.8 117.456 23.4192 117.695 23.9969C117.935 24.5747 118.286 25.0996 118.728 25.5416C118.877 25.691 118.978 25.8819 119.018 26.0895C119.058 26.297 119.034 26.5117 118.95 26.7056C118.49 27.6956 118.402 28.6056 117.462 28.6056C116.2 28.6072 114.989 29.1094 114.097 30.0021C113.204 30.8948 112.702 32.1051 112.7 33.3676V36.3676C112.702 37.6301 113.204 38.8404 114.097 39.7331C114.989 40.6258 116.2 41.128 117.462 41.1296C117.672 41.1287 117.878 41.1917 118.052 41.3103C118.226 41.4288 118.36 41.5974 118.436 41.7936C118.51 41.9936 118.594 42.1816 118.678 42.3716C119.212 43.5896 119.078 43.7536 118.716 44.2076C117.828 45.1011 117.331 46.3101 117.334 47.5695C117.337 48.8289 117.839 50.0359 118.73 50.9256L120.846 53.0416C121.288 53.4837 121.813 53.8343 122.39 54.0736C122.968 54.3128 123.587 54.4359 124.212 54.4359C124.837 54.4359 125.456 54.3128 126.034 54.0736C126.611 53.8343 127.136 53.4837 127.578 53.0416C127.727 52.8917 127.917 52.7905 128.125 52.7512C128.332 52.7119 128.547 52.7365 128.74 52.8216C129.76 53.2856 130.64 53.3796 130.642 54.3116C130.647 55.5711 131.151 56.7775 132.042 57.6674C132.933 58.5572 134.14 59.0584 135.4 59.0616H138.39C139.652 59.0579 140.862 58.5547 141.754 57.6621C142.646 56.7694 143.149 55.5598 143.152 54.2976C143.152 54.0873 143.215 53.8819 143.334 53.7082C143.452 53.5344 143.62 53.4004 143.816 53.3236C144.882 52.9236 145.558 52.3756 146.216 53.0316C146.658 53.474 147.183 53.8249 147.761 54.0643C148.338 54.3037 148.958 54.4269 149.583 54.4269C150.208 54.4269 150.828 54.3037 151.405 54.0643C151.983 53.8249 152.508 53.474 152.95 53.0316L155.064 50.9176C155.506 50.4754 155.857 49.9503 156.097 49.3724C156.336 48.7945 156.46 48.1751 156.46 47.5496C156.46 46.9241 156.336 46.3047 156.097 45.7268C155.857 45.1489 155.506 44.6238 155.064 44.1816C154.915 44.0325 154.814 43.8417 154.775 43.6344C154.736 43.427 154.761 43.2127 154.846 43.0196C155.314 41.9916 155.404 41.1196 156.332 41.1196C157.595 41.1185 158.805 40.6165 159.698 39.7237C160.591 38.8309 161.093 37.6202 161.094 36.3576V33.3576C161.09 32.0964 160.587 30.888 159.694 29.9973C158.801 29.1066 157.591 28.6061 156.33 28.6056ZM156.33 40.3676C154.856 40.3676 154.628 41.6776 154.158 42.7076C154.011 43.0396 153.968 43.4083 154.034 43.7652C154.101 44.1221 154.274 44.4506 154.53 44.7076C154.903 45.0793 155.2 45.5211 155.402 46.0076C155.604 46.4941 155.708 47.0157 155.708 47.5426C155.708 48.0695 155.604 48.5911 155.402 49.0776C155.2 49.5641 154.903 50.0059 154.53 50.3776L152.416 52.4936C152.044 52.867 151.603 53.1633 151.116 53.3655C150.63 53.5677 150.108 53.6718 149.581 53.6718C149.054 53.6718 148.532 53.5677 148.046 53.3655C147.559 53.1633 147.118 52.867 146.746 52.4936C145.7 51.4476 144.614 52.2156 143.546 52.6136C143.207 52.7445 142.915 52.9751 142.709 53.275C142.504 53.5749 142.394 53.93 142.394 54.2936C142.39 55.3549 141.966 56.3714 141.214 57.1209C140.463 57.8704 139.445 58.292 138.384 58.2936H135.4C134.339 58.2925 133.321 57.8711 132.569 57.1215C131.818 56.3718 131.394 55.3551 131.39 54.2936C131.39 52.8196 130.08 52.5916 129.05 52.1196C128.718 51.9727 128.349 51.9296 127.992 51.996C127.635 52.0624 127.307 52.2351 127.05 52.4916C126.678 52.8653 126.236 53.1619 125.75 53.3642C125.263 53.5666 124.741 53.6708 124.214 53.6708C123.687 53.6708 123.165 53.5666 122.678 53.3642C122.192 53.1619 121.75 52.8653 121.378 52.4916L119.264 50.3776C118.891 50.0059 118.594 49.5641 118.392 49.0776C118.19 48.5911 118.086 48.0695 118.086 47.5426C118.086 47.0157 118.19 46.4941 118.392 46.0076C118.594 45.5211 118.891 45.0793 119.264 44.7076C120.306 43.6636 119.542 42.5816 119.144 41.5076C119.013 41.1684 118.783 40.8767 118.483 40.6711C118.183 40.4655 117.828 40.3555 117.464 40.3556C116.403 40.3546 115.385 39.9331 114.633 39.1835C113.882 38.4338 113.458 37.4171 113.454 36.3556V33.3556C113.456 32.2926 113.879 31.2735 114.63 30.5219C115.382 29.7702 116.401 29.3472 117.464 29.3456C118.93 29.3456 119.164 28.0516 119.636 27.0056C119.783 26.6736 119.826 26.3049 119.76 25.948C119.693 25.5911 119.52 25.2626 119.264 25.0056C118.512 24.2536 118.09 23.2339 118.09 22.1706C118.09 21.1073 118.512 20.0876 119.264 19.3356L121.38 17.2196C121.752 16.8462 122.193 16.5499 122.68 16.3477C123.166 16.1455 123.688 16.0414 124.215 16.0414C124.742 16.0414 125.264 16.1455 125.75 16.3477C126.237 16.5499 126.678 16.8462 127.05 17.2196C128.07 18.2396 129.064 17.5436 130.25 17.0996C130.589 16.9691 130.881 16.739 131.087 16.4395C131.293 16.14 131.404 15.7851 131.404 15.4216C131.408 14.3622 131.83 13.3472 132.578 12.5971C133.327 11.847 134.341 11.4224 135.4 11.4156H138.39C139.453 11.4167 140.473 11.8395 141.224 12.5913C141.976 13.3431 142.399 14.3624 142.4 15.4256C142.4 16.6716 143.356 17.0456 144.2 17.3756C144.591 17.5914 145.023 17.721 145.468 17.7556C145.947 17.7551 146.407 17.5645 146.746 17.2256C147.118 16.8522 147.559 16.5559 148.046 16.3537C148.532 16.1515 149.054 16.0474 149.581 16.0474C150.108 16.0474 150.63 16.1515 151.116 16.3537C151.603 16.5559 152.044 16.8522 152.416 17.2256L154.532 19.3416C154.905 19.7133 155.202 20.1551 155.404 20.6416C155.606 21.1281 155.71 21.6497 155.71 22.1766C155.71 22.7035 155.606 23.2251 155.404 23.7116C155.202 24.1981 154.905 24.6399 154.532 25.0116C153.49 26.0556 154.258 27.1496 154.652 28.2116C154.782 28.5509 155.013 28.8427 155.312 29.0487C155.612 29.2547 155.966 29.3652 156.33 29.3656C157.393 29.3667 158.413 29.7894 159.165 30.5412C159.917 31.2929 160.34 32.3122 160.342 33.3756V36.3756C160.336 37.436 159.911 38.451 159.159 39.199C158.408 39.947 157.39 40.3671 156.33 40.3676Z" fill="#1890ff"/>
<path d="M136.896 23.3236C134.614 23.3232 132.382 23.9997 130.484 25.2675C128.586 26.5353 127.107 28.3374 126.233 30.4461C125.359 32.5547 125.13 34.8751 125.576 37.1137C126.021 39.3524 127.119 41.4088 128.733 43.0229C130.347 44.637 132.403 45.7363 134.642 46.1817C136.881 46.6272 139.201 46.3987 141.31 45.5254C143.418 44.652 145.221 43.1729 146.489 41.2751C147.757 39.3773 148.434 37.1461 148.434 34.8636C148.431 31.8043 147.214 28.8712 145.051 26.7078C142.888 24.5444 139.955 23.3273 136.896 23.3236ZM136.896 45.6496C134.762 45.65 132.676 45.0176 130.902 43.8323C129.127 42.6471 127.744 40.9623 126.928 38.9909C126.111 37.0196 125.897 34.8503 126.313 32.7575C126.729 30.6646 127.757 28.7422 129.266 27.2333C130.775 25.7245 132.697 24.697 134.79 24.2808C136.883 23.8646 139.052 24.0784 141.023 24.8952C142.995 25.7119 144.679 27.095 145.865 28.8694C147.05 30.6437 147.682 32.7298 147.682 34.8636C147.678 37.7231 146.541 40.4644 144.519 42.4864C142.497 44.5083 139.755 45.6459 136.896 45.6496Z" fill="#1890ff"/>
<path d="M169.82 233.1H141.15C134.49 233.092 128.099 230.467 123.357 225.79C118.615 221.113 115.902 214.759 115.802 208.1C116.792 208.009 117.718 207.575 118.421 206.872C119.123 206.168 119.557 205.241 119.646 204.252H153.632C156.564 204.248 159.376 203.082 161.45 201.009C163.524 198.937 164.692 196.126 164.698 193.194V185.9C164.698 185.8 164.658 185.704 164.588 185.634C164.517 185.563 164.422 185.524 164.322 185.524C164.222 185.524 164.127 185.563 164.056 185.634C163.986 185.704 163.946 185.8 163.946 185.9V193.196C163.942 195.93 162.854 198.551 160.92 200.485C158.986 202.418 156.364 203.505 153.63 203.508H119.646C119.554 202.451 119.069 201.468 118.288 200.751C117.506 200.035 116.484 199.638 115.424 199.638C114.364 199.638 113.342 200.035 112.56 200.751C111.779 201.468 111.294 202.451 111.202 203.508H77.214C74.4801 203.504 71.859 202.417 69.9258 200.484C67.9926 198.551 66.9052 195.93 66.902 193.196V149.704C66.9052 146.969 67.9929 144.348 69.9265 142.415C71.8602 140.482 74.4817 139.394 77.216 139.392H153.63C156.364 139.394 158.986 140.481 160.92 142.415C162.854 144.348 163.942 146.969 163.946 149.704V159.364C163.946 159.463 163.986 159.559 164.056 159.63C164.127 159.7 164.222 159.74 164.322 159.74C164.422 159.74 164.517 159.7 164.588 159.63C164.658 159.559 164.698 159.463 164.698 159.364V149.704C164.694 146.77 163.526 143.958 161.452 141.884C159.378 139.81 156.565 138.643 153.632 138.64H77.216C74.2824 138.643 71.4699 139.809 69.3954 141.884C67.3208 143.958 66.1537 146.77 66.15 149.704V193.196C66.1537 196.129 67.3203 198.94 69.394 201.014C71.4676 203.088 74.2791 204.255 77.212 204.26H111.2C111.289 205.25 111.723 206.178 112.427 206.881C113.13 207.584 114.057 208.018 115.048 208.108C115.15 214.965 117.944 221.508 122.827 226.324C127.709 231.141 134.29 233.845 141.148 233.854H169.82C169.915 233.847 170.004 233.804 170.069 233.734C170.134 233.664 170.171 233.572 170.171 233.477C170.171 233.381 170.134 233.289 170.069 233.219C170.004 233.149 169.915 233.107 169.82 233.1Z" fill="#1890ff"/>
<path d="M51.576 166.426L44.01 179.646L37.628 170.658C37.5677 170.584 37.4817 170.536 37.3872 170.523C37.2928 170.51 37.197 170.534 37.1193 170.589C37.0415 170.644 36.9876 170.726 36.9684 170.82C36.9493 170.913 36.9663 171.01 37.016 171.092L43.738 180.562C43.7752 180.612 43.8244 180.653 43.8813 180.68C43.9381 180.707 44.0008 180.72 44.0636 180.716C44.1265 180.713 44.1876 180.694 44.2414 180.662C44.2952 180.629 44.3401 180.584 44.372 180.53L52.23 166.8C52.2796 166.713 52.2927 166.61 52.2664 166.514C52.2402 166.417 52.1767 166.335 52.09 166.286C52.0033 166.236 51.9004 166.223 51.804 166.249C51.7076 166.275 51.6256 166.339 51.576 166.426Z" fill="#1890ff"/>
<path d="M314.41 66.2816L321.748 58.9636C321.813 58.8921 321.847 58.7986 321.845 58.7024C321.842 58.6061 321.803 58.5145 321.735 58.4463C321.667 58.378 321.576 58.3385 321.48 58.3358C321.383 58.333 321.29 58.3673 321.218 58.4316L313.88 65.7476L306.562 58.4096C306.491 58.3388 306.396 58.2989 306.296 58.2987C306.196 58.2985 306.1 58.338 306.029 58.4086C305.958 58.4791 305.918 58.5749 305.918 58.6749C305.918 58.7748 305.957 58.8708 306.028 58.9416L313.346 66.2796L306 73.5976C305.929 73.6681 305.89 73.7638 305.89 73.8636C305.89 73.9634 305.929 74.059 306 74.1296C306.071 74.2001 306.166 74.2398 306.266 74.2398C306.366 74.2398 306.461 74.2001 306.532 74.1296L313.87 66.8136L321.186 74.1516C321.257 74.2224 321.352 74.2623 321.452 74.2625C321.552 74.2627 321.648 74.2231 321.719 74.1526C321.79 74.082 321.83 73.9863 321.83 73.8863C321.83 73.7863 321.791 73.6904 321.72 73.6196L314.41 66.2816Z" fill="#1890ff"/>
<path d="M375.664 389.91H322.874C323.073 389.687 323.226 389.426 323.323 389.143C323.42 388.86 323.459 388.561 323.438 388.262C323.418 387.964 323.337 387.673 323.202 387.406C323.066 387.139 322.879 386.903 322.65 386.71C318.352 383.084 307.272 374.352 296.876 371.276L292.776 363.172C294.443 362.258 296.053 361.245 297.598 360.138C297.669 360.087 297.72 360.014 297.743 359.93C297.766 359.846 297.759 359.757 297.724 359.678C270.534 298.92 260.366 253.654 231.954 190.478L233.354 182.108C235.982 181.166 237.324 180.052 237.342 178.796L237.81 172.008C251.938 176.377 266.6 178.779 281.384 179.146C281.446 179.145 281.507 179.132 281.564 179.108C297.992 171.212 313.386 163.014 327.386 151.22C327.428 151.185 327.462 151.141 327.485 151.092C327.508 151.042 327.52 150.988 327.52 150.934C327.525 149.544 327.416 148.156 327.194 146.784C328.706 145.708 338.102 139.03 338.676 138.604C339.292 138.047 339.729 137.321 339.933 136.516C340.138 135.712 340.1 134.865 339.824 134.082C339.732 133.855 339.593 133.651 339.417 133.483C339.24 133.314 339.03 133.185 338.8 133.104C340.2 131.254 341.244 128.104 339.4 126.904C340.2 125.876 340.687 124.639 340.802 123.341C340.917 122.044 340.656 120.741 340.05 119.588C341.747 117.224 342.99 114.567 343.718 111.75C344.212 109.588 344.028 108.078 343.218 107.612C342.08 106.946 340.37 109.132 338.352 111.884C337.009 113.873 335.443 115.702 333.684 117.336C332.488 118.456 331.223 119.501 329.896 120.464C330.65 117.916 331.001 115.266 330.936 112.61C330.72 110.898 329.614 110.86 328.486 112.12C327.105 113.925 325.951 115.894 325.05 117.982C323.862 120.516 318.65 125.822 315.076 128.526C313.974 127.93 312.804 127.469 311.592 127.154C311.533 127.139 311.471 127.139 311.412 127.153C311.353 127.166 311.298 127.194 311.252 127.234C298.752 138.056 287.588 145.12 276.12 149.46C275.512 149.439 274.908 149.349 274.32 149.192C263.187 148.119 252.271 145.42 241.92 141.182C237 139.465 232.228 137.352 227.65 134.862C224.004 132.558 223.958 130.692 223.05 127.788C227.44 126.684 230.498 125.118 230.152 120.542C229.764 115.384 222.17 103.16 221.97 102.974C221.742 101.964 221.229 101.041 220.492 100.314C219.756 99.5863 218.826 99.0852 217.814 98.8696C217.993 98.0032 217.958 97.106 217.711 96.2563C217.464 95.4067 217.013 94.6304 216.397 93.9953C215.781 93.3601 215.019 92.8853 214.177 92.6124C213.335 92.3395 212.44 92.2768 211.568 92.4296C211.402 91.5404 211.018 90.7066 210.449 90.0035C209.88 89.3005 209.144 88.7505 208.309 88.4034C207.474 88.0563 206.565 87.923 205.665 88.0156C204.765 88.1081 203.903 88.4237 203.156 88.9336C202.677 88.1448 202.006 87.4907 201.205 87.0325C200.404 86.5744 199.5 86.3273 198.577 86.3145C197.655 86.3017 196.744 86.5236 195.931 86.9593C195.118 87.3951 194.428 88.0304 193.928 88.8056C193.197 88.2723 192.344 87.9299 191.448 87.8096C190.551 87.6892 189.638 87.7948 188.792 88.1166C187.947 88.4385 187.195 88.9664 186.605 89.6525C186.015 90.3386 185.605 91.1612 185.414 92.0456C184.551 91.8746 183.659 91.9158 182.815 92.1657C181.971 92.4155 181.201 92.8665 180.57 93.4799C179.939 94.0934 179.467 94.8508 179.193 95.6872C178.92 96.5237 178.853 97.414 179 98.2816C178.113 98.448 177.281 98.8326 176.579 99.4008C175.877 99.9689 175.328 100.703 174.981 101.536C174.634 102.37 174.499 103.276 174.59 104.175C174.681 105.073 174.993 105.934 175.5 106.682C174.71 107.16 174.055 107.832 173.596 108.634C173.138 109.436 172.891 110.341 172.879 111.265C172.867 112.189 173.091 113.1 173.529 113.913C173.967 114.727 174.604 115.415 175.382 115.914C174.844 116.644 174.497 117.496 174.373 118.395C174.249 119.293 174.352 120.208 174.672 121.056C174.991 121.904 175.518 122.659 176.205 123.252C176.891 123.845 177.714 124.256 178.6 124.45C178.423 125.316 178.46 126.211 178.708 127.06C178.956 127.908 179.407 128.683 180.022 129.318C180.637 129.952 181.398 130.427 182.238 130.701C183.079 130.975 183.973 131.04 184.844 130.89C185.01 131.777 185.394 132.61 185.962 133.312C186.53 134.014 187.264 134.563 188.098 134.91C188.931 135.258 189.838 135.392 190.737 135.301C191.635 135.21 192.497 134.897 193.244 134.39C193.722 135.18 194.394 135.835 195.196 136.294C195.998 136.752 196.903 136.999 197.827 137.011C198.75 137.023 199.662 136.8 200.475 136.362C201.289 135.925 201.977 135.287 202.476 134.51C203.207 135.046 204.06 135.39 204.958 135.513C205.856 135.635 206.771 135.53 207.618 135.209C208.466 134.888 209.22 134.359 209.811 133.672C210.402 132.985 210.812 132.162 211.004 131.276C212.057 131.489 213.149 131.388 214.144 130.984C212.5 133.406 210.013 135.13 207.168 135.82C195.11 139.176 186.238 150.74 172.168 159.088C157.471 159.106 142.806 157.734 128.368 154.99C128.302 154.977 128.234 154.982 128.171 155.004C128.108 155.026 128.052 155.065 128.008 155.116C126.736 156.623 125.626 158.259 124.694 159.998C116.815 158.505 109.242 155.698 102.294 151.694C99.062 149.986 97.138 149.518 96.574 150.294C95.65 151.574 99.346 154.922 100.668 156.094C98.252 155.852 95.815 155.919 93.416 156.294C93.1942 156.324 92.9891 156.428 92.8343 156.59C92.6795 156.751 92.5842 156.961 92.564 157.184C92.564 158.016 93.876 158.724 96.564 159.35C100.764 160.322 104.92 161.604 106.29 162.002C112.904 163.92 111.372 163.832 116.36 166.174C116.706 166.434 116.864 166.666 116.826 166.868C116.64 167.9 112.848 169.01 110.584 169.668C109.266 170.052 105.3 171.1 105.57 172.628C105.684 173.26 106.442 173.97 111.342 173.828C114.893 173.795 118.435 174.191 121.892 175.006C122.152 177.464 122.659 179.89 123.404 182.248C123.424 182.311 123.461 182.368 123.51 182.413C123.559 182.458 123.619 182.489 123.684 182.504C137.036 185.361 150.678 186.629 164.328 186.282C165.9 186.258 173.25 186.092 173.498 186.01C180.831 183.992 187.729 180.64 193.846 176.122L193.664 178.756C193.664 179.99 194.946 181.108 197.474 182.044L198.442 190.344C185.475 199.958 176.19 213.721 172.13 229.344L149.502 263.166C120.616 269.566 88.482 267.966 87.724 268.432C86.406 268.632 85.234 269.814 84.31 271.884L76.42 272.414C73.566 272.654 69.526 275.904 67.374 278.014C60.2605 285.405 54.4576 293.954 50.214 303.294C46.014 312.154 43.902 319.91 44.72 323.534C44.7823 324.1 45.0063 324.636 45.3652 325.078C45.7241 325.521 46.2028 325.85 46.744 326.028C53.076 328.546 63.944 318.512 68.59 312.716C73.176 307.159 79.383 303.173 86.344 301.316C86.6652 301.934 87.1182 302.474 87.6712 302.898C88.2242 303.321 88.8635 303.618 89.544 303.768C90.288 304.122 107.464 304.298 108.528 304.298C124.272 304.262 140.001 303.36 155.646 301.598C160.552 301.04 165.295 299.502 169.596 297.077C173.896 294.652 177.666 291.389 180.682 287.48C190.724 274.442 200.308 261.668 207.392 246.822C267.132 372.3 265.124 368.306 265.392 368.476C265.608 368.58 269.192 368.582 269.47 368.58L271.318 371.636C269.763 376.132 268.774 380.803 268.372 385.544C268.297 386.433 268.489 387.323 268.923 388.103C269.357 388.882 270.013 389.515 270.808 389.92C13.472 389.92 24.048 389.72 24.048 390.298C24.048 390.876 8.48602 390.674 375.648 390.674C375.749 390.676 375.847 390.638 375.92 390.567C375.994 390.497 376.036 390.401 376.038 390.3C376.04 390.198 376.002 390.1 375.932 390.027C375.862 389.954 375.765 389.912 375.664 389.91ZM296.91 359.7C293.386 362.229 289.493 364.199 285.368 365.542C282.316 357.872 229.074 224.164 225.314 215.528C221.816 207.494 222.75 191.928 222.94 189.28C225.757 189.614 228.549 190.138 231.296 190.848C259.772 254.182 269.72 298.866 296.91 359.7ZM325.738 118.3C326.602 116.268 327.718 114.353 329.06 112.6C329.892 111.67 330.124 111.938 330.212 112.762C330.207 115.591 329.79 118.405 328.976 121.116C327.996 121.782 326.92 122.454 325.776 123.116C325.704 123.157 325.648 123.221 325.616 123.297C325.584 123.374 325.579 123.459 325.6 123.539C325.622 123.619 325.669 123.69 325.735 123.74C325.8 123.791 325.881 123.818 325.964 123.818C327.2 123.179 328.39 122.456 329.526 121.654C331.174 120.525 332.731 119.272 334.186 117.904C334.202 117.888 334.216 117.872 334.228 117.854L334.258 117.83C336.032 116.179 337.614 114.333 338.974 112.328C341.882 108.354 342.608 108.116 342.854 108.26C343.238 108.482 343.454 109.616 342.998 111.58C342.33 114.159 341.217 116.601 339.71 118.798C338.184 120.55 336.547 122.202 334.81 123.746C334.738 123.815 334.697 123.91 334.696 124.01C334.694 124.11 334.733 124.206 334.802 124.278C334.871 124.349 334.967 124.39 335.066 124.392C335.166 124.393 335.262 124.355 335.334 124.286C336.088 123.55 338.252 121.606 339.55 120.18C340.04 121.298 340.191 122.535 339.985 123.739C339.779 124.942 339.224 126.058 338.39 126.95L334.858 130.006C334.8 130.056 334.759 130.123 334.74 130.197C334.721 130.271 334.725 130.349 334.752 130.421C334.779 130.493 334.827 130.555 334.89 130.598C334.953 130.642 335.027 130.666 335.104 130.666C335.304 130.666 335.048 130.834 338.922 127.484C339.099 127.587 339.251 127.729 339.367 127.898C339.483 128.067 339.56 128.259 339.594 128.462C339.63 129.4 339.461 130.335 339.099 131.202C338.736 132.068 338.188 132.845 337.494 133.478C336.964 133.94 335.294 135.446 335.154 135.538C335.086 135.581 335.034 135.646 335.006 135.722C334.977 135.798 334.974 135.88 334.997 135.958C335.019 136.036 335.066 136.104 335.13 136.153C335.195 136.202 335.273 136.229 335.354 136.23C336.396 135.489 337.381 134.672 338.3 133.784C338.486 133.791 338.666 133.854 338.816 133.964C338.966 134.074 339.081 134.226 339.144 134.402C339.35 135.035 339.37 135.714 339.202 136.359C339.033 137.003 338.684 137.586 338.194 138.038C337.694 138.404 329.194 144.452 327.052 145.968C326.432 142.511 325.114 139.218 323.179 136.287C321.245 133.357 318.733 130.851 315.798 128.924C319.418 126.106 324.538 120.856 325.738 118.294V118.3ZM207.38 136.544C209.103 136.183 210.718 135.425 212.098 134.332C213.477 133.238 214.583 131.839 215.328 130.244C215.796 128.778 216.13 127.273 216.328 125.748C216.9 122.302 217.646 118.738 218.07 114.402C218.076 114.332 218.063 114.262 218.032 114.199C218.001 114.136 217.953 114.083 217.894 114.046C212.306 110.598 214.672 105.99 217.542 108.824C218.122 109.4 218.616 109.558 219.01 109.296C219.99 108.644 219.258 105.654 218.67 104.038C219.585 103.725 220.547 103.575 221.514 103.594C225.788 110.868 228.714 116.1 229.33 119.794C229.574 121.264 229.678 122.528 228.33 123.056C226.392 123.816 222.378 122.856 220.348 122.394C220.272 122.376 220.193 122.383 220.121 122.413C220.049 122.443 219.988 122.494 219.947 122.56C219.906 122.626 219.887 122.704 219.891 122.781C219.896 122.859 219.925 122.933 219.974 122.994C221.174 125.742 222.156 127.442 222.26 127.644C223.956 133.106 223.292 134.62 237.278 140.166C232.594 141.466 213.23 146.198 199.712 139.908C202.109 138.454 204.687 137.323 207.38 136.544ZM96.746 158.62C95.6359 158.438 94.5691 158.053 93.6 157.482C93.292 157.256 93.226 157.12 93.6 157.032C96.2729 156.655 98.9832 156.624 101.664 156.94C104.062 158.798 106.566 160.515 109.164 162.082C107.68 161.6 100.92 159.588 96.746 158.62ZM121.836 174.22C118.392 173.424 114.865 173.04 111.33 173.076C106.586 173.214 106.33 172.498 106.33 172.498C106.294 172.284 107.164 171.556 108.894 170.976C111.992 169.942 117.694 168.792 117.604 166.748C117.748 166.814 120.296 167.98 120.456 167.98C120.543 167.98 120.627 167.951 120.695 167.896C120.763 167.842 120.809 167.765 120.827 167.68C120.845 167.595 120.832 167.506 120.792 167.429C120.752 167.352 120.686 167.292 120.606 167.258C116.505 165.658 112.611 163.574 109.006 161.048C106.434 159.298 106.288 159.478 103.606 157.496C100.46 155.146 96.902 151.526 97.206 150.734C97.31 150.59 98.466 150.468 102.206 152.478C109.17 156.24 116.627 159.005 124.36 160.692C122.307 164.891 121.435 169.57 121.836 174.228V174.22ZM194.532 177.098L195.414 164.148C195.418 164.063 195.393 163.98 195.344 163.912C195.295 163.844 195.224 163.794 195.143 163.771C195.062 163.747 194.976 163.752 194.898 163.784C194.82 163.817 194.755 163.874 194.714 163.948C194.582 164.148 194.026 166.1 190.43 177.548C185.156 180.989 179.384 183.597 173.316 185.282C155.94 185.974 141.022 185.512 124.07 181.832C121.17 172.338 122.124 163.432 128.456 155.778C142.904 158.506 157.577 159.866 172.28 159.84C172.346 159.839 172.411 159.82 172.468 159.786C183.37 153.342 190.506 145.564 198.93 140.386C204.459 142.842 210.468 144.028 216.516 143.856C223.925 143.761 231.288 142.677 238.41 140.632C249.801 145.564 261.887 148.702 274.238 149.936C274.714 149.994 275.822 150.38 276.396 150.162C287.902 145.806 299.094 138.74 311.596 127.932C320.072 130.238 326.732 140.624 326.762 150.764C312.888 162.418 297.624 170.564 281.316 178.396C265.316 177.686 245.08 174.71 230.398 168.49C230.028 168.38 229.566 168.716 230.334 169.398C231.06 170.042 232.82 171.426 236.86 174.746L236.684 177.32C231.47 171.758 200.486 171.702 194.532 177.106V177.098ZM197.558 176.266C205.896 173.046 225.358 173.066 233.558 176.304L231.258 190.054C220.723 187.414 209.699 187.414 199.164 190.054C198 180.104 198.342 183.004 197.558 176.282V176.266ZM68 312.238C62.368 319.26 54.348 325.46 49.136 325.662C59.828 321.764 85.61 278.418 78.158 273.052L91.516 272.154C95.096 278.602 95.944 291.844 93.346 299.034C83.346 300.482 74.278 304.422 68 312.238ZM180.084 287.01C177.13 290.839 173.438 294.036 169.226 296.412C165.013 298.787 160.367 300.293 155.562 300.84C134.334 303.278 112.948 304.048 91.6 303.142C94.82 300.718 95.574 292.98 95.6 288.952C112.962 289.643 130.349 289.344 147.676 288.054C156.692 287.396 167.908 285.532 174.676 276.892C184.004 264.438 192.7 251.523 200.732 238.196L203.436 252.868C196.577 264.854 188.769 276.271 180.086 287.01H180.084ZM265.804 367.76L203.062 235.974C201.263 232.899 199.984 229.549 199.276 226.058C199.272 226.032 199.264 226.007 199.254 225.984C197.678 219.009 198.718 211.698 202.176 205.44C202.2 205.396 202.215 205.349 202.22 205.3C202.226 205.25 202.221 205.201 202.207 205.153C202.193 205.106 202.17 205.062 202.14 205.023C202.109 204.984 202.07 204.952 202.027 204.929C201.939 204.881 201.836 204.869 201.741 204.897C201.645 204.925 201.564 204.99 201.516 205.078C197.929 211.573 196.879 219.167 198.57 226.392L200.542 237.092C192.396 250.64 183.571 263.768 174.1 276.426C167.5 284.826 156.5 286.658 147.628 287.304C130.319 288.592 112.951 288.892 95.608 288.2C95.747 282.455 94.5294 276.758 92.054 271.572C90.618 269.078 89.678 269.132 90.216 269.132C114.376 269.132 133.922 267.532 149.816 263.868C150.182 263.784 172.896 229.402 172.84 229.604C180.01 203.532 197.92 191.574 199 190.882C206.575 188.966 214.428 188.396 222.2 189.198C222 191.856 221 207.502 224.634 215.83C228.382 224.43 281.392 357.568 284.658 365.772C278.525 367.473 272.153 368.145 265.8 367.76H265.804ZM269.128 385.596C269.53 380.859 270.527 376.191 272.096 371.704C272.164 371.432 272.172 371.574 270.35 368.562C277.903 368.655 285.368 366.928 292.112 363.526L296.294 371.782C296.828 372.56 305.546 373.26 322.16 387.282C322.394 387.479 322.561 387.744 322.639 388.039C322.717 388.335 322.702 388.648 322.596 388.935C322.491 389.222 322.299 389.469 322.048 389.644C321.797 389.818 321.498 389.911 321.192 389.91C321.192 389.91 279.546 389.688 272.894 389.668C272.373 389.668 271.858 389.56 271.381 389.351C270.904 389.142 270.475 388.837 270.122 388.455C269.768 388.072 269.497 387.621 269.327 387.129C269.156 386.637 269.089 386.115 269.13 385.596H269.128Z" fill="black"/>
<path d="M342.744 333.496L334.606 316.056C334.43 315.643 334.109 315.309 333.704 315.116C333.299 314.924 332.837 314.886 332.406 315.01L328.636 306.93C331.995 305.254 334.559 302.323 335.773 298.771C336.987 295.219 336.753 291.332 335.122 287.951C333.491 284.571 330.594 281.968 327.059 280.708C323.523 279.447 319.633 279.63 316.231 281.216C312.829 282.802 310.189 285.664 308.882 289.183C307.575 292.702 307.706 296.594 309.247 300.016C310.788 303.439 313.616 306.117 317.117 307.47C320.618 308.824 324.511 308.744 327.954 307.248L331.724 315.328C331.349 315.578 331.08 315.957 330.966 316.393C330.852 316.829 330.902 317.292 331.106 317.694L339.248 335.14C339.466 335.604 339.86 335.963 340.342 336.137C340.825 336.311 341.357 336.287 341.821 336.069C342.285 335.851 342.644 335.457 342.818 334.974C342.993 334.492 342.968 333.96 342.75 333.496H342.744ZM317.634 306.862C315.545 306.102 313.675 304.838 312.191 303.183C310.706 301.528 309.653 299.532 309.124 297.373C308.595 295.214 308.607 292.957 309.159 290.803C309.711 288.65 310.785 286.665 312.287 285.026C313.789 283.387 315.672 282.143 317.769 281.405C319.866 280.668 322.113 280.459 324.31 280.797C326.508 281.135 328.588 282.01 330.366 283.344C332.145 284.678 333.567 286.431 334.506 288.446C335.629 290.868 336.01 293.57 335.601 296.209C335.192 298.848 334.011 301.307 332.207 303.276C330.403 305.245 328.057 306.637 325.463 307.275C322.87 307.913 320.146 307.769 317.634 306.862Z" fill="#1890ff"/>
</svg>
