<svg width="400" height="401" viewBox="0 0 400 401" fill="none" xmlns="http://www.w3.org/2000/svg">
<path d="M229.06 83.8993C228.98 83.85 228.884 83.8321 228.792 83.8492C228.699 83.8662 228.617 83.917 228.559 83.9917C228.502 84.0663 228.475 84.1596 228.482 84.2533C228.49 84.3471 228.532 84.4347 228.6 84.4993C249.949 100.988 264.447 124.788 269.307 151.322C274.167 177.855 269.045 205.248 254.927 228.234C240.809 251.219 218.691 268.173 192.827 275.835C166.963 283.497 139.18 281.326 114.82 269.739C116.14 241.339 130.7 225.039 132.38 223.039C135.438 224.779 138.861 225.781 142.375 225.965C145.889 226.149 149.397 225.51 152.62 224.099C158.32 221.936 163.46 218.519 167.66 214.099C172.548 208.214 175.711 201.091 176.8 193.519C176.804 193.46 176.794 193.4 176.772 193.345C176.749 193.289 176.715 193.24 176.671 193.199C176.626 193.159 176.574 193.129 176.517 193.112C176.46 193.094 176.399 193.09 176.34 193.099C172.5 194.106 168.818 195.64 165.4 197.659C164.641 194.753 163.31 192.027 161.483 189.642C159.657 187.258 157.373 185.261 154.765 183.771C152.157 182.281 149.277 181.326 146.296 180.964C143.314 180.601 140.289 180.838 137.4 181.659C137.399 177.736 136.853 173.833 135.78 170.059C135.76 170.004 135.728 169.954 135.685 169.913C135.643 169.872 135.591 169.842 135.535 169.825C135.479 169.807 135.419 169.803 135.361 169.812C135.303 169.822 135.248 169.845 135.2 169.879C129.21 174.632 124.666 180.963 122.08 188.159C120.431 193.924 120.083 199.983 121.06 205.899C121.456 209.302 122.612 212.571 124.444 215.466C126.275 218.36 128.735 220.805 131.64 222.619C129.44 225.019 115.8 240.879 114.02 267.939C112.849 260.607 110.121 253.61 106.02 247.419C83.0001 211.819 82.0201 197.279 80.7801 177.419C85.1302 176.758 89.0723 174.485 91.823 171.051C94.5737 167.617 95.9316 163.273 95.6267 158.884C95.3218 154.495 93.3765 150.381 90.1775 147.36C86.9784 144.339 82.7598 142.632 78.3601 142.579C77.6304 139.262 75.9887 136.214 73.6201 133.779C71.0547 131.427 67.8691 129.858 64.4401 129.259C64.3806 129.247 64.3191 129.251 64.2612 129.269C64.2033 129.287 64.151 129.32 64.1091 129.364C64.0672 129.408 64.037 129.461 64.0215 129.52C64.0059 129.579 64.0055 129.64 64.0201 129.699C64.7334 133.1 66.398 136.228 68.8201 138.719C70.8177 140.569 73.2122 141.938 75.8201 142.719C71.2054 143.276 67.0009 145.644 64.1316 149.301C61.2623 152.958 59.9632 157.605 60.5201 162.219C61.0771 166.834 63.4445 171.039 67.1014 173.908C70.7584 176.777 75.4054 178.076 80.0201 177.519C81.3801 199.519 83.3401 213.799 105.38 247.879C109.604 254.271 112.338 261.529 113.38 269.119C106.737 265.855 100.444 261.921 94.6001 257.379C93.48 247.926 89.6846 238.99 83.6601 231.619C83.6273 231.57 83.5827 231.529 83.5304 231.501C83.478 231.473 83.4196 231.458 83.3601 231.458C83.3007 231.458 83.2422 231.473 83.1899 231.501C83.1376 231.529 83.093 231.57 83.0601 231.619C81.2056 234.986 79.7492 238.556 78.7201 242.259C61.6827 222.447 52.3345 197.17 52.3801 171.039C52.3801 116.159 91.3801 70.6993 145.12 63.0393C145.221 63.0393 145.318 62.9993 145.389 62.928C145.46 62.8567 145.5 62.7601 145.5 62.6593C145.5 62.5585 145.46 62.4619 145.389 62.3906C145.318 62.3193 145.221 62.2793 145.12 62.2793C125.639 65.2475 107.312 73.3947 92.0571 85.8691C76.8018 98.3434 65.1776 114.687 58.3998 133.191C51.6221 151.695 49.9396 171.68 53.5283 191.056C57.117 210.433 65.8451 228.49 78.8001 243.339C75.5801 255.339 76.8001 266.519 83.9801 278.559C79.26 273.453 73.4868 269.434 67.0601 266.779C58.108 263.675 48.469 263.121 39.2201 265.179C39.1643 265.196 39.113 265.224 39.0701 265.263C39.0272 265.303 38.9938 265.351 38.9725 265.405C38.9513 265.459 38.9427 265.518 38.9475 265.575C38.9523 265.633 38.9703 265.689 39.0001 265.739C44.4511 273.489 51.9508 279.569 60.6601 283.299C65.8803 285.237 71.4121 286.2 76.9801 286.139C80.8623 286.16 84.7341 285.738 88.5201 284.879C90.6801 286.279 107.5 298.199 105.54 327.739C102.98 345.419 106.34 342.139 101.84 334.379C98.7585 329.467 94.3671 325.512 89.1601 322.959C89.1069 322.933 89.048 322.92 88.9886 322.922C88.9291 322.923 88.8711 322.94 88.8196 322.97C88.7681 322.999 88.7247 323.041 88.6934 323.092C88.6621 323.142 88.6438 323.2 88.6401 323.259C88.0714 329.01 89.3061 334.795 92.1731 339.812C95.04 344.829 99.3971 348.83 104.64 351.259L85.0801 356.479C83.7837 356.906 82.6996 357.812 82.0505 359.012C81.4014 360.213 81.2366 361.616 81.5898 362.934C81.943 364.253 82.7875 365.386 83.9499 366.101C85.1123 366.816 86.5043 367.058 87.8401 366.779L128.38 355.759C129.056 355.581 129.691 355.271 130.247 354.847C130.804 354.423 131.271 353.894 131.623 353.289C131.975 352.685 132.205 352.017 132.299 351.324C132.392 350.63 132.349 349.926 132.17 349.249C131.992 348.573 131.681 347.939 131.258 347.382C130.834 346.826 130.305 346.358 129.7 346.006C129.096 345.654 128.428 345.425 127.734 345.331C127.041 345.237 126.336 345.281 125.66 345.459L105.42 350.879C105.516 348.573 105.395 346.263 105.06 343.979C104.74 319.739 114.3 299.659 114.86 278.799C114.87 278.74 114.87 278.679 114.86 278.619C114.86 277.539 114.86 276.279 114.74 273.279C114.74 272.359 114.74 271.439 114.74 270.559C139.297 282.353 167.356 284.615 193.485 276.908C219.613 269.201 241.953 252.072 256.177 228.839C270.401 205.605 275.498 177.921 270.481 151.145C265.465 124.369 250.691 100.407 229.02 83.8993H229.06ZM165.64 198.499C168.894 196.563 172.391 195.07 176.04 194.059C174.913 201.277 171.844 208.053 167.16 213.659C164.552 216.515 161.491 218.92 158.1 220.779C161.292 218.124 163.686 214.637 165.017 210.704C166.348 206.771 166.563 202.547 165.64 198.499ZM152.38 223.459C151.182 223.948 149.953 224.356 148.7 224.679C149.805 217.45 152.861 210.66 157.54 205.039C159.707 202.642 162.205 200.568 164.96 198.879C166.011 203.798 165.334 208.929 163.042 213.407C160.751 217.885 156.985 221.435 152.38 223.459ZM123.1 210.759C128.976 206.012 133.437 199.745 136 192.639C137.018 189.354 137.55 185.938 137.58 182.499C140.393 181.689 143.341 181.453 146.247 181.805C149.153 182.158 151.959 183.091 154.497 184.551C157.035 186.01 159.253 187.965 161.02 190.3C162.787 192.634 164.065 195.3 164.78 198.139C161.878 199.892 159.245 202.054 156.96 204.559C152.115 210.356 148.972 217.383 147.88 224.859C142.739 225.882 137.402 225.02 132.845 222.431C128.287 219.842 124.814 215.699 123.06 210.759H123.1ZM78.2601 176.879C74.9414 176.879 71.6971 175.895 68.9377 174.051C66.1782 172.208 64.0275 169.587 62.7574 166.521C61.4874 163.455 61.1551 160.081 61.8026 156.826C62.45 153.571 64.0482 150.581 66.3949 148.234C68.7416 145.887 71.7315 144.289 74.9865 143.642C78.2415 142.994 81.6154 143.327 84.6816 144.597C87.7477 145.867 90.3684 148.017 92.2122 150.777C94.056 153.536 95.0401 156.781 95.0401 160.099C95.0401 164.55 93.2723 168.818 90.1254 171.965C86.9785 175.111 82.7105 176.879 78.2601 176.879ZM129.24 346.639C130.021 347.093 130.651 347.768 131.049 348.579C131.448 349.389 131.598 350.3 131.48 351.196C131.363 352.091 130.983 352.932 130.389 353.613C129.794 354.293 129.012 354.782 128.14 355.019L87.5601 365.899C86.3852 366.215 85.1331 366.051 84.0791 365.443C83.0252 364.836 82.2557 363.834 81.9401 362.659C81.6245 361.484 81.7886 360.232 82.3962 359.178C83.0038 358.124 84.0052 357.355 85.1801 357.039L125.76 346.159C126.939 345.863 128.186 346.036 129.24 346.639ZM83.6201 232.519C89.1837 239.515 92.756 247.883 93.9601 256.739C88.7333 252.622 83.8932 248.036 79.5001 243.039C80.4873 239.393 81.8688 235.866 83.6201 232.519ZM60.8001 282.519C52.4001 278.928 45.1392 273.112 39.8001 265.699C48.7351 263.817 58.014 264.405 66.6401 267.399C75.0382 270.985 82.2939 276.802 87.6201 284.219C78.6845 286.075 69.4121 285.459 60.8001 282.439V282.519ZM106.38 322.079C106.06 296.459 91.2801 285.679 88.9201 284.079C93.1157 276.164 95.1832 267.294 94.9201 258.339C100.79 262.821 107.087 266.713 113.72 269.959C115.66 286.879 109.66 303.679 106.38 322.079Z" fill="#1890ff"/>
<path d="M147.8 210.619C148.096 210.102 148.287 209.532 148.361 208.941C148.436 208.35 148.393 207.75 148.235 207.176C148.077 206.602 147.807 206.064 147.441 205.594C147.074 205.125 146.619 204.732 146.1 204.439L144.1 203.319L147.86 196.739C149.704 197.944 151.628 199.02 153.62 199.959C153.7 199.954 153.777 199.924 153.839 199.873C153.9 199.822 153.944 199.752 153.964 199.675C153.984 199.597 153.979 199.515 153.95 199.44C153.92 199.366 153.868 199.302 153.8 199.259L148.22 196.079L149.58 193.699C149.618 193.658 149.646 193.608 149.663 193.554C149.679 193.5 149.684 193.443 149.675 193.387C149.667 193.331 149.646 193.278 149.615 193.231C149.583 193.185 149.542 193.145 149.493 193.116C149.445 193.088 149.391 193.07 149.334 193.065C149.278 193.06 149.222 193.067 149.169 193.086C149.116 193.106 149.068 193.137 149.028 193.177C148.989 193.217 148.959 193.266 148.94 193.319L147.58 195.699L145.58 194.579C144.799 194.141 143.906 193.943 143.013 194.009C142.12 194.075 141.266 194.402 140.558 194.95C139.85 195.499 139.319 196.243 139.031 197.091C138.743 197.939 138.712 198.853 138.94 199.719C139.095 200.299 139.364 200.841 139.731 201.315C140.099 201.789 140.558 202.185 141.08 202.479L143.08 203.599L139.32 210.179L133.78 207.039C133.693 206.989 133.589 206.975 133.491 207.002C133.394 207.028 133.311 207.092 133.26 207.179C133.21 207.267 133.196 207.371 133.222 207.468C133.249 207.566 133.313 207.649 133.4 207.699L138.98 210.879L137.62 213.259C137.589 213.318 137.573 213.383 137.575 213.449C137.577 213.515 137.596 213.58 137.63 213.637C137.664 213.693 137.713 213.74 137.771 213.772C137.829 213.804 137.894 213.82 137.96 213.819C138.24 213.819 138.16 213.819 139.64 211.239C140.845 212.206 142.303 212.803 143.84 212.959C144.649 212.957 145.442 212.739 146.138 212.328C146.835 211.917 147.408 211.327 147.8 210.619ZM141.52 201.819C140.648 201.321 140.009 200.496 139.744 199.526C139.48 198.557 139.612 197.522 140.11 196.649C140.609 195.777 141.434 195.138 142.403 194.874C143.373 194.609 144.408 194.741 145.28 195.239L147.28 196.359L143.48 203.039L141.52 201.819ZM141.96 211.659L139.96 210.559L143.7 203.959L145.7 205.079C146.135 205.324 146.517 205.654 146.823 206.049C147.129 206.444 147.352 206.896 147.48 207.379C147.667 208.099 147.639 208.858 147.399 209.561C147.16 210.265 146.719 210.883 146.131 211.339C145.543 211.794 144.835 212.068 144.094 212.125C143.352 212.182 142.61 212.02 141.96 211.659Z" fill="#1890ff"/>
<path d="M225.92 82.6192C224.82 82.6192 203.64 62.4792 166.84 59.9392C166.739 59.9392 166.643 59.8992 166.571 59.8279C166.5 59.7566 166.46 59.66 166.46 59.5592C166.46 59.4584 166.5 59.3618 166.571 59.2905C166.643 59.2192 166.739 59.1792 166.84 59.1792C188.417 60.704 209.05 68.6283 226.1 81.9392C226.16 81.9847 226.206 82.047 226.23 82.1184C226.255 82.1897 226.258 82.2667 226.238 82.3396C226.219 82.4126 226.179 82.4781 226.122 82.5279C226.065 82.5777 225.995 82.6095 225.92 82.6192Z" fill="#1890ff"/>
<path d="M339.56 148.919C339.56 148.919 314.26 167.559 303.42 184.919C297.753 178.811 293.034 171.887 289.42 164.379C277.42 139.939 262.3 139.579 255.62 137.599C251.34 142.959 243.22 148.079 236.04 151.199C231.112 170.038 227.945 189.294 226.58 208.719C226.31 212.236 227.097 215.753 228.84 218.819L261.52 276.379C269.435 274.179 276.851 270.471 283.36 265.459C275.36 242.959 268.42 222.039 256.16 207.459C259.1 201.739 263.34 193.919 266.16 187.679C271.54 196.679 280.54 205.679 291.7 213.959C295.254 216.606 299.672 217.822 304.079 217.367C308.487 216.911 312.563 214.817 315.5 211.499L356.88 164.799C352.109 158.507 346.242 153.127 339.56 148.919Z" fill="#FFE7EA"/>
<path d="M150.62 82.0192L131.14 44.1592C131.101 44.0762 131.031 44.0113 130.946 43.9779C130.86 43.9444 130.765 43.9449 130.68 43.9792L93.0801 57.4192C92.9935 57.451 92.9214 57.5131 92.8773 57.594C92.8331 57.675 92.8199 57.7692 92.8401 57.8592L97.0201 77.2592L70.6201 68.0192C70.5298 67.9923 70.4327 68 70.3477 68.0406C70.2627 68.0813 70.1959 68.152 70.1601 68.2392L68.3801 72.4392C68.3601 72.4825 68.3488 72.5293 68.3471 72.577C68.3453 72.6247 68.353 72.6722 68.3697 72.7169C68.3865 72.7615 68.4119 72.8024 68.4446 72.8371C68.4773 72.8719 68.5166 72.8998 68.5601 72.9192L99.5001 88.7592C102.02 100.459 101.78 99.6192 102 99.7392C102.22 99.8592 102 99.7392 105.26 98.6992C105.356 98.6647 105.433 98.5937 105.477 98.5019C105.52 98.41 105.525 98.3047 105.49 98.2092C105.456 98.1137 105.385 98.0359 105.293 97.9927C105.201 97.9496 105.096 97.9447 105 97.9792C104.66 97.1792 106.18 96.6192 109.78 96.5592C109.783 96.6177 109.8 96.6746 109.829 96.7256C109.857 96.7765 109.897 96.8202 109.946 96.8531C109.994 96.886 110.05 96.9073 110.108 96.9153C110.166 96.9233 110.225 96.9178 110.28 96.8992L129.96 89.8592C130.033 89.8137 130.088 89.7449 130.116 89.6641C130.145 89.5833 130.145 89.4952 130.118 89.4141C130.09 89.333 130.035 89.2637 129.963 89.2174C129.891 89.1711 129.805 89.1506 129.72 89.1592C129.08 87.1592 129.06 85.7792 132.18 88.3192C132.127 88.3833 132.097 88.463 132.094 88.546C132.09 88.629 132.114 88.7109 132.162 88.7789C132.21 88.847 132.278 88.8976 132.357 88.9229C132.437 88.9483 132.522 88.947 132.6 88.9192L150.6 82.4992C150.662 82.4357 150.698 82.3516 150.702 82.263C150.706 82.1745 150.676 82.0877 150.62 82.0192Z" fill="#1890ff"/>
<path d="M49.4401 95.5393C45.1401 86.5993 45.4401 87.0993 45.2001 87.0393C44.9601 86.9793 45.6201 86.6393 36.9801 91.7793C36.9368 91.8042 36.8988 91.8375 36.8683 91.8771C36.8378 91.9168 36.8154 91.962 36.8024 92.0103C36.7894 92.0586 36.7861 92.109 36.7925 92.1585C36.799 92.2081 36.8152 92.256 36.8401 92.2993C36.8905 92.3868 36.9736 92.4507 37.0711 92.477C37.1194 92.49 37.1698 92.4934 37.2194 92.4869C37.269 92.4804 37.3168 92.4642 37.3601 92.4393L44.3801 88.2193L37.7001 109.819C15.3601 117.279 16.6801 116.779 16.5801 117.039L10.0401 130.699C10.0178 130.744 10.0045 130.793 10.001 130.842C9.99742 130.892 10.0037 130.942 10.0195 130.99C10.0353 131.037 10.0603 131.081 10.093 131.118C10.1257 131.156 10.1655 131.187 10.2101 131.209C10.2548 131.232 10.3034 131.245 10.3532 131.248C10.403 131.252 10.453 131.246 10.5003 131.23C10.5477 131.214 10.5915 131.189 10.6292 131.156C10.6669 131.124 10.6978 131.084 10.7201 131.039L17.1801 117.459L38.1801 110.479C38.4601 110.479 37.9601 111.719 45.1801 88.4793L48.7601 95.9393C48.8132 96.0295 48.8999 96.0949 49.0011 96.1211C49.1024 96.1474 49.21 96.1323 49.3001 96.0793C49.3903 96.0262 49.4557 95.9396 49.482 95.8383C49.5082 95.737 49.4932 95.6295 49.4401 95.5393Z" fill="#1890ff"/>
<path d="M84.3802 163.039C84.2934 162.058 83.8267 161.149 83.0795 160.506C82.3323 159.863 81.3637 159.538 80.3802 159.599L78.6201 159.759L78.0801 153.759L83.2201 153.279C83.3036 153.26 83.378 153.213 83.4313 153.145C83.4846 153.078 83.5136 152.995 83.5136 152.909C83.5136 152.824 83.4846 152.74 83.4313 152.673C83.378 152.606 83.3036 152.559 83.2201 152.539L78.0602 152.999L77.8602 150.839C77.8602 150.319 77.0801 150.439 77.1201 150.839L77.3202 152.979C75.5602 153.139 74.1802 152.979 73.0002 154.499C72.5391 155.047 72.2443 155.716 72.1504 156.426C72.0564 157.136 72.1672 157.858 72.4698 158.507C72.7723 159.157 73.254 159.706 73.8582 160.091C74.4624 160.476 75.1639 160.68 75.8802 160.679L78.0002 160.519L78.5402 166.519L73.3202 167.039C73.2367 167.059 73.1623 167.106 73.109 167.173C73.0557 167.24 73.0267 167.324 73.0267 167.409C73.0267 167.495 73.0557 167.578 73.109 167.645C73.1623 167.713 73.2367 167.76 73.3202 167.779L78.5002 167.319L78.6802 169.479C78.6802 169.58 78.7202 169.677 78.7915 169.748C78.8627 169.819 78.9594 169.859 79.0602 169.859C79.1609 169.859 79.2576 169.819 79.3289 169.748C79.4001 169.677 79.4401 169.58 79.4401 169.479L79.2402 167.339L81.0002 167.179C81.4949 167.132 81.9753 166.987 82.4136 166.752C82.8519 166.518 83.2395 166.199 83.5538 165.814C83.8681 165.429 84.103 164.986 84.2448 164.51C84.3867 164.033 84.4326 163.533 84.3802 163.039ZM76.0002 159.999C75.5906 160.066 75.1717 160.048 74.7695 159.946C74.3673 159.844 73.9905 159.66 73.6626 159.405C73.3347 159.151 73.0627 158.832 72.8635 158.468C72.6644 158.104 72.5424 157.703 72.5052 157.289C72.468 156.876 72.5164 156.46 72.6473 156.066C72.7783 155.672 72.9889 155.31 73.2662 155.001C73.5435 154.692 73.8814 154.444 74.2588 154.272C74.6363 154.099 75.0453 154.007 75.4602 153.999L77.2201 153.839L77.7601 159.839L76.0002 159.999ZM82.9401 165.299C82.6951 165.603 82.3921 165.855 82.0487 166.04C81.7054 166.226 81.3285 166.341 80.9401 166.379L79.1402 166.539L78.5801 160.539L80.3401 160.379C80.9245 160.325 81.5121 160.442 82.0311 160.716C82.55 160.99 82.9777 161.41 83.2621 161.923C83.5464 162.437 83.6749 163.022 83.6319 163.607C83.589 164.193 83.3764 164.753 83.0202 165.219L82.9401 165.299Z" fill="#1890ff"/>
<path d="M156 311.339L130.68 299.839C124.28 296.919 119.82 306.559 126.22 309.519L151.58 321.039C157.92 323.899 162.38 314.299 156 311.339ZM151.86 320.339L126.54 308.839C125.437 308.33 124.581 307.403 124.161 306.263C123.741 305.123 123.791 303.863 124.3 302.759C124.809 301.656 125.736 300.8 126.876 300.38C128.016 299.96 129.277 300.01 130.38 300.519L155.7 312.019C161.2 314.579 157.28 322.819 151.86 320.339Z" fill="#1890ff"/>
<path d="M200.74 298.719C199.214 298.717 197.722 298.268 196.449 297.427C195.176 296.585 194.177 295.389 193.577 293.985C192.977 292.582 192.802 291.034 193.074 289.532C193.345 288.03 194.051 286.641 195.104 285.537C196.158 284.432 197.512 283.661 198.999 283.318C200.486 282.976 202.041 283.077 203.471 283.61C204.901 284.142 206.144 285.082 207.045 286.314C207.946 287.546 208.466 289.015 208.54 290.539C208.592 291.595 208.428 292.65 208.059 293.641C207.69 294.632 207.124 295.537 206.394 296.302C205.665 297.067 204.788 297.676 203.816 298.091C202.844 298.507 201.797 298.721 200.74 298.719ZM200.74 283.879C199.562 283.874 198.401 284.164 197.364 284.722C196.326 285.281 195.445 286.09 194.801 287.076C194.156 288.062 193.768 289.194 193.673 290.368C193.578 291.543 193.778 292.722 194.255 293.799C194.733 294.877 195.472 295.817 196.406 296.535C197.34 297.254 198.438 297.727 199.602 297.912C200.766 298.097 201.957 297.987 203.067 297.594C204.178 297.201 205.172 296.535 205.96 295.659C206.861 294.645 207.451 293.393 207.661 292.053C207.87 290.713 207.691 289.34 207.143 288.1C206.595 286.859 205.702 285.801 204.571 285.053C203.439 284.305 202.117 283.897 200.76 283.879H200.74Z" fill="#1890ff"/>
<path d="M220.82 316.639C219.294 316.637 217.802 316.188 216.529 315.347C215.256 314.505 214.257 313.309 213.657 311.905C213.057 310.502 212.882 308.954 213.154 307.452C213.425 305.95 214.131 304.561 215.184 303.457C216.238 302.352 217.592 301.581 219.079 301.238C220.566 300.896 222.121 300.997 223.551 301.53C224.981 302.062 226.224 303.002 227.125 304.234C228.026 305.466 228.546 306.935 228.62 308.459C228.672 309.515 228.508 310.57 228.139 311.561C227.77 312.552 227.204 313.457 226.474 314.222C225.745 314.987 224.868 315.596 223.896 316.011C222.924 316.427 221.877 316.641 220.82 316.639ZM220.82 301.799C219.414 301.801 218.04 302.224 216.876 303.014C215.712 303.803 214.811 304.923 214.29 306.23C213.769 307.536 213.65 308.969 213.951 310.343C214.251 311.717 214.956 312.969 215.975 313.939C216.994 314.909 218.28 315.551 219.667 315.783C221.054 316.015 222.479 315.826 223.758 315.241C225.037 314.655 226.111 313.7 226.843 312.499C227.574 311.297 227.928 309.904 227.86 308.499C227.763 306.699 226.983 305.003 225.679 303.757C224.374 302.512 222.643 301.812 220.84 301.799H220.82Z" fill="#1890ff"/>
<path d="M194.62 317.939C194.546 317.94 194.473 317.918 194.41 317.878C194.348 317.838 194.299 317.78 194.269 317.712C194.239 317.643 194.23 317.568 194.243 317.495C194.255 317.421 194.289 317.353 194.34 317.299L226.68 281.639C226.749 281.565 226.845 281.521 226.946 281.517C227.047 281.514 227.146 281.55 227.22 281.619C227.294 281.688 227.338 281.784 227.342 281.885C227.346 281.986 227.309 282.085 227.24 282.159C192.5 320.359 194.88 317.939 194.62 317.939Z" fill="#1890ff"/>
<path d="M308.22 130.799C308.172 130.805 308.124 130.8 308.078 130.786C308.032 130.771 307.989 130.747 307.953 130.715C307.918 130.683 307.889 130.643 307.869 130.599C307.85 130.555 307.84 130.507 307.84 130.459L306.94 112.279C306.94 112.178 306.98 112.082 307.051 112.01C307.123 111.939 307.219 111.899 307.32 111.899C307.421 111.899 307.518 111.939 307.589 112.01C307.66 112.082 307.7 112.178 307.7 112.279L308.58 130.459C308.575 130.551 308.535 130.638 308.468 130.701C308.401 130.764 308.312 130.799 308.22 130.799Z" fill="#1890ff"/>
<path d="M298.68 122.159C298.597 122.14 298.522 122.093 298.469 122.025C298.416 121.958 298.387 121.875 298.387 121.789C298.387 121.704 298.416 121.62 298.469 121.553C298.522 121.486 298.597 121.439 298.68 121.419L316.86 120.519C316.961 120.519 317.058 120.559 317.129 120.631C317.2 120.702 317.24 120.799 317.24 120.899C317.24 121 317.2 121.097 317.129 121.168C317.058 121.239 316.961 121.279 316.86 121.279L298.68 122.159Z" fill="#1890ff"/>
<path d="M390.56 131.499C390.616 131.448 390.655 131.382 390.673 131.309C390.691 131.236 390.686 131.16 390.661 131.089C390.635 131.018 390.589 130.957 390.528 130.912C390.468 130.868 390.395 130.842 390.32 130.839C381.04 130.439 357.84 136.259 350.76 140.159C350.28 140.439 346.46 146.499 342.76 150.639C341.76 149.946 340.74 149.279 339.7 148.639C339.639 148.595 339.565 148.572 339.49 148.572C339.415 148.572 339.341 148.595 339.28 148.639C339 148.839 314.28 167.179 303.28 184.399C297.772 178.446 293.181 171.706 289.66 164.399C279.22 142.759 266.38 139.799 258.6 138.019C257.52 137.779 256.6 137.559 255.78 137.319C254.493 136.338 253.258 135.29 252.08 134.179C253.458 134.217 254.835 134.082 256.18 133.779C258.561 133.39 260.802 132.391 262.683 130.881C264.565 129.371 266.025 127.4 266.92 125.159C267.793 123.185 268.21 121.041 268.141 118.884C268.071 116.727 267.518 114.613 266.52 112.699C261.84 103.979 248.62 100.379 245.9 99.7192C246.9 97.7192 250.52 88.8592 242.22 83.8792C235.54 79.8792 230 78.6592 225.78 80.2992C224.475 80.8217 223.294 81.6137 222.315 82.6234C221.336 83.6332 220.582 84.838 220.1 86.1592C219.62 87.3392 217.34 92.8392 216.82 94.1592C199.48 84.9192 171.08 64.2792 170.82 64.1592C170.759 64.1153 170.685 64.0916 170.61 64.0916C170.535 64.0916 170.461 64.1153 170.4 64.1592C169.88 64.4592 169.36 64.7592 168.86 65.0992C167.82 63.2009 167.244 61.083 167.18 58.9192C167.161 56.7395 166.523 54.6101 165.34 52.7792C163.68 50.7792 162.48 49.6792 160.44 51.2392C159.96 50.6592 158.44 48.9592 158.44 48.9592C158.077 48.5003 157.573 48.173 157.006 48.0272C156.439 47.8814 155.84 47.9252 155.301 48.152C154.761 48.3787 154.311 48.7759 154.018 49.2828C153.725 49.7897 153.607 50.3785 153.68 50.9592C153.237 50.4193 152.603 50.0719 151.909 49.9899C151.216 49.908 150.518 50.0979 149.961 50.5197C149.405 50.9415 149.033 51.5626 148.925 52.2524C148.817 52.9422 148.98 53.6471 149.38 54.2192C148.851 54.1247 148.306 54.1914 147.815 54.4106C147.325 54.6299 146.911 54.9915 146.629 55.4487C146.346 55.9058 146.208 56.4373 146.231 56.9741C146.255 57.511 146.439 58.0284 146.76 58.4592C146.9 58.6192 147.04 58.7992 147.22 58.9792C146.74 58.9627 146.265 59.0793 145.847 59.3163C145.43 59.5532 145.086 59.9012 144.854 60.3217C144.622 60.7421 144.511 61.2186 144.533 61.6983C144.556 62.1779 144.71 62.6421 144.98 63.0392C145.28 63.3792 145.6 63.7192 145.96 64.0592C145.96 65.1792 146.56 70.8392 159.06 78.5592C158.78 79.3392 158.54 80.1392 158.32 80.9392C158.302 81.0153 158.306 81.095 158.33 81.1692C158.355 81.2434 158.4 81.3092 158.46 81.3592C168.2 88.4192 192.22 105.539 202.8 111.359C196.318 114.684 190.152 118.594 184.38 123.039C182.88 122.019 171.66 114.359 153.98 102.519C153.919 102.484 153.85 102.466 153.78 102.466C153.71 102.466 153.641 102.484 153.58 102.519C152.96 102.879 152.34 103.259 151.76 103.639C145.802 99.5634 140.099 95.1285 134.68 90.3592C131.02 86.8792 129.84 86.3592 129.22 86.8592C128.6 87.3592 129.34 89.8992 129.76 91.0392C130.44 92.8392 134.68 98.6792 133.76 100.159C133.5 100.599 132.8 100.459 132.6 100.519C125.571 98.3021 118.31 96.8996 110.96 96.3392C104.62 96.2392 104.46 97.4192 104.4 97.7992C104.391 97.9808 104.425 98.1619 104.498 98.3284C104.571 98.4949 104.681 98.6424 104.82 98.7592C106.38 100.319 110.38 100.999 115.28 102.759C113 102.759 110.3 102.959 110.14 102.959C107 103.139 105.3 103.739 105.2 104.719C105.197 104.948 105.276 105.171 105.423 105.347C105.569 105.523 105.774 105.641 106 105.679C108.66 106.339 112.86 106.999 115.9 107.679C114.48 107.999 110.78 108.819 110.88 110.299C110.913 110.527 111.025 110.737 111.197 110.89C111.369 111.044 111.59 111.132 111.82 111.139C119.52 111.759 123.3 110.439 134.82 114.139C135.98 114.899 138.82 117.239 140.94 119.079C140.72 119.919 140.54 120.799 140.38 121.699C140.365 121.769 140.371 121.842 140.395 121.909C140.42 121.977 140.463 122.036 140.52 122.079C140.68 122.199 156.12 133.359 166.8 141.019C175.48 147.239 181.08 150.839 190.56 146.339C197.588 142.626 204.406 138.527 210.98 134.059C217.32 140.059 227.44 148.059 235.52 151.599C230.649 170.359 227.509 189.526 226.14 208.859C225.856 212.452 226.658 216.047 228.44 219.179C262.6 279.339 261.06 276.859 261.4 276.939C262.871 276.616 264.321 276.202 265.74 275.699L270.1 283.259C273.74 302.459 277.28 310.619 283.2 320.039C284.06 321.399 284.16 321.039 284.6 319.799C287.92 310.619 289.62 287.799 288.26 280.179C288.14 279.539 283.44 273.879 280.26 268.179C281.36 267.459 282.46 266.679 283.58 265.879C283.649 265.831 283.699 265.762 283.725 265.683C283.75 265.603 283.748 265.518 283.72 265.439C276.38 244.819 269.4 222.639 256.6 207.439C259.24 202.299 263.3 194.839 266.26 188.499C271.48 196.979 279.98 205.659 291.52 214.279C295.157 216.961 299.663 218.189 304.158 217.723C308.652 217.257 312.811 215.13 315.82 211.759L357.22 165.039C357.267 164.972 357.293 164.892 357.293 164.809C357.293 164.727 357.267 164.647 357.22 164.579C356.46 163.579 355.66 162.579 354.84 161.639L359.58 156.359C376.9 146.479 383.4 140.459 390.56 131.499ZM220.72 86.6192C221.456 86.5752 222.195 86.6222 222.92 86.7592C222.56 87.9992 222.2 90.0392 222.92 90.4792C223.16 90.6192 223.54 90.6592 224.08 90.0792C225.9 88.0792 227.46 91.0792 223.88 93.5792C223.821 93.6172 223.775 93.6715 223.747 93.7354C223.718 93.7993 223.709 93.8702 223.72 93.9392C225.25 103.352 228.65 112.363 233.72 120.439C229.72 117.499 225.54 109.319 219.22 107.819C220.642 105.313 221.879 102.706 222.92 100.019C222.945 99.9533 222.951 99.8817 222.938 99.8125C222.925 99.7433 222.892 99.6791 222.844 99.6272C222.797 99.5754 222.736 99.5378 222.668 99.5187C222.6 99.4996 222.528 99.4998 222.46 99.5192C221 99.9592 216.72 101.159 216.3 99.6792C216.08 97.2392 218.14 93.0392 220.72 86.6192ZM157.9 49.3992L159.9 51.6592C159.2 52.2992 158.36 53.1992 157.28 54.3992C156.417 53.5232 155.609 52.5948 154.86 51.6192C154.744 51.2241 154.753 50.8028 154.885 50.4128C155.017 50.0228 155.267 49.6832 155.6 49.4403C155.932 49.1974 156.332 49.0631 156.743 49.0558C157.155 49.0484 157.559 49.1684 157.9 49.3992ZM153.22 51.3992C153.98 52.2192 155.78 54.0392 156.64 54.9592L155.74 55.9592C154.42 57.4192 155.74 59.6592 158.78 58.6192C158.774 58.9678 158.66 59.306 158.455 59.588C158.25 59.87 157.964 60.0821 157.634 60.1957C157.304 60.3092 156.948 60.3186 156.613 60.2226C156.277 60.1267 155.98 59.93 155.76 59.6592C153.64 57.4592 151.08 54.9992 150.1 53.6592C149.97 53.2535 149.972 52.8168 150.107 52.4127C150.243 52.0086 150.503 51.6582 150.852 51.4126C151.2 51.167 151.617 51.0391 152.044 51.0475C152.47 51.0559 152.882 51.2001 153.22 51.4592V51.3992ZM150.38 55.3992C152.04 57.1192 153.92 59.0192 155.36 60.6792C157.22 62.6792 154.76 65.0992 152.7 63.0792C150.64 61.0592 148.38 59.0392 147.36 57.8792C147.21 57.4794 147.192 57.0422 147.309 56.6314C147.426 56.2207 147.671 55.8581 148.008 55.5966C148.346 55.3351 148.758 55.1884 149.185 55.1781C149.611 55.1678 150.03 55.2943 150.38 55.5392V55.3992ZM145.56 62.4592C145.399 62.0842 145.366 61.6661 145.469 61.2707C145.571 60.8754 145.802 60.5253 146.125 60.2755C146.448 60.0258 146.845 59.8906 147.253 59.8913C147.661 59.8919 148.058 60.0284 148.38 60.2792C149.94 61.7992 150.98 62.8192 152.5 64.4392C154.32 66.4392 152.02 68.6792 149.98 66.7992C147.94 64.9192 146.54 63.7592 145.56 62.5992V62.4592ZM146.8 64.7592C147.06 64.9992 148.8 66.5392 149.52 67.2192C152.02 69.5192 154.98 66.9792 153.62 64.4992C154.072 64.6091 154.546 64.5876 154.986 64.4371C155.426 64.2866 155.814 64.0135 156.104 63.6499C156.394 63.2863 156.574 62.8474 156.623 62.3848C156.672 61.9223 156.588 61.4554 156.38 61.0392C156.843 61.218 157.357 61.218 157.82 61.0392C157.099 62.9868 157.164 65.1384 158 67.0392C158.043 67.132 158.12 67.2042 158.216 67.2398C158.311 67.2755 158.417 67.2717 158.51 67.2292C158.603 67.1868 158.675 67.1092 158.711 67.0136C158.746 66.9179 158.743 66.812 158.7 66.7192C157.24 63.3992 158.46 59.6192 161.86 56.8992C162.24 56.3792 161.68 56.0592 161.38 56.2992C160.64 56.9406 159.811 57.4727 158.92 57.8792C156.38 58.9992 155.38 57.5592 156.24 56.5992C161.78 50.5992 161.92 50.0392 164.68 53.2792C166.96 55.9592 165.68 61.9392 168.16 65.5592C163.991 68.6858 160.879 73.0127 159.24 77.9592C149.26 71.6192 147.22 66.8192 146.8 64.8992V64.7592ZM165.08 85.0792L159.08 80.7992C161.08 73.2992 165.08 67.8992 170.5 64.7992L176.38 69.0392C171.138 73.2354 167.215 78.8526 165.08 85.2192V85.0792ZM165.72 85.5392C167.785 79.1362 171.686 73.4816 176.94 69.2792C186.48 75.9992 204.3 88.2592 216.56 94.7792C214.72 99.8992 215.14 102.319 220.56 103.439C219.9 104.839 219.2 106.159 218.42 107.439C214.56 106.799 209.62 107.899 203.56 110.739C194.94 106.319 175.94 93.0392 165.72 85.6792V85.5392ZM111.94 110.279C111.8 110.279 111.7 110.279 111.7 110.159C111.7 110.039 112.38 109.139 115.7 108.419L117.7 107.979C122.279 109.137 126.792 110.539 131.22 112.179C121.92 109.799 119.6 110.899 111.94 110.279ZM105.94 104.679C105.94 104.459 106.78 103.799 110.16 103.619C110.36 103.619 114.98 103.339 117.16 103.399C122.461 105.412 127.43 108.21 131.9 111.699C119.58 106.419 105.94 105.399 106.02 104.679H105.94ZM110.6 100.359C108.846 99.9579 107.165 99.2829 105.62 98.3592C104.9 97.8392 105.04 97.6592 105.76 97.4192C107.152 97.0726 108.589 96.9444 110.02 97.0392C112.58 96.7592 125.9 98.5792 137.1 102.799C137.58 102.959 137.84 102.259 137.38 102.099C136.28 101.679 135.18 101.299 134.08 100.919C136.44 99.3792 131.32 92.9192 130.52 90.7392C130.36 90.2992 129.4 87.8192 129.66 87.4392C129.96 87.4392 131.22 88.0392 134.2 90.8792C139.577 95.6002 145.227 100.001 151.12 104.059C146.192 107.44 142.643 112.48 141.12 118.259C131.18 109.779 124.38 104.199 110.68 100.359H110.6ZM141.22 121.499C141.761 117.682 143.178 114.042 145.361 110.863C147.543 107.685 150.432 105.055 153.8 103.179L159.92 107.179C153.726 111.888 149.46 118.693 147.92 126.319L141.22 121.499ZM220.72 141.239C215.52 132.099 215 131.239 214.72 130.819C214.681 130.776 214.633 130.742 214.58 130.718C214.526 130.695 214.468 130.683 214.41 130.683C214.352 130.683 214.294 130.695 214.241 130.718C214.187 130.742 214.14 130.776 214.1 130.819C206.543 136.273 198.617 141.198 190.38 145.559C181.84 149.559 177.06 147.219 167.4 140.299C161.52 136.099 154.22 130.819 148.8 126.919C150.233 119.269 154.469 112.429 160.68 107.739C173.7 116.479 182.04 122.159 183.88 123.399C182 124.799 180.08 126.279 178.08 127.839C178.041 127.871 178.008 127.91 177.984 127.954C177.959 127.998 177.944 128.047 177.938 128.097C177.933 128.147 177.937 128.198 177.951 128.246C177.965 128.295 177.989 128.34 178.02 128.379C178.052 128.419 178.091 128.451 178.135 128.476C178.179 128.5 178.228 128.515 178.278 128.521C178.328 128.527 178.379 128.522 178.427 128.508C178.476 128.494 178.521 128.471 178.56 128.439C200.38 111.139 214.58 105.039 222 109.759C227.3 113.139 230.88 120.159 234.66 121.759C235.68 123.399 236.66 124.899 237.64 126.239C239.148 128.436 241.121 130.274 243.42 131.623C245.719 132.971 248.286 133.796 250.94 134.039C252.24 135.335 253.623 136.544 255.08 137.659C250.5 143.199 242.32 148.059 236.04 150.799C230.553 148.268 225.405 145.056 220.72 141.239ZM281.4 271.439C276.848 273.402 272.517 275.842 268.48 278.719L266.48 275.339C271.092 273.574 275.493 271.3 279.6 268.559C280.24 269.599 280.8 270.539 281.4 271.439ZM356.38 164.799L315.2 211.259C312.315 214.491 308.328 216.53 304.018 216.977C299.709 217.425 295.388 216.249 291.9 213.679C280.24 204.979 271.72 196.219 266.58 187.679C278.16 162.399 272.22 155.479 269.32 152.079L268.78 151.439C268.716 151.371 268.628 151.329 268.534 151.321C268.44 151.314 268.347 151.341 268.273 151.398C268.198 151.456 268.147 151.539 268.13 151.631C268.113 151.724 268.131 151.819 268.18 151.899L268.76 152.579C271.44 155.719 277.72 163.039 264.52 190.279C260.66 198.279 255.08 208.279 253.12 212.799C253.1 212.845 253.09 212.895 253.089 212.945C253.089 212.995 253.098 213.044 253.117 213.091C253.135 213.137 253.163 213.179 253.198 213.215C253.233 213.251 253.274 213.28 253.32 213.299C253.366 213.319 253.415 213.329 253.465 213.33C253.516 213.331 253.565 213.321 253.612 213.303C253.658 213.284 253.7 213.257 253.736 213.222C253.772 213.187 253.8 213.145 253.82 213.099C254.4 211.739 255.2 210.079 256.16 208.199C268.78 223.259 275.6 245.019 282.86 265.419C279.678 267.744 276.336 269.843 272.86 271.699L255.4 238.359C255.345 238.286 255.266 238.236 255.177 238.217C255.088 238.197 254.995 238.211 254.915 238.255C254.835 238.298 254.773 238.369 254.741 238.454C254.709 238.54 254.709 238.634 254.74 238.719L272.18 272.059C268.85 273.771 265.343 275.112 261.72 276.059L229.18 218.719C227.467 215.723 226.7 212.279 226.98 208.839C228.341 189.497 231.488 170.322 236.38 151.559C242.76 148.759 251.14 143.799 255.78 138.099C263.62 140.319 277.54 141.039 289.1 164.619C292.666 172.085 297.339 178.969 302.96 185.039C301.441 187.445 300.2 190.014 299.26 192.699C299.23 192.748 299.211 192.802 299.204 192.859C299.198 192.916 299.205 192.974 299.224 193.028C299.243 193.082 299.274 193.131 299.315 193.171C299.355 193.211 299.405 193.242 299.459 193.261C299.513 193.279 299.571 193.285 299.627 193.278C299.684 193.272 299.739 193.252 299.787 193.221C299.835 193.19 299.876 193.149 299.906 193.1C299.936 193.051 299.954 192.996 299.96 192.939C305.96 174.939 336.74 151.499 339.58 149.379C343.466 151.83 347.085 154.678 350.38 157.879L329.38 179.499C329.04 179.839 329.58 180.379 329.92 180.019L350.92 158.399C352.87 160.418 354.694 162.556 356.38 164.799ZM354.38 161.039C351.128 157.306 347.465 153.951 343.46 151.039L344.84 149.439C348.158 153.159 351.866 156.511 355.9 159.439L354.38 161.039Z" fill="#1890ff"/>
<path d="M159.88 51.6192C160.089 51.4324 160.31 51.2587 160.54 51.0992C160.253 49.7586 159.683 48.4945 158.869 47.391C158.055 46.2875 157.016 45.3699 155.82 44.6992C148.22 40.4392 139.2 46.4992 135.02 53.9792C134.97 54.0668 134.956 54.1707 134.982 54.2682C135.009 54.3657 135.073 54.4488 135.16 54.4992C135.248 54.5496 135.352 54.5632 135.449 54.5369C135.547 54.5107 135.63 54.4468 135.68 54.3592C139.58 47.3392 148.18 41.2792 155.46 45.3592C156.613 46.012 157.607 46.9118 158.371 47.9941C159.136 49.0764 159.651 50.3144 159.88 51.6192Z" fill="#1890ff"/>
<path d="M149.22 67.0392L144.5 71.5592C144.45 71.6122 144.417 71.6783 144.403 71.7498C144.39 71.8214 144.397 71.8952 144.425 71.9626C144.452 72.03 144.498 72.0881 144.558 72.13C144.617 72.172 144.687 72.196 144.76 72.1992C144.98 72.1992 144.6 72.4992 149.78 67.5392C149.6 67.4392 149.48 67.3192 149.22 67.0392Z" fill="#1890ff"/>
</svg>
