<svg width="400" height="400" viewBox="0 0 400 400" fill="none" xmlns="http://www.w3.org/2000/svg">
<path d="M229.06 83.2177C228.98 83.1683 228.884 83.1505 228.792 83.1675C228.699 83.1846 228.617 83.2354 228.559 83.31C228.502 83.3847 228.475 83.4779 228.482 83.5717C228.49 83.6655 228.532 83.7531 228.6 83.8177C249.949 100.307 264.447 124.106 269.307 150.64C274.167 177.173 269.045 204.567 254.927 227.552C240.809 250.537 218.691 267.491 192.827 275.153C166.963 282.815 139.18 280.644 114.82 269.058C116.14 240.658 130.7 224.358 132.38 222.358C135.438 224.098 138.861 225.1 142.375 225.284C145.889 225.468 149.397 224.829 152.62 223.418C158.32 221.255 163.46 217.837 167.66 213.418C172.548 207.533 175.711 200.41 176.8 192.838C176.804 192.778 176.794 192.718 176.772 192.663C176.749 192.608 176.715 192.558 176.671 192.518C176.626 192.477 176.574 192.447 176.517 192.43C176.46 192.413 176.399 192.409 176.34 192.418C172.5 193.424 168.818 194.959 165.4 196.978C164.641 194.071 163.31 191.346 161.483 188.961C159.657 186.576 157.373 184.58 154.765 183.089C152.157 181.599 149.277 180.645 146.296 180.282C143.314 179.919 140.289 180.156 137.4 180.978C137.399 177.055 136.853 173.151 135.78 169.378C135.76 169.322 135.728 169.272 135.685 169.231C135.643 169.191 135.591 169.16 135.535 169.143C135.479 169.125 135.419 169.121 135.361 169.131C135.303 169.14 135.248 169.163 135.2 169.198C129.21 173.95 124.666 180.282 122.08 187.478C120.431 193.243 120.083 199.302 121.06 205.218C121.456 208.62 122.612 211.89 124.444 214.784C126.275 217.678 128.735 220.123 131.64 221.938C129.44 224.338 115.8 240.198 114.02 267.258C112.849 259.925 110.121 252.928 106.02 246.738C83.0001 211.138 82.0201 196.598 80.7801 176.738C85.1302 176.077 89.0723 173.803 91.823 170.369C94.5737 166.935 95.9316 162.592 95.6267 158.202C95.3218 153.813 93.3765 149.699 90.1775 146.678C86.9784 143.657 82.7598 141.951 78.3601 141.898C77.6304 138.58 75.9887 135.532 73.6201 133.098C71.0547 130.745 67.8691 129.176 64.4401 128.578C64.3806 128.566 64.3191 128.569 64.2612 128.587C64.2033 128.606 64.151 128.638 64.1091 128.682C64.0672 128.726 64.037 128.78 64.0215 128.838C64.0059 128.897 64.0055 128.959 64.0201 129.018C64.7334 132.418 66.398 135.546 68.8201 138.038C70.8177 139.888 73.2122 141.256 75.8201 142.038C71.2054 142.595 67.0009 144.962 64.1316 148.619C61.2623 152.276 59.9632 156.923 60.5201 161.538C61.0771 166.152 63.4445 170.357 67.1014 173.226C70.7584 176.096 75.4054 177.395 80.0201 176.838C81.3801 198.838 83.3401 213.118 105.38 247.198C109.604 253.589 112.338 260.848 113.38 268.438C106.737 265.174 100.444 261.24 94.6001 256.698C93.48 247.245 89.6846 238.308 83.6601 230.938C83.6273 230.888 83.5827 230.848 83.5304 230.819C83.478 230.791 83.4196 230.777 83.3601 230.777C83.3007 230.777 83.2422 230.791 83.1899 230.819C83.1376 230.848 83.093 230.888 83.0601 230.938C81.2056 234.304 79.7492 237.875 78.7201 241.578C61.6827 221.765 52.3345 196.488 52.3801 170.358C52.3801 115.478 91.3801 70.0177 145.12 62.3577C145.221 62.3577 145.318 62.3176 145.389 62.2464C145.46 62.1751 145.5 62.0784 145.5 61.9777C145.5 61.8769 145.46 61.7802 145.389 61.709C145.318 61.6377 145.221 61.5977 145.12 61.5977C125.639 64.5659 107.312 72.7131 92.0571 85.1874C76.8018 97.6618 65.1776 114.005 58.3998 132.509C51.6221 151.013 49.9396 170.998 53.5283 190.375C57.117 209.751 65.8451 227.808 78.8001 242.658C75.5801 254.658 76.8001 265.838 83.9801 277.878C79.26 272.772 73.4868 268.752 67.0601 266.098C58.108 262.994 48.469 262.44 39.2201 264.498C39.1643 264.514 39.113 264.543 39.0701 264.582C39.0272 264.621 38.9938 264.669 38.9725 264.724C38.9513 264.778 38.9427 264.836 38.9475 264.894C38.9523 264.952 38.9703 265.008 39.0001 265.058C44.4511 272.807 51.9508 278.887 60.6601 282.618C65.8803 284.556 71.4121 285.518 76.9801 285.458C80.8623 285.479 84.7341 285.056 88.5201 284.198C90.6801 285.598 107.5 297.518 105.54 327.058C102.98 344.738 106.34 341.458 101.84 333.698C98.7585 328.785 94.3671 324.83 89.1601 322.278C89.1069 322.251 89.048 322.238 88.9886 322.24C88.9291 322.242 88.8711 322.258 88.8196 322.288C88.7681 322.318 88.7247 322.36 88.6934 322.41C88.6621 322.461 88.6438 322.518 88.6401 322.578C88.0714 328.328 89.3061 334.113 92.1731 339.13C95.04 344.147 99.3971 348.148 104.64 350.578L85.0801 355.798C83.7837 356.224 82.6996 357.13 82.0505 358.331C81.4014 359.531 81.2366 360.935 81.5898 362.253C81.943 363.571 82.7875 364.704 83.9499 365.419C85.1123 366.134 86.5043 366.377 87.8401 366.098L128.38 355.078C129.056 354.899 129.691 354.589 130.247 354.165C130.804 353.741 131.271 353.212 131.623 352.608C131.975 352.003 132.205 351.335 132.299 350.642C132.392 349.949 132.349 349.244 132.17 348.568C131.992 347.891 131.681 347.257 131.258 346.7C130.834 346.144 130.305 345.676 129.7 345.324C129.096 344.972 128.428 344.743 127.734 344.649C127.041 344.555 126.336 344.599 125.66 344.778L105.42 350.198C105.516 347.891 105.395 345.581 105.06 343.298C104.74 319.058 114.3 298.978 114.86 278.118C114.87 278.058 114.87 277.997 114.86 277.938C114.86 276.858 114.86 275.598 114.74 272.598C114.74 271.678 114.74 270.758 114.74 269.878C139.297 281.672 167.356 283.934 193.485 276.226C219.613 268.519 241.953 251.39 256.177 228.157C270.401 204.924 275.498 177.239 270.481 150.463C265.465 123.687 250.691 99.7255 229.02 83.2177H229.06ZM165.64 197.818C168.894 195.882 172.391 194.388 176.04 193.378C174.913 200.596 171.844 207.371 167.16 212.978C164.552 215.833 161.491 218.239 158.1 220.098C161.292 217.442 163.686 213.955 165.017 210.022C166.348 206.09 166.563 201.865 165.64 197.818ZM152.38 222.778C151.182 223.266 149.953 223.674 148.7 223.998C149.805 216.769 152.861 209.978 157.54 204.358C159.707 201.96 162.205 199.886 164.96 198.198C166.011 203.117 165.334 208.248 163.042 212.725C160.751 217.203 156.985 220.753 152.38 222.778ZM123.1 210.078C128.976 205.33 133.437 199.063 136 191.958C137.018 188.673 137.55 185.257 137.58 181.818C140.393 181.007 143.341 180.771 146.247 181.124C149.153 181.476 151.959 182.41 154.497 183.869C157.035 185.328 159.253 187.283 161.02 189.618C162.787 191.952 164.065 194.619 164.78 197.458C161.878 199.211 159.245 201.373 156.96 203.878C152.115 209.675 148.972 216.702 147.88 224.178C142.739 225.2 137.402 224.338 132.845 221.749C128.287 219.16 124.814 215.017 123.06 210.078H123.1ZM78.2601 176.198C74.9414 176.198 71.6971 175.214 68.9377 173.37C66.1782 171.526 64.0275 168.905 62.7574 165.839C61.4874 162.773 61.1551 159.399 61.8026 156.144C62.45 152.889 64.0482 149.899 66.3949 147.552C68.7416 145.206 71.7315 143.608 74.9865 142.96C78.2415 142.313 81.6154 142.645 84.6816 143.915C87.7477 145.185 90.3684 147.336 92.2122 150.095C94.056 152.855 95.0401 156.099 95.0401 159.418C95.0401 163.868 93.2723 168.136 90.1254 171.283C86.9785 174.43 82.7105 176.198 78.2601 176.198ZM129.24 345.958C130.021 346.411 130.651 347.086 131.049 347.897C131.448 348.708 131.598 349.618 131.48 350.514C131.363 351.41 130.983 352.251 130.389 352.931C129.794 353.611 129.012 354.101 128.14 354.338L87.5601 365.218C86.3852 365.533 85.1331 365.369 84.0791 364.762C83.0252 364.154 82.2557 363.153 81.9401 361.978C81.6245 360.803 81.7886 359.551 82.3962 358.497C83.0038 357.443 84.0052 356.673 85.1801 356.358L125.76 345.478C126.939 345.182 128.186 345.354 129.24 345.958ZM83.6201 231.838C89.1837 238.833 92.756 247.201 93.9601 256.058C88.7333 251.941 83.8932 247.355 79.5001 242.358C80.4873 238.712 81.8688 235.184 83.6201 231.838ZM60.8001 281.838C52.4001 278.246 45.1392 272.431 39.8001 265.018C48.7351 263.136 58.014 263.723 66.6401 266.718C75.0382 270.303 82.2939 276.12 87.6201 283.538C78.6845 285.393 69.4121 284.778 60.8001 281.758V281.838ZM106.38 321.398C106.06 295.778 91.2801 284.998 88.9201 283.398C93.1157 275.482 95.1832 266.612 94.9201 257.658C100.79 262.139 107.087 266.031 113.72 269.278C115.66 286.198 109.66 302.998 106.38 321.398Z" fill="white"/>
<path d="M147.8 209.938C148.096 209.421 148.287 208.85 148.361 208.259C148.436 207.668 148.393 207.069 148.235 206.494C148.077 205.92 147.807 205.382 147.441 204.913C147.074 204.443 146.619 204.051 146.1 203.758L144.1 202.638L147.86 196.058C149.704 197.262 151.628 198.338 153.62 199.278C153.7 199.273 153.777 199.242 153.839 199.191C153.9 199.14 153.944 199.071 153.964 198.993C153.984 198.915 153.979 198.833 153.95 198.759C153.92 198.684 153.868 198.621 153.8 198.578L148.22 195.398L149.58 193.018C149.618 192.976 149.646 192.926 149.663 192.872C149.679 192.818 149.684 192.761 149.675 192.706C149.667 192.65 149.646 192.597 149.615 192.55C149.583 192.503 149.542 192.464 149.493 192.435C149.445 192.406 149.391 192.388 149.334 192.383C149.278 192.378 149.222 192.385 149.169 192.405C149.116 192.424 149.068 192.455 149.028 192.495C148.989 192.536 148.959 192.584 148.94 192.638L147.58 195.018L145.58 193.898C144.799 193.46 143.906 193.261 143.013 193.327C142.12 193.393 141.266 193.721 140.558 194.269C139.85 194.817 139.319 195.562 139.031 196.41C138.743 197.258 138.712 198.172 138.94 199.038C139.095 199.617 139.364 200.16 139.731 200.634C140.099 201.108 140.558 201.503 141.08 201.798L143.08 202.918L139.32 209.498L133.78 206.358C133.693 206.307 133.589 206.294 133.491 206.32C133.394 206.346 133.311 206.41 133.26 206.498C133.21 206.585 133.196 206.689 133.222 206.787C133.249 206.884 133.313 206.967 133.4 207.018L138.98 210.198L137.62 212.578C137.589 212.636 137.573 212.701 137.575 212.768C137.577 212.834 137.596 212.898 137.63 212.955C137.664 213.011 137.713 213.058 137.771 213.09C137.829 213.122 137.894 213.139 137.96 213.138C138.24 213.138 138.16 213.138 139.64 210.558C140.845 211.524 142.303 212.122 143.84 212.278C144.649 212.276 145.442 212.058 146.138 211.646C146.835 211.235 147.408 210.645 147.8 209.938ZM141.52 201.138C140.648 200.639 140.009 199.814 139.744 198.845C139.48 197.875 139.612 196.84 140.11 195.968C140.609 195.095 141.434 194.456 142.403 194.192C143.373 193.927 144.408 194.059 145.28 194.558L147.28 195.678L143.48 202.358L141.52 201.138ZM141.96 210.978L139.96 209.878L143.7 203.278L145.7 204.398C146.135 204.643 146.517 204.972 146.823 205.368C147.129 205.763 147.352 206.215 147.48 206.698C147.667 207.417 147.639 208.176 147.399 208.88C147.16 209.584 146.719 210.202 146.131 210.657C145.543 211.113 144.835 211.386 144.094 211.443C143.352 211.5 142.61 211.338 141.96 210.978Z" fill="white"/>
<path d="M225.92 81.9376C224.82 81.9376 203.64 61.7976 166.84 59.2576C166.739 59.2576 166.643 59.2175 166.571 59.1463C166.5 59.075 166.46 58.9783 166.46 58.8776C166.46 58.7768 166.5 58.6801 166.571 58.6089C166.643 58.5376 166.739 58.4976 166.84 58.4976C188.417 60.0224 209.05 67.9467 226.1 81.2576C226.16 81.303 226.206 81.3654 226.23 81.4367C226.255 81.508 226.258 81.5851 226.238 81.658C226.219 81.7309 226.179 81.7964 226.122 81.8462C226.065 81.896 225.995 81.9278 225.92 81.9376Z" fill="white"/>
<path d="M339.56 148.237C339.56 148.237 314.26 166.877 303.42 184.237C297.753 178.129 293.033 171.206 289.42 163.697C277.42 139.257 262.3 138.897 255.62 136.917C251.34 142.277 243.22 147.397 236.04 150.517C231.112 169.356 227.945 188.612 226.58 208.037C226.31 211.554 227.097 215.071 228.84 218.137L261.52 275.697C269.435 273.497 276.851 269.789 283.36 264.777C275.36 242.277 268.42 221.357 256.16 206.777C259.1 201.057 263.34 193.237 266.16 186.997C271.54 195.997 280.54 204.997 291.7 213.277C295.254 215.925 299.672 217.141 304.079 216.685C308.487 216.23 312.563 214.135 315.5 210.817L356.88 164.117C352.109 157.825 346.242 152.446 339.56 148.237V148.237Z" fill="#B2BEC3"/>
<path d="M150.62 81.3376L131.14 43.4776C131.101 43.3946 131.031 43.3297 130.946 43.2962C130.86 43.2628 130.765 43.2633 130.68 43.2976L93.0801 56.7376C92.9935 56.7693 92.9214 56.8314 92.8773 56.9124C92.8331 56.9934 92.8199 57.0876 92.8401 57.1776L97.0201 76.5776L70.6201 67.3376C70.5298 67.3107 70.4327 67.3183 70.3477 67.359C70.2627 67.3996 70.1959 67.4704 70.1601 67.5576L68.3801 71.7576C68.3601 71.8009 68.3488 71.8477 68.3471 71.8954C68.3453 71.943 68.353 71.9906 68.3697 72.0352C68.3865 72.0799 68.4119 72.1208 68.4446 72.1555C68.4773 72.1902 68.5166 72.2181 68.5601 72.2376L99.5001 88.0776C102.02 99.7776 101.78 98.9376 102 99.0576C102.22 99.1776 102 99.0576 105.26 98.0176C105.356 97.9831 105.433 97.9121 105.477 97.8202C105.52 97.7283 105.525 97.6231 105.49 97.5276C105.456 97.4321 105.385 97.3542 105.293 97.3111C105.201 97.268 105.096 97.2631 105 97.2976C104.66 96.4976 106.18 95.9376 109.78 95.8776C109.783 95.936 109.8 95.9929 109.829 96.0439C109.857 96.0949 109.897 96.1385 109.946 96.1714C109.994 96.2043 110.05 96.2256 110.108 96.2336C110.166 96.2416 110.225 96.2361 110.28 96.2176L129.96 89.1776C130.033 89.132 130.088 89.0633 130.116 88.9824C130.145 88.9016 130.145 88.8135 130.118 88.7324C130.09 88.6513 130.035 88.582 129.963 88.5358C129.891 88.4895 129.805 88.469 129.72 88.4776C129.08 86.4776 129.06 85.0976 132.18 87.6376C132.127 87.7017 132.097 87.7813 132.094 87.8644C132.09 87.9474 132.114 88.0292 132.162 88.0973C132.21 88.1654 132.278 88.2159 132.357 88.2413C132.437 88.2666 132.522 88.2653 132.6 88.2376L150.6 81.8176C150.662 81.7541 150.698 81.67 150.702 81.5814C150.706 81.4928 150.676 81.406 150.62 81.3376Z" fill="white"/>
<path d="M49.4401 94.8575C45.1401 85.9175 45.4401 86.4175 45.2001 86.3575C44.9601 86.2975 45.6201 85.9575 36.9801 91.0975C36.9368 91.1225 36.8988 91.1557 36.8683 91.1954C36.8378 91.235 36.8154 91.2802 36.8024 91.3285C36.7894 91.3768 36.7861 91.4272 36.7925 91.4768C36.799 91.5264 36.8152 91.5742 36.8401 91.6175C36.8905 91.7051 36.9736 91.769 37.0711 91.7952C37.1194 91.8082 37.1698 91.8116 37.2194 91.8051C37.269 91.7987 37.3168 91.7825 37.3601 91.7575L44.3801 87.5375L37.7001 109.138C15.3601 116.598 16.6801 116.098 16.5801 116.358L10.0401 130.018C10.0178 130.062 10.0045 130.111 10.001 130.161C9.99742 130.21 10.0037 130.26 10.0195 130.308C10.0353 130.355 10.0603 130.399 10.093 130.437C10.1257 130.474 10.1655 130.505 10.2101 130.528C10.2548 130.55 10.3034 130.563 10.3532 130.567C10.403 130.57 10.453 130.564 10.5003 130.548C10.5477 130.532 10.5915 130.507 10.6292 130.475C10.6669 130.442 10.6978 130.402 10.7201 130.358L17.1801 116.778L38.1801 109.798C38.4601 109.798 37.9601 111.038 45.1801 87.7975L48.7601 95.2575C48.8132 95.3477 48.8999 95.4131 49.0011 95.4394C49.1024 95.4656 49.21 95.4506 49.3001 95.3975C49.3903 95.3445 49.4557 95.2578 49.482 95.1565C49.5082 95.0553 49.4932 94.9477 49.4401 94.8575Z" fill="white"/>
<path d="M84.3802 162.357C84.2934 161.376 83.8267 160.467 83.0795 159.824C82.3323 159.182 81.3637 158.856 80.3802 158.917L78.6201 159.077L78.0801 153.077L83.2201 152.597C83.3036 152.578 83.378 152.531 83.4313 152.464C83.4846 152.396 83.5136 152.313 83.5136 152.227C83.5136 152.142 83.4846 152.059 83.4313 151.991C83.378 151.924 83.3036 151.877 83.2201 151.857L78.0602 152.317L77.8602 150.157C77.8602 149.637 77.0801 149.757 77.1201 150.157L77.3202 152.297C75.5602 152.457 74.1802 152.297 73.0002 153.817C72.5391 154.366 72.2443 155.034 72.1504 155.744C72.0564 156.454 72.1672 157.176 72.4698 157.826C72.7723 158.475 73.254 159.024 73.8582 159.409C74.4624 159.794 75.1639 159.998 75.8802 159.997L78.0002 159.837L78.5402 165.837L73.3202 166.357C73.2367 166.377 73.1623 166.424 73.109 166.491C73.0557 166.559 73.0267 166.642 73.0267 166.727C73.0267 166.813 73.0557 166.896 73.109 166.964C73.1623 167.031 73.2367 167.078 73.3202 167.097L78.5002 166.637L78.6802 168.797C78.6802 168.898 78.7202 168.995 78.7915 169.066C78.8627 169.137 78.9594 169.177 79.0602 169.177C79.1609 169.177 79.2576 169.137 79.3289 169.066C79.4001 168.995 79.4401 168.898 79.4401 168.797L79.2402 166.657L81.0002 166.497C81.4949 166.45 81.9753 166.305 82.4136 166.071C82.8519 165.836 83.2395 165.518 83.5538 165.133C83.8681 164.748 84.103 164.304 84.2448 163.828C84.3867 163.351 84.4326 162.852 84.3802 162.357ZM76.0002 159.317C75.5906 159.384 75.1717 159.366 74.7695 159.264C74.3673 159.162 73.9905 158.978 73.6626 158.724C73.3347 158.469 73.0627 158.15 72.8635 157.786C72.6644 157.422 72.5424 157.021 72.5052 156.608C72.468 156.194 72.5164 155.778 72.6473 155.384C72.7783 154.99 72.9889 154.628 73.2662 154.319C73.5435 154.01 73.8814 153.762 74.2588 153.59C74.6363 153.417 75.0453 153.325 75.4602 153.317L77.2201 153.157L77.7601 159.157L76.0002 159.317ZM82.9401 164.617C82.6951 164.921 82.3921 165.173 82.0487 165.359C81.7054 165.544 81.3285 165.659 80.9401 165.697L79.1402 165.857L78.5801 159.857L80.3401 159.697C80.9245 159.643 81.5121 159.76 82.0311 160.034C82.55 160.309 82.9777 160.728 83.2621 161.242C83.5464 161.755 83.6749 162.34 83.6319 162.926C83.589 163.511 83.3764 164.071 83.0202 164.537L82.9401 164.617Z" fill="white"/>
<path d="M156 310.658L130.68 299.158C124.28 296.238 119.82 305.878 126.22 308.838L151.58 320.358C157.92 323.218 162.38 313.618 156 310.658ZM151.86 319.658L126.54 308.158C125.437 307.648 124.581 306.722 124.161 305.582C123.741 304.441 123.791 303.181 124.3 302.078C124.809 300.974 125.736 300.118 126.876 299.698C128.016 299.278 129.277 299.328 130.38 299.838L155.7 311.338C161.2 313.898 157.28 322.138 151.86 319.658Z" fill="white"/>
<path d="M200.74 298.037C199.214 298.036 197.722 297.586 196.449 296.745C195.176 295.903 194.177 294.707 193.577 293.304C192.977 291.9 192.802 290.352 193.074 288.85C193.345 287.348 194.051 285.959 195.104 284.855C196.158 283.75 197.512 282.979 198.999 282.636C200.486 282.294 202.041 282.395 203.471 282.928C204.901 283.46 206.144 284.401 207.045 285.632C207.946 286.864 208.466 288.333 208.54 289.857C208.592 290.913 208.428 291.969 208.059 292.959C207.69 293.95 207.124 294.855 206.394 295.62C205.665 296.385 204.788 296.994 203.816 297.41C202.844 297.825 201.797 298.039 200.74 298.037ZM200.74 283.197C199.562 283.192 198.401 283.482 197.364 284.041C196.326 284.599 195.445 285.408 194.801 286.394C194.156 287.381 193.768 288.512 193.673 289.687C193.578 290.861 193.778 292.041 194.255 293.118C194.733 294.195 195.472 295.135 196.406 295.854C197.34 296.572 198.438 297.045 199.602 297.23C200.766 297.415 201.957 297.306 203.067 296.912C204.178 296.519 205.172 295.854 205.96 294.977C206.861 293.963 207.451 292.711 207.661 291.371C207.87 290.031 207.691 288.659 207.143 287.418C206.595 286.177 205.702 285.119 204.571 284.371C203.439 283.623 202.117 283.216 200.76 283.197H200.74Z" fill="white"/>
<path d="M220.82 315.958C219.294 315.956 217.802 315.506 216.529 314.665C215.256 313.823 214.257 312.627 213.657 311.224C213.057 309.821 212.882 308.272 213.154 306.77C213.425 305.269 214.131 303.879 215.184 302.775C216.238 301.67 217.592 300.899 219.079 300.557C220.566 300.214 222.121 300.315 223.551 300.848C224.981 301.38 226.224 302.321 227.125 303.553C228.026 304.784 228.546 306.253 228.62 307.778C228.672 308.833 228.508 309.889 228.139 310.879C227.77 311.87 227.204 312.775 226.474 313.54C225.745 314.305 224.868 314.914 223.896 315.33C222.924 315.745 221.877 315.959 220.82 315.958ZM220.82 301.118C219.414 301.119 218.04 301.542 216.876 302.332C215.712 303.122 214.811 304.242 214.29 305.548C213.769 306.854 213.65 308.287 213.951 309.661C214.251 311.035 214.956 312.288 215.975 313.257C216.994 314.227 218.28 314.869 219.667 315.101C221.054 315.333 222.479 315.144 223.758 314.559C225.037 313.974 226.111 313.019 226.843 311.817C227.574 310.616 227.928 309.223 227.86 307.818C227.763 306.017 226.983 304.321 225.679 303.076C224.374 301.831 222.643 301.13 220.84 301.118H220.82Z" fill="white"/>
<path d="M194.62 317.258C194.546 317.258 194.473 317.237 194.41 317.196C194.348 317.156 194.299 317.098 194.269 317.03C194.239 316.962 194.23 316.886 194.243 316.813C194.255 316.74 194.289 316.672 194.34 316.618L226.68 280.958C226.749 280.883 226.845 280.839 226.946 280.836C227.047 280.832 227.146 280.869 227.22 280.938C227.294 281.007 227.338 281.102 227.342 281.203C227.346 281.305 227.309 281.403 227.24 281.478C192.5 319.678 194.88 317.258 194.62 317.258Z" fill="white"/>
<path d="M308.22 130.118C308.172 130.123 308.124 130.119 308.078 130.104C308.032 130.09 307.989 130.065 307.953 130.033C307.918 130.001 307.889 129.962 307.869 129.918C307.85 129.873 307.84 129.826 307.84 129.778L306.94 111.598C306.94 111.497 306.98 111.4 307.051 111.329C307.123 111.258 307.219 111.218 307.32 111.218C307.421 111.218 307.518 111.258 307.589 111.329C307.66 111.4 307.7 111.497 307.7 111.598L308.58 129.778C308.575 129.869 308.535 129.956 308.468 130.019C308.401 130.083 308.312 130.118 308.22 130.118Z" fill="white"/>
<path d="M298.68 121.478C298.597 121.458 298.522 121.411 298.469 121.344C298.416 121.277 298.387 121.193 298.387 121.108C298.387 121.022 298.416 120.939 298.469 120.872C298.522 120.804 298.597 120.757 298.68 120.738L316.86 119.838C316.961 119.838 317.058 119.878 317.129 119.949C317.2 120.02 317.24 120.117 317.24 120.218C317.24 120.318 317.2 120.415 317.129 120.486C317.058 120.558 316.961 120.598 316.86 120.598L298.68 121.478Z" fill="white"/>
<path d="M390.56 130.818C390.616 130.767 390.655 130.701 390.673 130.628C390.691 130.555 390.686 130.478 390.661 130.407C390.635 130.337 390.589 130.275 390.528 130.231C390.468 130.186 390.395 130.161 390.32 130.158C381.04 129.758 357.84 135.578 350.76 139.478C350.28 139.758 346.46 145.818 342.76 149.958C341.76 149.264 340.74 148.598 339.7 147.958C339.639 147.914 339.565 147.89 339.49 147.89C339.415 147.89 339.341 147.914 339.28 147.958C339 148.158 314.28 166.498 303.28 183.718C297.772 177.765 293.181 171.024 289.66 163.718C279.22 142.078 266.38 139.118 258.6 137.338C257.52 137.098 256.6 136.878 255.78 136.638C254.493 135.656 253.258 134.608 252.08 133.498C253.458 133.535 254.835 133.401 256.18 133.098C258.561 132.708 260.802 131.71 262.683 130.2C264.565 128.689 266.025 126.718 266.92 124.478C267.793 122.504 268.21 120.359 268.141 118.202C268.071 116.045 267.518 113.931 266.52 112.018C261.84 103.298 248.62 99.6977 245.9 99.0377C246.9 97.0377 250.52 88.1777 242.22 83.1977C235.54 79.1977 230 77.9777 225.78 79.6177C224.475 80.1402 223.294 80.9322 222.315 81.9419C221.336 82.9517 220.582 84.1565 220.1 85.4777C219.62 86.6577 217.34 92.1577 216.82 93.4777C199.48 84.2377 171.08 63.5977 170.82 63.4777C170.759 63.4337 170.685 63.4101 170.61 63.4101C170.535 63.4101 170.461 63.4337 170.4 63.4777C169.88 63.7777 169.36 64.0777 168.86 64.4177C167.82 62.5194 167.244 60.4015 167.18 58.2377C167.161 56.058 166.523 53.9286 165.34 52.0977C163.68 50.0977 162.48 48.9977 160.44 50.5577C159.96 49.9777 158.44 48.2777 158.44 48.2777C158.077 47.8188 157.573 47.4914 157.006 47.3457C156.439 47.1999 155.84 47.2437 155.301 47.4705C154.761 47.6972 154.311 48.0944 154.018 48.6013C153.725 49.1082 153.607 49.697 153.68 50.2777C153.237 49.7378 152.603 49.3904 151.909 49.3084C151.216 49.2265 150.518 49.4163 149.961 49.8382C149.405 50.26 149.033 50.881 148.925 51.5708C148.817 52.2606 148.98 52.9656 149.38 53.5377C148.851 53.4432 148.306 53.5099 147.815 53.7291C147.325 53.9484 146.911 54.31 146.629 54.7671C146.346 55.2243 146.208 55.7558 146.231 56.2926C146.255 56.8295 146.439 57.3469 146.76 57.7777C146.9 57.9377 147.04 58.1177 147.22 58.2977C146.74 58.2811 146.265 58.3978 145.847 58.6348C145.43 58.8717 145.086 59.2197 144.854 59.6402C144.622 60.0606 144.511 60.5371 144.533 61.0167C144.556 61.4964 144.71 61.9606 144.98 62.3577C145.28 62.6977 145.6 63.0377 145.96 63.3777C145.96 64.4977 146.56 70.1577 159.06 77.8777C158.78 78.6577 158.54 79.4577 158.32 80.2577C158.302 80.3338 158.306 80.4134 158.33 80.4876C158.355 80.5619 158.4 80.6277 158.46 80.6777C168.2 87.7377 192.22 104.858 202.8 110.678C196.318 114.002 190.152 117.912 184.38 122.358C182.88 121.338 171.66 113.678 153.98 101.838C153.919 101.803 153.85 101.784 153.78 101.784C153.71 101.784 153.641 101.803 153.58 101.838C152.96 102.198 152.34 102.578 151.76 102.958C145.802 98.8819 140.099 94.447 134.68 89.6777C131.02 86.1977 129.84 85.6777 129.22 86.1777C128.6 86.6777 129.34 89.2177 129.76 90.3577C130.44 92.1577 134.68 97.9977 133.76 99.4777C133.5 99.9177 132.8 99.7777 132.6 99.8377C125.571 97.6206 118.31 96.2181 110.96 95.6577C104.62 95.5577 104.46 96.7377 104.4 97.1177C104.391 97.2993 104.425 97.4804 104.498 97.6469C104.571 97.8134 104.681 97.9608 104.82 98.0777C106.38 99.6377 110.38 100.318 115.28 102.078C113 102.078 110.3 102.278 110.14 102.278C107 102.458 105.3 103.058 105.2 104.038C105.197 104.267 105.276 104.49 105.423 104.666C105.569 104.842 105.774 104.96 106 104.998C108.66 105.658 112.86 106.318 115.9 106.998C114.48 107.318 110.78 108.138 110.88 109.618C110.913 109.846 111.025 110.055 111.197 110.209C111.369 110.363 111.59 110.451 111.82 110.458C119.52 111.078 123.3 109.758 134.82 113.458C135.98 114.218 138.82 116.558 140.94 118.398C140.72 119.238 140.54 120.118 140.38 121.018C140.365 121.088 140.371 121.161 140.395 121.228C140.42 121.295 140.463 121.354 140.52 121.398C140.68 121.518 156.12 132.678 166.8 140.338C175.48 146.558 181.08 150.158 190.56 145.658C197.588 141.945 204.406 137.845 210.98 133.378C217.32 139.378 227.44 147.378 235.52 150.918C230.649 169.677 227.509 188.844 226.14 208.178C225.856 211.77 226.658 215.366 228.44 218.498C262.6 278.658 261.06 276.178 261.4 276.258C262.871 275.935 264.321 275.521 265.74 275.018L270.1 282.578C273.74 301.778 277.28 309.938 283.2 319.358C284.06 320.718 284.16 320.358 284.6 319.118C287.92 309.938 289.62 287.118 288.26 279.498C288.14 278.858 283.44 273.198 280.26 267.498C281.36 266.778 282.46 265.998 283.58 265.198C283.649 265.15 283.699 265.081 283.725 265.001C283.75 264.922 283.748 264.836 283.72 264.758C276.38 244.138 269.4 221.958 256.6 206.758C259.24 201.618 263.3 194.158 266.26 187.818C271.48 196.298 279.98 204.978 291.52 213.598C295.157 216.28 299.663 217.508 304.158 217.042C308.652 216.576 312.811 214.449 315.82 211.078L357.22 164.358C357.267 164.29 357.293 164.21 357.293 164.128C357.293 164.045 357.267 163.965 357.22 163.898C356.46 162.898 355.66 161.898 354.84 160.958L359.58 155.678C376.9 145.798 383.4 139.778 390.56 130.818ZM220.72 85.9377C221.456 85.8936 222.195 85.9407 222.92 86.0777C222.56 87.3177 222.2 89.3577 222.92 89.7977C223.16 89.9377 223.54 89.9777 224.08 89.3977C225.9 87.3977 227.46 90.3977 223.88 92.8977C223.821 92.9357 223.775 92.9899 223.747 93.0539C223.718 93.1178 223.709 93.1886 223.72 93.2577C225.25 102.67 228.65 111.681 233.72 119.758C229.72 116.818 225.54 108.638 219.22 107.138C220.642 104.632 221.879 102.025 222.92 99.3377C222.945 99.2718 222.951 99.2002 222.938 99.131C222.925 99.0617 222.892 98.9976 222.844 98.9457C222.797 98.8938 222.736 98.8562 222.668 98.8372C222.6 98.8181 222.528 98.8183 222.46 98.8377C221 99.2777 216.72 100.478 216.3 98.9977C216.08 96.5577 218.14 92.3577 220.72 85.9377ZM157.9 48.7177L159.9 50.9777C159.2 51.6177 158.36 52.5177 157.28 53.7177C156.417 52.8417 155.609 51.9133 154.86 50.9377C154.744 50.5426 154.753 50.1212 154.885 49.7313C155.017 49.3413 155.267 49.0016 155.6 48.7588C155.932 48.5159 156.332 48.3816 156.743 48.3743C157.155 48.3669 157.559 48.4869 157.9 48.7177ZM153.22 50.7177C153.98 51.5377 155.78 53.3577 156.64 54.2777L155.74 55.2777C154.42 56.7377 155.74 58.9777 158.78 57.9377C158.774 58.2863 158.66 58.6245 158.455 58.9065C158.25 59.1885 157.964 59.4006 157.634 59.5141C157.304 59.6277 156.948 59.6371 156.613 59.5411C156.277 59.4452 155.98 59.2485 155.76 58.9777C153.64 56.7777 151.08 54.3177 150.1 52.9777C149.97 52.572 149.972 52.1353 150.107 51.7312C150.243 51.327 150.503 50.9767 150.852 50.7311C151.2 50.4855 151.617 50.3576 152.044 50.366C152.47 50.3744 152.882 50.5186 153.22 50.7777V50.7177ZM150.38 54.7177C152.04 56.4377 153.92 58.3377 155.36 59.9977C157.22 61.9977 154.76 64.4177 152.7 62.3977C150.64 60.3777 148.38 58.3577 147.36 57.1977C147.21 56.7979 147.192 56.3606 147.309 55.9499C147.426 55.5392 147.671 55.1766 148.008 54.9151C148.346 54.6536 148.758 54.5069 149.185 54.4966C149.611 54.4863 150.03 54.6128 150.38 54.8577V54.7177ZM145.56 61.7777C145.399 61.4027 145.366 60.9846 145.469 60.5892C145.571 60.1939 145.802 59.8437 146.125 59.594C146.448 59.3443 146.845 59.2091 147.253 59.2097C147.661 59.2104 148.058 59.3469 148.38 59.5977C149.94 61.1177 150.98 62.1377 152.5 63.7577C154.32 65.7577 152.02 67.9977 149.98 66.1177C147.94 64.2377 146.54 63.0777 145.56 61.9177V61.7777ZM146.8 64.0777C147.06 64.3177 148.8 65.8577 149.52 66.5377C152.02 68.8377 154.98 66.2977 153.62 63.8177C154.072 63.9276 154.546 63.906 154.986 63.7556C155.426 63.6051 155.814 63.332 156.104 62.9684C156.394 62.6048 156.574 62.1658 156.623 61.7033C156.672 61.2408 156.588 60.7739 156.38 60.3577C156.843 60.5365 157.357 60.5365 157.82 60.3577C157.099 62.3053 157.164 64.4569 158 66.3577C158.043 66.4505 158.12 66.5227 158.216 66.5583C158.311 66.594 158.417 66.5901 158.51 66.5477C158.603 66.5053 158.675 66.4277 158.711 66.3321C158.746 66.2364 158.743 66.1305 158.7 66.0377C157.24 62.7177 158.46 58.9377 161.86 56.2177C162.24 55.6977 161.68 55.3777 161.38 55.6177C160.64 56.2591 159.811 56.7912 158.92 57.1977C156.38 58.3177 155.38 56.8777 156.24 55.9177C161.78 49.9177 161.92 49.3577 164.68 52.5977C166.96 55.2777 165.68 61.2577 168.16 64.8777C163.991 68.0043 160.879 72.3312 159.24 77.2777C149.26 70.9377 147.22 66.1377 146.8 64.2177V64.0777ZM165.08 84.3977L159.08 80.1177C161.08 72.6177 165.08 67.2177 170.5 64.1177L176.38 68.3577C171.138 72.5539 167.215 78.1711 165.08 84.5377V84.3977ZM165.72 84.8577C167.785 78.4546 171.686 72.8001 176.94 68.5977C186.48 75.3177 204.3 87.5777 216.56 94.0977C214.72 99.2177 215.14 101.638 220.56 102.758C219.9 104.158 219.2 105.478 218.42 106.758C214.56 106.118 209.62 107.218 203.56 110.058C194.94 105.638 175.94 92.3577 165.72 84.9977V84.8577ZM111.94 109.598C111.8 109.598 111.7 109.598 111.7 109.478C111.7 109.358 112.38 108.458 115.7 107.738L117.7 107.298C122.279 108.455 126.792 109.857 131.22 111.498C121.92 109.118 119.6 110.218 111.94 109.598ZM105.94 103.998C105.94 103.778 106.78 103.118 110.16 102.938C110.36 102.938 114.98 102.658 117.16 102.718C122.461 104.731 127.43 107.529 131.9 111.018C119.58 105.738 105.94 104.718 106.02 103.998H105.94ZM110.6 99.6777C108.846 99.2763 107.165 98.6014 105.62 97.6777C104.9 97.1577 105.04 96.9777 105.76 96.7377C107.152 96.3911 108.589 96.2629 110.02 96.3577C112.58 96.0777 125.9 97.8977 137.1 102.118C137.58 102.278 137.84 101.578 137.38 101.418C136.28 100.998 135.18 100.618 134.08 100.238C136.44 98.6977 131.32 92.2377 130.52 90.0577C130.36 89.6177 129.4 87.1377 129.66 86.7577C129.96 86.7577 131.22 87.3577 134.2 90.1977C139.577 94.9186 145.227 99.3196 151.12 103.378C146.192 106.759 142.643 111.798 141.12 117.578C131.18 109.098 124.38 103.518 110.68 99.6777H110.6ZM141.22 120.818C141.761 117 143.178 113.36 145.361 110.182C147.543 107.003 150.432 104.373 153.8 102.498L159.92 106.498C153.726 111.207 149.46 118.011 147.92 125.638L141.22 120.818ZM220.72 140.558C215.52 131.418 215 130.558 214.72 130.138C214.681 130.095 214.633 130.06 214.58 130.037C214.526 130.013 214.468 130.001 214.41 130.001C214.352 130.001 214.294 130.013 214.241 130.037C214.187 130.06 214.14 130.095 214.1 130.138C206.543 135.592 198.617 140.517 190.38 144.878C181.84 148.878 177.06 146.538 167.4 139.618C161.52 135.418 154.22 130.138 148.8 126.238C150.233 118.588 154.469 111.748 160.68 107.058C173.7 115.798 182.04 121.478 183.88 122.718C182 124.118 180.08 125.598 178.08 127.158C178.041 127.189 178.008 127.228 177.984 127.272C177.959 127.317 177.944 127.365 177.938 127.415C177.933 127.465 177.937 127.516 177.951 127.565C177.965 127.613 177.989 127.658 178.02 127.698C178.052 127.737 178.091 127.77 178.135 127.794C178.179 127.819 178.228 127.834 178.278 127.84C178.328 127.845 178.379 127.841 178.427 127.827C178.476 127.813 178.521 127.789 178.56 127.758C200.38 110.458 214.58 104.358 222 109.078C227.3 112.458 230.88 119.478 234.66 121.078C235.68 122.718 236.66 124.218 237.64 125.558C239.148 127.755 241.121 129.593 243.42 130.941C245.719 132.289 248.286 133.114 250.94 133.358C252.24 134.653 253.623 135.862 255.08 136.978C250.5 142.518 242.32 147.378 236.04 150.118C230.553 147.587 225.405 144.375 220.72 140.558ZM281.4 270.758C276.848 272.72 272.517 275.16 268.48 278.038L266.48 274.658C271.092 272.893 275.493 270.619 279.6 267.878C280.24 268.918 280.8 269.858 281.4 270.758ZM356.38 164.118L315.2 210.578C312.315 213.809 308.328 215.848 304.018 216.296C299.709 216.743 295.388 215.567 291.9 212.998C280.24 204.298 271.72 195.538 266.58 186.998C278.16 161.718 272.22 154.798 269.32 151.398L268.78 150.758C268.716 150.689 268.628 150.647 268.534 150.64C268.44 150.632 268.347 150.66 268.273 150.717C268.198 150.774 268.147 150.857 268.13 150.95C268.113 151.042 268.131 151.138 268.18 151.218L268.76 151.898C271.44 155.038 277.72 162.358 264.52 189.598C260.66 197.598 255.08 207.598 253.12 212.118C253.1 212.164 253.09 212.213 253.089 212.263C253.089 212.313 253.098 212.363 253.117 212.409C253.135 212.456 253.163 212.498 253.198 212.534C253.233 212.569 253.274 212.598 253.32 212.618C253.366 212.637 253.415 212.648 253.465 212.648C253.516 212.649 253.565 212.64 253.612 212.621C253.658 212.603 253.7 212.575 253.736 212.54C253.772 212.505 253.8 212.464 253.82 212.418C254.4 211.058 255.2 209.398 256.16 207.518C268.78 222.578 275.6 244.338 282.86 264.738C279.678 267.063 276.336 269.161 272.86 271.018L255.4 237.678C255.345 237.605 255.266 237.554 255.177 237.535C255.088 237.516 254.995 237.529 254.915 237.573C254.835 237.617 254.773 237.688 254.741 237.773C254.709 237.858 254.709 237.952 254.74 238.038L272.18 271.378C268.85 273.09 265.343 274.431 261.72 275.378L229.18 218.038C227.467 215.042 226.7 211.598 226.98 208.158C228.341 188.815 231.488 169.641 236.38 150.878C242.76 148.078 251.14 143.118 255.78 137.418C263.62 139.638 277.54 140.358 289.1 163.938C292.666 171.403 297.339 178.288 302.96 184.358C301.441 186.763 300.2 189.333 299.26 192.018C299.23 192.066 299.211 192.121 299.204 192.178C299.198 192.235 299.205 192.292 299.224 192.346C299.243 192.4 299.274 192.449 299.315 192.49C299.355 192.53 299.405 192.561 299.459 192.579C299.513 192.598 299.571 192.604 299.627 192.597C299.684 192.59 299.739 192.57 299.787 192.54C299.835 192.509 299.876 192.467 299.906 192.418C299.936 192.37 299.954 192.315 299.96 192.258C305.96 174.258 336.74 150.818 339.58 148.698C343.466 151.148 347.085 153.997 350.38 157.198L329.38 178.818C329.04 179.158 329.58 179.698 329.92 179.338L350.92 157.718C352.87 159.737 354.694 161.874 356.38 164.118ZM354.38 160.358C351.128 156.624 347.465 153.27 343.46 150.358L344.84 148.758C348.158 152.477 351.866 155.83 355.9 158.758L354.38 160.358Z" fill="white"/>
<path d="M159.88 50.9376C160.089 50.7507 160.31 50.5771 160.54 50.4176C160.253 49.0769 159.683 47.8129 158.869 46.7094C158.055 45.6059 157.016 44.6883 155.82 44.0176C148.22 39.7576 139.2 45.8176 135.02 53.2976C134.97 53.3851 134.956 53.4891 134.982 53.5866C135.009 53.6841 135.073 53.7672 135.16 53.8176C135.248 53.868 135.352 53.8815 135.449 53.8553C135.547 53.829 135.63 53.7651 135.68 53.6776C139.58 46.6576 148.18 40.5976 155.46 44.6776C156.613 45.3304 157.607 46.2302 158.371 47.3124C159.136 48.3947 159.651 49.6327 159.88 50.9376Z" fill="white"/>
<path d="M149.22 66.3577L144.5 70.8777C144.45 70.9306 144.417 70.9968 144.403 71.0683C144.39 71.1398 144.397 71.2137 144.425 71.2811C144.452 71.3485 144.498 71.4066 144.558 71.4485C144.617 71.4905 144.687 71.5145 144.76 71.5177C144.98 71.5177 144.6 71.8177 149.78 66.8577C149.6 66.7577 149.48 66.6377 149.22 66.3577Z" fill="white"/>
</svg>
