<svg width="400" height="400" viewBox="0 0 400 400" fill="none" xmlns="http://www.w3.org/2000/svg">
<path d="M199.54 322.788C183.862 322.831 168.332 319.756 153.853 313.743C139.374 307.729 126.235 298.897 115.2 287.76C115.129 287.689 115.09 287.593 115.09 287.493C115.09 287.393 115.13 287.298 115.201 287.227C115.272 287.157 115.368 287.117 115.468 287.117C115.568 287.117 115.663 287.157 115.734 287.228C131.426 302.977 151.238 313.987 172.899 318.995C194.56 324.003 217.193 322.807 238.206 315.545C259.219 308.282 277.76 295.247 291.705 277.932C305.651 260.617 314.436 239.724 317.054 217.646C317.066 217.547 317.116 217.456 317.195 217.394C317.273 217.333 317.373 217.304 317.472 217.316C317.571 217.328 317.662 217.378 317.724 217.457C317.785 217.535 317.814 217.635 317.802 217.734C314.385 246.693 300.453 273.389 278.653 292.755C256.852 312.121 228.7 322.808 199.54 322.788Z" fill="white"/>
<path d="M313.376 171.356C311.247 163.867 308.381 156.608 304.82 149.686C304.779 149.598 304.774 149.497 304.805 149.405C304.837 149.314 304.903 149.238 304.989 149.193C305.075 149.149 305.175 149.139 305.268 149.167C305.361 149.195 305.44 149.257 305.488 149.342C309.073 156.305 311.958 163.608 314.1 171.142C314.128 171.238 314.117 171.341 314.07 171.429C314.022 171.517 313.941 171.582 313.845 171.611C313.749 171.639 313.646 171.628 313.558 171.58C313.47 171.533 313.404 171.452 313.376 171.356Z" fill="white"/>
<path d="M127.686 229.626C127.682 226.062 126.265 222.646 123.745 220.126C121.226 217.607 117.809 216.189 114.246 216.186H84.44V198.218H114.87C116.393 198.216 117.854 197.61 118.931 196.533C120.009 195.456 120.614 193.995 120.616 192.472V172.024C120.614 170.501 120.008 169.041 118.931 167.964C117.853 166.887 116.393 166.281 114.87 166.28H44.536C43.0146 166.284 41.5569 166.891 40.4819 167.967C39.4069 169.044 38.8021 170.502 38.8 172.024V192.472C38.8016 193.995 39.4075 195.456 40.4847 196.533C41.562 197.61 43.0226 198.216 44.546 198.218H74.964V216.186H45.164C41.6008 216.19 38.1847 217.607 35.6652 220.127C33.1456 222.647 31.7282 226.063 31.724 229.626V274.488C31.7282 278.051 33.1456 281.467 35.6652 283.987C38.1847 286.506 41.6008 287.924 45.164 287.928H114.246C117.809 287.924 121.225 286.506 123.745 283.987C126.264 281.467 127.682 278.051 127.686 274.488V229.626ZM84.44 260.62V252.706C85.6116 254.136 87.1747 255.193 88.938 255.748C89.033 255.779 89.1362 255.77 89.2251 255.725C89.314 255.68 89.3812 255.601 89.412 255.506C89.4428 255.411 89.4346 255.308 89.3892 255.219C89.3438 255.13 89.2649 255.063 89.17 255.032C85.072 253.708 82.136 249.65 82.814 243.096C82.8249 242.997 82.7959 242.897 82.7335 242.819C82.671 242.741 82.5802 242.692 82.481 242.681C82.3818 242.67 82.2824 242.699 82.2045 242.761C82.1267 242.824 82.0769 242.915 82.066 243.014C81.266 250.548 77.334 250.902 77.218 248.518C77.046 244.904 76.864 242.414 76.95 240.786C77.116 237.696 78.248 237.62 82.204 237.362C87.536 237.012 87.854 236.992 89.516 239.576C90.116 240.518 89.916 244.842 92.81 244.872C103.374 244.986 123.21 244.538 126.934 244.25V266.126C124.194 266.056 92.116 265.714 84.44 265.558V262.628C84.673 261.979 84.673 261.269 84.44 260.62ZM75.716 287.174V265.674C76.288 265.61 79.68 265.192 80.992 265.052C82.006 264.979 82.9612 264.549 83.688 263.838V287.174H75.716ZM80.916 264.304C76.82 264.742 74.716 265.138 72.678 265.118C69.71 265.096 69.574 260.23 73.264 259.948C76.168 259.728 78.172 259.548 81.106 259.45C84.9 259.324 84.738 263.894 80.912 264.304H80.916ZM76.218 240.514C76.1611 242.279 76.1992 244.046 76.332 245.808C74.7262 245.911 73.1152 245.907 71.51 245.794C68.622 245.518 68.66 240.5 72.354 240.48L76.218 240.514ZM72 246.9C73.496 246.868 74.882 246.752 76.382 246.7C76.412 247.28 76.444 247.9 76.474 248.554C76.592 250.984 79.912 251.83 81.738 247.648C82.0989 248.007 82.3426 248.467 82.4372 248.968C82.5317 249.468 82.4727 249.985 82.2678 250.452C82.0629 250.918 81.7217 251.311 81.2892 251.58C80.8566 251.849 80.3528 251.981 79.844 251.958C75.664 252.178 73.33 252.48 71.162 252.346C68.034 252.154 68.05 246.986 72 246.9ZM83.066 250.462C83.2508 250.869 83.4612 251.265 83.696 251.646V254.688C83.5589 254.112 83.2544 253.589 82.8209 253.186C82.3874 252.783 81.8443 252.517 81.26 252.422C81.6921 252.258 82.0798 251.996 82.3921 251.656C82.7043 251.315 82.9324 250.906 83.058 250.462H83.066ZM72.084 253.346C75.084 253.204 77.15 253.078 80.2 253.066C84.15 253.05 83.872 257.8 79.894 258.11C75.772 258.432 73.494 258.784 71.362 258.71C68.262 258.6 68.244 253.528 72.076 253.346H72.084ZM83.696 256.014V259.51C83.3055 259.198 82.8569 258.966 82.3763 258.829C81.8956 258.692 81.3924 258.651 80.896 258.71C81.5677 258.568 82.186 258.24 82.6798 257.763C83.1736 257.287 83.5231 256.68 83.688 256.014H83.696ZM114.254 216.938C117.618 216.941 120.843 218.279 123.222 220.658C125.6 223.037 126.938 226.262 126.942 229.626V243.496C123.492 243.782 103.464 244.234 92.826 244.12C90.644 244.098 90.898 240.32 90.158 239.168C88.57 236.704 87.824 236.326 84.448 236.476V216.938H114.254ZM44.544 197.538V197.464C43.2179 197.464 41.9461 196.937 41.0085 195.999C40.0708 195.062 39.544 193.79 39.544 192.464V172.024C39.544 170.698 40.0708 169.426 41.0085 168.488C41.9461 167.551 43.2179 167.024 44.544 167.024H114.87C116.196 167.024 117.468 167.551 118.406 168.488C119.343 169.426 119.87 170.698 119.87 172.024V192.472C119.87 193.798 119.343 195.07 118.406 196.007C117.468 196.945 116.196 197.472 114.87 197.472H84.07C84.0206 197.472 83.9717 197.482 83.9261 197.5C83.8805 197.519 83.839 197.547 83.8041 197.582C83.7692 197.617 83.7415 197.658 83.7226 197.704C83.7037 197.75 83.694 197.798 83.694 197.848V236.52C83.208 236.548 82.676 236.584 82.094 236.622C78.094 236.884 76.694 237.264 76.308 239.77L75.732 239.76V197.842C75.7315 197.742 75.6914 197.646 75.6206 197.576C75.5498 197.505 75.4539 197.466 75.354 197.466C45.366 197.466 45.244 197.44 44.536 197.54L44.544 197.538ZM32.48 274.486V229.626C32.4832 226.262 33.8207 223.037 36.199 220.658C38.5774 218.28 41.8023 216.941 45.166 216.938H74.966V239.738C74.506 239.738 72.366 239.718 72.366 239.718C71.5655 239.687 70.7788 239.932 70.1365 240.411C69.4943 240.889 69.0352 241.574 68.8357 242.349C68.6361 243.125 68.7081 243.946 69.0396 244.675C69.3711 245.404 69.9422 245.998 70.658 246.358C69.9622 246.571 69.3499 246.995 68.9061 247.571C68.4622 248.148 68.2089 248.848 68.1812 249.575C68.1535 250.302 68.3528 251.02 68.7515 251.629C69.1502 252.237 69.7284 252.707 70.406 252.972C67.33 254.412 67.82 259.324 71.336 259.45C71.536 259.45 71.752 259.462 71.962 259.462C68.738 260.698 69.118 265.524 72.362 265.844C72.506 265.89 74.66 265.998 74.98 266.014V287.166H45.18C41.8142 287.168 38.5852 285.834 36.2023 283.457C33.8195 281.079 32.4778 277.854 32.472 274.488L32.48 274.486ZM114.254 287.172H84.44V266.31C92.118 266.466 124.21 266.81 126.934 266.88V274.48C126.932 277.845 125.595 281.071 123.216 283.451C120.837 285.831 117.611 287.17 114.246 287.174L114.254 287.172Z" fill="white"/>
<path d="M56.176 180.668L52.656 180.158L51.08 176.958C51.0439 176.901 50.994 176.855 50.9351 176.823C50.8762 176.79 50.8102 176.773 50.743 176.773C50.6759 176.773 50.6098 176.79 50.5509 176.823C50.492 176.855 50.4422 176.901 50.406 176.958L48.832 180.158L45.31 180.668C45.2412 180.679 45.1768 180.709 45.1241 180.755C45.0714 180.801 45.0325 180.861 45.0118 180.927C44.991 180.994 44.9892 181.065 45.0066 181.133C45.0239 181.2 45.0597 181.262 45.11 181.31L47.65 183.8L47.05 187.306C47.0373 187.375 47.0444 187.447 47.0705 187.513C47.0966 187.578 47.1407 187.635 47.1977 187.677C47.2546 187.719 47.3222 187.744 47.3927 187.749C47.4632 187.754 47.5336 187.739 47.596 187.706L50.746 186.052L53.894 187.706C53.9564 187.739 54.0269 187.754 54.0974 187.749C54.1678 187.744 54.2354 187.719 54.2924 187.677C54.3494 187.635 54.3935 187.578 54.4196 187.513C54.4457 187.447 54.4528 187.375 54.44 187.306L53.84 183.8L56.388 181.316C56.4404 181.267 56.4776 181.204 56.4954 181.135C56.5133 181.065 56.5109 180.992 56.4886 180.924C56.4664 180.856 56.4251 180.796 56.3697 180.751C56.3144 180.705 56.2472 180.676 56.176 180.668Z" fill="white"/>
<path d="M70.656 180.668L67.134 180.158L65.56 176.958C65.5238 176.901 65.474 176.855 65.4151 176.823C65.3562 176.79 65.2902 176.773 65.223 176.773C65.1559 176.773 65.0898 176.79 65.0309 176.823C64.972 176.855 64.9222 176.901 64.886 176.958L63.312 180.158L59.79 180.668C59.7211 180.679 59.6568 180.709 59.6041 180.755C59.5514 180.801 59.5125 180.861 59.4917 180.927C59.471 180.994 59.4692 181.065 59.4865 181.133C59.5039 181.2 59.5397 181.262 59.59 181.31L62.13 183.8L61.53 187.306C61.5207 187.36 61.5233 187.416 61.5377 187.469C61.5521 187.522 61.5779 187.571 61.6134 187.613C61.6489 187.655 61.6931 187.688 61.7429 187.711C61.7928 187.734 61.8471 187.746 61.902 187.746C63.0579 187.279 64.1702 186.711 65.226 186.048L68.374 187.702C68.4364 187.735 68.5069 187.75 68.5774 187.745C68.6478 187.74 68.7154 187.715 68.7724 187.673C68.8294 187.631 68.8735 187.574 68.8996 187.509C68.9257 187.443 68.9328 187.371 68.92 187.302L68.32 183.796L70.868 181.312C70.9191 181.263 70.9553 181.2 70.9724 181.132C70.9895 181.063 70.9868 180.991 70.9647 180.923C70.9425 180.856 70.9018 180.796 70.8472 180.751C70.7926 180.706 70.7263 180.677 70.656 180.668Z" fill="white"/>
<path d="M85.136 180.668L81.614 180.158L80.04 176.958C80.0038 176.901 79.954 176.855 79.8951 176.823C79.8362 176.79 79.7702 176.773 79.703 176.773C79.6359 176.773 79.5698 176.79 79.5109 176.823C79.452 176.855 79.4022 176.901 79.366 176.958L77.79 180.158L74.27 180.668C74.2011 180.679 74.1367 180.709 74.0841 180.755C74.0314 180.801 73.9925 180.861 73.9717 180.927C73.951 180.994 73.9492 181.065 73.9665 181.133C73.9839 181.2 74.0197 181.262 74.07 181.31L76.61 183.8L76 187.3C75.9903 187.354 75.9926 187.409 76.0068 187.462C76.0209 187.515 76.0466 187.565 76.0819 187.607C76.1172 187.649 76.1613 187.682 76.2111 187.705C76.2609 187.728 76.3151 187.74 76.37 187.74C77.5288 187.279 78.6417 186.711 79.694 186.042L82.844 187.696C82.9064 187.729 82.9769 187.744 83.0473 187.739C83.1178 187.734 83.1854 187.709 83.2424 187.667C83.2994 187.625 83.3434 187.568 83.3695 187.503C83.3957 187.437 83.4027 187.365 83.39 187.296L82.8 183.8L85.348 181.316C85.3995 181.267 85.4361 181.204 85.4534 181.135C85.4708 181.066 85.4682 180.993 85.446 180.925C85.4239 180.857 85.383 180.797 85.3281 180.752C85.2733 180.706 85.2067 180.677 85.136 180.668Z" fill="white"/>
<path d="M99.614 180.668L96.094 180.158L94.52 176.958C94.4839 176.901 94.434 176.854 94.3749 176.821C94.3158 176.789 94.2495 176.771 94.182 176.771C94.1145 176.771 94.0482 176.789 93.9891 176.821C93.93 176.854 93.8801 176.901 93.844 176.958L92.27 180.158L88.748 180.668C88.6795 180.68 88.6157 180.71 88.5635 180.756C88.5113 180.802 88.4727 180.861 88.452 180.928C88.4314 180.994 88.4294 181.065 88.4463 181.132C88.4633 181.199 88.4984 181.261 88.548 181.31L91.088 183.8L90.488 187.306C90.4783 187.36 90.4806 187.415 90.4948 187.468C90.5089 187.521 90.5346 187.57 90.5699 187.612C90.6052 187.654 90.6493 187.688 90.6991 187.711C90.7489 187.734 90.8031 187.746 90.858 187.746C92.0138 187.279 93.1262 186.71 94.182 186.048L97.33 187.702C97.3924 187.735 97.4629 187.75 97.5333 187.744C97.6038 187.739 97.6714 187.714 97.7284 187.673C97.7854 187.631 97.8294 187.574 97.8555 187.508C97.8817 187.443 97.8887 187.371 97.876 187.302L97.276 183.796L99.824 181.312C99.8751 181.263 99.9113 181.2 99.9285 181.132C99.9457 181.063 99.9432 180.991 99.9212 180.924C99.8993 180.856 99.8588 180.797 99.8045 180.751C99.7501 180.706 99.6841 180.677 99.614 180.668Z" fill="white"/>
<path d="M114.094 180.668L110.574 180.158L108.998 176.958C108.962 176.901 108.912 176.855 108.853 176.823C108.794 176.79 108.728 176.773 108.661 176.773C108.594 176.773 108.528 176.79 108.469 176.823C108.41 176.855 108.36 176.901 108.324 176.958L106.75 180.158L103.23 180.668C103.16 180.678 103.095 180.707 103.041 180.752C102.987 180.797 102.947 180.857 102.925 180.923C102.903 180.99 102.9 181.062 102.917 181.13C102.934 181.199 102.969 181.261 103.02 181.31L105.568 183.8L104.968 187.306C104.955 187.375 104.962 187.447 104.988 187.513C105.015 187.578 105.059 187.635 105.116 187.677C105.173 187.719 105.24 187.744 105.311 187.749C105.381 187.754 105.452 187.739 105.514 187.706L108.664 186.052L111.812 187.706C111.874 187.739 111.945 187.754 112.015 187.749C112.086 187.744 112.153 187.719 112.21 187.677C112.267 187.635 112.311 187.578 112.337 187.513C112.364 187.447 112.371 187.375 112.358 187.306L111.758 183.8L114.306 181.316C114.358 181.267 114.396 181.204 114.413 181.135C114.431 181.065 114.429 180.992 114.407 180.924C114.384 180.856 114.343 180.796 114.288 180.751C114.232 180.705 114.165 180.676 114.094 180.668Z" fill="white"/>
<path d="M325.2 210.88C306.7 227.066 288.102 243.28 268.65 258.788C264.646 261.996 259.58 263.577 254.461 263.217C249.343 262.856 244.549 260.58 241.034 256.842C229.862 244.93 215.434 227.642 207.148 210.56L207.706 232.326L194.194 254.526C202.522 271.726 214.518 290.584 228.794 310.49C220.608 324.712 206.744 331.396 190.394 333.664C176.999 313.007 165.535 291.16 156.148 268.4C154.846 265.165 154.25 261.69 154.4 258.206C154.55 254.722 155.443 251.311 157.018 248.2L186.908 189.316C201.018 187.581 214.899 184.323 228.308 179.598C229.464 179.194 230.553 178.619 231.54 177.894C236.768 180.206 248.628 188.728 259.028 219.834L298.994 180.834C305.528 183.248 311.352 187.263 315.931 192.513C320.51 197.763 323.697 204.078 325.2 210.88V210.88Z" fill="#B2BEC3"/>
<path d="M340.344 88.1479H271.256C267.693 88.1522 264.277 89.5695 261.757 92.0891C259.238 94.6087 257.82 98.0247 257.816 101.588V136.452C257.821 140.015 259.238 143.43 261.758 145.949C264.277 148.469 267.693 149.886 271.256 149.89H340.344C343.907 149.886 347.323 148.469 349.843 145.95C352.362 143.431 353.78 140.015 353.784 136.452V101.588C353.78 98.0247 352.362 94.6087 349.843 92.0891C347.323 89.5695 343.907 88.1522 340.344 88.1479ZM302.944 95.8539C302.87 94.5899 306.368 95.5219 307.312 102.218C308.026 107.296 308.052 108.3 308.25 109.846C308.76 113.798 308.622 114.658 308.724 114.872C311.242 120.454 307.006 128.454 301.028 127.716C300.93 127.705 300.832 127.733 300.754 127.795C300.677 127.856 300.626 127.945 300.614 128.043C300.602 128.141 300.628 128.239 300.688 128.318C300.748 128.396 300.836 128.448 300.934 128.462C307.518 129.262 312.134 120.716 309.436 114.626C309.42 114.396 309.364 113.598 309.25 112.334C310.712 113.219 312.435 113.572 314.128 113.334C313.481 113.508 312.911 113.894 312.509 114.43C312.107 114.966 311.896 115.621 311.909 116.29C311.923 116.96 312.16 117.606 312.583 118.125C313.006 118.645 313.591 119.007 314.244 119.156C313.539 119.206 312.874 119.5 312.363 119.989C311.853 120.477 311.529 121.129 311.448 121.831C311.368 122.533 311.535 123.241 311.921 123.832C312.308 124.424 312.889 124.862 313.564 125.07C312.953 125.347 312.446 125.811 312.116 126.395C311.787 126.979 311.652 127.653 311.732 128.32C311.811 128.986 312.101 129.609 312.559 130.099C313.017 130.589 313.619 130.921 314.278 131.046C311.314 132.148 311.804 136.712 316.012 137.162L316.852 137.254C306.76 137.654 260.852 138.596 258.758 138.654C258.638 138.037 258.579 137.41 258.584 136.782C258.532 134.688 258.568 129.42 258.568 112.884C261.788 113.084 283.472 114.422 290.5 114.344C293.246 114.312 298.358 114.256 300.1 110.862C301.706 107.748 303.048 97.5999 302.946 95.8539H302.944ZM316.092 136.42C312.236 136.008 312.142 131.434 315.902 131.566C318.932 131.676 319.436 131.628 321.902 131.812C325.586 132.092 325.464 136.96 322.486 136.982C320.345 136.937 318.21 136.749 316.094 136.42H316.092ZM315.692 130.53C311.668 130.39 311.27 125.644 315.168 125.504C318.146 125.396 320.288 125.418 323.288 125.43C327.124 125.446 327.328 130.506 324.244 130.754C322.156 130.922 319.6 130.66 315.694 130.53H315.692ZM315.44 124.666C311.54 124.666 310.964 120.154 314.7 119.866C317.788 119.626 324.9 119.396 325.1 119.396C328.642 119.396 329.03 124.114 326.112 124.47C324.074 124.718 319.484 124.638 315.442 124.666H315.44ZM316.136 118.626C312.274 118.954 311.302 114.482 315.022 113.896C317.464 113.514 322.708 112.862 323.272 112.862C326.534 112.862 327.184 117.286 324.376 117.862C322.382 118.256 320.148 118.284 316.138 118.626H316.136ZM353.03 136.452C353.026 139.816 351.688 143.041 349.31 145.419C346.931 147.797 343.706 149.135 340.342 149.138H271.256C268.406 149.134 265.64 148.172 263.402 146.407C261.164 144.642 259.584 142.177 258.916 139.406C261.068 139.35 265.488 139.258 271.044 139.142C338.88 137.742 315.54 137.742 322.486 137.742C325.854 137.716 326.486 133.092 323.654 131.542C323.872 131.542 324.09 131.52 324.306 131.504C327.582 131.24 328.044 126.904 325.506 125.282C325.762 125.264 325.996 125.242 326.204 125.216C330.108 124.742 329.582 118.482 324.916 118.646L324.058 118.678C324.214 118.65 324.37 118.622 324.526 118.59C328.376 117.812 327.364 111.612 322.74 112.14C311.454 112.812 309.578 113.17 309.03 110.064C308.758 107.452 308.444 104.864 308.058 102.112C306.892 93.8439 302.058 93.5579 302.194 95.8999C302.29 97.5599 300.95 107.57 299.432 110.518C297.896 113.518 293.078 113.564 290.492 113.592C283.458 113.67 261.61 112.322 258.568 112.132V101.588C258.571 98.2242 259.909 94.9991 262.287 92.6204C264.665 90.2417 267.89 88.9037 271.254 88.8999H340.342C343.706 88.9037 346.931 90.2416 349.31 92.6203C351.688 94.9989 353.026 98.224 353.03 101.588V136.452Z" fill="white"/>
<path d="M102.76 314H98.342C97.8438 314 97.3505 313.901 96.8905 313.71C96.4305 313.519 96.0128 313.239 95.6613 312.886C95.3099 312.533 95.0317 312.114 94.8427 311.653C94.6537 311.192 94.5576 310.698 94.56 310.2V305.8C94.56 305.7 94.5204 305.604 94.4499 305.534C94.3794 305.463 94.2837 305.424 94.184 305.424C94.0843 305.424 93.9886 305.463 93.9181 305.534C93.8476 305.604 93.808 305.7 93.808 305.8V310.2C93.8096 310.698 93.7129 311.191 93.5235 311.652C93.3341 312.113 93.0557 312.532 92.7042 312.885C92.3527 313.238 91.9351 313.518 91.4752 313.709C91.0152 313.901 90.5221 313.999 90.024 314H85.6C85.5003 314 85.4046 314.039 85.3341 314.11C85.2636 314.18 85.224 314.276 85.224 314.376C85.224 314.476 85.2636 314.571 85.3341 314.642C85.4046 314.712 85.5003 314.752 85.6 314.752H90.018C90.5149 314.752 91.007 314.849 91.4661 315.039C91.9252 315.229 92.3423 315.508 92.6936 315.86C93.0448 316.211 93.3234 316.628 93.5132 317.088C93.7031 317.547 93.8005 318.039 93.8 318.536V322.954C93.8069 323.049 93.8497 323.138 93.9196 323.203C93.9895 323.268 94.0815 323.304 94.177 323.304C94.2725 323.304 94.3645 323.268 94.4344 323.203C94.5043 323.138 94.5471 323.049 94.554 322.954V318.536C94.5537 318.039 94.6514 317.547 94.8414 317.088C95.0313 316.629 95.3099 316.212 95.6611 315.861C96.0124 315.51 96.4294 315.231 96.8884 315.041C97.3474 314.851 97.8393 314.754 98.336 314.754H102.756C102.856 314.754 102.952 314.715 103.023 314.645C103.094 314.574 103.134 314.479 103.135 314.379C103.136 314.279 103.096 314.183 103.026 314.112C102.956 314.041 102.86 314 102.76 314ZM94.182 316.72C93.7209 315.671 92.883 314.833 91.834 314.372C92.8829 313.912 93.7208 313.074 94.182 312.026C94.6408 313.075 95.4776 313.913 96.526 314.374C95.4797 314.833 94.6434 315.668 94.182 316.714V316.72Z" fill="white"/>
<path d="M294.048 63.7496H284.4V54.0956C284.393 54.0004 284.35 53.9113 284.28 53.8463C284.21 53.7813 284.118 53.7451 284.023 53.7451C283.927 53.7451 283.836 53.7813 283.766 53.8463C283.696 53.9113 283.653 54.0004 283.646 54.0956V63.7516H273.994C273.899 63.7586 273.81 63.8013 273.745 63.8713C273.68 63.9412 273.643 64.0331 273.643 64.1286C273.643 64.2241 273.68 64.3161 273.745 64.386C273.81 64.456 273.899 64.4987 273.994 64.5056H283.648V74.1576C283.655 74.2529 283.698 74.342 283.768 74.407C283.838 74.472 283.929 74.5082 284.025 74.5082C284.12 74.5082 284.212 74.472 284.282 74.407C284.352 74.342 284.395 74.2529 284.402 74.1576V64.5036H294.056C294.151 64.4958 294.24 64.4521 294.304 64.3815C294.369 64.3108 294.404 64.2185 294.403 64.1229C294.402 64.0274 294.365 63.9358 294.299 63.8665C294.233 63.7973 294.143 63.7555 294.048 63.7496Z" fill="white"/>
<path d="M107.308 40.0737C107.302 39.1495 107.023 38.2477 106.506 37.4815C105.989 36.7152 105.258 36.1188 104.403 35.7671C103.548 35.4154 102.609 35.3241 101.702 35.5046C100.796 35.6851 99.9628 36.1294 99.308 36.7817L98.466 37.6257L97.622 36.7857C97.1927 36.3238 96.6745 35.9533 96.0985 35.6965C95.5225 35.4397 94.9005 35.3018 94.27 35.2912C93.6394 35.2806 93.0132 35.3974 92.4289 35.6347C91.8445 35.8719 91.3142 36.2247 90.8695 36.672C90.4248 37.1192 90.0751 37.6516 89.8412 38.2373C89.6073 38.8229 89.494 39.4498 89.5083 40.0803C89.5225 40.7108 89.6639 41.3319 89.9241 41.9064C90.1842 42.481 90.5576 42.997 91.022 43.4237L98.228 50.5997C98.2628 50.6349 98.3042 50.6629 98.3499 50.6819C98.3955 50.701 98.4445 50.7108 98.494 50.7108C98.5435 50.7108 98.5925 50.701 98.6382 50.6819C98.6838 50.6629 98.7252 50.6349 98.76 50.5997L105.946 43.3817C106.38 42.9476 106.724 42.4318 106.958 41.864C107.192 41.2962 107.311 40.6877 107.308 40.0737Z" fill="white"/>
<path d="M62.112 43.4278C61.932 25.6278 77.492 10.2098 97.97 10.0018C126.4 9.67381 144.068 38.3418 129.032 60.4338L134.804 75.2338C134.831 75.3021 134.837 75.3768 134.822 75.4485C134.807 75.5203 134.771 75.5861 134.719 75.6377C134.667 75.6894 134.6 75.7247 134.529 75.7393C134.457 75.7539 134.382 75.7471 134.314 75.7198L119.436 69.8238C95.932 85.3618 62.386 70.4278 62.112 43.4278ZM98.378 10.7538C88.9915 10.665 79.9212 14.1426 73 20.4838C69.6483 23.4739 67.0017 27.1703 65.251 31.3067C63.5003 35.4431 62.6892 39.9164 62.8761 44.4042C63.063 48.8919 64.2433 53.2822 66.3319 57.2588C68.4204 61.2353 71.3652 64.6988 74.954 67.3998C81.2299 72.2571 88.8668 75.0319 96.7969 75.3364C104.727 75.6408 112.554 73.4597 119.184 69.0978C119.228 69.0678 119.262 69.0438 119.628 69.1638C120.536 69.4618 123.496 70.6318 133.79 74.7118C129.9 64.7358 128.68 61.6998 128.35 60.7218C128.178 60.2158 128.244 60.2578 128.3 60.1758C143.054 38.7718 126.2 10.7538 98.378 10.7538Z" fill="white"/>
<path d="M337.638 318.046L323.9 316.046L317.756 303.596C317.72 303.539 317.67 303.492 317.611 303.459C317.552 303.427 317.485 303.41 317.418 303.41C317.351 303.41 317.284 303.427 317.225 303.459C317.166 303.492 317.116 303.539 317.08 303.596L310.936 316.046L297.198 318.046C297.129 318.057 297.065 318.087 297.012 318.133C296.959 318.179 296.92 318.238 296.9 318.305C296.879 318.372 296.877 318.443 296.895 318.51C296.912 318.578 296.948 318.639 296.998 318.688L306.938 328.378L304.592 342.062C304.579 342.131 304.586 342.203 304.612 342.269C304.639 342.334 304.683 342.391 304.74 342.433C304.797 342.475 304.864 342.5 304.935 342.505C305.005 342.51 305.076 342.495 305.138 342.462L317.426 336.002L329.714 342.462C329.776 342.495 329.847 342.51 329.917 342.505C329.988 342.5 330.055 342.475 330.112 342.433C330.169 342.391 330.213 342.334 330.24 342.269C330.266 342.203 330.273 342.131 330.26 342.062L327.914 328.378L337.854 318.688C337.905 318.638 337.94 318.576 337.957 318.507C337.973 318.438 337.97 318.366 337.948 318.299C337.925 318.232 337.884 318.173 337.829 318.128C337.774 318.083 337.708 318.055 337.638 318.046ZM327.238 327.978C327.038 328.178 326.932 327.154 329.382 341.438C316.646 334.74 317.504 335.104 317.244 335.238L305.444 341.438L307.696 328.31C307.746 328.032 308.428 328.796 298.052 318.682C312.434 316.59 311.388 316.814 311.514 316.56L317.408 304.618L323.302 316.56C323.428 316.814 322.414 316.596 336.766 318.682L327.238 327.978Z" fill="white"/>
<path d="M86.4 166.538C93.0559 146.219 105.067 128.072 121.17 114.006C137.272 99.94 156.869 90.4764 177.898 86.6117C177.996 86.5936 178.097 86.6153 178.18 86.672C178.262 86.7286 178.318 86.8155 178.336 86.9137C178.354 87.0118 178.332 87.1131 178.276 87.1952C178.219 87.2774 178.132 87.3336 178.034 87.3517C157.137 91.1899 137.661 100.593 121.659 114.57C105.657 128.547 93.72 146.581 87.106 166.772C87.0653 166.852 86.9971 166.915 86.9138 166.95C86.8305 166.984 86.7376 166.987 86.6521 166.959C86.5666 166.931 86.4941 166.872 86.4478 166.795C86.4015 166.718 86.3845 166.626 86.4 166.538Z" fill="white"/>
<path d="M368.074 172.68C357.37 167.366 327.15 168.552 310.356 171.402C310.292 171.42 310.282 171.402 310.156 171.53C309.756 171.918 308.314 173.624 301.442 181.456C300.69 181.116 299.923 180.789 299.142 180.476C299.062 180.444 298.92 180.476 298.524 180.808C297.278 181.864 291.362 187.758 259.204 219.146C249.352 189.986 238.33 180.746 232.27 177.814C234.004 176.41 235.342 174.577 236.15 172.497C236.959 170.417 237.21 168.163 236.88 165.956C235.062 153.618 230.5 128.23 226.246 120.454C221.694 112.144 210.43 112.306 207.362 110.464C202.084 107.29 199.562 100.318 199.24 94.2437C199.23 94.1478 199.184 94.0593 199.11 93.9966C199.037 93.9339 198.942 93.9018 198.846 93.907C198.75 93.9121 198.659 93.9541 198.593 94.0242C198.526 94.0943 198.49 94.1872 198.49 94.2837C198.816 100.614 201.474 107.802 206.974 111.108C208.998 111.958 211.109 112.581 213.27 112.968C212.718 114.364 211.803 115.587 210.62 116.512C209.363 117.313 208.016 117.964 206.606 118.45C194 122.8 181.742 114.412 184.478 116.182C183.298 115.568 182.296 114.662 181.566 113.55C183.372 112.915 185.21 112.375 187.072 111.934C188.736 111.398 190.172 110.32 191.151 108.872C192.13 107.424 192.595 105.689 192.472 103.946L194.504 100.014C194.537 99.9434 194.547 99.8646 194.534 99.7882C194.52 99.7118 194.483 99.6414 194.428 99.5869C194.373 99.5323 194.302 99.4962 194.225 99.4834C194.149 99.4707 194.07 99.482 194 99.5157C193.265 100.032 192.487 100.484 191.674 100.866C187.408 102.842 184.372 101.806 183.134 97.2657C182.336 93.0932 182.309 88.8098 183.056 84.6277C183.526 81.8477 184.68 77.8477 187.5 77.8657C189.922 77.8657 192.77 80.8657 194.138 83.8837C194.172 83.9544 194.228 84.0126 194.297 84.0504C194.366 84.0882 194.445 84.1036 194.523 84.0946C194.601 84.0856 194.675 84.0526 194.733 84.0002C194.792 83.9477 194.833 83.8784 194.85 83.8017C195.422 80.9637 196.8 78.9557 198.338 78.9557C198.538 78.9557 204.564 78.9197 205.226 78.9557C212.296 78.8537 220.382 75.5857 220.382 66.6277C220.382 57.9997 214.24 47.9697 206.318 47.9697C197.718 47.9697 190.918 56.2397 189.946 63.9697C189.704 65.9181 189.953 67.896 190.67 69.7237C188.288 70.0669 186.073 71.149 184.338 72.8174C182.603 74.4859 181.436 76.6566 181 79.0237C180.976 79.1205 180.992 79.2227 181.043 79.3081C181.095 79.3935 181.177 79.4552 181.274 79.4797C181.274 79.4797 181.674 79.4617 181.952 79.4417C181.587 83.7023 181.51 87.9828 181.722 92.2537C181.922 99.7697 184.722 104.63 191.546 101.742C192.268 105.968 191.02 109.804 186.832 111.222C183.77 112.266 173.232 113.324 167.914 126.334C166.294 130.294 165.264 135.06 163.542 138.934C162.728 136.378 162.386 135.242 162.204 134.734C162.052 134.312 162.064 134.288 161.506 134.182L157.094 133.04C155.724 131.066 153.839 129.506 151.644 128.53L161.6 114.852C161.722 114.695 161.81 114.514 161.859 114.322C161.908 114.129 161.917 113.929 161.885 113.733C161.853 113.537 161.781 113.349 161.674 113.182C161.566 113.015 161.425 112.872 161.26 112.762C161.095 112.651 160.908 112.576 160.713 112.541C160.517 112.506 160.317 112.512 160.123 112.558C159.93 112.604 159.748 112.689 159.589 112.809C159.431 112.928 159.298 113.079 159.2 113.252L150.162 128.032C148.852 127.685 147.483 127.613 146.144 127.822L145.372 123.636C145.358 123.564 145.325 123.498 145.275 123.445C145.225 123.393 145.161 123.355 145.09 123.338L139.6 122C139.366 121.942 139.078 122.072 139.182 122.566C139.308 123.166 139.756 124.666 140.914 128.856C129.62 125.932 126.558 125.09 125.67 124.93C125.038 124.814 125.162 125.144 125.27 125.46C125.832 127.246 129.058 136.202 144.374 180.958C144.476 181.252 142.262 180.558 179.48 190.716C179.902 190.768 179.988 190.554 179.768 189.716C179.512 188.728 178.832 186.878 177.78 183.574C178.58 183.974 179.38 184.346 180.18 184.708C180.96 186.658 182.78 190.422 184.82 189.968C185.302 189.912 185.78 189.852 186.256 189.792C183.036 196.138 156.688 248.036 156.688 248.036C155.088 251.196 154.182 254.661 154.029 258.199C153.877 261.738 154.482 265.268 155.804 268.554C165.191 291.337 176.668 313.202 190.09 333.868C190.248 334.112 190.47 334.038 190.922 333.972C192.407 333.758 193.856 333.51 195.268 333.228C197.886 337.358 198.868 338.542 199.608 347.608C201.014 359.824 203.837 371.836 208.02 383.4L210.49 389.752C210.513 389.812 210.551 389.866 210.601 389.907C210.651 389.948 210.711 389.976 210.774 389.987C210.838 389.998 210.903 389.993 210.964 389.971C211.025 389.95 211.08 389.913 211.122 389.864C219.006 380.882 225.622 351.378 227.18 334.42C227.18 334.164 227.638 334.952 219.272 322.478C223.239 319.159 226.58 315.156 229.136 310.66C229.17 310.598 229.187 310.528 229.183 310.457C229.18 310.386 229.156 310.318 229.116 310.26C213.658 288.716 202.374 270.484 194.632 254.536L213.782 223.092C221.732 235.217 230.764 246.597 240.768 257.092C244.362 260.874 249.241 263.175 254.446 263.542C259.651 263.91 264.805 262.316 268.894 259.076C287.668 244.1 305.62 228.514 325.458 211.158C325.511 211.112 325.549 211.053 325.57 210.986C325.591 210.92 325.593 210.849 325.576 210.782C324.559 206.679 323.004 202.729 320.952 199.034C323.778 197.103 326.891 195.629 330.176 194.668C341.667 190.253 352.566 184.43 362.624 177.334C366.308 174.714 367.61 173.784 368.062 173.386C368.4 173.09 368.298 172.8 368.074 172.68ZM213.874 113.48C214.266 113.68 214.579 114.006 214.764 114.405C214.949 114.804 214.994 115.254 214.894 115.682C214.793 116.11 214.552 116.492 214.209 116.767C213.865 117.043 213.44 117.195 213 117.2C212.445 117.218 211.894 117.095 211.4 116.842C212.466 115.92 213.309 114.768 213.866 113.474L213.874 113.48ZM210.696 117.362C210.789 117.653 210.811 117.962 210.763 118.263C210.714 118.565 210.594 118.851 210.414 119.098C210.234 119.345 209.999 119.546 209.727 119.685C209.455 119.824 209.154 119.897 208.848 119.898C208.528 119.898 208.213 119.819 207.932 119.667C207.651 119.515 207.411 119.295 207.236 119.028C208.435 118.577 209.591 118.017 210.688 117.356L210.696 117.362ZM206.428 119.306C206.465 119.769 206.334 120.23 206.058 120.604C205.783 120.979 205.383 121.241 204.93 121.345C204.477 121.448 204.002 121.384 203.591 121.166C203.181 120.948 202.863 120.589 202.696 120.156C203.958 119.968 205.203 119.681 206.42 119.3L206.428 119.306ZM201.714 120.272C201.66 120.725 201.441 121.142 201.099 121.443C200.757 121.745 200.316 121.91 199.86 121.908C199.429 121.907 199.011 121.758 198.676 121.485C198.341 121.213 198.111 120.834 198.022 120.412C199.252 120.442 200.482 120.393 201.706 120.266L201.714 120.272ZM193.388 119.914C194.636 120.136 195.895 120.289 197.16 120.372C197.048 120.775 196.807 121.13 196.474 121.383C196.141 121.635 195.734 121.772 195.316 121.772C194.815 121.771 194.334 121.576 193.974 121.229C193.613 120.881 193.4 120.408 193.38 119.908L193.388 119.914ZM188.932 118.792C190.149 119.179 191.384 119.505 192.634 119.768C192.448 120.192 192.116 120.536 191.699 120.737C191.282 120.938 190.806 120.984 190.359 120.865C189.911 120.747 189.52 120.472 189.257 120.091C188.994 119.709 188.876 119.246 188.924 118.786L188.932 118.792ZM184.6 117.072C185.757 117.614 186.942 118.097 188.148 118.52C187.905 118.909 187.533 119.2 187.097 119.341C186.66 119.482 186.188 119.465 185.764 119.291C185.339 119.118 184.989 118.8 184.776 118.394C184.563 117.988 184.501 117.52 184.6 117.072ZM180.924 113.928C181.639 115.058 182.622 115.994 183.786 116.654C183.608 116.886 183.378 117.075 183.115 117.204C182.852 117.334 182.563 117.402 182.27 117.402C181.874 117.387 181.491 117.257 181.168 117.027C180.845 116.797 180.597 116.478 180.453 116.109C180.309 115.74 180.276 115.337 180.359 114.949C180.441 114.562 180.635 114.207 180.916 113.928H180.924ZM151.188 129.146C153.034 129.924 154.654 131.154 155.898 132.724L149.742 131.124L151.188 129.146ZM149.75 128.69C149.018 129.89 148.55 130.602 148.472 130.804L146.604 130.318L146.278 128.552C147.433 128.367 148.613 128.414 149.75 128.69ZM140.042 122.872L144.67 124L145.8 130.108L141.754 129.06L140.042 122.872ZM178.964 189.8L145.01 180.514L126.1 125.8L161.48 134.958L167.578 154.088C167.542 157.788 167.29 160.12 166.368 160.652C166.175 160.733 165.964 160.762 165.756 160.737C165.547 160.711 165.35 160.632 165.182 160.506C160.343 156.113 155.101 152.185 149.526 148.774C148.176 148.072 144.186 146 143.326 147.24C142.726 148.098 143.956 149.934 146.978 152.698C148.19 153.814 149.324 154.93 150.366 156.036C148.894 155.342 147.132 154.558 145.998 154.058C143.258 152.858 141.546 152.644 141.048 153.44C140.943 153.635 140.911 153.861 140.96 154.078C141.008 154.294 141.132 154.486 141.31 154.618C143.268 156.298 146.52 158.642 148.78 160.478C147.426 160.124 144.02 159.294 143.474 160.592C143.402 160.802 143.408 161.031 143.49 161.237C143.572 161.444 143.725 161.614 143.922 161.718C146.572 163.332 151.486 165.7 153.922 167.276C157.617 169.364 161.109 171.792 164.354 174.528C165.603 175.89 166.992 177.118 168.498 178.19C171.169 180.007 173.956 181.647 176.84 183.102L178.964 189.8ZM154.964 164.488C149.836 160.676 152.032 161.962 145.882 157.27C144.42 156.152 142.908 154.998 141.798 154.046C141.7 153.962 141.67 153.862 141.686 153.846C141.702 153.83 142.256 153.246 145.686 154.752C147.322 155.474 150.27 156.792 151.738 157.552C154.515 160.681 156.979 164.074 159.094 167.684C157.776 166.568 156.33 165.494 154.962 164.478L154.964 164.488ZM161.074 170.522C161.307 170.84 161.546 171.16 161.79 171.48C159.936 170.148 157.86 168.858 156.166 167.804C153.84 166.277 151.43 164.883 148.946 163.63C147.288 162.752 145.576 161.844 144.314 161.074C144.204 161.008 144.156 160.912 144.168 160.884C144.18 160.856 144.636 160.198 148.272 161.124C148.638 161.218 149.31 161.392 150.104 161.602C153.52 164.614 158.15 167.414 161.072 170.512L161.074 170.522ZM180.62 184.08C176.042 182.038 171.686 179.531 167.62 176.6C166.032 175.266 164.58 173.779 163.284 172.16C161.224 169.514 159.32 166.752 157.58 163.886C154.7 159.579 151.309 155.636 147.482 152.144C144.16 149.106 143.802 147.866 143.938 147.672C143.948 147.661 143.961 147.652 143.974 147.646C144.16 147.556 145.138 147.338 149.174 149.446C154.701 152.828 159.896 156.724 164.69 161.084C164.713 161.107 164.74 161.127 164.768 161.144C165.051 161.346 165.384 161.468 165.731 161.497C166.079 161.526 166.427 161.461 166.74 161.308C168.74 160.156 168.17 154.39 168.388 152.398C168.417 151.329 168.63 150.273 169.018 149.276C169.13 149.296 169.776 149.624 171.418 154.088C172.714 157.616 174.99 163.8 177.972 165.83C179.568 166.755 181.451 167.053 183.254 166.666C185.741 172.858 186.729 179.551 186.136 186.198C184.258 185.593 182.416 184.882 180.618 184.07L180.62 184.08ZM185.958 189.068C186.376 188.354 186.661 187.57 186.798 186.754C187.962 181.074 186.166 171.308 183.828 166.098C183.275 164.65 182.4 163.347 181.268 162.288L209.556 157.668C209.606 157.66 209.654 157.642 209.696 157.615C209.739 157.588 209.776 157.553 209.805 157.512C209.834 157.47 209.854 157.423 209.864 157.374C209.874 157.324 209.874 157.273 209.864 157.224L206.734 141.57C206.714 141.472 206.657 141.386 206.574 141.33C206.491 141.275 206.389 141.255 206.291 141.275C206.193 141.294 206.107 141.352 206.052 141.435C205.996 141.518 205.976 141.62 205.996 141.718L209.05 156.988L183.026 161.228C182.384 160.076 179.536 154.958 179.068 154.108C174.954 146.658 175.612 136.272 175.62 136.168C175.625 136.07 175.591 135.974 175.525 135.9C175.46 135.827 175.368 135.782 175.27 135.775C175.172 135.768 175.076 135.8 175.001 135.864C174.926 135.928 174.879 136.018 174.87 136.116C174.87 136.222 174.186 146.824 178.408 154.472C178.85 155.272 181.408 159.872 182.238 161.356L179.762 161.756C178.81 161.872 178.116 162.832 177.694 164.61C173.246 160.386 171.278 148.21 168.942 148.512C168.142 148.608 167.916 149.862 167.684 151.932L163.878 140C167.82 131.872 167.662 120.164 179.766 114.334C179.592 114.75 179.522 115.202 179.562 115.651C179.603 116.1 179.753 116.532 179.999 116.91C180.245 117.288 180.58 117.6 180.975 117.818C181.369 118.037 181.811 118.155 182.262 118.164C182.812 118.164 183.349 117.993 183.798 117.674C183.831 118.171 184 118.651 184.287 119.058C184.575 119.466 184.969 119.786 185.427 119.984C185.885 120.182 186.388 120.25 186.882 120.18C187.376 120.11 187.841 119.905 188.226 119.588C188.342 120.06 188.582 120.493 188.922 120.841C189.261 121.189 189.688 121.44 190.157 121.568C190.626 121.697 191.121 121.697 191.59 121.569C192.059 121.442 192.486 121.191 192.826 120.844C193.008 121.299 193.312 121.695 193.704 121.99C194.096 122.284 194.562 122.465 195.05 122.512C195.538 122.559 196.029 122.471 196.471 122.258C196.912 122.044 197.286 121.714 197.552 121.302C197.793 121.737 198.152 122.096 198.589 122.335C199.025 122.575 199.521 122.685 200.018 122.654C200.515 122.623 200.992 122.452 201.396 122.16C201.799 121.868 202.111 121.468 202.296 121.006C202.597 121.433 203.015 121.763 203.501 121.957C203.986 122.15 204.517 122.197 205.029 122.093C205.541 121.989 206.012 121.738 206.384 121.371C206.755 121.004 207.012 120.536 207.122 120.026C207.531 120.363 208.03 120.573 208.557 120.628C209.085 120.683 209.617 120.581 210.086 120.335C210.556 120.09 210.943 119.711 211.198 119.246C211.454 118.782 211.566 118.252 211.522 117.724C212 117.879 212.501 117.956 213.004 117.952C213.521 117.945 214.025 117.793 214.458 117.511C214.891 117.23 215.235 116.831 215.45 116.361C215.666 115.892 215.743 115.371 215.674 114.859C215.605 114.347 215.392 113.865 215.06 113.47C217.215 113.931 219.256 114.819 221.062 116.082C222.868 117.344 224.403 118.956 225.576 120.822C229.776 128.506 234.316 153.782 236.126 166.074C236.541 168.851 235.975 171.686 234.525 174.09C233.076 176.495 230.833 178.32 228.184 179.25C214.506 184.042 200.346 187.33 185.956 189.058L185.958 189.068ZM223.104 329.558L226.42 334.5C224.844 351.434 218.27 379.832 210.962 388.9L208.794 383.322C214.254 374.778 219.554 349.6 223.102 329.548L223.104 329.558ZM324.79 210.758C305.028 228.048 287.134 243.58 268.428 258.502C264.487 261.625 259.52 263.16 254.503 262.807C249.487 262.454 244.785 260.237 241.32 256.592C231.191 245.983 222.071 234.456 214.078 222.158C211.662 218.406 209.482 214.507 207.552 210.484C207.21 209.94 206.784 210.264 206.784 210.568C206.784 210.568 206.784 210.568 207.338 232.232C196.998 249.214 194.492 253.232 193.952 254.26C193.752 254.66 193.828 254.608 193.868 254.688C201.608 270.67 212.894 288.932 228.364 310.51C225.421 315.63 221.437 320.077 216.67 323.564L200.644 298.78C200.586 298.707 200.504 298.658 200.412 298.642C200.321 298.626 200.226 298.645 200.148 298.695C200.069 298.745 200.012 298.822 199.987 298.911C199.962 299.001 199.971 299.096 200.012 299.18L216.056 324C208.419 329.048 199.696 332.217 190.6 333.248C177.257 312.683 165.844 290.928 156.506 268.262C155.224 265.076 154.636 261.652 154.784 258.221C154.932 254.79 155.811 251.43 157.362 248.366C157.362 248.366 186.71 190.536 187.076 189.674C201.172 187.932 215.038 184.673 228.434 179.954C229.554 179.56 230.614 179.013 231.584 178.328C236.42 180.546 248.312 188.97 258.67 219.954C258.69 220.014 258.726 220.068 258.773 220.111C258.82 220.154 258.877 220.185 258.939 220.199C259.001 220.214 259.066 220.213 259.127 220.196C259.189 220.179 259.245 220.146 259.29 220.102L299.08 181.266C303.49 182.994 307.597 185.415 311.246 188.436L289.93 208.358C289.874 208.409 289.836 208.476 289.819 208.55C289.802 208.624 289.808 208.701 289.835 208.771C289.863 208.842 289.911 208.902 289.974 208.945C290.036 208.987 290.11 209.01 290.186 209.01C290.416 209.01 288.902 210.348 311.822 188.928C318.307 194.677 322.839 202.305 324.788 210.75L324.79 210.758ZM362.344 176.622C352.71 173.538 327.01 174.876 306.702 176.598L310.622 172.128C327.392 169.302 356.528 168.362 367.174 173.096L362.344 176.622Z" fill="white"/>
<path d="M218.074 189.626C218.033 189.598 217.998 189.562 217.971 189.521C217.944 189.48 217.925 189.433 217.916 189.385C217.907 189.336 217.908 189.286 217.918 189.238C217.928 189.19 217.947 189.144 217.975 189.103C218.003 189.062 218.039 189.027 218.08 189C218.121 188.973 218.167 188.954 218.216 188.945C218.265 188.936 218.315 188.936 218.363 188.946C218.411 188.956 218.457 188.976 218.498 189.004C221.369 191.106 224.642 192.595 228.113 193.378C231.584 194.161 235.179 194.222 238.674 193.556C238.772 193.536 238.874 193.556 238.957 193.612C239.04 193.667 239.097 193.753 239.117 193.851C239.137 193.949 239.117 194.05 239.061 194.133C239.006 194.217 238.92 194.274 238.822 194.294C235.228 194.978 231.532 194.917 227.963 194.114C224.394 193.311 221.028 191.784 218.074 189.626Z" fill="white"/>
<path d="M204.432 78.4157C203.378 78.2359 202.305 78.1996 201.242 78.3077C200.591 76.1789 199.257 74.3238 197.446 73.0289C195.636 71.734 193.449 71.0715 191.224 71.1437C188.97 71.0138 186.747 71.7139 184.975 73.1116C183.202 74.5094 182.003 76.508 181.604 78.7297L181.272 78.7417C180.226 78.7957 179.224 79.7577 178.522 81.3797C176.296 86.5257 178.27 94.6977 182.244 95.0237H182.274C182.326 95.0237 182.376 95.013 182.424 94.9923C182.471 94.9717 182.513 94.9415 182.548 94.9037C183.042 94.3737 181.43 91.9797 182.718 79.2877C182.744 79.2284 182.755 79.1639 182.752 79.0993C182.748 79.0348 182.73 78.9719 182.698 78.9155C182.666 78.8592 182.622 78.811 182.569 78.7746C182.515 78.7382 182.454 78.7146 182.39 78.7057C182.792 76.6953 183.908 74.8983 185.532 73.6463C187.156 72.3943 189.177 71.7718 191.224 71.8937C193.251 71.8018 195.251 72.3801 196.916 73.5391C198.581 74.6981 199.818 76.3733 200.436 78.3057H198.368C193.864 78.3057 192.286 88.4337 195.586 92.9697C194.071 94.4353 192.269 95.5724 190.294 96.3097C190.061 95.9714 189.727 95.7157 189.34 95.5793C188.953 95.4429 188.532 95.4329 188.139 95.5508C187.746 95.6686 187.4 95.9082 187.151 96.2351C186.903 96.5619 186.764 96.9592 186.756 97.3697C186.763 97.6327 186.823 97.8914 186.934 98.1299C187.045 98.3684 187.204 98.5814 187.401 98.7558C187.598 98.9301 187.829 99.0619 188.079 99.1431C188.329 99.2243 188.593 99.253 188.855 99.2275C189.117 99.202 189.37 99.1229 189.6 98.995C189.83 98.8671 190.031 98.6932 190.191 98.4841C190.35 98.2751 190.465 98.0354 190.528 97.78C190.591 97.5246 190.6 97.259 190.556 96.9997C190.577 96.9965 190.598 96.9912 190.618 96.9837C192.631 96.1834 194.48 95.0194 196.072 93.5497C196.361 93.8787 196.714 94.145 197.109 94.3322C197.505 94.5193 197.935 94.6233 198.372 94.6377C204.254 94.6377 203.934 94.6777 204.436 94.5317C209.514 93.0437 209.516 79.9017 204.432 78.4157ZM181.832 94.1757C179.048 93.2457 177.124 86.5217 179.218 81.6777C179.794 80.3477 180.578 79.5317 181.31 79.4937L181.95 79.4697C181.36 84.3517 181.318 89.2845 181.826 94.1757H181.832ZM198.374 93.9217V93.8877C196.32 93.8877 194.584 90.4877 194.584 86.4737C194.584 82.4597 196.32 79.0597 198.374 79.0597H201.774C198.324 81.9477 198.254 90.9117 201.762 93.8877C199.55 93.8877 198.71 93.8937 198.368 93.9217H198.374ZM204.23 93.8097C200.63 94.8697 198.246 85.5397 201.362 80.6957C202.032 79.6497 203.036 78.7857 204.228 79.1377C205.854 79.6137 207.502 82.2857 207.502 86.4737C207.502 90.6617 205.85 93.3337 204.224 93.8097H204.23Z" fill="white"/>
<path d="M258.2 100.884C257.01 100.884 238.572 87.82 207.854 85.684C207.756 85.6749 207.666 85.628 207.602 85.5532C207.539 85.4783 207.507 85.3816 207.514 85.2836C207.52 85.1856 207.565 85.0942 207.639 85.0288C207.712 84.9635 207.808 84.9295 207.906 84.934C225.67 86.1289 242.931 91.3405 258.388 100.176C258.463 100.216 258.522 100.28 258.556 100.358C258.59 100.436 258.597 100.523 258.575 100.605C258.554 100.687 258.505 100.759 258.436 100.81C258.368 100.861 258.285 100.887 258.2 100.884Z" fill="white"/>
</svg>
