<svg width="400" height="401" viewBox="0 0 400 401" fill="none" xmlns="http://www.w3.org/2000/svg">
<path d="M199.54 323.47C183.862 323.512 168.332 320.438 153.853 314.424C139.374 308.411 126.235 299.579 115.2 288.442C115.129 288.371 115.09 288.275 115.09 288.175C115.09 288.075 115.13 287.979 115.201 287.909C115.272 287.838 115.368 287.799 115.468 287.799C115.568 287.799 115.663 287.839 115.734 287.91C131.426 303.659 151.238 314.668 172.899 319.677C194.56 324.685 217.193 323.489 238.206 316.226C259.219 308.964 277.76 295.928 291.705 278.613C305.651 261.299 314.436 240.405 317.054 218.328C317.066 218.228 317.116 218.138 317.195 218.076C317.273 218.014 317.373 217.986 317.472 217.998C317.571 218.009 317.662 218.06 317.724 218.138C317.785 218.217 317.814 218.316 317.802 218.416C314.385 247.375 300.453 274.071 278.653 293.437C256.852 312.803 228.7 323.49 199.54 323.47Z" fill="#1890ff"/>
<path d="M313.376 172.038C311.247 164.549 308.381 157.29 304.82 150.368C304.779 150.28 304.774 150.179 304.805 150.087C304.837 149.996 304.903 149.919 304.989 149.875C305.075 149.831 305.175 149.821 305.268 149.849C305.361 149.877 305.44 149.939 305.488 150.024C309.073 156.987 311.958 164.29 314.1 171.824C314.128 171.92 314.117 172.023 314.07 172.111C314.022 172.199 313.941 172.264 313.845 172.293C313.749 172.321 313.646 172.31 313.558 172.262C313.47 172.214 313.404 172.134 313.376 172.038Z" fill="#1890ff"/>
<path d="M127.686 230.308C127.682 226.744 126.265 223.328 123.745 220.808C121.226 218.289 117.809 216.871 114.246 216.868H84.44V198.9H114.87C116.393 198.898 117.854 198.292 118.931 197.215C120.009 196.138 120.614 194.677 120.616 193.154V172.706C120.614 171.183 120.008 169.722 118.931 168.646C117.853 167.569 116.393 166.963 114.87 166.962H44.536C43.0146 166.966 41.5569 167.573 40.4819 168.649C39.4069 169.726 38.8021 171.184 38.8 172.706V193.154C38.8016 194.677 39.4075 196.138 40.4847 197.215C41.562 198.292 43.0226 198.898 44.546 198.9H74.964V216.868H45.164C41.6008 216.872 38.1847 218.289 35.6652 220.809C33.1456 223.328 31.7282 226.744 31.724 230.308V275.17C31.7282 278.733 33.1456 282.149 35.6652 284.669C38.1847 287.188 41.6008 288.605 45.164 288.61H114.246C117.809 288.605 121.225 287.188 123.745 284.669C126.264 282.149 127.682 278.733 127.686 275.17V230.308ZM84.44 261.302V253.388C85.6116 254.818 87.1747 255.875 88.938 256.43C89.033 256.46 89.1362 256.452 89.2251 256.407C89.314 256.361 89.3812 256.283 89.412 256.188C89.4428 256.093 89.4346 255.989 89.3892 255.901C89.3438 255.812 89.2649 255.744 89.17 255.714C85.072 254.39 82.136 250.332 82.814 243.778C82.8249 243.678 82.7959 243.579 82.7335 243.501C82.671 243.423 82.5802 243.374 82.481 243.363C82.3818 243.352 82.2824 243.381 82.2045 243.443C82.1267 243.506 82.0769 243.596 82.066 243.696C81.266 251.23 77.334 251.584 77.218 249.2C77.046 245.586 76.864 243.096 76.95 241.468C77.116 238.378 78.248 238.302 82.204 238.044C87.536 237.694 87.854 237.674 89.516 240.258C90.116 241.2 89.916 245.524 92.81 245.554C103.374 245.668 123.21 245.22 126.934 244.932V266.808C124.194 266.738 92.116 266.396 84.44 266.24V263.31C84.673 262.661 84.673 261.951 84.44 261.302ZM75.716 287.856V266.356C76.288 266.292 79.68 265.874 80.992 265.734C82.006 265.661 82.9612 265.23 83.688 264.52V287.856H75.716ZM80.916 264.986C76.82 265.424 74.716 265.82 72.678 265.8C69.71 265.778 69.574 260.912 73.264 260.63C76.168 260.41 78.172 260.23 81.106 260.132C84.9 260.006 84.738 264.576 80.912 264.986H80.916ZM76.218 241.196C76.1611 242.961 76.1992 244.728 76.332 246.49C74.7262 246.593 73.1152 246.589 71.51 246.476C68.622 246.2 68.66 241.182 72.354 241.162L76.218 241.196ZM72 247.582C73.496 247.55 74.882 247.434 76.382 247.382C76.412 247.962 76.444 248.582 76.474 249.236C76.592 251.666 79.912 252.512 81.738 248.33C82.0989 248.689 82.3426 249.149 82.4372 249.65C82.5317 250.15 82.4727 250.667 82.2678 251.134C82.0629 251.6 81.7217 251.993 81.2892 252.262C80.8566 252.531 80.3528 252.662 79.844 252.64C75.664 252.86 73.33 253.162 71.162 253.028C68.034 252.836 68.05 247.668 72 247.582ZM83.066 251.144C83.2508 251.551 83.4612 251.947 83.696 252.328V255.37C83.5589 254.794 83.2544 254.271 82.8209 253.868C82.3874 253.465 81.8443 253.199 81.26 253.104C81.6921 252.94 82.0798 252.678 82.3921 252.337C82.7043 251.997 82.9324 251.588 83.058 251.144H83.066ZM72.084 254.028C75.084 253.886 77.15 253.76 80.2 253.748C84.15 253.732 83.872 258.482 79.894 258.792C75.772 259.114 73.494 259.466 71.362 259.392C68.262 259.282 68.244 254.21 72.076 254.028H72.084ZM83.696 256.696V260.192C83.3055 259.88 82.8569 259.648 82.3763 259.511C81.8956 259.373 81.3924 259.333 80.896 259.392C81.5677 259.25 82.186 258.922 82.6798 258.445C83.1736 257.968 83.5231 257.362 83.688 256.696H83.696ZM114.254 217.62C117.618 217.623 120.843 218.961 123.222 221.34C125.6 223.719 126.938 226.944 126.942 230.308V244.178C123.492 244.464 103.464 244.916 92.826 244.802C90.644 244.78 90.898 241.002 90.158 239.85C88.57 237.386 87.824 237.008 84.448 237.158V217.62H114.254ZM44.544 198.22V198.146C43.2179 198.146 41.9461 197.619 41.0085 196.681C40.0708 195.744 39.544 194.472 39.544 193.146V172.706C39.544 171.38 40.0708 170.108 41.0085 169.17C41.9461 168.232 43.2179 167.706 44.544 167.706H114.87C116.196 167.706 117.468 168.232 118.406 169.17C119.343 170.108 119.87 171.38 119.87 172.706V193.154C119.87 194.48 119.343 195.752 118.406 196.689C117.468 197.627 116.196 198.154 114.87 198.154H84.07C84.0206 198.154 83.9717 198.163 83.9261 198.182C83.8805 198.201 83.839 198.229 83.8041 198.264C83.7692 198.299 83.7415 198.34 83.7226 198.386C83.7037 198.431 83.694 198.48 83.694 198.53V237.202C83.208 237.23 82.676 237.266 82.094 237.304C78.094 237.566 76.694 237.946 76.308 240.452L75.732 240.442V198.524C75.7315 198.424 75.6914 198.328 75.6206 198.258C75.5498 198.187 75.4539 198.148 75.354 198.148C45.366 198.148 45.244 198.122 44.536 198.222L44.544 198.22ZM32.48 275.168V230.308C32.4832 226.944 33.8207 223.719 36.199 221.34C38.5774 218.961 41.8023 217.623 45.166 217.62H74.966V240.42C74.506 240.42 72.366 240.4 72.366 240.4C71.5655 240.369 70.7788 240.614 70.1365 241.093C69.4943 241.571 69.0352 242.255 68.8357 243.031C68.6361 243.807 68.7081 244.628 69.0396 245.357C69.3711 246.086 69.9422 246.68 70.658 247.04C69.9622 247.252 69.3499 247.677 68.9061 248.253C68.4622 248.83 68.2089 249.53 68.1812 250.257C68.1535 250.984 68.3528 251.702 68.7515 252.31C69.1502 252.919 69.7284 253.389 70.406 253.654C67.33 255.094 67.82 260.006 71.336 260.132C71.536 260.132 71.752 260.144 71.962 260.144C68.738 261.38 69.118 266.206 72.362 266.526C72.506 266.572 74.66 266.68 74.98 266.696V287.848H45.18C41.8142 287.85 38.5852 286.516 36.2023 284.139C33.8195 281.761 32.4778 278.535 32.472 275.17L32.48 275.168ZM114.254 287.854H84.44V266.992C92.118 267.148 124.21 267.492 126.934 267.562V275.162C126.932 278.527 125.595 281.753 123.216 284.133C120.837 286.513 117.611 287.852 114.246 287.856L114.254 287.854Z" fill="#1890ff"/>
<path d="M56.176 181.35L52.656 180.84L51.08 177.64C51.0439 177.583 50.994 177.537 50.9351 177.504C50.8762 177.472 50.8102 177.455 50.743 177.455C50.6759 177.455 50.6098 177.472 50.5509 177.504C50.492 177.537 50.4422 177.583 50.406 177.64L48.832 180.84L45.31 181.35C45.2412 181.361 45.1768 181.391 45.1241 181.437C45.0714 181.483 45.0325 181.542 45.0118 181.609C44.991 181.676 44.9892 181.747 45.0066 181.814C45.0239 181.882 45.0597 181.943 45.11 181.992L47.65 184.482L47.05 187.988C47.0373 188.057 47.0444 188.129 47.0705 188.194C47.0966 188.26 47.1407 188.317 47.1977 188.359C47.2546 188.401 47.3222 188.425 47.3927 188.43C47.4632 188.436 47.5336 188.421 47.596 188.388L50.746 186.734L53.894 188.388C53.9564 188.421 54.0269 188.436 54.0974 188.43C54.1678 188.425 54.2354 188.401 54.2924 188.359C54.3494 188.317 54.3935 188.26 54.4196 188.194C54.4457 188.129 54.4528 188.057 54.44 187.988L53.84 184.482L56.388 181.998C56.4404 181.949 56.4776 181.886 56.4954 181.817C56.5133 181.747 56.5109 181.674 56.4886 181.606C56.4664 181.538 56.4251 181.478 56.3697 181.432C56.3144 181.387 56.2472 181.358 56.176 181.35Z" fill="#1890ff"/>
<path d="M70.656 181.35L67.134 180.84L65.56 177.64C65.5238 177.583 65.474 177.537 65.4151 177.504C65.3562 177.472 65.2902 177.455 65.223 177.455C65.1559 177.455 65.0898 177.472 65.0309 177.504C64.972 177.537 64.9222 177.583 64.886 177.64L63.312 180.84L59.79 181.35C59.7211 181.361 59.6568 181.391 59.6041 181.437C59.5514 181.483 59.5125 181.542 59.4917 181.609C59.471 181.676 59.4692 181.747 59.4865 181.814C59.5039 181.882 59.5397 181.943 59.59 181.992L62.13 184.482L61.53 187.988C61.5207 188.042 61.5233 188.097 61.5377 188.15C61.5521 188.203 61.5779 188.252 61.6134 188.294C61.6489 188.336 61.6931 188.37 61.7429 188.393C61.7928 188.416 61.8471 188.428 61.902 188.428C63.0579 187.961 64.1702 187.392 65.226 186.73L68.374 188.384C68.4364 188.417 68.5069 188.432 68.5774 188.426C68.6478 188.421 68.7154 188.397 68.7724 188.355C68.8294 188.313 68.8735 188.256 68.8996 188.19C68.9257 188.125 68.9328 188.053 68.92 187.984L68.32 184.478L70.868 181.994C70.9191 181.945 70.9553 181.882 70.9724 181.813C70.9895 181.744 70.9868 181.672 70.9647 181.605C70.9425 181.538 70.9018 181.478 70.8472 181.433C70.7926 181.388 70.7263 181.359 70.656 181.35Z" fill="#1890ff"/>
<path d="M85.136 181.35L81.614 180.84L80.04 177.64C80.0038 177.583 79.954 177.537 79.8951 177.504C79.8362 177.472 79.7702 177.455 79.703 177.455C79.6359 177.455 79.5698 177.472 79.5109 177.504C79.452 177.537 79.4022 177.583 79.366 177.64L77.79 180.84L74.27 181.35C74.2011 181.361 74.1367 181.391 74.0841 181.437C74.0314 181.483 73.9925 181.542 73.9717 181.609C73.951 181.676 73.9492 181.747 73.9665 181.814C73.9839 181.882 74.0197 181.943 74.07 181.992L76.61 184.482L76 187.982C75.9903 188.036 75.9926 188.091 76.0068 188.144C76.0209 188.197 76.0466 188.246 76.0819 188.288C76.1172 188.33 76.1613 188.364 76.2111 188.387C76.2609 188.41 76.3151 188.422 76.37 188.422C77.5288 187.961 78.6417 187.393 79.694 186.724L82.844 188.378C82.9064 188.411 82.9769 188.426 83.0473 188.421C83.1178 188.415 83.1854 188.391 83.2424 188.349C83.2994 188.307 83.3434 188.25 83.3695 188.184C83.3957 188.119 83.4027 188.047 83.39 187.978L82.8 184.482L85.348 181.998C85.3995 181.948 85.4361 181.886 85.4534 181.816C85.4708 181.747 85.4682 181.675 85.446 181.607C85.4239 181.539 85.383 181.479 85.3281 181.434C85.2733 181.388 85.2067 181.359 85.136 181.35Z" fill="#1890ff"/>
<path d="M99.614 181.35L96.094 180.84L94.52 177.64C94.4839 177.583 94.434 177.536 94.3749 177.503C94.3158 177.471 94.2495 177.454 94.182 177.454C94.1145 177.454 94.0482 177.471 93.9891 177.503C93.93 177.536 93.8801 177.583 93.844 177.64L92.27 180.84L88.748 181.35C88.6795 181.362 88.6157 181.392 88.5635 181.438C88.5113 181.484 88.4727 181.543 88.452 181.61C88.4314 181.676 88.4294 181.747 88.4463 181.814C88.4633 181.882 88.4984 181.943 88.548 181.992L91.088 184.482L90.488 187.988C90.4783 188.042 90.4806 188.097 90.4948 188.15C90.5089 188.203 90.5346 188.252 90.5699 188.294C90.6052 188.336 90.6493 188.37 90.6991 188.393C90.7489 188.416 90.8031 188.428 90.858 188.428C92.0138 187.961 93.1262 187.392 94.182 186.73L97.33 188.384C97.3924 188.417 97.4629 188.432 97.5333 188.426C97.6038 188.421 97.6714 188.397 97.7284 188.355C97.7854 188.313 97.8294 188.256 97.8555 188.19C97.8817 188.125 97.8887 188.053 97.876 187.984L97.276 184.478L99.824 181.994C99.8751 181.945 99.9113 181.882 99.9285 181.814C99.9457 181.745 99.9432 181.673 99.9212 181.606C99.8993 181.538 99.8588 181.479 99.8045 181.433C99.7501 181.388 99.6841 181.359 99.614 181.35Z" fill="#1890ff"/>
<path d="M114.094 181.35L110.574 180.84L108.998 177.64C108.962 177.583 108.912 177.537 108.853 177.504C108.794 177.472 108.728 177.455 108.661 177.455C108.594 177.455 108.528 177.472 108.469 177.504C108.41 177.537 108.36 177.583 108.324 177.64L106.75 180.84L103.23 181.35C103.16 181.359 103.095 181.389 103.041 181.434C102.987 181.479 102.947 181.538 102.925 181.605C102.903 181.672 102.9 181.744 102.917 181.812C102.934 181.88 102.969 181.943 103.02 181.992L105.568 184.482L104.968 187.988C104.955 188.057 104.962 188.129 104.988 188.194C105.015 188.26 105.059 188.317 105.116 188.359C105.173 188.401 105.24 188.425 105.311 188.43C105.381 188.436 105.452 188.421 105.514 188.388L108.664 186.734L111.812 188.388C111.874 188.421 111.945 188.436 112.015 188.43C112.086 188.425 112.153 188.401 112.21 188.359C112.267 188.317 112.311 188.26 112.337 188.194C112.364 188.129 112.371 188.057 112.358 187.988L111.758 184.482L114.306 181.998C114.358 181.949 114.396 181.886 114.413 181.817C114.431 181.747 114.429 181.674 114.407 181.606C114.384 181.538 114.343 181.478 114.288 181.432C114.232 181.387 114.165 181.358 114.094 181.35Z" fill="#1890ff"/>
<path d="M325.2 211.562C306.7 227.748 288.102 243.962 268.65 259.47C264.646 262.678 259.579 264.259 254.461 263.898C249.343 263.537 244.549 261.261 241.034 257.524C229.862 245.612 215.434 228.324 207.148 211.242L207.706 233.008L194.194 255.208C202.522 272.408 214.518 291.266 228.794 311.172C220.608 325.394 206.744 332.078 190.394 334.346C176.999 313.689 165.535 291.842 156.148 269.082C154.846 265.847 154.25 262.371 154.4 258.888C154.55 255.404 155.443 251.992 157.018 248.882L186.908 189.998C201.018 188.263 214.899 185.004 228.308 180.28C229.464 179.875 230.553 179.301 231.54 178.576C236.768 180.888 248.628 189.41 259.028 220.516L298.994 181.516C305.528 183.929 311.352 187.945 315.931 193.195C320.51 198.444 323.697 204.76 325.2 211.562Z" fill="#FFE7EA"/>
<path d="M340.344 88.8297H271.256C267.693 88.8339 264.277 90.2512 261.757 92.7708C259.238 95.2904 257.82 98.7064 257.816 102.27V137.134C257.821 140.697 259.238 144.112 261.758 146.631C264.277 149.15 267.693 150.567 271.256 150.572H340.344C343.907 150.568 347.323 149.151 349.843 146.632C352.362 144.113 353.78 140.697 353.784 137.134V102.27C353.78 98.7064 352.362 95.2904 349.843 92.7708C347.323 90.2512 343.907 88.8339 340.344 88.8297ZM302.944 96.5356C302.87 95.2716 306.368 96.2037 307.312 102.9C308.026 107.978 308.052 108.982 308.25 110.528C308.76 114.48 308.622 115.34 308.724 115.554C311.242 121.136 307.006 129.136 301.028 128.398C300.93 128.387 300.832 128.415 300.754 128.476C300.677 128.537 300.626 128.627 300.614 128.724C300.602 128.822 300.628 128.921 300.688 129C300.748 129.078 300.836 129.13 300.934 129.144C307.518 129.944 312.134 121.398 309.436 115.308C309.42 115.078 309.364 114.28 309.25 113.016C310.712 113.901 312.435 114.254 314.128 114.016C313.481 114.19 312.911 114.576 312.509 115.112C312.107 115.647 311.896 116.302 311.909 116.972C311.923 117.642 312.16 118.288 312.583 118.807C313.006 119.326 313.591 119.689 314.244 119.838C313.539 119.887 312.874 120.182 312.363 120.67C311.853 121.159 311.529 121.81 311.448 122.512C311.368 123.214 311.535 123.922 311.921 124.514C312.308 125.106 312.889 125.543 313.564 125.752C312.953 126.028 312.446 126.492 312.116 127.077C311.787 127.661 311.652 128.335 311.732 129.001C311.811 129.667 312.101 130.291 312.559 130.781C313.017 131.271 313.619 131.603 314.278 131.728C311.314 132.83 311.804 137.394 316.012 137.844L316.852 137.936C306.76 138.336 260.852 139.278 258.758 139.336C258.638 138.719 258.579 138.092 258.584 137.464C258.532 135.37 258.568 130.102 258.568 113.566C261.788 113.766 283.472 115.104 290.5 115.026C293.246 114.994 298.358 114.938 300.1 111.544C301.706 108.43 303.048 98.2816 302.946 96.5356H302.944ZM316.092 137.102C312.236 136.69 312.142 132.116 315.902 132.248C318.932 132.358 319.436 132.31 321.902 132.494C325.586 132.774 325.464 137.642 322.486 137.664C320.345 137.618 318.21 137.431 316.094 137.102H316.092ZM315.692 131.212C311.668 131.072 311.27 126.326 315.168 126.186C318.146 126.078 320.288 126.1 323.288 126.112C327.124 126.128 327.328 131.188 324.244 131.436C322.156 131.604 319.6 131.342 315.694 131.212H315.692ZM315.44 125.348C311.54 125.348 310.964 120.836 314.7 120.548C317.788 120.308 324.9 120.078 325.1 120.078C328.642 120.078 329.03 124.796 326.112 125.152C324.074 125.4 319.484 125.32 315.442 125.348H315.44ZM316.136 119.308C312.274 119.636 311.302 115.164 315.022 114.578C317.464 114.196 322.708 113.544 323.272 113.544C326.534 113.544 327.184 117.968 324.376 118.544C322.382 118.938 320.148 118.966 316.138 119.308H316.136ZM353.03 137.134C353.026 140.497 351.688 143.722 349.31 146.101C346.931 148.479 343.706 149.816 340.342 149.82H271.256C268.406 149.816 265.64 148.854 263.402 147.089C261.164 145.324 259.584 142.858 258.916 140.088C261.068 140.032 265.488 139.94 271.044 139.824C338.88 138.424 315.54 138.424 322.486 138.424C325.854 138.398 326.486 133.774 323.654 132.224C323.872 132.224 324.09 132.202 324.306 132.186C327.582 131.922 328.044 127.586 325.506 125.964C325.762 125.946 325.996 125.924 326.204 125.898C330.108 125.424 329.582 119.164 324.916 119.328L324.058 119.36C324.214 119.332 324.37 119.304 324.526 119.272C328.376 118.494 327.364 112.294 322.74 112.822C311.454 113.494 309.578 113.852 309.03 110.746C308.758 108.134 308.444 105.546 308.058 102.794C306.892 94.5256 302.058 94.2396 302.194 96.5816C302.29 98.2416 300.95 108.252 299.432 111.2C297.896 114.2 293.078 114.246 290.492 114.274C283.458 114.352 261.61 113.004 258.568 112.814V102.27C258.571 98.9059 259.909 95.6808 262.287 93.3021C264.665 90.9234 267.89 89.5854 271.254 89.5816H340.342C343.706 89.5854 346.931 90.9233 349.31 93.302C351.688 95.6806 353.026 98.9057 353.03 102.27V137.134Z" fill="#1890ff"/>
<path d="M102.76 314.682H98.342C97.8438 314.682 97.3505 314.583 96.8905 314.392C96.4305 314.201 96.0128 313.921 95.6613 313.568C95.3099 313.214 95.0317 312.795 94.8427 312.334C94.6537 311.874 94.5576 311.38 94.56 310.882V306.482C94.56 306.382 94.5204 306.286 94.4499 306.216C94.3794 306.145 94.2837 306.106 94.184 306.106C94.0843 306.106 93.9886 306.145 93.9181 306.216C93.8476 306.286 93.808 306.382 93.808 306.482V310.882C93.8096 311.38 93.7129 311.873 93.5235 312.334C93.3341 312.795 93.0557 313.214 92.7042 313.566C92.3527 313.919 91.9351 314.2 91.4752 314.391C91.0152 314.582 90.5221 314.681 90.024 314.682H85.6C85.5003 314.682 85.4046 314.721 85.3341 314.792C85.2636 314.862 85.224 314.958 85.224 315.058C85.224 315.157 85.2636 315.253 85.3341 315.324C85.4046 315.394 85.5003 315.434 85.6 315.434H90.018C90.5149 315.433 91.007 315.531 91.4661 315.721C91.9252 315.911 92.3423 316.19 92.6936 316.541C93.0448 316.893 93.3234 317.31 93.5132 317.769C93.7031 318.229 93.8005 318.721 93.8 319.218V323.636C93.8069 323.731 93.8497 323.82 93.9196 323.885C93.9895 323.95 94.0815 323.986 94.177 323.986C94.2725 323.986 94.3645 323.95 94.4344 323.885C94.5043 323.82 94.5471 323.731 94.554 323.636V319.218C94.5537 318.721 94.6514 318.229 94.8414 317.77C95.0313 317.311 95.3099 316.894 95.6611 316.543C96.0124 316.192 96.4294 315.913 96.8884 315.723C97.3474 315.533 97.8393 315.435 98.336 315.436H102.756C102.856 315.436 102.952 315.397 103.023 315.327C103.094 315.256 103.134 315.161 103.135 315.061C103.136 314.961 103.096 314.865 103.026 314.793C102.956 314.722 102.86 314.682 102.76 314.682ZM94.182 317.402C93.7209 316.353 92.883 315.515 91.834 315.054C92.8829 314.593 93.7208 313.756 94.182 312.708C94.6408 313.757 95.4776 314.595 96.526 315.056C95.4797 315.515 94.6434 316.35 94.182 317.396V317.402Z" fill="#1890ff"/>
<path d="M294.048 64.4316H284.4V54.7776C284.393 54.6824 284.35 54.5933 284.28 54.5283C284.21 54.4633 284.118 54.4271 284.023 54.4271C283.927 54.4271 283.836 54.4633 283.766 54.5283C283.696 54.5933 283.653 54.6824 283.646 54.7776V64.4336H273.994C273.899 64.4406 273.81 64.4833 273.745 64.5533C273.68 64.6232 273.643 64.7152 273.643 64.8106C273.643 64.9061 273.68 64.9981 273.745 65.068C273.81 65.138 273.899 65.1807 273.994 65.1876H283.648V74.8396C283.655 74.9349 283.698 75.024 283.768 75.089C283.838 75.154 283.929 75.1902 284.025 75.1902C284.12 75.1902 284.212 75.154 284.282 75.089C284.352 75.024 284.395 74.9349 284.402 74.8396V65.1856H294.056C294.151 65.1778 294.24 65.1341 294.304 65.0635C294.369 64.9928 294.404 64.9005 294.403 64.8049C294.402 64.7094 294.365 64.6178 294.299 64.5485C294.233 64.4793 294.143 64.4375 294.048 64.4316Z" fill="#1890ff"/>
<path d="M107.308 40.7557C107.302 39.8314 107.023 38.9296 106.506 38.1634C105.989 37.3972 105.258 36.8008 104.403 36.4491C103.548 36.0974 102.609 36.006 101.702 36.1865C100.796 36.367 99.9628 36.8114 99.308 37.4637L98.466 38.3077L97.622 37.4677C97.1927 37.0057 96.6745 36.6352 96.0985 36.3784C95.5225 36.1216 94.9005 35.9838 94.27 35.9731C93.6394 35.9625 93.0132 36.0793 92.4289 36.3166C91.8445 36.5539 91.3142 36.9067 90.8695 37.3539C90.4248 37.8011 90.0751 38.3335 89.8412 38.9192C89.6073 39.5049 89.494 40.1318 89.5083 40.7623C89.5225 41.3928 89.6639 42.0139 89.9241 42.5884C90.1842 43.1629 90.5576 43.679 91.022 44.1057L98.228 51.2817C98.2628 51.3169 98.3042 51.3448 98.3499 51.3639C98.3955 51.3829 98.4445 51.3928 98.494 51.3928C98.5435 51.3928 98.5925 51.3829 98.6382 51.3639C98.6838 51.3448 98.7252 51.3169 98.76 51.2817L105.946 44.0637C106.38 43.6296 106.724 43.1137 106.958 42.5459C107.192 41.9782 107.311 41.3697 107.308 40.7557Z" fill="#1890ff"/>
<path d="M62.112 44.1096C61.932 26.3096 77.492 10.8916 97.97 10.6836C126.4 10.3556 144.068 39.0236 129.032 61.1156L134.804 75.9156C134.831 75.984 134.837 76.0586 134.822 76.1304C134.807 76.2021 134.771 76.2679 134.719 76.3196C134.667 76.3712 134.6 76.4065 134.529 76.4211C134.457 76.4357 134.382 76.4289 134.314 76.4016L119.436 70.5056C95.932 86.0436 62.386 71.1096 62.112 44.1096ZM98.378 11.4356C88.9915 11.3468 79.9212 14.8244 73 21.1656C69.6483 24.1557 67.0017 27.8521 65.251 31.9885C63.5003 36.1249 62.6892 40.5982 62.8761 45.086C63.063 49.5737 64.2433 53.9641 66.3319 57.9406C68.4204 61.9171 71.3652 65.3807 74.954 68.0816C81.2299 72.9389 88.8668 75.7138 96.7969 76.0182C104.727 76.3226 112.554 74.1415 119.184 69.7796C119.228 69.7496 119.262 69.7256 119.628 69.8456C120.536 70.1436 123.496 71.3136 133.79 75.3936C129.9 65.4176 128.68 62.3816 128.35 61.4036C128.178 60.8976 128.244 60.9396 128.3 60.8576C143.054 39.4536 126.2 11.4356 98.378 11.4356Z" fill="#1890ff"/>
<path d="M337.638 318.728L323.9 316.728L317.756 304.278C317.72 304.221 317.67 304.174 317.611 304.141C317.552 304.109 317.485 304.092 317.418 304.092C317.351 304.092 317.284 304.109 317.225 304.141C317.166 304.174 317.116 304.221 317.08 304.278L310.936 316.728L297.198 318.728C297.129 318.739 297.065 318.769 297.012 318.815C296.959 318.861 296.92 318.92 296.9 318.987C296.879 319.054 296.877 319.125 296.895 319.192C296.912 319.26 296.948 319.321 296.998 319.37L306.938 329.06L304.592 342.744C304.579 342.813 304.586 342.885 304.612 342.95C304.639 343.016 304.683 343.073 304.74 343.115C304.797 343.157 304.864 343.181 304.935 343.186C305.005 343.192 305.076 343.177 305.138 343.144L317.426 336.684L329.714 343.144C329.776 343.177 329.847 343.192 329.917 343.186C329.988 343.181 330.055 343.157 330.112 343.115C330.169 343.073 330.213 343.016 330.24 342.95C330.266 342.885 330.273 342.813 330.26 342.744L327.914 329.06L337.854 319.37C337.905 319.32 337.94 319.257 337.957 319.189C337.973 319.12 337.97 319.048 337.948 318.981C337.925 318.914 337.884 318.854 337.829 318.81C337.774 318.765 337.708 318.736 337.638 318.728ZM327.238 328.66C327.038 328.86 326.932 327.836 329.382 342.12C316.646 335.422 317.504 335.786 317.244 335.92L305.444 342.12L307.696 328.992C307.746 328.714 308.428 329.478 298.052 319.364C312.434 317.272 311.388 317.496 311.514 317.242L317.408 305.3L323.302 317.242C323.428 317.496 322.414 317.278 336.766 319.364L327.238 328.66Z" fill="#1890ff"/>
<path d="M86.4 167.22C93.0559 146.901 105.067 128.754 121.17 114.688C137.272 100.622 156.869 91.1585 177.898 87.2937C177.996 87.2756 178.097 87.2973 178.18 87.354C178.262 87.4106 178.318 87.4975 178.336 87.5957C178.354 87.6938 178.332 87.7951 178.276 87.8772C178.219 87.9594 178.132 88.0156 178.034 88.0337C157.137 91.8719 137.661 101.275 121.659 115.252C105.657 129.229 93.72 147.263 87.106 167.454C87.0653 167.534 86.9971 167.597 86.9138 167.632C86.8305 167.666 86.7376 167.669 86.6521 167.641C86.5666 167.613 86.4941 167.554 86.4478 167.477C86.4015 167.4 86.3845 167.308 86.4 167.22Z" fill="#1890ff"/>
<path d="M368.074 173.362C357.37 168.048 327.15 169.234 310.356 172.084C310.292 172.102 310.282 172.084 310.156 172.212C309.756 172.6 308.314 174.306 301.442 182.138C300.69 181.798 299.923 181.471 299.142 181.158C299.062 181.126 298.92 181.158 298.524 181.49C297.278 182.546 291.362 188.44 259.204 219.828C249.352 190.668 238.33 181.428 232.27 178.496C234.004 177.091 235.342 175.259 236.15 173.179C236.959 171.099 237.21 168.844 236.88 166.638C235.062 154.3 230.5 128.912 226.246 121.136C221.694 112.826 210.43 112.988 207.362 111.146C202.084 107.972 199.562 101 199.24 94.9256C199.23 94.8296 199.184 94.7412 199.11 94.6785C199.037 94.6158 198.942 94.5837 198.846 94.5889C198.75 94.594 198.659 94.636 198.593 94.7061C198.526 94.7762 198.49 94.8691 198.49 94.9656C198.816 101.296 201.474 108.484 206.974 111.79C208.998 112.64 211.109 113.263 213.27 113.65C212.718 115.046 211.803 116.269 210.62 117.194C209.363 117.995 208.016 118.646 206.606 119.132C194 123.482 181.742 115.094 184.478 116.864C183.298 116.25 182.296 115.343 181.566 114.232C183.372 113.596 185.21 113.057 187.072 112.616C188.736 112.08 190.172 111.002 191.151 109.554C192.13 108.106 192.595 106.371 192.472 104.628L194.504 100.696C194.537 100.625 194.547 100.547 194.534 100.47C194.52 100.394 194.483 100.323 194.428 100.269C194.373 100.214 194.302 100.178 194.225 100.165C194.149 100.153 194.07 100.164 194 100.198C193.265 100.714 192.487 101.165 191.674 101.548C187.408 103.524 184.372 102.488 183.134 97.9476C182.336 93.7751 182.309 89.4916 183.056 85.3096C183.526 82.5296 184.68 78.5296 187.5 78.5476C189.922 78.5476 192.77 81.5476 194.138 84.5656C194.172 84.6363 194.228 84.6945 194.297 84.7323C194.366 84.7701 194.445 84.7855 194.523 84.7765C194.601 84.7675 194.675 84.7345 194.733 84.6821C194.792 84.6296 194.833 84.5603 194.85 84.4836C195.422 81.6456 196.8 79.6376 198.338 79.6376C198.538 79.6376 204.564 79.6016 205.226 79.6376C212.296 79.5356 220.382 76.2676 220.382 67.3096C220.382 58.6816 214.24 48.6516 206.318 48.6516C197.718 48.6516 190.918 56.9216 189.946 64.6516C189.704 66.6 189.953 68.5779 190.67 70.4056C188.288 70.7488 186.073 71.8309 184.338 73.4993C182.603 75.1678 181.436 77.3385 181 79.7056C180.976 79.8024 180.992 79.9046 181.043 79.99C181.095 80.0754 181.177 80.137 181.274 80.1616C181.274 80.1616 181.674 80.1436 181.952 80.1236C181.587 84.3842 181.51 88.6646 181.722 92.9356C181.922 100.452 184.722 105.312 191.546 102.424C192.268 106.65 191.02 110.486 186.832 111.904C183.77 112.948 173.232 114.006 167.914 127.016C166.294 130.976 165.264 135.742 163.542 139.616C162.728 137.06 162.386 135.924 162.204 135.416C162.052 134.994 162.064 134.97 161.506 134.864L157.094 133.722C155.724 131.748 153.839 130.188 151.644 129.212L161.6 115.534C161.722 115.377 161.81 115.196 161.859 115.004C161.908 114.811 161.917 114.611 161.885 114.415C161.853 114.218 161.781 114.031 161.674 113.864C161.566 113.697 161.425 113.554 161.26 113.444C161.095 113.333 160.908 113.258 160.713 113.223C160.517 113.188 160.317 113.194 160.123 113.24C159.93 113.286 159.748 113.371 159.589 113.491C159.431 113.61 159.298 113.761 159.2 113.934L150.162 128.714C148.852 128.367 147.483 128.295 146.144 128.504L145.372 124.318C145.358 124.246 145.325 124.18 145.275 124.127C145.225 124.074 145.161 124.037 145.09 124.02L139.6 122.682C139.366 122.624 139.078 122.754 139.182 123.248C139.308 123.848 139.756 125.348 140.914 129.538C129.62 126.614 126.558 125.772 125.67 125.612C125.038 125.496 125.162 125.826 125.27 126.142C125.832 127.928 129.058 136.884 144.374 181.64C144.476 181.934 142.262 181.24 179.48 191.398C179.902 191.45 179.988 191.236 179.768 190.398C179.512 189.41 178.832 187.56 177.78 184.256C178.58 184.656 179.38 185.028 180.18 185.39C180.96 187.34 182.78 191.104 184.82 190.65C185.302 190.594 185.78 190.534 186.256 190.474C183.036 196.82 156.688 248.718 156.688 248.718C155.088 251.877 154.182 255.343 154.029 258.881C153.877 262.42 154.482 265.95 155.804 269.236C165.191 292.019 176.668 313.884 190.09 334.55C190.248 334.794 190.47 334.72 190.922 334.654C192.407 334.44 193.856 334.192 195.268 333.91C197.886 338.04 198.868 339.224 199.608 348.29C201.014 360.506 203.837 372.518 208.02 384.082L210.49 390.434C210.513 390.494 210.551 390.547 210.601 390.589C210.651 390.63 210.711 390.657 210.774 390.669C210.838 390.68 210.903 390.675 210.964 390.653C211.025 390.631 211.08 390.594 211.122 390.546C219.006 381.564 225.622 352.06 227.18 335.102C227.18 334.846 227.638 335.634 219.272 323.16C223.239 319.841 226.58 315.838 229.136 311.342C229.17 311.28 229.187 311.209 229.183 311.139C229.18 311.068 229.156 311 229.116 310.942C213.658 289.398 202.374 271.166 194.632 255.218L213.782 223.774C221.732 235.899 230.764 247.279 240.768 257.774C244.362 261.556 249.241 263.857 254.446 264.224C259.651 264.591 264.805 262.998 268.894 259.758C287.668 244.782 305.62 229.196 325.458 211.84C325.511 211.794 325.549 211.735 325.57 211.668C325.591 211.602 325.593 211.531 325.576 211.464C324.559 207.361 323.004 203.411 320.952 199.716C323.778 197.785 326.891 196.311 330.176 195.35C341.667 190.935 352.566 185.112 362.624 178.016C366.308 175.396 367.61 174.466 368.062 174.068C368.4 173.772 368.298 173.482 368.074 173.362ZM213.874 114.162C214.266 114.362 214.579 114.688 214.764 115.087C214.949 115.486 214.994 115.936 214.894 116.364C214.793 116.792 214.552 117.174 214.209 117.449C213.865 117.724 213.44 117.877 213 117.882C212.445 117.9 211.894 117.777 211.4 117.524C212.466 116.602 213.309 115.45 213.866 114.156L213.874 114.162ZM210.696 118.044C210.789 118.335 210.811 118.644 210.763 118.945C210.714 119.247 210.594 119.533 210.414 119.78C210.234 120.027 209.999 120.228 209.727 120.367C209.455 120.506 209.154 120.579 208.848 120.58C208.528 120.58 208.213 120.5 207.932 120.349C207.651 120.197 207.411 119.977 207.236 119.71C208.435 119.259 209.591 118.699 210.688 118.038L210.696 118.044ZM206.428 119.988C206.465 120.451 206.334 120.912 206.058 121.286C205.783 121.66 205.383 121.923 204.93 122.026C204.477 122.13 204.002 122.066 203.591 121.848C203.181 121.63 202.863 121.271 202.696 120.838C203.958 120.649 205.203 120.363 206.42 119.982L206.428 119.988ZM201.714 120.954C201.66 121.406 201.441 121.824 201.099 122.125C200.757 122.427 200.316 122.592 199.86 122.59C199.429 122.589 199.011 122.44 198.676 122.167C198.341 121.895 198.111 121.516 198.022 121.094C199.252 121.124 200.482 121.075 201.706 120.948L201.714 120.954ZM193.388 120.596C194.636 120.818 195.895 120.971 197.16 121.054C197.048 121.457 196.807 121.812 196.474 122.064C196.141 122.317 195.734 122.454 195.316 122.454C194.815 122.452 194.334 122.258 193.974 121.911C193.613 121.563 193.4 121.09 193.38 120.59L193.388 120.596ZM188.932 119.474C190.149 119.861 191.384 120.187 192.634 120.45C192.448 120.874 192.116 121.218 191.699 121.419C191.282 121.62 190.806 121.666 190.359 121.547C189.911 121.429 189.52 121.154 189.257 120.773C188.994 120.391 188.876 119.928 188.924 119.468L188.932 119.474ZM184.6 117.754C185.757 118.296 186.942 118.779 188.148 119.202C187.905 119.591 187.533 119.882 187.097 120.023C186.66 120.164 186.188 120.147 185.764 119.973C185.339 119.8 184.989 119.482 184.776 119.076C184.563 118.67 184.501 118.201 184.6 117.754ZM180.924 114.61C181.639 115.74 182.622 116.676 183.786 117.336C183.608 117.568 183.378 117.757 183.115 117.886C182.852 118.016 182.563 118.083 182.27 118.084C181.874 118.069 181.491 117.938 181.168 117.709C180.845 117.479 180.597 117.16 180.453 116.791C180.309 116.422 180.276 116.019 180.359 115.631C180.441 115.244 180.635 114.888 180.916 114.61H180.924ZM151.188 129.828C153.034 130.606 154.654 131.836 155.898 133.406L149.742 131.806L151.188 129.828ZM149.75 129.372C149.018 130.572 148.55 131.284 148.472 131.486L146.604 131L146.278 129.234C147.433 129.049 148.613 129.096 149.75 129.372ZM140.042 123.554L144.67 124.682L145.8 130.79L141.754 129.742L140.042 123.554ZM178.964 190.482L145.01 181.196L126.1 126.482L161.48 135.64L167.578 154.77C167.542 158.47 167.29 160.802 166.368 161.334C166.175 161.415 165.964 161.444 165.756 161.419C165.547 161.393 165.35 161.313 165.182 161.188C160.343 156.794 155.101 152.866 149.526 149.456C148.176 148.754 144.186 146.682 143.326 147.922C142.726 148.78 143.956 150.616 146.978 153.38C148.19 154.496 149.324 155.612 150.366 156.718C148.894 156.024 147.132 155.24 145.998 154.74C143.258 153.54 141.546 153.326 141.048 154.122C140.943 154.317 140.911 154.543 140.96 154.759C141.008 154.976 141.132 155.168 141.31 155.3C143.268 156.98 146.52 159.324 148.78 161.16C147.426 160.806 144.02 159.976 143.474 161.274C143.402 161.484 143.408 161.713 143.49 161.919C143.572 162.126 143.725 162.296 143.922 162.4C146.572 164.014 151.486 166.382 153.922 167.958C157.617 170.046 161.109 172.474 164.354 175.21C165.603 176.572 166.992 177.8 168.498 178.872C171.169 180.688 173.956 182.329 176.84 183.784L178.964 190.482ZM154.964 165.17C149.836 161.358 152.032 162.644 145.882 157.952C144.42 156.834 142.908 155.68 141.798 154.728C141.7 154.644 141.67 154.544 141.686 154.528C141.702 154.512 142.256 153.928 145.686 155.434C147.322 156.156 150.27 157.474 151.738 158.234C154.515 161.363 156.979 164.756 159.094 168.366C157.776 167.25 156.33 166.176 154.962 165.16L154.964 165.17ZM161.074 171.204C161.307 171.522 161.546 171.842 161.79 172.162C159.936 170.83 157.86 169.54 156.166 168.486C153.84 166.959 151.43 165.565 148.946 164.312C147.288 163.434 145.576 162.526 144.314 161.756C144.204 161.69 144.156 161.594 144.168 161.566C144.18 161.538 144.636 160.88 148.272 161.806C148.638 161.9 149.31 162.074 150.104 162.284C153.52 165.296 158.15 168.096 161.072 171.194L161.074 171.204ZM180.62 184.762C176.042 182.72 171.686 180.213 167.62 177.282C166.032 175.948 164.58 174.46 163.284 172.842C161.224 170.196 159.32 167.434 157.58 164.568C154.7 160.261 151.309 156.318 147.482 152.826C144.16 149.788 143.802 148.548 143.938 148.354C143.948 148.343 143.961 148.334 143.974 148.328C144.16 148.238 145.138 148.02 149.174 150.128C154.701 153.51 159.896 157.406 164.69 161.766C164.713 161.789 164.74 161.809 164.768 161.826C165.051 162.028 165.384 162.15 165.731 162.179C166.079 162.208 166.427 162.143 166.74 161.99C168.74 160.838 168.17 155.072 168.388 153.08C168.417 152.01 168.63 150.954 169.018 149.958C169.13 149.978 169.776 150.306 171.418 154.77C172.714 158.298 174.99 164.482 177.972 166.512C179.568 167.437 181.451 167.735 183.254 167.348C185.741 173.54 186.729 180.233 186.136 186.88C184.258 186.275 182.416 185.564 180.618 184.752L180.62 184.762ZM185.958 189.75C186.376 189.036 186.661 188.252 186.798 187.436C187.962 181.756 186.166 171.99 183.828 166.78C183.275 165.332 182.4 164.029 181.268 162.97L209.556 158.35C209.606 158.342 209.654 158.324 209.696 158.297C209.739 158.27 209.776 158.235 209.805 158.193C209.834 158.152 209.854 158.105 209.864 158.056C209.874 158.006 209.874 157.955 209.864 157.906L206.734 142.252C206.714 142.154 206.657 142.068 206.574 142.012C206.491 141.957 206.389 141.937 206.291 141.957C206.193 141.976 206.107 142.034 206.052 142.117C205.996 142.2 205.976 142.302 205.996 142.4L209.05 157.67L183.026 161.91C182.384 160.758 179.536 155.64 179.068 154.79C174.954 147.34 175.612 136.954 175.62 136.85C175.625 136.751 175.591 136.655 175.525 136.582C175.46 136.509 175.368 136.464 175.27 136.457C175.172 136.45 175.076 136.482 175.001 136.546C174.926 136.609 174.879 136.7 174.87 136.798C174.87 136.904 174.186 147.506 178.408 155.154C178.85 155.954 181.408 160.554 182.238 162.038L179.762 162.438C178.81 162.554 178.116 163.514 177.694 165.292C173.246 161.068 171.278 148.892 168.942 149.194C168.142 149.29 167.916 150.544 167.684 152.614L163.878 140.682C167.82 132.554 167.662 120.846 179.766 115.016C179.592 115.431 179.522 115.884 179.562 116.333C179.603 116.782 179.753 117.214 179.999 117.592C180.245 117.97 180.58 118.282 180.975 118.5C181.369 118.719 181.811 118.837 182.262 118.846C182.812 118.846 183.349 118.675 183.798 118.356C183.831 118.853 184 119.332 184.287 119.74C184.575 120.148 184.969 120.468 185.427 120.666C185.885 120.864 186.388 120.932 186.882 120.862C187.376 120.792 187.841 120.587 188.226 120.27C188.342 120.742 188.582 121.175 188.922 121.523C189.261 121.871 189.688 122.122 190.157 122.25C190.626 122.378 191.121 122.379 191.59 122.251C192.059 122.124 192.486 121.873 192.826 121.526C193.008 121.981 193.312 122.377 193.704 122.672C194.096 122.966 194.562 123.146 195.05 123.194C195.538 123.241 196.029 123.153 196.471 122.94C196.912 122.726 197.286 122.395 197.552 121.984C197.793 122.419 198.152 122.778 198.589 123.017C199.025 123.257 199.521 123.367 200.018 123.336C200.515 123.305 200.992 123.134 201.396 122.842C201.799 122.55 202.111 122.15 202.296 121.688C202.597 122.115 203.015 122.445 203.501 122.638C203.986 122.832 204.517 122.879 205.029 122.775C205.541 122.671 206.012 122.42 206.384 122.053C206.755 121.686 207.012 121.218 207.122 120.708C207.531 121.045 208.03 121.255 208.557 121.31C209.085 121.365 209.617 121.263 210.086 121.017C210.556 120.772 210.943 120.393 211.198 119.928C211.454 119.464 211.566 118.934 211.522 118.406C212 118.561 212.501 118.638 213.004 118.634C213.521 118.627 214.025 118.475 214.458 118.193C214.891 117.911 215.235 117.513 215.45 117.043C215.666 116.574 215.743 116.053 215.674 115.541C215.605 115.029 215.392 114.547 215.06 114.152C217.215 114.613 219.256 115.501 221.062 116.764C222.868 118.026 224.403 119.638 225.576 121.504C229.776 129.188 234.316 154.464 236.126 166.756C236.541 169.533 235.975 172.367 234.525 174.772C233.076 177.177 230.833 179.001 228.184 179.932C214.506 184.724 200.346 188.012 185.956 189.74L185.958 189.75ZM223.104 330.24L226.42 335.182C224.844 352.116 218.27 380.514 210.962 389.582L208.794 384.004C214.254 375.46 219.554 350.282 223.102 330.23L223.104 330.24ZM324.79 211.44C305.028 228.73 287.134 244.262 268.428 259.184C264.487 262.307 259.52 263.842 254.503 263.489C249.487 263.135 244.785 260.918 241.32 257.274C231.191 246.665 222.071 235.138 214.078 222.84C211.662 219.088 209.482 215.189 207.552 211.166C207.21 210.622 206.784 210.946 206.784 211.25C206.784 211.25 206.784 211.25 207.338 232.914C196.998 249.896 194.492 253.914 193.952 254.942C193.752 255.342 193.828 255.29 193.868 255.37C201.608 271.352 212.894 289.614 228.364 311.192C225.421 316.312 221.437 320.759 216.67 324.246L200.644 299.462C200.586 299.389 200.504 299.34 200.412 299.324C200.321 299.308 200.226 299.327 200.148 299.377C200.069 299.427 200.012 299.504 199.987 299.593C199.962 299.683 199.971 299.778 200.012 299.862L216.056 324.682C208.419 329.73 199.696 332.899 190.6 333.93C177.257 313.365 165.844 291.61 156.506 268.944C155.224 265.758 154.636 262.334 154.784 258.903C154.932 255.472 155.811 252.112 157.362 249.048C157.362 249.048 186.71 191.218 187.076 190.356C201.172 188.614 215.038 185.355 228.434 180.636C229.554 180.242 230.614 179.695 231.584 179.01C236.42 181.228 248.312 189.652 258.67 220.636C258.69 220.696 258.726 220.75 258.773 220.793C258.82 220.836 258.877 220.866 258.939 220.881C259.001 220.896 259.066 220.895 259.127 220.878C259.189 220.861 259.245 220.828 259.29 220.784L299.08 181.948C303.49 183.676 307.597 186.097 311.246 189.118L289.93 209.04C289.874 209.091 289.836 209.158 289.819 209.232C289.802 209.305 289.808 209.383 289.835 209.453C289.863 209.523 289.911 209.584 289.974 209.626C290.036 209.669 290.11 209.692 290.186 209.692C290.416 209.692 288.902 211.03 311.822 189.61C318.307 195.359 322.839 202.987 324.788 211.432L324.79 211.44ZM362.344 177.304C352.71 174.22 327.01 175.558 306.702 177.28L310.622 172.81C327.392 169.984 356.528 169.044 367.174 173.778L362.344 177.304Z" fill="black"/>
<path d="M218.074 190.308C218.033 190.28 217.998 190.244 217.971 190.203C217.944 190.161 217.925 190.115 217.916 190.067C217.907 190.018 217.908 189.968 217.918 189.92C217.928 189.871 217.947 189.825 217.975 189.785C218.003 189.744 218.039 189.709 218.08 189.682C218.121 189.655 218.167 189.636 218.216 189.627C218.265 189.618 218.315 189.618 218.363 189.628C218.411 189.638 218.457 189.658 218.498 189.686C221.369 191.788 224.642 193.277 228.113 194.06C231.584 194.843 235.179 194.903 238.674 194.238C238.772 194.218 238.874 194.238 238.957 194.293C239.04 194.349 239.097 194.435 239.117 194.533C239.137 194.63 239.117 194.732 239.061 194.815C239.006 194.898 238.92 194.956 238.822 194.976C235.228 195.66 231.532 195.599 227.963 194.796C224.394 193.993 221.028 192.465 218.074 190.308Z" fill="black"/>
<path d="M204.432 79.0976C203.378 78.9178 202.305 78.8815 201.242 78.9896C200.591 76.8608 199.257 75.0056 197.446 73.7108C195.636 72.4159 193.449 71.7534 191.224 71.8256C188.97 71.6957 186.747 72.3958 184.975 73.7935C183.202 75.1913 182.003 77.1899 181.604 79.4116L181.272 79.4236C180.226 79.4776 179.224 80.4396 178.522 82.0616C176.296 87.2076 178.27 95.3796 182.244 95.7056H182.274C182.326 95.7056 182.376 95.6949 182.424 95.6742C182.471 95.6536 182.513 95.6234 182.548 95.5856C183.042 95.0556 181.43 92.6616 182.718 79.9696C182.744 79.9102 182.755 79.8458 182.752 79.7812C182.748 79.7166 182.73 79.6537 182.698 79.5974C182.666 79.5411 182.622 79.4929 182.569 79.4565C182.515 79.4201 182.454 79.3965 182.39 79.3876C182.792 77.3772 183.908 75.5802 185.532 74.3282C187.156 73.0762 189.177 72.4537 191.224 72.5756C193.251 72.4837 195.251 73.062 196.916 74.221C198.581 75.38 199.818 77.0552 200.436 78.9876H198.368C193.864 78.9876 192.286 89.1156 195.586 93.6516C194.071 95.1172 192.269 96.2543 190.294 96.9916C190.061 96.6533 189.727 96.3976 189.34 96.2612C188.953 96.1248 188.532 96.1148 188.139 96.2327C187.746 96.3505 187.4 96.5901 187.151 96.917C186.903 97.2438 186.764 97.6411 186.756 98.0516C186.763 98.3146 186.823 98.5733 186.934 98.8118C187.045 99.0503 187.204 99.2633 187.401 99.4376C187.598 99.612 187.829 99.7438 188.079 99.825C188.329 99.9062 188.593 99.9349 188.855 99.9094C189.117 99.8839 189.37 99.8048 189.6 99.6769C189.83 99.5489 190.031 99.375 190.191 99.166C190.35 98.957 190.465 98.7173 190.528 98.4619C190.591 98.2065 190.6 97.9409 190.556 97.6816C190.577 97.6784 190.598 97.6731 190.618 97.6656C192.631 96.8653 194.48 95.7013 196.072 94.2316C196.361 94.5606 196.714 94.8269 197.109 95.014C197.505 95.2012 197.935 95.3052 198.372 95.3196C204.254 95.3196 203.934 95.3596 204.436 95.2136C209.514 93.7256 209.516 80.5836 204.432 79.0976ZM181.832 94.8576C179.048 93.9276 177.124 87.2036 179.218 82.3596C179.794 81.0296 180.578 80.2136 181.31 80.1756L181.95 80.1516C181.36 85.0336 181.318 89.9664 181.826 94.8576H181.832ZM198.374 94.6036V94.5696C196.32 94.5696 194.584 91.1696 194.584 87.1556C194.584 83.1416 196.32 79.7416 198.374 79.7416H201.774C198.324 82.6296 198.254 91.5936 201.762 94.5696C199.55 94.5696 198.71 94.5756 198.368 94.6036H198.374ZM204.23 94.4916C200.63 95.5516 198.246 86.2216 201.362 81.3776C202.032 80.3316 203.036 79.4676 204.228 79.8196C205.854 80.2956 207.502 82.9676 207.502 87.1556C207.502 91.3436 205.85 94.0156 204.224 94.4916H204.23Z" fill="#1890ff"/>
<path d="M258.2 101.566C257.01 101.566 238.572 88.5016 207.854 86.3656C207.756 86.3566 207.666 86.3096 207.602 86.2348C207.539 86.16 207.507 86.0632 207.514 85.9652C207.52 85.8672 207.565 85.7758 207.639 85.7105C207.712 85.6451 207.808 85.6111 207.906 85.6156C225.67 86.8106 242.931 92.0222 258.388 100.858C258.463 100.897 258.522 100.961 258.556 101.039C258.59 101.117 258.597 101.204 258.575 101.286C258.554 101.368 258.505 101.441 258.436 101.491C258.368 101.542 258.285 101.568 258.2 101.566Z" fill="#1890ff"/>
</svg>
