<svg width="400" height="401" viewBox="0 0 400 401" fill="none" xmlns="http://www.w3.org/2000/svg">
<path d="M329.22 272.882C332.479 272.882 335.12 270.24 335.12 266.982C335.12 263.723 332.479 261.082 329.22 261.082C325.962 261.082 323.32 263.723 323.32 266.982C323.32 270.24 325.962 272.882 329.22 272.882Z" fill="#FFE7EA"/>
<path d="M311.46 276.002C314.719 276.002 317.36 273.36 317.36 270.102C317.36 266.843 314.719 264.202 311.46 264.202C308.202 264.202 305.56 266.843 305.56 270.102C305.56 273.36 308.202 276.002 311.46 276.002Z" fill="#FFE7EA"/>
<path d="M179.84 125.022C180.556 127.567 180.336 130.284 179.22 132.682C178.712 133.74 177.91 134.629 176.91 135.243C175.91 135.856 174.753 136.169 173.58 136.142C166.6 136.142 165.48 125.082 169.8 120.982C172.7 118.182 178.16 118.962 179.84 125.022Z" fill="#FFE7EA"/>
<path d="M339.18 216.682C337.84 216.042 334.56 217.402 330.46 222.082C326.23 227.097 322.815 232.746 320.34 238.822C318.1 244.502 318.52 247.702 319.76 248.622C311.54 243.662 265.18 213.502 257.16 208.262L251.16 212.262C253.16 206.042 256.06 188.702 257.34 182.262C258.7 179.182 260 176.262 261.2 173.742L273.56 170.002C282 175.002 326.54 206.682 339.18 216.682Z" fill="#FFE7EA"/>
<path d="M202.58 183.662C228 151.662 233.98 143.762 239.86 140.302C246.08 136.602 250.12 135.322 327.24 113.802C325.82 114.322 324.76 117.482 325.04 123.802C325.382 130.577 326.516 137.29 328.42 143.802C330.26 149.802 332.42 152.202 333.96 152.082C319.14 156.082 294.72 163.702 261.16 173.802C249.9 197.802 231.16 248.482 205.16 251.322C201.02 250.782 196.48 250.082 192.7 249.322C209.7 248.482 208.28 244.922 205.28 244.902C198.86 244.902 185.06 244.482 183.94 244.702C181.68 245.433 179.528 246.462 177.54 247.762C180.18 236.182 177.08 235.902 176 238.922C175.149 241.245 174.105 243.492 172.88 245.642C167.987 241.572 163.786 236.736 160.44 231.322C168.96 222.662 170.98 205.862 168.18 197.922C174.2 195.302 201.58 184.002 202.58 183.662Z" fill="#FFE7EA"/>
<path d="M351.72 320.162C345.38 284.062 348.3 300.722 341.86 264.162C341.294 260.986 339.492 258.165 336.849 256.316C334.205 254.468 330.937 253.743 327.76 254.302L136.24 288.022C136.147 288.038 136.058 288.074 135.978 288.125C135.898 288.176 135.829 288.243 135.775 288.321C135.722 288.399 135.684 288.487 135.664 288.58C135.644 288.673 135.643 288.768 135.66 288.862L133.34 289.282L134.76 291.542H125.6C125.605 291.411 125.575 291.281 125.512 291.166C125.449 291.052 125.356 290.956 125.243 290.89C125.13 290.825 125.001 290.791 124.87 290.793C124.739 290.795 124.611 290.832 124.5 290.902C122.401 292.174 120.733 294.049 119.713 296.281C118.693 298.514 118.368 301.002 118.78 303.422C122.36 323.802 126.44 347.002 128.64 359.422C129.206 362.598 131.007 365.421 133.65 367.273C136.292 369.125 139.561 369.854 142.74 369.302L341.86 334.202C345.021 333.631 347.829 331.836 349.675 329.208C351.521 326.579 352.256 323.329 351.72 320.162ZM329.32 261.662C330.384 261.662 331.424 261.977 332.309 262.568C333.194 263.159 333.883 264 334.29 264.983C334.698 265.966 334.804 267.048 334.597 268.091C334.389 269.135 333.877 270.093 333.124 270.846C332.372 271.598 331.413 272.111 330.37 272.318C329.326 272.526 328.244 272.419 327.261 272.012C326.278 271.605 325.438 270.915 324.847 270.031C324.256 269.146 323.94 268.106 323.94 267.042C323.94 265.615 324.507 264.246 325.516 263.237C326.525 262.228 327.893 261.662 329.32 261.662ZM311.52 264.802C312.584 264.802 313.624 265.117 314.509 265.708C315.394 266.299 316.083 267.14 316.49 268.123C316.898 269.106 317.004 270.188 316.797 271.231C316.589 272.275 316.077 273.233 315.324 273.986C314.572 274.738 313.613 275.251 312.57 275.458C311.526 275.666 310.444 275.559 309.461 275.152C308.478 274.745 307.638 274.055 307.047 273.171C306.456 272.286 306.14 271.246 306.14 270.182C306.137 269.474 306.275 268.774 306.544 268.12C306.814 267.466 307.21 266.872 307.71 266.371C308.21 265.871 308.804 265.475 309.458 265.206C310.112 264.936 310.813 264.799 311.52 264.802ZM341.52 332.802L142.48 367.922C141.096 368.166 139.677 368.136 138.305 367.832C136.932 367.528 135.633 366.957 134.482 366.151C133.33 365.345 132.349 364.32 131.593 363.134C130.838 361.949 130.324 360.626 130.08 359.242L122.56 316.562L342.78 277.722L350.28 320.422C350.769 323.216 350.129 326.091 348.502 328.415C346.875 330.74 344.393 332.324 341.6 332.822L341.52 332.802Z" fill="#1890ff"/>
<path d="M142.68 350.942C142.506 350.939 142.339 350.876 142.207 350.762C142.076 350.649 141.988 350.493 141.96 350.322L138.18 328.922C138.163 328.827 138.165 328.73 138.186 328.636C138.207 328.542 138.247 328.453 138.303 328.375C138.359 328.297 138.43 328.23 138.512 328.18C138.594 328.13 138.685 328.096 138.78 328.082C346 291.422 331.64 293.962 332 294.222C332.36 294.482 332 292.702 336 316.102C336.02 316.195 336.021 316.292 336.002 316.386C335.984 316.479 335.946 316.568 335.892 316.647C335.837 316.726 335.768 316.793 335.686 316.843C335.605 316.894 335.515 316.927 335.42 316.942C135.72 352.262 142.88 350.942 142.68 350.942ZM139.74 329.382L143.26 349.382L334.52 315.662L331 295.662L139.74 329.382Z" fill="#1890ff"/>
<path d="M151.38 330.942C151.371 330.874 151.347 330.808 151.311 330.75C151.275 330.691 151.228 330.64 151.171 330.601C151.115 330.561 151.051 330.534 150.984 330.52C150.917 330.507 150.847 330.507 150.78 330.522C143.08 331.962 143.5 331.742 143.34 331.982C143.18 332.222 143.12 331.362 145.52 345.342C145.549 345.478 145.63 345.598 145.745 345.677C145.861 345.755 146.002 345.785 146.14 345.762C153.84 344.322 153.4 344.542 153.58 344.302C153.76 344.062 153.82 344.922 151.38 330.942Z" fill="#1890ff"/>
<path d="M163.6 342.162L161.32 329.202C161.296 329.061 161.217 328.936 161.101 328.854C160.984 328.772 160.841 328.738 160.7 328.762C153 330.242 153.44 329.982 153.26 330.242C153.08 330.502 153.02 329.622 155.46 343.602C155.483 343.718 155.545 343.823 155.636 343.9C155.727 343.976 155.841 344.019 155.96 344.022C156.16 344.022 157.28 343.802 163.18 342.762C163.313 342.733 163.429 342.655 163.507 342.544C163.585 342.433 163.618 342.296 163.6 342.162Z" fill="#1890ff"/>
<path d="M171.22 327.442C171.196 327.307 171.119 327.187 171.006 327.108C170.894 327.029 170.755 326.998 170.62 327.022C162.92 328.442 163.34 328.242 163.16 328.502C162.98 328.762 162.96 327.862 165.36 341.842C165.389 341.978 165.47 342.098 165.585 342.177C165.701 342.255 165.842 342.285 165.98 342.262C173.68 340.822 173.24 341.062 173.42 340.802C173.6 340.542 173.66 341.422 171.22 327.442Z" fill="#1890ff"/>
<path d="M181.14 325.702C181.131 325.634 181.107 325.568 181.071 325.51C181.035 325.451 180.988 325.4 180.932 325.361C180.875 325.321 180.811 325.294 180.744 325.28C180.677 325.267 180.607 325.267 180.54 325.282C172.84 326.702 173.26 326.502 173.08 326.742C172.9 326.982 172.86 326.122 175.28 340.102C175.304 340.237 175.381 340.356 175.494 340.435C175.606 340.514 175.745 340.545 175.88 340.522C183.6 339.082 183.16 339.302 183.34 339.062C183.52 338.822 183.58 339.682 181.14 325.702Z" fill="#1890ff"/>
<path d="M191.06 323.942C191.036 323.807 190.959 323.687 190.847 323.608C190.734 323.529 190.595 323.498 190.46 323.522C182.74 324.902 183.18 324.742 183 325.002C182.82 325.262 182.78 324.362 185.2 338.342C185.224 338.477 185.301 338.596 185.414 338.675C185.526 338.754 185.665 338.785 185.8 338.762C193.5 337.322 193.08 337.542 193.26 337.302C193.44 337.062 193.5 337.922 191.06 323.942Z" fill="#1890ff"/>
<path d="M203.26 335.162L200.98 322.202C200.971 322.134 200.947 322.068 200.911 322.01C200.875 321.951 200.828 321.9 200.771 321.861C200.715 321.821 200.651 321.794 200.584 321.78C200.517 321.767 200.447 321.767 200.38 321.782L193.26 323.022C193.191 323.034 193.125 323.059 193.067 323.097C193.008 323.135 192.957 323.184 192.918 323.242C192.879 323.3 192.852 323.365 192.838 323.434C192.825 323.503 192.826 323.573 192.84 323.642C195.34 337.642 195.08 336.762 195.34 336.942C195.6 337.122 195.34 337.102 202.84 335.762C202.908 335.752 202.973 335.729 203.032 335.693C203.091 335.657 203.141 335.609 203.181 335.553C203.22 335.497 203.248 335.433 203.261 335.366C203.275 335.298 203.274 335.229 203.26 335.162Z" fill="#1890ff"/>
<path d="M210.9 320.462C210.89 320.393 210.867 320.327 210.831 320.267C210.796 320.208 210.749 320.156 210.693 320.115C210.637 320.074 210.573 320.045 210.506 320.029C210.438 320.013 210.368 320.01 210.3 320.022C202.6 321.502 203.02 321.242 202.84 321.502C202.66 321.762 202.62 320.862 205.04 334.842C205.065 334.978 205.141 335.1 205.252 335.181C205.364 335.263 205.503 335.299 205.64 335.282C213.34 333.822 212.92 334.062 213.1 333.802C213.28 333.542 213.34 334.422 210.9 320.462Z" fill="#1890ff"/>
<path d="M220.82 318.682C220.791 318.549 220.713 318.432 220.602 318.354C220.491 318.277 220.355 318.243 220.22 318.262C212.5 319.642 212.94 319.482 212.76 319.722C212.58 319.962 212.54 319.102 214.96 333.082C214.97 333.15 214.993 333.215 215.029 333.274C215.065 333.332 215.112 333.383 215.169 333.422C215.225 333.462 215.289 333.489 215.356 333.503C215.423 333.516 215.493 333.516 215.56 333.502C223.26 332.062 222.84 332.282 223.02 332.042C223.2 331.802 223.2 332.682 220.82 318.682Z" fill="#1890ff"/>
<path d="M230.74 316.962C230.728 316.893 230.702 316.827 230.664 316.768C230.627 316.71 230.577 316.659 230.519 316.62C230.461 316.581 230.396 316.553 230.328 316.54C230.259 316.527 230.188 316.527 230.12 316.542C222.42 317.962 222.86 317.762 222.68 318.002C222.5 318.242 222.46 317.382 224.88 331.362C224.904 331.497 224.981 331.616 225.094 331.695C225.206 331.774 225.345 331.805 225.48 331.782C233.18 330.322 232.76 330.562 232.94 330.302C233.12 330.042 233.12 330.942 230.74 316.962Z" fill="#1890ff"/>
<path d="M242.94 328.162L240.66 315.202C240.636 315.067 240.559 314.947 240.446 314.868C240.334 314.789 240.195 314.758 240.06 314.782C232.36 316.282 232.78 316.002 232.6 316.242C232.42 316.482 232.36 315.622 234.8 329.602C234.819 329.722 234.879 329.832 234.97 329.912C235.062 329.993 235.178 330.038 235.3 330.042C235.52 330.042 236.62 329.802 242.52 328.762C242.588 328.752 242.653 328.729 242.712 328.693C242.771 328.657 242.821 328.609 242.861 328.553C242.9 328.497 242.928 328.433 242.941 328.366C242.955 328.298 242.954 328.229 242.94 328.162Z" fill="#1890ff"/>
<path d="M250.58 313.462C250.568 313.393 250.542 313.327 250.504 313.268C250.467 313.21 250.417 313.159 250.359 313.12C250.301 313.081 250.236 313.053 250.168 313.04C250.099 313.027 250.028 313.027 249.96 313.042C242.26 314.422 242.7 314.242 242.52 314.502C242.34 314.762 242.3 313.882 244.72 327.862C244.744 327.997 244.821 328.116 244.934 328.195C245.046 328.274 245.185 328.305 245.32 328.282C253.02 326.822 252.6 327.062 252.78 326.802C252.96 326.542 252.96 327.442 250.58 313.462Z" fill="#1890ff"/>
<path d="M277.34 252.382C280.599 252.382 283.24 249.74 283.24 246.482C283.24 243.223 280.599 240.582 277.34 240.582C274.082 240.582 271.44 243.223 271.44 246.482C271.44 249.74 274.082 252.382 277.34 252.382Z" fill="#FFE7EA"/>
<path d="M277.34 252.922C276.065 252.926 274.818 252.551 273.757 251.846C272.695 251.141 271.866 250.136 271.376 248.96C270.885 247.784 270.755 246.488 271.001 245.238C271.248 243.987 271.859 242.838 272.759 241.935C273.659 241.032 274.806 240.417 276.056 240.167C277.306 239.917 278.602 240.043 279.78 240.53C280.958 241.017 281.965 241.842 282.673 242.902C283.382 243.961 283.76 245.207 283.76 246.482C283.76 248.186 283.084 249.821 281.881 251.028C280.677 252.235 279.045 252.916 277.34 252.922ZM277.34 241.102C276.276 241.102 275.236 241.417 274.351 242.008C273.466 242.599 272.777 243.44 272.37 244.423C271.962 245.406 271.856 246.488 272.063 247.531C272.271 248.575 272.783 249.533 273.536 250.286C274.288 251.038 275.247 251.551 276.29 251.758C277.334 251.966 278.416 251.859 279.399 251.452C280.382 251.045 281.222 250.355 281.813 249.471C282.404 248.586 282.72 247.546 282.72 246.482C282.715 245.056 282.146 243.691 281.138 242.683C280.131 241.675 278.765 241.107 277.34 241.102Z" fill="#1890ff"/>
<path d="M150.94 303.662C76.36 304.902 9.28003 242.682 9.28003 161.922C9.3171 127.6 21.8029 94.4571 44.4207 68.6423C67.0385 42.8274 98.2527 26.0934 132.272 21.5452C166.29 16.997 200.804 24.9433 229.409 43.9098C258.014 62.8763 278.768 91.5752 287.82 124.682C287.846 124.774 287.854 124.87 287.843 124.965C287.832 125.06 287.803 125.152 287.756 125.235C287.71 125.319 287.648 125.392 287.573 125.452C287.498 125.511 287.412 125.555 287.32 125.582C287.228 125.608 287.132 125.616 287.037 125.605C286.942 125.594 286.85 125.564 286.766 125.518C286.683 125.472 286.609 125.409 286.55 125.334C286.49 125.259 286.446 125.174 286.42 125.082C279.544 99.8399 265.748 77.0231 246.591 59.2072C227.433 41.3913 203.676 29.2859 178.002 24.2577C152.329 19.2296 125.761 21.4789 101.298 30.7517C76.8346 40.0245 55.451 55.9515 39.5612 76.7345C23.6713 97.5176 13.9079 122.329 11.3734 148.367C8.83882 174.406 13.634 200.634 25.2176 224.092C36.8012 247.549 54.7118 267.301 76.9274 281.117C99.1429 294.934 124.779 302.264 150.94 302.282C177.573 302.226 203.645 294.623 226.134 280.354C248.622 266.085 266.606 245.734 278 221.662C278.083 221.484 278.232 221.347 278.416 221.279C278.599 221.212 278.802 221.22 278.98 221.302C279.154 221.388 279.287 221.539 279.35 221.722C279.414 221.905 279.403 222.106 279.32 222.282C267.807 246.573 249.651 267.109 226.953 281.511C204.254 295.913 177.942 303.593 151.06 303.662H150.94Z" fill="#1890ff"/>
<path d="M290.74 182.082C290.634 182.083 290.529 182.061 290.432 182.017C290.335 181.974 290.248 181.911 290.178 181.831C290.108 181.751 290.056 181.657 290.025 181.556C289.994 181.454 289.986 181.347 290 181.242C290.783 175.594 291.217 169.903 291.3 164.202C291.305 164.009 291.385 163.826 291.524 163.691C291.662 163.557 291.847 163.482 292.04 163.482C292.233 163.487 292.416 163.567 292.55 163.705C292.685 163.844 292.76 164.029 292.76 164.222C292.677 169.983 292.243 175.733 291.46 181.442C291.436 181.617 291.35 181.777 291.218 181.895C291.086 182.012 290.917 182.078 290.74 182.082Z" fill="#1890ff"/>
<path d="M266.2 48.0216C260.567 48.0216 255.061 49.6919 250.377 52.8214C245.694 55.9508 242.044 60.3987 239.888 65.6028C237.732 70.8068 237.168 76.5332 238.267 82.0578C239.366 87.5824 242.079 92.657 246.062 96.64C250.045 100.623 255.119 103.335 260.644 104.434C266.168 105.533 271.895 104.969 277.099 102.814C282.303 100.658 286.751 97.0078 289.88 92.3242C293.01 87.6407 294.68 82.1344 294.68 76.5016C294.669 68.9515 291.666 61.7136 286.327 56.3749C280.988 51.0361 273.75 48.0322 266.2 48.0216ZM278.2 100.742C270.416 84.6404 259.645 70.1639 246.46 58.0816C249.154 55.1695 252.456 52.8867 256.132 51.3956C259.808 49.9046 263.768 49.2419 267.729 49.4547C271.69 49.6675 275.556 50.7505 279.051 52.6268C282.546 54.503 285.585 57.1264 287.951 60.3104C290.318 63.4943 291.953 67.1605 292.742 71.0483C293.53 74.9361 293.453 78.9499 292.514 82.8042C291.575 86.6585 289.799 90.2586 287.311 93.3485C284.823 96.4384 281.685 98.9421 278.12 100.682L278.2 100.742Z" fill="#1890ff"/>
<path d="M123.5 133.202C123.483 133.108 123.448 133.019 123.397 132.939C123.345 132.86 123.279 132.791 123.201 132.737C123.122 132.683 123.035 132.645 122.942 132.625C122.849 132.606 122.753 132.604 122.66 132.622L120 133.082C119.392 129.756 118.116 126.588 116.249 123.77C114.383 120.951 111.964 118.54 109.14 116.682C111.134 113.997 112.569 110.938 113.359 107.688C114.15 104.438 114.279 101.063 113.74 97.7616L116.42 97.3016C116.611 97.2628 116.78 97.1518 116.892 96.9917C117.004 96.8316 117.05 96.6346 117.02 96.4416C116.981 96.2515 116.869 96.0842 116.709 95.9757C116.548 95.8672 116.351 95.8263 116.16 95.8616L93.3 99.8616C93.1091 99.8776 92.9322 99.9687 92.8085 100.115C92.6847 100.261 92.6241 100.451 92.64 100.642C92.6559 100.833 92.747 101.009 92.8933 101.133C93.0396 101.257 93.2291 101.318 93.42 101.302L96.26 100.802C96.8806 104.086 98.1545 107.213 100.006 109.995C101.858 112.778 104.25 115.161 107.04 117.002C105.022 119.713 103.573 122.805 102.783 126.091C101.992 129.377 101.876 132.789 102.44 136.122L99.78 136.682C99.5887 136.72 99.4196 136.831 99.3079 136.992C99.1962 137.152 99.1504 137.349 99.18 137.542C99.2187 137.732 99.3305 137.899 99.4914 138.008C99.6522 138.116 99.8492 138.157 100.04 138.122L122.92 134.122C123.022 134.106 123.119 134.069 123.206 134.012C123.292 133.956 123.365 133.881 123.42 133.794C123.475 133.707 123.51 133.609 123.524 133.507C123.538 133.404 123.53 133.3 123.5 133.202ZM97.7 100.682L112.32 98.1016C112.819 101.207 112.694 104.38 111.952 107.437C111.211 110.493 109.867 113.371 108 115.902C105.347 114.189 103.068 111.957 101.298 109.342C99.5278 106.727 98.3041 103.781 97.7 100.682ZM108.26 117.922C110.935 119.668 113.226 121.942 114.994 124.603C116.761 127.265 117.968 130.258 118.54 133.402L103.88 135.982C103.335 132.822 103.443 129.585 104.196 126.469C104.95 123.353 106.333 120.423 108.26 117.862V117.922Z" fill="#1890ff"/>
<path d="M339.46 184.162C339.269 184.178 339.08 184.117 338.933 183.993C338.787 183.869 338.696 183.693 338.68 183.502C338.664 183.311 338.725 183.121 338.848 182.975C338.972 182.829 339.149 182.738 339.34 182.722L349.48 180.922C349.575 180.905 349.672 180.907 349.766 180.928C349.86 180.949 349.948 180.988 350.027 181.044C350.105 181.1 350.171 181.171 350.222 181.253C350.272 181.335 350.306 181.427 350.32 181.522C350.34 181.615 350.341 181.712 350.322 181.806C350.304 181.899 350.266 181.988 350.212 182.067C350.157 182.146 350.088 182.213 350.006 182.263C349.925 182.314 349.835 182.347 349.74 182.362C340 184.082 339.66 184.162 339.46 184.162Z" fill="#1890ff"/>
<path d="M367.6 179.202C367.409 179.22 367.219 179.162 367.07 179.04C366.922 178.918 366.829 178.743 366.81 178.552C366.791 178.361 366.85 178.17 366.971 178.022C367.093 177.874 367.269 177.78 367.46 177.762L377.6 175.962C377.695 175.945 377.792 175.947 377.886 175.968C377.98 175.989 378.068 176.028 378.147 176.084C378.225 176.14 378.291 176.211 378.342 176.293C378.392 176.375 378.426 176.467 378.44 176.562C378.457 176.655 378.456 176.751 378.436 176.843C378.416 176.936 378.379 177.024 378.325 177.102C378.271 177.18 378.202 177.247 378.122 177.298C378.042 177.35 377.953 177.385 377.86 177.402C368 179.162 367.8 179.202 367.6 179.202Z" fill="#1890ff"/>
<path d="M357.02 171.782C356.848 171.784 356.681 171.725 356.549 171.615C356.417 171.505 356.329 171.351 356.3 171.182L354.5 161.062C354.47 160.869 354.516 160.672 354.628 160.512C354.74 160.351 354.909 160.24 355.1 160.202C355.291 160.172 355.485 160.219 355.642 160.331C355.799 160.443 355.906 160.612 355.94 160.802L357.72 170.942C357.737 171.044 357.732 171.149 357.705 171.249C357.678 171.35 357.63 171.443 357.563 171.523C357.497 171.602 357.414 171.667 357.32 171.712C357.226 171.756 357.124 171.78 357.02 171.782Z" fill="#1890ff"/>
<path d="M362 199.922C361.828 199.924 361.661 199.865 361.529 199.755C361.397 199.645 361.309 199.491 361.28 199.322L359.48 189.182C359.463 189.087 359.465 188.99 359.486 188.896C359.507 188.802 359.547 188.713 359.603 188.635C359.659 188.557 359.73 188.49 359.812 188.44C359.894 188.39 359.985 188.356 360.08 188.342C360.173 188.324 360.269 188.326 360.362 188.345C360.455 188.365 360.543 188.403 360.621 188.457C360.699 188.511 360.765 188.58 360.817 188.659C360.868 188.739 360.903 188.828 360.92 188.922L362.7 199.062C362.721 199.166 362.718 199.273 362.692 199.375C362.667 199.478 362.619 199.574 362.552 199.656C362.485 199.738 362.401 199.805 362.306 199.851C362.21 199.896 362.106 199.921 362 199.922Z" fill="#1890ff"/>
<path d="M351.12 175.542C350.78 175.542 351.44 175.942 342.26 169.542C342.104 169.433 341.997 169.266 341.964 169.079C341.93 168.891 341.972 168.698 342.08 168.542C342.134 168.462 342.204 168.393 342.285 168.34C342.366 168.288 342.457 168.252 342.552 168.235C342.647 168.218 342.745 168.221 342.839 168.243C342.933 168.264 343.022 168.305 343.1 168.362L351.54 174.362C351.623 174.458 351.68 174.575 351.703 174.7C351.726 174.825 351.716 174.954 351.674 175.074C351.631 175.194 351.557 175.3 351.46 175.383C351.363 175.465 351.245 175.52 351.12 175.542Z" fill="#1890ff"/>
<path d="M374.52 191.922C374.18 191.922 374.84 192.322 365.66 185.922C365.504 185.813 365.397 185.646 365.364 185.459C365.33 185.271 365.372 185.078 365.48 184.922C365.534 184.842 365.604 184.773 365.685 184.72C365.766 184.668 365.857 184.632 365.952 184.615C366.047 184.598 366.145 184.601 366.239 184.623C366.333 184.644 366.422 184.685 366.5 184.742L374.94 190.682C375.04 190.776 375.111 190.898 375.145 191.031C375.178 191.165 375.172 191.306 375.128 191.436C375.084 191.567 375.003 191.682 374.895 191.768C374.787 191.854 374.657 191.907 374.52 191.922Z" fill="#1890ff"/>
<path d="M363.84 173.302C363.706 173.304 363.574 173.27 363.459 173.202C363.344 173.134 363.25 173.036 363.188 172.917C363.125 172.799 363.097 172.665 363.106 172.532C363.116 172.399 363.162 172.27 363.24 172.162L369.14 163.722C369.256 163.568 369.425 163.464 369.615 163.431C369.804 163.398 369.999 163.437 370.16 163.542C370.24 163.596 370.309 163.665 370.361 163.746C370.414 163.827 370.45 163.918 370.467 164.013C370.483 164.109 370.481 164.206 370.459 164.3C370.437 164.395 370.397 164.483 370.34 164.562L364.44 173.002C364.372 173.097 364.282 173.174 364.177 173.226C364.073 173.278 363.957 173.304 363.84 173.302Z" fill="#1890ff"/>
<path d="M347.46 196.682C347.326 196.684 347.194 196.65 347.079 196.582C346.964 196.514 346.87 196.416 346.808 196.297C346.745 196.179 346.717 196.045 346.726 195.912C346.736 195.778 346.782 195.65 346.86 195.542L352.76 187.102C352.873 186.944 353.043 186.837 353.233 186.803C353.424 186.77 353.62 186.812 353.78 186.922C353.933 187.037 354.037 187.207 354.071 187.396C354.104 187.585 354.065 187.78 353.96 187.942L348 196.402C347.935 196.484 347.853 196.551 347.76 196.6C347.667 196.648 347.565 196.676 347.46 196.682Z" fill="#1890ff"/>
<path d="M97.84 329.682L83.68 319.782L93.68 305.622C93.7368 305.543 93.7773 305.455 93.799 305.36C93.8207 305.266 93.8233 305.169 93.8065 305.073C93.7897 304.978 93.7539 304.887 93.7012 304.806C93.6486 304.725 93.5802 304.656 93.5 304.602C93.3388 304.497 93.1439 304.458 92.9546 304.491C92.7654 304.524 92.5958 304.628 92.48 304.782L82.48 318.942L68.32 308.942C68.1634 308.833 67.9703 308.791 67.7829 308.825C67.5954 308.859 67.429 308.965 67.32 309.122C67.2632 309.2 67.2228 309.289 67.201 309.383C67.1793 309.477 67.1768 309.575 67.1936 309.67C67.2104 309.765 67.2462 309.856 67.2988 309.937C67.3515 310.018 67.4199 310.088 67.5 310.142L81.66 320.142L71.66 334.282C71.5799 334.44 71.5597 334.623 71.6031 334.795C71.6465 334.968 71.7506 335.119 71.8964 335.221C72.0421 335.323 72.2198 335.369 72.3967 335.351C72.5737 335.333 72.7382 335.251 72.86 335.122L82.86 320.962L97.02 330.962C97.1898 331.07 97.3958 331.107 97.5927 331.064C97.7896 331.021 97.9613 330.901 98.07 330.732C98.1788 330.562 98.2156 330.356 98.1725 330.159C98.1294 329.962 98.0098 329.79 97.84 329.682Z" fill="#1890ff"/>
<path d="M297.24 360.902L299.24 357.262C299.289 357.18 299.32 357.088 299.333 356.994C299.345 356.899 299.338 356.803 299.312 356.711C299.285 356.619 299.241 356.534 299.18 356.46C299.12 356.386 299.045 356.325 298.96 356.282C298.795 356.187 298.6 356.161 298.417 356.21C298.233 356.259 298.076 356.378 297.98 356.542C295.98 360.182 295.14 361.462 294.9 362.002C294.851 362.069 294.816 362.146 294.798 362.228C294.779 362.309 294.778 362.394 294.793 362.476C294.807 362.558 294.839 362.636 294.885 362.706C294.931 362.776 294.99 362.835 295.06 362.882C295.46 363.182 296.66 363.822 300.6 366.062C300.77 366.156 300.97 366.179 301.157 366.126C301.345 366.074 301.504 365.95 301.6 365.782C301.689 365.611 301.709 365.412 301.658 365.226C301.606 365.041 301.485 364.882 301.32 364.782L297.14 362.422C298.919 361.812 300.846 361.782 302.642 362.338C304.439 362.893 306.013 364.004 307.137 365.512C308.262 367.019 308.879 368.844 308.9 370.725C308.92 372.605 308.343 374.443 307.252 375.975C306.16 377.506 304.611 378.652 302.827 379.246C301.043 379.841 299.116 379.853 297.324 379.283C295.533 378.712 293.968 377.587 292.857 376.07C291.745 374.553 291.144 372.722 291.14 370.842C291.135 370.647 291.055 370.462 290.918 370.324C290.78 370.186 290.595 370.107 290.4 370.102C290.207 370.107 290.024 370.187 289.89 370.325C289.755 370.464 289.68 370.649 289.68 370.842C289.69 373.006 290.378 375.112 291.648 376.864C292.918 378.616 294.706 379.926 296.76 380.608C298.813 381.29 301.029 381.311 303.095 380.667C305.161 380.024 306.973 378.748 308.276 377.02C309.579 375.293 310.307 373.2 310.357 371.036C310.408 368.873 309.778 366.748 308.557 364.961C307.336 363.175 305.585 361.816 303.552 361.077C301.518 360.338 299.303 360.256 297.22 360.842L297.24 360.902Z" fill="#1890ff"/>
<path d="M390.32 235.822C375.96 229.062 356.18 231.402 339.5 225.382C341.06 222.302 341.94 216.982 339.5 215.762C327.08 205.902 286.44 177.042 275.26 170.062C279.1 168.902 323.04 155.562 334.06 152.562C337.3 152.182 337.36 146.142 337 142.882C342.005 142.305 347.048 142.138 352.08 142.382C352.246 142.405 352.416 142.365 352.553 142.268C352.691 142.172 352.786 142.026 352.82 141.862C359.14 119.442 360.94 93.5616 361.42 83.4816C361.431 83.3446 361.402 83.2072 361.338 83.0859C361.273 82.9646 361.175 82.8643 361.055 82.797C360.935 82.7297 360.798 82.6981 360.661 82.706C360.524 82.7139 360.391 82.761 360.28 82.8417C344.14 93.7416 342.28 110.522 332.4 118.842C331.02 114.622 329.02 112.322 327.16 112.842C248.42 134.342 245.72 135.782 239.46 139.482C232.88 143.362 225.06 153.862 202.12 182.842C201.24 183.142 199.9 183.662 198.12 184.342C198.82 180.682 200.12 172.142 200.64 167.022C200.648 166.482 200.525 165.949 200.281 165.469C200.037 164.988 199.68 164.573 199.24 164.262C197.6 163.165 195.721 162.479 193.76 162.262C192.98 152.082 190.96 127.222 190.96 122.062C190.96 115.262 196.34 106.242 196.56 105.882C198.04 103.462 198 100.862 197.78 94.6616C197.78 93.2617 197.16 92.3616 196.28 92.2616C194.86 92.0816 193.44 94.0416 192.28 97.8216C191.32 100.942 188.84 103.362 187.44 103.122C186.04 102.882 185.68 100.862 185.76 97.5616C185.9 91.5616 186.9 82.9816 187.1 80.6816C187.3 78.3816 186.72 76.4216 185.48 76.2016C184.24 75.9816 182.88 77.5416 182.1 80.4216C181.58 82.2216 180.66 85.6016 179.88 88.9016C179.72 85.1416 179.7 81.8216 179.66 78.5016C179.66 75.9416 178.84 74.3816 177.66 74.2816C176.48 74.1816 175.2 75.8816 174.7 78.8216C174.3 81.3016 173.86 84.4416 173.52 87.4416C173.1 84.3816 172.92 82.3616 172.72 80.4816C172.3 76.8816 170.92 76.4816 170.28 76.4816C168.9 76.4816 167.98 78.3216 167.76 81.3416C167.62 84.0016 167.54 86.7016 167.52 89.3417C167.2 87.7817 167 86.7016 166.68 84.9816C166.22 82.5216 165.24 81.1816 164.1 81.3016C162.96 81.4216 162.1 83.3016 162.1 86.2216C162.041 91.5233 162.416 96.821 163.22 102.062C164.16 106.342 168.06 117.502 168.92 120.482C165.26 124.482 165.72 132.762 170.08 135.582C170.08 135.582 170.08 155.882 170.08 160.222C166.32 161.142 165.92 162.902 166.08 163.942C165.94 166.622 165.82 173.262 165.74 177.522C151.94 180.722 124.88 187.882 112.18 185.522C114.266 182.338 115.662 178.753 116.28 174.997C116.897 171.241 116.722 167.398 115.765 163.714C114.808 160.03 113.091 156.587 110.724 153.607C108.357 150.626 105.392 148.174 102.021 146.408C98.6495 144.641 94.9458 143.6 91.1478 143.351C87.3498 143.101 83.5417 143.65 79.9683 144.96C76.3949 146.271 73.1352 148.314 70.3989 150.96C67.6626 153.605 65.5102 156.794 64.08 160.322C62.0477 158.209 59.43 156.751 56.5632 156.138C53.6964 155.524 50.7116 155.781 47.9921 156.876C45.2727 157.972 42.943 159.856 41.3024 162.285C39.6617 164.715 38.785 167.58 38.785 170.512C38.785 173.443 39.6617 176.308 41.3024 178.738C42.943 181.168 45.2727 183.051 47.9921 184.147C50.7116 185.242 53.6964 185.5 56.5632 184.886C59.43 184.272 62.0477 182.815 64.08 180.702C66.6113 186.917 71.3416 191.983 77.3688 194.934C83.396 197.885 90.2985 198.514 96.76 196.702C98.76 207.102 97.02 214.202 95.24 224.342C91.24 246.682 86.4 274.482 93.24 283.662C100.62 293.662 110.04 291.942 136.06 291.942C139.94 292.162 141.28 286.262 141.38 282.182C148.54 280.842 157.38 279.082 163.56 277.822C171.56 276.182 173.82 273.242 176.4 269.822C177.78 267.982 177.46 268.462 178.86 266.682C181.16 263.822 182.66 262.122 184.34 263.002C189.48 265.722 198.34 269.922 199.8 267.602C200.14 267.062 200.06 266.162 198.84 265.262C196.36 263.422 194.46 261.902 192.84 260.482C196.04 261.062 206.84 262.782 207.68 259.642C207.84 259.002 207.52 258.102 206.1 257.642L197.6 255.042C200.64 255.142 210.08 255.222 210.4 252.202C210.417 251.866 210.319 251.535 210.123 251.262C209.927 250.99 209.644 250.792 209.32 250.702C220.78 247.282 230.7 235.102 239.1 220.822C245.28 216.622 251.1 212.642 257.26 208.582C266.86 214.842 311.44 243.842 319.48 248.582C322.38 250.302 326.16 246.582 328.12 243.862C330.655 246.473 333.326 248.95 336.12 251.282C338.12 252.742 372.12 245.142 390.38 236.762C390.485 236.624 390.536 236.453 390.525 236.28C390.514 236.108 390.441 235.945 390.32 235.822ZM335.38 118.022C343.68 109.282 346.32 94.8016 359.92 84.8816C359.34 95.7216 357.46 119.802 351.6 140.882C343.995 140.56 336.379 141.164 328.92 142.682C327.21 136.598 326.157 130.349 325.78 124.042C329.451 122.908 332.761 120.832 335.38 118.022ZM192.88 168.782C185.714 169.19 178.528 168.481 171.58 166.682C171.58 162.982 171.58 136.362 171.58 136.362C173.072 136.817 174.674 136.754 176.127 136.184C177.579 135.614 178.796 134.57 179.58 133.222C183.122 133.334 186.655 132.792 190 131.622C190.82 142.682 192.5 163.082 192.88 168.782ZM164.7 101.822C163.919 96.6796 163.557 91.4824 163.62 86.2816C163.479 85.0837 163.702 83.8709 164.26 82.8016C164.4 82.8016 164.94 83.4016 165.3 85.3216C167.52 97.1016 167.6 94.3816 167.76 97.7416C167.789 97.9145 167.878 98.0716 168.012 98.1849C168.145 98.2982 168.315 98.3604 168.49 98.3604C168.665 98.3604 168.835 98.2982 168.969 98.1849C169.102 98.0716 169.191 97.9145 169.22 97.7416C168.94 92.3386 168.94 86.9247 169.22 81.5216C169.4 79.0016 170.08 78.0816 170.3 78.0416C170.52 78.0016 171.02 78.6016 171.26 80.7216C171.72 84.7216 172.02 88.1416 172.94 93.1616C172.94 94.2216 172.78 95.1616 172.76 95.8417C172.789 96.0145 172.878 96.1716 173.012 96.2849C173.145 96.3982 173.315 96.4604 173.49 96.4604C173.665 96.4604 173.835 96.3982 173.969 96.2849C174.102 96.1716 174.191 96.0145 174.22 95.8417C174.36 92.0816 175.36 83.7216 176.22 79.0816C176.64 76.6016 177.42 75.7616 177.62 75.7616C177.82 75.7616 178.32 76.3816 178.34 78.5416C178.56 95.4416 179 93.3616 178.76 95.1216C178.731 95.3126 178.779 95.5073 178.893 95.663C179.008 95.8186 179.179 95.9225 179.37 95.9516C179.561 95.9808 179.756 95.9329 179.911 95.8185C180.067 95.7042 180.171 95.5326 180.2 95.3417C181.067 90.4396 182.215 85.5916 183.64 80.8216C184.36 78.2016 185.22 77.6616 185.36 77.6616C185.5 77.6616 185.98 78.3816 185.78 80.5816C185.58 82.7816 184.58 91.3016 184.44 97.5416C184.3 102.962 185.96 104.362 187.36 104.582C189.9 104.982 192.8 101.582 193.8 98.2616C194.94 94.5616 196 93.7416 196.18 93.7016C196.377 94.0112 196.468 94.376 196.44 94.7416C196.66 100.622 196.7 103.082 195.44 105.142C192.72 109.662 189.56 116.902 189.62 122.402C186.659 123.463 183.545 124.037 180.4 124.102C178.54 118.422 173.44 117.422 170.22 119.542C169.12 116.042 165.54 105.622 164.7 101.822ZM173.52 119.942C181.06 119.802 181.96 135.182 173.52 135.182C166 135.162 166.16 120.102 173.52 119.942ZM92.26 181.942C91.6 181.222 91.02 180.882 90.56 180.922C85.6 181.242 84.36 176.922 89.24 177.802C90.44 178.042 90.98 177.602 91.24 177.202C92.02 175.902 90.3 173.202 88.5 170.862C92.0117 168.849 95.2118 166.336 98 163.402C106.62 170.522 111.14 176.922 109.84 180.182C109 182.322 105.62 183.242 100.06 182.842C99.892 182.823 99.7229 182.864 99.5822 182.958C99.4415 183.052 99.3383 183.192 99.2906 183.354C99.2429 183.516 99.2538 183.69 99.3214 183.845C99.3889 184 99.5088 184.126 99.66 184.202C104.82 186.922 114.3 187.602 118.46 187.602C120.26 187.602 122.16 187.602 124.16 187.342C121.68 198.362 112.46 207.882 98.66 213.702C99.4025 207.785 99.1796 201.787 98 195.942C98 195.942 98 195.942 98 195.802C97.1956 190.778 95.2301 186.012 92.26 181.882V181.942ZM94.38 283.102C86.52 272.502 95.88 230.902 98.38 215.422C113.28 209.422 123.18 199.142 125.66 187.242C136.7 186.062 152.24 182.282 165.76 179.242C165.76 180.242 165.76 181.002 165.76 181.242C165.757 181.338 165.774 181.434 165.809 181.523C165.844 181.613 165.897 181.695 165.964 181.764C166.031 181.833 166.111 181.888 166.2 181.925C166.288 181.962 166.384 181.982 166.48 181.982C166.673 181.982 166.858 181.907 166.996 181.772C167.135 181.638 167.215 181.454 167.22 181.262C167.22 179.742 167.36 171.082 167.5 166.242C169.78 168.102 174.8 169.422 182.12 170.062C186.4 170.422 195.3 170.962 199.1 168.942C198.42 174.622 197.1 182.562 196.66 184.942C188.24 188.322 174.08 194.282 168.18 196.942C144.46 185.822 139.42 187.602 128.7 189.642C128.607 189.659 128.518 189.694 128.438 189.745C128.358 189.796 128.289 189.863 128.235 189.941C128.182 190.019 128.144 190.107 128.124 190.2C128.104 190.293 128.103 190.388 128.12 190.482C128.137 190.577 128.172 190.668 128.225 190.749C128.278 190.831 128.346 190.9 128.427 190.955C128.507 191.009 128.597 191.046 128.692 191.064C128.788 191.083 128.885 191.082 128.98 191.062C139.34 189.062 144.22 187.302 167.58 198.282C170 205.722 168.26 222.042 160.02 230.522C155.58 231.762 150.78 232.922 146.02 233.982C141.118 232.86 136.331 231.287 131.72 229.282C131.94 228.822 132.18 228.362 132.4 227.922C132.445 227.838 132.472 227.746 132.481 227.651C132.491 227.556 132.481 227.461 132.453 227.37C132.425 227.279 132.38 227.194 132.319 227.12C132.258 227.047 132.184 226.986 132.1 226.942C132.016 226.897 131.924 226.869 131.829 226.86C131.735 226.851 131.639 226.861 131.548 226.889C131.457 226.917 131.372 226.962 131.299 227.023C131.225 227.083 131.165 227.158 131.12 227.242C126.551 236.431 122.868 246.034 120.12 255.922C116.9 256.502 113.92 257.022 111.88 257.342C111.749 257.406 111.64 257.508 111.569 257.635C111.497 257.762 111.466 257.908 111.479 258.053C111.492 258.198 111.548 258.336 111.642 258.448C111.735 258.561 111.86 258.642 112 258.682C112.42 258.682 127.48 255.982 131.7 255.302C130.08 257.602 128.62 262.622 129.16 273.442C129.4 278.242 130.24 287.062 133.42 290.642C109.8 290.822 101.12 292.102 94.38 283.042V283.102ZM166.86 253.242C165.325 254.258 163.698 255.129 162 255.842C160.22 256.122 148.7 257.402 139.18 258.202C138.66 255.502 136.94 253.162 134.24 253.522C131.54 253.882 126.48 254.782 121.74 255.522C123.305 249.921 125.202 244.418 127.42 239.042C137.8 237.162 149.88 234.762 160.1 231.882C163.333 237.008 167.325 241.614 171.94 245.542C170.46 248.224 168.761 250.78 166.86 253.182V253.242ZM177.32 237.922C177.32 237.922 178.62 239.162 176.86 247.142C174.72 248.382 172.38 249.822 170.18 251.142C175.38 243.602 176.4 238.682 177.32 237.862V237.922ZM191.8 253.542C190.62 253.122 189.5 252.722 188.48 252.322C188.391 252.286 188.296 252.269 188.2 252.271C188.104 252.274 188.009 252.295 187.922 252.334C187.834 252.373 187.755 252.429 187.69 252.499C187.624 252.569 187.573 252.652 187.54 252.742C187.504 252.83 187.486 252.924 187.487 253.019C187.488 253.114 187.507 253.207 187.544 253.295C187.582 253.382 187.636 253.461 187.704 253.528C187.771 253.594 187.852 253.646 187.94 253.682C192.72 255.562 199.66 257.522 205.58 259.362C205.96 259.482 206.14 259.622 206.18 259.582C205.82 260.082 202.18 261.322 190.52 258.882L188.26 256.882C188.114 256.757 187.925 256.695 187.733 256.71C187.542 256.725 187.365 256.816 187.24 256.962C187.115 257.108 187.054 257.297 187.069 257.488C187.084 257.68 187.174 257.857 187.32 257.982C191.32 261.382 193.56 263.462 197.96 266.702C198.114 266.82 198.254 266.954 198.38 267.102C197.62 267.202 194.54 267.102 185 261.982C181.74 260.282 179.32 264.142 176.76 267.242C173.08 271.702 172.12 274.842 163.24 276.662C153.8 278.662 137.38 281.782 131.68 282.662C130.266 275.258 130.151 267.665 131.34 260.222C139.7 259.802 158.7 257.862 162.18 257.302C164.68 256.902 180.04 246.002 184.02 245.302C185.08 245.122 199.58 245.462 205.22 245.542C205.605 245.531 205.988 245.606 206.34 245.762C206.34 245.762 205.36 247.862 192.6 248.502C191.04 248.202 189.6 247.922 188.38 247.642C188.192 247.599 187.995 247.632 187.83 247.733C187.666 247.834 187.547 247.995 187.5 248.182C187.463 248.369 187.498 248.564 187.598 248.727C187.698 248.891 187.856 249.01 188.04 249.062C193.46 250.302 202.62 251.642 208.22 252.322C208.62 252.322 208.8 252.462 208.86 252.442C208.52 252.942 204.82 254.682 191.8 253.482V253.542ZM205.12 250.422C203 250.122 200.72 249.802 198.46 249.442C203.2 248.902 207.86 247.822 207.8 245.722C207.8 244.722 206.72 244.042 205.24 244.042C197.96 243.942 184.96 243.602 183.74 243.842C181.913 244.393 180.165 245.179 178.54 246.182C179.7 240.422 179.42 237.022 177.74 236.522C176.76 236.242 175.74 237.042 175.26 238.522C174.477 240.517 173.582 242.467 172.58 244.362C168.198 240.564 164.398 236.143 161.3 231.242C169.68 222.322 171.44 206.142 169.02 198.142C176.48 194.842 193.34 187.782 200.38 185.062C195.62 191.062 190.2 197.902 184 205.662C183.941 205.736 183.897 205.822 183.871 205.914C183.845 206.006 183.838 206.102 183.849 206.196C183.86 206.291 183.89 206.383 183.936 206.466C183.983 206.549 184.045 206.623 184.12 206.682C184.195 206.741 184.281 206.785 184.372 206.81C184.464 206.836 184.56 206.844 184.655 206.833C184.75 206.822 184.841 206.792 184.924 206.746C185.008 206.699 185.081 206.637 185.14 206.562C225.56 155.842 233.28 144.822 240.22 140.682C246.22 137.182 249.44 136.042 325.22 114.862C323.9 117.982 323.92 124.382 325.22 133.122C326 137.962 328.06 148.362 331.7 151.642C320.6 154.722 265.42 171.462 260.84 172.822C260.74 172.853 260.647 172.905 260.568 172.974C260.489 173.042 260.425 173.127 260.38 173.222C249.52 196.682 230.74 247.442 205.12 250.362V250.422ZM318.12 246.422C306.26 239.042 265.68 212.622 257.56 207.322C257.442 207.243 257.302 207.2 257.16 207.2C257.018 207.2 256.878 207.243 256.76 207.322L252.34 210.262C254.34 202.902 256.78 188.262 257.98 182.262C259.28 179.342 260.52 176.582 261.66 174.122L273.4 170.682C282.06 175.822 323.04 204.862 337.16 215.822C332.26 217.382 326.98 224.822 324.32 229.202C319.32 237.382 317.66 243.242 318.12 246.462V246.422ZM336.68 250.282C331.38 246.282 330.68 242.842 321.28 238.142C323.654 232.595 326.799 227.411 330.62 222.742C348.32 233.522 371.84 229.602 388.22 236.442C375.12 242.182 349.8 249.422 336.68 250.322V250.282Z" fill="#1890ff"/>
</svg>
