<svg width="400" height="400" viewBox="0 0 400 400" fill="none" xmlns="http://www.w3.org/2000/svg">
<path d="M329.22 272.2C332.479 272.2 335.12 269.558 335.12 266.3C335.12 263.041 332.479 260.4 329.22 260.4C325.962 260.4 323.32 263.041 323.32 266.3C323.32 269.558 325.962 272.2 329.22 272.2Z" fill="#B2BEC3"/>
<path d="M311.46 275.32C314.719 275.32 317.36 272.679 317.36 269.42C317.36 266.162 314.719 263.52 311.46 263.52C308.202 263.52 305.56 266.162 305.56 269.42C305.56 272.679 308.202 275.32 311.46 275.32Z" fill="#B2BEC3"/>
<path d="M179.84 124.34C180.556 126.885 180.336 129.603 179.22 132C178.712 133.058 177.91 133.947 176.91 134.561C175.91 135.175 174.753 135.487 173.58 135.46C166.6 135.46 165.48 124.4 169.8 120.3C172.7 117.5 178.16 118.28 179.84 124.34Z" fill="#B2BEC3"/>
<path d="M339.18 216C337.84 215.36 334.56 216.72 330.46 221.4C326.23 226.415 322.815 232.064 320.34 238.14C318.1 243.82 318.52 247.02 319.76 247.94C311.54 242.98 265.18 212.82 257.16 207.58L251.16 211.58C253.16 205.36 256.06 188.02 257.34 181.58C258.7 178.5 260 175.58 261.2 173.06L273.56 169.32C282 174.32 326.54 206 339.18 216Z" fill="#B2BEC3"/>
<path d="M202.58 182.98C228 150.98 233.98 143.08 239.86 139.62C246.08 135.92 250.12 134.64 327.24 113.12C325.82 113.64 324.76 116.8 325.04 123.12C325.382 129.896 326.516 136.608 328.42 143.12C330.26 149.12 332.42 151.52 333.96 151.4C319.14 155.4 294.72 163.02 261.16 173.12C249.9 197.12 231.16 247.8 205.16 250.64C201.02 250.1 196.48 249.4 192.7 248.64C209.7 247.8 208.28 244.24 205.28 244.22C198.86 244.22 185.06 243.8 183.94 244.02C181.68 244.751 179.528 245.78 177.54 247.08C180.18 235.5 177.08 235.22 176 238.24C175.149 240.563 174.105 242.811 172.88 244.96C167.987 240.89 163.786 236.054 160.44 230.64C168.96 221.98 170.98 205.18 168.18 197.24C174.2 194.62 201.58 183.32 202.58 182.98Z" fill="#B2BEC3"/>
<path d="M351.72 319.48C345.38 283.38 348.3 300.04 341.86 263.48C341.294 260.304 339.492 257.483 336.849 255.635C334.205 253.786 330.937 253.062 327.76 253.62L136.24 287.34C136.147 287.357 136.058 287.392 135.978 287.443C135.898 287.495 135.829 287.561 135.775 287.639C135.722 287.718 135.684 287.805 135.664 287.898C135.644 287.991 135.643 288.087 135.66 288.18L133.34 288.6L134.76 290.86H125.6C125.605 290.729 125.575 290.6 125.512 290.485C125.449 290.37 125.356 290.275 125.243 290.209C125.13 290.143 125.001 290.109 124.87 290.111C124.739 290.113 124.611 290.151 124.5 290.22C122.401 291.493 120.733 293.367 119.713 295.6C118.693 297.832 118.368 300.32 118.78 302.74C122.36 323.12 126.44 346.32 128.64 358.74C129.206 361.917 131.007 364.74 133.65 366.592C136.292 368.443 139.561 369.173 142.74 368.62L341.86 333.52C345.021 332.949 347.829 331.154 349.675 328.526C351.521 325.897 352.256 322.647 351.72 319.48ZM329.32 260.98C330.384 260.98 331.424 261.296 332.309 261.887C333.194 262.478 333.883 263.318 334.29 264.301C334.698 265.284 334.804 266.366 334.597 267.41C334.389 268.453 333.877 269.412 333.124 270.164C332.372 270.917 331.413 271.429 330.37 271.637C329.326 271.844 328.244 271.738 327.261 271.331C326.278 270.923 325.438 270.234 324.847 269.349C324.256 268.464 323.94 267.424 323.94 266.36C323.94 264.933 324.507 263.565 325.516 262.556C326.525 261.547 327.893 260.98 329.32 260.98ZM311.52 264.12C312.584 264.12 313.624 264.436 314.509 265.027C315.394 265.618 316.083 266.458 316.49 267.441C316.898 268.424 317.004 269.506 316.797 270.55C316.589 271.593 316.077 272.552 315.324 273.304C314.572 274.057 313.613 274.569 312.57 274.777C311.526 274.984 310.444 274.878 309.461 274.47C308.478 274.063 307.638 273.374 307.047 272.489C306.456 271.604 306.14 270.564 306.14 269.5C306.137 268.793 306.275 268.092 306.544 267.438C306.814 266.784 307.21 266.19 307.71 265.69C308.21 265.19 308.804 264.794 309.458 264.524C310.112 264.255 310.813 264.117 311.52 264.12ZM341.52 332.12L142.48 367.24C141.096 367.485 139.677 367.454 138.305 367.15C136.932 366.846 135.633 366.275 134.482 365.469C133.33 364.663 132.349 363.638 131.593 362.453C130.838 361.267 130.324 359.944 130.08 358.56L122.56 315.88L342.78 277.04L350.28 319.74C350.769 322.535 350.129 325.409 348.502 327.734C346.875 330.058 344.393 331.643 341.6 332.14L341.52 332.12Z" fill="white"/>
<path d="M142.68 350.26C142.506 350.258 142.339 350.194 142.207 350.081C142.076 349.968 141.988 349.812 141.96 349.64L138.18 328.24C138.163 328.145 138.165 328.048 138.186 327.954C138.207 327.86 138.247 327.772 138.303 327.693C138.359 327.615 138.43 327.549 138.512 327.498C138.594 327.448 138.685 327.415 138.78 327.4C346 290.74 331.64 293.28 332 293.54C332.36 293.8 332 292.02 336 315.42C336.02 315.514 336.021 315.61 336.002 315.704C335.984 315.798 335.946 315.887 335.892 315.966C335.837 316.044 335.768 316.111 335.686 316.162C335.605 316.212 335.515 316.246 335.42 316.26C135.72 351.58 142.88 350.26 142.68 350.26ZM139.74 328.7L143.26 348.7L334.52 314.98L331 294.98L139.74 328.7Z" fill="white"/>
<path d="M151.38 330.26C151.371 330.192 151.347 330.127 151.311 330.068C151.275 330.009 151.228 329.959 151.171 329.919C151.115 329.88 151.051 329.853 150.984 329.839C150.917 329.825 150.847 329.826 150.78 329.84C143.08 331.28 143.5 331.06 143.34 331.3C143.18 331.54 143.12 330.68 145.52 344.66C145.549 344.797 145.63 344.917 145.745 344.995C145.861 345.073 146.002 345.104 146.14 345.08C153.84 343.64 153.4 343.86 153.58 343.62C153.76 343.38 153.82 344.24 151.38 330.26Z" fill="white"/>
<path d="M163.6 341.48L161.32 328.52C161.296 328.38 161.217 328.255 161.101 328.172C160.984 328.09 160.841 328.057 160.7 328.08C153 329.56 153.44 329.3 153.26 329.56C153.08 329.82 153.02 328.94 155.46 342.92C155.483 343.037 155.545 343.142 155.636 343.218C155.727 343.295 155.841 343.338 155.96 343.34C156.16 343.34 157.28 343.12 163.18 342.08C163.313 342.051 163.429 341.973 163.507 341.862C163.585 341.751 163.618 341.614 163.6 341.48Z" fill="white"/>
<path d="M171.22 326.76C171.196 326.625 171.119 326.505 171.006 326.427C170.894 326.348 170.755 326.317 170.62 326.34C162.92 327.76 163.34 327.56 163.16 327.82C162.98 328.08 162.96 327.18 165.36 341.16C165.389 341.297 165.47 341.417 165.585 341.495C165.701 341.573 165.842 341.604 165.98 341.58C173.68 340.14 173.24 340.38 173.42 340.12C173.6 339.86 173.66 340.74 171.22 326.76Z" fill="white"/>
<path d="M181.14 325.02C181.131 324.952 181.107 324.886 181.071 324.828C181.035 324.769 180.988 324.719 180.932 324.679C180.875 324.64 180.811 324.612 180.744 324.599C180.677 324.585 180.607 324.586 180.54 324.6C172.84 326.02 173.26 325.82 173.08 326.06C172.9 326.3 172.86 325.44 175.28 339.42C175.304 339.555 175.381 339.675 175.494 339.754C175.606 339.832 175.745 339.863 175.88 339.84C183.6 338.4 183.16 338.62 183.34 338.38C183.52 338.14 183.58 339 181.14 325.02Z" fill="white"/>
<path d="M191.06 323.26C191.036 323.125 190.959 323.005 190.847 322.927C190.734 322.848 190.595 322.817 190.46 322.84C182.74 324.22 183.18 324.06 183 324.32C182.82 324.58 182.78 323.68 185.2 337.66C185.224 337.795 185.301 337.915 185.414 337.994C185.526 338.072 185.665 338.103 185.8 338.08C193.5 336.64 193.08 336.86 193.26 336.62C193.44 336.38 193.5 337.24 191.06 323.26Z" fill="white"/>
<path d="M203.26 334.48L200.98 321.52C200.971 321.452 200.947 321.386 200.911 321.328C200.875 321.269 200.828 321.219 200.771 321.179C200.715 321.14 200.651 321.112 200.584 321.099C200.517 321.085 200.447 321.086 200.38 321.1L193.26 322.34C193.191 322.352 193.125 322.378 193.067 322.416C193.008 322.453 192.957 322.503 192.918 322.561C192.879 322.619 192.852 322.684 192.838 322.752C192.825 322.821 192.826 322.892 192.84 322.96C195.34 336.96 195.08 336.08 195.34 336.26C195.6 336.44 195.34 336.42 202.84 335.08C202.908 335.07 202.973 335.047 203.032 335.011C203.091 334.975 203.141 334.928 203.181 334.871C203.22 334.815 203.248 334.751 203.261 334.684C203.275 334.617 203.274 334.547 203.26 334.48Z" fill="white"/>
<path d="M210.9 319.78C210.89 319.711 210.867 319.645 210.831 319.586C210.796 319.526 210.749 319.475 210.693 319.434C210.637 319.393 210.573 319.363 210.506 319.347C210.438 319.331 210.368 319.329 210.3 319.34C202.6 320.82 203.02 320.56 202.84 320.82C202.66 321.08 202.62 320.18 205.04 334.16C205.065 334.296 205.141 334.418 205.252 334.5C205.364 334.582 205.503 334.618 205.64 334.6C213.34 333.14 212.92 333.38 213.1 333.12C213.28 332.86 213.34 333.74 210.9 319.78Z" fill="white"/>
<path d="M220.82 318C220.791 317.867 220.713 317.751 220.602 317.673C220.491 317.595 220.355 317.562 220.22 317.58C212.5 318.96 212.94 318.8 212.76 319.04C212.58 319.28 212.54 318.42 214.96 332.4C214.97 332.468 214.993 332.534 215.029 332.592C215.065 332.651 215.112 332.701 215.169 332.741C215.225 332.78 215.289 332.808 215.356 332.821C215.423 332.835 215.493 332.834 215.56 332.82C223.26 331.38 222.84 331.6 223.02 331.36C223.2 331.12 223.2 332 220.82 318Z" fill="white"/>
<path d="M230.74 316.28C230.728 316.211 230.702 316.145 230.664 316.087C230.627 316.028 230.577 315.977 230.519 315.938C230.461 315.899 230.396 315.872 230.328 315.858C230.259 315.845 230.188 315.845 230.12 315.86C222.42 317.28 222.86 317.08 222.68 317.32C222.5 317.56 222.46 316.7 224.88 330.68C224.904 330.815 224.981 330.935 225.094 331.013C225.206 331.092 225.345 331.123 225.48 331.1C233.18 329.64 232.76 329.88 232.94 329.62C233.12 329.36 233.12 330.26 230.74 316.28Z" fill="white"/>
<path d="M242.94 327.48L240.66 314.52C240.636 314.385 240.559 314.265 240.446 314.186C240.334 314.108 240.195 314.077 240.06 314.1C232.36 315.6 232.78 315.32 232.6 315.56C232.42 315.8 232.36 314.94 234.8 328.92C234.819 329.04 234.879 329.15 234.97 329.23C235.062 329.311 235.178 329.357 235.3 329.36C235.52 329.36 236.62 329.12 242.52 328.08C242.588 328.07 242.653 328.047 242.712 328.011C242.771 327.975 242.821 327.928 242.861 327.871C242.9 327.815 242.928 327.751 242.941 327.684C242.955 327.616 242.954 327.547 242.94 327.48Z" fill="white"/>
<path d="M250.58 312.78C250.568 312.711 250.542 312.645 250.504 312.587C250.467 312.528 250.417 312.477 250.359 312.438C250.301 312.399 250.236 312.372 250.168 312.358C250.099 312.345 250.028 312.345 249.96 312.36C242.26 313.74 242.7 313.56 242.52 313.82C242.34 314.08 242.3 313.2 244.72 327.18C244.744 327.315 244.821 327.435 244.934 327.513C245.046 327.592 245.185 327.623 245.32 327.6C253.02 326.14 252.6 326.38 252.78 326.12C252.96 325.86 252.96 326.76 250.58 312.78Z" fill="white"/>
<path d="M277.34 251.7C280.599 251.7 283.24 249.058 283.24 245.8C283.24 242.541 280.599 239.9 277.34 239.9C274.082 239.9 271.44 242.541 271.44 245.8C271.44 249.058 274.082 251.7 277.34 251.7Z" fill="#B2BEC3"/>
<path d="M277.34 252.24C276.065 252.244 274.818 251.869 273.757 251.164C272.695 250.459 271.866 249.455 271.376 248.278C270.885 247.102 270.755 245.806 271.001 244.556C271.248 243.305 271.859 242.156 272.759 241.253C273.659 240.351 274.806 239.735 276.056 239.485C277.306 239.235 278.602 239.361 279.78 239.848C280.958 240.335 281.965 241.16 282.673 242.22C283.382 243.279 283.76 244.525 283.76 245.8C283.76 247.504 283.084 249.139 281.881 250.347C280.677 251.554 279.045 252.235 277.34 252.24ZM277.34 240.42C276.276 240.42 275.236 240.735 274.351 241.327C273.466 241.918 272.777 242.758 272.37 243.741C271.962 244.724 271.856 245.806 272.063 246.849C272.271 247.893 272.783 248.852 273.536 249.604C274.288 250.356 275.247 250.869 276.29 251.076C277.334 251.284 278.416 251.178 279.399 250.77C280.382 250.363 281.222 249.674 281.813 248.789C282.404 247.904 282.72 246.864 282.72 245.8C282.715 244.375 282.146 243.009 281.138 242.001C280.131 240.994 278.765 240.425 277.34 240.42Z" fill="white"/>
<path d="M150.94 302.98C76.36 304.22 9.28003 242 9.28003 161.24C9.3171 126.918 21.8029 93.7755 44.4207 67.9606C67.0385 42.1458 98.2527 25.4118 132.272 20.8636C166.29 16.3153 200.804 24.2617 229.409 43.2282C258.014 62.1947 278.768 90.8936 287.82 124C287.846 124.092 287.854 124.188 287.843 124.283C287.832 124.378 287.803 124.47 287.756 124.554C287.71 124.637 287.648 124.711 287.573 124.77C287.498 124.83 287.412 124.874 287.32 124.9C287.228 124.926 287.132 124.934 287.037 124.923C286.942 124.912 286.85 124.883 286.766 124.836C286.683 124.79 286.609 124.728 286.55 124.653C286.49 124.578 286.446 124.492 286.42 124.4C279.544 99.1583 265.748 76.3414 246.591 58.5256C227.433 40.7097 203.676 28.6043 178.002 23.5761C152.329 18.5479 125.761 20.7972 101.298 30.07C76.8346 39.3428 55.451 55.2698 39.5612 76.0529C23.6713 96.8359 13.9079 121.647 11.3734 147.686C8.83882 173.724 13.634 199.953 25.2176 223.41C36.8012 246.867 54.7118 266.619 76.9274 280.435C99.1429 294.252 124.779 301.583 150.94 301.6C177.573 301.544 203.645 293.941 226.134 279.672C248.622 265.403 266.606 245.053 278 220.98C278.083 220.803 278.232 220.665 278.416 220.598C278.599 220.53 278.802 220.538 278.98 220.62C279.154 220.706 279.287 220.857 279.35 221.04C279.414 221.224 279.403 221.425 279.32 221.6C267.807 245.892 249.651 266.427 226.953 280.829C204.254 295.231 177.942 302.911 151.06 302.98H150.94Z" fill="white"/>
<path d="M290.74 181.4C290.634 181.401 290.529 181.379 290.432 181.336C290.335 181.292 290.248 181.229 290.178 181.149C290.108 181.069 290.056 180.975 290.025 180.874C289.994 180.772 289.986 180.665 290 180.56C290.783 174.912 291.217 169.221 291.3 163.52C291.305 163.327 291.385 163.144 291.524 163.009C291.662 162.875 291.847 162.8 292.04 162.8C292.233 162.805 292.416 162.885 292.55 163.023C292.685 163.162 292.76 163.347 292.76 163.54C292.677 169.301 292.243 175.052 291.46 180.76C291.436 180.935 291.35 181.096 291.218 181.213C291.086 181.33 290.917 181.397 290.74 181.4Z" fill="white"/>
<path d="M266.2 47.3398C260.567 47.3398 255.061 49.0102 250.377 52.1396C245.694 55.269 242.044 59.717 239.888 64.921C237.732 70.1251 237.168 75.8514 238.267 81.376C239.366 86.9006 242.079 91.9753 246.062 95.9582C250.045 99.9412 255.119 102.654 260.644 103.753C266.168 104.852 271.895 104.288 277.099 102.132C282.303 99.9763 286.751 96.326 289.88 91.6425C293.01 86.959 294.68 81.4527 294.68 75.8198C294.669 68.2697 291.666 61.0319 286.327 55.6931C280.988 50.3544 273.75 47.3504 266.2 47.3398ZM278.2 100.06C270.416 83.9586 259.645 69.4821 246.46 57.3998C249.154 54.4877 252.456 52.2049 256.132 50.7139C259.808 49.2228 263.768 48.5601 267.729 48.7729C271.69 48.9857 275.556 50.0687 279.051 51.945C282.546 53.8213 285.585 56.4447 287.951 59.6286C290.318 62.8125 291.953 66.4788 292.742 70.3665C293.53 74.2543 293.453 78.2681 292.514 82.1224C291.575 85.9767 289.799 89.5768 287.311 92.6667C284.823 95.7566 281.685 98.2604 278.12 99.9998L278.2 100.06Z" fill="white"/>
<path d="M123.5 132.52C123.483 132.427 123.448 132.337 123.397 132.258C123.345 132.178 123.279 132.109 123.201 132.055C123.122 132.001 123.035 131.963 122.942 131.944C122.849 131.924 122.753 131.923 122.66 131.94L120 132.4C119.392 129.074 118.116 125.907 116.249 123.088C114.383 120.269 111.964 117.858 109.14 116C111.134 113.315 112.569 110.257 113.359 107.007C114.15 103.756 114.279 100.381 113.74 97.0799L116.42 96.6199C116.611 96.581 116.78 96.47 116.892 96.3099C117.004 96.1498 117.05 95.9529 117.02 95.7599C116.981 95.5698 116.869 95.4024 116.709 95.294C116.548 95.1855 116.351 95.1445 116.16 95.1799L93.3 99.1799C93.1091 99.1958 92.9322 99.2869 92.8085 99.4332C92.6847 99.5795 92.6241 99.7689 92.64 99.9599C92.6559 100.151 92.747 100.328 92.8933 100.451C93.0396 100.575 93.2291 100.636 93.42 100.62L96.26 100.12C96.8806 103.404 98.1545 106.531 100.006 109.314C101.858 112.096 104.25 114.479 107.04 116.32C105.022 119.031 103.573 122.123 102.783 125.409C101.992 128.695 101.876 132.107 102.44 135.44L99.78 136C99.5887 136.039 99.4196 136.15 99.3079 136.31C99.1962 136.47 99.1504 136.667 99.18 136.86C99.2187 137.05 99.3305 137.217 99.4914 137.326C99.6522 137.434 99.8492 137.475 100.04 137.44L122.92 133.44C123.022 133.424 123.119 133.387 123.206 133.33C123.292 133.274 123.365 133.199 123.42 133.112C123.475 133.025 123.51 132.927 123.524 132.825C123.538 132.723 123.53 132.619 123.5 132.52ZM97.7 99.9999L112.32 97.4199C112.819 100.525 112.694 103.699 111.952 106.755C111.211 109.811 109.867 112.689 108 115.22C105.347 113.507 103.068 111.276 101.298 108.66C99.5278 106.045 98.3041 103.099 97.7 99.9999ZM108.26 117.24C110.935 118.987 113.226 121.26 114.994 123.922C116.761 126.583 117.968 129.577 118.54 132.72L103.88 135.3C103.335 132.141 103.443 128.903 104.196 125.787C104.95 122.671 106.333 119.742 108.26 117.18V117.24Z" fill="white"/>
<path d="M339.46 183.48C339.269 183.496 339.08 183.435 338.933 183.312C338.787 183.188 338.696 183.011 338.68 182.82C338.664 182.629 338.725 182.44 338.848 182.293C338.972 182.147 339.149 182.056 339.34 182.04L349.48 180.24C349.575 180.223 349.672 180.225 349.766 180.246C349.86 180.267 349.948 180.307 350.027 180.363C350.105 180.419 350.171 180.49 350.222 180.572C350.272 180.654 350.306 180.745 350.32 180.84C350.34 180.934 350.341 181.03 350.322 181.124C350.304 181.218 350.266 181.307 350.212 181.386C350.157 181.464 350.088 181.531 350.006 181.582C349.925 181.632 349.835 181.666 349.74 181.68C340 183.4 339.66 183.48 339.46 183.48Z" fill="white"/>
<path d="M367.6 178.52C367.409 178.539 367.219 178.481 367.07 178.359C366.922 178.237 366.829 178.061 366.81 177.87C366.791 177.679 366.85 177.489 366.971 177.34C367.093 177.192 367.269 177.099 367.46 177.08L377.6 175.28C377.695 175.263 377.792 175.265 377.886 175.286C377.98 175.307 378.068 175.347 378.147 175.403C378.225 175.459 378.291 175.53 378.342 175.612C378.392 175.694 378.426 175.785 378.44 175.88C378.457 175.973 378.456 176.069 378.436 176.162C378.416 176.255 378.379 176.343 378.325 176.421C378.271 176.499 378.202 176.565 378.122 176.617C378.042 176.668 377.953 176.703 377.86 176.72C368 178.48 367.8 178.52 367.6 178.52Z" fill="white"/>
<path d="M357.02 171.1C356.848 171.103 356.681 171.043 356.549 170.933C356.417 170.823 356.329 170.67 356.3 170.5L354.5 160.38C354.47 160.187 354.516 159.99 354.628 159.83C354.74 159.67 354.909 159.559 355.1 159.52C355.291 159.491 355.485 159.538 355.642 159.65C355.799 159.762 355.906 159.93 355.94 160.12L357.72 170.26C357.737 170.363 357.732 170.468 357.705 170.568C357.678 170.668 357.63 170.761 357.563 170.841C357.497 170.921 357.414 170.985 357.32 171.03C357.226 171.075 357.124 171.099 357.02 171.1Z" fill="white"/>
<path d="M362 199.24C361.828 199.242 361.661 199.183 361.529 199.073C361.397 198.963 361.309 198.81 361.28 198.64L359.48 188.5C359.463 188.405 359.465 188.308 359.486 188.214C359.507 188.12 359.547 188.032 359.603 187.953C359.659 187.875 359.73 187.809 359.812 187.758C359.894 187.708 359.985 187.675 360.08 187.66C360.173 187.643 360.269 187.644 360.362 187.664C360.455 187.684 360.543 187.722 360.621 187.775C360.699 187.829 360.765 187.898 360.817 187.978C360.868 188.058 360.903 188.147 360.92 188.24L362.7 198.38C362.721 198.484 362.718 198.591 362.692 198.694C362.667 198.797 362.619 198.892 362.552 198.975C362.485 199.057 362.401 199.123 362.306 199.169C362.21 199.215 362.106 199.239 362 199.24Z" fill="white"/>
<path d="M351.12 174.86C350.78 174.86 351.44 175.26 342.26 168.86C342.104 168.751 341.997 168.584 341.964 168.397C341.93 168.21 341.972 168.016 342.08 167.86C342.134 167.78 342.204 167.711 342.285 167.659C342.366 167.606 342.457 167.57 342.552 167.553C342.647 167.537 342.745 167.539 342.839 167.561C342.933 167.583 343.022 167.623 343.1 167.68L351.54 173.68C351.623 173.776 351.68 173.893 351.703 174.018C351.726 174.143 351.716 174.272 351.674 174.392C351.631 174.512 351.557 174.619 351.46 174.701C351.363 174.783 351.245 174.838 351.12 174.86Z" fill="white"/>
<path d="M374.52 191.24C374.18 191.24 374.84 191.64 365.66 185.24C365.504 185.131 365.397 184.964 365.364 184.777C365.33 184.59 365.372 184.396 365.48 184.24C365.534 184.16 365.604 184.091 365.685 184.039C365.766 183.986 365.857 183.95 365.952 183.933C366.047 183.917 366.145 183.919 366.239 183.941C366.333 183.963 366.422 184.003 366.5 184.06L374.94 190C375.04 190.094 375.111 190.216 375.145 190.35C375.178 190.483 375.172 190.624 375.128 190.755C375.084 190.885 375.003 191 374.895 191.086C374.787 191.172 374.657 191.226 374.52 191.24Z" fill="white"/>
<path d="M363.84 172.62C363.706 172.623 363.574 172.588 363.459 172.52C363.344 172.453 363.25 172.354 363.188 172.236C363.125 172.117 363.097 171.984 363.106 171.85C363.116 171.717 363.162 171.589 363.24 171.48L369.14 163.04C369.256 162.887 369.425 162.783 369.615 162.749C369.804 162.716 369.999 162.755 370.16 162.86C370.24 162.914 370.309 162.984 370.361 163.065C370.414 163.146 370.45 163.237 370.467 163.332C370.483 163.427 370.481 163.525 370.459 163.619C370.437 163.713 370.397 163.802 370.34 163.88L364.44 172.32C364.372 172.415 364.282 172.492 364.177 172.544C364.073 172.596 363.957 172.622 363.84 172.62Z" fill="white"/>
<path d="M347.46 196C347.326 196.003 347.194 195.968 347.079 195.9C346.964 195.832 346.87 195.734 346.808 195.615C346.745 195.497 346.717 195.364 346.726 195.23C346.736 195.097 346.782 194.968 346.86 194.86L352.76 186.42C352.873 186.262 353.043 186.155 353.233 186.122C353.424 186.088 353.62 186.13 353.78 186.24C353.933 186.356 354.037 186.525 354.071 186.714C354.104 186.904 354.065 187.099 353.96 187.26L348 195.72C347.935 195.802 347.853 195.87 347.76 195.918C347.667 195.966 347.565 195.994 347.46 196Z" fill="white"/>
<path d="M97.84 329L83.68 319.1L93.68 304.94C93.7368 304.862 93.7773 304.773 93.799 304.679C93.8207 304.585 93.8233 304.487 93.8065 304.392C93.7897 304.297 93.7539 304.206 93.7012 304.125C93.6486 304.044 93.5802 303.974 93.5 303.92C93.3388 303.816 93.1439 303.776 92.9546 303.809C92.7654 303.843 92.5958 303.947 92.48 304.1L82.48 318.26L68.32 308.26C68.1634 308.152 67.9703 308.11 67.7829 308.144C67.5954 308.177 67.429 308.284 67.32 308.44C67.2632 308.518 67.2228 308.607 67.201 308.701C67.1793 308.796 67.1768 308.893 67.1936 308.988C67.2104 309.083 67.2462 309.174 67.2988 309.255C67.3515 309.336 67.4199 309.406 67.5 309.46L81.66 319.46L71.66 333.6C71.5799 333.759 71.5597 333.941 71.6031 334.114C71.6465 334.286 71.7506 334.438 71.8964 334.54C72.0421 334.642 72.2198 334.688 72.3967 334.669C72.5737 334.651 72.7382 334.57 72.86 334.44L82.86 320.28L97.02 330.28C97.1898 330.389 97.3958 330.426 97.5927 330.383C97.7896 330.339 97.9613 330.22 98.07 330.05C98.1788 329.88 98.2156 329.674 98.1725 329.477C98.1294 329.281 98.0098 329.109 97.84 329Z" fill="white"/>
<path d="M297.24 360.22L299.24 356.58C299.289 356.498 299.32 356.407 299.333 356.312C299.345 356.217 299.338 356.121 299.312 356.029C299.285 355.937 299.241 355.852 299.18 355.778C299.12 355.704 299.045 355.644 298.96 355.6C298.795 355.505 298.6 355.479 298.417 355.528C298.233 355.577 298.076 355.696 297.98 355.86C295.98 359.5 295.14 360.78 294.9 361.32C294.851 361.387 294.816 361.464 294.798 361.546C294.779 361.627 294.778 361.712 294.793 361.794C294.807 361.876 294.839 361.954 294.885 362.024C294.931 362.094 294.99 362.154 295.06 362.2C295.46 362.5 296.66 363.14 300.6 365.38C300.77 365.474 300.97 365.497 301.157 365.445C301.345 365.392 301.504 365.268 301.6 365.1C301.689 364.929 301.709 364.73 301.658 364.544C301.606 364.359 301.485 364.2 301.32 364.1L297.14 361.74C298.919 361.13 300.846 361.1 302.642 361.656C304.439 362.211 306.013 363.322 307.137 364.83C308.262 366.337 308.879 368.162 308.9 370.043C308.92 371.923 308.343 373.762 307.252 375.293C306.16 376.824 304.611 377.97 302.827 378.564C301.043 379.159 299.116 379.172 297.324 378.601C295.533 378.03 293.968 376.905 292.857 375.388C291.745 373.871 291.144 372.04 291.14 370.16C291.135 369.965 291.055 369.78 290.918 369.642C290.78 369.504 290.595 369.425 290.4 369.42C290.207 369.425 290.024 369.505 289.89 369.643C289.755 369.782 289.68 369.967 289.68 370.16C289.69 372.324 290.378 374.43 291.648 376.182C292.918 377.934 294.706 379.244 296.76 379.926C298.813 380.608 301.029 380.629 303.095 379.986C305.161 379.342 306.973 378.066 308.276 376.339C309.579 374.611 310.307 372.518 310.357 370.354C310.408 368.191 309.778 366.066 308.557 364.28C307.336 362.493 305.585 361.134 303.552 360.395C301.518 359.656 299.303 359.574 297.22 360.16L297.24 360.22Z" fill="white"/>
<path d="M390.32 235.14C375.96 228.38 356.18 230.72 339.5 224.7C341.06 221.62 341.94 216.3 339.5 215.08C327.08 205.22 286.44 176.36 275.26 169.38C279.1 168.22 323.04 154.88 334.06 151.88C337.3 151.5 337.36 145.46 337 142.2C342.005 141.624 347.048 141.456 352.08 141.7C352.246 141.724 352.416 141.683 352.553 141.587C352.691 141.49 352.786 141.344 352.82 141.18C359.14 118.76 360.94 92.8799 361.42 82.7999C361.431 82.6628 361.402 82.5255 361.338 82.4041C361.273 82.2828 361.175 82.1826 361.055 82.1152C360.935 82.0479 360.798 82.0164 360.661 82.0243C360.524 82.0322 360.391 82.0792 360.28 82.1599C344.14 93.0599 342.28 109.84 332.4 118.16C331.02 113.94 329.02 111.64 327.16 112.16C248.42 133.66 245.72 135.1 239.46 138.8C232.88 142.68 225.06 153.18 202.12 182.16C201.24 182.46 199.9 182.98 198.12 183.66C198.82 180 200.12 171.46 200.64 166.34C200.648 165.801 200.525 165.268 200.281 164.787C200.037 164.306 199.68 163.892 199.24 163.58C197.6 162.483 195.721 161.797 193.76 161.58C192.98 151.4 190.96 126.54 190.96 121.38C190.96 114.58 196.34 105.56 196.56 105.2C198.04 102.78 198 100.18 197.78 93.9799C197.78 92.5799 197.16 91.6799 196.28 91.5799C194.86 91.3999 193.44 93.3599 192.28 97.1399C191.32 100.26 188.84 102.68 187.44 102.44C186.04 102.2 185.68 100.18 185.76 96.8799C185.9 90.8799 186.9 82.2999 187.1 79.9999C187.3 77.6999 186.72 75.7399 185.48 75.5199C184.24 75.2999 182.88 76.8599 182.1 79.7399C181.58 81.5399 180.66 84.9199 179.88 88.2199C179.72 84.4599 179.7 81.1399 179.66 77.8199C179.66 75.2599 178.84 73.6999 177.66 73.5999C176.48 73.4999 175.2 75.1999 174.7 78.1399C174.3 80.6199 173.86 83.7599 173.52 86.7599C173.1 83.6999 172.92 81.6799 172.72 79.7999C172.3 76.1999 170.92 75.7999 170.28 75.7999C168.9 75.7999 167.98 77.6399 167.76 80.6599C167.62 83.3199 167.54 86.0199 167.52 88.6599C167.2 87.0999 167 86.0199 166.68 84.2999C166.22 81.8399 165.24 80.4999 164.1 80.6199C162.96 80.7399 162.1 82.6199 162.1 85.5399C162.041 90.8416 162.416 96.1392 163.22 101.38C164.16 105.66 168.06 116.82 168.92 119.8C165.26 123.8 165.72 132.08 170.08 134.9C170.08 134.9 170.08 155.2 170.08 159.54C166.32 160.46 165.92 162.22 166.08 163.26C165.94 165.94 165.82 172.58 165.74 176.84C151.94 180.04 124.88 187.2 112.18 184.84C114.266 181.656 115.662 178.071 116.28 174.315C116.897 170.56 116.722 166.716 115.765 163.032C114.808 159.349 113.091 155.906 110.724 152.925C108.357 149.944 105.392 147.492 102.021 145.726C98.6495 143.959 94.9458 142.918 91.1478 142.669C87.3498 142.42 83.5417 142.968 79.9683 144.278C76.3949 145.589 73.1352 147.632 70.3989 150.278C67.6626 152.924 65.5102 156.113 64.08 159.64C62.0477 157.527 59.43 156.07 56.5632 155.456C53.6964 154.842 50.7116 155.099 47.9921 156.195C45.2727 157.29 42.943 159.174 41.3024 161.604C39.6617 164.033 38.785 166.898 38.785 169.83C38.785 172.762 39.6617 175.626 41.3024 178.056C42.943 180.486 45.2727 182.37 47.9921 183.465C50.7116 184.561 53.6964 184.818 56.5632 184.204C59.43 183.59 62.0477 182.133 64.08 180.02C66.6113 186.235 71.3416 191.301 77.3688 194.252C83.396 197.203 90.2985 197.832 96.76 196.02C98.76 206.42 97.02 213.52 95.24 223.66C91.24 246 86.4 273.8 93.24 282.98C100.62 292.98 110.04 291.26 136.06 291.26C139.94 291.48 141.28 285.58 141.38 281.5C148.54 280.16 157.38 278.4 163.56 277.14C171.56 275.5 173.82 272.56 176.4 269.14C177.78 267.3 177.46 267.78 178.86 266C181.16 263.14 182.66 261.44 184.34 262.32C189.48 265.04 198.34 269.24 199.8 266.92C200.14 266.38 200.06 265.48 198.84 264.58C196.36 262.74 194.46 261.22 192.84 259.8C196.04 260.38 206.84 262.1 207.68 258.96C207.84 258.32 207.52 257.42 206.1 256.96L197.6 254.36C200.64 254.46 210.08 254.54 210.4 251.52C210.417 251.184 210.319 250.853 210.123 250.581C209.927 250.308 209.644 250.11 209.32 250.02C220.78 246.6 230.7 234.42 239.1 220.14C245.28 215.94 251.1 211.96 257.26 207.9C266.86 214.16 311.44 243.16 319.48 247.9C322.38 249.62 326.16 245.9 328.12 243.18C330.655 245.791 333.326 248.268 336.12 250.6C338.12 252.06 372.12 244.46 390.38 236.08C390.485 235.942 390.536 235.771 390.525 235.599C390.514 235.426 390.441 235.263 390.32 235.14ZM335.38 117.34C343.68 108.6 346.32 94.1199 359.92 84.1999C359.34 95.0399 357.46 119.12 351.6 140.2C343.995 139.878 336.379 140.482 328.92 142C327.21 135.917 326.157 129.668 325.78 123.36C329.451 122.226 332.761 120.15 335.38 117.34ZM192.88 168.1C185.714 168.508 178.528 167.8 171.58 166C171.58 162.3 171.58 135.68 171.58 135.68C173.072 136.135 174.674 136.072 176.127 135.502C177.579 134.932 178.796 133.888 179.58 132.54C183.122 132.652 186.655 132.11 190 130.94C190.82 142 192.5 162.4 192.88 168.1ZM164.7 101.14C163.919 95.9978 163.557 90.8006 163.62 85.5999C163.479 84.4019 163.702 83.1892 164.26 82.1199C164.4 82.1199 164.94 82.7199 165.3 84.6399C167.52 96.4199 167.6 93.6999 167.76 97.0599C167.789 97.2328 167.878 97.3898 168.012 97.5031C168.145 97.6165 168.315 97.6786 168.49 97.6786C168.665 97.6786 168.835 97.6165 168.969 97.5031C169.102 97.3898 169.191 97.2328 169.22 97.0599C168.94 91.6568 168.94 86.2429 169.22 80.8399C169.4 78.3199 170.08 77.3999 170.3 77.3599C170.52 77.3199 171.02 77.9199 171.26 80.0399C171.72 84.0399 172.02 87.4599 172.94 92.4799C172.94 93.5399 172.78 94.4799 172.76 95.1599C172.789 95.3328 172.878 95.4898 173.012 95.6031C173.145 95.7164 173.315 95.7786 173.49 95.7786C173.665 95.7786 173.835 95.7164 173.969 95.6031C174.102 95.4898 174.191 95.3328 174.22 95.1599C174.36 91.3999 175.36 83.0399 176.22 78.3999C176.64 75.9199 177.42 75.0799 177.62 75.0799C177.82 75.0799 178.32 75.6999 178.34 77.8599C178.56 94.7599 179 92.6799 178.76 94.4399C178.731 94.6308 178.779 94.8256 178.893 94.9812C179.008 95.1369 179.179 95.2407 179.37 95.2699C179.561 95.2991 179.756 95.2512 179.911 95.1368C180.067 95.0224 180.171 94.8508 180.2 94.6599C181.067 89.7578 182.215 84.9098 183.64 80.1399C184.36 77.5199 185.22 76.9799 185.36 76.9799C185.5 76.9799 185.98 77.6999 185.78 79.8999C185.58 82.0999 184.58 90.6199 184.44 96.8599C184.3 102.28 185.96 103.68 187.36 103.9C189.9 104.3 192.8 100.9 193.8 97.5799C194.94 93.8799 196 93.0599 196.18 93.0199C196.377 93.3294 196.468 93.6942 196.44 94.0599C196.66 99.9399 196.7 102.4 195.44 104.46C192.72 108.98 189.56 116.22 189.62 121.72C186.659 122.781 183.545 123.355 180.4 123.42C178.54 117.74 173.44 116.74 170.22 118.86C169.12 115.36 165.54 104.94 164.7 101.14ZM173.52 119.26C181.06 119.12 181.96 134.5 173.52 134.5C166 134.48 166.16 119.42 173.52 119.26ZM92.26 181.26C91.6 180.54 91.02 180.2 90.56 180.24C85.6 180.56 84.36 176.24 89.24 177.12C90.44 177.36 90.98 176.92 91.24 176.52C92.02 175.22 90.3 172.52 88.5 170.18C92.0117 168.167 95.2118 165.654 98 162.72C106.62 169.84 111.14 176.24 109.84 179.5C109 181.64 105.62 182.56 100.06 182.16C99.892 182.141 99.7229 182.183 99.5822 182.276C99.4415 182.37 99.3383 182.51 99.2906 182.672C99.2429 182.835 99.2538 183.008 99.3214 183.163C99.3889 183.318 99.5088 183.444 99.66 183.52C104.82 186.24 114.3 186.92 118.46 186.92C120.26 186.92 122.16 186.92 124.16 186.66C121.68 197.68 112.46 207.2 98.66 213.02C99.4025 207.103 99.1796 201.105 98 195.26C98 195.26 98 195.26 98 195.12C97.1956 190.097 95.2301 185.33 92.26 181.2V181.26ZM94.38 282.42C86.52 271.82 95.88 230.22 98.38 214.74C113.28 208.74 123.18 198.46 125.66 186.56C136.7 185.38 152.24 181.6 165.76 178.56C165.76 179.56 165.76 180.32 165.76 180.56C165.757 180.656 165.774 180.752 165.809 180.842C165.844 180.931 165.897 181.013 165.964 181.082C166.031 181.151 166.111 181.206 166.2 181.243C166.288 181.281 166.384 181.3 166.48 181.3C166.673 181.3 166.858 181.225 166.996 181.09C167.135 180.956 167.215 180.773 167.22 180.58C167.22 179.06 167.36 170.4 167.5 165.56C169.78 167.42 174.8 168.74 182.12 169.38C186.4 169.74 195.3 170.28 199.1 168.26C198.42 173.94 197.1 181.88 196.66 184.26C188.24 187.64 174.08 193.6 168.18 196.26C144.46 185.14 139.42 186.92 128.7 188.96C128.607 188.977 128.518 189.012 128.438 189.063C128.358 189.115 128.289 189.181 128.235 189.259C128.182 189.337 128.144 189.425 128.124 189.518C128.104 189.611 128.103 189.707 128.12 189.8C128.137 189.895 128.172 189.986 128.225 190.068C128.278 190.149 128.346 190.219 128.427 190.273C128.507 190.327 128.597 190.364 128.692 190.383C128.788 190.401 128.885 190.4 128.98 190.38C139.34 188.38 144.22 186.62 167.58 197.6C170 205.04 168.26 221.36 160.02 229.84C155.58 231.08 150.78 232.24 146.02 233.3C141.118 232.178 136.331 230.605 131.72 228.6C131.94 228.14 132.18 227.68 132.4 227.24C132.445 227.156 132.472 227.064 132.481 226.969C132.491 226.874 132.481 226.779 132.453 226.688C132.425 226.597 132.38 226.512 132.319 226.439C132.258 226.365 132.184 226.305 132.1 226.26C132.016 226.215 131.924 226.188 131.829 226.178C131.735 226.169 131.639 226.179 131.548 226.207C131.457 226.235 131.372 226.28 131.299 226.341C131.225 226.401 131.165 226.476 131.12 226.56C126.551 235.749 122.868 245.352 120.12 255.24C116.9 255.82 113.92 256.34 111.88 256.66C111.749 256.724 111.64 256.826 111.569 256.953C111.497 257.08 111.466 257.226 111.479 257.371C111.492 257.516 111.548 257.654 111.642 257.767C111.735 257.879 111.86 257.96 112 258C112.42 258 127.48 255.3 131.7 254.62C130.08 256.92 128.62 261.94 129.16 272.76C129.4 277.56 130.24 286.38 133.42 289.96C109.8 290.14 101.12 291.42 94.38 282.36V282.42ZM166.86 252.56C165.325 253.576 163.698 254.447 162 255.16C160.22 255.44 148.7 256.72 139.18 257.52C138.66 254.82 136.94 252.48 134.24 252.84C131.54 253.2 126.48 254.1 121.74 254.84C123.305 249.239 125.202 243.736 127.42 238.36C137.8 236.48 149.88 234.08 160.1 231.2C163.333 236.326 167.325 240.932 171.94 244.86C170.46 247.542 168.761 250.098 166.86 252.5V252.56ZM177.32 237.24C177.32 237.24 178.62 238.48 176.86 246.46C174.72 247.7 172.38 249.14 170.18 250.46C175.38 242.92 176.4 238 177.32 237.18V237.24ZM191.8 252.86C190.62 252.44 189.5 252.04 188.48 251.64C188.391 251.605 188.296 251.588 188.2 251.59C188.104 251.592 188.009 251.613 187.922 251.652C187.834 251.691 187.755 251.747 187.69 251.817C187.624 251.888 187.573 251.97 187.54 252.06C187.504 252.148 187.486 252.242 187.487 252.337C187.488 252.432 187.507 252.526 187.544 252.613C187.582 252.7 187.636 252.78 187.704 252.846C187.771 252.912 187.852 252.965 187.94 253C192.72 254.88 199.66 256.84 205.58 258.68C205.96 258.8 206.14 258.94 206.18 258.9C205.82 259.4 202.18 260.64 190.52 258.2L188.26 256.2C188.114 256.075 187.925 256.014 187.733 256.029C187.542 256.044 187.365 256.134 187.24 256.28C187.115 256.426 187.054 256.615 187.069 256.806C187.084 256.998 187.174 257.175 187.32 257.3C191.32 260.7 193.56 262.78 197.96 266.02C198.114 266.138 198.254 266.272 198.38 266.42C197.62 266.52 194.54 266.42 185 261.3C181.74 259.6 179.32 263.46 176.76 266.56C173.08 271.02 172.12 274.16 163.24 275.98C153.8 277.98 137.38 281.1 131.68 281.98C130.266 274.576 130.151 266.983 131.34 259.54C139.7 259.12 158.7 257.18 162.18 256.62C164.68 256.22 180.04 245.32 184.02 244.62C185.08 244.44 199.58 244.78 205.22 244.86C205.605 244.849 205.988 244.924 206.34 245.08C206.34 245.08 205.36 247.18 192.6 247.82C191.04 247.52 189.6 247.24 188.38 246.96C188.192 246.917 187.995 246.95 187.83 247.051C187.666 247.152 187.547 247.313 187.5 247.5C187.463 247.688 187.498 247.883 187.598 248.046C187.698 248.209 187.856 248.328 188.04 248.38C193.46 249.62 202.62 250.96 208.22 251.64C208.62 251.64 208.8 251.78 208.86 251.76C208.52 252.26 204.82 254 191.8 252.8V252.86ZM205.12 249.74C203 249.44 200.72 249.12 198.46 248.76C203.2 248.22 207.86 247.14 207.8 245.04C207.8 244.04 206.72 243.36 205.24 243.36C197.96 243.26 184.96 242.92 183.74 243.16C181.913 243.711 180.165 244.498 178.54 245.5C179.7 239.74 179.42 236.34 177.74 235.84C176.76 235.56 175.74 236.36 175.26 237.84C174.477 239.835 173.582 241.785 172.58 243.68C168.198 239.882 164.398 235.462 161.3 230.56C169.68 221.64 171.44 205.46 169.02 197.46C176.48 194.16 193.34 187.1 200.38 184.38C195.62 190.38 190.2 197.22 184 204.98C183.941 205.055 183.897 205.141 183.871 205.232C183.845 205.324 183.838 205.42 183.849 205.515C183.86 205.609 183.89 205.701 183.936 205.784C183.983 205.868 184.045 205.941 184.12 206C184.195 206.059 184.281 206.103 184.372 206.129C184.464 206.155 184.56 206.162 184.655 206.151C184.75 206.14 184.841 206.11 184.924 206.064C185.008 206.017 185.081 205.955 185.14 205.88C225.56 155.16 233.28 144.14 240.22 140C246.22 136.5 249.44 135.36 325.22 114.18C323.9 117.3 323.92 123.7 325.22 132.44C326 137.28 328.06 147.68 331.7 150.96C320.6 154.04 265.42 170.78 260.84 172.14C260.74 172.171 260.647 172.223 260.568 172.292C260.489 172.361 260.425 172.445 260.38 172.54C249.52 196 230.74 246.76 205.12 249.68V249.74ZM318.12 245.74C306.26 238.36 265.68 211.94 257.56 206.64C257.442 206.561 257.302 206.519 257.16 206.519C257.018 206.519 256.878 206.561 256.76 206.64L252.34 209.58C254.34 202.22 256.78 187.58 257.98 181.58C259.28 178.66 260.52 175.9 261.66 173.44L273.4 170C282.06 175.14 323.04 204.18 337.16 215.14C332.26 216.7 326.98 224.14 324.32 228.52C319.32 236.7 317.66 242.56 318.12 245.78V245.74ZM336.68 249.6C331.38 245.6 330.68 242.16 321.28 237.46C323.654 231.913 326.799 226.729 330.62 222.06C348.32 232.84 371.84 228.92 388.22 235.76C375.12 241.5 349.8 248.74 336.68 249.64V249.6Z" fill="white"/>
</svg>
