<svg width="400" height="400" viewBox="0 0 400 400" fill="none" xmlns="http://www.w3.org/2000/svg">
<path d="M83.756 261.956C70.5525 233.889 68.0202 201.975 76.6323 172.177C85.2444 142.379 104.412 116.736 130.552 100.041C156.693 83.345 188.019 76.7386 218.675 81.456C249.332 86.1734 277.222 101.892 297.134 125.674C297.198 125.751 297.229 125.849 297.221 125.949C297.212 126.048 297.164 126.14 297.088 126.204C297.012 126.268 296.913 126.3 296.813 126.291C296.714 126.282 296.622 126.235 296.558 126.158C276.756 102.536 249.034 86.9281 218.567 82.2491C188.1 77.57 156.971 84.1395 130.994 100.731C105.016 117.323 85.9646 142.802 77.3972 172.411C68.8297 202.021 71.3317 233.736 84.436 261.636C84.4744 261.726 84.4764 261.827 84.4418 261.918C84.4072 262.009 84.3386 262.083 84.2505 262.124C84.1623 262.166 84.0615 262.172 83.9693 262.14C83.877 262.109 83.8006 262.043 83.756 261.956Z" fill="white"/>
<path d="M270.722 45.5705C271.846 52.8111 273.612 59.9372 276 66.8645C282.486 85.7645 296.14 107.464 304.37 127.602C304.415 127.729 304.411 127.868 304.357 127.991C304.303 128.113 304.205 128.211 304.081 128.264C303.958 128.317 303.819 128.32 303.693 128.274C303.567 128.227 303.464 128.135 303.404 128.014C297.604 115.296 289.024 101.126 282.24 88.5485C276.597 78.704 272.101 68.245 268.84 57.3765C267.743 53.707 266.845 49.9809 266.15 46.2145C266.101 45.9109 266.113 45.6006 266.186 45.3017C266.258 45.0029 266.39 44.7215 266.572 44.474C266.755 44.2266 266.985 44.0181 267.249 43.8606C267.513 43.7032 267.806 43.6 268.11 43.5572C268.415 43.5144 268.725 43.5327 269.022 43.6112C269.32 43.6896 269.598 43.8266 269.842 44.0141C270.086 44.2015 270.29 44.4357 270.442 44.703C270.594 44.9703 270.691 45.2652 270.728 45.5705H270.722Z" fill="white"/>
<path d="M234.282 204.534C233.84 199.449 232.295 194.52 229.753 190.093C227.212 185.666 223.735 181.846 219.566 178.9C219.484 178.845 219.384 178.823 219.287 178.841C219.19 178.858 219.104 178.913 219.047 178.994C218.99 179.074 218.967 179.174 218.983 179.272C218.999 179.369 219.052 179.456 219.132 179.514L219.362 179.678C219.478 184.2 219.704 192.772 219.984 198.79C223.843 197.761 227.715 196.782 231.6 195.852C234.316 203.308 234.37 211.474 231.754 218.965C229.138 226.457 224.013 232.814 217.247 236.959C210.48 241.104 202.489 242.782 194.626 241.709C186.764 240.637 179.515 236.879 174.106 231.072C170.524 220.37 173.438 207.706 177.996 202.6L173.644 184.64L173.816 184.44C173.88 184.366 173.913 184.27 173.907 184.172C173.901 184.074 173.858 183.982 173.785 183.916C173.712 183.85 173.617 183.815 173.519 183.818C173.421 183.822 173.328 183.863 173.26 183.934C169.329 188.254 166.537 193.486 165.135 199.155C163.733 204.825 163.766 210.755 165.231 216.409C166.695 222.063 169.546 227.263 173.524 231.539C177.502 235.815 182.484 239.032 188.017 240.9C193.551 242.769 199.463 243.228 205.219 242.239C210.975 241.249 216.394 238.84 220.986 235.231C225.578 231.622 229.198 226.925 231.519 221.566C233.841 216.206 234.79 210.353 234.282 204.534Z" fill="white"/>
<path d="M86.312 267.08C86.2726 266.993 86.268 266.894 86.2991 266.803C86.3302 266.713 86.3947 266.637 86.4794 266.593C86.5641 266.548 86.6626 266.537 86.7549 266.563C86.8472 266.588 86.9262 266.648 86.976 266.73C94.9603 281.879 105.927 295.255 119.216 306.054C132.505 316.854 147.842 324.853 164.303 329.57C180.764 334.288 198.01 335.626 215.001 333.504C231.993 331.382 248.38 325.844 263.176 317.224C263.262 317.174 263.365 317.16 263.461 317.185C263.558 317.21 263.641 317.273 263.691 317.359C263.741 317.445 263.755 317.548 263.73 317.644C263.705 317.741 263.642 317.824 263.556 317.874C248.672 326.545 232.188 332.114 215.096 334.248C198.003 336.382 180.656 335.036 164.098 330.291C147.539 325.545 132.112 317.499 118.744 306.636C105.376 295.773 94.3441 282.318 86.312 267.08Z" fill="white"/>
<path d="M199.2 289C186.627 288.97 174.231 286.032 162.982 280.416C151.733 274.799 141.936 266.656 134.356 256.624C126.777 246.591 121.622 234.942 119.294 222.586C116.965 210.23 117.526 197.503 120.934 185.4C120.964 185.309 121.029 185.232 121.114 185.186C121.199 185.141 121.298 185.13 121.391 185.155C121.484 185.181 121.564 185.242 121.614 185.324C121.663 185.407 121.679 185.506 121.658 185.6C117.977 198.61 117.627 212.337 120.639 225.518C123.651 238.699 129.929 250.912 138.895 261.032C147.861 271.152 159.228 278.855 171.951 283.433C184.673 288.011 198.342 289.316 211.701 287.229C225.06 285.143 237.679 279.73 248.399 271.49C259.119 263.251 267.595 252.448 273.048 240.075C278.501 227.702 280.755 214.157 279.603 200.686C278.452 187.214 273.931 174.248 266.458 162.98C266.407 162.897 266.389 162.798 266.41 162.702C266.431 162.607 266.488 162.523 266.57 162.469C266.651 162.415 266.75 162.395 266.846 162.413C266.942 162.43 267.027 162.485 267.084 162.564C275.228 174.834 279.892 189.082 280.579 203.793C281.265 218.503 277.949 233.124 270.983 246.099C264.017 259.074 253.662 269.916 241.021 277.471C228.38 285.026 213.926 289.01 199.2 289Z" fill="white"/>
<path d="M244.542 140.8C231.996 132.363 217.348 127.585 202.24 127C202.191 126.999 202.142 126.987 202.097 126.967C202.052 126.946 202.012 126.917 201.978 126.881C201.944 126.845 201.918 126.802 201.901 126.756C201.883 126.71 201.875 126.661 201.877 126.611C201.879 126.562 201.89 126.513 201.911 126.468C201.931 126.423 201.96 126.383 201.996 126.349C202.032 126.316 202.075 126.289 202.121 126.272C202.167 126.255 202.217 126.247 202.266 126.248C217.447 126.792 232.169 131.592 244.754 140.098C244.828 140.14 244.886 140.206 244.917 140.286C244.949 140.365 244.953 140.452 244.928 140.534C244.904 140.615 244.852 140.686 244.782 140.735C244.712 140.783 244.627 140.806 244.542 140.8Z" fill="white"/>
<path d="M146.664 146.352C146.587 146.353 146.512 146.329 146.448 146.286C146.385 146.242 146.336 146.179 146.31 146.107C146.283 146.035 146.279 145.956 146.298 145.882C146.318 145.807 146.359 145.74 146.418 145.69C155.685 137.782 166.607 132.052 178.38 128.92C178.477 128.894 178.58 128.907 178.667 128.956C178.754 129.006 178.817 129.088 178.844 129.184C178.871 129.281 178.858 129.384 178.808 129.471C178.759 129.558 178.677 129.622 178.58 129.648C166.854 132.83 155.962 138.53 146.664 146.352Z" fill="white"/>
<path d="M270.4 188.338C253.413 190.887 236.582 194.38 219.984 198.8L219.884 196.634L178.028 202.732L178 202.6C172.464 208.8 169.352 226.152 177.354 237.6C181.023 242.721 186.531 246.224 192.724 247.376C210.408 251.442 240.524 240.928 255.632 235.018C254.812 249.324 254.144 268.474 252.952 289.618C263.425 293.606 274.859 294.333 285.752 291.704C288.996 266.132 292.2 237.304 293.282 208.872C293.4 205.938 292.869 203.013 291.727 200.308C290.584 197.602 288.858 195.183 286.673 193.221C284.487 191.26 281.895 189.805 279.082 188.961C276.269 188.117 273.305 187.904 270.4 188.338V188.338Z" fill="#B2BEC3"/>
<path d="M214.73 252.734L204.256 293.922C203.516 296.852 202.165 299.593 200.291 301.964C198.418 304.335 196.064 306.283 193.385 307.681C190.705 309.078 187.76 309.894 184.744 310.073C181.727 310.253 178.706 309.792 175.88 308.722L116.142 286.1C116.838 272.33 119.996 261.868 129.604 252.03L171.688 266.45L177.35 237.6C181.019 242.721 186.527 246.224 192.72 247.376L214.73 252.734Z" fill="#B2BEC3"/>
<path d="M308.756 152C307.572 172.726 300.78 201.476 298.518 220.482C297.618 227.924 297.947 235.463 299.492 242.798C299.556 243.046 299.57 243.303 299.535 243.556C299.499 243.809 299.414 244.052 299.284 244.272C299.154 244.492 298.983 244.684 298.779 244.838C298.575 244.992 298.342 245.104 298.095 245.167C297.848 245.231 297.59 245.246 297.337 245.21C297.085 245.174 296.841 245.089 296.621 244.96C296.401 244.83 296.209 244.658 296.055 244.454C295.902 244.25 295.79 244.018 295.726 243.77C294.293 235.95 294.171 227.947 295.364 220.086C298.214 201.086 305.9 172.444 307.708 151.924C307.724 151.79 307.792 151.668 307.896 151.582C308 151.496 308.133 151.454 308.268 151.463C308.403 151.473 308.529 151.534 308.62 151.634C308.71 151.734 308.759 151.865 308.756 152Z" fill="white"/>
<path d="M141.762 147.016L102.182 117.866L90.936 84.1504C90.866 83.9404 93.696 86.1224 35.078 42.2884C35.0139 42.2404 34.9361 42.2141 34.856 42.2134C34.7758 42.2127 34.6976 42.2376 34.6326 42.2845C34.5677 42.3314 34.5194 42.3978 34.4948 42.474C34.4702 42.5503 34.4706 42.6324 34.496 42.7084L45.6 76.0004L10.4 74.8984C10.3199 74.8958 10.241 74.9188 10.1749 74.9642C10.1088 75.0095 10.059 75.0749 10.0326 75.1506C10.0063 75.2263 10.0048 75.3084 10.0284 75.385C10.0521 75.4616 10.0996 75.5287 10.164 75.5764C68.338 118.688 66.068 117.08 66.27 117.086L101.732 118.468L141.316 147.622C141.396 147.682 141.497 147.706 141.596 147.691C141.694 147.676 141.783 147.623 141.842 147.542C141.901 147.462 141.926 147.361 141.911 147.263C141.896 147.164 141.842 147.076 141.762 147.016ZM30.11 89.4324L64.2 90.4004L82.172 103.842L48.036 102.72L30.11 89.4324ZM71.87 70.7464L82.612 103.228L64.812 89.9064L53.934 57.3324L71.87 70.7464ZM52.87 56.5464L63.736 89.1224L46.448 76.1924L35.6 43.6104L52.87 56.5464ZM49.09 103.498L83.216 104.62L100.67 117.674L66.414 116.34L49.09 103.498Z" fill="white"/>
<path d="M245.588 357.328L235.02 358.238L234.112 347.672C234.104 347.573 234.056 347.481 233.98 347.417C233.903 347.352 233.804 347.321 233.705 347.329C233.606 347.338 233.514 347.386 233.449 347.462C233.385 347.538 233.354 347.637 233.362 347.736L234.272 358.302L223.706 359.212C223.611 359.222 223.523 359.268 223.46 359.341C223.397 359.413 223.364 359.507 223.369 359.603C223.373 359.698 223.413 359.789 223.482 359.856C223.551 359.923 223.642 359.961 223.738 359.962L234.338 359.052L235.248 369.618C235.256 369.718 235.304 369.81 235.38 369.874C235.457 369.939 235.556 369.97 235.655 369.961C235.754 369.953 235.846 369.905 235.911 369.829C235.975 369.753 236.006 369.654 235.998 369.554L235.088 358.988L245.654 358.078C245.753 358.07 245.845 358.022 245.91 357.945C245.974 357.869 246.005 357.77 245.996 357.67C245.987 357.571 245.939 357.479 245.863 357.415C245.786 357.351 245.687 357.32 245.588 357.328Z" fill="white"/>
<path d="M33.684 192.788C32.7204 192.785 31.7717 192.55 30.9181 192.103C30.0645 191.656 29.3312 191.01 28.78 190.22C28.2289 189.429 27.8763 188.518 27.7519 187.562C27.6276 186.607 27.7352 185.636 28.0656 184.73C28.3961 183.825 28.9397 183.013 29.6504 182.362C30.3612 181.712 31.2182 181.242 32.1489 180.993C33.0796 180.743 34.0567 180.722 34.9976 180.93C35.9384 181.138 36.8153 181.569 37.554 182.188C38.4996 182.98 39.1781 184.044 39.4973 185.235C39.8165 186.427 39.7608 187.687 39.3379 188.846C38.9149 190.004 38.1452 191.004 37.1335 191.71C36.1218 192.415 34.9173 192.792 33.684 192.788ZM33.704 181.532C32.6455 181.53 31.6111 181.848 30.7364 182.444C29.8616 183.04 29.1873 183.886 28.802 184.872C28.4166 185.858 28.3381 186.937 28.5767 187.968C28.8153 188.999 29.36 189.934 30.1393 190.651C30.9186 191.367 31.8961 191.831 32.9437 191.982C33.9914 192.133 35.0602 191.964 36.0101 191.497C36.9601 191.031 37.7468 190.288 38.2671 189.366C38.7874 188.444 39.0171 187.387 38.926 186.332C38.8117 185.025 38.2125 183.807 37.2462 182.919C36.28 182.031 35.0164 181.536 33.704 181.532Z" fill="white"/>
<path d="M155.468 45.2522C154.932 44.6822 153.324 42.7482 147.842 36.3002C147.779 36.2241 147.749 36.1265 147.758 36.0283C147.766 35.9301 147.813 35.8392 147.888 35.7752C147.963 35.7113 148.06 35.6793 148.159 35.6862C148.257 35.6931 148.349 35.7384 148.414 35.8122L155.726 44.4122L162.26 30.2602C162.302 30.1695 162.378 30.0992 162.472 30.0647C162.566 30.0302 162.669 30.0343 162.76 30.0762C162.851 30.1181 162.921 30.1944 162.956 30.2881C162.99 30.3819 162.986 30.4855 162.944 30.5762C158.032 41.2102 156.664 44.2822 156.192 45.1542C156 45.4922 155.87 45.6822 155.468 45.2522Z" fill="white"/>
<path d="M389.6 194.988L381.92 195.658C380.105 195.811 378.303 195.24 376.907 194.069C375.511 192.898 374.635 191.222 374.47 189.408C373.804 181.854 373.882 181.72 373.716 181.52C373.665 181.458 373.596 181.414 373.518 181.394C373.44 181.374 373.358 181.379 373.283 181.409C373.209 181.44 373.146 181.493 373.104 181.561C373.062 181.63 373.043 181.71 373.05 181.79L373.72 189.47C373.799 190.37 373.699 191.277 373.427 192.138C373.155 192.999 372.717 193.799 372.136 194.49C371.555 195.182 370.844 195.753 370.043 196.17C369.241 196.587 368.366 196.842 367.466 196.92L359.786 197.59C359.737 197.592 359.688 197.604 359.643 197.625C359.599 197.646 359.558 197.675 359.525 197.712C359.491 197.748 359.465 197.791 359.448 197.837C359.432 197.884 359.424 197.933 359.426 197.982C359.428 198.032 359.44 198.08 359.461 198.125C359.482 198.17 359.511 198.21 359.547 198.243C359.584 198.277 359.626 198.303 359.673 198.32C359.719 198.337 359.769 198.344 359.818 198.342L367.53 197.67C368.43 197.591 369.337 197.691 370.198 197.962C371.06 198.234 371.86 198.673 372.552 199.253C373.244 199.834 373.814 200.546 374.231 201.347C374.648 202.148 374.903 203.024 374.982 203.924L375.652 211.604C375.661 211.704 375.708 211.796 375.784 211.86C375.861 211.924 375.96 211.956 376.059 211.947C376.158 211.939 376.25 211.891 376.315 211.815C376.379 211.738 376.411 211.64 376.402 211.54L375.732 203.86C375.577 202.044 376.147 200.24 377.319 198.843C378.491 197.446 380.168 196.571 381.984 196.408L389.666 195.738C389.715 195.734 389.763 195.72 389.807 195.697C389.851 195.674 389.89 195.643 389.922 195.605C389.953 195.567 389.977 195.523 389.992 195.476C390.007 195.429 390.012 195.379 390.008 195.33C390.004 195.281 389.99 195.233 389.967 195.189C389.944 195.145 389.913 195.106 389.875 195.075C389.837 195.043 389.793 195.019 389.746 195.004C389.699 194.989 389.649 194.984 389.6 194.988ZM375.152 201.53C374.68 200.428 373.956 199.451 373.038 198.68C372.12 197.908 371.033 197.363 369.866 197.088C370.968 196.615 371.943 195.89 372.714 194.972C373.484 194.053 374.029 192.967 374.304 191.8C374.777 192.903 375.503 193.879 376.422 194.65C377.341 195.421 378.428 195.966 379.596 196.24C378.491 196.711 377.513 197.436 376.739 198.354C375.966 199.273 375.42 200.361 375.144 201.53H375.152Z" fill="white"/>
<path d="M195.12 223.246C193.477 221.718 192.449 219.642 192.23 217.408C192.223 217.311 192.255 217.215 192.318 217.14C192.381 217.065 192.471 217.018 192.568 217.009C192.665 216.999 192.763 217.028 192.839 217.088C192.916 217.149 192.965 217.238 192.978 217.334C193.18 219.385 194.124 221.292 195.632 222.696C195.701 222.765 195.74 222.858 195.741 222.955C195.743 223.053 195.707 223.147 195.64 223.218C195.574 223.289 195.483 223.332 195.386 223.337C195.289 223.342 195.194 223.31 195.12 223.246Z" fill="white"/>
<path d="M225.924 220.4L219.65 221.6C219.557 221.617 219.474 221.668 219.417 221.743C219.36 221.818 219.333 221.912 219.342 222.006C219.352 222.1 219.396 222.187 219.466 222.25C219.536 222.313 219.628 222.347 219.722 222.346C219.922 222.346 221.826 221.946 226.066 221.132C226.153 221.103 226.226 221.044 226.272 220.965C226.318 220.886 226.334 220.793 226.316 220.704C226.299 220.614 226.249 220.534 226.177 220.478C226.105 220.422 226.015 220.395 225.924 220.4Z" fill="white"/>
<path d="M209.272 223.6L202.998 224.8C202.905 224.817 202.822 224.868 202.765 224.943C202.708 225.018 202.682 225.112 202.69 225.205C202.699 225.299 202.743 225.386 202.813 225.449C202.883 225.513 202.974 225.547 203.068 225.546C203.268 225.546 205.176 225.146 209.414 224.332C209.501 224.303 209.574 224.244 209.62 224.165C209.666 224.086 209.682 223.994 209.664 223.904C209.647 223.814 209.597 223.734 209.525 223.678C209.453 223.622 209.363 223.595 209.272 223.6Z" fill="white"/>
<path d="M259.228 214L252.954 215.2C252.861 215.217 252.778 215.268 252.721 215.343C252.664 215.418 252.638 215.512 252.646 215.605C252.655 215.699 252.699 215.786 252.769 215.849C252.839 215.912 252.93 215.947 253.024 215.946C253.224 215.946 255.13 215.546 259.37 214.732C259.457 214.703 259.53 214.644 259.576 214.565C259.622 214.486 259.638 214.394 259.62 214.304C259.603 214.214 259.553 214.134 259.481 214.078C259.409 214.022 259.319 213.995 259.228 214Z" fill="white"/>
<path d="M242.576 217.2L236.302 218.4C236.212 218.419 236.131 218.471 236.076 218.545C236.021 218.619 235.996 218.711 236.005 218.803C236.013 218.895 236.055 218.981 236.123 219.044C236.191 219.107 236.28 219.142 236.372 219.144C236.572 219.144 238.478 218.744 242.718 217.93C242.803 217.9 242.874 217.84 242.919 217.762C242.963 217.684 242.979 217.592 242.961 217.504C242.944 217.416 242.896 217.336 242.825 217.28C242.754 217.225 242.666 217.196 242.576 217.2Z" fill="white"/>
<path d="M268.932 215.134C267.087 214.086 264.937 213.708 262.846 214.064C262.75 214.079 262.651 214.056 262.572 214C262.492 213.944 262.437 213.859 262.419 213.764C262.4 213.668 262.42 213.569 262.473 213.487C262.526 213.406 262.609 213.348 262.704 213.326C264.908 212.902 267.19 213.296 269.124 214.434C269.195 214.476 269.251 214.54 269.282 214.617C269.313 214.693 269.318 214.778 269.296 214.858C269.274 214.937 269.226 215.007 269.161 215.057C269.095 215.107 269.015 215.134 268.932 215.134Z" fill="white"/>
<path d="M188.766 278.14C188.313 280.162 187.284 282.008 185.802 283.456C185.736 283.527 185.701 283.62 185.702 283.716C185.703 283.813 185.741 283.905 185.808 283.974C185.876 284.043 185.967 284.084 186.063 284.088C186.16 284.091 186.254 284.058 186.326 283.994C187.912 282.445 189.015 280.468 189.5 278.304C189.511 278.256 189.512 278.206 189.503 278.158C189.495 278.109 189.477 278.062 189.45 278.021C189.397 277.937 189.312 277.877 189.215 277.855C189.118 277.833 189.016 277.851 188.931 277.905C188.847 277.958 188.788 278.043 188.766 278.14Z" fill="white"/>
<path d="M126.52 270.836L120.424 268.926C120.331 268.903 120.232 268.916 120.148 268.963C120.064 269.011 120.001 269.088 119.972 269.18C119.943 269.272 119.95 269.371 119.992 269.458C120.034 269.545 120.108 269.612 120.198 269.646C125.436 271.288 126.198 271.572 126.408 271.572C126.499 271.573 126.586 271.541 126.655 271.483C126.724 271.424 126.77 271.342 126.783 271.253C126.797 271.163 126.778 271.072 126.729 270.995C126.681 270.919 126.607 270.862 126.52 270.836Z" fill="white"/>
<path d="M142.704 275.902L136.6 274C136.505 273.971 136.402 273.98 136.313 274.026C136.225 274.073 136.159 274.152 136.129 274.247C136.099 274.343 136.109 274.446 136.155 274.534C136.201 274.622 136.281 274.689 136.376 274.718C141.612 276.36 142.376 276.644 142.586 276.644C142.682 276.656 142.779 276.629 142.856 276.571C142.934 276.512 142.985 276.426 143.001 276.33C143.016 276.234 142.993 276.136 142.938 276.057C142.883 275.977 142.799 275.922 142.704 275.902Z" fill="white"/>
<path d="M158.886 280.966L152.788 279.058C152.741 279.043 152.691 279.038 152.642 279.043C152.593 279.047 152.545 279.061 152.501 279.084C152.413 279.13 152.347 279.21 152.317 279.305C152.287 279.4 152.297 279.503 152.343 279.592C152.389 279.68 152.469 279.746 152.564 279.776C157.802 281.416 158.564 281.702 158.774 281.702C158.865 281.703 158.952 281.671 159.021 281.612C159.09 281.554 159.136 281.472 159.149 281.383C159.163 281.293 159.144 281.202 159.095 281.125C159.047 281.049 158.973 280.992 158.886 280.966Z" fill="white"/>
<path d="M176.41 286.36C175.778 286.238 175.156 286.074 174.546 285.868L168.972 284.122C168.877 284.092 168.774 284.101 168.685 284.148C168.597 284.194 168.53 284.273 168.5 284.368C168.47 284.464 168.479 284.567 168.525 284.655C168.571 284.744 168.651 284.81 168.746 284.84C172.124 285.9 173.644 286.394 174.346 286.612C175.002 286.819 175.67 286.984 176.346 287.106C176.44 287.106 176.53 287.07 176.598 287.006C176.667 286.943 176.71 286.856 176.718 286.762C176.726 286.669 176.699 286.576 176.642 286.502C176.585 286.427 176.502 286.377 176.41 286.36Z" fill="white"/>
<path d="M167.944 163.104C167.988 163.605 167.83 164.102 167.507 164.486C167.184 164.871 166.721 165.112 166.221 165.155C165.721 165.199 165.223 165.042 164.839 164.718C164.454 164.395 164.214 163.933 164.17 163.432C164.148 163.184 164.176 162.935 164.251 162.698C164.326 162.46 164.447 162.24 164.607 162.05C164.767 161.859 164.963 161.702 165.183 161.588C165.404 161.473 165.645 161.403 165.893 161.381C166.141 161.36 166.39 161.387 166.628 161.462C166.865 161.537 167.085 161.658 167.275 161.818C167.466 161.978 167.623 162.174 167.738 162.395C167.852 162.615 167.922 162.856 167.944 163.104Z" fill="white"/>
<path d="M281.468 138.48C281.497 138.972 281.333 139.456 281.01 139.829C280.688 140.202 280.233 140.435 279.742 140.478C279.251 140.52 278.763 140.37 278.381 140.059C277.999 139.748 277.753 139.3 277.696 138.81C277.667 138.318 277.831 137.835 278.154 137.462C278.476 137.089 278.931 136.856 279.422 136.813C279.913 136.77 280.401 136.921 280.783 137.232C281.165 137.543 281.411 137.991 281.468 138.48Z" fill="white"/>
<path d="M357.858 308.726L338.234 277.136C338.191 277.067 338.126 277.014 338.05 276.985C337.974 276.956 337.89 276.953 337.812 276.975C337.734 276.998 337.665 277.045 337.616 277.11C337.567 277.175 337.54 277.255 337.54 277.336V293.48L309.294 272.326C320.097 253.924 326.122 233.112 326.821 211.785C327.52 190.458 322.869 169.295 313.294 150.226C313.249 150.137 313.171 150.069 313.076 150.038C312.981 150.007 312.878 150.014 312.789 150.059C312.7 150.104 312.632 150.182 312.601 150.277C312.57 150.372 312.577 150.475 312.622 150.564C326.636 178.471 329.877 210.564 321.726 240.71C313.574 270.855 294.601 296.941 268.432 313.982C268.348 314.037 268.29 314.122 268.27 314.22C268.249 314.318 268.268 314.42 268.323 314.503C268.378 314.587 268.463 314.645 268.561 314.666C268.659 314.686 268.76 314.667 268.844 314.612C285.201 303.974 298.905 289.731 308.904 272.976L337.118 294.108L320.826 299.638C320.749 299.664 320.682 299.714 320.635 299.781C320.589 299.849 320.566 299.929 320.569 300.01C320.573 300.092 320.603 300.17 320.654 300.233C320.706 300.296 320.777 300.341 320.856 300.36C360.07 309.872 357.61 309.462 357.836 309.148C357.881 309.088 357.908 309.016 357.911 308.941C357.915 308.865 357.897 308.791 357.858 308.726Z" fill="white"/>
<path d="M273.342 229.2L273.648 222.818C273.647 222.722 273.61 222.63 273.543 222.56C273.477 222.491 273.386 222.45 273.29 222.445C273.194 222.441 273.1 222.473 273.027 222.536C272.954 222.598 272.908 222.687 272.898 222.782L272.592 229.164C272.593 229.26 272.63 229.353 272.697 229.422C272.763 229.491 272.854 229.533 272.95 229.537C273.046 229.542 273.14 229.509 273.213 229.447C273.286 229.384 273.332 229.296 273.342 229.2Z" fill="white"/>
<path d="M270.52 280.368C270.618 280.369 270.712 280.333 270.784 280.266C270.855 280.199 270.898 280.108 270.904 280.01L271.21 273.628C271.214 273.578 271.207 273.528 271.191 273.481C271.175 273.433 271.149 273.39 271.116 273.352C271.082 273.315 271.042 273.285 270.996 273.263C270.951 273.242 270.902 273.23 270.852 273.228C270.752 273.223 270.653 273.258 270.579 273.325C270.504 273.392 270.458 273.486 270.452 273.586L270.144 279.968C270.142 280.019 270.149 280.07 270.167 280.118C270.185 280.166 270.212 280.21 270.247 280.248C270.282 280.285 270.325 280.315 270.371 280.336C270.418 280.356 270.469 280.367 270.52 280.368Z" fill="white"/>
<path d="M271.332 263.432C271.43 263.433 271.524 263.396 271.596 263.33C271.668 263.263 271.711 263.172 271.718 263.074L272.024 256.692C272.029 256.593 271.994 256.495 271.927 256.421C271.859 256.347 271.766 256.303 271.666 256.298C271.566 256.294 271.469 256.329 271.395 256.396C271.321 256.463 271.277 256.557 271.272 256.656L270.966 263.038C270.964 263.088 270.972 263.138 270.989 263.185C271.007 263.232 271.033 263.275 271.067 263.311C271.101 263.348 271.142 263.377 271.188 263.398C271.233 263.419 271.282 263.43 271.332 263.432Z" fill="white"/>
<path d="M272.146 246.494C272.244 246.495 272.337 246.458 272.409 246.391C272.48 246.325 272.523 246.234 272.53 246.136L272.836 239.754C272.841 239.655 272.806 239.557 272.739 239.483C272.671 239.409 272.578 239.365 272.478 239.36C272.378 239.356 272.281 239.391 272.207 239.458C272.133 239.525 272.089 239.619 272.084 239.718L271.778 246.1C271.775 246.201 271.812 246.299 271.881 246.373C271.95 246.447 272.045 246.491 272.146 246.494Z" fill="white"/>
<path d="M191.868 264.4L190.468 270.632C190.453 270.727 190.474 270.824 190.527 270.903C190.581 270.982 190.663 271.038 190.756 271.06C190.849 271.081 190.947 271.066 191.03 271.017C191.112 270.968 191.173 270.89 191.2 270.798L192.6 264.566C192.615 264.472 192.594 264.375 192.541 264.296C192.487 264.216 192.405 264.16 192.312 264.139C192.219 264.118 192.121 264.133 192.038 264.182C191.956 264.23 191.895 264.309 191.868 264.4Z" fill="white"/>
<path d="M311.29 145.36C311.462 145.33 311.634 145.296 311.804 145.26C315.108 144.552 314.766 139.84 311.642 138.96C312.231 138.591 312.691 138.049 312.961 137.409C313.231 136.768 313.297 136.06 313.15 135.381C313.003 134.702 312.65 134.084 312.14 133.612C311.63 133.141 310.987 132.838 310.298 132.744C310.911 132.278 311.347 131.616 311.534 130.868C311.72 130.121 311.645 129.332 311.322 128.632C310.999 127.932 310.447 127.364 309.757 127.021C309.067 126.677 308.281 126.58 307.528 126.744C307.528 126.744 304.728 127.252 303.82 127.434C303.036 125.13 301.62 125.006 297.744 125.434C292.686 125.99 291.91 126.076 290.6 129.196C288.638 133.872 286.744 135.134 285.268 135.62C284.892 134.792 284.492 133.958 284.068 133.116C284.031 133.045 283.973 132.986 283.901 132.95C283.829 132.914 283.747 132.902 283.668 132.916C282.97 133.044 213.754 145.976 205.498 146.734C199.898 147.246 197.076 142.274 196.262 136.734C197.405 136.756 198.535 136.499 199.557 135.987C200.579 135.475 201.461 134.722 202.128 133.794C203.766 131.16 203.288 126.898 200.71 121.126C197.188 109.4 196.814 99.6423 189.248 100.14C181.628 100.644 167.942 115.39 173.558 123.72C178.334 130.818 184.758 134.952 185.534 140.62C185.134 140.654 184.708 140.692 184.258 140.736C183.84 137.818 182.584 137.69 178.898 137.736C174.366 137.794 173.668 137.802 172.23 140.462C171.371 142.341 170.017 143.95 168.312 145.116C167.447 143.505 166.496 141.94 165.464 140.43C165.12 139.992 165.05 140.018 164.664 140.092C163.16 140.378 155.964 142.348 120.212 153.566C110.34 156.664 105.556 162.826 106.28 171.066C106.465 173.192 107.067 175.26 108.051 177.153C109.036 179.046 110.384 180.726 112.019 182.097C113.654 183.468 115.543 184.504 117.578 185.145C119.613 185.785 121.755 186.018 123.88 185.83L172.64 182.098L177.582 202.498C172 208.96 168.946 226.064 176.95 237.672L171.4 265.956C127.752 250.998 129.71 251.588 129.446 251.69C127.759 253.363 126.204 255.163 124.796 257.076C119.764 254.593 114.54 252.519 109.174 250.876C109.085 250.85 108.99 250.857 108.906 250.896C97.706 256.112 81.02 260.782 63.008 273.474C62.9486 273.516 62.9026 273.575 62.8756 273.642C62.8486 273.71 62.8418 273.784 62.856 273.855C62.8702 273.926 62.9047 273.992 62.9555 274.044C63.0063 274.096 63.071 274.132 63.142 274.148C74.6406 276.456 86.3487 277.558 98.076 277.434C104.229 277.21 110.391 277.522 116.49 278.366C116.102 280.994 115.881 283.643 115.828 286.298C115.98 286.498 113.318 285.44 175.746 309.062C178.622 310.149 181.694 310.615 184.762 310.432C187.831 310.248 190.826 309.419 193.552 307.998C196.277 306.577 198.672 304.596 200.579 302.185C202.486 299.774 203.862 296.988 204.618 294.008L216.53 247.156C229.755 244.489 242.705 240.606 255.216 235.556C254.85 242.046 253.216 278.208 252.57 289.576C252.566 289.657 252.588 289.736 252.632 289.803C252.677 289.87 252.741 289.922 252.816 289.95C254.56 290.596 256.311 291.156 258.068 291.632C257.119 297.769 256.693 303.975 256.794 310.184C256.794 310.614 256.752 310.514 257.086 310.876C257.644 311.476 259.286 313.23 264.086 318.962C272.97 329.562 280.832 338.442 292.668 347.26C292.727 347.303 292.796 347.328 292.869 347.333C292.941 347.337 293.014 347.32 293.077 347.285C293.14 347.249 293.192 347.196 293.226 347.132C293.26 347.067 293.274 346.995 293.268 346.922C291.867 335.278 289.263 323.81 285.498 312.702C283.558 306.424 280.88 299.604 280.476 293.058C282.267 292.809 284.055 292.472 285.842 292.048C285.916 292.03 285.983 291.99 286.034 291.934C286.085 291.877 286.118 291.806 286.128 291.73C289.042 268.75 292.528 238.566 293.66 208.866C293.779 205.877 293.237 202.899 292.073 200.143C290.909 197.388 289.151 194.923 286.924 192.925C284.698 190.928 282.058 189.446 279.193 188.585C276.328 187.725 273.309 187.507 270.35 187.948C253.506 190.477 236.815 193.929 220.35 198.29C220.35 198.29 219.59 173.336 219.55 171.626C291.604 158.694 288.58 159.322 288.76 159.104C289.02 157.914 289.187 156.705 289.26 155.488C292.86 154.838 300.966 153.668 306.198 152.74C308.198 152.388 310.998 151.74 311.664 151.622C315 151.024 314.59 146.07 311.29 145.36ZM71.854 274.986C69.11 274.586 66.576 274.138 64.142 273.61C81.73 261.4 98.03 256.772 109.094 251.648C111.188 252.288 113.264 252.996 115.272 253.756C105.51 257.986 88.3 263.652 71.854 274.986ZM311.654 144.524C309.682 144.948 307.42 145.002 303.49 145.384C299.658 145.758 298.69 141.316 302.362 140.696C304.458 140.342 309.974 139.574 310.59 139.574C313.776 139.574 314.4 143.934 311.644 144.524H311.654ZM310.782 138.476C308.76 138.964 306.532 139.076 302.51 139.56C302.001 139.686 301.465 139.637 300.988 139.422C300.51 139.207 300.118 138.837 299.876 138.372C299.689 137.973 299.603 137.534 299.624 137.094C299.646 136.654 299.775 136.225 300 135.846C302.4 139.418 305.444 138.166 305.14 135.79L304.92 134.038C305.542 133.952 308.268 133.622 309.082 133.498C312.8 132.926 313.664 137.78 310.772 138.476H310.782ZM307.676 127.486C311.1 126.854 312.05 131.594 309.352 132.342C307.859 132.716 306.343 132.988 304.814 133.158C304.646 131.479 304.388 129.81 304.04 128.158C305.04 127.966 305.6 127.868 307.666 127.486H307.676ZM185.232 130.526C184.738 129.63 184.432 129.434 184.232 129.364C177.34 126.874 179.184 120.764 182.804 123.024C184.06 123.808 184.852 124.024 185.372 123.738C185.948 123.416 185.94 122.664 185.87 122.05C185.168 115.762 190.692 103.432 198.514 118.344C202.74 126.444 205.226 135.418 196.158 135.988C194.677 136.061 193.193 135.946 191.742 135.644C191.236 135.524 191.068 135.994 191.304 136.244L196.388 140.52C197.06 142.765 198.426 144.739 200.288 146.16C197.805 147.973 194.721 148.766 191.672 148.374C191.589 147.829 191.363 147.316 191.015 146.888C190.668 146.459 190.212 146.132 189.696 145.938C190.23 145.534 190.616 144.965 190.796 144.32C190.976 143.674 190.939 142.988 190.691 142.365C190.443 141.743 189.998 141.219 189.424 140.874C188.85 140.528 188.178 140.381 187.512 140.454L186.42 140.546C187.032 137.888 186.69 135.036 185.222 130.526H185.232ZM172.902 140.814C174.13 138.542 174.402 138.54 178.98 138.482C182.58 138.442 183.272 138.516 183.58 141.186C183.595 141.281 183.644 141.368 183.717 141.43C183.79 141.492 183.884 141.525 183.98 141.524C184.964 141.422 187.58 141.202 187.58 141.202C190.6 140.944 191.024 145.126 188.634 145.546C188.328 145.598 188.018 145.644 187.696 145.68C187.226 145.734 187.2 146.532 187.742 146.498C187.794 146.498 188.05 146.498 188.22 146.478C191.484 146.29 191.858 150.57 189.282 150.932C188.282 151.066 187.824 151.046 187.576 151.082C187.483 151.095 187.398 151.143 187.339 151.215C187.279 151.287 187.248 151.379 187.253 151.473C187.257 151.566 187.297 151.655 187.363 151.721C187.429 151.787 187.518 151.826 187.612 151.83L188.44 151.808C191.658 151.702 191.928 155.904 189.4 156.196C188.948 156.248 188.494 156.274 188.012 156.29C187.91 156.289 187.811 156.328 187.738 156.4C187.664 156.471 187.622 156.569 187.621 156.671C187.62 156.774 187.659 156.872 187.73 156.946C187.802 157.019 187.9 157.061 188.002 157.062C191.07 157.062 191.28 161.082 188.83 161.296C185.63 161.578 181.79 162.084 176.108 162.384C174.884 162.45 173.66 162.528 172.472 162.604C172.558 156.775 171.256 151.009 168.672 145.782C170.511 144.548 171.971 142.828 172.892 140.814H172.902ZM164.866 140.878C170.378 148.56 172.714 158.071 171.388 167.432L159.642 171.046C161.018 160.412 158.68 151.502 152.69 144.552L164.866 140.878ZM175.898 192.302C177.202 185.06 177.678 182.568 177.806 181.668C177.91 180.946 177.754 180.956 177.286 180.95C175.442 180.928 166.532 181.508 123.822 185.074C119.732 185.425 115.669 184.14 112.524 181.502C109.379 178.863 107.407 175.085 107.042 170.996C106.354 163.146 110.988 157.364 120.442 154.28L151.89 144.8C157.96 151.692 160.29 160.6 158.84 171.3L128.324 180.7C128.239 180.728 128.166 180.784 128.119 180.86C128.072 180.936 128.054 181.027 128.067 181.115C128.081 181.203 128.125 181.284 128.193 181.343C128.26 181.401 128.347 181.434 128.436 181.434C128.61 181.434 171.836 168.098 171.906 168.064C171.948 168.041 171.985 168.01 172.015 167.973C172.045 167.935 172.067 167.892 172.08 167.846C172.288 166.365 172.411 164.872 172.448 163.376C181.822 162.776 184.81 162.56 185.88 162.448C188.734 162.154 190.08 162.13 190.838 160.904C191.218 160.241 191.336 159.46 191.168 158.714C191.001 157.968 190.561 157.312 189.934 156.874C190.472 156.67 190.938 156.313 191.277 155.848C191.615 155.382 191.811 154.828 191.84 154.254C191.869 153.679 191.73 153.108 191.44 152.611C191.151 152.114 190.722 151.712 190.208 151.454C190.643 151.243 191.011 150.917 191.275 150.512C191.538 150.107 191.687 149.637 191.704 149.154C194.274 149.47 196.879 148.988 199.166 147.772C206.314 166.106 207.27 180.23 207.786 198.05L178.31 202.32L175.898 192.302ZM203.898 293.83C203.169 296.708 201.841 299.399 200 301.727C198.159 304.056 195.847 305.969 193.216 307.342C190.584 308.715 187.692 309.516 184.729 309.693C181.766 309.87 178.799 309.42 176.022 308.37L116.532 285.846C117.256 272.236 120.476 262.002 129.708 252.462C174.618 267.852 171.652 266.906 171.876 266.776C172.1 266.646 171.676 268.466 177.554 238.51C181.284 243.325 186.649 246.606 192.634 247.734C192.818 247.774 193.784 248.008 195.472 248.42L194.194 254.084C194.172 254.182 194.19 254.284 194.243 254.368C194.296 254.453 194.381 254.512 194.478 254.534C194.575 254.556 194.677 254.539 194.762 254.486C194.846 254.432 194.906 254.348 194.928 254.25L196.2 248.6C199.784 249.474 205.946 250.982 214.268 253.012L203.898 293.83ZM290.94 336.23C291.54 339.296 292.088 342.83 292.436 346.168C275.28 333.2 265.932 319.26 257.558 310.294C257.5 307.554 257.558 304.786 257.724 302.048C267.014 312.432 275 324 290.934 336.224L290.94 336.23ZM219.6 198.506C216.886 199.23 214.39 199.92 211.978 200.616C211.89 200.649 211.817 200.714 211.774 200.798C211.732 200.882 211.722 200.978 211.747 201.069C211.772 201.16 211.83 201.238 211.91 201.288C211.99 201.337 212.085 201.356 212.178 201.338C231.311 195.88 250.777 191.661 270.454 188.71C273.303 188.286 276.21 188.495 278.969 189.323C281.727 190.152 284.269 191.578 286.413 193.502C288.557 195.426 290.25 197.798 291.371 200.451C292.492 203.105 293.014 205.972 292.9 208.85C291.778 238.41 288.312 268.462 285.406 291.394C280.455 292.558 275.367 293.035 270.286 292.812L270.394 290.566C270.398 290.516 270.391 290.466 270.375 290.419C270.359 290.372 270.333 290.328 270.3 290.291C270.266 290.253 270.226 290.223 270.18 290.202C270.135 290.18 270.086 290.168 270.036 290.166C269.936 290.162 269.838 290.197 269.763 290.264C269.688 290.331 269.643 290.424 269.636 290.524L269.528 292.766C263.99 292.426 258.532 291.275 253.328 289.352C253.962 278.08 255.602 241.828 255.976 235.266C258.302 234.354 260.166 233.606 261.654 232.992C261.7 232.974 261.741 232.946 261.776 232.911C261.811 232.876 261.839 232.835 261.858 232.789C261.877 232.744 261.887 232.695 261.887 232.645C261.887 232.596 261.878 232.547 261.859 232.501C261.84 232.456 261.813 232.414 261.778 232.379C261.743 232.344 261.702 232.316 261.656 232.297C261.61 232.278 261.561 232.268 261.512 232.268C261.463 232.268 261.414 232.278 261.368 232.296C243.768 239.562 212.036 250.982 193.294 247.096C187.004 246.03 181.385 242.535 177.648 237.364C170.048 226.494 172.612 209.536 178.062 203.082L190.626 201.262L191.226 207.23C191.238 207.328 191.288 207.417 191.365 207.479C191.441 207.54 191.539 207.569 191.637 207.559C191.735 207.549 191.825 207.501 191.888 207.425C191.951 207.35 191.982 207.252 191.974 207.154L191.374 201.154L219.518 197.076L219.6 198.506ZM275.912 160.762L233.35 168.4L219.108 166.108C219.053 166.099 218.998 166.102 218.944 166.117C218.891 166.132 218.842 166.159 218.8 166.195C218.758 166.232 218.725 166.277 218.703 166.327C218.681 166.378 218.67 166.433 218.672 166.488L219.494 196.332L208.536 197.92C208.016 180.03 207.044 165.84 199.828 147.374C200.226 147.133 200.607 146.866 200.97 146.574C202.373 147.332 203.972 147.648 205.558 147.482C211.64 146.928 250.436 139.754 271.02 135.996C274.999 143.609 276.696 152.209 275.908 160.762H275.912ZM288.132 158.562L276.684 160.616C277.431 152.068 275.737 143.484 271.8 135.86C278 134.728 282.4 133.918 283.53 133.71C287.946 142.52 289.454 150.658 288.128 158.57L288.132 158.562ZM289.304 154.726C289.522 148.379 288.245 142.069 285.576 136.306C287.888 135.506 289.664 133.376 291.298 129.482C292.436 126.77 292.74 126.738 297.898 126.17C301.63 125.758 302.698 125.642 303.36 128.556C303.686 129.986 303.892 131.938 304.39 135.878C304.668 138.088 300.962 138.576 298.916 131.478C298.886 131.387 298.821 131.31 298.736 131.264C298.651 131.219 298.552 131.208 298.459 131.233C298.366 131.259 298.286 131.32 298.236 131.403C298.187 131.485 298.171 131.584 298.192 131.678C299.926 137.914 297.766 142.11 294.192 144.01C294.108 144.059 294.045 144.138 294.018 144.232C293.991 144.326 294.002 144.426 294.048 144.512C294.093 144.598 294.17 144.663 294.263 144.694C294.356 144.724 294.456 144.717 294.544 144.674C295.695 144.07 296.705 143.229 297.508 142.206C298.311 141.184 298.887 140.002 299.2 138.74C299.393 139.126 299.671 139.462 300.013 139.724C300.355 139.986 300.752 140.167 301.174 140.252C298.104 141.55 298.942 145.758 302.498 146.132C297.866 146.806 298.956 152.484 303.588 152.164C304.504 152.1 305.322 152.054 306.066 152.014C301.142 152.932 294.464 153.81 289.3 154.734L289.304 154.726ZM311.468 150.8C309.52 151.158 307.412 151.142 303.546 151.4C299.842 151.652 299.008 147.366 302.558 146.872C305.34 146.486 307.282 146.306 310.054 146.034C313.582 145.7 314.25 150.294 311.468 150.8Z" fill="white"/>
<path d="M299 208.164L185.496 162.456C184.98 162.51 184.438 162.564 183.874 162.614C302.172 210.256 298.65 208.888 298.85 208.888C298.938 208.89 299.023 208.861 299.092 208.806C299.161 208.751 299.208 208.674 299.226 208.588C299.244 208.502 299.231 208.413 299.19 208.335C299.148 208.258 299.081 208.197 299 208.164Z" fill="white"/>
<path d="M301.184 140.252C300.811 140.172 300.457 140.022 300.14 139.81L190.374 151.532C190.666 151.711 190.925 151.939 191.14 152.206C309.57 139.558 300.226 140.656 301.184 140.252Z" fill="white"/>
<path d="M324.616 137.298L317.816 134.766C317.757 134.744 317.693 134.737 317.63 134.747C317.567 134.756 317.508 134.781 317.457 134.819C317.407 134.857 317.367 134.908 317.341 134.966C317.315 135.024 317.305 135.087 317.31 135.15L317.556 137.95L312.306 138.51C311.47 139.272 311.34 138.694 312.364 139.26L317.62 138.698L317.836 141.164C317.844 141.258 317.888 141.345 317.957 141.409C318.027 141.472 318.118 141.507 318.212 141.506C320.429 140.458 322.582 139.28 324.662 137.98C324.725 137.946 324.777 137.894 324.812 137.831C324.847 137.768 324.863 137.696 324.858 137.625C324.853 137.553 324.828 137.484 324.785 137.426C324.742 137.368 324.683 137.324 324.616 137.298Z" fill="white"/>
<path d="M273.572 66.0224C196.322 130.4 185.48 139.25 184.228 140.494L184.258 140.736C184.54 140.708 184.858 140.678 185.11 140.656L274.054 66.6004C274.092 66.5687 274.123 66.5299 274.146 66.4861C274.169 66.4424 274.183 66.3945 274.188 66.3453C274.192 66.2961 274.187 66.2465 274.172 66.1993C274.158 66.1521 274.134 66.1083 274.102 66.0704C274.07 66.0324 274.032 66.0011 273.988 65.9781C273.944 65.9552 273.896 65.941 273.847 65.9366C273.798 65.9321 273.748 65.9374 273.701 65.9521C273.654 65.9668 273.61 65.9907 273.572 66.0224Z" fill="white"/>
</svg>
