<svg width="400" height="401" viewBox="0 0 400 401" fill="none" xmlns="http://www.w3.org/2000/svg">
<path d="M83.756 262.638C70.5525 234.571 68.0202 202.656 76.6323 172.859C85.2444 143.061 104.412 117.418 130.552 100.722C156.693 84.0264 188.019 77.42 218.675 82.1374C249.332 86.8548 277.222 102.573 297.134 126.356C297.198 126.432 297.229 126.531 297.221 126.63C297.212 126.73 297.164 126.821 297.088 126.886C297.012 126.95 296.913 126.981 296.813 126.972C296.714 126.964 296.622 126.916 296.558 126.84C276.756 103.217 249.034 87.6095 218.567 82.9305C188.1 78.2514 156.971 84.8209 130.994 101.412C105.016 118.004 85.9646 143.483 77.3972 173.093C68.8297 202.702 71.3317 234.418 84.436 262.318C84.4744 262.407 84.4764 262.508 84.4418 262.599C84.4072 262.69 84.3386 262.764 84.2505 262.806C84.1623 262.847 84.0615 262.853 83.9693 262.822C83.877 262.79 83.8006 262.724 83.756 262.638Z" fill="#1890ff"/>
<path d="M270.722 46.2516C271.846 53.4922 273.612 60.6184 276 67.5456C282.486 86.4456 296.14 108.146 304.37 128.284C304.415 128.41 304.411 128.549 304.357 128.672C304.303 128.795 304.205 128.892 304.081 128.945C303.958 128.998 303.819 129.001 303.693 128.955C303.567 128.908 303.464 128.816 303.404 128.696C297.604 115.978 289.024 101.808 282.24 89.2296C276.597 79.3851 272.101 68.9262 268.84 58.0576C267.743 54.3882 266.845 50.6621 266.15 46.8956C266.101 46.592 266.113 46.2817 266.186 45.9829C266.258 45.684 266.39 45.4027 266.572 45.1552C266.755 44.9078 266.985 44.6992 267.249 44.5418C267.513 44.3843 267.806 44.2812 268.11 44.2384C268.415 44.1955 268.725 44.2139 269.022 44.2923C269.32 44.3708 269.598 44.5077 269.842 44.6952C270.086 44.8827 270.29 45.1169 270.442 45.3842C270.594 45.6514 270.691 45.9463 270.728 46.2516H270.722Z" fill="#1890ff"/>
<path d="M234.282 205.216C233.84 200.13 232.295 195.202 229.753 190.774C227.212 186.347 223.735 182.527 219.566 179.582C219.484 179.526 219.384 179.505 219.287 179.522C219.19 179.54 219.104 179.595 219.047 179.675C218.99 179.756 218.967 179.855 218.983 179.953C218.999 180.05 219.052 180.137 219.132 180.196L219.362 180.36C219.478 184.882 219.704 193.454 219.984 199.472C223.843 198.442 227.715 197.463 231.6 196.534C234.316 203.99 234.37 212.155 231.754 219.647C229.138 227.138 224.013 233.495 217.247 237.64C210.48 241.785 202.489 243.463 194.626 242.391C186.764 241.318 179.515 237.56 174.106 231.754C170.524 221.052 173.438 208.388 177.996 203.282L173.644 185.322L173.816 185.122C173.88 185.047 173.913 184.951 173.907 184.853C173.901 184.755 173.858 184.663 173.785 184.597C173.712 184.531 173.617 184.496 173.519 184.5C173.421 184.503 173.328 184.545 173.26 184.616C169.329 188.936 166.537 194.167 165.135 199.837C163.733 205.506 163.766 211.436 165.231 217.09C166.695 222.744 169.546 227.944 173.524 232.22C177.502 236.496 182.484 239.714 188.017 241.582C193.551 243.45 199.463 243.91 205.219 242.92C210.975 241.93 216.394 239.522 220.986 235.912C225.578 232.303 229.198 227.606 231.519 222.247C233.841 216.887 234.79 211.034 234.282 205.216Z" fill="#1890ff"/>
<path d="M86.312 267.762C86.2726 267.674 86.268 267.575 86.2991 267.485C86.3302 267.394 86.3947 267.319 86.4794 267.274C86.5641 267.23 86.6626 267.219 86.7549 267.245C86.8472 267.27 86.9262 267.33 86.976 267.412C94.9603 282.56 105.927 295.937 119.216 306.736C132.505 317.535 147.842 325.535 164.303 330.252C180.764 334.969 198.01 336.307 215.001 334.185C231.993 332.064 248.38 326.526 263.176 317.906C263.262 317.855 263.365 317.841 263.461 317.867C263.558 317.892 263.641 317.954 263.691 318.041C263.741 318.127 263.755 318.23 263.73 318.326C263.705 318.423 263.642 318.505 263.556 318.556C248.672 327.226 232.188 332.796 215.096 334.93C198.003 337.064 180.656 335.717 164.098 330.972C147.539 326.227 132.112 318.181 118.744 307.318C105.376 296.455 94.3441 282.999 86.312 267.762Z" fill="#1890ff"/>
<path d="M199.2 289.682C186.627 289.652 174.231 286.714 162.982 281.097C151.733 275.48 141.936 267.337 134.356 257.305C126.777 247.273 121.622 235.623 119.294 223.267C116.965 210.911 117.526 198.184 120.934 186.082C120.964 185.99 121.029 185.913 121.114 185.868C121.199 185.822 121.298 185.811 121.391 185.837C121.484 185.862 121.564 185.923 121.614 186.006C121.663 186.089 121.679 186.187 121.658 186.282C117.977 199.292 117.627 213.019 120.639 226.2C123.651 239.381 129.929 251.593 138.895 261.713C147.861 271.833 159.228 279.536 171.951 284.114C184.673 288.692 198.342 289.998 211.701 287.911C225.06 285.824 237.679 280.412 248.399 272.172C259.119 263.932 267.595 253.129 273.048 240.756C278.501 228.384 280.755 214.839 279.603 201.367C278.452 187.895 273.931 174.929 266.458 163.662C266.407 163.579 266.389 163.479 266.41 163.383C266.431 163.288 266.488 163.204 266.57 163.15C266.651 163.096 266.75 163.076 266.846 163.094C266.942 163.112 267.027 163.166 267.084 163.246C275.228 175.515 279.892 189.764 280.579 204.474C281.265 219.185 277.949 233.806 270.983 246.78C264.017 259.755 253.662 270.597 241.021 278.152C228.38 285.707 213.926 289.692 199.2 289.682Z" fill="#1890ff"/>
<path d="M244.542 141.482C231.996 133.044 217.348 128.266 202.24 127.682C202.191 127.68 202.142 127.669 202.097 127.648C202.052 127.628 202.012 127.598 201.978 127.562C201.944 127.526 201.918 127.484 201.901 127.438C201.883 127.391 201.875 127.342 201.877 127.293C201.879 127.243 201.89 127.195 201.911 127.15C201.931 127.105 201.96 127.064 201.996 127.031C202.032 126.997 202.075 126.971 202.121 126.953C202.167 126.936 202.217 126.928 202.266 126.93C217.447 127.474 232.169 132.273 244.754 140.78C244.828 140.822 244.886 140.888 244.917 140.967C244.949 141.046 244.953 141.134 244.928 141.215C244.904 141.297 244.852 141.368 244.782 141.416C244.712 141.465 244.627 141.488 244.542 141.482Z" fill="#1890ff"/>
<path d="M146.664 147.034C146.587 147.034 146.512 147.011 146.448 146.967C146.385 146.923 146.336 146.861 146.31 146.789C146.283 146.716 146.279 146.638 146.298 146.563C146.318 146.488 146.359 146.422 146.418 146.372C155.685 138.463 166.607 132.733 178.38 129.602C178.477 129.575 178.58 129.588 178.667 129.638C178.754 129.687 178.817 129.769 178.844 129.866C178.871 129.962 178.858 130.065 178.808 130.152C178.759 130.239 178.677 130.303 178.58 130.33C166.854 133.511 155.962 139.212 146.664 147.034Z" fill="#1890ff"/>
<path d="M270.4 189.02C253.413 191.568 236.582 195.061 219.984 199.482L219.884 197.316L178.028 203.414L178 203.282C172.464 209.482 169.352 226.834 177.354 238.282C181.023 243.402 186.531 246.905 192.724 248.058C210.408 252.124 240.524 241.61 255.632 235.7C254.812 250.006 254.144 269.156 252.952 290.3C263.425 294.287 274.859 295.014 285.752 292.386C288.996 266.814 292.2 237.986 293.282 209.554C293.4 206.619 292.869 203.695 291.727 200.989C290.584 198.284 288.858 195.864 286.673 193.903C284.487 191.941 281.895 190.486 279.082 189.642C276.269 188.798 273.305 188.586 270.4 189.02Z" fill="#FFE7EA"/>
<path d="M214.73 253.416L204.256 294.604C203.516 297.534 202.165 300.274 200.291 302.645C198.418 305.017 196.064 306.965 193.385 308.362C190.705 309.76 187.76 310.575 184.744 310.755C181.727 310.934 178.706 310.474 175.88 309.404L116.142 286.782C116.838 273.012 119.996 262.55 129.604 252.712L171.688 267.132L177.35 238.282C181.019 243.402 186.527 246.905 192.72 248.058L214.73 253.416Z" fill="#FFE7EA"/>
<path d="M308.756 152.682C307.572 173.408 300.78 202.158 298.518 221.164C297.618 228.605 297.947 236.145 299.492 243.48C299.556 243.727 299.57 243.984 299.535 244.237C299.499 244.49 299.414 244.734 299.284 244.953C299.154 245.173 298.983 245.366 298.779 245.519C298.575 245.673 298.342 245.785 298.095 245.849C297.848 245.912 297.59 245.927 297.337 245.891C297.085 245.856 296.841 245.771 296.621 245.641C296.401 245.511 296.209 245.339 296.055 245.135C295.902 244.931 295.79 244.699 295.726 244.452C294.293 236.632 294.171 228.628 295.364 220.768C298.214 201.768 305.9 173.126 307.708 152.606C307.724 152.472 307.792 152.349 307.896 152.263C308 152.177 308.133 152.135 308.268 152.145C308.403 152.154 308.529 152.216 308.62 152.316C308.71 152.416 308.759 152.547 308.756 152.682Z" fill="#1890ff"/>
<path d="M141.762 147.698L102.182 118.548L90.936 84.8316C90.866 84.6217 93.696 86.8036 35.078 42.9696C35.0139 42.9216 34.9361 42.8954 34.856 42.8947C34.7758 42.894 34.6976 42.9189 34.6326 42.9658C34.5677 43.0126 34.5194 43.079 34.4948 43.1553C34.4702 43.2315 34.4706 43.3137 34.496 43.3896L45.6 76.6816L10.4 75.5797C10.3199 75.577 10.241 75.6001 10.1749 75.6455C10.1088 75.6908 10.059 75.7561 10.0326 75.8318C10.0063 75.9076 10.0048 75.9897 10.0284 76.0663C10.0521 76.1429 10.0996 76.2099 10.164 76.2576C68.338 119.37 66.068 117.762 66.27 117.768L101.732 119.15L141.316 148.304C141.396 148.363 141.497 148.388 141.596 148.373C141.694 148.358 141.783 148.304 141.842 148.224C141.901 148.143 141.926 148.043 141.911 147.944C141.896 147.845 141.842 147.757 141.762 147.698ZM30.11 90.1136L64.2 91.0816L82.172 104.524L48.036 103.402L30.11 90.1136ZM71.87 71.4277L82.612 103.91L64.812 90.5876L53.934 58.0136L71.87 71.4277ZM52.87 57.2276L63.736 89.8036L46.448 76.8736L35.6 44.2916L52.87 57.2276ZM49.09 104.18L83.216 105.302L100.67 118.356L66.414 117.022L49.09 104.18Z" fill="#1890ff"/>
<path d="M245.588 358.01L235.02 358.92L234.112 348.354C234.104 348.254 234.056 348.162 233.98 348.098C233.903 348.034 233.804 348.002 233.705 348.011C233.606 348.019 233.514 348.067 233.449 348.143C233.385 348.219 233.354 348.318 233.362 348.418L234.272 358.984L223.706 359.894C223.611 359.903 223.523 359.949 223.46 360.022C223.397 360.094 223.364 360.188 223.369 360.284C223.373 360.379 223.413 360.47 223.482 360.537C223.551 360.604 223.642 360.642 223.738 360.644L234.338 359.734L235.248 370.3C235.256 370.399 235.304 370.491 235.38 370.555C235.457 370.62 235.556 370.651 235.655 370.643C235.754 370.634 235.846 370.587 235.911 370.51C235.975 370.434 236.006 370.335 235.998 370.236L235.088 359.67L245.654 358.76C245.753 358.751 245.845 358.703 245.91 358.626C245.974 358.55 246.005 358.451 245.996 358.352C245.987 358.252 245.939 358.16 245.863 358.096C245.786 358.032 245.687 358.001 245.588 358.01Z" fill="#1890ff"/>
<path d="M33.684 193.47C32.7204 193.467 31.7717 193.232 30.9181 192.785C30.0645 192.338 29.3312 191.692 28.78 190.901C28.2289 190.111 27.8763 189.199 27.7519 188.244C27.6276 187.288 27.7352 186.317 28.0656 185.412C28.3961 184.507 28.9397 183.695 29.6504 183.044C30.3612 182.393 31.2182 181.923 32.1489 181.674C33.0796 181.425 34.0567 181.403 34.9976 181.611C35.9384 181.819 36.8153 182.251 37.554 182.87C38.4996 183.661 39.1781 184.725 39.4973 185.917C39.8165 187.108 39.7608 188.369 39.3379 189.527C38.9149 190.686 38.1452 191.686 37.1335 192.391C36.1218 193.097 34.9173 193.473 33.684 193.47ZM33.704 182.214C32.6455 182.212 31.6111 182.529 30.7364 183.125C29.8616 183.721 29.1873 184.568 28.802 185.553C28.4166 186.539 28.3381 187.618 28.5767 188.65C28.8153 189.681 29.36 190.616 30.1393 191.332C30.9186 192.049 31.8961 192.513 32.9437 192.664C33.9914 192.815 35.0602 192.646 36.0101 192.179C36.9601 191.712 37.7468 190.969 38.2671 190.047C38.7874 189.126 39.0171 188.068 38.926 187.014C38.8117 185.706 38.2125 184.489 37.2462 183.601C36.28 182.712 35.0164 182.218 33.704 182.214Z" fill="#1890ff"/>
<path d="M155.468 45.9336C154.932 45.3636 153.324 43.4296 147.842 36.9816C147.779 36.9055 147.749 36.8079 147.758 36.7097C147.766 36.6115 147.813 36.5206 147.888 36.4566C147.963 36.3927 148.06 36.3607 148.159 36.3676C148.257 36.3745 148.349 36.4198 148.414 36.4936L155.726 45.0936L162.26 30.9416C162.302 30.8509 162.378 30.7806 162.472 30.7461C162.566 30.7116 162.669 30.7157 162.76 30.7576C162.851 30.7995 162.921 30.8758 162.956 30.9695C162.99 31.0633 162.986 31.1669 162.944 31.2576C158.032 41.8916 156.664 44.9636 156.192 45.8356C156 46.1736 155.87 46.3636 155.468 45.9336Z" fill="#1890ff"/>
<path d="M389.6 195.67L381.92 196.34C380.105 196.492 378.303 195.921 376.907 194.75C375.511 193.579 374.635 191.904 374.47 190.09C373.804 182.536 373.882 182.402 373.716 182.202C373.665 182.139 373.596 182.095 373.518 182.075C373.44 182.055 373.358 182.061 373.283 182.091C373.209 182.121 373.146 182.174 373.104 182.243C373.062 182.311 373.043 182.392 373.05 182.472L373.72 190.152C373.799 191.051 373.699 191.958 373.427 192.819C373.155 193.681 372.717 194.48 372.136 195.172C371.555 195.864 370.844 196.434 370.043 196.851C369.241 197.268 368.366 197.523 367.466 197.602L359.786 198.272C359.737 198.274 359.688 198.286 359.643 198.306C359.599 198.327 359.558 198.357 359.525 198.393C359.491 198.429 359.465 198.472 359.448 198.519C359.432 198.565 359.424 198.614 359.426 198.664C359.428 198.713 359.44 198.761 359.461 198.806C359.482 198.851 359.511 198.891 359.547 198.925C359.584 198.958 359.626 198.984 359.673 199.001C359.719 199.018 359.769 199.026 359.818 199.024L367.53 198.352C368.43 198.273 369.337 198.372 370.198 198.644C371.06 198.915 371.86 199.354 372.552 199.935C373.244 200.516 373.814 201.227 374.231 202.028C374.648 202.83 374.903 203.706 374.982 204.606L375.652 212.286C375.661 212.385 375.708 212.477 375.784 212.541C375.861 212.606 375.96 212.637 376.059 212.629C376.158 212.62 376.25 212.572 376.315 212.496C376.379 212.42 376.411 212.321 376.402 212.222L375.732 204.542C375.577 202.725 376.147 200.921 377.319 199.524C378.491 198.128 380.168 197.252 381.984 197.09L389.666 196.42C389.715 196.415 389.763 196.401 389.807 196.378C389.851 196.356 389.89 196.324 389.922 196.286C389.953 196.249 389.977 196.205 389.992 196.158C390.007 196.11 390.012 196.061 390.008 196.012C390.004 195.962 389.99 195.914 389.967 195.871C389.944 195.827 389.913 195.788 389.875 195.756C389.837 195.724 389.793 195.7 389.746 195.686C389.699 195.671 389.649 195.665 389.6 195.67ZM375.152 202.212C374.68 201.109 373.956 200.133 373.038 199.361C372.12 198.59 371.033 198.045 369.866 197.77C370.968 197.296 371.943 196.571 372.714 195.653C373.484 194.735 374.029 193.649 374.304 192.482C374.777 193.584 375.503 194.56 376.422 195.331C377.341 196.102 378.428 196.647 379.596 196.922C378.491 197.393 377.513 198.117 376.739 199.036C375.966 199.955 375.42 201.043 375.144 202.212H375.152Z" fill="#1890ff"/>
<path d="M195.12 223.928C193.477 222.399 192.449 220.323 192.23 218.09C192.223 217.992 192.255 217.896 192.318 217.821C192.381 217.747 192.471 217.699 192.568 217.69C192.665 217.68 192.763 217.709 192.839 217.77C192.916 217.83 192.965 217.919 192.978 218.016C193.18 220.066 194.124 221.973 195.632 223.378C195.701 223.447 195.74 223.539 195.741 223.637C195.743 223.734 195.707 223.828 195.64 223.899C195.574 223.97 195.483 224.013 195.386 224.018C195.289 224.023 195.194 223.991 195.12 223.928Z" fill="#1890ff"/>
<path d="M225.924 221.082L219.65 222.282C219.557 222.298 219.474 222.349 219.417 222.425C219.36 222.5 219.333 222.594 219.342 222.688C219.352 222.782 219.396 222.869 219.466 222.932C219.536 222.995 219.628 223.029 219.722 223.028C219.922 223.028 221.826 222.628 226.066 221.814C226.153 221.785 226.226 221.725 226.272 221.647C226.318 221.568 226.334 221.475 226.316 221.385C226.299 221.296 226.249 221.216 226.177 221.16C226.105 221.104 226.015 221.076 225.924 221.082Z" fill="#1890ff"/>
<path d="M209.272 224.282L202.998 225.482C202.905 225.498 202.822 225.549 202.765 225.624C202.708 225.699 202.682 225.793 202.69 225.887C202.699 225.981 202.743 226.068 202.813 226.131C202.883 226.194 202.974 226.228 203.068 226.228C203.268 226.228 205.176 225.828 209.414 225.014C209.501 224.985 209.574 224.925 209.62 224.847C209.666 224.768 209.682 224.675 209.664 224.585C209.647 224.496 209.597 224.415 209.525 224.36C209.453 224.304 209.363 224.276 209.272 224.282Z" fill="#1890ff"/>
<path d="M259.228 214.682L252.954 215.882C252.861 215.898 252.778 215.949 252.721 216.024C252.664 216.099 252.638 216.193 252.646 216.287C252.655 216.381 252.699 216.468 252.769 216.531C252.839 216.594 252.93 216.628 253.024 216.628C253.224 216.628 255.13 216.228 259.37 215.414C259.457 215.385 259.53 215.325 259.576 215.247C259.622 215.168 259.638 215.075 259.62 214.985C259.603 214.896 259.553 214.815 259.481 214.76C259.409 214.704 259.319 214.676 259.228 214.682Z" fill="#1890ff"/>
<path d="M242.576 217.882L236.302 219.082C236.212 219.101 236.131 219.152 236.076 219.227C236.021 219.301 235.996 219.393 236.005 219.485C236.013 219.577 236.055 219.663 236.123 219.725C236.191 219.788 236.28 219.824 236.372 219.826C236.572 219.826 238.478 219.426 242.718 218.612C242.803 218.582 242.874 218.522 242.919 218.444C242.963 218.366 242.979 218.274 242.961 218.186C242.944 218.097 242.896 218.018 242.825 217.962C242.754 217.906 242.666 217.878 242.576 217.882Z" fill="#1890ff"/>
<path d="M268.932 215.816C267.087 214.768 264.937 214.39 262.846 214.746C262.75 214.761 262.651 214.738 262.572 214.682C262.492 214.626 262.437 214.541 262.419 214.445C262.4 214.35 262.42 214.25 262.473 214.169C262.526 214.087 262.609 214.029 262.704 214.008C264.908 213.583 267.19 213.977 269.124 215.116C269.195 215.158 269.251 215.222 269.282 215.298C269.313 215.375 269.318 215.459 269.296 215.539C269.274 215.619 269.226 215.689 269.161 215.739C269.095 215.789 269.015 215.816 268.932 215.816Z" fill="#1890ff"/>
<path d="M188.766 278.822C188.313 280.843 187.284 282.69 185.802 284.138C185.736 284.208 185.701 284.301 185.702 284.398C185.703 284.494 185.741 284.586 185.808 284.656C185.876 284.725 185.967 284.765 186.063 284.769C186.16 284.773 186.254 284.739 186.326 284.676C187.912 283.126 189.015 281.15 189.5 278.986C189.511 278.937 189.512 278.888 189.503 278.839C189.495 278.79 189.477 278.744 189.45 278.702C189.397 278.618 189.312 278.558 189.215 278.537C189.118 278.515 189.016 278.533 188.931 278.586C188.847 278.64 188.788 278.724 188.766 278.822Z" fill="#1890ff"/>
<path d="M126.52 271.518L120.424 269.608C120.331 269.584 120.232 269.598 120.148 269.645C120.064 269.692 120.001 269.769 119.972 269.861C119.943 269.953 119.95 270.053 119.992 270.139C120.034 270.226 120.108 270.293 120.198 270.328C125.436 271.97 126.198 272.254 126.408 272.254C126.499 272.254 126.586 272.223 126.655 272.164C126.724 272.105 126.77 272.024 126.783 271.934C126.797 271.845 126.778 271.753 126.729 271.677C126.681 271.6 126.607 271.544 126.52 271.518Z" fill="#1890ff"/>
<path d="M142.704 276.584L136.6 274.682C136.505 274.652 136.402 274.661 136.313 274.708C136.225 274.754 136.159 274.833 136.129 274.929C136.099 275.024 136.109 275.127 136.155 275.215C136.201 275.304 136.281 275.37 136.376 275.4C141.612 277.042 142.376 277.326 142.586 277.326C142.682 277.337 142.779 277.31 142.856 277.252C142.934 277.193 142.985 277.107 143.001 277.011C143.016 276.915 142.993 276.817 142.938 276.738C142.883 276.658 142.799 276.603 142.704 276.584Z" fill="#1890ff"/>
<path d="M158.886 281.648L152.788 279.74C152.741 279.725 152.691 279.72 152.642 279.724C152.593 279.729 152.545 279.743 152.501 279.766C152.413 279.812 152.347 279.891 152.317 279.987C152.287 280.082 152.297 280.185 152.343 280.273C152.389 280.362 152.469 280.428 152.564 280.458C157.802 282.098 158.564 282.384 158.774 282.384C158.865 282.384 158.952 282.353 159.021 282.294C159.09 282.235 159.136 282.154 159.149 282.064C159.163 281.975 159.144 281.883 159.095 281.807C159.047 281.73 158.973 281.674 158.886 281.648Z" fill="#1890ff"/>
<path d="M176.41 287.042C175.778 286.92 175.156 286.755 174.546 286.55L168.972 284.804C168.877 284.774 168.774 284.783 168.685 284.829C168.597 284.875 168.53 284.954 168.5 285.05C168.47 285.145 168.479 285.248 168.525 285.337C168.571 285.425 168.651 285.492 168.746 285.522C172.124 286.582 173.644 287.076 174.346 287.294C175.002 287.5 175.67 287.665 176.346 287.788C176.44 287.787 176.53 287.751 176.598 287.688C176.667 287.624 176.71 287.537 176.718 287.444C176.726 287.35 176.699 287.257 176.642 287.183C176.585 287.109 176.502 287.058 176.41 287.042Z" fill="#1890ff"/>
<path d="M167.944 163.786C167.988 164.286 167.83 164.783 167.507 165.168C167.184 165.553 166.721 165.793 166.221 165.837C165.721 165.88 165.223 165.723 164.839 165.4C164.454 165.077 164.214 164.614 164.17 164.114C164.148 163.866 164.176 163.616 164.251 163.379C164.326 163.142 164.447 162.922 164.607 162.731C164.767 162.541 164.963 162.384 165.183 162.269C165.404 162.154 165.645 162.084 165.893 162.063C166.141 162.041 166.39 162.069 166.628 162.144C166.865 162.218 167.085 162.339 167.275 162.499C167.466 162.659 167.623 162.855 167.738 163.076C167.852 163.297 167.922 163.538 167.944 163.786Z" fill="#1890ff"/>
<path d="M281.468 139.162C281.497 139.654 281.333 140.137 281.01 140.51C280.688 140.883 280.233 141.116 279.742 141.159C279.251 141.202 278.763 141.052 278.381 140.74C277.999 140.429 277.753 139.981 277.696 139.492C277.667 139 277.831 138.516 278.154 138.143C278.476 137.77 278.931 137.537 279.422 137.495C279.913 137.452 280.401 137.602 280.783 137.913C281.165 138.224 281.411 138.672 281.468 139.162Z" fill="#1890ff"/>
<path d="M357.858 309.408L338.234 277.818C338.191 277.749 338.126 277.696 338.05 277.667C337.974 277.638 337.89 277.634 337.812 277.657C337.734 277.68 337.665 277.727 337.616 277.792C337.567 277.857 337.54 277.936 337.54 278.018V294.162L309.294 273.008C320.097 254.606 326.122 233.793 326.821 212.466C327.52 191.139 322.869 169.977 313.294 150.908C313.249 150.819 313.171 150.751 313.076 150.72C312.981 150.688 312.878 150.696 312.789 150.741C312.7 150.785 312.632 150.864 312.601 150.959C312.57 151.053 312.577 151.157 312.622 151.246C326.636 179.153 329.877 211.245 321.726 241.391C313.574 271.537 294.601 297.622 268.432 314.664C268.348 314.718 268.29 314.804 268.27 314.902C268.249 314.999 268.268 315.101 268.323 315.185C268.378 315.268 268.463 315.327 268.561 315.347C268.659 315.368 268.76 315.348 268.844 315.294C285.201 304.656 298.905 290.413 308.904 273.658L337.118 294.79L320.826 300.32C320.749 300.345 320.682 300.396 320.635 300.463C320.589 300.53 320.566 300.61 320.569 300.692C320.573 300.773 320.603 300.852 320.654 300.915C320.706 300.978 320.777 301.022 320.856 301.042C360.07 310.554 357.61 310.144 357.836 309.83C357.881 309.77 357.908 309.697 357.911 309.622C357.915 309.547 357.897 309.472 357.858 309.408Z" fill="#1890ff"/>
<path d="M273.342 229.882L273.648 223.5C273.647 223.403 273.61 223.311 273.543 223.242C273.477 223.173 273.386 223.131 273.29 223.127C273.194 223.122 273.1 223.154 273.027 223.217C272.954 223.28 272.908 223.368 272.898 223.464L272.592 229.846C272.593 229.942 272.63 230.034 272.697 230.103C272.763 230.173 272.854 230.214 272.95 230.219C273.046 230.223 273.14 230.191 273.213 230.128C273.286 230.065 273.332 229.977 273.342 229.882Z" fill="#1890ff"/>
<path d="M270.52 281.05C270.618 281.051 270.712 281.014 270.784 280.948C270.855 280.881 270.898 280.789 270.904 280.692L271.21 274.31C271.214 274.26 271.207 274.21 271.191 274.162C271.175 274.115 271.149 274.071 271.116 274.034C271.082 273.997 271.042 273.966 270.996 273.945C270.951 273.924 270.902 273.912 270.852 273.91C270.752 273.905 270.653 273.94 270.579 274.007C270.504 274.074 270.458 274.167 270.452 274.268L270.144 280.65C270.142 280.701 270.149 280.752 270.167 280.8C270.185 280.848 270.212 280.892 270.247 280.929C270.282 280.967 270.325 280.997 270.371 281.017C270.418 281.038 270.469 281.049 270.52 281.05Z" fill="#1890ff"/>
<path d="M271.332 264.114C271.43 264.114 271.524 264.078 271.596 264.011C271.668 263.945 271.711 263.853 271.718 263.756L272.024 257.374C272.029 257.274 271.994 257.176 271.927 257.103C271.859 257.029 271.766 256.984 271.666 256.98C271.566 256.975 271.469 257.01 271.395 257.077C271.321 257.144 271.277 257.238 271.272 257.338L270.966 263.72C270.964 263.77 270.972 263.819 270.989 263.866C271.007 263.913 271.033 263.956 271.067 263.993C271.101 264.029 271.142 264.059 271.188 264.079C271.233 264.1 271.282 264.112 271.332 264.114Z" fill="#1890ff"/>
<path d="M272.146 247.176C272.244 247.176 272.337 247.139 272.409 247.072C272.48 247.006 272.523 246.915 272.53 246.818L272.836 240.436C272.841 240.336 272.806 240.238 272.739 240.164C272.671 240.091 272.578 240.046 272.478 240.042C272.378 240.037 272.281 240.072 272.207 240.139C272.133 240.206 272.089 240.3 272.084 240.4L271.778 246.782C271.775 246.883 271.812 246.981 271.881 247.055C271.95 247.128 272.045 247.172 272.146 247.176Z" fill="#1890ff"/>
<path d="M191.868 265.082L190.468 271.314C190.453 271.408 190.474 271.505 190.527 271.584C190.581 271.664 190.663 271.72 190.756 271.741C190.849 271.762 190.947 271.747 191.03 271.698C191.112 271.65 191.173 271.572 191.2 271.48L192.6 265.248C192.615 265.153 192.594 265.056 192.541 264.977C192.487 264.898 192.405 264.842 192.312 264.82C192.219 264.799 192.121 264.815 192.038 264.863C191.956 264.912 191.895 264.99 191.868 265.082Z" fill="#1890ff"/>
<path d="M311.29 146.042C311.462 146.012 311.634 145.978 311.804 145.942C315.108 145.234 314.766 140.522 311.642 139.642C312.231 139.272 312.691 138.73 312.961 138.09C313.231 137.45 313.297 136.742 313.15 136.062C313.003 135.383 312.65 134.766 312.14 134.294C311.63 133.822 310.987 133.519 310.298 133.426C310.911 132.959 311.347 132.297 311.534 131.55C311.72 130.802 311.645 130.013 311.322 129.313C310.999 128.614 310.447 128.045 309.757 127.702C309.067 127.359 308.281 127.261 307.528 127.426C307.528 127.426 304.728 127.934 303.82 128.116C303.036 125.812 301.62 125.688 297.744 126.116C292.686 126.672 291.91 126.758 290.6 129.878C288.638 134.554 286.744 135.816 285.268 136.302C284.892 135.474 284.492 134.639 284.068 133.798C284.031 133.726 283.973 133.668 283.901 133.632C283.829 133.596 283.747 133.584 283.668 133.598C282.97 133.726 213.754 146.658 205.498 147.416C199.898 147.928 197.076 142.956 196.262 137.416C197.405 137.437 198.535 137.18 199.557 136.668C200.579 136.156 201.461 135.404 202.128 134.476C203.766 131.842 203.288 127.58 200.71 121.808C197.188 110.082 196.814 100.324 189.248 100.822C181.628 101.326 167.942 116.072 173.558 124.402C178.334 131.5 184.758 135.634 185.534 141.302C185.134 141.336 184.708 141.374 184.258 141.418C183.84 138.5 182.584 138.372 178.898 138.418C174.366 138.476 173.668 138.484 172.23 141.144C171.371 143.022 170.017 144.631 168.312 145.798C167.447 144.186 166.496 142.622 165.464 141.112C165.12 140.674 165.05 140.7 164.664 140.774C163.16 141.06 155.964 143.03 120.212 154.248C110.34 157.346 105.556 163.508 106.28 171.748C106.465 173.873 107.067 175.942 108.051 177.834C109.036 179.727 110.384 181.407 112.019 182.778C113.654 184.15 115.543 185.185 117.578 185.826C119.613 186.466 121.755 186.699 123.88 186.512L172.64 182.78L177.582 203.18C172 209.642 168.946 226.746 176.95 238.354L171.4 266.638C127.752 251.68 129.71 252.27 129.446 252.372C127.759 254.044 126.204 255.845 124.796 257.758C119.764 255.274 114.54 253.201 109.174 251.558C109.085 251.531 108.99 251.538 108.906 251.578C97.706 256.794 81.02 261.464 63.008 274.156C62.9486 274.198 62.9026 274.256 62.8756 274.323C62.8486 274.391 62.8418 274.465 62.856 274.536C62.8702 274.607 62.9047 274.673 62.9555 274.725C63.0063 274.777 63.071 274.814 63.142 274.83C74.6406 277.138 86.3487 278.239 98.076 278.116C104.229 277.891 110.391 278.203 116.49 279.048C116.102 281.675 115.881 284.324 115.828 286.98C115.98 287.18 113.318 286.122 175.746 309.744C178.622 310.83 181.694 311.297 184.762 311.113C187.831 310.93 190.826 310.1 193.552 308.679C196.277 307.258 198.672 305.277 200.579 302.866C202.486 300.456 203.862 297.669 204.618 294.69L216.53 247.838C229.755 245.17 242.705 241.287 255.216 236.238C254.85 242.728 253.216 278.89 252.57 290.258C252.566 290.338 252.588 290.417 252.632 290.484C252.677 290.552 252.741 290.603 252.816 290.632C254.56 291.277 256.311 291.838 258.068 292.314C257.119 298.45 256.693 304.657 256.794 310.866C256.794 311.296 256.752 311.196 257.086 311.558C257.644 312.158 259.286 313.912 264.086 319.644C272.97 330.244 280.832 339.124 292.668 347.942C292.727 347.985 292.796 348.01 292.869 348.014C292.941 348.018 293.014 348.002 293.077 347.966C293.14 347.93 293.192 347.877 293.226 347.813C293.26 347.749 293.274 347.676 293.268 347.604C291.867 335.959 289.263 324.491 285.498 313.384C283.558 307.106 280.88 300.286 280.476 293.74C282.267 293.49 284.055 293.154 285.842 292.73C285.916 292.712 285.983 292.672 286.034 292.615C286.085 292.558 286.118 292.487 286.128 292.412C289.042 269.432 292.528 239.248 293.66 209.548C293.779 206.559 293.237 203.58 292.073 200.825C290.909 198.069 289.151 195.605 286.924 193.607C284.698 191.609 282.058 190.127 279.193 189.267C276.328 188.406 273.309 188.189 270.35 188.63C253.506 191.158 236.815 194.611 220.35 198.972C220.35 198.972 219.59 174.018 219.55 172.308C291.604 159.376 288.58 160.004 288.76 159.786C289.02 158.595 289.187 157.386 289.26 156.17C292.86 155.52 300.966 154.35 306.198 153.422C308.198 153.07 310.998 152.422 311.664 152.304C315 151.706 314.59 146.752 311.29 146.042ZM71.854 275.668C69.11 275.268 66.576 274.82 64.142 274.292C81.73 262.082 98.03 257.454 109.094 252.33C111.188 252.97 113.264 253.678 115.272 254.438C105.51 258.668 88.3 264.334 71.854 275.668ZM311.654 145.206C309.682 145.63 307.42 145.684 303.49 146.066C299.658 146.44 298.69 141.998 302.362 141.378C304.458 141.024 309.974 140.256 310.59 140.256C313.776 140.256 314.4 144.616 311.644 145.206H311.654ZM310.782 139.158C308.76 139.646 306.532 139.758 302.51 140.242C302.001 140.367 301.465 140.319 300.988 140.103C300.51 139.888 300.118 139.518 299.876 139.054C299.689 138.654 299.603 138.215 299.624 137.775C299.646 137.335 299.775 136.907 300 136.528C302.4 140.1 305.444 138.848 305.14 136.472L304.92 134.72C305.542 134.634 308.268 134.304 309.082 134.18C312.8 133.608 313.664 138.462 310.772 139.158H310.782ZM307.676 128.168C311.1 127.536 312.05 132.276 309.352 133.024C307.859 133.397 306.343 133.67 304.814 133.84C304.646 132.16 304.388 130.491 304.04 128.84C305.04 128.648 305.6 128.55 307.666 128.168H307.676ZM185.232 131.208C184.738 130.312 184.432 130.116 184.232 130.046C177.34 127.556 179.184 121.446 182.804 123.706C184.06 124.49 184.852 124.706 185.372 124.42C185.948 124.098 185.94 123.346 185.87 122.732C185.168 116.444 190.692 104.114 198.514 119.026C202.74 127.126 205.226 136.1 196.158 136.67C194.677 136.743 193.193 136.627 191.742 136.326C191.236 136.206 191.068 136.676 191.304 136.926L196.388 141.202C197.06 143.446 198.426 145.42 200.288 146.842C197.805 148.655 194.721 149.447 191.672 149.056C191.589 148.51 191.363 147.997 191.015 147.569C190.668 147.141 190.212 146.813 189.696 146.62C190.23 146.215 190.616 145.646 190.796 145.001C190.976 144.355 190.939 143.669 190.691 143.046C190.443 142.424 189.998 141.9 189.424 141.555C188.85 141.21 188.178 141.062 187.512 141.136L186.42 141.228C187.032 138.57 186.69 135.718 185.222 131.208H185.232ZM172.902 141.496C174.13 139.224 174.402 139.222 178.98 139.164C182.58 139.124 183.272 139.198 183.58 141.868C183.595 141.963 183.644 142.049 183.717 142.111C183.79 142.173 183.884 142.207 183.98 142.206C184.964 142.104 187.58 141.884 187.58 141.884C190.6 141.626 191.024 145.808 188.634 146.228C188.328 146.28 188.018 146.326 187.696 146.362C187.226 146.416 187.2 147.214 187.742 147.18C187.794 147.18 188.05 147.18 188.22 147.16C191.484 146.972 191.858 151.252 189.282 151.614C188.282 151.748 187.824 151.728 187.576 151.764C187.483 151.777 187.398 151.824 187.339 151.896C187.279 151.968 187.248 152.06 187.253 152.154C187.257 152.248 187.297 152.336 187.363 152.402C187.429 152.469 187.518 152.508 187.612 152.512L188.44 152.49C191.658 152.384 191.928 156.586 189.4 156.878C188.948 156.93 188.494 156.956 188.012 156.972C187.91 156.97 187.811 157.01 187.738 157.081C187.664 157.153 187.622 157.25 187.621 157.353C187.62 157.455 187.659 157.554 187.73 157.627C187.802 157.7 187.9 157.742 188.002 157.744C191.07 157.744 191.28 161.764 188.83 161.978C185.63 162.26 181.79 162.766 176.108 163.066C174.884 163.132 173.66 163.21 172.472 163.286C172.558 157.456 171.256 151.69 168.672 146.464C170.511 145.229 171.971 143.51 172.892 141.496H172.902ZM164.866 141.56C170.378 149.241 172.714 158.753 171.388 168.114L159.642 171.728C161.018 161.094 158.68 152.184 152.69 145.234L164.866 141.56ZM175.898 192.984C177.202 185.742 177.678 183.25 177.806 182.35C177.91 181.628 177.754 181.638 177.286 181.632C175.442 181.61 166.532 182.19 123.822 185.756C119.732 186.106 115.669 184.822 112.524 182.183C109.379 179.544 107.407 175.767 107.042 171.678C106.354 163.828 110.988 158.046 120.442 154.962L151.89 145.482C157.96 152.374 160.29 161.282 158.84 171.982L128.324 181.382C128.239 181.409 128.166 181.466 128.119 181.542C128.072 181.618 128.054 181.708 128.067 181.796C128.081 181.885 128.125 181.965 128.193 182.024C128.26 182.082 128.347 182.115 128.436 182.116C128.61 182.116 171.836 168.78 171.906 168.746C171.948 168.723 171.985 168.691 172.015 168.654C172.045 168.617 172.067 168.574 172.08 168.528C172.288 167.046 172.411 165.553 172.448 164.058C181.822 163.458 184.81 163.242 185.88 163.13C188.734 162.836 190.08 162.812 190.838 161.586C191.218 160.922 191.336 160.141 191.168 159.395C191.001 158.649 190.561 157.993 189.934 157.556C190.472 157.351 190.938 156.994 191.277 156.529C191.615 156.064 191.811 155.51 191.84 154.935C191.869 154.36 191.73 153.79 191.44 153.293C191.151 152.795 190.722 152.393 190.208 152.136C190.643 151.924 191.011 151.598 191.275 151.193C191.538 150.788 191.687 150.319 191.704 149.836C194.274 150.152 196.879 149.669 199.166 148.454C206.314 166.788 207.27 180.912 207.786 198.732L178.31 203.002L175.898 192.984ZM203.898 294.512C203.169 297.389 201.841 300.08 200 302.409C198.159 304.737 195.847 306.65 193.216 308.023C190.584 309.396 187.692 310.197 184.729 310.374C181.766 310.552 178.799 310.101 176.022 309.052L116.532 286.528C117.256 272.918 120.476 262.684 129.708 253.144C174.618 268.534 171.652 267.588 171.876 267.458C172.1 267.328 171.676 269.148 177.554 239.192C181.284 244.006 186.649 247.288 192.634 248.416C192.818 248.456 193.784 248.69 195.472 249.102L194.194 254.766C194.172 254.863 194.19 254.965 194.243 255.049C194.296 255.134 194.381 255.194 194.478 255.216C194.575 255.238 194.677 255.22 194.762 255.167C194.846 255.114 194.906 255.029 194.928 254.932L196.2 249.282C199.784 250.156 205.946 251.664 214.268 253.694L203.898 294.512ZM290.94 336.912C291.54 339.978 292.088 343.512 292.436 346.85C275.28 333.882 265.932 319.942 257.558 310.976C257.5 308.236 257.558 305.468 257.724 302.73C267.014 313.114 275 324.682 290.934 336.906L290.94 336.912ZM219.6 199.188C216.886 199.912 214.39 200.602 211.978 201.298C211.89 201.33 211.817 201.395 211.774 201.479C211.732 201.563 211.722 201.66 211.747 201.75C211.772 201.841 211.83 201.919 211.91 201.969C211.99 202.019 212.085 202.037 212.178 202.02C231.311 196.561 250.777 192.343 270.454 189.392C273.303 188.967 276.21 189.176 278.969 190.005C281.727 190.833 284.269 192.26 286.413 194.183C288.557 196.107 290.25 198.48 291.371 201.133C292.492 203.786 293.014 206.654 292.9 209.532C291.778 239.092 288.312 269.144 285.406 292.076C280.455 293.239 275.367 293.716 270.286 293.494L270.394 291.248C270.398 291.198 270.391 291.148 270.375 291.1C270.359 291.053 270.333 291.009 270.3 290.972C270.266 290.935 270.226 290.904 270.18 290.883C270.135 290.862 270.086 290.85 270.036 290.848C269.936 290.843 269.838 290.878 269.763 290.945C269.688 291.012 269.643 291.105 269.636 291.206L269.528 293.448C263.99 293.107 258.532 291.957 253.328 290.034C253.962 278.762 255.602 242.51 255.976 235.948C258.302 235.036 260.166 234.288 261.654 233.674C261.7 233.655 261.741 233.627 261.776 233.592C261.811 233.558 261.839 233.516 261.858 233.471C261.877 233.425 261.887 233.376 261.887 233.327C261.887 233.277 261.878 233.228 261.859 233.183C261.84 233.137 261.813 233.095 261.778 233.06C261.743 233.025 261.702 232.997 261.656 232.978C261.61 232.959 261.561 232.949 261.512 232.949C261.463 232.949 261.414 232.959 261.368 232.978C243.768 240.244 212.036 251.664 193.294 247.778C187.004 246.711 181.385 243.216 177.648 238.046C170.048 227.176 172.612 210.218 178.062 203.764L190.626 201.944L191.226 207.912C191.238 208.009 191.288 208.098 191.365 208.16C191.441 208.221 191.539 208.25 191.637 208.24C191.735 208.23 191.825 208.182 191.888 208.107C191.951 208.031 191.982 207.934 191.974 207.836L191.374 201.836L219.518 197.758L219.6 199.188ZM275.912 161.444L233.35 169.082L219.108 166.79C219.053 166.78 218.998 166.783 218.944 166.798C218.891 166.813 218.842 166.84 218.8 166.876C218.758 166.913 218.725 166.958 218.703 167.009C218.681 167.059 218.67 167.114 218.672 167.17L219.494 197.014L208.536 198.602C208.016 180.712 207.044 166.522 199.828 148.056C200.226 147.814 200.607 147.547 200.97 147.256C202.373 148.013 203.972 148.329 205.558 148.164C211.64 147.61 250.436 140.436 271.02 136.678C274.999 144.29 276.696 152.89 275.908 161.444H275.912ZM288.132 159.244L276.684 161.298C277.431 152.75 275.737 144.165 271.8 136.542C278 135.41 282.4 134.6 283.53 134.392C287.946 143.202 289.454 151.34 288.128 159.252L288.132 159.244ZM289.304 155.408C289.522 149.06 288.245 142.751 285.576 136.988C287.888 136.188 289.664 134.058 291.298 130.164C292.436 127.452 292.74 127.42 297.898 126.852C301.63 126.44 302.698 126.324 303.36 129.238C303.686 130.668 303.892 132.62 304.39 136.56C304.668 138.77 300.962 139.258 298.916 132.16C298.886 132.068 298.821 131.991 298.736 131.946C298.651 131.9 298.552 131.889 298.459 131.915C298.366 131.94 298.286 132.001 298.236 132.084C298.187 132.167 298.171 132.265 298.192 132.36C299.926 138.596 297.766 142.792 294.192 144.692C294.108 144.74 294.045 144.82 294.018 144.913C293.991 145.007 294.002 145.107 294.048 145.194C294.093 145.28 294.17 145.345 294.263 145.375C294.356 145.405 294.456 145.398 294.544 145.356C295.695 144.752 296.705 143.911 297.508 142.888C298.311 141.865 298.887 140.684 299.2 139.422C299.393 139.807 299.671 140.143 300.013 140.405C300.355 140.667 300.752 140.848 301.174 140.934C298.104 142.232 298.942 146.44 302.498 146.814C297.866 147.488 298.956 153.166 303.588 152.846C304.504 152.782 305.322 152.736 306.066 152.696C301.142 153.614 294.464 154.492 289.3 155.416L289.304 155.408ZM311.468 151.482C309.52 151.84 307.412 151.824 303.546 152.082C299.842 152.334 299.008 148.048 302.558 147.554C305.34 147.168 307.282 146.988 310.054 146.716C313.582 146.382 314.25 150.976 311.468 151.482Z" fill="#1890ff"/>
<path d="M299 208.846L185.496 163.138C184.98 163.192 184.438 163.246 183.874 163.296C302.172 210.938 298.65 209.57 298.85 209.57C298.938 209.571 299.023 209.543 299.092 209.488C299.161 209.433 299.208 209.356 299.226 209.27C299.244 209.184 299.231 209.094 299.19 209.017C299.148 208.939 299.081 208.879 299 208.846Z" fill="#1890ff"/>
<path d="M301.184 140.934C300.811 140.854 300.457 140.704 300.14 140.492L190.374 152.214C190.666 152.393 190.925 152.621 191.14 152.888C309.57 140.24 300.226 141.338 301.184 140.934Z" fill="#1890ff"/>
<path d="M324.616 137.98L317.816 135.448C317.757 135.426 317.693 135.419 317.63 135.428C317.567 135.437 317.508 135.462 317.457 135.5C317.407 135.539 317.367 135.589 317.341 135.647C317.315 135.705 317.305 135.768 317.31 135.832L317.556 138.632L312.306 139.192C311.47 139.954 311.34 139.376 312.364 139.942L317.62 139.38L317.836 141.846C317.844 141.939 317.888 142.026 317.957 142.09C318.027 142.153 318.118 142.188 318.212 142.188C320.429 141.139 322.582 139.962 324.662 138.662C324.725 138.627 324.777 138.576 324.812 138.512C324.847 138.449 324.863 138.378 324.858 138.306C324.853 138.234 324.828 138.165 324.785 138.107C324.742 138.049 324.683 138.005 324.616 137.98Z" fill="#1890ff"/>
<path d="M273.572 66.7036C196.322 131.082 185.48 139.932 184.228 141.176L184.258 141.418C184.54 141.39 184.858 141.36 185.11 141.338L274.054 67.2816C274.092 67.25 274.123 67.2112 274.146 67.1674C274.169 67.1236 274.183 67.0758 274.188 67.0266C274.192 66.9774 274.187 66.9278 274.172 66.8806C274.158 66.8334 274.134 66.7896 274.102 66.7516C274.07 66.7137 274.032 66.6823 273.988 66.6594C273.944 66.6364 273.896 66.6223 273.847 66.6179C273.798 66.6134 273.748 66.6187 273.701 66.6334C273.654 66.6481 273.61 66.672 273.572 66.7036Z" fill="#1890ff"/>
</svg>
