<svg width="304" height="211" viewBox="0 0 304 211" fill="none" xmlns="http://www.w3.org/2000/svg">
<g clip-path="url(#clip0)">
<path d="M52 116C52 60.7715 96.7715 16 152 16V16C207.228 16 252 60.7715 252 116V116C252 171.228 207.228 216 152 216V216C96.7715 216 52 171.228 52 116V116Z" fill="#EBFAFA"/>
<path d="M243.657 180.598C239.703 176.416 236.679 171.411 234.819 165.908C234.755 166.038 234.671 166.168 234.607 166.298C235.093 166.19 235.559 166.103 236.045 165.995C236.32 165.93 236.362 165.54 236.13 165.41C234.311 164.413 234.1 161.206 233.698 159.365C233.169 156.96 232.683 154.555 232.26 152.15C231.372 147.21 230.695 142.226 230.209 137.221C230.04 137.308 229.892 137.416 229.723 137.503C233.254 139.648 236.616 142.053 239.766 144.761C242.6 147.21 245.433 149.831 247.442 153.038C249.599 156.44 250.635 160.556 251.269 164.5C251.988 168.855 251.988 173.296 250.973 177.608C250.867 178.02 251.48 178.193 251.586 177.781C253.172 171.216 252.368 164.218 250.339 157.848C248.372 151.76 243.932 147.361 239.174 143.418C236.299 141.035 233.233 138.868 230.061 136.94C229.871 136.831 229.554 136.961 229.575 137.221C230.082 142.573 230.822 147.881 231.795 153.146C232.281 155.768 232.81 158.39 233.423 160.968C233.825 162.723 234.1 165.02 235.812 165.973C235.833 165.778 235.855 165.583 235.897 165.388C235.411 165.496 234.945 165.583 234.459 165.691C234.29 165.735 234.184 165.93 234.248 166.081C236.151 171.693 239.217 176.785 243.255 181.053C243.509 181.356 243.953 180.901 243.657 180.598Z" fill="#DFE6E9"/>
<path d="M230.272 137.764C237.927 149.117 243.213 162.031 245.75 175.572C245.835 175.984 246.448 175.811 246.363 175.399C243.805 161.792 238.498 148.814 230.801 137.417C230.59 137.092 230.04 137.417 230.272 137.764Z" fill="#DFE6E9"/>
<path d="M232.81 156.439C236.003 157.154 239.365 157.956 241.585 160.621C241.839 160.946 242.304 160.469 242.029 160.166C239.745 157.414 236.278 156.548 232.979 155.811C232.577 155.724 232.408 156.353 232.81 156.439Z" fill="#DFE6E9"/>
<path d="M241.225 156.483C240.993 153.449 241.458 150.438 242.642 147.643C242.811 147.253 242.261 146.928 242.092 147.318C240.866 150.221 240.337 153.319 240.591 156.483C240.633 156.894 241.268 156.894 241.225 156.483Z" fill="#DFE6E9"/>
<path d="M246.321 150.525C247.843 140.818 254.335 133.278 260.551 126.236C260.382 126.128 260.192 126.02 260.022 125.911C258.563 131.263 261.989 136.225 263.236 141.251C263.913 144.025 264.23 146.885 264.294 149.745C264.336 151.153 264.315 152.583 264.272 153.991C264.251 154.685 264.251 155.4 264.103 156.071C263.892 157.003 262.877 158.455 261.799 157.48C261.672 157.653 261.545 157.826 261.418 158C263.279 158.996 262.602 161.856 262.306 163.525C261.925 165.778 261.291 167.923 259.874 169.743C257.823 172.343 254.884 174.271 253.912 177.608C253.785 178.02 254.398 178.171 254.525 177.781C255.73 173.708 259.98 171.758 261.735 167.988C262.644 166.038 263.046 163.741 263.236 161.618C263.384 160.08 263.236 158.238 261.735 157.458C261.439 157.306 261.059 157.718 261.355 157.978C262.01 158.585 262.919 158.585 263.659 158.086C264.484 157.523 264.738 156.483 264.822 155.508C265.161 152.236 265.013 148.791 264.632 145.541C264.251 142.291 263.406 139.236 262.221 136.225C260.974 133.018 259.684 129.616 260.636 126.128C260.72 125.825 260.318 125.565 260.107 125.803C253.827 132.931 247.251 140.58 245.708 150.373C245.644 150.763 246.257 150.936 246.321 150.525Z" fill="#DFE6E9"/>
<path d="M259.304 128.122C254.906 139.237 252.178 150.981 251.205 162.941C251.163 163.352 251.797 163.352 251.84 162.941C252.812 151.046 255.54 139.367 259.917 128.296C260.065 127.927 259.452 127.754 259.304 128.122Z" fill="#DFE6E9"/>
<path d="M198.873 162.16C204.053 163.308 209.107 160.752 214.097 159.733C219.594 158.628 225.261 158.628 230.78 159.647C231.182 159.712 231.351 159.105 230.949 159.018C225.832 158.065 220.609 158 215.492 158.823C212.871 159.257 210.333 159.993 207.796 160.73C204.941 161.532 202.002 162.182 199.063 161.532C198.64 161.445 198.471 162.052 198.873 162.16Z" fill="#DFE6E9"/>
<path d="M263.617 160.166C266.62 159.581 269.58 160.318 272.477 161.055C275.31 161.748 278.165 162.376 281.062 162.896C286.644 163.893 292.31 164.478 297.977 164.716C298.379 164.738 298.379 164.088 297.977 164.066C291.951 163.828 285.967 163.156 280.025 162.051C277.15 161.51 274.316 160.838 271.483 160.145C268.84 159.495 266.155 159.018 263.448 159.56C263.068 159.625 263.237 160.253 263.617 160.166Z" fill="#DFE6E9"/>
<path d="M24.6215 142.011C32.1067 140.234 39.5918 138.176 47.1826 137.049C54.7524 135.944 62.4278 135.814 70.0609 136.486C84.7352 137.786 98.9865 141.729 113.365 144.784C121.294 146.474 129.308 147.861 137.406 148.424C137.808 148.446 137.808 147.796 137.406 147.774C122.563 146.734 108.142 142.856 93.637 139.692C79.2165 136.572 64.5422 134.319 49.7834 136.052C41.2199 137.071 32.8467 139.389 24.4524 141.382C24.0506 141.469 24.2198 142.097 24.6215 142.011Z" fill="#DFE6E9"/>
<path d="M84.6717 137.763C97.0835 136.658 109.242 133.668 121.273 130.461C133.579 127.168 145.885 123.831 158.191 120.495C170.476 117.18 182.74 113.778 195.067 110.55C201.199 108.946 207.394 107.495 213.695 106.888C219.764 106.303 225.895 106.39 231.964 106.975C246.131 108.318 259.917 112.196 273.597 116.053C273.999 116.161 274.168 115.533 273.766 115.425C261.735 112.023 249.641 108.621 237.229 106.931C231.055 106.086 224.796 105.653 218.558 105.913C212.426 106.151 206.379 107.148 200.395 108.535C194.306 109.965 188.279 111.676 182.232 113.323C176.058 114.991 169.884 116.66 163.71 118.328C151.234 121.686 138.738 125.066 126.263 128.425C112.582 132.108 98.8173 135.835 84.6717 137.091C84.2699 137.156 84.2699 137.806 84.6717 137.763Z" fill="#DFE6E9"/>
<path d="M50.608 176.72C55.7673 176.915 60.9477 177.11 66.1069 177.305C71.1393 177.5 76.1928 177.803 81.2252 177.846C86.1307 177.89 90.8671 176.915 95.688 176.026C100.72 175.095 105.816 174.423 110.912 174.055C116.6 173.621 122.309 173.556 127.997 173.795C128.398 173.816 128.398 173.166 127.997 173.145C118.017 172.711 108.015 173.296 98.1619 174.943C93.1295 175.788 88.1394 177.088 83.0436 177.196C78.0535 177.326 73 176.936 68.0099 176.741C62.2163 176.525 56.4228 176.308 50.6292 176.091C50.2063 176.048 50.2063 176.698 50.608 176.72Z" fill="#DFE6E9"/>
<path d="M40.2261 205.104C40.5433 205.342 40.8604 205.559 41.1776 205.797C41.4736 206.014 41.8119 205.537 41.5582 205.277C40.5856 204.237 39.6341 203.219 38.6614 202.179C38.2174 201.702 37.6888 201.269 37.3293 200.727C36.7796 199.904 37.3505 199.514 37.4773 198.842C37.6253 198.149 36.9487 197.759 36.5681 197.326C35.7223 196.394 35.1726 195.224 34.7497 194.032C32.9947 189.114 32.3815 183.567 32.2124 178.367C32.1066 178.476 32.0009 178.584 31.8952 178.692C37.2236 178.194 40.3107 183.351 42.0868 187.706C44.0744 192.537 45.8928 197.586 46.1254 202.894C46.1466 203.306 46.7809 203.306 46.7598 202.894C46.506 197.217 44.5184 191.714 42.2771 186.557C40.4164 182.246 37.0544 177.544 31.8741 178.021C31.7049 178.042 31.5569 178.151 31.5569 178.346C31.6626 181.141 31.9163 183.914 32.3604 186.666C32.8044 189.352 33.3119 192.126 34.2845 194.661C34.644 195.592 35.088 196.481 35.6801 197.261C36.1029 197.802 36.8219 198.279 36.5681 199.081C36.4624 199.406 36.251 199.579 36.2721 199.969C36.3144 200.922 37.3293 201.702 37.9002 202.309C38.9574 203.436 40.0358 204.584 41.093 205.711C41.2199 205.537 41.3468 205.364 41.4736 205.191C41.1565 204.952 40.8393 204.736 40.5221 204.497C40.205 204.302 39.8878 204.866 40.2261 205.104Z" fill="#DFE6E9"/>
<path d="M44.1591 190.347C45.9986 185.407 49.2337 181.096 53.4415 178.041C53.2935 177.997 53.1455 177.954 52.9974 177.932C54.1815 180.706 54.985 183.609 55.4079 186.599C55.4713 186.469 55.5559 186.339 55.6194 186.209C55.1119 186.361 54.6044 186.512 54.0758 186.664C53.8644 186.729 53.8009 186.946 53.8855 187.141C54.4776 188.592 55.133 190.239 54.4776 191.777C53.9278 193.056 52.7437 194.009 51.9191 195.071C50.4178 196.977 49.2549 199.101 48.3668 201.354C48.2188 201.744 48.832 201.917 48.98 201.527C50.1641 198.472 51.9402 196.046 54.0335 193.597C54.7947 192.709 55.3656 191.734 55.4079 190.521C55.4502 189.221 54.9216 187.986 54.4353 186.816C54.3718 186.967 54.3084 187.141 54.245 187.292C54.7524 187.141 55.2599 186.989 55.7885 186.837C55.9577 186.794 56.0422 186.621 56 186.447C55.5559 183.392 54.7313 180.446 53.5261 177.607C53.4626 177.456 53.23 177.391 53.082 177.499C48.7263 180.684 45.4066 185.082 43.5036 190.196C43.419 190.564 44.0111 190.737 44.1591 190.347Z" fill="#DFE6E9"/>
<path d="M34.0943 181.877C39.4861 188.226 42.9961 196.134 44.0745 204.475C44.1379 204.887 44.7722 204.887 44.7088 204.475C43.5882 195.939 40.057 187.901 34.5383 181.401C34.2635 181.097 33.8194 181.552 34.0943 181.877Z" fill="#DFE6E9"/>
<path d="M47.0344 197.195C48.0282 193.598 49.4237 190.153 51.221 186.882C51.4113 186.513 50.8827 186.188 50.6713 186.557C48.8528 189.872 47.4362 193.382 46.4212 197.022C46.2944 197.433 46.9076 197.607 47.0344 197.195Z" fill="#DFE6E9"/>
<path d="M34.3056 170.069C41.7062 168.596 49.2759 168.032 56.7187 169.484C60.1864 170.156 63.6118 170.936 67.1218 171.347C70.8221 171.78 74.5646 171.954 78.286 172.105C78.6878 172.127 78.6878 171.477 78.286 171.456C74.5646 171.282 70.8221 171.131 67.1218 170.697C63.2735 170.242 59.5098 169.311 55.6826 168.639C48.5358 167.382 41.1987 168.054 34.1365 169.462C33.7347 169.527 33.9039 170.156 34.3056 170.069Z" fill="#DFE6E9"/>
<path d="M62.1953 195.83C66.4241 195.137 70.653 194.422 74.9242 194.162C79.2588 193.902 83.4454 194.27 87.6955 195.072C91.586 195.808 95.3497 196.155 99.3249 196.068C103.448 195.96 107.614 195.765 111.631 196.87C112.033 196.978 112.202 196.35 111.8 196.242C107.91 195.158 103.913 195.288 99.9169 195.397C97.8025 195.462 95.6669 195.483 93.5525 195.31C91.3746 195.137 89.2179 194.682 87.0823 194.292C82.9802 193.533 78.8994 193.252 74.7128 193.512C70.4627 193.793 66.2338 194.487 62.0261 195.18C61.6244 195.267 61.7935 195.895 62.1953 195.83Z" fill="#DFE6E9"/>
<path d="M178.426 201.008C186.355 199.838 194.327 199.144 202.341 198.971C210.143 198.798 217.945 199.123 225.747 199.296C226.149 199.296 226.149 198.646 225.747 198.646C217.818 198.473 209.868 198.148 201.918 198.343C193.988 198.538 186.102 199.231 178.257 200.379C177.855 200.444 178.024 201.051 178.426 201.008Z" fill="#DFE6E9"/>
<path d="M213.568 205.666C216.592 204.344 219.848 205.948 222.956 205.796C223.612 205.753 224.289 205.666 224.923 205.449C225.79 205.146 226.593 204.669 227.524 204.626C229.131 204.539 230.632 205.168 232.239 204.908C232.641 204.843 232.471 204.214 232.07 204.279C230.272 204.583 228.517 203.673 226.741 204.084C225.938 204.258 225.219 204.691 224.437 204.929C223.633 205.146 222.808 205.189 221.984 205.168C219.045 205.038 216.106 203.889 213.23 205.146C212.892 205.254 213.209 205.818 213.568 205.666Z" fill="#DFE6E9"/>
<path d="M256.343 181.725C261.672 180.1 267 180.143 272.455 180.815C277.594 181.443 282.774 182.267 287.933 181.335C288.335 181.27 288.166 180.642 287.764 180.707C282.393 181.682 277.001 180.685 271.652 180.078C266.387 179.472 261.249 179.537 256.153 181.118C255.794 181.227 255.942 181.855 256.343 181.725Z" fill="#DFE6E9"/>
<path d="M235.093 57.8355C231.16 55.6688 228.602 51.4654 229.194 46.8071C229.723 42.5388 233.063 38.8555 237.144 37.8588C241.31 36.8621 245.961 38.8771 248.224 42.5821C250.655 46.5471 250.127 51.7905 247.145 55.3005C243.762 59.2871 237.842 59.8938 233.571 57.0771C233.232 56.8388 232.915 57.4021 233.254 57.6404C237.229 60.2838 242.726 60.1105 246.405 56.9688C250.063 53.8488 251.417 48.4321 249.598 43.9038C247.864 39.5921 243.424 36.7755 238.878 36.9705C234.395 37.1871 230.336 40.5021 228.982 44.8571C227.291 50.2521 230.124 55.7988 234.797 58.3771C235.135 58.5938 235.453 58.0305 235.093 57.8355Z" fill="#DFE6E9"/>
<path d="M52.5956 105.22C54.7523 103.248 57.776 104.592 59.383 106.585C60.2076 107.603 60.6939 108.752 61.3283 109.878C61.73 110.637 62.3221 111.395 63.2101 111.568C63.9079 111.698 64.4788 111.438 64.944 110.918C65.24 110.572 65.4303 110.117 65.7263 109.77C66.3606 109.012 67.1853 109.098 67.8619 109.705C69.342 111.027 69.4054 114.298 72.0062 114.06C72.408 114.017 72.408 113.367 72.0062 113.41C69.2997 113.67 69.6169 109.012 67.0161 108.557C66.2549 108.427 65.6417 108.773 65.1766 109.38C64.8805 109.77 64.6902 110.312 64.3096 110.637C63.2101 111.568 62.2375 110.268 61.7934 109.38C60.7151 107.343 59.6579 105.22 57.5223 104.158C55.7673 103.292 53.6317 103.378 52.1516 104.743C51.8556 105.025 52.2996 105.502 52.5956 105.22Z" fill="#DFE6E9"/>
<path d="M194.919 76.0569C194.496 74.8869 193.989 73.5003 194.75 72.352C195.448 71.3336 196.632 71.8536 197.625 71.5286C198.936 71.0953 199.74 69.7736 200.099 68.4953C200.522 67.0003 200.015 65.0503 200.882 63.7286C201.939 62.1036 204.222 64.097 205.66 63.1003C205.999 62.862 205.681 62.2986 205.343 62.537C203.884 63.5553 201.897 61.4753 200.522 63.1436C199.423 64.4653 199.93 66.4803 199.571 68.0403C199.317 69.1236 198.746 70.272 197.752 70.792C196.885 71.247 195.892 70.792 195.025 71.247C193.164 72.222 193.756 74.6486 194.327 76.2303C194.433 76.5986 195.046 76.4469 194.919 76.0569Z" fill="#DFE6E9"/>
<path d="M197.202 60.8682C196.801 59.7848 197.033 58.5498 197.816 57.6832C198.788 56.5998 199.909 57.0332 201.114 56.5998C201.833 56.3398 202.256 55.7115 202.531 55.0182C202.7 54.5848 202.806 54.1298 202.954 53.6965C203.081 53.3498 203.229 52.9598 203.482 52.6998C203.863 52.3315 204.772 52.0282 205.005 52.8515C205.132 53.2415 205.724 53.0898 205.618 52.6782C205.343 51.7682 204.307 51.4432 203.503 51.8765C201.981 52.6782 202.531 55.0615 201.114 55.8632C200.332 56.2965 199.359 56.0365 198.535 56.3832C198.006 56.6215 197.541 57.0115 197.181 57.4665C196.399 58.4848 196.145 59.8282 196.589 61.0415C196.716 61.4315 197.329 61.2582 197.202 60.8682Z" fill="#DFE6E9"/>
<path d="M215.006 84.0081C214.372 83.0765 214.562 81.7548 215.387 80.9748C216.338 80.0648 217.712 80.4764 218.368 81.5165C219.869 83.8348 216.549 85.8715 214.964 83.9431C214.689 83.6181 214.245 84.0948 214.52 84.3981C215.429 85.5031 217.12 85.6331 218.283 84.8531C219.594 83.9865 219.7 82.2315 218.791 80.9965C217.903 79.7831 216.253 79.3714 215.069 80.3681C213.949 81.2998 213.61 83.0765 214.456 84.3115C214.689 84.6798 215.239 84.3548 215.006 84.0081Z" fill="#DFE6E9"/>
<path d="M217.395 87.6051C216.803 86.7601 216.063 85.7418 216.317 84.6585C216.698 83.0551 218.558 83.4668 219.404 84.4201C220.102 85.2218 220.356 86.4784 219.468 87.2368C218.791 87.8218 217.755 87.9301 217.142 87.2368C216.867 86.9334 216.423 87.3884 216.698 87.6918C217.543 88.6234 218.981 88.5368 219.89 87.7351C220.969 86.7818 220.842 85.2001 219.996 84.1385C219.15 83.0551 217.226 82.2751 216.169 83.5101C214.985 84.8968 215.979 86.6951 216.846 87.9301C217.078 88.2768 217.628 87.9518 217.395 87.6051Z" fill="#DFE6E9"/>
<path d="M75.199 132.758C77.5671 133.495 79.9776 133.928 82.4304 134.015C82.8321 134.037 82.8321 133.387 82.4304 133.365C80.0199 133.278 77.6517 132.867 75.3681 132.13C74.9664 132 74.7972 132.628 75.199 132.758Z" fill="#DFE6E9"/>
<path d="M233.782 115.426C248.16 115.317 261.693 120.821 275.268 124.894C279.158 126.064 283.091 127.126 287.066 127.927C287.468 128.014 287.637 127.386 287.235 127.299C273.132 124.439 259.832 118.307 245.644 115.816C241.733 115.122 237.757 114.732 233.782 114.776C233.381 114.776 233.381 115.426 233.782 115.426Z" fill="#DFE6E9"/>
<path d="M92.4318 21.4775C93.1719 23.2975 94.0811 27.3275 96.7453 25.5292C97.6333 24.9442 98.9443 23.2325 99.8958 24.6192C100.467 25.4425 100.509 26.5258 101.587 26.8942C101.968 27.0242 102.137 26.3958 101.756 26.2658C100.763 25.9192 100.763 24.3592 99.9592 23.7309C99.4306 23.3192 98.7751 23.3408 98.2042 23.6442C97.3585 24.0558 96.7453 24.9875 95.8572 25.2908C94.2714 25.8325 93.4679 22.3442 93.045 21.3042C92.8758 20.9359 92.2627 21.0875 92.4318 21.4775Z" fill="#DFE6E9"/>
<path d="M99.0075 21.8678C100.192 20.9362 101.925 21.3695 102.518 22.7778C102.877 23.6662 103.152 24.1862 104.167 24.2512C104.653 24.2728 105.182 24.0995 105.668 24.1862C106.683 24.3595 106.683 25.2695 106.852 26.1145C107.021 26.9595 107.402 27.6962 108.29 27.8045C108.692 27.8478 108.692 27.1978 108.29 27.1545C107.127 27.0245 107.613 24.5762 106.704 23.8828C105.731 23.1462 104.272 24.1212 103.511 23.2112C103.152 22.7778 103.046 22.1928 102.666 21.7595C102.369 21.3912 101.968 21.1312 101.524 20.9578C100.572 20.5678 99.515 20.6978 98.7115 21.3262C98.352 21.5645 98.6692 22.1278 99.0075 21.8678Z" fill="#DFE6E9"/>
<path d="M118.038 42.2991C119.37 42.5807 120.787 41.7141 121.146 40.3274C121.484 39.0274 120.66 37.7924 119.454 37.3807C116.642 36.4057 115.077 40.3707 117.361 41.9957C117.699 42.2341 118.017 41.6707 117.678 41.4324C116.071 40.2841 117.065 37.4024 119.116 37.9441C120.004 38.1824 120.744 39.0057 120.575 39.9807C120.385 41.0857 119.285 41.8874 118.207 41.6491C117.805 41.5841 117.636 42.2124 118.038 42.2991Z" fill="#DFE6E9"/>
<path d="M120.089 43.4048C119.581 42.9932 118.968 42.5382 118.757 41.8665C118.461 40.9565 119.306 39.8732 120.3 40.1332C120.998 40.3282 121.484 41.1515 121.315 41.8882C121.104 42.7115 120.194 43.1232 119.433 42.9282C119.031 42.8198 118.862 43.4482 119.264 43.5565C120.3 43.8165 121.442 43.3182 121.865 42.2782C122.267 41.2598 121.717 40.0248 120.744 39.5915C119.772 39.1798 118.651 39.7215 118.228 40.6748C117.636 41.9965 118.714 43.1015 119.666 43.8598C119.941 44.1198 120.406 43.6648 120.089 43.4048Z" fill="#DFE6E9"/>
<path d="M77.9055 86.1964C76.9329 85.3081 76.7426 83.9648 77.6941 82.9681C78.5187 82.1231 79.7451 82.1448 80.5274 83.0331C82.1555 84.8964 79.8085 87.3231 77.8844 86.0448C77.5461 85.8064 77.2289 86.3698 77.5672 86.6081C78.709 87.3664 80.2737 87.1064 81.1617 86.0664C82.0709 84.9831 81.7961 83.3581 80.8234 82.4048C79.7874 81.4081 78.2438 81.4731 77.2501 82.4914C76.0448 83.7264 76.2351 85.5248 77.4615 86.6514C77.7575 86.9331 78.2016 86.4781 77.9055 86.1964Z" fill="#DFE6E9"/>
<path d="M168.044 24.9449C169.271 22.1932 170.983 19.7449 173.098 17.6432C173.394 17.3615 172.95 16.8849 172.654 17.1882C170.497 19.3332 168.763 21.8249 167.495 24.6416C167.325 24.9882 167.875 25.3349 168.044 24.9449Z" fill="#DFE6E9"/>
<path d="M170.688 24.5109C171.956 22.9075 173.373 21.4125 174.895 20.0475C175.212 19.7659 174.747 19.3109 174.451 19.5925C172.929 20.9575 171.533 22.4525 170.243 24.0559C169.99 24.3809 170.434 24.8359 170.688 24.5109Z" fill="#DFE6E9"/>
<path d="M172.294 26.4618C172.865 25.9635 173.436 25.4868 174.007 24.9885C174.324 24.7285 173.859 24.2518 173.563 24.5335C172.992 25.0318 172.421 25.5085 171.85 26.0068C171.533 26.2668 171.977 26.7218 172.294 26.4618Z" fill="#DFE6E9"/>
<path d="M202.213 28.3687C203.918 28.3687 205.3 26.9524 205.3 25.2053C205.3 23.4583 203.918 22.042 202.213 22.042C200.508 22.042 199.126 23.4583 199.126 25.2053C199.126 26.9524 200.508 28.3687 202.213 28.3687Z" fill="#1890ff"/>
<path d="M200.797 33.2866C201.813 33.2866 202.636 32.4427 202.636 31.4016C202.636 30.3605 201.813 29.5166 200.797 29.5166C199.781 29.5166 198.957 30.3605 198.957 31.4016C198.957 32.4427 199.781 33.2866 200.797 33.2866Z" fill="#1890ff"/>
<path d="M103.342 117.332C104.592 117.332 105.604 116.294 105.604 115.014C105.604 113.733 104.592 112.695 103.342 112.695C102.093 112.695 101.08 113.733 101.08 115.014C101.08 116.294 102.093 117.332 103.342 117.332Z" fill="#1890ff"/>
<path d="M107.021 123.68C107.71 123.68 108.269 123.107 108.269 122.401C108.269 121.695 107.71 121.123 107.021 121.123C106.332 121.123 105.774 121.695 105.774 122.401C105.774 123.107 106.332 123.68 107.021 123.68Z" fill="#1890ff"/>
<path d="M129.054 88.6885C129.244 90.5735 129.836 92.2418 131.929 92.1985C132.648 92.1985 133.262 91.9818 133.811 92.5451C134.319 93.0651 134.171 93.5851 134.382 94.2351C134.488 94.5601 134.636 94.8634 134.932 95.0801C135.313 95.3618 136.75 95.3618 136.624 96.0118C136.539 96.4234 137.152 96.5968 137.237 96.1851C137.385 95.4484 136.898 95.0151 136.222 94.8201C135.249 94.5384 135.017 94.1484 134.869 93.2601C134.805 92.8485 134.721 92.4368 134.446 92.0901C133.896 91.4185 133.008 91.5051 132.247 91.5268C131.422 91.5701 130.64 91.5051 130.196 90.6818C129.857 90.0751 129.773 89.3385 129.709 88.6668C129.646 88.2768 129.011 88.2768 129.054 88.6885Z" fill="#1890ff"/>
<path d="M131.21 96.6614C132.31 95.4697 133.621 96.6831 133.959 97.8747C134.107 98.3514 134.128 98.8064 134.467 99.1747C135.228 100.041 136.623 99.5647 137.321 100.475C137.575 100.8 138.019 100.345 137.765 100.02C137.3 99.4131 136.644 99.3264 135.947 99.1747C135.291 99.0231 134.932 98.7847 134.678 98.1131C134.509 97.7014 134.488 97.2681 134.255 96.8564C133.536 95.5347 131.845 95.0147 130.766 96.1847C130.47 96.5097 130.914 96.9647 131.21 96.6614Z" fill="#1890ff"/>
<path d="M206.315 94.473C205.914 93.693 206.759 93.108 207.394 93.5847C207.584 93.7147 207.88 93.5414 207.88 93.303C207.817 92.5664 208.535 92.0247 209.212 92.2847C209.593 92.4364 209.762 91.808 209.381 91.6564C208.324 91.2447 207.161 92.1547 207.246 93.303C207.415 93.2164 207.563 93.108 207.732 93.0214C206.527 92.133 205.11 93.498 205.787 94.798C205.956 95.1664 206.506 94.8414 206.315 94.473Z" fill="#1890ff"/>
<path d="M209.91 94.1265C209.762 93.7582 210.777 93.6932 210.946 93.6932C211.475 93.7149 211.982 93.8015 212.511 93.8449C212.913 93.8882 212.913 93.2382 212.511 93.1949C211.686 93.1082 210.756 92.8699 209.952 93.2166C209.424 93.4549 209.128 93.8882 209.36 94.4515C209.508 94.8415 210.058 94.4949 209.91 94.1265Z" fill="#1890ff"/>
<path d="M99.7262 120.127C101.104 120.127 102.221 118.982 102.221 117.57C102.221 116.158 101.104 115.014 99.7262 115.014C98.3483 115.014 97.2312 116.158 97.2312 117.57C97.2312 118.982 98.3483 120.127 99.7262 120.127Z" fill="#F7FAFC"/>
<path d="M123.344 24.2953C125.201 24.2953 126.706 22.7529 126.706 20.8503C126.706 18.9477 125.201 17.4053 123.344 17.4053C121.488 17.4053 119.982 18.9477 119.982 20.8503C119.982 22.7529 121.488 24.2953 123.344 24.2953Z" fill="#F7FAFC"/>
<path d="M62.4063 157.481C64.7535 157.481 66.6563 155.531 66.6563 153.126C66.6563 150.72 64.7535 148.771 62.4063 148.771C60.0591 148.771 58.1562 150.72 58.1562 153.126C58.1562 155.531 60.0591 157.481 62.4063 157.481Z" fill="#F7FAFC"/>
<path d="M207.478 142.119C208.681 142.119 209.656 141.119 209.656 139.887C209.656 138.654 208.681 137.655 207.478 137.655C206.276 137.655 205.301 138.654 205.301 139.887C205.301 141.119 206.276 142.119 207.478 142.119Z" fill="#F7FAFC"/>
<path d="M183.247 192.883C187.73 191.778 192.233 190.651 196.716 189.546C199.592 189.763 203.863 189.828 208.937 188.961C213.758 188.138 222.999 185.82 222.935 183.263C222.893 181.573 218.77 180.36 211.961 178.345C207.457 177.023 203.672 176.243 201.156 175.788C198.365 177.196 195.363 178.583 192.128 179.905C187.751 181.703 183.585 183.111 179.716 184.216C180.879 187.12 182.063 190.001 183.247 192.883Z" fill="#111314" stroke="#111314" stroke-width="3" stroke-miterlimit="10"/>
<path d="M172.167 188.485C176.65 187.38 181.154 186.253 185.636 185.148C188.512 185.365 192.783 185.43 197.858 184.563C202.679 183.74 211.919 181.421 211.855 178.865C211.813 177.175 207.69 175.961 200.882 173.946C196.378 172.625 192.593 171.845 190.077 171.39C187.286 172.798 184.283 174.185 181.048 175.506C176.671 177.305 172.506 178.713 168.636 179.818C169.799 182.743 170.983 185.625 172.167 188.485Z" fill="#111314" stroke="#111314" stroke-width="3" stroke-miterlimit="10"/>
<path d="M149.035 148.466C145.039 150.676 141.592 153.125 141 153.536C138.971 154.988 134.234 158.39 129.54 163.351C122.605 170.675 116.769 176.828 117.149 184.628C117.488 191.648 122.668 196.523 123.239 197.043C132.479 205.493 152.228 202.416 172.167 189.395C171.448 185.516 170.751 181.66 170.032 177.781C171.808 177.413 175.825 176.308 179.483 172.776C184.029 168.378 185.044 163.048 185.298 161.315C185.277 159.343 185.044 157.025 184.389 154.511C182.38 146.798 177.601 141.923 175.064 139.691C168.488 140.861 158.593 143.223 149.035 148.466Z" fill="#F7FAFC" stroke="#111314" stroke-miterlimit="10"/>
<path d="M164.154 152.517C160.094 154.771 156.478 157.327 156.119 157.587C150.875 161.336 147.175 164.932 144.659 167.402C135.672 176.242 129.286 182.244 130.132 189.524C130.957 196.522 137.787 200.747 138.357 201.072C142.354 203.456 146.413 203.521 149.67 203.347C164.302 202.567 180.71 196.176 187.286 193.424C186.567 189.546 185.869 185.689 185.15 181.811C186.926 181.204 191.959 179.167 195.278 173.794C195.786 172.971 197.562 169.959 198.048 165.647C198.196 164.412 198.365 161.812 197.033 156.417C196.209 153.081 194.729 148.422 191.959 143.136C186.123 144.197 174.726 146.667 164.154 152.517Z" fill="#F7FAFC" stroke="#111314" stroke-miterlimit="10"/>
<path d="M162.23 185.95C170.074 186.145 177.898 184.931 185.319 182.353C185.7 182.223 185.531 181.595 185.15 181.725C177.771 184.303 170.032 185.516 162.23 185.3C161.828 185.278 161.828 185.928 162.23 185.95Z" fill="#111314"/>
<path d="M160.178 183.675C160.707 184.606 161.511 185.343 162.483 185.755C162.864 185.906 163.181 185.365 162.8 185.191C161.912 184.801 161.215 184.195 160.728 183.35C160.517 182.981 159.967 183.306 160.178 183.675Z" fill="#111314"/>
<path opacity="0.12" d="M173.499 167.62C166.141 171.845 162.335 171.152 155.019 177.002C153.116 178.54 141.994 187.445 143.411 196.48C143.538 197.238 144.193 201.485 147.28 203.153C148.591 203.868 149.881 203.825 151.678 203.695C157.705 203.218 162.356 202.048 162.927 201.897C170.328 200.012 169.08 200.792 174.176 199.383C177.538 198.452 182.084 196.978 187.37 194.703C186.672 190.912 185.954 187.142 185.256 183.35C186.799 182.613 188.914 181.378 191.071 179.385C192.635 177.933 197.097 173.817 198.112 167.317C198.661 163.828 197.985 161.163 196.885 156.852C195.765 152.453 194.2 149.03 193.016 146.755C186.419 158.607 179.018 164.478 173.499 167.62Z" fill="#2D3436"/>
<path opacity="0.11" d="M165.591 148.922C165.295 148.402 155.992 152.735 145.356 160.644C132.204 170.415 124.91 176.2 124.592 184.434C124.233 194.032 137.068 202.049 137.617 201.55C137.913 201.269 130.175 195.787 130.048 187.857C129.963 182.679 133.177 178.584 138.844 172.712C153.328 157.697 165.951 149.55 165.591 148.922Z" fill="#2D3436"/>
<path opacity="0.12" d="M195.49 153.623C194.517 157.566 192.508 163.395 188.11 169.136C178.743 181.335 165.444 184.151 161.553 184.823C162.208 185.473 162.843 186.21 163.498 186.99C167.008 191.323 168.742 195.96 169.651 199.6C175.403 197.563 181.154 195.505 186.884 193.468C185.996 189.871 185.129 186.253 184.241 182.656C186.059 181.898 189.02 180.36 191.811 177.435C192.974 176.2 195.786 173.188 197.097 168.421C199 161.358 196.336 155.335 195.49 153.623Z" fill="#2D3436"/>
<path d="M149.776 90.747C151.552 91.007 152.313 96.4454 152.567 98.2437C153.603 105.545 151.404 108.817 151.065 117.765C150.79 124.872 152.059 125.197 151.488 128.664C150.642 133.734 146.731 140.234 132.839 146.127C131.803 147.275 129.963 149.074 127.299 150.222C121.696 152.649 114.337 151.392 113.344 147.904C113.005 146.734 113.323 145.109 114.105 144.35C115.374 143.094 117.319 144.892 120.533 143.7C120.702 143.635 122.14 143.094 122.097 142.704C122.076 142.465 121.527 142.379 120.871 142.292C117.89 141.859 117.002 141.945 116.938 141.685C116.832 141.252 119.116 139.757 122.076 138.89C124.36 138.219 127.447 137.634 131.253 137.829C134.573 133.994 137.914 130.159 141.233 126.324C140.916 121.384 140.979 114.342 142.798 106.347C144.13 100.54 147.28 90.3787 149.776 90.747Z" fill="#F7FAFC" stroke="#111314" stroke-miterlimit="10"/>
<path opacity="0.12" d="M149.86 90.6389C147.259 90.6822 144.912 101.277 144.426 108.796C143.813 118.307 146.244 121.276 144.426 127.104C143.221 130.961 140.176 135.922 131.993 140.429C125.544 145.954 121.252 146.539 118.418 145.846C116.684 145.434 114.528 144.286 113.555 145.261C112.73 146.084 113.111 148.121 113.978 149.507C116.05 152.736 122.288 151.956 125.84 150.677C129.138 149.486 131.316 147.406 132.564 145.997C135.461 145.196 142.227 142.877 147.851 136.334C153.328 129.964 154.618 123.182 155.273 119.499C157.789 105.481 153.032 90.5739 149.86 90.6389Z" fill="#2D3436"/>
<path d="M181.936 78.1799C189.464 79.8049 195.173 86.3266 197.646 92.3282C200.374 98.9149 198.788 104.072 197.266 114.97C196.23 122.445 195.109 133.213 195.109 146.668C192.826 148.445 182.021 156.548 167.304 154.49C157.958 153.19 151.573 148.445 148.76 146.04C149.226 142.573 149.691 137.2 149.141 130.7C148.338 121.557 146.181 117.982 145.779 110.745C145.525 106.173 145.906 99.4349 149.331 90.9849C151.256 89.6416 153.983 87.8649 157.387 86.0016C167.96 80.2166 174.578 76.5982 181.936 78.1799Z" fill="#F7FAFC" stroke="#111314"/>
<path opacity="0.14" d="M174.62 88.2988C176.565 93.6288 179.314 103.509 177.855 115.729C175.424 136.031 163.012 148.576 159.164 152.172C162.251 153.429 168.636 155.509 176.777 154.556C185.975 153.472 192.276 149.096 194.919 147.016C194.686 138.002 195.215 130.506 195.807 124.937C197.625 108.167 200.903 102.122 197.414 92.9138C196.589 90.7255 193.819 83.4022 186.821 80.0222C184.981 79.1338 183.311 78.7438 182.148 78.5488C181.725 80.0872 180.752 82.8388 178.384 85.3522C177.073 86.7822 175.699 87.6922 174.62 88.2988Z" fill="#2D3436"/>
<path opacity="0.21" d="M198.154 96.0332C192.593 111.503 187.011 126.952 181.45 142.422C176.608 146.473 171.744 150.525 166.902 154.577C170.518 154.902 176.269 154.923 182.888 152.93C188.385 151.262 192.551 148.792 195.278 146.863C195.215 144.567 195.173 141.187 195.278 137.113C195.574 126.887 195.701 121.773 197.076 115.577C198.344 109.857 200.057 105.502 198.873 99.0015C198.64 97.7015 198.365 96.6832 198.154 96.0332Z" fill="#2D3436"/>
<path d="M108.565 140.774C111.081 147.014 113.618 153.254 116.135 159.472C126.369 155.832 136.624 152.171 146.858 148.531C144.405 142.529 141.952 136.506 139.52 130.504C129.202 133.927 118.883 137.351 108.565 140.774Z" fill="#F7FAFC" stroke="#111314" stroke-miterlimit="10"/>
<path d="M105.266 120.148C108.692 122.705 112.794 126.28 116.832 131.09C120.11 134.99 122.563 138.782 124.402 142.032C128.42 135.64 132.416 129.249 136.433 122.878C131.76 117.548 127.087 112.24 122.415 106.91C116.684 111.33 110.975 115.728 105.266 120.148Z" fill="#F7FAFC" stroke="#111314" stroke-miterlimit="10"/>
<path d="M86.7437 90.4219C86.7437 96.2719 86.7437 102.122 86.7437 107.994C91.1206 105.784 95.4974 103.574 99.8743 101.385C102.771 99.9336 105.668 98.4819 108.565 97.0519C107.74 92.7836 106.937 88.5369 106.112 84.2686C99.6629 86.3052 93.2138 88.3636 86.7437 90.4219Z" fill="#F7FAFC" stroke="#111314" stroke-miterlimit="10"/>
<path d="M73.9937 53.0679C76.1504 58.3112 78.3071 63.5545 80.4427 68.7979C88.0758 64.3129 95.7301 59.8279 103.363 55.3429C100.17 49.1029 96.9776 42.8629 93.7848 36.6445C91.7761 39.0279 89.3445 41.6062 86.4477 44.1629C82.0285 48.1062 77.6939 50.9662 73.9937 53.0679Z" fill="#F7FAFC" stroke="#111314" stroke-miterlimit="10"/>
<path d="M42.3827 59.9152C41.7061 63.9452 41.0506 67.9752 40.374 72.0052C48.1552 70.1852 55.9575 68.3652 63.7386 66.5235C63.5906 62.1035 63.4426 57.7052 63.2946 53.2852C56.3381 55.4952 49.3604 57.7052 42.3827 59.9152Z" fill="#F7FAFC" stroke="#111314" stroke-miterlimit="10"/>
<path d="M108.798 141.316C116.114 142.421 123.366 143.808 130.555 145.476C130.957 145.563 131.126 144.934 130.724 144.848C123.514 143.179 116.262 141.771 108.967 140.688C108.565 140.644 108.396 141.273 108.798 141.316Z" fill="#111314"/>
<path d="M139.097 130.808C136.75 135.813 133.896 140.558 130.576 144.934C130.323 145.259 130.767 145.714 131.02 145.389C134.382 140.969 137.279 136.181 139.647 131.133C139.816 130.764 139.267 130.439 139.097 130.808Z" fill="#111314"/>
<path d="M110.51 121.447C114.063 117.591 118.017 114.146 122.33 111.199C122.668 110.961 122.351 110.397 122.013 110.636C117.657 113.626 113.661 117.092 110.066 120.992C109.77 121.274 110.235 121.751 110.51 121.447Z" fill="#111314"/>
<path d="M113.576 123.397C116.24 120.386 119.179 117.656 122.351 115.251C122.668 115.012 122.351 114.449 122.034 114.687C118.799 117.136 115.817 119.887 113.132 122.942C112.836 123.246 113.28 123.701 113.576 123.397Z" fill="#111314"/>
<path d="M116.24 127.038C119.687 123.073 123.472 119.412 127.574 116.14C127.891 115.88 127.447 115.425 127.13 115.685C123.049 118.957 119.243 122.597 115.796 126.583C115.521 126.887 115.987 127.342 116.24 127.038Z" fill="#111314"/>
<path d="M120.765 131.436C121.971 129.443 123.577 127.753 125.163 126.063C126.897 124.264 128.631 122.444 130.365 120.646C130.661 120.343 130.196 119.888 129.921 120.191C128.102 122.098 126.284 123.983 124.466 125.889C122.901 127.514 121.4 129.183 120.216 131.111C120.004 131.458 120.554 131.783 120.765 131.436Z" fill="#111314"/>
<path d="M115.289 150.287C115.669 152.063 116.304 153.732 117.171 155.292C117.361 155.66 117.911 155.335 117.72 154.967C116.875 153.428 116.261 151.825 115.902 150.113C115.817 149.702 115.204 149.875 115.289 150.287Z" fill="#111314"/>
<path d="M115.796 150.676C117.911 149.376 120.194 148.575 122.626 148.228C122.499 148.163 122.372 148.076 122.245 148.011C122.668 149.42 123.07 150.806 123.493 152.215C123.62 152.605 124.233 152.453 124.106 152.041C123.683 150.633 123.282 149.246 122.859 147.838C122.795 147.643 122.647 147.578 122.478 147.621C119.983 147.968 117.657 148.813 115.5 150.135C115.12 150.33 115.437 150.893 115.796 150.676Z" fill="#111314"/>
<path d="M117.572 155.551C119.581 154.706 121.548 153.753 123.493 152.735C123.852 152.54 123.535 151.976 123.176 152.171C121.294 153.168 119.37 154.078 117.403 154.923C117.023 155.096 117.192 155.725 117.572 155.551Z" fill="#111314"/>
<path d="M133.748 145.779C136.074 144.501 138.548 143.613 141.127 143.071C141.529 142.984 141.36 142.356 140.958 142.443C138.315 142.984 135.799 143.916 133.431 145.216C133.05 145.411 133.388 145.974 133.748 145.779Z" fill="#111314"/>
<path d="M134.509 147.643C135.926 147.015 137.342 146.386 138.738 145.758C139.119 145.585 138.78 145.022 138.421 145.195C137.004 145.823 135.587 146.451 134.192 147.08C133.811 147.253 134.15 147.795 134.509 147.643Z" fill="#111314"/>
<path d="M88.6469 92.6967C93.6793 90.985 98.7116 88.905 103.934 87.865C104.336 87.7784 104.167 87.15 103.765 87.2367C98.5636 88.2984 93.5101 90.3567 88.4777 92.0684C88.0971 92.1984 88.2663 92.8267 88.6469 92.6967Z" fill="#111314"/>
<path d="M88.5622 95.4918C93.3831 93.2168 98.3732 91.3752 103.49 89.9885C103.892 89.8802 103.723 89.2518 103.321 89.3602C98.1406 90.7685 93.1083 92.6318 88.245 94.9285C87.8856 95.1018 88.2027 95.6652 88.5622 95.4918Z" fill="#111314"/>
<path d="M88.1814 98.3076C90.2959 97.4193 92.368 96.466 94.419 95.4476C94.7785 95.2743 94.4613 94.711 94.1019 94.8843C92.0931 95.881 90.0633 96.8126 88.0123 97.6793C87.6528 97.831 87.8008 98.4593 88.1814 98.3076Z" fill="#111314"/>
<path d="M89.3445 100.648C93.806 98.33 98.3732 96.2067 103.025 94.3217C103.406 94.17 103.236 93.5417 102.856 93.6934C98.1406 95.6 93.5311 97.745 89.0274 100.085C88.6468 100.28 88.9851 100.843 89.3445 100.648Z" fill="#111314"/>
<path d="M76.6789 54.4111C82.684 51.4211 88.2661 47.6511 93.3408 43.2311C93.6579 42.9495 93.1928 42.4945 92.8967 42.7761C87.8643 47.1745 82.3033 50.8795 76.3618 53.8695C75.9812 54.0428 76.2983 54.6061 76.6789 54.4111Z" fill="#111314"/>
<path d="M77.9687 57.2277C80.4849 55.7327 82.8954 54.0861 85.2212 52.2878C85.5384 52.0494 85.2212 51.4644 84.9041 51.7244C82.5782 53.5228 80.1677 55.1694 77.6515 56.6644C77.2921 56.8811 77.6092 57.4444 77.9687 57.2277Z" fill="#111314"/>
<path d="M79.5759 59.1993C84.9889 56.231 90.1904 52.9377 95.2017 49.2977C95.54 49.0593 95.2228 48.496 94.8845 48.7343C89.8944 52.3743 84.6717 55.6677 79.2587 58.636C78.8993 58.831 79.2164 59.3943 79.5759 59.1993Z" fill="#111314"/>
<path d="M80.9289 62.5577C86.9128 59.7843 92.6218 56.4477 97.9925 52.5477C98.3308 52.3093 98.0137 51.746 97.6754 51.9843C92.3258 55.8843 86.6168 59.221 80.6118 61.9943C80.2312 62.1677 80.5483 62.7093 80.9289 62.5577Z" fill="#111314"/>
<path opacity="0.13" d="M110.341 116.551C112.604 116.031 114.866 115.511 117.128 114.991C120.342 121.925 123.556 128.858 126.77 135.77C129.984 131.501 133.198 127.255 136.412 122.986C131.676 117.765 126.939 112.521 122.224 107.3C118.249 110.398 114.295 113.475 110.341 116.551Z" fill="#2D3436"/>
<path opacity="0.21" d="M93.7214 88.9042C92.5374 94.4725 91.3533 100.063 90.1692 105.631C96.2165 102.663 102.264 99.6725 108.332 96.7042C107.444 92.7609 106.577 88.7959 105.689 84.8525C101.693 86.2175 97.6966 87.5609 93.7214 88.9042Z" fill="#2D3436"/>
<path opacity="0.08" d="M120.998 137.026C122.182 139.973 123.366 142.92 124.55 145.866C126.516 146.321 128.462 146.776 130.428 147.21C132.564 148.726 134.678 150.265 136.814 151.781C140.049 150.633 143.305 149.485 146.54 148.358C144.066 142.616 141.614 136.853 139.14 131.111C135.905 132.108 132.648 133.126 129.413 134.123C127.722 136.896 126.03 139.67 124.339 142.443C123.218 140.623 122.118 138.825 120.998 137.026Z" fill="#2D3436"/>
<path opacity="0.15" d="M46.3579 60.1741C45.3429 63.7924 44.3492 67.4324 43.3342 71.0507C50.0793 69.4474 56.8244 67.8441 63.5695 66.2407C63.3369 62.0807 63.1254 57.9207 62.8929 53.7607C57.3741 55.9057 51.8554 58.0507 46.3579 60.1741Z" fill="#2D3436"/>
<path opacity="0.11" d="M83.572 47.8025C84.3544 59.5025 84.9464 65.3309 85.3693 65.3309C85.4962 65.3309 85.6019 64.7459 85.7076 63.6192C91.2475 60.7592 96.8084 57.8992 102.348 55.0392C99.5572 49.6875 96.7662 44.3575 93.9751 39.0059C90.4863 41.9309 87.0186 44.8775 83.572 47.8025Z" fill="#2D3436"/>
<path d="M192.825 86.9124C195.68 86.5224 199.148 95.0157 200.628 100.086C203.123 108.666 202.235 116.184 201.389 123.161C200.48 130.592 200.036 134.319 198.302 138.219C192.699 150.829 178.616 155.661 173.098 157.221C171.596 158.347 168.911 160.146 165.211 161.316C157.366 163.786 147.069 162.724 145.652 158.586C145.187 157.199 145.631 155.292 146.709 154.404C148.507 152.931 151.192 155.032 155.717 153.624C155.95 153.559 157.958 152.909 157.895 152.454C157.852 152.172 157.112 152.086 156.182 151.977C152.017 151.479 150.769 151.566 150.685 151.262C150.558 150.742 153.75 149.009 157.874 147.969C161.088 147.167 165.401 146.474 170.729 146.712C175.931 141.816 181.133 136.897 186.334 132.001C186.292 120.041 187.222 110.182 188.174 102.946C190.161 88.2557 191.874 87.0424 192.825 86.9124Z" fill="#F7FAFC" stroke="#111314" stroke-miterlimit="10"/>
<path d="M145.335 158.413C146.139 159.301 147.619 159.561 148.697 159.886C150.283 160.341 151.911 160.688 153.56 160.904C153.962 160.969 154.131 160.341 153.729 160.276C152.355 160.081 150.981 159.821 149.627 159.453C148.464 159.149 146.604 158.889 145.779 157.936C145.504 157.654 145.06 158.109 145.335 158.413Z" fill="#111314"/>
<path d="M145.695 156.441C148.338 158.109 151.298 159.041 154.406 159.193C154.808 159.214 154.808 158.564 154.406 158.543C151.404 158.413 148.57 157.503 146.012 155.878C145.673 155.661 145.335 156.224 145.695 156.441Z" fill="#111314"/>
<path d="M146.815 154.924C149.776 156.462 152.99 157.264 156.309 157.264C156.711 157.264 156.711 156.614 156.309 156.614C153.095 156.614 149.987 155.856 147.133 154.361C146.773 154.166 146.456 154.729 146.815 154.924Z" fill="#111314"/>
<path opacity="0.15" d="M191.726 87.8658C193.629 92.1125 196.145 99.0025 196.885 107.821C197.435 114.429 198.344 125.696 191.726 136.919C185.214 147.947 175.339 152.324 171.681 153.927C168.002 155.552 161.828 158.196 153.814 157.329C150.579 156.982 147.957 156.159 146.139 155.444C145.737 156.354 145.356 157.654 145.8 158.846C147.238 162.724 156.203 162.659 161.024 161.901C163.71 161.489 168.171 160.384 173.161 156.982C179.166 155.162 194.094 149.746 198.577 137.504C199.888 133.929 200.67 128.794 201.093 125.999C201.685 122.056 202.552 116.141 202.002 108.514C202.002 108.514 201.199 97.4858 195.236 88.4508C194.961 88.0175 194.327 87.1075 193.396 87.0425C192.678 86.9992 192.043 87.5408 191.726 87.8658Z" fill="#2D3436"/>
<path opacity="0.09" d="M201.579 116.856C200.945 116.747 199.592 123.941 198.154 128.469C195.659 136.312 189.569 146.691 173.415 156.982C177.073 156.137 182.275 154.361 187.497 150.526C190.14 148.576 194.602 145.304 197.689 139.259C199.824 135.077 200.395 131.329 201.114 126.476C201.77 122.207 202.108 116.942 201.579 116.856Z" fill="#2D3436"/>
<path d="M144.198 53.7578C144.021 54.5902 143.986 55.4408 144.021 57.1056C144.057 58.6257 144.163 61.9554 145.54 66.027C146.282 68.2348 147.253 71.1121 149.743 74.0798C149.743 74.0798 153.275 78.26 158.503 79.943C159.951 80.4135 161.099 80.5402 162.299 80.2868C163.677 80.0154 164.666 79.3277 165.213 78.8753C165.514 79.3639 165.937 80.1601 166.149 81.2278C166.485 82.8746 166.008 83.5984 166.555 84.8652C166.679 85.1547 167.156 86.1862 168.251 86.7472C169.363 87.3081 170.458 87.0367 171.412 86.8015C172.118 86.6205 173.69 86.1319 174.926 84.6842C175.35 84.1775 176.021 83.3994 176.039 82.3317C176.039 81.6259 175.756 81.1011 175.633 80.8659C175.332 80.3049 174.926 78.7667 174.114 75.6904C173.567 73.6274 173.637 71.9807 173.761 68.7053C173.831 67.0404 174.008 64.8327 174.52 62.2449C174.873 62.444 175.544 62.7335 176.339 62.5888C177.734 62.3354 178.423 60.9058 178.741 60.2362C178.829 60.0553 180.313 56.8161 178.511 54.5359C178.335 54.3188 176.904 52.5635 175.297 53.0702C174.132 53.4321 173.672 54.735 173.602 54.9522C173.231 54.4998 172.86 53.975 172.489 53.3597C171.589 51.8215 171.165 50.3557 170.97 49.2519C167.403 49.4147 164.595 48.9985 162.67 48.6004C158.697 47.768 157.478 46.7184 153.982 46.6822C151.845 46.646 149.302 46.6279 147.165 48.3832C144.94 50.2472 144.357 52.9978 144.198 53.7578Z" fill="#F7FAFC"/>
<path d="M143.809 55.4236C143.492 62.4811 145.346 69.792 150.273 74.9494C152.428 77.2114 155.077 79.003 158.026 79.9801C159.545 80.4868 161.24 80.9031 162.812 80.4326C164.436 79.9259 165.955 78.8039 167.35 77.8086C170.511 75.5466 173.319 72.5245 174.096 68.5434C174.167 68.1995 173.655 68.0548 173.584 68.3986C172.895 71.9092 170.564 74.678 167.827 76.7952C166.538 77.7905 165.143 78.7496 163.695 79.4915C161.999 80.3602 160.322 80.143 158.556 79.6001C152.622 77.7724 148.066 72.7236 145.946 66.8604C144.639 63.2231 144.18 59.3143 144.357 55.4417C144.357 55.0798 143.827 55.0798 143.809 55.4236Z" fill="#111314"/>
<path d="M165.213 79.2375C165.779 80.8119 166.149 82.4224 166.344 84.1054C166.379 84.4492 166.909 84.4492 166.873 84.1054C166.679 82.3863 166.308 80.7214 165.726 79.1109C165.602 78.767 165.09 78.9118 165.213 79.2375Z" fill="#111314"/>
<path d="M173.549 69.031C173.372 71.1845 173.478 73.356 173.867 75.4914C174.079 76.5953 174.361 77.681 174.715 78.7487C175.103 79.9069 175.686 81.0831 175.615 82.3317C175.492 84.3947 173.655 85.8967 171.871 86.4758C169.946 87.1091 166.538 86.7653 166.785 83.9242C166.82 83.5804 166.291 83.5804 166.255 83.9242C166.079 86.0234 168.021 87.2901 169.858 87.3444C171.871 87.3806 174.026 86.3853 175.262 84.7385C176.851 82.5851 175.792 80.4135 175.085 78.1334C174.149 75.2018 173.832 72.1255 174.079 69.0491C174.096 68.6872 173.567 68.6872 173.549 69.031Z" fill="#111314"/>
<path d="M165.814 79.1656C168.304 77.8265 170.388 75.854 171.853 73.411C172.03 73.1215 171.571 72.832 171.394 73.1396C169.964 75.5283 167.951 77.4103 165.531 78.7132C165.249 78.8761 165.514 79.3285 165.814 79.1656Z" fill="#111314"/>
<path d="M165.849 79.4909C167.386 78.7128 168.657 77.5727 169.858 76.3241C170.971 75.1659 171.995 73.9354 172.613 72.4153C172.737 72.0896 172.224 71.9448 172.101 72.2705C171.483 73.7906 170.388 75.003 169.275 76.1612C168.18 77.3013 166.997 78.3146 165.584 79.0204C165.266 79.1652 165.531 79.6357 165.849 79.4909Z" fill="#111314"/>
<path d="M166.008 79.817C169.063 78.0798 171.5 75.4377 172.948 72.1804C173.09 71.8728 172.631 71.5832 172.489 71.909C171.077 75.0758 168.71 77.6635 165.743 79.3465C165.443 79.5094 165.726 79.9799 166.008 79.817Z" fill="#111314"/>
<path d="M154.105 57.7214C154.141 60.9606 154.388 64.1817 154.812 67.3847C154.83 67.5476 155.077 67.6381 155.2 67.5476C156.26 66.7514 157.196 65.8465 158.061 64.8332C158.291 64.5617 157.902 64.1817 157.69 64.4531C156.86 65.4303 155.96 66.317 154.936 67.0952C155.059 67.1495 155.2 67.2038 155.324 67.258C154.9 64.1093 154.671 60.9244 154.635 57.7395C154.635 57.3594 154.105 57.3594 154.105 57.7214Z" fill="#111314"/>
<path d="M150.044 61.9193C149.62 61.7021 149.284 61.3764 149.09 60.924C148.931 60.5802 148.631 59.2772 149.408 59.4944C149.849 59.6211 150.203 60.3268 150.326 60.7249C150.397 60.9421 150.467 61.2135 150.414 61.4488C150.432 61.7021 150.309 61.8831 150.044 61.9735C149.92 61.8831 149.832 61.7745 149.743 61.6478C149.531 61.3764 149.161 61.7564 149.373 62.0278C149.92 62.7517 150.768 62.6431 150.927 61.684C151.086 60.7068 150.591 59.6754 149.832 59.1144C149.037 58.5353 148.419 59.042 148.384 59.9649C148.348 60.9783 148.931 61.9012 149.796 62.3536C150.079 62.5526 150.344 62.0821 150.044 61.9193Z" fill="#111314"/>
<path d="M148.772 59.7301C148.966 60.6711 149.408 61.5035 150.061 62.1912C150.255 62.4084 150.556 62.1731 150.503 61.9198C150.344 61.0511 149.514 60.3816 149.584 59.4768C149.425 59.5492 149.284 59.6034 149.125 59.6758C149.637 60.2911 149.938 60.9788 150.079 61.775C150.167 61.6664 150.255 61.5397 150.326 61.4312C149.779 61.4312 149.461 60.9064 149.213 60.4902C149.037 60.2006 148.578 60.4721 148.754 60.7616C149.108 61.3588 149.567 61.9741 150.326 61.9741C150.52 61.9741 150.609 61.7931 150.573 61.6302C150.432 60.7435 150.043 59.9654 149.496 59.2958C149.337 59.0967 149.055 59.2777 149.037 59.4949C148.966 60.4902 149.814 61.1416 149.973 62.0826C150.114 61.9921 150.273 61.9017 150.414 61.8112C149.814 61.1778 149.443 60.4359 149.249 59.5853C149.213 59.2415 148.701 59.3863 148.772 59.7301Z" fill="#111314"/>
<path d="M163.006 60.3451C162.582 60.1279 162.246 59.8022 162.052 59.3498C161.893 59.0059 161.593 57.703 162.37 57.9202C162.812 58.0468 163.165 58.7526 163.288 59.1507C163.359 59.3679 163.43 59.6393 163.377 59.8746C163.394 60.1279 163.271 60.3089 163.006 60.3993C162.882 60.3089 162.794 60.2003 162.706 60.0736C162.494 59.8022 162.123 60.1822 162.335 60.4536C162.882 61.1775 163.73 61.0689 163.889 60.1098C164.048 59.1326 163.553 58.1011 162.794 57.5402C161.999 56.9611 161.381 57.4678 161.346 58.3907C161.31 59.4041 161.893 60.327 162.759 60.7794C163.041 60.9784 163.306 60.5079 163.006 60.3451Z" fill="#111314"/>
<path d="M161.717 58.1373C161.911 59.0783 162.353 59.9108 163.006 60.5984C163.2 60.8156 163.5 60.5803 163.447 60.327C163.289 59.4584 162.459 58.7888 162.529 57.884C162.37 57.9564 162.229 58.0107 162.07 58.0831C162.582 58.6983 162.882 59.386 163.024 60.1822C163.112 60.0736 163.2 59.947 163.271 59.8384C162.723 59.8384 162.406 59.3136 162.158 58.8974C161.982 58.6078 161.523 58.8793 161.699 59.1688C162.052 59.766 162.512 60.3813 163.271 60.3813C163.465 60.3813 163.553 60.2003 163.518 60.0374C163.377 59.1507 162.988 58.3726 162.441 57.703C162.282 57.504 161.999 57.6849 161.982 57.9021C161.911 58.8974 162.759 59.5488 162.918 60.4898C163.059 60.3994 163.218 60.3089 163.359 60.2184C162.759 59.585 162.388 58.8431 162.194 57.9926C162.158 57.6668 161.646 57.8116 161.717 58.1373Z" fill="#111314"/>
<path d="M146.441 56.3997C146.882 54.6625 149.037 54.2644 150.061 55.7301C150.255 56.0197 150.714 55.7482 150.52 55.4587C149.249 53.631 146.511 54.0472 145.946 56.2549C145.84 56.5987 146.352 56.7254 146.441 56.3997Z" fill="#111314"/>
<path d="M159.562 53.9578C160.64 51.5511 163.483 52.7273 164.684 54.3197C164.896 54.5912 165.355 54.3197 165.143 54.0483C164.383 53.0168 163.324 52.1482 162.017 52.0396C160.816 51.9311 159.615 52.5463 159.103 53.6864C158.962 53.994 159.421 54.2654 159.562 53.9578Z" fill="#111314"/>
<path d="M153.328 71.9994C152.216 69.9003 154.829 70.0993 156.119 69.9727C157.478 69.846 158.803 69.4117 159.986 68.7059C161.258 67.964 162.07 66.8058 163.183 65.901C163.659 65.5029 164.366 65.0505 165.019 65.4124C165.567 65.7201 165.779 66.5163 165.832 67.0773C165.92 67.9278 165.708 68.7964 165.408 69.5926C164.56 71.9271 162.971 73.8633 160.622 74.6596C157.955 75.5463 154.847 74.4605 153.328 71.9994C153.152 71.7099 152.692 71.9813 152.869 72.2709C154.123 74.3158 156.489 75.6006 158.838 75.5101C161.24 75.4377 163.536 74.0081 164.86 71.9994C165.973 70.2984 167.456 66.6611 165.514 65.0686C164.436 64.1819 163.13 65.1772 162.335 65.9734C161.063 67.2582 159.862 68.3802 158.132 68.9774C157.196 69.3031 156.242 69.4298 155.253 69.466C154.6 69.4841 153.929 69.4841 153.328 69.8098C152.286 70.3889 152.357 71.3299 152.869 72.2709C153.028 72.5785 153.487 72.3071 153.328 71.9994Z" fill="#111314"/>
<path d="M153.028 72.0345C157.902 72.3603 162.564 69.9173 165.054 65.5923C165.231 65.2847 164.772 65.0132 164.595 65.3209C162.193 69.5011 157.725 71.8174 153.028 71.4916C152.692 71.4736 152.692 72.0164 153.028 72.0345Z" fill="#111314"/>
<path d="M173.249 70.2617C172.03 74.2067 169.346 77.5002 165.796 79.4908C165.496 79.6537 165.761 80.1241 166.061 79.9613C169.717 77.8983 172.489 74.4962 173.743 70.4065C173.849 70.0808 173.355 69.936 173.249 70.2617Z" fill="#111314"/>
<path d="M173.779 55.3688C173.973 53.9211 175.439 53.2334 176.745 53.6858C178.052 54.1563 178.776 55.4593 178.953 56.7984C179.147 58.1556 178.865 59.6033 178.193 60.7977C177.505 62.0101 175.951 63.1321 174.679 61.9739C174.432 61.7387 174.043 62.1187 174.308 62.3539C175.527 63.4759 177.222 62.9511 178.193 61.7568C179.324 60.3634 179.765 58.3185 179.465 56.5451C179.182 54.8802 178.105 53.3239 176.392 53.0163C174.962 52.7629 173.478 53.6858 173.266 55.2059C173.231 55.5679 173.743 55.7126 173.779 55.3688Z" fill="#111314"/>
<path d="M169.858 53.4505C169.946 53.9391 170.017 54.9344 170.723 55.3687C171.465 55.8211 172.525 55.423 173.319 55.0249C173.355 54.9344 173.973 53.3238 175.527 53.0524C176.781 52.8352 177.717 53.6315 178.017 53.8667C179.094 54.7715 179.306 56.0383 179.43 56.7621C179.677 58.1736 179.324 59.2775 179.147 59.9109C178.988 60.4537 178.776 61.1052 178.211 61.7748C177.982 62.0462 177.593 62.4986 176.975 62.7701C175.898 63.2225 174.82 62.7701 174.503 62.6253C174.185 62.8967 173.761 63.2948 173.408 63.8739C173.408 63.8739 173.372 63.9282 173.337 63.9825C172.79 64.9235 173.266 67.0046 173.337 68.1627C173.372 68.8504 173.302 69.8638 172.719 71.1305C173.372 71.4381 175.509 72.3249 178.088 71.6372C178.829 71.4381 180.737 70.9133 182.114 69.0313C183.651 66.9322 183.421 64.634 183.35 64.0911C184.233 63.2767 184.675 62.4624 184.887 61.9557C185.028 61.63 185.982 59.3318 185.028 58.3184C184.639 57.9203 184.304 58.0831 183.986 57.7393C183.562 57.305 183.439 56.2554 184.728 53.5953C185.01 53.5953 185.169 53.5048 185.275 53.4324C185.77 53.0162 185.575 51.7676 184.763 50.338C185.858 49.7227 186.953 49.1074 188.048 48.5102C187.2 48.4379 185.982 48.2207 184.869 47.4245C183.227 46.2663 183.015 44.7281 181.92 43.1719C181.072 41.9594 179.553 40.4936 176.534 39.5164C177.222 39.0278 178.194 38.2678 179.2 37.2001C179.942 36.4039 181.567 34.4857 181.231 34.0695C181.002 33.798 180.048 34.3771 178.865 34.8295C176.675 35.6439 174.838 35.5172 171.995 35.3C168.163 34.9924 167.756 34.3047 164.56 33.9066C162.458 33.6352 158.485 33.1828 154.07 34.7752C149.92 36.2772 147.412 38.865 146.317 40.005C145.311 41.0546 142.803 43.9138 141.461 48.2569C140.807 50.3561 140.189 52.5276 141.284 54.482C141.973 55.6944 143.05 56.3459 143.774 56.6897C143.704 55.4954 143.721 53.1791 145.099 50.9894C147.147 47.7502 150.803 47.0083 153.487 46.4654C155.624 46.0311 160.498 45.0539 164.825 47.8045C166.45 48.836 169.399 50.6999 169.858 53.4505Z" fill="#1890ff"/>
<path d="M153.063 71.9447C153.293 72.3971 153.752 73.1028 154.529 73.7543C154.706 73.8991 155.536 74.5686 156.807 74.9305C158.785 75.4734 160.516 74.9125 161.187 74.641C163.235 73.8086 164.26 72.2885 164.684 71.6189C165.143 70.9132 166.008 69.5741 165.955 67.7102C165.92 66.5882 165.567 65.7196 165.319 65.2129C165.143 65.3939 164.896 65.6653 164.595 65.991C163.571 67.113 162.918 67.9635 162.706 68.235C161.416 69.8093 159.474 70.696 158.856 70.9675C156.525 72.0171 154.352 72.0533 153.063 71.9447Z" fill="#111314"/>
<path d="M146.07 40.8368C145.205 41.7236 144.657 42.6465 144.339 43.2074C143.28 45.0352 142.909 46.6276 142.644 47.7677C142.326 49.1973 141.99 51.3507 142.202 54.0109C142.255 54.6442 142.626 55.1509 143.138 55.3138C143.492 55.4224 143.792 55.3319 143.933 55.2776C144.039 54.5899 144.304 53.5585 144.957 52.4727C146.105 50.5364 147.765 49.6316 148.737 49.1249C150.715 48.0934 152.463 47.9305 153.628 47.822C156.295 47.6048 158.291 48.1839 158.732 48.3106C160.622 48.8716 161.999 49.7764 162.918 50.3735C164.631 51.4774 164.878 52.0384 166.467 52.7441C168.233 53.5404 169.311 53.4861 169.664 53.4499C170.211 53.4137 171.218 53.3232 172.154 52.5632C173.001 51.8755 173.319 50.9888 173.443 50.5907C175.103 51.3326 176.322 52.1108 177.134 52.6898C179.059 54.0471 180.136 55.2957 182.732 56.7977C183.174 57.051 183.562 57.2501 183.792 57.3768C184.074 56.1824 184.357 54.9881 184.639 53.8118C184.269 53.5404 183.721 53.1422 183.032 52.6537C180.542 50.8802 178.847 49.6859 176.639 48.5096C176.004 48.1658 175.085 47.7134 173.92 47.2067C174.167 46.2295 174.485 44.438 173.867 42.4293C173.637 41.6693 173.266 40.5111 172.224 39.5701C171.571 38.991 170.918 38.7196 170.529 38.5929C166.096 36.9643 161.381 36.8919 161.381 36.8919C158.803 36.8557 155.341 36.8376 151.244 38.05C148.719 38.792 147.235 39.6425 146.07 40.8368Z" fill="#F7FAFC"/>
<path d="M144.18 55.2416C145.417 48.3289 154.741 46.5374 160.128 49.0347C161.611 49.7223 163.006 50.5909 164.384 51.4595C165.584 52.2196 166.821 52.9977 168.198 53.3415C170.229 53.8482 172.754 53.1968 173.479 50.989C173.584 50.6633 173.072 50.5185 172.966 50.8443C172.472 52.3644 170.847 53.052 169.381 52.9977C167.739 52.9253 166.273 52.0024 164.913 51.17C162.353 49.5775 159.704 47.8041 156.631 47.4965C151.474 46.9898 144.746 49.2156 143.686 55.115C143.598 55.4226 144.11 55.5855 144.18 55.2416Z" fill="#111314"/>
<path d="M143.65 54.7715C143.386 54.7172 143.121 54.663 142.838 54.6087C142.785 54.4639 142.714 54.3191 142.661 54.1744C142.591 53.9934 142.556 53.7943 142.52 53.5953C142.45 53.1791 142.432 52.7448 142.414 52.3104C142.397 51.478 142.432 50.6275 142.503 49.7951C142.626 48.0036 142.944 46.2121 143.703 44.5834C145.099 41.5613 147.924 39.5346 150.944 38.4488C154.282 37.2545 157.92 37.0011 161.434 37.0916C164.807 37.1821 168.604 37.4897 171.536 39.3536C173.478 40.5841 173.708 42.9366 173.761 45.1082C173.814 47.2073 173.496 49.2703 172.842 51.2428C172.736 51.5685 173.249 51.7133 173.355 51.3876C174.026 49.3608 174.361 47.2435 174.291 45.1082C174.238 43.371 174.132 41.0908 172.895 39.7698C171.642 38.4126 169.611 37.7431 167.88 37.3268C165.831 36.8382 163.695 36.6392 161.593 36.5668C154.158 36.3135 144.427 38.0688 142.414 46.7549C141.92 48.836 141.69 51.2428 141.955 53.3781C142.043 54.0477 142.22 54.9344 142.785 55.3687C143.244 55.7125 143.88 55.604 144.11 55.0611C144.251 54.7353 143.792 54.4639 143.65 54.7715Z" fill="#111314"/>
<path d="M142.926 54.3192C144.145 49.7047 148.101 46.2121 152.639 45.3797C155.129 44.9273 157.725 45.2349 160.074 46.1759C162.511 47.135 164.277 48.7999 166.185 50.5733C167.898 52.1839 170.211 53.5773 172.542 52.4734C172.842 52.3287 172.577 51.8582 172.277 52.0029C169.346 53.3963 166.891 50.4467 164.984 48.6551C163.253 47.0446 161.169 45.8502 158.909 45.1987C154.494 43.932 149.743 44.873 146.264 47.9675C144.427 49.6142 143.068 51.7677 142.432 54.1745C142.326 54.5183 142.838 54.6631 142.926 54.3192Z" fill="#111314"/>
<path d="M173.302 50.5551C176.851 52.7629 180.313 55.1154 183.703 57.5584C183.986 57.7574 184.251 57.2869 183.968 57.0879C180.578 54.6268 177.116 52.2924 173.567 50.0846C173.284 49.9037 173.019 50.3742 173.302 50.5551Z" fill="#111314"/>
<path d="M173.955 47.1889C177.558 49.2519 181.054 51.5139 184.41 53.975C184.692 54.1741 184.957 53.7036 184.675 53.5045C181.302 51.0434 177.823 48.7814 174.22 46.7184C173.92 46.5375 173.655 47.008 173.955 47.1889Z" fill="#111314"/>
<path d="M184.304 53.6319C183.933 54.79 183.686 55.9482 183.544 57.1606C183.509 57.5044 184.039 57.5044 184.074 57.1606C184.198 56.0025 184.445 54.8805 184.816 53.7766C184.922 53.4509 184.41 53.3061 184.304 53.6319Z" fill="#111314"/>
<path d="M152.251 45.4702C155.112 42.6653 157.99 39.8966 160.904 37.1279C161.152 36.8926 160.781 36.5126 160.534 36.7479C157.637 39.4985 154.741 42.2853 151.88 45.0902C151.633 45.3254 152.004 45.7055 152.251 45.4702Z" fill="#111314"/>
<path d="M159.421 45.7051C161.999 43.0811 164.578 40.4572 167.156 37.8151C167.403 37.5618 167.015 37.1818 166.785 37.4351C164.207 40.0591 161.628 42.683 159.05 45.3251C158.803 45.5784 159.174 45.9584 159.421 45.7051Z" fill="#111314"/>
<path opacity="0.15" d="M147.924 49.433C147.836 48.7091 147.748 48.0034 147.659 47.2795C148.489 46.7005 149.867 45.868 151.686 45.3975C155.589 44.3661 158.874 45.6328 160.375 46.2119C161.505 46.6462 162.847 47.1529 164.242 48.3653C165.319 49.3063 165.302 49.7044 166.609 50.7902C167.81 51.8036 168.975 52.7446 170.476 52.6722C171.377 52.636 172.083 52.2379 172.489 51.9484C172.878 51.3874 173.249 50.8083 173.637 50.2473C174.043 50.3016 176.587 50.6997 177.752 52.8532C177.929 53.1608 177.876 53.2875 178.282 54.4637C179.006 56.581 179.2 56.6353 179.341 57.341C179.377 57.5039 179.748 59.8021 178.194 61.3041C176.993 62.4804 175.386 62.408 175.032 62.3899C174.52 63.8376 174.432 65.0862 174.414 65.9005C174.414 67.1492 174.397 68.6693 175.386 70.0265C175.739 70.5151 176.534 71.6189 177.929 71.7275C179.606 71.8542 180.719 70.4246 180.825 70.2979C178.494 70.7503 176.145 71.2027 173.814 71.637C173.796 73.5552 174.079 75.0391 174.344 76.0344C174.979 78.4955 175.898 79.5632 175.827 81.608C175.792 82.8748 175.368 83.9063 175.032 84.5758C173.955 81.4814 172.86 78.405 171.783 75.3106C170.617 76.2335 169.452 77.1745 168.269 78.0974C168.728 77.084 169.205 76.0525 169.664 75.0391C170.264 72.3609 170.388 70.0446 170.37 68.3073C170.335 65.7558 169.664 63.2223 168.357 58.1554C167.562 55.1152 167.015 53.4865 165.549 52.1293C165.037 51.6588 164.454 51.315 163.271 50.6092C160.675 49.0711 159.386 48.2929 157.832 47.9129C154.6 47.1348 151.739 48.0215 150.379 48.4558C149.337 48.7634 148.507 49.1254 147.924 49.433Z" fill="#636E72"/>
<path opacity="0.13" d="M154.07 57.5947C153.681 59.332 153.346 61.2502 153.099 63.3493C152.975 64.5075 152.887 65.6113 152.834 66.679C153.593 66.86 154.352 67.0409 155.112 67.2219C154.759 64.0189 154.423 60.8158 154.07 57.5947Z" fill="#636E72"/>
<path opacity="0.09" d="M172.86 60.0918C172.631 61.3766 172.33 62.7157 171.942 64.1092C170.141 70.4971 167.138 75.4374 164.401 79.0023C164.754 78.8395 170.547 76.0165 172.401 71.7458C172.896 70.6238 173.302 69.6828 173.319 68.3618C173.355 66.6607 172.737 66.0093 173.16 64.7425C173.584 63.5301 174.414 63.3672 174.467 62.4624C174.52 61.5033 173.637 60.6709 172.86 60.0918Z" fill="#636E72"/>
<path opacity="0.1" d="M149.249 47.5504C149.143 48.3285 150.008 49.0342 150.45 49.3962C152.922 51.441 155.165 49.6314 159.527 50.5362C163.218 51.3144 163.924 53.1059 167.739 53.1602C169.081 53.1783 170.176 52.9792 170.9 52.8164C170.388 52.7078 169.611 52.4725 168.763 52.0201C167.297 51.242 166.432 50.2648 166.114 49.921C164.401 48.057 161.328 46.1569 159.103 45.4512C154.776 44.0578 149.496 45.795 149.249 47.5504Z" fill="#636E72"/>
</g>
<defs>
<clipPath id="clip0">
<rect width="304" height="211" fill="white"/>
</clipPath>
</defs>
</svg>
