<svg width="352" height="216" viewBox="0 0 352 216" fill="none" xmlns="http://www.w3.org/2000/svg">
<path d="M76 116C76 60.7715 120.772 16 176 16V16C231.228 16 276 60.7715 276 116V116C276 171.228 231.228 216 176 216V216C120.772 216 76 171.228 76 116V116Z" fill="#292929"/>
<path d="M267.657 180.598C263.703 176.416 260.679 171.411 258.819 165.908C258.755 166.038 258.671 166.168 258.607 166.298C259.093 166.19 259.559 166.103 260.045 165.995C260.32 165.93 260.362 165.54 260.13 165.41C258.311 164.413 258.1 161.206 257.698 159.365C257.169 156.96 256.683 154.555 256.26 152.15C255.372 147.21 254.695 142.226 254.209 137.221C254.04 137.308 253.892 137.416 253.723 137.503C257.254 139.648 260.616 142.053 263.766 144.761C266.6 147.21 269.433 149.831 271.442 153.038C273.599 156.44 274.635 160.556 275.269 164.5C275.988 168.855 275.988 173.296 274.973 177.608C274.867 178.02 275.48 178.193 275.586 177.781C277.172 171.216 276.368 164.218 274.339 157.848C272.372 151.76 267.932 147.361 263.174 143.418C260.299 141.035 257.233 138.868 254.061 136.94C253.871 136.831 253.554 136.961 253.575 137.221C254.082 142.573 254.822 147.881 255.795 153.146C256.281 155.768 256.81 158.39 257.423 160.968C257.825 162.723 258.1 165.02 259.812 165.973C259.833 165.778 259.855 165.583 259.897 165.388C259.411 165.496 258.945 165.583 258.459 165.691C258.29 165.735 258.184 165.93 258.248 166.081C260.151 171.693 263.217 176.785 267.255 181.053C267.509 181.356 267.953 180.901 267.657 180.598Z" fill="#DFE6E9"/>
<path d="M254.273 137.764C261.927 149.117 267.213 162.031 269.75 175.572C269.835 175.984 270.448 175.811 270.363 175.399C267.805 161.792 262.498 148.814 254.801 137.417C254.59 137.092 254.04 137.417 254.273 137.764Z" fill="#DFE6E9"/>
<path d="M256.81 156.439C260.003 157.154 263.365 157.956 265.585 160.621C265.839 160.946 266.304 160.469 266.029 160.166C263.745 157.414 260.278 156.548 256.979 155.811C256.577 155.724 256.408 156.353 256.81 156.439Z" fill="#DFE6E9"/>
<path d="M265.225 156.483C264.993 153.449 265.458 150.438 266.642 147.643C266.811 147.253 266.261 146.928 266.092 147.318C264.866 150.221 264.337 153.319 264.591 156.483C264.633 156.894 265.268 156.894 265.225 156.483Z" fill="#DFE6E9"/>
<path d="M270.321 150.525C271.843 140.818 278.335 133.278 284.551 126.236C284.382 126.128 284.192 126.02 284.022 125.911C282.563 131.263 285.989 136.225 287.236 141.251C287.913 144.025 288.23 146.885 288.294 149.745C288.336 151.153 288.315 152.583 288.272 153.991C288.251 154.685 288.251 155.4 288.103 156.071C287.892 157.003 286.877 158.455 285.799 157.48C285.672 157.653 285.545 157.826 285.418 158C287.279 158.996 286.602 161.856 286.306 163.525C285.925 165.778 285.291 167.923 283.874 169.743C281.823 172.343 278.884 174.271 277.912 177.608C277.785 178.02 278.398 178.171 278.525 177.781C279.73 173.708 283.98 171.758 285.735 167.988C286.644 166.038 287.046 163.741 287.236 161.618C287.384 160.08 287.236 158.238 285.735 157.458C285.439 157.306 285.059 157.718 285.355 157.978C286.01 158.585 286.919 158.585 287.659 158.086C288.484 157.523 288.738 156.483 288.822 155.508C289.161 152.236 289.013 148.791 288.632 145.541C288.251 142.291 287.406 139.236 286.221 136.225C284.974 133.018 283.684 129.616 284.636 126.128C284.72 125.825 284.318 125.565 284.107 125.803C277.827 132.931 271.251 140.58 269.708 150.373C269.644 150.763 270.257 150.936 270.321 150.525Z" fill="#DFE6E9"/>
<path d="M283.303 128.122C278.905 139.237 276.178 150.981 275.205 162.941C275.163 163.352 275.797 163.352 275.839 162.941C276.812 151.046 279.54 139.367 283.917 128.296C284.065 127.927 283.451 127.754 283.303 128.122Z" fill="#DFE6E9"/>
<path d="M222.873 162.16C228.053 163.308 233.107 160.752 238.097 159.733C243.594 158.628 249.261 158.628 254.78 159.647C255.182 159.712 255.351 159.105 254.949 159.018C249.832 158.065 244.609 158 239.492 158.823C236.871 159.257 234.333 159.993 231.796 160.73C228.941 161.532 226.002 162.182 223.063 161.532C222.64 161.445 222.471 162.052 222.873 162.16Z" fill="#DFE6E9"/>
<path d="M287.617 160.166C290.62 159.581 293.58 160.318 296.477 161.055C299.31 161.748 302.164 162.376 305.061 162.896C310.643 163.893 316.31 164.478 321.977 164.716C322.379 164.738 322.379 164.088 321.977 164.066C315.951 163.828 309.967 163.156 304.025 162.051C301.15 161.51 298.316 160.838 295.483 160.145C292.84 159.495 290.154 159.018 287.448 159.56C287.067 159.625 287.236 160.253 287.617 160.166Z" fill="#DFE6E9"/>
<path d="M48.6215 142.011C56.1067 140.234 63.5918 138.176 71.1826 137.049C78.7524 135.944 86.4278 135.814 94.0609 136.486C108.735 137.786 122.987 141.729 137.365 144.784C145.294 146.474 153.308 147.861 161.406 148.424C161.808 148.446 161.808 147.796 161.406 147.774C146.563 146.734 132.142 142.856 117.637 139.692C103.216 136.572 88.5422 134.319 73.7834 136.052C65.2199 137.071 56.8467 139.389 48.4524 141.382C48.0506 141.469 48.2198 142.097 48.6215 142.011Z" fill="#DFE6E9"/>
<path d="M108.672 137.763C121.084 136.658 133.242 133.668 145.273 130.461C157.579 127.168 169.885 123.831 182.191 120.495C194.476 117.18 206.74 113.778 219.067 110.55C225.199 108.946 231.394 107.495 237.695 106.888C243.764 106.303 249.896 106.39 255.964 106.975C270.131 108.318 283.917 112.196 297.598 116.053C297.999 116.161 298.168 115.533 297.767 115.425C285.735 112.023 273.641 108.621 261.229 106.931C255.055 106.086 248.796 105.653 242.559 105.913C236.427 106.151 230.379 107.148 224.395 108.535C218.306 109.965 212.28 111.676 206.232 113.323C200.058 114.991 193.884 116.66 187.71 118.328C175.235 121.686 162.738 125.066 150.263 128.425C136.583 132.108 122.818 135.835 108.672 137.091C108.27 137.156 108.27 137.806 108.672 137.763Z" fill="#DFE6E9"/>
<path d="M74.6078 176.72C79.767 176.915 84.9474 177.11 90.1067 177.305C95.1391 177.5 100.193 177.803 105.225 177.846C110.13 177.89 114.867 176.915 119.688 176.026C124.72 175.095 129.816 174.423 134.912 174.055C140.6 173.621 146.309 173.556 151.996 173.795C152.398 173.816 152.398 173.166 151.996 173.145C142.016 172.711 132.015 173.296 122.162 174.943C117.129 175.788 112.139 177.088 107.043 177.196C102.053 177.326 96.9998 176.936 92.0097 176.741C86.2161 176.525 80.4225 176.308 74.6289 176.091C74.2061 176.048 74.2061 176.698 74.6078 176.72Z" fill="#DFE6E9"/>
<path d="M64.2259 205.104C64.543 205.342 64.8602 205.559 65.1774 205.797C65.4734 206.014 65.8117 205.537 65.558 205.277C64.5853 204.237 63.6338 203.219 62.6612 202.179C62.2171 201.702 61.6885 201.269 61.3291 200.727C60.7793 199.904 61.3502 199.514 61.4771 198.842C61.6251 198.149 60.9485 197.759 60.5679 197.326C59.7221 196.394 59.1723 195.224 58.7495 194.032C56.9945 189.114 56.3813 183.567 56.2121 178.367C56.1064 178.476 56.0007 178.584 55.895 178.692C61.2234 178.194 64.3104 183.351 66.0866 187.706C68.0742 192.537 69.8926 197.586 70.1252 202.894C70.1463 203.306 70.7807 203.306 70.7595 202.894C70.5058 197.217 68.5182 191.714 66.2769 186.557C64.4162 182.246 61.0542 177.544 55.8738 178.021C55.7047 178.042 55.5566 178.151 55.5566 178.346C55.6624 181.141 55.9161 183.914 56.3601 186.666C56.8042 189.352 57.3116 192.126 58.2843 194.661C58.6437 195.592 59.0878 196.481 59.6798 197.261C60.1027 197.802 60.8216 198.279 60.5679 199.081C60.4622 199.406 60.2507 199.579 60.2719 199.969C60.3141 200.922 61.3291 201.702 61.9 202.309C62.9572 203.436 64.0356 204.584 65.0928 205.711C65.2197 205.537 65.3465 205.364 65.4734 205.191C65.1562 204.952 64.8391 204.736 64.5219 204.497C64.2047 204.302 63.8876 204.866 64.2259 205.104Z" fill="#DFE6E9"/>
<path d="M68.1588 190.347C69.9984 185.407 73.2335 181.096 77.4412 178.041C77.2932 177.997 77.1452 177.954 76.9972 177.932C78.1813 180.706 78.9848 183.609 79.4077 186.599C79.4711 186.469 79.5557 186.339 79.6191 186.209C79.1116 186.361 78.6042 186.512 78.0756 186.664C77.8641 186.729 77.8007 186.946 77.8853 187.141C78.4773 188.592 79.1328 190.239 78.4773 191.777C77.9276 193.056 76.7435 194.009 75.9188 195.071C74.4176 196.977 73.2546 199.101 72.3666 201.354C72.2186 201.744 72.8317 201.917 72.9798 201.527C74.1638 198.472 75.94 196.046 78.0333 193.597C78.7945 192.709 79.3654 191.734 79.4077 190.521C79.45 189.221 78.9213 187.986 78.435 186.816C78.3716 186.967 78.3082 187.141 78.2447 187.292C78.7522 187.141 79.2597 186.989 79.7883 186.837C79.9574 186.794 80.042 186.621 79.9997 186.447C79.5557 183.392 78.731 180.446 77.5258 177.607C77.4624 177.456 77.2298 177.391 77.0818 177.499C72.726 180.684 69.4063 185.082 67.5033 190.196C67.4188 190.564 68.0108 190.737 68.1588 190.347Z" fill="#DFE6E9"/>
<path d="M58.0943 181.877C63.4861 188.226 66.9961 196.134 68.0745 204.475C68.1379 204.887 68.7722 204.887 68.7088 204.475C67.5882 195.939 64.057 187.901 58.5383 181.401C58.2635 181.097 57.8194 181.552 58.0943 181.877Z" fill="#DFE6E9"/>
<path d="M71.0347 197.195C72.0285 193.598 73.424 190.153 75.2213 186.882C75.4116 186.513 74.8829 186.188 74.6715 186.557C72.8531 189.872 71.4364 193.382 70.4215 197.022C70.2946 197.433 70.9078 197.607 71.0347 197.195Z" fill="#DFE6E9"/>
<path d="M58.3056 170.069C65.7062 168.596 73.2759 168.032 80.7187 169.484C84.1864 170.156 87.6118 170.936 91.1218 171.347C94.8221 171.78 98.5646 171.954 102.286 172.105C102.688 172.127 102.688 171.477 102.286 171.456C98.5646 171.282 94.8221 171.131 91.1218 170.697C87.2735 170.242 83.5098 169.311 79.6826 168.639C72.5358 167.382 65.1987 168.054 58.1365 169.462C57.7347 169.527 57.9039 170.156 58.3056 170.069Z" fill="#DFE6E9"/>
<path d="M86.1953 195.83C90.4241 195.137 94.653 194.422 98.9242 194.162C103.259 193.902 107.445 194.27 111.695 195.072C115.586 195.808 119.35 196.155 123.325 196.068C127.448 195.96 131.614 195.765 135.631 196.87C136.033 196.978 136.202 196.35 135.8 196.242C131.91 195.158 127.913 195.288 123.917 195.397C121.802 195.462 119.667 195.483 117.552 195.31C115.375 195.137 113.218 194.682 111.082 194.292C106.98 193.533 102.899 193.252 98.7128 193.512C94.4627 193.793 90.2338 194.487 86.0261 195.18C85.6244 195.267 85.7935 195.895 86.1953 195.83Z" fill="#DFE6E9"/>
<path d="M202.426 201.008C210.355 199.838 218.327 199.144 226.341 198.971C234.143 198.798 241.945 199.123 249.747 199.296C250.149 199.296 250.149 198.646 249.747 198.646C241.818 198.473 233.868 198.148 225.918 198.343C217.988 198.538 210.102 199.231 202.257 200.379C201.855 200.444 202.024 201.051 202.426 201.008Z" fill="#DFE6E9"/>
<path d="M237.568 205.666C240.592 204.344 243.848 205.948 246.956 205.796C247.612 205.753 248.289 205.666 248.923 205.449C249.79 205.146 250.593 204.669 251.524 204.626C253.131 204.539 254.632 205.168 256.239 204.908C256.641 204.843 256.471 204.214 256.07 204.279C254.272 204.583 252.517 203.673 250.741 204.084C249.938 204.258 249.219 204.691 248.437 204.929C247.633 205.146 246.808 205.189 245.984 205.168C243.045 205.038 240.106 203.889 237.23 205.146C236.892 205.254 237.209 205.818 237.568 205.666Z" fill="#DFE6E9"/>
<path d="M280.343 181.725C285.671 180.1 291 180.143 296.455 180.815C301.593 181.443 306.774 182.267 311.933 181.335C312.335 181.27 312.165 180.642 311.764 180.707C306.393 181.682 301.001 180.685 295.652 180.078C290.387 179.472 285.249 179.537 280.153 181.118C279.793 181.227 279.941 181.855 280.343 181.725Z" fill="#DFE6E9"/>
<path d="M259.093 57.8355C255.16 55.6688 252.602 51.4654 253.194 46.8071C253.722 42.5388 257.063 38.8555 261.144 37.8588C265.309 36.8621 269.961 38.8771 272.224 42.5821C274.655 46.5471 274.127 51.7905 271.145 55.3005C267.762 59.2871 261.842 59.8938 257.571 57.0771C257.232 56.8388 256.915 57.4021 257.253 57.6404C261.229 60.2838 266.726 60.1105 270.405 56.9688C274.063 53.8488 275.416 48.4321 273.598 43.9038C271.864 39.5921 267.424 36.7755 262.878 36.9705C258.395 37.1871 254.335 40.5021 252.982 44.8571C251.291 50.2521 254.124 55.7988 258.797 58.3771C259.135 58.5938 259.452 58.0305 259.093 57.8355Z" fill="#DFE6E9"/>
<path d="M76.5954 105.22C78.7521 103.248 81.7758 104.592 83.3827 106.585C84.2074 107.603 84.6937 108.752 85.328 109.878C85.7298 110.637 86.3218 111.395 87.2099 111.568C87.9076 111.698 88.4785 111.438 88.9437 110.918C89.2397 110.572 89.43 110.117 89.7261 109.77C90.3604 109.012 91.185 109.098 91.8617 109.705C93.3418 111.027 93.4052 114.298 96.006 114.06C96.4077 114.017 96.4077 113.367 96.006 113.41C93.2995 113.67 93.6166 109.012 91.0159 108.557C90.2547 108.427 89.6415 108.773 89.1763 109.38C88.8803 109.77 88.69 110.312 88.3094 110.637C87.2099 111.568 86.2372 110.268 85.7932 109.38C84.7148 107.343 83.6576 105.22 81.522 104.158C79.767 103.292 77.6314 103.378 76.1513 104.743C75.8553 105.025 76.2993 105.502 76.5954 105.22Z" fill="#DFE6E9"/>
<path d="M218.919 76.0569C218.496 74.8869 217.989 73.5003 218.75 72.352C219.448 71.3336 220.632 71.8536 221.626 71.5286C222.937 71.0953 223.74 69.7736 224.1 68.4953C224.522 67.0003 224.015 65.0503 224.882 63.7286C225.939 62.1036 228.223 64.097 229.661 63.1003C229.999 62.862 229.682 62.2986 229.343 62.537C227.884 63.5553 225.897 61.4753 224.522 63.1436C223.423 64.4653 223.93 66.4803 223.571 68.0403C223.317 69.1236 222.746 70.272 221.752 70.792C220.886 71.247 219.892 70.792 219.025 71.247C217.164 72.222 217.756 74.6486 218.327 76.2303C218.433 76.5986 219.046 76.4469 218.919 76.0569Z" fill="#DFE6E9"/>
<path d="M221.202 60.8682C220.801 59.7848 221.033 58.5498 221.816 57.6832C222.788 56.5998 223.909 57.0332 225.114 56.5998C225.833 56.3398 226.256 55.7115 226.531 55.0182C226.7 54.5848 226.806 54.1298 226.954 53.6965C227.081 53.3498 227.229 52.9598 227.482 52.6998C227.863 52.3315 228.772 52.0282 229.005 52.8515C229.132 53.2415 229.724 53.0898 229.618 52.6782C229.343 51.7682 228.307 51.4432 227.503 51.8765C225.981 52.6782 226.531 55.0615 225.114 55.8632C224.332 56.2965 223.359 56.0365 222.535 56.3832C222.006 56.6215 221.541 57.0115 221.181 57.4665C220.399 58.4848 220.145 59.8282 220.589 61.0415C220.716 61.4315 221.329 61.2582 221.202 60.8682Z" fill="#DFE6E9"/>
<path d="M239.006 84.0081C238.372 83.0765 238.562 81.7548 239.387 80.9748C240.338 80.0648 241.712 80.4764 242.368 81.5165C243.869 83.8348 240.549 85.8715 238.964 83.9431C238.689 83.6181 238.245 84.0948 238.52 84.3981C239.429 85.5031 241.12 85.6331 242.283 84.8531C243.594 83.9865 243.7 82.2315 242.791 80.9965C241.903 79.7831 240.253 79.3714 239.069 80.3681C237.949 81.2998 237.61 83.0765 238.456 84.3115C238.689 84.6798 239.239 84.3548 239.006 84.0081Z" fill="#DFE6E9"/>
<path d="M241.395 87.6051C240.803 86.7601 240.063 85.7418 240.317 84.6585C240.698 83.0551 242.558 83.4668 243.404 84.4201C244.102 85.2218 244.356 86.4784 243.468 87.2368C242.791 87.8218 241.755 87.9301 241.142 87.2368C240.867 86.9334 240.423 87.3884 240.698 87.6918C241.543 88.6234 242.981 88.5368 243.89 87.7351C244.969 86.7818 244.842 85.2001 243.996 84.1385C243.15 83.0551 241.226 82.2751 240.169 83.5101C238.985 84.8968 239.979 86.6951 240.846 87.9301C241.078 88.2768 241.628 87.9518 241.395 87.6051Z" fill="#DFE6E9"/>
<path d="M99.199 132.758C101.567 133.495 103.978 133.928 106.43 134.015C106.832 134.037 106.832 133.387 106.43 133.365C104.02 133.278 101.652 132.867 99.3681 132.13C98.9664 132 98.7972 132.628 99.199 132.758Z" fill="#DFE6E9"/>
<path d="M257.782 115.426C272.16 115.317 285.693 120.821 299.268 124.894C303.158 126.064 307.091 127.126 311.066 127.927C311.468 128.014 311.637 127.386 311.235 127.299C297.132 124.439 283.832 118.307 269.644 115.816C265.733 115.122 261.757 114.732 257.782 114.776C257.381 114.776 257.381 115.426 257.782 115.426Z" fill="#DFE6E9"/>
<path d="M116.432 21.4775C117.172 23.2975 118.081 27.3275 120.745 25.5292C121.633 24.9442 122.944 23.2325 123.896 24.6192C124.466 25.4425 124.509 26.5258 125.587 26.8942C125.968 27.0242 126.137 26.3958 125.756 26.2658C124.762 25.9192 124.762 24.3592 123.959 23.7309C123.43 23.3192 122.775 23.3408 122.204 23.6442C121.358 24.0558 120.745 24.9875 119.857 25.2908C118.271 25.8325 117.468 22.3442 117.045 21.3042C116.876 20.9359 116.262 21.0875 116.432 21.4775Z" fill="#DFE6E9"/>
<path d="M123.008 21.8678C124.192 20.9362 125.925 21.3695 126.518 22.7778C126.877 23.6662 127.152 24.1862 128.167 24.2512C128.653 24.2728 129.182 24.0995 129.668 24.1862C130.683 24.3595 130.683 25.2695 130.852 26.1145C131.021 26.9595 131.402 27.6962 132.29 27.8045C132.692 27.8478 132.692 27.1978 132.29 27.1545C131.127 27.0245 131.613 24.5762 130.704 23.8828C129.731 23.1462 128.272 24.1212 127.511 23.2112C127.152 22.7778 127.046 22.1928 126.666 21.7595C126.369 21.3912 125.968 21.1312 125.524 20.9578C124.572 20.5678 123.515 20.6978 122.711 21.3262C122.352 21.5645 122.669 22.1278 123.008 21.8678Z" fill="#DFE6E9"/>
<path d="M142.038 42.2991C143.37 42.5807 144.787 41.7141 145.146 40.3274C145.485 39.0274 144.66 37.7924 143.455 37.3807C140.642 36.4057 139.078 40.3707 141.361 41.9957C141.7 42.2341 142.017 41.6707 141.679 41.4324C140.072 40.2841 141.065 37.4024 143.116 37.9441C144.004 38.1824 144.744 39.0057 144.575 39.9807C144.385 41.0857 143.286 41.8874 142.207 41.6491C141.805 41.5841 141.636 42.2124 142.038 42.2991Z" fill="#DFE6E9"/>
<path d="M144.088 43.4048C143.581 42.9932 142.968 42.5382 142.756 41.8665C142.46 40.9565 143.306 39.8732 144.3 40.1332C144.998 40.3282 145.484 41.1515 145.315 41.8882C145.103 42.7115 144.194 43.1232 143.433 42.9282C143.031 42.8198 142.862 43.4482 143.264 43.5565C144.3 43.8165 145.442 43.3182 145.865 42.2782C146.266 41.2598 145.717 40.0248 144.744 39.5915C143.771 39.1798 142.651 39.7215 142.228 40.6748C141.636 41.9965 142.714 43.1015 143.666 43.8598C143.94 44.1198 144.406 43.6648 144.088 43.4048Z" fill="#DFE6E9"/>
<path d="M101.906 86.1964C100.933 85.3081 100.743 83.9648 101.694 82.9681C102.519 82.1231 103.745 82.1448 104.528 83.0331C106.156 84.8964 103.809 87.3231 101.885 86.0448C101.546 85.8064 101.229 86.3698 101.567 86.6081C102.709 87.3664 104.274 87.1064 105.162 86.0664C106.071 84.9831 105.796 83.3581 104.824 82.4048C103.788 81.4081 102.244 81.4731 101.25 82.4914C100.045 83.7264 100.235 85.5248 101.462 86.6514C101.758 86.9331 102.202 86.4781 101.906 86.1964Z" fill="#DFE6E9"/>
<path d="M192.044 24.9449C193.27 22.1932 194.983 19.7449 197.098 17.6432C197.394 17.3615 196.95 16.8849 196.654 17.1882C194.497 19.3332 192.763 21.8249 191.494 24.6416C191.325 24.9882 191.875 25.3349 192.044 24.9449Z" fill="#DFE6E9"/>
<path d="M194.687 24.5109C195.956 22.9075 197.373 21.4125 198.895 20.0475C199.212 19.7659 198.747 19.3109 198.451 19.5925C196.929 20.9575 195.533 22.4525 194.243 24.0559C193.99 24.3809 194.434 24.8359 194.687 24.5109Z" fill="#DFE6E9"/>
<path d="M196.294 26.4618C196.865 25.9635 197.436 25.4868 198.007 24.9885C198.324 24.7285 197.859 24.2518 197.563 24.5335C196.992 25.0318 196.421 25.5085 195.85 26.0068C195.533 26.2668 195.977 26.7218 196.294 26.4618Z" fill="#DFE6E9"/>
<path d="M226.214 28.3687C227.918 28.3687 229.301 26.9524 229.301 25.2053C229.301 23.4583 227.918 22.042 226.214 22.042C224.509 22.042 223.126 23.4583 223.126 25.2053C223.126 26.9524 224.509 28.3687 226.214 28.3687Z" fill="#1890ff"/>
<path d="M224.797 33.2866C225.813 33.2866 226.636 32.4427 226.636 31.4016C226.636 30.3605 225.813 29.5166 224.797 29.5166C223.781 29.5166 222.957 30.3605 222.957 31.4016C222.957 32.4427 223.781 33.2866 224.797 33.2866Z" fill="#1890ff"/>
<path d="M127.342 117.332C128.592 117.332 129.604 116.294 129.604 115.014C129.604 113.733 128.592 112.695 127.342 112.695C126.093 112.695 125.08 113.733 125.08 115.014C125.08 116.294 126.093 117.332 127.342 117.332Z" fill="#1890ff"/>
<path d="M131.021 123.68C131.71 123.68 132.268 123.107 132.268 122.401C132.268 121.695 131.71 121.123 131.021 121.123C130.332 121.123 129.773 121.695 129.773 122.401C129.773 123.107 130.332 123.68 131.021 123.68Z" fill="#1890ff"/>
<path d="M153.054 88.6885C153.244 90.5735 153.836 92.2418 155.929 92.1985C156.648 92.1985 157.262 91.9818 157.811 92.5451C158.319 93.0651 158.171 93.5851 158.382 94.2351C158.488 94.5601 158.636 94.8634 158.932 95.0801C159.313 95.3618 160.75 95.3618 160.624 96.0118C160.539 96.4234 161.152 96.5968 161.237 96.1851C161.385 95.4484 160.898 95.0151 160.222 94.8201C159.249 94.5384 159.017 94.1484 158.869 93.2601C158.805 92.8485 158.721 92.4368 158.446 92.0901C157.896 91.4185 157.008 91.5051 156.247 91.5268C155.422 91.5701 154.64 91.5051 154.196 90.6818C153.857 90.0751 153.773 89.3385 153.709 88.6668C153.646 88.2768 153.011 88.2768 153.054 88.6885Z" fill="#1890ff"/>
<path d="M155.211 96.6614C156.31 95.4697 157.621 96.6831 157.959 97.8747C158.107 98.3514 158.129 98.8064 158.467 99.1747C159.228 100.041 160.624 99.5647 161.321 100.475C161.575 100.8 162.019 100.345 161.765 100.02C161.3 99.4131 160.645 99.3264 159.947 99.1747C159.291 99.0231 158.932 98.7847 158.678 98.1131C158.509 97.7014 158.488 97.2681 158.255 96.8564C157.536 95.5347 155.845 95.0147 154.767 96.1847C154.471 96.5097 154.915 96.9647 155.211 96.6614Z" fill="#1890ff"/>
<path d="M230.315 94.473C229.914 93.693 230.759 93.108 231.394 93.5847C231.584 93.7147 231.88 93.5414 231.88 93.303C231.817 92.5664 232.535 92.0247 233.212 92.2847C233.593 92.4364 233.762 91.808 233.381 91.6564C232.324 91.2447 231.161 92.1547 231.246 93.303C231.415 93.2164 231.563 93.108 231.732 93.0214C230.527 92.133 229.11 93.498 229.787 94.798C229.956 95.1664 230.506 94.8414 230.315 94.473Z" fill="#1890ff"/>
<path d="M233.91 94.1265C233.762 93.7582 234.777 93.6932 234.946 93.6932C235.475 93.7149 235.982 93.8015 236.511 93.8449C236.912 93.8882 236.912 93.2382 236.511 93.1949C235.686 93.1082 234.756 92.8699 233.952 93.2166C233.423 93.4549 233.127 93.8882 233.36 94.4515C233.508 94.8415 234.058 94.4949 233.91 94.1265Z" fill="#1890ff"/>
<path d="M123.726 120.127C125.104 120.127 126.221 118.982 126.221 117.57C126.221 116.158 125.104 115.014 123.726 115.014C122.348 115.014 121.231 116.158 121.231 117.57C121.231 118.982 122.348 120.127 123.726 120.127Z" fill="#F7FAFC"/>
<path d="M147.344 24.2953C149.201 24.2953 150.706 22.7529 150.706 20.8503C150.706 18.9477 149.201 17.4053 147.344 17.4053C145.488 17.4053 143.982 18.9477 143.982 20.8503C143.982 22.7529 145.488 24.2953 147.344 24.2953Z" fill="#F7FAFC"/>
<path d="M86.4063 157.481C88.7535 157.481 90.6563 155.531 90.6563 153.126C90.6563 150.72 88.7535 148.771 86.4063 148.771C84.0591 148.771 82.1562 150.72 82.1562 153.126C82.1562 155.531 84.0591 157.481 86.4063 157.481Z" fill="#F7FAFC"/>
<path d="M231.478 142.119C232.681 142.119 233.656 141.119 233.656 139.887C233.656 138.654 232.681 137.655 231.478 137.655C230.275 137.655 229.3 138.654 229.3 139.887C229.3 141.119 230.275 142.119 231.478 142.119Z" fill="#F7FAFC"/>
<path d="M207.247 192.883C211.73 191.778 216.233 190.651 220.716 189.546C223.592 189.763 227.863 189.828 232.937 188.961C237.758 188.138 246.999 185.82 246.935 183.263C246.893 181.573 242.77 180.36 235.961 178.345C231.457 177.023 227.672 176.243 225.156 175.788C222.365 177.196 219.363 178.583 216.128 179.905C211.751 181.703 207.585 183.111 203.716 184.216C204.879 187.12 206.063 190.001 207.247 192.883Z" fill="#111314" stroke="#111314" stroke-width="3" stroke-miterlimit="10"/>
<path d="M196.167 188.485C200.65 187.38 205.154 186.253 209.636 185.148C212.512 185.365 216.783 185.43 221.858 184.563C226.679 183.74 235.919 181.421 235.855 178.865C235.813 177.175 231.69 175.961 224.882 173.946C220.378 172.625 216.593 171.845 214.077 171.39C211.286 172.798 208.283 174.185 205.048 175.506C200.671 177.305 196.506 178.713 192.636 179.818C193.799 182.743 194.983 185.625 196.167 188.485Z" fill="#111314" stroke="#111314" stroke-width="3" stroke-miterlimit="10"/>
<path d="M173.035 148.466C169.039 150.676 165.592 153.125 165 153.536C162.971 154.988 158.234 158.39 153.54 163.351C146.605 170.675 140.769 176.828 141.149 184.628C141.488 191.648 146.668 196.523 147.239 197.043C156.479 205.493 176.228 202.416 196.167 189.395C195.448 185.516 194.751 181.66 194.032 177.781C195.808 177.413 199.825 176.308 203.483 172.776C208.029 168.378 209.044 163.048 209.298 161.315C209.277 159.343 209.044 157.025 208.389 154.511C206.38 146.798 201.601 141.923 199.064 139.691C192.488 140.861 182.593 143.223 173.035 148.466Z" fill="#F7FAFC" stroke="#111314" stroke-miterlimit="10"/>
<path d="M188.154 152.517C184.094 154.771 180.478 157.327 180.119 157.587C174.875 161.336 171.175 164.932 168.659 167.402C159.672 176.242 153.286 182.244 154.132 189.524C154.957 196.522 161.787 200.747 162.357 201.072C166.354 203.456 170.413 203.521 173.67 203.347C188.302 202.567 204.71 196.176 211.286 193.424C210.567 189.546 209.869 185.689 209.15 181.811C210.926 181.204 215.959 179.167 219.278 173.794C219.786 172.971 221.562 169.959 222.048 165.647C222.196 164.412 222.365 161.812 221.033 156.417C220.209 153.081 218.729 148.422 215.959 143.136C210.123 144.197 198.726 146.667 188.154 152.517Z" fill="#F7FAFC" stroke="#111314" stroke-miterlimit="10"/>
<path d="M186.23 185.95C194.074 186.145 201.898 184.931 209.319 182.353C209.7 182.223 209.531 181.595 209.15 181.725C201.771 184.303 194.032 185.516 186.23 185.3C185.828 185.278 185.828 185.928 186.23 185.95Z" fill="#111314"/>
<path d="M184.178 183.675C184.707 184.606 185.511 185.343 186.483 185.755C186.864 185.906 187.181 185.365 186.8 185.191C185.912 184.801 185.215 184.195 184.728 183.35C184.517 182.981 183.967 183.306 184.178 183.675Z" fill="#111314"/>
<path opacity="0.12" d="M197.499 167.62C190.141 171.845 186.335 171.152 179.019 177.002C177.116 178.54 165.994 187.445 167.411 196.48C167.538 197.238 168.193 201.485 171.28 203.153C172.591 203.868 173.881 203.825 175.678 203.695C181.705 203.218 186.356 202.048 186.927 201.897C194.328 200.012 193.08 200.792 198.176 199.383C201.538 198.452 206.084 196.978 211.37 194.703C210.672 190.912 209.954 187.142 209.256 183.35C210.799 182.613 212.914 181.378 215.071 179.385C216.635 177.933 221.097 173.817 222.112 167.317C222.661 163.828 221.985 161.163 220.885 156.852C219.765 152.453 218.2 149.03 217.016 146.755C210.419 158.607 203.018 164.478 197.499 167.62Z" fill="#2D3436"/>
<path opacity="0.11" d="M189.591 148.922C189.295 148.402 179.992 152.735 169.356 160.644C156.204 170.415 148.91 176.2 148.592 184.434C148.233 194.032 161.068 202.049 161.617 201.55C161.913 201.269 154.175 195.787 154.048 187.857C153.963 182.679 157.177 178.584 162.844 172.712C177.328 157.697 189.951 149.55 189.591 148.922Z" fill="#2D3436"/>
<path opacity="0.12" d="M219.49 153.623C218.517 157.566 216.509 163.395 212.111 169.136C202.744 181.335 189.444 184.151 185.553 184.823C186.209 185.473 186.843 186.21 187.499 186.99C191.008 191.323 192.742 195.96 193.652 199.6C199.403 197.563 205.154 195.505 210.884 193.468C209.996 189.871 209.129 186.253 208.241 182.656C210.06 181.898 213.02 180.36 215.811 177.435C216.974 176.2 219.786 173.188 221.097 168.421C223 161.358 220.336 155.335 219.49 153.623Z" fill="#2D3436"/>
<path d="M173.775 90.747C175.551 91.007 176.313 96.4454 176.566 98.2437C177.602 105.545 175.403 108.817 175.065 117.765C174.79 124.872 176.059 125.197 175.488 128.664C174.642 133.734 170.73 140.234 156.839 146.127C155.803 147.275 153.963 149.074 151.299 150.222C145.695 152.649 138.337 151.392 137.343 147.904C137.005 146.734 137.322 145.109 138.105 144.35C139.373 143.094 141.319 144.892 144.533 143.7C144.702 143.635 146.14 143.094 146.097 142.704C146.076 142.465 145.526 142.379 144.871 142.292C141.889 141.859 141.001 141.945 140.938 141.685C140.832 141.252 143.116 139.757 146.076 138.89C148.36 138.219 151.447 137.634 155.253 137.829C158.572 133.994 161.913 130.159 165.233 126.324C164.916 121.384 164.979 114.342 166.798 106.347C168.13 100.54 171.28 90.3787 173.775 90.747Z" fill="#F7FAFC" stroke="#111314" stroke-miterlimit="10"/>
<path opacity="0.12" d="M173.86 90.6389C171.259 90.6822 168.912 101.277 168.426 108.796C167.812 118.307 170.244 121.276 168.426 127.104C167.22 130.961 164.176 135.922 155.993 140.429C149.544 145.954 145.251 146.539 142.418 145.846C140.684 145.434 138.527 144.286 137.555 145.261C136.73 146.084 137.111 148.121 137.978 149.507C140.05 152.736 146.287 151.956 149.84 150.677C153.138 149.486 155.316 147.406 156.564 145.997C159.46 145.196 166.227 142.877 171.851 136.334C177.327 129.964 178.617 123.182 179.273 119.499C181.789 105.481 177.031 90.5739 173.86 90.6389Z" fill="#2D3436"/>
<path d="M205.936 78.1799C213.464 79.8049 219.173 86.3266 221.646 92.3282C224.374 98.9149 222.788 104.072 221.266 114.97C220.23 122.445 219.109 133.213 219.109 146.668C216.826 148.445 206.021 156.548 191.304 154.49C181.958 153.19 175.573 148.445 172.76 146.04C173.226 142.573 173.691 137.2 173.141 130.7C172.338 121.557 170.181 117.982 169.779 110.745C169.525 106.173 169.906 99.4349 173.331 90.9849C175.256 89.6416 177.983 87.8649 181.387 86.0016C191.96 80.2166 198.578 76.5982 205.936 78.1799Z" fill="#F7FAFC" stroke="#111314"/>
<path opacity="0.14" d="M198.62 88.2988C200.565 93.6288 203.314 103.509 201.855 115.729C199.424 136.031 187.012 148.576 183.164 152.172C186.251 153.429 192.636 155.509 200.777 154.556C209.975 153.472 216.276 149.096 218.919 147.016C218.686 138.002 219.215 130.506 219.807 124.937C221.625 108.167 224.903 102.122 221.414 92.9138C220.589 90.7255 217.819 83.4022 210.821 80.0222C208.981 79.1338 207.311 78.7438 206.148 78.5488C205.725 80.0872 204.752 82.8388 202.384 85.3522C201.073 86.7822 199.699 87.6922 198.62 88.2988Z" fill="#2D3436"/>
<path opacity="0.21" d="M222.154 96.0332C216.593 111.503 211.011 126.952 205.45 142.422C200.608 146.473 195.744 150.525 190.902 154.577C194.518 154.902 200.269 154.923 206.888 152.93C212.385 151.262 216.551 148.792 219.278 146.863C219.215 144.567 219.173 141.187 219.278 137.113C219.574 126.887 219.701 121.773 221.076 115.577C222.344 109.857 224.057 105.502 222.873 99.0015C222.64 97.7015 222.365 96.6832 222.154 96.0332Z" fill="#2D3436"/>
<path d="M132.565 140.774C135.081 147.014 137.618 153.254 140.135 159.472C150.369 155.832 160.624 152.171 170.858 148.531C168.405 142.529 165.952 136.506 163.52 130.504C153.202 133.927 142.883 137.351 132.565 140.774Z" fill="#F7FAFC" stroke="#111314" stroke-miterlimit="10"/>
<path d="M129.267 120.148C132.692 122.705 136.794 126.28 140.833 131.09C144.11 134.99 146.563 138.782 148.402 142.032C152.42 135.64 156.416 129.249 160.434 122.878C155.761 117.548 151.088 112.24 146.415 106.91C140.685 111.33 134.976 115.728 129.267 120.148Z" fill="#F7FAFC" stroke="#111314" stroke-miterlimit="10"/>
<path d="M110.744 90.4219C110.744 96.2719 110.744 102.122 110.744 107.994C115.121 105.784 119.497 103.574 123.874 101.385C126.771 99.9336 129.668 98.4819 132.565 97.0519C131.74 92.7836 130.937 88.5369 130.112 84.2686C123.663 86.3052 117.214 88.3636 110.744 90.4219Z" fill="#F7FAFC" stroke="#111314" stroke-miterlimit="10"/>
<path d="M97.9937 53.0679C100.15 58.3112 102.307 63.5545 104.443 68.7979C112.076 64.3129 119.73 59.8279 127.363 55.3429C124.17 49.1029 120.978 42.8629 117.785 36.6445C115.776 39.0279 113.344 41.6062 110.448 44.1629C106.029 48.1062 101.694 50.9662 97.9937 53.0679Z" fill="#F7FAFC" stroke="#111314" stroke-miterlimit="10"/>
<path d="M66.3827 59.9152C65.7061 63.9452 65.0506 67.9752 64.374 72.0052C72.1552 70.1852 79.9575 68.3652 87.7386 66.5235C87.5906 62.1035 87.4426 57.7052 87.2946 53.2852C80.3381 55.4952 73.3604 57.7052 66.3827 59.9152Z" fill="#F7FAFC" stroke="#111314" stroke-miterlimit="10"/>
<path d="M132.798 141.316C140.114 142.421 147.366 143.808 154.555 145.476C154.957 145.563 155.126 144.934 154.724 144.848C147.514 143.179 140.262 141.771 132.967 140.688C132.565 140.644 132.396 141.273 132.798 141.316Z" fill="#111314"/>
<path d="M163.097 130.808C160.75 135.813 157.896 140.558 154.576 144.934C154.323 145.259 154.767 145.714 155.02 145.389C158.382 140.969 161.279 136.181 163.647 131.133C163.816 130.764 163.267 130.439 163.097 130.808Z" fill="#111314"/>
<path d="M134.51 121.447C138.063 117.591 142.017 114.146 146.33 111.199C146.668 110.961 146.351 110.397 146.013 110.636C141.657 113.626 137.661 117.092 134.066 120.992C133.77 121.274 134.235 121.751 134.51 121.447Z" fill="#111314"/>
<path d="M137.576 123.397C140.24 120.386 143.179 117.656 146.351 115.251C146.668 115.012 146.351 114.449 146.034 114.687C142.799 117.136 139.817 119.887 137.132 122.942C136.836 123.246 137.28 123.701 137.576 123.397Z" fill="#111314"/>
<path d="M140.241 127.038C143.687 123.073 147.472 119.412 151.574 116.14C151.891 115.88 151.447 115.425 151.13 115.685C147.049 118.957 143.243 122.597 139.797 126.583C139.522 126.887 139.987 127.342 140.241 127.038Z" fill="#111314"/>
<path d="M144.765 131.436C145.971 129.443 147.577 127.753 149.163 126.063C150.897 124.264 152.631 122.444 154.365 120.646C154.661 120.343 154.196 119.888 153.921 120.191C152.102 122.098 150.284 123.983 148.466 125.889C146.901 127.514 145.4 129.183 144.216 131.111C144.004 131.458 144.554 131.783 144.765 131.436Z" fill="#111314"/>
<path d="M139.289 150.287C139.669 152.063 140.304 153.732 141.171 155.292C141.361 155.66 141.911 155.335 141.72 154.967C140.875 153.428 140.261 151.825 139.902 150.113C139.817 149.702 139.204 149.875 139.289 150.287Z" fill="#111314"/>
<path d="M139.796 150.676C141.911 149.376 144.194 148.575 146.626 148.228C146.499 148.163 146.372 148.076 146.245 148.011C146.668 149.42 147.07 150.806 147.493 152.215C147.62 152.605 148.233 152.453 148.106 152.041C147.683 150.633 147.281 149.246 146.858 147.838C146.795 147.643 146.647 147.578 146.478 147.621C143.983 147.968 141.657 148.813 139.5 150.135C139.12 150.33 139.437 150.893 139.796 150.676Z" fill="#111314"/>
<path d="M141.572 155.551C143.581 154.706 145.547 153.753 147.493 152.735C147.852 152.54 147.535 151.976 147.175 152.171C145.294 153.168 143.369 154.078 141.403 154.923C141.022 155.096 141.192 155.725 141.572 155.551Z" fill="#111314"/>
<path d="M157.748 145.779C160.074 144.501 162.548 143.613 165.127 143.071C165.529 142.984 165.36 142.356 164.958 142.443C162.315 142.984 159.799 143.916 157.431 145.216C157.05 145.411 157.388 145.974 157.748 145.779Z" fill="#111314"/>
<path d="M158.509 147.643C159.926 147.015 161.342 146.386 162.738 145.758C163.119 145.585 162.78 145.022 162.421 145.195C161.004 145.823 159.587 146.451 158.192 147.08C157.811 147.253 158.15 147.795 158.509 147.643Z" fill="#111314"/>
<path d="M112.647 92.6967C117.679 90.985 122.712 88.905 127.934 87.865C128.336 87.7784 128.167 87.15 127.765 87.2367C122.564 88.2984 117.51 90.3567 112.478 92.0684C112.097 92.1984 112.266 92.8267 112.647 92.6967Z" fill="#111314"/>
<path d="M112.562 95.4918C117.383 93.2168 122.373 91.3752 127.49 89.9885C127.892 89.8802 127.723 89.2518 127.321 89.3602C122.141 90.7685 117.108 92.6318 112.245 94.9285C111.886 95.1018 112.203 95.6652 112.562 95.4918Z" fill="#111314"/>
<path d="M112.182 98.3076C114.296 97.4193 116.368 96.466 118.419 95.4476C118.779 95.2743 118.462 94.711 118.102 94.8843C116.093 95.881 114.064 96.8126 112.012 97.6793C111.653 97.831 111.801 98.4593 112.182 98.3076Z" fill="#111314"/>
<path d="M113.345 100.648C117.806 98.33 122.373 96.2067 127.025 94.3217C127.406 94.17 127.236 93.5417 126.856 93.6934C122.141 95.6 117.531 97.745 113.027 100.085C112.647 100.28 112.985 100.843 113.345 100.648Z" fill="#111314"/>
<path d="M100.679 54.4111C106.684 51.4211 112.266 47.6511 117.341 43.2311C117.658 42.9495 117.193 42.4945 116.897 42.7761C111.864 47.1745 106.303 50.8795 100.362 53.8695C99.9812 54.0428 100.298 54.6061 100.679 54.4111Z" fill="#111314"/>
<path d="M101.969 57.2277C104.485 55.7327 106.896 54.0861 109.221 52.2878C109.539 52.0494 109.221 51.4644 108.904 51.7244C106.578 53.5228 104.168 55.1694 101.652 56.6644C101.292 56.8811 101.609 57.4444 101.969 57.2277Z" fill="#111314"/>
<path d="M103.576 59.1993C108.989 56.231 114.19 52.9377 119.202 49.2977C119.54 49.0593 119.223 48.496 118.884 48.7343C113.894 52.3743 108.672 55.6677 103.259 58.636C102.899 58.831 103.216 59.3943 103.576 59.1993Z" fill="#111314"/>
<path d="M104.929 62.5577C110.913 59.7843 116.622 56.4477 121.993 52.5477C122.331 52.3093 122.014 51.746 121.675 51.9843C116.326 55.8843 110.617 59.221 104.612 61.9943C104.231 62.1677 104.548 62.7093 104.929 62.5577Z" fill="#111314"/>
<path opacity="0.13" d="M134.341 116.551C136.603 116.031 138.866 115.511 141.128 114.991C144.342 121.925 147.556 128.858 150.77 135.77C153.984 131.501 157.198 127.255 160.412 122.986C155.676 117.765 150.939 112.521 146.224 107.3C142.249 110.398 138.295 113.475 134.341 116.551Z" fill="#2D3436"/>
<path opacity="0.21" d="M117.721 88.9042C116.537 94.4725 115.353 100.063 114.169 105.631C120.216 102.663 126.264 99.6725 132.332 96.7042C131.444 92.7609 130.577 88.7959 129.689 84.8525C125.693 86.2175 121.696 87.5609 117.721 88.9042Z" fill="#2D3436"/>
<path opacity="0.08" d="M144.998 137.026C146.182 139.973 147.366 142.92 148.55 145.866C150.516 146.321 152.462 146.776 154.428 147.21C156.564 148.726 158.678 150.265 160.814 151.781C164.049 150.633 167.305 149.485 170.54 148.358C168.066 142.616 165.613 136.853 163.139 131.111C159.904 132.108 156.648 133.126 153.413 134.123C151.721 136.896 150.03 139.67 148.338 142.443C147.218 140.623 146.118 138.825 144.998 137.026Z" fill="#2D3436"/>
<path opacity="0.15" d="M70.3581 60.1741C69.3432 63.7924 68.3494 67.4324 67.3345 71.0507C74.0796 69.4474 80.8246 67.8441 87.5697 66.2407C87.3371 62.0807 87.1257 57.9207 86.8931 53.7607C81.3744 55.9057 75.8557 58.0507 70.3581 60.1741Z" fill="#2D3436"/>
<path opacity="0.11" d="M107.572 47.8025C108.355 59.5025 108.947 65.3309 109.37 65.3309C109.496 65.3309 109.602 64.7459 109.708 63.6192C115.248 60.7592 120.809 57.8992 126.349 55.0392C123.557 49.6875 120.766 44.3575 117.975 39.0059C114.487 41.9309 111.019 44.8775 107.572 47.8025Z" fill="#2D3436"/>
<path d="M216.825 86.9124C219.68 86.5224 223.148 95.0157 224.628 100.086C227.123 108.666 226.235 116.184 225.389 123.161C224.48 130.592 224.036 134.319 222.302 138.219C216.699 150.829 202.616 155.661 197.098 157.221C195.596 158.347 192.911 160.146 189.211 161.316C181.366 163.786 171.069 162.724 169.652 158.586C169.187 157.199 169.631 155.292 170.709 154.404C172.507 152.931 175.192 155.032 179.717 153.624C179.95 153.559 181.958 152.909 181.895 152.454C181.852 152.172 181.112 152.086 180.182 151.977C176.017 151.479 174.769 151.566 174.685 151.262C174.558 150.742 177.75 149.009 181.874 147.969C185.088 147.167 189.401 146.474 194.729 146.712C199.931 141.816 205.133 136.897 210.334 132.001C210.292 120.041 211.222 110.182 212.174 102.946C214.161 88.2557 215.874 87.0424 216.825 86.9124Z" fill="#F7FAFC" stroke="#111314" stroke-miterlimit="10"/>
<path d="M169.335 158.413C170.139 159.301 171.619 159.561 172.697 159.886C174.283 160.341 175.911 160.688 177.56 160.904C177.962 160.969 178.131 160.341 177.729 160.276C176.355 160.081 174.981 159.821 173.627 159.453C172.464 159.149 170.604 158.889 169.779 157.936C169.504 157.654 169.06 158.109 169.335 158.413Z" fill="#111314"/>
<path d="M169.695 156.441C172.338 158.109 175.298 159.041 178.406 159.193C178.808 159.214 178.808 158.564 178.406 158.543C175.404 158.413 172.57 157.503 170.012 155.878C169.673 155.661 169.335 156.224 169.695 156.441Z" fill="#111314"/>
<path d="M170.815 154.924C173.776 156.462 176.99 157.264 180.309 157.264C180.711 157.264 180.711 156.614 180.309 156.614C177.095 156.614 173.987 155.856 171.133 154.361C170.773 154.166 170.456 154.729 170.815 154.924Z" fill="#111314"/>
<path opacity="0.15" d="M215.726 87.8658C217.629 92.1125 220.145 99.0025 220.885 107.821C221.435 114.429 222.344 125.696 215.726 136.919C209.214 147.947 199.339 152.324 195.681 153.927C192.002 155.552 185.828 158.196 177.814 157.329C174.579 156.982 171.957 156.159 170.139 155.444C169.737 156.354 169.356 157.654 169.8 158.846C171.238 162.724 180.203 162.659 185.024 161.901C187.71 161.489 192.171 160.384 197.161 156.982C203.166 155.162 218.094 149.746 222.577 137.504C223.888 133.929 224.67 128.794 225.093 125.999C225.685 122.056 226.552 116.141 226.002 108.514C226.002 108.514 225.199 97.4858 219.236 88.4508C218.961 88.0175 218.327 87.1075 217.396 87.0425C216.678 86.9992 216.043 87.5408 215.726 87.8658Z" fill="#2D3436"/>
<path opacity="0.09" d="M225.579 116.856C224.945 116.747 223.592 123.941 222.154 128.469C219.659 136.312 213.569 146.691 197.415 156.982C201.073 156.137 206.275 154.361 211.497 150.526C214.14 148.576 218.602 145.304 221.689 139.259C223.824 135.077 224.395 131.329 225.114 126.476C225.77 122.207 226.108 116.942 225.579 116.856Z" fill="#2D3436"/>
<path d="M168.198 53.7578C168.022 54.5902 167.986 55.4408 168.022 57.1056C168.057 58.6257 168.163 61.9554 169.54 66.027C170.282 68.2348 171.253 71.1121 173.743 74.0798C173.743 74.0798 177.275 78.26 182.503 79.943C183.951 80.4135 185.099 80.5402 186.3 80.2868C187.677 80.0154 188.666 79.3277 189.214 78.8753C189.514 79.3639 189.938 80.1601 190.15 81.2278C190.485 82.8746 190.008 83.5984 190.556 84.8652C190.679 85.1547 191.156 86.1862 192.251 86.7472C193.364 87.3081 194.459 87.0367 195.412 86.8015C196.119 86.6205 197.69 86.1319 198.927 84.6842C199.35 84.1775 200.021 83.3994 200.039 82.3317C200.039 81.6259 199.757 81.1011 199.633 80.8659C199.333 80.3049 198.927 78.7667 198.114 75.6904C197.567 73.6274 197.637 71.9807 197.761 68.7053C197.832 67.0404 198.008 64.8327 198.52 62.2449C198.874 62.444 199.545 62.7335 200.339 62.5888C201.735 62.3354 202.423 60.9058 202.741 60.2362C202.829 60.0553 204.313 56.8161 202.512 54.5359C202.335 54.3188 200.904 52.5635 199.297 53.0702C198.132 53.4321 197.673 54.735 197.602 54.9522C197.231 54.4998 196.86 53.975 196.489 53.3597C195.589 51.8215 195.165 50.3557 194.971 49.2519C191.403 49.4147 188.595 48.9985 186.671 48.6004C182.697 47.768 181.479 46.7184 177.982 46.6822C175.845 46.646 173.302 46.6279 171.165 48.3832C168.94 50.2472 168.357 52.9978 168.198 53.7578Z" fill="#F7FAFC"/>
<path d="M167.809 55.4236C167.492 62.4811 169.346 69.792 174.273 74.9494C176.428 77.2114 179.077 79.003 182.026 79.9801C183.545 80.4868 185.24 80.9031 186.812 80.4326C188.436 79.9259 189.955 78.8039 191.35 77.8086C194.511 75.5466 197.319 72.5245 198.096 68.5434C198.167 68.1995 197.655 68.0548 197.584 68.3986C196.895 71.9092 194.564 74.678 191.827 76.7952C190.538 77.7905 189.143 78.7496 187.695 79.4915C185.999 80.3602 184.322 80.143 182.556 79.6001C176.622 77.7724 172.066 72.7236 169.946 66.8604C168.639 63.2231 168.18 59.3143 168.357 55.4417C168.357 55.0798 167.827 55.0798 167.809 55.4236Z" fill="#111314"/>
<path d="M189.213 79.2375C189.779 80.8119 190.149 82.4224 190.344 84.1054C190.379 84.4492 190.909 84.4492 190.873 84.1054C190.679 82.3863 190.308 80.7214 189.726 79.1109C189.602 78.767 189.09 78.9118 189.213 79.2375Z" fill="#111314"/>
<path d="M197.549 69.031C197.372 71.1845 197.478 73.356 197.867 75.4914C198.079 76.5953 198.361 77.681 198.715 78.7487C199.103 79.9069 199.686 81.0831 199.615 82.3317C199.492 84.3947 197.655 85.8967 195.871 86.4758C193.946 87.1091 190.538 86.7653 190.785 83.9242C190.82 83.5804 190.291 83.5804 190.255 83.9242C190.079 86.0234 192.021 87.2901 193.858 87.3444C195.871 87.3806 198.026 86.3853 199.262 84.7385C200.851 82.5851 199.792 80.4135 199.085 78.1334C198.149 75.2018 197.832 72.1255 198.079 69.0491C198.096 68.6872 197.567 68.6872 197.549 69.031Z" fill="#111314"/>
<path d="M189.814 79.1656C192.304 77.8265 194.388 75.854 195.854 73.411C196.03 73.1215 195.571 72.832 195.395 73.1396C193.964 75.5283 191.951 77.4103 189.531 78.7132C189.249 78.8761 189.514 79.3285 189.814 79.1656Z" fill="#111314"/>
<path d="M189.849 79.4909C191.386 78.7128 192.657 77.5727 193.858 76.3241C194.971 75.1659 195.995 73.9354 196.613 72.4153C196.737 72.0896 196.225 71.9448 196.101 72.2705C195.483 73.7906 194.388 75.003 193.275 76.1612C192.18 77.3013 190.997 78.3146 189.584 79.0204C189.267 79.1652 189.531 79.6357 189.849 79.4909Z" fill="#111314"/>
<path d="M190.008 79.817C193.063 78.0798 195.5 75.4377 196.948 72.1804C197.09 71.8728 196.631 71.5832 196.489 71.909C195.077 75.0758 192.71 77.6635 189.743 79.3465C189.443 79.5094 189.726 79.9799 190.008 79.817Z" fill="#111314"/>
<path d="M178.105 57.7214C178.141 60.9606 178.388 64.1817 178.812 67.3847C178.83 67.5476 179.077 67.6381 179.2 67.5476C180.26 66.7514 181.196 65.8465 182.061 64.8332C182.291 64.5617 181.902 64.1817 181.69 64.4531C180.86 65.4303 179.96 66.317 178.936 67.0952C179.059 67.1495 179.2 67.2038 179.324 67.258C178.9 64.1093 178.671 60.9244 178.635 57.7395C178.635 57.3594 178.105 57.3594 178.105 57.7214Z" fill="#111314"/>
<path d="M174.043 61.9193C173.62 61.7021 173.284 61.3764 173.09 60.924C172.931 60.5802 172.631 59.2772 173.408 59.4944C173.849 59.6211 174.202 60.3268 174.326 60.7249C174.397 60.9421 174.467 61.2135 174.414 61.4488C174.432 61.7021 174.308 61.8831 174.043 61.9735C173.92 61.8831 173.831 61.7745 173.743 61.6478C173.531 61.3764 173.16 61.7564 173.372 62.0278C173.92 62.7517 174.767 62.6431 174.926 61.684C175.085 60.7068 174.591 59.6754 173.831 59.1144C173.037 58.5353 172.419 59.042 172.383 59.9649C172.348 60.9783 172.931 61.9012 173.796 62.3536C174.079 62.5526 174.344 62.0821 174.043 61.9193Z" fill="#111314"/>
<path d="M172.772 59.7301C172.966 60.6711 173.408 61.5035 174.061 62.1912C174.256 62.4084 174.556 62.1731 174.503 61.9198C174.344 61.0511 173.514 60.3816 173.585 59.4768C173.426 59.5492 173.284 59.6034 173.125 59.6758C173.638 60.2911 173.938 60.9788 174.079 61.775C174.167 61.6664 174.256 61.5397 174.326 61.4312C173.779 61.4312 173.461 60.9064 173.214 60.4902C173.037 60.2006 172.578 60.4721 172.755 60.7616C173.108 61.3588 173.567 61.9741 174.326 61.9741C174.521 61.9741 174.609 61.7931 174.574 61.6302C174.432 60.7435 174.044 59.9654 173.496 59.2958C173.337 59.0967 173.055 59.2777 173.037 59.4949C172.966 60.4902 173.814 61.1416 173.973 62.0826C174.114 61.9921 174.273 61.9017 174.415 61.8112C173.814 61.1778 173.443 60.4359 173.249 59.5853C173.214 59.2415 172.702 59.3863 172.772 59.7301Z" fill="#111314"/>
<path d="M187.006 60.3451C186.582 60.1279 186.246 59.8022 186.052 59.3498C185.893 59.0059 185.593 57.703 186.37 57.9202C186.812 58.0468 187.165 58.7526 187.288 59.1507C187.359 59.3679 187.43 59.6393 187.377 59.8746C187.394 60.1279 187.271 60.3089 187.006 60.3993C186.882 60.3089 186.794 60.2003 186.706 60.0736C186.494 59.8022 186.123 60.1822 186.335 60.4536C186.882 61.1775 187.73 61.0689 187.889 60.1098C188.048 59.1326 187.553 58.1011 186.794 57.5402C185.999 56.9611 185.381 57.4678 185.346 58.3907C185.31 59.4041 185.893 60.327 186.759 60.7794C187.041 60.9784 187.306 60.5079 187.006 60.3451Z" fill="#111314"/>
<path d="M185.717 58.1373C185.911 59.0783 186.352 59.9108 187.006 60.5984C187.2 60.8156 187.5 60.5803 187.447 60.327C187.288 59.4584 186.458 58.7888 186.529 57.884C186.37 57.9564 186.229 58.0107 186.07 58.0831C186.582 58.6983 186.882 59.386 187.023 60.1822C187.112 60.0736 187.2 59.947 187.271 59.8384C186.723 59.8384 186.405 59.3136 186.158 58.8974C185.981 58.6078 185.522 58.8793 185.699 59.1688C186.052 59.766 186.511 60.3813 187.271 60.3813C187.465 60.3813 187.553 60.2003 187.518 60.0374C187.377 59.1507 186.988 58.3726 186.441 57.703C186.282 57.504 185.999 57.6849 185.981 57.9021C185.911 58.8974 186.759 59.5488 186.917 60.4898C187.059 60.3994 187.218 60.3089 187.359 60.2184C186.759 59.585 186.388 58.8431 186.193 57.9926C186.158 57.6668 185.646 57.8116 185.717 58.1373Z" fill="#111314"/>
<path d="M170.441 56.3997C170.882 54.6625 173.037 54.2644 174.061 55.7301C174.256 56.0197 174.715 55.7482 174.52 55.4587C173.249 53.631 170.512 54.0472 169.946 56.2549C169.841 56.5987 170.353 56.7254 170.441 56.3997Z" fill="#111314"/>
<path d="M183.562 53.9578C184.64 51.5511 187.483 52.7273 188.684 54.3197C188.896 54.5912 189.355 54.3197 189.143 54.0483C188.384 53.0168 187.324 52.1482 186.017 52.0396C184.816 51.9311 183.615 52.5463 183.103 53.6864C182.962 53.994 183.421 54.2654 183.562 53.9578Z" fill="#111314"/>
<path d="M177.328 71.9994C176.215 69.9003 178.829 70.0993 180.118 69.9727C181.478 69.846 182.803 69.4117 183.986 68.7059C185.257 67.964 186.07 66.8058 187.182 65.901C187.659 65.5029 188.366 65.0505 189.019 65.4124C189.566 65.7201 189.778 66.5163 189.831 67.0773C189.92 67.9278 189.708 68.7964 189.407 69.5926C188.56 71.9271 186.97 73.8633 184.622 74.6596C181.955 75.5463 178.847 74.4605 177.328 71.9994C177.151 71.7099 176.692 71.9813 176.869 72.2709C178.123 74.3158 180.489 75.6006 182.838 75.5101C185.24 75.4377 187.536 74.0081 188.86 71.9994C189.973 70.2984 191.456 66.6611 189.513 65.0686C188.436 64.1819 187.129 65.1772 186.335 65.9734C185.063 67.2582 183.862 68.3802 182.132 68.9774C181.196 69.3031 180.242 69.4298 179.253 69.466C178.6 69.4841 177.928 69.4841 177.328 69.8098C176.286 70.3889 176.357 71.3299 176.869 72.2709C177.028 72.5785 177.487 72.3071 177.328 71.9994Z" fill="#111314"/>
<path d="M177.028 72.0345C181.902 72.3603 186.564 69.9173 189.055 65.5923C189.231 65.2847 188.772 65.0132 188.595 65.3209C186.194 69.5011 181.726 71.8174 177.028 71.4916C176.692 71.4736 176.692 72.0164 177.028 72.0345Z" fill="#111314"/>
<path d="M197.249 70.2617C196.03 74.2067 193.346 77.5002 189.796 79.4908C189.496 79.6537 189.761 80.1241 190.061 79.9613C193.717 77.8983 196.489 74.4962 197.743 70.4065C197.849 70.0808 197.354 69.936 197.249 70.2617Z" fill="#111314"/>
<path d="M197.779 55.3688C197.973 53.9211 199.439 53.2334 200.745 53.6858C202.052 54.1563 202.776 55.4593 202.953 56.7984C203.147 58.1556 202.865 59.6033 202.193 60.7977C201.505 62.0101 199.951 63.1321 198.679 61.9739C198.432 61.7387 198.043 62.1187 198.308 62.3539C199.527 63.4759 201.222 62.9511 202.193 61.7568C203.324 60.3634 203.765 58.3185 203.465 56.5451C203.182 54.8802 202.105 53.3239 200.392 53.0163C198.962 52.7629 197.478 53.6858 197.266 55.2059C197.231 55.5679 197.743 55.7126 197.779 55.3688Z" fill="#111314"/>
<path d="M193.858 53.4505C193.946 53.9391 194.017 54.9344 194.723 55.3687C195.465 55.8211 196.525 55.423 197.319 55.0249C197.355 54.9344 197.973 53.3238 199.527 53.0524C200.781 52.8352 201.717 53.6315 202.017 53.8667C203.094 54.7715 203.306 56.0383 203.43 56.7621C203.677 58.1736 203.324 59.2775 203.147 59.9109C202.988 60.4537 202.776 61.1052 202.211 61.7748C201.982 62.0462 201.593 62.4986 200.975 62.7701C199.898 63.2225 198.82 62.7701 198.503 62.6253C198.185 62.8967 197.761 63.2948 197.408 63.8739C197.408 63.8739 197.372 63.9282 197.337 63.9825C196.79 64.9235 197.266 67.0046 197.337 68.1627C197.372 68.8504 197.302 69.8638 196.719 71.1305C197.372 71.4381 199.509 72.3249 202.088 71.6372C202.829 71.4381 204.737 70.9133 206.114 69.0313C207.651 66.9322 207.421 64.634 207.35 64.0911C208.233 63.2767 208.675 62.4624 208.887 61.9557C209.028 61.63 209.982 59.3318 209.028 58.3184C208.639 57.9203 208.304 58.0831 207.986 57.7393C207.562 57.305 207.439 56.2554 208.728 53.5953C209.01 53.5953 209.169 53.5048 209.275 53.4324C209.77 53.0162 209.575 51.7676 208.763 50.338C209.858 49.7227 210.953 49.1074 212.048 48.5102C211.2 48.4379 209.982 48.2207 208.869 47.4245C207.227 46.2663 207.015 44.7281 205.92 43.1719C205.072 41.9594 203.553 40.4936 200.534 39.5164C201.222 39.0278 202.194 38.2678 203.2 37.2001C203.942 36.4039 205.567 34.4857 205.231 34.0695C205.002 33.798 204.048 34.3771 202.865 34.8295C200.675 35.6439 198.838 35.5172 195.995 35.3C192.163 34.9924 191.756 34.3047 188.56 33.9066C186.458 33.6352 182.485 33.1828 178.07 34.7752C173.92 36.2772 171.412 38.865 170.317 40.005C169.311 41.0546 166.803 43.9138 165.461 48.2569C164.807 50.3561 164.189 52.5276 165.284 54.482C165.973 55.6944 167.05 56.3459 167.774 56.6897C167.704 55.4954 167.721 53.1791 169.099 50.9894C171.147 47.7502 174.803 47.0083 177.487 46.4654C179.624 46.0311 184.498 45.0539 188.825 47.8045C190.45 48.836 193.399 50.6999 193.858 53.4505Z" fill="#1890ff"/>
<path d="M177.063 71.9447C177.293 72.3971 177.752 73.1028 178.529 73.7543C178.705 73.8991 179.535 74.5686 180.807 74.9305C182.785 75.4734 184.516 74.9125 185.187 74.641C187.235 73.8086 188.26 72.2885 188.683 71.6189C189.143 70.9132 190.008 69.5741 189.955 67.7102C189.92 66.5882 189.566 65.7196 189.319 65.2129C189.143 65.3939 188.895 65.6653 188.595 65.991C187.571 67.113 186.917 67.9635 186.705 68.235C185.416 69.8093 183.474 70.696 182.856 70.9675C180.524 72.0171 178.352 72.0533 177.063 71.9447Z" fill="#111314"/>
<path d="M170.07 40.8368C169.205 41.7236 168.657 42.6465 168.339 43.2074C167.28 45.0352 166.909 46.6276 166.644 47.7677C166.326 49.1973 165.991 51.3507 166.203 54.0109C166.256 54.6442 166.626 55.1509 167.139 55.3138C167.492 55.4224 167.792 55.3319 167.933 55.2776C168.039 54.5899 168.304 53.5585 168.958 52.4727C170.105 50.5364 171.766 49.6316 172.737 49.1249C174.715 48.0934 176.463 47.9305 177.629 47.822C180.295 47.6048 182.291 48.1839 182.732 48.3106C184.622 48.8716 186 49.7764 186.918 50.3735C188.631 51.4774 188.878 52.0384 190.468 52.7441C192.234 53.5404 193.311 53.4861 193.664 53.4499C194.211 53.4137 195.218 53.3232 196.154 52.5632C197.002 51.8755 197.32 50.9888 197.443 50.5907C199.103 51.3326 200.322 52.1108 201.134 52.6898C203.059 54.0471 204.136 55.2957 206.732 56.7977C207.174 57.051 207.562 57.2501 207.792 57.3768C208.075 56.1824 208.357 54.9881 208.64 53.8118C208.269 53.5404 207.721 53.1422 207.033 52.6537C204.543 50.8802 202.847 49.6859 200.64 48.5096C200.004 48.1658 199.086 47.7134 197.92 47.2067C198.167 46.2295 198.485 44.438 197.867 42.4293C197.637 41.6693 197.267 40.5111 196.225 39.5701C195.571 38.991 194.918 38.7196 194.529 38.5929C190.097 36.9643 185.381 36.8919 185.381 36.8919C182.803 36.8557 179.342 36.8376 175.245 38.05C172.719 38.792 171.236 39.6425 170.07 40.8368Z" fill="#F7FAFC"/>
<path d="M168.18 55.2416C169.417 48.3289 178.741 46.5374 184.128 49.0347C185.611 49.7223 187.006 50.5909 188.384 51.4595C189.584 52.2196 190.821 52.9977 192.198 53.3415C194.229 53.8482 196.754 53.1968 197.479 50.989C197.584 50.6633 197.072 50.5185 196.966 50.8443C196.472 52.3644 194.847 53.052 193.381 52.9977C191.739 52.9253 190.273 52.0024 188.913 51.17C186.353 49.5775 183.704 47.8041 180.631 47.4965C175.474 46.9898 168.746 49.2156 167.686 55.115C167.598 55.4226 168.11 55.5855 168.18 55.2416Z" fill="#111314"/>
<path d="M167.65 54.7715C167.386 54.7172 167.121 54.663 166.838 54.6087C166.785 54.4639 166.714 54.3191 166.661 54.1744C166.591 53.9934 166.556 53.7943 166.52 53.5953C166.45 53.1791 166.432 52.7448 166.414 52.3104C166.397 51.478 166.432 50.6275 166.503 49.7951C166.626 48.0036 166.944 46.2121 167.703 44.5834C169.099 41.5613 171.924 39.5346 174.944 38.4488C178.282 37.2545 181.92 37.0011 185.434 37.0916C188.807 37.1821 192.604 37.4897 195.536 39.3536C197.478 40.5841 197.708 42.9366 197.761 45.1082C197.814 47.2073 197.496 49.2703 196.842 51.2428C196.736 51.5685 197.249 51.7133 197.355 51.3876C198.026 49.3608 198.361 47.2435 198.291 45.1082C198.238 43.371 198.132 41.0908 196.895 39.7698C195.642 38.4126 193.611 37.7431 191.88 37.3268C189.831 36.8382 187.695 36.6392 185.593 36.5668C178.158 36.3135 168.427 38.0688 166.414 46.7549C165.92 48.836 165.69 51.2428 165.955 53.3781C166.043 54.0477 166.22 54.9344 166.785 55.3687C167.244 55.7125 167.88 55.604 168.11 55.0611C168.251 54.7353 167.792 54.4639 167.65 54.7715Z" fill="#111314"/>
<path d="M166.926 54.3192C168.145 49.7047 172.101 46.2121 176.639 45.3797C179.129 44.9273 181.725 45.2349 184.074 46.1759C186.511 47.135 188.277 48.7999 190.185 50.5733C191.898 52.1839 194.211 53.5773 196.542 52.4734C196.842 52.3287 196.577 51.8582 196.277 52.0029C193.346 53.3963 190.891 50.4467 188.984 48.6551C187.253 47.0446 185.169 45.8502 182.909 45.1987C178.494 43.932 173.743 44.873 170.264 47.9675C168.427 49.6142 167.068 51.7677 166.432 54.1745C166.326 54.5183 166.838 54.6631 166.926 54.3192Z" fill="#111314"/>
<path d="M197.302 50.5551C200.852 52.7629 204.313 55.1154 207.704 57.5584C207.986 57.7574 208.251 57.2869 207.969 57.0879C204.578 54.6268 201.116 52.2924 197.567 50.0846C197.284 49.9037 197.019 50.3742 197.302 50.5551Z" fill="#111314"/>
<path d="M197.955 47.1889C201.557 49.2519 205.054 51.5139 208.41 53.975C208.692 54.1741 208.957 53.7036 208.675 53.5045C205.301 51.0434 201.822 48.7814 198.22 46.7184C197.919 46.5375 197.655 47.008 197.955 47.1889Z" fill="#111314"/>
<path d="M208.304 53.6319C207.933 54.79 207.686 55.9482 207.545 57.1606C207.509 57.5044 208.039 57.5044 208.074 57.1606C208.198 56.0025 208.445 54.8805 208.816 53.7766C208.922 53.4509 208.41 53.3061 208.304 53.6319Z" fill="#111314"/>
<path d="M176.251 45.4702C179.112 42.6653 181.991 39.8966 184.905 37.1279C185.152 36.8926 184.781 36.5126 184.534 36.7479C181.638 39.4985 178.741 42.2853 175.88 45.0902C175.633 45.3254 176.004 45.7055 176.251 45.4702Z" fill="#111314"/>
<path d="M183.421 45.7051C185.999 43.0811 188.577 40.4572 191.156 37.8151C191.403 37.5618 191.015 37.1818 190.785 37.4351C188.207 40.0591 185.628 42.683 183.05 45.3251C182.803 45.5784 183.173 45.9584 183.421 45.7051Z" fill="#111314"/>
<path opacity="0.15" d="M171.925 49.433C171.836 48.7091 171.748 48.0034 171.66 47.2795C172.49 46.7005 173.867 45.868 175.686 45.3975C179.589 44.3661 182.874 45.6328 184.375 46.2119C185.505 46.6462 186.847 47.1529 188.242 48.3653C189.32 49.3063 189.302 49.7044 190.609 50.7902C191.81 51.8036 192.975 52.7446 194.476 52.6722C195.377 52.636 196.083 52.2379 196.49 51.9484C196.878 51.3874 197.249 50.8083 197.638 50.2473C198.044 50.3016 200.587 50.6997 201.752 52.8532C201.929 53.1608 201.876 53.2875 202.282 54.4637C203.006 56.581 203.2 56.6353 203.342 57.341C203.377 57.5039 203.748 59.8021 202.194 61.3041C200.993 62.4804 199.386 62.408 199.033 62.3899C198.521 63.8376 198.432 65.0862 198.415 65.9005C198.415 67.1492 198.397 68.6693 199.386 70.0265C199.739 70.5151 200.534 71.6189 201.929 71.7275C203.607 71.8542 204.719 70.4246 204.825 70.2979C202.494 70.7503 200.145 71.2027 197.814 71.637C197.796 73.5552 198.079 75.0391 198.344 76.0344C198.98 78.4955 199.898 79.5632 199.827 81.608C199.792 82.8748 199.368 83.9063 199.033 84.5758C197.955 81.4814 196.861 78.405 195.783 75.3106C194.618 76.2335 193.452 77.1745 192.269 78.0974C192.728 77.084 193.205 76.0525 193.664 75.0391C194.264 72.3609 194.388 70.0446 194.37 68.3073C194.335 65.7558 193.664 63.2223 192.357 58.1554C191.563 55.1152 191.015 53.4865 189.549 52.1293C189.037 51.6588 188.454 51.315 187.271 50.6092C184.675 49.0711 183.386 48.2929 181.832 47.9129C178.6 47.1348 175.739 48.0215 174.379 48.4558C173.337 48.7634 172.507 49.1254 171.925 49.433Z" fill="#636E72"/>
<path opacity="0.13" d="M178.07 57.5947C177.682 59.332 177.346 61.2502 177.099 63.3493C176.975 64.5075 176.887 65.6113 176.834 66.679C177.593 66.86 178.353 67.0409 179.112 67.2219C178.759 64.0189 178.423 60.8158 178.07 57.5947Z" fill="#636E72"/>
<path opacity="0.09" d="M196.86 60.0918C196.63 61.3766 196.33 62.7157 195.942 64.1092C194.14 70.4971 191.138 75.4374 188.401 79.0023C188.754 78.8395 194.547 76.0165 196.401 71.7458C196.895 70.6238 197.301 69.6828 197.319 68.3618C197.354 66.6607 196.736 66.0093 197.16 64.7425C197.584 63.5301 198.414 63.3672 198.467 62.4624C198.52 61.5033 197.637 60.6709 196.86 60.0918Z" fill="#636E72"/>
<path opacity="0.1" d="M173.249 47.5504C173.143 48.3285 174.008 49.0342 174.45 49.3962C176.922 51.441 179.165 49.6314 183.527 50.5362C187.218 51.3144 187.924 53.1059 191.739 53.1602C193.081 53.1783 194.176 52.9792 194.9 52.8164C194.388 52.7078 193.611 52.4725 192.763 52.0201C191.297 51.242 190.432 50.2648 190.114 49.921C188.401 48.057 185.328 46.1569 183.103 45.4512C178.776 44.0578 173.496 45.795 173.249 47.5504Z" fill="#636E72"/>
</svg>
