<svg width="400" height="400" viewBox="0 0 400 400" fill="none" xmlns="http://www.w3.org/2000/svg">
<path d="M348 132.94L209.28 62.82C210.439 58.7269 210.481 54.3981 209.401 50.2835C208.321 46.1689 206.158 42.4186 203.139 39.4222C200.119 36.4259 196.352 34.2929 192.229 33.2449C188.106 32.1969 183.778 32.2721 179.694 33.4628C175.61 34.6534 171.92 36.916 169.006 40.0154C166.092 43.1149 164.062 46.9381 163.125 51.0877C162.189 55.2374 162.381 59.5621 163.681 63.6124C164.982 67.6628 167.343 71.2909 170.52 74.12L130 154.24C129.968 154.295 129.951 154.358 129.952 154.422C129.952 154.486 129.969 154.549 130.002 154.604C130.035 154.659 130.081 154.704 130.137 154.735C130.193 154.766 130.256 154.781 130.32 154.78C130.68 154.78 127.68 160.48 171.06 74.62C174.601 77.5838 178.929 79.4517 183.514 79.9952C188.1 80.5386 192.744 79.7341 196.88 77.68C242.88 167 239.72 161.14 240.08 161.14C240.44 161.14 239.24 161.28 355.72 142.52C356.555 144.686 356.926 147.004 356.809 149.322C356.692 151.641 356.089 153.909 355.04 155.98L341.22 183.4C341.175 183.49 341.167 183.595 341.199 183.69C341.231 183.786 341.3 183.865 341.39 183.91C341.48 183.955 341.585 183.962 341.68 183.931C341.776 183.899 341.855 183.83 341.9 183.74L355.74 156.32C356.772 154.278 357.39 152.051 357.559 149.769C357.728 147.488 357.445 145.195 356.726 143.022C356.007 140.85 354.866 138.841 353.368 137.111C351.871 135.381 350.047 133.963 348 132.94ZM240.32 160.36L197.6 77.34C203.056 74.3988 207.163 69.4608 209.06 63.56L347.72 133.56C351.182 135.292 353.922 138.188 355.46 141.74L240.32 160.36Z" fill="white"/>
<path d="M326.96 211.6L304.46 256.14C303.478 258.094 302.119 259.834 300.463 261.262C298.807 262.69 296.885 263.777 294.808 264.461C292.73 265.144 290.539 265.411 288.358 265.247C286.177 265.082 284.051 264.488 282.1 263.5L259.58 252.12C259.49 252.075 259.385 252.067 259.29 252.099C259.194 252.131 259.115 252.2 259.07 252.29C259.025 252.38 259.018 252.484 259.049 252.58C259.081 252.676 259.15 252.755 259.24 252.8L281.76 264.16C283.799 265.193 286.022 265.815 288.301 265.988C290.58 266.162 292.872 265.884 295.043 265.17C297.215 264.457 299.225 263.322 300.957 261.831C302.69 260.34 304.111 258.521 305.14 256.48L327.64 212C327.666 211.955 327.684 211.906 327.691 211.854C327.698 211.803 327.695 211.751 327.682 211.701C327.669 211.651 327.646 211.604 327.615 211.562C327.584 211.521 327.545 211.486 327.5 211.46C327.455 211.433 327.406 211.416 327.355 211.409C327.303 211.402 327.251 211.405 327.201 211.418C327.151 211.431 327.104 211.454 327.062 211.485C327.021 211.516 326.986 211.555 326.96 211.6Z" fill="white"/>
<path d="M312.58 179.1C313.44 192.84 313.96 199.4 307.42 211.32L255 211.82C265.72 228.56 262.56 272.96 258.44 301.08C248.083 304.025 237.095 303.914 226.8 300.76C227.68 289.24 227.6 271.96 227.34 258.76L236.86 235.7L192.86 254.74C137.68 278.6 122.86 236.36 122.86 236.36C130.687 231.483 138.214 226.14 145.4 220.36C148.681 222.278 152.531 222.986 156.28 222.36C172.12 219.08 202.14 203.54 209.96 195.2C213.084 191.926 215.773 188.262 217.96 184.3L234.18 177.4C239.641 175.073 245.58 174.086 251.5 174.52L312.58 179.1Z" fill="#B2BEC3"/>
<path d="M176.3 260C167.839 269.376 157.601 276.978 146.178 282.365C134.756 287.751 122.377 290.816 109.761 291.38C97.1443 291.943 84.5416 289.996 72.6841 285.649C60.8267 281.303 49.9506 274.645 40.6873 266.061C31.424 257.477 23.958 247.139 18.7227 235.646C13.4874 224.153 10.5871 211.735 10.1901 199.112C9.79311 186.49 11.9074 173.914 16.4101 162.115C20.9129 150.316 27.7144 139.529 36.42 130.38C32.0679 136.317 28.2275 142.613 24.94 149.2C24.94 149.36 24.8 149.4 25.18 149.76C25.86 150.4 28.02 152.02 34.36 157.04C34.7088 157.317 35.119 157.506 35.5562 157.591C35.9933 157.677 36.4445 157.656 36.8718 157.53C37.2992 157.405 37.6901 157.178 38.0118 156.87C38.3334 156.562 38.5763 156.181 38.72 155.76L53.38 113.52C53.5722 112.976 53.5903 112.385 53.4318 111.83C53.2733 111.275 52.946 110.784 52.4954 110.423C52.0448 110.063 51.4931 109.851 50.917 109.818C50.3408 109.786 49.7687 109.933 49.28 110.24C35.7908 116.745 23.1053 124.799 11.48 134.24C11.1062 134.48 10.7949 134.805 10.5717 135.189C10.3486 135.573 10.2199 136.005 10.1965 136.448C10.173 136.892 10.2554 137.335 10.4369 137.74C10.6183 138.145 10.8936 138.502 11.24 138.78C17.42 143.66 19.24 145.18 19.8 145.58C20.36 145.98 20.4 145.74 20.66 145.44C21.52 144.5 23.28 141.14 34.02 131.9C16.956 150.842 8.11544 175.786 9.4432 201.246C10.771 226.706 22.1583 250.596 41.1 267.66C60.0418 284.724 84.9864 293.564 110.446 292.237C135.906 290.909 159.796 279.522 176.86 260.58C176.937 260.506 176.981 260.404 176.983 260.297C176.985 260.19 176.944 260.087 176.87 260.01C176.796 259.933 176.694 259.889 176.587 259.887C176.48 259.885 176.377 259.926 176.3 260ZM20.1 144.78L11.72 138.14C11.4572 137.936 11.2496 137.669 11.116 137.364C10.9824 137.059 10.9269 136.726 10.9548 136.394C10.9826 136.062 11.0927 135.743 11.2752 135.464C11.4578 135.186 11.7069 134.958 12 134.8C23.5926 125.354 36.2523 117.299 49.72 110.8C50.0728 110.555 50.4952 110.43 50.9245 110.444C51.3538 110.457 51.7674 110.609 52.1039 110.876C52.4404 111.143 52.682 111.511 52.793 111.926C52.904 112.341 52.8784 112.781 52.72 113.18L38 155.52C37.899 155.83 37.7236 156.112 37.4889 156.339C37.2542 156.566 36.9675 156.732 36.6538 156.823C36.3402 156.913 36.009 156.926 35.6893 156.859C35.3697 156.793 35.0712 156.649 34.82 156.44L25.74 149.26C29.903 141.427 34.6708 133.931 40 126.84C40.26 126.36 39.8 126.06 39.5 126.32C32.56 132.12 25.4 138 20.1 144.78Z" fill="white"/>
<path d="M293.26 51.5001C293.22 51.416 293.213 51.3202 293.239 51.2309C293.265 51.1416 293.323 51.0651 293.402 51.0158C293.481 50.9665 293.575 50.9478 293.667 50.9634C293.759 50.9789 293.842 51.0276 293.9 51.1001C298.06 58.2001 308.62 58.3801 312 51.5601C313.034 49.1518 313.08 46.4339 312.13 43.9915C311.18 41.549 309.309 39.5771 306.92 38.5001C299.58 34.8601 291.48 40.0601 292.64 47.6001C292.658 47.6981 292.636 47.7992 292.58 47.8814C292.524 47.9637 292.438 48.0207 292.34 48.0401C292.241 48.0476 292.142 48.0196 292.061 47.961C291.981 47.9024 291.923 47.817 291.9 47.7201C290.64 39.5201 299.4 33.9201 307.24 37.8201C309.807 38.9676 311.818 41.0812 312.837 43.7023C313.855 46.3233 313.799 49.2403 312.68 51.8201C309 59.2801 297.7 59.0801 293.26 51.5001Z" fill="white"/>
<path d="M293.58 51.6801L288.7 51.3201C288.627 51.3133 288.557 51.2853 288.499 51.2394C288.441 51.1936 288.398 51.1319 288.375 51.0619C288.351 50.9919 288.349 50.9167 288.368 50.8453C288.386 50.774 288.425 50.7096 288.48 50.6601L292 47.3801C292.035 47.3376 292.078 47.3032 292.128 47.2791C292.177 47.2551 292.231 47.242 292.286 47.2408C292.341 47.2396 292.395 47.2503 292.446 47.2722C292.496 47.2941 292.541 47.3267 292.578 47.3676C292.614 47.4086 292.641 47.457 292.658 47.5095C292.674 47.562 292.678 47.6173 292.671 47.6718C292.663 47.7262 292.644 47.7783 292.615 47.8247C292.585 47.871 292.546 47.9104 292.5 47.9401L289.6 50.6401L293.6 50.9201C293.701 50.9228 293.796 50.9654 293.866 51.0385C293.935 51.1116 293.973 51.2093 293.97 51.3101C293.967 51.4109 293.925 51.5065 293.852 51.5759C293.779 51.6453 293.681 51.6828 293.58 51.6801Z" fill="white"/>
<path d="M356.62 271.18C357.305 269.983 357.74 268.66 357.9 267.291C358.06 265.922 357.941 264.535 357.551 263.212C357.161 261.89 356.507 260.661 355.629 259.598C354.751 258.535 353.668 257.66 352.443 257.027C351.219 256.394 349.879 256.015 348.504 255.913C347.129 255.811 345.748 255.989 344.443 256.435C343.139 256.88 341.938 257.586 340.913 258.508C339.888 259.43 339.061 260.55 338.48 261.8C336.48 265.54 331.22 274.08 327.02 273.8C326.946 273.795 326.872 273.811 326.807 273.848C326.743 273.884 326.69 273.939 326.656 274.005C326.622 274.071 326.608 274.145 326.616 274.219C326.624 274.293 326.653 274.362 326.7 274.42C326.9 274.62 326.7 274.42 335.5 279C334.947 280.246 334.891 281.656 335.344 282.941C335.797 284.227 336.725 285.291 337.937 285.914C339.149 286.538 340.553 286.675 341.863 286.297C343.172 285.919 344.287 285.054 344.98 283.88C351.26 287.12 352.98 288.1 353.66 288.34C354.34 288.58 354.38 288.1 354.12 287.78C350.92 283.84 356.34 271.76 356.62 271.18ZM338.3 285.18C337.277 284.651 336.49 283.758 336.093 282.676C335.697 281.595 335.721 280.404 336.16 279.34L344.3 283.54C343.681 284.508 342.72 285.208 341.608 285.501C340.497 285.793 339.316 285.657 338.3 285.12V285.18ZM352.86 287.18L328.3 274.5C333.52 273.18 338.9 262.76 339.14 262.3C340.303 260.083 342.296 258.418 344.684 257.668C347.072 256.919 349.659 257.146 351.88 258.3C354.079 259.485 355.727 261.483 356.475 263.866C357.222 266.25 357.008 268.831 355.88 271.06C355.72 271.32 350.84 282 352.86 287.04V287.18Z" fill="white"/>
<path d="M390.1 128L378.24 124.56L381.68 112.68C381.705 112.63 381.718 112.575 381.719 112.519C381.719 112.464 381.708 112.408 381.685 112.357C381.662 112.307 381.628 112.261 381.586 112.225C381.544 112.189 381.494 112.162 381.44 112.147C381.387 112.132 381.33 112.129 381.275 112.139C381.22 112.148 381.168 112.169 381.122 112.201C381.076 112.233 381.038 112.274 381.01 112.322C380.982 112.371 380.965 112.424 380.96 112.48L377.52 124.34L365.66 120.9C365.611 120.877 365.557 120.865 365.503 120.865C365.449 120.865 365.395 120.876 365.345 120.898C365.296 120.92 365.252 120.953 365.216 120.993C365.18 121.034 365.153 121.082 365.137 121.134C365.121 121.186 365.117 121.24 365.124 121.294C365.131 121.348 365.149 121.4 365.178 121.446C365.207 121.492 365.245 121.531 365.29 121.561C365.335 121.591 365.386 121.611 365.44 121.62L377.32 125.04L373.86 136.94C373.836 136.99 373.822 137.045 373.822 137.101C373.821 137.157 373.832 137.212 373.855 137.263C373.878 137.314 373.912 137.359 373.954 137.395C373.996 137.431 374.046 137.458 374.1 137.473C374.154 137.488 374.21 137.491 374.265 137.481C374.32 137.472 374.372 137.451 374.418 137.419C374.464 137.387 374.502 137.346 374.53 137.298C374.558 137.249 374.575 137.196 374.58 137.14L378.04 125.14C389.76 128.54 389.84 128.64 390.04 128.64C390.097 128.611 390.146 128.568 390.182 128.515C390.218 128.462 390.241 128.401 390.247 128.337C390.253 128.273 390.242 128.208 390.217 128.149C390.191 128.091 390.151 128.039 390.1 128Z" fill="white"/>
<path d="M378.1 183.64C376.9 179.12 338.1 182.54 313.22 181.64C313.22 180.76 313.04 179.88 312.94 179C312.931 178.913 312.893 178.831 312.831 178.769C312.769 178.707 312.687 178.669 312.6 178.66C253.08 174.68 250 174 249.74 174C244.954 173.67 240.158 174.471 235.74 176.34L218.9 183.52C224.26 172.9 223.1 161.92 222.3 149.24C221.9 143.24 221.28 142.56 220.68 142.48C220.578 142.467 220.474 142.479 220.376 142.513C220.279 142.548 220.191 142.605 220.12 142.68L221.92 134.68C222.089 133.98 221.973 133.241 221.598 132.626C221.223 132.012 220.62 131.57 219.92 131.4C219.218 131.236 218.479 131.354 217.862 131.727C217.246 132.101 216.8 132.701 216.62 133.4L209.44 164.96C208.92 162.78 208.44 160.18 207.9 158.52C207.5 157.34 206.48 154.7 205.18 154.7C203.18 154.7 203.06 160.3 202.98 162.38C202.72 169.76 202.5 179.56 196.04 183.32C190.689 186.368 185.113 189.002 179.36 191.2C173.432 193.516 167.226 195.042 160.9 195.74C157.76 195.9 153.3 192.36 148.9 186.24C149.52 185.44 150.14 184.6 150.74 183.76C151.34 182.92 149.22 183.42 132.74 157C129.12 151.14 123.2 145.8 116.44 145.42C116.373 142.851 116.588 140.282 117.08 137.76C127.08 143.9 133.78 127.2 133.78 115.2C134.456 115.097 135.124 114.95 135.78 114.76C135.854 114.732 135.918 114.683 135.965 114.619C136.011 114.555 136.037 114.479 136.04 114.4C136.05 111.551 135.002 108.8 133.1 106.68C131.99 105.62 130.678 104.795 129.241 104.256C127.804 103.716 126.273 103.473 124.74 103.54C123.78 101.96 116.74 91.5399 102.06 98.7199C86.84 106.18 88.82 134 89.1 137.12C87.24 138.06 74.74 144.62 67.9 154.98C61.72 164.3 60.76 175.46 65.38 184C70.58 193.68 82.12 199.02 97.9 199.08C101.106 214.27 109.955 227.678 122.66 236.6C126.77 246.48 134.465 254.439 144.2 258.88C159.78 265.7 177.6 261.8 193.1 255.1L226.46 240.64C227.04 256.64 227.64 284.86 226.46 300.74C226.453 300.826 226.478 300.912 226.529 300.982C226.581 301.052 226.655 301.101 226.74 301.12L228.74 301.64C228.46 311.16 225.08 322.18 226.74 327.08C228.299 330.628 230.397 333.913 232.96 336.82C241.62 346.82 252.8 369.14 257.46 367.78C262.12 366.42 256.28 320.84 257.32 301.78L258.66 301.4C258.727 301.373 258.786 301.33 258.832 301.274C258.878 301.218 258.908 301.151 258.92 301.08C263.72 268.4 265.36 228.1 255.8 212.14C311 211.62 307.7 211.7 307.8 211.48C307.9 211.26 308.46 210.28 308.76 209.7C321.76 210.56 331.28 214.36 336.38 212.82C339.997 211.397 343.371 209.42 346.38 206.96C356.8 198.5 379.34 188.38 378.1 183.64ZM217.24 133.64C217.291 133.377 217.394 133.127 217.543 132.904C217.693 132.682 217.885 132.492 218.109 132.345C218.333 132.198 218.585 132.098 218.849 132.051C219.112 132.003 219.383 132.009 219.644 132.068C219.905 132.127 220.152 132.238 220.37 132.394C220.587 132.55 220.772 132.749 220.911 132.977C221.051 133.206 221.143 133.46 221.182 133.725C221.221 133.99 221.207 134.261 221.14 134.52C214 166 214 166.4 213.06 169C212.82 169.7 212.12 170.38 211.5 170.14C210.88 169.9 210.32 168.8 209.78 166.86C209.7 166.6 209.14 169.14 217.24 133.7V133.64ZM160.56 196.62C164.68 196.62 174.04 194.14 179.52 192.02C185.306 189.778 190.915 187.103 196.3 184.02C203.08 180.02 203.34 170.14 203.62 162.44C203.86 155.98 204.84 155.52 205.02 155.5C205.62 155.4 206.54 157.24 207.02 158.8C208.42 162.98 209.02 172.56 212.56 170.64C213.114 170.3 213.532 169.776 213.74 169.16C215.44 164.22 218.16 149.58 219.52 145.34C219.713 144.713 219.96 144.104 220.26 143.52C220.46 143.14 220.48 143.04 220.66 143.52C221.156 145.387 221.418 147.308 221.44 149.24C222.66 168.08 223.92 179.72 209.74 194.86C202.24 202.86 172.78 218.48 156.26 221.9C152.618 222.555 148.862 221.919 145.64 220.1C140.3 217.18 134.16 211.7 127.38 203.82C135.514 199.806 142.643 194.017 148.24 186.88C152.76 193.14 157.2 196.62 160.56 196.62ZM113.26 116.44C113.288 116.374 113.293 116.302 113.275 116.233C113.257 116.164 113.217 116.103 113.16 116.06C109 112.06 113.72 107.4 115.94 111.16C116.32 111.82 117.22 113.16 117.94 113.16C120.587 114.072 123.312 114.741 126.08 115.16C128.333 115.666 130.662 115.734 132.94 115.36V116.72C132.64 124.42 128.94 136.14 122.94 138.08C119.64 139.14 115.94 137.22 112.24 132.22C112.02 131.92 111.42 132.02 111.64 132.72C111.86 133.42 112.88 135.84 115.64 142.72C115.59 143.633 115.59 144.547 115.64 145.46C112.98 145.46 109.5 147.08 104.84 143.7C113.32 119.38 110.72 124.32 113.26 116.44ZM96.72 185.26C96 170.28 99.6 158.78 104.56 144.52C109.54 148 113.12 146.22 115.78 146.26C122.52 146.4 128.38 151.62 132.04 157.52C137.501 166.552 143.443 175.284 149.84 183.68C143.482 192.774 134.742 199.943 124.58 204.4C118.68 197.46 114.46 191.22 114.28 190.96C114.225 190.887 114.146 190.837 114.057 190.817C113.968 190.798 113.875 190.812 113.795 190.855C113.715 190.899 113.653 190.97 113.621 191.055C113.589 191.14 113.589 191.234 113.62 191.32C114.06 192.28 124.28 214.4 141.46 223.32C133.74 229.32 124.4 235.14 122.96 236.04C106 224.28 97.7 205.22 96.72 185.26ZM258.16 363.8C257.84 366.62 257.28 367 257.12 367.06C253.3 368.2 241.64 345.82 233.4 336.32C230.93 333.483 228.906 330.287 227.4 326.84C226.899 324.784 226.811 322.65 227.14 320.56C228.873 323.808 230.951 326.859 233.34 329.66C241.58 339.22 252.2 359.16 258.16 363.8ZM256.9 323.66C246.652 319.768 237.172 314.094 228.9 306.9C229.1 305.04 229.24 303.36 229.3 301.82C238.163 304.085 247.445 304.153 256.34 302.02C256.12 308 256.5 316.64 256.9 323.66ZM258.1 300.78C247.978 303.598 237.265 303.494 227.2 300.48C227.46 296.98 227.62 292.94 227.74 288.68C238.279 290.381 249.006 290.577 259.6 289.26C259.133 293.18 258.633 297.02 258.1 300.78ZM259.68 288.5C249.04 289.836 238.264 289.641 227.68 287.92C227.9 278.22 227.8 267.42 227.68 258.84C234.42 242.52 236.44 237.74 237 236.26C237.32 235.4 237 235.22 236.68 235.38L192.68 254.4C173.68 262.62 157.44 263.9 144.38 258.2C134.931 253.895 127.433 246.212 123.36 236.66C123.369 236.607 123.369 236.553 123.36 236.5C130.989 231.758 138.334 226.576 145.36 220.98C148.684 222.799 152.532 223.421 156.26 222.74C167.18 220.48 185.5 212.18 198.26 204.4C198.88 204.4 240.66 190.4 254.56 212.02C263.32 225.48 263.12 258.4 259.68 288.5ZM255.2 211.44C243.2 192.94 209.8 200.48 200.64 202.98C204.141 200.847 207.394 198.331 210.34 195.48C213.459 192.216 216.147 188.566 218.34 184.62L236 177.08C240.362 175.24 245.098 174.459 249.82 174.8L297.72 178.36C299.335 189.541 297.522 200.95 292.52 211.08L255.2 211.44ZM307.2 210.94L293.34 211.08C298.271 200.949 300.054 189.574 298.46 178.42L312.22 179.46C313.64 192.54 313.32 199.7 307.2 210.94ZM313.2 182.46C318.26 182.62 327.6 182.6 333.92 182.46C329.641 192.528 323.63 201.768 316.16 209.76C314.32 209.48 310.94 209.14 309 209C314 199.6 314.1 191.52 313.28 182.46H313.2ZM345.7 206.46C342.787 208.853 339.522 210.782 336.02 212.18C333.947 212.595 331.813 212.595 329.74 212.18C332.706 210.766 335.515 209.043 338.12 207.04C344.402 202.248 351.004 197.891 357.88 194C361.88 191.62 371.24 186 374.16 182.6C376.96 183.04 377.32 183.6 377.36 183.76C378.38 187.68 355.5 198.58 345.78 206.42L345.7 206.46Z" fill="white"/>
<path d="M192 295.08C189.382 292.266 185.933 290.365 182.156 289.653C178.38 288.942 174.475 289.457 171.012 291.125C167.55 292.792 164.712 295.524 162.914 298.92C161.116 302.316 160.453 306.199 161.02 310C160.022 310.327 159.11 310.874 158.351 311.601C157.593 312.327 157.007 313.215 156.637 314.198C156.267 315.181 156.123 316.235 156.214 317.281C156.305 318.328 156.631 319.34 157.165 320.244C157.7 321.148 158.431 321.921 159.304 322.505C160.177 323.089 161.17 323.47 162.21 323.619C163.25 323.768 164.31 323.682 165.312 323.367C166.314 323.053 167.232 322.517 168 321.8C171.593 324.609 176.119 325.949 180.663 325.549C185.207 325.15 189.429 323.04 192.477 319.647C195.525 316.253 197.171 311.829 197.082 307.269C196.994 302.709 195.177 298.352 192 295.08ZM190.62 320C187.677 322.745 183.866 324.373 179.848 324.604C175.829 324.834 171.857 323.651 168.62 321.26C169.604 320.148 170.209 318.753 170.351 317.275C170.492 315.797 170.16 314.313 169.405 313.035C168.649 311.757 167.508 310.752 166.145 310.163C164.783 309.575 163.268 309.434 161.82 309.76C161.4 306.819 161.747 303.819 162.827 301.051C163.906 298.284 165.681 295.841 167.981 293.961C170.281 292.08 173.027 290.825 175.954 290.317C178.882 289.809 181.89 290.065 184.689 291.06C187.488 292.055 189.983 293.756 191.933 295.998C193.882 298.24 195.219 300.947 195.816 303.857C196.412 306.768 196.247 309.783 195.337 312.611C194.427 315.439 192.802 317.984 190.62 320Z" fill="white"/>
</svg>
