<svg width="400" height="401" viewBox="0 0 400 401" fill="none" xmlns="http://www.w3.org/2000/svg">
<path d="M248.058 222.87H219.11C226.883 222.416 234.587 221.151 242.096 219.094C243.262 218.78 244.374 218.292 245.394 217.646C246.414 219.316 247.305 221.063 248.058 222.87Z" fill="#FFE7EA"/>
<path d="M87.182 222.398C90.034 209.436 108.286 210.978 108.468 210.998C108.564 211.011 108.651 211.061 108.711 211.137C108.771 211.213 108.8 211.309 108.791 211.405C108.782 211.502 108.736 211.591 108.663 211.654C108.59 211.718 108.495 211.75 108.398 211.746C108.22 211.73 90.626 210.25 87.916 222.562C87.8943 222.659 87.8348 222.744 87.7506 222.797C87.6663 222.851 87.5644 222.868 87.467 222.847C87.3697 222.825 87.285 222.765 87.2315 222.681C87.1781 222.597 87.1603 222.495 87.182 222.398Z" fill="#1890ff"/>
<path d="M102.94 202.262C99.226 200.794 101.926 204.372 105.002 207.176C102.778 206.911 100.538 206.822 98.3 206.908C97.7 207.016 97.048 207.848 100.742 208.886C105.67 210.182 110.444 212.007 114.98 214.33L115.52 208.702C108.668 205.846 105.346 203.212 102.94 202.262Z" fill="#FFE7EA"/>
<path d="M114.684 217.448L114.32 221.232C113.551 221.129 112.776 221.067 112 221.048C105.436 220.934 107.756 219.328 110.034 218.68C111.2 218.346 113.152 217.954 114.684 217.448Z" fill="#FFE7EA"/>
<path d="M115.664 208.356C106.762 204.644 102.214 200.256 100.94 201.864C100.112 202.902 102.958 205.728 103.908 206.664C102.027 206.404 100.122 206.363 98.232 206.542C98.0366 206.559 97.8529 206.643 97.7115 206.779C97.57 206.915 97.4792 207.095 97.454 207.29C97.36 209.206 103.792 209.37 113.34 213.8C113.768 214.062 114.246 214.348 114.794 214.662C114.881 214.711 114.984 214.724 115.08 214.698C115.176 214.672 115.258 214.608 115.308 214.522C115.358 214.435 115.371 214.332 115.344 214.236C115.318 214.139 115.255 214.057 115.168 214.008C113.87 213.287 112.625 212.476 111.442 211.58C109.295 210.138 107.231 208.577 105.258 206.906C103.572 205.374 101.398 202.952 101.52 202.346C101.682 202.246 102.652 202.404 105.404 203.962C108.611 205.879 111.943 207.581 115.376 209.056C115.469 209.094 115.573 209.094 115.666 209.055C115.758 209.016 115.832 208.942 115.87 208.85C115.908 208.757 115.908 208.653 115.869 208.56C115.831 208.467 115.757 208.394 115.664 208.356ZM98.198 207.356C98.2455 207.315 98.304 207.289 98.366 207.282C100.523 207.122 102.69 207.205 104.828 207.53C106.601 209.04 108.463 210.443 110.404 211.73C107.302 210.424 104.107 209.354 100.844 208.53C98.438 207.848 98.22 207.352 98.2 207.352L98.198 207.356Z" fill="#1890ff"/>
<path d="M114.32 221.608C113.547 221.505 112.768 221.444 111.988 221.424C108.014 221.356 107.402 220.758 107.326 220.184C107.194 219.184 109.284 218.502 109.926 218.318C111.31 217.918 112.986 217.612 114.566 217.09C114.661 217.058 114.764 217.066 114.854 217.111C114.943 217.156 115.011 217.235 115.042 217.33C115.073 217.425 115.066 217.528 115.021 217.617C114.976 217.707 114.897 217.774 114.802 217.806C113.202 218.33 111.36 218.694 110.132 219.042C108.83 219.412 108.11 219.92 108.072 220.1C108.072 220.1 108.414 220.61 112.002 220.672C112.794 220.691 113.583 220.754 114.368 220.86C114.462 220.873 114.546 220.922 114.606 220.995C114.665 221.068 114.695 221.161 114.689 221.256C114.683 221.35 114.642 221.439 114.573 221.504C114.505 221.569 114.414 221.606 114.32 221.608Z" fill="#1890ff"/>
<path d="M250.164 229.482H155.268L120.386 301.932C122.03 303.379 123.774 304.708 125.606 305.908L120.386 316.97C127.9 319.033 135.816 319.145 143.386 317.296L145.31 312.78C147.237 312.971 149.174 313.054 151.11 313.03L164.71 288.218L160.646 308.768C162.498 309.686 164.403 310.491 166.352 311.18L164.79 317.296C171.635 319.257 178.893 319.257 185.738 317.296L186.362 314.414C188.213 314.406 190.074 314.324 191.946 314.168L206.988 253.26L211.53 253.954L243.212 251.404L244.874 250.028C251.6 243.9 251.724 235.926 250.164 229.482Z" fill="#FFE7EA"/>
<path d="M201.316 222.862C199.288 223.09 197.65 220.598 194.816 218.228C192.752 216.508 191.92 215.326 190.37 216.408C181.914 222.318 179.636 221.54 180.878 220.198C182.83 218.104 184.1 216.526 185.258 215.058C175.176 219.258 173.618 217.268 175.318 216.362C178.002 214.938 181.084 213.394 183.704 211.888C172.238 215.204 168.888 213.03 170.764 212.43C174.46 211.25 178.444 210.134 182.112 208.868C171.948 210.228 172.606 208.586 176.192 207.602C180.166 206.516 188.392 204.116 189.132 204.116C189.916 204.18 190.689 204.34 191.434 204.592C188.39 197.614 190.38 197.192 191.414 198.97C192.876 201.397 194.633 203.635 196.644 205.632C197.114 206.149 197.634 206.618 198.198 207.032L202.814 208.746L203.494 212.266C204.222 217.864 203.254 222.644 201.316 222.862Z" fill="#FFE7EA"/>
<path d="M219.4 145.482C218.68 145.806 216.43 153.098 218.662 157.034C214.988 158.224 210.922 158.93 207.72 156.742C208.663 155.751 209.386 154.572 209.842 153.282L213.476 149.882C212.487 150.166 211.466 150.323 210.438 150.35C200.564 150.494 209.984 135.642 210.168 135.642C215.024 128.854 218.298 136.082 217.986 140.324C218.048 141.17 218.454 141.402 219.82 140.4C222.61 138.36 224.632 143.134 219.4 145.482Z" fill="#FFE7EA"/>
<path d="M122.726 177.228C121.088 177.356 119.448 176.987 118.023 176.17C116.597 175.352 115.451 174.124 114.734 172.645C114.017 171.166 113.763 169.505 114.005 167.879C114.246 166.253 114.973 164.738 116.089 163.532C117.205 162.325 118.658 161.483 120.26 161.116C121.862 160.748 123.538 160.872 125.068 161.471C126.598 162.071 127.912 163.117 128.839 164.475C129.765 165.833 130.26 167.438 130.26 169.082C130.336 171.16 129.586 173.183 128.174 174.709C126.762 176.236 124.803 177.141 122.726 177.228ZM122.726 161.686C121.237 161.557 119.743 161.881 118.441 162.615C117.138 163.349 116.088 164.46 115.428 165.801C114.767 167.142 114.527 168.651 114.739 170.131C114.951 171.611 115.604 172.993 116.614 174.095C117.624 175.197 118.944 175.968 120.4 176.308C121.856 176.648 123.38 176.54 124.774 175.998C126.167 175.457 127.365 174.507 128.21 173.274C129.054 172.04 129.507 170.581 129.508 169.086C129.586 167.206 128.917 165.371 127.646 163.984C126.375 162.596 124.606 161.768 122.726 161.682V161.686Z" fill="#1890ff"/>
<path d="M123.344 159.622C123.04 159.622 122.67 159.602 122.7 159.21C122.72 158.444 122.9 157.692 123.228 157C123.557 156.308 124.026 155.693 124.606 155.193C125.186 154.694 125.864 154.321 126.597 154.099C127.329 153.877 128.1 153.81 128.86 153.904C128.959 153.911 129.051 153.957 129.116 154.032C129.182 154.107 129.215 154.204 129.208 154.304C129.066 155.825 128.391 157.247 127.302 158.32C126.169 159.19 124.773 159.649 123.344 159.622ZM128.4 154.652C127.197 154.582 126.015 154.983 125.102 155.769C124.189 156.556 123.618 157.666 123.508 158.866C124.711 158.935 125.893 158.534 126.806 157.748C127.719 156.962 128.29 155.851 128.4 154.652Z" fill="#1890ff"/>
<path d="M137.25 103.822H114.65C114.601 103.822 114.552 103.812 114.506 103.793C114.461 103.774 114.419 103.746 114.384 103.711C114.349 103.677 114.322 103.635 114.303 103.589C114.284 103.544 114.274 103.495 114.274 103.446V80.8456C114.274 80.7459 114.314 80.6502 114.384 80.5797C114.455 80.5092 114.55 80.4696 114.65 80.4696H137.25C137.35 80.4696 137.445 80.5092 137.516 80.5797C137.586 80.6502 137.626 80.7459 137.626 80.8456V103.446C137.626 103.495 137.616 103.544 137.597 103.589C137.579 103.635 137.551 103.677 137.516 103.711C137.481 103.746 137.44 103.774 137.394 103.793C137.348 103.812 137.299 103.822 137.25 103.822ZM115.034 103.07H136.872V81.2296H115.034V103.07Z" fill="#1890ff"/>
<path d="M133.41 67.5216C132.883 67.5229 132.37 67.6969 131.951 68.017C131.532 68.3371 131.229 68.7857 131.089 69.2941C130.949 69.8026 130.979 70.343 131.175 70.8326C131.371 71.3223 131.722 71.7343 132.174 72.0056L125.614 85.8396C125.571 85.9298 125.566 86.0332 125.6 86.1272C125.633 86.2211 125.703 86.2979 125.793 86.3406C125.883 86.3833 125.987 86.3885 126.081 86.3549C126.174 86.3213 126.251 86.2518 126.294 86.1616L132.874 72.2836C133.205 72.3602 133.549 72.3659 133.883 72.3002C134.217 72.2346 134.533 72.0991 134.81 71.9026C135.088 71.7062 135.321 71.4532 135.494 71.1604C135.667 70.8675 135.776 70.5414 135.814 70.2034C135.852 69.8654 135.818 69.5232 135.715 69.1992C135.611 68.8752 135.44 68.5768 135.213 68.3236C134.986 68.0703 134.708 67.8679 134.397 67.7297C134.087 67.5915 133.75 67.5206 133.41 67.5216Z" fill="#1890ff"/>
<path d="M60.896 265.97H52.644V257.704C52.6477 257.653 52.6409 257.601 52.624 257.553C52.607 257.505 52.5803 257.461 52.5455 257.423C52.5107 257.386 52.4685 257.356 52.4216 257.335C52.3747 257.315 52.3241 257.304 52.273 257.304C52.2218 257.304 52.1712 257.315 52.1244 257.335C52.0775 257.356 52.0353 257.386 52.0005 257.423C51.9657 257.461 51.9389 257.505 51.922 257.553C51.9051 257.601 51.8982 257.653 51.902 257.704V265.958H43.636C43.5379 265.958 43.4438 265.997 43.3744 266.066C43.305 266.135 43.266 266.229 43.266 266.328C43.266 266.426 43.305 266.52 43.3744 266.589C43.4438 266.659 43.5379 266.698 43.636 266.698H51.89V274.964C51.89 275.062 51.929 275.156 51.9984 275.225C52.0678 275.295 52.1619 275.334 52.26 275.334C52.3581 275.334 52.4522 275.295 52.5216 275.225C52.591 275.156 52.63 275.062 52.63 274.964V266.71H60.898C60.9466 266.709 60.9947 266.7 61.0395 266.681C61.0843 266.662 61.1251 266.635 61.1593 266.6C61.1936 266.566 61.2207 266.525 61.2392 266.48C61.2577 266.435 61.2671 266.387 61.267 266.339C61.2669 266.29 61.2572 266.242 61.2384 266.197C61.2197 266.152 61.1924 266.112 61.1579 266.077C61.1235 266.043 61.0826 266.016 61.0377 265.997C60.9927 265.979 60.9446 265.969 60.896 265.97Z" fill="#1890ff"/>
<path d="M329.74 256.282C329.663 255.397 329.805 254.507 330.154 253.691C330.503 252.874 331.048 252.157 331.74 251.601C332.433 251.045 333.251 250.669 334.124 250.505C334.997 250.342 335.896 250.396 336.743 250.662C337.59 250.929 338.358 251.401 338.979 252.035C339.6 252.67 340.055 253.448 340.303 254.3C340.552 255.152 340.587 256.053 340.404 256.922C340.222 257.791 339.828 258.601 339.258 259.282C338.572 260.1 337.658 260.697 336.632 260.996C335.607 261.296 334.515 261.284 333.496 260.963C332.477 260.642 331.577 260.026 330.908 259.192C330.239 258.359 329.833 257.346 329.74 256.282ZM335.124 251.162C334.342 251.161 333.573 251.357 332.887 251.733C332.202 252.108 331.622 252.65 331.201 253.309C330.781 253.968 330.533 254.723 330.482 255.503C330.43 256.283 330.576 257.063 330.906 257.772C331.236 258.48 331.74 259.094 332.37 259.557C333 260.019 333.737 260.315 334.512 260.418C335.287 260.52 336.075 260.425 336.803 260.142C337.532 259.859 338.177 259.396 338.68 258.798C339.245 258.119 339.606 257.294 339.72 256.419C339.834 255.543 339.697 254.653 339.324 253.852C338.951 253.052 338.358 252.374 337.615 251.898C336.871 251.422 336.007 251.167 335.124 251.164V251.162Z" fill="#1890ff"/>
<path d="M215.8 167.87C215.787 167.518 215.637 167.185 215.383 166.94C215.13 166.696 214.791 166.56 214.439 166.56C214.087 166.56 213.748 166.696 213.495 166.94C213.241 167.185 213.091 167.518 213.078 167.87C213.091 168.222 213.241 168.555 213.495 168.799C213.748 169.043 214.087 169.179 214.439 169.179C214.791 169.179 215.13 169.043 215.383 168.799C215.637 168.555 215.787 168.222 215.8 167.87Z" fill="#1890ff"/>
<path d="M202.676 180.494C202.676 180.133 202.533 179.787 202.278 179.532C202.023 179.277 201.677 179.134 201.316 179.134C200.955 179.134 200.609 179.277 200.354 179.532C200.099 179.787 199.956 180.133 199.956 180.494C199.956 180.854 200.099 181.2 200.354 181.455C200.609 181.71 200.955 181.854 201.316 181.854C201.677 181.854 202.023 181.71 202.278 181.455C202.533 181.2 202.676 180.854 202.676 180.494Z" fill="#1890ff"/>
<path d="M212.882 194.8C212.882 194.438 212.738 194.092 212.483 193.837C212.228 193.581 211.881 193.438 211.52 193.438C211.159 193.438 210.812 193.581 210.557 193.837C210.301 194.092 210.158 194.438 210.158 194.8C210.158 195.161 210.301 195.507 210.557 195.763C210.812 196.018 211.159 196.162 211.52 196.162C211.881 196.162 212.228 196.018 212.483 195.763C212.738 195.507 212.882 195.161 212.882 194.8Z" fill="#1890ff"/>
<path d="M389.676 332.682H188.682C188.773 327.436 187.908 322.218 186.132 317.282L186.702 314.792C188.535 314.798 190.367 314.69 192.186 314.468C192.346 314.312 191.166 318.908 207.274 253.694L211.56 254.338L219.082 253.738C219.168 253.731 219.25 253.695 219.312 253.636C219.375 253.577 219.416 253.497 219.427 253.412C219.438 253.326 219.42 253.239 219.374 253.165C219.329 253.092 219.26 253.036 219.178 253.008L208.066 249.088C208.016 249.07 207.964 249.063 207.911 249.067C207.859 249.071 207.807 249.086 207.761 249.111C207.715 249.136 207.674 249.17 207.641 249.211C207.609 249.253 207.585 249.301 207.572 249.352C207.332 250.328 191.772 313.352 191.648 313.828C188.279 314.098 184.896 314.118 181.524 313.89L195.394 247.99C195.587 247.069 195.96 246.196 196.493 245.421C197.026 244.646 197.707 243.984 198.497 243.474C199.287 242.964 200.171 242.616 201.097 242.449C202.022 242.283 202.972 242.302 203.89 242.506C224.394 247.046 242.64 244.18 240.49 223.26H247.8C252.092 233.522 252.02 244.26 243.144 250.984L243.104 251.018L244.446 250.91C252.942 243.84 252.734 232.956 248.396 222.74C247.678 221.028 246.843 219.369 245.898 217.772C247.857 216.457 249.391 214.602 250.315 212.431C251.238 210.261 251.51 207.868 251.098 205.546C249.16 194.534 244.27 174.416 238.234 168.858C233.275 164.625 227.617 161.288 221.514 158.996C220.744 158.719 220.057 158.252 219.516 157.638C218.975 157.025 218.598 156.284 218.42 155.486C218.366 154.518 218.106 144.696 229.42 142.622C230.019 142.488 230.568 142.185 231.001 141.75C231.435 141.315 231.735 140.765 231.867 140.165C231.999 139.565 231.956 138.94 231.745 138.364C231.534 137.787 231.162 137.282 230.674 136.91C230.059 136.447 229.311 136.196 228.542 136.194C228.793 135.618 228.877 134.982 228.784 134.361C228.69 133.739 228.423 133.157 228.014 132.68C227.604 132.203 227.069 131.851 226.468 131.665C225.868 131.479 225.227 131.466 224.62 131.628C224.731 131.058 224.692 130.469 224.507 129.918C224.323 129.367 223.999 128.874 223.568 128.485C223.136 128.097 222.611 127.826 222.044 127.701C221.477 127.575 220.887 127.598 220.332 127.768C220.436 127.013 220.28 126.245 219.891 125.591C219.501 124.936 218.901 124.433 218.188 124.164C217.475 123.895 216.692 123.876 215.967 124.11C215.242 124.345 214.619 124.818 214.198 125.454C212.822 129.536 210.999 133.453 208.764 137.136C205.384 143.056 203.18 150.536 210.016 150.736C209.826 152.812 208.978 154.773 207.596 156.334C206.215 157.896 204.371 158.976 202.334 159.418C189.934 162.926 181.614 187.704 174.484 198.668L134.062 205.222C134.013 205.23 133.966 205.247 133.924 205.273C133.882 205.299 133.846 205.334 133.817 205.374C133.758 205.455 133.735 205.556 133.751 205.655C133.767 205.753 133.822 205.841 133.903 205.9C133.984 205.958 134.085 205.982 134.184 205.966L138.068 205.334C141.381 210.513 142.54 216.78 141.3 222.802C141.282 222.9 141.304 223.001 141.361 223.083C141.418 223.165 141.505 223.221 141.603 223.239C141.701 223.256 141.802 223.234 141.884 223.178C141.966 223.121 142.022 223.034 142.04 222.936C143.261 216.837 142.13 210.503 138.874 205.204C173.03 199.654 174.654 199.424 174.856 199.35C175.612 199.062 181.128 188.044 181.474 187.35C187.036 176.302 193.96 162.55 202.554 160.12C204.032 159.72 205.426 159.057 206.668 158.162L205.268 161.3C205.237 161.371 205.229 161.45 205.244 161.526C205.259 161.602 205.298 161.671 205.354 161.724C205.41 161.778 205.481 161.813 205.558 161.825C205.634 161.836 205.713 161.824 205.782 161.79L211.472 158.908C207.382 169.708 205.342 183.766 205.236 201.798C201.338 202.056 198.59 202.17 198.792 202.176C198.062 202.188 197.096 202.684 196.462 204.862C196.022 204.398 195.57 203.902 195.114 203.378C193.294 195.433 193.173 187.194 194.758 179.2C194.778 179.102 194.758 179 194.702 178.917C194.647 178.834 194.561 178.776 194.463 178.757C194.365 178.737 194.263 178.757 194.18 178.812C194.097 178.868 194.04 178.954 194.02 179.052C192.522 186.661 192.531 194.49 194.048 202.096C193.201 201.047 192.429 199.94 191.74 198.782C191.236 197.916 190.54 197.52 190 197.782C189.036 198.27 189.318 200.48 190.79 204.03C188.544 203.442 189.83 203.474 176.092 207.23C174.816 207.58 173.32 208.164 173.438 208.954C173.522 209.514 174.296 209.764 175.994 209.764C179.35 209.764 180.784 208.844 170.652 212.064C168.55 212.73 170.108 215.566 180.82 213.028C179.836 213.554 176.02 215.552 175.14 216.028C173.36 216.974 173.8 219.966 184.072 215.942C183.136 217.1 182.06 218.374 180.604 219.942C179.944 220.654 180.242 221.11 180.35 221.234C181.228 222.234 185.15 220.512 190.584 216.716C191.602 216.004 192.144 216.402 193.682 217.748C192.133 219.734 190.049 221.236 187.675 222.078C185.301 222.92 182.736 223.067 180.282 222.502C180.184 222.484 180.082 222.507 180.001 222.564C179.919 222.622 179.863 222.709 179.846 222.808C179.829 222.906 179.851 223.007 179.909 223.089C179.966 223.171 180.054 223.226 180.152 223.244C182.734 223.828 185.428 223.668 187.923 222.783C190.417 221.898 192.61 220.324 194.246 218.244C197.344 220.904 199.056 223.244 201.046 223.244H239.712C240.42 229.96 239.02 235.072 235.534 238.464C228.058 245.74 212.592 243.65 204.038 241.756C203.022 241.53 201.972 241.509 200.948 241.692C199.924 241.876 198.946 242.261 198.072 242.825C197.197 243.389 196.444 244.121 195.854 244.978C195.265 245.835 194.851 246.801 194.638 247.82L180.748 313.82C173.91 313.324 167.227 311.538 161.054 308.556C184.854 188.204 166.618 280.4 173.8 244.082C174.542 240.273 176.409 236.774 179.161 234.037C181.912 231.3 185.421 229.451 189.234 228.73C189.332 228.711 189.419 228.654 189.475 228.571C189.531 228.488 189.552 228.387 189.533 228.289C189.514 228.191 189.457 228.104 189.374 228.048C189.292 227.992 189.19 227.971 189.092 227.99C185.132 228.739 181.488 230.659 178.63 233.502C175.773 236.344 173.833 239.978 173.062 243.934L170.34 257.698L138.464 311.186C131.941 309.492 125.907 306.289 120.85 301.834L155.6 229.65C155.643 229.56 155.649 229.456 155.616 229.362C155.583 229.268 155.514 229.191 155.424 229.148C155.334 229.104 155.231 229.099 155.137 229.132C155.042 229.165 154.965 229.234 154.922 229.324C118.348 305.468 119.856 301.836 120.09 302.168C121.678 303.584 123.367 304.884 125.144 306.056L120.112 316.656C111.171 319.728 103.291 325.287 97.4 332.682H10.428C10.15 332.682 9.47199 333.682 10.51 333.74C15.202 334.04 56.51 333.62 389.672 333.62C390.17 333.614 390.174 332.682 389.676 332.682ZM245.276 218.168C246.101 219.565 246.841 221.012 247.49 222.5H240.4C240.303 221.7 240.175 220.876 240.016 220.028C241.856 219.69 243.629 219.06 245.27 218.162L245.276 218.168ZM218.216 157.574L217.674 162.018L213.25 158.514C214.938 158.411 216.607 158.095 218.216 157.574ZM206.646 148.206C205.282 145.206 208.324 139.332 209.756 136.94C210.768 135.25 212.684 132.74 214.57 133.322C216.324 133.87 217.3 136.654 217.548 138.522C217.748 140.086 217.444 140.522 217.824 141.098C218.224 141.698 218.982 141.398 219.598 141.008C220.086 140.7 220.576 140.19 221.308 140.296C222.728 140.496 222.954 143.342 219.508 145.026L219.252 145.146C218.176 145.634 216.236 152.82 218.13 156.816C214.93 157.816 211.172 158.416 208.306 156.67C209.117 155.737 209.748 154.663 210.17 153.502C214.1 149.82 213.91 150.08 213.838 149.768C213.578 149.13 213.038 149.914 210.51 149.968C208.894 149.972 207.326 149.696 206.646 148.206ZM207.884 157.3C208.792 157.848 209.798 158.216 210.846 158.384L206.382 160.646L207.884 157.3ZM212.332 158.746C218.132 163.346 217.766 163.104 217.966 163.104C218.058 163.104 218.147 163.07 218.216 163.01C218.285 162.949 218.329 162.865 218.34 162.774L218.914 158.068C219.536 158.813 220.351 159.374 221.27 159.69C227.279 161.946 232.849 165.231 237.732 169.398C242.858 174.116 247.874 191.504 250.364 205.662C250.859 208.492 250.275 211.404 248.726 213.824C247.177 216.244 244.777 217.994 242 218.73C234.518 220.775 226.843 222.037 219.1 222.494H211.67C213.238 214.058 212.45 207.258 209.32 202.27C217.042 201.781 224.721 200.758 232.302 199.206C232.4 199.184 232.485 199.125 232.539 199.041C232.593 198.957 232.611 198.855 232.59 198.758C232.569 198.66 232.51 198.575 232.426 198.521C232.342 198.467 232.24 198.448 232.142 198.47C230.818 198.76 229.5 199.022 228.21 199.254C227.677 193.572 226.693 187.941 225.268 182.416L225.244 182.354C225.213 182.286 225.164 182.23 225.101 182.191C225.038 182.152 224.965 182.132 224.892 182.135C224.818 182.137 224.746 182.161 224.686 182.204C224.626 182.247 224.58 182.307 224.554 182.376C224.494 182.576 224.528 181.552 224.528 199.872C218.582 200.774 211.96 201.354 205.982 201.756C206.088 183.598 208.168 169.516 212.332 158.746ZM208.464 202.334C211.686 207.212 212.506 213.992 210.902 222.494H202.6C203.938 220.894 204.446 216.786 203.858 212.19L203.172 208.644C202.756 206.489 201.759 204.489 200.288 202.86C203.212 202.696 205.928 202.522 208.464 202.334ZM190.34 198.46C190.402 198.428 190.74 198.576 191.09 199.16C192.591 201.619 194.38 203.891 196.42 205.926C194.98 205.38 193.204 204.744 191.718 204.3C189.816 199.896 190.152 198.556 190.34 198.46ZM194.708 217.646C195.233 216.934 195.682 216.168 196.046 215.362C196.083 215.269 196.082 215.165 196.043 215.074C196.004 214.982 195.931 214.909 195.838 214.872C195.745 214.834 195.642 214.835 195.55 214.874C195.458 214.913 195.385 214.987 195.348 215.08C195.02 215.81 194.618 216.505 194.148 217.154C192.678 215.866 191.7 215.024 190.148 216.102C183.548 220.702 181.18 220.928 180.936 220.794C180.958 220.458 181.262 220.694 186.818 213.686C186.88 213.608 186.909 213.508 186.898 213.409C186.887 213.31 186.837 213.219 186.759 213.157C186.681 213.094 186.581 213.066 186.482 213.077C186.383 213.088 186.292 213.138 186.23 213.216L185.03 214.748C177.53 217.854 175.262 217.328 175.104 217.044C175.118 216.822 175.954 216.444 178.176 215.284C180.65 213.988 183.736 212.378 185.93 211.006C186.015 210.953 186.075 210.868 186.097 210.771C186.119 210.673 186.102 210.571 186.049 210.487C185.996 210.402 185.911 210.342 185.814 210.32C185.717 210.297 185.615 210.315 185.53 210.368C184.93 210.744 184.264 211.136 183.556 211.538C174.68 214.102 171.272 213.244 170.716 212.858C170.768 212.83 182.666 209.234 185.316 208.068C185.403 208.025 185.471 207.95 185.504 207.859C185.537 207.768 185.534 207.668 185.495 207.579C185.456 207.49 185.384 207.42 185.295 207.382C185.205 207.345 185.104 207.344 185.014 207.38C184.274 207.704 183.23 208.088 182.028 208.5C179.461 208.953 176.846 209.066 174.25 208.834C174.868 208.414 175.561 208.118 176.292 207.964C179.892 206.982 188.452 204.5 189.132 204.492C191.046 204.492 197.006 207.052 202.486 209.022L203.122 212.308C203.678 216.662 203.214 220.668 201.996 222.052C201.895 222.185 201.765 222.294 201.616 222.371C201.467 222.448 201.303 222.49 201.136 222.496C199.528 222.58 197.938 220.398 194.708 217.646ZM227.128 222.494C231.217 221.946 235.273 221.181 239.28 220.202C239.426 220.986 239.544 221.75 239.64 222.494H227.128ZM145.708 328.612C145.954 328.412 142.668 328.482 187.83 328.482C187.983 329.805 188.023 331.138 187.948 332.468C181.208 332.48 151.716 332.668 140.904 332.668C142.372 331.348 144.062 329.914 145.708 328.612ZM125.786 306.482C129.695 308.988 133.985 310.844 138.488 311.978C138.526 311.996 138.566 312.006 138.608 312.008C140.638 312.515 142.7 312.883 144.78 313.11L143.11 316.994C135.808 318.761 128.179 318.67 120.922 316.728L125.786 306.482ZM166.586 311.682C172.815 313.789 179.352 314.844 185.928 314.804L185.422 317.014C178.824 318.852 171.849 318.862 165.246 317.042L166.586 311.682ZM160.4 309.05C162.173 309.951 164.001 310.739 165.874 311.41L164.474 316.996C157.816 319.398 151.607 322.896 146.102 327.346C145.693 323.926 144.916 320.561 143.784 317.308L145.56 313.18C147.454 313.354 149.356 313.421 151.258 313.38C151.496 313.276 151.224 313.6 163.908 290.328C160.04 309.904 160.146 308.82 160.4 309.05ZM169.924 259.896L164.4 287.852L150.886 312.652C146.963 312.698 143.048 312.268 139.228 311.374L169.924 259.896ZM102.25 328.482H144.664C143.372 329.524 140.934 331.552 139.782 332.682H98.36C99.5698 331.204 100.869 329.801 102.25 328.482Z" fill="#1890ff"/>
<path d="M268.59 160.558L220.088 158.178C220.534 158.542 221.042 158.822 221.588 159.004L268.552 161.31C269.451 161.355 270.329 161.593 271.126 162.01C271.924 162.426 272.622 163.009 273.173 163.721C273.724 164.432 274.114 165.254 274.318 166.13C274.521 167.006 274.533 167.916 274.352 168.798L267.552 201.756L250.128 200.462C250.182 200.72 250.234 200.976 250.286 201.228L267.398 202.498L257.468 250.588L245.754 249.716C245.345 250.116 244.911 250.509 244.454 250.896L211.546 253.574L207.456 252.95C207.394 253.196 207.334 253.44 207.274 253.684L211.154 254.284V261.992L205.386 261.34L205.202 262.078L211.134 262.746L206.616 333.034C206.613 333.131 206.648 333.226 206.714 333.298C206.78 333.37 206.871 333.413 206.968 333.42C207.065 333.426 207.161 333.394 207.235 333.331C207.309 333.268 207.356 333.179 207.366 333.082L211.884 262.808C212.166 262.808 208.484 262.964 253.084 259.344C254.137 259.254 255.126 258.803 255.884 258.068L266.586 333.112C266.593 333.161 266.61 333.208 266.635 333.25C266.66 333.293 266.694 333.33 266.733 333.36C266.773 333.389 266.818 333.411 266.866 333.423C266.914 333.435 266.964 333.438 267.013 333.431C267.062 333.424 267.109 333.407 267.152 333.382C267.194 333.356 267.231 333.323 267.261 333.283C267.291 333.244 267.312 333.198 267.324 333.15C267.337 333.102 267.339 333.053 267.332 333.004L256.532 257.286C257.224 256.236 255.866 261.956 275.094 168.958C275.297 167.969 275.284 166.949 275.056 165.966C274.828 164.983 274.39 164.061 273.772 163.263C273.154 162.465 272.371 161.811 271.477 161.344C270.583 160.877 269.598 160.608 268.59 160.558ZM256.4 255.722C256.203 256.49 255.772 257.178 255.167 257.691C254.562 258.204 253.812 258.517 253.022 258.586C253.022 258.586 211.994 262.048 211.9 262.048V254.3C211.9 254.3 252.606 250.99 252.7 250.99L257.3 251.33L256.4 255.722Z" fill="#1890ff"/>
<path d="M350.382 222.494H330.704V218.734C330.704 218.483 330.604 218.243 330.427 218.065C330.25 217.888 330.011 217.787 329.76 217.786H314.514C314.897 217.431 315.174 216.978 315.316 216.476C315.457 215.974 315.457 215.443 315.315 214.941C315.173 214.439 314.896 213.986 314.512 213.632C314.129 213.278 313.656 213.037 313.144 212.936L336.33 158.912C337.277 158.848 338.163 158.425 338.807 157.729C339.452 157.033 339.805 156.116 339.795 155.168C339.784 154.219 339.411 153.311 338.752 152.628C338.093 151.946 337.198 151.542 336.25 151.5L302.366 113.482C302.758 112.853 302.888 112.096 302.728 111.373C302.567 110.65 302.13 110.018 301.509 109.615C300.888 109.211 300.133 109.066 299.407 109.213C298.681 109.359 298.042 109.785 297.626 110.398L292.138 107.656L299.58 100.15C299.942 99.7843 300.229 99.3512 300.424 98.875C300.619 98.3988 300.718 97.8889 300.716 97.3744C300.714 96.8598 300.611 96.3508 300.412 95.8762C300.213 95.4017 299.922 94.971 299.557 94.6086C299.192 94.2463 298.759 93.9595 298.282 93.7646C297.806 93.5697 297.296 93.4704 296.782 93.4726C296.267 93.4747 295.758 93.5782 295.284 93.777C294.809 93.9759 294.378 94.2663 294.016 94.6316L286.09 102.632L267.324 107.746C266.929 107.853 266.569 108.063 266.28 108.354C265.992 108.645 265.785 109.006 265.681 109.403C265.577 109.799 265.579 110.215 265.687 110.611C265.795 111.006 266.005 111.366 266.296 111.654L271.394 116.708C270.757 117.665 270.472 118.814 270.588 119.959C270.704 121.103 271.214 122.171 272.031 122.981C272.848 123.791 273.921 124.292 275.066 124.398C276.211 124.504 277.358 124.209 278.31 123.564L282.91 128.128C283.2 128.416 283.562 128.623 283.958 128.728C284.354 128.832 284.77 128.83 285.165 128.723C285.56 128.615 285.92 128.405 286.208 128.114C286.496 127.823 286.702 127.462 286.806 127.066L291.748 108.308L297.294 111.076C297.102 111.667 297.11 112.305 297.317 112.892C297.524 113.478 297.918 113.98 298.439 114.32C298.959 114.661 299.577 114.82 300.197 114.774C300.818 114.728 301.405 114.479 301.87 114.066L335.306 151.574C334.455 151.754 333.694 152.227 333.155 152.911C332.617 153.595 332.337 154.446 332.362 155.316C332.388 156.186 332.718 157.019 333.295 157.67C333.872 158.322 334.66 158.75 335.52 158.88L312.34 212.892C311.796 212.942 311.278 213.148 310.848 213.487C310.419 213.825 310.097 214.28 309.921 214.797C309.744 215.315 309.722 215.872 309.856 216.402C309.989 216.932 310.273 217.412 310.674 217.784H295.428C295.177 217.785 294.938 217.886 294.761 218.063C294.584 218.241 294.485 218.481 294.484 218.732V222.492H289.534C289.883 222.094 290.075 221.583 290.074 221.054V216.762C291.539 216.66 292.911 216.006 293.912 214.932C294.914 213.858 295.471 212.444 295.471 210.976C295.471 209.507 294.914 208.093 293.912 207.019C292.911 205.946 291.539 205.292 290.074 205.19V200.896C290.074 200.312 289.842 199.753 289.43 199.34C289.017 198.927 288.457 198.696 287.874 198.696H274.212C273.629 198.696 273.069 198.927 272.656 199.34C272.244 199.753 272.012 200.312 272.012 200.896V221.058C272.012 221.586 272.203 222.096 272.552 222.494H145.874C145.7 222.014 145.383 221.6 144.966 221.307C144.549 221.014 144.052 220.857 143.542 220.856H138.624C137.931 220.851 137.264 220.593 136.748 220.13C136.232 219.667 135.904 219.032 135.824 218.344L133.764 198.458H160.87C162.727 198.458 164.507 197.72 165.82 196.407C167.133 195.095 167.87 193.314 167.87 191.458V143.528C167.87 141.671 167.133 139.891 165.82 138.578C164.507 137.265 162.727 136.528 160.87 136.528H92.8C90.9435 136.528 89.163 137.265 87.8503 138.578C86.5375 139.891 85.8 141.671 85.8 143.528V191.468C85.8 193.324 86.5375 195.105 87.8503 196.417C89.163 197.73 90.9435 198.468 92.8 198.468H116.126L113.82 222.494H55.574C54.597 222.494 53.6599 222.882 52.969 223.573C52.2781 224.264 51.89 225.201 51.89 226.178C51.89 227.155 52.2781 228.092 52.969 228.783C53.6599 229.474 54.597 229.862 55.574 229.862H95.496C75.612 339.958 76.922 332.512 76.922 333.062C76.922 333.161 76.9616 333.257 77.0321 333.328C77.1027 333.398 77.1983 333.438 77.298 333.438H83.964C84.0523 333.438 84.1377 333.407 84.2053 333.35C84.273 333.293 84.3185 333.215 84.334 333.128L102.98 229.862H302.98L321.628 333.118C321.643 333.205 321.689 333.283 321.757 333.34C321.824 333.397 321.91 333.428 321.998 333.428H328.662C328.762 333.428 328.857 333.388 328.928 333.318C328.998 333.247 329.038 333.151 329.038 333.052C329.038 332.514 330.29 339.632 310.466 229.862H350.388C351.365 229.862 352.302 229.474 352.993 228.783C353.684 228.092 354.072 227.155 354.072 226.178C354.072 225.201 353.684 224.264 352.993 223.573C352.302 222.882 351.365 222.494 350.388 222.494H350.382ZM274.062 123.406C273.477 123.191 272.947 122.848 272.511 122.403C272.075 121.958 271.743 121.422 271.54 120.832C271.337 120.243 271.267 119.616 271.336 118.997C271.406 118.378 271.612 117.781 271.94 117.252L277.764 123.024C277.218 123.367 276.6 123.581 275.958 123.647C275.316 123.713 274.667 123.631 274.062 123.406ZM290.992 107.528L286.622 103.482C286.555 103.412 286.518 103.32 286.517 103.224C286.516 103.128 286.551 103.035 286.616 102.964C286.681 102.894 286.771 102.85 286.866 102.843C286.962 102.836 287.057 102.865 287.132 102.926L291.502 106.974C291.564 107.043 291.597 107.133 291.597 107.225C291.596 107.318 291.562 107.407 291.5 107.476C291.437 107.545 291.352 107.588 291.26 107.597C291.168 107.607 291.075 107.582 291 107.528H290.992ZM299.992 114.042C299.581 114.042 299.179 113.92 298.837 113.692C298.495 113.464 298.228 113.14 298.071 112.76C297.913 112.38 297.872 111.962 297.952 111.559C298.032 111.155 298.23 110.785 298.521 110.494C298.811 110.204 299.182 110.006 299.585 109.925C299.988 109.845 300.406 109.887 300.786 110.044C301.166 110.202 301.49 110.468 301.719 110.81C301.947 111.152 302.068 111.554 302.068 111.966C302.067 112.239 302.013 112.509 301.908 112.761C301.803 113.013 301.649 113.242 301.456 113.435C301.262 113.628 301.033 113.781 300.78 113.885C300.528 113.989 300.257 114.042 299.984 114.042H299.992ZM333.124 155.21C333.124 154.624 333.297 154.051 333.622 153.564C333.947 153.076 334.41 152.696 334.951 152.472C335.492 152.247 336.087 152.188 336.662 152.302C337.237 152.416 337.765 152.698 338.179 153.112C338.594 153.526 338.876 154.053 338.991 154.628C339.105 155.202 339.047 155.798 338.823 156.339C338.599 156.881 338.22 157.344 337.733 157.669C337.246 157.995 336.674 158.169 336.088 158.17C335.698 158.171 335.312 158.095 334.952 157.947C334.592 157.798 334.264 157.581 333.988 157.306C333.712 157.031 333.493 156.704 333.344 156.345C333.194 155.985 333.117 155.599 333.116 155.21H333.124ZM290.086 205.944C291.356 206.038 292.543 206.61 293.409 207.543C294.275 208.476 294.756 209.702 294.756 210.976C294.756 212.249 294.275 213.475 293.409 214.408C292.543 215.342 291.356 215.913 290.086 216.008V205.944ZM92.8 197.706C91.148 197.705 89.5636 197.049 88.3938 195.883C87.2239 194.716 86.5638 193.134 86.558 191.482V143.528C86.5578 142.708 86.719 141.896 87.0325 141.138C87.3461 140.38 87.8058 139.692 88.3854 139.112C88.9651 138.532 89.6532 138.072 90.4107 137.758C91.1681 137.444 91.98 137.282 92.8 137.282H158.376C160.03 137.284 161.615 137.942 162.785 139.111C163.954 140.28 164.612 141.866 164.614 143.52V191.47C164.611 193.123 163.953 194.708 162.784 195.877C161.615 197.046 160.029 197.704 158.376 197.706H92.8ZM114.58 222.494L116.886 198.458H130.526L133.156 222.494H114.58ZM310.524 215.71C310.524 215.299 310.646 214.898 310.874 214.556C311.102 214.215 311.426 213.949 311.806 213.792C312.185 213.635 312.602 213.593 313.005 213.674C313.408 213.754 313.778 213.951 314.068 214.242C314.358 214.532 314.556 214.902 314.636 215.305C314.716 215.707 314.675 216.125 314.518 216.504C314.361 216.883 314.095 217.208 313.753 217.436C313.412 217.664 313.011 217.786 312.6 217.786C312.049 217.786 311.521 217.567 311.131 217.178C310.741 216.789 310.521 216.261 310.52 215.71H310.524ZM329.956 222.494H295.24V218.734C295.24 218.43 293.162 218.534 329.758 218.534C329.811 218.534 329.862 218.555 329.899 218.592C329.937 218.63 329.958 218.681 329.958 218.734L329.956 222.494Z" fill="#1890ff"/>
</svg>
