<svg width="400" height="400" viewBox="0 0 400 400" fill="none" xmlns="http://www.w3.org/2000/svg">
<path d="M248.058 222.188H219.11C226.883 221.735 234.587 220.469 242.096 218.412C243.262 218.099 244.374 217.61 245.394 216.964C246.414 218.635 247.305 220.381 248.058 222.188V222.188Z" fill="#B2BEC3"/>
<path d="M87.182 221.716C90.034 208.754 108.286 210.296 108.468 210.316C108.564 210.329 108.651 210.379 108.711 210.455C108.771 210.531 108.8 210.627 108.791 210.724C108.782 210.82 108.736 210.909 108.663 210.973C108.59 211.036 108.495 211.069 108.398 211.064C108.22 211.048 90.626 209.568 87.916 221.88C87.8943 221.977 87.8348 222.062 87.7506 222.116C87.6663 222.169 87.5644 222.187 87.467 222.165C87.3697 222.143 87.285 222.084 87.2315 222C87.1781 221.915 87.1603 221.813 87.182 221.716Z" fill="white"/>
<path d="M102.94 201.58C99.226 200.112 101.926 203.69 105.002 206.494C102.778 206.23 100.538 206.14 98.3 206.226C97.7 206.334 97.048 207.166 100.742 208.204C105.67 209.5 110.444 211.326 114.98 213.648L115.52 208.02C108.668 205.164 105.346 202.53 102.94 201.58Z" fill="#B2BEC3"/>
<path d="M114.684 216.766L114.32 220.55C113.551 220.447 112.776 220.386 112 220.366C105.436 220.252 107.756 218.646 110.034 217.998C111.2 217.664 113.152 217.272 114.684 216.766Z" fill="#B2BEC3"/>
<path d="M115.664 207.674C106.762 203.962 102.214 199.574 100.94 201.182C100.112 202.22 102.958 205.046 103.908 205.982C102.027 205.722 100.122 205.681 98.232 205.86C98.0366 205.878 97.8529 205.961 97.7115 206.097C97.57 206.233 97.4792 206.414 97.454 206.608C97.36 208.524 103.792 208.688 113.34 213.118C113.768 213.38 114.246 213.666 114.794 213.98C114.881 214.03 114.984 214.043 115.08 214.017C115.176 213.99 115.258 213.927 115.308 213.84C115.358 213.753 115.371 213.651 115.344 213.554C115.318 213.458 115.255 213.376 115.168 213.326C113.87 212.605 112.625 211.794 111.442 210.898C109.295 209.456 107.231 207.896 105.258 206.224C103.572 204.692 101.398 202.27 101.52 201.664C101.682 201.564 102.652 201.722 105.404 203.28C108.611 205.197 111.943 206.899 115.376 208.374C115.469 208.412 115.573 208.412 115.666 208.374C115.758 208.335 115.832 208.261 115.87 208.168C115.908 208.075 115.908 207.971 115.869 207.879C115.831 207.786 115.757 207.712 115.664 207.674ZM98.198 206.674C98.2455 206.634 98.304 206.608 98.366 206.6C100.523 206.44 102.69 206.524 104.828 206.848C106.601 208.359 108.463 209.761 110.404 211.048C107.302 209.743 104.107 208.673 100.844 207.848C98.438 207.166 98.22 206.67 98.2 206.67L98.198 206.674Z" fill="white"/>
<path d="M114.32 220.926C113.547 220.824 112.768 220.762 111.988 220.742C108.014 220.674 107.402 220.076 107.326 219.502C107.194 218.502 109.284 217.82 109.926 217.636C111.31 217.236 112.986 216.93 114.566 216.408C114.661 216.377 114.764 216.385 114.854 216.43C114.943 216.475 115.011 216.553 115.042 216.648C115.073 216.743 115.066 216.847 115.021 216.936C114.976 217.025 114.897 217.093 114.802 217.124C113.202 217.648 111.36 218.012 110.132 218.36C108.83 218.73 108.11 219.238 108.072 219.418C108.072 219.418 108.414 219.928 112.002 219.99C112.794 220.009 113.583 220.072 114.368 220.178C114.462 220.192 114.546 220.24 114.606 220.313C114.665 220.387 114.695 220.48 114.689 220.574C114.683 220.668 114.642 220.757 114.573 220.822C114.505 220.887 114.414 220.925 114.32 220.926Z" fill="white"/>
<path d="M250.164 228.8H155.268L120.386 301.25C122.03 302.697 123.774 304.026 125.606 305.226L120.386 316.288C127.9 318.352 135.816 318.464 143.386 316.614L145.31 312.098C147.237 312.289 149.174 312.372 151.11 312.348L164.71 287.536L160.646 308.086C162.498 309.004 164.403 309.81 166.352 310.498L164.79 316.614C171.635 318.576 178.893 318.576 185.738 316.614L186.362 313.732C188.213 313.724 190.074 313.642 191.946 313.486L206.988 252.578L211.53 253.272L243.212 250.722L244.874 249.346C251.6 243.218 251.724 235.244 250.164 228.8Z" fill="#B2BEC3"/>
<path d="M201.316 222.18C199.288 222.408 197.65 219.916 194.816 217.546C192.752 215.826 191.92 214.644 190.37 215.726C181.914 221.636 179.636 220.858 180.878 219.516C182.83 217.422 184.1 215.844 185.258 214.376C175.176 218.576 173.618 216.586 175.318 215.68C178.002 214.256 181.084 212.712 183.704 211.206C172.238 214.522 168.888 212.348 170.764 211.748C174.46 210.568 178.444 209.452 182.112 208.186C171.948 209.546 172.606 207.904 176.192 206.92C180.166 205.834 188.392 203.434 189.132 203.434C189.916 203.499 190.689 203.658 191.434 203.91C188.39 196.932 190.38 196.51 191.414 198.288C192.876 200.716 194.633 202.954 196.644 204.95C197.114 205.468 197.634 205.937 198.198 206.35L202.814 208.064L203.494 211.584C204.222 217.182 203.254 221.962 201.316 222.18Z" fill="#B2BEC3"/>
<path d="M219.4 144.8C218.68 145.124 216.43 152.416 218.662 156.352C214.988 157.542 210.922 158.248 207.72 156.06C208.663 155.069 209.386 153.89 209.842 152.6L213.476 149.2C212.487 149.484 211.466 149.642 210.438 149.668C200.564 149.812 209.984 134.96 210.168 134.96C215.024 128.172 218.298 135.4 217.986 139.642C218.048 140.488 218.454 140.72 219.82 139.718C222.61 137.678 224.632 142.452 219.4 144.8Z" fill="#B2BEC3"/>
<path d="M122.726 176.546C121.088 176.674 119.448 176.306 118.023 175.488C116.597 174.67 115.451 173.442 114.734 171.963C114.017 170.484 113.763 168.823 114.005 167.198C114.246 165.572 114.973 164.057 116.089 162.85C117.205 161.644 118.658 160.802 120.26 160.434C121.862 160.066 123.538 160.19 125.068 160.79C126.598 161.389 127.912 162.436 128.839 163.794C129.765 165.151 130.26 166.757 130.26 168.4C130.336 170.478 129.586 172.501 128.174 174.028C126.762 175.554 124.803 176.46 122.726 176.546ZM122.726 161.004C121.237 160.875 119.743 161.199 118.441 161.933C117.138 162.668 116.088 163.778 115.428 165.119C114.767 166.46 114.527 167.97 114.739 169.45C114.951 170.93 115.604 172.311 116.614 173.413C117.624 174.515 118.944 175.287 120.4 175.626C121.856 175.966 123.38 175.858 124.774 175.317C126.167 174.775 127.365 173.826 128.21 172.592C129.054 171.359 129.507 169.899 129.508 168.404C129.586 166.524 128.917 164.69 127.646 163.302C126.375 161.914 124.606 161.087 122.726 161V161.004Z" fill="white"/>
<path d="M123.344 158.94C123.04 158.94 122.67 158.92 122.7 158.528C122.72 157.763 122.9 157.01 123.228 156.319C123.557 155.627 124.026 155.012 124.606 154.512C125.186 154.012 125.864 153.64 126.597 153.417C127.329 153.195 128.1 153.129 128.86 153.222C128.959 153.229 129.051 153.275 129.116 153.35C129.182 153.425 129.215 153.523 129.208 153.622C129.066 155.144 128.391 156.566 127.302 157.638C126.169 158.509 124.773 158.968 123.344 158.94ZM128.4 153.97C127.197 153.901 126.015 154.302 125.102 155.088C124.189 155.874 123.618 156.984 123.508 158.184C124.711 158.253 125.893 157.853 126.806 157.066C127.719 156.28 128.29 155.17 128.4 153.97Z" fill="white"/>
<path d="M137.25 103.14H114.65C114.601 103.14 114.552 103.13 114.506 103.111C114.461 103.093 114.419 103.065 114.384 103.03C114.349 102.995 114.322 102.954 114.303 102.908C114.284 102.862 114.274 102.813 114.274 102.764V80.1641C114.274 80.0644 114.314 79.9687 114.384 79.8982C114.455 79.8277 114.55 79.7881 114.65 79.7881H137.25C137.35 79.7881 137.445 79.8277 137.516 79.8982C137.586 79.9687 137.626 80.0644 137.626 80.1641V102.764C137.626 102.813 137.616 102.862 137.597 102.908C137.579 102.954 137.551 102.995 137.516 103.03C137.481 103.065 137.44 103.093 137.394 103.111C137.348 103.13 137.299 103.14 137.25 103.14ZM115.034 102.388H136.872V80.5481H115.034V102.388Z" fill="white"/>
<path d="M133.41 66.8401C132.883 66.8414 132.37 67.0154 131.951 67.3355C131.532 67.6556 131.229 68.1041 131.089 68.6126C130.949 69.1211 130.979 69.6614 131.175 70.1511C131.371 70.6408 131.722 71.0528 132.174 71.3241L125.614 85.1581C125.571 85.2483 125.566 85.3517 125.6 85.4457C125.633 85.5396 125.703 85.6164 125.793 85.6591C125.883 85.7018 125.987 85.7069 126.081 85.6734C126.174 85.6398 126.251 85.5703 126.294 85.4801L132.874 71.6021C133.205 71.6787 133.549 71.6844 133.883 71.6187C134.217 71.5531 134.533 71.4176 134.81 71.2211C135.088 71.0247 135.321 70.7717 135.494 70.4788C135.667 70.186 135.776 69.8599 135.814 69.5219C135.852 69.1839 135.818 68.8417 135.715 68.5177C135.611 68.1937 135.44 67.8953 135.213 67.642C134.986 67.3888 134.708 67.1864 134.397 67.0482C134.087 66.91 133.75 66.8391 133.41 66.8401Z" fill="white"/>
<path d="M60.896 265.288H52.644V257.022C52.6477 256.971 52.6409 256.92 52.624 256.872C52.607 256.823 52.5803 256.779 52.5455 256.742C52.5107 256.704 52.4685 256.674 52.4216 256.654C52.3747 256.633 52.3241 256.623 52.273 256.623C52.2218 256.623 52.1712 256.633 52.1244 256.654C52.0775 256.674 52.0353 256.704 52.0005 256.742C51.9657 256.779 51.9389 256.823 51.922 256.872C51.9051 256.92 51.8982 256.971 51.902 257.022V265.276H43.636C43.5379 265.276 43.4438 265.315 43.3744 265.384C43.305 265.454 43.266 265.548 43.266 265.646C43.266 265.744 43.305 265.838 43.3744 265.908C43.4438 265.977 43.5379 266.016 43.636 266.016H51.89V274.282C51.89 274.38 51.929 274.474 51.9984 274.544C52.0678 274.613 52.1619 274.652 52.26 274.652C52.3581 274.652 52.4522 274.613 52.5216 274.544C52.591 274.474 52.63 274.38 52.63 274.282V266.028H60.898C60.9466 266.028 60.9947 266.018 61.0395 266C61.0843 265.981 61.1251 265.953 61.1593 265.919C61.1936 265.885 61.2207 265.844 61.2392 265.799C61.2577 265.754 61.2671 265.706 61.267 265.657C61.2669 265.608 61.2572 265.56 61.2384 265.516C61.2197 265.471 61.1924 265.43 61.1579 265.396C61.1235 265.361 61.0826 265.334 61.0377 265.316C60.9927 265.297 60.9446 265.288 60.896 265.288Z" fill="white"/>
<path d="M329.74 255.6C329.663 254.716 329.805 253.826 330.154 253.009C330.503 252.193 331.048 251.475 331.74 250.919C332.433 250.364 333.251 249.987 334.124 249.824C334.997 249.66 335.896 249.714 336.743 249.981C337.59 250.248 338.358 250.719 338.979 251.354C339.6 251.988 340.055 252.766 340.303 253.619C340.552 254.471 340.587 255.371 340.404 256.24C340.222 257.109 339.828 257.92 339.258 258.6C338.572 259.419 337.658 260.016 336.632 260.315C335.607 260.614 334.515 260.603 333.496 260.281C332.477 259.96 331.577 259.344 330.908 258.511C330.239 257.677 329.833 256.665 329.74 255.6ZM335.124 250.48C334.342 250.479 333.573 250.676 332.887 251.051C332.202 251.427 331.622 251.969 331.201 252.628C330.781 253.287 330.533 254.041 330.482 254.821C330.43 255.601 330.576 256.382 330.906 257.09C331.236 257.799 331.74 258.413 332.37 258.875C333 259.338 333.737 259.634 334.512 259.736C335.287 259.838 336.075 259.744 336.803 259.46C337.532 259.177 338.177 258.715 338.68 258.116C339.245 257.438 339.606 256.613 339.72 255.737C339.834 254.861 339.697 253.971 339.324 253.171C338.951 252.371 338.358 251.693 337.615 251.217C336.871 250.74 336.007 250.486 335.124 250.482V250.48Z" fill="white"/>
<path d="M215.8 167.188C215.787 166.836 215.637 166.503 215.383 166.259C215.13 166.015 214.791 165.878 214.439 165.878C214.087 165.878 213.748 166.015 213.495 166.259C213.241 166.503 213.091 166.836 213.078 167.188C213.091 167.54 213.241 167.873 213.495 168.117C213.748 168.361 214.087 168.498 214.439 168.498C214.791 168.498 215.13 168.361 215.383 168.117C215.637 167.873 215.787 167.54 215.8 167.188Z" fill="white"/>
<path d="M202.676 179.812C202.676 179.451 202.533 179.106 202.278 178.85C202.023 178.595 201.677 178.452 201.316 178.452C200.955 178.452 200.609 178.595 200.354 178.85C200.099 179.106 199.956 179.451 199.956 179.812C199.956 180.173 200.099 180.519 200.354 180.774C200.609 181.029 200.955 181.172 201.316 181.172C201.677 181.172 202.023 181.029 202.278 180.774C202.533 180.519 202.676 180.173 202.676 179.812Z" fill="white"/>
<path d="M212.882 194.118C212.882 193.757 212.738 193.41 212.483 193.155C212.228 192.9 211.881 192.756 211.52 192.756C211.159 192.756 210.812 192.9 210.557 193.155C210.301 193.41 210.158 193.757 210.158 194.118C210.158 194.479 210.301 194.826 210.557 195.081C210.812 195.337 211.159 195.48 211.52 195.48C211.881 195.48 212.228 195.337 212.483 195.081C212.738 194.826 212.882 194.479 212.882 194.118Z" fill="white"/>
<path d="M389.676 332H188.682C188.773 326.755 187.908 321.536 186.132 316.6L186.702 314.11C188.535 314.117 190.367 314.009 192.186 313.786C192.346 313.63 191.166 318.226 207.274 253.012L211.56 253.656L219.082 253.056C219.168 253.05 219.25 253.014 219.312 252.954C219.375 252.895 219.416 252.816 219.427 252.73C219.438 252.644 219.42 252.557 219.374 252.484C219.329 252.41 219.26 252.354 219.178 252.326L208.066 248.406C208.016 248.389 207.964 248.382 207.911 248.386C207.859 248.39 207.807 248.405 207.761 248.429C207.715 248.454 207.674 248.488 207.641 248.53C207.609 248.571 207.585 248.619 207.572 248.67C207.332 249.646 191.772 312.67 191.648 313.146C188.279 313.416 184.896 313.437 181.524 313.208L195.394 247.308C195.587 246.387 195.96 245.514 196.493 244.739C197.026 243.964 197.707 243.302 198.497 242.792C199.287 242.282 200.171 241.934 201.097 241.768C202.022 241.602 202.972 241.621 203.89 241.824C224.394 246.364 242.64 243.498 240.49 222.578H247.8C252.092 232.84 252.02 243.578 243.144 250.302L243.104 250.336L244.446 250.228C252.942 243.158 252.734 232.274 248.396 222.058C247.678 220.347 246.843 218.687 245.898 217.09C247.857 215.776 249.391 213.92 250.315 211.75C251.238 209.579 251.51 207.187 251.098 204.864C249.16 193.852 244.27 173.734 238.234 168.176C233.275 163.943 227.617 160.606 221.514 158.314C220.744 158.037 220.057 157.57 219.516 156.957C218.975 156.343 218.598 155.603 218.42 154.804C218.366 153.836 218.106 144.014 229.42 141.94C230.019 141.806 230.568 141.504 231.001 141.068C231.435 140.633 231.735 140.083 231.867 139.484C231.999 138.884 231.956 138.259 231.745 137.682C231.534 137.105 231.162 136.601 230.674 136.228C230.059 135.766 229.311 135.514 228.542 135.512C228.793 134.936 228.877 134.301 228.784 133.679C228.69 133.058 228.423 132.475 228.014 131.998C227.604 131.521 227.069 131.17 226.468 130.984C225.868 130.798 225.227 130.785 224.62 130.946C224.731 130.376 224.692 129.787 224.507 129.236C224.323 128.686 223.999 128.192 223.568 127.803C223.136 127.415 222.611 127.145 222.044 127.019C221.477 126.893 220.887 126.916 220.332 127.086C220.436 126.331 220.28 125.564 219.891 124.909C219.501 124.254 218.901 123.751 218.188 123.482C217.475 123.213 216.692 123.195 215.967 123.429C215.242 123.663 214.619 124.137 214.198 124.772C212.822 128.854 210.999 132.772 208.764 136.454C205.384 142.374 203.18 149.854 210.016 150.054C209.826 152.13 208.978 154.091 207.596 155.653C206.215 157.214 204.371 158.294 202.334 158.736C189.934 162.244 181.614 187.022 174.484 197.986L134.062 204.54C134.013 204.548 133.966 204.566 133.924 204.592C133.882 204.618 133.846 204.652 133.817 204.692C133.758 204.773 133.735 204.874 133.751 204.973C133.767 205.072 133.822 205.16 133.903 205.218C133.984 205.277 134.085 205.3 134.184 205.284L138.068 204.652C141.381 209.831 142.54 216.099 141.3 222.12C141.282 222.218 141.304 222.319 141.361 222.401C141.418 222.483 141.505 222.539 141.603 222.557C141.701 222.575 141.802 222.553 141.884 222.496C141.966 222.439 142.022 222.352 142.04 222.254C143.261 216.156 142.13 209.821 138.874 204.522C173.03 198.972 174.654 198.742 174.856 198.668C175.612 198.38 181.128 187.362 181.474 186.668C187.036 175.62 193.96 161.868 202.554 159.438C204.032 159.039 205.426 158.375 206.668 157.48L205.268 160.618C205.237 160.689 205.229 160.768 205.244 160.844C205.259 160.92 205.298 160.989 205.354 161.043C205.41 161.096 205.481 161.131 205.558 161.143C205.634 161.155 205.713 161.142 205.782 161.108L211.472 158.226C207.382 169.026 205.342 183.084 205.236 201.116C201.338 201.374 198.59 201.488 198.792 201.494C198.062 201.506 197.096 202.002 196.462 204.18C196.022 203.716 195.57 203.22 195.114 202.696C193.294 194.752 193.173 186.513 194.758 178.518C194.778 178.42 194.758 178.318 194.702 178.235C194.647 178.152 194.561 178.095 194.463 178.075C194.365 178.055 194.263 178.075 194.18 178.131C194.097 178.186 194.04 178.272 194.02 178.37C192.522 185.979 192.531 193.808 194.048 201.414C193.201 200.366 192.429 199.258 191.74 198.1C191.236 197.234 190.54 196.838 190 197.1C189.036 197.588 189.318 199.798 190.79 203.348C188.544 202.76 189.83 202.792 176.092 206.548C174.816 206.898 173.32 207.482 173.438 208.272C173.522 208.832 174.296 209.082 175.994 209.082C179.35 209.082 180.784 208.162 170.652 211.382C168.55 212.048 170.108 214.884 180.82 212.346C179.836 212.872 176.02 214.87 175.14 215.346C173.36 216.292 173.8 219.284 184.072 215.26C183.136 216.418 182.06 217.692 180.604 219.26C179.944 219.972 180.242 220.428 180.35 220.552C181.228 221.552 185.15 219.83 190.584 216.034C191.602 215.322 192.144 215.72 193.682 217.066C192.133 219.052 190.049 220.554 187.675 221.396C185.301 222.239 182.736 222.386 180.282 221.82C180.184 221.803 180.082 221.825 180.001 221.883C179.919 221.94 179.863 222.028 179.846 222.126C179.829 222.224 179.851 222.326 179.909 222.407C179.966 222.489 180.054 222.545 180.152 222.562C182.734 223.146 185.428 222.986 187.923 222.102C190.417 221.217 192.61 219.643 194.246 217.562C197.344 220.222 199.056 222.562 201.046 222.562H239.712C240.42 229.278 239.02 234.39 235.534 237.782C228.058 245.058 212.592 242.968 204.038 241.074C203.022 240.849 201.972 240.827 200.948 241.011C199.924 241.194 198.946 241.579 198.072 242.143C197.197 242.707 196.444 243.439 195.854 244.296C195.265 245.154 194.851 246.12 194.638 247.138L180.748 313.138C173.91 312.642 167.227 310.856 161.054 307.874C184.854 187.522 166.618 279.718 173.8 243.4C174.542 239.591 176.409 236.092 179.161 233.355C181.912 230.618 185.421 228.77 189.234 228.048C189.332 228.029 189.419 227.972 189.475 227.889C189.531 227.807 189.552 227.705 189.533 227.607C189.514 227.509 189.457 227.422 189.374 227.366C189.292 227.31 189.19 227.289 189.092 227.308C185.132 228.058 181.488 229.978 178.63 232.82C175.773 235.662 173.833 239.296 173.062 243.252L170.34 257.016L138.464 310.504C131.941 308.811 125.907 305.607 120.85 301.152L155.6 228.968C155.643 228.878 155.649 228.775 155.616 228.681C155.583 228.586 155.514 228.509 155.424 228.466C155.334 228.423 155.231 228.417 155.137 228.45C155.042 228.483 154.965 228.552 154.922 228.642C118.348 304.786 119.856 301.154 120.09 301.486C121.678 302.903 123.367 304.202 125.144 305.374L120.112 315.974C111.171 319.046 103.291 324.606 97.4 332H10.428C10.15 332 9.47199 333 10.51 333.058C15.202 333.358 56.51 332.938 389.672 332.938C390.17 332.932 390.174 332 389.676 332ZM245.276 217.486C246.101 218.884 246.841 220.33 247.49 221.818H240.4C240.303 221.018 240.175 220.194 240.016 219.346C241.856 219.008 243.629 218.378 245.27 217.48L245.276 217.486ZM218.216 156.892L217.674 161.336L213.25 157.832C214.938 157.73 216.607 157.414 218.216 156.892ZM206.646 147.524C205.282 144.524 208.324 138.65 209.756 136.258C210.768 134.568 212.684 132.058 214.57 132.64C216.324 133.188 217.3 135.972 217.548 137.84C217.748 139.404 217.444 139.84 217.824 140.416C218.224 141.016 218.982 140.716 219.598 140.326C220.086 140.018 220.576 139.508 221.308 139.614C222.728 139.814 222.954 142.66 219.508 144.344L219.252 144.464C218.176 144.952 216.236 152.138 218.13 156.134C214.93 157.134 211.172 157.734 208.306 155.988C209.117 155.055 209.748 153.982 210.17 152.82C214.1 149.138 213.91 149.398 213.838 149.086C213.578 148.448 213.038 149.232 210.51 149.286C208.894 149.29 207.326 149.014 206.646 147.524ZM207.884 156.618C208.792 157.166 209.798 157.534 210.846 157.702L206.382 159.964L207.884 156.618ZM212.332 158.064C218.132 162.664 217.766 162.422 217.966 162.422C218.058 162.422 218.147 162.389 218.216 162.328C218.285 162.267 218.329 162.183 218.34 162.092L218.914 157.386C219.536 158.132 220.351 158.693 221.27 159.008C227.279 161.265 232.849 164.55 237.732 168.716C242.858 173.434 247.874 190.822 250.364 204.98C250.859 207.81 250.275 210.723 248.726 213.142C247.177 215.562 244.777 217.313 242 218.048C234.518 220.094 226.843 221.355 219.1 221.812H211.67C213.238 213.376 212.45 206.576 209.32 201.588C217.042 201.1 224.721 200.076 232.302 198.524C232.4 198.503 232.485 198.444 232.539 198.36C232.593 198.276 232.611 198.174 232.59 198.076C232.569 197.978 232.51 197.893 232.426 197.839C232.342 197.785 232.24 197.767 232.142 197.788C230.818 198.078 229.5 198.34 228.21 198.572C227.677 192.89 226.693 187.26 225.268 181.734L225.244 181.672C225.213 181.605 225.164 181.548 225.101 181.509C225.038 181.47 224.965 181.451 224.892 181.453C224.818 181.455 224.746 181.48 224.686 181.522C224.626 181.565 224.58 181.625 224.554 181.694C224.494 181.894 224.528 180.87 224.528 199.19C218.582 200.092 211.96 200.672 205.982 201.074C206.088 182.916 208.168 168.834 212.332 158.064ZM208.464 201.652C211.686 206.53 212.506 213.31 210.902 221.812H202.6C203.938 220.212 204.446 216.104 203.858 211.508L203.172 207.962C202.756 205.807 201.759 203.807 200.288 202.178C203.212 202.014 205.928 201.84 208.464 201.652ZM190.34 197.778C190.402 197.746 190.74 197.894 191.09 198.478C192.591 200.938 194.38 203.209 196.42 205.244C194.98 204.698 193.204 204.062 191.718 203.618C189.816 199.214 190.152 197.874 190.34 197.778ZM194.708 216.964C195.233 216.252 195.682 215.486 196.046 214.68C196.083 214.587 196.082 214.484 196.043 214.392C196.004 214.3 195.931 214.227 195.838 214.19C195.745 214.153 195.642 214.154 195.55 214.193C195.458 214.232 195.385 214.305 195.348 214.398C195.02 215.129 194.618 215.824 194.148 216.472C192.678 215.184 191.7 214.342 190.148 215.42C183.548 220.02 181.18 220.246 180.936 220.112C180.958 219.776 181.262 220.012 186.818 213.004C186.88 212.926 186.909 212.826 186.898 212.727C186.887 212.628 186.837 212.537 186.759 212.475C186.681 212.413 186.581 212.384 186.482 212.395C186.383 212.406 186.292 212.456 186.23 212.534L185.03 214.066C177.53 217.172 175.262 216.646 175.104 216.362C175.118 216.14 175.954 215.762 178.176 214.602C180.65 213.306 183.736 211.696 185.93 210.324C186.015 210.271 186.075 210.186 186.097 210.089C186.119 209.992 186.102 209.89 186.049 209.805C185.996 209.72 185.911 209.66 185.814 209.638C185.717 209.616 185.615 209.633 185.53 209.686C184.93 210.062 184.264 210.454 183.556 210.856C174.68 213.42 171.272 212.562 170.716 212.176C170.768 212.148 182.666 208.552 185.316 207.386C185.403 207.343 185.471 207.269 185.504 207.178C185.537 207.086 185.534 206.986 185.495 206.897C185.456 206.808 185.384 206.738 185.295 206.701C185.205 206.664 185.104 206.663 185.014 206.698C184.274 207.022 183.23 207.406 182.028 207.818C179.461 208.272 176.846 208.384 174.25 208.152C174.868 207.732 175.561 207.436 176.292 207.282C179.892 206.3 188.452 203.818 189.132 203.81C191.046 203.81 197.006 206.37 202.486 208.34L203.122 211.626C203.678 215.98 203.214 219.986 201.996 221.37C201.895 221.503 201.765 221.612 201.616 221.689C201.467 221.766 201.303 221.809 201.136 221.814C199.528 221.898 197.938 219.716 194.708 216.964ZM227.128 221.812C231.217 221.265 235.273 220.5 239.28 219.52C239.426 220.304 239.544 221.068 239.64 221.812H227.128ZM145.708 327.93C145.954 327.73 142.668 327.8 187.83 327.8C187.983 329.123 188.023 330.456 187.948 331.786C181.208 331.798 151.716 331.986 140.904 331.986C142.372 330.666 144.062 329.232 145.708 327.93ZM125.786 305.8C129.695 308.306 133.985 310.162 138.488 311.296C138.526 311.314 138.566 311.324 138.608 311.326C140.638 311.833 142.7 312.201 144.78 312.428L143.11 316.312C135.808 318.079 128.179 317.988 120.922 316.046L125.786 305.8ZM166.586 311C172.815 313.108 179.352 314.163 185.928 314.122L185.422 316.332C178.824 318.17 171.849 318.18 165.246 316.36L166.586 311ZM160.4 308.368C162.173 309.269 164.001 310.058 165.874 310.728L164.474 316.314C157.816 318.716 151.607 322.214 146.102 326.664C145.693 323.244 144.916 319.879 143.784 316.626L145.56 312.498C147.454 312.673 149.356 312.74 151.258 312.698C151.496 312.594 151.224 312.918 163.908 289.646C160.04 309.222 160.146 308.138 160.4 308.368ZM169.924 259.214L164.4 287.17L150.886 311.97C146.963 312.016 143.048 311.587 139.228 310.692L169.924 259.214ZM102.25 327.8H144.664C143.372 328.842 140.934 330.87 139.782 332H98.36C99.5698 330.522 100.869 329.119 102.25 327.8Z" fill="white"/>
<path d="M268.59 159.876L220.088 157.496C220.534 157.86 221.042 158.14 221.588 158.322L268.552 160.628C269.451 160.673 270.329 160.912 271.126 161.328C271.924 161.744 272.622 162.328 273.173 163.039C273.724 163.75 274.114 164.572 274.318 165.449C274.521 166.325 274.533 167.235 274.352 168.116L267.552 201.074L250.128 199.78C250.182 200.038 250.234 200.294 250.286 200.546L267.398 201.816L257.468 249.906L245.754 249.034C245.345 249.434 244.911 249.827 244.454 250.214L211.546 252.892L207.456 252.268C207.394 252.514 207.334 252.758 207.274 253.002L211.154 253.602V261.31L205.386 260.658L205.202 261.396L211.134 262.064L206.616 332.352C206.613 332.449 206.648 332.544 206.714 332.616C206.78 332.688 206.871 332.732 206.968 332.738C207.065 332.744 207.161 332.713 207.235 332.65C207.309 332.586 207.356 332.497 207.366 332.4L211.884 262.126C212.166 262.126 208.484 262.282 253.084 258.662C254.137 258.572 255.126 258.122 255.884 257.386L266.586 332.43C266.593 332.479 266.61 332.526 266.635 332.569C266.66 332.611 266.694 332.648 266.733 332.678C266.773 332.708 266.818 332.729 266.866 332.741C266.914 332.754 266.964 332.756 267.013 332.749C267.062 332.742 267.109 332.725 267.152 332.7C267.194 332.675 267.231 332.641 267.261 332.602C267.291 332.562 267.312 332.517 267.324 332.469C267.337 332.421 267.339 332.371 267.332 332.322L256.532 256.604C257.224 255.554 255.866 261.274 275.094 168.276C275.297 167.288 275.284 166.267 275.056 165.284C274.828 164.301 274.39 163.379 273.772 162.582C273.154 161.784 272.371 161.129 271.477 160.662C270.583 160.195 269.598 159.927 268.59 159.876ZM256.4 255.04C256.203 255.808 255.772 256.497 255.167 257.009C254.562 257.522 253.812 257.835 253.022 257.904C253.022 257.904 211.994 261.366 211.9 261.366V253.618C211.9 253.618 252.606 250.308 252.7 250.308L257.3 250.648L256.4 255.04Z" fill="white"/>
<path d="M350.382 221.812H330.704V218.052C330.704 217.802 330.604 217.561 330.427 217.384C330.25 217.206 330.011 217.106 329.76 217.104H314.514C314.897 216.75 315.174 216.297 315.316 215.795C315.457 215.293 315.457 214.761 315.315 214.259C315.173 213.757 314.896 213.304 314.512 212.951C314.129 212.597 313.656 212.356 313.144 212.254L336.33 158.23C337.277 158.167 338.163 157.744 338.807 157.048C339.452 156.351 339.805 155.435 339.795 154.486C339.784 153.538 339.411 152.629 338.752 151.947C338.093 151.265 337.198 150.861 336.25 150.818L302.366 112.8C302.758 112.172 302.888 111.415 302.728 110.691C302.567 109.968 302.13 109.337 301.509 108.933C300.888 108.529 300.133 108.385 299.407 108.531C298.681 108.678 298.042 109.103 297.626 109.716L292.138 106.974L299.58 99.4681C299.942 99.1028 300.229 98.6697 300.424 98.1935C300.619 97.7173 300.718 97.2074 300.716 96.6929C300.714 96.1783 300.611 95.6693 300.412 95.1947C300.213 94.7202 299.922 94.2894 299.557 93.9271C299.192 93.5648 298.759 93.278 298.282 93.0831C297.806 92.8881 297.296 92.7889 296.782 92.791C296.267 92.7932 295.758 92.8966 295.284 93.0955C294.809 93.2944 294.378 93.5848 294.016 93.9501L286.09 101.95L267.324 107.064C266.929 107.172 266.569 107.381 266.28 107.672C265.992 107.963 265.785 108.325 265.681 108.721C265.577 109.117 265.579 109.534 265.687 109.929C265.795 110.324 266.005 110.684 266.296 110.972L271.394 116.026C270.757 116.984 270.472 118.133 270.588 119.277C270.704 120.421 271.214 121.49 272.031 122.3C272.848 123.109 273.921 123.61 275.066 123.717C276.211 123.823 277.358 123.528 278.31 122.882L282.91 127.446C283.2 127.735 283.562 127.942 283.958 128.046C284.354 128.151 284.77 128.149 285.165 128.041C285.56 127.934 285.92 127.724 286.208 127.433C286.496 127.142 286.702 126.78 286.806 126.384L291.748 107.626L297.294 110.394C297.102 110.986 297.11 111.624 297.317 112.21C297.524 112.797 297.918 113.299 298.439 113.639C298.959 113.979 299.577 114.138 300.197 114.092C300.818 114.046 301.405 113.797 301.87 113.384L335.306 150.892C334.455 151.072 333.694 151.546 333.155 152.229C332.617 152.913 332.337 153.765 332.362 154.634C332.388 155.504 332.718 156.338 333.295 156.989C333.872 157.64 334.66 158.068 335.52 158.198L312.34 212.21C311.796 212.26 311.278 212.467 310.848 212.805C310.419 213.143 310.097 213.599 309.921 214.116C309.744 214.633 309.722 215.191 309.856 215.72C309.989 216.25 310.273 216.73 310.674 217.102H295.428C295.177 217.104 294.938 217.204 294.761 217.382C294.584 217.559 294.485 217.8 294.484 218.05V221.81H289.534C289.883 221.412 290.075 220.901 290.074 220.372V216.08C291.539 215.978 292.911 215.324 293.912 214.25C294.914 213.177 295.471 211.763 295.471 210.294C295.471 208.826 294.914 207.412 293.912 206.338C292.911 205.264 291.539 204.61 290.074 204.508V200.214C290.074 199.631 289.842 199.071 289.43 198.658C289.017 198.246 288.457 198.014 287.874 198.014H274.212C273.629 198.014 273.069 198.246 272.656 198.658C272.244 199.071 272.012 199.631 272.012 200.214V220.376C272.012 220.905 272.203 221.415 272.552 221.812H145.874C145.7 221.333 145.383 220.919 144.966 220.626C144.549 220.333 144.052 220.175 143.542 220.174H138.624C137.931 220.169 137.264 219.911 136.748 219.449C136.232 218.986 135.904 218.35 135.824 217.662L133.764 197.776H160.87C162.727 197.776 164.507 197.039 165.82 195.726C167.133 194.413 167.87 192.633 167.87 190.776V142.846C167.87 140.99 167.133 139.209 165.82 137.896C164.507 136.584 162.727 135.846 160.87 135.846H92.8C90.9435 135.846 89.163 136.584 87.8503 137.896C86.5375 139.209 85.8 140.99 85.8 142.846V190.786C85.8 192.643 86.5375 194.423 87.8503 195.736C89.163 197.049 90.9435 197.786 92.8 197.786H116.126L113.82 221.812H55.574C54.597 221.812 53.6599 222.2 52.969 222.891C52.2781 223.582 51.89 224.519 51.89 225.496C51.89 226.473 52.2781 227.41 52.969 228.101C53.6599 228.792 54.597 229.18 55.574 229.18H95.496C75.612 339.276 76.922 331.83 76.922 332.38C76.922 332.48 76.9616 332.575 77.0321 332.646C77.1027 332.717 77.1983 332.756 77.298 332.756H83.964C84.0523 332.756 84.1377 332.725 84.2053 332.668C84.273 332.612 84.3185 332.533 84.334 332.446L102.98 229.18H302.98L321.628 332.436C321.643 332.523 321.689 332.602 321.757 332.658C321.824 332.715 321.91 332.746 321.998 332.746H328.662C328.762 332.746 328.857 332.706 328.928 332.636C328.998 332.565 329.038 332.47 329.038 332.37C329.038 331.832 330.29 338.95 310.466 229.18H350.388C351.365 229.18 352.302 228.792 352.993 228.101C353.684 227.41 354.072 226.473 354.072 225.496C354.072 224.519 353.684 223.582 352.993 222.891C352.302 222.2 351.365 221.812 350.388 221.812H350.382ZM274.062 122.724C273.477 122.509 272.947 122.167 272.511 121.722C272.075 121.277 271.743 120.74 271.54 120.151C271.337 119.562 271.267 118.935 271.336 118.315C271.406 117.696 271.612 117.1 271.94 116.57L277.764 122.342C277.218 122.686 276.6 122.899 275.958 122.966C275.316 123.032 274.667 122.949 274.062 122.724ZM290.992 106.846L286.622 102.8C286.555 102.731 286.518 102.639 286.517 102.543C286.516 102.447 286.551 102.354 286.616 102.283C286.681 102.212 286.771 102.169 286.866 102.161C286.962 102.154 287.057 102.184 287.132 102.244L291.502 106.292C291.564 106.361 291.597 106.451 291.597 106.544C291.596 106.636 291.562 106.726 291.5 106.794C291.437 106.863 291.352 106.906 291.26 106.916C291.168 106.925 291.075 106.901 291 106.846H290.992ZM299.992 113.36C299.581 113.361 299.179 113.239 298.837 113.011C298.495 112.783 298.228 112.458 298.071 112.078C297.913 111.698 297.872 111.28 297.952 110.877C298.032 110.474 298.23 110.103 298.521 109.813C298.811 109.522 299.182 109.324 299.585 109.244C299.988 109.164 300.406 109.205 300.786 109.363C301.166 109.52 301.49 109.787 301.719 110.129C301.947 110.471 302.068 110.873 302.068 111.284C302.067 111.557 302.013 111.828 301.908 112.08C301.803 112.332 301.649 112.561 301.456 112.754C301.262 112.947 301.033 113.099 300.78 113.203C300.528 113.307 300.257 113.361 299.984 113.36H299.992ZM333.124 154.528C333.124 153.942 333.297 153.37 333.622 152.882C333.947 152.395 334.41 152.015 334.951 151.79C335.492 151.566 336.087 151.507 336.662 151.621C337.237 151.735 337.765 152.016 338.179 152.43C338.594 152.844 338.876 153.372 338.991 153.946C339.105 154.521 339.047 155.116 338.823 155.658C338.599 156.199 338.22 156.662 337.733 156.988C337.246 157.314 336.674 157.488 336.088 157.488C335.698 157.489 335.312 157.413 334.952 157.265C334.592 157.117 334.264 156.899 333.988 156.624C333.712 156.349 333.493 156.023 333.344 155.663C333.194 155.303 333.117 154.918 333.116 154.528H333.124ZM290.086 205.262C291.356 205.357 292.543 205.928 293.409 206.861C294.275 207.795 294.756 209.021 294.756 210.294C294.756 211.567 294.275 212.794 293.409 213.727C292.543 214.66 291.356 215.231 290.086 215.326V205.262ZM92.8 197.024C91.148 197.023 89.5636 196.368 88.3938 195.201C87.2239 194.035 86.5638 192.452 86.558 190.8V142.846C86.5578 142.026 86.719 141.214 87.0325 140.457C87.3461 139.699 87.8058 139.01 88.3854 138.43C88.9651 137.85 89.6532 137.39 90.4107 137.076C91.1681 136.762 91.98 136.6 92.8 136.6H158.376C160.03 136.602 161.615 137.26 162.785 138.43C163.954 139.599 164.612 141.184 164.614 142.838V190.788C164.611 192.442 163.953 194.026 162.784 195.195C161.615 196.364 160.029 197.022 158.376 197.024H92.8ZM114.58 221.812L116.886 197.776H130.526L133.156 221.812H114.58ZM310.524 215.028C310.524 214.618 310.646 214.216 310.874 213.875C311.102 213.533 311.426 213.267 311.806 213.11C312.185 212.953 312.602 212.912 313.005 212.992C313.408 213.072 313.778 213.27 314.068 213.56C314.358 213.851 314.556 214.22 314.636 214.623C314.716 215.026 314.675 215.443 314.518 215.823C314.361 216.202 314.095 216.526 313.753 216.754C313.412 216.982 313.011 217.104 312.6 217.104C312.049 217.104 311.521 216.886 311.131 216.496C310.741 216.107 310.521 215.579 310.52 215.028H310.524ZM329.956 221.812H295.24V218.052C295.24 217.748 293.162 217.852 329.758 217.852C329.811 217.852 329.862 217.873 329.899 217.911C329.937 217.948 329.958 217.999 329.958 218.052L329.956 221.812Z" fill="white"/>
</svg>
