<svg width="400" height="400" viewBox="0 0 400 400" fill="none" xmlns="http://www.w3.org/2000/svg">
<path d="M192 321.66C177.289 321.661 162.783 318.214 149.645 311.594C136.508 304.973 125.106 295.365 116.354 283.541C107.602 271.716 101.745 258.004 99.2521 243.506C96.7592 229.008 97.7002 214.127 102 200.058C106.299 185.99 113.837 173.125 124.009 162.497C134.18 151.869 146.702 143.774 160.568 138.862C174.435 133.949 189.26 132.356 203.854 134.211C218.447 136.065 232.403 141.315 244.6 149.54C244.65 149.563 244.695 149.596 244.731 149.638C244.768 149.68 244.794 149.73 244.809 149.783C244.824 149.836 244.828 149.892 244.819 149.947C244.81 150.001 244.789 150.054 244.758 150.099C244.727 150.145 244.686 150.184 244.639 150.212C244.591 150.241 244.538 150.258 244.483 150.264C244.428 150.27 244.372 150.264 244.32 150.246C244.268 150.228 244.22 150.198 244.18 150.16C232.079 141.998 218.232 136.787 203.753 134.946C189.273 133.104 174.563 134.684 160.804 139.557C147.045 144.431 134.621 152.463 124.528 163.008C114.436 173.553 106.956 186.318 102.691 200.277C98.4252 214.236 97.4921 229.001 99.9665 243.386C102.441 257.772 108.254 271.376 116.938 283.108C125.623 294.84 136.938 304.372 149.974 310.938C163.009 317.505 177.403 320.924 192 320.92C213.176 320.801 233.692 313.536 250.223 300.301C266.754 287.066 278.331 268.637 283.08 248C283.18 247.5 283.92 247.7 283.82 248.18C279.119 269.027 267.47 287.656 250.785 301.008C234.1 314.361 213.37 321.643 192 321.66Z" fill="white"/>
<path d="M304.98 45.5801C301.568 44.5796 297.979 44.3351 294.462 44.8635C290.946 45.392 287.587 46.6808 284.62 48.6401L284.22 47.8001C283.751 46.8044 282.908 46.0349 281.873 45.6601C280.838 45.2853 279.698 45.3356 278.7 45.8001L275.74 47.2001L272.34 40.0801C271.55 38.4176 270.439 36.9274 269.072 35.6946C267.705 34.4619 266.108 33.5108 264.373 32.8959C262.638 32.2811 260.799 32.0144 258.96 32.1112C257.122 32.208 255.321 32.6663 253.66 33.4601C194.56 61.6401 246.56 36.8401 187.66 64.9201C186 65.7106 184.512 66.8203 183.281 68.1859C182.05 69.5515 181.1 71.1462 180.485 72.879C179.87 74.6117 179.603 76.4486 179.698 78.2847C179.793 80.1208 180.249 81.9202 181.04 83.5801L191.78 106.12C192.57 107.78 193.68 109.268 195.046 110.499C196.411 111.73 198.006 112.68 199.739 113.295C201.472 113.91 203.308 114.177 205.145 114.082C206.981 113.987 208.78 113.531 210.44 112.74L276.44 81.3001C278.102 80.5096 279.593 79.399 280.825 78.0319C282.058 76.6649 283.009 75.0681 283.624 73.333C284.239 71.5979 284.506 69.7586 284.409 67.9203C284.312 66.0821 283.854 64.281 283.06 62.6201L280.68 57.6401L283.66 56.2201C284.656 55.7515 285.425 54.9076 285.8 53.8731C286.175 52.8385 286.124 51.6976 285.66 50.7001L284.96 49.26C287.837 47.3435 291.098 46.0799 294.515 45.5582C297.932 45.0365 301.422 45.2692 304.74 46.2401C315.92 50.2401 320.74 63.6601 318.26 73.7201C315.78 83.7801 307.72 92.6401 302.26 101.36C292.94 116.18 289.02 127.54 295.02 145.06C295.034 145.11 295.057 145.156 295.09 145.196C295.122 145.237 295.162 145.27 295.207 145.294C295.253 145.319 295.303 145.333 295.354 145.338C295.406 145.342 295.458 145.336 295.506 145.32C295.555 145.303 295.601 145.277 295.639 145.243C295.678 145.208 295.709 145.167 295.731 145.12C295.752 145.073 295.764 145.023 295.766 144.971C295.768 144.919 295.759 144.868 295.74 144.82C289.74 127.48 293.5 116.7 302.9 101.76C308.42 92.9801 316.48 84.1601 319.04 73.9001C321.6 63.6401 316.54 49.7201 304.98 45.5801ZM210 112.12C206.828 113.629 203.186 113.817 199.875 112.643C196.564 111.47 193.854 109.03 192.34 105.86L181.68 83.3201C180.932 81.746 180.503 80.0399 180.416 78.2995C180.329 76.5591 180.586 74.8186 181.173 73.1779C181.761 71.5372 182.666 70.0286 183.837 68.7385C185.009 67.4484 186.423 66.4023 188 65.6601L198 60.8401L220.12 107.32L210 112.12ZM220.76 107L198.72 60.5201L220.3 50.2401L242.44 96.7201L220.76 107ZM243.04 96.4001L220.98 50.0001L242.56 39.7201L264.7 86.2001L243.04 96.4001ZM283.26 55.6L280.3 57.0201L276 48.0001L278.96 46.6C279.362 46.4069 279.797 46.2951 280.242 46.271C280.687 46.247 281.133 46.3111 281.553 46.4598C281.973 46.6085 282.359 46.8388 282.69 47.1375C283.021 47.4361 283.289 47.7973 283.48 48.2001L284.9 51.1401C285.269 51.9407 285.312 52.8532 285.021 53.6853C284.73 54.5174 284.127 55.2039 283.34 55.6H283.26Z" fill="white"/>
<path d="M268.76 66.7201C268.495 66.7201 268.24 66.6147 268.053 66.4272C267.865 66.2396 267.76 65.9853 267.76 65.7201V58.1801L262.98 60.3001C262.828 60.3703 262.661 60.4014 262.494 60.3904C262.327 60.3794 262.166 60.3267 262.025 60.2372C261.883 60.1477 261.767 60.0241 261.686 59.8779C261.604 59.7316 261.561 59.5673 261.56 59.4001V50.3201C261.56 50.0549 261.665 49.8005 261.853 49.613C262.04 49.4254 262.295 49.3201 262.56 49.3201C262.825 49.3201 263.08 49.4254 263.267 49.613C263.455 49.8005 263.56 50.0549 263.56 50.3201V57.8801L268.34 55.7401C268.493 55.6691 268.662 55.6381 268.831 55.6501C268.999 55.662 269.162 55.7164 269.304 55.8083C269.446 55.9002 269.562 56.0265 269.642 56.1754C269.721 56.3244 269.762 56.4911 269.76 56.6601V65.7401C269.755 66.0018 269.647 66.251 269.46 66.4343C269.273 66.6175 269.022 66.7201 268.76 66.7201Z" fill="white"/>
<path d="M233.2 203.86L213.6 199.18L128.64 111.42C115.502 117.973 104.674 128.375 97.6 141.24L133.36 180L92.22 170.2C84.1 182.8 80.58 196.08 82.42 210.2L186.68 238L195.7 247.78C207.7 260.74 227.88 268.62 245.8 263.94C247.72 263.66 239.44 221.76 233.2 203.86Z" fill="#B2BEC3"/>
<path d="M203.46 233.72C203.12 233.36 202.56 233.86 202.88 234.22C204.629 236.17 206.514 237.995 208.52 239.68C208.598 239.728 208.691 239.747 208.781 239.732C208.872 239.717 208.954 239.67 209.013 239.599C209.071 239.529 209.102 239.439 209.1 239.347C209.097 239.256 209.062 239.168 209 239.1C207.023 237.447 205.171 235.648 203.46 233.72Z" fill="white"/>
<path d="M227.12 248.8C224.638 248.089 222.217 247.179 219.88 246.08C219.793 246.054 219.699 246.06 219.616 246.097C219.533 246.134 219.466 246.2 219.427 246.282C219.389 246.365 219.381 246.458 219.405 246.546C219.429 246.634 219.484 246.71 219.56 246.76C221.927 247.88 224.382 248.803 226.9 249.52C226.949 249.543 227.003 249.555 227.057 249.555C227.111 249.556 227.165 249.544 227.215 249.522C227.264 249.5 227.309 249.468 227.344 249.427C227.38 249.386 227.407 249.338 227.423 249.286C227.439 249.234 227.444 249.18 227.436 249.126C227.429 249.072 227.411 249.02 227.382 248.974C227.353 248.928 227.315 248.889 227.27 248.859C227.225 248.829 227.174 248.809 227.12 248.8Z" fill="white"/>
<path d="M143 211.1C149.62 212.82 150.44 213.1 150.64 213.1C150.728 213.095 150.812 213.06 150.877 213C150.943 212.94 150.985 212.859 150.997 212.772C151.008 212.684 150.989 212.595 150.942 212.52C150.896 212.445 150.824 212.388 150.74 212.36L143.18 210.36C143.131 210.348 143.081 210.346 143.032 210.354C142.982 210.362 142.935 210.379 142.892 210.405C142.849 210.431 142.812 210.465 142.783 210.505C142.753 210.546 142.732 210.592 142.72 210.64C142.708 210.689 142.706 210.739 142.714 210.789C142.721 210.838 142.739 210.885 142.765 210.928C142.791 210.971 142.825 211.008 142.865 211.038C142.906 211.067 142.951 211.088 143 211.1Z" fill="white"/>
<path d="M123 205.18C122.902 205.153 122.797 205.167 122.709 205.218C122.621 205.268 122.557 205.352 122.53 205.45C122.503 205.548 122.517 205.653 122.568 205.741C122.618 205.829 122.702 205.894 122.8 205.92C129.42 207.64 130.24 207.92 130.44 207.92C130.541 207.92 130.637 207.88 130.709 207.809C130.78 207.737 130.82 207.641 130.82 207.54C130.82 207.439 130.78 207.343 130.709 207.271C130.637 207.2 130.541 207.16 130.44 207.16L123 205.18Z" fill="white"/>
<path d="M102.8 200C102.751 199.988 102.701 199.986 102.652 199.994C102.602 200.001 102.555 200.019 102.512 200.045C102.469 200.071 102.432 200.105 102.403 200.145C102.373 200.186 102.352 200.231 102.34 200.28C102.328 200.329 102.326 200.379 102.334 200.428C102.341 200.478 102.359 200.525 102.385 200.568C102.411 200.611 102.445 200.648 102.485 200.677C102.526 200.707 102.571 200.728 102.62 200.74C109.22 202.44 110.06 202.74 110.26 202.74C110.343 202.721 110.418 202.673 110.471 202.606C110.524 202.539 110.553 202.456 110.553 202.37C110.553 202.284 110.524 202.201 110.471 202.134C110.418 202.067 110.343 202.02 110.26 202L102.8 200Z" fill="white"/>
<path d="M328.22 272.8C325.733 272.803 323.291 272.138 321.15 270.873C319.009 269.608 317.248 267.79 316.052 265.61C314.855 263.43 314.267 260.968 314.349 258.483C314.431 255.997 315.18 253.58 316.518 251.484C317.856 249.387 319.733 247.69 321.953 246.569C324.172 245.447 326.653 244.944 329.134 245.112C331.615 245.279 334.005 246.111 336.055 247.52C338.104 248.929 339.736 250.863 340.78 253.12C341.756 255.23 342.186 257.553 342.03 259.873C341.873 262.193 341.136 264.436 339.885 266.397C338.634 268.357 336.909 269.971 334.871 271.09C332.833 272.209 330.545 272.797 328.22 272.8ZM328.22 245.84C325.826 245.845 323.48 246.505 321.435 247.749C319.39 248.993 317.725 250.774 316.621 252.898C315.517 255.022 315.016 257.408 315.173 259.796C315.329 262.185 316.137 264.485 317.509 266.447C318.88 268.408 320.763 269.957 322.953 270.924C325.143 271.891 327.555 272.239 329.929 271.931C332.303 271.623 334.547 270.671 336.418 269.178C338.288 267.684 339.714 265.707 340.54 263.46C341.275 261.475 341.517 259.341 341.245 257.242C340.974 255.143 340.197 253.141 338.981 251.408C337.766 249.675 336.148 248.263 334.267 247.294C332.385 246.324 330.297 245.825 328.18 245.84H328.22Z" fill="white"/>
<path d="M327.86 259.1L324 250.78C323.97 250.735 323.949 250.683 323.941 250.629C323.932 250.575 323.935 250.52 323.95 250.467C323.964 250.415 323.99 250.366 324.025 250.324C324.061 250.282 324.105 250.248 324.154 250.225C324.204 250.202 324.258 250.19 324.312 250.189C324.367 250.188 324.421 250.2 324.471 250.222C324.521 250.244 324.565 250.277 324.601 250.318C324.638 250.359 324.664 250.408 324.68 250.46L328.36 258.46L336.2 254.84C336.287 254.814 336.381 254.82 336.464 254.857C336.547 254.894 336.614 254.96 336.653 255.042C336.691 255.125 336.699 255.218 336.675 255.306C336.651 255.394 336.596 255.47 336.52 255.52L328.34 259.3C328.25 259.334 328.15 259.332 328.06 259.295C327.971 259.258 327.9 259.188 327.86 259.1Z" fill="white"/>
<path d="M356.66 102.38C354.98 99.5 345.26 83.52 342.42 85.22C340.64 86.32 343.58 93.66 347.16 100.78C344.4 100.44 331.82 98.9 331.34 101.58C330.86 104.26 342.78 107.58 351.86 109.42C353.5 112.22 362.34 126.72 365.6 126.72C368.86 126.72 362.94 114.14 361.36 111C364.1 111.36 376.7 113 377.18 110.22C377.66 107.44 365.74 104.2 356.66 102.38ZM342.8 85.88C344.8 84.68 354.14 99.6 355.68 102.18C353.24 101.7 350.6 101.26 348.06 100.9C343.6 92.14 342 86.42 342.8 85.88ZM360 110C357.58 109.64 354.98 109.2 352.28 108.68C350.92 106.36 349.6 103.96 348.4 101.64C350.96 102 353.58 102.46 356.12 102.96C357.52 105.34 358.84 107.72 360 110ZM332 101.64C332.34 99.64 345.2 101.2 347.5 101.52C348.687 103.84 349.947 106.16 351.28 108.48C339.04 106 331.86 102.94 332 101.72V101.64ZM365.72 126C363.72 127.2 354.38 112.28 352.86 109.7C355.3 110.18 357.94 110.62 360.48 110.98C364.94 119.66 366.62 125.38 365.72 126ZM376.44 110C376.1 111.88 363.42 110.46 360.96 110.12C359.773 107.8 358.513 105.48 357.18 103.16C369.48 105.76 376.66 108.86 376.44 110Z" fill="white"/>
<path d="M29.5 262.58L9.75998 245.58C9.37998 245.24 9.87998 244.68 10.24 245L29.46 261.58L34.56 226.66C34.5759 226.559 34.6312 226.469 34.7137 226.409C34.7962 226.349 34.8992 226.324 35 226.34C35.1008 226.356 35.1911 226.411 35.2511 226.494C35.3111 226.576 35.3359 226.679 35.32 226.78L30.12 262.36C30.1078 262.426 30.0786 262.487 30.0354 262.538C29.9921 262.588 29.9362 262.627 29.8734 262.649C29.8106 262.671 29.743 262.677 29.6775 262.665C29.6119 262.652 29.5507 262.623 29.5 262.58Z" fill="white"/>
<path d="M138.6 53.16C137.702 53.1287 136.815 53.3647 136.051 53.838C135.287 54.3112 134.681 55.0005 134.309 55.8186C133.937 56.6366 133.817 57.5466 133.962 58.4332C134.108 59.3199 134.513 60.1434 135.127 60.7995C135.741 61.4556 136.536 61.9147 137.411 62.1187C138.287 62.3227 139.203 62.2624 140.043 61.9455C140.884 61.6286 141.612 61.0693 142.135 60.3385C142.658 59.6076 142.952 58.7381 142.98 57.84C143.012 56.6405 142.571 55.4766 141.751 54.6006C140.931 53.7245 139.799 53.2069 138.6 53.16ZM138.46 61.46C137.707 61.4596 136.972 61.2345 136.348 60.8136C135.724 60.3927 135.24 59.7951 134.958 59.0974C134.675 58.3997 134.608 57.6336 134.764 56.8973C134.92 56.1609 135.292 55.4879 135.832 54.9643C136.373 54.4408 137.058 54.0906 137.799 53.9586C138.54 53.8266 139.303 53.9187 139.992 54.2233C140.68 54.5279 141.262 55.031 141.662 55.6682C142.063 56.3054 142.264 57.0477 142.24 57.8C142.209 58.7815 141.797 59.7125 141.091 60.3956C140.386 61.0787 139.442 61.4605 138.46 61.46Z" fill="white"/>
<path d="M121.6 142.9C121.28 142.54 120.7 143.04 121.04 143.4C126.58 149.58 126.3 149.4 126.54 149.4C126.611 149.397 126.679 149.375 126.738 149.336C126.796 149.296 126.843 149.241 126.872 149.177C126.901 149.112 126.912 149.041 126.902 148.971C126.893 148.901 126.865 148.835 126.82 148.78L121.6 142.9Z" fill="white"/>
<path d="M135.56 158.4C135.53 158.354 135.491 158.315 135.445 158.285C135.398 158.256 135.346 158.237 135.292 158.229C135.237 158.222 135.182 158.226 135.129 158.242C135.077 158.259 135.028 158.286 134.988 158.322C134.947 158.359 134.914 158.404 134.892 158.454C134.87 158.505 134.859 158.559 134.861 158.614C134.862 158.669 134.875 158.723 134.899 158.772C134.923 158.822 134.957 158.865 135 158.9C140.64 165.18 140.26 164.9 140.5 164.9C140.574 164.901 140.647 164.879 140.71 164.839C140.772 164.798 140.821 164.74 140.851 164.672C140.881 164.604 140.89 164.529 140.877 164.455C140.865 164.382 140.831 164.314 140.78 164.26L135.56 158.4Z" fill="white"/>
<path d="M149.52 173.88C149.18 173.52 148.62 174.02 148.96 174.38C154.6 180.66 154.22 180.38 154.46 180.38C154.531 180.377 154.599 180.355 154.658 180.316C154.716 180.276 154.763 180.221 154.792 180.157C154.821 180.092 154.832 180.021 154.822 179.951C154.813 179.881 154.785 179.815 154.74 179.76L149.52 173.88Z" fill="white"/>
<path d="M177.42 204.86C177.35 204.803 177.262 204.772 177.171 204.774C177.081 204.776 176.994 204.81 176.926 204.871C176.859 204.931 176.815 205.013 176.803 205.103C176.791 205.193 176.811 205.284 176.86 205.36C182.4 211.52 182.12 211.36 182.36 211.36C182.431 211.357 182.499 211.335 182.558 211.296C182.616 211.256 182.663 211.201 182.692 211.137C182.721 211.072 182.732 211.001 182.722 210.931C182.713 210.861 182.685 210.795 182.64 210.74L177.42 204.86Z" fill="white"/>
<path d="M191.38 220.36C191.35 220.314 191.311 220.275 191.264 220.245C191.218 220.216 191.166 220.197 191.112 220.189C191.057 220.182 191.002 220.187 190.949 220.203C190.897 220.219 190.848 220.246 190.807 220.283C190.767 220.319 190.734 220.364 190.712 220.414C190.69 220.465 190.679 220.519 190.681 220.574C190.682 220.629 190.695 220.683 190.719 220.732C190.743 220.782 190.777 220.825 190.82 220.86C196.36 227.02 196.08 226.86 196.32 226.86C196.394 226.861 196.467 226.839 196.53 226.799C196.592 226.759 196.641 226.701 196.671 226.632C196.701 226.564 196.71 226.489 196.697 226.416C196.685 226.342 196.651 226.274 196.6 226.22L191.38 220.36Z" fill="white"/>
<path d="M163.46 189.38C163.14 189 162.58 189.5 162.9 189.88C168.46 196.04 168.16 195.88 168.4 195.88C168.474 195.881 168.547 195.859 168.61 195.819C168.672 195.778 168.721 195.72 168.751 195.652C168.781 195.584 168.79 195.509 168.777 195.436C168.765 195.362 168.731 195.294 168.68 195.24L163.46 189.38Z" fill="white"/>
<path d="M385.88 192.76C374.6 181.42 352.7 167.14 352.48 167C352.419 166.965 352.35 166.946 352.28 166.946C352.21 166.946 352.141 166.965 352.08 167C350.192 168.155 348.423 169.495 346.8 171C344.24 169.68 340.38 167.22 340.3 165.84C340 160.46 344.64 151.56 343.12 150.12C342.963 149.997 342.775 149.92 342.577 149.899C342.379 149.878 342.179 149.913 342 150C340 150.76 338.14 153.6 337.18 155.48C337.232 151.86 337.072 148.241 336.7 144.64C336.583 142.493 336.329 140.355 335.94 138.24C334.92 134.12 334.26 133.38 333.6 133.46C332.94 133.54 332.52 135.3 332.38 137.16C331.8 134.02 330.86 130.6 329.66 130.66C329.18 130.66 328.16 130.66 327.92 137.8C325.58 131.32 320.24 124.5 311.64 117C311.589 116.962 311.529 116.937 311.466 116.926C311.404 116.916 311.339 116.921 311.278 116.94C311.218 116.96 311.163 116.994 311.118 117.039C311.073 117.084 311.039 117.139 311.02 117.2C310.16 120.66 309.26 124.36 308.42 128.26C308.34 128.176 308.244 128.11 308.137 128.065C308.03 128.021 307.916 127.998 307.8 128C305.48 128 303.66 136.68 303.04 139.2C303.168 137.805 303.06 136.399 302.72 135.04C302.42 134.28 301.74 134.06 301.08 134.86C299.8 136.4 298.78 140.12 297.08 144.34C296.61 143.922 296.024 143.657 295.4 143.58C292.7 142.94 280.56 140.04 267.24 135.44C261.24 133.44 252.52 134 247.6 139.26C244.68 142.38 242.14 148.28 246.54 158.72C250.74 168.72 262.72 180.04 272.3 186.12C259.34 186.26 242.74 183.3 223.12 173.28C222.357 172.683 221.475 172.257 220.532 172.033C219.59 171.808 218.61 171.79 217.66 171.98C212.72 173.26 210.2 182.12 210.84 195.74C125.22 107.32 128.84 110.98 128.58 111.04C123.659 113.57 119.02 116.613 114.74 120.12L106.3 110.64C103.6 104 103.24 98.0001 101.56 91.7201C100.051 86.1304 97.8399 80.7543 94.98 75.7201C93.76 73.7201 92.86 72.7801 92.08 72.9001C87.64 73.4801 86.78 96.3401 83.3 107.98C82.46 110.84 80.78 117.56 81.04 120.1C81.5425 122.505 82.5516 124.775 84 126.76C85.1 128.56 100.16 144.76 132.12 179.38L92.46 170C92.26 170 92.1 169.8 91.88 170.12C89.2328 174.197 87.0207 178.541 85.28 183.08L74.7 180C68.96 175.72 65.54 170.92 60.7 166.42C56.4687 162.516 51.7655 159.156 46.7 156.42C44.56 155.34 43.34 155.08 42.7 155.58C39.16 158.42 50.64 178.18 54 190C55.0313 193.994 56.5564 197.844 58.54 201.46C60.2303 203.237 62.2742 204.641 64.54 205.58C67.6773 207.144 71.0597 208.159 74.54 208.58L186.54 238.4C195.7 248.4 199.62 253.3 207.86 258.02C216.054 262.917 225.377 265.604 234.92 265.82C240.704 265.774 246.429 264.648 251.8 262.5C264.94 257.78 296.94 246.32 319.6 220.36C323.079 216.368 326.248 212.115 329.08 207.64C346.34 215.52 357.84 223.64 371.08 223C380.2 222.52 386.66 218.58 389.24 211.9C390.448 208.702 390.774 205.237 390.182 201.87C389.591 198.502 388.105 195.356 385.88 192.76ZM59.08 200.9C57.147 197.365 55.6622 193.603 54.66 189.7C51.82 179.7 42.78 163.1 42.66 157.54C42.66 156.9 42.78 156.04 43.42 156.04C44.3463 156.168 45.2373 156.481 46.04 156.96C46.6 163.88 56.5 182 59.62 193.14C60.6416 196.939 61.9796 200.645 63.62 204.22C61.8977 203.432 60.3532 202.302 59.08 200.9ZM321.18 149.56C320.92 143.94 321.54 143.44 321.54 143.44C321.54 143.44 322.16 143.6 323.42 147.08C323.54 147.44 324.62 150.46 324.62 150.46C324.62 150.82 324.82 153.8 324.92 154.86C324.907 154.916 324.907 154.974 324.919 155.03C324.932 155.086 324.957 155.138 324.992 155.183C325.028 155.228 325.073 155.264 325.125 155.289C325.176 155.314 325.233 155.327 325.29 155.327C325.347 155.327 325.404 155.314 325.455 155.289C325.507 155.264 325.552 155.228 325.588 155.183C325.623 155.138 325.648 155.086 325.661 155.03C325.673 154.974 325.673 154.916 325.66 154.86C325.34 150.86 325.32 147.74 324.64 142.56C323.96 137.38 324.64 135.68 325.06 135.6C325.46 135.6 326.6 136.98 327.76 141.46C328.06 142.62 329.1 148.22 329.6 152.66C329.587 152.716 329.587 152.774 329.599 152.83C329.612 152.886 329.637 152.938 329.672 152.983C329.708 153.028 329.753 153.064 329.805 153.089C329.856 153.114 329.913 153.127 329.97 153.127C330.027 153.127 330.084 153.114 330.135 153.089C330.187 153.064 330.232 153.028 330.268 152.983C330.303 152.938 330.328 152.886 330.341 152.83C330.353 152.774 330.353 152.716 330.34 152.66C330.08 150.3 329.64 147.5 329.26 145.24C329.219 143.56 328.991 141.89 328.58 140.26C328.58 132.04 329.6 131.6 329.62 131.58C330.16 131.58 331.62 135.22 332.14 141.38C332.58 145.74 333.04 148.92 333.14 151.52C333.14 151.616 333.178 151.707 333.245 151.775C333.313 151.842 333.405 151.88 333.5 151.88C333.552 151.88 333.603 151.87 333.65 151.849C333.698 151.829 333.74 151.799 333.776 151.762C333.812 151.724 333.839 151.68 333.857 151.632C333.875 151.583 333.883 151.532 333.88 151.48C333.74 147.74 333 144.02 332.96 140.66C332.818 138.548 333.056 136.428 333.66 134.4C333.82 134.54 334.32 135.26 335.14 138.58C335.86 141.52 337.14 156.58 335.82 161.4C335.796 161.498 335.812 161.602 335.865 161.688C335.917 161.774 336.002 161.836 336.1 161.86C336.198 161.884 336.302 161.868 336.388 161.815C336.474 161.763 336.536 161.678 336.56 161.58C336.836 160.263 336.997 158.925 337.04 157.58C337.3 156.98 339.52 151.84 342.2 150.88C342.33 150.84 342.47 150.84 342.6 150.88C343.48 151.74 339.26 161.1 339.52 166.12C339.64 168.12 344.56 170.9 346.2 171.76C341.755 176.173 338.28 181.466 336 187.3C324.78 178.8 320.18 175.94 320.68 167.04C321.02 162 321.44 154.84 321.18 149.56ZM313.84 168.4C316.1 167.348 318.211 166.003 320.12 164.4C319.6 167.661 319.895 171.001 320.98 174.12C319.32 175.82 317.6 177.4 315.86 178.9C309.6 181.6 307.4 180.08 305.36 178.24C309.26 175.76 312.82 172.48 313.84 168.4ZM311.56 170.64C309.8 171.84 306.7 171.42 302.56 169.44C303.875 169.052 305.062 168.32 306 167.32C306.72 166.52 307.48 165.6 308.26 164.6C309.731 165.579 311.512 165.978 313.26 165.72C313.438 166.617 313.375 167.546 313.076 168.41C312.777 169.275 312.254 170.044 311.56 170.64ZM320.7 143.52C320.31 145.495 320.222 147.518 320.44 149.52C320.64 153.68 320.44 159.2 320.2 162.98C309.14 167.36 303.62 165.84 306.2 145.16C310.951 144.038 315.819 143.487 320.7 143.52ZM304.82 135.08C306 130.5 307.26 128.78 307.76 128.78C307.86 128.78 308.02 128.96 308.16 129.36C307.3 133.36 306 140.26 305.34 146.06C304.116 146.108 302.907 146.351 301.76 146.78C302.74 143.54 303.56 140 304.82 135.08ZM295.38 148.32C293.84 151.88 292.3 155.08 291.64 156.32C291.595 156.41 291.588 156.515 291.619 156.61C291.651 156.706 291.72 156.785 291.81 156.83C291.9 156.875 292.005 156.883 292.1 156.851C292.196 156.819 292.275 156.75 292.32 156.66C298.32 144.66 299.68 138.24 301.38 135.6C301.84 134.9 301.92 134.86 302.1 135.6C302.302 137.896 302.302 140.204 302.1 142.5C301.66 144.14 301.24 145.7 300.84 147C300.332 147.246 299.838 147.52 299.36 147.82C298.96 148.1 299.36 148.74 299.78 148.46C301.414 147.384 303.306 146.763 305.26 146.66C304.24 156.04 304.98 161.46 307.62 163.96C306.84 164.96 306.08 165.96 305.38 166.66C302.66 169.68 297.24 169.54 293.24 168.66C289.641 167.88 286.172 166.587 282.94 164.82C283.691 158.283 286.261 152.088 290.36 146.94C291.924 147.731 293.631 148.2 295.38 148.32ZM247.18 158.44C242.94 148.44 245.36 142.76 248.12 139.8C252.76 134.82 261.3 134.22 266.96 136.18C278.32 140.18 288.8 142.78 293.36 143.9C286 146.84 279.24 166.34 283.1 173.42L258.48 160.94C258.39 160.895 258.285 160.888 258.19 160.919C258.094 160.951 258.015 161.02 257.97 161.11C257.925 161.2 257.917 161.305 257.949 161.4C257.981 161.496 258.05 161.575 258.14 161.62L284.4 174.92C287.46 176.92 291.26 172.92 293.38 169.66C296.052 170.213 298.808 170.213 301.48 169.66C304.42 171.16 308.92 173 311.76 171.32C310.1 173.92 306.14 177.32 299.86 180.26C291.609 183.944 282.695 185.911 273.66 186.04C264 180.28 251.48 168.6 247.18 158.44ZM271.4 186.9C283.031 187.16 294.52 184.308 304.68 178.64C307.12 180.86 309.28 181.96 314.04 180.4C288.7 200.6 256.22 200.14 238.8 197.98C236.8 193.14 231.52 181.32 225.56 175.38C243.64 184.14 259.1 186.9 271.4 186.9ZM86.94 111.74C85.5995 116.161 84.6163 120.682 84 125.26C82.9178 123.672 82.1631 121.884 81.78 120C82.0232 115.976 82.769 111.999 84 108.16C86.98 98.1601 88.36 77.3801 91.42 74.0401C92.44 72.9201 93.14 74.0401 94.18 75.8801C91.2 81.6601 89.82 100.42 86.94 111.74ZM91.5 134.22C94.8805 125.835 99.7298 118.121 105.82 111.44L114.02 120.64C107.31 126.23 101.689 133.01 97.44 140.64L91.5 134.22ZM74.9 207.82C73.2909 198.899 73.2909 189.761 74.9 180.84L85.1 183.76C82.0183 192.058 80.969 200.973 82.04 209.76L74.9 207.82ZM82.74 209.82C82.11 205.081 82.11 200.279 82.74 195.54L89.9 197.38C89.9509 197.405 90.0068 197.419 90.0637 197.42C90.1205 197.421 90.1768 197.409 90.2285 197.385C90.2801 197.361 90.3257 197.326 90.362 197.282C90.3983 197.239 90.4243 197.187 90.4381 197.132C90.4519 197.077 90.4531 197.019 90.4417 196.964C90.4303 196.908 90.4065 196.856 90.3722 196.81C90.3378 196.765 90.2937 196.728 90.2431 196.702C90.1926 196.676 90.1368 196.662 90.08 196.66L82.84 194.8C84.2632 186.16 87.4862 177.915 92.3 170.6L132.88 180.28L166 216.26L163.3 215.56C163.202 215.534 163.097 215.547 163.009 215.598C162.921 215.648 162.857 215.732 162.83 215.83C162.803 215.928 162.817 216.033 162.868 216.121C162.918 216.209 163.002 216.274 163.1 216.3L166.92 217.28C174.1 225.04 180.5 231.96 185.38 237.28L82.74 209.82ZM245.6 263.48C230.68 267.36 217.14 262.34 208.12 257.18C203.616 254.59 199.529 251.333 196 247.52L98 141.18C100.585 136.504 103.692 132.137 107.26 128.16C112.7 134.16 112.3 133.84 112.54 133.84C112.611 133.837 112.679 133.815 112.738 133.776C112.796 133.736 112.843 133.681 112.872 133.617C112.901 133.552 112.912 133.481 112.902 133.411C112.893 133.341 112.865 133.275 112.82 133.22L107.82 127.6C113.753 121.188 120.767 115.867 128.54 111.88C233.44 220.24 228.76 215.5 229 215.5C229.074 215.501 229.147 215.479 229.21 215.439C229.272 215.398 229.321 215.341 229.351 215.272C229.381 215.204 229.39 215.129 229.377 215.056C229.365 214.982 229.331 214.914 229.28 214.86L214.76 199.86L232.96 204.2C237.617 219.092 241.305 234.271 244 249.64C242.726 249.901 241.437 250.081 240.14 250.18C240.039 250.18 239.943 250.22 239.871 250.291C239.8 250.363 239.76 250.459 239.76 250.56C239.76 250.661 239.8 250.758 239.871 250.829C239.943 250.9 240.039 250.94 240.14 250.94C241.484 250.842 242.82 250.655 244.14 250.38C245.32 257.56 246 262.76 245.6 263.58V263.48ZM388.48 211.48C384.48 221.86 371.6 223.7 360.9 220.98C350.6 218.36 335.94 209.18 323.3 204.22C323.245 204.191 323.183 204.175 323.12 204.174C323.058 204.173 322.996 204.186 322.939 204.214C322.883 204.241 322.834 204.281 322.795 204.331C322.757 204.38 322.732 204.438 322.72 204.5L320.72 217.44C298.12 244.86 264.72 256.8 251.34 261.62C249.84 262.14 248.5 262.7 246.3 263.32C247.02 256.6 236.3 207.16 230.82 197.46C245.38 200.24 290.7 205.7 321.22 174.78C323.44 179.06 329.02 182.94 335.68 187.98C334.732 190.515 333.997 193.124 333.48 195.78C333.455 195.959 333.473 196.141 333.532 196.311C333.591 196.481 333.69 196.635 333.82 196.76L360.4 210.64C360.444 210.676 360.495 210.702 360.55 210.716C360.605 210.73 360.663 210.731 360.718 210.72C360.774 210.708 360.826 210.684 360.872 210.65C360.917 210.616 360.954 210.572 360.98 210.521C361.006 210.471 361.02 210.415 361.022 210.358C361.024 210.302 361.013 210.245 360.99 210.193C360.967 210.141 360.932 210.095 360.889 210.058C360.846 210.021 360.795 209.995 360.74 209.98L334.2 196.1C336.48 184.1 343.34 173.16 352.2 167.7C354.42 169.16 374.62 182.52 385.26 193.22C387.385 195.707 388.805 198.718 389.371 201.94C389.938 205.162 389.63 208.477 388.48 211.54V211.48Z" fill="white"/>
<path d="M123.98 300.26L163.18 307.9L126.44 275.18L87.22 267.54L123.98 300.26Z" fill="white"/>
<path d="M165.02 306.68L200.9 283.12L158.04 277.9L143.48 287.5L165.02 306.68Z" fill="white"/>
<path d="M229.12 350.36L220.68 358.24L212.82 349.8C212.751 349.726 212.655 349.682 212.554 349.678C212.453 349.674 212.354 349.711 212.28 349.78C212.206 349.849 212.162 349.945 212.158 350.046C212.154 350.147 212.191 350.246 212.26 350.32L220.14 358.76L211.7 366.62C211.626 366.689 211.582 366.785 211.578 366.886C211.574 366.987 211.611 367.086 211.68 367.16C211.749 367.234 211.845 367.278 211.946 367.282C212.047 367.286 212.146 367.249 212.22 367.18L220.66 359.3L228.52 367.74C228.554 367.777 228.595 367.807 228.641 367.827C228.686 367.848 228.736 367.86 228.786 367.862C228.836 367.864 228.886 367.856 228.933 367.838C228.98 367.821 229.023 367.794 229.06 367.76C229.097 367.726 229.126 367.685 229.147 367.639C229.168 367.594 229.18 367.544 229.182 367.494C229.184 367.444 229.176 367.394 229.158 367.347C229.141 367.3 229.114 367.257 229.08 367.22L221.2 358.78L229.64 350.92C229.677 350.886 229.706 350.845 229.727 350.799C229.748 350.754 229.76 350.704 229.762 350.654C229.764 350.604 229.756 350.554 229.738 350.507C229.721 350.46 229.694 350.417 229.66 350.38C229.626 350.343 229.585 350.314 229.539 350.293C229.494 350.272 229.444 350.26 229.394 350.258C229.344 350.256 229.294 350.264 229.247 350.282C229.2 350.299 229.157 350.326 229.12 350.36Z" fill="white"/>
</svg>
