<svg width="400" height="401" viewBox="0 0 400 401" fill="none" xmlns="http://www.w3.org/2000/svg">
<path d="M192 322.342C177.289 322.343 162.783 318.895 149.645 312.275C136.508 305.655 125.106 296.047 116.354 284.223C107.602 272.398 101.745 258.686 99.2521 244.188C96.7592 229.69 97.7002 214.809 102 200.74C106.299 186.671 113.837 173.807 124.009 163.179C134.18 152.551 146.702 144.456 160.568 139.543C174.435 134.631 189.26 133.038 203.854 134.892C218.447 136.747 232.403 141.997 244.6 150.222C244.65 150.244 244.695 150.278 244.731 150.32C244.768 150.362 244.794 150.411 244.809 150.465C244.824 150.518 244.828 150.574 244.819 150.629C244.81 150.683 244.789 150.735 244.758 150.781C244.727 150.827 244.686 150.866 244.639 150.894C244.591 150.922 244.538 150.94 244.483 150.946C244.428 150.952 244.372 150.945 244.32 150.927C244.268 150.909 244.22 150.88 244.18 150.842C232.079 142.68 218.232 137.469 203.753 135.627C189.273 133.786 174.563 135.366 160.804 140.239C147.045 145.113 134.621 153.144 124.528 163.69C114.436 174.235 106.956 186.999 102.691 200.959C98.4252 214.918 97.4921 229.683 99.9665 244.068C102.441 258.453 108.254 272.058 116.938 283.79C125.623 295.521 136.938 305.053 149.974 311.62C163.009 318.187 177.403 321.606 192 321.602C213.176 321.483 233.692 314.218 250.223 300.983C266.754 287.748 278.331 269.319 283.08 248.682C283.18 248.182 283.92 248.382 283.82 248.862C279.119 269.709 267.47 288.338 250.785 301.69C234.1 315.043 213.37 322.325 192 322.342Z" fill="#1890ff"/>
<path d="M304.98 46.2617C301.568 45.2612 297.979 45.0167 294.462 45.5452C290.946 46.0737 287.587 47.3624 284.62 49.3217L284.22 48.4817C283.751 47.486 282.908 46.7166 281.873 46.3417C280.838 45.9669 279.698 46.0172 278.7 46.4817L275.74 47.8817L272.34 40.7617C271.55 39.0992 270.439 37.609 269.072 36.3763C267.705 35.1435 266.108 34.1925 264.373 33.5776C262.638 32.9627 260.799 32.696 258.96 32.7928C257.122 32.8896 255.321 33.348 253.66 34.1417C194.56 62.3217 246.56 37.5217 187.66 65.6017C186 66.3922 184.512 67.502 183.281 68.8675C182.05 70.2331 181.1 71.8278 180.485 73.5606C179.87 75.2934 179.603 77.1302 179.698 78.9663C179.793 80.8024 180.249 82.6018 181.04 84.2617L191.78 106.802C192.57 108.462 193.68 109.95 195.046 111.181C196.411 112.412 198.006 113.362 199.739 113.976C201.472 114.591 203.308 114.859 205.145 114.763C206.981 114.668 208.78 114.212 210.44 113.422L276.44 81.9817C278.102 81.1912 279.593 80.0807 280.825 78.7136C282.058 77.3465 283.009 75.7497 283.624 74.0146C284.239 72.2796 284.506 70.4403 284.409 68.602C284.312 66.7637 283.854 64.9626 283.06 63.3017L280.68 58.3217L283.66 56.9017C284.656 56.4332 285.425 55.5893 285.8 54.5547C286.175 53.5202 286.124 52.3792 285.66 51.3817L284.96 49.9417C287.837 48.0251 291.098 46.7616 294.515 46.2399C297.932 45.7181 301.422 45.9509 304.74 46.9217C315.92 50.9217 320.74 64.3417 318.26 74.4017C315.78 84.4617 307.72 93.3217 302.26 102.042C292.94 116.862 289.02 128.222 295.02 145.742C295.034 145.791 295.057 145.838 295.09 145.878C295.122 145.918 295.162 145.952 295.207 145.976C295.253 146 295.303 146.015 295.354 146.019C295.406 146.024 295.458 146.017 295.506 146.001C295.555 145.985 295.601 145.959 295.639 145.924C295.678 145.89 295.709 145.848 295.731 145.802C295.752 145.755 295.764 145.704 295.766 145.653C295.768 145.601 295.759 145.55 295.74 145.502C289.74 128.162 293.5 117.382 302.9 102.442C308.42 93.6617 316.48 84.8417 319.04 74.5817C321.6 64.3217 316.54 50.4017 304.98 46.2617ZM210 112.802C206.828 114.31 203.186 114.499 199.875 113.325C196.564 112.151 193.854 109.712 192.34 106.542L181.68 84.0017C180.932 82.4277 180.503 80.7215 180.416 78.9811C180.329 77.2407 180.586 75.5002 181.173 73.8596C181.761 72.2189 182.666 70.7102 183.837 69.4201C185.009 68.1301 186.423 67.0839 188 66.3417L198 61.5217L220.12 108.002L210 112.802ZM220.76 107.682L198.72 61.2017L220.3 50.9217L242.44 97.4017L220.76 107.682ZM243.04 97.0817L220.98 50.6817L242.56 40.4017L264.7 86.8817L243.04 97.0817ZM283.26 56.2817L280.3 57.7017L276 48.6817L278.96 47.2817C279.362 47.0885 279.797 46.9767 280.242 46.9527C280.687 46.9286 281.133 46.9928 281.553 47.1415C281.973 47.2902 282.359 47.5205 282.69 47.8191C283.021 48.1178 283.289 48.4789 283.48 48.8817L284.9 51.8217C285.269 52.6223 285.312 53.5349 285.021 54.367C284.73 55.199 284.127 55.8855 283.34 56.2817H283.26Z" fill="#1890ff"/>
<path d="M268.76 67.4017C268.495 67.4017 268.24 67.2964 268.053 67.1088C267.865 66.9213 267.76 66.6669 267.76 66.4017V58.8617L262.98 60.9817C262.828 61.052 262.661 61.083 262.494 61.072C262.327 61.0611 262.166 61.0084 262.025 60.9188C261.883 60.8293 261.767 60.7057 261.686 60.5595C261.604 60.4132 261.561 60.249 261.56 60.0817V51.0017C261.56 50.7365 261.665 50.4821 261.853 50.2946C262.04 50.1071 262.295 50.0017 262.56 50.0017C262.825 50.0017 263.08 50.1071 263.267 50.2946C263.455 50.4821 263.56 50.7365 263.56 51.0017V58.5617L268.34 56.4217C268.493 56.3507 268.662 56.3198 268.831 56.3317C268.999 56.3436 269.162 56.3981 269.304 56.4899C269.446 56.5818 269.562 56.7081 269.642 56.8571C269.721 57.006 269.762 57.1728 269.76 57.3417V66.4217C269.755 66.6834 269.647 66.9327 269.46 67.1159C269.273 67.2992 269.022 67.4018 268.76 67.4017Z" fill="white"/>
<path d="M233.2 204.542L213.6 199.862L128.64 112.102C115.502 118.655 104.674 129.057 97.6 141.922L133.36 180.682L92.22 170.882C84.1 183.482 80.58 196.762 82.42 210.882L186.68 238.682L195.7 248.462C207.7 261.422 227.88 269.302 245.8 264.622C247.72 264.342 239.44 222.442 233.2 204.542Z" fill="#FFE7EA"/>
<path d="M203.46 234.402C203.12 234.042 202.56 234.542 202.88 234.902C204.629 236.852 206.514 238.676 208.52 240.362C208.598 240.41 208.691 240.428 208.781 240.414C208.872 240.399 208.954 240.352 209.013 240.281C209.071 240.21 209.102 240.121 209.1 240.029C209.097 239.937 209.062 239.849 209 239.782C207.023 238.128 205.171 236.33 203.46 234.402Z" fill="#1890ff"/>
<path d="M227.12 249.482C224.638 248.771 222.217 247.861 219.88 246.762C219.793 246.736 219.699 246.742 219.616 246.779C219.533 246.816 219.466 246.882 219.427 246.964C219.389 247.046 219.381 247.14 219.405 247.227C219.429 247.315 219.484 247.391 219.56 247.442C221.927 248.562 224.382 249.485 226.9 250.202C226.949 250.225 227.003 250.237 227.057 250.237C227.111 250.237 227.165 250.226 227.215 250.204C227.264 250.182 227.309 250.149 227.344 250.108C227.38 250.068 227.407 250.02 227.423 249.968C227.439 249.916 227.444 249.861 227.436 249.807C227.429 249.754 227.411 249.702 227.382 249.656C227.353 249.61 227.315 249.57 227.27 249.54C227.225 249.51 227.174 249.49 227.12 249.482Z" fill="#1890ff"/>
<path d="M143 211.782C149.62 213.502 150.44 213.782 150.64 213.782C150.728 213.777 150.812 213.742 150.877 213.682C150.943 213.622 150.985 213.541 150.997 213.453C151.008 213.365 150.989 213.276 150.942 213.201C150.896 213.126 150.824 213.07 150.74 213.042L143.18 211.042C143.131 211.03 143.081 211.028 143.032 211.035C142.982 211.043 142.935 211.06 142.892 211.086C142.849 211.112 142.812 211.147 142.783 211.187C142.753 211.227 142.732 211.273 142.72 211.322C142.708 211.37 142.706 211.421 142.714 211.47C142.721 211.52 142.739 211.567 142.765 211.61C142.791 211.652 142.825 211.69 142.865 211.719C142.906 211.749 142.951 211.77 143 211.782Z" fill="#1890ff"/>
<path d="M123 205.862C122.902 205.835 122.797 205.849 122.709 205.899C122.621 205.95 122.557 206.034 122.53 206.132C122.503 206.23 122.517 206.334 122.568 206.423C122.618 206.511 122.702 206.575 122.8 206.602C129.42 208.322 130.24 208.602 130.44 208.602C130.541 208.602 130.637 208.562 130.709 208.49C130.78 208.419 130.82 208.322 130.82 208.222C130.82 208.121 130.78 208.024 130.709 207.953C130.637 207.882 130.541 207.842 130.44 207.842L123 205.862Z" fill="#1890ff"/>
<path d="M102.8 200.682C102.751 200.67 102.701 200.668 102.652 200.675C102.602 200.683 102.555 200.7 102.512 200.726C102.469 200.752 102.432 200.787 102.403 200.827C102.373 200.867 102.352 200.913 102.34 200.962C102.328 201.01 102.326 201.061 102.334 201.11C102.341 201.16 102.359 201.207 102.385 201.25C102.411 201.292 102.445 201.33 102.485 201.359C102.526 201.389 102.571 201.41 102.62 201.422C109.22 203.122 110.06 203.422 110.26 203.422C110.343 203.402 110.418 203.355 110.471 203.288C110.524 203.221 110.553 203.137 110.553 203.052C110.553 202.966 110.524 202.883 110.471 202.816C110.418 202.748 110.343 202.701 110.26 202.682L102.8 200.682Z" fill="#1890ff"/>
<path d="M328.22 273.482C325.733 273.485 323.291 272.819 321.15 271.554C319.009 270.289 317.248 268.471 316.052 266.292C314.855 264.112 314.267 261.65 314.349 259.165C314.431 256.679 315.18 254.262 316.518 252.165C317.856 250.069 319.733 248.371 321.953 247.25C324.172 246.129 326.653 245.626 329.134 245.793C331.615 245.96 334.005 246.792 336.055 248.201C338.104 249.61 339.736 251.545 340.78 253.802C341.756 255.912 342.186 258.234 342.03 260.554C341.873 262.875 341.136 265.118 339.885 267.078C338.634 269.038 336.909 270.652 334.871 271.771C332.833 272.89 330.545 273.479 328.22 273.482ZM328.22 246.522C325.826 246.526 323.48 247.186 321.435 248.431C319.39 249.675 317.725 251.456 316.621 253.58C315.517 255.704 315.016 258.089 315.173 260.478C315.329 262.867 316.137 265.167 317.509 267.128C318.88 269.09 320.763 270.638 322.953 271.605C325.143 272.572 327.555 272.921 329.929 272.613C332.303 272.305 334.547 271.353 336.418 269.859C338.288 268.366 339.714 266.388 340.54 264.142C341.275 262.157 341.517 260.023 341.245 257.924C340.974 255.825 340.197 253.823 338.981 252.09C337.766 250.357 336.148 248.945 334.267 247.975C332.385 247.005 330.297 246.507 328.18 246.522H328.22Z" fill="#1890ff"/>
<path d="M327.86 259.782L324 251.462C323.97 251.416 323.949 251.365 323.941 251.311C323.932 251.257 323.935 251.202 323.95 251.149C323.964 251.096 323.99 251.047 324.025 251.005C324.061 250.964 324.105 250.93 324.154 250.907C324.204 250.883 324.258 250.871 324.312 250.871C324.367 250.87 324.421 250.881 324.471 250.904C324.521 250.926 324.565 250.959 324.601 251C324.638 251.041 324.664 251.089 324.68 251.142L328.36 259.142L336.2 255.522C336.287 255.496 336.381 255.502 336.464 255.539C336.547 255.576 336.614 255.642 336.653 255.724C336.691 255.806 336.699 255.9 336.675 255.987C336.651 256.075 336.596 256.151 336.52 256.202L328.34 259.982C328.25 260.016 328.15 260.014 328.06 259.977C327.971 259.939 327.9 259.87 327.86 259.782Z" fill="#1890ff"/>
<path d="M356.66 103.062C354.98 100.182 345.26 84.2016 342.42 85.9016C340.64 87.0016 343.58 94.3416 347.16 101.462C344.4 101.122 331.82 99.5816 331.34 102.262C330.86 104.942 342.78 108.262 351.86 110.102C353.5 112.902 362.34 127.402 365.6 127.402C368.86 127.402 362.94 114.822 361.36 111.682C364.1 112.042 376.7 113.682 377.18 110.902C377.66 108.122 365.74 104.882 356.66 103.062ZM342.8 86.5616C344.8 85.3616 354.14 100.282 355.68 102.862C353.24 102.382 350.6 101.942 348.06 101.582C343.6 92.8216 342 87.1016 342.8 86.5616ZM360 110.682C357.58 110.322 354.98 109.882 352.28 109.362C350.92 107.042 349.6 104.642 348.4 102.322C350.96 102.682 353.58 103.142 356.12 103.642C357.52 106.022 358.84 108.402 360 110.682ZM332 102.322C332.34 100.322 345.2 101.882 347.5 102.202C348.687 104.522 349.947 106.842 351.28 109.162C339.04 106.682 331.86 103.622 332 102.402V102.322ZM365.72 126.682C363.72 127.882 354.38 112.962 352.86 110.382C355.3 110.862 357.94 111.302 360.48 111.662C364.94 120.342 366.62 126.062 365.72 126.682ZM376.44 110.682C376.1 112.562 363.42 111.142 360.96 110.802C359.773 108.482 358.513 106.162 357.18 103.842C369.48 106.442 376.66 109.542 376.44 110.682Z" fill="#1890ff"/>
<path d="M29.5 263.262L9.75998 246.262C9.37998 245.922 9.87998 245.362 10.24 245.682L29.46 262.262L34.56 227.342C34.5759 227.241 34.6312 227.151 34.7137 227.091C34.7962 227.031 34.8992 227.006 35 227.022C35.1008 227.038 35.1911 227.093 35.2511 227.175C35.3111 227.258 35.3359 227.361 35.32 227.462L30.12 263.042C30.1078 263.107 30.0786 263.168 30.0354 263.219C29.9921 263.27 29.9362 263.308 29.8734 263.33C29.8106 263.353 29.743 263.358 29.6775 263.346C29.6119 263.334 29.5507 263.305 29.5 263.262Z" fill="#1890ff"/>
<path d="M138.6 53.8417C137.702 53.8105 136.815 54.0465 136.051 54.5197C135.287 54.993 134.681 55.6823 134.309 56.5003C133.937 57.3184 133.817 58.2283 133.962 59.115C134.108 60.0017 134.513 60.8252 135.127 61.4813C135.741 62.1373 136.536 62.5964 137.411 62.8004C138.287 63.0044 139.203 62.9442 140.043 62.6273C140.884 62.3104 141.612 61.7511 142.135 61.0202C142.658 60.2894 142.952 59.4199 142.98 58.5217C143.012 57.3223 142.571 56.1584 141.751 55.2823C140.931 54.4063 139.799 53.8887 138.6 53.8417ZM138.46 62.1417C137.707 62.1414 136.972 61.9163 136.348 61.4954C135.724 61.0745 135.24 60.4769 134.958 59.7792C134.675 59.0815 134.608 58.3154 134.764 57.579C134.92 56.8427 135.292 56.1697 135.832 55.6461C136.373 55.1226 137.058 54.7724 137.799 54.6403C138.54 54.5083 139.303 54.6005 139.992 54.9051C140.68 55.2097 141.262 55.7128 141.662 56.35C142.063 56.9872 142.264 57.7295 142.24 58.4817C142.209 59.4633 141.797 60.3942 141.091 61.0774C140.386 61.7605 139.442 62.1422 138.46 62.1417Z" fill="#1890ff"/>
<path d="M121.6 143.582C121.28 143.222 120.7 143.722 121.04 144.082C126.58 150.262 126.3 150.082 126.54 150.082C126.611 150.079 126.679 150.057 126.738 150.017C126.796 149.978 126.843 149.923 126.872 149.858C126.901 149.794 126.912 149.723 126.902 149.653C126.893 149.583 126.865 149.516 126.82 149.462L121.6 143.582Z" fill="#1890ff"/>
<path d="M135.56 159.082C135.53 159.036 135.491 158.996 135.445 158.967C135.398 158.937 135.346 158.918 135.292 158.911C135.237 158.904 135.182 158.908 135.129 158.924C135.077 158.94 135.028 158.968 134.988 159.004C134.947 159.041 134.914 159.086 134.892 159.136C134.87 159.186 134.859 159.241 134.861 159.296C134.862 159.351 134.875 159.405 134.899 159.454C134.923 159.503 134.957 159.547 135 159.582C140.64 165.862 140.26 165.582 140.5 165.582C140.574 165.582 140.647 165.561 140.71 165.52C140.772 165.48 140.821 165.422 140.851 165.354C140.881 165.286 140.89 165.21 140.877 165.137C140.865 165.064 140.831 164.996 140.78 164.942L135.56 159.082Z" fill="#1890ff"/>
<path d="M149.52 174.562C149.18 174.202 148.62 174.702 148.96 175.062C154.6 181.342 154.22 181.062 154.46 181.062C154.531 181.059 154.599 181.037 154.658 180.997C154.716 180.958 154.763 180.903 154.792 180.838C154.821 180.774 154.832 180.703 154.822 180.633C154.813 180.563 154.785 180.496 154.74 180.442L149.52 174.562Z" fill="#1890ff"/>
<path d="M177.42 205.542C177.35 205.484 177.262 205.454 177.171 205.456C177.081 205.458 176.994 205.492 176.926 205.552C176.859 205.613 176.815 205.695 176.803 205.785C176.791 205.874 176.811 205.966 176.86 206.042C182.4 212.202 182.12 212.042 182.36 212.042C182.431 212.039 182.499 212.017 182.558 211.977C182.616 211.938 182.663 211.883 182.692 211.818C182.721 211.754 182.732 211.683 182.722 211.613C182.713 211.543 182.685 211.476 182.64 211.422L177.42 205.542Z" fill="#1890ff"/>
<path d="M191.38 221.042C191.35 220.996 191.311 220.956 191.264 220.927C191.218 220.897 191.166 220.878 191.112 220.871C191.057 220.864 191.002 220.868 190.949 220.884C190.897 220.9 190.848 220.928 190.807 220.964C190.767 221.001 190.734 221.046 190.712 221.096C190.69 221.146 190.679 221.201 190.681 221.256C190.682 221.311 190.695 221.365 190.719 221.414C190.743 221.463 190.777 221.507 190.82 221.542C196.36 227.702 196.08 227.542 196.32 227.542C196.394 227.542 196.467 227.521 196.53 227.481C196.592 227.44 196.641 227.382 196.671 227.314C196.701 227.246 196.71 227.17 196.697 227.097C196.685 227.024 196.651 226.956 196.6 226.902L191.38 221.042Z" fill="#1890ff"/>
<path d="M163.46 190.062C163.14 189.682 162.58 190.182 162.9 190.562C168.46 196.722 168.16 196.562 168.4 196.562C168.474 196.562 168.547 196.541 168.61 196.5C168.672 196.46 168.721 196.402 168.751 196.334C168.781 196.266 168.79 196.19 168.777 196.117C168.765 196.044 168.731 195.976 168.68 195.922L163.46 190.062Z" fill="#1890ff"/>
<path d="M385.88 193.442C374.6 182.102 352.7 167.822 352.48 167.682C352.419 167.647 352.35 167.628 352.28 167.628C352.21 167.628 352.141 167.647 352.08 167.682C350.192 168.836 348.423 170.176 346.8 171.682C344.24 170.362 340.38 167.902 340.3 166.522C340 161.142 344.64 152.242 343.12 150.802C342.963 150.678 342.775 150.602 342.577 150.581C342.379 150.559 342.179 150.594 342 150.682C340 151.442 338.14 154.282 337.18 156.162C337.232 152.542 337.072 148.923 336.7 145.322C336.583 143.174 336.329 141.037 335.94 138.922C334.92 134.802 334.26 134.062 333.6 134.142C332.94 134.222 332.52 135.982 332.38 137.842C331.8 134.702 330.86 131.282 329.66 131.342C329.18 131.342 328.16 131.342 327.92 138.482C325.58 132.002 320.24 125.182 311.64 117.682C311.589 117.644 311.529 117.618 311.466 117.608C311.404 117.598 311.339 117.602 311.278 117.622C311.218 117.642 311.163 117.675 311.118 117.721C311.073 117.766 311.039 117.821 311.02 117.882C310.16 121.342 309.26 125.042 308.42 128.942C308.34 128.858 308.244 128.792 308.137 128.747C308.03 128.702 307.916 128.68 307.8 128.682C305.48 128.682 303.66 137.362 303.04 139.882C303.168 138.487 303.06 137.081 302.72 135.722C302.42 134.962 301.74 134.742 301.08 135.542C299.8 137.082 298.78 140.802 297.08 145.022C296.61 144.604 296.024 144.339 295.4 144.262C292.7 143.622 280.56 140.722 267.24 136.122C261.24 134.122 252.52 134.682 247.6 139.942C244.68 143.062 242.14 148.962 246.54 159.402C250.74 169.402 262.72 180.722 272.3 186.802C259.34 186.942 242.74 183.982 223.12 173.962C222.357 173.364 221.475 172.939 220.532 172.714C219.59 172.49 218.61 172.472 217.66 172.662C212.72 173.942 210.2 182.802 210.84 196.422C125.22 108.002 128.84 111.662 128.58 111.722C123.659 114.251 119.02 117.295 114.74 120.802L106.3 111.322C103.6 104.682 103.24 98.6817 101.56 92.4017C100.051 86.812 97.8399 81.4359 94.98 76.4017C93.76 74.4017 92.86 73.4617 92.08 73.5817C87.64 74.1617 86.78 97.0217 83.3 108.662C82.46 111.522 80.78 118.242 81.04 120.782C81.5425 123.187 82.5516 125.457 84 127.442C85.1 129.242 100.16 145.442 132.12 180.062L92.46 170.682C92.26 170.682 92.1 170.482 91.88 170.802C89.2328 174.879 87.0207 179.223 85.28 183.762L74.7 180.682C68.96 176.402 65.54 171.602 60.7 167.102C56.4687 163.198 51.7655 159.838 46.7 157.102C44.56 156.022 43.34 155.762 42.7 156.262C39.16 159.102 50.64 178.862 54 190.682C55.0313 194.676 56.5564 198.525 58.54 202.142C60.2303 203.919 62.2742 205.322 64.54 206.262C67.6773 207.826 71.0597 208.841 74.54 209.262L186.54 239.082C195.7 249.082 199.62 253.982 207.86 258.702C216.054 263.598 225.377 266.286 234.92 266.502C240.704 266.456 246.429 265.33 251.8 263.182C264.94 258.462 296.94 247.002 319.6 221.042C323.079 217.049 326.248 212.797 329.08 208.322C346.34 216.202 357.84 224.322 371.08 223.682C380.2 223.202 386.66 219.262 389.24 212.582C390.448 209.383 390.774 205.919 390.182 202.551C389.591 199.184 388.105 196.037 385.88 193.442ZM59.08 201.582C57.147 198.047 55.6622 194.284 54.66 190.382C51.82 180.382 42.78 163.782 42.66 158.222C42.66 157.582 42.78 156.722 43.42 156.722C44.3463 156.849 45.2373 157.162 46.04 157.642C46.6 164.562 56.5 182.682 59.62 193.822C60.6416 197.62 61.9796 201.327 63.62 204.902C61.8977 204.114 60.3532 202.984 59.08 201.582ZM321.18 150.242C320.92 144.622 321.54 144.122 321.54 144.122C321.54 144.122 322.16 144.282 323.42 147.762C323.54 148.122 324.62 151.142 324.62 151.142C324.62 151.502 324.82 154.482 324.92 155.542C324.907 155.597 324.907 155.655 324.919 155.711C324.932 155.767 324.957 155.82 324.992 155.864C325.028 155.909 325.073 155.946 325.125 155.97C325.176 155.995 325.233 156.008 325.29 156.008C325.347 156.008 325.404 155.995 325.455 155.97C325.507 155.946 325.552 155.909 325.588 155.864C325.623 155.82 325.648 155.767 325.661 155.711C325.673 155.655 325.673 155.597 325.66 155.542C325.34 151.542 325.32 148.422 324.64 143.242C323.96 138.062 324.64 136.362 325.06 136.282C325.46 136.282 326.6 137.662 327.76 142.142C328.06 143.302 329.1 148.902 329.6 153.342C329.587 153.397 329.587 153.455 329.599 153.511C329.612 153.567 329.637 153.62 329.672 153.664C329.708 153.709 329.753 153.746 329.805 153.77C329.856 153.795 329.913 153.808 329.97 153.808C330.027 153.808 330.084 153.795 330.135 153.77C330.187 153.746 330.232 153.709 330.268 153.664C330.303 153.62 330.328 153.567 330.341 153.511C330.353 153.455 330.353 153.397 330.34 153.342C330.08 150.982 329.64 148.182 329.26 145.922C329.219 144.242 328.991 142.571 328.58 140.942C328.58 132.722 329.6 132.282 329.62 132.262C330.16 132.262 331.62 135.902 332.14 142.062C332.58 146.422 333.04 149.602 333.14 152.202C333.14 152.297 333.178 152.389 333.245 152.456C333.313 152.524 333.405 152.562 333.5 152.562C333.552 152.562 333.603 152.551 333.65 152.531C333.698 152.511 333.74 152.481 333.776 152.443C333.812 152.406 333.839 152.362 333.857 152.313C333.875 152.265 333.883 152.213 333.88 152.162C333.74 148.422 333 144.702 332.96 141.342C332.818 139.23 333.056 137.11 333.66 135.082C333.82 135.222 334.32 135.942 335.14 139.262C335.86 142.202 337.14 157.262 335.82 162.082C335.796 162.18 335.812 162.283 335.865 162.37C335.917 162.456 336.002 162.518 336.1 162.542C336.198 162.566 336.302 162.549 336.388 162.497C336.474 162.444 336.536 162.36 336.56 162.262C336.836 160.945 336.997 159.607 337.04 158.262C337.3 157.662 339.52 152.522 342.2 151.562C342.33 151.522 342.47 151.522 342.6 151.562C343.48 152.422 339.26 161.782 339.52 166.802C339.64 168.802 344.56 171.582 346.2 172.442C341.755 176.855 338.28 182.148 336 187.982C324.78 179.482 320.18 176.622 320.68 167.722C321.02 162.682 321.44 155.522 321.18 150.242ZM313.84 169.082C316.1 168.03 318.211 166.685 320.12 165.082C319.6 168.343 319.895 171.682 320.98 174.802C319.32 176.502 317.6 178.082 315.86 179.582C309.6 182.282 307.4 180.762 305.36 178.922C309.26 176.442 312.82 173.162 313.84 169.082ZM311.56 171.322C309.8 172.522 306.7 172.102 302.56 170.122C303.875 169.734 305.062 169.002 306 168.002C306.72 167.202 307.48 166.282 308.26 165.282C309.731 166.261 311.512 166.66 313.26 166.402C313.438 167.299 313.375 168.227 313.076 169.092C312.777 169.956 312.254 170.726 311.56 171.322ZM320.7 144.202C320.31 146.177 320.222 148.2 320.44 150.202C320.64 154.362 320.44 159.882 320.2 163.662C309.14 168.042 303.62 166.522 306.2 145.842C310.951 144.719 315.819 144.169 320.7 144.202ZM304.82 135.762C306 131.182 307.26 129.462 307.76 129.462C307.86 129.462 308.02 129.642 308.16 130.042C307.3 134.042 306 140.942 305.34 146.742C304.116 146.79 302.907 147.033 301.76 147.462C302.74 144.222 303.56 140.682 304.82 135.762ZM295.38 149.002C293.84 152.562 292.3 155.762 291.64 157.002C291.595 157.092 291.588 157.196 291.619 157.292C291.651 157.388 291.72 157.467 291.81 157.512C291.9 157.557 292.005 157.564 292.1 157.532C292.196 157.5 292.275 157.432 292.32 157.342C298.32 145.342 299.68 138.922 301.38 136.282C301.84 135.582 301.92 135.542 302.1 136.282C302.302 138.577 302.302 140.886 302.1 143.182C301.66 144.822 301.24 146.382 300.84 147.682C300.332 147.928 299.838 148.201 299.36 148.502C298.96 148.782 299.36 149.422 299.78 149.142C301.414 148.066 303.306 147.445 305.26 147.342C304.24 156.722 304.98 162.142 307.62 164.642C306.84 165.642 306.08 166.642 305.38 167.342C302.66 170.362 297.24 170.222 293.24 169.342C289.641 168.562 286.172 167.268 282.94 165.502C283.691 158.965 286.261 152.769 290.36 147.622C291.924 148.412 293.631 148.882 295.38 149.002ZM247.18 159.122C242.94 149.122 245.36 143.442 248.12 140.482C252.76 135.502 261.3 134.902 266.96 136.862C278.32 140.862 288.8 143.462 293.36 144.582C286 147.522 279.24 167.022 283.1 174.102L258.48 161.622C258.39 161.577 258.285 161.569 258.19 161.601C258.094 161.633 258.015 161.702 257.97 161.792C257.925 161.882 257.917 161.986 257.949 162.082C257.981 162.178 258.05 162.257 258.14 162.302L284.4 175.602C287.46 177.602 291.26 173.602 293.38 170.342C296.052 170.894 298.808 170.894 301.48 170.342C304.42 171.842 308.92 173.682 311.76 172.002C310.1 174.602 306.14 178.002 299.86 180.942C291.609 184.626 282.695 186.592 273.66 186.722C264 180.962 251.48 169.282 247.18 159.122ZM271.4 187.582C283.031 187.841 294.52 184.99 304.68 179.322C307.12 181.542 309.28 182.642 314.04 181.082C288.7 201.282 256.22 200.822 238.8 198.662C236.8 193.822 231.52 182.002 225.56 176.062C243.64 184.822 259.1 187.582 271.4 187.582ZM86.94 112.422C85.5995 116.842 84.6163 121.364 84 125.942C82.9178 124.353 82.1631 122.565 81.78 120.682C82.0232 116.658 82.769 112.68 84 108.842C86.98 98.8417 88.36 78.0617 91.42 74.7217C92.44 73.6017 93.14 74.7217 94.18 76.5617C91.2 82.3417 89.82 101.102 86.94 112.422ZM91.5 134.902C94.8805 126.517 99.7298 118.803 105.82 112.122L114.02 121.322C107.31 126.911 101.689 133.692 97.44 141.322L91.5 134.902ZM74.9 208.502C73.2909 199.58 73.2909 190.443 74.9 181.522L85.1 184.442C82.0183 192.74 80.969 201.655 82.04 210.442L74.9 208.502ZM82.74 210.502C82.11 205.763 82.11 200.961 82.74 196.222L89.9 198.062C89.9509 198.087 90.0068 198.101 90.0637 198.102C90.1205 198.102 90.1768 198.09 90.2285 198.067C90.2801 198.043 90.3257 198.008 90.362 197.964C90.3983 197.92 90.4243 197.869 90.4381 197.814C90.4519 197.759 90.4531 197.701 90.4417 197.645C90.4303 197.59 90.4065 197.537 90.3722 197.492C90.3378 197.447 90.2937 197.41 90.2431 197.384C90.1926 197.358 90.1368 197.343 90.08 197.342L82.84 195.482C84.2632 186.841 87.4862 178.597 92.3 171.282L132.88 180.962L166 216.942L163.3 216.242C163.202 216.215 163.097 216.229 163.009 216.279C162.921 216.33 162.857 216.414 162.83 216.512C162.803 216.61 162.817 216.715 162.868 216.803C162.918 216.891 163.002 216.955 163.1 216.982L166.92 217.962C174.1 225.722 180.5 232.642 185.38 237.962L82.74 210.502ZM245.6 264.162C230.68 268.042 217.14 263.022 208.12 257.862C203.616 255.272 199.529 252.015 196 248.202L98 141.862C100.585 137.186 103.692 132.818 107.26 128.842C112.7 134.842 112.3 134.522 112.54 134.522C112.611 134.519 112.679 134.497 112.738 134.457C112.796 134.418 112.843 134.363 112.872 134.298C112.901 134.234 112.912 134.163 112.902 134.093C112.893 134.023 112.865 133.956 112.82 133.902L107.82 128.282C113.753 121.87 120.767 116.549 128.54 112.562C233.44 220.922 228.76 216.182 229 216.182C229.074 216.182 229.147 216.161 229.21 216.121C229.272 216.08 229.321 216.022 229.351 215.954C229.381 215.886 229.39 215.811 229.377 215.737C229.365 215.664 229.331 215.596 229.28 215.542L214.76 200.542L232.96 204.882C237.617 219.774 241.305 234.953 244 250.322C242.726 250.583 241.437 250.763 240.14 250.862C240.039 250.862 239.943 250.902 239.871 250.973C239.8 251.044 239.76 251.141 239.76 251.242C239.76 251.342 239.8 251.439 239.871 251.51C239.943 251.582 240.039 251.622 240.14 251.622C241.484 251.523 242.82 251.336 244.14 251.062C245.32 258.242 246 263.442 245.6 264.262V264.162ZM388.48 212.162C384.48 222.542 371.6 224.382 360.9 221.662C350.6 219.042 335.94 209.862 323.3 204.902C323.245 204.872 323.183 204.857 323.12 204.855C323.058 204.854 322.996 204.868 322.939 204.895C322.883 204.922 322.834 204.963 322.795 205.012C322.757 205.062 322.732 205.12 322.72 205.182L320.72 218.122C298.12 245.542 264.72 257.482 251.34 262.302C249.84 262.822 248.5 263.382 246.3 264.002C247.02 257.282 236.3 207.842 230.82 198.142C245.38 200.922 290.7 206.382 321.22 175.462C323.44 179.742 329.02 183.622 335.68 188.662C334.732 191.196 333.997 193.805 333.48 196.462C333.455 196.64 333.473 196.822 333.532 196.993C333.591 197.163 333.69 197.317 333.82 197.442L360.4 211.322C360.444 211.358 360.495 211.384 360.55 211.398C360.605 211.411 360.663 211.413 360.718 211.401C360.774 211.39 360.826 211.366 360.872 211.332C360.917 211.297 360.954 211.253 360.98 211.203C361.006 211.152 361.02 211.097 361.022 211.04C361.024 210.983 361.013 210.927 360.99 210.875C360.967 210.823 360.932 210.777 360.889 210.74C360.846 210.703 360.795 210.676 360.74 210.662L334.2 196.782C336.48 184.782 343.34 173.842 352.2 168.382C354.42 169.842 374.62 183.202 385.26 193.902C387.385 196.389 388.805 199.4 389.371 202.622C389.938 205.844 389.63 209.159 388.48 212.222V212.162Z" fill="#1890ff"/>
<path d="M123.98 300.942L163.18 308.582L126.44 275.862L87.22 268.222L123.98 300.942Z" fill="#1890ff"/>
<path d="M165.02 307.362L200.9 283.802L158.04 278.582L143.48 288.182L165.02 307.362Z" fill="#1890ff"/>
<path d="M229.12 351.042L220.68 358.922L212.82 350.482C212.751 350.407 212.655 350.364 212.554 350.36C212.453 350.356 212.354 350.393 212.28 350.462C212.206 350.531 212.162 350.626 212.158 350.728C212.154 350.829 212.191 350.927 212.26 351.002L220.14 359.442L211.7 367.302C211.626 367.371 211.582 367.466 211.578 367.568C211.574 367.669 211.611 367.767 211.68 367.842C211.749 367.916 211.845 367.96 211.946 367.964C212.047 367.967 212.146 367.931 212.22 367.862L220.66 359.982L228.52 368.422C228.554 368.458 228.595 368.488 228.641 368.509C228.686 368.53 228.736 368.542 228.786 368.544C228.836 368.545 228.886 368.537 228.933 368.52C228.98 368.502 229.023 368.476 229.06 368.442C229.097 368.408 229.126 368.367 229.147 368.321C229.168 368.275 229.18 368.226 229.182 368.176C229.184 368.126 229.176 368.076 229.158 368.029C229.141 367.982 229.114 367.938 229.08 367.902L221.2 359.462L229.64 351.602C229.677 351.568 229.706 351.527 229.727 351.481C229.748 351.435 229.76 351.386 229.762 351.336C229.764 351.286 229.756 351.236 229.738 351.189C229.721 351.142 229.694 351.098 229.66 351.062C229.626 351.025 229.585 350.995 229.539 350.974C229.494 350.953 229.444 350.942 229.394 350.94C229.344 350.938 229.294 350.946 229.247 350.964C229.2 350.981 229.157 351.008 229.12 351.042Z" fill="#1890ff"/>
</svg>
