<svg width="400" height="400" viewBox="0 0 400 400" fill="none" xmlns="http://www.w3.org/2000/svg">
<path d="M75.296 227.562V258.532L56.866 248.52C58.1007 239.255 62.7242 230.776 69.844 224.72L75.296 227.562Z" fill="#B2BEC3"/>
<path d="M57.422 244.29C57.328 244.65 56.46 248.214 56.494 248.574C56.558 248.882 55.554 248.244 75.116 258.862C75.2038 258.91 75.3069 258.921 75.4028 258.893C75.4986 258.864 75.5793 258.799 75.627 258.711C75.6747 258.623 75.6857 258.52 75.6573 258.424C75.629 258.329 75.5638 258.248 75.476 258.2L57.286 248.322C59.016 239.232 62.63 230.97 69.886 225.168L75.118 227.894C75.2058 227.936 75.3064 227.942 75.3986 227.911C75.4907 227.88 75.5674 227.815 75.6124 227.729C75.6574 227.642 75.6673 227.542 75.64 227.449C75.6127 227.356 75.5504 227.277 75.466 227.228C69.79 224.282 69.968 224.266 69.692 224.378C68.9884 224.909 68.3141 225.478 67.672 226.082C58.7 221.094 57.91 220.618 57.698 220.546C56.9583 219.688 56.1561 218.886 55.298 218.146C53.8861 216.92 52.2925 215.921 50.574 215.184C50.0582 214.974 49.4827 214.961 48.958 215.148C39.414 218.508 26.134 221.244 11.19 229.13C10.7893 229.342 10.4617 229.67 10.25 230.071C10.0382 230.472 9.95207 230.928 10.0028 231.378C10.0535 231.829 10.2387 232.254 10.5343 232.598C10.8299 232.941 11.2221 233.188 11.66 233.306C22.8244 236.264 34.3113 237.833 45.86 237.976L57.422 244.29ZM57.622 243.542L46.468 237.448C50.414 228.17 53.28 224.092 57.72 221.408L67.104 226.624C62.477 231.306 59.2009 237.152 57.622 243.542Z" fill="white"/>
<path d="M120.178 265.046C117.364 268.662 113.347 271.148 108.855 272.054C104.364 272.959 99.697 272.223 95.702 269.98L86.902 265.046H120.178Z" fill="#B2BEC3"/>
<path d="M177.508 265.046L169.42 313.446C160.727 315.792 151.458 314.596 143.644 310.122L148.544 265.046H177.508Z" fill="#B2BEC3"/>
<path d="M161.63 224.48H105.558C106.338 220.88 107.424 216.028 107.864 212.594C109.264 201.748 117.018 191.154 120.288 187.176H135.4L138.078 195.28C138.922 197.834 140.586 200.038 142.811 201.548C145.037 203.058 147.699 203.791 150.384 203.632L161.63 224.48Z" fill="#B2BEC3"/>
<path d="M310.15 334.306H306.85L296.85 296.126C296.829 296.046 296.782 295.974 296.716 295.924C296.65 295.873 296.569 295.846 296.486 295.846H292.106C292.02 295.846 291.937 295.875 291.87 295.929C291.804 295.983 291.758 296.058 291.74 296.142L283.454 334.306H280.164C280.064 334.306 279.968 334.346 279.897 334.417C279.826 334.488 279.786 334.584 279.786 334.684V341.484C279.787 341.584 279.827 341.68 279.897 341.75C279.968 341.821 280.064 341.86 280.164 341.86H310.14C310.24 341.86 310.335 341.821 310.406 341.75C310.476 341.68 310.516 341.584 310.516 341.484V334.684C310.516 334.586 310.478 334.492 310.41 334.421C310.341 334.351 310.248 334.309 310.15 334.306ZM290.88 303.69L299.132 307.782L302.132 319.24L288.932 312.694L290.88 303.69ZM286.622 323.312L305.666 332.756L306.054 334.24H284.254L286.622 323.312Z" fill="white"/>
<path d="M139.234 119.932L138.454 120.46C139.321 120.696 140.09 121.2 140.651 121.901C141.212 122.603 141.536 123.464 141.576 124.361C141.615 125.258 141.369 126.145 140.872 126.893C140.374 127.641 139.653 128.211 138.81 128.522L138.98 129.26C139.932 128.923 140.76 128.305 141.354 127.488C141.948 126.671 142.281 125.693 142.308 124.683C142.336 123.673 142.057 122.679 141.508 121.831C140.959 120.983 140.166 120.321 139.234 119.932Z" fill="white"/>
<path d="M172.29 169.902V155.014H147.09C146.99 155.014 146.895 154.975 146.824 154.904C146.754 154.834 146.714 154.738 146.714 154.638C146.714 154.538 146.754 154.443 146.824 154.372C146.895 154.302 146.99 154.262 147.09 154.262H172.666C172.715 154.262 172.764 154.272 172.81 154.291C172.856 154.31 172.897 154.337 172.932 154.372C172.967 154.407 172.995 154.449 173.013 154.494C173.032 154.54 173.042 154.589 173.042 154.638V169.902C173.042 170.002 173.002 170.098 172.932 170.168C172.861 170.239 172.766 170.278 172.666 170.278C172.566 170.278 172.471 170.239 172.4 170.168C172.33 170.098 172.29 170.002 172.29 169.902Z" fill="white"/>
<path d="M146.772 279.95H128.874C128.774 279.95 128.679 279.91 128.608 279.84C128.538 279.769 128.498 279.674 128.498 279.574C128.498 279.474 128.538 279.379 128.608 279.308C128.679 279.238 128.774 279.198 128.874 279.198H146.772C146.872 279.198 146.967 279.238 147.038 279.308C147.108 279.379 147.148 279.474 147.148 279.574C147.148 279.674 147.108 279.769 147.038 279.84C146.967 279.91 146.872 279.95 146.772 279.95Z" fill="white"/>
<path d="M128.874 279.95C121.468 279.955 114.32 277.228 108.8 272.29C108.726 272.224 108.681 272.13 108.676 272.031C108.67 271.931 108.704 271.833 108.771 271.759C108.838 271.685 108.931 271.64 109.031 271.635C109.13 271.629 109.228 271.664 109.302 271.73C114.684 276.544 121.653 279.203 128.874 279.198C128.974 279.198 129.069 279.238 129.14 279.308C129.21 279.379 129.25 279.474 129.25 279.574C129.25 279.674 129.21 279.769 129.14 279.84C129.069 279.91 128.974 279.95 128.874 279.95Z" fill="white"/>
<path d="M334.44 264.854C331.824 269.216 328.126 272.828 323.704 275.341C319.282 277.855 314.286 279.184 309.2 279.2H175.2C175.1 279.2 175.005 279.24 174.934 279.31C174.864 279.381 174.824 279.476 174.824 279.576C174.824 279.676 174.864 279.772 174.934 279.842C175.005 279.913 175.1 279.952 175.2 279.952H309.2C314.417 279.937 319.541 278.575 324.077 275.997C328.613 273.42 332.406 269.716 335.09 265.242C335.116 265.2 335.132 265.152 335.14 265.103C335.147 265.054 335.144 265.004 335.132 264.956C335.12 264.907 335.098 264.862 335.069 264.822C335.039 264.782 335.002 264.749 334.959 264.723C334.916 264.698 334.869 264.681 334.82 264.674C334.771 264.666 334.721 264.669 334.672 264.681C334.624 264.693 334.579 264.715 334.539 264.745C334.499 264.774 334.466 264.812 334.44 264.854Z" fill="white"/>
<path d="M339.328 134.144C339.319 126.156 336.142 118.498 330.494 112.85C324.846 107.201 317.188 104.024 309.2 104.014H128.874C120.886 104.023 113.227 107.2 107.578 112.849C101.929 118.497 98.7515 126.156 98.742 134.144V224.48C98.7489 224.575 98.7917 224.664 98.8616 224.73C98.9316 224.795 99.0235 224.831 99.119 224.831C99.2145 224.831 99.3065 224.795 99.3764 224.73C99.4463 224.664 99.4891 224.575 99.496 224.48V140.93H124.696C124.796 140.93 124.891 140.891 124.962 140.82C125.032 140.75 125.072 140.654 125.072 140.554C125.072 140.454 125.032 140.359 124.962 140.288C124.891 140.218 124.796 140.178 124.696 140.178H99.496V134.144C99.505 126.355 102.603 118.888 108.111 113.381C113.618 107.873 121.085 104.775 128.874 104.766H309.2C316.989 104.775 324.456 107.873 329.963 113.381C335.471 118.888 338.569 126.355 338.578 134.144V140.178H136.562C136.462 140.178 136.367 140.218 136.296 140.288C136.226 140.359 136.186 140.454 136.186 140.554C136.186 140.654 136.226 140.75 136.296 140.82C136.367 140.891 136.462 140.93 136.562 140.93H338.574V224.48C338.581 224.575 338.624 224.664 338.694 224.73C338.764 224.795 338.855 224.831 338.951 224.831C339.046 224.831 339.138 224.795 339.208 224.73C339.278 224.664 339.321 224.575 339.328 224.48V134.144Z" fill="white"/>
<path d="M151.692 129.534C150.706 129.534 149.742 129.242 148.922 128.694C148.102 128.146 147.463 127.367 147.086 126.456C146.708 125.545 146.609 124.542 146.802 123.575C146.994 122.608 147.469 121.72 148.166 121.022C148.864 120.325 149.752 119.85 150.719 119.658C151.686 119.465 152.689 119.564 153.6 119.942C154.511 120.319 155.29 120.958 155.838 121.778C156.386 122.598 156.678 123.562 156.678 124.548C156.674 125.869 156.148 127.135 155.214 128.07C154.279 129.004 153.013 129.53 151.692 129.534ZM151.692 120.316C150.855 120.316 150.036 120.564 149.34 121.03C148.643 121.495 148.101 122.156 147.78 122.93C147.46 123.704 147.376 124.555 147.54 125.377C147.703 126.198 148.106 126.953 148.699 127.545C149.291 128.137 150.046 128.54 150.867 128.703C151.689 128.866 152.54 128.782 153.314 128.461C154.087 128.14 154.748 127.597 155.213 126.901C155.678 126.204 155.926 125.386 155.926 124.548C155.925 123.426 155.478 122.349 154.685 121.556C153.891 120.763 152.814 120.317 151.692 120.316Z" fill="white"/>
<path d="M324.92 196.054H265.4C265.3 196.054 265.205 196.015 265.134 195.944C265.064 195.874 265.024 195.778 265.024 195.678V154.638C265.024 154.538 265.064 154.443 265.134 154.372C265.205 154.302 265.3 154.262 265.4 154.262H324.92C325.02 154.262 325.115 154.302 325.186 154.372C325.256 154.443 325.296 154.538 325.296 154.638V195.678C325.296 195.778 325.256 195.874 325.186 195.944C325.115 196.015 325.02 196.054 324.92 196.054ZM265.778 195.302H324.544V155.014H265.778V195.302Z" fill="white"/>
<path d="M114.168 196.054H113.148C113.048 196.054 112.953 196.015 112.882 195.944C112.812 195.874 112.772 195.778 112.772 195.678V154.638C112.772 154.538 112.812 154.443 112.882 154.372C112.953 154.302 113.048 154.262 113.148 154.262H120.668C120.768 154.262 120.863 154.302 120.934 154.372C121.004 154.443 121.044 154.538 121.044 154.638C121.044 154.738 121.004 154.834 120.934 154.904C120.863 154.975 120.768 155.014 120.668 155.014H113.524V195.302H114.168C114.268 195.302 114.363 195.342 114.434 195.412C114.504 195.483 114.544 195.578 114.544 195.678C114.544 195.778 114.504 195.874 114.434 195.944C114.363 196.015 114.268 196.054 114.168 196.054Z" fill="white"/>
<path d="M251.18 224.48V210.218H186.888V224.48C186.888 224.58 186.848 224.675 186.778 224.746C186.707 224.816 186.612 224.856 186.512 224.856C186.412 224.856 186.317 224.816 186.246 224.746C186.176 224.675 186.136 224.58 186.136 224.48V209.842C186.136 209.742 186.176 209.647 186.246 209.576C186.317 209.506 186.412 209.466 186.512 209.466H251.558C251.658 209.466 251.753 209.506 251.824 209.576C251.894 209.647 251.934 209.742 251.934 209.842V224.48C251.927 224.575 251.884 224.664 251.814 224.729C251.744 224.794 251.653 224.831 251.557 224.831C251.462 224.831 251.37 224.794 251.3 224.729C251.23 224.664 251.187 224.575 251.18 224.48Z" fill="white"/>
<path d="M324.544 224.48V210.218H265.78V224.48C265.773 224.575 265.73 224.664 265.66 224.729C265.59 224.794 265.499 224.831 265.403 224.831C265.308 224.831 265.216 224.794 265.146 224.729C265.076 224.664 265.033 224.575 265.026 224.48V209.842C265.026 209.742 265.066 209.647 265.136 209.576C265.207 209.506 265.302 209.466 265.402 209.466H324.92C325.02 209.466 325.115 209.506 325.186 209.576C325.256 209.647 325.296 209.742 325.296 209.842V224.48C325.296 224.58 325.256 224.675 325.186 224.746C325.115 224.816 325.02 224.856 324.92 224.856C324.82 224.856 324.725 224.816 324.654 224.746C324.584 224.675 324.544 224.58 324.544 224.48Z" fill="white"/>
<path d="M172.29 224.48V210.218H153.73C153.63 210.218 153.535 210.178 153.464 210.108C153.394 210.037 153.354 209.942 153.354 209.842C153.354 209.742 153.394 209.647 153.464 209.576C153.535 209.506 153.63 209.466 153.73 209.466H172.666C172.715 209.466 172.764 209.476 172.81 209.495C172.856 209.514 172.897 209.541 172.932 209.576C172.967 209.611 172.994 209.653 173.013 209.698C173.032 209.744 173.042 209.793 173.042 209.842V224.48C173.042 224.58 173.002 224.675 172.932 224.746C172.861 224.816 172.766 224.856 172.666 224.856C172.566 224.856 172.471 224.816 172.4 224.746C172.33 224.675 172.29 224.58 172.29 224.48Z" fill="white"/>
<path d="M251.932 154.616C251.904 154.35 251.818 154.39 251.498 154.378C246.368 154.196 186.498 154.192 186.298 154.328C186.042 154.51 186.136 153.796 186.136 177.128C186.136 177.228 186.176 177.323 186.246 177.394C186.317 177.464 186.412 177.504 186.512 177.504C186.612 177.504 186.707 177.464 186.778 177.394C186.848 177.323 186.888 177.228 186.888 177.128V155.328L218.33 175.164L215.826 176.744C215.746 176.799 215.691 176.883 215.671 176.978C215.652 177.073 215.67 177.172 215.721 177.254C215.773 177.336 215.854 177.395 215.948 177.418C216.042 177.442 216.142 177.428 216.226 177.38L219.026 175.61L250.248 195.308H187.812L189.896 193.994C189.981 193.941 190.041 193.856 190.063 193.759C190.085 193.662 190.068 193.56 190.015 193.475C189.962 193.39 189.878 193.33 189.78 193.308C189.683 193.286 189.581 193.303 189.496 193.356L186.896 195V194.22C186.896 194.12 186.856 194.025 186.786 193.954C186.715 193.884 186.62 193.844 186.52 193.844C186.42 193.844 186.325 193.884 186.254 193.954C186.184 194.025 186.144 194.12 186.144 194.22V195.678C186.204 196.278 183.254 196.054 251.566 196.054C252.144 196.054 251.942 197.968 251.942 154.638L251.932 154.616ZM187.814 155.016H250.256L219.034 174.716L187.814 155.016ZM251.182 195L219.74 175.158L251.182 155.322V195Z" fill="white"/>
<path d="M301.758 170.652C301.721 170.6 301.672 170.558 301.615 170.529C301.559 170.499 301.496 170.484 301.432 170.484C301.368 170.484 301.305 170.499 301.249 170.529C301.192 170.558 301.143 170.6 301.106 170.652L298.506 175.146L292.434 164.626C292.397 164.574 292.348 164.532 292.291 164.503C292.235 164.473 292.172 164.458 292.108 164.458C292.044 164.458 291.981 164.473 291.925 164.503C291.868 164.532 291.819 164.574 291.782 164.626L279.782 185.394C279.749 185.451 279.732 185.516 279.732 185.582C279.732 185.648 279.749 185.713 279.782 185.77C279.815 185.828 279.863 185.875 279.92 185.908C279.977 185.941 280.042 185.958 280.108 185.958C304.004 185.958 308.924 186.01 309.956 185.916C310.318 185.884 310.372 185.698 310.21 185.356C309.838 184.54 308.138 181.702 301.758 170.652Z" fill="white"/>
<path d="M307.648 164.438C307.069 164.438 306.504 164.61 306.022 164.931C305.541 165.253 305.166 165.71 304.945 166.244C304.723 166.779 304.665 167.367 304.778 167.935C304.891 168.502 305.17 169.024 305.579 169.433C305.988 169.842 306.51 170.121 307.077 170.234C307.645 170.347 308.233 170.289 308.768 170.067C309.302 169.846 309.759 169.471 310.081 168.99C310.402 168.508 310.574 167.943 310.574 167.364C310.573 166.588 310.265 165.844 309.716 165.296C309.168 164.747 308.424 164.439 307.648 164.438Z" fill="white"/>
<path d="M71.326 179.476H63.104V171.24C63.104 171.142 63.065 171.048 62.9956 170.978C62.9262 170.909 62.8321 170.87 62.734 170.87C62.6359 170.87 62.5418 170.909 62.4724 170.978C62.403 171.048 62.364 171.142 62.364 171.24V179.462H54.128C54.0299 179.462 53.9358 179.501 53.8664 179.57C53.797 179.64 53.758 179.734 53.758 179.832C53.758 179.93 53.797 180.024 53.8664 180.094C53.9358 180.163 54.0299 180.202 54.128 180.202H62.352V188.436C62.352 188.534 62.391 188.628 62.4604 188.698C62.5298 188.767 62.6239 188.806 62.722 188.806C62.8201 188.806 62.9142 188.767 62.9836 188.698C63.053 188.628 63.092 188.534 63.092 188.436V180.216H71.328C71.4261 180.216 71.5201 180.177 71.5893 180.107C71.6585 180.037 71.6973 179.943 71.697 179.845C71.6967 179.747 71.6575 179.653 71.5879 179.584C71.5183 179.515 71.4241 179.476 71.326 179.476Z" fill="white"/>
<path d="M366.65 145.694C366.557 144.634 366.781 143.569 367.293 142.636C367.805 141.703 368.582 140.942 369.526 140.451C370.47 139.959 371.539 139.759 372.597 139.875C373.655 139.99 374.656 140.417 375.471 141.102C376.286 141.786 376.881 142.697 377.178 143.719C377.476 144.741 377.464 145.828 377.144 146.843C376.824 147.858 376.21 148.756 375.38 149.422C374.55 150.088 373.54 150.493 372.48 150.586C371.776 150.648 371.067 150.57 370.393 150.358C369.718 150.145 369.093 149.802 368.551 149.348C368.01 148.894 367.563 148.337 367.237 147.71C366.911 147.083 366.711 146.398 366.65 145.694ZM371.608 140.612C370.695 140.692 369.827 141.041 369.113 141.615C368.399 142.188 367.871 142.961 367.596 143.835C367.321 144.709 367.311 145.644 367.568 146.524C367.826 147.403 368.338 148.186 369.04 148.774C369.742 149.362 370.603 149.729 371.514 149.828C372.425 149.926 373.344 149.752 374.156 149.328C374.968 148.904 375.636 148.248 376.075 147.445C376.515 146.641 376.706 145.725 376.624 144.812C376.57 144.206 376.398 143.617 376.116 143.078C375.835 142.539 375.45 142.06 374.983 141.67C374.516 141.28 373.977 140.986 373.397 140.804C372.816 140.623 372.206 140.557 371.6 140.612H371.608Z" fill="white"/>
<path d="M249.464 77.2161L253.488 68.2581H246.324C246.261 68.2534 246.201 68.2341 246.147 68.2017C246.094 68.1693 246.048 68.1247 246.015 68.0716C245.982 68.0184 245.961 67.9582 245.956 67.8958C245.95 67.8333 245.959 67.7704 245.982 67.7121L250.244 58.2441C250.264 58.1991 250.293 58.1585 250.329 58.1246C250.365 58.0908 250.408 58.0644 250.454 58.047C250.5 58.0295 250.55 58.0213 250.599 58.0229C250.648 58.0245 250.697 58.0357 250.742 58.0561C250.787 58.0765 250.828 58.1055 250.861 58.1415C250.895 58.1776 250.922 58.2199 250.939 58.2662C250.957 58.3124 250.965 58.3616 250.963 58.411C250.962 58.4604 250.95 58.5091 250.93 58.5541L246.906 67.5101C251.632 67.5101 253.306 67.4801 253.94 67.5101C254.404 67.5381 254.54 67.6801 254.356 68.1521C254.086 68.8601 253.116 70.9201 250.156 77.5161C250.136 77.5615 250.108 77.6027 250.072 77.6371C250.037 77.6715 249.995 77.6986 249.949 77.7168C249.903 77.735 249.853 77.744 249.804 77.7432C249.754 77.7424 249.705 77.7318 249.66 77.7121C249.615 77.6924 249.573 77.6639 249.539 77.6284C249.505 77.5928 249.477 77.5508 249.459 77.5047C249.441 77.4586 249.432 77.4094 249.433 77.3599C249.434 77.3104 249.444 77.2615 249.464 77.2161Z" fill="white"/>
<path d="M124.428 125.968C124.888 126.334 125.434 126.576 126.014 126.67C126.814 126.776 126.988 126.098 127.048 125.29C127.108 124.482 126.812 124.632 126.634 124.66C126.582 124.67 124.634 125.388 124.53 125.46C124.45 125.515 124.395 125.599 124.376 125.693C124.357 125.788 124.376 125.887 124.428 125.968Z" fill="white"/>
<path d="M141.766 212.218C136.476 225.368 136.778 224.452 136.94 224.692C137.102 224.932 136.984 224.856 140.34 224.856C140.43 224.856 140.518 224.823 140.586 224.764C140.654 224.705 140.699 224.623 140.712 224.534L142.476 212.412C142.481 212.326 142.457 212.241 142.406 212.17C142.356 212.1 142.283 212.049 142.2 212.027C142.117 212.004 142.028 212.011 141.949 212.045C141.87 212.08 141.805 212.141 141.766 212.218Z" fill="white"/>
<path d="M86.726 265.374L95.526 270.308C99.6057 272.572 104.358 273.309 108.932 272.387C113.505 271.465 117.601 268.945 120.486 265.278C120.516 265.239 120.539 265.194 120.552 265.146C120.565 265.098 120.568 265.048 120.561 264.998C120.555 264.949 120.539 264.901 120.514 264.858C120.489 264.815 120.456 264.777 120.417 264.747C120.378 264.717 120.333 264.694 120.285 264.682C120.237 264.669 120.187 264.665 120.137 264.672C120.088 264.678 120.04 264.694 119.997 264.719C119.954 264.744 119.916 264.777 119.886 264.816C117.113 268.343 113.174 270.766 108.776 271.653C104.378 272.539 99.8085 271.83 95.886 269.652L87.086 264.718C87.0002 264.682 86.9039 264.678 86.8157 264.709C86.7276 264.739 86.654 264.801 86.6091 264.883C86.5642 264.965 86.5513 265.06 86.5729 265.151C86.5946 265.242 86.6491 265.321 86.726 265.374Z" fill="white"/>
<path d="M216.424 176.09C216.06 175.354 214.976 175.256 213.524 175.828C211.598 176.5 209.637 177.067 207.65 177.526C209.366 176.582 213.816 174.142 212.874 172.434C211.714 170.332 207.744 174.278 198.01 176.088C201.21 171.93 202.41 169.418 201.564 168.62C200.776 167.876 198.676 168.986 195.318 171.926C191.935 174.815 187.817 176.71 183.422 177.4C183.198 176.922 182.93 176.465 182.622 176.036C182.388 175.896 183.512 175.768 155.668 180.57C152.498 170.916 150.712 162.784 149.018 158.098L158.8 172.454C159.012 172.764 157.426 172.914 186.144 167.962V167.2L159.284 171.832C146.41 152.928 146.2 152.5 146 152.348C143.302 149.032 139.242 147.43 131.944 146.36C131.699 144.556 131.87 142.719 132.446 140.992C133.191 141.272 133.975 141.433 134.77 141.472C135.406 141.473 136.033 141.315 136.592 141.011C137.151 140.708 137.625 140.269 137.97 139.734C140.598 136.036 139.94 126.858 136.64 121.202C136.59 121.116 136.507 121.053 136.41 121.028C136.314 121.003 136.211 121.017 136.125 121.067C136.039 121.117 135.976 121.2 135.951 121.297C135.926 121.393 135.94 121.496 135.99 121.582C139.92 128.318 140.164 141.842 134.05 140.648L132.304 140.172C131.27 139.687 130.268 139.136 129.304 138.524C129.104 138.41 128.6 138.542 128.728 138.948C128.792 139.148 129.528 140.348 131.192 143.212C130.99 144.2 130.964 145.215 131.116 146.212L123.854 144.922C126.356 136.922 126.216 135.922 124.95 129.95C124.935 129.88 124.9 129.817 124.85 129.766C124.8 129.715 124.737 129.679 124.668 129.662C124.266 129.591 123.882 129.441 123.538 129.22C123.195 128.998 122.899 128.711 122.668 128.374C122.088 127.422 122.54 126.924 122.364 126.574L122.32 126.516C122.048 126.278 121.94 126.41 120.92 126.796C120.83 126.835 120.759 126.906 120.72 126.996C120.46 127.752 124.052 135.55 124.92 137.978C124.108 141.665 123.076 145.3 121.83 148.864C118.021 161.238 117.348 174.365 119.872 187.064C118.66 188.464 109.198 199.664 107.508 212.54C107.044 216.058 106.352 220.048 105.444 224.4C105.428 224.496 105.449 224.595 105.504 224.675C105.559 224.756 105.643 224.812 105.739 224.831C105.834 224.851 105.933 224.833 106.016 224.781C106.098 224.729 106.157 224.647 106.18 224.552C107.092 220.182 107.78 216.174 108.254 212.638C109.922 199.93 119.326 188.838 120.454 187.548H135.142L137.742 195.396C138.6 197.989 140.278 200.231 142.523 201.786C144.768 203.341 147.458 204.123 150.186 204.014C162.058 226.014 161.286 224.814 161.634 224.814C161.699 224.814 161.763 224.797 161.82 224.765C161.876 224.733 161.924 224.687 161.957 224.631C161.991 224.576 162.009 224.512 162.011 224.447C162.012 224.382 161.997 224.317 161.966 224.26L150.98 203.956C151.432 203.908 186.226 197.038 186.428 196.866C186.678 196.12 186.824 195.344 186.862 194.558C194.98 193.228 202.983 191.273 210.8 188.71C212.648 188.04 213.642 187.178 213.456 186.402C213.36 186.002 212.89 185.38 210.808 185.638C210.358 185.694 209.872 185.73 209.31 185.756C210.822 185.322 212.308 184.803 213.762 184.202C217.574 182.564 216.684 179.988 213.35 180.802C212.646 180.972 211.256 181.252 209.578 181.52C211.209 180.832 212.797 180.047 214.334 179.17C216.024 178.144 216.844 176.94 216.424 176.09ZM185.856 196.27L151.968 203.046C149.138 203.611 146.199 203.121 143.705 201.669C141.211 200.218 139.334 197.904 138.428 195.164L130.356 170.714C130.324 170.62 130.257 170.542 130.168 170.497C130.079 170.453 129.976 170.446 129.882 170.477C129.787 170.508 129.709 170.575 129.664 170.664C129.619 170.753 129.611 170.856 129.642 170.95L134.874 186.8H120.57C118.099 174.263 118.774 161.309 122.534 149.096C122.858 148.042 123.616 145.652 123.616 145.652L131.616 147.074C138.958 148.132 142.886 149.64 145.476 152.9L146.566 154.5C149.458 159.444 150.546 167.458 155.056 181.122C155.081 181.197 155.129 181.262 155.193 181.309C155.258 181.355 155.335 181.38 155.414 181.38C155.614 181.38 157.44 181.036 182.214 176.764C185.477 182.711 186.754 189.546 185.856 196.27ZM202.6 183.486C202.517 183.516 202.447 183.574 202.402 183.65C202.358 183.726 202.341 183.816 202.356 183.903C202.371 183.99 202.416 184.069 202.483 184.126C202.55 184.184 202.636 184.215 202.724 184.216C202.962 184.216 206.524 182.794 206.936 182.616C209.155 182.371 211.358 182.003 213.536 181.514C214.818 181.204 215.418 181.46 215.496 181.694C216.118 183.562 205.046 186.158 203.096 186.55C203.003 186.574 202.923 186.633 202.872 186.715C202.822 186.796 202.804 186.894 202.823 186.988C202.842 187.082 202.896 187.165 202.974 187.221C203.052 187.276 203.149 187.3 203.244 187.286C206.004 186.73 206.192 186.528 206.394 186.562C207.902 186.578 209.41 186.515 210.912 186.374C212.338 186.198 212.712 186.5 212.736 186.574C212.772 186.726 212.304 187.374 210.556 188C202.843 190.536 194.945 192.468 186.932 193.78C187.117 188.387 186.038 183.024 183.782 178.122C188.229 177.362 192.388 175.416 195.822 172.49C199.594 169.186 200.908 169.028 201.054 169.164C201.27 169.364 200.986 171.09 197.006 176.164C196.981 176.197 196.961 176.234 196.948 176.274C196.2 176.394 195.429 176.497 194.634 176.582C194.585 176.587 194.537 176.602 194.494 176.626C194.451 176.65 194.412 176.681 194.381 176.72C194.35 176.758 194.327 176.803 194.313 176.85C194.299 176.897 194.295 176.947 194.3 176.996C194.305 177.045 194.32 177.093 194.344 177.136C194.367 177.18 194.399 177.218 194.438 177.249C194.476 177.28 194.52 177.303 194.568 177.317C194.615 177.331 194.665 177.335 194.714 177.33C205.838 176.15 211.49 171.466 212.222 172.798C212.338 172.998 212.092 173.778 210.6 174.83C207.923 176.633 205.065 178.152 202.074 179.364C201.984 179.404 201.914 179.476 201.877 179.567C201.84 179.658 201.84 179.76 201.877 179.85C201.914 179.941 201.985 180.014 202.075 180.053C202.165 180.092 202.266 180.095 202.358 180.06C203.12 179.75 203.994 179.366 204.92 178.926C207.931 178.313 210.9 177.511 213.81 176.526C215.03 176.042 215.652 176.204 215.758 176.42C215.912 176.734 215.448 177.62 213.958 178.512C210.3 180.449 206.504 182.112 202.6 183.486Z" fill="white"/>
<path d="M389.626 341.11H185.346C185.6 340.749 185.71 340.306 185.653 339.869C185.597 339.431 185.378 339.03 185.04 338.746C181.574 335.802 172.64 328.722 164.22 326.202L165.918 314.448C167.09 314.282 168.292 314.07 169.506 313.812C169.906 313.688 169.306 316.386 177.428 268.646C177.629 267.463 177.769 266.27 177.848 265.072C177.852 264.974 177.817 264.879 177.751 264.807C177.686 264.734 177.595 264.69 177.497 264.683C177.4 264.677 177.303 264.708 177.229 264.772C177.154 264.835 177.107 264.925 177.098 265.022C176.93 267.542 177.068 266.264 171.186 300.822C162.458 301.796 153.623 300.745 145.366 297.752L148.91 265.126C148.916 265.077 148.911 265.028 148.898 264.98C148.884 264.933 148.861 264.889 148.83 264.85C148.799 264.812 148.761 264.78 148.718 264.756C148.675 264.732 148.627 264.717 148.578 264.712C148.479 264.704 148.381 264.734 148.303 264.796C148.226 264.858 148.175 264.948 148.162 265.046C142.904 313.38 143.19 310.162 143.362 310.362C144.196 310.908 145.065 311.399 145.962 311.834L143.642 326.408C142.29 330.27 141.463 334.296 141.184 338.378C141.151 338.907 141.255 339.435 141.485 339.912C141.715 340.389 142.064 340.799 142.498 341.102H45.6C45.322 341.102 44.836 341.966 45.734 341.968C50.568 341.986 90.108 341.854 389.626 341.854C389.715 341.841 389.797 341.796 389.856 341.728C389.915 341.66 389.947 341.572 389.947 341.482C389.947 341.392 389.915 341.305 389.856 341.236C389.797 341.168 389.715 341.123 389.626 341.11ZM171.054 301.6L169.09 313.13C159.264 315.168 150.838 314.09 144.044 309.93L145.282 298.53C153.529 301.493 162.342 302.543 171.054 301.6ZM165.144 314.55L163.454 326.242C157.231 327.949 150.663 327.949 144.44 326.242L146.682 312.18C152.496 314.672 158.889 315.493 165.144 314.55Z" fill="white"/>
<path d="M133.278 197.518C129.745 202.535 124.551 206.141 118.616 207.698C118.521 207.729 118.442 207.796 118.396 207.885C118.35 207.974 118.342 208.077 118.372 208.172C118.403 208.267 118.47 208.347 118.558 208.392C118.647 208.438 118.751 208.447 118.846 208.416C125.81 206.194 130.878 202.664 133.912 197.924C133.939 197.883 133.957 197.836 133.966 197.787C133.974 197.739 133.973 197.689 133.963 197.641C133.952 197.592 133.932 197.547 133.904 197.506C133.876 197.465 133.84 197.431 133.798 197.404C133.756 197.378 133.71 197.359 133.661 197.351C133.613 197.342 133.563 197.343 133.514 197.353C133.466 197.364 133.42 197.384 133.38 197.412C133.339 197.441 133.305 197.477 133.278 197.518Z" fill="white"/>
<path d="M363.15 211.78C363.579 211.71 363.968 211.486 364.242 211.148C364.516 210.811 364.657 210.385 364.638 209.95C364.622 209.459 364.416 208.993 364.062 208.651C363.709 208.309 363.237 208.118 362.745 208.118C362.253 208.118 361.781 208.309 361.428 208.651C361.074 208.993 360.868 209.459 360.852 209.95C360.833 210.395 360.981 210.83 361.267 211.171C361.553 211.512 361.957 211.732 362.398 211.79V224.104H75.672V211.768C76.0886 211.687 76.4621 211.458 76.7245 211.125C76.987 210.791 77.1209 210.374 77.102 209.95C77.086 209.459 76.8796 208.993 76.5263 208.651C76.1731 208.309 75.7007 208.118 75.209 208.118C74.7173 208.118 74.2449 208.309 73.8917 208.651C73.5384 208.993 73.332 209.459 73.316 209.95C73.2963 210.404 73.4511 210.849 73.7486 211.192C74.0461 211.536 74.4638 211.753 74.916 211.798V341.488C74.916 341.588 74.9556 341.684 75.0261 341.754C75.0966 341.825 75.1923 341.864 75.292 341.864C75.3917 341.864 75.4874 341.825 75.5579 341.754C75.6284 341.684 75.668 341.588 75.668 341.488V265.422H362.4V341.488C362.4 341.588 362.44 341.684 362.51 341.754C362.581 341.825 362.676 341.864 362.776 341.864C362.876 341.864 362.971 341.825 363.042 341.754C363.112 341.684 363.152 341.588 363.152 341.488L363.15 211.78ZM362.4 239L333.868 224.85H362.4V239ZM75.672 264.67V249.658L105.936 264.67H75.672ZM144.272 264.67L75.672 230.644V224.856H93.128L173.4 264.67H144.272ZM211.74 264.67L131.46 224.856H160.6L240.882 264.67H211.74ZM279.204 264.67L198.93 224.856H228.06L308.34 264.67H279.204ZM362.404 264.67H346.68L266.4 224.856H295.53L362.4 258.022L362.404 264.67Z" fill="white"/>
<path d="M142.038 117.8C141.868 117.627 141.654 117.503 141.42 117.44C141.185 117.378 140.938 117.379 140.704 117.444L137.158 118.776C136.644 117.64 135.906 116.62 134.989 115.776C134.071 114.932 132.993 114.282 131.818 113.864C131.997 113.613 132.111 113.321 132.15 113.016C132.19 112.71 132.153 112.399 132.044 112.111C131.935 111.822 131.756 111.565 131.523 111.363C131.291 111.16 131.012 111.017 130.712 110.948C128.421 110.491 126.048 110.669 123.85 111.462C121.859 112.186 120.084 113.402 118.69 114.998C118.495 115.221 118.356 115.488 118.284 115.775C118.212 116.063 118.209 116.363 118.276 116.652C118.343 116.94 118.478 117.209 118.669 117.436C118.86 117.662 119.103 117.84 119.376 117.954C118.34 119.419 117.709 121.131 117.545 122.917C117.381 124.703 117.69 126.501 118.442 128.13C118.47 128.199 118.519 128.258 118.581 128.3C118.643 128.341 118.715 128.364 118.79 128.364C118.99 128.344 142.59 119.282 141.54 119.7C141.724 119.638 141.891 119.531 142.023 119.388C142.156 119.246 142.251 119.073 142.301 118.884C142.35 118.696 142.352 118.498 142.306 118.309C142.26 118.12 142.168 117.945 142.038 117.8Z" fill="white"/>
</svg>
