<svg width="400" height="401" viewBox="0 0 400 401" fill="none" xmlns="http://www.w3.org/2000/svg">
<path d="M75.296 228.244V259.214L56.866 249.202C58.1007 239.937 62.7242 231.458 69.844 225.402L75.296 228.244Z" fill="#FFE7EA"/>
<path d="M57.422 244.972C57.328 245.332 56.46 248.896 56.494 249.256C56.558 249.564 55.554 248.926 75.116 259.544C75.2038 259.591 75.3069 259.602 75.4028 259.574C75.4986 259.546 75.5793 259.48 75.627 259.393C75.6747 259.305 75.6857 259.202 75.6573 259.106C75.629 259.01 75.5638 258.929 75.476 258.882L57.286 249.004C59.016 239.914 62.63 231.652 69.886 225.85L75.118 228.576C75.2058 228.617 75.3064 228.623 75.3986 228.592C75.4907 228.562 75.5674 228.496 75.6124 228.41C75.6574 228.324 75.6673 228.224 75.64 228.13C75.6127 228.037 75.5504 227.958 75.466 227.91C69.79 224.964 69.968 224.948 69.692 225.06C68.9884 225.591 68.3141 226.16 67.672 226.764C58.7 221.776 57.91 221.3 57.698 221.228C56.9583 220.37 56.1561 219.567 55.298 218.828C53.8861 217.602 52.2925 216.603 50.574 215.866C50.0582 215.655 49.4827 215.642 48.958 215.83C39.414 219.19 26.134 221.926 11.19 229.812C10.7893 230.024 10.4617 230.352 10.25 230.753C10.0382 231.154 9.95207 231.609 10.0028 232.06C10.0535 232.51 10.2387 232.935 10.5343 233.279C10.8299 233.623 11.2221 233.87 11.66 233.988C22.8244 236.946 34.3113 238.514 45.86 238.658L57.422 244.972ZM57.622 244.224L46.468 238.13C50.414 228.852 53.28 224.774 57.72 222.09L67.104 227.306C62.477 231.988 59.2009 237.833 57.622 244.224Z" fill="#1890ff"/>
<path d="M120.178 265.728C117.364 269.343 113.347 271.83 108.855 272.735C104.364 273.641 99.6969 272.905 95.702 270.662L86.902 265.728H120.178Z" fill="#FFE7EA"/>
<path d="M177.508 265.728L169.42 314.128C160.727 316.473 151.458 315.278 143.644 310.804L148.544 265.728H177.508Z" fill="#FFE7EA"/>
<path d="M161.63 225.162H105.558C106.338 221.562 107.424 216.71 107.864 213.276C109.264 202.43 117.018 191.836 120.288 187.858H135.4L138.078 195.962C138.922 198.516 140.586 200.719 142.811 202.23C145.037 203.74 147.699 204.473 150.384 204.314L161.63 225.162Z" fill="#FFE7EA"/>
<path d="M310.15 334.988H306.85L296.85 296.808C296.829 296.727 296.782 296.656 296.716 296.605C296.65 296.554 296.569 296.527 296.486 296.528H292.106C292.02 296.527 291.937 296.556 291.87 296.61C291.804 296.664 291.758 296.74 291.74 296.824L283.454 334.988H280.164C280.064 334.988 279.968 335.027 279.897 335.098C279.826 335.169 279.786 335.265 279.786 335.366V342.166C279.787 342.266 279.827 342.361 279.897 342.432C279.968 342.502 280.064 342.542 280.164 342.542H310.14C310.24 342.542 310.335 342.502 310.406 342.432C310.476 342.361 310.516 342.265 310.516 342.166V335.366C310.516 335.267 310.478 335.173 310.41 335.103C310.341 335.032 310.248 334.991 310.15 334.988ZM290.88 304.372L299.132 308.464L302.132 319.922L288.932 313.376L290.88 304.372ZM286.622 323.994L305.666 333.438L306.054 334.922H284.254L286.622 323.994Z" fill="#1890ff"/>
<path d="M139.234 120.614L138.454 121.142C139.321 121.377 140.09 121.882 140.651 122.583C141.212 123.284 141.536 124.146 141.576 125.043C141.615 125.94 141.369 126.826 140.872 127.574C140.374 128.322 139.653 128.893 138.81 129.204L138.98 129.942C139.932 129.604 140.76 128.986 141.354 128.169C141.948 127.352 142.281 126.375 142.308 125.365C142.336 124.355 142.057 123.361 141.508 122.512C140.959 121.664 140.166 121.002 139.234 120.614Z" fill="#1890ff"/>
<path d="M172.29 170.584V155.696H147.09C146.99 155.696 146.895 155.656 146.824 155.585C146.754 155.515 146.714 155.419 146.714 155.32C146.714 155.22 146.754 155.124 146.824 155.054C146.895 154.983 146.99 154.944 147.09 154.944H172.666C172.715 154.944 172.764 154.953 172.81 154.972C172.856 154.991 172.897 155.019 172.932 155.054C172.967 155.089 172.995 155.13 173.013 155.176C173.032 155.221 173.042 155.27 173.042 155.32V170.584C173.042 170.683 173.002 170.779 172.932 170.849C172.861 170.92 172.766 170.96 172.666 170.96C172.566 170.96 172.471 170.92 172.4 170.849C172.33 170.779 172.29 170.683 172.29 170.584Z" fill="#1890ff"/>
<path d="M146.772 280.632H128.874C128.774 280.632 128.679 280.592 128.608 280.522C128.538 280.451 128.498 280.355 128.498 280.256C128.498 280.156 128.538 280.06 128.608 279.99C128.679 279.919 128.774 279.88 128.874 279.88H146.772C146.872 279.88 146.967 279.919 147.038 279.99C147.108 280.06 147.148 280.156 147.148 280.256C147.148 280.355 147.108 280.451 147.038 280.522C146.967 280.592 146.872 280.632 146.772 280.632Z" fill="#1890ff"/>
<path d="M128.874 280.632C121.468 280.637 114.32 277.909 108.8 272.972C108.726 272.905 108.681 272.812 108.676 272.712C108.67 272.613 108.704 272.515 108.771 272.441C108.838 272.366 108.931 272.322 109.031 272.316C109.13 272.311 109.228 272.345 109.302 272.412C114.684 277.226 121.653 279.885 128.874 279.88C128.974 279.88 129.069 279.919 129.14 279.99C129.21 280.06 129.25 280.156 129.25 280.256C129.25 280.355 129.21 280.451 129.14 280.522C129.069 280.592 128.974 280.632 128.874 280.632Z" fill="#1890ff"/>
<path d="M334.44 265.536C331.824 269.897 328.126 273.51 323.704 276.023C319.282 278.536 314.286 279.865 309.2 279.882H175.2C175.1 279.882 175.005 279.921 174.934 279.992C174.864 280.062 174.824 280.158 174.824 280.258C174.824 280.357 174.864 280.453 174.934 280.523C175.005 280.594 175.1 280.634 175.2 280.634H309.2C314.417 280.618 319.541 279.256 324.077 276.679C328.613 274.102 332.406 270.397 335.09 265.924C335.116 265.881 335.132 265.834 335.14 265.785C335.147 265.735 335.144 265.685 335.132 265.637C335.12 265.589 335.098 265.544 335.069 265.504C335.039 265.464 335.002 265.43 334.959 265.405C334.916 265.379 334.869 265.362 334.82 265.355C334.771 265.348 334.721 265.35 334.672 265.363C334.624 265.375 334.579 265.396 334.539 265.426C334.499 265.456 334.466 265.493 334.44 265.536Z" fill="#1890ff"/>
<path d="M339.328 134.826C339.319 126.838 336.142 119.18 330.494 113.531C324.846 107.883 317.188 104.705 309.2 104.696H128.874C120.886 104.705 113.227 107.882 107.578 113.53C101.929 119.179 98.7515 126.837 98.742 134.826V225.162C98.7489 225.257 98.7917 225.346 98.8616 225.411C98.9316 225.476 99.0235 225.512 99.119 225.512C99.2145 225.512 99.3065 225.476 99.3764 225.411C99.4463 225.346 99.4891 225.257 99.496 225.162V141.612H124.696C124.796 141.612 124.891 141.572 124.962 141.502C125.032 141.431 125.072 141.335 125.072 141.236C125.072 141.136 125.032 141.04 124.962 140.97C124.891 140.899 124.796 140.86 124.696 140.86H99.496V134.826C99.505 127.037 102.603 119.57 108.111 114.062C113.618 108.555 121.085 105.457 128.874 105.448H309.2C316.989 105.457 324.456 108.555 329.963 114.062C335.471 119.57 338.569 127.037 338.578 134.826V140.86H136.562C136.462 140.86 136.367 140.899 136.296 140.97C136.226 141.04 136.186 141.136 136.186 141.236C136.186 141.335 136.226 141.431 136.296 141.502C136.367 141.572 136.462 141.612 136.562 141.612H338.574V225.162C338.581 225.257 338.624 225.346 338.694 225.411C338.764 225.476 338.855 225.512 338.951 225.512C339.046 225.512 339.138 225.476 339.208 225.411C339.278 225.346 339.321 225.257 339.328 225.162V134.826Z" fill="#1890ff"/>
<path d="M151.692 130.216C150.706 130.216 149.742 129.923 148.922 129.375C148.102 128.827 147.463 128.049 147.086 127.138C146.708 126.227 146.609 125.224 146.802 124.257C146.994 123.29 147.469 122.401 148.166 121.704C148.864 121.007 149.752 120.532 150.719 120.339C151.686 120.147 152.689 120.246 153.6 120.623C154.511 121.001 155.29 121.64 155.838 122.46C156.386 123.28 156.678 124.244 156.678 125.23C156.674 126.551 156.148 127.817 155.214 128.751C154.279 129.685 153.013 130.212 151.692 130.216ZM151.692 120.998C150.855 120.998 150.036 121.246 149.34 121.711C148.643 122.177 148.101 122.838 147.78 123.612C147.46 124.386 147.376 125.237 147.54 126.058C147.703 126.88 148.106 127.634 148.699 128.226C149.291 128.818 150.046 129.221 150.867 129.385C151.689 129.548 152.54 129.464 153.314 129.143C154.087 128.822 154.748 128.279 155.213 127.582C155.678 126.886 155.926 126.067 155.926 125.23C155.925 124.107 155.478 123.031 154.685 122.238C153.891 121.444 152.814 120.998 151.692 120.998Z" fill="#1890ff"/>
<path d="M324.92 196.736H265.4C265.3 196.736 265.205 196.696 265.134 196.625C265.064 196.555 265.024 196.459 265.024 196.36V155.32C265.024 155.22 265.064 155.124 265.134 155.054C265.205 154.983 265.3 154.944 265.4 154.944H324.92C325.02 154.944 325.115 154.983 325.186 155.054C325.256 155.124 325.296 155.22 325.296 155.32V196.36C325.296 196.459 325.256 196.555 325.186 196.625C325.115 196.696 325.02 196.736 324.92 196.736ZM265.778 195.984H324.544V155.696H265.778V195.984Z" fill="#1890ff"/>
<path d="M114.168 196.736H113.148C113.048 196.736 112.953 196.696 112.882 196.625C112.812 196.555 112.772 196.459 112.772 196.36V155.32C112.772 155.22 112.812 155.124 112.882 155.054C112.953 154.983 113.048 154.944 113.148 154.944H120.668C120.768 154.944 120.863 154.983 120.934 155.054C121.004 155.124 121.044 155.22 121.044 155.32C121.044 155.419 121.004 155.515 120.934 155.585C120.863 155.656 120.768 155.696 120.668 155.696H113.524V195.984H114.168C114.268 195.984 114.363 196.023 114.434 196.094C114.504 196.164 114.544 196.26 114.544 196.36C114.544 196.459 114.504 196.555 114.434 196.625C114.363 196.696 114.268 196.736 114.168 196.736Z" fill="#1890ff"/>
<path d="M251.18 225.162V210.9H186.888V225.162C186.888 225.261 186.848 225.357 186.778 225.428C186.707 225.498 186.612 225.538 186.512 225.538C186.412 225.538 186.317 225.498 186.246 225.428C186.176 225.357 186.136 225.261 186.136 225.162V210.524C186.136 210.424 186.176 210.328 186.246 210.258C186.317 210.187 186.412 210.148 186.512 210.148H251.558C251.658 210.148 251.753 210.187 251.824 210.258C251.894 210.328 251.934 210.424 251.934 210.524V225.162C251.927 225.257 251.884 225.346 251.814 225.411C251.744 225.476 251.653 225.512 251.557 225.512C251.462 225.512 251.37 225.476 251.3 225.411C251.23 225.346 251.187 225.257 251.18 225.162Z" fill="#1890ff"/>
<path d="M324.544 225.162V210.9H265.78V225.162C265.773 225.257 265.73 225.346 265.66 225.411C265.59 225.476 265.499 225.512 265.403 225.512C265.308 225.512 265.216 225.476 265.146 225.411C265.076 225.346 265.033 225.257 265.026 225.162V210.524C265.026 210.424 265.066 210.328 265.136 210.258C265.207 210.187 265.302 210.148 265.402 210.148H324.92C325.02 210.148 325.115 210.187 325.186 210.258C325.256 210.328 325.296 210.424 325.296 210.524V225.162C325.296 225.261 325.256 225.357 325.186 225.428C325.115 225.498 325.02 225.538 324.92 225.538C324.82 225.538 324.725 225.498 324.654 225.428C324.584 225.357 324.544 225.261 324.544 225.162Z" fill="#1890ff"/>
<path d="M172.29 225.162V210.9H153.73C153.63 210.9 153.535 210.86 153.464 210.79C153.394 210.719 153.354 210.623 153.354 210.524C153.354 210.424 153.394 210.328 153.464 210.258C153.535 210.187 153.63 210.148 153.73 210.148H172.666C172.715 210.148 172.764 210.157 172.81 210.176C172.856 210.195 172.897 210.223 172.932 210.258C172.967 210.293 172.994 210.334 173.013 210.38C173.032 210.425 173.042 210.474 173.042 210.524V225.162C173.042 225.261 173.002 225.357 172.932 225.428C172.861 225.498 172.766 225.538 172.666 225.538C172.566 225.538 172.471 225.498 172.4 225.428C172.33 225.357 172.29 225.261 172.29 225.162Z" fill="#1890ff"/>
<path d="M251.932 155.298C251.904 155.032 251.818 155.072 251.498 155.06C246.368 154.878 186.498 154.874 186.298 155.01C186.042 155.192 186.136 154.478 186.136 177.81C186.136 177.909 186.176 178.005 186.246 178.076C186.317 178.146 186.412 178.186 186.512 178.186C186.612 178.186 186.707 178.146 186.778 178.076C186.848 178.005 186.888 177.909 186.888 177.81V156.01L218.33 175.846L215.826 177.426C215.746 177.481 215.691 177.564 215.671 177.659C215.652 177.754 215.67 177.853 215.721 177.935C215.773 178.017 215.854 178.076 215.948 178.1C216.042 178.123 216.142 178.11 216.226 178.062L219.026 176.292L250.248 195.99H187.812L189.896 194.676C189.981 194.623 190.041 194.538 190.063 194.441C190.085 194.343 190.068 194.241 190.015 194.157C189.962 194.072 189.878 194.012 189.78 193.99C189.683 193.967 189.581 193.985 189.496 194.038L186.896 195.682V194.902C186.896 194.802 186.856 194.706 186.786 194.636C186.715 194.565 186.62 194.526 186.52 194.526C186.42 194.526 186.325 194.565 186.254 194.636C186.184 194.706 186.144 194.802 186.144 194.902V196.36C186.204 196.96 183.254 196.736 251.566 196.736C252.144 196.736 251.942 198.65 251.942 155.32L251.932 155.298ZM187.814 155.698H250.256L219.034 175.398L187.814 155.698ZM251.182 195.682L219.74 175.84L251.182 156.004V195.682Z" fill="#1890ff"/>
<path d="M301.758 171.334C301.721 171.282 301.672 171.239 301.615 171.21C301.559 171.181 301.496 171.165 301.432 171.165C301.368 171.165 301.305 171.181 301.249 171.21C301.192 171.239 301.143 171.282 301.106 171.334L298.506 175.828L292.434 165.308C292.397 165.256 292.348 165.213 292.291 165.184C292.235 165.155 292.172 165.139 292.108 165.139C292.044 165.139 291.981 165.155 291.925 165.184C291.868 165.213 291.819 165.256 291.782 165.308L279.782 186.076C279.749 186.133 279.732 186.198 279.732 186.264C279.732 186.33 279.749 186.395 279.782 186.452C279.815 186.509 279.863 186.556 279.92 186.589C279.977 186.622 280.042 186.64 280.108 186.64C304.004 186.64 308.924 186.692 309.956 186.598C310.318 186.566 310.372 186.38 310.21 186.038C309.838 185.222 308.138 182.384 301.758 171.334Z" fill="#1890ff"/>
<path d="M307.648 165.12C307.069 165.12 306.504 165.291 306.022 165.613C305.541 165.934 305.166 166.391 304.945 166.926C304.723 167.461 304.665 168.049 304.778 168.616C304.891 169.184 305.17 169.705 305.579 170.115C305.988 170.524 306.51 170.803 307.077 170.915C307.645 171.028 308.233 170.97 308.768 170.749C309.302 170.527 309.759 170.152 310.081 169.671C310.402 169.19 310.574 168.624 310.574 168.046C310.573 167.27 310.265 166.526 309.716 165.977C309.168 165.429 308.424 165.12 307.648 165.12Z" fill="#1890ff"/>
<path d="M71.326 180.158H63.104V171.922C63.104 171.824 63.065 171.729 62.9956 171.66C62.9262 171.591 62.8321 171.552 62.734 171.552C62.6359 171.552 62.5418 171.591 62.4724 171.66C62.403 171.729 62.364 171.824 62.364 171.922V180.144H54.128C54.0299 180.144 53.9358 180.183 53.8664 180.252C53.797 180.321 53.758 180.416 53.758 180.514C53.758 180.612 53.797 180.706 53.8664 180.775C53.9358 180.845 54.0299 180.884 54.128 180.884H62.352V189.118C62.352 189.216 62.391 189.31 62.4604 189.379C62.5298 189.449 62.6239 189.488 62.722 189.488C62.8201 189.488 62.9142 189.449 62.9836 189.379C63.053 189.31 63.092 189.216 63.092 189.118V180.898H71.328C71.4261 180.897 71.5201 180.858 71.5893 180.789C71.6585 180.719 71.6973 180.625 71.697 180.527C71.6967 180.429 71.6575 180.335 71.5879 180.265C71.5183 180.196 71.4241 180.157 71.326 180.158Z" fill="#1890ff"/>
<path d="M366.65 146.376C366.557 145.315 366.781 144.251 367.293 143.318C367.805 142.384 368.582 141.624 369.526 141.132C370.47 140.641 371.539 140.44 372.597 140.556C373.655 140.672 374.656 141.099 375.471 141.783C376.286 142.467 376.881 143.378 377.178 144.4C377.476 145.422 377.464 146.51 377.144 147.525C376.824 148.54 376.21 149.437 375.38 150.104C374.55 150.77 373.54 151.175 372.48 151.268C371.776 151.329 371.067 151.252 370.393 151.039C369.718 150.827 369.093 150.484 368.551 150.03C368.01 149.575 367.563 149.019 367.237 148.392C366.911 147.765 366.711 147.08 366.65 146.376ZM371.608 141.294C370.695 141.374 369.827 141.723 369.113 142.296C368.399 142.87 367.871 143.643 367.596 144.516C367.321 145.39 367.311 146.326 367.568 147.205C367.826 148.084 368.338 148.868 369.04 149.456C369.742 150.044 370.603 150.41 371.514 150.509C372.425 150.608 373.344 150.434 374.156 150.01C374.968 149.585 375.636 148.93 376.075 148.126C376.515 147.322 376.706 146.406 376.624 145.494C376.57 144.888 376.398 144.298 376.116 143.759C375.835 143.22 375.45 142.742 374.983 142.352C374.516 141.962 373.977 141.667 373.397 141.486C372.816 141.304 372.206 141.239 371.6 141.294H371.608Z" fill="#1890ff"/>
<path d="M249.464 77.8976L253.488 68.9396H246.324C246.261 68.9349 246.201 68.9156 246.147 68.8832C246.094 68.8508 246.048 68.8062 246.015 68.7531C245.982 68.6999 245.961 68.6397 245.956 68.5773C245.95 68.5148 245.959 68.4519 245.982 68.3936L250.244 58.9256C250.264 58.8806 250.293 58.84 250.329 58.8062C250.365 58.7723 250.408 58.7459 250.454 58.7285C250.5 58.711 250.55 58.7028 250.599 58.7044C250.648 58.706 250.697 58.7173 250.742 58.7376C250.787 58.758 250.828 58.787 250.861 58.823C250.895 58.8591 250.922 58.9014 250.939 58.9477C250.957 58.9939 250.965 59.0432 250.963 59.0926C250.962 59.142 250.95 59.1906 250.93 59.2356L246.906 68.1916C251.632 68.1916 253.306 68.1616 253.94 68.1916C254.404 68.2196 254.54 68.3616 254.356 68.8336C254.086 69.5416 253.116 71.6016 250.156 78.1976C250.136 78.2431 250.108 78.2842 250.072 78.3186C250.037 78.3531 249.995 78.3801 249.949 78.3983C249.903 78.4165 249.853 78.4255 249.804 78.4247C249.754 78.4239 249.705 78.4133 249.66 78.3936C249.615 78.3739 249.573 78.3455 249.539 78.3099C249.505 78.2743 249.477 78.2323 249.459 78.1862C249.441 78.1402 249.432 78.091 249.433 78.0414C249.434 77.9919 249.444 77.9431 249.464 77.8976Z" fill="#1890ff"/>
<path d="M124.428 126.65C124.888 127.016 125.434 127.257 126.014 127.352C126.814 127.458 126.988 126.78 127.048 125.972C127.108 125.164 126.812 125.314 126.634 125.342C126.582 125.352 124.634 126.07 124.53 126.142C124.45 126.196 124.395 126.28 124.376 126.375C124.357 126.47 124.376 126.568 124.428 126.65Z" fill="#1890ff"/>
<path d="M141.766 212.9C136.476 226.05 136.778 225.134 136.94 225.374C137.102 225.614 136.984 225.538 140.34 225.538C140.43 225.538 140.518 225.505 140.586 225.446C140.654 225.387 140.699 225.305 140.712 225.216L142.476 213.094C142.481 213.007 142.457 212.922 142.406 212.852C142.356 212.782 142.283 212.731 142.2 212.708C142.117 212.685 142.028 212.692 141.949 212.727C141.87 212.762 141.805 212.823 141.766 212.9Z" fill="#1890ff"/>
<path d="M86.726 266.056L95.526 270.99C99.6057 273.253 104.358 273.99 108.932 273.068C113.505 272.147 117.601 269.627 120.486 265.96C120.516 265.92 120.539 265.875 120.552 265.827C120.565 265.779 120.568 265.729 120.561 265.68C120.555 265.63 120.539 265.583 120.514 265.54C120.489 265.497 120.456 265.459 120.417 265.429C120.378 265.398 120.333 265.376 120.285 265.363C120.237 265.35 120.187 265.347 120.137 265.353C120.088 265.36 120.04 265.376 119.997 265.4C119.954 265.425 119.916 265.458 119.886 265.498C117.113 269.024 113.174 271.448 108.776 272.334C104.378 273.22 99.8085 272.511 95.886 270.334L87.086 265.4C87.0002 265.363 86.9039 265.36 86.8157 265.39C86.7276 265.421 86.654 265.483 86.6091 265.565C86.5642 265.646 86.5513 265.742 86.5729 265.833C86.5946 265.923 86.6491 266.003 86.726 266.056Z" fill="#1890ff"/>
<path d="M216.424 176.772C216.06 176.036 214.976 175.938 213.524 176.51C211.598 177.182 209.637 177.749 207.65 178.208C209.366 177.264 213.816 174.824 212.874 173.116C211.714 171.014 207.744 174.96 198.01 176.77C201.21 172.612 202.41 170.1 201.564 169.302C200.776 168.558 198.676 169.668 195.318 172.608C191.935 175.496 187.817 177.391 183.422 178.082C183.198 177.603 182.93 177.146 182.622 176.718C182.388 176.578 183.512 176.45 155.668 181.252C152.498 171.598 150.712 163.466 149.018 158.78L158.8 173.136C159.012 173.446 157.426 173.596 186.144 168.644V167.882L159.284 172.514C146.41 153.61 146.2 153.182 146 153.03C143.302 149.714 139.242 148.112 131.944 147.042C131.699 145.237 131.87 143.401 132.446 141.674C133.191 141.953 133.975 142.115 134.77 142.154C135.406 142.155 136.033 141.997 136.592 141.693C137.151 141.389 137.625 140.95 137.97 140.416C140.598 136.718 139.94 127.54 136.64 121.884C136.59 121.797 136.507 121.735 136.41 121.709C136.314 121.684 136.211 121.698 136.125 121.749C136.039 121.799 135.976 121.882 135.951 121.978C135.926 122.075 135.94 122.177 135.99 122.264C139.92 129 140.164 142.524 134.05 141.33L132.304 140.854C131.27 140.368 130.268 139.818 129.304 139.206C129.104 139.092 128.6 139.224 128.728 139.63C128.792 139.83 129.528 141.03 131.192 143.894C130.99 144.881 130.964 145.897 131.116 146.894L123.854 145.604C126.356 137.604 126.216 136.604 124.95 130.632C124.935 130.562 124.9 130.498 124.85 130.447C124.8 130.396 124.737 130.36 124.668 130.344C124.266 130.273 123.882 130.122 123.538 129.901C123.195 129.68 122.899 129.392 122.668 129.056C122.088 128.104 122.54 127.606 122.364 127.256L122.32 127.198C122.048 126.96 121.94 127.092 120.92 127.478C120.83 127.516 120.759 127.588 120.72 127.678C120.46 128.434 124.052 136.232 124.92 138.66C124.108 142.347 123.076 145.982 121.83 149.546C118.021 161.92 117.348 175.047 119.872 187.746C118.66 189.146 109.198 200.346 107.508 213.222C107.044 216.74 106.352 220.73 105.444 225.082C105.428 225.178 105.449 225.276 105.504 225.357C105.559 225.437 105.643 225.493 105.739 225.513C105.834 225.533 105.933 225.514 106.016 225.462C106.098 225.41 106.157 225.328 106.18 225.234C107.092 220.864 107.78 216.856 108.254 213.32C109.922 200.612 119.326 189.52 120.454 188.23H135.142L137.742 196.078C138.6 198.67 140.278 200.913 142.523 202.468C144.768 204.022 147.458 204.804 150.186 204.696C162.058 226.696 161.286 225.496 161.634 225.496C161.699 225.496 161.763 225.479 161.82 225.447C161.876 225.415 161.924 225.369 161.957 225.313C161.991 225.257 162.009 225.193 162.011 225.128C162.012 225.063 161.997 224.999 161.966 224.942L150.98 204.638C151.432 204.59 186.226 197.72 186.428 197.548C186.678 196.802 186.824 196.025 186.862 195.24C194.98 193.909 202.983 191.954 210.8 189.392C212.648 188.722 213.642 187.86 213.456 187.084C213.36 186.684 212.89 186.062 210.808 186.32C210.358 186.376 209.872 186.412 209.31 186.438C210.822 186.003 212.308 185.485 213.762 184.884C217.574 183.246 216.684 180.67 213.35 181.484C212.646 181.654 211.256 181.934 209.578 182.202C211.209 181.513 212.797 180.729 214.334 179.852C216.024 178.826 216.844 177.622 216.424 176.772ZM185.856 196.952L151.968 203.728C149.138 204.292 146.199 203.803 143.705 202.351C141.211 200.899 139.334 198.585 138.428 195.846L130.356 171.396C130.324 171.301 130.257 171.223 130.168 171.179C130.079 171.135 129.976 171.127 129.882 171.158C129.787 171.189 129.709 171.257 129.664 171.345C129.619 171.434 129.611 171.537 129.642 171.632L134.874 187.482H120.57C118.099 174.944 118.774 161.99 122.534 149.778C122.858 148.724 123.616 146.334 123.616 146.334L131.616 147.756C138.958 148.814 142.886 150.322 145.476 153.582L146.566 155.182C149.458 160.126 150.546 168.14 155.056 181.804C155.081 181.879 155.129 181.944 155.193 181.99C155.258 182.037 155.335 182.062 155.414 182.062C155.614 182.062 157.44 181.718 182.214 177.446C185.477 183.393 186.754 190.228 185.856 196.952ZM202.6 184.168C202.517 184.197 202.447 184.255 202.402 184.332C202.358 184.408 202.341 184.497 202.356 184.585C202.371 184.672 202.416 184.751 202.483 184.808C202.55 184.865 202.636 184.897 202.724 184.898C202.962 184.898 206.524 183.476 206.936 183.298C209.155 183.053 211.358 182.685 213.536 182.196C214.818 181.886 215.418 182.142 215.496 182.376C216.118 184.244 205.046 186.84 203.096 187.232C203.003 187.256 202.923 187.315 202.872 187.396C202.822 187.478 202.804 187.575 202.823 187.669C202.842 187.763 202.896 187.847 202.974 187.902C203.052 187.958 203.149 187.981 203.244 187.968C206.004 187.412 206.192 187.21 206.394 187.244C207.902 187.259 209.41 187.197 210.912 187.056C212.338 186.88 212.712 187.182 212.736 187.256C212.772 187.408 212.304 188.056 210.556 188.682C202.843 191.217 194.945 193.15 186.932 194.462C187.117 189.068 186.038 183.706 183.782 178.804C188.229 178.043 192.388 176.097 195.822 173.172C199.594 169.868 200.908 169.71 201.054 169.846C201.27 170.046 200.986 171.772 197.006 176.846C196.981 176.879 196.961 176.916 196.948 176.956C196.2 177.076 195.429 177.178 194.634 177.264C194.585 177.269 194.537 177.284 194.494 177.307C194.451 177.331 194.412 177.363 194.381 177.401C194.35 177.44 194.327 177.484 194.313 177.531C194.299 177.579 194.295 177.628 194.3 177.678C194.305 177.727 194.32 177.774 194.344 177.818C194.367 177.861 194.399 177.899 194.438 177.93C194.476 177.961 194.52 177.985 194.568 177.998C194.615 178.012 194.665 178.017 194.714 178.012C205.838 176.832 211.49 172.148 212.222 173.48C212.338 173.68 212.092 174.46 210.6 175.512C207.923 177.314 205.065 178.834 202.074 180.046C201.984 180.085 201.914 180.158 201.877 180.249C201.84 180.34 201.84 180.441 201.877 180.532C201.914 180.622 201.985 180.695 202.075 180.734C202.165 180.773 202.266 180.776 202.358 180.742C203.12 180.432 203.994 180.048 204.92 179.608C207.931 178.994 210.9 178.193 213.81 177.208C215.03 176.724 215.652 176.886 215.758 177.102C215.912 177.416 215.448 178.302 213.958 179.194C210.3 181.131 206.504 182.793 202.6 184.168Z" fill="#1890ff"/>
<path d="M389.626 341.792H185.346C185.6 341.431 185.71 340.988 185.653 340.55C185.597 340.112 185.378 339.712 185.04 339.428C181.574 336.484 172.64 329.404 164.22 326.884L165.918 315.13C167.09 314.964 168.292 314.752 169.506 314.494C169.906 314.37 169.306 317.068 177.428 269.328C177.629 268.144 177.769 266.951 177.848 265.754C177.852 265.656 177.817 265.561 177.751 265.488C177.686 265.415 177.595 265.371 177.497 265.365C177.4 265.358 177.303 265.39 177.229 265.453C177.154 265.516 177.107 265.606 177.098 265.704C176.93 268.224 177.068 266.946 171.186 301.504C162.458 302.477 153.623 301.427 145.366 298.434L148.91 265.808C148.916 265.759 148.911 265.709 148.898 265.662C148.884 265.614 148.861 265.57 148.83 265.532C148.799 265.493 148.761 265.461 148.718 265.437C148.675 265.414 148.627 265.399 148.578 265.394C148.479 265.385 148.381 265.415 148.303 265.477C148.226 265.539 148.175 265.629 148.162 265.728C142.904 314.062 143.19 310.844 143.362 311.044C144.196 311.589 145.065 312.081 145.962 312.516L143.642 327.09C142.29 330.951 141.463 334.977 141.184 339.06C141.151 339.588 141.255 340.116 141.485 340.593C141.715 341.07 142.064 341.48 142.498 341.784H45.6C45.322 341.784 44.836 342.648 45.734 342.65C50.568 342.668 90.108 342.536 389.626 342.536C389.715 342.522 389.797 342.478 389.856 342.409C389.915 342.341 389.947 342.254 389.947 342.164C389.947 342.073 389.915 341.986 389.856 341.918C389.797 341.85 389.715 341.805 389.626 341.792ZM171.054 302.282L169.09 313.812C159.264 315.85 150.838 314.772 144.044 310.612L145.282 299.212C153.529 302.175 162.342 303.225 171.054 302.282ZM165.144 315.232L163.454 326.924C157.231 328.63 150.663 328.63 144.44 326.924L146.682 312.862C152.496 315.354 158.889 316.174 165.144 315.232Z" fill="#1890ff"/>
<path d="M133.278 198.2C129.745 203.217 124.551 206.823 118.616 208.38C118.521 208.41 118.442 208.477 118.396 208.566C118.35 208.655 118.342 208.758 118.372 208.854C118.403 208.949 118.47 209.028 118.558 209.074C118.647 209.12 118.751 209.128 118.846 209.098C125.81 206.876 130.878 203.346 133.912 198.606C133.939 198.564 133.957 198.518 133.966 198.469C133.974 198.42 133.973 198.37 133.963 198.322C133.952 198.274 133.932 198.228 133.904 198.187C133.876 198.147 133.84 198.112 133.798 198.086C133.756 198.059 133.71 198.041 133.661 198.032C133.613 198.023 133.563 198.024 133.514 198.035C133.466 198.045 133.42 198.065 133.38 198.094C133.339 198.122 133.305 198.158 133.278 198.2Z" fill="#1890ff"/>
<path d="M363.15 212.462C363.579 212.392 363.968 212.167 364.242 211.83C364.516 211.492 364.657 211.066 364.638 210.632C364.622 210.14 364.416 209.674 364.062 209.332C363.709 208.99 363.237 208.799 362.745 208.799C362.253 208.799 361.781 208.99 361.428 209.332C361.074 209.674 360.868 210.14 360.852 210.632C360.833 211.076 360.981 211.512 361.267 211.852C361.553 212.193 361.957 212.414 362.398 212.472V224.786H75.672V212.45C76.0886 212.368 76.4621 212.14 76.7245 211.806C76.987 211.473 77.1209 211.056 77.102 210.632C77.086 210.14 76.8796 209.674 76.5263 209.332C76.1731 208.99 75.7007 208.799 75.209 208.799C74.7173 208.799 74.2449 208.99 73.8917 209.332C73.5384 209.674 73.332 210.14 73.316 210.632C73.2963 211.086 73.4511 211.53 73.7486 211.874C74.0461 212.217 74.4638 212.434 74.916 212.48V342.17C74.916 342.269 74.9556 342.365 75.0261 342.436C75.0966 342.506 75.1923 342.546 75.292 342.546C75.3917 342.546 75.4874 342.506 75.5579 342.436C75.6284 342.365 75.668 342.269 75.668 342.17V266.104H362.4V342.17C362.4 342.269 362.44 342.365 362.51 342.436C362.581 342.506 362.676 342.546 362.776 342.546C362.876 342.546 362.971 342.506 363.042 342.436C363.112 342.365 363.152 342.269 363.152 342.17L363.15 212.462ZM362.4 239.682L333.868 225.532H362.4V239.682ZM75.672 265.352V250.34L105.936 265.352H75.672ZM144.272 265.352L75.672 231.326V225.538H93.128L173.4 265.352H144.272ZM211.74 265.352L131.46 225.538H160.6L240.882 265.352H211.74ZM279.204 265.352L198.93 225.538H228.06L308.34 265.352H279.204ZM362.404 265.352H346.68L266.4 225.538H295.53L362.4 258.704L362.404 265.352Z" fill="#1890ff"/>
<path d="M142.038 118.482C141.868 118.309 141.654 118.184 141.42 118.122C141.185 118.059 140.938 118.06 140.704 118.126L137.158 119.458C136.644 118.322 135.906 117.301 134.989 116.457C134.071 115.613 132.993 114.963 131.818 114.546C131.997 114.294 132.111 114.003 132.15 113.697C132.19 113.391 132.153 113.081 132.044 112.792C131.935 112.504 131.756 112.247 131.523 112.044C131.291 111.841 131.012 111.699 130.712 111.63C128.421 111.172 126.048 111.35 123.85 112.144C121.859 112.867 120.084 114.084 118.69 115.68C118.495 115.903 118.356 116.169 118.284 116.457C118.212 116.744 118.209 117.045 118.276 117.333C118.343 117.622 118.478 117.891 118.669 118.117C118.86 118.343 119.103 118.521 119.376 118.636C118.34 120.1 117.709 121.812 117.545 123.598C117.381 125.385 117.69 127.183 118.442 128.812C118.47 128.881 118.519 128.94 118.581 128.981C118.643 129.023 118.715 129.045 118.79 129.046C118.99 129.026 142.59 119.964 141.54 120.382C141.724 120.319 141.891 120.212 142.023 120.07C142.156 119.927 142.251 119.754 142.301 119.566C142.35 119.377 142.352 119.18 142.306 118.991C142.26 118.801 142.168 118.626 142.038 118.482Z" fill="#1890ff"/>
</svg>
