<svg width="400" height="401" viewBox="0 0 400 401" fill="none" xmlns="http://www.w3.org/2000/svg">
<path d="M283.78 313.142C295.98 326.582 315.6 333.142 325.62 345.582C312.14 345.322 284.34 340.642 271.78 335.582C269.02 330.442 270.46 327.982 262.68 317.142C269.812 316.395 276.87 315.057 283.78 313.142Z" fill="#FFE7EA"/>
<path d="M95.84 276.682C75.84 278.682 75.28 298.922 55.58 308.142C58.44 294.302 64 273.022 72 255.882C80.2763 257.505 88.7112 258.176 97.14 257.882C95.7581 264.046 95.3197 270.385 95.84 276.682Z" fill="#FFE7EA"/>
<path d="M211.6 172.402C211.121 168.661 210.352 164.963 209.3 161.342C204.893 164.008 199.902 165.559 194.76 165.862C195.961 169.261 196.851 172.762 197.42 176.322L206.24 180.202L211.6 172.402Z" fill="#FFE7EA"/>
<path d="M224.9 282.342L140.3 321.102C138.445 321.954 136.44 322.432 134.4 322.509C132.359 322.585 130.324 322.258 128.411 321.546C126.497 320.835 124.743 319.753 123.248 318.362C121.753 316.971 120.547 315.299 119.7 313.442L110.88 294.162C110.838 294.069 110.76 293.997 110.664 293.961C110.569 293.925 110.463 293.929 110.37 293.972C110.277 294.014 110.205 294.092 110.169 294.187C110.134 294.283 110.138 294.389 110.18 294.482L119.02 313.762C119.912 315.706 121.179 317.455 122.748 318.91C124.316 320.364 126.156 321.495 128.162 322.238C130.168 322.981 132.301 323.321 134.438 323.24C136.576 323.158 138.677 322.656 140.62 321.762C140.82 321.662 142.74 320.602 225.22 283.022C225.296 282.971 225.351 282.895 225.375 282.807C225.399 282.72 225.391 282.626 225.353 282.544C225.314 282.462 225.247 282.396 225.164 282.359C225.081 282.322 224.987 282.316 224.9 282.342Z" fill="#1890ff"/>
<path d="M344.56 210.442L293.38 98.6817C293.364 98.6293 293.338 98.5809 293.301 98.5398C293.265 98.4987 293.221 98.4659 293.171 98.4436C293.121 98.4213 293.067 98.41 293.012 98.4105C292.958 98.4111 292.904 98.4234 292.854 98.4467C292.805 98.47 292.761 98.5037 292.726 98.5455C292.69 98.5873 292.664 98.6362 292.65 98.6889C292.635 98.7415 292.632 98.7968 292.641 98.8508C292.649 98.9048 292.67 98.9562 292.7 99.0017L343.88 210.682C345.591 214.43 345.745 218.704 344.309 222.565C342.873 226.427 339.964 229.562 336.22 231.282L263.46 264.682C263.384 264.72 263.323 264.782 263.286 264.858C263.25 264.935 263.24 265.021 263.259 265.104C263.277 265.187 263.323 265.261 263.388 265.315C263.454 265.369 263.535 265.4 263.62 265.402C263.82 265.402 261 266.642 336.54 232.042C340.463 230.235 343.51 226.947 345.013 222.899C346.516 218.85 346.353 214.371 344.56 210.442Z" fill="#1890ff"/>
<path d="M277.44 78.3617C273.821 77.4383 269.995 77.7843 266.6 79.3417L211.76 104.442L211.52 105.382L266.9 80.0217C270.138 78.5357 273.79 78.2108 277.24 79.1017C277.289 79.1148 277.339 79.1183 277.389 79.1118C277.439 79.1054 277.487 79.0891 277.531 79.064C277.575 79.039 277.613 79.0056 277.644 78.9657C277.674 78.9258 277.697 78.8803 277.71 78.8317C277.723 78.7831 277.727 78.7324 277.72 78.6825C277.714 78.6326 277.697 78.5844 277.672 78.5408C277.647 78.4971 277.614 78.4589 277.574 78.4281C277.534 78.3974 277.489 78.3748 277.44 78.3617Z" fill="#1890ff"/>
<path d="M132 141.022L90.82 159.842C90.7646 159.853 90.7124 159.877 90.6673 159.911C90.6222 159.946 90.5854 159.99 90.5595 160.04C90.5336 160.09 90.5193 160.146 90.5176 160.202C90.5159 160.259 90.5269 160.315 90.5497 160.367C90.5726 160.419 90.6067 160.465 90.6497 160.502C90.6927 160.539 90.7433 160.566 90.798 160.58C90.8526 160.595 90.9099 160.598 90.9657 160.588C91.0214 160.577 91.0741 160.555 91.12 160.522L132.56 141.542L132 141.022Z" fill="#1890ff"/>
<path d="M94.24 257.842L63.32 190.342C61.6156 186.596 61.4647 182.327 62.9003 178.47C64.3359 174.613 67.2411 171.482 70.98 169.762L74.98 167.902C75.0728 167.859 75.145 167.782 75.1806 167.686C75.2163 167.59 75.2124 167.484 75.17 167.392C75.1276 167.299 75.05 167.227 74.9544 167.191C74.8587 167.155 74.7528 167.159 74.66 167.202L70.66 169.062C66.7408 170.872 63.6985 174.161 62.1991 178.209C60.6997 182.258 60.8655 186.735 62.66 190.662L93.56 258.142C93.611 258.212 93.6846 258.263 93.7686 258.286C93.8525 258.309 93.9418 258.302 94.0214 258.267C94.1009 258.232 94.1661 258.17 94.2059 258.093C94.2457 258.016 94.2577 257.927 94.24 257.842Z" fill="#1890ff"/>
<path d="M262.14 208.202L260 203.562C259.798 203.092 259.505 202.667 259.137 202.311C258.769 201.956 258.335 201.677 257.858 201.491C257.382 201.305 256.873 201.215 256.362 201.227C255.851 201.24 255.347 201.353 254.88 201.562L232.88 211.662C232.804 211.7 232.743 211.762 232.706 211.838C232.67 211.915 232.66 212.001 232.679 212.084C232.697 212.167 232.743 212.241 232.808 212.295C232.874 212.349 232.955 212.38 233.04 212.382C233.24 212.382 232.5 212.602 255.24 202.242C255.994 201.901 256.851 201.872 257.627 202.161C258.402 202.449 259.032 203.032 259.38 203.782L261.5 208.422C261.691 208.798 261.805 209.209 261.832 209.631C261.86 210.052 261.802 210.475 261.662 210.873C261.522 211.271 261.302 211.637 261.017 211.948C260.731 212.259 260.385 212.508 260 212.682L238.42 222.562C238.327 222.601 238.254 222.676 238.216 222.77C238.179 222.864 238.18 222.969 238.22 223.062C238.26 223.155 238.335 223.228 238.429 223.265C238.522 223.303 238.627 223.301 238.72 223.262L260.32 213.262C261.222 212.821 261.916 212.045 262.256 211.101C262.596 210.156 262.554 209.116 262.14 208.202Z" fill="#1890ff"/>
<path d="M194.46 243.422C194.375 243.42 194.294 243.389 194.228 243.335C194.163 243.281 194.117 243.207 194.099 243.124C194.08 243.041 194.09 242.955 194.126 242.878C194.163 242.802 194.224 242.739 194.3 242.702L203.84 238.322C203.885 238.291 203.937 238.271 203.991 238.262C204.045 238.254 204.1 238.257 204.153 238.271C204.206 238.286 204.254 238.312 204.296 238.347C204.338 238.382 204.372 238.426 204.395 238.476C204.418 238.525 204.431 238.579 204.431 238.634C204.432 238.689 204.42 238.743 204.398 238.793C204.376 238.843 204.343 238.887 204.302 238.923C204.261 238.959 204.212 238.986 204.16 239.002C194.8 243.282 194.66 243.422 194.46 243.422Z" fill="#1890ff"/>
<path d="M213.38 136.682C216.66 145.322 219.22 151.782 220.36 159.582C220.36 159.582 262.78 143.142 282.36 108.802C278.303 102.583 272.569 97.6388 265.82 94.5416C243.74 122.002 225.54 132.442 213.38 136.682Z" fill="#FFE7EA"/>
<path d="M181.24 145.702C182.479 144.977 183.555 144.003 184.4 142.842C189.98 142.642 194.72 141.542 197.5 138.302C199.393 139.098 201.472 139.348 203.5 139.022C205.684 143.421 207.394 148.04 208.6 152.802C203.98 156.802 197.34 158.522 188.6 159.042C186.392 154.464 183.935 150.011 181.24 145.702Z" fill="#FFE7EA"/>
<path d="M109.3 186.682C131.42 185.842 159.82 182.262 181.3 174.682C178.307 166.385 174.523 158.394 170 150.822C153.66 157.022 140.32 157.022 107.06 159.322C114.68 158.682 116.96 185.542 109.3 186.682Z" fill="#FFE7EA"/>
<path d="M321.58 209.542C320.981 208.233 320.012 207.128 318.794 206.361C317.576 205.594 316.161 205.2 314.722 205.225C313.282 205.251 311.882 205.695 310.692 206.504C309.501 207.314 308.573 208.453 308.02 209.782C306.245 209.195 304.314 209.303 302.615 210.082C300.915 210.861 299.574 212.254 298.86 213.982C297.492 213.531 296.023 213.489 294.631 213.861C293.24 214.233 291.988 215.003 291.028 216.077C290.067 217.15 289.442 218.48 289.226 219.904C289.011 221.328 289.216 222.784 289.817 224.093C290.417 225.403 291.386 226.508 292.605 227.275C293.824 228.041 295.241 228.435 296.681 228.408C298.121 228.382 299.521 227.935 300.711 227.124C301.901 226.313 302.829 225.172 303.38 223.842C305.155 224.428 307.086 224.321 308.785 223.542C310.485 222.763 311.826 221.369 312.54 219.642C313.906 220.09 315.373 220.13 316.762 219.758C318.151 219.386 319.401 218.617 320.36 217.545C321.319 216.474 321.945 215.147 322.162 213.725C322.378 212.304 322.176 210.85 321.58 209.542ZM299.3 227.062C298.314 227.514 297.233 227.719 296.15 227.659C295.067 227.598 294.015 227.274 293.086 226.715C292.157 226.155 291.378 225.377 290.818 224.448C290.258 223.519 289.933 222.468 289.872 221.385C289.811 220.302 290.015 219.221 290.467 218.235C290.919 217.248 291.605 216.388 292.465 215.727C293.325 215.066 294.334 214.626 295.403 214.444C296.472 214.261 297.57 214.343 298.6 214.682C298.075 216.395 298.191 218.241 298.927 219.875C299.663 221.509 300.969 222.82 302.6 223.562C301.976 225.1 300.799 226.349 299.3 227.062ZM321.1 214.942C320.499 216.554 319.297 217.871 317.746 218.617C316.194 219.363 314.415 219.479 312.78 218.942C313.305 217.228 313.189 215.382 312.453 213.748C311.717 212.114 310.411 210.804 308.78 210.062C309.479 208.495 310.755 207.258 312.343 206.609C313.932 205.96 315.709 205.949 317.305 206.578C318.901 207.208 320.193 208.428 320.911 209.986C321.629 211.544 321.718 213.319 321.16 214.942H321.1Z" fill="#1890ff"/>
<path d="M143.16 217.542L137.16 204.462C136.589 203.213 135.777 202.089 134.771 201.155C133.764 200.22 132.584 199.494 131.296 199.016C130.009 198.539 128.64 198.32 127.268 198.372C125.896 198.425 124.547 198.747 123.3 199.322L104.56 207.882C102.042 209.039 100.086 211.149 99.1223 213.748C98.1586 216.347 98.2657 219.222 99.42 221.742L105.42 234.842C106.578 237.36 108.688 239.316 111.287 240.279C113.885 241.243 116.76 241.136 119.28 239.982L138 231.402C140.522 230.247 142.482 228.139 143.45 225.54C144.417 222.941 144.313 220.064 143.16 217.542ZM137.7 230.682L118.96 239.262C117.803 239.792 116.553 240.089 115.282 240.136C114.01 240.182 112.741 239.978 111.549 239.534C110.356 239.09 109.263 238.415 108.331 237.548C107.4 236.681 106.648 235.639 106.12 234.482L100.12 221.402C99.0919 219.078 99.0167 216.443 99.9105 214.065C100.804 211.686 102.596 209.753 104.9 208.682L123.62 200.102C124.778 199.571 126.03 199.274 127.303 199.227C128.576 199.18 129.846 199.384 131.04 199.828C132.234 200.272 133.329 200.946 134.263 201.814C135.196 202.681 135.95 203.723 136.48 204.882L142.48 217.962C143.503 220.286 143.575 222.918 142.682 225.296C141.789 227.673 140 229.606 137.7 230.682Z" fill="#1890ff"/>
<path d="M310.78 185.922L308.66 181.302C308.456 180.831 308.161 180.406 307.791 180.05C307.422 179.694 306.985 179.415 306.507 179.229C306.029 179.043 305.519 178.954 305.006 178.966C304.494 178.979 303.988 179.093 303.52 179.302L268.2 195.562C267.739 195.773 267.324 196.073 266.979 196.445C266.634 196.816 266.365 197.252 266.189 197.728C266.013 198.203 265.932 198.709 265.951 199.216C265.97 199.723 266.088 200.221 266.3 200.682L268.42 205.322C268.73 205.995 269.226 206.566 269.849 206.967C270.473 207.367 271.199 207.581 271.94 207.582C273.14 207.582 270.6 208.562 308.88 191.042C309.808 190.611 310.528 189.831 310.883 188.873C311.239 187.914 311.202 186.853 310.78 185.922ZM308.56 190.362L273.24 206.542C272.869 206.712 272.467 206.808 272.059 206.823C271.65 206.838 271.243 206.772 270.86 206.629C270.477 206.486 270.126 206.268 269.827 205.989C269.529 205.71 269.288 205.374 269.12 205.002L266.98 200.382C266.809 200.009 266.713 199.606 266.698 199.196C266.682 198.786 266.748 198.377 266.891 197.992C267.034 197.608 267.252 197.255 267.531 196.955C267.811 196.654 268.147 196.412 268.52 196.242L303.84 180.062C304.211 179.891 304.613 179.795 305.022 179.78C305.43 179.765 305.838 179.831 306.22 179.974C306.603 180.118 306.954 180.335 307.253 180.614C307.551 180.894 307.792 181.229 307.96 181.602L310.1 186.242C310.439 186.993 310.468 187.847 310.18 188.619C309.891 189.391 309.309 190.017 308.56 190.362Z" fill="#1890ff"/>
<path d="M390 148.682C389.532 147.622 388.749 146.731 387.758 146.131C386.768 145.53 385.616 145.247 384.46 145.322L377.78 95.9817L388.18 91.4017C388.25 91.3507 388.301 91.2771 388.324 91.1932C388.347 91.1092 388.34 91.02 388.305 90.9404C388.27 90.8608 388.209 90.7956 388.131 90.7558C388.054 90.716 387.965 90.704 387.88 90.7217L377.22 95.4017C377.149 95.4401 377.09 95.4982 377.051 95.5692C377.012 95.6402 376.994 95.7209 377 95.8017L379.18 111.802C324.48 135.942 328 134.302 328 134.682C328 135.062 327.08 133.962 343.7 150.302C343.94 150.542 341.26 151.302 382.64 137.942L383.68 145.522C382.887 145.683 382.137 146.014 381.483 146.491C380.829 146.968 380.285 147.58 379.888 148.286C379.492 148.992 379.252 149.775 379.185 150.581C379.118 151.388 379.225 152.2 379.5 152.962L360.58 161.322C359.902 160.024 358.747 159.041 357.358 158.58C355.969 158.119 354.455 158.216 353.136 158.851C351.817 159.486 350.796 160.608 350.29 161.981C349.783 163.354 349.83 164.871 350.421 166.21C351.012 167.549 352.1 168.606 353.456 169.157C354.811 169.709 356.328 169.712 357.686 169.166C359.044 168.619 360.136 167.567 360.732 166.23C361.328 164.893 361.381 163.377 360.88 162.002L379.82 153.662C380.48 155.012 381.65 156.044 383.072 156.532C384.493 157.019 386.05 156.922 387.4 156.262C388.75 155.601 389.782 154.432 390.27 153.01C390.757 151.589 390.66 150.032 390 148.682ZM344 149.522L328.98 134.802L379.18 112.682L382.48 137.122L344 149.522ZM360 165.522C359.708 166.268 359.237 166.931 358.627 167.453C358.018 167.974 357.29 168.337 356.507 168.509C355.724 168.682 354.911 168.659 354.139 168.443C353.367 168.227 352.66 167.824 352.081 167.27C351.502 166.715 351.068 166.027 350.818 165.265C350.569 164.503 350.51 163.692 350.648 162.902C350.787 162.113 351.117 161.369 351.611 160.738C352.105 160.106 352.747 159.606 353.48 159.282C354.374 158.885 355.367 158.765 356.33 158.937C357.292 159.109 358.182 159.566 358.883 160.248C359.584 160.93 360.066 161.806 360.265 162.764C360.464 163.721 360.372 164.717 360 165.622V165.522ZM386.64 155.322C385.757 155.715 384.778 155.838 383.826 155.674C382.873 155.511 381.991 155.068 381.29 154.402C380.59 153.737 380.103 152.878 379.891 151.935C379.679 150.992 379.752 150.008 380.1 149.106C380.448 148.205 381.056 147.427 381.847 146.872C382.638 146.316 383.575 146.008 384.542 145.986C385.508 145.964 386.458 146.23 387.274 146.749C388.089 147.268 388.731 148.017 389.12 148.902C389.398 149.486 389.556 150.12 389.585 150.767C389.615 151.413 389.515 152.059 389.291 152.666C389.068 153.274 388.725 153.83 388.284 154.303C387.842 154.777 387.31 155.157 386.72 155.422L386.64 155.322Z" fill="#1890ff"/>
<path d="M212 172.382C211.515 168.614 210.74 164.89 209.68 161.242C209.26 159.802 207.8 164.102 194.74 165.502C194.683 165.507 194.629 165.525 194.58 165.555C194.532 165.585 194.492 165.626 194.462 165.675C194.433 165.724 194.416 165.779 194.412 165.836C194.408 165.892 194.418 165.949 194.44 166.002C195.625 169.369 196.502 172.836 197.06 176.362C197.065 176.422 197.087 176.48 197.122 176.529C197.157 176.578 197.205 176.617 197.26 176.642L206.1 180.642C206.181 180.675 206.271 180.679 206.355 180.654C206.439 180.628 206.511 180.574 206.56 180.502C212.32 172.002 212 172.682 212 172.382ZM206.12 179.742L197.78 176.062C197.241 172.703 196.411 169.397 195.3 166.182C200.164 165.843 204.885 164.392 209.1 161.942C210.064 165.338 210.78 168.801 211.24 172.302L206.12 179.742Z" fill="#1890ff"/>
<path d="M61.84 94.7817C61.3668 93.7359 61.2145 92.5732 61.4025 91.4409C61.5904 90.3085 62.1101 89.2574 62.8958 88.4206C63.6815 87.5838 64.6978 86.9989 65.8161 86.74C66.9344 86.4811 68.1043 86.5599 69.1778 86.9663C70.2513 87.3727 71.18 88.0885 71.8465 89.0231C72.5129 89.9576 72.8871 91.0689 72.9216 92.2162C72.9561 93.3636 72.6494 94.4953 72.0403 95.4683C71.4312 96.4412 70.5471 97.2115 69.5 97.6817C68.0994 98.3106 66.5065 98.3585 65.0706 97.8149C63.6347 97.2712 62.473 96.1805 61.84 94.7817ZM65.04 87.8017C64.1328 88.2119 63.3674 88.8817 62.8405 89.7265C62.3135 90.5713 62.0486 91.5533 62.0791 92.5485C62.1097 93.5437 62.4343 94.5076 63.0121 95.3185C63.5898 96.1294 64.3948 96.751 65.3255 97.1048C66.2561 97.4587 67.2708 97.529 68.2413 97.3068C69.2119 97.0847 70.0949 96.58 70.779 95.8565C71.463 95.133 71.9175 94.2231 72.085 93.2416C72.2524 92.2602 72.1254 91.2511 71.72 90.3417C71.1696 89.1202 70.1573 88.1669 68.9051 87.6907C67.6528 87.2146 66.2629 87.2545 65.04 87.8017Z" fill="#1890ff"/>
<path d="M80.26 101.602C79.8644 100.732 79.6896 99.7788 79.7511 98.8257C79.8126 97.8726 80.1086 96.9494 80.6127 96.1382C81.1167 95.3269 81.8133 94.6527 82.6406 94.1754C83.4679 93.6982 84.4003 93.4326 85.3549 93.4022C86.3095 93.3719 87.2568 93.5778 88.1127 94.0016C88.9686 94.4254 89.7067 95.054 90.2612 95.8316C90.8158 96.6092 91.1697 97.5117 91.2916 98.459C91.4135 99.4063 91.2996 100.369 90.96 101.262C90.553 102.331 89.8386 103.257 88.9068 103.921C87.9749 104.586 86.8673 104.96 85.7233 104.996C84.5793 105.033 83.4501 104.73 82.478 104.126C81.5058 103.522 80.7341 102.643 80.26 101.602ZM80.82 97.4217C80.5287 98.1963 80.4327 99.0307 80.5403 99.8512C80.648 100.672 80.956 101.453 81.4373 102.126C81.9185 102.8 82.5581 103.344 83.2996 103.712C84.0411 104.079 84.8617 104.258 85.6889 104.233C86.516 104.208 87.3244 103.98 88.0425 103.569C88.7606 103.158 89.3664 102.576 89.8063 101.875C90.2463 101.174 90.5068 100.376 90.565 99.5501C90.6232 98.7245 90.4773 97.8974 90.14 97.1417C89.7258 96.2368 89.054 95.4742 88.2086 94.9491C87.3633 94.4241 86.3818 94.16 85.3871 94.1899C84.3924 94.2198 83.4286 94.5423 82.6163 95.1171C81.8039 95.692 81.1791 96.4936 80.82 97.4217Z" fill="#1890ff"/>
<path d="M69.72 112.002L82.14 79.1416C82.32 78.6816 83.04 78.9416 82.86 79.4016L70.42 112.262C70.4106 112.317 70.3892 112.369 70.3573 112.415C70.3254 112.461 70.2837 112.499 70.2353 112.527C70.1869 112.555 70.1329 112.572 70.0772 112.577C70.0215 112.581 69.9655 112.574 69.9131 112.554C69.8607 112.535 69.8132 112.504 69.7741 112.464C69.7349 112.424 69.7051 112.376 69.6866 112.323C69.6682 112.271 69.6616 112.214 69.6674 112.159C69.6732 112.103 69.6911 112.049 69.72 112.002Z" fill="#1890ff"/>
<path d="M212.28 316.222L203.32 320.362L199.18 311.402C199.129 311.326 199.053 311.271 198.966 311.247C198.878 311.222 198.785 311.23 198.702 311.269C198.62 311.308 198.554 311.375 198.517 311.458C198.48 311.541 198.474 311.635 198.5 311.722L202.64 320.682L193.68 324.822C193.604 324.86 193.543 324.922 193.506 324.998C193.47 325.075 193.46 325.161 193.479 325.244C193.497 325.327 193.543 325.401 193.608 325.455C193.674 325.509 193.755 325.54 193.84 325.542C194 325.542 193.68 325.542 202.94 321.342L207.08 330.322C207.101 330.368 207.131 330.409 207.168 330.443C207.205 330.478 207.248 330.505 207.296 330.522C207.343 330.54 207.393 330.548 207.444 330.546C207.494 330.544 207.544 330.533 207.59 330.512C207.636 330.491 207.677 330.461 207.712 330.424C207.746 330.387 207.773 330.343 207.791 330.296C207.808 330.249 207.816 330.198 207.815 330.148C207.813 330.097 207.801 330.048 207.78 330.002L203.62 321.042L212.6 316.922C212.693 316.879 212.765 316.802 212.801 316.706C212.836 316.61 212.832 316.505 212.79 316.412C212.748 316.319 212.67 316.247 212.574 316.211C212.479 316.175 212.373 316.179 212.28 316.222Z" fill="#1890ff"/>
<path d="M279.12 153.602C279.265 152.275 279.052 150.933 278.503 149.717C277.954 148.5 277.09 147.452 276 146.682C275.932 146.617 275.89 146.53 275.882 146.436C275.874 146.342 275.902 146.249 275.959 146.174C276.016 146.099 276.099 146.049 276.192 146.032C276.284 146.015 276.38 146.032 276.46 146.082C277.66 146.916 278.618 148.053 279.236 149.377C279.854 150.702 280.111 152.166 279.98 153.622C279.979 153.678 279.966 153.734 279.943 153.785C279.921 153.837 279.888 153.884 279.847 153.923C279.806 153.962 279.758 153.992 279.705 154.013C279.653 154.033 279.596 154.043 279.54 154.042C279.484 154.04 279.428 154.028 279.376 154.005C279.325 153.982 279.278 153.95 279.239 153.909C279.2 153.868 279.169 153.82 279.149 153.767C279.129 153.714 279.119 153.658 279.12 153.602Z" fill="#1890ff"/>
<path d="M286.42 154.462C286.458 151.79 285.894 149.143 284.768 146.72C283.643 144.296 281.986 142.157 279.92 140.462C279.54 140.122 280.04 139.562 280.4 139.882C282.539 141.636 284.258 143.848 285.431 146.353C286.604 148.859 287.202 151.595 287.18 154.362C287.193 154.462 287.166 154.564 287.104 154.645C287.073 154.685 287.035 154.718 286.992 154.744C286.948 154.769 286.9 154.785 286.85 154.792C286.749 154.805 286.647 154.778 286.567 154.716C286.486 154.654 286.433 154.562 286.42 154.462Z" fill="#1890ff"/>
<path d="M294.52 155.502C293.853 147.235 290.224 139.486 284.3 133.682C284.228 133.61 284.188 133.513 284.188 133.412C284.188 133.31 284.228 133.213 284.3 133.142C284.372 133.07 284.469 133.03 284.57 133.03C284.671 133.03 284.768 133.07 284.84 133.142C290.884 139.079 294.584 146.997 295.26 155.442C295.248 155.528 295.208 155.607 295.145 155.667C295.082 155.726 295.001 155.762 294.914 155.769C294.828 155.776 294.742 155.754 294.67 155.705C294.598 155.656 294.545 155.585 294.52 155.502Z" fill="#1890ff"/>
<path d="M245.62 64.4817C245.228 63.6271 244.513 62.9624 243.633 62.6326C242.752 62.3029 241.777 62.3349 240.92 62.7217L239.44 63.4017L237.1 58.3217L241.48 56.3217C241.573 56.2793 241.645 56.2017 241.681 56.1061C241.716 56.0104 241.712 55.9045 241.67 55.8117C241.628 55.7189 241.55 55.6467 241.454 55.6111C241.359 55.5755 241.253 55.5793 241.16 55.6217L236.78 57.6217L235.96 55.8017C235.92 55.7089 235.845 55.6357 235.751 55.5982C235.658 55.5606 235.553 55.5619 235.46 55.6017C235.367 55.6415 235.294 55.7165 235.256 55.8103C235.219 55.9041 235.22 56.0089 235.26 56.1017L236.1 57.9217L234.62 58.6017C234.166 58.7761 233.752 59.0416 233.405 59.382C233.057 59.7223 232.783 60.1303 232.6 60.5807C232.416 61.0311 232.327 61.5143 232.337 62.0006C232.347 62.4869 232.457 62.9659 232.66 63.4081C232.862 63.8503 233.153 64.2462 233.515 64.5716C233.877 64.8969 234.301 65.1447 234.762 65.2997C235.223 65.4546 235.711 65.5134 236.196 65.4725C236.68 65.4316 237.151 65.2918 237.58 65.0617L239.06 64.3817L241.4 69.4817L237.02 71.4817C236.968 71.4974 236.919 71.5241 236.878 71.5602C236.837 71.5963 236.804 71.6408 236.782 71.6908C236.76 71.7407 236.748 71.7948 236.749 71.8495C236.749 71.9042 236.762 71.9581 236.785 72.0076C236.808 72.0571 236.842 72.101 236.884 72.1362C236.926 72.1715 236.974 72.1973 237.027 72.2119C237.08 72.2266 237.135 72.2297 237.189 72.221C237.243 72.2123 237.295 72.1921 237.34 72.1617L241.7 70.1617L242.54 71.9817C242.556 72.0341 242.582 72.0825 242.619 72.1236C242.655 72.1647 242.699 72.1975 242.749 72.2198C242.799 72.2421 242.853 72.2534 242.908 72.2529C242.962 72.2523 243.016 72.24 243.066 72.2167C243.115 72.1934 243.159 72.1598 243.195 72.118C243.23 72.0762 243.256 72.0273 243.27 71.9746C243.285 71.9219 243.288 71.8666 243.279 71.8127C243.271 71.7587 243.25 71.7072 243.22 71.6617L242.4 69.8417L243.88 69.1617C244.73 68.7699 245.39 68.0577 245.716 67.1807C246.042 66.3038 246.007 65.3334 245.62 64.4817ZM237.26 64.4817C236.927 64.6357 236.566 64.7222 236.199 64.7361C235.832 64.75 235.466 64.6911 235.122 64.5628C234.778 64.4345 234.463 64.2393 234.195 63.9886C233.927 63.7378 233.711 63.4364 233.56 63.1017C233.254 62.4249 233.227 61.6545 233.485 60.958C233.744 60.2614 234.266 59.695 234.94 59.3817L236.42 58.7017L238.74 63.8017L237.26 64.4817ZM243.56 68.4817L242.08 69.1617L239.74 64.0817L241.22 63.4017C241.556 63.226 241.925 63.1204 242.303 63.0915C242.682 63.0625 243.062 63.1107 243.421 63.2333C243.78 63.3558 244.111 63.55 244.392 63.8042C244.674 64.0584 244.901 64.3672 245.06 64.7118C245.219 65.0565 245.306 65.4298 245.316 65.8091C245.326 66.1885 245.259 66.5659 245.118 66.9185C244.978 67.271 244.768 67.5914 244.5 67.8601C244.232 68.1289 243.912 68.3403 243.56 68.4817Z" fill="#1890ff"/>
<path d="M55.5 213.982C54.9586 212.793 53.9703 211.866 52.7496 211.402C51.529 210.938 50.1744 210.973 48.98 211.502C34.42 214.962 28.86 214.762 26.98 210.702L25.32 207.062C25.1571 206.683 25.0731 206.274 25.0731 205.862C25.0731 205.449 25.1571 205.041 25.32 204.662C25.5523 204.057 25.9543 203.533 26.4777 203.151C27.001 202.77 27.6235 202.548 28.27 202.512C28.9166 202.476 29.5598 202.628 30.1222 202.949C30.6846 203.27 31.1422 203.747 31.44 204.322C31.4824 204.414 31.56 204.487 31.6557 204.522C31.7513 204.558 31.8572 204.554 31.95 204.512C32.0428 204.469 32.115 204.392 32.1506 204.296C32.1863 204.2 32.1824 204.094 32.14 204.002C31.7758 203.297 31.217 202.712 30.5299 202.316C29.8429 201.92 29.0566 201.73 28.2644 201.768C27.4723 201.806 26.7078 202.07 26.0617 202.53C25.4156 202.99 24.9152 203.626 24.62 204.362C24.2696 205.262 24.2696 206.261 24.62 207.162C26.82 213.022 31.6 214.462 12.62 228.042C11.4687 228.619 10.5859 229.62 10.1569 230.834C9.72785 232.049 9.78604 233.382 10.3192 234.555C10.8524 235.727 11.819 236.647 13.0163 237.122C14.2135 237.597 15.5481 237.59 16.74 237.102L53.04 220.682C53.6457 220.408 54.1907 220.017 54.6434 219.53C55.096 219.044 55.4471 218.472 55.6761 217.848C55.9052 217.224 56.0076 216.561 55.9773 215.897C55.9471 215.233 55.7848 214.582 55.5 213.982ZM52.72 219.882L16.34 236.402C15.3345 236.874 14.1828 236.929 13.137 236.554C12.0912 236.179 11.2365 235.405 10.76 234.402C10.5203 233.885 10.3861 233.326 10.3651 232.757C10.3442 232.188 10.4371 231.621 10.6382 231.088C10.8394 230.555 11.1448 230.068 11.5366 229.655C11.9284 229.242 12.3987 228.911 12.92 228.682C23.58 221.102 27.76 216.682 27.56 212.682C28.4469 213.426 29.4732 213.986 30.5789 214.329C31.6845 214.673 32.8475 214.793 34 214.682C39.1806 214.418 44.3174 213.594 49.32 212.222C50.3288 211.818 51.4546 211.818 52.463 212.224C53.4713 212.629 54.2844 213.408 54.7329 214.397C55.1814 215.387 55.2308 216.512 54.8708 217.537C54.5107 218.563 53.7689 219.41 52.8 219.902L52.72 219.882Z" fill="#1890ff"/>
<path d="M326 345.342C316 332.982 296.7 326.422 284.5 313.342C290.099 311.744 295.52 309.58 300.68 306.882C300.734 306.85 300.779 306.805 300.81 306.75C300.841 306.696 300.857 306.634 300.857 306.572C300.857 306.509 300.841 306.448 300.81 306.393C300.779 306.339 300.734 306.293 300.68 306.262C261.6 276.042 227.54 201.762 220.46 183.262C221.646 175.494 221.768 167.602 220.82 159.802C225.5 158.062 264.02 141.802 282.82 108.982C282.86 108.922 282.881 108.853 282.881 108.782C282.881 108.71 282.86 108.641 282.82 108.582L282.1 107.522C288.88 100.622 317.62 85.5217 312.3 84.8217C310.832 84.683 309.351 84.8324 307.94 85.2617C309.48 84.3017 311.5 83.0617 313.28 82.0817C314.12 81.6417 314.42 81.1817 314.18 80.7417C313.68 79.7817 309.96 80.0417 307 81.0817L314.26 73.0817C314.544 72.7704 314.763 72.4059 314.904 72.0093C315.046 71.6127 315.107 71.192 315.085 70.7715C315.062 70.351 314.957 69.9391 314.774 69.5598C314.591 69.1804 314.335 68.8412 314.02 68.5617L300.5 56.3817C299.866 55.8128 299.031 55.5186 298.18 55.5636C297.329 55.6086 296.531 55.9891 295.96 56.6217L277.96 76.6217C277.391 77.2562 277.097 78.0903 277.142 78.9413C277.187 79.7923 277.567 80.5907 278.2 81.1617L279.36 82.2017C275.5 87.2017 270.6 93.0617 268.38 95.3417C267.66 94.9617 266.94 94.5817 266.18 94.2217C266.106 94.1857 266.022 94.176 265.942 94.1942C265.862 94.2124 265.791 94.2574 265.74 94.3217C250 113.682 228.1 134.842 203.54 138.682C198.26 139.522 194 136.522 193.3 133.322C197.66 131.682 199.12 128.362 196.88 123.682C202.496 122.474 207.466 119.231 210.833 114.578C214.2 109.924 215.727 104.19 215.118 98.4779C214.51 92.7663 211.81 87.4818 207.538 83.6421C203.266 79.8025 197.724 77.6794 191.98 77.6817C177.3 77.6817 165.28 91.3017 169.58 108.242C166.061 103.373 160.995 99.8411 155.209 98.2228C149.424 96.6044 143.261 96.9953 137.726 99.3314C132.191 101.668 127.612 105.811 124.736 111.085C121.86 116.36 120.857 122.453 121.891 128.371C122.924 134.289 125.934 139.682 130.428 143.669C134.921 147.656 140.634 150.001 146.633 150.323C152.632 150.644 158.563 148.923 163.457 145.439C168.351 141.955 171.92 136.915 173.58 131.142C176.76 132.762 181 133.142 183.58 134.922C186.18 140.042 185.42 143.482 178.38 146.802C157.02 156.922 145.34 156.222 107.16 158.942C106.228 159.104 105.36 159.523 104.653 160.152C103.946 160.781 103.429 161.595 103.16 162.502C101.313 162.685 99.4553 162.745 97.6 162.682C85.22 158.082 82.6 154.202 75.48 149.502C74.68 148.962 73.66 149.502 73.92 150.762C74.6062 152.515 75.6172 154.123 76.9 155.502C73.74 153.982 69.44 151.502 66.54 150.282C66.3204 150.166 66.0666 150.132 65.8245 150.188C65.5824 150.243 65.368 150.382 65.22 150.582C64.82 151.202 65.04 152.582 68.38 155.502C68.92 155.962 71.16 157.922 73.02 159.502C71.16 158.902 69.28 158.202 67.34 157.502C62.88 155.682 60.3 155.262 59.7 156.322C59.5 156.682 58.84 157.822 64.48 162.122C71.3658 166.702 78.7457 170.493 86.48 173.422C86.6 173.622 87.38 173.982 87.3 174.602C87.04 176.602 79.3 178.802 77.3 179.922C75.12 181.262 73.6 182.262 73.92 183.202C74.08 183.682 74.64 184.102 77.04 184.102C86.0882 183.391 95.1685 183.177 104.24 183.462C106.36 187.462 108.24 187.282 110.04 187.202C136.26 186.122 162.64 181.722 180.88 175.402C183.14 181.522 184.88 187.182 185.74 188.922C177.92 196.742 168.84 188.622 157.48 248.602C131.48 248.602 123.04 250.602 98.06 253.482C97.9881 253.492 97.9203 253.521 97.8639 253.567C97.8076 253.613 97.7647 253.673 97.74 253.742C97.32 255.082 96.96 256.422 96.64 257.742C88.3369 258.046 80.0267 257.374 71.88 255.742C71.7977 255.72 71.7103 255.728 71.6334 255.765C71.5565 255.801 71.495 255.864 71.46 255.942C62.4 275.602 56.98 299.082 55.06 308.262C55.0451 308.331 55.0502 308.404 55.0746 308.471C55.0991 308.538 55.142 308.597 55.1983 308.641C55.2547 308.685 55.3223 308.712 55.3933 308.719C55.4644 308.726 55.536 308.713 55.6 308.682C75.14 299.542 75.96 279.502 95.32 277.302C96.0844 284.293 97.6548 291.172 100 297.802C100.013 297.851 100.037 297.896 100.069 297.935C100.101 297.974 100.141 298.006 100.186 298.029C100.232 298.052 100.281 298.064 100.332 298.067C100.382 298.069 100.433 298.06 100.48 298.042L165.74 276.682C170.397 275.16 174.525 272.343 177.64 268.562C187.042 257.181 194.873 244.588 200.92 231.122C208.92 256.102 231.46 296.342 245.3 318.182C245.335 318.234 245.383 318.276 245.439 318.304C245.495 318.332 245.557 318.345 245.62 318.342C251.257 318.361 256.891 318.087 262.5 317.522C270.12 328.202 268.68 330.562 271.44 335.762C271.486 335.841 271.556 335.904 271.64 335.942C284.14 341.062 311.76 345.942 325.64 346.062C325.736 346.109 325.846 346.117 325.947 346.083C326.049 346.05 326.132 345.977 326.18 345.882C326.228 345.786 326.236 345.676 326.202 345.574C326.168 345.473 326.095 345.389 326 345.342ZM313.34 80.9817C313.176 81.1239 312.994 81.2449 312.8 81.3417C309.52 83.1417 305.46 85.7617 304.98 86.0817C303.467 86.6725 301.985 87.3401 300.54 88.0817L305.7 82.3617C308.057 81.1658 310.713 80.6861 313.34 80.9817ZM278.52 80.5017C278.04 80.0653 277.751 79.4568 277.718 78.8087C277.684 78.1607 277.908 77.5255 278.34 77.0417L296.34 57.0417C296.78 56.5601 297.392 56.2712 298.043 56.2375C298.694 56.2038 299.333 56.428 299.82 56.8617L313.34 69.0417C313.58 69.2563 313.775 69.5164 313.915 69.8069C314.054 70.0974 314.134 70.4125 314.151 70.7342C314.167 71.0558 314.12 71.3776 314.012 71.681C313.904 71.9843 313.737 72.2633 313.52 72.5017L295.52 92.5017C295.305 92.7509 295.041 92.9539 294.745 93.0985C294.449 93.2431 294.127 93.3263 293.798 93.3431C293.47 93.3599 293.141 93.31 292.832 93.1963C292.523 93.0827 292.24 92.9076 292 92.6817L286.14 87.4217C284.96 85.7817 288.14 78.5417 288.48 76.4417C288.84 73.9017 289.04 72.1017 288.12 71.7417C286.52 71.1217 283.92 75.8817 279.58 81.5217L278.52 80.5017ZM283.68 77.2817C287.1 72.2617 287.84 72.3817 287.92 72.4217C288 72.4617 288.24 73.2417 287.78 76.3017C287.46 78.5417 283.78 86.4217 285.78 87.9417L289.16 90.9817C286.481 90.5183 283.727 90.7454 281.16 91.6417C281.077 91.6802 281.01 91.7477 280.973 91.8314C280.935 91.9152 280.929 92.0098 280.956 92.0975C280.983 92.1853 281.041 92.2604 281.119 92.309C281.197 92.3575 281.289 92.3762 281.38 92.3617C287.38 90.5017 290.4 92.1817 290.62 92.3617L291.64 93.2817C292.272 93.853 293.105 94.1507 293.955 94.1095C294.806 94.0682 295.606 93.6915 296.18 93.0617L299.18 89.7417C299.9 89.3217 307.72 85.0217 312.14 85.5617C310.8 87.9617 287.44 101.082 281.64 106.882C278.276 102.28 273.957 98.4598 268.98 95.6817C274.223 89.8302 279.131 83.6871 283.68 77.2817ZM266 94.9417C272.492 97.968 278.027 102.721 282 108.682C263.48 140.922 225.02 157.242 220.72 158.942C219.251 151.336 216.978 143.907 213.94 136.782C230.82 130.922 248.34 116.822 266 94.9417ZM182.36 131.262C182.14 130.942 181.1 129.862 180.54 129.822C173.74 129.422 173.78 123.522 177.58 124.582C180.18 125.302 180.72 124.582 179.96 122.582C178.68 119.142 179.02 113.862 181.36 112.242C183.36 110.902 186.34 112.122 190.02 115.942C192.657 118.422 194.837 121.346 196.46 124.582C197.227 126.072 197.371 127.806 196.86 129.402C195.36 133.182 188.86 133.522 188.86 133.522C188.78 133.527 188.703 133.557 188.642 133.608C188.58 133.659 188.536 133.729 188.516 133.806C188.496 133.884 188.501 133.966 188.53 134.041C188.56 134.115 188.612 134.179 188.68 134.222L195.06 137.322C195.631 137.771 196.248 138.16 196.9 138.482C194.56 140.922 190.78 142.202 185.1 142.482C186.96 138.862 184.62 134.682 182.36 131.262ZM184.6 143.262C190.94 143.022 195.08 141.602 197.62 138.822C199.449 139.541 201.435 139.768 203.38 139.482C205.451 143.706 207.093 148.129 208.28 152.682C204.28 156.222 198.28 158.082 188.9 158.682C186.739 154.284 184.356 149.998 181.76 145.842C182.855 145.136 183.817 144.242 184.6 143.202V143.262ZM75.06 150.042C81.6 154.362 83.78 157.542 93.46 161.742C88.3622 160.167 83.3604 158.298 78.48 156.142L77.02 154.382C75.9735 153.281 75.1695 151.973 74.66 150.542C74.54 149.962 74.76 149.842 75.06 150.042ZM68.88 154.842C65.96 152.302 65.7 151.142 65.86 150.842C66.02 150.542 66.08 150.842 66.22 150.842C69.56 152.342 75.18 155.542 78.42 156.842C83.5124 159.131 88.7505 161.082 94.1 162.682C87.6229 162.769 81.1719 161.844 74.98 159.942C73.14 158.562 69.58 155.462 68.88 154.842ZM81.22 182.842C75.22 183.422 74.8 182.842 74.76 182.702C74.72 182.562 75.18 181.922 77.82 180.302C80 179.002 89.26 176.682 88 173.742C89.26 174.202 90.54 174.622 91.82 175.042C91.9138 175.068 92.014 175.056 92.0999 175.011C92.1857 174.965 92.2508 174.888 92.2815 174.796C92.3123 174.703 92.3065 174.603 92.2653 174.514C92.2241 174.426 92.1506 174.357 92.06 174.322C82.4692 171.228 73.3451 166.841 64.94 161.282C59.88 157.422 60.36 156.442 60.36 156.442C60.36 156.442 62.04 155.902 67.06 157.962C72.5818 160.234 78.3462 161.865 84.24 162.822C93.0874 163.773 102.016 163.672 110.84 162.522C114.003 168.768 114.592 176.006 112.48 182.682C106 182.362 86.96 182.302 81.22 182.862V182.842ZM111.1 186.142C113.96 183.722 114.62 177.522 114.44 173.502C114.26 169.482 112.58 161.682 109.24 159.502C140.1 157.342 153.54 157.382 169.86 151.242C174.199 158.609 177.848 166.362 180.76 174.402C162.82 180.682 136.94 185.042 111.1 186.162V186.142ZM170.58 151.022C174.194 149.652 177.714 148.048 181.12 146.222C183.707 150.359 186.083 154.625 188.24 159.002C188.4 159.342 188.4 159.442 188.82 159.422C198.48 158.822 204.68 156.882 208.94 153.082C208.992 153.039 209.03 152.982 209.051 152.919C209.072 152.855 209.076 152.787 209.06 152.722C207.872 148.101 206.237 143.606 204.18 139.302C207.232 138.813 210.236 138.064 213.16 137.062C219.78 154.522 222.28 162.402 219.68 183.062C213.56 189.642 195.88 193.582 186.62 188.482C184.9 185.122 180 166.682 170.58 151.022ZM95.42 276.322C75.86 278.522 74.8 298.322 56.1 307.442C58.1 297.862 63.44 275.322 72.1 256.322C80.1562 257.877 88.3582 258.548 96.56 258.322C95.3092 264.235 94.9252 270.298 95.42 276.322ZM205.74 242.062C204.38 230.362 207.5 215.082 207.54 214.922C207.548 214.833 207.524 214.745 207.474 214.672C207.423 214.599 207.349 214.546 207.263 214.522C207.178 214.499 207.087 214.505 207.006 214.542C206.925 214.578 206.859 214.642 206.82 214.722C199.32 234.902 190.54 251.622 177.06 267.982C174.035 271.659 170.025 274.399 165.5 275.882L100.5 297.222C95.86 283.002 94.16 268.262 98.5 253.962C122.4 251.142 131.68 249.062 157.9 249.122C157.987 249.127 158.073 249.099 158.14 249.044C158.207 248.988 158.25 248.908 158.26 248.822C169.58 188.822 178.38 197.202 186.38 189.202C195.54 194.102 213.1 190.602 219.84 183.902C227.28 203.062 260.96 276.102 299.68 306.422C285.5 313.742 267.36 317.482 245.68 317.502C244 314.482 218.56 273.902 205.74 242.062ZM272 335.182C269.4 330.222 270.66 327.702 263.32 317.342C270.163 316.639 276.935 315.354 283.56 313.502C295.56 326.702 314.7 333.262 324.76 345.182C310.82 344.682 284.3 340.162 272 335.182Z" fill="#1890ff"/>
</svg>
