<svg width="400" height="400" viewBox="0 0 400 400" fill="none" xmlns="http://www.w3.org/2000/svg">
<path d="M283.78 312.46C295.98 325.9 315.6 332.46 325.62 344.9C312.14 344.64 284.34 339.96 271.78 334.9C269.02 329.76 270.46 327.3 262.68 316.46C269.812 315.713 276.87 314.375 283.78 312.46V312.46Z" fill="#B2BEC3"/>
<path d="M95.84 276C75.84 278 75.28 298.24 55.58 307.46C58.44 293.62 64 272.34 72 255.2C80.2763 256.823 88.7112 257.494 97.14 257.2C95.7581 263.365 95.3197 269.704 95.84 276V276Z" fill="#B2BEC3"/>
<path d="M211.6 171.72C211.121 167.979 210.352 164.282 209.3 160.66C204.893 163.326 199.902 164.878 194.76 165.18C195.961 168.579 196.851 172.08 197.42 175.64L206.24 179.52L211.6 171.72Z" fill="#B2BEC3"/>
<path d="M224.9 281.66L140.3 320.42C138.445 321.272 136.44 321.75 134.4 321.827C132.359 321.903 130.324 321.576 128.411 320.864C126.497 320.153 124.743 319.071 123.248 317.68C121.753 316.289 120.547 314.617 119.7 312.76L110.88 293.48C110.838 293.387 110.76 293.315 110.664 293.279C110.569 293.244 110.463 293.248 110.37 293.29C110.277 293.332 110.205 293.41 110.169 293.506C110.134 293.601 110.138 293.707 110.18 293.8L119.02 313.08C119.912 315.024 121.179 316.773 122.748 318.228C124.316 319.682 126.156 320.813 128.162 321.556C130.168 322.299 132.301 322.64 134.438 322.558C136.576 322.476 138.677 321.974 140.62 321.08C140.82 320.98 142.74 319.92 225.22 282.34C225.296 282.289 225.351 282.213 225.375 282.126C225.399 282.038 225.391 281.945 225.353 281.862C225.314 281.78 225.247 281.714 225.164 281.677C225.081 281.64 224.987 281.634 224.9 281.66Z" fill="white"/>
<path d="M344.56 209.76L293.38 97.9999C293.364 97.9475 293.338 97.8992 293.301 97.8581C293.265 97.817 293.221 97.7841 293.171 97.7618C293.121 97.7395 293.067 97.7282 293.012 97.7288C292.958 97.7293 292.904 97.7416 292.854 97.7649C292.805 97.7882 292.761 97.8219 292.726 97.8637C292.69 97.9055 292.664 97.9544 292.65 98.0071C292.635 98.0598 292.632 98.115 292.641 98.169C292.649 98.223 292.67 98.2745 292.7 98.3199L343.88 210C345.591 213.748 345.745 218.022 344.309 221.884C342.873 225.745 339.964 228.88 336.22 230.6L263.46 264C263.384 264.038 263.323 264.1 263.286 264.177C263.25 264.253 263.24 264.34 263.259 264.422C263.277 264.505 263.323 264.58 263.388 264.633C263.454 264.687 263.535 264.718 263.62 264.72C263.82 264.72 261 265.96 336.54 231.36C340.463 229.553 343.51 226.266 345.013 222.217C346.516 218.168 346.353 213.689 344.56 209.76Z" fill="white"/>
<path d="M277.44 77.6799C273.821 76.7566 269.995 77.1025 266.6 78.6599L211.76 103.76L211.52 104.7L266.9 79.3399C270.138 77.8539 273.79 77.529 277.24 78.4199C277.289 78.4331 277.339 78.4365 277.389 78.4301C277.439 78.4236 277.487 78.4074 277.531 78.3823C277.575 78.3572 277.613 78.3238 277.644 78.2839C277.674 78.2441 277.697 78.1985 277.71 78.1499C277.723 78.1014 277.727 78.0507 277.72 78.0007C277.714 77.9508 277.697 77.9027 277.672 77.859C277.647 77.8154 277.614 77.7771 277.574 77.7464C277.534 77.7156 277.489 77.6931 277.44 77.6799Z" fill="white"/>
<path d="M132 140.34L90.82 159.16C90.7646 159.172 90.7124 159.195 90.6673 159.23C90.6222 159.264 90.5854 159.308 90.5595 159.358C90.5336 159.409 90.5193 159.464 90.5176 159.521C90.5159 159.577 90.5269 159.634 90.5497 159.686C90.5726 159.737 90.6067 159.783 90.6497 159.82C90.6927 159.857 90.7433 159.884 90.798 159.899C90.8526 159.914 90.9099 159.916 90.9657 159.906C91.0214 159.896 91.0741 159.873 91.12 159.84L132.56 140.86L132 140.34Z" fill="white"/>
<path d="M94.24 257.16L63.32 189.66C61.6156 185.914 61.4647 181.645 62.9003 177.788C64.3359 173.931 67.2411 170.8 70.98 169.08L74.98 167.22C75.0728 167.178 75.145 167.1 75.1806 167.004C75.2163 166.909 75.2124 166.803 75.17 166.71C75.1276 166.617 75.05 166.545 74.9544 166.509C74.8587 166.474 74.7528 166.478 74.66 166.52L70.66 168.38C66.7408 170.19 63.6985 173.479 62.1991 177.528C60.6997 181.576 60.8655 186.054 62.66 189.98L93.56 257.46C93.611 257.53 93.6846 257.581 93.7686 257.604C93.8525 257.627 93.9418 257.62 94.0214 257.585C94.1009 257.55 94.1661 257.489 94.2059 257.411C94.2457 257.334 94.2577 257.245 94.24 257.16Z" fill="white"/>
<path d="M262.14 207.52L260 202.88C259.798 202.41 259.505 201.985 259.137 201.63C258.769 201.274 258.335 200.995 257.858 200.809C257.382 200.623 256.873 200.534 256.362 200.546C255.851 200.558 255.347 200.672 254.88 200.88L232.88 210.98C232.804 211.018 232.743 211.08 232.706 211.157C232.67 211.233 232.66 211.32 232.679 211.403C232.697 211.485 232.743 211.56 232.808 211.614C232.874 211.668 232.955 211.698 233.04 211.7C233.24 211.7 232.5 211.92 255.24 201.56C255.994 201.22 256.851 201.191 257.627 201.479C258.402 201.767 259.032 202.35 259.38 203.1L261.5 207.74C261.691 208.116 261.805 208.528 261.832 208.949C261.86 209.37 261.802 209.793 261.662 210.191C261.522 210.59 261.302 210.955 261.017 211.266C260.731 211.577 260.385 211.827 260 212L238.42 221.88C238.327 221.92 238.254 221.995 238.216 222.089C238.179 222.182 238.18 222.287 238.22 222.38C238.26 222.473 238.335 222.546 238.429 222.584C238.522 222.621 238.627 222.62 238.72 222.58L260.32 212.58C261.222 212.139 261.916 211.364 262.256 210.419C262.596 209.474 262.554 208.435 262.14 207.52Z" fill="white"/>
<path d="M194.46 242.74C194.375 242.738 194.294 242.707 194.228 242.654C194.163 242.6 194.117 242.525 194.099 242.443C194.08 242.36 194.09 242.273 194.126 242.197C194.163 242.12 194.224 242.058 194.3 242.02L203.84 237.64C203.885 237.61 203.937 237.589 203.991 237.581C204.045 237.572 204.1 237.575 204.153 237.59C204.206 237.604 204.254 237.63 204.296 237.666C204.338 237.701 204.372 237.745 204.395 237.794C204.418 237.844 204.431 237.898 204.431 237.952C204.432 238.007 204.42 238.061 204.398 238.111C204.376 238.161 204.343 238.205 204.302 238.241C204.261 238.278 204.212 238.304 204.16 238.32C194.8 242.6 194.66 242.74 194.46 242.74Z" fill="white"/>
<path d="M213.38 136C216.66 144.64 219.22 151.1 220.36 158.9C220.36 158.9 262.78 142.46 282.36 108.12C278.303 101.901 272.569 96.9572 265.82 93.8601C243.74 121.32 225.54 131.76 213.38 136Z" fill="#B2BEC3"/>
<path d="M181.24 145.02C182.479 144.295 183.555 143.321 184.4 142.16C189.98 141.96 194.72 140.86 197.5 137.62C199.393 138.417 201.472 138.666 203.5 138.34C205.684 142.74 207.394 147.359 208.6 152.12C203.98 156.12 197.34 157.84 188.6 158.36C186.392 153.782 183.935 149.329 181.24 145.02Z" fill="#B2BEC3"/>
<path d="M109.3 186C131.42 185.16 159.82 181.58 181.3 174C178.307 165.703 174.523 157.713 170 150.14C153.66 156.34 140.32 156.34 107.06 158.64C114.68 158 116.96 184.86 109.3 186Z" fill="#B2BEC3"/>
<path d="M321.58 208.86C320.981 207.551 320.012 206.446 318.794 205.679C317.576 204.913 316.161 204.518 314.722 204.543C313.282 204.569 311.882 205.013 310.692 205.823C309.501 206.632 308.573 207.771 308.02 209.1C306.245 208.514 304.314 208.621 302.615 209.4C300.915 210.179 299.574 211.572 298.86 213.3C297.492 212.849 296.023 212.807 294.631 213.179C293.24 213.551 291.988 214.321 291.028 215.395C290.067 216.468 289.442 217.799 289.226 219.223C289.011 220.647 289.216 222.103 289.817 223.412C290.417 224.721 291.386 225.827 292.605 226.593C293.824 227.36 295.241 227.754 296.681 227.727C298.121 227.7 299.521 227.254 300.711 226.443C301.901 225.631 302.829 224.491 303.38 223.16C305.155 223.746 307.086 223.639 308.785 222.86C310.485 222.081 311.826 220.688 312.54 218.96C313.906 219.408 315.373 219.449 316.762 219.076C318.151 218.704 319.401 217.935 320.36 216.864C321.319 215.792 321.945 214.465 322.162 213.044C322.378 211.622 322.176 210.168 321.58 208.86ZM299.3 226.38C298.314 226.833 297.233 227.038 296.15 226.977C295.067 226.917 294.015 226.592 293.086 226.033C292.157 225.473 291.378 224.696 290.818 223.767C290.258 222.838 289.933 221.786 289.872 220.703C289.811 219.62 290.015 218.539 290.467 217.553C290.919 216.567 291.605 215.706 292.465 215.045C293.325 214.385 294.334 213.944 295.403 213.762C296.472 213.58 297.57 213.662 298.6 214C298.075 215.714 298.191 217.56 298.927 219.194C299.663 220.828 300.969 222.138 302.6 222.88C301.976 224.418 300.799 225.667 299.3 226.38ZM321.1 214.26C320.499 215.873 319.297 217.19 317.746 217.935C316.194 218.681 314.415 218.797 312.78 218.26C313.305 216.547 313.189 214.701 312.453 213.067C311.717 211.433 310.411 210.122 308.78 209.38C309.479 207.813 310.755 206.576 312.343 205.928C313.932 205.279 315.709 205.268 317.305 205.897C318.901 206.526 320.193 207.747 320.911 209.305C321.629 210.863 321.718 212.638 321.16 214.26H321.1Z" fill="white"/>
<path d="M143.16 216.86L137.16 203.78C136.589 202.531 135.777 201.408 134.771 200.473C133.764 199.539 132.584 198.812 131.296 198.335C130.009 197.857 128.64 197.638 127.268 197.691C125.896 197.743 124.547 198.066 123.3 198.64L104.56 207.2C102.042 208.358 100.086 210.468 99.1223 213.067C98.1586 215.665 98.2657 218.54 99.42 221.06L105.42 234.16C106.578 236.678 108.688 238.634 111.287 239.598C113.885 240.561 116.76 240.454 119.28 239.3L138 230.72C140.522 229.566 142.482 227.457 143.45 224.858C144.417 222.259 144.313 219.382 143.16 216.86ZM137.7 230L118.96 238.58C117.803 239.11 116.553 239.407 115.282 239.454C114.01 239.501 112.741 239.296 111.549 238.852C110.356 238.408 109.263 237.734 108.331 236.867C107.4 236 106.648 234.958 106.12 233.8L100.12 220.72C99.0919 218.396 99.0167 215.762 99.9105 213.383C100.804 211.004 102.596 209.072 104.9 208L123.62 199.42C124.778 198.889 126.03 198.592 127.303 198.545C128.576 198.498 129.846 198.702 131.04 199.146C132.234 199.59 133.329 200.265 134.263 201.132C135.196 201.999 135.95 203.042 136.48 204.2L142.48 217.28C143.503 219.604 143.575 222.237 142.682 224.614C141.789 226.991 140 228.924 137.7 230Z" fill="white"/>
<path d="M310.78 185.24L308.66 180.62C308.456 180.15 308.161 179.724 307.791 179.368C307.422 179.013 306.985 178.734 306.507 178.548C306.029 178.362 305.519 178.272 305.006 178.285C304.494 178.297 303.988 178.411 303.52 178.62L268.2 194.88C267.739 195.091 267.324 195.391 266.979 195.763C266.634 196.135 266.365 196.571 266.189 197.046C266.013 197.522 265.932 198.027 265.951 198.534C265.97 199.041 266.088 199.539 266.3 200L268.42 204.64C268.73 205.314 269.226 205.885 269.849 206.285C270.473 206.686 271.199 206.899 271.94 206.9C273.14 206.9 270.6 207.88 308.88 190.36C309.808 189.929 310.528 189.15 310.883 188.191C311.239 187.232 311.202 186.172 310.78 185.24ZM308.56 189.68L273.24 205.86C272.869 206.031 272.467 206.126 272.059 206.141C271.65 206.156 271.243 206.09 270.86 205.947C270.477 205.804 270.126 205.587 269.827 205.307C269.529 205.028 269.288 204.693 269.12 204.32L266.98 199.7C266.809 199.327 266.713 198.924 266.698 198.514C266.682 198.104 266.748 197.695 266.891 197.311C267.034 196.926 267.252 196.574 267.531 196.273C267.811 195.973 268.147 195.73 268.52 195.56L303.84 179.38C304.211 179.209 304.613 179.114 305.022 179.099C305.43 179.084 305.838 179.15 306.22 179.293C306.603 179.436 306.954 179.653 307.253 179.933C307.551 180.212 307.792 180.548 307.96 180.92L310.1 185.56C310.439 186.311 310.468 187.166 310.18 187.938C309.891 188.71 309.309 189.336 308.56 189.68Z" fill="white"/>
<path d="M390 148C389.532 146.94 388.749 146.05 387.758 145.449C386.768 144.848 385.616 144.566 384.46 144.64L377.78 95.2999L388.18 90.7199C388.25 90.669 388.301 90.5954 388.324 90.5114C388.347 90.4274 388.34 90.3382 388.305 90.2586C388.27 90.179 388.209 90.1139 388.131 90.0741C388.054 90.0343 387.965 90.0222 387.88 90.0399L377.22 94.7199C377.149 94.7583 377.09 94.8165 377.051 94.8874C377.012 94.9584 376.994 95.0392 377 95.1199L379.18 111.12C324.48 135.26 328 133.62 328 134C328 134.38 327.08 133.28 343.7 149.62C343.94 149.86 341.26 150.62 382.64 137.26L383.68 144.84C382.887 145.002 382.137 145.332 381.483 145.809C380.829 146.286 380.285 146.898 379.888 147.604C379.492 148.31 379.252 149.093 379.185 149.9C379.118 150.706 379.225 151.518 379.5 152.28L360.58 160.64C359.902 159.343 358.747 158.36 357.358 157.899C355.969 157.438 354.455 157.535 353.136 158.169C351.817 158.804 350.796 159.926 350.29 161.299C349.783 162.673 349.83 164.189 350.421 165.528C351.012 166.867 352.1 167.924 353.456 168.476C354.811 169.027 356.328 169.03 357.686 168.484C359.044 167.938 360.136 166.885 360.732 165.548C361.328 164.211 361.381 162.695 360.88 161.32L379.82 152.98C380.48 154.33 381.65 155.362 383.072 155.85C384.493 156.337 386.05 156.24 387.4 155.58C388.75 154.92 389.782 153.75 390.27 152.328C390.757 150.907 390.66 149.35 390 148ZM344 148.84L328.98 134.12L379.18 112L382.48 136.44L344 148.84ZM360 164.84C359.708 165.587 359.237 166.25 358.627 166.771C358.018 167.292 357.29 167.655 356.507 167.828C355.724 168 354.911 167.978 354.139 167.761C353.367 167.545 352.66 167.142 352.081 166.588C351.502 166.034 351.068 165.345 350.818 164.583C350.569 163.822 350.51 163.01 350.648 162.221C350.787 161.431 351.117 160.687 351.611 160.056C352.105 159.425 352.747 158.924 353.48 158.6C354.374 158.203 355.367 158.083 356.33 158.255C357.292 158.428 358.182 158.884 358.883 159.566C359.584 160.248 360.066 161.124 360.265 162.082C360.464 163.04 360.372 164.035 360 164.94V164.84ZM386.64 154.64C385.757 155.034 384.778 155.156 383.826 154.993C382.873 154.829 381.991 154.386 381.29 153.72C380.59 153.055 380.103 152.196 379.891 151.253C379.679 150.311 379.752 149.326 380.1 148.425C380.448 147.523 381.056 146.745 381.847 146.19C382.638 145.635 383.575 145.326 384.542 145.304C385.508 145.282 386.458 145.548 387.274 146.067C388.089 146.586 388.731 147.335 389.12 148.22C389.398 148.804 389.556 149.439 389.585 150.085C389.615 150.732 389.515 151.377 389.291 151.985C389.068 152.592 388.725 153.149 388.284 153.622C387.842 154.095 387.31 154.475 386.72 154.74L386.64 154.64Z" fill="white"/>
<path d="M212 171.7C211.515 167.932 210.74 164.208 209.68 160.56C209.26 159.12 207.8 163.42 194.74 164.82C194.683 164.825 194.629 164.843 194.58 164.873C194.532 164.904 194.492 164.945 194.462 164.993C194.433 165.042 194.416 165.097 194.412 165.154C194.408 165.211 194.418 165.268 194.44 165.32C195.625 168.687 196.502 172.155 197.06 175.68C197.065 175.74 197.087 175.798 197.122 175.847C197.157 175.896 197.205 175.935 197.26 175.96L206.1 179.96C206.181 179.993 206.271 179.998 206.355 179.972C206.439 179.947 206.511 179.893 206.56 179.82C212.32 171.32 212 172 212 171.7ZM206.12 179.06L197.78 175.38C197.241 172.021 196.411 168.715 195.3 165.5C200.164 165.161 204.885 163.711 209.1 161.26C210.064 164.657 210.78 168.119 211.24 171.62L206.12 179.06Z" fill="white"/>
<path d="M61.84 94.1C61.3668 93.0543 61.2145 91.8916 61.4025 90.7592C61.5904 89.6269 62.1101 88.5758 62.8958 87.7389C63.6815 86.9021 64.6978 86.3173 65.8161 86.0584C66.9344 85.7995 68.1043 85.8782 69.1778 86.2847C70.2513 86.6911 71.18 87.4069 71.8465 88.3414C72.5129 89.276 72.8871 90.3873 72.9216 91.5346C72.9561 92.6819 72.6494 93.8137 72.0403 94.7866C71.4312 95.7595 70.5471 96.5298 69.5 97C68.0994 97.6289 66.5065 97.6768 65.0706 97.1332C63.6347 96.5896 62.473 95.4988 61.84 94.1ZM65.04 87.12C64.1328 87.5303 63.3674 88.2001 62.8405 89.0449C62.3135 89.8897 62.0486 90.8716 62.0791 91.8668C62.1097 92.862 62.4343 93.8259 63.0121 94.6368C63.5898 95.4477 64.3948 96.0693 65.3255 96.4232C66.2561 96.7771 67.2708 96.8474 68.2413 96.6252C69.2119 96.403 70.0949 95.8984 70.779 95.1749C71.463 94.4514 71.9175 93.5415 72.085 92.56C72.2524 91.5785 72.1254 90.5694 71.72 89.66C71.1696 88.4386 70.1573 87.4852 68.9051 87.0091C67.6528 86.5329 66.2629 86.5728 65.04 87.12Z" fill="white"/>
<path d="M80.26 100.92C79.8644 100.051 79.6896 99.0971 79.7511 98.1439C79.8126 97.1908 80.1086 96.2677 80.6127 95.4564C81.1167 94.6452 81.8133 93.971 82.6406 93.4937C83.4679 93.0164 84.4003 92.7508 85.3549 92.7205C86.3095 92.6901 87.2568 92.896 88.1127 93.3198C88.9686 93.7436 89.7067 94.3722 90.2612 95.1498C90.8158 95.9274 91.1697 96.83 91.2916 97.7772C91.4135 98.7245 91.2996 99.6872 90.96 100.58C90.553 101.65 89.8386 102.575 88.9068 103.24C87.9749 103.904 86.8673 104.278 85.7233 104.315C84.5793 104.351 83.4501 104.048 82.478 103.444C81.5058 102.84 80.7341 101.962 80.26 100.92ZM80.82 96.7399C80.5287 97.5145 80.4327 98.3489 80.5403 99.1695C80.648 99.99 80.956 100.771 81.4373 101.445C81.9185 102.118 82.5581 102.662 83.2996 103.03C84.0411 103.397 84.8617 103.576 85.6889 103.552C86.516 103.527 87.3244 103.299 88.0425 102.887C88.7606 102.476 89.3664 101.894 89.8063 101.193C90.2463 100.492 90.5068 99.6938 90.565 98.8683C90.6232 98.0428 90.4773 97.2156 90.14 96.4599C89.7258 95.5551 89.054 94.7924 88.2086 94.2674C87.3633 93.7423 86.3818 93.4783 85.3871 93.5081C84.3924 93.538 83.4286 93.8606 82.6163 94.4354C81.8039 95.0102 81.1791 95.8118 80.82 96.7399Z" fill="white"/>
<path d="M69.72 111.32L82.14 78.46C82.32 78 83.04 78.26 82.86 78.72L70.42 111.58C70.4106 111.635 70.3892 111.687 70.3573 111.733C70.3254 111.779 70.2837 111.817 70.2353 111.845C70.1869 111.873 70.1329 111.89 70.0772 111.895C70.0215 111.9 69.9655 111.892 69.9131 111.872C69.8607 111.853 69.8132 111.822 69.7741 111.782C69.7349 111.742 69.7051 111.694 69.6866 111.642C69.6682 111.589 69.6616 111.533 69.6674 111.477C69.6732 111.421 69.6911 111.368 69.72 111.32Z" fill="white"/>
<path d="M212.28 315.54L203.32 319.68L199.18 310.72C199.129 310.644 199.053 310.589 198.966 310.565C198.878 310.541 198.785 310.549 198.702 310.587C198.62 310.626 198.554 310.693 198.517 310.776C198.48 310.859 198.474 310.953 198.5 311.04L202.64 320L193.68 324.14C193.604 324.178 193.543 324.24 193.506 324.317C193.47 324.393 193.46 324.48 193.479 324.563C193.497 324.645 193.543 324.72 193.608 324.774C193.674 324.828 193.755 324.858 193.84 324.86C194 324.86 193.68 324.86 202.94 320.66L207.08 329.64C207.101 329.686 207.131 329.727 207.168 329.762C207.205 329.796 207.248 329.823 207.296 329.841C207.343 329.858 207.393 329.867 207.444 329.865C207.494 329.863 207.544 329.851 207.59 329.83C207.636 329.809 207.677 329.779 207.712 329.742C207.746 329.705 207.773 329.662 207.791 329.614C207.808 329.567 207.816 329.517 207.815 329.466C207.813 329.416 207.801 329.366 207.78 329.32L203.62 320.36L212.6 316.24C212.693 316.198 212.765 316.12 212.801 316.024C212.836 315.929 212.832 315.823 212.79 315.73C212.748 315.637 212.67 315.565 212.574 315.529C212.479 315.494 212.373 315.498 212.28 315.54Z" fill="white"/>
<path d="M279.12 152.92C279.265 151.593 279.052 150.252 278.503 149.035C277.954 147.818 277.09 146.77 276 146C275.932 145.935 275.89 145.848 275.882 145.754C275.874 145.66 275.902 145.567 275.959 145.492C276.016 145.418 276.099 145.367 276.192 145.35C276.284 145.333 276.38 145.351 276.46 145.4C277.66 146.234 278.618 147.371 279.236 148.696C279.854 150.02 280.111 151.484 279.98 152.94C279.979 152.996 279.966 153.052 279.943 153.104C279.921 153.155 279.888 153.202 279.847 153.241C279.806 153.28 279.758 153.311 279.705 153.331C279.653 153.351 279.596 153.361 279.54 153.36C279.484 153.359 279.428 153.346 279.376 153.323C279.325 153.301 279.278 153.268 279.239 153.227C279.2 153.186 279.169 153.138 279.149 153.085C279.129 153.033 279.119 152.976 279.12 152.92Z" fill="white"/>
<path d="M286.42 153.78C286.458 151.108 285.894 148.462 284.768 146.038C283.643 143.614 281.986 141.475 279.92 139.78C279.54 139.44 280.04 138.88 280.4 139.2C282.539 140.955 284.258 143.166 285.431 145.672C286.604 148.177 287.202 150.914 287.18 153.68C287.193 153.781 287.166 153.883 287.104 153.963C287.073 154.003 287.035 154.037 286.992 154.062C286.948 154.087 286.9 154.104 286.85 154.11C286.749 154.123 286.647 154.096 286.567 154.034C286.486 153.972 286.433 153.881 286.42 153.78Z" fill="white"/>
<path d="M294.52 154.82C293.853 146.553 290.224 138.804 284.3 133C284.228 132.928 284.188 132.831 284.188 132.73C284.188 132.629 284.228 132.532 284.3 132.46C284.372 132.388 284.469 132.348 284.57 132.348C284.671 132.348 284.768 132.388 284.84 132.46C290.884 138.397 294.584 146.315 295.26 154.76C295.248 154.846 295.208 154.925 295.145 154.985C295.082 155.044 295.001 155.081 294.914 155.088C294.828 155.095 294.742 155.072 294.67 155.023C294.598 154.975 294.545 154.903 294.52 154.82Z" fill="white"/>
<path d="M245.62 63.7999C245.228 62.9454 244.513 62.2806 243.633 61.9509C242.752 61.6211 241.777 61.6532 240.92 62.0399L239.44 62.7199L237.1 57.6399L241.48 55.6399C241.573 55.5975 241.645 55.5199 241.681 55.4243C241.716 55.3287 241.712 55.2228 241.67 55.1299C241.628 55.0371 241.55 54.965 241.454 54.9293C241.359 54.8937 241.253 54.8975 241.16 54.9399L236.78 56.9399L235.96 55.1199C235.92 55.0271 235.845 54.9539 235.751 54.9164C235.658 54.8789 235.553 54.8802 235.46 54.9199C235.367 54.9597 235.294 55.0348 235.256 55.1285C235.219 55.2223 235.22 55.3271 235.26 55.4199L236.1 57.2399L234.62 57.9199C234.166 58.0943 233.752 58.3599 233.405 58.7002C233.057 59.0406 232.783 59.4485 232.6 59.8989C232.416 60.3493 232.327 60.8325 232.337 61.3188C232.347 61.8051 232.457 62.2841 232.66 62.7263C232.862 63.1685 233.153 63.5645 233.515 63.8898C233.877 64.2152 234.301 64.4629 234.762 64.6179C235.223 64.7728 235.711 64.8317 236.196 64.7907C236.68 64.7498 237.151 64.61 237.58 64.3799L239.06 63.6999L241.4 68.8L237.02 70.8C236.968 70.8156 236.919 70.8424 236.878 70.8785C236.837 70.9145 236.804 70.9591 236.782 71.009C236.76 71.0589 236.748 71.1131 236.749 71.1678C236.749 71.2224 236.762 71.2764 236.785 71.3258C236.808 71.3753 236.842 71.4192 236.884 71.4545C236.926 71.4897 236.974 71.5156 237.027 71.5302C237.08 71.5448 237.135 71.5479 237.189 71.5392C237.243 71.5306 237.295 71.5103 237.34 71.48L241.7 69.48L242.54 71.3C242.556 71.3523 242.582 71.4007 242.619 71.4418C242.655 71.4829 242.699 71.5158 242.749 71.5381C242.799 71.5604 242.853 71.5717 242.908 71.5711C242.962 71.5706 243.016 71.5583 243.066 71.535C243.115 71.5117 243.159 71.478 243.195 71.4362C243.23 71.3944 243.256 71.3455 243.27 71.2928C243.285 71.2401 243.288 71.1849 243.279 71.1309C243.271 71.0769 243.25 71.0254 243.22 70.98L242.4 69.16L243.88 68.48C244.73 68.0881 245.39 67.3759 245.716 66.499C246.042 65.622 246.007 64.6516 245.62 63.7999ZM237.26 63.7999C236.927 63.954 236.566 64.0404 236.199 64.0543C235.832 64.0683 235.466 64.0094 235.122 63.8811C234.778 63.7528 234.463 63.5576 234.195 63.3068C233.927 63.056 233.711 62.7546 233.56 62.4199C233.254 61.7431 233.227 60.9727 233.485 60.2762C233.744 59.5796 234.266 59.0132 234.94 58.6999L236.42 58.0199L238.74 63.1199L237.26 63.7999ZM243.56 67.8L242.08 68.48L239.74 63.3999L241.22 62.7199C241.556 62.5442 241.925 62.4386 242.303 62.4097C242.682 62.3807 243.062 62.429 243.421 62.5515C243.78 62.674 244.111 62.8683 244.392 63.1225C244.674 63.3766 244.901 63.6854 245.06 64.0301C245.219 64.3747 245.306 64.748 245.316 65.1274C245.326 65.5067 245.259 65.8841 245.118 66.2367C244.978 66.5893 244.768 66.9096 244.5 67.1784C244.232 67.4471 243.912 67.6586 243.56 67.8Z" fill="white"/>
<path d="M55.5 213.3C54.9586 212.112 53.9703 211.185 52.7496 210.72C51.529 210.256 50.1744 210.292 48.98 210.82C34.42 214.28 28.86 214.08 26.98 210.02L25.32 206.38C25.1571 206.001 25.0731 205.593 25.0731 205.18C25.0731 204.767 25.1571 204.359 25.32 203.98C25.5523 203.376 25.9543 202.851 26.4777 202.47C27.001 202.088 27.6235 201.866 28.27 201.83C28.9166 201.794 29.5598 201.946 30.1222 202.267C30.6846 202.588 31.1422 203.065 31.44 203.64C31.4824 203.733 31.56 203.805 31.6557 203.841C31.7513 203.876 31.8572 203.872 31.95 203.83C32.0428 203.788 32.115 203.71 32.1506 203.614C32.1863 203.519 32.1824 203.413 32.14 203.32C31.7758 202.616 31.217 202.031 30.5299 201.635C29.8429 201.238 29.0566 201.048 28.2644 201.086C27.4723 201.124 26.7078 201.389 26.0617 201.848C25.4156 202.308 24.9152 202.944 24.62 203.68C24.2696 204.58 24.2696 205.58 24.62 206.48C26.82 212.34 31.6 213.78 12.62 227.36C11.4687 227.937 10.5859 228.938 10.1569 230.153C9.72785 231.367 9.78604 232.701 10.3192 233.873C10.8524 235.046 11.819 235.966 13.0163 236.441C14.2135 236.916 15.5481 236.908 16.74 236.42L53.04 220C53.6457 219.727 54.1907 219.335 54.6434 218.849C55.096 218.362 55.4471 217.79 55.6761 217.166C55.9052 216.542 56.0076 215.879 55.9773 215.215C55.9471 214.552 55.7848 213.9 55.5 213.3ZM52.72 219.2L16.34 235.72C15.3345 236.192 14.1828 236.247 13.137 235.872C12.0912 235.498 11.2365 234.724 10.76 233.72C10.5203 233.204 10.3861 232.644 10.3651 232.075C10.3442 231.506 10.4371 230.939 10.6382 230.406C10.8394 229.874 11.1448 229.386 11.5366 228.973C11.9284 228.56 12.3987 228.229 12.92 228C23.58 220.42 27.76 216 27.56 212C28.4469 212.744 29.4732 213.304 30.5789 213.648C31.6845 213.991 32.8475 214.111 34 214C39.1806 213.737 44.3174 212.912 49.32 211.54C50.3288 211.136 51.4546 211.137 52.463 211.542C53.4713 211.947 54.2844 212.726 54.7329 213.716C55.1814 214.706 55.2308 215.83 54.8708 216.856C54.5107 217.881 53.7689 218.728 52.8 219.22L52.72 219.2Z" fill="white"/>
<path d="M326 344.66C316 332.3 296.7 325.74 284.5 312.66C290.099 311.063 295.52 308.898 300.68 306.2C300.734 306.168 300.779 306.123 300.81 306.069C300.841 306.014 300.857 305.953 300.857 305.89C300.857 305.827 300.841 305.766 300.81 305.712C300.779 305.657 300.734 305.612 300.68 305.58C261.6 275.36 227.54 201.08 220.46 182.58C221.646 174.813 221.768 166.92 220.82 159.12C225.5 157.38 264.02 141.12 282.82 108.3C282.86 108.241 282.881 108.171 282.881 108.1C282.881 108.029 282.86 107.959 282.82 107.9L282.1 106.84C288.88 99.94 317.62 84.84 312.3 84.14C310.832 84.0013 309.351 84.1508 307.94 84.58C309.48 83.62 311.5 82.38 313.28 81.4C314.12 80.96 314.42 80.5 314.18 80.06C313.68 79.1 309.96 79.36 307 80.4L314.26 72.4C314.544 72.0888 314.763 71.7243 314.904 71.3277C315.046 70.9311 315.107 70.5104 315.085 70.0899C315.062 69.6694 314.957 69.2575 314.774 68.8782C314.591 68.4988 314.335 68.1595 314.02 67.88L300.5 55.7C299.866 55.1311 299.031 54.8369 298.18 54.8819C297.329 54.9269 296.531 55.3074 295.96 55.94L277.96 75.94C277.391 76.5745 277.097 77.4086 277.142 78.2596C277.187 79.1106 277.567 79.9091 278.2 80.48L279.36 81.52C275.5 86.52 270.6 92.38 268.38 94.66C267.66 94.28 266.94 93.9 266.18 93.54C266.106 93.5041 266.022 93.4944 265.942 93.5125C265.862 93.5307 265.791 93.5757 265.74 93.64C250 113 228.1 134.16 203.54 138C198.26 138.84 194 135.84 193.3 132.64C197.66 131 199.12 127.68 196.88 123C202.496 121.792 207.466 118.549 210.833 113.896C214.2 109.243 215.727 103.508 215.118 97.7963C214.51 92.0846 211.81 86.8001 207.538 82.9605C203.266 79.1209 197.724 76.9978 191.98 77C177.3 77 165.28 90.62 169.58 107.56C166.061 102.691 160.995 99.1594 155.209 97.5411C149.424 95.9228 143.261 96.3136 137.726 98.6498C132.191 100.986 127.612 105.129 124.736 110.404C121.86 115.678 120.857 121.771 121.891 127.689C122.924 133.607 125.934 139 130.428 142.987C134.921 146.974 140.634 149.32 146.633 149.641C152.632 149.963 158.563 148.241 163.457 144.757C168.351 141.274 171.92 136.234 173.58 130.46C176.76 132.08 181 132.46 183.58 134.24C186.18 139.36 185.42 142.8 178.38 146.12C157.02 156.24 145.34 155.54 107.16 158.26C106.228 158.422 105.36 158.841 104.653 159.47C103.946 160.099 103.429 160.913 103.16 161.82C101.313 162.004 99.4553 162.064 97.6 162C85.22 157.4 82.6 153.52 75.48 148.82C74.68 148.28 73.66 148.82 73.92 150.08C74.6062 151.833 75.6172 153.442 76.9 154.82C73.74 153.3 69.44 150.82 66.54 149.6C66.3204 149.484 66.0666 149.451 65.8245 149.506C65.5824 149.561 65.368 149.701 65.22 149.9C64.82 150.52 65.04 151.9 68.38 154.82C68.92 155.28 71.16 157.24 73.02 158.82C71.16 158.22 69.28 157.52 67.34 156.82C62.88 155 60.3 154.58 59.7 155.64C59.5 156 58.84 157.14 64.48 161.44C71.3658 166.021 78.7457 169.811 86.48 172.74C86.6 172.94 87.38 173.3 87.3 173.92C87.04 175.92 79.3 178.12 77.3 179.24C75.12 180.58 73.6 181.58 73.92 182.52C74.08 183 74.64 183.42 77.04 183.42C86.0882 182.709 95.1685 182.496 104.24 182.78C106.36 186.78 108.24 186.6 110.04 186.52C136.26 185.44 162.64 181.04 180.88 174.72C183.14 180.84 184.88 186.5 185.74 188.24C177.92 196.06 168.84 187.94 157.48 247.92C131.48 247.92 123.04 249.92 98.06 252.8C97.9881 252.81 97.9203 252.84 97.8639 252.886C97.8076 252.931 97.7647 252.992 97.74 253.06C97.32 254.4 96.96 255.74 96.64 257.06C88.3369 257.364 80.0267 256.693 71.88 255.06C71.7977 255.038 71.7103 255.046 71.6334 255.083C71.5565 255.12 71.495 255.182 71.46 255.26C62.4 274.92 56.98 298.4 55.06 307.58C55.0451 307.65 55.0502 307.723 55.0746 307.79C55.0991 307.857 55.142 307.915 55.1983 307.959C55.2547 308.003 55.3223 308.03 55.3933 308.037C55.4644 308.045 55.536 308.032 55.6 308C75.14 298.86 75.96 278.82 95.32 276.62C96.0844 283.611 97.6548 290.49 100 297.12C100.013 297.169 100.037 297.214 100.069 297.254C100.101 297.293 100.141 297.325 100.186 297.347C100.232 297.37 100.281 297.383 100.332 297.385C100.382 297.387 100.433 297.379 100.48 297.36L165.74 276C170.397 274.478 174.525 271.662 177.64 267.88C187.042 256.499 194.873 243.907 200.92 230.44C208.92 255.42 231.46 295.66 245.3 317.5C245.335 317.552 245.383 317.595 245.439 317.623C245.495 317.651 245.557 317.664 245.62 317.66C251.257 317.679 256.891 317.405 262.5 316.84C270.12 327.52 268.68 329.88 271.44 335.08C271.486 335.159 271.556 335.222 271.64 335.26C284.14 340.38 311.76 345.26 325.64 345.38C325.736 345.428 325.846 345.436 325.947 345.402C326.049 345.368 326.132 345.296 326.18 345.2C326.228 345.105 326.236 344.994 326.202 344.893C326.168 344.792 326.095 344.708 326 344.66ZM313.34 80.3C313.176 80.4423 312.994 80.5632 312.8 80.66C309.52 82.46 305.46 85.08 304.98 85.4C303.467 85.9909 301.985 86.6584 300.54 87.4L305.7 81.68C308.057 80.4841 310.713 80.0044 313.34 80.3ZM278.52 79.82C278.04 79.3837 277.751 78.7752 277.718 78.1271C277.684 77.479 277.908 76.8439 278.34 76.36L296.34 56.36C296.78 55.8785 297.392 55.5895 298.043 55.5558C298.694 55.5221 299.333 55.7464 299.82 56.18L313.34 68.36C313.58 68.5747 313.775 68.8347 313.915 69.1252C314.054 69.4157 314.134 69.7309 314.151 70.0525C314.167 70.3742 314.12 70.696 314.012 70.9993C313.904 71.3027 313.737 71.5816 313.52 71.82L295.52 91.82C295.305 92.0692 295.041 92.2722 294.745 92.4168C294.449 92.5614 294.127 92.6447 293.798 92.6615C293.47 92.6783 293.141 92.6284 292.832 92.5147C292.523 92.401 292.24 92.2259 292 92L286.14 86.74C284.96 85.1 288.14 77.86 288.48 75.76C288.84 73.22 289.04 71.42 288.12 71.06C286.52 70.44 283.92 75.2 279.58 80.84L278.52 79.82ZM283.68 76.6C287.1 71.58 287.84 71.7 287.92 71.74C288 71.78 288.24 72.56 287.78 75.62C287.46 77.86 283.78 85.74 285.78 87.26L289.16 90.3C286.481 89.8367 283.727 90.0638 281.16 90.96C281.077 90.9986 281.01 91.066 280.973 91.1498C280.935 91.2336 280.929 91.3281 280.956 91.4159C280.983 91.5037 281.041 91.5788 281.119 91.6273C281.197 91.6759 281.289 91.6946 281.38 91.68C287.38 89.82 290.4 91.5 290.62 91.68L291.64 92.6C292.272 93.1714 293.105 93.4691 293.955 93.4278C294.806 93.3866 295.606 93.0098 296.18 92.38L299.18 89.06C299.9 88.64 307.72 84.34 312.14 84.88C310.8 87.28 287.44 100.4 281.64 106.2C278.276 101.599 273.957 97.7782 268.98 95C274.223 89.1486 279.131 83.0054 283.68 76.6ZM266 94.26C272.492 97.2863 278.027 102.04 282 108C263.48 140.24 225.02 156.56 220.72 158.26C219.251 150.654 216.978 143.226 213.94 136.1C230.82 130.24 248.34 116.14 266 94.26ZM182.36 130.58C182.14 130.26 181.1 129.18 180.54 129.14C173.74 128.74 173.78 122.84 177.58 123.9C180.18 124.62 180.72 123.9 179.96 121.9C178.68 118.46 179.02 113.18 181.36 111.56C183.36 110.22 186.34 111.44 190.02 115.26C192.657 117.74 194.837 120.665 196.46 123.9C197.227 125.39 197.371 127.124 196.86 128.72C195.36 132.5 188.86 132.84 188.86 132.84C188.78 132.845 188.703 132.875 188.642 132.926C188.58 132.978 188.536 133.047 188.516 133.125C188.496 133.202 188.501 133.284 188.53 133.359C188.56 133.434 188.612 133.497 188.68 133.54L195.06 136.64C195.631 137.09 196.248 137.479 196.9 137.8C194.56 140.24 190.78 141.52 185.1 141.8C186.96 138.18 184.62 134 182.36 130.58ZM184.6 142.58C190.94 142.34 195.08 140.92 197.62 138.14C199.449 138.859 201.435 139.087 203.38 138.8C205.451 143.025 207.093 147.447 208.28 152C204.28 155.54 198.28 157.4 188.9 158C186.739 153.602 184.356 149.316 181.76 145.16C182.855 144.454 183.817 143.561 184.6 142.52V142.58ZM75.06 149.36C81.6 153.68 83.78 156.86 93.46 161.06C88.3622 159.486 83.3604 157.616 78.48 155.46L77.02 153.7C75.9735 152.599 75.1695 151.291 74.66 149.86C74.54 149.28 74.76 149.16 75.06 149.36ZM68.88 154.16C65.96 151.62 65.7 150.46 65.86 150.16C66.02 149.86 66.08 150.16 66.22 150.16C69.56 151.66 75.18 154.86 78.42 156.16C83.5124 158.45 88.7505 160.401 94.1 162C87.6229 162.087 81.1719 161.163 74.98 159.26C73.14 157.88 69.58 154.78 68.88 154.16ZM81.22 182.16C75.22 182.74 74.8 182.16 74.76 182.02C74.72 181.88 75.18 181.24 77.82 179.62C80 178.32 89.26 176 88 173.06C89.26 173.52 90.54 173.94 91.82 174.36C91.9138 174.386 92.014 174.375 92.0999 174.329C92.1857 174.283 92.2508 174.206 92.2815 174.114C92.3123 174.022 92.3065 173.921 92.2653 173.833C92.2241 173.745 92.1506 173.676 92.06 173.64C82.4692 170.547 73.3451 166.16 64.94 160.6C59.88 156.74 60.36 155.76 60.36 155.76C60.36 155.76 62.04 155.22 67.06 157.28C72.5818 159.552 78.3462 161.183 84.24 162.14C93.0874 163.091 102.016 162.99 110.84 161.84C114.003 168.087 114.592 175.324 112.48 182C106 181.68 86.96 181.62 81.22 182.18V182.16ZM111.1 185.46C113.96 183.04 114.62 176.84 114.44 172.82C114.26 168.8 112.58 161 109.24 158.82C140.1 156.66 153.54 156.7 169.86 150.56C174.199 157.928 177.848 165.681 180.76 173.72C162.82 180 136.94 184.36 111.1 185.48V185.46ZM170.58 150.34C174.194 148.97 177.714 147.367 181.12 145.54C183.707 149.678 186.083 153.943 188.24 158.32C188.4 158.66 188.4 158.76 188.82 158.74C198.48 158.14 204.68 156.2 208.94 152.4C208.992 152.357 209.03 152.301 209.051 152.237C209.072 152.174 209.076 152.105 209.06 152.04C207.872 147.419 206.237 142.925 204.18 138.62C207.232 138.132 210.236 137.382 213.16 136.38C219.78 153.84 222.28 161.72 219.68 182.38C213.56 188.96 195.88 192.9 186.62 187.8C184.9 184.44 180 166 170.58 150.34ZM95.42 275.64C75.86 277.84 74.8 297.64 56.1 306.76C58.1 297.18 63.44 274.64 72.1 255.64C80.1562 257.195 88.3582 257.866 96.56 257.64C95.3092 263.553 94.9252 269.617 95.42 275.64ZM205.74 241.38C204.38 229.68 207.5 214.4 207.54 214.24C207.548 214.152 207.524 214.063 207.474 213.99C207.423 213.917 207.349 213.864 207.263 213.841C207.178 213.817 207.087 213.824 207.006 213.86C206.925 213.897 206.859 213.96 206.82 214.04C199.32 234.22 190.54 250.94 177.06 267.3C174.035 270.977 170.025 273.718 165.5 275.2L100.5 296.54C95.86 282.32 94.16 267.58 98.5 253.28C122.4 250.46 131.68 248.38 157.9 248.44C157.987 248.446 158.073 248.418 158.14 248.362C158.207 248.306 158.25 248.227 158.26 248.14C169.58 188.14 178.38 196.52 186.38 188.52C195.54 193.42 213.1 189.92 219.84 183.22C227.28 202.38 260.96 275.42 299.68 305.74C285.5 313.06 267.36 316.8 245.68 316.82C244 313.8 218.56 273.22 205.74 241.38ZM272 334.5C269.4 329.54 270.66 327.02 263.32 316.66C270.163 315.957 276.935 314.672 283.56 312.82C295.56 326.02 314.7 332.58 324.76 344.5C310.82 344 284.3 339.48 272 334.5Z" fill="white"/>
</svg>
