<svg width="400" height="400" viewBox="0 0 400 400" fill="none" xmlns="http://www.w3.org/2000/svg">
<path d="M330.718 180.92C325.628 122.732 325.872 124.2 325.574 124C305.27 117.22 305.542 117.074 305.25 117.128L288.682 26.022L275.578 10L302.478 157.918L301.182 158.154L274.282 10.236L267.658 29.848L281.94 108.37C255.089 97.9401 228.945 85.773 203.674 71.946C203.612 71.9124 203.541 71.897 203.47 71.9016C203.4 71.9062 203.332 71.9306 203.274 71.972C167.744 98.2801 130.687 122.459 92.296 144.382C92.21 144.43 92.08 144.474 92.11 145.24C92.196 147.36 93.168 156.84 97.062 201.364C103.89 279.398 158.132 365.164 231.134 389.98C231.184 389.997 231.236 390.003 231.289 389.999C231.341 389.994 231.392 389.979 231.438 389.954C244.045 382.947 255.627 374.238 265.86 364.074C265.926 364.003 265.962 363.909 265.961 363.811C265.959 363.714 265.92 363.621 265.852 363.552C265.784 363.483 265.691 363.442 265.594 363.439C265.497 363.436 265.402 363.471 265.33 363.536C255.186 373.613 243.71 382.253 231.22 389.214C162.47 365.75 105.136 285 97.82 201.296L92.88 144.916C131.15 123.049 168.095 98.94 203.522 72.716C228.892 86.5847 255.14 98.784 282.098 109.236L291.32 159.942L280.92 161.834C280.828 161.851 280.745 161.901 280.688 161.976C280.631 162.05 280.604 162.144 280.612 162.237C280.621 162.331 280.664 162.418 280.733 162.481C280.802 162.544 280.892 162.58 280.986 162.58C281.186 162.58 282.448 162.322 298.09 159.476C305.58 200.662 305.024 197.948 305.224 198.088C305.424 198.228 304.916 198.254 312.514 196.874C312.612 196.856 312.699 196.8 312.756 196.718C312.813 196.636 312.835 196.534 312.818 196.436L305.84 158.074L322.876 154.974C322.974 154.956 323.061 154.9 323.118 154.818C323.175 154.736 323.197 154.635 323.179 154.537C323.161 154.439 323.105 154.352 323.023 154.295C322.941 154.238 322.84 154.216 322.742 154.234L312.342 156.124L305.394 117.924C311.81 120.198 318.414 122.446 325.036 124.61L329.968 180.984C335.018 238.694 314.882 304.594 278.672 348.876C278.611 348.953 278.583 349.052 278.594 349.15C278.605 349.247 278.653 349.337 278.729 349.4C278.806 349.462 278.903 349.492 279.001 349.483C279.1 349.474 279.19 349.427 279.254 349.352C315.582 304.93 335.784 238.816 330.718 180.92Z" fill="white"/>
<path d="M63.42 247.344L56.174 263.036L48.056 253.49C47.9913 253.414 47.899 253.367 47.7994 253.358C47.6998 253.35 47.6011 253.382 47.525 253.447C47.4489 253.512 47.4016 253.604 47.3935 253.704C47.3854 253.803 47.4173 253.902 47.482 253.978C56.71 264.858 56.014 264.104 56.268 264.104C56.62 264.104 56.04 265.132 64.104 247.66C64.1459 247.569 64.15 247.466 64.1155 247.372C64.0984 247.325 64.0724 247.283 64.0388 247.246C64.0053 247.21 63.9649 247.181 63.92 247.16C63.8293 247.118 63.7256 247.114 63.6319 247.148C63.5381 247.183 63.4619 247.253 63.42 247.344Z" fill="white"/>
<path d="M352 353.504C351.991 353.406 351.944 353.316 351.869 353.252C351.795 353.189 351.698 353.157 351.6 353.164L329.338 355.11L328.662 347.388C328.409 344.486 329.318 341.601 331.191 339.37C333.064 337.138 335.747 335.742 338.649 335.489C341.551 335.235 344.435 336.145 346.667 338.018C348.898 339.891 350.295 342.574 350.548 345.476C350.557 345.575 350.605 345.667 350.681 345.731C350.758 345.796 350.857 345.827 350.956 345.818C351.056 345.809 351.147 345.761 351.212 345.685C351.276 345.608 351.307 345.509 351.298 345.41C351.005 342.326 349.504 339.483 347.124 337.501C344.743 335.519 341.676 334.558 338.59 334.828C335.504 335.098 332.65 336.577 330.65 338.942C328.649 341.308 327.665 344.368 327.912 347.456L329.734 368.278C330.005 371.379 331.498 374.246 333.883 376.247C336.267 378.248 339.35 379.22 342.451 378.949C345.552 378.678 348.419 377.185 350.42 374.8C352.422 372.416 353.393 369.333 353.122 366.232L352 353.504ZM342.37 378.2C339.469 378.45 336.587 377.539 334.356 375.667C332.125 373.795 330.728 371.115 330.47 368.214L329.39 355.864L351.276 353.948L352.358 366.298C352.608 369.2 351.697 372.083 349.825 374.314C347.952 376.545 345.271 377.943 342.37 378.2Z" fill="white"/>
<path d="M343.52 363.666C343.507 363.34 343.428 363.02 343.287 362.725C343.147 362.43 342.948 362.167 342.703 361.951C342.458 361.736 342.172 361.572 341.862 361.47C341.552 361.369 341.224 361.331 340.899 361.36C340.574 361.388 340.258 361.483 339.97 361.637C339.682 361.791 339.429 362.002 339.225 362.257C339.022 362.512 338.872 362.806 338.785 363.121C338.698 363.435 338.676 363.764 338.72 364.088L339 367.288C339.013 367.614 339.092 367.935 339.232 368.23C339.372 368.525 339.571 368.788 339.816 369.004C340.061 369.22 340.347 369.384 340.657 369.486C340.967 369.588 341.295 369.626 341.62 369.597C341.946 369.569 342.262 369.474 342.55 369.32C342.838 369.166 343.091 368.955 343.295 368.699C343.499 368.444 343.649 368.15 343.735 367.835C343.822 367.521 343.844 367.191 343.8 366.868L343.52 363.666ZM340.332 368.356C340.164 368.217 340.026 368.045 339.926 367.852C339.825 367.659 339.764 367.447 339.746 367.23L339.466 364.018C339.447 363.801 339.471 363.582 339.537 363.375C339.603 363.167 339.709 362.975 339.849 362.808C339.989 362.641 340.161 362.504 340.354 362.403C340.547 362.303 340.758 362.242 340.975 362.223C341.192 362.204 341.411 362.228 341.618 362.294C341.826 362.36 342.018 362.466 342.185 362.606C342.352 362.746 342.489 362.917 342.59 363.111C342.69 363.304 342.751 363.515 342.77 363.732L343.05 366.932C343.08 367.259 343.012 367.588 342.855 367.876C342.698 368.165 342.458 368.4 342.167 368.553C341.876 368.705 341.546 368.768 341.22 368.733C340.893 368.698 340.584 368.567 340.332 368.356Z" fill="white"/>
<path d="M110.518 88.8C111.966 88.673 113.345 88.1194 114.479 87.2092C115.612 86.2989 116.451 85.073 116.888 83.6862C117.325 82.2995 117.341 80.8142 116.934 79.4183C116.527 78.0225 115.716 76.7786 114.602 75.844C113.488 74.9094 112.122 74.3261 110.677 74.1677C109.231 74.0094 107.771 74.2832 106.482 74.9546C105.192 75.6259 104.13 76.6646 103.431 77.9393C102.731 79.214 102.425 80.6675 102.552 82.1159C102.725 84.0573 103.661 85.8508 105.154 87.1037C106.647 88.3565 108.576 88.9664 110.518 88.8ZM109.3 74.9C110.381 74.805 111.469 74.9783 112.468 75.4044C113.466 75.8305 114.344 76.4962 115.024 77.3426C115.703 78.1891 116.164 79.1901 116.364 80.2569C116.564 81.3238 116.498 82.4236 116.172 83.4589C115.845 84.4942 115.269 85.433 114.493 86.1921C113.717 86.9513 112.766 87.5073 111.724 87.8111C110.682 88.1148 109.581 88.1568 108.518 87.9333C107.456 87.7098 106.465 87.2278 105.634 86.53C104.635 85.6907 103.907 84.5743 103.542 83.3216C103.178 82.0689 103.192 80.7363 103.585 79.492C103.977 78.2477 104.729 77.1475 105.747 76.3306C106.764 75.5136 108 75.0165 109.3 74.902V74.9Z" fill="white"/>
<path d="M361.458 101.946L354.778 102.528C353.209 102.663 351.651 102.171 350.445 101.158C349.239 100.146 348.484 98.6963 348.346 97.1279L347.764 90.4479C347.756 90.3484 347.708 90.2564 347.632 90.1921C347.555 90.1278 347.456 90.0964 347.357 90.1049C347.258 90.1134 347.166 90.161 347.101 90.2373C347.037 90.3137 347.006 90.4124 347.014 90.5119L347.6 97.1999C347.735 98.7682 347.242 100.326 346.23 101.531C345.217 102.737 343.768 103.492 342.2 103.63L335.52 104.214C335.425 104.224 335.337 104.269 335.274 104.342C335.211 104.414 335.179 104.508 335.183 104.604C335.187 104.7 335.227 104.79 335.296 104.857C335.365 104.924 335.456 104.962 335.552 104.964L342.266 104.38C343.043 104.312 343.826 104.397 344.57 104.632C345.313 104.867 346.004 105.245 346.601 105.747C347.198 106.248 347.691 106.863 348.051 107.555C348.411 108.247 348.631 109.003 348.698 109.78L349.28 116.46C349.289 116.559 349.337 116.651 349.413 116.715C349.49 116.78 349.589 116.811 349.688 116.802C349.787 116.793 349.879 116.745 349.944 116.669C350.008 116.592 350.039 116.493 350.03 116.394L349.448 109.714C349.313 108.145 349.805 106.587 350.818 105.381C351.83 104.175 353.28 103.42 354.848 103.282L361.528 102.7C361.578 102.695 361.626 102.681 361.67 102.658C361.714 102.635 361.753 102.603 361.784 102.565C361.816 102.526 361.84 102.482 361.855 102.435C361.869 102.387 361.875 102.337 361.87 102.288C361.865 102.238 361.851 102.19 361.828 102.146C361.805 102.102 361.773 102.063 361.735 102.032C361.697 102 361.652 101.976 361.605 101.961C361.557 101.946 361.508 101.941 361.458 101.946ZM348.878 107.534C348.464 106.619 347.851 105.809 347.083 105.163C346.315 104.517 345.412 104.051 344.44 103.8C345.353 103.384 346.161 102.77 346.805 102.002C347.449 101.233 347.914 100.331 348.164 99.3599C348.579 100.274 349.194 101.083 349.963 101.729C350.732 102.374 351.636 102.839 352.608 103.09C351.694 103.505 350.884 104.12 350.239 104.889C349.593 105.658 349.128 106.562 348.878 107.534Z" fill="white"/>
<path d="M163.174 255.488C162.71 258.048 156.374 270.832 152.44 276.376C149.936 279.914 146.518 280.92 149.51 273.818C150.499 271.444 151.367 269.02 152.11 266.558C149.618 269.549 146.76 272.216 143.604 274.496C139.692 277.192 138.146 275.14 142.54 270.268C144.216 268.44 145.768 266.503 147.186 264.468C144.206 266.271 141.018 267.705 137.692 268.738C133.352 270.038 133.692 267.414 138.24 265.024C139.769 264.195 141.234 263.251 142.62 262.2C140.282 262.81 137.883 263.151 135.468 263.218C132.204 263.098 131.144 261.324 135.968 260.168C139.767 259.279 143.405 257.809 146.756 255.81C146.93 253.403 147.611 251.059 148.756 248.934C147.947 248.973 147.158 249.198 146.45 249.592C145.742 249.987 145.135 250.539 144.676 251.206C139.82 258.206 135.938 260.17 137.61 254.878C138.626 251.648 139.17 249.714 139.87 247.266C140.562 244.866 146.22 241.182 146.49 239.798C146.66 238.183 146.632 236.554 146.406 234.946C151.32 234.218 156.303 234.078 161.25 234.528C161.6 237.31 163.702 252.58 163.174 255.488Z" fill="#B2BEC3"/>
<path d="M209.82 150.498C209.39 154.028 208.698 157.098 211.396 159.748C204.463 160.489 197.627 161.949 190.996 164.104C193.608 163.165 195.783 161.297 197.104 158.856C197.409 158.421 197.65 157.944 197.82 157.44C201.116 150.078 199.442 139.79 198.746 139.218C192.044 133.644 196.992 127.476 200.22 131.618C201.776 133.618 202.53 133.502 202.93 132.262C204.246 125.818 212.28 116.374 216.53 129.338C216.969 130.705 217.326 132.097 217.6 133.506C220.8 149.45 214.816 151.354 209.82 150.498Z" fill="#B2BEC3"/>
<path d="M308.906 237.166L283.674 320.09C272.474 321.946 258.726 319.214 249.614 311.854L261.198 263.268C245.274 271.368 221.908 279.894 205.18 273.948L227.038 281.614C217.715 297.764 207.444 313.349 196.28 328.286C192.004 333.85 186.226 338.076 179.627 340.464C173.029 342.851 165.884 343.302 159.038 341.762C137.552 336.94 119.166 331.514 96.736 324.282C95.136 309.258 97.36 302.442 102.392 294.004L105.604 289.352C126.01 294.584 146.695 298.664 167.56 301.572C176.145 288.928 183.471 275.473 189.432 261.4C185.702 254.174 186.004 245.4 187.918 237.502C188.671 234.449 189.668 231.461 190.9 228.568C205.04 230.604 219.456 229.49 233.116 225.308L284.212 211.624C287.713 210.688 291.4 210.706 294.891 211.674C298.383 212.643 301.552 214.527 304.071 217.132C306.59 219.737 308.366 222.968 309.216 226.491C310.066 230.013 309.959 233.699 308.906 237.166V237.166Z" fill="#B2BEC3"/>
<path d="M312.12 173.43C312.814 173.342 313.494 173.25 313.788 173.184C317.114 172.414 316.132 166.972 312.044 167.562C311.86 167.592 309.954 167.692 309.954 167.692C310.308 167.622 313.62 166.924 313.966 166.834C317.068 166.002 316.028 160.674 312.206 161.342C310.806 161.59 306.782 162.382 305.308 162.658C294.948 164.518 291.296 165.132 288.366 166.64C294.566 171.292 298.608 178.9 300.766 187.206C304.834 186.15 308.936 185.704 311.898 184.898C312.168 184.86 312.432 184.824 312.698 184.774C315.898 184.222 315.182 179.016 311.266 179.374L313.35 179.052C316.528 178.4 315.818 173.34 312.12 173.43Z" fill="#B2BEC3"/>
<path d="M314 173.518C317.118 172.67 316.726 168.144 313.694 167.282C313.872 167.244 314 167.214 314.058 167.2C317.646 166.236 316.398 160.226 312.134 160.97C311.314 161.118 303.998 162.51 303.998 162.51C294.798 164.16 291.216 164.802 288.398 166.204C287.493 165.539 286.543 164.938 285.554 164.404C285.226 164.316 287.432 162.926 248.88 189.404C234.386 167.334 233.298 157.142 211.512 159.318C209.228 156.95 209.734 154.188 210.146 150.936C219.422 152.236 219.816 142.662 217.968 133.416C217.428 130.724 217.568 131.416 212.022 113.46C211.716 112.754 211.201 112.16 210.546 111.758C209.891 111.355 209.127 111.164 208.36 111.211C207.592 111.257 206.858 111.539 206.256 112.018C205.654 112.496 205.214 113.149 204.996 113.886C204.56 113.31 203.968 112.871 203.29 112.622C202.612 112.374 201.877 112.325 201.172 112.483C200.467 112.641 199.822 112.998 199.315 113.512C198.807 114.026 198.459 114.675 198.31 115.382C197.812 114.811 197.152 114.404 196.418 114.216C195.684 114.029 194.909 114.068 194.198 114.331C193.487 114.593 192.873 115.065 192.436 115.685C192 116.304 191.762 117.042 191.754 117.8C191.048 117.256 190.171 116.982 189.281 117.027C188.391 117.073 187.546 117.435 186.9 118.049C186.253 118.663 185.848 119.488 185.756 120.374C185.664 121.261 185.893 122.151 186.4 122.884C188.736 127.332 200 149.44 197.466 157.332C196.873 158.817 195.972 160.159 194.824 161.27C193.675 162.381 192.303 163.237 190.8 163.78C177.147 168.318 164.216 174.791 152.4 183C138.8 192.28 138.622 197.634 138.214 210.572C137.836 219.802 137.999 229.047 138.702 238.258C138.62 240.4 142.452 241.21 144.832 241.258C143.32 242.694 140.032 245.318 139.5 247.158C139.5 247.158 137.584 253.674 137.242 254.758C136.642 256.684 136.696 257.796 137.432 258.158C139.388 259.084 143.726 253.198 144.974 251.418C145.708 250.361 146.824 249.631 148.086 249.382C147.14 251.326 146.56 253.428 146.376 255.582C143.109 257.517 139.566 258.94 135.868 259.802C132.8 260.538 132.234 261.462 132.298 262.11C132.382 262.958 133.588 263.526 135.444 263.596C137.258 263.555 139.065 263.355 140.844 262.996C139.944 263.616 139.009 264.184 138.044 264.698C136.588 265.464 133.714 267.328 134.304 268.768C134.492 269.228 135.194 269.886 137.782 269.108C140.574 268.242 143.271 267.095 145.832 265.686C144.705 267.194 143.504 268.645 142.232 270.032C140.98 271.42 138.472 274.608 139.896 275.808L139.924 275.83C139.986 275.879 140.053 275.922 140.124 275.956L140.146 275.968C141.546 276.614 144.022 274.692 145.234 273.742C147.351 272.072 149.33 270.233 151.152 268.244C150.552 270.074 149.884 271.92 149.138 273.688C148.366 275.206 147.978 276.89 148.008 278.592C148.035 278.755 148.097 278.91 148.192 279.045C148.286 279.18 148.41 279.293 148.553 279.374C148.697 279.455 148.856 279.504 149.021 279.515C149.186 279.526 149.351 279.501 149.504 279.44C150.833 278.835 151.953 277.85 152.724 276.61C157.064 270.055 160.675 263.047 163.494 255.708C163.978 253.552 162.71 242.93 162.414 240.728C165.532 240.28 167.734 238.928 167.656 237.448C167.222 229.282 166.078 211.77 166.13 205.484C171.184 203.028 178.018 198.832 183.432 197.07C187.132 206.128 189.018 218.07 190.492 228.544C186.25 238.798 183.99 251.454 188.892 261.302C183.163 275.33 175.95 288.705 167.378 301.2C146.604 298.288 126.009 294.215 105.69 289C105.616 288.982 105.538 288.987 105.467 289.014C105.395 289.042 105.334 289.09 105.29 289.152C105.29 289.152 101.908 294.078 101.83 294.21C95.8946 291.968 89.7917 290.198 83.578 288.916C83.466 288.894 83.492 288.862 83.276 288.986C82.764 289.276 80.894 290.446 72.632 294.716C60.7386 300.455 49.4831 307.432 39.052 315.53C38.6717 315.835 38.3914 316.246 38.2475 316.711C38.1036 317.177 38.1027 317.675 38.2449 318.141C38.3871 318.607 38.6658 319.019 39.045 319.325C39.4242 319.631 39.8865 319.816 40.372 319.856C66.004 321.856 83.922 316.8 95.896 318.456L96.36 324.32C96.3653 324.394 96.3927 324.465 96.4387 324.524C96.4847 324.582 96.5471 324.625 96.618 324.648C118.09 331.572 136.906 337.196 158.948 342.144C165.865 343.686 173.079 343.224 179.743 340.812C186.408 338.4 192.246 334.138 196.574 328.526C209.453 311.457 221.118 293.506 231.484 274.804C231.499 274.776 231.511 274.746 231.518 274.714C241.627 272.348 251.406 268.75 260.638 264C248.864 313.38 249.222 311.578 249.238 311.934C250.714 313.319 252.376 314.491 254.176 315.416C251.899 321.411 250.105 327.579 248.81 333.86C248.792 333.951 248.808 334.046 248.856 334.126C255.322 345.092 261.74 361.294 275.422 378.386C275.726 378.767 276.137 379.049 276.603 379.193C277.068 379.338 277.567 379.339 278.033 379.197C278.499 379.055 278.912 378.776 279.218 378.396C279.524 378.017 279.708 377.554 279.748 377.068C280.515 364.282 280.172 351.453 278.722 338.726C277.903 332.859 277.804 326.913 278.426 321.022C280.203 320.957 281.975 320.781 283.73 320.496C283.803 320.483 283.871 320.449 283.925 320.398C283.979 320.347 284.017 320.281 284.034 320.208L309.264 237.3C310.334 233.769 310.441 230.016 309.573 226.43C308.705 222.844 306.895 219.555 304.329 216.903C301.764 214.252 298.536 212.334 294.98 211.349C291.425 210.364 287.67 210.347 284.106 211.3L233.718 224.794C234.753 221.417 235.232 217.895 235.136 214.364C237.842 217.353 241.514 219.294 245.508 219.844C249.502 220.394 253.563 219.52 256.976 217.374C304.35 187.988 301.75 190 301.716 189.6C301.696 189.38 301.326 187.866 301.228 187.48C305.144 186.498 309.266 186.01 311.95 185.28C312.228 185.242 312.496 185.206 312.76 185.156C313.37 185.007 313.919 184.675 314.335 184.204C314.75 183.733 315.011 183.147 315.084 182.524C315.156 181.9 315.036 181.269 314.74 180.716C314.444 180.163 313.985 179.713 313.426 179.428C314.048 179.259 314.604 178.905 315.02 178.413C315.436 177.921 315.693 177.313 315.755 176.671C315.817 176.03 315.683 175.384 315.369 174.821C315.056 174.258 314.578 173.803 314 173.518ZM198.4 157.078C201.066 150.618 200.304 140.81 199.098 139.034C198.96 138.834 195.282 136.082 195.864 132.766C196.238 130.622 198.288 129.724 199.942 131.84C200.93 133.102 201.652 133.624 202.28 133.516C202.838 133.424 203.142 132.87 203.316 132.33C204.16 128.202 208.238 122.146 211.886 123.392C215.072 124.48 216.58 130.264 217.24 133.568C218.898 141.872 218.24 147.15 215.306 149.26C211.336 152.108 204.362 148.14 204.292 148.1C204.249 148.075 204.202 148.059 204.153 148.053C204.104 148.047 204.054 148.05 204.006 148.063C203.91 148.089 203.828 148.152 203.778 148.238C203.728 148.325 203.715 148.427 203.741 148.524C203.766 148.62 203.83 148.702 203.916 148.752C205.636 149.707 207.488 150.402 209.412 150.814C208.996 154.044 208.514 156.906 210.598 159.414C205.089 160.061 199.643 161.162 194.316 162.708C196.142 161.217 197.549 159.277 198.4 157.078ZM151.764 266.372C149.303 269.312 146.488 271.937 143.382 274.186C141.604 275.412 140.6 275.45 140.358 275.174C140.012 274.774 140.38 273.216 142.812 270.52C145.822 267.187 148.487 263.557 150.766 259.686C151.581 260.172 152.43 260.598 153.306 260.96C152.786 262.914 152.276 264.712 151.764 266.372ZM141.164 267.08C139.922 267.608 134.764 269.598 135.004 268.28C135.104 267.75 136.042 266.598 138.404 265.352C141.942 263.266 145.266 260.837 148.328 258.1C148.852 258.486 149.468 258.9 150.114 259.3C148.914 261.25 147.868 262.836 146.93 264.17C145.083 265.284 143.155 266.256 141.162 267.08H141.164ZM153.498 260.226C151.472 259.348 149.583 258.183 147.888 256.768C147.813 256.708 147.718 256.678 147.622 256.685C147.527 256.693 147.437 256.736 147.372 256.807C147.307 256.878 147.272 256.97 147.273 257.067C147.274 257.163 147.311 257.255 147.378 257.324C147.482 257.418 147.598 257.524 147.726 257.624C145.614 259.398 143.912 260.764 142.45 261.846C140.17 262.434 137.831 262.765 135.478 262.834C133.878 262.774 133.078 262.318 133.054 262.034C133.034 261.822 133.532 261.14 136.054 260.538C139.884 259.632 143.553 258.148 146.936 256.138C146.995 256.107 147.044 256.06 147.079 256.004C147.114 255.947 147.134 255.883 147.136 255.816C147.301 253.534 147.937 251.311 149.002 249.286C150.039 249.285 151.045 249.638 151.854 250.286C154.026 252.032 154.62 255.642 153.496 260.226H153.498ZM149.51 278.636C149.423 278.684 149.327 278.714 149.228 278.723C149.129 278.733 149.029 278.722 148.934 278.692C148.48 278.334 148.872 276.778 149.034 276.224C151.057 271.204 152.757 266.061 154.124 260.824C157.294 248.824 148.414 245.872 144.568 250.714C143.304 252.571 141.88 254.315 140.314 255.926C139.068 257.126 138.19 257.61 137.816 257.5L137.772 257.484C137.172 257.186 138.172 254.364 138.436 253.484C140.488 246.826 139.912 247.128 141.742 245.204C143.858 242.98 146.638 241.036 146.858 239.874C147.042 238.345 147.023 236.798 146.802 235.274C151.476 234.622 156.208 234.488 160.912 234.874C161.244 237.432 163.368 252.998 162.786 255.54C159.991 262.784 156.419 269.705 152.134 276.18C151.466 277.195 150.565 278.037 149.508 278.636H149.51ZM39.524 316.124C56.432 302.586 72.724 296.076 83.572 289.692C84.954 289.972 86.416 290.304 88.014 290.692C76.674 297.154 60.68 304.716 44.32 318.404C44.0204 318.651 43.7805 318.963 43.618 319.316C42.56 319.26 41.498 319.186 40.434 319.104C40.1009 319.074 39.7844 318.945 39.5248 318.734C39.2652 318.523 39.0744 318.24 38.9767 317.92C38.879 317.6 38.8789 317.259 38.9764 316.939C39.0739 316.619 39.2646 316.335 39.524 316.124ZM195.976 328.078C191.736 333.577 186.016 337.753 179.487 340.115C172.958 342.478 165.891 342.93 159.114 341.418C137.18 336.496 118.442 330.902 97.09 324.018C96.7914 321.47 96.6239 318.908 96.588 316.342C96.438 306.142 98.788 301.452 102.732 294.182L105.762 289.8C126.098 295.007 146.711 299.07 167.502 301.968C167.571 301.979 167.642 301.97 167.706 301.942C167.77 301.914 167.825 301.868 167.864 301.81C176.414 289.39 183.622 276.098 189.366 262.156C194.444 271.374 203.366 273.716 210.54 276.228L206.388 281.882C206.347 281.938 206.323 282.005 206.317 282.074C206.312 282.143 206.325 282.213 206.357 282.275C206.388 282.337 206.436 282.389 206.495 282.426C206.554 282.462 206.622 282.482 206.692 282.482C206.962 282.482 206.62 282.838 211.292 276.482L226.59 281.846C217.37 297.887 207.145 313.328 195.976 328.078ZM279 377C278.972 377.335 278.844 377.654 278.633 377.916C278.422 378.177 278.137 378.37 277.816 378.468C277.494 378.566 277.15 378.565 276.829 378.465C276.508 378.366 276.224 378.173 276.014 377.91C262.43 360.942 256.014 344.828 249.58 333.862C249.908 332.24 250.304 330.542 250.806 328.586C257.626 340.262 265.028 356.876 279.206 374.038C279.14 375.02 279.074 376 279 377ZM308.544 237.08L283.378 319.782C272.212 321.554 258.864 318.748 250.034 311.73L261.522 263.548C268.03 260.234 272.262 257.512 272.304 257.486C272.38 257.429 272.431 257.346 272.449 257.253C272.466 257.16 272.447 257.064 272.397 256.984C272.346 256.904 272.268 256.846 272.176 256.822C272.085 256.797 271.988 256.808 271.904 256.852C271.862 256.88 267.592 259.626 261.032 262.958C244.684 271.286 222.098 279.462 204.832 273.432C185.338 266.622 183.274 248.02 191.142 229C197.347 229.823 203.614 230.087 209.866 229.786C208.951 232.105 208.324 234.528 208 237C207.989 237.098 208.018 237.197 208.079 237.274C208.14 237.351 208.229 237.402 208.327 237.414C208.425 237.426 208.523 237.4 208.602 237.34C208.68 237.28 208.732 237.192 208.746 237.094C209.083 234.568 209.74 232.096 210.702 229.736C218.362 229.386 225.942 228.023 233.244 225.68L284.302 212C287.739 211.081 291.359 211.098 294.787 212.049C298.215 212.999 301.326 214.849 303.798 217.407C306.271 219.965 308.014 223.138 308.848 226.596C309.682 230.054 309.575 233.673 308.54 237.076L308.544 237.08ZM235.426 213.54L217.214 192.552C217.151 192.482 217.065 192.439 216.971 192.43C216.878 192.42 216.785 192.446 216.71 192.503C216.635 192.559 216.583 192.641 216.566 192.733C216.548 192.825 216.565 192.92 216.614 193L234.014 220.174C233.793 221.83 233.395 223.457 232.828 225.028C219.362 229.102 205.172 230.201 191.24 228.25C189.664 217.05 187.424 202.082 181.988 192.198C181.572 191.598 181.696 191.772 173.942 200.534C170.792 202.196 168.024 203.734 165.62 204.892C165.557 204.923 165.504 204.97 165.467 205.029C165.429 205.088 165.409 205.156 165.408 205.226C165.336 209.514 166.192 227.17 166.808 235.92C163.296 233.046 151.106 233.86 146.688 234.52C144.606 234.822 140.888 235.534 139.36 236.994C138.739 228.214 138.606 219.405 138.96 210.61C139.372 197.576 139.526 192.7 152.818 183.636C168.72 172.79 187.71 163.662 206.912 160.676C213.624 159.632 221.46 158.958 227.274 161.876C235.196 165.858 238.584 175.452 248.454 190.148C248.782 190.634 247.04 191.58 285.438 165.212C294.056 169.966 298.814 179.872 300.906 189.444L256.566 216.716C253.246 218.807 249.286 219.636 245.406 219.053C241.527 218.47 237.985 216.514 235.426 213.54ZM313.274 178.682C312.764 178.788 311.658 178.924 311.24 178.978C310.946 179.012 310.608 179.798 311.272 179.748C314.718 179.436 315.376 183.93 312.626 184.404C312.37 184.454 312.114 184.488 311.802 184.534C309.154 185.254 304.752 185.816 301.04 186.746C299.014 179.132 295.24 171.566 289.078 166.712C291.768 165.47 295.39 164.82 304.136 163.25C304.136 163.25 311.452 161.85 312.272 161.712C315.626 161.124 316.5 165.766 313.872 166.47C313.54 166.556 310.262 167.246 309.872 167.324C309.374 167.424 309.618 168.158 309.972 168.138C310.456 168.108 312.012 167.948 312.09 167.938C315.74 167.414 316.522 172.17 313.702 172.818C313.19 172.936 311.36 173.138 310.502 173.256C310.413 173.279 310.335 173.334 310.283 173.411C310.231 173.487 310.21 173.58 310.222 173.671C310.234 173.763 310.279 173.847 310.349 173.907C310.418 173.968 310.508 174.001 310.6 174L311.782 173.864C315.378 173.444 316.07 178.112 313.274 178.682Z" fill="white"/>
<path d="M280.568 238.328C280.617 238.333 280.667 238.329 280.714 238.315C280.762 238.301 280.806 238.278 280.844 238.247C280.883 238.216 280.915 238.178 280.938 238.134C280.962 238.091 280.977 238.043 280.982 237.994C280.987 237.945 280.983 237.895 280.969 237.848C280.955 237.801 280.932 237.756 280.901 237.718C280.87 237.679 280.831 237.648 280.788 237.624C280.745 237.6 280.697 237.585 280.648 237.58C278.416 237.34 277.448 237.856 272.808 239.38C272.722 239.408 272.649 239.465 272.602 239.541C272.555 239.618 272.537 239.709 272.552 239.798C272.566 239.887 272.612 239.967 272.68 240.025C272.749 240.083 272.836 240.115 272.926 240.114C273.042 240.114 277.126 238.742 277.232 238.714C278.304 238.348 279.441 238.217 280.568 238.328Z" fill="white"/>
<path d="M239.706 249.15C236.906 249.84 234.306 250.428 231.956 250.898C231.858 250.918 231.772 250.976 231.717 251.059C231.662 251.142 231.642 251.244 231.662 251.342C231.682 251.44 231.74 251.526 231.823 251.581C231.906 251.636 232.008 251.656 232.106 251.636C234.456 251.164 237.074 250.574 239.886 249.88C239.981 249.855 240.063 249.793 240.113 249.708C240.163 249.623 240.178 249.522 240.154 249.427C240.131 249.331 240.07 249.248 239.987 249.197C239.903 249.145 239.802 249.128 239.706 249.15Z" fill="white"/>
<path d="M218.88 252.322C218.124 252.277 217.378 252.132 216.66 251.892C214.951 251.29 213.385 250.34 212.06 249.104C211.987 249.041 211.893 249.008 211.796 249.012C211.7 249.016 211.609 249.058 211.542 249.127C211.475 249.197 211.438 249.29 211.437 249.386C211.437 249.483 211.474 249.576 211.54 249.646C213.522 251.564 216.086 252.769 218.828 253.072C218.926 253.077 219.022 253.043 219.095 252.977C219.169 252.912 219.214 252.82 219.22 252.722C219.227 252.624 219.195 252.528 219.132 252.453C219.068 252.378 218.978 252.331 218.88 252.322Z" fill="white"/>
<path d="M260.146 243.41C257.632 244.182 255.076 244.946 252.524 245.686C252.428 245.714 252.347 245.779 252.299 245.866C252.251 245.954 252.239 246.057 252.267 246.153C252.295 246.249 252.36 246.33 252.447 246.378C252.535 246.426 252.638 246.438 252.734 246.41C255.288 245.668 257.85 244.904 260.366 244.13C260.461 244.101 260.541 244.035 260.588 243.947C260.635 243.859 260.645 243.755 260.616 243.66C260.587 243.565 260.521 243.485 260.433 243.438C260.345 243.391 260.241 243.381 260.146 243.41Z" fill="white"/>
<path d="M285.968 256.034C288.208 247.662 288.124 248.044 288.218 247.434C288.234 247.335 288.209 247.234 288.151 247.154C288.092 247.073 288.004 247.019 287.905 247.003C287.806 246.987 287.706 247.011 287.625 247.07C287.544 247.129 287.49 247.217 287.474 247.316C287.376 247.948 287.408 247.748 285.24 255.836C285.227 255.884 285.224 255.934 285.23 255.983C285.236 256.032 285.252 256.079 285.277 256.122C285.301 256.165 285.334 256.203 285.373 256.233C285.412 256.264 285.457 256.286 285.505 256.299C285.553 256.312 285.603 256.315 285.652 256.309C285.701 256.303 285.748 256.287 285.791 256.262C285.834 256.238 285.872 256.205 285.902 256.166C285.933 256.127 285.955 256.082 285.968 256.034Z" fill="white"/>
<path d="M270.832 309.704L268.776 317.388C268.749 317.485 268.762 317.588 268.812 317.675C268.861 317.762 268.943 317.825 269.04 317.852C269.137 317.879 269.24 317.866 269.327 317.816C269.414 317.767 269.477 317.685 269.504 317.588L271.558 309.904C271.571 309.856 271.575 309.807 271.569 309.757C271.563 309.708 271.547 309.661 271.522 309.618C271.498 309.575 271.465 309.537 271.426 309.507C271.387 309.477 271.343 309.454 271.295 309.441C271.247 309.428 271.198 309.424 271.148 309.43C271.099 309.436 271.052 309.452 271.009 309.477C270.966 309.501 270.928 309.534 270.898 309.573C270.868 309.612 270.845 309.656 270.832 309.704Z" fill="white"/>
<path d="M281.8 268.67L279.744 276.354C279.717 276.451 279.73 276.554 279.78 276.641C279.829 276.728 279.911 276.792 280.008 276.818C280.104 276.845 280.208 276.832 280.295 276.782C280.382 276.733 280.445 276.651 280.472 276.554L282.528 268.872C282.555 268.776 282.542 268.672 282.493 268.585C282.443 268.498 282.362 268.434 282.265 268.407C282.168 268.38 282.065 268.393 281.978 268.442C281.891 268.492 281.827 268.574 281.8 268.67Z" fill="white"/>
<path d="M276.32 289.188L274.264 296.872C274.237 296.969 274.25 297.072 274.3 297.159C274.349 297.246 274.431 297.31 274.528 297.336C274.625 297.363 274.728 297.35 274.815 297.3C274.902 297.251 274.965 297.169 274.992 297.072L277.048 289.388C277.074 289.292 277.062 289.188 277.012 289.101C276.963 289.014 276.881 288.951 276.784 288.924C276.736 288.911 276.686 288.907 276.637 288.914C276.588 288.92 276.54 288.936 276.497 288.96C276.41 289.01 276.347 289.092 276.32 289.188Z" fill="white"/>
<path d="M198.528 292.6L193.822 299C193.781 299.056 193.755 299.122 193.749 299.192C193.743 299.261 193.757 299.331 193.788 299.393C193.819 299.455 193.867 299.508 193.927 299.544C193.986 299.581 194.054 299.6 194.124 299.6C194.4 299.6 194.018 300.014 199.136 293.036C199.178 292.955 199.189 292.862 199.168 292.774C199.147 292.686 199.094 292.608 199.021 292.555C198.947 292.502 198.856 292.477 198.766 292.486C198.675 292.494 198.591 292.535 198.528 292.6Z" fill="white"/>
<path d="M185.96 309.71C181.712 315.49 180.078 318.298 175.96 320.998C175.919 321.025 175.883 321.06 175.855 321.101C175.827 321.142 175.808 321.188 175.798 321.237C175.788 321.285 175.788 321.335 175.797 321.384C175.806 321.432 175.825 321.479 175.852 321.52C175.879 321.561 175.914 321.597 175.955 321.625C175.996 321.653 176.042 321.672 176.091 321.682C176.139 321.692 176.189 321.693 176.238 321.683C176.286 321.674 176.333 321.655 176.374 321.628C180.666 318.808 182.302 315.948 186.562 310.156C186.606 310.076 186.62 309.983 186.6 309.893C186.581 309.804 186.529 309.724 186.456 309.67C186.382 309.616 186.292 309.59 186.2 309.597C186.109 309.604 186.024 309.645 185.96 309.71Z" fill="white"/>
<path d="M163.616 324.612C160.216 324.57 158.238 323.812 151.416 322.232C151.319 322.208 151.216 322.224 151.131 322.276C151.046 322.328 150.985 322.412 150.961 322.509C150.937 322.606 150.953 322.709 151.005 322.794C151.057 322.879 151.141 322.94 151.238 322.964C157.788 324.544 160.2 325.342 163.6 325.364C163.7 325.366 163.796 325.329 163.868 325.26C163.94 325.191 163.982 325.096 163.984 324.996C163.986 324.896 163.949 324.8 163.88 324.728C163.811 324.656 163.716 324.614 163.616 324.612Z" fill="white"/>
<path d="M117.864 314.144L110.13 312.28C110.033 312.257 109.931 312.273 109.845 312.325C109.76 312.377 109.699 312.461 109.676 312.558C109.653 312.655 109.669 312.757 109.721 312.843C109.773 312.928 109.857 312.989 109.954 313.012L117.686 314.876C117.783 314.9 117.886 314.884 117.971 314.832C118.056 314.78 118.117 314.696 118.141 314.599C118.165 314.502 118.149 314.399 118.097 314.314C118.045 314.229 117.961 314.168 117.864 314.144Z" fill="white"/>
<path d="M138.51 319.12L130.778 317.256C130.681 317.232 130.578 317.248 130.493 317.3C130.408 317.352 130.347 317.436 130.323 317.533C130.299 317.63 130.315 317.733 130.367 317.818C130.419 317.903 130.503 317.964 130.6 317.988L138.332 319.852C138.429 319.876 138.532 319.86 138.617 319.808C138.702 319.756 138.763 319.672 138.787 319.575C138.811 319.478 138.795 319.375 138.743 319.29C138.691 319.205 138.607 319.144 138.51 319.12Z" fill="white"/>
</svg>
