<svg width="400" height="401" viewBox="0 0 400 401" fill="none" xmlns="http://www.w3.org/2000/svg">
<path d="M330.718 181.602C325.628 123.414 325.872 124.882 325.574 124.682C305.27 117.902 305.542 117.756 305.25 117.81L288.682 26.7036L275.578 10.6816L302.478 158.6L301.182 158.836L274.282 10.9176L267.658 30.5296L281.94 109.052C255.089 98.6217 228.945 86.4546 203.674 72.6276C203.612 72.594 203.541 72.5787 203.47 72.5833C203.4 72.5878 203.332 72.6122 203.274 72.6536C167.744 98.9618 130.687 123.141 92.296 145.064C92.21 145.112 92.08 145.156 92.11 145.922C92.196 148.042 93.168 157.522 97.062 202.046C103.89 280.08 158.132 365.846 231.134 390.662C231.184 390.678 231.236 390.685 231.289 390.68C231.341 390.676 231.392 390.661 231.438 390.636C244.045 383.628 255.627 374.92 265.86 364.756C265.926 364.684 265.962 364.59 265.961 364.493C265.959 364.396 265.92 364.303 265.852 364.233C265.784 364.164 265.691 364.124 265.594 364.121C265.497 364.118 265.402 364.153 265.33 364.218C255.186 374.295 243.71 382.935 231.22 389.896C162.47 366.432 105.136 285.682 97.82 201.978L92.88 145.598C131.15 123.73 168.095 99.6216 203.522 73.3976C228.892 87.2664 255.14 99.4656 282.098 109.918L291.32 160.624L280.92 162.516C280.828 162.532 280.745 162.583 280.688 162.658C280.631 162.732 280.604 162.825 280.612 162.919C280.621 163.012 280.664 163.099 280.733 163.163C280.802 163.226 280.892 163.261 280.986 163.262C281.186 163.262 282.448 163.004 298.09 160.158C305.58 201.344 305.024 198.63 305.224 198.77C305.424 198.91 304.916 198.936 312.514 197.556C312.612 197.538 312.699 197.481 312.756 197.399C312.813 197.317 312.835 197.216 312.818 197.118L305.84 158.756L322.876 155.656C322.974 155.638 323.061 155.582 323.118 155.5C323.175 155.418 323.197 155.317 323.179 155.219C323.161 155.121 323.105 155.033 323.023 154.977C322.941 154.92 322.84 154.898 322.742 154.916L312.342 156.806L305.394 118.606C311.81 120.88 318.414 123.128 325.036 125.292L329.968 181.666C335.018 239.376 314.882 305.276 278.672 349.558C278.611 349.635 278.583 349.733 278.594 349.831C278.605 349.929 278.653 350.019 278.729 350.081C278.806 350.144 278.903 350.173 279.001 350.165C279.1 350.156 279.19 350.109 279.254 350.034C315.582 305.612 335.784 239.498 330.718 181.602Z" fill="#1890ff"/>
<path d="M63.42 248.026L56.174 263.718L48.056 254.172C47.9913 254.096 47.899 254.048 47.7994 254.04C47.6998 254.032 47.6011 254.064 47.525 254.129C47.4489 254.193 47.4016 254.286 47.3935 254.385C47.3854 254.485 47.4173 254.583 47.482 254.66C56.71 265.54 56.014 264.786 56.268 264.786C56.62 264.786 56.04 265.814 64.104 248.342C64.1459 248.251 64.15 248.147 64.1155 248.054C64.0984 248.007 64.0724 247.964 64.0388 247.928C64.0053 247.892 63.9649 247.862 63.92 247.842C63.8293 247.8 63.7256 247.796 63.6319 247.83C63.5381 247.865 63.4619 247.935 63.42 248.026Z" fill="#1890ff"/>
<path d="M352 354.186C351.991 354.088 351.944 353.998 351.869 353.934C351.795 353.871 351.698 353.839 351.6 353.846L329.338 355.792L328.662 348.07C328.409 345.167 329.318 342.283 331.191 340.052C333.064 337.82 335.747 336.424 338.649 336.171C341.551 335.917 344.435 336.827 346.667 338.7C348.898 340.573 350.295 343.255 350.548 346.158C350.557 346.257 350.605 346.349 350.681 346.413C350.758 346.477 350.857 346.508 350.956 346.5C351.056 346.491 351.147 346.443 351.212 346.366C351.276 346.29 351.307 346.191 351.298 346.092C351.005 343.008 349.504 340.165 347.124 338.183C344.743 336.201 341.676 335.24 338.59 335.51C335.504 335.78 332.65 337.259 330.65 339.624C328.649 341.989 327.665 345.05 327.912 348.138L329.734 368.96C330.005 372.061 331.498 374.928 333.883 376.929C336.267 378.93 339.35 379.902 342.451 379.631C345.552 379.359 348.419 377.867 350.42 375.482C352.422 373.097 353.393 370.015 353.122 366.914L352 354.186ZM342.37 378.882C339.469 379.131 336.587 378.22 334.356 376.348C332.125 374.476 330.728 371.796 330.47 368.896L329.39 356.546L351.276 354.63L352.358 366.98C352.608 369.882 351.697 372.764 349.825 374.996C347.952 377.227 345.271 378.624 342.37 378.882Z" fill="#1890ff"/>
<path d="M343.52 364.348C343.507 364.021 343.428 363.701 343.287 363.407C343.147 363.112 342.948 362.849 342.703 362.633C342.458 362.418 342.172 362.254 341.862 362.152C341.552 362.051 341.224 362.013 340.899 362.041C340.574 362.07 340.258 362.164 339.97 362.319C339.682 362.473 339.429 362.684 339.225 362.939C339.022 363.194 338.872 363.488 338.785 363.803C338.698 364.117 338.676 364.446 338.72 364.77L339 367.97C339.013 368.296 339.092 368.616 339.232 368.911C339.372 369.206 339.571 369.47 339.816 369.686C340.061 369.902 340.347 370.065 340.657 370.167C340.967 370.269 341.295 370.307 341.62 370.279C341.946 370.25 342.262 370.156 342.55 370.002C342.838 369.848 343.091 369.636 343.295 369.381C343.499 369.126 343.649 368.832 343.735 368.517C343.822 368.202 343.844 367.873 343.8 367.55L343.52 364.348ZM340.332 369.038C340.164 368.898 340.026 368.727 339.926 368.534C339.825 368.34 339.764 368.129 339.746 367.912L339.466 364.7C339.447 364.483 339.471 364.264 339.537 364.057C339.603 363.849 339.709 363.656 339.849 363.49C339.989 363.323 340.161 363.186 340.354 363.085C340.547 362.985 340.758 362.923 340.975 362.905C341.192 362.886 341.411 362.91 341.618 362.976C341.826 363.041 342.018 363.147 342.185 363.287C342.352 363.428 342.489 363.599 342.59 363.792C342.69 363.986 342.751 364.197 342.77 364.414L343.05 367.614C343.08 367.941 343.012 368.27 342.855 368.558C342.698 368.847 342.458 369.082 342.167 369.235C341.876 369.387 341.546 369.45 341.22 369.415C340.893 369.38 340.584 369.248 340.332 369.038Z" fill="#1890ff"/>
<path d="M110.518 89.4816C111.966 89.3546 113.345 88.8011 114.479 87.8908C115.612 86.9806 116.451 85.7546 116.888 84.3678C117.325 82.9811 117.341 81.4959 116.934 80.1C116.527 78.7041 115.716 77.4602 114.602 76.5256C113.488 75.591 112.122 75.0077 110.677 74.8494C109.231 74.6911 107.771 74.9649 106.482 75.6362C105.192 76.3075 104.13 77.3462 103.431 78.6209C102.731 79.8956 102.425 81.3491 102.552 82.7976C102.725 84.7389 103.661 86.5325 105.154 87.7853C106.647 89.0381 108.576 89.6481 110.518 89.4816ZM109.3 75.5816C110.381 75.4867 111.469 75.6599 112.468 76.086C113.466 76.5121 114.344 77.1779 115.024 78.0243C115.703 78.8707 116.164 79.8717 116.364 80.9386C116.564 82.0054 116.498 83.1052 116.172 84.1405C115.845 85.1758 115.269 86.1146 114.493 86.8738C113.717 87.6329 112.766 88.189 111.724 88.4927C110.682 88.7964 109.581 88.8384 108.518 88.6149C107.456 88.3915 106.465 87.9095 105.634 87.2116C104.635 86.3724 103.907 85.2559 103.542 84.0033C103.178 82.7506 103.192 81.4179 103.585 80.1736C103.977 78.9293 104.729 77.8292 105.747 77.0122C106.764 76.1952 108 75.6981 109.3 75.5836V75.5816Z" fill="#1890ff"/>
<path d="M361.458 102.628L354.778 103.21C353.209 103.345 351.651 102.852 350.445 101.84C349.239 100.828 348.484 99.3781 348.346 97.8096L347.764 91.1296C347.756 91.0302 347.708 90.9382 347.632 90.8738C347.555 90.8095 347.456 90.7782 347.357 90.7866C347.258 90.7951 347.166 90.8428 347.101 90.9191C347.037 90.9954 347.006 91.0942 347.014 91.1936L347.6 97.8816C347.735 99.45 347.242 101.008 346.23 102.213C345.217 103.419 343.768 104.173 342.2 104.312L335.52 104.896C335.425 104.905 335.337 104.951 335.274 105.024C335.211 105.096 335.179 105.19 335.183 105.286C335.187 105.382 335.227 105.472 335.296 105.539C335.365 105.606 335.456 105.644 335.552 105.646L342.266 105.062C343.043 104.994 343.826 105.079 344.57 105.314C345.313 105.548 346.004 105.927 346.601 106.429C347.198 106.93 347.691 107.545 348.051 108.237C348.411 108.929 348.631 109.685 348.698 110.462L349.28 117.142C349.289 117.241 349.337 117.333 349.413 117.397C349.49 117.461 349.589 117.492 349.688 117.484C349.787 117.475 349.879 117.427 349.944 117.35C350.008 117.274 350.039 117.175 350.03 117.076L349.448 110.396C349.313 108.827 349.805 107.269 350.818 106.063C351.83 104.857 353.28 104.102 354.848 103.964L361.528 103.382C361.578 103.377 361.626 103.363 361.67 103.34C361.714 103.316 361.753 103.285 361.784 103.246C361.816 103.208 361.84 103.164 361.855 103.117C361.869 103.069 361.875 103.019 361.87 102.97C361.865 102.92 361.851 102.872 361.828 102.828C361.805 102.784 361.773 102.745 361.735 102.713C361.697 102.682 361.652 102.658 361.605 102.643C361.557 102.628 361.508 102.623 361.458 102.628ZM348.878 108.216C348.464 107.301 347.851 106.491 347.083 105.845C346.315 105.198 345.412 104.733 344.44 104.482C345.353 104.066 346.161 103.452 346.805 102.683C347.449 101.915 347.914 101.013 348.164 100.042C348.579 100.956 349.194 101.765 349.963 102.411C350.732 103.056 351.636 103.521 352.608 103.772C351.694 104.187 350.884 104.801 350.239 105.57C349.593 106.339 349.128 107.243 348.878 108.216Z" fill="#1890ff"/>
<path d="M163.174 256.17C162.71 258.73 156.374 271.514 152.44 277.058C149.936 280.596 146.518 281.602 149.51 274.5C150.499 272.125 151.367 269.702 152.11 267.24C149.618 270.231 146.76 272.898 143.604 275.178C139.692 277.874 138.146 275.822 142.54 270.95C144.216 269.122 145.768 267.184 147.186 265.15C144.206 266.953 141.018 268.386 137.692 269.42C133.352 270.72 133.692 268.096 138.24 265.706C139.769 264.877 141.234 263.933 142.62 262.882C140.282 263.491 137.883 263.833 135.468 263.9C132.204 263.78 131.144 262.006 135.968 260.85C139.767 259.96 143.405 258.49 146.756 256.492C146.93 254.084 147.611 251.741 148.756 249.616C147.947 249.655 147.158 249.88 146.45 250.274C145.742 250.668 145.135 251.22 144.676 251.888C139.82 258.888 135.938 260.852 137.61 255.56C138.626 252.33 139.17 250.396 139.87 247.948C140.562 245.548 146.22 241.864 146.49 240.48C146.66 238.865 146.632 237.236 146.406 235.628C151.32 234.9 156.303 234.76 161.25 235.21C161.6 237.992 163.702 253.262 163.174 256.17Z" fill="#FFE7EA"/>
<path d="M209.82 151.18C209.39 154.71 208.698 157.78 211.396 160.43C204.463 161.171 197.627 162.631 190.996 164.786C193.608 163.847 195.783 161.979 197.104 159.538C197.409 159.102 197.65 158.625 197.82 158.122C201.116 150.76 199.442 140.472 198.746 139.9C192.044 134.326 196.992 128.158 200.22 132.3C201.776 134.3 202.53 134.184 202.93 132.944C204.246 126.5 212.28 117.056 216.53 130.02C216.969 131.387 217.326 132.778 217.6 134.188C220.8 150.132 214.816 152.036 209.82 151.18Z" fill="#FFE7EA"/>
<path d="M308.906 237.848L283.674 320.772C272.474 322.628 258.726 319.896 249.614 312.536L261.198 263.95C245.274 272.05 221.908 280.576 205.18 274.63L227.038 282.296C217.715 298.446 207.444 314.031 196.28 328.968C192.004 334.532 186.226 338.758 179.627 341.145C173.029 343.533 165.884 343.984 159.038 342.444C137.552 337.622 119.166 332.196 96.736 324.964C95.136 309.94 97.36 303.124 102.392 294.686L105.604 290.034C126.01 295.266 146.695 299.346 167.56 302.254C176.145 289.609 183.471 276.154 189.432 262.082C185.702 254.856 186.004 246.082 187.918 238.184C188.671 235.13 189.668 232.143 190.9 229.25C205.04 231.285 219.456 230.172 233.116 225.99L284.212 212.306C287.713 211.37 291.4 211.387 294.891 212.356C298.383 213.324 301.552 215.209 304.071 217.814C306.59 220.419 308.366 223.65 309.216 227.173C310.066 230.695 309.959 234.381 308.906 237.848Z" fill="#FFE7EA"/>
<path d="M312.12 174.112C312.814 174.024 313.494 173.932 313.788 173.866C317.114 173.096 316.132 167.654 312.044 168.244C311.86 168.274 309.954 168.374 309.954 168.374C310.308 168.304 313.62 167.606 313.966 167.516C317.068 166.684 316.028 161.356 312.206 162.024C310.806 162.272 306.782 163.064 305.308 163.34C294.948 165.2 291.296 165.814 288.366 167.322C294.566 171.974 298.608 179.582 300.766 187.888C304.834 186.832 308.936 186.386 311.898 185.58C312.168 185.542 312.432 185.506 312.698 185.456C315.898 184.904 315.182 179.698 311.266 180.056L313.35 179.734C316.528 179.082 315.818 174.022 312.12 174.112Z" fill="#FFE7EA"/>
<path d="M314 174.2C317.118 173.352 316.726 168.826 313.694 167.964C313.872 167.926 314 167.896 314.058 167.882C317.646 166.918 316.398 160.908 312.134 161.652C311.314 161.8 303.998 163.192 303.998 163.192C294.798 164.842 291.216 165.484 288.398 166.886C287.493 166.22 286.543 165.619 285.554 165.086C285.226 164.998 287.432 163.608 248.88 190.086C234.386 168.016 233.298 157.824 211.512 160C209.228 157.632 209.734 154.87 210.146 151.618C219.422 152.918 219.816 143.344 217.968 134.098C217.428 131.406 217.568 132.098 212.022 114.142C211.716 113.436 211.201 112.842 210.546 112.439C209.891 112.037 209.127 111.846 208.36 111.892C207.592 111.939 206.858 112.221 206.256 112.699C205.654 113.178 205.214 113.83 204.996 114.568C204.56 113.991 203.968 113.553 203.29 113.304C202.612 113.055 201.877 113.007 201.172 113.164C200.467 113.322 199.822 113.679 199.315 114.193C198.807 114.708 198.459 115.357 198.31 116.064C197.812 115.492 197.152 115.086 196.418 114.898C195.684 114.71 194.909 114.75 194.198 115.012C193.487 115.275 192.873 115.747 192.436 116.366C192 116.986 191.762 117.724 191.754 118.482C191.048 117.937 190.171 117.663 189.281 117.709C188.391 117.755 187.546 118.117 186.9 118.731C186.253 119.345 185.848 120.169 185.756 121.056C185.664 121.942 185.893 122.833 186.4 123.566C188.736 128.014 200 150.122 197.466 158.014C196.873 159.498 195.972 160.84 194.824 161.951C193.675 163.063 192.303 163.918 190.8 164.462C177.147 169 164.216 175.473 152.4 183.682C138.8 192.962 138.622 198.316 138.214 211.254C137.836 220.484 137.999 229.728 138.702 238.94C138.62 241.082 142.452 241.892 144.832 241.94C143.32 243.376 140.032 246 139.5 247.84C139.5 247.84 137.584 254.356 137.242 255.44C136.642 257.366 136.696 258.478 137.432 258.84C139.388 259.766 143.726 253.88 144.974 252.1C145.708 251.043 146.824 250.312 148.086 250.064C147.14 252.008 146.56 254.109 146.376 256.264C143.109 258.198 139.566 259.622 135.868 260.484C132.8 261.22 132.234 262.144 132.298 262.792C132.382 263.64 133.588 264.208 135.444 264.278C137.258 264.237 139.065 264.036 140.844 263.678C139.944 264.297 139.009 264.866 138.044 265.38C136.588 266.146 133.714 268.01 134.304 269.45C134.492 269.91 135.194 270.568 137.782 269.79C140.574 268.923 143.271 267.777 145.832 266.368C144.705 267.876 143.504 269.326 142.232 270.714C140.98 272.102 138.472 275.29 139.896 276.49L139.924 276.512C139.986 276.561 140.053 276.603 140.124 276.638L140.146 276.65C141.546 277.296 144.022 275.374 145.234 274.424C147.351 272.753 149.33 270.914 151.152 268.926C150.552 270.756 149.884 272.602 149.138 274.37C148.366 275.887 147.978 277.571 148.008 279.274C148.035 279.436 148.097 279.591 148.192 279.726C148.286 279.862 148.41 279.974 148.553 280.056C148.697 280.137 148.856 280.185 149.021 280.197C149.186 280.208 149.351 280.182 149.504 280.122C150.833 279.517 151.953 278.532 152.724 277.292C157.064 270.737 160.675 263.728 163.494 256.39C163.978 254.234 162.71 243.612 162.414 241.41C165.532 240.962 167.734 239.61 167.656 238.13C167.222 229.964 166.078 212.452 166.13 206.166C171.184 203.71 178.018 199.514 183.432 197.752C187.132 206.81 189.018 218.752 190.492 229.226C186.25 239.48 183.99 252.136 188.892 261.984C183.163 276.011 175.95 289.387 167.378 301.882C146.604 298.969 126.009 294.896 105.69 289.682C105.616 289.664 105.538 289.669 105.467 289.696C105.395 289.723 105.334 289.771 105.29 289.834C105.29 289.834 101.908 294.76 101.83 294.892C95.8946 292.65 89.7917 290.88 83.578 289.598C83.466 289.576 83.492 289.544 83.276 289.668C82.764 289.958 80.894 291.128 72.632 295.398C60.7386 301.137 49.4831 308.113 39.052 316.212C38.6717 316.516 38.3914 316.928 38.2475 317.393C38.1036 317.858 38.1027 318.356 38.2449 318.822C38.3871 319.288 38.6658 319.701 39.045 320.007C39.4242 320.312 39.8865 320.497 40.372 320.538C66.004 322.538 83.922 317.482 95.896 319.138L96.36 325.002C96.3653 325.076 96.3927 325.147 96.4387 325.205C96.4847 325.264 96.5471 325.307 96.618 325.33C118.09 332.254 136.906 337.878 158.948 342.826C165.865 344.368 173.079 343.906 179.743 341.494C186.408 339.082 192.246 334.82 196.574 329.208C209.453 312.139 221.118 294.187 231.484 275.486C231.499 275.457 231.511 275.427 231.518 275.396C241.627 273.03 251.406 269.431 260.638 264.682C248.864 314.062 249.222 312.26 249.238 312.616C250.714 314 252.376 315.172 254.176 316.098C251.899 322.093 250.105 328.261 248.81 334.542C248.792 334.633 248.808 334.728 248.856 334.808C255.322 345.774 261.74 361.976 275.422 379.068C275.726 379.449 276.137 379.73 276.603 379.875C277.068 380.019 277.567 380.021 278.033 379.878C278.499 379.736 278.912 379.457 279.218 379.078C279.524 378.698 279.708 378.235 279.748 377.75C280.515 364.963 280.172 352.135 278.722 339.408C277.903 333.54 277.804 327.595 278.426 321.704C280.203 321.639 281.975 321.463 283.73 321.178C283.803 321.165 283.871 321.13 283.925 321.079C283.979 321.028 284.017 320.962 284.034 320.89L309.264 237.982C310.334 234.451 310.441 230.698 309.573 227.112C308.705 223.525 306.895 220.236 304.329 217.585C301.764 214.933 298.536 213.016 294.98 212.03C291.425 211.045 287.67 211.028 284.106 211.982L233.718 225.476C234.753 222.099 235.232 218.576 235.136 215.046C237.842 218.035 241.514 219.975 245.508 220.526C249.502 221.076 253.563 220.201 256.976 218.056C304.35 188.67 301.75 190.682 301.716 190.282C301.696 190.062 301.326 188.548 301.228 188.162C305.144 187.18 309.266 186.692 311.95 185.962C312.228 185.924 312.496 185.888 312.76 185.838C313.37 185.688 313.919 185.356 314.335 184.886C314.75 184.415 315.011 183.829 315.084 183.205C315.156 182.582 315.036 181.951 314.74 181.398C314.444 180.844 313.985 180.395 313.426 180.11C314.048 179.941 314.604 179.587 315.02 179.094C315.436 178.602 315.693 177.995 315.755 177.353C315.817 176.711 315.683 176.066 315.369 175.503C315.056 174.939 314.578 174.485 314 174.2ZM198.4 157.76C201.066 151.3 200.304 141.492 199.098 139.716C198.96 139.516 195.282 136.764 195.864 133.448C196.238 131.304 198.288 130.406 199.942 132.522C200.93 133.784 201.652 134.306 202.28 134.198C202.838 134.106 203.142 133.552 203.316 133.012C204.16 128.884 208.238 122.828 211.886 124.074C215.072 125.162 216.58 130.946 217.24 134.25C218.898 142.554 218.24 147.832 215.306 149.942C211.336 152.79 204.362 148.822 204.292 148.782C204.249 148.757 204.202 148.741 204.153 148.734C204.104 148.728 204.054 148.731 204.006 148.744C203.91 148.77 203.828 148.833 203.778 148.92C203.728 149.006 203.715 149.109 203.741 149.205C203.766 149.302 203.83 149.384 203.916 149.434C205.636 150.389 207.488 151.084 209.412 151.496C208.996 154.726 208.514 157.588 210.598 160.096C205.089 160.742 199.643 161.844 194.316 163.39C196.142 161.898 197.549 159.958 198.4 157.76ZM151.764 267.054C149.303 269.994 146.488 272.619 143.382 274.868C141.604 276.094 140.6 276.132 140.358 275.856C140.012 275.456 140.38 273.898 142.812 271.202C145.822 267.868 148.487 264.238 150.766 260.368C151.581 260.853 152.43 261.279 153.306 261.642C152.786 263.596 152.276 265.394 151.764 267.054ZM141.164 267.762C139.922 268.29 134.764 270.28 135.004 268.962C135.104 268.432 136.042 267.28 138.404 266.034C141.942 263.948 145.266 261.519 148.328 258.782C148.852 259.168 149.468 259.582 150.114 259.982C148.914 261.932 147.868 263.518 146.93 264.852C145.083 265.965 143.155 266.938 141.162 267.762H141.164ZM153.498 260.908C151.472 260.029 149.583 258.865 147.888 257.45C147.813 257.389 147.718 257.36 147.622 257.367C147.527 257.374 147.437 257.417 147.372 257.488C147.307 257.559 147.272 257.652 147.273 257.748C147.274 257.844 147.311 257.936 147.378 258.006C147.482 258.1 147.598 258.206 147.726 258.306C145.614 260.08 143.912 261.446 142.45 262.528C140.17 263.115 137.831 263.446 135.478 263.516C133.878 263.456 133.078 263 133.054 262.716C133.034 262.504 133.532 261.822 136.054 261.22C139.884 260.314 143.553 258.83 146.936 256.82C146.995 256.788 147.044 256.742 147.079 256.685C147.114 256.629 147.134 256.564 147.136 256.498C147.301 254.216 147.937 251.992 149.002 249.968C150.039 249.967 151.045 250.32 151.854 250.968C154.026 252.714 154.62 256.324 153.496 260.908H153.498ZM149.51 279.318C149.423 279.365 149.327 279.395 149.228 279.405C149.129 279.414 149.029 279.404 148.934 279.374C148.48 279.016 148.872 277.46 149.034 276.906C151.057 271.886 152.757 266.742 154.124 261.506C157.294 249.506 148.414 246.554 144.568 251.396C143.304 253.253 141.88 254.997 140.314 256.608C139.068 257.808 138.19 258.292 137.816 258.182L137.772 258.166C137.172 257.868 138.172 255.046 138.436 254.166C140.488 247.508 139.912 247.81 141.742 245.886C143.858 243.662 146.638 241.718 146.858 240.556C147.042 239.027 147.023 237.48 146.802 235.956C151.476 235.304 156.208 235.169 160.912 235.556C161.244 238.114 163.368 253.68 162.786 256.222C159.991 263.466 156.419 270.386 152.134 276.862C151.466 277.877 150.565 278.718 149.508 279.318H149.51ZM39.524 316.806C56.432 303.268 72.724 296.758 83.572 290.374C84.954 290.654 86.416 290.986 88.014 291.374C76.674 297.836 60.68 305.398 44.32 319.086C44.0204 319.333 43.7805 319.645 43.618 319.998C42.56 319.942 41.498 319.868 40.434 319.786C40.1009 319.756 39.7844 319.627 39.5248 319.416C39.2652 319.205 39.0744 318.922 38.9767 318.602C38.879 318.282 38.8789 317.94 38.9764 317.62C39.0739 317.3 39.2646 317.017 39.524 316.806ZM195.976 328.76C191.736 334.258 186.016 338.434 179.487 340.797C172.958 343.16 165.891 343.612 159.114 342.1C137.18 337.178 118.442 331.584 97.09 324.7C96.7914 322.151 96.6239 319.589 96.588 317.024C96.438 306.824 98.788 302.134 102.732 294.864L105.762 290.482C126.098 295.689 146.711 299.751 167.502 302.65C167.571 302.66 167.642 302.651 167.706 302.623C167.77 302.595 167.825 302.55 167.864 302.492C176.414 290.072 183.622 276.779 189.366 262.838C194.444 272.056 203.366 274.398 210.54 276.91L206.388 282.564C206.347 282.62 206.323 282.686 206.317 282.756C206.312 282.825 206.325 282.894 206.357 282.956C206.388 283.018 206.436 283.071 206.495 283.107C206.554 283.144 206.622 283.163 206.692 283.164C206.962 283.164 206.62 283.52 211.292 277.164L226.59 282.528C217.37 298.568 207.145 314.01 195.976 328.76ZM279 377.682C278.972 378.017 278.844 378.336 278.633 378.597C278.422 378.859 278.137 379.051 277.816 379.149C277.494 379.247 277.15 379.246 276.829 379.147C276.508 379.048 276.224 378.854 276.014 378.592C262.43 361.624 256.014 345.51 249.58 334.544C249.908 332.922 250.304 331.224 250.806 329.268C257.626 340.944 265.028 357.558 279.206 374.72C279.14 375.702 279.074 376.682 279 377.682ZM308.544 237.762L283.378 320.464C272.212 322.236 258.864 319.43 250.034 312.412L261.522 264.23C268.03 260.916 272.262 258.194 272.304 258.168C272.38 258.111 272.431 258.028 272.449 257.935C272.466 257.842 272.447 257.746 272.397 257.666C272.346 257.586 272.268 257.528 272.176 257.503C272.085 257.479 271.988 257.49 271.904 257.534C271.862 257.562 267.592 260.308 261.032 263.64C244.684 271.968 222.098 280.144 204.832 274.114C185.338 267.304 183.274 248.702 191.142 229.682C197.347 230.505 203.614 230.768 209.866 230.468C208.951 232.787 208.324 235.21 208 237.682C207.989 237.78 208.018 237.878 208.079 237.955C208.14 238.033 208.229 238.083 208.327 238.096C208.425 238.108 208.523 238.081 208.602 238.021C208.68 237.962 208.732 237.873 208.746 237.776C209.083 235.25 209.74 232.777 210.702 230.418C218.362 230.068 225.942 228.704 233.244 226.362L284.302 212.682C287.739 211.763 291.359 211.779 294.787 212.73C298.215 213.681 301.326 215.531 303.798 218.089C306.271 220.647 308.014 223.819 308.848 227.277C309.682 230.736 309.575 234.354 308.54 237.758L308.544 237.762ZM235.426 214.222L217.214 193.234C217.151 193.164 217.065 193.12 216.971 193.111C216.878 193.102 216.785 193.128 216.71 193.184C216.635 193.24 216.583 193.322 216.566 193.414C216.548 193.506 216.565 193.602 216.614 193.682L234.014 220.856C233.793 222.511 233.395 224.138 232.828 225.71C219.362 229.783 205.172 230.883 191.24 228.932C189.664 217.732 187.424 202.764 181.988 192.88C181.572 192.28 181.696 192.454 173.942 201.216C170.792 202.878 168.024 204.416 165.62 205.574C165.557 205.604 165.504 205.651 165.467 205.71C165.429 205.769 165.409 205.838 165.408 205.908C165.336 210.196 166.192 227.852 166.808 236.602C163.296 233.728 151.106 234.542 146.688 235.202C144.606 235.504 140.888 236.216 139.36 237.676C138.739 228.895 138.606 220.087 138.96 211.292C139.372 198.258 139.526 193.382 152.818 184.318C168.72 173.472 187.71 164.344 206.912 161.358C213.624 160.314 221.46 159.64 227.274 162.558C235.196 166.54 238.584 176.134 248.454 190.83C248.782 191.316 247.04 192.262 285.438 165.894C294.056 170.648 298.814 180.554 300.906 190.126L256.566 217.398C253.246 219.488 249.286 220.318 245.406 219.735C241.527 219.152 237.985 217.196 235.426 214.222ZM313.274 179.364C312.764 179.47 311.658 179.606 311.24 179.66C310.946 179.694 310.608 180.48 311.272 180.43C314.718 180.118 315.376 184.612 312.626 185.086C312.37 185.136 312.114 185.17 311.802 185.216C309.154 185.936 304.752 186.498 301.04 187.428C299.014 179.814 295.24 172.248 289.078 167.394C291.768 166.152 295.39 165.502 304.136 163.932C304.136 163.932 311.452 162.532 312.272 162.394C315.626 161.806 316.5 166.448 313.872 167.152C313.54 167.238 310.262 167.928 309.872 168.006C309.374 168.106 309.618 168.84 309.972 168.82C310.456 168.79 312.012 168.63 312.09 168.62C315.74 168.096 316.522 172.852 313.702 173.5C313.19 173.618 311.36 173.82 310.502 173.938C310.413 173.961 310.335 174.016 310.283 174.092C310.231 174.169 310.21 174.261 310.222 174.353C310.234 174.445 310.279 174.528 310.349 174.589C310.418 174.65 310.508 174.682 310.6 174.682L311.782 174.546C315.378 174.126 316.07 178.794 313.274 179.364Z" fill="#1890ff"/>
<path d="M280.568 239.01C280.617 239.015 280.667 239.01 280.714 238.996C280.762 238.983 280.806 238.959 280.844 238.928C280.883 238.897 280.915 238.859 280.938 238.816C280.962 238.772 280.977 238.725 280.982 238.676C280.987 238.627 280.983 238.577 280.969 238.529C280.955 238.482 280.932 238.438 280.901 238.399C280.87 238.361 280.831 238.329 280.788 238.305C280.745 238.282 280.697 238.267 280.648 238.262C278.416 238.022 277.448 238.538 272.808 240.062C272.722 240.089 272.649 240.146 272.602 240.223C272.555 240.3 272.537 240.391 272.552 240.479C272.566 240.568 272.612 240.649 272.68 240.707C272.749 240.765 272.836 240.796 272.926 240.796C273.042 240.796 277.126 239.424 277.232 239.396C278.304 239.03 279.441 238.898 280.568 239.01Z" fill="#1890ff"/>
<path d="M239.706 249.832C236.906 250.522 234.306 251.11 231.956 251.58C231.858 251.6 231.772 251.657 231.717 251.741C231.662 251.824 231.642 251.926 231.662 252.024C231.682 252.121 231.74 252.207 231.823 252.263C231.906 252.318 232.008 252.338 232.106 252.318C234.456 251.846 237.074 251.256 239.886 250.562C239.981 250.536 240.063 250.475 240.113 250.39C240.163 250.305 240.178 250.204 240.154 250.108C240.131 250.013 240.07 249.93 239.987 249.878C239.903 249.827 239.802 249.81 239.706 249.832Z" fill="#1890ff"/>
<path d="M218.88 253.004C218.124 252.958 217.378 252.814 216.66 252.574C214.951 251.971 213.385 251.022 212.06 249.786C211.987 249.722 211.893 249.689 211.796 249.694C211.7 249.698 211.609 249.739 211.542 249.809C211.475 249.879 211.438 249.971 211.437 250.068C211.437 250.164 211.474 250.257 211.54 250.328C213.522 252.246 216.086 253.451 218.828 253.754C218.926 253.758 219.022 253.724 219.095 253.659C219.169 253.593 219.214 253.502 219.22 253.404C219.227 253.306 219.195 253.209 219.132 253.134C219.068 253.06 218.978 253.013 218.88 253.004Z" fill="#1890ff"/>
<path d="M260.146 244.092C257.632 244.864 255.076 245.628 252.524 246.368C252.428 246.395 252.347 246.46 252.299 246.548C252.251 246.635 252.239 246.739 252.267 246.835C252.295 246.931 252.36 247.012 252.447 247.06C252.535 247.108 252.638 247.119 252.734 247.092C255.288 246.35 257.85 245.586 260.366 244.812C260.461 244.782 260.541 244.717 260.588 244.628C260.635 244.54 260.645 244.437 260.616 244.342C260.587 244.246 260.521 244.166 260.433 244.119C260.345 244.072 260.241 244.062 260.146 244.092Z" fill="#1890ff"/>
<path d="M285.968 256.716C288.208 248.344 288.124 248.726 288.218 248.116C288.234 248.017 288.209 247.916 288.151 247.835C288.092 247.754 288.004 247.7 287.905 247.685C287.806 247.669 287.706 247.693 287.625 247.752C287.544 247.811 287.49 247.899 287.474 247.998C287.376 248.63 287.408 248.43 285.24 256.518C285.227 256.565 285.224 256.615 285.23 256.664C285.236 256.714 285.252 256.761 285.277 256.804C285.301 256.847 285.334 256.885 285.373 256.915C285.412 256.945 285.457 256.968 285.505 256.981C285.553 256.994 285.603 256.997 285.652 256.991C285.701 256.985 285.748 256.969 285.791 256.944C285.834 256.919 285.872 256.887 285.902 256.847C285.933 256.808 285.955 256.763 285.968 256.716Z" fill="#1890ff"/>
<path d="M270.832 310.386L268.776 318.07C268.749 318.166 268.762 318.269 268.812 318.356C268.861 318.443 268.943 318.507 269.04 318.534C269.137 318.56 269.24 318.547 269.327 318.498C269.414 318.448 269.477 318.366 269.504 318.27L271.558 310.586C271.571 310.538 271.575 310.488 271.569 310.439C271.563 310.39 271.547 310.343 271.522 310.3C271.498 310.257 271.465 310.219 271.426 310.189C271.387 310.158 271.343 310.136 271.295 310.123C271.247 310.11 271.198 310.106 271.148 310.112C271.099 310.118 271.052 310.134 271.009 310.158C270.966 310.183 270.928 310.215 270.898 310.254C270.868 310.293 270.845 310.338 270.832 310.386Z" fill="#1890ff"/>
<path d="M281.8 269.352L279.744 277.036C279.717 277.132 279.73 277.235 279.78 277.322C279.829 277.409 279.911 277.473 280.008 277.5C280.104 277.526 280.208 277.513 280.295 277.464C280.382 277.414 280.445 277.332 280.472 277.236L282.528 269.554C282.555 269.457 282.542 269.354 282.493 269.267C282.443 269.179 282.362 269.115 282.265 269.089C282.168 269.062 282.065 269.075 281.978 269.124C281.891 269.173 281.827 269.255 281.8 269.352Z" fill="#1890ff"/>
<path d="M276.32 289.87L274.264 297.554C274.237 297.65 274.25 297.753 274.3 297.84C274.349 297.927 274.431 297.991 274.528 298.018C274.625 298.044 274.728 298.031 274.815 297.982C274.902 297.932 274.965 297.85 274.992 297.754L277.048 290.07C277.074 289.973 277.062 289.87 277.012 289.783C276.963 289.696 276.881 289.632 276.784 289.606C276.736 289.593 276.686 289.589 276.637 289.595C276.588 289.601 276.54 289.617 276.497 289.642C276.41 289.691 276.347 289.773 276.32 289.87Z" fill="#1890ff"/>
<path d="M198.528 293.282L193.822 299.682C193.781 299.738 193.755 299.804 193.749 299.873C193.743 299.943 193.757 300.012 193.788 300.075C193.819 300.137 193.867 300.189 193.927 300.226C193.986 300.262 194.054 300.282 194.124 300.282C194.4 300.282 194.018 300.696 199.136 293.718C199.178 293.637 199.189 293.544 199.168 293.456C199.147 293.367 199.094 293.289 199.021 293.237C198.947 293.184 198.856 293.159 198.766 293.167C198.675 293.176 198.591 293.216 198.528 293.282Z" fill="#1890ff"/>
<path d="M185.96 310.392C181.712 316.172 180.078 318.98 175.96 321.68C175.919 321.707 175.883 321.742 175.855 321.783C175.827 321.824 175.808 321.87 175.798 321.918C175.788 321.967 175.788 322.017 175.797 322.065C175.806 322.114 175.825 322.16 175.852 322.202C175.879 322.243 175.914 322.279 175.955 322.306C175.996 322.334 176.042 322.354 176.091 322.364C176.139 322.374 176.189 322.374 176.238 322.365C176.286 322.356 176.333 322.337 176.374 322.31C180.666 319.49 182.302 316.63 186.562 310.838C186.606 310.757 186.62 310.664 186.6 310.575C186.581 310.485 186.529 310.406 186.456 310.352C186.382 310.297 186.292 310.271 186.2 310.278C186.109 310.286 186.024 310.326 185.96 310.392Z" fill="#1890ff"/>
<path d="M163.616 325.294C160.216 325.252 158.238 324.494 151.416 322.914C151.319 322.89 151.216 322.906 151.131 322.958C151.046 323.01 150.985 323.094 150.961 323.191C150.937 323.288 150.953 323.39 151.005 323.475C151.057 323.561 151.141 323.622 151.238 323.646C157.788 325.226 160.2 326.024 163.6 326.046C163.7 326.048 163.796 326.01 163.868 325.941C163.94 325.872 163.982 325.777 163.984 325.678C163.986 325.578 163.949 325.481 163.88 325.409C163.811 325.337 163.716 325.296 163.616 325.294Z" fill="#1890ff"/>
<path d="M117.864 314.826L110.13 312.962C110.033 312.938 109.931 312.954 109.845 313.007C109.76 313.059 109.699 313.143 109.676 313.24C109.653 313.337 109.669 313.439 109.721 313.524C109.773 313.609 109.857 313.67 109.954 313.694L117.686 315.558C117.783 315.581 117.886 315.565 117.971 315.513C118.056 315.461 118.117 315.378 118.141 315.281C118.165 315.184 118.149 315.081 118.097 314.996C118.045 314.91 117.961 314.849 117.864 314.826Z" fill="#1890ff"/>
<path d="M138.51 319.802L130.778 317.938C130.681 317.914 130.578 317.93 130.493 317.982C130.408 318.034 130.347 318.118 130.323 318.215C130.299 318.312 130.315 318.414 130.367 318.5C130.419 318.585 130.503 318.646 130.6 318.67L138.332 320.534C138.429 320.557 138.532 320.541 138.617 320.489C138.702 320.437 138.763 320.354 138.787 320.257C138.811 320.16 138.795 320.057 138.743 319.972C138.691 319.886 138.607 319.825 138.51 319.802Z" fill="#1890ff"/>
</svg>
