<svg width="400" height="400" viewBox="0 0 400 400" fill="none" xmlns="http://www.w3.org/2000/svg">
<path d="M196.44 164.54C178.7 137.42 170.44 117.08 165.44 100.54C171.351 96.3861 178.246 93.8489 185.44 93.1802C189.317 102.922 194.261 112.205 200.18 120.86C200.18 120.86 192.84 136.6 205.76 140.16L204.96 153.04C202.363 157.048 199.517 160.889 196.44 164.54V164.54Z" fill="#B2BEC3"/>
<path d="M223.66 82.9803C222.593 82.9822 221.55 82.6631 220.667 82.0645C219.783 81.4659 219.1 80.6155 218.706 79.6237C218.313 78.632 218.226 77.5447 218.458 76.5032C218.69 75.4617 219.23 74.514 220.008 73.7833C220.786 73.0526 221.765 72.5727 222.819 72.4058C223.873 72.2389 224.953 72.3929 225.918 72.8476C226.883 73.3023 227.69 74.0368 228.232 74.9557C228.775 75.8746 229.028 76.9354 228.96 78.0003C228.874 79.3481 228.278 80.6126 227.294 81.5374C226.31 82.4622 225.01 82.978 223.66 82.9803ZM223.66 73.1003C222.772 73.0989 221.903 73.3566 221.16 73.8419C220.417 74.3271 219.831 75.0187 219.475 75.832C219.119 76.6452 219.008 77.5446 219.156 78.4199C219.304 79.2952 219.704 80.1083 220.308 80.7595C220.911 81.4107 221.691 81.8716 222.553 82.0857C223.414 82.2998 224.32 82.2578 225.158 81.9648C225.995 81.6719 226.73 81.1407 227.27 80.4365C227.811 79.7322 228.134 78.8856 228.2 78.0003C228.244 77.3742 228.158 76.7457 227.949 76.1539C227.74 75.5621 227.412 75.0197 226.984 74.5602C226.556 74.1007 226.039 73.734 225.464 73.4829C224.888 73.2317 224.268 73.1015 223.64 73.1003H223.66Z" fill="white"/>
<path d="M233.14 189.68C208.4 181.68 202.46 156.74 202.46 156.74C199.42 161.34 178.66 186 170.34 196.98L122.54 175.6L111.64 198.14L165.3 225.62C169.009 227.357 173.207 227.745 177.172 226.72C181.136 225.694 184.619 223.318 187.02 220L198.76 203.78C203.46 211 207.1 216.94 220.16 222.4C233.62 216.4 240.62 208.4 245.3 198.12C240.793 196.024 236.68 193.169 233.14 189.68V189.68Z" fill="#B2BEC3"/>
<path d="M311.8 259.08L316.42 252.06L309.3 246.46L305.52 249.84L311.8 259.08Z" fill="white"/>
<path d="M369 293.02L336.32 267.58L330.32 281.38C328.506 285.584 325.385 289.091 321.42 291.38L351.42 314.76L369 293.02Z" fill="white"/>
<path d="M308.52 241.2C308.419 241.2 308.323 241.16 308.251 241.089C308.18 241.018 308.14 240.921 308.14 240.82C308.14 240.719 308.18 240.623 308.251 240.552C308.323 240.48 308.419 240.44 308.52 240.44C313.906 240.821 319.317 240.28 324.52 238.84C324.611 238.826 324.703 238.844 324.781 238.893C324.859 238.942 324.917 239.017 324.944 239.104C324.971 239.192 324.965 239.287 324.927 239.37C324.89 239.454 324.823 239.522 324.74 239.56C319.464 241.017 313.98 241.572 308.52 241.2Z" fill="white"/>
<path d="M327.06 146.26C327.541 143.276 327.334 140.222 326.456 137.33C325.577 134.438 324.05 131.784 321.991 129.572C319.932 127.359 317.395 125.646 314.574 124.562C311.752 123.478 308.72 123.053 305.71 123.318C302.699 123.584 299.788 124.533 297.2 126.093C294.611 127.653 292.413 129.784 290.773 132.323C289.132 134.861 288.093 137.741 287.734 140.742C287.374 143.743 287.705 146.786 288.7 149.64C278.883 154.963 271.182 163.483 266.875 173.786C262.567 184.088 261.913 195.554 265.02 206.28C265.059 206.364 265.126 206.43 265.21 206.468C265.294 206.505 265.388 206.511 265.476 206.484C265.564 206.457 265.639 206.399 265.687 206.322C265.736 206.244 265.755 206.151 265.74 206.06C262.693 195.52 263.333 184.254 267.555 174.127C271.777 163.999 279.328 155.615 288.96 150.36C290.529 154.358 293.35 157.741 297.002 160.002C300.654 162.263 304.939 163.28 309.218 162.902C313.496 162.524 317.536 160.77 320.735 157.903C323.933 155.037 326.117 151.212 326.96 147C337.317 150.471 346.186 157.36 352.11 166.537C358.034 175.714 360.661 186.633 359.56 197.5C359.56 197.601 359.6 197.698 359.671 197.769C359.743 197.84 359.839 197.88 359.94 197.88C360.041 197.88 360.137 197.84 360.209 197.769C360.28 197.698 360.32 197.601 360.32 197.5C361.413 186.453 358.715 175.362 352.671 166.051C346.627 156.739 337.595 149.76 327.06 146.26ZM310.1 124.26C312.599 124.61 315.003 125.452 317.175 126.737C319.346 128.021 321.242 129.723 322.752 131.745C324.262 133.766 325.357 136.067 325.972 138.514C326.588 140.96 326.713 143.505 326.34 146C314.069 142.202 300.797 143.373 289.38 149.26C288.338 146.174 288.101 142.873 288.692 139.67C289.284 136.467 290.684 133.469 292.759 130.958C294.835 128.448 297.517 126.51 300.552 125.327C303.587 124.144 306.873 123.756 310.1 124.2V124.26Z" fill="white"/>
<path d="M91.28 176.8C76.4927 176.816 61.9811 172.799 49.3071 165.181C36.6331 157.563 26.2769 146.633 19.3531 133.567C12.4293 120.501 9.2003 105.794 10.0136 91.0288C10.8269 76.264 15.6517 62.0005 23.9686 49.7738C32.2855 37.5472 43.7797 27.8204 57.2136 21.6405C70.6476 15.4606 85.5127 13.0617 100.209 14.7019C114.905 16.3422 128.875 21.9596 140.616 30.9493C152.357 39.939 161.423 51.9607 166.84 65.7202C166.863 65.8097 166.853 65.9046 166.811 65.9871C166.77 66.0697 166.699 66.1341 166.613 66.1685C166.527 66.2028 166.432 66.2047 166.345 66.1737C166.258 66.1427 166.185 66.081 166.14 66.0002C161.315 53.6964 153.541 42.7667 143.501 34.1723C133.461 25.5779 121.464 19.582 108.563 16.7121C95.6625 13.8422 82.2543 14.1862 69.5179 17.7137C56.7814 21.2413 45.1068 27.8443 35.5209 36.9422C25.935 46.0401 18.7314 57.354 14.5437 69.8889C10.356 82.4239 9.31257 95.7958 11.5051 108.829C13.6975 121.861 19.0588 134.156 27.1174 144.631C35.176 155.105 45.6849 163.44 57.72 168.9C72.0588 175.328 87.9478 177.48 103.48 175.1C103.57 175.101 103.657 175.133 103.725 175.191C103.794 175.25 103.839 175.331 103.853 175.419C103.868 175.508 103.85 175.599 103.804 175.676C103.757 175.753 103.685 175.811 103.6 175.84C99.5253 176.486 95.4056 176.807 91.28 176.8Z" fill="white"/>
<path d="M117.1 37.0201C104.956 31.602 91.4218 30.1176 78.3923 32.7748C65.3628 35.4321 53.4906 42.0978 44.4383 51.8387C35.386 61.5795 29.6068 73.9077 27.9102 87.0967C26.2135 100.286 28.6843 113.675 34.9765 125.39C41.2688 137.105 51.0673 146.558 63.0001 152.427C74.9328 158.295 88.4022 160.285 101.522 158.116C114.642 155.948 126.755 149.731 136.165 140.335C145.575 130.94 151.811 118.836 154 105.72C156.326 91.7993 153.965 77.5 147.287 65.0662C140.608 52.6323 129.991 42.7677 117.1 37.0201ZM153.24 105.6C151.072 118.559 144.906 130.515 135.604 139.794C126.303 149.074 114.332 155.212 101.368 157.349C88.4044 159.487 75.0968 157.516 63.3088 151.713C51.5209 145.911 41.8428 136.567 35.6297 124.99C29.4167 113.413 26.98 100.183 28.6606 87.1521C30.3413 74.1213 36.0552 61.9424 45.0023 52.3207C53.9494 42.6991 65.6816 36.1165 78.5561 33.4948C91.4306 30.8731 104.803 32.3435 116.8 37.7001C129.535 43.386 140.022 53.138 146.617 65.4265C153.212 77.715 155.541 91.8449 153.24 105.6Z" fill="white"/>
<path d="M190.26 154.82L162.88 133.54C166.185 127.334 168.673 120.726 170.28 113.88C170.292 113.786 170.268 113.691 170.213 113.613C170.158 113.535 170.076 113.481 169.983 113.461C169.89 113.441 169.793 113.457 169.711 113.505C169.629 113.552 169.568 113.629 169.54 113.72C166.236 128.004 159.083 141.109 148.859 151.616C138.634 162.123 125.728 169.629 111.54 173.32C111.491 173.332 111.446 173.353 111.405 173.383C111.365 173.412 111.331 173.45 111.305 173.492C111.279 173.535 111.261 173.582 111.254 173.632C111.246 173.681 111.248 173.732 111.26 173.78C111.272 173.829 111.293 173.875 111.323 173.915C111.352 173.955 111.389 173.989 111.432 174.015C111.475 174.041 111.522 174.059 111.571 174.067C111.621 174.074 111.671 174.072 111.72 174.06C124.515 170.795 136.296 164.396 146 155.44L181.34 183.28L196.44 164.54L190.26 154.82Z" fill="white"/>
<path d="M233.8 287.04L231.84 276.48L277.12 268.12L279.08 278.7L233.8 287.04Z" fill="#B2BEC3"/>
<path d="M75.86 241.82L59.02 228.46C58.9683 228.436 58.9228 228.4 58.8869 228.356C58.8509 228.311 58.8255 228.259 58.8125 228.203C58.7995 228.147 58.7993 228.09 58.8118 228.034C58.8244 227.978 58.8493 227.926 58.8849 227.881C58.9204 227.836 58.9657 227.8 59.0172 227.775C59.0687 227.75 59.1251 227.737 59.1823 227.737C59.2396 227.737 59.296 227.75 59.3476 227.775C59.3991 227.799 59.4444 227.836 59.48 227.88L76 240.96L92.98 214.96C93.0357 214.875 93.1228 214.816 93.2222 214.796C93.3216 214.775 93.4251 214.795 93.51 214.85C93.5949 214.906 93.6541 214.993 93.6748 215.093C93.6954 215.192 93.6757 215.295 93.62 215.38L76.4 241.78C76.3674 241.819 76.3275 241.85 76.2826 241.873C76.2376 241.896 76.1886 241.91 76.1384 241.913C76.0881 241.917 76.0376 241.911 75.9898 241.895C75.9421 241.879 75.8979 241.854 75.86 241.82Z" fill="white"/>
<path d="M273.4 278.14L266.3 270.08L304.58 236.34L311.68 244.4L273.4 278.14Z" fill="#B2BEC3"/>
<path d="M207.38 239.86C207.361 239.76 207.305 239.67 207.224 239.607C207.143 239.544 207.042 239.514 206.94 239.52L199.1 240.52L198.12 232.68C198.12 232.58 198.08 232.483 198.009 232.412C197.937 232.34 197.841 232.3 197.74 232.3C197.639 232.3 197.543 232.34 197.471 232.412C197.4 232.483 197.36 232.58 197.36 232.68L198.36 240.54L190.52 241.52C190.419 241.52 190.323 241.56 190.251 241.632C190.18 241.703 190.14 241.8 190.14 241.9C190.14 242.001 190.18 242.098 190.251 242.169C190.323 242.24 190.419 242.28 190.52 242.28L198.52 241.28L199.5 249.12C199.5 249.221 199.54 249.318 199.611 249.389C199.683 249.46 199.779 249.5 199.88 249.5C199.981 249.5 200.077 249.46 200.149 249.389C200.22 249.318 200.26 249.221 200.26 249.12L199.26 241.26L207.1 240.28C207.188 240.253 207.264 240.197 207.315 240.12C207.366 240.044 207.389 239.952 207.38 239.86Z" fill="white"/>
<path d="M99.48 116.58C98.6342 116.556 97.7919 116.699 97.0014 117.001C96.2109 117.303 95.4875 117.757 94.8728 118.338C94.258 118.92 93.7638 119.617 93.4184 120.389C93.073 121.161 92.8833 121.994 92.86 122.84C92.6 131.38 105.48 131.62 105.72 123.2C105.747 122.355 105.606 121.514 105.307 120.723C105.007 119.933 104.555 119.209 103.975 118.594C103.395 117.979 102.7 117.485 101.928 117.139C101.157 116.793 100.325 116.603 99.48 116.58Z" fill="white"/>
<path d="M107.4 75.8C106.89 73.4362 105.92 71.1959 104.545 69.2071C103.17 67.2182 101.416 65.5197 99.3843 64.2085C97.3526 62.8974 95.0825 61.9992 92.7037 61.5654C90.3248 61.1315 87.8838 61.1705 85.52 61.68C83.1562 62.1896 80.9159 63.1597 78.9271 64.535C76.9382 65.9103 75.2397 67.6639 73.9285 69.6957C72.6173 71.7274 71.7192 73.9975 71.2854 76.3764C70.8515 78.7552 70.8905 81.1962 71.4 83.56C71.4279 83.6569 71.4897 83.7406 71.5742 83.7956C71.6586 83.8507 71.7601 83.8736 71.86 83.86L80.6 82.2C80.6549 82.1914 80.7073 82.1708 80.7534 82.1397C80.7995 82.1087 80.8383 82.0678 80.8669 82.0201C80.8955 81.9725 80.9133 81.9191 80.919 81.8638C80.9247 81.8085 80.9182 81.7526 80.9 81.7C80.4971 80.3469 80.4273 78.9164 80.6965 77.5304C80.9656 76.1445 81.5658 74.8441 82.4458 73.7401C83.3259 72.6361 84.4597 71.7612 85.7508 71.1898C87.0419 70.6185 88.4519 70.3676 89.8608 70.4587C91.2697 70.5498 92.6358 70.98 93.8425 71.7128C95.0493 72.4456 96.0611 73.4592 96.7917 74.6673C97.5223 75.8755 97.9501 77.2423 98.0386 78.6513C98.1271 80.0604 97.8737 81.47 97.3 82.76C96.272 84.8797 94.9819 86.8619 93.46 88.66C91.4767 91.0415 90.3873 94.0408 90.38 97.14C90.3959 101.681 90.9395 106.205 92 110.62C92.0195 110.723 92.0786 110.814 92.1646 110.874C92.2506 110.934 92.3567 110.958 92.46 110.94L101.48 109.22C101.542 109.208 101.6 109.183 101.649 109.145C101.699 109.106 101.739 109.057 101.767 109.001C101.794 108.944 101.807 108.882 101.806 108.82C101.805 108.757 101.789 108.695 101.76 108.64C101.58 108 100.6 101.66 100.52 100.86C100.32 99.4471 100.32 98.013 100.52 96.6C101.04 93.84 103.14 91.66 104.66 89.32C107.31 85.3467 108.294 80.4916 107.4 75.8Z" fill="white"/>
<path d="M390 189.66C378 190.94 354.76 197.86 344.48 203.46C344.442 203.477 344.407 203.501 344.38 203.532C344.352 203.563 344.332 203.6 344.32 203.64C343.66 205.3 343.2 206.68 342.78 208C341.464 212.26 339.53 216.303 337.04 220L311.8 258.4L306 250L312 244.78C312.035 244.747 312.063 244.706 312.082 244.662C312.101 244.617 312.111 244.569 312.111 244.52C312.111 244.472 312.101 244.424 312.082 244.379C312.063 244.334 312.035 244.294 312 244.26L304.88 236.26C304.806 236.193 304.71 236.155 304.61 236.155C304.51 236.155 304.414 236.193 304.34 236.26L302.46 237.92C282.08 210.74 261.06 203.48 249.74 199.56C246.729 198.708 243.859 197.421 241.22 195.74C245.463 195.849 249.576 194.268 252.654 191.344C255.731 188.42 257.521 184.394 257.63 180.15C257.739 175.907 256.157 171.794 253.234 168.717C250.31 165.639 246.283 163.849 242.04 163.74C242.303 160.734 241.557 157.726 239.92 155.191C238.283 152.655 235.848 150.738 233 149.74C233.302 148.709 233.377 147.624 233.22 146.56C230.46 127.84 226.72 116.56 220.52 110.26C214.96 104.54 202.74 107.06 198.88 118.76C193.622 110.77 189.23 102.242 185.78 93.3204C185.747 93.2436 185.69 93.1791 185.619 93.136C185.547 93.093 185.463 93.0735 185.38 93.0804C184.5 93.0804 183.64 93.3004 182.82 93.4204C181.1 88.6604 176.82 82.4004 175.28 64.2604C174.94 60.0804 174.24 57.9204 173.28 57.8804C171.62 57.8804 170.72 63.3404 170.48 64.9804C169.29 62.5708 167.783 60.331 166 58.3204C165.85 58.142 165.644 58.0193 165.415 57.9722C165.186 57.925 164.949 57.9561 164.74 58.0604C164 58.5404 164.14 60.0604 165.14 62.8804C166.7 67.2004 168.02 71.8204 168.42 73.1604C170.42 80.0604 169.78 79.1604 170.54 84.6604C170.54 85.1204 170.38 85.4004 170.16 85.4804C169.12 85.9204 165.92 83.1604 164 81.4804C162.84 80.4804 159.62 77.5804 158.44 78.6804C157.96 79.1604 157.76 80.2404 160.74 84.5404C163.601 89.0074 165.785 93.8735 167.22 98.9804L165.22 100.24C165.154 100.286 165.104 100.351 165.075 100.426C165.047 100.501 165.041 100.582 165.06 100.66C169.06 113.78 176.48 134.66 195.96 164.48C193.24 167.86 173.96 191.46 170.2 196.48L122.68 175.26C122.637 175.24 122.59 175.229 122.542 175.227C122.495 175.226 122.447 175.233 122.402 175.25C122.358 175.267 122.317 175.292 122.282 175.325C122.247 175.358 122.219 175.397 122.2 175.44L120.92 178C114.862 175.127 108.984 171.888 103.32 168.3C99.32 165.54 98.2 165.3 97.66 165.78C97.12 166.26 97.66 167.78 98.78 169.68C99.64 171.22 104.48 176.14 103.86 177.68C103.68 178.1 103.06 178.08 102.86 178.16C98.9055 177.389 94.8888 176.981 90.86 176.94C87.8879 176.827 84.9115 176.954 81.96 177.32C75.96 178.14 75.96 179.32 75.96 179.66C75.96 180.72 77.96 181.5 82.12 182.02C83.6 182.2 85.18 182.46 86.8 182.78L82 183.76C79.06 184.36 77.54 185.18 77.58 186.12C77.6043 186.343 77.7092 186.55 77.8749 186.701C78.0406 186.852 78.2558 186.937 78.48 186.94C81 187.18 85.14 187.22 88.02 187.4C86.7 187.9 83.42 189.18 83.72 190.58C83.7844 190.793 83.9222 190.976 84.109 191.097C84.2958 191.218 84.5193 191.269 84.74 191.24C92.06 190.72 95.42 188.96 106.74 190.78C107.44 191.1 108.74 191.84 112.9 194.42L111.3 198C111.257 198.088 111.25 198.189 111.28 198.282C111.31 198.376 111.374 198.454 111.46 198.5L164.66 225.74C167.131 227.029 169.873 227.714 172.66 227.74C175.504 227.743 178.307 227.072 180.842 225.782C183.376 224.493 185.569 222.621 187.24 220.32L198.62 204.58C204.3 213.28 208.28 217.98 219.86 222.82L234.44 275.66L231.68 276.18C231.582 276.2 231.496 276.257 231.44 276.339C231.384 276.421 231.362 276.522 231.38 276.62C233.38 287.98 233.38 287.3 233.48 287.44C233.58 287.58 233.22 287.6 240.68 286.22L243.78 297.2C244.814 300.928 246.586 304.41 248.991 307.44C251.396 310.47 254.385 312.987 257.78 314.84L322.98 346.84C323.54 347.36 329.64 348.16 344 368.84C348.64 375.52 353.02 381.82 358.7 386.04C358.759 386.083 358.829 386.107 358.901 386.111C358.974 386.115 359.046 386.098 359.109 386.062C359.172 386.026 359.223 385.973 359.257 385.909C359.291 385.845 359.306 385.773 359.3 385.7C358.58 373.7 353.52 350 348.64 339.36C348.601 339.282 348.538 339.219 348.46 339.18C346.86 338.4 345.52 337.88 344.22 337.36C340.035 335.712 336.093 333.506 332.5 330.8L276.5 291.46L273.36 280.32L279.04 279.26C279.138 279.241 279.224 279.184 279.28 279.102C279.336 279.019 279.358 278.918 279.34 278.82L278.6 274L279.6 273.12L295.46 288.44C297.995 290.895 301.088 292.698 304.472 293.696C307.857 294.693 311.434 294.854 314.895 294.166C318.356 293.478 321.598 291.96 324.344 289.744C327.09 287.527 329.257 284.678 330.66 281.44C330.66 281.24 353.88 227.96 354.5 226.76C362.72 210.96 381.88 203.36 390.32 190.16C390.338 190.106 390.344 190.049 390.337 189.992C390.33 189.936 390.311 189.881 390.28 189.833C390.249 189.785 390.208 189.745 390.16 189.715C390.111 189.685 390.057 189.666 390 189.66ZM170 76.0004C169.58 74.3404 167.38 66.9404 165.84 62.6804C165.36 61.3404 164.5 57.9404 165.48 58.9004C167.348 61.0573 168.934 63.4431 170.2 66.0004C169.945 69.3273 169.878 72.6659 170 76.0004ZM302 238.24L290.8 248C278.983 229.312 262.044 214.414 242 205.08C243.336 203.027 244.5 200.866 245.48 198.62C256.1 202.84 278.94 207.6 301.88 238.2L302 238.24ZM210.78 110.56C210.78 116.68 215.5 125.42 221.2 123.08C224.4 121.76 224.18 127.24 218.88 127.56H217.88C217.789 127.559 217.7 127.591 217.63 127.65C217.561 127.708 217.514 127.79 217.5 127.88C214.86 149.14 217.06 173.34 231.76 188.78C209.76 180.78 203.42 158.78 202.88 156.78L205.2 153.32C205.4 153.12 205.2 153.5 205.82 144.34L211.06 140.8C211.46 140.48 211.24 140 210.88 140.06C205.86 140.34 202.32 139.14 200.34 136.48C198.821 134.197 198.202 131.433 198.6 128.72C199.44 120.48 204.4 112.3 210.78 110.56ZM161.3 84.1404C158.34 79.8804 158.9 79.2804 158.9 79.2804C158.9 79.2804 160.24 79.4404 161.8 80.7004C163.8 82.3404 168.9 87.4004 170.66 86.0204C170.8 86.9804 170.96 88.0204 171.16 89.2004C171.189 89.2876 171.249 89.3613 171.328 89.4079C171.407 89.4545 171.501 89.4707 171.591 89.4536C171.681 89.4366 171.763 89.3873 171.819 89.315C171.876 89.2427 171.905 89.1522 171.9 89.0604C170.997 84.6801 170.595 80.2115 170.7 75.7404C170.516 71.7297 170.724 67.7107 171.32 63.7404C172.26 58.6004 173.14 58.4804 173.14 58.4804C173.14 58.4804 174.14 59.5804 174.52 64.1804C176 82.1804 180.32 88.7204 182.04 93.4204C177.011 94.2728 172.187 96.064 167.82 98.7004C166.379 93.551 164.182 88.6441 161.3 84.1404ZM165.88 100.76C171.6 96.7917 178.234 94.3417 185.16 93.6404C188.683 102.702 193.183 111.353 198.58 119.44C197.788 122.561 197.531 125.794 197.82 129C197.46 134.8 199.82 139 205.38 140.44C205.24 140.72 204.6 152.02 204.56 152.96C202.133 156.776 199.46 160.431 196.56 163.9C177.28 134.46 169.82 113.8 165.88 100.76ZM84.76 190.48C84.7225 190.498 84.6815 190.507 84.64 190.507C84.5985 190.507 84.5575 190.498 84.52 190.48C84.52 190.48 84.52 189.64 88.02 188.28L89.82 187.6C94.1974 188.048 98.5495 188.716 102.86 189.6C94 188.64 92 190 84.76 190.48ZM91.8 187.02C89.2133 186.679 86.6088 186.492 84 186.46C82.12 186.46 80.18 186.34 78.7 186.2C78.56 186.2 78.48 186.2 78.48 186.08C78.48 185.96 78.6 185.26 82.28 184.5C83.06 184.34 86.92 183.54 88.84 183.28C94.0496 184.399 99.0597 186.301 103.7 188.92C99.7754 188.047 95.8015 187.412 91.8 187.02ZM96.84 184.9C92.093 183.172 87.1699 181.971 82.16 181.32C77.68 180.76 76.66 179.96 76.66 179.72C76.66 179.48 76.8 178.84 81.98 178.12C84.892 177.762 87.8284 177.642 90.76 177.76C96.343 177.821 101.903 178.492 107.34 179.76C107.84 179.76 107.98 179.1 107.5 179.02L104.26 178.4C106.26 176.56 100.48 171.2 99.44 169.32C99.08 168.68 97.98 166.72 98.16 166.36C98.26 166.36 98.98 166.2 102.9 168.94C108.585 172.558 114.489 175.818 120.58 178.7L113.34 193.68C108.109 190.274 102.587 187.336 96.84 184.9ZM202.58 208.9L212.78 185.32C213.02 184.78 212.42 184.56 212.16 184.88C210.4 187.14 186.72 219.86 186.72 219.86C184.319 223.163 180.825 225.506 176.858 226.473C172.892 227.44 168.711 226.967 165.06 225.14L112.14 198L122.72 176.12L169.74 197.12C168.46 198.82 167.5 200.14 166.98 200.98C166.94 201.065 166.933 201.16 166.959 201.25C166.985 201.339 167.043 201.415 167.122 201.465C167.201 201.514 167.295 201.533 167.387 201.517C167.479 201.502 167.562 201.453 167.62 201.38C171.3 195.38 197.24 164.72 202.32 157.6C203.6 161.94 210.84 182.82 232.92 190C236.414 193.392 240.424 196.207 244.8 198.34C240.16 208.84 232.1 216.58 220.16 222C210.54 218 206.16 213.76 202.58 208.84V208.9ZM220.7 222.64C229.094 219.074 236.325 213.235 241.58 205.78C261.577 215.046 278.468 229.896 290.22 248.54L268.22 267.9L238.1 234.7C238.031 234.626 237.935 234.582 237.834 234.579C237.733 234.575 237.634 234.611 237.56 234.68C237.486 234.749 237.442 234.845 237.438 234.946C237.434 235.048 237.471 235.146 237.54 235.22L267.66 268.4L266.02 269.84L235.24 275.52L220.7 222.64ZM276 291.58C276 291.8 271.9 289 332.14 331.18C341.34 337.62 342.46 336.88 348.14 339.6C352.84 349.98 357.72 372.62 358.62 384.72C353.34 380.58 349.16 374.58 344.74 368.22C329.82 346.76 324.18 346.7 323.42 346.02L258.2 314.02C254.919 312.2 252.032 309.745 249.708 306.799C247.383 303.853 245.667 300.475 244.66 296.86L241.68 286.22L272.78 280.22L276 291.58ZM278.7 278.4L234.18 286.6L232.36 276.78L266.36 270.52L273.3 278.4C273.335 278.436 273.377 278.464 273.424 278.484C273.47 278.503 273.52 278.513 273.57 278.513C273.62 278.513 273.67 278.503 273.716 278.484C273.763 278.464 273.805 278.436 273.84 278.4L278.12 274.64L278.7 278.4ZM273.52 277.6L266.9 270.1L304.62 236.86L311.24 244.36L273.52 277.6ZM353.9 226.5C353.28 227.72 330.14 281.02 330.06 281.22C328.713 284.363 326.621 287.13 323.965 289.283C321.309 291.436 318.168 292.91 314.815 293.578C311.462 294.245 307.996 294.086 304.718 293.114C301.44 292.143 298.448 290.387 296 288L280.16 272.72L305.46 250.42L314.12 263.18C314.4 263.58 314.98 263.08 314.7 262.68L312.26 259.1L337.58 220.58C340.153 216.795 342.136 212.641 343.46 208.26C343.88 206.98 344.3 205.64 344.92 204.08C354.92 198.66 377.22 192.26 389.22 190.54C380.68 203.12 362 210.88 353.82 226.5H353.9Z" fill="white"/>
</svg>
