<svg width="400" height="401" viewBox="0 0 400 401" fill="none" xmlns="http://www.w3.org/2000/svg">
<path d="M196.44 165.222C178.7 138.102 170.44 117.762 165.44 101.222C171.351 97.0675 178.246 94.5303 185.44 93.8616C189.317 103.604 194.261 112.887 200.18 121.542C200.18 121.542 192.84 137.282 205.76 140.842L204.96 153.722C202.363 157.729 199.517 161.57 196.44 165.222Z" fill="#FFE7EA"/>
<path d="M223.66 83.6616C222.593 83.6634 221.55 83.3443 220.667 82.7457C219.783 82.1472 219.1 81.2968 218.706 80.305C218.313 79.3133 218.226 78.226 218.458 77.1845C218.69 76.1429 219.23 75.1953 220.008 74.4646C220.786 73.7339 221.765 73.2539 222.819 73.0871C223.873 72.9202 224.953 73.0741 225.918 73.5289C226.883 73.9836 227.69 74.7181 228.232 75.637C228.775 76.5559 229.028 77.6167 228.96 78.6816C228.874 80.0294 228.278 81.2939 227.294 82.2186C226.31 83.1434 225.01 83.6593 223.66 83.6616ZM223.66 73.7816C222.772 73.7802 221.903 74.0379 221.16 74.5231C220.417 75.0084 219.831 75.7 219.475 76.5132C219.119 77.3265 219.008 78.2259 219.156 79.1012C219.304 79.9765 219.704 80.7896 220.308 81.4408C220.911 82.092 221.691 82.5529 222.553 82.767C223.414 82.9811 224.32 82.9391 225.158 82.6461C225.995 82.3532 226.73 81.822 227.27 81.1177C227.811 80.4135 228.134 79.5668 228.2 78.6816C228.244 78.0555 228.158 77.427 227.949 76.8352C227.74 76.2434 227.412 75.7009 226.984 75.2415C226.556 74.782 226.039 74.4153 225.464 74.1641C224.888 73.913 224.268 73.7828 223.64 73.7816H223.66Z" fill="#1890ff"/>
<path d="M233.14 190.362C208.4 182.362 202.46 157.422 202.46 157.422C199.42 162.022 178.66 186.682 170.34 197.662L122.54 176.282L111.64 198.822L165.3 226.302C169.009 228.038 173.207 228.427 177.172 227.401C181.136 226.375 184.619 223.999 187.02 220.682L198.76 204.462C203.46 211.682 207.1 217.622 220.16 223.082C233.62 217.082 240.62 209.082 245.3 198.802C240.793 196.705 236.68 193.85 233.14 190.362Z" fill="#FFE7EA"/>
<path d="M311.8 259.762L316.42 252.742L309.3 247.142L305.52 250.522L311.8 259.762Z" fill="#1890ff"/>
<path d="M369 293.702L336.32 268.262L330.32 282.062C328.506 286.266 325.385 289.773 321.42 292.062L351.42 315.442L369 293.702Z" fill="#1890ff"/>
<path d="M308.52 241.882C308.419 241.882 308.323 241.842 308.251 241.77C308.18 241.699 308.14 241.602 308.14 241.502C308.14 241.401 308.18 241.304 308.251 241.233C308.323 241.162 308.419 241.122 308.52 241.122C313.906 241.503 319.317 240.961 324.52 239.522C324.611 239.507 324.703 239.526 324.781 239.574C324.859 239.623 324.917 239.698 324.944 239.786C324.971 239.873 324.965 239.968 324.927 240.052C324.89 240.136 324.823 240.203 324.74 240.242C319.464 241.698 313.98 242.253 308.52 241.882Z" fill="#1890ff"/>
<path d="M327.06 146.942C327.541 143.958 327.334 140.903 326.456 138.011C325.577 135.119 324.05 132.466 321.991 130.253C319.932 128.041 317.395 126.327 314.574 125.243C311.752 124.16 308.72 123.734 305.71 124C302.699 124.265 299.788 125.214 297.2 126.774C294.611 128.335 292.413 130.465 290.773 133.004C289.132 135.542 288.093 138.422 287.734 141.423C287.374 144.424 287.705 147.468 288.7 150.322C278.883 155.644 271.182 164.164 266.875 174.467C262.567 184.77 261.913 196.236 265.02 206.962C265.059 207.045 265.126 207.111 265.21 207.149C265.294 207.186 265.388 207.192 265.476 207.165C265.564 207.138 265.639 207.081 265.687 207.003C265.736 206.925 265.755 206.832 265.74 206.742C262.693 196.201 263.333 184.936 267.555 174.808C271.777 164.68 279.328 156.296 288.96 151.042C290.529 155.04 293.35 158.422 297.002 160.683C300.654 162.944 304.939 163.961 309.218 163.583C313.496 163.205 317.536 161.451 320.735 158.585C323.933 155.718 326.117 151.893 326.96 147.682C337.317 151.152 346.186 158.041 352.11 167.218C358.034 176.395 360.661 187.314 359.56 198.182C359.56 198.282 359.6 198.379 359.671 198.45C359.743 198.522 359.839 198.562 359.94 198.562C360.041 198.562 360.137 198.522 360.209 198.45C360.28 198.379 360.32 198.282 360.32 198.182C361.413 187.134 358.715 176.044 352.671 166.732C346.627 157.42 337.595 150.441 327.06 146.942ZM310.1 124.942C312.599 125.292 315.003 126.133 317.175 127.418C319.346 128.703 321.242 130.405 322.752 132.426C324.262 134.448 325.357 136.748 325.972 139.195C326.588 141.642 326.713 144.186 326.34 146.682C314.069 142.884 300.797 144.054 289.38 149.942C288.338 146.856 288.101 143.555 288.692 140.352C289.284 137.149 290.684 134.15 292.759 131.64C294.835 129.129 297.517 127.191 300.552 126.008C303.587 124.826 306.873 124.438 310.1 124.882V124.942Z" fill="#1890ff"/>
<path d="M91.28 177.482C76.4927 177.498 61.9811 173.481 49.3071 165.863C36.6331 158.245 26.2769 147.314 19.3531 134.248C12.4293 121.182 9.2003 106.475 10.0136 91.7102C10.8269 76.9454 15.6517 62.6819 23.9686 50.4552C32.2855 38.2286 43.7797 28.5018 57.2136 22.3219C70.6476 16.142 85.5127 13.7431 100.209 15.3833C114.905 17.0236 128.875 22.641 140.616 31.6307C152.357 40.6204 161.423 52.6421 166.84 66.4016C166.863 66.4911 166.853 66.586 166.811 66.6685C166.77 66.7511 166.699 66.8155 166.613 66.8499C166.527 66.8842 166.432 66.8861 166.345 66.8551C166.258 66.8241 166.185 66.7624 166.14 66.6816C161.315 54.3778 153.541 43.4481 143.501 34.8537C133.461 26.2592 121.464 20.2634 108.563 17.3935C95.6625 14.5236 82.2543 14.8675 69.5179 18.3951C56.7814 21.9227 45.1068 28.5257 35.5209 37.6236C25.935 46.7215 18.7314 58.0354 14.5437 70.5703C10.356 83.1053 9.31257 96.4772 11.5051 109.51C13.6975 122.543 19.0588 134.837 27.1174 145.312C35.176 155.787 45.6849 164.121 57.72 169.582C72.0588 176.009 87.9478 178.162 103.48 175.782C103.57 175.782 103.657 175.814 103.725 175.873C103.794 175.931 103.839 176.012 103.853 176.101C103.868 176.19 103.85 176.281 103.804 176.358C103.757 176.435 103.685 176.493 103.6 176.522C99.5253 177.168 95.4056 177.489 91.28 177.482Z" fill="#1890ff"/>
<path d="M117.1 37.7015C104.956 32.2834 91.4218 30.799 78.3923 33.4562C65.3628 36.1135 53.4906 42.7792 44.4383 52.5201C35.386 62.2609 29.6068 74.5891 27.9102 87.7781C26.2135 100.967 28.6843 114.357 34.9765 126.071C41.2688 137.786 51.0673 147.24 63.0001 153.108C74.9328 158.976 88.4022 160.966 101.522 158.798C114.642 156.63 126.755 150.412 136.165 141.017C145.575 131.621 151.811 119.518 154 106.402C156.326 92.4807 153.965 78.1814 147.287 65.7476C140.608 53.3137 129.991 43.4491 117.1 37.7015ZM153.24 106.282C151.072 119.24 144.906 131.196 135.604 140.476C126.303 149.755 114.332 155.894 101.368 158.031C88.4044 160.168 75.0968 158.197 63.3088 152.395C51.5209 146.592 41.8428 137.248 35.6297 125.671C29.4167 114.094 26.98 100.864 28.6606 87.8335C30.3413 74.8027 36.0552 62.6238 45.0023 53.0021C53.9494 43.3805 65.6816 36.7979 78.5561 34.1762C91.4306 31.5545 104.803 33.0249 116.8 38.3815C129.535 44.0674 140.022 53.8194 146.617 66.1079C153.212 78.3964 155.541 92.5263 153.24 106.282Z" fill="#1890ff"/>
<path d="M190.26 155.502L162.88 134.222C166.185 128.015 168.673 121.407 170.28 114.562C170.292 114.467 170.268 114.372 170.213 114.294C170.158 114.217 170.076 114.163 169.983 114.143C169.89 114.123 169.793 114.138 169.711 114.186C169.629 114.234 169.568 114.311 169.54 114.402C166.236 128.685 159.083 141.791 148.859 152.297C138.634 162.804 125.728 170.31 111.54 174.002C111.491 174.013 111.446 174.035 111.405 174.064C111.365 174.094 111.331 174.131 111.305 174.174C111.279 174.216 111.261 174.264 111.254 174.313C111.246 174.363 111.248 174.413 111.26 174.462C111.272 174.51 111.293 174.556 111.323 174.596C111.352 174.637 111.389 174.671 111.432 174.697C111.475 174.723 111.522 174.74 111.571 174.748C111.621 174.756 111.671 174.753 111.72 174.742C124.515 171.476 136.296 165.077 146 156.122L181.34 183.962L196.44 165.222L190.26 155.502Z" fill="#1890ff"/>
<path d="M233.8 287.722L231.84 277.162L277.12 268.802L279.08 279.382L233.8 287.722Z" fill="#FFE7EA"/>
<path d="M75.86 242.502L59.02 229.142C58.9683 229.117 58.9228 229.081 58.8869 229.037C58.8509 228.992 58.8255 228.94 58.8125 228.884C58.7995 228.829 58.7993 228.771 58.8118 228.715C58.8244 228.659 58.8493 228.607 58.8849 228.562C58.9204 228.517 58.9657 228.481 59.0172 228.456C59.0687 228.431 59.1251 228.418 59.1823 228.418C59.2396 228.418 59.296 228.431 59.3476 228.456C59.3991 228.481 59.4444 228.517 59.48 228.562L76 241.642L92.98 215.642C93.0357 215.557 93.1228 215.497 93.2222 215.477C93.3216 215.456 93.4251 215.476 93.51 215.532C93.5949 215.587 93.6541 215.674 93.6748 215.774C93.6954 215.873 93.6757 215.977 93.62 216.062L76.4 242.462C76.3674 242.5 76.3275 242.532 76.2826 242.554C76.2376 242.577 76.1886 242.591 76.1384 242.595C76.0881 242.598 76.0376 242.592 75.9898 242.576C75.9421 242.56 75.8979 242.535 75.86 242.502Z" fill="#1890ff"/>
<path d="M273.4 278.822L266.3 270.762L304.58 237.022L311.68 245.082L273.4 278.822Z" fill="#FFE7EA"/>
<path d="M207.38 240.542C207.361 240.441 207.305 240.351 207.224 240.288C207.143 240.226 207.042 240.195 206.94 240.202L199.1 241.202L198.12 233.362C198.12 233.261 198.08 233.164 198.009 233.093C197.937 233.022 197.841 232.982 197.74 232.982C197.639 232.982 197.543 233.022 197.471 233.093C197.4 233.164 197.36 233.261 197.36 233.362L198.36 241.222L190.52 242.202C190.419 242.202 190.323 242.242 190.251 242.313C190.18 242.384 190.14 242.481 190.14 242.582C190.14 242.682 190.18 242.779 190.251 242.85C190.323 242.922 190.419 242.962 190.52 242.962L198.52 241.962L199.5 249.802C199.5 249.902 199.54 249.999 199.611 250.07C199.683 250.142 199.779 250.182 199.88 250.182C199.981 250.182 200.077 250.142 200.149 250.07C200.22 249.999 200.26 249.902 200.26 249.802L199.26 241.942L207.1 240.962C207.188 240.934 207.264 240.878 207.315 240.801C207.366 240.725 207.389 240.633 207.38 240.542Z" fill="#1890ff"/>
<path d="M99.48 117.262C98.6342 117.238 97.7919 117.381 97.0014 117.682C96.2109 117.984 95.4875 118.438 94.8728 119.02C94.258 119.601 93.7638 120.298 93.4184 121.07C93.073 121.843 92.8833 122.676 92.86 123.522C92.6 132.062 105.48 132.302 105.72 123.882C105.747 123.037 105.606 122.195 105.307 121.405C105.007 120.614 104.555 119.891 103.975 119.276C103.395 118.661 102.7 118.166 101.928 117.82C101.157 117.475 100.325 117.285 99.48 117.262Z" fill="#1890ff"/>
<path d="M107.4 76.4816C106.89 74.1178 105.92 71.8775 104.545 69.8886C103.17 67.8997 101.416 66.2012 99.3843 64.8901C97.3526 63.5789 95.0825 62.6807 92.7037 62.2469C90.3248 61.8131 87.8838 61.852 85.52 62.3615C83.1562 62.8711 80.9159 63.8412 78.9271 65.2165C76.9382 66.5919 75.2397 68.3455 73.9285 70.3772C72.6173 72.409 71.7192 74.6791 71.2854 77.0579C70.8515 79.4367 70.8905 81.8778 71.4 84.2415C71.4279 84.3384 71.4897 84.4221 71.5742 84.4771C71.6586 84.5322 71.7601 84.5551 71.86 84.5415L80.6 82.8815C80.6549 82.8729 80.7073 82.8523 80.7534 82.8213C80.7995 82.7902 80.8383 82.7493 80.8669 82.7017C80.8955 82.654 80.9133 82.6006 80.919 82.5453C80.9247 82.49 80.9182 82.4341 80.9 82.3815C80.4971 81.0284 80.4273 79.5979 80.6965 78.212C80.9656 76.826 81.5658 75.5256 82.4458 74.4216C83.3259 73.3176 84.4597 72.4427 85.7508 71.8713C87.0419 71.3 88.4519 71.0492 89.8608 71.1402C91.2697 71.2313 92.6358 71.6615 93.8425 72.3943C95.0493 73.1271 96.0611 74.1407 96.7917 75.3489C97.5223 76.557 97.9501 77.9238 98.0386 79.3329C98.1271 80.7419 97.8737 82.1515 97.3 83.4416C96.272 85.5612 94.9819 87.5434 93.46 89.3416C91.4767 91.723 90.3873 94.7224 90.38 97.8215C90.3959 102.362 90.9395 106.886 92 111.302C92.0195 111.405 92.0786 111.496 92.1646 111.556C92.2506 111.615 92.3567 111.639 92.46 111.622L101.48 109.902C101.542 109.89 101.6 109.864 101.649 109.826C101.699 109.788 101.739 109.739 101.767 109.682C101.794 109.626 101.807 109.564 101.806 109.501C101.805 109.438 101.789 109.377 101.76 109.322C101.58 108.682 100.6 102.342 100.52 101.542C100.32 100.129 100.32 98.6945 100.52 97.2815C101.04 94.5215 103.14 92.3415 104.66 90.0015C107.31 86.0282 108.294 81.1732 107.4 76.4816Z" fill="#1890ff"/>
<path d="M390 190.342C378 191.622 354.76 198.542 344.48 204.142C344.442 204.158 344.407 204.182 344.38 204.213C344.352 204.245 344.332 204.281 344.32 204.322C343.66 205.982 343.2 207.362 342.78 208.682C341.464 212.941 339.53 216.984 337.04 220.682L311.8 259.082L306 250.682L312 245.462C312.035 245.428 312.063 245.388 312.082 245.343C312.101 245.298 312.111 245.25 312.111 245.202C312.111 245.153 312.101 245.105 312.082 245.06C312.063 245.015 312.035 244.975 312 244.942L304.88 236.942C304.806 236.874 304.71 236.837 304.61 236.837C304.51 236.837 304.414 236.874 304.34 236.942L302.46 238.602C282.08 211.422 261.06 204.162 249.74 200.242C246.729 199.389 243.859 198.102 241.22 196.422C245.463 196.53 249.576 194.949 252.654 192.025C255.731 189.101 257.521 185.075 257.63 180.832C257.739 176.588 256.157 172.475 253.234 169.398C250.31 166.32 246.283 164.53 242.04 164.422C242.303 161.415 241.557 158.407 239.92 155.872C238.283 153.337 235.848 151.419 233 150.422C233.302 149.39 233.377 148.305 233.22 147.242C230.46 128.522 226.72 117.242 220.52 110.942C214.96 105.222 202.74 107.742 198.88 119.442C193.622 111.451 189.23 102.923 185.78 94.0015C185.747 93.9247 185.69 93.8602 185.619 93.8172C185.547 93.7741 185.463 93.7547 185.38 93.7615C184.5 93.7615 183.64 93.9815 182.82 94.1015C181.1 89.3415 176.82 83.0815 175.28 64.9415C174.94 60.7615 174.24 58.6015 173.28 58.5615C171.62 58.5615 170.72 64.0215 170.48 65.6615C169.29 63.252 167.783 61.0122 166 59.0015C165.85 58.8231 165.644 58.7005 165.415 58.6533C165.186 58.6062 164.949 58.6372 164.74 58.7415C164 59.2215 164.14 60.7415 165.14 63.5615C166.7 67.8815 168.02 72.5015 168.42 73.8415C170.42 80.7415 169.78 79.8415 170.54 85.3415C170.54 85.8015 170.38 86.0815 170.16 86.1615C169.12 86.6015 165.92 83.8415 164 82.1615C162.84 81.1615 159.62 78.2615 158.44 79.3615C157.96 79.8415 157.76 80.9215 160.74 85.2215C163.601 89.6885 165.785 94.5547 167.22 99.6615L165.22 100.922C165.154 100.967 165.104 101.032 165.075 101.107C165.047 101.182 165.041 101.264 165.06 101.342C169.06 114.462 176.48 135.342 195.96 165.162C193.24 168.542 173.96 192.142 170.2 197.162L122.68 175.942C122.637 175.921 122.59 175.91 122.542 175.908C122.495 175.907 122.447 175.914 122.402 175.931C122.358 175.948 122.317 175.973 122.282 176.006C122.247 176.039 122.219 176.078 122.2 176.122L120.92 178.682C114.862 175.808 108.984 172.569 103.32 168.982C99.32 166.222 98.2 165.982 97.66 166.462C97.12 166.942 97.66 168.462 98.78 170.362C99.64 171.902 104.48 176.822 103.86 178.362C103.68 178.782 103.06 178.762 102.86 178.842C98.9055 178.07 94.8888 177.662 90.86 177.622C87.8879 177.508 84.9115 177.635 81.96 178.002C75.96 178.822 75.96 180.002 75.96 180.342C75.96 181.402 77.96 182.182 82.12 182.702C83.6 182.882 85.18 183.142 86.8 183.462L82 184.442C79.06 185.042 77.54 185.862 77.58 186.802C77.6043 187.024 77.7092 187.231 77.8749 187.382C78.0406 187.533 78.2558 187.618 78.48 187.622C81 187.862 85.14 187.902 88.02 188.082C86.7 188.582 83.42 189.862 83.72 191.262C83.7844 191.474 83.9222 191.658 84.109 191.778C84.2958 191.899 84.5193 191.95 84.74 191.922C92.06 191.402 95.42 189.642 106.74 191.462C107.44 191.782 108.74 192.522 112.9 195.102L111.3 198.682C111.257 198.769 111.25 198.87 111.28 198.964C111.31 199.057 111.374 199.135 111.46 199.182L164.66 226.422C167.131 227.71 169.873 228.396 172.66 228.422C175.504 228.424 178.307 227.753 180.842 226.464C183.376 225.174 185.569 223.302 187.24 221.002L198.62 205.262C204.3 213.962 208.28 218.662 219.86 223.502L234.44 276.342L231.68 276.862C231.582 276.881 231.496 276.938 231.44 277.02C231.384 277.102 231.362 277.203 231.38 277.302C233.38 288.662 233.38 287.982 233.48 288.122C233.58 288.262 233.22 288.282 240.68 286.902L243.78 297.882C244.814 301.609 246.586 305.091 248.991 308.121C251.396 311.151 254.385 313.668 257.78 315.522L322.98 347.522C323.54 348.042 329.64 348.842 344 369.522C348.64 376.202 353.02 382.502 358.7 386.722C358.759 386.764 358.829 386.788 358.901 386.792C358.974 386.796 359.046 386.779 359.109 386.743C359.172 386.707 359.223 386.654 359.257 386.59C359.291 386.526 359.306 386.454 359.3 386.382C358.58 374.382 353.52 350.682 348.64 340.042C348.601 339.964 348.538 339.9 348.46 339.862C346.86 339.082 345.52 338.561 344.22 338.042C340.035 336.394 336.093 334.187 332.5 331.482L276.5 292.142L273.36 281.002L279.04 279.942C279.138 279.922 279.224 279.865 279.28 279.783C279.336 279.701 279.358 279.6 279.34 279.502L278.6 274.682L279.6 273.802L295.46 289.122C297.995 291.576 301.088 293.38 304.472 294.377C307.857 295.374 311.434 295.535 314.895 294.847C318.356 294.159 321.598 292.641 324.344 290.425C327.09 288.209 329.257 285.359 330.66 282.122C330.66 281.922 353.88 228.642 354.5 227.442C362.72 211.642 381.88 204.042 390.32 190.842C390.338 190.788 390.344 190.73 390.337 190.674C390.33 190.617 390.311 190.563 390.28 190.515C390.249 190.467 390.208 190.426 390.16 190.396C390.111 190.366 390.057 190.348 390 190.342ZM170 76.6815C169.58 75.0215 167.38 67.6215 165.84 63.3615C165.36 62.0215 164.5 58.6215 165.48 59.5815C167.348 61.7384 168.934 64.1243 170.2 66.6815C169.945 70.0084 169.878 73.3471 170 76.6815ZM302 238.922L290.8 248.682C278.983 229.993 262.044 215.095 242 205.762C243.336 203.708 244.5 201.547 245.48 199.302C256.1 203.522 278.94 208.282 301.88 238.882L302 238.922ZM210.78 111.242C210.78 117.362 215.5 126.102 221.2 123.762C224.4 122.442 224.18 127.922 218.88 128.242H217.88C217.789 128.24 217.7 128.272 217.63 128.331C217.561 128.39 217.514 128.471 217.5 128.562C214.86 149.822 217.06 174.022 231.76 189.462C209.76 181.462 203.42 159.462 202.88 157.462L205.2 154.002C205.4 153.802 205.2 154.182 205.82 145.022L211.06 141.482C211.46 141.162 211.24 140.682 210.88 140.742C205.86 141.022 202.32 139.822 200.34 137.162C198.821 134.879 198.202 132.114 198.6 129.402C199.44 121.162 204.4 112.982 210.78 111.242ZM161.3 84.8215C158.34 80.5615 158.9 79.9615 158.9 79.9615C158.9 79.9615 160.24 80.1215 161.8 81.3815C163.8 83.0215 168.9 88.0815 170.66 86.7015C170.8 87.6615 170.96 88.7015 171.16 89.8815C171.189 89.9688 171.249 90.0425 171.328 90.0891C171.407 90.1356 171.501 90.1519 171.591 90.1348C171.681 90.1177 171.763 90.0684 171.819 89.9961C171.876 89.9238 171.905 89.8333 171.9 89.7415C170.997 85.3612 170.595 80.8926 170.7 76.4215C170.516 72.4109 170.724 68.3919 171.32 64.4215C172.26 59.2815 173.14 59.1615 173.14 59.1615C173.14 59.1615 174.14 60.2615 174.52 64.8615C176 82.8615 180.32 89.4015 182.04 94.1015C177.011 94.954 172.187 96.7451 167.82 99.3815C166.379 94.2322 164.182 89.3253 161.3 84.8215ZM165.88 101.442C171.6 97.4729 178.234 95.0229 185.16 94.3215C188.683 103.383 193.183 112.034 198.58 120.122C197.788 123.242 197.531 126.475 197.82 129.682C197.46 135.482 199.82 139.682 205.38 141.122C205.24 141.402 204.6 152.702 204.56 153.642C202.133 157.457 199.46 161.112 196.56 164.582C177.28 135.142 169.82 114.482 165.88 101.442ZM84.76 191.162C84.7225 191.179 84.6815 191.189 84.64 191.189C84.5985 191.189 84.5575 191.179 84.52 191.162C84.52 191.162 84.52 190.322 88.02 188.962L89.82 188.282C94.1974 188.729 98.5495 189.397 102.86 190.282C94 189.322 92 190.682 84.76 191.162ZM91.8 187.702C89.2133 187.361 86.6088 187.174 84 187.142C82.12 187.142 80.18 187.022 78.7 186.882C78.56 186.882 78.48 186.882 78.48 186.762C78.48 186.642 78.6 185.942 82.28 185.182C83.06 185.022 86.92 184.222 88.84 183.962C94.0496 185.081 99.0597 186.982 103.7 189.602C99.7754 188.728 95.8015 188.093 91.8 187.702ZM96.84 185.582C92.093 183.853 87.1699 182.652 82.16 182.002C77.68 181.442 76.66 180.642 76.66 180.402C76.66 180.162 76.8 179.522 81.98 178.802C84.892 178.443 87.8284 178.323 90.76 178.442C96.343 178.502 101.903 179.173 107.34 180.442C107.84 180.442 107.98 179.782 107.5 179.702L104.26 179.082C106.26 177.242 100.48 171.882 99.44 170.002C99.08 169.362 97.98 167.402 98.16 167.042C98.26 167.042 98.98 166.882 102.9 169.622C108.585 173.239 114.489 176.499 120.58 179.382L113.34 194.362C108.109 190.955 102.587 188.017 96.84 185.582ZM202.58 209.582L212.78 186.002C213.02 185.462 212.42 185.242 212.16 185.562C210.4 187.822 186.72 220.542 186.72 220.542C184.319 223.844 180.825 226.187 176.858 227.154C172.892 228.121 168.711 227.649 165.06 225.822L112.14 198.682L122.72 176.802L169.74 197.802C168.46 199.502 167.5 200.822 166.98 201.662C166.94 201.746 166.933 201.841 166.959 201.931C166.985 202.02 167.043 202.097 167.122 202.146C167.201 202.195 167.295 202.214 167.387 202.198C167.479 202.183 167.562 202.134 167.62 202.062C171.3 196.062 197.24 165.402 202.32 158.282C203.6 162.622 210.84 183.502 232.92 190.682C236.414 194.073 240.424 196.888 244.8 199.022C240.16 209.522 232.1 217.262 220.16 222.682C210.54 218.682 206.16 214.442 202.58 209.522V209.582ZM220.7 223.322C229.094 219.755 236.325 213.916 241.58 206.462C261.577 215.727 278.468 230.577 290.22 249.222L268.22 268.582L238.1 235.382C238.031 235.307 237.935 235.263 237.834 235.26C237.733 235.256 237.634 235.293 237.56 235.362C237.486 235.43 237.442 235.526 237.438 235.627C237.434 235.729 237.471 235.827 237.54 235.902L267.66 269.082L266.02 270.522L235.24 276.202L220.7 223.322ZM276 292.262C276 292.482 271.9 289.682 332.14 331.862C341.34 338.302 342.46 337.562 348.14 340.282C352.84 350.662 357.72 373.302 358.62 385.402C353.34 381.262 349.16 375.262 344.74 368.902C329.82 347.442 324.18 347.382 323.42 346.702L258.2 314.702C254.919 312.881 252.032 310.426 249.708 307.48C247.383 304.535 245.667 301.156 244.66 297.542L241.68 286.902L272.78 280.902L276 292.262ZM278.7 279.082L234.18 287.282L232.36 277.462L266.36 271.202L273.3 279.082C273.335 279.117 273.377 279.146 273.424 279.165C273.47 279.184 273.52 279.194 273.57 279.194C273.62 279.194 273.67 279.184 273.716 279.165C273.763 279.146 273.805 279.117 273.84 279.082L278.12 275.322L278.7 279.082ZM273.52 278.282L266.9 270.782L304.62 237.542L311.24 245.042L273.52 278.282ZM353.9 227.182C353.28 228.402 330.14 281.702 330.06 281.902C328.713 285.044 326.621 287.811 323.965 289.964C321.309 292.117 318.168 293.591 314.815 294.259C311.462 294.926 307.996 294.767 304.718 293.796C301.44 292.824 298.448 291.069 296 288.682L280.16 273.402L305.46 251.102L314.12 263.862C314.4 264.262 314.98 263.762 314.7 263.362L312.26 259.782L337.58 221.262C340.153 217.477 342.136 213.322 343.46 208.942C343.88 207.662 344.3 206.322 344.92 204.762C354.92 199.342 377.22 192.942 389.22 191.222C380.68 203.802 362 211.562 353.82 227.182H353.9Z" fill="#1890ff"/>
</svg>
