<svg width="400" height="401" viewBox="0 0 400 401" fill="none" xmlns="http://www.w3.org/2000/svg">
<path d="M374.74 212.382C394.48 178.382 377.78 148.702 338.44 147.942C316.24 115.762 294.9 95.7216 282.7 95.7016C282.644 95.6886 282.586 95.6883 282.53 95.7008C282.474 95.7133 282.422 95.7383 282.377 95.7739C282.332 95.8095 282.296 95.8547 282.271 95.9063C282.246 95.9579 282.233 96.0144 282.233 96.0717C282.233 96.1289 282.246 96.1854 282.271 96.237C282.296 96.2886 282.332 96.3338 282.377 96.3694C282.422 96.405 282.474 96.43 282.53 96.4425C282.586 96.455 282.644 96.4547 282.7 96.4417H283.72C291.32 99.8817 298.7 109.702 286.32 120.262C282.964 122.909 279.165 124.94 275.1 126.262C275.061 126.182 274.995 126.118 274.914 126.082C274.833 126.045 274.742 126.039 274.657 126.062C274.571 126.086 274.497 126.139 274.446 126.212C274.396 126.285 274.372 126.373 274.38 126.462C285.38 181.462 341.94 273.382 375.1 289.182L271 269.022C270.28 268.722 269.52 268.362 268.7 267.922C268.65 267.899 268.596 267.887 268.542 267.885C268.487 267.884 268.433 267.894 268.382 267.915C268.332 267.935 268.286 267.966 268.248 268.005C268.209 268.044 268.18 268.091 268.16 268.142C267.78 269.142 267.4 270.142 266.98 271.262C266.956 271.335 266.956 271.415 266.979 271.489C267.001 271.563 267.046 271.628 267.107 271.676C267.168 271.724 267.242 271.752 267.32 271.757C267.397 271.761 267.474 271.742 267.54 271.702L270.96 269.702L379.26 290.802C381.894 291.68 384.768 291.486 387.26 290.262C398 284.322 392.98 253.002 374.74 212.382ZM335.42 249.362C315.599 222.487 299.15 193.282 286.44 162.402C304.76 152.662 324.28 147.882 341.46 148.902C377.1 151.042 392.14 177.682 375.46 209.302C366.8 225.802 351.7 239.662 335.42 249.362Z" fill="#0a48b3"/>
<path d="M277.48 361.562L250.34 312.682C250.29 312.594 250.206 312.53 250.109 312.504C250.011 312.478 249.907 312.491 249.82 312.542C249.732 312.592 249.669 312.675 249.642 312.773C249.616 312.87 249.63 312.974 249.68 313.062L276.82 361.842C277.859 363.706 278.167 365.89 277.682 367.968C277.198 370.046 275.956 371.87 274.2 373.082C267.126 377.995 259.582 382.195 251.68 385.622C249.724 386.475 247.519 386.566 245.499 385.878C243.479 385.189 241.789 383.771 240.76 381.902L200.36 309.302L236.02 289.302C236.089 289.273 236.147 289.224 236.189 289.162C236.23 289.099 236.252 289.026 236.252 288.952C236.252 288.877 236.23 288.804 236.189 288.742C236.147 288.68 236.089 288.631 236.02 288.602C239.66 275.282 244.62 256.862 245.22 254.402C243.92 247.842 240.96 232.862 239.64 226.282L236.28 225.942L235.04 229.182L232 228.682L220.24 252.862C218.25 256.952 214.756 260.115 210.488 261.688C206.22 263.262 201.508 263.123 197.34 261.302L166.72 246.542C166.754 246.47 166.765 246.389 166.751 246.31C166.737 246.231 166.698 246.159 166.64 246.104C166.583 246.049 166.509 246.013 166.43 246.002C166.351 245.99 166.271 246.004 166.2 246.042L146.66 257.042C126.14 268.602 124.66 289.882 132.06 305.042C112.046 303.868 92.9839 296.101 77.8492 282.953C62.7146 269.805 52.3593 252.015 48.4 232.362C53.726 231.855 58.6888 229.438 62.3722 225.558C66.0556 221.677 68.2108 216.596 68.4399 211.25C68.669 205.905 66.9566 200.658 63.6187 196.476C60.2809 192.295 55.5431 189.463 50.28 188.502C54.015 175.905 60.4332 164.265 69.0933 154.384C77.7534 144.503 88.4503 136.613 100.449 131.258C112.447 125.903 125.463 123.21 138.601 123.362C151.739 123.515 164.689 126.51 176.56 132.142C176.605 132.172 176.657 132.192 176.711 132.201C176.765 132.21 176.82 132.207 176.873 132.192C176.925 132.177 176.974 132.151 177.016 132.116C177.058 132.081 177.092 132.037 177.115 131.988C177.138 131.938 177.151 131.884 177.151 131.83C177.152 131.775 177.14 131.721 177.118 131.671C177.096 131.621 177.063 131.576 177.022 131.54C176.981 131.504 176.932 131.477 176.88 131.462C164.904 125.779 151.84 122.759 138.585 122.609C125.331 122.459 112.201 125.182 100.099 130.591C87.998 136 77.2122 143.967 68.4841 153.944C59.7561 163.92 53.2932 175.669 49.54 188.382C46.458 187.899 43.3088 188.072 40.2984 188.89C37.288 189.708 34.4843 191.153 32.0706 193.129C29.657 195.105 27.6878 197.569 26.2919 200.359C24.896 203.149 24.1049 206.202 23.9703 209.319C23.8358 212.435 24.3607 215.545 25.5109 218.445C26.6611 221.345 28.4106 223.969 30.6449 226.146C32.8792 228.323 35.548 230.004 38.4766 231.079C41.4053 232.153 44.5278 232.597 47.64 232.382C51.6598 252.275 62.1769 270.269 77.538 283.534C92.899 296.799 112.233 304.583 132.5 305.662C138.02 316.362 149.02 325.262 162.9 325.262C168.116 325.216 173.262 324.064 178 321.882L199.66 309.742L240.06 382.362C241.188 384.386 243.03 385.918 245.227 386.657C247.424 387.397 249.817 387.292 251.94 386.362C259.896 382.931 267.488 378.71 274.6 373.762C276.511 372.45 277.865 370.474 278.397 368.218C278.93 365.963 278.603 363.589 277.48 361.562ZM50 189.242C55.1017 190.151 59.7 192.881 62.9412 196.925C66.1825 200.968 67.8464 206.05 67.624 211.228C67.4017 216.405 65.3082 221.326 61.7323 225.077C58.1563 228.827 53.3409 231.153 48.18 231.622C45.4608 217.547 46.0841 203.031 50 189.242ZM177.68 321.242C136.96 339.402 108.44 279.422 147.02 257.702L150.74 255.602C148.92 273.262 161.92 306.222 184.3 317.602L177.68 321.242Z" fill="#0a48b3"/>
<path d="M212.88 119.402C212.34 119.662 211.74 119.942 211.1 120.202C188.46 129.622 168.54 134.682 129.5 142.302C130.34 142.102 131.3 142.722 132.26 143.942C137.48 150.542 139.66 168.402 135.58 169.322C160.88 164.682 188.48 158.242 212.12 147.802C216.24 153.922 224.24 161.142 225.14 168.662C235.62 171.042 248.28 170.662 254.78 166.402C257.78 146.562 256.78 137.402 254.3 131.822C262.759 130.613 271.019 128.279 278.86 124.882C281.553 123.749 284.061 122.218 286.3 120.342C300.92 107.882 288.02 96.4417 279.7 95.3217C266.1 93.5017 250.3 91.6217 250.3 91.6217C253.36 92.0417 255 98.5417 253.94 106.102C252.88 113.662 249.56 119.482 246.5 119.062C244.5 118.782 243.14 115.982 242.7 111.982C240.8 112.382 238.86 112.742 236.9 113.082C236.9 113.082 246.42 127.802 237.74 131.082C230.18 133.982 212.88 119.402 212.88 119.402Z" fill="#FFE7EA"/>
<path d="M219.36 174.682C215.262 166.172 209.864 158.351 203.36 151.502C203.291 151.427 203.254 151.329 203.258 151.228C203.262 151.126 203.306 151.031 203.38 150.962C203.454 150.893 203.553 150.856 203.654 150.86C203.755 150.864 203.851 150.907 203.92 150.982C210.462 157.922 215.886 165.837 220 174.442C219.993 174.513 219.967 174.58 219.923 174.637C219.88 174.694 219.822 174.737 219.755 174.762C219.688 174.787 219.616 174.793 219.546 174.779C219.476 174.764 219.412 174.731 219.36 174.682Z" fill="#0a48b3"/>
<path d="M256.1 151.102L264 129.702C264.009 129.647 264.031 129.594 264.063 129.548C264.095 129.502 264.136 129.464 264.185 129.436C264.233 129.408 264.287 129.391 264.343 129.387C264.398 129.382 264.454 129.39 264.507 129.409C264.559 129.429 264.607 129.459 264.646 129.499C264.685 129.539 264.715 129.587 264.733 129.64C264.752 129.693 264.758 129.749 264.753 129.805C264.747 129.86 264.729 129.914 264.7 129.962L256.84 151.362C256.805 151.46 256.733 151.54 256.64 151.585C256.546 151.63 256.438 151.636 256.34 151.602C256.242 151.567 256.161 151.495 256.116 151.401C256.071 151.308 256.065 151.2 256.1 151.102Z" fill="#0a48b3"/>
<path d="M130.72 160.982C127.596 160.726 124.56 159.821 121.806 158.327C119.051 156.832 116.638 154.78 114.72 152.302C114.683 152.263 114.656 152.217 114.638 152.167C114.62 152.117 114.613 152.063 114.618 152.01C114.622 151.957 114.637 151.906 114.663 151.859C114.688 151.813 114.723 151.772 114.765 151.739C114.807 151.707 114.856 151.684 114.908 151.671C114.959 151.659 115.013 151.658 115.065 151.667C115.118 151.677 115.167 151.697 115.211 151.727C115.255 151.757 115.292 151.796 115.32 151.842C117.183 154.249 119.531 156.239 122.211 157.682C124.891 159.126 127.844 159.991 130.88 160.222C130.981 160.243 131.069 160.303 131.125 160.389C131.181 160.476 131.201 160.581 131.18 160.682C131.159 160.782 131.098 160.871 131.012 160.927C130.926 160.983 130.821 161.003 130.72 160.982Z" fill="#0a48b3"/>
<path d="M104.34 316.162C103.438 316.722 102.674 317.479 102.106 318.376C101.538 319.273 101.181 320.287 101.06 321.342L99.4599 320.902C98.7068 320.681 97.9171 320.613 97.1374 320.703C96.3576 320.792 95.6037 321.036 94.9199 321.422C93.9001 322.006 93.0743 322.877 92.545 323.926C92.0157 324.975 91.8062 326.157 91.9425 327.324C92.0788 328.491 92.555 329.593 93.3118 330.492C94.0687 331.391 95.073 332.048 96.1999 332.382L108.94 335.982C108.987 335.997 109.037 336.002 109.086 335.997C109.136 335.992 109.184 335.977 109.227 335.952C109.27 335.928 109.308 335.895 109.337 335.855C109.367 335.815 109.389 335.77 109.4 335.722L113 323.002C113.308 321.867 113.275 320.667 112.907 319.551C112.539 318.435 111.85 317.451 110.928 316.723C110.006 315.994 108.889 315.553 107.718 315.453C106.547 315.353 105.372 315.6 104.34 316.162ZM93.2799 329.182C92.7763 328.279 92.5521 327.247 92.6358 326.216C92.7195 325.186 93.1072 324.203 93.7499 323.394C94.3926 322.584 95.2612 321.983 96.2458 321.668C97.2303 321.352 98.2863 321.336 99.2799 321.622L101.28 322.182C101.375 322.202 101.474 322.186 101.559 322.138C101.644 322.091 101.708 322.013 101.74 321.922L102.3 319.922C102.769 318.708 103.675 317.714 104.839 317.133C106.004 316.553 107.343 316.428 108.594 316.784C109.846 317.139 110.92 317.949 111.605 319.055C112.291 320.161 112.538 321.483 112.3 322.762L108.8 335.142L96.4399 331.642C95.7768 331.461 95.156 331.15 94.6136 330.728C94.0712 330.306 93.6179 329.78 93.2799 329.182Z" fill="#0a48b3"/>
<path d="M352.92 124.682C352.299 123.878 351.454 123.276 350.491 122.952C349.528 122.628 348.491 122.596 347.51 122.861C346.53 123.127 345.649 123.676 344.981 124.441C344.313 125.206 343.886 126.152 343.755 127.16C343.624 128.167 343.794 129.191 344.244 130.101C344.694 131.012 345.404 131.769 346.285 132.276C347.165 132.784 348.175 133.019 349.189 132.952C350.203 132.886 351.174 132.52 351.98 131.902C353.059 131.067 353.764 129.839 353.941 128.486C354.117 127.133 353.75 125.765 352.92 124.682ZM351.52 131.302C350.831 131.834 349.999 132.15 349.13 132.21C348.262 132.27 347.395 132.07 346.639 131.637C345.884 131.203 345.274 130.555 344.887 129.775C344.5 128.995 344.354 128.117 344.466 127.254C344.578 126.39 344.944 125.579 345.517 124.924C346.091 124.268 346.846 123.797 347.687 123.571C348.528 123.345 349.417 123.374 350.242 123.653C351.067 123.933 351.79 124.451 352.32 125.142C353.016 126.063 353.323 127.221 353.173 128.365C353.023 129.51 352.43 130.551 351.52 131.262V131.302Z" fill="#0a48b3"/>
<path d="M219.7 180.682C219.599 180.682 219.503 180.642 219.431 180.57C219.36 180.499 219.32 180.402 219.32 180.302C219.32 180.201 219.36 180.104 219.431 180.033C219.503 179.962 219.599 179.922 219.7 179.922C227.84 179.922 230.98 175.062 231.02 175.002C231.078 174.929 231.161 174.88 231.253 174.865C231.344 174.849 231.439 174.868 231.518 174.917C231.597 174.967 231.655 175.043 231.681 175.133C231.707 175.222 231.7 175.318 231.66 175.402C231.52 175.642 228.28 180.682 219.7 180.682Z" fill="#0a48b3"/>
<path d="M109.18 95.4217L100.34 99.4217L96.3399 90.5617C96.2975 90.4689 96.2199 90.3968 96.1243 90.3611C96.0286 90.3255 95.9228 90.3293 95.8299 90.3718C95.7371 90.4142 95.6649 90.4918 95.6293 90.5874C95.5937 90.683 95.5975 90.7889 95.6399 90.8817L99.6399 99.7417L90.7999 103.742C90.7475 103.757 90.6991 103.784 90.658 103.82C90.617 103.856 90.5841 103.901 90.5618 103.951C90.5395 104.001 90.5282 104.055 90.5288 104.11C90.5293 104.164 90.5416 104.218 90.5649 104.268C90.5882 104.317 90.6219 104.361 90.6637 104.396C90.7055 104.432 90.7544 104.457 90.8071 104.472C90.8598 104.487 90.915 104.49 90.969 104.481C91.023 104.472 91.0745 104.452 91.1199 104.422L99.9599 100.422L103.96 109.262C103.971 109.317 103.995 109.369 104.03 109.414C104.064 109.46 104.108 109.496 104.158 109.522C104.209 109.548 104.264 109.563 104.321 109.564C104.377 109.566 104.434 109.555 104.485 109.532C104.537 109.509 104.583 109.475 104.62 109.432C104.657 109.389 104.684 109.338 104.699 109.284C104.714 109.229 104.716 109.172 104.706 109.116C104.696 109.06 104.673 109.008 104.64 108.962L100.64 100.102L109.5 96.1017C109.576 96.0512 109.631 95.9752 109.655 95.8875C109.679 95.7998 109.671 95.7064 109.633 95.624C109.594 95.5417 109.527 95.476 109.444 95.4389C109.361 95.4018 109.267 95.3957 109.18 95.4217Z" fill="#0a48b3"/>
<path d="M275.56 29.8817L260.58 24.1217C260.509 24.0939 260.431 24.0882 260.356 24.1054C260.282 24.1226 260.214 24.1618 260.163 24.218C260.111 24.2741 260.077 24.3446 260.066 24.4202C260.055 24.4958 260.067 24.573 260.1 24.6417L262.62 30.1617C257.18 33.4817 248.16 37.2417 245.74 31.3417C245.5 30.7617 244.8 31.0417 245.04 31.6217C247.44 37.6217 251.76 41.6217 258.4 41.6217C261.342 41.5592 264.238 40.8777 266.9 39.6217L269.6 45.6217C269.629 45.6905 269.678 45.7492 269.74 45.7905C269.802 45.8317 269.875 45.8537 269.95 45.8537C270.025 45.8537 270.098 45.8317 270.16 45.7905C270.222 45.7492 270.271 45.6905 270.3 45.6217L275.78 30.5217C275.837 30.4753 275.879 30.4122 275.9 30.3412C275.92 30.2702 275.918 30.1945 275.894 30.1246C275.87 30.0547 275.825 29.9939 275.765 29.9504C275.706 29.907 275.634 29.883 275.56 29.8817ZM270 44.3417L267.54 38.9217C267.478 38.8245 267.381 38.7554 267.269 38.7292C267.156 38.703 267.038 38.7219 266.94 38.7817C266.16 39.1617 259.7 42.1817 253.8 39.9817C251.022 38.8915 248.71 36.8694 247.26 34.2617C251.44 36.9217 259.26 33.2617 263.4 30.6217C263.56 30.5217 263.62 30.3417 263.4 30.0417L261.16 25.1617L274.94 30.4617L270 44.3417Z" fill="#0a48b3"/>
<path d="M260.36 63.4017C253.908 63.3777 247.654 61.1648 242.623 57.1251C237.591 53.0853 234.08 47.4578 232.662 41.1629C231.245 34.8681 232.005 28.2785 234.819 22.472C237.634 16.6656 242.335 11.9859 248.154 9.19845C253.973 6.41099 260.566 5.68075 266.855 7.12717C273.143 8.57358 278.754 12.111 282.771 17.1609C286.788 22.2108 288.972 28.4742 288.966 34.9267C288.96 41.3792 286.765 47.6388 282.74 52.6817C280.061 56.0424 276.656 58.7527 272.78 60.6093C268.904 62.4659 264.658 63.4206 260.36 63.4017ZM260.36 7.18169C253.809 7.17619 247.468 9.49101 242.461 13.7156C237.454 17.9402 234.105 23.8015 233.008 30.2601C231.911 36.7186 233.137 43.3569 236.468 48.9977C239.8 54.6385 245.021 58.9172 251.207 61.0749C257.392 63.2326 264.142 63.13 270.259 60.7851C276.376 58.4402 281.465 54.0047 284.623 48.2652C287.781 42.5257 288.804 35.8532 287.512 29.431C286.219 23.0088 282.693 17.252 277.56 13.1817C272.682 9.31388 266.645 7.20041 260.42 7.18169H260.36Z" fill="#0a48b3"/>
<path d="M334.98 326.542C334.964 325.592 334.572 324.688 333.889 324.028C333.206 323.368 332.289 323.006 331.34 323.022C330.39 323.038 329.486 323.43 328.826 324.113C328.166 324.795 327.804 325.712 327.82 326.662L318.26 325.462C318.163 324.545 317.717 323.701 317.016 323.102C316.315 322.504 315.41 322.198 314.49 322.247C313.569 322.295 312.702 322.695 312.068 323.364C311.434 324.033 311.08 324.92 311.08 325.842C311.08 326.764 311.434 327.65 312.068 328.319C312.702 328.988 313.569 329.388 314.49 329.437C315.41 329.485 316.315 329.179 317.016 328.581C317.717 327.983 318.163 327.138 318.26 326.222L327.82 327.422C327.951 328.25 328.378 329.003 329.02 329.542L324.68 337.022C323.806 336.73 322.853 336.785 322.018 337.175C321.184 337.565 320.53 338.26 320.192 339.118C319.855 339.975 319.859 340.929 320.203 341.784C320.548 342.638 321.207 343.328 322.045 343.711C322.883 344.094 323.836 344.141 324.708 343.843C325.58 343.545 326.304 342.923 326.731 342.107C327.159 341.291 327.257 340.341 327.005 339.455C326.754 338.569 326.172 337.812 325.38 337.342L329.64 329.982C330.21 330.299 330.855 330.456 331.507 330.435C332.159 330.414 332.793 330.217 333.342 329.863C333.89 329.51 334.332 329.014 334.621 328.429C334.909 327.844 335.033 327.192 334.98 326.542ZM326.44 340.222C326.488 340.839 326.334 341.455 326 341.976C325.666 342.497 325.171 342.895 324.59 343.109C324.009 343.323 323.374 343.341 322.782 343.161C322.19 342.98 321.673 342.612 321.309 342.111C320.946 341.61 320.756 341.003 320.769 340.385C320.782 339.766 320.997 339.168 321.381 338.682C321.765 338.197 322.297 337.85 322.896 337.695C323.495 337.539 324.129 337.584 324.7 337.822C325.183 338.023 325.601 338.353 325.908 338.777C326.215 339.2 326.399 339.7 326.44 340.222ZM316.88 327.882C316.579 328.239 316.194 328.517 315.759 328.691C315.325 328.864 314.854 328.927 314.39 328.875C313.925 328.822 313.48 328.656 313.095 328.391C312.71 328.125 312.397 327.769 312.183 327.353C311.968 326.937 311.86 326.475 311.868 326.007C311.875 325.54 311.998 325.081 312.225 324.672C312.453 324.264 312.777 323.917 313.171 323.664C313.564 323.411 314.014 323.259 314.48 323.222C315.039 323.177 315.598 323.298 316.088 323.571C316.577 323.843 316.976 324.254 317.232 324.752C317.489 325.25 317.592 325.813 317.53 326.37C317.467 326.927 317.241 327.453 316.88 327.882ZM331.64 329.662C331.08 329.707 330.519 329.586 330.028 329.313C329.537 329.04 329.139 328.627 328.882 328.127C328.626 327.627 328.524 327.063 328.588 326.505C328.653 325.947 328.881 325.42 329.245 324.992C329.609 324.564 330.091 324.253 330.632 324.1C331.172 323.946 331.746 323.956 332.28 324.128C332.815 324.3 333.287 324.627 333.635 325.068C333.984 325.508 334.195 326.042 334.24 326.602C334.273 326.974 334.231 327.349 334.118 327.705C334.005 328.061 333.822 328.391 333.58 328.675C333.338 328.96 333.042 329.194 332.709 329.363C332.376 329.533 332.013 329.634 331.64 329.662Z" fill="#0a48b3"/>
<path d="M323.06 353.982C318.676 353.982 314.391 352.681 310.746 350.246C307.102 347.81 304.262 344.348 302.585 340.297C300.908 336.247 300.471 331.79 301.327 327.491C302.184 323.192 304.296 319.243 307.398 316.145C310.499 313.047 314.449 310.938 318.749 310.085C323.049 309.232 327.505 309.674 331.554 311.354C335.603 313.035 339.062 315.878 341.495 319.525C343.928 323.172 345.224 327.458 345.22 331.842C345.215 337.715 342.878 343.347 338.722 347.498C334.567 351.65 328.934 353.982 323.06 353.982ZM323.06 310.442C318.827 310.442 314.69 311.697 311.171 314.048C307.652 316.4 304.909 319.742 303.289 323.652C301.669 327.563 301.245 331.865 302.071 336.017C302.897 340.168 304.935 343.981 307.928 346.974C310.921 349.967 314.734 352.005 318.885 352.83C323.036 353.656 327.339 353.232 331.249 351.613C335.16 349.993 338.502 347.25 340.853 343.731C343.205 340.212 344.46 336.074 344.46 331.842C344.455 326.168 342.198 320.728 338.186 316.715C334.174 312.703 328.734 310.447 323.06 310.442Z" fill="#0a48b3"/>
<path d="M292.88 105.642C291.18 99.8817 284.74 95.6417 279.76 94.9217C267.32 93.2617 252.84 91.5217 250.64 91.2617C250.22 91.1515 249.78 91.1515 249.36 91.2617C249.68 87.5417 250.38 84.1017 249.94 82.4817C249.72 81.6817 249.04 81.5017 248.36 82.2817C246.86 83.9817 246.36 87.0817 247.66 81.4417C248.06 79.5617 248.86 75.1617 247.34 74.7217C246.52 74.5017 245.68 75.5617 244.94 77.0417C245.14 73.0417 244.52 72.3017 243.92 72.1817C242.7 71.9617 241.44 75.1017 241 76.2817C241 74.6417 241 73.1017 240.36 72.9417C239.72 72.7817 239.36 72.9417 238.04 76.9417C236.72 81.169 235.868 85.5284 235.5 89.9417C235.093 88.9791 234.525 88.093 233.82 87.3217C233.38 86.8217 233 86.9217 232.8 87.0217C231.04 88.0017 232.1 99.5417 233.7 105.442C234.46 108.242 237.44 110.502 241.7 111.862C239.16 112.382 236.52 112.862 233.84 113.282C229.28 114.002 226.86 108.642 226.32 107.282C227.236 107.05 228.093 106.63 228.837 106.048C229.581 105.466 230.195 104.735 230.64 103.902C232.1 100.682 230.14 95.9017 224.82 89.9017C224.94 84.8566 223.346 79.9199 220.297 75.8983C217.249 71.8768 212.926 69.0081 208.036 67.7612C203.146 66.5144 197.978 66.963 193.376 69.0337C188.774 71.1045 185.01 74.675 182.7 79.1617C181.173 77.7632 179.283 76.8225 177.247 76.4469C175.21 76.0713 173.109 76.276 171.184 77.0377C169.258 77.7993 167.585 79.0872 166.357 80.7542C165.128 82.4212 164.393 84.4 164.236 86.4648C164.079 88.5296 164.505 90.597 165.467 92.4309C166.429 94.2648 167.887 95.7913 169.675 96.8359C171.463 97.8806 173.508 98.4014 175.578 98.3387C177.648 98.2761 179.658 97.6326 181.38 96.4817C182.52 99.8275 184.439 102.855 186.978 105.314C189.517 107.773 192.603 109.594 195.984 110.627C199.364 111.661 202.941 111.876 206.421 111.256C209.901 110.636 213.184 109.199 216 107.062C219.26 113.322 218.24 116.802 210.94 119.842C187.38 129.642 166.82 134.542 129.76 141.842C128.16 142.162 127.56 143.602 127.24 145.322L126.52 145.562C125.421 145.982 124.221 146.062 123.076 145.791C121.931 145.52 120.894 144.91 120.1 144.042C112.6 135.902 111.04 137.002 110.52 137.362C107.74 139.362 114.34 146.442 114.3 149.742C114.3 150.362 111.7 151.002 109.68 151.042L98.38 151.262C96.38 151.262 92.9 151.502 92.82 152.942C92.74 154.382 95.58 155.122 98.26 155.462L105.84 156.422L95.12 158.422C93.12 158.762 89.74 159.522 89.88 160.962C90.02 162.402 92.44 162.602 94.92 162.602C96.04 162.602 97.52 162.482 106.56 162.302C104.38 162.962 101.52 163.722 98.2 164.462C94.88 165.202 93 166.182 93.14 167.202C93.36 168.742 97.48 168.662 99.02 168.582C100.56 168.502 104.9 168.182 107.94 167.822C106.56 168.342 105.04 168.882 103.42 169.322C99.96 170.282 98.32 171.322 98.5 172.282C98.92 174.462 107.14 173.042 109.32 172.662C120.12 170.782 123.52 170.662 132.66 168.202C133.4 169.102 134.48 170.042 135.62 169.822C166.94 163.402 192.14 156.982 212 148.262C216 154.262 223.8 161.322 224.78 168.522C211.713 181.441 202.354 197.631 197.68 215.402C197.651 215.484 197.654 215.575 197.687 215.656C197.72 215.737 197.782 215.803 197.86 215.842L200.82 217.442C200.66 218.502 199.98 222.662 199.42 227.442C195.56 226.682 167.74 220.682 156 217.842C149.145 216.383 142.684 213.464 137.06 209.282C136.957 209.243 136.843 209.243 136.74 209.282C118.665 212.265 101.439 219.084 86.22 229.282C86.158 229.321 86.1095 229.378 86.0811 229.446C86.0526 229.514 86.0455 229.589 86.0608 229.66C86.076 229.732 86.1128 229.798 86.1663 229.848C86.2198 229.898 86.2873 229.931 86.36 229.942C118.36 237.822 127.5 228.742 142.48 235.282C143.16 235.582 137.5 232.862 196.62 261.282C200.91 263.349 205.844 263.632 210.343 262.069C214.841 260.506 218.536 257.224 220.62 252.942L232.26 228.942L234.88 229.502C234.927 229.517 234.977 229.521 235.027 229.515C235.076 229.508 235.123 229.491 235.165 229.464C235.207 229.438 235.243 229.402 235.27 229.36C235.296 229.318 235.314 229.271 235.32 229.222L236.46 226.282C237.38 226.362 238.3 226.422 239.22 226.462L244.76 254.342C243.8 258.162 233.54 296.122 231.92 301.742C229.58 309.742 224.2 319.062 223.44 320.822C223.36 320.969 223.318 321.134 223.32 321.302C226.614 339.065 233.019 356.106 242.24 371.642C242.271 371.705 242.32 371.758 242.38 371.795C242.44 371.832 242.509 371.852 242.58 371.852C242.651 371.852 242.72 371.832 242.78 371.795C242.84 371.758 242.888 371.705 242.92 371.642C252.3 344.542 243.62 331.642 248.12 318.042C248.34 317.562 269.66 269.682 272.94 255.902C273.788 244.43 273.116 232.897 270.94 221.602C272.3 221.122 273.64 220.602 274.94 220.062C275.028 220.022 275.098 219.95 275.135 219.861C275.172 219.772 275.174 219.672 275.14 219.582C265.38 192.462 255.86 167.982 255.14 166.262C258.06 146.902 257.14 137.702 254.82 132.022C263.137 130.8 271.254 128.48 278.96 125.122C287.06 121.742 295.34 114.042 292.88 105.642ZM244.46 80.1817C245.92 76.1817 246.98 75.4217 247.12 75.4617C247.26 75.5017 247.84 77.0617 246.92 81.3017C246.08 85.0817 245.26 88.4617 244.78 91.3017C243.994 90.5102 243.098 89.8366 242.12 89.3017C242.84 85.8017 244 81.2417 244.46 80.1817ZM243.36 73.2617C243.76 72.8017 243.88 72.8817 244.02 73.3817C244.322 75.2898 244.322 77.2336 244.02 79.1417C242.958 82.3346 242.083 85.5868 241.4 88.8817C240.682 88.5346 239.932 88.26 239.16 88.0617C239.64 84.5617 241.12 76.0017 243.36 73.2617ZM234.42 105.262C232.58 98.4017 232.22 88.3417 233.12 87.7217C234.226 88.8714 234.995 90.3039 235.34 91.8617C235.187 93.4313 235.187 95.0121 235.34 96.5817C235.343 96.6358 235.357 96.6887 235.382 96.7369C235.407 96.785 235.442 96.8272 235.485 96.8607C235.527 96.8941 235.577 96.9181 235.629 96.931C235.682 96.9438 235.737 96.9453 235.79 96.9352C235.843 96.9251 235.894 96.9037 235.938 96.8725C235.982 96.8413 236.02 96.801 236.047 96.7543C236.075 96.7075 236.092 96.6555 236.097 96.6015C236.103 96.5476 236.097 96.4931 236.08 96.4417C235.849 89.9259 236.735 83.4186 238.7 77.2017C239.027 76.0539 239.497 74.9518 240.1 73.9217C240.276 76.079 240.175 78.25 239.8 80.3817C239.16 83.1217 238.7 85.6217 238.38 88.0017L237.72 87.8817C237.622 87.876 237.526 87.9082 237.452 87.9715C237.377 88.0348 237.33 88.1244 237.32 88.2217C237.311 88.2705 237.313 88.3206 237.325 88.3688C237.337 88.4169 237.358 88.4621 237.388 88.5015C237.418 88.541 237.456 88.5738 237.499 88.5979C237.543 88.622 237.591 88.6369 237.64 88.6417C239.231 88.8573 240.756 89.4161 242.11 90.2795C243.464 91.1428 244.613 92.29 245.48 93.6417C245.72 94.0617 246.4 93.6417 246.14 93.2817C245.906 92.8545 245.639 92.4465 245.34 92.0617C245.52 90.9617 245.8 89.6417 246.1 88.2817C246.829 86.484 247.657 84.728 248.58 83.0217C249.02 82.3617 249.24 82.5617 249.32 83.3017C249.327 84.81 249.2 86.316 248.94 87.8017C248.362 92.7278 248.054 97.6819 248.02 102.642C248.02 102.742 248.06 102.839 248.131 102.91C248.203 102.982 248.299 103.022 248.4 103.022C248.501 103.022 248.597 102.982 248.669 102.91C248.74 102.839 248.78 102.742 248.78 102.642C248.78 101.402 248.78 98.4217 249.04 95.1817C250.343 95.7782 251.748 96.1177 253.18 96.1817C254.305 101.622 253.882 107.269 251.96 112.482C243.04 112.682 235.62 109.562 234.42 105.162V105.262ZM218.22 110.582C217.532 108.14 216.407 105.843 214.9 103.802C214.61 103.51 214.229 103.327 213.82 103.282C207.16 102.562 207.44 96.7617 211.14 97.9817C212.44 98.4217 213.14 98.4417 213.62 97.9817C213.777 97.7922 213.878 97.5632 213.914 97.3198C213.949 97.0763 213.916 96.8279 213.82 96.6017C211.82 91.6617 213.52 80.2017 222.14 88.1617C225.5 91.2817 231.98 99.0417 229.96 103.522C228.3 107.162 221.96 107.202 221.84 107.202C221.72 107.202 221.16 107.622 221.62 107.882L227.8 111.262C228.485 112.237 229.428 113.004 230.522 113.477C231.616 113.95 232.82 114.111 234 113.942L236.76 113.482C240.3 119.222 243.92 128.342 237.66 130.742C231.06 133.242 216.34 121.662 213.66 119.442C217.48 117.342 219.34 114.682 218.22 110.482V110.582ZM212.84 119.922C214.64 121.422 227.6 131.922 235.5 131.922C236.798 131.995 238.086 131.645 239.168 130.924C240.25 130.202 241.069 129.149 241.5 127.922C243.12 123.002 238.8 115.402 237.6 113.402C239.1 113.142 240.6 112.862 242.04 112.562C243.18 114.562 243 116.562 244.66 118.402C247.12 125.482 247.48 133.462 240.38 135.822C232.96 138.282 222 133.642 207.82 122.022C209.64 121.222 211.66 120.402 212.84 119.822V119.922ZM95.64 161.682C91.92 161.822 90.68 161.042 90.64 160.762C90.6 160.482 91.34 159.662 95.26 159.022L109.84 156.442C110.219 157.903 110.742 159.323 111.4 160.682C111 160.822 110.2 161.102 109.18 161.422C108.46 161.382 101.42 161.502 95.64 161.682ZM99 167.682C95.22 167.902 93.94 167.222 93.9 166.962C93.86 166.702 94.56 165.922 98.4 164.962C102.916 163.969 107.37 162.714 111.74 161.202C112.39 162.47 113.146 163.681 114 164.822C113.44 165.142 112.18 165.822 110.42 166.622C109.02 166.882 104.28 167.402 99 167.682ZM120.5 169.962C111.9 171.202 109.44 171.962 104.62 172.422C100.62 172.882 99.32 172.282 99.26 172.002C99.2 171.722 99.88 170.962 103.64 170.002C107.429 168.928 111.08 167.418 114.52 165.502C115.531 166.743 116.606 167.931 117.74 169.062C117.809 169.131 117.902 169.169 118 169.169C118.097 169.169 118.191 169.131 118.26 169.062C118.329 168.993 118.368 168.899 118.368 168.802C118.368 168.704 118.329 168.611 118.26 168.542C114 164.002 111.14 160.162 110 153.742C109.977 153.645 109.919 153.559 109.839 153.501C109.758 153.442 109.659 153.414 109.56 153.422C109.462 153.441 109.376 153.498 109.32 153.58C109.264 153.663 109.242 153.764 109.26 153.862C109.26 154.502 109.5 155.122 109.64 155.722L108.34 155.942L98.34 154.682C94.64 154.202 93.54 153.242 93.56 152.962C93.58 152.682 94.42 152.002 98.36 151.982L109.68 151.762C109.68 151.762 115.04 151.562 115.04 149.762C115.04 146.502 109.04 139.342 111.04 138.002C111.76 137.482 114.42 138.942 119.62 144.582C120.517 145.559 121.686 146.245 122.976 146.551C124.267 146.858 125.619 146.771 126.86 146.302L132.18 144.422C135.62 149.002 138.18 160.042 137.2 165.982C131.742 167.728 126.159 169.059 120.5 169.962ZM220 252.682C219.019 254.718 217.646 256.541 215.959 258.046C214.272 259.551 212.305 260.708 210.17 261.451C208.036 262.194 205.775 262.509 203.518 262.377C201.262 262.245 199.054 261.669 197.02 260.682C138.14 232.282 143.66 234.942 143.02 234.682C129.86 228.922 121.28 234.682 99.74 231.782C112.797 223.808 126.816 217.531 141.46 213.102C146.002 215.589 150.86 217.452 155.9 218.642C167.74 221.542 195.9 227.522 199.42 228.282C198.975 231.879 198.721 235.497 198.66 239.122C198.66 239.222 198.7 239.319 198.771 239.39C198.843 239.462 198.939 239.502 199.04 239.502C199.141 239.502 199.237 239.462 199.309 239.39C199.38 239.319 199.42 239.222 199.42 239.122C199.692 232.001 200.427 224.906 201.62 217.882C211.112 222.832 221.192 226.562 231.62 228.982L220 252.682ZM272.24 255.882C269.02 269.542 247.72 317.362 247.48 317.882C243.48 329.882 249.28 340.362 245.48 359.882C244.08 357.082 239.48 347.882 227.14 315.642C229.4 311.332 231.268 306.827 232.72 302.182C234.16 297.202 245.56 254.842 245.6 254.622C245.64 254.402 245.6 254.622 240.08 226.622C250.33 226.948 260.551 225.361 270.22 221.942C272.373 233.112 273.032 244.518 272.18 255.862L272.24 255.882ZM274.36 219.602C262.477 224.496 249.616 226.55 236.8 225.602L249.24 193.142C249.269 193.094 249.287 193.04 249.293 192.985C249.298 192.929 249.292 192.873 249.273 192.82C249.255 192.767 249.225 192.719 249.186 192.679C249.147 192.639 249.099 192.609 249.047 192.589C248.994 192.57 248.938 192.562 248.883 192.567C248.827 192.571 248.773 192.588 248.725 192.616C248.676 192.644 248.635 192.682 248.603 192.728C248.571 192.774 248.549 192.827 248.54 192.882L234.78 228.762C222.075 226.128 209.847 221.569 198.52 215.242C203.187 197.711 212.445 181.742 225.34 168.982C233.9 170.982 247.34 171.462 254.66 166.982C256 170.382 265 193.742 274.3 219.582L274.36 219.602ZM278.78 124.522C271.065 127.869 262.941 130.183 254.62 131.402C253.45 128.956 251.971 126.671 250.22 124.602C250.155 124.533 250.068 124.491 249.974 124.484C249.88 124.476 249.787 124.504 249.712 124.561C249.638 124.618 249.587 124.701 249.57 124.794C249.553 124.886 249.571 124.982 249.62 125.062L250.06 125.642C254.4 131.242 258.88 137.042 254.5 166.182C247.72 170.602 234.82 170.402 225.54 168.342C224.82 163.222 220.88 158.222 217.24 153.742L219.74 144.682C219.74 144.462 219.74 143.822 219.24 144.122C198.66 154.242 171.74 162.302 136.98 168.682C140.24 163.682 136.02 145.522 131.12 142.322C165.24 135.642 185.3 130.882 206.94 122.322C219.06 132.322 228.64 137.222 236.02 137.222C244.52 137.222 249.46 131.222 245.66 119.222C246.44 119.582 244.58 119.462 272.18 119.462C272.281 119.462 272.377 119.422 272.449 119.35C272.52 119.279 272.56 119.182 272.56 119.082C272.56 118.981 272.52 118.884 272.449 118.813C272.377 118.742 272.281 118.702 272.18 118.702H248.9C251.34 116.902 253.5 112.122 254.32 106.182C254.588 104.261 254.682 102.32 254.6 100.382C254.48 97.9217 253.94 94.1017 252.2 92.2417C256.82 92.8017 268.98 94.2417 279.66 95.7217C284.4 96.3417 290.54 100.422 292.16 105.902C294.5 113.842 286.32 121.242 278.72 124.502L278.78 124.522Z" fill="#0a48b3"/>
</svg>
