<svg width="400" height="400" viewBox="0 0 400 400" fill="none" xmlns="http://www.w3.org/2000/svg">
<path d="M374.74 211.7C394.48 177.7 377.78 148.02 338.44 147.26C316.24 115.08 294.9 95.0403 282.7 95.0203C282.644 95.0072 282.586 95.0069 282.53 95.0194C282.474 95.0319 282.422 95.0569 282.377 95.0925C282.332 95.1281 282.296 95.1734 282.271 95.2249C282.246 95.2765 282.233 95.333 282.233 95.3903C282.233 95.4475 282.246 95.504 282.271 95.5556C282.296 95.6072 282.332 95.6524 282.377 95.688C282.422 95.7236 282.474 95.7486 282.53 95.7611C282.586 95.7736 282.644 95.7733 282.7 95.7603H283.72C291.32 99.2003 298.7 109.02 286.32 119.58C282.964 122.227 279.165 124.259 275.1 125.58C275.061 125.5 274.995 125.437 274.914 125.4C274.833 125.364 274.742 125.357 274.657 125.381C274.571 125.405 274.497 125.458 274.446 125.531C274.396 125.603 274.372 125.692 274.38 125.78C285.38 180.78 341.94 272.7 375.1 288.5L271 268.34C270.28 268.04 269.52 267.68 268.7 267.24C268.65 267.217 268.596 267.205 268.542 267.204C268.487 267.203 268.433 267.213 268.382 267.233C268.332 267.254 268.286 267.285 268.248 267.324C268.209 267.363 268.18 267.409 268.16 267.46C267.78 268.46 267.4 269.46 266.98 270.58C266.956 270.654 266.956 270.733 266.979 270.807C267.001 270.882 267.046 270.947 267.107 270.995C267.168 271.043 267.242 271.071 267.32 271.075C267.397 271.08 267.474 271.061 267.54 271.02L270.96 269.02L379.26 290.12C381.894 290.999 384.768 290.805 387.26 289.58C398 283.64 392.98 252.32 374.74 211.7ZM335.42 248.68C315.599 221.805 299.15 192.6 286.44 161.72C304.76 151.98 324.28 147.2 341.46 148.22C377.1 150.36 392.14 177 375.46 208.62C366.8 225.12 351.7 238.98 335.42 248.68Z" fill="white"/>
<path d="M277.48 360.88L250.34 312C250.29 311.912 250.206 311.849 250.109 311.822C250.011 311.796 249.907 311.81 249.82 311.86C249.732 311.91 249.669 311.993 249.642 312.091C249.616 312.188 249.63 312.292 249.68 312.38L276.82 361.16C277.859 363.024 278.167 365.208 277.682 367.286C277.198 369.365 275.956 371.188 274.2 372.4C267.126 377.313 259.582 381.514 251.68 384.94C249.724 385.793 247.519 385.884 245.499 385.196C243.479 384.508 241.789 383.09 240.76 381.22L200.36 308.62L236.02 288.62C236.089 288.591 236.147 288.542 236.189 288.48C236.23 288.418 236.252 288.345 236.252 288.27C236.252 288.195 236.23 288.122 236.189 288.06C236.147 287.998 236.089 287.949 236.02 287.92C239.66 274.6 244.62 256.18 245.22 253.72C243.92 247.16 240.96 232.18 239.64 225.6L236.28 225.26L235.04 228.5L232 228L220.24 252.18C218.25 256.271 214.756 259.434 210.488 261.007C206.22 262.58 201.508 262.441 197.34 260.62L166.72 245.86C166.754 245.788 166.765 245.707 166.751 245.628C166.737 245.55 166.698 245.478 166.64 245.422C166.583 245.367 166.509 245.331 166.43 245.32C166.351 245.309 166.271 245.323 166.2 245.36L146.66 256.36C126.14 267.92 124.66 289.2 132.06 304.36C112.046 303.186 92.9839 295.419 77.8492 282.271C62.7146 269.123 52.3593 251.333 48.4 231.68C53.726 231.173 58.6888 228.756 62.3722 224.876C66.0556 220.996 68.2108 215.914 68.4399 210.569C68.669 205.223 66.9566 199.976 63.6187 195.795C60.2809 191.613 55.5431 188.781 50.28 187.82C54.015 175.223 60.4332 163.584 69.0933 153.702C77.7534 143.821 88.4503 135.932 100.449 130.577C112.447 125.222 125.463 122.528 138.601 122.68C151.739 122.833 164.689 125.828 176.56 131.46C176.605 131.49 176.657 131.511 176.711 131.519C176.765 131.528 176.82 131.525 176.873 131.51C176.925 131.496 176.974 131.47 177.016 131.434C177.058 131.399 177.092 131.355 177.115 131.306C177.138 131.256 177.151 131.202 177.151 131.148C177.152 131.093 177.14 131.039 177.118 130.989C177.096 130.939 177.063 130.895 177.022 130.858C176.981 130.822 176.932 130.796 176.88 130.78C164.904 125.098 151.84 122.078 138.585 121.927C125.331 121.777 112.201 124.5 100.099 129.909C87.998 135.319 77.2122 143.286 68.4841 153.262C59.7561 163.238 53.2932 174.987 49.54 187.7C46.458 187.217 43.3088 187.39 40.2984 188.208C37.288 189.026 34.4843 190.471 32.0706 192.447C29.657 194.424 27.6878 196.887 26.2919 199.677C24.896 202.467 24.1049 205.52 23.9703 208.637C23.8358 211.754 24.3607 214.863 25.5109 217.763C26.6611 220.663 28.4106 223.287 30.6449 225.464C32.8792 227.641 35.548 229.322 38.4766 230.397C41.4053 231.471 44.5278 231.915 47.64 231.7C51.6598 251.594 62.1769 269.587 77.538 282.852C92.899 296.117 112.233 303.901 132.5 304.98C138.02 315.68 149.02 324.58 162.9 324.58C168.116 324.534 173.262 323.382 178 321.2L199.66 309.06L240.06 381.68C241.188 383.704 243.03 385.236 245.227 385.976C247.424 386.715 249.817 386.61 251.94 385.68C259.896 382.249 267.488 378.028 274.6 373.08C276.511 371.769 277.865 369.792 278.397 367.536C278.93 365.281 278.603 362.908 277.48 360.88ZM50 188.56C55.1017 189.47 59.7 192.199 62.9412 196.243C66.1825 200.286 67.8464 205.369 67.624 210.546C67.4017 215.723 65.3082 220.644 61.7323 224.395C58.1563 228.145 53.3409 230.471 48.18 230.94C45.4608 216.866 46.0841 202.349 50 188.56ZM177.68 320.56C136.96 338.72 108.44 278.74 147.02 257.02L150.74 254.92C148.92 272.58 161.92 305.54 184.3 316.92L177.68 320.56Z" fill="white"/>
<path d="M212.88 118.72C212.34 118.98 211.74 119.26 211.1 119.52C188.46 128.94 168.54 134 129.5 141.62C130.34 141.42 131.3 142.04 132.26 143.26C137.48 149.86 139.66 167.72 135.58 168.64C160.88 164 188.48 157.56 212.12 147.12C216.24 153.24 224.24 160.46 225.14 167.98C235.62 170.36 248.28 169.98 254.78 165.72C257.78 145.88 256.78 136.72 254.3 131.14C262.759 129.932 271.019 127.598 278.86 124.2C281.553 123.067 284.061 121.537 286.3 119.66C300.92 107.2 288.02 95.7599 279.7 94.6399C266.1 92.8199 250.3 90.9399 250.3 90.9399C253.36 91.3599 255 97.8599 253.94 105.42C252.88 112.98 249.56 118.8 246.5 118.38C244.5 118.1 243.14 115.3 242.7 111.3C240.8 111.7 238.86 112.06 236.9 112.4C236.9 112.4 246.42 127.12 237.74 130.4C230.18 133.3 212.88 118.72 212.88 118.72Z" fill="#B2BEC3"/>
<path d="M219.36 174C215.262 165.49 209.864 157.669 203.36 150.82C203.291 150.746 203.254 150.647 203.258 150.546C203.262 150.444 203.306 150.349 203.38 150.28C203.454 150.211 203.553 150.174 203.654 150.178C203.755 150.182 203.851 150.226 203.92 150.3C210.462 157.24 215.886 165.155 220 173.76C219.993 173.831 219.967 173.898 219.923 173.955C219.88 174.012 219.822 174.055 219.755 174.08C219.688 174.105 219.616 174.111 219.546 174.097C219.476 174.082 219.412 174.049 219.36 174Z" fill="white"/>
<path d="M256.1 150.42L264 129.02C264.009 128.965 264.031 128.912 264.063 128.867C264.095 128.821 264.136 128.782 264.185 128.754C264.233 128.727 264.287 128.71 264.343 128.705C264.398 128.7 264.454 128.708 264.507 128.727C264.559 128.747 264.607 128.778 264.646 128.818C264.685 128.857 264.715 128.905 264.733 128.958C264.752 129.011 264.758 129.067 264.753 129.123C264.747 129.178 264.729 129.232 264.7 129.28L256.84 150.68C256.805 150.778 256.733 150.858 256.64 150.903C256.546 150.948 256.438 150.954 256.34 150.92C256.242 150.885 256.161 150.813 256.116 150.72C256.071 150.626 256.065 150.518 256.1 150.42Z" fill="white"/>
<path d="M130.72 160.3C127.596 160.044 124.56 159.14 121.806 157.646C119.051 156.151 116.638 154.099 114.72 151.62C114.683 151.582 114.656 151.536 114.638 151.485C114.62 151.435 114.613 151.382 114.618 151.329C114.622 151.276 114.637 151.225 114.663 151.178C114.688 151.131 114.723 151.09 114.765 151.058C114.807 151.026 114.856 151.002 114.908 150.99C114.959 150.978 115.013 150.976 115.065 150.986C115.118 150.995 115.167 151.016 115.211 151.046C115.255 151.076 115.292 151.115 115.32 151.16C117.183 153.568 119.531 155.558 122.211 157.001C124.891 158.445 127.844 159.31 130.88 159.54C130.981 159.561 131.069 159.622 131.125 159.708C131.181 159.794 131.201 159.899 131.18 160C131.159 160.101 131.098 160.189 131.012 160.245C130.926 160.302 130.821 160.321 130.72 160.3Z" fill="white"/>
<path d="M104.34 315.48C103.438 316.04 102.674 316.797 102.106 317.694C101.538 318.591 101.181 319.605 101.06 320.66L99.4599 320.22C98.7068 319.999 97.9171 319.932 97.1374 320.021C96.3576 320.11 95.6037 320.355 94.9199 320.74C93.9001 321.324 93.0743 322.195 92.545 323.244C92.0157 324.293 91.8062 325.475 91.9425 326.642C92.0788 327.81 92.555 328.911 93.3118 329.81C94.0687 330.71 95.073 331.367 96.1999 331.7L108.94 335.3C108.987 335.315 109.037 335.32 109.086 335.315C109.136 335.31 109.184 335.295 109.227 335.271C109.27 335.246 109.308 335.213 109.337 335.173C109.367 335.134 109.389 335.088 109.4 335.04L113 322.32C113.308 321.186 113.275 319.986 112.907 318.869C112.539 317.753 111.85 316.77 110.928 316.041C110.006 315.312 108.889 314.871 107.718 314.771C106.547 314.671 105.372 314.918 104.34 315.48ZM93.2799 328.5C92.7763 327.597 92.5521 326.565 92.6358 325.535C92.7195 324.504 93.1072 323.522 93.7499 322.712C94.3926 321.902 95.2612 321.302 96.2458 320.986C97.2303 320.671 98.2863 320.655 99.2799 320.94L101.28 321.5C101.375 321.52 101.474 321.505 101.559 321.457C101.644 321.409 101.708 321.332 101.74 321.24L102.3 319.24C102.769 318.027 103.675 317.032 104.839 316.452C106.004 315.871 107.343 315.746 108.594 316.102C109.846 316.457 110.92 317.267 111.605 318.373C112.291 319.479 112.538 320.801 112.3 322.08L108.8 334.46L96.4399 330.96C95.7768 330.779 95.156 330.469 94.6136 330.046C94.0712 329.624 93.6179 329.099 93.2799 328.5Z" fill="white"/>
<path d="M352.92 124C352.299 123.196 351.454 122.594 350.491 122.27C349.528 121.946 348.491 121.914 347.51 122.18C346.53 122.445 345.649 122.995 344.981 123.76C344.313 124.525 343.886 125.47 343.755 126.478C343.624 127.485 343.794 128.509 344.244 129.42C344.694 130.33 345.404 131.087 346.285 131.594C347.165 132.102 348.175 132.337 349.189 132.27C350.203 132.204 351.174 131.838 351.98 131.22C353.059 130.385 353.764 129.157 353.941 127.804C354.117 126.451 353.75 125.083 352.92 124ZM351.52 130.62C350.831 131.152 349.999 131.469 349.13 131.528C348.262 131.588 347.395 131.388 346.639 130.955C345.884 130.521 345.274 129.873 344.887 129.093C344.5 128.313 344.354 127.436 344.466 126.572C344.578 125.708 344.944 124.897 345.517 124.242C346.091 123.586 346.846 123.116 347.687 122.889C348.528 122.663 349.417 122.692 350.242 122.971C351.067 123.251 351.79 123.769 352.32 124.46C353.016 125.381 353.323 126.539 353.173 127.684C353.023 128.829 352.43 129.869 351.52 130.58V130.62Z" fill="white"/>
<path d="M219.7 180C219.599 180 219.503 179.96 219.431 179.889C219.36 179.817 219.32 179.721 219.32 179.62C219.32 179.519 219.36 179.422 219.431 179.351C219.503 179.28 219.599 179.24 219.7 179.24C227.84 179.24 230.98 174.38 231.02 174.32C231.078 174.247 231.161 174.199 231.253 174.183C231.344 174.168 231.439 174.186 231.518 174.236C231.597 174.285 231.655 174.361 231.681 174.451C231.707 174.54 231.7 174.636 231.66 174.72C231.52 174.96 228.28 180 219.7 180Z" fill="white"/>
<path d="M109.18 94.7401L100.34 98.7401L96.3399 89.8801C96.2975 89.7873 96.2199 89.7151 96.1243 89.6795C96.0286 89.6439 95.9228 89.6477 95.8299 89.6901C95.7371 89.7325 95.6649 89.8101 95.6293 89.9058C95.5937 90.0014 95.5975 90.1073 95.6399 90.2001L99.6399 99.0601L90.7999 103.06C90.7475 103.076 90.6991 103.103 90.658 103.139C90.617 103.175 90.5841 103.219 90.5618 103.269C90.5395 103.319 90.5282 103.373 90.5288 103.428C90.5293 103.483 90.5416 103.537 90.5649 103.586C90.5882 103.635 90.6219 103.679 90.6637 103.715C90.7055 103.75 90.7544 103.776 90.8071 103.79C90.8598 103.805 90.915 103.808 90.969 103.799C91.023 103.791 91.0745 103.77 91.1199 103.74L99.9599 99.7401L103.96 108.58C103.971 108.636 103.995 108.688 104.03 108.733C104.064 108.778 104.108 108.815 104.158 108.841C104.209 108.867 104.264 108.881 104.321 108.883C104.377 108.884 104.434 108.873 104.485 108.85C104.537 108.828 104.583 108.793 104.62 108.75C104.657 108.707 104.684 108.657 104.699 108.602C104.714 108.547 104.716 108.49 104.706 108.434C104.696 108.379 104.673 108.326 104.64 108.28L100.64 99.4201L109.5 95.4201C109.576 95.3695 109.631 95.2935 109.655 95.2059C109.679 95.1182 109.671 95.0247 109.633 94.9424C109.594 94.8601 109.527 94.7944 109.444 94.7573C109.361 94.7201 109.267 94.7141 109.18 94.7401Z" fill="white"/>
<path d="M275.56 29.2001L260.58 23.4401C260.509 23.4123 260.431 23.4066 260.356 23.4238C260.282 23.4409 260.214 23.4802 260.163 23.5363C260.111 23.5925 260.077 23.6629 260.066 23.7385C260.055 23.8141 260.067 23.8913 260.1 23.9601L262.62 29.4801C257.18 32.8001 248.16 36.5601 245.74 30.6601C245.5 30.0801 244.8 30.3601 245.04 30.9401C247.44 36.9401 251.76 40.9401 258.4 40.9401C261.342 40.8775 264.238 40.1961 266.9 38.9401L269.6 44.9401C269.629 45.0089 269.678 45.0676 269.74 45.1088C269.802 45.1501 269.875 45.1721 269.95 45.1721C270.025 45.1721 270.098 45.1501 270.16 45.1088C270.222 45.0676 270.271 45.0089 270.3 44.9401L275.78 29.8401C275.837 29.7936 275.879 29.7306 275.9 29.6596C275.92 29.5885 275.918 29.5129 275.894 29.443C275.87 29.3731 275.825 29.3123 275.765 29.2688C275.706 29.2253 275.634 29.2014 275.56 29.2001ZM270 43.6601L267.54 38.2401C267.478 38.1428 267.381 38.0737 267.269 38.0475C267.156 38.0214 267.038 38.0402 266.94 38.1001C266.16 38.4801 259.7 41.5001 253.8 39.3001C251.022 38.2099 248.71 36.1877 247.26 33.5801C251.44 36.2401 259.26 32.5801 263.4 29.9401C263.56 29.8401 263.62 29.6601 263.4 29.3601L261.16 24.4801L274.94 29.7801L270 43.6601Z" fill="white"/>
<path d="M260.36 62.72C253.908 62.696 247.654 60.4832 242.623 56.4434C237.591 52.4037 234.08 46.7761 232.662 40.4813C231.245 34.1864 232.005 27.5969 234.819 21.7904C237.634 15.9839 242.335 11.3043 248.154 8.51681C253.973 5.72935 260.566 4.99911 266.855 6.44553C273.143 7.89194 278.754 11.4294 282.771 16.4793C286.788 21.5292 288.972 27.7926 288.966 34.2451C288.96 40.6976 286.765 46.9572 282.74 52C280.061 55.3607 276.656 58.0711 272.78 59.9277C268.904 61.7843 264.658 62.739 260.36 62.72ZM260.36 6.50005C253.809 6.49455 247.468 8.80937 242.461 13.034C237.454 17.2586 234.105 23.1199 233.008 29.5784C231.911 36.037 233.137 42.6753 236.468 48.3161C239.8 53.9569 245.021 58.2355 251.207 60.3933C257.392 62.551 264.142 62.4483 270.259 60.1034C276.376 57.7586 281.465 53.3231 284.623 47.5836C287.781 41.8441 288.804 35.1715 287.512 28.7493C286.219 22.3272 282.693 16.5704 277.56 12.5C272.682 8.63224 266.645 6.51877 260.42 6.50005H260.36Z" fill="white"/>
<path d="M334.98 325.86C334.964 324.911 334.572 324.006 333.889 323.346C333.206 322.686 332.289 322.324 331.34 322.34C330.39 322.356 329.486 322.748 328.826 323.431C328.166 324.114 327.804 325.031 327.82 325.98L318.26 324.78C318.163 323.863 317.717 323.019 317.016 322.421C316.315 321.823 315.41 321.516 314.49 321.565C313.569 321.614 312.702 322.014 312.068 322.683C311.434 323.351 311.08 324.238 311.08 325.16C311.08 326.082 311.434 326.969 312.068 327.637C312.702 328.306 313.569 328.706 314.49 328.755C315.41 328.804 316.315 328.497 317.016 327.899C317.717 327.301 318.163 326.457 318.26 325.54L327.82 326.74C327.951 327.568 328.378 328.321 329.02 328.86L324.68 336.34C323.806 336.049 322.853 336.104 322.018 336.494C321.184 336.884 320.53 337.579 320.192 338.436C319.855 339.293 319.859 340.248 320.203 341.102C320.548 341.957 321.207 342.646 322.045 343.03C322.883 343.413 323.836 343.46 324.708 343.161C325.58 342.863 326.304 342.242 326.731 341.425C327.159 340.609 327.257 339.66 327.005 338.773C326.754 337.887 326.172 337.131 325.38 336.66L329.64 329.3C330.21 329.618 330.855 329.774 331.507 329.753C332.159 329.732 332.793 329.535 333.342 329.182C333.89 328.828 334.332 328.333 334.621 327.748C334.909 327.163 335.033 326.51 334.98 325.86ZM326.44 339.54C326.488 340.157 326.334 340.773 326 341.294C325.666 341.815 325.171 342.213 324.59 342.427C324.009 342.641 323.374 342.659 322.782 342.479C322.19 342.299 321.673 341.93 321.309 341.429C320.946 340.928 320.756 340.322 320.769 339.703C320.782 339.084 320.997 338.486 321.381 338.001C321.765 337.515 322.297 337.168 322.896 337.013C323.495 336.858 324.129 336.902 324.7 337.14C325.183 337.341 325.601 337.672 325.908 338.095C326.215 338.519 326.399 339.019 326.44 339.54ZM316.88 327.2C316.579 327.558 316.194 327.836 315.759 328.009C315.325 328.182 314.854 328.245 314.39 328.193C313.925 328.141 313.48 327.975 313.095 327.709C312.71 327.444 312.397 327.087 312.183 326.671C311.968 326.255 311.86 325.793 311.868 325.326C311.875 324.858 311.998 324.399 312.225 323.991C312.453 323.582 312.777 323.236 313.171 322.983C313.564 322.73 314.014 322.578 314.48 322.54C315.039 322.495 315.598 322.617 316.088 322.889C316.577 323.161 316.976 323.572 317.232 324.071C317.489 324.569 317.592 325.132 317.53 325.689C317.467 326.245 317.241 326.771 316.88 327.2ZM331.64 328.98C331.08 329.026 330.519 328.904 330.028 328.631C329.537 328.358 329.139 327.945 328.882 327.446C328.626 326.946 328.524 326.381 328.588 325.823C328.653 325.265 328.881 324.739 329.245 324.311C329.609 323.882 330.091 323.572 330.632 323.418C331.172 323.264 331.746 323.274 332.28 323.446C332.815 323.619 333.287 323.946 333.635 324.386C333.984 324.826 334.195 325.36 334.24 325.92C334.273 326.292 334.231 326.667 334.118 327.023C334.005 327.379 333.822 327.709 333.58 327.994C333.338 328.278 333.042 328.512 332.709 328.682C332.376 328.851 332.013 328.952 331.64 328.98Z" fill="white"/>
<path d="M323.06 353.3C318.676 353.3 314.391 352 310.746 349.564C307.102 347.128 304.262 343.666 302.585 339.616C300.908 335.565 300.471 331.109 301.327 326.809C302.184 322.51 304.296 318.562 307.398 315.463C310.499 312.365 314.449 310.256 318.749 309.403C323.049 308.551 327.505 308.992 331.554 310.673C335.603 312.353 339.062 315.196 341.495 318.843C343.928 322.49 345.224 326.776 345.22 331.16C345.215 337.034 342.878 342.665 338.722 346.817C334.567 350.968 328.934 353.3 323.06 353.3ZM323.06 309.76C318.827 309.76 314.69 311.015 311.171 313.367C307.652 315.718 304.909 319.06 303.289 322.971C301.669 326.881 301.245 331.184 302.071 335.335C302.897 339.486 304.935 343.299 307.928 346.292C310.921 349.285 314.734 351.323 318.885 352.149C323.036 352.975 327.339 352.551 331.249 350.931C335.16 349.311 338.502 346.568 340.853 343.049C343.205 339.53 344.46 335.393 344.46 331.16C344.455 325.486 342.198 320.046 338.186 316.034C334.174 312.022 328.734 309.765 323.06 309.76Z" fill="white"/>
<path d="M292.88 104.96C291.18 99.2001 284.74 94.9601 279.76 94.2401C267.32 92.5801 252.84 90.8401 250.64 90.5801C250.22 90.4699 249.78 90.4699 249.36 90.5801C249.68 86.8601 250.38 83.4201 249.94 81.8001C249.72 81.0001 249.04 80.8201 248.36 81.6001C246.86 83.3001 246.36 86.4001 247.66 80.7601C248.06 78.8801 248.86 74.4801 247.34 74.0401C246.52 73.8201 245.68 74.8801 244.94 76.3601C245.14 72.3601 244.52 71.6201 243.92 71.5001C242.7 71.2801 241.44 74.4201 241 75.6001C241 73.9601 241 72.4201 240.36 72.2601C239.72 72.1001 239.36 72.2601 238.04 76.2601C236.72 80.4873 235.868 84.8468 235.5 89.2601C235.093 88.2975 234.525 87.4114 233.82 86.6401C233.38 86.1401 233 86.2401 232.8 86.3401C231.04 87.3201 232.1 98.8601 233.7 104.76C234.46 107.56 237.44 109.82 241.7 111.18C239.16 111.7 236.52 112.18 233.84 112.6C229.28 113.32 226.86 107.96 226.32 106.6C227.236 106.369 228.093 105.948 228.837 105.366C229.581 104.784 230.195 104.053 230.64 103.22C232.1 100 230.14 95.2201 224.82 89.2201C224.94 84.175 223.346 79.2383 220.297 75.2167C217.249 71.1951 212.926 68.3265 208.036 67.0796C203.146 65.8327 197.978 66.2813 193.376 68.3521C188.774 70.4229 185.01 73.9934 182.7 78.4801C181.173 77.0816 179.283 76.1408 177.247 75.7652C175.21 75.3897 173.109 75.5944 171.184 76.356C169.258 77.1177 167.585 78.4055 166.357 80.0725C165.128 81.7395 164.393 83.7184 164.236 85.7832C164.079 87.848 164.505 89.9154 165.467 91.7493C166.429 93.5832 167.887 95.1096 169.675 96.1543C171.463 97.199 173.508 97.7197 175.578 97.6571C177.648 97.5944 179.658 96.9509 181.38 95.8001C182.52 99.1458 184.439 102.173 186.978 104.632C189.517 107.092 192.603 108.913 195.984 109.946C199.364 110.979 202.941 111.194 206.421 110.574C209.901 109.954 213.184 108.517 216 106.38C219.26 112.64 218.24 116.12 210.94 119.16C187.38 128.96 166.82 133.86 129.76 141.16C128.16 141.48 127.56 142.92 127.24 144.64L126.52 144.88C125.421 145.301 124.221 145.38 123.076 145.109C121.931 144.838 120.894 144.229 120.1 143.36C112.6 135.22 111.04 136.32 110.52 136.68C107.74 138.68 114.34 145.76 114.3 149.06C114.3 149.68 111.7 150.32 109.68 150.36L98.38 150.58C96.38 150.58 92.9 150.82 92.82 152.26C92.74 153.7 95.58 154.44 98.26 154.78L105.84 155.74L95.12 157.74C93.12 158.08 89.74 158.84 89.88 160.28C90.02 161.72 92.44 161.92 94.92 161.92C96.04 161.92 97.52 161.8 106.56 161.62C104.38 162.28 101.52 163.04 98.2 163.78C94.88 164.52 93 165.5 93.14 166.52C93.36 168.06 97.48 167.98 99.02 167.9C100.56 167.82 104.9 167.5 107.94 167.14C106.56 167.66 105.04 168.2 103.42 168.64C99.96 169.6 98.32 170.64 98.5 171.6C98.92 173.78 107.14 172.36 109.32 171.98C120.12 170.1 123.52 169.98 132.66 167.52C133.4 168.42 134.48 169.36 135.62 169.14C166.94 162.72 192.14 156.3 212 147.58C216 153.58 223.8 160.64 224.78 167.84C211.713 180.759 202.354 196.949 197.68 214.72C197.651 214.803 197.654 214.893 197.687 214.974C197.72 215.055 197.782 215.121 197.86 215.16L200.82 216.76C200.66 217.82 199.98 221.98 199.42 226.76C195.56 226 167.74 220 156 217.16C149.145 215.702 142.684 212.782 137.06 208.6C136.957 208.562 136.843 208.562 136.74 208.6C118.665 211.583 101.439 218.403 86.22 228.6C86.158 228.639 86.1095 228.697 86.0811 228.764C86.0526 228.832 86.0455 228.907 86.0608 228.979C86.076 229.05 86.1128 229.116 86.1663 229.166C86.2198 229.217 86.2873 229.249 86.36 229.26C118.36 237.14 127.5 228.06 142.48 234.6C143.16 234.9 137.5 232.18 196.62 260.6C200.91 262.667 205.844 262.951 210.343 261.387C214.841 259.824 218.536 256.542 220.62 252.26L232.26 228.26L234.88 228.82C234.927 228.835 234.977 228.84 235.027 228.833C235.076 228.827 235.123 228.81 235.165 228.783C235.207 228.756 235.243 228.721 235.27 228.679C235.296 228.637 235.314 228.589 235.32 228.54L236.46 225.6C237.38 225.68 238.3 225.74 239.22 225.78L244.76 253.66C243.8 257.48 233.54 295.44 231.92 301.06C229.58 309.06 224.2 318.38 223.44 320.14C223.36 320.287 223.318 320.452 223.32 320.62C226.614 338.383 233.019 355.425 242.24 370.96C242.271 371.023 242.32 371.076 242.38 371.114C242.44 371.151 242.509 371.17 242.58 371.17C242.651 371.17 242.72 371.151 242.78 371.114C242.84 371.076 242.888 371.023 242.92 370.96C252.3 343.86 243.62 330.96 248.12 317.36C248.34 316.88 269.66 269 272.94 255.22C273.788 243.749 273.116 232.215 270.94 220.92C272.3 220.44 273.64 219.92 274.94 219.38C275.028 219.34 275.098 219.269 275.135 219.18C275.172 219.09 275.174 218.99 275.14 218.9C265.38 191.78 255.86 167.3 255.14 165.58C258.06 146.22 257.14 137.02 254.82 131.34C263.137 130.119 271.254 127.799 278.96 124.44C287.06 121.06 295.34 113.36 292.88 104.96ZM244.46 79.5001C245.92 75.5001 246.98 74.7401 247.12 74.7801C247.26 74.8201 247.84 76.3801 246.92 80.6201C246.08 84.4001 245.26 87.7801 244.78 90.6201C243.994 89.8286 243.098 89.1549 242.12 88.6201C242.84 85.1201 244 80.5601 244.46 79.5001ZM243.36 72.5801C243.76 72.1201 243.88 72.2001 244.02 72.7001C244.322 74.6081 244.322 76.552 244.02 78.4601C242.958 81.6529 242.083 84.9051 241.4 88.2001C240.682 87.853 239.932 87.5783 239.16 87.3801C239.64 83.8801 241.12 75.3201 243.36 72.5801ZM234.42 104.58C232.58 97.7201 232.22 87.6601 233.12 87.0401C234.226 88.1898 234.995 89.6222 235.34 91.1801C235.187 92.7497 235.187 94.3304 235.34 95.9001C235.343 95.9542 235.357 96.0071 235.382 96.0552C235.407 96.1033 235.442 96.1455 235.485 96.179C235.527 96.2125 235.577 96.2365 235.629 96.2493C235.682 96.2622 235.737 96.2636 235.79 96.2535C235.843 96.2435 235.894 96.2221 235.938 96.1909C235.982 96.1597 236.02 96.1194 236.047 96.0726C236.075 96.0259 236.092 95.9738 236.097 95.9199C236.103 95.866 236.097 95.8115 236.08 95.7601C235.849 89.2442 236.735 82.7369 238.7 76.5201C239.027 75.3722 239.497 74.2702 240.1 73.2401C240.276 75.3974 240.175 77.5683 239.8 79.7001C239.16 82.4401 238.7 84.9401 238.38 87.3201L237.72 87.2001C237.622 87.1944 237.526 87.2266 237.452 87.2899C237.377 87.3532 237.33 87.4428 237.32 87.5401C237.311 87.5889 237.313 87.639 237.325 87.6871C237.337 87.7353 237.358 87.7805 237.388 87.8199C237.418 87.8593 237.456 87.8921 237.499 87.9163C237.543 87.9404 237.591 87.9553 237.64 87.9601C239.231 88.1757 240.756 88.7345 242.11 89.5978C243.464 90.4612 244.613 91.6084 245.48 92.9601C245.72 93.3801 246.4 92.9601 246.14 92.6001C245.906 92.1728 245.639 91.7649 245.34 91.3801C245.52 90.2801 245.8 88.9601 246.1 87.6001C246.829 85.8024 247.657 84.0464 248.58 82.3401C249.02 81.6801 249.24 81.8801 249.32 82.6201C249.327 84.1284 249.2 85.6343 248.94 87.1201C248.362 92.0461 248.054 97.0003 248.02 101.96C248.02 102.061 248.06 102.157 248.131 102.229C248.203 102.3 248.299 102.34 248.4 102.34C248.501 102.34 248.597 102.3 248.669 102.229C248.74 102.157 248.78 102.061 248.78 101.96C248.78 100.72 248.78 97.7401 249.04 94.5001C250.343 95.0965 251.748 95.4361 253.18 95.5001C254.305 100.941 253.882 106.588 251.96 111.8C243.04 112 235.62 108.88 234.42 104.48V104.58ZM218.22 109.9C217.532 107.458 216.407 105.161 214.9 103.12C214.61 102.828 214.229 102.645 213.82 102.6C207.16 101.88 207.44 96.0801 211.14 97.3001C212.44 97.7401 213.14 97.7601 213.62 97.3001C213.777 97.1105 213.878 96.8815 213.914 96.6381C213.949 96.3947 213.916 96.1463 213.82 95.9201C211.82 90.9801 213.52 79.5201 222.14 87.4801C225.5 90.6001 231.98 98.3601 229.96 102.84C228.3 106.48 221.96 106.52 221.84 106.52C221.72 106.52 221.16 106.94 221.62 107.2L227.8 110.58C228.485 111.555 229.428 112.322 230.522 112.795C231.616 113.268 232.82 113.429 234 113.26L236.76 112.8C240.3 118.54 243.92 127.66 237.66 130.06C231.06 132.56 216.34 120.98 213.66 118.76C217.48 116.66 219.34 114 218.22 109.8V109.9ZM212.84 119.24C214.64 120.74 227.6 131.24 235.5 131.24C236.798 131.314 238.086 130.963 239.168 130.242C240.25 129.521 241.069 128.467 241.5 127.24C243.12 122.32 238.8 114.72 237.6 112.72C239.1 112.46 240.6 112.18 242.04 111.88C243.18 113.88 243 115.88 244.66 117.72C247.12 124.8 247.48 132.78 240.38 135.14C232.96 137.6 222 132.96 207.82 121.34C209.64 120.54 211.66 119.72 212.84 119.14V119.24ZM95.64 161C91.92 161.14 90.68 160.36 90.64 160.08C90.6 159.8 91.34 158.98 95.26 158.34L109.84 155.76C110.219 157.221 110.742 158.642 111.4 160C111 160.14 110.2 160.42 109.18 160.74C108.46 160.7 101.42 160.82 95.64 161ZM99 167C95.22 167.22 93.94 166.54 93.9 166.28C93.86 166.02 94.56 165.24 98.4 164.28C102.916 163.287 107.37 162.032 111.74 160.52C112.39 161.788 113.146 162.999 114 164.14C113.44 164.46 112.18 165.14 110.42 165.94C109.02 166.2 104.28 166.72 99 167ZM120.5 169.28C111.9 170.52 109.44 171.28 104.62 171.74C100.62 172.2 99.32 171.6 99.26 171.32C99.2 171.04 99.88 170.28 103.64 169.32C107.429 168.246 111.08 166.736 114.52 164.82C115.531 166.061 116.606 167.249 117.74 168.38C117.809 168.449 117.902 168.488 118 168.488C118.097 168.488 118.191 168.449 118.26 168.38C118.329 168.311 118.368 168.218 118.368 168.12C118.368 168.023 118.329 167.929 118.26 167.86C114 163.32 111.14 159.48 110 153.06C109.977 152.963 109.919 152.878 109.839 152.819C109.758 152.761 109.659 152.733 109.56 152.74C109.462 152.759 109.376 152.816 109.32 152.899C109.264 152.981 109.242 153.082 109.26 153.18C109.26 153.82 109.5 154.44 109.64 155.04L108.34 155.26L98.34 154C94.64 153.52 93.54 152.56 93.56 152.28C93.58 152 94.42 151.32 98.36 151.3L109.68 151.08C109.68 151.08 115.04 150.88 115.04 149.08C115.04 145.82 109.04 138.66 111.04 137.32C111.76 136.8 114.42 138.26 119.62 143.9C120.517 144.877 121.686 145.563 122.976 145.87C124.267 146.176 125.619 146.089 126.86 145.62L132.18 143.74C135.62 148.32 138.18 159.36 137.2 165.3C131.742 167.047 126.159 168.377 120.5 169.28ZM220 252C219.019 254.037 217.646 255.859 215.959 257.364C214.272 258.869 212.305 260.026 210.17 260.77C208.036 261.513 205.775 261.827 203.518 261.695C201.262 261.563 199.054 260.987 197.02 260C138.14 231.6 143.66 234.26 143.02 234C129.86 228.24 121.28 234 99.74 231.1C112.797 223.127 126.816 216.849 141.46 212.42C146.002 214.907 150.86 216.771 155.9 217.96C167.74 220.86 195.9 226.84 199.42 227.6C198.975 231.197 198.721 234.816 198.66 238.44C198.66 238.541 198.7 238.637 198.771 238.709C198.843 238.78 198.939 238.82 199.04 238.82C199.141 238.82 199.237 238.78 199.309 238.709C199.38 238.637 199.42 238.541 199.42 238.44C199.692 231.32 200.427 224.225 201.62 217.2C211.112 222.151 221.192 225.88 231.62 228.3L220 252ZM272.24 255.2C269.02 268.86 247.72 316.68 247.48 317.2C243.48 329.2 249.28 339.68 245.48 359.2C244.08 356.4 239.48 347.2 227.14 314.96C229.4 310.65 231.268 306.145 232.72 301.5C234.16 296.52 245.56 254.16 245.6 253.94C245.64 253.72 245.6 253.94 240.08 225.94C250.33 226.266 260.551 224.679 270.22 221.26C272.373 232.43 273.032 243.836 272.18 255.18L272.24 255.2ZM274.36 218.92C262.477 223.814 249.616 225.868 236.8 224.92L249.24 192.46C249.269 192.412 249.287 192.359 249.293 192.303C249.298 192.247 249.292 192.191 249.273 192.138C249.255 192.086 249.225 192.038 249.186 191.998C249.147 191.958 249.099 191.927 249.047 191.908C248.994 191.888 248.938 191.88 248.883 191.885C248.827 191.89 248.773 191.907 248.725 191.935C248.676 191.963 248.635 192.001 248.603 192.047C248.571 192.093 248.549 192.145 248.54 192.2L234.78 228.08C222.075 225.447 209.847 220.887 198.52 214.56C203.187 197.029 212.445 181.061 225.34 168.3C233.9 170.3 247.34 170.78 254.66 166.3C256 169.7 265 193.06 274.3 218.9L274.36 218.92ZM278.78 123.84C271.065 127.188 262.941 129.501 254.62 130.72C253.45 128.275 251.971 125.99 250.22 123.92C250.155 123.852 250.068 123.81 249.974 123.802C249.88 123.794 249.787 123.822 249.712 123.879C249.638 123.936 249.587 124.019 249.57 124.112C249.553 124.204 249.571 124.3 249.62 124.38L250.06 124.96C254.4 130.56 258.88 136.36 254.5 165.5C247.72 169.92 234.82 169.72 225.54 167.66C224.82 162.54 220.88 157.54 217.24 153.06L219.74 144C219.74 143.78 219.74 143.14 219.24 143.44C198.66 153.56 171.74 161.62 136.98 168C140.24 163 136.02 144.84 131.12 141.64C165.24 134.96 185.3 130.2 206.94 121.64C219.06 131.64 228.64 136.54 236.02 136.54C244.52 136.54 249.46 130.54 245.66 118.54C246.44 118.9 244.58 118.78 272.18 118.78C272.281 118.78 272.377 118.74 272.449 118.669C272.52 118.597 272.56 118.501 272.56 118.4C272.56 118.299 272.52 118.203 272.449 118.131C272.377 118.06 272.281 118.02 272.18 118.02H248.9C251.34 116.22 253.5 111.44 254.32 105.5C254.588 103.579 254.682 101.638 254.6 99.7001C254.48 97.2401 253.94 93.4201 252.2 91.5601C256.82 92.1201 268.98 93.5601 279.66 95.0401C284.4 95.6601 290.54 99.7401 292.16 105.22C294.5 113.16 286.32 120.56 278.72 123.82L278.78 123.84Z" fill="white"/>
</svg>
