<svg width="400" height="401" viewBox="0 0 400 401" fill="none" xmlns="http://www.w3.org/2000/svg">
<path d="M381.318 307.234L347.8 335.482C338.528 332.58 330.352 323.998 329.348 313.786L359.498 287.75L344.836 272.26C342.49 278.412 339.666 287.388 340.078 293.378L340.202 294.484C328.562 297.552 316.322 297.517 304.7 294.384C299.982 284.719 297.639 274.068 297.866 263.316C285.012 260.155 272.783 254.847 261.696 247.616C256.978 244.614 253.501 240.011 251.903 234.652C250.306 229.292 250.695 223.537 253 218.442L271.458 177.806C276.093 177.688 280.696 178.601 284.936 180.478C289.175 182.355 292.945 185.149 295.974 188.66L280.212 225.65C289.198 230.906 304.66 238.45 314.736 235.892L311.306 245.208C311.096 245.76 311.013 246.353 311.064 246.942C311.114 247.531 311.297 248.101 311.597 248.609C311.898 249.118 312.31 249.553 312.802 249.881C313.293 250.209 313.853 250.422 314.438 250.504L328.956 252.536C329.805 252.654 330.67 252.491 331.419 252.072C332.167 251.653 332.758 251.001 333.102 250.216L338.422 237.562C350.344 240.796 362.822 251.742 370.874 261.114C376.415 267.538 381.36 274.452 385.648 281.772C388.052 285.843 388.937 290.634 388.144 295.295C387.351 299.957 384.933 304.186 381.318 307.234Z" fill="#FFE7EA"/>
<path d="M317.714 207.778H288C287.9 207.778 287.805 207.738 287.734 207.668C287.664 207.597 287.624 207.501 287.624 207.402C287.624 207.302 287.664 207.206 287.734 207.136C287.805 207.065 287.9 207.026 288 207.026H317.722C317.822 207.027 317.917 207.067 317.987 207.139C318.056 207.21 318.095 207.306 318.094 207.406C318.093 207.505 318.052 207.601 317.981 207.67C317.91 207.74 317.814 207.779 317.714 207.778Z" fill="#1890ff"/>
<path d="M366.724 207.026H347.632C347.532 207.026 347.437 207.065 347.366 207.136C347.296 207.206 347.256 207.302 347.256 207.402C347.256 207.501 347.296 207.597 347.366 207.668C347.437 207.738 347.532 207.778 347.632 207.778H366.724C368.945 207.78 371.075 208.664 372.645 210.234C374.216 211.805 375.099 213.934 375.102 216.156V266.72C375.102 266.819 375.142 266.915 375.212 266.986C375.283 267.056 375.378 267.096 375.478 267.096C375.578 267.096 375.673 267.056 375.744 266.986C375.814 266.915 375.854 266.819 375.854 266.72V216.156C375.851 213.735 374.889 211.414 373.177 209.703C371.465 207.991 369.145 207.028 366.724 207.026Z" fill="#1890ff"/>
<path d="M213.12 149.87C209.762 150.382 205.78 150.52 201.69 150.714C217.828 156.914 209.724 155.704 199.42 154.514C214.22 163.83 187.42 153.114 183.22 154.012C181.72 154.797 180.291 155.712 178.95 156.746C178.58 154.025 177.632 151.416 176.168 149.093C174.704 146.77 172.759 144.789 170.464 143.282C185.248 140.468 201.754 120.774 188.264 139.942C187.076 141.888 186.758 143.162 188.196 143.65C200.502 144.962 214.12 147.656 213.12 149.87Z" fill="#FFE7EA"/>
<path d="M100.092 219.192C103.612 222.356 104.62 226.314 103.026 227.57C102.559 227.88 102.033 228.091 101.48 228.188C102.04 231.12 100.08 231.706 97.56 231.44C97.5694 231.782 97.5082 232.122 97.3802 232.439C97.2522 232.756 97.0601 233.044 96.816 233.284C94.66 235.254 87.376 234.222 85.324 229.026C81.0139 228.14 76.5746 228.085 72.244 228.864C75.7532 222.281 76.8478 214.679 75.338 207.374C75.274 207.002 99.29 207.886 99.368 209.488C99.446 211.09 95.296 212.014 94.968 212.088C101.893 214.786 108.958 217.112 116.132 219.054C118.494 219.56 111.722 222.362 100.092 219.192Z" fill="#FFE7EA"/>
<path d="M245.132 79.0536H147.732C141.517 79.0615 135.558 81.5345 131.164 85.9299C126.77 90.3253 124.298 96.2843 124.292 102.5V117.794H87.212C87.1123 117.794 87.0166 117.833 86.9461 117.904C86.8756 117.974 86.836 118.07 86.836 118.17C86.836 118.269 86.8756 118.365 86.9461 118.435C87.0166 118.506 87.1123 118.546 87.212 118.546H150.108C152.329 118.548 154.458 119.432 156.029 121.002C157.599 122.573 158.482 124.703 158.484 126.924V145.974C158.484 146.073 158.524 146.169 158.594 146.239C158.665 146.31 158.76 146.35 158.86 146.35C158.96 146.35 159.055 146.31 159.126 146.239C159.196 146.169 159.236 146.073 159.236 145.974V126.924C159.233 124.503 158.271 122.183 156.56 120.471C154.848 118.76 152.528 117.797 150.108 117.794H135.294V104.726C135.314 102.656 135.746 100.61 136.566 98.7099C137.386 96.8093 138.578 95.0915 140.07 93.6572C141.563 92.2229 143.327 91.101 145.258 90.3572C147.19 89.6134 149.251 89.2627 151.32 89.3256H242.266C244.334 89.2635 246.394 89.6148 248.325 90.3591C250.256 91.1033 252.018 92.2255 253.51 93.6597C255.001 95.094 256.191 96.8116 257.011 98.7117C257.83 100.612 258.261 102.656 258.28 104.726C258.294 213.254 258.116 206.266 258.578 206.364C258.662 206.382 258.75 206.371 258.826 206.332C258.903 206.294 258.964 206.23 259 206.152C268.938 184.352 268.58 185.184 268.58 184.982V102.5C268.573 96.2833 266.1 90.3237 261.704 85.9282C257.308 81.5328 251.348 79.0605 245.132 79.0536Z" fill="#1890ff"/>
<path d="M65.01 117.792H27.05C24.6294 117.794 22.3087 118.757 20.597 120.469C18.8854 122.18 17.9226 124.501 17.92 126.922V179.428C17.92 179.527 17.9596 179.623 18.0301 179.693C18.1006 179.764 18.1963 179.804 18.296 179.804C18.3957 179.804 18.4913 179.764 18.5619 179.693C18.6324 179.623 18.672 179.527 18.672 179.428V126.922C18.6746 124.7 19.5582 122.571 21.1288 121C22.6994 119.43 24.8288 118.546 27.05 118.544H65.01C65.1097 118.544 65.2053 118.504 65.2759 118.433C65.3464 118.363 65.386 118.267 65.386 118.168C65.386 118.068 65.3464 117.972 65.2759 117.902C65.2053 117.831 65.1097 117.792 65.01 117.792Z" fill="#1890ff"/>
<path d="M334 309.32H243.67C241.449 309.317 239.32 308.434 237.749 306.864C236.178 305.294 235.295 303.165 235.292 300.944C235.292 224.052 235.342 224.366 235.274 224.166L227.474 200.194L252.028 207.758C252.228 207.824 253.11 207.776 258.018 207.776C258.113 207.769 258.202 207.726 258.267 207.656C258.332 207.586 258.368 207.494 258.368 207.399C258.368 207.303 258.332 207.211 258.267 207.141C258.202 207.071 258.113 207.029 258.018 207.022H252.2L227 199.262C226.934 199.241 226.864 199.239 226.797 199.255C226.729 199.272 226.668 199.307 226.62 199.356C226.571 199.405 226.537 199.467 226.521 199.534C226.505 199.602 226.508 199.672 226.53 199.738L234.53 224.338V300.938C234.533 303.358 235.495 305.678 237.206 307.389C238.918 309.1 241.238 310.063 243.658 310.066H258.27V322.65C258.264 326.895 256.575 330.965 253.572 333.967C250.57 336.969 246.5 338.658 242.254 338.664H151.32C147.072 338.659 142.999 336.969 139.995 333.966C136.99 330.962 135.3 326.89 135.294 322.642V220.842H141.6C166.51 228.5 166.672 228.596 166.872 228.596C166.931 228.595 166.99 228.581 167.043 228.554C167.096 228.527 167.141 228.488 167.176 228.439C167.211 228.391 167.234 228.336 167.244 228.277C167.253 228.218 167.248 228.158 167.23 228.102L159.23 203.516V175.45C159.23 175.35 159.19 175.254 159.12 175.184C159.049 175.113 158.954 175.074 158.854 175.074C158.754 175.074 158.659 175.113 158.588 175.184C158.518 175.254 158.478 175.35 158.478 175.45C158.478 205.218 158.39 203.738 158.578 203.94L166.282 227.642L141.716 220.092C141.516 220.048 140.388 220.092 113.756 220.092C113.661 220.099 113.572 220.141 113.507 220.211C113.442 220.281 113.405 220.373 113.405 220.469C113.405 220.564 113.442 220.656 113.507 220.726C113.572 220.796 113.661 220.839 113.756 220.846H124.29V325.512C124.297 331.726 126.769 337.684 131.163 342.079C135.557 346.473 141.515 348.945 147.73 348.952H245.13C251.344 348.945 257.302 346.475 261.698 342.082C266.093 337.689 268.566 331.732 268.576 325.518V310.082H334C334.101 310.082 334.198 310.041 334.269 309.97C334.341 309.899 334.381 309.802 334.381 309.701C334.381 309.6 334.341 309.503 334.269 309.431C334.198 309.36 334.101 309.32 334 309.32Z" fill="#1890ff"/>
<path d="M69.2 341.67C56.7973 324.654 51.1092 303.66 53.2253 282.711C55.3415 261.761 65.1131 242.329 80.668 228.138C80.7421 228.073 80.8385 228.041 80.9365 228.046C81.0345 228.052 81.1263 228.096 81.1923 228.169C81.2584 228.241 81.2934 228.337 81.29 228.435C81.2866 228.533 81.245 228.626 81.174 228.694C72.7057 236.432 65.8951 245.808 61.1543 256.255C56.4135 266.701 53.841 278 53.5923 289.469C53.3437 300.938 55.4241 312.338 59.7078 322.98C63.9914 333.622 70.3893 343.284 78.5143 351.383C86.6393 359.481 96.3226 365.847 106.979 370.096C117.634 374.344 129.041 376.387 140.51 376.101C151.978 375.815 163.268 373.205 173.699 368.43C184.13 363.655 193.483 356.813 201.194 348.32C201.261 348.246 201.355 348.201 201.455 348.196C201.554 348.192 201.652 348.227 201.726 348.294C201.8 348.361 201.844 348.454 201.849 348.554C201.854 348.654 201.819 348.752 201.752 348.826C193.208 358.239 182.673 365.63 170.915 370.462C159.156 375.294 146.469 377.445 133.775 376.76C121.081 376.074 108.699 372.57 97.5287 366.5C86.3587 360.43 76.6814 351.948 69.2 341.67Z" fill="#1890ff"/>
<path d="M175.072 365.868L139.872 364.966C139.506 364.931 139.136 364.983 138.795 365.12C138.453 365.257 138.149 365.473 137.908 365.751C137.666 366.028 137.495 366.36 137.408 366.717C137.32 367.075 137.32 367.448 137.406 367.806C139.49 376.406 138.886 373.944 139.03 374.366C139.053 374.422 139.089 374.473 139.136 374.512C139.182 374.552 139.238 374.579 139.298 374.592C139.698 374.646 142.554 374.684 143.454 374.684C147.564 374.684 152.268 374.446 158.43 373.932C152.609 376.24 146.566 377.944 140.396 379.018C140.032 379.284 140.018 378.818 143.484 388.924C143.573 389.276 143.743 389.602 143.982 389.876C144.22 390.15 144.52 390.364 144.857 390.501C145.193 390.637 145.558 390.692 145.92 390.661C146.281 390.63 146.631 390.515 146.94 390.324C157.59 385.047 167.409 378.237 176.082 370.11C176.483 369.85 176.793 369.472 176.971 369.028C177.149 368.585 177.185 368.097 177.074 367.632C176.963 367.167 176.711 366.748 176.353 366.432C175.994 366.116 175.547 365.919 175.072 365.868ZM175.632 369.526C166.984 377.628 157.195 384.418 146.578 389.682C146.367 389.816 146.127 389.899 145.878 389.922C145.629 389.944 145.378 389.907 145.146 389.812C144.914 389.718 144.709 389.569 144.547 389.379C144.384 389.188 144.27 388.961 144.214 388.718L141.098 379.636C147.985 378.345 154.721 376.35 161.2 373.682L161.246 373.658C161.318 373.614 161.374 373.546 161.403 373.467C161.433 373.388 161.434 373.301 161.408 373.22C161.382 373.14 161.33 373.07 161.259 373.023C161.189 372.976 161.104 372.955 161.02 372.962C153.934 373.724 146.805 374.027 139.68 373.868L138.142 367.64C138.084 367.397 138.085 367.144 138.145 366.902C138.205 366.659 138.322 366.435 138.487 366.248C138.651 366.06 138.858 365.914 139.091 365.823C139.323 365.732 139.574 365.698 139.822 365.724L175.01 366.626C175.335 366.663 175.64 366.802 175.882 367.022C176.124 367.242 176.292 367.533 176.36 367.853C176.429 368.173 176.396 368.506 176.265 368.806C176.134 369.106 175.913 369.358 175.632 369.526Z" fill="#1890ff"/>
<path d="M75.976 133.032C75.077 132.616 74.2117 132.131 73.388 131.582C73.3699 133.25 73.9943 134.861 75.132 136.082C75.5 138.482 78.532 138.588 80.41 138.882C75.876 145.566 67.436 145.99 56.368 142.208C59.8253 140.213 62.7845 137.459 65.022 134.154C68.806 128.646 69.742 123.112 69.13 122.506C63.308 116.736 68.448 111.358 71.144 115.506C72.432 117.484 73.206 117.464 73.626 116.33C75.388 110.396 83.698 102.206 86.612 114.698L87.276 118.698C89.3 137.034 80.528 135.15 75.976 133.032Z" fill="#FFE7EA"/>
<path d="M190.97 34.5237C190.452 34.5237 189.945 34.37 189.514 34.082C189.083 33.794 188.747 33.3847 188.549 32.9059C188.351 32.427 188.299 31.9001 188.4 31.3918C188.502 30.8835 188.751 30.4167 189.118 30.0504C189.485 29.684 189.952 29.4347 190.46 29.3338C190.968 29.2329 191.495 29.2851 191.974 29.4837C192.453 29.6823 192.862 30.0184 193.149 30.4496C193.437 30.8807 193.59 31.3874 193.59 31.9057C193.589 32.6002 193.313 33.2661 192.822 33.757C192.331 34.2479 191.665 34.5237 190.97 34.5237ZM190.97 30.0397C190.601 30.0401 190.24 30.1499 189.934 30.3551C189.627 30.5604 189.388 30.852 189.247 31.193C189.107 31.534 189.07 31.9091 189.142 32.271C189.214 32.6328 189.392 32.9651 189.653 33.2259C189.914 33.4866 190.247 33.6641 190.609 33.736C190.971 33.8078 191.346 33.7707 191.687 33.6295C192.027 33.4882 192.319 33.249 192.524 32.9422C192.729 32.6354 192.838 32.2747 192.838 31.9057C192.837 31.4106 192.64 30.936 192.29 30.5861C191.94 30.2362 191.465 30.0397 190.97 30.0397Z" fill="#1890ff"/>
<path d="M200.722 34.5237C200.204 34.5241 199.697 34.3707 199.266 34.083C198.834 33.7952 198.498 33.3861 198.3 32.9072C198.101 32.4284 198.049 31.9015 198.15 31.393C198.251 30.8846 198.501 30.4176 198.867 30.0511C199.234 29.6845 199.701 29.435 200.209 29.3339C200.718 29.2329 201.245 29.285 201.724 29.4835C202.202 29.6821 202.612 30.0182 202.899 30.4493C203.187 30.8805 203.34 31.3873 203.34 31.9057C203.339 32.5997 203.063 33.265 202.572 33.7557C202.081 34.2465 201.416 34.5226 200.722 34.5237ZM200.722 30.0397C200.353 30.0397 199.992 30.1491 199.685 30.3542C199.378 30.5592 199.139 30.8506 198.998 31.1916C198.857 31.5326 198.82 31.9078 198.892 32.2697C198.964 32.6317 199.142 32.9642 199.403 33.2252C199.664 33.4861 199.996 33.6638 200.358 33.7358C200.72 33.8078 201.095 33.7709 201.436 33.6297C201.777 33.4884 202.068 33.2492 202.274 32.9424C202.479 32.6355 202.588 32.2748 202.588 31.9057C202.587 31.411 202.391 30.9366 202.041 30.5868C201.691 30.237 201.217 30.0402 200.722 30.0397Z" fill="#1890ff"/>
<path d="M210.472 34.5237C209.954 34.5241 209.447 34.3707 209.016 34.083C208.584 33.7952 208.248 33.3861 208.05 32.9072C207.851 32.4284 207.799 31.9015 207.9 31.393C208.001 30.8846 208.251 30.4176 208.617 30.0511C208.984 29.6845 209.451 29.435 209.959 29.3339C210.468 29.2329 210.995 29.285 211.474 29.4835C211.952 29.6821 212.362 30.0182 212.649 30.4493C212.937 30.8805 213.09 31.3873 213.09 31.9057C213.089 32.5999 212.813 33.2655 212.323 33.7563C211.832 34.2472 211.166 34.5232 210.472 34.5237ZM210.472 30.0397C210.103 30.0397 209.742 30.1491 209.435 30.3542C209.128 30.5592 208.889 30.8506 208.748 31.1916C208.607 31.5326 208.57 31.9078 208.642 32.2697C208.714 32.6317 208.892 32.9642 209.153 33.2252C209.414 33.4861 209.746 33.6638 210.108 33.7358C210.47 33.8078 210.845 33.7709 211.186 33.6297C211.527 33.4884 211.818 33.2492 212.024 32.9424C212.229 32.6355 212.338 32.2748 212.338 31.9057C212.337 31.411 212.141 30.9366 211.791 30.5868C211.441 30.237 210.967 30.0402 210.472 30.0397Z" fill="#1890ff"/>
<path d="M335.15 134.786C335.15 133.619 334.686 132.5 333.861 131.674C333.036 130.849 331.917 130.386 330.75 130.386H315.91C314.743 130.386 313.624 130.849 312.799 131.674C311.974 132.5 311.51 133.619 311.51 134.786V149.628C311.51 150.795 311.974 151.914 312.799 152.739C313.624 153.564 314.743 154.028 315.91 154.028H330.756C331.923 154.028 333.042 153.564 333.867 152.739C334.692 151.914 335.156 150.795 335.156 149.628L335.15 134.786ZM330.75 153.27H315.904C314.938 153.269 314.013 152.885 313.33 152.202C312.647 151.519 312.263 150.593 312.262 149.628V134.782C312.263 133.816 312.647 132.889 313.33 132.206C314.014 131.523 314.94 131.139 315.906 131.138H330.75C331.715 131.139 332.641 131.522 333.324 132.205C334.007 132.887 334.392 133.812 334.394 134.778V149.628C334.393 150.593 334.009 151.518 333.327 152.201C332.644 152.884 331.719 153.268 330.754 153.27H330.75Z" fill="#1890ff"/>
<path d="M323.332 137.8C322.462 137.8 321.611 138.058 320.887 138.541C320.164 139.025 319.6 139.712 319.267 140.516C318.934 141.32 318.847 142.205 319.017 143.058C319.186 143.912 319.605 144.696 320.221 145.311C320.836 145.926 321.62 146.345 322.474 146.515C323.327 146.685 324.212 146.598 325.016 146.265C325.82 145.932 326.507 145.368 326.99 144.644C327.474 143.921 327.732 143.07 327.732 142.2C327.732 141.033 327.268 139.914 326.443 139.088C325.618 138.263 324.499 137.8 323.332 137.8ZM323.332 145.856C322.61 145.856 321.904 145.642 321.303 145.24C320.703 144.839 320.234 144.269 319.958 143.601C319.682 142.934 319.609 142.2 319.75 141.491C319.891 140.783 320.239 140.132 320.75 139.621C321.26 139.111 321.911 138.763 322.62 138.622C323.328 138.481 324.062 138.553 324.73 138.83C325.397 139.106 325.967 139.574 326.369 140.175C326.77 140.775 326.984 141.481 326.984 142.204C326.983 143.172 326.598 144.1 325.913 144.785C325.229 145.47 324.3 145.855 323.332 145.856Z" fill="#1890ff"/>
<path d="M328.88 135.404C328.894 135.761 329.045 136.1 329.303 136.348C329.561 136.596 329.905 136.735 330.263 136.735C330.621 136.735 330.965 136.596 331.223 136.348C331.481 136.1 331.632 135.761 331.646 135.404C331.632 135.046 331.481 134.707 331.223 134.459C330.965 134.211 330.621 134.072 330.263 134.072C329.905 134.072 329.561 134.211 329.303 134.459C329.045 134.707 328.894 135.046 328.88 135.404Z" fill="#1890ff"/>
<path d="M287.562 332.812C286.838 332.812 286.131 332.597 285.529 332.195C284.927 331.793 284.458 331.221 284.181 330.552C283.904 329.884 283.831 329.148 283.972 328.438C284.114 327.728 284.462 327.076 284.974 326.564C285.486 326.052 286.138 325.703 286.848 325.562C287.558 325.421 288.294 325.493 288.963 325.77C289.631 326.047 290.203 326.516 290.605 327.118C291.007 327.72 291.222 328.428 291.222 329.152C291.221 330.122 290.835 331.052 290.149 331.739C289.463 332.425 288.532 332.811 287.562 332.812ZM287.562 326.246C286.987 326.245 286.424 326.416 285.946 326.735C285.467 327.054 285.094 327.508 284.874 328.04C284.653 328.571 284.596 329.156 284.708 329.721C284.82 330.285 285.097 330.803 285.504 331.21C285.911 331.617 286.429 331.894 286.993 332.006C287.557 332.118 288.142 332.06 288.674 331.84C289.205 331.62 289.659 331.247 289.979 330.768C290.298 330.29 290.468 329.727 290.468 329.152C290.466 328.381 290.16 327.643 289.615 327.099C289.07 326.554 288.332 326.247 287.562 326.246Z" fill="#1890ff"/>
<path d="M111.334 88.9396H103.516V81.1176C103.52 81.0664 103.513 81.0149 103.496 80.9663C103.479 80.9178 103.452 80.8734 103.417 80.8357C103.382 80.798 103.34 80.768 103.292 80.7475C103.245 80.7269 103.194 80.7163 103.143 80.7163C103.092 80.7163 103.041 80.7269 102.994 80.7475C102.946 80.768 102.904 80.798 102.869 80.8357C102.834 80.8734 102.807 80.9178 102.79 80.9663C102.773 81.0149 102.766 81.0664 102.77 81.1176V88.9316H94.948C94.8488 88.9316 94.7537 88.971 94.6835 89.0412C94.6134 89.1113 94.574 89.2065 94.574 89.3056C94.574 89.4048 94.6134 89.5 94.6835 89.5701C94.7537 89.6402 94.8488 89.6796 94.948 89.6796H102.766V97.5016C102.773 97.5958 102.815 97.684 102.884 97.7483C102.954 97.8126 103.045 97.8483 103.139 97.8483C103.233 97.8483 103.324 97.8126 103.394 97.7483C103.463 97.684 103.505 97.5958 103.512 97.5016V89.6816H111.334C111.424 89.6701 111.507 89.6261 111.567 89.5578C111.628 89.4895 111.661 89.4016 111.661 89.3106C111.661 89.2196 111.628 89.1318 111.567 89.0635C111.507 88.9952 111.424 88.9511 111.334 88.9396Z" fill="#1890ff"/>
<path d="M200.722 10.6816C182.468 10.6816 171.368 29.1376 181.08 43.2056L177.52 52.6216C177.494 52.6901 177.489 52.7645 177.505 52.8358C177.521 52.9071 177.558 52.9722 177.61 53.0231C177.663 53.074 177.729 53.1086 177.8 53.1225C177.872 53.1365 177.946 53.1292 178.014 53.1016L187.4 49.2696C202.574 59.0156 223.944 49.2416 223.946 31.9056C223.948 20.2016 213.528 10.6816 200.722 10.6816ZM187.646 48.5336C187.609 48.5018 187.564 48.4811 187.516 48.474C187.468 48.4669 187.418 48.4737 187.374 48.4936C186.912 48.6096 185.326 49.3056 178.528 52.0796C181.072 45.3516 181.7 43.7716 181.84 43.3176C181.902 43.1176 181.944 43.1336 181.808 42.9336C172.282 29.4016 182.946 11.4316 200.722 11.4316C213.122 11.4316 223.194 20.6176 223.194 31.9056C223.2 48.6636 202.35 58.1496 187.646 48.5336Z" fill="#1890ff"/>
<path d="M385.976 281.582C379.84 271.021 372.275 261.358 363.494 252.868C368.86 242.246 369.772 233.34 366.202 226.39C361.312 216.868 349.364 214.114 346.968 213.65C350.88 199.838 343.138 192.896 334.136 193.85C328.336 194.45 322.348 198.114 318.37 205.35C314.57 212.27 313.57 217.316 315.43 220.35C316.314 221.479 317.474 222.361 318.798 222.913C320.122 223.465 321.566 223.667 322.99 223.5C322.79 234.362 314.832 237.48 304.26 235.392C295.925 233.376 287.968 230.035 280.692 225.498C294.04 194.176 296.07 189.53 296.322 188.746C296.38 188.568 296.346 188.59 296.322 188.546C295.93 188.041 295.509 187.56 295.06 187.106C296.922 183.192 305.956 166.746 305.396 165.116C304.78 163.368 298.932 168.382 297.516 169.61C299.826 159.588 298.916 150.476 297.794 148.198C297.394 147.378 296.852 147.558 296.658 148.124C295.612 151.178 294.338 158.49 293.458 163.064C292.834 159.522 290.08 156.714 287.59 158.604C287.31 158.302 286.958 158.076 286.567 157.946C286.176 157.817 285.759 157.788 285.354 157.864C284.913 157.984 284.503 158.197 284.15 158.488C283.797 158.778 283.509 159.14 283.306 159.55C282.84 159.313 282.306 159.25 281.798 159.37C279.176 160.038 278.456 163.464 277.798 166.296C276.932 170.275 275.407 174.081 273.286 177.558L271.462 177.44C271.37 177.44 271.316 177.346 271.106 177.714C270.438 178.894 267.664 185.256 252.656 218.296C250.343 223.477 249.963 229.315 251.584 234.753C253.206 240.19 256.721 244.867 261.494 247.936C272.465 255.246 284.658 260.529 297.494 263.536C297.062 271.772 298.716 281.988 304.282 294.392L298.06 309.562C298.041 309.607 298.032 309.656 298.032 309.706C298.032 309.755 298.042 309.804 298.061 309.85C298.08 309.895 298.108 309.937 298.143 309.971C298.178 310.006 298.219 310.034 298.265 310.053C298.311 310.071 298.36 310.081 298.409 310.081C298.458 310.081 298.507 310.071 298.553 310.052C298.599 310.033 298.64 310.005 298.675 309.97C298.71 309.935 298.737 309.893 298.756 309.848L304.916 294.83C316.463 297.873 328.599 297.893 340.156 294.888C342.274 295.933 344.188 297.348 345.808 299.068C332.808 310.288 329.848 312.794 329.17 313.448C328.924 313.684 328.97 313.678 328.97 313.756C329.194 316.082 329.776 318.359 330.696 320.508C327.557 323.567 323.946 326.1 320 328.01C315.334 330.296 314.97 331.326 315.174 331.968C315.662 333.496 319.932 332.538 321.348 332.25C323.808 331.752 327.926 330.92 328.62 331.806C328.758 331.984 328.73 332.282 328.54 332.694C325.068 337.322 326.246 336.694 321.108 341.646C319.976 342.734 316.708 345.992 313.274 348.956C311.06 350.872 310.182 352.18 310.588 352.956C310.716 353.15 310.905 353.295 311.125 353.367C311.346 353.44 311.584 353.436 311.802 353.356C314.265 352.512 316.609 351.357 318.778 349.918C318.134 351.628 316.276 356.692 317.748 357.43C319.148 358.118 321.802 354.23 322.682 352.914C332.79 337.914 337.598 336.196 341.358 332.914C343.349 334.17 345.498 335.156 347.748 335.848C348.04 335.874 346.986 336.648 381.562 307.52C385.255 304.423 387.727 300.113 388.536 295.362C389.344 290.61 388.437 285.726 385.976 281.582ZM323.342 227.13C325.342 224.794 326.274 223.73 326.684 223.222C327.212 222.55 326.934 222.31 326.268 222.422C316.11 224.222 311.5 219.388 319.028 205.696C320.369 203.05 322.239 200.707 324.52 198.812C329.366 195.738 332.378 203.354 331.844 208.51C331.808 208.773 331.845 209.041 331.951 209.285C332.057 209.529 332.227 209.74 332.444 209.894C332.988 210.164 333.784 209.894 335.032 209.046C338.692 206.548 340.814 212.788 333.852 215.646C332.082 216.37 330.672 223.968 332.424 232.582C333.164 236.206 334.932 236.848 338.116 237.852L332.754 250.068C332.44 250.775 331.905 251.362 331.229 251.739C330.553 252.116 329.773 252.264 329.006 252.16L314.49 250.13C313.961 250.055 313.455 249.863 313.011 249.567C312.566 249.27 312.194 248.878 311.922 248.418C311.65 247.958 311.485 247.443 311.44 246.911C311.394 246.379 311.468 245.843 311.658 245.344L315.172 236.098C317.263 235.568 319.152 234.436 320.605 232.842C322.058 231.247 323.009 229.261 323.342 227.13ZM288.87 158.794C290.514 158.36 293.444 161.054 292.772 166.408C292.598 167.784 292.126 168.448 291.738 168.498C291.35 168.548 290.666 168.006 289.99 166.348C290.284 163.797 289.614 161.229 288.112 159.148C288.342 158.986 288.599 158.867 288.87 158.794ZM285.55 158.582C287.286 158.12 289.582 161.982 289.248 166.212C289.215 166.286 289.207 166.369 289.226 166.448C289.198 166.72 289.162 166.996 289.116 167.276C288.86 168.802 288.204 169.656 287.716 169.676C287.274 169.686 286.638 169.042 286.134 167.17C286.333 165.879 286.239 164.56 285.858 163.311C285.477 162.062 284.819 160.915 283.934 159.956C284.088 159.623 284.312 159.328 284.591 159.091C284.87 158.854 285.197 158.68 285.55 158.582ZM278.538 166.456C279.092 164.056 279.796 160.656 281.986 160.09C283.476 159.708 284.734 161.876 285.152 163.542C285.464 164.788 285.824 168.754 284.536 168.742C284.333 168.712 284.139 168.64 283.966 168.529C283.794 168.419 283.647 168.272 283.536 168.1C282.754 166.881 282.307 165.478 282.242 164.032C282.229 163.935 282.179 163.848 282.103 163.787C282.027 163.727 281.93 163.698 281.833 163.708C281.737 163.717 281.647 163.763 281.584 163.837C281.521 163.911 281.488 164.007 281.494 164.104C281.551 164.728 281.651 165.347 281.794 165.958C281.177 165.86 280.546 165.887 279.94 166.038C279.849 166.068 279.773 166.131 279.728 166.215C279.682 166.299 279.67 166.397 279.695 166.49C279.719 166.582 279.777 166.662 279.858 166.713C279.939 166.764 280.036 166.782 280.13 166.764C280.76 166.59 281.428 166.611 282.046 166.824C283.128 169.978 285.18 170 285.846 168.624C287.068 171.512 289.178 170.698 289.81 167.69C291.18 170.126 293.116 169.672 293.522 166.512C294.5 162.208 296.004 152.752 297.274 148.712C298.776 155.85 298.545 163.244 296.598 170.274C295.066 170.544 288.664 171.964 289.152 176.812C289.165 176.909 289.214 176.997 289.291 177.058C289.367 177.118 289.465 177.147 289.562 177.137C289.659 177.128 289.749 177.081 289.812 177.006C289.875 176.931 289.907 176.835 289.9 176.738C289.432 172.07 296.94 170.978 297.016 170.968C297.09 170.958 297.16 170.926 297.216 170.876C299.406 168.685 301.934 166.862 304.704 165.476C304.522 167.616 296.202 183.076 294.522 186.522C289.076 181.109 281.803 177.927 274.132 177.602C276.201 174.153 277.69 170.387 278.538 166.456ZM340.554 294.228C339.722 288.268 342.416 279.428 344.938 272.84L358.96 287.716L346.394 298.568C344.725 296.78 342.747 295.31 340.554 294.228ZM311.612 352.628C311.132 352.756 311.186 352.476 311.43 352.042C312.07 351.084 312.86 350.236 313.77 349.53C317.426 346.376 323.318 340.556 323.852 340C322.152 342.814 320.616 345.724 319.252 348.716C316.884 350.341 314.316 351.655 311.612 352.624V352.628ZM322.058 352.492C319.446 356.374 318.258 356.832 318.086 356.754C317.574 356.382 318.312 353.002 319.886 349.154C320.68 347.214 321.627 345.342 322.72 343.554C325.225 338.546 328.313 333.852 331.92 329.57C331.983 329.492 332.012 329.393 332.001 329.293C331.99 329.194 331.941 329.103 331.863 329.041C331.785 328.978 331.686 328.949 331.587 328.96C331.487 328.97 331.397 329.02 331.334 329.098C330.6 330.01 329.946 330.84 329.358 331.602C328.506 329.578 322.408 331.372 319.076 331.914C317.118 332.232 315.958 331.968 315.876 331.736C315.876 331.736 315.686 330.95 320.316 328.682C324.246 326.77 327.855 324.258 331.012 321.236C333.146 325.799 336.492 329.69 340.684 332.484C337.022 335.624 332.108 337.572 322.058 352.482V352.492ZM381.078 306.95L347.722 335.058C343.043 333.584 338.875 330.82 335.696 327.085C332.517 323.349 330.456 318.792 329.75 313.938L359.75 288.032C359.788 287.999 359.82 287.958 359.842 287.912C359.864 287.867 359.877 287.817 359.879 287.766C359.882 287.716 359.874 287.665 359.856 287.617C359.838 287.57 359.811 287.526 359.776 287.49L342.014 268.644C341.946 268.571 341.851 268.528 341.751 268.525C341.652 268.522 341.555 268.559 341.482 268.628C341.409 268.696 341.367 268.791 341.364 268.89C341.361 268.99 341.398 269.087 341.466 269.16L344.364 272.236C341.794 278.9 338.98 287.986 339.79 294.206C328.365 297.14 316.378 297.09 304.978 294.062C294.202 270.062 298.252 254.392 303.554 245.476C303.601 245.39 303.612 245.29 303.587 245.196C303.561 245.102 303.5 245.022 303.416 244.972C303.332 244.922 303.233 244.907 303.138 244.929C303.043 244.952 302.961 245.01 302.908 245.092C299.752 250.479 297.918 256.538 297.556 262.772C284.845 259.777 272.772 254.536 261.904 247.296C257.284 244.325 253.881 239.798 252.311 234.535C250.742 229.271 251.109 223.62 253.346 218.604L271.696 178.204L275.35 178.442C283.171 179.089 290.423 182.786 295.54 188.736C283.518 216.946 280.522 223.648 279.954 225.322C279.734 225.974 279.9 225.892 280.02 225.976C289.21 231.352 303.878 238.608 314.288 236.328L310.96 245.082C310.73 245.687 310.639 246.336 310.694 246.981C310.75 247.626 310.95 248.251 311.279 248.808C311.609 249.365 312.06 249.841 312.599 250.2C313.138 250.559 313.751 250.792 314.392 250.882C330.222 253.096 329.072 252.954 329.498 252.954C330.335 252.952 331.153 252.708 331.854 252.251C332.555 251.794 333.108 251.144 333.448 250.38L338.848 238.088C358.048 244.174 375.048 264.566 385.332 281.972C387.7 285.963 388.572 290.665 387.793 295.24C387.014 299.815 384.634 303.964 381.078 306.946V306.95Z" fill="#1890ff"/>
<path d="M188.258 143.27C188.136 143.235 188.022 143.176 187.924 143.096C187.825 143.016 187.744 142.916 187.686 142.804C187.486 142.334 187.784 141.46 188.582 140.156C193.66 132.936 193.97 131.956 193.464 131.444C192.958 130.932 191.944 131.556 188.556 133.864C184.26 136.792 177.756 141.216 171.514 142.694C171.182 142.737 170.853 142.798 170.528 142.876C169.134 141.954 167.657 141.165 166.116 140.52C166.056 140.494 165.989 140.484 165.924 140.492C165.859 140.5 165.797 140.524 165.744 140.564C156.852 147.186 143.668 156.1 131.248 161.06C123.257 155.103 114.822 149.766 106.016 145.098C94.638 139.546 79.332 138.644 77.438 137.984C76.963 137.875 76.5288 137.633 76.1863 137.286C75.8438 136.939 75.6071 136.502 75.504 136.026C75.4468 135.144 75.6633 134.266 76.124 133.512C78.874 134.734 82.15 135.406 84.592 133.652C87.49 131.572 88.52 126.524 87.646 118.628C86.76 113.284 87.398 116.67 84.414 101.98C84.3359 101.296 84.0447 100.655 83.5815 100.146C83.1184 99.6371 82.5068 99.2871 81.8336 99.1455C81.1604 99.0039 80.4597 99.0778 79.8308 99.3567C79.2019 99.6357 78.6768 100.106 78.33 100.7C78.0611 100.144 77.6409 99.6749 77.1177 99.3468C76.5946 99.0187 75.9895 98.8447 75.372 98.8447C74.7545 98.8447 74.1494 99.0187 73.6263 99.3468C73.1031 99.6749 72.6829 100.144 72.414 100.7C72.0887 100.142 71.6059 99.6939 71.0262 99.4105C70.4466 99.1271 69.796 99.0215 69.1565 99.1071C68.517 99.1926 67.9171 99.4654 67.4323 99.8911C66.9475 100.317 66.5994 100.877 66.432 101.5C65.9318 100.95 65.26 100.586 64.5263 100.467C63.7925 100.348 63.0402 100.482 62.3921 100.846C61.744 101.21 61.2384 101.783 60.958 102.471C60.6775 103.159 60.6388 103.922 60.848 104.636C62.3453 109.109 63.6136 113.655 64.648 118.258C66.21 125.8 66.23 131.234 64.702 133.972C61.196 139.203 55.8679 142.941 49.756 144.458C28.968 149.682 17.71 175.958 11.926 197.082C10.5122 202.295 11.147 207.852 13.7 212.612C16.2531 217.372 20.5309 220.975 25.656 222.682C40.4333 227.64 55.8835 230.303 71.468 230.578C71.5334 230.578 71.5979 230.562 71.6553 230.53C71.7126 230.499 71.7611 230.453 71.796 230.398C72.032 230.016 72.26 229.628 72.478 229.238C76.6393 228.493 80.9031 228.532 85.05 229.354C87.606 235.354 97.342 236.268 97.912 231.852C100.628 231.998 102.246 231.172 101.912 228.484C102.396 228.366 102.854 228.158 103.262 227.872C103.605 227.558 103.864 227.163 104.014 226.723C104.164 226.283 104.201 225.812 104.122 225.354C103.794 223.293 102.824 221.387 101.35 219.91C104.275 220.64 107.277 221.024 110.292 221.054C112.525 221.27 114.773 220.844 116.772 219.826C117.136 219.452 117.07 218.878 116.212 218.688C109.44 216.871 102.771 214.692 96.234 212.158C97.7 211.726 99.816 210.856 99.748 209.474C99.722 208.92 98.28 208.474 96.108 208.138L94.748 198.282C96.8923 190.201 98.217 181.924 98.702 173.578C105.368 178.755 112.792 182.874 120.714 185.788C123.885 187.015 127.269 187.6 130.668 187.508C134.067 187.415 137.414 186.648 140.514 185.25C154.364 178.934 162.846 174.278 179.514 161.792C179.56 161.757 179.597 161.712 179.623 161.661C179.649 161.61 179.663 161.553 179.664 161.496C179.684 159.964 179.581 158.433 179.356 156.918C180.616 155.931 181.971 155.07 183.4 154.35C186.148 153.878 200.034 158.716 203.136 158.716C203.736 158.716 204.036 158.568 204.162 158.282C204.362 157.83 204.242 157.23 200.986 155.072C202.546 155.24 207.268 155.854 209.362 155.854C210.612 155.854 211.094 155.654 211.196 155.254C211.348 154.636 210.846 153.912 203.484 151.014C206.725 150.922 209.959 150.666 213.174 150.248C213.236 150.238 213.294 150.213 213.344 150.175C213.394 150.138 213.434 150.088 213.46 150.032C215.1 146.392 192.218 143.682 188.258 143.27ZM192.858 132.07C191.421 134.75 189.783 137.317 187.958 139.75C186.536 142.076 186.862 142.804 187.018 143.15C182.951 142.712 178.864 142.493 174.774 142.494C183.2 139.386 190.824 132.75 192.854 132.062L192.858 132.07ZM65.356 134.332C69.086 128.882 70.24 123.082 69.4 122.236C64.2 117.082 68.166 112.338 70.584 115.354C71.072 115.954 71.884 117.534 72.896 117.47C73.54 117.43 73.864 116.798 74.068 116.186C75.126 112.912 78.534 108.426 81.65 108.524C83.72 108.586 85.31 110.742 86.25 114.76L86.908 118.73C87.744 126.316 86.82 131.13 84.16 133.042C81.798 134.736 78.496 133.786 76.144 132.692C75.3151 132.317 74.519 131.875 73.764 131.368C73.296 131.066 73.024 131.284 73.018 131.568C72.9968 133.301 73.6295 134.979 74.79 136.268C75.126 137.972 76.79 138.948 79.744 139.168C75.594 144.73 68.232 145.692 57.276 142.102C60.4975 140.124 63.2536 137.473 65.356 134.332ZM116.074 219.424C114.962 220.136 109.13 221.25 100.274 218.852C99.3636 218.048 98.3653 217.35 97.298 216.772C97.2545 216.748 97.2069 216.733 97.1577 216.728C97.1085 216.723 97.0589 216.728 97.0115 216.742C96.9642 216.756 96.92 216.779 96.8817 216.811C96.8433 216.842 96.8115 216.88 96.788 216.924C96.7645 216.967 96.7498 217.015 96.7447 217.064C96.7396 217.113 96.7443 217.163 96.7584 217.21C96.7725 217.257 96.7958 217.302 96.827 217.34C96.8581 217.378 96.8965 217.41 96.94 217.434C100.054 219.128 103.104 222.31 103.364 225.412C103.43 225.671 103.44 225.941 103.393 226.204C103.346 226.467 103.243 226.717 103.092 226.938C102.94 227.158 102.743 227.343 102.514 227.481C102.285 227.619 102.03 227.707 101.764 227.738C100.643 224.423 98.2516 221.69 95.116 220.138C95.0291 220.097 94.9298 220.09 94.8384 220.12C94.7471 220.15 94.6706 220.214 94.6248 220.298C94.579 220.383 94.5673 220.482 94.592 220.574C94.6168 220.667 94.6762 220.747 94.758 220.798C96.3688 221.547 97.786 222.655 98.9005 224.039C100.015 225.422 100.797 227.042 101.186 228.776C101.25 229.11 101.23 229.455 101.13 229.78C101.029 230.105 100.85 230.4 100.608 230.64C99.7844 231.058 98.854 231.218 97.938 231.1C97.738 227.978 94.648 225.074 91.836 223.426C91.7933 223.401 91.7461 223.384 91.6971 223.377C91.6481 223.37 91.5982 223.373 91.5502 223.386C91.5023 223.398 91.4573 223.42 91.4178 223.45C91.3783 223.48 91.3451 223.517 91.32 223.56C91.2949 223.602 91.2785 223.65 91.2716 223.699C91.2648 223.748 91.2677 223.797 91.2801 223.845C91.2926 223.893 91.3143 223.938 91.3442 223.978C91.374 224.017 91.4113 224.051 91.454 224.076C95.376 226.374 96.982 229.156 97.174 230.994C97.24 231.353 97.2201 231.723 97.1158 232.074C97.0115 232.424 96.8259 232.745 96.574 233.01C94.614 234.81 88.184 233.81 85.974 229.548C87.9747 229.967 89.9261 230.594 91.796 231.42C91.8721 231.484 91.9707 231.516 92.0701 231.507C92.1695 231.499 92.2615 231.452 92.326 231.376C92.3904 231.3 92.422 231.201 92.4138 231.102C92.4055 231.002 92.3581 230.91 92.282 230.846C90.0688 229.879 87.7601 229.148 85.394 228.664C81.2894 227.849 77.0741 227.758 72.938 228.394C76.1452 222.033 77.1504 214.787 75.796 207.794C81.79 208.327 87.6802 209.695 93.296 211.858C100.742 214.801 108.346 217.327 116.074 219.424ZM95 211.694C90.7291 209.914 86.2767 208.605 81.722 207.792C84.506 207.896 97.8 208.55 98.988 209.57C98.926 210.452 96.692 211.32 95 211.694ZM75.648 206.946C75.592 206.636 75.532 206.32 75.468 206.006C75.452 205.925 75.4098 205.851 75.348 205.797C75.2862 205.742 75.2082 205.71 75.126 205.704C66.6906 205.014 58.3128 203.745 50.052 201.904C50.975 200.848 52.0542 199.94 53.252 199.212C66.64 201.412 80.99 201.95 94.052 198.716L95.33 208.008C88.7925 207.317 82.2238 206.963 75.65 206.946H75.648ZM40.736 199.656C42.7623 194.04 45.2787 188.614 48.256 183.44L52.732 198.654C51.4015 199.479 50.2163 200.518 49.224 201.73C44.884 200.768 41.8 199.944 40.736 199.656ZM140.2 184.56C137.191 185.918 133.942 186.663 130.643 186.753C127.343 186.843 124.058 186.276 120.98 185.084C114.838 182.801 108.985 179.807 103.54 176.162L98.396 159.362C98.294 159.036 97.746 158.864 97.668 159.69C97.424 162.342 100.222 174.052 94.068 197.954C82.558 200.836 68.904 201.018 53.468 198.5L51.002 190.1C51.436 181.848 51.66 179.022 51.636 178.026C51.618 177.242 51.1 177.372 50.954 177.604C46.3799 184.516 42.6633 191.96 39.886 199.77C39.867 199.818 39.8585 199.87 39.8609 199.923C39.8633 199.975 39.8766 200.026 39.9 200.073C39.9233 200.119 39.9562 200.161 39.9965 200.194C40.0368 200.227 40.0837 200.252 40.134 200.266C51.48 203.343 63.0769 205.405 74.788 206.43C76.6776 214.384 75.417 222.76 71.27 229.806C55.8538 229.314 40.5818 226.672 25.896 221.958C20.9563 220.312 16.8331 216.839 14.3708 212.251C11.9085 207.664 11.2936 202.308 12.652 197.282C17.344 180.15 28.428 150.602 49.934 145.182C52.1942 144.617 54.3687 143.752 56.4 142.612C65.274 145.612 75.2 146.952 80.586 139.28C88.524 140.33 98.254 142.15 105.684 145.774C114.506 150.46 122.957 155.814 130.964 161.788C131.016 161.826 131.077 161.851 131.141 161.86C131.205 161.869 131.27 161.861 131.33 161.838C143.802 156.894 157.044 147.968 166.018 141.298C174.618 145.018 178.956 151.746 178.916 161.298C162.4 173.66 153.968 178.282 140.2 184.56ZM203.41 157.96C201.918 158.298 191.71 154.974 186.68 153.96C190.895 154.008 195.103 154.317 199.28 154.886C200.819 155.675 202.217 156.712 203.418 157.956L203.41 157.96ZM186 153.228C191.094 151.839 196.348 151.121 201.628 151.094C208.158 153.608 209.946 154.628 210.366 155.038C208.272 155.602 193.264 152.864 186 153.228ZM182.758 153.776C181.523 154.458 180.341 155.233 179.222 156.094C178.37 151.017 175.551 146.481 171.376 143.47C179.508 142.132 209.976 146.17 212.672 149.394C212.71 149.438 212.743 149.488 212.768 149.542C204.632 150.724 190.21 149.774 182.76 153.776H182.758Z" fill="#1890ff"/>
<path d="M67.516 213.334C67.9332 213.333 68.341 213.209 68.6877 212.977C69.0344 212.745 69.3046 212.415 69.464 212.03C69.6233 211.644 69.6648 211.22 69.5832 210.811C69.5016 210.402 69.3004 210.026 69.0053 209.731C68.7101 209.436 68.3341 209.235 67.9249 209.154C67.5157 209.073 67.0915 209.115 66.7061 209.274C66.3206 209.434 65.9912 209.705 65.7595 210.052C65.5277 210.399 65.404 210.806 65.404 211.224C65.4037 211.501 65.4582 211.776 65.5643 212.032C65.6703 212.288 65.8259 212.521 66.0221 212.717C66.2183 212.913 66.4513 213.068 66.7076 213.174C66.964 213.28 67.2387 213.334 67.516 213.334Z" fill="#1890ff"/>
<path d="M36.684 216.464C36.2666 216.464 35.8586 216.587 35.5115 216.819C35.1645 217.051 34.8941 217.381 34.7344 217.767C34.5748 218.152 34.5331 218.577 34.6147 218.986C34.6963 219.395 34.8974 219.771 35.1927 220.066C35.488 220.361 35.8642 220.562 36.2736 220.643C36.683 220.725 37.1073 220.682 37.4929 220.522C37.8784 220.362 38.2078 220.092 38.4394 219.744C38.671 219.397 38.7944 218.989 38.794 218.572C38.794 218.295 38.7394 218.02 38.6334 217.764C38.5273 217.509 38.3718 217.276 38.1759 217.08C37.9799 216.885 37.7473 216.729 37.4913 216.624C37.2353 216.518 36.961 216.463 36.684 216.464Z" fill="#1890ff"/>
<path d="M21.664 188.038C21.2467 188.038 20.8387 188.161 20.4917 188.393C20.1447 188.625 19.8743 188.955 19.7146 189.34C19.5549 189.726 19.5131 190.15 19.5945 190.559C19.6759 190.969 19.8769 191.344 20.172 191.64C20.4671 191.935 20.843 192.136 21.2523 192.217C21.6616 192.298 22.0859 192.257 22.4714 192.097C22.857 191.937 23.1865 191.667 23.4184 191.32C23.6502 190.973 23.774 190.565 23.774 190.148C23.774 189.588 23.5517 189.051 23.156 188.656C22.7603 188.26 22.2236 188.038 21.664 188.038Z" fill="#1890ff"/>
<path d="M47.26 170.02C46.8427 170.02 46.4347 170.143 46.0877 170.375C45.7408 170.607 45.4703 170.937 45.3106 171.322C45.1509 171.708 45.1091 172.132 45.1905 172.541C45.272 172.951 45.4729 173.327 45.768 173.622C46.0631 173.917 46.4391 174.118 46.8484 174.199C47.2577 174.281 47.6819 174.239 48.0675 174.079C48.453 173.919 48.7825 173.649 49.0144 173.302C49.2462 172.955 49.37 172.547 49.37 172.13C49.37 171.57 49.1477 171.033 48.752 170.638C48.3563 170.242 47.8196 170.02 47.26 170.02Z" fill="#1890ff"/>
<path d="M57.078 145.362C56.6611 145.362 56.2536 145.485 55.9068 145.716C55.56 145.948 55.2896 146.277 55.1296 146.662C54.9696 147.047 54.9272 147.471 55.0078 147.88C55.0884 148.289 55.2884 148.665 55.5825 148.96C55.8766 149.256 56.2516 149.457 56.6603 149.54C57.0689 149.622 57.4928 149.582 57.8785 149.424C58.2643 149.266 58.5945 148.997 58.8275 148.651C59.0606 148.305 59.186 147.898 59.188 147.482C59.1893 147.204 59.1357 146.928 59.0303 146.671C58.9248 146.414 58.7696 146.18 58.5735 145.983C58.3775 145.786 58.1444 145.63 57.8878 145.523C57.6311 145.416 57.3559 145.362 57.078 145.362Z" fill="#1890ff"/>
<path d="M78.332 166.682C77.9147 166.682 77.5067 166.805 77.1597 167.037C76.8127 167.269 76.5423 167.599 76.3826 167.984C76.2229 168.37 76.1811 168.794 76.2625 169.203C76.3439 169.613 76.5449 169.989 76.84 170.284C77.1351 170.579 77.511 170.78 77.9203 170.861C78.3296 170.943 78.7539 170.901 79.1395 170.741C79.525 170.581 79.8545 170.311 80.0864 169.964C80.3182 169.617 80.442 169.209 80.442 168.792C80.442 168.515 80.3874 168.24 80.2814 167.984C80.1753 167.728 80.0199 167.496 79.824 167.3C79.6281 167.104 79.3954 166.948 79.1395 166.842C78.8835 166.736 78.6091 166.682 78.332 166.682Z" fill="#1890ff"/>
<path d="M61.084 185.93C60.6668 185.931 60.2594 186.056 59.9132 186.288C59.5669 186.521 59.2974 186.851 59.1387 187.237C58.98 187.623 58.9392 188.047 59.0214 188.456C59.1037 188.865 59.3053 189.24 59.6008 189.535C59.8963 189.829 60.2725 190.029 60.6818 190.11C61.091 190.191 61.515 190.148 61.9002 189.988C62.2854 189.828 62.6144 189.557 62.8458 189.21C63.0771 188.863 63.2004 188.455 63.2 188.038C63.2 187.76 63.1452 187.485 63.0388 187.229C62.9323 186.973 62.7763 186.74 62.5797 186.544C62.3831 186.348 62.1498 186.193 61.8931 186.088C61.6365 185.982 61.3615 185.929 61.084 185.93Z" fill="#1890ff"/>
<path d="M109.4 170.02C108.983 170.02 108.575 170.143 108.228 170.375C107.881 170.607 107.61 170.937 107.451 171.322C107.291 171.708 107.249 172.132 107.331 172.541C107.412 172.951 107.613 173.327 107.908 173.622C108.203 173.917 108.579 174.118 108.988 174.199C109.398 174.281 109.822 174.239 110.207 174.079C110.593 173.919 110.923 173.649 111.154 173.302C111.386 172.955 111.51 172.547 111.51 172.13C111.51 171.57 111.288 171.033 110.892 170.638C110.496 170.242 109.96 170.02 109.4 170.02Z" fill="#1890ff"/>
<path d="M129.852 164.168C129.435 164.168 129.027 164.291 128.68 164.523C128.333 164.755 128.063 165.084 127.903 165.469C127.743 165.855 127.701 166.279 127.782 166.688C127.863 167.097 128.064 167.473 128.359 167.768C128.653 168.063 129.029 168.265 129.438 168.347C129.847 168.428 130.271 168.387 130.657 168.228C131.042 168.069 131.372 167.799 131.604 167.453C131.837 167.106 131.961 166.699 131.962 166.282C131.963 166.004 131.908 165.729 131.803 165.473C131.697 165.216 131.541 164.983 131.345 164.787C131.149 164.591 130.917 164.435 130.66 164.329C130.404 164.222 130.129 164.168 129.852 164.168Z" fill="#1890ff"/>
<path d="M155.6 168.784C155.183 168.784 154.775 168.907 154.428 169.139C154.081 169.371 153.81 169.701 153.651 170.086C153.491 170.472 153.449 170.896 153.531 171.305C153.612 171.715 153.813 172.091 154.108 172.386C154.403 172.681 154.779 172.882 155.188 172.963C155.598 173.045 156.022 173.003 156.407 172.843C156.793 172.683 157.123 172.413 157.354 172.066C157.586 171.719 157.71 171.311 157.71 170.894C157.71 170.617 157.655 170.342 157.549 170.086C157.443 169.83 157.288 169.598 157.092 169.402C156.896 169.206 156.663 169.05 156.407 168.944C156.151 168.838 155.877 168.784 155.6 168.784Z" fill="#1890ff"/>
<path d="M166.868 145.9C166.451 145.9 166.043 146.024 165.696 146.256C165.35 146.488 165.079 146.818 164.92 147.204C164.761 147.589 164.719 148.013 164.801 148.423C164.882 148.832 165.084 149.207 165.379 149.502C165.674 149.797 166.05 149.998 166.459 150.079C166.868 150.161 167.292 150.119 167.678 149.959C168.063 149.799 168.393 149.529 168.625 149.182C168.856 148.835 168.98 148.427 168.98 148.01C168.98 147.732 168.925 147.458 168.819 147.202C168.713 146.946 168.557 146.713 168.361 146.517C168.165 146.321 167.932 146.166 167.676 146.06C167.42 145.954 167.145 145.899 166.868 145.9Z" fill="#1890ff"/>
<path d="M88.736 190.148C88.3188 190.148 87.911 190.272 87.5643 190.504C87.2176 190.736 86.9474 191.066 86.788 191.452C86.6286 191.837 86.5871 192.261 86.6688 192.671C86.7504 193.08 86.9515 193.456 87.2467 193.75C87.5419 194.045 87.9178 194.246 88.3271 194.327C88.7363 194.409 89.1605 194.367 89.5459 194.207C89.9314 194.047 90.2608 193.777 90.4925 193.43C90.7243 193.083 90.848 192.675 90.848 192.258C90.848 191.98 90.7934 191.706 90.6872 191.45C90.581 191.194 90.4254 190.961 90.2293 190.765C90.0331 190.569 89.8003 190.414 89.5441 190.308C89.2878 190.202 89.0133 190.147 88.736 190.148Z" fill="#1890ff"/>
<path d="M92.956 144.578C92.5385 144.578 92.1305 144.702 91.7837 144.935C91.4368 145.167 91.1667 145.497 91.0075 145.883C90.8482 146.269 90.8071 146.693 90.8892 147.103C90.9713 147.512 91.1731 147.888 91.4688 148.182C91.7646 148.477 92.1411 148.677 92.5508 148.758C92.9604 148.839 93.3847 148.796 93.7701 148.635C94.1554 148.474 94.4844 148.203 94.7154 147.855C94.9465 147.508 95.0692 147.099 95.068 146.682C95.0675 146.405 95.0124 146.131 94.906 145.875C94.7996 145.62 94.6439 145.388 94.4477 145.192C94.2516 144.997 94.0189 144.842 93.763 144.737C93.507 144.631 93.2328 144.577 92.956 144.578Z" fill="#1890ff"/>
</svg>
