<svg width="400" height="400" viewBox="0 0 400 400" fill="none" xmlns="http://www.w3.org/2000/svg">
<path d="M381.318 306.552L347.8 334.8C338.528 331.898 330.352 323.316 329.348 313.104L359.498 287.068L344.836 271.578C342.49 277.73 339.666 286.706 340.078 292.696L340.202 293.802C328.562 296.87 316.322 296.835 304.7 293.702C299.982 284.037 297.639 273.386 297.866 262.634C285.012 259.473 272.783 254.165 261.696 246.934C256.978 243.932 253.501 239.329 251.903 233.97C250.306 228.611 250.695 222.855 253 217.76L271.458 177.124C276.093 177.007 280.696 177.919 284.936 179.796C289.175 181.673 292.945 184.468 295.974 187.978L280.212 224.968C289.198 230.224 304.66 237.768 314.736 235.21L311.306 244.526C311.096 245.078 311.013 245.671 311.064 246.26C311.114 246.849 311.297 247.419 311.597 247.928C311.898 248.436 312.31 248.871 312.802 249.199C313.293 249.527 313.853 249.74 314.438 249.822L328.956 251.854C329.805 251.972 330.67 251.809 331.419 251.39C332.167 250.972 332.758 250.32 333.102 249.534L338.422 236.88C350.344 240.114 362.822 251.06 370.874 260.432C376.415 266.856 381.36 273.77 385.648 281.09C388.052 285.161 388.937 289.952 388.144 294.613C387.351 299.275 384.933 303.504 381.318 306.552V306.552Z" fill="#B2BEC3"/>
<path d="M317.714 207.096H288C287.9 207.096 287.805 207.056 287.734 206.986C287.664 206.915 287.624 206.819 287.624 206.72C287.624 206.62 287.664 206.524 287.734 206.454C287.805 206.383 287.9 206.344 288 206.344H317.722C317.822 206.345 317.917 206.385 317.987 206.457C318.056 206.528 318.095 206.624 318.094 206.724C318.093 206.823 318.052 206.919 317.981 206.988C317.91 207.058 317.814 207.097 317.714 207.096Z" fill="white"/>
<path d="M366.724 206.344H347.632C347.532 206.344 347.437 206.383 347.366 206.454C347.296 206.524 347.256 206.62 347.256 206.72C347.256 206.819 347.296 206.915 347.366 206.986C347.437 207.056 347.532 207.096 347.632 207.096H366.724C368.945 207.098 371.075 207.982 372.645 209.553C374.216 211.123 375.099 213.253 375.102 215.474V266.038C375.102 266.137 375.142 266.233 375.212 266.304C375.283 266.374 375.378 266.414 375.478 266.414C375.578 266.414 375.673 266.374 375.744 266.304C375.814 266.233 375.854 266.137 375.854 266.038V215.474C375.851 213.053 374.889 210.732 373.177 209.021C371.465 207.309 369.145 206.346 366.724 206.344Z" fill="white"/>
<path d="M213.12 149.188C209.762 149.7 205.78 149.838 201.69 150.032C217.828 156.232 209.724 155.022 199.42 153.832C214.22 163.148 187.42 152.432 183.22 153.33C181.72 154.116 180.291 155.031 178.95 156.064C178.58 153.344 177.632 150.734 176.168 148.411C174.704 146.089 172.759 144.107 170.464 142.6C185.248 139.786 201.754 120.092 188.264 139.26C187.076 141.206 186.758 142.48 188.196 142.968C200.502 144.28 214.12 146.974 213.12 149.188Z" fill="#B2BEC3"/>
<path d="M100.092 218.51C103.612 221.674 104.62 225.632 103.026 226.888C102.559 227.199 102.033 227.409 101.48 227.506C102.04 230.438 100.08 231.024 97.56 230.758C97.5694 231.1 97.5082 231.44 97.3802 231.757C97.2522 232.075 97.0601 232.362 96.816 232.602C94.66 234.572 87.376 233.54 85.324 228.344C81.0139 227.459 76.5746 227.404 72.244 228.182C75.7532 221.6 76.8478 213.997 75.338 206.692C75.274 206.32 99.29 207.204 99.368 208.806C99.446 210.408 95.296 211.332 94.968 211.406C101.893 214.105 108.958 216.43 116.132 218.372C118.494 218.878 111.722 221.68 100.092 218.51Z" fill="#B2BEC3"/>
<path d="M245.132 78.3721H147.732C141.517 78.38 135.558 80.8529 131.164 85.2484C126.77 89.6438 124.298 95.6028 124.292 101.818V117.112H87.212C87.1123 117.112 87.0166 117.152 86.9461 117.222C86.8756 117.293 86.836 117.388 86.836 117.488C86.836 117.588 86.8756 117.683 86.9461 117.754C87.0166 117.824 87.1123 117.864 87.212 117.864H150.108C152.329 117.867 154.458 118.75 156.029 120.321C157.599 121.892 158.482 124.021 158.484 126.242V145.292C158.484 145.392 158.524 145.487 158.594 145.558C158.665 145.628 158.76 145.668 158.86 145.668C158.96 145.668 159.055 145.628 159.126 145.558C159.196 145.487 159.236 145.392 159.236 145.292V126.242C159.233 123.822 158.271 121.501 156.56 119.79C154.848 118.078 152.528 117.115 150.108 117.112H135.294V104.044C135.314 101.974 135.746 99.929 136.566 98.0284C137.386 96.1277 138.578 94.41 140.07 92.9757C141.563 91.5414 143.327 90.4195 145.258 89.6757C147.19 88.9319 149.251 88.5812 151.32 88.6441H242.266C244.334 88.582 246.394 88.9333 248.325 89.6776C250.256 90.4218 252.018 91.544 253.51 92.9782C255.001 94.4125 256.191 96.1301 257.011 98.0302C257.83 99.9304 258.261 101.975 258.28 104.044C258.294 212.572 258.116 205.584 258.578 205.682C258.662 205.7 258.75 205.689 258.826 205.651C258.903 205.612 258.964 205.548 259 205.47C268.938 183.67 268.58 184.502 268.58 184.3V101.818C268.573 95.6017 266.1 89.6421 261.704 85.2467C257.308 80.8513 251.348 78.379 245.132 78.3721Z" fill="white"/>
<path d="M65.01 117.11H27.05C24.6294 117.113 22.3087 118.075 20.597 119.787C18.8854 121.499 17.9226 123.819 17.92 126.24V178.746C17.92 178.846 17.9596 178.941 18.0301 179.012C18.1006 179.082 18.1963 179.122 18.296 179.122C18.3957 179.122 18.4913 179.082 18.5619 179.012C18.6324 178.941 18.672 178.846 18.672 178.746V126.24C18.6746 124.019 19.5582 121.889 21.1288 120.319C22.6994 118.748 24.8288 117.865 27.05 117.862H65.01C65.1097 117.862 65.2053 117.822 65.2759 117.752C65.3464 117.681 65.386 117.586 65.386 117.486C65.386 117.386 65.3464 117.291 65.2759 117.22C65.2053 117.149 65.1097 117.11 65.01 117.11Z" fill="white"/>
<path d="M334 308.638H243.67C241.449 308.636 239.32 307.753 237.749 306.183C236.178 304.612 235.295 302.483 235.292 300.262C235.292 223.37 235.342 223.684 235.274 223.484L227.474 199.512L252.028 207.076C252.228 207.142 253.11 207.094 258.018 207.094C258.113 207.087 258.202 207.044 258.267 206.974C258.332 206.905 258.368 206.813 258.368 206.717C258.368 206.622 258.332 206.53 258.267 206.46C258.202 206.39 258.113 206.347 258.018 206.34H252.2L227 198.58C226.934 198.559 226.864 198.557 226.797 198.574C226.729 198.591 226.668 198.625 226.62 198.675C226.571 198.724 226.537 198.785 226.521 198.853C226.505 198.92 226.508 198.99 226.53 199.056L234.53 223.656V300.256C234.533 302.676 235.495 304.996 237.206 306.708C238.918 308.419 241.238 309.381 243.658 309.384H258.27V321.968C258.264 326.214 256.575 330.284 253.572 333.286C250.57 336.288 246.5 337.977 242.254 337.982H151.32C147.072 337.977 142.999 336.288 139.995 333.284C136.99 330.281 135.3 326.208 135.294 321.96V220.16H141.6C166.51 227.818 166.672 227.914 166.872 227.914C166.931 227.914 166.99 227.9 167.043 227.872C167.096 227.845 167.141 227.806 167.176 227.758C167.211 227.71 167.234 227.654 167.244 227.595C167.253 227.537 167.248 227.477 167.23 227.42L159.23 202.834V174.768C159.23 174.668 159.19 174.573 159.12 174.502C159.049 174.432 158.954 174.392 158.854 174.392C158.754 174.392 158.659 174.432 158.588 174.502C158.518 174.573 158.478 174.668 158.478 174.768C158.478 204.536 158.39 203.056 158.578 203.258L166.282 226.96L141.716 219.41C141.516 219.366 140.388 219.41 113.756 219.41C113.661 219.417 113.572 219.46 113.507 219.53C113.442 219.6 113.405 219.692 113.405 219.787C113.405 219.883 113.442 219.975 113.507 220.044C113.572 220.114 113.661 220.157 113.756 220.164H124.29V324.83C124.297 331.045 126.769 337.003 131.163 341.397C135.557 345.791 141.515 348.263 147.73 348.27H245.13C251.344 348.264 257.302 345.793 261.698 341.4C266.093 337.007 268.566 331.05 268.576 324.836V309.4H334C334.101 309.4 334.198 309.36 334.269 309.289C334.341 309.217 334.381 309.12 334.381 309.019C334.381 308.918 334.341 308.821 334.269 308.75C334.198 308.678 334.101 308.638 334 308.638Z" fill="white"/>
<path d="M69.2 340.988C56.7973 323.972 51.1092 302.979 53.2253 282.029C55.3415 261.08 65.1131 241.648 80.668 227.456C80.7421 227.392 80.8385 227.359 80.9365 227.365C81.0345 227.371 81.1263 227.415 81.1923 227.487C81.2584 227.56 81.2934 227.655 81.29 227.753C81.2866 227.851 81.245 227.944 81.174 228.012C72.7057 235.751 65.8951 245.127 61.1543 255.573C56.4135 266.019 53.841 277.319 53.5923 288.788C53.3437 300.257 55.4241 311.657 59.7078 322.299C63.9914 332.941 70.3893 342.603 78.5143 350.701C86.6393 358.8 96.3226 365.166 106.979 369.414C117.634 373.663 129.041 375.706 140.51 375.419C151.978 375.133 163.268 372.523 173.699 367.748C184.13 362.973 193.483 356.132 201.194 347.638C201.261 347.564 201.355 347.52 201.455 347.515C201.554 347.51 201.652 347.545 201.726 347.612C201.8 347.679 201.844 347.773 201.849 347.873C201.854 347.973 201.819 348.07 201.752 348.144C193.208 357.557 182.673 364.948 170.915 369.78C159.156 374.612 146.469 376.764 133.775 376.078C121.081 375.393 108.699 371.888 97.5287 365.818C86.3587 359.748 76.6814 351.266 69.2 340.988Z" fill="white"/>
<path d="M175.072 365.186L139.872 364.284C139.506 364.249 139.136 364.302 138.795 364.438C138.453 364.575 138.149 364.791 137.908 365.069C137.666 365.347 137.495 365.678 137.408 366.036C137.32 366.393 137.32 366.766 137.406 367.124C139.49 375.724 138.886 373.262 139.03 373.684C139.053 373.741 139.089 373.791 139.136 373.83C139.182 373.87 139.238 373.897 139.298 373.91C139.698 373.964 142.554 374.002 143.454 374.002C147.564 374.002 152.268 373.764 158.43 373.25C152.609 375.558 146.566 377.262 140.396 378.336C140.032 378.602 140.018 378.136 143.484 388.242C143.573 388.594 143.743 388.921 143.982 389.195C144.22 389.469 144.52 389.682 144.857 389.819C145.193 389.955 145.558 390.01 145.92 389.98C146.281 389.949 146.631 389.833 146.94 389.642C157.59 384.365 167.409 377.555 176.082 369.428C176.483 369.168 176.793 368.79 176.971 368.347C177.149 367.903 177.185 367.415 177.074 366.951C176.963 366.486 176.711 366.067 176.353 365.751C175.994 365.435 175.547 365.237 175.072 365.186ZM175.632 368.844C166.984 376.946 157.195 383.737 146.578 389C146.367 389.135 146.127 389.217 145.878 389.24C145.629 389.263 145.378 389.225 145.146 389.131C144.914 389.036 144.709 388.887 144.547 388.697C144.384 388.506 144.27 388.28 144.214 388.036L141.098 378.954C147.985 377.663 154.721 375.668 161.2 373L161.246 372.976C161.318 372.932 161.374 372.865 161.403 372.785C161.433 372.706 161.434 372.619 161.408 372.539C161.382 372.458 161.33 372.389 161.259 372.342C161.189 372.295 161.104 372.273 161.02 372.28C153.934 373.043 146.805 373.345 139.68 373.186L138.142 366.958C138.084 366.715 138.085 366.462 138.145 366.22C138.205 365.978 138.322 365.753 138.487 365.566C138.651 365.378 138.858 365.233 139.091 365.142C139.323 365.05 139.574 365.016 139.822 365.042L175.01 365.944C175.335 365.982 175.64 366.12 175.882 366.341C176.124 366.561 176.292 366.851 176.36 367.171C176.429 367.491 176.396 367.824 176.265 368.125C176.134 368.425 175.913 368.676 175.632 368.844Z" fill="white"/>
<path d="M75.976 132.35C75.077 131.935 74.2117 131.45 73.388 130.9C73.3699 132.568 73.9943 134.18 75.132 135.4C75.5 137.8 78.532 137.906 80.41 138.2C75.876 144.884 67.436 145.308 56.368 141.526C59.8253 139.531 62.7845 136.778 65.022 133.472C68.806 127.964 69.742 122.43 69.13 121.824C63.308 116.054 68.448 110.676 71.144 114.824C72.432 116.802 73.206 116.782 73.626 115.648C75.388 109.714 83.698 101.524 86.612 114.016L87.276 118.016C89.3 136.352 80.528 134.468 75.976 132.35Z" fill="#B2BEC3"/>
<path d="M190.97 33.8421C190.452 33.8421 189.945 33.6883 189.514 33.4004C189.083 33.1124 188.747 32.7031 188.549 32.2242C188.351 31.7454 188.299 31.2185 188.4 30.7102C188.502 30.2019 188.751 29.7351 189.118 29.3687C189.485 29.0024 189.952 28.753 190.46 28.6522C190.968 28.5513 191.495 28.6035 191.974 28.8021C192.453 29.0007 192.862 29.3368 193.149 29.7679C193.437 30.199 193.59 30.7058 193.59 31.2241C193.589 31.9186 193.313 32.5845 192.822 33.0754C192.331 33.5663 191.665 33.8421 190.97 33.8421ZM190.97 29.3581C190.601 29.3584 190.24 29.4682 189.934 29.6735C189.627 29.8788 189.388 30.1703 189.247 30.5113C189.107 30.8524 189.07 31.2275 189.142 31.5893C189.214 31.9512 189.392 32.2835 189.653 32.5442C189.914 32.805 190.247 32.9825 190.609 33.0543C190.971 33.1262 191.346 33.0891 191.687 32.9478C192.027 32.8065 192.319 32.5674 192.524 32.2605C192.729 31.9537 192.838 31.593 192.838 31.2241C192.837 30.729 192.64 30.2544 192.29 29.9045C191.94 29.5546 191.465 29.3581 190.97 29.3581Z" fill="white"/>
<path d="M200.722 33.8421C200.204 33.8424 199.697 33.6891 199.266 33.4013C198.834 33.1136 198.498 32.7044 198.3 32.2256C198.101 31.7468 198.049 31.2198 198.15 30.7114C198.251 30.203 198.501 29.736 198.867 29.3694C199.234 29.0029 199.701 28.7533 200.209 28.6523C200.718 28.5513 201.245 28.6033 201.724 28.8019C202.202 29.0004 202.612 29.3365 202.899 29.7677C203.187 30.1989 203.34 30.7057 203.34 31.2241C203.339 31.9181 203.063 32.5833 202.572 33.0741C202.081 33.5648 201.416 33.841 200.722 33.8421ZM200.722 29.3581C200.353 29.3581 199.992 29.4675 199.685 29.6725C199.378 29.8776 199.139 30.169 198.998 30.51C198.857 30.8509 198.82 31.2261 198.892 31.5881C198.964 31.9501 199.142 32.2825 199.403 32.5435C199.664 32.8045 199.996 32.9822 200.358 33.0542C200.72 33.1262 201.095 33.0892 201.436 32.948C201.777 32.8068 202.068 32.5676 202.274 32.2607C202.479 31.9539 202.588 31.5931 202.588 31.2241C202.587 30.7293 202.391 30.255 202.041 29.9052C201.691 29.5553 201.217 29.3586 200.722 29.3581Z" fill="white"/>
<path d="M210.472 33.8421C209.954 33.8424 209.447 33.6891 209.016 33.4013C208.584 33.1136 208.248 32.7044 208.05 32.2256C207.851 31.7468 207.799 31.2198 207.9 30.7114C208.001 30.203 208.251 29.736 208.617 29.3694C208.984 29.0029 209.451 28.7533 209.959 28.6523C210.468 28.5513 210.995 28.6033 211.474 28.8019C211.952 29.0004 212.362 29.3365 212.649 29.7677C212.937 30.1989 213.09 30.7057 213.09 31.2241C213.089 31.9182 212.813 32.5838 212.323 33.0747C211.832 33.5655 211.166 33.8415 210.472 33.8421ZM210.472 29.3581C210.103 29.3581 209.742 29.4675 209.435 29.6725C209.128 29.8776 208.889 30.169 208.748 30.51C208.607 30.8509 208.57 31.2261 208.642 31.5881C208.714 31.9501 208.892 32.2825 209.153 32.5435C209.414 32.8045 209.746 32.9822 210.108 33.0542C210.47 33.1262 210.845 33.0892 211.186 32.948C211.527 32.8068 211.818 32.5676 212.024 32.2607C212.229 31.9539 212.338 31.5931 212.338 31.2241C212.337 30.7293 212.141 30.255 211.791 29.9052C211.441 29.5553 210.967 29.3586 210.472 29.3581Z" fill="white"/>
<path d="M335.15 134.104C335.15 132.937 334.686 131.818 333.861 130.993C333.036 130.168 331.917 129.704 330.75 129.704H315.91C314.743 129.704 313.624 130.168 312.799 130.993C311.974 131.818 311.51 132.937 311.51 134.104V148.946C311.51 150.113 311.974 151.232 312.799 152.057C313.624 152.883 314.743 153.346 315.91 153.346H330.756C331.923 153.346 333.042 152.883 333.867 152.057C334.692 151.232 335.156 150.113 335.156 148.946L335.15 134.104ZM330.75 152.588H315.904C314.938 152.587 314.013 152.203 313.33 151.52C312.647 150.837 312.263 149.912 312.262 148.946V134.1C312.263 133.134 312.647 132.208 313.33 131.525C314.014 130.841 314.94 130.457 315.906 130.456H330.75C331.715 130.457 332.641 130.841 333.324 131.523C334.007 132.205 334.392 133.131 334.394 134.096V148.946C334.393 149.911 334.009 150.837 333.327 151.52C332.644 152.202 331.719 152.587 330.754 152.588H330.75Z" fill="white"/>
<path d="M323.332 137.118C322.462 137.118 321.611 137.376 320.887 137.86C320.164 138.343 319.6 139.03 319.267 139.834C318.934 140.638 318.847 141.523 319.017 142.377C319.186 143.23 319.605 144.014 320.221 144.629C320.836 145.245 321.62 145.664 322.474 145.834C323.327 146.003 324.212 145.916 325.016 145.583C325.82 145.25 326.507 144.686 326.99 143.963C327.474 143.239 327.732 142.388 327.732 141.518C327.732 140.351 327.268 139.232 326.443 138.407C325.618 137.582 324.499 137.118 323.332 137.118ZM323.332 145.174C322.61 145.174 321.904 144.96 321.303 144.559C320.703 144.157 320.234 143.587 319.958 142.92C319.682 142.252 319.609 141.518 319.75 140.81C319.891 140.101 320.239 139.451 320.75 138.94C321.26 138.429 321.911 138.081 322.62 137.94C323.328 137.799 324.062 137.872 324.73 138.148C325.397 138.425 325.967 138.893 326.369 139.493C326.77 140.094 326.984 140.8 326.984 141.522C326.983 142.49 326.598 143.419 325.913 144.103C325.229 144.788 324.3 145.173 323.332 145.174Z" fill="white"/>
<path d="M328.88 134.722C328.894 135.08 329.045 135.418 329.303 135.666C329.561 135.915 329.905 136.053 330.263 136.053C330.621 136.053 330.965 135.915 331.223 135.666C331.481 135.418 331.632 135.08 331.646 134.722C331.632 134.364 331.481 134.026 331.223 133.778C330.965 133.529 330.621 133.391 330.263 133.391C329.905 133.391 329.561 133.529 329.303 133.778C329.045 134.026 328.894 134.364 328.88 134.722Z" fill="white"/>
<path d="M287.562 332.13C286.838 332.13 286.131 331.915 285.529 331.513C284.927 331.111 284.458 330.539 284.181 329.871C283.904 329.202 283.831 328.466 283.972 327.756C284.114 327.046 284.462 326.394 284.974 325.882C285.486 325.37 286.138 325.022 286.848 324.88C287.558 324.739 288.294 324.812 288.963 325.089C289.631 325.366 290.203 325.835 290.605 326.437C291.007 327.039 291.222 327.746 291.222 328.47C291.221 329.44 290.835 330.371 290.149 331.057C289.463 331.743 288.532 332.129 287.562 332.13ZM287.562 325.564C286.987 325.564 286.424 325.734 285.946 326.053C285.467 326.373 285.094 326.827 284.874 327.358C284.653 327.89 284.596 328.475 284.708 329.039C284.82 329.603 285.097 330.121 285.504 330.528C285.911 330.935 286.429 331.212 286.993 331.324C287.557 331.436 288.142 331.379 288.674 331.158C289.205 330.938 289.659 330.565 289.979 330.086C290.298 329.608 290.468 329.045 290.468 328.47C290.466 327.7 290.16 326.962 289.615 326.417C289.07 325.872 288.332 325.566 287.562 325.564Z" fill="white"/>
<path d="M111.334 88.258H103.516V80.436C103.52 80.3847 103.513 80.3332 103.496 80.2847C103.479 80.2362 103.452 80.1917 103.417 80.1541C103.382 80.1164 103.34 80.0864 103.292 80.0658C103.245 80.0453 103.194 80.0347 103.143 80.0347C103.092 80.0347 103.041 80.0453 102.994 80.0658C102.946 80.0864 102.904 80.1164 102.869 80.1541C102.834 80.1917 102.807 80.2362 102.79 80.2847C102.773 80.3332 102.766 80.3847 102.77 80.436V88.25H94.948C94.8488 88.25 94.7537 88.2894 94.6835 88.3595C94.6134 88.4297 94.574 88.5248 94.574 88.624C94.574 88.7232 94.6134 88.8183 94.6835 88.8885C94.7537 88.9586 94.8488 88.998 94.948 88.998H102.766V96.82C102.773 96.9142 102.815 97.0023 102.884 97.0666C102.954 97.1309 103.045 97.1667 103.139 97.1667C103.233 97.1667 103.324 97.1309 103.394 97.0666C103.463 97.0023 103.505 96.9142 103.512 96.82V89H111.334C111.424 88.9885 111.507 88.9445 111.567 88.8762C111.628 88.8079 111.661 88.72 111.661 88.629C111.661 88.538 111.628 88.4501 111.567 88.3818C111.507 88.3135 111.424 88.2695 111.334 88.258Z" fill="white"/>
<path d="M200.722 10C182.468 10 171.368 28.456 181.08 42.524L177.52 51.94C177.494 52.0084 177.489 52.0828 177.505 52.1541C177.521 52.2254 177.558 52.2905 177.61 52.3414C177.663 52.3924 177.729 52.4269 177.8 52.4409C177.872 52.4548 177.946 52.4476 178.014 52.42L187.4 48.588C202.574 58.334 223.944 48.56 223.946 31.224C223.948 19.52 213.528 10 200.722 10ZM187.646 47.852C187.609 47.8202 187.564 47.7995 187.516 47.7924C187.468 47.7853 187.418 47.7921 187.374 47.812C186.912 47.928 185.326 48.624 178.528 51.398C181.072 44.67 181.7 43.09 181.84 42.636C181.902 42.436 181.944 42.452 181.808 42.252C172.282 28.72 182.946 10.75 200.722 10.75C213.122 10.75 223.194 19.936 223.194 31.224C223.2 47.982 202.35 57.468 187.646 47.852Z" fill="white"/>
<path d="M385.976 280.9C379.84 270.339 372.275 260.676 363.494 252.186C368.86 241.564 369.772 232.658 366.202 225.708C361.312 216.186 349.364 213.432 346.968 212.968C350.88 199.156 343.138 192.214 334.136 193.168C328.336 193.768 322.348 197.432 318.37 204.668C314.57 211.588 313.57 216.634 315.43 219.668C316.314 220.797 317.474 221.68 318.798 222.231C320.122 222.783 321.566 222.985 322.99 222.818C322.79 233.68 314.832 236.798 304.26 234.71C295.925 232.694 287.968 229.354 280.692 224.816C294.04 193.494 296.07 188.848 296.322 188.064C296.38 187.886 296.346 187.908 296.322 187.864C295.93 187.359 295.509 186.879 295.06 186.424C296.922 182.51 305.956 166.064 305.396 164.434C304.78 162.686 298.932 167.7 297.516 168.928C299.826 158.906 298.916 149.794 297.794 147.516C297.394 146.696 296.852 146.876 296.658 147.442C295.612 150.496 294.338 157.808 293.458 162.382C292.834 158.84 290.08 156.032 287.59 157.922C287.31 157.62 286.958 157.394 286.567 157.265C286.176 157.135 285.759 157.107 285.354 157.182C284.913 157.303 284.503 157.515 284.15 157.806C283.797 158.097 283.509 158.458 283.306 158.868C282.84 158.632 282.306 158.568 281.798 158.688C279.176 159.356 278.456 162.782 277.798 165.614C276.932 169.593 275.407 173.4 273.286 176.876L271.462 176.758C271.37 176.758 271.316 176.664 271.106 177.032C270.438 178.212 267.664 184.574 252.656 217.614C250.343 222.795 249.963 228.634 251.584 234.071C253.206 239.509 256.721 244.185 261.494 247.254C272.465 254.564 284.658 259.848 297.494 262.854C297.062 271.09 298.716 281.306 304.282 293.71L298.06 308.88C298.041 308.926 298.032 308.975 298.032 309.024C298.032 309.073 298.042 309.122 298.061 309.168C298.08 309.214 298.108 309.255 298.143 309.29C298.178 309.325 298.219 309.352 298.265 309.371C298.311 309.39 298.36 309.399 298.409 309.399C298.458 309.399 298.507 309.389 298.553 309.37C298.599 309.351 298.64 309.323 298.675 309.288C298.71 309.253 298.737 309.212 298.756 309.166L304.916 294.148C316.463 297.191 328.599 297.211 340.156 294.206C342.274 295.251 344.188 296.667 345.808 298.386C332.808 309.606 329.848 312.112 329.17 312.766C328.924 313.002 328.97 312.996 328.97 313.074C329.194 315.4 329.776 317.678 330.696 319.826C327.557 322.886 323.946 325.419 320 327.328C315.334 329.614 314.97 330.644 315.174 331.286C315.662 332.814 319.932 331.856 321.348 331.568C323.808 331.07 327.926 330.238 328.62 331.124C328.758 331.302 328.73 331.6 328.54 332.012C325.068 336.64 326.246 336.012 321.108 340.964C319.976 342.052 316.708 345.31 313.274 348.274C311.06 350.19 310.182 351.498 310.588 352.274C310.716 352.468 310.905 352.613 311.125 352.686C311.346 352.758 311.584 352.754 311.802 352.674C314.265 351.831 316.609 350.675 318.778 349.236C318.134 350.946 316.276 356.01 317.748 356.748C319.148 357.436 321.802 353.548 322.682 352.232C332.79 337.232 337.598 335.514 341.358 332.232C343.349 333.488 345.498 334.475 347.748 335.166C348.04 335.192 346.986 335.966 381.562 306.838C385.255 303.741 387.727 299.432 388.536 294.68C389.344 289.929 388.437 285.044 385.976 280.9ZM323.342 226.448C325.342 224.112 326.274 223.048 326.684 222.54C327.212 221.868 326.934 221.628 326.268 221.74C316.11 223.54 311.5 218.706 319.028 205.014C320.369 202.368 322.239 200.026 324.52 198.13C329.366 195.056 332.378 202.672 331.844 207.828C331.808 208.091 331.845 208.36 331.951 208.604C332.057 208.848 332.227 209.058 332.444 209.212C332.988 209.482 333.784 209.212 335.032 208.364C338.692 205.866 340.814 212.106 333.852 214.964C332.082 215.688 330.672 223.286 332.424 231.9C333.164 235.524 334.932 236.166 338.116 237.17L332.754 249.386C332.44 250.094 331.905 250.68 331.229 251.057C330.553 251.435 329.773 251.582 329.006 251.478L314.49 249.448C313.961 249.374 313.455 249.181 313.011 248.885C312.566 248.589 312.194 248.196 311.922 247.736C311.65 247.277 311.485 246.762 311.44 246.229C311.394 245.697 311.468 245.161 311.658 244.662L315.172 235.416C317.263 234.887 319.152 233.755 320.605 232.16C322.058 230.566 323.009 228.579 323.342 226.448ZM288.87 158.112C290.514 157.678 293.444 160.372 292.772 165.726C292.598 167.102 292.126 167.766 291.738 167.816C291.35 167.866 290.666 167.324 289.99 165.666C290.284 163.116 289.614 160.548 288.112 158.466C288.342 158.305 288.599 158.185 288.87 158.112ZM285.55 157.9C287.286 157.438 289.582 161.3 289.248 165.53C289.215 165.604 289.207 165.687 289.226 165.766C289.198 166.038 289.162 166.314 289.116 166.594C288.86 168.12 288.204 168.974 287.716 168.994C287.274 169.004 286.638 168.36 286.134 166.488C286.333 165.198 286.239 163.879 285.858 162.63C285.477 161.381 284.819 160.234 283.934 159.274C284.088 158.942 284.312 158.646 284.591 158.409C284.87 158.172 285.197 157.998 285.55 157.9ZM278.538 165.774C279.092 163.374 279.796 159.974 281.986 159.408C283.476 159.026 284.734 161.194 285.152 162.86C285.464 164.106 285.824 168.072 284.536 168.06C284.333 168.031 284.139 167.958 283.966 167.848C283.794 167.737 283.647 167.59 283.536 167.418C282.754 166.2 282.307 164.796 282.242 163.35C282.229 163.254 282.179 163.166 282.103 163.106C282.027 163.045 281.93 163.017 281.833 163.026C281.737 163.035 281.647 163.082 281.584 163.156C281.521 163.229 281.488 163.325 281.494 163.422C281.551 164.046 281.651 164.666 281.794 165.276C281.177 165.178 280.546 165.206 279.94 165.356C279.849 165.386 279.773 165.45 279.728 165.534C279.682 165.617 279.67 165.716 279.695 165.808C279.719 165.901 279.777 165.98 279.858 166.031C279.939 166.082 280.036 166.1 280.13 166.082C280.76 165.909 281.428 165.93 282.046 166.142C283.128 169.296 285.18 169.318 285.846 167.942C287.068 170.83 289.178 170.016 289.81 167.008C291.18 169.444 293.116 168.99 293.522 165.83C294.5 161.526 296.004 152.07 297.274 148.03C298.776 155.168 298.545 162.562 296.598 169.592C295.066 169.862 288.664 171.282 289.152 176.13C289.165 176.227 289.214 176.315 289.291 176.376C289.367 176.437 289.465 176.465 289.562 176.456C289.659 176.446 289.749 176.399 289.812 176.324C289.875 176.25 289.907 176.154 289.9 176.056C289.432 171.388 296.94 170.296 297.016 170.286C297.09 170.276 297.16 170.244 297.216 170.194C299.406 168.004 301.934 166.18 304.704 164.794C304.522 166.934 296.202 182.394 294.522 185.84C289.076 180.427 281.803 177.246 274.132 176.92C276.201 173.471 277.69 169.706 278.538 165.774ZM340.554 293.546C339.722 287.586 342.416 278.746 344.938 272.158L358.96 287.034L346.394 297.886C344.725 296.099 342.747 294.628 340.554 293.546ZM311.612 351.946C311.132 352.074 311.186 351.794 311.43 351.36C312.07 350.402 312.86 349.554 313.77 348.848C317.426 345.694 323.318 339.874 323.852 339.318C322.152 342.132 320.616 345.042 319.252 348.034C316.884 349.66 314.316 350.973 311.612 351.942V351.946ZM322.058 351.81C319.446 355.692 318.258 356.15 318.086 356.072C317.574 355.7 318.312 352.32 319.886 348.472C320.68 346.533 321.627 344.66 322.72 342.872C325.225 337.864 328.313 333.17 331.92 328.888C331.983 328.81 332.012 328.711 332.001 328.612C331.99 328.512 331.941 328.422 331.863 328.359C331.785 328.296 331.686 328.267 331.587 328.278C331.487 328.289 331.397 328.338 331.334 328.416C330.6 329.328 329.946 330.158 329.358 330.92C328.506 328.896 322.408 330.69 319.076 331.232C317.118 331.55 315.958 331.286 315.876 331.054C315.876 331.054 315.686 330.268 320.316 328C324.246 326.089 327.855 323.577 331.012 320.554C333.146 325.118 336.492 329.008 340.684 331.802C337.022 334.942 332.108 336.89 322.058 351.8V351.81ZM381.078 306.268L347.722 334.376C343.043 332.902 338.875 330.139 335.696 326.403C332.517 322.667 330.456 318.11 329.75 313.256L359.75 287.35C359.788 287.317 359.82 287.276 359.842 287.231C359.864 287.185 359.877 287.135 359.879 287.085C359.882 287.034 359.874 286.983 359.856 286.936C359.838 286.888 359.811 286.845 359.776 286.808L342.014 267.962C341.946 267.889 341.851 267.847 341.751 267.844C341.652 267.841 341.555 267.878 341.482 267.946C341.409 268.014 341.367 268.109 341.364 268.209C341.361 268.308 341.398 268.405 341.466 268.478L344.364 271.554C341.794 278.218 338.98 287.304 339.79 293.524C328.365 296.458 316.378 296.408 304.978 293.38C294.202 269.38 298.252 253.71 303.554 244.794C303.601 244.709 303.612 244.608 303.587 244.514C303.561 244.42 303.5 244.34 303.416 244.29C303.332 244.241 303.233 244.225 303.138 244.248C303.043 244.27 302.961 244.328 302.908 244.41C299.752 249.798 297.918 255.856 297.556 262.09C284.845 259.096 272.772 253.855 261.904 246.614C257.284 243.643 253.881 239.116 252.311 233.853C250.742 228.59 251.109 222.938 253.346 217.922L271.696 177.522L275.35 177.76C283.171 178.407 290.423 182.105 295.54 188.054C283.518 216.264 280.522 222.966 279.954 224.64C279.734 225.292 279.9 225.21 280.02 225.294C289.21 230.67 303.878 237.926 314.288 235.646L310.96 244.4C310.73 245.005 310.639 245.655 310.694 246.3C310.75 246.945 310.95 247.569 311.279 248.126C311.609 248.684 312.06 249.159 312.599 249.518C313.138 249.877 313.751 250.11 314.392 250.2C330.222 252.414 329.072 252.272 329.498 252.272C330.335 252.27 331.153 252.026 331.854 251.569C332.555 251.113 333.108 250.463 333.448 249.698L338.848 237.406C358.048 243.492 375.048 263.884 385.332 281.29C387.7 285.281 388.572 289.984 387.793 294.559C387.014 299.133 384.634 303.282 381.078 306.264V306.268Z" fill="white"/>
<path d="M188.258 142.588C188.136 142.554 188.022 142.495 187.924 142.414C187.825 142.334 187.744 142.235 187.686 142.122C187.486 141.652 187.784 140.778 188.582 139.474C193.66 132.254 193.97 131.274 193.464 130.762C192.958 130.25 191.944 130.874 188.556 133.182C184.26 136.11 177.756 140.534 171.514 142.012C171.182 142.055 170.853 142.116 170.528 142.194C169.134 141.272 167.657 140.484 166.116 139.838C166.056 139.812 165.989 139.803 165.924 139.81C165.859 139.818 165.797 139.843 165.744 139.882C156.852 146.504 143.668 155.418 131.248 160.378C123.257 154.421 114.822 149.085 106.016 144.416C94.638 138.864 79.332 137.962 77.438 137.302C76.963 137.193 76.5288 136.951 76.1863 136.604C75.8438 136.257 75.6071 135.82 75.504 135.344C75.4468 134.462 75.6633 133.584 76.124 132.83C78.874 134.052 82.15 134.724 84.592 132.97C87.49 130.89 88.52 125.842 87.646 117.946C86.76 112.602 87.398 115.988 84.414 101.298C84.3359 100.614 84.0447 99.9729 83.5815 99.4642C83.1184 98.9555 82.5068 98.6055 81.8336 98.4639C81.1604 98.3222 80.4597 98.3961 79.8308 98.6751C79.2019 98.954 78.6768 99.4239 78.33 100.018C78.0611 99.4621 77.6409 98.9932 77.1177 98.6652C76.5946 98.3371 75.9895 98.1631 75.372 98.1631C74.7545 98.1631 74.1494 98.3371 73.6263 98.6652C73.1031 98.9932 72.6829 99.4621 72.414 100.018C72.0887 99.4608 71.6059 99.0122 71.0262 98.7289C70.4466 98.4455 69.796 98.3399 69.1565 98.4254C68.517 98.5109 67.9171 98.7838 67.4323 99.2095C66.9475 99.6352 66.5994 100.195 66.432 100.818C65.9318 100.268 65.26 99.9041 64.5263 99.7853C63.7925 99.6665 63.0402 99.8 62.3921 100.164C61.744 100.528 61.2384 101.101 60.958 101.789C60.6775 102.478 60.6388 103.241 60.848 103.954C62.3453 108.427 63.6136 112.974 64.648 117.576C66.21 125.118 66.23 130.552 64.702 133.29C61.196 138.521 55.8679 142.259 49.756 143.776C28.968 149 17.71 175.276 11.926 196.4C10.5122 201.613 11.147 207.17 13.7 211.93C16.2531 216.691 20.5309 220.294 25.656 222C40.4333 226.958 55.8835 229.621 71.468 229.896C71.5334 229.896 71.5979 229.88 71.6553 229.848C71.7126 229.817 71.7611 229.771 71.796 229.716C72.032 229.334 72.26 228.946 72.478 228.556C76.6393 227.811 80.9031 227.85 85.05 228.672C87.606 234.672 97.342 235.586 97.912 231.17C100.628 231.316 102.246 230.49 101.912 227.802C102.396 227.684 102.854 227.476 103.262 227.19C103.605 226.876 103.864 226.481 104.014 226.041C104.164 225.601 104.201 225.13 104.122 224.672C103.794 222.611 102.824 220.706 101.35 219.228C104.275 219.959 107.277 220.343 110.292 220.372C112.525 220.589 114.773 220.163 116.772 219.144C117.136 218.77 117.07 218.196 116.212 218.006C109.44 216.19 102.771 214.01 96.234 211.476C97.7 211.044 99.816 210.174 99.748 208.792C99.722 208.238 98.28 207.792 96.108 207.456L94.748 197.6C96.8923 189.519 98.217 181.243 98.702 172.896C105.368 178.074 112.792 182.192 120.714 185.106C123.885 186.334 127.269 186.918 130.668 186.826C134.067 186.734 137.414 185.966 140.514 184.568C154.364 178.252 162.846 173.596 179.514 161.11C179.56 161.075 179.597 161.03 179.623 160.979C179.649 160.928 179.663 160.871 179.664 160.814C179.684 159.282 179.581 157.751 179.356 156.236C180.616 155.249 181.971 154.389 183.4 153.668C186.148 153.196 200.034 158.034 203.136 158.034C203.736 158.034 204.036 157.886 204.162 157.6C204.362 157.148 204.242 156.548 200.986 154.39C202.546 154.558 207.268 155.172 209.362 155.172C210.612 155.172 211.094 154.972 211.196 154.572C211.348 153.954 210.846 153.23 203.484 150.332C206.725 150.24 209.959 149.985 213.174 149.566C213.236 149.556 213.294 149.532 213.344 149.494C213.394 149.456 213.434 149.407 213.46 149.35C215.1 145.71 192.218 143 188.258 142.588ZM192.858 131.388C191.421 134.068 189.783 136.635 187.958 139.068C186.536 141.394 186.862 142.122 187.018 142.468C182.951 142.031 178.864 141.812 174.774 141.812C183.2 138.704 190.824 132.068 192.854 131.38L192.858 131.388ZM65.356 133.65C69.086 128.2 70.24 122.4 69.4 121.554C64.2 116.4 68.166 111.656 70.584 114.672C71.072 115.272 71.884 116.852 72.896 116.788C73.54 116.748 73.864 116.116 74.068 115.504C75.126 112.23 78.534 107.744 81.65 107.842C83.72 107.904 85.31 110.06 86.25 114.078L86.908 118.048C87.744 125.634 86.82 130.448 84.16 132.36C81.798 134.054 78.496 133.104 76.144 132.01C75.3151 131.636 74.519 131.193 73.764 130.686C73.296 130.384 73.024 130.602 73.018 130.886C72.9968 132.62 73.6295 134.298 74.79 135.586C75.126 137.29 76.79 138.266 79.744 138.486C75.594 144.048 68.232 145.01 57.276 141.42C60.4975 139.442 63.2536 136.792 65.356 133.65ZM116.074 218.742C114.962 219.454 109.13 220.568 100.274 218.17C99.3636 217.367 98.3653 216.669 97.298 216.09C97.2545 216.066 97.2069 216.052 97.1577 216.047C97.1085 216.042 97.0589 216.046 97.0115 216.06C96.9642 216.074 96.92 216.098 96.8817 216.129C96.8433 216.16 96.8115 216.199 96.788 216.242C96.7645 216.285 96.7498 216.333 96.7447 216.382C96.7396 216.431 96.7443 216.481 96.7584 216.528C96.7725 216.576 96.7958 216.62 96.827 216.658C96.8581 216.697 96.8965 216.728 96.94 216.752C100.054 218.446 103.104 221.628 103.364 224.73C103.43 224.989 103.44 225.259 103.393 225.522C103.346 225.786 103.243 226.036 103.092 226.256C102.94 226.476 102.743 226.661 102.514 226.799C102.285 226.937 102.03 227.025 101.764 227.056C100.643 223.742 98.2516 221.008 95.116 219.456C95.0291 219.415 94.9298 219.409 94.8384 219.439C94.7471 219.468 94.6706 219.532 94.6248 219.617C94.579 219.701 94.5673 219.8 94.592 219.893C94.6168 219.986 94.6762 220.066 94.758 220.116C96.3688 220.865 97.786 221.974 98.9005 223.357C100.015 224.74 100.797 226.361 101.186 228.094C101.25 228.428 101.23 228.773 101.13 229.098C101.029 229.423 100.85 229.718 100.608 229.958C99.7844 230.376 98.854 230.536 97.938 230.418C97.738 227.296 94.648 224.392 91.836 222.744C91.7933 222.719 91.7461 222.702 91.6971 222.696C91.6481 222.689 91.5982 222.692 91.5502 222.704C91.5023 222.717 91.4573 222.738 91.4178 222.768C91.3783 222.798 91.3451 222.835 91.32 222.878C91.2949 222.921 91.2785 222.968 91.2716 223.017C91.2648 223.066 91.2677 223.116 91.2801 223.164C91.2926 223.212 91.3143 223.257 91.3442 223.296C91.374 223.336 91.4113 223.369 91.454 223.394C95.376 225.692 96.982 228.474 97.174 230.312C97.24 230.672 97.2201 231.042 97.1158 231.392C97.0115 231.742 96.8259 232.063 96.574 232.328C94.614 234.128 88.184 233.128 85.974 228.866C87.9747 229.285 89.9261 229.912 91.796 230.738C91.8721 230.802 91.9707 230.834 92.0701 230.826C92.1695 230.817 92.2615 230.77 92.326 230.694C92.3904 230.618 92.422 230.519 92.4138 230.42C92.4055 230.32 92.3581 230.228 92.282 230.164C90.0688 229.197 87.7601 228.466 85.394 227.982C81.2894 227.168 77.0741 227.076 72.938 227.712C76.1452 221.351 77.1504 214.106 75.796 207.112C81.79 207.646 87.6802 209.013 93.296 211.176C100.742 214.12 108.346 216.646 116.074 218.742ZM95 211.012C90.7291 209.232 86.2767 207.924 81.722 207.11C84.506 207.214 97.8 207.868 98.988 208.888C98.926 209.77 96.692 210.638 95 211.012ZM75.648 206.264C75.592 205.954 75.532 205.638 75.468 205.324C75.452 205.243 75.4098 205.17 75.348 205.115C75.2862 205.061 75.2082 205.028 75.126 205.022C66.6906 204.333 58.3128 203.063 50.052 201.222C50.975 200.167 52.0542 199.259 53.252 198.53C66.64 200.73 80.99 201.268 94.052 198.034L95.33 207.326C88.7925 206.635 82.2238 206.281 75.65 206.264H75.648ZM40.736 198.974C42.7623 193.359 45.2787 187.932 48.256 182.758L52.732 197.972C51.4015 198.798 50.2163 199.837 49.224 201.048C44.884 200.086 41.8 199.262 40.736 198.974ZM140.2 183.878C137.191 185.236 133.942 185.982 130.643 186.072C127.343 186.162 124.058 185.594 120.98 184.402C114.838 182.119 108.985 179.125 103.54 175.48L98.396 158.68C98.294 158.354 97.746 158.182 97.668 159.008C97.424 161.66 100.222 173.37 94.068 197.272C82.558 200.154 68.904 200.336 53.468 197.818L51.002 189.418C51.436 181.166 51.66 178.34 51.636 177.344C51.618 176.56 51.1 176.69 50.954 176.922C46.3799 183.835 42.6633 191.278 39.886 199.088C39.867 199.137 39.8585 199.189 39.8609 199.241C39.8633 199.293 39.8766 199.344 39.9 199.391C39.9233 199.438 39.9562 199.479 39.9965 199.512C40.0368 199.546 40.0837 199.57 40.134 199.584C51.48 202.661 63.0769 204.724 74.788 205.748C76.6776 213.702 75.417 222.079 71.27 229.124C55.8538 228.632 40.5818 225.99 25.896 221.276C20.9563 219.63 16.8331 216.157 14.3708 211.57C11.9085 206.982 11.2936 201.626 12.652 196.6C17.344 179.468 28.428 149.92 49.934 144.5C52.1942 143.935 54.3687 143.071 56.4 141.93C65.274 144.93 75.2 146.27 80.586 138.598C88.524 139.648 98.254 141.468 105.684 145.092C114.506 149.779 122.957 155.132 130.964 161.106C131.016 161.145 131.077 161.169 131.141 161.178C131.205 161.187 131.27 161.179 131.33 161.156C143.802 156.212 157.044 147.286 166.018 140.616C174.618 144.336 178.956 151.064 178.916 160.616C162.4 172.978 153.968 177.6 140.2 183.878ZM203.41 157.278C201.918 157.616 191.71 154.292 186.68 153.278C190.895 153.326 195.103 153.636 199.28 154.204C200.819 154.993 202.217 156.03 203.418 157.274L203.41 157.278ZM186 152.546C191.094 151.157 196.348 150.44 201.628 150.412C208.158 152.926 209.946 153.946 210.366 154.356C208.272 154.92 193.264 152.182 186 152.546ZM182.758 153.094C181.523 153.777 180.341 154.552 179.222 155.412C178.37 150.335 175.551 145.799 171.376 142.788C179.508 141.45 209.976 145.488 212.672 148.712C212.71 148.757 212.743 148.807 212.768 148.86C204.632 150.042 190.21 149.092 182.76 153.094H182.758Z" fill="white"/>
<path d="M67.516 212.652C67.9332 212.652 68.341 212.528 68.6877 212.296C69.0344 212.063 69.3046 211.734 69.464 211.348C69.6233 210.963 69.6648 210.538 69.5832 210.129C69.5016 209.72 69.3004 209.344 69.0053 209.049C68.7101 208.755 68.3341 208.554 67.9249 208.473C67.5157 208.391 67.0915 208.433 66.7061 208.593C66.3206 208.753 65.9912 209.023 65.7595 209.37C65.5277 209.717 65.404 210.125 65.404 210.542C65.4037 210.819 65.4582 211.094 65.5643 211.35C65.6703 211.607 65.8259 211.839 66.0221 212.035C66.2183 212.231 66.4513 212.387 66.7076 212.493C66.964 212.598 67.2387 212.653 67.516 212.652Z" fill="white"/>
<path d="M36.684 215.782C36.2666 215.782 35.8586 215.906 35.5115 216.138C35.1645 216.37 34.8941 216.7 34.7344 217.085C34.5748 217.471 34.5331 217.895 34.6147 218.305C34.6963 218.714 34.8974 219.09 35.1927 219.385C35.488 219.68 35.8642 219.881 36.2736 219.962C36.683 220.043 37.1073 220.001 37.4929 219.841C37.8784 219.681 38.2078 219.41 38.4394 219.063C38.671 218.716 38.7944 218.308 38.794 217.89C38.794 217.613 38.7394 217.339 38.6334 217.083C38.5273 216.827 38.3718 216.595 38.1759 216.399C37.9799 216.203 37.7473 216.048 37.4913 215.942C37.2353 215.836 36.961 215.782 36.684 215.782Z" fill="white"/>
<path d="M21.664 187.356C21.2467 187.356 20.8387 187.48 20.4917 187.712C20.1447 187.943 19.8743 188.273 19.7146 188.658C19.5549 189.044 19.5131 189.468 19.5945 189.878C19.6759 190.287 19.8769 190.663 20.172 190.958C20.4671 191.253 20.843 191.454 21.2523 191.535C21.6616 191.617 22.0859 191.575 22.4714 191.415C22.857 191.256 23.1865 190.985 23.4184 190.638C23.6502 190.291 23.774 189.883 23.774 189.466C23.774 188.906 23.5517 188.37 23.156 187.974C22.7603 187.578 22.2236 187.356 21.664 187.356Z" fill="white"/>
<path d="M47.26 169.338C46.8427 169.338 46.4347 169.462 46.0877 169.693C45.7408 169.925 45.4703 170.255 45.3106 170.64C45.1509 171.026 45.1091 171.45 45.1905 171.86C45.272 172.269 45.4729 172.645 45.768 172.94C46.0631 173.235 46.4391 173.436 46.8484 173.517C47.2577 173.599 47.6819 173.557 48.0675 173.397C48.453 173.238 48.7825 172.967 49.0144 172.62C49.2462 172.273 49.37 171.865 49.37 171.448C49.37 170.888 49.1477 170.352 48.752 169.956C48.3563 169.56 47.8196 169.338 47.26 169.338Z" fill="white"/>
<path d="M57.078 144.68C56.6611 144.68 56.2536 144.804 55.9068 145.035C55.56 145.267 55.2896 145.595 55.1296 145.98C54.9696 146.365 54.9272 146.789 55.0078 147.198C55.0884 147.607 55.2884 147.983 55.5825 148.279C55.8766 148.574 56.2516 148.776 56.6603 148.858C57.0689 148.941 57.4928 148.901 57.8785 148.742C58.2643 148.584 58.5945 148.315 58.8275 147.97C59.0606 147.624 59.186 147.217 59.188 146.8C59.1893 146.522 59.1357 146.247 59.0303 145.99C58.9248 145.733 58.7696 145.499 58.5735 145.302C58.3775 145.105 58.1444 144.948 57.8878 144.842C57.6311 144.735 57.3559 144.68 57.078 144.68Z" fill="white"/>
<path d="M78.332 166C77.9147 166 77.5067 166.124 77.1597 166.356C76.8127 166.587 76.5423 166.917 76.3826 167.303C76.2229 167.688 76.1811 168.112 76.2625 168.522C76.3439 168.931 76.5449 169.307 76.84 169.602C77.1351 169.897 77.511 170.098 77.9203 170.179C78.3296 170.261 78.7539 170.219 79.1395 170.059C79.525 169.9 79.8545 169.629 80.0864 169.282C80.3182 168.935 80.442 168.527 80.442 168.11C80.442 167.833 80.3874 167.559 80.2814 167.303C80.1753 167.047 80.0199 166.814 79.824 166.618C79.6281 166.422 79.3954 166.267 79.1395 166.161C78.8835 166.055 78.6091 166 78.332 166Z" fill="white"/>
<path d="M61.084 185.248C60.6668 185.249 60.2594 185.374 59.9132 185.607C59.5669 185.839 59.2974 186.169 59.1387 186.555C58.98 186.941 58.9392 187.365 59.0214 187.774C59.1037 188.183 59.3053 188.558 59.6008 188.853C59.8963 189.147 60.2725 189.347 60.6818 189.428C61.091 189.509 61.515 189.466 61.9002 189.306C62.2854 189.146 62.6144 188.875 62.8458 188.528C63.0771 188.181 63.2004 187.773 63.2 187.356C63.2 187.079 63.1452 186.804 63.0388 186.548C62.9323 186.291 62.7763 186.058 62.5797 185.863C62.3831 185.667 62.1498 185.512 61.8931 185.406C61.6365 185.301 61.3615 185.247 61.084 185.248Z" fill="white"/>
<path d="M109.4 169.338C108.983 169.338 108.575 169.462 108.228 169.693C107.881 169.925 107.61 170.255 107.451 170.64C107.291 171.026 107.249 171.45 107.331 171.86C107.412 172.269 107.613 172.645 107.908 172.94C108.203 173.235 108.579 173.436 108.988 173.517C109.398 173.599 109.822 173.557 110.207 173.397C110.593 173.238 110.923 172.967 111.154 172.62C111.386 172.273 111.51 171.865 111.51 171.448C111.51 170.888 111.288 170.352 110.892 169.956C110.496 169.56 109.96 169.338 109.4 169.338Z" fill="white"/>
<path d="M129.852 163.486C129.435 163.486 129.027 163.609 128.68 163.841C128.333 164.073 128.063 164.402 127.903 164.787C127.743 165.173 127.701 165.597 127.782 166.006C127.863 166.415 128.064 166.791 128.359 167.086C128.653 167.382 129.029 167.583 129.438 167.665C129.847 167.747 130.271 167.705 130.657 167.546C131.042 167.387 131.372 167.117 131.604 166.771C131.837 166.425 131.961 166.017 131.962 165.6C131.963 165.322 131.908 165.048 131.803 164.791C131.697 164.535 131.541 164.302 131.345 164.105C131.149 163.909 130.917 163.753 130.66 163.647C130.404 163.541 130.129 163.486 129.852 163.486Z" fill="white"/>
<path d="M155.6 168.102C155.183 168.102 154.775 168.226 154.428 168.458C154.081 168.689 153.81 169.019 153.651 169.405C153.491 169.79 153.449 170.214 153.531 170.624C153.612 171.033 153.813 171.409 154.108 171.704C154.403 171.999 154.779 172.2 155.188 172.282C155.598 172.363 156.022 172.321 156.407 172.161C156.793 172.002 157.123 171.731 157.354 171.384C157.586 171.037 157.71 170.629 157.71 170.212C157.71 169.935 157.655 169.661 157.549 169.405C157.443 169.149 157.288 168.916 157.092 168.72C156.896 168.524 156.663 168.369 156.407 168.263C156.151 168.157 155.877 168.102 155.6 168.102Z" fill="white"/>
<path d="M166.868 145.218C166.451 145.218 166.043 145.342 165.696 145.574C165.35 145.806 165.079 146.136 164.92 146.522C164.761 146.907 164.719 147.331 164.801 147.741C164.882 148.15 165.084 148.526 165.379 148.82C165.674 149.115 166.05 149.316 166.459 149.397C166.868 149.479 167.292 149.437 167.678 149.277C168.063 149.117 168.393 148.847 168.625 148.5C168.856 148.153 168.98 147.745 168.98 147.328C168.98 147.051 168.925 146.776 168.819 146.52C168.713 146.264 168.557 146.031 168.361 145.835C168.165 145.639 167.932 145.484 167.676 145.378C167.42 145.272 167.145 145.218 166.868 145.218Z" fill="white"/>
<path d="M88.736 189.466C88.3188 189.466 87.911 189.59 87.5643 189.822C87.2176 190.054 86.9474 190.384 86.788 190.77C86.6286 191.155 86.5871 191.58 86.6688 191.989C86.7504 192.398 86.9515 192.774 87.2467 193.069C87.5419 193.363 87.9178 193.564 88.3271 193.645C88.7363 193.727 89.1605 193.685 89.5459 193.525C89.9314 193.365 90.2608 193.095 90.4925 192.748C90.7243 192.401 90.848 191.993 90.848 191.576C90.848 191.299 90.7934 191.024 90.6872 190.768C90.581 190.512 90.4254 190.279 90.2293 190.083C90.0331 189.887 89.8003 189.732 89.5441 189.626C89.2878 189.52 89.0133 189.466 88.736 189.466Z" fill="white"/>
<path d="M92.956 143.896C92.5385 143.896 92.1305 144.021 91.7837 144.253C91.4368 144.485 91.1667 144.815 91.0075 145.201C90.8482 145.587 90.8071 146.012 90.8892 146.421C90.9713 146.83 91.1731 147.206 91.4688 147.501C91.7646 147.795 92.1411 147.996 92.5508 148.076C92.9604 148.157 93.3847 148.114 93.7701 147.953C94.1554 147.793 94.4844 147.521 94.7154 147.174C94.9465 146.826 95.0692 146.417 95.068 146C95.0675 145.723 95.0124 145.449 94.906 145.194C94.7996 144.938 94.6439 144.706 94.4477 144.511C94.2516 144.315 94.0189 144.16 93.763 144.055C93.507 143.949 93.2328 143.895 92.956 143.896Z" fill="white"/>
</svg>
