<svg width="400" height="401" viewBox="0 0 400 401" fill="none" xmlns="http://www.w3.org/2000/svg">
<path d="M107.42 132.182C107.92 136.182 109.42 139.982 113.18 141.362C111.19 148.381 107.847 154.944 103.34 160.682C99.8 158.382 95.72 156.342 92.46 154.242C92.56 150.782 94.16 147.082 96.86 142.082C96.3105 140.141 96.2049 138.101 96.5511 136.114C96.8973 134.126 97.6865 132.242 98.86 130.602C98.1328 131.816 97.2447 132.926 96.22 133.902C92.76 137.162 90.22 134.982 91.16 132.882C95.64 122.302 95.32 121.662 101.34 124.602C106.84 127.262 106.84 127.262 107.42 132.182Z" fill="#FFE7EA"/>
<path d="M137.08 149.882C136.974 149.879 136.87 149.851 136.777 149.8C136.684 149.749 136.604 149.676 136.546 149.588C136.487 149.5 136.45 149.398 136.439 149.293C136.427 149.187 136.441 149.081 136.48 148.982C195.7 0.681625 191.64 9.92163 192.42 10.0416C193.2 10.1616 192.24 2.92163 203.7 123.262C203.691 123.42 203.626 123.569 203.516 123.683C203.406 123.797 203.259 123.867 203.102 123.882C202.944 123.896 202.787 123.854 202.658 123.762C202.529 123.67 202.438 123.535 202.4 123.382L192 13.4416C133.72 159.382 137.74 149.882 137.08 149.882Z" fill="#1890ff"/>
<path d="M288.76 305.542C288.262 306.911 287.43 308.135 286.34 309.102H273.78C282.04 298.742 279.54 279.562 274.54 273.942C274.54 273.942 282.84 274.282 286.34 274.482C291.1 282.162 291.74 297.742 288.76 305.542Z" fill="#FFE7EA"/>
<path d="M274.54 273.902C279.54 279.522 282.04 298.702 273.78 309.062C229.22 308.782 225.6 307.782 217.3 303.942C209.9 300.502 203.04 279.782 197.2 261.942C201.7 256.602 214.64 244.122 219.3 239.822C222.58 238.242 229.98 234.422 232.4 232.802C234.02 241.462 238.14 260.482 240.8 272.662C244.8 273.022 260.6 273.422 274.52 273.982L274.54 273.902Z" fill="#FFE7EA"/>
<path d="M200.28 311.622C196.94 320.402 185.16 325.622 175.8 327.002C172.473 327.506 169.08 327.377 165.8 326.622L158.96 315.402C171.58 318.182 189.1 312.562 194.6 300.142C196.48 303.902 198.38 307.762 200.28 311.622Z" fill="#FFE7EA"/>
<path d="M173.42 258.682C176.58 264.282 185.26 281.302 194.6 300.122C192.001 305.579 187.53 309.922 182 312.362C173.7 296.262 156.54 259.582 152.86 251.922C170.02 243.242 213.72 225.082 221.22 220.402C228.72 215.722 231.72 209.742 223.72 183.062C228.201 182.539 232.708 182.265 237.22 182.242C252 207.882 242.7 226.022 232.48 232.762C219.48 241.262 188 253.362 173.42 258.682Z" fill="#FFE7EA"/>
<path d="M183.64 206.102C183.46 204.102 183.12 200.822 182.7 197.062C195.144 189.442 209.116 184.661 223.62 183.062C231.62 209.742 228.62 215.742 221.12 220.402C213.62 225.062 170 243.242 152.78 251.922C156.46 259.582 173.62 296.262 181.92 312.362C174.772 315.748 166.739 316.798 158.96 315.362C127.58 263.362 123.88 253.942 125.46 244.422C127.24 233.822 136.34 227.522 183.64 206.102Z" fill="#FFE7EA"/>
<path d="M94.76 124.682C93.7189 126.555 92.797 128.492 92 130.482C90.2363 129.651 88.5381 128.689 86.92 127.602C86.2532 127.101 85.8068 126.36 85.6748 125.537C85.5429 124.713 85.7356 123.87 86.2126 123.186C86.6895 122.502 87.4134 122.029 88.2317 121.868C89.0501 121.707 89.8991 121.869 90.6 122.322L94.76 124.682Z" fill="#FFE7EA"/>
<path d="M96.18 133.862C97.28 136.162 95.46 139.722 92.18 138.042C89.3789 136.777 86.6483 135.361 84 133.802C83.3481 133.289 82.9133 132.549 82.782 131.73C82.6507 130.911 82.8326 130.073 83.2915 129.382C83.7505 128.691 84.4527 128.198 85.2585 128.002C86.0643 127.805 86.9145 127.92 87.64 128.322C89.16 129.162 90.54 129.782 92.1 130.622C92.1 130.622 91.5 132.022 91.18 132.822C90.28 134.922 92.76 137.102 96.22 133.842L96.18 133.862Z" fill="#FFE7EA"/>
<path d="M81.48 140.182C80.7507 139.72 80.2345 138.988 80.0451 138.146C79.8557 137.304 80.0085 136.421 80.47 135.692C80.9315 134.962 81.6638 134.446 82.5058 134.257C83.3479 134.067 84.2307 134.22 84.96 134.682C87.9 136.182 89.68 137.082 92.56 138.682C96.56 140.962 93.94 146.122 89.64 144.082C86.8465 142.941 84.1219 141.639 81.48 140.182Z" fill="#FFE7EA"/>
<path d="M79.74 146.682C79.0932 146.223 78.6439 145.536 78.4824 144.76C78.321 143.984 78.4592 143.175 78.8695 142.496C79.2797 141.817 79.9315 141.319 80.694 141.101C81.4565 140.883 82.2732 140.962 82.98 141.322C85.72 142.622 87.58 143.482 90.4 145.002C94.4 147.122 91.9 152.142 87.68 150.282C84.9739 149.217 82.3238 148.016 79.74 146.682Z" fill="#FFE7EA"/>
<path d="M284.22 17.2416C284.35 19.086 284.35 20.9373 284.22 22.7816C282.112 22.6019 279.994 22.5619 277.88 22.6616C277.88 21.0016 277.88 19.7616 277.88 18.1616C277.74 13.8216 284 13.6416 284.22 17.2416Z" fill="#FFE7EA"/>
<path d="M291.12 16.8816C291.26 19.2216 290.96 21.3216 290.72 26.0816C290.737 26.7459 290.539 27.3979 290.155 27.9403C289.771 28.4828 289.222 28.8865 288.59 29.0912C287.958 29.2959 287.276 29.2907 286.647 29.0763C286.018 28.8619 285.476 28.4498 285.1 27.9016C289.62 26.1816 288.98 23.0216 286.72 22.9016L284.38 22.7816C284.38 21.0016 284.56 19.4816 284.6 17.7816C284.7 13.1416 290.88 13.0616 291.12 16.8816Z" fill="#FFE7EA"/>
<path d="M297.82 17.1016C297.82 19.5416 297.56 21.3416 297.2 26.1416C296.84 30.9416 291.06 31.0216 291.08 26.4216C291.08 24.4216 291.22 21.5816 291.38 17.8616C291.58 13.3216 297.7 13.3216 297.82 17.1016Z" fill="#FFE7EA"/>
<path d="M304.58 18.5017C304.477 21.4293 304.196 24.348 303.74 27.2417C303.24 31.8617 297.74 31.8617 297.74 27.3817C297.84 24.3617 298.04 22.1617 298.26 19.1017C298.68 14.6817 304.58 14.8617 304.58 18.5017Z" fill="#FFE7EA"/>
<path d="M285.08 27.8816C285.459 28.4235 286.002 28.8299 286.628 29.0415C287.255 29.2532 287.933 29.2588 288.563 29.0578C289.193 28.8567 289.742 28.4594 290.13 27.9239C290.518 27.3885 290.725 26.7429 290.72 26.0816C290.86 23.3216 291.04 21.3216 291.12 19.6416C291.52 19.6416 291.12 19.1216 291.12 26.4216C291.12 31.0416 296.86 30.9016 297.24 26.1416C297.44 23.4216 297.66 21.4616 297.8 19.8216H298.32C298.14 22.1416 297.96 24.3416 297.86 27.3216C297.7 31.7816 303.26 31.7816 303.86 27.1816C304.24 23.5616 304.62 21.3416 304.7 19.3816C305.32 19.3816 304.7 33.6216 304.7 45.9016C297.643 47.4793 290.343 47.6492 283.22 46.4016C284 42.0016 280.88 38.9816 277.12 36.5416C274.18 34.6616 274.24 34.0816 274.6 28.4016C275.04 21.7216 275.36 22.3016 286.74 22.8416C288.96 23.0016 289.6 26.1816 285.08 27.8816Z" fill="#FFE7EA"/>
<path d="M227.28 109.642C220.38 127.862 204.1 132.362 198 126.082C202.876 122.256 206.184 116.778 207.3 110.682C209.938 108.834 211.986 106.264 213.2 103.282C211.468 104.178 209.661 104.921 207.8 105.502C199.48 108.082 196.9 102.802 199.62 84.4617C204.538 83.029 209.638 82.3149 214.76 82.3417C213.7 86.3417 214.14 91.8817 215.9 88.1417C217.66 84.4017 221.9 87.2417 218.92 92.1417C218.408 93.136 218.198 94.2581 218.315 95.3702C218.433 96.4823 218.872 97.5359 219.58 98.4017C219.334 100.882 219.971 103.37 221.38 105.426C222.789 107.482 224.878 108.975 227.28 109.642Z" fill="#FFE7EA"/>
<path d="M282.18 274.002L333.68 144.842L243.68 160.842C243.524 160.845 243.371 160.793 243.25 160.694C243.128 160.596 243.046 160.457 243.017 160.303C242.988 160.15 243.015 159.991 243.092 159.855C243.17 159.719 243.293 159.615 243.44 159.562C341.3 142.322 334.96 143.242 335.32 143.682C335.68 144.122 339.08 134.882 283.48 274.582C283.442 274.667 283.387 274.744 283.32 274.808C283.252 274.873 283.172 274.923 283.085 274.956C282.997 274.99 282.904 275.006 282.811 275.003C282.717 275.001 282.625 274.98 282.54 274.942C282.455 274.904 282.378 274.849 282.313 274.781C282.249 274.713 282.199 274.634 282.165 274.546C282.132 274.459 282.116 274.366 282.118 274.272C282.121 274.179 282.142 274.087 282.18 274.002Z" fill="#1890ff"/>
<path d="M236.34 391.342C236.178 391.337 236.024 391.274 235.906 391.163C235.788 391.053 235.715 390.903 235.7 390.742L227.7 307.462C227.705 307.302 227.767 307.15 227.875 307.033C227.984 306.916 228.131 306.843 228.289 306.825C228.447 306.808 228.607 306.849 228.737 306.94C228.868 307.032 228.961 307.167 229 307.322L236.68 387.922L268.24 308.782C268.316 308.639 268.442 308.529 268.594 308.474C268.746 308.418 268.913 308.42 269.064 308.479C269.214 308.538 269.338 308.651 269.411 308.795C269.484 308.939 269.501 309.105 269.46 309.262C234.62 396.682 237 391.342 236.34 391.342Z" fill="#1890ff"/>
<path d="M94 258.022C93.8938 258.018 93.7899 257.99 93.6967 257.939C93.6035 257.888 93.5236 257.815 93.4633 257.728C93.403 257.64 93.3641 257.54 93.3496 257.435C93.3352 257.329 93.3456 257.222 93.38 257.122L124.92 177.942C124.996 177.799 125.122 177.689 125.274 177.634C125.426 177.578 125.593 177.58 125.744 177.639C125.894 177.698 126.018 177.811 126.091 177.955C126.164 178.099 126.181 178.265 126.14 178.422L95 256.522L125.42 251.142C125.592 251.11 125.77 251.148 125.915 251.247C126.059 251.347 126.158 251.499 126.19 251.672C126.222 251.844 126.184 252.022 126.084 252.166C125.985 252.311 125.832 252.41 125.66 252.442C93.88 258.022 94.16 258.022 94 258.022Z" fill="#1890ff"/>
<path d="M171.44 100.682C171.44 100.302 172.88 101.242 151.98 89.9417C153.38 87.5817 154.82 85.0617 156.26 82.4217C156.302 82.3471 156.328 82.2649 156.338 82.1799C156.348 82.0949 156.34 82.0088 156.316 81.9267C156.292 81.8447 156.251 81.7684 156.197 81.7022C156.143 81.6361 156.076 81.5815 156 81.5417C112.86 58.2617 151.68 79.2417 108.5 55.8417C108.425 55.7997 108.343 55.7732 108.258 55.7636C108.173 55.754 108.087 55.7616 108.005 55.7858C107.923 55.81 107.847 55.8505 107.781 55.9047C107.714 55.959 107.66 56.0259 107.62 56.1017C106.18 58.7417 104.86 61.3217 103.62 63.7817L84.46 53.4017C84.3854 53.3597 84.3032 53.3332 84.2182 53.3236C84.1332 53.314 84.0471 53.3216 83.9651 53.3458C83.8831 53.37 83.8067 53.4105 83.7406 53.4647C83.6744 53.519 83.6198 53.5859 83.58 53.6617C68.38 81.7817 81.06 104.682 91.1 110.462C91.1 115.262 91.6 119.302 91.86 123.022L94.74 124.662C96.24 122.222 97.52 122.662 101.24 124.522C107.58 127.642 106.74 127.442 107.5 132.842C107.7 132.842 116.4 128.062 119.72 125.942C123.26 127.569 127.125 128.363 131.02 128.262C143.36 128.262 160.26 121.702 171.38 101.142C171.422 101.074 171.45 100.998 171.46 100.918C171.47 100.839 171.463 100.758 171.44 100.682ZM91.1 108.922C81.64 102.802 70.44 81.3217 84.46 54.9217L103.08 64.9217C92.74 86.4217 91.2 100.222 91.1 108.922ZM115.8 98.9217L104.1 100.242L112.5 91.9017L107.62 81.1617L118.1 86.6817L126.8 78.6817L124.92 90.3217L135.16 96.1417L123.5 97.9417L121.08 109.522L115.8 98.9217ZM121 125.082C128.26 120.242 139 111.382 151.3 91.0817L169.92 101.082C155.4 127.322 131.3 129.702 121 125.102V125.082Z" fill="#1890ff"/>
<path d="M86.56 288.782C86.2467 286.735 85.4092 284.804 84.129 283.177C82.8487 281.55 81.1692 280.282 79.2538 279.496C77.3383 278.71 75.2521 278.433 73.1979 278.691C71.1437 278.95 69.1914 279.736 67.5308 280.973C65.8702 282.21 64.5579 283.855 63.7213 285.749C62.8847 287.643 62.5524 289.721 62.7567 291.781C62.9609 293.841 63.6948 295.814 64.887 297.507C66.0791 299.2 67.6889 300.555 69.56 301.442C67.2977 306.087 66.6613 311.358 67.7529 316.409C68.8445 321.46 71.6008 325.997 75.5797 329.294C79.5586 332.591 84.5295 334.456 89.695 334.59C94.8606 334.724 99.9214 333.119 104.066 330.032C108.21 326.946 111.198 322.557 112.549 317.57C113.901 312.583 113.539 307.286 111.52 302.529C109.501 297.772 105.944 293.832 101.418 291.339C96.8914 288.846 91.6591 287.945 86.56 288.782ZM90.28 333.282C86.5877 333.271 82.9586 332.323 79.7336 330.525C76.5087 328.727 73.7938 326.138 71.8441 323.003C69.8943 319.867 68.7737 316.287 68.5876 312.6C68.4015 308.912 69.1559 305.238 70.78 301.922C72.6253 302.525 74.5885 302.675 76.5043 302.361C78.4201 302.047 80.2324 301.278 81.7888 300.118C83.3451 298.957 84.6 297.44 85.4477 295.693C86.2954 293.947 86.7112 292.022 86.66 290.082C89.6345 289.566 92.6838 289.675 95.6139 290.401C98.544 291.128 101.291 292.456 103.68 294.302C106.069 296.148 108.048 298.47 109.491 301.122C110.933 303.774 111.809 306.696 112.061 309.705C112.313 312.713 111.936 315.741 110.955 318.596C109.973 321.451 108.409 324.07 106.36 326.288C104.312 328.505 101.824 330.272 99.0558 331.476C96.2874 332.68 93.2988 333.295 90.28 333.282Z" fill="#1890ff"/>
<path d="M69.62 106.262L62.14 107.582C60.448 107.878 58.7076 107.49 57.3012 106.504C55.8948 105.518 54.9376 104.013 54.64 102.322L53.32 94.8616C53.2837 94.696 53.1851 94.5506 53.0446 94.4558C52.904 94.3609 52.7323 94.3237 52.5652 94.352C52.398 94.3803 52.2481 94.4719 52.1466 94.6077C52.0451 94.7435 51.9998 94.9132 52.02 95.0816L53.34 102.542C53.4889 103.387 53.4684 104.253 53.2799 105.09C53.0914 105.927 52.7385 106.718 52.2417 107.418C51.7449 108.117 51.1142 108.711 50.386 109.165C49.6579 109.619 48.8469 109.924 48 110.062L40.54 111.382C40.3792 111.42 40.2389 111.518 40.1468 111.656C40.0547 111.793 40.0176 111.96 40.0427 112.123C40.0679 112.287 40.1535 112.435 40.2826 112.538C40.4117 112.642 40.575 112.693 40.74 112.682L48.24 111.362C49.0885 111.198 49.9612 111.207 50.8061 111.388C51.6511 111.569 52.451 111.918 53.1583 112.414C53.8656 112.91 54.4657 113.544 54.923 114.277C55.3803 115.01 55.6853 115.828 55.82 116.682L57.14 124.162C57.1692 124.331 57.2646 124.483 57.4052 124.582C57.5459 124.681 57.7203 124.721 57.89 124.692C58.0597 124.662 58.2109 124.567 58.3103 124.426C58.4097 124.286 58.4492 124.111 58.42 123.942L57.12 116.462C56.8236 114.77 57.2112 113.029 58.1975 111.623C59.1839 110.216 60.6882 109.259 62.38 108.962L69.84 107.642C70.023 107.612 70.1869 107.512 70.2957 107.362C70.4045 107.212 70.4492 107.025 70.42 106.842C70.3908 106.659 70.2902 106.495 70.1401 106.386C69.9901 106.277 69.803 106.232 69.62 106.262ZM56 113.422C54.9157 111.793 53.2601 110.629 51.36 110.162C52.9768 109.065 54.1364 107.414 54.62 105.522C55.7167 107.138 57.3672 108.298 59.26 108.782C57.6311 109.866 56.4679 111.522 56 113.422Z" fill="#1890ff"/>
<path d="M359.14 224.202C348.56 226.202 348.44 226.082 348.08 226.202C345.62 226.545 343.123 225.919 341.116 224.456C339.108 222.993 337.747 220.808 337.32 218.362L335.44 207.642C335.408 207.469 335.309 207.316 335.165 207.217C335.02 207.118 334.842 207.08 334.67 207.112C334.498 207.143 334.345 207.242 334.246 207.387C334.146 207.531 334.108 207.709 334.14 207.882L336.02 218.602C336.244 219.84 336.221 221.111 335.952 222.341C335.683 223.571 335.173 224.736 334.451 225.768C333.73 226.799 332.812 227.678 331.749 228.353C330.686 229.029 329.501 229.487 328.26 229.702L317.54 231.582C317.368 231.613 317.215 231.712 317.116 231.857C317.016 232.001 316.978 232.179 317.01 232.352C317.042 232.524 317.141 232.677 317.285 232.776C317.43 232.875 317.608 232.913 317.78 232.882L328.5 231.002C330.946 230.563 333.467 231.095 335.528 232.484C337.589 233.873 339.028 236.01 339.54 238.442C339.54 238.722 340.02 241.262 341.54 249.482C341.576 249.647 341.675 249.793 341.815 249.887C341.956 249.982 342.128 250.019 342.295 249.991C342.462 249.963 342.612 249.871 342.713 249.735C342.815 249.6 342.86 249.43 342.84 249.262C341.38 240.962 340.94 238.482 340.84 238.182C340.517 235.81 341.087 233.404 342.44 231.43C343.793 229.456 345.832 228.056 348.16 227.502C348.64 227.502 348 227.502 359.4 225.502C359.572 225.467 359.724 225.366 359.822 225.219C359.919 225.073 359.954 224.894 359.92 224.722C359.886 224.549 359.784 224.398 359.638 224.3C359.491 224.203 359.312 224.167 359.14 224.202ZM339.58 234.922C338.783 233.552 337.698 232.372 336.399 231.463C335.101 230.555 333.62 229.94 332.06 229.662C333.431 228.862 334.612 227.773 335.52 226.471C336.429 225.169 337.043 223.685 337.32 222.122C338.12 223.493 339.209 224.674 340.511 225.582C341.813 226.49 343.297 227.104 344.86 227.382C343.488 228.183 342.306 229.272 341.395 230.574C340.484 231.875 339.865 233.358 339.58 234.922Z" fill="#1890ff"/>
<path d="M334.78 89.5816C333.282 89.5777 331.818 89.1297 330.574 88.2944C329.33 87.4591 328.362 86.2739 327.791 84.8885C327.221 83.5031 327.073 81.9797 327.368 80.5106C327.663 79.0415 328.386 77.6928 329.447 76.6347C330.508 75.5766 331.859 74.8567 333.329 74.5658C334.798 74.275 336.321 74.4262 337.705 75.0005C339.089 75.5748 340.272 76.5464 341.104 77.7925C341.936 79.0386 342.38 80.5033 342.38 82.0016C342.38 82.9987 342.183 83.986 341.801 84.907C341.419 85.8279 340.859 86.6644 340.153 87.3686C339.447 88.0727 338.609 88.6306 337.687 89.0104C336.765 89.3901 335.777 89.5842 334.78 89.5816ZM334.78 75.7216C333.538 75.7216 332.324 76.0899 331.291 76.78C330.258 77.47 329.453 78.4508 328.978 79.5984C328.503 80.7459 328.378 82.0086 328.621 83.2268C328.863 84.445 329.461 85.564 330.339 86.4422C331.218 87.3205 332.337 87.9186 333.555 88.1609C334.773 88.4033 336.036 88.2789 337.183 87.8036C338.331 87.3283 339.312 86.5233 340.002 85.4906C340.692 84.4579 341.06 83.2437 341.06 82.0016C341.06 80.3361 340.398 78.7387 339.221 77.561C338.043 76.3833 336.446 75.7216 334.78 75.7216Z" fill="#1890ff"/>
<path d="M66.2 204.682C65.3658 204.681 64.5509 204.43 63.8601 203.963C63.1694 203.495 62.6344 202.831 62.324 202.057C62.0136 201.283 61.942 200.433 62.1184 199.618C62.2948 198.802 62.7112 198.058 63.3139 197.482C63.9166 196.905 64.6782 196.522 65.5005 196.381C66.3228 196.241 67.1684 196.35 67.9283 196.694C68.6882 197.038 69.3278 197.602 69.7647 198.312C70.2016 199.023 70.4159 199.848 70.38 200.682C70.3385 201.76 69.8792 202.781 69.0992 203.527C68.3192 204.274 67.2796 204.688 66.2 204.682ZM66.2 197.662C65.6422 197.666 65.098 197.834 64.6344 198.144C64.1708 198.454 63.8079 198.893 63.5906 199.407C63.3732 199.921 63.3108 200.487 63.4111 201.036C63.5113 201.584 63.7698 202.092 64.1548 202.495C64.5397 202.899 65.0343 203.181 65.5776 203.307C66.121 203.434 66.6894 203.398 67.2128 203.205C67.7362 203.013 68.1919 202.671 68.5236 202.223C68.8554 201.774 69.0488 201.239 69.08 200.682C69.0935 200.296 69.0288 199.912 68.8899 199.552C68.751 199.192 68.5407 198.864 68.2716 198.587C68.0025 198.311 67.6803 198.091 67.3243 197.943C66.9683 197.794 66.5858 197.719 66.2 197.722V197.662Z" fill="#1890ff"/>
<path d="M250 56.6816L253.26 43.5216L243.56 45.2416C243.454 45.2574 243.345 45.2469 243.244 45.2112C243.143 45.1756 243.052 45.1157 242.979 45.0369C242.906 44.9581 242.853 44.8627 242.826 44.759C242.798 44.6552 242.796 44.5463 242.82 44.4416L246.32 30.3016C246.367 30.1365 246.476 29.9961 246.624 29.91C246.773 29.824 246.949 29.7991 247.115 29.8408C247.282 29.8824 247.425 29.9872 247.516 30.1329C247.606 30.2787 247.637 30.454 247.6 30.6216L244.32 43.7816C254.78 41.9216 254.32 41.9016 254.62 42.2616C254.92 42.6216 255.06 41.6216 251.26 56.9816C251.24 57.0644 251.205 57.1424 251.155 57.2113C251.105 57.2802 251.042 57.3386 250.969 57.3832C250.897 57.4278 250.816 57.4576 250.733 57.4711C250.649 57.4846 250.563 57.4813 250.48 57.4616C250.397 57.4419 250.319 57.4061 250.25 57.3563C250.181 57.3064 250.123 57.2435 250.078 57.1711C250.034 57.0986 250.004 57.0181 249.991 56.9342C249.977 56.8502 249.98 56.7644 250 56.6816Z" fill="#1890ff"/>
<path d="M97.22 142.802C96.4575 140.789 96.2027 138.619 96.4783 136.484C96.7539 134.349 97.5513 132.315 98.8 130.562C98.0812 131.776 97.1997 132.886 96.18 133.862C97.3 136.162 95.46 139.722 92.18 138.042C90 136.942 86 135.022 86 135.022C85.78 135.422 85.5 134.742 92.6 138.742C96.6 141.022 93.98 146.182 89.68 144.142C87.28 142.982 85.46 142.142 83.98 141.502C83.82 141.862 83.5 141.202 90.48 144.882C94.48 146.882 92 152.022 87.72 150.182C86.16 149.482 84.84 148.922 83.72 148.462C83.7733 148.329 83.7819 148.182 83.7447 148.044C83.7074 147.906 83.6262 147.784 83.5134 147.696C83.4005 147.608 83.2621 147.559 83.119 147.556C82.9759 147.554 82.8359 147.598 82.72 147.682C79.48 150.302 75.54 150.842 68.14 149.682L99.46 166.682C91.32 157.662 91.56 153.342 97.22 142.802Z" fill="#1890ff"/>
<path d="M66.84 150.522L60 159.562C59.9427 159.638 59.9026 159.726 59.8826 159.819C59.8625 159.913 59.863 160.009 59.8839 160.102C59.9048 160.196 59.9457 160.283 60.0037 160.359C60.0617 160.435 60.1355 160.497 60.22 160.542L94.76 179.242C94.8425 179.288 94.9341 179.315 95.0283 179.321C95.1225 179.328 95.217 179.313 95.3049 179.279C95.3929 179.244 95.4721 179.191 95.5369 179.122C95.6018 179.054 95.6507 178.971 95.68 178.882L99.5 168.162L66.84 150.522Z" fill="#1890ff"/>
<path d="M295.24 277.222C295.195 277.177 295.142 277.142 295.084 277.118C295.026 277.094 294.963 277.081 294.9 277.082C292.739 276.861 290.561 276.861 288.4 277.082C287.977 276.064 287.475 275.081 286.9 274.142C286.844 274.053 286.768 273.979 286.677 273.927C286.587 273.875 286.485 273.845 286.38 273.842C278.82 273.422 244.38 272.282 241.34 272.042C241.34 272.042 234.64 241.162 233.12 233.122C243.36 226.162 252.4 207.682 237.86 182.202C241.64 168.842 246.66 151.282 249.3 142.502C295.3 116.902 303.18 112.102 306.88 105.202C309.78 99.7816 309.2 97.0816 309.2 43.5216C309.54 41.6216 307.2 40.4816 305.2 40.1016C305.2 35.6416 305.72 20.4216 305.2 19.2216V18.5016C305.2 14.8616 300.4 13.9816 298.42 16.7816C298 13.3216 293.32 12.6816 291.44 15.4816C291.074 14.8585 290.547 14.346 289.913 13.9986C289.28 13.6512 288.564 13.4818 287.842 13.5085C287.12 13.5351 286.419 13.7568 285.813 14.15C285.207 14.5432 284.719 15.0932 284.4 15.7416C283.9 15.0499 283.191 14.5364 282.378 14.2761C281.565 14.0159 280.69 14.0226 279.881 14.2952C279.072 14.5678 278.372 15.0921 277.882 15.7914C277.393 16.4906 277.14 17.3282 277.16 18.1816C277.16 19.5416 277.16 20.7016 277.16 22.1816C274.62 22.6616 274.14 24.1816 273.84 28.5616C273.48 34.2616 273.42 35.1416 276.66 37.2216C278.399 38.2668 279.931 39.6226 281.18 41.2216C280.16 41.5216 278.44 42.2616 278.42 43.8416C278.26 53.1216 278.42 77.1016 277.78 88.6816C273.88 91.0416 251.18 102.382 241.32 106.962C237.407 109.013 232.971 109.848 228.58 109.362C219.1 107.722 220.22 98.4616 220.16 98.2616C220.7 90.5216 226.74 80.4416 228.62 76.2616C231.24 70.4616 227.52 68.2616 224.22 70.4616C223.997 69.9789 223.657 69.5594 223.231 69.241C222.806 68.9226 222.307 68.7153 221.781 68.6379C221.255 68.5604 220.718 68.6153 220.218 68.7976C219.719 68.9798 219.273 69.2836 218.92 69.6816C218.522 69.2472 218.032 68.9063 217.487 68.6831C216.941 68.46 216.353 68.3601 215.765 68.3907C215.176 68.4213 214.602 68.5815 214.082 68.86C213.563 69.1385 213.111 69.5283 212.76 70.0016C211.3 68.1816 207.92 68.9816 206.26 70.9616C204.78 69.5216 201.34 71.0816 200.66 74.5416C199.18 82.2616 195.28 101.562 200.84 105.802C201.758 106.386 202.797 106.753 203.879 106.874C204.96 106.996 206.055 106.868 207.08 106.502C206.82 111.882 204.64 121.142 197.68 125.722C185.06 133.822 154.26 147.782 144.26 151.882C139.02 149.262 132.26 146.742 113.02 135.882C112.384 135.596 111.67 135.538 110.996 135.716C110.323 135.895 109.731 136.299 109.32 136.862C108.53 134.95 108.05 132.925 107.9 130.862C107.5 126.862 106.72 126.522 101.54 123.982C98.64 122.562 96.4 121.322 94.54 123.822L91 121.822C90.2419 121.431 89.3788 121.293 88.5368 121.428C87.6948 121.563 86.9178 121.963 86.3193 122.57C85.7208 123.178 85.3321 123.961 85.2099 124.804C85.0877 125.648 85.2384 126.509 85.64 127.262C84.9107 127.303 84.2068 127.544 83.6046 127.958C83.0024 128.371 82.5249 128.942 82.2241 129.607C81.9232 130.273 81.8103 131.008 81.8977 131.734C81.9852 132.459 82.2695 133.146 82.72 133.722C82.0166 133.855 81.3618 134.174 80.824 134.647C80.2861 135.119 79.8849 135.727 79.6622 136.407C79.4395 137.088 79.4035 137.815 79.5579 138.515C79.7123 139.214 80.0515 139.858 80.54 140.382C79.8223 140.564 79.1734 140.952 78.6731 141.497C78.1728 142.043 77.8429 142.723 77.7239 143.454C77.6049 144.185 77.7021 144.935 78.0034 145.611C78.3047 146.288 78.7971 146.861 79.42 147.262C81.42 148.382 83.42 149.102 87.42 150.862C92 152.682 94.74 148.002 92 145.242C92.6776 145.169 93.3204 144.904 93.8528 144.479C94.3853 144.054 94.7853 143.485 95.0058 142.841C95.2264 142.196 95.2583 141.501 95.0978 140.839C94.9374 140.177 94.5912 139.574 94.1 139.102C94.641 139.038 95.1571 138.839 95.6 138.522C95.5963 141.384 96.6751 144.142 98.62 146.242C98.7428 146.353 98.9031 146.415 99.0692 146.414C99.2352 146.412 99.3947 146.349 99.5159 146.235C99.637 146.122 99.7109 145.967 99.7228 145.801C99.7347 145.635 99.6837 145.471 99.58 145.342C96.46 141.962 95.7 136.662 99.28 130.862C99.3427 130.717 99.3518 130.556 99.3058 130.405C99.2598 130.255 99.1617 130.126 99.0291 130.042C98.8964 129.957 98.7381 129.923 98.5824 129.945C98.4268 129.967 98.2841 130.044 98.18 130.162L98.08 130.322C94.08 136.642 90.78 135.102 91.64 133.062C94.5 126.322 95.34 124.182 96.52 123.742C97.34 123.442 98.52 123.962 101.04 125.162C106.06 127.642 106.26 127.722 106.58 130.942C107.06 135.582 108.24 139.802 112.42 141.742C110.434 148.239 107.313 154.333 103.2 159.742C99.74 157.542 96.08 155.742 93.2 153.742C93.1604 154.254 93.1604 154.769 93.2 155.282C94.68 156.182 96.32 157.102 98 158.062C97.44 160.322 97.56 162.802 99.14 163.382C133.86 184.502 140.76 187.802 150.32 185.162C160.265 182.208 169.961 178.477 179.32 174.002C179.32 174.222 182.46 200.502 182.96 205.702C134.96 227.502 126.62 233.562 124.84 244.322C123.06 255.082 128.24 266.322 165.24 326.962C165.281 327.032 165.336 327.092 165.401 327.141C165.467 327.189 165.541 327.223 165.62 327.242C168.627 327.948 171.734 328.117 174.8 327.742C170.52 339.082 166.8 358.342 167.72 368.502C167.731 368.613 167.77 368.719 167.833 368.812C167.896 368.904 167.982 368.978 168.082 369.028C168.182 369.078 168.293 369.102 168.404 369.097C168.516 369.093 168.625 369.06 168.72 369.002C183.34 359.962 201.66 335.962 206.42 322.662C206.461 322.551 206.471 322.431 206.45 322.315C206.429 322.199 206.377 322.091 206.3 322.002C204.21 319.415 201.902 317.013 199.4 314.822C200.006 313.885 200.509 312.886 200.9 311.842C200.935 311.759 200.953 311.671 200.953 311.582C200.953 311.492 200.935 311.404 200.9 311.322C195.34 300.022 180.26 269.702 174.38 259.002C180.38 256.782 186.84 254.382 193.22 251.862C199.52 270.342 207.78 300.222 217.06 304.542C226.34 308.862 230.94 309.682 286.36 309.762C287.14 309.762 288.46 307.762 288.94 306.802C294.94 313.822 309.72 323.022 319.36 324.342C319.454 324.357 319.55 324.35 319.641 324.324C319.732 324.297 319.816 324.25 319.887 324.187C319.957 324.124 320.013 324.046 320.05 323.958C320.087 323.871 320.104 323.776 320.1 323.682C319.84 304.682 302.46 283.062 295.24 277.222ZM88 149.562C85.2728 148.524 82.6024 147.342 80 146.022C79.4431 145.672 79.048 145.115 78.9017 144.473C78.7554 143.832 78.8699 143.159 79.22 142.602C79.5701 142.045 80.1271 141.65 80.7685 141.503C81.4098 141.357 82.0831 141.472 82.64 141.822C85.44 143.142 87.38 144.042 90.06 145.462C93.36 147.142 91.46 151.082 88 149.562ZM90 143.562C86 141.562 83.82 140.842 81.9 139.562C81.3271 139.185 80.9273 138.596 80.7886 137.925C80.6498 137.253 80.7834 136.554 81.16 135.982C81.5366 135.409 82.1254 135.009 82.7967 134.87C83.4681 134.731 84.1671 134.865 84.74 135.242C87.58 136.682 89.54 137.682 92.34 139.242C95.56 141.162 93.48 145.242 90 143.542V143.562ZM95.88 135.002C96.1 136.822 94.7 138.602 92.48 137.462C89.12 135.762 86.26 134.522 84.34 133.282C84.0537 133.086 83.8088 132.836 83.6192 132.545C83.4296 132.255 83.299 131.93 83.2349 131.589C83.1708 131.249 83.1745 130.899 83.2457 130.559C83.317 130.22 83.4543 129.898 83.65 129.612C83.8457 129.325 84.0958 129.08 84.3861 128.891C84.6765 128.701 85.0013 128.571 85.3421 128.507C85.6829 128.442 86.033 128.446 86.3723 128.517C86.7117 128.589 87.0337 128.726 87.32 128.922C88.66 129.642 89.86 130.222 91.32 130.922L90.62 132.562C89.36 135.182 92.24 137.702 95.8 134.982L95.88 135.002ZM91.88 129.582C90.3806 128.824 88.925 127.983 87.52 127.062C87.2455 126.866 87.0123 126.618 86.8336 126.332C86.6549 126.046 86.5343 125.728 86.4786 125.396C86.4229 125.063 86.4332 124.723 86.5089 124.395C86.5846 124.066 86.7243 123.756 86.92 123.482C87.1157 123.207 87.3635 122.974 87.6493 122.795C87.9351 122.617 88.2533 122.496 88.5857 122.44C88.9182 122.384 89.2583 122.395 89.5868 122.47C89.9152 122.546 90.2255 122.686 90.5 122.882L94.02 124.882C93.26 125.982 92.6 127.502 91.72 129.562L91.88 129.582ZM298.48 27.4016C298.48 24.3616 298.76 22.2016 299 19.1416C299.28 15.5416 303.92 15.7216 303.94 18.5016C303.94 20.3416 303.66 21.8816 303.08 27.1616C302.66 30.8816 298.34 31.0816 298.48 27.4016ZM292 17.8816C292.18 14.1416 297.04 14.2216 297.14 17.1216C297.14 19.3416 296.84 21.8016 296.5 26.0816C296.2 30.0816 291.68 30.1816 291.7 26.4216C291.74 23.3416 291.88 21.1416 292 17.8816ZM285.2 17.8816C285.2 14.0816 290.26 14.0616 290.44 17.0216C290.58 19.2616 290.26 21.7616 290.02 26.1416C290.037 26.5904 289.927 27.0348 289.702 27.4237C289.478 27.8125 289.148 28.1299 288.75 28.339C288.353 28.5482 287.904 28.6406 287.457 28.6057C287.009 28.5708 286.58 28.4099 286.22 28.1416C290.34 26.1416 289.54 22.4216 286.7 22.2816H285C285.1 20.6816 285.22 19.3216 285.24 17.7816L285.2 17.8816ZM283.52 17.3816C283.62 18.98 283.62 20.5831 283.52 22.1816C281.38 22.1816 279.72 22.0016 278.44 22.0616C278.44 20.6616 278.44 19.6216 278.44 18.2616C278.46 14.6816 283.3 14.5616 283.56 17.2816L283.52 17.3816ZM277.38 36.1416C274.78 34.4616 274.78 34.2616 275.16 28.5816C275.56 22.5816 275.56 23.1616 286.64 23.6416C288.64 23.7416 288.64 27.4016 280.82 28.2416C280.665 28.2802 280.53 28.3735 280.439 28.5042C280.348 28.6349 280.307 28.7941 280.324 28.9526C280.341 29.111 280.415 29.2579 280.532 29.3662C280.649 29.4744 280.801 29.5368 280.96 29.5416C281.16 29.5416 290.7 28.1016 293.28 36.0616C293.351 36.2011 293.47 36.3106 293.615 36.3706C293.76 36.4306 293.921 36.4371 294.07 36.389C294.219 36.3409 294.346 36.2413 294.429 36.108C294.511 35.9748 294.544 35.8165 294.52 35.6616C294.103 34.3682 293.432 33.1711 292.546 32.1408C291.659 31.1104 290.576 30.2675 289.36 29.6616C289.919 29.382 290.39 28.9528 290.72 28.4216C290.979 29.0578 291.418 29.6043 291.984 29.9939C292.55 30.3834 293.217 30.5989 293.904 30.6137C294.591 30.6286 295.267 30.4423 295.849 30.0776C296.431 29.713 296.894 29.186 297.18 28.5616C297.84 32.5616 303.04 32.5616 304.16 28.4216C304.16 34.1416 303.82 40.7616 303.94 45.6616C297.32 47.0072 290.514 47.163 283.84 46.1216C284.12 43.0216 283.3 39.8216 277.42 36.0416L277.38 36.1416ZM207.82 111.082C210.51 109.17 212.592 106.525 213.82 103.462C213.864 103.339 213.87 103.206 213.839 103.08C213.807 102.954 213.739 102.84 213.643 102.752C213.547 102.665 213.427 102.607 213.298 102.588C213.17 102.568 213.038 102.587 212.92 102.642C209.84 104.162 204.36 106.642 201.66 104.642C198.96 102.642 198.52 96.6416 200.2 84.9616C204.681 83.7347 209.295 83.063 213.94 82.9616C213.46 85.3216 213.12 89.4616 214.54 89.9816C215.58 90.3416 216.22 88.9416 216.54 88.4016C217.94 85.4216 220.9 87.8016 218.4 91.7016C217.84 92.7768 217.592 93.9871 217.684 95.1958C217.776 96.4045 218.204 97.5634 218.92 98.5416C218.667 101.048 219.287 103.566 220.675 105.668C222.064 107.771 224.135 109.33 226.54 110.082C225.416 114.175 223.235 117.9 220.216 120.884C217.197 123.868 213.446 126.005 209.34 127.082C205.2 128.122 201.34 127.762 199.16 126.202C203.806 122.397 206.889 117.014 207.82 111.082ZM178.28 152.522C178.253 152.369 178.173 152.23 178.054 152.131C177.935 152.031 177.785 151.976 177.63 151.976C177.475 151.976 177.325 152.031 177.206 152.131C177.087 152.23 177.007 152.369 176.98 152.522C177.16 154.522 177.42 157.182 177.74 160.182C174.18 164.422 163.42 176.182 153.24 182.862C142 186.362 140 186.682 101.22 163.222C103.64 162.002 106.72 157.842 110.12 151.082C111.8 147.762 114.54 141.682 114.12 137.962C119.72 141.242 129 146.222 143.32 152.862C143.9 153.122 144.16 153.342 144.54 153.202C154.18 149.202 184.94 135.342 198.04 126.902C204.04 132.102 222.68 127.702 227.8 110.362C232.666 111.104 237.642 110.27 242 107.982C252.44 103.142 275.88 91.4216 278.9 89.4216C278.99 89.3722 279.065 89.2999 279.117 89.212C279.17 89.1242 279.199 89.024 279.2 88.9216C279.82 78.2416 279.92 56.2816 279.88 45.7616C284.58 49.0416 303.42 48.4616 308 45.2416C308 96.7616 308.52 99.4816 305.82 104.522C301.66 112.322 288.5 119.222 238.68 146.902C238.572 146.964 238.483 147.055 238.423 147.164C238.363 147.273 238.334 147.397 238.34 147.522C238.98 156.022 239.72 164.922 239.72 171.142L236.76 181.582C217.975 181.436 199.506 186.415 183.34 195.982C181.66 182.282 179.02 161.202 178.28 152.522ZM126.12 244.522C128.12 233.082 138.12 227.042 202.58 198.322C202.726 198.242 202.836 198.11 202.888 197.952C202.941 197.795 202.933 197.624 202.864 197.472C202.796 197.321 202.674 197.2 202.521 197.136C202.368 197.071 202.196 197.066 202.04 197.122C195.58 200.002 189.64 202.642 184.22 205.122C184.04 203.122 183.76 200.522 183.4 197.402C195.524 190.045 209.093 185.393 223.18 183.762C231.18 210.922 227.48 215.762 220.8 219.762C213.46 224.322 169.44 242.682 152.5 251.242C152.423 251.278 152.355 251.329 152.298 251.392C152.242 251.455 152.198 251.529 152.17 251.609C152.142 251.689 152.131 251.774 152.136 251.858C152.141 251.943 152.163 252.026 152.2 252.102C155.7 259.422 172.6 295.502 181.02 311.922C174.239 314.965 166.707 315.925 159.38 314.682C127.76 262.462 124.58 253.722 126.12 244.542V244.522ZM203.62 320.922L205.06 322.562C200.28 335.462 183.06 358.062 169.06 367.282C168.991 365.949 168.991 364.614 169.06 363.282C177.08 358.002 194.94 340.682 203.62 320.942V320.922ZM199.62 311.622C195.28 322.502 176.34 328.562 166.26 326.022L160.26 316.262C172.14 318.262 188.44 313.462 194.6 301.582L199.62 311.622ZM167.4 260.142C167.255 260.195 167.133 260.297 167.055 260.431C166.978 260.564 166.95 260.721 166.976 260.873C167.002 261.026 167.081 261.164 167.199 261.264C167.316 261.364 167.465 261.42 167.62 261.422C169.492 260.865 171.328 260.197 173.12 259.422C176.48 265.422 184.88 281.982 193.88 300.082C191.408 305.093 187.282 309.098 182.2 311.422C173.98 295.422 157.76 260.762 153.66 252.182C171.12 243.442 214.02 225.582 221.5 220.922C229.5 215.922 232.04 208.922 224.5 183.582C228.5 183.142 232.5 182.902 236.78 182.842C249.92 205.942 243.7 225.382 231.24 232.682C213.42 243.162 186.96 253.122 167.4 260.142ZM217.58 303.342C210.48 300.062 203.58 279.222 197.94 262.042C202.58 256.642 215.14 244.482 219.68 240.342C224.84 237.822 229.26 235.422 231.94 233.822C233.5 242.042 240.16 272.742 240.16 272.742C240.38 273.702 240.02 273.242 274.16 274.542C278.76 280.082 281.18 298.322 273.42 308.402C229.42 308.142 225.82 307.162 217.58 303.342ZM286.1 308.462H275.08C282.42 297.982 280.14 281.122 275.88 274.662C279.48 274.802 282.92 274.962 285.88 275.122C291.14 283.782 291.38 303.982 286.1 308.462ZM316.9 322.462C315.88 306.862 300.44 285.582 293.24 278.182C293.68 278.182 294.14 278.182 294.58 278.302C301.62 284.122 318.08 304.662 318.76 322.862C318.134 322.782 317.513 322.669 316.9 322.522V322.462Z" fill="#1890ff"/>
</svg>
