<svg width="400" height="400" viewBox="0 0 400 400" fill="none" xmlns="http://www.w3.org/2000/svg">
<path d="M107.42 131.5C107.92 135.5 109.42 139.3 113.18 140.68C111.19 147.7 107.847 154.263 103.34 160C99.8 157.7 95.72 155.66 92.46 153.56C92.56 150.1 94.16 146.4 96.86 141.4C96.3105 139.46 96.2049 137.42 96.5511 135.432C96.8973 133.445 97.6865 131.561 98.86 129.92C98.1328 131.134 97.2447 132.244 96.22 133.22C92.76 136.48 90.22 134.3 91.16 132.2C95.64 121.62 95.32 120.98 101.34 123.92C106.84 126.58 106.84 126.58 107.42 131.5Z" fill="#B2BEC3"/>
<path d="M137.08 149.2C136.974 149.198 136.87 149.17 136.777 149.119C136.684 149.068 136.604 148.995 136.546 148.906C136.487 148.818 136.45 148.717 136.439 148.611C136.427 148.506 136.441 148.399 136.48 148.3C195.7 0.000228882 191.64 9.24023 192.42 9.36023C193.2 9.48023 192.24 2.24023 203.7 122.58C203.691 122.738 203.626 122.888 203.516 123.001C203.406 123.115 203.259 123.186 203.102 123.2C202.944 123.215 202.787 123.172 202.658 123.081C202.529 122.989 202.438 122.854 202.4 122.7L192 12.7602C133.72 158.7 137.74 149.2 137.08 149.2Z" fill="white"/>
<path d="M288.76 304.86C288.262 306.23 287.43 307.453 286.34 308.42H273.78C282.04 298.06 279.54 278.88 274.54 273.26C274.54 273.26 282.84 273.6 286.34 273.8C291.1 281.48 291.74 297.06 288.76 304.86Z" fill="#B2BEC3"/>
<path d="M274.54 273.22C279.54 278.84 282.04 298.02 273.78 308.38C229.22 308.1 225.6 307.1 217.3 303.26C209.9 299.82 203.04 279.1 197.2 261.26C201.7 255.92 214.64 243.44 219.3 239.14C222.58 237.56 229.98 233.74 232.4 232.12C234.02 240.78 238.14 259.8 240.8 271.98C244.8 272.34 260.6 272.74 274.52 273.3L274.54 273.22Z" fill="#B2BEC3"/>
<path d="M200.28 310.94C196.94 319.72 185.16 324.94 175.8 326.32C172.473 326.825 169.08 326.696 165.8 325.94L158.96 314.72C171.58 317.5 189.1 311.88 194.6 299.46C196.48 303.22 198.38 307.08 200.28 310.94Z" fill="#B2BEC3"/>
<path d="M173.42 258C176.58 263.6 185.26 280.62 194.6 299.44C192.001 304.897 187.53 309.24 182 311.68C173.7 295.58 156.54 258.9 152.86 251.24C170.02 242.56 213.72 224.4 221.22 219.72C228.72 215.04 231.72 209.06 223.72 182.38C228.201 181.857 232.708 181.584 237.22 181.56C252 207.2 242.7 225.34 232.48 232.08C219.48 240.58 188 252.68 173.42 258Z" fill="#B2BEC3"/>
<path d="M183.64 205.42C183.46 203.42 183.12 200.14 182.7 196.38C195.144 188.76 209.116 183.98 223.62 182.38C231.62 209.06 228.62 215.06 221.12 219.72C213.62 224.38 170 242.56 152.78 251.24C156.46 258.9 173.62 295.58 181.92 311.68C174.772 315.067 166.739 316.116 158.96 314.68C127.58 262.68 123.88 253.26 125.46 243.74C127.24 233.14 136.34 226.84 183.64 205.42Z" fill="#B2BEC3"/>
<path d="M94.76 124C93.7189 125.874 92.797 127.811 92 129.8C90.2363 128.97 88.5381 128.007 86.92 126.92C86.2532 126.419 85.8068 125.679 85.6748 124.855C85.5429 124.032 85.7356 123.189 86.2126 122.505C86.6895 121.821 87.4134 121.348 88.2317 121.187C89.0501 121.025 89.8991 121.188 90.6 121.64L94.76 124Z" fill="#B2BEC3"/>
<path d="M96.18 133.18C97.28 135.48 95.46 139.04 92.18 137.36C89.3789 136.095 86.6483 134.68 84 133.12C83.3481 132.607 82.9133 131.868 82.782 131.049C82.6507 130.23 82.8326 129.392 83.2915 128.701C83.7505 128.01 84.4527 127.517 85.2585 127.321C86.0643 127.124 86.9145 127.238 87.64 127.64C89.16 128.48 90.54 129.1 92.1 129.94C92.1 129.94 91.5 131.34 91.18 132.14C90.28 134.24 92.76 136.42 96.22 133.16L96.18 133.18Z" fill="#B2BEC3"/>
<path d="M81.48 139.5C80.7507 139.039 80.2345 138.307 80.0451 137.465C79.8557 136.622 80.0085 135.74 80.47 135.01C80.9315 134.281 81.6638 133.765 82.5058 133.575C83.3479 133.386 84.2307 133.539 84.96 134C87.9 135.5 89.68 136.4 92.56 138C96.56 140.28 93.94 145.44 89.64 143.4C86.8465 142.26 84.1219 140.958 81.48 139.5V139.5Z" fill="#B2BEC3"/>
<path d="M79.74 146C79.0932 145.542 78.6439 144.855 78.4824 144.079C78.321 143.302 78.4592 142.494 78.8695 141.815C79.2797 141.136 79.9315 140.638 80.694 140.42C81.4565 140.202 82.2732 140.281 82.98 140.64C85.72 141.94 87.58 142.8 90.4 144.32C94.4 146.44 91.9 151.46 87.68 149.6C84.9739 148.536 82.3238 147.334 79.74 146V146Z" fill="#B2BEC3"/>
<path d="M284.22 16.5601C284.35 18.4045 284.35 20.2557 284.22 22.1001C282.112 21.9204 279.994 21.8803 277.88 21.9801C277.88 20.3201 277.88 19.0801 277.88 17.4801C277.74 13.1401 284 12.9601 284.22 16.5601Z" fill="#B2BEC3"/>
<path d="M291.12 16.2004C291.26 18.5404 290.96 20.6404 290.72 25.4004C290.737 26.0647 290.539 26.7168 290.155 27.2592C289.771 27.8016 289.222 28.2053 288.59 28.4101C287.958 28.6148 287.276 28.6096 286.647 28.3952C286.018 28.1808 285.476 27.7687 285.1 27.2204C289.62 25.5004 288.98 22.3404 286.72 22.2204L284.38 22.1004C284.38 20.3204 284.56 18.8004 284.6 17.1004C284.7 12.4604 290.88 12.3804 291.12 16.2004Z" fill="#B2BEC3"/>
<path d="M297.82 16.4203C297.82 18.8603 297.56 20.6603 297.2 25.4603C296.84 30.2603 291.06 30.3403 291.08 25.7403C291.08 23.7403 291.22 20.9003 291.38 17.1803C291.58 12.6403 297.7 12.6403 297.82 16.4203Z" fill="#B2BEC3"/>
<path d="M304.58 17.8203C304.477 20.7479 304.196 23.6666 303.74 26.5603C303.24 31.1803 297.74 31.1803 297.74 26.7003C297.84 23.6803 298.04 21.4803 298.26 18.4203C298.68 14.0003 304.58 14.1803 304.58 17.8203Z" fill="#B2BEC3"/>
<path d="M285.08 27.2002C285.459 27.7421 286.002 28.1485 286.628 28.3601C287.255 28.5718 287.933 28.5774 288.563 28.3764C289.193 28.1753 289.742 27.778 290.13 27.2425C290.518 26.7071 290.725 26.0615 290.72 25.4002C290.86 22.6402 291.04 20.6402 291.12 18.9602C291.52 18.9602 291.12 18.4402 291.12 25.7402C291.12 30.3602 296.86 30.2202 297.24 25.4602C297.44 22.7402 297.66 20.7802 297.8 19.1402H298.32C298.14 21.4602 297.96 23.6602 297.86 26.6402C297.7 31.1002 303.26 31.1002 303.86 26.5002C304.24 22.8802 304.62 20.6602 304.7 18.7002C305.32 18.7002 304.7 32.9402 304.7 45.2202C297.643 46.7979 290.343 46.9678 283.22 45.7202C284 41.3202 280.88 38.3002 277.12 35.8602C274.18 33.9802 274.24 33.4002 274.6 27.7202C275.04 21.0402 275.36 21.6202 286.74 22.1602C288.96 22.3202 289.6 25.5002 285.08 27.2002Z" fill="#B2BEC3"/>
<path d="M227.28 108.96C220.38 127.18 204.1 131.68 198 125.4C202.876 121.575 206.184 116.097 207.3 110C209.938 108.153 211.986 105.583 213.2 102.6C211.468 103.497 209.661 104.24 207.8 104.82C199.48 107.4 196.9 102.12 199.62 83.7804C204.538 82.3477 209.638 81.6336 214.76 81.6604C213.7 85.6604 214.14 91.2004 215.9 87.4604C217.66 83.7204 221.9 86.5604 218.92 91.4604C218.408 92.4547 218.198 93.5768 218.315 94.6889C218.433 95.801 218.872 96.8547 219.58 97.7204C219.334 100.201 219.971 102.688 221.38 104.745C222.789 106.801 224.878 108.294 227.28 108.96V108.96Z" fill="#B2BEC3"/>
<path d="M282.18 273.32L333.68 144.16L243.68 160.16C243.524 160.164 243.371 160.111 243.25 160.013C243.128 159.914 243.046 159.776 243.017 159.622C242.988 159.468 243.015 159.309 243.092 159.174C243.17 159.038 243.293 158.934 243.44 158.88C341.3 141.64 334.96 142.56 335.32 143C335.68 143.44 339.08 134.2 283.48 273.9C283.442 273.986 283.387 274.063 283.32 274.127C283.252 274.191 283.172 274.242 283.085 274.275C282.997 274.308 282.904 274.324 282.811 274.322C282.717 274.319 282.625 274.298 282.54 274.26C282.455 274.222 282.378 274.168 282.313 274.1C282.249 274.032 282.199 273.952 282.165 273.865C282.132 273.778 282.116 273.685 282.118 273.591C282.121 273.498 282.142 273.406 282.18 273.32Z" fill="white"/>
<path d="M236.34 390.66C236.178 390.656 236.024 390.592 235.906 390.482C235.788 390.371 235.715 390.221 235.7 390.06L227.7 306.78C227.705 306.621 227.767 306.469 227.875 306.352C227.984 306.235 228.131 306.161 228.289 306.144C228.447 306.127 228.607 306.168 228.737 306.259C228.868 306.35 228.961 306.486 229 306.64L236.68 387.24L268.24 308.1C268.316 307.958 268.442 307.848 268.594 307.792C268.746 307.736 268.913 307.738 269.064 307.797C269.214 307.857 269.338 307.969 269.411 308.113C269.484 308.258 269.501 308.424 269.46 308.58C234.62 396 237 390.66 236.34 390.66Z" fill="white"/>
<path d="M94 257.34C93.8938 257.337 93.7899 257.308 93.6967 257.257C93.6035 257.206 93.5236 257.134 93.4633 257.046C93.403 256.959 93.3641 256.858 93.3496 256.753C93.3352 256.648 93.3456 256.541 93.38 256.44L124.92 177.26C124.996 177.118 125.122 177.008 125.274 176.952C125.426 176.896 125.593 176.898 125.744 176.957C125.894 177.017 126.018 177.129 126.091 177.273C126.164 177.418 126.181 177.584 126.14 177.74L95 255.84L125.42 250.46C125.592 250.428 125.77 250.466 125.915 250.566C126.059 250.665 126.158 250.818 126.19 250.99C126.222 251.163 126.184 251.341 126.084 251.485C125.985 251.629 125.832 251.728 125.66 251.76C93.88 257.34 94.16 257.34 94 257.34Z" fill="white"/>
<path d="M171.44 100C171.44 99.6203 172.88 100.56 151.98 89.2603C153.38 86.9003 154.82 84.3803 156.26 81.7403C156.302 81.6657 156.328 81.5835 156.338 81.4985C156.348 81.4135 156.34 81.3274 156.316 81.2453C156.292 81.1633 156.251 81.087 156.197 81.0208C156.143 80.9547 156.076 80.9001 156 80.8603C112.86 57.5803 151.68 78.5603 108.5 55.1603C108.425 55.1184 108.343 55.0918 108.258 55.0822C108.173 55.0726 108.087 55.0802 108.005 55.1044C107.923 55.1287 107.847 55.1691 107.781 55.2233C107.714 55.2776 107.66 55.3446 107.62 55.4203C106.18 58.0603 104.86 60.6403 103.62 63.1003L84.46 52.7203C84.3854 52.6784 84.3032 52.6518 84.2182 52.6422C84.1332 52.6326 84.0471 52.6402 83.9651 52.6644C83.8831 52.6887 83.8067 52.7291 83.7406 52.7833C83.6744 52.8376 83.6198 52.9046 83.58 52.9803C68.38 81.1003 81.06 104 91.1 109.78C91.1 114.58 91.6 118.62 91.86 122.34L94.74 123.98C96.24 121.54 97.52 121.98 101.24 123.84C107.58 126.96 106.74 126.76 107.5 132.16C107.7 132.16 116.4 127.38 119.72 125.26C123.26 126.888 127.125 127.682 131.02 127.58C143.36 127.58 160.26 121.02 171.38 100.46C171.422 100.392 171.45 100.316 171.46 100.237C171.47 100.157 171.463 100.077 171.44 100ZM91.1 108.24C81.64 102.12 70.44 80.6403 84.46 54.2403L103.08 64.2403C92.74 85.7403 91.2 99.5403 91.1 108.24ZM115.8 98.2403L104.1 99.5603L112.5 91.2203L107.62 80.4803L118.1 86.0003L126.8 78.0003L124.92 89.6403L135.16 95.4603L123.5 97.2603L121.08 108.84L115.8 98.2403ZM121 124.4C128.26 119.56 139 110.7 151.3 90.4003L169.92 100.4C155.4 126.64 131.3 129.02 121 124.42V124.4Z" fill="white"/>
<path d="M86.56 288.1C86.2467 286.054 85.4092 284.123 84.129 282.496C82.8487 280.869 81.1692 279.6 79.2538 278.814C77.3383 278.028 75.2521 277.751 73.1979 278.01C71.1437 278.269 69.1914 279.055 67.5308 280.292C65.8702 281.528 64.5579 283.174 63.7213 285.067C62.8847 286.961 62.5524 289.04 62.7567 291.1C62.9609 293.16 63.6948 295.133 64.887 296.825C66.0791 298.518 67.6889 299.874 69.56 300.76C67.2977 305.406 66.6613 310.677 67.7529 315.728C68.8445 320.778 71.6008 325.316 75.5797 328.613C79.5586 331.91 84.5295 333.775 89.695 333.909C94.8606 334.042 99.9214 332.437 104.066 329.351C108.21 326.265 111.198 321.876 112.549 316.889C113.901 311.901 113.539 306.605 111.52 301.848C109.501 297.091 105.944 293.15 101.418 290.657C96.8914 288.164 91.6591 287.264 86.56 288.1ZM90.28 332.6C86.5877 332.59 82.9586 331.641 79.7336 329.843C76.5087 328.045 73.7938 325.457 71.8441 322.321C69.8943 319.186 68.7737 315.606 68.5876 311.918C68.4015 308.231 69.1559 304.556 70.78 301.24C72.6253 301.843 74.5885 301.994 76.5043 301.68C78.4201 301.366 80.2324 300.597 81.7888 299.436C83.3451 298.276 84.6 296.759 85.4477 295.012C86.2954 293.266 86.7112 291.341 86.66 289.4C89.6345 288.885 92.6838 288.994 95.6139 289.72C98.544 290.447 101.291 291.775 103.68 293.621C106.069 295.466 108.048 297.789 109.491 300.441C110.933 303.092 111.809 306.015 112.061 309.024C112.313 312.032 111.936 315.06 110.955 317.915C109.973 320.769 108.409 323.389 106.36 325.606C104.312 327.824 101.824 329.591 99.0558 330.795C96.2874 331.999 93.2988 332.614 90.28 332.6Z" fill="white"/>
<path d="M69.62 105.58L62.14 106.9C60.448 107.197 58.7076 106.809 57.3012 105.823C55.8948 104.837 54.9376 103.332 54.64 101.64L53.32 94.1804C53.2837 94.0148 53.1851 93.8695 53.0446 93.7746C52.904 93.6797 52.7323 93.6426 52.5652 93.6709C52.398 93.6992 52.2481 93.7907 52.1466 93.9266C52.0451 94.0624 51.9998 94.2321 52.02 94.4004L53.34 101.86C53.4889 102.705 53.4684 103.572 53.2799 104.409C53.0914 105.246 52.7385 106.037 52.2417 106.737C51.7449 107.436 51.1142 108.03 50.386 108.484C49.6579 108.938 48.8469 109.243 48 109.38L40.54 110.7C40.3792 110.739 40.2389 110.837 40.1468 110.974C40.0547 111.112 40.0176 111.279 40.0427 111.442C40.0679 111.606 40.1535 111.754 40.2826 111.857C40.4117 111.961 40.575 112.012 40.74 112L48.24 110.68C49.0885 110.517 49.9612 110.526 50.8061 110.707C51.6511 110.887 52.451 111.236 53.1583 111.733C53.8656 112.229 54.4657 112.863 54.923 113.596C55.3803 114.329 55.6853 115.147 55.82 116L57.14 123.48C57.1692 123.65 57.2646 123.801 57.4052 123.901C57.5459 124 57.7203 124.04 57.89 124.01C58.0597 123.981 58.2109 123.886 58.3103 123.745C58.4097 123.605 58.4492 123.43 58.42 123.26L57.12 115.78C56.8236 114.088 57.2112 112.348 58.1975 110.942C59.1839 109.535 60.6882 108.578 62.38 108.28L69.84 106.96C70.023 106.931 70.1869 106.831 70.2957 106.681C70.4045 106.531 70.4492 106.343 70.42 106.16C70.3908 105.977 70.2902 105.814 70.1401 105.705C69.9901 105.596 69.803 105.551 69.62 105.58ZM56 112.74C54.9157 111.112 53.2601 109.948 51.36 109.48C52.9768 108.384 54.1364 106.733 54.62 104.84C55.7167 106.457 57.3672 107.617 59.26 108.1C57.6311 109.185 56.4679 110.84 56 112.74Z" fill="white"/>
<path d="M359.14 223.52C348.56 225.52 348.44 225.4 348.08 225.52C345.62 225.863 343.123 225.238 341.116 223.775C339.108 222.312 337.747 220.127 337.32 217.68L335.44 206.96C335.408 206.788 335.309 206.635 335.165 206.536C335.02 206.437 334.842 206.399 334.67 206.43C334.498 206.462 334.345 206.561 334.246 206.706C334.146 206.85 334.108 207.028 334.14 207.2L336.02 217.92C336.244 219.159 336.221 220.43 335.952 221.66C335.683 222.89 335.173 224.054 334.451 225.086C333.73 226.118 332.812 226.997 331.749 227.672C330.686 228.347 329.501 228.806 328.26 229.02L317.54 230.9C317.368 230.932 317.215 231.031 317.116 231.176C317.016 231.32 316.978 231.498 317.01 231.67C317.042 231.843 317.141 231.996 317.285 232.095C317.43 232.194 317.608 232.232 317.78 232.2L328.5 230.32C330.946 229.882 333.467 230.414 335.528 231.803C337.589 233.192 339.028 235.329 339.54 237.76C339.54 238.04 340.02 240.58 341.54 248.8C341.576 248.966 341.675 249.111 341.815 249.206C341.956 249.301 342.128 249.338 342.295 249.31C342.462 249.282 342.612 249.19 342.713 249.054C342.815 248.918 342.86 248.749 342.84 248.58C341.38 240.28 340.94 237.8 340.84 237.5C340.517 235.129 341.087 232.723 342.44 230.749C343.793 228.775 345.832 227.374 348.16 226.82C348.64 226.82 348 226.82 359.4 224.82C359.572 224.786 359.724 224.684 359.822 224.538C359.919 224.392 359.954 224.213 359.92 224.04C359.886 223.868 359.784 223.716 359.638 223.619C359.491 223.521 359.312 223.486 359.14 223.52ZM339.58 234.24C338.783 232.871 337.698 231.69 336.399 230.782C335.101 229.874 333.62 229.259 332.06 228.98C333.431 228.181 334.612 227.092 335.52 225.79C336.429 224.488 337.043 223.004 337.32 221.44C338.12 222.812 339.209 223.993 340.511 224.901C341.813 225.809 343.297 226.423 344.86 226.7C343.488 227.502 342.306 228.591 341.395 229.893C340.484 231.194 339.865 232.677 339.58 234.24Z" fill="white"/>
<path d="M334.78 88.9002C333.282 88.8963 331.818 88.4483 330.574 87.613C329.33 86.7777 328.362 85.5925 327.791 84.2071C327.221 82.8217 327.073 81.2983 327.368 79.8292C327.663 78.3602 328.386 77.0114 329.447 75.9533C330.508 74.8952 331.859 74.1753 333.329 73.8844C334.798 73.5936 336.321 73.7448 337.705 74.3191C339.089 74.8934 340.272 75.865 341.104 77.1111C341.936 78.3572 342.38 79.8219 342.38 81.3202C342.38 82.3173 342.183 83.3046 341.801 84.2256C341.419 85.1465 340.859 85.983 340.153 86.6872C339.447 87.3913 338.609 87.9492 337.687 88.329C336.765 88.7087 335.777 88.9028 334.78 88.9002ZM334.78 75.0402C333.538 75.0402 332.324 75.4085 331.291 76.0986C330.258 76.7886 329.453 77.7694 328.978 78.917C328.503 80.0645 328.378 81.3272 328.621 82.5454C328.863 83.7636 329.461 84.8826 330.339 85.7608C331.218 86.6391 332.337 87.2372 333.555 87.4795C334.773 87.7219 336.036 87.5975 337.183 87.1222C338.331 86.6469 339.312 85.8419 340.002 84.8092C340.692 83.7765 341.06 82.5623 341.06 81.3202C341.06 79.6547 340.398 78.0573 339.221 76.8796C338.043 75.7019 336.446 75.0402 334.78 75.0402Z" fill="white"/>
<path d="M66.2 204C65.3658 203.999 64.5509 203.749 63.8601 203.281C63.1694 202.813 62.6344 202.15 62.324 201.375C62.0136 200.601 61.942 199.752 62.1184 198.936C62.2948 198.121 62.7112 197.377 63.3139 196.8C63.9166 196.223 64.6782 195.84 65.5005 195.7C66.3228 195.559 67.1684 195.668 67.9283 196.012C68.6882 196.357 69.3278 196.92 69.7647 197.631C70.2016 198.342 70.4159 199.167 70.38 200C70.3385 201.079 69.8792 202.099 69.0992 202.846C68.3192 203.592 67.2796 204.006 66.2 204ZM66.2 196.98C65.6422 196.985 65.098 197.153 64.6344 197.463C64.1708 197.773 63.8079 198.212 63.5906 198.726C63.3732 199.239 63.3108 199.805 63.4111 200.354C63.5113 200.903 63.7698 201.41 64.1548 201.814C64.5397 202.217 65.0343 202.5 65.5776 202.626C66.121 202.752 66.6894 202.717 67.2128 202.524C67.7362 202.331 68.1919 201.989 68.5236 201.541C68.8554 201.093 69.0488 200.557 69.08 200C69.0935 199.615 69.0288 199.23 68.8899 198.87C68.751 198.51 68.5407 198.182 68.2716 197.906C68.0025 197.629 67.6803 197.41 67.3243 197.261C66.9683 197.112 66.5858 197.037 66.2 197.04V196.98Z" fill="white"/>
<path d="M250 56.0002L253.26 42.8402L243.56 44.5602C243.454 44.576 243.345 44.5655 243.244 44.5299C243.143 44.4942 243.052 44.4343 242.979 44.3555C242.906 44.2767 242.853 44.1813 242.826 44.0776C242.798 43.9738 242.796 43.8649 242.82 43.7602L246.32 29.6202C246.367 29.4551 246.476 29.3147 246.624 29.2286C246.773 29.1426 246.949 29.1177 247.115 29.1594C247.282 29.201 247.425 29.3058 247.516 29.4515C247.606 29.5973 247.637 29.7726 247.6 29.9402L244.32 43.1002C254.78 41.2402 254.32 41.2202 254.62 41.5802C254.92 41.9402 255.06 40.9402 251.26 56.3002C251.24 56.383 251.205 56.461 251.155 56.5299C251.105 56.5988 251.042 56.6572 250.969 56.7018C250.897 56.7464 250.816 56.7762 250.733 56.7897C250.649 56.8032 250.563 56.7999 250.48 56.7802C250.397 56.7605 250.319 56.7247 250.25 56.6749C250.181 56.625 250.123 56.5621 250.078 56.4897C250.034 56.4172 250.004 56.3367 249.991 56.2528C249.977 56.1688 249.98 56.083 250 56.0002Z" fill="white"/>
<path d="M97.22 142.12C96.4575 140.107 96.2027 137.938 96.4783 135.803C96.7539 133.668 97.5513 131.634 98.8 129.88C98.0812 131.095 97.1997 132.205 96.18 133.18C97.3 135.48 95.46 139.04 92.18 137.36C90 136.26 86 134.34 86 134.34C85.78 134.74 85.5 134.06 92.6 138.06C96.6 140.34 93.98 145.5 89.68 143.46C87.28 142.3 85.46 141.46 83.98 140.82C83.82 141.18 83.5 140.52 90.48 144.2C94.48 146.2 92 151.34 87.72 149.5C86.16 148.8 84.84 148.24 83.72 147.78C83.7733 147.648 83.7819 147.501 83.7447 147.363C83.7074 147.225 83.6262 147.102 83.5134 147.014C83.4005 146.926 83.2621 146.877 83.119 146.875C82.9759 146.872 82.8359 146.916 82.72 147C79.48 149.62 75.54 150.16 68.14 149L99.46 166C91.32 156.98 91.56 152.66 97.22 142.12Z" fill="white"/>
<path d="M66.84 149.84L60 158.88C59.9427 158.957 59.9026 159.045 59.8826 159.138C59.8625 159.231 59.863 159.328 59.8839 159.421C59.9048 159.514 59.9457 159.602 60.0037 159.678C60.0617 159.753 60.1355 159.816 60.22 159.86L94.76 178.56C94.8425 178.606 94.9341 178.634 95.0283 178.64C95.1225 178.646 95.217 178.632 95.3049 178.597C95.3929 178.563 95.4721 178.51 95.5369 178.441C95.6018 178.372 95.6507 178.29 95.68 178.2L99.5 167.48L66.84 149.84Z" fill="white"/>
<path d="M295.24 276.54C295.195 276.496 295.142 276.46 295.084 276.436C295.026 276.412 294.963 276.4 294.9 276.4C292.739 276.179 290.561 276.179 288.4 276.4C287.977 275.383 287.475 274.4 286.9 273.46C286.844 273.371 286.768 273.298 286.677 273.245C286.587 273.193 286.485 273.164 286.38 273.16C278.82 272.74 244.38 271.6 241.34 271.36C241.34 271.36 234.64 240.48 233.12 232.44C243.36 225.48 252.4 207 237.86 181.52C241.64 168.16 246.66 150.6 249.3 141.82C295.3 116.22 303.18 111.42 306.88 104.52C309.78 99.1001 309.2 96.4001 309.2 42.8401C309.54 40.9401 307.2 39.8001 305.2 39.4201C305.2 34.9601 305.72 19.7401 305.2 18.5401V17.8201C305.2 14.1801 300.4 13.3001 298.42 16.1001C298 12.6401 293.32 12.0001 291.44 14.8001C291.074 14.1769 290.547 13.6645 289.913 13.3171C289.28 12.9696 288.564 12.8003 287.842 12.8269C287.12 12.8536 286.419 13.0753 285.813 13.4685C285.207 13.8617 284.719 14.4117 284.4 15.0601C283.9 14.3684 283.191 13.8549 282.378 13.5946C281.565 13.3344 280.69 13.341 279.881 13.6137C279.072 13.8863 278.372 14.4106 277.882 15.1098C277.393 15.8091 277.14 16.6467 277.16 17.5001C277.16 18.8601 277.16 20.0201 277.16 21.5001C274.62 21.9801 274.14 23.5001 273.84 27.8801C273.48 33.5801 273.42 34.4601 276.66 36.5401C278.399 37.5853 279.931 38.9411 281.18 40.5401C280.16 40.8401 278.44 41.5801 278.42 43.1601C278.26 52.4401 278.42 76.4201 277.78 88.0001C273.88 90.3601 251.18 101.7 241.32 106.28C237.407 108.331 232.971 109.167 228.58 108.68C219.1 107.04 220.22 97.7801 220.16 97.5801C220.7 89.8401 226.74 79.7601 228.62 75.5801C231.24 69.7801 227.52 67.5801 224.22 69.7801C223.997 69.2974 223.657 68.8779 223.231 68.5595C222.806 68.241 222.307 68.0338 221.781 67.9563C221.255 67.8789 220.718 67.9338 220.218 68.116C219.719 68.2983 219.273 68.6021 218.92 69.0001C218.522 68.5657 218.032 68.2248 217.487 68.0016C216.941 67.7785 216.353 67.6786 215.765 67.7092C215.176 67.7398 214.602 67.9 214.082 68.1785C213.563 68.457 213.111 68.8468 212.76 69.3201C211.3 67.5001 207.92 68.3001 206.26 70.2801C204.78 68.8401 201.34 70.4001 200.66 73.8601C199.18 81.5801 195.28 100.88 200.84 105.12C201.758 105.705 202.797 106.072 203.879 106.193C204.96 106.314 206.055 106.187 207.08 105.82C206.82 111.2 204.64 120.46 197.68 125.04C185.06 133.14 154.26 147.1 144.26 151.2C139.02 148.58 132.26 146.06 113.02 135.2C112.384 134.915 111.67 134.856 110.996 135.035C110.323 135.213 109.731 135.617 109.32 136.18C108.53 134.269 108.05 132.243 107.9 130.18C107.5 126.18 106.72 125.84 101.54 123.3C98.64 121.88 96.4 120.64 94.54 123.14L91 121.14C90.2419 120.75 89.3788 120.612 88.5368 120.746C87.6948 120.881 86.9178 121.281 86.3193 121.889C85.7208 122.496 85.3321 123.279 85.2099 124.123C85.0877 124.967 85.2384 125.828 85.64 126.58C84.9107 126.622 84.2068 126.863 83.6046 127.276C83.0024 127.69 82.5249 128.26 82.2241 128.926C81.9232 129.592 81.8103 130.327 81.8977 131.052C81.9852 131.778 82.2695 132.465 82.72 133.04C82.0166 133.173 81.3618 133.493 80.824 133.965C80.2861 134.437 79.8849 135.046 79.6622 135.726C79.4395 136.406 79.4035 137.134 79.5579 137.833C79.7123 138.532 80.0515 139.177 80.54 139.7C79.8223 139.882 79.1734 140.27 78.6731 140.816C78.1728 141.362 77.8429 142.042 77.7239 142.773C77.6049 143.504 77.7021 144.253 78.0034 144.93C78.3047 145.606 78.7971 146.18 79.42 146.58C81.42 147.7 83.42 148.42 87.42 150.18C92 152 94.74 147.32 92 144.56C92.6776 144.487 93.3204 144.223 93.8528 143.798C94.3853 143.372 94.7853 142.804 95.0058 142.159C95.2264 141.514 95.2583 140.82 95.0978 140.158C94.9374 139.495 94.5912 138.892 94.1 138.42C94.641 138.357 95.1571 138.157 95.6 137.84C95.5963 140.702 96.6751 143.46 98.62 145.56C98.7428 145.672 98.9031 145.733 99.0692 145.732C99.2352 145.731 99.3947 145.667 99.5159 145.554C99.637 145.44 99.7109 145.285 99.7228 145.119C99.7347 144.954 99.6837 144.79 99.58 144.66C96.46 141.28 95.7 135.98 99.28 130.18C99.3427 130.036 99.3518 129.874 99.3058 129.724C99.2598 129.573 99.1617 129.445 99.0291 129.36C98.8964 129.276 98.7381 129.241 98.5824 129.263C98.4268 129.285 98.2841 129.362 98.18 129.48L98.08 129.64C94.08 135.96 90.78 134.42 91.64 132.38C94.5 125.64 95.34 123.5 96.52 123.06C97.34 122.76 98.52 123.28 101.04 124.48C106.06 126.96 106.26 127.04 106.58 130.26C107.06 134.9 108.24 139.12 112.42 141.06C110.434 147.558 107.313 153.652 103.2 159.06C99.74 156.86 96.08 155.06 93.2 153.06C93.1604 153.573 93.1604 154.088 93.2 154.6C94.68 155.5 96.32 156.42 98 157.38C97.44 159.64 97.56 162.12 99.14 162.7C133.86 183.82 140.76 187.12 150.32 184.48C160.265 181.527 169.961 177.795 179.32 173.32C179.32 173.54 182.46 199.82 182.96 205.02C134.96 226.82 126.62 232.88 124.84 243.64C123.06 254.4 128.24 265.64 165.24 326.28C165.281 326.35 165.336 326.411 165.401 326.459C165.467 326.507 165.541 326.542 165.62 326.56C168.627 327.267 171.734 327.436 174.8 327.06C170.52 338.4 166.8 357.66 167.72 367.82C167.731 367.931 167.77 368.038 167.833 368.13C167.896 368.222 167.982 368.297 168.082 368.347C168.182 368.397 168.293 368.42 168.404 368.416C168.516 368.411 168.625 368.378 168.72 368.32C183.34 359.28 201.66 335.28 206.42 321.98C206.461 321.869 206.471 321.75 206.45 321.634C206.429 321.518 206.377 321.409 206.3 321.32C204.21 318.733 201.902 316.331 199.4 314.14C200.006 313.204 200.509 312.205 200.9 311.16C200.935 311.078 200.953 310.989 200.953 310.9C200.953 310.811 200.935 310.722 200.9 310.64C195.34 299.34 180.26 269.02 174.38 258.32C180.38 256.1 186.84 253.7 193.22 251.18C199.52 269.66 207.78 299.54 217.06 303.86C226.34 308.18 230.94 309 286.36 309.08C287.14 309.08 288.46 307.08 288.94 306.12C294.94 313.14 309.72 322.34 319.36 323.66C319.454 323.675 319.55 323.669 319.641 323.642C319.732 323.615 319.816 323.569 319.887 323.506C319.957 323.442 320.013 323.364 320.05 323.277C320.087 323.189 320.104 323.095 320.1 323C319.84 304 302.46 282.38 295.24 276.54ZM88 148.88C85.2728 147.842 82.6024 146.66 80 145.34C79.4431 144.99 79.048 144.433 78.9017 143.792C78.7554 143.15 78.8699 142.477 79.22 141.92C79.5701 141.363 80.1271 140.968 80.7685 140.822C81.4098 140.675 82.0831 140.79 82.64 141.14C85.44 142.46 87.38 143.36 90.06 144.78C93.36 146.46 91.46 150.4 88 148.88ZM90 142.88C86 140.88 83.82 140.16 81.9 138.88C81.3271 138.503 80.9273 137.915 80.7886 137.243C80.6498 136.572 80.7834 135.873 81.16 135.3C81.5366 134.727 82.1254 134.327 82.7967 134.189C83.4681 134.05 84.1671 134.183 84.74 134.56C87.58 136 89.54 137 92.34 138.56C95.56 140.48 93.48 144.56 90 142.86V142.88ZM95.88 134.32C96.1 136.14 94.7 137.92 92.48 136.78C89.12 135.08 86.26 133.84 84.34 132.6C84.0537 132.404 83.8088 132.154 83.6192 131.864C83.4296 131.574 83.299 131.249 83.2349 130.908C83.1708 130.567 83.1745 130.217 83.2457 129.878C83.317 129.538 83.4543 129.216 83.65 128.93C83.8457 128.644 84.0958 128.399 84.3861 128.209C84.6765 128.02 85.0013 127.889 85.3421 127.825C85.6829 127.761 86.033 127.765 86.3723 127.836C86.7117 127.907 87.0337 128.044 87.32 128.24C88.66 128.96 89.86 129.54 91.32 130.24L90.62 131.88C89.36 134.5 92.24 137.02 95.8 134.3L95.88 134.32ZM91.88 128.9C90.3806 128.142 88.925 127.301 87.52 126.38C87.2455 126.184 87.0123 125.937 86.8336 125.651C86.6549 125.365 86.5343 125.047 86.4786 124.714C86.4229 124.382 86.4332 124.042 86.5089 123.713C86.5846 123.385 86.7243 123.075 86.92 122.8C87.1157 122.526 87.3635 122.292 87.6493 122.114C87.9351 121.935 88.2533 121.814 88.5857 121.759C88.9182 121.703 89.2583 121.713 89.5868 121.789C89.9152 121.865 90.2255 122.004 90.5 122.2L94.02 124.2C93.26 125.3 92.6 126.82 91.72 128.88L91.88 128.9ZM298.48 26.7201C298.48 23.6801 298.76 21.5201 299 18.4601C299.28 14.8601 303.92 15.0401 303.94 17.8201C303.94 19.6601 303.66 21.2001 303.08 26.4801C302.66 30.2001 298.34 30.4001 298.48 26.7201ZM292 17.2001C292.18 13.4601 297.04 13.5401 297.14 16.4401C297.14 18.6601 296.84 21.1201 296.5 25.4001C296.2 29.4001 291.68 29.5001 291.7 25.7401C291.74 22.6601 291.88 20.4601 292 17.2001ZM285.2 17.2001C285.2 13.4001 290.26 13.3801 290.44 16.3401C290.58 18.5801 290.26 21.0801 290.02 25.4601C290.037 25.9088 289.927 26.3533 289.702 26.7422C289.478 27.131 289.148 27.4483 288.75 27.6575C288.353 27.8667 287.904 27.9591 287.457 27.9242C287.009 27.8892 286.58 27.7283 286.22 27.4601C290.34 25.4601 289.54 21.7401 286.7 21.6001H285C285.1 20.0001 285.22 18.6401 285.24 17.1001L285.2 17.2001ZM283.52 16.7001C283.62 18.2985 283.62 19.9016 283.52 21.5001C281.38 21.5001 279.72 21.3201 278.44 21.3801C278.44 19.9801 278.44 18.9401 278.44 17.5801C278.46 14.0001 283.3 13.8801 283.56 16.6001L283.52 16.7001ZM277.38 35.4601C274.78 33.7801 274.78 33.5801 275.16 27.9001C275.56 21.9001 275.56 22.4801 286.64 22.9601C288.64 23.0601 288.64 26.7201 280.82 27.5601C280.665 27.5987 280.53 27.692 280.439 27.8227C280.348 27.9533 280.307 28.1126 280.324 28.271C280.341 28.4295 280.415 28.5764 280.532 28.6847C280.649 28.7929 280.801 28.8552 280.96 28.8601C281.16 28.8601 290.7 27.4201 293.28 35.3801C293.351 35.5196 293.47 35.6291 293.615 35.6891C293.76 35.7491 293.921 35.7556 294.07 35.7075C294.219 35.6594 294.346 35.5598 294.429 35.4265C294.511 35.2932 294.544 35.135 294.52 34.9801C294.103 33.6867 293.432 32.4896 292.546 31.4593C291.659 30.4289 290.576 29.586 289.36 28.9801C289.919 28.7005 290.39 28.2712 290.72 27.7401C290.979 28.3763 291.418 28.9228 291.984 29.3123C292.55 29.7019 293.217 29.9173 293.904 29.9322C294.591 29.9471 295.267 29.7607 295.849 29.3961C296.431 29.0314 296.894 28.5045 297.18 27.8801C297.84 31.8801 303.04 31.8801 304.16 27.7401C304.16 33.4601 303.82 40.0801 303.94 44.9801C297.32 46.3257 290.514 46.4815 283.84 45.4401C284.12 42.3401 283.3 39.1401 277.42 35.3601L277.38 35.4601ZM207.82 110.4C210.51 108.488 212.592 105.843 213.82 102.78C213.864 102.658 213.87 102.525 213.839 102.399C213.807 102.272 213.739 102.158 213.643 102.071C213.547 101.983 213.427 101.926 213.298 101.906C213.17 101.886 213.038 101.905 212.92 101.96C209.84 103.48 204.36 105.96 201.66 103.96C198.96 101.96 198.52 95.9601 200.2 84.2801C204.681 83.0532 209.295 82.3815 213.94 82.2801C213.46 84.6401 213.12 88.7801 214.54 89.3001C215.58 89.6601 216.22 88.2601 216.54 87.7201C217.94 84.7401 220.9 87.1201 218.4 91.0201C217.84 92.0953 217.592 93.3056 217.684 94.5143C217.776 95.7229 218.204 96.8818 218.92 97.8601C218.667 100.367 219.287 102.884 220.675 104.987C222.064 107.089 224.135 108.648 226.54 109.4C225.416 113.493 223.235 117.219 220.216 120.203C217.197 123.187 213.446 125.324 209.34 126.4C205.2 127.44 201.34 127.08 199.16 125.52C203.806 121.715 206.889 116.333 207.82 110.4ZM178.28 151.84C178.253 151.687 178.173 151.549 178.054 151.449C177.935 151.349 177.785 151.295 177.63 151.295C177.475 151.295 177.325 151.349 177.206 151.449C177.087 151.549 177.007 151.687 176.98 151.84C177.16 153.84 177.42 156.5 177.74 159.5C174.18 163.74 163.42 175.5 153.24 182.18C142 185.68 140 186 101.22 162.54C103.64 161.32 106.72 157.16 110.12 150.4C111.8 147.08 114.54 141 114.12 137.28C119.72 140.56 129 145.54 143.32 152.18C143.9 152.44 144.16 152.66 144.54 152.52C154.18 148.52 184.94 134.66 198.04 126.22C204.04 131.42 222.68 127.02 227.8 109.68C232.666 110.423 237.642 109.589 242 107.3C252.44 102.46 275.88 90.7401 278.9 88.7401C278.99 88.6906 279.065 88.6183 279.117 88.5305C279.17 88.4427 279.199 88.3425 279.2 88.2401C279.82 77.5601 279.92 55.6001 279.88 45.0801C284.58 48.3601 303.42 47.7801 308 44.5601C308 96.0801 308.52 98.8001 305.82 103.84C301.66 111.64 288.5 118.54 238.68 146.22C238.572 146.282 238.483 146.373 238.423 146.482C238.363 146.592 238.334 146.715 238.34 146.84C238.98 155.34 239.72 164.24 239.72 170.46L236.76 180.9C217.975 180.755 199.506 185.733 183.34 195.3C181.66 181.6 179.02 160.52 178.28 151.84ZM126.12 243.84C128.12 232.4 138.12 226.36 202.58 197.64C202.726 197.56 202.836 197.428 202.888 197.271C202.941 197.114 202.933 196.942 202.864 196.791C202.796 196.639 202.674 196.519 202.521 196.454C202.368 196.389 202.196 196.384 202.04 196.44C195.58 199.32 189.64 201.96 184.22 204.44C184.04 202.44 183.76 199.84 183.4 196.72C195.524 189.364 209.093 184.711 223.18 183.08C231.18 210.24 227.48 215.08 220.8 219.08C213.46 223.64 169.44 242 152.5 250.56C152.423 250.596 152.355 250.648 152.298 250.711C152.242 250.774 152.198 250.847 152.17 250.927C152.142 251.007 152.131 251.092 152.136 251.177C152.141 251.261 152.163 251.344 152.2 251.42C155.7 258.74 172.6 294.82 181.02 311.24C174.239 314.283 166.707 315.244 159.38 314C127.76 261.78 124.58 253.04 126.12 243.86V243.84ZM203.62 320.24L205.06 321.88C200.28 334.78 183.06 357.38 169.06 366.6C168.991 365.268 168.991 363.932 169.06 362.6C177.08 357.32 194.94 340 203.62 320.26V320.24ZM199.62 310.94C195.28 321.82 176.34 327.88 166.26 325.34L160.26 315.58C172.14 317.58 188.44 312.78 194.6 300.9L199.62 310.94ZM167.4 259.46C167.255 259.513 167.133 259.615 167.055 259.749C166.978 259.883 166.95 260.04 166.976 260.192C167.002 260.344 167.081 260.483 167.199 260.583C167.316 260.683 167.465 260.739 167.62 260.74C169.492 260.184 171.328 259.516 173.12 258.74C176.48 264.74 184.88 281.3 193.88 299.4C191.408 304.412 187.282 308.417 182.2 310.74C173.98 294.74 157.76 260.08 153.66 251.5C171.12 242.76 214.02 224.9 221.5 220.24C229.5 215.24 232.04 208.24 224.5 182.9C228.5 182.46 232.5 182.22 236.78 182.16C249.92 205.26 243.7 224.7 231.24 232C213.42 242.48 186.96 252.44 167.4 259.46ZM217.58 302.66C210.48 299.38 203.58 278.54 197.94 261.36C202.58 255.96 215.14 243.8 219.68 239.66C224.84 237.14 229.26 234.74 231.94 233.14C233.5 241.36 240.16 272.06 240.16 272.06C240.38 273.02 240.02 272.56 274.16 273.86C278.76 279.4 281.18 297.64 273.42 307.72C229.42 307.46 225.82 306.48 217.58 302.66ZM286.1 307.78H275.08C282.42 297.3 280.14 280.44 275.88 273.98C279.48 274.12 282.92 274.28 285.88 274.44C291.14 283.1 291.38 303.3 286.1 307.78ZM316.9 321.78C315.88 306.18 300.44 284.9 293.24 277.5C293.68 277.5 294.14 277.5 294.58 277.62C301.62 283.44 318.08 303.98 318.76 322.18C318.134 322.101 317.513 321.987 316.9 321.84V321.78Z" fill="white"/>
</svg>
