<svg width="304" height="230" viewBox="0 0 304 230" fill="none" xmlns="http://www.w3.org/2000/svg">
<path d="M52 116C52 60.7715 96.7715 16 152 16V16C207.228 16 252 60.7715 252 116V116C252 171.228 207.228 216 152 216V216C96.7715 216 52 171.228 52 116V116Z" fill="#292929"/>
<path d="M39.786 152.451C40.299 153.985 39.748 155.518 39.52 157.032C39.33 158.316 39.482 159.447 40.185 160.559C40.565 161.153 41.097 161.766 41.249 162.476C41.439 163.357 40.793 163.971 40.508 164.737C40.223 165.504 40.413 166.597 41.363 166.731C41.325 166.577 41.287 166.405 41.23 166.252C40.793 166.731 40.66 167.44 41.059 167.996C41.363 168.417 42.009 168.456 42.18 169.012C42.351 169.567 42.066 170.277 41.971 170.813C41.61 173.056 42.959 175.011 44.555 176.41C46.417 178.058 48.469 179.4 50.141 181.259C51.889 183.195 53.333 185.418 54.416 187.795C54.568 188.121 55.062 187.833 54.91 187.507C53.086 183.54 50.331 180.167 46.873 177.522C44.954 176.065 42.56 174.34 42.465 171.657C42.446 170.794 42.864 169.932 42.75 169.069C42.712 168.801 42.636 168.532 42.446 168.322C42.028 167.823 40.793 167.517 41.61 166.635C41.743 166.501 41.705 166.194 41.477 166.156C40.185 165.964 41.363 164.316 41.572 163.798C41.743 163.415 41.838 163.032 41.8 162.61C41.705 161.517 40.831 160.693 40.356 159.754C39.14 157.377 41.135 154.732 40.299 152.26C40.223 151.953 39.672 152.106 39.786 152.451Z" fill="#DFE6E9"/>
<path d="M40.1847 153.008C53.2757 158.853 56.4867 174.359 58.7667 187.124C58.8237 187.488 59.3747 187.335 59.3177 186.971C57.4367 176.372 55.2517 164.948 47.2527 157.148C45.2767 155.212 42.9967 153.621 40.4697 152.509C40.1467 152.356 39.8427 152.854 40.1847 153.008Z" fill="#DFE6E9"/>
<path d="M41.1348 154.349C48.1268 163.3 53.1048 173.784 55.6508 184.882C55.7268 185.246 56.2778 185.092 56.2018 184.728C53.6368 173.516 48.6018 162.974 41.5528 153.927C41.3058 153.64 40.9068 154.061 41.1348 154.349Z" fill="#DFE6E9"/>
<path d="M42.6738 163.951C46.7968 165.849 50.1028 169.184 52.0028 173.343C52.1548 173.688 52.6488 173.381 52.4968 173.056C50.5778 168.82 47.1768 165.389 42.9778 163.453C42.6168 163.3 42.3318 163.798 42.6738 163.951Z" fill="#DFE6E9"/>
<path d="M56.8667 174.455C55.6127 168.992 59.9067 164.584 62.5667 160.367C63.8587 158.316 64.9417 156.112 65.7587 153.831C66.1577 152.72 66.4427 151.57 66.7847 150.439C67.1077 149.366 67.5447 148.158 68.7037 147.832C68.5897 147.794 68.4947 147.736 68.3807 147.698C68.8177 148.561 69.0457 149.5 68.9507 150.477C68.8937 151.091 68.4377 151.761 68.4947 152.336C68.5327 152.681 68.8367 153.218 68.9507 153.563C69.0837 154.004 69.1787 154.445 69.2357 154.886C69.3117 155.422 69.3497 155.959 69.3497 156.496C69.3497 156.898 69.0837 157.991 69.2167 158.297C69.0647 157.971 68.6467 158.221 68.7037 158.527C69.2357 161.786 69.9957 165.101 70.1857 168.379C70.3757 171.676 69.0647 174.474 67.4117 177.234C64.4857 182.121 61.3697 187.335 61.9587 193.296C61.9967 193.66 62.5667 193.66 62.5287 193.296C61.8827 186.76 65.7587 181.508 68.7417 176.103C70.1477 173.554 70.9647 170.947 70.7367 168.015C70.4897 164.795 69.7677 161.575 69.2547 158.374C69.0837 158.451 68.9127 158.527 68.7417 158.604C68.7607 158.642 68.7797 158.681 68.7987 158.719C68.8367 158.815 68.9507 158.853 69.0457 158.853C69.7487 158.872 69.8247 158.067 69.8817 157.531C70.0337 156.208 69.9197 154.866 69.5777 153.601C69.4447 153.122 69.1217 152.586 69.1787 152.087C69.2357 151.627 69.4827 151.148 69.5397 150.65C69.6727 149.519 69.4257 148.426 68.9127 147.43C68.8557 147.315 68.7037 147.257 68.5897 147.296C66.6327 147.871 66.3287 150.209 65.8347 151.896C64.9797 154.79 63.7257 157.55 62.1107 160.099C59.3367 164.488 55.0427 168.954 56.3537 174.627C56.4107 174.972 56.9617 174.819 56.8667 174.455Z" fill="#DFE6E9"/>
<path d="M67.431 152.509C67.108 158.297 64.79 163.645 62.909 169.031C61.009 174.493 59.812 180.128 59.394 185.897C59.375 186.261 59.945 186.261 59.964 185.897C60.401 179.936 61.712 174.148 63.688 168.532C65.531 163.3 67.678 158.106 68.001 152.509C68.02 152.145 67.45 152.145 67.431 152.509Z" fill="#DFE6E9"/>
<path d="M59.3749 165.677C59.6409 168.303 60.3439 170.833 61.5029 173.209C61.6739 173.535 62.1489 173.248 61.9969 172.922C60.8949 170.641 60.1919 168.207 59.9449 165.696C59.9069 165.313 59.3369 165.313 59.3749 165.677Z" fill="#DFE6E9"/>
<path d="M63.8397 168.417C65.8157 167.21 67.4877 165.638 68.8177 163.741C69.0267 163.434 68.5327 163.147 68.3237 163.453C67.0507 165.274 65.4357 166.769 63.5357 167.919C63.2317 168.111 63.5167 168.609 63.8397 168.417Z" fill="#DFE6E9"/>
<path d="M53.6937 186.261C54.9097 188.542 55.6697 190.996 55.9547 193.564C55.9927 193.928 56.5627 193.928 56.5247 193.564C56.2207 190.9 55.4417 188.351 54.1877 185.974C54.0167 185.648 53.5227 185.936 53.6937 186.261Z" fill="#DFE6E9"/>
<path d="M58.4627 185.897C58.9377 188.255 59.2037 190.651 59.2417 193.066C59.2417 193.43 59.8117 193.43 59.8117 193.066C59.7737 190.593 59.5077 188.159 59.0137 185.744C58.9377 185.38 58.3867 185.533 58.4627 185.897Z" fill="#DFE6E9"/>
<path d="M249.337 169.683C249.109 170.449 248.748 171.273 248.634 172.078C248.577 172.404 248.558 172.711 248.767 172.979C249.033 173.305 249.489 173.343 249.869 173.401C250.724 173.554 251.579 173.688 252.434 173.803C255.512 174.225 258.628 174.398 261.725 174.455C264.936 174.513 268.147 174.417 271.377 174.302C272.213 174.263 273.163 174.359 273.961 174.206C274.189 174.168 274.436 174.168 274.588 173.957C274.93 173.516 274.455 173.133 274.018 173.363C273.923 173.42 273.847 173.573 273.885 173.688C273.904 173.708 273.904 173.746 273.923 173.765C274.056 174.11 274.607 173.957 274.474 173.612C274.455 173.593 274.455 173.554 274.436 173.535C274.398 173.65 274.341 173.746 274.303 173.861C274.189 173.784 274.075 173.708 273.961 173.631C273.771 173.631 273.6 173.65 273.41 173.65C273.106 173.669 272.802 173.669 272.479 173.688C271.928 173.708 271.358 173.727 270.807 173.746C269.686 173.784 268.584 173.823 267.463 173.842C265.107 173.899 262.77 173.918 260.414 173.842C258.134 173.784 255.854 173.631 253.593 173.363C252.396 173.228 251.199 173.056 250.002 172.845C249.223 172.711 249.128 172.366 249.337 171.618C249.508 171.024 249.698 170.411 249.869 169.817C249.983 169.472 249.432 169.318 249.337 169.683Z" fill="#DFE6E9"/>
<path d="M249.869 169.989C250.173 169.05 252.263 169.28 253.004 169.261C254.049 169.222 255.113 169.184 256.158 169.165C258.381 169.127 260.604 169.127 262.846 169.203C265.012 169.261 267.178 169.376 269.325 169.548C270.351 169.625 271.472 169.606 272.46 169.836C273.486 170.085 273.486 170.583 273.638 171.407C273.752 172.002 273.866 172.596 273.98 173.19C274.056 173.554 274.607 173.401 274.531 173.037C274.398 172.327 274.246 171.599 274.113 170.89C274.037 170.468 273.98 169.989 273.657 169.663C273.049 169.05 271.738 169.203 270.959 169.127C268.185 168.877 265.411 168.705 262.618 168.628C259.901 168.552 257.165 168.552 254.448 168.647C253.251 168.686 252.016 168.667 250.819 168.82C250.135 168.916 249.508 169.146 249.28 169.855C249.204 170.2 249.755 170.334 249.869 169.989Z" fill="#DFE6E9"/>
<path d="M250.42 173.171C251.256 177.809 251.845 182.486 252.206 187.182C252.225 187.354 252.32 187.45 252.491 187.469C258.077 187.987 263.682 188.121 269.268 187.872C269.629 187.853 269.629 187.278 269.268 187.297C263.663 187.546 258.058 187.412 252.491 186.894C252.586 186.99 252.681 187.086 252.776 187.182C252.415 182.428 251.826 177.713 250.971 173.018C250.895 172.653 250.344 172.807 250.42 173.171Z" fill="#DFE6E9"/>
<path d="M272.365 174.32C271.605 178.69 270.674 183.041 269.553 187.335C269.458 187.699 270.009 187.852 270.104 187.488C271.206 183.195 272.156 178.844 272.916 174.474C272.973 174.11 272.422 173.956 272.365 174.32Z" fill="#DFE6E9"/>
<path d="M237.614 138.69C238.868 142.121 239.78 145.647 240.369 149.231C240.388 149.327 240.483 149.404 240.559 149.423C241.167 149.596 241.775 149.768 242.364 149.941C242.307 149.826 242.231 149.711 242.174 149.596C241.832 151.167 241.68 152.873 243.143 153.87C243.618 154.196 244.112 154.387 244.226 155.02C244.302 155.48 244.264 155.94 244.359 156.4C244.549 157.377 244.948 158.316 245.518 159.121C246.791 160.904 248.786 161.671 250.572 162.801C252.548 164.066 254.087 165.887 255.113 167.996C255.265 168.321 255.759 168.034 255.607 167.708C254.771 165.983 253.593 164.431 252.111 163.223C250.477 161.881 248.368 161.191 246.829 159.754C246.012 159.006 245.423 158.01 245.081 156.956C244.91 156.419 244.815 155.863 244.796 155.307C244.777 155.001 244.834 154.751 244.701 154.483C244.378 153.755 243.447 153.544 242.953 152.969C242.212 152.106 242.497 150.765 242.706 149.749C242.744 149.596 242.668 149.442 242.516 149.404C242.136 149.289 241.376 149.231 241.072 149.001C240.692 148.714 240.711 147.947 240.635 147.487C240.445 146.471 240.217 145.475 239.97 144.459C239.476 142.446 238.868 140.491 238.165 138.556C238.051 138.191 237.5 138.345 237.614 138.69Z" fill="#DFE6E9"/>
<path d="M238.222 138.709C244.758 140.645 250.363 145.149 253.707 151.129C253.878 151.455 254.372 151.167 254.201 150.842C250.8 144.727 245.062 140.127 238.374 138.153C238.013 138.038 237.861 138.594 238.222 138.709Z" fill="#DFE6E9"/>
<path d="M253.023 150.305C256.538 155.576 258.894 161.536 259.958 167.804C260.015 168.168 260.566 168.015 260.509 167.651C259.445 161.345 257.051 155.326 253.517 150.017C253.308 149.711 252.814 149.998 253.023 150.305Z" fill="#DFE6E9"/>
<path d="M239.476 140.319C246.791 147.794 252.871 156.4 257.526 165.792C257.697 166.117 258.191 165.83 258.02 165.504C253.365 156.074 247.228 147.43 239.894 139.917C239.609 139.667 239.21 140.07 239.476 140.319Z" fill="#DFE6E9"/>
<path d="M240.825 147.027C245.67 149.979 249.926 153.812 253.365 158.355C253.593 158.642 254.087 158.355 253.859 158.067C250.363 153.429 246.05 149.519 241.11 146.529C240.806 146.337 240.521 146.836 240.825 147.027Z" fill="#DFE6E9"/>
<path d="M245.651 141.967C246.886 144.67 247.665 147.545 248.007 150.516C248.045 150.88 248.615 150.88 248.577 150.516C248.235 147.449 247.418 144.497 246.145 141.68C245.974 141.335 245.499 141.622 245.651 141.967Z" fill="#DFE6E9"/>
<path d="M258.913 160.214C258.381 147.449 270.408 139.284 275.88 129.03C275.709 128.972 275.519 128.934 275.348 128.877C275.348 130.487 275.329 132.097 275.329 133.707C275.329 134.454 275.329 135.202 275.31 135.93C275.31 136.697 275.595 139.303 274.075 138.824C273.847 138.747 273.619 139.035 273.752 139.246C274.55 140.472 274.74 141.987 274.227 143.386C273.98 144.057 273.714 144.306 273.638 145.034C273.562 145.839 273.486 146.663 273.41 147.468C273.258 149.097 273.087 150.707 272.935 152.337C272.783 153.87 272.802 155.557 272.365 157.032C271.947 158.489 270.75 159.313 269.496 160.022C268.394 160.674 267.292 161.307 266.285 162.092C264.385 163.607 262.922 165.734 262.979 168.245C262.979 168.609 263.549 168.609 263.549 168.245C263.473 164.91 266.133 162.667 268.736 161.115C269.781 160.482 270.921 159.946 271.795 159.064C272.65 158.202 272.973 157.147 273.125 155.959C273.543 152.624 273.771 149.27 274.094 145.935C274.17 145.149 274.303 144.555 274.626 143.846C274.835 143.367 274.968 142.849 275.044 142.332C275.177 141.124 274.892 139.955 274.227 138.939C274.113 139.073 274.018 139.227 273.904 139.361C275.766 139.974 275.842 137.463 275.842 136.294C275.861 133.822 275.861 131.349 275.88 128.857C275.88 128.57 275.481 128.455 275.348 128.704C269.819 139.054 257.754 147.257 258.305 160.176C258.343 160.578 258.913 160.578 258.913 160.214Z" fill="#DFE6E9"/>
<path d="M274.265 134.205C271.377 139.111 268.489 144.018 265.981 149.136C264.765 151.608 263.663 154.119 262.675 156.687C261.706 159.256 260.946 161.92 261.098 164.68C261.117 165.044 261.687 165.044 261.668 164.68C261.497 161.843 262.333 159.121 263.34 156.496C264.347 153.87 265.506 151.282 266.76 148.771C269.192 143.884 271.966 139.169 274.721 134.473C274.949 134.166 274.455 133.879 274.265 134.205Z" fill="#DFE6E9"/>
<path d="M263.112 148.407C262.656 150.42 262.561 152.452 262.846 154.483C262.903 154.847 263.454 154.694 263.397 154.33C263.131 152.394 263.226 150.458 263.663 148.561C263.739 148.197 263.188 148.043 263.112 148.407Z" fill="#DFE6E9"/>
<path d="M268.717 138.575C268.432 140.223 268.47 141.871 268.831 143.501C268.907 143.865 269.458 143.711 269.382 143.347C269.04 141.814 269.002 140.281 269.268 138.728C269.325 138.364 268.793 138.211 268.717 138.575Z" fill="#DFE6E9"/>
<path d="M273.771 152.221C276.868 148.541 279.528 144.535 281.713 140.242C281.542 140.223 281.371 140.204 281.2 140.165C282.226 143.75 282.017 147.449 281.238 151.052C280.858 152.796 280.364 154.521 279.832 156.227C279.585 157.013 279.319 157.799 279.053 158.604C278.768 159.466 278.502 160.693 277.457 160.885C277.324 160.904 277.248 161.038 277.248 161.153C277.21 162.13 277.153 163.185 276.716 164.085C276.165 165.235 275.063 165.542 273.923 165.868C272.213 166.347 270.465 166.845 269.268 168.245C269.021 168.513 269.439 168.935 269.667 168.647C270.503 167.67 271.605 167.171 272.802 166.788C273.809 166.462 274.949 166.328 275.88 165.791C277.514 164.871 277.723 162.84 277.799 161.153C277.723 161.249 277.666 161.345 277.59 161.421C279.072 161.172 279.414 159.255 279.813 158.067C280.497 156.035 281.143 153.985 281.618 151.895C282.53 147.985 282.853 143.903 281.732 139.993C281.675 139.763 281.333 139.705 281.219 139.916C279.072 144.171 276.45 148.139 273.372 151.78C273.125 152.106 273.524 152.509 273.771 152.221Z" fill="#DFE6E9"/>
<path d="M280.079 146.146C278.616 150.842 276.165 155.212 272.916 158.872C270.275 161.824 266.228 164.392 265.791 168.705C265.753 169.069 266.323 169.069 266.361 168.705C266.589 166.347 268.109 164.527 269.705 162.917C271.282 161.326 272.916 159.831 274.322 158.087C277.153 154.598 279.281 150.592 280.611 146.299C280.744 145.954 280.193 145.801 280.079 146.146Z" fill="#DFE6E9"/>
<path d="M215.764 50.6383C214.605 60.3367 211.071 69.6517 205.542 77.6825C205.333 77.9892 205.827 78.2767 206.036 77.97C211.622 69.8625 215.156 60.4325 216.334 50.6383C216.372 50.255 215.802 50.2742 215.764 50.6383Z" fill="#DFE6E9"/>
<path d="M215.859 50.7917C224.219 51.865 232.674 51.9033 241.034 50.9258C241.395 50.8875 241.395 50.3125 241.034 50.3508C232.674 51.3283 224.219 51.29 215.859 50.2167C215.498 50.1783 215.498 50.7533 215.859 50.7917Z" fill="#DFE6E9"/>
<path d="M241.053 51.2706C243.2 61.3906 241.87 72.0856 237.348 81.3814C237.177 81.7072 237.671 81.9947 237.842 81.6689C242.44 72.2389 243.789 61.4097 241.604 51.1172C241.528 50.7531 240.977 50.9064 241.053 51.2706Z" fill="#DFE6E9"/>
<path d="M205.903 78.1997C215.954 81.9564 226.822 81.7839 237.386 81.5731C237.747 81.5731 237.747 80.9981 237.386 80.9981C226.879 81.2089 216.068 81.3814 206.055 77.6439C205.713 77.5097 205.561 78.0656 205.903 78.1997Z" fill="#DFE6E9"/>
<path d="M242.611 63.0005C247.399 61.0455 252.453 59.7805 257.602 59.2821C257.507 59.1863 257.412 59.0905 257.317 58.9946C257.469 66.393 260.452 73.5613 265.563 78.8705C265.81 79.1388 266.228 78.7363 265.962 78.468C260.946 73.2738 258.039 66.2588 257.887 58.9946C257.887 58.8413 257.754 58.688 257.602 58.7071C252.396 59.2246 247.304 60.4705 242.459 62.4446C242.117 62.598 242.269 63.1538 242.611 63.0005Z" fill="#DFE6E9"/>
<path d="M232.218 81.9757C232.978 84.6015 233.795 87.2274 234.764 89.7765C235.543 91.8274 236.55 93.8207 238.241 95.2582C238.526 95.4882 238.925 95.0857 238.64 94.8557C236.873 93.3415 235.885 91.2332 235.106 89.0674C234.251 86.6907 233.491 84.2757 232.769 81.8415C232.655 81.4774 232.123 81.6307 232.218 81.9757Z" fill="#DFE6E9"/>
<path d="M238.868 95.2968C247.456 89.2976 256.595 84.1226 266.114 79.791C266.456 79.6376 266.152 79.1393 265.829 79.2926C256.291 83.6051 247.171 88.7993 238.583 94.7985C238.279 95.0093 238.564 95.5076 238.868 95.2968Z" fill="#DFE6E9"/>
<path d="M217.569 53.2834C224.599 54.1651 231.667 54.7976 238.735 55.1618C239.096 55.1809 239.096 54.6059 238.735 54.5868C231.648 54.2226 224.599 53.5901 217.569 52.7084C217.208 52.6701 217.208 53.2451 217.569 53.2834Z" fill="#DFE6E9"/>
<path d="M217.417 56.1197C218.386 56.7139 219.697 56.618 220.78 56.6947C222.338 56.8097 223.896 56.9247 225.454 57.0397C225.815 57.0589 225.815 56.4839 225.454 56.4647C224.143 56.3689 222.832 56.273 221.521 56.1772C220.343 56.0814 218.728 56.2539 217.702 55.6214C217.398 55.4297 217.113 55.928 217.417 56.1197Z" fill="#DFE6E9"/>
<path d="M216.429 58.9755C219.963 59.2247 223.497 59.4738 227.012 59.723C230.394 59.953 233.909 60.4896 237.291 60.1446C237.652 60.1063 237.652 59.5313 237.291 59.5696C233.909 59.9146 230.394 59.3971 227.012 59.148C223.478 58.8988 219.944 58.6497 216.429 58.4005C216.068 58.3813 216.068 58.9563 216.429 58.9755Z" fill="#DFE6E9"/>
<path d="M215.802 63.8056C218.88 64.8406 222.129 64.8981 225.359 64.8598C228.912 64.8406 232.446 64.8023 235.999 64.7639C236.36 64.7639 236.36 64.1889 235.999 64.1889C232.56 64.2081 229.14 64.2464 225.701 64.2656C222.414 64.2848 219.108 64.2848 215.954 63.2306C215.593 63.1348 215.441 63.6906 215.802 63.8056Z" fill="#DFE6E9"/>
<path d="M211.888 72.4882C211.888 73.1016 211.831 73.7532 211.888 74.3857C211.926 74.6924 212.059 74.9991 212.42 75.0182C212.857 75.0374 213.199 74.5391 213.465 74.2707C213.902 73.8107 214.301 73.3316 214.7 72.8524C214.928 72.5649 214.529 72.1624 214.301 72.4499C213.826 73.0632 213.313 73.6382 212.762 74.1749C212.705 74.2324 212.648 74.2899 212.572 74.3474C212.458 74.4624 212.42 74.4432 212.458 74.2707C212.401 74.1366 212.458 73.8682 212.458 73.7341C212.458 73.3124 212.458 72.9099 212.458 72.4882C212.458 72.124 211.888 72.124 211.888 72.4882Z" fill="#DFE6E9"/>
<path d="M216.486 68.0798C222.604 69.4023 228.874 69.8623 235.106 69.4598C235.467 69.4406 235.467 68.8656 235.106 68.8848C228.912 69.2873 222.699 68.8273 216.638 67.524C216.277 67.4473 216.125 68.0031 216.486 68.0798Z" fill="#DFE6E9"/>
<path d="M239.001 88.3199C246.658 85.5024 253.973 81.8224 260.794 77.3182C261.098 77.1074 260.813 76.609 260.509 76.8199C253.726 81.3049 246.468 84.9849 238.849 87.764C238.507 87.8982 238.659 88.454 239.001 88.3199Z" fill="#DFE6E9"/>
<path d="M237.234 84.7356C242.934 83.0681 248.501 81.0364 253.954 78.6789C254.296 78.5256 253.992 78.0464 253.669 78.1806C248.273 80.5381 242.725 82.5314 237.082 84.1798C236.74 84.2948 236.873 84.8506 237.234 84.7356Z" fill="#DFE6E9"/>
<path d="M239.704 80.1356C242.953 78.7748 246.202 77.3948 249.451 76.034C252.301 74.8265 255.227 73.7339 257.754 71.8939C258.039 71.6831 257.773 71.1848 257.469 71.3956C254.885 73.2739 251.864 74.4048 248.957 75.6315C245.822 76.954 242.687 78.2765 239.552 79.599C239.229 79.7331 239.381 80.289 239.704 80.1356Z" fill="#DFE6E9"/>
<path d="M242.345 74.2708C243.751 73.6766 245.176 73.1016 246.582 72.5074C246.924 72.3732 246.772 71.8174 246.43 71.9516C245.024 72.5457 243.599 73.1208 242.193 73.7149C241.851 73.8491 242.003 74.4049 242.345 74.2708Z" fill="#DFE6E9"/>
<path d="M243.124 66.834C245.005 66.8915 246.905 65.9715 248.634 65.2815C250.439 64.5532 252.206 63.7482 253.935 62.8665C254.258 62.694 253.973 62.1957 253.65 62.3682C251.959 63.2307 250.249 64.0165 248.482 64.7257C246.829 65.3965 244.948 66.3165 243.124 66.259C242.744 66.2398 242.744 66.8148 243.124 66.834Z" fill="#DFE6E9"/>
<path d="M219.526 81.4391C217.379 88.1283 213.788 94.2808 209.057 99.4558C208.886 99.6474 209 99.9349 209.266 99.9541C218.044 100.242 226.176 103.96 233.985 107.717C234.308 107.87 234.612 107.372 234.27 107.218C226.366 103.423 218.158 99.6858 209.266 99.3791C209.342 99.5516 209.399 99.7049 209.475 99.8774C214.282 94.6449 217.911 88.3966 220.096 81.6116C220.191 81.2474 219.64 81.0941 219.526 81.4391Z" fill="#DFE6E9"/>
<path d="M234.631 107.525C237.196 102.503 239.97 97.5964 242.934 92.7855C243.124 92.4789 242.63 92.1722 242.44 92.498C239.476 97.2897 236.702 102.216 234.137 107.237C233.966 107.563 234.46 107.87 234.631 107.525Z" fill="#DFE6E9"/>
<path d="M233.795 100.893C234.156 100.893 234.156 100.318 233.795 100.318C233.415 100.318 233.415 100.893 233.795 100.893Z" fill="#DFE6E9"/>
<path d="M214.092 96.7723C217.056 96.5614 219.564 98.3631 222.281 99.2639C223.763 99.7431 225.302 99.9922 226.784 100.491C228.285 100.97 229.672 101.698 230.983 102.599C231.287 102.81 231.572 102.311 231.268 102.101C230.071 101.276 228.779 100.586 227.411 100.107C225.796 99.5322 224.067 99.2639 222.433 98.7273C219.659 97.8073 217.132 95.9864 214.092 96.2164C213.712 96.2164 213.712 96.7914 214.092 96.7723Z" fill="#DFE6E9"/>
<path d="M217.094 94.319C221.54 95.469 225.796 97.2515 229.729 99.6282C230.052 99.8198 230.337 99.3215 230.014 99.1298C226.043 96.7149 221.749 94.9132 217.246 93.7632C216.885 93.6865 216.733 94.2232 217.094 94.319Z" fill="#DFE6E9"/>
<path d="M218.538 90.965C220.514 91.3867 222.338 92.1917 224.01 93.3417C224.314 93.5525 224.599 93.0542 224.295 92.8434C222.585 91.6742 220.704 90.85 218.69 90.4092C218.329 90.3326 218.177 90.8884 218.538 90.965Z" fill="#DFE6E9"/>
<path d="M219.716 87.8982C222.927 89.1057 226.1 90.3899 229.254 91.7507C229.596 91.904 229.881 91.4057 229.539 91.2524C226.347 89.8724 223.117 88.5499 219.868 87.3424C219.507 87.2274 219.374 87.7832 219.716 87.8982Z" fill="#DFE6E9"/>
<path d="M58.1207 58.2474C57.8167 62.8091 57.7407 67.4091 56.2967 71.7983C54.9477 75.8808 52.6867 79.6183 49.7227 82.7041C49.4757 82.9724 49.8747 83.3749 50.1217 83.1066C53.0857 80.0208 55.3657 76.3024 56.7527 72.2391C58.2917 67.7349 58.3677 62.9624 58.6907 58.2474C58.7097 57.8833 58.1397 57.8833 58.1207 58.2474Z" fill="#DFE6E9"/>
<path d="M58.5198 58.4201C65.9678 58.3242 73.4348 58.3434 80.8828 58.4967C82.7828 58.5351 84.6828 58.5926 86.5638 58.6501C87.5328 58.6884 89.0148 58.4009 89.5278 59.4359C89.8888 60.1642 89.8698 61.3334 89.9838 62.1384C90.4778 65.6651 90.5728 69.2493 90.3068 72.7951C90.0028 76.8201 89.2048 80.7876 87.9698 84.6209C87.8558 84.9659 88.4068 85.1193 88.5208 84.7743C90.8388 77.5868 91.5798 69.9201 90.5918 62.4259C90.4968 61.6401 90.3638 60.8542 90.2308 60.0876C90.1358 59.5317 90.0788 58.8226 89.5848 58.4584C89.1098 58.0942 88.4448 58.1517 87.8938 58.1326C86.8108 58.0942 85.7468 58.0559 84.6638 58.0367C80.5598 57.9217 76.4558 57.8451 72.3518 57.8259C67.7348 57.7876 63.1178 57.8067 58.5198 57.8642C58.1588 57.8642 58.1588 58.4392 58.5198 58.4201Z" fill="#DFE6E9"/>
<path d="M49.8558 83.4135C59.5078 86.1352 69.7108 86.4227 79.5148 84.2952C79.8758 84.2185 79.7238 83.6627 79.3628 83.7393C69.6728 85.8668 59.5648 85.5602 50.0078 82.8577C49.6468 82.7618 49.4948 83.2985 49.8558 83.4135Z" fill="#DFE6E9"/>
<path d="M88.5209 59.7999C88.0839 68.1758 85.8039 76.3599 81.8519 83.7199C81.6809 84.0457 82.1749 84.3333 82.3459 84.0074C86.3359 76.5516 88.6539 68.2716 89.0909 59.7999C89.1099 59.4358 88.5399 59.4358 88.5209 59.7999Z" fill="#DFE6E9"/>
<path d="M88.5208 61.3905C89.0528 63.9397 88.8248 66.508 88.3878 69.038C88.0078 71.2422 87.5708 73.4463 87.0768 75.6505C86.1078 79.963 84.7968 84.218 82.2888 87.8788C82.0798 88.1855 82.5738 88.473 82.7828 88.1663C85.3858 84.3713 86.7158 79.9438 87.7038 75.478C88.7108 70.9163 90.0598 65.9138 89.0718 61.2372C88.9958 60.873 88.4448 61.0263 88.5208 61.3905Z" fill="#DFE6E9"/>
<path d="M88.9386 63.2305C89.6036 71.9321 88.1975 80.6913 84.8345 88.7413C84.7015 89.0863 85.2525 89.2396 85.3855 88.8946C88.7485 80.8063 90.1736 71.9896 89.5086 63.2305C89.4896 62.8663 88.9196 62.8663 88.9386 63.2305Z" fill="#DFE6E9"/>
<path d="M53.4847 88.1666C63.0037 89.8149 72.7317 89.7574 82.2317 88.0133C82.5927 87.9558 82.4407 87.3999 82.0797 87.4574C72.6937 89.1824 63.0417 89.2399 53.6367 87.6108C53.2757 87.5532 53.1237 88.1091 53.4847 88.1666Z" fill="#DFE6E9"/>
<path d="M54.7389 84.9079C54.3019 85.6363 53.7319 86.2496 53.0479 86.7479C52.7439 86.9588 53.0289 87.4571 53.3329 87.2463C54.0929 86.6904 54.7389 86.0196 55.2139 85.2146C55.4229 84.8888 54.9289 84.6013 54.7389 84.9079Z" fill="#DFE6E9"/>
<path d="M56.069 89.1054C55.822 89.5845 55.537 90.0445 55.195 90.4662C54.967 90.7537 55.366 91.1562 55.594 90.8687C55.974 90.4087 56.297 89.9295 56.544 89.3929C56.715 89.067 56.24 88.7604 56.069 89.1054Z" fill="#DFE6E9"/>
<path d="M55.5178 91.2523C65.0748 92.3832 74.7838 91.7698 84.1318 89.4315C84.4928 89.3357 84.3408 88.7799 83.9798 88.8757C74.6888 91.1948 65.0368 91.789 55.5178 90.6582C55.1568 90.639 55.1568 91.214 55.5178 91.2523Z" fill="#DFE6E9"/>
<path d="M60.1729 65.9521C68.3809 64.8213 76.6649 65.3579 84.8919 65.9329C85.2529 65.9521 85.2529 65.3771 84.8919 65.3579C76.6079 64.7829 68.2859 64.2463 60.0209 65.3963C59.6599 65.4346 59.8119 65.9904 60.1729 65.9521Z" fill="#DFE6E9"/>
<path d="M57.8167 74.5391C65.5117 74.6541 73.1877 75.0183 80.8447 75.6316C81.2057 75.6699 81.2057 75.0949 80.8447 75.0566C73.1877 74.4241 65.5117 74.0599 57.8167 73.9641C57.4367 73.9641 57.4367 74.5391 57.8167 74.5391Z" fill="#DFE6E9"/>
<path d="M55.5178 78.9857C64.0298 79.3882 72.5418 79.8099 81.0538 80.2124C81.4148 80.2316 81.4148 79.6566 81.0538 79.6374C72.5418 79.2349 64.0298 78.8132 55.5178 78.4107C55.1568 78.3916 55.1568 78.9666 55.5178 78.9857Z" fill="#DFE6E9"/>
<path d="M62.5478 71.166C60.9328 75.0377 59.3938 78.9285 57.9688 82.8769C57.8358 83.2219 58.3868 83.3752 58.5198 83.0302C59.9448 79.1394 61.4458 75.2869 63.0418 71.4727C63.1748 71.1277 62.6808 70.821 62.5478 71.166Z" fill="#DFE6E9"/>
<path d="M68.989 71.8363C67.108 75.6697 65.55 79.618 64.201 83.643C64.087 83.988 64.638 84.1413 64.752 83.7963C66.082 79.8097 67.621 75.8997 69.483 72.1238C69.654 71.798 69.16 71.5105 68.989 71.8363Z" fill="#DFE6E9"/>
<path d="M76.2086 72.2965C74.0426 75.8423 72.4276 79.6948 71.4206 83.7389C71.3256 84.1031 71.8766 84.2564 71.9716 83.8923C72.9596 79.8864 74.5556 76.0915 76.7026 72.584C76.8926 72.2773 76.3986 71.9898 76.2086 72.2965Z" fill="#DFE6E9"/>
<path d="M81.9089 72.5647C80.1229 76.053 78.6029 79.6755 77.3489 83.413C77.2349 83.758 77.7859 83.9114 77.8999 83.5664C79.1349 79.8864 80.6359 76.3214 82.4029 72.8714C82.5549 72.5264 82.0799 72.2389 81.9089 72.5647Z" fill="#DFE6E9"/>
<path d="M57.0186 75.9384C57.8546 76.3218 58.5577 76.8393 59.1847 77.5101C59.4317 77.7784 59.8307 77.3759 59.5837 77.1076C58.9377 76.3984 58.1777 75.8426 57.3036 75.4401C56.9616 75.3059 56.6766 75.7851 57.0186 75.9384Z" fill="#DFE6E9"/>
<path d="M59.6029 74.9608C58.3869 75.6891 57.3229 76.6091 56.4299 77.7016C56.2019 77.9891 56.6009 78.3916 56.8289 78.1041C57.7029 77.0308 58.7099 76.1491 59.8879 75.4591C60.2109 75.2674 59.9259 74.7691 59.6029 74.9608Z" fill="#DFE6E9"/>
<path d="M67.2218 80.9789C68.2858 81.6114 69.1978 82.3972 69.9958 83.3364C70.2238 83.6239 70.6418 83.2022 70.3948 82.9339C69.5778 81.9564 68.6088 81.1322 67.5068 80.4805C67.2028 80.2889 66.9178 80.7872 67.2218 80.9789Z" fill="#DFE6E9"/>
<path d="M70.452 80.1738C69.236 81.0938 68.115 82.1288 67.089 83.2597C66.842 83.528 67.241 83.9496 67.488 83.6622C68.476 82.5505 69.559 81.5538 70.737 80.653C71.022 80.4613 70.737 79.963 70.452 80.1738Z" fill="#DFE6E9"/>
<path d="M61.9207 75.0755C62.9087 75.9955 63.8967 76.8963 64.8847 77.8163C65.1507 78.0655 65.5497 77.663 65.2837 77.4138C64.2957 76.4938 63.3077 75.593 62.3197 74.673C62.0537 74.4047 61.6547 74.8072 61.9207 75.0755Z" fill="#DFE6E9"/>
<path d="M65.1698 74.6158C63.7828 75.4208 62.5668 76.4558 61.5788 77.7208C61.3508 78.0083 61.7498 78.4108 61.9778 78.1233C62.9468 76.8966 64.1058 75.9 65.4548 75.1141C65.7778 74.9225 65.4738 74.4241 65.1698 74.6158Z" fill="#DFE6E9"/>
<path d="M69.1031 78.9092C67.7351 78.1617 67.545 76.3025 68.856 75.3442C69.844 74.6351 71.8581 74.0409 72.6181 75.3442C73.2831 76.5134 72.4851 77.9317 71.5351 78.6409C70.0531 79.7334 69.0081 78.5259 68.3241 77.28C68.1531 76.9542 67.6591 77.2417 67.8301 77.5675C68.7041 79.1584 70.1101 80.4042 71.8581 79.12C73.1501 78.1809 74.043 76.1875 72.941 74.7692C71.801 73.3126 69.198 74.0792 68.096 75.2292C66.861 76.5325 67.3171 78.545 68.8181 79.3692C69.1411 79.58 69.4261 79.0817 69.1031 78.9092Z" fill="#DFE6E9"/>
<path d="M61.0468 59.7617C60.6858 61.0842 60.5718 62.4259 60.7618 63.8059C60.7998 64.1701 61.3888 64.1701 61.3318 63.8059C61.1608 62.4834 61.2368 61.1992 61.5978 59.9151C61.6928 59.5701 61.1418 59.4167 61.0468 59.7617Z" fill="#DFE6E9"/>
<path d="M61.408 60.1062C68.552 59.3012 75.753 59.1096 82.935 59.5504C82.84 59.4546 82.745 59.3587 82.65 59.2629C82.745 60.3937 82.726 61.5054 82.536 62.6171C82.479 62.9812 83.03 63.1346 83.087 62.7704C83.277 61.6012 83.334 60.4512 83.22 59.2629C83.201 59.1096 83.106 58.9946 82.935 58.9754C75.753 58.5346 68.552 58.7262 61.408 59.5312C61.047 59.5696 61.047 60.1446 61.408 60.1062Z" fill="#DFE6E9"/>
<path d="M61.9587 63.6142C68.7987 63.4608 75.6387 63.3075 82.4787 63.1542C82.8397 63.1542 82.8397 62.5792 82.4787 62.5792C75.6387 62.7325 68.7987 62.8858 61.9587 63.0392C61.5977 63.0583 61.5977 63.6333 61.9587 63.6142Z" fill="#DFE6E9"/>
<path d="M176.567 176.851C187.245 176.851 197.904 176.851 208.582 176.851C209.684 176.851 209.684 175.126 208.582 175.126C197.904 175.126 187.245 175.126 176.567 175.126C175.465 175.126 175.465 176.851 176.567 176.851Z" fill="#111314"/>
<path d="M212.458 176.851C214.757 176.851 217.037 176.851 219.336 176.851C220.438 176.851 220.438 175.126 219.336 175.126C217.037 175.126 214.757 175.126 212.458 175.126C211.356 175.126 211.356 176.851 212.458 176.851Z" fill="#111314"/>
<path d="M226.233 175.643C227.62 175.643 229.026 175.643 230.413 175.643C231.515 175.643 231.515 173.918 230.413 173.918C229.026 173.918 227.62 173.918 226.233 173.918C225.131 173.918 225.131 175.643 226.233 175.643Z" fill="#111314"/>
<path d="M28.9178 195.021C44.3078 194.637 59.6978 194.35 75.0878 194.177C79.4958 194.12 83.9228 194.081 88.3308 194.043C88.6918 194.043 88.6918 193.468 88.3308 193.468C72.9408 193.583 57.5508 193.813 42.1608 194.139C37.7528 194.235 33.3258 194.331 28.9178 194.446C28.5378 194.465 28.5378 195.04 28.9178 195.021Z" fill="#111314"/>
<path d="M70.471 198.222C82.137 197.723 93.822 197.8 105.469 198.452C105.83 198.471 105.83 197.896 105.469 197.877C93.822 197.225 82.137 197.148 70.471 197.647C70.091 197.666 70.091 198.241 70.471 198.222Z" fill="#111314"/>
<path d="M254.923 174.282C254.182 176.046 253.213 177.675 252.016 179.17C251.788 179.457 252.187 179.86 252.415 179.572C253.688 178.001 254.695 176.295 255.474 174.436C255.607 174.091 255.056 173.937 254.923 174.282Z" fill="#DFE6E9"/>
<path d="M258.514 173.861C257.013 177.215 254.866 180.224 252.187 182.735C251.921 182.984 252.32 183.386 252.586 183.137C255.303 180.607 257.469 177.56 259.008 174.148C259.16 173.822 258.666 173.535 258.514 173.861Z" fill="#DFE6E9"/>
<path d="M262.238 174.052C259.863 178.921 256.462 183.176 252.225 186.53C251.94 186.76 252.339 187.162 252.624 186.932C256.88 183.54 260.319 179.227 262.713 174.321C262.884 174.014 262.39 173.727 262.238 174.052Z" fill="#DFE6E9"/>
<path d="M265.715 174.206C263.131 178.94 259.92 183.252 256.12 187.067C255.854 187.335 256.272 187.737 256.519 187.469C260.338 183.636 263.606 179.266 266.19 174.493C266.399 174.167 265.905 173.88 265.715 174.206Z" fill="#DFE6E9"/>
<path d="M268.812 174.072C266.342 178.902 263.283 183.387 259.654 187.412C259.407 187.68 259.806 188.102 260.053 187.814C263.701 183.751 266.817 179.247 269.306 174.359C269.477 174.033 268.983 173.746 268.812 174.072Z" fill="#DFE6E9"/>
<path d="M271.32 174.091C269.059 178.959 266.114 183.482 262.561 187.488C262.314 187.756 262.713 188.178 262.96 187.891C266.551 183.827 269.534 179.285 271.814 174.359C271.985 174.052 271.491 173.746 271.32 174.091Z" fill="#DFE6E9"/>
<path d="M271.624 177.809C269.857 181.374 267.691 184.709 265.164 187.776C264.936 188.063 265.335 188.466 265.563 188.178C268.128 185.073 270.332 181.7 272.118 178.097C272.289 177.771 271.795 177.483 271.624 177.809Z" fill="#DFE6E9"/>
<path d="M105.602 13.1674C105.602 16.4257 105.602 19.6841 105.602 22.9232C105.602 23.2874 106.172 23.2874 106.172 22.9232C106.172 19.6649 106.172 16.4065 106.172 13.1674C106.172 12.784 105.602 12.784 105.602 13.1674Z" fill="#DFE6E9"/>
<path d="M95.2279 23.4598C104.747 23.4598 114.247 23.4598 123.766 23.4598C124.127 23.4598 124.127 22.8848 123.766 22.8848C114.247 22.8848 104.747 22.8848 95.2279 22.8848C94.8479 22.8848 94.8479 23.4598 95.2279 23.4598Z" fill="#DFE6E9"/>
<path d="M115.292 24.1693C115.292 27.1785 115.292 30.1685 115.292 33.1776C115.292 33.5418 115.862 33.5418 115.862 33.1776C115.862 30.1685 115.862 27.1785 115.862 24.1693C115.862 23.8051 115.292 23.8051 115.292 24.1693Z" fill="#DFE6E9"/>
<path d="M100.434 34.2312C109.706 34.2312 118.959 34.2312 128.231 34.2312C128.592 34.2312 128.592 33.6562 128.231 33.6562C118.959 33.6562 109.706 33.6562 100.434 33.6562C100.073 33.6562 100.073 34.2312 100.434 34.2312Z" fill="#DFE6E9"/>
<path d="M99.9019 34.4425C99.9019 36.7041 99.9019 38.9466 99.9019 41.2083C99.9019 41.5725 100.472 41.5725 100.472 41.2083C100.472 38.9466 100.472 36.7041 100.472 34.4425C100.472 34.0783 99.9019 34.0591 99.9019 34.4425Z" fill="#DFE6E9"/>
<path d="M237.766 114.252C243.523 114.252 249.261 114.252 255.018 114.252C255.379 114.252 255.379 113.677 255.018 113.677C249.261 113.677 243.523 113.677 237.766 113.677C237.386 113.677 237.386 114.252 237.766 114.252Z" fill="#DFE6E9"/>
<path d="M246.886 114.482C246.886 116.763 246.886 119.044 246.886 121.344C246.886 121.708 247.456 121.708 247.456 121.344C247.456 119.063 247.456 116.782 247.456 114.482C247.456 114.118 246.886 114.118 246.886 114.482Z" fill="#DFE6E9"/>
<path d="M236.455 121.631C243.086 121.631 249.698 121.631 256.329 121.631C256.69 121.631 256.69 121.056 256.329 121.056C249.698 121.056 243.086 121.056 236.455 121.056C236.094 121.056 236.094 121.631 236.455 121.631Z" fill="#DFE6E9"/>
<path d="M241.661 121.612C241.661 123.548 241.661 125.484 241.661 127.42C241.661 127.784 242.231 127.784 242.231 127.42C242.231 125.484 242.231 123.548 242.231 121.612C242.231 121.229 241.661 121.229 241.661 121.612Z" fill="#DFE6E9"/>
<path d="M254.201 121.862C254.201 123.797 254.201 125.733 254.201 127.669C254.201 128.033 254.771 128.033 254.771 127.669C254.771 125.733 254.771 123.797 254.771 121.862C254.771 121.497 254.201 121.497 254.201 121.862Z" fill="#DFE6E9"/>
<path d="M68.6468 177.081C77.2728 177.081 85.8988 177.081 94.5248 177.081C94.8858 177.081 94.8858 176.506 94.5248 176.506C85.8988 176.506 77.2728 176.506 68.6468 176.506C68.2668 176.506 68.2668 177.081 68.6468 177.081Z" fill="#DFE6E9"/>
<path d="M28.9178 177.445C34.3518 177.445 39.7858 177.445 45.2198 177.445C45.5808 177.445 45.5808 176.87 45.2198 176.87C39.7858 176.87 34.3518 176.87 28.9178 176.87C28.5378 176.87 28.5378 177.445 28.9178 177.445Z" fill="#DFE6E9"/>
<path d="M63.2127 131.943C71.8387 131.943 80.4647 131.943 89.0907 131.943C89.4517 131.943 89.4517 131.368 89.0907 131.368C80.4647 131.368 71.8387 131.368 63.2127 131.368C62.8327 131.368 62.8327 131.943 63.2127 131.943Z" fill="#DFE6E9"/>
<path d="M77.6719 132.173C77.6719 134.167 77.6719 136.179 77.6719 138.173C77.6719 138.537 78.2419 138.537 78.2419 138.173C78.2419 136.179 78.2419 134.167 78.2419 132.173C78.2419 131.809 77.6719 131.809 77.6719 132.173Z" fill="#DFE6E9"/>
<path d="M72.7889 138.46C79.5149 138.46 86.2409 138.46 92.9669 138.46C93.3279 138.46 93.3279 137.885 92.9669 137.885C86.2409 137.885 79.5149 137.885 72.7889 137.885C72.4089 137.885 72.4089 138.46 72.7889 138.46Z" fill="#DFE6E9"/>
<path d="M88.0269 138.69C88.0269 140.856 88.0269 143.041 88.0269 145.207C88.0269 145.571 88.5968 145.571 88.5968 145.207C88.5968 143.041 88.5968 140.856 88.5968 138.69C88.5968 138.326 88.0269 138.326 88.0269 138.69Z" fill="#DFE6E9"/>
<path d="M227.62 179.131C234.935 179.131 242.231 179.131 249.546 179.131C249.907 179.131 249.907 178.556 249.546 178.556C242.231 178.556 234.935 178.556 227.62 178.556C227.24 178.556 227.24 179.131 227.62 179.131Z" fill="#DFE6E9"/>
<path d="M274.55 177.042C282.321 177.042 290.073 177.042 297.844 177.042C298.205 177.042 298.205 176.467 297.844 176.467C290.073 176.467 282.321 176.467 274.55 176.467C274.189 176.467 274.189 177.042 274.55 177.042Z" fill="#DFE6E9"/>
<path d="M199.918 122.513C199.918 126.193 199.918 129.892 199.918 133.572C199.918 133.937 200.488 133.937 200.488 133.572C200.488 129.892 200.488 126.193 200.488 122.513C200.488 122.13 199.918 122.13 199.918 122.513Z" fill="#DFE6E9"/>
<path d="M200.545 127.976C203.965 127.976 207.404 127.976 210.824 127.976C211.185 127.976 211.185 127.401 210.824 127.401C207.404 127.401 203.965 127.401 200.545 127.401C200.184 127.401 200.184 127.976 200.545 127.976Z" fill="#DFE6E9"/>
<path d="M210.197 123.893C210.197 127.343 210.197 130.812 210.197 134.262C210.197 134.626 210.767 134.626 210.767 134.262C210.767 130.812 210.767 127.343 210.767 123.893C210.767 123.51 210.197 123.51 210.197 123.893Z" fill="#DFE6E9"/>
<path d="M203.642 135.24C209 135.24 214.377 135.24 219.735 135.24C220.096 135.24 220.096 134.665 219.735 134.665C214.377 134.665 209 134.665 203.642 134.665C203.262 134.665 203.262 135.24 203.642 135.24Z" fill="#DFE6E9"/>
<path d="M214.662 135.987C214.662 138.632 214.662 141.277 214.662 143.942C214.662 144.306 215.232 144.306 215.232 143.942C215.232 141.297 215.232 138.652 215.232 135.987C215.232 135.604 214.662 135.604 214.662 135.987Z" fill="#DFE6E9"/>
<path d="M171.304 27.7533C171.304 33.7525 171.304 39.7517 171.304 45.7508C171.304 46.115 171.874 46.115 171.874 45.7508C171.874 39.7517 171.874 33.7525 171.874 27.7533C171.874 27.3892 171.304 27.3892 171.304 27.7533Z" fill="#DFE6E9"/>
<path d="M171.893 27.7148C181.241 27.7148 190.589 27.7148 199.918 27.7148C200.279 27.7148 200.279 27.1398 199.918 27.1398C190.57 27.1398 181.222 27.1398 171.893 27.1398C171.532 27.1398 171.532 27.7148 171.893 27.7148Z" fill="#DFE6E9"/>
<path d="M199.671 27.6575C199.671 33.5992 199.671 39.5409 199.671 45.4634C199.671 45.8275 200.241 45.8275 200.241 45.4634C200.241 39.5217 200.241 33.58 200.241 27.6575C200.241 27.2934 199.671 27.2934 199.671 27.6575Z" fill="#DFE6E9"/>
<path d="M171.836 46.2299C181.279 46.2299 190.741 46.2299 200.184 46.2299C200.545 46.2299 200.545 45.6549 200.184 45.6549C190.741 45.6549 181.279 45.6549 171.836 45.6549C171.475 45.6549 171.475 46.2299 171.836 46.2299Z" fill="#DFE6E9"/>
<path d="M184.015 27.1209C183.92 26.6034 183.901 26.0859 183.996 25.5684C184.091 25.1084 184.319 24.1884 184.851 24.7634C185.117 25.0509 185.136 25.6834 185.212 26.0476C185.307 26.5268 185.402 27.0251 185.497 27.5043C185.573 27.8684 186.124 27.7151 186.048 27.3509C185.877 26.5076 185.801 25.5684 185.478 24.7634C185.307 24.3418 184.984 23.8434 184.471 23.8626C183.901 23.8818 183.673 24.4951 183.54 24.9743C183.312 25.7218 183.312 26.4884 183.464 27.2359C183.521 27.6384 184.072 27.4851 184.015 27.1209Z" fill="#DFE6E9"/>
<path d="M172.957 29.8231C172.957 34.4806 172.957 39.1381 172.957 43.7956C172.957 44.1598 173.527 44.1598 173.527 43.7956C173.527 39.1381 173.527 34.4806 173.527 29.8231C173.527 29.4398 172.957 29.4398 172.957 29.8231Z" fill="#DFE6E9"/>
<path d="M173.394 29.7849C181.602 29.7849 189.81 29.7849 197.999 29.7849C198.36 29.7849 198.36 29.2099 197.999 29.2099C189.791 29.2099 181.583 29.2099 173.394 29.2099C173.033 29.2099 173.033 29.7849 173.394 29.7849Z" fill="#DFE6E9"/>
<path d="M198.037 29.3443C198.037 34.3085 198.037 39.2726 198.037 44.2368C198.037 44.601 198.607 44.601 198.607 44.2368C198.607 39.2726 198.607 34.3085 198.607 29.3443C198.607 28.9801 198.037 28.9801 198.037 29.3443Z" fill="#DFE6E9"/>
<path d="M173.698 44.2174C181.849 44.2174 190 44.2174 198.151 44.2174C198.512 44.2174 198.512 43.6424 198.151 43.6424C190 43.6424 181.849 43.6424 173.698 43.6424C173.337 43.6424 173.337 44.2174 173.698 44.2174Z" fill="#DFE6E9"/>
<path d="M173.375 39.2147C177.099 38.1988 180.823 37.3172 184.642 38.4097C187.796 39.3297 190.684 41.0355 193.952 41.5913C194.313 41.6488 194.465 41.093 194.104 41.0355C190.627 40.4413 187.587 38.5438 184.186 37.7005C180.481 36.7805 176.814 37.6813 173.242 38.6588C172.862 38.7547 173.014 39.3105 173.375 39.2147Z" fill="#DFE6E9"/>
<path d="M186.447 39.1767C189.962 38.7742 193.458 37.375 197.011 38.1225C197.372 38.1992 197.524 37.6433 197.163 37.5667C193.534 36.8 190.019 38.18 186.447 38.5825C186.086 38.64 186.086 39.2342 186.447 39.1767Z" fill="#DFE6E9"/>
<path d="M187.055 35.0939C186.618 34.6723 186.58 33.9248 187.036 33.5031C187.53 33.0239 188.423 33.1581 188.803 33.7139C189.202 34.2698 189.107 35.1131 188.594 35.5539C187.967 36.0906 187.131 35.6689 186.694 35.1131C186.485 34.8256 185.972 35.1131 186.2 35.4006C186.808 36.2248 187.929 36.7614 188.841 36.0906C189.696 35.4581 189.829 34.1356 189.183 33.3114C188.613 32.5831 187.435 32.4298 186.713 33.0239C185.953 33.6373 185.934 34.8639 186.637 35.5348C186.922 35.7456 187.321 35.3431 187.055 35.0939Z" fill="#DFE6E9"/>
<path d="M209.684 162.974C210.292 161.709 211.299 160.157 212.933 159.697C215.441 158.987 217.227 161.517 220.97 163.357C227.734 166.692 233.624 164.201 234.175 166.06C234.612 167.536 231.097 169.932 228.817 171.082C224.238 173.382 215.593 175.241 211.603 170.315C211.014 169.587 209.38 167.306 209.684 162.974Z" fill="#111314" stroke="#111314" stroke-width="3" stroke-miterlimit="10"/>
<path d="M204.516 165.466C203.699 164.68 203.338 163.683 203.186 162.955C204.611 158.144 207.575 154.483 211.033 154.081C213.256 153.831 215.441 154.943 217.151 155.825C219.944 157.243 220.001 158.182 222.699 159.869C227.24 162.725 230.47 162.207 230.736 163.721C230.983 165.14 228.437 167.095 225.948 167.976C220.951 169.74 219.374 166.079 211.603 166.424C208.848 166.558 206.283 167.152 204.516 165.466Z" fill="#111314" stroke="#111314" stroke-width="3" stroke-miterlimit="10"/>
<path d="M170.24 134.186C170.62 136.563 171.209 140.415 171.817 145.168C174.135 163.032 173.204 165.638 175.978 169.357C182.381 177.943 196.65 176.487 197.771 176.353C205.903 175.413 211.413 171.101 213.617 169.165C212.363 166.961 211.109 164.776 209.855 162.572C203.585 162.629 197.315 162.706 191.026 162.763C192.375 157.857 193.952 149.615 192.603 139.591C191.577 131.924 189.221 125.868 187.245 121.804C182.077 122.188 176.111 123.05 169.613 124.794C166.478 125.638 163.571 126.596 160.892 127.593C160.759 131.215 160.588 136.371 160.493 142.581C160.17 166.079 161.5 170.909 164.844 173.363C166.478 174.551 169.328 174.647 174.952 174.762C184.737 174.973 193.021 172.385 202.692 169.357C204.877 168.667 206.644 168.073 207.727 167.708C207.176 163.319 206.606 158.949 206.055 154.56C202.198 155.614 198.17 156.611 193.99 157.569C189.981 158.47 186.086 159.275 182.305 159.965" fill="#F7FAFC"/>
<path d="M170.24 134.186C170.62 136.563 171.209 140.415 171.817 145.168C174.135 163.032 173.204 165.638 175.978 169.357C182.381 177.943 196.65 176.487 197.771 176.353C205.903 175.413 211.413 171.101 213.617 169.165C212.363 166.961 211.109 164.776 209.855 162.572C203.585 162.629 197.315 162.706 191.026 162.763C192.375 157.857 193.952 149.615 192.603 139.591C191.577 131.924 189.221 125.868 187.245 121.804C182.077 122.188 176.111 123.05 169.613 124.794C166.478 125.638 163.571 126.596 160.892 127.593C160.759 131.215 160.588 136.371 160.493 142.581C160.17 166.079 161.5 170.909 164.844 173.363C166.478 174.551 169.328 174.647 174.952 174.762C184.737 174.973 193.021 172.385 202.692 169.357C204.877 168.667 206.644 168.073 207.727 167.708C207.176 163.319 206.606 158.949 206.055 154.56C202.198 155.614 198.17 156.611 193.99 157.569C189.981 158.47 186.086 159.275 182.305 159.965" stroke="#111314"/>
<path d="M168.169 137.214C170.145 137.961 170.487 140.472 170.677 142.312C170.943 144.785 171.095 147.257 171.247 149.749C171.551 154.598 171.874 159.466 173.071 164.181C173.166 164.546 173.717 164.392 173.622 164.028C172.254 158.642 172.045 153.084 171.684 147.583C171.532 145.226 171.475 142.791 170.981 140.472C170.639 138.862 169.936 137.291 168.321 136.677C167.979 136.543 167.827 137.099 168.169 137.214Z" fill="#636E72"/>
<path d="M177.194 170.372C178.657 171.657 180.082 173.152 181.716 174.244C183.293 175.298 185.193 175.682 187.036 176.027C187.397 176.103 187.549 175.547 187.188 175.471C185.402 175.126 183.559 174.781 182.001 173.746C180.424 172.692 179.037 171.235 177.593 169.97C177.327 169.721 176.909 170.142 177.194 170.372Z" fill="#636E72"/>
<path d="M191.349 160.789C193.42 160.827 195.434 161.211 197.372 161.92C197.714 162.054 197.866 161.498 197.524 161.364C195.529 160.636 193.458 160.252 191.349 160.214C190.969 160.195 190.969 160.77 191.349 160.789Z" fill="#636E72"/>
<path opacity="0.58" d="M160.759 140.722C160.873 138.939 162.089 137.348 163.723 136.62C165.433 135.872 167.561 136.371 168.872 137.425C171.152 139.227 170.962 142.619 171.057 146.721C171.228 154.215 171.437 163.204 175.807 169.203C176.814 170.583 178.638 172.634 181.944 174.397C180.234 175.222 177.175 176.41 173.318 176.199C171.646 176.103 167.143 175.816 163.913 172.5C162.336 170.89 160.968 168.437 160.55 156.611C160.417 152.567 160.379 147.142 160.759 140.722Z" fill="#636E72"/>
<path opacity="0.59" d="M191.843 158.202C196.574 156.975 201.305 155.748 206.036 154.522C206.321 157.167 206.587 159.831 206.872 162.476C204.725 161.882 202.293 161.326 199.652 160.885C196.593 160.387 193.781 160.138 191.273 160.042C191.463 159.428 191.653 158.815 191.843 158.202Z" fill="#636E72"/>
<path d="M162.07 80.1165C162.013 78.7748 162.165 77.299 163.039 76.8007C166.174 75.0373 177.631 86.4032 183.255 98.9957C185.459 103.941 188.157 112.201 187.568 123.529C178.866 125.139 170.183 126.768 161.481 128.378C159.999 125.867 157.491 122.053 153.634 118.028C149.777 114.003 148.314 113.697 146.661 110.764C143.127 104.477 145.027 97.3282 145.502 95.5265C146.129 93.1882 147.497 88.1665 152.247 84.2757C156.066 81.1323 160.17 80.3465 162.07 80.1165Z" fill="#F7FAFC" stroke="#111314" stroke-miterlimit="10"/>
<path opacity="0.36" d="M161.747 83.1833C164.008 84.755 171.893 90.6008 175.085 101.775C178.562 114.003 173.945 123.989 172.805 126.27C177.783 125.427 182.78 124.602 187.758 123.759C188.062 118.891 187.948 110.304 184.186 100.587C179.474 88.435 171.57 81.1708 167.656 78.0083C165.68 79.7333 163.723 81.4583 161.747 83.1833Z" fill="#636E72"/>
<path opacity="0.4" d="M181.697 96.3696C182.02 98.2288 182.4 100.95 182.552 104.285C182.818 110.17 183.027 114.367 180.975 118.66C180.177 120.347 178.41 123.337 174.572 126.059C178.923 125.254 183.255 124.468 187.606 123.663C187.815 119.657 187.644 114.06 186.029 107.678C184.832 103.097 183.217 99.283 181.697 96.3696Z" fill="#636E72"/>
<path d="M125.153 78.5261C126.483 80.4811 127.68 82.0911 128.649 83.3178C131.024 86.3653 131.936 87.1511 133.209 87.4195C134.292 87.6495 135.318 87.4578 135.926 87.3236C137.617 86.9786 138.301 86.2886 139.422 85.752C140.904 85.062 141.493 85.407 146.3 85.4645C149.777 85.5028 149.397 85.3111 152.513 85.3686C155.249 85.4261 157.51 85.5986 159.106 85.752C158.65 85.3878 158.194 85.0428 157.757 84.6786C157.13 84.5061 155.306 83.9311 153.881 82.1295C152.703 80.6345 152.418 79.1011 152.323 78.4111C152.722 78.2961 153.425 78.0086 153.881 77.3378C154.831 75.9195 153.843 73.9836 153.501 73.332C153.083 72.527 152.323 71.0703 151.278 71.1853C150.499 71.262 149.758 72.182 149.53 73.4278C147.744 74.0028 145.046 74.5395 142.253 73.6195C136.99 71.8753 135.907 66.3553 133.038 66.2786C131.176 66.2595 128.535 68.4445 125.153 78.5261Z" fill="#F7FAFC"/>
<path d="M124.64 77.6442C126.141 81.1134 128.421 84.18 131.29 86.6142C131.575 86.8442 131.974 86.4417 131.689 86.2117C128.839 83.7967 126.616 80.7875 125.115 77.3567C124.982 77.0309 124.488 77.3184 124.64 77.6442Z" fill="#111314"/>
<path d="M133.76 81.7841C133.931 82.7616 134.14 83.72 134.387 84.6783C134.615 85.5024 134.786 86.4991 135.204 87.2466C135.793 88.3008 137.674 86.9974 138.282 86.5183C138.567 86.2883 138.168 85.8858 137.883 86.1158C137.465 86.4416 136.629 87.0933 136.059 87.0166C135.432 86.9399 135.28 85.6941 135.128 85.215C134.786 84.0458 134.52 82.8575 134.311 81.65C134.235 81.2666 133.684 81.42 133.76 81.7841Z" fill="#111314"/>
<path d="M131.157 81.8994C130.435 81.2861 129.504 80.5003 129.846 79.4269C129.694 79.4653 129.523 79.5036 129.371 79.5611C130.112 80.2894 130.682 81.1519 131.043 82.1294C131.1 82.0144 131.176 81.8994 131.233 81.7844C131.119 81.6886 130.986 81.5928 130.872 81.5161C130.777 81.1519 130.226 81.3053 130.321 81.6694C130.454 82.1869 130.872 82.4169 131.385 82.3403C131.537 82.3211 131.632 82.1103 131.575 81.9953C131.176 80.9219 130.568 79.9828 129.751 79.1778C129.599 79.0244 129.333 79.1011 129.276 79.3119C128.877 80.5961 129.827 81.5928 130.739 82.3403C131.024 82.5319 131.442 82.1294 131.157 81.8994Z" fill="#111314"/>
<path d="M129.371 79.7717C129.827 80.4809 130.283 81.19 130.739 81.8992C130.929 82.2059 131.423 81.9184 131.233 81.6117C130.777 80.9025 130.321 80.1934 129.865 79.4842C129.675 79.1584 129.181 79.4459 129.371 79.7717Z" fill="#111314"/>
<path d="M137.959 78.9671C137.617 78.5646 137.256 78.1046 137.085 77.5871C137.028 77.4337 137.009 77.2612 137.009 77.1079C137.047 76.8587 137.104 76.8395 137.218 77.0312C137.408 77.1079 137.579 77.4721 137.693 77.6446C137.959 78.0471 138.206 78.4879 138.339 78.9287C138.415 79.1779 138.51 79.2162 138.244 79.1012C137.997 78.9862 137.769 78.7179 137.598 78.5262C137.351 78.2387 136.952 78.6604 137.199 78.9287C137.503 79.2737 138.491 80.2896 138.89 79.5037C139.251 78.7946 138.358 77.5487 137.959 77.0312C137.617 76.5904 136.8 75.7087 136.477 76.6862C136.154 77.6637 136.971 78.6796 137.541 79.3504C137.788 79.6571 138.187 79.2546 137.959 78.9671Z" fill="#111314"/>
<path d="M136.705 77.1268C137.142 77.836 137.579 78.5451 138.016 79.2543C138.206 79.561 138.7 79.2735 138.51 78.9668C138.111 78.3151 137.769 77.6635 137.446 76.9735C137.294 77.0885 137.142 77.2035 136.99 77.3185C137.427 77.7401 137.75 78.2385 137.959 78.8135C138.092 79.1585 138.643 79.0051 138.51 78.6601C138.263 77.9893 137.902 77.4143 137.389 76.916C137.142 76.686 136.8 76.9735 136.933 77.261C137.256 77.951 137.598 78.6218 137.997 79.2543C138.168 79.1585 138.32 79.0626 138.491 78.9668C138.054 78.2576 137.617 77.5485 137.18 76.8393C137.009 76.5326 136.515 76.8201 136.705 77.1268Z" fill="#111314"/>
<path d="M151.924 80.1743C152.513 81.746 152.456 83.3943 151.696 84.8894C151.525 85.2152 152.019 85.5027 152.19 85.1769C153.007 83.5477 153.121 81.7268 152.475 80.021C152.342 79.6952 151.791 79.8293 151.924 80.1743Z" fill="#111314"/>
<path d="M122.36 66.1443C122.056 66.5659 119.301 70.4568 120.764 75.3443C122.208 80.1743 126.521 81.8993 127.015 82.0909C126.806 80.9026 126.464 77.9701 127.87 74.7118C129.542 70.7826 132.62 68.9426 133.608 68.4059C134.235 69.3259 136.61 72.5843 141.132 73.8684C145.179 74.9993 148.523 73.8684 149.625 73.4468C149.834 73.1018 150.632 71.9134 151.639 71.9518C153.083 72.0093 154.508 74.6543 153.653 76.4559C153.121 77.5868 151.867 77.9701 151.525 78.0659C151.734 78.8901 152.171 80.1359 153.121 81.3818C154.717 83.5093 156.807 84.3334 158.004 84.8126C159.182 85.2726 168.815 88.9718 174.553 82.8768C177.65 79.5993 179.132 73.9834 177.099 70.1309C175.446 67.0259 172.539 67.0068 164.692 63.4993C155.287 59.2826 156.579 57.9984 151.012 56.2159C148.105 55.2767 137.408 51.8459 129.048 57.7109C125.229 60.3751 123.291 63.9784 122.36 66.1443Z" fill="#1890ff"/>
<path d="M118.218 98.6893C118.142 97.5776 118.104 94.3768 120.175 91.4443C123.348 86.9593 128.82 86.8634 129.751 86.8443C131.404 86.8059 133.589 87.0934 138.643 89.8918C141.93 91.7126 146.433 94.5684 151.24 99.0343C152.456 99.1109 154.47 99.3793 156.541 100.587C158.745 101.852 162.83 105.187 161.956 108.771C161.462 110.803 159.429 112.777 157.491 112.681C154.375 112.528 152.361 107.123 151.715 107.448C151.202 107.698 152.76 110.918 152.076 111.358C151.449 111.761 148.979 109.825 147.839 107.199C146.908 105.091 147.06 103.098 147.25 101.967C142.69 99.8009 135.166 97.0793 125.856 97.5584C123.006 97.7309 120.46 98.1526 118.218 98.6893Z" fill="#F7FAFC" stroke="#111314" stroke-miterlimit="10"/>
<path opacity="0.34" d="M118.257 98.3058C118.941 94.5874 120.556 92.8816 121.487 92.1341C127.32 87.3808 138.378 93.1116 141.665 94.7983C145.541 96.7916 148.448 99.2258 149.854 100.472C152.666 102.982 151.963 103.136 155.801 106.816C158.442 109.346 160.323 110.783 159.943 111.818C159.62 112.662 158.024 112.738 157.872 112.738C154.167 112.872 151.621 107.084 151.507 106.816C152.419 110.17 152.248 111.186 151.83 111.397C151.032 111.818 148.676 109.595 147.688 106.969C146.909 104.899 147.137 102.963 147.365 101.871C144.534 100.587 140.943 99.3024 136.706 98.4591C129.087 96.9641 122.589 97.5391 118.257 98.3058Z" fill="#636E72"/>
<path d="M102.6 100.261C101.992 103.539 101.232 110.458 104.329 118.009C110.143 132.212 124.564 136.39 126.502 136.908C126.559 139.15 126.635 141.412 126.692 143.654C123.158 145.341 117.933 148.293 112.727 153.295C108.87 157.014 102.144 163.645 99.5407 174.513C97.9447 181.164 98.4197 187.163 99.3507 191.686C122.303 192.069 145.236 192.453 168.188 192.836C168.929 188.466 169.746 179.764 166.079 170.085C159.524 152.778 143.849 146.05 140.847 144.824C140.79 141.795 140.714 138.786 140.657 135.758C143.602 135.106 150.423 133.189 156.142 127.075C165.68 116.898 164.236 103.577 163.989 101.622C143.507 101.162 123.044 100.721 102.6 100.261Z" fill="#F7FAFC" stroke="#111314" stroke-miterlimit="10"/>
<path d="M106.267 121.555C108.148 122.59 110.162 123.376 112.309 123.683C113.867 123.893 115.349 123.759 116.907 123.587C118.883 123.357 120.84 123.184 122.797 122.839C124.792 122.494 126.692 121.9 128.668 121.459C129.2 121.344 129.694 121.287 130.226 121.402C131.271 121.613 131.879 122.264 132.677 122.878C133.779 123.721 135.204 123.663 136.344 122.973C136.952 122.59 137.503 122.111 138.111 121.747C139.004 121.21 139.992 120.942 141.037 120.865C142.158 120.788 143.298 120.865 144.4 121.076C145.711 121.325 146.87 121.862 148.124 122.264C150.594 123.069 151.354 120.405 153.273 119.504C155.572 118.412 158.745 118.527 161.158 119.044C161.519 119.121 161.671 118.565 161.31 118.488C159.22 118.028 157.168 118.048 155.059 118.412C154.166 118.565 153.311 118.776 152.532 119.255C151.639 119.811 151.126 120.654 150.366 121.344C149.264 122.341 147.991 121.574 146.832 121.133C145.787 120.75 144.685 120.501 143.564 120.367C141.702 120.137 139.726 120.213 138.035 121.133C136.648 121.9 135.451 123.433 133.703 122.782C132.943 122.494 132.468 121.785 131.784 121.383C131.233 121.038 130.568 120.827 129.922 120.769C128.687 120.673 127.414 121.21 126.217 121.517C123.956 122.092 121.638 122.475 119.301 122.724C117.477 122.916 115.596 123.261 113.753 123.203C111.207 123.127 108.775 122.264 106.571 121.038C106.229 120.865 105.944 121.363 106.267 121.555Z" fill="#111314"/>
<path d="M126.787 141.354C127.091 142.082 127.395 142.849 127.908 143.462C128.231 143.865 128.725 144.172 128.934 144.689C129.143 145.226 129.143 145.935 129.219 146.51C129.466 148.484 129.732 150.458 130.549 152.298C130.701 152.643 131.195 152.337 131.043 152.011C130.15 150.037 129.979 147.89 129.694 145.762C129.599 145.072 129.561 144.363 129.067 143.827C128.307 142.983 127.794 142.293 127.338 141.201C127.205 140.856 126.654 141.009 126.787 141.354Z" fill="#111314"/>
<path d="M139.213 143.022C138.377 142.37 137.731 143.578 137.427 144.229C137.123 144.843 136.895 145.475 136.743 146.127C136.572 146.874 136.61 147.737 136.268 148.427C135.945 149.136 135.413 149.73 135.109 150.459C134.824 151.11 134.615 151.8 134.425 152.49C133.988 154.215 133.741 155.998 133.437 157.742C133.38 158.106 133.931 158.259 133.988 157.895C134.444 155.269 134.672 152.337 135.983 149.979C136.287 149.443 136.686 148.983 136.895 148.408C137.047 148.005 137.066 147.584 137.123 147.181C137.18 146.759 138.244 142.984 138.814 143.424C139.08 143.654 139.498 143.252 139.213 143.022Z" fill="#111314"/>
<path d="M133.114 165.6C132.943 165.293 132.772 164.929 132.848 164.584C132.962 164.048 133.551 163.971 133.741 164.488C133.969 165.102 133.608 165.811 133.19 166.213C133.304 166.194 133.418 166.175 133.532 166.175C133.304 166.003 133.076 165.83 132.867 165.677C132.563 165.447 132.297 165.964 132.582 166.175C132.81 166.348 133.038 166.52 133.247 166.673C133.342 166.75 133.513 166.712 133.589 166.635C134.273 165.964 134.9 164.163 133.703 163.626C133.228 163.415 132.696 163.664 132.43 164.105C132.088 164.68 132.316 165.37 132.62 165.907C132.791 166.213 133.285 165.926 133.114 165.6Z" fill="#111314"/>
<path d="M131.613 172.194C131.48 171.925 131.271 171.561 131.328 171.235C131.366 171.044 131.613 170.775 131.803 170.948C131.993 171.101 132.012 171.561 131.955 171.772C131.898 171.964 131.575 172.289 131.404 172.04C131.195 171.753 130.701 172.04 130.91 172.328C131.214 172.769 131.841 172.807 132.24 172.424C132.677 172.002 132.639 171.159 132.316 170.679C131.993 170.2 131.366 170.277 131.024 170.679C130.53 171.216 130.834 171.964 131.119 172.519C131.29 172.807 131.784 172.519 131.613 172.194Z" fill="#111314"/>
<path d="M134.368 174.474C134.121 174.283 134.368 173.65 134.71 173.842C134.862 173.919 134.957 174.149 134.919 174.321C134.862 174.57 134.539 174.532 134.406 174.398C134.14 174.129 133.741 174.551 134.007 174.8C134.406 175.184 135.147 175.184 135.413 174.647C135.622 174.206 135.432 173.65 135.052 173.382C134.634 173.094 134.102 173.267 133.855 173.708C133.608 174.149 133.684 174.685 134.102 174.973C134.368 175.184 134.653 174.685 134.368 174.474Z" fill="#111314"/>
<path d="M115.691 192.012C117.268 190.728 118.845 189.443 120.422 188.159C121.182 187.546 121.904 186.894 122.721 186.358C123.538 185.821 124.431 185.572 125.343 185.227C128.193 184.115 130.701 179.343 133.969 182.333C135.033 183.291 135.907 184.134 137.294 184.594C138.871 185.112 140.429 185.418 141.93 186.166C144.818 187.603 147.174 189.923 148.751 192.74C148.922 193.066 149.416 192.778 149.245 192.453C148.029 190.248 146.357 188.37 144.305 186.913C143.317 186.204 142.234 185.61 141.113 185.15C139.821 184.613 138.472 184.403 137.161 183.923C134.805 183.061 133.589 180.033 130.72 180.914C129.561 181.278 128.63 182.064 127.737 182.869C127.205 183.348 126.673 183.828 126.065 184.211C125.286 184.709 124.393 184.882 123.557 185.246C122.227 185.821 121.125 186.837 120.004 187.738C118.427 189.022 116.85 190.306 115.273 191.59C115.007 191.839 115.406 192.242 115.691 192.012Z" fill="#111314"/>
<path d="M140.315 140.07C140.106 141.623 139.878 143.156 139.669 144.708C139.479 146.108 139.46 147.756 138.833 149.059C138.966 149.021 139.099 148.983 139.232 148.963C138.7 148.599 139.061 146.798 139.061 146.261C139.08 145.322 139.099 144.402 139.118 143.463C139.118 143.098 138.548 143.098 138.548 143.463C138.51 144.823 138.491 146.184 138.453 147.564C138.434 148.254 138.301 149.021 138.928 149.462C139.042 149.538 139.251 149.5 139.327 149.366C139.935 148.101 139.992 146.625 140.182 145.245C140.41 143.578 140.657 141.91 140.885 140.243C140.904 139.859 140.353 139.706 140.315 140.07Z" fill="#111314"/>
<path d="M126.521 137.636C126.217 139.265 126.445 140.837 127.167 142.312C127.338 142.638 127.813 142.351 127.661 142.025C127.015 140.683 126.806 139.246 127.072 137.789C127.129 137.425 126.578 137.272 126.521 137.636Z" fill="#111314"/>
<path d="M116.071 129.509C119.529 132.058 123.804 133.036 127.414 135.278C127.718 135.47 128.022 134.972 127.699 134.78C124.07 132.538 119.795 131.56 116.356 129.011C116.052 128.781 115.767 129.279 116.071 129.509Z" fill="#111314"/>
<path d="M127.148 132.48C128.858 133.534 130.055 135.144 130.568 137.118C130.663 137.483 131.214 137.329 131.119 136.965C130.587 134.857 129.295 133.113 127.452 131.982C127.129 131.79 126.844 132.288 127.148 132.48Z" fill="#111314"/>
<path d="M137.009 139.725C137.921 137.195 139.118 134.646 141.341 133.036C141.645 132.825 141.36 132.327 141.056 132.538C138.7 134.263 137.427 136.869 136.458 139.572C136.344 139.936 136.895 140.07 137.009 139.725Z" fill="#111314"/>
<path d="M119.871 190.67C121.809 188.523 124.298 187.048 127.091 186.358C127.452 186.281 127.3 185.725 126.939 185.802C124.051 186.492 121.467 188.044 119.472 190.248C119.225 190.555 119.624 190.958 119.871 190.67Z" fill="#111314"/>
<path d="M124.241 188.868C125.609 188.255 126.977 187.642 128.345 187.028C128.687 186.875 128.383 186.377 128.06 186.53C126.692 187.143 125.324 187.757 123.956 188.37C123.633 188.523 123.918 189.022 124.241 188.868Z" fill="#111314"/>
<path d="M135.584 181.719C137.256 183.272 139.954 182.735 141.493 184.422C141.74 184.69 142.139 184.287 141.892 184.019C140.315 182.294 137.655 182.85 135.983 181.317C135.717 181.048 135.318 181.47 135.584 181.719Z" fill="#111314"/>
<path d="M99.3698 193.717C117.325 193.717 135.28 193.717 153.254 193.717C158.308 193.717 163.381 193.717 168.435 193.717C170.639 193.717 170.639 190.267 168.435 190.267C150.48 190.267 132.525 190.267 114.551 190.267C109.497 190.267 104.424 190.267 99.3698 190.267C97.1658 190.267 97.1658 193.717 99.3698 193.717Z" fill="#111314"/>
<path d="M102.068 101.449C118.256 101.449 134.444 101.449 150.632 101.449C155.192 101.449 159.733 101.449 164.293 101.449C166.497 101.449 166.497 97.9993 164.293 97.9993C148.105 97.9993 131.917 97.9993 115.729 97.9993C111.169 97.9993 106.628 97.9993 102.068 97.9993C99.864 97.9993 99.864 101.449 102.068 101.449Z" fill="#111314"/>
<path d="M97.4321 97.9993C96.1021 97.9993 94.7721 97.9993 93.4421 97.9993C91.2381 97.9993 91.2381 101.449 93.4421 101.449C94.7721 101.449 96.1021 101.449 97.4321 101.449C99.6361 101.449 99.6361 97.9993 97.4321 97.9993Z" fill="#111314"/>
<path d="M85.9749 101.066C86.4879 101.066 87.0009 101.066 87.5139 101.066C88.4069 101.066 89.2619 100.28 89.2239 99.341C89.1859 98.4018 88.4639 97.616 87.5139 97.616C87.0009 97.616 86.4879 97.616 85.9749 97.616C85.0819 97.616 84.2269 98.4018 84.2649 99.341C84.3029 100.261 85.0059 101.066 85.9749 101.066Z" fill="#111314"/>
<path d="M172.406 193.469C175.104 193.469 177.821 193.469 180.519 193.469C182.723 193.469 182.723 190.019 180.519 190.019C177.821 190.019 175.104 190.019 172.406 190.019C170.202 190.019 170.202 193.469 172.406 193.469Z" fill="#111314"/>
<path d="M186.333 193.852C186.808 193.852 187.283 193.852 187.758 193.852C188.651 193.852 189.506 193.066 189.468 192.127C189.43 191.188 188.708 190.402 187.758 190.402C187.283 190.402 186.808 190.402 186.333 190.402C185.44 190.402 184.585 191.188 184.623 192.127C184.661 193.066 185.364 193.852 186.333 193.852Z" fill="#111314"/>
<path d="M126.502 137.042C126.369 138.364 126.255 139.706 126.521 141.009C126.806 142.389 127.661 143.367 128.288 144.594C129.01 145.974 129.219 147.641 129.561 149.136C129.922 150.727 130.283 152.318 130.644 153.909C130.815 154.637 131.898 154.33 131.746 153.602C131.404 152.069 131.043 150.535 130.701 149.002C130.378 147.584 130.15 146.089 129.618 144.747C129.143 143.539 128.174 142.562 127.775 141.316C127.338 139.936 127.509 138.441 127.642 137.042C127.718 136.314 126.578 136.314 126.502 137.042Z" fill="#111314"/>
<path d="M123.918 136.467C124.963 136.965 126.027 137.118 127.167 136.927C127.889 136.812 127.585 135.7 126.863 135.815C126.046 135.949 125.229 135.834 124.488 135.47C123.823 135.144 123.253 136.141 123.918 136.467Z" fill="#111314"/>
<path d="M137.997 143.079C137.085 143.731 136.629 144.67 136.42 145.743C136.268 146.472 136.23 147.219 136.021 147.948C135.812 148.676 135.47 149.347 135.128 150.037C133.855 152.624 132.582 155.365 132.943 158.317C133.038 159.045 134.178 159.045 134.083 158.317C133.741 155.538 134.919 153.027 136.116 150.612C136.629 149.577 137.104 148.561 137.294 147.43C137.503 146.261 137.522 144.823 138.567 144.076C139.175 143.635 138.605 142.638 137.997 143.079Z" fill="#111314"/>
<path d="M126.901 168.763C127.642 168.763 127.642 167.613 126.901 167.613C126.179 167.613 126.179 168.763 126.901 168.763Z" fill="#111314"/>
<path d="M124.849 178.25C125.59 178.25 125.59 177.1 124.849 177.1C124.108 177.1 124.108 178.25 124.849 178.25Z" fill="#111314"/>
<path d="M130.72 156.266C130.777 156.649 130.834 157.052 130.891 157.435C130.929 157.742 131.328 157.914 131.594 157.838C131.917 157.742 132.031 157.435 131.993 157.129C131.936 156.745 131.879 156.343 131.822 155.959C131.784 155.653 131.385 155.48 131.119 155.557C130.796 155.653 130.682 155.959 130.72 156.266Z" fill="#111314"/>
<path d="M133.684 161.172C133.684 161.211 133.684 161.268 133.684 161.307C133.684 161.613 133.95 161.901 134.254 161.882C134.558 161.862 134.824 161.632 134.824 161.307C134.824 161.268 134.824 161.211 134.824 161.172C134.824 160.866 134.558 160.578 134.254 160.597C133.95 160.617 133.684 160.847 133.684 161.172Z" fill="#111314"/>
<path d="M152.836 156.573C151.107 157.32 152.57 159.16 153.368 159.965C155.002 161.613 156.465 163.434 157.738 165.37C160.227 169.146 161.956 173.382 162.887 177.809C162.963 178.173 163.514 178.02 163.438 177.656C162.64 173.899 161.272 170.277 159.372 166.942C158.46 165.332 157.415 163.798 156.256 162.361C155.667 161.633 155.059 160.923 154.413 160.233C153.843 159.639 151.563 157.742 153.121 157.071C153.463 156.918 153.159 156.419 152.836 156.573Z" fill="#111314"/>
<path d="M154.945 158.049C160.702 162.879 163.039 170.258 165.148 177.234C165.262 177.579 165.813 177.445 165.699 177.081C163.552 170.009 161.177 162.534 155.344 157.627C155.059 157.397 154.66 157.799 154.945 158.049Z" fill="#111314"/>
<path d="M163.134 179.726C163.495 180.244 163.932 180.857 164.616 180.914C165.148 180.953 165.718 180.646 165.794 180.071C165.851 179.707 165.3 179.554 165.243 179.918C165.186 180.282 164.806 180.416 164.483 180.301C164.103 180.167 163.837 179.764 163.628 179.439C163.419 179.132 162.925 179.419 163.134 179.726Z" fill="#111314"/>
<path d="M164.255 187.815C165.11 188.198 166.174 187.93 166.63 187.067C167.067 186.243 166.725 185.112 165.927 184.652C165.11 184.192 163.989 184.518 163.514 185.323C163.039 186.166 163.381 187.24 164.141 187.757C164.445 187.968 164.73 187.47 164.426 187.259C163.913 186.914 163.685 186.166 164.008 185.61C164.312 185.074 165.091 184.844 165.642 185.15C166.193 185.438 166.421 186.224 166.136 186.78C165.851 187.355 165.091 187.565 164.54 187.316C164.217 187.163 163.913 187.661 164.255 187.815Z" fill="#111314"/>
<path d="M106.058 104.382C106.248 113.256 109.915 121.862 116.185 128.072C116.451 128.34 116.85 127.918 116.584 127.669C110.409 121.555 106.799 113.102 106.628 104.382C106.609 104.017 106.039 104.017 106.058 104.382Z" fill="#111314"/>
<path d="M106.666 104.132C106.172 103.634 105.469 103.653 104.937 104.094C104.234 104.688 104.31 105.762 104.386 106.605C104.576 109.116 105.07 111.588 105.811 113.984C107.293 118.737 109.782 123.146 113.069 126.845C113.316 127.113 113.715 126.711 113.468 126.442C110.789 123.433 108.661 119.983 107.198 116.227C106.495 114.463 105.963 112.623 105.564 110.764C105.355 109.748 105.184 108.732 105.07 107.717C105.013 107.237 104.956 106.777 104.937 106.298C104.918 106.087 104.899 105.877 104.918 105.685C104.937 105.225 105.431 103.692 106.267 104.554C106.533 104.803 106.932 104.382 106.666 104.132Z" fill="#111314"/>
<path opacity="0.25" d="M164.388 101.756C164.407 102.369 148.029 103.366 115.273 104.784C114.703 107.391 114.323 110.956 115.273 114.904C118.313 127.65 132.031 132.557 133.399 133.017C133.57 137.923 133.76 142.849 133.931 147.756C132.468 148.312 130.549 149.155 128.44 150.439C127.091 151.263 123.88 153.372 120.897 156.803C119.206 158.758 113.772 165.044 113.335 174.57C113.069 180.224 114.684 184.786 115.976 187.527C131.404 188.409 146.851 189.309 162.279 190.191C141.265 190.363 120.27 190.555 99.2559 190.728C98.5909 186.453 97.9638 178.269 101.365 169.069C101.992 167.402 107.198 153.947 121.087 146.338C123.291 145.13 125.21 144.344 126.54 143.846C126.483 141.469 126.426 139.112 126.369 136.735C124.45 136.237 121.6 135.317 118.446 133.534C116.603 132.499 104.367 125.331 102.068 111.339C101.707 109.116 101.403 105.608 102.239 101.219C143.659 100.893 164.369 101.066 164.388 101.756Z" fill="#636E72"/>
<path opacity="0.3" d="M136.762 101.277C126.901 102.676 117.04 104.075 107.179 105.455C107.445 108.771 108.471 115.614 113.126 122.552C118.883 131.119 126.692 134.646 129.713 135.834C129.884 139.476 130.074 143.118 130.245 146.759C123.804 148.024 119.567 150.669 117.249 152.394C115.71 153.544 101.802 163.818 103.36 178.595C103.626 181.144 104.538 185.514 108.034 190.344C105.032 190.383 102.049 190.421 99.0471 190.44C98.4391 185.744 97.8881 176.065 102.866 166.079C106.666 158.489 112.1 153.832 115.254 151.187C119.491 147.641 123.538 145.341 126.502 143.904C126.597 141.546 126.711 139.189 126.806 136.831C123.025 136.026 115.482 133.822 109.668 127.037C109.25 126.558 107.806 124.833 106.362 122.245C102.144 114.694 101.859 106.797 102.258 101.641C113.791 101.507 125.286 101.392 136.762 101.277Z" fill="#636E72"/>
<path d="M126.065 93.0542C120.118 97.4242 115.539 102.81 115.976 103.347C116.185 103.615 117.344 103.27 121.638 100.491C120.897 100.932 119.149 102.063 118.237 104.267C117.971 104.918 117.097 106.739 117.895 107.928C118.75 109.173 121.011 109.058 122.474 108.56C125.305 107.602 126.654 104.631 126.806 104.746C127.034 104.899 123.88 109.442 124.336 109.806C124.811 110.208 129.751 105.973 133.532 100.031C134.691 98.21 135.489 96.6192 136.021 95.45C139.384 95.5267 143.545 95.8142 148.257 96.6C156.769 97.9992 160.018 99.8392 165.813 98.8808C169.366 98.3058 175.123 96.4658 175.332 93.7442C175.598 90.3708 167.276 87.2658 165.471 86.595C151.753 81.4775 138.89 86.2117 136.8 87.0167C131.594 89.0292 128.003 91.6358 126.065 93.0542Z" fill="#F7FAFC" stroke="#111314" stroke-miterlimit="10"/>
<path d="M117.42 107.621C117.515 107.812 117.572 107.851 117.743 107.966C117.838 108.042 118.009 108.004 118.085 107.927C119.966 105.666 121.6 103.04 124.279 101.641C124.602 101.468 124.317 100.97 123.994 101.142C121.258 102.561 119.605 105.206 117.686 107.525C117.8 107.506 117.914 107.487 118.028 107.487C117.99 107.429 117.952 107.391 117.914 107.333C117.743 107.007 117.249 107.295 117.42 107.621Z" fill="#111314"/>
<path d="M119.206 109.097C120.365 109.365 121.429 107.774 122.113 107.027C123.234 105.8 124.298 104.573 125.761 103.73C126.084 103.538 125.799 103.059 125.476 103.232C124.374 103.864 123.481 104.707 122.626 105.627C122.189 106.107 121.771 106.586 121.315 107.065C120.897 107.525 120.023 108.694 119.358 108.541C118.997 108.464 118.845 109.02 119.206 109.097Z" fill="#111314"/>
<path opacity="0.33" d="M117.496 105.493C122.056 102.254 123.158 101.507 123.177 101.545C123.215 101.583 121.391 102.695 119.814 104.822C119.016 105.915 118.503 106.95 118.18 107.717C118.237 107.832 118.408 108.138 118.75 108.33C119.187 108.579 119.586 108.522 119.719 108.502C119.833 108.445 120.004 108.349 120.194 108.215C120.859 107.774 121.258 107.257 121.41 107.084C121.486 106.988 122.683 105.474 123.234 104.88C123.728 104.343 124.564 103.653 125.932 103.155C124.811 104.88 123.671 106.624 122.55 108.349C123.709 107.774 124.469 107.122 124.944 106.624C125.419 106.145 125.571 105.857 126.426 104.784C127.224 103.787 127.813 103.155 128.041 102.887C130.036 100.587 133.019 95.1049 134.919 93.2649C138.985 89.2974 145.54 92.5366 158.479 92.6324C165.015 92.6899 170.43 91.8657 174.154 91.1182C174.477 91.3482 175.085 91.8657 175.313 92.7091C175.313 92.7091 175.598 93.7632 174.876 95.0857C174.078 96.5807 170.088 99.2641 161.595 99.0341C154.66 98.8424 152.551 96.9257 143.26 95.8716C140.144 95.5266 137.579 95.4307 135.945 95.3924C134.406 99.0724 132.639 101.775 131.252 103.596C128.193 107.64 124.735 110.457 124.222 110.074C124.184 110.055 124.089 109.959 124.032 109.787C123.899 109.403 124.184 108.962 124.336 108.732C124.621 108.272 124.982 107.659 125.438 106.777C125.134 107.161 124.64 107.678 123.918 108.119C121.961 109.327 118.769 109.71 117.686 108.138C117.534 107.947 117.04 107.142 117.496 105.493Z" fill="#636E72"/>
<path opacity="0.51" d="M138.605 95.3734C138.624 95.2009 142.975 95.3159 147.782 95.5651C160.265 96.2168 163.533 97.1368 168.359 95.3734C171.399 94.2618 173.565 92.6326 174.743 91.6359C175.104 92.3451 175.484 93.3993 175.199 94.4534C174.496 97.0218 170.411 97.8651 167.77 98.4018C166.307 98.7084 163.818 99.0726 159.885 98.7276C156.389 98.4401 155.002 97.8651 151.297 97.0793C143.887 95.5268 138.586 95.5459 138.605 95.3734Z" fill="#636E72"/>
</svg>
