<svg width="304" height="230" viewBox="0 0 304 230" fill="none" xmlns="http://www.w3.org/2000/svg">
<path d="M52 116C52 60.7715 96.7715 16 152 16C207.228 16 252 60.7715 252 116C252 171.228 207.228 216 152 216C96.7715 216 52 171.228 52 116Z" fill="#EBFAFA"/>
<path d="M39.786 152.451C40.299 153.985 39.748 155.518 39.52 157.032C39.33 158.316 39.482 159.447 40.185 160.559C40.565 161.153 41.097 161.766 41.249 162.476C41.439 163.357 40.793 163.971 40.508 164.737C40.223 165.504 40.413 166.597 41.363 166.731C41.325 166.577 41.287 166.405 41.23 166.252C40.793 166.731 40.66 167.44 41.059 167.996C41.363 168.417 42.009 168.456 42.18 169.012C42.351 169.567 42.066 170.277 41.971 170.813C41.61 173.056 42.959 175.011 44.555 176.41C46.417 178.058 48.469 179.4 50.141 181.259C51.889 183.195 53.333 185.418 54.416 187.795C54.568 188.121 55.062 187.833 54.91 187.507C53.086 183.54 50.331 180.167 46.873 177.522C44.954 176.065 42.56 174.34 42.465 171.657C42.446 170.794 42.864 169.932 42.75 169.069C42.712 168.801 42.636 168.532 42.446 168.322C42.028 167.823 40.793 167.517 41.61 166.635C41.743 166.501 41.705 166.194 41.477 166.156C40.185 165.964 41.363 164.316 41.572 163.798C41.743 163.415 41.838 163.032 41.8 162.61C41.705 161.517 40.831 160.693 40.356 159.754C39.14 157.377 41.135 154.732 40.299 152.26C40.223 151.953 39.672 152.106 39.786 152.451Z" fill="#DFE6E9"/>
<path d="M40.1849 153.007C53.2759 158.853 56.4869 174.359 58.7669 187.124C58.8239 187.488 59.3749 187.335 59.3179 186.971C57.4369 176.371 55.2519 164.948 47.2529 157.147C45.2769 155.211 42.9969 153.621 40.4699 152.509C40.1469 152.356 39.8429 152.854 40.1849 153.007Z" fill="#DFE6E9"/>
<path d="M41.135 154.349C48.1271 163.3 53.1051 173.784 55.6511 184.881C55.7271 185.246 56.2781 185.092 56.2021 184.728C53.6371 173.516 48.6021 162.974 41.553 153.927C41.306 153.64 40.907 154.061 41.135 154.349Z" fill="#DFE6E9"/>
<path d="M42.674 163.952C46.797 165.849 50.103 169.184 52.003 173.343C52.155 173.688 52.649 173.382 52.497 173.056C50.578 168.82 47.177 165.389 42.978 163.453C42.617 163.3 42.332 163.798 42.674 163.952Z" fill="#DFE6E9"/>
<path d="M56.867 174.455C55.613 168.992 59.907 164.584 62.567 160.367C63.859 158.316 64.942 156.112 65.759 153.831C66.158 152.72 66.443 151.57 66.785 150.439C67.108 149.366 67.545 148.158 68.704 147.832C68.59 147.794 68.495 147.736 68.381 147.698C68.818 148.561 69.046 149.5 68.951 150.477C68.894 151.091 68.438 151.761 68.495 152.336C68.533 152.681 68.837 153.218 68.951 153.563C69.084 154.004 69.179 154.445 69.236 154.886C69.312 155.422 69.35 155.959 69.35 156.496C69.35 156.898 69.084 157.991 69.217 158.297C69.065 157.971 68.647 158.221 68.704 158.527C69.236 161.786 69.996 165.101 70.186 168.379C70.376 171.676 69.065 174.474 67.412 177.234C64.486 182.121 61.37 187.335 61.959 193.296C61.997 193.66 62.567 193.66 62.529 193.296C61.883 186.76 65.759 181.508 68.742 176.103C70.148 173.554 70.965 170.947 70.737 168.015C70.49 164.795 69.768 161.575 69.255 158.374C69.084 158.451 68.913 158.527 68.742 158.604C68.761 158.642 68.78 158.681 68.799 158.719C68.837 158.815 68.951 158.853 69.046 158.853C69.749 158.872 69.825 158.067 69.882 157.531C70.034 156.208 69.92 154.866 69.578 153.601C69.445 153.122 69.122 152.586 69.179 152.087C69.236 151.627 69.483 151.148 69.54 150.65C69.673 149.519 69.426 148.426 68.913 147.43C68.856 147.315 68.704 147.257 68.59 147.296C66.633 147.871 66.329 150.209 65.835 151.896C64.98 154.79 63.726 157.55 62.111 160.099C59.337 164.488 55.043 168.954 56.354 174.627C56.411 174.972 56.962 174.819 56.867 174.455Z" fill="#DFE6E9"/>
<path d="M67.431 152.509C67.108 158.297 64.79 163.645 62.909 169.031C61.009 174.493 59.812 180.128 59.394 185.897C59.375 186.262 59.945 186.262 59.964 185.897C60.401 179.937 61.712 174.148 63.688 168.532C65.531 163.3 67.678 158.106 68.001 152.509C68.02 152.145 67.45 152.145 67.431 152.509Z" fill="#DFE6E9"/>
<path d="M59.3751 165.677C59.6411 168.302 60.3441 170.832 61.5031 173.209C61.6741 173.535 62.1491 173.247 61.9971 172.922C60.8951 170.641 60.1921 168.207 59.9451 165.696C59.9071 165.312 59.3371 165.312 59.3751 165.677Z" fill="#DFE6E9"/>
<path d="M63.8402 168.418C65.8162 167.21 67.4882 165.638 68.8182 163.741C69.0272 163.434 68.5332 163.147 68.3242 163.453C67.0512 165.274 65.4362 166.769 63.5362 167.919C63.2322 168.111 63.5172 168.609 63.8402 168.418Z" fill="#DFE6E9"/>
<path d="M53.6941 186.261C54.9101 188.542 55.6701 190.996 55.9551 193.564C55.9931 193.928 56.5631 193.928 56.5251 193.564C56.2211 190.9 55.4421 188.351 54.1881 185.974C54.0171 185.648 53.5231 185.936 53.6941 186.261Z" fill="#DFE6E9"/>
<path d="M58.463 185.897C58.938 188.255 59.204 190.651 59.242 193.066C59.242 193.43 59.812 193.43 59.812 193.066C59.774 190.593 59.508 188.159 59.014 185.744C58.938 185.38 58.387 185.533 58.463 185.897Z" fill="#DFE6E9"/>
<path d="M249.337 169.683C249.109 170.449 248.748 171.273 248.634 172.078C248.577 172.404 248.558 172.711 248.767 172.979C249.033 173.305 249.489 173.343 249.869 173.401C250.724 173.554 251.579 173.688 252.434 173.803C255.512 174.225 258.628 174.398 261.725 174.455C264.936 174.513 268.147 174.417 271.377 174.302C272.213 174.263 273.163 174.359 273.961 174.206C274.189 174.168 274.436 174.168 274.588 173.957C274.93 173.516 274.455 173.133 274.018 173.363C273.923 173.42 273.847 173.573 273.885 173.688C273.904 173.708 273.904 173.746 273.923 173.765C274.056 174.11 274.607 173.957 274.474 173.612C274.455 173.593 274.455 173.554 274.436 173.535C274.398 173.65 274.341 173.746 274.303 173.861C274.189 173.784 274.075 173.708 273.961 173.631C273.771 173.631 273.6 173.65 273.41 173.65C273.106 173.669 272.802 173.669 272.479 173.688C271.928 173.708 271.358 173.727 270.807 173.746C269.686 173.784 268.584 173.823 267.463 173.842C265.107 173.899 262.77 173.918 260.414 173.842C258.134 173.784 255.854 173.631 253.593 173.363C252.396 173.228 251.199 173.056 250.002 172.845C249.223 172.711 249.128 172.366 249.337 171.618C249.508 171.024 249.698 170.411 249.869 169.817C249.983 169.472 249.432 169.318 249.337 169.683Z" fill="#DFE6E9"/>
<path d="M249.869 169.989C250.173 169.05 252.263 169.28 253.004 169.261C254.049 169.222 255.113 169.184 256.158 169.165C258.381 169.126 260.604 169.126 262.846 169.203C265.012 169.261 267.178 169.376 269.325 169.548C270.351 169.625 271.472 169.606 272.46 169.836C273.486 170.085 273.486 170.583 273.638 171.407C273.752 172.001 273.866 172.596 273.98 173.19C274.056 173.554 274.607 173.401 274.531 173.036C274.398 172.327 274.246 171.599 274.113 170.89C274.037 170.468 273.98 169.989 273.657 169.663C273.049 169.05 271.738 169.203 270.959 169.126C268.185 168.877 265.411 168.705 262.618 168.628C259.901 168.551 257.165 168.551 254.448 168.647C253.251 168.686 252.016 168.666 250.819 168.82C250.135 168.916 249.508 169.146 249.28 169.855C249.204 170.2 249.755 170.334 249.869 169.989Z" fill="#DFE6E9"/>
<path d="M250.42 173.171C251.256 177.809 251.845 182.486 252.206 187.181C252.225 187.354 252.32 187.45 252.491 187.469C258.077 187.986 263.682 188.121 269.268 187.871C269.629 187.852 269.629 187.277 269.268 187.296C263.663 187.546 258.058 187.411 252.491 186.894C252.586 186.99 252.681 187.086 252.776 187.181C252.415 182.428 251.826 177.713 250.971 173.017C250.895 172.653 250.344 172.806 250.42 173.171Z" fill="#DFE6E9"/>
<path d="M272.365 174.321C271.605 178.691 270.674 183.041 269.553 187.335C269.458 187.699 270.009 187.852 270.104 187.488C271.206 183.195 272.156 178.844 272.916 174.474C272.973 174.11 272.422 173.956 272.365 174.321Z" fill="#DFE6E9"/>
<path d="M237.614 138.69C238.868 142.121 239.78 145.647 240.369 149.231C240.388 149.327 240.483 149.404 240.559 149.423C241.167 149.596 241.775 149.768 242.364 149.941C242.307 149.826 242.231 149.711 242.174 149.596C241.832 151.167 241.68 152.873 243.143 153.87C243.618 154.196 244.112 154.387 244.226 155.02C244.302 155.48 244.264 155.94 244.359 156.4C244.549 157.377 244.948 158.317 245.518 159.122C246.791 160.904 248.786 161.671 250.572 162.802C252.548 164.067 254.087 165.887 255.113 167.996C255.265 168.322 255.759 168.034 255.607 167.708C254.771 165.983 253.593 164.431 252.111 163.223C250.477 161.881 248.368 161.192 246.829 159.754C246.012 159.007 245.423 158.01 245.081 156.956C244.91 156.419 244.815 155.863 244.796 155.307C244.777 155.001 244.834 154.751 244.701 154.483C244.378 153.755 243.447 153.544 242.953 152.969C242.212 152.106 242.497 150.765 242.706 149.749C242.744 149.596 242.668 149.442 242.516 149.404C242.136 149.289 241.376 149.232 241.072 149.002C240.692 148.714 240.711 147.947 240.635 147.487C240.445 146.471 240.217 145.475 239.97 144.459C239.476 142.446 238.868 140.491 238.165 138.556C238.051 138.191 237.5 138.345 237.614 138.69Z" fill="#DFE6E9"/>
<path d="M238.222 138.709C244.758 140.645 250.363 145.149 253.707 151.129C253.878 151.455 254.372 151.167 254.201 150.842C250.8 144.727 245.062 140.127 238.374 138.153C238.013 138.038 237.861 138.594 238.222 138.709Z" fill="#DFE6E9"/>
<path d="M253.023 150.305C256.538 155.576 258.894 161.537 259.958 167.804C260.015 168.168 260.566 168.015 260.509 167.651C259.445 161.345 257.051 155.327 253.517 150.017C253.308 149.711 252.814 149.998 253.023 150.305Z" fill="#DFE6E9"/>
<path d="M239.476 140.319C246.791 147.794 252.871 156.4 257.526 165.792C257.697 166.118 258.191 165.83 258.02 165.504C253.365 156.074 247.228 147.43 239.894 139.917C239.609 139.668 239.21 140.07 239.476 140.319Z" fill="#DFE6E9"/>
<path d="M240.825 147.027C245.67 149.979 249.926 153.812 253.365 158.355C253.593 158.642 254.087 158.355 253.859 158.067C250.363 153.429 246.05 149.519 241.11 146.529C240.806 146.337 240.521 146.836 240.825 147.027Z" fill="#DFE6E9"/>
<path d="M245.651 141.967C246.886 144.67 247.665 147.545 248.007 150.515C248.045 150.88 248.615 150.88 248.577 150.515C248.235 147.449 247.418 144.497 246.145 141.68C245.974 141.335 245.499 141.622 245.651 141.967Z" fill="#DFE6E9"/>
<path d="M258.913 160.214C258.381 147.449 270.408 139.284 275.88 129.03C275.709 128.973 275.519 128.934 275.348 128.877C275.348 130.487 275.329 132.097 275.329 133.707C275.329 134.454 275.329 135.202 275.31 135.93C275.31 136.697 275.595 139.303 274.075 138.824C273.847 138.748 273.619 139.035 273.752 139.246C274.55 140.473 274.74 141.987 274.227 143.386C273.98 144.057 273.714 144.306 273.638 145.034C273.562 145.839 273.486 146.663 273.41 147.468C273.258 149.098 273.087 150.708 272.935 152.337C272.783 153.87 272.802 155.557 272.365 157.033C271.947 158.489 270.75 159.313 269.496 160.023C268.394 160.674 267.292 161.307 266.285 162.093C264.385 163.607 262.922 165.734 262.979 168.245C262.979 168.609 263.549 168.609 263.549 168.245C263.473 164.91 266.133 162.668 268.736 161.115C269.781 160.483 270.921 159.946 271.795 159.064C272.65 158.202 272.973 157.148 273.125 155.959C273.543 152.624 273.771 149.27 274.094 145.935C274.17 145.149 274.303 144.555 274.626 143.846C274.835 143.367 274.968 142.849 275.044 142.332C275.177 141.124 274.892 139.955 274.227 138.939C274.113 139.073 274.018 139.227 273.904 139.361C275.766 139.974 275.842 137.463 275.842 136.294C275.861 133.822 275.861 131.349 275.88 128.858C275.88 128.57 275.481 128.455 275.348 128.704C269.819 139.054 257.754 147.258 258.305 160.176C258.343 160.578 258.913 160.578 258.913 160.214Z" fill="#DFE6E9"/>
<path d="M274.265 134.205C271.377 139.112 268.489 144.018 265.981 149.136C264.765 151.608 263.663 154.119 262.675 156.687C261.706 159.256 260.946 161.92 261.098 164.68C261.117 165.044 261.687 165.044 261.668 164.68C261.497 161.843 262.333 159.122 263.34 156.496C264.347 153.87 265.506 151.282 266.76 148.772C269.192 143.884 271.966 139.169 274.721 134.473C274.949 134.167 274.455 133.879 274.265 134.205Z" fill="#DFE6E9"/>
<path d="M263.112 148.407C262.656 150.42 262.561 152.452 262.846 154.483C262.903 154.847 263.454 154.694 263.397 154.33C263.131 152.394 263.226 150.458 263.663 148.561C263.739 148.197 263.188 148.043 263.112 148.407Z" fill="#DFE6E9"/>
<path d="M268.717 138.575C268.432 140.223 268.47 141.872 268.831 143.501C268.907 143.865 269.458 143.712 269.382 143.347C269.04 141.814 269.002 140.281 269.268 138.728C269.325 138.364 268.793 138.211 268.717 138.575Z" fill="#DFE6E9"/>
<path d="M273.771 152.221C276.868 148.541 279.528 144.536 281.713 140.242C281.542 140.223 281.371 140.204 281.2 140.166C282.226 143.75 282.017 147.449 281.238 151.052C280.858 152.796 280.364 154.521 279.832 156.227C279.585 157.013 279.319 157.799 279.053 158.604C278.768 159.466 278.502 160.693 277.457 160.885C277.324 160.904 277.248 161.038 277.248 161.153C277.21 162.131 277.153 163.185 276.716 164.086C276.165 165.236 275.063 165.542 273.923 165.868C272.213 166.347 270.465 166.846 269.268 168.245C269.021 168.513 269.439 168.935 269.667 168.647C270.503 167.67 271.605 167.171 272.802 166.788C273.809 166.462 274.949 166.328 275.88 165.791C277.514 164.871 277.723 162.84 277.799 161.153C277.723 161.249 277.666 161.345 277.59 161.421C279.072 161.172 279.414 159.256 279.813 158.067C280.497 156.036 281.143 153.985 281.618 151.896C282.53 147.986 282.853 143.903 281.732 139.993C281.675 139.763 281.333 139.706 281.219 139.916C279.072 144.171 276.45 148.139 273.372 151.781C273.125 152.106 273.524 152.509 273.771 152.221Z" fill="#DFE6E9"/>
<path d="M280.079 146.146C278.616 150.841 276.165 155.211 272.916 158.872C270.275 161.824 266.228 164.392 265.791 168.705C265.753 169.069 266.323 169.069 266.361 168.705C266.589 166.347 268.109 164.526 269.705 162.916C271.282 161.326 272.916 159.831 274.322 158.086C277.153 154.598 279.281 150.592 280.611 146.299C280.744 145.954 280.193 145.801 280.079 146.146Z" fill="#DFE6E9"/>
<path d="M215.764 50.6383C214.605 60.3366 211.071 69.6516 205.542 77.6824C205.333 77.9891 205.827 78.2766 206.036 77.9699C211.622 69.8624 215.156 60.4324 216.334 50.6383C216.372 50.2549 215.802 50.2741 215.764 50.6383Z" fill="#DFE6E9"/>
<path d="M215.859 50.7917C224.219 51.865 232.674 51.9033 241.034 50.9258C241.395 50.8875 241.395 50.3125 241.034 50.3508C232.674 51.3283 224.219 51.29 215.859 50.2167C215.498 50.1783 215.498 50.7533 215.859 50.7917Z" fill="#DFE6E9"/>
<path d="M241.053 51.2707C243.2 61.3907 241.87 72.0857 237.348 81.3816C237.177 81.7074 237.671 81.9949 237.842 81.6691C242.44 72.2391 243.789 61.4099 241.604 51.1174C241.528 50.7532 240.977 50.9066 241.053 51.2707Z" fill="#DFE6E9"/>
<path d="M205.903 78.1996C215.954 81.9563 226.822 81.7838 237.386 81.573C237.747 81.573 237.747 80.998 237.386 80.998C226.879 81.2088 216.068 81.3813 206.055 77.6438C205.713 77.5096 205.561 78.0654 205.903 78.1996Z" fill="#DFE6E9"/>
<path d="M242.611 63.0005C247.399 61.0455 252.453 59.7805 257.602 59.2822C257.507 59.1864 257.412 59.0905 257.317 58.9947C257.469 66.393 260.452 73.5614 265.563 78.8705C265.81 79.1389 266.228 78.7364 265.962 78.468C260.946 73.2739 258.039 66.2589 257.887 58.9947C257.887 58.8414 257.754 58.688 257.602 58.7072C252.396 59.2247 247.304 60.4705 242.459 62.4447C242.117 62.598 242.269 63.1539 242.611 63.0005Z" fill="#DFE6E9"/>
<path d="M232.218 81.976C232.978 84.6018 233.795 87.2276 234.764 89.7768C235.543 91.8276 236.55 93.821 238.241 95.2585C238.526 95.4885 238.925 95.086 238.64 94.856C236.873 93.3418 235.885 91.2335 235.106 89.0676C234.251 86.691 233.491 84.276 232.769 81.8418C232.655 81.4776 232.123 81.631 232.218 81.976Z" fill="#DFE6E9"/>
<path d="M238.868 95.2968C247.456 89.2976 256.595 84.1226 266.114 79.791C266.456 79.6376 266.152 79.1393 265.829 79.2926C256.291 83.6051 247.171 88.7993 238.583 94.7985C238.279 95.0093 238.564 95.5076 238.868 95.2968Z" fill="#DFE6E9"/>
<path d="M217.569 53.2834C224.599 54.1651 231.667 54.7976 238.735 55.1617C239.096 55.1809 239.096 54.6059 238.735 54.5867C231.648 54.2225 224.599 53.59 217.569 52.7084C217.208 52.67 217.208 53.245 217.569 53.2834Z" fill="#DFE6E9"/>
<path d="M217.417 56.1196C218.386 56.7137 219.697 56.6179 220.78 56.6946C222.338 56.8096 223.896 56.9246 225.454 57.0396C225.815 57.0587 225.815 56.4837 225.454 56.4646C224.143 56.3687 222.832 56.2729 221.521 56.1771C220.343 56.0812 218.728 56.2537 217.702 55.6212C217.398 55.4296 217.113 55.9279 217.417 56.1196Z" fill="#DFE6E9"/>
<path d="M216.429 58.9754C219.963 59.2245 223.497 59.4737 227.012 59.7229C230.394 59.9529 233.909 60.4895 237.291 60.1445C237.652 60.1062 237.652 59.5312 237.291 59.5695C233.909 59.9145 230.394 59.397 227.012 59.1479C223.478 58.8987 219.944 58.6495 216.429 58.4004C216.068 58.3812 216.068 58.9562 216.429 58.9754Z" fill="#DFE6E9"/>
<path d="M215.802 63.8058C218.88 64.8408 222.129 64.8983 225.359 64.8599C228.912 64.8408 232.446 64.8024 235.999 64.7641C236.36 64.7641 236.36 64.1891 235.999 64.1891C232.56 64.2083 229.14 64.2466 225.701 64.2658C222.414 64.2849 219.108 64.2849 215.954 63.2308C215.593 63.1349 215.441 63.6908 215.802 63.8058Z" fill="#DFE6E9"/>
<path d="M211.888 72.4885C211.888 73.1018 211.831 73.7535 211.888 74.386C211.926 74.6927 212.059 74.9993 212.42 75.0185C212.857 75.0377 213.199 74.5393 213.465 74.271C213.902 73.811 214.301 73.3318 214.7 72.8526C214.928 72.5651 214.529 72.1626 214.301 72.4501C213.826 73.0635 213.313 73.6385 212.762 74.1751C212.705 74.2326 212.648 74.2901 212.572 74.3476C212.458 74.4626 212.42 74.4435 212.458 74.271C212.401 74.1368 212.458 73.8685 212.458 73.7343C212.458 73.3126 212.458 72.9101 212.458 72.4885C212.458 72.1243 211.888 72.1243 211.888 72.4885Z" fill="#DFE6E9"/>
<path d="M216.486 68.0797C222.604 69.4022 228.874 69.8622 235.106 69.4597C235.467 69.4405 235.467 68.8655 235.106 68.8847C228.912 69.2872 222.699 68.8272 216.638 67.5238C216.277 67.4472 216.125 68.003 216.486 68.0797Z" fill="#DFE6E9"/>
<path d="M239.001 88.32C246.658 85.5025 253.973 81.8225 260.794 77.3183C261.098 77.1075 260.813 76.6091 260.509 76.82C253.726 81.305 246.468 84.985 238.849 87.7642C238.507 87.8983 238.659 88.4542 239.001 88.32Z" fill="#DFE6E9"/>
<path d="M237.234 84.7357C242.934 83.0682 248.501 81.0365 253.954 78.679C254.296 78.5257 253.992 78.0465 253.669 78.1807C248.273 80.5382 242.725 82.5315 237.082 84.1798C236.74 84.2948 236.873 84.8507 237.234 84.7357Z" fill="#DFE6E9"/>
<path d="M239.704 80.1357C242.953 78.7749 246.202 77.3949 249.451 76.034C252.301 74.8265 255.227 73.734 257.754 71.894C258.039 71.6832 257.773 71.1848 257.469 71.3957C254.885 73.274 251.864 74.4048 248.957 75.6315C245.822 76.954 242.687 78.2765 239.552 79.599C239.229 79.7332 239.381 80.289 239.704 80.1357Z" fill="#DFE6E9"/>
<path d="M242.345 74.2706C243.751 73.6764 245.176 73.1014 246.582 72.5072C246.924 72.3731 246.772 71.8172 246.43 71.9514C245.024 72.5456 243.599 73.1206 242.193 73.7147C241.851 73.8489 242.003 74.4047 242.345 74.2706Z" fill="#DFE6E9"/>
<path d="M243.124 66.8341C245.005 66.8916 246.905 65.9716 248.634 65.2816C250.439 64.5533 252.206 63.7483 253.935 62.8666C254.258 62.6941 253.973 62.1958 253.65 62.3683C251.959 63.2308 250.249 64.0166 248.482 64.7258C246.829 65.3966 244.948 66.3166 243.124 66.2591C242.744 66.24 242.744 66.815 243.124 66.8341Z" fill="#DFE6E9"/>
<path d="M219.526 81.4389C217.379 88.1281 213.788 94.2806 209.057 99.4556C208.886 99.6473 209 99.9347 209.266 99.9539C218.044 100.241 226.176 103.96 233.985 107.716C234.308 107.87 234.612 107.371 234.27 107.218C226.366 103.423 218.158 99.6856 209.266 99.3789C209.342 99.5514 209.399 99.7047 209.475 99.8772C214.282 94.6447 217.911 88.3964 220.096 81.6114C220.191 81.2473 219.64 81.0939 219.526 81.4389Z" fill="#DFE6E9"/>
<path d="M234.631 107.525C237.196 102.503 239.97 97.5963 242.934 92.7855C243.124 92.4788 242.63 92.1721 242.44 92.498C239.476 97.2896 236.702 102.215 234.137 107.237C233.966 107.563 234.46 107.87 234.631 107.525Z" fill="#DFE6E9"/>
<path d="M233.795 100.893C234.156 100.893 234.156 100.318 233.795 100.318C233.415 100.318 233.415 100.893 233.795 100.893Z" fill="#DFE6E9"/>
<path d="M214.092 96.772C217.056 96.5612 219.564 98.3629 222.281 99.2637C223.763 99.7428 225.302 99.992 226.784 100.49C228.285 100.969 229.672 101.698 230.983 102.599C231.287 102.809 231.572 102.311 231.268 102.1C230.071 101.276 228.779 100.586 227.411 100.107C225.796 99.532 224.067 99.2637 222.433 98.727C219.659 97.807 217.132 95.9862 214.092 96.2162C213.712 96.2162 213.712 96.7912 214.092 96.772Z" fill="#DFE6E9"/>
<path d="M217.094 94.3192C221.54 95.4692 225.796 97.2516 229.729 99.6283C230.052 99.82 230.337 99.3216 230.014 99.13C226.043 96.715 221.749 94.9133 217.246 93.7633C216.885 93.6867 216.733 94.2233 217.094 94.3192Z" fill="#DFE6E9"/>
<path d="M218.538 90.9649C220.514 91.3866 222.338 92.1916 224.01 93.3416C224.314 93.5524 224.599 93.0541 224.295 92.8432C222.585 91.6741 220.704 90.8499 218.69 90.4091C218.329 90.3324 218.177 90.8883 218.538 90.9649Z" fill="#DFE6E9"/>
<path d="M219.716 87.8981C222.927 89.1056 226.1 90.3897 229.254 91.7506C229.596 91.9039 229.881 91.4056 229.539 91.2523C226.347 89.8722 223.117 88.5497 219.868 87.3422C219.507 87.2272 219.374 87.7831 219.716 87.8981Z" fill="#DFE6E9"/>
<path d="M58.121 58.2472C57.817 62.8089 57.741 67.4089 56.297 71.7981C54.948 75.8806 52.687 79.6181 49.723 82.7039C49.476 82.9722 49.875 83.3747 50.122 83.1064C53.086 80.0206 55.366 76.3022 56.753 72.2389C58.292 67.7347 58.368 62.9622 58.691 58.2472C58.71 57.8831 58.14 57.8831 58.121 58.2472Z" fill="#DFE6E9"/>
<path d="M58.52 58.4203C65.968 58.3244 73.435 58.3436 80.883 58.4969C82.783 58.5353 84.683 58.5928 86.564 58.6503C87.533 58.6886 89.015 58.4011 89.528 59.4361C89.889 60.1644 89.87 61.3336 89.984 62.1386C90.478 65.6653 90.573 69.2494 90.307 72.7953C90.003 76.8203 89.205 80.7878 87.97 84.6211C87.856 84.9661 88.407 85.1194 88.521 84.7744C90.839 77.5869 91.58 69.9203 90.592 62.4261C90.497 61.6403 90.364 60.8544 90.231 60.0878C90.136 59.5319 90.079 58.8228 89.585 58.4586C89.11 58.0944 88.445 58.1519 87.894 58.1328C86.811 58.0944 85.747 58.0561 84.664 58.0369C80.56 57.9219 76.456 57.8453 72.352 57.8261C67.735 57.7878 63.118 57.8069 58.52 57.8644C58.159 57.8644 58.159 58.4394 58.52 58.4203Z" fill="#DFE6E9"/>
<path d="M49.8561 83.4134C59.5081 86.1351 69.7111 86.4226 79.5151 84.2951C79.8761 84.2184 79.7241 83.6626 79.3631 83.7393C69.6731 85.8668 59.5651 85.5601 50.0081 82.8576C49.6471 82.7618 49.4951 83.2984 49.8561 83.4134Z" fill="#DFE6E9"/>
<path d="M88.5211 59.8C88.0841 68.1758 85.8041 76.36 81.8521 83.72C81.6811 84.0458 82.1751 84.3333 82.3461 84.0075C86.3361 76.5516 88.6541 68.2716 89.0911 59.8C89.1101 59.4358 88.5401 59.4358 88.5211 59.8Z" fill="#DFE6E9"/>
<path d="M88.521 61.3904C89.053 63.9395 88.825 66.5079 88.388 69.0379C88.008 71.242 87.571 73.4462 87.077 75.6504C86.108 79.9629 84.797 84.2179 82.289 87.8787C82.08 88.1854 82.574 88.4729 82.783 88.1662C85.386 84.3712 86.716 79.9437 87.704 75.4779C88.711 70.9162 90.06 65.9137 89.072 61.237C88.996 60.8729 88.445 61.0262 88.521 61.3904Z" fill="#DFE6E9"/>
<path d="M88.939 63.2306C89.604 71.9323 88.198 80.6915 84.835 88.7415C84.702 89.0865 85.253 89.2398 85.386 88.8948C88.749 80.8065 90.1741 71.9898 89.509 63.2306C89.49 62.8665 88.92 62.8665 88.939 63.2306Z" fill="#DFE6E9"/>
<path d="M53.485 88.1665C63.004 89.8148 72.732 89.7573 82.232 88.0131C82.593 87.9556 82.441 87.3998 82.08 87.4573C72.694 89.1823 63.042 89.2398 53.637 87.6106C53.276 87.5531 53.124 88.109 53.485 88.1665Z" fill="#DFE6E9"/>
<path d="M54.7392 84.9079C54.3022 85.6363 53.7322 86.2496 53.0482 86.7479C52.7442 86.9588 53.0292 87.4571 53.3332 87.2463C54.0932 86.6904 54.7392 86.0196 55.2142 85.2146C55.4232 84.8888 54.9292 84.6013 54.7392 84.9079Z" fill="#DFE6E9"/>
<path d="M56.069 89.1054C55.822 89.5846 55.537 90.0446 55.195 90.4663C54.967 90.7538 55.366 91.1563 55.594 90.8688C55.974 90.4088 56.297 89.9296 56.544 89.3929C56.715 89.0671 56.24 88.7604 56.069 89.1054Z" fill="#DFE6E9"/>
<path d="M55.5181 91.2525C65.0751 92.3833 74.7841 91.77 84.1321 89.4316C84.4931 89.3358 84.3411 88.78 83.9801 88.8758C74.6891 91.195 65.0371 91.7891 55.5181 90.6583C55.1571 90.6391 55.1571 91.2141 55.5181 91.2525Z" fill="#DFE6E9"/>
<path d="M60.1731 65.9521C68.3811 64.8213 76.6651 65.3579 84.8921 65.9329C85.2531 65.9521 85.2531 65.3771 84.8921 65.3579C76.6081 64.7829 68.2861 64.2463 60.0211 65.3963C59.6601 65.4346 59.8121 65.9904 60.1731 65.9521Z" fill="#DFE6E9"/>
<path d="M57.817 74.5389C65.512 74.6539 73.188 75.018 80.845 75.6314C81.206 75.6697 81.206 75.0947 80.845 75.0564C73.188 74.4239 65.512 74.0597 57.817 73.9639C57.437 73.9639 57.437 74.5389 57.817 74.5389Z" fill="#DFE6E9"/>
<path d="M55.5181 78.9856C64.0301 79.3881 72.5421 79.8098 81.0541 80.2123C81.4151 80.2315 81.4151 79.6565 81.0541 79.6373C72.5421 79.2348 64.0301 78.8131 55.5181 78.4106C55.1571 78.3915 55.1571 78.9665 55.5181 78.9856Z" fill="#DFE6E9"/>
<path d="M62.548 71.1659C60.933 75.0376 59.394 78.9284 57.969 82.8767C57.836 83.2217 58.387 83.3751 58.52 83.0301C59.945 79.1392 61.446 75.2867 63.042 71.4726C63.175 71.1276 62.681 70.8209 62.548 71.1659Z" fill="#DFE6E9"/>
<path d="M68.989 71.8362C67.108 75.6695 65.55 79.6179 64.201 83.6429C64.087 83.9879 64.638 84.1412 64.752 83.7962C66.082 79.8095 67.621 75.8995 69.483 72.1237C69.654 71.7979 69.16 71.5104 68.989 71.8362Z" fill="#DFE6E9"/>
<path d="M76.2091 72.2966C74.0431 75.8425 72.4281 79.695 71.4211 83.7391C71.3261 84.1033 71.8771 84.2566 71.9721 83.8925C72.9601 79.8866 74.5561 76.0916 76.7031 72.5841C76.8931 72.2775 76.3991 71.99 76.2091 72.2966Z" fill="#DFE6E9"/>
<path d="M81.9092 72.5646C80.1232 76.053 78.6032 79.6755 77.3492 83.413C77.2352 83.758 77.7862 83.9113 77.9002 83.5663C79.1352 79.8863 80.6362 76.3213 82.4032 72.8713C82.5552 72.5263 82.0802 72.2388 81.9092 72.5646Z" fill="#DFE6E9"/>
<path d="M57.0191 75.9383C57.8551 76.3216 58.5581 76.8391 59.1851 77.5099C59.4321 77.7782 59.8311 77.3757 59.5841 77.1074C58.9381 76.3983 58.1781 75.8424 57.3041 75.4399C56.9621 75.3058 56.6771 75.7849 57.0191 75.9383Z" fill="#DFE6E9"/>
<path d="M59.6031 74.9606C58.3871 75.6889 57.3231 76.6089 56.4301 77.7014C56.2021 77.9889 56.6011 78.3914 56.8291 78.1039C57.7031 77.0306 58.7101 76.1489 59.8881 75.4589C60.2111 75.2673 59.9261 74.7689 59.6031 74.9606Z" fill="#DFE6E9"/>
<path d="M67.222 80.9789C68.286 81.6114 69.198 82.3973 69.996 83.3364C70.224 83.6239 70.642 83.2023 70.395 82.9339C69.578 81.9564 68.609 81.1323 67.507 80.4806C67.203 80.2889 66.918 80.7873 67.222 80.9789Z" fill="#DFE6E9"/>
<path d="M70.452 80.1741C69.236 81.0941 68.115 82.1291 67.089 83.2599C66.842 83.5282 67.241 83.9499 67.488 83.6624C68.476 82.5507 69.559 81.5541 70.737 80.6532C71.022 80.4616 70.737 79.9632 70.452 80.1741Z" fill="#DFE6E9"/>
<path d="M61.921 75.0755C62.909 75.9955 63.897 76.8963 64.885 77.8163C65.151 78.0654 65.55 77.6629 65.284 77.4138C64.296 76.4938 63.308 75.593 62.32 74.673C62.054 74.4046 61.655 74.8071 61.921 75.0755Z" fill="#DFE6E9"/>
<path d="M65.1701 74.6159C63.7831 75.4209 62.5671 76.4559 61.5791 77.7208C61.3511 78.0083 61.7501 78.4108 61.9781 78.1233C62.9471 76.8967 64.1061 75.9 65.4551 75.1142C65.7781 74.9225 65.4741 74.4242 65.1701 74.6159Z" fill="#DFE6E9"/>
<path d="M69.1031 78.9092C67.7351 78.1617 67.545 76.3025 68.856 75.3442C69.844 74.635 71.8581 74.0408 72.6181 75.3442C73.2831 76.5133 72.4851 77.9316 71.5351 78.6408C70.0531 79.7333 69.0081 78.5258 68.3241 77.28C68.1531 76.9542 67.6591 77.2417 67.8301 77.5675C68.7041 79.1583 70.1101 80.4041 71.8581 79.12C73.1501 78.1808 74.043 76.1875 72.941 74.7692C71.801 73.3125 69.198 74.0792 68.096 75.2292C66.861 76.5325 67.3171 78.545 68.8181 79.3691C69.1411 79.58 69.4261 79.0817 69.1031 78.9092Z" fill="#DFE6E9"/>
<path d="M61.047 59.7619C60.686 61.0844 60.572 62.426 60.762 63.806C60.8 64.1702 61.389 64.1702 61.332 63.806C61.161 62.4835 61.237 61.1994 61.598 59.9152C61.693 59.5702 61.142 59.4169 61.047 59.7619Z" fill="#DFE6E9"/>
<path d="M61.408 60.1062C68.552 59.3012 75.753 59.1096 82.935 59.5504C82.84 59.4546 82.745 59.3587 82.65 59.2629C82.745 60.3937 82.726 61.5054 82.536 62.6171C82.479 62.9812 83.03 63.1346 83.087 62.7704C83.277 61.6012 83.334 60.4512 83.22 59.2629C83.201 59.1096 83.106 58.9946 82.935 58.9754C75.753 58.5346 68.552 58.7262 61.408 59.5312C61.047 59.5696 61.047 60.1446 61.408 60.1062Z" fill="#DFE6E9"/>
<path d="M61.959 63.6141C68.799 63.4608 75.639 63.3074 82.479 63.1541C82.84 63.1541 82.84 62.5791 82.479 62.5791C75.639 62.7324 68.799 62.8858 61.959 63.0391C61.598 63.0583 61.598 63.6333 61.959 63.6141Z" fill="#DFE6E9"/>
<path d="M176.567 176.851C187.245 176.851 197.904 176.851 208.582 176.851C209.684 176.851 209.684 175.126 208.582 175.126C197.904 175.126 187.245 175.126 176.567 175.126C175.465 175.126 175.465 176.851 176.567 176.851Z" fill="#111314"/>
<path d="M212.458 176.851C214.757 176.851 217.037 176.851 219.336 176.851C220.438 176.851 220.438 175.126 219.336 175.126C217.037 175.126 214.757 175.126 212.458 175.126C211.356 175.126 211.356 176.851 212.458 176.851Z" fill="#111314"/>
<path d="M226.233 175.643C227.62 175.643 229.026 175.643 230.413 175.643C231.515 175.643 231.515 173.918 230.413 173.918C229.026 173.918 227.62 173.918 226.233 173.918C225.131 173.918 225.131 175.643 226.233 175.643Z" fill="#111314"/>
<path d="M28.9181 195.021C44.3081 194.637 59.6981 194.35 75.0881 194.177C79.4961 194.12 83.9231 194.082 88.3311 194.043C88.6921 194.043 88.6921 193.468 88.3311 193.468C72.9411 193.583 57.5511 193.813 42.1611 194.139C37.7531 194.235 33.3261 194.331 28.9181 194.446C28.5381 194.465 28.5381 195.04 28.9181 195.021Z" fill="#111314"/>
<path d="M70.471 198.222C82.137 197.723 93.822 197.8 105.469 198.452C105.83 198.471 105.83 197.896 105.469 197.877C93.822 197.225 82.137 197.148 70.471 197.647C70.091 197.666 70.091 198.241 70.471 198.222Z" fill="#111314"/>
<path d="M254.923 174.282C254.182 176.046 253.213 177.675 252.016 179.17C251.788 179.457 252.187 179.86 252.415 179.572C253.688 178.001 254.695 176.295 255.474 174.436C255.607 174.091 255.056 173.937 254.923 174.282Z" fill="#DFE6E9"/>
<path d="M258.514 173.861C257.013 177.215 254.866 180.224 252.187 182.735C251.921 182.984 252.32 183.386 252.586 183.137C255.303 180.607 257.469 177.56 259.008 174.148C259.16 173.822 258.666 173.535 258.514 173.861Z" fill="#DFE6E9"/>
<path d="M262.238 174.052C259.863 178.92 256.462 183.175 252.225 186.53C251.94 186.76 252.339 187.162 252.624 186.932C256.88 183.54 260.319 179.227 262.713 174.32C262.884 174.014 262.39 173.726 262.238 174.052Z" fill="#DFE6E9"/>
<path d="M265.715 174.206C263.131 178.94 259.92 183.252 256.12 187.067C255.854 187.335 256.272 187.737 256.519 187.469C260.338 183.636 263.606 179.266 266.19 174.493C266.399 174.167 265.905 173.88 265.715 174.206Z" fill="#DFE6E9"/>
<path d="M268.812 174.072C266.342 178.902 263.283 183.387 259.654 187.412C259.407 187.68 259.806 188.102 260.053 187.814C263.701 183.751 266.817 179.247 269.306 174.359C269.477 174.033 268.983 173.746 268.812 174.072Z" fill="#DFE6E9"/>
<path d="M271.32 174.091C269.059 178.959 266.114 183.483 262.561 187.488C262.314 187.757 262.713 188.178 262.96 187.891C266.551 183.828 269.534 179.285 271.814 174.359C271.985 174.053 271.491 173.746 271.32 174.091Z" fill="#DFE6E9"/>
<path d="M271.624 177.809C269.857 181.374 267.691 184.709 265.164 187.776C264.936 188.064 265.335 188.466 265.563 188.179C268.128 185.074 270.332 181.7 272.118 178.097C272.289 177.771 271.795 177.484 271.624 177.809Z" fill="#DFE6E9"/>
<path d="M105.602 13.1674C105.602 16.4257 105.602 19.6841 105.602 22.9232C105.602 23.2874 106.172 23.2874 106.172 22.9232C106.172 19.6649 106.172 16.4065 106.172 13.1674C106.172 12.784 105.602 12.784 105.602 13.1674Z" fill="#DFE6E9"/>
<path d="M95.2279 23.4598C104.747 23.4598 114.247 23.4598 123.766 23.4598C124.127 23.4598 124.127 22.8848 123.766 22.8848C114.247 22.8848 104.747 22.8848 95.2279 22.8848C94.8479 22.8848 94.8479 23.4598 95.2279 23.4598Z" fill="#DFE6E9"/>
<path d="M115.292 24.1691C115.292 27.1783 115.292 30.1683 115.292 33.1775C115.292 33.5416 115.862 33.5416 115.862 33.1775C115.862 30.1683 115.862 27.1783 115.862 24.1691C115.862 23.805 115.292 23.805 115.292 24.1691Z" fill="#DFE6E9"/>
<path d="M100.434 34.2313C109.706 34.2313 118.959 34.2313 128.231 34.2313C128.592 34.2313 128.592 33.6562 128.231 33.6562C118.959 33.6562 109.706 33.6562 100.434 33.6562C100.073 33.6562 100.073 34.2313 100.434 34.2313Z" fill="#DFE6E9"/>
<path d="M99.9021 34.4425C99.9021 36.7041 99.9021 38.9466 99.9021 41.2083C99.9021 41.5725 100.472 41.5725 100.472 41.2083C100.472 38.9466 100.472 36.7041 100.472 34.4425C100.472 34.0783 99.9021 34.0591 99.9021 34.4425Z" fill="#DFE6E9"/>
<path d="M237.766 114.252C243.523 114.252 249.261 114.252 255.018 114.252C255.379 114.252 255.379 113.677 255.018 113.677C249.261 113.677 243.523 113.677 237.766 113.677C237.386 113.677 237.386 114.252 237.766 114.252Z" fill="#DFE6E9"/>
<path d="M246.886 114.483C246.886 116.763 246.886 119.044 246.886 121.344C246.886 121.708 247.456 121.708 247.456 121.344C247.456 119.063 247.456 116.783 247.456 114.483C247.456 114.118 246.886 114.118 246.886 114.483Z" fill="#DFE6E9"/>
<path d="M236.455 121.631C243.086 121.631 249.698 121.631 256.329 121.631C256.69 121.631 256.69 121.056 256.329 121.056C249.698 121.056 243.086 121.056 236.455 121.056C236.094 121.056 236.094 121.631 236.455 121.631Z" fill="#DFE6E9"/>
<path d="M241.661 121.612C241.661 123.548 241.661 125.484 241.661 127.42C241.661 127.784 242.231 127.784 242.231 127.42C242.231 125.484 242.231 123.548 242.231 121.612C242.231 121.229 241.661 121.229 241.661 121.612Z" fill="#DFE6E9"/>
<path d="M254.201 121.862C254.201 123.797 254.201 125.733 254.201 127.669C254.201 128.033 254.771 128.033 254.771 127.669C254.771 125.733 254.771 123.797 254.771 121.862C254.771 121.497 254.201 121.497 254.201 121.862Z" fill="#DFE6E9"/>
<path d="M68.6471 177.081C77.2731 177.081 85.8991 177.081 94.5251 177.081C94.8861 177.081 94.8861 176.506 94.5251 176.506C85.8991 176.506 77.2731 176.506 68.6471 176.506C68.2671 176.506 68.2671 177.081 68.6471 177.081Z" fill="#DFE6E9"/>
<path d="M28.9181 177.445C34.3521 177.445 39.7861 177.445 45.2201 177.445C45.5811 177.445 45.5811 176.87 45.2201 176.87C39.7861 176.87 34.3521 176.87 28.9181 176.87C28.5381 176.87 28.5381 177.445 28.9181 177.445Z" fill="#DFE6E9"/>
<path d="M63.213 131.943C71.839 131.943 80.465 131.943 89.091 131.943C89.452 131.943 89.452 131.368 89.091 131.368C80.465 131.368 71.839 131.368 63.213 131.368C62.833 131.368 62.833 131.943 63.213 131.943Z" fill="#DFE6E9"/>
<path d="M77.6721 132.174C77.6721 134.167 77.6721 136.179 77.6721 138.173C77.6721 138.537 78.2421 138.537 78.2421 138.173C78.2421 136.179 78.2421 134.167 78.2421 132.174C78.2421 131.809 77.6721 131.809 77.6721 132.174Z" fill="#DFE6E9"/>
<path d="M72.7889 138.46C79.5149 138.46 86.2409 138.46 92.9669 138.46C93.3279 138.46 93.3279 137.885 92.9669 137.885C86.2409 137.885 79.5149 137.885 72.7889 137.885C72.4089 137.885 72.4089 138.46 72.7889 138.46Z" fill="#DFE6E9"/>
<path d="M88.0271 138.69C88.0271 140.856 88.0271 143.041 88.0271 145.207C88.0271 145.571 88.5971 145.571 88.5971 145.207C88.5971 143.041 88.5971 140.856 88.5971 138.69C88.5971 138.326 88.0271 138.326 88.0271 138.69Z" fill="#DFE6E9"/>
<path d="M227.62 179.131C234.935 179.131 242.231 179.131 249.546 179.131C249.907 179.131 249.907 178.556 249.546 178.556C242.231 178.556 234.935 178.556 227.62 178.556C227.24 178.556 227.24 179.131 227.62 179.131Z" fill="#DFE6E9"/>
<path d="M274.55 177.042C282.321 177.042 290.073 177.042 297.844 177.042C298.205 177.042 298.205 176.467 297.844 176.467C290.073 176.467 282.321 176.467 274.55 176.467C274.189 176.467 274.189 177.042 274.55 177.042Z" fill="#DFE6E9"/>
<path d="M199.918 122.513C199.918 126.193 199.918 129.892 199.918 133.572C199.918 133.936 200.488 133.936 200.488 133.572C200.488 129.892 200.488 126.193 200.488 122.513C200.488 122.13 199.918 122.13 199.918 122.513Z" fill="#DFE6E9"/>
<path d="M200.545 127.975C203.965 127.975 207.404 127.975 210.824 127.975C211.185 127.975 211.185 127.4 210.824 127.4C207.404 127.4 203.965 127.4 200.545 127.4C200.184 127.4 200.184 127.975 200.545 127.975Z" fill="#DFE6E9"/>
<path d="M210.197 123.893C210.197 127.343 210.197 130.812 210.197 134.262C210.197 134.626 210.767 134.626 210.767 134.262C210.767 130.812 210.767 127.343 210.767 123.893C210.767 123.51 210.197 123.51 210.197 123.893Z" fill="#DFE6E9"/>
<path d="M203.642 135.24C209 135.24 214.377 135.24 219.735 135.24C220.096 135.24 220.096 134.665 219.735 134.665C214.377 134.665 209 134.665 203.642 134.665C203.262 134.665 203.262 135.24 203.642 135.24Z" fill="#DFE6E9"/>
<path d="M214.662 135.987C214.662 138.632 214.662 141.277 214.662 143.941C214.662 144.305 215.232 144.305 215.232 143.941C215.232 141.296 215.232 138.651 215.232 135.987C215.232 135.604 214.662 135.604 214.662 135.987Z" fill="#DFE6E9"/>
<path d="M171.304 27.7531C171.304 33.7523 171.304 39.7514 171.304 45.7506C171.304 46.1148 171.874 46.1148 171.874 45.7506C171.874 39.7514 171.874 33.7523 171.874 27.7531C171.874 27.3889 171.304 27.3889 171.304 27.7531Z" fill="#DFE6E9"/>
<path d="M171.893 27.7146C181.241 27.7146 190.589 27.7146 199.918 27.7146C200.279 27.7146 200.279 27.1396 199.918 27.1396C190.57 27.1396 181.222 27.1396 171.893 27.1396C171.532 27.1396 171.532 27.7146 171.893 27.7146Z" fill="#DFE6E9"/>
<path d="M199.671 27.6574C199.671 33.5991 199.671 39.5407 199.671 45.4632C199.671 45.8274 200.241 45.8274 200.241 45.4632C200.241 39.5216 200.241 33.5799 200.241 27.6574C200.241 27.2932 199.671 27.2932 199.671 27.6574Z" fill="#DFE6E9"/>
<path d="M171.836 46.2298C181.279 46.2298 190.741 46.2298 200.184 46.2298C200.545 46.2298 200.545 45.6548 200.184 45.6548C190.741 45.6548 181.279 45.6548 171.836 45.6548C171.475 45.6548 171.475 46.2298 171.836 46.2298Z" fill="#DFE6E9"/>
<path d="M184.015 27.1212C183.92 26.6037 183.901 26.0862 183.996 25.5687C184.091 25.1087 184.319 24.1887 184.851 24.7637C185.117 25.0512 185.136 25.6837 185.212 26.0478C185.307 26.527 185.402 27.0253 185.497 27.5045C185.573 27.8687 186.124 27.7153 186.048 27.3512C185.877 26.5078 185.801 25.5687 185.478 24.7637C185.307 24.342 184.984 23.8437 184.471 23.8628C183.901 23.882 183.673 24.4953 183.54 24.9745C183.312 25.722 183.312 26.4887 183.464 27.2362C183.521 27.6387 184.072 27.4853 184.015 27.1212Z" fill="#DFE6E9"/>
<path d="M172.957 29.8231C172.957 34.4806 172.957 39.1381 172.957 43.7956C172.957 44.1598 173.527 44.1598 173.527 43.7956C173.527 39.1381 173.527 34.4806 173.527 29.8231C173.527 29.4398 172.957 29.4398 172.957 29.8231Z" fill="#DFE6E9"/>
<path d="M173.394 29.785C181.602 29.785 189.81 29.785 197.999 29.785C198.36 29.785 198.36 29.21 197.999 29.21C189.791 29.21 181.583 29.21 173.394 29.21C173.033 29.21 173.033 29.785 173.394 29.785Z" fill="#DFE6E9"/>
<path d="M198.037 29.3444C198.037 34.3086 198.037 39.2727 198.037 44.2369C198.037 44.6011 198.607 44.6011 198.607 44.2369C198.607 39.2727 198.607 34.3086 198.607 29.3444C198.607 28.9802 198.037 28.9802 198.037 29.3444Z" fill="#DFE6E9"/>
<path d="M173.698 44.2176C181.849 44.2176 190 44.2176 198.151 44.2176C198.512 44.2176 198.512 43.6426 198.151 43.6426C190 43.6426 181.849 43.6426 173.698 43.6426C173.337 43.6426 173.337 44.2176 173.698 44.2176Z" fill="#DFE6E9"/>
<path d="M173.375 39.2147C177.099 38.1988 180.823 37.3172 184.642 38.4097C187.796 39.3297 190.684 41.0355 193.952 41.5913C194.313 41.6488 194.465 41.093 194.104 41.0355C190.627 40.4413 187.587 38.5438 184.186 37.7005C180.481 36.7805 176.814 37.6813 173.242 38.6588C172.862 38.7547 173.014 39.3105 173.375 39.2147Z" fill="#DFE6E9"/>
<path d="M186.447 39.1768C189.962 38.7743 193.458 37.3751 197.011 38.1226C197.372 38.1993 197.524 37.6435 197.163 37.5668C193.534 36.8001 190.019 38.1801 186.447 38.5826C186.086 38.6401 186.086 39.2343 186.447 39.1768Z" fill="#DFE6E9"/>
<path d="M187.055 35.0941C186.618 34.6724 186.58 33.9249 187.036 33.5032C187.53 33.0241 188.423 33.1582 188.803 33.7141C189.202 34.2699 189.107 35.1132 188.594 35.5541C187.967 36.0907 187.131 35.6691 186.694 35.1132C186.485 34.8257 185.972 35.1132 186.2 35.4007C186.808 36.2249 187.929 36.7616 188.841 36.0907C189.696 35.4582 189.829 34.1357 189.183 33.3116C188.613 32.5832 187.435 32.4299 186.713 33.0241C185.953 33.6374 185.934 34.8641 186.637 35.5349C186.922 35.7457 187.321 35.3432 187.055 35.0941Z" fill="#DFE6E9"/>
<path d="M209.684 162.974C210.292 161.709 211.299 160.156 212.933 159.696C215.441 158.987 217.227 161.517 220.97 163.357C227.734 166.692 233.624 164.201 234.175 166.06C234.612 167.536 231.097 169.931 228.817 171.081C224.238 173.381 215.593 175.241 211.603 170.315C211.014 169.586 209.38 167.306 209.684 162.974Z" fill="#111314" stroke="#111314" stroke-width="3" stroke-miterlimit="10"/>
<path d="M204.516 165.466C203.699 164.68 203.338 163.683 203.186 162.955C204.611 158.144 207.575 154.483 211.033 154.08C213.256 153.831 215.441 154.943 217.151 155.825C219.944 157.243 220.001 158.182 222.699 159.869C227.24 162.725 230.47 162.207 230.736 163.721C230.983 165.14 228.437 167.095 225.948 167.976C220.951 169.74 219.374 166.079 211.603 166.424C208.848 166.558 206.283 167.152 204.516 165.466Z" fill="#111314" stroke="#111314" stroke-width="3" stroke-miterlimit="10"/>
<path d="M170.24 134.186C170.62 136.563 171.209 140.415 171.817 145.168C174.135 163.032 173.204 165.638 175.978 169.357C182.381 177.943 196.65 176.487 197.771 176.353C205.903 175.413 211.413 171.101 213.617 169.165C212.363 166.961 211.109 164.776 209.855 162.572C203.585 162.629 197.315 162.706 191.026 162.763C192.375 157.857 193.952 149.615 192.603 139.591C191.577 131.924 189.221 125.868 187.245 121.804C182.077 122.188 176.111 123.05 169.613 124.794C166.478 125.638 163.571 126.596 160.892 127.593C160.759 131.215 160.588 136.371 160.493 142.581C160.17 166.079 161.5 170.909 164.844 173.363C166.478 174.551 169.328 174.647 174.952 174.762C184.737 174.973 193.021 172.385 202.692 169.357C204.877 168.667 206.644 168.073 207.727 167.708C207.176 163.319 206.606 158.949 206.055 154.56C202.198 155.614 198.17 156.611 193.99 157.569C189.981 158.47 186.086 159.275 182.305 159.965" fill="#F7FAFC"/>
<path d="M170.24 134.186C170.62 136.563 171.209 140.415 171.817 145.168C174.135 163.032 173.204 165.638 175.978 169.357C182.381 177.943 196.65 176.487 197.771 176.353C205.903 175.413 211.413 171.101 213.617 169.165C212.363 166.961 211.109 164.776 209.855 162.572C203.585 162.629 197.315 162.706 191.026 162.763C192.375 157.857 193.952 149.615 192.603 139.591C191.577 131.924 189.221 125.868 187.245 121.804C182.077 122.188 176.111 123.05 169.613 124.794C166.478 125.638 163.571 126.596 160.892 127.593C160.759 131.215 160.588 136.371 160.493 142.581C160.17 166.079 161.5 170.909 164.844 173.363C166.478 174.551 169.328 174.647 174.952 174.762C184.737 174.973 193.021 172.385 202.692 169.357C204.877 168.667 206.644 168.073 207.727 167.708C207.176 163.319 206.606 158.949 206.055 154.56C202.198 155.614 198.17 156.611 193.99 157.569C189.981 158.47 186.086 159.275 182.305 159.965" stroke="#111314"/>
<path d="M168.169 137.214C170.145 137.962 170.487 140.472 170.677 142.312C170.943 144.785 171.095 147.257 171.247 149.749C171.551 154.598 171.874 159.467 173.071 164.182C173.166 164.546 173.717 164.392 173.622 164.028C172.254 158.642 172.045 153.084 171.684 147.583C171.532 145.226 171.475 142.792 170.981 140.473C170.639 138.863 169.936 137.291 168.321 136.677C167.979 136.543 167.827 137.099 168.169 137.214Z" fill="#636E72"/>
<path d="M177.194 170.372C178.657 171.656 180.082 173.151 181.716 174.244C183.293 175.298 185.193 175.681 187.036 176.026C187.397 176.103 187.549 175.547 187.188 175.471C185.402 175.126 183.559 174.781 182.001 173.746C180.424 172.691 179.037 171.235 177.593 169.97C177.327 169.721 176.909 170.142 177.194 170.372Z" fill="#636E72"/>
<path d="M191.349 160.789C193.42 160.828 195.434 161.211 197.372 161.92C197.714 162.054 197.866 161.499 197.524 161.364C195.529 160.636 193.458 160.253 191.349 160.214C190.969 160.195 190.969 160.77 191.349 160.789Z" fill="#636E72"/>
<path opacity="0.58" d="M160.759 140.722C160.873 138.939 162.089 137.348 163.723 136.62C165.433 135.873 167.561 136.371 168.872 137.425C171.152 139.227 170.962 142.619 171.057 146.721C171.228 154.215 171.437 163.204 175.807 169.203C176.814 170.583 178.638 172.634 181.944 174.397C180.234 175.222 177.175 176.41 173.318 176.199C171.646 176.103 167.143 175.816 163.913 172.5C162.336 170.89 160.968 168.437 160.55 156.611C160.417 152.567 160.379 147.143 160.759 140.722Z" fill="#636E72"/>
<path opacity="0.59" d="M191.843 158.201C196.574 156.975 201.305 155.748 206.036 154.521C206.321 157.166 206.587 159.831 206.872 162.476C204.725 161.881 202.293 161.326 199.652 160.885C196.593 160.386 193.781 160.137 191.273 160.041C191.463 159.428 191.653 158.815 191.843 158.201Z" fill="#636E72"/>
<path d="M162.07 80.1164C162.013 78.7747 162.165 77.2989 163.039 76.8005C166.174 75.0372 177.631 86.403 183.255 98.9955C185.459 103.941 188.157 112.201 187.568 123.529C178.866 125.139 170.183 126.768 161.481 128.378C159.999 125.867 157.491 122.053 153.634 118.028C149.777 114.003 148.314 113.696 146.661 110.764C143.127 104.477 145.027 97.328 145.502 95.5264C146.129 93.188 147.497 88.1664 152.247 84.2755C156.066 81.1322 160.17 80.3464 162.07 80.1164Z" fill="#F7FAFC" stroke="#111314" stroke-miterlimit="10"/>
<path opacity="0.36" d="M161.747 83.1833C164.008 84.755 171.893 90.6008 175.085 101.775C178.562 114.003 173.945 123.989 172.805 126.27C177.783 125.427 182.78 124.602 187.758 123.759C188.062 118.891 187.948 110.304 184.186 100.587C179.474 88.435 171.57 81.1708 167.656 78.0083C165.68 79.7333 163.723 81.4583 161.747 83.1833Z" fill="#636E72"/>
<path opacity="0.4" d="M181.697 96.3696C182.02 98.2288 182.4 100.95 182.552 104.285C182.818 110.17 183.027 114.367 180.975 118.66C180.177 120.347 178.41 123.337 174.572 126.059C178.923 125.254 183.255 124.468 187.606 123.663C187.815 119.657 187.644 114.06 186.029 107.678C184.832 103.097 183.217 99.283 181.697 96.3696Z" fill="#636E72"/>
<path d="M125.153 78.5259C126.483 80.4809 127.68 82.0909 128.649 83.3176C131.024 86.3651 131.936 87.1509 133.209 87.4193C134.292 87.6493 135.318 87.4576 135.926 87.3234C137.617 86.9784 138.301 86.2884 139.422 85.7518C140.904 85.0618 141.493 85.4068 146.3 85.4643C149.777 85.5026 149.397 85.3109 152.513 85.3684C155.249 85.4259 157.51 85.5984 159.106 85.7518C158.65 85.3876 158.194 85.0426 157.757 84.6784C157.13 84.5059 155.306 83.9309 153.881 82.1293C152.703 80.6343 152.418 79.1009 152.323 78.4109C152.722 78.2959 153.425 78.0084 153.881 77.3376C154.831 75.9193 153.843 73.9834 153.501 73.3318C153.083 72.5268 152.323 71.0701 151.278 71.1851C150.499 71.2618 149.758 72.1818 149.53 73.4276C147.744 74.0026 145.046 74.5393 142.253 73.6193C136.99 71.8751 135.907 66.3551 133.038 66.2784C131.176 66.2593 128.535 68.4443 125.153 78.5259Z" fill="#F7FAFC"/>
<path d="M124.64 77.6442C126.141 81.1134 128.421 84.18 131.29 86.6142C131.575 86.8442 131.974 86.4417 131.689 86.2117C128.839 83.7967 126.616 80.7875 125.115 77.3567C124.982 77.0309 124.488 77.3184 124.64 77.6442Z" fill="#111314"/>
<path d="M133.76 81.7842C133.931 82.7617 134.14 83.7201 134.387 84.6784C134.615 85.5026 134.786 86.4992 135.204 87.2467C135.793 88.3009 137.674 86.9976 138.282 86.5184C138.567 86.2884 138.168 85.8859 137.883 86.1159C137.465 86.4417 136.629 87.0934 136.059 87.0167C135.432 86.9401 135.28 85.6942 135.128 85.2151C134.786 84.0459 134.52 82.8576 134.311 81.6501C134.235 81.2667 133.684 81.4201 133.76 81.7842Z" fill="#111314"/>
<path d="M131.157 81.8995C130.435 81.2862 129.504 80.5003 129.846 79.427C129.694 79.4653 129.523 79.5037 129.371 79.5612C130.112 80.2895 130.682 81.152 131.043 82.1295C131.1 82.0145 131.176 81.8995 131.233 81.7845C131.119 81.6887 130.986 81.5928 130.872 81.5162C130.777 81.152 130.226 81.3053 130.321 81.6695C130.454 82.187 130.872 82.417 131.385 82.3403C131.537 82.3212 131.632 82.1103 131.575 81.9953C131.176 80.922 130.568 79.9828 129.751 79.1778C129.599 79.0245 129.333 79.1011 129.276 79.312C128.877 80.5962 129.827 81.5928 130.739 82.3403C131.024 82.532 131.442 82.1295 131.157 81.8995Z" fill="#111314"/>
<path d="M129.371 79.7717C129.827 80.4808 130.283 81.19 130.739 81.8992C130.929 82.2058 131.423 81.9183 131.233 81.6117C130.777 80.9025 130.321 80.1933 129.865 79.4842C129.675 79.1583 129.181 79.4458 129.371 79.7717Z" fill="#111314"/>
<path d="M137.959 78.967C137.617 78.5645 137.256 78.1045 137.085 77.587C137.028 77.4337 137.009 77.2612 137.009 77.1078C137.047 76.8587 137.104 76.8395 137.218 77.0312C137.408 77.1078 137.579 77.472 137.693 77.6445C137.959 78.047 138.206 78.4878 138.339 78.9287C138.415 79.1778 138.51 79.2162 138.244 79.1012C137.997 78.9862 137.769 78.7178 137.598 78.5262C137.351 78.2387 136.952 78.6603 137.199 78.9287C137.503 79.2737 138.491 80.2895 138.89 79.5037C139.251 78.7945 138.358 77.5487 137.959 77.0312C137.617 76.5903 136.8 75.7087 136.477 76.6862C136.154 77.6637 136.971 78.6795 137.541 79.3503C137.788 79.657 138.187 79.2545 137.959 78.967Z" fill="#111314"/>
<path d="M136.705 77.1266C137.142 77.8358 137.579 78.5449 138.016 79.2541C138.206 79.5608 138.7 79.2733 138.51 78.9666C138.111 78.3149 137.769 77.6633 137.446 76.9733C137.294 77.0883 137.142 77.2033 136.99 77.3183C137.427 77.7399 137.75 78.2383 137.959 78.8133C138.092 79.1583 138.643 79.0049 138.51 78.6599C138.263 77.9891 137.902 77.4141 137.389 76.9158C137.142 76.6858 136.8 76.9733 136.933 77.2608C137.256 77.9508 137.598 78.6216 137.997 79.2541C138.168 79.1583 138.32 79.0624 138.491 78.9666C138.054 78.2574 137.617 77.5483 137.18 76.8391C137.009 76.5324 136.515 76.8199 136.705 77.1266Z" fill="#111314"/>
<path d="M151.924 80.1745C152.513 81.7461 152.456 83.3945 151.696 84.8895C151.525 85.2153 152.019 85.5028 152.19 85.177C153.007 83.5478 153.121 81.727 152.475 80.0211C152.342 79.6953 151.791 79.8295 151.924 80.1745Z" fill="#111314"/>
<path d="M122.36 66.1442C122.056 66.5659 119.301 70.4567 120.764 75.3442C122.208 80.1742 126.521 81.8992 127.015 82.0909C126.806 80.9025 126.464 77.97 127.87 74.7117C129.542 70.7825 132.62 68.9425 133.608 68.4059C134.235 69.3259 136.61 72.5842 141.132 73.8684C145.179 74.9992 148.523 73.8684 149.625 73.4467C149.834 73.1017 150.632 71.9134 151.639 71.9517C153.083 72.0092 154.508 74.6542 153.653 76.4559C153.121 77.5867 151.867 77.97 151.525 78.0659C151.734 78.89 152.171 80.1359 153.121 81.3817C154.717 83.5092 156.807 84.3334 158.004 84.8125C159.182 85.2725 168.815 88.9717 174.553 82.8767C177.65 79.5992 179.132 73.9834 177.099 70.1309C175.446 67.0259 172.539 67.0067 164.692 63.4992C155.287 59.2825 156.579 57.9984 151.012 56.2159C148.105 55.2767 137.408 51.8459 129.048 57.7109C125.229 60.375 123.291 63.9784 122.36 66.1442Z" fill="#1890ff"/>
<path d="M118.218 98.6893C118.142 97.5777 118.104 94.3768 120.175 91.4443C123.348 86.9593 128.82 86.8635 129.751 86.8443C131.404 86.806 133.589 87.0935 138.643 89.8918C141.93 91.7127 146.433 94.5685 151.24 99.0343C152.456 99.111 154.47 99.3793 156.541 100.587C158.745 101.852 162.83 105.187 161.956 108.771C161.462 110.803 159.429 112.777 157.491 112.681C154.375 112.528 152.361 107.123 151.715 107.448C151.202 107.698 152.76 110.918 152.076 111.358C151.449 111.761 148.979 109.825 147.839 107.199C146.908 105.091 147.06 103.098 147.25 101.967C142.69 99.801 135.166 97.0793 125.856 97.5585C123.006 97.731 120.46 98.1527 118.218 98.6893Z" fill="#F7FAFC" stroke="#111314" stroke-miterlimit="10"/>
<path opacity="0.34" d="M118.257 98.3057C118.941 94.5873 120.556 92.8815 121.487 92.134C127.32 87.3807 138.378 93.1115 141.665 94.7982C145.541 96.7915 148.448 99.2257 149.854 100.471C152.666 102.982 151.963 103.136 155.801 106.816C158.442 109.346 160.323 110.783 159.943 111.818C159.62 112.662 158.024 112.738 157.872 112.738C154.167 112.872 151.621 107.084 151.507 106.816C152.419 110.17 152.248 111.186 151.83 111.396C151.032 111.818 148.676 109.595 147.688 106.969C146.909 104.899 147.137 102.963 147.365 101.871C144.534 100.586 140.943 99.3023 136.706 98.459C129.087 96.964 122.589 97.539 118.257 98.3057Z" fill="#636E72"/>
<path d="M102.6 100.261C101.992 103.538 101.232 110.457 104.329 118.009C110.143 132.212 124.564 136.39 126.502 136.907C126.559 139.15 126.635 141.412 126.692 143.654C123.158 145.341 117.933 148.292 112.727 153.295C108.87 157.013 102.144 163.645 99.541 174.512C97.945 181.163 98.42 187.162 99.351 191.686C122.303 192.069 145.236 192.452 168.188 192.836C168.929 188.466 169.746 179.764 166.079 170.085C159.524 152.777 143.849 146.05 140.847 144.823C140.79 141.795 140.714 138.786 140.657 135.757C143.602 135.106 150.423 133.189 156.142 127.075C165.68 116.897 164.236 103.577 163.989 101.622C143.507 101.162 123.044 100.721 102.6 100.261Z" fill="#F7FAFC" stroke="#111314" stroke-miterlimit="10"/>
<path d="M106.267 121.555C108.148 122.59 110.162 123.375 112.309 123.682C113.867 123.893 115.349 123.759 116.907 123.586C118.883 123.356 120.84 123.184 122.797 122.839C124.792 122.494 126.692 121.9 128.668 121.459C129.2 121.344 129.694 121.286 130.226 121.401C131.271 121.612 131.879 122.264 132.677 122.877C133.779 123.72 135.204 123.663 136.344 122.973C136.952 122.59 137.503 122.11 138.111 121.746C139.004 121.21 139.992 120.941 141.037 120.865C142.158 120.788 143.298 120.865 144.4 121.075C145.711 121.325 146.87 121.861 148.124 122.264C150.594 123.069 151.354 120.405 153.273 119.504C155.572 118.411 158.745 118.526 161.158 119.044C161.519 119.12 161.671 118.565 161.31 118.488C159.22 118.028 157.168 118.047 155.059 118.411C154.166 118.565 153.311 118.775 152.532 119.255C151.639 119.81 151.126 120.654 150.366 121.344C149.264 122.34 147.991 121.574 146.832 121.133C145.787 120.75 144.685 120.5 143.564 120.366C141.702 120.136 139.726 120.213 138.035 121.133C136.648 121.9 135.451 123.433 133.703 122.781C132.943 122.494 132.468 121.785 131.784 121.382C131.233 121.037 130.568 120.826 129.922 120.769C128.687 120.673 127.414 121.21 126.217 121.516C123.956 122.091 121.638 122.475 119.301 122.724C117.477 122.915 115.596 123.26 113.753 123.203C111.207 123.126 108.775 122.264 106.571 121.037C106.229 120.865 105.944 121.363 106.267 121.555Z" fill="#111314"/>
<path d="M126.787 141.354C127.091 142.082 127.395 142.849 127.908 143.462C128.231 143.865 128.725 144.172 128.934 144.689C129.143 145.226 129.143 145.935 129.219 146.51C129.466 148.484 129.732 150.458 130.549 152.298C130.701 152.643 131.195 152.337 131.043 152.011C130.15 150.037 129.979 147.89 129.694 145.762C129.599 145.072 129.561 144.363 129.067 143.827C128.307 142.983 127.794 142.293 127.338 141.201C127.205 140.856 126.654 141.009 126.787 141.354Z" fill="#111314"/>
<path d="M139.213 143.022C138.377 142.37 137.731 143.578 137.427 144.229C137.123 144.843 136.895 145.475 136.743 146.127C136.572 146.874 136.61 147.737 136.268 148.427C135.945 149.136 135.413 149.73 135.109 150.458C134.824 151.11 134.615 151.8 134.425 152.49C133.988 154.215 133.741 155.998 133.437 157.742C133.38 158.106 133.931 158.259 133.988 157.895C134.444 155.269 134.672 152.337 135.983 149.979C136.287 149.443 136.686 148.983 136.895 148.408C137.047 148.005 137.066 147.583 137.123 147.181C137.18 146.759 138.244 142.983 138.814 143.424C139.08 143.654 139.498 143.252 139.213 143.022Z" fill="#111314"/>
<path d="M133.114 165.6C132.943 165.293 132.772 164.929 132.848 164.584C132.962 164.048 133.551 163.971 133.741 164.488C133.969 165.102 133.608 165.811 133.19 166.213C133.304 166.194 133.418 166.175 133.532 166.175C133.304 166.003 133.076 165.83 132.867 165.677C132.563 165.447 132.297 165.964 132.582 166.175C132.81 166.348 133.038 166.52 133.247 166.673C133.342 166.75 133.513 166.712 133.589 166.635C134.273 165.964 134.9 164.163 133.703 163.626C133.228 163.415 132.696 163.664 132.43 164.105C132.088 164.68 132.316 165.37 132.62 165.907C132.791 166.213 133.285 165.926 133.114 165.6Z" fill="#111314"/>
<path d="M131.613 172.193C131.48 171.925 131.271 171.561 131.328 171.235C131.366 171.043 131.613 170.775 131.803 170.947C131.993 171.101 132.012 171.561 131.955 171.771C131.898 171.963 131.575 172.289 131.404 172.04C131.195 171.752 130.701 172.04 130.91 172.327C131.214 172.768 131.841 172.806 132.24 172.423C132.677 172.001 132.639 171.158 132.316 170.679C131.993 170.2 131.366 170.276 131.024 170.679C130.53 171.216 130.834 171.963 131.119 172.519C131.29 172.806 131.784 172.519 131.613 172.193Z" fill="#111314"/>
<path d="M134.368 174.474C134.121 174.282 134.368 173.65 134.71 173.842C134.862 173.918 134.957 174.148 134.919 174.321C134.862 174.57 134.539 174.532 134.406 174.397C134.14 174.129 133.741 174.551 134.007 174.8C134.406 175.183 135.147 175.183 135.413 174.647C135.622 174.206 135.432 173.65 135.052 173.382C134.634 173.094 134.102 173.267 133.855 173.707C133.608 174.148 133.684 174.685 134.102 174.972C134.368 175.183 134.653 174.685 134.368 174.474Z" fill="#111314"/>
<path d="M115.691 192.012C117.268 190.727 118.845 189.443 120.422 188.159C121.182 187.546 121.904 186.894 122.721 186.357C123.538 185.821 124.431 185.572 125.343 185.227C128.193 184.115 130.701 179.342 133.969 182.332C135.033 183.291 135.907 184.134 137.294 184.594C138.871 185.112 140.429 185.418 141.93 186.166C144.818 187.603 147.174 189.922 148.751 192.74C148.922 193.066 149.416 192.778 149.245 192.452C148.029 190.248 146.357 188.37 144.305 186.913C143.317 186.204 142.234 185.61 141.113 185.15C139.821 184.613 138.472 184.402 137.161 183.923C134.805 183.061 133.589 180.032 130.72 180.914C129.561 181.278 128.63 182.064 127.737 182.869C127.205 183.348 126.673 183.827 126.065 184.211C125.286 184.709 124.393 184.882 123.557 185.246C122.227 185.821 121.125 186.837 120.004 187.737C118.427 189.022 116.85 190.306 115.273 191.59C115.007 191.839 115.406 192.242 115.691 192.012Z" fill="#111314"/>
<path d="M140.315 140.07C140.106 141.622 139.878 143.156 139.669 144.708C139.479 146.107 139.46 147.756 138.833 149.059C138.966 149.021 139.099 148.982 139.232 148.963C138.7 148.599 139.061 146.797 139.061 146.261C139.08 145.321 139.099 144.401 139.118 143.462C139.118 143.098 138.548 143.098 138.548 143.462C138.51 144.823 138.491 146.184 138.453 147.564C138.434 148.254 138.301 149.021 138.928 149.461C139.042 149.538 139.251 149.5 139.327 149.366C139.935 148.101 139.992 146.625 140.182 145.245C140.41 143.577 140.657 141.91 140.885 140.242C140.904 139.859 140.353 139.706 140.315 140.07Z" fill="#111314"/>
<path d="M126.521 137.635C126.217 139.265 126.445 140.836 127.167 142.312C127.338 142.638 127.813 142.35 127.661 142.025C127.015 140.683 126.806 139.245 127.072 137.789C127.129 137.425 126.578 137.271 126.521 137.635Z" fill="#111314"/>
<path d="M116.071 129.509C119.529 132.058 123.804 133.035 127.414 135.278C127.718 135.47 128.022 134.971 127.699 134.78C124.07 132.537 119.795 131.56 116.356 129.01C116.052 128.78 115.767 129.279 116.071 129.509Z" fill="#111314"/>
<path d="M127.148 132.48C128.858 133.534 130.055 135.144 130.568 137.118C130.663 137.482 131.214 137.329 131.119 136.965C130.587 134.857 129.295 133.112 127.452 131.982C127.129 131.79 126.844 132.288 127.148 132.48Z" fill="#111314"/>
<path d="M137.009 139.725C137.921 137.195 139.118 134.646 141.341 133.036C141.645 132.825 141.36 132.326 141.056 132.537C138.7 134.262 137.427 136.869 136.458 139.571C136.344 139.936 136.895 140.07 137.009 139.725Z" fill="#111314"/>
<path d="M119.871 190.67C121.809 188.523 124.298 187.047 127.091 186.357C127.452 186.28 127.3 185.725 126.939 185.801C124.051 186.491 121.467 188.044 119.472 190.248C119.225 190.555 119.624 190.957 119.871 190.67Z" fill="#111314"/>
<path d="M124.241 188.868C125.609 188.255 126.977 187.642 128.345 187.028C128.687 186.875 128.383 186.377 128.06 186.53C126.692 187.143 125.324 187.757 123.956 188.37C123.633 188.523 123.918 189.022 124.241 188.868Z" fill="#111314"/>
<path d="M135.584 181.719C137.256 183.271 139.954 182.734 141.493 184.421C141.74 184.69 142.139 184.287 141.892 184.019C140.315 182.294 137.655 182.849 135.983 181.316C135.717 181.048 135.318 181.469 135.584 181.719Z" fill="#111314"/>
<path d="M99.3698 193.717C117.325 193.717 135.28 193.717 153.254 193.717C158.308 193.717 163.381 193.717 168.435 193.717C170.639 193.717 170.639 190.267 168.435 190.267C150.48 190.267 132.525 190.267 114.551 190.267C109.497 190.267 104.424 190.267 99.3698 190.267C97.1658 190.267 97.1658 193.717 99.3698 193.717Z" fill="#111314"/>
<path d="M102.068 101.449C118.256 101.449 134.444 101.449 150.632 101.449C155.192 101.449 159.733 101.449 164.293 101.449C166.497 101.449 166.497 97.999 164.293 97.999C148.105 97.999 131.917 97.999 115.729 97.999C111.169 97.999 106.628 97.999 102.068 97.999C99.8638 97.999 99.8638 101.449 102.068 101.449Z" fill="#111314"/>
<path d="M97.4318 97.999C96.1018 97.999 94.7718 97.999 93.4418 97.999C91.2378 97.999 91.2378 101.449 93.4418 101.449C94.7718 101.449 96.1018 101.449 97.4318 101.449C99.6359 101.449 99.6359 97.999 97.4318 97.999Z" fill="#111314"/>
<path d="M85.9749 101.066C86.4879 101.066 87.0009 101.066 87.5139 101.066C88.4069 101.066 89.2619 100.28 89.2239 99.3407C89.1859 98.4016 88.4639 97.6157 87.5139 97.6157C87.0009 97.6157 86.4879 97.6157 85.9749 97.6157C85.0819 97.6157 84.2269 98.4016 84.2649 99.3407C84.3029 100.261 85.0059 101.066 85.9749 101.066Z" fill="#111314"/>
<path d="M172.406 193.469C175.104 193.469 177.821 193.469 180.519 193.469C182.723 193.469 182.723 190.019 180.519 190.019C177.821 190.019 175.104 190.019 172.406 190.019C170.202 190.019 170.202 193.469 172.406 193.469Z" fill="#111314"/>
<path d="M186.333 193.852C186.808 193.852 187.283 193.852 187.758 193.852C188.651 193.852 189.506 193.066 189.468 192.127C189.43 191.188 188.708 190.402 187.758 190.402C187.283 190.402 186.808 190.402 186.333 190.402C185.44 190.402 184.585 191.188 184.623 192.127C184.661 193.066 185.364 193.852 186.333 193.852Z" fill="#111314"/>
<path d="M126.502 137.042C126.369 138.364 126.255 139.706 126.521 141.009C126.806 142.389 127.661 143.367 128.288 144.594C129.01 145.974 129.219 147.641 129.561 149.136C129.922 150.727 130.283 152.318 130.644 153.909C130.815 154.637 131.898 154.33 131.746 153.602C131.404 152.069 131.043 150.535 130.701 149.002C130.378 147.584 130.15 146.089 129.618 144.747C129.143 143.539 128.174 142.562 127.775 141.316C127.338 139.936 127.509 138.441 127.642 137.042C127.718 136.314 126.578 136.314 126.502 137.042Z" fill="#111314"/>
<path d="M123.918 136.467C124.963 136.965 126.027 137.118 127.167 136.927C127.889 136.812 127.585 135.7 126.863 135.815C126.046 135.949 125.229 135.834 124.488 135.47C123.823 135.144 123.253 136.141 123.918 136.467Z" fill="#111314"/>
<path d="M137.997 143.079C137.085 143.73 136.629 144.67 136.42 145.743C136.268 146.471 136.23 147.219 136.021 147.947C135.812 148.675 135.47 149.346 135.128 150.036C133.855 152.624 132.582 155.365 132.943 158.316C133.038 159.045 134.178 159.045 134.083 158.316C133.741 155.537 134.919 153.026 136.116 150.611C136.629 149.576 137.104 148.56 137.294 147.43C137.503 146.26 137.522 144.823 138.567 144.075C139.175 143.635 138.605 142.638 137.997 143.079Z" fill="#111314"/>
<path d="M126.901 168.762C127.642 168.762 127.642 167.612 126.901 167.612C126.179 167.612 126.179 168.762 126.901 168.762Z" fill="#111314"/>
<path d="M124.849 178.25C125.59 178.25 125.59 177.1 124.849 177.1C124.108 177.1 124.108 178.25 124.849 178.25Z" fill="#111314"/>
<path d="M130.72 156.266C130.777 156.649 130.834 157.052 130.891 157.435C130.929 157.742 131.328 157.914 131.594 157.838C131.917 157.742 132.031 157.435 131.993 157.128C131.936 156.745 131.879 156.343 131.822 155.959C131.784 155.653 131.385 155.48 131.119 155.557C130.796 155.653 130.682 155.959 130.72 156.266Z" fill="#111314"/>
<path d="M133.684 161.172C133.684 161.21 133.684 161.268 133.684 161.306C133.684 161.613 133.95 161.9 134.254 161.881C134.558 161.862 134.824 161.632 134.824 161.306C134.824 161.268 134.824 161.21 134.824 161.172C134.824 160.865 134.558 160.578 134.254 160.597C133.95 160.616 133.684 160.846 133.684 161.172Z" fill="#111314"/>
<path d="M152.836 156.572C151.107 157.32 152.57 159.16 153.368 159.965C155.002 161.613 156.465 163.434 157.738 165.37C160.227 169.146 161.956 173.382 162.887 177.809C162.963 178.173 163.514 178.02 163.438 177.656C162.64 173.899 161.272 170.277 159.372 166.942C158.46 165.332 157.415 163.798 156.256 162.361C155.667 161.632 155.059 160.923 154.413 160.233C153.843 159.639 151.563 157.742 153.121 157.071C153.463 156.917 153.159 156.419 152.836 156.572Z" fill="#111314"/>
<path d="M154.945 158.048C160.702 162.878 163.039 170.257 165.148 177.234C165.262 177.579 165.813 177.445 165.699 177.081C163.552 170.008 161.177 162.533 155.344 157.627C155.059 157.397 154.66 157.799 154.945 158.048Z" fill="#111314"/>
<path d="M163.134 179.726C163.495 180.243 163.932 180.857 164.616 180.914C165.148 180.952 165.718 180.646 165.794 180.071C165.851 179.707 165.3 179.553 165.243 179.917C165.186 180.282 164.806 180.416 164.483 180.301C164.103 180.167 163.837 179.764 163.628 179.438C163.419 179.132 162.925 179.419 163.134 179.726Z" fill="#111314"/>
<path d="M164.255 187.814C165.11 188.198 166.174 187.929 166.63 187.067C167.067 186.243 166.725 185.112 165.927 184.652C165.11 184.192 163.989 184.518 163.514 185.323C163.039 186.166 163.381 187.239 164.141 187.757C164.445 187.968 164.73 187.469 164.426 187.258C163.913 186.913 163.685 186.166 164.008 185.61C164.312 185.073 165.091 184.843 165.642 185.15C166.193 185.438 166.421 186.223 166.136 186.779C165.851 187.354 165.091 187.565 164.54 187.316C164.217 187.163 163.913 187.661 164.255 187.814Z" fill="#111314"/>
<path d="M106.058 104.382C106.248 113.256 109.915 121.862 116.185 128.072C116.451 128.34 116.85 127.918 116.584 127.669C110.409 121.555 106.799 113.102 106.628 104.382C106.609 104.017 106.039 104.017 106.058 104.382Z" fill="#111314"/>
<path d="M106.666 104.132C106.172 103.634 105.469 103.653 104.937 104.094C104.234 104.688 104.31 105.761 104.386 106.605C104.576 109.115 105.07 111.588 105.811 113.984C107.293 118.737 109.782 123.145 113.069 126.845C113.316 127.113 113.715 126.71 113.468 126.442C110.789 123.433 108.661 119.983 107.198 116.226C106.495 114.463 105.963 112.623 105.564 110.764C105.355 109.748 105.184 108.732 105.07 107.716C105.013 107.237 104.956 106.777 104.937 106.298C104.918 106.087 104.899 105.876 104.918 105.685C104.937 105.225 105.431 103.691 106.267 104.554C106.533 104.803 106.932 104.381 106.666 104.132Z" fill="#111314"/>
<path opacity="0.25" d="M164.388 101.756C164.407 102.369 148.029 103.366 115.273 104.784C114.703 107.391 114.323 110.956 115.273 114.904C118.313 127.65 132.031 132.557 133.399 133.017C133.57 137.923 133.76 142.849 133.931 147.756C132.468 148.312 130.549 149.155 128.44 150.439C127.091 151.263 123.88 153.372 120.897 156.803C119.206 158.758 113.772 165.044 113.335 174.57C113.069 180.224 114.684 184.786 115.976 187.527C131.404 188.408 146.851 189.309 162.279 190.191C141.265 190.363 120.27 190.555 99.2559 190.728C98.5909 186.453 97.9638 178.269 101.365 169.069C101.992 167.402 107.198 153.947 121.087 146.338C123.291 145.13 125.21 144.344 126.54 143.846C126.483 141.469 126.426 139.112 126.369 136.735C124.45 136.237 121.6 135.317 118.446 133.534C116.603 132.499 104.367 125.331 102.068 111.339C101.707 109.116 101.403 105.608 102.239 101.219C143.659 100.893 164.369 101.066 164.388 101.756Z" fill="#636E72"/>
<path opacity="0.3" d="M136.762 101.277C126.901 102.676 117.04 104.075 107.179 105.455C107.445 108.771 108.471 115.614 113.126 122.552C118.883 131.119 126.692 134.646 129.713 135.834C129.884 139.476 130.074 143.118 130.245 146.759C123.804 148.024 119.567 150.669 117.249 152.394C115.71 153.544 101.802 163.818 103.36 178.595C103.626 181.144 104.538 185.514 108.034 190.344C105.032 190.383 102.049 190.421 99.0468 190.44C98.4388 185.744 97.8878 176.065 102.866 166.079C106.666 158.489 112.1 153.832 115.254 151.187C119.491 147.641 123.538 145.341 126.502 143.903C126.597 141.546 126.711 139.189 126.806 136.831C123.025 136.026 115.482 133.822 109.668 127.037C109.25 126.558 107.806 124.833 106.362 122.245C102.144 114.694 101.859 106.797 102.258 101.641C113.791 101.507 125.286 101.392 136.762 101.277Z" fill="#636E72"/>
<path d="M126.065 93.0541C120.118 97.4241 115.539 102.81 115.976 103.347C116.185 103.615 117.344 103.27 121.638 100.491C120.897 100.932 119.149 102.062 118.237 104.267C117.971 104.918 117.097 106.739 117.895 107.927C118.75 109.173 121.011 109.058 122.474 108.56C125.305 107.602 126.654 104.631 126.806 104.746C127.034 104.899 123.88 109.442 124.336 109.806C124.811 110.208 129.751 105.972 133.532 100.031C134.691 98.21 135.489 96.6191 136.021 95.45C139.384 95.5266 143.545 95.8141 148.257 96.5999C156.769 97.9991 160.018 99.8391 165.813 98.8808C169.366 98.3058 175.123 96.4658 175.332 93.7441C175.598 90.3708 167.276 87.2658 165.471 86.595C151.753 81.4775 138.89 86.2116 136.8 87.0166C131.594 89.0291 128.003 91.6358 126.065 93.0541Z" fill="#F7FAFC" stroke="#111314" stroke-miterlimit="10"/>
<path d="M117.42 107.621C117.515 107.812 117.572 107.851 117.743 107.966C117.838 108.042 118.009 108.004 118.085 107.927C119.966 105.666 121.6 103.04 124.279 101.641C124.602 101.468 124.317 100.97 123.994 101.142C121.258 102.561 119.605 105.206 117.686 107.525C117.8 107.506 117.914 107.486 118.028 107.486C117.99 107.429 117.952 107.391 117.914 107.333C117.743 107.007 117.249 107.295 117.42 107.621Z" fill="#111314"/>
<path d="M119.206 109.097C120.365 109.365 121.429 107.774 122.113 107.027C123.234 105.8 124.298 104.573 125.761 103.73C126.084 103.538 125.799 103.059 125.476 103.232C124.374 103.864 123.481 104.707 122.626 105.627C122.189 106.107 121.771 106.586 121.315 107.065C120.897 107.525 120.023 108.694 119.358 108.541C118.997 108.464 118.845 109.02 119.206 109.097Z" fill="#111314"/>
<path opacity="0.33" d="M117.496 105.493C122.056 102.254 123.158 101.506 123.177 101.545C123.215 101.583 121.391 102.695 119.814 104.822C119.016 105.915 118.503 106.95 118.18 107.716C118.237 107.831 118.408 108.138 118.75 108.33C119.187 108.579 119.586 108.521 119.719 108.502C119.833 108.445 120.004 108.349 120.194 108.215C120.859 107.774 121.258 107.257 121.41 107.084C121.486 106.988 122.683 105.474 123.234 104.88C123.728 104.343 124.564 103.653 125.932 103.155C124.811 104.88 123.671 106.624 122.55 108.349C123.709 107.774 124.469 107.122 124.944 106.624C125.419 106.145 125.571 105.857 126.426 104.784C127.224 103.787 127.813 103.155 128.041 102.886C130.036 100.586 133.019 95.1048 134.919 93.2648C138.985 89.2973 145.54 92.5365 158.479 92.6323C165.015 92.6898 170.43 91.8657 174.154 91.1182C174.477 91.3482 175.085 91.8657 175.313 92.709C175.313 92.709 175.598 93.7632 174.876 95.0857C174.078 96.5807 170.088 99.264 161.595 99.034C154.66 98.8423 152.551 96.9257 143.26 95.8715C140.144 95.5265 137.579 95.4307 135.945 95.3923C134.406 99.0723 132.639 101.775 131.252 103.596C128.193 107.64 124.735 110.457 124.222 110.074C124.184 110.055 124.089 109.959 124.032 109.786C123.899 109.403 124.184 108.962 124.336 108.732C124.621 108.272 124.982 107.659 125.438 106.777C125.134 107.161 124.64 107.678 123.918 108.119C121.961 109.326 118.769 109.71 117.686 108.138C117.534 107.947 117.04 107.142 117.496 105.493Z" fill="#636E72"/>
<path opacity="0.51" d="M138.605 95.3732C138.624 95.2007 142.975 95.3157 147.782 95.5649C160.265 96.2166 163.533 97.1366 168.359 95.3732C171.399 94.2616 173.565 92.6324 174.743 91.6357C175.104 92.3449 175.484 93.3991 175.199 94.4532C174.496 97.0216 170.411 97.8649 167.77 98.4016C166.307 98.7083 163.818 99.0724 159.885 98.7274C156.389 98.4399 155.002 97.8649 151.297 97.0791C143.887 95.5266 138.586 95.5457 138.605 95.3732Z" fill="#636E72"/>
</svg>
