<svg width="400" height="401" viewBox="0 0 400 401" fill="none" xmlns="http://www.w3.org/2000/svg">
<path d="M389.56 68.4016C388.62 68.0816 387.46 69.5416 386.1 72.7216C385.504 74.0893 384.837 75.4245 384.1 76.7216C384.84 73.8616 385.66 69.8616 385.94 68.4016C386.22 66.9416 386.84 62.9816 385.36 62.5816C384.4 62.3216 383.36 63.8216 382.1 67.0816C380.84 70.3416 380 72.6816 379.02 74.6816C379.42 72.0616 380.06 67.9616 380.66 64.3816C381.08 61.8016 381.1 58.9416 379.84 58.6416C378.58 58.3416 377.42 61.0216 376.72 63.3416C376.56 63.8816 374.72 69.3416 373.58 73.3416C373.58 71.6416 373.58 69.1216 373.58 66.0616C373.58 63.4216 373.16 60.6016 371.86 60.5016C370.56 60.4016 369.74 64.1216 369.54 65.6416C369.54 66.2416 367.88 76.4016 367.88 76.4016C367.688 77.6468 367.303 78.8546 366.74 79.9816C366.3 80.7816 366.1 80.6816 365.8 80.6016C362.58 79.8616 356.86 73.1016 354.7 75.4616C354.3 75.9216 353.04 77.2816 359.88 85.4616C360.604 86.3314 361.052 87.3977 361.166 88.5238C361.28 89.6499 361.055 90.7843 360.52 91.7816L357.64 97.1216C356.84 96.4016 356.04 95.6816 355.26 94.9216C355.224 94.8795 355.18 94.8456 355.13 94.8224C355.08 94.7992 355.025 94.7872 354.97 94.7872C354.915 94.7872 354.86 94.7992 354.81 94.8224C354.76 94.8456 354.716 94.8795 354.68 94.9216C353.74 96.3816 352.84 97.7816 351.98 99.1616L348.68 61.0216C348.444 57.4709 346.811 54.1583 344.138 51.8083C341.466 49.4584 337.972 48.2623 334.42 48.4816L289.12 52.4816C289.496 49.9441 289.442 47.3612 288.96 44.8416C290.667 44.7411 292.337 44.2993 293.871 43.5425C295.405 42.7857 296.772 41.7291 297.891 40.4352C299.009 39.1413 299.857 37.6363 300.384 36.0091C300.912 34.382 301.107 32.6657 300.96 30.9616C299.76 16.9616 279.88 14.7616 275.92 28.5216C272.511 27.0369 268.786 26.4226 265.081 26.7339C261.376 27.0452 257.806 28.2724 254.693 30.3051C251.579 32.3378 249.019 35.1124 247.244 38.3793C245.468 41.6463 244.532 45.3033 244.52 49.0216C244.52 49.2416 244.52 53.7216 244.7 56.3216L218.1 58.6816C217.06 45.6016 205.3 35.6616 191 35.6616C183.562 35.5876 176.388 38.4142 171 43.5416C168.467 45.8923 166.483 48.7722 165.19 51.9765C163.896 55.1808 163.324 58.6308 163.515 62.0812C163.706 65.5315 164.655 68.8974 166.294 71.9394C167.934 74.9814 170.223 77.6248 173 79.6816C176.333 82.2276 180.174 84.0274 184.263 84.9591C188.352 85.8908 192.593 85.9326 196.7 85.0816L203.26 160.842C203.247 160.897 203.247 160.955 203.259 161.011C203.272 161.067 203.297 161.119 203.332 161.164C203.368 161.209 203.413 161.245 203.465 161.27C203.516 161.295 203.573 161.308 203.63 161.308C203.687 161.308 203.744 161.295 203.795 161.27C203.847 161.245 203.892 161.209 203.928 161.164C203.963 161.119 203.988 161.067 204.001 161.011C204.013 160.955 204.013 160.897 204 160.842L197.36 84.8616C200.855 84.098 204.173 82.6797 207.14 80.6816L218.38 84.8816C218.447 84.9137 218.523 84.9242 218.596 84.9116C218.669 84.899 218.737 84.864 218.79 84.8113C218.842 84.7587 218.877 84.691 218.89 84.6177C218.903 84.5443 218.892 84.4688 218.86 84.4016L214.32 73.3616C217.045 69.2544 218.39 64.3854 218.16 59.4616L244.74 57.1616C245.36 66.9016 247.4 72.6016 250.74 74.1416C253.7 75.4816 257.06 73.4016 259.54 71.3216C260.226 73.0271 260.684 74.816 260.9 76.6416C261.74 84.1616 257.44 88.3416 252.56 93.0016C246.26 99.0016 236.74 108.102 232.56 124.602C232.536 124.7 232.552 124.803 232.605 124.89C232.657 124.976 232.742 125.038 232.84 125.062C232.938 125.085 233.042 125.069 233.128 125.017C233.214 124.964 233.276 124.88 233.3 124.782C237.42 108.482 246.84 99.5016 253.08 93.5416L254.58 92.1216C254.92 93.0016 255.3 93.9416 255.72 94.9016C256.33 96.3393 257.303 97.5944 258.542 98.5444C259.782 99.4945 261.247 100.107 262.794 100.323C264.341 100.538 265.917 100.349 267.369 99.7742C268.822 99.1992 270.1 98.2577 271.08 97.0416C277.024 89.3608 283.859 82.4122 291.44 76.3416C307.66 76.4416 311.72 69.8016 337.74 125.082L333.28 135.082C333.262 135.167 333.274 135.255 333.314 135.333C333.354 135.41 333.419 135.472 333.499 135.507C333.578 135.542 333.668 135.549 333.751 135.526C333.835 135.503 333.909 135.452 333.96 135.382C339.708 121.563 346.76 108.323 355.02 95.8416C361.741 102.45 369.982 107.306 379.02 109.982C373.48 119.202 370.34 128.242 364 141.402C356.44 157.062 347.44 160.542 341.24 160.722C331.64 161.062 323.48 153.602 318.72 145.182C318.22 144.282 313.54 136.402 305.04 122.022C307.04 117.762 309.04 114.182 310.34 112.022C310.38 111.937 310.387 111.842 310.361 111.752C310.335 111.663 310.277 111.587 310.198 111.537C310.119 111.488 310.025 111.469 309.933 111.485C309.841 111.5 309.758 111.549 309.7 111.622C305.9 117.622 297.7 135.242 292.78 147.342C281.96 155.102 262.34 158.922 254.66 152.382C244.06 118.382 248.34 110.662 252.48 103.162L252.88 102.442C252.911 102.356 252.911 102.262 252.879 102.177C252.847 102.091 252.785 102.021 252.705 101.977C252.625 101.933 252.532 101.92 252.443 101.939C252.354 101.958 252.275 102.009 252.22 102.082L251.82 102.802C247.6 110.422 243.24 118.322 253.94 152.622C251.72 160.942 251.22 166.362 250.12 171.382L230.58 173.082C230.497 173.101 230.422 173.148 230.369 173.216C230.316 173.283 230.287 173.366 230.287 173.452C230.287 173.537 230.316 173.621 230.369 173.688C230.422 173.755 230.497 173.802 230.58 173.822L344.34 163.982C346.91 163.748 349.352 162.754 351.354 161.126C353.356 159.498 354.827 157.31 355.58 154.842C365.88 144.842 370.36 125.562 379.88 109.902C379.91 109.852 379.928 109.796 379.933 109.738C379.937 109.68 379.929 109.622 379.908 109.568C379.886 109.513 379.853 109.465 379.81 109.426C379.767 109.387 379.716 109.358 379.66 109.342C378.86 109.128 378.06 108.888 377.26 108.622C386.12 88.8816 384.62 91.1016 388.48 78.8016C389.2 76.6816 391.6 69.0816 389.56 68.4016ZM213.56 73.1016C213.56 73.4016 213.28 72.7016 217.84 83.8016C207.84 80.0216 207.34 79.8016 207.08 79.8016C204.125 81.8521 200.806 83.3185 197.3 84.1216L196.44 74.2816C196.081 70.939 197.059 67.59 199.161 64.9666C201.264 62.3432 204.319 60.6588 207.66 60.2816L217.4 59.4416C217.593 64.286 216.249 69.0674 213.56 73.1016ZM270.56 96.5016C269.657 97.6165 268.481 98.4784 267.147 99.0034C265.812 99.5284 264.364 99.6984 262.943 99.497C261.523 99.2955 260.179 98.7294 259.043 97.854C257.907 96.9785 257.017 95.8235 256.46 94.5016C256 93.4216 255.6 92.5016 255.22 91.4216C255.78 90.8816 256.3 90.3616 256.76 89.8416C258.738 87.9483 260.208 85.5871 261.033 82.9759C261.858 80.3648 262.012 77.5879 261.48 74.9016C262.604 72.4902 263.282 69.8949 263.48 67.2416C263.481 67.1648 263.458 67.0896 263.415 67.0259C263.372 66.9623 263.311 66.9131 263.239 66.885C263.168 66.8568 263.09 66.851 263.015 66.8682C262.94 66.8855 262.872 66.925 262.82 66.9816C249.6 81.8216 245.36 70.1216 245.34 50.2416C249.688 49.0636 254.158 48.3925 258.66 48.2416C259.24 50.8616 259.4 53.3616 260.66 53.4816C261.24 53.4816 261.82 53.0416 262.66 51.9016C264.88 48.6816 269.3 53.7816 263.8 57.7816C263.734 57.8521 263.697 57.945 263.697 58.0416C263.697 58.1382 263.734 58.2312 263.8 58.3016C270.84 69.3616 276.92 75.8216 290.5 76.3016C283.119 82.2681 276.43 89.0438 270.56 96.5016ZM338.2 124.102C310.92 66.2216 307.46 76.4016 289.02 75.4416C283.744 75.2862 278.647 73.4895 274.44 70.3016C278.161 69.0005 281.471 66.7362 284.032 63.7393C286.594 60.7425 288.315 57.1202 289.02 53.2416L334.5 49.2416C336.17 49.1333 337.845 49.356 339.429 49.8972C341.013 50.4384 342.474 51.2872 343.728 52.3949C344.983 53.5026 346.006 54.8474 346.739 56.3519C347.472 57.8564 347.901 59.491 348 61.1616L351.4 100.302C346.542 107.972 342.135 115.919 338.2 124.102ZM293.18 148.102C302.01 151.599 309.483 157.838 314.5 165.902L301.88 166.982C298.864 160.64 294.446 155.066 288.96 150.682C290.427 149.894 291.837 149.005 293.18 148.022V148.102ZM254.6 153.262C258.097 155.561 262.242 156.669 266.42 156.422C274.008 156.26 281.464 154.401 288.24 150.982C293.665 155.285 298.053 160.753 301.08 166.982L250.94 171.322C251.86 167.042 252.68 160.682 254.6 153.262ZM344.44 163.262L315.42 165.762C310.347 157.461 302.729 151.021 293.7 147.402C296.8 139.902 301.06 130.362 304.76 122.802C313.92 138.322 317.82 144.802 318.12 145.442C326.54 160.382 341.82 167.022 354.58 155.942C353.72 157.969 352.32 159.72 350.531 161.004C348.743 162.288 346.635 163.055 344.44 163.222V163.262ZM382.82 67.4216C384.12 63.8816 385 63.4216 385.18 63.4216C385.36 63.4216 385.9 64.7816 385.18 68.3816C384.528 72.0826 383.66 75.7422 382.58 79.3416C382.4 79.5216 381.84 80.7216 380.58 82.3816C379.63 81.4163 378.599 80.5331 377.5 79.7416C379.495 75.7207 381.271 71.5946 382.82 67.3816V67.4216ZM377.44 63.6416C378.54 60.0016 379.44 59.4216 379.66 59.4816C379.88 59.5416 380.5 60.8216 379.92 64.3616C379 69.8416 377.92 76.5416 377.92 77.2616C377.82 77.5216 377.82 77.4616 376.94 79.2616C375.753 78.4765 374.494 77.8068 373.18 77.2616L377.44 63.6416ZM389.04 74.3016C387.94 78.7416 387.04 81.0016 384.66 89.1816C383.7 92.5816 377.64 106.162 376.66 108.422C369.916 106.022 363.681 102.379 358.28 97.6816L361.24 92.2016C361.846 91.0721 362.102 89.7872 361.973 88.5117C361.845 87.2361 361.339 86.0279 360.52 85.0416C355.78 79.3616 354.72 76.6616 355.32 76.0216C356.8 74.4216 362.58 80.7016 365.74 81.4016C366.22 81.4016 366.66 81.5216 367.22 80.7416C367.954 79.4475 368.449 78.0315 368.68 76.5616C368.68 76.5616 370.26 66.4016 370.34 65.7816C370.86 62.0416 371.66 61.3016 371.88 61.3016C372.1 61.3016 372.92 62.4816 372.9 66.0816C372.9 71.5416 372.9 75.2416 372.9 75.7616C372.9 76.2816 372.62 76.6216 372.5 76.9816C371.96 76.7616 371.4 76.5616 370.8 76.3816C370.754 76.3672 370.706 76.3619 370.658 76.3662C370.61 76.3704 370.563 76.3841 370.52 76.4064C370.478 76.4286 370.44 76.4591 370.409 76.4961C370.378 76.533 370.354 76.5757 370.34 76.6216C370.326 76.6676 370.32 76.7159 370.325 76.7639C370.329 76.8119 370.342 76.8586 370.365 76.9013C370.387 76.944 370.418 76.982 370.454 77.0129C370.491 77.0438 370.534 77.0672 370.58 77.0816C376.58 79.0816 379.88 82.1216 383.58 86.8616C383.608 86.9069 383.645 86.9458 383.689 86.9759C383.733 87.0059 383.782 87.0264 383.835 87.0361C383.887 87.0457 383.941 87.0443 383.992 87.0318C384.044 87.0194 384.093 86.9963 384.135 86.9639C384.177 86.9316 384.212 86.8907 384.237 86.844C384.263 86.7973 384.278 86.7458 384.282 86.6928C384.287 86.6398 384.28 86.5865 384.262 86.5364C384.244 86.4862 384.217 86.4403 384.18 86.4016C383.18 85.1216 382.18 83.9416 381.2 82.8816C383.46 79.8381 385.359 76.5427 386.86 73.0616C388.34 69.6016 389.24 69.0616 389.42 69.0616C389.6 69.0616 390 70.6816 389.04 74.2616V74.3016Z" fill="#1890ff"/>
<path d="M186 106.122C185.791 103.576 184.581 101.218 182.634 99.5645C180.688 97.9109 178.166 97.097 175.62 97.3016L165.42 98.1616C165.337 98.1812 165.262 98.2284 165.209 98.2955C165.156 98.3627 165.127 98.4459 165.127 98.5316C165.127 98.6174 165.156 98.7006 165.209 98.7677C165.262 98.8349 165.337 98.8821 165.42 98.9016C165.62 98.9016 175.42 98.1016 175.58 98.0616C176.745 97.9602 177.919 98.0901 179.034 98.4437C180.149 98.7974 181.184 99.3679 182.077 100.122C182.971 100.877 183.707 101.801 184.243 102.84C184.779 103.88 185.104 105.016 185.2 106.182L188 139.462C188.02 139.545 188.067 139.62 188.134 139.673C188.201 139.726 188.284 139.755 188.37 139.755C188.456 139.755 188.539 139.726 188.606 139.673C188.673 139.62 188.72 139.545 188.74 139.462L186 106.122Z" fill="#1890ff"/>
<path d="M185.82 176.082C184.86 177.022 182.02 177.142 180.66 177.242C180.559 177.242 180.463 177.282 180.391 177.353C180.32 177.424 180.28 177.521 180.28 177.622C180.28 177.722 180.32 177.819 180.391 177.89C180.463 177.962 180.559 178.002 180.66 178.002C182.32 177.862 185.14 177.782 186.32 176.622C186.366 176.551 186.386 176.467 186.379 176.383C186.372 176.299 186.337 176.22 186.279 176.158C186.222 176.096 186.146 176.055 186.063 176.041C185.98 176.027 185.894 176.042 185.82 176.082Z" fill="#1890ff"/>
<path d="M142.4 100.102C128.02 101.302 83.28 105.042 83.08 105.082C81.8152 105.188 80.5837 105.542 79.4557 106.124C78.3278 106.706 77.3257 107.504 76.5066 108.474C75.6875 109.443 75.0675 110.565 74.682 111.774C74.2965 112.984 74.1531 114.257 74.26 115.522L79.42 176.842C79.639 179.394 80.8607 181.756 82.8176 183.409C84.7745 185.062 87.3069 185.872 89.86 185.662L110.3 183.922C110.349 183.919 110.397 183.907 110.441 183.885C110.486 183.863 110.525 183.833 110.557 183.795C110.588 183.758 110.612 183.714 110.627 183.667C110.641 183.62 110.646 183.571 110.64 183.522C110.64 183.322 110.44 183.122 110.24 183.182L89.8 184.902C87.4454 185.101 85.1077 184.358 83.3003 182.836C81.493 181.313 80.3635 179.136 80.16 176.782L75 115.462C74.9014 114.295 75.0339 113.121 75.3898 112.006C75.7457 110.891 76.3181 109.857 77.0743 108.963C77.8304 108.069 78.7554 107.334 79.7962 106.798C80.8371 106.262 81.9734 105.937 83.14 105.842L142.46 100.842C143 100.802 142.86 100.002 142.4 100.102Z" fill="#1890ff"/>
<path d="M309.4 278.482L302.32 195.562C302.176 193.867 301.7 192.218 300.919 190.708C300.137 189.197 299.066 187.856 297.766 186.76C296.465 185.664 294.962 184.835 293.341 184.321C291.72 183.806 290.014 183.616 288.32 183.762L223.4 189.262C223.317 189.281 223.242 189.328 223.189 189.396C223.136 189.463 223.107 189.546 223.107 189.632C223.107 189.717 223.136 189.801 223.189 189.868C223.242 189.935 223.317 189.982 223.4 190.002L288.38 184.522C289.974 184.384 291.58 184.563 293.106 185.047C294.631 185.53 296.046 186.31 297.27 187.341C298.494 188.371 299.503 189.633 300.239 191.054C300.975 192.475 301.424 194.027 301.56 195.622L308.62 278.542C308.898 281.749 307.895 284.936 305.83 287.406C303.765 289.875 300.806 291.427 297.6 291.722C297.38 291.722 180.96 301.542 175.92 301.982C175.837 302.001 175.762 302.048 175.709 302.116C175.656 302.183 175.627 302.266 175.627 302.352C175.627 302.437 175.656 302.521 175.709 302.588C175.762 302.655 175.837 302.702 175.92 302.722L297.54 292.482C299.239 292.343 300.893 291.871 302.409 291.092C303.925 290.313 305.272 289.242 306.374 287.942C307.476 286.641 308.31 285.136 308.829 283.513C309.348 281.89 309.542 280.18 309.4 278.482Z" fill="#1890ff"/>
<path d="M179.58 193.722C179.479 193.722 179.383 193.682 179.311 193.61C179.24 193.539 179.2 193.442 179.2 193.342C179.2 193.241 179.24 193.144 179.311 193.073C179.383 193.002 179.479 192.962 179.58 192.962L199.78 191.242C199.881 191.242 199.977 191.282 200.049 191.353C200.12 191.424 200.16 191.521 200.16 191.622C200.16 191.722 200.12 191.819 200.049 191.89C199.977 191.962 199.881 192.002 199.78 192.002L179.58 193.722Z" fill="#1890ff"/>
<path d="M240.16 139.382C247.98 130.822 251.82 130.062 257.8 125.982C258.48 125.522 258.38 123.982 253.54 125.562L251.54 126.162C253.7 124.042 257.64 120.982 259.88 118.822C260.48 118.242 260.16 116.822 255.62 119.102C254.62 119.602 251.22 121.322 249.62 122.262C251.019 120.494 252.514 118.804 254.1 117.202C259.24 111.982 258.7 109.962 251.82 114.022C245.989 117.927 240.621 122.483 235.82 127.602C232.34 129.802 233.66 120.482 233.3 118.222C232.8 115.122 232.14 111.702 229.66 120.002C228.98 122.262 226.2 129.322 220.98 142.002C226.672 142.025 232.258 143.542 237.18 146.402C238.26 143.522 239.18 141.242 239.88 139.282L240.16 139.382Z" fill="#FFE7EA"/>
<path d="M121.82 132.922C121.82 125.082 120.4 127.862 119.14 130.402C118.22 132.262 116.86 140.682 114.46 137.842C114.26 137.522 108.76 126.702 104.34 121.842C99.48 116.502 98.48 118.102 101.52 123.982C102.446 125.796 103.274 127.659 104 129.562C102.9 128.342 100.42 125.942 99.7 125.242C96.38 122.082 95.7 123.242 96.08 123.862C96.46 124.482 101.34 132.262 101.32 132.442L100 131.422C96.2 128.822 95.74 130.062 96.2 130.642C100.2 135.762 103.34 137.382 107.8 146.802C107.98 147.242 108.26 152.622 108.34 153.802C111.314 152.782 114.48 152.454 117.6 152.842C118.535 148.943 120.19 145.253 122.48 141.962C122 138.542 121.8 135.062 121.82 132.922Z" fill="#FFE7EA"/>
<path d="M163.02 106.202C166.26 118.662 166.66 123.382 165.68 125.682C164.7 127.982 160.6 125.682 156.6 122.682C157.04 124.682 157.5 126.562 157.98 128.082C158.103 128.753 158.437 129.367 158.933 129.834C159.43 130.302 160.063 130.599 160.74 130.682C156.644 133.297 151.802 134.491 146.96 134.082C144.648 133.94 142.456 133 140.76 131.422C143.12 130.142 145.04 130.622 150.6 123.302C152.6 120.762 154.6 118.562 156.16 116.462C152.16 111.922 155.46 108.922 157.62 111.942C158.78 113.562 160.44 113.102 159.44 108.242C160.697 107.68 161.896 106.997 163.02 106.202Z" fill="#FFE7EA"/>
<path d="M137.72 144.542C137.745 144.96 137.647 145.377 137.437 145.74C137.228 146.103 136.916 146.396 136.541 146.584C136.166 146.771 135.745 146.845 135.329 146.795C134.912 146.745 134.52 146.573 134.2 146.302C133.881 146.031 133.647 145.673 133.53 145.27C133.412 144.868 133.415 144.44 133.539 144.039C133.662 143.639 133.901 143.283 134.225 143.017C134.548 142.751 134.943 142.585 135.36 142.542C135.648 142.511 135.938 142.54 136.214 142.625C136.491 142.71 136.747 142.85 136.967 143.037C137.188 143.224 137.368 143.454 137.498 143.712C137.627 143.971 137.703 144.253 137.72 144.542Z" fill="#1890ff"/>
<path d="M122.54 162.222C122.565 162.64 122.467 163.057 122.257 163.42C122.048 163.783 121.736 164.076 121.361 164.264C120.986 164.451 120.565 164.525 120.149 164.475C119.732 164.425 119.34 164.254 119.02 163.983C118.7 163.712 118.467 163.353 118.35 162.95C118.232 162.548 118.235 162.12 118.359 161.719C118.482 161.319 118.721 160.963 119.045 160.697C119.368 160.431 119.763 160.266 120.18 160.222C120.467 160.194 120.757 160.225 121.032 160.311C121.307 160.397 121.562 160.538 121.782 160.724C122.002 160.91 122.182 161.139 122.312 161.396C122.442 161.653 122.52 161.934 122.54 162.222Z" fill="#1890ff"/>
<path d="M131.54 185.522C131.598 186.087 131.43 186.652 131.072 187.092C130.714 187.533 130.195 187.813 129.63 187.872C129.065 187.93 128.5 187.762 128.059 187.403C127.619 187.045 127.338 186.527 127.28 185.962C127.222 185.397 127.39 184.832 127.748 184.391C128.107 183.95 128.625 183.67 129.19 183.612C129.755 183.553 130.32 183.722 130.761 184.08C131.201 184.438 131.482 184.957 131.54 185.522Z" fill="#1890ff"/>
<path d="M111.8 158.202C111.858 158.767 111.69 159.332 111.332 159.772C110.974 160.213 110.455 160.493 109.89 160.552C109.325 160.61 108.76 160.442 108.319 160.083C107.879 159.725 107.598 159.207 107.54 158.642C107.482 158.077 107.65 157.512 108.008 157.071C108.367 156.63 108.885 156.35 109.45 156.292C110.015 156.233 110.58 156.402 111.021 156.76C111.461 157.118 111.742 157.637 111.8 158.202Z" fill="#1890ff"/>
<path d="M155.78 152.922C155.81 153.345 155.713 153.769 155.504 154.138C155.294 154.508 154.98 154.807 154.601 154.999C154.222 155.191 153.795 155.267 153.373 155.217C152.951 155.167 152.553 154.994 152.229 154.72C151.905 154.445 151.669 154.081 151.55 153.673C151.432 153.265 151.437 152.831 151.564 152.425C151.691 152.02 151.935 151.661 152.265 151.394C152.595 151.126 152.997 150.962 153.42 150.922C153.707 150.894 153.997 150.925 154.272 151.011C154.547 151.097 154.802 151.238 155.022 151.424C155.242 151.61 155.422 151.839 155.552 152.096C155.683 152.353 155.76 152.634 155.78 152.922Z" fill="#1890ff"/>
<path d="M143.42 170.222C143.445 170.64 143.347 171.057 143.137 171.42C142.928 171.783 142.616 172.076 142.241 172.264C141.866 172.451 141.445 172.525 141.029 172.475C140.612 172.425 140.22 172.254 139.9 171.983C139.58 171.712 139.347 171.353 139.23 170.95C139.112 170.548 139.115 170.12 139.239 169.719C139.362 169.319 139.601 168.963 139.925 168.697C140.248 168.431 140.643 168.265 141.06 168.222C141.347 168.191 141.638 168.22 141.914 168.305C142.191 168.39 142.447 168.53 142.667 168.717C142.888 168.904 143.068 169.134 143.198 169.392C143.327 169.651 143.403 169.933 143.42 170.222Z" fill="#1890ff"/>
<path d="M165.64 178.262C165.67 178.685 165.573 179.109 165.364 179.478C165.154 179.848 164.84 180.147 164.461 180.339C164.082 180.531 163.655 180.607 163.233 180.557C162.811 180.507 162.413 180.334 162.089 180.06C161.765 179.785 161.529 179.421 161.41 179.013C161.292 178.605 161.297 178.171 161.424 177.765C161.551 177.36 161.795 177.001 162.125 176.734C162.455 176.466 162.857 176.302 163.28 176.262C163.567 176.234 163.857 176.265 164.132 176.351C164.407 176.437 164.662 176.578 164.882 176.764C165.102 176.95 165.282 177.179 165.412 177.436C165.542 177.693 165.62 177.974 165.64 178.262Z" fill="#1890ff"/>
<path d="M174.84 141.442C174.889 141.867 174.811 142.298 174.615 142.68C174.419 143.061 174.114 143.375 173.738 143.582C173.363 143.789 172.934 143.88 172.507 143.843C172.08 143.806 171.674 143.642 171.34 143.373C171.006 143.105 170.76 142.743 170.632 142.333C170.505 141.924 170.502 141.486 170.624 141.075C170.746 140.664 170.988 140.299 171.319 140.026C171.649 139.753 172.053 139.584 172.48 139.542C173.044 139.485 173.607 139.653 174.049 140.008C174.49 140.364 174.775 140.879 174.84 141.442Z" fill="#1890ff"/>
<path d="M194.72 177.362C194.75 177.785 194.653 178.209 194.444 178.578C194.234 178.948 193.92 179.247 193.541 179.439C193.162 179.631 192.735 179.707 192.313 179.657C191.891 179.607 191.493 179.434 191.169 179.16C190.845 178.885 190.609 178.521 190.491 178.113C190.372 177.705 190.377 177.271 190.504 176.865C190.631 176.46 190.875 176.101 191.205 175.834C191.535 175.566 191.937 175.402 192.36 175.362C192.647 175.334 192.937 175.365 193.212 175.451C193.487 175.537 193.742 175.678 193.962 175.864C194.182 176.05 194.362 176.279 194.492 176.536C194.623 176.793 194.7 177.074 194.72 177.362Z" fill="#1890ff"/>
<path d="M194.32 153.182C194.345 153.6 194.247 154.017 194.037 154.38C193.828 154.743 193.516 155.036 193.141 155.224C192.766 155.411 192.345 155.485 191.929 155.435C191.512 155.385 191.12 155.214 190.8 154.943C190.48 154.672 190.247 154.313 190.13 153.91C190.012 153.508 190.015 153.08 190.139 152.679C190.262 152.279 190.501 151.923 190.825 151.657C191.148 151.391 191.543 151.225 191.96 151.182C192.247 151.154 192.537 151.185 192.812 151.271C193.087 151.357 193.342 151.498 193.562 151.684C193.782 151.87 193.962 152.099 194.092 152.356C194.223 152.613 194.3 152.894 194.32 153.182Z" fill="#1890ff"/>
<path d="M218 181.862C218.033 182.15 218.007 182.441 217.923 182.719C217.839 182.996 217.699 183.254 217.511 183.475C217.324 183.696 217.093 183.877 216.833 184.005C216.573 184.133 216.29 184.207 216 184.222C215.435 184.28 214.87 184.112 214.429 183.753C213.989 183.395 213.708 182.877 213.65 182.312C213.592 181.747 213.76 181.182 214.118 180.741C214.477 180.3 214.995 180.02 215.56 179.962C215.846 179.917 216.139 179.931 216.419 180.003C216.7 180.076 216.963 180.205 217.191 180.383C217.42 180.561 217.61 180.784 217.749 181.039C217.888 181.293 217.973 181.573 218 181.862Z" fill="#1890ff"/>
<path d="M220.64 159.262C220.667 159.549 220.637 159.838 220.551 160.113C220.464 160.388 220.324 160.643 220.138 160.863C219.951 161.083 219.723 161.264 219.465 161.394C219.208 161.524 218.928 161.602 218.64 161.622C218.222 161.647 217.805 161.548 217.442 161.339C217.079 161.129 216.785 160.818 216.598 160.443C216.41 160.068 216.337 159.646 216.387 159.23C216.437 158.814 216.608 158.422 216.879 158.102C217.15 157.782 217.509 157.549 217.911 157.431C218.314 157.314 218.742 157.317 219.142 157.441C219.543 157.564 219.898 157.802 220.165 158.126C220.431 158.45 220.596 158.845 220.64 159.262Z" fill="#1890ff"/>
<path d="M237.28 149.782C237.338 150.347 237.17 150.912 236.812 151.352C236.454 151.793 235.935 152.073 235.37 152.132C234.805 152.19 234.24 152.022 233.799 151.663C233.359 151.305 233.078 150.787 233.02 150.222C232.987 149.941 233.01 149.657 233.088 149.386C233.166 149.115 233.297 148.862 233.474 148.642C233.651 148.422 233.87 148.24 234.118 148.106C234.367 147.972 234.639 147.889 234.92 147.862C235.487 147.806 236.053 147.976 236.495 148.336C236.937 148.695 237.219 149.215 237.28 149.782Z" fill="#1890ff"/>
<path d="M154.38 224.822C150.71 222.66 147.524 219.767 145.02 216.322C144.098 211.768 144.098 207.075 145.02 202.522C145.06 202.447 145.121 202.386 145.196 202.347C145.271 202.307 145.356 202.292 145.44 202.302C150.524 202.982 155.676 202.982 160.76 202.302C160.807 202.296 160.855 202.3 160.901 202.313C160.947 202.326 160.99 202.348 161.027 202.378C161.064 202.408 161.095 202.445 161.118 202.487C161.141 202.528 161.155 202.574 161.16 202.622C161.7 207.682 162.16 210.362 162.54 215.082C162.54 215.762 159.98 216.842 155.02 224.822C154.996 224.888 154.953 224.945 154.896 224.985C154.838 225.025 154.77 225.047 154.7 225.047C154.63 225.047 154.562 225.025 154.504 224.985C154.447 224.945 154.404 224.888 154.38 224.822ZM145.66 215.942C148.032 219.16 151.016 221.878 154.44 223.942C156.453 220.62 158.864 217.558 161.62 214.822C161.26 210.242 160.82 207.602 160.32 202.822C155.388 203.472 150.392 203.472 145.46 202.822C144.731 207.171 144.799 211.617 145.66 215.942Z" fill="#1890ff"/>
<path d="M375.3 96.1017C375.199 96.1017 375.103 96.0616 375.031 95.9904C374.96 95.9191 374.92 95.8224 374.92 95.7217C375.09 92.7839 374.644 89.8431 373.61 87.0877C372.577 84.3324 370.98 81.8234 368.92 79.7217C368.851 79.6527 368.812 79.5592 368.812 79.4617C368.812 79.3641 368.851 79.2706 368.92 79.2017C368.989 79.1327 369.082 79.094 369.18 79.094C369.277 79.094 369.371 79.1327 369.44 79.2017C371.582 81.356 373.248 83.936 374.33 86.7749C375.411 89.6138 375.885 92.6481 375.72 95.6817C375.723 95.7376 375.714 95.7935 375.694 95.8457C375.674 95.898 375.643 95.9454 375.603 95.985C375.564 96.0246 375.516 96.0554 375.464 96.0755C375.412 96.0956 375.356 96.1045 375.3 96.1017Z" fill="#1890ff"/>
<path d="M321.76 197.402C321.91 198.834 322.482 200.19 323.403 201.297C324.324 202.405 325.552 203.214 326.933 203.623C328.314 204.032 329.786 204.022 331.161 203.595C332.536 203.167 333.754 202.341 334.66 201.222C335.27 200.484 335.726 199.631 336.001 198.714C336.276 197.797 336.364 196.833 336.26 195.882L335.16 185.502C335.06 184.55 334.774 183.626 334.317 182.785C333.861 181.944 333.243 181.2 332.499 180.598C331.755 179.995 330.9 179.545 329.982 179.273C329.064 179.001 328.102 178.912 327.15 179.012C326.198 179.111 325.275 179.398 324.433 179.854C323.592 180.311 322.849 180.929 322.246 181.673C321.029 183.175 320.458 185.099 320.66 187.022L321.76 197.402ZM327.22 179.762C328.075 179.667 328.941 179.744 329.767 179.986C330.593 180.228 331.363 180.631 332.032 181.172C332.702 181.713 333.257 182.381 333.667 183.138C334.077 183.895 334.333 184.725 334.42 185.582L335.5 195.962C335.624 196.832 335.571 197.719 335.345 198.568C335.118 199.418 334.722 200.213 334.182 200.907C333.641 201.6 332.966 202.177 332.196 202.603C331.427 203.03 330.58 203.297 329.706 203.388C328.831 203.48 327.947 203.394 327.107 203.136C326.266 202.878 325.486 202.453 324.813 201.887C324.141 201.32 323.589 200.624 323.192 199.84C322.794 199.055 322.559 198.199 322.5 197.322L321.4 186.942C321.226 185.219 321.741 183.498 322.831 182.153C323.921 180.808 325.499 179.948 327.22 179.762Z" fill="#1890ff"/>
<path d="M341.42 195.802L340.88 190.682C340.858 190.586 340.804 190.501 340.728 190.44C340.652 190.378 340.558 190.344 340.46 190.342C340.41 190.347 340.361 190.362 340.317 190.385C340.273 190.409 340.234 190.442 340.202 190.481C340.171 190.52 340.147 190.565 340.133 190.613C340.119 190.661 340.114 190.712 340.12 190.762L340.66 195.902C340.874 197.453 340.774 199.031 340.365 200.542C339.957 202.053 339.249 203.467 338.284 204.7C337.318 205.932 336.115 206.958 334.745 207.716C333.375 208.474 331.867 208.949 330.31 209.112C328.753 209.276 327.179 209.125 325.682 208.668C324.184 208.211 322.794 207.458 321.593 206.453C320.393 205.449 319.406 204.213 318.693 202.819C317.979 201.426 317.553 199.903 317.44 198.342L316.9 193.202C316.9 193.101 316.86 193.004 316.789 192.933C316.717 192.862 316.621 192.822 316.52 192.822C316.419 192.822 316.323 192.862 316.251 192.933C316.18 193.004 316.14 193.101 316.14 193.202L316.68 198.342C317.024 201.556 318.604 204.51 321.085 206.581C323.567 208.652 326.756 209.678 329.98 209.442L330.9 218.262L326.16 218.742C326.059 218.742 325.963 218.782 325.891 218.853C325.82 218.924 325.78 219.021 325.78 219.122C325.78 219.222 325.82 219.319 325.891 219.39C325.963 219.462 326.059 219.502 326.16 219.502L336.42 218.422C336.476 218.435 336.534 218.435 336.59 218.422C336.646 218.41 336.698 218.385 336.743 218.349C336.788 218.314 336.824 218.269 336.849 218.217C336.874 218.165 336.887 218.109 336.887 218.052C336.887 217.994 336.874 217.938 336.849 217.886C336.824 217.835 336.788 217.79 336.743 217.754C336.698 217.718 336.646 217.693 336.59 217.681C336.534 217.668 336.476 217.669 336.42 217.682L331.7 218.182L330.76 209.362C333.943 208.913 336.829 207.251 338.816 204.724C340.802 202.197 341.735 199 341.42 195.802Z" fill="#1890ff"/>
<path d="M259.44 254.102L257.22 228.102C257.215 228.034 257.192 227.97 257.154 227.914C257.115 227.859 257.063 227.815 257.002 227.786C256.941 227.758 256.873 227.746 256.806 227.752C256.739 227.759 256.675 227.782 256.62 227.822L246 235.202C245.459 232.787 244.064 230.648 242.073 229.178C240.082 227.709 237.627 227.007 235.16 227.202C234.82 227.202 211.72 229.202 211.46 229.202C208.76 229.431 206.262 230.722 204.515 232.792C202.767 234.863 201.913 237.542 202.14 240.242L203.08 251.302C203.314 254.003 204.61 256.501 206.683 258.248C208.757 259.995 211.438 260.849 214.14 260.622L237.84 258.622C240.305 258.403 242.608 257.301 244.324 255.518C246.04 253.736 247.055 251.393 247.18 248.922L258.92 254.422C258.975 254.449 259.035 254.462 259.096 254.459C259.157 254.456 259.217 254.438 259.269 254.406C259.321 254.374 259.364 254.329 259.394 254.276C259.424 254.223 259.44 254.163 259.44 254.102ZM237.76 257.902C237.56 257.902 214.3 259.902 214.06 259.902C212.822 260.009 211.574 259.871 210.389 259.495C209.204 259.12 208.104 258.514 207.153 257.714C206.202 256.913 205.419 255.933 204.847 254.83C204.275 253.726 203.926 252.52 203.82 251.282L202.88 240.222C202.773 238.983 202.911 237.736 203.287 236.551C203.662 235.366 204.267 234.266 205.068 233.315C205.868 232.364 206.848 231.58 207.952 231.008C209.056 230.436 210.261 230.087 211.5 229.982L235.2 227.982C237.701 227.782 240.18 228.577 242.097 230.195C244.015 231.813 245.216 234.123 245.44 236.622L246.38 247.662C246.585 250.161 245.794 252.639 244.18 254.558C242.565 256.476 240.257 257.678 237.76 257.902ZM247.16 248.142C247.16 247.922 246.16 236.142 246.12 236.022L256.52 228.762L258.64 253.522L247.16 248.142Z" fill="#1890ff"/>
<path d="M34.8 175.682C34.6993 175.682 34.6026 175.642 34.5313 175.57C34.4601 175.499 34.42 175.402 34.42 175.302C34.42 175.201 34.4601 175.104 34.5313 175.033C34.6026 174.962 34.6993 174.922 34.8 174.922L42.7 174.122C42.8008 174.122 42.8975 174.162 42.9687 174.233C43.04 174.304 43.08 174.401 43.08 174.502C43.08 174.602 43.04 174.699 42.9687 174.77C42.8975 174.842 42.8008 174.882 42.7 174.882L34.8 175.682Z" fill="#1890ff"/>
<path d="M56.76 173.442C56.6592 173.442 56.5626 173.402 56.4913 173.33C56.42 173.259 56.38 173.162 56.38 173.062C56.38 172.961 56.42 172.864 56.4913 172.793C56.5626 172.722 56.6592 172.682 56.76 172.682L64.76 171.882C64.8608 171.882 64.9574 171.922 65.0287 171.993C65.1 172.064 65.14 172.161 65.14 172.262C65.14 172.362 65.1 172.459 65.0287 172.53C64.9574 172.602 64.8608 172.642 64.76 172.642L56.76 173.442Z" fill="#1890ff"/>
<path d="M48.64 166.802L47.84 158.802C47.8269 158.746 47.8266 158.688 47.8391 158.632C47.8516 158.576 47.8766 158.524 47.9122 158.479C47.9478 158.434 47.993 158.398 48.0446 158.373C48.0962 158.348 48.1527 158.335 48.21 158.335C48.2672 158.335 48.3237 158.348 48.3753 158.373C48.4269 158.398 48.4721 158.434 48.5077 158.479C48.5433 158.524 48.5683 158.576 48.5808 158.632C48.5933 158.688 48.593 158.746 48.58 158.802L49.4 166.802C49.4 166.902 49.3599 166.999 49.2887 167.07C49.2174 167.142 49.1207 167.182 49.02 167.182C48.9192 167.182 48.8225 167.142 48.7513 167.07C48.68 166.999 48.64 166.902 48.64 166.802Z" fill="#1890ff"/>
<path d="M50.88 188.682L50.08 180.682C50.0995 180.598 50.1467 180.524 50.2138 180.47C50.281 180.417 50.3642 180.388 50.45 180.388C50.5357 180.388 50.6189 180.417 50.6861 180.47C50.7532 180.524 50.8004 180.598 50.82 180.682L51.64 188.682C51.64 188.782 51.5999 188.879 51.5287 188.95C51.4574 189.022 51.3607 189.062 51.26 189.062C51.1592 189.062 51.0625 189.022 50.9913 188.95C50.92 188.879 50.88 188.782 50.88 188.682Z" fill="#1890ff"/>
<path d="M44.2599 169.702C44.0599 169.702 44.4799 170.002 37.8599 164.582C37.4599 164.262 37.9599 163.682 38.3199 164.002L44.4999 169.022C44.5629 169.071 44.6089 169.138 44.6314 169.215C44.6539 169.291 44.6517 169.373 44.6251 169.448C44.5985 169.523 44.549 169.588 44.4834 169.634C44.4179 169.679 44.3397 169.703 44.2599 169.702Z" fill="#1890ff"/>
<path d="M61.38 183.642C61.18 183.642 61.58 183.922 54.98 178.542C54.9283 178.517 54.8827 178.481 54.8468 178.437C54.8109 178.392 54.7855 178.34 54.7725 178.284C54.7595 178.229 54.7593 178.171 54.7718 178.115C54.7843 178.059 54.8093 178.007 54.8448 177.962C54.8804 177.917 54.9256 177.881 54.9771 177.856C55.0286 177.831 55.0851 177.818 55.1423 177.818C55.1995 177.818 55.256 177.831 55.3075 177.856C55.3591 177.881 55.4044 177.917 55.44 177.962L61.62 182.982C61.6754 183.032 61.7146 183.098 61.7325 183.171C61.7504 183.245 61.7463 183.321 61.7206 183.392C61.6949 183.463 61.6488 183.524 61.5882 183.568C61.5275 183.613 61.4551 183.638 61.38 183.642Z" fill="#1890ff"/>
<path d="M54.2 168.682C54.1277 168.683 54.0566 168.663 53.995 168.625C53.9335 168.587 53.884 168.532 53.8525 168.467C53.821 168.402 53.8087 168.329 53.8172 168.258C53.8256 168.186 53.8543 168.118 53.9 168.062L58.94 161.902C59.24 161.502 59.82 161.902 59.52 162.382C54 169.062 54.44 168.682 54.2 168.682Z" fill="#1890ff"/>
<path d="M40.24 185.802C40.1694 185.799 40.1009 185.777 40.0423 185.737C39.9836 185.698 39.9372 185.643 39.9081 185.578C39.879 185.514 39.8684 185.443 39.8776 185.373C39.8868 185.303 39.9153 185.236 39.96 185.182L44.98 179.022C45.0086 178.975 45.0467 178.936 45.0918 178.906C45.1369 178.876 45.188 178.855 45.2416 178.847C45.2952 178.838 45.35 178.841 45.4024 178.855C45.4548 178.869 45.5036 178.894 45.5454 178.929C45.5872 178.963 45.6211 179.007 45.6449 179.055C45.6686 179.104 45.6816 179.158 45.683 179.212C45.6844 179.266 45.6741 179.32 45.6529 179.37C45.6317 179.42 45.6 179.465 45.56 179.502C40.1 186.182 40.5 185.802 40.24 185.802Z" fill="#1890ff"/>
<path d="M123.88 78.8216C122.973 77.7983 122.499 76.4631 122.556 75.097C122.614 73.731 123.199 72.4405 124.189 71.4973C125.179 70.554 126.496 70.0316 127.864 70.0399C129.231 70.0481 130.542 70.5865 131.52 71.5416C132.028 72.0372 132.43 72.63 132.704 73.2847C132.977 73.9393 133.116 74.6423 133.112 75.3517C133.107 76.0612 132.96 76.7624 132.679 77.4137C132.397 78.065 131.988 78.6529 131.474 79.1423C130.96 79.6317 130.353 80.0125 129.689 80.2622C129.025 80.5118 128.318 80.625 127.609 80.5951C126.9 80.5651 126.205 80.3927 125.564 80.088C124.923 79.7833 124.351 79.3526 123.88 78.8216ZM124.58 71.9216C124.142 72.3293 123.79 72.8198 123.543 73.3647C123.296 73.9097 123.159 74.4982 123.142 75.0962C123.124 75.6942 123.225 76.2897 123.439 76.8483C123.654 77.407 123.977 77.9175 124.389 78.3503C124.802 78.7832 125.297 79.1297 125.845 79.3699C126.393 79.61 126.983 79.739 127.582 79.7494C128.18 79.7598 128.774 79.6513 129.33 79.4302C129.886 79.2092 130.392 78.8799 130.82 78.4616C131.258 78.054 131.611 77.5635 131.857 77.0186C132.104 76.4736 132.241 75.8851 132.258 75.2871C132.276 74.6891 132.175 74.0936 131.961 73.5349C131.747 72.9763 131.424 72.4658 131.011 72.033C130.598 71.6001 130.103 71.2536 129.555 71.0134C129.007 70.7732 128.417 70.6442 127.819 70.6339C127.22 70.6235 126.626 70.732 126.07 70.9531C125.514 71.1741 125.008 71.5034 124.58 71.9216Z" fill="#1890ff"/>
<path d="M345.2 23.1217L335.2 23.9417L334.36 13.9417C334.34 13.8582 334.293 13.7838 334.226 13.7305C334.159 13.6772 334.076 13.6483 333.99 13.6483C333.904 13.6483 333.821 13.6772 333.754 13.7305C333.687 13.7838 333.64 13.8582 333.62 13.9417L334.46 23.9417L324.46 24.7617C324.359 24.7617 324.263 24.8017 324.191 24.873C324.12 24.9442 324.08 25.0409 324.08 25.1417C324.08 25.2424 324.12 25.3391 324.191 25.4104C324.263 25.4816 324.359 25.5217 324.46 25.5217L334.46 24.6817L335.28 34.6817C335.28 34.7824 335.32 34.8791 335.391 34.9504C335.463 35.0216 335.559 35.0617 335.66 35.0617C335.761 35.0617 335.857 35.0216 335.929 34.9504C336 34.8791 336.04 34.7824 336.04 34.6817L335.2 24.6817L345.2 23.8417C345.257 23.861 345.318 23.8664 345.378 23.8575C345.437 23.8486 345.494 23.8256 345.543 23.7904C345.592 23.7552 345.632 23.7088 345.66 23.6552C345.687 23.6015 345.702 23.542 345.702 23.4817C345.702 23.4213 345.687 23.3618 345.66 23.3081C345.632 23.2545 345.592 23.2081 345.543 23.1729C345.494 23.1377 345.437 23.1147 345.378 23.1058C345.318 23.0969 345.257 23.1023 345.2 23.1217Z" fill="#1890ff"/>
<path d="M260.44 117.902C259.9 117.122 258.22 117.422 255.54 118.762C255.04 119.022 253.06 120.022 251.36 120.942C252.42 119.702 253.48 118.502 254.5 117.462C257.38 114.562 258.5 112.662 257.86 111.842C257.62 111.542 256.92 110.662 251.76 113.682C246.176 117.48 241.025 121.88 236.4 126.802C233 130.382 234.28 120.422 233.92 118.142C233.56 115.862 233.26 114.502 232.4 114.442C231.54 114.382 230.9 115.302 229.54 119.882C228.88 122.062 226.24 128.782 220.98 141.702C219.984 141.718 218.989 141.785 218 141.902C217.24 141.902 218.28 143.142 209.24 163.622L207.74 167.082C188.86 134.882 185.16 131.662 160.76 130.222C160.218 130.151 159.708 129.924 159.293 129.569C158.878 129.214 158.574 128.746 158.42 128.222C159.58 128.382 164.58 128.082 165.66 126.522C166.74 124.962 167.04 122.202 165.36 114.322C165.892 114.12 166.361 113.782 166.721 113.341C167.081 112.901 167.318 112.373 167.41 111.812C167.501 111.25 167.443 110.674 167.241 110.143C167.039 109.611 166.701 109.141 166.26 108.782C166.838 108.505 167.322 108.064 167.651 107.514C167.98 106.964 168.14 106.329 168.11 105.689C168.08 105.048 167.862 104.431 167.483 103.914C167.104 103.397 166.581 103.003 165.98 102.782C166.361 102.322 166.607 101.766 166.692 101.176C166.777 100.585 166.697 99.9823 166.461 99.4341C166.226 98.886 165.843 98.4135 165.356 98.069C164.868 97.7245 164.295 97.5212 163.7 97.4816C163.885 96.9197 163.913 96.3177 163.78 95.741C163.648 95.1644 163.36 94.6351 162.947 94.2105C162.535 93.786 162.015 93.4824 161.442 93.3328C160.87 93.1831 160.267 93.1931 159.7 93.3616C159.692 92.7509 159.512 92.1547 159.18 91.6419C158.848 91.1291 158.378 90.7205 157.824 90.4634C157.27 90.2062 156.655 90.1109 156.049 90.1884C155.443 90.266 154.871 90.5132 154.4 90.9016C154.177 90.3179 153.796 89.8075 153.3 89.4272C152.804 89.0469 152.212 88.8116 151.591 88.7473C150.969 88.6831 150.342 88.7925 149.778 89.0633C149.215 89.3342 148.738 89.7559 148.4 90.2816C148.016 89.8083 147.507 89.4528 146.93 89.2559C146.353 89.0591 145.733 89.0289 145.139 89.1688C144.546 89.3087 144.005 89.6131 143.577 90.047C143.149 90.4809 142.852 91.0266 142.72 91.6216C142.191 91.3334 141.592 91.1993 140.991 91.2344C140.39 91.2695 139.811 91.4726 139.319 91.8204C138.827 92.1683 138.443 92.6471 138.21 93.2023C137.977 93.7576 137.904 94.3671 138 94.9616C137.409 94.8779 136.806 94.9591 136.258 95.1962C135.711 95.4334 135.239 95.8173 134.895 96.3056C134.552 96.7938 134.35 97.3675 134.312 97.9632C134.274 98.559 134.401 99.1537 134.68 99.6816C134.072 99.7977 133.509 100.085 133.058 100.509C132.606 100.933 132.285 101.477 132.132 102.078C131.979 102.678 132 103.309 132.193 103.898C132.385 104.487 132.742 105.008 133.22 105.402C132.671 105.689 132.216 106.128 131.908 106.666C131.601 107.204 131.454 107.819 131.486 108.438C131.517 109.057 131.726 109.654 132.086 110.158C132.447 110.662 132.944 111.052 133.52 111.282C133.143 111.744 132.902 112.301 132.822 112.892C132.742 113.483 132.826 114.085 133.066 114.631C133.306 115.177 133.692 115.646 134.181 115.987C134.671 116.327 135.245 116.526 135.84 116.562C135.66 117.122 135.636 117.722 135.77 118.295C135.905 118.869 136.194 119.395 136.605 119.816C137.017 120.238 137.535 120.539 138.105 120.688C138.675 120.837 139.275 120.828 139.84 120.662C139.851 121.271 140.034 121.864 140.367 122.374C140.701 122.884 141.171 123.29 141.724 123.544C142.278 123.799 142.892 123.893 143.496 123.814C144.1 123.736 144.67 123.489 145.14 123.102C145.363 123.81 145.828 124.418 146.452 124.82C147.077 125.222 147.823 125.392 148.56 125.302C143.68 131.102 139.86 130.842 130.32 135.082C127.33 136.432 124.714 138.491 122.7 141.082C122.38 137.602 122.22 134.742 122.24 133.082C122.24 128.722 121.84 127.722 121.18 127.582C120.52 127.442 119.72 128.622 118.84 130.402C117.96 132.182 116.34 141.062 114.5 137.302C111.806 131.773 108.505 126.561 104.66 121.762C101.38 118.162 100.34 118.182 99.84 118.542C98.4 119.562 101.22 124.002 102.94 128.002C101.7 126.742 100.26 125.362 100.04 125.142C98.04 123.142 96.68 122.542 96.04 123.142C95.8855 123.28 95.7863 123.47 95.7605 123.675C95.7348 123.881 95.7843 124.089 95.9 124.262C97 126.262 98.96 129.142 100.3 131.402C99.24 130.662 96.74 129.002 95.88 129.942C95.7447 130.101 95.6704 130.303 95.6704 130.512C95.6704 130.72 95.7447 130.923 95.88 131.082C100.08 136.362 102.98 137.782 107.44 147.082C107.62 148.202 107.78 151.082 107.92 153.722C106.4 154.102 105.32 154.422 105.2 154.462C105.119 154.492 105.051 154.547 105.004 154.619C104.957 154.691 104.935 154.776 104.94 154.862C106.36 172.102 109.26 183.882 114.08 191.902C115.394 194.255 117.536 196.037 120.089 196.902C122.643 197.766 125.426 197.652 127.9 196.582C122.215 200.971 117.865 206.858 115.34 213.582C110.84 225.742 95.76 240.602 93.98 242.322C71.98 221.642 70.54 220.202 70.32 220.062C69.8027 219.617 69.1801 219.311 68.5115 219.175C67.8428 219.038 67.1504 219.075 66.5 219.282L56.5 207.082C49.06 196.502 3.59998 234.222 10.5 243.742C11.191 244.505 12.0428 245.105 12.9939 245.499C13.945 245.894 14.9717 246.072 16 246.022C21.12 246.022 28.14 242.582 34.62 240.762C38.4 239.722 42.14 238.462 45.64 239.602C45.4659 240.194 45.4461 240.821 45.5827 241.423C45.7192 242.025 46.0074 242.582 46.42 243.042C46.6 243.242 46.42 243.042 86.04 277.302C88.8635 279.734 92.4906 281.03 96.2164 280.938C99.9422 280.846 103.501 279.371 106.2 276.802C115.54 268.562 137.08 249.502 145.48 242.062C145.82 242.502 146.16 242.942 146.52 243.342C151.93 249.752 154.779 257.937 154.52 266.322L137.16 316.062C137.16 316.322 137.16 316.462 137.4 316.582C138.36 317.182 139.4 317.762 140.28 318.322C136.6 327.002 132.46 336.322 131.36 338.822C130.26 341.322 131.04 345.302 131.7 347.882C134.652 357.978 139.394 367.462 145.7 375.882C150.2 382.262 158.4 392.262 162.16 385.442C164.94 380.402 162.7 369.442 159.76 362.282C153 345.642 161.56 332.862 163.4 326.542C164.6 326.742 165.82 326.902 167.06 327.042C167.186 327.059 167.314 327.032 167.423 326.967C167.532 326.901 167.616 326.801 167.66 326.682C168.68 323.842 185.3 277.082 185.36 276.902C187.328 270.571 188.161 263.942 187.82 257.322C187.4 232.682 186.58 215.882 179.2 190.682C181.2 186.682 180.72 173.842 180.54 169.722C186.526 177.985 193.218 185.714 200.54 192.822C202.258 194.472 204.343 195.691 206.624 196.378C208.905 197.065 211.317 197.2 213.661 196.772C216.004 196.344 218.213 195.366 220.104 193.918C221.996 192.47 223.516 190.593 224.54 188.442C229.96 177.002 237.16 159.502 239.62 147.862C239.634 147.787 239.627 147.709 239.598 147.638C239.57 147.567 239.522 147.506 239.46 147.462L237.9 146.482C239.16 143.042 240.08 140.602 240.62 139.522C248.28 131.162 252.14 130.362 258.08 126.302C258.266 126.186 258.407 126.009 258.476 125.8C258.545 125.592 258.54 125.366 258.46 125.162C257.84 123.902 254.46 124.902 253.18 125.322C255.18 123.482 258.48 120.842 260.3 119.102C260.468 118.955 260.575 118.75 260.601 118.529C260.627 118.307 260.57 118.083 260.44 117.902ZM147.68 127.342C148.9 126.122 155.4 117.962 156.46 116.602C156.512 116.532 156.54 116.448 156.54 116.362C156.54 116.275 156.512 116.191 156.46 116.122C152.82 112.122 155.46 109.462 157.34 112.122C158.62 113.922 160.88 113.622 159.88 108.422C160.901 107.976 161.885 107.447 162.82 106.842C165.96 119.122 166.28 123.522 165.38 125.542C164.48 127.562 158.84 123.962 156.84 122.502C156.781 122.45 156.706 122.419 156.628 122.414C156.55 122.408 156.472 122.429 156.406 122.472C156.34 122.515 156.29 122.578 156.264 122.652C156.238 122.726 156.236 122.807 156.26 122.882C156.9 125.922 157.44 130.162 160.06 130.882C148.72 136.322 142.9 132.662 141.46 131.502C143.793 130.549 145.908 129.134 147.68 127.342ZM103.14 138.222C101.26 135.722 96.38 130.702 96.32 130.222C96.42 130.222 97.3 130.082 99.68 131.702C100.576 132.368 101.325 133.212 101.88 134.182C103.1 136.682 104.86 139.882 106 142.782C105.137 141.207 104.182 139.684 103.14 138.222ZM102.54 133.862C101.467 131.749 100.265 129.705 98.94 127.742C98.0207 126.384 97.1794 124.975 96.42 123.522C96.42 123.522 97.4 123.522 99.48 125.522C99.78 125.822 102.48 128.402 103.7 129.742C105.477 134.08 106.609 138.655 107.06 143.322C105.73 140.087 104.221 136.929 102.54 133.862ZM101.86 123.862C99.86 120.222 100.1 119.122 100.24 119.042C100.38 118.962 100.98 118.682 104 122.122C108.768 128.089 112.691 134.684 115.66 141.722C115.672 141.777 115.695 141.829 115.73 141.874C115.764 141.919 115.808 141.956 115.858 141.982C115.909 142.008 115.964 142.022 116.021 142.024C116.077 142.026 116.134 142.015 116.185 141.992C116.237 141.969 116.283 141.935 116.32 141.892C116.357 141.849 116.384 141.798 116.399 141.744C116.414 141.689 116.416 141.632 116.406 141.576C116.396 141.52 116.373 141.468 116.34 141.422C115.98 140.542 115.58 139.662 115.18 138.782C117.52 139.122 118.56 132.322 119.42 130.562C119.7 130.002 120.58 128.222 120.9 128.142C121.22 128.062 121.42 128.702 121.38 132.922C121.38 134.922 121.56 138.022 121.92 141.902C119.697 145.116 118.096 148.718 117.2 152.522C114.278 152.328 111.344 152.626 108.52 153.402C108 142.162 107.42 134.682 101.86 123.822V123.862ZM123.86 201.102C125.504 201.115 127.124 201.498 128.6 202.222C125.44 204.422 122.5 211.222 122.06 212.222L115.22 215.462C117.049 210.1 120.002 205.191 123.88 201.062L123.86 201.102ZM46.26 239.102C42.44 237.722 38.66 238.962 34.46 240.142C27.58 242.142 20.18 245.782 15.14 245.302C27.42 243.862 57.14 218.622 56.98 208.982C58.14 210.422 67.48 221.702 70.1 224.982C67.88 231.602 58.44 241.122 51.68 242.982C50.2291 241.237 48.3759 239.871 46.28 239.002L46.26 239.102ZM48.7 244.082C57.16 244.982 72.3 228.442 71.28 222.082L79.54 229.862C75.36 241.642 68.38 249.002 58.2 252.342L48.7 244.082ZM105.74 276.362C103.815 278.166 101.438 279.417 98.86 279.982C96.6973 280.418 94.463 280.346 92.3324 279.774C90.2018 279.201 88.2328 278.143 86.58 276.682L58.88 252.682C63.4966 251.144 67.6934 248.556 71.14 245.122L87.94 259.822C90.6805 262.228 94.203 263.555 97.85 263.555C101.497 263.555 105.019 262.228 107.76 259.822L139.42 231.822L139.82 246.142L105.74 276.362ZM155.28 265.962C155.418 257.557 152.521 249.384 147.12 242.942C141.721 236.411 138.35 228.444 137.42 220.022C137.433 219.966 137.433 219.908 137.421 219.852C137.408 219.796 137.383 219.744 137.348 219.699C137.312 219.654 137.267 219.618 137.215 219.593C137.164 219.568 137.107 219.555 137.05 219.555C136.993 219.555 136.936 219.568 136.885 219.593C136.833 219.618 136.788 219.654 136.752 219.699C136.717 219.744 136.692 219.796 136.679 219.852C136.667 219.908 136.667 219.966 136.68 220.022C136.986 223.775 137.87 227.458 139.3 230.942L107.3 259.362C104.695 261.648 101.347 262.909 97.88 262.909C94.4135 262.909 91.0653 261.648 88.46 259.362L71.66 244.682C75.467 240.527 78.3624 235.622 80.16 230.282L99.64 248.682C99.98 249.022 100.5 248.462 100.14 248.122L94.44 242.682C96.22 240.962 109.18 228.142 114.74 216.562C122.86 212.722 122.74 212.882 122.74 212.682C122.74 212.482 126.26 204.102 129.58 202.462C129.638 202.428 129.687 202.38 129.72 202.322C129.754 202.264 129.772 202.199 129.772 202.132C129.772 202.065 129.754 201.999 129.72 201.941C129.687 201.883 129.638 201.835 129.58 201.802C128.043 200.972 126.358 200.455 124.62 200.282C127.227 197.689 130.142 195.425 133.3 193.542C133.58 193.362 133.56 193.282 133.56 192.982C144.1 196.142 159.68 194.982 170.48 192.982C175.18 211.422 177.12 231.542 178.72 257.962C179.078 263.62 178.352 269.296 176.58 274.682C175.1 279.242 170.58 293.442 164.72 312.162C156.762 310.599 149.249 307.293 142.72 302.482C156 264.562 155.26 266.682 155.3 265.862L155.28 265.962ZM159.1 362.662C162.2 370.242 163.74 379.482 161.94 384.262C162.76 372.722 140.1 334.102 132.78 337.542C134.44 333.802 137.84 326.062 140.92 318.802C147.684 322.589 155.042 325.199 162.68 326.522C160.9 332.462 152.32 345.862 159.12 362.562L159.1 362.662ZM167.1 326.382C156.735 325.212 146.779 321.674 138 316.042L142.48 303.222C150.924 309.532 161.069 313.163 171.6 313.642L167.1 326.382ZM187.1 257.442C187.425 263.946 186.613 270.457 184.7 276.682C184.28 277.902 176.92 298.682 171.8 312.982C169.669 312.922 167.544 312.722 165.44 312.382C168.4 303.042 176.08 278.662 177.24 275.062C179.058 269.561 179.805 263.763 179.44 257.982C177.82 231.522 175.88 211.382 171.18 192.882C173.64 192.402 176.1 191.842 178.5 191.202C185.84 216.102 186.66 232.842 187.14 257.342L187.1 257.442ZM238.72 148.042C236.22 159.622 229.12 176.882 223.76 188.202C222.792 190.255 221.347 192.048 219.546 193.43C217.745 194.813 215.64 195.746 213.406 196.151C211.172 196.555 208.873 196.421 206.701 195.759C204.53 195.096 202.548 193.925 200.92 192.342C191.099 182.726 182.378 172.047 174.92 160.502C174.869 160.431 174.795 160.38 174.711 160.357C174.627 160.335 174.538 160.341 174.459 160.377C174.379 160.412 174.314 160.473 174.274 160.55C174.234 160.628 174.222 160.716 174.24 160.802L180 178.202C180 182.942 179.64 188.102 178.62 190.322C162.42 194.682 144 195.442 133.58 192.202C133.58 179.762 127.42 154.622 127.36 154.362C127.358 154.305 127.344 154.249 127.318 154.198C127.292 154.148 127.255 154.104 127.21 154.069C127.164 154.035 127.112 154.011 127.056 154C127.001 153.989 126.943 153.99 126.888 154.004C126.833 154.017 126.781 154.043 126.738 154.08C126.694 154.116 126.659 154.162 126.635 154.213C126.611 154.265 126.599 154.321 126.6 154.378C126.601 154.435 126.615 154.491 126.64 154.542C126.64 154.782 132.64 178.802 132.82 191.382C128.14 198.122 118.82 198.442 114.66 191.382C109.92 183.502 107.06 171.922 105.66 154.962C107.08 154.522 113.66 152.742 117.08 153.282C115.286 162.398 115.171 171.764 116.74 180.922C116.749 180.969 116.768 181.014 116.794 181.054C116.821 181.094 116.855 181.129 116.895 181.156C116.935 181.183 116.98 181.201 117.027 181.211C117.074 181.221 117.123 181.221 117.17 181.212C117.217 181.202 117.262 181.184 117.302 181.157C117.343 181.131 117.377 181.097 117.404 181.057C117.431 181.017 117.45 180.972 117.459 180.925C117.469 180.878 117.469 180.829 117.46 180.782C117.46 180.422 110.78 144.602 130.62 135.782C135.24 133.782 137.62 133.042 140.62 131.782C142.907 133.717 145.848 134.704 148.84 134.542C153.242 134.376 157.541 133.163 161.38 131.002C186.02 132.522 188.88 136.242 210.16 172.762C210.21 172.849 210.293 172.913 210.391 172.939C210.489 172.966 210.592 172.952 210.68 172.902C210.768 172.851 210.831 172.768 210.858 172.671C210.884 172.573 210.87 172.469 210.82 172.382C209.9 170.842 209.04 169.342 208.18 167.902C209.34 164.862 214.92 153.342 218.18 142.602C225.459 141.843 232.768 143.739 238.76 147.942L238.72 148.042ZM237.14 146.162C232.479 143.379 227.167 141.875 221.74 141.802C227.02 128.882 229.56 122.402 230.22 120.202C231.58 115.662 232.22 115.302 232.22 115.282C232.22 115.262 232.94 117.642 233.06 118.362C233.4 120.542 232.24 128.162 234.88 128.362C234.16 129.162 233.44 130.002 232.74 130.842C232.692 130.92 232.673 131.013 232.688 131.103C232.703 131.194 232.75 131.276 232.821 131.334C232.892 131.393 232.981 131.424 233.073 131.421C233.165 131.419 233.252 131.384 233.32 131.322C238.748 124.851 245.04 119.158 252.02 114.402C256.5 111.762 257.14 112.402 257.14 112.402C257.14 112.402 257 113.842 253.86 117.042C244.54 126.522 241.48 134.482 237.18 146.062L237.14 146.162ZM253.62 126.022C257.18 124.922 257.62 125.562 257.62 125.562C257.62 125.562 257.62 125.682 257.48 125.762C251.58 129.762 249.14 130.022 242.82 136.122C245.629 132.792 248.606 129.608 251.74 126.582L253.62 126.022ZM255.62 122.122C250.595 126.363 245.963 131.048 241.78 136.122C243.822 131.202 246.593 126.617 250 122.522C251.64 121.562 255.16 119.782 255.84 119.442C259.18 117.762 259.84 118.322 259.84 118.322C258.568 119.649 257.205 120.885 255.76 122.022L255.62 122.122Z" fill="#1890ff"/>
</svg>
