<svg width="400" height="400" viewBox="0 0 400 400" fill="none" xmlns="http://www.w3.org/2000/svg">
<path d="M389.56 67.72C388.62 67.4 387.46 68.86 386.1 72.04C385.504 73.4077 384.837 74.7429 384.1 76.04C384.84 73.18 385.66 69.18 385.94 67.72C386.22 66.26 386.84 62.3 385.36 61.9C384.4 61.64 383.36 63.14 382.1 66.4C380.84 69.66 380 72 379.02 74C379.42 71.38 380.06 67.28 380.66 63.7C381.08 61.12 381.1 58.26 379.84 57.96C378.58 57.66 377.42 60.34 376.72 62.66C376.56 63.2 374.72 68.66 373.58 72.66C373.58 70.96 373.58 68.44 373.58 65.38C373.58 62.74 373.16 59.92 371.86 59.82C370.56 59.72 369.74 63.44 369.54 64.96C369.54 65.56 367.88 75.72 367.88 75.72C367.688 76.9652 367.303 78.173 366.74 79.3C366.3 80.1 366.1 80 365.8 79.92C362.58 79.18 356.86 72.42 354.7 74.78C354.3 75.24 353.04 76.6 359.88 84.78C360.604 85.6498 361.052 86.7162 361.166 87.8422C361.28 88.9683 361.055 90.1027 360.52 91.1L357.64 96.44C356.84 95.72 356.04 95 355.26 94.24C355.224 94.1979 355.18 94.1641 355.13 94.1409C355.08 94.1176 355.025 94.1056 354.97 94.1056C354.915 94.1056 354.86 94.1176 354.81 94.1409C354.76 94.1641 354.716 94.1979 354.68 94.24C353.74 95.7 352.84 97.1001 351.98 98.48L348.68 60.34C348.444 56.7893 346.811 53.4767 344.138 51.1268C341.466 48.7768 337.972 47.5807 334.42 47.8L289.12 51.8C289.496 49.2625 289.442 46.6796 288.96 44.16C290.667 44.0595 292.337 43.6178 293.871 42.8609C295.405 42.1041 296.772 41.0475 297.891 39.7536C299.009 38.4597 299.857 36.9547 300.384 35.3276C300.912 33.7004 301.107 31.9841 300.96 30.28C299.76 16.28 279.88 14.08 275.92 27.84C272.511 26.3553 268.786 25.741 265.081 26.0524C261.376 26.3637 257.806 27.5908 254.693 29.6235C251.579 31.6563 249.019 34.4308 247.244 37.6978C245.468 40.9647 244.532 44.6217 244.52 48.34C244.52 48.56 244.52 53.04 244.7 55.64L218.1 58C217.06 44.92 205.3 34.98 191 34.98C183.562 34.906 176.388 37.7326 171 42.86C168.467 45.2107 166.483 48.0906 165.19 51.2949C163.896 54.4992 163.324 57.9493 163.515 61.3996C163.706 64.8499 164.655 68.2158 166.294 71.2578C167.934 74.2998 170.223 76.9432 173 79C176.333 81.546 180.174 83.3459 184.263 84.2775C188.352 85.2092 192.593 85.251 196.7 84.4L203.26 160.16C203.247 160.216 203.247 160.274 203.259 160.33C203.272 160.386 203.297 160.438 203.332 160.483C203.368 160.528 203.413 160.564 203.465 160.589C203.516 160.614 203.573 160.627 203.63 160.627C203.687 160.627 203.744 160.614 203.795 160.589C203.847 160.564 203.892 160.528 203.928 160.483C203.963 160.438 203.988 160.386 204.001 160.33C204.013 160.274 204.013 160.216 204 160.16L197.36 84.18C200.855 83.4164 204.173 81.9981 207.14 80L218.38 84.2C218.447 84.2321 218.523 84.2426 218.596 84.23C218.669 84.2174 218.737 84.1824 218.79 84.1298C218.842 84.0771 218.877 84.0094 218.89 83.9361C218.903 83.8627 218.892 83.7872 218.86 83.72L214.32 72.68C217.045 68.5728 218.39 63.7038 218.16 58.78L244.74 56.48C245.36 66.22 247.4 71.92 250.74 73.46C253.7 74.8 257.06 72.72 259.54 70.64C260.226 72.3455 260.684 74.1344 260.9 75.96C261.74 83.48 257.44 87.66 252.56 92.32C246.26 98.32 236.74 107.42 232.56 123.92C232.536 124.018 232.552 124.122 232.605 124.208C232.657 124.294 232.742 124.356 232.84 124.38C232.938 124.404 233.042 124.388 233.128 124.335C233.214 124.283 233.276 124.198 233.3 124.1C237.42 107.8 246.84 98.82 253.08 92.86L254.58 91.44C254.92 92.32 255.3 93.26 255.72 94.22C256.33 95.6577 257.303 96.9128 258.542 97.8628C259.782 98.8129 261.247 99.4255 262.794 99.6411C264.341 99.8566 265.917 99.6676 267.369 99.0926C268.822 98.5176 270.1 97.5762 271.08 96.36C277.024 88.6792 283.859 81.7306 291.44 75.66C307.66 75.76 311.72 69.12 337.74 124.4L333.28 134.4C333.262 134.485 333.274 134.574 333.314 134.651C333.354 134.729 333.419 134.79 333.499 134.825C333.578 134.86 333.668 134.867 333.751 134.844C333.835 134.821 333.909 134.771 333.96 134.7C339.708 120.881 346.76 107.641 355.02 95.16C361.741 101.769 369.982 106.624 379.02 109.3C373.48 118.52 370.34 127.56 364 140.72C356.44 156.38 347.44 159.86 341.24 160.04C331.64 160.38 323.48 152.92 318.72 144.5C318.22 143.6 313.54 135.72 305.04 121.34C307.04 117.08 309.04 113.5 310.34 111.34C310.38 111.256 310.387 111.16 310.361 111.071C310.335 110.982 310.277 110.905 310.198 110.856C310.119 110.806 310.025 110.788 309.933 110.803C309.841 110.819 309.758 110.868 309.7 110.94C305.9 116.94 297.7 134.56 292.78 146.66C281.96 154.42 262.34 158.24 254.66 151.7C244.06 117.7 248.34 109.98 252.48 102.48L252.88 101.76C252.911 101.675 252.911 101.581 252.879 101.495C252.847 101.41 252.785 101.339 252.705 101.295C252.625 101.252 252.532 101.238 252.443 101.257C252.354 101.277 252.275 101.327 252.22 101.4L251.82 102.12C247.6 109.74 243.24 117.64 253.94 151.94C251.72 160.26 251.22 165.68 250.12 170.7L230.58 172.4C230.497 172.42 230.422 172.467 230.369 172.534C230.316 172.601 230.287 172.684 230.287 172.77C230.287 172.856 230.316 172.939 230.369 173.006C230.422 173.073 230.497 173.121 230.58 173.14L344.34 163.3C346.91 163.066 349.352 162.072 351.354 160.444C353.356 158.816 354.827 156.628 355.58 154.16C365.88 144.16 370.36 124.88 379.88 109.22C379.91 109.17 379.928 109.114 379.933 109.056C379.937 108.998 379.929 108.94 379.908 108.886C379.886 108.832 379.853 108.783 379.81 108.744C379.767 108.705 379.716 108.676 379.66 108.66C378.86 108.447 378.06 108.207 377.26 107.94C386.12 88.2001 384.62 90.4201 388.48 78.12C389.2 76 391.6 68.4 389.56 67.72ZM213.56 72.42C213.56 72.72 213.28 72.0201 217.84 83.12C207.84 79.34 207.34 79.12 207.08 79.12C204.125 81.1705 200.806 82.6369 197.3 83.44L196.44 73.6C196.081 70.2574 197.059 66.9084 199.161 64.285C201.264 61.6616 204.319 59.9772 207.66 59.6L217.4 58.76C217.593 63.6045 216.249 68.3858 213.56 72.42ZM270.56 95.82C269.657 96.9349 268.481 97.7969 267.147 98.3218C265.812 98.8468 264.364 99.0168 262.943 98.8154C261.523 98.6139 260.179 98.0479 259.043 97.1724C257.907 96.2969 257.017 95.1419 256.46 93.82C256 92.74 255.6 91.82 255.22 90.74C255.78 90.2 256.3 89.68 256.76 89.16C258.738 87.2667 260.208 84.9055 261.033 82.2943C261.858 79.6832 262.012 76.9063 261.48 74.22C262.604 71.8087 263.282 69.2133 263.48 66.56C263.481 66.4832 263.458 66.408 263.415 66.3444C263.372 66.2807 263.311 66.2315 263.239 66.2034C263.168 66.1752 263.09 66.1694 263.015 66.1867C262.94 66.2039 262.872 66.2434 262.82 66.3C249.6 81.14 245.36 69.44 245.34 49.56C249.688 48.3821 254.158 47.7109 258.66 47.56C259.24 50.18 259.4 52.68 260.66 52.8C261.24 52.8 261.82 52.36 262.66 51.22C264.88 48 269.3 53.1 263.8 57.1C263.734 57.1705 263.697 57.2635 263.697 57.36C263.697 57.4566 263.734 57.5496 263.8 57.62C270.84 68.68 276.92 75.14 290.5 75.62C283.119 81.5865 276.43 88.3622 270.56 95.82ZM338.2 123.42C310.92 65.54 307.46 75.72 289.02 74.76C283.744 74.6046 278.647 72.8079 274.44 69.62C278.161 68.3189 281.471 66.0546 284.032 63.0577C286.594 60.0609 288.315 56.4386 289.02 52.56L334.5 48.56C336.17 48.4517 337.845 48.6745 339.429 49.2156C341.013 49.7568 342.474 50.6056 343.728 51.7133C344.983 52.8211 346.006 54.1658 346.739 55.6703C347.472 57.1748 347.901 58.8094 348 60.48L351.4 99.62C346.542 107.291 342.135 115.237 338.2 123.42ZM293.18 147.42C302.01 150.917 309.483 157.157 314.5 165.22L301.88 166.3C298.864 159.958 294.446 154.385 288.96 150C290.427 149.212 291.837 148.324 293.18 147.34V147.42ZM254.6 152.58C258.097 154.879 262.242 155.988 266.42 155.74C274.008 155.578 281.464 153.719 288.24 150.3C293.665 154.604 298.053 160.072 301.08 166.3L250.94 170.64C251.86 166.36 252.68 160 254.6 152.58ZM344.44 162.58L315.42 165.08C310.347 156.78 302.729 150.34 293.7 146.72C296.8 139.22 301.06 129.68 304.76 122.12C313.92 137.64 317.82 144.12 318.12 144.76C326.54 159.7 341.82 166.34 354.58 155.26C353.72 157.287 352.32 159.038 350.531 160.322C348.743 161.606 346.635 162.374 344.44 162.54V162.58ZM382.82 66.74C384.12 63.2 385 62.74 385.18 62.74C385.36 62.74 385.9 64.1 385.18 67.7C384.528 71.401 383.66 75.0606 382.58 78.66C382.4 78.84 381.84 80.04 380.58 81.7C379.63 80.7347 378.599 79.8515 377.5 79.06C379.495 75.0391 381.271 70.913 382.82 66.7V66.74ZM377.44 62.96C378.54 59.32 379.44 58.74 379.66 58.8C379.88 58.86 380.5 60.14 379.92 63.68C379 69.16 377.92 75.86 377.92 76.58C377.82 76.84 377.82 76.78 376.94 78.58C375.753 77.795 374.494 77.1252 373.18 76.58L377.44 62.96ZM389.04 73.62C387.94 78.06 387.04 80.32 384.66 88.5C383.7 91.9 377.64 105.48 376.66 107.74C369.916 105.341 363.681 101.698 358.28 97L361.24 91.52C361.846 90.3905 362.102 89.1057 361.973 87.8301C361.845 86.5545 361.339 85.3463 360.52 84.36C355.78 78.68 354.72 75.98 355.32 75.34C356.8 73.74 362.58 80.02 365.74 80.72C366.22 80.72 366.66 80.84 367.22 80.06C367.954 78.7659 368.449 77.3499 368.68 75.88C368.68 75.88 370.26 65.72 370.34 65.1C370.86 61.36 371.66 60.62 371.88 60.62C372.1 60.62 372.92 61.8 372.9 65.4C372.9 70.86 372.9 74.56 372.9 75.08C372.9 75.6 372.62 75.94 372.5 76.3C371.96 76.08 371.4 75.88 370.8 75.7C370.754 75.6856 370.706 75.6804 370.658 75.6846C370.61 75.6888 370.563 75.7025 370.52 75.7248C370.478 75.7471 370.44 75.7775 370.409 75.8145C370.378 75.8514 370.354 75.8941 370.34 75.94C370.326 75.986 370.32 76.0344 370.325 76.0824C370.329 76.1304 370.342 76.177 370.365 76.2197C370.387 76.2625 370.418 76.3004 370.454 76.3313C370.491 76.3622 370.534 76.3856 370.58 76.4C376.58 78.4 379.88 81.44 383.58 86.18C383.608 86.2253 383.645 86.2642 383.689 86.2943C383.733 86.3243 383.782 86.3448 383.835 86.3545C383.887 86.3641 383.941 86.3627 383.992 86.3503C384.044 86.3378 384.093 86.3147 384.135 86.2823C384.177 86.25 384.212 86.2092 384.237 86.1625C384.263 86.1158 384.278 86.0643 384.282 86.0113C384.287 85.9583 384.28 85.905 384.262 85.8548C384.244 85.8046 384.217 85.7587 384.18 85.72C383.18 84.44 382.18 83.26 381.2 82.2C383.46 79.1565 385.359 75.8611 386.86 72.38C388.34 68.92 389.24 68.38 389.42 68.38C389.6 68.38 390 70 389.04 73.58V73.62Z" fill="white"/>
<path d="M186 105.44C185.791 102.895 184.581 100.537 182.634 98.8832C180.688 97.2296 178.166 96.4158 175.62 96.6204L165.42 97.4804C165.337 97.4999 165.262 97.5471 165.209 97.6143C165.156 97.6814 165.127 97.7646 165.127 97.8504C165.127 97.9361 165.156 98.0193 165.209 98.0865C165.262 98.1536 165.337 98.2008 165.42 98.2204C165.62 98.2204 175.42 97.4204 175.58 97.3804C176.745 97.279 177.919 97.4088 179.034 97.7625C180.149 98.1161 181.184 98.6866 182.077 99.4411C182.971 100.196 183.707 101.119 184.243 102.159C184.779 103.199 185.104 104.335 185.2 105.5L188 138.78C188.02 138.864 188.067 138.938 188.134 138.992C188.201 139.045 188.284 139.074 188.37 139.074C188.456 139.074 188.539 139.045 188.606 138.992C188.673 138.938 188.72 138.864 188.74 138.78L186 105.44Z" fill="white"/>
<path d="M185.82 175.4C184.86 176.34 182.02 176.46 180.66 176.56C180.559 176.56 180.463 176.6 180.391 176.671C180.32 176.743 180.28 176.839 180.28 176.94C180.28 177.041 180.32 177.137 180.391 177.209C180.463 177.28 180.559 177.32 180.66 177.32C182.32 177.18 185.14 177.1 186.32 175.94C186.366 175.869 186.386 175.785 186.379 175.701C186.372 175.617 186.337 175.538 186.279 175.476C186.222 175.414 186.146 175.373 186.063 175.36C185.98 175.346 185.894 175.36 185.82 175.4Z" fill="white"/>
<path d="M142.4 99.4203C128.02 100.62 83.28 104.36 83.08 104.4C81.8152 104.506 80.5837 104.86 79.4557 105.442C78.3278 106.024 77.3257 106.823 76.5066 107.793C75.6875 108.762 75.0675 109.884 74.682 111.093C74.2965 112.302 74.1531 113.576 74.26 114.84L79.42 176.16C79.639 178.713 80.8607 181.074 82.8176 182.727C84.7745 184.381 87.3069 185.191 89.86 184.98L110.3 183.24C110.349 183.238 110.397 183.225 110.441 183.204C110.486 183.182 110.525 183.151 110.557 183.114C110.588 183.076 110.612 183.033 110.627 182.986C110.641 182.939 110.646 182.889 110.64 182.84C110.64 182.64 110.44 182.44 110.24 182.5L89.8 184.22C87.4454 184.42 85.1077 183.677 83.3003 182.154C81.493 180.632 80.3635 178.455 80.16 176.1L75 114.78C74.9014 113.614 75.0339 112.439 75.3898 111.324C75.7457 110.209 76.3181 109.175 77.0743 108.282C77.8304 107.388 78.7554 106.652 79.7962 106.117C80.8371 105.581 81.9734 105.256 83.14 105.16L142.46 100.16C143 100.12 142.86 99.3203 142.4 99.4203Z" fill="white"/>
<path d="M309.4 277.8L302.32 194.88C302.176 193.186 301.7 191.536 300.919 190.026C300.137 188.516 299.066 187.174 297.766 186.078C296.465 184.983 294.962 184.154 293.341 183.639C291.72 183.125 290.014 182.935 288.32 183.08L223.4 188.58C223.317 188.6 223.242 188.647 223.189 188.714C223.136 188.781 223.107 188.864 223.107 188.95C223.107 189.036 223.136 189.119 223.189 189.186C223.242 189.253 223.317 189.301 223.4 189.32L288.38 183.84C289.974 183.703 291.58 183.881 293.106 184.365C294.631 184.849 296.046 185.628 297.27 186.659C298.494 187.69 299.503 188.952 300.239 190.373C300.975 191.794 301.424 193.346 301.56 194.94L308.62 277.86C308.898 281.067 307.895 284.254 305.83 286.724C303.765 289.194 300.806 290.745 297.6 291.04C297.38 291.04 180.96 300.86 175.92 301.3C175.837 301.32 175.762 301.367 175.709 301.434C175.656 301.501 175.627 301.584 175.627 301.67C175.627 301.756 175.656 301.839 175.709 301.906C175.762 301.973 175.837 302.021 175.92 302.04L297.54 291.8C299.239 291.661 300.893 291.189 302.409 290.41C303.925 289.631 305.272 288.561 306.374 287.26C307.476 285.96 308.31 284.455 308.829 282.832C309.348 281.208 309.542 279.498 309.4 277.8Z" fill="white"/>
<path d="M179.58 193.04C179.479 193.04 179.383 193 179.311 192.929C179.24 192.857 179.2 192.761 179.2 192.66C179.2 192.559 179.24 192.463 179.311 192.391C179.383 192.32 179.479 192.28 179.58 192.28L199.78 190.56C199.881 190.56 199.977 190.6 200.049 190.671C200.12 190.743 200.16 190.839 200.16 190.94C200.16 191.041 200.12 191.137 200.049 191.209C199.977 191.28 199.881 191.32 199.78 191.32L179.58 193.04Z" fill="white"/>
<path d="M240.16 138.7C247.98 130.14 251.82 129.38 257.8 125.3C258.48 124.84 258.38 123.3 253.54 124.88L251.54 125.48C253.7 123.36 257.64 120.3 259.88 118.14C260.48 117.56 260.16 116.14 255.62 118.42C254.62 118.92 251.22 120.64 249.62 121.58C251.019 119.812 252.514 118.123 254.1 116.52C259.24 111.3 258.7 109.28 251.82 113.34C245.989 117.245 240.621 121.801 235.82 126.92C232.34 129.12 233.66 119.8 233.3 117.54C232.8 114.44 232.14 111.02 229.66 119.32C228.98 121.58 226.2 128.64 220.98 141.32C226.672 141.344 232.258 142.861 237.18 145.72C238.26 142.84 239.18 140.56 239.88 138.6L240.16 138.7Z" fill="#B2BEC3"/>
<path d="M121.82 132.24C121.82 124.4 120.4 127.18 119.14 129.72C118.22 131.58 116.86 140 114.46 137.16C114.26 136.84 108.76 126.02 104.34 121.16C99.48 115.82 98.48 117.42 101.52 123.3C102.446 125.114 103.274 126.977 104 128.88C102.9 127.66 100.42 125.26 99.7 124.56C96.38 121.4 95.7 122.56 96.08 123.18C96.46 123.8 101.34 131.58 101.32 131.76L100 130.74C96.2 128.14 95.74 129.38 96.2 129.96C100.2 135.08 103.34 136.7 107.8 146.12C107.98 146.56 108.26 151.94 108.34 153.12C111.314 152.1 114.48 151.772 117.6 152.16C118.535 148.261 120.19 144.571 122.48 141.28C122 137.86 121.8 134.38 121.82 132.24Z" fill="#B2BEC3"/>
<path d="M163.02 105.52C166.26 117.98 166.66 122.7 165.68 125C164.7 127.3 160.6 125 156.6 122C157.04 124 157.5 125.88 157.98 127.4C158.103 128.071 158.437 128.685 158.933 129.153C159.43 129.621 160.063 129.917 160.74 130C156.644 132.615 151.802 133.81 146.96 133.4C144.648 133.258 142.456 132.318 140.76 130.74C143.12 129.46 145.04 129.94 150.6 122.62C152.6 120.08 154.6 117.88 156.16 115.78C152.16 111.24 155.46 108.24 157.62 111.26C158.78 112.88 160.44 112.42 159.44 107.56C160.697 106.998 161.896 106.315 163.02 105.52Z" fill="#B2BEC3"/>
<path d="M137.72 143.86C137.745 144.279 137.647 144.695 137.437 145.058C137.228 145.421 136.916 145.715 136.541 145.902C136.166 146.09 135.745 146.163 135.329 146.113C134.912 146.063 134.52 145.892 134.2 145.621C133.881 145.35 133.647 144.991 133.53 144.589C133.412 144.187 133.415 143.759 133.539 143.358C133.662 142.957 133.901 142.602 134.225 142.336C134.548 142.07 134.943 141.904 135.36 141.86C135.648 141.83 135.938 141.858 136.214 141.944C136.491 142.029 136.747 142.169 136.967 142.356C137.188 142.543 137.368 142.773 137.498 143.031C137.627 143.29 137.703 143.572 137.72 143.86Z" fill="white"/>
<path d="M122.54 161.54C122.565 161.958 122.467 162.375 122.257 162.738C122.048 163.101 121.736 163.395 121.361 163.582C120.986 163.77 120.565 163.843 120.149 163.793C119.732 163.743 119.34 163.572 119.02 163.301C118.7 163.03 118.467 162.671 118.35 162.269C118.232 161.866 118.235 161.438 118.359 161.038C118.482 160.637 118.721 160.282 119.045 160.015C119.368 159.749 119.763 159.584 120.18 159.54C120.467 159.513 120.757 159.543 121.032 159.629C121.307 159.716 121.562 159.856 121.782 160.042C122.002 160.229 122.182 160.457 122.312 160.715C122.442 160.972 122.52 161.252 122.54 161.54Z" fill="white"/>
<path d="M131.54 184.84C131.598 185.405 131.43 185.97 131.072 186.411C130.714 186.852 130.195 187.132 129.63 187.19C129.065 187.249 128.5 187.08 128.059 186.722C127.619 186.364 127.338 185.845 127.28 185.28C127.222 184.715 127.39 184.15 127.748 183.71C128.107 183.269 128.625 182.989 129.19 182.93C129.755 182.872 130.32 183.04 130.761 183.399C131.201 183.757 131.482 184.275 131.54 184.84Z" fill="white"/>
<path d="M111.8 157.52C111.858 158.085 111.69 158.65 111.332 159.091C110.974 159.531 110.455 159.812 109.89 159.87C109.325 159.928 108.76 159.76 108.319 159.402C107.879 159.043 107.598 158.525 107.54 157.96C107.482 157.395 107.65 156.83 108.008 156.389C108.367 155.949 108.885 155.668 109.45 155.61C110.015 155.552 110.58 155.72 111.021 156.078C111.461 156.436 111.742 156.955 111.8 157.52Z" fill="white"/>
<path d="M155.78 152.24C155.81 152.664 155.713 153.087 155.504 153.457C155.294 153.826 154.98 154.126 154.601 154.318C154.222 154.509 153.795 154.585 153.373 154.536C152.951 154.486 152.553 154.313 152.229 154.038C151.905 153.764 151.669 153.399 151.55 152.991C151.432 152.583 151.437 152.149 151.564 151.744C151.691 151.339 151.935 150.98 152.265 150.712C152.595 150.445 152.997 150.281 153.42 150.24C153.707 150.213 153.997 150.243 154.272 150.329C154.547 150.416 154.802 150.556 155.022 150.743C155.242 150.929 155.422 151.158 155.552 151.415C155.683 151.672 155.76 151.953 155.78 152.24Z" fill="white"/>
<path d="M143.42 169.54C143.445 169.958 143.347 170.375 143.137 170.738C142.928 171.101 142.616 171.395 142.241 171.582C141.866 171.77 141.445 171.843 141.029 171.793C140.612 171.743 140.22 171.572 139.9 171.301C139.58 171.03 139.347 170.671 139.23 170.269C139.112 169.866 139.115 169.438 139.239 169.038C139.362 168.637 139.601 168.282 139.925 168.015C140.248 167.749 140.643 167.584 141.06 167.54C141.347 167.51 141.638 167.538 141.914 167.623C142.191 167.709 142.447 167.849 142.667 168.036C142.888 168.223 143.068 168.452 143.198 168.711C143.327 168.969 143.403 169.251 143.42 169.54Z" fill="white"/>
<path d="M165.64 177.58C165.67 178.004 165.573 178.427 165.364 178.797C165.154 179.166 164.84 179.465 164.461 179.657C164.082 179.849 163.655 179.925 163.233 179.876C162.811 179.826 162.413 179.653 162.089 179.378C161.765 179.103 161.529 178.739 161.41 178.331C161.292 177.923 161.297 177.489 161.424 177.084C161.551 176.678 161.795 176.32 162.125 176.052C162.455 175.785 162.857 175.62 163.28 175.58C163.567 175.553 163.857 175.583 164.132 175.669C164.407 175.756 164.662 175.896 164.882 176.082C165.102 176.269 165.282 176.497 165.412 176.755C165.542 177.012 165.62 177.292 165.64 177.58Z" fill="white"/>
<path d="M174.84 140.76C174.889 141.186 174.811 141.617 174.615 141.998C174.419 142.379 174.114 142.694 173.738 142.901C173.363 143.108 172.934 143.199 172.507 143.161C172.08 143.124 171.674 142.961 171.34 142.692C171.006 142.423 170.76 142.061 170.632 141.652C170.505 141.243 170.502 140.805 170.624 140.394C170.746 139.983 170.988 139.617 171.319 139.344C171.649 139.071 172.053 138.903 172.48 138.86C173.044 138.804 173.607 138.972 174.049 139.327C174.49 139.683 174.775 140.197 174.84 140.76Z" fill="white"/>
<path d="M194.72 176.68C194.75 177.104 194.653 177.527 194.444 177.897C194.234 178.266 193.92 178.566 193.541 178.757C193.162 178.949 192.735 179.025 192.313 178.976C191.891 178.926 191.493 178.753 191.169 178.478C190.845 178.204 190.609 177.839 190.491 177.431C190.372 177.023 190.377 176.589 190.504 176.184C190.631 175.779 190.875 175.42 191.205 175.152C191.535 174.885 191.937 174.721 192.36 174.68C192.647 174.653 192.937 174.683 193.212 174.769C193.487 174.856 193.742 174.996 193.962 175.183C194.182 175.369 194.362 175.597 194.492 175.855C194.623 176.112 194.7 176.393 194.72 176.68Z" fill="white"/>
<path d="M194.32 152.5C194.345 152.918 194.247 153.335 194.037 153.698C193.828 154.061 193.516 154.355 193.141 154.542C192.766 154.73 192.345 154.803 191.929 154.753C191.512 154.703 191.12 154.532 190.8 154.261C190.48 153.99 190.247 153.631 190.13 153.229C190.012 152.826 190.015 152.398 190.139 151.998C190.262 151.597 190.501 151.242 190.825 150.975C191.148 150.709 191.543 150.544 191.96 150.5C192.247 150.473 192.537 150.503 192.812 150.589C193.087 150.676 193.342 150.816 193.562 151.002C193.782 151.189 193.962 151.417 194.092 151.675C194.223 151.932 194.3 152.212 194.32 152.5Z" fill="white"/>
<path d="M218 181.18C218.033 181.468 218.007 181.76 217.923 182.037C217.839 182.315 217.699 182.572 217.511 182.793C217.324 183.015 217.093 183.195 216.833 183.323C216.573 183.452 216.29 183.526 216 183.54C215.435 183.598 214.87 183.43 214.429 183.072C213.989 182.714 213.708 182.195 213.65 181.63C213.592 181.065 213.76 180.5 214.118 180.059C214.477 179.619 214.995 179.338 215.56 179.28C215.846 179.235 216.139 179.249 216.419 179.322C216.7 179.394 216.963 179.524 217.191 179.702C217.42 179.88 217.61 180.103 217.749 180.357C217.888 180.611 217.973 180.891 218 181.18Z" fill="white"/>
<path d="M220.64 158.58C220.667 158.867 220.637 159.157 220.551 159.432C220.464 159.707 220.324 159.962 220.138 160.182C219.951 160.402 219.723 160.582 219.465 160.713C219.208 160.843 218.928 160.92 218.64 160.94C218.222 160.965 217.805 160.867 217.442 160.657C217.079 160.448 216.785 160.136 216.598 159.762C216.41 159.387 216.337 158.965 216.387 158.549C216.437 158.133 216.608 157.74 216.879 157.421C217.15 157.101 217.509 156.868 217.911 156.75C218.314 156.632 218.742 156.636 219.142 156.759C219.543 156.883 219.898 157.121 220.165 157.445C220.431 157.769 220.596 158.163 220.64 158.58Z" fill="white"/>
<path d="M237.28 149.1C237.338 149.665 237.17 150.23 236.812 150.671C236.454 151.112 235.935 151.392 235.37 151.45C234.805 151.509 234.24 151.34 233.799 150.982C233.359 150.624 233.078 150.105 233.02 149.54C232.987 149.26 233.01 148.976 233.088 148.705C233.166 148.434 233.297 148.181 233.474 147.961C233.651 147.741 233.87 147.559 234.118 147.425C234.367 147.291 234.639 147.208 234.92 147.18C235.487 147.124 236.053 147.295 236.495 147.654C236.937 148.014 237.219 148.534 237.28 149.1Z" fill="white"/>
<path d="M154.38 224.14C150.71 221.978 147.524 219.085 145.02 215.64C144.098 211.086 144.098 206.394 145.02 201.84C145.06 201.765 145.121 201.704 145.196 201.665C145.271 201.626 145.356 201.61 145.44 201.62C150.524 202.3 155.676 202.3 160.76 201.62C160.807 201.615 160.855 201.618 160.901 201.632C160.947 201.645 160.99 201.667 161.027 201.697C161.064 201.726 161.095 201.763 161.118 201.805C161.141 201.847 161.155 201.893 161.16 201.94C161.7 207 162.16 209.68 162.54 214.4C162.54 215.08 159.98 216.16 155.02 224.14C154.996 224.206 154.953 224.263 154.896 224.303C154.838 224.344 154.77 224.365 154.7 224.365C154.63 224.365 154.562 224.344 154.504 224.303C154.447 224.263 154.404 224.206 154.38 224.14ZM145.66 215.26C148.032 218.478 151.016 221.197 154.44 223.26C156.453 219.939 158.864 216.876 161.62 214.14C161.26 209.56 160.82 206.92 160.32 202.14C155.388 202.79 150.392 202.79 145.46 202.14C144.731 206.489 144.799 210.935 145.66 215.26Z" fill="white"/>
<path d="M375.3 95.4203C375.199 95.4203 375.103 95.3803 375.031 95.309C374.96 95.2377 374.92 95.1411 374.92 95.0403C375.09 92.1025 374.644 89.1617 373.61 86.4064C372.577 83.6511 370.98 81.1421 368.92 79.0403C368.851 78.9713 368.812 78.8778 368.812 78.7803C368.812 78.6828 368.851 78.5892 368.92 78.5203C368.989 78.4513 369.082 78.4126 369.18 78.4126C369.277 78.4126 369.371 78.4513 369.44 78.5203C371.582 80.6746 373.248 83.2547 374.33 86.0935C375.411 88.9324 375.885 91.9668 375.72 95.0003C375.723 95.0562 375.714 95.1121 375.694 95.1644C375.674 95.2166 375.643 95.2641 375.603 95.3037C375.564 95.3432 375.516 95.3741 375.464 95.3942C375.412 95.4143 375.356 95.4232 375.3 95.4203Z" fill="white"/>
<path d="M321.76 196.72C321.91 198.153 322.482 199.508 323.403 200.616C324.324 201.723 325.552 202.533 326.933 202.942C328.314 203.351 329.786 203.341 331.161 202.913C332.536 202.486 333.754 201.66 334.66 200.54C335.27 199.802 335.726 198.95 336.001 198.032C336.276 197.115 336.364 196.152 336.26 195.2L335.16 184.82C335.06 183.868 334.774 182.945 334.317 182.104C333.861 181.262 333.243 180.519 332.499 179.916C331.755 179.314 330.9 178.863 329.982 178.591C329.064 178.319 328.102 178.23 327.15 178.33C326.198 178.43 325.275 178.716 324.433 179.173C323.592 179.63 322.849 180.247 322.246 180.991C321.029 182.493 320.458 184.417 320.66 186.34L321.76 196.72ZM327.22 179.08C328.075 178.986 328.941 179.062 329.767 179.304C330.593 179.546 331.363 179.949 332.032 180.491C332.702 181.032 333.257 181.7 333.667 182.457C334.077 183.213 334.333 184.044 334.42 184.9L335.5 195.28C335.624 196.151 335.571 197.037 335.345 197.887C335.118 198.737 334.722 199.532 334.182 200.225C333.641 200.918 332.966 201.496 332.196 201.922C331.427 202.348 330.58 202.615 329.706 202.707C328.831 202.798 327.947 202.712 327.107 202.454C326.266 202.196 325.486 201.772 324.813 201.205C324.141 200.639 323.589 199.943 323.192 199.158C322.794 198.374 322.559 197.518 322.5 196.64L321.4 186.26C321.226 184.538 321.741 182.816 322.831 181.471C323.921 180.126 325.499 179.267 327.22 179.08Z" fill="white"/>
<path d="M341.42 195.12L340.88 190C340.858 189.905 340.804 189.82 340.728 189.758C340.652 189.697 340.558 189.662 340.46 189.66C340.41 189.665 340.361 189.68 340.317 189.704C340.273 189.728 340.234 189.76 340.202 189.799C340.171 189.838 340.147 189.883 340.133 189.931C340.119 189.98 340.114 190.03 340.12 190.08L340.66 195.22C340.874 196.771 340.774 198.349 340.365 199.86C339.957 201.372 339.249 202.786 338.284 204.018C337.318 205.25 336.115 206.276 334.745 207.034C333.375 207.792 331.867 208.267 330.31 208.431C328.753 208.594 327.179 208.443 325.682 207.987C324.184 207.53 322.794 206.777 321.593 205.772C320.393 204.767 319.406 203.531 318.693 202.138C317.979 200.744 317.553 199.222 317.44 197.66L316.9 192.52C316.9 192.419 316.86 192.323 316.789 192.251C316.717 192.18 316.621 192.14 316.52 192.14C316.419 192.14 316.323 192.18 316.251 192.251C316.18 192.323 316.14 192.419 316.14 192.52L316.68 197.66C317.024 200.874 318.604 203.829 321.085 205.9C323.567 207.971 326.756 208.996 329.98 208.76L330.9 217.58L326.16 218.06C326.059 218.06 325.963 218.1 325.891 218.171C325.82 218.243 325.78 218.339 325.78 218.44C325.78 218.541 325.82 218.638 325.891 218.709C325.963 218.78 326.059 218.82 326.16 218.82L336.42 217.74C336.476 217.753 336.534 217.753 336.59 217.741C336.646 217.728 336.698 217.703 336.743 217.668C336.788 217.632 336.824 217.587 336.849 217.536C336.874 217.484 336.887 217.427 336.887 217.37C336.887 217.313 336.874 217.256 336.849 217.205C336.824 217.153 336.788 217.108 336.743 217.072C336.698 217.037 336.646 217.012 336.59 216.999C336.534 216.987 336.476 216.987 336.42 217L331.7 217.5L330.76 208.68C333.943 208.231 336.829 206.57 338.816 204.043C340.802 201.516 341.735 198.319 341.42 195.12Z" fill="white"/>
<path d="M259.44 253.42L257.22 227.42C257.215 227.353 257.192 227.288 257.154 227.233C257.115 227.178 257.063 227.133 257.002 227.105C256.941 227.076 256.873 227.065 256.806 227.071C256.739 227.077 256.675 227.101 256.62 227.14L246 234.52C245.459 232.105 244.064 229.967 242.073 228.497C240.082 227.027 237.627 226.325 235.16 226.52C234.82 226.52 211.72 228.52 211.46 228.52C208.76 228.749 206.262 230.041 204.515 232.111C202.767 234.181 201.913 236.86 202.14 239.56L203.08 250.62C203.314 253.321 204.61 255.82 206.683 257.567C208.757 259.314 211.438 260.167 214.14 259.94L237.84 257.94C240.305 257.721 242.608 256.619 244.324 254.837C246.04 253.054 247.055 250.712 247.18 248.24L258.92 253.74C258.975 253.767 259.035 253.78 259.096 253.777C259.157 253.775 259.217 253.756 259.269 253.724C259.321 253.692 259.364 253.648 259.394 253.594C259.424 253.541 259.44 253.481 259.44 253.42ZM237.76 257.22C237.56 257.22 214.3 259.22 214.06 259.22C212.822 259.327 211.574 259.189 210.389 258.814C209.204 258.438 208.104 257.833 207.153 257.032C206.202 256.232 205.419 255.252 204.847 254.148C204.275 253.044 203.926 251.839 203.82 250.6L202.88 239.54C202.773 238.302 202.911 237.054 203.287 235.869C203.662 234.684 204.267 233.585 205.068 232.634C205.868 231.683 206.848 230.899 207.952 230.327C209.056 229.755 210.261 229.406 211.5 229.3L235.2 227.3C237.701 227.1 240.18 227.896 242.097 229.514C244.015 231.132 245.216 233.441 245.44 235.94L246.38 246.98C246.585 249.479 245.794 251.958 244.18 253.876C242.565 255.794 240.257 256.996 237.76 257.22ZM247.16 247.46C247.16 247.24 246.16 235.46 246.12 235.34L256.52 228.08L258.64 252.84L247.16 247.46Z" fill="white"/>
<path d="M34.8 175C34.6993 175 34.6026 174.96 34.5313 174.889C34.4601 174.818 34.42 174.721 34.42 174.62C34.42 174.52 34.4601 174.423 34.5313 174.352C34.6026 174.28 34.6993 174.24 34.8 174.24L42.7 173.44C42.8008 173.44 42.8975 173.48 42.9687 173.552C43.04 173.623 43.08 173.72 43.08 173.82C43.08 173.921 43.04 174.018 42.9687 174.089C42.8975 174.16 42.8008 174.2 42.7 174.2L34.8 175Z" fill="white"/>
<path d="M56.76 172.76C56.6592 172.76 56.5626 172.72 56.4913 172.649C56.42 172.578 56.38 172.481 56.38 172.38C56.38 172.279 56.42 172.183 56.4913 172.111C56.5626 172.04 56.6592 172 56.76 172L64.76 171.2C64.8608 171.2 64.9574 171.24 65.0287 171.311C65.1 171.383 65.14 171.479 65.14 171.58C65.14 171.681 65.1 171.778 65.0287 171.849C64.9574 171.92 64.8608 171.96 64.76 171.96L56.76 172.76Z" fill="white"/>
<path d="M48.64 166.12L47.84 158.12C47.8269 158.065 47.8266 158.007 47.8391 157.951C47.8516 157.895 47.8766 157.843 47.9122 157.798C47.9478 157.753 47.993 157.717 48.0446 157.692C48.0962 157.667 48.1527 157.654 48.21 157.654C48.2672 157.654 48.3237 157.667 48.3753 157.692C48.4269 157.717 48.4721 157.753 48.5077 157.798C48.5433 157.843 48.5683 157.895 48.5808 157.951C48.5933 158.007 48.593 158.065 48.58 158.12L49.4 166.12C49.4 166.221 49.3599 166.318 49.2887 166.389C49.2174 166.46 49.1207 166.5 49.02 166.5C48.9192 166.5 48.8225 166.46 48.7513 166.389C48.68 166.318 48.64 166.221 48.64 166.12Z" fill="white"/>
<path d="M50.88 188L50.08 180C50.0995 179.917 50.1467 179.843 50.2138 179.789C50.281 179.736 50.3642 179.707 50.45 179.707C50.5357 179.707 50.6189 179.736 50.6861 179.789C50.7532 179.843 50.8004 179.917 50.82 180L51.64 188C51.64 188.101 51.5999 188.198 51.5287 188.269C51.4574 188.34 51.3607 188.38 51.26 188.38C51.1592 188.38 51.0625 188.34 50.9913 188.269C50.92 188.198 50.88 188.101 50.88 188Z" fill="white"/>
<path d="M44.2599 169.02C44.0599 169.02 44.4799 169.32 37.8599 163.9C37.4599 163.58 37.9599 163 38.3199 163.32L44.4999 168.34C44.5629 168.389 44.6089 168.457 44.6314 168.533C44.6539 168.61 44.6517 168.692 44.6251 168.767C44.5985 168.842 44.549 168.907 44.4834 168.953C44.4179 168.998 44.3397 169.022 44.2599 169.02Z" fill="white"/>
<path d="M61.38 182.96C61.18 182.96 61.58 183.24 54.98 177.86C54.9283 177.836 54.8827 177.8 54.8468 177.755C54.8109 177.711 54.7855 177.659 54.7725 177.603C54.7595 177.547 54.7593 177.489 54.7718 177.434C54.7843 177.378 54.8093 177.325 54.8448 177.281C54.8804 177.236 54.9256 177.2 54.9771 177.175C55.0286 177.15 55.0851 177.137 55.1423 177.137C55.1995 177.137 55.256 177.15 55.3075 177.174C55.3591 177.199 55.4044 177.235 55.44 177.28L61.62 182.3C61.6754 182.351 61.7146 182.417 61.7325 182.49C61.7504 182.563 61.7463 182.64 61.7206 182.71C61.6949 182.781 61.6488 182.843 61.5882 182.887C61.5275 182.931 61.4551 182.957 61.38 182.96Z" fill="white"/>
<path d="M54.2 168C54.1277 168.001 54.0566 167.982 53.995 167.944C53.9335 167.906 53.884 167.851 53.8525 167.786C53.821 167.721 53.8087 167.648 53.8172 167.576C53.8256 167.504 53.8543 167.436 53.9 167.38L58.94 161.22C59.24 160.82 59.82 161.22 59.52 161.7C54 168.38 54.44 168 54.2 168Z" fill="white"/>
<path d="M40.24 185.12C40.1694 185.118 40.1009 185.095 40.0423 185.056C39.9836 185.016 39.9372 184.961 39.9081 184.897C39.879 184.832 39.8684 184.761 39.8776 184.691C39.8868 184.621 39.9153 184.555 39.96 184.5L44.98 178.34C45.0086 178.294 45.0467 178.255 45.0918 178.224C45.1369 178.194 45.188 178.174 45.2416 178.165C45.2952 178.156 45.35 178.159 45.4024 178.173C45.4548 178.188 45.5036 178.213 45.5454 178.247C45.5872 178.282 45.6211 178.325 45.6449 178.374C45.6686 178.423 45.6816 178.476 45.683 178.53C45.6844 178.585 45.6741 178.639 45.6529 178.689C45.6317 178.739 45.6 178.783 45.56 178.82C40.1 185.5 40.5 185.12 40.24 185.12Z" fill="white"/>
<path d="M123.88 78.1403C122.973 77.117 122.499 75.7818 122.556 74.4157C122.614 73.0496 123.199 71.7591 124.189 70.8159C125.179 69.8727 126.496 69.3502 127.864 69.3585C129.231 69.3668 130.542 69.9051 131.52 70.8603C132.028 71.3559 132.43 71.9487 132.704 72.6033C132.977 73.2579 133.116 73.9609 133.112 74.6704C133.107 75.3798 132.96 76.0811 132.679 76.7323C132.397 77.3836 131.988 77.9715 131.474 78.4609C130.96 78.9503 130.353 79.3312 129.689 79.5808C129.025 79.8304 128.318 79.9436 127.609 79.9137C126.9 79.8838 126.205 79.7113 125.564 79.4066C124.923 79.1019 124.351 78.6712 123.88 78.1403ZM124.58 71.2403C124.142 71.6479 123.79 72.1384 123.543 72.6833C123.296 73.2283 123.159 73.8168 123.142 74.4148C123.124 75.0128 123.225 75.6084 123.439 76.167C123.654 76.7256 123.977 77.2361 124.389 77.669C124.802 78.1018 125.297 78.4483 125.845 78.6885C126.393 78.9287 126.983 79.0577 127.582 79.068C128.18 79.0784 128.774 78.9699 129.33 78.7488C129.886 78.5278 130.392 78.1986 130.82 77.7803C131.258 77.3727 131.611 76.8822 131.857 76.3372C132.104 75.7923 132.241 75.2037 132.258 74.6057C132.276 74.0078 132.175 73.4122 131.961 72.8536C131.747 72.295 131.424 71.7845 131.011 71.3516C130.598 70.9188 130.103 70.5722 129.555 70.332C129.007 70.0919 128.417 69.9629 127.819 69.9525C127.22 69.9422 126.626 70.0507 126.07 70.2717C125.514 70.4928 125.008 70.822 124.58 71.2403Z" fill="white"/>
<path d="M345.2 22.4402L335.2 23.2602L334.36 13.2602C334.34 13.1767 334.293 13.1023 334.226 13.049C334.159 12.9958 334.076 12.9668 333.99 12.9668C333.904 12.9668 333.821 12.9958 333.754 13.049C333.687 13.1023 333.64 13.1767 333.62 13.2602L334.46 23.2602L324.46 24.0802C324.359 24.0802 324.263 24.1202 324.191 24.1915C324.12 24.2628 324.08 24.3594 324.08 24.4602C324.08 24.561 324.12 24.6576 324.191 24.7289C324.263 24.8002 324.359 24.8402 324.46 24.8402L334.46 24.0002L335.28 34.0002C335.28 34.101 335.32 34.1976 335.391 34.2689C335.463 34.3402 335.559 34.3802 335.66 34.3802C335.761 34.3802 335.857 34.3402 335.929 34.2689C336 34.1976 336.04 34.101 336.04 34.0002L335.2 24.0002L345.2 23.1602C345.257 23.1795 345.318 23.1849 345.378 23.176C345.437 23.1671 345.494 23.1441 345.543 23.1089C345.592 23.0737 345.632 23.0274 345.66 22.9737C345.687 22.92 345.702 22.8605 345.702 22.8002C345.702 22.7398 345.687 22.6804 345.66 22.6267C345.632 22.573 345.592 22.5266 345.543 22.4915C345.494 22.4563 345.437 22.4333 345.378 22.4244C345.318 22.4154 345.257 22.4209 345.2 22.4402Z" fill="white"/>
<path d="M260.44 117.22C259.9 116.44 258.22 116.74 255.54 118.08C255.04 118.34 253.06 119.34 251.36 120.26C252.42 119.02 253.48 117.82 254.5 116.78C257.38 113.88 258.5 111.98 257.86 111.16C257.62 110.86 256.92 109.98 251.76 113C246.176 116.799 241.025 121.198 236.4 126.12C233 129.7 234.28 119.74 233.92 117.46C233.56 115.18 233.26 113.82 232.4 113.76C231.54 113.7 230.9 114.62 229.54 119.2C228.88 121.38 226.24 128.1 220.98 141.02C219.984 141.037 218.989 141.104 218 141.22C217.24 141.22 218.28 142.46 209.24 162.94L207.74 166.4C188.86 134.2 185.16 130.98 160.76 129.54C160.218 129.469 159.708 129.243 159.293 128.887C158.878 128.532 158.574 128.064 158.42 127.54C159.58 127.7 164.58 127.4 165.66 125.84C166.74 124.28 167.04 121.52 165.36 113.64C165.892 113.438 166.361 113.1 166.721 112.66C167.081 112.219 167.318 111.691 167.41 111.13C167.501 110.568 167.443 109.993 167.241 109.461C167.039 108.929 166.701 108.46 166.26 108.1C166.838 107.823 167.322 107.383 167.651 106.832C167.98 106.282 168.14 105.647 168.11 105.007C168.08 104.367 167.862 103.75 167.483 103.233C167.104 102.716 166.581 102.322 165.98 102.1C166.361 101.641 166.607 101.085 166.692 100.494C166.777 99.9034 166.697 99.3007 166.461 98.7526C166.226 98.2044 165.843 97.732 165.356 97.3874C164.868 97.0429 164.295 96.8396 163.7 96.8001C163.885 96.2381 163.913 95.6361 163.78 95.0594C163.648 94.4828 163.36 93.9535 162.947 93.5289C162.535 93.1044 162.015 92.8008 161.442 92.6512C160.87 92.5015 160.267 92.5115 159.7 92.6801C159.692 92.0693 159.512 91.4731 159.18 90.9603C158.848 90.4475 158.378 90.039 157.824 89.7818C157.27 89.5246 156.655 89.4293 156.049 89.5069C155.443 89.5844 154.871 89.8316 154.4 90.2201C154.177 89.6363 153.796 89.126 153.3 88.7457C152.804 88.3653 152.212 88.13 151.591 88.0658C150.969 88.0015 150.342 88.1109 149.778 88.3818C149.215 88.6526 148.738 89.0743 148.4 89.6001C148.016 89.1267 147.507 88.7712 146.93 88.5743C146.353 88.3775 145.733 88.3473 145.139 88.4872C144.546 88.6272 144.005 88.9315 143.577 89.3654C143.149 89.7993 142.852 90.3451 142.72 90.9401C142.191 90.6518 141.592 90.5177 140.991 90.5528C140.39 90.588 139.811 90.791 139.319 91.1389C138.827 91.4867 138.443 91.9655 138.21 92.5207C137.977 93.076 137.904 93.6855 138 94.2801C137.409 94.1963 136.806 94.2775 136.258 94.5147C135.711 94.7518 135.239 95.1357 134.895 95.624C134.552 96.1123 134.35 96.6859 134.312 97.2817C134.274 97.8774 134.401 98.4721 134.68 99.0001C134.072 99.1161 133.509 99.4031 133.058 99.8275C132.606 100.252 132.285 100.796 132.132 101.396C131.979 101.996 132 102.628 132.193 103.216C132.385 103.805 132.742 104.327 133.22 104.72C132.671 105.007 132.216 105.446 131.908 105.984C131.601 106.522 131.454 107.137 131.486 107.756C131.517 108.375 131.726 108.972 132.086 109.476C132.447 109.98 132.944 110.37 133.52 110.6C133.143 111.062 132.902 111.62 132.822 112.211C132.742 112.802 132.826 113.403 133.066 113.949C133.306 114.495 133.692 114.964 134.181 115.305C134.671 115.646 135.245 115.845 135.84 115.88C135.66 116.441 135.636 117.04 135.77 117.614C135.905 118.187 136.194 118.713 136.605 119.135C137.017 119.556 137.535 119.858 138.105 120.007C138.675 120.156 139.275 120.147 139.84 119.98C139.851 120.589 140.034 121.183 140.367 121.693C140.701 122.202 141.171 122.608 141.724 122.863C142.278 123.118 142.892 123.211 143.496 123.133C144.1 123.055 144.67 122.807 145.14 122.42C145.363 123.128 145.828 123.736 146.452 124.138C147.077 124.54 147.823 124.711 148.56 124.62C143.68 130.42 139.86 130.16 130.32 134.4C127.33 135.75 124.714 137.81 122.7 140.4C122.38 136.92 122.22 134.06 122.24 132.4C122.24 128.04 121.84 127.04 121.18 126.9C120.52 126.76 119.72 127.94 118.84 129.72C117.96 131.5 116.34 140.38 114.5 136.62C111.806 131.092 108.505 125.88 104.66 121.08C101.38 117.48 100.34 117.5 99.84 117.86C98.4 118.88 101.22 123.32 102.94 127.32C101.7 126.06 100.26 124.68 100.04 124.46C98.04 122.46 96.68 121.86 96.04 122.46C95.8855 122.598 95.7863 122.788 95.7605 122.994C95.7348 123.2 95.7843 123.408 95.9 123.58C97 125.58 98.96 128.46 100.3 130.72C99.24 129.98 96.74 128.32 95.88 129.26C95.7447 129.419 95.6704 129.621 95.6704 129.83C95.6704 130.039 95.7447 130.241 95.88 130.4C100.08 135.68 102.98 137.1 107.44 146.4C107.62 147.52 107.78 150.4 107.92 153.04C106.4 153.42 105.32 153.74 105.2 153.78C105.119 153.81 105.051 153.865 105.004 153.937C104.957 154.009 104.935 154.094 104.94 154.18C106.36 171.42 109.26 183.2 114.08 191.22C115.394 193.574 117.536 195.355 120.089 196.22C122.643 197.085 125.426 196.971 127.9 195.9C122.215 200.289 117.865 206.176 115.34 212.9C110.84 225.06 95.76 239.92 93.98 241.64C71.98 220.96 70.54 219.52 70.32 219.38C69.8027 218.935 69.1801 218.63 68.5115 218.493C67.8428 218.357 67.1504 218.393 66.5 218.6L56.5 206.4C49.06 195.82 3.59998 233.54 10.5 243.06C11.191 243.823 12.0428 244.424 12.9939 244.818C13.945 245.212 14.9717 245.39 16 245.34C21.12 245.34 28.14 241.9 34.62 240.08C38.4 239.04 42.14 237.78 45.64 238.92C45.4659 239.512 45.4461 240.139 45.5827 240.741C45.7192 241.344 46.0074 241.901 46.42 242.36C46.6 242.56 46.42 242.36 86.04 276.62C88.8635 279.053 92.4906 280.349 96.2164 280.256C99.9422 280.164 103.501 278.69 106.2 276.12C115.54 267.88 137.08 248.82 145.48 241.38C145.82 241.82 146.16 242.26 146.52 242.66C151.93 249.071 154.779 257.255 154.52 265.64L137.16 315.38C137.16 315.64 137.16 315.78 137.4 315.9C138.36 316.5 139.4 317.08 140.28 317.64C136.6 326.32 132.46 335.64 131.36 338.14C130.26 340.64 131.04 344.62 131.7 347.2C134.652 357.297 139.394 366.781 145.7 375.2C150.2 381.58 158.4 391.58 162.16 384.76C164.94 379.72 162.7 368.76 159.76 361.6C153 344.96 161.56 332.18 163.4 325.86C164.6 326.06 165.82 326.22 167.06 326.36C167.186 326.377 167.314 326.351 167.423 326.285C167.532 326.22 167.616 326.119 167.66 326C168.68 323.16 185.3 276.4 185.36 276.22C187.328 269.889 188.161 263.261 187.82 256.64C187.4 232 186.58 215.2 179.2 190C181.2 186 180.72 173.16 180.54 169.04C186.526 177.304 193.218 185.033 200.54 192.14C202.258 193.791 204.343 195.01 206.624 195.696C208.905 196.383 211.317 196.518 213.661 196.091C216.004 195.663 218.213 194.685 220.104 193.236C221.996 191.788 223.516 189.911 224.54 187.76C229.96 176.32 237.16 158.82 239.62 147.18C239.634 147.105 239.627 147.028 239.598 146.957C239.57 146.886 239.522 146.825 239.46 146.78L237.9 145.8C239.16 142.36 240.08 139.92 240.62 138.84C248.28 130.48 252.14 129.68 258.08 125.62C258.266 125.504 258.407 125.327 258.476 125.119C258.545 124.91 258.54 124.685 258.46 124.48C257.84 123.22 254.46 124.22 253.18 124.64C255.18 122.8 258.48 120.16 260.3 118.42C260.468 118.273 260.575 118.069 260.601 117.847C260.627 117.625 260.57 117.402 260.44 117.22ZM147.68 126.66C148.9 125.44 155.4 117.28 156.46 115.92C156.512 115.851 156.54 115.767 156.54 115.68C156.54 115.594 156.512 115.509 156.46 115.44C152.82 111.44 155.46 108.78 157.34 111.44C158.62 113.24 160.88 112.94 159.88 107.74C160.901 107.294 161.885 106.766 162.82 106.16C165.96 118.44 166.28 122.84 165.38 124.86C164.48 126.88 158.84 123.28 156.84 121.82C156.781 121.768 156.706 121.737 156.628 121.732C156.55 121.727 156.472 121.747 156.406 121.79C156.34 121.833 156.29 121.896 156.264 121.971C156.238 122.045 156.236 122.125 156.26 122.2C156.9 125.24 157.44 129.48 160.06 130.2C148.72 135.64 142.9 131.98 141.46 130.82C143.793 129.867 145.908 128.452 147.68 126.66ZM103.14 137.54C101.26 135.04 96.38 130.02 96.32 129.54C96.42 129.54 97.3 129.4 99.68 131.02C100.576 131.686 101.325 132.531 101.88 133.5C103.1 136 104.86 139.2 106 142.1C105.137 140.525 104.182 139.003 103.14 137.54ZM102.54 133.18C101.467 131.068 100.265 129.024 98.94 127.06C98.0207 125.702 97.1794 124.293 96.42 122.84C96.42 122.84 97.4 122.84 99.48 124.84C99.78 125.14 102.48 127.72 103.7 129.06C105.477 133.398 106.609 137.974 107.06 142.64C105.73 139.405 104.221 136.247 102.54 133.18ZM101.86 123.18C99.86 119.54 100.1 118.44 100.24 118.36C100.38 118.28 100.98 118 104 121.44C108.768 127.407 112.691 134.003 115.66 141.04C115.672 141.096 115.695 141.148 115.73 141.193C115.764 141.238 115.808 141.275 115.858 141.301C115.909 141.327 115.964 141.341 116.021 141.343C116.077 141.344 116.134 141.333 116.185 141.31C116.237 141.287 116.283 141.253 116.32 141.21C116.357 141.167 116.384 141.117 116.399 141.062C116.414 141.007 116.416 140.95 116.406 140.894C116.396 140.839 116.373 140.786 116.34 140.74C115.98 139.86 115.58 138.98 115.18 138.1C117.52 138.44 118.56 131.64 119.42 129.88C119.7 129.32 120.58 127.54 120.9 127.46C121.22 127.38 121.42 128.02 121.38 132.24C121.38 134.24 121.56 137.34 121.92 141.22C119.697 144.434 118.096 148.036 117.2 151.84C114.278 151.647 111.344 151.944 108.52 152.72C108 141.48 107.42 134 101.86 123.14V123.18ZM123.86 200.42C125.504 200.433 127.124 200.816 128.6 201.54C125.44 203.74 122.5 210.54 122.06 211.54L115.22 214.78C117.049 209.419 120.002 204.509 123.88 200.38L123.86 200.42ZM46.26 238.42C42.44 237.04 38.66 238.28 34.46 239.46C27.58 241.46 20.18 245.1 15.14 244.62C27.42 243.18 57.14 217.94 56.98 208.3C58.14 209.74 67.48 221.02 70.1 224.3C67.88 230.92 58.44 240.44 51.68 242.3C50.2291 240.555 48.3759 239.19 46.28 238.32L46.26 238.42ZM48.7 243.4C57.16 244.3 72.3 227.76 71.28 221.4L79.54 229.18C75.36 240.96 68.38 248.32 58.2 251.66L48.7 243.4ZM105.74 275.68C103.815 277.485 101.438 278.735 98.86 279.3C96.6973 279.736 94.463 279.665 92.3324 279.092C90.2018 278.52 88.2328 277.461 86.58 276L58.88 252C63.4966 250.463 67.6934 247.875 71.14 244.44L87.94 259.14C90.6805 261.546 94.203 262.873 97.85 262.873C101.497 262.873 105.019 261.546 107.76 259.14L139.42 231.14L139.82 245.46L105.74 275.68ZM155.28 265.28C155.418 256.875 152.521 248.702 147.12 242.26C141.721 235.729 138.35 227.762 137.42 219.34C137.433 219.284 137.433 219.226 137.421 219.17C137.408 219.115 137.383 219.062 137.348 219.017C137.312 218.972 137.267 218.936 137.215 218.911C137.164 218.886 137.107 218.873 137.05 218.873C136.993 218.873 136.936 218.886 136.885 218.911C136.833 218.936 136.788 218.972 136.752 219.017C136.717 219.062 136.692 219.115 136.679 219.17C136.667 219.226 136.667 219.284 136.68 219.34C136.986 223.093 137.87 226.777 139.3 230.26L107.3 258.68C104.695 260.967 101.347 262.228 97.88 262.228C94.4135 262.228 91.0653 260.967 88.46 258.68L71.66 244C75.467 239.846 78.3624 234.941 80.16 229.6L99.64 248C99.98 248.34 100.5 247.78 100.14 247.44L94.44 242C96.22 240.28 109.18 227.46 114.74 215.88C122.86 212.04 122.74 212.2 122.74 212C122.74 211.8 126.26 203.42 129.58 201.78C129.638 201.747 129.687 201.699 129.72 201.641C129.754 201.583 129.772 201.517 129.772 201.45C129.772 201.383 129.754 201.317 129.72 201.259C129.687 201.201 129.638 201.153 129.58 201.12C128.043 200.29 126.358 199.774 124.62 199.6C127.227 197.007 130.142 194.744 133.3 192.86C133.58 192.68 133.56 192.6 133.56 192.3C144.1 195.46 159.68 194.3 170.48 192.3C175.18 210.74 177.12 230.86 178.72 257.28C179.078 262.939 178.352 268.614 176.58 274C175.1 278.56 170.58 292.76 164.72 311.48C156.762 309.917 149.249 306.612 142.72 301.8C156 263.88 155.26 266 155.3 265.18L155.28 265.28ZM159.1 361.98C162.2 369.56 163.74 378.8 161.94 383.58C162.76 372.04 140.1 333.42 132.78 336.86C134.44 333.12 137.84 325.38 140.92 318.12C147.684 321.907 155.042 324.518 162.68 325.84C160.9 331.78 152.32 345.18 159.12 361.88L159.1 361.98ZM167.1 325.7C156.735 324.531 146.779 320.993 138 315.36L142.48 302.54C150.924 308.851 161.069 312.481 171.6 312.96L167.1 325.7ZM187.1 256.76C187.425 263.264 186.613 269.775 184.7 276C184.28 277.22 176.92 298 171.8 312.3C169.669 312.241 167.544 312.04 165.44 311.7C168.4 302.36 176.08 277.98 177.24 274.38C179.058 268.88 179.805 263.082 179.44 257.3C177.82 230.84 175.88 210.7 171.18 192.2C173.64 191.72 176.1 191.16 178.5 190.52C185.84 215.42 186.66 232.16 187.14 256.66L187.1 256.76ZM238.72 147.36C236.22 158.94 229.12 176.2 223.76 187.52C222.792 189.574 221.347 191.366 219.546 192.749C217.745 194.131 215.64 195.064 213.406 195.469C211.172 195.874 208.873 195.74 206.701 195.077C204.53 194.415 202.548 193.243 200.92 191.66C191.099 182.045 182.378 171.365 174.92 159.82C174.869 159.75 174.795 159.699 174.711 159.676C174.627 159.653 174.538 159.66 174.459 159.695C174.379 159.73 174.314 159.791 174.274 159.869C174.234 159.946 174.222 160.035 174.24 160.12L180 177.52C180 182.26 179.64 187.42 178.62 189.64C162.42 194 144 194.76 133.58 191.52C133.58 179.08 127.42 153.94 127.36 153.68C127.358 153.623 127.344 153.567 127.318 153.517C127.292 153.466 127.255 153.422 127.21 153.388C127.164 153.354 127.112 153.33 127.056 153.318C127.001 153.307 126.943 153.308 126.888 153.322C126.833 153.336 126.781 153.362 126.738 153.398C126.694 153.434 126.659 153.48 126.635 153.532C126.611 153.583 126.599 153.64 126.6 153.696C126.601 153.753 126.615 153.809 126.64 153.86C126.64 154.1 132.64 178.12 132.82 190.7C128.14 197.44 118.82 197.76 114.66 190.7C109.92 182.82 107.06 171.24 105.66 154.28C107.08 153.84 113.66 152.06 117.08 152.6C115.286 161.716 115.171 171.083 116.74 180.24C116.749 180.287 116.768 180.332 116.794 180.372C116.821 180.413 116.855 180.447 116.895 180.474C116.935 180.501 116.98 180.52 117.027 180.529C117.074 180.539 117.123 180.539 117.17 180.53C117.217 180.521 117.262 180.502 117.302 180.476C117.343 180.449 117.377 180.415 117.404 180.375C117.431 180.335 117.45 180.29 117.459 180.243C117.469 180.196 117.469 180.147 117.46 180.1C117.46 179.74 110.78 143.92 130.62 135.1C135.24 133.1 137.62 132.36 140.62 131.1C142.907 133.035 145.848 134.023 148.84 133.86C153.242 133.695 157.541 132.481 161.38 130.32C186.02 131.84 188.88 135.56 210.16 172.08C210.21 172.168 210.293 172.231 210.391 172.258C210.489 172.284 210.592 172.27 210.68 172.22C210.768 172.17 210.831 172.087 210.858 171.989C210.884 171.892 210.87 171.788 210.82 171.7C209.9 170.16 209.04 168.66 208.18 167.22C209.34 164.18 214.92 152.66 218.18 141.92C225.459 141.161 232.768 143.058 238.76 147.26L238.72 147.36ZM237.14 145.48C232.479 142.698 227.167 141.194 221.74 141.12C227.02 128.2 229.56 121.72 230.22 119.52C231.58 114.98 232.22 114.62 232.22 114.6C232.22 114.58 232.94 116.96 233.06 117.68C233.4 119.86 232.24 127.48 234.88 127.68C234.16 128.48 233.44 129.32 232.74 130.16C232.692 130.238 232.673 130.331 232.688 130.422C232.703 130.512 232.75 130.594 232.821 130.653C232.892 130.711 232.981 130.742 233.073 130.74C233.165 130.738 233.252 130.702 233.32 130.64C238.748 124.169 245.04 118.476 252.02 113.72C256.5 111.08 257.14 111.72 257.14 111.72C257.14 111.72 257 113.16 253.86 116.36C244.54 125.84 241.48 133.8 237.18 145.38L237.14 145.48ZM253.62 125.34C257.18 124.24 257.62 124.88 257.62 124.88C257.62 124.88 257.62 125 257.48 125.08C251.58 129.08 249.14 129.34 242.82 135.44C245.629 132.11 248.606 128.926 251.74 125.9L253.62 125.34ZM255.62 121.44C250.595 125.681 245.963 130.367 241.78 135.44C243.822 130.52 246.593 125.935 250 121.84C251.64 120.88 255.16 119.1 255.84 118.76C259.18 117.08 259.84 117.64 259.84 117.64C258.568 118.968 257.205 120.204 255.76 121.34L255.62 121.44Z" fill="white"/>
</svg>
