<svg width="400" height="400" viewBox="0 0 400 400" fill="none" xmlns="http://www.w3.org/2000/svg">
<path d="M99.5 210C110.82 204.16 122.7 197.5 133.9 190.74C133.984 190.7 134.08 190.693 134.169 190.719C134.258 190.745 134.335 190.803 134.384 190.882C134.434 190.961 134.452 191.055 134.437 191.147C134.421 191.239 134.373 191.322 134.3 191.38C123.08 198.14 111.18 204.82 99.86 210.66C99.7745 210.691 99.6805 210.691 99.5952 210.659C99.5099 210.627 99.4389 210.565 99.3953 210.485C99.3516 210.405 99.3382 210.312 99.3574 210.223C99.3767 210.134 99.4272 210.055 99.5 210Z" fill="white"/>
<path d="M168.46 124C156.652 111.255 140.867 102.896 123.689 100.293C106.511 97.6889 88.9584 100.995 73.9042 109.668C58.8501 118.342 47.1868 131.87 40.8239 148.037C34.4611 164.204 33.7757 182.052 38.88 198.66C-6.65997 235.68 2.00003 251.3 57.6 230C65.3452 237.925 74.727 244.064 85.0902 247.988C95.4533 251.912 106.548 253.527 117.6 252.72C117.656 252.733 117.714 252.733 117.77 252.721C117.826 252.708 117.878 252.683 117.923 252.648C117.968 252.612 118.004 252.567 118.029 252.515C118.054 252.464 118.067 252.407 118.067 252.35C118.067 252.293 118.054 252.236 118.029 252.185C118.004 252.133 117.968 252.088 117.923 252.052C117.878 252.017 117.826 251.992 117.77 251.979C117.714 251.967 117.656 251.967 117.6 251.98C106.717 252.765 95.7941 251.18 85.5838 247.333C75.3735 243.487 66.1194 237.47 58.46 229.7C63.78 227.7 69.46 225.28 75.42 222.6C75.4755 222.588 75.5277 222.565 75.5727 222.53C75.6178 222.496 75.6546 222.452 75.6806 222.402C75.7065 222.351 75.7208 222.296 75.7225 222.239C75.7242 222.183 75.7132 222.126 75.6903 222.074C75.6674 222.023 75.6333 221.977 75.5903 221.94C75.5474 221.903 75.4967 221.876 75.4421 221.861C75.3874 221.846 75.3301 221.844 75.2744 221.854C75.2187 221.864 75.1659 221.887 75.12 221.92C69.0534 224.587 63.3067 226.987 57.88 229.12C43.9953 215.014 36.2461 195.993 36.32 176.2C36.4106 157.938 43.0739 140.319 55.0907 126.568C67.1075 112.816 83.6742 103.851 101.759 101.314C119.844 98.7764 138.238 102.836 153.576 112.75C168.913 122.663 180.167 137.768 185.28 155.3C179.08 160.34 172 165.66 164.12 171.18C164.07 171.203 164.025 171.236 163.988 171.278C163.952 171.32 163.926 171.37 163.911 171.423C163.896 171.476 163.892 171.532 163.901 171.587C163.91 171.641 163.931 171.694 163.962 171.739C163.993 171.785 164.034 171.824 164.081 171.852C164.129 171.881 164.182 171.898 164.237 171.904C164.292 171.91 164.348 171.904 164.4 171.886C164.452 171.868 164.5 171.838 164.54 171.8C172.36 166.32 179.36 161.06 185.5 156.1C190.254 173.436 188.709 191.895 181.14 208.2C181.098 208.293 181.094 208.399 181.129 208.494C181.165 208.59 181.237 208.667 181.33 208.71C181.423 208.752 181.529 208.756 181.624 208.721C181.72 208.685 181.798 208.613 181.84 208.52C189.516 191.944 191.04 173.177 186.14 155.58C230.8 119.22 222.36 103.7 168.46 124ZM10.98 235.78C7.68003 230.06 18.18 216.48 39.12 199.44C42.6897 210.711 48.8551 220.986 57.12 229.44C31.76 239.02 14.36 241.6 10.98 235.78ZM186 154.78C182.7 143.571 176.886 133.263 169 124.64C221.58 104.86 229.64 119.06 186 154.78Z" fill="white"/>
<path d="M317.7 169.46L317.12 165.46C316.998 164.676 317.051 163.875 317.275 163.114C317.5 162.353 317.891 161.652 318.42 161.06C314.06 150.4 304.88 156.64 306.42 166.02C306.12 166.42 306.06 168.02 303.9 165.6C300.66 162 296.52 167.98 303.02 172.68C305.6 183 303.02 183.52 300.66 181.38C302.203 182.88 303.833 184.289 305.54 185.6C306.501 186.397 307.63 186.966 308.842 187.264C310.055 187.562 311.319 187.581 312.54 187.32C312.285 185.697 312.285 184.043 312.54 182.42C316.1 183.2 320.68 182.42 320.54 173.52C319.78 173.115 319.127 172.536 318.633 171.831C318.139 171.125 317.82 170.313 317.7 169.46V169.46Z" fill="#B2BEC3"/>
<path d="M380.7 114.44C383.76 103.8 381.66 95.0802 379.04 106.18C380.38 96.7602 378.76 92.3602 376.56 100.94C376.04 102.94 375.52 104.72 374.94 106.3C375.006 105.021 375.006 103.739 374.94 102.46C374.44 95.1002 372.7 95.6002 371.52 101.94C370.987 104.913 370.279 107.851 369.4 110.74C369.196 110.236 368.956 109.748 368.68 109.28C364.68 102.12 363.28 102.3 364.94 110.5C366.34 117.4 361.54 126.24 361.54 126.24C366.466 128.235 370.7 131.628 373.72 136C373.72 136 381.02 124.12 382.76 116C384.28 109.1 381.66 112.22 380.7 114.44Z" fill="#B2BEC3"/>
<path d="M248.98 111.48C248.3 110.218 248.015 108.78 248.161 107.354C248.307 105.928 248.878 104.578 249.8 103.48C253.04 99.6001 257.4 93.7801 255.96 92.2001C253.72 89.7801 246.64 98.0201 242.88 98.4801C241.54 98.6401 240.46 94.4801 240.24 93.0801C239.82 90.3601 238.42 81.2201 238.24 80.3001C237.1 71.9601 234.24 73.3801 234.24 80.7401C234.24 87.5401 234.24 92.0201 234.24 92.2601C232.94 88.1201 229.88 78.5201 229.64 77.7201C227.22 69.7201 224.66 71.5001 225.86 78.7401C227 85.6601 228.24 94.1001 228.24 94.1001C227.08 91.6401 225.22 87.4601 223.26 82.1001C220.36 74.2001 218.2 76.1001 219.56 83.4201C220.6 88.9201 221.9 94.3401 222.5 96.3401C220.982 93.9153 219.645 91.3817 218.5 88.7601C215.2 80.9601 213.16 83.1001 214.98 90.5001C216.32 95.8801 217.46 98.5001 220.16 108.14C221.42 112.6 225.7 124.66 229.42 130.34C236.38 130.72 248.7 123.5 251.68 117.22C251.76 117.02 249.12 111.72 248.98 111.48Z" fill="#B2BEC3"/>
<path d="M351 54.7999C347.913 54.9918 344.952 56.0948 342.491 57.9696C340.031 59.8443 338.181 62.4066 337.177 65.3323C336.173 68.2581 336.059 71.4159 336.849 74.4065C337.64 77.3971 339.299 80.0861 341.618 82.1335C343.937 84.1809 346.811 85.4948 349.876 85.909C352.942 86.3231 356.061 85.819 358.84 84.4603C361.619 83.1015 363.932 80.9493 365.488 78.2757C367.044 75.6021 367.772 72.5272 367.58 69.4399C367.455 67.389 366.927 65.383 366.026 63.5366C365.124 61.6902 363.868 60.0397 362.328 58.6798C360.787 57.3199 358.994 56.2771 357.05 55.6113C355.107 54.9456 353.051 54.6698 351 54.7999ZM343.76 77.7199C343.14 77.5309 342.591 77.1626 342.18 76.6615C341.769 76.1605 341.516 75.549 341.453 74.9042C341.389 74.2595 341.518 73.6104 341.823 73.0388C342.128 72.4672 342.595 71.9986 343.166 71.6923C343.737 71.386 344.386 71.2556 345.031 71.3176C345.675 71.3795 346.288 71.6311 346.79 72.0405C347.292 72.4499 347.661 72.9988 347.852 73.6181C348.042 74.2373 348.045 74.899 347.86 75.5199C347.606 76.3538 347.032 77.0532 346.264 77.4654C345.496 77.8776 344.595 77.9691 343.76 77.7199ZM354 68.6199C353.106 68.3366 352.316 67.7955 351.728 67.0646C351.14 66.3336 350.782 65.4453 350.697 64.5113C350.613 63.5772 350.806 62.639 351.253 61.8144C351.7 60.9898 352.38 60.3156 353.209 59.8764C354.037 59.4372 354.977 59.2526 355.911 59.3457C356.844 59.4389 357.729 59.8057 358.454 60.4C359.18 60.9944 359.714 61.7898 359.989 62.6864C360.264 63.5831 360.268 64.541 360 65.4399C359.82 66.0458 359.521 66.6097 359.12 67.0987C358.719 67.5877 358.225 67.992 357.667 68.288C357.108 68.584 356.496 68.7659 355.867 68.8228C355.237 68.8798 354.603 68.8108 354 68.6199ZM356.5 79.3999C356.041 79.262 355.656 78.9474 355.429 78.5255C355.202 78.1035 355.152 77.6087 355.29 77.1499C355.428 76.6911 355.742 76.3058 356.164 76.0789C356.586 75.852 357.081 75.802 357.54 75.9399C357.999 76.0725 358.386 76.3819 358.617 76.8001C358.848 77.2184 358.903 77.7111 358.77 78.1699C358.637 78.6287 358.328 79.0161 357.91 79.2467C357.492 79.4774 356.999 79.5325 356.54 79.3999H356.5Z" fill="white"/>
<path d="M147.62 145.06C140.263 145.933 133.213 148.523 127.04 152.62C125.66 147.66 107.6 113.72 109.04 111.06C111.72 105.9 126.3 125.06 135.98 129.44C145.66 133.82 145.16 140.22 147.62 145.06Z" fill="#B2BEC3"/>
<path d="M111.1 216C106.353 221.166 102.796 227.31 100.68 234C99.08 232.38 59.76 216.78 59.66 212.92C59.5 207.1 81.84 213.3 92.2 210.92C102.56 208.54 106.16 213.66 111.1 216Z" fill="#B2BEC3"/>
<path d="M231.52 115.88C231.33 112.298 231.893 108.716 233.17 105.365C234.448 102.013 236.414 98.9662 238.94 96.4199C239.012 96.3483 239.109 96.3081 239.21 96.3081C239.311 96.3081 239.408 96.3483 239.48 96.4199C239.552 96.4916 239.592 96.5887 239.592 96.6899C239.592 96.7912 239.552 96.8883 239.48 96.9599C237.022 99.4348 235.11 102.397 233.867 105.656C232.623 108.914 232.076 112.397 232.26 115.88C232.273 115.936 232.273 115.994 232.261 116.05C232.248 116.105 232.223 116.158 232.188 116.203C232.152 116.248 232.107 116.284 232.055 116.309C232.004 116.334 231.947 116.347 231.89 116.347C231.833 116.347 231.776 116.334 231.725 116.309C231.673 116.284 231.628 116.248 231.592 116.203C231.557 116.158 231.532 116.105 231.519 116.05C231.507 115.994 231.507 115.936 231.52 115.88Z" fill="white"/>
<path d="M122.84 296.98C122.821 296.882 122.764 296.796 122.681 296.74C122.599 296.684 122.498 296.662 122.4 296.68L117.14 297.6C115.926 297.809 114.678 297.529 113.67 296.821C112.661 296.112 111.975 295.033 111.76 293.82L110.84 288.56C110.821 288.459 110.764 288.37 110.679 288.312C110.595 288.254 110.491 288.231 110.39 288.25C110.289 288.269 110.2 288.326 110.142 288.411C110.084 288.495 110.061 288.599 110.08 288.7L111.02 293.96C111.126 294.562 111.113 295.178 110.98 295.775C110.848 296.371 110.599 296.935 110.247 297.435C109.896 297.935 109.45 298.361 108.934 298.687C108.418 299.014 107.842 299.236 107.24 299.34L101.98 300.28C101.893 300.309 101.819 300.369 101.773 300.448C101.726 300.527 101.71 300.621 101.727 300.711C101.744 300.802 101.793 300.883 101.865 300.939C101.938 300.996 102.028 301.025 102.12 301.02L107.38 300.08C108.594 299.871 109.842 300.151 110.85 300.859C111.859 301.568 112.545 302.647 112.76 303.86L113.68 309.12C113.699 309.221 113.756 309.31 113.841 309.368C113.925 309.426 114.029 309.449 114.13 309.43C114.231 309.411 114.32 309.354 114.378 309.269C114.436 309.185 114.459 309.081 114.44 308.98L113.5 303.72C113.291 302.506 113.571 301.258 114.279 300.25C114.988 299.241 116.067 298.555 117.28 298.34L122.54 297.42C122.638 297.401 122.724 297.344 122.78 297.261C122.836 297.179 122.858 297.078 122.84 296.98ZM112.84 301.84C112.444 301.214 111.927 300.674 111.319 300.252C110.711 299.829 110.025 299.533 109.3 299.38C109.93 298.991 110.474 298.479 110.9 297.874C111.326 297.269 111.626 296.584 111.78 295.86C112.169 296.487 112.682 297.029 113.287 297.452C113.892 297.875 114.577 298.17 115.3 298.32C114.66 298.699 114.108 299.209 113.677 299.815C113.246 300.421 112.948 301.111 112.8 301.84H112.84Z" fill="white"/>
<path d="M194.8 68.7598L191.1 69.4198C190.271 69.5596 189.42 69.3674 188.731 68.8845C188.042 68.4017 187.571 67.6671 187.42 66.8398L186.76 63.1198C186.731 63.0325 186.671 62.9588 186.592 62.9122C186.513 62.8656 186.419 62.8494 186.329 62.8665C186.239 62.8836 186.157 62.9329 186.101 63.0052C186.044 63.0775 186.015 63.1679 186.02 63.2598L186.68 66.9598C186.825 67.7898 186.635 68.6436 186.151 69.3336C185.668 70.0236 184.93 70.4934 184.1 70.6398L180.4 71.2998C180.345 71.2995 180.29 71.3113 180.24 71.3343C180.19 71.3573 180.145 71.3909 180.109 71.4329C180.074 71.4748 180.047 71.5241 180.032 71.5772C180.018 71.6304 180.014 71.6861 180.023 71.7406C180.032 71.7951 180.053 71.847 180.084 71.8927C180.115 71.9384 180.155 71.9768 180.202 72.0053C180.25 72.0337 180.302 72.0516 180.357 72.0575C180.412 72.0635 180.468 72.0574 180.52 72.0398L184.24 71.3798C184.66 71.2935 185.093 71.2936 185.513 71.38C185.933 71.4664 186.331 71.6374 186.683 71.8825C187.034 72.1275 187.332 72.4417 187.559 72.8057C187.785 73.1697 187.936 73.5759 188 73.9998L188.66 77.7198C188.689 77.807 188.749 77.8807 188.828 77.9273C188.907 77.9739 189.001 77.9901 189.091 77.973C189.182 77.9559 189.263 77.9067 189.319 77.8344C189.376 77.762 189.405 77.6716 189.4 77.5798L188.76 73.8598C188.685 73.4511 188.692 73.0317 188.781 72.6258C188.869 72.2199 189.038 71.8356 189.276 71.4952C189.514 71.1548 189.817 70.865 190.168 70.6426C190.519 70.4202 190.911 70.2697 191.32 70.1998L195.04 69.5398C195.143 69.5079 195.23 69.4363 195.281 69.3407C195.331 69.245 195.342 69.1332 195.31 69.0298C195.278 68.9263 195.207 68.8398 195.111 68.7891C195.015 68.7385 194.903 68.7279 194.8 68.7598ZM188 72.2398C187.473 71.5031 186.711 70.9672 185.84 70.7198C186.577 70.1926 187.113 69.4311 187.36 68.5598C187.887 69.2964 188.649 69.8323 189.52 70.0798C188.783 70.6069 188.248 71.3684 188 72.2398Z" fill="white"/>
<path d="M390 181.12L380.8 182.74C379.714 182.942 378.598 182.928 377.518 182.699C376.437 182.47 375.412 182.029 374.502 181.403C373.591 180.777 372.814 179.978 372.213 179.05C371.612 178.123 371.2 177.087 371 176L369.38 166.8C369.377 166.746 369.363 166.693 369.338 166.645C369.313 166.597 369.278 166.555 369.235 166.521C369.193 166.488 369.143 166.464 369.091 166.451C369.038 166.438 368.983 166.436 368.93 166.447C368.877 166.457 368.826 166.478 368.782 166.509C368.738 166.54 368.7 166.581 368.673 166.627C368.645 166.674 368.628 166.726 368.623 166.78C368.617 166.834 368.623 166.889 368.64 166.94L370.26 176.12C370.644 178.321 370.139 180.584 368.857 182.414C367.575 184.243 365.62 185.49 363.42 185.88L354.24 187.5C354.157 187.52 354.082 187.567 354.029 187.634C353.976 187.701 353.947 187.784 353.947 187.87C353.947 187.956 353.976 188.039 354.029 188.106C354.082 188.173 354.157 188.221 354.24 188.24C354.46 188.24 356.36 187.88 363.5 186.62C365.696 186.236 367.954 186.739 369.78 188.017C371.605 189.295 372.85 191.246 373.24 193.44L374.86 202.64C374.889 202.727 374.949 202.801 375.028 202.848C375.107 202.894 375.201 202.91 375.291 202.893C375.382 202.876 375.463 202.827 375.519 202.755C375.576 202.682 375.605 202.592 375.6 202.5L373.98 193.3C373.597 191.102 374.102 188.841 375.384 187.014C376.667 185.188 378.622 183.946 380.82 183.56L390 181.94C390.109 181.94 390.213 181.897 390.29 181.82C390.367 181.743 390.41 181.639 390.41 181.53C390.41 181.421 390.367 181.317 390.29 181.24C390.213 181.163 390.109 181.12 390 181.12ZM373.28 190.72C372.584 189.34 371.553 188.157 370.281 187.28C369.009 186.403 367.537 185.86 366 185.7C367.361 185.017 368.532 184.008 369.408 182.762C370.284 181.516 370.838 180.072 371.02 178.56C371.7 179.926 372.712 181.099 373.963 181.973C375.214 182.846 376.664 183.392 378.18 183.56C376.828 184.254 375.669 185.27 374.803 186.519C373.938 187.768 373.394 189.211 373.22 190.72H373.28Z" fill="white"/>
<path d="M323 276.4L252.48 305.36C252.399 305.405 252.337 305.478 252.306 305.565C252.276 305.652 252.277 305.747 252.312 305.833C252.346 305.919 252.411 305.989 252.493 306.031C252.576 306.073 252.67 306.083 252.76 306.06L318.16 279.2L235.82 326.94C235.777 326.965 235.739 326.998 235.708 327.038C235.678 327.077 235.655 327.123 235.642 327.171C235.629 327.219 235.626 327.27 235.632 327.319C235.639 327.369 235.655 327.417 235.68 327.46C235.705 327.503 235.738 327.541 235.778 327.572C235.817 327.602 235.863 327.625 235.911 327.638C235.959 327.651 236.01 327.654 236.059 327.647C236.109 327.641 236.157 327.625 236.2 327.6L318.52 279.86L216.74 359C216.671 359.044 216.62 359.11 216.593 359.188C216.567 359.265 216.568 359.349 216.596 359.426C216.624 359.503 216.677 359.568 216.747 359.61C216.817 359.653 216.899 359.67 216.98 359.66C217.18 359.66 211.64 363.92 323.36 277.06C323.72 276.64 323.32 276.28 323 276.4Z" fill="white"/>
<path d="M323.12 286C321.377 285.997 319.671 285.5 318.2 284.565C316.729 283.631 315.554 282.297 314.811 280.721C314.068 279.144 313.789 277.389 314.005 275.66C314.221 273.93 314.924 272.298 316.031 270.953C317.139 269.607 318.606 268.604 320.262 268.06C321.918 267.516 323.694 267.453 325.384 267.879C327.073 268.306 328.608 269.203 329.807 270.467C331.007 271.731 331.823 273.31 332.16 275.02C332.423 276.355 332.387 277.731 332.055 279.05C331.722 280.369 331.101 281.598 330.236 282.648C329.372 283.698 328.285 284.543 327.055 285.123C325.824 285.703 324.48 286.002 323.12 286ZM323.12 268.34C321.381 268.339 319.684 268.876 318.262 269.876C316.84 270.876 315.761 272.292 315.173 273.928C314.586 275.565 314.518 277.343 314.979 279.019C315.441 280.696 316.409 282.189 317.751 283.295C319.093 284.4 320.744 285.064 322.478 285.196C324.212 285.327 325.944 284.92 327.438 284.03C328.932 283.14 330.114 281.81 330.823 280.222C331.532 278.635 331.734 276.867 331.4 275.16C331.03 273.237 330.004 271.503 328.498 270.252C326.991 269.001 325.098 268.311 323.14 268.3L323.12 268.34Z" fill="white"/>
<path d="M307.28 193.3C307.28 193.73 307.109 194.142 306.806 194.446C306.502 194.75 306.09 194.92 305.66 194.92C305.23 194.92 304.818 194.75 304.515 194.446C304.211 194.142 304.04 193.73 304.04 193.3C304.04 192.871 304.211 192.458 304.515 192.155C304.818 191.851 305.23 191.68 305.66 191.68C306.09 191.68 306.502 191.851 306.806 192.155C307.109 192.458 307.28 192.871 307.28 193.3Z" fill="white"/>
<path d="M333.84 184.3C333.796 184.701 333.605 185.072 333.304 185.341C333.003 185.61 332.614 185.759 332.21 185.759C331.806 185.759 331.417 185.61 331.116 185.341C330.815 185.072 330.625 184.701 330.58 184.3C330.625 183.899 330.815 183.528 331.116 183.259C331.417 182.99 331.806 182.841 332.21 182.841C332.614 182.841 333.003 182.99 333.304 183.259C333.605 183.528 333.796 183.899 333.84 184.3Z" fill="white"/>
<path d="M344.42 155.48C344.376 155.881 344.185 156.252 343.884 156.521C343.583 156.79 343.194 156.939 342.79 156.939C342.386 156.939 341.997 156.79 341.696 156.521C341.395 156.252 341.205 155.881 341.16 155.48C341.205 155.079 341.395 154.708 341.696 154.439C341.997 154.17 342.386 154.021 342.79 154.021C343.194 154.021 343.583 154.17 343.884 154.439C344.185 154.708 344.376 155.079 344.42 155.48Z" fill="white"/>
<path d="M369.42 141.08C369.376 141.481 369.185 141.852 368.884 142.121C368.583 142.39 368.194 142.539 367.79 142.539C367.386 142.539 366.997 142.39 366.696 142.121C366.395 141.852 366.205 141.481 366.16 141.08C366.205 140.679 366.395 140.308 366.696 140.039C366.997 139.769 367.386 139.621 367.79 139.621C368.194 139.621 368.583 139.769 368.884 140.039C369.185 140.308 369.376 140.679 369.42 141.08Z" fill="white"/>
<path d="M300.7 220.2C300.7 220.63 300.529 221.042 300.226 221.346C299.922 221.649 299.51 221.82 299.08 221.82C298.65 221.82 298.238 221.649 297.935 221.346C297.631 221.042 297.46 220.63 297.46 220.2C297.46 219.77 297.631 219.358 297.935 219.055C298.238 218.751 298.65 218.58 299.08 218.58C299.51 218.58 299.922 218.751 300.226 219.055C300.529 219.358 300.7 219.77 300.7 220.2Z" fill="white"/>
<path d="M272.24 210.48C272.196 210.881 272.005 211.252 271.704 211.521C271.403 211.79 271.014 211.939 270.61 211.939C270.206 211.939 269.817 211.79 269.516 211.521C269.215 211.252 269.025 210.881 268.98 210.48C269.025 210.079 269.215 209.708 269.516 209.439C269.817 209.17 270.206 209.021 270.61 209.021C271.014 209.021 271.403 209.17 271.704 209.439C272.005 209.708 272.196 210.079 272.24 210.48Z" fill="white"/>
<path d="M280.68 182.4C280.636 182.801 280.445 183.172 280.144 183.441C279.843 183.71 279.454 183.859 279.05 183.859C278.646 183.859 278.257 183.71 277.956 183.441C277.655 183.172 277.465 182.801 277.42 182.4C277.465 181.999 277.655 181.628 277.956 181.359C278.257 181.09 278.646 180.941 279.05 180.941C279.454 180.941 279.843 181.09 280.144 181.359C280.445 181.628 280.636 181.999 280.68 182.4Z" fill="white"/>
<path d="M273.28 153.06C273.236 153.461 273.045 153.832 272.744 154.101C272.443 154.37 272.054 154.519 271.65 154.519C271.246 154.519 270.857 154.37 270.556 154.101C270.255 153.832 270.065 153.461 270.02 153.06C270.065 152.659 270.255 152.288 270.556 152.019C270.857 151.749 271.246 151.601 271.65 151.601C272.054 151.601 272.443 151.749 272.744 152.019C273.045 152.288 273.236 152.659 273.28 153.06Z" fill="white"/>
<path d="M242.18 141.08C242.18 141.51 242.009 141.922 241.706 142.225C241.402 142.529 240.99 142.7 240.56 142.7C240.13 142.7 239.718 142.529 239.415 142.225C239.111 141.922 238.94 141.51 238.94 141.08C238.94 140.65 239.111 140.238 239.415 139.934C239.718 139.631 240.13 139.46 240.56 139.46C240.99 139.46 241.402 139.631 241.706 139.934C242.009 140.238 242.18 140.65 242.18 141.08Z" fill="white"/>
<path d="M382.98 111.48C382.58 111.34 382.1 111.68 381.66 112.18C382.074 110.391 382.348 108.572 382.48 106.74C382.64 104.58 382.7 100.9 381.42 100.74C381.18 100.74 380.56 100.6 379.76 102.52C379.86 101.06 380.16 96.2798 378.72 96.0598C377.28 95.8398 376.26 100.76 375.32 103.88C375.32 102.36 375.06 96.8598 373.48 96.7598C373.12 96.7598 372.08 96.7598 371.1 101.94C370.626 104.576 370.019 107.186 369.28 109.76L368.96 109.18C366.08 104.12 365.1 103.62 364.44 103.86C363.78 104.1 363.38 105.1 364.44 110.66C365.64 116.66 362.04 124.24 361.24 125.84L359.94 125.34C359.861 125.312 359.776 125.31 359.696 125.335C359.617 125.361 359.548 125.411 359.5 125.48C351.117 137.563 342.049 149.155 332.34 160.2C332.02 160.56 332.58 161.06 332.92 160.68C342.6 149.68 351.642 138.135 360 126.1C366.021 128.187 371.109 132.339 374.36 137.82C354.36 170.14 327.5 196.34 315.72 207.06C317.08 200.48 313.88 192.3 313.72 191.92C313.674 191.844 313.604 191.787 313.52 191.757C313.436 191.728 313.345 191.729 313.262 191.76C313.179 191.791 313.11 191.85 313.065 191.926C313.021 192.003 313.005 192.093 313.02 192.18C313.02 192.46 321.02 220.64 269.12 250.18C273.12 242.7 266.62 223.04 263.12 214.6C259.62 206.16 251.24 190 243.18 186H256.7C272.98 201.62 272 200.76 272.24 200.76C272.306 200.756 272.369 200.735 272.424 200.699C272.48 200.663 272.525 200.614 272.555 200.555C272.585 200.497 272.6 200.431 272.597 200.365C272.594 200.3 272.575 200.236 272.54 200.18L227.74 130.42C234.62 132.88 251.86 122.76 252.8 115.6C262.8 132.64 289.3 174.24 305.24 185.92C306.251 186.742 307.432 187.33 308.698 187.641C309.964 187.952 311.283 187.979 312.56 187.72C312.649 187.689 312.726 187.628 312.777 187.549C312.827 187.469 312.85 187.374 312.84 187.28C312.632 185.821 312.632 184.339 312.84 182.88C318.84 184 321.06 179.66 321.02 173.52C321.02 173.419 320.98 173.322 320.909 173.251C320.837 173.18 320.741 173.14 320.64 173.14C320.539 173.14 320.443 173.18 320.371 173.251C320.3 173.322 320.26 173.419 320.26 173.52C320.26 177.76 319.26 180.5 317.24 181.66C313.9 183.66 308.8 180.6 308.62 180.5C308.563 180.464 308.497 180.445 308.43 180.443C308.362 180.441 308.295 180.458 308.236 180.49C308.177 180.523 308.128 180.57 308.094 180.628C308.059 180.686 308.041 180.752 308.04 180.82C308.04 181.02 307.84 180.66 311.94 186.06C311.94 186.38 311.94 186.72 312.04 187.06C308.26 187.76 305.5 185.34 302.64 182.8C305.64 182.68 304.04 175.52 303.3 172.6C303.283 172.525 303.243 172.458 303.186 172.408C303.128 172.357 303.056 172.326 302.98 172.32C297.2 168.04 300.64 162.72 303.5 165.9C304.48 167 305.2 167.42 305.78 167.3C306.36 167.18 306.74 166.2 306.7 165.98C305.32 157.08 313.88 150.98 318.08 161.2C318.125 161.281 318.198 161.342 318.285 161.373C318.372 161.404 318.467 161.402 318.553 161.368C318.639 161.334 318.71 161.269 318.751 161.187C318.793 161.104 318.803 161.009 318.78 160.92V160.76C319.105 160.443 319.467 160.167 319.86 159.94C319.899 160.017 319.962 160.079 320.041 160.116C320.12 160.152 320.208 160.16 320.292 160.139C320.376 160.118 320.451 160.069 320.503 160C320.555 159.931 320.582 159.846 320.58 159.76C319.72 112.92 312.18 104.4 308.98 102.9C308.353 102.598 307.652 102.486 306.962 102.579C306.273 102.671 305.625 102.963 305.1 103.42C304.172 104.339 303.44 105.437 302.949 106.647C302.457 107.857 302.216 109.154 302.24 110.46C297.38 96.2998 290.78 90.4598 286.46 91.2198C282.88 91.7998 280.94 96.3598 281.16 103.76C281.371 111.864 282.759 119.895 285.28 127.6C281.18 120.5 277.64 117.28 275.12 118.5C271.12 120.5 272.08 132.5 276.86 142.5C289.8 169.56 302.56 171.02 303.62 180.5C303.48 181.46 303.16 181.78 302.98 181.88C302.8 181.98 301.7 181.88 300.78 180.96C284.52 165.36 264 133.08 252.62 113.68C252.328 113.136 251.899 112.677 251.377 112.348C250.855 112.018 250.257 111.83 249.64 111.8L249.36 111.22C248.715 110.027 248.444 108.668 248.583 107.319C248.722 105.971 249.265 104.695 250.14 103.66C258.14 93.9998 256.74 92.4198 256.28 91.8998C253.7 89.0798 246.64 97.5798 242.88 98.0398C241.98 98.1598 240.88 94.6398 240.64 92.9598C240.64 92.9598 238.8 80.9598 238.64 80.1998C238.34 77.9398 237.6 74.1998 236.04 74.1998C234.48 74.1998 234.04 78.8598 234.04 80.6998C234.04 84.5998 234.04 87.7598 234.04 89.7598C232.58 85.1398 230.38 78.2398 230.18 77.5598C229.52 75.3398 228.18 71.6798 226.58 72.0398C225.38 72.3198 225.02 74.8998 225.66 78.7798C226.4 83.2398 227.2 88.4198 227.66 91.4798C226.56 89.0398 225.2 85.7998 223.8 81.9598C222.84 79.3398 221.4 76.2998 220.02 76.6798C218.32 77.1398 219.1 81.9998 219.38 83.4798C219.8 85.7998 220.82 90.6598 221.66 93.8598C220.8 92.2998 219.9 90.5198 219.08 88.5998C217.98 86.0398 216.4 83.0598 215.08 83.4998C213.38 84.0798 214.48 89.0798 214.86 90.5998C216.2 95.9598 217.28 98.4598 220.04 108.24C221.758 113.912 223.849 119.464 226.3 124.86C224.72 128 226.3 129.22 226.3 129.46L262 185.26C236.98 185.26 240.92 185.12 238.92 185.54C235.98 186.78 234.92 191.78 236.04 199.54L182.04 208.58C149.88 139.52 152.2 144.24 151.82 144.3C150.42 144.3 149.12 144.5 147.82 144.66C145.54 140 145.72 133.54 136 129.1C126.28 124.66 111.58 105.1 108.56 110.88C107.04 113.78 124.56 146.4 126.56 152.46C125.28 153.32 124.04 154.24 122.88 155.2C122.823 155.247 122.781 155.311 122.76 155.382C122.739 155.453 122.739 155.529 122.76 155.6C130 179.78 137.66 204 145.82 227.76C111.56 212.12 113.6 212.92 113.32 213.18C112.54 213.92 111.76 214.7 111.02 215.5C106.18 213.12 102.48 208.04 92.1 210.48C81.72 212.92 59.1 206.48 59.28 212.94C59.38 216.94 96.64 231.78 100.24 234.12C99.78 235.64 99.36 237.16 99.02 238.66C99.0051 238.73 99.0104 238.803 99.0352 238.87C99.0599 238.937 99.1032 238.996 99.16 239.04C122.878 257.59 148.244 273.932 174.94 287.86C178.169 289.591 181.748 290.569 185.409 290.721C189.07 290.874 192.718 290.196 196.08 288.74C219.701 278.716 242.288 266.411 263.52 252C264.315 252.391 265.206 252.544 266.086 252.441C266.965 252.339 267.797 251.984 268.48 251.42C294.32 236.92 305.54 222.78 310.38 212.78C330.38 195.96 357.78 166.1 375.16 137.98C375.198 137.924 375.218 137.858 375.218 137.79C375.218 137.722 375.198 137.656 375.16 137.6C374.858 137.028 374.524 136.474 374.16 135.94C375.14 134.32 381.52 123.52 383.12 116.1C384 112.34 383.52 111.64 382.98 111.48ZM226.4 78.6998C225.72 74.5398 226.4 72.9398 226.76 72.8398C227.12 72.7398 228.18 73.5598 229.46 77.8398C229.66 78.4998 234.46 93.6598 234.58 94.0198C232.972 94.6833 231.431 95.5004 229.98 96.4598C229.82 96.0198 230.14 96.8798 228.78 93.9998C228.68 93.2598 227.48 85.2398 226.4 78.6998ZM220.12 83.3998C219.32 79.1998 219.86 77.5598 220.12 77.3998C220.38 77.2398 221.46 78.0598 223 82.2198C224.806 87.1604 226.876 92.0007 229.2 96.7198C227.867 97.6817 226.616 98.752 225.46 99.9198C224.534 98.7744 223.711 97.5497 223 96.2598C221.799 92.0307 220.837 87.7372 220.12 83.3998ZM220.74 108.1C218.02 98.3998 216.96 96.0998 215.58 90.4798C214.5 86.1398 214.94 84.4798 215.3 84.2798C215.66 84.0798 216.66 84.8998 218.38 88.9598C220.171 93.0948 222.425 97.0132 225.1 100.64C223.9 101.9 222.74 103.3 221.54 104.84C221.22 105.22 221.82 105.68 222.12 105.3C226.52 99.6598 230.46 95.9598 237.58 93.7198C237.634 93.7112 237.685 93.6912 237.73 93.6612C237.775 93.6311 237.813 93.5917 237.842 93.5457C237.871 93.4996 237.889 93.4479 237.896 93.3941C237.904 93.3402 237.899 93.2855 237.883 93.2336C237.867 93.1817 237.84 93.1338 237.804 93.0931C237.769 93.0524 237.724 93.0199 237.675 92.9977C237.625 92.9756 237.571 92.9643 237.517 92.9646C237.463 92.965 237.409 92.977 237.36 92.9998C236.64 93.2198 235.94 93.4598 235.36 93.7198L234.88 92.2198C234.88 91.6198 234.88 87.2398 234.88 80.7598C234.88 76.5198 235.76 75.0398 236.16 75.0198C236.56 74.9998 237.44 75.9798 238.04 80.3798C238.14 81.0998 240.04 93.1398 240.04 93.1398C240.04 93.1398 241.06 99.1398 243.12 98.8798C246.84 98.3998 253.98 90.4598 255.86 92.4798C256.2 92.8598 256.78 94.7598 249.7 103.26C248.732 104.413 248.133 105.83 247.98 107.328C247.826 108.825 248.126 110.334 248.84 111.66C248.84 111.88 251.46 116.92 251.66 117.28C248.64 123.28 236.98 130.24 230.04 130.02C226.153 123.073 223.034 115.723 220.74 108.1ZM151.62 145.06C176.04 197.54 180.58 207.46 181.62 209.2C181.82 209.58 181.62 209.52 182.24 209.44L253.3 197.44C257.62 204.128 261.208 211.263 264 218.72L186.5 231.36C182.702 231.983 178.806 231.263 175.481 229.325C172.156 227.387 169.61 224.351 168.28 220.74L141.02 146.74C144.488 145.824 148.039 145.261 151.62 145.06ZM109.32 111.24C111.66 106.74 126.28 125.44 135.76 129.78C145.24 134.12 144.78 139.78 147.06 144.76C139.999 145.677 133.23 148.15 127.24 152C125.18 146.14 108.12 113.52 109.32 111.24ZM60 212.92C59.88 207.76 82.12 213.62 92.26 211.22C102.08 208.9 105.58 213.6 110.46 216.08C105.958 221.095 102.552 226.994 100.46 233.4C96.48 231.02 60.12 216.18 60 212.92ZM195.78 288C192.524 289.414 188.99 290.074 185.444 289.928C181.897 289.783 178.429 288.836 175.3 287.16C148.716 273.286 123.452 257.019 99.82 238.56C101.871 229.172 106.692 220.617 113.66 214L146.14 228.84L152.14 245.74C153.96 250.86 157.432 255.229 162.009 258.159C166.586 261.088 172.008 262.411 177.42 261.92C208.08 259.1 232.26 254.66 253.52 247.92C253.603 247.881 253.67 247.814 253.707 247.73C253.745 247.646 253.751 247.552 253.724 247.464C253.697 247.376 253.639 247.301 253.561 247.253C253.483 247.204 253.391 247.185 253.3 247.2C232.08 253.88 207.96 258.3 177.3 261.2C172.041 261.666 166.776 260.365 162.339 257.503C157.902 254.642 154.545 250.383 152.8 245.4C142.8 217.18 134.46 192.54 123.6 155.62C128.487 151.612 134.153 148.663 140.24 146.96L167.52 220.96C168.746 224.285 170.962 227.155 173.87 229.183C176.777 231.21 180.236 232.298 183.78 232.3C185.78 232.3 179.18 233.28 264.2 219.4C268.36 230.5 270.38 240.96 269.42 246.94C246.445 263.273 221.752 277.042 195.78 288ZM379.38 106.26C380.48 101.66 381.38 101.4 381.38 101.4C381.38 101.4 382.1 102.6 381.82 106.66C381.462 110.779 380.499 114.822 378.96 118.66C378.621 117.288 378.159 115.949 377.58 114.66C378.373 111.918 378.975 109.125 379.38 106.3V106.26ZM376.88 101.04C377.9 97.0398 378.6 96.7198 378.6 96.7198C378.6 96.7198 379.26 97.9398 379.06 101.62C378.856 105.683 378.185 109.71 377.06 113.62C376.445 112.345 375.708 111.133 374.86 110C375.093 108.793 375.227 107.569 375.26 106.34C375.82 104.9 376.36 103.08 376.88 101.08V101.04ZM382.38 116C380.88 122.96 375.06 133 373.68 135.32C370.706 131.234 366.665 128.044 362 126.1C362.9 124.34 366.52 116.72 365.26 110.46C364.2 105.28 364.64 104.6 364.7 104.46C364.76 104.32 365.62 104.7 368.3 109.42C370.98 114.14 372.52 125.3 372.54 125.42C372.54 125.94 373.34 125.78 373.28 125.42C372.612 120.432 371.433 115.526 369.76 110.78C370.592 107.914 371.26 105.002 371.76 102.06C372.44 98.3998 373.16 97.5198 373.34 97.4998C373.52 97.4798 374.1 97.7998 374.42 102.54C374.55 104.816 374.469 107.099 374.18 109.36C373.908 109.027 373.614 108.713 373.3 108.42C372.94 108.08 372.42 108.64 372.78 108.96C375.941 112.413 377.96 116.757 378.56 121.4C378.56 121.501 378.6 121.597 378.671 121.669C378.743 121.74 378.839 121.78 378.94 121.78C379.041 121.78 379.137 121.74 379.209 121.669C379.28 121.597 379.32 121.501 379.32 121.4C379.1 119.8 379 120.38 379.32 119.4C379.64 118.42 380.36 116.64 380.92 114.68C381.274 113.742 381.85 112.905 382.6 112.24C382.6 112.24 383.12 112.64 382.38 116Z" fill="white"/>
<path d="M334.18 162.9C334.076 162.126 333.817 161.381 333.416 160.711C333.016 160.04 332.484 159.458 331.851 159C331.219 158.541 330.5 158.216 329.738 158.045C328.977 157.873 328.188 157.857 327.42 158C368.12 116.4 296 82.24 337.66 40.98C337.732 40.9084 337.772 40.8112 337.772 40.71C337.772 40.6087 337.732 40.5116 337.66 40.44C337.588 40.3684 337.491 40.3281 337.39 40.3281C337.289 40.3281 337.192 40.3684 337.12 40.44C294.74 82.44 367.92 116.8 326.18 158.24L313.46 160.24C312.179 160.437 311.002 161.059 310.117 162.005C309.232 162.952 308.69 164.169 308.58 165.46C292.44 167.46 293.36 167.32 293.16 167.58C292.96 167.84 293.68 168.18 298.34 173.2C298.6 173.44 298.02 173.38 309.52 172C309.927 173.1 310.661 174.049 311.622 174.721C312.583 175.393 313.727 175.756 314.9 175.76C315.5 175.76 314.52 175.76 329.94 173.56C331.451 173.323 332.808 172.499 333.715 171.266C334.621 170.034 335.004 168.493 334.78 166.98L334.18 162.9ZM329.82 172.72L323.82 173.64C323.158 173.757 322.479 173.738 321.824 173.587C321.17 173.435 320.552 173.153 320.009 172.757C319.465 172.361 319.008 171.86 318.662 171.283C318.317 170.706 318.092 170.066 318 169.4C317.4 165.4 317.18 164.7 317.5 163.4C317.746 162.442 318.268 161.577 319 160.913C319.732 160.248 320.643 159.813 321.62 159.66L327.62 158.76C328.27 158.661 328.934 158.692 329.573 158.851C330.211 159.009 330.812 159.293 331.34 159.686C331.868 160.078 332.313 160.571 332.65 161.137C332.986 161.702 333.207 162.329 333.3 162.98L333.88 166.98C334.095 168.279 333.789 169.609 333.029 170.684C332.269 171.759 331.116 172.49 329.82 172.72Z" fill="white"/>
</svg>
