<svg width="400" height="400" viewBox="0 0 400 400" fill="none" xmlns="http://www.w3.org/2000/svg">
<path d="M330.43 151.158C330.43 151.059 330.39 150.963 330.32 150.892C330.249 150.822 330.154 150.782 330.054 150.782C329.954 150.782 329.859 150.822 329.788 150.892C329.718 150.963 329.678 151.059 329.678 151.158V208.6C329.675 210.162 329.053 211.66 327.949 212.764C326.844 213.869 325.346 214.49 323.784 214.492H207.02C206.92 214.492 206.825 214.532 206.754 214.602C206.684 214.673 206.644 214.769 206.644 214.868C206.644 214.968 206.684 215.064 206.754 215.134C206.825 215.205 206.92 215.244 207.02 215.244H323.784C325.546 215.243 327.235 214.542 328.481 213.297C329.727 212.051 330.428 210.362 330.43 208.6V151.158Z" fill="white"/>
<path d="M241.158 113.466H207.02C205.258 113.468 203.569 114.169 202.323 115.415C201.077 116.661 200.376 118.35 200.374 120.112V136.142C200.374 136.242 200.414 136.337 200.484 136.408C200.555 136.478 200.65 136.518 200.75 136.518C200.85 136.518 200.945 136.478 201.016 136.408C201.086 136.337 201.126 136.242 201.126 136.142V120.112C201.128 118.549 201.749 117.051 202.854 115.946C203.959 114.841 205.457 114.219 207.02 114.218H241.158C241.258 114.218 241.353 114.178 241.424 114.108C241.494 114.037 241.534 113.942 241.534 113.842C241.534 113.742 241.494 113.646 241.424 113.576C241.353 113.505 241.258 113.466 241.158 113.466Z" fill="white"/>
<path d="M330.43 120.11C330.428 118.348 329.727 116.659 328.481 115.414C327.235 114.168 325.546 113.468 323.784 113.466H290.022V105.15C290.022 105.05 289.982 104.955 289.912 104.884C289.841 104.814 289.746 104.774 289.646 104.774H241.158C241.058 104.774 240.963 104.814 240.892 104.884C240.822 104.955 240.782 105.05 240.782 105.15V118.382C240.782 118.431 240.792 118.48 240.811 118.526C240.83 118.571 240.857 118.613 240.892 118.648C240.927 118.683 240.968 118.71 241.014 118.729C241.06 118.748 241.109 118.758 241.158 118.758H289.646C289.695 118.758 289.744 118.748 289.79 118.729C289.836 118.71 289.877 118.683 289.912 118.648C289.947 118.613 289.974 118.571 289.993 118.526C290.012 118.48 290.022 118.431 290.022 118.382V114.218H323.784C325.346 114.22 326.844 114.841 327.949 115.946C329.053 117.05 329.675 118.548 329.678 120.11V123.564C329.678 123.664 329.718 123.759 329.788 123.83C329.859 123.9 329.954 123.94 330.054 123.94C330.154 123.94 330.249 123.9 330.32 123.83C330.39 123.759 330.43 123.664 330.43 123.564V120.11ZM289.27 118H241.534V105.52H289.27V118Z" fill="white"/>
<path d="M265.4 105.15C264.527 105.151 263.674 104.892 262.948 104.408C262.222 103.923 261.657 103.234 261.322 102.428C260.988 101.622 260.901 100.735 261.071 99.8787C261.241 99.0227 261.661 98.2364 262.278 97.6191C262.894 97.0019 263.681 96.5815 264.537 96.4111C265.392 96.2407 266.28 96.328 267.086 96.6618C267.892 96.9957 268.581 97.5612 269.066 98.2868C269.551 99.0124 269.81 99.8655 269.81 100.738C269.809 101.908 269.344 103.029 268.517 103.856C267.691 104.683 266.569 105.149 265.4 105.15ZM265.4 97.0822C264.676 97.0822 263.969 97.2968 263.368 97.6988C262.766 98.1008 262.297 98.6723 262.02 99.3408C261.743 100.009 261.671 100.745 261.812 101.455C261.954 102.164 262.302 102.816 262.814 103.327C263.326 103.839 263.978 104.187 264.688 104.328C265.397 104.469 266.133 104.396 266.801 104.119C267.47 103.842 268.041 103.373 268.442 102.771C268.844 102.169 269.058 101.462 269.058 100.738C269.056 99.7687 268.67 98.8394 267.985 98.154C267.299 97.4687 266.369 97.0832 265.4 97.0822Z" fill="white"/>
<path d="M245.218 139.856H213.4C213.3 139.856 213.205 139.816 213.134 139.746C213.064 139.675 213.024 139.58 213.024 139.48V126.836C213.024 126.736 213.064 126.641 213.134 126.57C213.205 126.5 213.3 126.46 213.4 126.46H245.224C245.273 126.46 245.322 126.47 245.368 126.489C245.414 126.507 245.455 126.535 245.49 126.57C245.525 126.605 245.552 126.646 245.571 126.692C245.59 126.738 245.6 126.787 245.6 126.836V139.48C245.6 139.53 245.59 139.579 245.571 139.625C245.552 139.671 245.523 139.713 245.488 139.748C245.452 139.783 245.41 139.811 245.364 139.829C245.317 139.848 245.268 139.857 245.218 139.856ZM213.77 139.104H244.842V127.212H213.77V139.104Z" fill="white"/>
<path d="M245.218 163.234H229.464C229.364 163.234 229.269 163.194 229.198 163.124C229.128 163.053 229.088 162.958 229.088 162.858C229.088 162.758 229.128 162.663 229.198 162.592C229.269 162.522 229.364 162.482 229.464 162.482H244.842V152.644H221.304C221.204 152.644 221.109 152.604 221.038 152.534C220.968 152.463 220.928 152.368 220.928 152.268C220.928 152.168 220.968 152.073 221.038 152.002C221.109 151.932 221.204 151.892 221.304 151.892H245.218C245.318 151.892 245.413 151.932 245.484 152.002C245.554 152.073 245.594 152.168 245.594 152.268V162.868C245.591 162.966 245.551 163.059 245.48 163.128C245.41 163.196 245.316 163.234 245.218 163.234Z" fill="white"/>
<path d="M223.752 186.678H213.4C213.3 186.678 213.205 186.639 213.134 186.568C213.064 186.498 213.024 186.402 213.024 186.302V175.702C213.024 175.602 213.064 175.507 213.134 175.436C213.205 175.366 213.3 175.326 213.4 175.326H215.6C215.7 175.326 215.795 175.366 215.866 175.436C215.936 175.507 215.976 175.602 215.976 175.702C215.976 175.802 215.936 175.898 215.866 175.968C215.795 176.039 215.7 176.078 215.6 176.078H213.78V185.916H223.762C223.863 185.917 223.959 185.959 224.03 186.031C224.1 186.104 224.139 186.201 224.138 186.302C224.137 186.403 224.095 186.5 224.023 186.57C223.95 186.641 223.853 186.679 223.752 186.678Z" fill="white"/>
<path d="M244.842 181.714V176.088H239.826C239.726 176.088 239.631 176.048 239.56 175.978C239.49 175.907 239.45 175.812 239.45 175.712C239.45 175.612 239.49 175.517 239.56 175.446C239.631 175.376 239.726 175.336 239.826 175.336H245.226C245.326 175.336 245.421 175.376 245.492 175.446C245.562 175.517 245.602 175.612 245.602 175.712V181.712C245.602 181.813 245.562 181.909 245.491 181.981C245.42 182.052 245.324 182.093 245.223 182.093C245.122 182.093 245.025 182.053 244.954 181.982C244.883 181.911 244.842 181.815 244.842 181.714Z" fill="white"/>
<path d="M238.6 202.6H212.936C212.836 202.6 212.74 202.56 212.669 202.49C212.599 202.419 212.559 202.324 212.558 202.224V198.176C212.559 198.076 212.599 197.98 212.669 197.91C212.74 197.839 212.836 197.8 212.936 197.8H234.556C234.656 197.8 234.751 197.839 234.822 197.91C234.892 197.98 234.932 198.076 234.932 198.176C234.932 198.276 234.892 198.371 234.822 198.442C234.751 198.512 234.656 198.552 234.556 198.552H213.312V201.852H238.6C238.693 201.861 238.778 201.905 238.84 201.974C238.903 202.043 238.937 202.133 238.937 202.226C238.937 202.319 238.903 202.409 238.84 202.478C238.778 202.547 238.693 202.59 238.6 202.6Z" fill="white"/>
<path d="M317.328 202.6H252.674C252.574 202.6 252.479 202.56 252.408 202.49C252.338 202.419 252.298 202.324 252.298 202.224C252.298 202.124 252.338 202.029 252.408 201.958C252.479 201.888 252.574 201.848 252.674 201.848H316.95V198.548H255.972C255.872 198.548 255.777 198.508 255.706 198.438C255.636 198.367 255.596 198.272 255.596 198.172C255.596 198.072 255.636 197.977 255.706 197.906C255.777 197.836 255.872 197.796 255.972 197.796H317.328C317.377 197.796 317.426 197.806 317.472 197.825C317.518 197.843 317.559 197.871 317.594 197.906C317.629 197.941 317.656 197.982 317.675 198.028C317.694 198.074 317.704 198.123 317.704 198.172V202.224C317.704 202.273 317.694 202.322 317.675 202.368C317.656 202.413 317.629 202.455 317.594 202.49C317.559 202.525 317.518 202.552 317.472 202.571C317.426 202.59 317.377 202.6 317.328 202.6Z" fill="white"/>
<path d="M179.686 113.464H145.924V105.15C145.924 105.05 145.884 104.955 145.814 104.884C145.743 104.814 145.648 104.774 145.548 104.774H97.06C96.9603 104.774 96.8646 104.814 96.7941 104.884C96.7236 104.955 96.684 105.05 96.684 105.15V113.466H62.924C61.1617 113.468 59.472 114.168 58.2256 115.414C56.9793 116.66 56.2781 118.35 56.276 120.112V142.224C56.276 142.324 56.3156 142.419 56.3861 142.49C56.4566 142.56 56.5523 142.6 56.652 142.6C56.7517 142.6 56.8474 142.56 56.9179 142.49C56.9884 142.419 57.028 142.324 57.028 142.224V120.112C57.0301 118.549 57.652 117.051 58.7574 115.946C59.8627 114.841 61.3611 114.22 62.924 114.218H96.684V118.382C96.684 118.482 96.7236 118.577 96.7941 118.648C96.8646 118.718 96.9603 118.758 97.06 118.758H145.548C145.648 118.758 145.743 118.718 145.814 118.648C145.884 118.577 145.924 118.482 145.924 118.382V114.216H179.686C179.786 114.216 179.881 114.176 179.952 114.106C180.022 114.035 180.062 113.94 180.062 113.84C180.062 113.74 180.022 113.645 179.952 113.574C179.881 113.504 179.786 113.464 179.686 113.464ZM145.172 118H97.436V105.52H145.172V118Z" fill="white"/>
<path d="M121.304 105.15C120.431 105.153 119.577 104.896 118.85 104.412C118.122 103.929 117.555 103.241 117.219 102.435C116.884 101.629 116.794 100.741 116.963 99.8848C117.132 99.0282 117.551 98.2409 118.168 97.6227C118.785 97.0044 119.571 96.583 120.427 96.4118C121.283 96.2406 122.171 96.3273 122.978 96.6609C123.785 96.9944 124.474 97.5599 124.96 98.2857C125.445 99.0115 125.704 99.865 125.704 100.738C125.703 101.906 125.239 103.026 124.415 103.853C123.59 104.679 122.472 105.146 121.304 105.15ZM121.304 97.0822C120.58 97.0822 119.873 97.2967 119.272 97.6988C118.67 98.1008 118.201 98.6722 117.924 99.3408C117.647 100.009 117.575 100.745 117.716 101.455C117.858 102.164 118.206 102.816 118.718 103.327C119.23 103.839 119.882 104.187 120.592 104.328C121.301 104.469 122.037 104.396 122.705 104.119C123.374 103.842 123.945 103.373 124.346 102.771C124.748 102.169 124.962 101.462 124.962 100.738C124.96 99.7687 124.574 98.8394 123.889 98.154C123.203 97.4687 122.273 97.0832 121.304 97.0822Z" fill="white"/>
<path d="M173.312 138.864H141.478C141.429 138.864 141.38 138.854 141.334 138.835C141.288 138.816 141.247 138.789 141.212 138.754C141.177 138.719 141.149 138.677 141.131 138.632C141.112 138.586 141.102 138.537 141.102 138.488V126.4C141.102 126.3 141.142 126.204 141.212 126.133C141.282 126.063 141.378 126.023 141.478 126.022H173.312C173.412 126.023 173.508 126.063 173.578 126.133C173.648 126.204 173.688 126.3 173.688 126.4V138.486C173.688 138.536 173.679 138.585 173.66 138.63C173.641 138.676 173.614 138.718 173.579 138.753C173.544 138.788 173.502 138.816 173.456 138.835C173.411 138.854 173.362 138.864 173.312 138.864ZM141.854 138.112H172.936V126.778H141.854V138.112Z" fill="white"/>
<path d="M173.312 202.6H69.296C69.1963 202.6 69.1006 202.56 69.0301 202.49C68.9596 202.419 68.92 202.324 68.92 202.224V198.176C68.92 198.076 68.9596 197.98 69.0301 197.91C69.1006 197.839 69.1963 197.8 69.296 197.8H173.312C173.412 197.8 173.507 197.839 173.578 197.91C173.648 197.98 173.688 198.076 173.688 198.176V202.228C173.687 202.327 173.647 202.421 173.576 202.491C173.506 202.561 173.411 202.6 173.312 202.6ZM69.672 201.848H172.936V198.548H69.672V201.848Z" fill="white"/>
<path d="M173.312 186.244H141.478C141.378 186.244 141.282 186.204 141.211 186.134C141.141 186.064 141.101 185.968 141.1 185.868V180.966C141.107 180.871 141.15 180.782 141.22 180.717C141.29 180.652 141.382 180.616 141.477 180.616C141.573 180.616 141.664 180.652 141.734 180.717C141.804 180.782 141.847 180.871 141.854 180.966V185.492H172.936V167C172.936 166.9 172.976 166.805 173.046 166.734C173.117 166.664 173.212 166.624 173.312 166.624C173.412 166.624 173.507 166.664 173.578 166.734C173.648 166.805 173.688 166.9 173.688 167V185.866C173.688 185.916 173.679 185.965 173.66 186.011C173.641 186.056 173.614 186.098 173.579 186.133C173.544 186.168 173.502 186.196 173.456 186.215C173.411 186.234 173.362 186.244 173.312 186.244Z" fill="white"/>
<path d="M162.1 148.846H145.384C145.284 148.846 145.189 148.807 145.118 148.736C145.048 148.666 145.008 148.57 145.008 148.47C145.008 148.371 145.048 148.275 145.118 148.204C145.189 148.134 145.284 148.094 145.384 148.094H162.1C162.2 148.094 162.295 148.134 162.366 148.204C162.436 148.275 162.476 148.371 162.476 148.47C162.476 148.57 162.436 148.666 162.366 148.736C162.295 148.807 162.2 148.846 162.1 148.846Z" fill="white"/>
<path d="M348.53 185.81L372.644 165.258L348.53 144.704C348.454 144.639 348.407 144.547 348.4 144.447C348.392 144.348 348.424 144.249 348.489 144.173C348.554 144.097 348.646 144.05 348.746 144.043C348.846 144.035 348.944 144.067 349.02 144.132C375.236 166.46 373.6 164.988 373.6 165.258C373.6 165.528 375.26 164.018 349.02 186.384C348.943 186.442 348.847 186.469 348.751 186.459C348.655 186.448 348.567 186.401 348.504 186.328C348.442 186.255 348.41 186.16 348.414 186.064C348.419 185.968 348.46 185.877 348.53 185.81Z" fill="white"/>
<path d="M37.318 185.778C37.104 185.778 38.768 187.118 12.624 164.848C12.5826 164.813 12.5494 164.769 12.5267 164.72C12.5039 164.67 12.4921 164.616 12.4921 164.562C12.4921 164.508 12.5039 164.454 12.5267 164.405C12.5494 164.355 12.5826 164.311 12.624 164.276L35.442 144.826C35.5181 144.761 35.6168 144.729 35.7164 144.738C35.816 144.746 35.9083 144.793 35.973 144.869C36.0377 144.945 36.0695 145.044 36.0615 145.143C36.0534 145.243 36.0061 145.335 35.93 145.4L13.448 164.562L37.562 185.116C37.6205 185.166 37.6623 185.233 37.6817 185.307C37.7011 185.381 37.6973 185.46 37.6707 185.532C37.6441 185.604 37.5961 185.666 37.533 185.71C37.4699 185.754 37.3949 185.778 37.318 185.778Z" fill="white"/>
<path d="M179.686 214.496H72.286C72.2293 210.472 70.6015 206.63 67.7502 203.79C64.8989 200.949 61.0502 199.337 57.026 199.296V172.482C57.026 172.382 56.9864 172.287 56.9159 172.216C56.8453 172.146 56.7497 172.106 56.65 172.106C56.5503 172.106 56.4546 172.146 56.3841 172.216C56.3136 172.287 56.274 172.382 56.274 172.482V199.316C53.3097 199.436 50.4425 200.406 48.0149 202.112C45.5874 203.817 43.7021 206.185 42.5843 208.933C41.4665 211.682 41.1634 214.693 41.7113 217.609C42.2592 220.525 43.6349 223.221 45.674 225.376L38.54 232.52C38.2254 232.298 37.8406 232.198 37.4577 232.239C37.0747 232.28 36.72 232.46 36.46 232.744L21.714 247.488C21.4122 247.808 21.2469 248.232 21.2531 248.672C21.2593 249.112 21.4367 249.532 21.7474 249.843C22.0582 250.154 22.4779 250.331 22.9175 250.338C23.3571 250.344 23.782 250.179 24.102 249.878L38.848 235.134C39.133 234.874 39.3132 234.519 39.3544 234.135C39.3957 233.752 39.2952 233.367 39.072 233.052L46.216 225.908C48.3732 227.955 51.0755 229.335 53.9982 229.883C56.9208 230.431 59.9396 230.124 62.692 228.999C65.4443 227.873 67.8132 225.977 69.514 223.537C71.2148 221.098 72.1753 218.22 72.28 215.248H179.68C179.78 215.249 179.876 215.21 179.947 215.14C180.018 215.07 180.058 214.975 180.059 214.875C180.06 214.775 180.021 214.679 179.951 214.608C179.881 214.537 179.786 214.497 179.686 214.496ZM46.486 225.114C44.4796 223.092 43.1039 220.53 42.5261 217.74C41.9484 214.951 42.1934 212.053 43.2314 209.4C44.2695 206.747 46.0559 204.453 48.3734 202.796C50.691 201.14 53.4399 200.192 56.286 200.068C56.286 209.418 56.122 209.518 56.81 211.186C57.3193 212.389 58.1716 213.416 59.2606 214.139C60.3496 214.861 61.6272 215.247 62.934 215.248H71.534C71.4302 218.105 70.4953 220.869 68.8437 223.202C67.1921 225.535 64.8956 227.336 62.2358 228.383C59.5759 229.431 56.6683 229.679 53.8693 229.099C51.0703 228.518 48.5016 227.133 46.478 225.114H46.486Z" fill="white"/>
<path d="M165.6 53.6822H149.236C149.136 53.6822 149.041 53.6426 148.97 53.572C148.9 53.5015 148.86 53.4059 148.86 53.3062C148.86 53.2065 148.9 53.1108 148.97 53.0403C149.041 52.9698 149.136 52.9302 149.236 52.9302H165.6C165.7 52.9302 165.795 52.9698 165.866 53.0403C165.936 53.1108 165.976 53.2065 165.976 53.3062C165.976 53.4059 165.936 53.5015 165.866 53.572C165.795 53.6426 165.7 53.6822 165.6 53.6822Z" fill="white"/>
<path d="M157.042 61.486V45.122C157.049 45.0268 157.092 44.9377 157.162 44.8727C157.232 44.8076 157.323 44.7715 157.419 44.7715C157.514 44.7715 157.606 44.8076 157.676 44.8727C157.746 44.9377 157.789 45.0268 157.796 45.122V61.484C157.789 61.5793 157.747 61.6685 157.677 61.7337C157.607 61.7989 157.515 61.8353 157.42 61.8355C157.324 61.8358 157.232 61.7999 157.162 61.7351C157.092 61.6702 157.049 61.5812 157.042 61.486Z" fill="white"/>
<path d="M241.15 293.016C240.153 293.014 239.178 292.723 238.343 292.177C237.509 291.631 236.851 290.854 236.451 289.941C236.05 289.028 235.924 288.018 236.087 287.034C236.25 286.05 236.696 285.135 237.37 284.401C238.045 283.666 238.918 283.143 239.884 282.896C240.85 282.649 241.867 282.688 242.812 283.009C243.756 283.33 244.586 283.919 245.202 284.703C245.817 285.488 246.191 286.434 246.278 287.428C246.341 288.139 246.255 288.855 246.025 289.53C245.796 290.206 245.429 290.827 244.946 291.352C244.464 291.878 243.877 292.298 243.223 292.584C242.57 292.87 241.864 293.017 241.15 293.016ZM241.166 283.49C240.281 283.488 239.417 283.754 238.685 284.252C237.954 284.751 237.391 285.458 237.069 286.283C236.748 287.107 236.683 288.009 236.883 288.871C237.083 289.733 237.539 290.514 238.191 291.112C238.844 291.71 239.661 292.097 240.537 292.222C241.413 292.347 242.306 292.204 243.1 291.812C243.893 291.421 244.55 290.798 244.983 290.027C245.416 289.256 245.606 288.371 245.528 287.49C245.429 286.4 244.927 285.386 244.12 284.647C243.313 283.907 242.26 283.495 241.166 283.49Z" fill="white"/>
<path d="M299.524 176.418C299.54 176.602 299.52 176.787 299.465 176.963C299.409 177.139 299.32 177.303 299.201 177.444C299.082 177.586 298.937 177.702 298.773 177.788C298.61 177.873 298.431 177.925 298.247 177.941C298.063 177.957 297.878 177.937 297.702 177.882C297.526 177.826 297.362 177.737 297.221 177.618C297.08 177.499 296.963 177.354 296.878 177.191C296.792 177.027 296.74 176.848 296.724 176.664C296.691 176.293 296.808 175.924 297.047 175.638C297.287 175.353 297.63 175.174 298.001 175.141C298.372 175.109 298.741 175.225 299.027 175.464C299.313 175.704 299.491 176.047 299.524 176.418Z" fill="white"/>
<path d="M285 166.736C285.033 167.107 284.916 167.476 284.677 167.762C284.437 168.048 284.094 168.226 283.723 168.259C283.352 168.292 282.983 168.175 282.697 167.936C282.411 167.696 282.233 167.353 282.2 166.982C282.167 166.611 282.284 166.242 282.523 165.956C282.763 165.67 283.106 165.492 283.477 165.459C283.848 165.426 284.217 165.543 284.503 165.782C284.789 166.022 284.967 166.365 285 166.736Z" fill="white"/>
<path d="M298.114 155.5C298.147 155.871 298.03 156.241 297.791 156.526C297.551 156.812 297.208 156.991 296.837 157.023C296.466 157.056 296.097 156.94 295.811 156.7C295.525 156.461 295.347 156.117 295.314 155.746C295.298 155.562 295.318 155.377 295.373 155.201C295.429 155.025 295.518 154.862 295.637 154.72C295.756 154.579 295.901 154.462 296.065 154.377C296.228 154.292 296.407 154.239 296.591 154.223C296.775 154.207 296.96 154.227 297.136 154.283C297.312 154.338 297.476 154.428 297.617 154.546C297.758 154.665 297.875 154.81 297.96 154.974C298.046 155.137 298.098 155.316 298.114 155.5Z" fill="white"/>
<path d="M128.386 158.254V172.304L118.018 165.874C118.298 161.512 118.064 157.314 116.57 154.674C116.521 154.587 116.439 154.523 116.343 154.496C116.247 154.47 116.144 154.482 116.057 154.531C115.97 154.58 115.906 154.662 115.879 154.758C115.852 154.854 115.865 154.957 115.914 155.044C119.256 160.958 115.914 175.364 115.15 180.962C115.602 182.558 116.271 184.084 117.138 185.498H85.868C87.0233 184.139 88.0705 182.692 89 181.17C89.0264 181.115 89.0389 181.054 89.0365 180.993C89.0341 180.932 89.0167 180.873 88.986 180.82C86.3344 176.213 84.1662 171.344 82.516 166.29C80.79 160.77 81.572 160.324 80.81 160.314C80.496 160.372 80.95 159.752 75.822 168.652C71.94 170.021 67.9796 171.156 63.962 172.052C60.4997 172.838 56.8738 172.436 53.6669 170.913C50.46 169.39 47.8584 166.832 46.28 163.652L30.794 132.552C32.8572 130.134 35.4111 128.183 38.2862 126.827C41.1613 125.472 44.2918 124.743 47.47 124.69C61.8 153.6 61.07 152.518 61.534 152.4C70.7694 149.746 79.7528 146.282 88.38 142.05C94.742 145.178 102.22 146.566 108.794 143.766C112.942 145.798 119.032 146.736 125.93 152.184C125.969 152.215 126.014 152.237 126.063 152.25C126.111 152.264 126.161 152.267 126.21 152.261C126.26 152.255 126.308 152.239 126.351 152.214C126.394 152.19 126.432 152.157 126.463 152.117C126.494 152.078 126.516 152.033 126.529 151.985C126.543 151.937 126.546 151.886 126.54 151.837C126.534 151.787 126.518 151.74 126.493 151.696C126.468 151.653 126.435 151.615 126.396 151.584C114.912 142.514 105.72 145.742 104.316 136.584C107.899 136.3 111.339 135.057 114.276 132.984C116.406 131.347 118.103 129.214 119.218 126.77H122.476C122.576 126.77 122.671 126.731 122.742 126.66C122.812 126.59 122.852 126.494 122.852 126.394C122.852 126.294 122.812 126.199 122.742 126.128C122.671 126.058 122.576 126.018 122.476 126.018H119.536C120.678 123.145 120.991 120.01 120.441 116.968C119.891 113.926 118.499 111.099 116.423 108.808C114.347 106.517 111.671 104.854 108.698 104.007C105.724 103.16 102.573 103.164 99.602 104.018C99.883 102.263 99.6301 100.464 98.8762 98.8541C98.1223 97.2443 96.9022 95.8983 95.374 94.9904C93.8458 94.0825 92.08 93.6547 90.3058 93.7624C88.5315 93.8702 86.8305 94.5085 85.4235 95.5947C84.0164 96.6809 82.9681 98.1648 82.4146 99.8539C81.861 101.543 81.8278 103.36 82.3191 105.068C82.8104 106.776 83.8037 108.297 85.17 109.434C86.5364 110.571 88.2129 111.272 89.982 111.444C88.6916 113.623 87.9169 116.069 87.7172 118.594C87.5175 121.118 87.8982 123.655 88.83 126.01H69.296C69.1963 126.01 69.1006 126.05 69.0301 126.12C68.9596 126.191 68.92 126.286 68.92 126.386V149.244C66.626 150.022 64.204 150.8 61.628 151.588C47.128 122.31 48.066 123.988 47.762 123.922C46.6016 123.926 45.4431 124.017 44.296 124.192C42.1081 120.622 40.2926 116.837 38.878 112.896C37.678 109.27 36.952 108.872 36.41 108.976C35.498 109.14 35.46 111.024 35.486 111.826C35.532 113.174 36.468 117.104 35.862 117.518C35.792 117.566 35.596 117.546 35.262 117.354C29.77 113.462 23.758 109.438 22.748 108.886C19.294 106.992 18.496 107.316 18.198 107.726C18.064 107.908 17.724 108.372 18.952 109.916C12.868 106.116 11.91 107.768 12.78 109.146C10.89 108.782 10.25 109.146 10.064 109.574C9.99841 109.733 9.99312 109.91 10.0491 110.072C10.1051 110.234 10.2186 110.37 10.368 110.454C12.392 111.746 15.674 113.292 17.594 114.398C18.654 115.01 22.83 117.634 23.83 118.374C29.938 123.656 29.72 123.692 32.372 129.882C31.5406 130.636 30.7539 131.437 30.016 132.282C29.968 132.482 29.902 132.448 30.016 132.65L45.616 163.964C47.2664 167.298 49.9903 169.98 53.3495 171.578C56.7087 173.177 60.508 173.599 64.136 172.776C65.76 172.41 67.37 172.012 68.936 171.586V185.868C68.936 185.968 68.9756 186.064 69.0461 186.134C69.1166 186.205 69.2123 186.244 69.312 186.244H128.762C128.862 186.244 128.957 186.205 129.028 186.134C129.098 186.064 129.138 185.968 129.138 185.868V158.254C129.138 158.154 129.098 158.059 129.028 157.988C128.957 157.918 128.862 157.878 128.762 157.878C128.662 157.878 128.567 157.918 128.496 157.988C128.426 158.059 128.386 158.154 128.386 158.254ZM99.648 124.288C97.586 121.944 99.38 119.604 100.77 122.414C101.086 123.052 101.468 123.15 101.728 123.116C102.654 123.008 103.342 120.916 103.728 119.416C106.026 120.375 108.451 120.992 110.928 121.248C110.714 128.248 108.962 136.88 104.068 131.908C102.356 130.162 102.364 129.294 101.828 129.396C101.754 129.411 101.687 129.448 101.635 129.502C101.582 129.556 101.547 129.624 101.534 129.698C101.35 130.891 101.434 132.11 101.78 133.267C102.126 134.423 102.725 135.488 103.534 136.384C103.616 137.817 104.064 139.206 104.834 140.417C105.604 141.629 106.671 142.623 107.934 143.306C102.522 145.384 95.934 144.794 89.226 141.62C92.6594 140.295 95.4739 137.735 97.118 134.442C99.4 130.178 100.222 124.95 99.648 124.288ZM69.672 126.776H89.15C90.6681 130.003 93.1558 132.675 96.266 134.42C93.95 138.574 91.904 139.396 88.186 141.306C82.2097 144.314 76.0219 146.881 69.672 148.988V126.776ZM36.516 109.718C36.538 109.718 37.09 109.904 38.164 113.132C39.3515 116.5 40.8528 119.749 42.648 122.836C41.074 121.566 38.79 119.878 36.322 118.112C37.45 117.262 36.298 113.566 36.238 111.802C36.1623 111.095 36.2577 110.381 36.516 109.718ZM10.738 109.892C10.838 109.774 11.592 109.564 13.684 110.132C14.546 110.854 17.97 113.214 19.962 114.966C16 112.49 14.818 112.18 10.738 109.892ZM23.526 117.126C20.6734 114.439 17.6228 111.97 14.4 109.74C13.486 109.052 13.21 108.468 13.244 108.34C13.994 107.896 18.168 110 21.488 112.556C23.7448 114.807 25.761 117.287 27.504 119.956C27.8093 120.469 28.116 121.007 28.424 121.568C26.962 120.08 25.136 118.51 23.526 117.126ZM28.152 119.572C26.1677 116.561 23.8541 113.779 21.254 111.28C19.112 109.234 18.762 108.328 18.784 108.184C18.784 108.184 19.348 107.882 22.384 109.546C24.014 110.438 39.366 120.868 43.304 124.364C39.4847 125.112 35.9235 126.834 32.966 129.364C31.5493 126.011 29.942 122.742 28.152 119.572ZM84.834 185.492H69.672V171.38C73.8766 170.256 77.9754 168.767 81.922 166.932C83.5539 171.822 85.6634 176.54 88.22 181.016C87.2238 182.604 86.0909 184.102 84.834 185.492ZM128.386 185.492H118.016C117.143 184.072 116.435 182.557 115.906 180.976C116.33 177.936 117.506 172.318 117.956 166.722L128.386 173.2V185.492Z" fill="white"/>
<path d="M389.832 95.7802C389.644 95.5602 389.066 94.8842 385.612 97.3062C384.446 98.123 383.218 98.8485 381.94 99.4762C382.696 98.5682 383.886 97.1002 385.77 94.7422C386.57 93.7422 388.304 91.3422 387.408 90.5082C386.77 89.9082 385.36 90.5982 383.218 92.5482C382.191 93.4893 381.117 94.3777 380 95.2102C381.08 93.4842 382.694 90.8282 383.932 88.4542C384.58 87.2082 385.532 85.0242 384.554 84.3942C383.536 83.7342 381.754 85.6782 380.788 86.8982C380.55 87.1962 378.136 90.0482 375.678 92.9422C376.058 91.3568 376.577 89.8081 377.23 88.3142C378.146 86.1902 378.23 84.6822 377.464 84.2822C376.698 83.8822 375.464 84.8702 374.1 87.1062C373.86 87.5062 369.978 93.7362 369.268 94.5642C368.232 95.7802 367.566 96.1142 367.374 96.0462C365.062 95.1982 362.374 89.4082 359.962 90.5462C358.162 91.3902 360.786 95.5462 361.898 97.9142C362.07 98.8065 361.989 99.7292 361.664 100.578C361.338 101.426 360.781 102.166 360.056 102.714C360.024 102.736 359.816 102.914 359.494 103.188C358.985 102.807 358.375 102.582 357.74 102.542C357.105 102.503 356.473 102.649 355.92 102.964C355.592 103.222 332.32 121.652 317.72 132.85V126.836C317.72 126.736 317.68 126.641 317.61 126.57C317.539 126.5 317.444 126.46 317.344 126.46H311.666C311.719 125.93 311.649 125.395 311.46 124.898C311.27 124.4 310.968 123.953 310.576 123.592C311.081 123.318 311.51 122.924 311.826 122.445C312.142 121.965 312.334 121.415 312.387 120.843C312.439 120.272 312.349 119.696 312.125 119.167C311.902 118.638 311.551 118.173 311.104 117.812C311.429 117.411 311.631 116.925 311.686 116.412C312.201 116.819 312.846 117.024 313.501 116.989C314.156 116.954 314.776 116.682 315.245 116.222C315.713 115.763 315.998 115.149 316.046 114.495C316.095 113.84 315.902 113.191 315.506 112.668C316.163 112.599 316.771 112.291 317.215 111.802C317.659 111.313 317.909 110.679 317.915 110.018C317.922 109.358 317.686 108.718 317.251 108.221C316.817 107.723 316.215 107.403 315.56 107.32C315.976 106.81 316.191 106.165 316.165 105.507C316.138 104.849 315.871 104.223 315.415 103.748C314.959 103.273 314.345 102.982 313.688 102.929C313.032 102.876 312.379 103.065 311.852 103.46C311.753 102.799 311.421 102.195 310.916 101.758C310.41 101.32 309.765 101.078 309.097 101.075C308.429 101.071 307.781 101.307 307.271 101.739C306.762 102.172 306.424 102.772 306.318 103.432C305.797 103.039 305.15 102.848 304.499 102.895C303.848 102.942 303.235 103.223 302.776 103.688C302.317 104.152 302.042 104.767 302.002 105.419C301.962 106.071 302.161 106.715 302.56 107.232C302.159 107.268 301.772 107.398 301.43 107.612C301.089 107.825 300.802 108.116 300.594 108.46C300.224 107.938 299.724 107.523 299.142 107.256C298.561 106.99 297.919 106.882 297.282 106.942C296.645 107.003 296.036 107.231 295.516 107.603C294.995 107.975 294.582 108.478 294.318 109.06C293.8 108.64 293.172 108.378 292.509 108.306C291.846 108.234 291.177 108.355 290.581 108.654C289.985 108.953 289.488 109.418 289.15 109.993C288.811 110.568 288.646 111.228 288.674 111.894C288.023 111.788 287.355 111.871 286.75 112.134C286.144 112.396 285.627 112.826 285.258 113.373C284.89 113.92 284.686 114.562 284.671 115.221C284.656 115.881 284.831 116.531 285.174 117.094C284.523 117.293 283.945 117.678 283.512 118.203C283.078 118.727 282.809 119.368 282.737 120.045C282.666 120.721 282.795 121.404 283.109 122.008C283.422 122.612 283.907 123.11 284.502 123.44C284.088 123.815 283.771 124.285 283.579 124.81C283.387 125.335 283.326 125.898 283.4 126.452H257.86C257.76 126.452 257.665 126.492 257.594 126.562C257.524 126.633 257.484 126.728 257.484 126.828V186.302C257.484 186.402 257.524 186.498 257.594 186.568C257.665 186.639 257.76 186.678 257.86 186.678H317.328C317.428 186.678 317.523 186.639 317.594 186.568C317.664 186.498 317.704 186.402 317.704 186.302V161.342L369.052 121C370.424 120 370.132 117.946 369.626 116.33C377.39 109.802 379.406 107.502 385.426 101.95C386.182 101.254 386.984 100.466 387.81 99.6102C389.668 97.6682 390.348 96.3822 389.832 95.7802ZM303.686 133.658C304.287 133.929 304.953 134.021 305.605 133.925C306.257 133.828 306.867 133.547 307.364 133.114C307.861 132.682 308.224 132.116 308.409 131.483C308.595 130.851 308.595 130.179 308.41 129.546C309.099 129.514 309.762 129.273 310.312 128.857C310.862 128.44 311.272 127.867 311.49 127.212H316.95V133.424C311.508 137.59 307.398 140.644 306.372 141.184C300.438 144.296 296.972 142.246 296.132 136.102C296.66 135.848 297.114 135.465 297.454 134.988C297.844 135.544 298.39 135.973 299.022 136.221C299.654 136.47 300.346 136.526 301.01 136.385C301.674 136.243 302.282 135.909 302.758 135.424C303.234 134.939 303.557 134.325 303.686 133.658ZM284.554 127.694C285.03 125.518 286.072 121.354 288.176 120.596C290.032 119.926 291.838 122.416 292.628 124.224C292.923 124.9 293.136 125.608 293.262 126.334C293.53 127.16 294.1 127.312 294.662 126.974C295.02 126.73 295.34 126.433 295.61 126.094C297.41 123.994 299.61 127.438 295.82 130.338C295.276 130.75 295.232 133.086 295.232 133.772C295.232 137.066 296.098 141.262 299.032 142.788C294.566 151.354 290.57 154.666 287.566 145.564C288.454 144.71 289.153 143.679 289.616 142.537C290.079 141.395 290.297 140.168 290.254 138.936L291.804 136.854C291.839 136.795 291.858 136.728 291.857 136.66C291.856 136.591 291.837 136.524 291.801 136.466C291.765 136.408 291.713 136.361 291.652 136.33C291.591 136.3 291.522 136.287 291.454 136.292C291.254 136.324 291.054 136.492 290.302 136.754C284 139.038 283.128 134.2 284.554 127.694ZM258.238 127.212H283.578C283.638 127.369 283.709 127.521 283.79 127.668C282.486 133.892 283.208 139.392 289.39 137.818C289.614 139.157 289.5 140.53 289.058 141.814C288.617 143.097 287.862 144.25 286.862 145.168C283.274 149.054 275.008 145.502 258.232 171.088L258.238 127.212ZM269.02 185.926C272.063 182.943 274.757 179.623 277.05 176.03C277.794 178.546 279.09 182.47 280.404 185.926H269.02ZM277.55 175.048C274.484 164.302 276.13 162.312 278.232 157.882C278.274 157.792 278.279 157.688 278.245 157.594C278.211 157.5 278.141 157.424 278.051 157.381C277.961 157.339 277.857 157.334 277.763 157.368C277.669 157.402 277.592 157.472 277.55 157.562C275.408 162.128 273.68 164.14 276.774 175.072C274.297 179.051 271.323 182.698 267.924 185.926H258.238V172.468C274.438 147.386 282.31 149.766 286.936 146.098C287.986 149.168 289.212 150.964 290.66 151.542C288.556 161.006 288.952 172.468 291.756 185.926H281.2C279.736 182.056 278.34 177.82 277.55 175.048ZM316.95 185.926H310.084C310.08 179.206 310.693 172.499 311.916 165.89L316.95 161.934V185.926ZM368.6 120.388L318.328 159.894C311.956 161 312.284 160.884 312.14 161.084C311.986 161.35 311.252 165.342 311.202 165.612C309.951 172.31 309.325 179.109 309.332 185.922H292.532C289.752 172.574 289.314 161.084 291.388 151.722C294.76 152.164 298.134 146.104 299.71 143.076C300.903 143.342 302.136 143.369 303.339 143.158C304.542 142.946 305.692 142.499 306.722 141.842C310.556 139.828 354.522 105.024 356.374 103.548C359.988 100.8 372.414 117.618 368.6 120.388ZM387.264 99.0822C385.328 101.082 385.422 100.85 380.182 105.832C377.164 108.702 374.548 111.192 369.358 115.562C367.416 110.822 364.239 106.689 360.158 103.594C360.33 103.446 360.442 103.35 360.484 103.318C361.354 102.674 362.015 101.788 362.385 100.77C362.755 99.7526 362.816 98.6486 362.562 97.5962C362.032 96.4662 359.344 91.6642 360.268 91.2262C361.886 90.4622 364.732 95.8862 367.1 96.7522C367.342 96.8402 368.072 97.1082 369.824 95.0522C370.606 94.1402 374.688 87.5582 374.726 87.4962C376.178 85.1282 377 84.8962 377.102 84.9502C377.258 85.0322 377.418 85.9502 376.522 88.0182C375.648 89.9578 375.028 92.002 374.678 94.1002L373.76 95.1862C373.262 94.8382 372.726 94.4982 372.142 94.1642C372.056 94.1182 371.955 94.1075 371.861 94.1345C371.767 94.1615 371.687 94.224 371.639 94.3088C371.59 94.3936 371.576 94.494 371.601 94.5887C371.625 94.6834 371.685 94.765 371.768 94.8162C374.952 96.5143 377.434 99.2804 378.78 102.628C378.821 102.719 378.897 102.79 378.991 102.825C379.084 102.86 379.188 102.857 379.279 102.815C379.37 102.774 379.441 102.698 379.476 102.604C379.511 102.511 379.507 102.407 379.466 102.316C378.384 99.6803 376.627 97.3758 374.372 95.6342C374.898 95.0342 381.182 87.5922 381.36 87.3642C383.16 85.1102 384.028 84.9642 384.128 85.0242C384.228 85.0842 384.424 85.8522 383.248 88.1082C381.49 91.4802 378.88 95.5562 378.36 96.3622C378.313 96.4343 378.292 96.5203 378.301 96.6059C378.309 96.6915 378.347 96.7716 378.408 96.8327C378.468 96.8938 378.548 96.9322 378.634 96.9416C378.719 96.951 378.806 96.9307 378.878 96.8842C380.593 95.7613 382.21 94.4969 383.714 93.1042C385.822 91.1862 386.736 90.9842 386.88 91.0522C386.956 91.1702 386.88 92.1142 385.172 94.2742C384.05 95.6742 380.642 99.9582 380.252 100.246C380.175 100.299 380.121 100.378 380.099 100.469C380.077 100.56 380.09 100.655 380.135 100.737C380.18 100.819 380.254 100.881 380.342 100.912C380.43 100.942 380.526 100.939 380.612 100.902C382.521 100.106 384.339 99.1072 386.034 97.9222C388.234 96.3842 389.12 96.2242 389.234 96.2462C389.288 96.4002 389.018 97.2602 387.27 99.0822H387.264Z" fill="white"/>
<path d="M370.746 97.7844C372.89 101.564 372.7 104.774 370.182 107.33C370.118 107.402 370.084 107.496 370.087 107.592C370.09 107.689 370.13 107.78 370.199 107.848C370.267 107.915 370.359 107.954 370.455 107.956C370.551 107.958 370.645 107.923 370.716 107.858C373.5 105.034 373.73 101.52 371.4 97.4124C371.351 97.3256 371.269 97.2621 371.173 97.2356C371.077 97.2092 370.974 97.222 370.887 97.2714C370.8 97.3207 370.737 97.4025 370.71 97.4987C370.684 97.5949 370.697 97.6976 370.746 97.7844Z" fill="white"/>
<path d="M199.162 135.76C195.47 139.232 189.988 138.806 183.48 136.142C185.66 135.588 185.08 129.93 185.348 127.506C182.464 130.136 179.46 132.208 178.476 130.552C177.476 128.86 177.452 125.114 178.952 115.072C179.901 115.583 180.897 116.002 181.926 116.322C181.546 120.2 182.88 120.42 183.656 119.058C185.098 116.524 187.978 118.588 185.174 122.48C186.602 123.972 192.556 130.28 193.522 131.322C195.03 133.221 196.961 134.741 199.162 135.76Z" fill="#B2BEC3"/>
<path d="M290.108 232.104C285.612 231.85 281.888 239.554 280.496 244.504C279.454 247.952 279.128 251.576 279.538 255.154C279.954 257.886 281.03 259.79 282.674 260.256L241.628 248.902C238.604 248.068 235.798 246.586 233.404 244.558L205.364 220.806C203.604 240.53 192.398 326.886 192.398 326.886C183.342 329.275 173.748 328.571 165.138 324.886C166.67 310.066 174.622 225.578 181.072 183.802C179.588 181.522 176.958 170.514 175.45 163.816C183.174 168.146 175.162 138.428 175.104 138.216C176.504 137.816 178.078 137.444 179.956 136.992C181.331 140.893 182.353 144.909 183.01 148.992L204.348 148.41C203.621 144.321 202.578 140.295 201.23 136.366C203.115 136.88 204.922 137.645 206.602 138.642C206.72 138.732 208.868 141.104 210.1 148.504C210.647 151.875 210.811 155.297 210.588 158.704C210.045 165.843 210.126 173.016 210.83 180.14C219.218 183.926 223.876 192.606 227.43 199.924C232.214 209.81 244.178 220.784 244.178 220.784C294.518 233.184 289.908 232.094 290.108 232.104Z" fill="#B2BEC3"/>
<path d="M140.6 142.216C135.524 142.907 130.703 144.859 126.576 147.894C126.328 144.836 125.554 141.843 124.288 139.048C120.252 138.552 118.474 133.516 119.508 131.672C119.745 131.275 120.13 130.988 120.578 130.872C120.288 130.107 120.259 129.268 120.494 128.484C120.678 128.19 120.938 127.952 121.246 127.794C121.555 127.636 121.9 127.565 122.246 127.588C122.243 127.184 122.322 126.783 122.478 126.41C123.078 125.12 125.896 125.148 128.618 126.966C124.686 119.518 125.546 114.33 126.28 115.88C128.754 120.482 131.476 124.946 134.432 129.254C134.544 128.108 134.858 126.16 135.686 126.008C136.622 125.836 139.438 137.224 140.6 142.216Z" fill="#B2BEC3"/>
<path d="M270.494 212.626C268.906 212.02 267.362 211.306 265.872 210.488C267.563 212.228 269.347 213.876 271.216 215.424C273.688 217.09 272.456 218.624 269.388 217.234C267.478 216.293 265.63 215.231 263.856 214.054C265.29 215.742 266.576 217.382 267.188 217.934C269.398 219.918 267.988 221.31 265.168 219.534C263.519 218.444 261.941 217.25 260.444 215.96C260.89 216.857 261.408 217.717 261.994 218.53C263.91 220.694 262.696 221.544 260.054 219.646C254.944 215.763 250.099 211.543 245.552 207.014C250.784 204.776 255.005 200.683 257.402 195.522C259.528 197.189 261.971 198.407 264.582 199.1C272.514 201.12 271.636 203.368 262.11 202.858C265.074 205.841 268.39 208.453 271.986 210.634C274.494 212.25 273.688 213.8 270.494 212.626Z" fill="#B2BEC3"/>
<path d="M370.142 354.43H189.4C189.491 349.967 188.801 345.523 187.36 341.298C186.992 340.196 187.146 341.136 188.494 328.044C189.784 327.844 191.126 327.58 192.494 327.26C192.569 327.242 192.636 327.202 192.687 327.146C192.739 327.089 192.772 327.018 192.782 326.942C192.892 326.088 203.746 242.376 205.684 221.568L233.174 244.852C235.609 246.912 238.462 248.42 241.536 249.272L282.536 260.61C283.462 260.753 284.408 260.648 285.28 260.306C286.152 259.964 286.918 259.398 287.5 258.664C289.024 260.797 290.065 263.236 290.55 265.812C292.204 271.55 292.712 278.678 295.75 281.772C298.254 284.33 300.694 283.694 302.766 280.88C306.494 275.816 308.948 264.002 309.45 254.78C310.036 243.98 308.11 237.502 304.318 237.18C302.718 237.044 298.296 236.198 293.586 235.146C293.401 234.318 292.986 233.56 292.389 232.958C291.792 232.357 291.036 231.936 290.21 231.746L244.378 220.484C243.392 219.566 232.296 209.118 227.778 199.804C224.09 192.188 219.462 183.758 211.19 179.928C210.766 176.318 210.579 172.684 210.632 169.05C220.672 184.572 230.498 195.112 243.928 207.902C243.998 207.969 244.091 208.006 244.188 208.006C244.634 207.858 245.069 207.679 245.49 207.472C249.995 211.947 254.792 216.117 259.85 219.956C260.704 220.57 262.41 221.574 263.116 220.798C263.38 220.504 263.622 219.798 262.29 218.286C262.09 218.046 261.913 217.789 261.76 217.518C262.794 218.353 263.87 219.134 264.984 219.858C268.36 221.992 269.882 219.844 267.456 217.658C266.825 217.013 266.229 216.336 265.67 215.628C266.826 216.343 268.021 216.996 269.248 217.582C270.962 218.364 272.358 218.354 272.804 217.558C273.192 216.866 272.682 215.958 271.442 215.118C270.205 214.136 269.032 213.077 267.928 211.948C269.466 212.668 272.996 214.322 273.76 212.802C274.11 212.102 273.53 211.172 272.206 210.318C268.911 208.315 265.847 205.954 263.07 203.278C266.47 203.402 270.124 203.21 270.336 201.826C270.498 200.77 268.598 199.732 264.692 198.736C262.228 198.084 259.917 196.951 257.892 195.402C258.05 195.042 258.202 194.676 258.342 194.302C258.369 194.231 258.375 194.153 258.357 194.079C258.339 194.005 258.299 193.938 258.242 193.888C246.824 183.545 236.507 172.047 227.458 159.578C220.2 150.05 212.2 139.02 200.952 135.926C198.604 135.28 197.024 134.688 193.8 131.066C189.4 126.132 195.836 115.466 199.258 109.912C201.352 106.512 198.516 104.8 196.288 106.628C195.874 105.428 193.83 104.898 192.128 106.428C191.614 105.278 189.45 104.866 187.906 106.64C187.262 105.536 185.18 105.24 183.6 107.342C182.818 106.162 180.326 106.68 179.648 109.542C179.222 111.342 178.862 113.284 178.58 115.02C176.828 125.82 177.208 129.078 178.144 130.738C178.25 130.928 178.374 131.107 178.514 131.274C179.452 132.38 183.342 132.094 184.798 131.954C184.68 133.8 184.362 135.538 183.398 135.784C168.034 139.68 168.904 137.698 152.844 160.818C148.768 155.025 145.536 148.683 143.244 141.982C143.219 141.903 143.168 141.834 143.1 141.787C143.031 141.74 142.949 141.717 142.866 141.722L140.896 141.83C137.072 125.38 136.02 125.572 135.618 125.644C134.934 125.77 134.454 126.644 134.19 128.216C131.36 124.215 128.82 120.017 126.59 115.654C126.288 115.054 125.778 115.178 125.562 115.512C125.042 116.312 125.01 120.376 127.718 126.012C126.419 125.271 124.902 125.009 123.43 125.27C122.985 125.372 122.588 125.625 122.308 125.986C122.028 126.347 121.881 126.793 121.892 127.25C120.056 127.5 119.664 128.84 120.124 130.65C117.306 131.952 119.41 138.65 124.032 139.4C125.209 142.036 125.938 144.85 126.19 147.726C125.754 148.048 125.332 148.376 124.928 148.71C124.871 148.757 124.829 148.821 124.808 148.892C124.786 148.963 124.786 149.039 124.808 149.11C128.573 159.891 133.666 170.162 139.97 179.684C144.528 186.304 154.74 188.284 160.724 182.658C166.302 177.329 171.195 171.327 175.29 164.79C176.8 171.44 179.226 181.43 180.69 183.898C174.234 225.782 166.304 310.052 164.778 324.864C164.77 324.943 164.786 325.023 164.826 325.092C164.866 325.161 164.927 325.216 165 325.248C166.305 325.822 167.641 326.326 169 326.758L168.436 331.588C168.16 333.998 167.26 336.294 165.826 338.251C164.392 340.208 162.473 341.757 160.258 342.746C154.281 345.419 148.642 348.791 143.458 352.79C143.217 352.979 143.049 353.247 142.983 353.546C142.917 353.845 142.956 354.158 143.094 354.432H29.86C29.52 354.432 29.138 355.032 29.942 355.094C34.392 355.39 72.302 355.184 370.142 355.184C370.242 355.184 370.338 355.144 370.409 355.073C370.479 355.003 370.519 354.907 370.519 354.807C370.519 354.707 370.479 354.611 370.409 354.54C370.338 354.47 370.242 354.43 370.142 354.43ZM287.754 257.854C286.917 257.038 285.884 256.451 284.754 256.15C283.166 255.588 281.536 255.151 279.88 254.844C278.958 248.202 282.08 238.294 286.464 234.146C291.106 235.384 296.8 236.746 302.574 237.69C296.158 241.89 291.83 270.624 295.356 280.034C292.282 275.038 292.058 262.178 287.754 257.854ZM269.576 201.708C269.54 201.95 268.176 202.782 262.276 202.484C261.744 201.934 261.2 201.334 260.658 200.7C260.593 200.626 260.501 200.581 260.403 200.574C260.304 200.567 260.207 200.599 260.132 200.663C260.057 200.727 260.01 200.818 260.002 200.916C259.993 201.014 260.023 201.112 260.086 201.188C266.814 209.058 273.686 211.228 273.07 212.46C272.972 212.66 272.244 212.872 270.626 212.274C267.769 211.15 265.04 209.728 262.482 208.03C262.399 207.975 262.297 207.955 262.199 207.975C262.102 207.995 262.016 208.054 261.961 208.137C261.906 208.22 261.887 208.322 261.907 208.419C261.927 208.517 261.985 208.603 262.068 208.658C262.692 209.068 263.982 209.892 265.646 210.794C267.344 212.535 269.133 214.185 271.006 215.736C272.03 216.426 272.24 216.99 272.13 217.186C271.972 217.47 271.04 217.572 269.544 216.892C266.06 215.071 262.717 212.991 259.544 210.67C259.464 210.623 259.37 210.607 259.279 210.626C259.188 210.644 259.107 210.695 259.052 210.77C258.997 210.844 258.971 210.936 258.979 211.029C258.988 211.121 259.03 211.207 259.098 211.27C259.972 211.912 261.754 213.142 263.612 214.334C265.098 216.086 266.31 217.638 266.942 218.206C267.868 219.038 267.994 219.638 267.856 219.82C267.656 220.078 266.736 220.062 265.376 219.204C262.537 217.267 259.868 215.093 257.398 212.704C257.327 212.634 257.231 212.596 257.131 212.597C257.031 212.598 256.936 212.638 256.866 212.71C256.796 212.781 256.758 212.877 256.759 212.977C256.76 213.077 256.801 213.172 256.872 213.242C257.506 213.864 258.696 214.96 260.15 216.184C260.6 217.087 261.124 217.952 261.718 218.768C262.604 219.768 262.586 220.23 262.548 220.274C262.464 220.368 261.72 220.362 260.278 219.328C255.324 215.568 250.623 211.488 246.204 207.112C251.149 204.863 255.16 200.967 257.552 196.09C259.627 197.65 261.985 198.792 264.496 199.454C268.756 200.546 269.612 201.47 269.576 201.708ZM257.522 194.27C256.312 197.215 254.51 199.88 252.227 202.1C249.945 204.32 247.231 206.048 244.254 207.176C230.68 194.238 220.802 183.588 210.628 167.666C210.746 158.466 211.606 155.306 210.47 148.466C210.077 145.477 209.199 142.572 207.87 139.866C222.62 149.278 229.462 169.13 257.522 194.27ZM200.936 136.702C202.194 140.418 203.197 144.216 203.936 148.07L183.354 148.632C182.699 144.771 181.725 140.972 180.444 137.272C181.48 137.024 182.504 136.778 183.458 136.536C188.762 138.692 194.968 140.034 199.258 136.194C199.906 136.432 200.654 136.622 200.936 136.702ZM185.722 127.548C185.73 127.472 185.715 127.395 185.679 127.328C185.643 127.261 185.587 127.207 185.519 127.172C185.451 127.137 185.375 127.124 185.299 127.134C185.223 127.144 185.153 127.177 185.096 127.228C183.734 128.468 179.828 131.904 178.802 130.366C177.826 128.624 177.946 124.48 179.246 115.65C179.983 116.014 180.744 116.327 181.524 116.586C181.462 117.244 181.468 117.907 181.544 118.564C181.83 120.574 183.186 120.644 183.982 119.244C185.218 117.076 187.258 118.948 184.868 122.26C184.816 122.331 184.792 122.418 184.798 122.506C184.812 122.706 184.924 122.768 185.572 123.436C186.96 124.864 188.394 126.284 189.824 127.636C192.1 130.38 195.532 134.492 198.466 135.864C195.31 138.464 190.666 138.53 184.34 136.064C185.932 134.57 185.484 129.934 185.722 127.548ZM120.268 135.584C119.518 134.104 119.046 131.718 120.668 131.232C122 130.832 124.386 131.534 126.714 133.982C126.784 134.049 126.877 134.086 126.973 134.086C127.07 134.086 127.163 134.049 127.233 133.982C127.303 133.916 127.345 133.825 127.349 133.728C127.354 133.631 127.321 133.537 127.258 133.464C126.493 132.495 125.515 131.717 124.399 131.19C123.283 130.664 122.06 130.403 120.826 130.428C120.652 129.845 120.652 129.224 120.826 128.642C120.983 128.413 121.198 128.23 121.449 128.11C121.699 127.991 121.977 127.94 122.254 127.962C123.455 128.027 124.629 128.344 125.699 128.892C126.77 129.441 127.713 130.208 128.468 131.144C128.501 131.181 128.541 131.211 128.585 131.232C128.63 131.254 128.678 131.266 128.728 131.269C128.777 131.272 128.827 131.265 128.873 131.248C128.92 131.232 128.963 131.207 129 131.174C129.037 131.141 129.067 131.101 129.088 131.056C129.11 131.012 129.122 130.963 129.125 130.914C129.128 130.865 129.121 130.815 129.105 130.768C129.088 130.722 129.063 130.679 129.03 130.642C127.429 128.703 125.131 127.471 122.63 127.212C122.619 126.924 122.711 126.642 122.891 126.417C123.071 126.192 123.325 126.039 123.608 125.986C125.31 125.785 127.024 126.248 128.394 127.278C129.15 127.789 129.838 128.394 130.442 129.078C130.508 129.152 130.602 129.197 130.701 129.203C130.801 129.209 130.898 129.175 130.973 129.109C131.048 129.042 131.093 128.949 131.098 128.85C131.104 128.75 131.07 128.652 131.004 128.578C130.379 127.874 129.67 127.249 128.892 126.718C127.008 123.582 126.028 119.986 126.058 116.328C128.51 120.838 131.191 125.219 134.09 129.456C134.83 130.856 135.436 132.322 135.902 133.836C135.932 133.928 135.997 134.004 136.082 134.05C136.167 134.095 136.266 134.106 136.359 134.081C136.452 134.055 136.532 133.994 136.582 133.912C136.631 133.829 136.647 133.73 136.626 133.636C136.158 132.101 135.546 130.614 134.8 129.194C134.976 127.512 135.334 126.624 135.644 126.43C136.348 127.258 138.192 133.63 140.12 141.908C135.357 142.614 130.826 144.427 126.89 147.2C126.584 144.326 125.819 141.519 124.624 138.888C123.95 137.267 123.068 135.741 122 134.348C121.572 134.03 121.138 134.642 121.512 134.914C122.331 136.049 123.038 137.261 123.624 138.532C122.891 138.3 122.214 137.918 121.636 137.411C121.058 136.903 120.592 136.281 120.268 135.584ZM160.2 182.108C154.572 187.404 144.896 185.508 140.58 179.254C134.368 169.863 129.336 159.742 125.6 149.12C130.374 145.07 136.365 142.734 142.62 142.482C144.345 147.452 146.574 152.232 149.272 156.748C149.272 166.578 149.174 166.174 149.438 166.386L149.504 166.422L149.57 166.442C149.643 166.458 149.719 166.452 149.788 166.424C149.857 166.396 149.917 166.348 149.958 166.286C165.2 144.744 167.322 140.92 174.84 138.702C176.476 144.85 179.75 159.502 177.884 163.102C177.849 163.141 177.823 163.188 177.808 163.238C177.408 163.886 176.856 164.132 175.78 163.582C175.122 160.654 174.686 158.582 174.672 158.524C174.651 158.426 174.593 158.341 174.509 158.286C174.425 158.232 174.324 158.213 174.226 158.234C174.128 158.254 174.043 158.313 173.989 158.397C173.934 158.48 173.915 158.582 173.936 158.68C173.99 158.944 174.418 160.962 175.046 163.762C170.891 170.479 165.903 176.644 160.2 182.108ZM181.446 183.874C181.452 183.833 181.452 183.791 181.446 183.75C181.318 183.04 180.354 183.704 175.99 164.486C176.324 164.634 176.695 164.683 177.056 164.625C177.417 164.568 177.754 164.407 178.026 164.162L179.526 169.124C179.555 169.219 179.621 169.299 179.709 169.346C179.796 169.394 179.9 169.404 179.995 169.375C180.09 169.346 180.171 169.28 180.218 169.192C180.265 169.104 180.275 169.001 180.246 168.906L178.572 163.366C180.756 158.638 176.456 141.828 175.572 138.494C176.83 138.148 178.276 137.794 179.716 137.448C181.091 141.291 182.108 145.252 182.756 149.282C182.79 149.317 182.832 149.345 182.877 149.364C182.922 149.383 182.971 149.393 183.02 149.394C183.22 149.394 204.256 148.838 204.456 148.794C204.551 148.769 204.632 148.708 204.682 148.624C205.152 147.706 202.132 137.944 201.816 136.948C203.41 137.44 204.941 138.116 206.378 138.964C206.648 139.27 208.578 141.67 209.738 148.588C210.28 151.932 210.443 155.327 210.224 158.708C210.088 160.946 209.824 167.556 209.884 167.836C209.884 168.594 209.884 179.968 210.63 180.48L210.676 180.506C218.842 184.19 223.436 192.562 227.094 200.116C231.858 209.948 243.816 220.982 243.936 221.094C244.136 221.246 243.212 220.96 288.25 232.026C287.46 232.37 286.737 232.85 286.112 233.444C282.24 236.966 279.254 244.882 278.988 251.444L276.368 250.694C276.274 250.673 276.175 250.689 276.092 250.738C276.009 250.788 275.949 250.867 275.923 250.961C275.897 251.054 275.909 251.153 275.954 251.238C276 251.323 276.076 251.388 276.168 251.418L278.968 252.218C278.805 254.71 279.421 257.192 280.732 259.318L241.732 248.53C238.763 247.707 236.007 246.251 233.654 244.262L210.654 224.788L210.914 216.284C213.074 218.154 212.988 218.132 213.188 218.132C213.265 218.131 213.339 218.107 213.402 218.063C213.464 218.019 213.512 217.957 213.539 217.885C213.566 217.814 213.57 217.736 213.551 217.661C213.532 217.587 213.492 217.52 213.434 217.47L210.942 215.314C211.106 209.968 211.23 208.072 211.166 207.384C211.112 206.784 210.508 206.898 210.434 207.31C210.13 211.042 205.352 220.014 205.044 220.59C204.91 220.79 196.488 292.39 192.044 326.57C183.231 328.811 173.928 328.138 165.53 324.65C168 300.642 175.238 224.064 181.442 183.874H181.446ZM143.906 353.378C149.04 349.417 154.625 346.079 160.544 343.432C162.879 342.39 164.902 340.758 166.414 338.696C167.927 336.634 168.876 334.214 169.168 331.674L169.716 326.982C175.56 328.675 181.702 329.077 187.716 328.16C186.41 340.84 186.2 340.224 186.636 341.536C188.015 345.627 188.697 349.921 188.654 354.238C182.566 354.238 153.454 354.42 144.276 354.428C144.156 354.423 144.041 354.382 143.945 354.31C143.849 354.239 143.776 354.141 143.736 354.028C143.697 353.915 143.691 353.793 143.722 353.677C143.752 353.561 143.816 353.457 143.906 353.378Z" fill="white"/>
<path d="M176.462 262.692L177.08 256.804C177.09 256.705 177.061 256.606 176.998 256.528C176.935 256.451 176.844 256.402 176.745 256.391C176.646 256.381 176.547 256.41 176.469 256.473C176.392 256.536 176.342 256.627 176.332 256.726L175.714 262.614C175.704 262.713 175.733 262.813 175.796 262.89C175.859 262.968 175.95 263.017 176.049 263.027C176.148 263.038 176.247 263.008 176.325 262.945C176.402 262.882 176.452 262.791 176.462 262.692Z" fill="white"/>
<path d="M171.522 309.8L172.14 303.912C172.15 303.813 172.121 303.714 172.058 303.636C172.027 303.598 171.989 303.566 171.945 303.542C171.902 303.519 171.854 303.504 171.805 303.499C171.706 303.489 171.607 303.518 171.529 303.581C171.452 303.644 171.402 303.735 171.392 303.834L170.774 309.722C170.764 309.821 170.793 309.921 170.856 309.998C170.919 310.075 171.01 310.125 171.109 310.135C171.208 310.145 171.307 310.116 171.385 310.053C171.462 309.99 171.512 309.899 171.522 309.8Z" fill="white"/>
<path d="M173.17 294.096L173.786 288.208C173.796 288.109 173.767 288.01 173.704 287.932C173.641 287.855 173.55 287.805 173.451 287.795C173.352 287.785 173.253 287.814 173.175 287.877C173.098 287.94 173.048 288.031 173.038 288.13L172.42 294.018C172.417 294.113 172.45 294.207 172.513 294.279C172.576 294.351 172.664 294.396 172.759 294.406C172.854 294.416 172.949 294.389 173.025 294.332C173.102 294.274 173.153 294.19 173.17 294.096Z" fill="white"/>
<path d="M169.93 324.816L170.494 319.616C170.504 319.517 170.475 319.418 170.412 319.34C170.349 319.263 170.258 319.214 170.159 319.203C170.06 319.193 169.961 319.222 169.883 319.285C169.806 319.348 169.756 319.439 169.746 319.538L169.18 324.738C169.177 324.834 169.21 324.927 169.273 324.999C169.336 325.071 169.424 325.116 169.519 325.126C169.614 325.136 169.709 325.11 169.785 325.052C169.862 324.995 169.913 324.91 169.93 324.816Z" fill="white"/>
<path d="M174.816 278.4L175.434 272.512C175.444 272.413 175.415 272.314 175.352 272.236C175.289 272.159 175.198 272.11 175.099 272.099C175 272.089 174.901 272.118 174.823 272.181C174.746 272.244 174.696 272.335 174.686 272.434L174.066 278.322C174.063 278.418 174.096 278.511 174.159 278.583C174.222 278.655 174.31 278.7 174.405 278.71C174.5 278.72 174.595 278.694 174.671 278.636C174.748 278.579 174.799 278.494 174.816 278.4Z" fill="white"/>
<path d="M183.048 199.882L183.666 194C183.676 193.901 183.647 193.802 183.584 193.724C183.553 193.686 183.515 193.654 183.471 193.63C183.428 193.607 183.38 193.592 183.331 193.587C183.232 193.577 183.133 193.606 183.055 193.669C182.978 193.732 182.928 193.823 182.918 193.922L182.3 199.8C182.289 199.899 182.318 199.999 182.381 200.076C182.443 200.154 182.534 200.204 182.633 200.215C182.732 200.226 182.832 200.197 182.909 200.134C182.987 200.072 183.037 199.981 183.048 199.882Z" fill="white"/>
<path d="M183.946 184.102C183.936 184.201 183.965 184.301 184.028 184.378C184.091 184.455 184.182 184.505 184.281 184.515C184.38 184.525 184.479 184.496 184.557 184.433C184.634 184.37 184.684 184.279 184.694 184.18C184.76 183.54 184.906 184.358 183.094 178.352C183.065 178.257 182.999 178.177 182.911 178.129C182.824 178.082 182.72 178.072 182.625 178.101C182.53 178.13 182.449 178.196 182.402 178.284C182.355 178.372 182.345 178.475 182.374 178.57C184.158 184.436 183.984 183.744 183.946 184.102Z" fill="white"/>
<path d="M179.756 231.286L180.372 225.4C180.377 225.351 180.373 225.301 180.359 225.254C180.345 225.206 180.322 225.162 180.291 225.124C180.26 225.085 180.221 225.053 180.178 225.03C180.135 225.006 180.087 224.991 180.038 224.986C179.989 224.981 179.939 224.985 179.892 224.999C179.844 225.013 179.8 225.036 179.762 225.067C179.723 225.098 179.691 225.137 179.668 225.18C179.644 225.223 179.629 225.271 179.624 225.32L179 231.2C178.994 231.25 178.999 231.3 179.012 231.348C179.026 231.396 179.049 231.441 179.08 231.48C179.111 231.519 179.15 231.552 179.194 231.576C179.237 231.6 179.285 231.615 179.335 231.621C179.385 231.627 179.435 231.622 179.483 231.609C179.531 231.595 179.576 231.572 179.615 231.541C179.654 231.51 179.687 231.471 179.711 231.427C179.735 231.384 179.75 231.336 179.756 231.286Z" fill="white"/>
<path d="M178.108 247L178.726 241.112C178.736 241.013 178.707 240.913 178.644 240.836C178.581 240.758 178.49 240.709 178.391 240.699C178.292 240.688 178.193 240.718 178.115 240.781C178.038 240.844 177.988 240.935 177.978 241.034L177.36 246.922C177.35 247.021 177.379 247.12 177.442 247.198C177.505 247.275 177.596 247.324 177.695 247.335C177.794 247.345 177.893 247.316 177.971 247.253C178.048 247.19 178.098 247.099 178.108 247Z" fill="white"/>
<path d="M181.4 215.584L182.018 209.696C182.021 209.601 181.988 209.508 181.925 209.436C181.862 209.364 181.774 209.318 181.679 209.308C181.584 209.298 181.489 209.325 181.413 209.382C181.336 209.44 181.285 209.524 181.268 209.618L180.652 215.506C180.642 215.605 180.671 215.705 180.734 215.782C180.797 215.859 180.888 215.909 180.987 215.919C181.086 215.929 181.185 215.9 181.263 215.837C181.34 215.774 181.39 215.683 181.4 215.584Z" fill="white"/>
<path d="M224.888 228.384C224.964 228.449 225.062 228.482 225.162 228.475C225.261 228.467 225.354 228.421 225.419 228.345C225.484 228.269 225.517 228.171 225.509 228.071C225.502 227.972 225.456 227.879 225.38 227.814L220.902 223.942C220.826 223.881 220.73 223.852 220.633 223.861C220.536 223.87 220.446 223.916 220.383 223.989C220.319 224.063 220.286 224.158 220.291 224.255C220.296 224.352 220.339 224.444 220.41 224.51L224.888 228.384Z" fill="white"/>
<path d="M236.83 238.712C236.906 238.773 237.002 238.802 237.099 238.793C237.196 238.785 237.286 238.739 237.349 238.665C237.413 238.592 237.446 238.496 237.441 238.399C237.436 238.302 237.393 238.211 237.322 238.144L232.844 234.27C232.768 234.205 232.67 234.172 232.57 234.18C232.471 234.187 232.378 234.234 232.313 234.309C232.248 234.385 232.215 234.483 232.223 234.583C232.23 234.682 232.276 234.775 232.352 234.84L236.83 238.712Z" fill="white"/>
<path d="M260.974 247.078C265.814 248.468 266.574 248.726 266.774 248.726C266.864 248.725 266.951 248.692 267.019 248.632C267.087 248.572 267.131 248.49 267.144 248.401C267.156 248.311 267.136 248.22 267.088 248.144C267.039 248.068 266.964 248.012 266.878 247.986L261.186 246.356C261.139 246.342 261.089 246.338 261.04 246.343C260.991 246.348 260.943 246.363 260.9 246.387C260.856 246.411 260.818 246.443 260.787 246.481C260.756 246.519 260.733 246.564 260.719 246.611C260.705 246.658 260.701 246.708 260.706 246.757C260.711 246.806 260.726 246.854 260.75 246.897C260.773 246.941 260.805 246.979 260.844 247.01C260.882 247.041 260.927 247.064 260.974 247.078Z" fill="white"/>
<path d="M245.8 242.73C250.638 244.13 251.4 244.376 251.6 244.376C251.691 244.376 251.779 244.344 251.848 244.284C251.917 244.225 251.962 244.142 251.975 244.052C251.987 243.962 251.967 243.87 251.917 243.794C251.867 243.718 251.792 243.662 251.704 243.638L246 242C245.952 241.987 245.902 241.983 245.853 241.989C245.803 241.996 245.756 242.011 245.713 242.036C245.625 242.086 245.562 242.168 245.535 242.265C245.508 242.362 245.521 242.465 245.571 242.552C245.621 242.639 245.703 242.703 245.8 242.73Z" fill="white"/>
</svg>
