<svg width="400" height="401" viewBox="0 0 400 401" fill="none" xmlns="http://www.w3.org/2000/svg">
<path d="M330.43 151.84C330.43 151.74 330.39 151.644 330.32 151.574C330.249 151.503 330.154 151.464 330.054 151.464C329.954 151.464 329.859 151.503 329.788 151.574C329.718 151.644 329.678 151.74 329.678 151.84V209.282C329.675 210.844 329.053 212.341 327.949 213.446C326.844 214.55 325.346 215.172 323.784 215.174H207.02C206.92 215.174 206.825 215.213 206.754 215.284C206.684 215.354 206.644 215.45 206.644 215.55C206.644 215.649 206.684 215.745 206.754 215.816C206.825 215.886 206.92 215.926 207.02 215.926H323.784C325.546 215.924 327.235 215.224 328.481 213.978C329.727 212.732 330.428 211.043 330.43 209.282V151.84Z" fill="#1890ff"/>
<path d="M241.158 114.148H207.02C205.258 114.15 203.569 114.851 202.323 116.097C201.077 117.342 200.376 119.032 200.374 120.794V136.824C200.374 136.923 200.414 137.019 200.484 137.09C200.555 137.16 200.65 137.2 200.75 137.2C200.85 137.2 200.945 137.16 201.016 137.09C201.086 137.019 201.126 136.923 201.126 136.824V120.794C201.128 119.231 201.749 117.733 202.854 116.628C203.959 115.523 205.457 114.901 207.02 114.9H241.158C241.258 114.9 241.353 114.86 241.424 114.79C241.494 114.719 241.534 114.623 241.534 114.524C241.534 114.424 241.494 114.328 241.424 114.258C241.353 114.187 241.258 114.148 241.158 114.148Z" fill="#1890ff"/>
<path d="M330.43 120.792C330.428 119.03 329.727 117.341 328.481 116.095C327.235 114.85 325.546 114.149 323.784 114.148H290.022V105.832C290.022 105.732 289.982 105.636 289.912 105.566C289.841 105.495 289.746 105.456 289.646 105.456H241.158C241.058 105.456 240.963 105.495 240.892 105.566C240.822 105.636 240.782 105.732 240.782 105.832V119.064C240.782 119.113 240.792 119.162 240.811 119.208C240.83 119.253 240.857 119.295 240.892 119.33C240.927 119.364 240.968 119.392 241.014 119.411C241.06 119.43 241.109 119.44 241.158 119.44H289.646C289.695 119.44 289.744 119.43 289.79 119.411C289.836 119.392 289.877 119.364 289.912 119.33C289.947 119.295 289.974 119.253 289.993 119.208C290.012 119.162 290.022 119.113 290.022 119.064V114.9H323.784C325.346 114.902 326.844 115.523 327.949 116.628C329.053 117.732 329.675 119.229 329.678 120.792V124.246C329.678 124.345 329.718 124.441 329.788 124.512C329.859 124.582 329.954 124.622 330.054 124.622C330.154 124.622 330.249 124.582 330.32 124.512C330.39 124.441 330.43 124.345 330.43 124.246V120.792ZM289.27 118.682H241.534V106.202H289.27V118.682Z" fill="#1890ff"/>
<path d="M265.4 105.832C264.527 105.832 263.674 105.574 262.948 105.089C262.222 104.604 261.657 103.916 261.322 103.109C260.988 102.303 260.901 101.416 261.071 100.56C261.241 99.7041 261.661 98.9178 262.278 98.3006C262.894 97.6834 263.681 97.263 264.537 97.0926C265.392 96.9222 266.28 97.0094 267.086 97.3433C267.892 97.6772 268.581 98.2427 269.066 98.9682C269.551 99.6938 269.81 100.547 269.81 101.42C269.809 102.589 269.344 103.71 268.517 104.538C267.691 105.365 266.569 105.83 265.4 105.832ZM265.4 97.7636C264.676 97.7636 263.969 97.9782 263.368 98.3803C262.766 98.7823 262.297 99.3537 262.02 100.022C261.743 100.691 261.671 101.426 261.812 102.136C261.954 102.846 262.302 103.497 262.814 104.009C263.326 104.52 263.978 104.869 264.688 105.01C265.397 105.151 266.133 105.078 266.801 104.801C267.47 104.523 268.041 104.054 268.442 103.452C268.844 102.851 269.058 102.143 269.058 101.42C269.056 100.45 268.67 99.5208 267.985 98.8355C267.299 98.1501 266.369 97.7647 265.4 97.7636Z" fill="#1890ff"/>
<path d="M245.218 140.538H213.4C213.3 140.538 213.205 140.498 213.134 140.428C213.064 140.357 213.024 140.261 213.024 140.162V127.518C213.024 127.418 213.064 127.322 213.134 127.252C213.205 127.181 213.3 127.142 213.4 127.142H245.224C245.273 127.142 245.322 127.151 245.368 127.17C245.414 127.189 245.455 127.217 245.49 127.252C245.525 127.287 245.552 127.328 245.571 127.374C245.59 127.419 245.6 127.468 245.6 127.518V140.162C245.6 140.212 245.59 140.261 245.571 140.307C245.552 140.353 245.523 140.395 245.488 140.43C245.452 140.465 245.41 140.492 245.364 140.511C245.317 140.529 245.268 140.538 245.218 140.538ZM213.77 139.786H244.842V127.894H213.77V139.786Z" fill="#1890ff"/>
<path d="M245.218 163.916H229.464C229.364 163.916 229.269 163.876 229.198 163.806C229.128 163.735 229.088 163.639 229.088 163.54C229.088 163.44 229.128 163.344 229.198 163.274C229.269 163.203 229.364 163.164 229.464 163.164H244.842V153.326H221.304C221.204 153.326 221.109 153.286 221.038 153.216C220.968 153.145 220.928 153.049 220.928 152.95C220.928 152.85 220.968 152.754 221.038 152.684C221.109 152.613 221.204 152.574 221.304 152.574H245.218C245.318 152.574 245.413 152.613 245.484 152.684C245.554 152.754 245.594 152.85 245.594 152.95V163.55C245.591 163.648 245.551 163.741 245.48 163.809C245.41 163.877 245.316 163.916 245.218 163.916Z" fill="#1890ff"/>
<path d="M223.752 187.36H213.4C213.3 187.36 213.205 187.32 213.134 187.25C213.064 187.179 213.024 187.083 213.024 186.984V176.384C213.024 176.284 213.064 176.188 213.134 176.118C213.205 176.047 213.3 176.008 213.4 176.008H215.6C215.7 176.008 215.795 176.047 215.866 176.118C215.936 176.188 215.976 176.284 215.976 176.384C215.976 176.483 215.936 176.579 215.866 176.65C215.795 176.72 215.7 176.76 215.6 176.76H213.78V186.598H223.762C223.863 186.599 223.959 186.64 224.03 186.713C224.1 186.785 224.139 186.883 224.138 186.984C224.137 187.085 224.095 187.181 224.023 187.252C223.95 187.322 223.853 187.361 223.752 187.36Z" fill="#1890ff"/>
<path d="M244.842 182.396V176.77H239.826C239.726 176.77 239.631 176.73 239.56 176.66C239.49 176.589 239.45 176.493 239.45 176.394C239.45 176.294 239.49 176.198 239.56 176.128C239.631 176.057 239.726 176.018 239.826 176.018H245.226C245.326 176.018 245.421 176.057 245.492 176.128C245.562 176.198 245.602 176.294 245.602 176.394V182.394C245.602 182.494 245.562 182.591 245.491 182.663C245.42 182.734 245.324 182.774 245.223 182.775C245.122 182.775 245.025 182.735 244.954 182.664C244.883 182.593 244.842 182.496 244.842 182.396Z" fill="#1890ff"/>
<path d="M238.6 203.282H212.936C212.836 203.282 212.74 203.242 212.669 203.172C212.599 203.101 212.559 203.006 212.558 202.906V198.858C212.559 198.758 212.599 198.662 212.669 198.592C212.74 198.521 212.836 198.482 212.936 198.482H234.556C234.656 198.482 234.751 198.521 234.822 198.592C234.892 198.662 234.932 198.758 234.932 198.858C234.932 198.957 234.892 199.053 234.822 199.124C234.751 199.194 234.656 199.234 234.556 199.234H213.312V202.534H238.6C238.693 202.543 238.778 202.587 238.84 202.656C238.903 202.725 238.937 202.815 238.937 202.908C238.937 203.001 238.903 203.09 238.84 203.159C238.778 203.229 238.693 203.272 238.6 203.282Z" fill="#1890ff"/>
<path d="M317.328 203.282H252.674C252.574 203.282 252.479 203.242 252.408 203.172C252.338 203.101 252.298 203.005 252.298 202.906C252.298 202.806 252.338 202.71 252.408 202.64C252.479 202.569 252.574 202.53 252.674 202.53H316.95V199.23H255.972C255.872 199.23 255.777 199.19 255.706 199.12C255.636 199.049 255.596 198.953 255.596 198.854C255.596 198.754 255.636 198.658 255.706 198.588C255.777 198.517 255.872 198.478 255.972 198.478H317.328C317.377 198.478 317.426 198.487 317.472 198.506C317.518 198.525 317.559 198.553 317.594 198.588C317.629 198.623 317.656 198.664 317.675 198.71C317.694 198.755 317.704 198.804 317.704 198.854V202.906C317.704 202.955 317.694 203.004 317.675 203.05C317.656 203.095 317.629 203.137 317.594 203.172C317.559 203.206 317.518 203.234 317.472 203.253C317.426 203.272 317.377 203.282 317.328 203.282Z" fill="#1890ff"/>
<path d="M179.686 114.146H145.924V105.832C145.924 105.732 145.884 105.636 145.814 105.566C145.743 105.495 145.648 105.456 145.548 105.456H97.06C96.9603 105.456 96.8646 105.495 96.7941 105.566C96.7236 105.636 96.684 105.732 96.684 105.832V114.148H62.924C61.1617 114.149 59.472 114.85 58.2256 116.096C56.9793 117.342 56.2781 119.031 56.276 120.794V142.906C56.276 143.005 56.3156 143.101 56.3861 143.172C56.4566 143.242 56.5523 143.282 56.652 143.282C56.7517 143.282 56.8474 143.242 56.9179 143.172C56.9884 143.101 57.028 143.005 57.028 142.906V120.794C57.0301 119.231 57.652 117.733 58.7574 116.628C59.8627 115.523 61.3611 114.901 62.924 114.9H96.684V119.064C96.684 119.163 96.7236 119.259 96.7941 119.33C96.8646 119.4 96.9603 119.44 97.06 119.44H145.548C145.648 119.44 145.743 119.4 145.814 119.33C145.884 119.259 145.924 119.163 145.924 119.064V114.898H179.686C179.786 114.898 179.881 114.858 179.952 114.788C180.022 114.717 180.062 114.621 180.062 114.522C180.062 114.422 180.022 114.326 179.952 114.256C179.881 114.185 179.786 114.146 179.686 114.146ZM145.172 118.682H97.436V106.202H145.172V118.682Z" fill="#1890ff"/>
<path d="M121.304 105.832C120.431 105.834 119.577 105.577 118.85 105.094C118.122 104.611 117.555 103.922 117.219 103.116C116.884 102.31 116.794 101.423 116.963 100.566C117.132 99.7097 117.551 98.9224 118.168 98.3042C118.785 97.6859 119.571 97.2645 120.427 97.0933C121.283 96.9221 122.171 97.0088 122.978 97.3424C123.785 97.6759 124.474 98.2414 124.96 98.9672C125.445 99.693 125.704 100.547 125.704 101.42C125.703 102.587 125.239 103.707 124.415 104.534C123.59 105.361 122.472 105.827 121.304 105.832ZM121.304 97.7636C120.58 97.7636 119.873 97.9782 119.272 98.3803C118.67 98.7823 118.201 99.3537 117.924 100.022C117.647 100.691 117.575 101.426 117.716 102.136C117.858 102.846 118.206 103.497 118.718 104.009C119.23 104.52 119.882 104.869 120.592 105.01C121.301 105.151 122.037 105.078 122.705 104.801C123.374 104.523 123.945 104.054 124.346 103.452C124.748 102.851 124.962 102.143 124.962 101.42C124.96 100.45 124.574 99.5209 123.889 98.8355C123.203 98.1502 122.273 97.7647 121.304 97.7636Z" fill="#1890ff"/>
<path d="M173.312 139.546H141.478C141.429 139.546 141.38 139.536 141.334 139.517C141.288 139.498 141.247 139.47 141.212 139.436C141.177 139.401 141.149 139.359 141.131 139.314C141.112 139.268 141.102 139.219 141.102 139.17V127.082C141.102 126.982 141.142 126.886 141.212 126.815C141.282 126.744 141.378 126.704 141.478 126.704H173.312C173.412 126.704 173.508 126.744 173.578 126.815C173.648 126.886 173.688 126.982 173.688 127.082V139.168C173.688 139.217 173.679 139.266 173.66 139.312C173.641 139.358 173.614 139.4 173.579 139.435C173.544 139.47 173.502 139.498 173.456 139.517C173.411 139.536 173.362 139.546 173.312 139.546ZM141.854 138.794H172.936V127.46H141.854V138.794Z" fill="#1890ff"/>
<path d="M173.312 203.282H69.296C69.1963 203.282 69.1006 203.242 69.0301 203.172C68.9596 203.101 68.92 203.005 68.92 202.906V198.858C68.92 198.758 68.9596 198.662 69.0301 198.592C69.1006 198.521 69.1963 198.482 69.296 198.482H173.312C173.412 198.482 173.507 198.521 173.578 198.592C173.648 198.662 173.688 198.758 173.688 198.858V202.91C173.687 203.009 173.647 203.103 173.576 203.173C173.506 203.243 173.411 203.282 173.312 203.282ZM69.672 202.53H172.936V199.23H69.672V202.53Z" fill="#1890ff"/>
<path d="M173.312 186.926H141.478C141.378 186.926 141.282 186.886 141.211 186.816C141.141 186.745 141.101 186.65 141.1 186.55V181.648C141.107 181.552 141.15 181.463 141.22 181.398C141.29 181.333 141.382 181.297 141.477 181.297C141.573 181.297 141.664 181.333 141.734 181.398C141.804 181.463 141.847 181.552 141.854 181.648V186.174H172.936V167.682C172.936 167.582 172.976 167.486 173.046 167.416C173.117 167.345 173.212 167.306 173.312 167.306C173.412 167.306 173.507 167.345 173.578 167.416C173.648 167.486 173.688 167.582 173.688 167.682V186.548C173.688 186.597 173.679 186.646 173.66 186.692C173.641 186.738 173.614 186.78 173.579 186.815C173.544 186.85 173.502 186.878 173.456 186.897C173.411 186.916 173.362 186.926 173.312 186.926Z" fill="#1890ff"/>
<path d="M162.1 149.528H145.384C145.284 149.528 145.189 149.488 145.118 149.418C145.048 149.347 145.008 149.251 145.008 149.152C145.008 149.052 145.048 148.956 145.118 148.886C145.189 148.815 145.284 148.776 145.384 148.776H162.1C162.2 148.776 162.295 148.815 162.366 148.886C162.436 148.956 162.476 149.052 162.476 149.152C162.476 149.251 162.436 149.347 162.366 149.418C162.295 149.488 162.2 149.528 162.1 149.528Z" fill="#1890ff"/>
<path d="M348.53 186.492L372.644 165.94L348.53 145.386C348.454 145.321 348.407 145.228 348.4 145.129C348.392 145.029 348.424 144.931 348.489 144.855C348.554 144.779 348.646 144.732 348.746 144.724C348.846 144.716 348.944 144.749 349.02 144.814C375.236 167.142 373.6 165.67 373.6 165.94C373.6 166.21 375.26 164.7 349.02 187.066C348.943 187.124 348.847 187.15 348.751 187.14C348.655 187.13 348.567 187.083 348.504 187.01C348.442 186.936 348.41 186.842 348.414 186.746C348.419 186.649 348.46 186.558 348.53 186.492Z" fill="#1890ff"/>
<path d="M37.318 186.46C37.104 186.46 38.768 187.8 12.624 165.53C12.5826 165.494 12.5494 165.45 12.5267 165.401C12.5039 165.352 12.4921 165.298 12.4921 165.244C12.4921 165.189 12.5039 165.136 12.5267 165.086C12.5494 165.037 12.5826 164.993 12.624 164.958L35.442 145.508C35.5181 145.443 35.6168 145.411 35.7164 145.419C35.816 145.427 35.9083 145.475 35.973 145.551C36.0377 145.627 36.0695 145.725 36.0615 145.825C36.0534 145.925 36.0061 146.017 35.93 146.082L13.448 165.244L37.562 185.798C37.6205 185.848 37.6623 185.914 37.6817 185.989C37.7011 186.063 37.6973 186.142 37.6707 186.214C37.6441 186.286 37.5961 186.348 37.533 186.392C37.4699 186.436 37.3949 186.46 37.318 186.46Z" fill="#1890ff"/>
<path d="M179.686 215.178H72.286C72.2293 211.154 70.6015 207.311 67.7502 204.471C64.8989 201.631 61.0502 200.019 57.026 199.978V173.164C57.026 173.064 56.9864 172.968 56.9159 172.898C56.8453 172.827 56.7497 172.788 56.65 172.788C56.5503 172.788 56.4546 172.827 56.3841 172.898C56.3136 172.968 56.274 173.064 56.274 173.164V199.998C53.3097 200.117 50.4425 201.088 48.0149 202.793C45.5874 204.499 43.7021 206.867 42.5843 209.615C41.4665 212.363 41.1634 215.375 41.7113 218.291C42.2592 221.206 43.6349 223.903 45.674 226.058L38.54 233.202C38.2254 232.979 37.8406 232.88 37.4577 232.921C37.0747 232.962 36.72 233.142 36.46 233.426L21.714 248.17C21.4122 248.489 21.2469 248.914 21.2531 249.354C21.2593 249.793 21.4367 250.213 21.7474 250.524C22.0582 250.835 22.4779 251.013 22.9175 251.02C23.3571 251.026 23.782 250.861 24.102 250.56L38.848 235.816C39.133 235.556 39.3132 235.201 39.3544 234.817C39.3957 234.434 39.2952 234.048 39.072 233.734L46.216 226.59C48.3732 228.636 51.0755 230.017 53.9982 230.565C56.9208 231.113 59.9396 230.806 62.692 229.68C65.4443 228.555 67.8132 226.658 69.514 224.219C71.2148 221.78 72.1753 218.901 72.28 215.93H179.68C179.78 215.93 179.876 215.892 179.947 215.822C180.018 215.752 180.058 215.656 180.059 215.557C180.06 215.457 180.021 215.361 179.951 215.29C179.881 215.219 179.786 215.178 179.686 215.178ZM46.486 225.796C44.4796 223.773 43.1039 221.212 42.5261 218.422C41.9484 215.632 42.1934 212.735 43.2314 210.082C44.2695 207.429 46.0559 205.135 48.3734 203.478C50.691 201.821 53.4399 200.873 56.286 200.75C56.286 210.1 56.122 210.2 56.81 211.868C57.3193 213.071 58.1716 214.098 59.2606 214.82C60.3496 215.543 61.6272 215.929 62.934 215.93H71.534C71.4302 218.786 70.4953 221.551 68.8437 223.884C67.1921 226.217 64.8956 228.018 62.2358 229.065C59.5759 230.112 56.6683 230.361 53.8693 229.78C51.0703 229.199 48.5016 227.815 46.478 225.796H46.486Z" fill="#1890ff"/>
<path d="M165.6 54.3636H149.236C149.136 54.3636 149.041 54.324 148.97 54.2535C148.9 54.183 148.86 54.0874 148.86 53.9876C148.86 53.8879 148.9 53.7923 148.97 53.7218C149.041 53.6512 149.136 53.6116 149.236 53.6116H165.6C165.7 53.6116 165.795 53.6512 165.866 53.7218C165.936 53.7923 165.976 53.8879 165.976 53.9876C165.976 54.0874 165.936 54.183 165.866 54.2535C165.795 54.324 165.7 54.3636 165.6 54.3636Z" fill="#1890ff"/>
<path d="M157.042 62.1676V45.8036C157.049 45.7084 157.092 45.6193 157.162 45.5543C157.232 45.4893 157.323 45.4531 157.419 45.4531C157.514 45.4531 157.606 45.4893 157.676 45.5543C157.746 45.6193 157.789 45.7084 157.796 45.8036V62.1656C157.789 62.2609 157.747 62.3501 157.677 62.4153C157.607 62.4805 157.515 62.5169 157.42 62.5172C157.324 62.5174 157.232 62.4815 157.162 62.4167C157.092 62.3519 157.049 62.2629 157.042 62.1676Z" fill="#1890ff"/>
<path d="M241.15 293.698C240.153 293.696 239.178 293.405 238.343 292.859C237.509 292.313 236.851 291.536 236.451 290.623C236.05 289.709 235.924 288.699 236.087 287.716C236.25 286.732 236.696 285.817 237.37 285.082C238.045 284.348 238.918 283.825 239.884 283.578C240.85 283.331 241.867 283.37 242.812 283.691C243.756 284.012 244.586 284.6 245.202 285.385C245.817 286.17 246.191 287.116 246.278 288.11C246.341 288.82 246.255 289.537 246.025 290.212C245.796 290.888 245.429 291.509 244.946 292.034C244.464 292.56 243.877 292.979 243.223 293.266C242.57 293.552 241.864 293.699 241.15 293.698ZM241.166 284.172C240.281 284.17 239.417 284.436 238.685 284.934C237.954 285.432 237.391 286.14 237.069 286.964C236.748 287.789 236.683 288.691 236.883 289.553C237.083 290.415 237.539 291.196 238.191 291.794C238.844 292.392 239.661 292.779 240.537 292.904C241.413 293.029 242.306 292.886 243.1 292.494C243.893 292.103 244.55 291.48 244.983 290.709C245.416 289.937 245.606 289.053 245.528 288.172C245.429 287.082 244.927 286.068 244.12 285.329C243.313 284.589 242.26 284.177 241.166 284.172Z" fill="#1890ff"/>
<path d="M299.524 177.1C299.54 177.284 299.52 177.469 299.465 177.645C299.409 177.821 299.32 177.984 299.201 178.126C299.082 178.267 298.937 178.384 298.773 178.469C298.61 178.554 298.431 178.606 298.247 178.623C298.063 178.639 297.878 178.619 297.702 178.563C297.526 178.508 297.362 178.418 297.221 178.3C297.08 178.181 296.963 178.036 296.878 177.872C296.792 177.708 296.74 177.53 296.724 177.346C296.691 176.974 296.808 176.605 297.047 176.32C297.287 176.034 297.63 175.855 298.001 175.823C298.372 175.79 298.741 175.906 299.027 176.146C299.313 176.385 299.491 176.728 299.524 177.1Z" fill="#1890ff"/>
<path d="M285 167.418C285.033 167.789 284.916 168.158 284.677 168.444C284.437 168.729 284.094 168.908 283.723 168.941C283.352 168.973 282.983 168.857 282.697 168.618C282.411 168.378 282.233 168.035 282.2 167.664C282.167 167.292 282.284 166.923 282.523 166.638C282.763 166.352 283.106 166.173 283.477 166.141C283.848 166.108 284.217 166.224 284.503 166.464C284.789 166.703 284.967 167.046 285 167.418Z" fill="#1890ff"/>
<path d="M298.114 156.182C298.147 156.553 298.03 156.922 297.791 157.208C297.551 157.493 297.208 157.672 296.837 157.705C296.466 157.737 296.097 157.621 295.811 157.382C295.525 157.142 295.347 156.799 295.314 156.428C295.298 156.244 295.318 156.059 295.373 155.883C295.429 155.706 295.518 155.543 295.637 155.402C295.756 155.26 295.901 155.144 296.065 155.058C296.228 154.973 296.407 154.921 296.591 154.905C296.775 154.889 296.96 154.909 297.136 154.964C297.312 155.02 297.476 155.109 297.617 155.228C297.758 155.346 297.875 155.492 297.96 155.655C298.046 155.819 298.098 155.998 298.114 156.182Z" fill="#1890ff"/>
<path d="M128.386 158.936V172.986L118.018 166.556C118.298 162.194 118.064 157.996 116.57 155.356C116.521 155.269 116.439 155.205 116.343 155.178C116.247 155.151 116.144 155.164 116.057 155.213C115.97 155.262 115.906 155.343 115.879 155.44C115.852 155.536 115.865 155.639 115.914 155.726C119.256 161.64 115.914 176.046 115.15 181.644C115.602 183.239 116.271 184.766 117.138 186.18H85.868C87.0233 184.821 88.0705 183.374 89 181.852C89.0264 181.797 89.0389 181.736 89.0365 181.675C89.0341 181.614 89.0167 181.554 88.986 181.502C86.3344 176.894 84.1662 172.025 82.516 166.972C80.79 161.452 81.572 161.006 80.81 160.996C80.496 161.054 80.95 160.434 75.822 169.334C71.94 170.703 67.9796 171.838 63.962 172.734C60.4997 173.519 56.8738 173.118 53.6669 171.595C50.46 170.071 47.8584 167.514 46.28 164.334L30.794 133.234C32.8572 130.816 35.4111 128.864 38.2862 127.509C41.1613 126.153 44.2918 125.425 47.47 125.372C61.8 154.282 61.07 153.2 61.534 153.082C70.7694 150.427 79.7528 146.964 88.38 142.732C94.742 145.86 102.22 147.248 108.794 144.448C112.942 146.48 119.032 147.418 125.93 152.866C125.969 152.896 126.014 152.919 126.063 152.932C126.111 152.945 126.161 152.949 126.21 152.943C126.26 152.936 126.308 152.92 126.351 152.896C126.394 152.871 126.432 152.838 126.463 152.799C126.494 152.759 126.516 152.714 126.529 152.666C126.543 152.618 126.546 152.568 126.54 152.518C126.534 152.469 126.518 152.421 126.493 152.378C126.468 152.334 126.435 152.296 126.396 152.266C114.912 143.196 105.72 146.424 104.316 137.266C107.899 136.982 111.339 135.738 114.276 133.666C116.406 132.029 118.103 129.895 119.218 127.452H122.476C122.576 127.452 122.671 127.412 122.742 127.342C122.812 127.271 122.852 127.175 122.852 127.076C122.852 126.976 122.812 126.88 122.742 126.81C122.671 126.739 122.576 126.7 122.476 126.7H119.536C120.678 123.827 120.991 120.691 120.441 117.649C119.891 114.607 118.499 111.78 116.423 109.489C114.347 107.198 111.671 105.535 108.698 104.689C105.724 103.842 102.573 103.846 99.602 104.7C99.883 102.944 99.6301 101.145 98.8762 99.5356C98.1223 97.9258 96.9022 96.5797 95.374 95.6718C93.8458 94.7639 92.08 94.3361 90.3058 94.4439C88.5315 94.5517 86.8305 95.19 85.4235 96.2762C84.0164 97.3624 82.9681 98.8462 82.4146 100.535C81.861 102.225 81.8278 104.041 82.3191 105.749C82.8104 107.458 83.8037 108.979 85.17 110.116C86.5364 111.253 88.2129 111.953 89.982 112.126C88.6916 114.305 87.9169 116.75 87.7172 119.275C87.5175 121.8 87.8982 124.337 88.83 126.692H69.296C69.1963 126.692 69.1006 126.731 69.0301 126.802C68.9596 126.872 68.92 126.968 68.92 127.068V149.926C66.626 150.704 64.204 151.482 61.628 152.27C47.128 122.992 48.066 124.67 47.762 124.604C46.6016 124.608 45.4431 124.698 44.296 124.874C42.1081 121.304 40.2926 117.518 38.878 113.578C37.678 109.952 36.952 109.554 36.41 109.658C35.498 109.822 35.46 111.706 35.486 112.508C35.532 113.856 36.468 117.786 35.862 118.2C35.792 118.248 35.596 118.228 35.262 118.036C29.77 114.144 23.758 110.12 22.748 109.568C19.294 107.674 18.496 107.998 18.198 108.408C18.064 108.59 17.724 109.054 18.952 110.598C12.868 106.798 11.91 108.45 12.78 109.828C10.89 109.464 10.25 109.828 10.064 110.256C9.99841 110.414 9.99312 110.591 10.0491 110.753C10.1051 110.915 10.2186 111.051 10.368 111.136C12.392 112.428 15.674 113.974 17.594 115.08C18.654 115.692 22.83 118.316 23.83 119.056C29.938 124.338 29.72 124.374 32.372 130.564C31.5406 131.317 30.7539 132.118 30.016 132.964C29.968 133.164 29.902 133.13 30.016 133.332L45.616 164.646C47.2664 167.98 49.9903 170.661 53.3495 172.26C56.7087 173.858 60.508 174.28 64.136 173.458C65.76 173.092 67.37 172.694 68.936 172.268V186.55C68.936 186.649 68.9756 186.745 69.0461 186.816C69.1166 186.886 69.2123 186.926 69.312 186.926H128.762C128.862 186.926 128.957 186.886 129.028 186.816C129.098 186.745 129.138 186.649 129.138 186.55V158.936C129.138 158.836 129.098 158.74 129.028 158.67C128.957 158.599 128.862 158.56 128.762 158.56C128.662 158.56 128.567 158.599 128.496 158.67C128.426 158.74 128.386 158.836 128.386 158.936ZM99.648 124.97C97.586 122.626 99.38 120.286 100.77 123.096C101.086 123.734 101.468 123.832 101.728 123.798C102.654 123.69 103.342 121.598 103.728 120.098C106.026 121.057 108.451 121.674 110.928 121.93C110.714 128.93 108.962 137.562 104.068 132.59C102.356 130.844 102.364 129.976 101.828 130.078C101.754 130.093 101.687 130.13 101.635 130.184C101.582 130.237 101.547 130.306 101.534 130.38C101.35 131.573 101.434 132.792 101.78 133.948C102.126 135.105 102.725 136.17 103.534 137.066C103.616 138.499 104.064 139.887 104.834 141.099C105.604 142.31 106.671 143.305 107.934 143.988C102.522 146.066 95.934 145.476 89.226 142.302C92.6594 140.976 95.4739 138.416 97.118 135.124C99.4 130.86 100.222 125.632 99.648 124.97ZM69.672 127.458H89.15C90.6681 130.685 93.1558 133.357 96.266 135.102C93.95 139.256 91.904 140.078 88.186 141.988C82.2097 144.995 76.0219 147.563 69.672 149.67V127.458ZM36.516 110.4C36.538 110.4 37.09 110.586 38.164 113.814C39.3515 117.182 40.8528 120.431 42.648 123.518C41.074 122.248 38.79 120.56 36.322 118.794C37.45 117.944 36.298 114.248 36.238 112.484C36.1623 111.777 36.2577 111.062 36.516 110.4ZM10.738 110.574C10.838 110.456 11.592 110.246 13.684 110.814C14.546 111.536 17.97 113.896 19.962 115.648C16 113.172 14.818 112.862 10.738 110.574ZM23.526 117.808C20.6734 115.12 17.6228 112.651 14.4 110.422C13.486 109.734 13.21 109.15 13.244 109.022C13.994 108.578 18.168 110.682 21.488 113.238C23.7448 115.489 25.761 117.969 27.504 120.638C27.8093 121.151 28.116 121.688 28.424 122.25C26.962 120.762 25.136 119.192 23.526 117.808ZM28.152 120.254C26.1677 117.242 23.8541 114.461 21.254 111.962C19.112 109.916 18.762 109.01 18.784 108.866C18.784 108.866 19.348 108.564 22.384 110.228C24.014 111.12 39.366 121.55 43.304 125.046C39.4847 125.794 35.9235 127.516 32.966 130.046C31.5493 126.693 29.942 123.423 28.152 120.254ZM84.834 186.174H69.672V172.062C73.8766 170.937 77.9754 169.449 81.922 167.614C83.5539 172.504 85.6634 177.221 88.22 181.698C87.2238 183.285 86.0909 184.783 84.834 186.174ZM128.386 186.174H118.016C117.143 184.754 116.435 183.238 115.906 181.658C116.33 178.618 117.506 173 117.956 167.404L128.386 173.882V186.174Z" fill="#1890ff"/>
<path d="M389.832 96.4616C389.644 96.2416 389.066 95.5657 385.612 97.9877C384.446 98.8045 383.218 99.53 381.94 100.158C382.696 99.2496 383.886 97.7816 385.77 95.4236C386.57 94.4236 388.304 92.0237 387.408 91.1897C386.77 90.5897 385.36 91.2796 383.218 93.2296C382.191 94.1707 381.117 95.0592 380 95.8917C381.08 94.1657 382.694 91.5097 383.932 89.1357C384.58 87.8897 385.532 85.7056 384.554 85.0756C383.536 84.4156 381.754 86.3597 380.788 87.5797C380.55 87.8777 378.136 90.7297 375.678 93.6237C376.058 92.0383 376.577 90.4896 377.23 88.9957C378.146 86.8717 378.23 85.3636 377.464 84.9636C376.698 84.5636 375.464 85.5517 374.1 87.7877C373.86 88.1877 369.978 94.4177 369.268 95.2457C368.232 96.4617 367.566 96.7956 367.374 96.7276C365.062 95.8796 362.374 90.0896 359.962 91.2276C358.162 92.0716 360.786 96.2277 361.898 98.5957C362.07 99.4879 361.989 100.411 361.664 101.259C361.338 102.108 360.781 102.848 360.056 103.396C360.024 103.418 359.816 103.596 359.494 103.87C358.985 103.488 358.375 103.264 357.74 103.224C357.105 103.184 356.473 103.331 355.92 103.646C355.592 103.904 332.32 122.334 317.72 133.532V127.518C317.72 127.418 317.68 127.322 317.61 127.252C317.539 127.181 317.444 127.142 317.344 127.142H311.666C311.719 126.612 311.649 126.077 311.46 125.579C311.27 125.081 310.968 124.634 310.576 124.274C311.081 124 311.51 123.606 311.826 123.126C312.142 122.647 312.334 122.097 312.387 121.525C312.439 120.953 312.349 120.377 312.125 119.848C311.902 119.32 311.551 118.854 311.104 118.494C311.429 118.093 311.631 117.607 311.686 117.094C312.201 117.5 312.846 117.706 313.501 117.671C314.156 117.636 314.776 117.363 315.245 116.904C315.713 116.445 315.998 115.83 316.046 115.176C316.095 114.522 315.902 113.872 315.506 113.35C316.163 113.28 316.771 112.972 317.215 112.483C317.659 111.995 317.909 111.36 317.915 110.7C317.922 110.039 317.686 109.4 317.251 108.902C316.817 108.405 316.215 108.084 315.56 108.002C315.976 107.491 316.191 106.846 316.165 106.188C316.138 105.53 315.871 104.905 315.415 104.43C314.959 103.955 314.345 103.663 313.688 103.61C313.032 103.557 312.379 103.746 311.852 104.142C311.753 103.481 311.421 102.877 310.916 102.439C310.41 102.002 309.765 101.759 309.097 101.756C308.429 101.753 307.781 101.988 307.271 102.421C306.762 102.853 306.424 103.454 306.318 104.114C305.797 103.72 305.15 103.529 304.499 103.576C303.848 103.623 303.235 103.905 302.776 104.369C302.317 104.834 302.042 105.449 302.002 106.101C301.962 106.753 302.161 107.397 302.56 107.914C302.159 107.95 301.772 108.08 301.43 108.293C301.089 108.506 300.802 108.797 300.594 109.142C300.224 108.62 299.724 108.204 299.142 107.938C298.561 107.671 297.919 107.563 297.282 107.624C296.645 107.685 296.036 107.913 295.516 108.285C294.995 108.656 294.582 109.159 294.318 109.742C293.8 109.321 293.172 109.06 292.509 108.987C291.846 108.915 291.177 109.036 290.581 109.336C289.985 109.635 289.488 110.1 289.15 110.674C288.811 111.249 288.646 111.909 288.674 112.576C288.023 112.47 287.355 112.553 286.75 112.815C286.144 113.077 285.627 113.507 285.258 114.055C284.89 114.602 284.686 115.243 284.671 115.903C284.656 116.562 284.831 117.212 285.174 117.776C284.523 117.974 283.945 118.36 283.512 118.884C283.078 119.409 282.809 120.05 282.737 120.726C282.666 121.403 282.795 122.086 283.109 122.69C283.422 123.293 283.907 123.791 284.502 124.122C284.088 124.497 283.771 124.967 283.579 125.492C283.387 126.016 283.326 126.58 283.4 127.134H257.86C257.76 127.134 257.665 127.173 257.594 127.244C257.524 127.314 257.484 127.41 257.484 127.51V186.984C257.484 187.083 257.524 187.179 257.594 187.25C257.665 187.32 257.76 187.36 257.86 187.36H317.328C317.428 187.36 317.523 187.32 317.594 187.25C317.664 187.179 317.704 187.083 317.704 186.984V162.024L369.052 121.682C370.424 120.682 370.132 118.628 369.626 117.012C377.39 110.484 379.406 108.184 385.426 102.632C386.182 101.936 386.984 101.148 387.81 100.292C389.668 98.3497 390.348 97.0637 389.832 96.4616ZM303.686 134.34C304.287 134.61 304.953 134.702 305.605 134.606C306.257 134.51 306.867 134.229 307.364 133.796C307.861 133.363 308.224 132.797 308.409 132.165C308.595 131.532 308.595 130.86 308.41 130.228C309.099 130.195 309.762 129.955 310.312 129.538C310.862 129.121 311.272 128.548 311.49 127.894H316.95V134.106C311.508 138.272 307.398 141.326 306.372 141.866C300.438 144.978 296.972 142.928 296.132 136.784C296.66 136.53 297.114 136.147 297.454 135.67C297.844 136.226 298.39 136.654 299.022 136.903C299.654 137.151 300.346 137.208 301.01 137.066C301.674 136.924 302.282 136.59 302.758 136.105C303.234 135.621 303.557 135.007 303.686 134.34ZM284.554 128.376C285.03 126.2 286.072 122.036 288.176 121.278C290.032 120.608 291.838 123.098 292.628 124.906C292.923 125.581 293.136 126.29 293.262 127.016C293.53 127.842 294.1 127.994 294.662 127.656C295.02 127.411 295.34 127.115 295.61 126.776C297.41 124.676 299.61 128.12 295.82 131.02C295.276 131.432 295.232 133.768 295.232 134.454C295.232 137.748 296.098 141.944 299.032 143.47C294.566 152.036 290.57 155.348 287.566 146.246C288.454 145.392 289.153 144.36 289.616 143.218C290.079 142.076 290.297 140.849 290.254 139.618L291.804 137.536C291.839 137.477 291.858 137.41 291.857 137.341C291.856 137.273 291.837 137.206 291.801 137.148C291.765 137.09 291.713 137.043 291.652 137.012C291.591 136.981 291.522 136.968 291.454 136.974C291.254 137.006 291.054 137.174 290.302 137.436C284 139.72 283.128 134.882 284.554 128.376ZM258.238 127.894H283.578C283.638 128.05 283.709 128.203 283.79 128.35C282.486 134.574 283.208 140.074 289.39 138.5C289.614 139.838 289.5 141.212 289.058 142.495C288.617 143.779 287.862 144.932 286.862 145.85C283.274 149.736 275.008 146.184 258.232 171.77L258.238 127.894ZM269.02 186.608C272.063 183.624 274.757 180.304 277.05 176.712C277.794 179.228 279.09 183.152 280.404 186.608H269.02ZM277.55 175.73C274.484 164.984 276.13 162.994 278.232 158.564C278.274 158.473 278.279 158.37 278.245 158.276C278.211 158.182 278.141 158.105 278.051 158.063C277.961 158.02 277.857 158.015 277.763 158.049C277.669 158.083 277.592 158.153 277.55 158.244C275.408 162.81 273.68 164.822 276.774 175.754C274.297 179.733 271.323 183.38 267.924 186.608H258.238V173.15C274.438 148.068 282.31 150.448 286.936 146.78C287.986 149.85 289.212 151.646 290.66 152.224C288.556 161.688 288.952 173.15 291.756 186.608H281.2C279.736 182.738 278.34 178.502 277.55 175.73ZM316.95 186.608H310.084C310.08 179.887 310.693 173.18 311.916 166.572L316.95 162.616V186.608ZM368.6 121.07L318.328 160.576C311.956 161.682 312.284 161.566 312.14 161.766C311.986 162.032 311.252 166.024 311.202 166.294C309.951 172.991 309.325 179.79 309.332 186.604H292.532C289.752 173.256 289.314 161.766 291.388 152.404C294.76 152.846 298.134 146.786 299.71 143.758C300.903 144.023 302.136 144.051 303.339 143.839C304.542 143.627 305.692 143.18 306.722 142.524C310.556 140.51 354.522 105.706 356.374 104.23C359.988 101.482 372.414 118.3 368.6 121.07ZM387.264 99.7637C385.328 101.764 385.422 101.532 380.182 106.514C377.164 109.384 374.548 111.874 369.358 116.244C367.416 111.504 364.239 107.371 360.158 104.276C360.33 104.128 360.442 104.032 360.484 104C361.354 103.356 362.015 102.469 362.385 101.452C362.755 100.434 362.816 99.3301 362.562 98.2777C362.032 97.1477 359.344 92.3456 360.268 91.9076C361.886 91.1436 364.732 96.5676 367.1 97.4337C367.342 97.5217 368.072 97.7897 369.824 95.7337C370.606 94.8217 374.688 88.2397 374.726 88.1777C376.178 85.8097 377 85.5776 377.102 85.6316C377.258 85.7136 377.418 86.6316 376.522 88.6996C375.648 90.6392 375.028 92.6834 374.678 94.7816L373.76 95.8676C373.262 95.5196 372.726 95.1797 372.142 94.8457C372.056 94.7996 371.955 94.789 371.861 94.816C371.767 94.843 371.687 94.9055 371.639 94.9903C371.59 95.075 371.576 95.1754 371.601 95.2701C371.625 95.3649 371.685 95.4465 371.768 95.4977C374.952 97.1957 377.434 99.9619 378.78 103.31C378.821 103.401 378.897 103.471 378.991 103.506C379.084 103.542 379.188 103.538 379.279 103.497C379.37 103.455 379.441 103.379 379.476 103.286C379.511 103.192 379.507 103.089 379.466 102.998C378.384 100.362 376.627 98.0572 374.372 96.3157C374.898 95.7157 381.182 88.2736 381.36 88.0456C383.16 85.7916 384.028 85.6457 384.128 85.7057C384.228 85.7657 384.424 86.5337 383.248 88.7897C381.49 92.1617 378.88 96.2377 378.36 97.0437C378.313 97.1157 378.292 97.2017 378.301 97.2874C378.309 97.373 378.347 97.4531 378.408 97.5142C378.468 97.5753 378.548 97.6137 378.634 97.6231C378.719 97.6324 378.806 97.6122 378.878 97.5657C380.593 96.4428 382.21 95.1783 383.714 93.7856C385.822 91.8676 386.736 91.6657 386.88 91.7337C386.956 91.8517 386.88 92.7957 385.172 94.9557C384.05 96.3557 380.642 100.64 380.252 100.928C380.175 100.98 380.121 101.06 380.099 101.151C380.077 101.241 380.09 101.337 380.135 101.419C380.18 101.5 380.254 101.563 380.342 101.593C380.43 101.624 380.526 101.62 380.612 101.584C382.521 100.788 384.339 99.7887 386.034 98.6036C388.234 97.0656 389.12 96.9057 389.234 96.9277C389.288 97.0817 389.018 97.9417 387.27 99.7637H387.264Z" fill="#1890ff"/>
<path d="M370.746 98.4656C372.89 102.246 372.7 105.456 370.182 108.012C370.118 108.084 370.084 108.177 370.087 108.274C370.09 108.37 370.13 108.461 370.199 108.529C370.267 108.597 370.359 108.636 370.455 108.637C370.551 108.639 370.645 108.604 370.716 108.54C373.5 105.716 373.73 102.202 371.4 98.0936C371.351 98.0069 371.269 97.9433 371.173 97.9169C371.077 97.8905 370.974 97.9033 370.887 97.9526C370.8 98.002 370.737 98.0837 370.71 98.1799C370.684 98.2761 370.697 98.3789 370.746 98.4656Z" fill="#1890ff"/>
<path d="M199.162 136.442C195.47 139.914 189.988 139.488 183.48 136.824C185.66 136.27 185.08 130.612 185.348 128.188C182.464 130.818 179.46 132.89 178.476 131.234C177.476 129.542 177.452 125.796 178.952 115.754C179.901 116.265 180.897 116.684 181.926 117.004C181.546 120.882 182.88 121.102 183.656 119.74C185.098 117.206 187.978 119.27 185.174 123.162C186.602 124.654 192.556 130.962 193.522 132.004C195.03 133.903 196.961 135.423 199.162 136.442Z" fill="#FFE7EA"/>
<path d="M290.108 232.786C285.612 232.532 281.888 240.236 280.496 245.186C279.454 248.633 279.128 252.257 279.538 255.836C279.954 258.568 281.03 260.472 282.674 260.938L241.628 249.584C238.604 248.749 235.798 247.267 233.404 245.24L205.364 221.488C203.604 241.212 192.398 327.568 192.398 327.568C183.342 329.956 173.748 329.253 165.138 325.568C166.67 310.748 174.622 226.26 181.072 184.484C179.588 182.204 176.958 171.196 175.45 164.498C183.174 168.828 175.162 139.11 175.104 138.898C176.504 138.498 178.078 138.126 179.956 137.674C181.331 141.574 182.353 145.59 183.01 149.674L204.348 149.092C203.621 145.003 202.578 140.976 201.23 137.048C203.115 137.561 204.922 138.327 206.602 139.324C206.72 139.414 208.868 141.786 210.1 149.186C210.647 152.556 210.811 155.978 210.588 159.386C210.045 166.524 210.126 173.697 210.83 180.822C219.218 184.608 223.876 193.288 227.43 200.606C232.214 210.492 244.178 221.466 244.178 221.466C294.518 233.866 289.908 232.776 290.108 232.786Z" fill="#FFE7EA"/>
<path d="M140.6 142.898C135.524 143.588 130.703 145.541 126.576 148.576C126.328 145.517 125.554 142.525 124.288 139.73C120.252 139.234 118.474 134.198 119.508 132.354C119.745 131.957 120.13 131.669 120.578 131.554C120.288 130.789 120.259 129.949 120.494 129.166C120.678 128.872 120.938 128.633 121.246 128.476C121.555 128.318 121.9 128.247 122.246 128.27C122.243 127.865 122.322 127.465 122.478 127.092C123.078 125.802 125.896 125.83 128.618 127.648C124.686 120.2 125.546 115.012 126.28 116.562C128.754 121.163 131.476 125.628 134.432 129.936C134.544 128.79 134.858 126.842 135.686 126.69C136.622 126.518 139.438 137.906 140.6 142.898Z" fill="#FFE7EA"/>
<path d="M270.494 213.308C268.906 212.702 267.362 211.987 265.872 211.17C267.563 212.91 269.347 214.557 271.216 216.106C273.688 217.772 272.456 219.306 269.388 217.916C267.478 216.974 265.63 215.912 263.856 214.736C265.29 216.424 266.576 218.064 267.188 218.616C269.398 220.6 267.988 221.992 265.168 220.216C263.519 219.126 261.941 217.932 260.444 216.642C260.89 217.539 261.408 218.398 261.994 219.212C263.91 221.376 262.696 222.226 260.054 220.328C254.944 216.445 250.099 212.225 245.552 207.696C250.784 205.458 255.005 201.365 257.402 196.204C259.528 197.871 261.971 199.088 264.582 199.782C272.514 201.802 271.636 204.05 262.11 203.54C265.074 206.523 268.39 209.134 271.986 211.316C274.494 212.932 273.688 214.482 270.494 213.308Z" fill="#FFE7EA"/>
<path d="M370.142 355.112H189.4C189.491 350.649 188.801 346.204 187.36 341.98C186.992 340.878 187.146 341.818 188.494 328.726C189.784 328.526 191.126 328.262 192.494 327.942C192.569 327.924 192.636 327.884 192.687 327.827C192.739 327.771 192.772 327.7 192.782 327.624C192.892 326.77 203.746 243.058 205.684 222.25L233.174 245.534C235.609 247.594 238.462 249.101 241.536 249.954L282.536 261.292C283.462 261.434 284.408 261.33 285.28 260.988C286.152 260.646 286.918 260.079 287.5 259.346C289.024 261.479 290.065 263.918 290.55 266.494C292.204 272.232 292.712 279.36 295.75 282.454C298.254 285.012 300.694 284.376 302.766 281.562C306.494 276.498 308.948 264.684 309.45 255.462C310.036 244.662 308.11 238.184 304.318 237.862C302.718 237.726 298.296 236.88 293.586 235.828C293.401 235 292.986 234.242 292.389 233.64C291.792 233.039 291.036 232.618 290.21 232.428L244.378 221.166C243.392 220.248 232.296 209.8 227.778 200.486C224.09 192.87 219.462 184.44 211.19 180.61C210.766 177 210.579 173.366 210.632 169.732C220.672 185.254 230.498 195.794 243.928 208.584C243.998 208.65 244.091 208.688 244.188 208.688C244.634 208.54 245.069 208.361 245.49 208.154C249.995 212.629 254.792 216.799 259.85 220.638C260.704 221.252 262.41 222.256 263.116 221.48C263.38 221.186 263.622 220.48 262.29 218.968C262.09 218.728 261.913 218.471 261.76 218.2C262.794 219.035 263.87 219.816 264.984 220.54C268.36 222.674 269.882 220.526 267.456 218.34C266.825 217.695 266.229 217.017 265.67 216.31C266.826 217.025 268.021 217.678 269.248 218.264C270.962 219.046 272.358 219.036 272.804 218.24C273.192 217.548 272.682 216.64 271.442 215.8C270.205 214.818 269.032 213.759 267.928 212.63C269.466 213.35 272.996 215.004 273.76 213.484C274.11 212.784 273.53 211.854 272.206 211C268.911 208.997 265.847 206.636 263.07 203.96C266.47 204.084 270.124 203.892 270.336 202.508C270.498 201.452 268.598 200.414 264.692 199.418C262.228 198.765 259.917 197.632 257.892 196.084C258.05 195.724 258.202 195.358 258.342 194.984C258.369 194.913 258.375 194.835 258.357 194.761C258.339 194.687 258.299 194.62 258.242 194.57C246.824 184.226 236.507 172.728 227.458 160.26C220.2 150.732 212.2 139.702 200.952 136.608C198.604 135.962 197.024 135.37 193.8 131.748C189.4 126.814 195.836 116.148 199.258 110.594C201.352 107.194 198.516 105.482 196.288 107.31C195.874 106.11 193.83 105.58 192.128 107.11C191.614 105.96 189.45 105.548 187.906 107.322C187.262 106.218 185.18 105.922 183.6 108.024C182.818 106.844 180.326 107.362 179.648 110.224C179.222 112.024 178.862 113.966 178.58 115.702C176.828 126.502 177.208 129.76 178.144 131.42C178.25 131.61 178.374 131.789 178.514 131.956C179.452 133.062 183.342 132.776 184.798 132.636C184.68 134.482 184.362 136.22 183.398 136.466C168.034 140.362 168.904 138.38 152.844 161.5C148.768 155.707 145.536 149.365 143.244 142.664C143.219 142.584 143.168 142.516 143.1 142.469C143.031 142.422 142.949 142.399 142.866 142.404L140.896 142.512C137.072 126.062 136.02 126.254 135.618 126.326C134.934 126.452 134.454 127.326 134.19 128.898C131.36 124.897 128.82 120.699 126.59 116.336C126.288 115.736 125.778 115.86 125.562 116.194C125.042 116.994 125.01 121.058 127.718 126.694C126.419 125.953 124.902 125.691 123.43 125.952C122.985 126.054 122.588 126.307 122.308 126.668C122.028 127.028 121.881 127.475 121.892 127.932C120.056 128.182 119.664 129.522 120.124 131.332C117.306 132.634 119.41 139.332 124.032 140.082C125.209 142.718 125.938 145.532 126.19 148.408C125.754 148.73 125.332 149.058 124.928 149.392C124.871 149.439 124.829 149.502 124.808 149.574C124.786 149.645 124.786 149.721 124.808 149.792C128.573 160.573 133.666 170.843 139.97 180.366C144.528 186.986 154.74 188.966 160.724 183.34C166.302 178.011 171.195 172.009 175.29 165.472C176.8 172.122 179.226 182.112 180.69 184.58C174.234 226.464 166.304 310.734 164.778 325.546C164.77 325.625 164.786 325.705 164.826 325.774C164.866 325.843 164.927 325.897 165 325.93C166.305 326.504 167.641 327.008 169 327.44L168.436 332.27C168.16 334.68 167.26 336.976 165.826 338.933C164.392 340.89 162.473 342.439 160.258 343.428C154.281 346.101 148.642 349.473 143.458 353.472C143.217 353.661 143.049 353.928 142.983 354.228C142.917 354.527 142.956 354.84 143.094 355.114H29.86C29.52 355.114 29.138 355.714 29.942 355.776C34.392 356.072 72.302 355.866 370.142 355.866C370.242 355.866 370.338 355.826 370.409 355.755C370.479 355.685 370.519 355.589 370.519 355.489C370.519 355.389 370.479 355.293 370.409 355.222C370.338 355.151 370.242 355.112 370.142 355.112ZM287.754 258.536C286.917 257.72 285.884 257.133 284.754 256.832C283.166 256.27 281.536 255.833 279.88 255.526C278.958 248.884 282.08 238.976 286.464 234.828C291.106 236.066 296.8 237.428 302.574 238.372C296.158 242.572 291.83 271.306 295.356 280.716C292.282 275.72 292.058 262.86 287.754 258.536ZM269.576 202.39C269.54 202.632 268.176 203.464 262.276 203.166C261.744 202.616 261.2 202.016 260.658 201.382C260.593 201.308 260.501 201.263 260.403 201.256C260.304 201.249 260.207 201.281 260.132 201.345C260.057 201.409 260.01 201.499 260.002 201.598C259.993 201.696 260.023 201.794 260.086 201.87C266.814 209.74 273.686 211.91 273.07 213.142C272.972 213.342 272.244 213.554 270.626 212.956C267.769 211.832 265.04 210.409 262.482 208.712C262.399 208.657 262.297 208.637 262.199 208.657C262.102 208.677 262.016 208.735 261.961 208.819C261.906 208.902 261.887 209.004 261.907 209.101C261.927 209.199 261.985 209.285 262.068 209.34C262.692 209.75 263.982 210.574 265.646 211.476C267.344 213.217 269.133 214.867 271.006 216.418C272.03 217.108 272.24 217.672 272.13 217.868C271.972 218.152 271.04 218.254 269.544 217.574C266.06 215.753 262.717 213.673 259.544 211.352C259.464 211.305 259.37 211.289 259.279 211.307C259.188 211.326 259.107 211.377 259.052 211.452C258.997 211.526 258.971 211.618 258.979 211.71C258.988 211.803 259.03 211.889 259.098 211.952C259.972 212.594 261.754 213.824 263.612 215.016C265.098 216.768 266.31 218.32 266.942 218.888C267.868 219.72 267.994 220.32 267.856 220.502C267.656 220.76 266.736 220.744 265.376 219.886C262.537 217.949 259.868 215.775 257.398 213.386C257.327 213.316 257.231 213.277 257.131 213.278C257.031 213.28 256.936 213.32 256.866 213.392C256.796 213.463 256.758 213.559 256.759 213.659C256.76 213.759 256.801 213.854 256.872 213.924C257.506 214.546 258.696 215.642 260.15 216.866C260.6 217.769 261.124 218.633 261.718 219.45C262.604 220.45 262.586 220.912 262.548 220.956C262.464 221.05 261.72 221.044 260.278 220.01C255.324 216.25 250.623 212.17 246.204 207.794C251.149 205.545 255.16 201.649 257.552 196.772C259.627 198.332 261.985 199.474 264.496 200.136C268.756 201.228 269.612 202.152 269.576 202.39ZM257.522 194.952C256.312 197.897 254.51 200.562 252.227 202.782C249.945 205.002 247.231 206.729 244.254 207.858C230.68 194.92 220.802 184.27 210.628 168.348C210.746 159.148 211.606 155.988 210.47 149.148C210.077 146.159 209.199 143.254 207.87 140.548C222.62 149.96 229.462 169.812 257.522 194.952ZM200.936 137.384C202.194 141.1 203.197 144.898 203.936 148.752L183.354 149.314C182.699 145.453 181.725 141.654 180.444 137.954C181.48 137.706 182.504 137.46 183.458 137.218C188.762 139.374 194.968 140.716 199.258 136.876C199.906 137.114 200.654 137.304 200.936 137.384ZM185.722 128.23C185.73 128.154 185.715 128.077 185.679 128.01C185.643 127.943 185.587 127.888 185.519 127.854C185.451 127.819 185.375 127.806 185.299 127.816C185.223 127.826 185.153 127.858 185.096 127.91C183.734 129.15 179.828 132.586 178.802 131.048C177.826 129.306 177.946 125.162 179.246 116.332C179.983 116.696 180.744 117.008 181.524 117.268C181.462 117.926 181.468 118.589 181.544 119.246C181.83 121.256 183.186 121.326 183.982 119.926C185.218 117.758 187.258 119.63 184.868 122.942C184.816 123.013 184.792 123.1 184.798 123.188C184.812 123.388 184.924 123.45 185.572 124.118C186.96 125.546 188.394 126.966 189.824 128.318C192.1 131.062 195.532 135.174 198.466 136.546C195.31 139.146 190.666 139.212 184.34 136.746C185.932 135.252 185.484 130.616 185.722 128.23ZM120.268 136.266C119.518 134.786 119.046 132.4 120.668 131.914C122 131.514 124.386 132.216 126.714 134.664C126.784 134.73 126.877 134.768 126.973 134.768C127.07 134.768 127.163 134.731 127.233 134.664C127.303 134.597 127.345 134.506 127.349 134.41C127.354 134.313 127.321 134.219 127.258 134.146C126.493 133.177 125.515 132.399 124.399 131.872C123.283 131.346 122.06 131.084 120.826 131.11C120.652 130.527 120.652 129.906 120.826 129.324C120.983 129.095 121.198 128.911 121.449 128.792C121.699 128.673 121.977 128.622 122.254 128.644C123.455 128.709 124.629 129.026 125.699 129.574C126.77 130.122 127.713 130.889 128.468 131.826C128.501 131.863 128.541 131.893 128.585 131.914C128.63 131.936 128.678 131.948 128.728 131.951C128.777 131.954 128.827 131.947 128.873 131.93C128.92 131.914 128.963 131.889 129 131.856C129.037 131.823 129.067 131.783 129.088 131.738C129.11 131.694 129.122 131.645 129.125 131.596C129.128 131.546 129.121 131.497 129.105 131.45C129.088 131.404 129.063 131.361 129.03 131.324C127.429 129.385 125.131 128.153 122.63 127.894C122.619 127.606 122.711 127.324 122.891 127.099C123.071 126.874 123.325 126.721 123.608 126.668C125.31 126.467 127.024 126.93 128.394 127.96C129.15 128.471 129.838 129.076 130.442 129.76C130.508 129.834 130.602 129.879 130.701 129.885C130.801 129.891 130.898 129.857 130.973 129.791C131.048 129.724 131.093 129.631 131.098 129.532C131.104 129.432 131.07 129.334 131.004 129.26C130.379 128.555 129.67 127.931 128.892 127.4C127.008 124.263 126.028 120.668 126.058 117.01C128.51 121.52 131.191 125.901 134.09 130.138C134.83 131.538 135.436 133.004 135.902 134.518C135.932 134.609 135.997 134.686 136.082 134.732C136.167 134.777 136.266 134.788 136.359 134.762C136.452 134.737 136.532 134.676 136.582 134.593C136.631 134.511 136.647 134.412 136.626 134.318C136.158 132.783 135.546 131.296 134.8 129.876C134.976 128.194 135.334 127.306 135.644 127.112C136.348 127.94 138.192 134.312 140.12 142.59C135.357 143.296 130.826 145.108 126.89 147.882C126.584 145.008 125.819 142.201 124.624 139.57C123.95 137.949 123.068 136.423 122 135.03C121.572 134.712 121.138 135.324 121.512 135.596C122.331 136.731 123.038 137.943 123.624 139.214C122.891 138.982 122.214 138.6 121.636 138.093C121.058 137.585 120.592 136.963 120.268 136.266ZM160.2 182.79C154.572 188.086 144.896 186.19 140.58 179.936C134.368 170.544 129.336 160.424 125.6 149.802C130.374 145.752 136.365 143.416 142.62 143.164C144.345 148.134 146.574 152.914 149.272 157.43C149.272 167.26 149.174 166.856 149.438 167.068L149.504 167.104L149.57 167.124C149.643 167.14 149.719 167.134 149.788 167.106C149.857 167.078 149.917 167.03 149.958 166.968C165.2 145.426 167.322 141.602 174.84 139.384C176.476 145.532 179.75 160.184 177.884 163.784C177.849 163.823 177.823 163.869 177.808 163.92C177.408 164.568 176.856 164.814 175.78 164.264C175.122 161.336 174.686 159.264 174.672 159.206C174.651 159.108 174.593 159.023 174.509 158.968C174.425 158.914 174.324 158.895 174.226 158.916C174.128 158.936 174.043 158.995 173.989 159.079C173.934 159.162 173.915 159.264 173.936 159.362C173.99 159.626 174.418 161.644 175.046 164.444C170.891 171.161 165.903 177.325 160.2 182.79ZM181.446 184.556C181.452 184.515 181.452 184.473 181.446 184.432C181.318 183.722 180.354 184.386 175.99 165.168C176.324 165.316 176.695 165.364 177.056 165.307C177.417 165.249 177.754 165.089 178.026 164.844L179.526 169.806C179.555 169.901 179.621 169.981 179.709 170.028C179.796 170.075 179.9 170.086 179.995 170.057C180.09 170.028 180.171 169.962 180.218 169.874C180.265 169.786 180.275 169.683 180.246 169.588L178.572 164.048C180.756 159.32 176.456 142.51 175.572 139.176C176.83 138.83 178.276 138.476 179.716 138.13C181.091 141.973 182.108 145.934 182.756 149.964C182.79 149.999 182.832 150.027 182.877 150.046C182.922 150.065 182.971 150.075 183.02 150.076C183.22 150.076 204.256 149.52 204.456 149.476C204.551 149.451 204.632 149.39 204.682 149.306C205.152 148.388 202.132 138.626 201.816 137.63C203.41 138.122 204.941 138.798 206.378 139.646C206.648 139.952 208.578 142.352 209.738 149.27C210.28 152.614 210.443 156.009 210.224 159.39C210.088 161.628 209.824 168.238 209.884 168.518C209.884 169.276 209.884 180.65 210.63 181.162L210.676 181.188C218.842 184.872 223.436 193.244 227.094 200.798C231.858 210.63 243.816 221.664 243.936 221.776C244.136 221.928 243.212 221.642 288.25 232.708C287.46 233.052 286.737 233.532 286.112 234.126C282.24 237.648 279.254 245.564 278.988 252.126L276.368 251.376C276.274 251.354 276.175 251.37 276.092 251.42C276.009 251.47 275.949 251.549 275.923 251.642C275.897 251.735 275.909 251.835 275.954 251.92C276 252.005 276.076 252.069 276.168 252.1L278.968 252.9C278.805 255.392 279.421 257.873 280.732 260L241.732 249.212C238.763 248.389 236.007 246.933 233.654 244.944L210.654 225.47L210.914 216.966C213.074 218.836 212.988 218.814 213.188 218.814C213.265 218.813 213.339 218.789 213.402 218.745C213.464 218.701 213.512 218.639 213.539 218.567C213.566 218.496 213.57 218.417 213.551 218.343C213.532 218.269 213.492 218.202 213.434 218.152L210.942 215.996C211.106 210.65 211.23 208.754 211.166 208.066C211.112 207.466 210.508 207.58 210.434 207.992C210.13 211.724 205.352 220.696 205.044 221.272C204.91 221.472 196.488 293.072 192.044 327.252C183.231 329.493 173.928 328.819 165.53 325.332C168 301.324 175.238 224.746 181.442 184.556H181.446ZM143.906 354.06C149.04 350.099 154.625 346.761 160.544 344.114C162.879 343.072 164.902 341.439 166.414 339.378C167.927 337.316 168.876 334.896 169.168 332.356L169.716 327.664C175.56 329.357 181.702 329.759 187.716 328.842C186.41 341.522 186.2 340.906 186.636 342.218C188.015 346.309 188.697 350.603 188.654 354.92C182.566 354.92 153.454 355.102 144.276 355.11C144.156 355.104 144.041 355.064 143.945 354.992C143.849 354.921 143.776 354.823 143.736 354.71C143.697 354.597 143.691 354.475 143.722 354.359C143.752 354.243 143.816 354.139 143.906 354.06Z" fill="#1890ff"/>
<path d="M176.462 263.374L177.08 257.486C177.09 257.386 177.061 257.287 176.998 257.21C176.935 257.132 176.844 257.083 176.745 257.073C176.646 257.062 176.547 257.092 176.469 257.155C176.392 257.217 176.342 257.308 176.332 257.408L175.714 263.296C175.704 263.395 175.733 263.494 175.796 263.572C175.859 263.649 175.95 263.698 176.049 263.709C176.148 263.719 176.247 263.69 176.325 263.627C176.402 263.564 176.452 263.473 176.462 263.374Z" fill="#1890ff"/>
<path d="M171.522 310.482L172.14 304.594C172.15 304.494 172.121 304.395 172.058 304.318C172.027 304.279 171.989 304.248 171.945 304.224C171.902 304.201 171.854 304.186 171.805 304.181C171.706 304.17 171.607 304.2 171.529 304.263C171.452 304.325 171.402 304.416 171.392 304.516L170.774 310.404C170.764 310.503 170.793 310.602 170.856 310.68C170.919 310.757 171.01 310.806 171.109 310.817C171.208 310.827 171.307 310.798 171.385 310.735C171.462 310.672 171.512 310.581 171.522 310.482Z" fill="#1890ff"/>
<path d="M173.17 294.778L173.786 288.89C173.796 288.79 173.767 288.691 173.704 288.614C173.641 288.536 173.55 288.487 173.451 288.477C173.352 288.466 173.253 288.496 173.175 288.559C173.098 288.621 173.048 288.712 173.038 288.812L172.42 294.7C172.417 294.795 172.45 294.888 172.513 294.96C172.576 295.032 172.664 295.078 172.759 295.088C172.854 295.097 172.949 295.071 173.025 295.013C173.102 294.956 173.153 294.872 173.17 294.778Z" fill="#1890ff"/>
<path d="M169.93 325.498L170.494 320.298C170.504 320.198 170.475 320.099 170.412 320.022C170.349 319.944 170.258 319.895 170.159 319.885C170.06 319.874 169.961 319.904 169.883 319.967C169.806 320.029 169.756 320.12 169.746 320.22L169.18 325.42C169.177 325.515 169.21 325.608 169.273 325.68C169.336 325.752 169.424 325.798 169.519 325.808C169.614 325.817 169.709 325.791 169.785 325.734C169.862 325.676 169.913 325.592 169.93 325.498Z" fill="#1890ff"/>
<path d="M174.816 279.082L175.434 273.194C175.444 273.094 175.415 272.995 175.352 272.918C175.289 272.84 175.198 272.791 175.099 272.781C175 272.77 174.901 272.8 174.823 272.863C174.746 272.925 174.696 273.016 174.686 273.116L174.066 279.004C174.063 279.099 174.096 279.192 174.159 279.264C174.222 279.336 174.31 279.382 174.405 279.392C174.5 279.402 174.595 279.375 174.671 279.318C174.748 279.26 174.799 279.176 174.816 279.082Z" fill="#1890ff"/>
<path d="M183.048 200.564L183.666 194.682C183.676 194.582 183.647 194.483 183.584 194.406C183.553 194.367 183.515 194.336 183.471 194.312C183.428 194.289 183.38 194.274 183.331 194.269C183.232 194.258 183.133 194.288 183.055 194.351C182.978 194.413 182.928 194.504 182.918 194.604L182.3 200.482C182.289 200.581 182.318 200.68 182.381 200.758C182.443 200.836 182.534 200.886 182.633 200.897C182.732 200.908 182.832 200.879 182.909 200.816C182.987 200.754 183.037 200.663 183.048 200.564Z" fill="#1890ff"/>
<path d="M183.946 184.784C183.936 184.883 183.965 184.982 184.028 185.06C184.091 185.137 184.182 185.186 184.281 185.197C184.38 185.207 184.479 185.178 184.557 185.115C184.634 185.052 184.684 184.961 184.694 184.862C184.76 184.222 184.906 185.04 183.094 179.034C183.065 178.938 182.999 178.858 182.911 178.811C182.824 178.764 182.72 178.754 182.625 178.783C182.53 178.812 182.449 178.877 182.402 178.965C182.355 179.053 182.345 179.156 182.374 179.252C184.158 185.118 183.984 184.426 183.946 184.784Z" fill="#1890ff"/>
<path d="M179.756 231.968L180.372 226.082C180.377 226.033 180.373 225.983 180.359 225.935C180.345 225.888 180.322 225.844 180.291 225.805C180.26 225.767 180.221 225.735 180.178 225.711C180.135 225.688 180.087 225.673 180.038 225.668C179.989 225.662 179.939 225.667 179.892 225.681C179.844 225.695 179.8 225.718 179.762 225.749C179.723 225.78 179.691 225.818 179.668 225.862C179.644 225.905 179.629 225.953 179.624 226.002L179 231.882C178.994 231.931 178.999 231.982 179.012 232.03C179.026 232.078 179.049 232.122 179.08 232.162C179.111 232.201 179.15 232.233 179.194 232.257C179.237 232.282 179.285 232.297 179.335 232.303C179.385 232.308 179.435 232.304 179.483 232.29C179.531 232.277 179.576 232.253 179.615 232.222C179.654 232.191 179.687 232.153 179.711 232.109C179.735 232.065 179.75 232.017 179.756 231.968Z" fill="#1890ff"/>
<path d="M178.108 247.682L178.726 241.794C178.736 241.694 178.707 241.595 178.644 241.518C178.581 241.44 178.49 241.391 178.391 241.381C178.292 241.37 178.193 241.4 178.115 241.463C178.038 241.525 177.988 241.616 177.978 241.716L177.36 247.604C177.35 247.703 177.379 247.802 177.442 247.88C177.505 247.957 177.596 248.006 177.695 248.017C177.794 248.027 177.893 247.998 177.971 247.935C178.048 247.872 178.098 247.781 178.108 247.682Z" fill="#1890ff"/>
<path d="M181.4 216.266L182.018 210.378C182.021 210.282 181.988 210.189 181.925 210.117C181.862 210.045 181.774 210 181.679 209.99C181.584 209.98 181.489 210.006 181.413 210.064C181.336 210.121 181.285 210.206 181.268 210.3L180.652 216.188C180.642 216.287 180.671 216.386 180.734 216.464C180.797 216.541 180.888 216.59 180.987 216.601C181.086 216.611 181.185 216.582 181.263 216.519C181.34 216.456 181.39 216.365 181.4 216.266Z" fill="#1890ff"/>
<path d="M224.888 229.066C224.964 229.131 225.062 229.163 225.162 229.156C225.261 229.149 225.354 229.102 225.419 229.027C225.484 228.951 225.517 228.853 225.509 228.753C225.502 228.653 225.456 228.561 225.38 228.496L220.902 224.624C220.826 224.563 220.73 224.534 220.633 224.543C220.536 224.551 220.446 224.597 220.383 224.671C220.319 224.744 220.286 224.84 220.291 224.937C220.296 225.034 220.339 225.125 220.41 225.192L224.888 229.066Z" fill="#1890ff"/>
<path d="M236.83 239.394C236.906 239.454 237.002 239.484 237.099 239.475C237.196 239.466 237.286 239.42 237.349 239.346C237.413 239.273 237.446 239.178 237.441 239.081C237.436 238.983 237.393 238.892 237.322 238.826L232.844 234.952C232.768 234.886 232.67 234.854 232.57 234.861C232.471 234.868 232.378 234.915 232.313 234.991C232.248 235.066 232.215 235.165 232.223 235.264C232.23 235.364 232.276 235.456 232.352 235.522L236.83 239.394Z" fill="#1890ff"/>
<path d="M260.974 247.76C265.814 249.15 266.574 249.408 266.774 249.408C266.864 249.407 266.951 249.373 267.019 249.313C267.087 249.254 267.131 249.172 267.144 249.082C267.156 248.993 267.136 248.902 267.088 248.826C267.039 248.75 266.964 248.694 266.878 248.668L261.186 247.038C261.139 247.024 261.089 247.019 261.04 247.025C260.991 247.03 260.943 247.045 260.9 247.068C260.856 247.092 260.818 247.124 260.787 247.163C260.756 247.201 260.733 247.245 260.719 247.293C260.705 247.34 260.701 247.39 260.706 247.439C260.711 247.488 260.726 247.536 260.75 247.579C260.773 247.622 260.805 247.661 260.844 247.692C260.882 247.723 260.927 247.746 260.974 247.76Z" fill="#1890ff"/>
<path d="M245.8 243.412C250.638 244.812 251.4 245.058 251.6 245.058C251.691 245.058 251.779 245.026 251.848 244.966C251.917 244.907 251.962 244.824 251.975 244.734C251.987 244.644 251.967 244.552 251.917 244.476C251.867 244.4 251.792 244.344 251.704 244.32L246 242.682C245.952 242.669 245.902 242.665 245.853 242.671C245.803 242.677 245.756 242.693 245.713 242.718C245.625 242.768 245.562 242.85 245.535 242.947C245.508 243.043 245.521 243.147 245.571 243.234C245.621 243.321 245.703 243.385 245.8 243.412Z" fill="#1890ff"/>
</svg>
