<svg width="400" height="400" viewBox="0 0 400 400" fill="none" xmlns="http://www.w3.org/2000/svg">
<path d="M142.53 85.8221L100.906 13.7241C100.249 12.5865 99.3048 11.6418 98.1674 10.985C97.0299 10.3282 95.7395 9.98242 94.426 9.98242C93.1125 9.98242 91.8222 10.3282 90.6847 10.985C89.5472 11.6418 88.6026 12.5865 87.946 13.7241L46.318 85.8221C45.661 86.9597 45.3151 88.2503 45.315 89.564C45.315 90.8777 45.6609 92.1683 46.3179 93.3059C46.9749 94.4435 47.9198 95.3881 49.0577 96.0447C50.1956 96.7012 51.4863 97.0466 52.8 97.0461H91.272V389.6C91.279 389.695 91.3217 389.784 91.3916 389.849C91.4616 389.915 91.5535 389.951 91.649 389.951C91.7445 389.951 91.8365 389.915 91.9064 389.849C91.9763 389.784 92.0191 389.695 92.026 389.6H96.826C96.826 389.942 97.426 390.31 97.474 389.478C97.762 385.222 97.578 351.172 97.578 97.0401H136.05C137.363 97.0403 138.653 96.6949 139.79 96.0386C140.927 95.3824 141.871 94.4384 142.528 93.3015C143.185 92.1647 143.531 90.875 143.531 89.5621C143.531 88.2492 143.186 86.9593 142.53 85.8221Z" fill="white"/>
<path d="M200.162 311.558C200.414 322.158 191.984 343.14 187.188 370.98C179.092 373.289 170.512 373.289 162.416 370.98L174.73 307.296C182.541 311.378 191.447 312.871 200.162 311.558V311.558Z" fill="#B2BEC3"/>
<path d="M303.25 347.788C300.424 357.004 297.098 359.726 288.414 365.428L242.722 316.148C250.816 313.173 257.768 307.727 262.594 300.58C269.028 305.865 274.847 311.857 279.942 318.442C286.922 328.01 303.25 347.788 303.25 347.788Z" fill="#B2BEC3"/>
<path d="M258.418 291.468C278.773 279.849 294.106 261.106 301.461 238.853C308.817 216.6 307.674 192.411 298.254 170.95C298.222 170.86 298.225 170.761 298.263 170.674C298.301 170.586 298.37 170.516 298.458 170.477C298.545 170.439 298.644 170.435 298.734 170.466C298.824 170.498 298.899 170.562 298.944 170.646C308.439 192.277 309.591 216.657 302.179 239.086C294.767 261.516 279.314 280.409 258.8 292.122C258.713 292.173 258.61 292.187 258.513 292.161C258.416 292.136 258.333 292.073 258.282 291.986C258.231 291.899 258.217 291.796 258.243 291.699C258.268 291.602 258.331 291.519 258.418 291.468Z" fill="white"/>
<path d="M297.2 168.656C289.48 152.485 277.352 138.823 262.21 129.241C247.068 119.658 229.529 114.546 211.61 114.492C195.404 114.438 179.459 118.569 165.319 126.485C151.178 134.401 139.32 145.834 130.894 159.676C130.841 159.761 130.756 159.822 130.659 159.844C130.561 159.867 130.459 159.849 130.374 159.796C130.289 159.743 130.229 159.659 130.206 159.561C130.184 159.464 130.201 159.361 130.254 159.276C138.748 145.324 150.701 133.801 164.955 125.824C179.209 117.846 195.281 113.684 211.616 113.74C229.678 113.795 247.357 118.949 262.619 128.608C277.882 138.267 290.106 152.04 297.886 168.34C297.907 168.385 297.918 168.434 297.92 168.484C297.922 168.533 297.914 168.583 297.897 168.629C297.88 168.676 297.854 168.718 297.82 168.755C297.787 168.791 297.746 168.821 297.701 168.841C297.61 168.883 297.506 168.887 297.412 168.853C297.318 168.818 297.242 168.747 297.2 168.656Z" fill="white"/>
<path d="M174.74 297.2C152.94 288.069 135.304 271.175 125.245 249.788C115.185 228.401 113.419 204.042 120.288 181.428C120.317 181.333 120.383 181.253 120.471 181.206C120.559 181.159 120.663 181.149 120.758 181.178C120.853 181.207 120.933 181.273 120.98 181.361C121.027 181.449 121.037 181.553 121.008 181.648C114.194 204.083 115.946 228.249 125.927 249.466C135.907 270.684 153.405 287.443 175.032 296.5C175.125 296.539 175.198 296.613 175.237 296.706C175.275 296.799 175.275 296.903 175.236 296.996C175.197 297.089 175.123 297.163 175.03 297.201C174.937 297.239 174.833 297.239 174.74 297.2Z" fill="white"/>
<path d="M203.422 304.234C203.222 304.216 203.198 303.482 203.684 303.498C204.542 303.524 206.608 303.828 211.616 303.828C216.943 304.047 222.278 303.609 227.498 302.524C227.594 302.498 227.697 302.511 227.784 302.56C227.871 302.609 227.934 302.691 227.961 302.787C227.988 302.884 227.975 302.986 227.925 303.073C227.876 303.16 227.794 303.224 227.698 303.25C221.498 304.922 209.77 304.772 203.422 304.234Z" fill="white"/>
<path d="M319.698 161.876C321.268 162.372 324.376 163.664 326.144 164.394C330.968 166.394 330.078 167.604 329.24 167.52C325.704 167.196 321.166 166.226 317.912 165.97C318.666 166.432 319.312 166.83 319.65 167.042C324.082 169.804 323.004 170.852 322.198 170.642C318.998 169.792 313.972 167.89 310.978 167.194C307.323 166.439 303.609 166.004 299.878 165.894L294.824 167.714L293.38 167.034C289.159 164.806 285.847 161.174 284.016 156.766L283.514 154.652C284.618 153.878 285.876 153.35 287.202 153.106C294.327 150.808 301.301 148.065 308.082 144.892C316.214 141.244 313.994 144.072 311.922 146.536C310.412 148.336 302.876 153.352 306.922 154.576C310.878 155.122 324.814 157.112 327.566 158.048C335.348 160.676 334.142 162.448 326.624 161.97C323.96 161.8 320.692 161.818 319.698 161.876Z" fill="#B2BEC3"/>
<path d="M123.042 160.724C119.748 165.376 117.642 170.762 116.906 176.414L110.29 175.688C106.683 176.663 103.172 177.962 99.8 179.57C97.06 180.97 92.634 183.99 89.718 185.57C88.98 185.97 87.686 185.206 91.34 181.476C91.626 181.19 92.154 180.652 92.78 180.026C89.83 180.996 85.18 183.158 82.136 184.212C81.336 184.486 80.192 183.52 84.408 180.434C85.328 179.762 88.506 177.454 90.092 176.46C87.8186 176.917 85.5714 177.495 83.36 178.192C76.17 180.446 74.578 178.992 81.516 174.61C82.898 173.73 91.516 169.914 100.872 166.306C104.52 164.152 95.894 161.106 93.998 159.72C91.398 157.812 88.582 155.586 97.346 157.214C104.672 158.709 112.088 159.725 119.546 160.258C120.73 160.192 121.916 160.35 123.042 160.724V160.724Z" fill="#B2BEC3"/>
<path d="M212.476 147.732C212.462 147.522 210.31 136.91 213.236 135.372C220.036 131.806 216.92 125.572 213.372 128.544C211.666 129.968 211.024 129.744 210.918 128.596C210.976 122.274 204.794 111.378 198.05 126.964C195.83 132.092 195.204 135.64 195.532 138.07C196.102 142.33 199.674 143.47 203.958 142.948L206.93 142.328L203.81 146.798C203.488 148.972 202.632 151.16 200.444 150.648C198.801 150.242 197.13 149.962 195.444 149.81C195.444 149.81 200.356 167.462 205.408 175.752C209.011 166.133 214.094 157.135 220.474 149.084C215.51 149.57 213.564 152.978 212.476 147.732Z" fill="#B2BEC3"/>
<path d="M318.324 76.9121C303.556 74.1121 288.654 82.5561 285.94 96.9121C285.048 101.736 285.655 106.716 287.68 111.184L281.29 121.646C281.256 121.703 281.237 121.769 281.236 121.835C281.236 121.902 281.252 121.968 281.285 122.026C281.318 122.084 281.365 122.132 281.423 122.166C281.48 122.2 281.545 122.218 281.612 122.218C281.812 122.218 283.612 121.818 293.784 119.748C309.704 134.848 337.28 127.918 341.17 107.348C343.8 93.4501 333.55 79.8001 318.324 76.9121ZM340.43 107.222C337.924 120.476 324.054 129.494 308.926 126.632C303.348 125.6 298.195 122.958 294.1 119.032C294.032 118.988 294.026 118.958 293.724 119.002C293.022 119.106 290.724 119.614 282.384 121.308L288.384 111.508C288.476 111.234 288.56 111.308 288.4 110.952C280.054 92.3521 297.252 73.7041 318.2 77.6581C333 80.4541 342.982 93.7181 340.43 107.222Z" fill="white"/>
<path d="M313.844 105.726C313.714 105.725 313.59 105.672 313.499 105.579C313.407 105.486 313.357 105.36 313.358 105.23C313.41 100.766 318.558 98.3102 318.58 93.9762C318.608 93.3882 318.513 92.8008 318.301 92.2517C318.089 91.7026 317.764 91.2039 317.348 90.7876C316.932 90.3713 316.433 90.0466 315.884 89.8342C315.335 89.6219 314.748 89.5267 314.16 89.5547C313.572 89.5827 312.996 89.7333 312.47 89.9968C311.944 90.2604 311.478 90.631 311.103 91.085C310.729 91.5389 310.453 92.0662 310.294 92.633C310.135 93.1998 310.096 93.7935 310.18 94.3762C310.195 94.5034 310.16 94.6315 310.082 94.7331C310.004 94.8347 309.889 94.9017 309.762 94.9197C309.636 94.9378 309.507 94.9054 309.404 94.8296C309.3 94.7538 309.231 94.6406 309.21 94.5142C309.112 93.8 309.163 93.0732 309.361 92.3799C309.559 91.6867 309.899 91.0421 310.359 90.4872C310.819 89.9322 311.39 89.479 312.034 89.1564C312.679 88.8337 313.384 88.6486 314.104 88.6128C314.824 88.5771 315.543 88.6914 316.217 88.9486C316.89 89.2058 317.503 89.6002 318.016 90.1068C318.529 90.6134 318.931 91.2212 319.196 91.8914C319.462 92.5616 319.585 93.2798 319.558 94.0002C319.534 98.6702 314.382 101.258 314.336 105.242C314.334 105.371 314.281 105.494 314.189 105.585C314.097 105.675 313.973 105.726 313.844 105.726Z" fill="white"/>
<path d="M315.174 110.972C315.148 111.311 314.991 111.627 314.736 111.852C314.481 112.078 314.149 112.195 313.809 112.18C313.469 112.165 313.148 112.018 312.915 111.77C312.682 111.523 312.554 111.194 312.558 110.854C312.584 110.515 312.741 110.199 312.996 109.974C313.251 109.748 313.583 109.631 313.923 109.646C314.263 109.662 314.583 109.809 314.817 110.056C315.05 110.303 315.178 110.632 315.174 110.972Z" fill="white"/>
<path d="M297.4 289.426C297.3 289.426 297.205 289.387 297.134 289.316C297.064 289.246 297.024 289.15 297.024 289.05C297.024 288.951 297.064 288.855 297.134 288.784C297.205 288.714 297.3 288.674 297.4 288.674H305.59C305.69 288.674 305.785 288.714 305.856 288.784C305.926 288.855 305.966 288.951 305.966 289.05C305.966 289.15 305.926 289.246 305.856 289.316C305.785 289.387 305.69 289.426 305.59 289.426H297.4Z" fill="white"/>
<path d="M320.118 289.384C320.018 289.384 319.923 289.345 319.852 289.274C319.782 289.204 319.742 289.108 319.742 289.008C319.742 288.909 319.782 288.813 319.852 288.742C319.923 288.672 320.018 288.632 320.118 288.632H328.308C328.408 288.632 328.503 288.672 328.574 288.742C328.644 288.813 328.684 288.909 328.684 289.008C328.684 289.108 328.644 289.204 328.574 289.274C328.503 289.345 328.408 289.384 328.308 289.384H320.118Z" fill="white"/>
<path d="M312.456 281.764V273.574C312.455 273.525 312.464 273.477 312.482 273.431C312.5 273.385 312.527 273.344 312.561 273.309C312.595 273.274 312.636 273.246 312.681 273.227C312.726 273.208 312.775 273.198 312.824 273.198C312.923 273.202 313.017 273.242 313.088 273.311C313.159 273.38 313.202 273.473 313.208 273.572V281.762C313.208 281.812 313.199 281.861 313.18 281.906C313.161 281.952 313.133 281.993 313.099 282.028C313.028 282.099 312.933 282.139 312.833 282.139C312.784 282.139 312.735 282.13 312.689 282.111C312.643 282.092 312.602 282.065 312.567 282.03C312.496 281.959 312.456 281.864 312.456 281.764Z" fill="white"/>
<path d="M312.496 304.486V296.296C312.503 296.201 312.546 296.112 312.616 296.047C312.686 295.982 312.777 295.946 312.873 295.946C312.968 295.946 313.06 295.982 313.13 296.047C313.2 296.112 313.243 296.201 313.25 296.296V304.486C313.243 304.582 313.2 304.671 313.13 304.736C313.06 304.801 312.968 304.837 312.873 304.837C312.777 304.837 312.686 304.801 312.616 304.736C312.546 304.671 312.503 304.582 312.496 304.486Z" fill="white"/>
<path d="M307.706 284.276C307.478 284.276 307.906 284.642 301.638 278.386C301.567 278.316 301.528 278.22 301.528 278.12C301.528 278.021 301.567 277.925 301.638 277.854C301.709 277.784 301.804 277.744 301.904 277.744C302.004 277.744 302.099 277.784 302.17 277.854L307.97 283.634C308.023 283.687 308.058 283.754 308.073 283.826C308.088 283.899 308.08 283.975 308.052 284.043C308.024 284.112 307.976 284.171 307.914 284.212C307.853 284.254 307.78 284.276 307.706 284.276Z" fill="white"/>
<path d="M323.8 300.314C323.574 300.314 324 300.68 317.734 294.424C317.699 294.389 317.671 294.348 317.652 294.302C317.633 294.256 317.623 294.207 317.623 294.158C317.623 294.108 317.633 294.059 317.652 294.014C317.67 293.968 317.698 293.926 317.733 293.891C317.768 293.856 317.809 293.828 317.855 293.809C317.901 293.79 317.95 293.78 317.999 293.78C318.049 293.78 318.098 293.79 318.144 293.809C318.189 293.828 318.231 293.855 318.266 293.89L324.066 299.672C324.119 299.725 324.154 299.792 324.169 299.865C324.184 299.938 324.176 300.013 324.148 300.082C324.119 300.151 324.071 300.21 324.009 300.251C323.947 300.292 323.874 300.314 323.8 300.314Z" fill="white"/>
<path d="M317.98 284.258C317.906 284.258 317.833 284.236 317.771 284.195C317.709 284.154 317.661 284.095 317.632 284.026C317.604 283.957 317.596 283.882 317.611 283.809C317.626 283.736 317.661 283.669 317.714 283.616L323.494 277.816C323.564 277.745 323.66 277.705 323.76 277.705C323.859 277.705 323.955 277.744 324.026 277.814C324.097 277.885 324.137 277.98 324.137 278.08C324.138 278.18 324.098 278.275 324.028 278.346C317.756 284.652 318.2 284.258 317.98 284.258Z" fill="white"/>
<path d="M301.944 300.354C301.869 300.354 301.796 300.333 301.734 300.292C301.672 300.25 301.623 300.192 301.595 300.123C301.566 300.054 301.558 299.978 301.573 299.905C301.587 299.832 301.623 299.765 301.676 299.712L307.458 293.912C307.529 293.841 307.624 293.802 307.724 293.802C307.824 293.802 307.919 293.841 307.99 293.912C308.061 293.982 308.1 294.078 308.1 294.178C308.1 294.278 308.061 294.373 307.99 294.444C301.718 300.746 302.172 300.354 301.944 300.354Z" fill="white"/>
<path d="M94.424 65.4903C93.8936 65.4903 93.3849 65.2796 93.0098 64.9045C92.6347 64.5294 92.424 64.0207 92.424 63.4903V38.3423C92.424 37.8119 92.6347 37.3031 93.0098 36.9281C93.3849 36.553 93.8936 36.3423 94.424 36.3423C94.9544 36.3423 95.4631 36.553 95.8382 36.9281C96.2133 37.3031 96.424 37.8119 96.424 38.3423V63.4903C96.424 64.0207 96.2133 64.5294 95.8382 64.9045C95.4631 65.2796 94.9544 65.4903 94.424 65.4903Z" fill="white"/>
<path d="M94.426 71.8521C93.6779 71.8517 92.9465 72.0731 92.3243 72.4885C91.7021 72.9038 91.217 73.4943 90.9305 74.1854C90.6439 74.8764 90.5687 75.6369 90.7144 76.3707C90.8601 77.1044 91.2202 77.7785 91.749 78.3076C92.2779 78.8367 92.9517 79.1971 93.6854 79.3432C94.4191 79.4893 95.1797 79.4145 95.8709 79.1284C96.562 78.8422 97.1528 78.3574 97.5685 77.7354C97.9841 77.1134 98.206 76.3822 98.206 75.6341C98.2049 74.6317 97.8064 73.6706 97.0978 72.9616C96.3892 72.2527 95.4284 71.8536 94.426 71.8521Z" fill="white"/>
<path d="M146.584 52.622C147.027 52.0899 147.594 51.6755 148.236 51.4156C148.877 51.1557 149.573 51.0585 150.261 51.1325C150.95 51.2065 151.609 51.4494 152.181 51.8397C152.752 52.23 153.219 52.7556 153.538 53.3696C153.858 53.9837 154.021 54.6672 154.012 55.3594C154.004 56.0515 153.824 56.7309 153.49 57.337C153.156 57.9431 152.677 58.4572 152.096 58.8335C151.515 59.2098 150.85 59.4367 150.16 59.494C149.333 59.5684 148.503 59.3954 147.775 58.9969C147.046 58.5984 146.453 57.9925 146.07 57.2561C145.686 56.5197 145.531 55.6859 145.622 54.8608C145.714 54.0357 146.049 53.2565 146.584 52.622ZM146.368 55.622C146.417 56.1859 146.605 56.7289 146.914 57.2029C147.224 57.6769 147.646 58.0672 148.142 58.3392C148.638 58.6112 149.194 58.7564 149.76 58.7621C150.326 58.7678 150.885 58.6338 151.387 58.3718C151.889 58.1099 152.318 57.7281 152.637 57.2605C152.956 56.7928 153.154 56.2537 153.215 55.6909C153.276 55.1281 153.197 54.559 152.985 54.0342C152.773 53.5093 152.434 53.0448 152 52.682C151.479 52.2458 150.84 51.9738 150.165 51.9003C149.489 51.8268 148.807 51.9552 148.205 52.2691C147.602 52.583 147.106 53.0685 146.779 53.6642C146.452 54.2599 146.309 54.9391 146.368 55.616V55.622Z" fill="white"/>
<path d="M122.4 346.482V331.14C122.4 331.04 122.44 330.945 122.51 330.874C122.581 330.804 122.676 330.764 122.776 330.764C122.876 330.764 122.971 330.804 123.042 330.874C123.112 330.945 123.152 331.04 123.152 331.14V346.484C123.152 346.584 123.112 346.679 123.041 346.75C122.97 346.82 122.875 346.859 122.775 346.859C122.675 346.859 122.58 346.819 122.509 346.748C122.439 346.678 122.4 346.582 122.4 346.482Z" fill="white"/>
<path d="M130.44 339.186H115.096C114.996 339.186 114.901 339.146 114.83 339.076C114.76 339.005 114.72 338.91 114.72 338.81C114.72 338.71 114.76 338.615 114.83 338.544C114.901 338.474 114.996 338.434 115.096 338.434H130.44C130.54 338.434 130.635 338.474 130.706 338.544C130.776 338.615 130.816 338.71 130.816 338.81C130.816 338.91 130.776 339.005 130.706 339.076C130.635 339.146 130.54 339.186 130.44 339.186Z" fill="white"/>
<path d="M129.488 163.8C128.993 163.802 128.51 163.95 128.1 164.226C127.689 164.501 127.37 164.893 127.181 165.35C126.993 165.807 126.944 166.31 127.041 166.795C127.137 167.28 127.376 167.725 127.725 168.075C128.075 168.425 128.521 168.663 129.006 168.76C129.491 168.857 129.993 168.808 130.451 168.619C130.908 168.431 131.299 168.111 131.575 167.7C131.85 167.29 131.998 166.807 132 166.312C132.001 165.982 131.936 165.655 131.81 165.35C131.684 165.045 131.499 164.768 131.266 164.534C131.033 164.301 130.755 164.116 130.45 163.99C130.145 163.864 129.818 163.8 129.488 163.8Z" fill="white"/>
<path d="M149.52 190.452C150.903 190.452 152.024 189.331 152.024 187.948C152.024 186.565 150.903 185.444 149.52 185.444C148.137 185.444 147.016 186.565 147.016 187.948C147.016 189.331 148.137 190.452 149.52 190.452Z" fill="white"/>
<path d="M172.902 167.246C172.406 167.245 171.922 167.391 171.509 167.665C171.097 167.94 170.775 168.33 170.584 168.788C170.394 169.245 170.343 169.749 170.439 170.235C170.535 170.721 170.773 171.168 171.123 171.519C171.473 171.869 171.919 172.108 172.405 172.206C172.891 172.303 173.395 172.253 173.853 172.064C174.311 171.875 174.702 171.554 174.978 171.142C175.253 170.73 175.4 170.246 175.4 169.75C175.4 169.087 175.137 168.451 174.669 167.982C174.2 167.512 173.565 167.248 172.902 167.246Z" fill="white"/>
<path d="M198.614 193.63C199.997 193.63 201.118 192.509 201.118 191.126C201.118 189.743 199.997 188.622 198.614 188.622C197.231 188.622 196.11 189.743 196.11 191.126C196.11 192.509 197.231 193.63 198.614 193.63Z" fill="white"/>
<path d="M220.48 172.254C220.975 172.254 221.459 172.107 221.871 171.832C222.283 171.557 222.604 171.166 222.793 170.708C222.983 170.251 223.033 169.747 222.936 169.262C222.839 168.776 222.601 168.33 222.251 167.979C221.9 167.629 221.454 167.391 220.969 167.294C220.483 167.198 219.979 167.247 219.522 167.437C219.064 167.626 218.673 167.947 218.398 168.359C218.123 168.771 217.976 169.255 217.976 169.75C217.977 170.414 218.241 171.051 218.71 171.52C219.179 171.99 219.816 172.254 220.48 172.254Z" fill="white"/>
<path d="M247.778 173.67C248.273 173.67 248.757 173.523 249.169 173.248C249.581 172.973 249.902 172.582 250.091 172.124C250.281 171.667 250.331 171.163 250.234 170.678C250.137 170.192 249.899 169.746 249.549 169.396C249.198 169.045 248.752 168.807 248.267 168.71C247.781 168.614 247.277 168.663 246.82 168.853C246.362 169.042 245.971 169.363 245.696 169.775C245.421 170.187 245.274 170.671 245.274 171.166C245.274 171.83 245.538 172.467 246.007 172.937C246.477 173.406 247.114 173.67 247.778 173.67Z" fill="white"/>
<path d="M277.988 169.75C278.483 169.75 278.967 169.603 279.379 169.328C279.791 169.053 280.112 168.662 280.301 168.204C280.491 167.747 280.54 167.243 280.444 166.758C280.347 166.272 280.109 165.826 279.759 165.476C279.408 165.125 278.962 164.887 278.477 164.79C277.991 164.694 277.487 164.743 277.03 164.933C276.572 165.122 276.181 165.443 275.906 165.855C275.631 166.267 275.484 166.751 275.484 167.246C275.484 167.575 275.549 167.901 275.675 168.204C275.8 168.508 275.985 168.784 276.217 169.017C276.45 169.249 276.726 169.434 277.03 169.56C277.334 169.685 277.659 169.75 277.988 169.75Z" fill="white"/>
<path d="M264.618 196.694C266.001 196.694 267.122 195.573 267.122 194.19C267.122 192.807 266.001 191.686 264.618 191.686C263.235 191.686 262.114 192.807 262.114 194.19C262.114 195.573 263.235 196.694 264.618 196.694Z" fill="white"/>
<path d="M354.312 389.23H301.41C302.806 388.748 304.092 387.99 305.191 387.003C306.29 386.016 307.181 384.819 307.81 383.482C310.168 378.302 312.25 367.666 314.45 361.576C315.185 359.672 315.188 357.564 314.459 355.657C313.73 353.751 312.321 352.182 310.504 351.254L303.504 347.492C302.53 346.31 286.966 327.418 280.256 318.222C275.216 311.696 269.463 305.753 263.104 300.504C263.182 300.384 263.568 299.78 263.63 299.65C263.734 299.34 264.146 300.21 255.804 286.43L250.848 235.886C250.243 228.946 248.159 222.215 244.734 216.148C241.042 209.24 234.998 203.883 227.696 201.048C227.078 194.959 227.471 188.809 228.86 182.848C233.022 185.912 248.188 197.248 253.1 200.816C256.399 203.202 260.482 204.245 264.521 203.735C268.561 203.225 272.255 201.199 274.858 198.068C284.288 186.696 294.132 175.75 301.93 167.958C302.415 167.547 302.787 167.018 303.01 166.422C312.742 167.17 315.398 169.222 322.11 170.998C322.323 171.07 322.554 171.063 322.763 170.979C322.971 170.895 323.142 170.739 323.246 170.54C323.828 169.2 320.724 167.26 319.514 166.504C322.478 166.87 326.262 167.622 329.214 167.894C329.437 167.931 329.665 167.886 329.858 167.769C330.05 167.651 330.194 167.469 330.264 167.254C330.6 165.908 327.57 164.574 326.106 163.966C324.906 163.47 323.178 162.754 321.706 162.19C323.414 162.178 325.242 162.25 326.616 162.338C328.194 162.44 332.934 162.714 333.238 161.172C333.314 160.796 333.538 159.654 327.704 157.684C325.158 156.818 313.668 155.13 307.022 154.2C306.504 154.038 306.208 153.81 306.148 153.522C305.8 151.902 311.04 148.182 312.222 146.772C313.654 145.068 314.622 143.806 314.092 143.098C313.454 142.252 311.204 143.026 306.652 145.134C302.414 147.094 298.224 148.802 292.652 150.81C289.988 149.516 286.196 148.68 284.176 150.826C275.895 158.013 268.464 166.124 262.026 175C259.534 172.932 242.344 158.764 230.388 151.494C227.639 149.627 224.387 148.641 221.064 148.668C218.952 148.913 216.881 149.431 214.902 150.208C214.014 150.364 213.458 150.008 213.018 148.386C213.722 148.645 214.47 148.76 215.219 148.723C215.968 148.687 216.702 148.5 217.377 148.174C218.052 147.848 218.655 147.389 219.149 146.825C219.643 146.262 220.019 145.604 220.254 144.892C220.963 145.795 221.933 146.458 223.031 146.791C224.129 147.124 225.304 147.112 226.395 146.756C227.486 146.4 228.442 145.717 229.132 144.8C229.822 143.883 230.214 142.775 230.254 141.628C231.232 142.152 232.343 142.374 233.447 142.265C234.551 142.157 235.597 141.723 236.454 141.019C237.311 140.315 237.94 139.372 238.26 138.31C238.581 137.248 238.578 136.115 238.254 135.054C239.363 135.21 240.493 135.03 241.499 134.538C242.504 134.045 243.339 133.262 243.895 132.29C244.451 131.318 244.703 130.202 244.619 129.085C244.534 127.969 244.116 126.903 243.42 126.026C244.574 125.823 245.635 125.263 246.454 124.425C247.273 123.587 247.808 122.514 247.985 121.355C248.161 120.197 247.97 119.013 247.439 117.969C246.907 116.925 246.061 116.074 245.02 115.536C246.076 115.02 246.943 114.184 247.496 113.147C248.05 112.111 248.262 110.926 248.103 109.761C247.944 108.596 247.421 107.512 246.61 106.661C245.799 105.811 244.74 105.238 243.584 105.024C244.301 104.161 244.742 103.101 244.849 101.984C244.957 100.867 244.726 99.743 244.187 98.7584C243.648 97.7738 242.826 96.9739 241.827 96.4625C240.828 95.951 239.698 95.7516 238.584 95.8902C238.929 94.8346 238.953 93.7003 238.652 92.6313C238.351 91.5623 237.739 90.6069 236.894 89.8866C236.048 89.1663 235.008 88.7136 233.905 88.586C232.802 88.4584 231.685 88.6618 230.698 89.1702C230.674 88.026 230.3 86.9167 229.626 85.9916C228.952 85.0665 228.011 84.37 226.93 83.9959C225.848 83.6218 224.678 83.5881 223.577 83.8992C222.475 84.2104 221.496 84.8514 220.77 85.7362C220.372 84.5981 219.631 83.6113 218.649 82.9114C217.667 82.2115 216.493 81.833 215.287 81.8277C214.081 81.8224 212.903 82.1908 211.916 82.882C210.928 83.5733 210.178 84.5536 209.77 85.6882C209.054 84.7934 208.081 84.1398 206.982 83.8156C205.882 83.4914 204.71 83.5123 203.623 83.8753C202.536 84.2383 201.587 84.9261 200.903 85.8458C200.22 86.7654 199.835 87.8727 199.8 89.0182C198.819 88.5004 197.706 88.2856 196.603 88.4012C195.5 88.5167 194.455 88.9573 193.603 89.6671C192.75 90.377 192.128 91.324 191.814 92.3881C191.501 93.4523 191.51 94.5855 191.842 95.6442C190.732 95.4951 189.602 95.6825 188.599 96.1822C187.596 96.6818 186.767 97.4708 186.217 98.4471C185.667 99.4234 185.423 100.542 185.516 101.659C185.609 102.775 186.035 103.838 186.738 104.71C185.435 104.949 184.257 105.64 183.413 106.661C182.569 107.683 182.112 108.969 182.122 110.294C182.134 111.316 182.427 112.316 182.969 113.183C183.511 114.05 184.28 114.751 185.194 115.21C184.143 115.734 183.284 116.575 182.739 117.614C182.193 118.653 181.988 119.838 182.154 121C182.32 122.162 182.847 123.242 183.661 124.088C184.475 124.933 185.535 125.501 186.69 125.71C185.983 126.579 185.552 127.639 185.454 128.755C185.356 129.871 185.594 130.99 186.139 131.969C186.684 132.948 187.509 133.741 188.509 134.245C189.509 134.75 190.637 134.943 191.748 134.8C191.471 135.656 191.405 136.567 191.556 137.454C191.707 138.341 192.071 139.178 192.616 139.895C193.161 140.611 193.871 141.185 194.685 141.567C195.5 141.949 196.395 142.129 197.294 142.09C199.168 143.278 201.413 143.734 203.602 143.372C203.7 146.24 203.312 150.932 200.532 150.28C192.194 148.32 188.462 149.64 183.72 153.338C174.688 159.802 165.308 165.765 155.622 171.2C144.39 164.424 136.328 161.59 125.856 157.074C125.784 157.043 125.704 157.036 125.627 157.053C125.55 157.07 125.481 157.11 125.428 157.168C124.529 158.16 123.685 159.201 122.9 160.286C121.822 159.962 120.696 159.827 119.572 159.886C112.125 159.336 104.72 158.323 97.4 156.852C92.56 155.954 91.374 156.222 91.078 156.904C90.726 157.718 91.968 158.704 93.762 160.03C95.202 161.088 101.32 163.484 101.374 165.122C101.374 165.416 101.142 165.71 100.664 165.992C91.252 169.63 82.586 173.482 81.3 174.296C76.1 177.59 76.59 178.646 76.75 178.994C76.95 179.414 77.48 179.624 78.35 179.624C80.75 179.624 83.418 178.396 88.166 177.288C86.442 178.478 84.458 179.926 84.166 180.142C81.698 181.942 80.628 183.352 81.074 184.202C81.1923 184.394 81.3753 184.537 81.5899 184.605C81.8044 184.674 82.0364 184.664 82.244 184.576C84.738 183.712 88.562 181.996 91.326 180.946C90.326 181.964 87.79 184.568 88.668 185.73C88.8161 185.9 89.02 186.011 89.2431 186.044C89.4661 186.077 89.6934 186.029 89.884 185.908C96.302 182.422 98.942 179.21 110.182 176.108C110.84 176.108 111.556 176.168 116.478 176.746C116.345 177.727 116.248 178.727 116.188 179.746C116.176 179.946 116.254 180.054 116.708 180.268C124.167 183.381 131.463 186.868 138.57 190.716C141.702 192.342 144.938 194.026 148.838 195.94C151.516 197.265 154.485 197.891 157.469 197.761C160.454 197.632 163.357 196.75 165.91 195.198C172.56 191.17 179.686 186.904 187.31 182.874C188.913 189.683 191.239 196.302 194.25 202.616C175.92 290.07 172.944 303.902 172.6 306.122C172.52 306.652 172.6 306.522 172.636 306.57C172.798 306.708 174.112 307.404 174.3 307.502L162.084 370.684C152 373.684 140.084 382.51 132.868 389.23H52.652C52.5523 389.23 52.4566 389.27 52.3861 389.34C52.3156 389.411 52.276 389.506 52.276 389.606C52.276 389.706 52.3156 389.802 52.3861 389.872C52.4566 389.943 52.5523 389.982 52.652 389.982C318.672 389.982 350.808 390.13 354.354 389.826C354.958 389.774 354.642 389.23 354.312 389.23ZM279.638 318.666C286.216 327.68 301.272 345.98 302.838 347.866C300.012 356.976 296.52 359.644 288.482 364.936L243.376 316.286C251.193 313.296 257.923 308.014 262.686 301.132C268.971 306.329 274.657 312.21 279.638 318.666ZM322.546 170.242C322.532 170.272 322.428 170.308 322.294 170.272C315.834 168.566 313.444 166.672 304.23 165.776C308.756 165.726 313.281 165.912 317.788 166.334L319.452 167.36C322.724 169.4 322.546 170.242 322.546 170.242ZM326 164.742C329.56 166.222 329.524 167.074 329.524 167.074C329.524 167.108 329.418 167.16 329.274 167.146C327.584 166.992 325.62 166.676 323.72 166.374C321.029 165.877 318.307 165.56 315.574 165.426C311.61 165.062 307.629 164.935 303.65 165.046C308.823 163.357 314.211 162.414 319.65 162.246C321.2 162.752 324.496 164.118 326 164.742ZM327.452 158.398C332.518 160.11 332.488 161.028 332.488 161.028C332.44 161.268 331.268 161.888 326.654 161.588C321.508 161.245 316.34 161.502 311.254 162.352C305.658 163.538 300.172 165.193 294.854 167.3L293.568 166.7C289.441 164.521 286.198 160.977 284.392 156.674L283.948 154.828C284.949 154.145 286.084 153.683 287.278 153.472C292.472 152.54 323.69 157.116 327.452 158.4V158.398ZM308.236 145.23C312.696 143.2 313.394 143.486 313.474 143.544C313.602 143.944 312.12 145.71 311.634 146.29C310.258 147.932 304.396 151.77 305.512 154C300.778 153.386 294.386 152.762 289.796 152.6C296.074 150.485 302.23 148.025 308.236 145.23ZM200.36 151.014C202.76 151.578 203.8 149.338 204.176 146.894C204.234 146.812 207.224 142.576 207.272 142.494C207.303 142.429 207.315 142.356 207.306 142.284C207.296 142.212 207.266 142.145 207.219 142.09C207.172 142.035 207.11 141.994 207.041 141.974C206.971 141.953 206.897 141.954 206.828 141.974C206.764 141.994 200.756 143.904 197.672 141.434C194.128 138.598 196.404 131.956 198.126 127.75C199.458 124.502 202.304 118.68 205.714 119.406C208.668 120.032 210.576 125.194 210.54 128.606C210.541 128.641 210.545 128.675 210.554 128.708C210.584 128.938 210.678 129.644 211.244 129.864C211.98 130.15 213.002 129.35 213.61 128.842C216.748 126.206 219.3 131.788 213.062 135.042C211.452 135.886 210.732 137.948 211.806 145.99C212.85 153.708 215.006 150.41 219.606 149.59C213.628 157.278 208.821 165.808 205.342 174.904C200.996 167.35 196.792 153.146 195.958 150.244C197.44 150.408 198.91 150.665 200.36 151.014ZM94.214 159.414C93.614 158.966 91.748 157.604 91.772 157.2C92.26 156.572 97.81 157.686 98.372 157.8C104.492 159.015 110.676 159.883 116.894 160.4C112.554 161.622 107.266 163.478 102.094 165.446C102.692 163 95.974 160.718 94.214 159.424V159.414ZM99.614 179.226C96.278 180.918 89.514 185.582 89.266 185.266C89.266 185.266 88.896 184.492 91.592 181.738C91.864 181.458 92.366 180.95 92.964 180.352C97.2421 178.884 101.593 177.637 106 176.618C103.82 177.351 101.69 178.226 99.624 179.236L99.614 179.226ZM87.044 181.856C85.266 182.594 83.428 183.358 81.996 183.856C81.864 183.902 81.754 183.874 81.738 183.844C81.738 183.844 81.498 183.018 84.608 180.742C85.008 180.452 88.446 177.942 90.184 176.836C95.5337 175.669 101.027 175.305 106.484 175.756C99.8362 177.202 93.333 179.247 87.054 181.866L87.044 181.856ZM98.372 174.934C93.2352 175.334 88.1594 176.308 83.24 177.84C78.828 179.224 77.542 178.9 77.44 178.678C77.44 178.678 77.194 177.794 81.71 174.932C93.3725 169.378 105.432 164.698 117.788 160.932C119.313 160.519 120.919 160.519 122.444 160.932C119.368 165.441 117.369 170.596 116.6 176C110.57 175.119 104.474 174.766 98.382 174.944L98.372 174.934ZM185.572 166.422C185.569 166.322 185.527 166.228 185.454 166.16C185.382 166.091 185.285 166.054 185.185 166.057C185.085 166.06 184.991 166.102 184.922 166.175C184.854 166.248 184.817 166.344 184.82 166.444C185.127 171.72 185.902 176.959 187.136 182.098C179.43 186.164 172.238 190.472 165.526 194.536C163.081 196.023 160.3 196.867 157.441 196.991C154.582 197.116 151.739 196.515 149.174 195.246C137.268 189.404 131.914 185.922 116.962 179.51C117.32 171.492 120.443 163.846 125.8 157.87C136.626 162.522 144.318 165.24 155.416 171.956C155.474 171.99 155.539 172.008 155.606 172.008C155.673 172.008 155.738 171.99 155.796 171.956C155.986 171.85 174.942 161.13 184.176 153.93C185.643 152.574 187.377 151.538 189.267 150.889C191.157 150.241 193.161 149.993 195.152 150.162C195.778 152.362 200.396 168.248 205.088 175.946C205.125 176.006 205.177 176.055 205.24 176.086C205.303 176.118 205.373 176.131 205.443 176.124C205.513 176.118 205.58 176.092 205.636 176.05C205.692 176.007 205.735 175.95 205.76 175.884C209.331 166.349 214.361 157.427 220.672 149.436C223.993 149.294 227.27 150.244 230 152.14C242.8 159.926 261.662 175.676 261.85 175.834C261.918 175.89 262.004 175.921 262.092 175.922H262.134C262.185 175.916 262.234 175.9 262.278 175.875C262.323 175.849 262.361 175.815 262.392 175.774C268.506 167.347 275.493 159.589 283.236 152.628C283.022 154.065 283.172 155.533 283.67 156.898C285.54 161.394 288.918 165.098 293.224 167.372C295.276 168.538 297.635 169.052 299.986 168.846C292.416 176.534 283.16 186.876 274.272 197.592C271.791 200.576 268.27 202.506 264.421 202.993C260.571 203.479 256.681 202.485 253.536 200.212C248.63 196.642 233.32 185.212 229.042 182.056C229.555 179.844 230.233 177.672 231.068 175.56C231.107 175.468 231.108 175.365 231.071 175.272C231.034 175.18 230.962 175.105 230.87 175.066C230.778 175.027 230.675 175.026 230.582 175.063C230.489 175.1 230.415 175.172 230.376 175.264C227.26 183.485 226.083 192.314 226.934 201.064C214.734 204.762 205.716 205.094 194.916 202.244C189.577 191.001 186.408 178.851 185.574 166.432L185.572 166.422ZM173.324 306.1L194.934 203.014C206.212 205.95 215.706 205.264 227.334 201.714C234.519 204.459 240.465 209.717 244.066 216.514C247.439 222.49 249.491 229.12 250.084 235.956L255.05 286.584C255.07 286.784 254.952 286.496 262.83 299.504C260.771 302.823 258.207 305.8 255.23 308.328L245.584 296.83C245.52 296.754 245.428 296.706 245.328 296.697C245.229 296.688 245.13 296.719 245.053 296.783C244.976 296.847 244.928 296.939 244.92 297.039C244.911 297.139 244.942 297.238 245.006 297.314L254.654 308.808C250.549 312.092 245.92 314.661 240.962 316.408L232.448 308.31C228.716 304.764 226.048 300.246 224.744 295.266L207.284 228.666C207.259 228.57 207.196 228.487 207.11 228.437C207.024 228.386 206.922 228.372 206.825 228.397C206.728 228.422 206.646 228.485 206.595 228.571C206.545 228.657 206.531 228.76 206.556 228.856L215.956 264.724C200.984 310.088 203.714 301.324 201.156 311.022C197.79 311.57 194.373 311.732 190.97 311.504L194.998 296.94C195.019 296.846 195.003 296.747 194.954 296.664C194.904 296.582 194.824 296.521 194.731 296.495C194.638 296.47 194.539 296.481 194.454 296.526C194.369 296.572 194.304 296.648 194.274 296.74L190.206 311.446C184.262 310.895 178.506 309.076 173.326 306.11L173.324 306.1ZM175.002 307.848C182.652 311.724 191.306 313.168 199.8 311.984C199.824 322.584 191.6 343.37 186.866 370.682C179.016 372.869 170.719 372.876 162.866 370.702L175.002 307.848ZM187.456 389.22C188.445 388.752 189.265 387.988 189.802 387.034C190.34 386.08 190.568 384.983 190.456 383.894C190.006 379.478 189.042 375.129 187.582 370.936C192.236 343.974 200.622 322.5 200.548 311.874C200.612 311.874 201.548 311.73 201.602 311.708C201.916 311.594 201.764 311.734 203.816 303.966L216.328 266.06L224.034 295.45C225.375 300.566 228.115 305.206 231.948 308.85C240.962 317.422 240.66 317.274 240.96 317.204C241.16 317.16 242.36 316.684 242.628 316.582L288.124 365.654C292.256 371.854 291.428 374.974 290.934 376.834C286.456 381.004 284.062 381.118 280.896 389.22H187.456Z" fill="white"/>
<path d="M238.418 224.18C238.518 224.18 238.613 224.141 238.684 224.07C238.754 223.999 238.794 223.904 238.794 223.804C238.794 223.704 238.754 223.609 238.684 223.538C238.613 223.468 238.518 223.428 238.418 223.428C238.36 223.428 238.316 223.428 238.264 223.428C231.58 223.428 225.864 220.428 220.772 214.294C220.708 214.217 220.617 214.169 220.517 214.159C220.418 214.15 220.319 214.18 220.242 214.244C220.165 214.308 220.117 214.399 220.107 214.499C220.098 214.598 220.128 214.697 220.192 214.774C224.974 220.556 230.974 224.322 238.418 224.18Z" fill="white"/>
</svg>
