<svg width="400" height="401" viewBox="0 0 400 401" fill="none" xmlns="http://www.w3.org/2000/svg">
<path d="M142.53 86.5036L100.906 14.4056C100.249 13.268 99.3048 12.3233 98.1674 11.6665C97.0299 11.0097 95.7395 10.6639 94.426 10.6639C93.1125 10.6639 91.8222 11.0097 90.6847 11.6665C89.5472 12.3233 88.6026 13.268 87.946 14.4056L46.318 86.5036C45.661 87.6412 45.3151 88.9318 45.315 90.2455C45.315 91.5592 45.6609 92.8498 46.3179 93.9874C46.9749 95.1251 47.9198 96.0696 49.0577 96.7262C50.1956 97.3828 51.4863 97.7281 52.8 97.7276H91.272V390.282C91.279 390.377 91.3217 390.466 91.3916 390.531C91.4616 390.596 91.5535 390.632 91.649 390.632C91.7445 390.632 91.8365 390.596 91.9064 390.531C91.9763 390.466 92.0191 390.377 92.026 390.282H96.826C96.826 390.624 97.426 390.992 97.474 390.16C97.762 385.904 97.578 351.854 97.578 97.7216H136.05C137.363 97.7218 138.653 97.3764 139.79 96.7202C140.927 96.0639 141.871 95.1199 142.528 93.9831C143.185 92.8462 143.531 91.5565 143.531 90.2436C143.531 88.9307 143.186 87.6408 142.53 86.5036Z" fill="#1890ff"/>
<path d="M200.162 312.24C200.414 322.84 191.984 343.822 187.188 371.662C179.092 373.971 170.512 373.971 162.416 371.662L174.73 307.978C182.541 312.06 191.447 313.552 200.162 312.24Z" fill="#FFE7EA"/>
<path d="M303.25 348.47C300.424 357.686 297.098 360.408 288.414 366.11L242.722 316.83C250.816 313.855 257.768 308.408 262.594 301.262C269.028 306.547 274.847 312.538 279.942 319.124C286.922 328.692 303.25 348.47 303.25 348.47Z" fill="#FFE7EA"/>
<path d="M258.418 292.15C278.773 280.53 294.106 261.788 301.461 239.534C308.817 217.281 307.674 193.093 298.254 171.632C298.222 171.542 298.225 171.443 298.263 171.355C298.301 171.268 298.37 171.197 298.458 171.159C298.545 171.12 298.644 171.116 298.734 171.148C298.824 171.179 298.899 171.243 298.944 171.328C308.439 192.958 309.591 217.338 302.179 239.768C294.767 262.198 279.314 281.09 258.8 292.804C258.713 292.854 258.61 292.868 258.513 292.843C258.416 292.817 258.333 292.754 258.282 292.668C258.231 292.581 258.217 292.478 258.243 292.38C258.268 292.283 258.331 292.2 258.418 292.15Z" fill="#1890ff"/>
<path d="M297.2 169.338C289.48 153.167 277.352 139.504 262.21 129.922C247.068 120.34 229.529 115.228 211.61 115.174C195.404 115.12 179.459 119.25 165.319 127.166C151.178 135.082 139.32 146.515 130.894 160.358C130.841 160.443 130.756 160.503 130.659 160.525C130.561 160.548 130.459 160.531 130.374 160.478C130.289 160.425 130.229 160.34 130.206 160.243C130.184 160.145 130.201 160.043 130.254 159.958C138.748 146.005 150.701 134.482 164.955 126.505C179.209 118.527 195.281 114.365 211.616 114.422C229.678 114.476 247.357 119.63 262.619 129.289C277.882 138.949 290.106 152.721 297.886 169.022C297.907 169.067 297.918 169.115 297.92 169.165C297.922 169.215 297.914 169.264 297.897 169.31C297.88 169.357 297.854 169.4 297.82 169.436C297.787 169.472 297.746 169.502 297.701 169.523C297.61 169.565 297.506 169.569 297.412 169.534C297.318 169.499 297.242 169.429 297.2 169.338Z" fill="#1890ff"/>
<path d="M174.74 297.882C152.94 288.751 135.304 271.857 125.245 250.47C115.185 229.083 113.419 204.724 120.288 182.11C120.317 182.014 120.383 181.934 120.471 181.887C120.559 181.84 120.663 181.83 120.758 181.86C120.853 181.889 120.933 181.955 120.98 182.043C121.027 182.131 121.037 182.234 121.008 182.33C114.194 204.765 115.946 228.931 125.927 250.148C135.907 271.365 153.405 288.125 175.032 297.182C175.125 297.22 175.198 297.294 175.237 297.387C175.275 297.48 175.275 297.585 175.236 297.678C175.197 297.77 175.123 297.844 175.03 297.882C174.937 297.921 174.833 297.92 174.74 297.882Z" fill="#1890ff"/>
<path d="M203.422 304.916C203.222 304.898 203.198 304.164 203.684 304.18C204.542 304.206 206.608 304.51 211.616 304.51C216.943 304.728 222.278 304.29 227.498 303.206C227.594 303.179 227.697 303.192 227.784 303.241C227.871 303.291 227.934 303.372 227.961 303.469C227.988 303.565 227.975 303.668 227.925 303.755C227.876 303.841 227.794 303.905 227.698 303.932C221.498 305.604 209.77 305.454 203.422 304.916Z" fill="#1890ff"/>
<path d="M319.698 162.558C321.268 163.054 324.376 164.346 326.144 165.076C330.968 167.076 330.078 168.286 329.24 168.202C325.704 167.878 321.166 166.908 317.912 166.652C318.666 167.114 319.312 167.512 319.65 167.724C324.082 170.486 323.004 171.534 322.198 171.324C318.998 170.474 313.972 168.572 310.978 167.876C307.323 167.12 303.609 166.685 299.878 166.576L294.824 168.396L293.38 167.716C289.159 165.487 285.847 161.856 284.016 157.448L283.514 155.334C284.618 154.559 285.876 154.032 287.202 153.788C294.327 151.49 301.301 148.746 308.082 145.574C316.214 141.926 313.994 144.754 311.922 147.218C310.412 149.018 302.876 154.034 306.922 155.258C310.878 155.804 324.814 157.794 327.566 158.73C335.348 161.358 334.142 163.13 326.624 162.652C323.96 162.482 320.692 162.5 319.698 162.558Z" fill="#FFE7EA"/>
<path d="M123.042 161.406C119.748 166.057 117.642 171.444 116.906 177.096L110.29 176.37C106.683 177.344 103.172 178.643 99.8 180.252C97.06 181.652 92.634 184.672 89.718 186.252C88.98 186.652 87.686 185.888 91.34 182.158C91.626 181.872 92.154 181.334 92.78 180.708C89.83 181.678 85.18 183.84 82.136 184.894C81.336 185.168 80.192 184.202 84.408 181.116C85.328 180.444 88.506 178.136 90.092 177.142C87.8186 177.598 85.5714 178.176 83.36 178.874C76.17 181.128 74.578 179.674 81.516 175.292C82.898 174.412 91.516 170.596 100.872 166.988C104.52 164.834 95.894 161.788 93.998 160.402C91.398 158.494 88.582 156.268 97.346 157.896C104.672 159.39 112.088 160.407 119.546 160.94C120.73 160.873 121.916 161.031 123.042 161.406Z" fill="#FFE7EA"/>
<path d="M212.476 148.414C212.462 148.204 210.31 137.592 213.236 136.054C220.036 132.488 216.92 126.254 213.372 129.226C211.666 130.65 211.024 130.426 210.918 129.278C210.976 122.956 204.794 112.06 198.05 127.646C195.83 132.774 195.204 136.322 195.532 138.752C196.102 143.012 199.674 144.152 203.958 143.63L206.93 143.01L203.81 147.48C203.488 149.654 202.632 151.842 200.444 151.33C198.801 150.924 197.13 150.644 195.444 150.492C195.444 150.492 200.356 168.144 205.408 176.434C209.011 166.814 214.094 157.816 220.474 149.766C215.51 150.252 213.564 153.66 212.476 148.414Z" fill="#FFE7EA"/>
<path d="M318.324 77.5936C303.556 74.7936 288.654 83.2376 285.94 97.5936C285.048 102.417 285.655 107.398 287.68 111.866L281.29 122.328C281.256 122.385 281.237 122.45 281.236 122.517C281.236 122.583 281.252 122.649 281.285 122.707C281.318 122.765 281.365 122.814 281.423 122.847C281.48 122.881 281.545 122.899 281.612 122.9C281.812 122.9 283.612 122.5 293.784 120.43C309.704 135.53 337.28 128.6 341.17 108.03C343.8 94.1316 333.55 80.4816 318.324 77.5936ZM340.43 107.904C337.924 121.158 324.054 130.176 308.926 127.314C303.348 126.281 298.195 123.639 294.1 119.714C294.032 119.67 294.026 119.64 293.724 119.684C293.022 119.788 290.724 120.296 282.384 121.99L288.384 112.19C288.476 111.916 288.56 111.99 288.4 111.634C280.054 93.0336 297.252 74.3856 318.2 78.3396C333 81.1356 342.982 94.3996 340.43 107.904Z" fill="#1890ff"/>
<path d="M313.844 106.408C313.714 106.406 313.59 106.353 313.499 106.26C313.407 106.167 313.357 106.042 313.358 105.912C313.41 101.448 318.558 98.9916 318.58 94.6576C318.608 94.0697 318.513 93.4823 318.301 92.9332C318.089 92.3841 317.764 91.8854 317.348 91.469C316.932 91.0527 316.433 90.728 315.884 90.5157C315.335 90.3034 314.748 90.2082 314.16 90.2362C313.572 90.2642 312.996 90.4148 312.47 90.6783C311.944 90.9418 311.478 91.3124 311.103 91.7664C310.729 92.2204 310.453 92.7477 310.294 93.3145C310.135 93.8813 310.096 94.475 310.18 95.0577C310.195 95.1848 310.16 95.313 310.082 95.4146C310.004 95.5162 309.889 95.5832 309.762 95.6012C309.636 95.6192 309.507 95.5869 309.404 95.5111C309.3 95.4353 309.231 95.3221 309.21 95.1957C309.112 94.4814 309.163 93.7546 309.361 93.0614C309.559 92.3681 309.899 91.7236 310.359 91.1686C310.819 90.6137 311.39 90.1605 312.034 89.8378C312.679 89.5152 313.384 89.3301 314.104 89.2943C314.824 89.2585 315.543 89.3729 316.217 89.6301C316.89 89.8873 317.503 90.2817 318.016 90.7883C318.529 91.2949 318.931 91.9026 319.196 92.5729C319.462 93.2431 319.585 93.9612 319.558 94.6817C319.534 99.3517 314.382 101.94 314.336 105.924C314.334 106.053 314.281 106.176 314.189 106.266C314.097 106.357 313.973 106.408 313.844 106.408Z" fill="#1890ff"/>
<path d="M315.174 111.654C315.148 111.993 314.991 112.308 314.736 112.534C314.481 112.759 314.149 112.877 313.809 112.861C313.469 112.846 313.148 112.699 312.915 112.452C312.682 112.204 312.554 111.876 312.558 111.536C312.584 111.196 312.741 110.881 312.996 110.655C313.251 110.43 313.583 110.312 313.923 110.328C314.263 110.343 314.583 110.49 314.817 110.737C315.05 110.985 315.178 111.313 315.174 111.654Z" fill="#1890ff"/>
<path d="M297.4 290.108C297.3 290.108 297.205 290.068 297.134 289.997C297.064 289.927 297.024 289.831 297.024 289.732C297.024 289.632 297.064 289.536 297.134 289.466C297.205 289.395 297.3 289.356 297.4 289.356H305.59C305.69 289.356 305.785 289.395 305.856 289.466C305.926 289.536 305.966 289.632 305.966 289.732C305.966 289.831 305.926 289.927 305.856 289.997C305.785 290.068 305.69 290.108 305.59 290.108H297.4Z" fill="#1890ff"/>
<path d="M320.118 290.066C320.018 290.066 319.923 290.026 319.852 289.956C319.782 289.885 319.742 289.789 319.742 289.69C319.742 289.59 319.782 289.494 319.852 289.424C319.923 289.353 320.018 289.314 320.118 289.314H328.308C328.408 289.314 328.503 289.353 328.574 289.424C328.644 289.494 328.684 289.59 328.684 289.69C328.684 289.789 328.644 289.885 328.574 289.956C328.503 290.026 328.408 290.066 328.308 290.066H320.118Z" fill="#1890ff"/>
<path d="M312.456 282.446V274.256C312.455 274.207 312.464 274.158 312.482 274.112C312.5 274.067 312.527 274.025 312.561 273.99C312.595 273.955 312.636 273.927 312.681 273.908C312.726 273.889 312.775 273.88 312.824 273.88C312.923 273.883 313.017 273.924 313.088 273.993C313.159 274.062 313.202 274.155 313.208 274.254V282.444C313.208 282.493 313.199 282.542 313.18 282.588C313.161 282.633 313.133 282.675 313.099 282.71C313.028 282.781 312.933 282.82 312.833 282.821C312.784 282.821 312.735 282.811 312.689 282.792C312.643 282.774 312.602 282.746 312.567 282.711C312.496 282.641 312.456 282.545 312.456 282.446Z" fill="#1890ff"/>
<path d="M312.496 305.168V296.978C312.503 296.882 312.546 296.793 312.616 296.728C312.686 296.663 312.777 296.627 312.873 296.627C312.968 296.627 313.06 296.663 313.13 296.728C313.2 296.793 313.243 296.882 313.25 296.978V305.168C313.243 305.263 313.2 305.352 313.13 305.417C313.06 305.482 312.968 305.518 312.873 305.518C312.777 305.518 312.686 305.482 312.616 305.417C312.546 305.352 312.503 305.263 312.496 305.168Z" fill="#1890ff"/>
<path d="M307.706 284.958C307.478 284.958 307.906 285.324 301.638 279.068C301.567 278.997 301.528 278.901 301.528 278.802C301.528 278.702 301.567 278.606 301.638 278.536C301.709 278.465 301.804 278.425 301.904 278.425C302.004 278.425 302.099 278.465 302.17 278.536L307.97 284.316C308.023 284.368 308.058 284.435 308.073 284.508C308.088 284.581 308.08 284.656 308.052 284.725C308.024 284.793 307.976 284.852 307.914 284.894C307.853 284.935 307.78 284.957 307.706 284.958Z" fill="#1890ff"/>
<path d="M323.8 300.996C323.574 300.996 324 301.362 317.734 295.106C317.699 295.071 317.671 295.029 317.652 294.984C317.633 294.938 317.623 294.889 317.623 294.839C317.623 294.79 317.633 294.741 317.652 294.695C317.67 294.649 317.698 294.608 317.733 294.573C317.768 294.538 317.809 294.51 317.855 294.491C317.901 294.472 317.95 294.462 317.999 294.462C318.049 294.462 318.098 294.471 318.144 294.49C318.189 294.509 318.231 294.537 318.266 294.572L324.066 300.354C324.119 300.406 324.154 300.473 324.169 300.546C324.184 300.619 324.176 300.695 324.148 300.764C324.119 300.832 324.071 300.891 324.009 300.932C323.947 300.974 323.874 300.996 323.8 300.996Z" fill="#1890ff"/>
<path d="M317.98 284.94C317.906 284.94 317.833 284.918 317.771 284.876C317.709 284.835 317.661 284.776 317.632 284.708C317.604 284.639 317.596 284.563 317.611 284.49C317.626 284.417 317.661 284.35 317.714 284.298L323.494 278.498C323.564 278.427 323.66 278.387 323.76 278.386C323.859 278.386 323.955 278.425 324.026 278.496C324.097 278.566 324.137 278.661 324.137 278.761C324.138 278.861 324.098 278.957 324.028 279.028C317.756 285.334 318.2 284.94 317.98 284.94Z" fill="#1890ff"/>
<path d="M301.944 301.036C301.869 301.036 301.796 301.014 301.734 300.973C301.672 300.932 301.623 300.873 301.595 300.805C301.566 300.736 301.558 300.66 301.573 300.587C301.587 300.514 301.623 300.446 301.676 300.394L307.458 294.594C307.529 294.523 307.624 294.483 307.724 294.483C307.824 294.483 307.919 294.523 307.99 294.594C308.061 294.664 308.1 294.76 308.1 294.86C308.1 294.959 308.061 295.055 307.99 295.126C301.718 301.428 302.172 301.036 301.944 301.036Z" fill="#1890ff"/>
<path d="M94.424 66.1716C93.8936 66.1716 93.3849 65.9609 93.0098 65.5858C92.6347 65.2108 92.424 64.7021 92.424 64.1716V39.0236C92.424 38.4932 92.6347 37.9845 93.0098 37.6094C93.3849 37.2343 93.8936 37.0236 94.424 37.0236C94.9544 37.0236 95.4631 37.2343 95.8382 37.6094C96.2133 37.9845 96.424 38.4932 96.424 39.0236V64.1716C96.424 64.7021 96.2133 65.2108 95.8382 65.5858C95.4631 65.9609 94.9544 66.1716 94.424 66.1716Z" fill="white"/>
<path d="M94.426 72.5336C93.6779 72.5332 92.9465 72.7547 92.3243 73.17C91.7021 73.5854 91.217 74.1759 90.9305 74.8669C90.6439 75.558 90.5687 76.3185 90.7144 77.0522C90.8601 77.786 91.2202 78.4601 91.749 78.9892C92.2779 79.5183 92.9517 79.8787 93.6854 80.0248C94.4191 80.1709 95.1797 80.0961 95.8709 79.8099C96.562 79.5237 97.1528 79.039 97.5685 78.417C97.9841 77.795 98.206 77.0637 98.206 76.3156C98.2049 75.3133 97.8064 74.3522 97.0978 73.6432C96.3892 72.9343 95.4284 72.5352 94.426 72.5336Z" fill="white"/>
<path d="M146.584 53.3036C147.027 52.7715 147.594 52.3571 148.236 52.0972C148.877 51.8374 149.573 51.7401 150.261 51.8141C150.95 51.8881 151.609 52.131 152.181 52.5214C152.752 52.9117 153.219 53.4372 153.538 54.0513C153.858 54.6653 154.021 55.3488 154.012 56.041C154.004 56.7332 153.824 57.4125 153.49 58.0186C153.156 58.6248 152.677 59.1388 152.096 59.5152C151.515 59.8915 150.85 60.1184 150.16 60.1756C149.333 60.25 148.503 60.077 147.775 59.6785C147.046 59.2801 146.453 58.6741 146.07 57.9377C145.686 57.2013 145.531 56.3676 145.622 55.5425C145.714 54.7174 146.049 53.9381 146.584 53.3036ZM146.368 56.3036C146.417 56.8675 146.605 57.4106 146.914 57.8845C147.224 58.3585 147.646 58.7488 148.142 59.0208C148.638 59.2928 149.194 59.4381 149.76 59.4438C150.326 59.4495 150.885 59.3154 151.387 59.0535C151.889 58.7915 152.318 58.4098 152.637 57.9421C152.956 57.4745 153.154 56.9353 153.215 56.3725C153.276 55.8097 153.197 55.2407 152.985 54.7158C152.773 54.1909 152.434 53.7265 152 53.3636C151.479 52.9275 150.84 52.6555 150.165 52.582C149.489 52.5085 148.807 52.6368 148.205 52.9507C147.602 53.2647 147.106 53.7501 146.779 54.3458C146.452 54.9415 146.309 55.6207 146.368 56.2976V56.3036Z" fill="#1890ff"/>
<path d="M122.4 347.164V331.822C122.4 331.722 122.44 331.626 122.51 331.556C122.581 331.485 122.676 331.446 122.776 331.446C122.876 331.446 122.971 331.485 123.042 331.556C123.112 331.626 123.152 331.722 123.152 331.822V347.166C123.152 347.265 123.112 347.361 123.041 347.431C122.97 347.502 122.875 347.541 122.775 347.541C122.675 347.54 122.58 347.501 122.509 347.43C122.439 347.359 122.4 347.263 122.4 347.164Z" fill="#1890ff"/>
<path d="M130.44 339.868H115.096C114.996 339.868 114.901 339.828 114.83 339.758C114.76 339.687 114.72 339.591 114.72 339.492C114.72 339.392 114.76 339.296 114.83 339.226C114.901 339.155 114.996 339.116 115.096 339.116H130.44C130.54 339.116 130.635 339.155 130.706 339.226C130.776 339.296 130.816 339.392 130.816 339.492C130.816 339.591 130.776 339.687 130.706 339.758C130.635 339.828 130.54 339.868 130.44 339.868Z" fill="#1890ff"/>
<path d="M129.488 164.482C128.993 164.483 128.51 164.631 128.1 164.907C127.689 165.183 127.37 165.574 127.181 166.031C126.993 166.488 126.944 166.991 127.041 167.476C127.137 167.961 127.376 168.407 127.725 168.756C128.075 169.106 128.521 169.344 129.006 169.441C129.491 169.538 129.993 169.489 130.451 169.301C130.908 169.112 131.299 168.792 131.575 168.382C131.85 167.971 131.998 167.488 132 166.994C132.001 166.664 131.936 166.337 131.81 166.031C131.684 165.726 131.499 165.449 131.266 165.216C131.033 164.982 130.755 164.797 130.45 164.671C130.145 164.545 129.818 164.481 129.488 164.482Z" fill="#1890ff"/>
<path d="M149.52 191.134C150.903 191.134 152.024 190.013 152.024 188.63C152.024 187.247 150.903 186.126 149.52 186.126C148.137 186.126 147.016 187.247 147.016 188.63C147.016 190.013 148.137 191.134 149.52 191.134Z" fill="#1890ff"/>
<path d="M172.902 167.928C172.406 167.926 171.922 168.072 171.509 168.347C171.097 168.621 170.775 169.012 170.584 169.469C170.394 169.927 170.343 170.43 170.439 170.916C170.535 171.403 170.773 171.849 171.123 172.2C171.473 172.551 171.919 172.79 172.405 172.887C172.891 172.984 173.395 172.935 173.853 172.746C174.311 172.556 174.702 172.235 174.978 171.823C175.253 171.411 175.4 170.927 175.4 170.432C175.4 169.769 175.137 169.133 174.669 168.663C174.2 168.194 173.565 167.929 172.902 167.928Z" fill="#1890ff"/>
<path d="M198.614 194.312C199.997 194.312 201.118 193.191 201.118 191.808C201.118 190.425 199.997 189.304 198.614 189.304C197.231 189.304 196.11 190.425 196.11 191.808C196.11 193.191 197.231 194.312 198.614 194.312Z" fill="#1890ff"/>
<path d="M220.48 172.936C220.975 172.936 221.459 172.789 221.871 172.514C222.283 172.238 222.604 171.847 222.793 171.39C222.983 170.932 223.033 170.429 222.936 169.943C222.839 169.457 222.601 169.011 222.251 168.661C221.9 168.311 221.454 168.072 220.969 167.976C220.483 167.879 219.979 167.929 219.522 168.118C219.064 168.308 218.673 168.629 218.398 169.04C218.123 169.452 217.976 169.936 217.976 170.432C217.977 171.096 218.241 171.732 218.71 172.202C219.179 172.671 219.816 172.935 220.48 172.936Z" fill="#1890ff"/>
<path d="M247.778 174.352C248.273 174.352 248.757 174.205 249.169 173.93C249.581 173.654 249.902 173.263 250.091 172.806C250.281 172.348 250.331 171.845 250.234 171.359C250.137 170.873 249.899 170.427 249.549 170.077C249.198 169.727 248.752 169.488 248.267 169.392C247.781 169.295 247.277 169.345 246.82 169.534C246.362 169.724 245.971 170.045 245.696 170.456C245.421 170.868 245.274 171.352 245.274 171.848C245.274 172.512 245.538 173.149 246.007 173.618C246.477 174.088 247.114 174.352 247.778 174.352Z" fill="#1890ff"/>
<path d="M277.988 170.432C278.483 170.432 278.967 170.285 279.379 170.01C279.791 169.735 280.112 169.343 280.301 168.886C280.491 168.428 280.54 167.925 280.444 167.439C280.347 166.953 280.109 166.507 279.759 166.157C279.408 165.807 278.962 165.568 278.477 165.472C277.991 165.375 277.487 165.425 277.03 165.614C276.572 165.804 276.181 166.125 275.906 166.537C275.631 166.948 275.484 167.432 275.484 167.928C275.484 168.256 275.549 168.582 275.675 168.886C275.8 169.19 275.985 169.466 276.217 169.698C276.45 169.931 276.726 170.115 277.03 170.241C277.334 170.367 277.659 170.432 277.988 170.432Z" fill="#1890ff"/>
<path d="M264.618 197.376C266.001 197.376 267.122 196.255 267.122 194.872C267.122 193.489 266.001 192.368 264.618 192.368C263.235 192.368 262.114 193.489 262.114 194.872C262.114 196.255 263.235 197.376 264.618 197.376Z" fill="#1890ff"/>
<path d="M354.312 389.912H301.41C302.806 389.429 304.092 388.672 305.191 387.685C306.29 386.698 307.181 385.5 307.81 384.164C310.168 378.984 312.25 368.348 314.45 362.258C315.185 360.354 315.188 358.245 314.459 356.339C313.73 354.433 312.321 352.864 310.504 351.936L303.504 348.174C302.53 346.992 286.966 328.1 280.256 318.904C275.216 312.377 269.463 306.435 263.104 301.186C263.182 301.066 263.568 300.462 263.63 300.332C263.734 300.022 264.146 300.892 255.804 287.112L250.848 236.568C250.243 229.627 248.159 222.897 244.734 216.83C241.042 209.921 234.998 204.564 227.696 201.73C227.078 195.64 227.471 189.491 228.86 183.53C233.022 186.594 248.188 197.93 253.1 201.498C256.399 203.883 260.482 204.927 264.521 204.416C268.561 203.906 272.255 201.881 274.858 198.75C284.288 187.378 294.132 176.432 301.93 168.64C302.415 168.228 302.787 167.699 303.01 167.104C312.742 167.852 315.398 169.904 322.11 171.68C322.323 171.751 322.554 171.744 322.763 171.66C322.971 171.576 323.142 171.421 323.246 171.222C323.828 169.882 320.724 167.942 319.514 167.186C322.478 167.552 326.262 168.304 329.214 168.576C329.437 168.612 329.665 168.567 329.858 168.45C330.05 168.333 330.194 168.15 330.264 167.936C330.6 166.59 327.57 165.256 326.106 164.648C324.906 164.152 323.178 163.436 321.706 162.872C323.414 162.86 325.242 162.932 326.616 163.02C328.194 163.122 332.934 163.396 333.238 161.854C333.314 161.478 333.538 160.336 327.704 158.366C325.158 157.5 313.668 155.812 307.022 154.882C306.504 154.72 306.208 154.492 306.148 154.204C305.8 152.584 311.04 148.864 312.222 147.454C313.654 145.75 314.622 144.488 314.092 143.78C313.454 142.934 311.204 143.708 306.652 145.816C302.414 147.776 298.224 149.484 292.652 151.492C289.988 150.198 286.196 149.362 284.176 151.508C275.895 158.695 268.464 166.805 262.026 175.682C259.534 173.614 242.344 159.446 230.388 152.176C227.639 150.308 224.387 149.322 221.064 149.35C218.952 149.595 216.881 150.112 214.902 150.89C214.014 151.046 213.458 150.69 213.018 149.068C213.722 149.326 214.47 149.441 215.219 149.405C215.968 149.368 216.702 149.181 217.377 148.855C218.052 148.529 218.655 148.071 219.149 147.507C219.643 146.943 220.019 146.286 220.254 145.574C220.963 146.476 221.933 147.139 223.031 147.472C224.129 147.806 225.304 147.794 226.395 147.437C227.486 147.081 228.442 146.398 229.132 145.481C229.822 144.564 230.214 143.457 230.254 142.31C231.232 142.833 232.343 143.055 233.447 142.947C234.551 142.838 235.597 142.404 236.454 141.7C237.311 140.996 237.94 140.053 238.26 138.991C238.581 137.929 238.578 136.796 238.254 135.736C239.363 135.892 240.493 135.712 241.499 135.219C242.504 134.726 243.339 133.944 243.895 132.972C244.451 132 244.703 130.883 244.619 129.767C244.534 128.65 244.116 127.585 243.42 126.708C244.574 126.504 245.635 125.944 246.454 125.107C247.273 124.269 247.808 123.195 247.985 122.037C248.161 120.879 247.97 119.694 247.439 118.65C246.907 117.606 246.061 116.756 245.02 116.218C246.076 115.702 246.943 114.866 247.496 113.829C248.05 112.792 248.262 111.607 248.103 110.442C247.944 109.278 247.421 108.193 246.61 107.343C245.799 106.492 244.74 105.919 243.584 105.706C244.301 104.842 244.742 103.783 244.849 102.666C244.957 101.548 244.726 100.424 244.187 99.4399C243.648 98.4553 242.826 97.6554 241.827 97.1439C240.828 96.6325 239.698 96.4331 238.584 96.5716C238.929 95.5161 238.953 94.3817 238.652 93.3127C238.351 92.2437 237.739 91.2883 236.894 90.568C236.048 89.8477 235.008 89.395 233.905 89.2674C232.802 89.1399 231.685 89.3432 230.698 89.8516C230.674 88.7075 230.3 87.5982 229.626 86.6731C228.952 85.748 228.011 85.0515 226.93 84.6774C225.848 84.3033 224.678 84.2695 223.577 84.5807C222.475 84.8918 221.496 85.5329 220.77 86.4176C220.372 85.2795 219.631 84.2927 218.649 83.5929C217.667 82.893 216.493 82.5144 215.287 82.5091C214.081 82.5039 212.903 82.8722 211.916 83.5635C210.928 84.2548 210.178 85.2351 209.77 86.3696C209.054 85.4748 208.081 84.8212 206.982 84.4971C205.882 84.1729 204.71 84.1937 203.623 84.5568C202.536 84.9198 201.587 85.6076 200.903 86.5272C200.22 87.4469 199.835 88.5542 199.8 89.6996C198.819 89.1818 197.706 88.9671 196.603 89.0826C195.5 89.1982 194.455 89.6388 193.603 90.3486C192.75 91.0584 192.128 92.0055 191.814 93.0696C191.501 94.1337 191.51 95.267 191.842 96.3256C190.732 96.1765 189.602 96.3639 188.599 96.8636C187.596 97.3633 186.767 98.1523 186.217 99.1286C185.667 100.105 185.423 101.224 185.516 102.34C185.609 103.457 186.035 104.52 186.738 105.392C185.435 105.631 184.257 106.322 183.413 107.343C182.569 108.364 182.112 109.651 182.122 110.976C182.134 111.998 182.427 112.997 182.969 113.864C183.511 114.731 184.28 115.433 185.194 115.892C184.143 116.415 183.284 117.256 182.739 118.295C182.193 119.335 181.988 120.519 182.154 121.681C182.32 122.843 182.847 123.924 183.661 124.769C184.475 125.615 185.535 126.182 186.69 126.392C185.983 127.26 185.552 128.321 185.454 129.436C185.356 130.552 185.594 131.672 186.139 132.65C186.684 133.629 187.509 134.422 188.509 134.927C189.509 135.431 190.637 135.625 191.748 135.482C191.471 136.338 191.405 137.248 191.556 138.135C191.707 139.022 192.071 139.86 192.616 140.576C193.161 141.292 193.871 141.866 194.685 142.248C195.5 142.631 196.395 142.81 197.294 142.772C199.168 143.959 201.413 144.416 203.602 144.054C203.7 146.922 203.312 151.614 200.532 150.962C192.194 149.002 188.462 150.322 183.72 154.02C174.688 160.483 165.308 166.446 155.622 171.882C144.39 165.106 136.328 162.272 125.856 157.756C125.784 157.725 125.704 157.717 125.627 157.734C125.55 157.751 125.481 157.791 125.428 157.85C124.529 158.842 123.685 159.883 122.9 160.968C121.822 160.644 120.696 160.508 119.572 160.568C112.125 160.018 104.72 159.005 97.4 157.534C92.56 156.636 91.374 156.904 91.078 157.586C90.726 158.4 91.968 159.386 93.762 160.712C95.202 161.77 101.32 164.166 101.374 165.804C101.374 166.098 101.142 166.392 100.664 166.674C91.252 170.312 82.586 174.164 81.3 174.978C76.1 178.272 76.59 179.328 76.75 179.676C76.95 180.096 77.48 180.306 78.35 180.306C80.75 180.306 83.418 179.078 88.166 177.97C86.442 179.16 84.458 180.608 84.166 180.824C81.698 182.624 80.628 184.034 81.074 184.884C81.1923 185.075 81.3753 185.218 81.5899 185.287C81.8044 185.356 82.0364 185.345 82.244 185.258C84.738 184.394 88.562 182.678 91.326 181.628C90.326 182.646 87.79 185.25 88.668 186.412C88.8161 186.582 89.02 186.693 89.2431 186.726C89.4661 186.758 89.6934 186.71 89.884 186.59C96.302 183.104 98.942 179.892 110.182 176.79C110.84 176.79 111.556 176.85 116.478 177.428C116.345 178.409 116.248 179.409 116.188 180.428C116.176 180.628 116.254 180.736 116.708 180.95C124.167 184.062 131.463 187.549 138.57 191.398C141.702 193.024 144.938 194.708 148.838 196.622C151.516 197.946 154.485 198.572 157.469 198.443C160.454 198.313 163.357 197.431 165.91 195.88C172.56 191.852 179.686 187.586 187.31 183.556C188.913 190.365 191.239 196.983 194.25 203.298C175.92 290.752 172.944 304.584 172.6 306.804C172.52 307.334 172.6 307.204 172.636 307.252C172.798 307.39 174.112 308.086 174.3 308.184L162.084 371.366C152 374.366 140.084 383.192 132.868 389.912H52.652C52.5523 389.912 52.4566 389.951 52.3861 390.022C52.3156 390.092 52.276 390.188 52.276 390.288C52.276 390.387 52.3156 390.483 52.3861 390.553C52.4566 390.624 52.5523 390.664 52.652 390.664C318.672 390.664 350.808 390.812 354.354 390.508C354.958 390.456 354.642 389.912 354.312 389.912ZM279.638 319.348C286.216 328.362 301.272 346.662 302.838 348.548C300.012 357.658 296.52 360.326 288.482 365.618L243.376 316.968C251.193 313.977 257.923 308.695 262.686 301.814C268.971 307.01 274.657 312.891 279.638 319.348ZM322.546 170.924C322.532 170.954 322.428 170.99 322.294 170.954C315.834 169.248 313.444 167.354 304.23 166.458C308.756 166.408 313.281 166.594 317.788 167.016L319.452 168.042C322.724 170.082 322.546 170.924 322.546 170.924ZM326 165.424C329.56 166.904 329.524 167.756 329.524 167.756C329.524 167.79 329.418 167.842 329.274 167.828C327.584 167.674 325.62 167.358 323.72 167.056C321.029 166.558 318.307 166.241 315.574 166.108C311.61 165.744 307.629 165.617 303.65 165.728C308.823 164.038 314.211 163.095 319.65 162.928C321.2 163.434 324.496 164.8 326 165.424ZM327.452 159.08C332.518 160.792 332.488 161.71 332.488 161.71C332.44 161.95 331.268 162.57 326.654 162.27C321.508 161.927 316.34 162.183 311.254 163.034C305.658 164.219 300.172 165.874 294.854 167.982L293.568 167.382C289.441 165.202 286.198 161.659 284.392 157.356L283.948 155.51C284.949 154.827 286.084 154.364 287.278 154.154C292.472 153.222 323.69 157.798 327.452 159.082V159.08ZM308.236 145.912C312.696 143.882 313.394 144.168 313.474 144.226C313.602 144.626 312.12 146.392 311.634 146.972C310.258 148.614 304.396 152.452 305.512 154.682C300.778 154.068 294.386 153.444 289.796 153.282C296.074 151.167 302.23 148.706 308.236 145.912ZM200.36 151.696C202.76 152.26 203.8 150.02 204.176 147.576C204.234 147.494 207.224 143.258 207.272 143.176C207.303 143.11 207.315 143.037 207.306 142.966C207.296 142.894 207.266 142.826 207.219 142.771C207.172 142.716 207.11 142.676 207.041 142.655C206.971 142.635 206.897 142.635 206.828 142.656C206.764 142.676 200.756 144.586 197.672 142.116C194.128 139.28 196.404 132.638 198.126 128.432C199.458 125.184 202.304 119.362 205.714 120.088C208.668 120.714 210.576 125.876 210.54 129.288C210.541 129.322 210.545 129.356 210.554 129.39C210.584 129.62 210.678 130.326 211.244 130.546C211.98 130.832 213.002 130.032 213.61 129.524C216.748 126.888 219.3 132.47 213.062 135.724C211.452 136.568 210.732 138.63 211.806 146.672C212.85 154.39 215.006 151.092 219.606 150.272C213.628 157.959 208.821 166.49 205.342 175.586C200.996 168.032 196.792 153.828 195.958 150.926C197.44 151.089 198.91 151.346 200.36 151.696ZM94.214 160.096C93.614 159.648 91.748 158.286 91.772 157.882C92.26 157.254 97.81 158.368 98.372 158.482C104.492 159.696 110.676 160.564 116.894 161.082C112.554 162.304 107.266 164.16 102.094 166.128C102.692 163.682 95.974 161.4 94.214 160.106V160.096ZM99.614 179.908C96.278 181.6 89.514 186.264 89.266 185.948C89.266 185.948 88.896 185.174 91.592 182.42C91.864 182.14 92.366 181.632 92.964 181.034C97.2421 179.565 101.593 178.319 106 177.3C103.82 178.033 101.69 178.907 99.624 179.918L99.614 179.908ZM87.044 182.538C85.266 183.276 83.428 184.04 81.996 184.538C81.864 184.584 81.754 184.556 81.738 184.526C81.738 184.526 81.498 183.7 84.608 181.424C85.008 181.134 88.446 178.624 90.184 177.518C95.5337 176.351 101.027 175.987 106.484 176.438C99.8362 177.884 93.333 179.929 87.054 182.548L87.044 182.538ZM98.372 175.616C93.2352 176.015 88.1594 176.99 83.24 178.522C78.828 179.906 77.542 179.582 77.44 179.36C77.44 179.36 77.194 178.476 81.71 175.614C93.3725 170.059 105.432 165.38 117.788 161.614C119.313 161.201 120.919 161.201 122.444 161.614C119.368 166.123 117.369 171.278 116.6 176.682C110.57 175.801 104.474 175.447 98.382 175.626L98.372 175.616ZM185.572 167.104C185.569 167.004 185.527 166.909 185.454 166.841C185.382 166.773 185.285 166.736 185.185 166.739C185.085 166.742 184.991 166.784 184.922 166.857C184.854 166.929 184.817 167.026 184.82 167.126C185.127 172.402 185.902 177.641 187.136 182.78C179.43 186.846 172.238 191.154 165.526 195.218C163.081 196.704 160.3 197.549 157.441 197.673C154.582 197.797 151.739 197.197 149.174 195.928C137.268 190.086 131.914 186.604 116.962 180.192C117.32 172.174 120.443 164.527 125.8 158.552C136.626 163.204 144.318 165.922 155.416 172.638C155.474 172.672 155.539 172.689 155.606 172.689C155.673 172.689 155.738 172.672 155.796 172.638C155.986 172.532 174.942 161.812 184.176 154.612C185.643 153.255 187.377 152.22 189.267 151.571C191.157 150.922 193.161 150.674 195.152 150.844C195.778 153.044 200.396 168.93 205.088 176.628C205.125 176.688 205.177 176.736 205.24 176.768C205.303 176.799 205.373 176.812 205.443 176.806C205.513 176.799 205.58 176.773 205.636 176.731C205.692 176.689 205.735 176.631 205.76 176.566C209.331 167.03 214.361 158.108 220.672 150.118C223.993 149.975 227.27 150.925 230 152.822C242.8 160.608 261.662 176.358 261.85 176.516C261.918 176.572 262.004 176.603 262.092 176.604H262.134C262.185 176.598 262.234 176.582 262.278 176.556C262.323 176.531 262.361 176.497 262.392 176.456C268.506 168.028 275.493 160.27 283.236 153.31C283.022 154.747 283.172 156.215 283.67 157.58C285.54 162.076 288.918 165.78 293.224 168.054C295.276 169.219 297.635 169.733 299.986 169.528C292.416 177.216 283.16 187.558 274.272 198.274C271.791 201.257 268.27 203.188 264.421 203.674C260.571 204.16 256.681 203.167 253.536 200.894C248.63 197.324 233.32 185.894 229.042 182.738C229.555 180.525 230.233 178.354 231.068 176.242C231.107 176.15 231.108 176.046 231.071 175.954C231.034 175.861 230.962 175.787 230.87 175.748C230.778 175.708 230.675 175.707 230.582 175.744C230.489 175.781 230.415 175.854 230.376 175.946C227.26 184.167 226.083 192.995 226.934 201.746C214.734 205.444 205.716 205.776 194.916 202.926C189.577 191.682 186.408 179.532 185.574 167.114L185.572 167.104ZM173.324 306.782L194.934 203.696C206.212 206.632 215.706 205.946 227.334 202.396C234.519 205.14 240.465 210.399 244.066 217.196C247.439 223.172 249.491 229.801 250.084 236.638L255.05 287.266C255.07 287.466 254.952 287.178 262.83 300.186C260.771 303.504 258.207 306.482 255.23 309.01L245.584 297.512C245.52 297.435 245.428 297.387 245.328 297.378C245.229 297.369 245.13 297.4 245.053 297.465C244.976 297.529 244.928 297.621 244.92 297.72C244.911 297.82 244.942 297.919 245.006 297.996L254.654 309.49C250.549 312.773 245.92 315.342 240.962 317.09L232.448 308.992C228.716 305.445 226.048 300.928 224.744 295.948L207.284 229.348C207.259 229.251 207.196 229.169 207.11 229.118C207.024 229.068 206.922 229.053 206.825 229.079C206.728 229.104 206.646 229.166 206.595 229.252C206.545 229.338 206.531 229.441 206.556 229.538L215.956 265.406C200.984 310.77 203.714 302.006 201.156 311.704C197.79 312.252 194.373 312.414 190.97 312.186L194.998 297.622C195.019 297.527 195.003 297.429 194.954 297.346C194.904 297.263 194.824 297.202 194.731 297.177C194.638 297.151 194.539 297.162 194.454 297.208C194.369 297.253 194.304 297.33 194.274 297.422L190.206 312.128C184.262 311.577 178.506 309.757 173.326 306.792L173.324 306.782ZM175.002 308.53C182.652 312.406 191.306 313.849 199.8 312.666C199.824 323.266 191.6 344.052 186.866 371.364C179.016 373.55 170.719 373.557 162.866 371.384L175.002 308.53ZM187.456 389.902C188.445 389.433 189.265 388.669 189.802 387.715C190.34 386.762 190.568 385.665 190.456 384.576C190.006 380.159 189.042 375.81 187.582 371.618C192.236 344.656 200.622 323.182 200.548 312.556C200.612 312.556 201.548 312.412 201.602 312.39C201.916 312.276 201.764 312.416 203.816 304.648L216.328 266.742L224.034 296.132C225.375 301.247 228.115 305.888 231.948 309.532C240.962 318.104 240.66 317.956 240.96 317.886C241.16 317.842 242.36 317.366 242.628 317.264L288.124 366.336C292.256 372.536 291.428 375.656 290.934 377.516C286.456 381.686 284.062 381.8 280.896 389.902H187.456Z" fill="#1890ff"/>
<path d="M238.418 224.862C238.518 224.862 238.613 224.822 238.684 224.751C238.754 224.681 238.794 224.585 238.794 224.486C238.794 224.386 238.754 224.29 238.684 224.22C238.613 224.149 238.518 224.11 238.418 224.11C238.36 224.11 238.316 224.11 238.264 224.11C231.58 224.11 225.864 221.11 220.772 214.976C220.708 214.899 220.617 214.85 220.517 214.841C220.418 214.831 220.319 214.862 220.242 214.926C220.165 214.989 220.117 215.081 220.107 215.18C220.098 215.28 220.128 215.379 220.192 215.456C224.974 221.238 230.974 225.004 238.418 224.862Z" fill="#1890ff"/>
</svg>
