<svg width="400" height="400" viewBox="0 0 400 400" fill="none" xmlns="http://www.w3.org/2000/svg">
<path d="M223.76 325.04C223.76 325.04 224.88 314.48 224.78 314.46L228.18 315.28L234.04 259.28L216.28 234.54L213.2 264.66C213.009 267.636 212.125 270.526 210.618 273.1C209.11 275.673 207.022 277.858 204.52 279.48C201.888 281.231 198.85 282.275 195.698 282.513C192.546 282.751 189.385 282.175 186.52 280.84L130.86 255.36L129.78 259.36L120 254.86L123 245.24C119.895 243.642 116.593 242.458 113.18 241.72C131.42 328.42 134.28 342.5 134.9 344.66C135.08 345.24 135.16 345.2 135.26 345.2L229.26 342.36C229.343 342.34 229.418 342.293 229.471 342.226C229.524 342.159 229.553 342.076 229.553 341.99C229.553 341.904 229.524 341.821 229.471 341.754C229.418 341.687 229.343 341.64 229.26 341.62L230.94 326.76L223.76 325.04Z" fill="white"/>
<path d="M82.74 97.2202C83.06 98.8002 85.1 108.8 88.02 123.22C110.02 124.92 158.02 128.52 180.14 129.76C180.38 129.76 183.82 129.32 185.34 129.18C188.42 128.88 190.54 128.72 191.34 128.56C197.9 127.3 196.6 119.26 196.6 119.26C195.16 113.68 183.22 104.38 183.22 104.38C178.62 99.7202 184.62 98.8402 184.62 98.8402C184.365 98.3869 184.246 97.8702 184.276 97.3512C184.306 96.8322 184.484 96.3327 184.789 95.9118C185.095 95.491 185.514 95.1663 185.998 94.9764C186.482 94.7865 187.01 94.7392 187.52 94.8402C187.86 95.0002 188.4 94.2202 188.72 93.7002L83.1 96.7802C83.0452 96.7788 82.9907 96.79 82.9409 96.8129C82.891 96.8357 82.8471 96.8697 82.8123 96.9121C82.7776 96.9546 82.753 97.0044 82.7405 97.0578C82.728 97.1112 82.7278 97.1667 82.74 97.2202Z" fill="white"/>
<path d="M230 183.14C259 234.42 256.18 229.14 256.52 230.78C256.548 230.871 256.609 230.948 256.691 230.996C256.773 231.044 256.87 231.059 256.963 231.039C257.056 231.019 257.138 230.965 257.193 230.887C257.248 230.81 257.272 230.714 257.26 230.62L238.66 142.2L230 147.3V183.14Z" fill="white"/>
<path d="M313.58 38.6199C313.567 38.5594 313.54 38.5028 313.501 38.4552C313.461 38.4076 313.411 38.3704 313.353 38.3467C313.296 38.3231 313.234 38.3138 313.173 38.3195C313.111 38.3253 313.052 38.346 313 38.3799L227.64 92.3799L204 93.1399C206.48 96.3999 215.68 109.14 211.54 114.58C210.789 115.424 209.863 116.096 208.827 116.548C207.792 117 206.67 117.223 205.54 117.2C205.62 119.055 206.384 120.814 207.683 122.14C208.983 123.465 210.727 124.263 212.58 124.38L232.58 113L228.36 92.9999L313 39.3999L365 286.3L280.26 339.96L266.98 276.82C266.952 276.729 266.891 276.652 266.809 276.604C266.727 276.556 266.63 276.541 266.537 276.561C266.444 276.581 266.362 276.635 266.307 276.713C266.252 276.79 266.228 276.886 266.24 276.98C266.56 278.58 266.98 273.56 261.86 318.62L264.9 318.76L264.08 329.14L256.56 329.38C255.898 333.438 255.636 337.551 255.78 341.66L280.02 340.94C280.02 340.94 280.02 340.94 280.38 340.76C281.82 339.92 291.74 333.54 365.62 286.76C366 286.48 368.28 297.68 313.58 38.6199Z" fill="white"/>
<path d="M107.7 215.82C107.7 216.02 114.02 214.1 114.02 214.1L132.96 222.9L137.68 215.02L147.68 219.22C147.18 219.74 145.12 223.08 145.12 223.08L174.84 236.48C167.72 198.52 184 185.1 184 185.1L178.48 158.54L94.18 148L107.7 215.82Z" fill="white"/>
<path d="M298 26.2799C297.64 18.7599 295.6 17.2999 293.86 25.3999C293.464 27.6665 292.896 29.8997 292.16 32.0799C292 29.0199 291.7 24.4199 291.4 20.0799C290.88 12.4999 288.56 11.4799 287.02 20.2199C286.55 23.4569 285.759 26.6392 284.66 29.7199C283.98 25.5399 282.86 19.1199 281.72 15.0599C279.72 8.03989 277.42 8.13989 277.28 16.0199C277.28 17.1199 276.98 27.4199 276.9 30.1399C276 27.8999 274.78 24.8199 273.64 21.6599C271.28 15.2399 268.02 15.3999 269.64 23.2199C269.82 24.0799 271.4 32.7399 271.88 35.2199C272.16 36.7999 272.32 40.7399 271 41.2199C267 42.6799 257.4 38.9999 255.98 42.2199C255.06 44.3199 261.84 46.2199 266.32 48.0199C268.92 49.0599 270.32 53.2999 269.8 56.2199C267.8 66.8199 269.18 58.8599 263.04 96.2199L229.86 114.6L230.2 147.32L280.7 117.64C283.341 116.091 285.582 113.946 287.246 111.377C288.909 108.807 289.948 105.883 290.28 102.84C291.54 91.1999 293.54 72.8399 295.3 59.7599C296.894 48.6668 297.796 37.4851 298 26.2799Z" fill="#B2BEC3"/>
<path d="M180.18 129.72L83.22 122.94C80.1 122.7 75.84 120.4 75.04 117.84C73.66 113.44 72.38 106.96 70.1 107.28C66.6 107.74 69.38 117.28 67.44 120.32C66.76 121.4 62.58 120.32 61.08 119.62L48.72 114.7C40.72 111.38 40.22 114.22 46.72 117.88C51.82 120.78 55.66 123.18 56.82 123.88C53.06 122.86 45.62 120.9 41.24 119.78C32.7 117.6 32.72 120.46 39.78 123.18C46.28 125.68 54.08 128.8 54.64 129.04C51.46 128.62 46.2 127.86 41.14 126.84C32.44 125.08 32.84 127.72 39.98 130.3C45.46 132.3 51.06 134.02 53.16 134.54C50.099 134.475 47.0457 134.208 44.02 133.74C35.16 132.34 35.76 134.98 43.36 137.28C48.72 138.92 52.06 139.48 61.96 142.18C71.3436 144.496 80.8437 146.312 90.42 147.62L178.54 158.5L181.3 171.54C193.76 178.16 180.18 129.72 180.18 129.72Z" fill="#B2BEC3"/>
<path d="M212.48 124.38C210.66 124.202 208.963 123.377 207.698 122.057C206.432 120.736 205.681 119.007 205.58 117.18C210.34 117.04 217.24 113.88 208.54 99.3803C199.12 83.7003 194.1 96.0403 194.98 102.8C194.98 104.04 194.36 104.36 192.36 103.06C188.18 100.36 185.66 107.42 193.4 110.34C194.86 110.9 200.66 126.08 191.9 128.34L189.72 128.64L193.72 146.64L220.18 144.34V120L212.48 124.38Z" fill="#B2BEC3"/>
<path d="M95.5 58.9203C95.1677 56.8252 94.3682 54.8317 93.1608 53.0876C91.9534 51.3434 90.3691 49.8933 88.5252 48.8445C86.6813 47.7958 84.6251 47.1754 82.5088 47.0293C80.3926 46.8831 78.2706 47.215 76.3 48.0003C75.6182 46.9469 74.6923 46.0735 73.6009 45.4543C72.5095 44.8351 71.2848 44.4883 70.0308 44.4435C68.7768 44.3986 67.5304 44.6569 66.3976 45.1966C65.2647 45.7362 64.2788 46.5412 63.5234 47.5432C62.7681 48.5452 62.2656 49.7146 62.0587 50.9523C61.8518 52.1899 61.9465 53.4592 62.3348 54.6524C62.7232 55.8456 63.3937 56.9275 64.2894 57.8063C65.1851 58.6851 66.2796 59.3348 67.48 59.7003C67.2647 61.7094 67.4825 63.7413 68.1186 65.6591C68.7548 67.5769 69.7947 69.3361 71.1681 70.8182C72.5415 72.3002 74.2166 73.4707 76.0805 74.2508C77.9445 75.0309 79.954 75.4024 81.9736 75.3404C83.9932 75.2784 85.9761 74.7842 87.7887 73.8912C89.6012 72.9982 91.2013 71.7271 92.4812 70.1636C93.7611 68.6 94.691 66.7803 95.2083 64.827C95.7256 62.8738 95.8182 60.8324 95.48 58.8403L95.5 58.9203ZM83.72 74.4003C81.7056 74.728 79.643 74.5912 77.6895 74.0004C75.736 73.4096 73.9432 72.3804 72.448 70.9913C70.9528 69.6022 69.7947 67.8899 69.0619 65.9851C68.3292 64.0803 68.0412 62.0333 68.22 60.0003C69.6593 60.2873 71.1504 60.1624 72.5219 59.6399C73.8934 59.1175 75.0896 58.2187 75.9732 57.0468C76.8568 55.875 77.3919 54.4776 77.5169 53.0153C77.6419 51.553 77.3518 50.0851 76.68 48.7803C78.4313 48.0655 80.3143 47.7301 82.2046 47.7964C84.095 47.8626 85.9499 48.3289 87.6469 49.1645C89.3438 50.0001 90.8444 51.1861 92.0494 52.6441C93.2545 54.1021 94.1367 55.799 94.6379 57.623C95.1391 59.4469 95.2479 61.3564 94.957 63.2254C94.6662 65.0945 93.9824 66.8806 92.9507 68.4661C91.9189 70.0515 90.5628 71.4001 88.9717 72.423C87.3806 73.4459 85.5907 74.1198 83.72 74.4003Z" fill="white"/>
<path d="M311.5 344.36C311.42 344.321 311.357 344.255 311.32 344.175C311.284 344.094 311.277 344.002 311.301 343.917C311.324 343.831 311.377 343.757 311.45 343.706C311.523 343.656 311.612 343.632 311.7 343.64C330.1 349.26 328.54 322.64 347.56 328.46C347.655 328.492 347.734 328.56 347.779 328.65C347.824 328.74 347.832 328.845 347.8 328.94C347.786 328.987 347.763 329.03 347.733 329.067C347.702 329.105 347.664 329.136 347.621 329.158C347.578 329.18 347.531 329.194 347.483 329.198C347.434 329.201 347.386 329.195 347.34 329.18C328.76 323.5 330.68 350.24 311.5 344.36Z" fill="white"/>
<path d="M78.64 275.52C78.5565 275.501 78.4821 275.453 78.4289 275.386C78.3756 275.319 78.3466 275.236 78.3466 275.15C78.3466 275.064 78.3756 274.981 78.4289 274.914C78.4821 274.847 78.5565 274.8 78.64 274.78L85.58 273.22C85.6304 273.205 85.6834 273.2 85.7357 273.206C85.7881 273.212 85.8386 273.228 85.8841 273.255C85.9296 273.282 85.9691 273.317 86 273.36C86.031 273.403 86.0527 273.451 86.0639 273.503C86.075 273.554 86.0753 273.608 86.0647 273.659C86.0542 273.711 86.033 273.76 86.0026 273.803C85.9721 273.846 85.933 273.882 85.8878 273.909C85.8426 273.936 85.7923 273.954 85.74 273.96C80 275.26 78.84 275.52 78.64 275.52Z" fill="white"/>
<path d="M98 271.18C97.9165 271.16 97.8421 271.113 97.7889 271.046C97.7356 270.979 97.7066 270.896 97.7066 270.81C97.7066 270.724 97.7356 270.641 97.7889 270.574C97.8421 270.507 97.9165 270.459 98 270.44L104.94 268.88C105.034 268.868 105.13 268.892 105.207 268.947C105.285 269.002 105.339 269.084 105.359 269.177C105.379 269.27 105.364 269.367 105.316 269.449C105.268 269.531 105.191 269.592 105.1 269.62C99.16 270.92 98.1 271.18 98 271.18Z" fill="white"/>
<path d="M90 266.12L88.44 259.18C88.4282 259.133 88.4262 259.083 88.4341 259.035C88.4419 258.987 88.4595 258.941 88.4857 258.9C88.5118 258.859 88.5461 258.823 88.5864 258.796C88.6267 258.768 88.6721 258.749 88.72 258.74C88.7686 258.728 88.8191 258.726 88.8685 258.733C88.918 258.741 88.9654 258.758 89.0082 258.784C89.0509 258.81 89.0881 258.845 89.1176 258.885C89.147 258.925 89.1683 258.971 89.18 259.02L90.74 265.96C90.7519 266.054 90.728 266.15 90.6731 266.227C90.6182 266.305 90.5362 266.359 90.4433 266.379C90.3504 266.399 90.2533 266.384 90.1713 266.336C90.0892 266.288 90.0281 266.211 90 266.12Z" fill="white"/>
<path d="M94.34 285.38L92.76 278.44C92.7481 278.346 92.772 278.251 92.8269 278.173C92.8818 278.096 92.9638 278.041 93.0567 278.021C93.1496 278.001 93.2467 278.017 93.3287 278.065C93.4108 278.113 93.4719 278.189 93.5 278.28L95.06 285.22C95.0812 285.316 95.0636 285.416 95.0111 285.498C94.9586 285.581 94.8755 285.639 94.78 285.66C94.6845 285.682 94.5845 285.664 94.502 285.611C94.4195 285.559 94.3612 285.476 94.34 285.38Z" fill="white"/>
<path d="M86.4 269.2C86.2 269.2 86.4 269.3 80.2 265.34C80.1275 265.282 80.0788 265.199 80.0633 265.108C80.0477 265.016 80.0664 264.922 80.1157 264.843C80.165 264.764 80.2415 264.706 80.3308 264.679C80.4201 264.653 80.5158 264.661 80.6 264.7L86.6 268.5C86.6688 268.544 86.7216 268.61 86.7505 268.686C86.7795 268.762 86.7829 268.846 86.7605 268.925C86.738 269.003 86.6908 269.073 86.6259 269.122C86.561 269.172 86.4817 269.199 86.4 269.2Z" fill="white"/>
<path d="M103.1 279.74C102.9 279.74 103.1 279.86 96.88 275.88C96.8393 275.854 96.8042 275.82 96.7766 275.78C96.7491 275.74 96.7296 275.695 96.7194 275.648C96.7092 275.601 96.7084 275.552 96.7171 275.504C96.7258 275.456 96.7438 275.411 96.77 275.37C96.7963 275.329 96.8303 275.294 96.8702 275.267C96.91 275.239 96.9549 275.22 97.0023 275.209C97.0496 275.199 97.0985 275.198 97.1462 275.207C97.1938 275.216 97.2393 275.234 97.28 275.26L103.28 279.06C103.353 279.098 103.411 279.159 103.445 279.234C103.478 279.309 103.485 279.393 103.464 279.473C103.443 279.552 103.395 279.622 103.329 279.67C103.263 279.719 103.182 279.744 103.1 279.74Z" fill="white"/>
<path d="M95.12 267.24C95.0526 267.24 94.9865 267.221 94.9286 267.187C94.8707 267.152 94.823 267.103 94.7904 267.044C94.7578 266.985 94.7415 266.918 94.7432 266.851C94.7449 266.783 94.7645 266.717 94.8 266.66L98.6 260.66C98.6582 260.588 98.7411 260.539 98.8328 260.523C98.9246 260.508 99.0188 260.527 99.0977 260.576C99.1766 260.625 99.2347 260.702 99.2609 260.791C99.2871 260.88 99.2797 260.976 99.24 261.06C95.12 267.56 95.42 267.24 95.12 267.24Z" fill="white"/>
<path d="M84.58 284C84.5126 283.999 84.4465 283.981 84.3886 283.946C84.3307 283.912 84.283 283.863 84.2504 283.803C84.2178 283.744 84.2016 283.678 84.2032 283.61C84.2049 283.543 84.2245 283.477 84.26 283.42L88.06 277.42C88.1131 277.338 88.1966 277.28 88.2922 277.259C88.3879 277.239 88.4878 277.257 88.57 277.31C88.6522 277.363 88.71 277.446 88.7306 277.542C88.7513 277.638 88.7331 277.738 88.68 277.82C84.56 284.24 84.86 284 84.58 284Z" fill="white"/>
<path d="M358 146.6C358 146.4 356.92 144.94 353.3 139.16C353.246 139.076 353.162 139.016 353.065 138.994C352.967 138.971 352.865 138.988 352.78 139.04L308.94 166.74L313.28 147.48C313.292 147.432 313.294 147.381 313.286 147.332C313.279 147.282 313.261 147.235 313.235 147.192C313.209 147.149 313.175 147.112 313.135 147.083C313.094 147.053 313.049 147.032 313 147.02L304.48 145.02C304.385 145.002 304.286 145.021 304.204 145.073C304.123 145.125 304.064 145.206 304.04 145.3L297.16 175.74C296.885 176.965 297.108 178.25 297.779 179.311C298.45 180.372 299.515 181.123 300.74 181.4C330.6 188.14 331.06 188.28 331.26 188.28C331.345 188.28 331.427 188.253 331.496 188.202C331.564 188.152 331.614 188.081 331.64 188L333.64 179.48C333.652 179.431 333.653 179.381 333.644 179.332C333.635 179.282 333.615 179.235 333.587 179.194C333.559 179.153 333.522 179.117 333.48 179.091C333.437 179.065 333.39 179.047 333.34 179.04L314 174.76L357.84 147.06C357.914 147.012 357.969 146.941 357.998 146.857C358.027 146.774 358.028 146.684 358 146.6Z" fill="white"/>
<path d="M344 106.56L350.96 96.7201L341.2 90.0001C341.164 89.9648 341.136 89.9227 341.117 89.8764C341.097 89.83 341.087 89.7803 341.087 89.7301C341.087 89.6799 341.097 89.6302 341.117 89.5839C341.136 89.5375 341.164 89.4955 341.2 89.4601L348 79.5201L338.1 72.3401C338.058 72.3139 338.021 72.2792 337.993 72.2383C337.965 72.1973 337.945 72.1509 337.936 72.102C337.927 72.0532 337.927 72.0029 337.938 71.9544C337.949 71.9059 337.97 71.8601 338 71.8201L345.04 62.0001L334.92 54.8401C334.839 54.7835 334.783 54.6975 334.765 54.6004C334.746 54.5033 334.766 54.4028 334.82 54.3201C334.854 54.2818 334.895 54.2511 334.942 54.2301C334.988 54.2091 335.039 54.1982 335.09 54.1982C335.141 54.1982 335.192 54.2091 335.238 54.2301C335.285 54.2511 335.326 54.2818 335.36 54.3201L345.78 61.6801C345.822 61.7063 345.859 61.741 345.887 61.782C345.915 61.823 345.935 61.8693 345.944 61.9182C345.953 61.9671 345.953 62.0173 345.942 62.0659C345.931 62.1144 345.91 62.1601 345.88 62.2001L338.92 72.0001L348.82 79.2001C348.886 79.2706 348.923 79.3635 348.923 79.4601C348.923 79.5567 348.886 79.6497 348.82 79.7201L342 89.5001L351.82 96.3001C351.863 96.3283 351.9 96.3648 351.928 96.4075C351.957 96.4503 351.976 96.4983 351.985 96.5488C351.995 96.5992 351.994 96.6511 351.982 96.7011C351.971 96.7512 351.95 96.7985 351.92 96.8401L344.74 107C344.682 107.098 344.587 107.169 344.476 107.197C344.365 107.225 344.248 107.208 344.15 107.15C344.052 107.092 343.981 106.997 343.953 106.886C343.925 106.776 343.942 106.658 344 106.56Z" fill="white"/>
<path d="M352.28 86.6L359.24 76.7601L349.42 70C349.378 69.9739 349.341 69.9392 349.313 69.8982C349.285 69.8572 349.265 69.8108 349.256 69.762C349.247 69.7131 349.247 69.6628 349.258 69.6143C349.269 69.5658 349.29 69.5201 349.32 69.4801L356.28 59.62L346.38 52.42C346.314 52.3496 346.277 52.2566 346.277 52.16C346.277 52.0635 346.314 51.9705 346.38 51.9001L353.26 42L343.12 34.8601C342.72 34.5601 343.12 33.9401 343.56 34.2401L354 41.62C354.066 41.6905 354.103 41.7835 354.103 41.8801C354.103 41.9766 354.066 42.0696 354 42.14L347.12 52L357.02 59.18C357.062 59.2062 357.099 59.2409 357.127 59.2819C357.155 59.3229 357.175 59.3693 357.184 59.4181C357.193 59.467 357.193 59.5173 357.182 59.5658C357.171 59.6143 357.15 59.66 357.12 59.7001L350.16 69.56C360.62 76.8 360.16 76.38 360.16 76.6C360.16 76.82 360.74 76.0601 352.92 87.0401C352.862 87.1249 352.772 87.1831 352.671 87.2019C352.569 87.2206 352.465 87.1984 352.38 87.14C352.295 87.0817 352.237 86.992 352.218 86.8908C352.199 86.7895 352.222 86.6849 352.28 86.6Z" fill="white"/>
<path d="M220 155.72L196.44 157.54C196.39 157.543 196.341 157.555 196.296 157.576C196.251 157.598 196.21 157.628 196.177 157.665C196.144 157.703 196.118 157.746 196.101 157.793C196.084 157.84 196.077 157.89 196.08 157.94C197.38 173.94 197.66 178.18 197.78 179.3C197.78 179.76 197.78 179.68 197.94 179.72C209.04 186.08 211.78 187.72 212.52 188.04C212.92 188.26 212.92 188.2 213.26 187.84C213.92 187.1 215.74 184.9 221.86 177.72C221.924 177.659 221.972 177.584 222 177.5C222.028 177.416 222.035 177.327 222.02 177.24C222.02 176.32 221.66 172.54 220.4 156.06C220.398 156.011 220.385 155.963 220.363 155.919C220.342 155.875 220.311 155.835 220.274 155.803C220.236 155.772 220.193 155.748 220.145 155.733C220.098 155.719 220.049 155.715 220 155.72ZM212.8 187.3L198.54 179.16L196.92 158.26L219.74 156.5L221.34 177.22L212.8 187.3Z" fill="white"/>
<path d="M191.36 192.16C190.627 194.96 189.23 197.541 187.287 199.686C185.345 201.83 182.914 203.475 180.2 204.48C180.145 204.49 180.093 204.511 180.047 204.543C180.001 204.575 179.963 204.616 179.935 204.665C179.907 204.713 179.89 204.767 179.885 204.823C179.88 204.879 179.888 204.935 179.907 204.987C179.927 205.04 179.958 205.087 179.998 205.126C180.038 205.165 180.086 205.195 180.138 205.214C180.191 205.232 180.247 205.239 180.303 205.233C180.359 205.227 180.412 205.209 180.46 205.18C183.273 204.136 185.792 202.426 187.802 200.197C189.811 197.968 191.252 195.286 192 192.38C191.99 192.311 191.961 192.246 191.917 192.192C191.872 192.138 191.814 192.097 191.747 192.074C191.681 192.052 191.61 192.048 191.542 192.063C191.473 192.078 191.41 192.112 191.36 192.16Z" fill="white"/>
<path d="M298.3 26.2201C298.16 23.2401 297.68 19.6601 296.3 19.5401C294.3 19.3601 293.4 25.8601 292.3 29.9601C292.14 27.1601 291.9 23.6401 291.66 20.1201C291.46 17.2401 290.92 13.7601 289.46 13.7001C287.6 13.7001 286.7 19.3001 286.54 20.2001C286.115 22.9412 285.493 25.6482 284.68 28.3001C284 24.1801 283 18.6401 281.98 15.0001C281.28 12.5201 280.18 9.62012 278.8 9.62012C276.98 9.62012 276.8 14.2401 276.8 16.0801C276.8 17.0401 276.6 24.8601 276.52 28.5001C275.72 26.5001 274.78 24.0401 273.88 21.5801C272.66 18.2801 271.1 16.4401 269.88 16.8001C268.66 17.1601 268.34 19.5401 269.1 23.3401C269.26 24.0601 271.32 35.3401 271.32 35.3401C271.7 37.3401 271.6 40.6001 270.7 40.9401C266.9 42.3601 257.04 38.5601 255.46 42.1401C254.32 44.7201 261.46 46.6601 266 48.4601C268.42 49.4201 269.74 53.5001 269.26 56.2401C266.54 72.0001 271.48 42.0001 262.58 96.0001L212.4 124C210.738 123.893 209.173 123.182 208 122V121.88C206.918 120.687 206.221 119.196 206 117.6C207.148 117.579 208.278 117.311 209.314 116.814C210.349 116.317 211.265 115.603 212 114.72C214.18 111.66 213.14 106.46 208.92 99.2401C208.071 97.7673 207.108 96.3631 206.04 95.0401C204.96 93.5601 202.56 89.9001 201.44 88.1801C200.64 86.9601 201.28 87.9801 198.7 83.6401C198.303 82.9865 197.678 82.5029 196.946 82.2821C196.214 82.0613 195.426 82.1189 194.733 82.444C194.041 82.769 193.493 83.3385 193.196 84.043C192.898 84.7474 192.871 85.5371 193.12 86.2601C192.602 86.1889 192.075 86.2497 191.587 86.4368C191.1 86.6239 190.667 86.9313 190.33 87.3304C189.993 87.7294 189.762 88.2073 189.659 88.7195C189.555 89.2317 189.583 89.7617 189.74 90.2601C189.264 90.2724 188.796 90.395 188.375 90.6184C187.954 90.8419 187.591 91.16 187.314 91.5477C187.036 91.9354 186.853 92.3822 186.778 92.8529C186.702 93.3236 186.737 93.8053 186.88 94.2601C186.402 94.2703 185.932 94.3912 185.508 94.6132C185.084 94.8352 184.717 95.1524 184.436 95.5398C184.156 95.9272 183.968 96.3744 183.889 96.8464C183.81 97.3183 183.841 97.8022 183.98 98.2601C183.373 98.2822 182.786 98.4832 182.293 98.8381C181.8 99.1929 181.423 99.6856 181.209 100.254C180.995 100.823 180.954 101.442 181.091 102.034C181.229 102.626 181.538 103.164 181.98 103.58C182.16 103.78 181.82 103.1 189.46 110.18C193.64 114.04 195.84 117.18 196.28 119.22C196.68 123.22 195.8 126.9 191.94 127.94L180.26 129.24L83.24 122.46C80.3 122.24 76.16 120.02 75.4 117.64C74.06 113.36 72.82 106.8 70.26 106.8C66.02 106.8 69.02 117.02 67.12 120.02C66.7 120.7 63.24 120.02 61.12 119.18C61.12 119.18 49.46 114.56 48.76 114.26C46.48 113.32 42.56 111.94 41.86 113.4C41.34 114.46 43.02 116.22 46.38 118.12L54.14 122.54L41.18 119.36C38.76 118.74 34.62 117.94 34.14 119.36C33.66 120.78 38.14 122.86 39.5 123.36C43.74 125 48.58 126.92 51.5 128.1C48.72 127.7 45.12 127.12 41 126.3C36.88 125.48 34.34 125.52 34.04 126.6C33.62 128.12 37.82 129.82 39.64 130.48C42.06 131.36 46.62 132.9 49.84 133.84C48 133.72 45.96 133.52 43.84 133.2C39.48 132.5 37.16 132.7 36.92 133.78C36.4 136.06 46.04 138.38 48.4 138.96C54 140.4 58 141.46 61.8 142.5C71.2095 144.836 80.7362 146.672 90.34 148L178.16 158.94L183.6 184.94C181.82 186.5 168.02 199.9 174.42 235.82L145.74 222.9C147.06 220.76 147.6 220 147.74 219.64C147.88 219.28 147.86 219.38 147.74 219.24C147.62 219.1 138.94 215.24 137.74 214.68C137.682 214.638 137.612 214.615 137.54 214.615C137.468 214.615 137.398 214.638 137.34 214.68C137.08 214.98 134.4 219.32 132.72 222.36C113.22 213.3 114.1 213.66 113.88 213.68C112.74 213.9 114.28 213.68 102.86 216.58C89.2104 219.503 75.9714 224.09 63.44 230.24C63.3694 230.265 63.3082 230.311 63.2649 230.372C63.2216 230.432 63.1983 230.505 63.1983 230.58C63.1983 230.655 63.2216 230.728 63.2649 230.789C63.3082 230.85 63.3694 230.896 63.44 230.92C66.24 232 69.26 232.92 72.36 233.88C92.68 239.74 102.36 237.88 118.86 245.26L122.02 246.68C121.36 248.68 119.48 254.46 119.42 254.92C119.36 255.38 119.42 255.14 119.64 255.3C127.02 258.56 128.94 259.48 129.64 259.66C129.735 259.692 129.84 259.684 129.93 259.639C130.02 259.594 130.088 259.516 130.12 259.42C130.42 258.26 130.72 257.1 131.06 255.94L186.38 281.02C189.163 282.267 192.202 282.835 195.248 282.679C198.294 282.523 201.259 281.647 203.9 280.122C206.541 278.598 208.783 276.468 210.441 273.909C212.1 271.35 213.128 268.434 213.44 265.4L216.56 236L233.64 259.38L227.86 314.92C224.28 314.08 224.98 314.18 224.78 314.18C224.722 314.192 224.667 314.216 224.619 314.25C224.57 314.285 224.53 314.329 224.5 314.38C224.5 314.58 223.42 325.12 223.44 325.32C223.448 325.382 223.47 325.442 223.504 325.494C223.539 325.546 223.586 325.589 223.64 325.62C223.94 325.74 227.64 326.6 230.56 327.16C228.88 341.98 228.38 346.08 228.28 347.26C228.28 347.82 228.28 347.72 228.28 347.8C237.86 362 244.96 375.8 259.92 390.36C259.972 390.409 260.036 390.443 260.106 390.457C260.176 390.471 260.248 390.465 260.315 390.44C260.382 390.415 260.44 390.372 260.484 390.315C260.527 390.259 260.553 390.191 260.56 390.12C260.75 377.962 259.677 365.817 257.36 353.88C256.201 346.989 255.959 339.975 256.64 333.02L256.96 329.72C257.36 329.72 264.04 329.72 264.36 329.46C264.436 329.398 264.491 329.314 264.52 329.22C264.52 329.04 265.56 318.44 265.54 318.38C265.44 317.88 265.24 318.08 262.34 318.22L268.34 265.24C269.289 257.039 267.593 248.75 263.5 241.58L230.4 183.04V147.52L280.86 118C283.55 116.422 285.834 114.236 287.528 111.617C289.223 108.999 290.282 106.021 290.62 102.92C296 53.4201 298.76 35.8601 298.3 26.2201ZM287.32 20.3401C288.34 14.5201 289.42 14.4601 289.46 14.4601C289.5 14.4601 290.64 15.5601 290.94 20.1601C291.3 25.3601 291.9 33.9401 291.78 35.3801C289.767 34.5578 287.677 33.9414 285.54 33.5401C285.54 32.9801 285.26 31.5401 284.96 29.7801C286.138 26.7446 286.931 23.5731 287.32 20.3401ZM277.58 16.0001C277.58 11.6001 278.42 10.3401 278.8 10.3001C279.18 10.2601 280.18 11.2001 281.3 15.1201C282.86 20.7201 284.4 30.9201 284.76 33.3401C282.681 33.0332 280.572 32.9794 278.48 33.1801C278.3 32.7201 277.86 31.6401 277.26 30.2001C277.3 29.2201 277.56 17.3001 277.58 16.0001ZM193.58 110H193.46C186.32 107.3 188.36 100.96 192.1 103.38C193.38 104.2 194.1 104.44 194.72 104.16C194.92 104.011 195.078 103.813 195.179 103.586C195.281 103.358 195.322 103.108 195.3 102.86C195.31 102.707 195.31 102.553 195.3 102.4C194.98 99.1801 196.04 94.1201 198.72 92.5401C201.4 90.9601 203.6 93.7001 203.82 93.8201C205.548 95.5088 207.017 97.4429 208.18 99.5601C212.18 106.5 213.3 111.42 211.32 114.22C208.64 118 201.16 116.6 201.08 116.58C201 116.56 200.34 116.86 201.08 117.46C201.82 118.06 203.4 119.26 207.46 122.42C208.791 123.799 210.588 124.633 212.5 124.76C215.048 123.57 217.525 122.234 219.92 120.76V144L194.12 146.26L190.12 128.98L191.96 128.78C200.98 126.38 195.56 111.34 193.64 110H193.58ZM39.86 122.78C35.86 121.24 34.88 119.96 34.96 119.66C35.04 119.36 36.28 118.86 41.08 120.1L58.38 124.32C57.9621 125.833 57.7271 127.391 57.68 128.96L54.7 128.62C54 128.34 46.26 125.24 39.86 122.78ZM34.94 126.92C34.94 126.72 36.18 126.18 40.94 127.14C46.4106 128.287 51.9384 129.142 57.5 129.7C57.5701 131.15 57.7777 132.59 58.12 134C56.5353 133.889 54.9447 133.889 53.36 134C48.8388 132.905 44.3792 131.57 40 130C36 128.4 34.86 127.2 34.94 126.92ZM43.4 136.92C38.98 135.56 37.76 134.38 37.84 134.1C37.92 133.82 39.04 133.34 43.84 134.1C48.597 134.823 53.414 135.07 58.22 134.84C58.48 135.94 58.78 137.04 59.16 138.16C59.1956 138.251 59.2646 138.324 59.3528 138.365C59.4409 138.407 59.5415 138.412 59.6339 138.382C59.7262 138.351 59.8032 138.286 59.849 138.2C59.8948 138.114 59.9059 138.014 59.88 137.92C57.836 132.783 57.836 127.058 59.88 121.92C59.9089 121.872 59.9268 121.819 59.9326 121.763C59.9384 121.707 59.9318 121.651 59.9134 121.598C59.8949 121.546 59.8651 121.498 59.8259 121.458C59.7868 121.418 59.7393 121.387 59.6869 121.368C59.6345 121.348 59.5785 121.34 59.5228 121.345C59.4671 121.35 59.4131 121.367 59.3647 121.395C59.3163 121.423 59.2746 121.461 59.2427 121.507C59.2108 121.553 59.1894 121.605 59.18 121.66C58.92 122.34 58.7 122.98 58.52 123.66L56.82 123.26L46.82 117.54C43.28 115.54 42.46 114.14 42.62 113.8C42.78 113.46 44.46 113.34 48.62 115.04L60.98 119.96C60.98 119.96 66.78 122.14 67.8 120.5C69.8 117.44 67.2 108.04 70.2 107.64C72.2 107.36 73.86 115.16 74.72 117.94C75.58 120.72 79.98 123.04 83.22 123.3L179.86 130C182.7 140.64 188.9 168 184.38 171.52C183.7 172.04 182.76 171.96 181.54 171.26L177.72 153.02C177.689 152.932 177.627 152.858 177.547 152.811C177.467 152.763 177.372 152.745 177.28 152.76L164.14 156.3L90.42 147.2C80.8589 145.889 71.3726 144.08 62 141.78C52.18 139.08 48.86 138.52 43.4 136.88V136.92ZM129.54 258.92L120.4 254.92C124.289 241.048 130.163 227.811 137.84 215.62L146.98 219.62C139.084 231.671 133.194 244.923 129.54 258.86V258.92ZM114 214.5L120.58 217.56C108.24 221.18 91.8 224.38 73.12 233.34C70.3 232.52 67.46 231.62 64.64 230.58C84.54 220.54 102 218.16 114 214.5ZM264.72 318.72L263.76 328.72C250.445 329.39 237.104 328.11 224.16 324.92L225.12 314.92C238.029 318.315 251.401 319.598 264.72 318.72ZM259.8 389.12C244 373.44 236.26 357.72 228.94 347.38L229.76 340.18C237.1 350.74 245.34 365.32 259.76 380.18C259.86 383.16 259.88 386.12 259.8 389.12ZM237.66 197.58C232 195.58 229 189.32 228.96 189.26C228.909 189.19 228.835 189.139 228.751 189.116C228.667 189.093 228.578 189.1 228.499 189.135C228.419 189.17 228.354 189.232 228.314 189.309C228.274 189.386 228.262 189.475 228.28 189.56C228.42 189.86 231.72 196.86 238.28 198.52L262.9 241.86C266.924 248.879 268.592 257.003 267.66 265.04L261.66 318.16C250.587 318.573 239.509 317.503 228.72 314.98L234.54 259.22C234.54 259 235 259.68 226.54 248.14L218.78 215.4C218.76 215.317 218.713 215.242 218.646 215.189C218.579 215.136 218.496 215.107 218.41 215.107C218.324 215.107 218.241 215.136 218.174 215.189C218.107 215.242 218.06 215.317 218.04 215.4L212.82 265.4C212.518 268.314 211.53 271.116 209.937 273.574C208.343 276.033 206.19 278.079 203.653 279.545C201.116 281.01 198.268 281.854 195.342 282.006C192.416 282.158 189.495 281.615 186.82 280.42L131.42 255.28C134.681 244.147 139.388 233.49 145.42 223.58L164.48 232.16C178.02 249.74 177.5 249.16 177.72 249.3C177.786 249.334 177.86 249.348 177.933 249.34C178.007 249.333 178.077 249.304 178.134 249.257C178.191 249.21 178.234 249.148 178.256 249.077C178.279 249.007 178.28 248.931 178.26 248.86C165.12 200.86 184.14 185.58 184.26 185.42C184.38 185.26 184.54 185.68 181.76 172.3C192.1 177 183.54 140.98 180.64 130.06L189.44 129.08L193.44 146.78C193.458 146.861 193.504 146.933 193.57 146.984C193.636 147.035 193.717 147.062 193.8 147.06L220.38 144.78C220.58 144.78 220.62 144.6 220.62 144.4V120.26L229.46 115.22V183.22C229.48 183.34 229.66 183.5 237.66 197.58ZM297.02 39.3401C295.82 56.2801 295.48 51.0601 289.86 102.78C289.531 105.763 288.513 108.627 286.885 111.148C285.256 113.668 283.064 115.774 280.48 117.3L230.48 146.66L230.18 114.8C256.36 100.32 261.58 97.4801 262.72 96.8001C263.1 96.5601 263.24 96.4401 263.26 96.3601L270.02 56.3601C270.58 53.3001 269.08 48.8601 266.3 47.7601C263.52 46.6601 255.4 44.1601 256.18 42.4401C257.42 39.6201 267.08 43.1001 270.98 41.6401C272.74 40.9801 272.3 36.3201 272.1 35.2001C272.1 35.2001 270.1 23.8401 269.86 23.2001C269.08 19.3001 269.58 17.6801 270.1 17.5201C270.62 17.3601 271.98 18.6001 273.16 21.8401C275.02 26.9001 277.04 31.8401 277.66 33.3401C276.66 33.4601 275.66 33.6201 274.48 33.8401C274.426 33.843 274.373 33.8573 274.325 33.8823C274.277 33.9073 274.235 33.9423 274.201 33.9849C274.168 34.0275 274.144 34.0768 274.131 34.1295C274.118 34.1822 274.116 34.237 274.127 34.2902C274.137 34.3435 274.158 34.394 274.189 34.4383C274.22 34.4826 274.261 34.5198 274.307 34.5472C274.354 34.5747 274.406 34.5918 274.46 34.5975C274.514 34.6032 274.569 34.5973 274.62 34.5801C280.541 33.2373 286.738 33.8768 292.26 36.4001C292.35 36.4234 292.444 36.4131 292.527 36.3714C292.609 36.3297 292.674 36.2593 292.708 36.1734C292.743 36.0876 292.744 35.9921 292.714 35.905C292.683 35.8179 292.621 35.745 292.54 35.7001C292.61 34.5545 292.61 33.4057 292.54 32.2601C293.238 30.035 293.805 27.7712 294.24 25.4801C295.34 20.4001 296.24 20.3401 296.24 20.3401C296.24 20.3401 297.36 21.5001 297.58 26.3401C297.7 29.6201 297.3 35.2401 297.02 39.3401Z" fill="white"/>
<path d="M277.08 38.4199C277.031 38.3971 276.977 38.3851 276.923 38.3848C276.869 38.3844 276.815 38.3957 276.765 38.4178C276.716 38.44 276.671 38.4725 276.636 38.5132C276.6 38.5539 276.573 38.6018 276.557 38.6537C276.541 38.7056 276.537 38.7604 276.544 38.8142C276.551 38.868 276.569 38.9197 276.598 38.9658C276.627 39.0119 276.665 39.0513 276.71 39.0813C276.755 39.1113 276.806 39.1313 276.86 39.14C283.88 41.34 287.32 45.36 287.06 51.14C287.06 51.2407 287.1 51.3374 287.171 51.4087C287.243 51.4799 287.339 51.52 287.44 51.52C287.541 51.52 287.637 51.4799 287.709 51.4087C287.78 51.3374 287.82 51.2407 287.82 51.14C288 45 284.48 40.7399 277.08 38.4199Z" fill="white"/>
<path d="M75.86 136.88C69.86 135.7 66 131.66 64.44 124.88C64.4119 124.789 64.3508 124.712 64.2687 124.664C64.1867 124.616 64.0896 124.601 63.9967 124.621C63.9038 124.641 63.8218 124.695 63.7669 124.773C63.712 124.85 63.6881 124.946 63.7 125.04C65.34 132.14 69.36 136.36 75.7 137.6C75.7848 137.598 75.8665 137.567 75.932 137.513C75.9975 137.46 76.0431 137.385 76.0615 137.302C76.0799 137.22 76.0701 137.133 76.0335 137.056C75.997 136.98 75.9359 136.918 75.86 136.88Z" fill="white"/>
</svg>
