<svg width="400" height="401" viewBox="0 0 400 401" fill="none" xmlns="http://www.w3.org/2000/svg">
<path d="M312.84 247.762C312.839 242.822 312.249 237.901 311.08 233.102C311.056 233.003 310.994 232.919 310.908 232.866C310.822 232.814 310.718 232.798 310.62 232.822C310.522 232.845 310.437 232.907 310.385 232.994C310.332 233.08 310.316 233.184 310.34 233.282C311.503 238.02 312.087 242.882 312.08 247.762C312.08 270.682 297 297.962 274.48 302.342C273.718 298.581 272.098 295.046 269.746 292.014C267.394 288.982 264.374 286.535 260.92 284.862L191.04 250.862C190.582 243.563 191.588 236.246 194 229.342C194.033 229.249 194.028 229.147 193.987 229.057C193.946 228.968 193.872 228.898 193.78 228.862C193.733 228.842 193.682 228.833 193.631 228.833C193.58 228.834 193.53 228.845 193.483 228.866C193.437 228.886 193.395 228.916 193.36 228.953C193.325 228.99 193.298 229.034 193.28 229.082C190.879 235.968 189.866 243.262 190.3 250.542L104 208.682C98.036 205.799 91.1724 205.396 84.9124 207.563C78.6524 209.73 73.5059 214.289 70.6001 220.242L64.9601 231.882L58.3001 228.682C56.1251 227.627 53.6206 227.48 51.3368 228.271C49.053 229.062 47.1767 230.728 46.1201 232.902L26.4001 273.502C25.3459 275.677 25.1982 278.181 25.9895 280.465C26.7808 282.749 28.4463 284.625 30.6201 285.682L245.82 390.222C246.895 390.746 248.063 391.053 249.257 391.124C250.451 391.196 251.647 391.031 252.777 390.638C253.907 390.246 254.948 389.635 255.841 388.839C256.734 388.043 257.461 387.079 257.98 386.002L277.72 345.402C278.768 343.229 278.912 340.729 278.121 338.45C277.33 336.171 275.669 334.298 273.5 333.242L266.82 329.982L272.48 318.342C274.777 313.634 275.526 308.321 274.62 303.162C297.5 298.682 312.84 270.982 312.84 247.762ZM30.9401 284.922C28.9488 283.948 27.4245 282.224 26.7011 280.129C25.9776 278.033 26.1139 275.737 27.0801 273.742L46.8001 233.142C47.2803 232.151 47.9514 231.265 48.7748 230.535C49.5982 229.805 50.5578 229.244 51.5984 228.885C52.639 228.527 53.7401 228.377 54.8387 228.445C55.9373 228.513 57.0116 228.797 58.0001 229.282L72.0001 236.102C72.9872 236.58 73.8703 237.248 74.5987 238.068C75.3272 238.888 75.8867 239.844 76.2453 240.881C76.6039 241.917 76.7544 243.015 76.6883 244.11C76.6222 245.205 76.3407 246.276 75.8601 247.262L56.1401 287.862C55.1736 289.855 53.4554 291.383 51.3629 292.111C49.2704 292.838 46.9747 292.706 44.9801 291.742L30.9401 284.922ZM48.2601 293.322C50.0304 293.394 51.7834 292.948 53.304 292.039C54.8246 291.129 56.0466 289.796 56.8201 288.202L70.8201 259.262L241.56 342.202L227.56 371.142C226.769 372.75 226.469 374.556 226.697 376.334C226.924 378.112 227.67 379.784 228.84 381.142L48.2601 293.322ZM273.16 333.842C274.149 334.318 275.034 334.985 275.765 335.804C276.495 336.624 277.057 337.579 277.417 338.616C277.778 339.653 277.93 340.751 277.865 341.846C277.8 342.942 277.52 344.014 277.04 345.002L257.3 385.602C256.822 386.589 256.153 387.472 255.333 388.2C254.513 388.929 253.557 389.488 252.521 389.847C251.484 390.205 250.387 390.356 249.292 390.29C248.197 390.224 247.126 389.942 246.14 389.462L232.14 382.642C230.15 381.672 228.626 379.952 227.903 377.86C227.179 375.768 227.315 373.474 228.28 371.482L248 330.882C248.48 329.894 249.151 329.01 249.973 328.282C250.794 327.553 251.752 326.993 252.79 326.635C253.828 326.276 254.927 326.126 256.024 326.192C257.12 326.259 258.193 326.541 259.18 327.022L273.16 333.842ZM271.8 317.842L266.14 329.482L259.46 326.242C258.385 325.716 257.216 325.408 256.022 325.335C254.827 325.262 253.63 325.425 252.499 325.815C251.367 326.205 250.324 326.815 249.429 327.609C248.533 328.402 247.803 329.365 247.28 330.442L242 341.522L71.2201 258.682L76.5401 247.702C77.5956 245.529 77.7462 243.027 76.9588 240.743C76.1714 238.46 74.5103 236.582 72.3401 235.522L65.6601 232.282L71.3001 220.642C74.1158 214.864 79.1075 210.438 85.181 208.335C91.2545 206.232 97.9142 206.623 103.7 209.422L260.58 285.642C266.34 288.449 270.753 293.424 272.856 299.476C274.958 305.529 274.579 312.168 271.8 317.942V317.842Z" fill="#1890ff"/>
<path d="M214 134.302C224 128.302 224.36 125.542 222.38 126.302C219.34 127.322 217.14 127.902 215.08 128.422C223.78 120.162 222.7 117.402 221.08 118.722C218.2 120.962 215.08 123.382 212.5 125.342C221.3 114.982 220.62 110.482 219.12 112.162C216.74 114.822 213 119.202 210.1 122.282C216.44 112.122 214.1 112.462 211.56 115.542C208.58 119.162 202.24 126.582 201.9 127.342C201.601 128.188 201.406 129.068 201.32 129.962C195.48 123.542 194.12 125.422 195.48 127.322C197.771 130.626 199.526 134.27 200.68 138.122C200.668 140.591 200.434 143.054 199.98 145.482C199.68 146.102 198.38 148.522 196.68 151.482C200.453 154.888 205.221 156.992 210.28 157.482C211.06 155.362 211.76 153.362 212.28 151.622C214.44 145.082 214.92 143.622 213.84 139.762C212.96 136.822 212.12 135.402 214 134.302Z" fill="#FFE7EA"/>
<path d="M190 126.182C190 126.182 186.64 112.542 187.02 105.842C187.44 98.3816 185.42 100.882 184.48 103.422C183.54 105.962 181.86 113.102 180 110.462C179.26 108.762 178.62 107.522 178.1 106.462C176.472 101.728 175.136 96.8989 174.1 92.0016C173.24 87.7016 172.24 88.3816 172.1 89.0616C171.66 91.5773 171.573 94.1419 171.84 96.6816C166.94 90.4816 164.3 90.1616 167.84 97.1216C172.48 106.342 176.34 117.282 175.84 127.562C180.589 128.573 185.535 128.091 190 126.182Z" fill="#FFE7EA"/>
<path d="M122.48 161.642L129.26 166.682L121.26 168.102C118.46 155.442 117.8 155.642 116.6 150.682C111.8 149.662 113.3 144.002 116.6 145.802C118.2 146.642 118.78 146.542 118.76 145.522C119.22 137.102 125.54 134.462 130.22 142.762C134.9 151.062 137.54 167.462 122.48 161.642Z" fill="#FFE7EA"/>
<path d="M374.3 336.422C374.439 336.101 374.514 335.756 374.52 335.407C374.526 335.058 374.463 334.711 374.335 334.386C374.207 334.061 374.016 333.764 373.773 333.513C373.53 333.262 373.24 333.061 372.92 332.922L352.24 323.802C347.886 321.9 344.428 318.399 342.58 314.022C342.58 313.802 334.4 294.702 334.9 295.902C334.693 295.429 334.31 295.054 333.833 294.856C333.356 294.659 332.821 294.654 332.34 294.842L316.82 301.022C316.577 301.122 316.356 301.27 316.17 301.456C315.984 301.643 315.836 301.864 315.736 302.107C315.636 302.351 315.584 302.612 315.585 302.875C315.586 303.138 315.638 303.399 315.74 303.642C316.82 306.262 311.74 294.182 326.4 329.122C327.597 331.975 329.383 334.543 331.64 336.659C333.897 338.775 336.576 340.391 339.5 341.402L352.52 345.882C356.663 347.332 361.199 347.172 365.229 345.435C369.26 343.697 372.49 340.509 374.28 336.502C374.28 336.502 374.3 336.462 374.3 336.422ZM317.1 301.722L332.62 295.522C332.92 295.403 333.254 295.408 333.55 295.536C333.846 295.663 334.08 295.903 334.2 296.202L339.98 309.822L322.14 317.002L316.42 303.342C316.358 303.191 316.326 303.029 316.327 302.866C316.328 302.702 316.36 302.541 316.424 302.39C316.487 302.24 316.579 302.103 316.695 301.989C316.811 301.874 316.949 301.783 317.1 301.722ZM352.78 345.182L339.74 340.682C336.918 339.71 334.333 338.153 332.154 336.113C329.976 334.072 328.254 331.594 327.1 328.842L322.44 317.702L340.28 310.522L341.88 314.302C343.788 318.854 347.366 322.504 351.88 324.502L372.58 333.622C373.029 333.843 373.379 334.224 373.56 334.691C373.742 335.157 373.742 335.675 373.56 336.142C371.857 339.976 368.777 343.032 364.929 344.706C361.082 346.38 356.747 346.549 352.78 345.182Z" fill="#1890ff"/>
<path d="M198.1 217.042C198.052 217.499 197.837 217.923 197.495 218.231C197.154 218.539 196.71 218.709 196.25 218.709C195.79 218.709 195.346 218.539 195.005 218.231C194.663 217.923 194.448 217.499 194.4 217.042C194.448 216.584 194.663 216.161 195.005 215.853C195.346 215.545 195.79 215.374 196.25 215.374C196.71 215.374 197.154 215.545 197.495 215.853C197.837 216.161 198.052 216.584 198.1 217.042Z" fill="#1890ff"/>
<path d="M225.88 196.502C225.832 196.959 225.617 197.383 225.275 197.691C224.934 197.999 224.49 198.169 224.03 198.169C223.57 198.169 223.126 197.999 222.785 197.691C222.443 197.383 222.228 196.959 222.18 196.502C222.228 196.044 222.443 195.621 222.785 195.313C223.126 195.005 223.57 194.834 224.03 194.834C224.49 194.834 224.934 195.005 225.275 195.313C225.617 195.621 225.832 196.044 225.88 196.502Z" fill="#1890ff"/>
<path d="M259.06 208.222C259.012 208.679 258.797 209.103 258.455 209.411C258.114 209.719 257.67 209.889 257.21 209.889C256.75 209.889 256.307 209.719 255.965 209.411C255.623 209.103 255.408 208.679 255.36 208.222C255.408 207.764 255.623 207.34 255.965 207.033C256.307 206.725 256.75 206.554 257.21 206.554C257.67 206.554 258.114 206.725 258.455 207.033C258.797 207.34 259.012 207.764 259.06 208.222Z" fill="#1890ff"/>
<path d="M294.26 198.362C294.212 198.819 293.997 199.243 293.655 199.551C293.314 199.859 292.87 200.029 292.41 200.029C291.95 200.029 291.506 199.859 291.165 199.551C290.823 199.243 290.608 198.819 290.56 198.362C290.608 197.904 290.823 197.481 291.165 197.173C291.506 196.865 291.95 196.694 292.41 196.694C292.87 196.694 293.314 196.865 293.655 197.173C293.997 197.481 294.212 197.904 294.26 198.362Z" fill="#1890ff"/>
<path d="M313.88 225.662C313.88 226.155 313.684 226.628 313.335 226.977C312.986 227.326 312.513 227.522 312.02 227.522C311.527 227.522 311.054 227.326 310.705 226.977C310.356 226.628 310.16 226.155 310.16 225.662C310.16 225.168 310.356 224.695 310.705 224.347C311.054 223.998 311.527 223.802 312.02 223.802C312.513 223.802 312.986 223.998 313.335 224.347C313.684 224.695 313.88 225.168 313.88 225.662Z" fill="#1890ff"/>
<path d="M218.2 178.122C218.2 178.615 218.004 179.088 217.655 179.437C217.307 179.786 216.833 179.982 216.34 179.982C215.847 179.982 215.374 179.786 215.025 179.437C214.676 179.088 214.48 178.615 214.48 178.122C214.48 177.628 214.676 177.155 215.025 176.807C215.374 176.458 215.847 176.262 216.34 176.262C216.833 176.262 217.307 176.458 217.655 176.807C218.004 177.155 218.2 177.628 218.2 178.122Z" fill="#1890ff"/>
<path d="M252 170.202C251.952 170.659 251.737 171.083 251.395 171.391C251.054 171.699 250.61 171.869 250.15 171.869C249.69 171.869 249.246 171.699 248.905 171.391C248.563 171.083 248.348 170.659 248.3 170.202C248.348 169.744 248.563 169.321 248.905 169.013C249.246 168.705 249.69 168.534 250.15 168.534C250.61 168.534 251.054 168.705 251.395 169.013C251.737 169.321 251.952 169.744 252 170.202Z" fill="#1890ff"/>
<path d="M259.06 139.542C259.012 139.999 258.797 140.423 258.455 140.731C258.114 141.039 257.67 141.209 257.21 141.209C256.75 141.209 256.307 141.039 255.965 140.731C255.623 140.423 255.408 139.999 255.36 139.542C255.408 139.084 255.623 138.661 255.965 138.353C256.307 138.045 256.75 137.874 257.21 137.874C257.67 137.874 258.114 138.045 258.455 138.353C258.797 138.661 259.012 139.084 259.06 139.542Z" fill="#1890ff"/>
<path d="M294.26 129.982C294.212 130.439 293.997 130.863 293.655 131.171C293.314 131.479 292.87 131.649 292.41 131.649C291.95 131.649 291.506 131.479 291.165 131.171C290.823 130.863 290.608 130.439 290.56 129.982C290.608 129.524 290.823 129.101 291.165 128.793C291.506 128.485 291.95 128.314 292.41 128.314C292.87 128.314 293.314 128.485 293.655 128.793C293.997 129.101 294.212 129.524 294.26 129.982Z" fill="#1890ff"/>
<path d="M303 97.4617C303 97.955 302.804 98.4281 302.455 98.7769C302.106 99.1257 301.633 99.3217 301.14 99.3217C300.647 99.3217 300.174 99.1257 299.825 98.7769C299.476 98.4281 299.28 97.955 299.28 97.4617C299.28 96.9684 299.476 96.4953 299.825 96.1465C300.174 95.7977 300.647 95.6017 301.14 95.6017C301.633 95.6017 302.106 95.7977 302.455 96.1465C302.804 96.4953 303 96.9684 303 97.4617Z" fill="#1890ff"/>
<path d="M349.18 143.162L339.86 144.622L338.38 135.282C338.38 135.226 338.368 135.172 338.346 135.122C338.323 135.072 338.289 135.027 338.247 134.991C338.205 134.955 338.156 134.929 338.103 134.914C338.049 134.899 337.994 134.896 337.939 134.905C337.885 134.914 337.833 134.934 337.787 134.965C337.741 134.996 337.703 135.037 337.675 135.084C337.646 135.131 337.628 135.184 337.622 135.239C337.616 135.294 337.622 135.349 337.64 135.402L339.1 144.742L329.76 146.202C329.705 146.201 329.65 146.213 329.6 146.236C329.55 146.259 329.505 146.293 329.47 146.335C329.434 146.377 329.407 146.426 329.393 146.479C329.378 146.532 329.374 146.588 329.383 146.643C329.392 146.697 329.413 146.749 329.444 146.795C329.475 146.84 329.515 146.879 329.562 146.907C329.61 146.936 329.663 146.953 329.717 146.959C329.772 146.965 329.828 146.959 329.88 146.942L339.22 145.482L340.68 154.822C340.688 154.872 340.706 154.919 340.732 154.963C340.758 155.006 340.793 155.043 340.834 155.073C340.875 155.103 340.921 155.124 340.97 155.136C341.019 155.148 341.07 155.15 341.12 155.142C341.17 155.134 341.218 155.116 341.261 155.09C341.304 155.063 341.341 155.029 341.371 154.988C341.401 154.947 341.422 154.901 341.434 154.852C341.446 154.803 341.448 154.752 341.44 154.702L340 145.362L349.34 143.902C349.392 143.895 349.443 143.878 349.488 143.851C349.533 143.823 349.572 143.787 349.603 143.744C349.633 143.701 349.654 143.652 349.665 143.601C349.675 143.549 349.675 143.496 349.664 143.444C349.653 143.393 349.631 143.344 349.6 143.302C349.569 143.259 349.53 143.223 349.484 143.197C349.439 143.17 349.388 143.153 349.336 143.147C349.283 143.141 349.23 143.146 349.18 143.162Z" fill="#1890ff"/>
<path d="M98.8601 52.6816C98.8899 49.6196 98.0732 46.6088 96.5001 43.9816C94.7234 41.3263 92.2157 39.2423 89.2801 37.9816C89.225 37.9595 89.1655 37.9507 89.1063 37.9557C89.0472 37.9608 88.9901 37.9796 88.9395 38.0107C88.8889 38.0418 88.8464 38.0843 88.8152 38.1349C88.7841 38.1854 88.7652 38.2425 88.7601 38.3016C88.686 41.4853 89.5109 44.6254 91.1401 47.3616C92.6589 49.6283 94.7218 51.4781 97.1401 52.7416C93.8198 52.9723 90.7188 54.4833 88.4909 56.9559C86.2631 59.4286 85.0824 62.6697 85.1978 65.996C85.3132 69.3223 86.7157 72.4738 89.1096 74.7861C91.5035 77.0984 94.7018 78.3908 98.0301 78.3908C101.358 78.3908 104.557 77.0984 106.951 74.7861C109.344 72.4738 110.747 69.3223 110.862 65.996C110.978 62.6697 109.797 59.4286 107.569 56.9559C105.341 54.4833 102.24 52.9723 98.9201 52.7416L98.8601 52.6816ZM89.5201 38.9216C92.1198 40.0837 94.3198 41.9855 95.8456 44.3899C97.3714 46.7942 98.1555 49.5946 98.1001 52.4416C95.5035 51.2809 93.3057 49.3822 91.7801 46.9818C90.2545 44.5814 89.4686 41.7853 89.5201 38.9416V38.9216ZM98.5001 77.6816C96.103 77.6816 93.7597 76.9708 91.7666 75.639C89.7734 74.3073 88.22 72.4144 87.3027 70.1998C86.3853 67.9851 86.1453 65.5482 86.613 63.1971C87.0806 60.8461 88.2349 58.6865 89.9299 56.9915C91.6249 55.2965 93.7845 54.1422 96.1356 53.6745C98.4866 53.2069 100.924 53.4469 103.138 54.3642C105.353 55.2815 107.246 56.835 108.577 58.8281C109.909 60.8212 110.62 63.1645 110.62 65.5616C110.62 68.7779 109.344 71.8627 107.071 74.1389C104.799 76.415 101.716 77.6963 98.5001 77.7016V77.6816Z" fill="#1890ff"/>
<path d="M370.26 232.682C370.26 231.722 368.44 230.102 356.26 225.442C349.2 222.762 336.88 216.822 330.5 213.642C330.869 211.749 331.083 209.829 331.14 207.902C331.137 207.833 331.117 207.766 331.082 207.707C331.048 207.648 330.999 207.598 330.94 207.562C310.418 196.613 288.755 187.955 266.34 181.742C261.717 180.438 256.867 180.145 252.12 180.882C277.231 158.219 301.068 134.182 323.52 108.882C323.563 108.816 323.586 108.74 323.586 108.662C323.586 108.584 323.563 108.507 323.52 108.442C322.34 106.442 321.12 104.442 319.84 102.722C324.12 96.8617 331.14 91.5417 332.32 87.6217C332.916 85.5164 333.086 83.3135 332.82 81.1417C331.96 72.0217 340.06 53.8217 334.52 53.1417C333.56 53.1417 331.6 54.4017 324.52 65.2817C320.9 70.8617 312.52 81.7817 306.2 89.5417C303.985 88.1506 301.633 86.9912 299.18 86.0817C299.118 86.0404 299.045 86.0184 298.97 86.0184C298.895 86.0184 298.822 86.0404 298.76 86.0817C270.012 118.628 238.865 148.973 205.58 176.862C208.14 171.602 211.04 164.862 214.68 156.242C214.68 156.042 216.48 154.242 212.68 150.782C214.9 144.022 215.08 143.042 213.6 138.202C212.92 135.942 212.76 135.202 214 134.442C225.86 127.362 224 125.022 222 125.682C219.6 126.482 217.72 127.022 216 127.462C224.9 118.782 222.3 116.742 220.46 118.162L214.46 122.922C222.28 112.922 220.12 109.882 218.46 111.642L211.96 119.022C212.881 117.564 213.62 115.999 214.16 114.362C214.5 113.022 213.62 112.702 212.7 113.302C210.897 114.881 209.286 116.666 207.9 118.622C203.9 123.282 201.42 126.382 201.16 126.942C200.932 127.59 200.771 128.26 200.68 128.942C197.66 125.722 195.5 124.382 194.56 125.142C194.06 125.562 194.14 126.442 194.8 127.342C197.054 130.598 198.782 134.189 199.92 137.982C199.868 140.312 199.668 142.637 199.32 144.942C198.427 144.742 197.498 144.765 196.615 145.009C195.733 145.254 194.924 145.711 194.26 146.342L192.96 123.042C192.84 122.842 193.36 120.642 188.82 119.282C187.794 114.82 187.257 110.26 187.22 105.682C187.48 101.182 186.82 100.462 186.24 100.342C185.18 100.122 184.24 102.342 183.96 103.102C183.24 105.102 181.84 110.322 180.68 110.502C180.46 110.502 180.26 110.322 180.12 110.122C177.38 103.902 178.7 108.642 175.76 97.9617C174.26 92.4617 174 88.0817 172.4 88.0617C172.189 88.0731 171.988 88.1569 171.831 88.2989C171.675 88.441 171.572 88.6327 171.54 88.8417C171.145 90.9978 171.024 93.1953 171.18 95.3817C170.16 94.1817 167.18 90.7417 166 91.5617C163.58 93.2017 172.42 102.862 174.66 119.842C169.84 121.642 170.32 123.842 170.32 124.062L172.7 160.682L145.14 169.022C145.241 168.008 145.068 166.986 144.64 166.062C146.103 166.035 147.51 165.489 148.608 164.522C149.707 163.555 150.427 162.23 150.64 160.782C150.8 159.666 150.647 158.527 150.198 157.493C149.75 156.458 149.024 155.568 148.1 154.922C149.344 154.551 150.438 153.794 151.224 152.76C152.01 151.727 152.446 150.47 152.471 149.172C152.495 147.874 152.107 146.602 151.36 145.539C150.614 144.477 149.549 143.679 148.32 143.262C149.268 142.446 149.944 141.36 150.256 140.149C150.568 138.939 150.502 137.661 150.066 136.489C149.63 135.317 148.846 134.307 147.819 133.594C146.791 132.881 145.57 132.5 144.32 132.502C144.886 131.413 145.113 130.179 144.971 128.96C144.83 127.741 144.326 126.593 143.525 125.663C142.724 124.733 141.663 124.064 140.479 123.743C139.294 123.422 138.041 123.464 136.88 123.862C137.054 122.611 136.837 121.337 136.261 120.214C135.685 119.091 134.776 118.173 133.659 117.584C132.541 116.996 131.27 116.767 130.018 116.927C128.765 117.088 127.593 117.631 126.66 118.482C126.453 117.146 125.828 115.911 124.874 114.954C123.921 113.997 122.687 113.367 121.353 113.156C120.018 112.945 118.651 113.163 117.448 113.778C116.245 114.394 115.269 115.376 114.66 116.582C114.039 115.47 113.087 114.578 111.937 114.031C110.787 113.483 109.495 113.307 108.24 113.527C106.985 113.747 105.83 114.352 104.934 115.257C104.038 116.163 103.446 117.325 103.24 118.582C102.265 117.842 101.091 117.411 99.8693 117.346C98.6474 117.28 97.4338 117.582 96.3853 118.213C95.3367 118.844 94.5014 119.774 93.9871 120.885C93.4728 121.995 93.3031 123.234 93.5001 124.442C92.3157 124.079 91.0494 124.083 89.8674 124.454C88.6854 124.824 87.6431 125.543 86.8773 126.517C86.1115 127.49 85.658 128.672 85.5764 129.908C85.4948 131.144 85.7889 132.376 86.4201 133.442C84.9555 133.465 83.5471 134.009 82.4475 134.977C81.348 135.944 80.6291 137.272 80.4201 138.722C80.2508 139.84 80.4014 140.984 80.8543 142.021C81.3073 143.058 82.0442 143.946 82.9801 144.582C81.7415 144.967 80.6568 145.735 79.8816 146.775C79.1064 147.815 78.6804 149.074 78.6649 150.371C78.6493 151.668 79.045 152.937 79.795 153.995C80.5451 155.053 81.6111 155.847 82.8401 156.262C81.907 157.08 81.245 158.164 80.9419 159.367C80.6387 160.571 80.7088 161.838 81.1427 163.001C81.5767 164.164 82.354 165.168 83.3716 165.879C84.3891 166.59 85.5988 166.974 86.8401 166.982C86.2842 168.074 86.068 169.308 86.2194 170.525C86.3708 171.741 86.8828 172.884 87.6896 173.807C88.4963 174.73 89.5608 175.39 90.7461 175.703C91.9313 176.016 93.183 175.967 94.3401 175.562C94.1594 176.819 94.3742 178.101 94.9549 179.231C95.5355 180.36 96.4532 181.281 97.5807 181.866C98.7081 182.45 99.9896 182.67 101.247 182.493C102.505 182.317 103.677 181.754 104.6 180.882C104.787 182.173 105.383 183.371 106.299 184.3C107.215 185.23 108.404 185.842 109.693 186.047C110.982 186.253 112.303 186.041 113.462 185.443C114.622 184.844 115.56 183.891 116.14 182.722C116.558 183.485 117.135 184.151 117.831 184.674C118.527 185.197 119.327 185.566 120.177 185.755C121.027 185.945 121.908 185.95 122.76 185.772C123.613 185.594 124.417 185.236 125.12 184.722C126.259 188.041 127.783 191.216 129.66 194.182C140.96 211.542 156.1 220.182 178.18 219.362C179.32 221.102 185.56 229.362 199.64 230.742C214.28 232.142 254.8 215.682 257.78 214.442C278.459 219.884 298.519 227.451 317.64 237.022C317.702 237.074 317.779 237.103 317.86 237.103C317.941 237.103 318.019 237.074 318.08 237.022C319.42 235.402 320.76 233.702 322.08 231.902C332.4 236.902 334.9 239.422 342.48 237.022C351.38 234.122 370.82 238.282 370.26 232.682ZM195.66 127.082C195.24 126.482 195.2 126.002 195.3 125.902C195.4 125.802 197.06 125.902 200.8 130.062C200.56 131.782 200.42 133.942 200.3 136.062C199.165 132.873 197.604 129.852 195.66 127.082ZM200.34 145.082C201.02 142.262 200.94 130.042 202.12 127.382C202.42 126.702 209.2 118.742 211.74 115.662C212.261 114.928 212.946 114.325 213.74 113.902C213.74 114.222 213.58 115.902 209.74 121.902C208.76 122.962 207.86 123.902 207.18 124.482C206.82 124.822 207.32 125.382 207.68 125.042C210.42 122.582 216.16 115.802 219.34 112.262C219.46 112.122 219.54 112.062 219.54 112.022C219.88 112.602 219 116.882 212.18 124.902C211.44 125.462 210.72 125.962 210.04 126.422C209.976 126.484 209.935 126.567 209.926 126.656C209.916 126.745 209.939 126.834 209.989 126.909C210.039 126.983 210.114 127.037 210.2 127.061C210.286 127.085 210.378 127.079 210.46 127.042C215.5 123.682 221.58 118.262 221.84 118.622C222.1 118.982 221.66 121.522 214.82 127.942L212.6 128.682C212.502 128.706 212.417 128.767 212.365 128.854C212.312 128.94 212.296 129.044 212.32 129.142C212.344 129.24 212.406 129.324 212.492 129.377C212.578 129.43 212.682 129.446 212.78 129.422C222.2 127.062 222.42 126.562 222.92 126.602C223.04 126.942 221.74 129.342 213.78 134.102C211.96 135.182 212.38 136.582 213.04 138.722C214.92 144.862 213.84 145.382 209.9 157.202C205.112 156.666 200.603 154.677 196.98 151.502C200.4 145.422 200.24 145.622 200.34 145.182V145.082ZM213.56 157.322C212.46 159.942 211.42 162.362 210.44 164.622C206.785 164.699 203.157 163.98 199.807 162.516C196.457 161.052 193.466 158.877 191.04 156.142C192.42 153.222 193.56 150.582 194.28 148.842C196 154.062 208.58 159.662 213.56 157.422V157.322ZM172.52 89.1817C172.52 88.7817 172.86 89.1817 173.06 89.4417C173.72 90.6817 174.38 95.5817 176.64 103.442C175.325 101.08 173.855 98.8087 172.24 96.6417C172.011 94.1534 172.105 91.6459 172.52 89.1817ZM168.18 96.9617C166.5 93.6417 166.54 92.5017 166.68 92.3617C166.82 92.2217 167.4 92.1417 170.28 95.3817C172.505 98.028 174.461 100.889 176.12 103.922C178.15 107.161 179.846 110.599 181.18 114.182C181.225 114.263 181.298 114.324 181.385 114.355C181.472 114.386 181.568 114.384 181.653 114.35C181.739 114.316 181.81 114.251 181.851 114.169C181.893 114.086 181.903 113.991 181.88 113.902C181.52 112.982 181.18 112.182 180.86 111.442C182.86 111.442 184.14 105.702 184.86 103.442C185.42 101.942 186.08 101.162 186.28 101.162C186.48 101.162 186.9 101.462 186.66 105.722C186.38 110.962 188.48 120.802 189.64 125.842C185.341 127.678 180.588 128.18 176 127.282C176.36 117.002 172.8 106.202 168.18 96.9617ZM171.44 125.942C175.3 129.842 189.14 129.062 192.54 124.782L192.92 131.562C189.655 133.168 186.088 134.066 182.451 134.197C178.815 134.328 175.192 133.689 171.82 132.322L171.44 125.942ZM172.74 161.422L173.02 166.042C173.02 166.143 173.06 166.239 173.131 166.31C173.203 166.382 173.299 166.422 173.4 166.422C173.501 166.422 173.598 166.382 173.669 166.31C173.74 166.239 173.78 166.143 173.78 166.042C173.08 154.042 172.58 145.722 171.78 133.182C175.165 134.506 178.786 135.122 182.419 134.991C186.052 134.86 189.619 133.986 192.9 132.422L193.78 148.062C191.86 152.882 185.08 168.682 179.26 172.682C173.44 176.682 147.64 172.682 140.6 171.262L172.74 161.422ZM116.96 150.522C116.942 150.451 116.904 150.387 116.851 150.338C116.798 150.288 116.732 150.255 116.66 150.242C112.48 149.342 113.6 144.522 116.46 146.042C117.62 146.662 118.28 146.802 118.72 146.542C118.884 146.418 119.013 146.252 119.094 146.063C119.175 145.874 119.204 145.666 119.18 145.462C119.62 137.302 125.5 135.002 129.92 142.882C132.82 148.042 135.14 157.182 131.92 160.882C130.18 162.882 127.06 163.022 122.6 161.302C122.517 161.273 122.427 161.274 122.345 161.304C122.263 161.334 122.194 161.392 122.149 161.467C122.105 161.542 122.087 161.63 122.1 161.717C122.113 161.803 122.155 161.883 122.22 161.942L128.32 166.522L121.46 167.722C118.48 154.322 118 155.182 116.96 150.522ZM130.46 193.742C125.82 186.602 123.56 176.962 121.64 168.462L129.06 167.162C129.798 168.448 130.619 169.684 131.52 170.862C130.002 171.227 128.578 171.909 127.34 172.862C127.272 172.926 127.23 173.014 127.222 173.108C127.214 173.201 127.242 173.295 127.299 173.369C127.356 173.444 127.439 173.495 127.532 173.512C127.624 173.529 127.72 173.511 127.8 173.462C131.8 170.362 136.24 171.002 141.16 172.042C148.58 173.442 173.44 177.462 179.68 173.182C183.48 170.582 187.68 163.182 190.68 156.942C193.141 159.646 196.144 161.8 199.494 163.265C202.843 164.73 206.464 165.471 210.12 165.442C198.68 191.762 195.14 194.562 182.12 195.742C168.513 197.023 154.802 196.667 141.28 194.682C141.224 194.669 141.166 194.668 141.11 194.681C141.055 194.693 141.002 194.718 140.957 194.754C140.912 194.79 140.876 194.835 140.851 194.886C140.826 194.938 140.813 194.994 140.813 195.052C140.813 195.109 140.826 195.166 140.851 195.217C140.876 195.269 140.912 195.314 140.957 195.349C141.002 195.385 141.055 195.41 141.11 195.423C141.166 195.435 141.224 195.435 141.28 195.422C147.237 196.431 153.247 197.098 159.28 197.422L180.9 202.002C180.28 208.562 178.66 216.962 178.34 218.642C157.38 219.222 142.4 212.102 130.46 193.742ZM317.86 236.182C298.732 226.642 278.673 219.096 258 213.662C257.921 213.642 257.839 213.642 257.76 213.662C257.32 213.842 214.52 231.322 199.86 229.942C185.86 228.602 179.86 220.182 178.88 218.822C180.464 211.49 181.414 204.036 181.72 196.542C193.06 195.562 197.72 192.862 204.84 178.742C238.582 150.594 270.14 119.926 299.24 87.0017C308.6 90.6817 316.54 97.8617 322.82 108.682C300.196 134.183 276.158 158.394 250.82 181.202C249.62 181.442 239.38 184.102 204.82 192.562C204.722 192.586 204.637 192.647 204.585 192.734C204.532 192.82 204.516 192.924 204.54 193.022C204.564 193.12 204.626 193.204 204.712 193.257C204.798 193.309 204.902 193.326 205 193.302L249.44 182.262C254.954 180.887 260.731 180.977 266.2 182.522C288.491 188.71 310.038 197.314 330.46 208.182C330 219.022 324.68 227.822 317.86 236.182Z" fill="#1890ff"/>
<path d="M54.1 183.582L49.22 184.442C48.1013 184.634 46.9521 184.376 46.023 183.724C45.0938 183.072 44.4601 182.079 44.26 180.962L43.4 176.082C43.3709 175.994 43.3112 175.921 43.232 175.874C43.1527 175.828 43.0592 175.811 42.9688 175.828C42.8785 175.845 42.7974 175.895 42.7406 175.967C42.6838 176.039 42.6552 176.13 42.66 176.222L43.52 181.102C43.6174 181.659 43.6034 182.23 43.4788 182.781C43.3543 183.333 43.1216 183.854 42.7943 184.316C42.467 184.777 42.0515 185.169 41.5719 185.468C41.0923 185.768 40.558 185.97 40 186.062L35.12 186.922C35.0328 186.951 34.959 187.01 34.9125 187.09C34.8659 187.169 34.8496 187.262 34.8667 187.353C34.8838 187.443 34.9331 187.524 35.0054 187.581C35.0777 187.638 35.1682 187.666 35.26 187.662L40.14 186.802C41.2587 186.61 42.4079 186.868 43.337 187.52C44.2662 188.172 44.8999 189.164 45.1 190.282L46 195.162C46.0291 195.249 46.0888 195.323 46.1681 195.369C46.2473 195.416 46.3408 195.432 46.4312 195.415C46.5215 195.398 46.6026 195.349 46.6594 195.276C46.7162 195.204 46.7448 195.113 46.74 195.022L45.88 190.142C45.6934 189.024 45.9537 187.877 46.6047 186.949C47.2557 186.021 48.2452 185.387 49.36 185.182L54.24 184.322C54.3272 184.293 54.401 184.233 54.4476 184.154C54.4941 184.074 54.5104 183.981 54.4933 183.891C54.4762 183.8 54.4269 183.719 54.3546 183.662C54.2823 183.606 54.1918 183.577 54.1 183.582ZM45.18 188.322C44.4553 187.19 43.3119 186.392 42 186.102C42.5624 185.745 43.0484 185.281 43.4295 184.735C43.8106 184.189 44.0793 183.572 44.22 182.922C44.9447 184.053 46.0881 184.851 47.4 185.142C46.2686 185.866 45.4703 187.01 45.18 188.322Z" fill="#1890ff"/>
<path d="M242.3 11.9617L241.88 49.3817L265.1 89.5817L265.52 52.1617L242.3 11.9617Z" fill="#1890ff"/>
<path d="M238.24 79.5016L234.78 121.402L264.54 91.6016L250.5 67.2816L238.24 79.5016Z" fill="#1890ff"/>
</svg>
