<svg width="400" height="400" viewBox="0 0 400 400" fill="none" xmlns="http://www.w3.org/2000/svg">
<path d="M312.84 247.08C312.839 242.14 312.249 237.219 311.08 232.42C311.056 232.322 310.994 232.237 310.908 232.184C310.822 232.132 310.718 232.116 310.62 232.14C310.522 232.164 310.437 232.225 310.385 232.312C310.332 232.398 310.316 232.502 310.34 232.6C311.503 237.338 312.087 242.201 312.08 247.08C312.08 270 297 297.28 274.48 301.66C273.718 297.899 272.098 294.365 269.746 291.333C267.394 288.301 264.374 285.853 260.92 284.18L191.04 250.18C190.582 242.881 191.588 235.564 194 228.66C194.033 228.567 194.028 228.465 193.987 228.375C193.946 228.286 193.872 228.216 193.78 228.18C193.733 228.16 193.682 228.151 193.631 228.152C193.58 228.152 193.53 228.163 193.483 228.184C193.437 228.204 193.395 228.234 193.36 228.271C193.325 228.308 193.298 228.352 193.28 228.4C190.879 235.286 189.866 242.58 190.3 249.86L104 208C98.036 205.117 91.1724 204.714 84.9124 206.881C78.6524 209.048 73.5059 213.607 70.6001 219.56L64.9601 231.2L58.3001 228C56.1251 226.946 53.6206 226.798 51.3368 227.589C49.053 228.38 47.1767 230.046 46.1201 232.22L26.4001 272.82C25.3459 274.995 25.1982 277.499 25.9895 279.783C26.7808 282.067 28.4463 283.943 30.6201 285L245.82 389.54C246.895 390.064 248.063 390.371 249.257 390.442C250.451 390.514 251.647 390.349 252.777 389.957C253.907 389.564 254.948 388.953 255.841 388.157C256.734 387.362 257.461 386.397 257.98 385.32L277.72 344.72C278.768 342.547 278.912 340.047 278.121 337.768C277.33 335.489 275.669 333.616 273.5 332.56L266.82 329.3L272.48 317.66C274.777 312.952 275.526 307.639 274.62 302.48C297.5 298 312.84 270.3 312.84 247.08ZM30.9401 284.24C28.9488 283.266 27.4245 281.542 26.7011 279.447C25.9776 277.352 26.1139 275.055 27.0801 273.06L46.8001 232.46C47.2803 231.469 47.9514 230.584 48.7748 229.853C49.5982 229.123 50.5578 228.562 51.5984 228.204C52.639 227.845 53.7401 227.695 54.8387 227.763C55.9373 227.831 57.0116 228.116 58.0001 228.6L72.0001 235.42C72.9872 235.898 73.8703 236.566 74.5987 237.386C75.3272 238.207 75.8867 239.162 76.2453 240.199C76.6039 241.236 76.7544 242.333 76.6883 243.428C76.6222 244.523 76.3407 245.594 75.8601 246.58L56.1401 287.18C55.1736 289.173 53.4554 290.701 51.3629 291.429C49.2704 292.156 46.9747 292.024 44.9801 291.06L30.9401 284.24ZM48.2601 292.64C50.0304 292.712 51.7834 292.267 53.304 291.357C54.8246 290.448 56.0466 289.114 56.8201 287.52L70.8201 258.58L241.56 341.52L227.56 370.46C226.769 372.068 226.469 373.874 226.697 375.652C226.924 377.43 227.67 379.102 228.84 380.46L48.2601 292.64ZM273.16 333.16C274.149 333.636 275.034 334.303 275.765 335.123C276.495 335.942 277.057 336.897 277.417 337.934C277.778 338.971 277.93 340.069 277.865 341.165C277.8 342.26 277.52 343.333 277.04 344.32L257.3 384.92C256.822 385.907 256.153 386.79 255.333 387.518C254.513 388.247 253.557 388.806 252.521 389.165C251.484 389.524 250.387 389.674 249.292 389.608C248.197 389.542 247.126 389.26 246.14 388.78L232.14 381.96C230.15 380.99 228.626 379.27 227.903 377.178C227.179 375.086 227.315 372.792 228.28 370.8L248 330.2C248.48 329.212 249.151 328.328 249.973 327.6C250.794 326.871 251.752 326.311 252.79 325.953C253.828 325.594 254.927 325.444 256.024 325.511C257.12 325.577 258.193 325.859 259.18 326.34L273.16 333.16ZM271.8 317.16L266.14 328.8L259.46 325.56C258.385 325.034 257.216 324.726 256.022 324.653C254.827 324.58 253.63 324.743 252.499 325.133C251.367 325.523 250.324 326.133 249.429 326.927C248.533 327.721 247.803 328.683 247.28 329.76L242 340.84L71.2201 258L76.5401 247.02C77.5956 244.847 77.7462 242.345 76.9588 240.061C76.1714 237.778 74.5103 235.9 72.3401 234.84L65.6601 231.6L71.3001 219.96C74.1158 214.182 79.1075 209.756 85.181 207.653C91.2545 205.55 97.9142 205.941 103.7 208.74L260.58 284.96C266.34 287.768 270.753 292.742 272.856 298.794C274.958 304.847 274.579 311.486 271.8 317.26V317.16Z" fill="white"/>
<path d="M214 133.62C224 127.62 224.36 124.86 222.38 125.62C219.34 126.64 217.14 127.22 215.08 127.74C223.78 119.48 222.7 116.72 221.08 118.04C218.2 120.28 215.08 122.7 212.5 124.66C221.3 114.3 220.62 109.8 219.12 111.48C216.74 114.14 213 118.52 210.1 121.6C216.44 111.44 214.1 111.78 211.56 114.86C208.58 118.48 202.24 125.9 201.9 126.66C201.601 127.506 201.406 128.386 201.32 129.28C195.48 122.86 194.12 124.74 195.48 126.64C197.771 129.943 199.526 133.588 200.68 137.44C200.668 139.909 200.434 142.372 199.98 144.8C199.68 145.42 198.38 147.84 196.68 150.8C200.453 154.206 205.221 156.31 210.28 156.8C211.06 154.68 211.76 152.68 212.28 150.94C214.44 144.4 214.92 142.94 213.84 139.08C212.96 136.14 212.12 134.72 214 133.62Z" fill="#B2BEC3"/>
<path d="M190 125.5C190 125.5 186.64 111.86 187.02 105.16C187.44 97.7 185.42 100.2 184.48 102.74C183.54 105.28 181.86 112.42 180 109.78C179.26 108.08 178.62 106.84 178.1 105.78C176.472 101.046 175.136 96.2173 174.1 91.32C173.24 87.02 172.24 87.7 172.1 88.38C171.66 90.8956 171.573 93.4602 171.84 96C166.94 89.8 164.3 89.48 167.84 96.44C172.48 105.66 176.34 116.6 175.84 126.88C180.589 127.891 185.535 127.409 190 125.5V125.5Z" fill="#B2BEC3"/>
<path d="M122.48 160.96L129.26 166L121.26 167.42C118.46 154.76 117.8 154.96 116.6 150C111.8 148.98 113.3 143.32 116.6 145.12C118.2 145.96 118.78 145.86 118.76 144.84C119.22 136.42 125.54 133.78 130.22 142.08C134.9 150.38 137.54 166.78 122.48 160.96Z" fill="#B2BEC3"/>
<path d="M374.3 335.74C374.439 335.419 374.514 335.075 374.52 334.725C374.526 334.376 374.463 334.029 374.335 333.704C374.207 333.379 374.016 333.082 373.773 332.831C373.53 332.58 373.24 332.379 372.92 332.24L352.24 323.12C347.886 321.218 344.428 317.717 342.58 313.34C342.58 313.12 334.4 294.02 334.9 295.22C334.693 294.747 334.31 294.372 333.833 294.175C333.356 293.977 332.821 293.972 332.34 294.16L316.82 300.34C316.577 300.44 316.356 300.588 316.17 300.775C315.984 300.961 315.836 301.182 315.736 301.425C315.636 301.669 315.584 301.93 315.585 302.193C315.586 302.456 315.638 302.717 315.74 302.96C316.82 305.58 311.74 293.5 326.4 328.44C327.597 331.293 329.383 333.861 331.64 335.977C333.897 338.093 336.576 339.709 339.5 340.72L352.52 345.2C356.663 346.65 361.199 346.49 365.229 344.753C369.26 343.015 372.49 339.827 374.28 335.82C374.28 335.82 374.3 335.78 374.3 335.74ZM317.1 301.04L332.62 294.84C332.92 294.721 333.254 294.726 333.55 294.854C333.846 294.981 334.08 295.221 334.2 295.52L339.98 309.14L322.14 316.32L316.42 302.66C316.358 302.509 316.326 302.347 316.327 302.184C316.328 302.021 316.36 301.859 316.424 301.709C316.487 301.558 316.579 301.421 316.695 301.307C316.811 301.192 316.949 301.101 317.1 301.04ZM352.78 344.5L339.74 340C336.918 339.028 334.333 337.471 332.154 335.431C329.976 333.39 328.254 330.912 327.1 328.16L322.44 317.02L340.28 309.84L341.88 313.62C343.788 318.172 347.366 321.822 351.88 323.82L372.58 332.94C373.029 333.161 373.379 333.542 373.56 334.009C373.742 334.476 373.742 334.993 373.56 335.46C371.857 339.294 368.777 342.35 364.929 344.024C361.082 345.698 356.747 345.867 352.78 344.5Z" fill="white"/>
<path d="M198.1 216.36C198.052 216.817 197.837 217.241 197.495 217.549C197.154 217.857 196.71 218.027 196.25 218.027C195.79 218.027 195.346 217.857 195.005 217.549C194.663 217.241 194.448 216.817 194.4 216.36C194.448 215.902 194.663 215.479 195.005 215.171C195.346 214.863 195.79 214.692 196.25 214.692C196.71 214.692 197.154 214.863 197.495 215.171C197.837 215.479 198.052 215.902 198.1 216.36Z" fill="white"/>
<path d="M225.88 195.82C225.832 196.277 225.617 196.701 225.275 197.009C224.934 197.317 224.49 197.487 224.03 197.487C223.57 197.487 223.126 197.317 222.785 197.009C222.443 196.701 222.228 196.277 222.18 195.82C222.228 195.362 222.443 194.939 222.785 194.631C223.126 194.323 223.57 194.152 224.03 194.152C224.49 194.152 224.934 194.323 225.275 194.631C225.617 194.939 225.832 195.362 225.88 195.82Z" fill="white"/>
<path d="M259.06 207.54C259.012 207.997 258.797 208.421 258.455 208.729C258.114 209.037 257.67 209.207 257.21 209.207C256.75 209.207 256.307 209.037 255.965 208.729C255.623 208.421 255.408 207.997 255.36 207.54C255.408 207.082 255.623 206.659 255.965 206.351C256.307 206.043 256.75 205.873 257.21 205.873C257.67 205.873 258.114 206.043 258.455 206.351C258.797 206.659 259.012 207.082 259.06 207.54Z" fill="white"/>
<path d="M294.26 197.68C294.212 198.137 293.997 198.561 293.655 198.869C293.314 199.177 292.87 199.347 292.41 199.347C291.95 199.347 291.506 199.177 291.165 198.869C290.823 198.561 290.608 198.137 290.56 197.68C290.608 197.222 290.823 196.798 291.165 196.491C291.506 196.183 291.95 196.012 292.41 196.012C292.87 196.012 293.314 196.183 293.655 196.491C293.997 196.798 294.212 197.222 294.26 197.68Z" fill="white"/>
<path d="M313.88 224.98C313.88 225.473 313.684 225.946 313.335 226.295C312.986 226.644 312.513 226.84 312.02 226.84C311.527 226.84 311.054 226.644 310.705 226.295C310.356 225.946 310.16 225.473 310.16 224.98C310.16 224.486 310.356 224.013 310.705 223.664C311.054 223.316 311.527 223.12 312.02 223.12C312.513 223.12 312.986 223.316 313.335 223.664C313.684 224.013 313.88 224.486 313.88 224.98Z" fill="white"/>
<path d="M218.2 177.44C218.2 177.933 218.004 178.406 217.655 178.755C217.307 179.104 216.833 179.3 216.34 179.3C215.847 179.3 215.374 179.104 215.025 178.755C214.676 178.406 214.48 177.933 214.48 177.44C214.48 176.946 214.676 176.473 215.025 176.124C215.374 175.776 215.847 175.58 216.34 175.58C216.833 175.58 217.307 175.776 217.655 176.124C218.004 176.473 218.2 176.946 218.2 177.44Z" fill="white"/>
<path d="M252 169.52C251.952 169.977 251.737 170.401 251.395 170.709C251.054 171.017 250.61 171.187 250.15 171.187C249.69 171.187 249.246 171.017 248.905 170.709C248.563 170.401 248.348 169.977 248.3 169.52C248.348 169.062 248.563 168.639 248.905 168.331C249.246 168.023 249.69 167.853 250.15 167.853C250.61 167.853 251.054 168.023 251.395 168.331C251.737 168.639 251.952 169.062 252 169.52Z" fill="white"/>
<path d="M259.06 138.86C259.012 139.317 258.797 139.741 258.455 140.049C258.114 140.357 257.67 140.527 257.21 140.527C256.75 140.527 256.307 140.357 255.965 140.049C255.623 139.741 255.408 139.317 255.36 138.86C255.408 138.402 255.623 137.979 255.965 137.671C256.307 137.363 256.75 137.192 257.21 137.192C257.67 137.192 258.114 137.363 258.455 137.671C258.797 137.979 259.012 138.402 259.06 138.86Z" fill="white"/>
<path d="M294.26 129.3C294.212 129.757 293.997 130.181 293.655 130.489C293.314 130.797 292.87 130.967 292.41 130.967C291.95 130.967 291.506 130.797 291.165 130.489C290.823 130.181 290.608 129.757 290.56 129.3C290.608 128.842 290.823 128.419 291.165 128.111C291.506 127.803 291.95 127.632 292.41 127.632C292.87 127.632 293.314 127.803 293.655 128.111C293.997 128.419 294.212 128.842 294.26 129.3Z" fill="white"/>
<path d="M303 96.7799C303 97.2732 302.804 97.7463 302.455 98.0951C302.106 98.444 301.633 98.6399 301.14 98.6399C300.647 98.6399 300.174 98.444 299.825 98.0951C299.476 97.7463 299.28 97.2732 299.28 96.7799C299.28 96.2866 299.476 95.8135 299.825 95.4647C300.174 95.1159 300.647 94.9199 301.14 94.9199C301.633 94.9199 302.106 95.1159 302.455 95.4647C302.804 95.8135 303 96.2866 303 96.7799Z" fill="white"/>
<path d="M349.18 142.48L339.86 143.94L338.38 134.6C338.38 134.545 338.368 134.49 338.346 134.44C338.323 134.39 338.289 134.345 338.247 134.309C338.205 134.274 338.156 134.247 338.103 134.232C338.049 134.217 337.994 134.214 337.939 134.223C337.885 134.232 337.833 134.253 337.787 134.284C337.741 134.314 337.703 134.355 337.675 134.402C337.646 134.449 337.628 134.502 337.622 134.557C337.616 134.612 337.622 134.668 337.64 134.72L339.1 144.06L329.76 145.52C329.705 145.52 329.65 145.531 329.6 145.554C329.55 145.577 329.505 145.611 329.47 145.653C329.434 145.695 329.407 145.744 329.393 145.797C329.378 145.851 329.374 145.906 329.383 145.961C329.392 146.015 329.413 146.067 329.444 146.113C329.475 146.159 329.515 146.197 329.562 146.225C329.61 146.254 329.663 146.272 329.717 146.278C329.772 146.284 329.828 146.278 329.88 146.26L339.22 144.8L340.68 154.14C340.688 154.19 340.706 154.238 340.732 154.281C340.758 154.324 340.793 154.361 340.834 154.391C340.875 154.421 340.921 154.442 340.97 154.454C341.019 154.466 341.07 154.468 341.12 154.46C341.17 154.452 341.218 154.434 341.261 154.408C341.304 154.382 341.341 154.347 341.371 154.306C341.401 154.265 341.422 154.219 341.434 154.17C341.446 154.121 341.448 154.07 341.44 154.02L340 144.68L349.34 143.22C349.392 143.213 349.443 143.196 349.488 143.169C349.533 143.142 349.572 143.106 349.603 143.062C349.633 143.019 349.654 142.971 349.665 142.919C349.675 142.867 349.675 142.814 349.664 142.763C349.653 142.711 349.631 142.662 349.6 142.62C349.569 142.577 349.53 142.541 349.484 142.515C349.439 142.488 349.388 142.471 349.336 142.465C349.283 142.459 349.23 142.464 349.18 142.48Z" fill="white"/>
<path d="M98.8601 51.9998C98.8899 48.9377 98.0732 45.927 96.5001 43.2998C94.7234 40.6444 92.2157 38.5605 89.2801 37.2998C89.225 37.2777 89.1655 37.2688 89.1063 37.2738C89.0472 37.2789 88.9901 37.2977 88.9395 37.3288C88.8889 37.3599 88.8464 37.4025 88.8152 37.453C88.7841 37.5035 88.7652 37.5606 88.7601 37.6198C88.686 40.8034 89.5109 43.9435 91.1401 46.6798C92.6589 48.9465 94.7218 50.7962 97.1401 52.0598C93.8198 52.2905 90.7188 53.8014 88.4909 56.2741C86.2631 58.7467 85.0824 61.9879 85.1978 65.3141C85.3132 68.6404 86.7157 71.7919 89.1096 74.1042C91.5035 76.4165 94.7018 77.7089 98.0301 77.7089C101.358 77.7089 104.557 76.4165 106.951 74.1042C109.344 71.7919 110.747 68.6404 110.862 65.3141C110.978 61.9879 109.797 58.7467 107.569 56.2741C105.341 53.8014 102.24 52.2905 98.9201 52.0598L98.8601 51.9998ZM89.5201 38.2398C92.1198 39.4018 94.3198 41.3037 95.8456 43.708C97.3714 46.1123 98.1555 48.9127 98.1001 51.7598C95.5035 50.599 93.3057 48.7003 91.7801 46.2999C90.2545 43.8995 89.4686 41.1035 89.5201 38.2598V38.2398ZM98.5001 76.9998C96.103 76.9998 93.7597 76.2889 91.7666 74.9572C89.7734 73.6254 88.22 71.7325 87.3027 69.5179C86.3853 67.3032 86.1453 64.8663 86.613 62.5153C87.0806 60.1642 88.2349 58.0046 89.9299 56.3096C91.6249 54.6146 93.7845 53.4603 96.1356 52.9926C98.4866 52.525 100.924 52.765 103.138 53.6823C105.353 54.5997 107.246 56.1531 108.577 58.1462C109.909 60.1394 110.62 62.4826 110.62 64.8797C110.62 68.096 109.344 71.1808 107.071 73.457C104.799 75.7331 101.716 77.0145 98.5001 77.0197V76.9998Z" fill="white"/>
<path d="M370.26 232C370.26 231.04 368.44 229.42 356.26 224.76C349.2 222.08 336.88 216.14 330.5 212.96C330.869 211.067 331.083 209.148 331.14 207.22C331.137 207.151 331.117 207.084 331.082 207.025C331.048 206.966 330.999 206.916 330.94 206.88C310.418 195.932 288.755 187.273 266.34 181.06C261.717 179.756 256.867 179.463 252.12 180.2C277.231 157.537 301.068 133.5 323.52 108.2C323.563 108.135 323.586 108.058 323.586 107.98C323.586 107.902 323.563 107.825 323.52 107.76C322.34 105.76 321.12 103.76 319.84 102.04C324.12 96.18 331.14 90.86 332.32 86.94C332.916 84.8347 333.086 82.6317 332.82 80.46C331.96 71.34 340.06 53.14 334.52 52.46C333.56 52.46 331.6 53.72 324.52 64.6C320.9 70.18 312.52 81.1 306.2 88.86C303.985 87.4688 301.633 86.3094 299.18 85.4C299.118 85.3587 299.045 85.3367 298.97 85.3367C298.895 85.3367 298.822 85.3587 298.76 85.4C270.012 117.946 238.865 148.291 205.58 176.18C208.14 170.92 211.04 164.18 214.68 155.56C214.68 155.36 216.48 153.56 212.68 150.1C214.9 143.34 215.08 142.36 213.6 137.52C212.92 135.26 212.76 134.52 214 133.76C225.86 126.68 224 124.34 222 125C219.6 125.8 217.72 126.34 216 126.78C224.9 118.1 222.3 116.06 220.46 117.48L214.46 122.24C222.28 112.24 220.12 109.2 218.46 110.96L211.96 118.34C212.881 116.882 213.62 115.317 214.16 113.68C214.5 112.34 213.62 112.02 212.7 112.62C210.897 114.199 209.286 115.985 207.9 117.94C203.9 122.6 201.42 125.7 201.16 126.26C200.932 126.908 200.771 127.579 200.68 128.26C197.66 125.04 195.5 123.7 194.56 124.46C194.06 124.88 194.14 125.76 194.8 126.66C197.054 129.916 198.782 133.507 199.92 137.3C199.868 139.63 199.668 141.955 199.32 144.26C198.427 144.06 197.498 144.084 196.615 144.328C195.733 144.572 194.924 145.029 194.26 145.66L192.96 122.36C192.84 122.16 193.36 119.96 188.82 118.6C187.794 114.138 187.257 109.578 187.22 105C187.48 100.5 186.82 99.78 186.24 99.66C185.18 99.44 184.24 101.66 183.96 102.42C183.24 104.42 181.84 109.64 180.68 109.82C180.46 109.82 180.26 109.64 180.12 109.44C177.38 103.22 178.7 107.96 175.76 97.28C174.26 91.78 174 87.4 172.4 87.38C172.189 87.3913 171.988 87.4751 171.831 87.6172C171.675 87.7592 171.572 87.9509 171.54 88.16C171.145 90.3161 171.024 92.5135 171.18 94.7C170.16 93.5 167.18 90.06 166 90.88C163.58 92.52 172.42 102.18 174.66 119.16C169.84 120.96 170.32 123.16 170.32 123.38L172.7 160L145.14 168.34C145.241 167.326 145.068 166.304 144.64 165.38C146.103 165.353 147.51 164.807 148.608 163.84C149.707 162.874 150.427 161.548 150.64 160.1C150.8 158.984 150.647 157.845 150.198 156.811C149.75 155.777 149.024 154.887 148.1 154.24C149.344 153.869 150.438 153.112 151.224 152.079C152.01 151.045 152.446 149.788 152.471 148.49C152.495 147.192 152.107 145.92 151.36 144.858C150.614 143.795 149.549 142.997 148.32 142.58C149.268 141.765 149.944 140.678 150.256 139.468C150.568 138.257 150.502 136.979 150.066 135.807C149.63 134.635 148.846 133.625 147.819 132.912C146.791 132.199 145.57 131.818 144.32 131.82C144.886 130.731 145.113 129.498 144.971 128.279C144.83 127.06 144.326 125.911 143.525 124.981C142.724 124.051 141.663 123.383 140.479 123.062C139.294 122.741 138.041 122.782 136.88 123.18C137.054 121.929 136.837 120.656 136.261 119.532C135.685 118.409 134.776 117.491 133.659 116.903C132.541 116.315 131.27 116.085 130.018 116.246C128.765 116.406 127.593 116.949 126.66 117.8C126.453 116.465 125.828 115.229 124.874 114.272C123.921 113.315 122.687 112.686 121.353 112.474C120.018 112.263 118.651 112.481 117.448 113.097C116.245 113.712 115.269 114.694 114.66 115.9C114.039 114.788 113.087 113.896 111.937 113.349C110.787 112.802 109.495 112.626 108.24 112.845C106.985 113.065 105.83 113.67 104.934 114.575C104.038 115.481 103.446 116.643 103.24 117.9C102.265 117.16 101.091 116.73 99.8693 116.664C98.6474 116.598 97.4338 116.9 96.3853 117.531C95.3367 118.162 94.5014 119.092 93.9871 120.203C93.4728 121.313 93.3031 122.552 93.5001 123.76C92.3157 123.397 91.0494 123.402 89.8674 123.772C88.6854 124.142 87.6431 124.861 86.8773 125.835C86.1115 126.808 85.658 127.991 85.5764 129.227C85.4948 130.463 85.7889 131.694 86.4201 132.76C84.9555 132.783 83.5471 133.327 82.4475 134.295C81.348 135.262 80.6291 136.59 80.4201 138.04C80.2508 139.159 80.4014 140.303 80.8543 141.339C81.3073 142.376 82.0442 143.264 82.9801 143.9C81.7415 144.285 80.6568 145.053 79.8816 146.093C79.1064 147.133 78.6804 148.392 78.6649 149.689C78.6493 150.986 79.045 152.255 79.795 153.313C80.5451 154.371 81.6111 155.165 82.8401 155.58C81.907 156.399 81.245 157.482 80.9419 158.685C80.6387 159.889 80.7088 161.157 81.1427 162.32C81.5767 163.483 82.354 164.486 83.3716 165.197C84.3891 165.908 85.5988 166.293 86.8401 166.3C86.2842 167.392 86.068 168.626 86.2194 169.843C86.3708 171.059 86.8828 172.202 87.6896 173.125C88.4963 174.048 89.5608 174.709 90.7461 175.021C91.9313 175.334 93.183 175.285 94.3401 174.88C94.1594 176.137 94.3742 177.419 94.9549 178.549C95.5355 179.678 96.4532 180.599 97.5807 181.184C98.7081 181.768 99.9896 181.988 101.247 181.812C102.505 181.635 103.677 181.072 104.6 180.2C104.787 181.492 105.383 182.689 106.299 183.619C107.215 184.548 108.404 185.16 109.693 185.366C110.982 185.571 112.303 185.359 113.462 184.761C114.622 184.163 115.56 183.209 116.14 182.04C116.558 182.804 117.135 183.469 117.831 183.993C118.527 184.516 119.327 184.884 120.177 185.074C121.027 185.263 121.908 185.269 122.76 185.09C123.613 184.912 124.417 184.554 125.12 184.04C126.259 187.36 127.783 190.534 129.66 193.5C140.96 210.86 156.1 219.5 178.18 218.68C179.32 220.42 185.56 228.68 199.64 230.06C214.28 231.46 254.8 215 257.78 213.76C278.459 219.202 298.519 226.769 317.64 236.34C317.702 236.392 317.779 236.421 317.86 236.421C317.941 236.421 318.019 236.392 318.08 236.34C319.42 234.72 320.76 233.02 322.08 231.22C332.4 236.22 334.9 238.74 342.48 236.34C351.38 233.44 370.82 237.6 370.26 232ZM195.66 126.4C195.24 125.8 195.2 125.32 195.3 125.22C195.4 125.12 197.06 125.22 200.8 129.38C200.56 131.1 200.42 133.26 200.3 135.38C199.165 132.191 197.604 129.171 195.66 126.4ZM200.34 144.4C201.02 141.58 200.94 129.36 202.12 126.7C202.42 126.02 209.2 118.06 211.74 114.98C212.261 114.246 212.946 113.643 213.74 113.22C213.74 113.54 213.58 115.22 209.74 121.22C208.76 122.28 207.86 123.22 207.18 123.8C206.82 124.14 207.32 124.7 207.68 124.36C210.42 121.9 216.16 115.12 219.34 111.58C219.46 111.44 219.54 111.38 219.54 111.34C219.88 111.92 219 116.2 212.18 124.22C211.44 124.78 210.72 125.28 210.04 125.74C209.976 125.802 209.935 125.885 209.926 125.974C209.916 126.063 209.939 126.153 209.989 126.227C210.039 126.301 210.114 126.355 210.2 126.379C210.286 126.404 210.378 126.397 210.46 126.36C215.5 123 221.58 117.58 221.84 117.94C222.1 118.3 221.66 120.84 214.82 127.26L212.6 128C212.502 128.024 212.417 128.086 212.365 128.172C212.312 128.258 212.296 128.362 212.32 128.46C212.344 128.558 212.406 128.643 212.492 128.695C212.578 128.748 212.682 128.764 212.78 128.74C222.2 126.38 222.42 125.88 222.92 125.92C223.04 126.26 221.74 128.66 213.78 133.42C211.96 134.5 212.38 135.9 213.04 138.04C214.92 144.18 213.84 144.7 209.9 156.52C205.112 155.984 200.603 153.995 196.98 150.82C200.4 144.74 200.24 144.94 200.34 144.5V144.4ZM213.56 156.64C212.46 159.26 211.42 161.68 210.44 163.94C206.785 164.017 203.157 163.299 199.807 161.834C196.457 160.37 193.466 158.195 191.04 155.46C192.42 152.54 193.56 149.9 194.28 148.16C196 153.38 208.58 158.98 213.56 156.74V156.64ZM172.52 88.5C172.52 88.1 172.86 88.5 173.06 88.76C173.72 90 174.38 94.9 176.64 102.76C175.325 100.399 173.855 98.127 172.24 95.96C172.011 93.4716 172.105 90.9641 172.52 88.5ZM168.18 96.28C166.5 92.96 166.54 91.82 166.68 91.68C166.82 91.54 167.4 91.46 170.28 94.7C172.505 97.3462 174.461 100.207 176.12 103.24C178.15 106.479 179.846 109.917 181.18 113.5C181.225 113.581 181.298 113.642 181.385 113.673C181.472 113.704 181.568 113.703 181.653 113.668C181.739 113.634 181.81 113.569 181.851 113.487C181.893 113.404 181.903 113.309 181.88 113.22C181.52 112.3 181.18 111.5 180.86 110.76C182.86 110.76 184.14 105.02 184.86 102.76C185.42 101.26 186.08 100.48 186.28 100.48C186.48 100.48 186.9 100.78 186.66 105.04C186.38 110.28 188.48 120.12 189.64 125.16C185.341 126.996 180.588 127.498 176 126.6C176.36 116.32 172.8 105.52 168.18 96.28ZM171.44 125.26C175.3 129.16 189.14 128.38 192.54 124.1L192.92 130.88C189.655 132.486 186.088 133.384 182.451 133.515C178.815 133.646 175.192 133.007 171.82 131.64L171.44 125.26ZM172.74 160.74L173.02 165.36C173.02 165.461 173.06 165.557 173.131 165.629C173.203 165.7 173.299 165.74 173.4 165.74C173.501 165.74 173.598 165.7 173.669 165.629C173.74 165.557 173.78 165.461 173.78 165.36C173.08 153.36 172.58 145.04 171.78 132.5C175.165 133.824 178.786 134.44 182.419 134.309C186.052 134.179 189.619 133.304 192.9 131.74L193.78 147.38C191.86 152.2 185.08 168 179.26 172C173.44 176 147.64 172 140.6 170.58L172.74 160.74ZM116.96 149.84C116.942 149.769 116.904 149.706 116.851 149.656C116.798 149.606 116.732 149.573 116.66 149.56C112.48 148.66 113.6 143.84 116.46 145.36C117.62 145.98 118.28 146.12 118.72 145.86C118.884 145.736 119.013 145.571 119.094 145.381C119.175 145.192 119.204 144.984 119.18 144.78C119.62 136.62 125.5 134.32 129.92 142.2C132.82 147.36 135.14 156.5 131.92 160.2C130.18 162.2 127.06 162.34 122.6 160.62C122.517 160.591 122.427 160.592 122.345 160.622C122.263 160.652 122.194 160.71 122.149 160.785C122.105 160.86 122.087 160.949 122.1 161.035C122.113 161.122 122.155 161.201 122.22 161.26L128.32 165.84L121.46 167.04C118.48 153.64 118 154.5 116.96 149.84ZM130.46 193.06C125.82 185.92 123.56 176.28 121.64 167.78L129.06 166.48C129.798 167.766 130.619 169.002 131.52 170.18C130.002 170.546 128.578 171.227 127.34 172.18C127.272 172.245 127.23 172.332 127.222 172.426C127.214 172.52 127.242 172.613 127.299 172.688C127.356 172.762 127.439 172.813 127.532 172.83C127.624 172.847 127.72 172.829 127.8 172.78C131.8 169.68 136.24 170.32 141.16 171.36C148.58 172.76 173.44 176.78 179.68 172.5C183.48 169.9 187.68 162.5 190.68 156.26C193.141 158.964 196.144 161.119 199.494 162.583C202.843 164.048 206.464 164.79 210.12 164.76C198.68 191.08 195.14 193.88 182.12 195.06C168.513 196.341 154.802 195.986 141.28 194C141.224 193.987 141.166 193.987 141.11 193.999C141.055 194.012 141.002 194.037 140.957 194.072C140.912 194.108 140.876 194.153 140.851 194.205C140.826 194.256 140.813 194.313 140.813 194.37C140.813 194.427 140.826 194.484 140.851 194.535C140.876 194.587 140.912 194.632 140.957 194.668C141.002 194.703 141.055 194.728 141.11 194.741C141.166 194.753 141.224 194.753 141.28 194.74C147.237 195.749 153.247 196.417 159.28 196.74L180.9 201.32C180.28 207.88 178.66 216.28 178.34 217.96C157.38 218.54 142.4 211.42 130.46 193.06ZM317.86 235.5C298.732 225.96 278.673 218.414 258 212.98C257.921 212.96 257.839 212.96 257.76 212.98C257.32 213.16 214.52 230.64 199.86 229.26C185.86 227.92 179.86 219.5 178.88 218.14C180.464 210.808 181.414 203.354 181.72 195.86C193.06 194.88 197.72 192.18 204.84 178.06C238.582 149.912 270.14 119.244 299.24 86.32C308.6 90 316.54 97.18 322.82 108C300.196 133.501 276.158 157.713 250.82 180.52C249.62 180.76 239.38 183.42 204.82 191.88C204.722 191.904 204.637 191.966 204.585 192.052C204.532 192.138 204.516 192.242 204.54 192.34C204.564 192.438 204.626 192.523 204.712 192.575C204.798 192.628 204.902 192.644 205 192.62L249.44 181.58C254.954 180.205 260.731 180.295 266.2 181.84C288.491 188.028 310.038 196.632 330.46 207.5C330 218.34 324.68 227.14 317.86 235.5Z" fill="white"/>
<path d="M54.1 182.9L49.22 183.76C48.1013 183.952 46.9521 183.693 46.023 183.042C45.0938 182.39 44.4601 181.397 44.26 180.28L43.4 175.4C43.3709 175.312 43.3112 175.239 43.232 175.192C43.1527 175.145 43.0592 175.129 42.9688 175.146C42.8785 175.163 42.7974 175.213 42.7406 175.285C42.6838 175.357 42.6552 175.448 42.66 175.54L43.52 180.42C43.6174 180.977 43.6034 181.548 43.4788 182.099C43.3543 182.651 43.1216 183.172 42.7943 183.634C42.467 184.095 42.0515 184.487 41.5719 184.786C41.0923 185.086 40.558 185.288 40 185.38L35.12 186.24C35.0328 186.269 34.959 186.328 34.9125 186.408C34.8659 186.487 34.8496 186.58 34.8667 186.671C34.8838 186.761 34.9331 186.842 35.0054 186.899C35.0777 186.956 35.1682 186.984 35.26 186.98L40.14 186.12C41.2587 185.928 42.4079 186.186 43.337 186.838C44.2662 187.489 44.8999 188.482 45.1 189.6L46 194.48C46.0291 194.567 46.0888 194.641 46.1681 194.687C46.2473 194.734 46.3408 194.75 46.4312 194.733C46.5215 194.716 46.6026 194.666 46.6594 194.594C46.7162 194.522 46.7448 194.431 46.74 194.34L45.88 189.46C45.6934 188.342 45.9537 187.195 46.6047 186.267C47.2557 185.339 48.2452 184.704 49.36 184.5L54.24 183.64C54.3272 183.61 54.401 183.551 54.4476 183.472C54.4941 183.392 54.5104 183.299 54.4933 183.208C54.4762 183.118 54.4269 183.037 54.3546 182.98C54.2823 182.923 54.1918 182.895 54.1 182.9ZM45.18 187.64C44.4553 186.508 43.3119 185.71 42 185.42C42.5624 185.063 43.0484 184.599 43.4295 184.053C43.8106 183.507 44.0793 182.89 44.22 182.24C44.9447 183.371 46.0881 184.169 47.4 184.46C46.2686 185.184 45.4703 186.328 45.18 187.64Z" fill="white"/>
<path d="M242.3 11.2798L241.88 48.6998L265.1 88.8998L265.52 51.4798L242.3 11.2798Z" fill="white"/>
<path d="M238.24 78.8196L234.78 120.72L264.54 90.9196L250.5 66.5996L238.24 78.8196Z" fill="white"/>
</svg>
