<svg width="17" height="19" viewBox="0 0 17 19" fill="none" xmlns="http://www.w3.org/2000/svg">
<path d="M12.3814 6.90701C12.3814 6.94356 12.3806 6.97984 12.3789 7.01584C12.148 6.81093 11.8498 6.69796 11.5411 6.69836C11.4085 6.69836 11.2795 6.71854 11.154 6.75891V3.22079C11.154 3.05803 11.0894 2.90193 10.9743 2.78684C10.8592 2.67176 10.7031 2.6071 10.5403 2.6071H3.58519C3.42243 2.6071 3.26634 2.67176 3.15125 2.78684C3.03616 2.90193 2.9715 3.05803 2.9715 3.22079V6.90701C2.9715 7.24577 3.24643 7.5207 3.58519 7.5207H10.357L10.3489 7.54116L10.3464 7.55098L9.97819 8.68344L9.97001 8.70471L9.95446 8.74808H3.58519C3.09691 8.74808 2.62863 8.55411 2.28336 8.20884C1.93809 7.86357 1.74412 7.39529 1.74412 6.90701V3.22079C1.74412 2.73251 1.93809 2.26422 2.28336 1.91896C2.62863 1.57369 3.09691 1.37972 3.58519 1.37972H6.44907V0.766033C6.44911 0.617612 6.50293 0.474232 6.60057 0.36245C6.69821 0.250668 6.83305 0.178059 6.98012 0.158071L7.06276 0.152344C7.21118 0.152377 7.35456 0.206198 7.46634 0.303838C7.57813 0.401478 7.65073 0.53632 7.67072 0.683389L7.67645 0.766033L7.67563 1.37972H10.5395C11.0278 1.37972 11.4961 1.57369 11.8413 1.91896C12.1866 2.26422 12.3806 2.73251 12.3806 3.22079L12.3814 6.90701ZM7.9162 10.0008L8.00784 9.97136H2.36109C1.8728 9.97136 1.40452 10.1653 1.05926 10.5106C0.713988 10.8559 0.52002 11.3241 0.52002 11.8124V12.5546C0.51994 12.9965 0.615309 13.4332 0.799606 13.8348C0.983903 14.2365 1.25278 14.5936 1.58784 14.8817C2.86677 15.9806 4.69883 16.5182 7.06276 16.5182C8.76145 16.5182 10.186 16.2408 11.3283 15.677C11.1112 15.6355 10.9087 15.5379 10.7409 15.3939C10.5731 15.2499 10.4459 15.0646 10.3718 14.8563L10.3685 14.8465L10.344 14.7704C9.45533 15.1157 8.36378 15.2908 7.06276 15.2908C4.96885 15.2908 3.41745 14.8359 2.38809 13.9505C2.18709 13.7777 2.02579 13.5635 1.91522 13.3226C1.80464 13.0816 1.7474 12.8197 1.7474 12.5546V11.8124C1.7474 11.6497 1.81205 11.4936 1.92714 11.3785C2.04223 11.2634 2.19833 11.1987 2.36109 11.1987H7.06276V11.1963C7.06233 10.9347 7.14331 10.6795 7.29448 10.466C7.44564 10.2525 7.6595 10.0914 7.90638 10.0049L7.9162 10.0008ZM6.24369 4.85729C6.24756 4.72059 6.22397 4.58451 6.17433 4.45708C6.12469 4.32966 6.05 4.21348 5.95468 4.11543C5.85936 4.01737 5.74534 3.93942 5.61937 3.8862C5.4934 3.83297 5.35804 3.80555 5.22129 3.80555C5.08453 3.80555 4.94917 3.83297 4.8232 3.8862C4.69723 3.93942 4.58321 4.01737 4.48789 4.11543C4.39257 4.21348 4.31788 4.32966 4.26824 4.45708C4.2186 4.58451 4.19501 4.72059 4.19888 4.85729C4.20641 5.12344 4.31743 5.37617 4.50835 5.56176C4.69926 5.74735 4.95503 5.85118 5.22129 5.85118C5.48754 5.85118 5.74331 5.74735 5.93422 5.56176C6.12514 5.37617 6.23616 5.12344 6.24369 4.85729ZM8.89728 3.83448C9.03398 3.83061 9.17006 3.85419 9.29749 3.90383C9.42491 3.95348 9.54109 4.02817 9.63915 4.12349C9.7372 4.21881 9.81515 4.33283 9.86837 4.4588C9.9216 4.58476 9.94902 4.72013 9.94902 4.85688C9.94902 4.99363 9.9216 5.129 9.86837 5.25497C9.81515 5.38094 9.7372 5.49496 9.63915 5.59028C9.54109 5.6856 9.42491 5.76029 9.29749 5.80993C9.17006 5.85957 9.03398 5.88315 8.89728 5.87929C8.63113 5.87176 8.37841 5.76074 8.19281 5.56982C8.00722 5.3789 7.90339 5.12314 7.90339 4.85688C7.90339 4.59062 8.00722 4.33486 8.19281 4.14394C8.37841 3.95303 8.63113 3.84201 8.89728 3.83448ZM10.4086 12.7632C10.1268 12.3989 9.74279 12.1268 9.30559 11.9818L8.17886 11.6152C8.09229 11.5844 8.01738 11.5276 7.96441 11.4525C7.91144 11.3774 7.883 11.2878 7.883 11.1959C7.883 11.104 7.91144 11.0144 7.96441 10.9393C8.01738 10.8642 8.09229 10.8073 8.17886 10.7765L9.30559 10.4099C9.63939 10.2948 9.94258 10.1052 10.1921 9.85534C10.4417 9.60552 10.631 9.30212 10.7457 8.96819L10.7539 8.94037L11.1213 7.81363C11.1519 7.72679 11.2088 7.65158 11.2839 7.59838C11.3591 7.54519 11.449 7.51662 11.5411 7.51662C11.6332 7.51662 11.723 7.54519 11.7982 7.59838C11.8733 7.65158 11.9302 7.72679 11.9608 7.81363L12.3274 8.94037C12.4416 9.28275 12.6341 9.59381 12.8895 9.8489C13.1448 10.104 13.4561 10.2961 13.7986 10.4099L14.9262 10.7765L14.9483 10.7823C15.0348 10.8131 15.1097 10.8699 15.1627 10.945C15.2157 11.0201 15.2441 11.1097 15.2441 11.2016C15.2441 11.2935 15.2157 11.3831 15.1627 11.4582C15.1097 11.5333 15.0348 11.5901 14.9483 11.621L13.8207 11.9875C13.4782 12.1014 13.1669 12.2935 12.9115 12.5486C12.6562 12.8037 12.4637 13.1147 12.3495 13.4571L11.9837 14.5838C11.9525 14.6707 11.8954 14.7458 11.8201 14.799C11.7639 14.8388 11.6993 14.8649 11.6313 14.8755C11.5633 14.886 11.4938 14.8806 11.4282 14.8598C11.3626 14.8389 11.3028 14.8032 11.2534 14.7553C11.2039 14.7074 11.1663 14.6487 11.1434 14.5838L10.7768 13.4571C10.6949 13.2064 10.5704 12.9716 10.4086 12.7632ZM16.7042 15.8734L16.0783 15.6705C15.888 15.6071 15.7151 15.5003 15.5732 15.3586C15.4314 15.2169 15.3244 15.0441 15.2608 14.8539L15.0571 14.2279C15.0401 14.1796 15.0086 14.1377 14.9668 14.1081C14.925 14.0784 14.8751 14.0625 14.8239 14.0625C14.7727 14.0625 14.7227 14.0784 14.6809 14.1081C14.6392 14.1377 14.6076 14.1796 14.5907 14.2279L14.3869 14.8531C14.3248 15.042 14.2199 15.2141 14.0804 15.3558C13.9409 15.4976 13.7705 15.6053 13.5826 15.6705L12.9558 15.8734C12.9075 15.8904 12.8656 15.9219 12.836 15.9637C12.8064 16.0054 12.7904 16.0554 12.7904 16.1066C12.7904 16.1578 12.8064 16.2078 12.836 16.2496C12.8656 16.2913 12.9075 16.3229 12.9558 16.3398L13.5826 16.5436C13.7732 16.6073 13.9463 16.7146 14.0882 16.8569C14.2301 16.9992 14.3369 17.1727 14.4 17.3634L14.603 17.9886C14.6203 18.0366 14.6519 18.078 14.6937 18.1073C14.7354 18.1366 14.7852 18.1523 14.8362 18.1523C14.8871 18.1523 14.9369 18.1366 14.9786 18.1073C15.0204 18.078 15.052 18.0366 15.0694 17.9886L15.2739 17.3634C15.3373 17.1732 15.4441 17.0003 15.5858 16.8584C15.7276 16.7166 15.9003 16.6096 16.0905 16.546L16.7173 16.3431C16.7656 16.3261 16.8075 16.2946 16.8371 16.2528C16.8668 16.2111 16.8827 16.1611 16.8827 16.1099C16.8827 16.0587 16.8668 16.0087 16.8371 15.9669C16.8075 15.9252 16.7656 15.8936 16.7173 15.8767L16.7042 15.8734Z" fill="white"/>
</svg>
