<svg width="24" height="24" viewBox="0 0 24 24" height="24px"  fill="none" xmlns="http://www.w3.org/2000/svg" stroke="#">
<g id="SVGRepo_bgCarrier" stroke-width="0"></g>
<g id="SVGRepo_tracerCarrier" stroke-linecap="round" stroke-linejoin="round"></g>
<g id="SVGRepo_iconCarrier">
<path d="M9.5415 16.6708C9.1315 16.6708 8.7915 16.3308 8.7915 15.9208V12.5308L8.6015 12.7508C8.3215 13.0608 7.8515 13.0808 7.5415 12.8108C7.2315 12.5308 7.2115 12.0608 7.4815 11.7508L8.9815 10.0808C9.1915 9.85081 9.5215 9.77081 9.8115 9.88081C10.1015 9.99081 10.2915 10.2708 10.2915 10.5808V15.9308C10.2915 16.3408 9.9615 16.6708 9.5415 16.6708Z" fill="#fff"></path>
<path d="M12.0011 3.47974C11.9211 3.47974 11.8411 3.48974 11.7611 3.48974L12.5811 2.46974C12.8411 2.14974 12.7911 1.66974 12.4611 1.41974C12.1411 1.15974 11.6711 1.20974 11.4111 1.53974L9.44109 3.99974C9.43109 4.00974 9.43109 4.01974 9.42109 4.03974C9.39109 4.07974 9.37109 4.12974 9.35109 4.16974C9.33109 4.21974 9.31109 4.25974 9.30109 4.29974C9.29109 4.34974 9.29109 4.38974 9.29109 4.43974C9.29109 4.48974 9.29109 4.53974 9.29109 4.58974C9.29109 4.60974 9.29109 4.61974 9.29109 4.63974C9.30109 4.66974 9.32109 4.68974 9.33109 4.72974C9.35109 4.77974 9.36109 4.81974 9.39109 4.85974C9.42109 4.89974 9.45109 4.93974 9.49109 4.97974C9.51109 4.99974 9.53109 5.02974 9.55109 5.04974C9.56109 5.05974 9.58109 5.05974 9.59109 5.06974C9.62109 5.08974 9.65109 5.10974 9.69109 5.11974C9.74109 5.14974 9.79109 5.16974 9.84109 5.17974C9.88109 5.19974 9.91109 5.19974 9.95109 5.19974C9.98109 5.19974 10.0011 5.20974 10.0311 5.20974C10.0511 5.20974 10.0811 5.19974 10.1011 5.18974C10.1311 5.18974 10.1611 5.18974 10.2011 5.18974C10.8411 5.03974 11.4411 4.96974 12.0111 4.96974C16.5011 4.96974 20.1511 8.61974 20.1511 13.1097C20.1511 17.5997 16.5011 21.2497 12.0111 21.2497C7.52109 21.2497 3.87109 17.5997 3.87109 13.1097C3.87109 11.3697 4.44109 9.68974 5.52109 8.24974C5.77109 7.91974 5.70109 7.44974 5.37109 7.19974C5.04109 6.94974 4.57109 7.01974 4.32109 7.34974C3.04109 9.04974 2.37109 11.0397 2.37109 13.1097C2.37109 18.4197 6.69109 22.7497 12.0111 22.7497C17.3311 22.7497 21.6511 18.4297 21.6511 13.1097C21.6511 7.78974 17.3111 3.47974 12.0011 3.47974Z" fill="#fff"></path>
<path d="M14 16.6703C12.48 16.6703 11.25 15.4403 11.25 13.9203V12.5703C11.25 11.0503 12.48 9.82031 14 9.82031C15.52 9.82031 16.75 11.0503 16.75 12.5703V13.9203C16.75 15.4403 15.52 16.6703 14 16.6703ZM14 11.3303C13.31 11.3303 12.75 11.8903 12.75 12.5803V13.9303C12.75 14.6203 13.31 15.1803 14 15.1803C14.69 15.1803 15.25 14.6203 15.25 13.9303V12.5803C15.25 11.8903 14.69 11.3303 14 11.3303Z" fill="#fff"></path>
</g>
</svg>