<svg width="32" height="32" viewBox="0 0 32 32" fill="none" xmlns="http://www.w3.org/2000/svg">
<g clip-path="url(#clip0_91_509)">
<path d="M16 2C13.7937 2 12 3.79375 12 6H20C20 3.79375 18.2062 2 16 2ZM10 6C10 2.6875 12.6875 0 16 0C19.3125 0 22 2.6875 22 6V6.225C22 7.20625 21.2063 8 20.225 8H11.775C10.7937 8 10 7.20625 10 6.225V6ZM2.29375 6.29375C2.68125 5.90625 3.31875 5.90625 3.70625 6.29375L8.6625 11.25C9.7375 10.4625 11.0625 10 12.5 10H19.5C20.9312 10 22.2625 10.4625 23.3375 11.25L28.2938 6.29375C28.6813 5.90625 29.3187 5.90625 29.7062 6.29375C30.0938 6.68125 30.0938 7.31875 29.7062 7.70625L24.75 12.6625C25.5375 13.7375 26 15.0625 26 16.5V17H31C31.55 17 32 17.45 32 18C32 18.55 31.55 19 31 19H26V20C26 21.8875 25.475 23.65 24.5688 25.1562L29.7062 30.2938C30.0938 30.6813 30.0938 31.3187 29.7062 31.7062C29.3187 32.0938 28.6813 32.0938 28.2938 31.7062L23.3563 26.7687C21.5312 28.7562 18.9125 30 16 30C13.0875 30 10.4688 28.7563 8.64375 26.775L3.70625 31.7125C3.31875 32.1 2.68125 32.1 2.29375 31.7125C1.90625 31.325 1.90625 30.6875 2.29375 30.3L7.43125 25.1625C6.525 23.65 6 21.8875 6 20V19H1C0.45 19 0 18.55 0 18C0 17.45 0.45 17 1 17H6V16.5C6 15.0688 6.4625 13.7375 7.25 12.6625L2.29375 7.70625C1.90625 7.31875 1.90625 6.68125 2.29375 6.29375ZM8 20C8 24.0812 11.0562 27.4438 15 27.9375V16C15 15.45 15.45 15 16 15C16.55 15 17 15.45 17 16V27.9375C20.9438 27.4438 24 24.0812 24 20V18V16.5C24 14.0125 21.9875 12 19.5 12H12.5C10.0125 12 8 14.0125 8 16.5V18V20Z" fill="#1E69FF"/>
</g>
<defs>
<clipPath id="clip0_91_509">
<rect width="32" height="32" fill="white"/>
</clipPath>
</defs>
</svg>
