<svg width="20" height="20" viewBox="0 0 20 20" fill="none" xmlns="http://www.w3.org/2000/svg">
<path d="M9.99976 -0.000976562C15.5228 -0.000976562 19.9998 4.47602 19.9998 9.99902C19.9998 15.522 15.5228 19.999 9.99976 19.999C8.38199 20.0012 6.78804 19.6092 5.35576 18.857L1.06576 19.974C0.92242 20.0113 0.771808 20.0106 0.628855 19.9718C0.485902 19.933 0.355571 19.8575 0.25078 19.7528C0.145988 19.6481 0.0703739 19.5178 0.0314312 19.3749C-0.00751143 19.232 -0.00843054 19.0814 0.028765 18.938L1.14476 14.649C0.390603 13.2152 -0.00242384 11.6191 -0.000235048 9.99902C-0.000235048 4.47602 4.47676 -0.000976562 9.99976 -0.000976562ZM11.2518 10.999H6.74976L6.64776 11.006C6.46825 11.0307 6.30375 11.1196 6.18467 11.2562C6.0656 11.3927 5.99999 11.5678 5.99999 11.749C5.99999 11.9302 6.0656 12.1053 6.18467 12.2419C6.30375 12.3785 6.46825 12.4673 6.64776 12.492L6.74976 12.499H11.2518L11.3528 12.492C11.5323 12.4673 11.6968 12.3785 11.8158 12.2419C11.9349 12.1053 12.0005 11.9302 12.0005 11.749C12.0005 11.5678 11.9349 11.3927 11.8158 11.2562C11.6968 11.1196 11.5323 11.0307 11.3528 11.006L11.2518 10.999ZM13.2498 7.49902H6.74976L6.64776 7.50602C6.46825 7.53072 6.30375 7.61957 6.18467 7.75616C6.0656 7.89274 5.99999 8.06782 5.99999 8.24902C5.99999 8.43022 6.0656 8.6053 6.18467 8.74188C6.30375 8.87847 6.46825 8.96732 6.64776 8.99202L6.74976 8.99902H13.2498L13.3518 8.99202C13.5313 8.96732 13.6958 8.87847 13.8148 8.74188C13.9339 8.6053 13.9995 8.43022 13.9995 8.24902C13.9995 8.06782 13.9339 7.89274 13.8148 7.75616C13.6958 7.61957 13.5313 7.53072 13.3518 7.50602L13.2498 7.49902Z" fill="white"/>
</svg>

