
<svg width="14" height="12" viewBox="0 0 14 12" fill="none" xmlns="http://www.w3.org/2000/svg">
<path d="M0.333496 1.33333C0.333496 0.596954 0.93045 0 1.66683 0H12.3335C13.0699 0 13.6668 0.596953 13.6668 1.33333V8.66667C13.6668 9.40305 13.0699 10 12.3335 10H1.66683C0.930451 10 0.333496 9.40305 0.333496 8.66667V1.33333ZM12.3335 1.33333H1.66683V8.66667H12.3335V1.33333Z" fill="white"/>
<path d="M13.6668 11.3333C13.6668 11.7015 13.3684 12 13.0002 12H1.00016C0.631973 12 0.333496 11.7015 0.333496 11.3333C0.333496 10.9651 0.631973 10.6667 1.00016 10.6667L13.0002 10.6667C13.3684 10.6667 13.6668 10.9651 13.6668 11.3333Z" fill="white"/>
</svg>
