<svg width="39" height="32" viewBox="0 0 39 32" fill="none" xmlns="http://www.w3.org/2000/svg">
<path d="M18 12.3V2H10V12.3C10 13.4125 9.69375 14.5 9.1125 15.4438L6.30625 20H19.0375C19.175 20.8312 19.6812 21.5625 20.3625 22H5.075L2.34375 26.4375C2.11875 26.8062 2 27.2313 2 27.6625C2 28.9563 3.04375 30 4.3375 30H21.9375C22.9125 30.8188 24.2437 30.8562 25.25 30.3V30.3563C25.25 30.775 25.3438 31.2 25.5125 31.5875C24.95 31.8562 24.325 32 23.6562 32H4.3375C1.94375 32 0 30.0562 0 27.6625C0 26.8625 0.225 26.075 0.64375 25.3875L7.40625 14.4C7.79375 13.7687 8 13.0437 8 12.3062V2H7C6.45 2 6 1.55 6 1C6 0.45 6.45 0 7 0H10H18H21C21.55 0 22 0.45 22 1C22 1.55 21.55 2 21 2H20V12.3C20 13.0375 20.2062 13.7688 20.5938 14.3938L21 15.0625C20.6938 15.4625 20.4062 15.8812 20.15 16.3312C20.0312 16.5375 19.9188 16.7437 19.8125 16.9562L18.8875 15.45C18.3063 14.5 18 13.4125 18 12.3ZM28.9562 14.9875C28.7625 16.025 28.0813 16.8312 27.2938 17.2812C26.4813 17.7437 25.4188 17.9 24.4188 17.5125L23.3438 19.4188C24.1437 20.1313 24.5 21.15 24.5 22.0688C24.5 22.9875 24.1437 24.0063 23.3438 24.7188L24.4188 26.625C25.4125 26.2313 26.4813 26.3938 27.2938 26.8563C28.0813 27.3063 28.7687 28.1125 28.9562 29.15H31.0625C31.25 28.1125 31.9312 27.3063 32.7188 26.8563C33.525 26.3938 34.5938 26.2375 35.5875 26.6313L36.6625 24.725C35.8625 24.0125 35.5062 22.9938 35.5062 22.075C35.5062 21.1562 35.8625 20.1375 36.6625 19.425L35.5875 17.5187C34.5938 17.9125 33.5312 17.75 32.7188 17.2938C31.9312 16.8438 31.25 16.0312 31.0625 15H28.9562V14.9875ZM31.675 12.9875C32.4125 12.9875 33.0125 13.5875 33.0125 14.325V14.425C33.0125 14.8938 33.3 15.3125 33.7062 15.55C34.1125 15.7812 34.6125 15.8125 35.0187 15.5688L35.1312 15.5063C35.8 15.1125 36.6562 15.3437 37.0375 16.0187L38.6875 18.9438C39.0438 19.5813 38.8312 20.3875 38.2 20.7563C37.7438 21.025 37.5 21.5438 37.5 22.0688C37.5 22.5938 37.7438 23.1125 38.2 23.3813C38.825 23.75 39.0438 24.5562 38.6875 25.1938L37.0312 28.125C36.65 28.8 35.7875 29.0312 35.125 28.6375L35.0125 28.575C34.6063 28.3375 34.1063 28.3625 33.7 28.5938C33.2938 28.825 33.0062 29.2437 33.0062 29.7188V29.8125C33.0062 30.55 32.4062 31.15 31.6688 31.15H28.3375C27.6062 31.15 27.0063 30.5562 27.0063 29.8188V29.7313C27.0063 29.2563 26.7188 28.8312 26.3 28.5938C25.8875 28.3625 25.3813 28.3313 24.975 28.575L24.875 28.6375C24.2062 29.0312 23.35 28.8 22.9688 28.125L21.3125 25.1938C20.9562 24.5562 21.1687 23.75 21.8 23.3813C22.2562 23.1125 22.5 22.6 22.5 22.0688C22.5 21.5375 22.2562 21.025 21.8 20.7563C21.175 20.3875 20.9562 19.5813 21.3125 18.9438L22.9625 16.0125C23.3438 15.3375 24.2062 15.1062 24.8687 15.5L24.9688 15.5625C25.375 15.8062 25.8813 15.775 26.2938 15.5437C26.7063 15.3062 27 14.8813 27 14.4062V14.3188C27 13.5875 27.5938 12.9875 28.3312 12.9875H31.6688H31.675ZM26.5063 22.0688C26.5063 21.1397 26.8753 20.2486 27.5323 19.5917C28.1893 18.9347 29.0803 18.5656 30.0094 18.5656C30.9385 18.5656 31.8295 18.9347 32.4865 19.5917C33.1434 20.2486 33.5125 21.1397 33.5125 22.0688C33.5125 22.9978 33.1434 23.8889 32.4865 24.5458C31.8295 25.2028 30.9385 25.5719 30.0094 25.5719C29.0803 25.5719 28.1893 25.2028 27.5323 24.5458C26.8753 23.8889 26.5063 22.9978 26.5063 22.0688ZM30.0063 23.5688C30.4041 23.5688 30.7856 23.4107 31.0669 23.1294C31.3482 22.8481 31.5063 22.4666 31.5063 22.0688C31.5063 21.6709 31.3482 21.2894 31.0669 21.0081C30.7856 20.7268 30.4041 20.5688 30.0063 20.5688C29.6084 20.5688 29.2269 20.7268 28.9456 21.0081C28.6643 21.2894 28.5063 21.6709 28.5063 22.0688C28.5063 22.4666 28.6643 22.8481 28.9456 23.1294C29.2269 23.4107 29.6084 23.5688 30.0063 23.5688Z" fill="#1E69FF"/>
</svg>
