<svg width="10" height="10" viewBox="0 0 10 10" fill="none" xmlns="http://www.w3.org/2000/svg">
<path d="M4.16231 6.5998L7.1373 3.6373L6.49981 2.9998L4.16231 5.3248L3.0998 4.2748L2.4623 4.9123L4.16231 6.5998ZM4.7998 9.5998C4.14147 9.5998 3.52064 9.4748 2.9373 9.2248C2.35397 8.9748 1.84147 8.63314 1.3998 8.1998C0.966471 7.75814 0.624805 7.24564 0.374805 6.6623C0.124805 6.07897 -0.000195205 5.45814 -0.000195205 4.7998C-0.000195205 4.13314 0.124805 3.5123 0.374805 2.9373C0.624805 2.35397 0.966471 1.84564 1.3998 1.4123C1.84147 0.970638 2.35397 0.624804 2.9373 0.374804C3.52064 0.124804 4.14147 -0.000195742 4.7998 -0.000195742C5.46647 -0.000195742 6.08731 0.124804 6.6623 0.374804C7.24564 0.624804 7.75397 0.970638 8.18731 1.4123C8.62897 1.84564 8.97481 2.35397 9.22481 2.9373C9.47481 3.5123 9.59981 4.13314 9.59981 4.7998C9.59981 5.45814 9.47481 6.07897 9.22481 6.6623C8.97481 7.24564 8.62897 7.75814 8.18731 8.1998C7.75397 8.63314 7.24564 8.9748 6.6623 9.2248C6.08731 9.4748 5.46647 9.5998 4.7998 9.5998ZM4.7998 8.6998C5.88314 8.6998 6.80397 8.32064 7.56231 7.5623C8.32064 6.80397 8.69981 5.88314 8.69981 4.7998C8.69981 3.71647 8.32064 2.79564 7.56231 2.0373C6.80397 1.27897 5.88314 0.899804 4.7998 0.899804C3.71647 0.899804 2.79564 1.27897 2.0373 2.0373C1.27897 2.79564 0.899805 3.71647 0.899805 4.7998C0.899805 5.88314 1.27897 6.80397 2.0373 7.5623C2.79564 8.32064 3.71647 8.6998 4.7998 8.6998Z" fill="#6FDAA6"/>
</svg>
