<svg width="18" height="18" viewBox="0 0 18 18" fill="none" xmlns="http://www.w3.org/2000/svg">
<path d="M7.33341 2.33329C5.49247 2.33329 4.00008 3.82568 4.00008 5.66663C4.00008 7.50757 5.49247 8.99996 7.33341 8.99996C9.17436 8.99996 10.6667 7.50757 10.6667 5.66663C10.6667 3.82568 9.17436 2.33329 7.33341 2.33329ZM2.33341 5.66663C2.33341 2.9052 4.57199 0.666626 7.33341 0.666626C10.0948 0.666626 12.3334 2.9052 12.3334 5.66663C12.3334 8.42805 10.0948 10.6666 7.33341 10.6666C4.57199 10.6666 2.33341 8.42805 2.33341 5.66663ZM14.8334 8.16662C15.2936 8.16662 15.6667 8.53972 15.6667 8.99996V9.83329H16.5001C16.9603 9.83329 17.3334 10.2064 17.3334 10.6666C17.3334 11.1269 16.9603 11.5 16.5001 11.5H15.6667V12.3333C15.6667 12.7935 15.2936 13.1666 14.8334 13.1666C14.3732 13.1666 14.0001 12.7935 14.0001 12.3333V11.5H13.1667C12.7065 11.5 12.3334 11.1269 12.3334 10.6666C12.3334 10.2064 12.7065 9.83329 13.1667 9.83329H14.0001V8.99996C14.0001 8.53972 14.3732 8.16662 14.8334 8.16662ZM4.41675 14C3.3672 14 2.33341 15.0112 2.33341 16.5C2.33341 16.9602 1.96032 17.3333 1.50008 17.3333C1.03984 17.3333 0.666748 16.9602 0.666748 16.5C0.666748 14.3068 2.24464 12.3333 4.41675 12.3333H10.2501C12.4222 12.3333 14.0001 14.3068 14.0001 16.5C14.0001 16.9602 13.627 17.3333 13.1667 17.3333C12.7065 17.3333 12.3334 16.9602 12.3334 16.5C12.3334 15.0112 11.2996 14 10.2501 14H4.41675Z" fill="currentColor"/>
</svg>
