<svg width="14" height="14" viewBox="0 0 14 14" fill="none" xmlns="http://www.w3.org/2000/svg">
<mask id="mask0_2207_2791" style="mask-type:alpha" maskUnits="userSpaceOnUse" x="0" y="0" width="14" height="14">
<rect width="14" height="14" fill="#D9D9D9"/>
</mask>
<g mask="url(#mask0_2207_2791)">
<path d="M2 9H9V7.5H2V9ZM2 6.25H12V4.75H2V6.25ZM2 3.5H12V2H2V3.5ZM-1 15V0.499999C-1 0.0833324 -0.854167 -0.270834 -0.5625 -0.562501C-0.270833 -0.854168 0.0833336 -1 0.5 -1H13.5C13.9167 -1 14.2708 -0.854168 14.5625 -0.562501C14.8542 -0.270834 15 0.0833324 15 0.499999V10.5C15 10.9167 14.8542 11.2708 14.5625 11.5625C14.2708 11.8542 13.9167 12 13.5 12H2L-1 15ZM1.375 10.5H13.5V0.499999H0.5V11.375L1.375 10.5ZM0.5 10.5V0.499999V10.5Z" fill="white"/>
</g>
</svg>
