<svg width="18" height="14" viewBox="0 0 18 14" fill="none" xmlns="http://www.w3.org/2000/svg">
<path d="M4.24416 0.577452C4.5696 0.252015 5.09723 0.252015 5.42267 0.577452L8.756 3.91078C9.08144 4.23622 9.08144 4.76386 8.756 5.0893C8.43057 5.41473 7.90293 5.41473 7.57749 5.0893L5.66675 3.17855V12.8334C5.66675 13.2936 5.29365 13.6667 4.83341 13.6667C4.37318 13.6667 4.00008 13.2936 4.00008 12.8334V3.17855L2.08934 5.0893C1.7639 5.41473 1.23626 5.41473 0.910826 5.0893C0.585389 4.76386 0.585389 4.23622 0.910826 3.91078L4.24416 0.577452ZM12.3334 10.8215V1.16671C12.3334 0.70647 12.7065 0.333374 13.1667 0.333374C13.627 0.333374 14.0001 0.70647 14.0001 1.16671V10.8215L15.9108 8.91078C16.2363 8.58535 16.7639 8.58535 17.0893 8.91078C17.4148 9.23622 17.4148 9.76386 17.0893 10.0893L13.756 13.4226C13.5997 13.5789 13.3878 13.6667 13.1667 13.6667C12.9457 13.6667 12.7338 13.5789 12.5775 13.4226L9.24416 10.0893C8.91872 9.76386 8.91872 9.23622 9.24416 8.91078C9.56959 8.58535 10.0972 8.58535 10.4227 8.91078L12.3334 10.8215Z" fill="currentColor"/>
</svg>
