<svg width="13" height="8" viewBox="0 0 13 8" fill="none" xmlns="http://www.w3.org/2000/svg">
<path d="M1.5999 7.6501V6.4501H5.5999L-9.71317e-05 0.850097L0.849903 9.79662e-05L6.3999 5.5501L9.71657 2.23343C9.68324 2.14454 9.65546 2.0501 9.63324 1.9501C9.61101 1.8501 9.5999 1.7501 9.5999 1.6501C9.5999 1.20565 9.75546 0.827876 10.0666 0.516764C10.3777 0.205654 10.7555 0.0500982 11.1999 0.0500982C11.6443 0.0500982 12.0221 0.205654 12.3332 0.516764C12.6443 0.827876 12.7999 1.20565 12.7999 1.6501C12.7999 2.09454 12.6443 2.47232 12.3332 2.78343C12.0221 3.09454 11.6443 3.2501 11.1999 3.2501C11.0777 3.2501 10.961 3.23899 10.8499 3.21676C10.7499 3.19454 10.6499 3.15565 10.5499 3.1001L7.1999 6.4501H11.1999V7.6501H1.5999Z" fill="#8F8F8F"/>
</svg>
