<svg width="16" height="16" viewBox="0 0 16 16" fill="none" xmlns="http://www.w3.org/2000/svg">
<path d="M6.10417 14.2292C5.90972 13.8264 5.73611 13.3542 5.58333 12.8125C5.44444 12.2708 5.32639 11.6667 5.22917 11H2.25C2.65278 11.7917 3.1875 12.4722 3.85417 13.0417C4.53472 13.5972 5.28472 13.9931 6.10417 14.2292ZM1.6875 9.5H5.04167C5.01389 9.26389 4.99306 9.02778 4.97917 8.79167C4.97917 8.54167 4.97917 8.29167 4.97917 8.04167C4.97917 7.79167 4.97917 7.54167 4.97917 7.29167C4.99306 7.02778 5.01389 6.76389 5.04167 6.5H1.6875C1.61806 6.77778 1.56944 7.04167 1.54167 7.29167C1.51389 7.52778 1.5 7.76389 1.5 8C1.5 8.25 1.51389 8.49306 1.54167 8.72917C1.56944 8.96528 1.61806 9.22222 1.6875 9.5ZM2.25 5H5.22917C5.32639 4.33333 5.44444 3.72917 5.58333 3.1875C5.73611 2.64583 5.90972 2.17361 6.10417 1.77083C5.28472 2.00694 4.53472 2.40972 3.85417 2.97917C3.1875 3.53472 2.65278 4.20833 2.25 5ZM6.75 5H9.25C9.125 4.23611 8.94445 3.53472 8.70833 2.89583C8.47222 2.24305 8.23611 1.79861 8 1.5625C7.76389 1.79861 7.52778 2.24305 7.29167 2.89583C7.05556 3.53472 6.875 4.23611 6.75 5ZM10.7708 5H13.75C13.3472 4.20833 12.8056 3.53472 12.125 2.97917C11.4583 2.40972 10.7153 2.00694 9.89583 1.77083C10.0903 2.17361 10.2569 2.64583 10.3958 3.1875C10.5486 3.72917 10.6736 4.33333 10.7708 5ZM7.83333 16C6.77778 16 5.77083 15.7917 4.8125 15.375C3.86806 14.9583 3.03472 14.3889 2.3125 13.6667C1.60417 12.9306 1.04167 12.0764 0.625 11.1042C0.208334 10.1319 1.78814e-07 9.09722 1.78814e-07 8C1.78814e-07 6.88889 0.208334 5.85417 0.625 4.89583C1.04167 3.92361 1.61111 3.07639 2.33333 2.35417C3.06944 1.61805 3.92361 1.04167 4.89583 0.624999C5.86806 0.208333 6.90278 -7.15256e-07 8 -7.15256e-07C9.11111 -7.15256e-07 10.1458 0.208333 11.1042 0.624999C12.0764 1.04167 12.9236 1.61111 13.6458 2.33333C14.3819 3.04167 14.9583 3.875 15.375 4.83333C15.7917 5.79167 16 6.80555 16 7.875C16 8.05556 15.9931 8.24306 15.9792 8.4375C15.9792 8.61805 15.9653 8.80555 15.9375 9H14.4167C14.4444 8.83333 14.4653 8.66667 14.4792 8.5C14.4931 8.33333 14.5 8.16667 14.5 8C14.5 7.76389 14.4861 7.52778 14.4583 7.29167C14.4306 7.04167 14.3819 6.77778 14.3125 6.5H10.9583C10.9861 6.73611 11 6.97917 11 7.22917C11.0139 7.46528 11.0208 7.70833 11.0208 7.95833C11.0208 8.08333 11.0208 8.23611 11.0208 8.41667C11.0208 8.58333 11.0208 8.77778 11.0208 9H9.5C9.5 8.80555 9.5 8.61805 9.5 8.4375C9.5 8.24306 9.5 8.07639 9.5 7.9375C9.5 7.74306 9.49306 7.52778 9.47917 7.29167C9.47917 7.04167 9.46528 6.77778 9.4375 6.5H6.5625C6.53472 6.76389 6.51389 7.02083 6.5 7.27083C6.5 7.52083 6.5 7.76389 6.5 8C6.5 8.23611 6.5 8.47917 6.5 8.72917C6.51389 8.96528 6.53472 9.22222 6.5625 9.5H9V11H6.75C6.86111 11.625 7.0625 12.2778 7.35417 12.9583C7.64583 13.6389 7.94445 14.1319 8.25 14.4375C8.375 14.2847 8.5 14.0833 8.625 13.8333C8.76389 13.5833 8.88889 13.2986 9 12.9792V15.9375C8.81945 15.9653 8.625 15.9861 8.41667 16C8.22222 16 8.02778 16 7.83333 16ZM14.2083 15.2708L12 13.0625V14.75H10.5V10.5H14.75V12H13.0625L15.2708 14.2083L14.2083 15.2708Z" fill="currentColor"/>
</svg>
