<svg width="64" height="64" viewBox="0 0 64 64" fill="none" xmlns="http://www.w3.org/2000/svg">
<ellipse opacity="0.2" cx="32" cy="62.0802" rx="32" ry="1.92" fill="#5C5C5C"/>
<g clip-path="url(#clip0_13286_6304)">
<path d="M32.6462 8.69629C31.8216 8.69678 31.0309 9.02459 30.4478 9.60769C29.8647 10.1908 29.5368 10.9815 29.5364 11.8062C29.5361 12.2148 29.6164 12.6195 29.7725 12.9971C29.9287 13.3747 30.1577 13.7179 30.4464 14.007C30.7352 14.2962 31.0781 14.5256 31.4556 14.6822C31.833 14.8388 32.2376 14.9195 32.6462 14.9198C33.0549 14.9195 33.4594 14.8388 33.8369 14.6822C34.2143 14.5256 34.5572 14.2962 34.846 14.007C35.1348 13.7179 35.3638 13.3747 35.5199 12.9971C35.6761 12.6195 35.7563 12.2148 35.7561 11.8062C35.7556 10.9815 35.4278 10.1908 34.8447 9.60769C34.2616 9.02459 33.4709 8.69678 32.6462 8.69629ZM27.9908 10.8336C23.2305 11.8894 18.9677 14.525 15.8957 18.3114C12.8237 22.0979 11.1233 26.8124 11.0713 31.688C11.0718 31.9226 11.134 32.1529 11.2517 32.3558C11.3693 32.5587 11.5383 32.727 11.7417 32.8439C11.945 32.9608 12.1756 33.0222 12.4101 33.0218C12.6447 33.0214 12.875 32.9592 13.078 32.8416C13.2777 32.7298 13.4445 32.5675 13.5618 32.371C13.6791 32.1744 13.7427 31.9505 13.7462 31.7216C13.7819 28.4375 14.6714 25.2192 16.3275 22.383C17.9835 19.5468 20.349 17.1903 23.1916 15.5451C24.7627 14.6357 26.458 13.9603 28.2241 13.5403C27.8843 12.6788 27.8032 11.7368 27.9908 10.8299V10.8336ZM42.9521 13.1856C42.6045 13.193 42.2737 13.3366 42.031 13.5856C41.7883 13.8345 41.6532 14.1689 41.6548 14.5166C41.6516 14.7453 41.7086 14.9709 41.82 15.1707C41.9313 15.3705 42.0932 15.5376 42.2894 15.6552C45.9087 17.8024 48.7083 21.0955 50.245 25.0131C51.7817 28.9307 51.9677 33.249 50.7734 37.2843C51.3596 37.3702 51.927 37.5643 52.4422 37.8611C52.7197 38.0191 52.9811 38.2014 53.2262 38.408C54.6882 33.7577 54.5339 28.7495 52.7885 24.198C51.0432 19.6464 47.8093 15.8192 43.6129 13.3387C43.4099 13.2304 43.182 13.1776 42.9521 13.1856ZM32.65 20.2622C31.1186 20.2624 29.6023 20.5643 28.1876 21.1505C26.7729 21.7368 25.4875 22.5959 24.4049 23.6789C23.3222 24.7619 22.4635 26.0476 21.8777 27.4625C21.2919 28.8773 20.9905 30.3937 20.9908 31.9251C20.991 33.4564 21.2929 34.9728 21.8791 36.3874C22.4654 37.8021 23.3245 39.0875 24.4075 40.1702C25.4905 41.2528 26.7762 42.1116 28.191 42.6974C29.6059 43.2832 31.1223 43.5845 32.6537 43.5843C35.7464 43.5838 38.7122 42.3547 40.8988 40.1675C43.0853 37.9803 44.3134 35.0141 44.3129 31.9214C44.3124 28.8286 43.0833 25.8628 40.8961 23.6763C38.7089 21.4898 35.7427 20.2617 32.65 20.2622ZM32.65 22.9315C34.4277 22.9323 36.1654 23.4598 37.6436 24.4475C39.1218 25.4351 40.2742 26.8386 40.9552 28.4808C41.6363 30.1229 41.8155 31.9301 41.4702 33.674C41.125 35.4179 40.2707 37.0205 39.0153 38.2792C37.9701 39.3251 36.6831 40.0971 35.2683 40.5268C33.8535 40.9566 32.3546 41.0308 30.9043 40.7429C29.454 40.455 28.0971 39.8139 26.9537 38.8763C25.8103 37.9388 24.9158 36.7337 24.3493 35.3679C23.7829 34.0021 23.562 32.5177 23.7062 31.0462C23.8504 29.5746 24.3553 28.1613 25.1762 26.9315C25.997 25.7016 27.1085 24.6932 28.4121 23.9955C29.7158 23.2978 31.1713 22.9323 32.65 22.9315ZM32.6313 27.2155C29.9956 27.2416 29.0921 30.7379 31.3844 32.039L30.5724 36.1587C30.5602 36.2228 30.5625 36.2888 30.5788 36.3519C30.5952 36.4151 30.6254 36.4738 30.6671 36.5239C30.7088 36.5741 30.7612 36.6143 30.8203 36.6419C30.8794 36.6694 30.9439 36.6835 31.0092 36.6832H34.3169C34.3822 36.6839 34.4469 36.67 34.5062 36.6425C34.5655 36.6151 34.618 36.5748 34.6598 36.5246C34.7016 36.4744 34.7317 36.4155 34.7479 36.3522C34.7642 36.2889 34.7661 36.2228 34.7537 36.1587L33.9361 32.039C34.3303 31.8123 34.6574 31.4852 34.8843 31.0912C35.1112 30.6971 35.2297 30.2499 35.2278 29.7952C35.2283 29.455 35.1614 29.1181 35.031 28.804C34.9006 28.4898 34.7093 28.2045 34.4681 27.9647C34.2268 27.7248 33.9405 27.5351 33.6255 27.4065C33.3106 27.278 32.9733 27.213 32.6332 27.2155H32.6313ZM15.2265 38.8672C14.4019 38.8677 13.6111 39.1955 13.028 39.7786C12.4449 40.3617 12.1171 41.1525 12.1166 41.9771C12.1164 42.3857 12.1966 42.7904 12.3528 43.168C12.5089 43.5457 12.7379 43.8888 13.0267 44.178C13.3155 44.4671 13.6584 44.6965 14.0358 44.8531C14.4133 45.0097 14.8179 45.0904 15.2265 45.0907C15.6351 45.0904 16.0397 45.0097 16.4172 44.8531C16.7946 44.6965 17.1375 44.4671 17.4263 44.178C17.715 43.8888 17.9441 43.5457 18.1002 43.168C18.2564 42.7904 18.3366 42.3857 18.3364 41.9771C18.3359 41.1525 18.0081 40.3617 17.425 39.7786C16.8418 39.1955 16.0511 38.8677 15.2265 38.8672ZM50.066 38.8672C49.2413 38.8677 48.4506 39.1955 47.8675 39.7786C47.2844 40.3617 46.9566 41.1525 46.9561 41.9771C46.9558 42.3857 47.0361 42.7904 47.1922 43.168C47.3484 43.5457 47.5774 43.8888 47.8662 44.178C48.155 44.4671 48.4978 44.6965 48.8753 44.8531C49.2527 45.0097 49.6573 45.0904 50.066 45.0907C50.4746 45.0904 50.8792 45.0097 51.2566 44.8531C51.6341 44.6965 51.977 44.4671 52.2657 44.178C52.5545 43.8888 52.7835 43.5457 52.9397 43.168C53.0958 42.7904 53.1761 42.3857 53.1758 41.9771C53.1753 41.1525 52.8475 40.3617 52.2644 39.7786C51.6813 39.1955 50.8906 38.8677 50.066 38.8672ZM18.9356 44.96C18.5735 45.4169 18.129 45.8018 17.6252 46.095C17.3474 46.2522 17.0548 46.3816 16.7516 46.4814C20.045 50.0773 24.458 52.4536 29.2731 53.2239C34.0881 53.9943 39.0222 53.1133 43.2732 50.7243C43.4768 50.6079 43.6461 50.4397 43.7638 50.2368C43.8816 50.0338 43.9436 49.8034 43.9436 49.5688C43.9436 49.3342 43.8816 49.1038 43.7638 48.9009C43.6461 48.698 43.4768 48.5298 43.2732 48.4134C43.0758 48.2942 42.8505 48.2294 42.62 48.2254C42.3896 48.2215 42.1622 48.2786 41.9609 48.391C39.0956 50.0095 35.8574 50.8522 32.5666 50.8359C29.2758 50.8195 26.0462 49.9446 23.1972 48.2976C21.6249 47.3937 20.1899 46.2698 18.9356 44.96Z" fill="#5C5C5C"/>
</g>
<path d="M11.7154 6.23652C11.2128 5.45257 11.4409 4.40961 12.2248 3.90701C13.0088 3.40441 14.0517 3.63249 14.5543 4.41644L16.4264 7.33655C16.929 8.1205 16.7009 9.16346 15.917 9.66606C15.133 10.1687 14.0901 9.94058 13.5875 9.15663L11.7154 6.23652Z" fill="#5C5C5C"/>
<path d="M7.11503 10.1907C6.77623 11.0581 7.20474 12.0359 8.07214 12.3747L11.3031 13.6367C12.1705 13.9755 13.1483 13.547 13.4871 12.6796C13.826 11.8122 13.3974 10.8344 12.53 10.4956L9.29908 9.23355C8.43167 8.89474 7.45384 9.32325 7.11503 10.1907Z" fill="#5C5C5C"/>
<defs>
<clipPath id="clip0_13286_6304">
<rect width="44.8" height="44.8" fill="white" transform="translate(10.2461 8.69629)"/>
</clipPath>
</defs>
</svg>
