<svg width="12" height="10" viewBox="0 0 12 10" fill="none" xmlns="http://www.w3.org/2000/svg">
<path d="M6.19534 0.5312C6.45569 0.27085 6.8778 0.27085 7.13815 0.5312L11.1382 4.5312C11.2632 4.65622 11.3334 4.82579 11.3334 5.0026C11.3334 5.17942 11.2632 5.34899 11.1382 5.47401L7.13815 9.47401C6.8778 9.73436 6.45569 9.73436 6.19534 9.47401C5.93499 9.21366 5.93499 8.79155 6.19534 8.5312L9.05727 5.66927L1.33341 5.66927C0.965225 5.66927 0.666748 5.3708 0.666748 5.00261C0.666748 4.63442 0.965225 4.33594 1.33341 4.33594H9.05727L6.19534 1.47401C5.93499 1.21366 5.93499 0.791549 6.19534 0.5312Z" fill="white"/>
</svg>
