<svg width="14" height="14" viewBox="0 0 14 14" fill="none" xmlns="http://www.w3.org/2000/svg">
<mask id="mask0_2207_1663" style="mask-type:alpha" maskUnits="userSpaceOnUse" x="0" y="0" width="14" height="14">
<rect width="14" height="14" fill="#D9D9D9"/>
</mask>
<g mask="url(#mask0_2207_1663)">
<path d="M7 8L0.5 4.27083V11.5H8.5V12.2083V13H0.5C0.0833336 13 -0.270833 12.8542 -0.5625 12.5625C-0.854167 12.2708 -1 11.9167 -1 11.5V2.5C-1 2.08333 -0.854167 1.72917 -0.5625 1.4375C-0.270833 1.14583 0.0833336 0.999999 0.5 0.999999H13.5C13.9167 0.999999 14.2708 1.14583 14.5625 1.4375C14.8542 1.72917 15 2.08333 15 2.5V8C14.7639 8 14.5208 8 14.2708 8C14.0208 8 13.7639 8 13.5 8V4.27083L7 8ZM7 6.22917L13.5 2.5H0.5L7 6.22917ZM13 15.25L11.9375 14.1875L13.125 13H10V11.5H13.125L11.9375 10.3125L13 9.25L16 12.25L13 15.25ZM0.5 4.27083V11.5V12.2083C0.5 10.9861 0.5 9.94444 0.5 9.08333C0.5 8.22222 0.5 7.79167 0.5 7.79167V4.27083V2.5V4.27083Z" fill="white"/>
</g>
</svg>
