<svg width="18" height="12" viewBox="0 0 18 12" fill="none" xmlns="http://www.w3.org/2000/svg">
<path d="M16.9167 1.08329C16.6667 0.916626 16.3334 0.916626 16.0834 1.08329L12.4167 3.58329V1.83329C12.4167 0.916626 11.6667 0.166626 10.7501 0.166626H2.33341C1.41675 0.166626 0.666748 0.916626 0.666748 1.83329V10.1666C0.666748 11.0833 1.41675 11.8333 2.33341 11.8333H10.6667C11.5834 11.8333 12.3334 11.0833 12.3334 10.1666V8.41663L16.0001 10.9166C16.1667 11 16.3334 11.0833 16.5001 11.0833C16.6667 11.0833 16.7501 11.0833 16.9167 11C17.1667 10.8333 17.3334 10.5833 17.3334 10.25V1.83329C17.3334 1.49996 17.1667 1.24996 16.9167 1.08329ZM10.6667 10.1666H2.33341V1.83329H10.6667V5.16663V6.83329V10.1666ZM15.6667 8.58329L12.3334 6.33329V5.58329L15.6667 3.33329V8.58329Z" fill="currentColor"/>
</svg>
