<svg
  width="20"
  height="20"
  viewBox="0 0 20 20"
  fill="none"
  xmlns="http://www.w3.org/2000/svg"
>
  <path
    d="M2.78338 14.1665C2.43111 13.5573 2.15727 12.9061 1.96838 12.2282C2.37947 12.0191 2.72471 11.7004 2.96591 11.3073C3.2071 10.9142 3.33485 10.462 3.33503 10.0008C3.3352 9.53957 3.20779 9.08731 2.96689 8.69402C2.72598 8.30073 2.38098 7.98174 1.97005 7.77235C2.34675 6.41026 3.06399 5.16648 4.05422 4.15819C4.44096 4.40962 4.88973 4.54915 5.35087 4.56134C5.812 4.57352 6.26751 4.45788 6.66699 4.22721C7.06647 3.99655 7.39435 3.65985 7.61432 3.25439C7.8343 2.84892 7.93781 2.3905 7.91338 1.92985C9.28181 1.5762 10.7177 1.57678 12.0859 1.93152C12.0617 2.39216 12.1654 2.85051 12.3855 3.25586C12.6057 3.66121 12.9337 3.99775 13.3332 4.22824C13.7328 4.45872 14.1883 4.57418 14.6494 4.56181C15.1106 4.54945 15.5593 4.40975 15.9459 4.15819C16.4284 4.64985 16.8567 5.20902 17.2167 5.83319C17.5776 6.45735 17.8476 7.10819 18.0317 7.77152C17.6206 7.9806 17.2754 8.29933 17.0342 8.69244C16.793 9.08555 16.6652 9.53772 16.6651 9.99892C16.6649 10.4601 16.7923 10.9124 17.0332 11.3057C17.2741 11.699 17.6191 12.018 18.0301 12.2274C17.6534 13.5894 16.9361 14.8332 15.9459 15.8415C15.5591 15.5901 15.1104 15.4506 14.6492 15.4384C14.1881 15.4262 13.7326 15.5418 13.3331 15.7725C12.9336 16.0032 12.6058 16.3399 12.3858 16.7453C12.1658 17.1508 12.0623 17.6092 12.0867 18.0699C10.7183 18.4235 9.28236 18.4229 7.91422 18.0682C7.93842 17.6075 7.83471 17.1492 7.61457 16.7438C7.39442 16.3385 7.06642 16.002 6.66686 15.7715C6.2673 15.541 5.81176 15.4255 5.35066 15.4379C4.88955 15.4503 4.44085 15.59 4.05422 15.8415C3.56171 15.339 3.13471 14.7762 2.78338 14.1665ZM7.50005 14.3299C8.38807 14.842 9.05576 15.664 9.37505 16.6382C9.79088 16.6774 10.2084 16.6782 10.6242 16.639C10.9437 15.6647 11.6117 14.8427 12.5001 14.3307C13.3877 13.8171 14.4338 13.6494 15.4376 13.8599C15.6792 13.5199 15.8876 13.1574 16.0609 12.7782C15.3771 12.0144 14.9993 11.025 15.0001 9.99985C15.0001 8.94985 15.3917 7.96902 16.0609 7.22152C15.8863 6.84248 15.6771 6.48038 15.4359 6.13985C14.4328 6.35011 13.3874 6.18275 12.5001 5.66985C11.612 5.15766 10.9443 4.33567 10.6251 3.36152C10.2092 3.32235 9.79172 3.32152 9.37588 3.36069C9.05638 4.33497 8.38839 5.15699 7.50005 5.66902C6.61237 6.18261 5.56628 6.35029 4.56255 6.13985C4.32136 6.48009 4.11266 6.84224 3.93922 7.22152C4.62303 7.98532 5.00079 8.97468 5.00005 9.99985C5.00005 11.0499 4.60838 12.0307 3.93922 12.7782C4.11378 13.1572 4.323 13.5193 4.56422 13.8599C5.56731 13.6496 6.61272 13.817 7.50005 14.3299ZM10.0001 12.4999C9.33701 12.4999 8.70112 12.2365 8.23228 11.7676C7.76344 11.2988 7.50005 10.6629 7.50005 9.99985C7.50005 9.33681 7.76344 8.70093 8.23228 8.23209C8.70112 7.76324 9.33701 7.49985 10.0001 7.49985C10.6631 7.49985 11.299 7.76324 11.7678 8.23209C12.2367 8.70093 12.5001 9.33681 12.5001 9.99985C12.5001 10.6629 12.2367 11.2988 11.7678 11.7676C11.299 12.2365 10.6631 12.4999 10.0001 12.4999ZM10.0001 10.8332C10.2211 10.8332 10.433 10.7454 10.5893 10.5891C10.7456 10.4328 10.8334 10.2209 10.8334 9.99985C10.8334 9.77884 10.7456 9.56688 10.5893 9.4106C10.433 9.25432 10.2211 9.16652 10.0001 9.16652C9.77904 9.16652 9.56708 9.25432 9.41079 9.4106C9.25451 9.56688 9.16672 9.77884 9.16672 9.99985C9.16672 10.2209 9.25451 10.4328 9.41079 10.5891C9.56708 10.7454 9.77904 10.8332 10.0001 10.8332Z"
    fill="currentColor"
  />
</svg>
