<?xml version="1.0" encoding="UTF-8"?>
<svg id="Layer_2" data-name="Layer 2" xmlns="http://www.w3.org/2000/svg" viewBox="0 0 921.3 896.17">
  <g id="Layer_1-2" data-name="Layer 1">
    <g>
      <path fill="currentColor" stroke-width="0px" d="M507.67,618.9c-40.9,35.46-89.22,53.29-142.56,60.5,27.43-26.48,49.65-56.39,65.1-92.79-2.4,1.01-3.59,1.31-4.56,1.95-56.19,37.07-118.58,51.22-185.12,50.61-39.31-.36-78.08-5.26-116.65-12.37-1.66-.31-3.28-.86-4.85-2.59,4.06,0,8.11.1,12.16-.01,49.59-1.37,97.28-10.74,141.7-33.79,51.52-26.73,88.48-67.07,111.62-120.11,2.3-5.27,4.47-7.01,10.51-6.04,35.49,5.71,70.58,12.81,103.74,27.27,45.61,19.9,79.97,52.76,107.23,93.63,7.97,11.94,15.26,24.33,23.96,36.3-.65-5.02-1.01-10.09-2-15.04-16.85-84.14-73.26-155.37-170.82-172.78-43.48-7.76-86.79-4.47-129.65,5.08-16.62,3.7-32.96,8.68-49.51,12.73-2.21.54-5.95-.14-7.24-1.7-19.56-23.54-38.78-47.37-58.2-71.02-3.89-4.74-3.58-7.56,1.87-11.23,56.97-38.41,114.52-75.86,174.91-108.79,2.23-1.22,4.19-4.2,4.9-6.75,2.85-10.3,4.49-20.98,7.83-31.1,5.19-15.7,15.89-27.31,30.85-34.11,31.24-14.19,63.08-27.11,94.04-41.88,13.63-6.5,25.39-7.06,38.79-.22,10.19,5.2,21.5,8.23,34.01,12.85-2.18-2.78-3.1-4.17-4.23-5.37-17.91-18.79-28.07-41.35-33.07-66.62-5.56-28.04-6.84-56.38-7.63-85.5,1.7.64,2.98.81,3.88,1.5,53.56,40.65,107.09,81.73,150.3,133.59,49.18,59.03,84.24,126,100.91,201.67,3.95,17.92,6.79,36.09,10.08,54.15.26,1.41.03,2.91.03,5.86-4.68-5.26-8.49-9.6-12.36-13.89-20.61-22.8-43.27-42.85-73.08-52.8-4.96-1.66-10.73-1.92-15.94-1.31-2.01.23-4.79,4.6-4.98,7.24-.27,3.7,1.06,7.76,2.57,11.31,10.99,25.94,22.19,51.78,33.35,77.65.31.73.96,1.31,2.3,3.08,5.49-30.34-7.36-54.89-20-81.55,21.23,11.67,37.91,26.18,51.36,43.8,13.32,17.44,24.87,36.24,37.33,54.65,2.68-8.7,6.13-18.07,8.45-27.71,8.14-33.77,16.02-67.62,23.58-101.52.66-2.97-.97-7.12-2.83-9.82-2.96-4.27-6.63-8.26-10.68-11.51-12.45-10-17.73-23.72-23.64-38.09-13.2-32.09-28.83-63.19-43.47-94.69-.96-2.07-2.03-4.1-2.1-7.06,1.78,1.01,3.63,1.91,5.34,3.04,51.77,34.26,98.1,74.67,138.43,121.93,6.96,8.16,8.87,16.67,7.03,27.28-11.7,67.58-27.8,133.97-52.34,198.12-29.56,77.27-69.79,148.25-124.64,210.61-60.86,69.19-134.15,121.13-218.63,157.41-19.26,8.27-39.12,15.18-58.84,22.36-3,1.09-7,1.18-10.02.19-126.14-41.55-231.09-113.06-310.67-220.28-1.26-1.7-2.42-3.49-4.61-6.67,75.81,9.04,149.53,9.37,220.04-21.87.36.62.72,1.24,1.08,1.86-10.75,10.04-21.25,20.39-32.34,30.05-11.16,9.72-22.91,18.77-35.48,28.99,39.45,7.91,77.16,6.2,114.17-6.28,43.5-14.66,76.02-42.91,99.3-82.37ZM563.06,209.71c-4.48-.22-9.46-1.19-14.24-.58-35.27,4.53-66.52,18.87-94.82,39.96-3.59,2.68-6.77,6.28-9.19,10.06-4.12,6.42-2,10.7,5.65,10.89,8.47.21,17.05-.2,25.45-1.33,23.46-3.14,45.74-8.21,60.63-29.87,7.21-10.49,17.19-19.06,26.51-29.15Z"/>
      <path fill="currentColor" stroke-width="0px" d="M148.52,559.38c-24.2-.77-46.91-1.35-69.6-2.47-2.1-.1-4.8-3.31-5.91-5.69-18.26-39.36-33.59-79.92-44.23-121.92-10.62-41.91-18.97-84.4-28.25-126.65-2.1-9.54,2.35-16.83,8.27-23.78,32.67-38.3,69.29-72.35,110.02-101.89C214.81,107.34,321.81,63.48,437.94,41.12c2.31-.45,4.68-.57,8.19-.98-1.79,8.73-3.37,16.74-5.09,24.72-2.71,12.61-5.79,25.15-8.15,37.82-.87,4.71-2.94,6.45-7.43,7.44-82.1,18.11-159.14,48.83-230.45,93.48-45.48,28.48-86.59,62.32-122.94,101.88-2.98,3.24-3.89,6.35-3.09,10.6,15.5,82.46,38.59,162.45,77.21,237.39.66,1.29,1.08,2.7,2.33,5.91Z"/>
      <path fill="currentColor" stroke-width="0px" d="M468.59,67.03c19.57,17.95,37.96,34.83,57.35,52.62-20.6,9.57-40.04,18.61-60.12,27.94-3.06-27.13-1.93-52.95,2.77-80.57Z"/>
      <path fill="currentColor" stroke-width="0px" d="M541.29,91.26c-16.71-15.67-33.42-31.34-50.12-47.01.32-.58.63-1.16.95-1.74,13.31,3.02,26.65,5.95,39.91,9.22,1.39.34,2.91,2.62,3.28,4.24,2.63,11.44,4.98,22.95,7.42,34.44-.48.29-.96.57-1.43.86Z"/>
    </g>
  </g>
</svg>
