<svg xmlns="http://www.w3.org/2000/svg" width="1315.12" height="338.13" viewBox="0 0 1315.12 338.13"><defs><style>.cls-1{fill:#3d4250;fill-rule:evenodd}</style></defs><path id="logo" class="cls-1" d="M3723.99 5161.99v-133H3749v133h-25.01zm-66.36 0l-17.18-67.39-17.06 67.39h-26.89l-30.48-99.98h25.46l18.28 75.98 18.29-75.98h26.54l17.93 75.8 18.28-75.8h24.21l-30.48 99.98h-26.9zm-105.51-13.27q-14.88 14.28-36.88 14.27t-36.62-14.27q-14.61-14.265-14.61-37.4 0-23.115 14.79-37.22 14.79-14.085 36.71-14.09t36.7 14.09q14.79 14.1 14.79 37.22t-14.88 37.4zm-18.49-59.44a24.623 24.623 0 0 0-18.3-7.77 24.054 24.054 0 0 0-18.13 7.77q-7.395 7.77-7.4 22.22t7.4 22.22a23.917 23.917 0 0 0 18.04 7.77 24.675 24.675 0 0 0 18.3-7.86q7.665-7.845 7.67-22.22 0-14.355-7.58-22.13zM3429 5107c0-7.79-2.16-13.76-6.11-17.89s-9.36-6.2-16.2-6.2-12.27 2.07-16.28 6.2-6.41 10.1-6.41 17.89v55l-24.99-.01v-133l24.99.01v48c6.36-10.9 17.05-16.02 31.33-16.02q17.085 0 27.89 11.23t10.79 31.19v58.59l-25.01.01v-55zm-120.04-3.81q8.445 1.635 16.82 4.07a31.568 31.568 0 0 1 14.3 8.67q5.94 6.225 5.93 16.53 0 13.545-11.42 22.04t-29.14 8.49q-17.715 0-29.05-8.4c-7.56-5.6-11.68-14.11-12.4-24.59h26c.77 8.4 6.19 13.12 15.9 13.12q7.02 0 11.33-3.16a9.833 9.833 0 0 0 4.32-8.31q0-5.16-5.94-8.13a55.083 55.083 0 0 0-14.39-4.61q-8.46-1.62-16.82-3.97a31.7 31.7 0 0 1-14.3-8.41q-5.94-6.045-5.93-15.81 0-13.005 10.97-21.86t29.14-8.85q18.165 0 29.14 8.76c7.32 5.85 11.1 14.23 11.58 24.23h-26c-.54-8.5-5.67-13.11-15.26-13.11q-7.2 0-11.15 2.89a9.283 9.283 0 0 0-3.96 7.94q0 5.07 5.94 7.95a57.551 57.551 0 0 0 14.39 4.52zm-82.32 43.43q-9.54 16.38-31.13 16.38-16.92 0-27.71-11.25t-10.8-31.23v-58.51l25-.01v55c0 7.8 2.17 13.72 6.13 17.92s9.36 6.3 16.2 6.3 12.26-2.1 16.28-6.3 6.39-10.12 6.39-17.92v-55l25.01.01v99.73h-25.37v-15.12zm-126.67 16.2c-13.54 0-23.51-5.67-30.97-17.82v64h-25.99l-.01-148h26v16c7.1-11.3 16.98-16.99 30.7-16.99s25.03 4.78 33.94 14.34 13.35 21.89 13.35 36.98-4.45 27.44-13.35 37.06-20.13 14.43-33.67 14.43zm13.36-73.05a25.863 25.863 0 0 0-37.01.09c-5.24 5.23-7.32 12-7.32 21.14s2.08 16.74 7.32 21.97a25.635 25.635 0 0 0 37.01-.09q7.845-7.935 7.85-21.64t-7.85-21.47zm-180.52-35.19c.02.06.05.13.08.2a130.3 130.3 0 0 1 9.78 49.7c0 72.6-59 131.47-131.74 131.47-72.78 0-131.74-58.87-131.74-131.47S2738.15 4973 2810.92 4973h131.97a83.49 83.49 0 0 0-16.29 49.77 84.334 84.334 0 0 0 6.21 31.81zm-121.88-48.45a98.35 98.35 0 1 0 98.54 98.35 98.458 98.458 0 0 0-98.54-98.35zm-.01 97.79a14.261 14.261 0 0 0-14.27 14.25h-20.86a35.13 35.13 0 0 1 70.26 0h-20.86a14.261 14.261 0 0 0-14.27-14.25zm-245.07 0a14.254 14.254 0 0 0-14.27 14.25h-20.86a35.13 35.13 0 0 1 70.26 0h-20.86a14.261 14.261 0 0 0-14.27-14.25zm110.22 72.62a.053.053 0 0 1-.02.03 153.356 153.356 0 0 0 75.62 68.72c-16.41 24.37-37.97 46.58-63.54 65.84-31.81-23.94-57.38-52.46-74.71-84.01.16-.07.32-.15.48-.21a131.642 131.642 0 0 1-48.04 9.04c-72.78 0-131.77-58.87-131.77-131.47a130.678 130.678 0 0 1 10.08-50.48 84.4 84.4 0 0 0 6-31.23 83.49 83.49 0 0 0-16.29-49.77h131.98a131.727 131.727 0 0 1 110.21 59.41 150.933 150.933 0 0 0-15.63 44.51 98.355 98.355 0 1 0 0 55.11 150.833 150.833 0 0 0 15.63 44.51z" transform="translate(-2433.88 -4973)"/></svg>