  <svg
    xmlns="http://www.w3.org/2000/svg"
    width="26"
    height="25"
    viewBox="0 0 18 17"
    fill="none"
  >
    <path
      d="M7.83955 1.01323C8.13891 0.0919211 9.44231 0.0919228 9.74167 1.01323L11.0617 5.07603C11.1956 5.48805 11.5796 5.76701 12.0128 5.76701H16.2847C17.2534 5.76701 17.6562 7.00663 16.8725 7.57603L13.4164 10.087C13.066 10.3416 12.9193 10.793 13.0532 11.205L14.3733 15.2678C14.6726 16.1891 13.6181 16.9552 12.8344 16.3858L9.37839 13.8749C9.02791 13.6203 8.55331 13.6203 8.20282 13.8749L4.7468 16.3858C3.96309 16.9552 2.90861 16.1891 3.20796 15.2678L4.52804 11.205C4.66192 10.793 4.51526 10.3416 4.16477 10.087L0.708747 7.57603C-0.0749662 7.00663 0.327811 5.76701 1.29653 5.76701H5.56841C6.00164 5.76701 6.3856 5.48805 6.51947 5.07603L7.83955 1.01323Z"
      fill="#FBDA00"
    />
  </svg>