<svg xmlns="http://www.w3.org/2000/svg" width="300" height="100" viewBox="0 0 300 100">
  <g fill="none" fill-rule="evenodd">
    <path fill="#BF3078" fill-rule="nonzero" d="M250.49819,0 C248.656291,0 246.446013,0 244.604115,0.366666667 L233.921104,19.0666667 C238.71004,16.1333333 244.604115,14.6666667 250.49819,14.6666667 C269.653934,14.6666667 285.49426,30.4333333 285.49426,49.5 C285.49426,68.5666667 269.653934,84.3333333 250.49819,84.3333333 C231.342446,84.3333333 215.870499,68.9333333 215.502119,49.8666667 L204.450728,68.5666667 C211.818322,86.5333333 229.868927,99 250.12981,99 C277.389907,99 299.861068,76.6333333 299.861068,49.5 C300.229448,22.3666667 277.758287,0 250.49819,0 Z"/>
    <path fill="#802050" fill-rule="nonzero" d="M100.199276,51.7 L108.672009,37.0333333 L127.827753,69.6666667 L149.930534,31.9 L172.033316,69.6666667 L209.976424,5.5 C211.818322,2.2 215.502119,0 219.554296,0 L230.237307,0 L172.033316,99 L149.930534,61.2333333 L127.827753,99 L100.199276,51.7 Z"/>
    <path fill="#26134D" fill-rule="nonzero" d="M116.039603,0 L57.8356114,99 L0,0 L10.683011,0 C14.7351876,0 18.4189845,2.2 20.260883,5.5 L57.8356114,70.0333333 L95.7787196,5.5 C97.620618,2.2 101.304415,0 105.356592,0 L116.039603,0 Z"/>
  </g>
</svg>
