<svg
    width="16"
    height="16"
    viewBox="0 0 20 18"
    fill="none"
    xmlns="http://www.w3.org/2000/svg"
>
    <path
    d="M19.9241 3.61722C19.8753 3.49927 19.803 3.38877 19.7071 3.29289L16.7071 0.292893C16.3166 -0.0976311 15.6834 -0.0976311 15.2929 0.292893C14.9024 0.683417 14.9024 1.31658 15.2929 1.70711L16.5858 3L13.2648 3C11.5084 3 9.88091 3.92149 8.9773 5.42752L5.30772 11.5435C4.76555 12.4471 3.78903 13 2.73524 13H1C0.447715 13 0 13.4477 0 14C0 14.5523 0.447715 15 0.999999 15H2.73524C4.49155 15 6.11909 14.0785 7.0227 12.5725L10.6923 6.45651C11.2345 5.5529 12.211 5 13.2648 5H16.5858L15.2929 6.29289C14.9024 6.68342 14.9024 7.31658 15.2929 7.70711C15.6834 8.09763 16.3166 8.09763 16.7071 7.70711L19.7063 4.70787C19.7088 4.70544 19.7112 4.703 19.7136 4.70055C19.9045 4.50613 20 4.25307 20 4"
    fill="currentColor"
    />
    <path
    d="M19.9241 3.61722C19.9727 3.73425 19.9996 3.8625 20 3.997L19.9241 3.61722Z"
    fill="currentColor"
    />
    <path
    d="M19.7061 14.7081L16.7071 17.7071C16.3166 18.0976 15.6834 18.0976 15.2929 17.7071C14.9024 17.3166 14.9024 16.6834 15.2929 16.2929L16.5858 15H13.2648C11.5084 15 9.88091 14.0785 8.9773 12.5725L5.30772 6.45651C4.76555 5.5529 3.78903 5 2.73524 5H1C0.447716 5 4.76837e-07 4.55228 4.76837e-07 4C4.76837e-07 3.44771 0.447716 3 1 3H2.73524C4.49155 3 6.11909 3.9215 7.0227 5.42752L10.6923 11.5435C11.2345 12.4471 12.211 13 13.2648 13H16.5858L15.2929 11.7071C14.9024 11.3166 14.9024 10.6834 15.2929 10.2929C15.6834 9.90237 16.3166 9.90237 16.7071 10.2929L19.7071 13.2929C19.9016 13.4874 19.9992 13.7421 20 13.997L20 14C20 14.2766 19.8877 14.527 19.7061 14.7081Z"
    fill="currentColor"
    />
</svg>