
<svg width="59" height="59" viewBox="0 0 59 59" fill="none" xmlns="http://www.w3.org/2000/svg">
<rect width="59" height="59" rx="8" fill="#303136"/>
<path d="M32.3511 29.7495C32.3511 34.5817 28.4669 38.4992 23.6754 38.4992C18.8839 38.4992 15 34.5829 15 29.7495C15 24.916 18.8842 21 23.6754 21C28.4667 21 32.3511 24.9172 32.3511 29.7495Z" fill="white"/>
<path d="M41.8671 29.75C41.8671 34.299 39.9249 37.9863 37.5293 37.9863C35.1337 37.9863 33.1914 34.2978 33.1914 29.75C33.1914 25.2022 35.1337 21.5137 37.5293 21.5137C39.9249 21.5137 41.8671 25.2022 41.8671 29.75Z" fill="white"/>
<path d="M45.7624 29.7505C45.7624 33.8262 45.0792 37.1299 44.2367 37.1299C43.3941 37.1299 42.7109 33.825 42.7109 29.7505C42.7109 25.676 43.3941 22.3711 44.237 22.3711C45.0798 22.3711 45.7624 25.6751 45.7624 29.7505Z" fill="white"/>
</svg>
