<svg xmlns="http://www.w3.org/2000/svg" width="16" height="16" viewBox="0 0 20 20" fill="currentColor">
  <path
    d="M16.6666 7.5V4.16667H3.33329V7.5H16.6666ZM16.6666 9.16667H3.33329V15.8333H16.6666V9.16667ZM2.49996 2.5H17.5C17.9602 2.5 18.3333 2.8731 18.3333 3.33333V16.6667C18.3333 17.1269 17.9602 17.5 17.5 17.5H2.49996C2.03973 17.5 1.66663 17.1269 1.66663 16.6667V3.33333C1.66663 2.8731 2.03973 2.5 2.49996 2.5ZM4.16663 10H6.66663V14.1667H4.16663V10ZM4.16663 5H5.83329V6.66667H4.16663V5ZM7.49996 5H9.16663V6.66667H7.49996V5Z"
    fill="currentColor"
  />
</svg>
