 <svg
    width="16"
    height="16"
    viewBox="0 0 20 20"
    fill="none"
    xmlns="http://www.w3.org/2000/svg"
  >
    <path
      d="M3.68014 5.09436C2.62708 6.44904 2 8.15129 2 10C2 14.4183 5.58172 18 10 18C11.8487 18 13.551 17.3729 14.9056 16.3199L3.68014 5.09436ZM5.09436 3.68014L16.3199 14.9056C17.3729 13.551 18 11.8487 18 10C18 5.58172 14.4183 2 10 2C8.15129 2 6.44904 2.62708 5.09436 3.68014ZM0 10C0 4.47715 4.47715 0 10 0C15.5228 0 20 4.47715 20 10C20 15.5228 15.5228 20 10 20C4.47715 20 0 15.5228 0 10Z"
      fill="currentColor"
    />
  </svg>