<?xml version="1.0" encoding="UTF-8" standalone="no"?> <svg xmlns="http://www.w3.org/2000/svg" xmlns:xlink="http://www.w3.org/1999/xlink" xmlns:serif="http://www.serif.com/" width="100%" height="100%" viewBox="0 0 796 222" version="1.1" xml:space="preserve" style="fill-rule:evenodd;clip-rule:evenodd;stroke-linejoin:round;stroke-miterlimit:2;"><g id="Camada_2_1_"><g id="Camada_1-2"><g><g><path d="M728.5,38.6l66.7,0l0,-34.9l-170.6,-0l0,34.9l66.7,0l0,179.3l37.2,0l0,-179.3Zm-110.8,145l-23.7,-24.5c-8.2,8 -17.4,14.8 -27.3,20.4c-9.2,5 -20.2,7.5 -33,7.5c-9.6,0.1 -19.1,-2 -27.8,-6c-8.4,-3.9 -15.9,-9.5 -22.1,-16.4c-6.3,-7.1 -11.2,-15.4 -14.4,-24.3c-3.5,-9.6 -5.2,-19.7 -5.1,-29.8c-0.1,-10.1 1.6,-20.2 5.1,-29.7c3.2,-8.9 8.1,-17 14.4,-24c6.2,-6.8 13.7,-12.3 22.1,-16.2c8.7,-4 18.2,-6.1 27.8,-6c12,0 22.7,2.4 32.1,7.3c9.7,5.2 18.7,11.7 26.7,19.4l23.7,-27.8c-5,-4.9 -10.3,-9.4 -15.9,-13.5c-5.7,-4.1 -11.9,-7.7 -18.3,-10.6c-7,-3.1 -14.3,-5.4 -21.8,-6.9c-8.7,-1.7 -17.5,-2.5 -26.3,-2.4c-16,-0 -30.6,2.9 -43.9,8.7c-12.9,5.6 -24.5,13.7 -34.2,23.9c-9.7,10.2 -17.3,22.3 -22.3,35.4c-10.7,27.9 -10.6,58.7 0.1,86.6c5.1,13 12.7,24.9 22.4,35c20,20.7 47.6,32.3 76.4,32c9,0.1 18,-0.8 26.9,-2.6c7.7,-1.6 15.3,-4.2 22.4,-7.6c6.7,-3.3 13.1,-7.3 19,-11.9c6.1,-5 11.8,-10.2 17,-16m-184.7,0l-23.7,-24.5c-8.2,8 -17.4,14.8 -27.3,20.4c-9.2,5 -20.2,7.5 -33,7.5c-9.6,0.1 -19.1,-2 -27.8,-6c-8.4,-3.9 -15.9,-9.5 -22.1,-16.4c-6.3,-7.1 -11.2,-15.4 -14.4,-24.3c-3.5,-9.6 -5.2,-19.7 -5.1,-29.8c-0.1,-10.1 1.6,-20.2 5.1,-29.7c3.2,-8.9 8.1,-17 14.4,-24c6.2,-6.8 13.7,-12.3 22.1,-16.2c8.7,-4 18.2,-6.1 27.8,-6c12,0 22.7,2.4 32.1,7.3c9.8,5.2 18.8,11.6 26.7,19.3l23.7,-27.8c-5,-4.9 -10.3,-9.4 -15.9,-13.5c-5.7,-4.1 -11.9,-7.7 -18.3,-10.6c-7,-3.1 -14.3,-5.4 -21.9,-6.9c-8.6,-1.7 -17.4,-2.5 -26.2,-2.4c-16,0 -30.6,2.9 -43.9,8.7c-12.9,5.6 -24.5,13.7 -34.2,23.9c-9.7,10.2 -17.3,22.2 -22.4,35.3c-0.4,1 -0.8,2 -1.1,3c4.2,0.1 8.4,0.2 12.6,0.4l25.5,1.2l-43.8,21.4c-0.8,5.7 -1.2,11.4 -1.2,17.1c-0.1,14.9 2.6,29.6 8.1,43.4c5.1,13 12.7,24.9 22.4,35c20,20.7 47.6,32.3 76.4,32c9,0.1 18,-0.8 26.9,-2.6c7.7,-1.6 15.3,-4.2 22.4,-7.6c6.7,-3.3 13.1,-7.3 19.1,-11.8c6.1,-4.8 11.8,-10 17,-15.8m-257.8,-71.3l8.7,20.5l13.5,33.4l21.3,51.7l39.1,0l-46.7,-108.9l-2.1,1l-1.4,-0c-10.9,0.2 -21.7,0.9 -32.4,2.3m-108.4,39.5l-28.4,66.1l37.9,0l21.7,-51.7l13.5,-33.4l1.8,-4.3c-7,2.8 -13.9,5.9 -20.7,9.3c-8.7,4.3 -17.3,9 -25.8,14m98.4,-149.7l-34.2,0l-50.4,117.7c9.9,-6.3 20.1,-12.2 30.6,-17.6c5.5,-2.8 11,-5.4 16.5,-7.8l19.9,-47.3l14.8,34.8c11.2,-3.2 22.5,-5.7 34,-7.5l-31.2,-72.3Z" style="fill-rule:nonzero;"></path><path d="M207.4,103.5c-67.4,1.3 -121.2,20.5 -207.4,86.2c78,-65.7 145,-117.5 259.9,-111.8l-52.5,25.6Z" style="fill:#f3c320;"></path></g></g></g></g></svg> 