<?xml version="1.0" standalone="no"?>
<!DOCTYPE svg PUBLIC "-//W3C//DTD SVG 20010904//EN"
 "http://www.w3.org/TR/2001/REC-SVG-20010904/DTD/svg10.dtd">
<svg version="1.0" xmlns="http://www.w3.org/2000/svg"
 width="1049.000000pt" height="264.000000pt" viewBox="0 0 1049.000000 264.000000"
 preserveAspectRatio="xMidYMid meet">
<metadata>
Created by potrace 1.16, written by Peter Selinger 2001-2019
</metadata>
<g transform="translate(0.000000,264.000000) scale(0.100000,-0.100000)"
fill="#000000" stroke="none">
<path d="M19 2608 c40 -60 83 -160 98 -232 25 -119 14 -226 -40 -386 -59 -176
-71 -255 -64 -427 6 -170 28 -257 102 -408 138 -283 397 -485 705 -550 166
-35 347 -28 510 19 l76 23 31 -56 c41 -75 149 -218 236 -315 78 -86 294 -276
314 -276 20 0 181 140 283 246 88 91 161 179 204 246 l17 26 -56 26 c-173 79
-374 256 -484 426 -69 107 -112 203 -152 340 -23 79 -29 91 -35 70 -4 -14 -28
-65 -52 -115 -38 -75 -62 -106 -141 -186 -82 -82 -110 -103 -191 -142 -134
-66 -200 -82 -345 -81 -141 0 -212 17 -330 74 -189 93 -331 260 -395 465 -30
95 -38 264 -17 362 100 469 590 735 1028 557 128 -52 263 -159 338 -268 32
-46 93 -167 105 -208 6 -18 13 -3 32 67 21 76 38 121 100 261 7 16 -77 123
-151 192 -127 119 -277 202 -453 250 l-97 26 -599 4 -599 3 22 -33z"/>
<path d="M2796 2629 c-673 -98 -1065 -803 -796 -1430 95 -223 272 -407 493
-513 513 -247 1123 -38 1373 469 73 149 95 237 101 408 7 172 -5 251 -64 427
-54 160 -65 267 -40 386 15 71 58 172 97 232 l22 32 -564 -1 c-309 -1 -590 -5
-622 -10z m369 -293 c125 -40 219 -98 311 -190 130 -130 201 -274 223 -454 19
-152 -18 -326 -101 -467 -49 -83 -180 -216 -261 -264 -263 -155 -579 -144
-824 28 -208 147 -324 369 -324 621 0 360 246 663 606 746 95 22 271 12 370
-20z"/>
<path d="M2860 1771 c-103 -32 -189 -138 -190 -233 l0 -38 85 0 c77 0 85 2 85
19 0 11 12 33 26 50 51 62 141 46 173 -30 l16 -39 83 0 82 0 0 28 c0 93 -83
204 -175 235 -50 18 -141 21 -185 8z"/>
<path d="M7440 1680 l0 -520 105 0 105 0 0 249 c0 241 1 249 23 282 12 18 38
44 57 57 29 20 45 23 95 20 72 -4 114 -29 141 -85 17 -33 19 -68 22 -280 l4
-243 99 0 99 0 0 264 c0 239 -2 270 -21 331 -25 83 -91 154 -165 179 -110 37
-258 14 -326 -51 l-28 -27 0 172 0 172 -105 0 -105 0 0 -520z"/>
<path d="M10280 1680 l0 -520 105 0 105 0 0 520 0 520 -105 0 -105 0 0 -520z"/>
<path d="M5339 1951 c-44 -14 -73 -32 -111 -69 l-38 -36 0 52 0 52 -105 0
-105 0 0 -580 0 -580 105 0 105 0 0 242 0 242 43 -41 c67 -65 99 -77 202 -78
82 0 96 3 157 33 79 39 129 92 172 181 29 63 31 72 31 186 -1 147 -21 207 -96
290 -72 78 -139 108 -248 112 -47 1 -98 -1 -112 -6z m126 -190 c182 -82 159
-375 -33 -421 -128 -30 -234 67 -235 214 -1 78 15 125 56 164 63 61 139 77
212 43z"/>
<path d="M6895 1947 c-66 -22 -101 -44 -138 -88 -41 -47 -63 -121 -52 -177 17
-90 78 -139 216 -172 142 -34 184 -49 209 -75 20 -21 22 -30 14 -52 -14 -41
-54 -65 -109 -65 -63 0 -101 27 -119 85 -5 15 -19 17 -112 17 l-106 0 7 -42
c23 -136 128 -216 296 -226 213 -12 360 99 347 262 -9 109 -72 161 -240 200
-135 32 -172 47 -193 79 -15 23 -15 28 -1 56 40 77 192 56 211 -29 l7 -30 104
0 104 0 0 26 c0 85 -65 176 -152 214 -65 29 -228 38 -293 17z"/>
<path d="M8547 1950 c-103 -26 -208 -114 -253 -213 -27 -57 -29 -71 -29 -182
0 -116 1 -123 33 -187 64 -130 179 -204 333 -215 180 -13 322 64 396 215 37
74 38 78 38 186 -1 147 -23 206 -109 292 -81 80 -145 106 -276 110 -52 2 -112
-1 -133 -6z m208 -193 c100 -56 133 -202 74 -323 -33 -68 -85 -99 -170 -99
-60 0 -71 3 -105 31 -21 16 -47 48 -58 69 -25 48 -32 144 -17 203 14 50 63
109 106 128 48 21 124 17 170 -9z"/>
<path d="M5872 1663 c3 -278 4 -290 27 -340 32 -71 104 -137 172 -157 108 -32
224 -13 297 50 l42 36 0 -46 0 -46 105 0 105 0 0 395 0 395 -105 0 -105 0 0
-246 c0 -207 -3 -251 -16 -281 -56 -117 -230 -124 -295 -10 -23 41 -24 49 -27
290 l-4 247 -99 0 -100 0 3 -287z"/>
<path d="M9055 1928 c3 -13 57 -189 119 -393 l113 -370 111 -3 111 -3 8 28 c3
15 32 129 63 252 l56 225 64 -252 64 -252 111 0 110 0 118 388 c65 213 117
390 117 395 0 4 -44 7 -98 7 l-98 0 -69 -286 -70 -286 -59 253 c-33 140 -63
269 -68 287 l-9 32 -107 0 -107 0 -64 -270 c-36 -148 -67 -274 -71 -280 -3 -5
-34 108 -69 253 -34 144 -65 270 -67 280 -5 15 -19 17 -110 17 -103 0 -104 0
-99 -22z"/>
<path d="M931 1763 c-89 -32 -171 -146 -171 -235 l0 -28 83 0 82 0 16 39 c32
76 122 92 173 30 14 -17 26 -39 26 -50 0 -17 8 -19 85 -19 l85 0 0 38 c-1 78
-65 173 -145 215 -54 27 -173 33 -234 10z"/>
</g>
</svg>
