<svg width="168" height="10" viewBox="0 0 168 10" fill="none" xmlns="http://www.w3.org/2000/svg">
<path d="M63.6099 0.261893C64.4434 0.236525 65.277 0.202701 66.1105 0.177333C66.4019 0.167468 66.6933 0.159012 66.9848 0.156194C71.5804 0.109686 76.1745 0.0716345 80.7702 0.0293549C81.6452 0.020899 82.5203 -0.00587812 83.3953 0.00116848C85.3539 0.012443 87.314 0.0575413 89.2725 0.082909C91.9096 0.116733 94.5452 0.149147 97.1824 0.178743C98.1301 0.190017 99.0786 0.199883 100.026 0.206929C100.402 0.211157 100.777 0.198473 101.152 0.212566C105.134 0.366182 109.115 0.540938 113.097 0.707238C114.942 0.78616 116.787 0.855216 118.632 0.949641C119.654 1.0046 120.676 1.08775 121.698 1.15681C125.835 1.43867 129.975 1.71067 134.113 2.00804C134.624 2.04468 135.135 2.10669 135.646 2.15743C136.668 2.25608 137.69 2.35896 138.712 2.45339C138.826 2.46607 138.94 2.47312 139.055 2.47734C141.046 2.56895 143.037 2.6521 145.027 2.74089C146.539 2.80853 148.05 2.879 149.562 2.94524L150.093 2.96215C151.201 3.00161 153.049 3.05516 154.189 3.11577C154.773 3.14677 155.359 3.13972 155.941 3.22851C156.176 3.26515 156.423 3.29193 156.63 3.48924C156.77 3.6203 156.759 4.11779 156.916 4.15443C158.168 4.44475 159.438 4.40811 160.701 4.4363C160.791 4.43912 160.861 4.27282 160.949 4.24745C161.259 4.16007 161.573 4.07128 161.887 4.1037C162.072 4.12202 162.239 4.31792 162.42 4.39825C162.502 4.43335 162.586 4.45179 162.671 4.45321C163.882 4.48985 164.64 4.43489 165.765 4.50536C165.998 4.51945 166.6 4.57582 166.892 4.6632C167.04 4.7083 167.197 4.71957 167.331 4.83655C167.55 5.03244 167.784 5.24243 167.93 5.58771C168.006 5.76811 168.037 6.12466 167.935 6.25996C166.779 7.79894 165.898 7.2042 164.471 7.13374C161.531 6.97688 158.591 6.79836 155.652 6.5982C154.766 6.53759 153.879 6.49109 152.993 6.41217C150.928 6.23036 148.865 6.01474 146.801 5.81884C143.057 5.46369 139.316 5.03808 135.571 4.75621C134.613 4.68575 133.654 4.75621 132.695 4.76044C129.1 4.7689 125.505 4.76749 121.911 4.78863C119.973 4.7999 118.035 4.83795 116.097 4.85909C114.638 4.87319 113.179 4.88728 111.721 4.89574C104.073 4.94788 96.4247 5.00003 88.7775 5.04513C87.183 5.05499 85.5886 5.03103 83.995 5.06063C83.5159 5.07049 83.0369 5.12827 82.5578 5.15505C80.1929 5.28471 77.828 5.39041 75.4639 5.52711C74.1409 5.60462 72.8188 5.71032 71.4958 5.80052C69.2882 5.95273 67.0806 6.09648 64.8714 6.25432C60.9959 6.53619 57.783 6.83073 53.8133 7.14642C51.4971 7.32963 47.8731 7.59458 45.4707 7.76088C44.9813 7.79612 44.4927 7.82571 44.0016 7.85531C41.8778 7.98497 39.7533 8.1104 37.6287 8.24287C36.962 8.28515 36.2953 8.32884 35.6287 8.37958C32.9518 8.59164 30.2757 8.83498 27.6006 9.1096C26.5475 9.21671 25.4968 9.33791 24.4453 9.45771C23.8209 9.52817 23.1918 9.53381 22.5714 9.6832C22.4357 9.71561 22.3351 9.96083 22.1986 9.99747C22.1187 10.0172 20.993 9.91714 20.8844 9.84245C20.7854 9.7748 20.672 9.57327 20.6935 9.38724C20.7167 9.20403 20.8676 9.14484 20.973 9.10678C21.3323 8.97995 21.7011 8.96303 22.066 8.89961C22.6568 8.79392 23.9878 8.59802 24.4389 8.54024C26.1667 8.31897 27.8944 8.0963 29.6238 7.90463C30.93 7.75947 35.3843 7.30567 37.5896 7.1436C41.2287 6.87865 41.5042 6.91529 45.4316 6.60242C49.0971 6.30788 52.7626 5.98937 56.4273 5.68073C57.8964 5.55812 59.4078 5.93863 60.8322 5.30726C62.0458 4.7689 58.3332 5.36363 57.0828 5.39182C52.8417 5.48624 48.6021 5.5708 44.3617 5.67791C40.6635 5.77092 36.9652 5.86817 33.267 5.98796C31.8498 6.03306 30.4326 6.11198 29.017 6.17399C27.2988 6.25291 25.579 6.32197 23.8608 6.41357C20.1323 6.61088 16.4037 6.82791 12.6751 7.03086C10.695 7.14078 8.71654 7.24648 6.73728 7.34795C5.89415 7.39305 5.05023 7.42828 4.20631 7.46634C3.76877 7.48607 3.33124 7.50298 2.89451 7.52694C2.66457 7.54103 2.43542 7.55512 2.20628 7.57204C1.91566 7.59317 1.62264 7.64814 1.33122 7.59177C1.15276 7.56038 0.975288 7.51335 0.799474 7.45083C0.733206 7.42828 0.65576 7.41983 0.611049 7.33386C0.385896 6.90402 -0.0596188 6.51505 0.0066495 5.94145C0.0745146 5.36504 0.554361 5.22552 0.875323 5.06486C1.43102 4.79145 2.01865 4.77454 2.59191 4.66038C3.72087 4.43489 5.03426 4.30523 6.15204 4.18262C8.66063 3.90754 11.1701 3.65761 13.6803 3.43286C20.2592 2.84095 27.6302 2.18702 34.2362 1.71772C41.01 1.23432 46.0687 0.952459 52.6405 0.600129C53.0988 0.576171 53.557 0.555031 54.0153 0.539529C54.6501 0.518389 55.2864 0.514161 55.9211 0.497249C58.4841 0.422555 61.047 0.343633 63.6099 0.261893ZM49.941 3.35112C52.3163 3.32857 54.6596 3.27502 57.0349 3.22146C60.8801 3.1355 64.7556 3.07912 68.6007 3.02416C72.0379 2.97624 75.4455 2.96074 78.8524 2.94524L88.981 2.90014L99.1704 2.85504C97.1392 2.84095 95.0753 2.79444 93.0434 2.78035L85.4465 2.67465C84.4772 2.66619 83.5391 2.62532 82.5706 2.64646L69.2235 2.76484C68.192 2.78739 67.1293 2.78176 66.0658 2.80712C63.8781 2.85504 61.6913 2.93396 59.5036 2.98329C57.6593 3.02557 55.8469 3.09604 54.0034 3.13831C53.5339 3.18059 53.0333 3.19046 52.5343 3.23133C51.6903 3.25106 50.8464 3.30039 49.941 3.35112Z" fill="#1E69FF"/>
</svg>
