<svg width="726" height="586" viewBox="0 0 726 586" fill="none" xmlns="http://www.w3.org/2000/svg">
<path d="M148.053 432.224C150.88 432.468 153.708 432.761 156.535 433.005C157.461 433.103 157.461 431.638 156.535 431.54C153.708 431.296 150.88 431.003 148.053 430.759C147.126 430.661 147.126 432.126 148.053 432.224Z" fill="#111314"/>
<path d="M110.272 434.568C117.292 434.568 124.312 434.568 131.332 434.568C133.233 434.568 133.233 431.638 131.332 431.638C124.312 431.638 117.292 431.638 110.272 431.638C108.419 431.638 108.419 434.568 110.272 434.568Z" fill="#111314"/>
<path d="M146.884 433.445C163.897 433.445 180.862 433.445 197.876 433.445C199.777 433.445 199.777 430.515 197.876 430.515C180.862 430.515 163.897 430.515 146.884 430.515C144.982 430.515 144.982 433.445 146.884 433.445Z" fill="#111314"/>
<path d="M194.072 433.933C202.652 433.005 209.624 439.256 214.401 445.702C218.935 451.757 222.689 458.594 228.636 463.429C234.827 468.458 242.676 469.972 250.427 470.607C260.031 471.388 269.684 471.633 279.336 471.633C290.451 471.633 301.517 471.144 312.584 470.265C314.436 470.119 314.485 467.189 312.584 467.335C293.035 468.898 273.34 469.142 253.742 467.921C245.162 467.384 236.192 466.359 229.514 460.401C223.664 455.225 220.105 448.095 215.23 442.137C210.062 435.789 202.604 430.075 193.975 431.052C192.269 431.199 192.22 434.129 194.072 433.933Z" fill="#111314"/>
<path d="M330.866 467.384C339.884 467.335 347.197 473.488 352.072 480.618C357.191 488.09 360.847 496.635 364.893 504.693C368.403 511.676 371.621 519.196 379.567 521.882C383.223 523.152 387.221 523.298 391.072 523.347C395.947 523.445 400.822 523.347 405.697 523.152C407.549 523.103 407.598 520.173 405.697 520.222C400.822 520.417 395.947 520.466 391.072 520.417C386.879 520.368 382.394 520.222 378.543 518.317C374.692 516.413 372.449 512.848 370.499 509.137C368.257 504.888 366.161 500.591 364.016 496.293C357.191 482.718 348.806 464.357 330.963 464.405C328.964 464.454 328.964 467.384 330.866 467.384Z" fill="#111314"/>
<path d="M421.199 522.273C438.359 522.273 455.568 522.273 472.728 522.273C474.629 522.273 474.629 519.343 472.728 519.343C455.568 519.343 438.359 519.343 421.199 519.343C419.347 519.343 419.347 522.273 421.199 522.273Z" fill="#111314"/>
<path d="M488.815 521.15C499.882 521.15 510.997 521.15 522.063 521.15C523.964 521.15 523.964 518.22 522.063 518.22C510.997 518.22 499.882 518.22 488.815 518.22C486.963 518.22 486.963 521.15 488.815 521.15Z" fill="#111314"/>
<path d="M511.24 532.87C544.537 532.87 577.882 532.87 611.178 532.87C613.079 532.87 613.079 529.94 611.178 529.94C577.882 529.94 544.537 529.94 511.24 529.94C509.388 529.94 509.388 532.87 511.24 532.87Z" fill="#111314"/>
<path d="M643.744 514.362C638.236 500.981 637.894 485.989 642.818 472.365C643.159 471.486 641.746 471.095 641.404 471.974C636.383 485.794 636.724 501.128 642.331 514.752C642.672 515.631 644.086 515.241 643.744 514.362Z" fill="#B2BEC3"/>
<path d="M641.209 471.583C641.355 474.318 642.574 476.808 644.622 478.615C645.353 479.25 646.377 478.176 645.645 477.59C643.842 476.027 642.769 473.976 642.672 471.583C642.623 470.655 641.16 470.655 641.209 471.583Z" fill="#B2BEC3"/>
<path d="M646.474 477.443C642.477 459.619 654.567 443.065 663 428.512C662.562 428.464 662.123 428.415 661.684 428.317C666.998 443.016 671.873 458.35 668.997 474.123C666.413 488.577 658.954 501.567 651.69 514.117C651.203 514.947 652.47 515.68 652.958 514.85C660.417 501.958 668.119 488.577 670.557 473.683C673.14 457.91 668.412 442.625 663.098 427.926C662.903 427.34 662.074 427.194 661.782 427.731C653.104 442.674 640.965 459.522 645.109 477.785C645.304 478.762 646.718 478.371 646.474 477.443Z" fill="#B2BEC3"/>
<path d="M670.46 452.441C672.166 448.339 674.019 444.334 676.115 440.428C677.09 438.572 678.114 436.765 679.235 434.958C679.674 434.226 679.917 433.298 680.892 433.249C681.526 433.2 683.086 434.372 683.671 434.665C684.5 435.105 685.231 433.835 684.402 433.396C683.232 432.81 681.234 431.149 679.869 431.735C678.26 432.419 677.236 435.496 676.407 436.912C673.629 441.795 671.24 446.825 669.046 452.001C668.705 452.929 670.119 453.271 670.46 452.441Z" fill="#B2BEC3"/>
<path d="M684.207 434.421C685.328 432.956 685.864 431.247 685.279 429.44C685.133 429.001 684.743 428.561 684.646 428.073C684.256 426.51 685.182 425.827 686.011 424.704C687.083 423.336 688.156 421.969 689.228 420.602C693.567 414.986 697.954 409.37 702.293 403.754C701.854 403.559 701.464 403.412 701.026 403.217C702.244 414.204 706.924 424.459 708.192 435.447C708.874 441.258 708.192 446.923 706.583 452.49C705.803 455.224 704.926 457.91 703.902 460.547C702.927 463.087 701.416 466.114 698.442 466.505C697.906 466.554 697.467 467.091 697.808 467.628C698.783 469.142 699.807 470.607 699.904 472.463C700.002 474.172 699.466 475.881 698.783 477.444C697.662 479.983 696.102 482.376 694.542 484.671C691.227 489.505 687.278 493.803 682.842 497.563C674.993 504.204 665.974 509.478 659.783 517.829C659.198 518.61 660.514 519.294 661.051 518.561C668.168 508.99 679.088 503.521 687.522 495.268C691.812 491.068 695.566 486.282 698.539 481.057C699.758 478.909 700.977 476.565 701.318 474.074C701.708 471.242 700.636 469.191 699.124 466.896C698.929 467.286 698.686 467.628 698.491 468.019C702.829 467.482 704.584 463.184 705.901 459.522C708.046 453.418 709.947 447.167 709.996 440.623C710.093 427.731 703.902 415.914 702.537 403.217C702.488 402.68 701.708 402.143 701.269 402.68C697.028 408.149 692.738 413.667 688.497 419.137C687.522 420.406 686.547 421.627 685.572 422.897C684.792 423.922 683.524 425.045 683.086 426.315C682.842 426.95 682.842 427.438 683.037 428.073C683.622 430.075 684.841 431.247 683.183 433.396C682.598 434.128 683.671 435.154 684.207 434.421Z" fill="#B2BEC3"/>
<path d="M698.345 423.531C692.203 455.175 672.557 481.594 659.638 510.504C659.248 511.334 660.515 512.115 660.905 511.236C673.873 482.18 693.568 455.664 699.759 423.873C699.954 422.994 698.54 422.604 698.345 423.531Z" fill="#B2BEC3"/>
<path d="M658.759 446.337C657.736 468.556 651.496 489.945 645.304 511.138C645.061 512.066 646.474 512.408 646.718 511.529C652.958 490.189 659.149 468.653 660.222 446.337C660.271 445.409 658.808 445.409 658.759 446.337Z" fill="#B2BEC3"/>
<path d="M648.717 453.466C652.276 460.938 654.129 468.995 654.129 477.297C654.129 478.225 655.591 478.225 655.591 477.297C655.542 468.751 653.641 460.449 649.985 452.734C649.595 451.903 648.327 452.636 648.717 453.466Z" fill="#B2BEC3"/>
<path d="M667.095 446.239C664.804 450.243 662.513 454.296 660.173 458.301C658.272 461.621 656.37 464.795 655.98 468.653C655.883 469.581 657.345 469.581 657.443 468.653C657.882 464.502 660.368 460.889 662.367 457.373C664.365 453.906 666.315 450.438 668.314 446.971C668.85 446.141 667.583 445.409 667.095 446.239Z" fill="#B2BEC3"/>
<path d="M688.789 420.455C689.667 431.98 690.495 443.651 688.351 455.078C688.156 456.006 689.569 456.396 689.764 455.468C691.958 443.895 691.178 432.126 690.252 420.455C690.154 419.527 688.692 419.527 688.789 420.455Z" fill="#B2BEC3"/>
<path d="M677.284 477.785C687.57 465.724 702.926 457.959 709.8 443.065C710.19 442.235 708.923 441.453 708.533 442.332C701.708 457.08 686.449 464.747 676.212 476.76C675.627 477.444 676.65 478.518 677.284 477.785Z" fill="#B2BEC3"/>
<path d="M256.815 432.028C281.97 430.319 307.125 428.61 332.28 426.95C344.857 426.12 357.435 425.24 370.012 424.41C382.395 423.58 394.972 422.115 407.404 422.604C430.95 423.531 452.01 434.91 472.924 444.627C493.789 454.296 515.531 462.061 537.859 467.628C563.111 473.976 589.046 477.541 615.079 478.371C616.005 478.42 616.005 476.955 615.079 476.906C567.791 475.392 520.796 464.649 477.652 445.165C457.567 436.082 437.775 424.801 415.594 421.822C403.504 420.211 391.316 421.48 379.226 422.262C366.649 423.092 354.071 423.971 341.494 424.801C313.267 426.706 285.041 428.61 256.815 430.514C255.889 430.612 255.889 432.077 256.815 432.028Z" fill="#B2BEC3"/>
<path d="M500.029 440.086C540.004 441.649 578.809 430.564 618.248 426.266C629.363 425.045 640.576 424.411 651.788 424.704C652.714 424.752 652.714 423.287 651.788 423.239C611.813 422.164 573.057 433.347 533.569 437.4C522.454 438.523 511.242 439.061 500.078 438.621C499.103 438.572 499.103 440.037 500.029 440.086Z" fill="#B2BEC3"/>
<path d="M487.16 465.528C509.78 472.658 533.229 477.004 556.873 478.469C557.799 478.518 557.799 477.053 556.873 477.004C533.326 475.539 510.024 471.242 487.55 464.112C486.624 463.819 486.234 465.235 487.16 465.528Z" fill="#B2BEC3"/>
<path d="M268.613 339.196C290.745 338.903 312.342 333.531 334.279 331.676C356.948 329.722 378.983 333.727 401.164 338.073C445.185 346.619 488.817 356.874 532.058 368.74C544.148 372.061 556.189 375.723 568.328 378.995C579.979 382.121 591.777 384.611 603.867 384.806C604.793 384.806 604.793 383.341 603.867 383.341C581.588 383 560.089 375.04 538.883 369.131C517.14 363.076 495.3 357.411 473.314 352.186C451.523 347.009 429.585 342.224 407.599 337.878C386.198 333.629 364.504 328.892 342.615 329.722C317.753 330.65 293.475 337.438 268.613 337.78C267.687 337.78 267.687 339.245 268.613 339.196Z" fill="#B2BEC3"/>
<path d="M506.659 348.426C545.903 363.955 588.949 362.685 630.143 357.851C641.891 356.483 653.64 354.823 665.34 353.114C666.266 352.967 665.876 351.551 664.95 351.698C623.951 357.655 581.636 363.711 540.394 356.386C528.986 354.383 517.823 351.307 507.049 347.01C506.171 346.668 505.781 348.084 506.659 348.426Z" fill="#B2BEC3"/>
<path d="M596.115 174.677C583.635 170.331 578.419 154.753 581.393 142.74C584.318 130.922 595.14 122.034 607.182 120.862C618.979 119.739 630.923 126.381 636.529 136.782C642.184 147.379 640.819 161.687 632.288 170.331C621.222 181.562 603.867 180.927 591.045 173.309C590.217 172.821 589.485 174.091 590.314 174.579C602.599 181.904 618.589 183.027 630.338 173.993C640.624 166.131 643.89 151.774 639.454 139.761C635.067 127.846 623.074 119.495 610.399 119.251C597.724 119.007 585.39 127.211 580.954 139.126C575.981 152.506 581.344 171.063 595.725 176.044C596.652 176.435 596.993 175.019 596.115 174.677Z" fill="#B2BEC3"/>
<path d="M322.433 181.025C371.963 175.458 415.01 206.37 459.567 222.387C471.803 226.782 484.332 230.103 497.251 231.568C498.177 231.666 498.177 230.201 497.251 230.103C448.745 224.731 408.721 192.745 361.628 182.197C348.758 179.316 335.498 178.095 322.385 179.609C321.507 179.658 321.507 181.123 322.433 181.025Z" fill="#B2BEC3"/>
<path d="M478.483 212.669C507.928 218.822 538.299 219.994 568.134 216.087C569.06 215.99 569.06 214.476 568.134 214.622C538.445 218.529 508.22 217.406 478.873 211.253C477.946 211.057 477.556 212.474 478.483 212.669Z" fill="#B2BEC3"/>
<path d="M162.241 268.632C220.985 284.991 280.606 301.497 341.836 303.939C359.045 304.622 376.253 304.134 393.365 302.278C394.291 302.181 394.291 300.716 393.365 300.813C332.525 307.455 271.685 295.979 212.892 280.84C196.073 276.494 179.352 271.855 162.582 267.216C161.753 266.972 161.363 268.388 162.241 268.632Z" fill="#B2BEC3"/>
<path d="M412.277 486.722C415.397 492.728 418.517 498.784 421.637 504.79C417.689 506.841 411.985 509.771 404.916 513.141C395.507 517.633 390.974 519.489 391.217 521.198C391.51 523.103 397.701 523.542 402.576 523.884C406.33 524.128 413.594 524.47 436.652 519.88C441.625 518.903 444.014 518.317 445.33 516.217C447.621 512.555 444.891 507.33 441.674 500.151C439.09 494.389 435.58 486.087 431.972 475.393C425.44 479.104 418.859 482.913 412.277 486.722Z" fill="#111314"/>
<path d="M306.198 292.463C313.511 319.126 321.408 340.71 327.892 356.679C333.254 369.815 337.886 379.826 339.836 383.928C349.293 403.901 357.532 417.965 360.945 423.971C369.72 439.256 382.297 462.501 398.043 496.489C401.797 496.977 411.06 497.661 421.102 492.777C433.631 486.722 438.993 476.076 440.456 472.902C429.39 452.441 422.028 435.056 417.397 423.043C404.771 390.423 403.162 372.159 390.195 329.723C383.857 309.017 377.617 291.486 372.498 277.959C350.463 282.843 328.331 287.628 306.198 292.463Z" fill="white" stroke="#111314" stroke-width="2" stroke-miterlimit="10"/>
<path opacity="0.09" d="M338.715 286.456C358.605 333.922 378.105 383 397.068 433.64C404.673 454.004 412.083 474.172 419.201 494.193C422.613 492.338 427.05 489.505 431.535 485.257C435.873 481.106 438.896 477.004 440.895 473.732C436.458 466.31 429.682 454.297 423.003 438.768C417.885 426.901 413.79 415.132 393.607 339.392C391.462 331.334 386.88 314.047 377.422 292.463C374.838 286.554 372.547 281.817 371.036 278.79C360.311 281.329 349.537 283.868 338.715 286.456Z" fill="#111314"/>
<path opacity="0.22" d="M362.163 280.89C370.499 302.327 378.641 324.84 386.441 348.28C402.918 398.09 415.544 445.556 425.197 489.896C427.488 488.48 430.169 486.576 432.851 483.939C436.751 480.13 439.334 476.223 440.943 473.293C432.168 457.422 426.123 443.895 422.223 434.47C407.501 399.017 398.969 363.418 394.094 343.201C393.314 339.978 392.876 338.025 391.949 334.655C386.977 316.538 382.346 309.506 376.203 290.266C375.423 287.775 374.156 283.771 372.791 278.741C369.232 279.473 365.722 280.157 362.163 280.89Z" fill="#111314"/>
<path d="M303.03 437.498C307.369 443.065 311.708 448.632 316.046 454.248C291.33 462.794 285.578 466.701 285.968 468.654C286.943 473.147 321.311 465.333 336.083 467.336C337.253 467.482 341.006 468.068 342.761 466.017C344.273 464.21 343.59 461.231 343.103 459.669C335.4 447.949 327.746 436.229 320.044 424.509C314.389 428.806 308.685 433.152 303.03 437.498Z" fill="#111314"/>
<path d="M378.008 293.586C381.225 302.132 391.121 331.237 376.643 351.356C375.229 353.358 370.988 358.828 352.658 368.985C334.376 379.094 317.655 385.295 304.639 389.153C308.588 395.892 313.511 403.364 319.654 411.079C324.48 417.135 329.258 422.409 333.791 426.95C324.383 435.105 314.925 443.261 305.516 451.416C296.79 447.46 282.311 439.5 269.49 424.362C261.203 414.595 251.404 402.973 251.501 387.835C251.599 373.771 260.276 364.395 276.364 347.059C287.284 335.29 305.078 316.538 335.546 304.134C352.511 297.2 367.673 294.612 378.008 293.586Z" fill="white" stroke="#111314" stroke-width="2" stroke-miterlimit="10"/>
<path opacity="0.17" d="M344.223 300.96C346.173 305.306 348.416 312.192 347.636 320.396C346.612 331.286 340.664 339.685 330.622 349.696C320.726 359.56 302.932 374.845 274.511 388.518C289.136 405.219 303.761 421.872 318.386 438.573C323.358 434.959 328.379 431.296 333.352 427.683C328.721 422.799 323.894 417.281 319.068 410.982C313.267 403.461 308.441 396.234 304.443 389.544C318.873 384.807 330.671 379.924 339.446 375.919C339.446 375.919 350.122 371.085 363.577 362.637C369.573 358.877 373.424 356.093 376.837 351.405C380.883 345.838 382.248 340.564 382.979 337.781C387.708 319.37 379.079 298.274 377.178 293.831C371.718 294.026 365.137 294.758 357.776 296.565C352.657 297.786 348.074 299.349 344.223 300.96Z" fill="#111314"/>
<path opacity="0.22" d="M381.957 337.048C373.279 344.324 363.432 351.845 352.365 359.17C332.183 372.599 312.878 382.365 295.913 389.495C306.248 403.461 316.534 417.428 326.869 431.394C329.014 429.929 331.159 428.464 333.353 426.95C328.283 421.334 323.018 414.986 317.704 407.856C312.78 401.215 308.49 394.818 304.785 388.763C308.88 387.688 314.535 386.028 321.117 383.635C335.449 378.41 345.053 372.941 355.437 366.934C370.062 358.486 373.23 355.116 375.473 351.942C379.422 346.522 381.128 340.906 381.957 337.048Z" fill="#111314"/>
<path d="M353.583 174.872C346.368 171.893 337.886 185.616 337.106 186.885C334.23 191.671 333.547 195.138 330.866 204.416C324.285 227.124 320.872 238.6 314.388 244.557C308.587 249.88 302.493 250.124 300.885 250.076C294.06 250.027 288.453 245.29 277.485 235.767C268.271 227.759 267.296 225.317 261.982 223.315C259.252 222.289 251.355 219.262 245.163 225.171C241.215 228.931 238.826 235.865 239.898 237.623C241.263 239.869 248.625 234.547 248.673 234.742C248.722 234.84 246.577 235.719 244.578 238.111C243.603 239.283 241.897 241.823 242.287 242.702C243.018 244.411 249.551 236.549 255.401 239.479C259.398 241.481 259.593 246.755 264.225 248.806C266.955 250.027 269.538 249.343 271.196 248.708C273.438 253.396 277.192 260.135 283.042 266.239C286.503 269.902 298.837 282.403 315.997 280.548C334.132 278.545 345.198 261.747 348.611 256.57C350.561 253.592 364.942 231.031 362.797 201.633C362.456 196.896 361.042 177.998 353.583 174.872Z" fill="white" stroke="#111314" stroke-width="2" stroke-miterlimit="10"/>
<path opacity="0.25" d="M352.754 174.872C350.024 176.093 353.437 189.815 350.658 207.737C348.026 224.975 341.103 236.598 337.983 241.872C333.791 249.001 328.282 258.28 318.873 263.017C306.247 269.414 292.109 264.921 282.652 256.522C279.824 254.031 277.436 247.488 271.147 242.409C268.417 240.211 266.174 239.039 263.591 237.721C257.253 234.498 251.549 231.568 245.748 234.107C242.969 235.328 240.483 237.623 240.629 238.063C240.776 238.502 243.993 237.037 246.869 235.67C243.018 240.749 242.287 242.311 242.482 242.702C242.677 243.093 243.847 242.067 246.577 240.7C249.502 239.235 251.598 238.258 253.938 239.088C255.157 239.528 255.986 240.26 256.522 240.7C258.472 242.458 258.813 244.069 260.763 246.071C261.982 247.292 263.054 247.878 263.591 248.171C264.761 248.806 267.295 249.88 270.854 249.001C273.292 253.934 284.651 275.86 304.589 279.864C314.827 281.915 322.968 278.399 326.186 276.934C343.784 268.925 352.657 249.88 354.997 244.606C362.163 228.247 366.989 202.707 359.628 184.297C357.873 179.853 354.656 174.042 352.754 174.872Z" fill="#111314"/>
<path opacity="0.29" d="M361.627 196.554C360.408 201.828 358.41 209.397 355.485 218.139C349.683 235.474 344.467 251.052 334.278 262.089C321.701 275.762 306.637 276.885 298.155 276.348C304.102 279.717 309.026 280.45 312.195 280.499C336.082 281.231 352.755 249.587 357.922 235.328C358.848 232.789 360.701 227.563 361.773 220.092C363.236 210.13 362.407 201.633 361.627 196.554Z" fill="#111314"/>
<path d="M303.717 217.217L303.717 217.216C306.751 202.364 308.617 193.384 316.19 185.324C323.833 177.192 333.842 173.692 342.684 172.308C351.389 170.945 358.879 171.648 361.686 171.946C380.277 178.983 387.619 188.696 390.913 195.153L390.913 195.154C393.689 200.576 394.101 209.196 392.764 222.704C391.59 234.574 389.095 250.016 385.859 270.04C385.428 272.708 384.984 275.456 384.528 278.288C383.188 286.435 382.037 293.167 381.212 297.794C378.44 301.171 367.541 313.414 348.808 316.183C328.07 319.204 312.942 308.326 309.664 305.8C307.732 298.359 305.208 287.394 303.485 273.926C301.39 257.524 299.171 239.308 303.717 217.217Z" fill="#F7FAFC" stroke="#111314" stroke-width="2"/>
<path opacity="0.19" d="M317.167 182.979C332.621 188.692 340.274 197.14 343.882 202.121C363.869 229.614 351.584 270.341 337.203 293C331.402 302.132 325.064 308.676 320.433 312.875C324.723 314.926 335.692 319.419 349.683 317.319C368.501 314.438 379.274 301.595 381.761 298.469C383.759 278.741 386.831 263.261 389.414 252.566C391.657 243.19 392.681 234.742 394.777 217.846C395.508 211.888 396.386 204.172 392.534 196.115C390.341 191.524 387.464 188.546 385.319 186.348C382.102 183.076 375.618 177.509 365.039 174.091C360.067 172.87 351.536 171.503 341.103 173.261C329.647 175.165 321.457 180 317.167 182.979Z" fill="#111314"/>
<path opacity="0.18" d="M390.633 190.938C389.756 190.987 391.608 204.514 388.732 223.168C383.418 257.693 366.356 281.622 359.775 290.119C354.266 297.2 345.637 306.966 333.011 316.586C337.545 317.27 343.59 317.563 350.512 316.245C366.941 313.168 377.373 303.06 381.371 298.713C382.395 292.756 384.052 283.429 386.148 271.904C391.072 244.948 392.047 241.725 392.827 233.326C394.972 210.423 391.657 190.938 390.633 190.938Z" fill="#111314"/>
<path d="M383.711 184.786C374.644 181.807 364.065 195.48 363.09 196.75C359.482 201.487 358.605 204.954 355.241 214.183C347.002 236.793 342.761 248.22 334.62 254.129C327.356 259.452 319.751 259.647 317.704 259.647C309.172 259.598 302.152 254.861 288.454 245.388C276.9 237.428 275.73 234.986 269.1 232.984C265.687 231.959 255.84 228.98 248.089 234.84C243.165 238.6 240.142 245.485 241.507 247.243C243.214 249.49 252.427 244.216 252.476 244.362C252.525 244.46 249.844 245.29 247.357 247.683C246.139 248.855 243.994 251.345 244.481 252.273C245.407 253.982 253.597 246.169 260.91 249.05C265.882 251.052 266.175 256.278 271.976 258.329C275.389 259.549 278.655 258.866 280.702 258.231C283.53 262.87 288.21 269.609 295.522 275.664C299.861 279.278 315.315 291.779 336.716 289.924C359.434 287.97 373.23 271.221 377.52 266.044C380.006 263.065 397.995 240.602 395.265 211.4C394.826 206.663 393.071 187.862 383.711 184.786Z" fill="white" stroke="#111314" stroke-width="2" stroke-miterlimit="10"/>
<path opacity="0.25" d="M382.736 184.737C379.323 185.957 383.613 199.582 380.152 217.455C376.837 234.595 368.208 246.169 364.259 251.394C358.994 258.475 352.121 267.704 340.323 272.441C324.528 278.79 306.832 274.297 294.986 265.995C291.476 263.505 288.502 257.01 280.604 251.931C277.192 249.734 274.413 248.611 271.147 247.292C263.201 244.069 256.083 241.188 248.819 243.727C245.309 244.948 242.238 247.243 242.384 247.634C242.531 248.073 246.577 246.608 250.184 245.241C245.358 250.32 244.432 251.882 244.676 252.273C244.968 252.664 246.382 251.638 249.794 250.271C253.451 248.806 256.083 247.829 259.008 248.659C260.519 249.099 261.592 249.831 262.226 250.271C264.712 251.98 265.102 253.64 267.539 255.594C269.051 256.815 270.416 257.401 271.098 257.694C272.561 258.328 275.778 259.403 280.214 258.524C283.286 263.456 297.472 285.236 322.432 289.24C335.253 291.291 345.393 287.775 349.439 286.31C371.474 278.35 382.589 259.403 385.466 254.129C394.387 237.819 400.481 212.425 391.267 194.113C389.122 189.718 385.076 183.906 382.736 184.737Z" fill="#111314"/>
<path opacity="0.29" d="M393.851 206.321C392.291 211.546 389.853 219.116 386.197 227.808C378.933 245.046 372.401 260.575 359.677 271.563C343.931 285.138 325.113 286.261 314.486 285.724C321.944 289.094 328.087 289.777 332.036 289.875C361.919 290.559 382.784 259.11 389.268 244.9C390.438 242.409 392.778 237.184 394.094 229.761C395.849 219.799 394.826 211.4 393.851 206.321Z" fill="#111314"/>
<path d="M245.797 176.777C236.291 205.198 235.998 228.98 237.022 243.483C239.606 281.622 254.718 309.75 263.737 326.109C270.026 337.536 276.266 346.619 280.994 352.968C282.603 353.114 284.261 353.212 285.869 353.358C286.357 347.108 287.137 338.562 288.502 328.551C289.477 321.275 293.572 292.365 305.126 255.106C311.024 236.012 319.507 212.767 331.743 187.178C326.429 185.665 321.067 184.2 315.753 182.686C311.804 198.557 302.201 207.493 296.789 206.223C291.622 205.003 287.332 193.869 289.184 179.56C285.869 179.023 282.506 178.486 279.191 177.949C273.146 192.257 264.614 200.119 260.129 198.605C256.083 197.238 254.328 187.911 255.547 176.875C252.329 176.826 249.063 176.777 245.797 176.777Z" fill="#111314" stroke="#111314" stroke-width="2" stroke-miterlimit="10"/>
<path d="M242.726 176.63C237.461 190.841 231.026 213.988 232.391 242.653C232.976 254.666 235.95 289.631 259.106 325.279C266.955 337.39 275.145 346.424 281.287 352.528C281.775 346.277 282.555 337.732 283.92 327.721C284.895 320.445 288.99 291.535 300.544 254.275C306.442 235.182 314.925 211.937 327.161 186.348C322.53 184.737 317.947 183.125 313.316 181.514C308.734 198.166 298.057 207.005 292.207 205.442C286.796 203.977 282.75 192.697 284.602 178.779C281.385 178.437 278.167 178.095 274.901 177.754C268.954 191.964 260.179 199.436 255.547 197.873C251.452 196.457 249.6 187.52 250.721 177.07C248.04 176.875 245.359 176.777 242.726 176.63Z" fill="white" stroke="#111314" stroke-width="2" stroke-miterlimit="10"/>
<path d="M255.742 240.602C256.571 235.816 260.324 231.861 265.102 230.933C272.317 229.566 274.511 237.916 273.974 243.581C273.877 244.509 275.339 244.509 275.437 243.581C276.071 237.623 273.682 228.833 266.272 229.322C260.373 229.712 255.352 234.449 254.328 240.26C254.133 241.139 255.547 241.53 255.742 240.602Z" fill="#111314"/>
<path d="M254.036 241.53C261.104 241.627 268.027 242.653 274.803 244.704C275.729 244.997 276.071 243.581 275.193 243.288C268.319 241.188 261.251 240.114 254.036 240.065C253.061 240.065 253.061 241.53 254.036 241.53Z" fill="#111314"/>
<path d="M252.672 240.993C250.965 246.413 250.234 251.931 250.38 257.596C250.429 258.524 251.892 258.524 251.843 257.596C251.648 252.078 252.428 246.657 254.037 241.383C254.378 240.504 252.964 240.114 252.672 240.993Z" fill="#111314"/>
<path d="M250.721 258.866C257.692 262.089 265.297 263.358 272.951 262.382C273.877 262.284 273.877 260.819 272.951 260.917C265.589 261.845 258.228 260.77 251.452 257.645C250.623 257.205 249.892 258.475 250.721 258.866Z" fill="#111314"/>
<path d="M274.365 244.606C274.365 250.222 273.926 255.789 272.951 261.356C272.805 262.284 274.219 262.675 274.365 261.747C275.34 256.082 275.827 250.369 275.827 244.606C275.827 243.678 274.365 243.678 274.365 244.606Z" fill="#111314"/>
<path d="M262.421 249.392C262.08 249.05 262.762 248.025 263.201 248.22C263.64 248.415 263.445 249.49 262.957 249.245C262.86 249.197 262.86 249.05 262.811 249.05C262.909 249.099 262.909 249.05 262.86 249.05C262.762 249.099 262.762 249.245 262.616 249.294C262.031 249.538 262.324 248.415 262.567 248.415C262.811 248.415 262.909 249.538 262.714 249.636C262.47 249.685 262.226 249.148 262.226 249.001C262.177 248.757 262.226 248.513 262.421 248.366C262.909 247.976 263.299 248.415 263.396 248.904C263.445 249.148 263.396 249.49 263.25 249.685C263.201 249.734 262.957 249.783 262.909 249.734C262.616 248.855 261.202 249.245 261.495 250.124C262.08 251.785 264.274 251.394 264.761 249.88C265.249 248.318 264.127 246.511 262.372 246.853C260.764 247.194 260.325 249.148 261.3 250.369C261.836 251.003 262.762 251.394 263.494 250.906C264.176 250.466 264.322 249.587 264.274 248.855C264.176 248.025 263.737 247.194 262.86 246.999C261.982 246.804 261.3 247.487 261.007 248.269C260.715 249.001 260.812 249.88 261.397 250.417C261.934 250.906 262.811 250.906 263.396 250.564C264.127 250.173 264.566 249.245 264.225 248.464C263.932 247.78 263.104 247.439 262.372 247.683C261.592 247.927 261.251 248.806 261.446 249.538C261.641 250.32 262.421 250.808 263.25 250.759C265.249 250.564 265.541 247.536 263.689 246.853C261.787 246.169 260.032 249.05 261.446 250.466C262.08 251.052 263.104 250.027 262.421 249.392Z" fill="#111314"/>
<path d="M262.031 249.685C261.739 251.345 261.398 253.006 261.105 254.666C260.91 255.594 262.324 255.985 262.519 255.057C262.811 253.396 263.153 251.736 263.445 250.076C263.591 249.148 262.178 248.757 262.031 249.685Z" fill="#111314"/>
<path d="M261.495 249.587C261.154 251.345 260.959 253.103 260.959 254.861C260.959 255.789 262.421 255.789 262.421 254.861C262.421 253.201 262.568 251.59 262.909 249.978C263.104 249.05 261.69 248.66 261.495 249.587Z" fill="#111314"/>
<path d="M262.811 249.587C262.324 251.297 261.788 252.957 261.3 254.666C261.056 255.594 262.421 255.936 262.714 255.057C263.201 253.348 263.738 251.687 264.225 249.978C264.469 249.05 263.055 248.66 262.811 249.587Z" fill="#111314"/>
<path d="M262.421 248.855C263.348 248.855 263.348 247.39 262.421 247.39C261.495 247.39 261.495 248.855 262.421 248.855Z" fill="#111314"/>
<path d="M281.921 180.683C281.141 187.325 282.116 193.868 284.699 200.021C284.894 200.461 285.528 200.07 285.333 199.631C282.798 193.624 281.872 187.129 282.652 180.635C282.701 180.195 281.969 180.195 281.921 180.683Z" fill="#111314"/>
<path d="M247.26 179.756C246.87 185.323 247.601 190.792 249.503 196.066C249.649 196.506 250.38 196.31 250.185 195.871C248.284 190.694 247.553 185.274 247.943 179.756C248.04 179.267 247.309 179.267 247.26 179.756Z" fill="#111314"/>
<path d="M316.144 185.225C317.997 186.299 319.898 187.227 321.897 188.008C322.335 188.204 322.53 187.471 322.092 187.325C320.19 186.543 318.338 185.664 316.534 184.639C316.095 184.346 315.705 184.981 316.144 185.225Z" fill="#111314"/>
<path d="M313.521 116.419C313.472 116.516 311.766 119.397 308.402 125.209C304.502 131.899 302.893 134.682 301.285 138.638C300.163 141.421 299.432 143.716 298.993 145.279C301.138 146.158 303.283 147.037 305.428 147.916C306.013 152.702 307.427 156.364 308.548 158.659C310.352 162.371 312.936 167.791 318.786 170.428C319.663 170.819 322.296 171.942 325.903 171.942C330.388 171.942 333.703 170.184 335.166 169.305C335.458 171.161 336.043 173.505 337.164 176.093C338.091 178.29 339.163 180.048 340.138 181.416C344.721 179.658 349.303 177.9 353.837 176.093C352.569 174.188 350.912 171.161 349.888 167.156C349.547 165.789 348.767 162.371 349.059 157.536C349.401 151.627 351.058 148.551 352.862 142.984C355.641 134.292 357.298 129.213 356.518 123.792C355.494 116.76 350.229 108.654 342.137 105.724C330.534 101.476 318.493 109.728 313.521 116.419Z" fill="white"/>
<path d="M305.429 122.083C302.407 120.911 301.724 114.954 302.309 110.998C302.504 109.68 303.235 105.773 306.794 101.866C311.62 96.5436 316.739 96.5925 324.149 93.4183C328.244 91.6603 334.094 88.4861 340.334 82.3331C339.408 85.1166 338.482 87.8513 337.507 90.6348C338.92 90.7325 342.43 90.879 346.087 88.828C350.62 86.3375 352.375 82.2355 352.863 81.0635C353.643 82.2843 356.86 87.6071 355.154 93.6625C354.667 95.3716 353.887 96.739 353.155 97.8133C355.69 97.1296 359.249 95.8111 362.272 92.8323C365.587 89.5605 366.025 86.5816 367.39 86.7281C370.023 86.9723 370.998 97.7156 371.534 103.624C371.875 107.531 372.412 110.266 371.388 113.538C370.462 116.565 368.707 118.86 368.902 119.007C369.243 119.202 374.167 111.096 375.532 111.731C376.36 112.121 374.898 115.247 374.362 121.156C373.728 128.383 375.19 129.75 373.874 134.878C373.094 137.857 371.973 139.956 370.754 142.349C369.243 145.133 367.39 148.649 363.978 151.774C360.809 154.704 356.909 158.269 352.083 157.585C345.794 156.657 342.869 149.186 342.674 148.649C343.21 148.649 348.037 148.405 350.425 144.693C353.448 139.956 350.425 132.924 346.964 131.752C344.429 130.873 342.43 133.462 340.042 132.241C338.092 131.264 337.848 128.871 337.068 126.625C336.044 123.646 333.802 119.691 328.293 115.686C324.832 115.54 319.713 115.833 314.399 118.323C309.719 120.423 307.72 122.962 305.429 122.083Z" fill="#0010F7"/>
<path d="M304.99 130.434C302.455 134.341 300.359 138.491 298.896 142.935C298.555 143.961 297.97 145.035 298.701 145.914C299.237 146.549 300.554 146.744 301.285 147.037C302.504 147.477 303.722 147.965 304.941 148.405C305.819 148.746 306.209 147.33 305.331 146.988C304.502 146.695 303.722 146.402 302.894 146.061C302.406 145.865 300.797 145.523 300.456 145.133C299.432 144.107 300.895 141.568 301.334 140.494C302.65 137.222 304.307 134.145 306.257 131.166C306.794 130.385 305.526 129.653 304.99 130.434Z" fill="#111314"/>
<path d="M304.648 147.867C307.329 157.243 310.693 167.694 320.248 172.137C321.077 172.528 321.857 171.258 320.979 170.868C311.814 166.57 308.645 156.511 306.062 147.477C305.769 146.549 304.355 146.939 304.648 147.867Z" fill="#111314"/>
<path d="M320.493 172.284C329.024 174.189 338.579 169.598 344.283 163.494C344.917 162.81 343.893 161.785 343.259 162.469C337.897 168.182 328.878 172.675 320.883 170.868C319.957 170.624 319.567 172.04 320.493 172.284Z" fill="#111314"/>
<path d="M334.484 169.647C335.069 173.945 336.629 177.802 339.31 181.221C339.895 181.953 340.919 180.928 340.334 180.195C337.945 177.119 336.483 173.505 335.947 169.647C335.849 168.719 334.387 168.719 334.484 169.647Z" fill="#111314"/>
<path d="M348.426 163.347C348.719 168.182 350.474 172.577 353.594 176.288C354.179 177.021 355.251 175.946 354.617 175.263C351.741 171.844 350.132 167.791 349.84 163.347C349.791 162.42 348.329 162.42 348.426 163.347Z" fill="#111314"/>
<path d="M341.211 134.145C342.625 131.996 345.306 131.703 347.403 133.071C349.304 134.292 350.23 136.636 350.376 138.784C350.62 142.251 348.378 149.283 343.503 147.184C342.625 146.793 341.894 148.063 342.771 148.453C349.109 151.188 352.473 142.837 351.741 137.808C351.303 134.926 349.645 132.094 346.769 131.117C344.185 130.19 341.504 131.166 339.993 133.413C339.408 134.194 340.675 134.926 341.211 134.145Z" fill="#111314"/>
<path d="M335.799 171.6C338.627 169.794 341.064 167.596 343.161 165.008C343.746 164.275 342.722 163.25 342.137 163.982C340.138 166.473 337.749 168.622 335.068 170.38C334.288 170.868 335.019 172.138 335.799 171.6Z" fill="#111314"/>
<path d="M309.134 157.536C312.497 157.829 315.861 156.608 318.201 154.118C319.712 152.458 320.297 149.674 317.226 149.772C316.446 149.821 316.202 150.993 317.031 151.188C318.152 151.481 319.079 151.92 320.005 152.702C320.736 153.288 321.76 152.262 321.029 151.676C319.907 150.748 318.835 150.162 317.421 149.821C317.372 150.309 317.275 150.797 317.226 151.237C318.884 151.188 316.69 153.581 316.495 153.776C315.715 154.46 314.886 154.948 313.96 155.339C312.4 156.022 310.84 156.218 309.134 156.071C308.207 156.022 308.207 157.487 309.134 157.536Z" fill="#111314"/>
<path d="M315.568 135.464C314.74 133.999 314.447 132.387 314.837 130.776C314.496 130.922 314.106 131.069 313.765 131.215C315.081 132.241 314.788 134.145 314.593 135.561C315.032 135.513 315.471 135.464 315.91 135.366C315.325 134.536 315.032 133.657 315.032 132.631C315.032 131.704 313.57 131.704 313.57 132.631C313.57 133.901 313.911 135.073 314.642 136.099C314.983 136.538 315.861 136.587 315.958 135.903C316.3 133.706 316.397 131.411 314.447 129.897C314.057 129.604 313.472 129.897 313.375 130.336C312.887 132.338 313.18 134.389 314.252 136.147C314.788 137.026 316.056 136.294 315.568 135.464Z" fill="#111314"/>
<path d="M312.643 125.111C315.032 122.279 318.493 124.427 319.76 127.113C320.15 127.943 321.418 127.211 321.028 126.381C319.37 122.865 314.593 120.618 311.619 124.086C310.985 124.818 312.009 125.844 312.643 125.111Z" fill="#111314"/>
<path opacity="0.07" d="M336.142 124.281C336.337 125.404 336.58 127.162 336.97 129.213C338.043 135.024 338.969 138.345 339.31 139.908C340.578 145.865 338.92 155.046 332.875 161.052C326.197 167.645 317.08 167.498 314.789 167.401C315.813 168.622 317.422 170.184 319.762 171.21C326.879 174.335 334.094 169.794 334.874 169.256C334.777 172.431 335.459 173.505 336.142 173.847C338.238 174.775 342.918 170.428 344.965 165.74C347.159 160.662 346.038 155.778 345.453 153.776C342.723 150.016 342.577 148.698 342.967 148.258C343.552 147.623 345.16 148.795 346.964 148.16C348.865 147.428 349.645 145.133 350.133 143.717C350.767 141.812 352.473 136.636 349.304 133.608C347.305 131.704 344.039 131.362 340.968 132.436C340.334 132.338 339.505 132.046 338.872 131.362C338.043 130.483 338.043 129.457 337.604 127.699C337.312 126.82 336.922 125.648 336.142 124.281Z" fill="#111314"/>
<path opacity="0.1" d="M342.967 157.293C342.577 161.492 341.553 164.911 340.627 167.401C342.333 166.913 344.088 166.376 345.794 165.887C347.257 169.745 348.67 173.652 350.133 177.51C351.205 176.972 352.229 176.435 353.302 175.849C352.083 173.115 350.864 169.745 349.889 165.838C349.06 162.518 348.622 159.441 348.378 156.804C347.549 155.974 346.574 154.949 345.697 153.63C344.185 151.433 343.308 149.382 342.772 147.77C343.064 150.261 343.308 153.532 342.967 157.293Z" fill="#111314"/>
<path opacity="0.13" d="M370.558 96.0552C369.876 96.0552 370.314 102.794 367.438 110.998C366.219 114.465 363.977 120.618 358.224 125.795C354.129 129.457 349.888 131.264 347.207 132.143C347.938 132.582 349.108 133.413 349.986 134.829C352.131 138.247 350.766 142.105 350.376 143.228C349.839 144.791 349.108 146.842 347.061 147.916C345.159 148.893 343.209 148.502 342.527 148.307C342.673 148.746 345.744 156.853 352.131 157.536C354.812 157.829 357.006 156.657 358.663 155.778C363.002 153.532 365.196 150.162 367.877 146.012C371.436 140.493 373.922 136.587 374.263 131.069C374.507 126.722 373.191 125.599 374.117 121.448C374.41 120.13 375.189 117.493 375.043 113.83C374.994 113.049 374.946 112.414 374.897 111.975C372.898 114.27 370.899 116.614 368.901 118.909C369.583 117.591 370.461 115.54 371.046 112.903C371.679 110.022 371.582 107.775 371.436 104.064C371.387 101.964 371.192 96.0552 370.558 96.0552Z" fill="#111314"/>
<path d="M69.7611 532.088C69.9073 531.306 72.5886 530.965 73.1736 530.769C74.7336 530.281 76.2448 529.695 77.6586 528.865C80.7298 527.058 83.1673 524.421 84.8248 521.296C85.8973 519.245 86.6285 517.047 87.0185 514.801C87.311 513.287 87.4573 511.773 87.116 510.259C86.726 508.159 85.3123 506.646 84.6298 504.692C83.2161 500.737 85.2148 496.488 88.0423 493.754C91.2598 490.628 95.7448 489.456 100.035 488.675C107.932 487.259 115.732 486.38 123.045 482.766C126.36 481.106 129.382 479.006 132.015 476.418C134.94 473.488 137.524 469.63 141.716 468.507C143.422 468.018 146.981 467.823 148.054 469.728C148.054 470.314 148.054 470.851 148.054 471.437C148.59 472.658 148.249 473.39 147.127 473.537C146.835 473.634 146.542 473.683 146.25 473.781C145.519 474.025 144.739 474.171 144.056 474.513C141.229 475.881 139.717 478.762 137.962 481.155C128.115 494.73 105.982 484.573 97.0123 499.272C95.0623 502.495 94.7698 505.913 95.9886 509.478C96.9148 512.164 97.4998 514.605 96.8173 517.487C96.1836 520.172 94.7211 522.565 93.0636 524.714C90.5286 528.035 87.2136 530.916 83.5573 532.918C81.2173 534.188 78.5848 534.676 75.9523 534.432C74.5386 534.334 70.0536 533.797 69.7123 531.844C69.6148 531.16 68.5423 531.453 68.6398 532.137C69.0298 534.481 73.2711 535.164 75.0748 535.408C79.2186 535.946 82.8261 534.822 86.1898 532.527C92.3323 528.376 99.1086 521.247 98.1336 513.189C97.8898 511.138 96.8661 509.283 96.4273 507.28C95.8423 504.546 96.6223 501.811 98.1336 499.516C100.961 495.121 105.787 492.972 110.76 491.947C118.999 490.189 128.407 490.97 135.379 485.501C138.596 483.01 140.01 479.006 143.081 476.467C144.982 474.904 149.906 475.002 150.052 471.73C150.199 468.751 146.591 467.139 144.154 467.091C140.4 466.993 137.329 469.288 134.794 471.876C131.43 475.295 128.456 478.566 124.215 480.959C120.022 483.303 115.391 484.817 110.711 485.843C102.57 487.649 92.2836 487.161 86.3361 494.047C83.9961 496.781 82.4848 500.493 83.3136 504.106C83.8498 506.45 85.6536 508.208 86.0923 510.601C86.5311 512.799 85.9461 515.191 85.3123 517.34C83.8986 522.028 80.7298 526.179 76.3423 528.425C74.3436 529.451 72.2473 529.793 70.1998 530.574C69.5173 530.818 68.7861 531.111 68.6886 531.892C68.5911 532.478 69.6636 532.771 69.7611 532.088Z" fill="#B2BEC3"/>
<path d="M70.054 531.356C70.0052 531.307 69.9565 531.209 69.9565 531.16C69.8102 530.867 69.3227 530.77 69.079 531.063C67.0315 533.553 71.5165 537.313 74.0027 535.848C75.2215 535.116 75.2215 533.455 74.539 532.332C73.8565 531.209 72.199 529.695 70.834 530.574C70.249 530.965 70.7852 531.893 71.3702 531.502C72.589 530.721 75.3677 534.481 73.0277 535.018C71.7602 535.311 68.6402 533.26 69.8102 531.844C69.5177 531.795 69.2252 531.746 68.9327 531.746C68.9815 531.795 69.0302 531.893 69.0302 531.942C69.469 532.479 70.3952 531.942 70.054 531.356Z" fill="#B2BEC3"/>
<path d="M70.4928 533.065C70.3465 532.674 70.2978 532.332 70.444 531.892C70.1028 531.941 69.7615 531.99 69.4203 532.039C69.664 532.625 69.664 533.211 69.469 533.797C69.8103 533.846 70.2003 533.895 70.5415 533.943C70.5415 533.699 70.639 532.185 70.9803 532.185C70.834 532.137 70.7365 532.088 70.5903 532.039C70.7853 532.283 70.7853 533.016 70.7853 533.26C70.7853 533.748 70.7365 534.236 70.5903 534.725C70.9315 534.725 71.2728 534.725 71.6628 534.725C71.5165 534.285 71.419 533.895 71.4678 533.455C71.4678 533.26 71.5165 533.016 71.5653 532.82C71.5653 532.723 71.614 532.625 71.6628 532.527C71.809 532.381 71.7603 532.283 71.5165 532.234C71.4678 532.332 71.614 532.674 71.6628 532.82C71.7115 533.065 71.7115 533.309 71.7115 533.553C71.7115 534.09 71.6628 534.627 71.5653 535.116C71.9065 535.067 72.2478 535.018 72.589 534.969C72.3453 534.529 72.2478 534.09 72.199 533.602C72.199 533.455 72.394 532.381 72.3453 532.332C72.4915 532.381 72.5403 533.357 72.5403 533.455C72.589 533.992 72.5403 534.481 72.2965 534.969C72.589 534.969 72.9303 534.969 73.2228 534.969C73.0278 534.676 72.8815 534.432 72.8328 534.09C72.8328 533.992 72.9303 532.918 72.979 532.967C73.0765 533.016 73.1253 533.748 73.1253 533.846C73.174 534.188 73.174 534.578 72.9303 534.871C73.174 534.871 73.4665 534.871 73.7103 534.871C73.5153 534.627 73.174 533.748 73.564 533.504C73.4178 533.602 73.4665 533.797 73.4178 533.943C73.3203 534.236 73.2228 534.383 73.0278 534.627C72.4915 535.116 73.2715 535.897 73.8078 535.409C74.344 534.92 74.6365 534.188 74.539 533.455C74.4415 532.918 74.149 532.332 73.5153 532.332C72.8328 532.381 72.4915 533.064 72.394 533.699C72.2965 534.432 72.5403 535.067 72.979 535.653C73.174 535.848 73.564 535.848 73.759 535.653C74.4415 534.774 74.6853 531.941 73.1253 531.795C72.3453 531.697 71.9553 532.527 71.8578 533.162C71.7115 533.992 71.9065 534.823 72.3453 535.506C72.589 535.848 73.0765 535.897 73.2715 535.506C73.7103 534.676 73.759 533.846 73.6128 532.918C73.5153 532.234 73.4178 531.258 72.5403 531.209C71.7115 531.16 71.3215 532.088 71.224 532.771C71.0778 533.699 71.2728 534.627 71.7115 535.457C71.9065 535.848 72.6378 535.799 72.7353 535.311C72.9303 534.334 72.979 533.406 72.8328 532.43C72.7353 531.844 72.5403 531.062 71.8578 531.062C70.249 531.062 70.444 534.041 70.7853 534.969C70.9315 535.457 71.7115 535.506 71.8578 534.969C72.0528 534.236 72.1503 533.455 72.0528 532.674C72.004 532.137 71.9553 531.355 71.419 531.111C70.054 530.476 69.664 533.113 69.664 533.895C69.664 534.53 70.5415 534.627 70.7365 534.041C71.029 533.113 70.9315 532.283 70.5415 531.404C70.3465 530.965 69.664 531.111 69.5178 531.551C69.3715 532.137 69.3715 532.723 69.5665 533.309C69.664 533.992 70.7365 533.748 70.4928 533.065Z" fill="#B2BEC3"/>
<path d="M74.2463 534.774C74.2463 534.774 74.2463 534.725 74.2463 534.774C74.0025 534.579 73.6613 534.53 73.4663 534.725L73.4175 534.774C73.125 535.116 73.2713 535.555 73.6613 535.702C74.5875 536.044 75.9525 535.751 76.9275 535.653C78.1463 535.506 79.3163 535.262 80.4863 534.92C81.1688 534.725 80.8763 533.651 80.1938 533.846C79.1213 534.139 78.0488 534.383 76.9275 534.53C76.0988 534.627 74.7338 534.872 73.9538 534.627C74.0513 534.92 74.1 535.262 74.1975 535.555L74.2463 535.506C74.0025 535.506 73.71 535.506 73.4663 535.506C73.4663 535.506 73.4663 535.506 73.515 535.555C74.0025 535.995 74.7825 535.262 74.2463 534.774Z" fill="#B2BEC3"/>
<path d="M66.1548 530.672C65.2773 530.477 64.4974 530.135 63.8149 529.5C63.2786 529.011 62.4986 529.793 63.0349 530.281C63.8636 531.014 64.7899 531.502 65.8624 531.746C66.5936 531.893 66.8861 530.818 66.1548 530.672Z" fill="#B2BEC3"/>
<path d="M66.0083 533.895C64.107 535.164 62.4008 536.678 60.9383 538.436C60.4995 538.973 61.2795 539.755 61.7183 539.218C63.132 537.508 64.7408 536.043 66.5445 534.823C67.1295 534.432 66.5933 533.455 66.0083 533.895Z" fill="#B2BEC3"/>
<path d="M67.0317 538.241C66.1055 539.852 65.618 541.659 65.5692 543.564C65.5692 544.247 66.6417 544.247 66.6905 543.564C66.7392 541.855 67.178 540.292 68.0067 538.827C68.348 538.192 67.4217 537.655 67.0317 538.241Z" fill="#B2BEC3"/>
<path d="M71.175 542.489C71.5163 543.71 72.1013 544.834 72.8813 545.81C73.32 546.347 74.1 545.566 73.6613 545.029C72.9788 544.199 72.54 543.222 72.2475 542.196C72.0525 541.513 70.98 541.806 71.175 542.489Z" fill="#B2BEC3"/>
<path d="M151.418 467.433C151.759 466.114 152.881 465.138 154.197 465.04C154.879 464.991 154.879 463.917 154.197 463.917C152.344 464.014 150.784 465.333 150.346 467.091C150.199 467.823 151.223 468.116 151.418 467.433Z" fill="#B2BEC3"/>
<path d="M152.052 469.874C152.978 469.191 154.051 468.946 155.172 469.239C155.855 469.386 156.147 468.36 155.465 468.165C154.1 467.823 152.637 468.068 151.516 468.898C150.931 469.337 151.516 470.265 152.052 469.874Z" fill="#B2BEC3"/>
<path d="M154.051 473.927C154.636 473.976 155.123 474.269 155.513 474.708C155.708 474.953 156.098 474.904 156.293 474.708C156.537 474.464 156.488 474.171 156.293 473.927C155.757 473.244 154.928 472.853 154.051 472.804C153.368 472.755 153.368 473.878 154.051 473.927Z" fill="#B2BEC3"/>
<path d="M117.439 506.158C119.194 504.4 122.265 503.228 124.751 503.911C126.555 504.449 127.481 506.548 127.237 508.306C126.945 510.699 123.337 511.578 121.387 511.09C120.705 510.943 120.412 511.969 121.095 512.164C123.045 512.653 126.116 512.164 127.53 510.553C128.846 509.039 128.505 506.695 127.628 505.035C125.483 500.933 119.194 502.739 116.61 505.376C116.171 505.865 116.951 506.646 117.439 506.158Z" fill="#B2BEC3"/>
<path d="M117.439 505.523C119.877 501.616 126.068 499.175 129.578 503.277C130.017 503.814 130.797 503.032 130.358 502.495C126.409 497.856 119.292 500.493 116.513 504.986C116.123 505.572 117.049 506.109 117.439 505.523Z" fill="#B2BEC3"/>
<path d="M130.212 503.374C137.719 500.688 145.081 497.71 152.344 494.487C152.978 494.194 152.442 493.266 151.808 493.559C144.642 496.733 137.329 499.663 129.919 502.349C129.237 502.593 129.529 503.618 130.212 503.374Z" fill="#B2BEC3"/>
<path d="M120.948 512.213C125.238 516.95 133.379 513.043 133.184 506.988C133.184 506.304 132.063 506.255 132.063 506.988C132.209 512.115 125.336 515.485 121.679 511.432C121.241 510.894 120.461 511.676 120.948 512.213Z" fill="#B2BEC3"/>
<path d="M132.942 507.476C140.108 504.595 147.079 501.323 153.904 497.66C154.538 497.319 153.953 496.391 153.368 496.733C146.64 500.346 139.718 503.569 132.649 506.45C132.015 506.695 132.308 507.769 132.942 507.476Z" fill="#B2BEC3"/>
<path d="M151.955 494.291C152.588 495.316 153.027 496.439 153.222 497.66C153.32 498.344 154.392 498.051 154.295 497.367C154.051 496.098 153.612 494.877 152.881 493.754C152.54 493.119 151.613 493.656 151.955 494.291Z" fill="#B2BEC3"/>
<path d="M194.367 510.357C193.831 510.699 193.051 509.869 193.977 509.478C194.172 509.38 194.514 509.429 194.757 509.429C195.489 509.429 196.269 509.478 196.951 509.771C197.244 509.869 197.926 510.113 197.244 510.699C197.097 510.845 196.659 510.748 196.512 510.748C195.732 510.748 194.952 510.601 194.221 510.406C193.539 510.211 193.246 511.285 193.929 511.48C195.196 511.822 197.634 512.408 198.56 511.09C199.632 509.527 197.292 508.648 196.171 508.453C194.855 508.257 192.612 508.062 192.417 509.869C192.271 511.285 193.831 512.066 194.952 511.334C195.489 510.894 194.952 509.966 194.367 510.357Z" fill="#B2BEC3"/>
<path d="M190.613 509.771C191.198 508.257 192.904 507.378 194.464 507.72C195.147 507.867 195.439 506.841 194.757 506.646C192.563 506.158 190.369 507.33 189.541 509.478C189.297 510.162 190.369 510.455 190.613 509.771Z" fill="#B2BEC3"/>
<path d="M189.882 509.527C188.322 510.162 186.86 510.601 187.493 512.604C188.078 514.606 190.223 513.678 191.686 514.166C193.002 514.606 194.026 515.68 195.44 515.875C197.292 516.071 198.852 515.241 198.803 513.238C198.803 512.555 197.682 512.506 197.682 513.238C197.146 514.41 196.415 514.899 195.488 514.752C195.05 514.801 194.708 514.606 194.465 514.166C194.318 514.069 194.27 513.873 194.123 513.776C193.49 513.385 192.661 513.385 191.978 513.043C191.442 512.75 191.052 512.408 190.418 512.408C190.175 512.408 189.785 512.604 189.638 512.604C188.176 512.311 189.541 510.846 190.175 510.601C190.808 510.357 190.565 509.283 189.882 509.527Z" fill="#B2BEC3"/>
<path d="M195.342 506.988C195.635 506.5 196.025 506.353 196.512 506.5C197.097 506.597 197.439 506.89 197.634 507.33C197.829 507.525 197.877 507.818 198.072 508.013C198.755 508.746 200.022 508.892 200.656 509.625C201.046 509.723 201.144 509.967 200.997 510.406C201.192 510.895 201.046 511.09 200.607 510.992C200.461 511.09 200.169 511.09 200.022 511.236C199.827 511.383 199.779 511.529 199.681 511.725C199.145 512.457 198.999 512.701 198.17 512.945C197.487 513.19 197.78 514.215 198.462 514.02C199.194 513.776 199.827 513.483 200.364 512.897C200.705 512.506 200.754 512.262 201.29 512.067C201.582 511.969 201.875 512.066 202.167 511.92C203.581 511.139 202.557 509.527 201.631 508.892C201.095 508.502 200.412 508.257 199.876 507.867C199.291 507.476 198.999 507.085 198.56 506.548C198.072 505.962 197.78 505.669 196.951 505.523C195.732 505.279 193.88 505.718 194.367 507.378C194.514 507.964 195.586 507.672 195.342 506.988Z" fill="#B2BEC3"/>
<path d="M166.335 545.127C167.213 547.129 169.65 546.592 171.21 545.81C174.672 544.199 177.597 541.611 181.448 540.829C183.057 540.487 185.153 540.194 185.982 542.05C186.225 542.636 186.177 543.32 186.469 543.906C186.908 544.834 187.737 545.468 188.663 545.859C190.905 546.787 193.44 546.299 195.537 545.273C202.215 541.952 206.457 532.918 214.744 533.114C218.937 533.211 220.74 537.118 224.348 538.436C227.273 539.511 230.442 539.071 233.074 537.46C233.659 537.069 233.123 536.141 232.538 536.532C228.638 538.925 224.592 537.948 221.277 535.067C219.229 533.26 217.23 531.941 214.403 531.99C208.065 532.088 203.824 537.313 199.485 541.171C196.902 543.417 193.343 546.103 189.687 545.029C186.713 544.15 187.932 540.585 185.104 539.706C182.715 538.974 179.644 540.048 177.499 541.073C175.939 541.806 168.48 547.275 167.31 544.541C167.018 543.906 166.043 544.492 166.335 545.127Z" fill="#B2BEC3"/>
<path d="M166.336 544.736C165.507 546.054 166.434 547.373 167.75 547.959C169.944 548.887 172.576 547.373 174.38 546.25C176.915 544.638 181.205 541.464 184.13 544.198C185.934 545.859 185.544 548.594 188.274 549.424C190.321 550.059 192.612 549.326 194.465 548.398C197.39 546.982 200.169 544.98 202.655 542.929C205.434 540.634 208.261 536.239 212.161 536.288C215.866 536.336 218.791 539.071 221.911 540.731C224.3 542.001 227.079 542.831 229.662 541.659C231.71 540.731 233.221 538.876 232.977 536.581C232.929 535.897 231.807 535.897 231.856 536.581C232.1 538.925 230.247 540.536 228.102 541.024C226.104 541.464 224.154 540.683 222.447 539.755C219.669 538.29 217.28 536.141 214.16 535.409C211.576 534.774 209.285 535.36 207.237 537.069C204.41 539.462 202.021 542.148 198.999 544.296C196.415 546.103 193.149 548.594 189.834 548.545C186.129 548.496 186.616 544.052 183.837 542.636C181.985 541.708 179.645 542.148 177.792 542.929C176.476 543.466 175.355 544.345 174.136 545.078C173.502 545.468 172.869 545.859 172.235 546.201C171.65 546.542 171.016 546.787 170.382 546.933C168.969 547.519 167.945 546.933 167.262 545.273C167.652 544.687 166.726 544.15 166.336 544.736Z" fill="#B2BEC3"/>
<path d="M166.482 544.101C166.092 542.929 164.678 542.343 163.557 542.929C162.923 543.271 163.508 544.199 164.093 543.857C164.581 543.613 165.263 543.857 165.41 544.345C165.653 545.078 166.726 544.785 166.482 544.101Z" fill="#B2BEC3"/>
<path d="M164.872 545.859C163.653 545.566 162.337 546.347 162.142 547.617C162.094 547.91 162.191 548.203 162.532 548.301C162.776 548.398 163.166 548.203 163.215 547.91C163.312 547.275 163.897 546.738 164.58 546.933C165.262 547.08 165.555 546.006 164.872 545.859Z" fill="#B2BEC3"/>
<path d="M163.946 548.789C163.703 549.424 163.508 550.01 163.264 550.645C163.02 551.328 164.093 551.573 164.336 550.938C164.58 550.303 164.775 549.717 165.019 549.082C165.263 548.398 164.19 548.105 163.946 548.789Z" fill="#B2BEC3"/>
<path d="M235.17 537.606C235.512 536.971 236.194 536.678 236.828 536.825C237.51 537.02 237.803 535.946 237.12 535.75C235.999 535.457 234.732 535.995 234.195 537.02C233.903 537.655 234.829 538.241 235.17 537.606Z" fill="#B2BEC3"/>
<path d="M235.706 539.023C236.242 538.876 236.73 539.023 237.169 539.364C237.412 539.56 237.802 539.413 237.9 539.169C238.046 538.876 237.949 538.583 237.705 538.437C237.022 537.948 236.194 537.802 235.414 537.997C234.731 538.095 235.024 539.169 235.706 539.023Z" fill="#B2BEC3"/>
<path d="M234.634 540.536C234.634 541.464 234.78 542.343 235.073 543.222C235.317 543.906 236.34 543.613 236.145 542.929C235.902 542.148 235.755 541.366 235.707 540.536C235.707 539.853 234.634 539.853 234.634 540.536Z" fill="#B2BEC3"/>
<path d="M129.09 540.976C128.115 539.755 128.115 538.925 129.138 538.388C129.626 537.899 130.26 537.606 130.942 537.46C132.356 537.753 132.697 537.362 131.917 536.239C131.381 535.409 131.381 534.579 132.063 533.797C133.233 531.502 134.988 530.721 137.426 530.525C138.791 530.428 138.498 530.428 138.84 529.109C139.083 528.23 139.425 527.351 139.912 526.57C141.18 524.519 144.885 521.393 147.127 524.275C147.566 524.812 148.492 524.275 148.053 523.737C144.397 518.903 138.498 525.154 137.718 529.158C137.426 530.525 137.377 533.309 139.473 533.26C141.375 533.211 141.033 531.111 139.912 530.232C135.768 526.912 129.187 532.527 130.455 537.167C130.845 538.632 132.892 540.341 134.403 539.12C135.671 538.046 134.452 536.678 133.233 536.337C131.04 535.751 127.822 537.069 127.042 539.315C126.457 541.073 127.968 542.929 129.723 541.904C130.26 541.562 129.723 540.634 129.09 540.976Z" fill="#B2BEC3"/>
<path d="M177.89 466.651C177.695 466.7 177.597 466.7 177.402 466.554C177.451 466.847 177.5 467.14 177.5 467.433C178.134 466.944 178.962 466.944 179.596 467.384C179.547 467.091 179.499 466.798 179.499 466.505C178.962 467.091 178.134 467.335 177.402 466.993C177.451 467.286 177.5 467.579 177.5 467.872C177.89 467.335 178.572 467.188 179.157 467.481C179.157 467.188 179.157 466.847 179.157 466.554C178.962 466.651 178.865 466.7 178.621 466.651C177.939 466.505 177.646 467.53 178.329 467.726C178.816 467.823 179.255 467.774 179.694 467.53C180.035 467.335 180.084 466.798 179.694 466.602C178.719 466.065 177.402 466.261 176.671 467.14C176.476 467.384 176.427 467.823 176.769 468.019C177.939 468.556 179.304 468.312 180.181 467.335C180.425 467.042 180.376 466.7 180.084 466.456C179.011 465.723 177.646 465.87 176.671 466.651C176.379 466.895 176.525 467.335 176.769 467.53C177.159 467.823 177.646 467.872 178.085 467.726C178.865 467.53 178.572 466.456 177.89 466.651Z" fill="#B2BEC3"/>
<path d="M190.174 479.397C190.027 479.397 190.027 479.348 190.174 479.201C190.222 479.006 190.369 478.908 190.564 478.908C190.759 478.811 191.051 478.811 191.295 478.811C191.539 478.811 192.806 478.664 192.952 478.908C193.294 479.397 191.782 479.592 191.587 479.592C190.905 479.641 190.271 479.592 189.637 479.445C188.955 479.25 188.662 480.324 189.345 480.52C190.661 480.862 192.562 480.959 193.684 480.031C194.707 479.201 194.171 478.029 193.001 477.785C191.929 477.59 190.125 477.492 189.296 478.42C188.614 479.152 189.052 480.666 190.174 480.569C190.856 480.422 190.856 479.348 190.174 479.397Z" fill="#B2BEC3"/>
<path d="M189.101 479.25C188.906 480.129 188.906 480.959 189.004 481.789C189.053 481.985 189.199 482.131 189.394 482.18C190.71 482.62 192.319 482.913 193.391 481.838C194.22 481.057 194.366 479.836 193.635 478.957C193.196 478.42 192.416 479.201 192.855 479.738C193.294 480.276 192.758 481.106 192.221 481.35C191.393 481.692 190.466 481.399 189.638 481.155C189.784 481.301 189.881 481.399 190.028 481.545C189.93 480.862 189.979 480.227 190.125 479.543C190.32 478.811 189.248 478.518 189.101 479.25Z" fill="#B2BEC3"/>
<path d="M27.9341 493.412C29.1041 493.265 29.8841 493.705 30.2253 494.682C31.2491 495.854 30.6153 496.488 28.2266 496.586C27.3978 496.049 27.6416 494.633 27.8366 493.9C28.2266 492.386 29.0553 492.386 30.3228 491.849C31.2003 491.507 32.0291 491.166 32.9066 490.775C34.3203 490.189 35.7828 489.603 37.1966 489.017C38.6591 488.431 40.3653 487.357 41.9253 487.064C42.9978 486.868 44.3628 487.015 44.4116 488.529C43.9728 489.505 43.5341 490.482 43.0953 491.459C42.8028 491.556 42.5103 491.605 42.2178 491.654C41.0966 492.093 39.8778 492.338 38.7566 492.826C35.8316 494.096 33.1503 495.902 30.0303 496.781C29.3478 496.977 29.6403 498.051 30.3228 497.856C33.9791 496.781 37.0503 494.486 40.6578 493.217C42.7053 492.533 45.5328 492.533 45.7766 489.798C45.8741 488.236 44.8991 485.501 43.0466 485.55C41.4866 485.599 39.2928 486.966 37.8303 487.552C35.8316 488.382 33.7841 489.212 31.7853 489.994C29.7866 490.824 26.2766 491.361 26.3253 494.096C26.3741 495.707 27.4953 498.393 29.2991 498.686C33.3941 499.37 32.1753 491.166 27.6903 492.24C26.9591 492.533 27.2516 493.558 27.9341 493.412Z" fill="#B2BEC3"/>
<path d="M45.192 488.529C46.752 487.845 48.312 487.21 49.872 486.575C50.5545 486.282 51.237 485.989 51.9195 485.696C52.1633 485.599 54.8933 484.476 53.4795 485.062C50.652 486.234 47.8733 487.406 45.0458 488.578C44.412 488.822 44.7045 489.896 45.3383 489.652C47.7758 488.626 50.2133 487.65 52.602 486.624C53.4308 486.282 55.527 485.794 55.137 484.427C54.6983 482.962 52.797 484.183 51.9683 484.524C49.5308 485.55 47.0445 486.575 44.607 487.601C44.022 487.845 44.5583 488.773 45.192 488.529Z" fill="#B2BEC3"/>
<path d="M254.329 511.725C252.623 513.287 251.55 515.631 252.135 517.975C252.72 520.27 254.817 520.71 256.913 521.149C264.372 522.614 272.025 522.077 279.533 522.907C282.409 523.249 286.309 524.763 289.137 523.64C290.745 523.005 292.208 521.149 291.672 519.343C290.989 516.999 287.284 516.315 285.334 515.68C281.727 514.459 278.07 513.483 274.365 512.75C270.319 511.92 266.175 511.383 262.08 511.09C259.887 510.943 255.353 509.82 253.89 512.164C253.5 512.75 254.475 513.336 254.817 512.701C255.548 511.48 258.132 512.018 259.302 512.066C260.959 512.115 262.617 512.213 264.274 512.408C267.687 512.701 271.099 513.238 274.463 513.922C277.437 514.557 280.362 515.289 283.238 516.217C284.7 516.657 286.114 517.145 287.528 517.682C288.942 518.219 291.477 518.854 290.16 521.442C289.527 522.663 287.723 522.956 286.553 522.907C283.579 522.859 280.557 521.931 277.632 521.687C274.463 521.442 271.294 521.345 268.174 521.247C264.908 521.101 261.642 520.954 258.473 520.417C256.815 520.124 254.719 520.026 253.695 518.561C252.33 516.559 253.452 514.069 255.06 512.604C255.645 512.066 254.865 511.285 254.329 511.725Z" fill="#B2BEC3"/>
<path d="M288.063 522.663C286.211 522.223 287.186 520.026 288.112 519.147C288.795 518.512 289.965 518.122 290.257 519.342C290.403 519.977 290.208 520.954 289.916 521.491C289.526 522.272 288.453 522.809 287.82 521.882C287.381 521.247 287.625 520.221 288.015 519.587C288.063 519.391 288.161 519.245 288.356 519.147C288.551 518.952 288.6 519.001 288.502 519.391C288.502 519.684 288.356 520.124 288.307 520.417C288.112 521.1 287.771 521.686 287.381 522.272C287.722 522.321 288.063 522.37 288.405 522.419C288.258 521.882 288.258 521.296 288.453 520.759C288.6 520.319 289.185 519.294 289.77 519.391C289.623 519.294 289.477 519.196 289.282 519.098C289.526 519.391 289.867 521.393 289.136 521.345C288.648 521.296 290.013 519.684 290.208 519.538C289.965 519.489 289.721 519.391 289.477 519.342C289.721 519.635 289.818 519.977 289.672 520.417C288.697 520.466 288.453 520.466 288.99 520.368C289.672 520.221 289.38 519.147 288.697 519.294C288.015 519.44 287.576 519.782 287.673 520.563C287.771 521.198 288.258 521.735 288.892 521.833C290.647 522.175 291.183 519.928 290.403 518.756C290.257 518.512 289.916 518.366 289.672 518.561C288.746 519.196 287.186 521.198 288.112 522.37C289.185 523.688 290.501 521.491 290.647 520.612C290.842 519.391 290.257 517.584 288.795 518.561C287.43 519.44 286.942 521.198 287.332 522.712C287.478 523.2 288.063 523.2 288.356 522.858C289.087 521.833 290.208 519.684 289.526 518.415C288.941 517.34 287.771 518.073 287.283 518.805C286.503 519.977 286.113 521.686 287.137 522.858C288.015 523.835 289.428 523.688 290.306 522.858C292.012 521.198 291.72 516.364 288.453 517.682C286.113 518.61 284.456 523.005 287.722 523.835C288.453 523.884 288.746 522.858 288.063 522.663Z" fill="#B2BEC3"/>
<path d="M288.747 521.589C298.399 523.689 308.003 525.984 317.607 528.523C318.289 528.718 318.582 527.644 317.899 527.449C308.344 524.909 298.74 522.614 289.039 520.514C288.357 520.368 288.064 521.442 288.747 521.589Z" fill="#B2BEC3"/>
<path d="M289.965 520.563C294.548 521.735 299.179 522.858 303.762 524.03C308.052 525.105 313.707 525.593 317.168 528.474C317.704 528.914 318.484 528.133 317.948 527.693C314.633 524.958 309.953 524.421 305.907 523.396C300.69 522.077 295.474 520.759 290.258 519.44C289.575 519.342 289.283 520.417 289.965 520.563Z" fill="#B2BEC3"/>
<path d="M285.529 516.12C281.97 516.706 280.703 520.954 283.238 523.493C283.725 523.982 284.505 523.2 284.018 522.712C282.019 520.759 283.092 517.633 285.822 517.194C286.553 517.096 286.212 516.022 285.529 516.12Z" fill="#B2BEC3"/>
<path d="M342.225 513.629C341.25 512.408 341.201 511.724 342.176 511.48C342.469 511.334 342.761 511.236 343.102 511.236C343.639 511.138 344.224 511.187 344.809 511.187C345.394 511.236 347.831 511.187 348.27 511.871C348.221 512.506 348.124 513.189 348.075 513.824C347.831 513.824 347.587 513.873 347.392 513.873C346.954 513.971 346.32 513.873 345.832 513.873C344.516 513.824 343.249 513.629 341.981 513.385C341.299 513.238 341.006 514.313 341.689 514.459C343.346 514.801 345.052 515.045 346.759 515.045C347.782 515.045 349.05 515.045 349.684 514.166C351.439 511.871 347.88 510.455 346.222 510.259C344.175 509.966 340.47 509.722 339.836 512.506C339.446 514.361 341.542 515.68 342.956 514.41C343.541 513.922 342.761 513.141 342.225 513.629Z" fill="#B2BEC3"/>
<path d="M337.302 512.603C337.838 510.65 339.35 509.332 341.348 508.941C341.836 508.843 341.836 508.16 341.495 507.915C341.397 506.646 341.787 506.108 342.616 506.353C342.86 506.401 343.055 506.401 343.298 506.353C343.688 506.304 343.786 506.255 344.127 506.011C343.883 505.962 343.64 505.864 343.396 505.815C343.883 506.792 344.322 507.769 344.81 508.794C345.102 509.429 346.077 508.892 345.736 508.257C345.248 507.28 344.81 506.304 344.322 505.278C344.176 505.034 343.786 504.936 343.591 505.083C342.908 505.522 341.982 505.034 341.202 505.376C340.763 505.571 340.422 505.864 340.178 506.304C339.642 507.28 340.032 508.306 340.958 508.892C341.007 508.55 341.056 508.208 341.105 507.866C338.716 508.306 336.961 509.966 336.278 512.31C336.035 512.994 337.107 513.287 337.302 512.603Z" fill="#B2BEC3"/>
<path d="M336.668 512.603C335.645 512.75 334.718 513.043 333.792 513.434C333.5 513.58 333.5 513.922 333.597 514.166C333.89 514.703 334.085 515.24 334.133 515.826C334.182 516.022 334.328 516.168 334.523 516.217C335.255 516.461 335.45 516.315 336.181 516.168C336.912 516.022 337.887 515.729 338.618 515.973C339.057 516.119 339.545 516.803 339.886 517.096C340.812 517.877 341.495 518.366 342.713 518.17C342.47 517.975 342.275 517.829 342.031 517.633C342.128 518.561 341.885 519.391 341.3 520.124C341.056 520.466 341.397 520.954 341.787 520.954C343.201 521.003 344.322 521.979 345.492 520.759C346.418 519.831 346.223 518.463 345.98 517.34C345.785 517.584 345.638 517.78 345.443 518.024C347.101 517.975 348.612 517.78 350.221 517.389C349.977 517.243 349.782 517.145 349.538 516.998C350.123 518.659 351.878 520.368 353.585 518.708C354.95 517.34 353.926 515.436 352.317 514.996C351.635 514.801 351.342 515.875 352.025 516.071C351.537 516.315 351.05 516.51 350.611 516.754C350.513 516.461 350.221 516.315 349.928 516.364C348.417 516.705 346.955 516.901 345.443 516.95C345.053 516.95 344.858 517.291 344.907 517.633C345.151 519.098 344.712 519.928 342.86 520.026C342.811 520.026 341.69 519.88 341.787 519.88C341.933 520.173 342.08 520.417 342.275 520.71C342.957 519.733 343.201 518.854 343.152 517.682C343.152 517.291 342.811 517.096 342.47 517.145C340.812 517.389 339.788 514.899 338.18 514.654C337.643 514.557 337.253 514.703 336.766 514.85C335.06 515.338 335.303 515.143 334.621 513.678C334.572 513.922 334.475 514.166 334.426 514.41C335.352 514.02 336.083 513.824 337.058 513.678C337.692 513.58 337.4 512.506 336.668 512.603Z" fill="#B2BEC3"/>
<path d="M345.248 508.843C347.003 508.111 348.661 508.062 350.416 508.843C350.806 508.99 351.244 508.795 351.244 508.355C351.927 508.306 352.609 508.257 353.292 508.209C353.389 508.648 353.438 509.039 353.536 509.478C353.438 509.625 352.999 509.722 352.853 509.82C352.561 510.064 352.414 510.26 352.268 510.65C351.829 511.969 352.366 514.117 352.512 515.485C352.561 516.168 353.682 516.168 353.633 515.485C353.536 514.41 353.292 513.238 353.389 512.164C353.438 511.432 353.341 511.09 353.974 510.504C354.121 510.357 354.413 510.308 354.608 510.162C355.388 509.478 355.047 508.697 354.511 507.916C353.389 506.304 350.269 505.669 350.221 508.355C350.513 508.209 350.757 508.062 351.049 507.867C349.051 506.988 347.052 506.89 345.053 507.769C344.322 508.062 344.614 509.136 345.248 508.843Z" fill="#B2BEC3"/>
<path d="M302.591 543.808C301.714 542.392 303.859 541.806 304.834 542.001C305.175 542.099 305.516 542.196 305.857 542.343C306.54 542.587 306.881 542.636 307.027 543.368C307.125 544.101 306.686 544.15 306.052 544.394C305.565 544.589 305.029 544.736 304.492 544.736C303.371 544.736 302.396 544.101 302.152 542.978C302.006 542.294 300.934 542.587 301.08 543.271C301.47 545.078 303.274 546.005 305.029 545.761C306.296 545.615 309.319 544.589 308.344 542.782C307.564 541.317 304.834 540.585 303.322 540.927C301.811 541.269 300.69 542.978 301.567 544.394C302.006 544.98 302.981 544.443 302.591 543.808Z" fill="#B2BEC3"/>
<path d="M301.617 543.759C300.837 544.394 300.74 545.371 301.13 546.25C301.617 547.422 302.836 547.861 304.006 547.91C305.079 547.959 306.687 547.91 307.516 547.031C308.394 546.054 308.052 544.687 307.662 543.613C307.419 542.929 306.346 543.222 306.59 543.906C306.785 544.492 307.126 545.322 306.931 545.908C306.639 546.787 305.469 546.787 304.689 546.787C303.957 546.836 303.031 546.836 302.495 546.299C302.007 545.81 301.812 544.98 302.397 544.492C302.934 544.101 302.154 543.32 301.617 543.759Z" fill="#B2BEC3"/>
</svg>
