<svg width="21" height="20" viewBox="0 0 21 20" fill="none" xmlns="http://www.w3.org/2000/svg">
<path d="M16.7639 13.1237C16.6545 11.691 15.457 10.5552 13.9939 10.5552C12.5308 10.5552 11.3333 11.691 11.2239 13.1237C10.672 13.2071 10.1566 13.4676 9.76084 13.8635C9.2662 14.3585 8.99546 15.0149 8.99546 15.713C8.99546 17.1614 10.1722 18.3337 11.6144 18.3337H16.3734C17.8156 18.3337 18.9923 17.1562 18.9923 15.713C18.9923 15.0149 18.7216 14.3585 18.2269 13.8635C17.8312 13.4676 17.3106 13.2071 16.7639 13.1237ZM11.6144 17.2239C10.7814 17.2239 10.1097 16.5466 10.1097 15.7183C10.1097 15.3119 10.2659 14.9368 10.5523 14.6502C10.8334 14.3689 11.2187 14.2074 11.6196 14.2074H11.781C12.0882 14.2074 12.3382 13.9573 12.3382 13.6499V13.3321C12.3382 12.4151 13.0879 11.6649 14.0043 11.6649C14.9207 11.6649 15.6705 12.4151 15.6705 13.3321V13.6499C15.6705 13.9573 15.9204 14.2074 16.2276 14.2074H16.389C16.7847 14.2074 17.1752 14.3689 17.4564 14.6502C17.7427 14.9368 17.8989 15.3119 17.8989 15.7183C17.8989 16.5519 17.2221 17.2239 16.3942 17.2239H11.6144Z" fill="white"/>
<path d="M5.66316 15.7443C5.97085 15.7443 6.22028 15.4947 6.22028 15.1868C6.22028 14.879 5.97085 14.6294 5.66316 14.6294C5.35548 14.6294 5.10605 14.879 5.10605 15.1868C5.10605 15.4947 5.35548 15.7443 5.66316 15.7443Z" fill="white"/>
<path d="M5.66316 10.5552C5.97085 10.5552 6.22028 10.3056 6.22028 9.99772C6.22028 9.68984 5.97085 9.44025 5.66316 9.44025C5.35548 9.44025 5.10605 9.68984 5.10605 9.99772C5.10605 10.3056 5.35548 10.5552 5.66316 10.5552Z" fill="white"/>
<path d="M5.66316 5.36606C5.97085 5.36606 6.22028 5.11648 6.22028 4.8086C6.22028 4.50072 5.97085 4.25113 5.66316 4.25113C5.35548 4.25113 5.10605 4.50072 5.10605 4.8086C5.10605 5.11648 5.35548 5.36606 5.66316 5.36606Z" fill="white"/>
<path d="M18.9923 5.18372V4.4439C18.9923 3.69888 18.7008 3.00074 18.1801 2.47975C17.6542 1.95354 16.9565 1.66699 16.2172 1.66699H5.10605C4.36149 1.66699 3.66379 1.95875 3.14312 2.47975C2.61724 3.00595 2.33087 3.70409 2.33087 4.4439V5.18372C2.33087 5.92874 2.62245 6.62687 3.14312 7.14787C3.24205 7.24686 3.34618 7.32501 3.45552 7.40837C3.34618 7.48652 3.23684 7.56988 3.14312 7.66366C2.61724 8.18986 2.33087 8.888 2.33087 9.62781V10.3676C2.33087 11.1127 2.62245 11.8108 3.14312 12.3318C3.24205 12.4308 3.34618 12.5089 3.45552 12.5923C3.34618 12.6704 3.23684 12.7538 3.14312 12.8476C2.61724 13.3738 2.33087 14.0719 2.33087 14.8117V15.5515C2.33087 16.2966 2.62245 16.9947 3.14312 17.5157C3.669 18.0419 4.36669 18.3284 5.10605 18.3284H7.88122C8.18842 18.3284 8.43834 18.0784 8.43834 17.771C8.43834 17.4636 8.18842 17.2135 7.88122 17.2135H5.10605C4.65827 17.2135 4.24173 17.0416 3.92933 16.7238C3.61693 16.4112 3.4399 15.9892 3.4399 15.5463V14.8065C3.4399 14.3585 3.61172 13.9417 3.92933 13.6291C4.24173 13.3165 4.66348 13.1393 5.10605 13.1393H8.43834C8.74553 13.1393 8.99546 12.8892 8.99546 12.5819C8.99546 12.2745 8.74553 12.0244 8.43834 12.0244H5.10605C4.66348 12.0244 4.24173 11.8525 3.92933 11.5347C3.61693 11.2221 3.4399 10.8001 3.4399 10.3572V9.61739C3.4399 9.16934 3.61172 8.75254 3.92933 8.43994C4.24173 8.12734 4.66348 7.9502 5.10605 7.9502H16.2172C16.6597 7.9502 17.0815 8.12213 17.3939 8.43994C17.7063 8.75254 17.8833 9.17455 17.8833 9.61739V10.3572C17.8833 10.5448 17.8521 10.7323 17.7896 10.9147C17.6854 11.2064 17.8364 11.5242 18.128 11.6232C18.4196 11.7274 18.7372 11.5763 18.8361 11.2846C18.9403 10.9876 18.9975 10.675 18.9975 10.3572V9.61739C18.9975 8.87237 18.706 8.17423 18.1853 7.65324C18.0864 7.55425 17.9822 7.4761 17.8729 7.39274C17.9822 7.31459 18.0916 7.23123 18.1853 7.13745C18.7112 6.61125 18.9975 5.91311 18.9975 5.1733L18.9923 5.18372ZM17.8833 5.18372C17.8833 5.63177 17.7115 6.04857 17.3939 6.36117C17.0815 6.67377 16.6597 6.8509 16.2172 6.8509H5.10605C4.65827 6.8509 4.24173 6.67898 3.92933 6.36117C3.61693 6.04857 3.4399 5.62656 3.4399 5.18372V4.4439C3.4399 3.99584 3.61172 3.57905 3.92933 3.26645C4.24173 2.95385 4.66348 2.77671 5.10605 2.77671H16.2172C16.6649 2.77671 17.0815 2.94864 17.3939 3.26645C17.7063 3.57905 17.8833 4.00105 17.8833 4.4439V5.18372Z" fill="white"/>
<path d="M10.1045 4.25634H7.88122C7.57402 4.25634 7.3241 4.50642 7.3241 4.81381C7.3241 5.1212 7.57402 5.37127 7.88122 5.37127H10.1045C10.4117 5.37127 10.6616 5.1212 10.6616 4.81381C10.6616 4.50642 10.4117 4.25634 10.1045 4.25634Z" fill="white"/>
<path d="M10.6616 9.99772C10.6616 9.69033 10.4117 9.44025 10.1045 9.44025H7.88122C7.57402 9.44025 7.3241 9.69033 7.3241 9.99772C7.3241 10.3051 7.57402 10.5552 7.88122 10.5552H10.1045C10.4117 10.5552 10.6616 10.3051 10.6616 9.99772Z" fill="white"/>
</svg>
