<svg width="21" height="20" viewBox="0 0 21 20" fill="none" xmlns="http://www.w3.org/2000/svg">
<g clip-path="url(#clip0_12391_68030)">
<path d="M10.4958 19.9995C15.9926 19.9995 20.4487 15.5434 20.4487 10.0466C20.4487 4.5498 15.9926 0.09375 10.4958 0.09375C4.99901 0.09375 0.542969 4.5498 0.542969 10.0466C0.542969 15.5434 4.99901 19.9995 10.4958 19.9995Z" fill="#F5BB60"/>
<path d="M9.48121 17.9917C14.4295 17.9917 18.4409 13.9803 18.4409 9.032C18.4409 4.08367 14.4295 0.0722656 9.48121 0.0722656C4.53289 0.0722656 0.521484 4.08367 0.521484 9.032C0.521484 13.9803 4.53289 17.9917 9.48121 17.9917Z" fill="#E86F32"/>
<path d="M10.6688 15.6169C14.9613 15.6169 18.4411 12.1371 18.4411 7.84456C18.4411 3.55204 14.9613 0.0722656 10.6688 0.0722656C6.37626 0.0722656 2.89648 3.55204 2.89648 7.84456C2.89648 12.1371 6.37626 15.6169 10.6688 15.6169Z" fill="#E53D42"/>
<path d="M11.2946 15.6166C15.2414 15.6166 18.4408 12.4171 18.4408 8.47041C18.4408 4.52368 15.2414 1.32422 11.2946 1.32422C7.3479 1.32422 4.14844 4.52368 4.14844 8.47041C4.14844 12.4171 7.3479 15.6166 11.2946 15.6166Z" fill="#BFD141"/>
<path d="M10.7765 15.6174C14.437 15.6174 17.4045 12.6499 17.4045 8.98937C17.4045 5.3288 14.437 2.36133 10.7765 2.36133C7.11591 2.36133 4.14844 5.3288 4.14844 8.98937C4.14844 12.6499 7.11591 15.6174 10.7765 15.6174Z" fill="#6DB64C"/>
<path d="M9.71858 13.5231C12.7949 13.5231 15.2887 11.0293 15.2887 7.95296C15.2887 4.87665 12.7949 2.38281 9.71858 2.38281C6.64228 2.38281 4.14844 4.87665 4.14844 7.95296C4.14844 11.0293 6.64228 13.5231 9.71858 13.5231Z" fill="#AFDBE7"/>
<path d="M10.6253 11.6881C13.2008 11.6881 15.2887 9.60022 15.2887 7.02471C15.2887 4.44919 13.2008 2.36133 10.6253 2.36133C8.04978 2.36133 5.96191 4.44919 5.96191 7.02471C5.96191 9.60022 8.04978 11.6881 10.6253 11.6881Z" fill="#57BADF"/>
<path d="M11.2085 11.7099C13.474 11.7099 15.3105 9.8734 15.3105 7.6079C15.3105 5.34241 13.474 3.50586 11.2085 3.50586C8.94299 3.50586 7.10645 5.34241 7.10645 7.6079C7.10645 9.8734 8.94299 11.7099 11.2085 11.7099Z" fill="#02B2D6"/>
<path d="M10.604 11.6884C12.5356 11.6884 14.1015 10.1225 14.1015 8.19089C14.1015 6.25926 12.5356 4.69336 10.604 4.69336C8.67234 4.69336 7.10645 6.25926 7.10645 8.19089C7.10645 10.1225 8.67234 11.6884 10.604 11.6884Z" fill="url(#paint0_radial_12391_68030)"/>
<path d="M10.604 11.6884C12.5356 11.6884 14.1015 10.1225 14.1015 8.19089C14.1015 6.25926 12.5356 4.69336 10.604 4.69336C8.67234 4.69336 7.10645 6.25926 7.10645 8.19089C7.10645 10.1225 8.67234 11.6884 10.604 11.6884Z" fill="#231F20"/>
<path d="M11.522 7.73254C11.8688 7.88813 12.347 7.57503 12.5901 7.0332C12.8332 6.49136 12.7492 5.92598 12.4024 5.77038C12.0557 5.61479 11.5774 5.92789 11.3343 6.46972C11.0912 7.01156 11.1752 7.57694 11.522 7.73254Z" fill="white"/>
</g>
<defs>
<radialGradient id="paint0_radial_12391_68030" cx="0" cy="0" r="1" gradientUnits="userSpaceOnUse" gradientTransform="translate(904.995 900.117) scale(897.496)">
<stop stop-color="#797979"/>
<stop offset="1" stop-color="#4C4C4C"/>
</radialGradient>
<clipPath id="clip0_12391_68030">
<rect width="20" height="20" fill="white" transform="translate(0.5)"/>
</clipPath>
</defs>
</svg>
