<svg width="16" height="16" viewBox="0 0 16 16" fill="none" xmlns="http://www.w3.org/2000/svg">
<path d="M6.55131 14.5074C3.56665 13.846 1.33331 11.1834 1.33331 7.9987C1.33331 6.78404 1.65798 5.64537 2.22598 4.66404L5.08131 9.61004C5.40218 10.1914 5.88936 10.6637 6.4804 10.9663C7.07144 11.269 7.7394 11.3882 8.39865 11.3087L6.55131 14.5074ZM7.99998 14.6654L10.858 9.71537C11.1692 9.19686 11.3335 8.60345 11.3333 7.9987C11.3343 7.27731 11.1003 6.57524 10.6666 5.9987H14.3613C14.5642 6.64595 14.6672 7.32039 14.6666 7.9987C14.6666 11.6807 11.682 14.6654 7.99998 14.6654ZM9.71465 9.0287C9.53538 9.32717 9.2813 9.57366 8.97755 9.74381C8.6738 9.91395 8.33089 10.0019 7.98274 9.99883C7.63459 9.9958 7.29326 9.90194 6.99252 9.72653C6.69177 9.55112 6.44203 9.30024 6.26798 8.9987L6.24865 8.96537C6.07983 8.65944 5.9941 8.31463 6.00001 7.96526C6.00591 7.6159 6.10324 7.27417 6.28231 6.97413C6.46137 6.67408 6.71592 6.42619 7.0206 6.25513C7.32528 6.08407 7.66946 5.99581 8.01886 5.99916C8.36826 6.0025 8.71068 6.09732 9.01203 6.27418C9.31338 6.45104 9.56314 6.70377 9.73643 7.00718C9.90972 7.3106 10.0005 7.65412 9.99971 8.00354C9.99893 8.35295 9.90662 8.69606 9.73198 8.9987L9.71465 9.0287ZM3.08798 3.49137C3.7117 2.80983 4.47065 2.26581 5.3164 1.89402C6.16215 1.52222 7.07612 1.33082 7.99998 1.33204C9.17042 1.33183 10.3203 1.63978 11.334 2.22491C12.3477 2.81004 13.1894 3.65174 13.7746 4.66537H7.99998C7.34699 4.66514 6.70831 4.85672 6.16325 5.2163C5.61818 5.57588 5.19074 6.08764 4.93398 6.68804L3.08798 3.49137Z" fill="white"/>
</svg>
