<svg width="88" height="88" viewBox="0 0 88 88" fill="none" xmlns="http://www.w3.org/2000/svg">
<g id="Frame" clip-path="url(#clip0_13086_24891)">
<path id="Vector" d="M84.2107 68.603H82.7894V26.2579C82.7894 21.4112 78.843 17.4688 73.9922 17.4688H61.7817C61.3332 16.2147 60.1361 15.3137 58.7289 15.3137H58.5832V9.94525C58.5832 8.15802 57.1276 6.70312 55.3391 6.70312H42.3679C41.6555 6.70312 41.0788 7.27985 41.0788 7.99219C41.0788 8.70453 41.6555 9.28125 42.3679 9.28125H55.3391C55.7063 9.28125 56.0051 9.57935 56.0051 9.94525V15.3137H46.1753L45.1293 14.0327C44.1376 12.8181 42.6693 12.1219 41.101 12.1219H31.9949V9.94525C31.9949 9.57935 32.2937 9.28125 32.6609 9.28125H36.3516C37.0639 9.28125 37.6406 8.70453 37.6406 7.99219C37.6406 7.27985 37.0639 6.70312 36.3516 6.70312H32.6609C30.8717 6.70312 29.4168 8.15802 29.4168 9.94525V12.1219H29.2711C27.4819 12.1219 26.027 13.5768 26.027 15.3647V17.4688H14.0078C9.15704 17.4688 5.21063 21.4112 5.21063 26.2579V68.603H3.78931C1.69995 68.603 0 70.3029 0 72.3923C0 77.2383 3.94238 81.1814 8.78912 81.1814H59.8501C60.5624 81.1814 61.1392 80.6047 61.1392 79.8923C61.1392 79.18 60.5624 78.6033 59.8501 78.6033H8.78912C5.36438 78.6033 2.57812 75.817 2.57812 72.3923C2.57812 71.7242 3.12128 71.1811 3.78931 71.1811H84.2107C84.8787 71.1811 85.4219 71.7249 85.4219 72.3923C85.4219 75.817 82.6356 78.6033 79.2109 78.6033H65.8657C65.1534 78.6033 64.5767 79.18 64.5767 79.8923C64.5767 80.6047 65.1534 81.1814 65.8657 81.1814H79.2109C84.0569 81.1814 88 77.239 88 72.3923C88 70.3029 86.3 68.603 84.2107 68.603ZM29.2711 40.3074H35.3049L41.0325 50.2164C41.6515 51.2886 42.7613 51.9284 44 51.9284C45.2387 51.9284 46.3478 51.2886 46.9675 50.2164L52.6951 40.3074H58.7289C60.5175 40.3074 61.973 38.8531 61.973 37.0652V25.5698H73.8727C74.5421 25.5698 75.0865 26.1129 75.0865 26.7803V62.6397C75.0865 63.3077 74.5421 63.8509 73.8727 63.8509H14.1266C13.4579 63.8509 12.9135 63.3077 12.9135 62.6397V26.7803C12.9135 26.1122 13.4579 25.5691 14.1266 25.5691H26.027V37.0652C26.027 38.8531 27.4819 40.3074 29.2711 40.3074ZM40.2463 36.9283C40.9579 36.9283 41.5353 36.3516 41.5353 35.6392V26.8702C41.5353 25.5127 42.6411 24.4089 44 24.4089C45.3589 24.4089 46.4647 25.5127 46.4647 26.8702V35.6392C46.4647 36.3516 47.0421 36.9283 47.7537 36.9283H50.2003C50.6434 36.9283 50.8629 37.2257 50.9361 37.3533C51.0093 37.4802 51.1563 37.8172 50.9361 38.1985L44.7358 48.9266C44.5143 49.3093 44.1477 49.3503 44 49.3503C43.8523 49.3503 43.4857 49.3093 43.2642 48.9266L37.0639 38.1985C36.8437 37.8172 36.9907 37.4802 37.0639 37.3533C37.1371 37.2257 37.3566 36.9283 37.7997 36.9283H40.2463ZM28.6051 15.3647C28.6051 14.9981 28.9039 14.7 29.2711 14.7H41.101C41.8925 14.7 42.6324 15.0511 43.1326 15.6635L44.5653 17.4178C44.8104 17.7179 45.1769 17.8918 45.5643 17.8918H58.7289C59.0961 17.8918 59.3949 18.1892 59.3949 18.5558V37.0652C59.3949 37.4312 59.0961 37.7292 58.7289 37.7292H53.6317C53.6237 37.1572 53.4706 36.5859 53.1698 36.0642C52.5501 34.9913 51.4403 34.3502 50.2009 34.3502H49.0435V26.8702C49.0435 24.0914 46.7809 21.8308 44.0007 21.8308C41.2198 21.8308 38.9572 24.0914 38.9572 26.8702V34.3502H37.7997C36.5604 34.3502 35.4506 34.9913 34.8309 36.0642C34.5301 36.5859 34.377 37.1572 34.369 37.7292H29.2718C28.9045 37.7292 28.6058 37.4312 28.6058 37.0652V15.3647H28.6051ZM7.78876 26.2579C7.78876 22.8332 10.5784 20.0469 14.0078 20.0469H26.027V22.991H14.1266C12.0359 22.991 10.3353 24.6909 10.3353 26.7803V62.6397C10.3353 64.7291 12.0359 66.4283 14.1266 66.4283H73.8727C75.9634 66.4283 77.6647 64.7291 77.6647 62.6397V26.7803C77.6647 24.6909 75.9641 22.991 73.8727 22.991H61.973V20.0469H73.9922C77.421 20.0469 80.2112 22.8332 80.2112 26.2579V68.603H7.78876V26.2579Z" fill="#5C5C5C"/>
<path id="Vector_2" d="M28.1484 73.6035C27.4368 73.6035 26.8594 74.1802 26.8594 74.8925C26.8594 75.6042 27.4368 76.1816 28.1484 76.1816H59.8486C60.5603 76.1816 61.1377 75.6042 61.1377 74.8925C61.1377 74.1802 60.5603 73.6035 59.8486 73.6035H28.1484Z" fill="#5C5C5C"/>
</g>
<defs>
<clipPath id="clip0_13086_24891">
<rect width="88" height="88" fill="white"/>
</clipPath>
</defs>
</svg>
