<svg xmlns="http://www.w3.org/2000/svg" width="32" height="32" viewBox="0 0 32 32" fill="none">
<path d="M18.4242 4.84848C18.4242 4.07695 18.1178 3.33701 17.5722 2.79145C17.0266 2.24589 16.2867 1.93939 15.5152 1.93939C14.7436 1.93939 14.0037 2.24589 13.4581 2.79145C12.9126 3.33701 12.6061 4.07695 12.6061 4.84848H18.4242ZM10.6667 4.84848C10.6667 3.56259 11.1775 2.32936 12.0868 1.42009C12.996 0.510821 14.2293 0 15.5152 0C16.8011 0 18.0343 0.510821 18.9435 1.42009C19.8528 2.32936 20.3636 3.56259 20.3636 4.84848H30.0606C30.3178 4.84848 30.5644 4.95065 30.7463 5.1325C30.9281 5.31436 31.0303 5.561 31.0303 5.81818C31.0303 6.07536 30.9281 6.32201 30.7463 6.50386C30.5644 6.68571 30.3178 6.78788 30.0606 6.78788H28.0165L26.4495 20.3636H18.4242C17.8627 20.3636 17.3131 20.5262 16.8419 20.8317C16.3707 21.1371 15.9979 21.5725 15.7687 22.0851C15.5394 22.5978 15.4634 23.1658 15.5499 23.7207C15.6364 24.2756 15.8816 24.7936 16.256 25.2121C15.778 25.7449 15.5141 26.4357 15.5152 27.1515C15.5152 27.8962 15.7944 28.577 16.256 29.0909C15.9068 29.479 15.669 29.9541 15.5676 30.4662C15.4662 30.9782 15.5051 31.5082 15.68 32H11.1088C9.68137 31.9999 8.30373 31.475 7.23808 30.5252C6.17243 29.5754 5.49314 28.267 5.32945 26.849L3.01382 6.78788H0.969697C0.712517 6.78788 0.465871 6.68571 0.284018 6.50386C0.102164 6.32201 0 6.07536 0 5.81818C0 5.561 0.102164 5.31436 0.284018 5.1325C0.465871 4.95065 0.712517 4.84848 0.969697 4.84848H10.6667Z" fill="#5C5C5C"/>
<path d="M17.7386 22.587C17.9205 22.4051 18.1671 22.303 18.4243 22.303H30.0607C30.3178 22.303 30.5645 22.4051 30.7463 22.587C30.9282 22.7688 31.0303 23.0155 31.0303 23.2727C31.0303 23.5299 30.9282 23.7765 30.7463 23.9584C30.5645 24.1402 30.3178 24.2424 30.0607 24.2424H18.4243C18.1671 24.2424 17.9205 24.1402 17.7386 23.9584C17.5568 23.7765 17.4546 23.5299 17.4546 23.2727C17.4546 23.0155 17.5568 22.7688 17.7386 22.587Z" fill="#F95E5E"/>
<path d="M17.7386 26.4658C17.9205 26.2839 18.1671 26.1818 18.4243 26.1818H30.0607C30.3178 26.1818 30.5645 26.2839 30.7463 26.4658C30.9282 26.6476 31.0303 26.8943 31.0303 27.1515C31.0303 27.4086 30.9282 27.6553 30.7463 27.8371C30.5645 28.019 30.3178 28.1212 30.0607 28.1212H18.4243C18.1671 28.1212 17.9205 28.019 17.7386 27.8371C17.5568 27.6553 17.4546 27.4086 17.4546 27.1515C17.4546 26.8943 17.5568 26.6476 17.7386 26.4658Z" fill="#F95E5E"/>
<path d="M17.7386 30.3446C17.9205 30.1627 18.1671 30.0606 18.4243 30.0606H30.0607C30.3178 30.0606 30.5645 30.1627 30.7463 30.3446C30.9282 30.5264 31.0303 30.7731 31.0303 31.0303C31.0303 31.2874 30.9282 31.5341 30.7463 31.7159C30.5645 31.8978 30.3178 31.9999 30.0607 31.9999H18.4243C18.1671 31.9999 17.9205 31.8978 17.7386 31.7159C17.5568 31.5341 17.4546 31.2874 17.4546 31.0303C17.4546 30.7731 17.5568 30.5264 17.7386 30.3446Z" fill="#F95E5E"/>
</svg>
