<svg width="40" height="40" viewBox="0 0 40 40" fill="none" xmlns="http://www.w3.org/2000/svg">
<g clip-path="url(#clip0_12346_121354)">
<path d="M14.5036 27.2748H4.50363C3.74587 27.2748 3.01914 26.9738 2.48332 26.438C1.9475 25.9022 1.64648 25.1755 1.64648 24.4177V4.41769C1.64648 3.65993 1.9475 2.9332 2.48332 2.39738C3.01914 1.86157 3.74587 1.56055 4.50363 1.56055H33.0751C33.8328 1.56055 34.5595 1.86157 35.0954 2.39738C35.6312 2.9332 35.9322 3.65993 35.9322 4.41769V17.2748" stroke="#BCBCBC" stroke-width="2.85714" stroke-linecap="round" stroke-linejoin="round"/>
<path d="M1.64648 5.16016L18.7893 17.2744L35.9322 5.16016M20.9722 30.4173C19.9693 30.2459 19.9693 28.803 20.9722 28.6287C22.7473 28.3182 24.3899 27.4869 25.6913 26.2405C26.9927 24.994 27.894 23.3888 28.2808 21.6287L28.3408 21.3544C28.5579 20.363 29.9693 20.3544 30.1951 21.3459L30.2693 21.6659C30.6679 23.4196 31.5764 25.0162 32.8805 26.2547C34.1846 27.4932 35.826 28.3182 37.5979 28.6259C38.6065 28.8002 38.6065 30.2487 37.5979 30.423C35.8263 30.7305 34.1852 31.555 32.8812 32.793C31.5772 34.0309 30.6684 35.6269 30.2693 37.3802L30.1951 37.703C29.9693 38.6916 28.5579 38.6859 28.3408 37.6944L28.2808 37.4202C27.894 35.6601 26.9927 34.0548 25.6913 32.8084C24.3899 31.562 22.7473 30.7306 20.9722 30.4202V30.4173Z" stroke="#BCBCBC" stroke-width="2.85714" stroke-linecap="round" stroke-linejoin="round"/>
</g>
<defs>
<clipPath id="clip0_12346_121354">
<rect width="40" height="40" fill="white"/>
</clipPath>
</defs>
</svg>
