<svg width="32" height="36" viewBox="0 0 32 36" fill="none" xmlns="http://www.w3.org/2000/svg">
<g clip-path="url(#clip0_16076_11516)">
<path d="M29.25 16.3192V6.1875C29.25 4.98131 28.2687 4 27.0625 4H8.6875C7.48131 4 6.5 4.98131 6.5 6.1875V8.375H4.9375C3.73131 8.375 2.75 9.35631 2.75 10.5625V12.6317C1.18288 12.9511 0 14.3399 0 16V32.5625C0 34.4579 1.54206 36 3.4375 36H28.5625C30.4579 36 32 34.4579 32 32.5625V19.6875C32 18.0274 30.8171 16.6386 29.25 16.3192ZM30.125 32.5625C30.125 33.4241 29.4241 34.125 28.5625 34.125H3.4375C2.57594 34.125 1.875 33.4241 1.875 32.5625V16C1.875 15.1384 2.57594 14.4375 3.4375 14.4375H8.42288C8.90038 14.4375 9.34519 14.6514 9.64331 15.0244L11.465 17.3034C11.4651 17.3034 11.4651 17.3035 11.4651 17.3036C11.8826 17.8256 12.5054 18.1251 13.1737 18.1251H28.5625C29.4241 18.1251 30.125 18.826 30.125 19.6876V32.5625ZM4.9375 10.25H23.3125C23.4848 10.25 23.625 10.3902 23.625 10.5625V16.25H13.1737C13.0783 16.25 12.9893 16.2072 12.9296 16.1326L11.1079 13.8536C10.4519 13.0331 9.47331 12.5625 8.42288 12.5625H4.625V10.5625C4.625 10.3902 4.76519 10.25 4.9375 10.25ZM8.6875 5.875H27.0625C27.2348 5.875 27.375 6.01519 27.375 6.1875V16.25H25.5V10.5625C25.5 9.35631 24.5187 8.375 23.3125 8.375H8.375V6.1875C8.375 6.01519 8.51519 5.875 8.6875 5.875Z" fill="#8F8F8F"/>
<path d="M20.3338 27.6189C20.1063 26.7068 19.4943 25.9747 18.696 25.5772C18.9681 25.1139 19.1249 24.5751 19.1249 24C19.1249 22.2769 17.723 20.875 15.9999 20.875C14.2768 20.875 12.8749 22.2769 12.8749 24C12.8749 24.5751 13.0317 25.1139 13.3038 25.5772C12.5055 25.9747 11.8935 26.7068 11.666 27.6189L11.158 29.6564C11.0467 30.1029 11.1453 30.5669 11.4286 30.9295C11.7118 31.2921 12.1382 31.5 12.5983 31.5H19.4015C19.8616 31.5 20.288 31.2921 20.5712 30.9295C20.8545 30.5669 20.9531 30.1029 20.8418 29.6565L20.3338 27.6189ZM15.9999 22.75C16.6892 22.75 17.2499 23.3108 17.2499 24C17.2499 24.6892 16.6892 25.25 15.9999 25.25C15.3107 25.25 14.7499 24.6892 14.7499 24C14.7499 23.3108 15.3107 22.75 15.9999 22.75ZM13.0983 29.625L13.4853 28.0726C13.6245 27.5146 14.1232 27.125 14.6982 27.125H17.3015C17.8765 27.125 18.3753 27.5146 18.5143 28.0726L18.9015 29.625H13.0983Z" fill="#8F8F8F"/>
</g>
<defs>
<clipPath id="clip0_16076_11516">
<rect width="32" height="32" fill="white" transform="translate(0 4)"/>
</clipPath>
</defs>
</svg>
