<svg width="20" height="21" viewBox="0 0 20 21" fill="none" xmlns="http://www.w3.org/2000/svg">
<path d="M17.0311 4.11914C17.0311 3.75959 16.7396 3.4681 16.38 3.4681H3.61963C3.26008 3.4681 2.96859 3.75959 2.96859 4.11914V16.8796C2.96859 17.2391 3.26008 17.5306 3.61963 17.5306H16.38C16.7396 17.5306 17.0311 17.2391 17.0311 16.8796V4.11914ZM18.3332 16.8796C18.3332 17.9582 17.4587 18.8327 16.38 18.8327H3.61963C2.54096 18.8327 1.6665 17.9582 1.6665 16.8796V4.11914C1.6665 3.04047 2.54096 2.16602 3.61963 2.16602H16.38C17.4587 2.16602 18.3332 3.04047 18.3332 4.11914V16.8796Z" fill="#8F8F8F"/>
<path d="M17.6821 4.77018C18.0417 4.77018 18.3332 5.06166 18.3332 5.42122C18.3332 5.78078 18.0417 6.07227 17.6821 6.07227H10.5322L9.41051 8.31633C9.30023 8.53689 9.07456 8.67643 8.82796 8.67643H2.31755C1.95799 8.67643 1.6665 8.38495 1.6665 8.02539C1.6665 7.66583 1.95799 7.37435 2.31755 7.37435H8.42581L9.5475 5.13029L9.59429 5.05094C9.71471 4.87665 9.91437 4.77018 10.13 4.77018H17.6821Z" fill="#8F8F8F"/>
<path d="M9.3488 15.7077V14.4056C9.3488 14.046 9.64028 13.7546 9.99984 13.7546C10.3594 13.7546 10.6509 14.046 10.6509 14.4056V15.7077C10.6509 16.0672 10.3594 16.3587 9.99984 16.3587C9.64028 16.3587 9.3488 16.0672 9.3488 15.7077Z" fill="#8F8F8F"/>
<path d="M9.3488 11.8014V10.4993C9.3488 10.1398 9.64028 9.84831 9.99984 9.84831C10.3594 9.84831 10.6509 10.1398 10.6509 10.4993V11.8014C10.6509 12.161 10.3594 12.4525 9.99984 12.4525C9.64028 12.4525 9.3488 12.161 9.3488 11.8014Z" fill="#8F8F8F"/>
<path d="M12.604 12.4525C12.9636 12.4525 13.255 12.744 13.255 13.1035C13.255 13.4631 12.9636 13.7546 12.604 13.7546H11.3019C10.9424 13.7546 10.6509 13.4631 10.6509 13.1035C10.6509 12.744 10.9424 12.4525 11.3019 12.4525H12.604Z" fill="#8F8F8F"/>
<path d="M11.381 10.8016C11.6353 10.5475 12.0478 10.5474 12.302 10.8016C12.5561 11.0558 12.5561 11.4683 12.302 11.7226L11.381 12.6435C11.1268 12.8976 10.7143 12.8976 10.4601 12.6435C10.2059 12.3893 10.2059 11.9768 10.4601 11.7226L11.381 10.8016Z" fill="#8F8F8F"/>
<path d="M8.61887 13.5637C8.87313 13.3096 9.28561 13.3095 9.53982 13.5637C9.79393 13.818 9.79393 14.2305 9.53982 14.4847L8.61887 15.4056C8.36465 15.6598 7.95214 15.6598 7.69792 15.4056C7.44371 15.1514 7.44378 14.739 7.69792 14.4847L8.61887 13.5637Z" fill="#8F8F8F"/>
<path d="M10.4601 13.5637C10.6984 13.3254 11.0758 13.3105 11.3315 13.519L11.381 13.5637L12.302 14.4847L12.346 14.5342C12.5546 14.7899 12.5403 15.1673 12.302 15.4056C12.0636 15.644 11.6862 15.6583 11.4305 15.4497L11.381 15.4056L10.4601 14.4847L10.4153 14.4352C10.2068 14.1795 10.2217 13.8021 10.4601 13.5637Z" fill="#8F8F8F"/>
<path d="M8.69775 12.4525C9.05731 12.4525 9.3488 12.744 9.3488 13.1035C9.3488 13.4631 9.05731 13.7546 8.69775 13.7546H7.39567C7.03611 13.7546 6.74463 13.4631 6.74463 13.1035C6.74463 12.744 7.03611 12.4525 7.39567 12.4525H8.69775Z" fill="#8F8F8F"/>
<path d="M7.69792 10.8016C7.93626 10.5633 8.31365 10.5483 8.56937 10.7568L8.61887 10.8016L9.53982 11.7226L9.58391 11.7721C9.7925 12.0278 9.77819 12.4051 9.53982 12.6435C9.30146 12.8819 8.92409 12.8962 8.66838 12.6876L8.61887 12.6435L7.69792 11.7226L7.65316 11.673C7.44465 11.4173 7.45958 11.0399 7.69792 10.8016Z" fill="#8F8F8F"/>
<path d="M10.6509 13.1035C10.6509 12.744 10.3594 12.4525 9.99984 12.4525C9.64028 12.4525 9.3488 12.744 9.3488 13.1035C9.3488 13.4631 9.64028 13.7546 9.99984 13.7546C10.3594 13.7546 10.6509 13.4631 10.6509 13.1035ZM11.953 13.1035C11.953 14.1822 11.0785 15.0566 9.99984 15.0566C8.92116 15.0566 8.04671 14.1822 8.04671 13.1035C8.04671 12.0248 8.92116 11.1504 9.99984 11.1504C11.0785 11.1504 11.953 12.0248 11.953 13.1035Z" fill="#8F8F8F"/>
<path d="M5.57275 5.42122C5.57275 5.78078 5.28127 6.07227 4.92171 6.07227C4.56215 6.07227 4.27067 5.78078 4.27067 5.42122C4.27067 5.06166 4.56215 4.77018 4.92171 4.77018C5.28127 4.77018 5.57275 5.06166 5.57275 5.42122Z" fill="#8F8F8F"/>
<path d="M8.17692 5.42122C8.17692 5.78078 7.88544 6.07227 7.52588 6.07227C7.16632 6.07227 6.87484 5.78078 6.87484 5.42122C6.87484 5.06166 7.16632 4.77018 7.52588 4.77018C7.88544 4.77018 8.17692 5.06166 8.17692 5.42122Z" fill="#8F8F8F"/>
</svg>
