<svg width="20" height="21" viewBox="0 0 20 21" fill="none" xmlns="http://www.w3.org/2000/svg">
<path d="M15.729 17.5306H17.0311V16.2285H15.729V17.5306ZM9.3488 17.5306H10.6509V16.2285H9.3488V17.5306ZM2.96859 17.5306H4.27067V16.2285H2.96859V17.5306ZM8.04671 8.02539V7.37435H6.74463V8.02539C6.74463 8.38495 6.45315 8.67643 6.09359 8.67643C5.73403 8.67643 5.44255 8.38495 5.44255 8.02539V7.37435C4.72343 7.37435 4.14046 7.95731 4.14046 8.67643C4.14046 9.39555 4.72343 9.97852 5.44255 9.97852H14.5571C15.2762 9.97852 15.8592 9.39555 15.8592 8.67643C15.8592 7.95731 15.2762 7.37435 14.5571 7.37435H9.3488V8.02539C9.3488 8.38495 9.05731 8.67643 8.69775 8.67643C8.33819 8.67643 8.04671 8.38495 8.04671 8.02539ZM8.04671 4.11914V3.4681H6.74463V4.11914C6.74463 4.4787 6.45315 4.77018 6.09359 4.77018C5.73403 4.77018 5.44255 4.4787 5.44255 4.11914V3.4681C4.72343 3.4681 4.14046 4.05106 4.14046 4.77018C4.14046 5.4893 4.72343 6.07227 5.44255 6.07227H14.5571C15.2762 6.07227 15.8592 5.4893 15.8592 4.77018C15.8592 4.05106 15.2762 3.4681 14.5571 3.4681H9.3488V4.11914C9.3488 4.4787 9.05731 4.77018 8.69775 4.77018C8.33819 4.77018 8.04671 4.4787 8.04671 4.11914ZM17.1613 4.77018C17.1613 5.54834 16.8194 6.24611 16.2783 6.72331C16.8194 7.2005 17.1613 7.89828 17.1613 8.67643C17.1613 10.1147 15.9954 11.2806 14.5571 11.2806H10.6509V12.5827H16.38C16.7396 12.5827 17.0311 12.8742 17.0311 13.2337V14.9264H17.6821C18.0417 14.9264 18.3332 15.2179 18.3332 15.5775V18.1816C18.3332 18.5412 18.0417 18.8327 17.6821 18.8327H15.078C14.7184 18.8327 14.4269 18.5412 14.4269 18.1816V15.5775C14.4269 15.2179 14.7184 14.9264 15.078 14.9264H15.729V13.8848H10.6509V14.9264H11.3019C11.6615 14.9264 11.953 15.2179 11.953 15.5775V18.1816C11.953 18.5412 11.6615 18.8327 11.3019 18.8327H8.69775C8.33819 18.8327 8.04671 18.5412 8.04671 18.1816V15.5775C8.04671 15.2179 8.33819 14.9264 8.69775 14.9264H9.3488V13.8848H4.27067V14.9264H4.92171C5.28127 14.9264 5.57275 15.2179 5.57275 15.5775V18.1816C5.57275 18.5412 5.28127 18.8327 4.92171 18.8327H2.31755C1.95799 18.8327 1.6665 18.5412 1.6665 18.1816V15.5775L1.66989 15.511C1.70319 15.1827 1.98042 14.9264 2.31755 14.9264H2.96859V13.2337L2.97198 13.1673C3.00527 12.8389 3.28251 12.5827 3.61963 12.5827H9.3488V11.2806H5.44255C4.00431 11.2806 2.83838 10.1147 2.83838 8.67643C2.83838 7.89846 3.17982 7.20049 3.72068 6.72331C3.17982 6.24612 2.83838 5.54816 2.83838 4.77018C2.83838 3.33194 4.00431 2.16602 5.44255 2.16602H14.5571C15.9954 2.16602 17.1613 3.33194 17.1613 4.77018Z" fill="#8F8F8F"/>
</svg>
