<svg width="80" height="80" viewBox="0 0 80 80" fill="none" xmlns="http://www.w3.org/2000/svg">
<g clip-path="url(#clip0_16040_13251)">
<path d="M5.33333 80.0013H69.3333C72.2788 80.0013 74.6667 77.6134 74.6667 74.668V70.668C74.6667 69.9313 74.07 69.3346 73.3333 69.3346H70.6667V48.0013H68V69.3346H65.3333V48.0013H62.6667V69.3346H45.6479C44.2283 69.3296 42.9292 70.1326 42.2992 71.4055C42.1175 71.7726 41.7425 72.0046 41.3333 72.0013H33.6479C33.2392 72.0038 32.8646 71.7721 32.6842 71.4055C32.0533 70.1326 30.7542 69.3296 29.3333 69.3346H12V36.0013C12 35.2646 12.5967 34.668 13.3333 34.668H37.3333V32.0013H13.3333C11.1246 32.0013 9.33333 33.7926 9.33333 36.0013V69.3346H6.66667V33.3346C6.66667 31.1259 8.45792 29.3346 10.6667 29.3346H37.3333V26.668H10.6667C6.98667 26.6726 4.00458 29.6546 4 33.3346V69.3346H1.33333C0.596667 69.3346 0 69.9313 0 70.668V74.668C0 77.6134 2.38792 80.0013 5.33333 80.0013ZM2.66667 72.0013H29.3333C29.7421 71.9992 30.1167 72.2301 30.2992 72.5955C30.9283 73.8688 32.2283 74.673 33.6479 74.668H41.3333C42.7542 74.673 44.0542 73.8688 44.6842 72.5955C44.8646 72.2296 45.2396 71.9988 45.6479 72.0013H72V74.668C72 76.1409 70.8063 77.3346 69.3333 77.3346H5.33333C3.86042 77.3346 2.66667 76.1409 2.66667 74.668V72.0013Z" fill="#5C5C5C"/>
<path d="M17.3335 49.3333V60C17.3335 60.7367 17.9302 61.3333 18.6668 61.3333H56.0002C56.7368 61.3333 57.3335 60.7367 57.3335 60V49.3333C57.3335 48.5967 56.7368 48 56.0002 48H18.6668C17.9302 48 17.3335 48.5967 17.3335 49.3333ZM20.0002 50.6667H54.6668V58.6667H20.0002V50.6667Z" fill="#5C5C5C"/>
<path d="M22.6665 53.332H25.3332V55.9987H22.6665V53.332Z" fill="#5C5C5C"/>
<path d="M28 53.332H30.6667V55.9987H28V53.332Z" fill="#5C5C5C"/>
<path d="M33.3335 53.332H36.0002V55.9987H33.3335V53.332Z" fill="#5C5C5C"/>
<path d="M38.667 53.332H41.3337V55.9987H38.667V53.332Z" fill="#5C5C5C"/>
<path d="M76 20.0496V16C76 7.16333 68.8367 0 60 0C51.1633 0 44 7.16333 44 16V20.0496C41.7313 20.2913 40.0079 22.2008 40 24.4825V40.8508C40.0033 43.3254 42.0092 45.3312 44.4838 45.3333H75.5163C77.9908 45.3312 79.9967 43.3254 80 40.8508V24.4825C79.9921 22.2008 78.2687 20.2913 76 20.0496ZM46.6667 16C46.6667 8.63583 52.6358 2.66667 60 2.66667C67.3642 2.66667 73.3333 8.63583 73.3333 16V20H70.6667V16C70.6667 10.1088 65.8913 5.33333 60 5.33333C54.1088 5.33333 49.3333 10.1088 49.3333 16V20H46.6667V16ZM52 20V16C52 11.5825 55.5825 8 60 8C64.4175 8 68 11.5825 68 16V20H52ZM77.3333 40.8508C77.3325 41.8538 76.5187 42.6663 75.5163 42.6667H44.4838C43.4813 42.6663 42.6675 41.8538 42.6667 40.8508V24.4825C42.6675 23.4796 43.4813 22.6671 44.4838 22.6667H75.5163C76.5187 22.6671 77.3325 23.4796 77.3333 24.4825V40.8508Z" fill="#5C5C5C"/>
<path d="M59.9998 28C58.054 27.9958 56.3894 29.3963 56.059 31.3146C55.7294 33.2325 56.8311 35.1083 58.6665 35.7546V38.6667H61.3332V35.7546C63.1686 35.1083 64.2703 33.2325 63.9407 31.3146C63.6103 29.3963 61.9457 27.9958 59.9998 28ZM59.9998 33.3333C59.2632 33.3333 58.6665 32.7367 58.6665 32C58.6665 31.2633 59.2632 30.6667 59.9998 30.6667C60.7365 30.6667 61.3332 31.2633 61.3332 32C61.3332 32.7367 60.7365 33.3333 59.9998 33.3333Z" fill="#5C5C5C"/>
<path d="M24 21.334H26.6667V24.0007H24V21.334Z" fill="#5C5C5C"/>
<path d="M24 16H26.6667V18.6667H24V16Z" fill="#5C5C5C"/>
<path d="M24 10.666H26.6667V13.3327H24V10.666Z" fill="#5C5C5C"/>
<path d="M24 5.33398H26.6667V8.00065H24V5.33398Z" fill="#5C5C5C"/>
<path d="M29.3335 5.33398H32.0002V8.00065H29.3335V5.33398Z" fill="#5C5C5C"/>
<path d="M34.6665 5.33398H37.3332V8.00065H34.6665V5.33398Z" fill="#5C5C5C"/>
<path d="M40 5.33398H42.6667V8.00065H40V5.33398Z" fill="#5C5C5C"/>
</g>
<defs>
<clipPath id="clip0_16040_13251">
<rect width="80" height="80" fill="white"/>
</clipPath>
</defs>
</svg>
