<svg width="20" height="21" viewBox="0 0 20 21" fill="none" xmlns="http://www.w3.org/2000/svg">
<path d="M16.9515 16.1988C16.9515 16.8904 16.3909 17.451 15.6993 17.451H4.30036C3.60881 17.451 3.0482 16.8904 3.0482 16.1988V9.19727C3.0482 8.62017 3.31068 8.07425 3.76131 7.7137L8.16275 4.192L8.26193 4.11577C8.76513 3.7471 9.37388 3.54771 9.99984 3.54771C10.6675 3.54771 11.3156 3.77492 11.8369 4.192L16.2384 7.7137L16.3207 7.78319C16.7209 8.14235 16.9515 8.65617 16.9515 9.19727V16.1988ZM11.8565 14.9035H8.14319V11.7947C8.14319 11.4608 8.41382 11.1902 8.74768 11.1902H11.252C11.5859 11.1902 11.8565 11.4608 11.8565 11.7947V14.9035ZM13.2382 11.7947C13.2382 10.6977 12.349 9.8085 11.252 9.8085H8.74768C7.65073 9.80851 6.7615 10.6977 6.7615 11.7947V15.5943C6.7615 15.9759 7.07081 16.2852 7.45234 16.2852H12.5473C12.9289 16.2852 13.2382 15.9759 13.2382 15.5943V11.7947ZM18.3332 9.19727C18.3332 8.26267 17.9348 7.37538 17.2436 6.75502L17.1019 6.63425L12.6998 3.11323C11.9334 2.50013 10.9812 2.16602 9.99984 2.16602C9.0798 2.16602 8.18526 2.45937 7.44559 3.00124L7.29987 3.11323L2.89842 6.63425C2.12002 7.25699 1.6665 8.20037 1.6665 9.19727V16.1988C1.6665 17.6535 2.84572 18.8327 4.30036 18.8327H15.6993C17.154 18.8327 18.3332 17.6535 18.3332 16.1988V9.19727Z" fill="#8F8F8F"/>
</svg>
