<svg width="20" height="21" viewBox="0 0 20 21" fill="none" xmlns="http://www.w3.org/2000/svg">
<path d="M13.5058 11.1516C13.7625 11.1516 14.0069 11.0547 14.1938 10.8787L14.4251 10.6611C14.637 10.4616 14.7519 10.1811 14.7402 9.89139C14.6581 7.86095 14.1642 5.96523 13.3488 4.55347C13.28 4.43439 13.2091 4.32002 13.1367 4.20921C15.4435 5.36399 17.0311 7.75027 17.0311 10.5007C17.0311 10.9309 16.991 11.3626 16.912 11.7835C16.8457 12.137 17.0784 12.4772 17.4318 12.5436C17.7851 12.6098 18.1255 12.377 18.1918 12.0236C18.2856 11.5238 18.3332 11.0113 18.3332 10.5007C18.3332 8.27467 17.4664 6.18202 15.8924 4.60804C14.3185 3.0342 12.2257 2.16732 9.99984 2.16732C9.99297 2.16732 9.98623 2.16757 9.97948 2.16757C9.97541 2.16757 9.97134 2.16732 9.96727 2.16732C9.95264 2.16732 9.93814 2.16808 9.92363 2.16821C7.72628 2.1878 5.66327 3.05214 4.10723 4.60817C2.53339 6.18202 1.6665 8.2748 1.6665 10.5007C1.6665 12.7266 2.53339 14.8193 4.10723 16.3933C5.66327 17.9492 7.72628 18.8135 9.92363 18.8331C9.93814 18.8332 9.95264 18.834 9.96727 18.834C9.96943 18.834 9.97147 18.8337 9.97363 18.8336C9.98241 18.8337 9.99106 18.834 9.99984 18.834C10.3594 18.834 10.6508 18.5425 10.6508 18.183V11.1516H13.5058ZM13.4329 9.80679L13.3875 9.84966H10.6508V3.61509C12.1004 4.23478 13.2787 6.76622 13.4329 9.80679ZM9.34885 3.59257V9.84966H6.49936C6.57887 8.15127 6.96881 6.58213 7.61738 5.37697C8.10972 4.46199 8.71834 3.84192 9.34885 3.59257ZM6.76538 4.25895C6.6636 4.41772 6.56526 4.58438 6.47074 4.75995C5.72382 6.1478 5.27855 7.93525 5.19611 9.84966H2.99901C3.22356 7.4153 4.69397 5.33664 6.76538 4.25895ZM2.99901 11.1516H5.19611C5.27855 13.0661 5.72382 14.8535 6.47074 16.2414C6.56514 16.4169 6.6636 16.5836 6.76538 16.7425C4.69397 15.6647 3.22356 13.586 2.99901 11.1516ZM9.34885 17.4089C8.71834 17.1595 8.10972 16.5393 7.61738 15.6243C6.96881 14.4192 6.57887 12.8502 6.49936 11.1516H9.34885V17.4089ZM18.2855 17.9186L15.6832 12.0594C15.5787 11.824 15.3454 11.6725 15.0882 11.6725H15.0854C14.827 11.6736 14.5936 11.8274 14.4909 12.0646L11.95 17.924C11.843 18.1707 11.8987 18.4577 12.0902 18.6465C12.2146 18.7692 12.3798 18.834 12.5474 18.834C12.6378 18.834 12.7288 18.8153 12.8146 18.7766L15.1464 17.7265L17.3896 18.7611C17.7955 18.9482 18.0724 18.7208 18.1477 18.6466C18.3407 18.4563 18.3955 18.1663 18.2855 17.9186ZM15.4224 16.4198C15.2511 16.341 15.0542 16.3401 14.8823 16.4174L13.8139 16.8986L15.0953 13.9436L16.3942 16.8682C16.0427 16.706 15.6937 16.5452 15.4224 16.4198Z" fill="#8F8F8F"/>
</svg>
