<svg width="80" height="80" viewBox="0 0 80 80" fill="none" xmlns="http://www.w3.org/2000/svg">
<g clip-path="url(#clip0_47_4084)">
<mask id="mask0_47_4084" style="mask-type:luminance" maskUnits="userSpaceOnUse" x="0" y="0" width="81" height="81">
<path d="M0.000610352 0.00708771H80.0006V80.0071H0.000610352V0.00708771Z" fill="white"/>
</mask>
<g mask="url(#mask0_47_4084)">
<path d="M6.68811 2.35231H72.6256C75.2143 2.35231 77.3131 4.45106 77.3131 7.03981V72.9773C77.3131 75.566 75.2143 77.6648 72.6256 77.6648H6.68811C4.09936 77.6648 2.00061 75.566 2.00061 72.9773V7.03981C2.00061 4.45106 4.09936 2.35231 6.68811 2.35231Z" stroke="#5C5C5C" stroke-width="3" stroke-miterlimit="10" stroke-linecap="round" stroke-linejoin="round"/>
<path d="M2.34442 21.1021H31.2943C33.6616 21.1021 35.8257 19.7646 36.8844 17.6473L44.5319 2.35212" stroke="#5C5C5C" stroke-width="3" stroke-miterlimit="10" stroke-linecap="round" stroke-linejoin="round"/>
<path d="M9.37567 11.7271C9.37567 10.4327 10.425 9.38337 11.7194 9.38337C13.0138 9.38337 14.0632 10.4327 14.0632 11.7271C14.0632 13.0215 13.0138 14.0709 11.7194 14.0709C10.425 14.0709 9.37567 13.0215 9.37567 11.7271Z" fill="#DC2626"/>
<path d="M18.7507 11.7271C18.7507 10.4327 19.8 9.38337 21.0944 9.38337C22.3888 9.38337 23.4382 10.4327 23.4382 11.7271C23.4382 13.0215 22.3888 14.0709 21.0944 14.0709C19.8 14.0709 18.7507 13.0215 18.7507 11.7271Z" fill="#E09400"/>
<path d="M28.1257 11.7271C28.1257 10.4327 29.175 9.38337 30.4694 9.38337C31.7638 9.38337 32.8132 10.4327 32.8132 11.7271C32.8132 13.0215 31.7638 14.0709 30.4694 14.0709C29.175 14.0709 28.1257 13.0215 28.1257 11.7271Z" fill="#0BAA60"/>
<path d="M76.5001 11.7271H39.8444" stroke="#5C5C5C" stroke-width="3" stroke-miterlimit="10" stroke-linecap="round" stroke-linejoin="round"/>
</g>
<path d="M44 55C44 55 44 51.9733 44 51C44 50.16 44.2 48.3867 43.3333 47.6667C45.1867 47.4933 46.64 46.8933 48 45.6667C49.36 44.44 50 42.5867 50 39.6667C50 37.6667 49.6667 36.3333 48.6667 35C49.0533 33.96 49.12 32.3333 48.6667 31C46.5867 31 44.7067 32.4267 44 33C43.48 32.8667 42.2267 32.3333 40 32.3333C37.7733 32.3333 36.52 32.8667 36 33C35.2933 32.4267 33.4133 31 31.3333 31C30.88 32.3333 30.9467 33.96 31.3333 35C30.3333 36.3333 30 37.6667 30 39.6667C30 42.5867 30.64 44.44 32 45.6667C33.36 46.8933 34.8133 47.4933 36.6667 47.6667C35.8 48.3867 36 50.16 36 51C36 51.9733 36 55 36 55" stroke="#5C5C5C" stroke-width="2.66667" stroke-linecap="round" stroke-linejoin="round"/>
<path d="M36 52.3333C34.12 52.3333 32.2133 51.5867 31.08 50.7467C29.96 49.9067 29.6267 48.5333 28 47.6667" stroke="#5C5C5C" stroke-width="2.66667" stroke-linecap="round" stroke-linejoin="round"/>
<path d="M60.4385 56.8312C60.2119 56.6046 59.9399 56.4913 59.6226 56.4913L56.0868 56.4913C55.7695 56.4913 55.4975 56.6046 55.2709 56.8312C55.0329 57.0692 54.9196 57.3639 54.9309 57.7152C54.9649 57.7152 55.0711 57.7138 55.2496 57.7109C55.4281 57.7081 55.5499 57.7081 55.6151 57.7109C55.6803 57.7138 55.7766 57.7251 55.9041 57.7449C56.0316 57.7648 56.1406 57.8002 56.2313 57.8512C56.322 57.9022 56.4098 57.9702 56.4948 58.0552C56.7214 58.2818 56.8348 58.5538 56.8348 58.8711C56.8348 59.1884 56.7214 59.4604 56.4948 59.6871C56.4098 59.7721 56.322 59.84 56.2313 59.891C56.1406 59.942 56.0316 59.9775 55.9041 59.9973C55.7766 60.0171 55.6803 60.0285 55.6151 60.0313C55.5499 60.0341 55.4281 60.0341 55.2496 60.0313C55.0711 60.0284 54.9649 60.027 54.9309 60.027C54.9196 60.3897 55.0329 60.69 55.2709 60.928C55.4975 61.1546 55.7695 61.268 56.0868 61.268L59.5971 61.2765C59.9031 61.2765 60.1722 61.1603 60.4045 60.928C60.6312 60.7013 60.7502 60.435 60.7615 60.129L60.77 57.6387C60.77 57.3214 60.6595 57.0522 60.4385 56.8312ZM48.4713 56.8142C48.2447 56.5876 47.9727 56.4743 47.6554 56.4743L44.1451 56.4658C43.8278 56.4658 43.5558 56.5791 43.3292 56.8057C43.1082 57.0267 42.992 57.2959 42.9807 57.6132L42.9722 60.1035C42.9722 60.4208 43.0827 60.69 43.3037 60.911C43.5303 61.1376 43.8023 61.251 44.1196 61.251L47.6554 61.251C47.9613 61.251 48.2305 61.1348 48.4628 60.9025C48.7008 60.6645 48.817 60.3727 48.8113 60.027C48.7773 60.027 48.6711 60.0284 48.4926 60.0313C48.3141 60.0341 48.1923 60.0341 48.1271 60.0313C48.0619 60.0284 47.9656 60.0171 47.8381 59.9973C47.7106 59.9775 47.6015 59.942 47.5109 59.891C47.4202 59.84 47.3324 59.7721 47.2474 59.6871C47.0207 59.4604 46.9074 59.1884 46.9074 58.8711C46.9074 58.5538 47.0207 58.2818 47.2474 58.0552C47.3324 57.9702 47.4202 57.9022 47.5109 57.8512C47.6015 57.8002 47.7106 57.7648 47.8381 57.7449C47.9656 57.7251 48.0619 57.7138 48.1271 57.7109C48.1923 57.7081 48.3141 57.7081 48.4926 57.7109C48.6711 57.7138 48.7773 57.7152 48.8113 57.7152C48.8226 57.3525 48.7093 57.0522 48.4713 56.8142ZM62.0704 55.1993C62.7504 55.8793 63.0847 56.6953 63.0734 57.6472L63.0649 60.1375C63.0649 61.0781 62.7249 61.8884 62.0449 62.5684C61.3593 63.254 60.5405 63.5911 59.5886 63.5798L56.0783 63.5713C55.1377 63.5713 54.3274 63.2313 53.6475 62.5514C52.9505 61.8544 52.6077 61.013 52.619 60.027L51.1231 60.027C51.1345 61.013 50.7945 61.8516 50.1032 62.5429C49.4233 63.2228 48.6073 63.5628 47.6554 63.5628L44.1196 63.5628C43.1677 63.5628 42.3517 63.2228 41.6718 62.5429C40.9918 61.8629 40.6575 61.047 40.6688 60.095L40.6773 57.6047C40.6773 56.6641 41.0173 55.8538 41.6973 55.1739C42.3829 54.4882 43.2017 54.1511 44.1536 54.1624L47.6639 54.1709C48.6045 54.1709 49.4148 54.5109 50.0947 55.1908C50.7917 55.8878 51.1345 56.7292 51.1231 57.7152L52.619 57.7152C52.6077 56.7292 52.9477 55.8906 53.639 55.1993C54.3189 54.5194 55.1349 54.1794 56.0868 54.1794H59.6226C60.5745 54.1794 61.3905 54.5194 62.0704 55.1993Z" fill="#5C5C5C"/>
</g>
<defs>
<clipPath id="clip0_47_4084">
<rect width="80" height="80" fill="white"/>
</clipPath>
</defs>
</svg>
