<svg width="16" height="16" viewBox="0 0 16 16" fill="none" xmlns="http://www.w3.org/2000/svg">
<path fill-rule="evenodd" clip-rule="evenodd" d="M16 8C16 12.42 12.42 16 8 16C3.58 16 0 12.42 0 8C0 3.58 3.58 0 8 0C12.42 0 16 3.58 16 8ZM6.36 14.81V13.32C4.46 13.746 4.05 12.468 4.05 12.468C3.744 11.64 3.292 11.428 3.292 11.428C2.67 10.99 3.337 10.99 3.337 10.99C4.027 11.037 4.387 11.724 4.387 11.724C4.998 12.814 5.987 12.505 6.377 12.316C6.434 11.854 6.615 11.535 6.807 11.357C5.287 11.191 3.697 10.576 3.697 7.827C3.697 7.046 3.968 6.407 4.399 5.907C4.331 5.73 4.093 4.996 4.467 4.017C4.467 4.017 5.044 3.828 6.347 4.751C6.90368 4.59513 7.47891 4.51541 8.057 4.514C8.634 4.514 9.227 4.597 9.767 4.751C11.067 3.828 11.647 4.017 11.647 4.017C12.021 4.999 11.783 5.737 11.715 5.907C12.157 6.404 12.417 7.047 12.417 7.827C12.417 10.577 10.817 11.177 9.297 11.357C9.547 11.582 9.798 12.008 9.798 12.687V14.777C11.2919 14.3819 12.613 13.5035 13.5555 12.2789C14.4979 11.0543 15.0086 9.55226 15.008 8.007C15.008 4.137 11.878 1.007 8.008 1.007C4.138 1.007 1.008 4.137 1.008 8.007C1.008 11.307 3.298 14.077 6.368 14.817L6.36 14.81Z" fill="white"/>
</svg>
