<svg width="24" height="24" viewBox="0 0 24 24" fill="none" xmlns="http://www.w3.org/2000/svg">
<path d="M23.7665 9.64975H22.7999V9.59995H11.9999V14.3999H18.7817C17.7923 17.1941 15.1337 19.1999 11.9999 19.1999C8.02376 19.1999 4.79998 15.9761 4.79998 11.9999C4.79998 8.02376 8.02376 4.79998 11.9999 4.79998C13.8353 4.79998 15.5051 5.49237 16.7765 6.62337L20.1707 3.22918C18.0275 1.23179 15.1607 0 11.9999 0C5.37297 0 0 5.37297 0 11.9999C0 18.6269 5.37297 23.9999 11.9999 23.9999C18.6269 23.9999 23.9999 18.6269 23.9999 11.9999C23.9999 11.1953 23.9171 10.4099 23.7665 9.64975Z" fill="#FFC107"/>
<path d="M1.38281 6.41457L5.32539 9.30596C6.39219 6.66477 8.97577 4.79998 11.9992 4.79998C13.8345 4.79998 15.5043 5.49237 16.7757 6.62337L20.1699 3.22918C18.0267 1.23179 15.1599 0 11.9992 0C7.38998 0 3.3928 2.60219 1.38281 6.41457Z" fill="#FF3D00"/>
<path d="M12.0033 23.9992C15.1028 23.9992 17.9192 22.813 20.0486 20.884L16.3346 17.7412C15.0894 18.6883 13.5677 19.2005 12.0033 19.1992C8.88207 19.1992 6.23189 17.209 5.23349 14.4316L1.32031 17.4466C3.3063 21.3328 7.33948 23.9992 12.0033 23.9992Z" fill="#4CAF50"/>
<path d="M23.7665 9.65039H22.7999V9.60059H12V14.4006H18.7818C18.3085 15.7304 17.456 16.8925 16.3296 17.7431L16.3314 17.7419L20.0454 20.8847C19.7826 21.1235 23.9999 18.0005 23.9999 12.0006C23.9999 11.196 23.9171 10.4106 23.7665 9.65039Z" fill="#1976D2"/>
</svg>
