<svg width="1845" height="507" viewBox="0 0 1845 507" fill="none" xmlns="http://www.w3.org/2000/svg">
<path fill-rule="evenodd" clip-rule="evenodd" d="M222.536 0.906901C202.113 1.44906 181.557 5.71661 162.016 12.7569C86.3389 44.3414 33.7109 113.257 9.90247 195.944C5.88276 211.465 2.62207 227.002 0.87168 243.034C0.87168 243.553 -0.383026 259.338 1.8708 255.078C4.12462 251.329 5.12374 245.807 6.37845 241.539C17.9032 202.705 31.9528 167.365 53.4996 133.79C105.128 57.8489 188.071 8.99279 275.768 36.0619C292.064 41.5609 306.594 49.5926 321.124 59.1113C323.873 61.1173 344.173 77.1574 339.666 62.6199C335.909 51.1106 326.39 41.3131 318.111 33.5448C290.244 9.42651 256.584 0.000724912 222.536 0.906901ZM862.615 76.8863C850.842 76.8863 841.827 80.9138 835.553 89.1855C829.032 97.194 826.035 109.23 826.035 125.022V239.293C811.497 223.261 796.471 211.721 781.19 203.937C770.672 198.86 759.416 195.48 747.84 193.923C740.205 192.896 732.509 192.397 724.806 192.428C686.468 192.428 655.139 205.943 631.594 232.997C608.025 260.066 596.253 297.668 596.253 346.029C596.253 368.838 599.274 390.121 605.028 409.67C611.054 429.219 619.814 446.25 631.338 460.788C642.423 474.842 656.443 486.306 672.418 494.378C688.211 502.123 705.242 506.151 723.792 506.151C732.071 506.151 740.087 505.376 747.84 503.881C752.771 503.104 757.632 501.936 762.378 500.388C774.114 496.387 785.181 490.643 795.209 483.349C805.495 475.821 815.509 466.054 826.035 454.282V461.779C826.035 476.084 829.551 486.858 836.305 494.618C843.066 502.131 852.104 506.151 862.615 506.151C872.885 506.151 881.908 502.394 888.677 495.122C895.446 487.601 898.691 476.588 898.691 461.779V120.995C898.691 106.72 895.694 95.6914 889.42 88.1709C882.922 80.6582 873.891 76.8863 862.615 76.8863ZM1808.29 76.8863C1796.52 76.8863 1787.5 80.9138 1781.24 89.1855C1774.96 97.194 1771.71 109.23 1771.71 125.022V239.293C1757.18 223.261 1742.14 211.721 1726.87 203.937C1717.34 199.174 1706.07 195.688 1693.53 193.923C1685.89 192.895 1678.19 192.396 1670.47 192.428C1632.15 192.428 1601.08 205.943 1577.26 232.997C1553.72 260.066 1541.93 297.668 1541.93 346.029C1541.93 368.838 1544.93 390.121 1550.94 409.67C1556.95 429.219 1565.47 446.25 1577.01 460.788C1588.1 474.847 1602.12 486.312 1618.11 494.378C1633.89 502.123 1650.94 506.151 1669.48 506.151C1677.99 506.151 1686.01 505.376 1693.53 503.881C1698.55 503.138 1703.29 501.891 1708.05 500.388C1719.79 496.388 1730.85 490.644 1740.88 483.349C1751.16 475.821 1761.44 466.054 1771.7 454.282V461.779C1771.7 476.084 1775.21 486.858 1781.98 494.618C1789 502.131 1797.77 506.151 1808.28 506.151C1819.07 506.151 1827.82 502.394 1834.61 495.122C1841.38 487.601 1844.88 476.588 1844.88 461.779V120.995C1844.88 106.72 1841.63 95.6914 1835.37 88.1709C1828.85 80.6582 1820.08 76.8863 1808.28 76.8863H1808.29ZM202.786 97.7594C192.194 97.4822 181.702 99.8768 172.278 104.722C140.957 120.499 128.418 158.837 144.458 190.158C160.243 221.487 198.565 234.027 229.894 217.994C261.215 202.202 273.747 163.864 257.715 132.558C252.565 122.33 244.736 113.692 235.062 107.564C225.389 101.435 214.234 98.0468 202.786 97.7594ZM1075.86 191.413C1053.55 191.669 1033.26 195.425 1014.72 202.427C995.668 209.963 979.643 220.744 966.616 234.53C953.573 248.549 943.551 265.356 936.782 284.889C930.013 304.445 926.512 325.744 926.512 348.538C926.512 397.154 940.546 435.229 968.103 463.537C994.165 490.366 1030.01 504.385 1075.86 505.88C1078.61 506.143 1081.12 506.151 1083.88 506.151C1105.68 506.151 1124.72 503.386 1141.52 497.631C1158.3 491.853 1172.08 484.852 1183.1 476.317C1194.38 467.565 1202.4 458.534 1207.92 449.255C1213.44 439.992 1216.18 431.728 1216.18 424.967C1216.18 417.198 1213.68 410.932 1208.92 406.657C1203.93 402.413 1197.39 400.144 1189.62 400.144C1182.11 400.144 1176.61 401.909 1172.58 405.162C1164.87 412.5 1157.02 419.687 1149.04 426.717C1142.73 432.022 1136.11 436.956 1129.23 441.495C1121.95 446.002 1114.7 449.526 1106.93 451.525C1099.41 453.771 1090.89 454.777 1081.62 454.777C1079.61 454.777 1077.61 454.777 1075.86 454.522C1064.34 453.771 1053.55 450.518 1043.8 444.492C1032.51 437.738 1023.23 427.724 1016.49 414.689C1009.46 401.158 1005.95 385.621 1005.7 368.087H1157.04C1177.1 368.087 1192.88 365.081 1204.15 359.567C1215.19 353.557 1220.7 341.017 1220.7 321.724C1220.7 300.673 1215.43 280.133 1204.65 259.841C1193.88 239.781 1177.6 223.261 1156.05 210.458C1134.49 197.694 1108.42 191.413 1078.37 191.413H1075.86ZM1385.33 191.413C1363.03 191.669 1342.48 195.425 1324.19 202.427C1305.14 209.963 1289.11 220.744 1275.81 234.53C1263.03 248.549 1253.02 265.356 1246.27 284.889C1239.49 304.445 1235.98 325.744 1235.98 348.538C1235.98 397.154 1249.76 435.229 1277.33 463.537C1303.37 490.366 1339.47 504.385 1385.33 505.88C1387.85 506.143 1390.57 506.151 1393.33 506.151C1414.89 506.151 1434.19 503.386 1450.97 497.631C1467.75 491.853 1481.54 484.852 1492.56 476.317C1503.61 467.565 1511.86 458.534 1517.38 449.255C1522.88 439.992 1525.65 431.728 1525.65 424.967C1525.65 417.198 1523.13 410.932 1518.12 406.657C1513.37 402.413 1506.86 400.144 1498.84 400.144C1491.56 400.144 1486.05 401.909 1482.04 405.162C1472.26 414.185 1464.52 421.45 1458.5 426.717C1452.1 432.023 1445.4 436.958 1438.44 441.495C1431.45 446.002 1423.91 449.526 1416.4 451.525C1408.62 453.771 1400.37 454.777 1391.09 454.777C1389.08 454.777 1387.08 454.777 1385.33 454.522C1373.8 453.771 1363.02 450.518 1353.24 444.492C1341.72 437.738 1332.7 427.724 1325.69 414.689C1318.92 401.158 1315.4 385.621 1315.15 368.087H1466.24C1486.55 368.087 1502.34 365.081 1513.37 359.567C1524.65 353.557 1530.14 341.017 1530.14 321.724C1530.14 300.673 1524.65 280.133 1513.87 259.841C1503.1 239.781 1487.05 223.261 1465.25 210.458C1443.69 197.694 1417.9 191.413 1387.57 191.413H1385.33ZM332.904 191.932C321.627 191.932 312.844 195.681 306.586 202.946C300.073 209.963 296.812 220.992 296.812 235.769V459.03C296.812 474.055 300.32 485.843 307.578 493.867C314.858 502.123 323.866 506.151 335.15 506.151C346.675 506.151 355.938 502.123 363.218 494.378C370.483 486.354 374.247 474.806 374.247 459.03V362.564C374.247 330.732 375.998 309.441 379.754 297.908C385.013 283.386 393.548 272.117 404.817 263.845C416.102 255.821 428.626 251.562 442.412 251.562C463.44 251.562 477.73 258.331 484.754 271.846C491.764 285.392 495.288 304.918 495.288 330.492V459.03C495.288 474.055 498.781 485.843 506.053 493.867C513.311 502.123 522.589 506.151 534.114 506.151C545.383 506.151 554.654 502.123 561.671 494.107C568.696 486.354 572.445 474.558 572.445 459.03V315.459C572.445 298.427 571.701 284.378 570.191 273.604C568.688 262.575 565.443 252.321 560.176 242.786C552.16 226.506 540.38 213.975 524.34 205.199C508.3 196.424 490.021 191.932 469.714 191.932C448.662 191.932 430.121 196.176 413.833 204.456C397.8 212.968 383.023 226.003 369.221 244.033V234.53C369.221 225.507 367.726 217.739 364.473 211.217C361.22 204.711 356.705 199.94 351.198 196.68C345.668 193.419 339.658 191.932 332.904 191.932ZM1075.62 245.296H1075.86C1095.89 245.296 1112.18 251.809 1124.46 264.844C1137.01 277.864 1144.01 297.668 1146.01 324.234H1005.69C1008.45 298.179 1015.97 278.375 1028.24 265.1C1040.52 251.817 1056.3 245.296 1075.61 245.296H1075.62ZM1385.08 245.296H1385.33C1405.38 245.296 1421.64 251.809 1433.92 264.844C1446.21 277.864 1453.47 297.668 1455.23 324.234H1315.16C1317.66 298.179 1325.18 278.375 1337.71 265.1C1350 251.817 1365.78 245.296 1385.08 245.296ZM746.864 249.803H747.84C761.123 249.803 773.407 253.815 784.436 261.591C795.96 269.352 804.999 280.629 811.753 295.414C818.282 310.2 821.782 327.99 821.782 348.546C821.782 370.588 818.282 388.874 811.753 403.404C804.999 417.942 795.96 428.707 784.691 435.717C773.654 442.734 761.123 446.266 747.84 446.266H747.608C734.077 446.266 721.785 442.501 710.509 435.237C698.999 427.724 690.216 416.695 683.711 402.165C677.189 387.38 673.936 369.589 673.936 348.538C673.936 328.741 676.957 311.199 682.967 296.413C689.225 281.388 697.745 269.848 709.014 261.832C720.043 253.552 732.822 249.803 746.864 249.803ZM1692.77 249.803H1693.53C1706.81 249.803 1719.09 253.815 1730.37 261.591C1741.64 269.352 1750.68 280.629 1757.43 295.414C1764.2 310.2 1767.46 327.99 1767.46 348.546C1767.46 370.588 1764.2 388.874 1757.43 403.404C1750.68 417.942 1741.63 428.707 1730.61 435.717C1719.51 442.704 1706.64 446.365 1693.53 446.266H1693.29C1679.77 446.266 1667.47 442.501 1656.19 435.237C1644.93 427.724 1635.91 416.695 1629.4 402.165C1622.88 387.38 1619.62 369.589 1619.62 348.538C1619.62 328.741 1622.6 311.207 1628.88 296.413C1634.89 281.388 1643.67 269.848 1654.7 261.832C1665.99 253.552 1678.5 249.803 1692.77 249.803ZM245.694 252.321C225.634 264.325 202.089 271.102 177.034 271.102C171.783 271.102 166.764 270.862 161.497 270.351V454.777C161.497 471.817 165.509 484.596 173.285 493.123C181.302 501.891 191.084 506.151 203.36 506.151C215.876 506.151 226.169 501.891 233.914 493.371C241.698 484.852 245.694 472.072 245.694 454.777V252.328V252.321Z" fill="#676767"/>
</svg>
