<svg width="14" height="14" viewBox="0 0 14 14" fill="none" xmlns="http://www.w3.org/2000/svg">
<path d="M7.00065 1.66927C4.05513 1.66927 1.66732 4.05709 1.66732 7.0026C1.66732 9.94812 4.05513 12.3359 7.00065 12.3359C9.94617 12.3359 12.334 9.94812 12.334 7.0026C12.334 4.05709 9.94617 1.66927 7.00065 1.66927ZM0.333984 7.0026C0.333984 3.32071 3.31875 0.335938 7.00065 0.335938C10.6825 0.335938 13.6673 3.32071 13.6673 7.0026C13.6673 10.6845 10.6825 13.6693 7.00065 13.6693C3.31875 13.6693 0.333984 10.6845 0.333984 7.0026ZM7.00065 3.0026C7.36884 3.0026 7.66732 3.30108 7.66732 3.66927V6.72646L9.47205 8.5312C9.7324 8.79155 9.7324 9.21366 9.47205 9.47401C9.21171 9.73436 8.78959 9.73436 8.52925 9.47401L6.52925 7.47401C6.40422 7.34898 6.33398 7.17941 6.33398 7.0026V3.66927C6.33398 3.30108 6.63246 3.0026 7.00065 3.0026Z" fill="#FF6905"/>
</svg>
