<svg width="14" height="14" viewBox="0 0 14 14" fill="none" xmlns="http://www.w3.org/2000/svg">
<mask id="mask0_2896_11051" style="mask-type:alpha" maskUnits="userSpaceOnUse" x="0" y="0" width="14" height="14">
<rect width="14" height="14" fill="#D9D9D9"/>
</mask>
<g mask="url(#mask0_2896_11051)">
<path d="M3.04792 10.9521C2.53264 10.4465 2.12917 9.85833 1.8375 9.1875C1.54583 8.50694 1.4 7.78264 1.4 7.01458C1.4 6.22708 1.54583 5.49792 1.8375 4.82708C2.12917 4.14653 2.52778 3.54861 3.03333 3.03333L3.77708 3.77708C3.36875 4.19514 3.04306 4.68125 2.8 5.23542C2.56667 5.77986 2.45 6.36806 2.45 7C2.45 7.63194 2.56667 8.225 2.8 8.77917C3.04306 9.32361 3.37361 9.8 3.79167 10.2083L3.04792 10.9521ZM4.52083 9.47917C4.20972 9.15833 3.96181 8.78889 3.77708 8.37083C3.59236 7.94306 3.5 7.48611 3.5 7C3.5 6.51389 3.59236 6.06181 3.77708 5.64375C3.96181 5.21597 4.20972 4.84167 4.52083 4.52083L5.26458 5.26458C5.04097 5.48819 4.86597 5.75069 4.73958 6.05208C4.61319 6.34375 4.55 6.65972 4.55 7C4.55 7.34028 4.61319 7.66111 4.73958 7.9625C4.86597 8.25417 5.04097 8.51181 5.26458 8.73542L4.52083 9.47917ZM7 8.225C6.65972 8.225 6.36806 8.10833 6.125 7.875C5.89167 7.63194 5.775 7.34028 5.775 7C5.775 6.65972 5.89167 6.37292 6.125 6.13958C6.36806 5.89653 6.65972 5.775 7 5.775C7.34028 5.775 7.62708 5.89653 7.86042 6.13958C8.10347 6.37292 8.225 6.65972 8.225 7C8.225 7.34028 8.10347 7.63194 7.86042 7.875C7.62708 8.10833 7.34028 8.225 7 8.225ZM9.46458 9.46458L8.73542 8.73542C8.95903 8.51181 9.13403 8.25417 9.26042 7.9625C9.38681 7.66111 9.45 7.34028 9.45 7C9.45 6.65972 9.38681 6.34375 9.26042 6.05208C9.13403 5.75069 8.95903 5.48819 8.73542 5.26458L9.47917 4.52083C9.79028 4.84167 10.0382 5.21597 10.2229 5.64375C10.4076 6.06181 10.5 6.51389 10.5 7C10.5 7.48611 10.4076 7.94306 10.2229 8.37083C10.0382 8.78889 9.78542 9.15347 9.46458 9.46458ZM10.9521 10.9521L10.2083 10.2083C10.6264 9.8 10.9521 9.32361 11.1854 8.77917C11.4285 8.225 11.55 7.63194 11.55 7C11.55 6.36806 11.4285 5.77986 11.1854 5.23542C10.9521 4.68125 10.6313 4.19514 10.2229 3.77708L10.9667 3.03333C11.4722 3.54861 11.8708 4.14653 12.1625 4.82708C12.4542 5.49792 12.6 6.22222 12.6 7C12.6 7.77778 12.4542 8.50694 12.1625 9.1875C11.8708 9.85833 11.4674 10.4465 10.9521 10.9521Z" fill="#0BAA60"/>
</g>
</svg>
