<svg width="14" height="14" viewBox="0 0 14 14" fill="none" xmlns="http://www.w3.org/2000/svg">
<mask id="mask0_2896_11064" style="mask-type:alpha" maskUnits="userSpaceOnUse" x="0" y="0" width="14" height="14">
<rect width="14" height="14" fill="#D9D9D9"/>
</mask>
<g mask="url(#mask0_2896_11064)">
<path d="M11.2 12.6875L4.69583 6.18333C4.64722 6.30972 4.60833 6.44097 4.57917 6.57708C4.55972 6.71319 4.55 6.85417 4.55 7C4.55 7.34028 4.61319 7.66111 4.73958 7.9625C4.86597 8.25417 5.04097 8.51181 5.26458 8.73542L4.53542 9.46458C4.21458 9.15347 3.96181 8.78889 3.77708 8.37083C3.59236 7.94306 3.5 7.48611 3.5 7C3.5 6.70833 3.53403 6.43125 3.60208 6.16875C3.67986 5.89653 3.78194 5.63889 3.90833 5.39583L3.13542 4.60833C2.92153 4.95833 2.75139 5.3375 2.625 5.74583C2.50833 6.14444 2.45 6.5625 2.45 7C2.45 7.63194 2.56667 8.225 2.8 8.77917C3.04306 9.32361 3.37361 9.8 3.79167 10.2083L3.04792 10.9521C2.53264 10.4465 2.12917 9.85833 1.8375 9.1875C1.54583 8.50694 1.4 7.77778 1.4 7C1.4 6.41667 1.48264 5.8625 1.64792 5.3375C1.81319 4.80278 2.05139 4.30694 2.3625 3.85L1.3125 2.8L2.05625 2.05625L11.9438 11.9437L11.2 12.6875ZM11.6375 10.15L10.8646 9.39167C11.0785 9.04167 11.2438 8.66736 11.3604 8.26875C11.4868 7.86042 11.55 7.4375 11.55 7C11.55 6.36806 11.4285 5.77986 11.1854 5.23542C10.9521 4.68125 10.6264 4.2 10.2083 3.79167L10.9521 3.04792C11.4674 3.55347 11.8708 4.14653 12.1625 4.82708C12.4542 5.49792 12.6 6.22222 12.6 7C12.6 7.58333 12.5174 8.14236 12.3521 8.67708C12.1868 9.21181 11.9486 9.70278 11.6375 10.15ZM10.1063 8.61875L9.30417 7.81667C9.35278 7.68056 9.38681 7.54931 9.40625 7.42292C9.43542 7.28681 9.45 7.14583 9.45 7C9.45 6.65972 9.38681 6.34375 9.26042 6.05208C9.13403 5.75069 8.95903 5.48819 8.73542 5.26458L9.46458 4.53542C9.78542 4.84653 10.0382 5.21597 10.2229 5.64375C10.4076 6.06181 10.5 6.51389 10.5 7C10.5 7.29167 10.466 7.57361 10.3979 7.84583C10.3396 8.11806 10.2424 8.37569 10.1063 8.61875Z" fill="#BCBCBC"/>
</g>
</svg>
