<svg width="119" height="40" viewBox="0 0 119 40" fill="none" xmlns="http://www.w3.org/2000/svg">
<path d="M107.949 9.41602H110.908L112.777 14.9849C112.836 15.1619 112.886 15.3419 112.928 15.5249C112.969 15.7079 113.005 15.8968 113.034 16.0915C113.064 16.2863 113.087 16.4899 113.105 16.7024H113.158C113.194 16.3837 113.241 16.0856 113.3 15.8082C113.365 15.5308 113.445 15.2564 113.539 14.9849L115.373 9.41602H118.269L114.079 20.5802C113.825 21.2649 113.495 21.8345 113.087 22.289C112.68 22.7493 112.21 23.0946 111.679 23.3248C111.153 23.555 110.574 23.6701 109.942 23.6701C109.635 23.6701 109.37 23.6524 109.145 23.617C108.921 23.5875 108.729 23.555 108.569 23.5196V21.3771C108.693 21.4066 108.85 21.4331 109.039 21.4567C109.228 21.4804 109.426 21.4922 109.632 21.4922C110.01 21.4922 110.335 21.4125 110.607 21.2531C110.878 21.0938 111.106 20.8783 111.289 20.6068C111.472 20.3412 111.617 20.049 111.723 19.7303L111.882 19.2434L107.949 9.41602Z" fill="white"/>
<path d="M106.943 19.3151H104.241V5.53906H106.943V19.3151Z" fill="white"/>
<path d="M101.421 17.3415C101.717 17.3415 102.003 17.312 102.281 17.253C102.564 17.194 102.845 17.1202 103.122 17.0317V19.0414C102.833 19.1713 102.473 19.2775 102.042 19.3601C101.616 19.4487 101.15 19.4929 100.642 19.4929C100.051 19.4929 99.5198 19.3985 99.0474 19.2096C98.5808 19.0148 98.2117 18.6814 97.94 18.2092C97.6743 17.7311 97.5414 17.0671 97.5414 16.2171V11.4451H96.248V10.303L97.7363 9.39997L98.5158 7.31055H100.243V9.41767H103.016V11.4451H100.243V16.2171C100.243 16.5949 100.35 16.8782 100.562 17.0671C100.781 17.25 101.067 17.3415 101.421 17.3415Z" fill="white"/>
<path d="M95.2416 16.3752C95.2416 17.0481 95.0821 17.6177 94.7632 18.0839C94.4502 18.5443 93.9807 18.8955 93.3547 19.1375C92.7287 19.3736 91.9491 19.4916 91.016 19.4916C90.3251 19.4916 89.7315 19.4474 89.2355 19.3588C88.7453 19.2703 88.2492 19.1228 87.7472 18.9162V16.6851C88.2846 16.9271 88.8604 17.1278 89.4746 17.2871C90.0947 17.4406 90.6381 17.5173 91.1046 17.5173C91.6302 17.5173 92.0052 17.4406 92.2297 17.2871C92.46 17.1278 92.5751 16.9212 92.5751 16.6674C92.5751 16.5021 92.5279 16.3546 92.4334 16.2247C92.3448 16.089 92.1499 15.9385 91.8487 15.7732C91.5475 15.602 91.0751 15.3807 90.4314 15.1092C89.8113 14.8495 89.3004 14.5868 88.8988 14.3212C88.5031 14.0556 88.2079 13.7428 88.013 13.3827C87.824 13.0168 87.7295 12.5535 87.7295 11.9928C87.7295 11.0779 88.0838 10.3903 88.7925 9.92989C89.5071 9.46361 90.4609 9.23047 91.6539 9.23047C92.2681 9.23047 92.8527 9.29244 93.4079 9.41639C93.9689 9.54034 94.5447 9.73807 95.1353 10.0096L94.3203 11.9573C93.8301 11.7449 93.3665 11.5707 92.9295 11.435C92.4984 11.2992 92.0584 11.2314 91.6096 11.2314C91.2139 11.2314 90.9156 11.2845 90.7148 11.3907C90.514 11.497 90.4136 11.6593 90.4136 11.8777C90.4136 12.037 90.4638 12.1787 90.5642 12.3026C90.6705 12.4266 90.8713 12.5653 91.1666 12.7187C91.4678 12.8663 91.9078 13.0581 92.4866 13.2942C93.0476 13.5244 93.5348 13.7664 93.9482 14.0202C94.3616 14.2681 94.6805 14.578 94.905 14.9498C95.1294 15.3158 95.2416 15.7909 95.2416 16.3752Z" fill="white"/>
<path d="M81.9489 9.23047C82.8643 9.23047 83.6527 9.40754 84.3141 9.76168C84.9756 10.1099 85.4864 10.6175 85.8467 11.2845C86.2069 11.9514 86.3871 12.766 86.3871 13.728V15.0383H80C80.0295 15.7997 80.2569 16.3988 80.6821 16.8356C81.1132 17.2665 81.7097 17.4819 82.4716 17.4819C83.1035 17.4819 83.6822 17.417 84.2078 17.2871C84.7335 17.1573 85.2738 16.9625 85.829 16.7028V18.7922C85.3388 19.0342 84.825 19.2113 84.2876 19.3234C83.7561 19.4356 83.1094 19.4916 82.3475 19.4916C81.3554 19.4916 80.4754 19.3087 79.7077 18.9427C78.9458 18.5768 78.3464 18.019 77.9094 17.2694C77.4783 16.5198 77.2627 15.5755 77.2627 14.4363C77.2627 13.2795 77.4576 12.3174 77.8474 11.5501C78.243 10.7769 78.7923 10.1984 79.4951 9.8148C80.1978 9.42525 81.0158 9.23047 81.9489 9.23047ZM81.9666 11.1517C81.441 11.1517 81.004 11.3199 80.6555 11.6563C80.313 11.9928 80.1152 12.521 80.062 13.2411H83.8535C83.8476 12.8397 83.7738 12.4826 83.632 12.1698C83.4962 11.857 83.2895 11.6091 83.0119 11.4261C82.7403 11.2432 82.3918 11.1517 81.9666 11.1517Z" fill="white"/>
<path d="M75.9204 9.41602V19.3142H73.8475L73.4843 18.0482H73.3426C73.1299 18.3846 72.8642 18.659 72.5453 18.8715C72.2264 19.084 71.875 19.2404 71.4911 19.3408C71.1072 19.4411 70.7086 19.4913 70.2952 19.4913C69.5865 19.4913 68.9694 19.3673 68.4437 19.1194C67.9181 18.8656 67.5077 18.4731 67.2124 17.9419C66.923 17.4107 66.7783 16.7201 66.7783 15.8702V9.41602H69.4802V15.1973C69.4802 15.9056 69.6072 16.4398 69.8611 16.7998C70.1151 17.1599 70.5196 17.3399 71.0747 17.3399C71.624 17.3399 72.0551 17.2159 72.3681 16.968C72.6811 16.7142 72.8996 16.3453 73.0236 15.8613C73.1536 15.3715 73.2185 14.7753 73.2185 14.0729V9.41602H75.9204Z" fill="white"/>
<path d="M62.7252 23.6705V19.5182C62.7252 19.2703 62.7341 19.0224 62.7518 18.7745C62.7754 18.5207 62.8049 18.2728 62.8404 18.0308H62.7252C62.4713 18.4381 62.1199 18.7834 61.671 19.0667C61.2281 19.35 60.6434 19.4916 59.917 19.4916C58.8009 19.4916 57.8973 19.0608 57.2063 18.199C56.5212 17.3314 56.1787 16.0594 56.1787 14.3832C56.1787 13.2558 56.3382 12.3115 56.6571 11.5501C56.976 10.7828 57.4189 10.2044 57.9859 9.8148C58.5587 9.42525 59.2202 9.23047 59.9702 9.23047C60.6966 9.23047 61.2842 9.37212 61.7331 9.65544C62.1878 9.93284 62.5569 10.2752 62.8404 10.6824H62.9113L63.1504 9.41639H65.436V23.6705H62.7252ZM60.8826 17.3757C61.3787 17.3757 61.7714 17.2783 62.0608 17.0835C62.3561 16.8887 62.5687 16.5966 62.6986 16.207C62.8286 15.8116 62.8994 15.3187 62.9113 14.7285V14.4009C62.9113 13.4388 62.7636 12.704 62.4683 12.1964C62.173 11.6829 61.6297 11.4261 60.8383 11.4261C60.1946 11.4261 59.7162 11.6829 59.4032 12.1964C59.0902 12.7099 58.9337 13.4506 58.9337 14.4186C58.9337 15.4043 59.0932 16.145 59.4121 16.6408C59.731 17.1307 60.2212 17.3757 60.8826 17.3757Z" fill="white"/>
<path d="M50.3981 9.23047C51.3135 9.23047 52.1019 9.40754 52.7634 9.76168C53.4248 10.1099 53.9357 10.6175 54.2959 11.2845C54.6562 11.9514 54.8363 12.766 54.8363 13.728V15.0383H48.4492C48.4788 15.7997 48.7061 16.3988 49.1313 16.8356C49.5625 17.2665 50.1589 17.4819 50.9208 17.4819C51.5527 17.4819 52.1315 17.417 52.6571 17.2871C53.1827 17.1573 53.723 16.9625 54.2782 16.7028V18.7922C53.788 19.0342 53.2742 19.2113 52.7368 19.3234C52.2053 19.4356 51.5586 19.4916 50.7968 19.4916C49.8046 19.4916 48.9246 19.3087 48.1569 18.9427C47.395 18.5768 46.7956 18.019 46.3586 17.2694C45.9275 16.5198 45.7119 15.5755 45.7119 14.4363C45.7119 13.2795 45.9068 12.3174 46.2966 11.5501C46.6923 10.7769 47.2415 10.1984 47.9443 9.8148C48.6471 9.42525 49.465 9.23047 50.3981 9.23047ZM50.4158 11.1517C49.8902 11.1517 49.4532 11.3199 49.1048 11.6563C48.7622 11.9928 48.5644 12.521 48.5112 13.2411H52.3027C52.2968 12.8397 52.223 12.4826 52.0813 12.1698C51.9454 11.857 51.7387 11.6091 51.4611 11.4261C51.1895 11.2432 50.841 11.1517 50.4158 11.1517Z" fill="white"/>
<path d="M44.017 9.23047C44.1529 9.23047 44.3094 9.23932 44.4865 9.25703C44.6696 9.26883 44.8173 9.28654 44.9295 9.31015L44.7257 11.8422C44.6371 11.8127 44.5102 11.7921 44.3448 11.7803C44.1853 11.7626 44.0466 11.7537 43.9284 11.7537C43.58 11.7537 43.2404 11.798 42.9097 11.8865C42.5849 11.975 42.2926 12.1197 42.0327 12.3203C41.7728 12.5151 41.5661 12.7748 41.4126 13.0994C41.265 13.4182 41.1911 13.8107 41.1911 14.2769V19.3146H38.4893V9.41639H40.5356L40.9342 11.0808H41.0671C41.262 10.7444 41.5041 10.4375 41.7935 10.1601C42.0888 9.87677 42.4225 9.65248 42.7945 9.48722C43.1725 9.31605 43.58 9.23047 44.017 9.23047Z" fill="white"/>
<path d="M14.1945 27.8392V21.3025C11.9389 21.3356 9.47414 21.1557 6.91377 20.6334L6.90169 20.6217V24.5167C6.90169 25.2949 6.98552 25.9235 7.15317 26.4025C7.32082 26.8814 7.55832 27.2555 7.86568 27.5249C8.20098 27.7943 8.60613 27.9739 9.08114 28.0637C9.58409 28.1834 10.1569 28.2433 10.7996 28.2433C11.4422 28.2433 12.0849 28.1984 12.7275 28.1086C13.3981 28.0188 13.8871 27.929 14.1945 27.8392Z" fill="url(#paint0_linear_14459_121478)"/>
<path d="M14.1945 19.2186H14.505C17.3726 19.1609 20.5001 18.7347 23.1656 17.5153L23.1637 17.5125C24.3932 16.7941 25.455 15.7764 26.3491 14.4594C27.2432 13.1423 27.6903 11.5559 27.6903 9.70011C27.6903 6.73679 26.7123 4.38709 24.7564 2.651C22.8005 0.914918 19.8946 0.046875 16.0386 0.046875C14.6136 0.046875 13.2724 0.136673 12.015 0.316267C10.7576 0.46593 9.65395 0.720358 8.70393 1.07955C8.1451 1.28908 7.69803 1.57343 7.36273 1.93262C7.05537 2.26188 6.90169 2.7408 6.90169 3.36938V10.8982C8.18535 11.0947 13.0583 11.5157 14.1526 11.4691V6.5123C14.4599 6.45243 14.7393 6.40753 14.9908 6.3776C15.2423 6.34767 15.5776 6.3327 15.9967 6.3327C17.4776 6.3327 18.5534 6.63203 19.224 7.23068C19.9225 7.7994 20.2718 8.65247 20.2718 9.78991C20.2718 10.9273 19.9644 11.7954 19.3497 12.394C18.735 12.9628 17.8967 13.2471 16.835 13.2471H14.1526V13.2232C14.1453 13.2346 14.1386 13.2462 14.1325 13.2579C10.0663 13.0622 7.59724 12.8896 6.90009 12.7918L6.90003 12.7907L4.96829 12.5987C4.79194 12.5812 4.66302 12.424 4.68035 12.2476L4.78493 11.1831C4.81516 10.8754 4.43565 10.7067 4.22796 10.9355L0.196497 15.3761C0.0861899 15.4976 0.0854633 15.6829 0.194813 15.8055L3.4333 19.4364C3.61945 19.6451 3.96462 19.5328 3.99195 19.2546L4.06706 18.4901C4.08527 18.3047 4.25693 18.1739 4.44049 18.2055L6.90169 18.6294V18.6443L6.91377 18.6322C8.4196 18.886 11.1427 19.2574 14.1945 19.2235V19.2186Z" fill="url(#paint1_linear_14459_121478)"/>
<path d="M19.9365 25.28L17.5077 21.0985C20.6629 20.7552 23.1569 20.0515 24.5496 19.4887C25.0836 20.2328 25.6136 20.951 26.1395 21.6432C27.1175 22.9303 27.8859 24.0976 28.4447 25.1453C28.1653 26.1929 27.6484 27.0011 26.894 27.5698C26.1675 28.1086 25.3432 28.378 24.4211 28.378C23.8064 28.378 23.2755 28.3032 22.8284 28.1535C22.3814 28.0038 21.9902 27.7943 21.6549 27.5249C21.3196 27.2555 21.0122 26.9263 20.7328 26.5371C20.4534 26.148 20.188 25.729 19.9365 25.28Z" fill="url(#paint2_linear_14459_121478)"/>
<path d="M0.113281 15.5977C0.114766 15.6719 0.141903 15.7458 0.194749 15.8051L3.43323 19.436C3.61939 19.6447 3.96455 19.5324 3.99188 19.2542L4.067 18.4897C4.08521 18.3043 4.25686 18.1735 4.44043 18.2051L6.90163 18.629V18.6439L6.9137 18.6318C8.41954 18.8855 11.1426 19.257 14.1944 19.2231V19.2182H14.2559V16.3898L0.113281 15.5977Z" fill="url(#paint3_linear_14459_121478)"/>
<path d="M14.2559 16.3908L0.113346 15.5987C0.111759 15.5193 0.139498 15.4394 0.196497 15.3767L4.22796 10.9361C4.43565 10.7073 4.81516 10.876 4.78493 11.1837L4.68035 12.2482C4.66302 12.4246 4.79194 12.5818 4.96829 12.5993L6.90003 12.7912L6.90009 12.7923C7.59724 12.8902 10.0663 13.0628 14.1325 13.2584C14.1386 13.2467 14.1453 13.2352 14.1526 13.2238V13.2477H14.2559V16.3908Z" fill="url(#paint4_linear_14459_121478)"/>
<path d="M38.939 37.4434V30.1706H40.2245V32.8908H40.2778C40.3441 32.7582 40.4376 32.6174 40.5583 32.4682C40.6791 32.3167 40.8424 32.1877 41.0484 32.0811C41.2543 31.9722 41.5171 31.9178 41.8367 31.9178C42.2581 31.9178 42.6381 32.0255 42.9767 32.2409C43.3176 32.454 43.5874 32.7701 43.7863 33.1891C43.9875 33.6058 44.0882 34.1171 44.0882 34.7232C44.0882 35.3221 43.9899 35.8311 43.7934 36.2502C43.5969 36.6692 43.3294 36.9888 42.9909 37.209C42.6523 37.4292 42.2688 37.5392 41.8403 37.5392C41.5278 37.5392 41.2686 37.4872 41.0626 37.383C40.8566 37.2788 40.6909 37.1533 40.5654 37.0066C40.4423 36.8574 40.3464 36.7166 40.2778 36.584H40.2032V37.4434H38.939ZM40.1997 34.7161C40.1997 35.0688 40.2494 35.3778 40.3488 35.6429C40.4506 35.9081 40.5962 36.1152 40.7856 36.2644C40.9774 36.4112 41.2094 36.4846 41.4816 36.4846C41.7657 36.4846 42.0036 36.4088 42.1954 36.2573C42.3872 36.1034 42.5316 35.8939 42.6286 35.6287C42.7281 35.3612 42.7778 35.057 42.7778 34.7161C42.7778 34.3775 42.7293 34.0769 42.6322 33.8141C42.5351 33.5513 42.3907 33.3453 42.199 33.1962C42.0072 33.0471 41.7681 32.9725 41.4816 32.9725C41.207 32.9725 40.9738 33.0447 40.782 33.1891C40.5903 33.3335 40.4447 33.5359 40.3453 33.7963C40.2482 34.0568 40.1997 34.3633 40.1997 34.7161ZM45.7945 39.4888C45.6193 39.4888 45.4571 39.4746 45.308 39.4462C45.1612 39.4202 45.044 39.3894 44.9564 39.3539L45.2547 38.3525C45.4417 38.4069 45.6086 38.4329 45.7554 38.4306C45.9022 38.4282 46.0312 38.382 46.1425 38.2921C46.2561 38.2045 46.352 38.0577 46.4301 37.8517L46.5402 37.557L44.5622 31.9888H45.9259L47.183 36.1081H47.2398L48.5004 31.9888H49.8676L47.6837 38.1039C47.5819 38.3927 47.4469 38.6401 47.2789 38.8461C47.1108 39.0544 46.9048 39.213 46.661 39.3219C46.4195 39.4332 46.1307 39.4888 45.7945 39.4888Z" fill="white"/>
<path fill-rule="evenodd" clip-rule="evenodd" d="M108.143 35.8907C108.027 35.564 107.969 35.15 107.969 34.5945C107.969 34.039 108.027 33.6251 108.143 33.2983C108.468 32.3615 109.328 31.8496 110.454 31.8496C111.29 31.8496 111.952 32.1654 112.393 32.6666C112.428 32.7101 112.44 32.7756 112.382 32.8192L111.65 33.4181C111.592 33.4616 111.534 33.4508 111.488 33.3963C111.209 33.1023 110.919 32.9389 110.454 32.9389C109.955 32.9389 109.571 33.1677 109.409 33.6251C109.316 33.8866 109.293 34.1916 109.293 34.5945C109.293 34.9976 109.316 35.3135 109.409 35.5749C109.571 36.0214 109.955 36.2502 110.454 36.2502C110.919 36.2502 111.209 36.0868 111.488 35.7928C111.534 35.7383 111.592 35.7383 111.65 35.7818L112.382 36.3809C112.44 36.4245 112.428 36.479 112.393 36.5333C111.952 37.0235 111.29 37.3395 110.454 37.3395C109.328 37.3395 108.468 36.8276 108.143 35.8907Z" fill="white"/>
<path fill-rule="evenodd" clip-rule="evenodd" d="M116.929 37.2195C116.847 37.2195 116.789 37.1869 116.743 37.1105L115.326 34.9102L114.571 35.7271V37.1105C114.571 37.176 114.525 37.2195 114.455 37.2195H113.387C113.317 37.2195 113.271 37.176 113.271 37.1105V29.9213C113.271 29.8561 113.317 29.8125 113.387 29.8125H114.455C114.525 29.8125 114.571 29.8561 114.571 29.9213V34.1914L116.488 32.0782C116.557 32.0019 116.615 31.9692 116.708 31.9692H117.892C117.962 31.9692 117.985 32.0345 117.939 32.0782L116.162 33.9952L118.206 37.1105C118.241 37.1541 118.218 37.2195 118.148 37.2195H116.929Z" fill="white"/>
<path fill-rule="evenodd" clip-rule="evenodd" d="M54.6616 36.0866H56.3107C57.0772 36.0866 57.5069 35.6727 57.5069 35.0519C57.5069 34.4419 57.0772 34.028 56.3107 34.028H54.6616C54.6153 34.028 54.5919 34.0497 54.5919 34.0933V36.0212C54.5919 36.0648 54.6153 36.0866 54.6616 36.0866ZM56.2411 32.8952C56.9379 32.8952 57.3675 32.503 57.3675 31.9256C57.3675 31.3375 56.9379 30.9453 56.2411 30.9453H54.6616C54.6153 30.9453 54.5919 30.9671 54.5919 31.0107V32.8297C54.5919 32.8733 54.6153 32.8952 54.6616 32.8952H56.2411ZM53.2217 29.9213C53.2217 29.8561 53.2682 29.8125 53.3377 29.8125H56.2759C57.9482 29.8125 58.7378 30.5968 58.7378 31.784C58.7378 32.6228 58.3198 33.1021 57.8203 33.3526V33.3744C58.3082 33.5486 58.8771 34.1368 58.8771 35.041C58.8771 36.5115 57.89 37.2195 56.1597 37.2195H53.3377C53.2682 37.2195 53.2217 37.176 53.2217 37.1105V29.9213Z" fill="white"/>
<path fill-rule="evenodd" clip-rule="evenodd" d="M59.841 37.2197C59.7712 37.2197 59.7246 37.1761 59.7246 37.1107V32.0784C59.7246 32.013 59.7712 31.9694 59.841 31.9694H60.9093C60.9789 31.9694 61.0254 32.013 61.0254 32.0784V32.5249H61.0371C61.3041 32.122 61.7802 31.8496 62.4887 31.8496C62.9299 31.8496 63.3712 32.013 63.6615 32.2853C63.7196 32.3397 63.7313 32.3834 63.6847 32.4378L63.0691 33.1677C63.0228 33.222 62.9647 33.233 62.9067 33.1894C62.6512 33.0368 62.384 32.9389 62.0822 32.9389C61.3506 32.9389 61.0254 33.429 61.0254 34.2678V37.1107C61.0254 37.1761 60.9789 37.2197 60.9093 37.2197H59.841Z" fill="white"/>
<path fill-rule="evenodd" clip-rule="evenodd" d="M67.2547 35.564C67.3477 35.2916 67.3709 35.0411 67.3709 34.5945C67.3709 34.148 67.3477 33.9083 67.2547 33.6251C67.092 33.1894 66.7322 32.9389 66.2096 32.9389C65.687 32.9389 65.3153 33.1894 65.1528 33.6251C65.06 33.9083 65.0367 34.148 65.0367 34.5945C65.0367 35.0411 65.06 35.2916 65.1528 35.564C65.3153 35.9997 65.687 36.2502 66.2096 36.2502C66.7322 36.2502 67.092 35.9997 67.2547 35.564ZM63.8987 35.8907C63.7708 35.5204 63.7129 35.1718 63.7129 34.5945C63.7129 34.0173 63.7708 33.6687 63.8987 33.2983C64.2122 32.3834 65.0715 31.8496 66.2096 31.8496C67.3361 31.8496 68.1954 32.3834 68.509 33.2983C68.6367 33.6687 68.6948 34.0173 68.6948 34.5945C68.6948 35.1718 68.6367 35.5204 68.509 35.8907C68.1954 36.8057 67.3361 37.3395 66.2096 37.3395C65.0715 37.3395 64.2122 36.8057 63.8987 35.8907Z" fill="white"/>
<path fill-rule="evenodd" clip-rule="evenodd" d="M74.3279 37.2191C74.2581 37.2191 74.2117 37.1755 74.1884 37.11L73.1084 33.7552H73.0853L71.9936 37.11C71.9703 37.1755 71.924 37.2191 71.8542 37.2191H70.902C70.8322 37.2191 70.7859 37.1755 70.7627 37.11L68.9974 32.0778C68.9741 32.0124 69.0091 31.9688 69.0788 31.9688H70.1936C70.2749 31.9688 70.3214 32.0014 70.3446 32.0778L71.4245 35.5416H71.4478L72.5161 32.0778C72.5395 32.0124 72.5975 31.9688 72.6671 31.9688H73.5033C73.5729 31.9688 73.6311 32.0124 73.6542 32.0778L74.7924 35.5416H74.8156L75.8375 32.0778C75.8607 32.0014 75.9072 31.9688 75.9885 31.9688H77.1033C77.173 31.9688 77.2078 32.0124 77.1846 32.0778L75.4193 37.11C75.3962 37.1755 75.3497 37.2191 75.28 37.2191H74.3279Z" fill="white"/>
<path fill-rule="evenodd" clip-rule="evenodd" d="M77.4137 36.5116C77.3673 36.4681 77.3673 36.4028 77.4137 36.3592L78.0756 35.7056C78.1221 35.6621 78.1918 35.6621 78.2383 35.7056C78.6448 36.0542 79.2951 36.3047 79.8757 36.3047C80.5609 36.3047 80.9092 36.0433 80.9092 35.6837C80.9092 35.3678 80.7118 35.1718 79.9802 35.1064L79.3762 35.0521C78.2383 34.943 77.6575 34.3985 77.6575 33.5052C77.6575 32.4922 78.4356 31.8496 79.8292 31.8496C80.7002 31.8496 81.432 32.122 81.9313 32.4922C81.9895 32.5358 81.9895 32.6011 81.9543 32.6447L81.3855 33.2875C81.3391 33.3418 81.2808 33.3418 81.223 33.3092C80.8743 33.0804 80.317 32.8735 79.7596 32.8735C79.2021 32.8735 78.9118 33.1023 78.9118 33.4181C78.9118 33.7232 79.1093 33.9083 79.8292 33.9737L80.433 34.0282C81.6058 34.1371 82.1633 34.7035 82.1633 35.564C82.1633 36.6097 81.3503 37.3395 79.8176 37.3395C78.6679 37.3395 77.8783 36.9147 77.4137 36.5116Z" fill="white"/>
<path fill-rule="evenodd" clip-rule="evenodd" d="M86.4332 33.5597C86.2825 33.1349 85.8645 32.8844 85.3418 32.8844C84.8078 32.8844 84.3893 33.1349 84.2386 33.5597C84.1921 33.6904 84.1686 33.8211 84.1686 34.0063C84.1686 34.0499 84.1921 34.0718 84.2386 34.0718H86.4332C86.4797 34.0718 86.5032 34.0499 86.5032 34.0063C86.5032 33.8211 86.4797 33.6904 86.4332 33.5597ZM83.0542 35.8798C82.9377 35.5423 82.8564 35.1392 82.8564 34.5945C82.8564 34.0499 82.9264 33.6361 83.0424 33.2983C83.3557 32.3834 84.2151 31.8496 85.33 31.8496C86.4797 31.8496 87.3161 32.4051 87.6294 33.2983C87.7576 33.6687 87.8154 34.0282 87.8154 34.8778C87.8154 34.943 87.7689 34.9866 87.6876 34.9866H84.2386C84.1921 34.9866 84.1686 35.0085 84.1686 35.0521C84.1686 35.2045 84.2038 35.3352 84.2503 35.455C84.4358 35.9671 84.8773 36.2502 85.5043 36.2502C86.1312 36.2502 86.5379 36.0323 86.8164 35.7492C86.8747 35.6947 86.9329 35.6837 86.9907 35.7273L87.6759 36.2938C87.7341 36.3373 87.7341 36.3919 87.6876 36.4464C87.2114 36.9691 86.4219 37.3395 85.3883 37.3395C84.2038 37.3395 83.3674 36.7949 83.0542 35.8798Z" fill="white"/>
<path fill-rule="evenodd" clip-rule="evenodd" d="M88.7791 37.2197C88.7096 37.2197 88.6631 37.1761 88.6631 37.1107V32.0784C88.6631 32.013 88.7096 31.9694 88.7791 31.9694H89.8475C89.917 31.9694 89.9635 32.013 89.9635 32.0784V32.5249H89.9753C90.242 32.122 90.7182 31.8496 91.4269 31.8496C91.8684 31.8496 92.3094 32.013 92.5996 32.2853C92.6578 32.3397 92.6691 32.3834 92.6231 32.4378L92.0074 33.1677C91.9614 33.222 91.9031 33.233 91.8449 33.1894C91.5894 33.0368 91.3222 32.9389 91.0207 32.9389C90.289 32.9389 89.9635 33.429 89.9635 34.2678V37.1107C89.9635 37.1761 89.917 37.2197 89.8475 37.2197H88.7791Z" fill="white"/>
<path fill-rule="evenodd" clip-rule="evenodd" d="M92.8228 36.3597C92.7764 36.3161 92.7533 36.2506 92.7998 36.1961L93.5198 35.4118C93.5663 35.3575 93.6358 35.3575 93.6823 35.4011C94.1933 35.7823 94.948 36.1852 95.8304 36.1852C96.7711 36.1852 97.3168 35.7387 97.3168 35.118C97.3168 34.5842 96.9688 34.2356 95.8769 34.0939L95.4589 34.0394C93.9378 33.8434 93.0783 33.1571 93.0783 31.9263C93.0783 30.5865 94.1233 29.6934 95.7492 29.6934C96.7363 29.6934 97.677 29.9874 98.304 30.4339C98.3622 30.4777 98.374 30.5212 98.3275 30.5865L97.77 31.3925C97.7235 31.447 97.6653 31.4579 97.6071 31.4253C96.9688 31.0331 96.3761 30.8479 95.7144 30.8479C94.9132 30.8479 94.4717 31.2619 94.4717 31.8391C94.4717 32.351 94.855 32.6996 95.9234 32.8413L96.3419 32.8958C97.8625 33.0918 98.699 33.7671 98.699 35.0416C98.699 36.3597 97.6888 37.34 95.7262 37.34C94.5647 37.34 93.4381 36.9042 92.8228 36.3597Z" fill="white"/>
<path fill-rule="evenodd" clip-rule="evenodd" d="M101.105 37.3125C99.9784 37.3125 99.5487 36.8006 99.5487 35.7765V33.01C99.5487 32.9664 99.5257 32.9446 99.4792 32.9446H99.1072C99.0377 32.9446 98.9912 32.901 98.9912 32.8355V32.1058C98.9912 32.0405 99.0377 31.9969 99.1072 31.9969H99.4792C99.5257 31.9969 99.5487 31.975 99.5487 31.9315V30.4936C99.5487 30.4283 99.5952 30.3848 99.6647 30.3848H100.733C100.803 30.3848 100.85 30.4283 100.85 30.4936V31.9315C100.85 31.975 100.873 31.9969 100.919 31.9969H101.663C101.732 31.9969 101.779 32.0405 101.779 32.1058V32.8355C101.779 32.901 101.732 32.9446 101.663 32.9446H100.919C100.873 32.9446 100.85 32.9664 100.85 33.01V35.7332C100.85 36.1035 101.012 36.2232 101.372 36.2232H101.663C101.732 36.2232 101.779 36.2668 101.779 36.3322V37.2035C101.779 37.2689 101.732 37.3125 101.663 37.3125H101.105Z" fill="white"/>
<path fill-rule="evenodd" clip-rule="evenodd" d="M105.892 35.455V35.0521C105.892 35.0085 105.868 34.9866 105.822 34.9866H104.893C104.057 34.9866 103.685 35.2045 103.685 35.6947C103.685 36.1304 104.022 36.3483 104.649 36.3483C105.45 36.3483 105.892 36.0542 105.892 35.455ZM106.031 37.2197C105.961 37.2197 105.915 37.1761 105.915 37.1107V36.7295H105.903C105.636 37.089 105.113 37.3395 104.324 37.3395C103.302 37.3395 102.442 36.8385 102.442 35.7383C102.442 34.5945 103.302 34.0718 104.684 34.0718H105.822C105.868 34.0718 105.892 34.0499 105.892 34.0063V33.7558C105.892 33.1566 105.589 32.8844 104.649 32.8844C104.022 32.8844 103.639 33.0478 103.371 33.2439C103.314 33.2875 103.244 33.2766 103.209 33.222L102.779 32.5032C102.744 32.4487 102.756 32.3942 102.803 32.3615C103.255 32.0566 103.871 31.8496 104.788 31.8496C106.495 31.8496 107.123 32.3942 107.123 33.6797V37.1107C107.123 37.1761 107.076 37.2197 107.006 37.2197H106.031Z" fill="white"/>
<defs>
<linearGradient id="paint0_linear_14459_121478" x1="6.70208" y1="-2.67624" x2="23.4881" y2="34.2589" gradientUnits="userSpaceOnUse">
<stop stop-color="#1EA0FF"/>
<stop offset="1" stop-color="#004EEB"/>
</linearGradient>
<linearGradient id="paint1_linear_14459_121478" x1="6.70208" y1="-2.67624" x2="23.4881" y2="34.2589" gradientUnits="userSpaceOnUse">
<stop stop-color="#1EA0FF"/>
<stop offset="1" stop-color="#004EEB"/>
</linearGradient>
<linearGradient id="paint2_linear_14459_121478" x1="6.70208" y1="-2.67624" x2="23.4881" y2="34.2589" gradientUnits="userSpaceOnUse">
<stop stop-color="#1EA0FF"/>
<stop offset="1" stop-color="#004EEB"/>
</linearGradient>
<linearGradient id="paint3_linear_14459_121478" x1="21.1506" y1="17.4823" x2="9.37028" y2="14.4066" gradientUnits="userSpaceOnUse">
<stop stop-color="#1EA0FF"/>
<stop offset="1" stop-color="#004EEB"/>
</linearGradient>
<linearGradient id="paint4_linear_14459_121478" x1="4.68169" y1="8.86635" x2="26.1615" y2="11.6143" gradientUnits="userSpaceOnUse">
<stop stop-color="#1EA0FF"/>
<stop offset="1" stop-color="#004EEB"/>
</linearGradient>
</defs>
</svg>
