<svg width="1044" height="251" viewBox="0 0 1044 251" fill="none" xmlns="http://www.w3.org/2000/svg">
<path d="M952.571 83.0964H978.68L995.174 132.237C995.695 133.8 996.138 135.388 996.503 137.003C996.867 138.617 997.18 140.284 997.441 142.003C997.701 143.721 997.91 145.518 998.066 147.393H998.535C998.848 144.581 999.264 141.951 999.786 139.503C1000.36 137.055 1001.06 134.633 1001.9 132.237L1018.08 83.0964H1043.64L1006.66 181.612C1004.42 187.654 1001.51 192.68 997.91 196.69C994.314 200.753 990.171 203.8 985.48 205.831C980.842 207.862 975.735 208.878 970.159 208.878C967.449 208.878 965.104 208.721 963.124 208.409C961.143 208.149 959.45 207.862 958.043 207.55V188.643C959.137 188.904 960.518 189.138 962.186 189.346C963.853 189.555 965.599 189.659 967.423 189.659C970.758 189.659 973.625 188.956 976.022 187.55C978.419 186.143 980.425 184.242 982.041 181.846C983.656 179.503 984.933 176.925 985.871 174.112L987.278 169.815L952.571 83.0964Z" fill="white"/>
<path d="M943.688 170.44H919.846V48.8777H943.688V170.44Z" fill="white"/>
<path d="M894.967 153.018C897.573 153.018 900.101 152.758 902.55 152.237C905.051 151.716 907.527 151.065 909.976 150.284V168.018C907.423 169.164 904.244 170.102 900.439 170.831C896.687 171.612 892.57 172.003 888.088 172.003C882.877 172.003 878.187 171.169 874.018 169.503C869.901 167.784 866.644 164.841 864.246 160.675C861.901 156.456 860.729 150.596 860.729 143.096V100.987H849.316V90.9089L862.449 82.9402L869.327 64.5027H884.571V83.0964H909.038V100.987H884.571V143.096C884.571 146.43 885.509 148.93 887.385 150.596C889.313 152.211 891.841 153.018 894.967 153.018Z" fill="white"/>
<path d="M840.432 144.503C840.432 150.44 839.025 155.466 836.211 159.581C833.449 163.643 829.306 166.742 823.782 168.878C818.258 170.961 811.379 172.003 803.145 172.003C797.048 172.003 791.811 171.612 787.433 170.831C783.108 170.05 778.73 168.747 774.3 166.925V147.237C779.043 149.372 784.124 151.143 789.544 152.55C795.016 153.904 799.81 154.581 803.927 154.581C808.565 154.581 811.874 153.904 813.855 152.55C815.887 151.143 816.903 149.32 816.903 147.081C816.903 145.622 816.486 144.32 815.652 143.175C814.871 141.977 813.151 140.649 810.493 139.19C807.835 137.68 803.666 135.727 797.986 133.331C792.514 131.039 788.006 128.721 784.463 126.378C780.971 124.034 778.365 121.274 776.645 118.096C774.978 114.867 774.144 110.779 774.144 105.831C774.144 97.7579 777.271 91.6902 783.524 87.6277C789.83 83.5131 798.247 81.4558 808.773 81.4558C814.193 81.4558 819.353 82.0027 824.251 83.0964C829.202 84.1902 834.283 85.935 839.494 88.3308L832.303 105.518C827.977 103.643 823.886 102.107 820.03 100.909C816.226 99.711 812.343 99.1121 808.383 99.1121C804.891 99.1121 802.259 99.5808 800.487 100.518C798.716 101.456 797.83 102.888 797.83 104.815C797.83 106.221 798.273 107.471 799.159 108.565C800.097 109.659 801.868 110.883 804.474 112.237C807.132 113.539 811.014 115.232 816.121 117.315C821.072 119.346 825.372 121.482 829.02 123.721C832.668 125.909 835.482 128.643 837.462 131.925C839.442 135.154 840.432 139.346 840.432 144.503Z" fill="white"/>
<path d="M723.137 81.4558C731.214 81.4558 738.171 83.0183 744.008 86.1433C749.845 89.2162 754.353 93.6954 757.532 99.5808C760.711 105.466 762.3 112.654 762.3 121.143V132.706H705.939C706.2 139.425 708.206 144.711 711.958 148.565C715.763 152.367 721.026 154.268 727.749 154.268C733.325 154.268 738.432 153.695 743.07 152.55C747.708 151.404 752.477 149.685 757.375 147.393V165.831C753.05 167.966 748.516 169.529 743.774 170.518C739.083 171.508 733.377 172.003 726.654 172.003C717.899 172.003 710.134 170.388 703.36 167.159C696.637 163.93 691.348 159.008 687.491 152.393C683.687 145.779 681.785 137.445 681.785 127.393C681.785 117.185 683.504 108.695 686.944 101.925C690.436 95.1016 695.282 89.9975 701.484 86.6121C707.685 83.1746 714.903 81.4558 723.137 81.4558ZM723.293 98.4089C718.655 98.4089 714.799 99.8933 711.724 102.862C708.701 105.831 706.955 110.492 706.486 116.846H739.943C739.891 113.305 739.24 110.154 737.989 107.393C736.79 104.633 734.967 102.445 732.517 100.831C730.12 99.2162 727.045 98.4089 723.293 98.4089Z" fill="white"/>
<path d="M669.941 83.0964V170.44H651.649L648.444 159.268H647.193C645.317 162.237 642.972 164.659 640.158 166.534C637.344 168.409 634.243 169.789 630.856 170.675C627.468 171.56 623.951 172.003 620.303 172.003C614.049 172.003 608.603 170.909 603.965 168.721C599.327 166.482 595.705 163.018 593.099 158.331C590.546 153.643 589.269 147.55 589.269 140.05V83.0964H613.111V134.112C613.111 140.362 614.231 145.076 616.472 148.253C618.713 151.43 622.283 153.018 627.182 153.018C632.028 153.018 635.832 151.925 638.595 149.737C641.357 147.497 643.285 144.242 644.379 139.971C645.526 135.649 646.099 130.388 646.099 124.19V83.0964H669.941Z" fill="white"/>
<path d="M553.505 208.878V172.237C553.505 170.05 553.583 167.862 553.74 165.675C553.948 163.435 554.209 161.247 554.521 159.112H553.505C551.264 162.706 548.164 165.753 544.203 168.253C540.294 170.753 535.135 172.003 528.725 172.003C518.876 172.003 510.902 168.201 504.805 160.596C498.76 152.94 495.737 141.716 495.737 126.925C495.737 116.977 497.144 108.643 499.958 101.925C502.773 95.1537 506.681 90.0496 511.684 86.6121C516.739 83.1746 522.576 81.4558 529.194 81.4558C535.604 81.4558 540.789 82.7058 544.75 85.2058C548.763 87.6537 552.02 90.6746 554.521 94.2683H555.147L557.257 83.0964H577.425V208.878H553.505ZM537.246 153.331C541.623 153.331 545.089 152.471 547.642 150.753C550.248 149.034 552.124 146.456 553.271 143.018C554.417 139.529 555.042 135.18 555.147 129.971V127.081C555.147 118.591 553.844 112.107 551.238 107.628C548.633 103.096 543.838 100.831 536.855 100.831C531.174 100.831 526.953 103.096 524.191 107.628C521.429 112.159 520.048 118.695 520.048 127.237C520.048 135.935 521.455 142.471 524.269 146.846C527.084 151.169 531.409 153.331 537.246 153.331Z" fill="white"/>
<path d="M444.73 81.4558C452.808 81.4558 459.765 83.0183 465.601 86.1433C471.438 89.2162 475.946 93.6954 479.125 99.5808C482.304 105.466 483.893 112.654 483.893 121.143V132.706H427.533C427.793 139.425 429.799 144.711 433.552 148.565C437.356 152.367 442.619 154.268 449.342 154.268C454.918 154.268 460.025 153.695 464.663 152.55C469.302 151.404 474.07 149.685 478.969 147.393V165.831C474.643 167.966 470.109 169.529 465.367 170.518C460.677 171.508 454.97 172.003 448.248 172.003C439.493 172.003 431.728 170.388 424.953 167.159C418.23 163.93 412.941 159.008 409.084 152.393C405.28 145.779 403.378 137.445 403.378 127.393C403.378 117.185 405.098 108.695 408.537 101.925C412.029 95.1016 416.875 89.9975 423.077 86.6121C429.278 83.1746 436.496 81.4558 444.73 81.4558ZM444.886 98.4089C440.248 98.4089 436.392 99.8933 433.317 102.862C430.295 105.831 428.549 110.492 428.08 116.846H461.537C461.485 113.305 460.833 110.154 459.582 107.393C458.384 104.633 456.56 102.445 454.11 100.831C451.713 99.2162 448.639 98.4089 444.886 98.4089Z" fill="white"/>
<path d="M388.417 81.4558C389.616 81.4558 390.997 81.5339 392.56 81.6902C394.176 81.7944 395.479 81.9506 396.469 82.1589L394.671 104.503C393.889 104.242 392.769 104.06 391.31 103.956C389.903 103.8 388.678 103.721 387.636 103.721C384.561 103.721 381.564 104.112 378.646 104.893C375.78 105.675 373.2 106.951 370.907 108.721C368.614 110.44 366.79 112.732 365.435 115.596C364.133 118.409 363.481 121.872 363.481 125.987V170.44H339.639V83.0964H357.696L361.214 97.7839H362.387C364.106 94.8152 366.243 92.1069 368.797 89.6589C371.402 87.1589 374.347 85.1798 377.63 83.7214C380.965 82.211 384.561 81.4558 388.417 81.4558Z" fill="white"/>
<path d="M125.254 245.654V187.972C105.351 188.264 83.6008 186.676 61.0075 182.068L60.9009 181.964V216.335C60.9009 223.202 61.6406 228.749 63.12 232.975C64.5994 237.201 66.6952 240.503 69.4074 242.88C72.3662 245.257 75.9413 246.842 80.1329 247.635C84.5711 248.691 89.6256 249.219 95.2966 249.219C100.968 249.219 106.638 248.823 112.309 248.031C118.227 247.238 122.542 246.446 125.254 245.654Z" fill="url(#paint0_linear_4_5772)"/>
<path d="M125.254 169.584H127.995C153.298 169.074 180.896 165.314 204.418 154.553L204.401 154.528C215.25 148.189 224.619 139.209 232.509 127.587C240.399 115.965 244.344 101.966 244.344 85.5902C244.344 59.4412 235.714 38.707 218.455 23.3874C201.196 8.06776 175.553 0.407959 141.527 0.407959C128.952 0.407959 117.117 1.20035 106.022 2.78514C94.9267 4.10579 85.1875 6.35092 76.8043 9.5205C71.873 11.3694 67.928 13.8786 64.9692 17.0482C62.257 19.9536 60.9009 24.1797 60.9009 29.7265V96.1623C72.2283 97.8964 115.228 101.612 124.884 101.2V57.4603C127.596 56.932 130.062 56.5358 132.281 56.2717C134.5 56.0075 137.459 55.8755 141.157 55.8755C154.225 55.8755 163.718 58.5168 169.635 63.7994C175.8 68.8179 178.882 76.3456 178.882 86.3826C178.882 96.4196 176.169 104.079 170.745 109.362C165.321 114.38 157.924 116.89 148.554 116.89H124.884V116.679C124.82 116.78 124.761 116.881 124.707 116.985C88.8261 115.258 67.0386 113.735 60.8868 112.872L60.8863 112.862L43.8402 111.168C42.284 111.014 41.1464 109.627 41.2993 108.07L42.2222 98.6765C42.4889 95.9616 39.1401 94.4728 37.3074 96.4915L1.73285 135.676C0.759475 136.748 0.753063 138.383 1.71799 139.465L30.2951 171.505C31.9378 173.347 34.9836 172.356 35.2247 169.901L35.8876 163.155C36.0482 161.519 37.563 160.365 39.1828 160.644L60.9009 164.384V164.516L61.0075 164.409C74.2953 166.648 98.3246 169.926 125.254 169.627V169.584Z" fill="url(#paint1_linear_4_5772)"/>
<path d="M175.923 223.07L154.491 186.172C182.333 183.143 204.341 176.933 216.63 171.967C221.342 178.533 226.019 184.87 230.66 190.978C239.29 202.336 246.07 212.637 251.001 221.882C248.536 231.126 243.974 238.258 237.317 243.276C230.906 248.031 223.633 250.408 215.496 250.408C210.072 250.408 205.387 249.748 201.442 248.427C197.497 247.106 194.045 245.257 191.086 242.88C188.128 240.503 185.416 237.598 182.95 234.164C180.484 230.73 178.142 227.032 175.923 223.07Z" fill="url(#paint2_linear_4_5772)"/>
<path d="M0.999023 137.635C1.01212 138.29 1.25159 138.942 1.71791 139.465L30.295 171.505C31.9377 173.347 34.9835 172.356 35.2247 169.901L35.8875 163.155C36.0482 161.519 37.5629 160.365 39.1827 160.644L60.9009 164.384V164.516L61.0074 164.409C74.2953 166.648 98.3245 169.926 125.254 169.627V169.584H125.796V144.625L0.999023 137.635Z" fill="url(#paint3_linear_4_5772)"/>
<path d="M125.796 144.625L0.999104 137.635C0.985099 136.935 1.22988 136.23 1.73285 135.676L37.3074 96.4915C39.1401 94.4728 42.4889 95.9616 42.2222 98.6765L41.2993 108.07C41.1464 109.627 42.284 111.014 43.8402 111.168L60.8863 112.862L60.8868 112.872C67.0386 113.735 88.8261 115.258 124.707 116.985C124.761 116.881 124.82 116.78 124.884 116.679V116.89H125.796V144.625Z" fill="url(#paint4_linear_4_5772)"/>
<defs>
<linearGradient id="paint0_linear_4_5772" x1="59.1395" y1="-23.6214" x2="207.263" y2="302.303" gradientUnits="userSpaceOnUse">
<stop stop-color="#1EA0FF"/>
<stop offset="1" stop-color="#004EEB"/>
</linearGradient>
<linearGradient id="paint1_linear_4_5772" x1="59.1395" y1="-23.6214" x2="207.263" y2="302.303" gradientUnits="userSpaceOnUse">
<stop stop-color="#1EA0FF"/>
<stop offset="1" stop-color="#004EEB"/>
</linearGradient>
<linearGradient id="paint2_linear_4_5772" x1="59.1395" y1="-23.6214" x2="207.263" y2="302.303" gradientUnits="userSpaceOnUse">
<stop stop-color="#1EA0FF"/>
<stop offset="1" stop-color="#004EEB"/>
</linearGradient>
<linearGradient id="paint3_linear_4_5772" x1="186.637" y1="154.266" x2="82.6848" y2="127.125" gradientUnits="userSpaceOnUse">
<stop stop-color="#1EA0FF"/>
<stop offset="1" stop-color="#004EEB"/>
</linearGradient>
<linearGradient id="paint4_linear_4_5772" x1="41.3111" y1="78.2279" x2="230.854" y2="102.476" gradientUnits="userSpaceOnUse">
<stop stop-color="#1EA0FF"/>
<stop offset="1" stop-color="#004EEB"/>
</linearGradient>
</defs>
</svg>
