<svg width="250" height="250" viewBox="0 0 250 250" fill="none" xmlns="http://www.w3.org/2000/svg">
<path fill-rule="evenodd" clip-rule="evenodd" d="M228.757 78.5466C239.307 61.9115 233.775 39.4934 216.401 28.4743C199.027 17.4552 176.39 22.0079 165.839 38.6429C164.385 40.9355 163.237 43.3379 162.383 45.8052C150.374 42.6364 136.871 41.2995 121.841 42.325C106.812 43.3501 93.6158 46.5081 82.1494 51.2779C80.9679 48.949 79.5035 46.7244 77.7513 44.6502C65.0401 29.6027 41.9953 28.1667 26.2793 41.4427C10.5633 54.7187 8.12742 77.6793 20.8386 92.7267C23.6156 96.014 26.8857 98.6517 30.4648 100.628C25.0541 112.22 21.9542 124.527 20.9659 136.553C16.8574 186.495 33.7582 232.891 134.374 226.026C234.988 219.162 245.433 170.903 234.579 121.982C231.967 110.202 227.225 98.4314 220.292 87.6833C223.57 85.2387 226.452 82.181 228.757 78.5466ZM207.396 71.5903C209.041 70.4224 210.485 68.9301 211.624 67.1339C216.514 59.4228 213.95 49.0311 205.896 43.9233C197.843 38.8155 187.349 40.9259 182.459 48.6369C181.674 49.8745 181.081 51.1812 180.672 52.5239C191.04 57.519 199.937 64.0501 207.396 71.5903ZM61.4994 56.9399C62.5667 58.2034 63.3995 59.5894 64.0031 61.0477C54.8191 67.2865 47.1937 74.7492 41.0327 82.9657C38.9857 82.0298 37.1196 80.6485 35.5845 78.8313C29.7966 71.9795 30.9057 61.5245 38.0619 55.4794C45.2181 49.4343 55.7114 50.0882 61.4994 56.9399ZM219.321 155.327C210.56 170.027 199.747 175.262 175.573 176.517C175.573 176.517 176.229 162.15 158.231 157.008C145.767 153.446 139.315 153.06 127.884 154.298C115.839 155.602 106.207 158.633 97.5363 164.594C87.7322 171.335 87.2398 182.478 87.2398 182.478C63.1186 184.518 51.2864 180.892 40.6109 167.518C36.0824 161.847 33.6148 154.795 33.2613 147.55C31.2266 105.741 61.4128 63.4384 122.894 57.7505C184.578 55.0363 220.229 92.8472 223.89 134.545C224.525 141.77 223.038 149.093 219.321 155.327ZM104.314 135.325C105.197 148.261 100.261 157.647 90.8833 158.288C81.5045 158.928 74.2521 150.372 73.3706 137.437C73.2011 134.944 73.2858 132.556 73.606 130.325C74.4489 124.382 76.9343 119.552 80.587 116.712C82.6618 115.074 85.1156 114.092 87.8551 113.905C97.2339 113.266 103.432 122.396 104.314 135.325ZM169.421 152.931C178.799 152.29 183.735 142.904 182.852 129.967C181.97 117.038 175.772 107.908 166.393 108.548C163.654 108.735 161.2 109.717 159.125 111.355C155.472 114.195 152.987 119.025 152.144 124.968C151.824 127.199 151.739 129.587 151.908 132.08C152.79 145.015 160.042 153.571 169.421 152.931ZM171.931 179.396C172.976 194.716 161.73 207.987 133.268 209.901C104.817 211.87 91.8732 200.249 90.8284 184.929C89.7837 169.609 107.286 158.842 129.681 157.314C152.076 155.786 170.886 164.076 171.931 179.396ZM143.684 172.892C141.982 175.616 138.53 179.128 131.796 180.198C131.613 180.21 131.429 180.223 131.244 180.235C131.06 180.248 130.876 180.261 130.694 180.273C123.884 180.127 119.986 177.117 117.93 174.649C116.403 172.817 116.803 170.099 118.807 168.806C123.277 165.931 129.699 165.498 130.211 165.464L130.236 165.462H130.243L130.262 165.461C130.733 165.427 137.184 164.972 142.02 167.223C144.184 168.23 144.948 170.868 143.684 172.892Z" fill="#03A0D9"/>
</svg>
