<svg width="1080" height="212" viewBox="0 0 1080 212" fill="none" xmlns="http://www.w3.org/2000/svg">
<path fill-rule="evenodd" clip-rule="evenodd" d="M193.407 66.4086C202.327 52.3442 197.65 33.3904 182.96 24.0741C168.271 14.7578 149.132 18.6069 140.212 32.6714C138.983 34.6097 138.012 36.6408 137.289 38.7268C127.137 36.0478 115.72 34.9174 103.013 35.7844C90.3059 36.6511 79.1492 39.3211 69.4547 43.3539C68.4558 41.3849 67.2177 39.504 65.7363 37.7503C54.9893 25.0282 35.5057 23.8141 22.2183 35.0385C8.93092 46.2629 6.87149 65.6754 17.6184 78.3975C19.9662 81.1768 22.731 83.4069 25.7571 85.078C21.1825 94.8781 18.5617 105.283 17.726 115.452C14.2525 157.676 28.5415 196.902 113.609 191.098C198.675 185.295 207.506 144.493 198.329 103.132C196.12 93.1725 192.112 83.2206 186.25 74.1334C189.021 72.0666 191.458 69.4814 193.407 66.4086ZM175.347 60.5274C176.738 59.5399 177.958 58.2782 178.921 56.7595C183.056 50.2401 180.888 41.4542 174.079 37.1358C167.27 32.8173 158.398 34.6015 154.263 41.121C153.6 42.1673 153.098 43.2721 152.753 44.4073C161.518 48.6305 169.04 54.1523 175.347 60.5274ZM51.9958 48.1409C52.8982 49.2091 53.6023 50.381 54.1126 51.6139C46.3479 56.8886 39.9008 63.1981 34.6919 70.1449C32.9612 69.3536 31.3835 68.1858 30.0856 66.6493C25.192 60.8564 26.1298 52.017 32.1801 46.9061C38.2305 41.7951 47.1022 42.3479 51.9958 48.1409ZM185.429 131.324C178.022 143.753 168.88 148.178 148.441 149.239C148.441 149.239 148.996 137.092 133.779 132.745C123.241 129.734 117.787 129.407 108.122 130.454C97.9384 131.557 89.7947 134.119 82.4639 139.159C74.1748 144.858 73.7586 154.279 73.7586 154.279C53.3648 156.004 43.361 152.938 34.3353 141.631C30.5066 136.837 28.4203 130.874 28.1214 124.749C26.4012 89.4008 51.9226 53.6352 103.903 48.8262C156.055 46.5314 186.197 78.4993 189.292 113.753C189.829 119.862 188.572 126.053 185.429 131.324ZM88.1942 114.413C88.9408 125.35 84.7673 133.286 76.839 133.827C68.9095 134.369 62.7779 127.135 62.0325 116.198C61.8893 114.091 61.9609 112.072 62.2316 110.186C62.9442 105.161 65.0456 101.077 68.1338 98.6763C69.888 97.2912 71.9626 96.4609 74.2788 96.3031C82.2083 95.7629 87.4489 103.482 88.1942 114.413ZM143.24 129.298C151.169 128.756 155.342 120.821 154.596 109.883C153.85 98.9518 148.61 91.2324 140.68 91.7738C138.364 91.9316 136.289 92.7619 134.535 94.147C131.447 96.5482 129.346 100.632 128.633 105.656C128.362 107.543 128.291 109.562 128.434 111.669C129.179 122.605 135.311 129.839 143.24 129.298ZM145.362 151.674C146.245 164.626 136.738 175.847 112.674 177.464C88.6193 179.129 77.6759 169.304 76.7926 156.352C75.9093 143.399 90.7068 134.296 109.642 133.004C128.575 131.712 144.479 138.721 145.362 151.674ZM121.481 146.175C120.042 148.477 117.123 151.447 111.429 152.351C111.275 152.362 111.119 152.373 110.963 152.383L110.928 152.386C110.784 152.396 110.64 152.406 110.498 152.415C104.74 152.292 101.444 149.747 99.7064 147.66C98.4151 146.111 98.7536 143.813 100.447 142.72C104.227 140.29 109.657 139.923 110.089 139.894L110.111 139.893H110.116L110.133 139.892C110.531 139.864 115.985 139.479 120.074 141.381C121.903 142.233 122.549 144.464 121.481 146.175Z" fill="#03A0D9"/>
<path d="M352.359 86.1698C350.913 77.2143 344.644 72.2248 334.202 72.2248C324.981 72.2248 319.126 76.6927 319.126 82.7549C319.126 88.6596 324.341 90.6278 331.398 92.35L346.642 96.0601C361.403 99.7801 376.933 103.707 376.933 125.662C376.933 145.778 358.658 154.566 337.027 154.566C313.811 154.566 296.324 143.741 293.932 123.074L316.242 120.821C317.453 133.043 326.477 137.718 337.332 137.718C346.927 137.718 354.062 133.673 354.062 126.479C354.062 119.285 348.561 117.288 339.192 114.896L324.656 111.157C311.331 107.683 296.963 103.205 296.963 84.0736C296.963 65.5722 313.506 55.672 335.049 55.672C356.207 55.672 370.684 65.8674 374.177 84.6936L352.359 86.1698Z" fill="white"/>
<path d="M454.805 132.981C452.266 142.823 442.503 155.695 419.465 155.695C396.939 155.695 383.191 141.622 383.191 119.027C383.191 96.2345 396.624 82.0927 419.406 82.0927C442.188 82.0927 457.206 96.2935 455.494 123.209H404.723C404.91 134.3 410.628 141.504 419.485 141.504C428.627 141.504 432.121 135.944 433.263 131.535L454.805 132.981ZM404.92 110.455H433.951C433.459 102.257 428.352 95.9294 419.406 95.9294C410.461 95.9294 405.412 102.257 404.92 110.455Z" fill="white"/>
<path d="M505.703 105.131C504.503 98.9014 499.602 95.4177 493.176 95.4177C487.153 95.4177 482.783 97.9961 482.783 102.779C482.783 107.316 487.389 108.684 494.455 109.884L501.777 111.016C514.62 113.132 527.236 116.921 527.236 132.972C527.236 148.717 512.74 155.695 493.697 155.695C475.088 155.695 461.674 147.684 459.253 133.533L479.044 131.171C480.441 138.689 485.755 142.37 493.855 142.37C501.098 142.37 505.753 139.181 505.753 133.936C505.753 129.626 500.931 127.638 493.304 126.398L485.283 125.128C473.838 123.347 461.723 119.223 461.723 103.911C461.723 89.7688 476.485 82.0927 492.989 82.0927C509.866 82.0927 522.748 89.7983 525.11 102.907L505.703 105.131Z" fill="white"/>
<path d="M578.171 105.131C576.97 98.9016 572.069 95.4179 565.643 95.4179C559.62 95.4179 555.25 97.9962 555.25 102.779C555.25 107.316 559.856 108.684 566.922 109.884L574.244 111.016C587.037 113.132 599.703 116.921 599.703 132.972C599.703 148.718 585.207 155.695 566.164 155.695C547.555 155.695 534.141 147.684 531.72 133.533L551.511 131.171C552.908 138.689 558.223 142.37 566.273 142.37C573.506 142.37 578.161 139.182 578.161 133.936C578.161 129.626 573.348 127.638 565.721 126.398L557.78 125.128C546.344 123.347 534.23 119.224 534.23 103.911C534.23 89.769 548.991 82.0929 565.495 82.0929C582.373 82.0929 595.255 89.7985 597.607 102.907L578.171 105.131Z" fill="white"/>
<path d="M626.505 58.9746V75.4487H605.455V58.9746H626.505ZM626.505 84.6699V154.946H605.455V84.6699H626.505Z" fill="white"/>
<path d="M707.487 118.968C707.487 141.681 693.709 155.695 670.701 155.695C647.692 155.695 633.855 141.681 633.855 118.968C633.855 96.2542 647.633 82.0927 670.701 82.0927C693.768 82.0927 707.487 96.1853 707.487 118.968ZM686.033 118.968C686.033 104.255 680.05 97.504 670.701 97.504C661.351 97.504 655.309 104.255 655.309 118.968C655.309 133.68 661.292 140.293 670.701 140.293C680.109 140.293 686.033 133.67 686.033 118.968Z" fill="white"/>
<path d="M735.791 93.1839C740.229 86.9347 747.335 82.0929 758.17 82.0929C772.046 82.0929 782.822 90.0839 782.822 107.916V154.032H761.772V112.974C761.772 102.631 757.471 98.8426 749.805 98.8426C742.631 98.8426 736.135 104.275 736.135 115.897V153.983H715.085V83.7068H735.26V93.1839H735.791Z" fill="white"/>
<path d="M950.181 132.982C947.642 142.823 937.87 155.695 914.841 155.695C892.315 155.695 878.557 141.622 878.557 119.027C878.557 96.2347 892 82.0929 914.782 82.0929C937.565 82.0929 952.572 96.2937 950.86 123.209H900.099C900.286 134.3 906.004 141.504 914.861 141.504C924.013 141.504 927.507 135.944 928.639 131.535L950.181 132.982ZM900.286 110.455H929.347C928.855 102.257 923.747 95.9296 914.802 95.9296C905.856 95.9296 900.808 102.257 900.286 110.455Z" fill="white"/>
<path d="M1005.01 154.032C1003.75 152.556 1003.05 148.895 1003.05 144.043C999.258 151.512 990.076 155.695 980.008 155.695C967.845 155.695 956.527 148.029 956.527 134.959C956.527 119.922 967.028 114.214 985.283 111.931C999.396 110.101 1003 108.211 1003 104.127C1003 99.3049 999.228 96.4215 991.975 96.4215C989.006 96.3223 986.09 97.2312 983.703 99.0003C981.315 100.769 979.597 103.294 978.827 106.164L959.263 103.743C962.383 90.0739 975.009 82.0927 992.428 82.0927C1013.99 82.0927 1024.05 91.2745 1024.05 105.505V140.402C1024.05 147.448 1024.18 151.345 1025.9 154.032H1005.01ZM1002.98 120.168C1000.72 121.772 995.567 122.609 989.298 123.613C982.793 124.685 977.971 127.766 977.971 133.611C977.971 138.817 981.622 141.907 987.281 141.907C993.865 141.907 1003.03 137.735 1003.03 126.89L1002.98 120.168Z" fill="white"/>
<path d="M1053.91 94.6513H1054.44C1058.31 87.1031 1065.27 82.094 1075.76 82.094C1077.19 82.0774 1078.62 82.2528 1080 82.6155V102.091C1077.5 101.783 1074.98 101.609 1072.46 101.57C1062.34 101.57 1054.75 105.792 1054.75 119.52V153.964H1033.72V83.7571H1053.89L1053.91 94.6513Z" fill="white"/>
<path d="M840.277 58.9746C859.546 58.9746 870.608 69.1799 870.608 84.4731C870.608 93.3892 866.032 99.5891 858.523 103.053V103.585C867.478 107.226 873.718 114.361 873.718 125.609C873.718 143.048 862.262 153.627 842.226 153.627H792.626V58.9746H840.277ZM835.603 97.6603C843.859 97.6603 848.16 93.5466 848.16 86.835C848.16 80.1233 843.859 75.9605 835.603 75.9605H815.163V97.6996L835.603 97.6603ZM837.256 136.277C846.113 136.277 850.768 131.848 850.768 124.576C850.768 117.303 846.162 112.885 837.256 112.885H815.163V136.277H837.256Z" fill="white"/>
</svg>
