<svg width="14" height="14" viewBox="0 0 14 14" fill="none" xmlns="http://www.w3.org/2000/svg">
<mask id="mask0_13099_7058" style="mask-type:alpha" maskUnits="userSpaceOnUse" x="0" y="0" width="14" height="14">
<rect width="14" height="14" fill="#D9D9D9"/>
</mask>
<g mask="url(#mask0_13099_7058)">
<path d="M10.85 5.58542L10.0771 3.90833L8.4 3.15L10.0771 2.37708L10.85 0.699999L11.6083 2.37708L13.2854 3.15L11.6083 3.90833L10.85 5.58542ZM10.85 13.2854L10.0917 11.5937L8.4 10.8354L10.0917 10.0771L10.85 8.38542L11.6083 10.0771L13.3 10.8354L11.6083 11.5937L10.85 13.2854ZM5.25 11.5354L3.83542 8.4L0.7 6.98542L3.83542 5.57083L5.25 2.43542L6.66458 5.57083L9.8 6.98542L6.66458 8.4L5.25 11.5354Z" fill="#F2AA09"/>
</g>
</svg>
