<svg width="84" height="5" viewBox="0 0 84 5" fill="none" xmlns="http://www.w3.org/2000/svg">
<path d="M31.8049 0.130946C32.2217 0.118262 32.6385 0.101351 33.0552 0.0886667C33.201 0.0837341 33.3467 0.0795062 33.4924 0.0780968C35.7902 0.0548431 38.0872 0.0358172 40.3851 0.0146774C40.8226 0.0104495 41.2601 -0.00293906 41.6977 0.000584239C42.6769 0.00622152 43.657 0.0287706 44.6362 0.0414545C45.9548 0.0583664 47.2726 0.0745735 48.5912 0.0893714C49.065 0.0950087 49.5393 0.0999413 50.0132 0.103465C50.2008 0.105579 50.3884 0.0992366 50.576 0.106283C52.5669 0.183091 54.5577 0.270469 56.5486 0.353619C57.4711 0.39308 58.3937 0.427608 59.3159 0.47482C59.8269 0.502302 60.3378 0.543877 60.8488 0.578405C62.9175 0.719337 64.9874 0.855337 67.0565 1.00402C67.312 1.02234 67.5675 1.05335 67.823 1.07871C68.334 1.12804 68.8449 1.17948 69.3559 1.22669C69.413 1.23303 69.4701 1.23656 69.5276 1.23867C70.5228 1.28447 71.5184 1.32605 72.5136 1.37044C73.2697 1.40427 74.025 1.4395 74.7811 1.47262L75.0466 1.48107C75.6003 1.50081 76.5245 1.52758 77.0945 1.55788C77.3864 1.57339 77.6794 1.56986 77.9704 1.61426C78.0878 1.63258 78.2115 1.64597 78.3149 1.74462C78.3848 1.81015 78.3796 2.0589 78.4582 2.07722C79.0842 2.22238 79.7189 2.20406 80.3505 2.21815C80.3956 2.21956 80.4303 2.13641 80.4746 2.12372C80.6295 2.08004 80.7864 2.03564 80.9433 2.05185C81.0359 2.06101 81.1197 2.15896 81.21 2.19912C81.251 2.21668 81.2931 2.2259 81.3353 2.22661C81.9409 2.24493 82.3202 2.21744 82.8826 2.25268C82.9992 2.25972 83.3002 2.28791 83.4459 2.3316C83.5198 2.35415 83.5984 2.35979 83.6655 2.41827C83.7749 2.51622 83.8918 2.62121 83.9649 2.79386C84.0032 2.88405 84.0184 3.06233 83.9677 3.12998C83.3896 3.89947 82.9489 3.6021 82.2355 3.56687C80.7654 3.48844 79.2956 3.39918 77.8259 3.2991C77.3828 3.2688 76.9397 3.24554 76.4965 3.20608C75.4642 3.11518 74.4326 3.00737 73.4003 2.90942C71.5284 2.73185 69.6581 2.51904 67.7854 2.37811C67.3064 2.34287 66.8269 2.37811 66.3475 2.38022C64.5499 2.38445 62.7526 2.38374 60.9554 2.39431C59.9865 2.39995 59.0173 2.41898 58.0484 2.42955C57.319 2.43659 56.5897 2.44364 55.8603 2.44787C52.0367 2.47394 48.2123 2.50001 44.3887 2.52256C43.5915 2.5275 42.7943 2.51552 41.9975 2.53031C41.758 2.53525 41.5184 2.56414 41.2789 2.57753C40.0965 2.64235 38.914 2.6952 37.732 2.76356C37.0705 2.80231 36.4094 2.85516 35.7479 2.90026C34.6441 2.97636 33.5403 3.04824 32.4357 3.12716C30.4979 3.26809 28.8915 3.41537 26.9067 3.57321C25.7486 3.66482 23.9366 3.79729 22.7354 3.88044C22.4906 3.89806 22.2463 3.91286 22.0008 3.92765C20.9389 3.99248 19.8766 4.0552 18.8143 4.12144C18.481 4.14258 18.1477 4.16442 17.8143 4.18979C16.4759 4.29582 15.1378 4.41749 13.8003 4.5548C13.2738 4.60836 12.7484 4.66896 12.2226 4.72885C11.9105 4.76409 11.5959 4.7669 11.2857 4.8416C11.2178 4.85781 11.1675 4.98042 11.0993 4.99874C11.0594 5.0086 10.4965 4.95857 10.4422 4.92123C10.3927 4.8874 10.336 4.78663 10.3468 4.69362C10.3583 4.60201 10.4338 4.57242 10.4865 4.55339C10.6661 4.48997 10.8506 4.48152 11.033 4.44981C11.3284 4.39696 11.9939 4.29901 12.2195 4.27012C13.0833 4.15949 13.9472 4.04815 14.8119 3.95232C15.465 3.87974 17.6922 3.65284 18.7948 3.5718C20.6144 3.43933 20.7521 3.45765 22.7158 3.30121C24.5486 3.15394 26.3813 2.99468 28.2137 2.84036C28.9482 2.77906 29.7039 2.96932 30.4161 2.65363C31.0229 2.38445 29.1666 2.68182 28.5414 2.69591C26.4208 2.74312 24.301 2.7854 22.1809 2.83895C20.3317 2.88546 18.4826 2.93408 16.6335 2.99398C15.9249 3.01653 15.2163 3.05599 14.5085 3.08699C13.6494 3.12646 12.7895 3.16098 11.9304 3.20679C10.0661 3.30544 8.20183 3.41396 6.33754 3.51543C5.34751 3.57039 4.35827 3.62324 3.36864 3.67398C2.94708 3.69653 2.52511 3.71414 2.10315 3.73317C1.88439 3.74303 1.66562 3.75149 1.44726 3.76347C1.33228 3.77051 1.21771 3.77756 1.10314 3.78602C0.957828 3.79659 0.811319 3.82407 0.665609 3.79588C0.576378 3.78019 0.487644 3.75667 0.399737 3.72542C0.366603 3.71414 0.32788 3.70991 0.305524 3.66693C0.192948 3.45201 -0.0298094 3.25752 0.00332475 2.97073C0.0372573 2.68252 0.277181 2.61276 0.437662 2.53243C0.71551 2.39572 1.00933 2.38727 1.29596 2.33019C1.86043 2.21744 2.51713 2.15262 3.07602 2.09131C4.33031 1.95377 5.58504 1.82881 6.84014 1.71643C10.1296 1.42047 13.8151 1.09351 17.1181 0.85886C20.505 0.617162 23.0344 0.47623 26.3202 0.300065C26.5494 0.288086 26.7785 0.277516 27.0077 0.269764C27.325 0.259194 27.6432 0.25708 27.9606 0.248625C29.242 0.211278 30.5235 0.171817 31.8049 0.130946ZM24.9705 1.67556C26.1582 1.66429 27.3298 1.63751 28.5175 1.61073C30.44 1.56775 32.3778 1.53956 34.3004 1.51208C36.019 1.48812 37.7228 1.48037 39.4262 1.47262L44.4905 1.45007L49.5852 1.42752C48.5696 1.42047 47.5377 1.39722 46.5217 1.39017L42.7232 1.33732C42.2386 1.3331 41.7695 1.31266 41.2853 1.32323L34.6118 1.38242C34.096 1.3937 33.5646 1.39088 33.0329 1.40356C31.9391 1.42752 30.8456 1.46698 29.7518 1.49164C28.8296 1.51278 27.9234 1.54802 27.0017 1.56916C26.7669 1.5903 26.5166 1.59523 26.2671 1.61566C25.8452 1.62553 25.4232 1.65019 24.9705 1.67556Z" fill="#FDBA0F"/>
</svg>
