<svg width="80" height="16" viewBox="0 0 80 16" fill="none" xmlns="http://www.w3.org/2000/svg">
<path d="M27.0846 14.4363H20.3091C20.0811 14.4363 19.9117 14.2595 19.9117 14.0239V13.1726C19.9053 12.9627 19.9703 12.8716 20.1003 12.7078L25.4949 6.25764H20.2111C19.9831 6.25764 19.8137 6.08092 19.8137 5.8453V5.24244C19.8137 5.01327 19.9831 4.83011 20.2111 4.83011H27.0517C27.2797 4.83011 27.4491 5.00682 27.4491 5.24244V6.11314C27.4491 6.27052 27.3969 6.40122 27.2797 6.54572L21.8787 13.0152H27.091C27.3191 13.0152 27.4885 13.1919 27.4885 13.4275V14.0304C27.4821 14.2595 27.3127 14.4363 27.0846 14.4363ZM40.4342 14.613C40.9232 14.6065 41.2812 14.5016 41.4177 14.3442C41.4635 14.2853 41.4891 14.22 41.4827 14.1546C41.4763 14.1021 41.4763 14.1021 41.3463 13.4606L41.3399 13.4477C41.3142 13.2775 41.1961 13.2057 41.099 13.2057H41.0862C41.0862 13.2057 40.9626 13.1992 40.8454 13.1992C40.5001 13.1864 40.2135 13.1339 40.2071 12.6166V1.69985C40.2071 1.51669 40.1027 1.33354 39.8948 1.32617H39.8362L38.8912 1.57468C38.7282 1.59401 38.5652 1.71182 38.5716 1.92811V12.6406C38.5771 13.9125 39.2355 14.613 40.4342 14.613ZM59.562 14.4363H58.715C58.4869 14.4363 58.3175 14.2595 58.3175 14.0239V7.46243C58.3047 6.34968 57.9787 6.04135 56.8194 6.02846C55.5099 6.02846 54.1812 6.36901 53.738 6.49326V14.0304C53.738 14.266 53.5814 14.4427 53.3598 14.4427H52.4999C52.2719 14.4427 52.1025 14.266 52.1025 14.0304V6.66353C52.0896 5.98244 52.1547 5.5112 53.0924 5.19642C53.9916 4.87521 55.7178 4.60737 56.8579 4.60737C59.0272 4.60737 59.9594 5.41916 59.9594 7.30505V14.0304C59.953 14.2595 59.7836 14.4363 59.562 14.4363ZM68.038 6.29721C67.7258 6.21254 66.8458 6.00913 65.8559 6.00913C64.0381 6.02846 63.2762 6.53284 63.2561 9.65021C63.2753 13.0685 64.2661 13.2517 65.8751 13.271V13.3428V13.2646C66.8787 13.2646 67.7386 13.0483 68.0444 12.9636V6.29721H68.038ZM68.4877 14.312L68.3897 14.3378C67.8558 14.4749 67.1196 14.6719 65.8293 14.6719H65.8229C62.2726 14.6654 61.5684 12.8191 61.5684 9.62996C61.5748 5.976 62.6957 4.61382 65.7185 4.60737C66.7871 4.60737 67.517 4.75187 68.0444 4.88257L68.038 1.93547C68.0316 1.80478 68.0902 1.6345 68.3897 1.58204L69.3347 1.33354H69.3869C69.6021 1.33998 69.68 1.53694 69.68 1.70721V12.774C69.6928 13.4671 69.6149 14.0626 68.4877 14.312ZM75.374 13.2443C73.048 13.2315 72.9308 12 72.9116 9.64284C72.9308 7.27283 73.0416 6.0349 75.374 6.02202C77.6999 6.0349 77.8236 7.27283 77.8364 9.64284C77.8172 12 77.6999 13.2379 75.374 13.2443ZM75.374 4.60093C71.5371 4.60737 71.2111 7.20748 71.2046 9.64284C71.2046 12.0718 71.5306 14.659 75.374 14.6654C79.2109 14.659 79.5369 12.0791 79.5433 9.64284C79.5369 7.09612 79.2118 4.60737 75.374 4.60093ZM48.76 9.69531C48.3754 9.70175 46.5119 9.72844 45.7693 9.89135L45.7106 9.90423C44.8764 10.0938 44.2189 10.2512 44.2061 11.5214C44.2061 13.1256 45.3984 13.2701 46.6163 13.2766C47.3782 13.2766 48.1016 13.1652 48.76 12.9425V9.69531ZM50.4084 7.35751V12.4519C50.4276 13.7156 50.1089 14.1215 48.8708 14.416C48.3296 14.5338 47.4963 14.6645 46.5971 14.671C45.2748 14.6645 42.5184 14.6645 42.512 11.5996C42.5056 9.19001 43.9067 8.76387 45.6063 8.50248C46.7207 8.31932 47.8544 8.29263 48.4276 8.29263H48.7408V7.42194C48.7344 6.84577 48.7344 6.49878 48.2133 6.29537C47.8937 6.15824 47.4121 6.09197 46.7015 6.09197C45.5284 6.09197 44.4735 6.36072 43.7766 6.54388L43.5092 6.60923C43.4836 6.61567 43.4506 6.62211 43.4112 6.62856C43.2876 6.62856 43.1503 6.55032 43.1054 6.38649L43.099 6.37361L42.9424 5.55538V5.50936C42.9424 5.31976 43.0788 5.20195 43.2098 5.16237C43.7702 4.94608 45.2555 4.60553 46.8581 4.60553C48.0247 4.60553 48.8708 4.76292 49.4377 5.08322C50.4148 5.60968 50.4084 6.57886 50.4084 7.35751ZM34.981 12.9498C34.3226 13.1726 33.6001 13.2839 32.8373 13.2839C31.6193 13.271 30.4271 13.133 30.4271 11.5287C30.4335 10.2521 31.0919 10.1012 31.9316 9.9116L31.9902 9.89871C32.7329 9.73488 34.5964 9.70267 34.981 9.70267V12.9498ZM35.6586 5.08506C35.0918 4.76384 34.2448 4.60737 33.079 4.60737C31.4765 4.60737 29.9976 4.94792 29.4307 5.16421C29.3071 5.20379 29.1698 5.3216 29.1634 5.5112V5.55078L29.319 6.36901L29.3254 6.38833C29.3776 6.55216 29.5077 6.6304 29.6313 6.6304C29.6707 6.6304 29.7027 6.62395 29.7293 6.61107L29.9967 6.54572C30.6935 6.36901 31.7494 6.09381 32.9215 6.09381C33.6312 6.09381 34.1138 6.15916 34.4398 6.29721C34.9609 6.50062 34.9609 6.84761 34.9673 7.42378V8.28158H34.6477C34.0744 8.28158 32.9408 8.30735 31.8263 8.49143C30.1258 8.76019 28.7183 9.17897 28.732 11.595C28.732 14.6599 31.4875 14.6663 32.8171 14.6663C33.7164 14.6663 34.5433 14.5292 35.0909 14.4114C36.329 14.1169 36.6412 13.711 36.6284 12.4473V7.35751C36.6229 6.57886 36.6229 5.60968 35.6586 5.08506Z" fill="#5C5C5C"/>
<path d="M14.9751 6.27625C13.8607 4.86805 12.3104 3.50679 10.271 2.2753L10.2646 2.26886C8.21886 1.06406 6.29033 0.363646 4.55135 0.0755627C3.46987 -0.107595 2.94882 0.101334 2.71439 0.245835C2.47997 0.382974 2.04316 0.743768 1.65214 1.79762C1.0267 3.4939 0.66132 5.56294 0.64209 7.99186V7.9983C0.65491 10.4272 1.0267 12.5036 1.65214 14.199C2.04316 15.2602 2.47997 15.6136 2.71439 15.7572C2.94882 15.8944 3.46987 16.1106 4.55135 15.9275C6.29125 15.6394 8.21245 14.9325 10.2646 13.7277L10.271 13.7213C12.3104 12.4898 13.8607 11.1286 14.9751 9.72036C15.6656 8.84322 15.7508 8.2735 15.7508 7.9983C15.7508 7.72311 15.672 7.1543 14.9751 6.27625Z" fill="#5C5C5C"/>
</svg>
