<svg id="svg" version="1.1" xmlns="http://www.w3.org/2000/svg" xmlns:xlink="http://www.w3.org/1999/xlink" width="400" height="233.33333333333334" viewBox="0, 0, 400,233.33333333333334"><g id="svgg"><path id="path0" d="M105.984 104.087 C 95.557 106.287,88.673 121.207,94.966 127.966 C 98.505 131.768,106.603 130.717,111.105 125.871 C 120.947 115.278,117.734 101.608,105.984 104.087 M124.447 104.091 C 123.599 104.432,122.945 105.690,123.073 106.735 C 123.395 109.368,127.085 109.902,127.899 107.434 C 128.662 105.123,126.672 103.196,124.447 104.091 M149.185 104.091 C 148.074 104.537,147.427 106.338,147.987 107.425 C 149.298 109.970,152.534 109.483,152.801 106.702 C 153.000 104.635,151.151 103.300,149.185 104.091 M230.688 104.207 C 229.790 104.380,228.591 104.608,228.023 104.714 C 226.907 104.923,226.421 105.484,227.355 105.484 C 228.599 105.484,228.791 106.727,227.979 109.513 C 227.709 110.442,227.343 111.716,227.167 112.345 C 226.750 113.831,226.762 113.825,225.721 113.104 C 221.827 110.405,214.901 117.690,214.527 124.878 C 214.181 131.517,218.641 132.127,222.475 125.965 C 223.768 123.887,224.197 123.861,223.461 125.904 C 221.895 130.251,225.390 131.764,228.849 128.236 C 230.189 126.870,230.786 125.924,230.493 125.631 C 230.427 125.565,229.910 125.993,229.345 126.583 C 227.146 128.878,226.903 128.045,228.331 123.104 C 228.664 121.949,229.159 120.216,229.430 119.253 C 229.701 118.291,230.058 117.030,230.224 116.453 C 230.389 115.875,230.850 114.247,231.248 112.835 C 231.646 111.424,232.339 108.986,232.789 107.418 C 233.944 103.387,234.056 103.559,230.688 104.207 M257.876 104.004 C 255.276 105.042,256.016 108.993,258.807 108.980 C 261.096 108.968,262.206 106.572,260.735 104.818 C 260.089 104.047,258.734 103.661,257.876 104.004 M284.481 104.223 C 281.134 104.843,280.901 104.904,280.805 105.193 C 280.748 105.364,280.910 105.484,281.194 105.484 C 281.461 105.484,281.888 105.692,282.142 105.946 C 282.751 106.555,282.713 106.777,280.962 112.835 C 280.553 114.247,280.088 115.928,279.927 116.569 C 279.766 117.211,279.373 118.629,279.055 119.720 C 277.916 123.617,277.190 126.156,276.885 127.305 C 276.714 127.946,276.503 128.708,276.416 128.996 C 276.260 129.514,276.288 129.522,278.391 129.522 C 280.857 129.522,280.577 129.808,281.540 126.295 C 282.194 123.912,282.792 122.660,284.630 119.837 C 287.274 115.774,290.010 114.355,289.196 117.468 C 288.595 119.772,288.224 121.126,287.684 122.987 C 286.414 127.366,286.328 128.204,287.058 129.131 C 288.467 130.922,291.989 129.340,293.878 126.067 C 294.540 124.919,293.923 124.962,293.069 126.124 C 292.286 127.190,291.685 127.575,291.237 127.297 C 290.950 127.120,291.059 126.493,291.857 123.746 C 292.164 122.687,292.676 120.901,292.994 119.778 C 293.313 118.655,293.680 117.414,293.811 117.020 C 294.688 114.377,293.598 112.308,291.461 112.561 C 289.522 112.791,287.630 114.398,285.235 117.853 C 284.389 119.072,283.664 120.114,283.622 120.167 C 283.581 120.221,283.481 120.198,283.400 120.117 C 283.246 119.963,283.359 119.481,284.310 116.219 C 284.628 115.128,285.276 112.818,285.750 111.085 C 286.223 109.352,286.704 107.672,286.818 107.351 C 286.933 107.030,287.142 106.295,287.284 105.718 C 287.426 105.140,287.596 104.484,287.661 104.259 C 287.807 103.755,287.053 103.746,284.481 104.223 M302.974 104.199 C 300.842 105.739,301.753 108.985,304.317 108.985 C 307.575 108.985,307.764 104.267,304.520 103.926 C 303.811 103.851,303.340 103.934,302.974 104.199 M108.993 105.251 C 113.255 105.251,111.458 119.431,106.348 126.124 C 103.791 129.473,100.644 129.935,98.803 127.231 C 97.659 125.553,97.898 122.094,99.620 115.403 C 101.176 109.352,105.378 104.365,108.245 105.164 C 108.416 105.212,108.753 105.251,108.993 105.251 M124.621 112.611 C 124.428 112.650,123.194 112.867,121.879 113.094 C 119.249 113.548,119.152 113.609,120.250 114.119 C 121.343 114.627,121.333 115.507,120.184 119.516 C 118.421 125.676,118.246 126.365,118.147 127.541 C 117.805 131.633,123.350 130.592,125.850 126.094 C 126.543 124.847,125.899 125.017,124.868 126.354 C 123.774 127.771,123.290 128.057,122.806 127.573 C 122.448 127.215,122.594 126.485,124.050 121.354 C 126.879 111.391,126.671 112.479,125.734 112.512 C 125.314 112.527,124.813 112.571,124.621 112.611 M133.415 112.723 C 129.284 113.963,129.201 117.921,133.208 122.520 C 135.921 125.633,136.489 127.334,135.259 128.661 C 133.418 130.648,130.457 128.956,129.237 125.222 C 128.766 123.778,128.440 123.945,128.263 125.721 C 128.177 126.592,127.984 127.905,127.835 128.640 C 127.529 130.145,127.672 130.490,128.347 129.879 C 128.840 129.432,129.767 129.458,132.205 129.987 C 136.023 130.814,139.316 128.299,139.321 124.551 C 139.324 122.449,138.628 121.182,135.817 118.173 C 133.841 116.058,133.541 114.964,134.638 113.868 C 136.273 112.233,139.366 114.071,139.916 117.005 C 140.273 118.905,140.588 118.322,140.967 115.062 C 141.277 112.393,141.257 112.319,140.337 112.792 C 139.764 113.087,139.466 113.090,138.156 112.814 C 136.474 112.460,134.421 112.421,133.415 112.723 M149.358 112.611 C 149.166 112.650,147.932 112.867,146.616 113.094 C 144.577 113.446,143.436 113.886,144.561 113.886 C 144.746 113.886,145.182 114.130,145.529 114.428 L 146.159 114.970 145.557 117.287 C 145.225 118.561,144.783 120.181,144.573 120.887 C 144.182 122.205,143.447 124.805,143.055 126.254 C 141.705 131.255,146.887 131.540,150.182 126.646 C 150.949 125.507,151.062 124.519,150.313 125.497 C 150.109 125.764,149.690 126.310,149.382 126.712 C 148.101 128.384,146.954 128.085,147.471 126.213 C 148.219 123.504,148.450 122.659,148.754 121.529 C 149.169 119.984,150.209 116.327,150.785 114.386 C 151.027 113.570,151.225 112.809,151.225 112.694 C 151.225 112.499,150.147 112.451,149.358 112.611 M159.277 112.717 C 158.763 112.812,157.555 113.024,156.593 113.187 C 154.641 113.519,153.933 113.886,155.245 113.886 C 156.195 113.886,157.400 114.736,157.656 115.588 C 157.742 115.871,157.945 116.418,158.108 116.803 C 158.494 117.712,159.272 120.213,159.643 121.737 C 159.935 122.936,159.934 122.940,159.100 124.071 C 157.173 126.683,156.281 127.143,154.402 126.497 C 152.062 125.692,150.261 127.574,151.576 129.451 C 152.898 131.339,155.287 130.023,159.292 125.200 L 160.241 124.057 161.113 126.307 C 162.408 129.651,163.659 130.599,165.957 129.980 C 167.034 129.690,169.091 127.817,169.767 126.510 C 170.342 125.397,169.971 125.293,169.136 126.333 C 168.211 127.485,167.453 127.790,166.716 127.307 C 165.911 126.780,165.485 125.836,163.956 121.193 L 163.557 119.982 164.202 118.882 C 164.556 118.278,165.242 117.367,165.725 116.859 L 166.604 115.935 168.462 116.100 C 170.749 116.302,171.198 116.171,171.518 115.203 C 172.008 113.717,171.180 112.485,169.692 112.485 C 168.145 112.485,166.960 113.461,164.850 116.472 C 163.353 118.609,163.231 118.662,162.895 117.328 C 162.623 116.252,162.473 115.862,161.543 113.827 C 160.899 112.419,160.895 112.417,159.277 112.717 M199.313 112.966 C 193.846 115.446,189.796 125.653,192.870 129.207 C 194.724 131.351,197.424 129.975,200.500 125.317 C 200.985 124.582,201.336 124.880,200.959 125.708 C 198.565 130.962,204.222 131.844,207.598 126.743 C 208.492 125.392,208.066 125.075,207.072 126.352 C 205.880 127.882,204.902 128.068,204.899 126.766 C 204.898 126.152,205.276 124.745,207.416 117.386 C 208.912 112.243,208.898 112.716,207.553 112.732 C 205.226 112.760,204.655 112.976,204.317 113.961 C 203.898 115.181,203.822 115.209,203.507 114.255 C 202.941 112.539,201.339 112.047,199.313 112.966 M240.023 113.034 C 238.128 113.919,234.072 118.584,234.072 119.880 C 234.072 119.946,233.923 120.330,233.741 120.735 C 232.626 123.205,232.353 126.411,233.109 128.160 C 234.523 131.436,237.512 130.738,240.606 126.410 C 242.012 124.443,242.231 124.429,241.675 126.344 C 240.219 131.351,245.097 131.670,248.488 126.789 C 249.544 125.268,249.086 125.156,247.736 126.604 C 245.180 129.349,245.220 127.891,247.958 118.553 C 248.833 115.569,249.452 113.233,249.467 112.859 C 249.479 112.535,245.689 112.895,245.459 113.240 C 245.350 113.402,245.199 113.824,245.122 114.177 C 244.932 115.053,244.737 114.985,244.246 113.871 C 243.583 112.368,242.087 112.072,240.023 113.034 M257.876 112.611 C 257.684 112.650,256.450 112.867,255.134 113.094 C 252.554 113.539,252.370 113.643,253.442 114.047 C 254.639 114.499,254.629 115.521,253.390 119.720 C 253.068 120.811,252.510 122.701,252.150 123.921 C 251.246 126.988,251.139 128.692,251.807 129.403 C 253.370 131.067,256.509 129.865,258.569 126.813 C 259.992 124.704,259.289 124.712,257.774 126.822 C 257.125 127.724,256.503 128.015,256.093 127.605 C 255.669 127.181,255.928 125.953,257.753 119.720 C 258.179 118.265,258.999 115.284,259.262 114.236 C 259.359 113.851,259.514 113.299,259.606 113.011 C 259.776 112.483,259.182 112.346,257.876 112.611 M270.595 112.691 C 260.972 115.233,257.875 130.110,266.978 130.067 C 269.758 130.055,274.679 127.307,274.679 125.767 C 274.679 125.399,274.273 125.533,273.549 126.142 C 267.630 131.123,263.579 124.421,267.867 116.740 C 269.453 113.899,272.902 112.076,273.737 113.637 C 274.065 114.249,274.083 114.202,273.162 115.123 C 271.867 116.417,272.101 117.942,273.667 118.418 C 276.295 119.218,277.571 114.823,275.215 113.090 C 274.543 112.596,271.839 112.362,270.595 112.691 M303.384 112.608 C 303.191 112.646,301.984 112.858,300.700 113.079 C 298.482 113.462,297.297 113.886,298.447 113.886 C 299.126 113.886,300.180 114.935,300.034 115.465 C 299.973 115.687,299.638 116.919,299.291 118.203 C 298.944 119.487,298.294 121.797,297.847 123.337 C 296.436 128.206,296.602 129.715,298.592 130.088 C 300.434 130.434,303.209 128.624,304.416 126.290 C 305.088 124.990,304.691 124.950,303.757 126.222 C 301.946 128.689,300.689 128.266,301.621 125.504 C 301.807 124.954,302.059 124.084,302.182 123.571 C 302.397 122.674,302.741 121.453,304.464 115.469 C 304.897 113.965,305.251 112.679,305.251 112.610 C 305.251 112.484,304.025 112.482,303.384 112.608 M184.014 113.197 C 179.901 114.071,178.312 114.586,179.730 114.586 C 181.431 114.586,181.323 116.672,179.234 124.154 C 178.940 125.207,177.830 129.891,177.830 130.078 C 177.830 130.157,178.766 130.222,179.911 130.222 L 181.993 130.222 182.153 129.463 C 183.705 122.109,187.931 114.986,188.911 118.074 C 189.275 119.222,190.684 118.911,191.350 117.535 C 192.176 115.828,191.959 113.586,190.933 113.238 C 188.954 112.567,187.466 114.326,184.266 121.120 C 183.584 122.567,183.176 122.968,183.434 121.937 C 183.466 121.809,183.630 121.126,183.799 120.420 C 184.104 119.145,184.441 117.847,185.157 115.179 C 185.785 112.842,185.774 112.823,184.014 113.197 M202.464 113.751 C 204.407 115.175,200.578 126.721,198.163 126.721 C 198.039 126.721,197.780 126.782,197.587 126.856 C 195.731 127.568,195.990 122.729,198.059 118.021 C 199.791 114.080,201.135 112.777,202.464 113.751 M225.438 113.886 C 226.197 114.645,226.007 117.515,225.043 119.837 C 223.069 124.592,221.547 126.721,220.123 126.721 C 218.850 126.721,218.555 124.874,219.358 121.937 C 221.091 115.600,223.698 112.146,225.438 113.886 M243.156 113.643 C 246.029 115.180,240.957 127.970,237.934 126.810 C 236.278 126.174,238.162 118.040,240.752 114.644 C 241.569 113.573,242.388 113.232,243.156 113.643 " stroke="none" fill="#282019" fill-rule="evenodd"></path><path id="path1" d="M0.000 116.686 L 0.000 233.372 200.000 233.372 L 400.000 233.372 400.000 116.686 L 400.000 0.000 200.000 0.000 L 0.000 0.000 0.000 116.686 M112.401 104.333 C 120.333 108.197,118.551 120.452,108.920 128.271 C 108.330 128.750,106.313 129.755,105.941 129.755 C 105.741 129.755,105.446 129.886,105.286 130.047 C 104.771 130.562,98.118 130.443,96.981 129.898 C 90.262 126.680,90.672 115.609,97.773 108.508 C 98.919 107.362,100.698 105.951,100.996 105.951 C 101.133 105.951,101.280 105.872,101.322 105.776 C 101.433 105.527,103.946 104.317,104.352 104.317 C 104.538 104.317,104.791 104.223,104.912 104.107 C 105.764 103.298,110.574 103.443,112.401 104.333 M127.632 104.331 C 128.910 105.866,128.659 108.003,127.086 108.976 C 123.911 110.938,120.962 106.367,123.905 104.044 C 124.779 103.355,126.959 103.523,127.632 104.331 M152.334 104.330 C 153.701 105.612,153.346 108.246,151.689 109.103 C 149.630 110.168,147.491 108.735,147.491 106.291 C 147.491 103.878,150.536 102.645,152.334 104.330 M234.072 103.928 C 234.072 104.099,233.860 104.965,233.600 105.853 C 233.340 106.741,232.977 107.993,232.794 108.635 C 232.611 109.277,232.246 110.528,231.983 111.416 C 231.720 112.304,231.505 113.172,231.505 113.345 C 231.505 113.517,231.401 113.841,231.274 114.064 C 231.146 114.287,230.893 115.099,230.710 115.869 C 230.527 116.639,230.205 117.847,229.993 118.553 C 229.782 119.259,229.466 120.362,229.292 121.004 C 229.117 121.645,228.746 122.958,228.466 123.921 C 227.410 127.557,227.895 128.419,229.565 125.872 C 229.950 125.283,231.039 125.101,231.039 125.625 C 231.039 125.793,230.742 126.397,230.380 126.967 C 227.587 131.371,222.701 131.869,222.787 127.742 C 222.821 126.084,222.837 126.090,221.937 127.431 C 218.988 131.825,214.654 131.420,214.100 126.699 C 213.955 125.457,214.333 122.098,214.701 121.374 C 214.804 121.170,215.315 120.137,215.836 119.078 C 216.938 116.841,216.919 116.867,218.903 114.846 C 221.362 112.342,224.347 111.444,225.971 112.721 L 226.566 113.190 226.732 112.437 C 226.823 112.023,226.977 111.523,227.074 111.326 C 227.380 110.705,228.238 107.385,228.238 106.819 C 228.238 106.131,227.827 105.718,227.141 105.718 C 225.760 105.718,226.503 104.619,228.063 104.354 C 228.865 104.218,229.942 104.008,230.455 103.889 C 231.954 103.539,234.072 103.562,234.072 103.928 M260.514 104.090 C 261.793 105.095,262.105 106.394,261.399 107.769 C 259.907 110.675,256.042 109.646,256.018 106.336 C 256.001 104.070,258.746 102.699,260.514 104.090 M288.109 104.142 C 288.020 104.431,287.842 105.088,287.711 105.601 C 287.581 106.114,287.384 106.744,287.273 107.001 C 287.064 107.486,286.466 109.734,286.064 111.552 C 285.936 112.130,285.738 112.702,285.623 112.824 C 285.508 112.946,285.414 113.217,285.414 113.426 C 285.414 113.809,284.756 116.179,284.136 118.028 C 283.953 118.574,283.836 119.020,283.877 119.020 C 283.917 119.020,284.254 118.574,284.624 118.028 C 284.994 117.482,285.403 116.889,285.531 116.709 C 289.618 110.971,296.124 110.856,294.284 116.553 C 293.949 117.592,292.640 122.244,292.376 123.337 C 292.252 123.851,292.050 124.457,291.928 124.684 C 291.805 124.912,291.646 125.594,291.574 126.201 L 291.444 127.305 292.221 126.468 C 292.649 126.008,293.180 125.406,293.401 125.131 C 294.640 123.589,294.820 125.467,293.587 127.065 C 291.385 129.919,289.178 130.885,287.305 129.813 C 286.021 129.079,285.881 128.113,286.657 125.321 C 286.853 124.615,287.135 123.565,287.284 122.987 C 287.433 122.410,287.643 121.727,287.751 121.470 C 287.859 121.214,288.074 120.426,288.229 119.720 C 288.383 119.014,288.586 118.279,288.679 118.086 C 289.693 115.995,288.696 115.627,286.943 117.445 C 284.380 120.104,281.970 124.785,281.328 128.355 C 281.048 129.905,280.839 130.014,278.264 129.939 C 275.602 129.861,275.720 130.051,276.543 127.188 C 276.820 126.225,277.156 124.965,277.290 124.387 C 277.424 123.810,277.613 123.232,277.709 123.104 C 277.806 122.975,277.959 122.464,278.049 121.967 C 278.138 121.469,278.301 120.892,278.411 120.683 C 278.521 120.474,278.778 119.621,278.983 118.786 C 279.188 117.952,279.503 116.744,279.684 116.103 C 279.864 115.461,280.132 114.463,280.279 113.886 C 280.425 113.308,280.632 112.672,280.737 112.472 C 280.842 112.271,281.057 111.484,281.213 110.721 C 281.369 109.959,281.589 109.222,281.700 109.085 C 282.340 108.293,282.047 106.072,281.272 105.844 C 279.620 105.358,280.523 104.317,282.596 104.317 C 282.940 104.317,283.320 104.220,283.442 104.101 C 284.118 103.440,288.312 103.478,288.109 104.142 M306.394 104.442 C 308.088 106.372,306.812 109.448,304.317 109.448 C 301.829 109.448,300.586 106.487,302.234 104.487 C 303.289 103.207,305.290 103.186,306.394 104.442 M105.905 105.943 C 102.654 107.686,100.085 113.069,98.718 121.004 C 96.873 131.717,105.981 130.704,109.207 119.837 C 109.359 119.323,109.573 118.693,109.681 118.436 C 109.965 117.764,110.387 116.069,110.640 114.586 C 110.760 113.880,110.977 112.602,111.122 111.747 C 111.889 107.223,109.167 104.195,105.905 105.943 M126.721 112.670 C 126.721 113.079,126.317 114.711,125.641 117.036 C 125.454 117.678,125.199 118.623,125.074 119.137 C 124.948 119.650,124.749 120.280,124.630 120.537 C 124.512 120.793,124.308 121.476,124.178 122.054 C 123.839 123.556,123.255 125.798,123.011 126.537 C 122.868 126.966,122.888 127.242,123.071 127.394 C 123.337 127.615,123.683 127.295,125.165 125.457 C 125.742 124.742,126.488 124.733,126.488 125.441 C 126.488 126.011,124.270 128.804,123.182 129.604 C 121.694 130.698,119.628 130.784,118.527 129.798 C 117.703 129.061,117.399 126.511,118.039 125.721 C 118.166 125.565,118.397 124.814,118.554 124.051 C 118.710 123.289,118.924 122.501,119.030 122.301 C 119.135 122.101,119.339 121.464,119.483 120.887 C 119.627 120.309,119.905 119.259,120.100 118.553 C 121.132 114.830,121.070 114.352,119.559 114.352 C 118.284 114.352,119.130 113.159,120.575 112.920 C 121.196 112.817,122.176 112.638,122.754 112.522 C 124.745 112.121,126.721 112.195,126.721 112.670 M138.562 112.464 C 139.163 112.580,139.917 112.558,140.480 112.407 C 141.693 112.084,141.656 111.976,141.333 114.936 C 140.911 118.809,139.872 119.956,139.492 116.969 C 139.194 114.624,136.615 112.823,135.100 113.902 C 133.858 114.786,134.308 116.129,136.701 118.670 C 141.009 123.244,140.805 127.651,136.178 129.961 C 134.971 130.564,131.208 130.601,130.623 130.017 C 130.245 129.638,128.928 129.695,128.588 130.105 C 128.040 130.765,127.109 130.556,127.287 129.813 C 127.398 129.346,127.974 125.271,128.113 123.963 C 128.118 123.922,128.347 123.922,128.623 123.963 C 129.179 124.045,129.304 124.235,129.874 125.855 C 130.487 127.597,132.321 129.288,133.596 129.288 C 134.226 129.288,135.589 127.844,135.589 127.177 C 135.589 126.156,134.169 123.946,132.269 122.009 C 129.025 118.702,129.209 114.412,132.672 112.618 C 133.447 112.216,136.826 112.128,138.562 112.464 M151.564 112.894 C 151.488 113.247,151.284 113.956,151.110 114.469 C 150.936 114.982,150.721 115.770,150.633 116.219 C 150.544 116.669,150.392 117.141,150.295 117.270 C 150.198 117.398,150.044 117.923,149.952 118.436 C 149.861 118.950,149.520 120.263,149.196 121.354 C 148.873 122.445,148.503 123.810,148.375 124.387 C 148.247 124.965,148.048 125.537,147.933 125.659 C 147.681 125.927,147.652 127.655,147.900 127.653 C 147.996 127.653,148.442 127.219,148.891 126.689 C 149.341 126.160,149.889 125.518,150.110 125.263 C 151.218 123.983,151.527 125.401,150.467 126.899 C 148.041 130.323,145.015 131.515,143.243 129.744 C 142.481 128.981,142.338 126.170,143.001 124.971 C 143.143 124.714,143.377 124.032,143.522 123.454 C 143.666 122.876,143.992 121.669,144.247 120.770 C 144.501 119.872,144.816 118.664,144.947 118.086 C 145.078 117.509,145.292 116.817,145.424 116.549 C 145.887 115.604,145.587 114.728,144.701 114.442 C 143.243 113.970,143.606 113.202,145.429 112.903 C 146.114 112.791,147.147 112.612,147.725 112.507 C 148.302 112.401,149.433 112.300,150.238 112.283 L 151.701 112.252 151.564 112.894 M161.555 113.127 C 162.139 114.083,162.998 116.185,163.231 117.231 L 163.379 117.892 163.785 117.347 C 164.008 117.048,164.475 116.383,164.823 115.869 C 167.579 111.795,171.400 110.772,171.919 113.970 C 172.231 115.893,171.081 116.877,168.915 116.541 C 166.641 116.189,166.260 116.369,164.874 118.457 C 164.041 119.712,163.895 120.352,164.279 121.065 C 164.399 121.288,164.759 122.310,165.078 123.337 C 166.368 127.485,167.188 128.105,168.813 126.161 C 170.222 124.474,171.174 125.048,169.952 126.848 C 166.349 132.154,161.758 131.541,160.449 125.579 C 160.231 124.586,160.093 124.645,158.804 126.286 C 155.657 130.291,153.043 131.558,151.441 129.853 C 149.598 127.892,151.796 125.075,154.340 126.138 C 156.050 126.852,156.760 126.515,158.612 124.108 C 159.476 122.985,159.651 122.613,159.459 122.306 C 159.326 122.093,159.140 121.451,159.046 120.878 C 158.951 120.305,158.796 119.732,158.701 119.603 C 158.606 119.475,158.416 118.950,158.280 118.436 C 157.458 115.343,156.577 114.211,155.073 114.312 C 153.624 114.410,153.897 113.260,155.368 113.073 C 155.977 112.996,156.844 112.834,157.293 112.713 C 159.936 112.001,160.927 112.098,161.555 113.127 M202.983 112.674 C 203.250 112.906,203.549 113.405,203.647 113.783 L 203.825 114.469 204.091 113.536 L 204.358 112.602 206.555 112.467 C 207.763 112.392,208.836 112.376,208.940 112.431 C 209.147 112.539,208.923 113.862,208.634 114.236 C 208.535 114.364,208.377 114.938,208.282 115.510 C 208.188 116.083,208.021 116.713,207.913 116.911 C 207.804 117.108,207.552 117.900,207.351 118.670 C 207.151 119.440,206.841 120.595,206.661 121.237 C 206.482 121.879,206.216 122.876,206.069 123.454 C 205.922 124.032,205.718 124.666,205.614 124.863 C 205.185 125.679,205.077 127.188,205.447 127.188 C 205.815 127.188,205.991 127.039,207.056 125.826 C 208.202 124.521,208.839 125.364,207.888 126.927 C 205.039 131.610,199.372 131.803,200.225 127.188 L 200.419 126.138 199.801 126.950 C 198.699 128.400,197.381 129.755,197.073 129.755 C 196.907 129.755,196.732 129.873,196.684 130.018 C 196.322 131.105,192.840 130.290,192.161 128.959 C 191.397 127.461,191.320 123.277,192.030 121.888 C 192.148 121.658,192.485 120.840,192.780 120.070 C 194.822 114.738,200.563 110.576,202.983 112.674 M244.001 112.825 C 244.316 113.140,244.575 113.534,244.576 113.700 C 244.576 113.866,244.784 113.687,245.037 113.302 C 245.488 112.616,249.171 111.968,249.761 112.470 C 249.928 112.612,249.428 114.845,248.661 117.386 C 248.448 118.092,248.167 119.090,248.037 119.603 C 247.906 120.117,247.738 120.694,247.664 120.887 C 247.589 121.079,247.332 121.972,247.092 122.870 C 246.853 123.769,246.558 124.872,246.438 125.321 C 245.892 127.357,246.409 127.769,247.608 126.254 C 249.303 124.115,250.027 125.265,248.366 127.459 C 245.292 131.521,239.733 131.483,241.078 127.408 C 241.515 126.082,241.324 126.121,240.139 127.596 C 235.654 133.175,230.790 130.113,232.679 122.900 C 232.940 121.905,233.251 120.914,233.371 120.697 C 233.491 120.481,233.817 119.778,234.095 119.137 C 236.272 114.115,241.781 110.605,244.001 112.825 M260.210 112.588 C 260.210 112.773,260.117 112.982,260.004 113.052 C 259.890 113.122,259.723 113.680,259.632 114.291 C 259.541 114.902,259.383 115.508,259.282 115.636 C 259.180 115.764,259.021 116.237,258.929 116.686 C 258.836 117.135,258.499 118.396,258.179 119.487 C 256.826 124.109,256.073 127.329,256.294 127.550 C 256.464 127.720,257.689 126.454,258.281 125.496 C 258.709 124.802,259.444 124.643,259.657 125.198 C 259.911 125.861,256.877 129.755,256.106 129.755 C 255.946 129.755,255.773 129.880,255.722 130.033 C 255.668 130.197,254.987 130.352,254.064 130.410 C 251.969 130.544,250.766 129.493,250.934 127.675 C 251.046 126.460,251.710 123.774,252.050 123.165 C 252.174 122.942,252.275 122.619,252.275 122.446 C 252.275 122.152,252.799 120.269,253.552 117.853 C 254.391 115.163,254.207 114.352,252.757 114.352 C 251.388 114.352,252.326 113.176,253.908 112.910 C 254.486 112.813,255.432 112.638,256.009 112.522 C 257.807 112.160,260.210 112.198,260.210 112.588 M275.192 112.670 C 277.852 114.425,277.163 118.786,274.225 118.786 C 272.036 118.786,271.235 116.822,272.718 115.089 C 274.787 112.672,271.846 112.790,269.524 115.217 C 268.449 116.339,267.446 117.871,267.443 118.391 C 267.442 118.545,267.285 118.971,267.092 119.340 C 266.218 121.015,266.232 125.131,267.115 126.314 C 267.809 127.243,269.776 127.991,270.110 127.451 C 270.179 127.340,270.566 127.182,270.971 127.101 C 271.375 127.020,272.319 126.536,273.067 126.025 C 275.430 124.412,275.897 125.286,273.782 127.364 C 270.160 130.924,265.080 131.530,262.469 128.714 C 262.107 128.324,261.752 127.714,261.680 127.358 C 261.609 127.002,261.459 126.655,261.347 126.586 C 261.082 126.422,261.081 122.586,261.346 122.423 C 261.458 122.354,261.616 121.875,261.699 121.359 C 262.238 117.988,266.346 113.683,270.245 112.404 C 271.215 112.086,274.580 112.267,275.192 112.670 M305.544 112.390 C 305.620 112.466,305.531 113.017,305.345 113.615 C 305.159 114.213,304.892 115.228,304.752 115.869 C 304.611 116.511,304.417 117.141,304.321 117.270 C 304.224 117.398,304.069 117.923,303.977 118.436 C 303.884 118.950,303.727 119.475,303.627 119.603 C 303.527 119.732,303.370 120.257,303.278 120.770 C 303.186 121.284,302.841 122.596,302.511 123.687 C 301.420 127.296,301.520 128.368,302.802 126.799 C 304.396 124.849,304.476 124.776,304.864 124.924 C 305.640 125.222,304.846 126.774,302.915 128.733 C 300.526 131.158,297.159 131.078,296.645 128.584 C 296.470 127.731,296.763 125.138,297.081 124.737 C 297.182 124.609,297.393 123.874,297.550 123.104 C 297.706 122.334,297.913 121.599,298.011 121.470 C 298.109 121.342,298.262 120.830,298.352 120.333 C 298.442 119.836,298.609 119.258,298.723 119.049 C 298.913 118.702,299.248 117.381,299.582 115.656 C 299.733 114.881,299.221 114.352,298.322 114.352 C 296.902 114.352,297.788 113.184,299.416 112.910 C 299.994 112.813,300.939 112.638,301.517 112.522 C 302.743 112.275,305.344 112.190,305.544 112.390 M185.706 112.678 C 185.998 112.863,185.715 115.283,185.334 115.869 C 185.251 115.998,185.061 116.628,184.911 117.270 C 184.762 117.911,184.537 118.830,184.410 119.312 C 184.104 120.474,184.214 120.415,184.847 119.078 C 187.216 114.072,189.255 112.051,191.071 112.911 C 191.977 113.341,192.151 113.797,192.105 115.618 C 192.025 118.733,189.554 120.466,188.497 118.147 C 188.202 117.501,188.086 117.495,187.333 118.087 C 186.341 118.867,183.197 125.757,183.197 127.150 C 183.197 127.385,183.118 127.654,183.022 127.749 C 182.926 127.843,182.740 128.464,182.609 129.129 L 182.371 130.338 179.951 130.405 L 177.530 130.472 177.688 129.125 C 177.775 128.384,177.948 127.676,178.072 127.553 C 178.195 127.429,178.298 127.113,178.301 126.849 C 178.303 126.586,178.625 125.111,179.016 123.571 C 180.187 118.965,180.437 117.801,180.556 116.409 L 180.670 115.081 179.833 114.924 C 178.516 114.677,178.683 113.960,180.105 113.754 C 180.715 113.666,181.319 113.513,181.447 113.416 C 181.575 113.318,182.258 113.162,182.964 113.069 C 183.670 112.976,184.405 112.810,184.597 112.700 C 185.038 112.448,185.335 112.442,185.706 112.678 M223.912 113.895 C 222.780 114.323,221.221 117.054,220.187 120.420 C 219.971 121.126,219.696 121.966,219.578 122.287 C 218.900 124.117,219.299 126.474,220.287 126.484 C 221.145 126.493,224.504 121.454,224.504 120.157 C 224.504 119.968,224.595 119.714,224.705 119.592 C 224.963 119.308,225.671 116.423,225.671 115.657 C 225.671 114.305,224.892 113.525,223.912 113.895 M200.408 114.527 C 199.635 115.338,198.348 117.946,197.675 120.070 C 197.390 120.968,197.061 121.945,196.945 122.240 C 196.565 123.199,196.680 126.184,197.102 126.346 C 198.030 126.702,198.705 126.193,200.002 124.154 C 203.373 118.859,203.701 111.077,200.408 114.527 M241.251 114.644 C 240.860 115.061,240.232 116.085,239.854 116.919 C 239.477 117.754,239.020 118.767,238.838 119.172 C 238.655 119.576,238.506 120.054,238.506 120.234 C 238.506 120.413,238.413 120.660,238.300 120.782 C 238.051 121.048,237.573 123.749,237.573 124.887 C 237.573 128.367,240.592 125.811,242.711 120.537 C 244.508 116.063,243.548 112.191,241.251 114.644 " stroke="none" fill="none" fill-rule="evenodd"></path><path id="path2" d="M225.725 115.753 C 225.725 116.202,225.773 116.386,225.832 116.161 C 225.891 115.936,225.891 115.569,225.832 115.344 C 225.773 115.120,225.725 115.303,225.725 115.753 M92.241 121.237 C 92.243 121.750,92.291 121.933,92.347 121.643 C 92.403 121.352,92.401 120.932,92.342 120.709 C 92.284 120.486,92.238 120.723,92.241 121.237 M273.848 127.013 L 273.162 127.771 273.921 127.086 C 274.628 126.447,274.786 126.254,274.606 126.254 C 274.566 126.254,274.225 126.596,273.848 127.013 M120.012 130.383 C 120.236 130.441,120.604 130.441,120.828 130.383 C 121.053 130.324,120.869 130.276,120.420 130.276 C 119.971 130.276,119.787 130.324,120.012 130.383 M133.200 130.387 C 133.490 130.443,133.910 130.440,134.133 130.382 C 134.357 130.324,134.119 130.278,133.606 130.281 C 133.092 130.283,132.910 130.331,133.200 130.387 M164.586 130.383 C 164.810 130.441,165.178 130.441,165.403 130.383 C 165.627 130.324,165.443 130.276,164.994 130.276 C 164.545 130.276,164.361 130.324,164.586 130.383 M178.821 130.393 C 179.431 130.441,180.429 130.441,181.039 130.393 C 181.648 130.345,181.149 130.306,179.930 130.306 C 178.711 130.306,178.212 130.345,178.821 130.393 M194.457 130.383 C 194.682 130.441,195.050 130.441,195.274 130.383 C 195.499 130.324,195.315 130.276,194.866 130.276 C 194.417 130.276,194.233 130.324,194.457 130.383 M202.159 130.383 C 202.383 130.441,202.751 130.441,202.975 130.383 C 203.200 130.324,203.016 130.276,202.567 130.276 C 202.118 130.276,201.934 130.324,202.159 130.383 M224.796 130.383 C 225.020 130.441,225.388 130.441,225.613 130.383 C 225.837 130.324,225.653 130.276,225.204 130.276 C 224.755 130.276,224.571 130.324,224.796 130.383 M235.298 130.383 C 235.522 130.441,235.890 130.441,236.114 130.383 C 236.339 130.324,236.155 130.276,235.706 130.276 C 235.257 130.276,235.073 130.324,235.298 130.383 M242.999 130.383 C 243.223 130.441,243.591 130.441,243.816 130.383 C 244.040 130.324,243.856 130.276,243.407 130.276 C 242.958 130.276,242.774 130.324,242.999 130.383 M253.267 130.383 C 253.492 130.441,253.859 130.441,254.084 130.383 C 254.309 130.324,254.125 130.276,253.676 130.276 C 253.226 130.276,253.043 130.324,253.267 130.383 M266.339 130.389 C 266.694 130.443,267.219 130.441,267.506 130.386 C 267.793 130.331,267.503 130.287,266.861 130.288 C 266.219 130.290,265.985 130.336,266.339 130.389 M298.775 130.383 C 298.999 130.441,299.367 130.441,299.592 130.383 C 299.816 130.324,299.632 130.276,299.183 130.276 C 298.734 130.276,298.550 130.324,298.775 130.383 " stroke="none" fill="#a6a3a1" fill-rule="evenodd"></path><path id="path3" d="M108.113 103.785 C 108.468 103.838,108.993 103.837,109.280 103.782 C 109.567 103.726,109.277 103.682,108.635 103.684 C 107.993 103.686,107.758 103.731,108.113 103.785 M232.905 103.779 C 233.226 103.844,233.576 104.018,233.682 104.166 C 233.811 104.345,233.843 104.318,233.780 104.084 C 233.727 103.887,233.389 103.718,233.004 103.697 C 232.417 103.665,232.403 103.676,232.905 103.779 M257.876 103.854 C 257.630 104.015,257.768 104.039,258.343 103.933 C 259.350 103.749,259.539 103.616,258.790 103.621 C 258.480 103.623,258.069 103.728,257.876 103.854 M286.348 103.708 C 286.348 103.759,286.708 103.842,287.148 103.893 C 287.588 103.944,287.897 103.903,287.835 103.802 C 287.722 103.619,286.348 103.533,286.348 103.708 M152.913 106.418 C 152.913 106.867,152.961 107.051,153.020 106.826 C 153.078 106.602,153.078 106.234,153.020 106.009 C 152.961 105.785,152.913 105.968,152.913 106.418 M147.732 107.289 C 147.728 107.448,148.013 107.873,148.366 108.234 C 148.719 108.595,148.839 108.676,148.632 108.413 C 148.425 108.150,148.139 107.725,147.997 107.468 C 147.855 107.211,147.736 107.131,147.732 107.289 M125.146 109.146 C 125.370 109.204,125.738 109.204,125.963 109.146 C 126.187 109.087,126.004 109.039,125.554 109.039 C 125.105 109.039,124.921 109.087,125.146 109.146 M149.883 109.146 C 150.108 109.204,150.475 109.204,150.700 109.146 C 150.925 109.087,150.741 109.039,150.292 109.039 C 149.842 109.039,149.659 109.087,149.883 109.146 M258.401 109.146 C 258.626 109.204,258.994 109.204,259.218 109.146 C 259.443 109.087,259.259 109.039,258.810 109.039 C 258.361 109.039,258.177 109.087,258.401 109.146 M303.909 109.146 C 304.134 109.204,304.501 109.204,304.726 109.146 C 304.950 109.087,304.767 109.039,304.317 109.039 C 303.868 109.039,303.684 109.087,303.909 109.146 M111.385 110.268 C 111.387 110.910,111.432 111.145,111.486 110.790 C 111.540 110.436,111.538 109.910,111.483 109.623 C 111.427 109.336,111.384 109.627,111.385 110.268 M141.162 113.003 C 141.270 113.651,141.303 113.684,141.376 113.217 C 141.424 112.913,141.367 112.569,141.249 112.451 C 141.120 112.322,141.086 112.539,141.162 113.003 M135.648 113.346 C 135.872 113.405,136.240 113.405,136.464 113.346 C 136.689 113.288,136.505 113.240,136.056 113.240 C 135.607 113.240,135.423 113.288,135.648 113.346 M143.994 113.711 C 143.992 113.985,144.163 114.113,144.516 114.101 C 144.867 114.088,144.925 114.038,144.691 113.949 C 144.498 113.876,144.264 113.700,144.169 113.559 C 144.064 113.401,143.996 113.459,143.994 113.711 M252.512 113.711 C 252.510 113.985,252.681 114.113,253.034 114.101 C 253.385 114.088,253.443 114.038,253.209 113.949 C 253.016 113.876,252.782 113.700,252.687 113.559 C 252.582 113.401,252.515 113.459,252.512 113.711 M137.690 113.725 C 137.690 113.765,138.031 114.107,138.448 114.484 L 139.207 115.169 138.521 114.411 C 137.882 113.704,137.690 113.545,137.690 113.725 M180.280 113.886 C 179.986 114.012,179.943 114.086,180.163 114.086 C 180.356 114.086,180.723 113.996,180.980 113.886 C 181.274 113.759,181.317 113.685,181.097 113.685 C 180.904 113.685,180.537 113.775,180.280 113.886 M191.766 114.858 C 191.907 116.568,192.026 116.800,192.043 115.403 C 192.052 114.761,191.969 114.096,191.861 113.924 C 191.745 113.742,191.706 114.129,191.766 114.858 M287.620 114.644 L 286.698 115.636 287.690 114.713 C 288.235 114.206,288.681 113.760,288.681 113.722 C 288.681 113.545,288.478 113.722,287.620 114.644 M154.904 114.051 C 155.194 114.107,155.614 114.104,155.837 114.046 C 156.060 113.988,155.823 113.942,155.309 113.945 C 154.796 113.947,154.613 113.995,154.904 114.051 M219.005 114.877 L 218.320 115.636 219.078 114.951 C 219.495 114.574,219.837 114.232,219.837 114.192 C 219.837 114.012,219.644 114.170,219.005 114.877 M294.103 115.053 C 294.103 115.502,294.151 115.686,294.210 115.461 C 294.269 115.236,294.269 114.869,294.210 114.644 C 294.151 114.419,294.103 114.603,294.103 115.053 M179.813 114.755 C 180.591 114.946,180.862 115.303,180.901 116.190 L 180.938 117.036 181.034 116.256 C 181.146 115.342,180.584 114.571,179.835 114.613 C 179.365 114.639,179.364 114.644,179.813 114.755 M265.217 115.811 L 264.294 116.803 265.286 115.880 C 265.831 115.373,266.278 114.927,266.278 114.888 C 266.278 114.712,266.074 114.889,265.217 115.811 M243.938 116.219 C 243.938 116.797,243.983 117.033,244.039 116.744 C 244.094 116.456,244.094 115.983,244.039 115.694 C 243.983 115.405,243.938 115.642,243.938 116.219 M130.047 117.036 C 130.050 117.550,130.098 117.732,130.153 117.442 C 130.209 117.152,130.207 116.731,130.149 116.508 C 130.090 116.285,130.045 116.523,130.047 117.036 M169.137 116.384 C 169.425 116.440,169.898 116.440,170.187 116.384 C 170.475 116.328,170.239 116.283,169.662 116.283 C 169.084 116.283,168.848 116.328,169.137 116.384 M283.387 119.662 C 283.402 119.950,283.471 120.187,283.541 120.187 C 283.611 120.187,283.816 119.950,283.995 119.662 C 284.288 119.191,284.284 119.168,283.958 119.438 C 283.659 119.684,283.572 119.684,283.477 119.438 C 283.413 119.272,283.373 119.373,283.387 119.662 M183.897 121.562 C 183.897 121.719,183.803 121.790,183.688 121.719 C 183.376 121.525,183.206 122.164,183.470 122.542 C 183.663 122.818,183.684 122.814,183.603 122.520 C 183.550 122.328,183.673 122.048,183.876 121.898 C 184.080 121.748,184.168 121.546,184.072 121.450 C 183.976 121.354,183.897 121.404,183.897 121.562 M133.022 122.593 C 133.022 122.634,133.363 122.975,133.781 123.352 L 134.539 124.037 133.854 123.279 C 133.215 122.572,133.022 122.413,133.022 122.593 M98.083 124.037 C 98.085 124.679,98.130 124.914,98.184 124.559 C 98.237 124.204,98.236 123.679,98.181 123.392 C 98.125 123.105,98.081 123.396,98.083 124.037 M218.935 124.549 C 218.917 125.343,218.982 126.042,219.078 126.102 C 219.174 126.161,219.223 125.721,219.185 125.124 C 219.069 123.272,218.968 123.040,218.935 124.549 M139.390 124.504 C 139.392 125.146,139.437 125.381,139.491 125.026 C 139.544 124.671,139.543 124.146,139.487 123.859 C 139.432 123.572,139.388 123.862,139.390 124.504 M196.302 124.635 C 196.278 125.511,196.385 126.079,196.633 126.385 C 196.835 126.634,196.915 126.680,196.809 126.488 C 196.704 126.295,196.555 125.508,196.478 124.737 L 196.337 123.337 196.302 124.635 M191.673 125.554 C 191.673 126.389,191.716 126.730,191.767 126.313 C 191.819 125.896,191.819 125.213,191.767 124.796 C 191.716 124.379,191.673 124.720,191.673 125.554 M214.312 125.671 C 214.313 126.569,214.356 126.908,214.406 126.424 C 214.457 125.940,214.456 125.205,214.404 124.791 C 214.353 124.376,214.311 124.772,214.312 125.671 M223.428 125.108 C 223.411 125.582,223.469 125.721,223.600 125.515 C 223.845 125.128,223.864 124.387,223.629 124.388 C 223.533 124.388,223.442 124.712,223.428 125.108 M221.572 125.846 L 220.887 126.604 221.645 125.919 C 222.062 125.542,222.404 125.201,222.404 125.161 C 222.404 124.980,222.211 125.139,221.572 125.846 M169.554 125.539 C 169.464 125.685,169.548 125.727,169.766 125.643 C 170.192 125.480,170.218 125.633,169.882 126.328 C 169.643 126.823,169.646 126.825,170.002 126.380 C 170.203 126.129,170.334 125.820,170.292 125.695 C 170.179 125.356,169.726 125.261,169.554 125.539 M274.097 125.552 C 274.016 125.684,274.109 125.723,274.317 125.643 C 274.792 125.461,274.777 125.749,274.279 126.353 C 273.904 126.808,273.913 126.807,274.424 126.336 C 274.724 126.060,274.898 125.719,274.810 125.578 C 274.613 125.259,274.286 125.247,274.097 125.552 M110.720 126.313 L 110.035 127.071 110.793 126.386 C 111.500 125.747,111.659 125.554,111.479 125.554 C 111.439 125.554,111.097 125.896,110.720 126.313 M286.402 127.655 C 286.402 128.104,286.450 128.288,286.509 128.063 C 286.567 127.838,286.567 127.471,286.509 127.246 C 286.450 127.022,286.402 127.205,286.402 127.655 M296.675 127.771 C 296.678 128.285,296.725 128.467,296.781 128.177 C 296.837 127.887,296.835 127.467,296.776 127.243 C 296.718 127.020,296.672 127.258,296.675 127.771 M94.866 128.121 C 95.367 128.635,95.830 129.055,95.894 129.055 C 95.958 129.055,95.601 128.635,95.099 128.121 C 94.598 127.608,94.135 127.188,94.071 127.188 C 94.007 127.188,94.364 127.608,94.866 128.121 M156.351 128.530 L 155.076 129.872 156.418 128.596 C 157.664 127.411,157.867 127.188,157.693 127.188 C 157.657 127.188,157.053 127.792,156.351 128.530 M124.026 128.413 L 123.104 129.405 124.096 128.482 C 125.018 127.624,125.195 127.421,125.018 127.421 C 124.980 127.421,124.534 127.868,124.026 128.413 M148.764 128.413 L 147.841 129.405 148.833 128.482 C 149.756 127.624,149.932 127.421,149.756 127.421 C 149.718 127.421,149.271 127.868,148.764 128.413 M257.164 128.530 L 256.359 129.405 257.235 128.601 C 258.049 127.852,258.217 127.655,258.039 127.655 C 258.000 127.655,257.606 128.048,257.164 128.530 M228.573 128.646 L 227.888 129.405 228.646 128.719 C 229.064 128.342,229.405 128.001,229.405 127.961 C 229.405 127.781,229.212 127.939,228.573 128.646 M302.552 128.646 L 301.867 129.405 302.625 128.719 C 303.332 128.081,303.491 127.888,303.311 127.888 C 303.271 127.888,302.929 128.229,302.552 128.646 M192.299 128.742 C 192.299 128.869,192.588 129.228,192.940 129.539 L 193.582 130.105 192.999 129.405 C 192.678 129.020,192.389 128.661,192.357 128.608 C 192.325 128.554,192.299 128.615,192.299 128.742 M133.081 129.449 C 133.305 129.508,133.673 129.508,133.897 129.449 C 134.122 129.390,133.938 129.342,133.489 129.342 C 133.040 129.342,132.856 129.390,133.081 129.449 M276.232 129.580 C 276.292 129.676,277.273 129.755,278.413 129.755 C 279.553 129.755,280.535 129.676,280.594 129.580 C 280.654 129.484,279.672 129.405,278.413 129.405 C 277.154 129.405,276.173 129.484,276.232 129.580 M100.412 130.389 C 100.766 130.443,101.291 130.441,101.578 130.386 C 101.866 130.331,101.575 130.287,100.933 130.288 C 100.292 130.290,100.057 130.336,100.412 130.389 " stroke="none" fill="#8c8484" fill-rule="evenodd"></path><path id="path4" d="" stroke="none" fill="#8c8c88" fill-rule="evenodd"></path><path id="path5" d="M139.611 124.621 C 139.611 125.070,139.659 125.254,139.717 125.029 C 139.776 124.805,139.776 124.437,139.717 124.212 C 139.659 123.988,139.611 124.172,139.611 124.621 " stroke="none" fill="#bfbcbc" fill-rule="evenodd"></path><path id="path6" d="M246.733 112.646 C 246.957 112.705,247.325 112.705,247.550 112.646 C 247.774 112.588,247.590 112.540,247.141 112.540 C 246.692 112.540,246.508 112.588,246.733 112.646 M286.916 117.211 L 286.231 117.970 286.989 117.284 C 287.696 116.645,287.855 116.453,287.675 116.453 C 287.635 116.453,287.293 116.794,286.916 117.211 M277.545 129.927 C 278.159 129.975,279.104 129.974,279.645 129.925 C 280.187 129.877,279.685 129.837,278.530 129.838 C 277.375 129.839,276.931 129.879,277.545 129.927 " stroke="none" fill="#d0cdcc" fill-rule="evenodd"></path><path id="path7" d="" stroke="none" fill="#c4c4c2" fill-rule="evenodd"></path><path id="path8" d="M204.343 112.677 C 204.279 112.782,204.535 112.822,204.913 112.767 C 205.291 112.711,205.601 112.625,205.601 112.576 C 205.601 112.398,204.459 112.489,204.343 112.677 M237.208 114.644 L 236.523 115.403 237.281 114.717 C 237.698 114.340,238.040 113.999,238.040 113.959 C 238.040 113.778,237.847 113.937,237.208 114.644 M269.532 114.994 L 268.728 115.869 269.603 115.065 C 270.085 114.623,270.478 114.229,270.478 114.190 C 270.478 114.012,270.281 114.180,269.532 114.994 M222.925 125.787 C 222.772 126.032,222.738 126.289,222.849 126.358 C 222.960 126.426,223.111 126.252,223.185 125.970 C 223.360 125.300,223.269 125.236,222.925 125.787 M152.684 125.949 C 152.908 126.007,153.276 126.007,153.501 125.949 C 153.725 125.890,153.541 125.842,153.092 125.842 C 152.643 125.842,152.459 125.890,152.684 125.949 M105.120 127.013 L 104.434 127.771 105.193 127.086 C 105.900 126.447,106.058 126.254,105.878 126.254 C 105.838 126.254,105.496 126.596,105.120 127.013 M286.178 127.655 C 286.178 128.232,286.223 128.468,286.279 128.180 C 286.335 127.891,286.335 127.418,286.279 127.130 C 286.223 126.841,286.178 127.077,286.178 127.655 M220.639 128.880 L 219.953 129.638 220.712 128.953 C 221.129 128.576,221.470 128.235,221.470 128.194 C 221.470 128.014,221.278 128.173,220.639 128.880 " stroke="none" fill="#dfdcdc" fill-rule="evenodd"></path></g></svg>