<svg width="90" height="73" viewBox="0 0 90 73" fill="none" xmlns="http://www.w3.org/2000/svg">
<path d="M36.5003 8.99999H44.5003C45.2367 8.99999 45.8337 8.40303 45.8337 7.66665C45.8337 6.93027 45.2367 6.33332 44.5003 6.33332H36.5003C35.7639 6.33332 35.167 6.93027 35.167 7.66665C35.167 8.40303 35.7639 8.99999 36.5003 8.99999Z" fill="#5C5C5C"/>
<path d="M59.1663 8.99999H73.833C74.5694 8.99999 75.1663 8.40303 75.1663 7.66665C75.1663 6.93027 74.5694 6.33332 73.833 6.33332H59.1663C58.43 6.33332 57.833 6.93027 57.833 7.66665C57.833 8.40303 58.43 8.99999 59.1663 8.99999Z" fill="#5C5C5C"/>
<path d="M73.8333 1H7.16667C3.4866 1.00441 0.504408 3.9866 0.5 7.66667V58.3333C0.504408 62.0134 3.4866 64.9956 7.16667 65H73.8333C77.5134 64.9956 80.4956 62.0134 80.5 58.3333V7.66667C80.4956 3.9866 77.5134 1.00441 73.8333 1ZM7.16667 3.66667H73.8333C76.0425 3.66667 77.8333 5.45753 77.8333 7.66667V11.6667H3.16667V7.66667C3.16667 5.45753 4.95753 3.66667 7.16667 3.66667ZM73.8333 62.3333H7.16667C4.95753 62.3333 3.16667 60.5425 3.16667 58.3333V14.3333H77.8333V58.3333C77.8333 60.5425 76.0425 62.3333 73.8333 62.3333Z" fill="#5C5C5C"/>
<path d="M7.16634 8.99999C7.90272 8.99999 8.49967 8.40303 8.49967 7.66665C8.49967 6.93027 7.90272 6.33332 7.16634 6.33332C6.42996 6.33332 5.83301 6.93027 5.83301 7.66665C5.83301 8.40303 6.42996 8.99999 7.16634 8.99999Z" fill="#5C5C5C"/>
<path d="M12.5003 8.99999C13.2367 8.99999 13.8337 8.40303 13.8337 7.66665C13.8337 6.93027 13.2367 6.33332 12.5003 6.33332C11.7639 6.33332 11.167 6.93027 11.167 7.66665C11.167 8.40303 11.7639 8.99999 12.5003 8.99999Z" fill="#5C5C5C"/>
<path d="M17.8333 8.99999C18.5697 8.99999 19.1667 8.40303 19.1667 7.66665C19.1667 6.93027 18.5697 6.33332 17.8333 6.33332C17.097 6.33332 16.5 6.93027 16.5 7.66665C16.5 8.40303 17.097 8.99999 17.8333 8.99999Z" fill="#5C5C5C"/>
<path d="M40.5003 26.3333C39.7639 26.3333 39.167 26.9303 39.167 27.6667V30.3333C39.167 31.0697 39.7639 31.6667 40.5003 31.6667C41.2367 31.6667 41.8337 31.0697 41.8337 30.3333V27.6667C41.8337 26.9303 41.2367 26.3333 40.5003 26.3333Z" fill="#5C5C5C"/>
<path d="M40.5003 42.3333C39.7639 42.3333 39.167 42.9303 39.167 43.6667V46.3333C39.167 47.0697 39.7639 47.6667 40.5003 47.6667C41.2367 47.6667 41.8337 47.0697 41.8337 46.3333V43.6667C41.8337 42.9303 41.2367 42.3333 40.5003 42.3333Z" fill="#5C5C5C"/>
<path d="M34.8427 29.4573C34.3217 28.9367 33.4773 28.937 32.9567 29.458C32.4361 29.979 32.4364 30.8234 32.9573 31.344L34.844 33.2293C35.365 33.7499 36.2094 33.7496 36.73 33.2286C37.2506 32.7077 37.2503 31.8633 36.7293 31.3427L34.8427 29.4573Z" fill="#5C5C5C"/>
<path d="M46.1562 40.7707C45.6352 40.25 44.7908 40.2503 44.2702 40.7713C43.7495 41.2923 43.7498 42.1367 44.2708 42.6573L46.1575 44.5427C46.4945 44.8794 46.9856 45.0108 47.4458 44.8874C47.9059 44.7639 48.2653 44.4043 48.3884 43.944C48.5116 43.4838 48.3798 42.9928 48.0428 42.656L46.1562 40.7707Z" fill="#5C5C5C"/>
<path d="M35.1663 37C35.1663 36.2636 34.5694 35.6667 33.833 35.6667H31.1663C30.43 35.6667 29.833 36.2636 29.833 37C29.833 37.7364 30.43 38.3333 31.1663 38.3333H33.833C34.5694 38.3333 35.1663 37.7364 35.1663 37Z" fill="#5C5C5C"/>
<path d="M49.833 35.6667H47.1663C46.43 35.6667 45.833 36.2636 45.833 37C45.833 37.7364 46.43 38.3333 47.1663 38.3333H49.833C50.5694 38.3333 51.1663 37.7364 51.1663 37C51.1663 36.2636 50.5694 35.6667 49.833 35.6667Z" fill="#5C5C5C"/>
<path d="M34.844 40.7707L32.9574 42.656C32.6204 42.9928 32.4886 43.4838 32.6118 43.944C32.7349 44.4043 33.0942 44.7639 33.5544 44.8874C34.0146 45.0108 34.5057 44.8794 34.8427 44.5427L36.7294 42.6573C37.2504 42.1367 37.2507 41.2923 36.73 40.7713C36.2094 40.2503 35.365 40.25 34.844 40.7707Z" fill="#5C5C5C"/>
<path d="M45.213 33.6187C45.5664 33.6189 45.9054 33.4789 46.1556 33.2293L48.0423 31.344C48.3793 31.0072 48.5111 30.5162 48.3879 30.056C48.2648 29.5957 47.9054 29.2361 47.4453 29.1126C46.9851 28.9891 46.494 29.1205 46.157 29.4573L44.2703 31.3427C43.8891 31.724 43.7751 32.2974 43.9814 32.7955C44.1877 33.2937 44.6738 33.6186 45.213 33.6187Z" fill="#5C5C5C"/>
<g clip-path="url(#clip0_13015_29929)">
<path d="M87.2051 56.7133C85.4771 59.3533 82.2771 64.3186 80.3998 67.7C77.9571 72.1 72.9331 71.9666 72.9331 71.9666H70.2665C68.2862 71.9666 66.387 71.18 64.9867 69.7797C63.5865 68.3794 62.7998 66.4803 62.7998 64.5V48.5C62.7998 47.9342 63.0246 47.3916 63.4246 46.9915C63.8247 46.5914 64.3673 46.3666 64.9331 46.3666C65.4989 46.3666 66.0416 46.5914 66.4416 46.9915C66.8417 47.3916 67.0665 47.9342 67.0665 48.5V44.7666C67.0665 44.2008 67.2912 43.6582 67.6913 43.2581C68.0914 42.8581 68.634 42.6333 69.1998 42.6333C69.7656 42.6333 70.3082 42.8581 70.7083 43.2581C71.1084 43.6582 71.3331 44.2008 71.3331 44.7666V43.1666C71.3331 42.6008 71.5579 42.0582 71.958 41.6581C72.3581 41.2581 72.9007 41.0333 73.4665 41.0333C74.0323 41.0333 74.5749 41.2581 74.975 41.6581C75.375 42.0582 75.5998 42.6008 75.5998 43.1666V46.3666C75.5998 45.8008 75.8246 45.2582 76.2246 44.8581C76.6247 44.4581 77.1673 44.2333 77.7331 44.2333C78.2989 44.2333 78.8416 44.4581 79.2416 44.8581C79.6417 45.2582 79.8665 45.8008 79.8665 46.3666V58.628L83.4611 55.0386C83.8261 54.6733 84.2822 54.4124 84.7821 54.283C85.282 54.1536 85.8074 54.1603 86.3038 54.3026C86.5449 54.3709 86.7665 54.4949 86.9508 54.6647C87.1351 54.8344 87.2768 55.0452 87.3646 55.2799C87.4523 55.5145 87.4836 55.7666 87.4559 56.0156C87.4282 56.2646 87.3423 56.5036 87.2051 56.7133Z" fill="#E09400"/>
<path d="M77.6429 44.8573C78.0417 45.2586 78.2659 45.801 78.2669 46.3667V58.628L79.8669 57.028V46.3667C79.8673 46.0173 79.7816 45.6733 79.6176 45.3648C79.4535 45.0564 79.2161 44.7931 78.9263 44.5981C78.6364 44.4031 78.303 44.2824 77.9555 44.2467C77.608 44.211 77.257 44.2614 76.9336 44.3933C77.1982 44.5 77.4392 44.6577 77.6429 44.8573Z" fill="#E09400"/>
<path d="M86.3039 54.3027C85.7885 54.1502 85.2395 54.1533 84.7258 54.3117C84.9636 54.3828 85.1815 54.5083 85.3623 54.6783C85.543 54.8484 85.6816 55.0583 85.767 55.2913C85.8524 55.5243 85.8822 55.7741 85.8542 56.0206C85.8261 56.2672 85.7409 56.5039 85.6053 56.7117C83.8773 59.3533 80.6773 64.3187 78.7999 67.7C76.5295 71.7896 72.0351 71.9624 71.4111 71.9667H72.9333C72.9333 71.9667 77.9573 72.1 80.3999 67.7C82.2773 64.3187 85.4773 59.3533 87.2053 56.7133C87.3424 56.5036 87.4284 56.2646 87.4561 56.0156C87.4838 55.7666 87.4525 55.5146 87.3647 55.2799C87.277 55.0452 87.1352 54.8344 86.9509 54.6647C86.7667 54.4949 86.545 54.3709 86.3039 54.3027Z" fill="#E09400"/>
<path d="M64.3998 64.5V48.5C64.3993 48.0755 64.5261 47.6605 64.7637 47.3088C65.0014 46.957 65.3391 46.6846 65.7331 46.5266C65.4096 46.3958 65.059 46.3463 64.7119 46.3825C64.3648 46.4187 64.0319 46.5394 63.7424 46.7342C63.4528 46.929 63.2155 47.1918 63.0511 47.4997C62.8868 47.8076 62.8005 48.151 62.7998 48.5V64.5C62.7998 65.4805 62.9929 66.4515 63.3682 67.3573C63.7434 68.2632 64.2934 69.0864 64.9867 69.7797C66.387 71.18 68.2862 71.9666 70.2665 71.9666H71.8665C70.8859 71.9666 69.915 71.7735 69.0091 71.3983C68.1032 71.023 67.2801 70.4731 66.5867 69.7797C65.8934 69.0864 65.3434 68.2632 64.9682 67.3573C64.5929 66.4515 64.3998 65.4805 64.3998 64.5Z" fill="#E09400"/>
<path d="M62.2666 60.2328H63.3333V64.4994H62.2666V60.2328Z" fill="#E09400"/>
<path d="M62.7999 62.8994C63.0945 62.8994 63.3333 62.6607 63.3333 62.3661C63.3333 62.0716 63.0945 61.8328 62.7999 61.8328C62.5054 61.8328 62.2666 62.0716 62.2666 62.3661C62.2666 62.6607 62.5054 62.8994 62.7999 62.8994Z" fill="#5C3111"/>
<path d="M86.4506 53.788C85.8628 53.6204 85.241 53.6128 84.6493 53.7661C84.0576 53.9194 83.5177 54.228 83.0853 54.66L80.3999 57.3453V46.3667C80.4003 46.0164 80.3316 45.6695 80.1977 45.3458C80.0638 45.0221 79.8674 44.728 79.6197 44.4803C79.372 44.2326 79.0779 44.0362 78.7542 43.9023C78.4305 43.7684 78.0836 43.6996 77.7333 43.7C77.1544 43.702 76.5921 43.8942 76.1333 44.2472V43.1667C76.1338 42.5015 75.8855 41.8601 75.4371 41.3688C74.9887 40.8774 74.3727 40.5716 73.7102 40.5114C73.0478 40.4512 72.3868 40.6411 71.8572 41.0436C71.3276 41.4462 70.9678 42.0323 70.8485 42.6867C70.3817 42.3093 69.8002 42.1023 69.1999 42.1C68.8496 42.0996 68.5027 42.1684 68.179 42.3023C67.8553 42.4362 67.5612 42.6326 67.3135 42.8803C67.0658 43.128 66.8694 43.4221 66.7355 43.7458C66.6017 44.0695 66.5329 44.4164 66.5333 44.7667V46.3805C66.0744 46.0276 65.5122 45.8353 64.9333 45.8333C64.583 45.833 64.2361 45.9017 63.9124 46.0356C63.5887 46.1695 63.2946 46.3659 63.0469 46.6136C62.7992 46.8613 62.6028 47.1554 62.4689 47.4791C62.335 47.8028 62.2663 48.1497 62.2666 48.5V60.2333C62.2666 60.3748 62.3228 60.5104 62.4228 60.6105C62.5228 60.7105 62.6585 60.7667 62.7999 60.7667C62.9414 60.7667 63.077 60.7105 63.1771 60.6105C63.2771 60.5104 63.3333 60.3748 63.3333 60.2333V48.5C63.3333 48.0757 63.5018 47.6687 63.8019 47.3686C64.102 47.0686 64.5089 46.9 64.9333 46.9C65.3576 46.9 65.7646 47.0686 66.0646 47.3686C66.3647 47.6687 66.5333 48.0757 66.5333 48.5V57.0333C66.5333 57.1748 66.5895 57.3104 66.6895 57.4105C66.7895 57.5105 66.9252 57.5667 67.0666 57.5667C67.2081 57.5667 67.3437 57.5105 67.4437 57.4105C67.5437 57.3104 67.5999 57.1748 67.5999 57.0333V44.7667C67.5999 44.3423 67.7685 43.9354 68.0686 43.6353C68.3686 43.3352 68.7756 43.1667 69.1999 43.1667C69.6243 43.1667 70.0312 43.3352 70.3313 43.6353C70.6314 43.9354 70.7999 44.3423 70.7999 44.7667V57.0333C70.7999 57.1748 70.8561 57.3104 70.9561 57.4105C71.0562 57.5105 71.1918 57.5667 71.3333 57.5667C71.4747 57.5667 71.6104 57.5105 71.7104 57.4105C71.8104 57.3104 71.8666 57.1748 71.8666 57.0333V43.1667C71.8666 42.7423 72.0352 42.3354 72.3352 42.0353C72.6353 41.7352 73.0423 41.5667 73.4666 41.5667C73.8909 41.5667 74.2979 41.7352 74.598 42.0353C74.898 42.3354 75.0666 42.7423 75.0666 43.1667V57.0333C75.0666 57.1748 75.1228 57.3104 75.2228 57.4105C75.3228 57.5105 75.4585 57.5667 75.5999 57.5667C75.7414 57.5667 75.877 57.5105 75.9771 57.4105C76.0771 57.3104 76.1333 57.1748 76.1333 57.0333V46.3667C76.1333 45.9423 76.3018 45.5354 76.6019 45.2353C76.902 44.9352 77.3089 44.7667 77.7333 44.7667C78.1576 44.7667 78.5646 44.9352 78.8646 45.2353C79.1647 45.5354 79.3333 45.9423 79.3333 46.3667V58.412L78.3455 59.4003C78.2484 59.5009 78.1946 59.6356 78.1958 59.7754C78.1971 59.9152 78.2531 60.049 78.352 60.1479C78.4509 60.2468 78.5847 60.3029 78.7245 60.3041C78.8644 60.3053 78.9991 60.2515 79.0997 60.1544L80.2426 59.0109L83.8378 55.4157C84.136 55.1174 84.5085 54.9042 84.9168 54.7984C85.3252 54.6925 85.7543 54.6977 86.1599 54.8136C86.3207 54.8589 86.4686 54.9414 86.5916 55.0544C86.7146 55.1675 86.8092 55.3079 86.8678 55.4643C86.9264 55.6207 86.9474 55.7887 86.9291 55.9548C86.9107 56.1208 86.8535 56.2802 86.7621 56.42C85.0207 59.0819 81.8181 64.0531 79.9354 67.4408C77.6799 71.4941 73.1402 71.4408 72.9333 71.4333H70.2666C68.4284 71.4312 66.6661 70.7001 65.3663 69.4003C64.0665 68.1005 63.3354 66.3382 63.3333 64.5C63.3333 64.3585 63.2771 64.2229 63.1771 64.1229C63.077 64.0229 62.9414 63.9667 62.7999 63.9667C62.6585 63.9667 62.5228 64.0229 62.4228 64.1229C62.3228 64.2229 62.2666 64.3585 62.2666 64.5C62.269 66.621 63.1126 68.6544 64.6124 70.1542C66.1122 71.654 68.1456 72.4976 70.2666 72.5H72.9194H72.9967C73.6901 72.5 78.4335 72.3363 80.8661 67.9581C82.7327 64.5981 85.9183 59.6531 87.6522 57.0029C87.835 56.7233 87.9495 56.4045 87.9864 56.0725C88.0233 55.7404 87.9816 55.4043 87.8646 55.0913C87.7477 54.7783 87.5587 54.4972 87.3131 54.2708C87.0675 54.0443 86.772 53.8787 86.4506 53.7875V53.788Z" fill="#5C3111"/>
</g>
<defs>
<clipPath id="clip0_13015_29929">
<rect width="32" height="32" fill="white" transform="translate(58 40.5)"/>
</clipPath>
</defs>
</svg>
