<svg xmlns="http://www.w3.org/2000/svg" width="64" height="64" viewBox="0 0 64 64" fill="none">
  <ellipse opacity="0.2" cx="32" cy="62.0799" rx="32" ry="1.92" fill="#5C5C5C"/>
  <path d="M41.2431 51.7849C41.2431 50.4387 40.1518 49.3474 38.8056 49.3474H35.7994C35.3507 49.3474 34.9869 48.9836 34.9869 48.5349C34.9869 48.0861 35.3506 47.7224 35.7994 47.7224H35.9619V44.8786H30.2744V47.7224H32.5494C32.9981 47.7224 33.3619 48.0861 33.3619 48.5349C33.3618 48.9836 32.9981 49.3474 32.5494 49.3474H27.4306C26.0845 49.3474 24.9931 50.4387 24.9931 51.7849H41.2431ZM13.9677 41.1411C14.1268 42.3334 15.1449 43.2536 16.3806 43.2536H27.7285C27.7251 43.2514 27.7218 43.2491 27.7184 43.2468C27.6904 43.2282 27.6623 43.2099 27.6346 43.191C27.524 43.1156 27.4152 43.0379 27.3079 42.9582C27.2909 42.9456 27.274 42.9329 27.2571 42.9202C27.1449 42.8356 27.0346 42.7487 26.9262 42.6595C26.8108 42.5645 26.6977 42.4667 26.5868 42.3666C26.5709 42.3523 26.5552 42.3379 26.5394 42.3235C26.4409 42.2333 26.3439 42.1416 26.2491 42.0476C26.2286 42.0272 26.2085 42.0063 26.1882 41.9858C25.9882 41.7837 25.797 41.5732 25.6152 41.3544C25.6021 41.3387 25.5892 41.3228 25.5763 41.307C25.5313 41.2522 25.4871 41.1969 25.4434 41.1411H13.9677ZM40.7929 41.1411C40.7491 41.1969 40.7049 41.2522 40.66 41.307C40.6469 41.3229 40.6334 41.3385 40.6202 41.3544C40.4384 41.5732 40.2472 41.7837 40.0472 41.9858C40.0269 42.0063 40.0068 42.0272 39.9863 42.0476C39.8915 42.1416 39.7945 42.2333 39.696 42.3235C39.6804 42.3378 39.6651 42.3525 39.6494 42.3666C39.5384 42.4669 39.4248 42.5643 39.3092 42.6595C39.2008 42.7487 39.0905 42.8356 38.9783 42.9202C38.9614 42.9329 38.9445 42.9456 38.9275 42.9582C38.8202 43.0379 38.7114 43.1156 38.6008 43.191C38.5733 43.2098 38.5456 43.2284 38.5179 43.2468C38.5145 43.2491 38.5111 43.2514 38.5077 43.2536H49.8556C51.0913 43.2536 52.1095 42.3334 52.2686 41.1411H40.7929ZM32.3056 30.2536C32.3056 29.8049 32.6694 29.4411 33.1181 29.4411C33.5668 29.4411 33.9306 29.8049 33.9306 30.2536V38.0418L34.8413 37.1311C35.1586 36.8138 35.6733 36.8138 35.9906 37.1311C36.3079 37.4483 36.3078 37.9623 35.9906 38.2796L33.6928 40.5783C33.3755 40.8956 32.8607 40.8955 32.5434 40.5783L30.2456 38.2796C29.9285 37.9623 29.9284 37.4483 30.2456 37.1311C30.5629 36.8138 31.0776 36.8138 31.3949 37.1311L32.3056 38.0418V30.2536ZM31.5464 15.6235C31.5464 14.7262 32.2741 13.9987 33.1714 13.9985C34.0689 13.9985 34.7964 14.7261 34.7964 15.6235C34.7964 16.521 34.0689 17.2485 33.1714 17.2485C32.2741 17.2483 31.5464 16.5209 31.5464 15.6235ZM41.2431 35.1286C41.2431 30.6413 37.6054 27.0036 33.1181 27.0036C28.6308 27.0036 24.9931 30.6413 24.9931 35.1286C24.9931 36.9578 25.598 38.6456 26.6181 40.0036C26.6871 40.0954 26.7579 40.1857 26.8305 40.2744C27.0049 40.4872 27.1902 40.6907 27.3849 40.8847C27.4621 40.9616 27.5408 41.0369 27.621 41.1106C28.1151 41.5649 28.6653 41.9586 29.2604 42.2803C29.3667 42.3378 29.4746 42.3925 29.5837 42.4453C29.5973 42.4519 29.6108 42.4583 29.6244 42.4648C29.7274 42.5139 29.8313 42.5613 29.9367 42.6062C30.0646 42.6606 30.194 42.7122 30.3251 42.7602C30.4452 42.8041 30.5665 42.8454 30.6891 42.8838C30.702 42.8878 30.715 42.8916 30.728 42.8956C30.8337 42.9281 30.9404 42.9579 31.0479 42.9862C31.0686 42.9916 31.089 42.9978 31.1097 43.0031C31.218 43.0306 31.3273 43.0553 31.4373 43.0784C31.4665 43.0846 31.4959 43.0903 31.5253 43.0962C31.6415 43.1193 31.7585 43.1407 31.8765 43.1588C32.2813 43.2209 32.6959 43.2536 33.1181 43.2536C33.54 43.2536 33.9543 43.2208 34.3589 43.1588C34.4769 43.1407 34.5938 43.1193 34.7101 43.0962C34.7395 43.0904 34.7689 43.0846 34.7981 43.0784C34.9081 43.0553 35.0174 43.0306 35.1257 43.0031C35.1464 42.9978 35.1668 42.9916 35.1874 42.9862C35.2949 42.9579 35.4017 42.9281 35.5074 42.8956C35.5203 42.8916 35.5334 42.8878 35.5463 42.8838C35.6655 42.8465 35.7833 42.8061 35.9001 42.7636C35.9105 42.7598 35.921 42.7564 35.9314 42.7526C36.0554 42.7068 36.1777 42.6577 36.2987 42.6062C36.404 42.5613 36.508 42.5139 36.611 42.4648C36.6246 42.4583 36.6381 42.4519 36.6516 42.4453C36.7608 42.3926 36.8686 42.3378 36.9749 42.2803C37.5702 41.9586 38.1203 41.5648 38.6143 41.1106C38.6946 41.0369 38.7733 40.9616 38.8505 40.8847C39.0452 40.6907 39.2304 40.4873 39.4048 40.2744C39.4776 40.1856 39.549 40.0956 39.6181 40.0036C40.6382 38.6456 41.2431 36.9578 41.2431 35.1286ZM42.8681 35.1286C42.8681 36.7072 42.4906 38.197 41.8246 39.5161H52.2931V18.8786C52.2931 17.5325 51.2017 16.4411 49.8556 16.4411H36.8124C36.3639 16.4409 36 16.0772 35.9999 15.6286C35.9999 15.18 36.3639 14.8163 36.8124 14.8161H49.8556C52.0992 14.8161 53.9181 16.6351 53.9181 18.8786V40.8161C53.9181 43.0596 52.0991 44.8786 49.8556 44.8786H37.5869V47.7224H38.8056C41.0492 47.7224 42.8681 49.5412 42.8681 51.7849V52.5974C42.8681 53.0461 42.5043 53.4099 42.0556 53.4099H24.1806C23.7319 53.4099 23.3681 53.0461 23.3681 52.5974V51.7849C23.3681 49.5412 25.187 47.7224 27.4306 47.7224H28.6494V44.8786H16.3806C14.1371 44.8786 12.3181 43.0596 12.3181 40.8161V18.8786C12.3181 16.6351 14.1371 14.8161 16.3806 14.8161H29.4898C29.9385 14.8161 30.3023 15.1799 30.3023 15.6286C30.3023 16.0773 29.9385 16.4411 29.4898 16.4411H16.3806C15.0345 16.4411 13.9431 17.5325 13.9431 18.8786V39.5161H24.4117C23.7456 38.197 23.3681 36.7072 23.3681 35.1286C23.3681 29.7438 27.7333 25.3786 33.1181 25.3786C38.5029 25.3786 42.8681 29.7438 42.8681 35.1286Z" fill="#5C5C5C"/>
  <path d="M8.29314 9.95398C7.6649 8.97404 7.95 7.67034 8.92993 7.04209C9.90987 6.41384 11.2136 6.69894 11.8418 7.67888L14.1819 11.329C14.8102 12.309 14.5251 13.6126 13.5452 14.2409C12.5652 14.8691 11.2615 14.584 10.6333 13.6041L8.29314 9.95398Z" fill="#5C5C5C"/>
  <path d="M2.54272 14.8967C2.11921 15.9809 2.65485 17.2032 3.73911 17.6267L7.7778 19.2042C8.86206 19.6277 10.0843 19.0921 10.5079 18.0078C10.9314 16.9236 10.3957 15.7013 9.31147 15.2778L5.27277 13.7003C4.18852 13.2768 2.96623 13.8124 2.54272 14.8967Z" fill="#5C5C5C"/>
</svg>