<svg xmlns="http://www.w3.org/2000/svg" width="40" height="41" viewBox="0 0 40 41" fill="none">
  <ellipse opacity="0.3" cx="20" cy="39.5184" rx="20" ry="1.2" fill="#5C5C5C"/>
  <path fill-rule="evenodd" clip-rule="evenodd" d="M28.6504 7.26397C28.995 6.79492 29.6545 6.69402 30.1236 7.0386C30.5926 7.38318 30.6935 8.04276 30.349 8.51181L29.0655 10.259C28.7209 10.728 28.0613 10.8289 27.5922 10.4843C27.1232 10.1397 27.0223 9.48017 27.3669 9.01112L28.6504 7.26397ZM29.65 7.68332C29.537 7.60032 29.3781 7.62463 29.2951 7.73761L28.0116 9.48476C27.9286 9.59773 27.9529 9.75661 28.0659 9.8396C28.1789 9.9226 28.3377 9.8983 28.4207 9.78532L29.7042 8.03817C29.7872 7.92519 29.7629 7.76632 29.65 7.68332ZM9.64616 17.6161C9.64616 12.4926 13.7995 8.33929 18.9229 8.33929C24.0463 8.33929 28.1997 12.4926 28.1997 17.6161C28.1997 22.7395 24.0463 26.8928 18.9229 26.8928C13.7995 26.8928 9.64616 22.7395 9.64616 17.6161ZM18.9229 7.53929C13.3577 7.53929 8.84616 12.0508 8.84616 17.6161C8.84616 23.1813 13.3577 27.6928 18.9229 27.6928C20.7524 27.6928 22.4681 27.2053 23.947 26.353L25.2549 27.6609C25.2175 28.2168 25.4113 28.7853 25.8362 29.2101L29.872 33.246C30.6531 34.0271 31.9194 34.027 32.7004 33.246L33.5707 32.3758C34.3517 31.5947 34.3517 30.3284 33.5707 29.5473L29.5348 25.5115C29.1098 25.0865 28.5412 24.8928 27.9852 24.9303L26.8688 23.8139C28.204 22.1045 28.9997 19.9532 28.9997 17.6161C28.9997 12.0508 24.4882 7.53929 18.9229 7.53929ZM27.1181 25.1945L26.35 24.4264C25.8384 24.984 25.2649 25.4838 24.6403 25.9149L25.519 26.7937C25.6044 26.6465 25.7101 26.5078 25.8362 26.3817L26.7064 25.5115C26.8324 25.3855 26.971 25.2799 27.1181 25.1945ZM23.5478 16.405C23.7454 16.3062 23.8255 16.0659 23.7267 15.8683C23.6279 15.6707 23.3877 15.5906 23.1901 15.6894L20.0517 17.2586C19.9161 17.3264 19.8305 17.4649 19.8305 17.6164C19.8305 17.7679 19.9161 17.9064 20.0517 17.9742L23.1901 19.5434C23.3877 19.6422 23.6279 19.5621 23.7267 19.3645C23.8255 19.1669 23.7454 18.9266 23.5478 18.8278L21.125 17.6164L23.5478 16.405ZM14.1187 15.8683C14.0199 16.0659 14.1 16.3062 14.2976 16.405L16.7205 17.6164L14.2976 18.8278C14.1 18.9266 14.0199 19.1669 14.1187 19.3645C14.2175 19.5621 14.4578 19.6422 14.6554 19.5434L17.7938 17.9742C17.9293 17.9064 18.0149 17.7679 18.0149 17.6164C18.0149 17.4649 17.9293 17.3264 17.7938 17.2586L14.6554 15.6894C14.4578 15.5906 14.2175 15.6707 14.1187 15.8683ZM12.2614 17.6159C12.2614 13.9369 15.2438 10.9545 18.9228 10.9545C22.6018 10.9545 25.5842 13.9369 25.5842 17.6159C25.5842 21.2949 22.6018 24.2774 18.9228 24.2774C15.2438 24.2774 12.2614 21.2949 12.2614 17.6159ZM18.9228 10.1545C14.802 10.1545 11.4614 13.4951 11.4614 17.6159C11.4614 21.7368 14.802 25.0774 18.9228 25.0774C23.0436 25.0774 26.3842 21.7368 26.3842 17.6159C26.3842 13.4951 23.0436 10.1545 18.9228 10.1545ZM33.0927 11.1382C32.9158 10.5837 32.3229 10.2776 31.7684 10.4546L29.7031 11.1136C29.1486 11.2906 28.8425 11.8835 29.0195 12.4379C29.1964 12.9924 29.7893 13.2985 30.3438 13.1215L32.4091 12.4625C32.9636 12.2856 33.2696 11.6926 33.0927 11.1382ZM32.0116 11.2167C32.1451 11.1741 32.2879 11.2478 32.3306 11.3814C32.3732 11.5149 32.2995 11.6577 32.1659 11.7004L30.1006 12.3594C29.967 12.402 29.8242 12.3283 29.7816 12.1947C29.739 12.0612 29.8127 11.9184 29.9463 11.8758L32.0116 11.2167ZM6.11768 23.5691C5.5589 23.7319 5.23793 24.3169 5.40075 24.8757C5.56358 25.4344 6.14856 25.7554 6.70733 25.5926L8.78869 24.9861C9.34747 24.8232 9.66845 24.2383 9.50562 23.6795C9.34279 23.1207 8.75782 22.7997 8.19904 22.9626L6.11768 23.5691ZM6.16881 24.6518C6.12959 24.5173 6.2069 24.3764 6.34149 24.3371L8.42285 23.7306C8.55745 23.6914 8.69835 23.7687 8.73757 23.9033C8.77679 24.0379 8.69947 24.1788 8.56488 24.218L6.48352 24.8245C6.34893 24.8638 6.20803 24.7864 6.16881 24.6518ZM8.23367 29.0709C7.7735 28.7145 7.68934 28.0526 8.04569 27.5924L9.37305 25.8783C9.7294 25.4182 10.3913 25.334 10.8515 25.6904C11.3117 26.0467 11.3958 26.7086 11.0395 27.1688L9.71212 28.8829C9.35577 29.343 8.69384 29.4272 8.23367 29.0709ZM8.67821 28.0822C8.59238 28.1931 8.61265 28.3525 8.72349 28.4383C8.83433 28.5242 8.99377 28.5039 9.0796 28.3931L10.407 26.679C10.4928 26.5681 10.4725 26.4087 10.3617 26.3229C10.2508 26.237 10.0914 26.2573 10.0056 26.3682L8.67821 28.0822Z" fill="#5C5C5C"/>
</svg>