<svg width="100" height="100" viewBox="0 0 100 100" fill="none" xmlns="http://www.w3.org/2000/svg">
<ellipse opacity="0.1" cx="50" cy="97" rx="50" ry="3" fill="#AFAFAF"/>
<path fill-rule="evenodd" clip-rule="evenodd" d="M9 24C9 17.3726 14.3726 12 21 12C27.6274 12 33 17.3726 33 24C33 30.6274 27.6274 36 21 36C14.3726 36 9 30.6274 9 24ZM21 10C13.268 10 7 16.268 7 24C7 31.0529 12.2154 36.8878 19 37.8582V68C19 72.4183 22.5817 76 27 76H73C77.4183 76 81 72.4183 81 68V59H82C84.2091 59 86 57.2091 86 55V50C86 47.7909 84.2091 46 82 46H81V37C81 32.5817 77.4183 29 73 29H71V27C71 23.134 67.866 20 64 20H34.4202C32.6991 14.217 27.342 10 21 10ZM34.8582 22C34.9517 22.6532 35 23.321 35 24C35 25.7616 34.6746 27.4472 34.0807 29H69V27C69 24.2386 66.7614 22 64 22H34.8582ZM33.1271 31C30.7064 35.1846 26.182 38 21 38V68C21 71.3137 23.6863 74 27 74H73C76.3137 74 79 71.3137 79 68V59H65C62.7909 59 61 57.2091 61 55V50C61 47.7909 62.7909 46 65 46H79V37C79 33.6863 76.3137 31 73 31H33.1271ZM37.2621 46C36.3894 46 35.6439 46.1666 35.0046 46.4768L34.9999 46.4791C34.3588 46.786 33.8735 47.2046 33.5175 47.7345C33.1817 48.2411 33 48.8458 33 49.5866C33 50.4787 33.2637 51.0991 33.7222 51.5536C34.2587 52.0754 35.0282 52.5041 36.0892 52.7999L36.0898 52.8001L37.7173 53.2549L37.7188 53.2553C38.2712 53.408 38.7733 53.5876 39.2178 53.7988C39.7095 54.0248 40.1443 54.3325 40.4752 54.7448C40.8569 55.2148 41.0193 55.7794 41.026 56.3639L41.026 56.3859C41.0194 57.0216 40.8387 57.6169 40.4644 58.1324L40.4602 58.1382C40.0989 58.6282 39.614 58.9887 39.0476 59.2359L39.0421 59.2383C38.4685 59.4845 37.8349 59.5928 37.1641 59.5928C36.7272 59.5928 36.1638 59.4434 35.7552 59.3204C35.724 59.3109 35.6928 59.3014 35.6617 59.2918L35.5088 59.8102C36 59.9339 36.5565 60 37.1851 60C38.2238 60 39.0454 59.8256 39.6853 59.5209C40.3441 59.2043 40.8111 58.787 41.1288 58.2779C41.4485 57.7607 41.6221 57.1453 41.6221 56.3982C41.6221 55.8395 41.5255 55.4018 41.3656 55.0584C41.1886 54.6779 40.9531 54.3628 40.6586 54.1026L40.6542 54.0987C40.3347 53.8131 39.9685 53.5731 39.5505 53.38L39.5473 53.3785C39.1061 53.1726 38.6456 53.0089 38.1648 52.8874L38.1478 52.883L36.81 52.52C36.4803 52.4346 36.1543 52.3297 35.8321 52.2056C35.4767 52.0687 35.144 51.8974 34.8379 51.6889L34.8261 51.6808C34.4776 51.4361 34.1882 51.1294 33.972 50.7618L33.9647 50.7491C33.7292 50.335 33.631 49.8773 33.631 49.412V49.4H33.6311C33.638 48.8277 33.7956 48.2879 34.1174 47.8117C34.4411 47.3327 34.8917 46.982 35.4185 46.7409C35.9666 46.4901 36.5799 46.3844 37.2271 46.3844C37.682 46.3844 38.1196 46.4383 38.5296 46.5561L38.6673 46.1657C38.2492 46.0574 37.7827 46 37.2621 46ZM34.1339 44.6763C34.7194 44.3925 35.3447 44.201 36.0046 44.0962C36.0015 44.0645 36 44.0324 36 44V43C36 42.4477 36.4477 42 37 42C37.5523 42 38 42.4477 38 43V44C38 44.0105 37.9998 44.0211 37.9995 44.0315C38.8599 44.1069 39.6593 44.3191 40.3844 44.6837C40.8341 44.9099 41.0456 45.435 40.8782 45.9096L40.0455 48.2713C39.9389 48.5736 39.6939 48.8065 39.3865 48.8976C39.0792 48.9886 38.7468 48.9269 38.4928 48.7314C38.2295 48.5289 37.8366 48.3844 37.2271 48.3844C36.792 48.3844 36.477 48.456 36.2507 48.5595C36.0031 48.6728 35.8613 48.8031 35.7745 48.9315C35.6866 49.0616 35.6345 49.2136 35.6311 49.418C35.6318 49.5916 35.6664 49.6933 35.7002 49.755C35.7626 49.8589 35.8483 49.9537 35.9699 50.0401C36.1382 50.1539 36.3306 50.2544 36.5508 50.3392C36.8051 50.4371 37.0602 50.519 37.3163 50.5852L37.328 50.5882L37.328 50.5883L38.6633 50.9505C39.2611 51.1021 39.8374 51.307 40.3913 51.5653C40.9795 51.8373 41.5123 52.1837 41.9848 52.6056C42.4916 53.0537 42.8899 53.5935 43.1789 54.2145C43.4856 54.8735 43.6221 55.6103 43.6221 56.3982C43.6221 57.4729 43.3669 58.4619 42.8287 59.3316L42.827 59.3344C42.2866 60.2014 41.5133 60.8617 40.55 61.3243L40.5474 61.3255C39.7888 61.6872 38.9339 61.8947 37.9995 61.9687C37.9998 61.9791 38 61.9895 38 62V63C38 63.5523 37.5523 64 37 64C36.4477 64 36 63.5523 36 63V62C36 61.9767 36.0008 61.9536 36.0024 61.9307C35.2345 61.8369 34.5196 61.646 33.8661 61.3478C33.4131 61.1412 33.1812 60.6328 33.322 60.1553L34.0408 57.7172C34.1206 57.4466 34.311 57.2223 34.565 57.0996C34.819 56.9768 35.1131 56.9671 35.3746 57.0728C35.5665 57.1504 35.9435 57.2883 36.3319 57.4053C36.7605 57.5344 37.0599 57.5928 37.1641 57.5928C37.6208 57.5928 37.9753 57.5193 38.2504 57.4017C38.539 57.2752 38.7245 57.1209 38.8481 56.9544C38.9561 56.8045 39.0215 56.624 39.026 56.3761C39.0217 56.1596 38.9668 56.0597 38.9221 56.0049L38.9162 55.9977L38.9162 55.9976C38.8199 55.8772 38.6568 55.7415 38.3784 55.6141L38.3644 55.6076C38.046 55.4559 37.6552 55.3126 37.1848 55.1827L37.1819 55.1819L35.552 54.7264C34.2543 54.3646 33.1586 53.797 32.3237 52.9834L32.3186 52.9784C31.4164 52.0865 31 50.9204 31 49.5866C31 48.4957 31.275 47.4963 31.8527 46.6262L31.8553 46.6223C32.4224 45.7769 33.1907 45.1283 34.1339 44.6763ZM82.7334 75.6349C82.7334 77.09 83.9129 78.2695 85.368 78.2695H90.7878C92.2429 78.2695 93.4224 77.09 93.4224 75.6349C93.4224 74.1799 92.2429 73.0004 90.7878 73.0004H85.368C83.9129 73.0004 82.7334 74.1799 82.7334 75.6349ZM85.368 76.2695C85.0175 76.2695 84.7334 75.9854 84.7334 75.6349C84.7334 75.2845 85.0175 75.0004 85.368 75.0004H90.7878C91.1383 75.0004 91.4224 75.2845 91.4224 75.6349C91.4224 75.9854 91.1383 76.2695 90.7878 76.2695H85.368ZM77 86.4953C77 87.9503 78.1796 89.1299 79.6346 89.1299C81.0896 89.1299 82.2692 87.9503 82.2692 86.4953V81.0755C82.2692 79.6204 81.0896 78.4409 79.6346 78.4409C78.1795 78.4409 77 79.6204 77 81.0755V86.4953ZM79.6346 87.1299C79.2841 87.1299 79 86.8458 79 86.4953V81.0755C79 80.725 79.2841 80.4409 79.6346 80.4409C79.9851 80.4409 80.2692 80.725 80.2692 81.0755V86.4953C80.2692 86.8458 79.9851 87.1299 79.6346 87.1299ZM18.5 17.5C18.5 16.1193 19.6193 15 21 15C22.3807 15 23.5 16.1193 23.5 17.5V23.5C23.5 24.8807 22.3807 26 21 26C19.6193 26 18.5 24.8807 18.5 23.5V17.5ZM21 17C20.7239 17 20.5 17.2239 20.5 17.5V23.5C20.5 23.7761 20.7239 24 21 24C21.2761 24 21.5 23.7761 21.5 23.5V17.5C21.5 17.2239 21.2761 17 21 17ZM21 33C19.6193 33 18.5 31.8807 18.5 30.5C18.5 29.1193 19.6193 28 21 28C22.3807 28 23.5 29.1193 23.5 30.5C23.5 31.8807 22.3807 33 21 33ZM20.5 30.5C20.5 30.7761 20.7239 31 21 31C21.2761 31 21.5 30.7761 21.5 30.5C21.5 30.2239 21.2761 30 21 30C20.7239 30 20.5 30.2239 20.5 30.5Z" fill="#AFAFAF"/>
</svg>
