<svg xmlns="http://www.w3.org/2000/svg" width="80" height="81" viewBox="0 0 80 81" fill="none">
  <ellipse opacity="0.1" cx="40" cy="78.3189" rx="40" ry="2.4" fill="#8F8F8F"/>
  <path fill-rule="evenodd" clip-rule="evenodd" d="M32.8006 14.426C32.8006 13.262 33.7442 12.3184 34.9083 12.3184H39.2441C40.4081 12.3184 41.3518 13.262 41.3518 14.426C41.3518 15.5901 40.4081 16.5337 39.2441 16.5337H34.9083C33.7442 16.5337 32.8006 15.5901 32.8006 14.426ZM34.9083 13.9184C34.6279 13.9184 34.4006 14.1457 34.4006 14.426C34.4006 14.7064 34.6279 14.9337 34.9083 14.9337L39.2441 14.9337C39.5245 14.9337 39.7518 14.7064 39.7518 14.426C39.7518 14.1457 39.5245 13.9184 39.2441 13.9184L34.9083 13.9184ZM16.0006 19.1184C12.466 19.1184 9.60059 21.9837 9.60059 25.5184V56.7184C9.60059 60.253 12.466 63.1184 16.0006 63.1184H57.6375C61.1721 63.1184 64.0375 60.253 64.0375 56.7184V55.8928C64.2897 55.9097 64.5441 55.9184 64.8006 55.9184C70.9862 55.9184 76.0006 50.9039 76.0006 44.7184C76.0006 38.5328 70.9862 33.5184 64.8006 33.5184C64.5441 33.5184 64.2897 33.527 64.0375 33.5439V25.5184C64.0375 21.9837 61.1721 19.1184 57.6375 19.1184H16.0006ZM62.4375 33.7681V30.5035H11.2006V56.7184C11.2006 59.3693 13.3496 61.5184 16.0006 61.5184H57.6375C60.2885 61.5184 62.4375 59.3693 62.4375 56.7184V55.6686C57.3867 54.5839 53.6006 50.0933 53.6006 44.7184C53.6006 39.3435 57.3867 34.8529 62.4375 33.7681ZM62.4375 25.5184V28.9035H11.2006V25.5184C11.2006 22.8674 13.3496 20.7184 16.0006 20.7184H57.6375C60.2885 20.7184 62.4375 22.8674 62.4375 25.5184ZM55.2006 44.7184C55.2006 39.4164 59.4986 35.1184 64.8006 35.1184C70.1025 35.1184 74.4006 39.4164 74.4006 44.7184C74.4006 50.0203 70.1025 54.3184 64.8006 54.3184C59.4986 54.3184 55.2006 50.0203 55.2006 44.7184ZM62.8006 39.5184C62.8006 38.4138 63.696 37.5184 64.8006 37.5184C65.9052 37.5184 66.8006 38.4138 66.8006 39.5184V44.3184C66.8006 45.4229 65.9052 46.3184 64.8006 46.3184C63.696 46.3184 62.8006 45.4229 62.8006 44.3184V39.5184ZM64.8006 39.1184C64.5797 39.1184 64.4006 39.2974 64.4006 39.5184V44.3184C64.4006 44.5393 64.5797 44.7184 64.8006 44.7184C65.0215 44.7184 65.2006 44.5393 65.2006 44.3184V39.5184C65.2006 39.2974 65.0215 39.1184 64.8006 39.1184ZM64.8006 51.9184C63.696 51.9184 62.8006 51.0229 62.8006 49.9184C62.8006 48.8138 63.696 47.9184 64.8006 47.9184C65.9052 47.9184 66.8006 48.8138 66.8006 49.9184C66.8006 51.0229 65.9052 51.9184 64.8006 51.9184ZM64.4006 49.9184C64.4006 50.1393 64.5797 50.3184 64.8006 50.3184C65.0215 50.3184 65.2006 50.1393 65.2006 49.9184C65.2006 49.6974 65.0215 49.5184 64.8006 49.5184C64.5797 49.5184 64.4006 49.6974 64.4006 49.9184ZM17.2006 27.1184C18.3052 27.1184 19.2006 26.2229 19.2006 25.1184C19.2006 24.0138 18.3052 23.1184 17.2006 23.1184C16.096 23.1184 15.2006 24.0138 15.2006 25.1184C15.2006 26.2229 16.096 27.1184 17.2006 27.1184ZM24.8006 25.1184C24.8006 26.2229 23.9052 27.1184 22.8006 27.1184C21.696 27.1184 20.8006 26.2229 20.8006 25.1184C20.8006 24.0138 21.696 23.1184 22.8006 23.1184C23.9052 23.1184 24.8006 24.0138 24.8006 25.1184ZM15.2006 38.7184C15.2006 37.6138 16.096 36.7184 17.2006 36.7184H29.2006C30.3052 36.7184 31.2006 37.6138 31.2006 38.7184C31.2006 39.8229 30.3052 40.7184 29.2006 40.7184H17.2006C16.096 40.7184 15.2006 39.8229 15.2006 38.7184ZM15.2006 45.1184C15.2006 44.0138 16.096 43.1184 17.2006 43.1184H41.2006C42.3052 43.1184 43.2006 44.0138 43.2006 45.1184C43.2006 46.2229 42.3052 47.1184 41.2006 47.1184H17.2006C16.096 47.1184 15.2006 46.2229 15.2006 45.1184ZM15.2006 51.5184C15.2006 50.4138 16.096 49.5184 17.2006 49.5184H41.2006C42.3052 49.5184 43.2006 50.4138 43.2006 51.5184C43.2006 52.6229 42.3052 53.5184 41.2006 53.5184H17.2006C16.096 53.5184 15.2006 52.6229 15.2006 51.5184Z" fill="#8F8F8F"/>
</svg>