<svg width="60" height="62" viewBox="0 0 60 62" fill="none" xmlns="http://www.w3.org/2000/svg">
<path d="M5.3374 56H50.6624V13.335H48.0024V10.675H45.3424V7.9975H42.6649V5.3375H40.0049V2.66H37.3274V0H5.3374V56ZM7.9974 2.66H34.6674V15.995H48.0024V53.34H7.9974V2.66Z" fill="#5C5C5C"/>
<path d="M13.3354 34.6674V37.3274H32.008V42.6649H34.6679V37.3274H40.0055V42.6649H42.6654V34.6674H13.3354ZM40.0055 21.3324H37.3279V23.9924H34.6679V26.6699H37.3279V29.3299H40.0055V26.6699H42.6654V23.9924H40.0055V21.3324ZM34.6679 42.6649H40.0055V45.3249H34.6679V42.6649ZM15.9955 29.3299H18.6729V26.6699H21.3329V23.9924H18.6729V21.3324H15.9955V23.9924H13.3354V26.6699H15.9955V29.3299Z" fill="#5C5C5C"/>
<g clip-path="url(#clip0_15028_8318)">
<path d="M37 56.6213C37.0031 57.5079 37.3495 58.363 37.9744 59.026C38.5992 59.689 39.4595 60.1142 40.3935 60.2219C42.9166 60.5206 45.4571 60.6705 48 60.6705C50.5616 60.6705 53.1206 60.5184 55.6618 60.2153C56.5871 60.1015 57.4366 59.6738 58.0511 59.0122C58.6657 58.3506 59.003 57.5006 59 56.6214C59.0019 56.1855 58.9196 55.753 58.7572 55.3449C58.0015 53.4598 57.094 51.4529 56 49.3641C54.5798 46.6531 52.9669 44.0356 51.1721 41.5295C50.822 41.0401 50.3496 40.6394 49.7964 40.3626C49.2433 40.0858 48.6264 39.9414 48 39.9421C47.3737 39.9414 46.7568 40.0858 46.2036 40.3626C45.6505 40.6394 45.178 41.0401 44.8279 41.5295C43.0332 44.0356 41.4202 46.6531 40 49.3641C38.9059 51.4529 37.9985 53.4599 37.2428 55.3449C37.0804 55.753 36.9982 56.1855 37 56.6213Z" fill="#DC2626"/>
<path d="M59.6924 55.0127C58.873 52.9646 57.9316 50.9236 56.8965 48.9473C55.4558 46.1984 53.8202 43.5441 52.001 41.0022C51.5587 40.3856 50.9627 39.8807 50.2652 39.5316C49.5676 39.1825 48.7898 39 48 39C47.2102 39 46.4324 39.1825 45.7349 39.5316C45.0373 39.8807 44.4413 40.3856 43.999 41.0022C42.1798 43.5441 40.5443 46.1984 39.1035 48.9473C38.0684 50.9238 37.127 52.9646 36.3076 55.0118C36.1026 55.5263 35.9984 56.0715 36 56.6211C36.0045 57.7368 36.4403 58.8128 37.226 59.6476C38.0118 60.4824 39.0934 61.0188 40.2686 61.1563C42.8332 61.4596 45.4153 61.612 48 61.6127C50.6038 61.6123 53.2049 61.4577 55.7881 61.1499C56.5114 61.0587 57.2035 60.8152 57.8131 60.4373C58.4226 60.0595 58.934 59.557 59.3091 58.9673C59.6843 58.3777 59.9135 57.7159 59.9799 57.0313C60.0463 56.3466 59.948 55.6567 59.6924 55.0127ZM55.5361 59.2802C50.5499 59.8735 45.5044 59.8757 40.5176 59.2867C39.8257 59.2068 39.1884 58.8921 38.725 58.4014C38.2616 57.9108 38.0039 57.2778 38 56.6211C37.9987 56.2987 38.0592 55.9789 38.1787 55.6769C38.9756 53.6867 39.8906 51.7029 40.8965 49.7808C42.2977 47.1083 43.8882 44.5278 45.6572 42.0566C45.9162 41.6956 46.2652 41.4 46.6737 41.1956C47.0821 40.9912 47.5376 40.8844 48 40.8844C48.4625 40.8844 48.9179 40.9912 49.3263 41.1956C49.7348 41.4 50.0838 41.6956 50.3428 42.0566C52.1119 44.5278 53.7024 47.1085 55.1035 49.781C56.1094 51.7031 57.0244 53.6869 57.8213 55.678C57.9702 56.0556 58.0272 56.4598 57.9881 56.8609C57.949 57.262 57.8149 57.6497 57.5955 57.9954C57.3762 58.3412 57.0773 58.6361 56.7209 58.8584C56.3644 59.0808 55.9596 59.2249 55.5361 59.2802Z" fill="#591A1A"/>
<path d="M48 45.5953C47.7348 45.5953 47.4804 45.6946 47.2929 45.8713C47.1054 46.048 47 46.2876 47 46.5375V52.1907C47 52.4406 47.1054 52.6803 47.2929 52.8569C47.4804 53.0336 47.7348 53.1329 48 53.1329C48.2652 53.1329 48.5196 53.0336 48.7071 52.8569C48.8946 52.6803 49 52.4406 49 52.1907V46.5375C49 46.2876 48.8946 46.048 48.7071 45.8713C48.5196 45.6946 48.2652 45.5953 48 45.5953Z" fill="#591A1A"/>
<path d="M48 54.0752C47.7348 54.0752 47.4804 54.1745 47.2929 54.3512C47.1054 54.5279 47 54.7675 47 55.0174V55.9596C47 56.2095 47.1054 56.4491 47.2929 56.6258C47.4804 56.8025 47.7348 56.9018 48 56.9018C48.2652 56.9018 48.5196 56.8025 48.7071 56.6258C48.8946 56.4491 49 56.2095 49 55.9596V55.0174C49 54.7675 48.8946 54.5279 48.7071 54.3512C48.5196 54.1745 48.2652 54.0752 48 54.0752Z" fill="#591A1A"/>
</g>
<defs>
<clipPath id="clip0_15028_8318">
<rect width="24" height="23" fill="white" transform="translate(36 39)"/>
</clipPath>
</defs>
</svg>
