<svg width="16" height="16" viewBox="0 0 16 16" fill="none" xmlns="http://www.w3.org/2000/svg">
<path d="M6.34659 2C6.52613 1.99999 6.70383 2.03624 6.86902 2.10658C7.03421 2.17692 7.18349 2.27989 7.30792 2.40933L7.38792 2.50067L8.31992 3.66667H13.3333C13.6696 3.66656 13.9936 3.7936 14.2403 4.02233C14.4869 4.25106 14.638 4.56456 14.6633 4.9L14.6666 5V12.6667C14.6667 13.0031 14.5396 13.327 14.3109 13.5737C14.0822 13.8204 13.7687 13.9714 13.4333 13.9967L13.3333 14H2.66659C2.3302 14.0001 2.00621 13.8731 1.75955 13.6443C1.5129 13.4156 1.36181 13.1021 1.33659 12.7667L1.33325 12.6667V3.33333C1.33315 2.99695 1.46019 2.67296 1.68892 2.4263C1.91764 2.17965 2.23115 2.02856 2.56659 2.00333L2.66659 2H6.34659ZM6.34659 3.33333H4.50659H2.66659V12.6667H13.3333V5H8.31992C8.14037 5.00001 7.96268 4.96376 7.79749 4.89342C7.63229 4.82308 7.48301 4.72011 7.35859 4.59067L7.27859 4.49933L6.34659 3.33333ZM5.99992 8C6.17673 8 6.3463 8.07024 6.47132 8.19526C6.59635 8.32029 6.66659 8.48986 6.66659 8.66667C6.66659 8.84348 6.59635 9.01305 6.47132 9.13807C6.3463 9.2631 6.17673 9.33333 5.99992 9.33333C5.82311 9.33333 5.65354 9.2631 5.52851 9.13807C5.40349 9.01305 5.33325 8.84348 5.33325 8.66667C5.33325 8.48986 5.40349 8.32029 5.52851 8.19526C5.65354 8.07024 5.82311 8 5.99992 8ZM7.99992 8C8.17673 8 8.3463 8.07024 8.47132 8.19526C8.59635 8.32029 8.66659 8.48986 8.66659 8.66667C8.66659 8.84348 8.59635 9.01305 8.47132 9.13807C8.3463 9.2631 8.17673 9.33333 7.99992 9.33333C7.82311 9.33333 7.65354 9.2631 7.52851 9.13807C7.40349 9.01305 7.33325 8.84348 7.33325 8.66667C7.33325 8.48986 7.40349 8.32029 7.52851 8.19526C7.65354 8.07024 7.82311 8 7.99992 8ZM9.99992 8C10.1767 8 10.3463 8.07024 10.4713 8.19526C10.5963 8.32029 10.6666 8.48986 10.6666 8.66667C10.6666 8.84348 10.5963 9.01305 10.4713 9.13807C10.3463 9.2631 10.1767 9.33333 9.99992 9.33333C9.82311 9.33333 9.65354 9.2631 9.52851 9.13807C9.40349 9.01305 9.33325 8.84348 9.33325 8.66667C9.33325 8.48986 9.40349 8.32029 9.52851 8.19526C9.65354 8.07024 9.82311 8 9.99992 8Z" fill="#8F8F8F"/>
</svg>
