<svg width="48" height="48" viewBox="0 0 48 48" fill="none" xmlns="http://www.w3.org/2000/svg">
<path d="M41.25 5.45594C33.9986 5.4545 14.2647 5.45676 6.75 5.45594C5.7558 5.4571 4.80265 5.85257 4.09964 6.55558C3.39663 7.25858 3.00117 8.21173 3 9.20594V33.1832C3.00117 34.1774 3.39663 35.1306 4.09964 35.8336C4.80265 36.5366 5.7558 36.9321 6.75 36.9332H10.9195L10.9028 36.9625C10.5849 37.534 10.4209 38.1782 10.427 38.8322C10.4331 39.4861 10.6091 40.1272 10.9377 40.6926C11.2664 41.2579 11.7363 41.7282 12.3015 42.0572C12.8666 42.3862 13.5076 42.5626 14.1615 42.5692L33.8386 42.5692C34.4954 42.5625 35.1389 42.3845 35.7057 42.0527C36.2725 41.721 36.7429 41.247 37.0704 40.6777C37.3978 40.1084 37.571 39.4635 37.5727 38.8068C37.5745 38.15 37.4048 37.5042 37.0804 36.9332L41.25 36.9332C42.2442 36.9321 43.1974 36.5366 43.9004 35.8336C44.6034 35.1306 44.9988 34.1774 45 33.1832V9.20594C44.9988 8.21173 44.6034 7.25858 43.9004 6.55558C43.1974 5.85257 42.2442 5.4571 41.25 5.45594ZM6.75 6.95594H28.4396L23.8696 12.5136C23.7996 12.5994 23.7114 12.6685 23.6113 12.7159C23.5112 12.7633 23.4018 12.7878 23.291 12.7875H4.5V9.20594C4.50065 8.6094 4.73791 8.03748 5.15973 7.61567C5.58154 7.19385 6.15346 6.95659 6.75 6.95594ZM35.7832 39.9501C35.5871 40.292 35.3038 40.5758 34.9621 40.7724C34.6205 40.969 34.2328 41.0714 33.8386 41.0692H14.1614C13.7676 41.0691 13.3807 40.9656 13.0394 40.7691C12.6981 40.5726 12.4143 40.29 12.2164 39.9495C12.0186 39.6089 11.9135 39.2225 11.9118 38.8287C11.91 38.4348 12.0117 38.0474 12.2065 37.7052L22.0452 20.434C22.2418 20.089 22.5262 19.8021 22.8695 19.6026C23.2129 19.4031 23.6029 19.298 24 19.298C24.3971 19.298 24.7871 19.4031 25.1305 19.6026C25.4738 19.8021 25.7582 20.089 25.9548 20.434L35.7935 37.7052C35.9907 38.0468 36.0936 38.4346 36.0918 38.829C36.09 39.2234 35.9835 39.6103 35.7832 39.9501ZM43.5 33.1832C43.4993 33.7798 43.2621 34.3517 42.8403 34.7735C42.4185 35.1953 41.8465 35.4326 41.25 35.4332H36.226L27.2585 19.6913C26.9264 19.1216 26.4508 18.649 25.879 18.3205C25.3073 17.992 24.6594 17.8191 24 17.8191C23.3406 17.8192 22.6927 17.992 22.1209 18.3206C21.5492 18.6491 21.0736 19.1217 20.7415 19.6914L11.774 35.4332H6.75C6.15346 35.4326 5.58154 35.1953 5.15973 34.7735C4.73791 34.3517 4.50065 33.7798 4.5 33.1832V14.2875H23.291C23.6236 14.2881 23.952 14.2147 24.2527 14.0725C24.5533 13.9304 24.8185 13.7231 25.0291 13.4657L30.3813 6.95594H41.25C41.8465 6.95659 42.4185 7.19385 42.8403 7.61567C43.2621 8.03748 43.4993 8.6094 43.5 9.20594V33.1832Z" fill="#5C5C5C"/>
<path d="M39 9.03723C38.3089 9.04499 37.6487 9.32498 37.1628 9.81642C36.6768 10.3079 36.4043 10.9711 36.4043 11.6623C36.4043 12.3534 36.6769 13.0167 37.1628 13.5081C37.6488 13.9995 38.309 14.2795 39.0001 14.2872C39.6912 14.2795 40.3513 13.9995 40.8373 13.508C41.3232 13.0166 41.5958 12.3533 41.5958 11.6622C41.5958 10.9711 41.3232 10.3078 40.8372 9.81637C40.3512 9.32493 39.6911 9.04497 39 9.03723ZM39 12.7872C38.7044 12.783 38.4223 12.6627 38.2147 12.4521C38.0072 12.2416 37.8908 11.9579 37.8908 11.6622C37.8908 11.3666 38.0072 11.0828 38.2148 10.8723C38.4223 10.6618 38.7044 10.5414 39 10.5372C39.2956 10.5414 39.5777 10.6618 39.7853 10.8723C39.9929 11.0828 40.1092 11.3666 40.1092 11.6623C40.1092 11.9579 39.9928 12.2417 39.7853 12.4522C39.5777 12.6627 39.2956 12.7831 39 12.7872Z" fill="#5C5C5C"/>
<path d="M31.875 9.03723C31.1839 9.04499 30.5237 9.32498 30.0378 9.81642C29.5518 10.3079 29.2793 10.9711 29.2793 11.6623C29.2793 12.3534 29.5519 13.0167 30.0378 13.5081C30.5238 13.9995 31.184 14.2795 31.8751 14.2872C32.5662 14.2795 33.2263 13.9995 33.7123 13.508C34.1982 13.0166 34.4708 12.3533 34.4708 11.6622C34.4708 10.9711 34.1982 10.3078 33.7122 9.81637C33.2262 9.32493 32.5661 9.04497 31.875 9.03723ZM31.875 12.7872C31.5794 12.783 31.2973 12.6627 31.0897 12.4521C30.8822 12.2416 30.7658 11.9579 30.7658 11.6622C30.7658 11.3666 30.8822 11.0828 31.0898 10.8723C31.2973 10.6618 31.5794 10.5414 31.875 10.5372C32.1706 10.5414 32.4527 10.6618 32.6603 10.8723C32.8679 11.0828 32.9842 11.3666 32.9842 11.6623C32.9842 11.9579 32.8678 12.2417 32.6603 12.4522C32.4527 12.6627 32.1706 12.7831 31.875 12.7872Z" fill="#5C5C5C"/>
<path d="M24.082 23.0396C23.7653 23.0194 23.4478 23.0642 23.149 23.1711C22.8502 23.2781 22.5764 23.445 22.3444 23.6616C22.1124 23.8782 21.9272 24.14 21.8 24.4308C21.6729 24.7215 21.6065 25.0353 21.605 25.3526V30.8377C21.6686 33.9094 26.331 33.9113 26.395 30.8377V25.3526C26.3942 24.7394 26.1503 24.1515 25.7167 23.7179C25.2831 23.2843 24.6952 23.0404 24.082 23.0396ZM24.895 30.8377C24.9106 31.9201 23.0893 31.9219 23.105 30.8377V25.3526C23.1052 25.1371 23.191 24.9304 23.3434 24.778C23.4958 24.6256 23.7025 24.5399 23.918 24.5396C24.0369 24.5203 24.1586 24.5268 24.2748 24.5585C24.391 24.5902 24.4991 24.6465 24.5917 24.7236C24.6843 24.8006 24.7593 24.8967 24.8116 25.0052C24.864 25.1137 24.8924 25.2322 24.895 25.3526L24.895 30.8377Z" fill="#5C5C5C"/>
<path d="M23.9999 34.7489C23.3693 34.7561 22.7671 35.0117 22.3238 35.4601C21.8804 35.9086 21.6318 36.5137 21.6318 37.1443C21.6318 37.7749 21.8805 38.3801 22.3238 38.8285C22.7671 39.2769 23.3694 39.5325 23.9999 39.5397C24.6305 39.5324 25.2327 39.2769 25.6761 38.8284C26.1194 38.38 26.368 37.7748 26.368 37.1442C26.368 36.5137 26.1193 35.9085 25.676 35.4601C25.2327 35.0117 24.6304 34.7561 23.9999 34.7489ZM23.9999 38.0397C23.7649 38.0359 23.5407 37.94 23.3759 37.7725C23.211 37.6049 23.1186 37.3793 23.1186 37.1443C23.1186 36.9092 23.211 36.6836 23.3759 36.5161C23.5408 36.3486 23.7649 36.2526 23.9999 36.2489C24.2351 36.2524 24.4594 36.3483 24.6244 36.5159C24.7894 36.6834 24.8819 36.9091 24.8819 37.1443C24.8819 37.3795 24.7894 37.6052 24.6244 37.7727C24.4593 37.9403 24.235 38.0361 23.9999 38.0397Z" fill="#5C5C5C"/>
</svg>
