<svg width="92" height="80" viewBox="0 0 92 80" fill="none" xmlns="http://www.w3.org/2000/svg">
<g clip-path="url(#clip0_13015_30325)">
<path d="M72 0.5H8C3.58359 0.503938 0.004375 3.72523 0 7.7V61.3C0.004375 65.2748 3.58359 68.4961 8 68.5H72C76.4164 68.4961 79.9956 65.2748 80 61.3V7.7C79.9956 3.72523 76.4164 0.503938 72 0.5ZM8 2.90005H72C74.9455 2.90005 77.3333 5.04908 77.3333 7.7V14.9H2.66672V7.7C2.66672 5.04908 5.05453 2.90005 8 2.90005ZM72 66.1H8C5.05453 66.1 2.66672 63.9509 2.66672 61.3V17.3H77.3334V61.3C77.3333 63.9509 74.9455 66.1 72 66.1Z" fill="#5C5C5C"/>
<path d="M9.33301 12.5C11.5421 12.5 13.333 10.8881 13.333 8.89996C13.333 6.9118 11.5421 5.29996 9.33301 5.29996C7.12395 5.29996 5.33301 6.9118 5.33301 8.89996C5.33301 10.8881 7.12395 12.5 9.33301 12.5ZM9.33301 7.7C10.0694 7.7 10.6663 8.23733 10.6663 8.89996C10.6663 9.56258 10.0693 10.0999 9.33301 10.0999C8.59676 10.0999 7.99973 9.56272 7.99973 8.89996C7.99973 8.23719 8.59676 7.7 9.33301 7.7Z" fill="#5C5C5C"/>
<path d="M20 12.5C22.2092 12.5 24 10.8881 24 8.89996C24 6.9118 22.2091 5.29996 20 5.29996C17.7909 5.29996 16 6.9118 16 8.89996C16 10.8881 17.7909 12.5 20 12.5ZM20 7.7C20.7364 7.7 21.3333 8.23733 21.3333 8.89996C21.3333 9.56258 20.7362 10.0999 20 10.0999C19.2636 10.0999 18.6667 9.56258 18.6667 8.89996C18.6667 8.23733 19.2636 7.7 20 7.7Z" fill="#5C5C5C"/>
<path d="M30.667 12.5C32.8761 12.5 34.667 10.8881 34.667 8.89996C34.667 6.9118 32.8761 5.29996 30.667 5.29996C28.4579 5.29996 26.667 6.9118 26.667 8.89996C26.667 10.8881 28.4578 12.5 30.667 12.5ZM30.667 7.7C31.4034 7.7 32.0003 8.23733 32.0003 8.89996C32.0003 9.56258 31.4032 10.0999 30.667 10.0999C29.9307 10.0999 29.3337 9.56258 29.3337 8.89996C29.3337 8.23733 29.9306 7.7 30.667 7.7Z" fill="#5C5C5C"/>
<path d="M57.333 12.5H70.6663C72.8753 12.5 74.6663 10.8881 74.6663 8.89996C74.6663 6.9118 72.8753 5.29996 70.6663 5.29996H57.333C55.1239 5.29996 53.333 6.9118 53.333 8.89996C53.333 10.8881 55.1239 12.5 57.333 12.5ZM57.333 7.7H70.6663C71.4027 7.7 71.9996 8.23733 71.9996 8.89996C71.9996 9.56258 71.4027 10.0999 70.6663 10.0999H57.333C56.5966 10.0999 55.9997 9.56258 55.9997 8.89996C55.9997 8.23733 56.5968 7.7 57.333 7.7Z" fill="#5C5C5C"/>
<path d="M9.33328 52.1H38.6666C39.403 52.1 39.9998 51.5628 39.9998 50.9C39.9998 50.2372 39.403 49.7 38.6666 49.7H9.33328C8.59688 49.7 8 50.2372 8 50.9C8 51.5628 8.59703 52.1 9.33328 52.1Z" fill="#5C5C5C"/>
<path d="M9.33328 58.1H17.3333C18.0697 58.1 18.6666 57.5627 18.6666 56.9C18.6666 56.2374 18.0695 55.7001 17.3333 55.7001H9.33328C8.59688 55.7001 8 56.2373 8 56.9C8 57.5628 8.59703 58.1 9.33328 58.1Z" fill="#5C5C5C"/>
<path d="M42.667 50.9C42.667 51.5628 43.2639 52.1 44.0003 52.1H53.3336C54.07 52.1 54.6668 51.5628 54.6668 50.9C54.6668 50.2372 54.0698 49.7 53.3336 49.7H44.0003C43.2639 49.7 42.667 50.2372 42.667 50.9Z" fill="#5C5C5C"/>
<path d="M70.6663 49.7H58.6663C57.9299 49.7 57.333 50.2372 57.333 50.9C57.333 51.5628 57.93 52.1 58.6663 52.1H70.6663C71.4027 52.1 71.9996 51.5628 71.9996 50.9C71.9996 50.2372 71.4027 49.7 70.6663 49.7Z" fill="#5C5C5C"/>
<path d="M26.6663 55.7H22.6663C21.9299 55.7 21.333 56.2371 21.333 56.8999C21.333 57.5627 21.93 58.0999 22.6663 58.0999H26.6663C27.4027 58.0999 27.9996 57.5625 27.9996 56.8999C27.9996 56.2373 27.4027 55.7 26.6663 55.7Z" fill="#5C5C5C"/>
<path d="M32.0003 55.7C31.2639 55.7 30.667 56.2371 30.667 56.8999C30.667 57.5627 31.264 58.0999 32.0003 58.0999H48.0003C48.7367 58.0999 49.3336 57.5625 49.3336 56.8999C49.3336 56.2373 48.7367 55.7 48.0003 55.7H32.0003Z" fill="#5C5C5C"/>
<path d="M70.6667 55.7H53.3333C52.5969 55.7 52 56.2371 52 56.8999C52 57.5627 52.5969 58.0999 53.3333 58.0999H70.6666C71.403 58.0999 71.9998 57.5625 71.9998 56.8999C71.9998 56.2373 71.4031 55.7 70.6667 55.7Z" fill="#5C5C5C"/>
<path d="M70.6666 61.7H61.3333C60.5969 61.7 60 62.2373 60 62.8999C60 63.5627 60.5969 64.0999 61.3333 64.0999H70.6666C71.403 64.0999 71.9998 63.5626 71.9998 62.8999C71.9998 62.2373 71.403 61.7 70.6666 61.7Z" fill="#5C5C5C"/>
<path d="M9.52363 40.7181C9.903 41.2859 10.7219 41.4697 11.353 41.1284L24.6863 33.9284C25.0872 33.7114 25.3325 33.321 25.3325 32.9C25.3325 32.4788 25.0872 32.0886 24.6863 31.8716L11.353 24.6716C10.7232 24.3448 9.91863 24.5323 9.5441 25.0931C9.16957 25.6539 9.36332 26.3813 9.97972 26.7284L21.4077 32.9L9.97972 39.0716C9.34863 39.413 9.14441 40.1501 9.52363 40.7181Z" fill="#5C5C5C"/>
<path d="M29.3333 41.3H45.3333C46.0697 41.3 46.6666 40.7626 46.6666 40.1C46.6666 39.4374 46.0695 38.9 45.3333 38.9H29.3333C28.5969 38.9 28 39.4372 28 40.1C28 40.7628 28.597 41.3 29.3333 41.3Z" fill="#5C5C5C"/>
</g>
<g clip-path="url(#clip1_13015_30325)">
<path d="M53.6309 68.8689C53.6359 70.3467 54.2063 71.7718 55.2351 72.8768C56.2639 73.9818 57.6803 74.6905 59.2182 74.8699C63.3724 75.3678 67.5552 75.6175 71.742 75.6176C75.9595 75.6175 80.1728 75.3642 84.3569 74.8589C85.8803 74.6693 87.279 73.9564 88.2908 72.8538C89.3026 71.7511 89.8581 70.3344 89.8531 68.8691C89.8562 68.1427 89.7208 67.4218 89.4534 66.7416C88.2091 63.5998 86.715 60.2549 84.9137 56.7736C82.5754 52.2553 79.9197 47.8928 76.9648 43.7159C76.3883 42.9003 75.6105 42.2325 74.6997 41.7712C73.789 41.3098 72.7733 41.0691 71.742 41.0703C70.7108 41.0691 69.6951 41.3098 68.7843 41.7712C67.8736 42.2325 67.0957 42.9003 66.5193 43.7159C63.5643 47.8928 60.9086 52.2553 58.5703 56.7736C56.7689 60.2549 55.2749 63.6 54.0307 66.7416C53.7633 67.4217 53.6278 68.1426 53.6309 68.8689Z" fill="#E43434"/>
<path d="M90.9931 66.1879C89.644 62.7743 88.094 59.3726 86.3898 56.0789C84.0176 51.4974 81.3247 47.0734 78.3295 42.8369C77.6013 41.8093 76.62 40.9678 75.4715 40.386C74.323 39.8042 73.0424 39.5 71.742 39.5C70.4416 39.5 69.161 39.8042 68.0125 40.386C66.864 40.9678 65.8827 41.8093 65.1545 42.8369C62.1592 47.0734 59.4664 51.4974 57.0942 56.0789C55.39 59.373 53.84 62.7743 52.4909 66.1863C52.1533 67.0438 51.9817 67.9525 51.9844 68.8684C51.9917 70.728 52.7094 72.5213 54.003 73.9126C55.2967 75.304 57.0776 76.1979 59.0125 76.4272C63.235 76.9327 67.4864 77.1867 71.742 77.1879C76.029 77.1872 80.3117 76.9295 84.5648 76.4165C85.7556 76.2646 86.8951 75.8586 87.8988 75.2289C88.9025 74.5991 89.7444 73.7617 90.362 72.7789C90.9797 71.7961 91.3572 70.6932 91.4664 69.5521C91.5757 68.411 91.4139 67.2611 90.9931 66.1879ZM84.1499 73.3004C75.9403 74.2892 67.6331 74.2928 59.4225 73.3112C58.2833 73.178 57.234 72.6535 56.471 71.8357C55.708 71.018 55.2837 69.9631 55.2773 68.8684C55.2751 68.3312 55.3748 67.7981 55.5716 67.2948C56.8836 63.9778 58.3901 60.6715 60.0463 57.468C62.3533 53.0139 64.972 48.7129 67.8846 44.5943C68.3111 43.9926 68.8857 43.4999 69.5582 43.1593C70.2307 42.8187 70.9805 42.6406 71.742 42.6406C72.5034 42.6406 73.2532 42.8187 73.9257 43.1593C74.5982 43.4999 75.1729 43.9926 75.5993 44.5943C78.512 48.713 81.1307 53.0141 83.4376 57.4683C85.0938 60.6718 86.6003 63.9781 87.9124 67.2967C88.1575 67.926 88.2513 68.5997 88.187 69.2682C88.1226 69.9367 87.9018 70.5828 87.5407 71.1591C87.1796 71.7353 86.6874 72.2268 86.1006 72.5974C85.5137 72.968 84.8471 73.2082 84.1499 73.3004Z" fill="#A41F1F"/>
<path d="M71.7422 50.4923C71.3055 50.4923 70.8867 50.6577 70.5779 50.9522C70.2692 51.2467 70.0957 51.6461 70.0957 52.0626V61.4846C70.0957 61.9011 70.2692 62.3005 70.5779 62.595C70.8867 62.8895 71.3055 63.0549 71.7422 63.0549C72.1788 63.0549 72.5976 62.8895 72.9064 62.595C73.2152 62.3005 73.3886 61.9011 73.3886 61.4846V52.0626C73.3886 51.6461 73.2152 51.2467 72.9064 50.9522C72.5976 50.6577 72.1788 50.4923 71.7422 50.4923Z" fill="#A41F1F"/>
<path d="M71.7422 64.6253C71.3055 64.6253 70.8867 64.7907 70.5779 65.0852C70.2692 65.3797 70.0957 65.7792 70.0957 66.1956V67.766C70.0957 68.1824 70.2692 68.5819 70.5779 68.8764C70.8867 69.1708 71.3055 69.3363 71.7422 69.3363C72.1788 69.3363 72.5976 69.1708 72.9064 68.8764C73.2152 68.5819 73.3886 68.1824 73.3886 67.766V66.1956C73.3886 65.7792 73.2152 65.3797 72.9064 65.0852C72.5976 64.7907 72.1788 64.6253 71.7422 64.6253Z" fill="#A41F1F"/>
</g>
<defs>
<clipPath id="clip0_13015_30325">
<rect width="80" height="72" fill="white" transform="translate(0 0.5)"/>
</clipPath>
<clipPath id="clip1_13015_30325">
<rect width="39.5152" height="40" fill="white" transform="translate(51.9844 39.5)"/>
</clipPath>
</defs>
</svg>
