<svg width="56" height="56" viewBox="0 0 56 56" fill="none" xmlns="http://www.w3.org/2000/svg">
<path d="M5.3374 56H50.6624V13.335H48.0024V10.675H45.3424V7.9975H42.6649V5.3375H40.0049V2.66H37.3274V0H5.3374V56ZM7.9974 2.66H34.6674V15.995H48.0024V53.34H7.9974V2.66Z" fill="#5C5C5C"/>
<path d="M13.3354 34.6674V37.3274H32.008V42.6649H34.6679V37.3274H40.0055V42.6649H42.6654V34.6674H13.3354ZM40.0055 21.3324H37.3279V23.9924H34.6679V26.6699H37.3279V29.3299H40.0055V26.6699H42.6654V23.9924H40.0055V21.3324ZM34.6679 42.6649H40.0055V45.3249H34.6679V42.6649ZM15.9955 29.3299H18.6729V26.6699H21.3329V23.9924H18.6729V21.3324H15.9955V23.9924H13.3354V26.6699H15.9955V29.3299Z" fill="#5C5C5C"/>
</svg>
