<svg width="20" height="20" viewBox="0 0 20 20" fill="none" xmlns="http://www.w3.org/2000/svg">
<g clip-path="url(#clip0_16303_86316)">
<g clip-path="url(#clip1_16303_86316)">
<path d="M9.42188 0.0546875V1.23037H10.0097L10.3624 0.642529L10.0097 0.0546875H9.42188Z" fill="url(#paint0_linear_16303_86316)"/>
<path d="M10.0098 0.0546875H10.5976V1.23037H10.0098V0.0546875Z" fill="url(#paint1_linear_16303_86316)"/>
<path d="M9.42188 2.40625V4.16977H10.0097L10.3036 3.28801L10.0097 2.40625H9.42188Z" fill="url(#paint2_linear_16303_86316)"/>
<path d="M10.0098 2.40625H10.5976V4.16977H10.0098V2.40625Z" fill="url(#paint3_linear_16303_86316)"/>
<path d="M5.41064 1.15625L6.48522 0.677747L6.96372 1.75232L5.88915 2.23082L5.41064 1.15625Z" fill="url(#paint4_linear_16303_86316)"/>
<path d="M6.36816 3.30469L7.4427 2.8262L8.16046 4.43806L7.08592 4.91655L6.36816 3.30469Z" fill="url(#paint5_linear_16303_86316)"/>
<path d="M2.18896 3.79688L2.9755 2.92334L3.84906 3.7099L3.06253 4.58343L2.18896 3.79688Z" fill="url(#paint6_linear_16303_86316)"/>
<path d="M3.93604 5.37109L4.72257 4.49756L6.03286 5.67736L5.24633 6.55089L3.93604 5.37109Z" fill="url(#paint7_linear_16303_86316)"/>
<path d="M0.323242 7.51953L0.686516 6.40149L1.80459 6.76478L1.44132 7.88282L0.323242 7.51953Z" fill="url(#paint8_linear_16303_86316)"/>
<path d="M2.55957 8.24609L2.92286 7.12802L4.59997 7.67295L4.23668 8.79102L2.55957 8.24609Z" fill="url(#paint9_linear_16303_86316)"/>
<path d="M0.0146484 10.5117L1.18445 10.3883L1.3079 11.5581L0.138095 11.6815L0.0146484 10.5117Z" fill="url(#paint10_linear_16303_86316)"/>
<path d="M2.35449 10.2656L4.1092 10.0805L4.23264 11.2503L2.47794 11.4354L2.35449 10.2656Z" fill="url(#paint11_linear_16303_86316)"/>
<path d="M1.06104 14.5352L2.07918 13.9473L2.66702 14.9655L1.64888 15.5533L1.06104 14.5352Z" fill="url(#paint12_linear_16303_86316)"/>
<path d="M3.09766 13.3594L4.62487 12.4776L5.21271 13.4958L3.6855 14.3775L3.09766 13.3594Z" fill="url(#paint13_linear_16303_86316)"/>
<path d="M3.66064 17.793L4.35195 16.8418L5.30307 17.5331L4.61177 18.4843L3.66064 17.793Z" fill="url(#paint14_linear_16303_86316)"/>
<path d="M5.04248 15.8838L5.99369 16.5748L7.03021 15.1481L6.55464 14.8025L6.07908 14.457L5.04248 15.8838Z" fill="url(#paint15_linear_16303_86316)"/>
<path d="M7.35498 19.7031L7.59952 18.5533L8.74934 18.7978L8.5048 19.9477L7.35498 19.7031Z" fill="url(#paint16_linear_16303_86316)"/>
<path d="M7.84375 17.4023L8.21057 15.6776L9.36039 15.9221L8.99357 17.6469L7.84375 17.4023Z" fill="url(#paint17_linear_16303_86316)"/>
<path d="M11.2681 18.793L12.4178 18.5484L12.6624 19.6983L11.5126 19.9428L11.2681 18.793Z" fill="url(#paint18_linear_16303_86316)"/>
<path d="M10.6567 15.918L11.8066 15.6734L12.1734 17.3982L11.0236 17.6427L10.6567 15.918Z" fill="url(#paint19_linear_16303_86316)"/>
<path d="M14.7207 17.5234L15.6718 16.8321L16.3631 17.7833L15.412 18.4746L14.7207 17.5234Z" fill="url(#paint20_linear_16303_86316)"/>
<path d="M12.9922 15.1445L13.9433 14.4532L14.9803 15.8799L14.0291 16.5712L12.9922 15.1445Z" fill="url(#paint21_linear_16303_86316)"/>
<path d="M17.3516 14.9648L17.9394 13.9467L18.9576 14.5346L18.3697 15.5527L17.3516 14.9648Z" fill="url(#paint22_linear_16303_86316)"/>
<path d="M14.8062 13.4961L15.394 12.478L16.9212 13.3597L16.3334 14.3779L14.8062 13.4961Z" fill="url(#paint23_linear_16303_86316)"/>
<path d="M18.7314 11.5469L18.8549 10.3771L20.0247 10.5005L19.9012 11.6703L18.7314 11.5469Z" fill="url(#paint24_linear_16303_86316)"/>
<path d="M15.8071 11.2422L15.9306 10.0724L17.6852 10.2575L17.5618 11.4274L15.8071 11.2422Z" fill="url(#paint25_linear_16303_86316)"/>
<path d="M18.2129 6.76172L19.331 6.39842L19.6943 7.51649L18.5762 7.87979L18.2129 6.76172Z" fill="url(#paint26_linear_16303_86316)"/>
<path d="M15.418 7.67188L17.0951 7.12695L17.4584 8.24502L15.7813 8.78995L15.418 7.67188Z" fill="url(#paint27_linear_16303_86316)"/>
<path d="M16.1665 3.71484L17.04 2.92831L17.8266 3.80184L16.953 4.58838L16.1665 3.71484Z" fill="url(#paint28_linear_16303_86316)"/>
<path d="M13.9824 5.67969L15.2927 4.49989L16.0793 5.37342L14.769 6.55322L13.9824 5.67969Z" fill="url(#paint29_linear_16303_86316)"/>
<path d="M13.063 1.74609L13.5415 0.67152L14.6161 1.15002L14.1376 2.2246L13.063 1.74609Z" fill="url(#paint30_linear_16303_86316)"/>
<path d="M11.8682 4.43359L12.5859 2.82173L13.6605 3.30024L12.9427 4.9121L11.8682 4.43359Z" fill="url(#paint31_linear_16303_86316)"/>
<path d="M9.42207 5.93359C9.42207 7.87837 7.83987 9.46064 5.89502 9.46064V10.6363C7.83979 10.6363 9.42207 12.2185 9.42207 14.1634H10.0099L10.7937 10.0485L10.0099 5.93359C9.80432 5.93359 9.62765 5.93359 9.42207 5.93359Z" fill="url(#paint32_linear_16303_86316)"/>
<path d="M14.1247 10.6363C14.1247 10.2251 14.1247 9.87182 14.1247 9.46064C12.1799 9.46064 10.5976 7.87845 10.5976 5.93359C10.392 5.93359 10.2154 5.93359 10.0098 5.93359V14.1634H10.5976C10.5976 12.2186 12.1798 10.6363 14.1247 10.6363Z" fill="url(#paint33_linear_16303_86316)"/>
</g>
</g>
<defs>
<linearGradient id="paint0_linear_16303_86316" x1="9.42188" y1="0.0546875" x2="10.5689" y2="0.972292" gradientUnits="userSpaceOnUse">
<stop stop-color="#FF35F5"/>
<stop offset="1" stop-color="#41B9FF"/>
</linearGradient>
<linearGradient id="paint1_linear_16303_86316" x1="10.0098" y1="0.0546875" x2="10.9503" y2="0.52496" gradientUnits="userSpaceOnUse">
<stop stop-color="#FF35F5"/>
<stop offset="1" stop-color="#41B9FF"/>
</linearGradient>
<linearGradient id="paint2_linear_16303_86316" x1="9.42188" y1="2.40625" x2="10.8327" y2="3.11166" gradientUnits="userSpaceOnUse">
<stop stop-color="#FF35F5"/>
<stop offset="1" stop-color="#41B9FF"/>
</linearGradient>
<linearGradient id="paint3_linear_16303_86316" x1="10.0098" y1="2.40625" x2="11.0679" y2="2.75895" gradientUnits="userSpaceOnUse">
<stop stop-color="#FF35F5"/>
<stop offset="1" stop-color="#41B9FF"/>
</linearGradient>
<linearGradient id="paint4_linear_16303_86316" x1="5.41064" y1="1.15625" x2="6.96372" y2="1.75232" gradientUnits="userSpaceOnUse">
<stop stop-color="#FF35F5"/>
<stop offset="1" stop-color="#41B9FF"/>
</linearGradient>
<linearGradient id="paint5_linear_16303_86316" x1="6.36816" y1="3.30469" x2="8.29769" y2="3.63402" gradientUnits="userSpaceOnUse">
<stop stop-color="#FF35F5"/>
<stop offset="1" stop-color="#41B9FF"/>
</linearGradient>
<linearGradient id="paint6_linear_16303_86316" x1="2.18896" y1="3.79688" x2="3.84905" y2="3.70985" gradientUnits="userSpaceOnUse">
<stop stop-color="#FF35F5"/>
<stop offset="1" stop-color="#41B9FF"/>
</linearGradient>
<linearGradient id="paint7_linear_16303_86316" x1="3.93604" y1="5.37109" x2="5.83142" y2="4.88762" gradientUnits="userSpaceOnUse">
<stop stop-color="#FF35F5"/>
<stop offset="1" stop-color="#41B9FF"/>
</linearGradient>
<linearGradient id="paint8_linear_16303_86316" x1="0.323242" y1="7.51953" x2="1.80456" y2="6.76473" gradientUnits="userSpaceOnUse">
<stop stop-color="#FF35F5"/>
<stop offset="1" stop-color="#41B9FF"/>
</linearGradient>
<linearGradient id="paint9_linear_16303_86316" x1="2.55957" y1="8.24609" x2="4.09465" y2="7.03333" gradientUnits="userSpaceOnUse">
<stop stop-color="#FF35F5"/>
<stop offset="1" stop-color="#41B9FF"/>
</linearGradient>
<linearGradient id="paint10_linear_16303_86316" x1="0.0146484" y1="10.5117" x2="1.3079" y2="11.5581" gradientUnits="userSpaceOnUse">
<stop stop-color="#FF35F5"/>
<stop offset="1" stop-color="#41B9FF"/>
</linearGradient>
<linearGradient id="paint11_linear_16303_86316" x1="2.35449" y1="10.2656" x2="3.60524" y2="11.7714" gradientUnits="userSpaceOnUse">
<stop stop-color="#FF35F5"/>
<stop offset="1" stop-color="#41B9FF"/>
</linearGradient>
<linearGradient id="paint12_linear_16303_86316" x1="1.06104" y1="14.5352" x2="2.66702" y2="14.9655" gradientUnits="userSpaceOnUse">
<stop stop-color="#FF35F5"/>
<stop offset="1" stop-color="#41B9FF"/>
</linearGradient>
<linearGradient id="paint13_linear_16303_86316" x1="3.09766" y1="13.3594" x2="4.85141" y2="14.2265" gradientUnits="userSpaceOnUse">
<stop stop-color="#FF35F5"/>
<stop offset="1" stop-color="#41B9FF"/>
</linearGradient>
<linearGradient id="paint14_linear_16303_86316" x1="3.66064" y1="17.793" x2="5.30307" y2="17.5331" gradientUnits="userSpaceOnUse">
<stop stop-color="#FF35F5"/>
<stop offset="1" stop-color="#41B9FF"/>
</linearGradient>
<linearGradient id="paint15_linear_16303_86316" x1="5.04248" y1="14.457" x2="7.15599" y2="16.4408" gradientUnits="userSpaceOnUse">
<stop stop-color="#FF35F5"/>
<stop offset="1" stop-color="#41B9FF"/>
</linearGradient>
<linearGradient id="paint16_linear_16303_86316" x1="7.35498" y1="19.7031" x2="8.74934" y2="18.7978" gradientUnits="userSpaceOnUse">
<stop stop-color="#FF35F5"/>
<stop offset="1" stop-color="#41B9FF"/>
</linearGradient>
<linearGradient id="paint17_linear_16303_86316" x1="7.84375" y1="17.4023" x2="9.66156" y2="16.6796" gradientUnits="userSpaceOnUse">
<stop stop-color="#FF35F5"/>
<stop offset="1" stop-color="#41B9FF"/>
</linearGradient>
<linearGradient id="paint18_linear_16303_86316" x1="11.2681" y1="18.793" x2="12.6624" y2="19.6982" gradientUnits="userSpaceOnUse">
<stop stop-color="#FF35F5"/>
<stop offset="1" stop-color="#41B9FF"/>
</linearGradient>
<linearGradient id="paint19_linear_16303_86316" x1="10.6567" y1="15.918" x2="12.4745" y2="16.6407" gradientUnits="userSpaceOnUse">
<stop stop-color="#FF35F5"/>
<stop offset="1" stop-color="#41B9FF"/>
</linearGradient>
<linearGradient id="paint20_linear_16303_86316" x1="14.7207" y1="17.5234" x2="16.3631" y2="17.7833" gradientUnits="userSpaceOnUse">
<stop stop-color="#FF35F5"/>
<stop offset="1" stop-color="#41B9FF"/>
</linearGradient>
<linearGradient id="paint21_linear_16303_86316" x1="12.9922" y1="15.1445" x2="14.9473" y2="15.0653" gradientUnits="userSpaceOnUse">
<stop stop-color="#FF35F5"/>
<stop offset="1" stop-color="#41B9FF"/>
</linearGradient>
<linearGradient id="paint22_linear_16303_86316" x1="17.3516" y1="14.9648" x2="18.9576" y2="14.5345" gradientUnits="userSpaceOnUse">
<stop stop-color="#FF35F5"/>
<stop offset="1" stop-color="#41B9FF"/>
</linearGradient>
<linearGradient id="paint23_linear_16303_86316" x1="14.8062" y1="13.4961" x2="16.5599" y2="12.629" gradientUnits="userSpaceOnUse">
<stop stop-color="#FF35F5"/>
<stop offset="1" stop-color="#41B9FF"/>
</linearGradient>
<linearGradient id="paint24_linear_16303_86316" x1="18.7314" y1="11.5469" x2="20.0247" y2="10.5005" gradientUnits="userSpaceOnUse">
<stop stop-color="#FF35F5"/>
<stop offset="1" stop-color="#41B9FF"/>
</linearGradient>
<linearGradient id="paint25_linear_16303_86316" x1="15.8071" y1="11.2422" x2="17.0579" y2="9.73643" gradientUnits="userSpaceOnUse">
<stop stop-color="#FF35F5"/>
<stop offset="1" stop-color="#41B9FF"/>
</linearGradient>
<linearGradient id="paint26_linear_16303_86316" x1="18.2129" y1="6.76172" x2="19.6943" y2="7.51654" gradientUnits="userSpaceOnUse">
<stop stop-color="#FF35F5"/>
<stop offset="1" stop-color="#41B9FF"/>
</linearGradient>
<linearGradient id="paint27_linear_16303_86316" x1="15.418" y1="7.67188" x2="16.953" y2="8.88464" gradientUnits="userSpaceOnUse">
<stop stop-color="#FF35F5"/>
<stop offset="1" stop-color="#41B9FF"/>
</linearGradient>
<linearGradient id="paint28_linear_16303_86316" x1="16.1665" y1="3.71484" x2="17.8266" y2="3.80184" gradientUnits="userSpaceOnUse">
<stop stop-color="#FF35F5"/>
<stop offset="1" stop-color="#41B9FF"/>
</linearGradient>
<linearGradient id="paint29_linear_16303_86316" x1="13.9824" y1="5.67969" x2="15.8778" y2="6.16316" gradientUnits="userSpaceOnUse">
<stop stop-color="#FF35F5"/>
<stop offset="1" stop-color="#41B9FF"/>
</linearGradient>
<linearGradient id="paint30_linear_16303_86316" x1="13.063" y1="1.74609" x2="14.6161" y2="1.15002" gradientUnits="userSpaceOnUse">
<stop stop-color="#FF35F5"/>
<stop offset="1" stop-color="#41B9FF"/>
</linearGradient>
<linearGradient id="paint31_linear_16303_86316" x1="11.8682" y1="4.43359" x2="13.7977" y2="4.10422" gradientUnits="userSpaceOnUse">
<stop stop-color="#FF35F5"/>
<stop offset="1" stop-color="#41B9FF"/>
</linearGradient>
<linearGradient id="paint32_linear_16303_86316" x1="5.89502" y1="5.93359" x2="13.1292" y2="10.2397" gradientUnits="userSpaceOnUse">
<stop stop-color="#FF35F5"/>
<stop offset="1" stop-color="#41B9FF"/>
</linearGradient>
<linearGradient id="paint33_linear_16303_86316" x1="10.0098" y1="5.93359" x2="16.5936" y2="9.2255" gradientUnits="userSpaceOnUse">
<stop stop-color="#FF35F5"/>
<stop offset="1" stop-color="#41B9FF"/>
</linearGradient>
<clipPath id="clip0_16303_86316">
<rect width="20" height="20" fill="white"/>
</clipPath>
<clipPath id="clip1_16303_86316">
<rect width="20" height="20" fill="white" transform="translate(0.00976562)"/>
</clipPath>
</defs>
</svg>
