<svg width="20" height="20" viewBox="0 0 20 20" fill="none" xmlns="http://www.w3.org/2000/svg">
<path d="M0.609857 5.34761L1.67008 4.81659C1.98136 4.65179 2.23774 4.39543 2.40252 4.08415L2.93171 3.02393C3.00496 2.87744 3.22469 2.87744 3.29794 3.02393L3.82896 4.08415C3.99374 4.39543 4.25013 4.65179 4.55957 4.81659L5.62163 5.34761C5.7681 5.42086 5.7681 5.63876 5.62163 5.712L4.55957 6.24302C4.25013 6.40782 3.99374 6.66418 3.82896 6.97547L3.29794 8.03567C3.22469 8.18216 3.00496 8.18216 2.93171 8.03567L2.40252 6.97547C2.23774 6.66418 1.98136 6.40782 1.67008 6.24302L0.609857 5.712C0.463381 5.63876 0.463381 5.43916 0.609857 5.34761Z" fill="url(#paint0_linear_16257_63849)"/>
<path d="M19.2389 9.67394L16.787 10.899C16.0564 11.2652 15.4522 11.8676 15.0859 12.6L13.8609 15.0519C13.6778 15.398 13.1834 15.398 13.0003 15.0519L11.7753 12.6C11.4091 11.8676 10.8066 11.2652 10.0742 10.899L7.62417 9.67394C7.25795 9.49083 7.25795 8.97811 7.60584 8.81331L10.0742 7.5883C10.8066 7.22208 11.4091 6.61781 11.7753 5.88719L13.0003 3.43534C13.1834 3.08926 13.6778 3.08926 13.8609 3.43534L15.0859 5.88719C15.4522 6.61781 16.0564 7.22208 16.787 7.5883L19.2389 8.81331C19.5868 8.99642 19.5868 9.49083 19.2389 9.67394Z" fill="url(#paint1_linear_16257_63849)"/>
<path d="M8.23735 14.6534L7.1753 15.1844C6.86585 15.3492 6.60947 15.6056 6.44468 15.9169L5.91366 16.9771C5.84041 17.1236 5.62069 17.1236 5.54744 16.9771L5.01824 15.9169C4.85346 15.6056 4.59708 15.3492 4.2858 15.1844L3.22558 14.6534C3.0791 14.5802 3.0791 14.3806 3.22558 14.289L4.2858 13.758C4.59708 13.5932 4.85346 13.3368 5.01824 13.0256L5.54744 11.9653C5.62069 11.8188 5.84041 11.8188 5.91366 11.9653L6.44468 13.0256C6.60947 13.3368 6.86585 13.5932 7.1753 13.758L8.23735 14.289C8.38382 14.3623 8.38382 14.5802 8.23735 14.6534Z" fill="url(#paint2_linear_16257_63849)"/>
<defs>
<linearGradient id="paint0_linear_16257_63849" x1="0.350446" y1="2.83896" x2="4.2317" y2="8.00674" gradientUnits="userSpaceOnUse">
<stop offset="0.283654" stop-color="#828282"/>
<stop offset="0.543269" stop-color="#D4D4D4"/>
<stop offset="0.740385" stop-color="#959595"/>
</linearGradient>
<linearGradient id="paint1_linear_16257_63849" x1="6.99976" y1="3.00156" x2="15.9998" y2="15.0016" gradientUnits="userSpaceOnUse">
<stop offset="0.283654" stop-color="#828282"/>
<stop offset="0.543269" stop-color="#D4D4D4"/>
<stop offset="0.740385" stop-color="#959595"/>
</linearGradient>
<linearGradient id="paint2_linear_16257_63849" x1="2.96617" y1="11.7804" x2="6.84743" y2="16.9481" gradientUnits="userSpaceOnUse">
<stop offset="0.283654" stop-color="#828282"/>
<stop offset="0.543269" stop-color="#D4D4D4"/>
<stop offset="0.740385" stop-color="#959595"/>
</linearGradient>
</defs>
</svg>
