<svg width="52" height="41" viewBox="0 0 52 41" fill="none" xmlns="http://www.w3.org/2000/svg">
<g id="Group">
<path id="Vector" d="M36.3332 26.2484C36.2838 26.1243 36.2718 25.9885 36.2987 25.8578C36.3256 25.727 36.3903 25.607 36.4847 25.5125C36.5791 25.4181 36.6991 25.3535 36.8299 25.3265C36.9607 25.2996 37.0965 25.3116 37.2206 25.361L49.5638 30.1612C49.6961 30.2129 49.8091 30.3044 49.8871 30.4231C49.9652 30.5418 50.0045 30.6819 49.9995 30.8239C49.9945 30.9659 49.9456 31.1028 49.8594 31.2158C49.7732 31.3287 49.6541 31.4121 49.5185 31.4545L44.7952 32.9192C44.5821 32.9851 44.3882 33.102 44.2305 33.2597C44.0728 33.4174 43.9559 33.6113 43.89 33.8244L42.4266 38.5463C42.3843 38.682 42.3009 38.8011 42.1879 38.8872C42.075 38.9734 41.938 39.0224 41.796 39.0273C41.654 39.0323 41.514 38.993 41.3953 38.915C41.2766 38.8369 41.1851 38.7239 41.1333 38.5916L36.3332 26.2484Z" stroke="url(#paint0_linear_18_1658)" stroke-width="3" stroke-linecap="round" stroke-linejoin="round"/>
<path id="Vector_2" d="M48.6299 20.9435V4.74293C48.6299 4.01546 48.3409 3.31779 47.8265 2.80339C47.3121 2.28899 46.6144 2 45.8869 2H4.74293C4.01546 2 3.31779 2.28899 2.80339 2.80339C2.28899 3.31779 2 4.01546 2 4.74293V34.9152C2 35.6427 2.28899 36.3403 2.80339 36.8547C3.31779 37.3691 4.01546 37.6581 4.74293 37.6581H31.9152" stroke="url(#paint1_linear_18_1658)" stroke-width="4" stroke-linecap="round" stroke-linejoin="round"/>
<path id="Vector_3" d="M16.0216 24.0084H16.021C15.9302 24.0084 15.8426 23.9752 15.7746 23.915C15.7745 23.9149 15.7744 23.9148 15.7743 23.9147L9.67616 18.4939L16.1511 12.7379C16.2243 12.6774 16.318 12.6472 16.413 12.6537C16.51 12.6604 16.6006 12.7049 16.6653 12.7776C16.7299 12.8504 16.7634 12.9456 16.7586 13.0428C16.7538 13.1379 16.7127 13.2275 16.6439 13.2931L11.6347 17.7465L10.7939 18.494L11.6349 19.2414L16.2677 23.3585L16.2683 23.359C16.3246 23.4091 16.3645 23.475 16.3824 23.5482C16.4004 23.6214 16.3957 23.6983 16.369 23.7688C16.3422 23.8393 16.2946 23.8999 16.2326 23.9427C16.1706 23.9855 16.097 24.0084 16.0216 24.0084ZM27.5175 13.628L27.5173 13.6278C27.4436 13.5624 27.399 13.4704 27.3932 13.3721C27.3874 13.2738 27.4209 13.1773 27.4863 13.1037C27.5516 13.0301 27.6436 12.9854 27.7419 12.9796C27.8402 12.9738 27.9367 13.0073 28.0103 13.0727L34.1089 18.4939L27.6252 24.2578C27.5515 24.3232 27.4548 24.3567 27.3563 24.3508C27.2579 24.345 27.1659 24.3003 27.1004 24.2265C27.035 24.1528 27.0015 24.0561 27.0073 23.9577C27.0132 23.8593 27.0579 23.7672 27.1316 23.7018L27.1321 23.7014L32.1503 19.2413L32.9912 18.494L32.1504 17.7465L27.5175 13.628ZM20.887 26.7846L20.8847 26.798L20.8829 26.8114C20.876 26.8605 20.8594 26.9078 20.834 26.9505C20.8086 26.9931 20.7749 27.0302 20.7349 27.0596C20.6949 27.089 20.6494 27.1101 20.6011 27.1216C20.5529 27.1331 20.5027 27.1348 20.4538 27.1267C20.4048 27.1185 20.358 27.1006 20.3161 27.074L19.7808 27.9187L20.3161 27.074C20.2742 27.0475 20.238 27.0128 20.2097 26.972C20.1814 26.9312 20.1616 26.8852 20.1514 26.8366C20.1412 26.788 20.1408 26.7379 20.1503 26.6892L20.153 26.6757L20.1552 26.6622L22.8981 10.2046L22.9004 10.1912L22.9022 10.1778C22.9091 10.1286 22.9257 10.0813 22.9511 10.0387C22.9765 9.99605 23.0102 9.95894 23.0502 9.92955L22.4621 9.12916L23.0502 9.92955C23.0902 9.90016 23.1357 9.87908 23.184 9.86756C23.2322 9.85604 23.2823 9.85432 23.3313 9.86249C23.3803 9.87065 23.4271 9.88855 23.469 9.91512C23.5109 9.94169 23.5471 9.97639 23.5754 10.0172C23.6037 10.0579 23.6235 10.104 23.6337 10.1526C23.6439 10.2011 23.6443 10.2513 23.6348 10.3L23.6321 10.3135L23.6299 10.327L20.887 26.7846Z" fill="url(#paint2_linear_18_1658)" stroke="url(#paint3_linear_18_1658)" stroke-width="2"/>
</g>
<defs>
<linearGradient id="paint0_linear_18_1658" x1="36.2847" y1="25.3125" x2="49.9999" y2="39.0277" gradientUnits="userSpaceOnUse">
<stop stop-color="white" stop-opacity="0.6"/>
<stop offset="1" stop-color="white" stop-opacity="0.1"/>
</linearGradient>
<linearGradient id="paint1_linear_18_1658" x1="2" y1="2" x2="36.4124" y2="47.0009" gradientUnits="userSpaceOnUse">
<stop stop-color="white" stop-opacity="0.6"/>
<stop offset="1" stop-color="white" stop-opacity="0.1"/>
</linearGradient>
<linearGradient id="paint2_linear_18_1658" x1="8.17102" y1="8.85742" x2="26.3017" y2="34.6722" gradientUnits="userSpaceOnUse">
<stop stop-color="white" stop-opacity="0.6"/>
<stop offset="1" stop-color="white" stop-opacity="0.1"/>
</linearGradient>
<linearGradient id="paint3_linear_18_1658" x1="10.0935" y1="8.85742" x2="17.1073" y2="31.8473" gradientUnits="userSpaceOnUse">
<stop stop-color="white" stop-opacity="0"/>
<stop offset="0.32" stop-color="white" stop-opacity="0.1"/>
<stop offset="0.64" stop-color="white" stop-opacity="0.37"/>
<stop offset="1" stop-color="white" stop-opacity="0"/>
</linearGradient>
</defs>
</svg>
