<svg width="10" height="10" viewBox="0 0 10 10" fill="none" xmlns="http://www.w3.org/2000/svg">
<path d="M1.08736 1.08492C1.31516 0.857111 1.68451 0.857111 1.91232 1.08492L4.99984 4.17244L8.08736 1.08492C8.31517 0.857111 8.68451 0.857111 8.91232 1.08492C9.14012 1.31272 9.14012 1.68207 8.91232 1.90988L5.8248 4.9974L8.91232 8.08492C9.14012 8.31272 9.14012 8.68207 8.91232 8.90988C8.68451 9.13768 8.31517 9.13768 8.08736 8.90988L4.99984 5.82235L1.91232 8.90988C1.68451 9.13768 1.31516 9.13768 1.08736 8.90988C0.859552 8.68207 0.859552 8.31272 1.08736 8.08492L4.17488 4.9974L1.08736 1.90988C0.859552 1.68207 0.859552 1.31272 1.08736 1.08492Z" fill="#B0B0B5"/>
</svg>
