<svg width="170" height="128" viewBox="0 0 170 128" fill="none" xmlns="http://www.w3.org/2000/svg">
<path d="M53.6736 49L38.8096 70.4042L23.9456 49H18L38.8096 78.728L59.6192 49H53.6736Z" fill="#16C6B9"/>
<path d="M53.6743 49L38.8103 70.4042L23.9463 49H29.8919L38.8103 62.006L47.7287 49H53.6743Z" fill="#262929"/>
<path d="M64.2266 57.1748H66.4562L69.8749 65.8702L73.2936 57.1748H75.4489L70.7667 68.5458H68.983L64.2266 57.1748Z" fill="#201F1F"/>
<path d="M77.1582 57.1748H79.0905V68.4714H77.1582V57.1748Z" fill="#201F1F"/>
<path d="M82.0647 57.1748H87.1184C87.7873 57.1748 88.3819 57.2491 88.9764 57.4721C89.4967 57.6207 89.9426 57.918 90.3142 58.2896C90.6115 58.5869 90.8344 58.9585 90.9831 59.4044C91.1317 59.8503 91.206 60.2962 91.206 60.7422C91.206 61.1881 91.1317 61.5597 90.9831 62.0056C90.8344 62.3772 90.6858 62.6745 90.3885 62.9718C90.1655 63.269 89.8683 63.492 89.571 63.715C89.1994 63.9379 88.8278 64.0866 88.4562 64.1609L91.5033 68.4714H89.1251L86.3752 64.5325H83.8483V68.4714H81.916V57.1748H82.0647ZM86.8955 62.7488C87.49 62.8231 88.0846 62.6002 88.6048 62.2286C89.0507 61.857 89.2737 61.3367 89.1994 60.8165C89.1994 60.2962 88.9764 59.776 88.6048 59.4044C88.0846 59.0328 87.49 58.8842 86.8955 58.9585H83.997V62.7488H86.8955Z" fill="#201F1F"/>
<path d="M96.5576 59.0328H92.9902V57.1748H102.132V59.0328H98.5642V68.4714H96.5576V59.0328Z" fill="#201F1F"/>
<path d="M108.893 68.6201C108.224 68.6201 107.556 68.5458 106.887 68.3228C106.292 68.0998 105.772 67.8026 105.4 67.3566C104.954 66.9107 104.657 66.3905 104.434 65.7959C104.211 65.127 104.062 64.3838 104.062 63.6406V57.1748H106.069V63.6406C105.995 64.5325 106.292 65.35 106.812 66.0189C107.333 66.6134 108.15 66.9107 108.893 66.8364C109.636 66.9107 110.454 66.6134 110.974 66.0189C111.495 65.35 111.792 64.5325 111.717 63.6406V57.1748H113.65V63.5663C113.65 64.3095 113.575 65.0527 113.278 65.7959C113.055 66.3905 112.758 66.9107 112.312 67.3566C111.866 67.8026 111.346 68.0998 110.751 68.3228C110.231 68.5458 109.562 68.6944 108.893 68.6201Z" fill="#201F1F"/>
<path d="M120.488 68.6202C119.671 68.6202 118.779 68.4715 117.962 68.1743C117.144 67.877 116.401 67.4311 115.732 66.8365L116.921 65.4244C117.441 65.8703 117.962 66.2419 118.556 66.5392C119.151 66.8365 119.82 66.9108 120.488 66.9108C121.009 66.9108 121.529 66.8365 121.975 66.5392C122.346 66.3163 122.495 65.9447 122.495 65.4987C122.495 65.3501 122.495 65.1271 122.421 64.9785C122.346 64.8299 122.198 64.6812 122.049 64.5326C121.826 64.3839 121.529 64.2353 121.306 64.161C120.86 64.0123 120.488 63.8637 120.042 63.7894C119.522 63.6407 118.928 63.4921 118.407 63.3435C117.962 63.1948 117.59 62.9719 117.218 62.6746C116.921 62.4516 116.624 62.08 116.475 61.7084C116.326 61.2625 116.252 60.8166 116.252 60.3707C116.252 59.4788 116.624 58.587 117.367 57.9924C117.739 57.6951 118.11 57.4722 118.556 57.3235C119.076 57.1749 119.597 57.1006 120.117 57.1006C120.86 57.1006 121.603 57.2492 122.346 57.4722C123.015 57.6951 123.684 58.0667 124.204 58.5127L123.164 59.9991C122.718 59.6275 122.198 59.3302 121.603 59.1072C121.083 58.8843 120.563 58.8099 120.042 58.8099C119.597 58.8099 119.076 58.8843 118.705 59.1815C118.407 59.4045 118.184 59.7761 118.184 60.1477C118.184 60.3707 118.184 60.5193 118.333 60.7423C118.407 60.8909 118.556 61.1139 118.779 61.1882C119.002 61.3368 119.299 61.4855 119.597 61.5598C119.968 61.7084 120.414 61.7827 120.934 61.9314C121.455 62.08 122.049 62.2287 122.569 62.4516C123.015 62.6003 123.387 62.8232 123.684 63.1205C123.981 63.3435 124.204 63.7151 124.353 64.0123C124.502 64.3839 124.576 64.8299 124.576 65.2015C124.576 65.7217 124.502 66.1676 124.279 66.6135C124.056 67.0595 123.833 67.3567 123.461 67.654C123.09 67.9513 122.644 68.1743 122.198 68.3229C121.603 68.5459 121.083 68.6202 120.488 68.6202Z" fill="#201F1F"/>
<path d="M127.028 57.1748H128.961V68.4714H127.028V57.1748Z" fill="#201F1F"/>
<path d="M131.561 66.985L138.249 58.9585H131.784V57.1748H140.851V58.6612L134.162 66.7621H140.851V68.5458H131.635V66.985H131.561Z" fill="#201F1F"/>
<path d="M143.304 57.1748H151.628V58.9585H145.236V61.857H150.884V63.6406H145.236V66.6878H151.702V68.4714H143.229V57.1748H143.304Z" fill="#201F1F"/>
</svg>
