<svg id="svg" version="1.1" xmlns="http://www.w3.org/2000/svg" xmlns:xlink="http://www.w3.org/1999/xlink" width="400" height="72" viewBox="0, 0, 400,72"><g id="svgg"><path id="path0" d="M13.917 6.611 C 13.733 6.651,13.433 6.749,13.250 6.829 C 13.067 6.909,12.542 7.108,12.083 7.272 C 9.389 8.235,6.946 11.096,6.165 14.204 C 5.841 15.490,5.651 41.636,5.962 42.115 C 6.060 42.266,6.208 42.259,6.587 42.084 C 6.860 41.958,7.608 41.655,8.250 41.409 C 9.717 40.849,14.449 38.515,15.667 37.752 C 16.171 37.436,16.793 37.059,17.049 36.914 C 17.759 36.512,19.591 35.293,21.167 34.173 C 21.946 33.620,22.853 32.986,23.182 32.765 C 23.511 32.544,23.886 32.261,24.015 32.136 C 24.144 32.011,24.734 31.535,25.325 31.079 C 25.916 30.623,26.522 30.137,26.671 30.000 C 26.821 29.863,27.124 29.598,27.346 29.412 C 33.371 24.359,39.819 17.649,46.159 9.833 C 46.420 9.512,47.086 8.692,47.640 8.011 C 48.195 7.329,48.610 6.710,48.564 6.636 C 48.480 6.499,14.541 6.475,13.917 6.611 M52.558 17.022 C 52.654 27.224,52.677 28.103,52.891 29.917 C 52.946 30.375,53.074 31.912,53.177 33.333 C 53.331 35.462,53.617 38.082,53.896 39.917 C 54.448 43.550,55.399 48.032,56.066 50.143 C 56.305 50.899,56.500 51.596,56.500 51.692 C 56.500 51.788,56.606 52.103,56.735 52.391 C 56.865 52.680,57.170 53.535,57.415 54.290 C 57.659 55.045,57.929 55.706,58.013 55.758 C 58.098 55.810,58.167 55.966,58.167 56.103 C 58.167 56.426,59.806 59.933,60.967 62.095 C 61.266 62.650,61.499 62.605,62.083 61.878 C 62.797 60.991,63.500 60.018,63.500 59.916 C 63.500 59.869,63.645 59.512,63.822 59.123 C 64.600 57.420,64.572 58.183,64.628 36.750 C 64.689 13.836,64.721 14.584,63.550 12.189 C 62.747 10.549,60.704 8.167,60.100 8.167 C 59.962 8.167,59.790 8.066,59.717 7.943 C 59.643 7.819,59.208 7.581,58.750 7.414 C 58.292 7.246,57.823 7.038,57.708 6.951 C 57.594 6.864,57.500 6.848,57.500 6.917 C 57.500 6.985,57.378 6.940,57.229 6.816 C 57.042 6.661,56.267 6.571,54.709 6.526 L 52.458 6.460 52.558 17.022 M5.928 49.113 C 5.691 49.731,5.862 56.139,6.151 57.467 C 6.832 60.596,9.488 63.705,12.247 64.605 C 12.707 64.755,13.189 64.961,13.317 65.064 C 13.602 65.291,54.145 65.422,54.370 65.197 C 54.450 65.117,54.049 64.808,53.465 64.499 C 52.888 64.194,52.379 63.901,52.333 63.847 C 52.288 63.794,51.837 63.545,51.333 63.293 C 50.829 63.042,49.517 62.357,48.417 61.770 C 44.911 59.900,38.015 56.500,37.728 56.500 C 37.675 56.500,37.283 56.327,36.858 56.115 C 36.432 55.904,35.596 55.554,35.000 55.338 C 34.404 55.122,33.842 54.893,33.750 54.828 C 33.658 54.764,33.171 54.579,32.667 54.419 C 32.162 54.258,31.525 54.026,31.250 53.902 C 30.508 53.569,26.887 52.409,25.833 52.167 C 25.329 52.051,24.842 51.897,24.750 51.826 C 24.658 51.754,23.758 51.524,22.750 51.315 C 21.742 51.106,20.879 50.893,20.833 50.842 C 20.734 50.732,20.768 50.740,18.711 50.398 C 17.816 50.250,16.971 50.089,16.833 50.041 C 16.696 49.993,16.471 49.935,16.333 49.912 C 16.196 49.889,15.821 49.827,15.500 49.773 C 14.304 49.575,12.183 49.343,10.000 49.171 C 8.762 49.074,7.365 48.955,6.895 48.908 C 6.185 48.836,6.021 48.871,5.928 49.113 " stroke="none" fill="#3c9c64" fill-rule="evenodd"></path><path id="path1" d="M302.599 11.975 C 302.551 12.053,301.947 12.165,301.257 12.223 C 299.989 12.330,297.820 12.797,297.667 12.996 C 297.621 13.056,297.115 13.278,296.542 13.489 C 295.969 13.701,295.500 13.926,295.500 13.989 C 295.500 14.053,295.225 14.236,294.890 14.396 C 294.050 14.796,292.575 16.082,291.805 17.083 C 291.452 17.542,291.096 18.000,291.014 18.102 C 290.769 18.403,290.167 19.638,290.167 19.839 C 290.167 19.940,290.063 20.127,289.937 20.253 C 289.013 21.178,289.081 30.333,290.012 30.333 C 290.083 30.333,290.223 30.581,290.323 30.884 C 290.786 32.289,293.020 34.829,294.457 35.586 C 294.802 35.768,295.176 36.003,295.289 36.110 C 295.402 36.216,295.852 36.438,296.289 36.601 C 296.726 36.765,297.121 36.949,297.167 37.008 C 297.212 37.068,297.775 37.288,298.417 37.497 C 299.058 37.707,299.661 37.939,299.756 38.013 C 299.851 38.087,300.526 38.311,301.256 38.509 C 301.986 38.708,302.658 38.929,302.750 39.001 C 302.842 39.072,303.517 39.298,304.250 39.501 C 304.983 39.705,305.621 39.927,305.667 39.995 C 305.712 40.062,306.125 40.243,306.583 40.396 C 313.463 42.699,312.849 51.484,305.667 53.523 C 303.998 53.996,298.787 53.640,298.334 53.022 C 298.288 52.959,297.942 52.772,297.566 52.606 C 296.748 52.246,294.829 50.468,294.437 49.708 C 294.284 49.410,294.101 49.167,294.032 49.167 C 293.963 49.167,293.821 48.942,293.718 48.667 C 293.444 47.942,292.578 48.145,291.427 49.203 C 291.249 49.366,291.020 49.500,290.917 49.500 C 290.814 49.500,290.584 49.634,290.406 49.797 C 290.229 49.960,289.783 50.277,289.417 50.500 C 289.050 50.723,288.605 51.040,288.427 51.203 C 288.249 51.366,288.010 51.500,287.895 51.500 C 287.381 51.500,287.490 52.104,288.138 52.844 C 288.291 53.019,288.604 53.402,288.833 53.694 C 290.082 55.287,292.004 56.879,293.777 57.789 C 294.342 58.079,295.242 58.441,295.777 58.595 C 296.312 58.748,296.830 58.937,296.927 59.015 C 297.982 59.855,307.886 59.863,308.498 59.024 C 308.545 58.960,309.012 58.775,309.537 58.614 C 310.061 58.452,310.587 58.229,310.706 58.118 C 310.825 58.007,311.221 57.769,311.586 57.589 C 312.442 57.167,312.517 57.107,314.000 55.665 C 315.505 54.201,315.952 53.513,317.084 50.917 C 317.985 48.849,317.796 43.178,316.757 41.083 C 316.530 40.625,316.341 40.169,316.339 40.071 C 316.336 39.972,316.146 39.715,315.917 39.500 C 315.688 39.285,315.500 39.031,315.500 38.936 C 315.500 38.398,312.077 35.716,310.890 35.324 C 310.584 35.223,310.333 35.085,310.333 35.016 C 310.333 34.948,309.752 34.712,309.042 34.491 C 308.331 34.271,307.727 34.039,307.699 33.977 C 307.672 33.914,306.922 33.693,306.033 33.484 C 305.144 33.275,304.379 33.055,304.333 32.995 C 304.287 32.936,303.725 32.750,303.083 32.583 C 302.442 32.416,301.729 32.180,301.500 32.059 C 301.271 31.937,300.652 31.681,300.125 31.490 C 299.598 31.299,299.167 31.090,299.167 31.026 C 299.167 30.962,298.887 30.761,298.545 30.580 C 296.206 29.340,295.076 26.823,295.503 23.809 C 295.877 21.177,298.154 18.874,300.917 18.333 C 301.467 18.226,302.047 18.069,302.206 17.986 C 302.570 17.794,305.545 17.784,305.758 17.974 C 305.845 18.051,306.341 18.205,306.859 18.315 C 308.366 18.637,310.362 20.126,311.523 21.792 C 312.120 22.650,312.244 22.659,313.216 21.917 C 313.636 21.596,314.056 21.333,314.148 21.333 C 314.241 21.333,314.377 21.235,314.450 21.116 C 314.523 20.996,314.865 20.728,315.208 20.519 C 315.552 20.310,315.833 20.088,315.833 20.024 C 315.833 19.961,316.109 19.761,316.446 19.580 C 317.100 19.228,317.500 18.888,317.500 18.685 C 317.500 18.487,315.219 15.838,314.709 15.444 C 314.457 15.249,314.111 14.962,313.941 14.807 C 313.771 14.653,313.415 14.436,313.149 14.326 C 312.884 14.216,312.667 14.069,312.667 14.000 C 312.667 13.931,312.198 13.701,311.625 13.489 C 311.052 13.278,310.546 13.054,310.500 12.991 C 310.349 12.787,308.260 12.337,306.945 12.226 C 306.236 12.166,305.616 12.053,305.568 11.975 C 305.520 11.897,304.852 11.833,304.083 11.833 C 303.315 11.833,302.647 11.897,302.599 11.975 M73.167 13.301 C 73.167 13.537,73.882 15.580,73.995 15.667 C 74.054 15.713,74.278 16.313,74.491 17.000 C 74.704 17.688,74.932 18.287,74.998 18.333 C 75.064 18.379,75.289 18.942,75.500 19.583 C 75.711 20.225,75.932 20.787,75.993 20.833 C 76.054 20.879,76.278 21.479,76.491 22.167 C 76.704 22.854,76.928 23.454,76.988 23.500 C 77.048 23.546,77.202 23.921,77.330 24.333 C 77.458 24.746,77.727 25.458,77.927 25.917 C 78.127 26.375,78.424 27.162,78.587 27.667 C 78.749 28.171,78.932 28.621,78.993 28.667 C 79.054 28.712,79.278 29.313,79.491 30.000 C 79.704 30.688,79.932 31.287,79.998 31.333 C 80.064 31.379,80.289 31.942,80.500 32.583 C 80.711 33.225,80.932 33.787,80.993 33.833 C 81.054 33.879,81.278 34.479,81.491 35.167 C 81.704 35.854,81.928 36.454,81.988 36.500 C 82.048 36.546,82.202 36.921,82.330 37.333 C 82.458 37.746,82.727 38.458,82.927 38.917 C 83.127 39.375,83.424 40.162,83.587 40.667 C 83.749 41.171,83.930 41.621,83.989 41.667 C 84.047 41.712,84.277 42.313,84.500 43.000 C 84.723 43.688,84.953 44.288,85.011 44.333 C 85.069 44.379,85.289 44.942,85.500 45.583 C 85.711 46.225,85.931 46.788,85.989 46.833 C 86.047 46.879,86.277 47.479,86.500 48.167 C 86.723 48.854,86.953 49.454,87.011 49.500 C 87.069 49.546,87.285 50.108,87.490 50.750 C 87.695 51.392,87.922 51.992,87.993 52.083 C 88.064 52.175,88.293 52.775,88.503 53.417 C 88.712 54.058,88.931 54.621,88.989 54.667 C 89.047 54.712,89.277 55.313,89.500 56.000 C 89.723 56.688,89.953 57.288,90.012 57.333 C 90.070 57.379,90.210 57.698,90.322 58.042 L 90.526 58.667 93.583 58.667 L 96.640 58.667 96.750 58.167 C 96.810 57.892,96.915 57.667,96.983 57.667 C 97.050 57.667,97.240 57.235,97.405 56.708 C 97.569 56.181,97.877 55.375,98.088 54.917 C 98.300 54.458,98.569 53.746,98.686 53.333 C 98.804 52.921,98.949 52.546,99.009 52.500 C 99.069 52.454,99.285 51.929,99.490 51.333 C 99.694 50.737,99.920 50.175,99.992 50.083 C 100.064 49.992,100.293 49.392,100.503 48.750 C 100.712 48.108,100.931 47.546,100.989 47.500 C 101.047 47.454,101.277 46.854,101.500 46.167 C 101.723 45.479,101.962 44.876,102.032 44.826 C 102.102 44.776,102.311 44.258,102.497 43.675 C 102.684 43.091,102.901 42.532,102.979 42.432 C 103.058 42.332,103.293 41.725,103.503 41.083 C 103.712 40.442,103.936 39.879,104.000 39.833 C 104.064 39.787,104.289 39.225,104.500 38.583 C 104.711 37.942,104.937 37.379,105.003 37.333 C 105.070 37.287,105.301 36.688,105.518 36.000 C 105.734 35.313,105.967 34.709,106.035 34.659 C 106.103 34.609,106.311 34.091,106.497 33.508 C 106.684 32.925,106.901 32.365,106.979 32.265 C 107.058 32.165,107.293 31.558,107.503 30.917 C 107.712 30.275,107.936 29.712,108.000 29.667 C 108.064 29.621,108.290 29.058,108.501 28.417 C 108.712 27.775,108.977 27.100,109.090 26.917 C 109.203 26.733,109.426 26.171,109.587 25.667 C 109.747 25.162,109.933 24.675,110.000 24.583 C 110.067 24.492,110.289 23.929,110.492 23.333 C 110.695 22.738,110.920 22.175,110.992 22.083 C 111.064 21.992,111.293 21.392,111.503 20.750 C 111.712 20.108,111.937 19.546,112.003 19.500 C 112.070 19.454,112.301 18.854,112.518 18.167 C 112.734 17.479,112.967 16.876,113.035 16.826 C 113.103 16.776,113.303 16.289,113.480 15.743 C 113.656 15.197,113.920 14.525,114.066 14.250 C 114.652 13.146,114.714 13.167,110.837 13.167 L 107.342 13.167 107.021 13.875 C 106.845 14.265,106.582 14.987,106.436 15.480 C 106.291 15.973,106.105 16.460,106.022 16.563 C 105.940 16.666,105.696 17.313,105.480 18.000 C 105.265 18.688,105.042 19.287,104.986 19.333 C 104.929 19.379,104.712 19.942,104.503 20.583 C 104.293 21.225,104.067 21.825,104.000 21.917 C 103.932 22.008,103.706 22.646,103.498 23.333 C 103.289 24.021,103.064 24.621,102.998 24.667 C 102.933 24.712,102.704 25.313,102.491 26.000 C 102.278 26.688,102.051 27.287,101.987 27.333 C 101.923 27.379,101.711 27.936,101.515 28.570 C 101.320 29.205,101.096 29.805,101.018 29.904 C 100.941 30.003,100.706 30.646,100.498 31.333 C 100.289 32.021,100.064 32.621,99.998 32.667 C 99.933 32.712,99.704 33.313,99.491 34.000 C 99.278 34.688,99.050 35.287,98.986 35.333 C 98.921 35.379,98.698 35.979,98.491 36.667 C 98.283 37.354,98.024 38.067,97.914 38.250 C 97.804 38.433,97.580 39.033,97.415 39.583 C 97.250 40.133,97.062 40.621,96.997 40.667 C 96.932 40.712,96.704 41.313,96.491 42.000 C 96.278 42.688,96.050 43.288,95.986 43.333 C 95.921 43.379,95.698 43.979,95.491 44.667 C 95.283 45.354,95.025 46.067,94.916 46.250 C 94.807 46.433,94.582 47.052,94.416 47.625 C 94.250 48.198,94.051 48.667,93.974 48.667 C 93.896 48.667,93.833 48.817,93.833 49.000 C 93.833 49.534,93.547 49.384,93.434 48.792 C 93.378 48.494,93.221 48.038,93.086 47.779 C 92.950 47.520,92.681 46.770,92.486 46.112 C 92.291 45.455,92.061 44.830,91.975 44.724 C 91.889 44.618,91.675 44.030,91.500 43.417 C 91.325 42.803,91.112 42.215,91.028 42.109 C 90.945 42.003,90.705 41.335,90.497 40.625 C 90.289 39.915,90.054 39.333,89.976 39.333 C 89.897 39.333,89.833 39.242,89.833 39.130 C 89.833 38.847,89.126 36.602,89.005 36.500 C 88.950 36.454,88.723 35.817,88.500 35.083 C 88.277 34.350,88.046 33.712,87.988 33.667 C 87.930 33.621,87.711 33.021,87.502 32.333 C 87.294 31.646,87.065 31.008,86.994 30.917 C 86.924 30.825,86.697 30.188,86.490 29.500 C 86.284 28.813,86.066 28.212,86.006 28.167 C 85.946 28.121,85.723 27.521,85.511 26.833 C 85.299 26.146,85.068 25.508,84.997 25.417 C 84.926 25.325,84.703 24.693,84.501 24.011 C 84.299 23.330,84.039 22.617,83.921 22.428 C 83.804 22.238,83.619 21.708,83.510 21.250 C 83.401 20.792,83.216 20.267,83.099 20.083 C 82.982 19.900,82.717 19.188,82.509 18.500 C 82.302 17.813,82.083 17.212,82.022 17.167 C 81.961 17.121,81.738 16.484,81.526 15.752 C 81.314 15.020,81.081 14.382,81.008 14.335 C 80.935 14.288,80.822 14.006,80.758 13.708 L 80.640 13.167 76.903 13.167 C 74.848 13.167,73.167 13.227,73.167 13.301 M118.167 35.917 L 118.167 58.667 133.417 58.667 L 148.667 58.667 148.667 55.583 L 148.667 52.500 136.583 52.500 L 124.500 52.500 124.500 45.500 L 124.500 38.500 135.167 38.500 L 145.833 38.500 145.833 35.417 L 145.833 32.333 135.167 32.333 L 124.500 32.333 124.500 25.833 L 124.500 19.333 136.000 19.333 L 147.500 19.333 147.500 16.250 L 147.500 13.167 132.833 13.167 L 118.167 13.167 118.167 35.917 M154.333 35.917 L 154.333 58.667 157.583 58.667 L 160.833 58.667 160.833 40.417 C 160.833 30.379,160.895 22.167,160.969 22.167 C 161.044 22.167,161.282 22.485,161.498 22.875 C 161.714 23.265,161.990 23.643,162.112 23.717 C 162.234 23.790,162.333 23.919,162.333 24.003 C 162.333 24.146,162.685 24.680,164.832 27.794 C 165.291 28.461,165.667 29.054,165.667 29.114 C 165.667 29.173,165.780 29.341,165.918 29.486 C 166.056 29.631,166.562 30.350,167.043 31.083 C 167.523 31.817,167.974 32.492,168.045 32.583 C 168.346 32.976,169.009 33.972,169.432 34.667 C 169.682 35.079,169.936 35.454,169.994 35.500 C 170.053 35.546,170.272 35.865,170.481 36.208 C 170.690 36.552,170.929 36.833,171.014 36.833 C 171.098 36.833,171.167 36.910,171.167 37.003 C 171.167 37.097,171.373 37.484,171.625 37.864 C 171.877 38.243,172.220 38.785,172.388 39.069 C 172.555 39.352,172.780 39.659,172.888 39.750 C 172.995 39.842,173.227 40.180,173.403 40.500 C 173.579 40.821,173.897 41.295,174.111 41.554 C 174.325 41.814,174.500 42.081,174.500 42.148 C 174.500 42.215,174.634 42.416,174.797 42.594 C 174.960 42.771,175.277 43.217,175.500 43.583 C 175.723 43.950,176.040 44.395,176.203 44.573 C 176.366 44.751,176.500 44.980,176.500 45.083 C 176.500 45.186,176.634 45.416,176.797 45.594 C 176.960 45.771,177.275 46.217,177.497 46.583 C 177.718 46.950,177.951 47.288,178.014 47.333 C 178.077 47.379,178.269 47.652,178.440 47.940 C 178.610 48.228,178.994 48.813,179.292 49.240 C 179.590 49.667,179.833 50.088,179.833 50.175 C 179.833 50.262,179.907 50.333,179.997 50.333 C 180.086 50.333,180.313 50.633,180.500 51.000 C 180.687 51.367,180.914 51.667,181.003 51.667 C 181.093 51.667,181.167 51.745,181.167 51.841 C 181.167 51.998,182.286 53.759,182.910 54.583 C 183.049 54.767,183.551 55.517,184.027 56.250 C 184.502 56.983,184.936 57.621,184.991 57.667 C 185.046 57.712,185.222 57.956,185.383 58.208 L 185.674 58.667 189.671 58.667 L 193.667 58.667 193.667 35.917 L 193.667 13.167 190.500 13.167 L 187.333 13.167 187.333 31.427 C 187.333 42.728,187.274 49.650,187.177 49.590 C 187.038 49.504,185.677 47.536,185.250 46.804 C 185.158 46.647,184.690 45.949,184.208 45.254 C 183.727 44.559,183.333 43.942,183.333 43.884 C 183.333 43.826,183.221 43.659,183.084 43.514 C 182.761 43.171,181.333 41.030,181.333 40.887 C 181.333 40.827,181.221 40.659,181.084 40.514 C 180.761 40.171,179.333 38.030,179.333 37.887 C 179.333 37.827,179.221 37.659,179.084 37.514 C 178.761 37.171,177.333 35.030,177.333 34.887 C 177.333 34.827,177.221 34.659,177.084 34.514 C 176.761 34.171,175.333 32.030,175.333 31.887 C 175.333 31.827,175.221 31.659,175.084 31.514 C 174.761 31.171,173.333 29.030,173.333 28.887 C 173.333 28.827,173.220 28.659,173.082 28.514 C 172.944 28.369,172.438 27.650,171.957 26.917 C 171.477 26.183,171.027 25.508,170.959 25.417 C 170.890 25.325,170.441 24.650,169.960 23.917 C 169.480 23.183,169.040 22.546,168.983 22.500 C 168.926 22.454,168.753 22.192,168.597 21.917 C 168.442 21.642,168.058 21.042,167.743 20.583 C 167.429 20.125,167.097 19.637,167.005 19.500 C 166.913 19.362,166.655 18.987,166.432 18.667 C 166.208 18.346,165.819 17.746,165.568 17.333 C 165.318 16.921,165.067 16.546,165.013 16.500 C 164.958 16.454,164.518 15.817,164.034 15.083 C 163.551 14.350,163.066 13.619,162.958 13.458 C 162.778 13.193,162.373 13.167,158.547 13.167 L 154.333 13.167 154.333 35.917 M201.333 35.917 L 201.333 58.697 210.708 58.619 C 219.475 58.545,222.545 58.393,222.833 58.018 C 222.879 57.958,223.547 57.779,224.317 57.621 C 225.087 57.462,225.949 57.213,226.233 57.067 C 226.517 56.921,227.159 56.657,227.658 56.481 C 228.158 56.306,228.608 56.107,228.658 56.039 C 228.709 55.972,229.111 55.747,229.551 55.539 C 229.992 55.331,230.442 55.089,230.551 55.000 C 230.661 54.911,231.275 54.488,231.917 54.061 C 233.208 53.199,233.482 52.972,234.727 51.727 C 236.078 50.376,237.667 48.380,237.667 48.033 C 237.667 47.930,237.802 47.712,237.967 47.548 C 238.132 47.384,238.411 46.913,238.587 46.500 C 238.763 46.087,238.964 45.709,239.033 45.659 C 239.102 45.609,239.312 45.084,239.500 44.493 C 239.687 43.901,239.945 43.192,240.073 42.917 C 240.200 42.642,240.432 41.592,240.588 40.583 C 240.744 39.575,240.938 38.620,241.019 38.461 C 241.208 38.089,241.213 33.548,241.024 33.432 C 240.946 33.383,240.832 32.801,240.770 32.137 C 240.651 30.859,240.266 28.972,240.011 28.417 C 239.926 28.233,239.691 27.558,239.487 26.917 C 239.284 26.275,239.071 25.712,239.015 25.667 C 238.959 25.621,238.727 25.171,238.500 24.667 C 238.273 24.162,238.040 23.712,237.982 23.667 C 237.925 23.621,237.717 23.265,237.519 22.875 C 237.321 22.485,237.103 22.167,237.035 22.167 C 236.966 22.167,236.769 21.906,236.597 21.587 C 236.209 20.866,233.620 18.241,232.643 17.577 C 232.244 17.306,231.828 17.000,231.719 16.898 C 231.611 16.796,230.786 16.359,229.886 15.927 C 228.986 15.496,228.063 15.045,227.833 14.925 C 227.604 14.805,226.854 14.567,226.167 14.397 C 225.479 14.226,224.878 14.035,224.832 13.973 C 224.456 13.473,221.075 13.283,211.292 13.211 L 201.333 13.138 201.333 35.917 M260.225 13.667 C 260.170 13.942,260.065 14.167,259.992 14.167 C 259.919 14.167,259.768 14.448,259.656 14.792 C 259.543 15.135,259.205 15.946,258.904 16.594 C 258.602 17.241,258.305 17.972,258.243 18.219 C 258.181 18.465,258.076 18.667,258.009 18.667 C 257.942 18.667,257.785 18.985,257.661 19.375 C 257.536 19.765,257.230 20.496,256.980 21.000 C 256.729 21.504,256.426 22.235,256.305 22.625 C 256.184 23.015,256.035 23.333,255.973 23.333 C 255.911 23.333,255.731 23.722,255.573 24.197 C 255.416 24.671,255.072 25.492,254.810 26.021 C 254.548 26.549,254.333 27.042,254.333 27.117 C 254.333 27.192,254.159 27.590,253.947 28.001 C 253.734 28.413,253.460 29.069,253.337 29.458 C 253.214 29.848,253.066 30.167,253.009 30.167 C 252.952 30.167,252.723 30.692,252.500 31.333 C 252.277 31.975,252.042 32.500,251.978 32.500 C 251.913 32.500,251.729 32.894,251.570 33.375 C 251.410 33.856,251.115 34.559,250.915 34.936 C 250.714 35.314,250.447 35.970,250.322 36.395 C 250.196 36.819,250.044 37.167,249.984 37.167 C 249.923 37.167,249.701 37.635,249.489 38.208 C 249.278 38.781,249.057 39.287,249.000 39.333 C 248.943 39.379,248.718 39.904,248.500 40.500 C 248.282 41.096,248.055 41.621,247.994 41.667 C 247.933 41.712,247.716 42.199,247.512 42.748 C 247.308 43.297,247.073 43.828,246.990 43.929 C 246.906 44.030,246.733 44.408,246.606 44.770 C 246.478 45.132,246.140 45.928,245.853 46.540 C 245.567 47.152,245.333 47.763,245.333 47.898 C 245.333 48.033,245.236 48.242,245.117 48.363 C 244.998 48.484,244.722 49.071,244.503 49.667 C 244.284 50.262,244.053 50.788,243.991 50.833 C 243.929 50.879,243.702 51.404,243.487 52.000 C 243.273 52.596,243.000 53.182,242.882 53.304 C 242.764 53.425,242.667 53.627,242.667 53.752 C 242.667 53.878,242.367 54.618,242.000 55.397 C 241.633 56.176,241.333 56.925,241.333 57.061 C 241.333 57.198,241.225 57.418,241.092 57.551 C 240.959 57.684,240.800 57.990,240.740 58.230 L 240.631 58.667 243.986 58.667 L 247.340 58.667 247.524 58.208 C 247.625 57.956,247.882 57.375,248.096 56.917 C 248.309 56.458,248.581 55.765,248.699 55.375 C 248.818 54.985,248.965 54.667,249.027 54.667 C 249.089 54.667,249.267 54.273,249.422 53.792 C 249.577 53.310,249.797 52.767,249.910 52.583 C 250.023 52.400,250.271 51.837,250.463 51.333 C 250.654 50.829,250.957 50.117,251.137 49.750 C 251.317 49.383,251.559 48.765,251.675 48.375 C 251.791 47.985,251.949 47.667,252.026 47.667 C 252.104 47.667,252.167 47.554,252.167 47.417 C 252.167 47.197,253.471 47.167,262.903 47.167 L 273.640 47.167 273.750 47.667 C 273.810 47.942,273.915 48.167,273.983 48.167 C 274.050 48.167,274.239 48.598,274.402 49.125 C 274.565 49.652,274.790 50.233,274.901 50.417 C 275.013 50.600,275.277 51.237,275.489 51.833 C 275.700 52.429,275.933 52.992,276.006 53.083 C 276.079 53.175,276.306 53.737,276.510 54.333 C 276.715 54.929,276.935 55.454,277.000 55.500 C 277.064 55.546,277.284 56.090,277.489 56.708 C 277.693 57.327,277.924 57.833,278.002 57.833 C 278.080 57.833,278.167 58.002,278.197 58.208 C 278.272 58.741,285.167 58.901,285.167 58.370 C 285.167 58.203,285.103 57.995,285.026 57.908 C 284.948 57.821,284.709 57.262,284.495 56.667 C 284.280 56.071,284.057 55.546,284.000 55.500 C 283.943 55.454,283.718 54.929,283.500 54.333 C 283.282 53.737,283.058 53.212,283.001 53.167 C 282.945 53.121,282.724 52.596,282.512 52.000 C 282.300 51.404,282.067 50.842,281.994 50.750 C 281.921 50.658,281.694 50.096,281.490 49.500 C 281.285 48.904,281.068 48.379,281.008 48.333 C 280.947 48.288,280.724 47.762,280.512 47.167 C 280.300 46.571,280.066 46.007,279.992 45.915 C 279.919 45.822,279.693 45.297,279.490 44.748 C 279.288 44.199,279.057 43.667,278.977 43.565 C 278.897 43.464,278.689 42.976,278.514 42.482 C 278.339 41.988,278.039 41.268,277.848 40.883 C 277.657 40.498,277.500 40.085,277.499 39.966 C 277.499 39.847,277.364 39.525,277.199 39.250 C 277.034 38.975,276.725 38.262,276.511 37.667 C 276.297 37.071,276.068 36.546,276.002 36.500 C 275.937 36.454,275.715 35.930,275.511 35.335 C 275.307 34.740,275.088 34.215,275.025 34.168 C 274.962 34.121,274.730 33.558,274.510 32.917 C 274.289 32.275,274.061 31.712,274.002 31.667 C 273.944 31.621,273.718 31.096,273.500 30.500 C 273.282 29.904,273.054 29.379,272.993 29.333 C 272.932 29.287,272.787 28.950,272.671 28.583 C 272.555 28.217,272.295 27.579,272.093 27.167 C 271.892 26.754,271.582 26.004,271.406 25.500 C 271.230 24.996,271.035 24.545,270.973 24.499 C 270.911 24.452,270.693 23.927,270.489 23.332 C 270.285 22.737,270.068 22.212,270.008 22.167 C 269.947 22.121,269.724 21.596,269.512 21.000 C 269.300 20.404,269.060 19.834,268.979 19.732 C 268.898 19.630,268.682 19.113,268.500 18.583 C 268.318 18.053,268.103 17.536,268.023 17.435 C 267.943 17.333,267.712 16.801,267.510 16.252 C 267.307 15.703,267.079 15.178,267.003 15.085 C 266.927 14.993,266.737 14.523,266.580 14.042 L 266.295 13.167 263.310 13.167 L 260.325 13.167 260.225 13.667 M319.500 16.000 L 319.500 18.833 326.917 18.833 L 334.333 18.833 334.333 38.750 L 334.333 58.667 337.417 58.667 L 340.500 58.667 340.500 38.750 L 340.500 18.833 347.917 18.833 L 355.333 18.833 355.333 16.000 L 355.333 13.167 337.417 13.167 L 319.500 13.167 319.500 16.000 M369.167 13.417 C 369.167 13.554,369.106 13.667,369.033 13.667 C 368.959 13.667,368.762 14.060,368.593 14.542 C 368.425 15.023,368.158 15.642,368.000 15.917 C 367.842 16.192,367.572 16.829,367.399 17.333 C 367.227 17.837,367.030 18.291,366.962 18.342 C 366.894 18.392,366.686 18.876,366.500 19.417 C 366.314 19.958,366.102 20.441,366.029 20.492 C 365.955 20.542,365.718 21.071,365.500 21.667 C 365.282 22.262,365.053 22.787,364.991 22.833 C 364.929 22.879,364.702 23.404,364.487 24.000 C 364.273 24.596,364.000 25.182,363.882 25.304 C 363.764 25.425,363.667 25.627,363.667 25.752 C 363.667 25.878,363.367 26.618,363.000 27.397 C 362.633 28.176,362.333 28.925,362.333 29.061 C 362.333 29.198,362.232 29.411,362.108 29.534 C 361.985 29.658,361.789 30.057,361.673 30.421 C 361.557 30.785,361.257 31.496,361.006 32.000 C 360.756 32.504,360.453 33.215,360.333 33.579 C 360.214 33.943,360.015 34.342,359.892 34.466 C 359.768 34.589,359.667 34.801,359.667 34.936 C 359.667 35.071,359.415 35.722,359.107 36.383 C 358.800 37.043,358.457 37.864,358.345 38.206 C 358.234 38.548,358.078 38.868,358.000 38.917 C 357.922 38.965,357.766 39.285,357.655 39.627 C 357.543 39.970,357.205 40.780,356.904 41.427 C 356.602 42.075,356.305 42.806,356.243 43.052 C 356.181 43.298,356.072 43.500,356.000 43.500 C 355.928 43.500,355.819 43.702,355.757 43.948 C 355.695 44.194,355.394 44.931,355.088 45.585 C 354.782 46.239,354.437 47.088,354.322 47.470 C 354.208 47.853,354.057 48.167,353.987 48.167 C 353.916 48.167,353.768 48.448,353.656 48.792 C 353.543 49.135,353.205 49.946,352.904 50.594 C 352.602 51.241,352.305 51.972,352.243 52.219 C 352.181 52.465,352.076 52.667,352.009 52.667 C 351.942 52.667,351.785 52.985,351.661 53.375 C 351.536 53.765,351.231 54.496,350.983 55.000 C 350.734 55.504,350.437 56.235,350.322 56.625 C 350.208 57.015,350.058 57.333,349.990 57.333 C 349.870 57.333,349.500 58.235,349.500 58.528 C 349.500 58.608,351.018 58.653,352.873 58.628 L 356.246 58.583 356.571 57.667 C 356.749 57.163,356.943 56.712,357.000 56.667 C 357.057 56.621,357.282 56.096,357.500 55.500 C 357.718 54.904,357.944 54.379,358.002 54.333 C 358.061 54.288,358.289 53.725,358.510 53.083 C 358.730 52.442,358.966 51.876,359.034 51.827 C 359.101 51.777,359.273 51.408,359.415 51.006 C 359.557 50.604,359.820 49.969,360.001 49.596 C 360.181 49.222,360.463 48.542,360.628 48.083 L 360.927 47.250 371.692 47.207 L 382.456 47.164 382.666 47.915 C 382.782 48.329,382.928 48.667,382.991 48.667 C 383.054 48.667,383.239 49.098,383.402 49.625 C 383.565 50.152,383.790 50.733,383.902 50.917 C 384.014 51.100,384.284 51.737,384.501 52.333 C 384.718 52.929,384.938 53.454,384.991 53.500 C 385.043 53.546,385.226 53.996,385.398 54.500 C 385.569 55.004,385.798 55.567,385.907 55.750 C 386.015 55.933,386.277 56.571,386.489 57.167 C 387.059 58.772,386.776 58.667,390.520 58.667 C 393.701 58.667,393.833 58.654,393.833 58.340 C 393.833 57.989,393.209 56.195,392.990 55.915 C 392.918 55.822,392.693 55.297,392.490 54.748 C 392.288 54.199,392.057 53.667,391.977 53.565 C 391.897 53.464,391.682 52.947,391.500 52.417 C 391.318 51.887,391.103 51.370,391.022 51.268 C 390.941 51.166,390.706 50.596,390.500 50.000 C 390.294 49.404,390.059 48.834,389.978 48.732 C 389.897 48.630,389.682 48.113,389.500 47.583 C 389.318 47.053,389.103 46.536,389.023 46.435 C 388.943 46.333,388.712 45.801,388.510 45.252 C 388.307 44.703,388.090 44.216,388.026 44.169 C 387.962 44.122,387.730 43.558,387.510 42.917 C 387.289 42.275,387.058 41.712,386.996 41.667 C 386.934 41.621,386.715 41.096,386.511 40.501 C 386.307 39.906,386.089 39.381,386.027 39.335 C 385.965 39.288,385.774 38.837,385.602 38.333 C 385.431 37.829,385.190 37.253,385.066 37.053 C 384.942 36.854,384.678 36.216,384.479 35.637 C 384.280 35.057,384.060 34.545,383.989 34.499 C 383.918 34.452,383.693 33.927,383.489 33.332 C 383.285 32.737,383.068 32.212,383.008 32.167 C 382.947 32.121,382.724 31.596,382.512 31.000 C 382.300 30.404,382.060 29.834,381.979 29.732 C 381.898 29.630,381.689 29.143,381.514 28.649 C 381.339 28.154,381.039 27.435,380.848 27.050 C 380.657 26.665,380.500 26.273,380.500 26.180 C 380.500 26.086,380.275 25.567,380.000 25.026 C 379.725 24.485,379.500 23.954,379.500 23.846 C 379.500 23.739,379.343 23.335,379.152 22.950 C 378.961 22.565,378.661 21.846,378.486 21.351 C 378.311 20.857,378.103 20.370,378.023 20.268 C 377.943 20.166,377.712 19.634,377.510 19.085 C 377.307 18.536,377.085 18.011,377.015 17.919 C 376.945 17.826,376.711 17.262,376.496 16.667 C 376.281 16.071,376.053 15.546,375.991 15.500 C 375.929 15.454,375.708 14.910,375.500 14.292 L 375.122 13.167 372.144 13.167 C 369.609 13.167,369.167 13.204,369.167 13.417 M221.500 19.654 C 222.004 19.759,222.567 19.911,222.750 19.991 C 222.933 20.071,223.590 20.307,224.208 20.516 C 224.827 20.724,225.333 20.940,225.333 20.996 C 225.333 21.051,225.746 21.278,226.250 21.500 C 226.754 21.722,227.167 21.957,227.167 22.022 C 227.167 22.086,227.448 22.313,227.791 22.525 C 228.887 23.203,231.019 25.461,231.583 26.542 C 231.762 26.885,231.958 27.167,232.018 27.167 C 232.077 27.167,232.224 27.410,232.343 27.708 C 232.462 28.006,232.726 28.625,232.931 29.083 C 233.135 29.542,233.428 30.592,233.582 31.417 C 233.736 32.242,233.950 33.097,234.056 33.317 C 234.304 33.829,234.306 38.324,234.058 38.861 C 233.960 39.075,233.707 39.981,233.495 40.875 C 233.284 41.769,233.059 42.500,232.995 42.500 C 232.931 42.500,232.746 42.856,232.584 43.292 C 232.421 43.727,232.149 44.238,231.978 44.427 C 231.807 44.617,231.667 44.834,231.667 44.911 C 231.667 44.987,231.335 45.453,230.929 45.945 C 230.524 46.438,230.167 46.896,230.138 46.962 C 230.108 47.029,229.596 47.478,229.000 47.960 C 228.404 48.442,227.827 48.910,227.718 48.999 C 227.609 49.088,227.234 49.321,226.885 49.517 C 226.536 49.712,226.213 49.927,226.167 49.995 C 226.121 50.062,225.671 50.272,225.167 50.462 C 224.662 50.652,224.025 50.918,223.750 51.055 C 223.475 51.191,222.688 51.429,222.000 51.583 C 221.313 51.738,220.600 51.932,220.417 52.014 C 219.723 52.327,216.927 52.497,212.458 52.499 L 207.833 52.500 207.833 35.902 L 207.833 19.303 214.208 19.384 C 218.010 19.432,220.953 19.541,221.500 19.654 M372.505 23.000 C 372.713 23.596,372.976 24.233,373.089 24.417 C 373.203 24.600,373.428 25.162,373.589 25.667 C 373.750 26.171,373.932 26.621,373.992 26.667 C 374.053 26.712,374.276 27.238,374.488 27.833 C 374.700 28.429,374.933 28.992,375.006 29.083 C 375.079 29.175,375.306 29.738,375.510 30.333 C 375.715 30.929,375.935 31.454,376.000 31.500 C 376.065 31.546,376.285 32.070,376.489 32.665 C 376.693 33.260,376.913 33.785,376.978 33.832 C 377.042 33.879,377.274 34.460,377.492 35.125 C 377.711 35.790,377.940 36.333,378.002 36.333 C 378.063 36.333,378.207 36.652,378.321 37.042 C 378.434 37.431,378.702 38.125,378.915 38.583 C 379.128 39.042,379.454 39.848,379.639 40.375 L 379.975 41.333 371.742 41.333 L 363.508 41.333 363.658 40.958 C 363.740 40.752,363.956 40.283,364.136 39.917 C 364.317 39.550,364.559 38.931,364.675 38.542 C 364.791 38.152,364.939 37.833,365.004 37.833 C 365.069 37.833,365.292 37.327,365.500 36.708 C 365.708 36.090,365.929 35.546,365.991 35.500 C 366.053 35.454,366.282 34.929,366.500 34.333 C 366.718 33.737,366.948 33.212,367.011 33.167 C 367.075 33.121,367.249 32.723,367.398 32.282 C 367.548 31.841,367.884 31.016,368.145 30.448 C 368.407 29.881,368.670 29.210,368.730 28.958 C 368.790 28.706,368.913 28.500,369.003 28.500 C 369.093 28.500,369.167 28.390,369.167 28.256 C 369.167 28.008,369.398 27.428,370.098 25.917 C 370.310 25.458,370.581 24.765,370.699 24.375 C 370.818 23.985,370.965 23.667,371.027 23.667 C 371.089 23.667,371.268 23.273,371.425 22.792 C 371.897 21.346,371.931 21.352,372.505 23.000 M263.504 22.597 C 263.621 23.017,263.802 23.448,263.904 23.555 C 264.007 23.662,264.271 24.294,264.490 24.958 C 264.710 25.623,264.938 26.167,264.998 26.167 C 265.057 26.167,265.239 26.598,265.402 27.125 C 265.565 27.652,265.792 28.233,265.907 28.417 C 266.022 28.600,266.213 29.050,266.332 29.417 C 266.450 29.783,266.755 30.533,267.010 31.083 C 267.264 31.633,267.566 32.402,267.679 32.792 C 267.793 33.181,267.943 33.500,268.013 33.500 C 268.082 33.500,268.300 34.020,268.497 34.656 C 268.694 35.292,268.906 35.836,268.970 35.865 C 269.033 35.893,269.266 36.442,269.488 37.083 C 269.710 37.725,269.942 38.287,270.004 38.333 C 270.066 38.379,270.284 38.922,270.488 39.540 C 270.692 40.158,270.928 40.706,271.013 40.758 C 271.872 41.289,271.247 41.333,262.922 41.333 C 254.289 41.333,254.163 41.323,254.998 40.667 C 255.057 40.621,255.282 40.096,255.500 39.500 C 255.718 38.904,255.946 38.379,256.007 38.333 C 256.068 38.287,256.215 37.950,256.333 37.583 C 256.450 37.217,256.761 36.459,257.023 35.901 C 257.286 35.342,257.500 34.837,257.500 34.779 C 257.500 34.721,257.762 34.113,258.083 33.428 C 258.404 32.743,258.667 32.110,258.667 32.021 C 258.667 31.933,258.847 31.498,259.067 31.055 C 259.288 30.612,259.562 29.931,259.677 29.542 C 259.792 29.152,259.941 28.833,260.008 28.833 C 260.074 28.833,260.301 28.308,260.512 27.667 C 260.722 27.025,260.944 26.500,261.004 26.500 C 261.065 26.500,261.293 25.975,261.512 25.333 C 261.730 24.692,261.954 24.167,262.010 24.167 C 262.065 24.167,262.286 23.642,262.500 23.000 C 262.954 21.640,263.207 21.538,263.504 22.597 " stroke="none" fill="#242424" fill-rule="evenodd"></path><path id="path2" d="M8.133 10.042 C 7.564 10.745,7.120 11.418,7.447 11.083 C 7.810 10.711,8.868 9.333,8.790 9.333 C 8.744 9.333,8.449 9.652,8.133 10.042 M37.669 19.581 C 37.359 19.900,37.138 20.187,37.178 20.219 C 37.218 20.250,37.502 19.989,37.811 19.638 C 38.512 18.841,38.422 18.804,37.669 19.581 M32.833 24.446 L 32.417 24.872 32.875 24.583 C 33.127 24.425,33.333 24.229,33.333 24.147 C 33.333 23.946,33.308 23.961,32.833 24.446 M29.987 27.105 C 29.602 27.524,29.601 27.533,29.955 27.317 C 30.160 27.192,30.363 26.995,30.408 26.879 C 30.528 26.568,30.439 26.616,29.987 27.105 M28.571 28.376 L 28.083 28.915 28.583 28.499 C 28.858 28.271,29.115 28.065,29.153 28.042 C 29.191 28.019,29.186 27.963,29.141 27.918 C 29.096 27.874,28.840 28.080,28.571 28.376 M52.883 31.000 C 52.883 31.504,52.915 31.710,52.953 31.458 C 52.991 31.206,52.991 30.794,52.953 30.542 C 52.915 30.290,52.883 30.496,52.883 31.000 M7.461 48.954 C 7.761 48.991,8.211 48.990,8.461 48.952 C 8.712 48.914,8.467 48.884,7.917 48.885 C 7.367 48.886,7.162 48.917,7.461 48.954 M20.833 50.898 C 20.833 50.933,21.054 50.995,21.325 51.034 C 21.595 51.074,21.778 51.045,21.731 50.970 C 21.649 50.836,20.833 50.771,20.833 50.898 M24.753 51.838 C 24.794 51.905,25.015 51.996,25.242 52.039 C 25.470 52.083,25.622 52.063,25.581 51.996 C 25.539 51.928,25.319 51.838,25.091 51.794 C 24.863 51.750,24.711 51.770,24.753 51.838 " stroke="none" fill="#308068" fill-rule="evenodd"></path><path id="path3" d="" stroke="none" fill="#304048" fill-rule="evenodd"></path><path id="path4" d="" stroke="none" fill="#304424" fill-rule="evenodd"></path><path id="path5" d="" stroke="none" fill="#342424" fill-rule="evenodd"></path><path id="path6" d="" stroke="none" fill="#282424" fill-rule="evenodd"></path><path id="path7" d="" stroke="none" fill="#282424" fill-rule="evenodd"></path><path id="path8" d="" stroke="none" fill="#282424" fill-rule="evenodd"></path></g></svg>