<svg id="svg" version="1.1" xmlns="http://www.w3.org/2000/svg" xmlns:xlink="http://www.w3.org/1999/xlink" width="400" height="132.29813664596273" viewBox="0, 0, 400,132.29813664596273"><g id="svgg"><path id="path0" d="M273.576 11.043 C 273.354 11.622,273.588 85.593,273.814 86.083 C 273.940 86.358,274.297 87.132,274.606 87.802 C 276.349 91.581,279.005 93.792,282.750 94.582 C 284.592 94.970,316.749 94.952,318.323 94.562 C 322.560 93.512,325.769 90.394,327.135 86.000 C 327.689 84.219,327.898 47.278,327.369 44.750 C 326.930 42.656,326.675 42.063,325.376 40.125 C 323.726 37.663,321.215 35.838,318.556 35.167 C 317.313 34.854,316.636 34.838,304.458 34.836 L 291.667 34.833 291.667 40.833 L 291.667 46.833 301.375 46.835 C 311.656 46.837,311.717 46.841,313.270 47.635 C 314.053 48.035,314.841 48.877,315.172 49.667 C 315.588 50.659,315.533 79.173,315.114 80.048 C 314.685 80.943,313.913 81.772,313.019 82.298 L 312.250 82.750 300.618 82.796 C 287.724 82.847,288.572 82.914,287.196 81.736 C 286.826 81.420,286.366 80.905,286.173 80.593 C 285.296 79.175,285.333 80.772,285.333 44.492 L 285.333 10.833 279.495 10.833 C 274.965 10.833,273.638 10.880,273.576 11.043 M334.000 59.715 C 334.000 86.483,333.968 85.414,334.833 87.206 C 335.017 87.585,335.167 87.958,335.167 88.033 C 335.167 88.343,336.993 90.969,337.678 91.644 C 339.100 93.045,340.398 93.782,342.750 94.527 C 343.254 94.687,346.663 94.760,356.750 94.827 L 370.083 94.917 370.139 95.499 C 370.289 97.082,369.058 99.619,367.787 100.347 L 367.083 100.750 356.583 100.833 L 346.083 100.917 346.083 107.000 L 346.083 113.083 357.833 113.137 C 371.502 113.200,372.966 113.101,374.958 111.973 C 375.256 111.805,375.781 111.510,376.125 111.318 C 378.997 109.718,381.021 107.148,381.824 104.083 C 381.942 103.629,381.998 92.488,381.999 69.125 L 382.000 34.833 376.084 34.833 L 370.168 34.833 370.126 58.875 L 370.083 82.917 359.917 82.917 L 349.750 82.917 348.924 82.536 C 348.469 82.326,347.752 81.791,347.330 81.346 C 345.900 79.839,346.000 81.688,346.000 56.814 L 346.000 34.833 340.000 34.833 L 334.000 34.833 334.000 59.715 M44.750 60.307 C 43.630 60.992,43.462 61.681,43.530 65.333 C 43.614 69.907,43.710 70.000,48.374 70.000 C 53.265 70.000,53.333 69.931,53.333 65.000 C 53.333 60.072,53.262 60.000,48.391 60.001 C 45.638 60.001,45.188 60.039,44.750 60.307 " stroke="none" fill="#8dcc0c" fill-rule="evenodd"></path><path id="path1" d="M29.333 35.030 C 24.586 36.025,20.504 39.715,19.604 43.826 C 19.501 44.296,19.416 52.126,19.380 64.500 C 19.323 84.077,19.342 84.992,19.826 86.250 C 21.659 91.015,24.367 93.599,28.482 94.509 C 29.800 94.800,30.701 94.826,39.544 94.830 L 49.171 94.833 49.127 88.958 L 49.083 83.083 42.000 83.000 L 34.917 82.917 34.083 82.443 C 32.925 81.785,32.224 81.070,31.744 80.055 L 31.333 79.187 31.333 64.838 L 31.333 50.489 31.736 49.703 C 32.312 48.577,33.156 47.734,34.187 47.254 L 35.083 46.837 43.426 46.835 L 51.768 46.833 52.623 47.260 C 53.581 47.737,54.462 48.629,55.034 49.701 L 55.417 50.417 55.417 73.750 L 55.417 97.083 54.897 98.167 C 53.528 101.021,54.056 100.908,41.792 100.963 L 31.500 101.010 31.500 107.014 L 31.500 113.018 44.708 112.957 C 59.430 112.890,58.287 112.981,60.770 111.668 C 64.108 109.903,66.295 107.382,67.062 104.417 C 67.177 103.973,67.252 93.892,67.285 74.264 L 67.335 44.777 66.978 43.764 C 65.992 40.960,63.308 37.019,62.375 37.003 C 62.260 37.002,62.167 36.934,62.167 36.854 C 62.167 36.483,59.388 35.417,57.362 35.011 C 56.234 34.785,30.419 34.803,29.333 35.030 M84.000 35.000 C 83.771 35.073,83.371 35.141,83.112 35.150 C 80.395 35.246,75.765 39.308,74.356 42.833 L 73.922 43.917 73.873 69.375 L 73.823 94.833 79.745 94.833 L 85.667 94.833 85.667 73.067 C 85.667 49.167,85.620 50.305,86.663 48.865 C 87.980 47.046,88.717 46.833,93.688 46.833 L 97.667 46.833 97.667 40.833 L 97.667 34.833 91.042 34.850 C 87.398 34.859,84.229 34.927,84.000 35.000 M113.917 35.087 C 112.344 35.424,110.073 36.361,109.667 36.840 C 109.621 36.894,109.246 37.171,108.833 37.454 C 107.634 38.279,105.667 40.363,105.667 40.810 C 105.667 40.899,105.603 40.997,105.525 41.028 C 105.272 41.127,104.539 43.221,104.339 44.417 C 104.196 45.275,104.158 50.842,104.197 65.500 L 104.250 85.417 104.819 86.833 C 106.562 91.173,109.547 93.821,113.556 94.585 C 115.467 94.948,141.009 94.949,142.726 94.585 C 144.662 94.175,147.236 92.712,148.921 91.064 C 150.565 89.457,151.371 87.936,151.983 85.289 C 152.209 84.311,152.244 45.471,152.019 44.733 C 151.938 44.467,151.774 43.913,151.653 43.500 C 150.343 39.009,146.893 35.887,142.333 35.065 C 140.571 34.748,115.411 34.767,113.917 35.087 M158.500 59.814 L 158.500 84.795 158.936 86.106 C 160.200 89.910,162.766 92.878,165.750 93.990 C 167.972 94.818,168.278 94.833,182.504 94.833 C 197.078 94.833,197.248 94.823,199.153 93.852 C 200.413 93.210,201.399 92.651,201.500 92.521 C 201.546 92.463,201.883 92.192,202.250 91.919 C 204.417 90.307,205.604 88.373,206.316 85.289 C 206.446 84.730,206.500 77.150,206.500 59.664 L 206.500 34.833 200.588 34.833 L 194.676 34.833 194.630 57.042 L 194.583 79.250 194.105 80.083 C 193.429 81.261,192.730 81.944,191.669 82.465 L 190.750 82.917 182.417 82.917 C 172.797 82.917,173.243 82.988,171.594 81.197 C 170.443 79.946,170.520 81.661,170.509 57.042 L 170.500 34.833 164.500 34.833 L 158.500 34.833 158.500 59.814 M223.167 35.000 C 222.938 35.073,222.541 35.141,222.285 35.150 C 221.740 35.170,219.229 36.277,218.760 36.705 C 218.583 36.867,218.370 37.000,218.288 37.000 C 217.644 37.000,215.017 39.779,214.065 41.468 C 213.014 43.334,213.096 40.344,213.043 78.375 L 212.995 112.833 218.913 112.833 L 224.831 112.833 224.874 81.625 L 224.917 50.417 225.302 49.635 C 225.813 48.597,226.851 47.551,227.807 47.109 C 228.577 46.753,228.673 46.750,239.667 46.750 L 250.750 46.750 251.955 47.222 C 253.383 47.781,254.498 48.876,254.815 50.033 C 254.962 50.565,255.000 54.421,254.965 65.000 L 254.917 79.250 254.519 80.058 C 253.103 82.934,252.791 83.000,240.658 83.000 L 231.167 83.000 231.167 88.917 L 231.167 94.833 243.395 94.833 C 257.653 94.833,257.527 94.843,260.323 93.467 C 263.928 91.693,265.980 88.814,266.753 84.446 C 267.108 82.440,267.115 47.281,266.762 45.167 C 265.887 39.945,262.321 36.123,257.333 35.063 C 256.115 34.805,223.963 34.745,223.167 35.000 M137.423 47.260 C 138.417 47.731,139.277 48.629,139.866 49.811 L 140.250 50.583 140.250 64.833 L 140.250 79.083 139.787 80.027 C 139.253 81.113,138.293 82.049,137.187 82.560 C 136.065 83.079,120.161 83.121,119.129 82.608 C 118.099 82.096,117.047 81.046,116.551 80.036 L 116.083 79.083 116.083 64.833 L 116.083 50.583 116.451 49.786 C 116.937 48.735,118.256 47.446,119.182 47.119 C 119.807 46.898,121.152 46.858,128.219 46.846 L 136.521 46.833 137.423 47.260 " stroke="none" fill="#7c7c7c" fill-rule="evenodd"></path><path id="path2" d="M0.000 66.083 L 0.000 132.167 200.000 132.167 L 400.000 132.167 400.000 66.083 L 400.000 0.000 200.000 0.000 L 0.000 0.000 0.000 66.083 M285.667 44.917 L 285.750 79.250 286.217 80.083 C 286.828 81.173,287.353 81.705,288.292 82.188 L 289.060 82.583 300.322 82.583 C 311.677 82.583,313.000 82.520,313.000 81.973 C 313.000 81.896,313.100 81.833,313.223 81.833 C 313.475 81.833,314.500 80.767,314.500 80.504 C 314.500 80.410,314.557 80.333,314.626 80.333 C 315.156 80.333,315.526 50.409,315.000 50.083 C 314.908 50.027,314.833 49.844,314.833 49.677 C 314.833 49.262,313.637 48.062,312.928 47.765 C 311.158 47.026,310.754 47.000,300.945 46.997 C 295.796 46.996,291.489 46.935,291.373 46.861 C 291.208 46.757,291.172 45.419,291.206 40.739 L 291.250 34.750 304.583 34.702 C 317.672 34.654,318.209 34.670,319.583 35.156 C 321.678 35.895,325.044 38.491,325.412 39.652 C 325.473 39.843,325.584 40.000,325.658 40.000 C 325.733 40.000,325.837 40.131,325.890 40.292 C 325.942 40.452,326.215 40.958,326.496 41.417 C 326.778 41.875,327.033 42.325,327.064 42.417 C 327.923 44.975,327.917 44.802,327.917 64.750 C 327.917 85.970,327.959 85.212,326.599 88.167 C 325.181 91.245,322.354 93.647,318.917 94.693 C 317.712 95.060,283.519 95.177,282.345 94.818 C 282.018 94.718,281.487 94.560,281.167 94.468 C 280.325 94.224,278.833 93.486,278.833 93.314 C 278.833 93.233,278.731 93.167,278.606 93.167 C 277.419 93.167,274.393 88.740,273.356 85.488 C 273.146 84.829,273.070 10.818,273.280 10.609 C 273.342 10.547,276.136 10.516,279.488 10.540 L 285.583 10.583 285.667 44.917 M58.083 34.833 C 58.140 34.925,58.440 35.000,58.750 35.000 C 59.060 35.000,59.360 35.075,59.417 35.167 C 59.473 35.258,59.659 35.333,59.829 35.333 C 61.812 35.333,65.489 39.095,66.753 42.417 C 66.997 43.058,67.260 43.733,67.338 43.917 C 67.796 45.004,67.833 47.270,67.833 73.922 C 67.833 100.760,67.785 103.635,67.317 104.539 C 67.234 104.699,67.167 104.929,67.167 105.052 C 67.167 106.226,63.997 110.381,62.815 110.756 C 62.642 110.811,62.500 110.919,62.500 110.995 C 62.500 111.204,59.170 112.840,58.320 113.049 C 56.915 113.395,31.461 113.400,31.208 113.054 C 30.899 112.631,30.908 101.117,31.218 100.860 C 31.369 100.735,34.666 100.664,41.843 100.631 L 52.250 100.583 52.940 100.134 C 53.776 99.591,54.264 98.934,54.653 97.830 C 54.814 97.373,54.995 96.949,55.056 96.888 C 55.321 96.624,55.174 51.117,54.906 50.349 C 54.267 48.513,53.278 47.629,51.417 47.227 C 50.099 46.943,36.776 46.910,35.467 47.187 C 33.322 47.642,32.295 48.630,31.736 50.777 C 31.387 52.116,31.390 77.875,31.739 79.025 C 32.216 80.597,32.876 81.450,34.167 82.166 L 34.917 82.581 42.167 82.675 C 46.154 82.726,49.435 82.783,49.458 82.801 C 49.481 82.819,49.500 85.571,49.500 88.917 L 49.500 95.000 39.091 95.000 C 33.366 95.000,28.510 94.935,28.300 94.855 C 28.089 94.775,27.467 94.573,26.917 94.407 C 26.367 94.240,25.718 93.968,25.474 93.802 C 25.231 93.636,24.968 93.499,24.891 93.498 C 24.613 93.494,22.913 91.974,22.076 90.980 C 21.166 89.902,19.833 87.531,19.833 86.993 C 19.833 86.832,19.744 86.621,19.359 85.877 C 19.106 85.386,19.080 43.907,19.333 43.750 C 19.425 43.693,19.500 43.463,19.500 43.238 C 19.500 43.013,19.569 42.699,19.653 42.539 C 19.737 42.380,19.935 41.950,20.094 41.583 C 20.678 40.232,23.293 37.167,23.860 37.167 C 23.945 37.167,24.177 37.014,24.377 36.828 C 24.920 36.323,27.696 35.000,28.215 35.000 C 28.463 35.000,28.667 34.925,28.667 34.833 C 28.667 34.723,33.663 34.667,43.323 34.667 C 52.915 34.667,58.016 34.724,58.083 34.833 M97.917 40.833 L 97.917 46.917 93.917 47.014 C 91.717 47.068,89.687 47.190,89.407 47.285 C 87.961 47.777,87.244 48.389,86.524 49.750 L 86.083 50.583 86.036 72.792 L 85.990 95.000 79.744 95.000 L 73.498 95.000 73.556 69.708 C 73.610 45.837,73.654 43.297,74.018 43.072 C 74.100 43.022,74.167 42.848,74.167 42.686 C 74.167 41.631,76.199 38.821,77.923 37.492 C 79.433 36.329,81.927 35.000,82.601 35.000 C 82.810 35.000,83.027 34.924,83.084 34.832 C 83.153 34.721,85.726 34.678,90.553 34.707 L 97.917 34.750 97.917 40.833 M142.917 34.833 C 142.973 34.925,143.241 35.000,143.512 35.000 C 143.783 35.000,144.135 35.067,144.294 35.150 C 144.453 35.232,144.921 35.435,145.333 35.600 C 146.239 35.964,147.703 36.931,148.501 37.692 C 149.481 38.626,151.000 40.793,151.000 41.256 C 151.000 41.390,151.075 41.500,151.167 41.500 C 151.258 41.500,151.333 41.614,151.333 41.752 C 151.333 41.891,151.400 42.135,151.481 42.294 C 151.562 42.453,151.702 42.771,151.793 43.000 C 151.884 43.229,152.062 43.642,152.188 43.917 C 152.377 44.330,152.425 47.801,152.463 63.917 C 152.505 81.959,152.459 84.658,152.081 86.417 C 151.686 88.249,149.564 91.232,147.807 92.425 C 147.409 92.695,147.046 92.954,147.000 93.000 C 146.664 93.340,145.021 94.186,143.977 94.557 L 142.717 95.004 127.984 94.960 C 114.627 94.921,113.162 94.890,112.307 94.631 C 111.086 94.261,110.000 93.789,110.000 93.627 C 110.000 93.557,109.902 93.500,109.782 93.500 C 108.599 93.500,105.366 89.350,104.425 86.623 L 104.000 85.392 104.001 64.737 C 104.002 45.095,104.018 44.034,104.312 43.083 C 104.704 41.814,105.208 40.667,105.373 40.667 C 105.443 40.667,105.500 40.566,105.500 40.443 C 105.500 39.343,111.421 35.000,112.920 35.000 C 113.137 35.000,113.360 34.925,113.417 34.833 C 113.484 34.724,118.582 34.667,128.167 34.667 C 137.752 34.667,142.849 34.724,142.917 34.833 M170.670 56.917 C 170.766 81.693,170.664 79.827,172.002 81.183 C 173.449 82.649,172.961 82.583,182.417 82.583 L 190.750 82.583 191.558 82.200 C 192.743 81.637,194.000 80.169,194.000 79.346 C 194.000 79.167,194.075 78.973,194.167 78.917 C 194.276 78.849,194.333 71.275,194.333 56.738 L 194.333 34.663 200.542 34.706 L 206.750 34.750 206.750 60.000 C 206.750 85.881,206.757 85.540,206.168 87.083 C 204.824 90.604,201.191 93.845,197.500 94.814 C 196.122 95.176,167.846 94.995,166.583 94.617 C 163.017 93.546,160.428 90.886,158.690 86.504 L 158.259 85.417 158.206 60.040 L 158.154 34.663 164.368 34.706 L 170.583 34.750 170.670 56.917 M258.250 34.898 C 258.525 34.971,258.986 35.136,259.275 35.265 C 259.564 35.394,259.873 35.500,259.962 35.500 C 260.537 35.500,263.099 37.521,264.083 38.751 C 264.450 39.209,264.806 39.608,264.875 39.639 C 264.944 39.669,265.000 39.801,265.000 39.931 C 265.000 40.060,265.075 40.167,265.167 40.167 C 265.258 40.167,265.333 40.273,265.333 40.403 C 265.333 40.533,265.390 40.664,265.458 40.694 C 265.811 40.851,266.520 42.498,266.881 44.000 C 267.120 44.993,267.251 84.161,267.018 85.000 C 266.467 86.989,266.248 87.665,265.942 88.333 C 265.753 88.746,265.539 89.108,265.466 89.139 C 265.393 89.169,265.333 89.301,265.333 89.431 C 265.333 89.560,265.258 89.667,265.167 89.667 C 265.075 89.667,265.000 89.747,265.000 89.845 C 265.000 89.943,264.906 90.119,264.792 90.234 C 264.677 90.350,264.433 90.651,264.250 90.902 C 263.580 91.821,261.637 93.236,259.912 94.061 C 257.927 95.010,258.103 95.000,243.901 95.000 L 230.829 95.000 230.873 88.875 L 230.917 82.750 241.083 82.667 L 251.250 82.583 252.018 82.201 C 253.108 81.659,253.682 81.072,254.254 79.917 C 254.573 79.271,254.585 78.815,254.630 65.173 C 254.681 49.538,254.693 49.744,253.671 48.691 C 252.050 47.020,251.619 46.971,239.246 47.032 L 228.743 47.083 227.663 47.621 C 226.452 48.225,225.637 49.247,225.339 50.537 C 225.234 50.992,225.172 62.384,225.168 82.000 C 225.165 98.912,225.101 112.845,225.028 112.960 C 224.924 113.125,223.569 113.161,218.822 113.127 L 212.750 113.083 212.702 78.917 C 212.667 54.337,212.706 44.563,212.838 44.083 C 213.415 41.998,213.649 41.452,214.528 40.138 C 215.169 39.181,216.782 37.500,217.060 37.500 C 217.143 37.500,217.332 37.369,217.481 37.208 C 218.025 36.620,221.169 35.000,221.766 35.000 C 221.975 35.000,222.194 34.924,222.251 34.832 C 222.376 34.630,257.478 34.695,258.250 34.898 M346.336 57.083 C 346.384 69.644,346.487 79.594,346.571 79.822 C 346.654 80.044,346.840 80.371,346.986 80.547 C 347.565 81.248,348.140 81.833,348.249 81.833 C 348.313 81.833,348.602 82.002,348.891 82.208 L 349.417 82.583 359.625 82.632 L 369.833 82.681 369.833 58.674 L 369.833 34.667 376.086 34.667 L 382.338 34.667 382.294 69.375 C 382.257 98.656,382.214 104.175,382.017 104.667 C 381.888 104.987,381.711 105.438,381.622 105.667 C 381.461 106.084,381.403 106.200,380.763 107.395 C 380.313 108.234,378.436 110.160,377.490 110.753 C 377.083 111.008,376.712 111.269,376.667 111.333 C 376.479 111.595,373.615 112.898,372.877 113.057 C 372.374 113.165,367.288 113.232,359.000 113.239 L 345.917 113.250 345.917 107.000 L 345.917 100.750 356.417 100.667 C 367.890 100.576,367.162 100.643,368.273 99.573 C 368.897 98.974,369.500 97.956,369.500 97.505 C 369.500 97.330,369.575 97.140,369.667 97.083 C 369.758 97.027,369.833 96.535,369.833 95.990 L 369.833 95.000 356.747 95.000 C 342.590 95.000,342.374 94.987,340.583 94.051 C 340.308 93.907,339.915 93.706,339.710 93.603 C 339.504 93.501,339.335 93.360,339.335 93.292 C 339.334 93.223,339.235 93.167,339.114 93.167 C 338.389 93.167,335.913 90.143,334.882 88.000 C 333.749 85.644,333.833 87.886,333.833 59.968 L 333.833 34.663 340.042 34.706 L 346.250 34.750 346.336 57.083 M120.083 47.234 C 118.466 47.634,117.558 48.341,116.821 49.774 L 116.417 50.560 116.417 64.938 C 116.417 76.219,116.462 79.362,116.625 79.525 C 116.740 79.640,116.833 79.868,116.833 80.033 C 116.833 80.198,116.908 80.333,117.000 80.333 C 117.092 80.333,117.167 80.412,117.167 80.508 C 117.167 80.754,117.779 81.333,118.750 82.006 L 119.583 82.583 128.000 82.583 L 136.417 82.583 137.232 82.196 C 138.047 81.810,139.320 80.602,139.329 80.208 C 139.331 80.094,139.390 80.000,139.459 80.000 C 139.989 80.000,140.359 51.075,139.833 50.750 C 139.742 50.693,139.667 50.510,139.667 50.343 C 139.667 49.127,138.040 47.679,136.171 47.232 C 134.905 46.929,121.310 46.931,120.083 47.234 M41.992 49.849 C 43.139 50.493,43.243 50.852,43.304 54.352 C 43.363 57.673,43.248 58.483,42.626 59.167 C 41.900 59.963,41.703 60.000,38.143 60.000 C 33.196 60.000,33.167 59.970,33.167 54.756 C 33.167 51.172,33.195 51.007,33.955 50.213 C 34.558 49.583,34.930 49.522,38.227 49.511 C 41.121 49.501,41.421 49.528,41.992 49.849 M52.518 60.180 C 53.441 60.837,53.500 61.137,53.500 65.158 L 53.500 68.833 52.833 69.500 L 52.167 70.167 48.458 70.161 C 43.279 70.153,43.335 70.209,43.334 65.033 C 43.333 61.299,43.389 61.041,44.372 60.267 L 44.917 59.837 48.474 59.835 C 51.811 59.833,52.062 59.855,52.518 60.180 M42.360 70.542 C 43.310 71.391,43.333 71.502,43.333 75.250 C 43.333 78.991,43.315 79.077,42.357 79.958 L 41.768 80.500 38.213 80.500 L 34.658 80.500 33.912 79.754 L 33.167 79.009 33.167 75.250 L 33.167 71.491 33.912 70.746 L 34.658 70.000 38.206 70.000 L 41.754 70.000 42.360 70.542 " stroke="none" fill="none" fill-rule="evenodd"></path><path id="path3" d="M34.681 70.466 C 33.468 71.072,33.417 71.265,33.417 75.250 C 33.417 80.285,33.443 80.312,38.200 80.325 C 42.911 80.338,43.167 80.077,43.167 75.250 C 43.167 71.731,42.915 70.941,41.617 70.371 C 40.845 70.033,35.401 70.107,34.681 70.466 " stroke="none" fill="#55e4a4" fill-rule="evenodd"></path><path id="path4" d="M273.373 48.125 C 273.410 79.480,273.454 85.665,273.646 86.083 C 273.772 86.358,273.950 86.771,274.041 87.000 C 275.091 89.629,276.760 91.803,278.750 93.135 C 279.770 93.817,281.116 94.439,281.261 94.295 C 281.305 94.251,280.983 94.079,280.545 93.914 C 278.217 93.032,276.044 90.822,274.629 87.896 C 273.493 85.547,273.583 89.004,273.583 48.083 L 273.583 10.917 279.458 10.873 L 285.333 10.829 285.345 44.623 C 285.351 63.209,285.408 78.545,285.470 78.702 C 285.595 79.017,285.547 11.209,285.422 10.875 C 285.361 10.714,283.990 10.667,279.337 10.667 L 273.330 10.667 273.373 48.125 M291.542 34.777 C 291.276 34.884,291.235 46.586,291.500 46.750 C 291.610 46.818,291.667 44.807,291.667 40.843 L 291.667 34.833 304.458 34.836 C 316.636 34.838,317.313 34.854,318.556 35.167 C 321.266 35.851,323.774 37.698,325.445 40.243 C 326.631 42.050,326.698 42.139,326.396 41.500 C 324.882 38.298,322.025 35.922,318.579 34.999 C 317.388 34.680,292.293 34.474,291.542 34.777 M333.944 34.778 C 333.792 34.930,333.808 85.036,333.961 85.276 C 334.028 85.382,334.063 74.076,334.039 60.153 L 333.995 34.837 340.039 34.792 L 346.083 34.746 340.069 34.706 C 336.762 34.684,334.006 34.717,333.944 34.778 M370.078 34.873 C 370.035 34.989,369.980 45.808,369.958 58.917 L 369.917 82.750 360.167 82.836 L 350.417 82.922 360.250 82.919 L 370.083 82.917 370.126 58.875 L 370.168 34.833 376.083 34.833 L 381.999 34.833 382.042 69.083 L 382.085 103.333 382.084 69.042 L 382.083 34.750 376.121 34.706 C 371.439 34.672,370.141 34.708,370.078 34.873 M327.014 43.250 C 327.009 43.433,327.078 43.696,327.167 43.833 C 327.381 44.165,327.381 43.748,327.167 43.250 L 327.023 42.917 327.014 43.250 M327.471 45.667 C 327.617 47.510,327.618 82.173,327.472 83.917 C 327.381 85.010,327.395 85.160,327.550 84.750 C 327.826 84.025,327.830 45.856,327.555 44.917 C 327.384 44.333,327.373 44.427,327.471 45.667 M310.833 47.000 C 311.063 47.073,311.400 47.136,311.583 47.138 L 311.917 47.143 311.583 47.000 C 311.400 46.921,311.063 46.859,310.833 46.862 L 310.417 46.867 310.833 47.000 M313.000 47.710 C 315.469 48.944,315.367 48.151,315.301 65.667 L 315.250 79.417 314.858 80.206 C 314.239 81.450,313.150 82.267,311.583 82.660 L 310.917 82.828 311.667 82.739 C 313.018 82.578,314.430 81.477,315.114 80.048 C 315.533 79.173,315.588 50.659,315.172 49.667 C 314.717 48.580,312.992 47.163,312.131 47.168 C 312.013 47.169,312.404 47.413,313.000 47.710 M34.479 50.025 C 33.442 50.626,33.333 51.076,33.333 54.772 C 33.333 59.774,33.289 59.728,38.087 59.801 C 43.032 59.876,43.146 59.764,43.159 54.812 C 43.172 49.813,43.025 49.664,38.117 49.670 C 35.341 49.674,35.032 49.704,34.479 50.025 M44.750 60.140 C 44.475 60.308,44.140 60.589,44.005 60.765 C 43.802 61.028,43.831 61.022,44.172 60.729 C 44.968 60.044,45.225 60.000,48.422 60.000 C 53.258 60.000,53.333 60.077,53.333 65.000 C 53.333 69.923,53.258 70.000,48.422 70.000 C 45.224 70.000,44.941 69.951,44.199 69.275 C 43.962 69.059,43.852 69.019,43.911 69.171 C 44.238 70.005,44.977 70.167,48.473 70.167 C 53.397 70.167,53.479 70.083,53.492 65.050 C 53.505 59.945,53.397 59.833,48.467 59.834 C 45.640 59.835,45.189 59.872,44.750 60.140 M43.583 61.500 C 43.521 61.697,43.507 61.896,43.553 61.942 C 43.599 61.988,43.687 61.864,43.750 61.667 C 43.813 61.470,43.826 61.271,43.780 61.225 C 43.735 61.179,43.646 61.303,43.583 61.500 M43.512 68.282 C 43.505 68.483,43.575 68.693,43.667 68.750 C 43.864 68.872,43.864 68.709,43.667 68.250 C 43.529 67.929,43.523 67.930,43.512 68.282 M346.094 78.871 C 346.356 80.756,348.863 83.247,350.029 82.781 C 350.161 82.729,350.114 82.688,349.915 82.680 C 348.464 82.623,346.832 80.939,346.186 78.833 L 346.008 78.250 346.094 78.871 M285.680 79.426 C 285.634 80.610,288.120 82.853,289.442 82.822 C 289.812 82.813,289.739 82.763,289.112 82.595 C 287.657 82.203,286.374 81.012,285.870 79.583 C 285.736 79.205,285.690 79.166,285.680 79.426 M327.083 86.000 C 327.021 86.197,327.007 86.396,327.053 86.442 C 327.099 86.488,327.187 86.364,327.250 86.167 C 327.313 85.970,327.326 85.771,327.280 85.725 C 327.235 85.679,327.146 85.803,327.083 86.000 M334.261 86.083 C 334.391 86.736,335.022 88.200,335.128 88.094 C 335.173 88.049,335.083 87.744,334.927 87.416 C 334.772 87.088,334.536 86.541,334.403 86.201 C 334.199 85.678,334.177 85.660,334.261 86.083 M326.092 88.551 C 325.097 90.585,323.092 92.496,320.711 93.681 C 319.999 94.035,319.513 94.327,319.630 94.329 C 320.269 94.342,322.805 92.736,324.111 91.492 C 325.143 90.509,326.841 87.952,326.613 87.724 C 326.570 87.681,326.335 88.053,326.092 88.551 M335.620 89.165 C 336.576 90.878,337.929 92.283,339.708 93.414 C 340.539 93.941,340.186 93.560,339.292 92.964 C 338.044 92.132,336.941 90.968,336.061 89.557 C 335.190 88.159,334.929 87.927,335.620 89.165 M341.167 94.167 C 341.304 94.256,341.529 94.328,341.667 94.328 C 341.889 94.328,341.889 94.310,341.667 94.167 C 341.529 94.078,341.304 94.005,341.167 94.005 C 340.944 94.005,340.944 94.023,341.167 94.167 M281.667 94.500 C 281.804 94.589,282.104 94.655,282.333 94.648 L 282.750 94.633 282.333 94.500 C 281.691 94.294,281.348 94.294,281.667 94.500 M318.583 94.500 L 318.250 94.643 318.583 94.652 C 318.767 94.657,319.029 94.589,319.167 94.500 C 319.498 94.286,319.082 94.286,318.583 94.500 M342.167 94.500 C 342.304 94.589,342.604 94.655,342.833 94.648 L 343.250 94.633 342.833 94.500 C 342.191 94.294,341.848 94.294,342.167 94.500 M283.131 94.863 C 283.288 94.926,291.104 94.977,300.500 94.977 C 309.896 94.977,317.712 94.926,317.869 94.863 C 318.026 94.801,310.210 94.750,300.500 94.750 C 290.790 94.750,282.974 94.801,283.131 94.863 M343.631 94.863 C 343.788 94.926,349.795 94.982,356.980 94.988 L 370.043 95.000 369.927 96.023 C 369.673 98.272,368.653 99.892,367.121 100.481 C 366.642 100.665,366.390 100.820,366.561 100.825 C 367.212 100.843,368.474 99.969,369.044 99.104 C 369.935 97.750,370.511 95.115,369.958 94.914 C 369.619 94.790,343.319 94.740,343.631 94.863 M381.854 103.833 C 381.840 103.971,381.787 104.271,381.736 104.500 C 381.656 104.860,381.669 104.876,381.833 104.620 C 381.937 104.457,381.990 104.157,381.950 103.954 C 381.911 103.750,381.867 103.696,381.854 103.833 M381.248 105.788 C 380.923 106.647,379.964 108.132,379.246 108.886 C 379.001 109.144,378.832 109.388,378.872 109.428 C 379.075 109.630,380.990 106.949,381.432 105.844 C 381.584 105.464,381.672 105.117,381.628 105.073 C 381.584 105.029,381.413 105.350,381.248 105.788 M377.418 110.439 C 376.777 110.931,376.177 111.335,376.085 111.337 C 375.877 111.342,375.029 111.991,375.224 111.996 C 375.518 112.004,378.789 109.726,378.654 109.607 C 378.615 109.572,378.059 109.946,377.418 110.439 M373.667 112.523 C 372.262 113.092,370.211 113.172,358.049 113.127 C 351.439 113.103,346.067 113.140,346.109 113.208 C 346.152 113.277,351.601 113.332,358.218 113.330 C 370.674 113.327,372.380 113.249,373.833 112.615 C 374.477 112.334,374.331 112.254,373.667 112.523 " stroke="none" fill="#c6e588" fill-rule="evenodd"></path><path id="path5" d="M28.833 35.000 C 28.268 35.119,28.265 35.123,28.750 35.128 C 29.025 35.131,29.438 35.073,29.667 35.000 C 30.213 34.825,29.665 34.825,28.833 35.000 M57.167 35.000 C 57.396 35.073,57.771 35.132,58.000 35.130 C 58.374 35.128,58.366 35.114,57.917 35.000 C 57.212 34.821,56.606 34.821,57.167 35.000 M97.742 40.833 C 97.742 44.179,97.764 45.548,97.791 43.875 C 97.819 42.202,97.819 39.465,97.791 37.792 C 97.764 36.119,97.742 37.487,97.742 40.833 M113.583 35.000 C 113.137 35.113,113.128 35.127,113.500 35.127 C 113.729 35.127,114.142 35.070,114.417 35.000 C 114.863 34.887,114.872 34.873,114.500 34.873 C 114.271 34.873,113.858 34.930,113.583 35.000 M141.917 35.000 C 142.192 35.070,142.604 35.127,142.833 35.127 C 143.205 35.127,143.196 35.113,142.750 35.000 C 142.475 34.930,142.063 34.873,141.833 34.873 C 141.462 34.873,141.471 34.887,141.917 35.000 M158.415 59.750 C 158.415 73.500,158.434 79.100,158.458 72.195 C 158.482 65.290,158.482 54.040,158.458 47.195 C 158.434 40.350,158.415 46.000,158.415 59.750 M194.581 56.500 C 194.581 68.462,194.601 73.356,194.625 67.375 C 194.649 61.394,194.649 51.606,194.625 45.625 C 194.601 39.644,194.581 44.538,194.581 56.500 M222.417 35.000 C 221.968 35.114,221.959 35.128,222.333 35.130 C 222.563 35.132,222.938 35.073,223.167 35.000 C 223.727 34.821,223.122 34.821,222.417 35.000 M257.000 35.000 C 257.229 35.073,257.604 35.132,257.833 35.130 C 258.208 35.128,258.199 35.114,257.750 35.000 C 257.045 34.821,256.440 34.821,257.000 35.000 M144.500 35.556 C 144.500 35.599,144.742 35.718,145.038 35.822 C 145.334 35.925,145.502 35.940,145.413 35.857 C 145.223 35.679,144.500 35.441,144.500 35.556 M60.667 36.000 C 60.987 36.176,61.325 36.319,61.417 36.319 C 61.508 36.319,61.321 36.176,61.000 36.000 C 60.679 35.824,60.342 35.681,60.250 35.681 C 60.158 35.681,60.346 35.824,60.667 36.000 M261.329 36.634 C 261.556 36.789,262.006 37.130,262.329 37.392 C 262.652 37.653,262.544 37.522,262.088 37.100 C 261.632 36.678,261.182 36.337,261.088 36.342 C 260.994 36.347,261.102 36.478,261.329 36.634 M218.407 36.745 C 218.229 36.879,218.158 36.989,218.250 36.989 C 218.342 36.989,218.562 36.879,218.740 36.745 C 218.918 36.610,218.989 36.500,218.897 36.500 C 218.805 36.500,218.585 36.610,218.407 36.745 M108.917 37.265 L 108.417 37.694 109.000 37.318 C 109.748 36.835,109.750 36.833,109.569 36.834 C 109.485 36.835,109.192 37.028,108.917 37.265 M23.884 37.429 L 23.417 37.858 23.958 37.481 C 24.256 37.274,24.500 37.081,24.500 37.052 C 24.500 36.920,24.316 37.033,23.884 37.429 M216.788 37.961 C 215.737 38.851,214.532 40.271,214.147 41.073 C 213.943 41.498,214.083 41.327,215.132 39.872 C 215.525 39.327,216.331 38.488,216.923 38.007 C 217.861 37.247,218.123 36.992,217.958 37.003 C 217.935 37.004,217.409 37.436,216.788 37.961 M63.677 38.096 C 63.992 38.470,64.284 38.749,64.325 38.716 C 64.366 38.683,64.108 38.377,63.752 38.036 L 63.104 37.417 63.677 38.096 M148.000 37.552 C 148.000 37.581,148.244 37.825,148.542 38.094 L 149.083 38.583 148.594 38.042 C 148.138 37.537,148.000 37.423,148.000 37.552 M22.575 38.542 L 21.917 39.250 22.625 38.591 C 23.015 38.229,23.333 37.910,23.333 37.883 C 23.333 37.757,23.188 37.883,22.575 38.542 M76.910 38.708 L 76.083 39.583 76.958 38.756 C 77.771 37.988,77.910 37.833,77.785 37.833 C 77.759 37.833,77.365 38.227,76.910 38.708 M263.762 38.849 C 264.030 39.179,264.284 39.420,264.325 39.385 C 264.366 39.351,264.146 39.081,263.837 38.786 L 263.274 38.250 263.762 38.849 M107.025 38.767 C 106.901 38.907,106.833 39.055,106.873 39.095 C 106.913 39.136,107.083 39.018,107.249 38.834 C 107.415 38.650,107.484 38.503,107.401 38.506 C 107.318 38.510,107.149 38.627,107.025 38.767 M106.127 39.852 C 105.875 40.208,105.703 40.500,105.743 40.500 C 105.862 40.500,106.719 39.330,106.648 39.264 C 106.613 39.231,106.378 39.495,106.127 39.852 M65.951 41.412 C 66.197 41.914,66.426 42.296,66.460 42.262 C 66.535 42.187,65.695 40.500,65.582 40.500 C 65.539 40.500,65.705 40.910,65.951 41.412 M75.083 41.000 C 74.941 41.275,74.862 41.500,74.908 41.500 C 74.954 41.500,75.108 41.275,75.250 41.000 C 75.392 40.725,75.471 40.500,75.425 40.500 C 75.379 40.500,75.226 40.725,75.083 41.000 M265.417 41.167 C 265.559 41.442,265.713 41.667,265.759 41.667 C 265.804 41.667,265.726 41.442,265.583 41.167 C 265.441 40.892,265.287 40.667,265.241 40.667 C 265.196 40.667,265.274 40.892,265.417 41.167 M20.243 41.680 C 20.007 42.145,19.837 42.585,19.866 42.657 C 19.894 42.728,20.119 42.347,20.366 41.810 C 20.917 40.611,20.831 40.519,20.243 41.680 M266.268 42.917 C 266.405 43.529,266.501 43.663,266.497 43.236 C 266.496 43.060,266.419 42.804,266.326 42.667 C 266.202 42.484,266.187 42.552,266.268 42.917 M19.523 43.778 C 19.510 43.977,19.457 44.277,19.404 44.445 C 19.313 44.734,19.318 44.734,19.498 44.454 C 19.603 44.290,19.656 43.990,19.617 43.787 C 19.545 43.417,19.545 43.417,19.523 43.778 M213.039 44.333 C 213.039 44.654,213.073 44.785,213.115 44.625 C 213.157 44.465,213.157 44.202,213.115 44.042 C 213.073 43.881,213.039 44.012,213.039 44.333 M151.857 44.167 C 151.857 44.304,151.921 44.567,152.000 44.750 C 152.090 44.960,152.143 44.991,152.143 44.833 C 152.143 44.696,152.079 44.433,152.000 44.250 C 151.910 44.040,151.857 44.009,151.857 44.167 M73.775 45.038 C 73.717 45.521,73.687 56.942,73.707 70.417 L 73.745 94.917 73.831 69.583 C 73.878 55.650,73.909 44.229,73.899 44.204 C 73.889 44.179,73.833 44.554,73.775 45.038 M67.415 74.000 C 67.415 89.996,67.434 96.540,67.458 88.542 C 67.482 80.544,67.482 67.456,67.458 59.458 C 67.434 51.460,67.415 58.004,67.415 74.000 M104.081 64.833 C 104.081 75.787,104.101 80.269,104.125 74.792 C 104.149 69.315,104.149 60.352,104.125 54.875 C 104.101 49.398,104.081 53.879,104.081 64.833 M212.916 79.000 L 212.917 112.917 218.917 112.920 L 224.917 112.923 218.959 112.876 L 213.001 112.829 212.958 78.956 L 212.915 45.083 212.916 79.000 M234.792 46.792 C 237.565 46.817,242.102 46.817,244.875 46.792 C 247.648 46.766,245.379 46.745,239.833 46.745 C 234.287 46.745,232.019 46.766,234.792 46.792 M34.750 47.000 C 34.540 47.090,34.509 47.143,34.667 47.143 C 34.804 47.143,35.067 47.079,35.250 47.000 C 35.460 46.910,35.491 46.857,35.333 46.857 C 35.196 46.857,34.933 46.921,34.750 47.000 M51.500 47.000 C 52.070 47.183,52.508 47.183,52.083 47.000 C 51.900 46.921,51.600 46.859,51.417 46.862 C 51.149 46.866,51.165 46.893,51.500 47.000 M119.583 47.000 C 119.373 47.090,119.342 47.143,119.500 47.143 C 119.638 47.143,119.900 47.079,120.083 47.000 C 120.293 46.910,120.324 46.857,120.167 46.857 C 120.029 46.857,119.767 46.921,119.583 47.000 M136.014 46.893 C 136.052 46.926,136.308 47.003,136.583 47.065 C 136.948 47.147,137.016 47.131,136.833 47.008 C 136.608 46.855,135.847 46.749,136.014 46.893 M227.524 47.269 C 227.043 47.509,226.689 47.745,226.737 47.793 C 226.786 47.841,226.935 47.790,227.070 47.678 C 227.204 47.566,227.675 47.334,228.115 47.162 C 228.556 46.990,228.800 46.845,228.658 46.841 C 228.515 46.837,228.005 47.029,227.524 47.269 M250.514 46.893 C 250.552 46.926,250.808 47.003,251.083 47.065 C 251.448 47.147,251.516 47.131,251.333 47.008 C 251.108 46.855,250.347 46.749,250.514 46.893 M52.832 47.451 C 53.060 47.615,53.548 48.009,53.915 48.326 L 54.583 48.903 54.047 48.324 C 53.751 48.005,53.264 47.611,52.963 47.448 C 52.436 47.163,52.431 47.163,52.832 47.451 M87.900 47.642 C 87.543 47.904,87.102 48.298,86.920 48.517 C 86.716 48.764,86.812 48.716,87.170 48.392 C 87.489 48.103,88.013 47.709,88.333 47.517 C 88.654 47.325,88.834 47.168,88.733 47.167 C 88.633 47.167,88.258 47.381,87.900 47.642 M118.208 47.656 C 117.837 47.925,117.476 48.243,117.406 48.364 C 117.337 48.485,117.460 48.422,117.681 48.226 C 117.902 48.029,118.346 47.711,118.667 47.518 C 118.987 47.326,119.168 47.168,119.067 47.167 C 118.966 47.167,118.580 47.387,118.208 47.656 M137.667 47.518 C 137.987 47.710,138.472 48.066,138.744 48.309 C 139.015 48.551,139.128 48.606,138.994 48.431 C 138.686 48.027,137.510 47.166,137.267 47.167 C 137.166 47.168,137.346 47.325,137.667 47.518 M252.583 47.609 C 252.858 47.754,253.383 48.144,253.750 48.477 L 254.416 49.083 253.833 48.444 C 253.289 47.848,252.523 47.325,252.217 47.340 C 252.143 47.344,252.308 47.465,252.583 47.609 M116.772 49.208 L 116.472 49.750 116.816 49.333 C 117.120 48.964,117.256 48.667,117.119 48.667 C 117.093 48.667,116.937 48.910,116.772 49.208 M254.792 61.131 C 254.816 67.338,254.855 73.917,254.879 75.750 C 254.904 77.583,254.936 72.633,254.950 64.750 C 254.965 56.867,254.926 50.288,254.863 50.131 C 254.801 49.974,254.769 54.924,254.792 61.131 M31.437 50.256 C 31.380 50.405,31.340 50.652,31.348 50.805 C 31.356 50.958,31.428 50.862,31.509 50.592 C 31.666 50.066,31.610 49.805,31.437 50.256 M139.941 50.500 C 140.073 51.219,140.168 51.354,140.164 50.819 C 140.163 50.598,140.088 50.304,139.998 50.167 C 139.882 49.991,139.866 50.090,139.941 50.500 M224.917 50.667 C 224.853 50.955,224.836 51.225,224.879 51.268 C 224.921 51.310,225.004 51.105,225.063 50.813 C 225.201 50.118,225.067 49.983,224.917 50.667 M85.773 50.868 C 85.717 51.078,85.670 61.055,85.669 73.040 L 85.667 94.829 79.792 94.876 L 73.917 94.923 79.833 94.920 L 85.750 94.917 85.833 72.750 C 85.879 60.558,85.907 50.562,85.896 50.535 C 85.885 50.509,85.830 50.659,85.773 50.868 M55.414 73.917 C 55.414 86.292,55.434 91.379,55.458 85.221 C 55.483 79.064,55.483 68.939,55.458 62.721 C 55.434 56.504,55.414 61.542,55.414 73.917 M116.079 64.917 C 116.079 72.342,116.100 75.404,116.125 71.721 C 116.150 68.038,116.150 61.963,116.125 58.221 C 116.100 54.479,116.079 57.492,116.079 64.917 M140.246 64.833 C 140.246 72.212,140.267 75.231,140.292 71.542 C 140.317 67.852,140.317 61.815,140.292 58.125 C 140.267 54.435,140.246 57.454,140.246 64.833 M33.236 75.250 C 33.236 76.992,33.261 77.682,33.291 76.783 C 33.321 75.884,33.321 74.459,33.291 73.616 C 33.261 72.773,33.236 73.508,33.236 75.250 M31.336 78.931 C 31.337 79.106,31.415 79.362,31.508 79.500 C 31.631 79.683,31.647 79.615,31.565 79.250 C 31.428 78.637,31.332 78.504,31.336 78.931 M139.980 79.130 C 139.925 79.461,139.950 79.617,140.042 79.524 C 140.126 79.440,140.167 79.194,140.133 78.978 C 140.080 78.644,140.057 78.667,139.980 79.130 M116.190 79.000 C 116.190 79.137,116.255 79.400,116.333 79.583 C 116.424 79.793,116.477 79.824,116.477 79.667 C 116.477 79.529,116.412 79.267,116.333 79.083 C 116.243 78.873,116.190 78.842,116.190 79.000 M31.667 79.933 C 31.666 80.185,32.529 81.343,33.017 81.746 C 33.264 81.950,33.216 81.855,32.892 81.496 C 32.603 81.178,32.209 80.654,32.017 80.333 C 31.825 80.012,31.668 79.832,31.667 79.933 M138.765 81.308 L 138.113 82.083 138.840 81.381 C 139.240 80.994,139.533 80.645,139.492 80.605 C 139.450 80.565,139.123 80.881,138.765 81.308 M193.094 81.297 C 192.506 82.001,192.495 82.031,192.983 81.583 C 193.446 81.159,193.953 80.488,193.798 80.505 C 193.771 80.508,193.455 80.865,193.094 81.297 M117.500 81.417 C 117.811 81.737,118.103 82.000,118.149 82.000 C 118.195 82.000,117.978 81.737,117.667 81.417 C 117.356 81.096,117.064 80.833,117.018 80.833 C 116.972 80.833,117.189 81.096,117.500 81.417 M252.173 82.272 C 251.764 82.489,251.539 82.666,251.673 82.666 C 251.807 82.665,252.217 82.480,252.583 82.254 C 253.422 81.738,253.160 81.749,252.173 82.272 M136.750 82.589 C 136.333 82.790,136.319 82.813,136.667 82.728 C 137.139 82.613,137.670 82.342,137.417 82.346 C 137.325 82.347,137.025 82.457,136.750 82.589 M42.250 82.997 L 49.083 83.083 49.170 89.000 L 49.256 94.917 49.295 88.976 C 49.329 83.690,49.304 83.025,49.070 82.934 C 48.925 82.879,45.793 82.851,42.111 82.872 L 35.417 82.911 42.250 82.997 M124.292 82.958 C 126.423 82.985,129.910 82.985,132.042 82.958 C 134.173 82.932,132.429 82.910,128.167 82.910 C 123.904 82.910,122.160 82.932,124.292 82.958 M178.625 82.958 C 180.756 82.985,184.244 82.985,186.375 82.958 C 188.506 82.932,186.762 82.910,182.500 82.910 C 178.237 82.910,176.494 82.932,178.625 82.958 M231.076 83.043 C 231.032 83.158,231.015 85.876,231.039 89.084 L 231.083 94.917 243.417 94.918 L 255.750 94.920 243.458 94.876 L 231.167 94.831 231.167 88.917 L 231.167 83.003 240.875 82.958 L 250.583 82.914 240.870 82.874 C 233.199 82.842,231.139 82.877,231.076 83.043 M266.705 84.833 C 266.705 85.154,266.740 85.285,266.782 85.125 C 266.823 84.965,266.823 84.702,266.782 84.542 C 266.740 84.381,266.705 84.512,266.705 84.833 M19.357 85.000 C 19.357 85.137,19.421 85.400,19.500 85.583 C 19.590 85.793,19.643 85.824,19.643 85.667 C 19.643 85.529,19.579 85.267,19.500 85.083 C 19.410 84.873,19.357 84.842,19.357 85.000 M151.917 85.333 C 151.853 85.621,151.836 85.892,151.879 85.934 C 151.921 85.977,152.004 85.772,152.063 85.479 C 152.201 84.784,152.067 84.650,151.917 85.333 M206.273 85.202 C 206.217 85.412,206.178 85.733,206.186 85.917 C 206.194 86.100,206.269 85.957,206.353 85.600 C 206.515 84.907,206.446 84.558,206.273 85.202 M158.523 85.167 C 158.523 85.304,158.588 85.567,158.667 85.750 C 158.757 85.960,158.810 85.991,158.810 85.833 C 158.810 85.696,158.745 85.433,158.667 85.250 C 158.576 85.040,158.523 85.009,158.523 85.167 M266.353 86.195 C 266.342 86.348,266.290 86.610,266.237 86.778 C 266.147 87.067,266.151 87.068,266.332 86.786 C 266.437 86.623,266.489 86.361,266.447 86.203 C 266.379 85.945,266.370 85.944,266.353 86.195 M20.167 87.394 C 20.167 87.575,20.995 89.167,21.089 89.167 C 21.135 89.167,20.974 88.773,20.733 88.292 C 20.268 87.366,20.167 87.206,20.167 87.394 M105.812 89.083 C 105.902 89.267,106.098 89.567,106.247 89.750 L 106.518 90.083 106.355 89.750 C 106.265 89.567,106.069 89.267,105.920 89.083 L 105.648 88.750 105.812 89.083 M150.164 89.625 C 149.856 90.060,149.750 90.290,149.927 90.136 C 150.238 89.866,150.920 88.833,150.788 88.833 C 150.752 88.833,150.471 89.190,150.164 89.625 M160.188 89.208 C 160.574 89.935,161.641 91.258,162.437 92.000 C 163.111 92.628,163.078 92.574,162.238 91.667 C 161.686 91.071,160.981 90.190,160.672 89.708 C 160.097 88.812,159.831 88.538,160.188 89.208 M204.515 89.625 C 204.105 90.224,204.080 90.295,204.412 89.917 C 204.853 89.413,205.231 88.833,205.117 88.833 C 205.084 88.833,204.813 89.190,204.515 89.625 M106.783 90.583 C 107.201 91.169,108.639 92.596,108.705 92.490 C 108.730 92.449,108.227 91.892,107.588 91.250 C 106.949 90.608,106.587 90.308,106.783 90.583 M22.333 90.987 C 22.333 91.135,23.814 92.582,23.872 92.490 C 23.896 92.449,23.560 92.070,23.125 91.646 C 22.690 91.223,22.333 90.926,22.333 90.987 M263.406 91.375 L 262.917 91.917 263.458 91.427 C 263.963 90.971,264.077 90.833,263.948 90.833 C 263.919 90.833,263.675 91.077,263.406 91.375 M202.100 92.011 C 201.743 92.280,201.521 92.500,201.607 92.500 C 201.692 92.500,202.022 92.278,202.340 92.007 C 203.078 91.376,202.942 91.378,202.100 92.011 M145.958 93.262 C 145.335 93.600,145.373 93.741,146.000 93.417 C 146.275 93.274,146.500 93.123,146.500 93.079 C 146.500 92.972,146.482 92.978,145.958 93.262 M260.250 93.514 C 259.311 94.053,259.348 94.176,260.298 93.673 C 261.094 93.253,261.461 93.001,261.250 93.020 C 261.158 93.029,260.708 93.251,260.250 93.514 M199.625 93.595 C 199.002 93.933,199.040 94.074,199.667 93.750 C 199.942 93.608,200.167 93.456,200.167 93.412 C 200.167 93.305,200.149 93.311,199.625 93.595 M27.750 94.492 C 28.070 94.637,28.963 94.732,28.819 94.605 C 28.781 94.572,28.450 94.499,28.083 94.443 C 27.619 94.372,27.518 94.387,27.750 94.492 M143.167 94.500 C 142.823 94.610,142.809 94.636,143.083 94.648 C 143.267 94.655,143.529 94.589,143.667 94.500 C 143.959 94.311,143.756 94.311,143.167 94.500 M257.583 94.500 C 257.122 94.617,257.116 94.629,257.500 94.644 C 257.729 94.654,258.029 94.589,258.167 94.500 C 258.450 94.317,258.304 94.317,257.583 94.500 M256.208 94.782 C 256.369 94.823,256.631 94.823,256.792 94.782 C 256.952 94.740,256.821 94.705,256.500 94.705 C 256.179 94.705,256.048 94.740,256.208 94.782 M34.637 94.958 C 37.325 94.984,41.675 94.984,44.304 94.958 C 46.932 94.932,44.733 94.911,39.417 94.911 C 34.100 94.911,31.949 94.933,34.637 94.958 M121.375 94.958 C 125.110 94.983,131.223 94.983,134.958 94.958 C 138.694 94.933,135.637 94.913,128.167 94.913 C 120.696 94.913,117.640 94.933,121.375 94.958 M175.708 94.958 C 179.444 94.983,185.556 94.983,189.292 94.958 C 193.027 94.933,189.971 94.913,182.500 94.913 C 175.029 94.913,171.973 94.933,175.708 94.958 M31.444 100.944 C 31.383 101.006,31.333 103.781,31.333 107.111 L 31.333 113.167 43.875 113.152 C 50.773 113.144,56.792 113.088,57.250 113.027 C 57.708 112.966,52.102 112.940,44.792 112.968 L 31.500 113.018 31.500 107.010 L 31.500 101.003 41.625 100.958 L 51.750 100.914 41.653 100.874 C 36.099 100.851,31.506 100.883,31.444 100.944 M67.104 103.923 C 67.047 104.072,67.006 104.319,67.014 104.472 C 67.022 104.625,67.095 104.529,67.175 104.258 C 67.333 103.732,67.277 103.472,67.104 103.923 M65.605 107.527 C 65.355 107.908,65.272 108.120,65.420 107.997 C 65.672 107.788,66.244 106.833,66.117 106.833 C 66.085 106.833,65.855 107.145,65.605 107.527 " stroke="none" fill="#ababab" fill-rule="evenodd"></path><path id="path6" d="M36.804 34.792 C 40.500 34.817,46.500 34.817,50.137 34.792 C 53.774 34.767,50.750 34.746,43.417 34.746 C 36.083 34.746,33.108 34.767,36.804 34.792 M87.697 34.791 C 89.502 34.818,92.502 34.818,94.364 34.792 C 96.226 34.765,94.750 34.743,91.083 34.743 C 87.417 34.743,85.893 34.765,87.697 34.791 M121.458 34.792 C 125.148 34.817,131.185 34.817,134.875 34.792 C 138.565 34.767,135.546 34.746,128.167 34.746 C 120.787 34.746,117.769 34.767,121.458 34.792 M161.469 34.791 C 163.148 34.819,165.848 34.819,167.469 34.791 C 169.090 34.764,167.717 34.742,164.417 34.742 C 161.117 34.742,159.790 34.764,161.469 34.791 M200.624 34.791 L 206.499 34.838 206.542 59.419 L 206.585 84.000 206.584 59.375 L 206.583 34.750 200.667 34.747 L 194.750 34.744 200.624 34.791 M231.708 34.792 C 236.269 34.816,243.731 34.816,248.292 34.792 C 252.852 34.767,249.121 34.747,240.000 34.747 C 230.879 34.747,227.148 34.767,231.708 34.792 M19.247 64.833 C 19.247 75.787,19.267 80.269,19.292 74.792 C 19.316 69.315,19.316 60.352,19.292 54.875 C 19.267 49.398,19.247 53.879,19.247 64.833 M152.247 64.833 C 152.247 75.513,152.267 79.881,152.292 74.542 C 152.316 69.202,152.316 60.465,152.292 55.125 C 152.267 49.785,152.247 54.154,152.247 64.833 M67.581 74.000 C 67.581 89.354,67.601 95.635,67.625 87.958 C 67.649 80.281,67.649 67.719,67.625 60.042 C 67.601 52.365,67.581 58.646,67.581 74.000 M267.081 64.833 C 267.081 75.146,267.101 79.365,267.125 74.208 C 267.149 69.052,267.149 60.615,267.125 55.458 C 267.101 50.302,267.081 54.521,267.081 64.833 M32.740 48.375 L 32.250 48.917 32.792 48.427 C 33.297 47.971,33.410 47.833,33.281 47.833 C 33.252 47.833,33.009 48.077,32.740 48.375 M138.167 47.885 C 138.167 47.914,138.410 48.158,138.708 48.427 L 139.250 48.917 138.760 48.375 C 138.304 47.870,138.167 47.757,138.167 47.885 M140.080 64.917 C 140.080 72.525,140.100 75.662,140.125 71.887 C 140.150 68.113,140.150 61.888,140.125 58.054 C 140.100 54.220,140.080 57.308,140.080 64.917 M224.915 82.083 C 224.915 99.042,224.934 105.954,224.958 97.445 C 224.982 88.936,224.982 75.061,224.958 66.612 C 224.934 58.163,224.915 65.125,224.915 82.083 M149.077 91.042 L 148.250 91.917 149.125 91.090 C 149.938 90.321,150.076 90.167,149.952 90.167 C 149.926 90.167,149.532 90.560,149.077 91.042 " stroke="none" fill="#bdbdbd" fill-rule="evenodd"></path><path id="path7" d="M273.278 10.611 C 273.125 10.764,273.141 85.036,273.294 85.276 C 273.362 85.382,273.397 68.637,273.374 48.065 L 273.331 10.663 279.374 10.706 L 285.417 10.750 285.500 44.778 C 285.546 63.493,285.621 78.843,285.667 78.889 C 285.772 78.994,285.694 10.991,285.588 10.708 C 285.504 10.483,273.501 10.388,273.278 10.611 M206.667 59.383 L 206.750 84.083 206.792 59.509 C 206.815 45.993,206.778 34.878,206.709 34.809 C 206.640 34.740,206.621 45.798,206.667 59.383 M291.243 34.876 C 291.198 34.991,291.183 37.747,291.208 41.001 L 291.254 46.917 291.294 40.889 C 291.324 36.253,291.381 34.842,291.542 34.777 C 291.705 34.711,291.704 34.690,291.536 34.680 C 291.419 34.673,291.287 34.761,291.243 34.876 M317.917 34.833 C 318.415 35.047,318.831 35.047,318.500 34.833 C 318.362 34.744,318.100 34.676,317.917 34.681 L 317.583 34.690 317.917 34.833 M346.012 56.448 C 346.018 68.439,346.088 78.400,346.167 78.583 C 346.248 78.772,346.315 69.330,346.322 56.885 C 346.329 42.364,346.277 34.818,346.167 34.750 C 346.056 34.682,346.004 41.954,346.012 56.448 M369.833 58.673 L 369.833 82.679 359.665 82.631 C 354.072 82.605,349.717 82.640,349.985 82.710 C 350.254 82.779,354.848 82.817,360.195 82.793 L 369.917 82.750 370.000 58.708 C 370.046 45.485,370.027 34.667,369.958 34.667 C 369.890 34.667,369.833 45.469,369.833 58.673 M382.083 69.525 C 382.083 88.696,382.135 104.090,382.199 103.733 C 382.356 102.848,382.365 34.667,382.208 34.667 C 382.140 34.667,382.083 50.353,382.083 69.525 M97.833 40.867 C 97.787 44.231,97.807 46.926,97.877 46.856 C 97.947 46.786,97.985 44.034,97.960 40.740 L 97.916 34.750 97.833 40.867 M170.581 56.417 C 170.581 68.333,170.601 73.184,170.625 67.195 C 170.649 61.207,170.649 51.457,170.625 45.529 C 170.601 39.600,170.581 44.500,170.581 56.417 M321.583 36.111 C 322.009 36.514,323.055 37.196,322.803 36.906 C 322.649 36.728,322.274 36.441,321.970 36.268 C 321.665 36.095,321.492 36.024,321.583 36.111 M22.406 38.375 L 21.917 38.917 22.458 38.427 C 22.963 37.971,23.077 37.833,22.948 37.833 C 22.919 37.833,22.675 38.077,22.406 38.375 M76.667 38.583 C 76.262 38.996,75.968 39.333,76.014 39.333 C 76.060 39.333,76.428 38.996,76.833 38.583 C 77.238 38.171,77.532 37.833,77.486 37.833 C 77.440 37.833,77.072 38.171,76.667 38.583 M324.515 38.667 C 325.401 39.805,325.590 40.010,325.363 39.583 C 325.265 39.400,324.873 38.912,324.493 38.500 L 323.802 37.750 324.515 38.667 M326.711 42.007 C 326.849 42.240,326.999 42.577,327.045 42.757 C 327.126 43.075,327.128 43.075,327.144 42.750 C 327.152 42.567,327.002 42.229,326.810 42.000 L 326.460 41.583 326.711 42.007 M327.274 43.667 C 327.406 44.385,327.501 44.521,327.497 43.986 C 327.496 43.765,327.421 43.471,327.331 43.333 C 327.216 43.157,327.199 43.256,327.274 43.667 M212.771 44.256 C 212.713 44.405,212.674 44.690,212.684 44.889 C 212.695 45.117,212.751 45.036,212.838 44.668 C 212.983 44.048,212.944 43.806,212.771 44.256 M73.604 44.423 C 73.547 44.572,73.508 44.857,73.517 45.055 C 73.528 45.284,73.584 45.203,73.671 44.834 C 73.817 44.215,73.777 43.972,73.604 44.423 M266.935 44.917 C 267.072 45.529,267.168 45.663,267.164 45.236 C 267.163 45.060,267.085 44.804,266.992 44.667 C 266.869 44.484,266.853 44.552,266.935 44.917 M327.750 64.750 C 327.750 75.475,327.798 83.800,327.857 83.250 C 327.995 81.954,327.994 47.757,327.856 46.333 C 327.797 45.737,327.750 54.025,327.750 64.750 M152.414 64.833 C 152.414 75.513,152.434 79.881,152.458 74.542 C 152.483 69.202,152.483 60.465,152.458 55.125 C 152.434 49.785,152.414 54.154,152.414 64.833 M67.748 74.000 C 67.748 89.446,67.768 95.765,67.792 88.042 C 67.816 80.319,67.816 67.681,67.792 59.958 C 67.768 52.235,67.748 58.554,67.748 74.000 M235.054 46.958 C 237.787 46.984,242.212 46.984,244.887 46.958 C 247.562 46.932,245.325 46.911,239.917 46.911 C 234.508 46.911,232.320 46.933,235.054 46.958 M296.208 46.958 C 298.844 46.984,303.156 46.984,305.792 46.958 C 308.427 46.932,306.271 46.911,301.000 46.911 C 295.729 46.911,293.573 46.932,296.208 46.958 M311.181 47.226 C 311.219 47.259,311.512 47.334,311.833 47.392 C 312.244 47.468,312.343 47.451,312.167 47.336 C 311.941 47.188,311.015 47.085,311.181 47.226 M34.698 49.676 C 34.329 49.824,33.711 50.333,33.901 50.333 C 33.951 50.333,34.238 50.184,34.538 50.001 C 35.030 49.700,35.379 49.668,38.105 49.667 C 41.823 49.667,42.352 49.829,42.945 51.149 C 43.052 51.388,43.146 51.482,43.153 51.359 C 43.179 50.934,42.612 50.197,41.992 49.849 C 41.314 49.468,35.558 49.331,34.698 49.676 M33.375 50.951 C 33.051 51.648,33.086 58.026,33.416 58.666 C 34.054 59.899,34.411 60.000,38.143 60.000 C 41.445 60.000,41.846 59.945,42.417 59.417 C 42.768 59.092,43.167 58.422,43.159 58.171 C 43.154 58.031,43.023 58.176,42.867 58.494 C 42.250 59.749,41.851 59.858,38.087 59.801 C 33.287 59.728,33.333 59.776,33.333 54.758 C 33.333 52.149,33.385 51.384,33.588 50.992 C 33.727 50.721,33.784 50.501,33.713 50.501 C 33.642 50.502,33.490 50.704,33.375 50.951 M86.042 51.250 C 86.044 51.617,86.078 51.747,86.118 51.540 C 86.158 51.332,86.156 51.032,86.115 50.873 C 86.073 50.714,86.040 50.883,86.042 51.250 M116.272 51.348 C 116.214 51.638,116.184 57.809,116.205 65.063 L 116.244 78.250 116.330 64.583 C 116.378 57.067,116.408 50.895,116.397 50.869 C 116.386 50.843,116.330 51.059,116.272 51.348 M315.246 64.833 C 315.246 72.579,315.267 75.748,315.292 71.875 C 315.317 68.002,315.317 61.665,315.292 57.792 C 315.267 53.919,315.246 57.087,315.246 64.833 M225.082 82.083 C 225.082 99.042,225.101 105.954,225.125 97.445 C 225.149 88.936,225.149 75.061,225.125 66.612 C 225.101 58.163,225.082 65.125,225.082 82.083 M43.236 54.750 C 43.236 56.492,43.261 57.182,43.291 56.283 C 43.321 55.384,43.321 53.959,43.291 53.116 C 43.261 52.273,43.236 53.008,43.236 54.750 M85.914 73.583 C 85.914 85.408,85.934 90.270,85.958 84.388 C 85.983 78.505,85.983 68.830,85.958 62.888 C 85.934 56.945,85.914 61.758,85.914 73.583 M44.050 60.542 C 43.368 61.290,43.332 61.531,43.369 65.114 L 43.404 68.583 43.494 65.000 C 43.584 61.383,43.611 61.219,44.221 60.542 C 44.406 60.335,44.521 60.167,44.475 60.167 C 44.429 60.167,44.238 60.335,44.050 60.542 M44.379 69.833 C 44.612 70.017,44.866 70.165,44.943 70.163 C 45.125 70.158,44.297 69.509,44.103 69.504 C 44.021 69.502,44.146 69.650,44.379 69.833 M286.464 80.750 C 286.559 80.933,286.849 81.271,287.110 81.499 L 287.583 81.915 287.085 81.333 C 286.294 80.409,286.283 80.399,286.464 80.750 M313.844 81.384 L 313.438 81.917 313.969 81.427 C 314.521 80.918,314.584 80.827,314.375 80.843 C 314.306 80.848,314.067 81.091,313.844 81.384 M289.426 82.689 C 290.077 82.828,310.807 82.831,311.301 82.692 C 311.513 82.632,306.567 82.583,300.310 82.583 C 294.054 82.583,289.156 82.631,289.426 82.689 M38.958 82.791 C 40.815 82.818,43.852 82.818,45.708 82.791 C 47.565 82.765,46.046 82.743,42.333 82.743 C 38.621 82.743,37.102 82.765,38.958 82.791 M124.553 82.792 C 126.645 82.818,130.020 82.818,132.053 82.791 C 134.086 82.765,132.375 82.743,128.250 82.743 C 124.125 82.743,122.461 82.765,124.553 82.792 M178.886 82.792 C 180.978 82.818,184.353 82.818,186.386 82.791 C 188.420 82.765,186.708 82.743,182.583 82.743 C 178.458 82.743,176.795 82.765,178.886 82.792 M230.909 82.876 C 230.865 82.991,230.850 85.785,230.875 89.084 L 230.921 95.083 230.961 88.960 L 231.000 82.836 240.708 82.792 L 250.417 82.747 240.703 82.707 C 233.036 82.675,230.973 82.711,230.909 82.876 M327.294 85.750 C 327.244 86.025,327.121 86.507,327.021 86.822 C 326.921 87.137,326.900 87.324,326.974 87.239 C 327.196 86.982,327.546 85.722,327.463 85.478 C 327.421 85.352,327.345 85.475,327.294 85.750 M274.769 88.875 C 275.093 89.507,275.972 90.819,276.284 91.137 C 276.695 91.555,276.498 91.167,275.907 90.393 C 275.581 89.966,275.167 89.328,274.987 88.975 C 274.807 88.622,274.622 88.333,274.576 88.333 C 274.529 88.333,274.616 88.577,274.769 88.875 M325.157 90.292 C 324.341 91.418,324.334 91.558,325.142 90.586 C 325.746 89.861,325.959 89.500,325.782 89.500 C 325.754 89.500,325.473 89.856,325.157 90.292 M336.617 90.911 C 336.782 91.138,336.986 91.325,337.071 91.328 C 337.155 91.331,337.049 91.146,336.833 90.917 C 336.334 90.385,336.232 90.382,336.617 90.911 M107.583 91.833 C 107.941 92.200,108.272 92.500,108.318 92.500 C 108.363 92.500,108.108 92.200,107.750 91.833 C 107.392 91.467,107.062 91.167,107.016 91.167 C 106.970 91.167,107.225 91.467,107.583 91.833 M323.417 92.124 C 322.958 92.539,322.740 92.775,322.931 92.648 C 323.497 92.271,324.380 91.491,324.313 91.427 C 324.278 91.395,323.875 91.708,323.417 92.124 M338.000 92.310 C 338.504 92.775,338.988 93.158,339.075 93.161 C 339.261 93.168,339.237 93.146,338.000 92.179 L 337.083 91.463 338.000 92.310 M278.120 92.846 C 278.324 93.058,278.533 93.190,278.584 93.138 C 278.635 93.087,278.468 92.913,278.214 92.752 L 277.750 92.460 278.120 92.846 M279.093 93.578 C 279.271 93.713,279.492 93.823,279.583 93.823 C 279.675 93.823,279.604 93.713,279.426 93.578 C 279.249 93.443,279.028 93.333,278.936 93.333 C 278.845 93.333,278.915 93.443,279.093 93.578 M339.902 93.643 C 340.018 93.831,341.170 94.385,341.260 94.296 C 341.296 94.259,340.985 94.064,340.568 93.861 C 340.150 93.658,339.851 93.560,339.902 93.643 M279.833 93.929 C 279.833 94.042,280.699 94.356,280.782 94.274 C 280.819 94.236,280.622 94.125,280.342 94.028 C 280.062 93.930,279.833 93.886,279.833 93.929 M281.167 94.500 C 281.304 94.589,281.529 94.662,281.667 94.662 C 281.889 94.662,281.889 94.644,281.667 94.500 C 281.529 94.411,281.304 94.338,281.167 94.338 C 280.944 94.338,280.944 94.356,281.167 94.500 M282.500 94.833 C 282.637 94.922,282.862 94.995,283.000 94.995 C 283.222 94.995,283.222 94.977,283.000 94.833 C 282.862 94.744,282.637 94.672,282.500 94.672 C 282.278 94.672,282.278 94.690,282.500 94.833 M343.083 94.833 C 343.267 94.912,343.529 94.977,343.667 94.977 C 343.824 94.977,343.793 94.924,343.583 94.833 C 343.400 94.755,343.137 94.690,343.000 94.690 C 342.842 94.690,342.873 94.743,343.083 94.833 M369.872 95.667 C 369.872 95.987,369.906 96.119,369.948 95.958 C 369.990 95.798,369.990 95.535,369.948 95.375 C 369.906 95.215,369.872 95.346,369.872 95.667 M368.197 99.618 C 367.985 99.846,367.840 100.063,367.876 100.098 C 367.912 100.134,368.156 99.939,368.418 99.665 C 368.681 99.391,368.825 99.175,368.740 99.184 C 368.654 99.194,368.410 99.389,368.197 99.618 M356.083 100.665 L 345.917 100.750 345.873 106.906 C 345.849 110.292,345.886 113.120,345.956 113.190 C 346.026 113.260,346.063 110.508,346.038 107.075 L 345.992 100.833 356.121 100.822 C 361.692 100.815,366.400 100.745,366.583 100.667 L 366.917 100.523 366.583 100.551 C 366.400 100.567,361.675 100.618,356.083 100.665 M31.200 100.867 C 31.050 101.016,31.010 102.562,31.038 106.992 L 31.077 112.917 31.163 106.917 L 31.250 100.917 41.417 100.831 L 51.583 100.746 41.492 100.706 C 33.820 100.676,31.352 100.715,31.200 100.867 M380.272 107.830 C 380.028 108.198,379.863 108.500,379.906 108.500 C 380.048 108.500,380.881 107.325,380.798 107.242 C 380.752 107.197,380.516 107.461,380.272 107.830 M379.181 109.230 L 378.779 109.750 379.255 109.297 C 379.518 109.047,379.699 108.814,379.658 108.777 C 379.617 108.740,379.402 108.944,379.181 109.230 M377.840 110.340 C 377.087 110.984,377.271 110.979,378.083 110.333 C 378.429 110.058,378.646 109.836,378.565 109.840 C 378.483 109.844,378.157 110.069,377.840 110.340 M371.250 113.167 L 370.583 113.286 371.250 113.307 C 371.617 113.319,372.029 113.256,372.167 113.167 C 372.465 112.974,372.325 112.974,371.250 113.167 " stroke="none" fill="#e5f4c5" fill-rule="evenodd"></path><path id="path8" d="M29.375 34.782 C 29.535 34.823,29.798 34.823,29.958 34.782 C 30.119 34.740,29.988 34.705,29.667 34.705 C 29.346 34.705,29.215 34.740,29.375 34.782 M56.875 34.782 C 57.035 34.823,57.298 34.823,57.458 34.782 C 57.619 34.740,57.487 34.705,57.167 34.705 C 56.846 34.705,56.715 34.740,56.875 34.782 M114.042 34.782 C 114.202 34.823,114.465 34.823,114.625 34.782 C 114.785 34.740,114.654 34.705,114.333 34.705 C 114.013 34.705,113.881 34.740,114.042 34.782 M158.244 34.875 C 158.200 34.990,158.184 45.958,158.207 59.250 L 158.250 83.417 158.333 59.042 C 158.379 45.635,158.396 34.667,158.370 34.667 C 158.344 34.667,158.287 34.760,158.244 34.875 M194.410 34.875 C 194.367 34.990,194.350 44.796,194.374 56.667 L 194.417 78.250 194.500 56.458 C 194.546 44.473,194.562 34.667,194.536 34.667 C 194.511 34.667,194.454 34.760,194.410 34.875 M148.167 37.552 C 148.167 37.581,148.410 37.825,148.708 38.094 L 149.250 38.583 148.760 38.042 C 148.304 37.537,148.167 37.423,148.167 37.552 M215.906 38.542 L 215.417 39.083 215.958 38.594 C 216.463 38.138,216.577 38.000,216.448 38.000 C 216.419 38.000,216.175 38.244,215.906 38.542 M212.748 79.000 C 212.748 97.654,212.768 105.285,212.792 95.958 C 212.815 86.631,212.815 71.369,212.792 62.042 C 212.768 52.715,212.748 60.346,212.748 79.000 M73.581 70.083 C 73.581 83.742,73.601 89.305,73.625 82.445 C 73.649 75.586,73.649 64.411,73.625 57.612 C 73.601 50.813,73.581 56.425,73.581 70.083 M39.625 46.958 C 41.665 46.985,45.002 46.985,47.042 46.958 C 49.081 46.932,47.413 46.910,43.333 46.910 C 39.254 46.910,37.585 46.932,39.625 46.958 M92.199 46.958 C 93.179 46.987,94.829 46.987,95.866 46.958 C 96.902 46.929,96.100 46.904,94.083 46.904 C 92.067 46.904,91.219 46.928,92.199 46.958 M124.542 46.958 C 126.535 46.985,129.798 46.985,131.792 46.958 C 133.785 46.932,132.154 46.910,128.167 46.910 C 124.179 46.910,122.548 46.932,124.542 46.958 M229.375 46.948 C 229.535 46.990,229.798 46.990,229.958 46.948 C 230.119 46.906,229.987 46.872,229.667 46.872 C 229.346 46.872,229.215 46.906,229.375 46.948 M53.333 47.885 C 53.333 47.914,53.577 48.158,53.875 48.427 L 54.417 48.917 53.927 48.375 C 53.471 47.870,53.333 47.757,53.333 47.885 M254.746 64.750 C 254.746 72.542,254.767 75.705,254.792 71.779 C 254.817 67.854,254.817 61.479,254.792 57.613 C 254.767 53.746,254.746 56.958,254.746 64.750 M55.248 73.833 C 55.248 86.438,55.267 91.594,55.292 85.292 C 55.316 78.990,55.316 68.677,55.292 62.375 C 55.267 56.073,55.248 61.229,55.248 73.833 M31.413 64.917 C 31.413 72.342,31.433 75.404,31.458 71.721 C 31.483 68.038,31.483 61.963,31.458 58.221 C 31.433 54.479,31.413 57.492,31.413 64.917 M36.458 70.124 C 37.398 70.154,38.935 70.154,39.875 70.124 C 40.815 70.095,40.046 70.070,38.167 70.070 C 36.287 70.070,35.519 70.095,36.458 70.124 M43.236 75.250 C 43.236 76.900,43.261 77.552,43.291 76.700 C 43.321 75.847,43.321 74.497,43.291 73.700 C 43.260 72.902,43.235 73.600,43.236 75.250 M36.542 80.458 C 37.435 80.488,38.898 80.488,39.792 80.458 C 40.685 80.428,39.954 80.403,38.167 80.403 C 36.379 80.403,35.648 80.428,36.542 80.458 M117.167 80.885 C 117.167 80.914,117.410 81.158,117.708 81.427 L 118.250 81.917 117.760 81.375 C 117.304 80.870,117.167 80.757,117.167 80.885 M138.573 81.375 L 138.083 81.917 138.625 81.427 C 138.923 81.158,139.167 80.914,139.167 80.885 C 139.167 80.757,139.029 80.870,138.573 81.375 M49.333 88.883 L 49.416 94.917 49.460 89.011 C 49.485 85.762,49.447 83.047,49.377 82.977 C 49.307 82.907,49.287 85.565,49.333 88.883 M206.542 84.583 C 206.544 84.950,206.578 85.080,206.618 84.873 C 206.658 84.666,206.656 84.366,206.615 84.206 C 206.573 84.047,206.540 84.217,206.542 84.583 M152.205 84.667 C 152.205 84.987,152.240 85.119,152.282 84.958 C 152.323 84.798,152.323 84.535,152.282 84.375 C 152.240 84.215,152.205 84.346,152.205 84.667 M161.917 91.667 C 162.368 92.125,162.775 92.500,162.821 92.500 C 162.867 92.500,162.535 92.125,162.083 91.667 C 161.632 91.208,161.225 90.833,161.179 90.833 C 161.133 90.833,161.465 91.208,161.917 91.667 M22.917 91.833 C 23.275 92.200,23.605 92.500,23.651 92.500 C 23.697 92.500,23.441 92.200,23.083 91.833 C 22.725 91.467,22.395 91.167,22.349 91.167 C 22.303 91.167,22.559 91.467,22.917 91.833 M256.833 94.833 C 256.490 94.943,256.475 94.969,256.750 94.981 C 256.933 94.989,257.196 94.922,257.333 94.833 C 257.625 94.645,257.423 94.645,256.833 94.833 M31.242 107.000 C 31.242 110.346,31.264 111.715,31.291 110.042 C 31.319 108.369,31.319 105.631,31.291 103.958 C 31.264 102.285,31.242 103.654,31.242 107.000 M218.917 113.000 L 212.917 113.090 218.865 113.128 C 222.693 113.153,224.850 113.107,224.917 113.000 C 224.973 112.908,224.996 112.851,224.968 112.872 C 224.940 112.893,222.217 112.951,218.917 113.000 M37.625 113.292 C 41.131 113.317,46.869 113.317,50.375 113.292 C 53.881 113.266,51.012 113.246,44.000 113.246 C 36.987 113.246,34.119 113.266,37.625 113.292 " stroke="none" fill="#cfcfcf" fill-rule="evenodd"></path></g></svg>