<svg xmlns="http://www.w3.org/2000/svg" width="40" height="41" viewBox="0 0 40 41" fill="none">
  <ellipse opacity="0.1" cx="20" cy="39.5193" rx="20" ry="1.19998" fill="#5C5C5C"/>
  <path fill-rule="evenodd" clip-rule="evenodd" d="M5.59961 8.57237C5.59961 7.99037 6.07143 7.51855 6.65344 7.51855C7.23546 7.51855 7.70728 7.99037 7.70728 8.57237V10.7403C7.70728 11.3223 7.23546 11.7941 6.65344 11.7941C6.07143 11.7941 5.59961 11.3223 5.59961 10.7403V8.57237ZM6.65344 8.31854C6.51326 8.31854 6.39961 8.43219 6.39961 8.57237V10.7403C6.39961 10.8805 6.51326 10.9941 6.65344 10.9941C6.79363 10.9941 6.90728 10.8805 6.90728 10.7403V8.57237C6.90728 8.43219 6.79363 8.31854 6.65344 8.31854ZM10.3996 12.7185C10.3996 11.6139 11.295 10.7185 12.3996 10.7185H25.7099C25.1379 11.3994 24.725 12.2185 24.5285 13.1185H10.3996V12.7185ZM24.4137 13.9185H8.79961C7.69504 13.9185 6.79961 14.8139 6.79961 15.9184V17.9184L25.7099 17.9184C24.8922 16.945 24.3996 15.6893 24.3996 14.3185C24.3996 14.184 24.4044 14.0506 24.4137 13.9185ZM30.7996 19.8617V27.9183H31.5996C32.7042 27.9183 33.5996 27.0229 33.5996 25.9183V18.6081C32.8191 19.2638 31.857 19.7104 30.7996 19.8617ZM34.3996 17.7829V25.9183C34.3996 27.4647 33.146 28.7183 31.5996 28.7183H30.7996V29.1183C30.7996 30.6646 29.546 31.9182 27.9996 31.9182H8.79961C7.25321 31.9182 5.99961 30.6646 5.99961 29.1183V15.9184C5.99961 14.3721 7.25321 13.1185 8.79961 13.1185H9.59961V12.7185C9.59961 11.1721 10.8532 9.91852 12.3996 9.91852H26.3996V10.0288C27.373 9.21107 28.6288 8.71854 29.9996 8.71854C33.0924 8.71854 35.5996 11.2257 35.5996 14.3185C35.5996 15.6265 35.1512 16.8297 34.3996 17.7829ZM6.79961 20.3184L29.9996 20.3184V27.9183V28.7183V29.1183C29.9996 30.2228 29.1042 31.1182 27.9996 31.1182H8.79961C7.69504 31.1182 6.79961 30.2228 6.79961 29.1183V20.3184ZM33.4534 29.9182C32.8714 29.9182 32.3996 30.3901 32.3996 30.9721V33.14C32.3996 33.722 32.8714 34.1938 33.4534 34.1938C34.0355 34.1938 34.5073 33.722 34.5073 33.14V30.9721C34.5073 30.3901 34.0355 29.9182 33.4534 29.9182ZM33.1996 30.9721C33.1996 30.8319 33.3133 30.7182 33.4534 30.7182C33.5936 30.7182 33.7073 30.8319 33.7073 30.9721V33.14C33.7073 33.2801 33.5936 33.3938 33.4534 33.3938C33.3133 33.3938 33.1996 33.2801 33.1996 33.14V30.9721ZM25.1996 14.3185C25.1996 11.6675 27.3486 9.51853 29.9996 9.51853C32.6506 9.51853 34.7996 11.6675 34.7996 14.3185C34.7996 16.9694 32.6506 19.1184 29.9996 19.1184C27.3486 19.1184 25.1996 16.9694 25.1996 14.3185ZM28.9996 11.7185C28.9996 11.1662 29.4473 10.7185 29.9996 10.7185C30.5519 10.7185 30.9996 11.1662 30.9996 11.7185V14.1185C30.9996 14.6707 30.5519 15.1184 29.9996 15.1184C29.4473 15.1184 28.9996 14.6707 28.9996 14.1185V11.7185ZM29.9996 11.5185C29.8892 11.5185 29.7996 11.608 29.7996 11.7185V14.1185C29.7996 14.2289 29.8892 14.3185 29.9996 14.3185C30.1101 14.3185 30.1996 14.2289 30.1996 14.1185V11.7185C30.1996 11.608 30.1101 11.5185 29.9996 11.5185ZM29.9996 17.9184C29.4473 17.9184 28.9996 17.4707 28.9996 16.9184C28.9996 16.3661 29.4473 15.9184 29.9996 15.9184C30.5519 15.9184 30.9996 16.3661 30.9996 16.9184C30.9996 17.4707 30.5519 17.9184 29.9996 17.9184ZM29.7996 16.9184C29.7996 17.0289 29.8892 17.1184 29.9996 17.1184C30.1101 17.1184 30.1996 17.0289 30.1996 16.9184C30.1996 16.808 30.1101 16.7184 29.9996 16.7184C29.8892 16.7184 29.7996 16.808 29.7996 16.9184ZM16.1996 23.9183C15.6473 23.9183 15.1996 24.366 15.1996 24.9183C15.1996 25.4706 15.6473 25.9183 16.1996 25.9183H26.9996C27.5519 25.9183 27.9996 25.4706 27.9996 24.9183C27.9996 24.366 27.5519 23.9183 26.9996 23.9183H16.1996ZM15.9996 24.9183C15.9996 24.8079 16.0892 24.7183 16.1996 24.7183H26.9996C27.1101 24.7183 27.1996 24.8079 27.1996 24.9183C27.1996 25.0288 27.1101 25.1183 26.9996 25.1183H16.1996C16.0892 25.1183 15.9996 25.0288 15.9996 24.9183ZM10.9996 26.7183C11.9937 26.7183 12.7996 25.9124 12.7996 24.9183C12.7996 23.9242 11.9937 23.1183 10.9996 23.1183C10.0055 23.1183 9.19961 23.9242 9.19961 24.9183C9.19961 25.9124 10.0055 26.7183 10.9996 26.7183Z" fill="#5C5C5C"/>
</svg>