<svg width="48" height="48" viewBox="0 0 48 48" fill="none" xmlns="http://www.w3.org/2000/svg">
<ellipse opacity="0.1" cx="24" cy="46.5599" rx="24" ry="1.44" fill="#5C5C5C"/>
<path fill-rule="evenodd" clip-rule="evenodd" d="M37.2743 7.96525C37.2849 7.26691 37.8597 6.70945 38.558 6.72012C39.2564 6.73079 39.8139 7.30556 39.8032 8.00391L39.7634 10.6051C39.7527 11.3035 39.178 11.8609 38.4796 11.8503C37.7813 11.8396 37.2238 11.2648 37.2345 10.5665L37.2743 7.96525ZM38.5434 7.68001C38.3752 7.67744 38.2367 7.81172 38.2342 7.97993L38.1944 10.5811C38.1918 10.7494 38.3261 10.8878 38.4943 10.8904C38.6625 10.8929 38.801 10.7587 38.8035 10.5905L38.8433 7.98923C38.8459 7.82103 38.7116 7.68258 38.5434 7.68001ZM39.9461 13.2195C39.9568 12.5212 40.5316 11.9637 41.2299 11.9744L43.8311 12.0141C44.5295 12.0248 45.0869 12.5996 45.0763 13.2979C45.0656 13.9962 44.4908 14.5537 43.7925 14.543L41.1913 14.5033C40.4929 14.4926 39.9355 13.9178 39.9461 13.2195ZM41.2153 12.9342C41.047 12.9317 40.9086 13.066 40.906 13.2342C40.9035 13.4024 41.0377 13.5408 41.2059 13.5434L43.8072 13.5831C43.9754 13.5857 44.1138 13.4514 44.1164 13.2832C44.1189 13.115 43.9847 12.9766 43.8165 12.974L41.2153 12.9342ZM10.654 15.2464C11.0351 13.7603 12.3745 12.721 13.9087 12.721H35.5314C37.0656 12.721 38.405 13.7603 38.7861 15.2464L41.1186 24.3434C41.2313 24.7828 41.2538 25.2405 41.1848 25.6889L39.8298 34.4969C39.5776 36.136 38.1672 37.346 36.5088 37.346H16.3012C15.2982 39.7955 12.8905 41.5211 10.0799 41.5211C6.36851 41.5211 3.35986 38.5124 3.35986 34.801C3.35986 31.5899 5.61209 28.9049 8.62303 28.2394L8.24855 25.6745C8.18426 25.2343 8.20807 24.7856 8.31859 24.3546L10.654 15.2464ZM9.57284 28.0999C9.74021 28.0874 9.90929 28.081 10.0799 28.081C13.7912 28.081 16.7999 31.0897 16.7999 34.801C16.7999 35.347 16.7348 35.8778 16.6119 36.386H36.5088C37.6934 36.386 38.7008 35.5217 38.8809 34.3509L40.236 25.5429L40.2388 25.5243L40.2404 25.5132H33.0826L31.0537 28.3537C30.423 29.2367 29.4046 29.7608 28.3195 29.7608H21.4233C20.3382 29.7608 19.3199 29.2367 18.6892 28.3537L16.6603 25.5132H9.19528L9.19848 25.5358L9.57284 28.0999ZM37.8561 15.4849L40.1814 24.5532H37.0321V24.2501V24.2227V21.6959V21.189V18.1547C37.0321 16.8293 35.9576 15.7547 34.6321 15.7547H14.8072C13.4817 15.7547 12.4072 16.8293 12.4072 18.1547V21.189V21.6959V24.2227V24.2501V24.5532H9.25871L11.5839 15.4849C11.8561 14.4233 12.8128 13.681 13.9087 13.681H35.5314C36.6273 13.681 37.584 14.4233 37.8561 15.4849ZM36.0721 19.2688C35.671 18.9675 35.1724 18.789 34.6321 18.789H14.8072C14.2669 18.789 13.7683 18.9675 13.3672 19.2688V18.1547C13.3672 17.3594 14.0119 16.7147 14.8072 16.7147H34.6321C35.4274 16.7147 36.0721 17.3594 36.0721 18.1547V19.2688ZM13.3672 24.5532H16.9073C17.0623 24.5532 17.2078 24.6281 17.2979 24.7542L19.4704 27.7957C19.9209 28.4264 20.6483 28.8008 21.4233 28.8008H28.3195C29.0946 28.8008 29.822 28.4264 30.2725 27.7957L32.445 24.7542C32.5351 24.6281 32.6806 24.5532 32.8356 24.5532H36.0721V24.2956L35.9755 23.7904C35.9633 23.7263 35.9486 23.6632 35.9315 23.6013C35.6995 23.1171 35.2048 22.7827 34.6321 22.7827H14.8072C14.1447 22.7827 13.5866 23.2302 13.4188 23.8394C13.4108 23.8867 13.4042 23.9345 13.3989 23.9828L13.3672 24.276V24.5532ZM4.31986 34.801C4.31986 31.6199 6.8987 29.041 10.0799 29.041C13.261 29.041 15.8399 31.6199 15.8399 34.801C15.8399 37.9822 13.261 40.5611 10.0799 40.5611C6.8987 40.5611 4.31986 37.9822 4.31986 34.801ZM8.87986 31.681C8.87986 31.0183 9.41712 30.481 10.0799 30.481C10.7426 30.481 11.2799 31.0183 11.2799 31.681V34.561C11.2799 35.2238 10.7426 35.7611 10.0799 35.7611C9.41712 35.7611 8.87986 35.2238 8.87986 34.561V31.681ZM10.0799 31.441C9.94731 31.441 9.83986 31.5485 9.83986 31.681V34.561C9.83986 34.6936 9.94731 34.801 10.0799 34.801C10.2124 34.801 10.3199 34.6936 10.3199 34.561V31.681C10.3199 31.5485 10.2124 31.441 10.0799 31.441ZM10.0799 39.1211C9.41712 39.1211 8.87986 38.5838 8.87986 37.9211C8.87986 37.2583 9.41712 36.7211 10.0799 36.7211C10.7426 36.7211 11.2799 37.2583 11.2799 37.9211C11.2799 38.5838 10.7426 39.1211 10.0799 39.1211ZM9.83986 37.9211C9.83986 38.0536 9.94731 38.1611 10.0799 38.1611C10.2124 38.1611 10.3199 38.0536 10.3199 37.9211C10.3199 37.7885 10.2124 37.6811 10.0799 37.6811C9.94731 37.6811 9.83986 37.7885 9.83986 37.9211Z" fill="#5C5C5C"/>
</svg>
