<svg width="21" height="20" viewBox="0 0 21 20" fill="none" xmlns="http://www.w3.org/2000/svg">
<path d="M16.0625 17.0316H17.3646V15.7295H16.0625V17.0316ZM9.68229 17.0316H10.9844V15.7295H9.68229V17.0316ZM3.30208 17.0316H4.60417V15.7295H3.30208V17.0316ZM8.38021 7.52637V6.87533H7.07812V7.52637C7.07812 7.88593 6.78664 8.17741 6.42708 8.17741C6.06752 8.17741 5.77604 7.88593 5.77604 7.52637V6.87533C5.05692 6.87533 4.47396 7.45829 4.47396 8.17741C4.47396 8.89653 5.05692 9.47949 5.77604 9.47949H14.8906C15.6097 9.47949 16.1927 8.89653 16.1927 8.17741C16.1927 7.45829 15.6097 6.87533 14.8906 6.87533H9.68229V7.52637C9.68229 7.88593 9.39081 8.17741 9.03125 8.17741C8.67169 8.17741 8.38021 7.88593 8.38021 7.52637ZM8.38021 3.62012V2.96908H7.07812V3.62012C7.07812 3.97968 6.78664 4.27116 6.42708 4.27116C6.06752 4.27116 5.77604 3.97968 5.77604 3.62012V2.96908C5.05692 2.96908 4.47396 3.55204 4.47396 4.27116C4.47396 4.99028 5.05692 5.57324 5.77604 5.57324H14.8906C15.6097 5.57324 16.1927 4.99028 16.1927 4.27116C16.1927 3.55204 15.6097 2.96908 14.8906 2.96908H9.68229V3.62012C9.68229 3.97968 9.39081 4.27116 9.03125 4.27116C8.67169 4.27116 8.38021 3.97968 8.38021 3.62012ZM17.4948 4.27116C17.4948 5.04932 17.1529 5.74709 16.6118 6.22428C17.1529 6.70148 17.4948 7.39925 17.4948 8.17741C17.4948 9.61565 16.3289 10.7816 14.8906 10.7816H10.9844V12.0837H16.7135C17.0731 12.0837 17.3646 12.3751 17.3646 12.7347V14.4274H18.0156C18.3752 14.4274 18.6667 14.7189 18.6667 15.0785V17.6826C18.6667 18.0422 18.3752 18.3337 18.0156 18.3337H15.4115C15.0519 18.3337 14.7604 18.0422 14.7604 17.6826V15.0785C14.7604 14.7189 15.0519 14.4274 15.4115 14.4274H16.0625V13.3857H10.9844V14.4274H11.6354C11.995 14.4274 12.2865 14.7189 12.2865 15.0785V17.6826C12.2865 18.0422 11.995 18.3337 11.6354 18.3337H9.03125C8.67169 18.3337 8.38021 18.0422 8.38021 17.6826V15.0785C8.38021 14.7189 8.67169 14.4274 9.03125 14.4274H9.68229V13.3857H4.60417V14.4274H5.25521C5.61477 14.4274 5.90625 14.7189 5.90625 15.0785V17.6826C5.90625 18.0422 5.61477 18.3337 5.25521 18.3337H2.65104C2.29148 18.3337 2 18.0422 2 17.6826V15.0785L2.00339 15.012C2.03668 14.6836 2.31392 14.4274 2.65104 14.4274H3.30208V12.7347L3.30547 12.6682C3.33877 12.3399 3.616 12.0837 3.95312 12.0837H9.68229V10.7816H5.77604C4.3378 10.7816 3.17188 9.61565 3.17188 8.17741C3.17188 7.39943 3.51331 6.70147 4.05417 6.22428C3.51331 5.7471 3.17188 5.04913 3.17188 4.27116C3.17188 2.83292 4.3378 1.66699 5.77604 1.66699H14.8906C16.3289 1.66699 17.4948 2.83292 17.4948 4.27116Z" fill="white"/>
</svg>
