<svg xmlns="http://www.w3.org/2000/svg" width="40" height="41" viewBox="0 0 40 41" fill="none">
<ellipse opacity="0.1" cx="20" cy="39.1453" rx="20" ry="1.19998" fill="#5C5C5C"/>
<path fill-rule="evenodd" clip-rule="evenodd" d="M5.6001 8.19835C5.6001 7.61634 6.07192 7.14453 6.65393 7.14453C7.23595 7.14453 7.70777 7.61634 7.70777 8.19835V10.3662C7.70777 10.9483 7.23595 11.4201 6.65393 11.4201C6.07192 11.4201 5.6001 10.9483 5.6001 10.3662V8.19835ZM6.65393 7.94452C6.51374 7.94452 6.4001 8.05816 6.4001 8.19835V10.3662C6.4001 10.5064 6.51374 10.6201 6.65393 10.6201C6.79412 10.6201 6.90777 10.5064 6.90777 10.3662V8.19835C6.90777 8.05816 6.79412 7.94452 6.65393 7.94452ZM10.4001 12.3445C10.4001 11.2399 11.2955 10.3445 12.4001 10.3445H25.7104C25.1384 11.0254 24.7255 11.8445 24.529 12.7445H10.4001V12.3445ZM24.4142 13.5444H8.8001C7.69553 13.5444 6.8001 14.4399 6.8001 15.5444V17.5444L25.7104 17.5444C24.8926 16.571 24.4001 15.3152 24.4001 13.9444C24.4001 13.8099 24.4048 13.6766 24.4142 13.5444ZM30.8001 19.4876V27.5442H31.6001C32.7047 27.5442 33.6001 26.6488 33.6001 25.5443V18.2341C32.8196 18.8898 31.8575 19.3364 30.8001 19.4876ZM34.4001 17.4089V25.5443C34.4001 27.0906 33.1465 28.3442 31.6001 28.3442H30.8001V28.7442C30.8001 30.2906 29.5465 31.5442 28.0001 31.5442H8.8001C7.2537 31.5442 6.0001 30.2906 6.0001 28.7442V15.5444C6.0001 13.998 7.2537 12.7445 8.8001 12.7445H9.6001V12.3445C9.6001 10.7981 10.8537 9.5445 12.4001 9.5445H26.4001V9.6548C27.3735 8.83705 28.6293 8.34451 30.0001 8.34451C33.0929 8.34451 35.6001 10.8517 35.6001 13.9444C35.6001 15.2524 35.1516 16.4557 34.4001 17.4089ZM6.8001 19.9444L30.0001 19.9444V27.5442V28.3442V28.7442C30.0001 29.8488 29.1047 30.7442 28.0001 30.7442H8.8001C7.69553 30.7442 6.8001 29.8488 6.8001 28.7442V19.9444ZM33.4539 29.5442C32.8719 29.5442 32.4001 30.016 32.4001 30.598V32.7659C32.4001 33.3479 32.8719 33.8198 33.4539 33.8198C34.0359 33.8198 34.5078 33.3479 34.5078 32.7659V30.598C34.5078 30.016 34.0359 29.5442 33.4539 29.5442ZM33.2001 30.598C33.2001 30.4579 33.3137 30.3442 33.4539 30.3442C33.5941 30.3442 33.7078 30.4579 33.7078 30.598V32.7659C33.7078 32.9061 33.5941 33.0198 33.4539 33.0198C33.3137 33.0198 33.2001 32.9061 33.2001 32.7659V30.598ZM25.2001 13.9444C25.2001 11.2935 27.3491 9.1445 30.0001 9.1445C32.6511 9.1445 34.8001 11.2935 34.8001 13.9444C34.8001 16.5954 32.6511 18.7444 30.0001 18.7444C27.3491 18.7444 25.2001 16.5954 25.2001 13.9444ZM29.0001 11.3445C29.0001 10.7922 29.4478 10.3445 30.0001 10.3445C30.5524 10.3445 31.0001 10.7922 31.0001 11.3445V13.7444C31.0001 14.2967 30.5524 14.7444 30.0001 14.7444C29.4478 14.7444 29.0001 14.2967 29.0001 13.7444V11.3445ZM30.0001 11.1445C29.8896 11.1445 29.8001 11.234 29.8001 11.3445V13.7444C29.8001 13.8549 29.8896 13.9444 30.0001 13.9444C30.1106 13.9444 30.2001 13.8549 30.2001 13.7444V11.3445C30.2001 11.234 30.1106 11.1445 30.0001 11.1445ZM30.0001 17.5444C29.4478 17.5444 29.0001 17.0967 29.0001 16.5444C29.0001 15.9921 29.4478 15.5444 30.0001 15.5444C30.5524 15.5444 31.0001 15.9921 31.0001 16.5444C31.0001 17.0967 30.5524 17.5444 30.0001 17.5444ZM29.8001 16.5444C29.8001 16.6549 29.8896 16.7444 30.0001 16.7444C30.1106 16.7444 30.2001 16.6549 30.2001 16.5444C30.2001 16.4339 30.1106 16.3444 30.0001 16.3444C29.8896 16.3444 29.8001 16.4339 29.8001 16.5444ZM16.2001 23.5443C15.6478 23.5443 15.2001 23.992 15.2001 24.5443C15.2001 25.0966 15.6478 25.5443 16.2001 25.5443H27.0001C27.5524 25.5443 28.0001 25.0966 28.0001 24.5443C28.0001 23.992 27.5524 23.5443 27.0001 23.5443H16.2001ZM16.0001 24.5443C16.0001 24.4338 16.0896 24.3443 16.2001 24.3443H27.0001C27.1106 24.3443 27.2001 24.4338 27.2001 24.5443C27.2001 24.6547 27.1106 24.7443 27.0001 24.7443H16.2001C16.0896 24.7443 16.0001 24.6547 16.0001 24.5443ZM11.0001 26.3443C11.9942 26.3443 12.8001 25.5384 12.8001 24.5443C12.8001 23.5502 11.9942 22.7443 11.0001 22.7443C10.006 22.7443 9.2001 23.5502 9.2001 24.5443C9.2001 25.5384 10.006 26.3443 11.0001 26.3443Z" fill="#5C5C5C"/>
</svg>
