<svg width="40" height="40" viewBox="0 0 40 40" fill="none" xmlns="http://www.w3.org/2000/svg">
<g id="Frame">
<g id="Group">
<path id="Vector" d="M15.6248 1.25C7.68569 1.25 1.24976 7.68594 1.24976 15.625C1.24976 16.3154 1.8094 16.875 2.49976 16.875C3.19011 16.875 3.74976 16.3154 3.74976 15.625C3.74976 9.06663 9.06638 3.75 15.6248 3.75C18.4019 3.75 20.9532 4.70174 22.9753 6.29775C23.5173 6.72544 24.3033 6.63287 24.7309 6.09097C25.1587 5.54907 25.0661 4.76305 24.5242 4.33534C22.0767 2.40361 18.9837 1.25 15.6248 1.25Z" fill="#8F8F8F"/>
<path id="Vector_2" d="M15.6248 6.25C10.4471 6.25 6.24976 10.4473 6.24976 15.625V24.375C6.24976 25.0654 6.80938 25.625 7.49976 25.625C8.19013 25.625 8.74976 25.0654 8.74976 24.375V15.625C8.74976 11.8281 11.8278 8.75 15.6248 8.75C19.4217 8.75 22.4998 11.8281 22.4998 15.625V18.6509C23.2778 18.1684 24.1157 17.7733 24.9998 17.4792V15.625C24.9998 10.4473 20.8024 6.25 15.6248 6.25Z" fill="#8F8F8F"/>
<path id="Vector_3" d="M17.8552 33.4839C17.5248 32.7242 17.2714 31.9234 17.105 31.091C16.6282 31.1957 16.1328 31.2509 15.6245 31.2509C12.9883 31.2509 10.6965 29.7675 9.54209 27.5839C9.2194 26.9737 8.46309 26.7405 7.85278 27.0632C7.24247 27.3859 7.00928 28.1422 7.33197 28.7525C8.90234 31.7225 12.0255 33.7509 15.6245 33.7509C16.3932 33.7509 17.1403 33.6584 17.8552 33.4839Z" fill="#8F8F8F"/>
<path id="Vector_4" d="M18.6481 22.5041C17.6581 24.1018 17.0366 25.9519 16.9023 27.9356C16.4981 28.0588 16.0692 28.125 15.6248 28.125C13.2085 28.125 11.2498 26.1663 11.2498 23.75V16.25C11.2498 13.8338 13.2085 11.875 15.6248 11.875C18.041 11.875 19.9998 13.8338 19.9998 16.25V20C19.9998 20.6904 19.4401 21.25 18.7498 21.25C18.0594 21.25 17.4998 20.6904 17.4998 20V16.25C17.4998 15.2144 16.6603 14.375 15.6248 14.375C14.5892 14.375 13.7498 15.2144 13.7498 16.25V23.75C13.7498 24.7856 14.5892 25.625 15.6248 25.625C16.6603 25.625 17.4998 24.7856 17.4998 23.75C17.4998 23.0939 18.0053 22.5558 18.6481 22.5041Z" fill="#8F8F8F"/>
<path id="Vector_5" d="M19.1359 35.7242C19.6699 36.4592 20.2861 37.1305 20.971 37.7248C19.3183 38.3874 17.514 38.7519 15.6246 38.7519C13.6879 38.7519 11.8377 38.3682 10.1481 37.6715C9.50984 37.4084 9.20584 36.6777 9.46896 36.0394C9.73215 35.4012 10.4629 35.0972 11.1011 35.3603C12.4937 35.9345 14.0205 36.2519 15.6246 36.2519C16.847 36.2519 18.0262 36.0672 19.1359 35.7242Z" fill="#8F8F8F"/>
<path id="Vector_6" d="M29.9997 16.9388C29.5889 16.8958 29.1719 16.8738 28.7497 16.8738C28.3275 16.8738 27.9105 16.8958 27.4997 16.9388V15.6238C27.4997 13.383 26.8803 11.2909 25.804 9.50473C25.4478 8.91342 25.6383 8.14523 26.2296 7.78892C26.8209 7.43261 27.5891 7.62311 27.9454 8.21442C29.2497 10.3791 29.9997 12.9158 29.9997 15.6238V16.9388Z" fill="#8F8F8F"/>
<path id="Vector_7" d="M3.74976 20C3.74976 19.3096 3.19011 18.75 2.49976 18.75C1.8094 18.75 1.24976 19.3096 1.24976 20V24.375C1.24976 28.9545 3.3926 33.0343 6.72532 35.6646C7.26726 36.0924 8.05326 35.9998 8.48094 35.4579C8.90869 34.916 8.81607 34.1299 8.27419 33.7022C5.51628 31.5255 3.74976 28.1569 3.74976 24.375V20Z" fill="#8F8F8F"/>
<path id="Vector_8" d="M26.5086 24.7411C26.0205 24.253 25.229 24.253 24.7409 24.7411C24.2527 25.2293 24.2527 26.0208 24.7409 26.5089L26.982 28.75L24.7409 30.9911C24.2527 31.4793 24.2527 32.2708 24.7409 32.7589C25.229 33.2471 26.0205 33.2471 26.5086 32.7589L28.7498 30.5178L30.9909 32.7589C31.479 33.2471 32.2705 33.2471 32.7586 32.7589C33.2468 32.2708 33.2468 31.4793 32.7586 30.9911L30.5175 28.75L32.7586 26.5089C33.2468 26.0208 33.2468 25.2293 32.7586 24.7411C32.2705 24.253 31.479 24.253 30.9909 24.7411L28.7498 26.9823L26.5086 24.7411Z" fill="#8F8F8F"/>
<path id="Vector_9" fill-rule="evenodd" clip-rule="evenodd" d="M28.7498 18.75C34.2726 18.75 38.7498 23.2271 38.7498 28.75C38.7498 34.2729 34.2726 38.75 28.7498 38.75C23.2269 38.75 18.7498 34.2729 18.7498 28.75C18.7498 23.2271 23.2269 18.75 28.7498 18.75ZM36.2498 28.75C36.2498 24.6079 32.8919 21.25 28.7498 21.25C24.6076 21.25 21.2498 24.6079 21.2498 28.75C21.2498 32.8921 24.6076 36.25 28.7498 36.25C32.8919 36.25 36.2498 32.8921 36.2498 28.75Z" fill="#8F8F8F"/>
</g>
</g>
</svg>
