<svg width="24" height="24" viewBox="0 0 24 24" fill="none" xmlns="http://www.w3.org/2000/svg">
<mask id="mask0_5530_79695" style="mask-type:alpha" maskUnits="userSpaceOnUse" x="0" y="0" width="24" height="24">
<rect width="24" height="24" fill="#D9D9D9"/>
</mask>
<g mask="url(#mask0_5530_79695)">
<path d="M12 20.95C9.98333 20.3667 8.30833 19.1583 6.975 17.325C5.65833 15.475 5 13.4 5 11.1V5.7L12 3.075L19 5.7V11.1C19 13.4 18.3333 15.475 17 17.325C15.6833 19.1583 14.0167 20.3667 12 20.95ZM12 19.9C13.7333 19.35 15.1667 18.25 16.3 16.6C17.4333 14.95 18 13.1167 18 11.1V6.375L12 4.15L6 6.375V11.1C6 13.1167 6.56667 14.95 7.7 16.6C8.83333 18.25 10.2667 19.35 12 19.9ZM10.05 15.65H13.95C14.1833 15.65 14.375 15.575 14.525 15.425C14.6917 15.275 14.775 15.0833 14.775 14.85V11.925C14.775 11.6917 14.6917 11.5 14.525 11.35C14.375 11.2 14.1833 11.125 13.95 11.125H13.8V10.125C13.8 9.625 13.625 9.20833 13.275 8.875C12.9417 8.525 12.525 8.35 12.025 8.35C11.525 8.35 11.1 8.525 10.75 8.875C10.4167 9.20833 10.25 9.625 10.25 10.125V11.125H10.05C9.81667 11.125 9.61667 11.2 9.45 11.35C9.3 11.5 9.225 11.6917 9.225 11.925V14.85C9.225 15.0833 9.3 15.275 9.45 15.425C9.61667 15.575 9.81667 15.65 10.05 15.65ZM11.025 11.125V10.125C11.025 9.84167 11.1167 9.60833 11.3 9.425C11.5 9.225 11.7417 9.125 12.025 9.125C12.3083 9.125 12.5417 9.225 12.725 9.425C12.925 9.60833 13.025 9.84167 13.025 10.125V11.125H11.025Z" fill="#639FF9"/>
</g>
</svg>
