<svg width="43" height="46" viewBox="0 0 43 46" fill="none" xmlns="http://www.w3.org/2000/svg">
<path d="M12.0493 20.4045C13.8866 20.4045 15.3743 21.8922 15.3743 23.7295V41.7795C15.3743 42.6613 15.0239 43.5071 14.4004 44.1306C13.7768 44.7542 12.9311 45.1045 12.0493 45.1045H3.49166C2.60981 45.1045 1.76409 44.7542 1.14053 44.1306C0.516968 43.5071 0.166656 42.6613 0.166656 41.7795V23.7295C0.166656 21.8922 1.65626 20.4045 3.49166 20.4045H12.0493ZM12.0493 23.2545H3.49166C3.36568 23.2545 3.24486 23.3045 3.15578 23.3936C3.0667 23.4827 3.01666 23.6035 3.01666 23.7295V41.7795C3.01666 42.0417 3.22946 42.2545 3.49166 42.2545H12.0493C12.1752 42.2545 12.2961 42.2044 12.3851 42.1154C12.4742 42.0263 12.5243 41.9055 12.5243 41.7795V23.7295C12.5243 23.6035 12.4742 23.4827 12.3851 23.3936C12.2961 23.3045 12.1752 23.2545 12.0493 23.2545ZM8.24166 37.5045C8.6027 37.5046 8.95024 37.6418 9.21406 37.8882C9.47788 38.1347 9.6383 38.4722 9.66291 38.8324C9.68751 39.1926 9.57448 39.5487 9.34663 39.8288C9.11879 40.1088 8.79313 40.292 8.43546 40.3412L8.24166 40.3545H7.29166C6.93077 40.3539 6.58356 40.2164 6.3201 39.9698C6.05665 39.7231 5.89659 39.3857 5.87223 39.0257C5.84787 38.6656 5.96103 38.3097 6.18887 38.0299C6.4167 37.75 6.74224 37.567 7.09976 37.5178L7.28976 37.5045H8.24166ZM33.8917 7.10449C34.9749 7.10436 36.0178 7.51545 36.8096 8.25469C37.6014 8.99393 38.083 10.0062 38.1572 11.0869L38.1667 11.3795V28.4795C38.1668 29.5627 37.7557 30.6056 37.0165 31.3974C36.2772 32.1892 35.265 32.6709 34.1843 32.745L33.8917 32.7545H26.7743V36.5545H29.1417C29.5027 36.5546 29.8502 36.6918 30.1141 36.9382C30.3779 37.1847 30.5383 37.5222 30.5629 37.8824C30.5875 38.2426 30.4745 38.5987 30.2466 38.8788C30.0188 39.1588 29.6931 39.342 29.3355 39.3912L29.1417 39.4045H17.2667V36.5545H23.9243V32.7545H17.2667V29.9045H33.8917C34.2363 29.9049 34.5695 29.7804 34.8294 29.5541C35.0893 29.3277 35.2584 29.0148 35.3053 28.6733L35.3167 28.4795V11.3795C35.3167 11.0016 35.1665 10.6391 34.8993 10.3719C34.632 10.1046 34.2696 9.95449 33.8917 9.95449H8.24166C7.89731 9.95451 7.56461 10.0792 7.30509 10.3055C7.04557 10.5319 6.87679 10.8445 6.82996 11.1857L6.81666 11.3795V18.5045H3.96666V11.3795C3.96652 10.2963 4.37762 9.25335 5.11686 8.46156C5.8561 7.66977 6.86836 7.18813 7.94906 7.11399L8.24166 7.10449H33.8917Z" fill="url(#paint0_linear_2003_1018)"/>
<rect x="18.5" y="1.5" width="23" height="23" rx="11.5" fill="#5C5C5C"/>
<rect x="18.5" y="1.5" width="23" height="23" rx="11.5" stroke="#282828" stroke-width="3"/>
<path d="M29.5322 12.0648L28.3632 13.2338M30.935 13.4676L29.766 14.6366M29.0646 17.2085C27.8955 18.3775 26.7265 18.1437 25.7913 17.2085C24.8561 16.2733 24.6223 15.1042 25.7913 13.9352L27.1941 12.5324L30.4674 15.8057L29.0646 17.2085ZM30.935 8.79151C32.104 7.62249 33.2731 7.85629 34.2087 8.79151C35.1444 9.72673 35.3773 10.8958 34.2087 12.0648L32.8059 13.4676L29.5322 10.1943L30.935 8.79151Z" stroke="#BCBCBC" stroke-width="0.93522"/>
<defs>
<linearGradient id="paint0_linear_2003_1018" x1="0.166656" y1="7.10449" x2="38.1667" y2="45.1045" gradientUnits="userSpaceOnUse">
<stop stop-color="white" stop-opacity="0.6"/>
<stop offset="1" stop-color="white" stop-opacity="0.1"/>
</linearGradient>
</defs>
</svg>
