<svg width="20" height="20" viewBox="0 0 20 20" fill="none" xmlns="http://www.w3.org/2000/svg">
<path d="M2.22426 12.0089C2.22426 11.8274 2.29498 11.6534 2.42085 11.5251C2.54672 11.3968 2.71744 11.3247 2.89545 11.3247C3.07345 11.3247 3.24417 11.3968 3.37004 11.5251C3.49591 11.6534 3.56663 11.8274 3.56663 12.0089C3.56663 12.1904 3.49591 12.3644 3.37004 12.4927C3.24417 12.621 3.07345 12.6931 2.89545 12.6931C2.71744 12.6931 2.54672 12.621 2.42085 12.4927C2.29498 12.3644 2.22426 12.1904 2.22426 12.0089ZM4.12426 12.0089C4.12426 11.8701 4.08746 11.7427 4.04649 11.6174C3.88399 11.1204 3.43815 10.7565 2.89579 10.7565C2.80899 10.7565 2.7326 10.7891 2.65065 10.8061C2.09371 10.925 1.66663 11.4057 1.66663 12.0089C1.67425 12.336 1.80707 12.6471 2.03668 12.8756C2.2663 13.1042 2.57451 13.2322 2.89545 13.2322C3.21638 13.2322 3.52459 13.1042 3.75421 12.8756C3.98382 12.6471 4.11664 12.336 4.12426 12.0089ZM2.8951 6.94779C2.98328 6.94779 3.07061 6.9655 3.15208 6.99991C3.23355 7.03431 3.30758 7.08473 3.36994 7.1483C3.4323 7.21187 3.48176 7.28734 3.51551 7.3704C3.54926 7.45346 3.56663 7.54248 3.56663 7.63238C3.56663 7.72228 3.54926 7.8113 3.51551 7.89436C3.48176 7.97741 3.4323 8.05288 3.36994 8.11645C3.30758 8.18002 3.23355 8.23045 3.15208 8.26485C3.07061 8.29926 2.98328 8.31696 2.8951 8.31696C2.717 8.31696 2.54619 8.24484 2.42026 8.11645C2.29432 7.98807 2.22357 7.81394 2.22357 7.63238C2.22357 7.45082 2.29432 7.27669 2.42026 7.1483C2.54619 7.01992 2.717 6.94779 2.8951 6.94779ZM2.8951 8.88474C3.05651 8.88474 3.21635 8.85232 3.36548 8.78935C3.51461 8.72638 3.65011 8.63408 3.76425 8.51772C3.87839 8.40136 3.96893 8.26323 4.0307 8.1112C4.09247 7.95917 4.12426 7.79623 4.12426 7.63167C4.12426 7.49362 4.08746 7.36548 4.04649 7.24088C3.88399 6.74391 3.43746 6.37931 2.89579 6.37931C2.80899 6.37931 2.7326 6.41259 2.65065 6.43029C2.09371 6.54851 1.66663 7.0285 1.66663 7.63167C1.66663 8.32333 2.21593 8.88474 2.8951 8.88474ZM12.0763 4.85369C11.9882 4.85369 11.9009 4.83598 11.8195 4.80156C11.738 4.76715 11.6641 4.71671 11.6018 4.65314C11.5395 4.58956 11.4901 4.51408 11.4564 4.43103C11.4227 4.34798 11.4054 4.25897 11.4055 4.16911C11.4055 4.07924 11.4229 3.99025 11.4566 3.90723C11.4904 3.82422 11.5399 3.74879 11.6022 3.68528C11.6646 3.62177 11.7386 3.57141 11.8201 3.53708C11.9016 3.50276 11.9889 3.48514 12.077 3.48523C12.2551 3.48523 12.4258 3.55732 12.5516 3.68564C12.6775 3.81395 12.7482 3.98799 12.7482 4.16946C12.7482 4.35093 12.6775 4.52496 12.5516 4.65328C12.4258 4.7816 12.2551 4.85369 12.077 4.85369M5.41038 16.544C5.2361 16.5383 5.07085 16.4637 4.94955 16.336C4.82826 16.2083 4.76044 16.0375 4.76044 15.8598C4.76044 15.682 4.82826 15.5112 4.94955 15.3835C5.07085 15.2559 5.2361 15.1813 5.41038 15.1755C5.49853 15.1755 5.58582 15.1933 5.66725 15.2277C5.74869 15.2621 5.82267 15.3125 5.88497 15.3761C5.94727 15.4397 5.99667 15.5152 6.03034 15.5982C6.06402 15.6813 6.0813 15.7703 6.08121 15.8601C6.08121 16.0415 6.01053 16.2155 5.88473 16.3437C5.75892 16.472 5.58829 16.544 5.41038 16.544ZM12.077 2.91675C11.751 2.91675 11.4384 3.04877 11.2079 3.28376C10.9774 3.51876 10.8479 3.83748 10.8479 4.16981C10.8479 4.31707 10.8847 4.45441 10.9305 4.58609L5.16593 14.6573C4.60829 14.7763 4.18121 15.2563 4.18121 15.8601C4.18884 16.1872 4.32165 16.4983 4.55127 16.7269C4.78088 16.9555 5.08909 17.0834 5.41003 17.0834C5.73097 17.0834 6.03917 16.9555 6.26879 16.7269C6.49841 16.4983 6.63122 16.1872 6.63885 15.8601C6.63472 15.7262 6.60866 15.5938 6.56176 15.4686L12.3555 5.36412C12.8958 5.23244 13.3055 4.76024 13.3055 4.16911C13.3053 3.83689 13.1757 3.51835 12.9453 3.28351C12.7148 3.04867 12.4022 2.91675 12.0763 2.91675M17.1041 4.85369C17.016 4.85369 16.9287 4.83598 16.8472 4.80156C16.7658 4.76715 16.6918 4.71671 16.6295 4.65314C16.5672 4.58956 16.5178 4.51408 16.4842 4.43103C16.4505 4.34798 16.4332 4.25897 16.4333 4.16911C16.4333 4.07924 16.4507 3.99025 16.4844 3.90723C16.5182 3.82422 16.5677 3.74879 16.63 3.68528C16.6924 3.62177 16.7664 3.57141 16.8479 3.53708C16.9294 3.50276 17.0167 3.48514 17.1048 3.48523C17.2828 3.48523 17.4535 3.55732 17.5794 3.68564C17.7053 3.81395 17.776 3.98799 17.776 4.16946C17.776 4.35093 17.7053 4.52496 17.5794 4.65328C17.4535 4.7816 17.2828 4.85369 17.1048 4.85369M10.4382 16.544C10.2602 16.544 10.0896 16.472 9.9638 16.3437C9.838 16.2155 9.76732 16.0415 9.76732 15.8601C9.76723 15.7703 9.78451 15.6813 9.81819 15.5982C9.85186 15.5152 9.90126 15.4397 9.96356 15.3761C10.0259 15.3125 10.0998 15.2621 10.1813 15.2277C10.2627 15.1933 10.35 15.1755 10.4382 15.1755C10.6162 15.1755 10.7869 15.2476 10.9128 15.376C11.0386 15.5043 11.1093 15.6783 11.1093 15.8598C11.1093 16.0412 11.0386 16.2153 10.9128 16.3436C10.7869 16.4719 10.6162 16.544 10.4382 16.544ZM17.1048 2.91675C16.7788 2.91675 16.4662 3.04877 16.2357 3.28376C16.0052 3.51876 15.8757 3.83748 15.8757 4.16981C15.8757 4.31707 15.9125 4.45441 15.9583 4.58609L10.1937 14.6573C9.63677 14.7763 9.20968 15.2563 9.20968 15.8601C9.2204 16.185 9.35452 16.4929 9.58373 16.7188C9.81295 16.9448 10.1193 17.0711 10.4382 17.0711C10.757 17.0711 11.0634 16.9448 11.2926 16.7188C11.5218 16.4929 11.6559 16.185 11.6666 15.8601C11.6666 15.7207 11.6298 15.5939 11.5895 15.4686L17.3833 5.36412C17.9229 5.23244 18.3333 4.76024 18.3333 4.16911C18.3331 3.83689 18.2035 3.51835 17.973 3.28351C17.7425 3.04867 17.43 2.91675 17.1041 2.91675" fill="white"/>
</svg>
