<svg width="20" height="20" viewBox="0 0 20 20" fill="none" xmlns="http://www.w3.org/2000/svg">
<mask id="mask0_241_9120" style="mask-type:alpha" maskUnits="userSpaceOnUse" x="0" y="0" width="20" height="20">
<rect width="20" height="20" fill="#D9D9D9"/>
</mask>
<g mask="url(#mask0_241_9120)">
<path d="M14 13C13.3056 13 12.7153 12.7569 12.2292 12.2708C11.7431 11.7847 11.5 11.1944 11.5 10.5C11.5 9.80556 11.7431 9.21528 12.2292 8.72917C12.7153 8.24305 13.3056 8 14 8C14.6944 8 15.2847 8.24305 15.7708 8.72917C16.2569 9.21528 16.5 9.80556 16.5 10.5C16.5 11.1944 16.2569 11.7847 15.7708 12.2708C15.2847 12.7569 14.6944 13 14 13ZM14 11.5C14.2778 11.5 14.5139 11.4028 14.7083 11.2083C14.9028 11.0139 15 10.7778 15 10.5C15 10.2222 14.9028 9.98611 14.7083 9.79167C14.5139 9.59722 14.2778 9.5 14 9.5C13.7222 9.5 13.4861 9.59722 13.2917 9.79167C13.0972 9.98611 13 10.2222 13 10.5C13 10.7778 13.0972 11.0139 13.2917 11.2083C13.4861 11.4028 13.7222 11.5 14 11.5ZM9 18.9792V16.5417C9 16.25 9.06944 15.9792 9.20833 15.7292C9.34722 15.4653 9.54167 15.2569 9.79167 15.1042C10.2361 14.8403 10.6944 14.625 11.1667 14.4583C11.6528 14.2917 12.1458 14.1667 12.6458 14.0833L14 15.7083L15.3542 14.0833C15.8542 14.1667 16.3403 14.2917 16.8125 14.4583C17.2986 14.625 17.7639 14.8403 18.2083 15.1042C18.4583 15.2569 18.6528 15.4653 18.7917 15.7292C18.9306 15.9792 19 16.25 19 16.5417V18.9792H9ZM10.5 17.4792H13.5208L12.0833 15.75C11.8056 15.8194 11.5278 15.9167 11.25 16.0417C10.9861 16.1528 10.7361 16.2847 10.5 16.4375V17.4792ZM14.4792 17.4792H17.5V16.4375C17.2639 16.2847 17.0069 16.1528 16.7292 16.0417C16.4653 15.9167 16.1944 15.8194 15.9167 15.75L14.4792 17.4792ZM4.5 17C4.08333 17 3.72917 16.8542 3.4375 16.5625C3.14583 16.2708 3 15.9167 3 15.5V4.5C3 4.08333 3.14583 3.72917 3.4375 3.4375C3.72917 3.14583 4.08333 3 4.5 3H15.5C15.9167 3 16.2708 3.14583 16.5625 3.4375C16.8542 3.72917 17 4.08333 17 4.5V7.85417C16.7917 7.61805 16.5625 7.40972 16.3125 7.22917C16.0625 7.04861 15.7917 6.90278 15.5 6.79167V4.5H4.5V15.5H7.6875C7.61806 15.6667 7.56944 15.8403 7.54167 16.0208C7.51389 16.1875 7.5 16.3611 7.5 16.5417V17H4.5ZM6 7.5H11.3542C11.7153 7.18055 12.125 6.9375 12.5833 6.77083C13.0417 6.59028 13.5139 6.5 14 6.5V6H6V7.5ZM6 10.75H10C9.97222 10.5 9.97917 10.25 10.0208 10C10.0625 9.73611 10.125 9.48611 10.2083 9.25H6V10.75ZM6 14H8.75C8.94444 13.8472 9.15278 13.7222 9.375 13.625C9.61111 13.5139 9.84722 13.4097 10.0833 13.3125V12.5H6V14ZM4.5 15.5V4.5V6.79167C4.5 6.69444 4.5 6.625 4.5 6.58333C4.5 6.52778 4.5 6.5 4.5 6.5C4.5 6.5 4.5 6.88889 4.5 7.66667C4.5 8.44444 4.5 9.38889 4.5 10.5C4.5 10.9167 4.5 11.3403 4.5 11.7708C4.5 12.1875 4.5 12.6042 4.5 13.0208C4.5 13.1597 4.5 13.2917 4.5 13.4167C4.5 13.5417 4.5 13.6736 4.5 13.8125C4.5 14.0903 4.5 14.375 4.5 14.6667C4.5 14.9444 4.5 15.2222 4.5 15.5Z" fill="white"/>
</g>
</svg>
