<svg width="16" height="16" viewBox="0 0 16 16" fill="none" xmlns="http://www.w3.org/2000/svg">
<mask id="mask0_311_12117" style="mask-type:alpha" maskUnits="userSpaceOnUse" x="0" y="0" width="16" height="16">
<rect width="16" height="16" fill="#D9D9D9"/>
</mask>
<g mask="url(#mask0_311_12117)">
<path d="M3.06667 12.0833C2.6 11.5278 2.23889 10.9056 1.98333 10.2167C1.72778 9.51667 1.6 8.77778 1.6 8C1.6 7.22222 1.72778 6.48889 1.98333 5.8C2.23889 5.1 2.6 4.47222 3.06667 3.91667L3.93333 4.76667C3.57778 5.21111 3.3 5.71111 3.1 6.26667C2.9 6.81111 2.8 7.38889 2.8 8C2.8 8.61111 2.9 9.19444 3.1 9.75C3.3 10.2944 3.57778 10.7889 3.93333 11.2333L3.06667 12.0833ZM8 14.4C7.22222 14.4 6.48333 14.2722 5.78333 14.0167C5.09445 13.7611 4.47222 13.4 3.91667 12.9333L4.76667 12.0667C5.21111 12.4222 5.70556 12.7 6.25 12.9C6.80556 13.1 7.38889 13.2 8 13.2C8.61111 13.2 9.18889 13.1 9.73333 12.9C10.2889 12.7 10.7889 12.4222 11.2333 12.0667L12.0833 12.9333C11.5278 13.4 10.9 13.7611 10.2 14.0167C9.51111 14.2722 8.77778 14.4 8 14.4ZM12.9333 12.0833L12.0667 11.2333C12.4222 10.7889 12.7 10.2944 12.9 9.75C13.1 9.19444 13.2 8.61111 13.2 8C13.2 7.38889 13.1 6.81111 12.9 6.26667C12.7 5.71111 12.4222 5.21111 12.0667 4.76667L12.9333 3.91667C13.4 4.47222 13.7611 5.1 14.0167 5.8C14.2722 6.48889 14.4 7.22222 14.4 8C14.4 8.77778 14.2722 9.51667 14.0167 10.2167C13.7611 10.9056 13.4 11.5278 12.9333 12.0833ZM4.76667 3.93333L3.91667 3.06667C4.47222 2.6 5.09445 2.23889 5.78333 1.98333C6.48333 1.72778 7.22222 1.6 8 1.6C8.77778 1.6 9.51111 1.72778 10.2 1.98333C10.9 2.23889 11.5278 2.6 12.0833 3.06667L11.2333 3.93333C10.7889 3.57778 10.2889 3.3 9.73333 3.1C9.18889 2.9 8.61111 2.8 8 2.8C7.38889 2.8 6.80556 2.9 6.25 3.1C5.70556 3.3 5.21111 3.57778 4.76667 3.93333ZM8 11.2C7.11111 11.2 6.35556 10.8889 5.73333 10.2667C5.11111 9.64444 4.8 8.88889 4.8 8C4.8 7.11111 5.11111 6.35556 5.73333 5.73333C6.35556 5.11111 7.11111 4.8 8 4.8C8.88889 4.8 9.64445 5.11111 10.2667 5.73333C10.8889 6.35556 11.2 7.11111 11.2 8C11.2 8.88889 10.8889 9.64444 10.2667 10.2667C9.64445 10.8889 8.88889 11.2 8 11.2Z" fill="#B9BABE"/>
</g>
</svg>
