<svg xmlns="http://www.w3.org/2000/svg" width="72" height="72" viewBox="0 0 72 72" fill="none">
  <ellipse opacity="0.1" cx="36.0004" cy="69.8397" rx="35.9999" ry="2.15999" fill="#8F8F8F"/>
  <path fill-rule="evenodd" clip-rule="evenodd" d="M55.9117 11.946C55.9277 10.8985 56.7899 10.0623 57.8374 10.0784C58.8849 10.0944 59.7211 10.9565 59.7051 12.004L59.6454 15.9058C59.6294 16.9533 58.7673 17.7895 57.7198 17.7735C56.6723 17.7575 55.8361 16.8954 55.8521 15.8479L55.9117 11.946ZM57.8154 11.5182C57.5631 11.5143 57.3554 11.7157 57.3515 11.9681L57.2919 15.8699C57.2881 16.1222 57.4895 16.3298 57.7418 16.3337C57.9941 16.3376 58.2018 16.1361 58.2056 15.8838L58.2652 11.982C58.2691 11.7297 58.0677 11.522 57.8154 11.5182ZM59.9195 19.8274C59.9355 18.7799 60.7977 17.9437 61.8452 17.9597L65.747 18.0193C66.7945 18.0353 67.6307 18.8975 67.6147 19.945C67.5987 20.9925 66.7365 21.8287 65.689 21.8127L61.7872 21.753C60.7397 21.737 59.9035 20.8749 59.9195 19.8274ZM61.8232 19.3995C61.5709 19.3957 61.3632 19.5971 61.3593 19.8494C61.3555 20.1017 61.5569 20.3094 61.8092 20.3132L65.711 20.3728C65.9633 20.3767 66.171 20.1753 66.1748 19.923C66.1787 19.6707 65.9773 19.463 65.725 19.4591L61.8232 19.3995ZM15.9814 22.8678C16.5531 20.6385 18.5621 19.0796 20.8635 19.0796H53.2974C55.5987 19.0796 57.6078 20.6385 58.1794 22.8678L61.6782 36.5132C61.8472 37.1724 61.881 37.8589 61.7776 38.5314L59.745 51.7433C59.3667 54.202 57.2512 56.017 54.7636 56.017H24.4523C22.9477 59.6913 19.3362 62.2796 15.1202 62.2796C9.55324 62.2796 5.04028 57.7666 5.04028 52.1996C5.04028 47.383 8.41861 43.3554 12.935 42.3571L12.3733 38.5099C12.2769 37.8495 12.3126 37.1765 12.4783 36.5299L15.9814 22.8678ZM14.3597 42.1479C14.6108 42.1291 14.8644 42.1196 15.1202 42.1196C20.6873 42.1196 25.2002 46.6326 25.2002 52.1996C25.2002 53.0185 25.1025 53.8147 24.9182 54.577H54.7636C56.5404 54.577 58.0515 53.2806 58.3217 51.5244L60.3543 38.3124L60.3585 38.2846L60.3609 38.2679H49.6242L46.5808 42.5286C45.6348 43.8531 44.1073 44.6392 42.4796 44.6392H32.1354C30.5078 44.6392 28.9803 43.8531 28.0342 42.5286L24.9908 38.2679H13.7934L13.7982 38.3019L14.3597 42.1479ZM56.7845 23.2254L60.2723 36.8279H55.5485V36.3733V36.3322V32.5419V31.7816V27.2302C55.5485 25.242 53.9367 23.6302 51.9485 23.6302H22.2112C20.223 23.6302 18.6112 25.242 18.6112 27.2302V31.7816V32.5419V36.3322V36.3733V36.8279H13.8885L17.3763 23.2254C17.7846 21.6331 19.2197 20.5196 20.8635 20.5196H53.2974C54.9412 20.5196 56.3763 21.6331 56.7845 23.2254ZM54.1085 28.9013C53.5068 28.4494 52.7589 28.1816 51.9485 28.1816H22.2112C21.4008 28.1816 20.6529 28.4494 20.0512 28.9013V27.2302C20.0512 26.0373 21.0183 25.0702 22.2112 25.0702H51.9485C53.1414 25.0702 54.1085 26.0373 54.1085 27.2302V28.9013ZM20.0512 36.8279H25.3614C25.5939 36.8279 25.8121 36.9402 25.9472 37.1294L29.206 41.6917C29.8818 42.6377 30.9728 43.1992 32.1354 43.1992H42.4796C43.6423 43.1992 44.7333 42.6377 45.4091 41.6917L48.6678 37.1294C48.803 36.9402 49.0212 36.8279 49.2537 36.8279H54.1085V36.4414L53.9636 35.6837C53.9453 35.5876 53.9232 35.493 53.8975 35.4C53.5495 34.6737 52.8076 34.1722 51.9485 34.1722H22.2112C21.2174 34.1722 20.3804 34.8434 20.1286 35.7572C20.1166 35.8281 20.1067 35.8999 20.0988 35.9723L20.0512 36.4121V36.8279ZM6.48028 52.1996C6.48028 47.4279 10.3485 43.5596 15.1202 43.5596C19.892 43.5596 23.7602 47.4279 23.7602 52.1996C23.7602 56.9714 19.892 60.8396 15.1202 60.8396C10.3485 60.8396 6.48028 56.9714 6.48028 52.1996ZM13.3203 47.5196C13.3203 46.5255 14.1261 45.7196 15.1202 45.7196C16.1144 45.7196 16.9202 46.5255 16.9202 47.5196V51.8396C16.9202 52.8337 16.1144 53.6396 15.1202 53.6396C14.1261 53.6396 13.3203 52.8337 13.3203 51.8396V47.5196ZM15.1202 47.1596C14.9214 47.1596 14.7602 47.3208 14.7602 47.5196V51.8396C14.7602 52.0384 14.9214 52.1996 15.1202 52.1996C15.3191 52.1996 15.4802 52.0384 15.4802 51.8396V47.5196C15.4802 47.3208 15.3191 47.1596 15.1202 47.1596ZM15.1202 58.6796C14.1261 58.6796 13.3203 57.8737 13.3203 56.8796C13.3203 55.8855 14.1261 55.0796 15.1202 55.0796C16.1144 55.0796 16.9202 55.8855 16.9202 56.8796C16.9202 57.8737 16.1144 58.6796 15.1202 58.6796ZM14.7602 56.8796C14.7602 57.0784 14.9214 57.2396 15.1202 57.2396C15.3191 57.2396 15.4802 57.0784 15.4802 56.8796C15.4802 56.6808 15.3191 56.5196 15.1202 56.5196C14.9214 56.5196 14.7602 56.6808 14.7602 56.8796Z" fill="#8F8F8F"/>
</svg>
