<svg width="40" height="40" viewBox="0 0 40 40" fill="none" xmlns="http://www.w3.org/2000/svg">
<rect width="40" height="40" rx="20" fill="#004EEB"/>
<path fill-rule="evenodd" clip-rule="evenodd" d="M13.2585 11.875C12.8916 11.875 12.5397 12.0208 12.2802 12.2802C12.0208 12.5397 11.875 12.8916 11.875 13.2585V14.6419H27.1928V13.2585C27.1928 12.8916 27.047 12.5397 26.7876 12.2802C26.5281 12.0208 26.1762 11.875 25.8093 11.875H13.2585ZM11.875 16.3919H28.9428V13.2585C28.9428 12.4274 28.6126 11.6304 28.025 11.0428C27.4374 10.4551 26.6404 10.125 25.8093 10.125H13.2585C12.4274 10.125 11.6304 10.4551 11.0428 11.0428C10.4551 11.6304 10.125 12.4274 10.125 13.2585V24.5508C10.125 25.3819 10.4551 26.1789 11.0428 26.7665C11.6304 27.3542 12.4274 27.6843 13.2585 27.6843H16.7754C17.2587 27.6843 17.6504 27.2926 17.6504 26.8093C17.6504 26.3261 17.2587 25.9343 16.7754 25.9343H13.2585C12.8916 25.9343 12.5397 25.7886 12.2802 25.5291C12.0208 25.2696 11.875 24.9178 11.875 24.5508V22.0381H16.7754C17.2587 22.0381 17.6504 21.6464 17.6504 21.1631C17.6504 20.6799 17.2587 20.2881 16.7754 20.2881H11.875V16.3919Z" fill="white"/>
<path d="M19.2675 25.5009C19.0921 25.1948 19 24.8503 19 24.5C19 24.1497 19.0921 23.8052 19.2675 23.4991L19.9849 22.25L20.7405 21.0246C20.9259 20.7238 21.1873 20.474 21.5001 20.2986C21.8128 20.1233 22.1664 20.0283 22.5276 20.0227L24.0005 20L25.4735 20.0227C25.8345 20.0282 26.1881 20.1231 26.5008 20.2982C26.8135 20.4733 27.075 20.723 27.2606 21.0236L28.0172 22.25L28.7325 23.4991C28.9079 23.8052 29 24.1497 29 24.5C29 24.8503 28.9079 25.1948 28.7325 25.5009L28.0172 26.75L27.2606 27.9754C27.0752 28.2762 26.8137 28.526 26.501 28.7014C26.1883 28.8767 25.8346 28.9717 25.4735 28.9773L24.0005 29L22.5276 28.9773C22.1665 28.9718 21.8129 28.8769 21.5002 28.7018C21.1875 28.5267 20.926 28.277 20.7405 27.9764L19.9838 26.75L19.2675 25.5009Z" stroke="white" stroke-width="1.75" stroke-linecap="round"/>
<path d="M24.1292 25.2585C24.7529 25.2585 25.2585 24.7529 25.2585 24.1292C25.2585 23.5056 24.7529 23 24.1292 23C23.5056 23 23 23.5056 23 24.1292C23 24.7529 23.5056 25.2585 24.1292 25.2585Z" fill="white"/>
</svg>
