<?xml version="1.0" encoding="UTF-8"?>
<svg xmlns="http://www.w3.org/2000/svg" xmlns:xlink="http://www.w3.org/1999/xlink" width="776pt" height="312pt" viewBox="0 0 776 312" version="1.1">
<g id="surface1">
<path style=" stroke:none;fill-rule:evenodd;fill:rgb(7.843137%,25.490196%,48.627451%);fill-opacity:1;" d="M 146.890625 44.152344 C 145.074219 43.359375 142.097656 43.355469 140.28125 44.144531 L 49.835938 83.316406 C 48.015625 84.105469 47.929688 85.566406 49.640625 86.566406 L 140.261719 139.355469 C 141.976562 140.355469 143.378906 142.792969 143.382812 144.773438 L 143.4375 248.574219 C 143.4375 250.558594 144.75 251.226562 146.347656 250.058594 L 224.976562 192.699219 C 226.578125 191.53125 228.074219 188.960938 228.300781 186.996094 L 239.691406 88.5 C 239.921875 86.53125 238.621094 84.269531 236.804688 83.476562 Z M 284.019531 56.707031 C 285.851562 57.460938 287.125 59.679688 286.847656 61.640625 L 266.070312 208.40625 C 265.796875 210.363281 264.289062 212.96875 262.730469 214.191406 L 146.300781 305.21875 C 144.742188 306.441406 142.183594 306.441406 140.625 305.21875 L 24.207031 214.191406 C 22.644531 212.96875 21.136719 210.363281 20.859375 208.40625 L 0.0390625 61.636719 C -0.238281 59.675781 1.035156 57.460938 2.867188 56.707031 L 140.246094 0.5625 C 142.078125 -0.1875 145.078125 -0.1875 146.917969 0.5625 Z M 428.078125 146.84375 L 413.511719 103.863281 C 413.203125 102.957031 412.699219 102.957031 412.382812 103.859375 L 397.328125 146.847656 C 397.011719 147.75 397.535156 148.488281 398.492188 148.488281 L 426.898438 148.488281 C 427.851562 148.488281 428.382812 147.746094 428.078125 146.84375 Z M 392.90625 59.816406 L 433.5625 59.816406 C 434.515625 59.816406 435.566406 60.546875 435.898438 61.445312 L 490.476562 209.582031 C 490.804688 210.476562 490.292969 211.210938 489.339844 211.210938 L 448.304688 211.210938 C 447.347656 211.210938 446.351562 210.460938 446.085938 209.542969 L 438.980469 184.921875 C 438.714844 184.003906 437.71875 183.25 436.765625 183.25 L 388.367188 183.25 C 387.410156 183.25 386.414062 184.003906 386.152344 184.921875 L 379.050781 209.542969 C 378.785156 210.460938 377.789062 211.210938 376.832031 211.210938 L 337.746094 211.210938 C 336.789062 211.210938 336.277344 210.476562 336.601562 209.578125 L 390.574219 61.449219 C 390.902344 60.546875 391.953125 59.816406 392.90625 59.816406 Z M 564.898438 177.402344 C 583.179688 177.402344 590.808594 171.507812 590.808594 134.996094 C 590.808594 97.136719 582.445312 92.988281 564.703125 92.988281 C 546.945312 92.988281 538.589844 97.136719 538.589844 134.996094 C 538.589844 171.507812 546.351562 177.402344 564.898438 177.402344 Z M 564.703125 57.871094 C 610.6875 57.871094 631.203125 81.664062 631.203125 135.003906 C 631.203125 189.332031 611.316406 212.511719 564.703125 212.511719 C 519.203125 212.511719 498.019531 187.882812 498.019531 135.003906 C 498.019531 81.664062 518.585938 57.871094 564.703125 57.871094 Z M 655.632812 209.410156 L 655.632812 177.699219 C 655.632812 176.765625 656.398438 176.003906 657.328125 176.003906 L 772.972656 176.003906 C 773.90625 176.003906 774.667969 176.765625 774.667969 177.699219 L 774.667969 209.410156 C 774.667969 210.34375 773.90625 211.109375 772.972656 211.109375 L 657.328125 211.109375 C 656.398438 211.109375 655.632812 210.34375 655.632812 209.410156 Z M 657.300781 59.816406 L 772.945312 59.816406 C 773.878906 59.816406 774.640625 60.578125 774.640625 61.511719 L 774.640625 93.21875 C 774.640625 94.152344 773.878906 94.910156 772.945312 94.910156 L 657.300781 94.910156 C 656.367188 94.910156 655.605469 94.152344 655.605469 93.21875 L 655.605469 61.511719 C 655.605469 60.578125 656.367188 59.816406 657.300781 59.816406 Z M 655.605469 151.3125 L 655.605469 119.605469 C 655.605469 118.671875 656.367188 117.910156 657.300781 117.910156 L 772.945312 117.910156 C 773.878906 117.910156 774.640625 118.671875 774.640625 119.605469 L 774.640625 151.3125 C 774.640625 152.246094 773.878906 153.007812 772.945312 153.007812 L 657.300781 153.007812 C 656.367188 153.007812 655.605469 152.246094 655.605469 151.3125 Z M 655.605469 151.3125 "/>
</g>
</svg>