<svg width="48" height="49" viewBox="0 0 48 49" fill="none" xmlns="http://www.w3.org/2000/svg">
<g id="Frame" clip-path="url(#clip0_5692_35676)">
<g id="Page-1">
<g id="039---UI-Options">
<path id="Shape" d="M45.6001 9.29297H38.4001C37.9583 9.29297 37.6001 9.65114 37.6001 10.093C37.6001 10.5348 37.9583 10.893 38.4001 10.893H45.6001C46.0788 10.9447 46.4316 11.3645 46.4001 11.845V15.693H38.4001C37.9583 15.693 37.6001 16.0511 37.6001 16.493C37.6001 16.9348 37.9583 17.293 38.4001 17.293H46.4001V45.941C46.4381 46.4235 46.082 46.8473 45.6001 46.893H2.40013C1.92145 46.8413 1.56862 46.4214 1.60013 45.941V17.293H9.60013C10.042 17.293 10.4001 16.9348 10.4001 16.493C10.4001 16.0511 10.042 15.693 9.60013 15.693H1.60013V11.845C1.56862 11.3645 1.92145 10.9447 2.40013 10.893H9.60013C10.042 10.893 10.4001 10.5348 10.4001 10.093C10.4001 9.65114 10.042 9.29297 9.60013 9.29297H2.40013C1.03336 9.33648 -0.040266 10.4781 0.000126816 11.845V45.941C-0.040266 47.3078 1.03336 48.4495 2.40013 48.493H45.6001C46.9669 48.4495 48.0405 47.3078 48.0001 45.941V11.845C48.0405 10.4781 46.9669 9.33648 45.6001 9.29297Z" fill="#8F8F8F"/>
<path id="Oval" d="M4.0002 14.0961C4.44202 14.0961 4.8002 13.7379 4.8002 13.2961C4.8002 12.8543 4.44202 12.4961 4.0002 12.4961C3.55837 12.4961 3.2002 12.8543 3.2002 13.2961C3.2002 13.7379 3.55837 14.0961 4.0002 14.0961Z" fill="#8F8F8F"/>
<path id="Oval_2" d="M7.19941 14.0961C7.64124 14.0961 7.99941 13.7379 7.99941 13.2961C7.99941 12.8543 7.64124 12.4961 7.19941 12.4961C6.75759 12.4961 6.39941 12.8543 6.39941 13.2961C6.39941 13.7379 6.75759 14.0961 7.19941 14.0961Z" fill="#8F8F8F"/>
<path id="Shape_2" d="M44.0004 14.0961C44.4422 14.0961 44.8004 13.7379 44.8004 13.2961C44.8004 12.8543 44.4422 12.4961 44.0004 12.4961H39.2004C38.7586 12.4961 38.4004 12.8543 38.4004 13.2961C38.4004 13.7379 38.7586 14.0961 39.2004 14.0961H44.0004Z" fill="#8F8F8F"/>
<path id="Shape_3" d="M30.4006 13.2945C30.4006 9.75991 27.5352 6.89453 24.0006 6.89453C20.466 6.89453 17.6006 9.75991 17.6006 13.2945C17.6006 16.8292 20.466 19.6945 24.0006 19.6945C27.5336 19.6906 30.3966 16.8275 30.4006 13.2945ZM19.2006 13.2945C19.2006 10.6436 21.3496 8.49453 24.0006 8.49453C26.6516 8.49453 28.8006 10.6436 28.8006 13.2945C28.8006 15.9455 26.6516 18.0945 24.0006 18.0945C21.3507 18.0919 19.2032 15.9444 19.2006 13.2945Z" fill="#8F8F8F"/>
<path id="Shape_4" d="M27.1998 13.2977C27.1998 11.5303 25.7671 10.0977 23.9998 10.0977C22.2325 10.0977 20.7998 11.5303 20.7998 13.2977C20.7998 15.065 22.2325 16.4977 23.9998 16.4977C25.7671 16.4977 27.1998 15.065 27.1998 13.2977ZM22.3998 13.2977C22.3998 12.414 23.1161 11.6977 23.9998 11.6977C24.8835 11.6977 25.5998 12.414 25.5998 13.2977C25.5998 14.1813 24.8835 14.8977 23.9998 14.8977C23.1161 14.8977 22.3998 14.1813 22.3998 13.2977Z" fill="#8F8F8F"/>
<path id="Shape_5" d="M14.4 28.4961C13.0745 28.4961 12 29.5706 12 30.8961V33.2961H6.4C5.07452 33.2961 4 34.3706 4 35.6961V42.0961C4 43.4216 5.07452 44.4961 6.4 44.4961H19.2C20.5255 44.4961 21.6 43.4216 21.6 42.0961V35.6961C21.6 34.3706 20.5255 33.2961 19.2 33.2961H13.6V30.8961C13.6 30.4543 13.9582 30.0961 14.4 30.0961H33.6C34.0418 30.0961 34.4 30.4543 34.4 30.8961V33.2961H28.8C27.4745 33.2961 26.4 34.3706 26.4 35.6961V42.0961C26.4 43.4216 27.4745 44.4961 28.8 44.4961H41.6C42.9255 44.4961 44 43.4216 44 42.0961V35.6961C44 34.3706 42.9255 33.2961 41.6 33.2961H36V30.8961C36 29.5706 34.9255 28.4961 33.6 28.4961H24.8V26.0961H24.944C25.706 26.0943 26.3617 25.5572 26.5136 24.8105L26.9936 22.4105C27.4526 22.2608 27.8995 22.0762 28.3304 21.8585L30.3648 23.2185C30.9995 23.6417 31.8447 23.558 32.384 23.0185L33.7192 21.6833C34.2568 21.1434 34.3404 20.2998 33.9192 19.6649L32.5592 17.6297C32.7763 17.1988 32.9608 16.7522 33.1112 16.2937L35.5112 15.8137C36.2618 15.6649 36.802 15.0053 36.8 14.2401V12.3521C36.8 11.5896 36.262 10.9331 35.5144 10.7833L33.1144 10.3033C32.964 9.84479 32.7795 9.39821 32.5624 8.96729L33.9224 6.93129C34.3426 6.29629 34.2587 5.45342 33.7216 4.91369L32.3832 3.57769C31.8427 3.04059 30.9993 2.95704 30.364 3.37769L28.3296 4.73609C27.8987 4.51835 27.4518 4.33382 26.9928 4.18409L26.5128 1.78409C26.362 1.03674 25.7064 0.498504 24.944 0.496094H23.056C22.294 0.497892 21.6383 1.035 21.4864 1.78169L21.0064 4.18169C20.5474 4.33142 20.1005 4.51595 19.6696 4.73369L17.636 3.37609C17.0008 2.95513 16.1571 3.03869 15.6168 3.57609L14.2816 4.91289C13.744 5.45281 13.6604 6.29638 14.0816 6.93129L15.4416 8.96649C15.2245 9.39741 15.04 9.84399 14.8896 10.3025L12.4896 10.7825C11.7401 10.9307 11.2 11.5881 11.2 12.3521V14.2401C11.2 15.0025 11.738 15.6591 12.4856 15.8089L14.8856 16.2889C15.036 16.7474 15.2205 17.194 15.4376 17.6249L14.0776 19.6609C13.6574 20.2959 13.7413 21.1388 14.2784 21.6785L15.6128 23.0129C16.1529 23.5513 16.9973 23.6352 17.6328 23.2137L19.6672 21.8537C20.0981 22.0714 20.545 22.256 21.004 22.4057L21.484 24.8057C21.6341 25.5552 22.2916 26.095 23.056 26.0961H23.2V28.4961H14.4ZM20 35.6961V42.0961C20 42.5379 19.6418 42.8961 19.2 42.8961H6.4C5.95817 42.8961 5.6 42.5379 5.6 42.0961V35.6961C5.6 35.2543 5.95817 34.8961 6.4 34.8961H19.2C19.6418 34.8961 20 35.2543 20 35.6961ZM42.4 35.6961V42.0961C42.4 42.5379 42.0418 42.8961 41.6 42.8961H28.8C28.3582 42.8961 28 42.5379 28 42.0961V35.6961C28 35.2543 28.3582 34.8961 28.8 34.8961H41.6C42.0418 34.8961 42.4 35.2543 42.4 35.6961ZM23.0552 24.4961L22.48 21.6241C22.4205 21.3265 22.1977 21.0883 21.9048 21.0089C21.2467 20.8318 20.6143 20.5704 20.0232 20.2313C19.7599 20.0805 19.434 20.0917 19.1816 20.2601L16.7464 21.8833L15.4112 20.5481L17.04 18.1129C17.2085 17.8602 17.2193 17.5338 17.068 17.2705C16.7294 16.6794 16.4681 16.0473 16.2904 15.3897C16.2112 15.097 15.9733 14.8743 15.676 14.8145L12.8 14.2401V12.3521L15.672 11.7777C15.9693 11.7179 16.2072 11.4952 16.2864 11.2025C16.4641 10.5449 16.7254 9.91278 17.064 9.32169C17.2165 9.0591 17.2072 8.73278 17.04 8.47929L15.4128 6.04409L16.7488 4.70889L19.1832 6.33609C19.4356 6.50451 19.7615 6.51566 20.0248 6.36489C20.6159 6.02577 21.2483 5.76441 21.9064 5.58729C22.1998 5.50675 22.4221 5.26677 22.48 4.96809L23.056 2.09609H24.9448L25.52 4.96809C25.5795 5.26566 25.8023 5.50392 26.0952 5.58329C26.7533 5.76041 27.3857 6.02177 27.9768 6.36089C28.2389 6.5122 28.564 6.5026 28.8168 6.33609L31.252 4.71289L32.5872 6.04809L30.964 8.47929C30.7955 8.73201 30.7847 9.05835 30.936 9.32169C31.2746 9.91278 31.5359 10.5449 31.7136 11.2025C31.7928 11.4952 32.0307 11.7179 32.328 11.7777L35.2 12.3521V14.2401L32.328 14.8145C32.0307 14.8743 31.7928 15.097 31.7136 15.3897C31.5359 16.0473 31.2746 16.6794 30.936 17.2705C30.7847 17.5338 30.7955 17.8602 30.964 18.1129L32.5872 20.5481L31.2512 21.8833L28.8168 20.2601C28.5644 20.0917 28.2385 20.0805 27.9752 20.2313C27.3841 20.5704 26.7517 20.8318 26.0936 21.0089C25.8007 21.0883 25.5779 21.3265 25.5184 21.6241L24.944 24.4961H23.0552Z" fill="#8F8F8F"/>
<path id="Shape_6" d="M9.6002 36.4961C8.27471 36.4961 7.2002 37.5706 7.2002 38.8961C7.2002 40.2216 8.27471 41.2961 9.6002 41.2961C10.9257 41.2961 12.0002 40.2216 12.0002 38.8961C12.0002 37.5706 10.9257 36.4961 9.6002 36.4961ZM9.6002 39.6961C9.15837 39.6961 8.8002 39.3379 8.8002 38.8961C8.8002 38.4543 9.15837 38.0961 9.6002 38.0961C10.042 38.0961 10.4002 38.4543 10.4002 38.8961C10.4002 39.3379 10.042 39.6961 9.6002 39.6961Z" fill="#8F8F8F"/>
<path id="Shape_7" d="M15.9996 41.2961C17.3251 41.2961 18.3996 40.2216 18.3996 38.8961C18.3996 37.5706 17.3251 36.4961 15.9996 36.4961C14.6741 36.4961 13.5996 37.5706 13.5996 38.8961C13.5996 40.2216 14.6741 41.2961 15.9996 41.2961ZM15.9996 38.0961C16.4414 38.0961 16.7996 38.4543 16.7996 38.8961C16.7996 39.3379 16.4414 39.6961 15.9996 39.6961C15.5578 39.6961 15.1996 39.3379 15.1996 38.8961C15.1996 38.4543 15.5578 38.0961 15.9996 38.0961Z" fill="#8F8F8F"/>
<path id="Shape_8" d="M32.0006 36.4961C30.6751 36.4961 29.6006 37.5706 29.6006 38.8961C29.6006 40.2216 30.6751 41.2961 32.0006 41.2961C33.3261 41.2961 34.4006 40.2216 34.4006 38.8961C34.4006 37.5706 33.3261 36.4961 32.0006 36.4961ZM32.0006 39.6961C31.5588 39.6961 31.2006 39.3379 31.2006 38.8961C31.2006 38.4543 31.5588 38.0961 32.0006 38.0961C32.4424 38.0961 32.8006 38.4543 32.8006 38.8961C32.8006 39.3379 32.4424 39.6961 32.0006 39.6961Z" fill="#8F8F8F"/>
<path id="Shape_9" d="M38.4 41.2961C39.7255 41.2961 40.8 40.2216 40.8 38.8961C40.8 37.5706 39.7255 36.4961 38.4 36.4961C37.0745 36.4961 36 37.5706 36 38.8961C36 40.2216 37.0745 41.2961 38.4 41.2961ZM38.4 38.0961C38.8418 38.0961 39.2 38.4543 39.2 38.8961C39.2 39.3379 38.8418 39.6961 38.4 39.6961C37.9582 39.6961 37.6 39.3379 37.6 38.8961C37.6 38.4543 37.9582 38.0961 38.4 38.0961Z" fill="#8F8F8F"/>
</g>
</g>
</g>
<defs>
<clipPath id="clip0_5692_35676">
<rect width="48" height="48" fill="white" transform="translate(0 0.5)"/>
</clipPath>
</defs>
</svg>
