<svg xmlns="http://www.w3.org/2000/svg" width="2500" height="592" viewBox="0 -0.001 912.854 215.986"><path fill="#00582D" d="M252.756 48.188h8.815v107.939h-8.815zM242.968 117.762c0 24.098-13.153 40.11-32.888 40.11-20.024 0-33.327-15.854-33.327-40.11 0-24.574 13.154-40.27 33.475-40.27 20.022 0 32.74 15.696 32.74 40.27zm-56.621.156c0 18.551 9.846 32.431 23.59 32.431 13.737 0 23.443-13.88 23.443-32.587 0-18.869-9.562-32.752-23.301-32.752-14.324 0-23.732 13.569-23.732 32.908zM429.82 117.762c0 24.098-13.151 40.11-32.891 40.11-20.025 0-33.327-15.854-33.327-40.11 0-24.574 13.158-40.27 33.476-40.27 20.025 0 32.742 15.696 32.742 40.27zm-56.624.156c0 18.551 9.85 32.431 23.591 32.431 13.737 0 23.444-13.88 23.444-32.587 0-18.869-9.562-32.752-23.302-32.752-14.328 0-23.733 13.569-23.733 32.908zM170.159 117.762c0 24.098-13.155 40.11-32.886 40.11-20.027 0-33.329-15.854-33.329-40.11 0-24.574 13.155-40.27 33.472-40.27 20.025 0 32.743 15.696 32.743 40.27zm-56.62.156c0 18.551 9.845 32.431 23.587 32.431 13.74 0 23.445-13.88 23.445-32.587 0-18.869-9.563-32.752-23.298-32.752-14.328 0-23.734 13.569-23.734 32.908zM526.972 79.393v3.649c-.155 3.331 0 6.816-.45 10.146 4.954-9.512 13.818-14.904 24.189-14.904 16.971 0 23.061 12.525 23.955 28.538.308 3.651.459 9.834.459 13.475v35.832h-8.793v-35.832c0-4.437-.158-11.939-.443-15.583-1.057-12.217-7.065-18.87-16.825-18.87-7.977 0-15.333 5.229-19.247 13.475-1.49 3.016-2.098 6.025-2.545 12.529-.156 2.377-.3 7.187-.3 8.449v35.832h-8.745V48.188h8.745v31.205zM622.84 88.379c-5.92-2.033-8.718-2.625-14.617-2.861-8.776-.358-15.05 5.291-15.05 11.792 0 15.853 35.979 14.109 35.979 38.527 0 12.841-10.688 21.716-26.34 21.716-6.596 0-12.153-1.104-18.745-3.806l.629-8.688c6.59 3.643 11.667 4.991 17.525 4.991 9.959 0 17.271-6.602 17.271-14.213 0-18.394-35.128-15.224-35.128-38.37 0-11.887 9.374-19.731 24.002-19.499 5.647.091 8.299.248 15.165 2.626l-.691 7.785zM320.605 79.109s10.706 43.563 12.938 53.766l2.681 12.258s1.667-7.287 2.999-12.246c2.76-10.269 14.981-53.776 14.981-53.776h9.453l-22.302 76.943h-10.384s-11.729-50.828-13.103-57.079c-.69-3.138-1.648-7.918-1.648-7.918s-.956 4.78-1.651 7.918c-1.374 6.251-13.1 57.079-13.1 57.079H291.08L268.782 79.11h9.452s12.224 43.509 14.985 53.776c1.331 4.959 2.995 12.246 2.995 12.246s1.595-7.287 2.68-12.258c2.235-10.202 12.938-53.766 12.938-53.766h8.773zM56.5 67.468s14.389 52.433 16.814 61.487c1.358 5.061 3.485 13.98 3.485 13.98s1.88-8.933 3.14-14.027c2.228-8.982 15.693-61.44 15.693-61.44h9.155l-22.82 88.638H71.962S55.209 91.971 54.405 88.691c-.802-3.279-2.01-9.603-2.01-9.603s-1.206 6.322-2.013 9.603c-.799 3.28-17.554 67.415-17.554 67.415H22.821L0 67.468h9.158s13.464 52.458 15.688 61.44c1.263 5.096 3.142 14.027 3.142 14.027s2.131-8.921 3.487-13.98c2.427-9.056 16.816-61.487 16.816-61.487H56.5zM439.315 156.127V79.244h7.482v17.578s4.171-16.354 27.406-17.557c3.234-.169 7.446-.069 7.446-.069V59.859l8.735-3.407v22.764h17.952v7.795h-17.952v46.735c0 11.027 3.446 14.865 10.97 14.865 4.169 0 7.605-1.546 7.605-1.546l.929 7.598s-4.35 1.424-8.95 1.424c-2.369 0-9.375.336-14.171-4.513-3.207-3.242-5.118-8.497-5.118-18.265 0-8.925.014-46.612.002-46.612-3.042-.022-9.587-.385-14.892 1.001-7.094 1.86-18.697 9.231-18.697 27.624v40.806h-8.747v-.001z"/><g><linearGradient id="a" gradientUnits="userSpaceOnUse" x1="884.555" y1="15.963" x2="809.305" y2="33.522" gradientTransform="matrix(1 0 0 -1 8.4 192.084)"><stop offset=".121" stop-color="#009950"/><stop offset=".534" stop-color="#6bb453"/><stop offset=".843" stop-color="#9cc854"/><stop offset="1" stop-color="#b1d355"/></linearGradient><path fill="url(#a)" d="M838.631 182.1c-5.383 0-10.469-.665-15.261-1.887-7.906 10.874-18.105 20.262-29.929 26.714 10.446 5.687 22.167 9.059 34.658 9.059 47.897 0 80.505-49.83 84.366-92.176-1.521 5.604-11.387 58.29-73.834 58.29z"/><linearGradient id="b" gradientUnits="userSpaceOnUse" x1="856.235" y1="178.589" x2="856.235" y2="8.76" gradientTransform="matrix(1 0 0 -1 8.4 192.084)"><stop offset="0" stop-color="#06a94e"/><stop offset=".149" stop-color="#5ab450"/><stop offset=".318" stop-color="#81c052"/><stop offset=".479" stop-color="#9bca53"/><stop offset=".626" stop-color="#abd155"/><stop offset=".747" stop-color="#b1d355"/></linearGradient><path fill="url(#b)" d="M850.548 49.709c-23.04 0-34.131 13.373-34.131 13.373 23.782 2.407 53 19.186 53 53.941 0 33.753-22.117 49.087-40.197 54.212a98.661 98.661 0 0 1-5.85 8.978c4.792 1.222 9.878 1.887 15.261 1.887 62.447 0 72.313-52.686 73.836-58.29a89.38 89.38 0 0 0 .387-8.382c-.001-47.51-36.275-65.719-62.306-65.719z"/><linearGradient id="c" gradientUnits="userSpaceOnUse" x1="719.807" y1="178.589" x2="719.807" y2="8.76" gradientTransform="matrix(1 0 0 -1 8.4 192.084)"><stop offset="0" stop-color="#06a94e"/><stop offset=".149" stop-color="#5ab450"/><stop offset=".318" stop-color="#81c052"/><stop offset=".479" stop-color="#9bca53"/><stop offset=".626" stop-color="#abd155"/><stop offset=".747" stop-color="#b1d355"/></linearGradient><path fill="url(#c)" d="M748.263 182.1c13.257 0 24.843-4.049 34.11-10.538-3.176.951-7.079 1.73-11.01 1.73-17.63 0-53.886-13.053-53.886-56.269 0-34.757 29.219-51.534 53.001-53.941 0 0-11.091-13.373-34.13-13.373-26.033 0-62.308 18.209-62.308 65.719 0 2.755.119 5.54.386 8.382 1.522 5.651 11.198 58.29 73.837 58.29z"/><linearGradient id="d" gradientUnits="userSpaceOnUse" x1="761.598" y1="99.329" x2="761.598" y2="16.59" gradientTransform="matrix(1 0 0 -1 8.4 192.084)"><stop offset=".187" stop-color="#009950"/><stop offset=".543" stop-color="#74b753"/><stop offset=".78" stop-color="#b1d355"/></linearGradient><path fill="url(#d)" d="M771.364 173.292c3.928 0 7.835-.779 11.01-1.73l.006-.001c4.271-2.983 8.042-6.512 11.263-10.368v-.003c-2.2-2.762-12.413-16.581-12.413-35.07 0-17.292 9.266-24.674 12.326-26.644a.03.03 0 0 0-.008-.008c-6.36-4.741-13.53-6.113-17.606-6.113-6.571 0-24.32 4.502-28.508 24.77 0-.007.003-.015.003-.02l-.012.061a58.48 58.48 0 0 0-.403 2.428c-.423 3.38-.666 7.119-.666 11.213 0 16.261 6.92 30.799 12.329 39.709 4.691 1.232 9.083 1.776 12.679 1.776z"/><linearGradient id="e" gradientUnits="userSpaceOnUse" x1="729.335" y1="-15.074" x2="791.819" y2="220.636" gradientTransform="matrix(1 0 0 -1 8.4 192.084)"><stop offset=".055" stop-color="#009950"/><stop offset=".125" stop-color="#32a451"/><stop offset=".25" stop-color="#6fb553"/><stop offset=".361" stop-color="#92c454"/><stop offset=".456" stop-color="#a8ce55"/><stop offset=".522" stop-color="#b1d355"/></linearGradient><path fill="url(#e)" d="M793.778 77.305c-28.926 0-42.674 21.267-46.346 40.818 4.188-20.268 21.937-24.77 28.508-24.77 4.076 0 11.246 1.372 17.606 6.113.004.003.007.003.008.008 6.936 5.163 12.913 13.903 12.913 27.846 0 11.885-4.624 24.047-12.826 33.868v.003c-10.239 12.291-26.038 20.907-45.379 20.907-62.639 0-72.314-52.639-73.835-58.29 3.864 42.346 36.465 92.176 84.371 92.176 46.771 0 82.511-47.214 82.511-86.752.001-27.417-15.558-51.927-47.531-51.927z"/><linearGradient id="f" gradientUnits="userSpaceOnUse" x1="774.782" y1="123.887" x2="846.985" y2="195.161" gradientTransform="matrix(1 0 0 -1 8.4 192.084)"><stop offset="0" stop-color="#5cb249"/><stop offset=".484" stop-color="#88c14e"/><stop offset="1" stop-color="#b1d355"/></linearGradient><path fill="url(#f)" d="M794.646 61.162s-9.984-9.589-10.68-22.662c-.507-9.515 3.356-24.072 18.418-32.146 35.256-18.867 65.897 8.58 62.347 26.362 0 0-26.262-11.938-50.437 2.349-17.786 10.504-19.648 26.097-19.648 26.097z"/></g></svg>
