<?xml version="1.0" encoding="utf-8"?>
<!-- Generator: Adobe Illustrator 23.1.1, SVG Export Plug-In . SVG Version: 6.00 Build 0)  -->
<svg version="1.1" id="Layer_1" xmlns="http://www.w3.org/2000/svg" xmlns:xlink="http://www.w3.org/1999/xlink" x="0px" y="0px"
	 viewBox="0 0 419.4 75.4" style="enable-background:new 0 0 419.4 75.4;" xml:space="preserve">
<style type="text/css">
	.st0{fill:#00B336;}
</style>
<g>
	<path class="st0" d="M76.7,1.5c-3.4-1.8-7.5-0.4-9.3,3.1L42.6,58.1l0,0c-0.6,1.1-1.1,1.9-2.4,1.9c-1.3,0-1.8-0.8-2.4-1.9l0,0
		L13,4.7c-1.7-3.6-5.9-5-9.3-3.1c-3.4,1.8-4.7,6.2-3,9.8L25,60.8l2.8,5.6c2.4,4.9,7.2,8,12.4,8c5.3,0,10-3.1,12.4-8l2.8-5.6
		l24.2-49.5C81.4,7.7,80.1,3.4,76.7,1.5z"/>
	<path class="st0" d="M407,0.7c-4.7,0-8.8,2.9-10.7,6.9c-6.3,12.9-24.9,51.2-24.9,51.3c-0.1,0.2-0.5,1.1-1.3,1.1
		c-0.7,0-1.2-0.8-1.3-1.1l0,0c-6.1-12.7-18.3-37.8-24.6-50.8c-2.5-5-6.6-7.4-11-7.4c0,0,0,0,0,0c-6.8,0-12.4,5.8-12.4,13.6V67
		c0,3.2,1.8,6.2,4.6,7.1c4.6,1.5,8.5-2.5,8.5-7.2l-1-51.3c0-0.5,0.6-0.7,0.9-0.3L359,66.5c2.4,4.9,6.4,7.8,10.9,7.8
		c4.5,0,8.6-2.9,10.9-7.8l25.3-51.3c0.2-0.5,0.9-0.3,0.9,0.3l-1,51.6c0,4.1,3.1,7.4,6.8,7.2c3.6-0.1,6.4-3.6,6.4-7.5
		c0,0,0-39.4,0-52.5C419.4,6.4,413.8,0.8,407,0.7z"/>
	<path class="st0" d="M312.2,63.7L284.3,8.6c-2.4-4.9-7.2-7.9-12.4-7.9c-3.3,0-6.4,1.2-8.8,3.3c-1.5,1.3-2.7,2.8-3.6,4.7l-27.8,54.8
		c0,0.1-0.1,0.1-0.1,0.2l0,0.1c-1.3,2.6-1,5.5,0.5,7.7c0,0.1,0.1,0.1,0.1,0.2c0,0.1,0.1,0.1,0.1,0.2c0.5,0.6,1.1,1.2,1.8,1.6
		c2.4,1.4,5.1,1.2,7.2-0.3c0,0,0.1,0,0.1-0.1c0.2-0.1,0.3-0.2,0.4-0.3c0.1-0.1,0.2-0.2,0.3-0.3c0,0,0.1-0.1,0.1-0.1
		c0.5-0.5,0.9-1.1,1.3-1.8l1-2.2l5.8-12.2c0.1-0.3,0.5-0.5,0.8-0.5h0H277c0,0,0,0,0,0c3.4,0,6.2-2.9,6.2-6.6c0-3.6-2.8-6.6-6.2-6.6
		h-15.4v0h-3.8c-0.4,0-0.7-0.4-0.5-0.8l1.4-3l10.5-21.1l0-0.1c0,0,0-0.1,0.1-0.1c0,0,0,0,0,0c0.2-0.4,0.7-1.9,1.7-2.2
		c0.6-0.2,1.1-0.2,1.5,0c1.1,0.3,1.5,1.6,2,2.6c0,0,0,0,0,0l25.4,52.8c1.2,2.4,3.6,3.8,6.1,3.8c0.8,0,1.6-0.1,2.3-0.4
		c0,0,0.1,0,0.1-0.1c0.2-0.1,0.4-0.2,0.6-0.3c0.1,0,0.1-0.1,0.2-0.1c0,0,0.1,0,0.1-0.1c0.1,0,0.1-0.1,0.2-0.1c0.1,0,0.2-0.1,0.2-0.2
		c0.1,0,0.1-0.1,0.2-0.1c0.1-0.1,0.2-0.2,0.3-0.2c0.1-0.1,0.2-0.2,0.3-0.3c0,0,0.1-0.1,0.1-0.1C313.1,70.3,313.7,66.7,312.2,63.7z"
		/>
	<g>
		<path class="st0" d="M95.5,45.5h47c0.9,0,8.2-0.6,8.2-8.8c0-20.2-15.6-36.7-34.9-36.7C96.5,0,80.8,16.5,80.8,36.7
			c0,0.5,0,1.7,0,1.9c0,23.1,14.8,35.6,34.5,36.7c0.9,0.1,1.9,0.1,2.8,0.1c7.6,0,13.9-2,20.9-6.3c0.7-0.4,3.5-2.3,6.3-5.9
			c2.3-2.9,2.4-7.2,0-9.5c-3.5-3.3-7.2-1.5-10.4,1.3c-5.1,4.3-9,7.7-19.2,7.7c-9.6,0-18.6-5.5-20.8-16.4
			C94.9,45.9,95.1,45.5,95.5,45.5z M94.9,32c1.3-10.6,8.6-20,20.8-20c12.2,0,19.9,9.2,21.1,20c0,0.4-0.2,0.8-0.6,0.8H95.5
			C95.1,32.7,94.9,32.4,94.9,32z"/>
	</g>
	<g>
		<path class="st0" d="M173.5,45.5h47c0.9,0,8.2-0.6,8.2-8.8C228.6,16.5,213,0,193.8,0c-19.2,0-34.9,16.5-34.9,36.7
			c0,0.5,0,1.7,0,1.9c0,23.1,14.8,35.6,34.5,36.7c0.9,0.1,1.9,0.1,2.8,0.1c7.6,0,13.9-2,20.9-6.3c0.7-0.4,3.5-2.3,6.3-5.9
			c2.3-2.9,2.4-7.2,0-9.5c-3.5-3.3-7.2-1.5-10.4,1.3c-5.1,4.3-9,7.7-19.2,7.7c-9.6,0-18.6-5.5-20.8-16.4
			C172.9,45.9,173.2,45.5,173.5,45.5z M173,32c1.3-10.6,8.6-20,20.8-20c12.2,0,19.9,9.2,21.1,20c0,0.4-0.2,0.8-0.6,0.8h-40.7
			C173.2,32.7,172.9,32.4,173,32z"/>
	</g>
</g>
</svg>
