<svg xmlns="http://www.w3.org/2000/svg" width="655" height="345" viewBox="0 0 655 345">
  <g fill="none" fill-rule="evenodd">
    <rect width="655" height="345" fill="none"/>
    <g fill="#000000" fill-rule="nonzero" transform="translate(97 123)">
      <path d="M75.719814,0 L22.280186,0 C9.97776744,0 0,9.97776744 0,22.2847442 L0,75.719814 C0,88.0267907 9.97776744,98 22.280186,98 L75.719814,98 C88.0267907,98 98,88.0267907 98,75.719814 L98,22.280186 C98,9.97776744 88.0222326,0 75.719814,0 Z M61.2750698,26.3688372 C63.7182326,26.3688372 65.6964651,28.3470698 65.6964651,30.7902326 C65.6964651,33.2333953 63.7182326,35.2116279 61.2750698,35.2116279 C58.831907,35.2116279 56.8536744,33.2333953 56.8536744,30.7902326 C56.8536744,28.3470698 58.831907,26.3688372 61.2750698,26.3688372 Z M61.2750698,38.8581395 C63.7182326,38.8581395 65.6964651,40.8363721 65.6964651,43.2795349 C65.6964651,45.7226977 63.7182326,47.7009302 61.2750698,47.7009302 C58.831907,47.7009302 56.8536744,45.7226977 56.8536744,43.2795349 C56.8536744,40.8363721 58.831907,38.8581395 61.2750698,38.8581395 Z M48.8131163,26.3688372 C51.2562791,26.3688372 53.2345116,28.3470698 53.2345116,30.7902326 C53.2345116,33.2333953 51.2562791,35.2116279 48.8131163,35.2116279 C46.3699535,35.2116279 44.3917209,33.2333953 44.3917209,30.7902326 C44.3917209,28.3470698 46.3699535,26.3688372 48.8131163,26.3688372 Z M48.8131163,38.8581395 C51.2562791,38.8581395 53.2345116,40.8363721 53.2345116,43.2795349 C53.2345116,45.7226977 51.2562791,47.7009302 48.8131163,47.7009302 C46.3699535,47.7009302 44.3917209,45.7226977 44.3917209,43.2795349 C44.3917209,40.8363721 46.3699535,38.8581395 48.8131163,38.8581395 Z M36.3511628,26.3688372 C38.7943256,26.3688372 40.7725581,28.3470698 40.7725581,30.7902326 C40.7725581,33.2333953 38.7943256,35.2116279 36.3511628,35.2116279 C33.908,35.2116279 31.9297674,33.2333953 31.9297674,30.7902326 C31.9297674,28.3470698 33.908,26.3688372 36.3511628,26.3688372 Z M36.3511628,38.8581395 C38.7943256,38.8581395 40.7725581,40.8363721 40.7725581,43.2795349 C40.7725581,45.7226977 38.7943256,47.7009302 36.3511628,47.7009302 C33.908,47.7009302 31.9297674,45.7226977 31.9297674,43.2795349 C31.9297674,40.8363721 33.908,38.8581395 36.3511628,38.8581395 Z M24.367814,85.5653953 C19.7002791,85.5653953 15.9124651,81.7775814 15.9124651,77.1100465 C15.9124651,72.4379535 19.7002791,68.6501395 24.367814,68.6501395 C29.039907,68.6501395 32.827725,72.4379535 32.827725,77.1100465 C32.8322791,81.7775814 29.039907,85.5653953 24.367814,85.5653953 Z M73.240186,85.9437209 C68.5726512,85.9437209 64.7848372,82.155907 64.7848372,77.4883721 C64.7848372,72.8162791 68.5726512,69.0284651 73.240186,69.0284651 C77.9122791,69.0284651 81.700093,72.8162791 81.700093,77.4883721 C81.700093,82.155907 77.9122791,85.9437209 73.240186,85.9437209 Z M88.0951628,17.1659535 L79.3526512,49.7293023 C77.0188837,58.4216744 69.6529302,63.8777674 60.6506047,63.8777674 L54.8845581,63.8777674 C52.9792558,63.8777674 50.2215814,62.8476279 49.0774884,61.771907 C48.8860465,61.5941395 48.5852093,61.5941395 48.3937674,61.771907 C47.2496744,62.8476279 44.492,63.8777674 42.5866977,63.8777674 L36.2508837,63.8777674 C27.5357209,63.8777674 20.9309767,58.9093953 18.2872558,50.6044651 L10.8529302,27.2850233 C10.7070698,26.820093 10.7845581,26.327814 11.0762791,25.9312558 C11.3634419,25.5392558 11.8055814,25.3113488 12.3024186,25.3113488 L13.7245581,25.315907 C17.1522791,25.3295814 20.156093,27.5311628 21.1907907,30.7947907 L26.6514419,47.9425116 C28.1282791,52.5872558 32.8550698,55.7095814 37.7277209,55.7095814 L39.8472558,55.7050233 C42.0351628,55.7050233 43.575814,54.5837209 44.5056744,53.5809302 C44.9888372,53.0567442 45.6634419,52.7513488 46.3790698,52.7513488 L51.1377674,52.755907 C51.8123721,52.755907 52.4687442,53.0248372 52.92,53.5216744 C53.8225116,54.5107907 55.4224186,55.7050233 57.6285581,55.7050233 L59.647814,55.7095814 C64.68,55.7095814 69.5617674,52.3137674 70.8699535,47.4547907 L77.9487442,21.0905116 C78.8740465,17.6582326 81.9963721,15.2652093 85.5471628,15.2652093 L86.796093,15.2652093 C86.9146047,15.2652093 87.0331163,15.2834419 87.1425116,15.3290233 C87.940186,15.6663256 88.2911628,16.4457674 88.0951628,17.1659535 Z"/>
      <path d="M73.240186 74.4526512C71.5673488 74.4526512 70.2090233 75.8109767 70.2090233 77.4883721 70.2090233 79.1657674 71.5673488 80.524093 73.240186 80.524093 74.9175814 80.524093 76.275907 79.1657674 76.275907 77.4883721 76.275907 75.8109767 74.9175814 74.4526512 73.240186 74.4526512zM24.367814 74.0743256C22.6949767 74.0743256 21.3366512 75.4326512 21.3366512 77.1100465 21.3366512 78.7874419 22.6949767 80.1457674 24.367814 80.1457674 26.0452093 80.1457674 27.4035349 78.7874419 27.4035349 77.1100465 27.4035349 75.4326512 26.0452093 74.0743256 24.367814 74.0743256z"/>
      <path d="M128.535297 67.2042553C126.318697 67.2042553 123.895581 67.100266 122.8217 69.0082447 119.453201 75.0034574 111.761643 76.8843085 105.442266 76.8843085 92.8723513 76.8843085 83.322153 66.8244681 83.322153 54.4587766 83.322153 42.0930851 92.8723513 32.0332447 105.442266 32.0332447 111.027365 32.0332447 118.296714 33.0957447 122.610595 39.5204787 123.831331 41.3380319 126.245269 40.9220745 128.46187 40.9220745 131.568782 40.9220745 130.820737 37.2734043 129.6 35.4513298 123.321926 26.1013298 113.000737 24.1345745 105.446856 24.1345745 88.4529178 24.1345745 74.6301416 37.7345745 74.6301416 54.449734 74.6301416 71.1648936 88.4575071 84.7648936 105.446856 84.7648936 116.433484 84.7648936 125.88272 80.0853723 130.113994 72.5574468 131.183286 70.6585106 131.82119 67.2042553 128.535297 67.2042553zM244.303343 25.7170213C242.086742 25.7170213 240.292351 26.6755319 240.292351 28.8547872L240.292351 81.175C240.292351 83.3542553 242.086742 84.0324468 244.303343 84.0324468 246.519943 84.0324468 248.314343 83.3542553 248.314343 81.175L248.314343 28.8547872C248.318924 26.6755319 246.519943 25.7170213 244.303343 25.7170213zM244.303343 0C241.494731 0 239.209292 2.24707447 239.209292 5.01409574 239.209292 7.78111702 241.494731 10.0281915 244.303343 10.0281915 247.111955 10.0281915 249.397401 7.78111702 249.397401 5.01409574 249.401983 2.24707447 247.116544 0 244.303343 0zM221.595807 26.0154255C221.51779 26.0154255 221.361756 26.006383 221.357167 26.006383 221.343399 26.006383 217.575637 26.006383 216.428329 28.8276596 215.322323 31.5630319 209.296657 50.2449468 202.91762 68.4521277 202.711105 69.0444149 202.463286 69.6231383 202.233824 70.2018617L188.516601 36.2515957C187.906232 34.7957447 186.997564 33.7015957 185.808952 33.0460106 185.125156 32.6571809 184.363343 32.3859043 183.41796 32.3859043 183.408782 32.3859043 183.404193 32.3904255 183.395014 32.3904255 183.385836 32.3904255 183.381246 32.3859043 183.372068 32.3859043 182.426686 32.3859043 181.664873 32.6571809 180.981076 33.0460106 179.787875 33.7015957 178.883796 34.7912234 178.273428 36.2515957L164.556204 70.2018617C164.326742 69.6231383 164.078924 69.0444149 163.872408 68.4521277 157.44289 50.0957447 151.467705 31.5585106 150.3617 28.8276596 149.21898 26.006383 145.276827 26.0109043 145.19881 26.0154255 143.179547 26.056117 142.376431 26.5760638 142.44068 27.8601064 142.431501 28.1539894 142.454448 28.4704787 142.555411 28.8457447 142.86289 30.0077128 152.45898 58.8172872 160.274448 80.6821809 160.783853 82.106383 161.885269 84.1319149 164.487365 84.1319149 166.212918 84.1319149 167.493314 83.0106383 167.956827 81.8577128L182.624023 45.0228723C182.766289 44.6837766 183.078357 44.5164894 183.390425 44.5074468 183.707082 44.5164894 184.01915 44.6837766 184.156827 45.0228723L198.824023 81.8577128C199.287535 83.0106383 200.659717 84.1319149 202.293484 84.1319149 204.946062 84.1319149 206.029122 82.1199468 206.506402 80.6821809 213.84 58.7223404 223.91796 30.0077128 224.225439 28.8457447 224.326402 28.4704787 224.349348 28.1539894 224.34017 27.8601064 224.418187 26.5760638 223.615071 26.056117 221.595807 26.0154255zM63.0836261 75.8805851L10.4909915 75.8805851C9.60985836 75.8805851 8.89852691 75.1797872 8.89852691 74.3162234L8.89852691 44.9957447 54.8780737 44.9957447C57.0166572 44.9957447 57.9574504 43.1555851 57.9574504 40.8859043 57.9574504 38.6162234 57.0166572 36.7760638 54.8780737 36.7760638L8.89852691 36.7760638 8.89852691 10.4260638C8.89852691 9.51276596 9.65116147 8.7712766 10.5827762 8.7712766L63.0836261 8.7712766C65.2222096 8.7712766 66.1630028 6.93111702 66.1630028 4.66143617 66.1630028 2.39175532 65.2222096.551595745 63.0836261.551595745L3.78152975.551595745C1.47773371.551595745 0 2.7037234 0 6.07207447 0 6.07207447.00458923513 79.6694149.00458923513 79.7146277.0413031161 81.8984043 1.30334278 84.1047872 3.38226629 84.1047872L63.0836261 84.1047872C65.2222096 84.1047872 66.1630028 82.2646277 66.1630028 79.9949468 66.1630028 77.7207447 65.2222096 75.8805851 63.0836261 75.8805851zM319.989008 0C317.772408 0 315.978017.958510638 315.978017 3.13776596L315.978017 34.0632979C311.420907 26.725266 302.614164 24.2069149 294.858357 24.2069149 277.882776 24.2069149 264.073768 37.7933511 264.073768 54.4904255 264.073768 71.1875 277.882776 84.7739362 294.858357 84.7739362 301.480623 84.7739362 311.797224 81.5050532 315.978017 74.4066489L315.978017 81.0619681C315.978017 81.0755319 315.987195 81.0845745 315.987195 81.0981383 315.987195 81.175 316.000963 81.2202128 316.014731 81.224734 316.115694 83.2547872 317.841246 83.9239362 319.989008 83.9239362 322.205609 83.9239362 324 83.2457447 324 81.0664894L324 72.7699468 324 8.58590426 324 3.13776596C324 .958510638 322.205609 0 319.989008 0zM294.853768 76.8888298C282.29762 76.8888298 272.862153 66.8425532 272.862153 54.4904255 272.862153 42.1382979 282.29762 32.0920213 294.853768 32.0920213 302.132295 32.0920213 315.867875 36.3917553 315.973428 52.3970745L315.973428 56.0140957C315.872465 71.7617021 301.448499 76.8888298 294.853768 76.8888298z" transform="translate(137 10)"/>
    </g>
  </g>
</svg>
