<svg width="20" height="20" viewBox="0 0 20 20" fill="none" xmlns="http://www.w3.org/2000/svg">
<mask id="mask0_241_9123" style="mask-type:alpha" maskUnits="userSpaceOnUse" x="0" y="0" width="20" height="20">
<rect width="20" height="20" fill="#D9D9D9"/>
</mask>
<g mask="url(#mask0_241_9123)">
<path d="M10 17C9.33333 16.5556 8.61806 16.1944 7.85417 15.9167C7.10417 15.6389 6.31944 15.5 5.5 15.5C4.97222 15.5 4.44444 15.5556 3.91667 15.6667C3.38889 15.7639 2.88194 15.9167 2.39583 16.125C2.0625 16.2639 1.74306 16.2431 1.4375 16.0625C1.14583 15.8681 1 15.5903 1 15.2292V4.75C1 4.55555 1.04861 4.375 1.14583 4.20833C1.25694 4.04167 1.40278 3.91667 1.58333 3.83333C2.19444 3.55555 2.82639 3.34722 3.47917 3.20833C4.14583 3.06944 4.81944 3 5.5 3C6.29167 3 7.06944 3.09722 7.83333 3.29167C8.59722 3.47222 9.31944 3.75 10 4.125V15.25C10.7083 14.875 11.4375 14.5764 12.1875 14.3542C12.9375 14.1181 13.7083 14 14.5 14C15.0139 14 15.5208 14.0486 16.0208 14.1458C16.5208 14.2292 17.0139 14.3472 17.5 14.5V3.5C17.6528 3.55555 17.8056 3.61111 17.9583 3.66667C18.1111 3.70833 18.2639 3.76389 18.4167 3.83333C18.5972 3.93055 18.7361 4.0625 18.8333 4.22917C18.9444 4.38194 19 4.55555 19 4.75V15.2292C19 15.5764 18.8472 15.8472 18.5417 16.0417C18.25 16.2361 17.9375 16.2639 17.6042 16.125C17.1042 15.9306 16.5903 15.7778 16.0625 15.6667C15.5486 15.5556 15.0278 15.5 14.5 15.5C13.6806 15.5 12.8889 15.6389 12.125 15.9167C11.375 16.1944 10.6667 16.5556 10 17ZM11.5 13V5L16 0.999999V9L11.5 13ZM8.5 14.4167V5.22917C8.02778 4.96528 7.52778 4.77778 7 4.66667C6.48611 4.55555 5.95833 4.5 5.41667 4.5C4.91667 4.5 4.41667 4.55555 3.91667 4.66667C3.43056 4.77778 2.95833 4.9375 2.5 5.14583V14.4167C2.97222 14.2639 3.45139 14.1597 3.9375 14.1042C4.4375 14.0347 4.93056 14 5.41667 14C5.94444 14 6.46528 14.0347 6.97917 14.1042C7.49306 14.1597 8 14.2639 8.5 14.4167ZM8.5 14.4167V5.22917V14.4167Z" fill="white"/>
</g>
</svg>
