<svg width="20" height="20" viewBox="0 0 20 20" fill="none" xmlns="http://www.w3.org/2000/svg">
<mask id="mask0_241_9126" style="mask-type:alpha" maskUnits="userSpaceOnUse" x="0" y="0" width="20" height="20">
<rect width="20" height="20" fill="#D9D9D9"/>
</mask>
<g mask="url(#mask0_241_9126)">
<path d="M3.5 16.5V11.5C3.5 11.5417 3.5 11.5833 3.5 11.625C3.5 11.6667 3.5 11.7083 3.5 11.75C3.5 12.5 3.5 13.2292 3.5 13.9375C3.5 14.6458 3.5 15.5 3.5 16.5ZM16.5 16.5C16.5 15.5139 16.5 14.6667 16.5 13.9583C16.5 13.2361 16.5 12.5 16.5 11.75C16.5 11.7083 16.5 11.6667 16.5 11.625C16.5 11.5833 16.5 11.5417 16.5 11.5V16.5ZM15.5 7.5C15.7778 7.5 16.0139 7.40278 16.2083 7.20833C16.4028 7.01389 16.5 6.77778 16.5 6.5C16.5 6.22222 16.4028 5.98611 16.2083 5.79167C16.0139 5.59722 15.7778 5.5 15.5 5.5C15.2222 5.5 14.9861 5.59722 14.7917 5.79167C14.5972 5.98611 14.5 6.22222 14.5 6.5C14.5 6.77778 14.5972 7.01389 14.7917 7.20833C14.9861 7.40278 15.2222 7.5 15.5 7.5ZM15.5 9C14.7917 9 14.1944 8.76389 13.7083 8.29167C13.2361 7.80555 13 7.20833 13 6.5C13 5.80555 13.2361 5.21528 13.7083 4.72917C14.1944 4.24305 14.7917 4 15.5 4C16.1944 4 16.7847 4.24305 17.2708 4.72917C17.7569 5.21528 18 5.80555 18 6.5C18 7.20833 17.7569 7.80555 17.2708 8.29167C16.7847 8.76389 16.1944 9 15.5 9ZM10 6C10.3472 6 10.6389 5.88194 10.875 5.64583C11.125 5.40972 11.25 5.11111 11.25 4.75C11.25 4.40278 11.125 4.11111 10.875 3.875C10.6389 3.625 10.3472 3.5 10 3.5C9.63889 3.5 9.34028 3.625 9.10417 3.875C8.86806 4.11111 8.75 4.40278 8.75 4.75C8.75 5.11111 8.86806 5.40972 9.10417 5.64583C9.34028 5.88194 9.63889 6 10 6ZM10 7.5C9.23611 7.5 8.58333 7.23611 8.04167 6.70833C7.51389 6.16667 7.25 5.51389 7.25 4.75C7.25 4 7.51389 3.35417 8.04167 2.8125C8.58333 2.27083 9.23611 2 10 2C10.75 2 11.3958 2.27083 11.9375 2.8125C12.4792 3.35417 12.75 4 12.75 4.75C12.75 5.51389 12.4792 6.16667 11.9375 6.70833C11.3958 7.23611 10.75 7.5 10 7.5ZM6.5 11.75C6.5 12.1667 6.77083 12.7083 7.3125 13.375C7.86806 14.0417 8.76389 14.9167 10 16C11.3889 14.7361 12.3194 13.8194 12.7917 13.25C13.2639 12.6806 13.5 12.1806 13.5 11.75C13.5 11.3889 13.3819 11.0903 13.1458 10.8542C12.9097 10.6181 12.6111 10.5 12.25 10.5C12.0417 10.5 11.8333 10.5486 11.625 10.6458C11.4306 10.7431 11.2639 10.8681 11.125 11.0208L10.2917 12H9.6875L8.85417 11.0208C8.71528 10.8681 8.54167 10.7431 8.33333 10.6458C8.13889 10.5486 7.94445 10.5 7.75 10.5C7.38889 10.5 7.09028 10.6181 6.85417 10.8542C6.61806 11.0903 6.5 11.3889 6.5 11.75ZM5 11.75C5 11 5.26389 10.3542 5.79167 9.8125C6.33333 9.27083 6.98611 9 7.75 9C8.18056 9 8.59028 9.09722 8.97917 9.29167C9.36806 9.47222 9.70833 9.72222 10 10.0417C10.2778 9.72222 10.6111 9.47222 11 9.29167C11.4028 9.09722 11.8194 9 12.25 9C13 9 13.6458 9.27083 14.1875 9.8125C14.7292 10.3542 15 11 15 11.75C15 12.4583 14.75 13.1667 14.25 13.875C13.7639 14.5694 12.9097 15.4444 11.6875 16.5L10 17.9583L8.3125 16.5C7.07639 15.4306 6.21528 14.5486 5.72917 13.8542C5.24306 13.1458 5 12.4444 5 11.75ZM4.5 7.5C4.77778 7.5 5.01389 7.40278 5.20833 7.20833C5.40278 7.01389 5.5 6.77778 5.5 6.5C5.5 6.22222 5.40278 5.98611 5.20833 5.79167C5.01389 5.59722 4.77778 5.5 4.5 5.5C4.22222 5.5 3.98611 5.59722 3.79167 5.79167C3.59722 5.98611 3.5 6.22222 3.5 6.5C3.5 6.77778 3.59722 7.01389 3.79167 7.20833C3.98611 7.40278 4.22222 7.5 4.5 7.5ZM10.0625 18V16.5H16.5V11.5H14.3333C14.3333 11.25 14.3333 11 14.3333 10.75C14.3333 10.5 14.3333 10.25 14.3333 10H16.5C16.9028 10 17.25 10.1528 17.5417 10.4583C17.8472 10.75 18 11.0972 18 11.5V18H10.0625ZM3.5 16.5H10.0625V18H2V11.5C2 11.0972 2.14583 10.75 2.4375 10.4583C2.72917 10.1528 3.08333 10 3.5 10H5.64583C5.64583 10.25 5.64583 10.5 5.64583 10.75C5.64583 11 5.64583 11.25 5.64583 11.5H3.5V16.5ZM4.5 9C3.79167 9 3.19444 8.76389 2.70833 8.29167C2.23611 7.80555 2 7.20833 2 6.5C2 5.80555 2.23611 5.21528 2.70833 4.72917C3.19444 4.24305 3.79167 4 4.5 4C5.19444 4 5.78472 4.24305 6.27083 4.72917C6.75694 5.21528 7 5.80555 7 6.5C7 7.20833 6.75694 7.80555 6.27083 8.29167C5.78472 8.76389 5.19444 9 4.5 9Z" fill="white"/>
</g>
</svg>
