<svg width="16" height="16" viewBox="0 0 16 16" fill="none" xmlns="http://www.w3.org/2000/svg">
<path fill-rule="evenodd" clip-rule="evenodd" d="M8 1C8.27003 1 8.52542 1.11372 8.6941 1.30907L11.7114 4.80344L14.5778 2.81176C14.8613 2.61472 15.2442 2.59261 15.552 2.7555C15.8598 2.91838 16.0337 3.23513 15.9945 3.56153L15.1057 10.9733C15.0556 11.3904 14.6751 11.7059 14.2222 11.7059H1.77779C1.32486 11.7059 0.944362 11.3904 0.894344 10.9733L0.005457 3.56153C-0.033688 3.23513 0.140228 2.91838 0.448027 2.7555C0.755826 2.59261 1.13866 2.61472 1.42224 2.81176L4.28855 4.80344L7.3059 1.30907C7.47458 1.11372 7.72997 1 8 1ZM8 3.14182L5.13856 6.45563C4.83864 6.80297 4.29521 6.86688 3.91112 6.6L1.99925 5.27153L2.57339 10.0588H13.4266L14.0008 5.27153L12.0889 6.6C11.7048 6.86688 11.1614 6.80297 10.8614 6.45563L8 3.14182ZM0.888907 14.1765C0.888907 13.7216 1.28688 13.3529 1.77779 13.3529H14.2222C14.7131 13.3529 15.1111 13.7216 15.1111 14.1765C15.1111 14.6313 14.7131 15 14.2222 15H1.77779C1.28688 15 0.888907 14.6313 0.888907 14.1765Z" fill="url(#paint0_linear_301_2833)"/>
<defs>
<linearGradient id="paint0_linear_301_2833" x1="-1.11758e-08" y1="12.375" x2="18.9787" y2="12.375" gradientUnits="userSpaceOnUse">
<stop stop-color="#FFDE00"/>
<stop offset="1" stop-color="#FF6711"/>
</linearGradient>
</defs>
</svg>
