<svg width="144" height="99" viewBox="0 0 144 99" fill="none" xmlns="http://www.w3.org/2000/svg">
<g clip-path="url(#clip0_2895_2326)">
<path d="M142.836 46.0288V41.0472C142.836 40.5769 142.743 40.1111 142.563 39.6766C142.383 39.242 142.12 38.8472 141.787 38.5146C141.454 38.182 141.06 37.9181 140.625 37.7381C140.19 37.5581 139.725 37.4655 139.254 37.4655H126.612C126.142 37.4655 125.676 37.3728 125.241 37.1928C124.807 37.0128 124.412 36.749 124.079 36.4164C123.747 36.0838 123.483 35.689 123.303 35.2544C123.123 34.8198 123.03 34.3541 123.03 33.8837V28.9021C123.03 27.9522 123.408 27.0412 124.079 26.3695C124.751 25.6978 125.662 25.3204 126.612 25.3204H127.011C127.481 25.3204 127.947 25.2277 128.382 25.0477C128.816 24.8677 129.211 24.6039 129.544 24.2713C129.876 23.9387 130.14 23.5439 130.32 23.1093C130.5 22.6747 130.593 22.209 130.593 21.7386V16.757C130.593 15.8071 130.215 14.8961 129.544 14.2244C128.872 13.5527 127.961 13.1753 127.011 13.1753H25.1657C24.6953 13.1753 24.2295 13.2679 23.795 13.4479C23.3604 13.6279 22.9656 13.8918 22.633 14.2244C22.3004 14.557 22.0365 14.9518 21.8565 15.3864C21.6765 15.8209 21.5839 16.2867 21.5839 16.757V21.7386C21.5839 22.209 21.6765 22.6747 21.8565 23.1093C22.0365 23.5439 22.3004 23.9387 22.633 24.2713C22.9656 24.6039 23.3604 24.8677 23.795 25.0477C24.2295 25.2277 24.6953 25.3204 25.1657 25.3204C26.1156 25.3204 27.0266 25.6977 27.6983 26.3695C28.3701 27.0412 28.7474 27.9522 28.7474 28.9021V33.8837C28.7474 34.3541 28.6548 34.8198 28.4748 35.2544C28.2948 35.689 28.0309 36.0838 27.6983 36.4164C27.3657 36.749 26.9709 37.0128 26.5363 37.1928C26.1018 37.3728 25.636 37.4655 25.1657 37.4655H11.3147C10.8443 37.4655 10.3785 37.5581 9.94399 37.7381C9.50943 37.9181 9.11458 38.182 8.78198 38.5146C8.44938 38.8471 8.18555 39.242 8.00555 39.6766C7.82555 40.1111 7.73291 40.5769 7.73291 41.0472V46.0288C7.73291 46.9788 8.11027 47.8898 8.78198 48.5615C9.45369 49.2332 10.3647 49.6106 11.3147 49.6106H16.7496C17.6995 49.6106 18.6106 49.9879 19.2823 50.6597C19.954 51.3314 20.3313 52.2424 20.3313 53.1923V58.1739C20.3313 59.1239 19.954 60.0349 19.2823 60.7066C18.6106 61.3783 17.6995 61.7557 16.7496 61.7557H16.7364C16.2661 61.7557 15.8003 61.8483 15.3658 62.0283C14.9312 62.2083 14.5364 62.4722 14.2038 62.8048C13.8712 63.1374 13.6073 63.5322 13.4273 63.9668C13.2473 64.4013 13.1547 64.8671 13.1547 65.3375V70.319C13.1547 70.7894 13.2473 71.2551 13.4273 71.6897C13.6073 72.1243 13.8712 72.5191 14.2038 72.8517C14.5364 73.1843 14.9312 73.4481 15.3658 73.6281C15.8003 73.8081 16.2661 73.9008 16.7364 73.9008H17.5228C17.9931 73.9008 18.4589 73.9934 18.8934 74.1734C19.328 74.3534 19.7228 74.6172 20.0554 74.9498C20.388 75.2824 20.6519 75.6773 20.8319 76.1118C21.0119 76.5464 21.1045 77.0122 21.1045 77.4825V82.4641C21.1045 82.9345 21.0119 83.4003 20.8319 83.8348C20.6519 84.2694 20.388 84.6642 20.0554 84.9968C19.7228 85.3294 19.328 85.5932 18.8934 85.7732C18.4589 85.9532 17.9931 86.0459 17.5228 86.0459H4.61789C3.66795 86.0459 2.75692 86.4232 2.08521 87.095C1.4135 87.7667 1.03613 88.6777 1.03613 89.6276V94.6092C1.03613 95.0796 1.12877 95.5453 1.30877 95.9799C1.48877 96.4145 1.7526 96.8093 2.0852 97.1419C2.4178 97.4745 2.81265 97.7383 3.24721 97.9184C3.68177 98.0984 4.14753 98.191 4.61789 98.191H128.934C129.884 98.191 130.795 97.8136 131.467 97.1419C132.138 96.4702 132.516 95.5592 132.516 94.6092V89.6276C132.516 88.6777 132.138 87.7667 131.467 87.095C130.795 86.4232 129.884 86.0459 128.934 86.0459H125.828C125.358 86.0459 124.892 85.9532 124.458 85.7732C124.023 85.5932 123.628 85.3294 123.296 84.9968C122.963 84.6642 122.699 84.2694 122.519 83.8348C122.339 83.4003 122.247 82.9345 122.247 82.4641V77.4825C122.247 77.0122 122.339 76.5464 122.519 76.1118C122.699 75.6773 122.963 75.2824 123.296 74.9498C123.628 74.6172 124.023 74.3534 124.458 74.1734C124.892 73.9934 125.358 73.9008 125.828 73.9008H133.151C134.101 73.9008 135.012 73.5234 135.684 72.8517C136.355 72.18 136.733 71.269 136.733 70.319V65.3375C136.733 64.8671 136.64 64.4013 136.46 63.9668C136.28 63.5322 136.016 63.1374 135.684 62.8048C135.351 62.4722 134.956 62.2083 134.522 62.0283C134.087 61.8483 133.621 61.7557 133.151 61.7557H130.93C129.98 61.7557 129.069 61.3783 128.397 60.7066C127.725 60.0349 127.348 59.1239 127.348 58.1739V53.1923C127.348 52.2424 127.725 51.3314 128.397 50.6597C129.069 49.9879 129.98 49.6106 130.93 49.6106H139.254C139.725 49.6106 140.19 49.5179 140.625 49.3379C141.06 49.1579 141.454 48.8941 141.787 48.5615C142.12 48.2289 142.383 47.8341 142.563 47.3995C142.743 46.9649 142.836 46.4992 142.836 46.0288Z" fill="#2D2D2D"/>
<path d="M96.2497 16.7562C96.2487 18.8998 95.397 20.9553 93.8816 22.4714C92.3662 23.9875 90.311 24.8401 88.1674 24.842H57.9662C56.4287 24.8422 54.9455 24.2739 53.8016 23.2465C52.6578 22.2192 51.9341 20.8052 51.7697 19.2766C51.6054 17.7479 52.0119 16.2124 52.9112 14.9653C53.8105 13.7183 55.1391 12.8477 56.6414 12.521C56.7616 10.7019 57.5684 8.99633 58.8985 7.74954C60.2286 6.50274 61.9827 5.80781 63.8058 5.80536C64.544 5.80541 65.2776 5.9226 65.9791 6.15257C67.0433 4.09405 68.7125 2.41085 70.7621 1.32939C72.8116 0.247928 75.1432 -0.179906 77.4432 0.103437C79.7432 0.38678 81.9012 1.36771 83.627 2.91426C85.3528 4.46082 86.5635 6.49881 87.0964 8.75409C88.2376 8.59987 89.3986 8.69161 90.5014 9.02316C91.6043 9.35471 92.6234 9.91838 93.4904 10.6763C94.3574 11.4343 95.0522 12.369 95.5281 13.4176C96.004 14.4663 96.2501 15.6046 96.2497 16.7562Z" fill="#5E5E5E"/>
<path d="M99.0697 81.5946L40.2617 81.4978C39.3184 81.4986 38.4135 81.1246 37.7459 80.4582C37.0783 79.7918 36.7029 78.8875 36.7021 77.9442L29.6464 39.5836C29.6456 38.6403 30.0195 37.7353 30.6859 37.0678C31.3524 36.4002 32.2567 36.0247 33.2 36.0239H65.7991C65.9628 36.0238 73.8806 46.0903 74.0385 46.1116C76.2378 46.408 109.457 52.6348 108.59 54.6773L102.623 78.035C102.624 78.9782 102.25 79.8832 101.584 80.5508C100.917 81.2183 100.013 81.5938 99.0697 81.5946Z" fill="#444444"/>
<path d="M33.7622 70.0621H50.6977V52.4292H31.2355C30.8176 52.4292 30.4048 52.5225 30.0275 52.7022C29.6501 52.882 29.3176 53.1436 29.0542 53.4682C28.7908 53.7927 28.6032 54.172 28.505 54.5782C28.4067 54.9845 28.4004 55.4076 28.4864 55.8166L31.013 67.8309C31.1457 68.4618 31.4913 69.0279 31.9919 69.4341C32.4925 69.8403 33.1175 70.0621 33.7622 70.0621Z" fill="#6D6D6D"/>
<path d="M57.0976 44.0038C57.0611 40.8456 57.3564 37.6923 57.9787 34.5958C58.5889 31.4852 59.6032 28.4676 60.9956 25.6199C61.6987 24.1936 62.5226 22.8301 63.4583 21.5444C64.3945 20.2478 65.4783 19.0644 66.6877 18.018C67.9074 16.9617 69.2802 16.0964 70.7593 15.4517C72.2624 14.8084 73.8779 14.4689 75.5128 14.4525C77.1477 14.4362 78.7697 14.7434 80.2854 15.3565C81.7922 15.9761 83.1964 16.8204 84.4501 17.8608C85.6963 18.8937 86.8184 20.0678 87.7939 21.3593C88.7692 22.6412 89.633 24.0041 90.3759 25.4332C91.8493 28.2897 92.943 31.3264 93.6295 34.4663C94.3291 37.5982 94.6979 40.7949 94.7297 44.0038H93.0866C93.123 40.9036 92.8339 37.8082 92.2239 34.7685C91.6285 31.7276 90.6382 28.7775 89.2783 25.9933C88.5966 24.6091 87.7979 23.2857 86.8907 22.0377C85.9917 20.7912 84.9511 19.6534 83.7896 18.647C82.6352 17.6458 81.336 16.8249 79.9361 16.2123C78.5315 15.6093 77.0215 15.2904 75.493 15.2741C73.9646 15.2577 72.448 15.5443 71.0309 16.1172C69.6031 16.7044 68.2724 17.5043 67.0841 18.4898C65.8857 19.4825 64.8067 20.611 63.8688 21.8527C62.9218 23.0967 62.083 24.4195 61.3616 25.8065C59.9206 28.5995 58.8509 31.5688 58.1795 34.639C57.492 37.7141 57.1293 40.8529 57.0976 44.0038Z" fill="#959595"/>
<path d="M100.976 81.5429L40.2289 81.5944C39.2857 81.5952 38.3807 81.2213 37.7132 80.5548C37.0456 79.8884 36.6701 78.9841 36.6693 78.0408L46.4658 37.7528C46.465 36.8095 46.839 35.9046 47.5054 35.237C48.1718 34.5694 49.0762 34.194 50.0194 34.1932L70.2218 34.176C70.7928 34.1755 71.3556 34.3126 71.8625 34.5755C72.3694 34.8384 72.8055 35.2196 73.134 35.6867L76.5303 44.5106C76.8588 44.9777 77.2949 45.3588 77.8018 45.6218C78.3087 45.8847 78.8715 46.0217 79.4425 46.0212L110.777 45.9971C111.72 45.9963 112.625 46.3702 113.292 47.0366C113.96 47.7031 114.335 48.6074 114.336 49.5507L104.53 77.9833C104.531 78.9265 104.157 79.8315 103.49 80.4991C102.824 81.1666 101.919 81.5421 100.976 81.5429Z" fill="#575757"/>
<path d="M54.6099 53.5522H101.198" stroke="#393939" stroke-width="1.36923" stroke-miterlimit="10"/>
<path d="M50.698 62.7937H97.2861" stroke="#393939" stroke-width="1.36923" stroke-miterlimit="10"/>
<path d="M45.8326 72.3555H92.4207" stroke="#393939" stroke-width="1.36923" stroke-miterlimit="10"/>
<path d="M82.3244 63.6046L94.0202 53.7196C94.1225 53.6332 94.2473 53.5778 94.38 53.56C94.5128 53.5421 94.6478 53.5626 94.7692 53.619C94.8907 53.6754 94.9935 53.7653 95.0656 53.8781C95.1376 53.991 95.1759 54.1221 95.1759 54.256V55.5382C95.1759 55.7244 95.2499 55.9031 95.3816 56.0348C95.5133 56.1665 95.6919 56.2405 95.8782 56.2405H112.052L125.706 54.3348V73.8732H95.8782C95.6919 73.8732 95.5133 73.9472 95.3816 74.0789C95.2499 74.2106 95.1759 74.3893 95.1759 74.5755V75.5287C95.1759 75.6668 95.1352 75.8019 95.0588 75.917C94.9825 76.032 94.8739 76.1221 94.7467 76.1758C94.6194 76.2295 94.4792 76.2445 94.3434 76.2189C94.2077 76.1933 94.0826 76.1283 93.9836 76.0319L82.2878 64.6442C82.2176 64.5758 82.1625 64.4935 82.126 64.4026C82.0895 64.3117 82.0724 64.2142 82.0759 64.1163C82.0793 64.0183 82.1032 63.9222 82.146 63.8341C82.1888 63.746 82.2496 63.6678 82.3244 63.6046Z" fill="#818181"/>
<path d="M112.051 56.2404H123.799C124.304 56.2404 124.789 56.0397 125.146 55.6823C125.504 55.3249 125.704 54.8402 125.704 54.3348C125.704 53.8294 125.504 53.3447 125.146 52.9873C124.789 52.63 124.304 52.4292 123.799 52.4292H113.343L112.051 56.2404Z" fill="#4F4F4F"/>
<path d="M98.0211 40.198C97.8032 40.6518 97.5546 41.0903 97.277 41.5103C97.0066 41.9254 96.7182 42.3225 96.4199 42.7096C96.121 43.0962 95.8079 43.4686 95.4862 43.8323C95.1643 44.196 94.8294 44.5465 94.489 44.8916L93.9095 45.4792L93.3275 44.8916C92.9864 44.5473 92.6514 44.1968 92.329 43.8337C92.0079 43.4694 91.6931 43.0986 91.395 42.7112C91.0965 42.3243 90.8082 41.9271 90.5381 41.5117C90.2606 41.0914 90.0124 40.6524 89.7953 40.198C90.2498 40.4151 90.6887 40.6632 91.109 40.9407C91.5245 41.2108 91.9216 41.4991 92.3086 41.7977C92.6959 42.0957 93.0667 42.4105 93.431 42.7317C93.7941 43.0541 94.1446 43.389 94.4889 43.7301H93.3275C93.6726 43.3898 94.0232 43.0548 94.3868 42.733C94.7505 42.4112 95.1229 42.0981 95.5094 41.7992C95.8967 41.5009 96.2937 41.2126 96.7088 40.9422C97.1288 40.6646 97.5673 40.4159 98.0211 40.198Z" fill="#959595"/>
<path d="M60.0674 24.842H64.2079C64.2079 24.842 78.6506 17.7993 73.3763 13.2151C68.102 8.63088 60.0674 24.842 60.0674 24.842Z" fill="#5E5E5E"/>
<path d="M5.57523 80.7952C8.15755 80.7952 10.2509 78.7019 10.2509 76.1195C10.2509 73.5372 8.15755 71.4438 5.57523 71.4438C2.99292 71.4438 0.899536 73.5372 0.899536 76.1195C0.899536 78.7019 2.99292 80.7952 5.57523 80.7952Z" fill="#5E5E5E"/>
<path d="M9.63714 85.0765C10.4643 85.0765 11.1348 84.406 11.1348 83.5789C11.1348 82.7518 10.4643 82.0813 9.63714 82.0813C8.81003 82.0813 8.13953 82.7518 8.13953 83.5789C8.13953 84.406 8.81003 85.0765 9.63714 85.0765Z" fill="#5E5E5E"/>
<path d="M126.131 18.1221C128.713 18.1221 130.807 16.0288 130.807 13.4465C130.807 10.8641 128.713 8.77075 126.131 8.77075C123.549 8.77075 121.455 10.8641 121.455 13.4465C121.455 16.0288 123.549 18.1221 126.131 18.1221Z" fill="#5E5E5E"/>
<path d="M124.633 23.3048C125.46 23.3048 126.131 22.6343 126.131 21.8072C126.131 20.9801 125.46 20.3096 124.633 20.3096C123.806 20.3096 123.136 20.9801 123.136 21.8072C123.136 22.6343 123.806 23.3048 124.633 23.3048Z" fill="#5E5E5E"/>
<path d="M136.404 20.0664C137.892 20.0664 139.099 18.86 139.099 17.3719C139.099 15.8838 137.892 14.6775 136.404 14.6775C134.916 14.6775 133.71 15.8838 133.71 17.3719C133.71 18.86 134.916 20.0664 136.404 20.0664Z" fill="#5E5E5E"/>
<path d="M111.271 94.305C112.098 94.305 112.769 93.6345 112.769 92.8074C112.769 91.9803 112.098 91.3098 111.271 91.3098C110.444 91.3098 109.774 91.9803 109.774 92.8074C109.774 93.6345 110.444 94.305 111.271 94.305Z" fill="#5E5E5E"/>
<path d="M124.934 88.4448C126.422 88.4448 127.629 87.2385 127.629 85.7504C127.629 84.2623 126.422 83.0559 124.934 83.0559C123.446 83.0559 122.24 84.2623 122.24 85.7504C122.24 87.2385 123.446 88.4448 124.934 88.4448Z" fill="#5E5E5E"/>
<path d="M5.09387 14.9238C6.22964 14.9238 6.22964 16.5669 7.36543 16.5669C8.50084 16.5669 8.50084 14.9238 9.63625 14.9238C10.7724 14.9238 10.7724 16.5669 11.9086 16.5669C13.0448 16.5669 13.0448 14.9238 14.181 14.9238" stroke="#959595" stroke-width="0.821538" stroke-miterlimit="10" stroke-linecap="round"/>
<path d="M5.09387 17.7986C6.22964 17.7986 6.22964 19.4417 7.36543 19.4417C8.50084 19.4417 8.50084 17.7986 9.63625 17.7986C10.7724 17.7986 10.7724 19.4417 11.9086 19.4417C13.0448 19.4417 13.0448 17.7986 14.181 17.7986" stroke="#959595" stroke-width="0.821538" stroke-miterlimit="10" stroke-linecap="round"/>
<path d="M5.09387 20.6736C6.22964 20.6736 6.22964 22.3167 7.36543 22.3167C8.50084 22.3167 8.50084 20.6736 9.63625 20.6736C10.7724 20.6736 10.7724 22.3167 11.9086 22.3167C13.0448 22.3167 13.0448 20.6736 14.181 20.6736" stroke="#959595" stroke-width="0.821538" stroke-miterlimit="10" stroke-linecap="round"/>
<path d="M131.859 71.4438C132.995 71.4438 132.995 73.0869 134.131 73.0869C135.266 73.0869 135.266 71.4438 136.402 71.4438C137.538 71.4438 137.538 73.0869 138.674 73.0869C139.81 73.0869 139.81 71.4438 140.946 71.4438" stroke="#959595" stroke-width="0.821538" stroke-miterlimit="10" stroke-linecap="round"/>
<path d="M131.859 74.3186C132.995 74.3186 132.995 75.9617 134.131 75.9617C135.266 75.9617 135.266 74.3186 136.402 74.3186C137.538 74.3186 137.538 75.9617 138.674 75.9617C139.81 75.9617 139.81 74.3186 140.946 74.3186" stroke="#959595" stroke-width="0.821538" stroke-miterlimit="10" stroke-linecap="round"/>
<path d="M131.859 77.1936C132.995 77.1936 132.995 78.8367 134.131 78.8367C135.266 78.8367 135.266 77.1936 136.402 77.1936C137.538 77.1936 137.538 78.8367 138.674 78.8367C139.81 78.8367 139.81 77.1936 140.946 77.1936" stroke="#959595" stroke-width="0.821538" stroke-miterlimit="10" stroke-linecap="round"/>
<path d="M45.2219 86.2751C46.3577 86.2751 46.3577 87.9182 47.4935 87.9182C48.6289 87.9182 48.6289 86.2751 49.7643 86.2751C50.9005 86.2751 50.9005 87.9182 52.0367 87.9182C53.1729 87.9182 53.1729 86.2751 54.309 86.2751" stroke="#959595" stroke-width="0.821538" stroke-miterlimit="10" stroke-linecap="round"/>
<path d="M45.2219 89.1499C46.3577 89.1499 46.3577 90.793 47.4935 90.793C48.6289 90.793 48.6289 89.1499 49.7643 89.1499C50.9005 89.1499 50.9005 90.793 52.0367 90.793C53.1729 90.793 53.1729 89.1499 54.309 89.1499" stroke="#959595" stroke-width="0.821538" stroke-miterlimit="10" stroke-linecap="round"/>
<path d="M45.2219 92.0249C46.3577 92.0249 46.3577 93.668 47.4935 93.668C48.6289 93.668 48.6289 92.0249 49.7643 92.0249C50.9005 92.0249 50.9005 93.668 52.0367 93.668C53.1729 93.668 53.1729 92.0249 54.309 92.0249" stroke="#959595" stroke-width="0.821538" stroke-miterlimit="10" stroke-linecap="round"/>
</g>
<defs>
<clipPath id="clip0_2895_2326">
<rect width="143" height="99" fill="white" transform="translate(0.5)"/>
</clipPath>
</defs>
</svg>
