<svg width="70" height="70" viewBox="0 0 70 70" fill="none" xmlns="http://www.w3.org/2000/svg">
<g clip-path="url(#clip0_13005_9543)">
<path d="M50.3874 32.9487L48.197 32.362C48.0693 32.3278 47.969 32.2289 47.9332 32.1016C47.6739 31.1802 47.3048 30.2872 46.8363 29.4472C46.7721 29.332 46.7731 29.1917 46.839 29.0775L47.971 27.1145C48.1611 26.7865 48.1081 26.3862 47.8393 26.1174L45.3732 23.6513C45.1046 23.3826 44.7033 23.3296 44.3746 23.5195L42.4133 24.6516C42.299 24.7176 42.1586 24.7185 42.0435 24.6543C41.2035 24.1858 40.3104 23.8168 39.3891 23.5575C39.2618 23.5217 39.1628 23.4214 39.1286 23.2937L38.5422 21.1039C38.4435 20.7372 38.1226 20.4906 37.7437 20.4906H34.2553C33.8765 20.4906 33.5555 20.7372 33.4568 21.1044L32.8705 23.2937C32.8363 23.4213 32.7374 23.5215 32.6102 23.5574C31.687 23.8177 30.7938 24.1867 29.9556 24.6544C29.8404 24.7185 29.6999 24.7175 29.5858 24.6516L27.6246 23.5195C27.2959 23.3297 26.8946 23.3826 26.6259 23.6513L24.1597 26.1174C23.891 26.3862 23.838 26.7875 24.0279 27.116L25.1617 29.0772C25.2279 29.1916 25.2288 29.3324 25.1643 29.4478C24.6953 30.2853 24.3258 31.1783 24.0659 32.1017C24.0301 32.2289 23.9298 32.3279 23.8021 32.3621L21.6124 32.9485C21.2452 33.0462 20.999 33.3669 20.999 33.747V37.2353C20.999 37.6142 21.2457 37.9352 21.6128 38.034L23.8021 38.6203C23.9298 38.6545 24.03 38.7534 24.0659 38.8805C24.3268 39.8058 24.6963 40.6987 25.1643 41.5346C25.2288 41.65 25.2279 41.7908 25.1617 41.9052L24.0278 43.8665C23.838 44.1949 23.891 44.5962 24.1597 44.865L26.6258 47.3311C26.8938 47.599 27.2955 47.6518 27.6253 47.4625L29.5856 46.3292C29.6436 46.2957 29.7083 46.2788 29.7731 46.2788C29.8361 46.2788 29.8993 46.2947 29.9561 46.3266C30.7921 46.7946 31.6851 47.1642 32.6102 47.425C32.7374 47.4608 32.8363 47.561 32.8705 47.6887L33.4569 49.8785C33.5556 50.2452 33.8765 50.4918 34.2554 50.4918H37.7438C38.1227 50.4918 38.4436 50.2452 38.5423 49.878L39.1286 47.6887C39.1628 47.561 39.2618 47.4608 39.3891 47.4249C40.3105 47.1657 41.2035 46.7966 42.0435 46.328C42.1586 46.2638 42.2991 46.2648 42.4133 46.3308L44.3745 47.4628C44.7031 47.6527 45.1045 47.5997 45.3732 47.3311L47.8393 44.865C48.108 44.5962 48.161 44.195 47.9712 43.8663L46.839 41.905C46.7731 41.7908 46.7721 41.6503 46.8363 41.5351C47.3038 40.697 47.6729 39.8038 47.9332 38.8805C47.9691 38.7534 48.0693 38.6545 48.197 38.6203L50.3867 38.0338C50.7534 37.9352 51.0001 37.6142 51.0001 37.2353V33.747C51.0001 33.3669 50.7539 33.046 50.3874 32.9487ZM36.0004 45.0475C30.7306 45.0475 26.4432 40.7601 26.4432 35.4903C26.4432 30.2205 30.7305 25.9349 36.0003 25.9349C41.2701 25.9349 45.5558 30.2214 45.5558 35.4903C45.5558 40.7592 41.2693 45.0475 36.0003 45.0475H36.0004Z" fill="#5C5C5C"/>
<path d="M36 30.0929C35.793 30.0929 35.6253 29.9251 35.6253 29.7182V29.0052L32.8674 30.4412L35.6253 31.8784V31.1657C35.6253 30.9587 35.793 30.791 36 30.791C38.5911 30.791 40.6993 32.8991 40.6993 35.4902C40.6993 38.0814 38.5912 40.1913 36 40.1913C33.5339 40.1913 31.5052 38.2827 31.3137 35.8649H30.6138C30.8068 38.6679 33.1488 40.8894 36 40.8894C38.9761 40.8894 41.3974 38.4673 41.3974 35.4902C41.3974 32.5132 38.9761 30.0929 36 30.0929Z" fill="#5C5C5C"/>
<path d="M36.0009 25C30.4864 25 26 29.4856 26 34.9991C26 40.5126 30.4864 45 36.0009 45C41.5155 45 46 40.5136 46 34.9991C46 29.4846 41.5144 25 36.0009 25ZM36.0009 44.2158C30.9188 44.2158 26.7842 40.0812 26.7842 34.9991C26.7842 29.917 30.9188 25.7842 36.0009 25.7842C41.083 25.7842 45.2158 29.918 45.2158 34.999C45.2158 40.0801 41.082 44.2158 36.0009 44.2158V44.2158Z" fill="#8F8F8F"/>
<path d="M36.3747 29.3547V28.3876C36.3747 28.2566 36.3064 28.1351 36.1944 28.0672C36.0824 27.9993 35.9431 27.9946 35.8271 28.0553L31.8834 30.1086C31.7595 30.1731 31.6817 30.3012 31.6817 30.4409C31.6817 30.5806 31.7593 30.7087 31.8833 30.7732L35.8269 32.8283C35.943 32.8888 36.0824 32.8843 36.1944 32.8164C36.3064 32.7485 36.3747 32.6271 36.3747 32.4961V31.5579C38.3776 31.7473 39.95 33.4386 39.95 35.4901C39.95 37.6691 38.1781 39.4418 36.0001 39.4418C33.8221 39.4418 32.0484 37.6691 32.0484 35.4901C32.0484 35.2831 31.8806 35.1154 31.6737 35.1154H30.2262C30.0193 35.1154 29.8516 35.2832 29.8516 35.4901C29.8516 38.8804 32.6097 41.6386 36.0001 41.6386C39.3904 41.6386 42.1468 38.8804 42.1468 35.4901C42.1468 32.2266 39.5904 29.5489 36.3747 29.3547ZM36.0001 40.8893C33.1489 40.8893 30.8069 38.6678 30.6138 35.8648H31.3138C31.5053 38.2826 33.5339 40.1912 36 40.1912C38.5912 40.1912 40.6993 38.0823 40.6993 35.4901C40.6993 32.8979 38.5912 30.7909 36 30.7909C35.7931 30.7909 35.6253 30.9586 35.6253 31.1656V31.8783L32.8674 30.4411L35.6253 29.0051V29.7181C35.6253 29.9251 35.7931 30.0928 36 30.0928C38.9761 30.0928 41.3974 32.514 41.3974 35.4901C41.3974 38.4661 38.9762 40.8893 36.0001 40.8893Z" fill="#8F8F8F"/>
<path d="M50.5804 32.2245L48.5946 31.6927C48.344 30.8556 48.0079 30.0423 47.5931 29.2694L48.6196 27.4895C48.9822 26.8642 48.8815 26.0998 48.3691 25.5873L45.9029 23.1212C45.3909 22.6093 44.626 22.5085 43.9997 22.8703L42.2209 23.8971C41.4479 23.4824 40.6347 23.1463 39.7977 22.8957L39.2658 20.9095C39.0778 20.2106 38.466 19.7411 37.7436 19.7411H34.2552C33.5328 19.7411 32.921 20.2107 32.7328 20.91L32.201 22.8958C31.3627 23.1471 30.5495 23.4832 29.7778 23.8971L27.9991 22.8703C27.3727 22.5085 26.6077 22.6092 26.0958 23.1212L23.6296 25.5873C23.1176 26.0993 23.0168 26.8643 23.3789 27.4908L24.4071 29.2693C23.9918 30.0407 23.6553 30.8539 23.4041 31.6926L21.4191 32.2242C20.7195 32.4102 20.2495 33.022 20.2495 33.7468V37.2351C20.2495 37.9576 20.7191 38.5693 21.4184 38.7575L23.4043 39.2893C23.6562 40.1292 23.9928 40.9427 24.4071 41.7126L23.3789 43.4911C23.0169 44.1175 23.1177 44.8825 23.6297 45.3945L26.0958 47.8607C26.6064 48.3712 27.371 48.4722 27.9993 48.1115L29.7778 47.0833C30.5479 47.4977 31.3613 47.8343 32.2011 48.0862L32.7331 50.0724C32.9211 50.7713 33.5329 51.2408 34.2553 51.2408H37.7437C38.4661 51.2408 39.0779 50.7713 39.2661 50.072L39.7979 48.0862C40.6349 47.8356 41.4481 47.4995 42.2211 47.0848L43.9998 48.1116C44.6263 48.4735 45.3912 48.3728 45.9032 47.8607L48.3693 45.3946C48.8813 44.8826 48.9821 44.1177 48.6203 43.4913L47.5934 41.7125C48.0074 40.9409 48.3434 40.1277 48.5948 39.2893L50.5811 38.7573C51.28 38.5693 51.7496 37.9575 51.7496 37.2351V33.7468C51.7496 33.022 51.2795 32.4101 50.5806 32.2244L50.5804 32.2245ZM50.9999 37.2352C50.9999 37.6141 50.7532 37.935 50.3865 38.0337L48.1968 38.6202C48.0691 38.6543 47.9689 38.7532 47.933 38.8804C47.6727 39.8036 47.3036 40.6968 46.8361 41.535C46.7719 41.6502 46.7729 41.7907 46.8388 41.9048L47.971 43.8662C48.1608 44.1948 48.1078 44.5961 47.8391 44.8648L45.373 47.331C45.1043 47.5997 44.7029 47.6526 44.3743 47.4627L42.4131 46.3307C42.2988 46.2647 42.1584 46.2637 42.0433 46.3279C41.2033 46.7965 40.3102 47.1655 39.3889 47.4248C39.2616 47.4606 39.1626 47.5608 39.1284 47.6886L38.5421 49.8779C38.4433 50.245 38.1224 50.4917 37.7436 50.4917H34.2552C33.8763 50.4917 33.5554 50.245 33.4567 49.8783L32.8703 47.6886C32.8361 47.5609 32.7372 47.4607 32.61 47.4248C31.6849 47.164 30.7919 46.7945 29.9559 46.3265C29.8991 46.2946 29.8359 46.2787 29.7729 46.2787C29.7081 46.2787 29.6433 46.2955 29.5854 46.329L27.6251 47.4623C27.2954 47.6517 26.8936 47.599 26.6256 47.331L24.1595 44.8648C23.8908 44.5961 23.8378 44.1948 24.0276 43.8663L25.1615 41.9051C25.2277 41.7907 25.2286 41.6498 25.1641 41.5345C24.6961 40.6986 24.3266 39.8057 24.0657 38.8804C24.0298 38.7532 23.9296 38.6543 23.8019 38.6202L21.6126 38.0338C21.2455 37.935 20.9988 37.6141 20.9988 37.2352V33.7469C20.9988 33.3668 21.245 33.046 21.6122 32.9484L23.8019 32.362C23.9296 32.3278 24.0299 32.2288 24.0657 32.1015C24.3256 31.1782 24.6951 30.2852 25.1641 29.4477C25.2286 29.3323 25.2277 29.1915 25.1615 29.077L24.0277 27.1158C23.8378 26.7873 23.8908 26.386 24.1595 26.1173L26.6257 23.6512C26.8944 23.3824 27.2957 23.3295 27.6244 23.5194L29.5856 24.6515C29.6998 24.7174 29.8402 24.7184 29.9554 24.6542C30.7936 24.1867 31.6868 23.8175 32.61 23.5573C32.7372 23.5214 32.8361 23.4212 32.8703 23.2935L33.4566 21.1042C33.5554 20.7371 33.8763 20.4905 34.2551 20.4905H37.7435C38.1224 20.4905 38.4433 20.7371 38.542 21.1038L39.1284 23.2935C39.1626 23.4213 39.2616 23.5215 39.3889 23.5573C40.3103 23.8166 41.2033 24.1857 42.0433 24.6542C42.1584 24.7184 42.2989 24.7175 42.4131 24.6515L44.3744 23.5193C44.7031 23.3295 45.1044 23.3825 45.373 23.6512L47.8391 26.1173C48.1079 26.3861 48.161 26.7864 47.9708 27.1143L46.8388 29.0773C46.7729 29.1915 46.7719 29.3319 46.8361 29.4471C47.3046 30.287 47.6737 31.1801 47.933 32.1015C47.9688 32.2287 48.0691 32.3277 48.1968 32.3619L50.3872 32.9485C50.7537 33.046 50.9999 33.3667 50.9999 33.7468V37.2352V37.2352Z" fill="#8F8F8F"/>
</g>
<path d="M64.25 0.125H5.75C4.25871 0.126786 2.829 0.719992 1.7745 1.7745C0.719992 2.829 0.126786 4.25871 0.125 5.75V63.125C0.125 66.2458 2.58312 69.875 5.75 69.875H64.25C65.7413 69.8732 67.171 69.28 68.2255 68.2255C69.28 67.171 69.8732 65.7413 69.875 64.25V5.75C69.8732 4.25871 69.28 2.829 68.2255 1.7745C67.171 0.719992 65.7413 0.126786 64.25 0.125ZM5.75 2.375H64.25C65.1451 2.375 66.0035 2.73058 66.6365 3.36351C67.2694 3.99645 67.625 4.85489 67.625 5.75V13.625H2.375V5.75C2.375 4.85489 2.73058 3.99645 3.36351 3.36351C3.99645 2.73058 4.85489 2.375 5.75 2.375ZM64.25 67.625H5.75C4.01188 67.625 2.375 65.0904 2.375 63.125V15.875H67.625V64.25C67.625 65.1451 67.2694 66.0035 66.6365 66.6365C66.0035 67.2694 65.1451 67.625 64.25 67.625Z" fill="#5C5C5C"/>
<path d="M62 11.375C62.6675 11.375 63.32 11.1771 63.875 10.8062C64.4301 10.4354 64.8626 9.90826 65.1181 9.29156C65.3735 8.67486 65.4404 7.99626 65.3102 7.34157C65.1799 6.68689 64.8585 6.08552 64.3865 5.61352C63.9145 5.14151 63.3131 4.82008 62.6584 4.68985C62.0037 4.55963 61.3251 4.62646 60.7084 4.88191C60.0917 5.13735 59.5646 5.56994 59.1938 6.12495C58.8229 6.67997 58.625 7.33249 58.625 8C58.625 8.89511 58.9806 9.75355 59.6135 10.3865C60.2465 11.0194 61.1049 11.375 62 11.375ZM62 6.875C62.2225 6.875 62.44 6.94098 62.625 7.0646C62.81 7.18821 62.9542 7.36392 63.0394 7.56948C63.1245 7.77505 63.1468 8.00125 63.1034 8.21948C63.06 8.43771 62.9528 8.63816 62.7955 8.7955C62.6382 8.95283 62.4377 9.05998 62.2195 9.10338C62.0012 9.14679 61.775 9.12451 61.5695 9.03937C61.3639 8.95422 61.1882 8.81002 61.0646 8.62502C60.941 8.44001 60.875 8.22251 60.875 8C60.875 7.70163 60.9935 7.41548 61.2045 7.20451C61.4155 6.99353 61.7016 6.875 62 6.875Z" fill="#5C5C5C"/>
<path d="M53 11.375C53.6675 11.375 54.32 11.1771 54.875 10.8062C55.4301 10.4354 55.8626 9.90826 56.1181 9.29156C56.3735 8.67486 56.4404 7.99626 56.3102 7.34157C56.1799 6.68689 55.8585 6.08552 55.3865 5.61352C54.9145 5.14151 54.3131 4.82008 53.6584 4.68985C53.0037 4.55963 52.3251 4.62646 51.7084 4.88191C51.0917 5.13735 50.5646 5.56994 50.1938 6.12495C49.8229 6.67997 49.625 7.33249 49.625 8C49.625 8.89511 49.9806 9.75355 50.6135 10.3865C51.2465 11.0194 52.1049 11.375 53 11.375ZM53 6.875C53.2225 6.875 53.44 6.94098 53.625 7.0646C53.81 7.18821 53.9542 7.36392 54.0394 7.56948C54.1245 7.77505 54.1468 8.00125 54.1034 8.21948C54.06 8.43771 53.9528 8.63816 53.7955 8.7955C53.6382 8.95283 53.4377 9.05998 53.2195 9.10338C53.0012 9.14679 52.775 9.12451 52.5695 9.03937C52.3639 8.95422 52.1882 8.81002 52.0646 8.62502C51.941 8.44001 51.875 8.22251 51.875 8C51.875 7.70163 51.9935 7.41548 52.2045 7.20451C52.4155 6.99353 52.7016 6.875 53 6.875Z" fill="#5C5C5C"/>
<path d="M44 11.375C44.6675 11.375 45.32 11.1771 45.875 10.8062C46.4301 10.4354 46.8626 9.90826 47.1181 9.29156C47.3735 8.67486 47.4404 7.99626 47.3102 7.34157C47.1799 6.68689 46.8585 6.08552 46.3865 5.61352C45.9145 5.14151 45.3131 4.82008 44.6584 4.68985C44.0037 4.55963 43.3251 4.62646 42.7084 4.88191C42.0917 5.13735 41.5646 5.56994 41.1938 6.12495C40.8229 6.67997 40.625 7.33249 40.625 8C40.625 8.89511 40.9806 9.75355 41.6135 10.3865C42.2465 11.0194 43.1049 11.375 44 11.375ZM44 6.875C44.2225 6.875 44.44 6.94098 44.625 7.0646C44.81 7.18821 44.9542 7.36392 45.0394 7.56948C45.1245 7.77505 45.1468 8.00125 45.1034 8.21948C45.06 8.43771 44.9528 8.63816 44.7955 8.7955C44.6382 8.95283 44.4377 9.05998 44.2195 9.10338C44.0012 9.14679 43.775 9.12451 43.5695 9.03937C43.3639 8.95422 43.1882 8.81002 43.0646 8.62502C42.941 8.44001 42.875 8.22251 42.875 8C42.875 7.70163 42.9935 7.41548 43.2045 7.20451C43.4155 6.99353 43.7016 6.875 44 6.875Z" fill="#5C5C5C"/>
<path d="M58.625 55.125H11.375C10.1815 55.125 9.03693 55.5991 8.19302 56.443C7.34911 57.2869 6.875 58.4315 6.875 59.625C6.875 60.8185 7.34911 61.9631 8.19302 62.807C9.03693 63.6509 10.1815 64.125 11.375 64.125H58.625C59.8185 64.125 60.9631 63.6509 61.807 62.807C62.6509 61.9631 63.125 60.8185 63.125 59.625C63.125 58.4315 62.6509 57.2869 61.807 56.443C60.9631 55.5991 59.8185 55.125 58.625 55.125ZM9.125 59.625C9.125 59.0283 9.36205 58.456 9.78401 58.034C10.206 57.6121 10.7783 57.375 11.375 57.375H18.7505C18.3412 58.0542 18.125 58.8321 18.125 59.625C18.125 60.4179 18.3412 61.1958 18.7505 61.875H11.375C10.7783 61.875 10.206 61.6379 9.78401 61.216C9.36205 60.794 9.125 60.2217 9.125 59.625ZM22.625 61.875C22.0283 61.875 21.456 61.6379 21.034 61.216C20.6121 60.794 20.375 60.2217 20.375 59.625C20.375 59.0283 20.6121 58.456 21.034 58.034C21.456 57.6121 22.0283 57.375 22.625 57.375H33.875C34.4717 57.375 35.044 57.6121 35.466 58.034C35.8879 58.456 36.125 59.0283 36.125 59.625C36.125 60.2217 35.8879 60.794 35.466 61.216C35.044 61.6379 34.4717 61.875 33.875 61.875H22.625ZM58.625 61.875H37.7495C38.1588 61.1958 38.375 60.4179 38.375 59.625C38.375 58.8321 38.1588 58.0542 37.7495 57.375H58.625C59.2217 57.375 59.794 57.6121 60.216 58.034C60.6379 58.456 60.875 59.0283 60.875 59.625C60.875 60.2217 60.6379 60.794 60.216 61.216C59.794 61.6379 59.2217 61.875 58.625 61.875Z" fill="#5C5C5C"/>
<defs>
<clipPath id="clip0_13005_9543">
<rect width="32" height="32" fill="white" transform="translate(20 19.5)"/>
</clipPath>
</defs>
</svg>
