<svg width="23" height="28" viewBox="0 0 23 28" fill="none" xmlns="http://www.w3.org/2000/svg">
<path d="M19.041 14.8755C19.0804 19.1128 22.7582 20.5229 22.799 20.5409C22.7679 20.6403 22.2113 22.5503 20.8613 24.5233C19.6943 26.229 18.483 27.9284 16.575 27.9636C14.7002 27.9982 14.0973 26.8518 11.9538 26.8518C9.81103 26.8518 9.14122 27.9284 7.36648 27.9982C5.52475 28.0678 4.12228 26.1537 2.94556 24.4542C0.541056 20.9779 -1.29648 14.6311 1.17087 10.3469C2.39659 8.21929 4.58705 6.87202 6.96461 6.83747C8.77314 6.80298 10.4802 8.0542 11.5858 8.0542C12.6906 8.0542 14.7651 6.54949 16.9458 6.77048C17.8588 6.80848 20.4214 7.13925 22.067 9.5479C21.9344 9.6301 19.0092 11.333 19.041 14.8755ZM15.5175 4.47062C16.4953 3.28704 17.1534 1.6394 16.9738 0C15.5644 0.0566457 13.8601 0.939192 12.8492 2.12212C11.9432 3.16965 11.1497 4.8463 11.3638 6.45325C12.9348 6.57479 14.5396 5.65495 15.5175 4.47062Z" fill="white"/>
</svg>
