<svg width="60" height="48" viewBox="0 0 60 48" fill="none" xmlns="http://www.w3.org/2000/svg">
<path d="M46.5 45C48.2728 45 50.0283 44.6508 51.6662 43.9724C53.3041 43.2939 54.7923 42.2995 56.0459 41.0459C57.2995 39.7923 58.2939 38.3041 58.9724 36.6662C59.6508 35.0283 60 33.2728 60 31.5C60 29.7272 59.6508 27.9717 58.9724 26.3338C58.2939 24.6959 57.2995 23.2076 56.0459 21.9541C54.7923 20.7005 53.3041 19.7061 51.6662 19.0276C50.0283 18.3492 48.2728 18 46.5 18C44.7272 18 42.9717 18.3492 41.3338 19.0276C39.6959 19.7061 38.2077 20.7005 36.9541 21.9541C35.7005 23.2076 34.7061 24.6959 34.0276 26.3338C33.3492 27.9717 33 29.7272 33 31.5C33 33.2728 33.3492 35.0283 34.0276 36.6662C34.7061 38.3041 35.7005 39.7923 36.9541 41.0459C38.2077 42.2995 39.6959 43.2939 41.3338 43.9724C42.9717 44.6508 44.7272 45 46.5 45ZM52.8094 29.5594L46.0594 36.3094C45.4781 36.8906 44.5219 36.8906 43.9406 36.3094L40.1906 32.5594C39.6094 31.9781 39.6094 31.0219 40.1906 30.4406C40.7719 29.8594 41.7281 29.8594 42.3094 30.4406L45 33.1312L50.6906 27.4406C51.2719 26.8594 52.2281 26.8594 52.8094 27.4406C53.3906 28.0219 53.3906 28.9781 52.8094 29.5594Z" fill="#31E278"/>
<path opacity="0.4" d="M0 10.5C0 8.01562 2.01562 6 4.5 6H43.5C45.9844 6 48 8.01562 48 10.5C48 11.9156 47.3344 13.2469 46.2 14.1L44.8969 15.075C38.6531 15.675 33.4219 19.7625 31.1813 25.3688L25.8 29.4C24.7313 30.1969 23.2688 30.1969 22.2 29.4L1.8 14.1C0.665625 13.2469 0 11.9156 0 10.5ZM30.075 29.9437C30.0281 30.4594 30 30.975 30 31.5C30 35.4844 31.4156 39.15 33.7688 42H6C2.69063 42 0 39.3094 0 36V16.5L20.4 31.8C22.5375 33.4031 25.4625 33.4031 27.6 31.8L30.075 29.9437Z" fill="#31E278"/>
</svg>
