<svg width="12" height="14" viewBox="0 0 12 14" fill="none" xmlns="http://www.w3.org/2000/svg">
<path d="M2.00033 6.06591L2.00033 1.66634C1.63214 1.66634 1.33366 1.36786 1.33366 0.999674C1.33366 0.631485 1.63214 0.333008 2.00033 0.333008L10.0003 0.333008C10.3685 0.333008 10.667 0.631485 10.667 0.999675C10.667 1.36786 10.3685 1.66634 10.0003 1.66634L10.0003 6.06591C10.6215 6.74644 10.9551 7.4224 11.1328 7.95552C11.2301 8.2476 11.2803 8.49536 11.3061 8.67622C11.3191 8.76671 11.3259 8.8407 11.3296 8.89543C11.3314 8.92281 11.3324 8.9454 11.333 8.96288L11.3334 8.97845L11.3335 8.98523L11.3336 8.99345L11.3337 8.99681L11.3337 8.99831C11.3337 8.99831 11.3306 8.91147 11.3337 8.99967C11.3337 9.36786 11.0352 9.66634 10.667 9.66634L6.66699 9.66634L6.66699 12.9997C6.66699 13.3679 6.36851 13.6663 6.00032 13.6663C5.63213 13.6663 5.33366 13.3679 5.33366 12.9997L5.33366 9.66634L1.33366 9.66634C0.965469 9.66634 0.666992 9.36786 0.666992 8.99967L0.666993 8.99831L0.666998 8.99681L0.667018 8.99345L0.667117 8.98523C0.667214 8.97908 0.667382 8.97162 0.667664 8.96288C0.668228 8.9454 0.669248 8.92281 0.671073 8.89543C0.674721 8.8407 0.681599 8.76671 0.694526 8.67622C0.720363 8.49536 0.770511 8.2476 0.86787 7.95552C1.04558 7.4224 1.37915 6.74643 2.00033 6.06591Z" fill="#1E69FF"/>
</svg>
