<svg width="15" height="12" viewBox="0 0 15 12" fill="none" xmlns="http://www.w3.org/2000/svg">
<path d="M0.460938 11.8516V9.01562C0.460938 8.0625 0.617188 7.07031 0.929688 6.03906C1.25781 4.99219 1.72656 3.99219 2.33594 3.03906C2.94531 2.07031 3.67969 1.23438 4.53906 0.53125L7 2.24219C6.28125 3.27344 5.72656 4.33594 5.33594 5.42969C4.94531 6.50781 4.75 7.67969 4.75 8.94531V11.8516H0.460938ZM7.84375 11.8516V9.01562C7.84375 8.0625 8 7.07031 8.3125 6.03906C8.64062 4.99219 9.10938 3.99219 9.71875 3.03906C10.3281 2.07031 11.0625 1.23438 11.9219 0.53125L14.3828 2.24219C13.6641 3.27344 13.1094 4.33594 12.7188 5.42969C12.3281 6.50781 12.1328 7.67969 12.1328 8.94531V11.8516H7.84375Z" fill="#4E5059"/>
</svg>
