<svg width="18" height="18" viewBox="0 0 18 18" fill="none" xmlns="http://www.w3.org/2000/svg">
<path d="M4.83342 2.33329C4.83342 1.41282 5.57961 0.666626 6.50008 0.666626H11.5001C12.4206 0.666626 13.1667 1.41282 13.1667 2.33329V3.99996H14.8248C14.83 3.99991 14.8351 3.99991 14.8403 3.99996H16.5001C16.9603 3.99996 17.3334 4.37306 17.3334 4.83329C17.3334 5.29353 16.9603 5.66663 16.5001 5.66663H15.6093L14.8866 15.7854C14.8243 16.6575 14.0985 17.3333 13.2241 17.3333H4.77601C3.90162 17.3333 3.17588 16.6575 3.11358 15.7854L2.39082 5.66663H1.50008C1.03984 5.66663 0.666748 5.29353 0.666748 4.83329C0.666748 4.37306 1.03984 3.99996 1.50008 3.99996H3.15987C3.16504 3.99991 3.1702 3.99991 3.17535 3.99996H4.83342V2.33329ZM6.50008 3.99996H11.5001V2.33329H6.50008V3.99996ZM4.06173 5.66663L4.77601 15.6666H13.2241L13.9384 5.66663H4.06173ZM7.33342 7.33329C7.79365 7.33329 8.16675 7.70639 8.16675 8.16663V13.1666C8.16675 13.6269 7.79365 14 7.33342 14C6.87318 14 6.50008 13.6269 6.50008 13.1666V8.16663C6.50008 7.70639 6.87318 7.33329 7.33342 7.33329ZM10.6667 7.33329C11.127 7.33329 11.5001 7.70639 11.5001 8.16663V13.1666C11.5001 13.6269 11.127 14 10.6667 14C10.2065 14 9.83342 13.6269 9.83342 13.1666V8.16663C9.83342 7.70639 10.2065 7.33329 10.6667 7.33329Z" fill="currentColor"/>
</svg>
