<svg width="16" height="16" viewBox="0 0 16 16" fill="none" xmlns="http://www.w3.org/2000/svg">
<path d="M4.64924 10.1888C4.55259 10.1888 4.4599 10.2272 4.39156 10.2956C4.32322 10.3639 4.28482 10.4566 4.28482 10.5533C4.28482 10.6499 4.32322 10.7426 4.39156 10.8109C4.4599 10.8793 4.55259 10.9177 4.64924 10.9177H7.02339C7.12004 10.9177 7.21273 10.8793 7.28107 10.8109C7.34941 10.7426 7.3878 10.6499 7.3878 10.5533C7.3878 10.4566 7.34941 10.3639 7.28107 10.2956C7.21273 10.2272 7.12004 10.1888 7.02339 10.1888H4.64924Z" fill="white"/>
<path d="M9.36214 8.72391C9.36214 8.62726 9.32375 8.53457 9.2554 8.46623C9.18706 8.39789 9.09437 8.35949 8.99773 8.35949H4.6508C4.55415 8.35949 4.46146 8.39789 4.39312 8.46623C4.32478 8.53457 4.28639 8.62726 4.28639 8.72391C4.28639 8.82055 4.32478 8.91324 4.39312 8.98158C4.46146 9.04993 4.55415 9.08832 4.6508 9.08832H8.99773C9.09437 9.08832 9.18706 9.04993 9.2554 8.98158C9.32375 8.91324 9.36214 8.82055 9.36214 8.72391Z" fill="white"/>
<path d="M4.64924 7.25871H8.47557C8.57222 7.25871 8.66491 7.22031 8.73325 7.15197C8.80159 7.08363 8.83999 6.99094 8.83999 6.89429C8.83999 6.79764 8.80159 6.70495 8.73325 6.63661C8.66491 6.56827 8.57222 6.52988 8.47557 6.52988H4.64924C4.55259 6.52988 4.4599 6.56827 4.39156 6.63661C4.32322 6.70495 4.28482 6.79764 4.28482 6.89429C4.28482 6.99094 4.32322 7.08363 4.39156 7.15197C4.4599 7.22031 4.55259 7.25871 4.64924 7.25871Z" fill="white"/>
<path d="M13.2783 12.8701C13.9767 12.8243 14.5441 12.2142 14.5441 11.5127C14.545 11.3462 14.5122 11.1812 14.4479 11.0276C14.3836 10.874 14.289 10.7349 14.1698 10.6186C13.9329 10.3867 13.6147 10.2568 13.2833 10.2565C13.0204 9.45716 12.2733 8.88945 11.4188 8.88789C11.0729 8.88931 10.7336 8.98216 10.4352 9.15701C10.1368 9.33186 9.88989 9.5825 9.71957 9.88352C9.38635 9.91721 9.07478 10.0642 8.83691 10.3C8.701 10.4338 8.59321 10.5935 8.51986 10.7695C8.4465 10.9456 8.40907 11.1346 8.40977 11.3253C8.40977 12.1356 9.06363 12.8337 9.86742 12.8819C10.0255 12.8905 10.1839 12.8978 10.3427 12.9037V13.1276H9.75471C9.71698 13.1274 9.67958 13.1346 9.64466 13.1489C9.60974 13.1632 9.57799 13.1843 9.55124 13.2109C9.52449 13.2375 9.50326 13.2691 9.48877 13.304C9.47428 13.3388 9.46683 13.3762 9.46683 13.4139V13.7611C9.36895 13.807 9.28963 13.8849 9.24196 13.9819C9.19429 14.0789 9.18112 14.1893 9.20463 14.2948C9.22813 14.4003 9.2869 14.4947 9.37124 14.5623C9.45558 14.6299 9.56045 14.6668 9.66856 14.6668C9.77666 14.6668 9.88153 14.6299 9.96587 14.5623C10.0502 14.4947 10.109 14.4003 10.1325 14.2948C10.156 14.1893 10.1428 14.0789 10.0952 13.9819C10.0475 13.8849 9.96817 13.807 9.87029 13.7611V13.5289H10.4601C10.4978 13.5292 10.5352 13.5219 10.5702 13.5076C10.6051 13.4933 10.6368 13.4722 10.6636 13.4456C10.6903 13.419 10.7116 13.3874 10.7261 13.3526C10.7405 13.3177 10.748 13.2804 10.748 13.2426V12.917C10.9237 12.9214 11.0997 12.9238 11.2756 12.9251V13.7617C11.1777 13.8075 11.0984 13.8854 11.0507 13.9824C11.0031 14.0795 10.9899 14.1898 11.0134 14.2954C11.0369 14.4009 11.0957 14.4952 11.18 14.5628C11.2644 14.6305 11.3692 14.6673 11.4773 14.6673C11.5854 14.6673 11.6903 14.6305 11.7747 14.5628C11.859 14.4952 11.9178 14.4009 11.9413 14.2954C11.9648 14.1898 11.9516 14.0795 11.9039 13.9824C11.8563 13.8854 11.777 13.8075 11.6791 13.7617V12.9245C11.855 12.9235 12.031 12.9207 12.207 12.9162V13.2421C12.207 13.2798 12.2144 13.3172 12.2289 13.352C12.2434 13.3869 12.2646 13.4185 12.2914 13.4451C12.3181 13.4717 12.3499 13.4928 12.3848 13.5071C12.4197 13.5214 12.4571 13.5286 12.4948 13.5284H13.0841V13.7606C12.9862 13.8065 12.9069 13.8843 12.8592 13.9814C12.8115 14.0784 12.7983 14.1888 12.8218 14.2943C12.8453 14.3998 12.9041 14.4942 12.9884 14.5618C13.0727 14.6295 13.1776 14.6663 13.2857 14.6663C13.3939 14.6663 13.4987 14.6295 13.5831 14.5618C13.6674 14.4942 13.7262 14.3998 13.7497 14.2943C13.7732 14.1888 13.76 14.0784 13.7123 13.9814C13.6646 13.8843 13.5853 13.8065 13.4873 13.7606V13.4134C13.4873 13.3374 13.4572 13.2646 13.4035 13.2109C13.3498 13.1572 13.277 13.1271 13.201 13.1271H12.6104V12.9035C12.8334 12.8951 13.056 12.884 13.2783 12.8701ZM9.13964 11.3248C9.13927 11.2305 9.15773 11.1371 9.19393 11.05C9.23014 10.9629 9.28336 10.884 9.35048 10.8177C9.49031 10.68 9.679 10.6034 9.87523 10.6045H9.88382C9.89736 10.6045 9.91063 10.6051 9.92365 10.6061C9.99928 10.6113 10.0747 10.5928 10.1393 10.5531C10.2039 10.5135 10.2545 10.4546 10.2842 10.3848C10.482 9.91866 10.9279 9.61698 11.4193 9.61672C12.0328 9.61672 12.5594 10.0884 12.644 10.71C12.6511 10.7624 12.6695 10.8126 12.698 10.8572C12.7265 10.9018 12.7643 10.9397 12.8089 10.9682C12.8535 10.9966 12.9038 11.0151 12.9562 11.0222C13.0086 11.0293 13.062 11.0249 13.1125 11.0093C13.1614 10.9942 13.2121 10.9858 13.2632 10.9846C13.3365 10.9822 13.4095 10.9946 13.4779 11.021C13.5462 11.0475 13.6086 11.0874 13.6612 11.1384C13.711 11.1869 13.7504 11.245 13.7773 11.3091C13.8041 11.3733 13.8178 11.4421 13.8174 11.5117C13.8174 11.8323 13.5496 12.121 13.2338 12.1416C12.1278 12.2095 11.0189 12.2132 9.91245 12.1525C9.4926 12.1286 9.13964 11.7491 9.13964 11.3248Z" fill="white"/>
<path d="M13.1357 8.98862C13.2657 8.98864 13.3905 8.93746 13.483 8.84617C13.5756 8.75488 13.6285 8.63082 13.6303 8.50083C13.6409 7.70953 13.6357 6.89065 13.6141 6.11627C13.6141 5.74847 13.5881 5.44965 13.5881 5.4369C13.5811 5.35433 13.5534 5.27485 13.5077 5.20576C12.5232 3.71501 11.2493 2.43727 9.76149 1.4484C9.68813 1.3995 9.60302 1.3711 9.51499 1.36615C9.20811 1.34871 8.88638 1.34298 8.85593 1.34246C7.57311 1.31173 4.95632 1.36459 3.68038 1.50072H3.67596C3.16005 1.56059 2.64857 1.82088 2.23548 2.23423C1.8224 2.64758 1.56184 3.15932 1.50197 3.67496C1.5021 3.67644 1.5021 3.67792 1.50197 3.67939C1.27734 5.78283 1.27734 9.61411 1.50197 11.7178C1.50211 11.7193 1.50211 11.7208 1.50197 11.7222C1.56184 12.2379 1.8224 12.7494 2.23548 13.1625C2.64857 13.5755 3.16005 13.8361 3.67596 13.896H3.68038C4.72264 14.007 6.43674 14.0625 7.4849 14.0623H7.59683C7.86545 14.0623 8.09425 13.8517 8.10284 13.5831C8.10497 13.5168 8.09375 13.4508 8.06985 13.3889C8.04595 13.3271 8.00986 13.2707 7.96373 13.2231C7.91759 13.1755 7.86234 13.1376 7.80128 13.1118C7.74022 13.0859 7.67459 13.0726 7.60828 13.0726C6.55498 13.0777 4.83555 13.0245 3.78814 12.9131C3.17723 12.841 2.55721 12.221 2.48511 11.6101C2.27062 9.59849 2.27062 5.79871 2.48511 3.78689C2.55695 3.17624 3.17697 2.55726 3.78814 2.48411C4.9858 2.35651 7.52367 2.30478 8.72786 2.32924C8.73333 2.91672 8.76665 3.50577 8.8286 4.08519V4.09508C8.8843 4.57454 9.11778 5.04125 9.48584 5.40957C9.8539 5.77789 10.3209 6.01111 10.8003 6.06655H10.81C11.4131 6.13078 12.019 6.16466 12.6255 6.16807C12.6461 6.92292 12.6515 7.7176 12.6406 8.48625C12.6396 8.5519 12.6516 8.61709 12.676 8.67803C12.7005 8.73898 12.7368 8.79444 12.7829 8.84121C12.8289 8.88797 12.8839 8.92509 12.9445 8.9504C13.005 8.97571 13.07 8.9887 13.1357 8.98862ZM10.9151 5.0842C10.6561 5.05427 10.3974 4.92152 10.1863 4.71016C9.97519 4.4988 9.84244 4.24163 9.81251 3.98393V3.98055C9.76488 3.53492 9.73442 3.08305 9.72297 2.63092C10.6945 3.34925 11.5552 4.20645 12.2775 5.17504C11.8238 5.16307 11.368 5.13261 10.9172 5.08446L10.9151 5.0842Z" fill="white"/>
</svg>
