<svg width="49" height="48" viewBox="0 0 49 48" fill="none" xmlns="http://www.w3.org/2000/svg">
<ellipse opacity="0.1" cx="24.3333" cy="46.5601" rx="24" ry="1.44" fill="#5C5C5C"/>
<path fill-rule="evenodd" clip-rule="evenodd" d="M20.0133 8.22456C20.0133 7.52614 20.5794 6.95996 21.2779 6.95996H23.8794C24.5778 6.95996 25.144 7.52614 25.144 8.22456C25.144 8.92298 24.5778 9.48917 23.8794 9.48917H21.2779C20.5794 9.48917 20.0133 8.92298 20.0133 8.22456ZM21.2779 7.91996C21.1096 7.91996 20.9733 8.05634 20.9733 8.22456C20.9733 8.39279 21.1096 8.52917 21.2779 8.52917L23.8794 8.52917C24.0476 8.52917 24.184 8.39279 24.184 8.22456C24.184 8.05634 24.0476 7.91996 23.8794 7.91996L21.2779 7.91996ZM9.93326 11.04C7.81249 11.04 6.09326 12.7592 6.09326 14.88V33.6C6.09326 35.7207 7.81249 37.44 9.93326 37.44H34.9154C37.0362 37.44 38.7554 35.7207 38.7554 33.6V33.1046C38.9067 33.1148 39.0594 33.12 39.2133 33.12C42.9246 33.12 45.9333 30.1113 45.9333 26.4C45.9333 22.6886 42.9246 19.68 39.2133 19.68C39.0594 19.68 38.9067 19.6851 38.7554 19.6953V14.88C38.7554 12.7592 37.0362 11.04 34.9154 11.04H9.93326ZM37.7954 19.8298V17.8711H7.05326V33.6C7.05326 35.1905 8.34268 36.48 9.93326 36.48H34.9154C36.506 36.48 37.7954 35.1905 37.7954 33.6V32.9701C34.7649 32.3193 32.4933 29.6249 32.4933 26.4C32.4933 23.175 34.7649 20.4807 37.7954 19.8298ZM37.7954 14.88V16.9111H7.05326V14.88C7.05326 13.2894 8.34268 12 9.93326 12H34.9154C36.506 12 37.7954 13.2894 37.7954 14.88ZM33.4533 26.4C33.4533 23.2188 36.0321 20.64 39.2133 20.64C42.3944 20.64 44.9733 23.2188 44.9733 26.4C44.9733 29.5811 42.3944 32.16 39.2133 32.16C36.0321 32.16 33.4533 29.5811 33.4533 26.4ZM38.0133 23.28C38.0133 22.6172 38.5505 22.08 39.2133 22.08C39.876 22.08 40.4133 22.6172 40.4133 23.28V26.16C40.4133 26.8227 39.876 27.36 39.2133 27.36C38.5505 27.36 38.0133 26.8227 38.0133 26.16V23.28ZM39.2133 23.04C39.0807 23.04 38.9733 23.1474 38.9733 23.28V26.16C38.9733 26.2925 39.0807 26.4 39.2133 26.4C39.3458 26.4 39.4533 26.2925 39.4533 26.16V23.28C39.4533 23.1474 39.3458 23.04 39.2133 23.04ZM39.2133 30.72C38.5505 30.72 38.0133 30.1827 38.0133 29.52C38.0133 28.8572 38.5505 28.32 39.2133 28.32C39.876 28.32 40.4133 28.8572 40.4133 29.52C40.4133 30.1827 39.876 30.72 39.2133 30.72ZM38.9733 29.52C38.9733 29.6525 39.0807 29.76 39.2133 29.76C39.3458 29.76 39.4533 29.6525 39.4533 29.52C39.4533 29.3874 39.3458 29.28 39.2133 29.28C39.0807 29.28 38.9733 29.3874 38.9733 29.52ZM10.6533 15.84C11.316 15.84 11.8533 15.3027 11.8533 14.64C11.8533 13.9772 11.316 13.44 10.6533 13.44C9.99052 13.44 9.45326 13.9772 9.45326 14.64C9.45326 15.3027 9.99052 15.84 10.6533 15.84ZM15.2133 14.64C15.2133 15.3027 14.676 15.84 14.0133 15.84C13.3505 15.84 12.8133 15.3027 12.8133 14.64C12.8133 13.9772 13.3505 13.44 14.0133 13.44C14.676 13.44 15.2133 13.9772 15.2133 14.64ZM9.45326 22.8C9.45326 22.1372 9.99052 21.6 10.6533 21.6H17.8533C18.516 21.6 19.0533 22.1372 19.0533 22.8C19.0533 23.4627 18.516 24 17.8533 24H10.6533C9.99052 24 9.45326 23.4627 9.45326 22.8ZM9.45326 26.64C9.45326 25.9772 9.99052 25.44 10.6533 25.44H25.0533C25.716 25.44 26.2533 25.9772 26.2533 26.64C26.2533 27.3027 25.716 27.84 25.0533 27.84H10.6533C9.99052 27.84 9.45326 27.3027 9.45326 26.64ZM9.45326 30.48C9.45326 29.8172 9.99052 29.28 10.6533 29.28H25.0533C25.716 29.28 26.2533 29.8172 26.2533 30.48C26.2533 31.1427 25.716 31.68 25.0533 31.68H10.6533C9.99052 31.68 9.45326 31.1427 9.45326 30.48Z" fill="#5C5C5C"/>
</svg>
