<svg width="16" height="16" viewBox="0 0 16 16" fill="none" xmlns="http://www.w3.org/2000/svg">
<path d="M7.48498 3.95645C7.48498 4.24411 7.2518 4.47729 6.96414 4.47729C6.67649 4.47729 6.4433 4.24411 6.4433 3.95645C6.4433 3.6688 6.67649 3.43561 6.96414 3.43561C7.2518 3.43561 7.48498 3.6688 7.48498 3.95645Z" fill="white"/>
<path d="M9.44835 3.95645C9.44835 4.2441 9.21516 4.47729 8.92751 4.47729C8.63985 4.47729 8.40666 4.2441 8.40666 3.95645C8.40666 3.6688 8.63985 3.43561 8.92751 3.43561C9.21516 3.43561 9.44835 3.6688 9.44835 3.95645Z" fill="white"/>
<path d="M11.4117 3.95645C11.4117 4.2441 11.1786 4.47729 10.8909 4.47729C10.6032 4.47729 10.3701 4.2441 10.3701 3.95645C10.3701 3.6688 10.6032 3.43561 10.8909 3.43561C11.1786 3.43561 11.4117 3.6688 11.4117 3.95645Z" fill="white"/>
<path d="M13.1479 5.76331V3.41735C13.1479 2.84205 12.6815 2.37567 12.1062 2.37567H3.42897C2.85366 2.37567 2.38728 2.84205 2.38728 3.41735V8.61655C2.38742 9.19174 2.85375 9.65823 3.42897 9.65823H12.1062C12.6814 9.65823 13.1477 9.19174 13.1479 8.61655V8.36752C13.1479 8.07988 13.3811 7.84668 13.6687 7.84668C13.9563 7.84668 14.1895 8.07988 14.1895 8.36752V8.61655C14.1894 9.76704 13.2567 10.6999 12.1062 10.6999H3.42897C2.27844 10.6999 1.34574 9.76704 1.3456 8.61655V3.41735C1.3456 2.26674 2.27836 1.33398 3.42897 1.33398H12.1062C13.2568 1.33398 14.1895 2.26674 14.1895 3.41735V5.76331C14.1895 6.05097 13.9564 6.28415 13.6687 6.28415C13.381 6.28415 13.1479 6.05097 13.1479 5.76331Z" fill="white"/>
<path d="M7.24671 11.6465V10.3238C7.24671 10.0361 7.4799 9.80295 7.76755 9.80295C8.05521 9.80295 8.2884 10.0361 8.2884 10.3238V11.6465C8.2884 11.9342 8.05521 12.1674 7.76755 12.1674C7.4799 12.1674 7.24671 11.9342 7.24671 11.6465Z" fill="white"/>
<path d="M8.42891 12.9724C8.42891 12.6147 8.13605 12.3186 7.76755 12.3186C7.39905 12.3186 7.10619 12.6147 7.10619 12.9724C7.10628 13.3301 7.39911 13.6256 7.76755 13.6256C8.136 13.6256 8.42882 13.3301 8.42891 12.9724ZM9.47059 12.9724C9.47051 13.9118 8.70482 14.6673 7.76755 14.6673C6.83028 14.6673 6.06459 13.9118 6.0645 12.9724C6.0645 12.0329 6.83022 11.277 7.76755 11.277C8.70488 11.277 9.47059 12.0329 9.47059 12.9724Z" fill="white"/>
<path d="M13.681 12.4514L13.7342 12.4541C13.9967 12.4809 14.2018 12.7026 14.2018 12.9722C14.2018 13.2419 13.9967 13.4636 13.7342 13.4904L13.681 13.4931H9.108C8.82035 13.4931 8.58716 13.2599 8.58716 12.9722C8.58716 12.6846 8.82035 12.4514 9.108 12.4514H13.681Z" fill="white"/>
<path d="M6.42732 12.4514L6.48049 12.4541C6.74305 12.4809 6.94816 12.7026 6.94816 12.9723C6.94816 13.2419 6.74305 13.4636 6.48049 13.4904L6.42732 13.4931H1.85434C1.56668 13.4931 1.3335 13.2599 1.3335 12.9723C1.3335 12.6846 1.56668 12.4514 1.85434 12.4514H6.42732Z" fill="white"/>
<path d="M5.21852 5.47493C5.39403 5.27776 5.69391 5.24152 5.91244 5.39951C6.14539 5.56804 6.19747 5.89347 6.02908 6.12652L5.5039 6.85245L6.02908 7.57891C6.19748 7.81196 6.14538 8.13738 5.91244 8.30592C5.67937 8.47444 5.35345 8.42229 5.18488 8.18927L4.43943 7.1579C4.30776 6.97576 4.30775 6.72966 4.43943 6.54753L5.18488 5.5167L5.21852 5.47493Z" fill="white"/>
<path d="M10.3501 8.18927C10.1816 8.42219 9.85617 8.47428 9.62312 8.30592C9.39007 8.13741 9.33753 7.812 9.50593 7.57891L10.3501 8.18927ZM9.62312 5.39951C9.84161 5.24167 10.141 5.27784 10.3165 5.47492L10.3501 5.5167L11.0956 6.54753L11.139 6.6186C11.2254 6.7902 11.2108 6.99854 11.0956 7.15789L10.3501 8.18927L9.50593 7.57891L10.0306 6.85244L9.50593 6.12652L9.47718 6.08203C9.34484 5.85355 9.40456 5.55754 9.62312 5.39951Z" fill="white"/>
<path d="M7.75221 5.79478C7.89026 5.5425 8.20681 5.45008 8.45915 5.58807C8.71149 5.7261 8.8044 6.04264 8.6664 6.295L7.78259 7.9107C7.64451 8.16289 7.32796 8.25537 7.07566 8.11741C6.82345 7.97933 6.73098 7.66278 6.86895 7.41047L7.75221 5.79478Z" fill="white"/>
</svg>
