<svg width="40" height="32" viewBox="0 0 40 32" fill="none" xmlns="http://www.w3.org/2000/svg">
<path d="M2.45833 17.8319C1.79166 16.693 1.29166 15.5541 0.958331 14.4152C0.652776 13.2763 0.499998 12.1374 0.499998 10.9985C0.499998 7.9152 1.55555 5.31798 3.66667 3.20686C5.80555 1.06797 8.41667 -0.00147057 11.5 -0.00147057C13.25 -0.00147057 14.9028 0.359641 16.4583 1.08186C18.0417 1.80409 19.3889 2.80409 20.5 4.08186C21.6111 2.80409 22.9444 1.80409 24.5 1.08186C26.0833 0.359641 27.75 -0.00147057 29.5 -0.00147057C32.5833 -0.00147057 35.1806 1.06797 37.2917 3.20686C39.4306 5.31798 40.5 7.9152 40.5 10.9985C40.5 12.1374 40.3333 13.2763 40 14.4152C39.6944 15.5541 39.2083 16.6791 38.5417 17.7902C38.2639 17.4013 37.9306 17.068 37.5417 16.7902C37.1806 16.4846 36.7778 16.2346 36.3333 16.0402C36.8056 15.1791 37.1528 14.3319 37.375 13.4985C37.5972 12.6652 37.7083 11.8319 37.7083 10.9985C37.7083 8.69298 36.9167 6.74853 35.3333 5.1652C33.75 3.58186 31.8056 2.7902 29.5 2.7902C27.7222 2.7902 26.1389 3.30409 24.75 4.33186C23.3611 5.33186 21.9444 6.69298 20.5 8.4152C19.0556 6.6652 17.6389 5.2902 16.25 4.2902C14.8611 3.2902 13.2778 2.7902 11.5 2.7902C9.19444 2.7902 7.25 3.58186 5.66667 5.1652C4.08333 6.74853 3.29167 8.69298 3.29167 10.9985C3.29167 11.8319 3.40278 12.6652 3.625 13.4985C3.84722 14.3319 4.19444 15.1791 4.66667 16.0402C4.22222 16.2346 3.80555 16.4846 3.41667 16.7902C3.05555 17.0958 2.73611 17.443 2.45833 17.8319ZM0.499998 31.6652V29.3319C0.499998 28.193 1.09722 27.2763 2.29167 26.5819C3.48611 25.8874 5.01389 25.5402 6.875 25.5402C7.23611 25.5402 7.56944 25.5541 7.875 25.5819C8.20833 25.5819 8.52778 25.6096 8.83333 25.6652C8.55555 26.1652 8.34722 26.693 8.20833 27.2485C8.06944 27.7763 8 28.3458 8 28.9569V31.6652H0.499998ZM10.5 31.6652V28.9569C10.5 27.1513 11.4167 25.693 13.25 24.5819C15.1111 23.4708 17.5278 22.9152 20.5 22.9152C23.5 22.9152 25.9167 23.4708 27.75 24.5819C29.5833 25.693 30.5 27.1513 30.5 28.9569V31.6652H10.5ZM33 31.6652V28.9569C33 28.3458 32.9306 27.7763 32.7917 27.2485C32.6806 26.693 32.4861 26.1652 32.2083 25.6652C32.5139 25.6096 32.8194 25.5819 33.125 25.5819C33.4583 25.5541 33.7917 25.5402 34.125 25.5402C36.0139 25.5402 37.5417 25.8874 38.7083 26.5819C39.9028 27.2763 40.5 28.193 40.5 29.3319V31.6652H33ZM20.5 25.7069C18.5 25.7069 16.8194 25.9985 15.4583 26.5819C14.125 27.1652 13.4167 27.8874 13.3333 28.7485V28.8735H27.6667V28.7069C27.5833 27.8735 26.875 27.1652 25.5417 26.5819C24.2083 25.9985 22.5278 25.7069 20.5 25.7069ZM6.875 24.1652C6.04167 24.1652 5.31944 23.8735 4.70833 23.2902C4.125 22.6791 3.83333 21.9569 3.83333 21.1235C3.83333 20.2624 4.125 19.5402 4.70833 18.9569C5.31944 18.3458 6.04167 18.0402 6.875 18.0402C7.73611 18.0402 8.45833 18.3458 9.04167 18.9569C9.65278 19.5402 9.95833 20.2624 9.95833 21.1235C9.95833 21.9569 9.65278 22.6791 9.04167 23.2902C8.45833 23.8735 7.73611 24.1652 6.875 24.1652ZM34.125 24.1652C33.2639 24.1652 32.5278 23.8735 31.9167 23.2902C31.3333 22.6791 31.0417 21.9569 31.0417 21.1235C31.0417 20.2624 31.3333 19.5402 31.9167 18.9569C32.5278 18.3458 33.2639 18.0402 34.125 18.0402C34.9583 18.0402 35.6667 18.3458 36.25 18.9569C36.8611 19.5402 37.1667 20.2624 37.1667 21.1235C37.1667 21.9569 36.8611 22.6791 36.25 23.2902C35.6667 23.8735 34.9583 24.1652 34.125 24.1652ZM20.5 21.6652C19.1111 21.6652 17.9306 21.1791 16.9583 20.2069C15.9861 19.2346 15.5 18.0541 15.5 16.6652C15.5 15.2485 15.9861 14.068 16.9583 13.1235C17.9306 12.1513 19.1111 11.6652 20.5 11.6652C21.9167 11.6652 23.0972 12.1513 24.0417 13.1235C25.0139 14.068 25.5 15.2485 25.5 16.6652C25.5 18.0541 25.0139 19.2346 24.0417 20.2069C23.0972 21.1791 21.9167 21.6652 20.5 21.6652ZM20.5 14.4569C19.8889 14.4569 19.3611 14.6652 18.9167 15.0819C18.5 15.4985 18.2917 16.0263 18.2917 16.6652C18.2917 17.2763 18.5 17.8041 18.9167 18.2485C19.3611 18.6652 19.8889 18.8735 20.5 18.8735C21.1389 18.8735 21.6667 18.6652 22.0833 18.2485C22.5 17.8041 22.7083 17.2763 22.7083 16.6652C22.7083 16.0263 22.5 15.4985 22.0833 15.0819C21.6667 14.6652 21.1389 14.4569 20.5 14.4569Z" fill="#B9BABE"/>
</svg>
