  <svg
    width="16"
    height="16"
    viewBox="0 0 18 18"
    fill="none"
    xmlns="http://www.w3.org/2000/svg"
  >
    <path
      d="M8.59529 0.768931C8.84697 0.629106 9.15301 0.629106 9.40469 0.768931L16.9047 4.9356C17.1692 5.08257 17.3333 5.36142 17.3333 5.66406C17.3333 5.9667 17.1692 6.24555 16.9047 6.39253L9.40469 10.5592C9.15301 10.699 8.84697 10.699 8.59529 10.5592L1.09529 6.39253C0.830732 6.24555 0.666656 5.9667 0.666656 5.66406C0.666656 5.36142 0.830732 5.08257 1.09529 4.9356L8.59529 0.768931ZM3.21593 5.66406L8.99999 8.87743L14.784 5.66406L8.99999 2.4507L3.21593 5.66406Z"
      fill="currentColor"
    />
    <path
      d="M0.771525 8.59269C0.995036 8.19037 1.50237 8.04542 1.90469 8.26893L8.99999 12.2108L16.0953 8.26893C16.4976 8.04542 17.0049 8.19037 17.2285 8.59269C17.452 8.99501 17.307 9.50235 16.9047 9.72586L9.40469 13.8925C9.15301 14.0324 8.84697 14.0324 8.59529 13.8925L1.09529 9.72586C0.692967 9.50235 0.548014 8.99501 0.771525 8.59269Z"
      fill="currentColor"
    />
    <path
      d="M0.771525 11.926C0.995036 11.5237 1.50237 11.3788 1.90469 11.6023L8.99999 15.5441L16.0953 11.6023C16.4976 11.3788 17.0049 11.5237 17.2285 11.926C17.452 12.3283 17.307 12.8357 16.9047 13.0592L9.40469 17.2259C9.15301 17.3657 8.84697 17.3657 8.59529 17.2259L1.09529 13.0592C0.692967 12.8357 0.548014 12.3283 0.771525 11.926Z"
      fill="currentColor"
    />
  </svg>