<svg width="16" height="17" viewBox="0 0 16 17" fill="none" xmlns="http://www.w3.org/2000/svg">
<mask id="mask0_2834_1396" style="mask-type:alpha" maskUnits="userSpaceOnUse" x="0" y="0" width="16" height="17">
<rect y="0.165527" width="16" height="16" fill="#D9D9D9"/>
</mask>
<g mask="url(#mask0_2834_1396)">
<path d="M8.01667 14.6989C7.11667 14.6989 6.27222 14.5322 5.48333 14.1989C4.69444 13.8544 4 13.3877 3.4 12.7989C2.81111 12.1989 2.34444 11.5044 2 10.7155C1.66667 9.91553 1.5 9.06553 1.5 8.16553C1.5 7.25442 1.66667 6.40442 2 5.61553C2.34444 4.82664 2.81111 4.13775 3.4 3.54886C4 2.94886 4.69444 2.48219 5.48333 2.14886C6.28333 1.80442 7.13333 1.63219 8.03333 1.63219C9.01111 1.63219 9.93333 1.84331 10.8 2.26553C11.6778 2.68775 12.4389 3.27664 13.0833 4.03219L8.03333 9.08219V3.01553C6.6 3.01553 5.38333 3.51553 4.38333 4.51553C3.38333 5.51553 2.88333 6.73219 2.88333 8.16553C2.88333 9.59886 3.38333 10.8155 4.38333 11.8155C5.38333 12.8155 6.6 13.3155 8.03333 13.3155C8.8 13.3155 9.52222 13.1544 10.2 12.8322C10.8889 12.51 11.4778 12.06 11.9667 11.4822V13.3655C11.4 13.81 10.7778 14.1433 10.1 14.3655C9.43333 14.5877 8.73889 14.6989 8.01667 14.6989ZM13.1667 12.1655L13.15 6.56553H14.4667L14.4833 12.1655H13.1667ZM13.8333 14.6489C13.6444 14.6489 13.4833 14.5822 13.35 14.4489C13.2167 14.3155 13.15 14.1544 13.15 13.9655C13.15 13.7766 13.2111 13.6155 13.3333 13.4822C13.4667 13.3489 13.6278 13.2822 13.8167 13.2822C14.0167 13.2822 14.1778 13.3489 14.3 13.4822C14.4333 13.6155 14.5 13.7766 14.5 13.9655C14.5 14.1544 14.4333 14.3155 14.3 14.4489C14.1778 14.5822 14.0222 14.6489 13.8333 14.6489Z" fill="#E09400"/>
</g>
</svg>
