<svg xmlns="http://www.w3.org/2000/svg" width="20" height="20" viewBox="0 0 20 20" fill="none">
  <path d="M7.98439 15.6591V11.9822C6.71565 12.0008 5.32921 11.8996 3.88899 11.6058L3.8822 11.5992V13.7902C3.8822 14.2279 3.92935 14.5815 4.02366 14.8509C4.11796 15.1203 4.25156 15.3307 4.42445 15.4823C4.61305 15.6338 4.84095 15.7348 5.10814 15.7853C5.39105 15.8527 5.71325 15.8864 6.07475 15.8864C6.43625 15.8864 6.79774 15.8611 7.15924 15.8106C7.53645 15.7601 7.8115 15.7096 7.98439 15.6591Z" fill="url(#paint0_linear_2826_2722)"/>
  <path d="M7.98439 10.81H8.15909C9.77207 10.7775 11.5313 10.5378 13.0307 9.85185L13.0296 9.85029C13.7212 9.4462 14.3184 8.87374 14.8214 8.13291C15.3243 7.39208 15.5758 6.49972 15.5758 5.45582C15.5758 3.78896 15.0257 2.46725 13.9255 1.4907C12.8253 0.514153 11.1907 0.0258789 9.02172 0.0258789C8.22015 0.0258789 7.46572 0.0763902 6.75845 0.177412C6.05117 0.261597 5.43035 0.404713 4.89596 0.606758C4.58162 0.724617 4.33014 0.884567 4.14154 1.08661C3.96865 1.27182 3.8822 1.54121 3.8822 1.89479V6.12974C4.60426 6.24028 7.34528 6.47711 7.96081 6.45089V3.66268C8.1337 3.629 8.29087 3.60375 8.43233 3.58691C8.57378 3.57008 8.76239 3.56166 8.99815 3.56166C9.83116 3.56166 10.4363 3.73003 10.8135 4.06677C11.2064 4.38667 11.4029 4.86653 11.4029 5.50633C11.4029 6.14614 11.23 6.63442 10.8842 6.97116C10.5384 7.29106 10.0669 7.45101 9.46966 7.45101H7.96081V7.43758C7.95673 7.44399 7.95296 7.45048 7.94952 7.45705C5.66229 7.347 4.27345 7.24991 3.8813 7.19488L3.88127 7.19426L2.79467 7.08629C2.69546 7.07644 2.62295 6.98802 2.63269 6.88881L2.69152 6.29001C2.70853 6.11695 2.49506 6.02204 2.37823 6.15072L0.11053 8.64856C0.0484818 8.71691 0.0480731 8.82113 0.109583 8.89009L1.93123 10.9325C2.03594 11.0499 2.2301 10.9867 2.24547 10.8302L2.28772 10.4002C2.29797 10.2959 2.39452 10.2223 2.49778 10.2401L3.8822 10.4785V10.4869L3.88899 10.4801C4.73603 10.6229 6.26777 10.8318 7.98439 10.8127V10.81Z" fill="url(#paint1_linear_2826_2722)"/>
  <path d="M11.2143 14.2195L9.8481 11.8674C11.6229 11.6743 13.0258 11.2785 13.8091 10.9619C14.1095 11.3805 14.4076 11.7844 14.7035 12.1738C15.2536 12.8978 15.6858 13.5544 16.0002 14.1437C15.843 14.733 15.5522 15.1876 15.1279 15.5075C14.7192 15.8106 14.2556 15.9621 13.7369 15.9621C13.3911 15.9621 13.0925 15.92 12.841 15.8359C12.5895 15.7517 12.3695 15.6338 12.1809 15.4823C11.9923 15.3307 11.8194 15.1455 11.6622 14.9267C11.505 14.7078 11.3557 14.4721 11.2143 14.2195Z" fill="url(#paint2_linear_2826_2722)"/>
  <path d="M0.0637207 8.77344C0.0645556 8.81521 0.0798203 8.85677 0.109546 8.8901L1.93119 10.9325C2.03591 11.0499 2.23006 10.9867 2.24543 10.8302L2.28769 10.4002C2.29793 10.2959 2.39449 10.2223 2.49774 10.2401L3.88216 10.4785V10.4869L3.88896 10.4801C4.73599 10.6229 6.26774 10.8318 7.98435 10.8127V10.81H8.01892V9.21903L0.0637207 8.77344Z" fill="url(#paint3_linear_2826_2722)"/>
  <path d="M8.01896 9.21922L0.0637569 8.77363C0.0628642 8.72897 0.0784679 8.68408 0.11053 8.64876L2.37823 6.15092C2.49506 6.02224 2.70853 6.11715 2.69152 6.29021L2.63269 6.88901C2.62295 6.98822 2.69546 7.07664 2.79467 7.08649L3.88127 7.19446L3.8813 7.19508C4.27345 7.2501 5.66229 7.3472 7.94952 7.45725C7.95296 7.45068 7.95673 7.44419 7.96081 7.43778V7.45121H8.01896V9.21922Z" fill="url(#paint4_linear_2826_2722)"/>
  <defs>
    <linearGradient id="paint0_linear_2826_2722" x1="3.76992" y1="-1.50587" x2="13.212" y2="19.2702" gradientUnits="userSpaceOnUse">
      <stop stop-color="#1EA0FF"/>
      <stop offset="1" stop-color="#004EEB"/>
    </linearGradient>
    <linearGradient id="paint1_linear_2826_2722" x1="3.76992" y1="-1.50587" x2="13.212" y2="19.2702" gradientUnits="userSpaceOnUse">
      <stop stop-color="#1EA0FF"/>
      <stop offset="1" stop-color="#004EEB"/>
    </linearGradient>
    <linearGradient id="paint2_linear_2826_2722" x1="3.76992" y1="-1.50587" x2="13.212" y2="19.2702" gradientUnits="userSpaceOnUse">
      <stop stop-color="#1EA0FF"/>
      <stop offset="1" stop-color="#004EEB"/>
    </linearGradient>
    <linearGradient id="paint3_linear_2826_2722" x1="11.8972" y1="9.83355" x2="5.27078" y2="8.10349" gradientUnits="userSpaceOnUse">
      <stop stop-color="#1EA0FF"/>
      <stop offset="1" stop-color="#004EEB"/>
    </linearGradient>
    <linearGradient id="paint4_linear_2826_2722" x1="2.63345" y1="4.98671" x2="14.7158" y2="6.53243" gradientUnits="userSpaceOnUse">
      <stop stop-color="#1EA0FF"/>
      <stop offset="1" stop-color="#004EEB"/>
    </linearGradient>
  </defs>
</svg>