<svg width="16" height="17" viewBox="0 0 16 17" fill="none" xmlns="http://www.w3.org/2000/svg">
<mask id="mask0_3013_294" style="mask-type:alpha" maskUnits="userSpaceOnUse" x="0" y="0" width="16" height="17">
<rect y="0.748047" width="16" height="16" fill="#D9D9D9"/>
</mask>
<g mask="url(#mask0_3013_294)">
<path d="M6.11667 15.4147L5.86667 13.3147C5.75556 13.248 5.63333 13.1758 5.5 13.098C5.36667 13.0203 5.24444 12.948 5.13333 12.8814L3.18333 13.698L1.3 10.448L2.96667 9.18138C2.96667 9.11471 2.96667 9.04249 2.96667 8.96471C2.96667 8.88694 2.96667 8.81471 2.96667 8.74805C2.96667 8.68138 2.96667 8.60916 2.96667 8.53138C2.96667 8.4536 2.96667 8.38138 2.96667 8.31471L1.3 7.04805L3.18333 3.79805L5.13333 4.61471C5.24444 4.54805 5.36667 4.47583 5.5 4.39805C5.63333 4.32027 5.75556 4.24805 5.86667 4.18138L6.11667 2.08138H9.88333L10.1333 4.18138C10.2444 4.24805 10.3667 4.32027 10.5 4.39805C10.6333 4.47583 10.7556 4.54805 10.8667 4.61471L12.8167 3.79805L14.7 7.04805L13.05 8.31471C13.05 8.38138 13.05 8.4536 13.05 8.53138C13.05 8.60916 13.05 8.68138 13.05 8.74805C13.05 8.81471 13.05 8.88694 13.05 8.96471C13.05 9.04249 13.05 9.11471 13.05 9.18138L14.7 10.448L12.8167 13.698L10.8667 12.8814C10.7556 12.948 10.6333 13.0203 10.5 13.098C10.3667 13.1758 10.2444 13.248 10.1333 13.3147L9.88333 15.4147H6.11667ZM8 11.1314C8.65556 11.1314 9.21667 10.898 9.68333 10.4314C10.15 9.96471 10.3833 9.4036 10.3833 8.74805C10.3833 8.09249 10.15 7.53138 9.68333 7.06471C9.21667 6.59805 8.65556 6.36471 8 6.36471C7.34444 6.36471 6.78333 6.59805 6.31667 7.06471C5.85 7.53138 5.61667 8.09249 5.61667 8.74805C5.61667 9.4036 5.85 9.96471 6.31667 10.4314C6.78333 10.898 7.34444 11.1314 8 11.1314ZM8 9.73138C7.73333 9.73138 7.5 9.63694 7.3 9.44805C7.11111 9.24805 7.01667 9.01471 7.01667 8.74805C7.01667 8.48138 7.11111 8.2536 7.3 8.06471C7.5 7.86471 7.73333 7.76471 8 7.76471C8.26667 7.76471 8.49444 7.86471 8.68333 8.06471C8.88333 8.2536 8.98333 8.48138 8.98333 8.74805C8.98333 9.01471 8.88333 9.24805 8.68333 9.44805C8.49444 9.63694 8.26667 9.73138 8 9.73138ZM7.33333 14.0147H8.66667L8.86667 12.2814C9.18889 12.1925 9.5 12.0592 9.8 11.8814C10.1 11.7036 10.3722 11.4925 10.6167 11.248L12.2333 11.9314L12.9 10.8314L11.4833 9.74805C11.5389 9.59249 11.5778 9.43138 11.6 9.26471C11.6222 9.09805 11.6333 8.92582 11.6333 8.74805C11.6333 8.59249 11.6222 8.43694 11.6 8.28138C11.5778 8.11471 11.5444 7.94249 11.5 7.76471L12.9167 6.66471L12.25 5.56471L10.6333 6.26471C10.3778 6.00916 10.1 5.79805 9.8 5.63138C9.51111 5.4536 9.20556 5.32027 8.88333 5.23138L8.66667 3.48138H7.33333L7.11667 5.23138C6.79444 5.32027 6.48333 5.4536 6.18333 5.63138C5.89445 5.79805 5.62778 6.0036 5.38333 6.24805L3.76667 5.56471L3.1 6.66471L4.5 7.74805C4.45556 7.92583 4.42222 8.09805 4.4 8.26471C4.37778 8.43138 4.36667 8.59249 4.36667 8.74805C4.36667 8.9036 4.37778 9.06471 4.4 9.23138C4.42222 9.38694 4.45556 9.5536 4.5 9.73138L3.1 10.8314L3.76667 11.9314L5.38333 11.248C5.62778 11.4925 5.89445 11.7036 6.18333 11.8814C6.48333 12.048 6.79444 12.1758 7.11667 12.2647L7.33333 14.0147Z" fill="white"/>
</g>
</svg>
