<svg xmlns="http://www.w3.org/2000/svg" width="20" height="20" viewBox="0 0 20 20" fill="none">
  <path
    d="M10.8333 18.3332C6.23096 18.3332 2.5 14.6022 2.5 9.99984C2.5 5.39746 6.23096 1.6665 10.8333 1.6665C15.4357 1.6665 19.1667 5.39746 19.1667 9.99984C19.1667 14.6022 15.4357 18.3332 10.8333 18.3332ZM10.8333 16.6665C14.5153 16.6665 17.5 13.6818 17.5 9.99984C17.5 6.31794 14.5153 3.33317 10.8333 3.33317C7.15143 3.33317 4.16667 6.31794 4.16667 9.99984C4.16667 13.6818 7.15143 16.6665 10.8333 16.6665ZM8.33333 7.49984H13.3333V12.4998H8.33333V7.49984Z"
    fill="currentColor"
  />
</svg>
