<svg width="400" height="401" viewBox="0 0 400 401" fill="none" xmlns="http://www.w3.org/2000/svg">
<path d="M127.844 266.906H104.286C97.4428 266.923 90.7685 264.782 85.212 260.788C85.1308 260.729 85.0298 260.706 84.9312 260.722C84.8326 260.738 84.7443 260.792 84.686 260.874C84.6277 260.955 84.6039 261.056 84.6201 261.154C84.6362 261.253 84.6909 261.341 84.772 261.4C90.4573 265.485 97.2851 267.675 104.286 267.66H127.844C127.939 267.653 128.028 267.61 128.093 267.54C128.158 267.47 128.195 267.378 128.195 267.283C128.195 267.187 128.158 267.095 128.093 267.025C128.028 266.955 127.939 266.913 127.844 266.906Z" fill="#0a48b3"/>
<path d="M145.958 266.906H138.424C138.329 266.913 138.24 266.955 138.175 267.025C138.11 267.095 138.073 267.187 138.073 267.283C138.073 267.378 138.11 267.47 138.175 267.54C138.24 267.61 138.329 267.653 138.424 267.66H145.958C146.053 267.653 146.142 267.61 146.207 267.54C146.272 267.47 146.309 267.378 146.309 267.283C146.309 267.187 146.272 267.095 146.207 267.025C146.142 266.955 146.053 266.913 145.958 266.906Z" fill="#0a48b3"/>
<path d="M96.35 99.5316C97.4403 99.532 98.5061 99.2091 99.4128 98.6037C100.32 97.9982 101.026 97.1375 101.444 96.1304C101.861 95.1232 101.971 94.0149 101.758 92.9455C101.546 91.8762 101.021 90.8938 100.25 90.1228C99.4795 89.3517 98.4973 88.8265 97.4281 88.6137C96.3588 88.4008 95.2504 88.5099 94.2431 88.927C93.2358 89.3441 92.3748 90.0506 91.7691 90.9571C91.1633 91.8636 90.84 92.9294 90.84 94.0196C90.8421 95.4805 91.4232 96.881 92.4561 97.9142C93.4889 98.9473 94.8891 99.529 96.35 99.5316Z" fill="#0a48b3"/>
<path d="M111.874 99.5316C112.964 99.5316 114.03 99.2084 114.936 98.6027C115.843 97.997 116.549 97.1362 116.966 96.129C117.384 95.1218 117.493 94.0135 117.28 92.9443C117.067 91.8751 116.542 90.8929 115.772 90.1221C115.001 89.3512 114.019 88.8262 112.949 88.6135C111.88 88.4009 110.772 88.51 109.765 88.9272C108.757 89.3444 107.897 90.0509 107.291 90.9573C106.685 91.8638 106.362 92.9295 106.362 94.0196C106.364 95.481 106.945 96.8821 107.978 97.9154C109.012 98.9488 110.413 99.53 111.874 99.5316ZM111.874 89.2616C112.816 89.2616 113.736 89.5409 114.519 90.064C115.302 90.5871 115.912 91.3306 116.272 92.2005C116.632 93.0704 116.726 94.0276 116.542 94.951C116.359 95.8744 115.905 96.7225 115.239 97.3882C114.573 98.0538 113.725 98.507 112.801 98.6904C111.878 98.8738 110.921 98.7793 110.051 98.4187C109.181 98.0581 108.438 97.4477 107.915 96.6647C107.392 95.8817 107.114 94.9612 107.114 94.0196C107.116 92.7579 107.618 91.5483 108.51 90.6563C109.402 89.7643 110.612 89.2627 111.874 89.2616Z" fill="#0a48b3"/>
<path d="M127.434 99.5316C128.524 99.532 129.59 99.2091 130.497 98.6037C131.404 97.9982 132.11 97.1375 132.528 96.1304C132.945 95.1232 133.055 94.0149 132.842 92.9455C132.63 91.8762 132.105 90.8938 131.334 90.1228C130.563 89.3517 129.581 88.8265 128.512 88.6137C127.443 88.4008 126.334 88.5099 125.327 88.927C124.32 89.3441 123.459 90.0506 122.853 90.9571C122.247 91.8636 121.924 92.9294 121.924 94.0196C121.926 95.4807 122.507 96.8814 123.539 97.9147C124.572 98.948 125.973 99.5295 127.434 99.5316ZM127.434 89.2616C128.376 89.2612 129.296 89.5401 130.079 90.063C130.862 90.5859 131.473 91.3293 131.833 92.1991C132.194 93.069 132.288 94.0262 132.105 94.9498C131.921 95.8733 131.468 96.7216 130.802 97.3875C130.136 98.0533 129.288 98.5067 128.364 98.6903C127.441 98.8739 126.483 98.7794 125.614 98.4189C124.744 98.0584 124 97.448 123.477 96.6649C122.954 95.8818 122.676 94.9612 122.676 94.0196C122.678 92.7582 123.179 91.5489 124.071 90.657C124.963 89.765 126.173 89.2632 127.434 89.2616Z" fill="#0a48b3"/>
<path d="M185.972 201.922L186.21 225.554C186.245 225.938 186.405 226.3 186.664 226.586C186.924 226.872 187.269 227.065 187.648 227.138L223.094 235.216H223.116C223.309 235.273 223.513 235.289 223.712 235.261C223.912 235.233 224.103 235.162 224.273 235.053C224.443 234.944 224.587 234.8 224.696 234.63C224.805 234.461 224.876 234.269 224.904 234.07V208.04C224.885 207.635 224.725 207.249 224.451 206.95C224.177 206.651 223.806 206.459 223.404 206.406L187.578 200.726C187.392 200.677 187.197 200.67 187.008 200.707C186.819 200.743 186.641 200.822 186.487 200.937C186.332 201.052 186.206 201.2 186.117 201.37C186.028 201.541 185.978 201.729 185.972 201.922ZM186.862 201.598C187.192 201.312 185.114 201.172 223.288 207.148C223.512 207.175 223.72 207.278 223.877 207.44C224.034 207.602 224.131 207.813 224.152 208.038V234.07C224.152 234.27 223.798 234.608 223.262 234.484L187.816 226.406C187.602 226.368 187.405 226.265 187.252 226.111C187.099 225.957 186.998 225.76 186.962 225.546C186.7 200.282 186.65 201.78 186.862 201.598Z" fill="#0a48b3"/>
<path d="M366.862 160.638H338.74V105.238C338.73 96.3459 335.193 87.8213 328.905 81.5346C322.617 75.248 314.092 71.713 305.2 71.7056H104.286C95.3966 71.7157 86.8741 75.2516 80.5885 81.5376C74.3029 87.8235 70.7675 96.3462 70.758 105.236V160.636H42.634C42.5343 160.636 42.4386 160.675 42.3681 160.746C42.2976 160.816 42.258 160.912 42.258 161.012V224.742C42.2585 224.841 42.2983 224.937 42.3687 225.007C42.4391 225.077 42.5344 225.117 42.634 225.118H70.758V233.806C70.758 233.905 70.7976 234.001 70.8681 234.072C70.9386 234.142 71.0343 234.182 71.134 234.182C71.2337 234.182 71.3294 234.142 71.3999 234.072C71.4704 234.001 71.51 233.905 71.51 233.806V225.118H129.812C129.861 225.118 129.91 225.108 129.956 225.089C130.002 225.07 130.043 225.042 130.078 225.007C130.113 224.973 130.14 224.931 130.159 224.886C130.178 224.84 130.188 224.791 130.188 224.742V161.014C130.188 160.964 130.178 160.915 130.159 160.87C130.14 160.824 130.113 160.783 130.078 160.748C130.043 160.713 130.002 160.685 129.956 160.666C129.91 160.647 129.861 160.638 129.812 160.638H86.6V146.526H183.184C183.284 146.526 183.379 146.486 183.45 146.415C183.52 146.345 183.56 146.249 183.56 146.15V132.618L186.656 138.266C186.708 138.345 186.787 138.403 186.879 138.426C186.972 138.45 187.069 138.437 187.152 138.392C187.236 138.346 187.299 138.271 187.329 138.18C187.359 138.09 187.353 137.992 187.314 137.906L183.894 131.66H204.114L200.434 137.716C200.381 137.801 200.364 137.903 200.387 138.001C200.409 138.099 200.47 138.184 200.555 138.237C200.64 138.29 200.743 138.307 200.841 138.284C200.938 138.261 201.023 138.201 201.076 138.116L204.372 132.682V160.638H161.158C161.109 160.638 161.06 160.647 161.014 160.666C160.968 160.685 160.927 160.713 160.892 160.748C160.857 160.783 160.83 160.824 160.811 160.87C160.792 160.915 160.782 160.964 160.782 161.014V224.74C160.782 224.84 160.822 224.935 160.892 225.006C160.962 225.077 161.058 225.117 161.158 225.118H182L182.058 230.09L156.74 246.856C154.866 248.02 155.94 250.732 158.308 251.398C200.972 263.426 198.326 262.764 199.274 262.764C200.057 262.783 200.825 262.546 201.46 262.088C229.948 240.314 228.802 240.994 228.764 240.78L228.82 240.744V225.118H248.338C248.438 225.117 248.534 225.077 248.604 225.006C248.674 224.935 248.714 224.84 248.714 224.74V161.014C248.714 160.964 248.704 160.915 248.685 160.87C248.666 160.824 248.639 160.783 248.604 160.748C248.569 160.713 248.528 160.685 248.482 160.666C248.436 160.647 248.387 160.638 248.338 160.638H205.124V132.694L208.178 138.266C208.229 138.345 208.309 138.403 208.401 138.426C208.494 138.45 208.591 138.437 208.674 138.392C208.758 138.346 208.821 138.271 208.851 138.18C208.881 138.09 208.875 137.992 208.836 137.906L205.416 131.66H227.324L223.644 137.716C223.591 137.801 223.574 137.903 223.597 138.001C223.619 138.099 223.68 138.184 223.765 138.237C223.85 138.29 223.953 138.307 224.051 138.284C224.148 138.261 224.233 138.201 224.286 138.116L227.466 132.888V146.16C227.466 146.259 227.506 146.355 227.576 146.425C227.647 146.496 227.742 146.536 227.842 146.536H322.896V160.648H279.682C279.582 160.648 279.487 160.687 279.416 160.758C279.346 160.828 279.306 160.924 279.306 161.024V224.742C279.306 224.841 279.346 224.937 279.416 225.007C279.487 225.078 279.582 225.118 279.682 225.118H337.988V234.13C337.978 242.821 334.52 251.154 328.373 257.299C322.226 263.444 313.892 266.899 305.2 266.906H147.386C147.291 266.913 147.202 266.955 147.137 267.025C147.072 267.095 147.035 267.187 147.035 267.283C147.035 267.378 147.072 267.47 147.137 267.54C147.202 267.61 147.291 267.653 147.386 267.66H305.2C314.089 267.649 322.612 264.113 328.898 257.827C335.183 251.541 338.719 243.019 338.73 234.13V225.118H366.852C366.952 225.118 367.047 225.078 367.118 225.007C367.188 224.937 367.228 224.841 367.228 224.742V161.014C367.228 160.916 367.19 160.821 367.121 160.751C367.053 160.681 366.96 160.64 366.862 160.638ZM185.574 196.682L224.702 202.722C225.581 202.828 226.398 203.23 227.018 203.861C227.639 204.493 228.026 205.317 228.116 206.198V240.282L182.814 230L182.438 198.814C182.418 197.212 183.952 196.424 185.574 196.682ZM198.174 261.86L158.512 250.682C156.834 250.208 155.836 248.282 157.15 247.482L182.514 230.682L227.546 240.922L201 261.482C200.587 261.753 200.117 261.928 199.627 261.992C199.136 262.057 198.638 262.009 198.168 261.854L198.174 261.86ZM247.974 224.37H228.918V206.202C228.826 205.135 228.369 204.132 227.624 203.363C226.879 202.593 225.891 202.104 224.828 201.978L185.7 195.938C185.244 195.807 184.764 195.782 184.297 195.864C183.829 195.945 183.386 196.132 183.001 196.409C182.617 196.686 182.299 197.047 182.074 197.465C181.849 197.882 181.721 198.346 181.7 198.82L182 224.364H161.534V161.39H247.962L247.974 224.37ZM104.286 72.4596H305.2C313.89 72.4692 322.221 75.9253 328.366 82.0699C334.511 88.2145 337.968 96.5456 337.978 105.236V112.004H248.714V85.4816C248.714 85.3819 248.674 85.2863 248.604 85.2158C248.533 85.1452 248.438 85.1056 248.338 85.1056H161.158C161.058 85.1056 160.963 85.1452 160.892 85.2158C160.822 85.2863 160.782 85.3819 160.782 85.4816V112.004H71.51V105.236C71.5195 96.5458 74.9758 88.2146 81.1204 82.07C87.265 75.9254 95.5962 72.4692 104.286 72.4596ZM161.534 130.908V85.8616H247.962V130.908H161.534ZM129.436 224.364H43.012V161.39H129.436V224.364ZM86.224 145.764C86.1237 145.764 86.0276 145.803 85.9567 145.874C85.8858 145.945 85.846 146.041 85.846 146.142V160.63H71.51V112.756H160.782V131.282C160.782 131.381 160.822 131.477 160.892 131.548C160.963 131.618 161.058 131.658 161.158 131.658H182.6L178.92 137.714C178.867 137.799 178.85 137.901 178.873 137.999C178.895 138.097 178.956 138.182 179.041 138.235C179.126 138.288 179.229 138.305 179.327 138.282C179.424 138.259 179.509 138.199 179.562 138.114L182.8 132.754V145.772L86.224 145.764ZM323.272 145.764H228.218V132.482L231.388 138.268C231.439 138.347 231.519 138.405 231.611 138.428C231.704 138.452 231.801 138.439 231.884 138.394C231.968 138.348 232.031 138.273 232.061 138.182C232.091 138.092 232.085 137.994 232.046 137.908L228.626 131.662H248.338C248.387 131.662 248.436 131.652 248.482 131.633C248.528 131.614 248.569 131.586 248.604 131.551C248.639 131.517 248.666 131.475 248.685 131.43C248.704 131.384 248.714 131.335 248.714 131.286V112.756H337.988V160.638H323.648V146.15C323.648 146.05 323.608 145.954 323.538 145.883C323.468 145.812 323.372 145.772 323.272 145.772V145.764ZM366.486 224.364H280.058V161.39H366.486V224.364Z" fill="#0a48b3"/>
<path d="M179.69 107.966L196.8 99.8197C196.89 99.7767 196.96 99.6997 196.993 99.6055C197.026 99.5114 197.021 99.4078 196.978 99.3177C196.935 99.2275 196.858 99.1581 196.764 99.1247C196.67 99.0913 196.566 99.0967 196.476 99.1397L178.676 107.618C178.613 107.649 178.559 107.697 178.522 107.756C178.485 107.816 178.465 107.885 178.465 107.956C178.465 108.026 178.485 108.095 178.522 108.155C178.559 108.215 178.613 108.263 178.676 108.294C197.39 117.652 196.662 117.346 196.862 117.346C196.946 117.345 197.028 117.315 197.094 117.262C197.159 117.21 197.206 117.136 197.225 117.054C197.244 116.972 197.235 116.886 197.2 116.809C197.165 116.733 197.105 116.67 197.03 116.632L179.69 107.966Z" fill="#0a48b3"/>
<path d="M230.822 107.572L212.822 99.2036C212.732 99.1615 212.628 99.157 212.534 99.1911C212.441 99.2252 212.364 99.2952 212.322 99.3856C212.28 99.4761 212.275 99.5796 212.309 99.6733C212.344 99.7671 212.414 99.8435 212.504 99.8856L229.816 107.93L212.708 116.698C212.624 116.746 212.561 116.824 212.533 116.917C212.506 117.01 212.515 117.11 212.559 117.197C212.604 117.283 212.68 117.349 212.772 117.38C212.864 117.412 212.964 117.407 213.052 117.366C232.39 107.492 231.052 108.248 231.052 107.906C231.049 107.834 231.026 107.764 230.986 107.705C230.945 107.646 230.888 107.6 230.822 107.572Z" fill="#0a48b3"/>
<path d="M210.532 91.9136L198.028 124.588C197.992 124.681 197.995 124.784 198.035 124.875C198.076 124.966 198.151 125.038 198.244 125.074C198.337 125.109 198.441 125.107 198.532 125.066C198.623 125.026 198.694 124.951 198.73 124.858L211.234 92.1816C211.265 92.0895 211.259 91.989 211.218 91.9011C211.176 91.8132 211.103 91.7448 211.012 91.7102C210.921 91.6755 210.82 91.6773 210.731 91.7153C210.641 91.7532 210.57 91.8243 210.532 91.9136Z" fill="#0a48b3"/>
<path d="M60.132 172.824C58.6538 172.851 57.2455 173.458 56.2099 174.513C55.1744 175.569 54.5942 176.988 54.5942 178.467C54.5942 179.945 55.1744 181.365 56.2099 182.42C57.2455 183.475 58.6538 184.082 60.132 184.11H111.742C112.492 184.124 113.237 183.988 113.934 183.711C114.631 183.434 115.266 183.02 115.801 182.495C116.337 181.97 116.762 181.343 117.052 180.651C117.343 179.959 117.492 179.217 117.492 178.467C117.492 177.717 117.343 176.974 117.052 176.282C116.762 175.591 116.337 174.964 115.801 174.438C115.266 173.913 114.631 173.5 113.934 173.222C113.237 172.945 112.492 172.81 111.742 172.824H60.132ZM116.634 178.468C116.632 179.764 116.116 181.007 115.199 181.924C114.282 182.84 113.039 183.356 111.742 183.358H60.132C58.8519 183.332 57.6331 182.805 56.7369 181.891C55.8408 180.976 55.3389 179.747 55.3389 178.467C55.3389 177.186 55.8408 175.957 56.7369 175.043C57.6331 174.128 58.8519 173.602 60.132 173.576H111.742C113.039 173.577 114.282 174.093 115.199 175.01C116.116 175.927 116.632 177.171 116.634 178.468Z" fill="#0a48b3"/>
<path d="M178.826 172.824C178.076 172.81 177.331 172.945 176.634 173.222C175.937 173.5 175.302 173.913 174.767 174.438C174.231 174.964 173.806 175.591 173.516 176.282C173.225 176.974 173.076 177.717 173.076 178.467C173.076 179.217 173.225 179.959 173.516 180.651C173.806 181.343 174.231 181.97 174.767 182.495C175.302 183.02 175.937 183.434 176.634 183.711C177.331 183.988 178.076 184.124 178.826 184.11H230.436C231.186 184.124 231.931 183.988 232.628 183.711C233.325 183.434 233.96 183.02 234.495 182.495C235.031 181.97 235.456 181.343 235.746 180.651C236.037 179.959 236.186 179.217 236.186 178.467C236.186 177.717 236.037 176.974 235.746 176.282C235.456 175.591 235.031 174.964 234.495 174.438C233.96 173.913 233.325 173.5 232.628 173.222C231.931 172.945 231.186 172.81 230.436 172.824H178.826Z" fill="#0a48b3"/>
<path d="M91.216 191.664H60.132C58.6538 191.691 57.2455 192.298 56.2099 193.353C55.1744 194.409 54.5942 195.828 54.5942 197.307C54.5942 198.785 55.1744 200.205 56.2099 201.26C57.2455 202.315 58.6538 202.922 60.132 202.95H91.216C91.966 202.964 92.7113 202.828 93.4083 202.551C94.1053 202.274 94.74 201.86 95.2754 201.335C95.8108 200.809 96.2361 200.183 96.5264 199.491C96.8167 198.799 96.9662 198.057 96.9662 197.307C96.9662 196.556 96.8167 195.814 96.5264 195.122C96.2361 194.431 95.8108 193.804 95.2754 193.278C94.74 192.753 94.1053 192.339 93.4083 192.062C92.7113 191.785 91.966 191.649 91.216 191.664Z" fill="#0a48b3"/>
<path d="M299.034 180.54H329.258C330.755 180.54 332.19 179.945 333.249 178.887C334.307 177.828 334.902 176.393 334.902 174.896C334.902 173.399 334.307 171.963 333.249 170.905C332.19 169.846 330.755 169.252 329.258 169.252H299.034C297.537 169.252 296.102 169.846 295.043 170.905C293.985 171.963 293.39 173.399 293.39 174.896C293.39 176.393 293.985 177.828 295.043 178.887C296.102 179.945 297.537 180.54 299.034 180.54Z" fill="#0a48b3"/>
<path d="M343.542 188.092H299.034C298.284 188.078 297.539 188.213 296.842 188.49C296.145 188.768 295.51 189.181 294.975 189.706C294.439 190.232 294.014 190.859 293.724 191.55C293.433 192.242 293.284 192.985 293.284 193.735C293.284 194.485 293.433 195.227 293.724 195.919C294.014 196.611 294.439 197.238 294.975 197.763C295.51 198.288 296.145 198.702 296.842 198.979C297.539 199.256 298.284 199.392 299.034 199.378H343.542C345.02 199.35 346.428 198.743 347.464 197.688C348.5 196.633 349.08 195.213 349.08 193.735C349.08 192.256 348.5 190.837 347.464 189.781C346.428 188.726 345.02 188.119 343.542 188.092ZM348.432 193.734C348.431 195.03 347.915 196.274 346.999 197.191C346.082 198.108 344.839 198.624 343.542 198.626H299.034C298.383 198.639 297.737 198.522 297.132 198.282C296.527 198.042 295.976 197.684 295.511 197.229C295.046 196.773 294.677 196.229 294.425 195.63C294.173 195.03 294.043 194.385 294.043 193.735C294.043 193.084 294.173 192.44 294.425 191.84C294.677 191.24 295.046 190.696 295.511 190.241C295.976 189.785 296.527 189.427 297.132 189.187C297.737 188.947 298.383 188.83 299.034 188.844H343.542C344.838 188.845 346.081 189.361 346.998 190.278C347.915 191.194 348.43 192.437 348.432 193.734Z" fill="#0a48b3"/>
<path d="M347.36 145.482L353.888 138.994L360.378 145.52C360.448 145.59 360.544 145.63 360.644 145.631C360.743 145.631 360.839 145.592 360.91 145.522C360.981 145.451 361.021 145.356 361.021 145.256C361.022 145.156 360.982 145.06 360.912 144.99L354.422 138.462L360.95 131.972C361.015 131.9 361.049 131.807 361.047 131.71C361.044 131.614 361.005 131.522 360.937 131.454C360.869 131.386 360.778 131.347 360.682 131.344C360.585 131.341 360.492 131.375 360.42 131.44L353.892 137.928L347.4 131.404C347.329 131.339 347.235 131.304 347.139 131.307C347.043 131.309 346.951 131.348 346.883 131.416C346.814 131.484 346.775 131.576 346.772 131.672C346.769 131.768 346.804 131.862 346.868 131.934L353.356 138.464L346.828 144.952C346.764 145.023 346.729 145.117 346.732 145.213C346.735 145.309 346.774 145.401 346.843 145.469C346.911 145.537 347.003 145.576 347.099 145.578C347.195 145.581 347.289 145.546 347.36 145.482Z" fill="#0a48b3"/>
<path d="M55.53 144.806C55.5668 144.857 55.6158 144.898 55.6726 144.926C55.7294 144.953 55.7921 144.966 55.8552 144.963C55.9182 144.96 55.9795 144.941 56.0334 144.909C56.0874 144.876 56.1323 144.83 56.164 144.776L63.176 132.528C63.2256 132.441 63.2387 132.338 63.2125 132.242C63.1862 132.145 63.1227 132.063 63.036 132.014C62.9493 131.964 62.8464 131.951 62.75 131.977C62.6536 132.003 62.5716 132.067 62.522 132.154L55.8 143.892L50.142 135.924C50.0826 135.847 49.9957 135.796 49.8995 135.782C49.8034 135.767 49.7055 135.791 49.6264 135.847C49.5472 135.904 49.493 135.989 49.475 136.084C49.4571 136.18 49.4768 136.278 49.53 136.36L55.53 144.806Z" fill="#0a48b3"/>
<path d="M199.4 53.4256C199.638 53.4256 199.136 53.9116 205.426 46.8596C210.026 50.9536 209.776 50.8436 210.068 50.7456C210.36 50.6476 210.046 51.6896 213.678 34.2756C213.692 34.211 213.688 34.1439 213.668 34.0811C213.647 34.0183 213.61 33.9622 213.561 33.9183C213.511 33.8744 213.451 33.8443 213.386 33.8312C213.322 33.8181 213.255 33.8224 213.192 33.8436L197.492 39.0256C197.429 39.0464 197.373 39.0834 197.329 39.1327C197.285 39.1821 197.254 39.2422 197.241 39.307C197.227 39.3719 197.231 39.4391 197.251 39.502C197.272 39.5649 197.309 39.6214 197.358 39.6656L201.634 43.4656L195.888 49.9076C195.855 49.9444 195.83 49.9874 195.814 50.034C195.797 50.0807 195.791 50.13 195.794 50.1793C195.797 50.2286 195.809 50.2768 195.831 50.3211C195.853 50.3654 195.883 50.405 195.92 50.4376C199.4 53.5536 199.2 53.4256 199.4 53.4256ZM202.446 43.6956C202.512 43.621 202.546 43.5231 202.541 43.4234C202.535 43.3238 202.49 43.2304 202.416 43.1636L198.346 39.5376L212.81 34.7616L209.722 49.6816L205.654 46.0536C205.617 46.0203 205.574 45.9947 205.528 45.9781C205.481 45.9616 205.431 45.9545 205.382 45.9573C205.332 45.9601 205.284 45.9727 205.239 45.9944C205.195 46.0161 205.155 46.0464 205.122 46.0836L199.378 52.5236L196.708 50.1436L202.446 43.6956Z" fill="#0a48b3"/>
<path d="M240.846 289.514C240.226 289.513 239.621 289.697 239.105 290.04C238.59 290.384 238.188 290.873 237.951 291.446C237.714 292.018 237.651 292.648 237.772 293.255C237.893 293.863 238.191 294.421 238.629 294.86C239.067 295.298 239.625 295.596 240.232 295.717C240.84 295.838 241.47 295.776 242.042 295.539C242.615 295.302 243.104 294.901 243.448 294.386C243.792 293.871 243.976 293.265 243.976 292.646C243.975 291.816 243.645 291.02 243.058 290.433C242.471 289.846 241.676 289.515 240.846 289.514ZM240.846 295.024C240.375 295.024 239.915 294.885 239.523 294.623C239.131 294.362 238.826 293.99 238.646 293.555C238.465 293.12 238.418 292.642 238.51 292.18C238.601 291.718 238.828 291.294 239.161 290.961C239.494 290.628 239.918 290.401 240.38 290.309C240.842 290.217 241.321 290.265 241.756 290.445C242.191 290.626 242.562 290.931 242.824 291.323C243.085 291.714 243.224 292.175 243.224 292.646C243.223 293.276 242.973 293.881 242.527 294.327C242.081 294.772 241.477 295.023 240.846 295.024Z" fill="#0a48b3"/>
<path d="M144.76 367.046H90.622C59.97 367.02 68.534 330.374 69.306 327.3C65.906 318.374 65.804 297.546 66.584 287.762C67.3876 282.349 68.6631 277.018 70.396 271.828L70.964 269.542C75.1536 271.729 79.577 273.436 84.15 274.63C90.9108 280.099 95.8405 287.503 98.28 295.85L117.15 271.948C125.242 273.884 132.352 278.7 137.15 285.498L132.706 291.582C136.158 292.245 139.237 294.178 141.334 297C142.426 298.361 143.359 299.843 144.114 301.416L145.504 304.794C146.352 307.191 146.812 309.709 146.868 312.252C146.868 312.252 113.048 333.572 112.22 334.002L143.758 319.464L144.558 322.852C147.986 337.376 148.055 352.491 144.76 367.046Z" fill="#FFE7EA"/>
<path d="M389.6 366.668H300.846C302.476 361.834 303.148 331.622 300.694 317.982C300.653 317.552 300.482 317.145 300.202 316.816C299.923 316.487 299.55 316.252 299.133 316.141C298.716 316.031 298.275 316.051 297.869 316.199C297.464 316.348 297.114 316.616 296.866 316.97C291.21 323.674 284.282 339.606 281.71 348.288C258.892 349.588 237.02 346.408 222.51 343.888C215.108 337.767 208.058 331.232 201.394 324.316L179.096 299.516C175.702 295.734 171.138 293.199 166.134 292.316C166.175 291.894 166.106 291.47 165.935 291.082C165.764 290.695 165.495 290.359 165.156 290.106C165.43 289.721 165.579 289.261 165.584 288.789C165.59 288.317 165.451 287.855 165.186 287.464C164.512 286.698 163.681 286.087 162.749 285.672C161.817 285.258 160.806 285.05 159.786 285.064C166.478 281.416 169.306 277.432 169.346 276.304C169.362 275.84 168.986 275.45 168.298 275.822C163.165 278.617 157.848 281.059 152.384 283.134C153.026 282.014 153.738 280.36 152.922 279.558C152.868 279.503 152.802 279.461 152.729 279.434C152.657 279.407 152.579 279.397 152.502 279.404C150.566 279.424 138.572 289.732 136.044 292.244C135.189 291.841 134.292 291.533 133.37 291.326L137.464 285.726C137.644 285.482 137.482 285.344 137.36 285.14C136.664 284.192 135.937 283.289 135.178 282.432C142.45 272.29 148.616 268.562 147.688 267.032C147.322 266.432 146.246 266.776 144.618 267.308C141.59 268.344 140.002 269.018 138.308 269.42C138.818 267.262 140.074 261.974 140.226 261.334C141.868 259.102 145.504 254.382 147.468 252.08C149.198 250.054 149.806 248.752 149.324 248.102C149.178 247.941 148.982 247.834 148.768 247.798C148.553 247.761 148.333 247.798 148.142 247.902C146.068 248.986 144.141 250.33 142.408 251.902C142.931 249.926 143.091 247.871 142.88 245.838C142.628 245.022 141.934 244.702 141.006 245.606C138.066 248.466 135.91 259.262 123.192 271.7C122.694 272.188 122.24 272.632 121.838 273.046C120.391 272.48 118.908 272.008 117.4 271.634C117.295 271.61 117.185 271.611 117.081 271.639C116.976 271.667 116.88 271.719 116.8 271.792L98.4 295.086C97.7556 293.16 97.0113 291.27 96.17 289.422C91.066 278.404 83.606 274.26 81.796 271.94C80.038 269.678 80.474 266.712 80.568 263.488C88.124 263.346 87.868 253.996 85.406 246.758C84.295 243.154 82.3802 239.851 79.806 237.096C74.376 230.752 54.606 230.908 49.87 247.2C49.12 249.8 45.976 262.898 56.63 270.134C49.2642 274.402 42.8981 280.199 37.96 287.134C30.93 297.654 30.114 313.568 40.916 321.99C47.848 327.39 60.41 328.118 67.468 321.846C67.8037 323.703 68.2859 325.531 68.91 327.312C68.262 329.976 64.066 348.846 72.356 359.67C75.1559 363.267 79.1458 365.748 83.61 366.67H10.35C10.2548 366.677 10.1657 366.719 10.1007 366.789C10.0356 366.859 9.99948 366.951 9.99948 367.047C9.99948 367.142 10.0356 367.234 10.1007 367.304C10.1657 367.374 10.2548 367.417 10.35 367.424C344.938 367.424 385.15 367.706 389.55 367.4C390.4 367.338 389.892 366.668 389.6 366.668ZM152.442 280.162C152.828 280.738 151.962 282.496 151.18 283.626C147.77 284.828 144.512 286.426 141.474 288.388C145.864 284.658 151.378 280.316 152.442 280.162ZM150.278 284.8C156.435 282.416 162.46 279.706 168.328 276.682C168.341 276.675 168.356 276.672 168.37 276.674C168.385 276.676 168.399 276.683 168.409 276.693C168.42 276.703 168.427 276.716 168.43 276.731C168.432 276.745 168.43 276.76 168.424 276.774C167.738 278.132 164.838 281.72 158.206 285.054C157.297 285.096 156.394 285.23 155.512 285.454C155.415 285.478 155.332 285.54 155.281 285.626C155.23 285.712 155.215 285.815 155.24 285.912C155.265 286.008 155.327 286.091 155.413 286.142C155.499 286.193 155.601 286.208 155.698 286.184C160.552 284.956 166.15 287.016 164.546 289.676C161.954 288.265 158.91 287.939 156.078 288.768C155.986 288.796 155.909 288.859 155.862 288.943C155.815 289.027 155.802 289.126 155.825 289.219C155.849 289.312 155.907 289.393 155.988 289.444C156.07 289.496 156.168 289.514 156.262 289.496C162.516 287.918 167.906 291.406 164.158 293.974C162.254 292.108 158.644 292.068 155.93 292.662C155.882 292.672 155.836 292.692 155.795 292.721C155.755 292.749 155.72 292.785 155.694 292.827C155.667 292.868 155.649 292.915 155.64 292.964C155.631 293.012 155.632 293.062 155.643 293.111C155.654 293.159 155.674 293.205 155.702 293.245C155.73 293.286 155.766 293.32 155.808 293.347C155.85 293.374 155.896 293.392 155.945 293.401C155.994 293.409 156.044 293.408 156.092 293.398C157.322 293.003 158.625 292.887 159.905 293.06C161.185 293.233 162.411 293.69 163.492 294.398C163.731 294.575 163.924 294.808 164.055 295.075C164.185 295.343 164.25 295.638 164.244 295.936C164.044 298.258 159.62 301.498 155.914 299.968C157.361 299.091 158.883 298.344 160.462 297.738C160.562 297.734 160.656 297.69 160.723 297.617C160.791 297.544 160.827 297.446 160.823 297.347C160.819 297.247 160.776 297.153 160.702 297.085C160.629 297.017 160.532 296.982 160.432 296.986C154.96 299.019 150.161 302.535 146.572 307.14C145.172 301.466 142.026 295.502 136.786 292.652C140.86 289.367 145.41 286.72 150.278 284.8ZM148.436 248.59C148.746 248.456 148.79 248.558 148.678 248.924C148.242 250.338 146.658 251.534 140.662 259.478C141.278 256.878 141.782 254.724 142.136 253.134C144.032 251.354 146.149 249.827 148.436 248.59ZM123.716 272.23C130.277 265.921 135.525 258.376 139.156 250.03C139.735 248.638 140.515 247.338 141.472 246.174C142.01 245.61 142.116 245.718 142.22 246.326C142.678 249.022 140.62 256.212 136.866 272.252C136.845 272.348 136.862 272.449 136.915 272.533C136.967 272.617 137.051 272.676 137.147 272.699C137.243 272.722 137.345 272.705 137.429 272.654C137.513 272.602 137.574 272.52 137.598 272.424C137.771 271.682 137.943 270.952 138.112 270.234C140.654 269.708 145.924 267.434 147.002 267.46C146.48 268.996 140.918 273.194 134.658 281.86C131.304 278.177 127.185 275.273 122.59 273.35C122.93 272.996 123.306 272.628 123.716 272.23ZM117.294 272.376C125.114 274.309 131.991 278.962 136.694 285.502L132.454 291.302L105.016 310.388C103.633 308.338 102.367 306.418 101.216 304.628C100.389 301.384 99.5533 298.483 98.708 295.926L117.294 272.376ZM68.8 244.644C69.426 245.004 70.85 245.762 71 245.044C72.25 238.688 74.14 236.83 75.504 236.392C82.464 234.16 92.844 262.518 80.582 262.732C78.6328 262.589 76.7234 262.107 74.94 261.308C74.8562 261.273 74.7625 261.269 74.6763 261.298C74.59 261.327 74.5172 261.385 74.4711 261.464C74.4249 261.542 74.4088 261.634 74.4255 261.724C74.4422 261.813 74.4907 261.893 74.562 261.95L79.744 266.082C79.612 270.606 80.596 271.996 82.628 273.796C78.7386 272.695 74.9717 271.2 71.386 269.334C72.4946 265.113 72.5946 260.69 71.678 256.424C71.3975 254.839 70.891 253.303 70.174 251.862C69.006 249.248 69.174 249.282 68.872 249.21C64.348 248.13 65.718 242.882 68.8 244.644ZM66.96 287.792C67.43 281.884 69.474 277.45 71.204 270.102C75.2736 272.177 79.5541 273.811 83.972 274.974C93.404 283.08 96.572 290.278 99.892 302.574C94.066 293.402 91.076 287.574 89.05 284.048C85.818 278.402 81.72 276.462 74.99 274.312C74.39 274.112 73.916 273.968 73.59 273.838C73.4983 273.803 73.3969 273.806 73.3071 273.845C73.2174 273.884 73.1465 273.957 73.1095 274.048C73.0725 274.138 73.0723 274.24 73.109 274.33C73.1457 274.421 73.2164 274.494 73.306 274.534C73.636 274.67 74.13 274.828 74.756 275.028C81.338 277.13 85.284 278.99 88.39 284.428C93.3352 293.596 98.7421 302.507 104.59 311.128C104.768 311.39 104.99 311.288 105.19 311.178L132.79 291.978C135.251 292.592 137.53 293.783 139.44 295.452C141.349 297.121 142.834 299.221 143.772 301.578C145.401 304.839 146.327 308.406 146.49 312.048C110.128 335.136 114.018 332.896 109.25 334.958C99.03 339.376 90.834 335.626 84.512 324.256C83.34 322.146 72.688 304.97 72.234 304.24C72.2077 304.198 72.1735 304.161 72.1331 304.132C72.0928 304.104 72.0471 304.083 71.9989 304.072C71.9506 304.061 71.9006 304.059 71.8517 304.067C71.8028 304.076 71.756 304.093 71.714 304.12C71.672 304.146 71.6355 304.18 71.6068 304.221C71.578 304.261 71.5574 304.307 71.5463 304.355C71.5352 304.403 71.5336 304.453 71.5418 304.502C71.55 304.551 71.5677 304.598 71.594 304.64C81.88 321.15 84.904 326.408 84.932 326.456C79.8077 327.046 74.6382 327.14 69.496 326.734C66.294 317.638 66.2 297.352 66.96 287.792ZM90.62 366.668C82.686 366.668 76.744 364.154 72.958 359.214C64.872 348.66 69.012 330.096 69.644 327.496C74.8899 327.898 80.1628 327.782 85.386 327.15C91.8 336.97 100 339.506 109.556 335.646L143.504 319.994C147.554 335.251 147.882 351.257 144.46 366.668H90.62ZM203.806 366.668H145.234C146.719 360.394 147.49 353.973 147.534 347.526C148.874 346.326 147.306 347.478 162.182 337.434C168.492 337.888 178.052 338.774 188.054 340.434C189.966 341.434 200.738 346.934 204.284 348.834C202.781 353.213 201.823 357.762 201.432 362.376C201.36 363.245 201.547 364.115 201.968 364.879C202.389 365.642 203.027 366.265 203.8 366.668H203.806ZM156.752 336.346C160.552 331.094 164.05 325.778 165.062 324.228C169.35 329.742 176.296 334.202 185.964 339.338C176 337.782 165 336.752 156.752 336.346ZM204.896 348.3C187.616 339.084 172.386 332.802 165.34 323.35C165.304 323.301 165.256 323.262 165.201 323.235C165.146 323.209 165.086 323.197 165.025 323.199C164.964 323.201 164.905 323.218 164.852 323.248C164.8 323.278 164.755 323.32 164.722 323.372C161.246 328.746 152.214 342.086 147.542 346.496C147.5 335.893 145.964 325.349 142.978 315.176C147.402 312.36 147.25 312.544 147.25 312.252C147.241 310.85 147.09 309.453 146.8 308.082C149.074 305.023 151.906 302.422 155.148 300.418C156.146 300.898 157.245 301.127 158.352 301.085C159.458 301.044 160.537 300.733 161.496 300.18C163.608 299.052 165.916 296.58 164.62 294.528C165.184 294.169 165.631 293.654 165.908 293.046C170.781 293.887 175.227 296.348 178.528 300.03L200.854 324.85C207.138 331.142 220.364 344.526 228.114 348.54C220.493 350.539 212.474 350.456 204.896 348.3ZM254.822 363.52C250.578 359.938 239.606 351.29 229.342 348.294C227.381 347.351 225.524 346.208 223.8 344.882C242.883 348.442 262.307 349.839 281.704 349.048C283.768 356.92 283.952 359.102 281.704 366.674H255.044C255.241 366.454 255.392 366.197 255.488 365.918C255.583 365.639 255.622 365.344 255.601 365.05C255.581 364.755 255.501 364.468 255.367 364.205C255.233 363.943 255.048 363.709 254.822 363.52Z" fill="#0a48b3"/>
</svg>
