<svg width="16" height="16" viewBox="0 0 16 16" fill="none" xmlns="http://www.w3.org/2000/svg">
<path d="M10.7997 3.99967C10.7997 3.63148 11.0982 3.33301 11.4663 3.33301C11.8908 3.33301 12.308 3.4183 12.7139 3.58069C13.1557 3.75741 13.4958 4.01968 13.8044 4.32827C14.113 4.63686 14.3753 4.97694 14.552 5.41875C14.7144 5.82471 14.7997 6.24185 14.7997 6.66634C14.7997 7.09083 14.7144 7.50797 14.552 7.91394C14.3775 8.3502 14.1196 8.68728 13.816 8.99279L13.1596 9.71479C13.1525 9.72261 13.1452 9.73027 13.1377 9.73775L11.0044 11.8711C10.6958 12.1797 10.3557 12.4419 9.91393 12.6187C9.50797 12.781 9.09083 12.8663 8.66634 12.8663C8.24185 12.8663 7.82471 12.781 7.41875 12.6187C6.97694 12.4419 6.63686 12.1797 6.32827 11.8711C6.01968 11.5625 5.75741 11.2224 5.58069 10.7806C5.41518 10.3668 5.33301 9.94931 5.33301 9.46634C5.33301 9.04185 5.4183 8.62471 5.58069 8.21875C5.75741 7.77694 6.01968 7.43686 6.32827 7.12827L7.0616 6.39494C7.32195 6.13459 7.74406 6.13459 8.00441 6.39494C8.26476 6.65529 8.26476 7.0774 8.00441 7.33775L7.27108 8.07108C7.04634 8.29582 6.9086 8.48908 6.81866 8.71393C6.71438 8.97464 6.66634 9.22417 6.66634 9.46634C6.66634 9.78338 6.7175 10.0325 6.81866 10.2854C6.9086 10.5103 7.04634 10.7035 7.27108 10.9283C7.49582 11.153 7.68908 11.2907 7.91393 11.3807C8.17464 11.485 8.42417 11.533 8.66634 11.533C8.90852 11.533 9.15805 11.485 9.41875 11.3807C9.64361 11.2907 9.83686 11.153 10.0616 10.9283L12.1837 8.80615L12.8397 8.08456C12.8468 8.07674 12.8541 8.06908 12.8616 8.0616C13.0863 7.83686 13.2241 7.64361 13.314 7.41875C13.4183 7.15805 13.4663 6.90851 13.4663 6.66634C13.4663 6.42417 13.4183 6.17464 13.314 5.91393C13.2241 5.68908 13.0863 5.49582 12.8616 5.27108C12.6369 5.04634 12.4436 4.9086 12.2187 4.81866C11.958 4.71438 11.7085 4.66634 11.4663 4.66634C11.0982 4.66634 10.7997 4.36786 10.7997 3.99967ZM7.53301 4.99967C7.29083 4.99967 7.0413 5.04771 6.7806 5.15199C6.55574 5.24194 6.36249 5.37967 6.13775 5.60441L3.94896 7.7932L3.29297 8.51479C3.28585 8.52261 3.27856 8.53027 3.27108 8.53775C3.04634 8.76249 2.9086 8.95574 2.81866 9.1806C2.71438 9.4413 2.66634 9.69083 2.66634 9.93301C2.66634 10.1752 2.71438 10.4247 2.81866 10.6854C2.9086 10.9103 3.04634 11.1035 3.27108 11.3283C3.49582 11.553 3.68908 11.6907 3.91393 11.7807C4.17464 11.885 4.42417 11.933 4.66634 11.933C5.03453 11.933 5.33301 12.2315 5.33301 12.5997C5.33301 12.9679 5.03453 13.2663 4.66634 13.2663C4.24185 13.2663 3.82471 13.181 3.41875 13.0187C2.97694 12.8419 2.63686 12.5797 2.32827 12.2711C2.01968 11.9625 1.75741 11.6224 1.58069 11.1806C1.4183 10.7746 1.33301 10.3575 1.33301 9.93301C1.33301 9.50852 1.4183 9.09138 1.58069 8.68541C1.7552 8.24914 2.01311 7.91207 2.31668 7.60656L2.97305 6.88456C2.98016 6.87673 2.98746 6.86908 2.99494 6.8616L5.19494 4.6616C5.50353 4.35301 5.84361 4.09075 6.28541 3.91402C6.69138 3.75164 7.10852 3.66634 7.53301 3.66634C7.9575 3.66634 8.37464 3.75164 8.7806 3.91402C9.22241 4.09075 9.56249 4.35301 9.87108 4.6616C10.1797 4.9702 10.4419 5.31027 10.6187 5.75208C10.781 6.15805 10.8663 6.57518 10.8663 6.99967C10.8663 7.42417 10.781 7.8413 10.6187 8.24727C10.444 8.68402 10.1857 9.02135 9.88167 9.32713L9.15778 10.1168C8.90898 10.3882 8.48727 10.4066 8.21586 10.1578C7.94445 9.90898 7.92611 9.48727 8.17491 9.21586L8.90824 8.41586C8.91476 8.40874 8.92144 8.40176 8.92827 8.39494C9.15301 8.1702 9.29075 7.97694 9.38069 7.75208C9.48497 7.49138 9.53301 7.24185 9.53301 6.99967C9.53301 6.7575 9.48497 6.50797 9.38069 6.24727C9.29075 6.02241 9.15301 5.82915 8.92827 5.60441C8.70353 5.37967 8.51027 5.24194 8.28541 5.15199C8.02471 5.04771 7.77518 4.99967 7.53301 4.99967Z" fill="white"/>
</svg>
